<?xml version="1.0" encoding="UTF-8" standalone="no"?>
<svg
   xmlns:dc="http://purl.org/dc/elements/1.1/"
   xmlns:cc="http://creativecommons.org/ns#"
   xmlns:rdf="http://www.w3.org/1999/02/22-rdf-syntax-ns#"
   xmlns:svg="http://www.w3.org/2000/svg"
   xmlns="http://www.w3.org/2000/svg"
   xmlns:sodipodi="http://sodipodi.sourceforge.net/DTD/sodipodi-0.dtd"
   xmlns:inkscape="http://www.inkscape.org/namespaces/inkscape"
   id="svg6641"
   version="1.1"
   class=""
   width="512px"
   viewBox="-17 0 512 512"
   height="512px"
   sodipodi:docname="logs_oak.svg"
   inkscape:version="0.92.4 (5da689c313, 2019-01-14)">
  <sodipodi:namedview
     pagecolor="#ffffff"
     bordercolor="#666666"
     borderopacity="1"
     objecttolerance="10"
     gridtolerance="10"
     guidetolerance="10"
     inkscape:pageopacity="0"
     inkscape:pageshadow="2"
     inkscape:window-width="958"
     inkscape:window-height="991"
     id="namedview15922"
     showgrid="false"
     inkscape:zoom="0.921875"
     inkscape:cx="158.55352"
     inkscape:cy="157.14397"
     inkscape:window-x="-8"
     inkscape:window-y="0"
     inkscape:window-maximized="0"
     inkscape:current-layer="svg6641" />
  <metadata
     id="metadata6647">
    <rdf:RDF>
      <cc:Work
         rdf:about="">
        <dc:format>image/svg+xml</dc:format>
        <dc:type
           rdf:resource="http://purl.org/dc/dcmitype/StillImage" />
        <dc:title></dc:title>
      </cc:Work>
    </rdf:RDF>
  </metadata>
  <defs
     id="defs6645" />
  <g
     transform="translate(-820.42375,-728.34621)"
     id="g9300">
    <path
       id="path5212-2-29-2"
       style="fill:#805325;fill-opacity:1"
       data-old_color="#c66752"
       class=""
       data-original="#C66752"
       d="m 1214.5644,869.49468 -64.1406,64.14062 V 798.34624 H 830.42377 v 381.99996 c 0,18.5 32.17188,34.6602 80,43.3008 37.80469,6.8437 81.23828,8.2422 120.00003,5.1211 69.0195,-5.5508 120,-25.1328 120,-48.4219 v -105.289 l 134.8516,-134.85158 z m 0,0"
       inkscape:connector-curvature="0" />
    <path
       id="path5214-7-4-7"
       style="fill:#dcb995;fill-opacity:1"
       data-old_color="#fec9a6"
       class="active-path"
       data-original="#FEC9A6"
       d="m 1264.0644,890.70561 c 19.5313,19.53125 29.0196,41.69141 21.211,49.5 -7.8125,7.8125 -29.9727,-1.6875 -49.4922,-21.21875 -19.5313,-19.51953 -29.0313,-41.67968 -21.2188,-49.49218 7.8086,-7.8086 29.9688,1.67968 49.5,21.21093 z m 0,0"
       inkscape:connector-curvature="0" />
    <path
       sodipodi:nodetypes="ccsccc"
       id="path5212-2-2-9-7-0"
       style="fill:#704820;fill-opacity:1"
       data-old_color="#c66752"
       class=""
       data-original="#C66752"
       d="m 990.42377,858.34624 -160,-60.00001 v 381.99997 c 0,18.5 32.17188,34.6602 80,43.3008 25.18275,4.5588 52.86318,6.7014 79.99663,6.7014 z"
       inkscape:connector-curvature="0" />
    <path
       id="path5218-2-7"
       style="fill:#3e2810;fill-opacity:1"
       class=""
       data-original="#000000"
       d="m 955.65519,933.68413 c -5.5195,0 -10,4.48047 -10,10 0,5.51953 4.4805,10 10,10 5.5195,0 10,-4.48047 10,-10 0,-5.51953 -4.4805,-10 -10,-10 z m 0,0"
       inkscape:connector-curvature="0" />
    <path
       inkscape:connector-curvature="0"
       id="path5220-74-0"
       d="m 1101.6554,839.45673 c -6.1807,2.24299 -12.8372,4.29971 -19.916,6.14844 l -0.084,52.54492 c -0.01,5.51953 4.4766,10 10,10 5.5234,0 10,-4.48046 10,-10 z"
       style="fill:#482e12;fill-opacity:1" />
    <path
       id="path5222-0-2"
       style="fill:#3e2810;fill-opacity:1"
       class=""
       data-original="#000000"
       d="m 881.65519,943.68413 c 0,-5.52344 -4.47656,-10 -10,-10 -5.52344,0 -10,4.47656 -10,10 v 40 c 0,5.52344 4.47656,10 10,10 5.52344,0 10,-4.47656 10,-10 z m 0,0"
       inkscape:connector-curvature="0" />
    <path
       id="path5224-3-1"
       style="fill:#3e2810;fill-opacity:1"
       class=""
       data-original="#000000"
       d="m 891.65519,1033.6841 c -5.52344,0 -10,4.4766 -10,10 v 86 c 0,5.5235 4.47656,10 10,10 5.52344,0 10,-4.4765 10,-10 v -86 c 0,-5.5234 -4.47656,-10 -10,-10 z m 0,0"
       inkscape:connector-curvature="0" />
    <path
       id="path5226-9-4"
       style="fill:#482e12;fill-opacity:1"
       class=""
       data-original="#000000"
       d="m 1131.6552,973.68413 c -5.5234,0 -10,4.47656 -10,10 v 39.99997 c 0,5.5235 4.4766,10 10,10 5.5234,0 10,-4.4765 10,-10 v -39.99997 c 0,-5.52344 -4.4766,-10 -10,-10 z m 0,0"
       inkscape:connector-curvature="0" />
    <path
       id="path5228-5-0"
       style="fill:#3e2810;fill-opacity:1"
       class=""
       data-original="#000000"
       d="m 955.65519,973.68413 c -5.5234,0 -10,4.47656 -10,10 v 145.99997 c 0,5.5235 4.4766,10 10,10 5.5234,0 10,-4.4765 10,-10 V 983.68413 c 0,-5.52344 -4.4766,-10 -10,-10 z m 0,0"
       inkscape:connector-curvature="0" />
    <path
       id="path5230-6-8"
       style="fill:#482e12;fill-opacity:1"
       class=""
       data-original="#000000"
       d="m 1051.6552,913.68413 c -5.5234,0 -10,4.47656 -10,10 v 79.99997 c 0,5.5235 4.4766,10 10,10 5.5234,0 10,-4.4765 10,-10 v -79.99997 c 0,-5.52344 -4.4766,-10 -10,-10 z m 0,0"
       inkscape:connector-curvature="0" />
    <path
       id="path5232-52-3"
       style="fill:#482e12;fill-opacity:1"
       class=""
       data-original="#000000"
       d="m 1051.6552,1033.6841 c -5.5234,0 -10,4.4766 -10,10 v 40 c 0,5.5235 4.4766,10 10,10 5.5234,0 10,-4.4765 10,-10 v -40 c 0,-5.5234 -4.4766,-10 -10,-10 z m 0,0"
       inkscape:connector-curvature="0" />
    <path
       inkscape:connector-curvature="0"
       id="path5220-7-2-3-4"
       d="m 918.72571,1186.7536 c -5.52344,0 -10,4.4766 -10,10 v 26.5742 c 0.56718,0.1054 1.12559,0.2151 1.69727,0.3184 5.97251,1.0812 12.08986,2.0229 18.30273,2.8359 v -29.7285 c 0,-5.5234 -4.47661,-10 -10,-10 z"
       style="fill:#3e2810;fill-opacity:1" />
    <path
       inkscape:connector-curvature="0"
       id="path5220-7-0-6-2-9"
       d="m 908.72962,847.93525 v 64.67383 c 0,5.52343 4.47656,10 10,10 5.52339,0 10,-4.47657 10,-10 V 851.7204 c -6.93105,-1.08709 -13.60438,-2.35795 -20,-3.78515 z"
       style="fill:#3e2810;fill-opacity:1" />
    <path
       inkscape:connector-curvature="0"
       id="path5220-7-5-2-6"
       d="m 1038.7257,1160.0622 c -5.5234,0 -10,4.4805 -10,10 v 58.8281 c 0.5638,-0.043 1.1354,-0.078 1.6973,-0.123 6.2588,-0.5034 12.3651,-1.1252 18.3027,-1.8516 v -56.8535 c 0,-5.5195 -4.4766,-10 -10,-10 z"
       style="fill:#482e12;fill-opacity:1" />
    <path
       inkscape:connector-curvature="0"
       id="path5220-7-6-2-7"
       d="m 1118.7296,1172.5817 c -5.5234,0 -10.0007,4.4766 -10,10 v 31.4161 c 7.586,-2.6029 14.292,-5.4591 20,-8.5196 v -0.022 -22.875 c 0,-5.5234 -4.4766,-10 -10,-10 z"
       style="fill:#482e12;fill-opacity:1" />
    <path
       id="path5216-9-3-6"
       style="fill:#ce9c68;fill-opacity:1"
       data-old_color="#fec9a6"
       class="active-path"
       data-original="#FEC9A6"
       d="m 990.42377,738.34624 c -88.37109,0 -160,26.85937 -160,60 0,33.14062 71.62891,60 160,60 88.37103,0 160.00003,-26.85938 160.00003,-60 0,-33.14063 -71.629,-60 -160.00003,-60 z m 0,0"
       inkscape:connector-curvature="0" />
    <path
       id="path5216-3-7-9-9"
       style="fill:#dcb995;fill-opacity:1;stroke-width:0.68844628"
       data-old_color="#fec9a6"
       class="active-path"
       data-original="#FEC9A6"
       d="m 990.42377,759.84624 c -67.01474,0 -121.33333,16.7871 -121.33333,37.5 0,20.71289 54.31859,37.49999 121.33333,37.49999 67.01473,0 121.33333,-16.7871 121.33333,-37.49999 0,-20.7129 -54.3186,-37.5 -121.33333,-37.5 z m 0,0"
       inkscape:connector-curvature="0" />
    <path
       sodipodi:nodetypes="csccccc"
       id="path5216-9-9-7-4"
       style="opacity:1;vector-effect:none;fill:#c99259;fill-opacity:1;stroke-width:1;stroke-linecap:butt;stroke-linejoin:miter;stroke-miterlimit:4;stroke-dasharray:none;stroke-dashoffset:0;stroke-opacity:1"
       data-old_color="#fec9a6"
       class="active-path"
       data-original="#FEC9A6"
       d="m 990.42377,738.34624 c -88.37109,0 -160,26.85937 -160,60 0,33.14062 71.62891,60 160,60 v -23.50001 l -116.5,-36.5 116.5,-38.49999 z"
       inkscape:connector-curvature="0" />
    <path
       sodipodi:nodetypes="cscc"
       id="path5216-3-7-5-3-7"
       style="fill:#d8af86;fill-opacity:1;stroke-width:0.68844628"
       data-old_color="#fec9a6"
       class="active-path"
       data-original="#FEC9A6"
       d="m 990.42377,759.84624 c -67.01474,0 -121.33333,16.7871 -121.33333,37.5 0,20.71289 54.31859,37.49999 121.33333,37.49999 z"
       inkscape:connector-curvature="0" />
  </g>
</svg>
