<svg height="512pt" viewBox="0 -128 512 512" width="512pt" xmlns="http://www.w3.org/2000/svg"><path d="m90.011719 97.511719v60.003906c0 41.40625-33.605469 75.007813-75.011719 75.007813h-15v-45.003907c0-24.601562 12.003906-46.207031 30.605469-60.007812-18.601563-13.800781-30.605469-35.402344-30.605469-60.003907v-45.007812h15c41.40625 0 75.011719 33.605469 75.011719 75.011719zm0 0" fill="#ffcebf"/><path d="m391.945312 210.324219-11.402343 33.304687c-21 7.5-42.605469 11.398438-64.507813 11.398438-92.410156 0-193.523437-65.105469-262.230468-127.511719 68.707031-62.410156 169.820312-127.515625 262.230468-127.515625 18.601563 0 36.601563 3.300781 54.007813 8.398438l6.601562 44.707031c-11.402343 23.101562-16.804687 48.90625-15.304687 74.410156 1.5 29.101563 11.402344 57.902344 30.605468 82.808594zm0 0" fill="#f89580"/><path d="m30.605469 127.511719h59.40625v30.003906c0 41.40625-33.605469 75.007813-75.011719 75.007813h-15v-45.003907c0-24.601562 12.003906-46.207031 30.605469-60.007812zm0 0" fill="#ffa78f"/><path d="m361.339844 127.511719c1.5 29.105469 11.402344 57.90625 30.605468 82.8125l-11.402343 33.300781c-21 7.503906-42.605469 11.402344-64.507813 11.402344-92.410156 0-193.523437-65.109375-262.230468-127.515625zm0 0" fill="#ec806b"/><path d="m370.042969 7.5c-26.105469 37.804688-40.503907 78.609375-38.707031 120.011719 1.199218 39.003906 16.804687 78.609375 48.90625 116.714843 56.40625-23.402343 99.355468-59.710937 131.757812-116.714843-33.304688-58.203125-78.351562-97.507813-141.957031-120.011719zm0 0" fill="#ffcebf"/><path d="m384.734375 127.496094 21.300781-21.304688 21.300782 21.304688-21.300782 21.300781zm0 0" fill="#68544f"/><path d="m241.027344 82.507812c-27.601563 0-47.707032 22.203126-63.007813 45.003907 15.300781 22.804687 35.40625 45.007812 63.007813 45.007812 27.601562 0 47.707031-22.203125 63.003906-45.007812-15.296875-22.800781-35.402344-45.003907-63.003906-45.003907zm0 0" fill="#ffcebf"/><path d="m178.019531 127.511719h126.015625c-15.300781 22.804687-35.40625 45.007812-63.007812 45.007812-27.601563 0-47.707032-22.203125-63.007813-45.007812zm0 0" fill="#ffa78f"/><path d="m512 127.511719c-32.40625 57.007812-75.351562 93.3125-131.757812 116.714843-32.101563-38.105468-47.707032-77.710937-48.90625-116.714843zm0 0" fill="#ffa78f"/><path d="m427.347656 127.511719-21.300781 21.304687-21.304687-21.304687zm0 0" fill="#53433f"/></svg>