<svg xmlns="http://www.w3.org/2000/svg" viewBox="0 0 512 512"><defs><style>.a{fill:#196883;}.b{fill:#165a71;}.c{fill:#1c6e8c;}.d{fill:#19627c;}.e{fill:#218baf;}.f{fill:#1d7b9b;}</style></defs><title>Artboard 19</title><path class="a" d="M404.82,197.64H107.11a148.86,148.86,0,1,1,297.71,0Z"/><path class="b" d="M404.82,197.64H256V48.75A148.86,148.86,0,0,1,404.82,197.64Z"/><path class="c" d="M391.43,197.64H120.57a135.43,135.43,0,0,1,270.86,0Z"/><path class="d" d="M391.43,197.64H256V62.21A135.46,135.46,0,0,1,391.43,197.64Z"/><path class="e" d="M256,123.89a7.83,7.83,0,0,0-3,.53L152.8,163a32.65,32.65,0,0,1-11.8,2.19h-3.32a32.84,32.84,0,0,1-27.45-14.72L106,144.05a8.26,8.26,0,0,0-15,3.25l-3.39,20.56a360.18,360.18,0,0,0-5,59.69v1.52a367.76,367.76,0,0,0,7,71.3L91,307.13a8.36,8.36,0,0,0,6.7,6.57l8.16,1.33a41.17,41.17,0,0,1,34.55,40.72v.86a41.26,41.26,0,0,1-7,22.88l-8.23,12.34A8.16,8.16,0,0,0,124,397.4l.54,4.64a164.63,164.63,0,0,0,58.16,106.38l2,1.66a8.15,8.15,0,0,0,5.3,1.92h16.52a8.18,8.18,0,0,0,7.62-5.24l16.52-41.25a8,8,0,0,0,.6-3.91L214.68,296.46a8.36,8.36,0,0,0-4.57-6.57L206.46,288a114.49,114.49,0,0,1-54.12-56.83h66.19l12.33,18.57-7.82,63a8.37,8.37,0,0,0,2.32,6.9l24.8,24.74a8.21,8.21,0,0,0,11.68,0l24.73-24.74a8.21,8.21,0,0,0,2.39-6.9l-7.89-63,12.34-18.57h66.25a114.8,114.8,0,0,1-54.18,56.9l-3.65,1.79a8.27,8.27,0,0,0-4.51,6.57L280.8,461.6a8.87,8.87,0,0,0,.53,3.91l16.52,41.32a8.31,8.31,0,0,0,7.69,5.17h16.52a8.27,8.27,0,0,0,5.3-1.92l2-1.66A164.59,164.59,0,0,0,387.45,402l.6-4.64a8,8,0,0,0-1.33-5.57l-8.16-12.34a40.78,40.78,0,0,1-7-22.88v-.86A41.17,41.17,0,0,1,406.08,315l8.16-1.33a8.36,8.36,0,0,0,6.77-6.57l1.32-6.76a361.91,361.91,0,0,0,7.1-71.3v-1.52a360.18,360.18,0,0,0-5-59.69L421,147.3a8,8,0,0,0-6.37-6.7,8.22,8.22,0,0,0-8.62,3.45l-4.25,6.37a33,33,0,0,1-27.52,14.72H371A32.38,32.38,0,0,1,359.2,163L259,124.42a7.83,7.83,0,0,0-3-.53Z"/><path class="e" d="M214.68,0a8.32,8.32,0,0,0-6.3,2.92,8.49,8.49,0,0,0-1.86,6.7L223,108.7a8.26,8.26,0,0,0,8.16,6.9h49.54a8.28,8.28,0,0,0,8.16-6.9L305.41,9.62a8.2,8.2,0,0,0-1.86-6.7A8.11,8.11,0,0,0,297.25,0Z"/><path class="f" d="M256,115.6h24.74a8.28,8.28,0,0,0,8.16-6.9L305.41,9.62a8.2,8.2,0,0,0-1.86-6.7A8.11,8.11,0,0,0,297.25,0H256Z"/><path class="f" d="M256,123.89v223a8.18,8.18,0,0,0,5.84-2.45l24.73-24.74a8.21,8.21,0,0,0,2.39-6.9l-7.89-63,12.34-18.57h66.25a114.8,114.8,0,0,1-54.18,56.9l-3.65,1.79a8.27,8.27,0,0,0-4.51,6.57L280.8,461.6a8.87,8.87,0,0,0,.53,3.91l16.52,41.32a8.31,8.31,0,0,0,7.69,5.17h16.52a8.27,8.27,0,0,0,5.3-1.92l2-1.66A164.59,164.59,0,0,0,387.45,402l.6-4.64a8,8,0,0,0-1.33-5.57l-8.16-12.34a40.78,40.78,0,0,1-7-22.88v-.86A41.17,41.17,0,0,1,406.08,315l8.16-1.33a8.36,8.36,0,0,0,6.77-6.57l1.32-6.76a361.91,361.91,0,0,0,7.1-71.3v-1.52a360.18,360.18,0,0,0-5-59.69L421,147.3a8,8,0,0,0-6.37-6.7,8.22,8.22,0,0,0-8.62,3.45l-4.25,6.37a33,33,0,0,1-27.52,14.72H371A32.38,32.38,0,0,1,359.2,163L259,124.42a7.83,7.83,0,0,0-3-.53Z"/><path class="d" d="M336.05,394A8.23,8.23,0,0,0,330.21,408l43.18,43.17A170.5,170.5,0,0,0,380,434.54l-38.13-38.2a8.22,8.22,0,0,0-5.84-2.39Z"/><path class="d" d="M319.54,427A8.22,8.22,0,0,0,313.7,441l40.85,40.85A160.05,160.05,0,0,0,364,468.1l-38.67-38.74a8.22,8.22,0,0,0-5.83-2.38Z"/><path class="c" d="M175.88,393.82a8.46,8.46,0,0,1,5.84,2.38,8.34,8.34,0,0,1,0,11.68l-43.17,43.17a169.75,169.75,0,0,1-6.64-16.65l38.14-38.2a8.22,8.22,0,0,1,5.83-2.38Z"/><path class="c" d="M192.2,426.91a8,8,0,0,1,5.77,2.45A8.13,8.13,0,0,1,198,441l-40.85,40.85A162.77,162.77,0,0,1,147.63,468l38.73-38.67a8.06,8.06,0,0,1,5.84-2.45Z"/><path class="c" d="M247.51,0V74.35a8.26,8.26,0,1,0,16.51,0V0Z"/><path class="d" d="M255.8,82.64A8.23,8.23,0,0,0,264,74.35V0H255.8Z"/></svg>