<svg xmlns="http://www.w3.org/2000/svg" viewBox="0 0 513 513" width="513" height="513">
	<style>
		tspan { white-space:pre }
		.shp0 { fill: #c71e1e } 
		.shp1 { fill: #971818 } 
		.shp2 { fill: #db2424 } 
		.shp3 { fill: #4d351e } 
		.shp4 { fill: #654628 } 
		.shp5 { fill: #676767 } 
		.shp6 { fill: #505050 } 
	</style>
	<path id="Layer" class="shp0" d="M512 0L198.36 313.64C183.38 298.66 173.3 280.12 168.81 259.92C412.42 20.35 512 0 512 0Z" />
	<path id="Layer" class="shp1" d="M512 0C512 0 412.42 20.35 168.81 259.92C170.74 268.62 173.71 277 177.66 284.93C427.76 42.06 512 0 512 0Z" />
	<path id="Layer" class="shp2" d="M198.36 313.64L512 0C512 0 491.65 99.58 252.08 343.19C231.88 338.7 213.34 328.62 198.36 313.64Z" />
	<path id="Layer" class="shp3" d="M143.64 325.06C149.35 333.48 155.89 341.41 163.24 348.76L76.7 435.3C68.37 426.97 57.61 422.54 46.69 422.02L143.64 325.06Z" />
	<path id="Layer" class="shp4" d="M163.24 348.76L76.7 435.3C85.03 443.64 89.46 454.4 89.98 465.31L186.94 368.36C178.53 362.65 170.59 356.11 163.24 348.76Z" />
	<path id="Layer" class="shp5" d="M45.54 512C20.36 512 0 491.65 0 466.47C0 441.29 20.36 420.94 45.54 420.94C70.72 420.94 91.07 441.29 91.07 466.47C91.07 491.65 70.72 512 45.54 512Z" />
	<path id="Layer" class="shp6" d="M33.98 498.66C16.2 480.88 16.2 452.05 33.98 434.27C40.23 428.02 47.84 423.98 55.86 422.12C41.06 418.69 24.87 422.73 13.34 434.27C-4.44 452.05 -4.44 480.88 13.34 498.66C24.87 510.2 41.06 514.24 55.86 510.81C47.84 508.95 40.23 504.91 33.98 498.66Z" />
	<path id="Layer" class="shp5" d="M277.59 344.59C277.43 344.59 277.28 344.59 277.12 344.59C247.8 344.59 220.26 333.19 199.53 312.47C178.72 291.65 167.31 263.97 167.41 234.5C167.46 220.18 155.9 208.54 141.58 208.5C141.55 208.5 141.52 208.5 141.49 208.5C127.2 208.5 115.62 220.03 115.57 234.33C115.43 277.71 132.23 318.47 162.88 349.12C193.4 379.64 233.95 396.43 277.12 396.43C277.3 396.43 277.49 396.43 277.67 396.43C292 396.38 303.55 384.75 303.5 370.42C303.46 356.14 291.88 344.59 277.59 344.59Z" />
	<path id="Layer" class="shp6" d="M289.46 374.96C289.29 374.96 289.12 374.96 288.96 374.96C249.52 374.96 212.48 359.62 184.59 331.74C156.59 303.74 141.25 266.5 141.38 226.88C141.4 220.55 143.88 214.61 148.37 210.15C148.57 209.96 148.78 209.78 148.99 209.6C146.61 208.88 144.12 208.51 141.57 208.5C141.54 208.5 141.52 208.5 141.49 208.5C127.2 208.5 115.61 220.03 115.57 234.33C115.42 277.71 132.22 318.47 162.87 349.12C193.4 379.65 233.95 396.43 277.12 396.43C277.3 396.43 277.48 396.43 277.67 396.43C291.99 396.38 303.55 384.75 303.5 370.42C303.5 370.37 303.5 370.31 303.5 370.26C299.46 373.28 294.6 374.94 289.46 374.96Z" />
	<g id="Layer">
	</g>
	<g id="Layer">
	</g>
	<g id="Layer">
	</g>
	<g id="Layer">
	</g>
	<g id="Layer">
	</g>
	<g id="Layer">
	</g>
	<g id="Layer">
	</g>
	<g id="Layer">
	</g>
	<g id="Layer">
	</g>
	<g id="Layer">
	</g>
	<g id="Layer">
	</g>
	<g id="Layer">
	</g>
	<g id="Layer">
	</g>
	<g id="Layer">
	</g>
	<g id="Layer">
	</g>
</svg>