<svg height="511pt" viewBox="0 -136 511.99999 511" width="511pt" xmlns="http://www.w3.org/2000/svg"><path d="m168.492188 199.449219-13.5 20.773437c-5.503907 8.464844.429687 19.734375 10.476562 19.859375 24.640625.300781 64.804688-2.226562 96.648438-18.679687-42.066407-4.621094-71.832032-13.160156-93.625-21.953125zm0 0" fill="#f3a334"/><path d="m175.597656 220.222656 9.550782-14.699218c-6.023438-1.980469-11.558594-4.019532-16.65625-6.074219l-13.5 20.773437c-5.503907 8.464844.429687 19.734375 10.476562 19.859375 5.324219.0625 11.378906-.003906 17.914062-.316406-8.359374-1.882813-12.777343-11.867187-7.785156-19.542969zm0 0" fill="#ee911c"/><path d="m170.304688 76.589844c45.300781-22.5625 113.167968-50.800782 186.40625-32.96875-54.941407-59.601563-123.136719-43.054688-166.496094-33.644532-26.773438 5.808594-45.222656 1.707032-55.488282-2.332031-4.625-1.820312-9.539062 2.078125-8.800781 7.050781 4.703125 31.523438 27.1875 51.203126 44.378907 61.894532zm0 0" fill="#ffe183"/><path d="m146.761719 14.695312c-.1875-1.25-.015625-2.433593.417969-3.472656-4.996094-.980468-9.152344-2.28125-12.453126-3.578125-4.625-1.820312-9.539062 2.078125-8.800781 7.050781 4.703125 31.523438 27.1875 51.203126 44.378907 61.894532 3.894531-1.9375 7.957031-3.917969 12.171874-5.910156-15.339843-11.460938-31.773437-29.5625-35.714843-55.984376zm0 0" fill="#ffc964"/><path d="m500.386719 126.25-2.472657-1.105469c-15.5625-6.964843-29.945312-16.324219-42.574218-27.78125-141.375-128.273437-290.695313-12.371093-331.109375.355469-41.988281 13.21875-59.875-27.203125-73.855469-57.160156-10.085938-21.609375-34.199219-26.074219-46.855469-26.882813-2.535156-.164062-4.328125 2.503907-3.148437 4.753907 2.515625 4.78125 5.136718 14.300781 5.566406 33.238281.898438 39.648437 24.121094 67.574219 35.128906 78.625 2.960938 2.96875 3.175782 7.722656.46875 10.925781-18.332031 21.675781-19.121094 43.84375-19.121094 57.621094 0 7.660156-5.097656 15.519531-10.074218 21.371094-3.097656 3.636718-.234375 9.1875 4.523437 8.785156 46.90625-3.957032 52.804688-28.609375 78.199219-52.625 27.378906-25.898438 36.601562 46.890625 229.660156 48.644531 3.632813 2.199219 8.289063 2.242187 12.007813-.042969 73.285156-1.667968 135.171875-40.339844 167.613281-65.277344 11.769531-9.046874 9.59375-27.382812-3.957031-33.445312zm0 0" fill="#ffc964"/><path d="m47.296875 220.210938c4.976563-5.851563 10.074219-13.707032 10.074219-21.371094 0-13.777344.792968-35.941406 19.121094-57.621094 2.707031-3.203125 2.492187-7.953125-.464844-10.925781-11.007813-11.050781-34.234375-38.976563-35.132813-78.625-.285156-12.542969-1.53125-20.933594-3.070312-26.574219-11.289063-8.542969-25.542969-10.859375-34.304688-11.417969-2.535156-.164062-4.328125 2.503907-3.148437 4.753907 2.515625 4.785156 5.136718 14.300781 5.566406 33.238281.898438 39.648437 24.121094 67.574219 35.128906 78.625 2.960938 2.972656 3.175782 7.722656.46875 10.925781-18.332031 21.675781-19.121094 43.84375-19.121094 57.621094 0 7.664062-5.097656 15.519531-10.074218 21.371094-3.097656 3.636718-.234375 9.1875 4.523437 8.785156 12.25-1.03125 21.683594-3.488282 29.414063-6.960938.210937-.636718.535156-1.253906 1.019531-1.824218zm0 0" fill="#f3a334"/><path d="m32.945312 220.210938c4.976563-5.851563 10.074219-13.707032 10.074219-21.371094 0-13.777344.789063-35.941406 19.121094-57.621094 2.707031-3.203125 2.492187-7.953125-.46875-10.925781-11.007813-11.050781-34.230469-38.976563-35.132813-78.625-.429687-18.9375-3.050781-28.453125-5.5625-33.238281-.304687-.582032-.40625-1.1875-.355468-1.765626-6.398438-1.90625-12.507813-2.695312-17.101563-2.988281-2.535156-.164062-4.328125 2.503907-3.148437 4.753907 2.515625 4.785156 5.136718 14.300781 5.566406 33.238281.898438 39.648437 24.121094 67.574219 35.128906 78.625 2.960938 2.972656 3.175782 7.722656.46875 10.925781-18.332031 21.675781-19.121094 43.84375-19.121094 57.621094 0 7.664062-5.097656 15.519531-10.074218 21.371094-3.097656 3.636718-.234375 9.1875 4.527344 8.785156 5.824218-.492188 11.007812-1.308594 15.683593-2.398438-1.203125-1.847656-1.300781-4.398437.394531-6.386718zm0 0" fill="#ee911c"/><path d="m373.589844 159.878906-46.453125-12.039062c-4.046875-1.050782-8.367188.152344-11.25 3.183594-13.175781 13.867187-9.035157 28.664062-6.65625 34.363281.703125 1.691406.980469 3.511719.890625 5.339843-.625 12.515626 5.71875 23.863282 11.367187 31.378907 4.066407 5.410156 11.90625 6.136719 16.9375 1.617187l45.492188-40.855468c-4.972657-7.765626-8.253907-15.535157-10.328125-22.988282zm0 0" fill="#f3a334"/><path d="m331.613281 190.726562c.089844-1.828124-.1875-3.648437-.890625-5.339843-2.375-5.699219-6.519531-20.496094 6.660156-34.363281.140626-.148438.300782-.273438.449219-.414063l-10.695312-2.769531c-4.046875-1.050782-8.367188.152344-11.246094 3.183594-13.175781 13.867187-9.035156 28.664062-6.660156 34.363281.703125 1.691406.984375 3.511719.890625 5.339843-.621094 12.515626 5.71875 23.863282 11.367187 31.378907 4.066407 5.410156 11.90625 6.136719 16.9375 1.617187l3.464844-3.109375c-5.34375-7.484375-10.859375-18.171875-10.277344-29.886719zm0 0" fill="#ee911c"/><path d="m500.386719 126.25-2.472657-1.105469c-15.5625-6.964843-29.945312-16.324219-42.574218-27.78125-16.222656-14.71875-32.550782-26.21875-48.808594-35.03125-21.582031 14.925781-36.039062 42.203125-36.039062 73.394531 0 32.820313 16.007812 61.304688 39.480468 75.625 40.433594-13.902343 73.503906-35.613281 94.371094-51.652343 11.769531-9.046875 9.59375-27.386719-3.957031-33.449219zm0 0" fill="#ffc964"/><path d="m391.097656 135.726562c0-26.820312 10.695313-50.742187 27.414063-66.410156-3.996094-2.492187-7.992188-4.820312-11.980469-6.984375-21.582031 14.925781-36.039062 42.203125-36.039062 73.394531 0 32.820313 16.007812 61.304688 39.480468 75.625 4.578125-1.574218 9.054688-3.253906 13.433594-5.007812-19.496094-15.382812-32.308594-41.261719-32.308594-70.617188zm0 0" fill="#f3a334"/><path d="m409.972656 211.351562h.007813c4.574219-1.574218 9.050781-3.25 13.429687-5.003906-5.269531-4.160156-10.046875-9.089844-14.21875-14.640625-5.378906 1.832031-10.886718 3.515625-16.511718 5.039063 5.101562 5.777344 10.917968 10.71875 17.292968 14.605468zm0 0" fill="#ee911c"/><path d="m440.21875 126.449219c0 8.058593-6.535156 14.59375-14.597656 14.59375-8.058594 0-14.59375-6.535157-14.59375-14.59375 0-8.0625 6.535156-14.597657 14.59375-14.597657 8.0625 0 14.597656 6.535157 14.597656 14.597657zm0 0" fill="#525468"/><path d="m431.632812 126.449219c0-4.039063 1.640626-7.695313 4.292969-10.339844-2.640625-2.628906-6.28125-4.257813-10.304687-4.257813-8.058594 0-14.59375 6.535157-14.59375 14.597657 0 8.058593 6.535156 14.59375 14.59375 14.59375 4.023437 0 7.664062-1.628907 10.304687-4.257813-2.652343-2.644531-4.292969-6.300781-4.292969-10.335937zm0 0" fill="#3e4151"/></svg>