<?xml version="1.0" encoding="iso-8859-1"?>
<!-- Generator: Adobe Illustrator 19.0.0, SVG Export Plug-In . SVG Version: 6.00 Build 0)  -->
<svg version="1.1" id="Capa_1" xmlns="http://www.w3.org/2000/svg" xmlns:xlink="http://www.w3.org/1999/xlink" x="0px" y="0px"
	 viewBox="0 0 512 512" style="enable-background:new 0 0 512 512;" xml:space="preserve">
<path style="fill:#FFD45D;" d="M376.182,32.203H135.818c-5.586,0-10.748,2.98-13.541,7.818L2.095,248.182
	c-2.793,4.838-2.793,10.798,0,15.636L122.277,471.98c2.793,4.838,7.955,7.818,13.541,7.818h240.364
	c5.586,0,10.748-2.98,13.541-7.818l120.182-208.162c2.793-4.838,2.793-10.798,0-15.636L389.723,40.021
	C386.93,35.183,381.768,32.203,376.182,32.203z"/>
<path style="fill:#FF6500;" d="M512,256H409.521L332.76,388.953L384,477.702c2.338-1.35,4.327-3.304,5.723-5.723l120.182-208.162
	C511.302,261.399,512,258.699,512,256z"/>
<path style="fill:#FF9416;" d="M332.76,388.953H179.24L128,477.702c2.338,1.35,5.025,2.095,7.818,2.095h240.364
	c2.793,0,5.48-0.745,7.818-2.095L332.76,388.953z"/>
<path style="fill:#FFC13F;" d="M179.24,388.953L102.479,256H0c0,2.699,0.698,5.399,2.095,7.818L122.277,471.98
	c1.397,2.419,3.385,4.373,5.723,5.723L179.24,388.953z"/>
<path style="fill:#FFD45D;" d="M179.24,123.047L128,34.297c-2.338,1.35-4.327,3.304-5.723,5.723L2.095,248.183
	C0.698,250.601,0,253.301,0,256h102.479L179.24,123.047z"/>
<path style="fill:#FFC13F;" d="M179.24,123.047h153.52L384,34.297c-2.338-1.35-5.025-2.095-7.818-2.095H135.818
	c-2.793,0-5.48,0.745-7.818,2.095L179.24,123.047z"/>
<path style="fill:#FF9416;" d="M332.76,123.047L409.521,256H512c0-2.699-0.698-5.399-2.095-7.817L389.723,40.02
	c-1.396-2.419-3.385-4.373-5.723-5.723L332.76,123.047z"/>
<polygon style="fill:#FF7B05;" points="332.761,123.047 179.239,123.047 102.479,256 179.239,388.953 332.761,388.953 409.521,256 
	"/>
<path style="fill:#FFFFFF;" d="M182.006,113.738l9.786-7.309c2.227-1.663,5.173,0.821,3.91,3.297l-5.55,10.88
	c-0.593,1.163-0.242,2.584,0.824,3.337l9.975,7.048c2.27,1.604,0.818,5.174-1.927,4.737l-12.063-1.917
	c-1.289-0.205-2.533,0.568-2.92,1.815l-3.621,11.665c-0.824,2.654-4.668,2.376-5.101-0.369l-1.905-12.064
	c-0.204-1.289-1.323-2.233-2.628-2.216l-12.213,0.161c-2.779,0.037-3.703-3.705-1.226-4.965l10.885-5.54
	c1.163-0.592,1.715-1.948,1.295-3.184l-3.927-11.565c-0.894-2.632,2.379-4.666,4.344-2.7l8.632,8.641
	C179.5,114.413,180.96,114.519,182.006,113.738z"/>
<g>
</g>
<g>
</g>
<g>
</g>
<g>
</g>
<g>
</g>
<g>
</g>
<g>
</g>
<g>
</g>
<g>
</g>
<g>
</g>
<g>
</g>
<g>
</g>
<g>
</g>
<g>
</g>
<g>
</g>
</svg>
