<svg xmlns="http://www.w3.org/2000/svg" viewBox="0 0 512 512" width="512" height="512">
	<style>
		tspan { white-space:pre }
		.shp0 { fill: #202020 } 
		.shp1 { fill: #654628 } 
		.shp2 { fill: #4d351e } 
		.shp3 { fill: #292929 } 
		.shp4 { fill: #676767 } 
		.shp5 { fill: #505050 } 
	</style>
	<g id="Layer">
		<path id="Layer" class="shp0" d="M318.84 357.06C362.38 371.47 412.27 361.36 446.91 326.71C481.56 292.07 491.67 242.18 477.26 198.64C477.12 198.21 476.93 197.82 476.71 197.45C439.52 215.07 395.52 213.51 359.55 192.76L312.96 239.34C333.71 275.32 335.27 319.32 317.65 356.51C318.02 356.73 318.41 356.92 318.84 357.06L318.84 357.06Z" />
		<path id="Layer" class="shp0" d="M314.63 35.11C314.28 34.91 313.91 34.73 313.5 34.6C269.88 20.16 219.9 30.29 185.2 64.99C150.49 99.7 140.36 149.68 154.8 193.3C154.93 193.7 155.11 194.08 155.31 194.43C192.54 176.72 236.63 178.25 272.66 199.04L319.24 152.45C298.46 116.42 296.92 72.34 314.63 35.11L314.63 35.11Z" />
		<path id="Layer" class="shp1" d="M362.2 175.9L391.43 146.67C398.64 139.46 398.64 127.78 391.43 120.57C384.22 113.36 372.54 113.36 365.33 120.57L336.1 149.8L362.2 175.9Z" />
		<path id="Layer" class="shp1" d="M270 215.9L296.1 242L85.39 452.71L59.29 426.61L270 215.9Z" />
		<path id="Layer" class="shp2" d="M396.2 128.85C395.39 125.82 393.81 122.95 391.43 120.57C384.22 113.36 372.54 113.36 365.33 120.57L336.1 149.8L349.15 162.85L378.38 133.62C383.21 128.79 390.04 127.21 396.2 128.85Z" />
		<path id="Layer" class="shp2" d="M270 215.9L283.05 228.95L72.34 439.66L59.29 426.61L270 215.9Z" />
		<g id="Layer">
			<path id="Layer" class="shp3" d="M504.3 191.99C502.75 187.3 497.12 185.42 493.03 188.18C487 192.24 480.69 195.7 474.2 198.6C474.66 199.16 475.03 199.81 475.28 200.54C489.34 243.02 479.47 291.68 445.68 325.48C411.88 359.27 363.22 369.14 320.74 355.08C320.01 354.83 319.36 354.46 318.8 354C315.9 360.49 312.44 366.8 308.38 372.83C305.62 376.92 307.5 382.55 312.19 384.1C364.99 401.58 425.49 389.31 467.5 347.3C509.51 305.29 521.78 244.79 504.3 191.99L504.3 191.99Z" />
		</g>
		<g id="Layer">
			<path id="Layer" class="shp3" d="M320.01 7.7C324.7 9.25 326.58 14.88 323.82 18.97C319.76 25 316.3 31.31 313.4 37.8C312.84 37.34 312.19 36.97 311.46 36.72C268.98 22.66 220.32 32.53 186.52 66.32C152.73 100.12 142.86 148.78 156.92 191.26C157.17 191.99 157.54 192.64 158 193.2C151.51 196.1 145.2 199.56 139.17 203.62C135.08 206.38 129.45 204.5 127.9 199.81C110.42 147.01 122.69 86.51 164.7 44.5C206.71 2.49 267.21 -9.78 320.01 7.7L320.01 7.7Z" />
		</g>
		<path id="Layer" class="shp4" d="M89.91 452.49L59.51 422.09C53.99 416.56 44.95 416.56 39.43 422.09L4.14 457.37C-1.38 462.89 -1.38 471.93 4.14 477.45L34.55 507.86C40.07 513.38 49.11 513.38 54.63 507.86L89.91 472.57C95.44 467.05 95.44 458.01 89.91 452.49Z" />
		<path id="Layer" class="shp5" d="M22.86 476.09L58.15 440.8C63.67 435.28 72.71 435.28 78.23 440.8L59.51 422.09C53.99 416.56 44.95 416.56 39.43 422.09L4.14 457.37C-1.38 462.89 -1.38 471.93 4.14 477.45L22.86 496.17C17.34 490.65 17.34 481.61 22.86 476.09Z" />
		<path id="Layer" class="shp4" d="M366.1 175.05L336.95 145.9C333.43 142.39 327.73 142.39 324.21 145.9L266.1 204.01C262.59 207.53 262.59 213.23 266.1 216.75L295.25 245.9C298.77 249.41 304.47 249.41 307.99 245.89L366.1 187.78C369.61 184.27 369.61 178.57 366.1 175.05Z" />
		<path id="Layer" class="shp5" d="M284.82 222.73L342.93 164.62C346.45 161.1 352.15 161.1 355.67 164.62L336.95 145.9C333.43 142.39 327.73 142.39 324.21 145.9L266.1 204.01C262.59 207.53 262.59 213.23 266.1 216.75L284.82 235.46C281.31 231.95 281.31 226.25 284.82 222.73Z" />
	</g>
</svg>