<?xml version="1.0"?>
<svg xmlns="http://www.w3.org/2000/svg" xmlns:xlink="http://www.w3.org/1999/xlink" version="1.1" id="Layer_1" x="0px" y="0px" viewBox="0 0 512.02 512.02" style="enable-background:new 0 0 512.02 512.02;" xml:space="preserve" width="512px" height="512px" class=""><g><g transform="translate(0 -1)">
	<path style="fill:#C9BE0A" d="M335.593,336.464h-8.828c-34.198,0-61.926-27.727-61.926-61.926l0,0   c0-97.43,78.98-176.419,176.419-176.419h8.828c34.198,0,61.926,27.727,61.926,61.926l0,0   C512.012,257.475,433.023,336.464,335.593,336.464" data-original="#9B512D" class="" data-old_color="#9B512D"/>
	<path style="fill:#C9BE0A" d="M18.667,43.33l4.025-7.865C38.309,5.001,76.885-7.641,108.85,7.243l0,0   c91.074,42.39,128.847,147.112,84.365,233.913l-4.025,7.865c-15.616,30.464-54.193,43.096-86.157,28.222l0,0   C11.958,234.853-25.815,130.123,18.667,43.33" data-original="#4C312C" class="" data-old_color="#4C312C"/>
	<path style="fill:#C9BE0A" d="M26.338,467.345l-6.568-5.994c-25.441-23.234-26.447-61.864-2.251-86.29l0,0   c67.169-72.042,181.61-75.079,256.018-6.171l6.568,6.003c25.759,23.146,26.721,61.767,2.26,86.281l0,0   C214.525,527.884,99.943,530.515,26.338,467.345" data-original="#6A3311" class="" data-old_color="#6A3311"/>
	<path style="fill:#9B9308" d="M159.526,277.203c-0.786-1.995-2.233-3.734-4.317-4.74c-23.42-11.308-39.786-30.279-46.08-53.425   c-6.506-23.879-1.907-50.026,12.606-71.724c0.282-0.415,0.53-0.847,0.724-1.306C146.726,91.682,125.39,31.399,72.946,1.491   c-7.53,0.865-14.822,3.001-21.566,6.268c0.812,1.969,2.286,3.681,4.37,4.652c50.3,23.411,72.077,77.365,50.882,125.74   c-17.011,25.83-22.316,56.956-14.539,85.522c6.744,24.788,22.837,45.55,45.762,59.418   C145.402,282.349,152.729,280.354,159.526,277.203" data-original="#684B47" class="" data-old_color="#684B47"/>
	<path style="fill:#9B9308" d="M298.668,431.486c1.571-7.194,1.774-14.574,0.6-21.804c-1.933,0.185-3.822,0.865-5.323,2.313   c-43.14,41.807-90.951,40.651-134.647-3.275c-47.607-47.537-103.451-48.508-158.049-3.346c-1.421,7.018-1.545,14.204-0.397,21.248   c1.818-0.177,3.619-0.768,5.085-2.083c50.247-45.4,97.642-46.513,140.871-3.346c26.033,26.165,53.963,39.274,81.796,39.274   C252.447,460.467,276.219,450.757,298.668,431.486" data-original="#753D1F" class="active-path" data-old_color="#753D1F"/>
	<path style="fill:#9B9308" d="M502.701,127.505c-3.972-6.409-9.057-12.023-15.025-16.587c-1.236,1.518-2.074,3.381-2.074,5.491   c0,50.785-40.872,87.64-97.174,87.64c-59.648,0-108.774,45.374-114.211,103.133c3.937,6.329,8.969,11.882,14.857,16.41   c1.359-1.554,2.251-3.522,2.251-5.747c0-53.01,43.564-96.141,97.103-96.141C450.856,221.705,497.219,182.722,502.701,127.505" data-original="#B76748" class="" data-old_color="#B76748"/>
</g></g> </svg>
