<svg height="512pt" viewBox="0 -17 512.51376 512" width="512pt" xmlns="http://www.w3.org/2000/svg"><path d="m.515625 220.945312v-123.585937h17.652344l-8.828125-35.308594 35.3125 8.828125 8.828125-26.484375 35.308593 8.828125 8.828126-35.3125 35.308593 17.65625 17.65625-26.480468 35.3125 17.652343 17.652344-26.480469 35.3125 17.652344 44.136719-17.652344c15.714844 55.082032-3.617188 89.15625-8.03125 95.867188zm0 0" fill="#285680"/><path d="m415.410156 478.800781c-24.726562-.714843-49.28125-4.296875-73.179687-10.683593-23.570313-7.324219-46.167969-31.601563-59.5-52.433594-32.449219 12.472656-66.574219 20.058594-101.25 22.511718-34.910157 2.414063-69.714844-6-99.664063-24.101562-17.261718-11.402344-32.011718-26.214844-43.34375-43.519531-4.089844-6-7.746094-12.285157-10.945312-18.804688-.972656-1.675781-1.765625-3.351562-2.5625-5.03125-14.742188-30.984375-21.273438-74.148437-24.449219-108.136719l89.863281 91.894532 8.386719 8.5625 5.296875 2.648437c10.507812 5.171875 21.328125 9.683594 32.394531 13.507813l13.773438 4.5c14.636719 4.320312 29.566406 7.59375 44.667969 9.800781 5.824218.792969 11.652343 1.410156 17.476562 2.03125 20.605469 1.707031 41.324219 1.46875 61.882812-.707031 19.597657-49.480469 62.628907-85.886719 114.667969-97.015625-14.679687 17.113281-26.109375 36.769531-33.71875 57.996093-7.585937 21.375-8.296875 44.585938-2.03125 66.382813 11.296875 32.992187 33.175781 61.324219 62.234375 80.597656zm0 0" fill="#285680"/><path d="m344.789062 203.292969s17.65625 17.652343 70.621094 35.308593h-2.558594c-16.949218-.175781-33.988281-.792968-50.9375-1.941406-9.53125-.617187-19.15625-1.148437-28.601562-2.558594-8.738281-1.324218-17.300781-4.0625-25.953125-5.652343-17.164063-4.625-35.46875-2.210938-50.84375 6.710937-14.457031 9.5625-30.605469 16.273438-47.582031 19.773438l-44.933594 2.914062c-.914062-.015625-1.828125-.074218-2.734375-.179687-11.351563-2.453125-23.179687-1.375-33.898437 3.089843-10.761719 6.328126-19.515626 15.570313-25.246094 26.660157-8.800782 15.84375-10.03125 34.792969-3.355469 51.640625-27.839844-14.179688-52.898437-33.257813-73.976563-56.320313-10.058593-10.140625-17.640624-22.464843-22.15625-36.015625-.765624-2.546875-1.355468-5.140625-1.765624-7.769531-1.058594-7.726563-1.148438-15.554687-.265626-23.304687.777344-6.886719 1.953126-13.726563 3.53125-20.476563.265626-1.238281.53125-2.386719.792969-3.621094 1.898438-8.492187 4.558594-16.792969 7.945313-24.804687 2.113281-5.558594 4.679687-10.933594 7.679687-16.066406 6.191407-11.316407 14.082031-21.621094 23.394531-30.542969.429688-.460938.902344-.871094 1.414063-1.238281 4.183594-3.960938 8.667969-7.589844 13.417969-10.855469 11.90625-8.285157 25.003906-14.714844 38.839844-19.070313 5.476562-1.777344 11.046874-3.253906 16.683593-4.414062 11.945313-2.585938 24.078125-4.210938 36.28125-4.851563 167.726563-8.828125 194.207031 79.445313 194.207031 79.445313 54.644532 17.128906 110.8125 28.953125 167.726563 35.3125 0 0-61.796875 17.652344-167.726563 8.828125zm0 0" fill="#4482c3"/><path d="m215.378906 221.917969c1.410156-.238281 2.847656.222656 3.859375 1.234375 1.011719 1.015625 1.46875 2.457031 1.222657 3.867187-2.101563 9.921875-5.992188 19.378907-11.476563 27.914063-11.386719 18.449218-33.367187 41.753906-75.914063 63.027344 0 .050781-.042968.089843-.089843.089843l.089843-.089843c13.75-18.078126 24.238282-38.425782 30.984376-60.113282 2.320312-7.976562 3.714843-16.195312 4.15625-24.488281.058593-2.074219 1.566406-3.820313 3.609374-4.175781zm0 0" fill="#285680"/><path d="m238.824219 203.292969c-1.914063.007812-3.773438-.613281-5.296875-1.765625-10.257813-8.398438-16.984375-20.347656-18.839844-33.476563-1.359375-18.242187 4.875-36.238281 17.234375-49.726562 3.046875-3.808594 8.605469-4.425781 12.414063-1.378907 3.808593 3.046876 4.429687 8.605469 1.382812 12.414063-9.203125 9.75-14.082031 22.800781-13.535156 36.195313 1.203125 8.5 5.464844 16.269531 11.980468 21.855468 3.039063 2.289063 4.269532 6.261719 3.058594 9.867188-1.210937 3.605468-4.597656 6.027344-8.398437 6.015625zm0 0" fill="#2c2f38"/><path d="m185.902344 212.117188c-2.953125.003906-5.714844-1.46875-7.355469-3.925782-13.769531-20.648437-29.253906-68.140625 10.65625-100.070312 3.808594-3.046875 9.363281-2.429688 12.410156 1.378906 3.046875 3.804688 2.433594 9.363281-1.375 12.410156-37.394531 29.90625-8.261719 74.59375-7 76.480469 1.804688 2.707031 1.976563 6.191406.441407 9.0625-1.535157 2.871094-4.523438 4.664063-7.777344 4.664063zm0 0" fill="#2c2f38"/><g fill="#b0d3f0"><path d="m119.246094 140.527344c-1.222656.652344-2.589844.984375-3.972656.972656-3.335938.027344-6.390626-1.859375-7.859376-4.855469-6.414062-15.078125-9.746093-31.285156-9.796874-47.671875 5.476562-1.777344 11.046874-3.253906 16.683593-4.414062.628907 1.230468.964844 2.59375.972657 3.972656.0625 13.765625 2.730468 27.394531 7.855468 40.167969 1.0625 2.082031 1.253906 4.5.523438 6.722656-.730469 2.222656-2.316406 4.058594-4.40625 5.105469zm0 0"/><path d="m87.820312 163.125c-1.46875 2.996094-4.523437 4.886719-7.859374 4.855469-1.382813.015625-2.75-.316407-3.972657-.96875-18.890625-9.445313-28.335937-39.8125-30.628906-48.113281 4.183594-3.960938 8.667969-7.589844 13.417969-10.855469 1.621094 1.183593 2.777344 2.902343 3.265625 4.855469 3.089843 12.09375 11.738281 33.277343 21.890625 38.398437 2.09375 1.046875 3.679687 2.882813 4.40625 5.105469.730468 2.222656.542968 4.640625-.519532 6.722656zm0 0"/><path d="m70.691406 197.289062c-1.210937 3.59375-4.589844 6.011719-8.382812 6.003907-.957032-.027344-1.90625-.171875-2.828125-.441407-18.683594-7.304687-34.867188-19.839843-46.609375-36.105468 2.113281-5.558594 4.679687-10.933594 7.679687-16.066406 2.027344.53125 3.785157 1.789062 4.945313 3.53125 9.894531 14.191406 23.652344 25.25 39.636718 31.867187 4.601563 1.59375 7.074219 6.582031 5.558594 11.210937zm0 0"/><path d="m52.507812 242.574219c-1.464843 2.996093-4.519531 4.882812-7.855468 4.855469-1.386719.015624-2.75-.320313-3.972656-.972657-14.546876-8.621093-28.003907-18.964843-40.078126-30.808593.777344-6.886719 1.953126-13.726563 3.53125-20.476563.988282.449219 1.886719 1.078125 2.648438 1.851563 12.617188 12.796874 26.65625 24.109374 41.84375 33.722656 2.089844 1.046875 3.675781 2.882812 4.40625 5.105468.730469 2.21875.539062 4.640626-.523438 6.722657zm0 0"/><path d="m60.1875 314.871094c-.175781.175781-.265625.355468-.441406.53125-10.613282 13.207031-15.984375 29.863281-15.09375 46.785156.011718 3.851562-2.496094 7.257812-6.179688 8.386719-4.089844-6-7.746094-12.285157-10.945312-18.804688 1.15625-17.566406 7.792968-34.332031 18.976562-47.933593 4.414063 3.886718 9.003906 7.59375 13.683594 11.035156zm0 0"/><path d="m104.0625 341.707031c-.441406.53125-6.445312 8.386719-6.445312 29.308594 0 4.875-3.953126 8.828125-8.828126 8.828125s-8.828124-3.953125-8.828124-8.828125c-.789063-13.074219 2.117187-26.105469 8.386718-37.605469 3.441406 1.941406 6.886719 3.796875 10.417969 5.648438zm0 0"/><path d="m150.230469 359.714844c.621093 2.113281.433593 4.378906-.53125 6.355468-3.84375 8.742188-3.875 18.691407-.085938 27.457032 1.0625 2.082031 1.25 4.5.519531 6.722656-.726562 2.222656-2.3125 4.058594-4.40625 5.105469-1.21875.652343-2.585937.984375-3.972656.96875-3.335937.03125-6.390625-1.855469-7.855468-4.855469-6.328126-13.722656-6.328126-29.527344 0-43.253906.582031-1.203125 1.460937-2.238282 2.558593-3zm0 0"/><path d="m218.644531 391.230469c-2.589843-3.054688-4.324219-6.738281-5.03125-10.679688-.65625-2.964843-1.070312-5.976562-1.238281-9.003906-5.824219-.621094-11.652344-1.238281-17.476562-2.03125-.109376.492187-.167969.996094-.179688 1.5-.105469 11.90625 3.917969 23.480469 11.390625 32.75 3.480469 3.414063 9.054687 3.414063 12.535156 0 3.441407-3.46875 3.441407-9.066406 0-12.535156zm0 0"/></g><path d="m317.777344 159.152344c0 9.75-7.90625 17.65625-17.65625 17.65625s-17.652344-7.90625-17.652344-17.65625 7.902344-17.652344 17.652344-17.652344 17.65625 7.902344 17.65625 17.652344zm0 0" fill="#fff"/><path d="m308.949219 159.152344c0 4.875-3.953125 8.828125-8.828125 8.828125s-8.828125-3.953125-8.828125-8.828125 3.953125-8.828125 8.828125-8.828125 8.828125 3.953125 8.828125 8.828125zm0 0" fill="#2c2f38"/><path d="m300.121094 150.324219c-.019532 4.148437-2.921875 7.722656-6.972656 8.59375-4.054688.867187-8.167969-1.199219-9.886719-4.972657 1.753906-5.550781 6.101562-9.898437 11.652343-11.652343 3.164063 1.421875 5.199219 4.566406 5.207032 8.03125zm0 0" fill="#fff"/></svg>