<?xml version="1.0" encoding="iso-8859-1"?>
<!-- Generator: Adobe Illustrator 19.0.0, SVG Export Plug-In . SVG Version: 6.00 Build 0)  -->
<svg version="1.1" id="Capa_1" xmlns="http://www.w3.org/2000/svg" xmlns:xlink="http://www.w3.org/1999/xlink" x="0px" y="0px"
	 viewBox="0 0 472 472" style="enable-background:new 0 0 472 472;" xml:space="preserve">
<path style="fill:#763A02;" d="M252,432h-32c-22.08,0.026-39.974,17.92-40,40h16c0.039-10.568,6.998-19.861,17.128-22.872
	c-0.713,2.223-1.093,4.538-1.128,6.872v16h16v-16c0-4.418,3.582-8,8-8s8,3.582,8,8v16h16v-16c-0.035-2.334-0.415-4.65-1.128-6.872
	c10.13,3.011,17.089,12.304,17.128,22.872h16C291.974,449.92,274.08,432.026,252,432z"/>
<path style="fill:#FCC78A;" d="M196,128c0,20.144-9.484,39.113-25.6,51.2l-53.336,40C86.176,242.367,67.998,278.725,68,317.336
	C68,385.081,122.919,440,190.664,440l0,0h90.672C349.081,440,404,385.081,404,317.336l0,0c0.002-38.611-18.176-74.969-49.064-98.136
	l-53.336-40C285.484,167.113,276,148.144,276,128H196z"/>
<path style="fill:#33BC00;" d="M212,128V96.568c0-20.854-8.285-40.855-23.032-55.6C178.104,30.102,172,15.366,172,0
	c15.366,0,30.102,6.104,40.968,16.968C232.837,36.836,243.999,63.782,244,91.88V128H212z"/>
<path style="fill:#008100;" d="M260,144v-31.432c0-20.854,8.285-40.855,23.032-55.6C293.896,46.102,300,31.366,300,16
	c-15.366,0-30.102,6.104-40.968,16.968C239.163,52.836,228.001,79.782,228,107.88V144H260z"/>
<path style="fill:#FADBB7;" d="M364,326.864C364,389.347,313.347,440,250.864,440h-29.728C158.653,440,108,389.347,108,326.864
	c0-30.006,11.919-58.783,33.136-80l36.92-36.92C199.79,188.212,212,158.735,212,128h48c0,30.735,12.21,60.212,33.944,81.944
	l36.92,36.92C352.081,268.081,364,296.858,364,326.864z"/>
<path style="fill:#FCE9CC;" d="M159.448,377.24c7.296,36.493,39.337,62.761,76.552,62.76c37.215,0.001,69.256-26.267,76.552-62.76
	c7.354-36.765,0.382-74.95-19.488-106.744l-15.144-24.224C255.753,210.806,244,169.824,244,128h-16
	c0,41.824-11.753,82.806-33.92,118.272l-15.144,24.224C159.066,302.29,152.094,340.475,159.448,377.24z"/>
<g>
</g>
<g>
</g>
<g>
</g>
<g>
</g>
<g>
</g>
<g>
</g>
<g>
</g>
<g>
</g>
<g>
</g>
<g>
</g>
<g>
</g>
<g>
</g>
<g>
</g>
<g>
</g>
<g>
</g>
</svg>
