<svg height="504pt" viewBox="0 -20 504 504" width="504pt" xmlns="http://www.w3.org/2000/svg"><path d="m189.28125 24.800781c-51.601562 68.328125-7.128906 184.640625-39.921875 201.128907-58 2.636718-57.839844-58.800782-102.800781-74l.082031-.082032c15.847656-84.335937 89.757813-145.925781 169.359375-151.847656-10.960938 7.128906-19.769531 15.511719-26.71875 24.800781zm0 0" fill="#8cc152"/><path d="m317.601562 131.671875c-55.441406 35.921875-81.601562 89.6875-81.601562 89.6875l-.160156.5625c-19.128906-6.160156-38.238282-7.53125-56.71875-1.769531-11.359375 3.511718-21.199219 5.359375-29.769532 5.769531 32.800782-16.488281-11.679687-132.800781 39.921876-201.128906 3.757812-.160157 70.796874-3.128907 90.636718 18.488281l.082032.078125c13.917968 38.5625 15.359374 77.128906 37.359374 84zm0 0" fill="#7eaf3e"/><path d="m402 109.136719c-33.359375 3.671875-61.359375 15.589843-84.398438 30.542969l-.242187-4.3125c-22-6.871094-23.4375-45.4375-37.359375-84l-.078125-.078126c-5.363281-15.050781-12.722656-30.082031-23.921875-43.28125 69.921875.160157 125.769531 42.558594 146 101.03125zm0 0" fill="#8cc152"/><path d="m504 156v56c0 64.71875-42.558594 142-82.71875 186.640625 0 0-91.839844-146.488281-185.441406-176.71875l.160156-.5625c148.398438 0 173.441406-45.765625 230.078125-60.640625 11.050781-2.949219 23.28125-4.71875 37.921875-4.71875zm0 0" fill="#8cc152"/><path d="m465.742188 153.199219c.105468 1.03125.179687 2.113281.242187 3.265625-.054687-1.152344-.144531-2.234375-.242187-3.265625zm0 0"/><path d="m421.28125 398.640625v.078125c-44.722656 40.5625-104.082031 65.28125-169.28125 65.28125-139.199219 0-252-112.800781-252-252v-60.640625c19.839844-4.328125 34.800781-3.511719 46.558594.5625 44.953125 15.199219 44.800781 76.636719 102.800781 74 8.5625-.410156 18.410156-2.25 29.769531-5.769531 18.480469-5.769532 37.589844-4.390625 56.71875 1.769531 93.59375 30.238281 185.433594 176.71875 185.433594 176.71875zm0 0" fill="#a0d468"/><path d="m323.886719 408.375c-21.085938 0-41.398438-1.71875-60.75-5.160156-162.007813-28.382813-218.304688-167.328125-218.863281-168.71875-.808594-2.054688.207031-4.375 2.261718-5.175782 2.039063-.839843 4.375.199219 5.175782 2.253907.535156 1.363281 55.335937 136.179687 212.816406 163.777343 34.214844 6.0625 71.5625 6.648438 110.96875 1.71875 2.152344-.285156 4.191406 1.265626 4.472656 3.472657.269531 2.191406-1.28125 4.191406-3.472656 4.472656-17.984375 2.230469-35.550782 3.359375-52.609375 3.359375zm0 0" fill="#8cc152"/><g fill="#7eaf3e"><path d="m392 300.230469c-1.382812 0-2.734375-.71875-3.472656-2.015625-1.101563-1.910156-.4375-4.359375 1.488281-5.453125 11.855469-6.800781 22.304687-15.097657 31.03125-24.664063 1.488281-1.632812 4.023437-1.753906 5.648437-.257812 1.632813 1.488281 1.753907 4.015625.257813 5.648437-9.28125 10.183594-20.378906 19.007813-32.96875 26.207031-.625.367188-1.304687.535157-1.984375.535157zm0 0"/><path d="m424.160156 274.558594c-.96875 0-1.945312-.351563-2.710937-1.0625-1.625-1.503906-1.730469-4.03125-.226563-5.648438 26.058594-28.214844 30.785156-59.085937 30.824219-59.390625.320313-2.191406 2.34375-3.664062 4.527344-3.394531 2.1875.320312 3.707031 2.34375 3.394531 4.53125-.191406 1.359375-5.144531 33.652344-32.863281 63.671875-.800781.871094-1.875 1.292969-2.945313 1.292969zm0 0"/><path d="m104 181.03125c-1.464844 0-2.871094-.816406-3.574219-2.207031-20.417969-40.832031 7.277344-76.160157 25.605469-99.519531 7.183594-9.167969 13.96875-17.816407 13.96875-22.273438 0-2.207031 1.792969-4 4-4s4 1.792969 4 4c0 7.207031-6.566406 15.59375-15.671875 27.199219-18.113281 23.089843-42.894531 54.707031-24.753906 91.007812.984375 1.976563.1875 4.378907-1.789063 5.371094-.578125.285156-1.183594.421875-1.785156.421875zm0 0"/></g><path d="m263.726562 403.632812c-1.605468 0-3.03125-.871093-3.542968-2.511718-.039063-.136719-.230469-.914063-.253906-1.058594-2.097657-8.796875-22.128907-87.855469-69.523438-109.789062-2.007812-.929688-2.871094-3.304688-1.949219-5.3125.933594-2.007813 3.296875-2.882813 5.3125-1.953126 50.832031 23.519532 71.757813 106.015626 73.972657 115.34375.503906 2.105469-.671876 4.535157-2.75 5.113282-.433594.109375-.847657.167968-1.265626.167968zm0 0" fill="#8cc152"/><path d="m170.679688 400.839844c-16.824219 0-37.328126-2.902344-60.167969-12.105469-2.046875-.832031-3.046875-3.160156-2.214844-5.199219.824219-2.054687 3.152344-3.03125 5.199219-2.214844 57.566406 23.167969 100.382812 3.824219 100.816406 3.617188 2.007812-.921875 4.375-.066406 5.3125 1.925781.933594 2 .078125 4.375-1.914062 5.3125-1.175782.550781-18.949219 8.664063-47.03125 8.664063zm0 0" fill="#8cc152"/><path d="m424 274.800781c-1.023438 0-2.046875-.394531-2.832031-1.167969-1.359375-1.359374-1.535157-3.464843-.519531-5.015624.503906-1.34375 2.832031-11.015626-13.617188-45.527344-.953125-1.992188-.109375-4.378906 1.890625-5.328125 1.980469-.953125 4.375-.105469 5.324219 1.886719 17.523437 36.742187 15.84375 49.015624 13.289062 53.0625-.167968.25-.503906.714843-.710937.921874-.777344.773438-1.800781 1.167969-2.824219 1.167969zm0 0" fill="#7eaf3e"/><path d="m232 197.03125c-.824219 0-1.640625-.246094-2.351562-.765625-49.632813-36.144531-33.6875-99.609375-33.511719-100.25.558593-2.144531 2.765625-3.382813 4.871093-2.847656 2.144532.550781 3.417969 2.742187 2.855469 4.871093-.152343.585938-14.671875 58.871094 30.488281 91.761719 1.792969 1.304688 2.175782 3.808594.878907 5.582031-.773438 1.082032-2 1.648438-3.230469 1.648438zm0 0" fill="#8cc152"/><path d="m343.992188 101.03125c-1.929688 0-3.632813-1.40625-3.945313-3.375-5.96875-37.800781-38.046875-61.144531-38.375-61.367188-1.792969-1.289062-2.207031-3.785156-.917969-5.578124 1.261719-1.800782 3.757813-2.214844 5.566406-.933594 1.433594 1.023437 35.128907 25.445312 41.632813 66.628906.34375 2.179688-1.152344 4.234375-3.328125 4.578125-.210938.03125-.425781.046875-.632812.046875zm0 0" fill="#7eaf3e"/><path d="m466.078125 160.640625v.078125c-56.636719 14.875-81.679687 60.640625-230.078125 60.640625 0 0 26.160156-53.765625 81.601562-89.6875 23.039063-14.953125 51.039063-26.871094 84.398438-30.542969 5.839844-.640625 11.839844-1.050781 18-1.128906 10.640625 60.640625 46.078125 10.488281 46.078125 60.640625zm0 0" fill="#a0d468"/><path d="m345.359375 178.640625c-1.3125 0-2.589844-.648437-3.359375-1.832031-1.199219-1.855469-.664062-4.335938 1.183594-5.527344 30.097656-19.441406 37.046875-35.296875 37.121094-35.457031.855468-2.023438 3.199218-3.007813 5.214843-2.152344 2.03125.832031 3.007813 3.152344 2.175781 5.183594-.296874.730469-7.640624 18.128906-40.167968 39.136719-.671875.449218-1.414063.648437-2.167969.648437zm0 0" fill="#8cc152"/><path d="m272 133.039062c-.488281 0-.976562-.085937-1.464844-.269531-34.0625-13.328125-38.191406-28.441406-42.183594-43.050781-3.449218-12.597656-6.695312-24.503906-30.238281-37.160156-1.945312-1.046875-2.679687-3.46875-1.632812-5.414063 1.046875-1.953125 3.488281-2.65625 5.414062-1.632812 26.570313 14.273437 30.617188 29.054687 34.175781 42.097656 3.792969 13.863281 7.066407 25.839844 37.394532 37.703125 2.054687.808594 3.070312 3.128906 2.261718 5.183594-.613281 1.582031-2.132812 2.542968-3.726562 2.542968zm0 0" fill="#8cc152"/></svg>