<?xml version="1.0" encoding="iso-8859-1"?>
<!-- Generator: Adobe Illustrator 18.0.0, SVG Export Plug-In . SVG Version: 6.00 Build 0)  -->
<!DOCTYPE svg PUBLIC "-//W3C//DTD SVG 1.1//EN" "http://www.w3.org/Graphics/SVG/1.1/DTD/svg11.dtd">
<svg version="1.1" id="Capa_1" xmlns="http://www.w3.org/2000/svg" xmlns:xlink="http://www.w3.org/1999/xlink" x="0px" y="0px"
	 viewBox="0 0 57 57" style="enable-background:new 0 0 57 57;" xml:space="preserve">
<g>
	<path style="fill:#88C057;" d="M18.986,38.342v-6.137c0-3.263-1.082-6.477-3.236-8.927c-1.845-2.099-4.639-3.936-8.764-3.936
		c0,0,23-9.563,23,10v9v-0.337v6.658c0,0-0.536,8.572,7.024,9.843c0.453,0.076,0.508,0.699,0.071,0.84
		c-5.513,1.788-18.095,5.418-18.095-10.684v-6.658V38.342z"/>
	<path style="fill:#659C35;" d="M32.446,24.544c-1.594,0.672-2.537,2.165-2.455,3.748c0.018,0.34,0.027,0.69,0.027,1.05v8.663v0.337
		v6.321c0,0-0.015,0.055-0.036,0.147c-0.03,1.093,0.031,8.494,6.998,9.689C36.863,52.596,35.365,24.073,50.014,28
		C50.014,28,40.714,21.056,32.446,24.544z"/>
	<path style="fill:#F9D70B;" d="M35.72,6.006c-0.003-0.01-0.004-0.011-0.008-0.021C33.418-0.042,28.718,0,28.718,0
		s-4.701-0.042-6.994,5.985c-0.004,0.01-0.005,0.012-0.008,0.022c-0.053,0.172-1.115,3.704-1.729,10.949
		c-0.004,0.05,0.022,0.091,0.039,0.136c4.373,0.408,8.432,2.515,9.609,8.486c0.37-0.46,0.839-0.84,1.401-1.094
		c1.841-0.832,3.734-1.041,5.541-0.889c0.302-0.018,0.603-0.026,0.904-0.025c0.071-0.061,0.137-0.118,0.238-0.205V21
		C37.228,11.002,35.779,6.2,35.72,6.006z"/>
	<path style="fill:#A4E869;" d="M25.984,33c-0.022,0-0.045-0.001-0.068-0.002c-0.551-0.037-0.968-0.514-0.931-1.065
		c0.486-7.233-3.005-7.919-3.154-7.944c-0.538-0.093-0.911-0.601-0.828-1.14s0.574-0.91,1.115-0.84
		c0.224,0.031,5.48,0.857,4.862,10.059C26.945,32.595,26.505,33,25.984,33z"/>
	<path style="fill:#A4E869;" d="M27.984,54c-0.043,0-0.086-0.003-0.129-0.008c-4.963-0.639-6.01-4.896-5.871-7.057
		c0.036-0.551,0.52-0.948,1.063-0.934c0.55,0.036,0.967,0.509,0.934,1.059c-0.025,0.449-0.123,4.4,4.129,4.947
		c0.548,0.071,0.935,0.572,0.864,1.12C28.91,53.631,28.48,54,27.984,54z"/>
	<path style="fill:#88C057;" d="M33.981,33.999c-0.464,0-0.88-0.325-0.978-0.798c-0.028-0.138-0.674-3.399,1.186-5.238
		c1.117-1.104,2.801-1.418,5.007-0.94c0.54,0.118,0.882,0.65,0.764,1.19c-0.118,0.539-0.648,0.883-1.19,0.765
		c-1.498-0.33-2.566-0.19-3.171,0.404c-0.905,0.89-0.766,2.77-0.636,3.419c0.108,0.541-0.241,1.068-0.781,1.178
		C34.114,33.992,34.047,33.999,33.981,33.999z"/>
	<path style="fill:#F1B501;" d="M37.718,21.228h-2.543V18.04h2.359c-0.052-0.695-0.107-1.367-0.166-2h-2.193v-3.188h1.837
		c-0.094-0.722-0.19-1.394-0.285-2h-1.552V7.663h0.959c-0.23-1.043-0.395-1.594-0.414-1.657c-0.003-0.01-0.004-0.011-0.008-0.021
		c-0.044-0.115-0.093-0.212-0.139-0.322h-0.399V4.775c-1.289-2.561-3.035-3.752-4.389-4.301h-0.799V0.206
		C29.227,0,28.718,0,28.718,0s-0.28-0.001-0.732,0.081v0.393H26.65c-1.174,0.475-2.642,1.438-3.853,3.352v1.837h-0.935
		c-0.045,0.11-0.095,0.208-0.139,0.322c-0.004,0.01-0.005,0.012-0.008,0.022c-0.02,0.065-0.184,0.612-0.414,1.656h1.496v3.188
		h-2.086c-0.096,0.608-0.192,1.274-0.286,2h2.372v3.188h-2.727c-0.028,0.301-0.057,0.601-0.084,0.916
		c-0.004,0.05,0.022,0.091,0.039,0.136c1.687,0.157,3.325,0.572,4.771,1.359V18.04h3.188v3.188h-0.101
		c0.791,1.149,1.4,2.575,1.75,4.349c0.103-0.129,0.232-0.234,0.351-0.349v-2h3.188v0.559c0.669-0.141,1.338-0.215,2-0.233v-0.326
		h2.543V21.228z M27.986,16.04h-3.188v-3.188h3.188V16.04z M27.986,10.851h-3.188V7.663h3.188V10.851z M27.986,5.663h-3.188V2.474
		h3.188V5.663z M33.174,21.228h-3.188V18.04h3.188V21.228z M33.174,16.04h-3.188v-3.188h3.188V16.04z M33.174,10.851h-3.188V7.663
		h3.188V10.851z M33.174,5.663h-3.188V2.474h3.188V5.663z"/>
</g>
<g>
</g>
<g>
</g>
<g>
</g>
<g>
</g>
<g>
</g>
<g>
</g>
<g>
</g>
<g>
</g>
<g>
</g>
<g>
</g>
<g>
</g>
<g>
</g>
<g>
</g>
<g>
</g>
<g>
</g>
</svg>
