<?xml version="1.0"?>
<svg xmlns="http://www.w3.org/2000/svg" height="512px" viewBox="0 -24 512 511" width="512px" class=""><g><path d="m221.539062 9.03125c-10.574218-5.605469-22.316406-8.53125-34.460937-8.53125-23.8125 0-45.738281 11.3125-59.527344 30.140625-3.113281-.398437-6.253906-.601563-9.398437-.601563-40.71875 0-73.84375 33.125-73.84375 73.84375 0 4.066407.347656 8.203126 1.035156 12.296876 1.195312 7.113281 7.355469 12.320312 14.566406 12.320312h196.089844l9.855469-64-9.855469-64c-12.148438 0-23.890625 2.925781-34.460938 8.53125zm0 0" fill="#fc9d21" data-original="#FC9D21" class=""/><path d="m393.847656 30.039062c-3.144531 0-6.285156.203126-9.398437.601563-13.789063-18.828125-35.714844-30.140625-59.527344-30.140625-12.144531 0-23.886719 2.925781-34.460937 8.53125-10.570313-5.605469-22.3125-8.53125-34.460938-8.53125v128h196.089844c7.210937 0 13.371094-5.207031 14.566406-12.320312.6875-4.09375 1.035156-8.230469 1.035156-12.296876 0-40.71875-33.125-73.84375-73.84375-73.84375zm0 0" fill="#f96225" data-original="#F96225" class=""/><path d="m59.078125 177.730469c-4.210937 0-8.226563 1.796875-11.027344 4.941406s-4.128906 7.335937-3.644531 11.523437l26.519531 229.84375c2.578125 22.363282 21.503907 39.230469 44.015625 39.230469h141.058594l9.855469-142.769531-9.855469-142.769531zm0 0" fill="#fef4f4" data-original="#FEF4F4" class="" data-old_color="#fef4f4" style="fill:#9F550A"/><path d="m463.949219 182.671875c-2.804688-3.140625-6.816407-4.941406-11.027344-4.941406h-196.921875v285.539062h141.058594c22.511718 0 41.4375-16.867187 44.015625-39.230469l26.523437-229.84375c.480469-4.1875-.847656-8.378906-3.648437-11.523437zm0 0" fill="#f7e7e7" data-original="#F7E7E7" class="" data-old_color="#f7e7e7" style="fill:#8A4F13"/><path d="m14.769531 98.960938c-8.15625 0-14.769531 6.613281-14.769531 14.769531v78.769531c0 8.15625 6.613281 14.769531 14.769531 14.769531h241.230469l9.855469-50.542969-9.855469-57.765624zm0 0" fill="#6f6b6e" data-original="#6F6B6E" class=""/><path d="m497.230469 98.960938h-241.230469v108.308593h241.230469c8.15625 0 14.769531-6.613281 14.769531-14.769531v-78.769531c0-8.15625-6.613281-14.769531-14.769531-14.769531zm0 0" fill="#242627" data-original="#242627" class="" data-old_color="#242627" style="fill:#525252"/><path d="m241.230469 340.191406v39.386719c0 8.15625 6.613281 14.769531 14.769531 14.769531l9.855469-34.464844-9.855469-34.460937c-8.15625 0-14.769531 6.613281-14.769531 14.769531zm0 0" fill="#8adc67" data-original="#8ADC67" class="" data-old_color="#8adc67" style="fill:#65C638"/><path d="m256 325.421875v68.925781c8.15625 0 14.769531-6.613281 14.769531-14.769531v-39.386719c0-8.15625-6.613281-14.769531-14.769531-14.769531zm0 0" fill="#65c638" data-original="#65C638" class="active-path" data-old_color="#65c638" style="fill:#0A9F5C"/><path d="m245.558594 250.980469-23.074219 23.070312c-18.480469 18.480469-18.480469 48.550781 0 67.03125 8.953125 8.949219 20.855469 13.878907 33.515625 13.878907l9.855469-54.152344-9.855469-54.15625c-3.78125 0-7.558594 1.445312-10.441406 4.328125zm0 0" fill="#18af63" data-original="#18AF63" class="" data-old_color="#18af63" style="fill:#65C638"/><path d="m289.515625 274.050781-23.074219-23.070312c-2.882812-2.882813-6.660156-4.328125-10.441406-4.328125v108.308594c12.660156 0 24.5625-4.929688 33.515625-13.882813 18.480469-18.476563 18.480469-48.546875 0-67.027344zm0 0" fill="#0a9f5c" data-original="#0A9F5C" class="" style="fill:#0A9F5C" data-old_color="#0a9f5c"/></g> </svg>
