<svg height="512pt" viewBox="0 0 512.00047 512" width="512pt" xmlns="http://www.w3.org/2000/svg"><path d="m302.558594 46.542969s46.542968-23.273438 93.085937-23.273438c69.8125 0 116.355469 46.542969 116.355469 116.359375 0 46.632813-46.542969 93.085938-46.542969 93.085938zm0 0" fill="#004ed6"/><g fill="#0026b6"><path d="m344.28125 51.363281 23.269531-23.273437c6.429688-6.425782 16.847657-6.425782 23.273438 0 6.425781 6.425781 6.425781 16.847656 0 23.273437l-23.273438 23.269531c-6.425781 6.425782-16.84375 6.425782-23.269531 0-6.425781-6.425781-6.425781-16.84375 0-23.269531zm0 0"/><path d="m390.824219 74.632812 23.269531-23.269531c6.429688-6.425781 16.847656-6.425781 23.273438 0 6.425781 6.425781 6.425781 16.84375 0 23.269531l-23.273438 23.273438c-6.425781 6.425781-16.84375 6.425781-23.269531 0s-6.425781-16.847656 0-23.273438zm0 0"/><path d="m423.734375 111.539062 36.902344-36.90625c6.425781-6.425781 16.847656-6.425781 23.273437 0 6.425782 6.425782 6.425782 16.847657 0 23.273438l-36.90625 36.902344c-6.425781 6.425781-16.84375 6.425781-23.269531 0-6.425781-6.425782-6.425781-16.84375 0-23.269532zm0 0"/><path d="m447.003906 158.082031 36.90625-36.90625c6.425782-6.425781 16.84375-6.425781 23.269532 0 6.425781 6.425781 6.425781 16.847657 0 23.273438l-36.902344 36.902343c-6.425782 6.425782-16.84375 6.425782-23.273438 0-6.425781-6.425781-6.425781-16.84375 0-23.269531zm0 0"/></g><path d="m7.679688 47.675781c8.875-17.800781 25.371093-30.59375 44.824218-34.761719 31.207032-6.71875 40.613282-12.914062 133.695313-12.914062 116.359375 0 302.53125 93.085938 302.53125 232.714844s-162.902344 209.441406-255.988281 209.441406c-69.8125 0-116.355469-23.269531-116.355469-23.269531s-16.222657 50.695312-45.714844 80.648437c-12.542969 12.757813-31.871094 15.988282-47.878906 8-15.324219-7.589844-24.308594-23.910156-22.523438-40.917968 2.40625-22.054688 32.894531-57.597657 46.304688-71.003907 0 0-41.078125-22.878906-46.285157-69.8125-2.035156-17.109375 6.808594-33.671875 22.15625-41.496093 14.566407-7.347657 32.121094-5.214844 44.507813 5.402343 20.496094 17.691407 49.433594 53.347657 49.433594 82.636719 0 0 209.441406 0 209.441406-93.085938 0 0-46.542969-46.542968-116.355469-46.542968-44.039062 0-173.703125-2.28125-206.992187-140.285156-3.578125-15.066407-1.738281-30.910157 5.199219-44.753907zm0 0" fill="#99cefa"/><path d="m243.015625 88.324219c-6.433594 0-11.648437 5.214843-11.648437 11.644531 0 .671875.058593 1.339844.171874 2.003906.816407 4.75 1.21875 9.5625 1.203126 14.382813 0 12.519531-4.3125 23.121093-13.183594 32.414062-.105469.113281-.207032.222657-.304688.335938-.113281.105469-.222656.210937-.328125.320312-4.105469 4.113281-8.707031 7.691407-13.707031 10.652344-5.507812 3.308594-7.289062 10.457031-3.976562 15.964844 3.304687 5.5 10.441406 7.285156 15.945312 3.992187.4375-.261718.878906-.53125 1.328125-.808594l.003906-.003906.058594-.035156.015625-.011719.03125-.019531.042969-.027344.027343-.015625.042969-.027343.023438-.015626.046875-.027343.023437-.015625.039063-.023438.027344-.019531.042968-.027344.027344-.015625.039062-.023437.023438-.015625.050781-.035156.011719-.003907.070312-.046875.058594-.035156.007813-.007812.0625-.039063.007812-.003906.0625-.039063.003907-.003906c4.324218-2.734375 8.414062-5.820312 12.238281-9.21875.046875-.042969.097656-.085938.144531-.132812l.074219-.0625v-.003907c.046875-.042969.097656-.085937.140625-.125l.007812-.003906c.019532-.019531.039063-.039063.0625-.058594l.011719-.011719.058594-.050781.015625-.015625.054687-.050781.019531-.019531.054688-.046875.023438-.019531.050781-.046876.019531-.019531.050781-.046875.027344-.023437.042969-.039063.03125-.03125.035156-.03125.039062-.039062.03125-.027344.046876-.042969.023437-.019531.054687-.054688.019532-.015624.0625-.058594.011718-.007813c.910157-.847656 1.8125-1.726562 2.710938-2.636719.140625-.144531.277344-.289062.410156-.4375.152344-.148437.304688-.296874.453125-.449218 6.921875-7.136719 12.261719-15.65625 15.664063-24.996094v-.003906c.070312-.199219.140625-.398438.210937-.601563.035157-.097656.070313-.199219.101563-.300781l.003906-.003906.101562-.296875v-.007813c.035157-.097656.066407-.199218.101563-.296875v-.003906c.035156-.101563.066406-.203125.097656-.300781l.003907-.007813.03125-.097656c.023437-.070313.042968-.136719.066406-.203125v-.003906c.03125-.101563.0625-.199219.097656-.300782v-.011718c.03125-.097656.0625-.199219.09375-.300782l.003906-.007812c.007813-.03125.019532-.066406.03125-.097656.019532-.070313.039063-.132813.058594-.203125l.003906-.007813c.011719-.035156.019532-.066406.03125-.097656v-.003906l.03125-.097656v-.003907c.011719-.035156.019532-.066406.03125-.101562v-.007813l.03125-.097656c.019532-.070312.039063-.136719.058594-.203125l.003906-.011719.027344-.097656.03125-.105469c.011719-.035156.019531-.066406.027344-.101562l.003906-.007813c.011719-.03125.019531-.066406.027344-.097656l.003906-.007812.027344-.097657v-.003906l.027344-.097656.003906-.011719.027344-.097656.003906-.003906.027344-.097657v-.007812l.027343-.097657.003907-.011718c.007812-.03125.015624-.0625.027343-.097656v-.007813c.011719-.03125.019531-.0625.027344-.09375v-.007813l.027344-.09375.003906-.019531.027344-.09375v-.007812c.011719-.03125.019531-.0625.027343-.097657v-.003906l.027344-.097656.003906-.011719.027344-.101562v-.003907c.007813-.035156.015625-.066406.027344-.101562l.027344-.101562v-.011719c.011718-.035157.019531-.066407.027344-.101563.011718-.035156.019531-.066406.027343-.101562v-.007813c.011719-.03125.019531-.0625.027344-.097656l.003906-.011719c.007813-.035156.015625-.066406.023438-.097656l.003906-.007812c.007813-.035157.015625-.066407.023437-.097657v-.007812c.007813-.03125.019532-.0625.027344-.097657l.027344-.109374v-.011719l.023438-.09375.003906-.011719.027344-.109375c.007812-.035156.015624-.066406.023437-.097656l.003906-.011719c.007813-.03125.015625-.0625.019531-.09375l.003907-.007812.023437-.097657.003906-.015625c.007813-.03125.015626-.066406.023438-.097656l.003906-.011719c.003906-.03125.011719-.058593.019532-.089843l.003906-.011719.023437-.097657.003907-.015624c.007812-.03125.011718-.066407.019531-.097657l.003906-.011719c.007813-.03125.015625-.0625.023437-.09375v-.007812l.023438-.097656.003906-.019532.023438-.09375v-.011718l.023437-.09375.003907-.011719.019531-.097656.003906-.015625.019531-.097656.003906-.015626.019532-.085937.003906-.015625c.007812-.03125.015625-.0625.019531-.09375l.007813-.023438c.003906-.03125.011718-.0625.019531-.09375l.003906-.015624c.003907-.027344.011719-.054688.015625-.082032l.007813-.023437.019531-.089844.003906-.023437.019532-.09375.003906-.015626.019531-.089843v-.011719l.019531-.097656.007813-.023438c.003906-.03125.011719-.0625.019531-.09375v-.011718l.019531-.089844.003907-.019532c.007812-.03125.011718-.0625.019531-.09375l.023437-.117187v-.011719l.019532-.089844.003906-.019531.019531-.09375.023437-.117187v-.011719l.019532-.09375.003906-.015625c.003906-.035156.011719-.066406.019531-.097656l.003907-.019532.015624-.097656.003907-.011718.015625-.089844.003906-.019532c.007812-.03125.011719-.0625.019531-.09375l.003907-.023437c.007812-.03125.011718-.0625.015624-.09375l.003907-.015625c.007812-.03125.011719-.0625.015625-.089844l.027344-.136718c.003906-.03125.011718-.066407.015624-.097657l.003907-.011719.015625-.09375.003906-.015624.015625-.097657.003906-.019531c.007813-.03125.011719-.066406.019531-.097656v-.011719c.007813-.03125.011719-.058594.015626-.089844l.003906-.023437c.007812-.03125.011718-.0625.015625-.09375l.003906-.023438c.007813-.035156.011719-.066406.019531-.097656v-.015625c.007813-.03125.011719-.058594.015625-.089844l.003907-.015625c.003906-.035156.011718-.066406.015624-.097656l.003907-.023438c.007812-.035156.011719-.066406.015625-.097656l.003906-.015625.015625-.089843v-.019532c.007813-.03125.011719-.0625.015625-.09375l.003906-.023437.015625-.097657.003907-.015624c.003906-.03125.007812-.058594.011718-.089844l.003906-.019532.015626-.097656.003906-.023437.015625-.097657.003906-.015624c.003906-.027344.007813-.058594.011719-.085938l.003906-.023438.015625-.097656.003906-.019531.015625-.101563v-.011718l.015625-.09375v-.015625l.015625-.097657.003906-.027343c.003907-.03125.007813-.066407.011719-.097657l.003907-.011718.011718-.09375.003906-.019532c.003907-.03125.011719-.0625.015626-.097656v-.023437l.015624-.097657.003907-.015624.011719-.089844v-.023438l.015624-.097656.003907-.019531c.003906-.035157.007812-.070313.011719-.101563v-.011718l.015624-.09375v-.023438l.015626-.097656.003906-.019532.011718-.101562v-.011719l.011719-.101562.003907-.011719.011718-.101562.003906-.023438.011719-.101562v-.007813c.003907-.035156.011719-.066406.015625-.097656v-.019531c.003906-.03125.007813-.066407.011719-.097657l.003906-.027343c.003907-.03125.007813-.066407.011719-.097657l.003906-.011719.007813-.097656.003906-.019531c.003906-.03125.007813-.0625.011719-.097656l.003906-.023438.007812-.101562.003907-.011719c.003906-.03125.007812-.0625.007812-.09375l.003907-.023438c.003906-.03125.007812-.066406.011718-.101562l.003906-.019531c.003907-.035157.007813-.070313.011719-.101563v-.011718l.007813-.097657.003906-.019531.011719-.097656v-.027344l.011719-.101562v-.011719c.003906-.03125.007812-.066407.011718-.09375l.003906-.023438c0-.03125.003907-.066406.007813-.097656l.003906-.027344c0-.03125.003907-.066406.007813-.101562l.003906-.011719.007812-.09375.003907-.019531c0-.035157.003906-.070313.007812-.105469v-.019531c.003907-.035157.007813-.070313.011719-.105469v-.007812c.003906-.035157.007812-.066407.011719-.097657v-.023437c.003906-.035156.007812-.066406.007812-.101563l.003907-.023437.007812-.101563v-.007812c.003906-.035157.007812-.070313.011719-.101563v-.019531c.003906-.035156.007812-.066406.007812-.101563l.003907-.027343.007812-.101563.003906-.015625.007813-.089843v-.023438c.003906-.035156.003906-.066406.007812-.101562l.003907-.023438.007812-.105469v-.011719c.003906-.03125.003906-.0625.007812-.097656v-.019531c.003907-.035156.007813-.070313.007813-.105469l.003906-.019531.007813-.105469v-.007812c.003906-.035156.003906-.070313.007812-.101563v-.023437c.003906-.035156.007813-.066406.007813-.101563l.003906-.019531c0-.039062.003906-.074219.003906-.109375l.003907-.003906c0-.035157.003906-.070313.007812-.105469v-.019531c0-.035157.003906-.070313.007812-.105469v-.019531c.003907-.039063.003907-.074219.007813-.109375.003906-.039063.003906-.074219.007813-.109375v-.019531l.007812-.105469v-.019531l.007812-.109376v-.003906l.003907-.105468.003906-.019532.003906-.105468v-.023438c.003907-.035156.003907-.070312.007813-.105469v-.007812c.003906-.035157.003906-.070313.003906-.101563l.003906-.023437c0-.035157.003906-.070313.003906-.105469v-.019531l.007813-.109375v-.007813c0-.035156.003906-.066406.003906-.105469l.003907-.019531.003906-.105469v-.023437c0-.035156.003906-.070313.003906-.105469v-.007812c.003906-.035156.003906-.070313.007812-.105469v-.023437l.003907-.101563v-.023437c0-.035157.003906-.070313.003906-.109376v-.003906l.003906-.105468.003907-.023438.003906-.105469v-.023437l.003906-.105469v-.011719c0-.03125 0-.066406.003906-.101562v-.023438c0-.035156.003906-.070312.003906-.105468v-.019532c0-.039062.003907-.074218.003907-.109375v-.007812c0-.035157 0-.070313.003906-.105469v-.023438c0-.035156 0-.070312.003906-.101562v-.132812l.003907-.011719v-.101563l.003906-.027344v-.128906l.003906-.105468v-.113282l.003906-.023437c0-.035157 0-.070313 0-.105469v-.023438c.003906-.039062.003906-.074218.003906-.113281 0-.039062 0-.074219 0-.109375v-.023437c0-.035157 0-.070313.003907-.109375v-.265625c0-.035157 0-.074219 0-.109375l.003906-.023438c0-.074218 0-.148437 0-.226562v-.019532c0-.035156 0-.070312 0-.109374v-.757813c-.003906-.03125-.003906-.0625-.003906-.097656v-.011719c0-.023438 0-.054688 0-.078125v-.03125c0-.023437 0-.046875 0-.070313v-.019531l-.003907-.191406v-.117187c0-.066407 0-.128907-.003906-.195313v-.195313l-.003906-.015624c0-.0625 0-.128907 0-.191407v-.015625l-.003906-.089844v-.007812c0-.066406 0-.128906 0-.195312v-.007813l-.003906-.09375v-.007813l-.003907-.199218-.003906-.097656v-.003907c0-.097656-.003906-.199219-.007813-.296875v-.105468c-.003906-.097657-.007812-.195313-.007812-.296876v-.003906c-.136719-5.09375-.644531-10.167968-1.515625-15.1875-.996094-5.539062-5.8125-9.574218-11.441406-9.585937zm0 0" fill="#c9e5fc"/><path d="m197.835938 442.15625c-6.425782 0-11.636719-5.210938-11.636719-11.636719 0-6.417969 5.195312-11.621093 11.613281-11.632812.683594 0 67.382812-.730469 133.199219-44.589844 63.882812-42.589844 64.632812-106.039063 64.632812-106.675781 0-6.425782 5.207031-11.636719 11.632813-11.636719 6.425781 0 11.636718 5.210937 11.636718 11.636719 0 3.113281-.863281 76.609375-74.996093 126.039062-71.925781 47.949219-143.082031 48.496094-146.082031 48.496094zm0 0" fill="#c9e5fc"/><path d="m216.507812 186.308594c-12.855468.0625-23.222656 10.535156-23.160156 23.386718.0625 12.449219 9.910156 22.648438 22.347656 23.140626l.042969.003906c.035157 0 .074219 0 .113281.003906h.023438c.046875.003906.085938.003906.132812.007812h.015626l.148437.003907.023437.003906c.035157 0 .070313 0 .109376.003906.222656.007813.449218.019531.671874.03125.199219.007813.398438.011719.597657.015625.214843.019532.433593.035156.652343.046875 45.3125 2.527344 79.789063 24.078125 96.484376 36.867188 10.226562 7.785156 24.824218 5.808593 32.609374-4.417969 7.773438-10.207031 5.816407-24.777344-4.371093-32.574219-20.792969-15.921875-64.308594-43.109375-122.097657-46.34375-.257812-.015625-.511718-.023437-.765624-.03125-.292969-.023437-.589844-.039062-.886719-.054687l-1.65625-.070313c-.347657-.015625-.691407-.023437-1.035157-.023437zm0 0" fill="#64aef7"/><path d="m488.730469 232.714844c0-139.628906-186.171875-232.714844-302.53125-232.714844-93.082031 0-102.488281 6.195312-133.695313 12.914062-8.429687 1.90625-16.398437 5.464844-23.441406 10.472657 31.285156.832031 194.300781 9.144531 320.039062 92.96875 139.628907 93.085937 139.628907 281.242187-116.359374 325.800781 93.085937 0 255.988281-69.8125 255.988281-209.441406zm0 0" fill="#0a86e3"/><path d="m377.316406 36.082031c-6.429687-.003906-11.644531 5.203125-11.648437 11.628907-.003907 4.011718 2.0625 7.742187 5.460937 9.871093 15.140625 9.347657 29.523438 19.875 43.003906 31.488281l.171876.148438h.003906c.050781.046875.109375.097656.164062.144531l.011719.007813c.054687.046875.113281.097656.164063.144531l.003906.003906c.171875.148438.339844.296875.511718.445313l.007813.007812c.054687.046875.109375.097656.164063.144532l.011718.007812c.050782.046875.101563.089844.15625.136719l.015625.015625c.054688.046875.105469.089844.15625.136718l.011719.011719c.054688.046875.109375.09375.160156.140625l.011719.007813.164063.144531.011718.011719c.050782.046875.105469.09375.15625.136719l.015625.015624c.046875.039063.109375.09375.152344.132813l.023437.019531c.050782.046875.089844.082032.144532.128906l.027344.023438c.042968.039062.097656.089844.144531.128906l.019531.019532c.046875.039062.109375.09375.15625.136718l.011719.011719c.050781.046875.105469.09375.160156.140625l.019531.019531c.054688.046875.09375.082031.144532.128907l.03125.027343c.046874.042969.089843.082031.136718.121094l.03125.027344c.046875.042969.09375.085937.140625.125l.027344.023437c.042969.042969.09375.085938.140625.125l.027344.027344c.042968.039062.089844.082031.136718.121094l.039063.039062c.046875.039063.09375.082032.140625.125l.03125.023438.136719.125.03125.03125c.046875.039062.089843.078125.132812.117187l.035157.03125.128906.117188.039062.035156.132813.121094.03125.027343.136719.125.039062.035157.140625.125.03125.03125c.039063.035156.089844.082031.128906.117187l.042969.039063c.039062.035156.085938.078125.125.113281l.039062.035156.125.113282.042969.039062c.039063.035156.085938.074219.121094.109375l.046875.042969c.046875.042968.078125.070312.121094.113281l.054687.046875c.042969.039062.078125.070312.121094.113281l.046875.039063c.039062.039062.085938.078125.121094.117187.015625.007813.03125.023438.042968.035157.039063.035156.085938.082031.125.117187l.039063.03125c.039063.039063.085937.082031.125.117187l.039063.039063c.039062.035156.085937.078125.125.113281l.039062.039063c.046875.039062.085938.074219.128906.117187l.050782.042969c.042968.042969.078124.074219.125.117187l.046874.042969c.039063.035157.078126.074219.117188.109375l.046875.042969.113281.105469.050782.046875c.039062.035156.074218.070312.113281.105469l.046875.042968.117187.109375c.019531.019531.035157.035157.054688.050781l.113281.105469.0625.058594c.03125.027344.074219.070313.109375.101563l.054687.050781c.035157.035156.074219.070312.109376.105469l.054687.046874.113281.105469.046875.042969c.039063.039062.070313.070312.109375.105469.015625.015625.039063.035156.054688.050781.039062.035156.070312.066406.109375.101562l.066406.0625c.03125.03125.066406.0625.097656.09375l.070313.0625c.039062.039063.070312.070313.109375.105469l.054687.050781c.03125.03125.074219.070313.105469.101563l.058594.054687c.039062.035157.066406.0625.105469.097657l.054687.054687.105469.097656.054687.050782c.039063.039062.070313.070312.109375.105468l.066406.0625.089844.085938c.027344.023438.054688.050781.082032.078125.035156.03125.050781.046875.082031.078125.027343.023438.054687.046875.082031.074219.03125.03125.0625.0625.097656.09375.019532.019531.039063.039062.058594.058593l.097656.09375.0625.058594.09375.089844.082032.074219.078124.082031c.027344.023438.058594.050781.085938.078125l.082031.082031c.027344.023438.054688.050782.082031.074219l.085938.082031.074219.074219.097656.089844.15625.15625c.023437.019531.042969.039062.0625.058593l.097656.09375c.027344.023438.054688.054688.082031.082032.027344.023437.050782.046875.074219.070312l.085938.078125c.023437.027344.050781.050781.074219.078125l.089843.085938.074219.070312c.027344.027344.054688.050782.082031.078125.03125.03125.0625.0625.09375.09375l.066407.0625c.023437.023438.0625.0625.089843.085938l.066407.066406.085937.082031.15625.15625.105469.097656.050781.054688c.039063.035156.074219.070312.109375.105469l.050781.046875.105469.105468.0625.058594.09375.09375.085938.082032.082031.082031c.027343.023437.046875.046875.070312.070312.035157.03125.066407.0625.097657.097657l.058593.054687c.035157.035156.070313.070313.101563.101563.015625.015624.035156.035156.046875.046874.039062.035157.074219.070313.109375.109376l.050781.050781c.035156.035156.070313.066406.105469.101562l.152344.152344c.027343.023437.054687.054687.082031.078125l.097656.097656c.023437.023438.03125.03125.058594.058594.035156.035156.070312.070312.105469.105469l.046874.046875c.039063.039062.074219.074218.113282.113281l.035156.035156c.042969.039063.082031.078125.121094.117188l.03125.03125c.039062.042969.078125.082031.121094.125l.015624.015625c.066407.066406.128907.125.191407.191406l.015625.015625c.039062.039063.078125.078125.117187.117187l.039063.039063c.039062.039063.074218.074219.113281.113281l.039063.039063c.039062.039062.074218.074219.109374.113281l.046876.042969c.039062.039062.074218.078125.113281.113281l.03125.035156c.042969.039063.078125.078125.121093.117188l.03125.035156c.105469.105469.214844.214844.320313.324219l.019531.019531c.042969.042969.085938.085938.128906.128906l.027344.027344c.039063.039062.078125.082031.117188.121094l.035156.035156.117188.121094.179687.179687.164063.167969.03125.03125c.042968.042969.082031.085938.121093.125l.027344.027344c.039063.042968.078125.082031.121094.121094l.03125.035156c.039062.042968.082031.085937.121093.125l.019532.019531.128906.132813.019531.019531c.109375.113281.222657.226562.328125.339843l.019532.019532c.042968.046875.085937.089844.128906.132812l.019531.019532.128906.132812.019531.019531.125.128907.027344.03125c.039063.042968.078125.082031.121094.125l.023438.027343c.109374.113281.214843.222657.324218.335938l.019532.019531c.035156.039062.074218.078125.109374.117188l.042969.042968c.039063.039063.074219.078125.113281.121094l.027344.027344.125.128906.019532.019531c.042968.046875.085937.089844.128906.136719l.003906.003906c.210938.222656.425781.445313.636719.671875l.003906.003907c.042969.046874.089844.097656.136719.144531l.007812.007812c.164063.175781.324219.34375.488282.519531l.003906.003907c.09375.097656.183594.195312.277344.292969l.007812.011718.136719.144532.140625.152343.007812.007813c.511719.550781 1.023438 1.101562 1.535156 1.65625v.003906c.046876.050781.089844.097656.136719.148438l.007813.007812c.160156.175781.320312.351562.480468.527344.09375.101562.183594.203125.277344.304687.046875.050781.09375.101563.136719.152344h.003906c.25.28125.5.558594.753907.839844l.003906.003906c.34375.382813.683594.765625 1.023437 1.148437l.003907.003907c.203124.226562.398437.453125.601562.679687l.011719.015625.128906.144531.007813.007813c.042968.050781.085937.101563.128906.148437l.003906.003907c.246094.28125.492188.5625.738281.847656l.003907.003906.132812.152344.003906.003906c.109375.125.21875.253907.332032.382813.039062.042968.074218.085937.109374.128906l.03125.039062c.035157.039063.074219.082032.109376.125l.027343.03125.113281.128907.023438.03125c.039062.046875.078125.089843.117188.136719l.011718.011718c.148438.171875.296875.347656.445313.519532l.015625.019531.121094.140625.015624.019531.113282.136719.027344.03125c.035156.042968.078124.085937.113281.132812l.015625.015625.308594.367188.011718.011719c.039063.046874.078125.09375.117188.144531l.015625.015625c.039062.042968.078125.089844.113281.132812l.027344.035156c.039062.042969.070312.082032.109375.128907l.027343.03125.105469.128906.035157.039063c.03125.039062.070312.085937.105468.125l.007813.007812c.054687.070312.113281.136719.167969.203125l.023437.027344.105469.128906.03125.035156c.035156.042969.070312.085938.105468.128907l.027344.03125.113282.132812.019531.027344c.039062.046875.074219.089844.113281.136718l.015625.019532c.054687.0625.105469.128906.160156.191406l.023438.03125c.039062.042969.074219.085938.109375.128906l.023437.03125c.035157.042969.074219.085938.109375.128906l.027344.035157c.035156.042969.070312.085937.101562.125l.035157.042969c.035156.039062.066406.078124.101562.121093.011719.019531.019531.027344.035157.046875.035156.039063.066406.078125.101562.121094l.027344.03125c.035156.046875.070312.085938.105468.132812l.011719.011719c.046875.058594.097657.121094.144531.175781l.046876.058594.089843.109375.042969.054688c.035156.039062.066406.078125.097656.117187l.035156.046875c.035157.039063.066407.078125.097657.121094l.042969.050781c.03125.035156.0625.074219.089843.109375l.0625.078125c.023438.03125.050781.0625.074219.09375.023438.023438.046875.054688.066406.082032.035156.039062.066406.082031.101563.121093l.03125.042969c.035156.039062.066406.082031.101562.121094l.035157.042968c.03125.039063.058593.078126.089843.117188l.046875.054688c.03125.039062.0625.078124.089844.113281l.039062.050781c.03125.039062.0625.074219.09375.117188l.042969.050781c.03125.039062.0625.078125.089844.113281.023437.027344.050781.058594.070313.085938.023437.03125.050781.0625.074218.09375l.058594.074218c.03125.039063.0625.078125.09375.117188l.039062.046875c.03125.039062.0625.082031.09375.121093l.035157.042969.097656.121094c.015625.019531.03125.042969.046875.0625l.082031.101563c.019531.027343.042969.054687.0625.082031l.070313.085937c.019531.027344.050781.066406.070312.089844.027344.035156.050782.066406.078125.097656.019531.027344.03125.042969.054688.070313l.082031.101562.050781.070313.082031.101562c.019532.027344.03125.039063.050782.0625.027344.035156.054687.074219.082031.105469l.058594.074219.074219.09375c.023437.035156.046874.0625.070312.09375l.058594.074218.074218.097657c.019532.023437.042969.050781.058594.074219l.078125.09375c.019531.03125.042969.058593.066407.089843l.066406.085938c.023437.027343.046875.058593.070312.089843l.0625.078126c.023438.03125.046875.066406.070313.09375.023437.027343.050781.066406.070312.089843.019531.027344.042969.054688.0625.078125.023438.035156.050781.070313.078125.101563.015625.023437.035156.046875.050782.070312.027343.03125.054687.070313.082031.101563l.046875.0625c.023437.03125.058594.078125.085937.109375.019531.027343.039063.054687.058594.078125.023437.03125.046875.0625.074219.09375.015625.027344.039062.054687.058594.078125.023437.035156.046874.066406.074218.097656l.058594.078125c.027344.035156.058594.078125.085938.109375l.042968.058594.085938.109375.046875.066406.128906.164062.085937.117188.054688.070312.210938.28125c.019531.023438.039062.050782.058593.074219.023438.03125.058594.078125.082031.109375.015626.019532.03125.039063.046876.058594.03125.042969.054687.074219.085937.113281l.128906.175781c.011719.015626.027344.035157.039063.050782.03125.042968.058594.074218.085937.117187.023438.023438.039063.046875.058594.074219.023437.03125.054687.074219.078125.105469l.050781.066406c.027344.039063.058594.078125.089844.117187l.039063.054688c.03125.039062.058593.082031.089843.121094l.042969.054687.082031.113281.046875.0625.085938.113282.039062.054687.089844.121094.042969.0625c.03125.039063.058593.078125.089843.117187l.046876.0625c.027343.039063.0625.085938.089843.125l.039063.050782.09375.125.03125.042968c.03125.042969.066406.089844.097656.132813l.15625.214844.097656.132812.140625.1875.023438.035157.105469.144531.023437.03125c.035156.050781.070313.097656.105469.144531l.023437.03125c.035157.046875.066407.09375.101563.140625l.027344.039063c.035156.046874.066406.09375.101562.140624l.019531.027344c.039063.054688.070313.09375.109375.148438l.019532.027344c.039062.054687.070312.101562.109374.15625l.023438.03125c.035156.046874.070312.097656.105469.144531l.027343.039062c.035157.046875.066407.089844.097657.136719l.027343.035156c.027344.042969.070313.097656.097657.140625l.027343.035157c.035157.050781.066407.097656.101563.144531l.023437.03125c.03125.046875.070313.097656.105469.144531l.019531.03125.113282.160156.015625.023438.109375.148437.019531.03125c.035156.046875.070313.097657.101563.144531l.023437.03125c.03125.042969.074219.105469.101563.144532l.023437.03125.105469.148437.019531.027344c.039063.054687.070313.101563.109375.15625l.011719.015625c.039062.054688.082031.113281.117187.167969l.011719.015625c.039063.058594.074219.109375.113281.164062l.011719.015625c.035156.046875.078125.113281.113281.160157l.015625.019531c.035157.054687.070313.101562.105469.15625l.019531.023437.109375.15625.011719.019532c.039063.054687.074219.105468.113281.160156l.003906.011718c.125.175782.25.347657.382813.515626.109375.179687.226563.359374.347656.535156l.003907.007812c.03125.046875.0625.09375.097656.140625l.003906.007813c.035156.050781.070312.101562.101562.148437h.003907c8.765625 12.6875 15.933593 26.410157 21.339843 40.851563 2.242188 6.023437 8.941407 9.085937 14.964844 6.84375 6.011719-2.238282 9.074219-8.917969 6.851563-14.9375-6.117188-16.351563-14.242188-31.882813-24.183594-46.234375-.136719-.195313-.273437-.386719-.417969-.574219-.125-.199219-.253906-.398438-.390625-.59375-21.773437-31.304688-53.644531-60.492188-92.167969-84.414062-1.839843-1.144532-3.960937-1.75-6.128906-1.75zm0 0" fill="#0026b6"/><path d="m256.015625 46.542969c0 12.851562-10.417969 23.269531-23.273437 23.269531-12.851563 0-23.269532-10.417969-23.269532-23.269531 0-12.851563 10.417969-23.273438 23.269532-23.273438 12.855468 0 23.273437 10.421875 23.273437 23.273438zm0 0" fill="#0a86e3"/><path d="m325.828125 93.085938c0 12.851562-10.417969 23.269531-23.269531 23.269531-12.851563 0-23.273438-10.417969-23.273438-23.269531 0-12.851563 10.421875-23.273438 23.273438-23.273438 12.851562 0 23.269531 10.421875 23.269531 23.273438zm0 0" fill="#0a86e3"/><path d="m139.65625 46.542969c0 12.851562-10.417969 23.269531-23.269531 23.269531-12.851563 0-23.273438-10.417969-23.273438-23.269531 0-12.851563 10.421875-23.273438 23.273438-23.273438 12.851562 0 23.269531 10.421875 23.269531 23.273438zm0 0" fill="#001386"/><path d="m116.386719 34.90625c0 6.425781-5.210938 11.636719-11.636719 11.636719s-11.632812-5.210938-11.632812-11.636719 5.207031-11.632812 11.632812-11.632812 11.636719 5.207031 11.636719 11.632812zm0 0" fill="#46a4f2"/><path d="m58.207031 116.355469c-6.421875.003906-11.628906-5.199219-11.632812-11.621094 0-.003906 0-.007813 0-.011719v-9.546875c.023437-3.996093-2.042969-7.710937-5.457031-9.792969-39.929688-23.796874-41.085938-47.816406-41.085938-50.476562 0-6.429688 5.214844-11.636719 11.644531-11.632812 6.238281 0 11.367188 4.921874 11.625 11.15625.136719 1 2.636719 14.816406 29.726563 30.953124 10.4375 6.300782 16.816406 17.601563 16.816406 29.792969v9.546875c.003906 6.421875-5.199219 11.632813-11.621094 11.636719-.003906-.003906-.007812-.003906-.015625-.003906zm0 0" fill="#64aef7"/><path d="m69.84375 104.722656c0 6.425782-5.210938 11.632813-11.636719 11.632813s-11.632812-5.207031-11.632812-11.632813c0-6.425781 5.207031-11.636718 11.632812-11.636718s11.636719 5.210937 11.636719 11.636718zm0 0" fill="#006ce2"/><path d="m21.960938 74.949219c-6.425782-.003907-11.640626 5.203125-11.644532 11.628906-.003906 3.675781 1.730469 7.136719 4.675782 9.332031 2.628906 1.964844 5.410156 3.898438 8.308593 5.785156v3.027344c.007813 15.835938 10.667969 29.691406 25.976563 33.75.625.164063 1.257812.277344 1.898437.335938.609375.195312 1.238281.34375 1.875.4375 1.257813.1875 2.527344.308594 3.800781.355468.152344.007813.304688.011719.457032.011719 6.425781-.007812 11.632812-5.21875 11.628906-11.644531-.003906-6.25-4.945312-11.378906-11.1875-11.621094h-.042969c-.414062-.019531-.828125-.058594-1.238281-.121094-.210938-.03125-.421875-.054687-.628906-.074218-.203125-.066406-.40625-.125-.617188-.179688-3.914062-1.042968-7.007812-4.042968-8.167968-7.925781l-.011719-.035156c-.011719-.046875-.023438-.089844-.039063-.136719v-.003906l-.007812-.03125c-.015625-.046875-.027344-.09375-.039063-.136719v-.003906l-.007812-.03125v-.003907l-.011719-.03125c-.007812-.035156-.015625-.070312-.027344-.105468l-.015625-.070313c-.011719-.046875-.023437-.09375-.03125-.140625l-.003906-.003906-.003906-.027344-.003907-.003906-.007812-.035156c-.003906-.023438-.007812-.046875-.011719-.070313l-.007812-.035156-.003907-.003906-.003906-.03125-.003906-.003907-.027344-.136718v-.007813l-.003906-.027343-.003906-.007813-.003906-.027344v-.007812l-.011719-.066407-.003907-.003906-.003906-.03125v-.007812l-.007812-.027344v-.007812l-.003906-.027344-.003907-.007813-.003906-.027343v-.003907l-.011719-.070312v-.007813l-.007812-.027344v-.007812l-.003906-.027344v-.007812l-.003907-.027344-.003906-.007812-.007813-.066407v-.007812l-.007812-.027344v-.007813l-.003906-.027343v-.007813l-.003906-.027344v-.007812c-.003907-.023438-.007813-.046875-.011719-.070312v-.007813l-.003907-.027344v-.007812l-.003906-.027344v-.007813l-.003906-.027343v-.007813l-.003906-.027344v-.007812l-.003906-.035156-.003907-.003906v-.027344l-.003906-.011719v-.023437l-.003906-.011719v-.023438l-.003907-.011719v-.035156l-.003906-.035156-.003906-.03125v-.011719l-.003906-.023437v-.011719l-.003906-.023437v-.011719l-.003907-.023438v-.011719l-.003906-.035156v-.03125l-.003906-.011718v-.035157l-.003907-.023437v-.039063l-.003906-.007812-.003906-.070313v-.011718l-.003906-.023438v-.046875l-.003906-.023437v-.046876l-.003907-.035156v-.046875l-.003906-.023437v-.082032l-.003906-.03125v-.085937l-.003907-.019531v-9.816406c.023438-3.996094-2.046874-7.714844-5.457031-9.796876l-.109375-.066406-.046875-.027344-.0625-.039062-.058593-.03125-.054688-.035156-.058594-.035156-.050781-.03125c-.019531-.011719-.042969-.023438-.0625-.035157l-.046875-.03125c-.019531-.007812-.042969-.023437-.0625-.035156l-.046875-.027344c-.023437-.015625-.046875-.027343-.066406-.042969l-.039063-.023437c-.023437-.011719-.050781-.027344-.070312-.042969l-.035156-.019531-.078126-.046875-.023437-.015625-.085937-.050781h-.003907c-.132812-.082032-.273437-.167969-.40625-.25l-.007812-.003906c-.03125-.019532-.0625-.039063-.09375-.058594l-.011719-.007813-.09375-.054687-.015625-.007813-.089844-.058593-.011719-.007813c-.03125-.019531-.0625-.035156-.09375-.054687l-.011718-.007813-.09375-.058594-.007813-.003906c-.308593-.1875-.613281-.378906-.917969-.570313-1.148437-.71875-2.265624-1.441406-3.351562-2.160156h-.003906l-.089844-.0625-.003906-.003906-.089844-.058594-.011719-.007812c-.027343-.019532-.058593-.039063-.085937-.058594h-.003906c-.214844-.144531-.429688-.289062-.644532-.433594l-.019531-.015625-.074219-.050781-.023437-.011719-.070313-.050781-.027344-.015625-.066406-.046875-.03125-.019531-.066406-.046875-.03125-.019532-.066406-.046874-.027344-.019532-.066406-.042968-.027344-.019532-.222656-.152344-.035156-.023437-.050782-.035156-.046875-.03125-.046875-.035157-.09375-.0625-.054687-.039062-.039063-.027344-.054687-.039062-.042969-.027344-.054688-.039062-.042968-.027344-.054688-.039063-.042968-.027343-.058594-.042969-.03125-.023438c-.027344-.019531-.050782-.035156-.078125-.050781l-.019531-.015625c-.097657-.066406-.195313-.136719-.292969-.203125l-.003907-.003906-.09375-.066406-.007812-.007813-.085938-.058594-.011718-.007812c-.03125-.023438-.058594-.042969-.085938-.0625l-.015625-.007813-.082031-.058594-.011719-.011718-.085937-.058594-.011719-.007812c-.875-.621094-1.722656-1.238282-2.546875-1.851563-2-1.507813-4.441406-2.316406-6.945312-2.316406zm0 0" fill="#c9e5fc"/><path d="m209.472656 232.714844c-12.851562-.003906-23.265625-10.425782-23.261718-23.277344.003906-10.007812 6.40625-18.890625 15.898437-22.0625 2.089844-.726562 53.90625-19.269531 53.90625-71.019531 0-35.335938-16.042969-52.90625-16.726563-53.632813-8.695312-9.300781-8.394531-23.839844.683594-32.769531 9.046875-8.847656 23.523438-8.789063 32.496094.136719 3.089844 3.066406 30.089844 31.65625 30.089844 86.265625 0 85.609375-82.222656 113.996093-85.722656 115.152343-2.375.796876-4.859376 1.203126-7.363282 1.207032zm0 0" fill="#64aef7"/><path d="m209.472656 232.714844c-12.851562-.003906-23.265625-10.425782-23.261718-23.277344.003906-10.007812 6.40625-18.890625 15.898437-22.0625 2.089844-.726562 53.90625-19.269531 53.90625-71.019531 0-35.335938-16.042969-52.90625-16.726563-53.632813-8.695312-9.300781-8.394531-23.839844.683594-32.769531 9.046875-8.847656 23.523438-8.789063 32.496094.136719 3.089844 3.066406 30.089844 31.65625 30.089844 86.265625 0 85.609375-82.222656 113.996093-85.722656 115.152343-2.375.796876-4.859376 1.203126-7.363282 1.207032zm0 0" fill="#64aef7"/><path d="m277.195312 116.355469c-11.226562-.011719-20.84375-8.042969-22.863281-19.089844-4.15625-22.703125-14.589843-34.066406-15.042969-34.542969-8.695312-9.300781-8.394531-23.839844.679688-32.769531 9.050781-8.847656 23.527344-8.789063 32.5.136719 2.113281 2.113281 20.839844 21.726562 27.632812 58.8125 2.316407 12.632812-6.042968 24.746094-18.671874 27.0625-.011719.003906-.019532.003906-.03125.007812-1.382813.261719-2.792969.390625-4.203126.382813zm0 0" fill="#006ce2"/><path d="m418.914062 162.898438c0 12.855468-10.417968 23.273437-23.269531 23.273437-12.855469 0-23.273437-10.417969-23.273437-23.273437 0-12.851563 10.417968-23.269532 23.273437-23.269532 12.851563 0 23.269531 10.417969 23.269531 23.269532zm0 0" fill="#0a86e3"/><path d="m349.101562 325.800781c0 12.851563-10.417968 23.269531-23.273437 23.269531-12.851563 0-23.269531-10.417968-23.269531-23.269531 0-12.855469 10.417968-23.273437 23.269531-23.273437 12.855469 0 23.273437 10.417968 23.273437 23.273437zm0 0" fill="#64aef7"/><path d="m232.742188 407.25c0 6.425781-5.207032 11.636719-11.632813 11.636719s-11.636719-5.210938-11.636719-11.636719 5.210938-11.636719 11.636719-11.636719 11.632813 5.210938 11.632813 11.636719zm0 0" fill="#c9e5fc"/><path d="m279.285156 360.707031c0 6.425781-5.207031 11.636719-11.632812 11.636719-6.429688 0-11.636719-5.210938-11.636719-11.636719s5.207031-11.636719 11.636719-11.636719c6.425781 0 11.632812 5.210938 11.632812 11.636719zm0 0" fill="#c9e5fc"/><path d="m372.371094 186.171875c0 12.851563-10.417969 23.269531-23.269532 23.269531-12.851562 0-23.273437-10.417968-23.273437-23.269531s10.421875-23.273437 23.273437-23.273437c12.851563 0 23.269532 10.421874 23.269532 23.273437zm0 0" fill="#e1ebfc"/><path d="m162.929688 104.722656c0 6.425782-5.210938 11.632813-11.636719 11.632813s-11.636719-5.207031-11.636719-11.632813c0-6.425781 5.210938-11.636718 11.636719-11.636718s11.636719 5.210937 11.636719 11.636718zm0 0" fill="#64aef7"/><path d="m465.457031 267.621094c0 6.425781-5.210937 11.636718-11.636719 11.636718-6.425781 0-11.632812-5.210937-11.632812-11.636718 0-6.425782 5.207031-11.636719 11.632812-11.636719 6.425782 0 11.636719 5.210937 11.636719 11.636719zm0 0" fill="#006ce2"/><path d="m418.914062 360.707031c0 6.425781-5.207031 11.636719-11.636718 11.636719-6.425782 0-11.632813-5.210938-11.632813-11.636719s5.207031-11.636719 11.632813-11.636719c6.429687 0 11.636718 5.210938 11.636718 11.636719zm0 0" fill="#006ce2"/><path d="m465.457031 314.164062c0 6.425782-5.210937 11.636719-11.636719 11.636719-6.425781 0-11.632812-5.210937-11.632812-11.636719 0-6.425781 5.207031-11.636718 11.632812-11.636718 6.425782 0 11.636719 5.210937 11.636719 11.636718zm0 0" fill="#006ce2"/><path d="m349.101562 383.976562c0 6.425782-5.210937 11.636719-11.636718 11.636719-6.425782 0-11.636719-5.210937-11.636719-11.636719 0-6.425781 5.210937-11.632812 11.636719-11.632812 6.425781 0 11.636718 5.207031 11.636718 11.632812zm0 0" fill="#64aef7"/><path d="m139.65625 407.25c0 6.425781-5.207031 11.636719-11.632812 11.636719-6.425782 0-11.636719-5.210938-11.636719-11.636719s5.210937-11.636719 11.636719-11.636719c6.425781 0 11.632812 5.210938 11.632812 11.636719zm0 0" fill="#64aef7"/><path d="m418.914062 151.265625c0 6.425781-5.207031 11.632813-11.636718 11.632813-6.425782 0-11.632813-5.207032-11.632813-11.632813s5.207031-11.636719 11.632813-11.636719c6.429687 0 11.636718 5.210938 11.636718 11.636719zm0 0" fill="#006ce2"/><path d="m116.386719 372.429688c0-29.289063-28.9375-64.945313-49.433594-82.636719-12.386719-10.617188-29.941406-12.75-44.507813-5.402344-15.347656 7.824219-24.1875 24.386719-22.15625 41.496094 5.207032 46.933593 46.285157 69.8125 46.285157 69.8125-13.40625 13.40625-43.894531 48.949219-46.304688 71.003906-2.265625 22.632813 14.246094 42.816406 36.878907 45.082031 12.441406 1.242188 24.773437-3.230468 33.523437-12.160156 29.496094-29.957031 45.714844-80.652344 45.714844-80.652344-23.269531 0-23.269531-23.273437-23.269531-23.273437s0-23.269531 23.269531-23.269531zm0 0" fill="#0a86e3"/><path d="m40.710938 280.066406h-.101563l-.050781.003906h-.328125c-.265625.003907-.535157.011719-.800781.019532h-.003907c-.171875.003906-.34375.011718-.515625.019531-6.191406.359375-10.964844 5.59375-10.746094 11.792969.21875 6.371094 5.4375 11.425781 11.8125 11.449218.0625 0 .125-.003906.1875-.003906l.546876-.007812c4.046874-.011719 7.964843 1.433594 11.035156 4.074218 13.046875 11.257813 29.65625 30.722657 37.359375 48.839844 2.515625 5.914063 9.347656 8.667969 15.261719 6.152344 5.898437-2.507812 8.660156-9.3125 6.171874-15.222656-1.089843-2.5625-2.304687-5.121094-3.628906-7.667969v-.003906c-.09375-.175781-.1875-.351563-.28125-.53125l-.003906-.011719c-.046875-.085938-.089844-.171875-.136719-.257812l-.003906-.007813c-.046875-.085937-.089844-.171875-.136719-.253906l-.007812-.019531-.042969-.078126-.007813-.019531-.082031-.148437-.011719-.023438-.039062-.070312-.019531-.039063-.070313-.132812-.011718-.023438-.097657-.175781-.003906-.007812-.078125-.148438-.027344-.042969-.035156-.066406-.023438-.042969c-.019531-.035156-.039062-.070312-.058593-.105468l-.023438-.046876c-.015625-.023437-.023437-.042968-.035156-.066406l-.027344-.050781c-.019531-.03125-.035156-.0625-.054687-.09375l-.0625-.117187c-.011719-.019532-.019532-.035157-.027344-.050782-.015625-.027344-.03125-.058594-.050781-.085937l-.035157-.066407-.0625-.117187-.03125-.050781c-.019531-.035156-.035156-.066406-.054687-.097656l-.027344-.050782-.035156-.0625-.027344-.050781c-.015625-.027344-.027343-.054687-.042969-.078125l-.039062-.070312-.035156-.0625c-.011719-.019532-.019532-.035157-.03125-.050782l-.042969-.082031-.023437-.042969c-.019532-.03125-.035157-.058594-.050782-.089844l-.027344-.046874-.039062-.070313-.023438-.042969c-.019531-.035156-.042968-.070312-.0625-.105468l-.019531-.039063c-.015625-.027344-.03125-.054687-.046875-.078125l-.019531-.035156-.0625-.113282-.015625-.023437c-.015625-.03125-.035156-.0625-.050781-.09375l-.019531-.03125c-.019532-.039063-.039063-.074219-.0625-.109375l-.015626-.023438-.050781-.09375-.019531-.035156c-.019531-.035156-.039062-.066406-.058594-.097656l-.011718-.027344-.058594-.097656-.019532-.039062c-.019531-.03125-.039062-.066407-.058593-.097657l-.007813-.011719c-.019531-.039062-.042968-.078124-.066406-.117187l-.015625-.027344c-.019531-.03125-.039063-.066406-.058594-.097656l-.007812-.019531c-.023438-.039063-.046875-.078125-.070313-.117188l-.011718-.019531c-.019532-.035156-.039063-.070313-.058594-.105469l-.011719-.015625-.140625-.242187-.011719-.015625c-.046875-.082031-.09375-.164063-.140625-.242188l-.007812-.011719c-.050782-.085937-.097656-.167968-.148438-.25v-.003906c-.078125-.128906-.152344-.253906-.230468-.382812-.050782-.082032-.101563-.167969-.148438-.253906l-.003906-.003907c-9.570313-15.59375-21.371094-29.699219-35.027344-41.871093v-.003907c-.058594-.050781-.117188-.101562-.171875-.152343l-.003906-.003907c-.058594-.046875-.113281-.097656-.167969-.144531l-.015625-.011719-.074219-.066406-.003906-.003906c-.027344-.023438-.054688-.046875-.082031-.070313l-.015625-.011718-.070313-.066407-.007812-.007812-.082031-.066407-.015626-.015624-.066406-.054688-.015625-.015625c-.027343-.023437-.050781-.042969-.078125-.066406l-.015625-.015625-.0625-.054688-.023437-.019531c-.023438-.019531-.050782-.042969-.074219-.066406-7.296875-6.289063-16.609375-9.738281-26.242187-9.726563zm0 0" fill="#46a4f2"/><path d="m395.644531 93.085938c0 12.851562-10.421875 23.269531-23.273437 23.269531-12.851563 0-23.269532-10.417969-23.269532-23.269531 0-12.851563 10.417969-23.273438 23.269532-23.273438 12.851562 0 23.273437 10.421875 23.273437 23.273438zm0 0" fill="#006ce2"/><path d="m151.292969 186.171875c-2.089844 0-51.65625-.296875-78.039063-26.679687-4.542968-4.542969-4.542968-11.910157 0-16.453126 4.542969-4.542968 11.910156-4.542968 16.453125 0 19.519531 19.519532 61.175781 19.859376 61.609375 19.859376 6.425782.015624 11.621094 5.238281 11.605469 11.664062-.011719 6.414062-5.214844 11.605469-11.628906 11.609375zm0 0" fill="#e1ebfc"/><path d="m82.929688 393.804688c-6.433594.003906-11.644532 5.222656-11.640626 11.652343 0 1.035157.136719 2.0625.410157 3.058594 2.359375 9.125 7.488281 17.296875 14.675781 23.394531-6.175781 14.039063-15.828125 32.777344-28.351562 47.132813-.117188.132812-.230469.269531-.335938.402343-.121094.125-.242188.253907-.355469.382813-1.058593 1.1875-2.136719 2.34375-3.242187 3.464844-4.230469 4.3125-10.335938 6.21875-16.265625 5.085937-6.308594-1.214844-12.410157 2.917969-13.621094 9.230469-1.210937 6.289063 2.894531 12.375 9.179687 13.613281.625.121094 1.253907.226563 1.886719.316406l.003907.003907.0625.007812h.011718l.066406.011719c.050782.007812.097657.011719.144532.019531h.011718l.054688.007813.070312.011718h.019532l.054687.007813.015625.003906.070313.007813h.007812l.054688.007812.03125.003906.035156.007813.070313.007813.03125.003906.070312.007812.101562.011719.023438.003906.039062.003907.027344.003906.042969.003906.019531.003906.046875.003906h.011719c.054688.007813.113281.015626.167969.019532h.007812l.050781.007812h.015626l.046874.007813h.015626l.050781.003906.003906.003906c.058594.003907.117187.011719.175781.015625h.003906l.054688.007813h.011719l.050781.003906.007812.003906c.078126.007813.15625.015625.234376.019531l.007812.003907.050781.003906h.011719l.054688.003906.007812.003907c.078125.003906.15625.011718.234375.019531h.003906l.054688.003906h.011719l.050781.003906h.007812c.078125.007813.15625.015625.234375.019531h.007813l.050781.003907.015625.003906h.050781l.007813.003906c.078125.003907.152343.007813.230469.015625h.011718l.046875.003906h.019531l.046876.003907h.011718c.054688.003906.109375.007812.164063.011719h.0625l.015625.003906h.066406l.042969.003906h.019531c.054688.003906.105469.007812.15625.007812h.015625l.042969.003907h.023437l.039063.003906h.03125l.035156.003906h.027344c.046875.003907.09375.003907.140625.003907l.027343.003906h.066407l.039062.003906h.066407l.035156.003906h.09375l.035156.003906h.101562l.03125.003907h.105469l.03125.003906h.128907l.03125.003906h.136718l.050782.003907h.175781l.042969.003906h.296874l.027344.003906h.203125c11.082031 0 21.699219-4.449219 29.46875-12.347656l.152344-.152344.027344-.03125.035156-.03125.007813-.011719c.042968-.042969.078124-.082031.121093-.125l.007813-.007812c.300781-.304688.59375-.613281.890625-.921875l.007812-.007813c.023438-.023437.050781-.054687.074219-.078125l.039062-.039062.03125-.035156.023438-.023438c.015625-.019531.03125-.035156.046875-.050781l.023437-.023438.035157-.039062.019531-.019531.050781-.054688.070313-.070312v-.003907c.804687-.851562 1.597656-1.714843 2.378906-2.597656.144531-.160156.28125-.320313.414062-.488281.148438-.152344.292969-.308594.433594-.46875 7.429688-8.710938 13.992188-18.121094 19.59375-28.101563.128906-.230469.257813-.457031.390625-.683593l.046875-.082032.015625-.03125.015625-.027344.007813-.015624.019531-.03125.007812-.015626.050782-.085937.003906-.011719c.054688-.09375.105469-.1875.160156-.28125l.003906-.007812.050782-.085938.003906-.015625.050781-.082031.007813-.019531.019531-.035157.003906-.003906.035157-.058594.015624-.035156.007813-.007812.019531-.039063.011719-.015625c.078125-.140625.15625-.28125.234375-.421875l.003906-.007812.03125-.054688.019532-.03125.007812-.019531.035156-.058594.007813-.011718.050781-.097657.003906-.007812.054688-.097657.003906-.003906c.046875-.085937.097656-.175781.144531-.261718l.019531-.035157.019532-.039062.011718-.015625.015626-.035156.011718-.015626.011719-.027343.019531-.035157.007813-.011718.019531-.035156.007812-.015626.027344-.042968v-.007813c.03125-.050781.058594-.101562.085938-.152343v-.003907l.03125-.050781v-.003906c.027344-.050782.054687-.101563.082031-.152344l.003906-.003906.027344-.046875v-.003907c.007813-.015624.019531-.03125.027344-.046874l.007812-.011719.042969-.085938.015625-.019531c.070313-.132812.144531-.269531.21875-.402344l.011719-.023437.019531-.035157.027344-.050781c.039062-.070312.074219-.136719.113281-.207031l.003906-.003906.019532-.039063.011718-.019531.011719-.023438.015625-.027343c.0625-.117188.128906-.238281.191406-.355469l.003906-.003906.023438-.042969.011719-.023437.015625-.027344.027344-.054688.007812-.011718.050781-.09375.003907-.003907c.015624-.035156.03125-.0625.046874-.09375l.007813-.015625.042969-.074218.027344-.050782c.070312-.128906.136718-.253906.203124-.382812l.007813-.011719c7.148437-13.332031 13.1875-27.226563 18.0625-41.546875h-.089844c-14.53125-.039062-19.953125-9.175781-21.976562-15.984375v-.003906l-.011719-.039063-.023438-.082031-.003906-.003906-.007812-.035157-.003906-.007812-.007813-.035156h-.003906l-.007813-.039063-.003906-.007812-.007812-.03125-.015626-.046875-.007812-.035156-.003906-.011719-.007813-.027344-.003906-.015625-.007813-.019531-.003906-.015625-.003906-.019532-.011719-.039062-.003906-.011719-.003906-.023437-.015625-.046875-.003906-.015625c-1.386719-5.050782-5.976563-8.558594-11.21875-8.566406zm0 0" fill="#004ed6"/><path d="m81.480469 349.070312h23.269531c6.425781 0 11.636719 5.210938 11.636719 11.636719s-5.210938 11.636719-11.636719 11.636719h-23.269531c-6.425781 0-11.636719-5.210938-11.636719-11.636719s5.210938-11.636719 11.636719-11.636719zm0 0" fill="#46a4f2"/><path d="m58.207031 395.613281h23.273438c6.425781 0 11.636719 5.210938 11.636719 11.636719s-5.210938 11.632812-11.636719 11.632812h-23.273438c-6.425781 0-11.632812-5.207031-11.632812-11.632812s5.207031-11.636719 11.632812-11.636719zm0 0" fill="#004ed6"/><path d="m34.9375 442.15625h46.542969c6.425781 0 11.632812 5.210938 11.632812 11.636719s-5.207031 11.632812-11.632812 11.632812h-46.542969c-6.425781 0-11.636719-5.207031-11.636719-11.632812s5.210938-11.636719 11.636719-11.636719zm0 0" fill="#004ed6"/><path d="m11.664062 302.527344h46.542969c6.425781 0 11.636719 5.210937 11.636719 11.636718 0 6.425782-5.210938 11.636719-11.636719 11.636719h-46.542969c-6.425781 0-11.632812-5.210937-11.632812-11.636719 0-6.425781 5.207031-11.636718 11.632812-11.636718zm0 0" fill="#46a4f2"/><path d="m46.574219 337.433594c0 6.429687-5.210938 11.636718-11.636719 11.636718s-11.636719-5.207031-11.636719-11.636718c0-6.425782 5.210938-11.632813 11.636719-11.632813s11.636719 5.207031 11.636719 11.632813zm0 0" fill="#46a4f2"/><path d="m46.574219 430.519531c0 6.425781-5.210938 11.636719-11.636719 11.636719s-11.636719-5.210938-11.636719-11.636719 5.210938-11.632812 11.636719-11.632812 11.636719 5.207031 11.636719 11.632812zm0 0" fill="#004ed6"/></svg>