<svg xmlns="http://www.w3.org/2000/svg" viewBox="0 0 512 512"><defs><style>.a{fill:#1a2486;}.b{fill:#1d2b9b;}.c{fill:#d5d5d5;}.d{fill:#131c65;}.e{fill:#e9e9e9;}.f{fill:#17237f;}.g{fill:#cbcbcb;}</style></defs><title>Artboard 101</title><path class="a" d="M373.72,42.3A118.07,118.07,0,0,1,393,96.9l1.08,11.82L387,234l19.26,124.92A719,719,0,0,1,381.88,512H323.14L294.22,310.93,301,266.35l-19.2-40.62-6.66-49.62A19.32,19.32,0,0,0,256,159.49L240.1,108.6l15.9-58Z"/><path class="b" d="M138.22,42.06A117.76,117.76,0,0,0,119,96.6l-1.08,11.88,7,125.23-19.2,124.86a715.73,715.73,0,0,0,24.31,153.19h58.8l28.92-201.07-6.84-44.64,19.26-40.56,6.66-49.62A19.23,19.23,0,0,1,256,159.25V50.4Z"/><path class="c" d="M372.58,114.6a59.75,59.75,0,0,0-41,56.89,43.42,43.42,0,0,1-21.78,37.56l-28,16.68,12.42,85.2,17.58-.36c14.1-.3,26.88,7.92,33.18,20.58a53.83,53.83,0,0,0,48.25,29.76l13,.12c4.44-84.42-3.78-176.82-12.12-252.55-7.5.84-14.41,3.72-21.49,6.12Z"/><path class="d" d="M256,167.89l-5.76-8.64,5.76-8.16c13.86,0,25.14-15,25.14-33.55-.24-13.26,16.8-13.56,16.8,0,0,27.79-18.78,50.35-41.94,50.35Z"/><path class="c" d="M256,50.64l125.88-.24c6.61-.24,8.41-3.72,8.41-8.4V8.4c.6-5.94-2.58-8.4-8.41-8.4L256,.06,243.7,25.62Z"/><path class="e" d="M139.42,114.6a59.83,59.83,0,0,1,41,56.89,43.37,43.37,0,0,0,21.72,37.56l28,16.68-12.48,85.2-17.58-.36c-14.1-.3-26.82,7.92-33.12,20.58a54,54,0,0,1-48.25,29.76l-13,.12c-4.44-84.42,3.78-176.82,12.12-252.55,7.44.84,14.41,3.72,21.49,6.12Z"/><path class="f" d="M256,167.89v-16.8c-13.86,0-25.2-15-25.2-33.55.24-13.26-16.74-13.56-16.8,0,0,27.79,18.84,50.35,42,50.35Z"/><path class="g" d="M394.07,108.48c-6,.66-11.65,2.64-17.29,4.62,8.17,74.77,15.91,165,11.65,247.57,1.56.12,3.18.24,4.8.24l13,.12c4.44-84.42-3.78-176.82-12.12-252.55ZM294.16,310.57l.06.36,4.74-.12a42.16,42.16,0,0,0-4.8-.24Z"/><path class="c" d="M117.93,108.48c6,.66,11.65,2.64,17.29,4.62-8.17,74.77-16,165-11.65,247.57a42.86,42.86,0,0,1-4.8.24l-13,.12c-4.44-84.42,3.78-176.82,12.12-252.55Zm99.85,202.09-.06.36-4.74-.12a42.86,42.86,0,0,1,4.8-.24Z"/><path class="g" d="M381.88,0H364.3c5.7.06,8.82,2.52,8.22,8.4V41.94c0,4.74-1.8,8.22-8.4,8.4h17.76c6.61-.18,8.41-3.66,8.41-8.4V8.4c.6-5.94-2.58-8.4-8.41-8.4Z"/><path class="e" d="M256,50.64,130.06,50.4c-6.61-.24-8.41-3.72-8.41-8.4V8.4c-.6-5.94,2.58-8.4,8.41-8.4L256,.06Z"/><path class="c" d="M130.06,0H147.7c-5.7.06-8.82,2.52-8.22,8.4V41.94c-.06,4.74,1.74,8.22,8.34,8.4H130.06c-6.61-.18-8.41-3.66-8.41-8.4V8.4c-.6-5.94,2.58-8.4,8.41-8.4Z"/></svg>