<?xml version="1.0" encoding="iso-8859-1"?>
<!-- Generator: Adobe Illustrator 19.0.0, SVG Export Plug-In . SVG Version: 6.00 Build 0)  -->
<svg version="1.1" id="Layer_1" xmlns="http://www.w3.org/2000/svg" xmlns:xlink="http://www.w3.org/1999/xlink" x="0px" y="0px"
	 viewBox="0 0 512 512" style="enable-background:new 0 0 512 512;" xml:space="preserve">
<path style="fill:#495577;" d="M477.243,158.361l-0.282-1.424c-2.721-13.784-14.81-23.72-28.86-23.72h-0.757
	c-14.05,0-26.14-9.936-28.86-23.721l-2.674-13.55c-2.719-13.784-14.809-23.72-28.859-23.72h-3.222
	c-16.246,0-29.416-13.17-29.416-29.416V29.416C354.313,13.17,341.143,0,324.895,0h-1.354c-16.246,0-29.416,13.17-29.416,29.416
	v13.392c0,16.247-13.17,29.417-29.417,29.417H246.74c-16.246,0-29.416-13.17-29.416-29.416V29.416
	C217.325,13.17,204.155,0,187.908,0h-1.355c-16.246,0-29.416,13.17-29.416,29.416v13.392c0.001,16.247-13.169,29.417-29.416,29.417
	h-2.482c-13.842,0-25.81,9.649-28.747,23.176l-3.178,14.639c-2.937,13.527-14.906,23.176-28.747,23.176h-0.479
	c-13.841,0-25.81,9.649-28.747,23.176l-0.132,0.61c-7.125,32.818,0.568,67.283,21.592,93.471
	c26.15,32.576,65.226,58.249,111.652,72.728v20.915c0,31.557,25.582,57.139,57.139,57.139h60.269
	c31.557,0,57.139-25.582,57.139-57.139v-20.919c46.77-14.585,86.078-40.529,112.229-73.446
	C475.653,224.039,483.603,190.578,477.243,158.361z"/>
<g>
	<circle style="fill:#2A324E;" cx="323.391" cy="78.305" r="9.629"/>
	<circle style="fill:#2A324E;" cx="187.029" cy="78.305" r="9.629"/>
	<path style="fill:#2A324E;" d="M210.258,266.834c-5.318,0-9.63-4.312-9.63-9.63v-90.683c0-5.318,4.312-9.63,9.63-9.63
		s9.63,4.312,9.63,9.63v90.683C219.888,262.522,215.576,266.834,210.258,266.834z"/>
	<path style="fill:#2A324E;" d="M301.743,266.834c-5.318,0-9.63-4.312-9.63-9.63v-90.683c0-5.318,4.312-9.63,9.63-9.63
		s9.63,4.312,9.63,9.63v90.683C311.374,262.522,307.062,266.834,301.743,266.834z"/>
	<path style="fill:#2A324E;" d="M406.716,512H133.782c-20.752,0-37.636-16.883-37.636-37.637v-0.566
		c0-20.752,16.883-37.636,37.636-37.636h93.938c10.132,0,18.375-8.245,18.375-18.377V377.78c0-5.318,4.312-9.63,9.63-9.63
		c5.318,0,9.63,4.312,9.63,9.63v40.006c0,20.753-16.883,37.637-37.636,37.637h-93.938c-10.132,0-18.375,8.243-18.375,18.375v0.566
		c0,10.132,8.243,18.377,18.375,18.377h272.934c5.318,0,9.63,4.312,9.63,9.63S412.034,512,406.716,512z"/>
</g>
<g>
</g>
<g>
</g>
<g>
</g>
<g>
</g>
<g>
</g>
<g>
</g>
<g>
</g>
<g>
</g>
<g>
</g>
<g>
</g>
<g>
</g>
<g>
</g>
<g>
</g>
<g>
</g>
<g>
</g>
</svg>
