<svg xmlns="http://www.w3.org/2000/svg" viewBox="0 0 512 512"><defs><style>.a{fill:#282828;}.b{fill:#323232;}.c{fill:#ffc808;}.d{fill:#232323;}.e{fill:#ffce21;}.f{fill:#2d2d2d;}.g{fill:#e4b923;}.h{fill:#e7c139;}</style></defs><title>Artboard 42</title><path class="a" d="M373.72,42.3A118.08,118.08,0,0,1,393,96.84l1.08,11.88L387,234l19.26,124.92A719,719,0,0,1,381.88,512H323.14L294.22,310.93,301,266.35l-19.2-40.62-6.66-49.62A19.32,19.32,0,0,0,256,159.49L240.1,108.6l15.9-58Z"/><path class="b" d="M138.22,42.06A117.53,117.53,0,0,0,119,96.6l-1.08,11.88,7,125.23-19.2,124.86a715.73,715.73,0,0,0,24.31,153.19h58.8l28.92-201.13-6.84-44.58,19.26-40.56,6.66-49.62A19.23,19.23,0,0,1,256,159.25V50.4Z"/><path class="c" d="M372.58,114.6a59.75,59.75,0,0,0-41,56.89A43.25,43.25,0,0,1,309.76,209l-28,16.74,12.42,85.2,17.58-.36A36.33,36.33,0,0,1,345,331.15a53.83,53.83,0,0,0,48.25,29.76l13,.12c4.44-84.42-3.78-176.82-12.12-252.55-7.5.84-14.41,3.72-21.49,6.12Z"/><path class="d" d="M256,167.89l-5.76-8.64,5.76-8.16c13.86,0,25.14-15,25.14-33.55-.24-13.26,16.8-13.56,16.8,0,0,27.79-18.78,50.35-41.94,50.35Z"/><path class="c" d="M256,50.64l125.88-.3c6.61-.18,8.41-3.66,8.41-8.34V8.4c.6-5.94-2.58-8.4-8.41-8.4L256,.06,243.7,25.62Z"/><path class="e" d="M139.42,114.6a59.83,59.83,0,0,1,41,56.89A43.2,43.2,0,0,0,202.18,209l28,16.74-12.48,85.2-17.58-.36c-14.1-.3-26.82,7.86-33.12,20.58a54,54,0,0,1-48.25,29.76l-13,.12c-4.44-84.42,3.78-176.82,12.12-252.55,7.44.84,14.41,3.72,21.49,6.12Z"/><path class="f" d="M256,167.89v-16.8c-13.86,0-25.2-15-25.2-33.55.24-13.26-16.74-13.56-16.8,0,0,27.79,18.84,50.35,42,50.35Z"/><path class="g" d="M394.07,108.48c-6,.66-11.65,2.64-17.29,4.62,8.17,74.77,15.91,165,11.65,247.57,1.56.12,3.18.24,4.8.24l13,.12c4.44-84.42-3.78-176.82-12.12-252.55ZM294.16,310.57l.06.36,4.74-.12a42.16,42.16,0,0,0-4.8-.24Z"/><path class="h" d="M117.93,108.48c6,.66,11.65,2.64,17.29,4.62-8.17,74.77-16,165-11.65,247.57-1.62.12-3.18.24-4.8.24l-13,.12c-4.44-84.42,3.78-176.82,12.12-252.55Zm99.85,202.09-.06.36-4.74-.12a42.86,42.86,0,0,1,4.8-.24Z"/><path class="g" d="M381.88,0H364.3c5.7.06,8.82,2.52,8.22,8.4V42c0,4.68-1.8,8.16-8.4,8.34h17.76c6.61-.18,8.41-3.66,8.41-8.34V8.4c.6-5.94-2.58-8.4-8.41-8.4Z"/><path class="e" d="M256,50.64l-125.94-.3c-6.61-.18-8.41-3.66-8.41-8.34V8.4c-.6-5.94,2.58-8.4,8.41-8.4L256,.06Z"/><path class="h" d="M130.06,0H147.7c-5.7.06-8.82,2.52-8.22,8.4V42c-.06,4.68,1.74,8.16,8.34,8.34H130.06c-6.61-.18-8.41-3.66-8.41-8.34V8.4c-.6-5.94,2.58-8.4,8.41-8.4Z"/></svg>