<svg xmlns="http://www.w3.org/2000/svg" viewBox="0 0 512 512"><defs><style>.a{fill:#1a2486;}.b{fill:#1d2b9b;}.c{fill:#ffc808;}.d{fill:#131c65;}.e{fill:#ffce21;}.f{fill:#17237f;}.g{fill:#e4b923;}.h{fill:#e7c139;}</style></defs><title>Artboard 102</title><path class="a" d="M373.71,42.3A118.13,118.13,0,0,1,393,96.89l1.08,11.82L387,233.92l19.26,124.91A720.73,720.73,0,0,1,381.87,512H323.13L294.22,310.9,301,266.32,281.8,225.7l-6.66-49.61A19.32,19.32,0,0,0,256,159.47l-15.9-50.88L256,50.64Z"/><path class="b" d="M138.23,42.06A117.82,117.82,0,0,0,119,96.59L118,108.47l7,125.21-19.2,124.85a716.26,716.26,0,0,0,24.3,153.17h58.8l28.91-201L210.94,266l19.26-40.56,6.66-49.61A19.23,19.23,0,0,1,256,159.23V50.4Z"/><path class="c" d="M372.57,114.59a59.74,59.74,0,0,0-41,56.88A43.42,43.42,0,0,1,309.76,209l-28,16.68,12.42,85.2,17.58-.36A36.42,36.42,0,0,1,345,331.11a53.82,53.82,0,0,0,48.24,29.76l13,.12c4.44-84.41-3.78-176.8-12.12-252.52-7.5.84-14.4,3.72-21.48,6.12Z"/><path class="d" d="M256,167.87l-5.76-8.64,5.76-8.16c13.86,0,25.14-15,25.14-33.54-.24-13.26,16.8-13.56,16.8,0,0,27.78-18.78,50.34-41.94,50.34Z"/><path class="c" d="M256,50.64l125.87-.24c6.6-.24,8.4-3.72,8.4-8.4V8.4c.6-5.94-2.58-8.4-8.4-8.4L256,.06,243.7,25.62Z"/><path class="e" d="M139.43,114.59a59.81,59.81,0,0,1,41,56.88A43.36,43.36,0,0,0,202.18,209l28,16.68-12.48,85.2-17.58-.36c-14.09-.3-26.81,7.91-33.11,20.57a54,54,0,0,1-48.24,29.76l-13,.12c-4.44-84.41,3.78-176.8,12.12-252.52,7.44.84,14.4,3.72,21.48,6.12Z"/><path class="f" d="M256,167.87v-16.8c-13.86,0-25.2-15-25.2-33.54.24-13.26-16.74-13.56-16.8,0,0,27.78,18.84,50.34,42,50.34Z"/><path class="g" d="M394.05,108.47c-6,.66-11.64,2.64-17.28,4.62,8.16,74.76,15.9,164.93,11.64,247.54a42.16,42.16,0,0,0,4.8.24l13,.12c4.44-84.41-3.78-176.8-12.12-252.52ZM294.16,310.54l.06.36,4.74-.12a42.16,42.16,0,0,0-4.8-.24Z"/><path class="h" d="M118,108.47c6,.66,11.64,2.64,17.28,4.62-8.16,74.76-16,164.93-11.64,247.54a42.86,42.86,0,0,1-4.8.24l-13,.12c-4.44-84.41,3.78-176.8,12.12-252.52Zm99.83,202.07-.06.36-4.74-.12a42.86,42.86,0,0,1,4.8-.24Z"/><path class="g" d="M381.87,0H364.29c5.7.06,8.82,2.52,8.22,8.4V41.94c0,4.74-1.8,8.22-8.4,8.4h17.76c6.6-.18,8.4-3.66,8.4-8.4V8.4c.6-5.94-2.58-8.4-8.4-8.4Z"/><path class="e" d="M256,50.64,130.07,50.4c-6.6-.24-8.4-3.72-8.4-8.4V8.4c-.6-5.94,2.58-8.4,8.4-8.4L256,.06Z"/><path class="h" d="M130.07,0h17.64c-5.7.06-8.82,2.52-8.22,8.4V41.94c-.06,4.74,1.74,8.22,8.34,8.4H130.07c-6.6-.18-8.4-3.66-8.4-8.4V8.4c-.6-5.94,2.58-8.4,8.4-8.4Z"/></svg>