<svg xmlns="http://www.w3.org/2000/svg" viewBox="0 0 512 513" width="512" height="513">
	<style>
		tspan { white-space:pre }
		.shp0 { fill: #b35f49 } 
		.shp1 { fill: #99503d } 
	</style>
	<path id="Layer" class="shp0" d="M507.78 135.92L135.24 508.74C129.89 514.09 120.89 514.09 115.26 508.74C109.91 503.11 109.91 494.11 115.26 488.76L488.08 116.22C493.42 110.59 502.43 110.59 507.78 116.22C513.41 121.57 513.41 130.58 507.78 135.92L507.78 135.92Z" />
	<path id="Layer" class="shp1" d="M507.78 135.92L135.24 508.74C129.89 514.09 120.89 514.09 115.26 508.74L507.78 116.22C513.41 121.57 513.41 130.58 507.78 135.92L507.78 135.92Z" />
	<path id="Layer copy 7" class="shp0" d="M396.78 23.92L24.24 396.74C18.89 402.09 9.89 402.09 4.26 396.74C-1.09 391.11 -1.09 382.11 4.26 376.76L377.08 4.22C382.42 -1.41 391.43 -1.41 396.78 4.22C402.41 9.57 402.41 18.58 396.78 23.92L396.78 23.92Z" />
	<path id="Layer copy 8" class="shp1" d="M396.78 23.92L24.24 396.74C18.89 402.09 9.89 402.09 4.26 396.74L396.78 4.22C402.41 9.57 402.41 18.58 396.78 23.92L396.78 23.92Z" />
	<path id="Layer copy 9" class="shp0" d="M452.78 79.92L80.24 452.74C74.89 458.09 65.89 458.09 60.26 452.74C54.91 447.11 54.91 438.11 60.26 432.76L433.08 60.22C438.42 54.59 447.43 54.59 452.78 60.22C458.41 65.57 458.41 74.58 452.78 79.92L452.78 79.92Z" />
	<path id="Layer copy 10" class="shp1" d="M452.78 79.92L80.24 452.74C74.89 458.09 65.89 458.09 60.26 452.74L452.78 60.22C458.41 65.57 458.41 74.58 452.78 79.92L452.78 79.92Z" />
</svg>