<svg xmlns="http://www.w3.org/2000/svg" viewBox="0 0 512 513" width="512" height="513">
	<style>
		tspan { white-space:pre }
		.shp0 { fill: #ff6c6c } 
		.shp1 { fill: #ff4949 } 
		.shp2 { fill: #b35f49 } 
		.shp3 { fill: #99503d } 
	</style>
	<path id="Layer" class="shp0" d="M269.85 438.39L251.07 381.51C250.26 379.64 249.2 377.76 247.86 376.14C246.24 374.8 244.36 373.74 242.49 372.93L185.61 354.15C180.78 352.54 175.41 353.61 171.93 357.37L115.05 414.24C107.81 421.22 110.76 433.29 120.15 436.51L170.85 453.15L187.49 503.85C190.71 513.24 202.78 516.19 209.76 508.96L266.64 452.08C270.39 448.59 271.46 443.22 269.85 438.39L269.85 438.39Z" />
	<path id="Layer" class="shp0" d="M269.85 438.39C271.46 443.22 270.39 448.59 266.63 452.08L209.76 508.95C202.78 516.19 190.71 513.24 187.49 503.85L170.85 453.15L247.86 376.14C249.19 377.76 250.26 379.64 251.07 381.51L269.85 438.39Z" />
	<path id="Layer" class="shp1" d="M269.85 438.39C271.46 443.22 270.39 448.59 266.63 452.08L209.76 508.95C202.78 516.19 190.71 513.24 187.49 503.85L170.85 453.15L247.86 376.14C249.19 377.76 250.26 379.64 251.07 381.51L269.85 438.39Z" />
	<path id="Layer" class="shp2" d="M507.98 134.8L152.87 490.18C147.78 495.27 139.19 495.27 133.82 490.18C128.73 484.81 128.73 476.22 133.82 471.13L489.2 116.02C494.29 110.66 502.88 110.66 507.98 116.02C513.34 121.12 513.34 129.71 507.98 134.8L507.98 134.8Z" />
	<path id="Layer" class="shp3" d="M507.98 134.8L152.87 490.18C147.78 495.27 139.19 495.27 133.82 490.18L507.98 116.02C513.34 121.12 513.34 129.71 507.98 134.8L507.98 134.8Z" />
	<path id="Layer copy 7" class="shp0" d="M242.15 74.96L260.94 131.84C261.74 133.71 262.81 135.59 264.15 137.21C265.77 138.55 267.64 139.62 269.51 140.42L326.4 159.2C331.23 160.81 336.59 159.74 340.08 155.98L396.95 99.11C404.2 92.13 401.25 80.06 391.86 76.84L341.15 60.2L324.52 9.5C321.3 0.11 309.22 -2.84 302.25 4.39L245.36 61.28C241.62 64.77 240.54 70.13 242.15 74.96L242.15 74.96Z" />
	<path id="Layer copy 8" class="shp0" d="M242.15 74.96C240.54 70.13 241.62 64.77 245.37 61.28L302.25 4.4C309.22 -2.84 321.3 0.11 324.52 9.5L341.15 60.2L264.15 137.21C262.81 135.59 261.74 133.71 260.94 131.84L242.15 74.96Z" />
	<path id="Layer copy 9" class="shp1" d="M242.15 74.96C240.54 70.13 241.62 64.77 245.37 61.28L302.25 4.4C309.22 -2.84 321.3 0.11 324.52 9.5L341.15 60.2L264.15 137.21C262.81 135.59 261.74 133.71 260.94 131.84L242.15 74.96Z" />
	<path id="Layer copy 10" class="shp2" d="M4.02 378.56L359.13 23.18C364.23 18.08 372.81 18.08 378.18 23.18C383.28 28.54 383.28 37.13 378.18 42.23L22.8 397.33C17.71 402.7 9.12 402.7 4.02 397.33C-1.34 392.23 -1.34 383.65 4.02 378.56L4.02 378.56Z" />
	<path id="Layer copy 11" class="shp3" d="M4.02 378.56L359.13 23.18C364.23 18.08 372.81 18.08 378.18 23.18L4.02 397.33C-1.34 392.23 -1.34 383.65 4.02 378.56L4.02 378.56Z" />
</svg>