<?xml version="1.0" encoding="iso-8859-1"?>
<!-- Generator: Adobe Illustrator 19.0.0, SVG Export Plug-In . SVG Version: 6.00 Build 0)  -->
<svg version="1.1" id="Layer_1" xmlns="http://www.w3.org/2000/svg" xmlns:xlink="http://www.w3.org/1999/xlink" x="0px" y="0px"
	 viewBox="0 0 511.999 511.999" style="enable-background:new 0 0 511.999 511.999;" xml:space="preserve">
<path style="fill:#967659;" d="M39.083,483.91c-2.942,0-5.672-1.105-7.697-3.16c-2.444-2.484-3.496-5.998-2.888-9.644l7.469-44.738
	c0.714-4.27,4.756-7.156,9.022-6.441c4.269,0.714,7.153,4.752,6.44,9.022l-6.384,38.244l37.683-6.279
	c4.272-0.715,8.307,2.173,9.019,6.444c0.712,4.269-2.172,8.307-6.443,9.019l-44.228,7.37
	C40.405,483.856,39.738,483.91,39.083,483.91z"/>
<path style="fill:#FFF297;" d="M338.933,283.316c22.872-15.857,46.362-35.43,69.05-58.119
	c84.494-84.499,125.862-180.127,92.399-213.591c-33.463-33.465-129.088,7.904-213.581,92.404
	c-22.686,22.689-42.26,46.177-58.114,69.053v21.846c0,5.893-4.819,10.712-10.712,10.712h-19.721
	c-6.211,5.598-12.392,11.453-18.507,17.569c-76.046,76.048-113.279,162.113-83.161,192.232
	c30.117,30.117,116.178-7.115,192.224-83.166c6.117-6.117,11.971-12.296,17.569-18.509v-19.721c0-5.893,4.819-10.711,10.711-10.711
	h21.845V283.316z"/>
<path style="fill:#F9BD6E;" d="M148.805,374.641c-2.928-0.048-5.594-1.289-7.543-3.26c-1.949-1.971-3.175-4.665-3.224-7.632
	l-1.477-91.029C90.86,333.497,72.91,391.746,96.584,415.423c23.557,23.557,81.342,5.907,141.787-39.291L148.805,374.641z"/>
<path style="fill:#FFD655;" d="M362.091,163.577c-3.499-0.053-6.687-1.541-9.016-3.895c-2.33-2.355-3.796-5.578-3.853-9.121
	l-1.605-98.82c-20.249,14.734-40.844,32.295-60.817,52.269c-3.762,3.764-7.431,7.548-11.016,11.349L277.5,220.94
	c0.063,3.929,1.688,7.502,4.269,10.113s6.118,4.259,9.997,4.319l103.933,1.73c4.116-3.865,8.212-7.833,12.285-11.906
	c19.701-19.703,37.057-40.011,51.665-59.995L362.091,163.577z"/>
<path style="fill:#FF8828;" d="M395.699,237.101l-103.934-1.73c-3.879-0.06-7.416-1.708-9.997-4.319
	c-2.582-2.61-4.207-6.184-4.269-10.113l-1.716-105.584c-18.05,19.116-33.874,38.625-47.098,57.707v21.846
	c0,5.893-4.819,10.712-10.712,10.712h-19.721c-2.086,1.879-4.165,3.797-6.243,5.734l1.519,93.558
	c0.063,3.929,1.688,7.502,4.271,10.114c2.582,2.609,6.118,4.257,9.995,4.319l92.018,1.531c2.221-2.371,4.417-4.746,6.563-7.127
	v-19.721c0-5.893,4.819-10.711,10.711-10.711h21.846C357.701,270.305,376.884,254.786,395.699,237.101z"/>
<path style="opacity:0.1;enable-background:new    ;" d="M197.051,240.357c6.114-6.116,12.296-11.972,18.507-17.568h19.721
	c5.893,0,10.712-4.819,10.712-10.712V190.23c15.854-22.874,35.428-46.363,58.114-69.053c77.02-77.025,163.28-118.2,203.284-99.537
	c-1.794-3.774-4.115-7.142-7.007-10.034c-33.463-33.465-129.088,7.904-213.581,92.405c-22.686,22.689-42.26,46.177-58.114,69.053
	v21.846c0,5.893-4.819,10.712-10.712,10.712h-19.721c-6.211,5.598-12.392,11.453-18.507,17.569
	c-76.046,76.048-113.279,162.113-83.161,192.232c2.962,2.961,6.471,5.262,10.452,6.949
	C91.321,385.962,128.338,309.074,197.051,240.357z"/>
<g>
	<path style="fill:#F9BD6E;" d="M272.002,119.406c-0.083,0.09-0.166,0.179-0.249,0.267v0.004
		C271.837,119.587,271.919,119.496,272.002,119.406z"/>
	<path style="fill:#F9BD6E;" d="M274.197,117.053c0.501-0.534,0.996-1.067,1.499-1.601
		C275.192,115.985,274.696,116.519,274.197,117.053z"/>
	<path style="fill:#F9BD6E;" d="M391.405,241.067l0.029,0.001c1.419-1.305,2.835-2.623,4.249-3.951
		C394.26,238.455,392.831,239.754,391.405,241.067z"/>
</g>
<path style="fill:#B59472;" d="M427.927,84.068c-3.062-3.063-8.024-3.061-11.082,0L104.101,396.823l-17.667-17.669l-12.935,48.271
	L2.308,498.62c-3.062,3.062-3.062,8.024,0,11.083c1.531,1.532,3.537,2.297,5.542,2.297c2.006,0,4.012-0.765,5.543-2.296
	l71.194-71.196l48.263-12.934l-17.665-17.666L427.929,95.153C430.99,92.092,430.99,87.128,427.927,84.068z"/>
<g>
</g>
<g>
</g>
<g>
</g>
<g>
</g>
<g>
</g>
<g>
</g>
<g>
</g>
<g>
</g>
<g>
</g>
<g>
</g>
<g>
</g>
<g>
</g>
<g>
</g>
<g>
</g>
<g>
</g>
</svg>
