<svg xmlns="http://www.w3.org/2000/svg" viewBox="0 0 512 511" width="512" height="511">
	<style>
		tspan { white-space:pre }
		.shp0 { fill: #c3701b } 
		.shp1 { fill: #a9621a } 
		.shp2 { fill: #f9993e } 
		.shp3 { fill: #e58d39 } 
		.shp4 { fill: #d3792f } 
	</style>
	<path id="Layer" class="shp0" d="M199.4 35.66L113.82 35.66C79.16 35.66 45.48 24.23 17.97 3.15L17.53 2.81C13.09 -0.59 7.01 -0.18 3.17 3.66C-1.06 7.88 -1.06 14.74 3.17 18.96L8.13 23.93C37.68 53.47 77.75 70.07 119.53 70.07L194.29 70.07C201.68 70.07 208.77 73.01 214 78.23L434.25 298.48C439.48 303.71 442.42 310.8 442.42 318.2L442.42 392.96C442.42 434.74 459.02 474.81 488.56 504.36L493.52 509.32C497.75 513.54 504.6 513.54 508.83 509.32C512.67 505.48 513.07 499.39 509.77 495.08L509.33 494.51C488.25 467.01 476.83 433.32 476.83 398.67L476.83 313.09C476.83 299.84 471.56 287.13 462.2 277.77L348.46 164.03L234.72 50.29C225.36 40.92 212.65 35.66 199.4 35.66L199.4 35.66Z" />
	<path id="Layer" class="shp1" d="M507.4 495.44L502.44 490.48C472.89 460.93 456.3 420.86 456.3 379.07L456.3 304.31C456.3 296.92 453.36 289.83 448.13 284.6L338.01 174.48L227.88 64.36C222.66 59.13 215.57 56.19 208.17 56.19L133.41 56.19C91.63 56.19 51.55 39.59 22.01 10.05L17.05 5.09C15.91 3.95 15.09 2.61 14.56 1.18C10.64 -0.26 6.21 0.62 3.17 3.66C-1.06 7.88 -1.06 14.74 3.17 18.96L8.13 23.93C37.68 53.47 77.75 70.07 119.53 70.07L194.29 70.07C201.68 70.07 208.77 73.01 214 78.23L434.25 298.48C439.48 303.71 442.42 310.8 442.42 318.2L442.42 392.96C442.42 434.74 459.02 474.81 488.56 504.36L493.52 509.32C497.75 513.54 504.6 513.54 508.83 509.32C511.88 506.27 512.75 501.8 511.33 497.94C509.9 497.41 508.55 496.59 507.4 495.44Z" />
	<path id="Layer" class="shp2" d="M400.14 215.05L375.16 240.04C371.71 243.49 366.11 243.49 362.66 240.04L272.45 149.82C269 146.37 269 140.78 272.45 137.33L297.43 112.34C300.88 108.89 306.47 108.89 309.92 112.34L400.14 202.56C403.59 206.02 403.59 211.61 400.14 215.05Z" />
	<path id="Layer" class="shp3" d="M376.54 226.16L286.32 135.94C282.88 132.49 282.88 126.9 286.32 123.45L272.45 137.33C269 140.78 269 146.37 272.45 149.82L362.66 240.04C366.11 243.49 371.71 243.49 375.16 240.04L389.04 226.16C385.59 229.61 380 229.61 376.54 226.16Z" />
	<g id="Layer">
		<path id="Layer" class="shp4" d="M400.93 203.48L346.78 224.16L334.82 212.2L389.05 191.47L400.14 202.56C400.43 202.85 400.7 203.16 400.93 203.48Z" />
		<path id="Layer" class="shp4" d="M369.39 171.81L315.16 192.54L303.19 180.57L357.42 159.85L369.39 171.81Z" />
		<path id="Layer" class="shp4" d="M337.77 140.2L283.54 160.91L272.44 149.82C272.15 149.53 271.89 149.23 271.66 148.91L325.79 128.23L337.77 140.2Z" />
	</g>
</svg>