<svg height="511pt" viewBox="0 0 511.99794 511" width="511pt" xmlns="http://www.w3.org/2000/svg"><path d="m471.222656 74.367188c9.070313-14.730469 17.894532-28.96875 28.660156-40.863282l.125-.296875c7.242188-8 6.644532-20.371093-1.335937-27.632812s-20.324219-6.660157-27.566406 1.339843l-.871094 1.117188c-10.828125 13.011719-20.796875 27.074219-29.957031 41.699219 15.058594 7.375 30.945312 24.636719 30.945312 24.636719zm0 0" fill="#c28a46"/><path d="m507.941406 137.019531c-6.105468-22.796875-18.835937-44.457031-36.71875-62.652343 0 0-15.886718-17.261719-30.945312-24.636719-20.816406-12.703125-43.792969-20.042969-66.402344-21-34.074219-1.445313-65.277344 11.269531-90.222656 36.789062-23.980469 24.519531-36.8125 55.15625-39.234375 93.664063-1.285157 20.402344.417969 41.503906 3.164062 62.570312 18.261719-2.789062 38.324219-8.332031 38.324219-8.332031-5.808594-46.609375-5.007812-89.179687 25.667969-120.546875 17.230469-17.605469 37.628906-26.046875 60.644531-25.070312 16.132812.683593 32.746094 6.09375 48.003906 15.484374-.003906.007813-.011718.015626-.015625.023438 2.976563 1.964844 18.695313 12.644531 29.984375 26.136719 22.035156 26.890625 32.554688 63.980469 10.257813 96.839843-30.125 44.394532-75.035157 57.800782-131.894531 74.777344-10.105469 3.015625-20.519532 6.125-31.226563 9.515625-1.613281-12.746093-3.632813-25.480469-5.632813-38.070312 38.882813-11.097657 68.191407-29.8125 91.757813-52.289063 28.378906-27.0625 48.417969-59.578125 66.738281-90.773437-11.289062-13.492188-27.003906-24.171875-29.984375-26.136719-32.449219 55.5-63.832031 108.042969-134.296875 130.109375 0 0-20.0625 5.542969-38.328125 8.332031-27.648437 3.886719-50.765625 5.628906-71.242187 7.175782-56.707032 4.277343-94.171875 7.105468-131.097656 51.015624-22.609376 26.882813-30.246094 69.015626-19.9375 109.960938 4.527343 17.976562 11.957031 34.34375 21.804687 48.53125l29.878906-25.703125c-6.113281-9.589844-10.800781-20.492187-13.796875-32.386719-7.292968-28.964844-2.71875-57.785156 11.941406-75.214844 26.351563-31.332031 50.730469-33.171874 104.140626-37.203124 21.167968-1.597657 45.074218-3.402344 74.113281-7.5.007812.039062.011719.078124.019531.117187 21.90625-2.902344 38.757812-8.21875 38.757812-8.21875s-16.851562 5.316406-38.757812 8.21875c2.335938 14.703125 4.585938 29.070313 6.136719 43.003906 2.445312 12.414063 1.828125 41.164063 1.828125 41.164063s.617187-28.75-1.828125-41.164063c-24.972657 9.390625-51.265625 21.160157-78.695313 37.292969-37.539062 22.082031-72.085937 45.976562-103.859375 71.890625l-29.878906 25.703125c-2.804687 3.144531-24.398437 20.78125-42.175781 40.984375l.128906.035156c-7.242188 8-6.644531 20.371094 1.339844 27.632813 7.980468 7.261718 20.320312 6.660156 27.566406-1.339844l-1.25 1.339844c21.242188-22.703125 38.199219-36.828125 41.113281-40.078125-.015625.015625-.039062.035156-.039062.035156s.023437-.019531.039062-.035156l.019531-.019531c1.195313-1.0625 20.664063-18.449219 30.671876-26.25-10.007813 7.800781-29.476563 25.1875-30.671876 26.25 9.730469 7.695312 20.5625 13.984374 32.304688 18.640624 54.703125 21.6875 95.652344 8.753907 120.371094-5.914062 38.753906-22.992188 66.5625-67.46875 72.585937-116.0625 1.34375-10.847656 1.742188-21.890625 1.476563-33.03125.015625-.007812.03125-.011719.046875-.015625-.058594-1.402344-1.257813-29.320313-3.289063-40.007813 2.03125 10.6875 3.230469 38.605469 3.289063 40.007813 13.480469-4.421875 26.535156-8.316406 39.085937-12.066406 49.527344-14.785157 93.640625-27.957031 128.738282-61.429688 8.667968-8.269531 16.792968-17.777343 24.308593-28.851562 18.578125-27.378907 23.824219-58.929688 15.171875-91.242188zm-247.605468 221.820313c-4.496094 36.292968-25.589844 70.535156-53.734376 87.238281-25.011718 14.839844-53.96875 15.914063-86.058593 3.191406-5.691407-2.257812-11.085938-5.078125-16.136719-8.414062 29.496094-23.828125 61.519531-45.871094 96.238281-66.292969 20.8125-12.242188 41.15625-21.835938 60.8125-29.761719-.183593 4.75-.546875 9.433594-1.121093 14.039063zm0 0" fill="#c28a46"/><g fill="#ad7b3e"><path d="m498.671875 5.574219c-7.980469-7.261719-20.324219-6.660157-27.566406 1.339843l-.871094 1.117188c-.605469.726562-1.199219 1.46875-1.796875 2.203125 11.109375 13.277344-1.253906 26.671875-15.675781 47.273437 8.242187 6.179688 18.460937 16.859376 18.460937 16.859376 9.070313-14.730469 17.894532-28.96875 28.660156-40.863282l.125-.292968c7.242188-8.003907 6.644532-20.375-1.335937-27.636719zm0 0"/><path d="m291.691406 252.511719c38.886719-11.097657 68.195313-29.8125 91.761719-52.289063 19.851563-18.933594 48.707031-56.179687 67.25-90.175781-4.121094-6.179687-15.453125-16.480469-15.453125-16.480469-18.320312 31.191406-42.238281 78.292969-85.503906 109.199219-26.5 18.925781-91.6875 47.386719-176.160156 64.898437 54.597656 0 95.804687-10.300781 118.105468-15.152343zm0 0"/><path d="m104.40625 440.855469c29.496094-23.828125 61.453125-45.988281 96.238281-66.292969 17.238281-10.0625 52.339844-25.636719 60.726563-29.847656.089844-.628906.183594-1.261719.261718-1.894532.570313-4.605468.359376-12.714843.546876-17.464843-19.660157 7.925781-74.722657 36.964843-95.53125 49.207031-34.71875 20.421875-50.105469 28.953125-79.601563 52.78125 5.152344 5.152344 10.304687 9.269531 17.359375 13.511719zm0 0"/><path d="m56.144531 452.066406c-.003906 0-16.484375 17.515625-16.484375 17.515625-.003906.003907 16.488282-17.519531 16.484375-17.515625-2.726562 3.039063-50.324219 54.445313-49.746093 55.023438 7.628906 7.628906 20.324218 6.660156 27.566406-1.339844l-1.246094 1.339844c10.5-11.21875 34.742188-33.847656 41.96875-40.597656-8.242188-5.152344-13.394531-10.304688-18.542969-14.425782zm0 0"/></g></svg>