<svg viewBox="-30 1 511 511.99938" xmlns="http://www.w3.org/2000/svg"><path d="m36.542969 467.191406c2.703125 3.777344 7.667969 5.234375 11.972656 3.472656 17.847656-7.300781 37.386719-11.320312 57.863281-11.320312 44.035156 0 83.71875 18.574219 111.617188 48.308594 5.4375 5.796875 14.742187 5.796875 20.179687 0 27.910157-29.730469 67.59375-48.308594 111.628907-48.308594 18.921874 0 37.039062 3.433594 53.761718 9.714844 4.84375 1.820312 10.332032.175781 13.296875-4.058594 14.269531-20.363281 26.171875-43.050781 35.210938-67.5 1.585937-4.285156.472656-9.148438-2.902344-12.234375-30.539063-27.898437-49.6875-68.019531-49.6875-112.613281 0-41.078125 16.253906-78.375 42.695313-105.796875 3.242187-3.359375 4.210937-8.316407 2.304687-12.582031-14.097656-31.570313-33.125-59.703126-55.917969-83.003907-3.175781-3.25-8.011718-4.375-12.257812-2.738281-8.222656 3.167969-17.15625 4.910156-26.503906 4.910156-36.117188 0-66.164063-25.964844-72.402344-60.21875-.816406-4.484375-4.332032-8.03125-8.804688-8.941406-13.863281-2.8125-28.125-4.28125-42.679687-4.28125-12.894531 0-25.5625 1.152344-37.921875 3.371094-4.644532.835937-8.300782 4.503906-9.097656 9.148437-5.945313 34.597657-36.152344 60.925781-72.519532 60.925781-10.292968 0-20.097656-2.109374-28.992187-5.929687-4.339844-1.863281-9.382813-1.023437-12.707031 2.324219-22.410157 22.578125-41.253907 49.785156-55.445313 80.332031-2.019531 4.347656-1.070313 9.523437 2.382813 12.855469 28.6875 27.722656 46.523437 66.597656 46.523437 109.628906 0 46.515625-20.84375 88.179688-53.726563 116.164062-3.632812 3.09375-4.867187 8.179688-3.152343 12.625 9.175781 23.820313 21.089843 45.914063 35.28125 65.746094zm0 0" fill="#c35d1d"/><path d="m449.171875 385.269531c-30.539063-27.898437-49.6875-68.023437-49.6875-112.613281 0-41.078125 16.253906-78.378906 42.699219-105.796875 3.242187-3.363281 4.207031-8.320313 2.304687-12.582031-14.101562-31.574219-33.128906-59.703125-55.921875-83.007813-3.175781-3.25-8.011718-4.375-12.257812-2.738281-8.222656 3.171875-17.15625 4.914062-26.503906 4.914062-20.695313 0-39.386719-8.539062-52.757813-22.261718 13.824219 44.085937 21.28125 90.984375 21.28125 139.625 0 116.394531-42.675781 222.835937-113.257813 304.589844 4.539063 3.835937 8.859376 7.921874 12.925782 12.253906 5.4375 5.796875 14.742187 5.796875 20.179687 0 27.910157-29.730469 67.59375-48.308594 111.628907-48.308594 18.921874 0 37.039062 3.433594 53.761718 9.714844 4.847656 1.820312 10.332032.175781 13.296875-4.054688 14.273438-20.367187 26.175781-43.050781 35.214844-67.5 1.585937-4.289062.472656-9.152344-2.90625-12.234375zm0 0" fill="#bc5214"/><path d="m228.085938 480.445312c-1.890626 0-3.789063-.65625-5.328126-1.988281-1.816406-1.574219-3.695312-3.132812-5.578124-4.632812-3.511719-2.800781-4.085938-7.910157-1.285157-11.414063 2.804688-3.503906 7.921875-4.082031 11.433594-1.28125.253906.199219.507813.402344.761719.609375 1.246094-1.003906 2.503906-1.992187 3.757812-2.953125 3.566406-2.726562 8.671875-2.050781 11.40625 1.503906 2.730469 3.5625 2.058594 8.65625-1.507812 11.386719-1.90625 1.457031-3.8125 2.980469-5.671875 4.523438-.460938.382812-.949219.707031-1.457031.972656-.125.160156-.25.320313-.386719.476563-1.605469 1.847656-3.871094 2.796874-6.144531 2.796874zm-28.183594-20.132812c-1.394532 0-2.800782-.359375-4.089844-1.109375-2.078125-1.210937-4.214844-2.394531-6.34375-3.519531-3.972656-2.101563-5.484375-7.015625-3.378906-10.980469 2.101562-3.960937 7.019531-5.472656 10.996094-3.371094 2.324218 1.230469 4.652343 2.523438 6.921874 3.84375 3.878907 2.257813 5.191407 7.230469 2.929688 11.101563-1.511719 2.589844-4.238281 4.035156-7.035156 4.035156zm59.542968-1.800781c-2.851562 0-5.621093-1.5-7.109374-4.167969-2.1875-3.914062-.78125-8.859375 3.140624-11.046875 2.28125-1.269531 4.632813-2.515625 7-3.707031 4.007813-2.023438 8.902344-.417969 10.925782 3.585937 2.027344 4 .417968 8.886719-3.59375 10.90625-2.164063 1.09375-4.320313 2.234375-6.410156 3.398438-1.25.699219-2.609376 1.03125-3.953126 1.03125zm-90.964843-12.78125c-.90625 0-1.828125-.152344-2.726563-.472657-2.277344-.808593-4.597656-1.578124-6.890625-2.289062-4.289062-1.332031-6.683593-5.882812-5.351562-10.164062s5.886719-6.675782 10.183593-5.34375c2.5.773437 5.03125 1.617187 7.515626 2.5 4.230468 1.503906 6.441406 6.148437 4.933593 10.371093-1.1875 3.324219-4.320312 5.398438-7.664062 5.398438zm122.664062-1.183594c-3.402343 0-6.578125-2.148437-7.714843-5.550781-1.421876-4.253906.878906-8.851563 5.140624-10.273438 2.511719-.835937 5.054688-1.628906 7.558594-2.351562 4.320313-1.242188 8.828125 1.230468 10.078125 5.539062s-1.234375 8.8125-5.550781 10.058594c-2.296875.664062-4.628906 1.390625-6.933594 2.160156-.855468.28125-1.722656.417969-2.578125.417969zm107.582031-3.039063c-.710937 0-1.429687-.09375-2.144531-.289062-1.5625-.425781-3.132812-.832031-4.703125-1.214844-4.363281-1.066406-7.039062-5.457031-5.976562-9.816406 1.066406-4.355469 5.472656-7.023438 9.832031-5.960938.046875.011719.09375.019532.140625.035157 2.484375-1.472657 5.679688-1.570313 8.332031.015625 3.855469 2.304687 5.105469 7.289062 2.800781 11.136718-.445312.742188-.894531 1.480469-1.347656 2.21875-1.503906 2.449219-4.152344 3.875-6.933594 3.875zm-340.179687-.304687c-3.597656 0-6.882813-2.394531-7.855469-6.023437-1.160156-4.332032 1.417969-8.785157 5.757813-9.941407 2.53125-.675781 5.121093-1.3125 7.703125-1.886719 4.378906-.972656 8.734375 1.78125 9.710937 6.160157.976563 4.375-1.785156 8.714843-6.171875 9.691406-2.359375.527344-4.726562 1.105469-7.042968 1.722656-.703126.1875-1.410157.277344-2.101563.277344zm76.355469-3.996094c-.417969 0-.839844-.03125-1.269532-.097656-2.382812-.375-4.800781-.703125-7.191406-.976563-4.460937-.511718-7.664062-4.539062-7.148437-8.996093.511719-4.453125 4.542969-7.648438 9.007812-7.140625 2.609375.300781 5.253907.660156 7.855469 1.066406 4.4375.695312 7.472656 4.851562 6.773438 9.28125-.628907 4.003906-4.089844 6.863281-8.027344 6.863281zm189.980468-.527343c-4.003906 0-7.492187-2.953126-8.050781-7.023438-.609375-4.441406 2.507813-8.539062 6.957031-9.144531 2.601563-.355469 5.253907-.664063 7.875-.910157 4.484376-.421874 8.445313 2.851563 8.867188 7.316407.425781 4.464843-2.855469 8.425781-7.328125 8.851562-2.398437.226563-4.824219.507813-7.207031.832031-.375.050782-.746094.078126-1.113282.078126zm42.214844-.902344c-.25 0-.503906-.011719-.757812-.039063-2.402344-.21875-4.835938-.394531-7.238282-.519531-4.488281-.230469-7.9375-4.046875-7.707031-8.527344.230469-4.476562 4.027344-7.929687 8.542969-7.691406 2.621094.136719 5.28125.328125 7.902344.570312 4.472656.414063 7.765625 4.367188 7.347656 8.832032-.390625 4.210937-3.933594 7.375-8.089844 7.375zm-274.378906-.300782c-4.226562 0-7.796875-3.261718-8.105469-7.535156-.324219-4.472656 3.042969-8.363281 7.523438-8.683594 2.621093-.191406 5.285156-.328124 7.90625-.414062 4.503906-.132812 8.25 3.375 8.394531 7.855469s-3.378906 8.234375-7.871094 8.375c-2.40625.078125-4.847656.207031-7.253906.378906-.199219.015625-.398438.023437-.59375.023437zm-49.789062-12.191406c-2.96875 0-5.824219-1.628906-7.257813-4.449218-1.167969-2.292969-2.328125-4.652344-3.441406-7.007813-1.921875-4.054687-.183594-8.894531 3.878906-10.8125 4.058594-1.917969 8.910156-.183594 10.828125 3.871094 1.050781 2.21875 2.140625 4.441406 3.238281 6.601562 2.035157 4 .433594 8.886719-3.570312 10.914063-1.179688.597656-2.4375.882812-3.675781.882812zm369.804687-7.816406c-1.152344 0-2.328125-.246094-3.441406-.765625-4.066407-1.902344-5.824219-6.734375-3.921875-10.796875 1.023437-2.183594 2.042968-4.441406 3.023437-6.703125 1.789063-4.113281 6.578125-6 10.703125-4.214844 4.121094 1.785157 6.011719 6.566407 4.222656 10.679688-1.042968 2.402343-2.125 4.796875-3.210937 7.117187-1.382813 2.949219-4.316406 4.683594-7.375 4.683594zm-361.75-20.234375c-1.761719 0-3.535156-.566406-5.027344-1.738281-3.527343-2.773438-4.136719-7.878906-1.359375-11.402344 1.492188-1.890625 2.960938-3.835938 4.375-5.785156 2.632813-3.632813 7.71875-4.449219 11.359375-1.824219 3.636719 2.628906 4.457031 7.707031 1.820313 11.339844-1.539063 2.128906-3.144532 4.25-4.773438 6.316406-1.601562 2.03125-3.988281 3.09375-6.394531 3.09375zm349.753906-7.964844c-2.558593 0-5.082031-1.207031-6.664062-3.457031-1.515625-2.15625-3.003907-4.367188-4.417969-6.5625-2.429688-3.769531-1.335938-8.796875 2.445312-11.222656 3.777344-2.421875 8.808594-1.332032 11.238282 2.441406 1.296875 2.011719 2.660156 4.039062 4.050781 6.015625 2.582031 3.671875 1.691406 8.734375-1.988281 11.3125-1.417969.992187-3.050782 1.472656-4.664063 1.472656zm-330.957031-21.09375c-1.265625 0-2.546875-.296875-3.746094-.917969-3.984375-2.070312-5.535156-6.972656-3.460937-10.953124 1.113281-2.136719 2.195312-4.320313 3.214843-6.492188 1.90625-4.058594 6.75-5.808594 10.816407-3.90625 4.070312 1.90625 5.820312 6.738281 3.914062 10.800781-1.113281 2.371094-2.296875 4.761719-3.511719 7.09375-1.449218 2.78125-4.289062 4.375-7.226562 4.375zm313.773438-8.945312c-3.097657 0-6.054688-1.773438-7.414063-4.769531-1.089844-2.398438-2.140625-4.84375-3.125-7.265626-1.6875-4.15625.320313-8.890624 4.480469-10.578124 4.167968-1.679688 8.90625.320312 10.597656 4.472656.898438 2.222656 1.863281 4.464844 2.863281 6.664062 1.855469 4.085938.039063 8.898438-4.050781 10.75-1.089844.492188-2.230469.726563-3.351562.726563zm-300.722657-23.105469c-.773437 0-1.5625-.109375-2.34375-.347656-4.300781-1.289063-6.742187-5.816406-5.449219-10.113282.695313-2.308593 1.351563-4.652343 1.945313-6.976562 1.117187-4.339844 5.546875-6.960938 9.898437-5.847656 4.351563 1.109375 6.976563 5.535156 5.863282 9.878906-.652344 2.535156-1.367188 5.097656-2.125 7.621094-1.058594 3.515625-4.289063 5.785156-7.789063 5.785156zm289.390625-9.59375c-3.664062 0-6.988281-2.484375-7.898437-6.195312-.621094-2.546876-1.199219-5.144532-1.71875-7.71875-.886719-4.398438 1.964843-8.679688 6.367187-9.5625 4.417969-.882813 8.695313 1.960937 9.582032 6.355468.476562 2.363282 1.007812 4.746094 1.578124 7.078125 1.0625 4.355469-1.613281 8.75-5.976562 9.8125-.648438.15625-1.296875.230469-1.933594.230469zm-282.554687-24.320312c-.285157 0-.574219-.015626-.859375-.046876-4.46875-.46875-7.710938-4.464843-7.242188-8.925781.25-2.382812.457032-4.8125.613282-7.21875.285156-4.472656 4.136718-7.871093 8.636718-7.582031 4.480469.285156 7.882813 4.148438 7.597656 8.621094-.171874 2.625-.394531 5.273437-.667968 7.878906-.4375 4.171875-3.96875 7.273438-8.078125 7.273438zm277.519531-9.90625c-4.300781 0-7.890625-3.367188-8.117188-7.703126-.136718-2.632812-.21875-5.296874-.246093-7.910156-.046875-4.484375 3.558593-8.15625 8.050781-8.203125 4.511719-.085937 8.171875 3.550781 8.21875 8.035157.023438 2.390624.101562 4.828124.226562 7.242187.230469 4.480469-3.21875 8.296875-7.707031 8.527344-.140625.007812-.285156.011719-.425781.011719zm-277.125-24.691407c-4.199219 0-7.757812-3.222656-8.097656-7.472656-.195313-2.402344-.4375-4.832031-.726563-7.210937-.542969-4.453126 2.636719-8.5 7.09375-9.039063 4.445313-.535156 8.515625 2.632813 9.054688 7.085937.316406 2.597657.582031 5.246094.792969 7.871094.359374 4.46875-2.984376 8.382813-7.460938 8.742188-.21875.015625-.4375.023437-.65625.023437zm278.574219-9.878906c-.363281 0-.730469-.023437-1.101563-.074219-4.453125-.601562-7.574218-4.691406-6.96875-9.136718.351563-2.605469.765625-5.234376 1.21875-7.808594.78125-4.417969 5-7.367188 9.425782-6.585938 4.421874.78125 7.375 4.992188 6.59375 9.410156-.417969 2.363282-.792969 4.773438-1.117188 7.164063-.550781 4.074219-4.042969 7.03125-8.050781 7.03125zm-284.535157-24.199219c-3.578124 0-6.855468-2.371094-7.84375-5.976562-.632812-2.320313-1.328124-4.65625-2.058593-6.945313-1.363281-4.273437 1-8.839843 5.28125-10.203125 4.28125-1.355468 8.855469 1 10.21875 5.273438.800781 2.5 1.558593 5.054687 2.25 7.589844 1.1875 4.324218-1.363281 8.792968-5.699219 9.972656-.71875.195312-1.441406.289062-2.148438.289062zm292.355469-9.496094c-.851562 0-1.722656-.132812-2.574219-.417968-4.261718-1.421875-6.566406-6.019532-5.140624-10.273438.832031-2.492187 1.726562-4.996094 2.664062-7.453125 1.59375-4.195312 6.300781-6.292969 10.492188-4.707031 4.199218 1.59375 6.308593 6.285156 4.714843 10.476562-.859375 2.25-1.679687 4.546876-2.441406 6.824219-1.136719 3.402344-4.308594 5.550781-7.714844 5.550781zm-304.617187-22.851562c-3.003906 0-5.890625-1.664062-7.304688-4.539062-1.0625-2.15625-2.183594-4.316407-3.335937-6.429688-2.148438-3.9375-.691407-8.867188 3.253906-11.015625 3.945313-2.140625 8.886719-.6875 11.035156 3.25 1.257813 2.308594 2.484375 4.671875 3.648438 7.027344 1.980469 4.027343.320312 8.890625-3.710938 10.871093-1.15625.566407-2.378906.835938-3.585937.835938zm318.628906-8.78125c-1.34375 0-2.710938-.335938-3.972656-1.039062-3.917969-2.195313-5.3125-7.144532-3.113282-11.054688 1.292969-2.300781 2.644532-4.597656 4.019532-6.820312 2.359375-3.816407 7.371094-5.003907 11.191406-2.652344 3.824219 2.355468 5.011719 7.355468 2.65625 11.175781-1.257812 2.03125-2.492188 4.132813-3.679688 6.242187-1.488281 2.652344-4.253906 4.148438-7.101562 4.148438zm-336.792969-20.675781c-2.464843 0-4.902343-1.113281-6.5-3.230469-1.453125-1.925781-2.964843-3.84375-4.488281-5.695312-2.847656-3.46875-2.339844-8.585938 1.132812-11.429688 3.476563-2.839844 8.601563-2.335938 11.449219 1.132812 1.664063 2.023438 3.308594 4.113282 4.894531 6.214844 2.703126 3.582032 1.988282 8.671875-1.597656 11.371094-1.464844 1.105469-3.183594 1.636719-4.890625 1.636719zm354.410157-8.011719c-2.945313 0-5.789063-1.605469-7.234376-4.402344-1.125-2.171875-2.289062-4.351562-3.464843-6.476562-2.171875-3.925782-.75-8.867188 3.183593-11.035156 3.933594-2.171876 8.882813-.746094 11.054688 3.179687 1.25 2.261719 2.492188 4.578125 3.683594 6.890625 2.058594 3.984375.492187 8.882812-3.5 10.9375-1.191406.613281-2.464844.90625-3.722656.90625zm-352.386719-20.722656c-1.5 0-3.011719-.410156-4.371094-1.273438-3.785156-2.414062-4.894531-7.4375-2.476563-11.214844 1.398438-2.1875 2.851563-4.386718 4.316407-6.53125 2.527343-3.707031 7.589843-4.660156 11.300781-2.136718 3.714844 2.527344 4.671875 7.578125 2.140625 11.285156-1.375 2.011719-2.734375 4.070312-4.046875 6.121094-1.550781 2.425781-4.179688 3.75-6.863281 3.75zm334.476562-8.917969c-2.566406 0-5.089843-1.207031-6.671875-3.464844-1.394531-1.984375-2.839844-3.980469-4.304687-5.933593-2.6875-3.589844-1.953125-8.679688 1.644531-11.367188 3.597656-2.679688 8.699219-1.949219 11.386719 1.640625 1.5625 2.089844 3.109375 4.222656 4.601562 6.347656 2.574219 3.671875 1.679688 8.734375-2 11.308594-1.417969.992187-3.046875 1.46875-4.65625 1.46875zm-280.6875-18.078125c-4.386719 0-8-3.484375-8.128906-7.886719-.128906-4.484375 3.40625-8.222656 7.898437-8.351562 2.335938-.066407 4.691407-.214844 7-.445313 4.46875-.453125 8.457032 2.8125 8.898438 7.277344.445312 4.460938-2.816406 8.4375-7.289062 8.882812-2.6875.265626-5.425782.441407-8.144532.519532-.078125.003906-.15625.003906-.234375.003906zm248.703125-.28125c-4.207031 0-7.769531-3.230469-8.101562-7.484375-.351563-4.472656 2.996094-8.378906 7.472656-8.730469 2.320312-.183594 4.664062-.449218 6.964844-.796875 4.425781-.664062 8.585937 2.382813 9.253906 6.820313.671875 4.433594-2.386719 8.570312-6.828125 9.238281-2.679687.40625-5.414063.71875-8.117187.929687-.21875.015626-.433594.023438-.644532.023438zm-281.832031-.527344c-1.875 0-3.757813-.644531-5.296875-1.960937-3.40625-2.921875-3.796875-8.046875-.871094-11.449219.828125-.960938 1.660156-1.914062 2.5-2.859375 2.046875-2.308594 5.226563-3.253906 8.207032-2.457031 1.144531.308594 2.324218.601562 3.5.871094 4.378906 1.003906 7.113281 5.363281 6.109374 9.730468-.945312 4.101563-4.835937 6.769532-8.9375 6.242188-1.492187 1.246094-3.347656 1.882812-5.210937 1.882812zm254.84375-.773437c-.46875 0-.945313-.039063-1.425781-.125-2.667969-.472657-5.355469-1.046875-7.988282-1.707031-4.355468-1.097657-7-5.511719-5.902343-9.859376 1.097656-4.351562 5.523437-6.984374 9.875-5.890624 2.257812.566406 4.5625 1.058593 6.851562 1.464843 4.421875.78125 7.375 4.996094 6.59375 9.410157-.699219 3.9375-4.132812 6.707031-8.003906 6.707031zm-187.789063-4.960938c-3.304687 0-6.414062-2.027343-7.628906-5.304687-1.558594-4.203125.59375-8.875 4.804688-10.433594 2.183594-.808594 4.363281-1.703125 6.476562-2.660156 4.089844-1.859375 8.914063-.050782 10.773438 4.03125 1.859375 4.085937.050781 8.898437-4.042969 10.753906-2.464844 1.121094-5.007813 2.164062-7.558594 3.105469-.929687.34375-1.886719.507812-2.824219.507812zm155.203126-6.503906c-1.324219 0-2.671876-.324219-3.914063-1.007813-2.375-1.304687-4.734375-2.710937-7.011719-4.183593-3.773437-2.433594-4.851562-7.460938-2.414062-11.226563 2.441406-3.765625 7.480468-4.839844 11.25-2.40625 1.953125 1.261719 3.976562 2.46875 6.015625 3.589844 3.9375 2.160156 5.371093 7.097656 3.207031 11.027344-1.480469 2.6875-4.265625 4.207031-7.132812 4.207031zm-125.191407-10.59375c-2.367187 0-4.710937-1.023437-6.320312-3-2.832031-3.476563-2.304688-8.59375 1.183593-11.421875 1.800782-1.460938 3.578126-3.007812 5.277344-4.601562 3.277344-3.070313 8.421875-2.910157 11.496094.355468 3.078125 3.269532 2.914062 8.410156-.359375 11.480469-1.980469 1.855469-4.050781 3.664063-6.152344 5.367187-1.507812 1.226563-3.324219 1.820313-5.125 1.820313zm98.035157-10.71875c-2.199219 0-4.394532-.886719-6-2.632813-1.832032-1.996093-3.613282-4.085937-5.296876-6.210937-2.792968-3.515625-2.199218-8.621094 1.324219-11.40625 3.523438-2.785156 8.636719-2.191406 11.425781 1.324219 1.445313 1.820312 2.972657 3.609375 4.542969 5.324218 3.035157 3.304688 2.808594 8.441407-.503906 11.472657-1.558594 1.425781-3.527344 2.128906-5.492187 2.128906zm-75.164063-15.105469c-1.476563 0-2.96875-.402344-4.3125-1.242187-3.804687-2.382813-4.957031-7.390625-2.570313-11.191407 1.234376-1.96875 2.414063-4.007812 3.503907-6.050781 2.105469-3.960937 7.027343-5.46875 10.996093-3.367187 3.96875 2.101562 5.476563 7.019531 3.371094 10.980468-1.269531 2.386719-2.644531 4.765626-4.089844 7.0625-1.542968 2.460938-4.1875 3.808594-6.898437 3.808594zm56.308594-13.789062c-3.132813 0-6.117188-1.8125-7.453125-4.855469-1.089844-2.484375-2.105469-5.039063-3.011719-7.59375-1.503906-4.226563.710937-8.871094 4.945313-10.371094 4.230468-1.496093 8.882812.710938 10.386718 4.9375.777344 2.191407 1.644532 4.375 2.578125 6.5 1.804688 4.109375-.066406 8.898438-4.179687 10.699219-1.066406.464844-2.175782.683594-3.265625.683594zm-36.304688-9.890625c-4.296875 0-7.886719-3.359375-8.117187-7.691407-.238282-4.480468 3.207031-8.300781 7.695312-8.539062 2.636719-.140625 5.300782-.222656 7.925782-.253906h.09375c4.449218 0 8.078124 3.574218 8.128906 8.027344.050781 4.484374-3.546875 8.160156-8.039063 8.210937-2.398437.027344-4.839843.105469-7.253906.234375-.144531.007812-.289063.011719-.433594.011719zm0 0" fill="#a33f03"/></svg>