<?xml version="1.0" encoding="UTF-8" standalone="no"?>
<svg
   xmlns:dc="http://purl.org/dc/elements/1.1/"
   xmlns:cc="http://creativecommons.org/ns#"
   xmlns:rdf="http://www.w3.org/1999/02/22-rdf-syntax-ns#"
   xmlns:svg="http://www.w3.org/2000/svg"
   xmlns="http://www.w3.org/2000/svg"
   xmlns:sodipodi="http://sodipodi.sourceforge.net/DTD/sodipodi-0.dtd"
   xmlns:inkscape="http://www.inkscape.org/namespaces/inkscape"
   id="svg6641"
   version="1.1"
   class=""
   width="512px"
   viewBox="-17 0 512 512"
   height="512px"
   sodipodi:docname="logs_teak2.svg"
   inkscape:version="0.92.4 (5da689c313, 2019-01-14)">
  <sodipodi:namedview
     pagecolor="#ffffff"
     bordercolor="#666666"
     borderopacity="1"
     objecttolerance="10"
     gridtolerance="10"
     guidetolerance="10"
     inkscape:pageopacity="0"
     inkscape:pageshadow="2"
     inkscape:window-width="958"
     inkscape:window-height="991"
     id="namedview15922"
     showgrid="false"
     inkscape:zoom="0.921875"
     inkscape:cx="158.55352"
     inkscape:cy="157.14397"
     inkscape:window-x="-8"
     inkscape:window-y="0"
     inkscape:window-maximized="0"
     inkscape:current-layer="svg6641" />
  <metadata
     id="metadata6647">
    <rdf:RDF>
      <cc:Work
         rdf:about="">
        <dc:format>image/svg+xml</dc:format>
        <dc:type
           rdf:resource="http://purl.org/dc/dcmitype/StillImage" />
        <dc:title></dc:title>
      </cc:Work>
    </rdf:RDF>
  </metadata>
  <defs
     id="defs6645" />
  <g
     id="g10842"
     transform="translate(-4654.6389,-4603.8527)">
    <path
       inkscape:connector-curvature="0"
       d="m 5048.7795,4745.0011 -64.1406,64.1407 v -135.2891 h -320.0001 v 382 c 0,18.5 32.1719,34.6602 80,43.3008 37.8047,6.8437 81.2383,8.2422 120.0001,5.1211 69.0195,-5.5508 120,-25.1328 120,-48.4219 v -105.2891 l 134.8516,-134.8515 z m 0,0"
       data-original="#C66752"
       class=""
       data-old_color="#c66752"
       style="fill:#b99874;fill-opacity:1"
       id="path5212-2-29-1-2-8" />
    <path
       inkscape:connector-curvature="0"
       d="m 5098.2795,4766.2121 c 19.5313,19.5312 29.0196,41.6914 21.211,49.5 -7.8125,7.8125 -29.9727,-1.6875 -49.4922,-21.2188 -19.5313,-19.5195 -29.0313,-41.6797 -21.2188,-49.4922 7.8086,-7.8086 29.9688,1.6797 49.5,21.211 z m 0,0"
       data-original="#FEC9A6"
       class="active-path"
       data-old_color="#fec9a6"
       style="fill:#e0ba92;fill-opacity:1"
       id="path5214-7-4-71-0-0" />
    <path
       inkscape:connector-curvature="0"
       d="m 4824.6388,4733.8527 -160,-60 v 382 c 0,18.5 32.1719,34.6602 80,43.3008 25.1828,4.5588 52.8632,6.7014 79.9967,6.7014 z"
       data-original="#C66752"
       class=""
       data-old_color="#c66752"
       style="fill:#b28e66;fill-opacity:1"
       id="path5212-2-2-9-6-6-9"
       sodipodi:nodetypes="ccsccc" />
    <path
       inkscape:connector-curvature="0"
       d="m 4789.8703,4809.1906 c -5.5195,0 -10,4.4805 -10,10 0,5.5195 4.4805,10 10,10 5.5195,0 10,-4.4805 10,-10 0,-5.5195 -4.4805,-10 -10,-10 z m 0,0"
       data-original="#000000"
       class=""
       style="fill:#865522;fill-opacity:1"
       id="path5218-2-1-2-8" />
    <path
       inkscape:connector-curvature="0"
       style="fill:#976026;fill-opacity:1"
       d="m 4935.8705,4714.9632 c -6.1807,2.243 -12.8372,4.2997 -19.916,6.1484 l -0.084,52.545 c -0.01,5.5195 4.4766,10 10,10 5.5234,0 10,-4.4805 10,-10 z"
       id="path5220-74-6-9-9" />
    <path
       inkscape:connector-curvature="0"
       d="m 4715.8703,4819.1906 c 0,-5.5234 -4.4766,-10 -10,-10 -5.5235,0 -10,4.4766 -10,10 v 40 c 0,5.5234 4.4765,10 10,10 5.5234,0 10,-4.4766 10,-10 z m 0,0"
       data-original="#000000"
       class=""
       style="fill:#865522;fill-opacity:1"
       id="path5222-0-4-6-3" />
    <path
       inkscape:connector-curvature="0"
       d="m 4725.8703,4909.1906 c -5.5235,0 -10,4.4766 -10,10 v 86 c 0,5.5234 4.4765,10 10,10 5.5234,0 10,-4.4766 10,-10 v -86 c 0,-5.5234 -4.4766,-10 -10,-10 z m 0,0"
       data-original="#000000"
       class=""
       style="fill:#865522;fill-opacity:1"
       id="path5224-3-2-5-5" />
    <path
       inkscape:connector-curvature="0"
       d="m 4965.8703,4849.1906 c -5.5234,0 -10,4.4766 -10,10 v 40 c 0,5.5234 4.4766,10 10,10 5.5234,0 10,-4.4766 10,-10 v -40 c 0,-5.5234 -4.4766,-10 -10,-10 z m 0,0"
       data-original="#000000"
       class=""
       style="fill:#976026;fill-opacity:1"
       id="path5226-9-9-9-9" />
    <path
       inkscape:connector-curvature="0"
       d="m 4789.8703,4849.1906 c -5.5234,0 -10,4.4766 -10,10 v 146 c 0,5.5234 4.4766,10 10,10 5.5234,0 10,-4.4766 10,-10 v -146 c 0,-5.5234 -4.4766,-10 -10,-10 z m 0,0"
       data-original="#000000"
       class=""
       style="fill:#865522;fill-opacity:1"
       id="path5228-5-4-7-9" />
    <path
       inkscape:connector-curvature="0"
       d="m 4885.8703,4789.1906 c -5.5234,0 -10,4.4766 -10,10 v 80 c 0,5.5234 4.4766,10 10,10 5.5234,0 10,-4.4766 10,-10 v -80 c 0,-5.5234 -4.4766,-10 -10,-10 z m 0,0"
       data-original="#000000"
       class=""
       style="fill:#976026;fill-opacity:1"
       id="path5230-6-9-9-1" />
    <path
       inkscape:connector-curvature="0"
       d="m 4885.8703,4909.1906 c -5.5234,0 -10,4.4766 -10,10 v 40 c 0,5.5234 4.4766,10 10,10 5.5234,0 10,-4.4766 10,-10 v -40 c 0,-5.5234 -4.4766,-10 -10,-10 z m 0,0"
       data-original="#000000"
       class=""
       style="fill:#976026;fill-opacity:1"
       id="path5232-52-2-1-7" />
    <path
       inkscape:connector-curvature="0"
       style="fill:#865522;fill-opacity:1"
       d="m 4752.9408,5062.2601 c -5.5235,0 -10,4.4766 -10,10 v 26.5742 c 0.5672,0.1054 1.1256,0.2151 1.6973,0.3183 5.9725,1.0812 12.0898,2.023 18.3027,2.836 v -29.7285 c 0,-5.5234 -4.4766,-10 -10,-10 z"
       id="path5220-7-2-3-5-1-8" />
    <path
       inkscape:connector-curvature="0"
       style="fill:#865522;fill-opacity:1"
       d="m 4742.9447,4723.4417 v 64.6738 c 0,5.5235 4.4766,10 10,10 5.5234,0 10,-4.4765 10,-10 v -60.8886 c -6.9311,-1.0871 -13.6044,-2.358 -20,-3.7852 z"
       id="path5220-7-0-6-28-2-8" />
    <path
       inkscape:connector-curvature="0"
       style="fill:#976026;fill-opacity:1"
       d="m 4872.9408,5035.5687 c -5.5234,0 -10,4.4804 -10,10 v 58.8281 c 0.5638,-0.043 1.1354,-0.078 1.6973,-0.1231 6.2588,-0.5033 12.3651,-1.1251 18.3027,-1.8515 v -56.8535 c 0,-5.5196 -4.4766,-10 -10,-10 z"
       id="path5220-7-5-2-0-2-2" />
    <path
       inkscape:connector-curvature="0"
       style="fill:#976026;fill-opacity:1"
       d="m 4952.9447,5048.0882 c -5.5234,0 -10.0007,4.4766 -10,10 v 31.416 c 7.586,-2.6028 14.292,-5.4591 20,-8.5195 v -0.022 -22.875 c 0,-5.5234 -4.4766,-10 -10,-10 z"
       id="path5220-7-6-2-72-0-5" />
    <path
       inkscape:connector-curvature="0"
       d="m 4824.6388,4613.8527 c -88.371,0 -160,26.8594 -160,60 0,33.1406 71.629,60 160,60 88.3711,0 160.0001,-26.8594 160.0001,-60 0,-33.1406 -71.629,-60 -160.0001,-60 z m 0,0"
       data-original="#FEC9A6"
       class="active-path"
       data-old_color="#fec9a6"
       style="fill:#d7a673;fill-opacity:1"
       id="path5216-9-3-3-0-1" />
    <path
       inkscape:connector-curvature="0"
       d="m 4824.6388,4635.3527 c -67.0147,0 -121.3333,16.7871 -121.3333,37.5 0,20.7129 54.3186,37.5 121.3333,37.5 67.0148,0 121.3334,-16.7871 121.3334,-37.5 0,-20.7129 -54.3186,-37.5 -121.3334,-37.5 z m 0,0"
       data-original="#FEC9A6"
       class="active-path"
       data-old_color="#fec9a6"
       style="fill:#c36f2d;fill-opacity:1;stroke-width:0.68844628"
       id="path5216-3-7-9-5-1-9" />
    <path
       inkscape:connector-curvature="0"
       d="m 4824.6388,4613.8527 c -88.371,0 -160,26.8594 -160,60 0,33.1406 71.629,60 160,60 v -23.5 l -116.5,-36.5 116.5,-38.5 z"
       data-original="#FEC9A6"
       class="active-path"
       data-old_color="#fec9a6"
       style="opacity:1;vector-effect:none;fill:#d39c63;fill-opacity:1;stroke-width:1;stroke-linecap:butt;stroke-linejoin:miter;stroke-miterlimit:4;stroke-dasharray:none;stroke-dashoffset:0;stroke-opacity:1"
       id="path5216-9-9-7-9-4-1"
       sodipodi:nodetypes="csccccc" />
    <path
       inkscape:connector-curvature="0"
       d="m 4824.6388,4635.3527 c -67.0147,0 -121.3333,16.7871 -121.3333,37.5 0,20.7129 54.3186,37.5 121.3333,37.5 z"
       data-original="#FEC9A6"
       class="active-path"
       data-old_color="#fec9a6"
       style="fill:#b36629;fill-opacity:1;stroke-width:0.68844628"
       id="path5216-3-7-5-3-5-4-3"
       sodipodi:nodetypes="cscc" />
  </g>
</svg>
