<svg xmlns="http://www.w3.org/2000/svg" viewBox="0 0 513 512" width="513" height="512">
	<style>
		tspan { white-space:pre }
		.shp0 { fill: #3d4f75 } 
		.shp1 { fill: #3d3b65 } 
		.shp2 { fill: #8a9087 } 
		.shp3 { fill: #a29b88 } 
		.shp4 { fill: #6f8086 } 
		.shp5 { fill: #426c7c } 
		.shp6 { fill: #3d324d } 
		.shp7 { fill: #607b83 } 
		.shp8 { fill: #3d5f7b } 
		.shp9 { fill: #ae9e88 } 
	</style>
	<path id="Layer" class="shp0" d="M302.56 46.54C302.56 46.54 349.1 23.27 395.64 23.27C465.46 23.27 512 69.81 512 139.63C512 186.26 465.46 232.71 465.46 232.71L302.56 46.54Z" />
	<g id="Layer">
		<path id="Layer" class="shp1" d="M344.28 51.36L367.55 28.09C373.98 21.66 384.4 21.66 390.82 28.09C397.25 34.52 397.25 44.94 390.82 51.36L367.55 74.63C361.13 81.06 350.71 81.06 344.28 74.63C337.86 68.21 337.86 57.79 344.28 51.36Z" />
		<path id="Layer" class="shp1" d="M390.82 74.63L414.09 51.36C420.52 44.94 430.94 44.94 437.37 51.36C443.79 57.79 443.79 68.21 437.37 74.63L414.09 97.91C407.67 104.33 397.25 104.33 390.82 97.91C384.4 91.48 384.4 81.06 390.82 74.63L390.82 74.63Z" />
		<path id="Layer" class="shp1" d="M423.73 111.54L460.64 74.63C467.06 68.21 477.48 68.21 483.91 74.63C490.34 81.06 490.34 91.48 483.91 97.91L447 134.81C440.58 141.23 430.16 141.23 423.73 134.81C417.31 128.38 417.31 117.96 423.73 111.54Z" />
		<path id="Layer" class="shp1" d="M447 158.08L483.91 121.18C490.34 114.75 500.75 114.75 507.18 121.18C513.61 127.6 513.61 138.02 507.18 144.45L470.28 181.35C463.85 187.78 453.43 187.78 447 181.35C440.58 174.93 440.58 164.51 447 158.08Z" />
	</g>
	<path id="Layer" class="shp2" d="M7.68 47.68C16.55 29.88 33.05 17.08 52.5 12.91C83.71 6.2 93.12 0 186.2 0C302.56 0 488.73 93.09 488.73 232.71C488.73 372.34 325.83 442.16 232.74 442.16C162.93 442.16 116.39 418.89 116.39 418.89C116.39 418.89 100.16 469.58 70.67 499.54C58.13 512.29 38.8 515.52 22.79 507.54C7.47 499.95 -1.52 483.63 0.27 466.62C2.68 444.56 33.16 409.02 46.57 395.61C46.57 395.61 5.5 372.73 0.29 325.8C-1.75 308.69 7.1 292.13 22.45 284.3C37.01 276.96 54.57 279.09 66.95 289.71C87.45 307.4 116.39 343.05 116.39 372.34C116.39 372.34 325.83 372.34 325.83 279.26C325.83 279.26 279.29 232.71 209.47 232.71C165.43 232.71 35.77 230.43 2.48 92.43C-1.1 77.36 0.74 61.52 7.68 47.68L7.68 47.68Z" />
	<path id="Layer" class="shp3" d="M243.02 88.32C236.58 88.32 231.37 93.54 231.37 99.97C231.37 100.64 231.43 101.31 231.54 101.97C232.36 106.72 232.76 111.54 232.74 116.36C232.74 128.88 228.43 139.48 219.56 148.77C219.45 148.88 219.35 148.99 219.25 149.11C219.14 149.21 219.03 149.32 218.93 149.43C214.82 153.54 210.22 157.12 205.22 160.08C199.71 163.39 197.93 170.54 201.24 176.04C204.55 181.54 211.68 183.33 217.19 180.04C217.63 179.77 218.07 179.5 218.52 179.23L218.52 179.22L218.58 179.19L218.59 179.18L218.63 179.16L218.67 179.13L218.7 179.11L218.74 179.09L218.76 179.07L218.81 179.04L218.83 179.03L218.87 179L218.9 178.98L218.94 178.96L218.97 178.94L219.01 178.92L219.03 178.9L219.08 178.87L219.09 178.86L219.16 178.82L219.22 178.78L219.23 178.77L219.29 178.73L219.3 178.73L219.36 178.69L219.37 178.69C223.69 175.95 227.78 172.87 231.61 169.47C231.65 169.43 231.7 169.38 231.75 169.34L231.82 169.27L231.82 169.27C231.87 169.23 231.92 169.18 231.96 169.14L231.97 169.14C231.99 169.12 232.01 169.1 232.04 169.08L232.05 169.07L232.11 169.02L232.12 169L232.18 168.95L232.2 168.93L232.25 168.89L232.27 168.87L232.32 168.82L232.34 168.8L232.39 168.75L232.42 168.73L232.46 168.69L232.5 168.66L232.53 168.63L232.57 168.59L232.6 168.56L232.65 168.52L232.67 168.5L232.73 168.45L232.75 168.43L232.81 168.37L232.82 168.36C233.73 167.52 234.63 166.64 235.53 165.73C235.67 165.58 235.81 165.44 235.94 165.29C236.09 165.14 236.25 164.99 236.39 164.84C243.32 157.7 248.66 149.18 252.06 139.84L252.06 139.84C252.13 139.64 252.2 139.44 252.27 139.24C252.3 139.14 252.34 139.04 252.37 138.94L252.38 138.93L252.48 138.64L252.48 138.63C252.51 138.53 252.54 138.43 252.58 138.33L252.58 138.33C252.61 138.23 252.64 138.13 252.68 138.03L252.68 138.02L252.71 137.92C252.73 137.85 252.75 137.79 252.78 137.72L252.78 137.71C252.81 137.61 252.84 137.52 252.88 137.41L252.88 137.4C252.91 137.3 252.94 137.2 252.97 137.1L252.97 137.09C252.98 137.06 252.99 137.03 253 137C253.02 136.93 253.04 136.86 253.06 136.79L253.07 136.79C253.08 136.75 253.09 136.72 253.1 136.69L253.1 136.68L253.13 136.59L253.13 136.58C253.14 136.55 253.15 136.52 253.16 136.48L253.16 136.47L253.19 136.38C253.21 136.3 253.23 136.24 253.25 136.17L253.25 136.16L253.28 136.06L253.31 135.96C253.32 135.92 253.33 135.89 253.34 135.86L253.34 135.85C253.36 135.82 253.36 135.78 253.37 135.75L253.38 135.74L253.4 135.64L253.4 135.64L253.43 135.54L253.43 135.53L253.46 135.43L253.46 135.43L253.49 135.33L253.49 135.32L253.52 135.23L253.52 135.21C253.53 135.18 253.54 135.15 253.55 135.12L253.55 135.11C253.56 135.08 253.57 135.05 253.58 135.02L253.58 135.01L253.61 134.91L253.61 134.89L253.64 134.8L253.64 134.79C253.65 134.76 253.66 134.73 253.66 134.7L253.66 134.69L253.69 134.59L253.7 134.58L253.72 134.48L253.72 134.48C253.73 134.44 253.74 134.41 253.75 134.38L253.78 134.27L253.78 134.26C253.79 134.23 253.8 134.2 253.8 134.16C253.82 134.13 253.82 134.09 253.83 134.06L253.83 134.05C253.84 134.02 253.85 133.99 253.86 133.95L253.86 133.94C253.87 133.91 253.88 133.88 253.89 133.84L253.89 133.84C253.9 133.8 253.91 133.77 253.91 133.74L253.91 133.73C253.92 133.7 253.93 133.67 253.94 133.63L253.97 133.52L253.97 133.51L253.99 133.42L254 133.41L254.02 133.3C254.03 133.26 254.04 133.23 254.05 133.2L254.05 133.19C254.06 133.16 254.07 133.13 254.07 133.09L254.07 133.09L254.1 132.99L254.1 132.97C254.11 132.94 254.12 132.91 254.13 132.88L254.13 132.86C254.13 132.83 254.14 132.8 254.15 132.77L254.15 132.76L254.18 132.66L254.18 132.65C254.19 132.62 254.19 132.58 254.2 132.55L254.2 132.54C254.21 132.51 254.22 132.48 254.23 132.45L254.23 132.44L254.25 132.34L254.25 132.32L254.28 132.23L254.28 132.21L254.3 132.12L254.3 132.11L254.32 132.01L254.33 132L254.35 131.9L254.35 131.88L254.37 131.8L254.38 131.78C254.38 131.75 254.39 131.72 254.39 131.69L254.4 131.66C254.41 131.63 254.41 131.6 254.42 131.57L254.43 131.55C254.43 131.53 254.44 131.5 254.44 131.47L254.45 131.45L254.47 131.36L254.47 131.34L254.49 131.24L254.5 131.23L254.52 131.14L254.52 131.13L254.54 131.03L254.54 131C254.55 130.97 254.55 130.94 254.56 130.91L254.56 130.9L254.58 130.81L254.59 130.79C254.59 130.76 254.6 130.73 254.61 130.7L254.63 130.58L254.63 130.57L254.65 130.48L254.65 130.46L254.67 130.36L254.7 130.25L254.7 130.23L254.71 130.14L254.72 130.13C254.72 130.09 254.73 130.06 254.74 130.03L254.74 130.01L254.76 129.91L254.76 129.9L254.78 129.81L254.78 129.79C254.79 129.76 254.79 129.73 254.8 129.7L254.8 129.67C254.81 129.64 254.82 129.61 254.82 129.58L254.82 129.56C254.83 129.53 254.84 129.5 254.84 129.47L254.87 129.34C254.87 129.3 254.88 129.27 254.88 129.24L254.89 129.23L254.9 129.13L254.91 129.12L254.92 129.02L254.93 129C254.93 128.97 254.94 128.93 254.95 128.9L254.95 128.89C254.95 128.86 254.96 128.83 254.96 128.8L254.96 128.78C254.97 128.75 254.98 128.71 254.98 128.68L254.98 128.66C254.99 128.63 255 128.59 255 128.56L255 128.55C255.01 128.52 255.02 128.49 255.02 128.46L255.02 128.44C255.03 128.41 255.04 128.38 255.04 128.34L255.04 128.32C255.05 128.29 255.05 128.25 255.06 128.22L255.06 128.21L255.08 128.12L255.08 128.1C255.09 128.07 255.09 128.04 255.09 128L255.1 127.98L255.11 127.88L255.12 127.87C255.12 127.84 255.13 127.81 255.13 127.78L255.13 127.76L255.15 127.66L255.15 127.64L255.17 127.54L255.17 127.52C255.18 127.5 255.18 127.46 255.18 127.44L255.19 127.41L255.2 127.32L255.21 127.3L255.22 127.2L255.22 127.18L255.24 127.09L255.24 127.07L255.25 126.98L255.26 126.95C255.26 126.92 255.27 126.88 255.27 126.85L255.27 126.84L255.29 126.75L255.29 126.73C255.29 126.7 255.3 126.66 255.3 126.63L255.3 126.61L255.32 126.51L255.32 126.49L255.34 126.4L255.34 126.38L255.35 126.28L255.36 126.26C255.36 126.23 255.36 126.19 255.37 126.16L255.37 126.15L255.38 126.05L255.38 126.03L255.4 125.93L255.4 125.91L255.41 125.81L255.41 125.8L255.43 125.7L255.43 125.69L255.44 125.59L255.45 125.56L255.46 125.46L255.46 125.45C255.46 125.42 255.47 125.39 255.47 125.36L255.47 125.34C255.48 125.3 255.48 125.27 255.48 125.24L255.49 125.21C255.49 125.18 255.5 125.14 255.5 125.11L255.5 125.1L255.51 125L255.52 124.98C255.52 124.95 255.52 124.92 255.53 124.89L255.53 124.86L255.54 124.76L255.54 124.75C255.55 124.72 255.55 124.69 255.55 124.66L255.55 124.63C255.56 124.6 255.56 124.57 255.57 124.53L255.57 124.51C255.57 124.48 255.58 124.44 255.58 124.41L255.58 124.4L255.59 124.3L255.59 124.28L255.61 124.18L255.61 124.16L255.62 124.05L255.62 124.04C255.62 124.01 255.63 123.98 255.63 123.95L255.63 123.93C255.63 123.89 255.64 123.86 255.64 123.83L255.64 123.8C255.64 123.77 255.65 123.73 255.65 123.7L255.66 123.69L255.66 123.59L255.67 123.57C255.67 123.54 255.67 123.5 255.68 123.47L255.68 123.45C255.68 123.41 255.68 123.38 255.69 123.34L255.69 123.34C255.69 123.3 255.7 123.27 255.7 123.24L255.7 123.21C255.7 123.18 255.71 123.15 255.71 123.11L255.71 123.09L255.72 122.99L255.72 122.98C255.72 122.95 255.73 122.91 255.73 122.88L255.73 122.86C255.73 122.82 255.74 122.79 255.74 122.76L255.74 122.73L255.75 122.63L255.75 122.61L255.76 122.52L255.76 122.5C255.77 122.46 255.77 122.43 255.77 122.4L255.77 122.38L255.78 122.27L255.78 122.26C255.79 122.23 255.79 122.2 255.79 122.16L255.79 122.14C255.79 122.11 255.8 122.07 255.8 122.04L255.8 122.02L255.81 121.91L255.81 121.9C255.81 121.87 255.81 121.83 255.82 121.8L255.82 121.78C255.82 121.74 255.82 121.71 255.82 121.68L255.83 121.66C255.83 121.62 255.83 121.58 255.83 121.55L255.84 121.54C255.84 121.51 255.84 121.47 255.84 121.44L255.84 121.42C255.84 121.38 255.85 121.35 255.85 121.31L255.85 121.29C255.86 121.25 255.86 121.22 255.86 121.18C255.86 121.14 255.86 121.11 255.87 121.07L255.87 121.05L255.88 120.95L255.88 120.93L255.88 120.82L255.88 120.82L255.89 120.71L255.89 120.69L255.89 120.59L255.89 120.56C255.9 120.53 255.9 120.49 255.9 120.46L255.9 120.45C255.91 120.41 255.91 120.38 255.91 120.35L255.91 120.32C255.91 120.29 255.91 120.25 255.91 120.22L255.91 120.2L255.92 120.09L255.92 120.08C255.92 120.05 255.93 120.02 255.93 119.98L255.93 119.96L255.93 119.85L255.93 119.83C255.93 119.79 255.94 119.76 255.94 119.72L255.94 119.71C255.94 119.68 255.94 119.64 255.95 119.61L255.95 119.59L255.95 119.48L255.95 119.46C255.95 119.43 255.95 119.39 255.95 119.35L255.95 119.35L255.96 119.24L255.96 119.22L255.96 119.11L255.96 119.09L255.97 118.98L255.97 118.97C255.97 118.94 255.97 118.91 255.97 118.87L255.97 118.85C255.97 118.81 255.98 118.78 255.98 118.74L255.98 118.72C255.98 118.68 255.98 118.65 255.98 118.61L255.98 118.61C255.98 118.57 255.98 118.54 255.98 118.5L255.98 118.48C255.98 118.44 255.98 118.41 255.99 118.38L255.99 118.24L255.99 118.23L255.99 118.13L256 118.1L256 117.97L256 117.87L256 117.75L256 117.73C256 117.7 256 117.66 256 117.63L256 117.6C256.01 117.56 256.01 117.53 256.01 117.49C256.01 117.45 256.01 117.41 256.01 117.38L256.01 117.36C256.01 117.32 256.01 117.29 256.01 117.25L256.01 116.98C256.01 116.95 256.01 116.91 256.01 116.87L256.02 116.85C256.02 116.77 256.02 116.7 256.02 116.62L256.02 116.6C256.02 116.57 256.02 116.53 256.02 116.49L256.02 115.73C256.01 115.7 256.01 115.67 256.01 115.64L256.01 115.63C256.01 115.6 256.01 115.57 256.01 115.55L256.01 115.52C256.01 115.49 256.01 115.47 256.01 115.45L256.01 115.43L256.01 115.23L256.01 115.12C256.01 115.05 256.01 114.99 256 114.92L256 114.73L256 114.71C256 114.65 256 114.58 256 114.52L256 114.5L256 114.41L256 114.41C256 114.34 256 114.28 256 114.21L256 114.2L255.99 114.11L255.99 114.1L255.99 113.9L255.98 113.8L255.98 113.8C255.98 113.7 255.98 113.6 255.98 113.5L255.98 113.4C255.97 113.3 255.97 113.2 255.97 113.1L255.97 113.1C255.83 108 255.32 102.93 254.45 97.91C253.46 92.37 248.64 88.34 243.01 88.32L243.02 88.32Z" />
	<path id="Layer" class="shp3" d="M197.84 442.16C191.41 442.16 186.2 436.95 186.2 430.52C186.2 424.1 191.39 418.9 197.81 418.89C198.5 418.89 265.2 418.16 331.01 374.3C394.89 331.71 395.64 268.26 395.64 267.62C395.64 261.2 400.85 255.98 407.28 255.98C413.7 255.98 418.91 261.2 418.91 267.62C418.91 270.73 418.05 344.23 343.92 393.66C271.99 441.61 200.84 442.16 197.84 442.16L197.84 442.16Z" />
	<path id="Layer" class="shp4" d="M216.51 186.31C203.65 186.37 193.29 196.84 193.35 209.7C193.41 222.14 203.26 232.34 215.7 232.84L215.74 232.84C215.77 232.84 215.81 232.84 215.85 232.84L215.88 232.84C215.92 232.85 215.96 232.85 216.01 232.85L216.02 232.85L216.17 232.86L216.2 232.86C216.23 232.86 216.27 232.86 216.3 232.86C216.53 232.87 216.75 232.88 216.98 232.89C217.18 232.9 217.38 232.91 217.57 232.91C217.79 232.93 218.01 232.95 218.23 232.96C263.54 235.48 298.02 257.04 314.71 269.82C324.94 277.61 339.54 275.63 347.32 265.41C355.09 255.2 353.14 240.63 342.95 232.83C322.16 216.91 278.64 189.72 220.85 186.49C220.59 186.47 220.34 186.46 220.09 186.46C219.79 186.43 219.5 186.42 219.2 186.4L217.54 186.33C217.2 186.32 216.85 186.31 216.51 186.31L216.51 186.31Z" />
	<path id="Layer" class="shp5" d="M488.73 232.71C488.73 93.09 302.56 0 186.2 0C93.12 0 83.71 6.2 52.5 12.91C44.07 14.82 36.11 18.38 29.06 23.39C60.35 24.22 223.36 32.53 349.1 116.36C488.73 209.44 488.73 397.6 232.74 442.16C325.83 442.16 488.73 372.34 488.73 232.71L488.73 232.71Z" />
	<path id="Layer" class="shp1" d="M377.32 36.08C370.89 36.08 365.67 41.29 365.67 47.71C365.66 51.72 367.73 55.45 371.13 57.58C386.27 66.93 400.65 77.46 414.13 89.07L414.3 89.22L414.31 89.22C414.36 89.27 414.42 89.32 414.47 89.36L414.48 89.37C414.54 89.42 414.6 89.47 414.65 89.52L414.65 89.52C414.82 89.67 414.99 89.82 415.16 89.96L415.17 89.97C415.23 90.02 415.28 90.07 415.34 90.12L415.35 90.13C415.4 90.17 415.45 90.21 415.5 90.26L415.52 90.28C415.57 90.32 415.62 90.37 415.68 90.41L415.69 90.43C415.74 90.47 415.8 90.52 415.85 90.57L415.86 90.57L416.02 90.72L416.04 90.73C416.09 90.78 416.14 90.82 416.19 90.87L416.21 90.88C416.25 90.92 416.32 90.98 416.36 91.02L416.38 91.04C416.43 91.08 416.47 91.12 416.53 91.16L416.55 91.19C416.6 91.23 416.65 91.28 416.7 91.32L416.72 91.34C416.77 91.38 416.83 91.43 416.87 91.47L416.89 91.48C416.94 91.53 416.99 91.58 417.05 91.63L417.07 91.64C417.12 91.69 417.16 91.73 417.21 91.77L417.24 91.8C417.29 91.84 417.33 91.88 417.38 91.92L417.41 91.95C417.46 91.99 417.5 92.04 417.55 92.07L417.58 92.1C417.62 92.14 417.67 92.18 417.72 92.22L417.75 92.25C417.79 92.29 417.84 92.33 417.88 92.37L417.92 92.41C417.97 92.45 418.02 92.49 418.06 92.54L418.09 92.56L418.23 92.68L418.26 92.71C418.31 92.75 418.35 92.79 418.39 92.83L418.43 92.86L418.56 92.98L418.6 93.02L418.73 93.14L418.76 93.16L418.9 93.29L418.94 93.32L419.08 93.45L419.11 93.48C419.15 93.52 419.2 93.56 419.24 93.6L419.28 93.64C419.32 93.67 419.37 93.71 419.41 93.75L419.45 93.79L419.57 93.9L419.61 93.94C419.65 93.97 419.7 94.01 419.73 94.05L419.78 94.09C419.83 94.13 419.86 94.16 419.9 94.2L419.96 94.25C420 94.29 420.04 94.32 420.08 94.36L420.13 94.4C420.16 94.44 420.21 94.48 420.25 94.52C420.26 94.53 420.28 94.54 420.29 94.55C420.33 94.59 420.38 94.64 420.41 94.67L420.45 94.7C420.49 94.74 420.54 94.79 420.58 94.82L420.62 94.86C420.66 94.89 420.7 94.94 420.74 94.97L420.78 95.01C420.83 95.05 420.87 95.09 420.91 95.13L420.96 95.17C421 95.21 421.04 95.25 421.09 95.29L421.13 95.33C421.17 95.37 421.21 95.41 421.25 95.44L421.3 95.48L421.41 95.59L421.46 95.64C421.5 95.67 421.54 95.71 421.57 95.74L421.62 95.79L421.74 95.89C421.76 95.91 421.77 95.93 421.79 95.95L421.91 96.05L421.97 96.11C422 96.14 422.04 96.18 422.08 96.21L422.13 96.26C422.17 96.3 422.21 96.33 422.24 96.37L422.3 96.41L422.41 96.52L422.46 96.56C422.5 96.6 422.53 96.63 422.57 96.67C422.58 96.68 422.61 96.7 422.62 96.72C422.66 96.75 422.69 96.79 422.73 96.82L422.8 96.88C422.83 96.91 422.86 96.95 422.89 96.98L422.96 97.04C423 97.08 423.04 97.11 423.07 97.14L423.13 97.2C423.16 97.23 423.2 97.27 423.23 97.3L423.29 97.35C423.33 97.39 423.36 97.41 423.4 97.45L423.45 97.5L423.56 97.6L423.61 97.65C423.65 97.69 423.68 97.72 423.72 97.76L423.79 97.82L423.88 97.91C423.91 97.93 423.93 97.96 423.96 97.98C424 98.02 424.01 98.03 424.04 98.06C424.07 98.09 424.1 98.11 424.13 98.14C424.16 98.17 424.19 98.2 424.22 98.23C424.24 98.25 424.26 98.27 424.28 98.29L424.38 98.38L424.44 98.44L424.54 98.53L424.62 98.61L424.7 98.69C424.72 98.71 424.75 98.74 424.78 98.77L424.86 98.85C424.89 98.87 424.92 98.9 424.95 98.92L425.03 99L425.11 99.08L425.2 99.17L425.36 99.32C425.38 99.34 425.4 99.36 425.42 99.38L425.52 99.48C425.55 99.5 425.57 99.53 425.6 99.56C425.63 99.58 425.65 99.61 425.68 99.63L425.76 99.71C425.79 99.73 425.81 99.76 425.84 99.79L425.93 99.87L426 99.94C426.03 99.97 426.05 99.99 426.08 100.02C426.11 100.05 426.14 100.08 426.18 100.11L426.24 100.18C426.27 100.2 426.3 100.24 426.33 100.26L426.4 100.33L426.48 100.41L426.64 100.57L426.75 100.66L426.8 100.72C426.84 100.75 426.87 100.79 426.91 100.82L426.96 100.87L427.06 100.98L427.12 101.04L427.22 101.13L427.3 101.21L427.39 101.29C427.41 101.32 427.43 101.34 427.46 101.36C427.49 101.39 427.52 101.43 427.55 101.46L427.61 101.52C427.65 101.55 427.68 101.59 427.71 101.62C427.73 101.63 427.75 101.65 427.76 101.66C427.8 101.7 427.84 101.73 427.87 101.77L427.92 101.82C427.96 101.86 427.99 101.89 428.03 101.93L428.18 102.08C428.21 102.1 428.23 102.13 428.26 102.16L428.36 102.25C428.38 102.28 428.39 102.29 428.42 102.31C428.45 102.35 428.49 102.38 428.52 102.42L428.57 102.46C428.61 102.5 428.64 102.54 428.68 102.58L428.72 102.61C428.76 102.65 428.8 102.69 428.84 102.73L428.87 102.76C428.91 102.8 428.95 102.84 428.99 102.89L429.01 102.9C429.07 102.97 429.14 103.03 429.2 103.09L429.21 103.11C429.25 103.15 429.29 103.19 429.33 103.23L429.37 103.27C429.41 103.3 429.45 103.34 429.48 103.38L429.52 103.42C429.56 103.46 429.6 103.49 429.63 103.53L429.68 103.57C429.72 103.61 429.75 103.65 429.79 103.69L429.82 103.72C429.87 103.76 429.9 103.8 429.95 103.84L429.98 103.88C430.08 103.98 430.19 104.09 430.3 104.2L430.32 104.22C430.36 104.26 430.4 104.3 430.45 104.35L430.47 104.38C430.51 104.41 430.55 104.46 430.59 104.5L430.62 104.53L430.74 104.65L430.92 104.83L431.09 105L431.12 105.03C431.16 105.07 431.2 105.12 431.24 105.16L431.27 105.18C431.3 105.23 431.34 105.27 431.39 105.3L431.42 105.34C431.46 105.38 431.5 105.43 431.54 105.46L431.56 105.48L431.69 105.62L431.71 105.64C431.82 105.75 431.93 105.86 432.04 105.98L432.05 106C432.1 106.04 432.14 106.09 432.18 106.13L432.2 106.15L432.33 106.28L432.35 106.3L432.48 106.43L432.5 106.46C432.54 106.5 432.58 106.54 432.62 106.59L432.65 106.61C432.76 106.73 432.86 106.84 432.97 106.95L432.99 106.97C433.03 107.01 433.07 107.05 433.1 107.09L433.14 107.13C433.18 107.17 433.22 107.21 433.26 107.25L433.29 107.28L433.41 107.41L433.43 107.43C433.47 107.47 433.52 107.52 433.56 107.56L433.56 107.57C433.77 107.79 433.99 108.01 434.2 108.24L434.2 108.24C434.25 108.29 434.29 108.34 434.34 108.39L434.35 108.39C434.51 108.57 434.67 108.74 434.84 108.91L434.84 108.92C434.93 109.02 435.02 109.11 435.12 109.21L435.12 109.22L435.26 109.37L435.4 109.52L435.41 109.53C435.92 110.08 436.43 110.63 436.95 111.18L436.95 111.19C436.99 111.24 437.04 111.29 437.08 111.34L437.09 111.34C437.25 111.52 437.41 111.7 437.57 111.87C437.66 111.97 437.75 112.07 437.85 112.18C437.89 112.23 437.94 112.28 437.98 112.33L437.99 112.33C438.24 112.61 438.49 112.89 438.74 113.17L438.75 113.17C439.09 113.55 439.43 113.94 439.77 114.32L439.77 114.32C439.98 114.55 440.17 114.78 440.37 115L440.39 115.02L440.52 115.16L440.52 115.17C440.57 115.22 440.61 115.27 440.65 115.32L440.66 115.32C440.9 115.61 441.15 115.89 441.39 116.17L441.4 116.18L441.53 116.33L441.54 116.33C441.64 116.46 441.75 116.59 441.87 116.71C441.91 116.76 441.94 116.8 441.98 116.84L442.01 116.88C442.04 116.92 442.08 116.96 442.12 117.01L442.14 117.04L442.26 117.17L442.28 117.2C442.32 117.25 442.36 117.29 442.4 117.34L442.41 117.35C442.56 117.52 442.71 117.7 442.86 117.87L442.87 117.89L442.99 118.03L443.01 118.05L443.12 118.18L443.15 118.21C443.18 118.26 443.23 118.3 443.26 118.35L443.28 118.36L443.59 118.73L443.6 118.74C443.64 118.79 443.68 118.84 443.71 118.89L443.73 118.9C443.77 118.95 443.81 118.99 443.84 119.04L443.87 119.07C443.91 119.11 443.94 119.15 443.98 119.2L444.01 119.23L444.11 119.36L444.15 119.4C444.18 119.44 444.22 119.48 444.25 119.52L444.26 119.53C444.32 119.6 444.37 119.67 444.43 119.73L444.45 119.76L444.56 119.89L444.59 119.93C444.62 119.97 444.66 120.01 444.7 120.05L444.72 120.09L444.84 120.22L444.86 120.25C444.89 120.29 444.93 120.34 444.97 120.38L444.98 120.4C445.04 120.46 445.09 120.53 445.14 120.59L445.17 120.63C445.21 120.67 445.24 120.71 445.28 120.75L445.3 120.79C445.34 120.83 445.37 120.87 445.41 120.91L445.44 120.95C445.47 120.99 445.51 121.04 445.54 121.07L445.57 121.12C445.61 121.16 445.64 121.2 445.68 121.24C445.69 121.26 445.7 121.27 445.71 121.29C445.75 121.32 445.78 121.36 445.81 121.41L445.84 121.44C445.87 121.48 445.91 121.52 445.95 121.57L445.96 121.58C446 121.64 446.05 121.7 446.1 121.76L446.15 121.82L446.24 121.93L446.28 121.98C446.32 122.02 446.35 122.06 446.38 122.1L446.41 122.14C446.45 122.18 446.48 122.22 446.51 122.27L446.55 122.32C446.59 122.35 446.62 122.39 446.64 122.43L446.71 122.5C446.73 122.54 446.76 122.57 446.78 122.6C446.8 122.62 446.83 122.65 446.85 122.68C446.88 122.72 446.91 122.76 446.95 122.8L446.98 122.84C447.02 122.88 447.05 122.93 447.08 122.96L447.12 123.01C447.15 123.05 447.18 123.09 447.21 123.13L447.25 123.18C447.29 123.22 447.32 123.26 447.34 123.29L447.38 123.34C447.41 123.38 447.45 123.42 447.48 123.46L447.52 123.51C447.55 123.55 447.58 123.59 447.61 123.63C447.63 123.65 447.66 123.68 447.68 123.71C447.7 123.74 447.73 123.77 447.75 123.8L447.81 123.88C447.84 123.92 447.88 123.96 447.91 124L447.95 124.04C447.98 124.08 448.01 124.13 448.04 124.16L448.07 124.21L448.17 124.33C448.19 124.35 448.2 124.37 448.22 124.39L448.3 124.49C448.32 124.52 448.34 124.55 448.36 124.57L448.43 124.66C448.45 124.69 448.48 124.73 448.5 124.75C448.53 124.79 448.55 124.82 448.58 124.85C448.6 124.88 448.61 124.89 448.64 124.92L448.72 125.02L448.77 125.09L448.85 125.19C448.87 125.22 448.88 125.23 448.9 125.25C448.93 125.29 448.96 125.33 448.98 125.36L449.04 125.43L449.12 125.53C449.14 125.56 449.16 125.59 449.19 125.62L449.25 125.7L449.32 125.79C449.34 125.82 449.36 125.84 449.38 125.87L449.46 125.96C449.48 125.99 449.5 126.02 449.52 126.05L449.59 126.14C449.61 126.16 449.64 126.2 449.66 126.23L449.72 126.3C449.75 126.34 449.77 126.37 449.79 126.4C449.82 126.43 449.84 126.46 449.86 126.49C449.88 126.52 449.91 126.54 449.93 126.57C449.95 126.6 449.98 126.64 450 126.67C450.02 126.69 450.04 126.71 450.05 126.74C450.08 126.77 450.11 126.81 450.14 126.84L450.18 126.9C450.21 126.93 450.24 126.98 450.27 127.01C450.29 127.04 450.31 127.07 450.33 127.09C450.35 127.12 450.38 127.15 450.4 127.18C450.42 127.21 450.44 127.24 450.46 127.26C450.48 127.3 450.51 127.33 450.54 127.36L450.59 127.44C450.62 127.47 450.65 127.52 450.68 127.55L450.72 127.61L450.81 127.71L450.86 127.78L450.98 127.95L451.07 128.06L451.13 128.13L451.34 128.41C451.36 128.44 451.38 128.46 451.39 128.49C451.42 128.52 451.45 128.57 451.48 128.6C451.49 128.62 451.51 128.64 451.52 128.66C451.55 128.7 451.58 128.73 451.61 128.77L451.74 128.95C451.75 128.96 451.77 128.98 451.78 129C451.81 129.04 451.84 129.07 451.86 129.11C451.89 129.14 451.9 129.16 451.92 129.19C451.95 129.22 451.98 129.26 452 129.29L452.05 129.36C452.08 129.4 452.11 129.44 452.14 129.48L452.18 129.53C452.21 129.57 452.24 129.61 452.27 129.65L452.31 129.71L452.39 129.82L452.44 129.88L452.53 130L452.57 130.05L452.66 130.17L452.7 130.23C452.73 130.27 452.76 130.31 452.79 130.35L452.84 130.41C452.86 130.45 452.9 130.5 452.93 130.54L452.96 130.59L453.06 130.71L453.09 130.76C453.12 130.8 453.16 130.85 453.19 130.89L453.34 131.11L453.44 131.24L453.58 131.43L453.61 131.46L453.71 131.61L453.73 131.64C453.77 131.69 453.8 131.73 453.84 131.78L453.86 131.81C453.9 131.86 453.93 131.91 453.96 131.95L453.99 131.99C454.03 132.04 454.06 132.09 454.09 132.13L454.11 132.16C454.15 132.21 454.18 132.25 454.22 132.31L454.24 132.34C454.28 132.39 454.31 132.44 454.35 132.49L454.37 132.52C454.41 132.57 454.45 132.62 454.48 132.67L454.51 132.71C454.54 132.75 454.57 132.8 454.61 132.84L454.63 132.88C454.66 132.92 454.7 132.98 454.73 133.02L454.76 133.05C454.79 133.11 454.82 133.15 454.86 133.2L454.88 133.23C454.91 133.28 454.95 133.33 454.99 133.38L455.01 133.41L455.12 133.57L455.14 133.59L455.25 133.74L455.27 133.77C455.3 133.82 455.34 133.87 455.37 133.91L455.39 133.95C455.42 133.99 455.46 134.05 455.49 134.09L455.52 134.12L455.62 134.27L455.64 134.3C455.68 134.35 455.71 134.4 455.75 134.45L455.76 134.47C455.8 134.52 455.84 134.58 455.88 134.64L455.89 134.65C455.93 134.71 455.96 134.76 456 134.82L456.02 134.83C456.05 134.88 456.09 134.95 456.13 134.99L456.14 135.01C456.18 135.07 456.21 135.11 456.25 135.17L456.27 135.19L456.38 135.35L456.39 135.37C456.43 135.42 456.46 135.47 456.5 135.53L456.51 135.54C456.63 135.71 456.76 135.89 456.89 136.05C457 136.23 457.12 136.41 457.24 136.59L457.24 136.6C457.27 136.64 457.3 136.69 457.34 136.74L457.34 136.75C457.38 136.8 457.41 136.85 457.45 136.89L457.45 136.89C466.21 149.58 473.38 163.3 478.79 177.75C481.03 183.77 487.73 186.83 493.75 184.59C499.77 182.35 502.83 175.67 500.61 169.65C494.49 153.3 486.36 137.77 476.42 123.42C476.29 123.22 476.15 123.03 476 122.84C475.88 122.64 475.75 122.45 475.61 122.25C453.84 90.95 421.97 61.76 383.45 37.84C381.61 36.69 379.48 36.09 377.32 36.09L377.32 36.08Z" />
	<path id="Layer" class="shp5" d="M256.02 46.54C256.02 59.39 245.6 69.81 232.74 69.81C219.89 69.81 209.47 59.39 209.47 46.54C209.47 33.69 219.89 23.27 232.74 23.27C245.6 23.27 256.02 33.69 256.02 46.54Z" />
	<path id="Layer" class="shp5" d="M325.83 93.09C325.83 105.94 315.41 116.36 302.56 116.36C289.71 116.36 279.29 105.94 279.29 93.09C279.29 80.23 289.71 69.81 302.56 69.81C315.41 69.81 325.83 80.23 325.83 93.09Z" />
	<path id="Layer" class="shp6" d="M139.66 46.54C139.66 59.39 129.24 69.81 116.39 69.81C103.54 69.81 93.11 59.39 93.11 46.54C93.11 33.69 103.54 23.27 116.39 23.27C129.24 23.27 139.66 33.69 139.66 46.54Z" />
	<path id="Layer" class="shp7" d="M116.39 34.91C116.39 41.33 111.18 46.54 104.75 46.54C98.32 46.54 93.12 41.33 93.12 34.91C93.12 28.48 98.32 23.27 104.75 23.27C111.18 23.27 116.39 28.48 116.39 34.91Z" />
	<path id="Layer" class="shp4" d="M58.21 116.36C51.79 116.36 46.58 111.16 46.57 104.73C46.57 104.73 46.57 104.73 46.57 104.72L46.57 95.18C46.6 91.18 44.53 87.46 41.12 85.38C1.19 61.59 0.03 37.57 0.03 34.91C0.03 28.48 5.25 23.27 11.68 23.27C17.91 23.27 23.04 28.2 23.3 34.43C23.44 35.43 25.94 49.25 53.03 65.38C63.46 71.68 69.84 82.98 69.84 95.18L69.84 104.72C69.85 111.14 64.64 116.36 58.22 116.36C58.22 116.36 58.21 116.36 58.21 116.36Z" />
	<path id="Layer" class="shp8" d="M69.84 104.72C69.84 111.15 64.63 116.36 58.21 116.36C51.78 116.36 46.57 111.15 46.57 104.72C46.57 98.3 51.78 93.09 58.21 93.09C64.63 93.09 69.84 98.3 69.84 104.72Z" />
	<path id="Layer" class="shp3" d="M21.96 74.95C15.54 74.95 10.32 80.15 10.32 86.58C10.31 90.25 12.05 93.71 14.99 95.91C17.62 97.88 20.4 99.81 23.3 101.7L23.3 104.72C23.31 120.56 33.97 134.41 49.28 138.47C49.9 138.64 50.54 138.75 51.18 138.81C51.79 139 52.41 139.15 53.05 139.25C54.31 139.43 55.58 139.55 56.85 139.6C57 139.61 57.16 139.61 57.31 139.61C63.73 139.61 68.94 134.39 68.94 127.97C68.93 121.72 63.99 116.59 57.75 116.35L57.71 116.35C57.29 116.33 56.88 116.29 56.47 116.23C56.26 116.2 56.05 116.17 55.84 116.15C55.64 116.09 55.43 116.03 55.22 115.97C51.31 114.93 48.21 111.93 47.05 108.05L47.04 108.01C47.03 107.96 47.02 107.92 47 107.88L47 107.87L47 107.84C46.98 107.79 46.97 107.75 46.96 107.7L46.96 107.7L46.95 107.67L46.95 107.66L46.94 107.63C46.93 107.6 46.92 107.56 46.91 107.53L46.89 107.46C46.88 107.41 46.87 107.36 46.86 107.32L46.86 107.31L46.86 107.29L46.85 107.28L46.84 107.25C46.84 107.22 46.84 107.2 46.83 107.18L46.82 107.14L46.82 107.14L46.82 107.11L46.81 107.1L46.79 106.96L46.79 106.96L46.78 106.93L46.78 106.92L46.77 106.89L46.77 106.89L46.76 106.82L46.76 106.82L46.75 106.79L46.75 106.78L46.75 106.75L46.75 106.74L46.74 106.71L46.74 106.71L46.73 106.68L46.73 106.68L46.72 106.61L46.72 106.6L46.71 106.57L46.71 106.56L46.71 106.54L46.71 106.53L46.71 106.5L46.7 106.49L46.7 106.43L46.7 106.42L46.69 106.39L46.69 106.38L46.68 106.36L46.68 106.35L46.68 106.32L46.68 106.31C46.68 106.29 46.67 106.27 46.67 106.24L46.67 106.23L46.66 106.21L46.66 106.2L46.66 106.17L46.66 106.16L46.66 106.14L46.66 106.13L46.65 106.1L46.65 106.09L46.65 106.06L46.64 106.05L46.64 106.03L46.64 106.02L46.64 105.99L46.64 105.98L46.64 105.96L46.63 105.95L46.63 105.91L46.63 105.88L46.63 105.84L46.63 105.83L46.62 105.81L46.62 105.8L46.62 105.77L46.62 105.76L46.61 105.74L46.61 105.73L46.61 105.69L46.61 105.66L46.61 105.65L46.61 105.61L46.6 105.59L46.6 105.55L46.6 105.54L46.59 105.47L46.59 105.46L46.59 105.44L46.59 105.39L46.59 105.37L46.59 105.32L46.58 105.29L46.58 105.24L46.58 105.21L46.58 105.13L46.57 105.1L46.57 105.02L46.57 105L46.57 95.18C46.59 91.18 44.52 87.46 41.11 85.38L41 85.32L40.96 85.29L40.89 85.25L40.84 85.22L40.78 85.18L40.72 85.15L40.67 85.12C40.65 85.11 40.63 85.09 40.61 85.08L40.56 85.05C40.54 85.04 40.52 85.03 40.5 85.02L40.45 84.99C40.43 84.97 40.41 84.96 40.39 84.95L40.35 84.92C40.32 84.91 40.3 84.89 40.28 84.88L40.24 84.86L40.16 84.81L40.14 84.8L40.05 84.75L40.05 84.75C39.92 84.66 39.78 84.58 39.64 84.5L39.64 84.49C39.61 84.47 39.57 84.45 39.54 84.43L39.53 84.43L39.44 84.37L39.42 84.36L39.33 84.3L39.32 84.3C39.29 84.28 39.26 84.26 39.23 84.24L39.21 84.23L39.12 84.18L39.11 84.17C38.8 83.98 38.5 83.79 38.2 83.6C37.05 82.88 35.93 82.16 34.84 81.44L34.84 81.44L34.75 81.38L34.75 81.38L34.66 81.32L34.64 81.31C34.62 81.29 34.59 81.27 34.56 81.25L34.55 81.25C34.34 81.11 34.13 80.96 33.91 80.82L33.89 80.8L33.82 80.75L33.79 80.74L33.72 80.69L33.7 80.67L33.63 80.63L33.6 80.61L33.53 80.56L33.5 80.54L33.43 80.49L33.41 80.47L33.34 80.43L33.31 80.41L33.09 80.26L33.05 80.23L33 80.2L32.96 80.17L32.91 80.13L32.82 80.07L32.76 80.03L32.72 80L32.67 79.96L32.63 79.94L32.57 79.9L32.53 79.87L32.47 79.83L32.43 79.8L32.37 79.76L32.34 79.74C32.31 79.72 32.29 79.7 32.26 79.69L32.24 79.67C32.14 79.61 32.05 79.54 31.95 79.47L31.95 79.46L31.85 79.4L31.84 79.39L31.76 79.33L31.75 79.32C31.71 79.3 31.69 79.28 31.66 79.26L31.64 79.25L31.56 79.2L31.55 79.18L31.46 79.13L31.45 79.12C30.58 78.5 29.73 77.88 28.91 77.27C26.91 75.76 24.46 74.95 21.96 74.95Z" />
	<path id="Layer" class="shp4" d="M209.47 232.71C196.62 232.71 186.21 222.29 186.21 209.44C186.21 199.43 192.62 190.55 202.11 187.38C204.2 186.65 256.02 168.11 256.02 116.36C256.02 81.02 239.97 63.45 239.29 62.72C230.59 53.42 230.89 38.88 239.97 29.95C249.02 21.11 263.5 21.16 272.47 30.09C275.56 33.16 302.56 61.75 302.56 116.36C302.56 201.96 220.34 230.35 216.84 231.51C214.46 232.3 211.98 232.71 209.47 232.71L209.47 232.71Z" />
	<path id="Layer" class="shp4" d="M209.47 232.71C196.62 232.71 186.21 222.29 186.21 209.44C186.21 199.43 192.62 190.55 202.11 187.38C204.2 186.65 256.02 168.11 256.02 116.36C256.02 81.02 239.97 63.45 239.29 62.72C230.59 53.42 230.89 38.88 239.97 29.95C249.02 21.11 263.5 21.16 272.47 30.09C275.56 33.16 302.56 61.75 302.56 116.36C302.56 201.96 220.34 230.35 216.84 231.51C214.46 232.3 211.98 232.71 209.47 232.71L209.47 232.71Z" />
	<path id="Layer" class="shp8" d="M277.2 116.36C265.97 116.34 256.35 108.31 254.33 97.27C250.18 74.56 239.74 63.2 239.29 62.72C230.59 53.42 230.89 38.88 239.97 29.95C249.02 21.11 263.5 21.16 272.47 30.09C274.58 32.2 293.31 51.82 300.1 88.9C302.42 101.54 294.06 113.65 281.43 115.96C281.42 115.97 281.41 115.97 281.4 115.97C280.02 116.23 278.61 116.36 277.2 116.36Z" />
	<path id="Layer" class="shp5" d="M418.91 162.9C418.91 175.75 408.5 186.17 395.64 186.17C382.79 186.17 372.37 175.75 372.37 162.9C372.37 150.05 382.79 139.63 395.64 139.63C408.5 139.63 418.91 150.05 418.91 162.9L418.91 162.9Z" />
	<path id="Layer" class="shp4" d="M349.1 325.8C349.1 338.65 338.68 349.07 325.83 349.07C312.98 349.07 302.56 338.65 302.56 325.8C302.56 312.95 312.98 302.53 325.83 302.53C338.68 302.53 349.1 312.95 349.1 325.8L349.1 325.8Z" />
	<path id="Layer" class="shp3" d="M232.74 407.25C232.74 413.68 227.54 418.89 221.11 418.89C214.68 418.89 209.47 413.68 209.47 407.25C209.47 400.82 214.68 395.61 221.11 395.61C227.54 395.61 232.74 400.82 232.74 407.25Z" />
	<path id="Layer" class="shp3" d="M279.29 360.71C279.29 367.13 274.08 372.34 267.65 372.34C261.22 372.34 256.02 367.13 256.02 360.71C256.02 354.28 261.22 349.07 267.65 349.07C274.08 349.07 279.29 354.28 279.29 360.71L279.29 360.71Z" />
	<path id="Layer" class="shp9" d="M372.37 186.17C372.37 199.02 361.95 209.44 349.1 209.44C336.25 209.44 325.83 199.02 325.83 186.17C325.83 173.32 336.25 162.9 349.1 162.9C361.95 162.9 372.37 173.32 372.37 186.17Z" />
	<path id="Layer" class="shp4" d="M162.93 104.72C162.93 111.15 157.72 116.36 151.29 116.36C144.87 116.36 139.66 111.15 139.66 104.72C139.66 98.3 144.87 93.09 151.29 93.09C157.72 93.09 162.93 98.3 162.93 104.72Z" />
	<path id="Layer" class="shp8" d="M465.46 267.62C465.46 274.05 460.25 279.26 453.82 279.26C447.39 279.26 442.19 274.05 442.19 267.62C442.19 261.2 447.39 255.98 453.82 255.98C460.25 255.98 465.46 261.2 465.46 267.62L465.46 267.62Z" />
	<path id="Layer" class="shp8" d="M418.91 360.71C418.91 367.13 413.71 372.34 407.28 372.34C400.85 372.34 395.64 367.13 395.64 360.71C395.64 354.28 400.85 349.07 407.28 349.07C413.71 349.07 418.91 354.28 418.91 360.71L418.91 360.71Z" />
	<path id="Layer" class="shp8" d="M465.46 314.16C465.46 320.59 460.25 325.8 453.82 325.8C447.39 325.8 442.19 320.59 442.19 314.16C442.19 307.74 447.39 302.53 453.82 302.53C460.25 302.53 465.46 307.74 465.46 314.16L465.46 314.16Z" />
	<path id="Layer" class="shp4" d="M349.1 383.98C349.1 390.4 343.89 395.61 337.46 395.61C331.04 395.61 325.83 390.4 325.83 383.98C325.83 377.55 331.04 372.34 337.46 372.34C343.89 372.34 349.1 377.55 349.1 383.98L349.1 383.98Z" />
	<path id="Layer" class="shp4" d="M139.66 407.25C139.66 413.68 134.45 418.89 128.02 418.89C121.6 418.89 116.39 413.68 116.39 407.25C116.39 400.82 121.6 395.61 128.02 395.61C134.45 395.61 139.66 400.82 139.66 407.25Z" />
	<path id="Layer" class="shp8" d="M418.91 151.27C418.91 157.69 413.71 162.9 407.28 162.9C400.85 162.9 395.64 157.69 395.64 151.27C395.64 144.84 400.85 139.63 407.28 139.63C413.71 139.63 418.91 144.84 418.91 151.27Z" />
	<path id="Layer" class="shp5" d="M116.39 372.43C116.39 343.14 87.45 307.48 66.95 289.79C54.57 279.18 37.01 277.04 22.45 284.39C7.1 292.21 -1.74 308.78 0.29 325.89C5.5 372.82 46.57 395.7 46.57 395.7C33.17 409.11 2.68 444.65 0.27 466.7C-2 489.34 14.52 509.52 37.15 511.79C49.59 513.03 61.92 508.55 70.67 499.63C100.17 469.67 116.39 418.97 116.39 418.97C93.12 418.97 93.12 395.7 93.12 395.7C93.12 395.7 93.12 372.43 116.39 372.43L116.39 372.43Z" />
	<path id="Layer" class="shp7" d="M40.71 280.07L40.61 280.07L40.56 280.07L40.23 280.07C39.96 280.07 39.7 280.08 39.43 280.09L39.43 280.09C39.25 280.09 39.08 280.1 38.91 280.11C32.72 280.47 27.95 285.7 28.16 291.9C28.38 298.27 33.6 303.33 39.98 303.35C40.04 303.35 40.1 303.35 40.16 303.35L40.71 303.34C44.76 303.33 48.68 304.77 51.75 307.41C64.79 318.67 81.4 338.14 89.11 356.25C91.62 362.17 98.45 364.92 104.37 362.41C110.27 359.9 113.03 353.09 110.54 347.18C109.45 344.62 108.23 342.06 106.91 339.52L106.91 339.51C106.82 339.34 106.72 339.16 106.63 338.98L106.63 338.97C106.58 338.88 106.54 338.8 106.49 338.71L106.48 338.7C106.44 338.62 106.39 338.53 106.35 338.45L106.34 338.43L106.3 338.35L106.29 338.33L106.21 338.18L106.2 338.16L106.16 338.09L106.14 338.05L106.07 337.92L106.05 337.89L105.96 337.72L105.95 337.71L105.88 337.56L105.85 337.52L105.81 337.45L105.79 337.41C105.77 337.38 105.75 337.34 105.73 337.3L105.71 337.26C105.69 337.23 105.68 337.21 105.67 337.19L105.64 337.14C105.63 337.11 105.61 337.08 105.59 337.05L105.53 336.93C105.52 336.91 105.51 336.89 105.5 336.88C105.48 336.85 105.47 336.82 105.45 336.79L105.41 336.73L105.35 336.61L105.32 336.56C105.3 336.52 105.29 336.49 105.27 336.46L105.24 336.41L105.2 336.35L105.18 336.3C105.16 336.27 105.15 336.24 105.13 336.22L105.09 336.15L105.06 336.09C105.05 336.07 105.04 336.05 105.03 336.04L104.98 335.95L104.96 335.91C104.94 335.88 104.93 335.85 104.91 335.82L104.88 335.77L104.84 335.7L104.82 335.66C104.8 335.63 104.78 335.59 104.76 335.55L104.74 335.52C104.72 335.49 104.71 335.46 104.69 335.44L104.67 335.4L104.61 335.29L104.59 335.27C104.58 335.23 104.56 335.2 104.54 335.17L104.52 335.14C104.5 335.1 104.48 335.07 104.46 335.03L104.45 335.01L104.39 334.91L104.38 334.88C104.36 334.84 104.34 334.81 104.32 334.78L104.3 334.75L104.25 334.66L104.23 334.62C104.21 334.59 104.19 334.55 104.17 334.52L104.16 334.51C104.14 334.47 104.12 334.43 104.09 334.39L104.08 334.36C104.06 334.33 104.04 334.3 104.02 334.27L104.01 334.25C103.99 334.21 103.96 334.17 103.94 334.13L103.93 334.11C103.91 334.07 103.89 334.04 103.87 334L103.86 333.99L103.72 333.75L103.71 333.73C103.66 333.65 103.61 333.57 103.57 333.49L103.56 333.48C103.51 333.39 103.46 333.31 103.41 333.23L103.41 333.22C103.33 333.09 103.26 332.97 103.18 332.84C103.13 332.76 103.08 332.67 103.03 332.59L103.03 332.58C93.46 316.99 81.66 302.88 68 290.71L68 290.71C67.94 290.66 67.88 290.61 67.83 290.55L67.82 290.55C67.77 290.5 67.71 290.45 67.66 290.41L67.64 290.39L67.57 290.33L67.56 290.32C67.54 290.3 67.51 290.28 67.48 290.25L67.46 290.24L67.39 290.18L67.39 290.17L67.3 290.1L67.29 290.09L67.22 290.03L67.21 290.02C67.18 289.99 67.16 289.97 67.13 289.95L67.11 289.93L67.05 289.88L67.03 289.86C67 289.84 66.98 289.82 66.95 289.79C59.66 283.5 50.34 280.05 40.71 280.07L40.71 280.07Z" />
	<path id="Layer" class="shp8" d="M395.64 93.09C395.64 105.94 385.22 116.36 372.37 116.36C359.52 116.36 349.1 105.94 349.1 93.09C349.1 80.23 359.52 69.81 372.37 69.81C385.22 69.81 395.64 80.23 395.64 93.09Z" />
	<path id="Layer" class="shp9" d="M151.29 186.17C149.2 186.17 99.64 185.88 73.25 159.49C68.71 154.95 68.71 147.58 73.25 143.04C77.8 138.5 85.16 138.5 89.71 143.04C109.23 162.56 150.88 162.9 151.32 162.9C157.74 162.91 162.94 168.14 162.92 174.56C162.91 180.98 157.71 186.17 151.29 186.17Z" />
	<path id="Layer" class="shp0" d="M82.93 393.8C76.5 393.81 71.29 399.03 71.29 405.46C71.29 406.49 71.43 407.52 71.7 408.52C74.06 417.64 79.19 425.81 86.38 431.91C80.2 445.95 70.55 464.69 58.02 479.04C57.91 479.18 57.79 479.31 57.69 479.45C57.57 479.57 57.45 479.7 57.33 479.83C56.27 481.02 55.2 482.17 54.09 483.29C49.86 487.61 43.75 489.51 37.82 488.38C31.52 487.16 25.41 491.3 24.2 497.61C22.99 503.9 27.1 509.98 33.38 511.22C34.01 511.34 34.64 511.45 35.27 511.54L35.27 511.54L35.34 511.55L35.35 511.55L35.41 511.56C35.46 511.57 35.51 511.57 35.56 511.58L35.57 511.58L35.63 511.59L35.7 511.6L35.71 511.6L35.77 511.61L35.79 511.61L35.86 511.62L35.86 511.62L35.92 511.63L35.95 511.63L35.98 511.64L36.05 511.65L36.09 511.65L36.16 511.66L36.26 511.67L36.28 511.68L36.32 511.68L36.35 511.68L36.39 511.69L36.41 511.69L36.46 511.7L36.47 511.7C36.52 511.7 36.58 511.71 36.64 511.71L36.64 511.71L36.7 511.72L36.71 511.72L36.76 511.73L36.77 511.73L36.82 511.73L36.83 511.74C36.89 511.74 36.95 511.75 37 511.75L37.01 511.75L37.06 511.76L37.07 511.76L37.13 511.77L37.13 511.77C37.21 511.78 37.29 511.79 37.37 511.79L37.38 511.79L37.43 511.8L37.44 511.8L37.49 511.8L37.5 511.8C37.58 511.81 37.66 511.82 37.73 511.82L37.74 511.82L37.79 511.83L37.8 511.83L37.86 511.83L37.86 511.83C37.94 511.84 38.02 511.85 38.1 511.85L38.11 511.85L38.16 511.86L38.17 511.86L38.22 511.86L38.23 511.86C38.31 511.87 38.38 511.87 38.46 511.88L38.47 511.88L38.52 511.88L38.54 511.88L38.59 511.89L38.6 511.89C38.65 511.89 38.71 511.89 38.76 511.9L38.82 511.9L38.84 511.9L38.91 511.9L38.95 511.91L38.97 511.91C39.02 511.91 39.07 511.91 39.13 511.91L39.14 511.91L39.18 511.92L39.21 511.92L39.25 511.92L39.28 511.92L39.31 511.93L39.34 511.93C39.39 511.93 39.43 511.93 39.48 511.93L39.51 511.93L39.57 511.93L39.61 511.94L39.68 511.94L39.71 511.94L39.81 511.94L39.84 511.95L39.95 511.95L39.98 511.95L40.08 511.95L40.11 511.95L40.24 511.95L40.27 511.96L40.41 511.96L40.46 511.96L40.64 511.96L40.68 511.96L40.98 511.96L41 511.97L41.21 511.97C52.29 511.97 62.91 507.52 70.68 499.62L70.83 499.47L70.86 499.44L70.89 499.41L70.9 499.39C70.94 499.35 70.98 499.31 71.02 499.27L71.03 499.26C71.33 498.96 71.62 498.65 71.92 498.34L71.93 498.33C71.95 498.31 71.98 498.28 72 498.25L72.04 498.21L72.07 498.18L72.09 498.16C72.11 498.14 72.13 498.12 72.14 498.11L72.16 498.08L72.2 498.04L72.22 498.02L72.27 497.97L72.34 497.9L72.34 497.89C73.14 497.04 73.94 496.18 74.72 495.3C74.86 495.14 75 494.98 75.13 494.81C75.28 494.66 75.43 494.5 75.57 494.34C83 485.63 89.56 476.22 95.16 466.24C95.29 466.01 95.42 465.78 95.55 465.55L95.6 465.47L95.61 465.44L95.63 465.41L95.64 465.4L95.66 465.37L95.66 465.35L95.71 465.27L95.72 465.25C95.77 465.16 95.82 465.07 95.88 464.97L95.88 464.96L95.93 464.88L95.94 464.86L95.99 464.78L96 464.76L96.02 464.73L96.02 464.72L96.05 464.66L96.07 464.63L96.08 464.62L96.1 464.58L96.11 464.57C96.19 464.43 96.27 464.29 96.34 464.14L96.35 464.14L96.38 464.08L96.4 464.05L96.41 464.03L96.44 463.97L96.45 463.96L96.5 463.86L96.5 463.86L96.56 463.76L96.56 463.75C96.61 463.67 96.66 463.58 96.71 463.49L96.73 463.46L96.75 463.42L96.76 463.4L96.77 463.37L96.79 463.35L96.8 463.32L96.82 463.29L96.82 463.28L96.84 463.24L96.85 463.23L96.88 463.18L96.88 463.18C96.91 463.12 96.94 463.07 96.96 463.02L96.96 463.02L97 462.97L97 462.96C97.02 462.91 97.05 462.86 97.08 462.81L97.08 462.81L97.11 462.76L97.11 462.76C97.12 462.74 97.13 462.73 97.14 462.71L97.14 462.7L97.19 462.61L97.2 462.59C97.27 462.46 97.35 462.32 97.42 462.19L97.43 462.17L97.45 462.13L97.48 462.08C97.52 462.01 97.55 461.95 97.59 461.87L97.6 461.87L97.62 461.83L97.63 461.81L97.64 461.79L97.66 461.76C97.72 461.64 97.79 461.52 97.85 461.41L97.85 461.4L97.88 461.36L97.89 461.34L97.9 461.31L97.93 461.25L97.94 461.24L97.99 461.15L97.99 461.14C98.01 461.11 98.02 461.08 98.04 461.05L98.05 461.04L98.09 460.96L98.12 460.91C98.19 460.78 98.25 460.66 98.32 460.53L98.33 460.52C105.48 447.18 111.52 433.29 116.39 418.97L116.3 418.97C101.77 418.93 96.35 409.79 94.32 402.98L94.32 402.98L94.31 402.94L94.29 402.86L94.29 402.86L94.28 402.82L94.27 402.81L94.27 402.78L94.26 402.78L94.25 402.74L94.25 402.73L94.24 402.7L94.23 402.65L94.22 402.62L94.21 402.61L94.21 402.58L94.2 402.56L94.2 402.54L94.19 402.53L94.19 402.51L94.18 402.47L94.17 402.46L94.17 402.43L94.15 402.39L94.15 402.37C92.76 397.32 88.17 393.81 82.93 393.8L82.93 393.8Z" />
	<path id="Layer" class="shp7" d="M81.48 349.07L104.75 349.07C111.18 349.07 116.39 354.28 116.39 360.71C116.39 367.13 111.18 372.34 104.75 372.34L81.48 372.34C75.05 372.34 69.84 367.13 69.84 360.71C69.84 354.28 75.05 349.07 81.48 349.07L81.48 349.07Z" />
	<path id="Layer" class="shp0" d="M58.21 395.61L81.48 395.61C87.91 395.61 93.12 400.82 93.12 407.25C93.12 413.68 87.91 418.88 81.48 418.88L58.21 418.88C51.78 418.88 46.57 413.68 46.57 407.25C46.57 400.82 51.78 395.61 58.21 395.61L58.21 395.61Z" />
	<path id="Layer" class="shp0" d="M34.94 442.16L81.48 442.16C87.91 442.16 93.11 447.37 93.11 453.79C93.11 460.22 87.91 465.43 81.48 465.43L34.94 465.43C28.51 465.43 23.3 460.22 23.3 453.79C23.3 447.37 28.51 442.16 34.94 442.16Z" />
	<path id="Layer" class="shp7" d="M11.66 302.53L58.21 302.53C64.63 302.53 69.84 307.74 69.84 314.16C69.84 320.59 64.63 325.8 58.21 325.8L11.66 325.8C5.24 325.8 0.03 320.59 0.03 314.16C0.03 307.74 5.24 302.53 11.66 302.53L11.66 302.53Z" />
	<path id="Layer" class="shp7" d="M46.57 337.43C46.57 343.86 41.36 349.07 34.94 349.07C28.51 349.07 23.3 343.86 23.3 337.43C23.3 331.01 28.51 325.8 34.94 325.8C41.36 325.8 46.57 331.01 46.57 337.43Z" />
	<path id="Layer" class="shp0" d="M46.57 430.52C46.57 436.95 41.36 442.16 34.94 442.16C28.51 442.16 23.3 436.95 23.3 430.52C23.3 424.09 28.51 418.89 34.94 418.89C41.36 418.89 46.57 424.09 46.57 430.52L46.57 430.52Z" />
</svg>