<svg xmlns="http://www.w3.org/2000/svg" viewBox="0 0 512 512" width="512" height="512">
	<style>
		tspan { white-space:pre }
		.shp0 { fill: #5a4843 } 
		.shp1 { fill: #57342d } 
		.shp2 { fill: #5a3a32 } 
		.shp3 { fill: #532d25 } 
		.shp4 { fill: #241d1b } 
		.shp5 { fill: #1d1716 } 
	</style>
	<path id="Layer" class="shp0" d="M90.01 225.51L90.01 285.52C90.01 326.92 56.41 360.52 15 360.52L0 360.52L0 315.52C0 290.92 12 269.31 30.61 255.51C12 241.71 0 220.11 0 195.51L0 150.5L15 150.5C56.41 150.5 90.01 184.11 90.01 225.51Z" />
	<path id="Layer" class="shp1" d="M391.95 338.32L380.54 371.63C359.54 379.13 337.94 383.03 316.04 383.03C223.63 383.03 122.51 317.92 53.8 255.52C122.51 193.11 223.63 128 316.04 128C334.64 128 352.64 131.3 370.04 136.4L376.64 181.11C365.24 204.21 359.84 230.01 361.34 255.52C362.84 284.62 372.74 313.42 391.95 338.32Z" />
	<path id="Layer" class="shp2" d="M30.61 255.51L90.01 255.51L90.01 285.52C90.01 326.92 56.41 360.52 15 360.52L0 360.52L0 315.52C0 290.92 12 269.31 30.61 255.51Z" />
	<path id="Layer" class="shp3" d="M361.34 255.51C362.84 284.62 372.74 313.42 391.95 338.32L380.54 371.63C359.54 379.13 337.94 383.03 316.04 383.03C223.63 383.03 122.51 317.92 53.8 255.51L361.34 255.51Z" />
	<path id="Layer" class="shp0" d="M370.04 135.5C343.94 173.3 329.54 214.11 331.34 255.51C332.54 294.52 348.14 334.12 380.24 372.23C436.65 348.82 479.6 312.52 512 255.51C478.7 197.31 433.65 158 370.04 135.5L370.04 135.5Z" />
	<path id="Layer" class="shp4" d="M384.73 255.5L406.04 234.19L427.34 255.5L406.04 276.8L384.73 255.5Z" />
	<path id="Layer" class="shp0" d="M241.03 210.51C213.43 210.51 193.32 232.71 178.02 255.51C193.32 278.32 213.43 300.52 241.03 300.52C268.63 300.52 288.73 278.32 304.03 255.51C288.73 232.71 268.63 210.51 241.03 210.51Z" />
	<path id="Layer" class="shp2" d="M178.02 255.51L304.04 255.51C288.73 278.32 268.63 300.52 241.03 300.52C213.43 300.52 193.32 278.32 178.02 255.51L178.02 255.51Z" />
	<path id="Layer" class="shp2" d="M512 255.51C479.59 312.52 436.65 348.82 380.24 372.23C348.14 334.12 332.54 294.52 331.34 255.51L512 255.51Z" />
	<path id="Layer" class="shp5" d="M427.35 255.51L406.05 276.82L384.74 255.51L427.35 255.51Z" />
</svg>