<svg height="512" viewBox="0 0 58 58" width="512" xmlns="http://www.w3.org/2000/svg"><g id="024---Growing-Money" fill="none" transform="translate(-1)"><path id="Shape" d="m30 0c11.53 0 20 16.28 20 30.17s-11.35 19.83-20 19.83-20-5.94-20-19.83 8.47-30.17 20-30.17z" fill="#fdd7ad"/><path id="Shape" d="m26 6c-.4669086.00192727-.8730064-.31950838-.9783458-.77438309-.1053394-.4548747.1181205-.92210264.5383458-1.12561691 1.375135-.70478145 2.8948905-1.08129744 4.44-1.1.5522847 0 1 .44771525 1 1s-.4477153 1-1 1c-1.2497589.01216582-2.4792834.31697831-3.59.89-.1260838.06847603-.2665726.10616815-.41.11z" fill="#fff"/><path id="Shape" d="m18.47 14c-.3518727-.0025526-.6765082-.1898564-.8548298-.4932081-.1783217-.3033518-.1840828-.678102-.0151702-.9867919 1.0099054-1.8591774 2.2422964-3.58855444 3.67-5.15.3783151-.40316784 1.0118321-.42331501 1.415-.04499997.4031678.37831504.423315 1.0118321.045 1.41499997-1.3167051 1.4354767-2.4518907 3.0274234-3.38 4.74-.1758972.3214804-.5135461.5210002-.88.52z" fill="#fff"/><path id="Shape" d="m10 30.17c.0536257-5.5130927 1.230945-10.9573439 3.46-16-10.69-1.58-14.7 13-11.26 23.6 2.71 8.32 10.65 10.16 16.42 8.92-4.85-3.15-8.62-8.51-8.62-16.52z" fill="#f9c795"/><path id="Shape" d="m50 30.17c-.0536257-5.5130927-1.230945-10.9573439-3.46-16 10.69-1.58 14.7 13 11.26 23.6-2.71 8.32-10.65 10.16-16.42 8.92 4.85-3.15 8.62-8.51 8.62-16.52z" fill="#f9c795"/><path id="Shape" d="m58.35 52.25-5.85.56c-.2812447.0348123-.5179078.2271874-.6094374.4953904s-.0218486.5651242.1794374.7646096l1.44 2.22c.1172882.1605357.1181661.3782559.0021761.5397321s-.3225945.2301599-.5121761.1702679l-8-2.66c-.6087275-.1949167-1.2739525-.0871428-1.79.29l-2.51 1.88c-.4100195.3162174-.9632878.3742525-1.43.15l-5.27-2.5c-.2982564-.2429706-.7329353-.2168898-1 .06l-2.31 3.45c-.1690161.2074596-.4224071.3278612-.69.3278612s-.5209839-.1204016-.69-.3278612l-2.31-3.45c-.2670647-.2768898-.7017436-.3029706-1-.06l-5.26 2.48c-.4667122.2242525-1.0199805.1662174-1.43-.15l-2.51-1.88c-.5184831-.3804312-1.1882702-.4883413-1.8-.29l-8 2.68c-.18325158.050194-.37850712-.0174436-.49144232-.1702383s-.12030838-.3593018-.01855768-.5197617l1.44-2.22c.20128599-.1994854.27096701-.4964066.17943743-.7646096s-.32819271-.4605781-.60943743-.4953904l-5.85-.56c-.29055881-.0234074-.53933941-.2174289-.63282325-.4935323s-.01374832-.5813547.20282325-.7764677l3.14-2.36c.15742834-.156392.23636372-.3751777.21505075-.5960575-.02131296-.2208799-.14062436-.4205365-.32505075-.5439425l-.92-.5c-.25028905-.1606033-.37813554-.4569809-.32319816-.7492478.05493738-.2922668.28167559-.5219932.57319816-.5807522l3.85-.88c.39093737.256764.79850153.4872716 1.22.69 3.1118509 1.4870403 6.6303705 1.8951885 10 1.16 3.4003881 2.1467914 7.3289515 3.3097846 11.35 3.36 4.0302274-.0422068 7.9696992-1.2018931 11.38-3.35 3.8236132.8535029 7.829286.1864884 11.17-1.86l3.87.88c.2915226.058759.5182608.2884854.5731982.5807522.0549373.2922669-.0729092.5886445-.3231982.7492478l-.92.5c-.1844264.123406-.3037378.3230626-.3250508.5439425-.0213129.2208798.0576225.4396655.2150508.5960575l3.14 2.36c.2033115.1970584.2743366.4939086.1822341.7616485-.0921025.26774-.3307189.4580735-.6122341.4883515z" fill="#f0c419"/><path id="Shape" d="m53.79 49.12-4.91.46c-.2374648.0279529-.4376928.189964-.5145846.4163675-.0768917.2264035-.0167419.4768449.1545846.6436325l1.21 1.87c.0868039.1340061.0805813.3079817-.0155744.4354439s-.2617337.1812223-.4144256.1345561l-6.74-2.23c-.5091426-.1703491-1.0694259-.0807038-1.5.24l-2.06 1.58c-.3498162.2598055-.8129785.3095668-1.21.13-5.07-2.39-4.65-2.22-4.8-2.22-.1615108.0007075-.3161486.0654396-.43.18l-1.94 2.9c-.1403627.1771466-.3539854.280435-.58.280435s-.4396373-.1032884-.58-.280435l-1.94-2.9c-.2325684-.2111152-.5874316-.2111152-.82 0l-4.45 2.04c-.4078596.1957593-.891151.145497-1.25-.13l-2.1-1.58c-.4305741-.3207038-.9908574-.4103491-1.5-.24l-6.7 2.23c-.1526919.0466662-.3182699-.0070939-.4144256-.1345561s-.1023783-.3014378-.0155744-.4354439l1.21-1.87c.1713265-.1667876.2314763-.417229.1545846-.6436325-.0768918-.2264035-.2771198-.3884146-.5145846-.4163675l-4.91-.46c-.23746478-.0279529-.4376928-.189964-.51458456-.4163675-.07689175-.2264035-.01674194-.4768449.15458456-.6436325l2.64-2c.15332011-.1548782.21406671-.3788813.16-.59 3.1118509 1.4870403 6.6303705 1.8951885 10 1.16 3.3993506 2.1503116 7.3279865 3.3167876 11.35 3.37 4.0302274-.0422068 7.9696992-1.2018931 11.38-3.35 3.3712306.7414759 6.8939474.3257953 10-1.18-.0713969.2152629-.0130853.4523966.15.61l2.64 2c.1601745.1707246.2105315.4171107.13019.6369925-.0803414.2198818-.2776808.3757635-.51019.4030075z" fill="#b19046"/><g fill="#f3d55b"><path id="Shape" d="m47 7c-.4062651.00236262-.77358-.24130378-.929371-.61651849-.1557909-.37521472-.0690889-.80739105.219371-1.09348151l1-1c.2536586-.25365859.623374-.35272356.9698781-.25987808.346504.09284548.6171545.36349596.71.71000002.0928455.34650407-.0062195.7162195-.2598781.96987806-1.06 1.06-1.19 1.29-1.71 1.29z"/><path id="Shape" d="m49 10c-.4927375.003865-.9148502-.35178371-.9946449-.83803264-.0797947-.48624892.2065147-.95815151.6746449-1.11196736l3-1c.3394023-.11432499.7140146-.03889666.9827241.19787187s.3906928.59890648.32.95-.3233218.63780314-.6627241.75212813c-3.22 1.05-3.09 1.05-3.32 1.05z"/><path id="Shape" d="m13 7c-.53 0-.67-.26-1.71-1.29-.2536586-.25365857-.3527235-.62337399-.259878-.96987804.0928454-.34650405.3634959-.61715452.71-.71.346504-.09284548.7162194.00621947.969878.25987804l1 1c.2884599.28609046.3751619.71826679.219371 1.09348151-.155791.37521471-.5231059.61888111-.929371.61651849z"/><path id="Shape" d="m11 10c-.23 0-.08 0-3.32-1.05-.33940231-.11432499-.59203132-.40103461-.66272413-.75212813s.0512905-.71323147.32-.95.64332182-.31219686.98272413-.19787187l3 1c.4681302.15381585.7544396.62571844.6746449 1.11196736-.0797947.48624893-.5019074.84189764-.9946449.83803264z"/></g><path id="Shape" d="m30 39c-4.78 0-6.52-1.61-6.71-1.79-.3921222-.3921222-.3921222-1.0278778 0-1.42s1.0278778-.3921222 1.42 0c1.54 1.36 10.29 2.63 10.29-2.29 0-2.73-1.85-3.1-5.12-3.51-2.88-.36-6.88-.86-6.88-5.49 0-3.57 3.61-5.5 7-5.5 5 0 6.8 3.11 6.88 3.24.1786328.3126074.1769222.696768-.0044873 1.0077722-.1814095.3110043-.5149577.5016032-.875.5-.3600423-.0016031-.6918799-.1951648-.8705127-.5077722-.06-.13-1.35-2.24-5.13-2.24-2.08 0-5 1.09-5 3.5 0 2.73 1.85 3.1 5.12 3.51 2.88.36 6.88.86 6.88 5.49 0 2.66-1.84 5.5-7 5.5z" fill="#f18d46"/><path id="Shape" d="m30 42c-.5522847 0-1-.4477153-1-1v-3c0-.5522847.4477153-1 1-1s1 .4477153 1 1v3c0 .5522847-.4477153 1-1 1z" fill="#f18d46"/><path id="Shape" d="m30 21c-.5522847 0-1-.4477153-1-1v-3c0-.5522847.4477153-1 1-1s1 .4477153 1 1v3c0 .5522847-.4477153 1-1 1z" fill="#f18d46"/></g></svg>