<svg xmlns="http://www.w3.org/2000/svg" viewBox="0 0 504 504" width="504" height="504">
	<style>
		tspan { white-space:pre }
		.shp0 { fill: #bd8366 } 
		.shp1 { fill: #d69c77 } 
		.shp2 { fill: #dadada } 
	</style>
	<g id="Layer">
		<g id="Layer">
			<path id="Layer" class="shp0" d="M96.97 459.19C92.24 454.45 86.13 452.02 79.92 451.69L147.99 383.63L172.53 408.17L104.47 476.24C104.14 470.04 101.71 463.93 96.97 459.19Z" />
		</g>
		<g id="Layer">
			<path id="Layer" class="shp1" d="M150.85 404.68C151.01 404.84 151.17 405 151.34 405.16C165.84 419.47 184.23 429.02 203.8 432.74C214.87 434.84 225.11 426.43 224.74 415.17L224.74 415.17C224.48 407.11 218.71 400.18 210.77 398.78C197.71 396.47 185.58 390.19 175.71 380.45C165.58 370.09 158.94 357.67 156.46 344.09C155.01 336.15 147.93 330.48 139.86 330.34L139.81 330.34C129.07 330.13 120.39 339.71 122.34 350.29C126.08 370.71 135.99 389.81 150.85 404.68Z" />
			<path id="Layer" class="shp1" d="M60.16 459.19C49.99 469.36 49.99 485.84 60.16 496.01C70.33 506.18 86.81 506.18 96.98 496.01C107.14 485.84 107.14 469.36 96.98 459.19C86.81 449.02 70.33 449.02 60.16 459.19Z" />
		</g>
		<path id="Layer" class="shp2" d="M190.09 391.19C184.95 388.27 180.09 384.76 175.71 380.45C171.51 376.15 168.08 371.43 165.12 366.5L267.76 263.86C354.05 177.57 384.35 98.18 384.35 98.18C446.48 82.08 494.8 0 494.8 0C494.8 0 499.41 78.92 468.77 147.53C464.67 156.71 425.38 156.2 425.38 156.2C425.38 156.2 436.47 188.03 434.05 190.92C429.08 196.89 346.43 284.03 301.98 308.31C291.68 313.93 281.51 319.65 271.81 326.25C252.25 339.55 221.22 362.19 190.09 391.19Z" />
		<g id="Layer">
		</g>
	</g>
	<g id="Layer">
	</g>
	<g id="Layer">
	</g>
	<g id="Layer">
	</g>
	<g id="Layer">
	</g>
	<g id="Layer">
	</g>
	<g id="Layer">
	</g>
	<g id="Layer">
	</g>
	<g id="Layer">
	</g>
	<g id="Layer">
	</g>
	<g id="Layer">
	</g>
	<g id="Layer">
	</g>
	<g id="Layer">
	</g>
	<g id="Layer">
	</g>
	<g id="Layer">
	</g>
	<g id="Layer">
	</g>
</svg>