<svg xmlns="http://www.w3.org/2000/svg" viewBox="0 0 464 464" width="464" height="464">
	<style>
		tspan { white-space:pre }
		.shp0 { fill: #0c2437 } 
		.shp1 { fill: #173549 } 
		.shp2 { fill: #2f484c } 
		.shp3 { fill: #031a2b } 
	</style>
	<g id="Layer">
		<path id="Layer" class="shp0" d="M256 180L240 124C200 132 168 172 168 172L158 184.66L258.66 184.66L256 180Z" />
		<path id="Layer" class="shp0" d="M360 212L376 172C352 172 321.9 195.2 321.9 195.2L312 202.66L360 212Z" />
		<path id="Layer" class="shp0" d="M220.66 314.66C242.02 331.69 268.69 340.66 296 340L280 308L272.66 295.34L210 302C213 306.66 216.59 310.91 220.66 314.66Z" />
		<path id="Layer" class="shp0" d="M360 276L368 332C345.87 325.1 325.66 313.11 309 297L296.66 285.34L358.66 266L360 276Z" />
		<path id="Layer" class="shp0" d="M464 316L464 172C448.63 172 433.9 178.1 423.03 188.97L400 212L400 276L423.03 299.03C433.9 309.9 448.63 316 464 316Z" />
	</g>
	<path id="Layer" class="shp1" d="M400 212L396.66 212C370.84 211.72 345.36 206 321.9 195.2C288.19 180.17 238.9 170.66 184 170.66C82.4 170.66 0 203.2 0 243.34C0 283.47 82.4 316 184 316C239.89 316 289.94 306.15 323.67 290.62C345.82 280.72 369.85 275.73 394.11 276L400 276L400 212Z" />
	<path id="Layer" class="shp2" d="M0.93 236C0.32 238.4 0 240.86 0 243.34C0 283.46 82.4 316 184 316C239.89 316 289.94 306.15 323.67 290.62C345.82 280.72 369.85 275.73 394.11 276L400 276L400 236L0.93 236Z" />
	<path id="Layer" class="shp3" d="M72 220C72 228.84 64.84 236 56 236C47.16 236 40 228.84 40 220C40 211.16 47.16 204 56 204C64.84 204 72 211.16 72 220Z" />
	<path id="Layer" class="shp0" d="M88 308C86.26 306.77 85.09 304.89 84.74 302.79C84.39 300.68 84.9 298.53 86.14 296.8L103.18 272.95C112.45 259.98 113.14 242.76 104.95 229.1L97.14 216.07L110.86 207.85L118.66 220.86C130.14 239.99 129.18 264.09 116.21 282.24L99.2 306.14C97.96 307.88 96.09 309.05 93.98 309.4C91.88 309.75 89.73 309.25 88 308Z" />
	<path id="Layer" class="shp0" d="M156.13 316.09C144.76 316.08 133.61 312.97 123.88 307.1L132.12 293.38C151.33 305.02 176.13 301.16 190.89 284.23L144 284.23L144 268.23L208 268.23C211.11 268.23 213.93 270.02 215.25 272.84C216.57 275.65 216.14 278.96 214.15 281.35L204 293.52C192.2 307.8 174.65 316.07 156.13 316.09Z" />
	<path id="Layer" class="shp0" d="M144 228L360 228L360 244L144 244L144 228Z" />
	<path id="Layer" class="shp3" d="M432 236L464 236L464 252L432 252L432 236Z" />
	<path id="Layer" class="shp3" d="M432 204L464 204L464 220L432 220L432 204Z" />
	<path id="Layer" class="shp3" d="M432 268L464 268L464 284L432 284L432 268Z" />
	<path id="Layer" class="shp0" d="M44.8 245.6L10.05 219.65C6.43 223.66 3.61 228.33 1.75 233.41L35.2 258.4L44.8 245.6Z" />
</svg>