<svg xmlns="http://www.w3.org/2000/svg" viewBox="0 0 512 512"><defs><style>.a{fill:#f78c1e;}.b{fill:#faa629;}.c{fill:#d2d2d2;}.c,.d,.e,.f{fill-rule:evenodd;}.d{fill:#f5f5f5;}.e{fill:#969faa;}.f{fill:#8c95a0;}</style></defs><title>Artboard 146</title><polygon class="a" points="256 133.12 325.62 133.12 325.62 317.31 256 317.31 236.39 213.17 256 133.12"/><rect class="b" x="186.44" y="133.12" width="69.56" height="184.2"/><path class="c" d="M423.77,88.73c-23.16-13.12-83.73-43.4-156-49.08v67.62a288.85,288.85,0,0,1,65.43,15l17.18,6-2.07,17.11c-9.11,75.49-33.84,142.36-73.49,198.74-2.31,3.25-4.68,6.5-7.05,9.68V456.05a431.53,431.53,0,0,0,60.38-65.87,470,470,0,0,0,65.75-125.56c18.73-54,28.72-113.08,29.9-175.89Z"/><path class="d" d="M86.79,90.85c23.17-13.11,83.73-43.4,156-49.08v67.62a290.13,290.13,0,0,0-65.5,15l-17.17,6,2.12,17.11c9.05,75.49,33.84,142.36,73.43,198.75,2.31,3.24,4.68,6.49,7.12,9.67V458.18a425.31,425.31,0,0,1-60.38-65.88,469.68,469.68,0,0,1-65.81-125.56C98,212.79,87.91,153.66,86.79,90.85Z"/><path class="e" d="M256,0,240.89,79.17,256,149.29c15.61,0,32.28,2.56,49.7,7.68-8,53.51-24.66,101.59-49.7,143.17l-15.48,119L256,512l11.05-6.74c2.06-1.25,50.14-31.22,98-99.09,27.85-39.53,50-84,65.81-132.13,19.73-59.81,29.72-125.5,29.72-195.24v-11l-9-6.31C448,58.94,362.77,0,256,0Zm21.17,43.21c65.37,5.43,120.07,34.59,141.05,47.14-1.06,60.38-10.12,117.13-27,169-14.36,44-34.34,84.54-59.44,120.57a403.06,403.06,0,0,1-54.57,63.38V345c2.18-3.06,4.31-6.12,6.37-9.24,35.84-54.2,58.19-118.45,66.43-190.94l1.87-16.49-15.54-5.74a246.62,246.62,0,0,0-59.13-14.42Z"/><path class="f" d="M256,0V149.29c-15.55,0-32.22,2.56-49.7,7.68,8,53.51,24.72,101.59,49.7,143.17V512L245,505.26C243,504,194.81,474,147,406.17c-27.84-39.53-50-84-65.87-132.13C61.44,214.23,51.45,148.54,51.45,78.8v-11l9-6.31C64,58.94,149.29,0,256,0ZM234.9,43.21c-65.38,5.43-120.14,34.59-141,47.14,1,60.38,10.11,117.13,27,169a459,459,0,0,0,59.44,120.57,399.43,399.43,0,0,0,54.58,63.38V345c-2.19-3.06-4.31-6.12-6.44-9.24-35.84-54.2-58.19-118.45-66.37-190.94l-1.87-16.49,15.48-5.74a247,247,0,0,1,59.2-14.42Z"/></svg>