<svg xmlns="http://www.w3.org/2000/svg" viewBox="0 0 512 512" width="512" height="512">
	<style>
		tspan { white-space:pre }
		.shp0 { fill: #c86d5c } 
		.shp1 { fill: #ad4f3d } 
		.shp2 { fill: #f2c42c } 
		.shp3 { fill: #3a484a } 
	</style>
	<g id="Layer">
		<path id="Layer" class="shp0" d="M384 40.37C300.02 19.28 211.98 19.28 128 40.37C64 56.45 0 85.59 0 137.88L256 167.58L512 137.88C512 85.59 448 56.45 384 40.37Z" />
		<path id="Layer" class="shp0" d="M256 167.58L0 225.27L0 312.67L256 356.36L512 312.67L512 225.27L256 167.58Z" />
		<path id="Layer" class="shp0" d="M256 356.36L0 400.06L0 436.39C0 464.59 22.86 487.45 51.06 487.45L460.94 487.45C489.14 487.45 512 464.59 512 436.39L512 400.06L256 356.36Z" />
	</g>
	<g id="Layer">
		<path id="Layer" class="shp1" d="M0 312.67L512 312.67L512 400.06L0 400.06L0 312.67Z" />
		<path id="Layer" class="shp1" d="M0 137.88L512 137.88L512 225.27L0 225.27L0 137.88Z" />
	</g>
	<g id="Layer">
		<path id="Layer" class="shp2" d="M107.04 34.75C90.34 39.65 75.33 45.13 62.09 51.14C57.01 53.45 53.75 58.52 53.75 64.1L53.75 487.45L125.34 487.45L125.34 48.39C125.34 38.87 116.18 32.07 107.04 34.75Z" />
		<path id="Layer" class="shp2" d="M404.96 34.75C421.66 39.65 436.67 45.13 449.91 51.14C454.99 53.45 458.25 58.52 458.25 64.1L458.25 487.45L386.66 487.45L386.66 48.39C386.66 38.87 395.82 32.07 404.96 34.75Z" />
	</g>
	<path id="Layer" class="shp2" d="M286.79 175.39L225.21 175.39C215.07 175.39 206.84 183.62 206.84 193.77L206.84 256.77C206.84 266.91 215.06 275.14 225.21 275.14L286.79 275.14C296.94 275.14 305.16 266.92 305.16 256.77L305.16 193.77C305.16 183.62 296.94 175.39 286.79 175.39Z" />
	<path id="Layer" class="shp3" d="M274 218.72C274 208.77 265.94 200.71 256 200.71C246.06 200.71 237.99 208.77 237.99 218.72C237.99 225.89 242.2 232.07 248.27 234.96L248.27 244.73C248.27 249 251.73 252.45 256 252.45C260.27 252.45 263.73 249 263.73 244.73L263.73 234.96C269.8 232.07 274 225.89 274 218.72Z" />
	<g id="Layer">
	</g>
	<g id="Layer">
	</g>
	<g id="Layer">
	</g>
	<g id="Layer">
	</g>
	<g id="Layer">
	</g>
	<g id="Layer">
	</g>
	<g id="Layer">
	</g>
	<g id="Layer">
	</g>
	<g id="Layer">
	</g>
	<g id="Layer">
	</g>
	<g id="Layer">
	</g>
	<g id="Layer">
	</g>
	<g id="Layer">
	</g>
	<g id="Layer">
	</g>
	<g id="Layer">
	</g>
</svg>