<svg height="512pt" viewBox="0 -69 512.00058 512" width="512pt" xmlns="http://www.w3.org/2000/svg"><path d="m436.730469 85.3125h-361.457031v-64.257812c0-11.625 9.425781-21.05078175 21.050781-21.05078175h58.019531l22.898438 14.45703175 28.019531-14.45703175h101.992187l32.183594 17.66015575 20.972656-17.66015575h55.265625c11.628907 0 21.054688 9.42578175 21.054688 21.05078175zm0 0" fill="#a46244"/><path d="m478.207031 163.421875h-15.195312c-4.144531 0-7.5-3.359375-7.5-7.5 0-4.144531 3.355469-7.5 7.5-7.5h15.195312c8.195313 0 14.859375-6.667969 14.859375-14.863281 0-8.195313-6.664062-14.859375-14.859375-14.859375h-15.195312c-4.144531 0-7.5-3.359375-7.5-7.5 0-4.144531 3.355469-7.5 7.5-7.5h15.195312c16.464844 0 29.859375 13.394531 29.859375 29.859375s-13.394531 29.863281-29.859375 29.863281zm0 0" fill="#ff9c26"/><path d="m504.5 201.160156c-3.105469 0-6.007812-1.941406-7.085938-5.039062l-17.8125-51.257813c-1.359374-3.910156.710938-8.183593 4.625-9.542969 3.914063-1.359374 8.1875.707032 9.546876 4.621094l17.808593 51.257813c1.359375 3.914062-.710937 8.1875-4.621093 9.546875-.816407.28125-1.648438.414062-2.460938.414062zm0 0" fill="#ffbd48"/><path d="m47.988281 163.421875h-14.195312c-16.464844 0-29.859375-13.398437-29.859375-29.863281s13.394531-29.859375 29.859375-29.859375h14.195312c4.144531 0 7.5 3.355469 7.5 7.5 0 4.140625-3.355469 7.5-7.5 7.5h-14.195312c-8.195313 0-14.859375 6.664062-14.859375 14.859375 0 8.195312 6.664062 14.863281 14.859375 14.863281h14.195312c4.144531 0 7.5 3.355469 7.5 7.5 0 4.140625-3.355469 7.5-7.5 7.5zm0 0" fill="#ff9c26"/><path d="m7.503906 201.160156c-.820312 0-1.648437-.132812-2.464844-.414062-3.910156-1.359375-5.980468-5.632813-4.621093-9.546875l17.808593-51.257813c1.359376-3.910156 5.632813-5.980468 9.546876-4.621094 3.914062 1.359376 5.984374 5.632813 4.625 9.542969l-17.8125 51.257813c-1.074219 3.097656-3.980469 5.039062-7.082032 5.039062zm0 0" fill="#ffbd48"/><path d="m75.273438 144.035156h361.457031v147.390625h-361.457031zm0 0" fill="#c87d5b"/><path d="m76.992188 144.199219-.007813 190.25h358.027344v-190.25zm53.460937 125.171875-34.109375.007812.007812-108.816406h34.109376zm188.726563-.011719-126.367188.011719.007812-108.808594 126.359376-.011719zm96.46875-.007813-34.109376.007813v-108.808594h34.109376zm0 0" fill="#a46244"/><path d="m463.578125 74.824219c-2.171875-26.910157-6.683594-49.558594-12.574219-64.035157-2.648437-6.515624-8.960937-10.78515575-15.992187-10.78515575h-26.054688c7.695313 10.66015575 13.9375 33.92578175 17.207031 63.68359375.652344 5.9375-3.964843 11.140625-9.9375 11.140625h-40c-5.121093 0-9.410156-3.875-9.941406-8.96875-3.199218-30.796875-9.554687-54.9375-17.4375-65.85546875h-36.359375c7.699219 10.66015575 13.941407 33.92578175 17.207031 63.68749975.652344 5.933594-3.960937 11.136719-9.933593 11.136719h-127.523438c-5.972656 0-10.585937-5.199219-9.933593-11.136719 3.265624-29.761718 9.507812-53.027344 17.207031-63.68749975h-36.359375c-7.882813 10.91796875-14.242188 35.05859375-17.4375 65.85546875-.53125 5.09375-4.824219 8.96875-9.941406 8.96875h-40c-5.972657 0-10.585938-5.203125-9.9375-11.140625 3.269531-29.757812 9.507812-53.023438 17.207031-63.68359375h-26.054688c-7.035156 0-13.34375 4.26953175-15.992187 10.78515575-5.890625 14.476563-10.402344 37.125-12.574219 64.035157h-.007813c-.925781 11.460937-1.425781 23.683593-1.425781 36.371093v36.367188h.007813l-.007813 186.882812h36.355469v-.003906h60.109375v.003906h36.359375v-.003906h152.375v.003906h36.359375v-.003906h60.109375v.003906h36.355469v-.003906h.003906v-52.089844h-.003906l-.007813-134.800781h.011719v-36.355469c0-12.6875-.5-24.910156-1.425781-36.371093zm-330.121094 207.550781-40.109375.003906c-5.523437 0-10.003906-4.480468-10.003906-10l.007812-114.820312c0-5.523438 4.476563-9.996094 10-10h40.109376c5.523437 0 10 4.476562 10 10l-.003907 114.816406c0 5.523438-4.480469 10-10 10zm46.355469-10.003906.007812-114.8125c0-5.523438 4.476563-10 10-10l132.359376-.003906c5.523437 0 10 4.476562 10 10l.007812 114.804687c0 5.523437-4.480469 10-10 10l-132.371094.011719c-5.527344 0-10.003906-4.476563-10.003906-10zm188.730469-.015625-.003907-114.800781c0-5.523438 4.476563-10 10-10h40.109376c5.523437 0 10 4.476562 10 10l.003906 114.800781c0 5.523437-4.476563 10-10 10l-40.109375.003906c-5.523438-.003906-10-4.480469-10-10.003906zm0 0" fill="#ffdf4a"/><path d="m463.578125 74.820312c-2.167969-26.910156-6.683594-49.554687-12.574219-64.03125-2.648437-6.515624-8.960937-10.78515575-15.992187-10.78515575h-11.371094c8.632813 11.95703175 15.433594 39.76953175 18.269531 74.81640575h.007813c.921875 11.460938 1.421875 23.691407 1.421875 36.371094v36.359375h-.011719l.011719 134.800781v52.089844h21.667968v-52.089844l-.007812-134.800781h.007812v-36.359375c0-12.679687-.5-24.910156-1.417968-36.371094zm0 0" fill="#ffbd48"/><path d="m445.011719 111.203125h-378.019531c0-42.53125 5.605468-79.78125 13.996093-100.425781 2.648438-6.511719 8.960938-10.77343775 15.992188-10.77343775h22.101562l-5.488281 7.60937475c-4.679688 6.480469-10.890625 24.289063-14.460938 54.230469h33.929688c3.578125-32.722656 9.851562-51.421875 15.039062-61.83984375h17.546876l11.59375 14.45703175 18.761718-14.45703175h19.535156l-5.488281 7.60937475c-4.679687 6.480469-10.878906 24.277344-14.449219 54.230469l120.796876-.011719c-3.570313-29.941406-9.769532-47.738281-14.449219-54.21875l-5.488281-7.60937475h16.027343l26.949219 17.66015575 9.40625-17.66015575h15.046875c5.199219 10.41796875 11.46875 29.11718775 15.046875 61.82812475h33.929688c-3.566407-29.929687-9.777344-47.738281-14.457032-54.21875l-5.492187-7.60937475h22.105469c7.027343 0 13.339843 4.26171875 15.988281 10.77343775 8.394531 20.644531 14 57.894531 14 100.425781zm0 0" fill="#8c482c"/><path d="m408.957031.00390625c7.695313 10.66015575 13.9375 33.92578175 17.207031 63.69140575.652344 5.933594-3.964843 11.136719-9.9375 11.136719h-40c-5.121093 0-9.410156-3.875-9.941406-8.96875-3.199218-30.796875-9.554687-54.9375-17.441406-65.85937475h-36.355469c7.699219 10.66406275 13.941407 33.93359375 17.207031 63.69140575.652344 5.9375-3.964843 11.136719-9.9375 11.136719l-127.519531.007813c-5.976562 0-10.589843-5.199219-9.9375-11.136719 3.269531-29.765625 9.507813-53.035156 17.203125-63.703125h-36.355468c-7.882813 10.921875-14.234376 35.070312-17.429688 65.871094-.53125 5.09375-4.824219 8.96875-9.945312 8.96875h-39.996094c-5.976563 0-10.589844-5.199219-9.9375-11.136719 3.265625-29.765625 9.511718-53.039063 17.210937-63.703125h-26.078125c-7.03125 0-13.34375 4.265625-15.988281 10.773438-8.398437 20.644531-14 57.898437-14 100.425781l396.355469-.011719h21.667968c0-42.523438-5.605468-79.769531-13.996093-100.410156-2.648438-6.511719-8.960938-10.777344-15.992188-10.777344zm0 0" fill="#ffbd48"/><path d="m423.644531.00390625c8.628907 11.95703175 15.433594 39.76953175 18.265625 74.81640575h.011719c.917969 11.460938 1.417969 23.691407 1.417969 36.371094h21.671875c0-42.527344-5.609375-79.773437-14-100.414062-2.648438-6.511719-8.960938-10.77343775-15.988281-10.77343775zm0 0" fill="#ff9c26"/><path d="m230.476562 176.355469v-79.449219c0-2.839844-1.890624-5.28125-4.597656-6.140625-6.660156-2.113281-11.328125-8.707031-10.46875-16.242187.769532-6.761719 6.132813-12.285157 12.871094-13.230469 2.339844-.328125 4.59375-.125 6.660156.511719 3 .921874 6.132813-.453126 7.585938-3.234376 2.527344-4.832031 7.597656-8.117187 13.445312-8.117187 5.832032 0 10.917969 3.296875 13.472656 8.128906 1.464844 2.777344 4.605469 4.152344 7.605469 3.226563 2.070313-.640625 4.328125-.847656 6.667969-.515625 6.738281.945312 12.101562 6.46875 12.875 13.230469.859375 7.535156-3.8125 14.128906-10.472656 16.242187-2.707032.859375-4.597656 3.300781-4.597656 6.140625v79.449219c0 2.839843 1.890624 5.277343 4.597656 6.136719 6.660156 2.117187 11.332031 8.707031 10.472656 16.246093-.773438 6.761719-6.136719 12.285157-12.875 13.230469-2.335938.328125-4.59375.121094-6.660156-.515625-2.996094-.921875-6.128906.453125-7.585938 3.234375-2.527344 4.835938-7.59375 8.121094-13.441406 8.121094-5.835938 0-10.921875-3.300782-13.472656-8.132813-1.46875-2.777343-4.605469-4.148437-7.609375-3.222656-2.066407.636719-4.324219.84375-6.667969.515625-6.738281-.945312-12.101562-6.472656-12.871094-13.230469-.859375-7.539062 3.808594-14.128906 10.46875-16.246093 2.707032-.859376 4.597656-3.296876 4.597656-6.136719zm0 0" fill="#f9e48f"/><path d="m256 191.957031c-4.140625 0-7.5-3.355469-7.5-7.5v-13.246093c0-4.140626 3.359375-7.5 7.5-7.5 4.144531 0 7.5 3.359374 7.5 7.5v13.246093c0 4.144531-3.355469 7.5-7.5 7.5zm0 0" fill="#ff9c26"/><path d="m460.179688 318.726562h-408.359376c-22.308593 0-40.390624 18.085938-40.390624 40.390626 0 8.140624 6.597656 14.742187 14.738281 14.742187h459.664062c8.140625 0 14.738281-6.601563 14.738281-14.742187 0-22.304688-18.082031-40.390626-40.390624-40.390626zm0 0" fill="#ffbd48"/><path d="m500.570312 359.121094c0 8.136718-6.601562 14.738281-14.742187 14.738281h-30.519531c8.140625 0 14.742187-6.601563 14.742187-14.738281 0-11.160156-4.519531-21.25-11.832031-28.5625-7.308594-7.308594-17.398438-11.828125-28.558594-11.828125h30.519532c11.160156 0 21.25 4.519531 28.558593 11.828125 7.3125 7.3125 11.832031 17.402344 11.832031 28.5625zm0 0" fill="#ff9c26"/></svg>