<?xml version="1.0" encoding="iso-8859-1"?>
<!-- Generator: Adobe Illustrator 19.0.0, SVG Export Plug-In . SVG Version: 6.00 Build 0)  -->
<svg version="1.1" id="Capa_1" xmlns="http://www.w3.org/2000/svg" xmlns:xlink="http://www.w3.org/1999/xlink" x="0px" y="0px"
	 viewBox="0 0 512.001 512.001" style="enable-background:new 0 0 512.001 512.001;" xml:space="preserve">
<path style="fill:#45A832;" d="M146.193,328.265c-3.987,0-7.968-1.553-10.957-4.645c-5.852-6.05-5.691-15.698,0.36-21.55
	l177.678-171.834c3.249-3.143,7.724-4.679,12.22-4.198c4.495,0.483,8.543,2.934,11.052,6.693l86.805,130.082
	c4.672,7.001,2.783,16.464-4.217,21.136C412.131,288.62,150.007,328.265,146.193,328.265z"/>
<path style="fill:#51CD83;" d="M427.848,394.193H88.756c-2.672,0-5.297-0.702-7.612-2.037L7.629,349.769
	c-5.578-3.217-8.533-9.591-7.383-15.926c1.151-6.336,6.16-11.263,12.512-12.313l449.228-74.177c5.221-0.862,10.52,1.048,13.99,5.044
	s4.619,9.51,3.032,14.56l-36.622,116.564C440.392,389.873,434.505,394.193,427.848,394.193z"/>
<path style="fill:#FFC82D;" d="M408.904,257.758c-10.449,0-19.523-3.575-26.364-10.417c-7.372-7.372-10.953-17.337-10.353-28.82
	c1.112-21.282,16.866-46.217,42.142-66.702c34.398-27.878,78.751-33.66,80.622-33.893c4.666-0.581,9.333,1.024,12.655,4.348
	c5.942,5.941,4.691,12.155,2.963,20.756c-1.274,6.333-2.94,12.808-4.951,19.244c-6.51,20.825-15.781,38.751-27.555,53.279
	c-20.486,25.276-45.421,41.031-66.702,42.142C410.534,257.737,409.714,257.758,408.904,257.758z"/>
<path style="fill:#2C8C18;" d="M336.545,132.732c-2.51-3.759-6.557-6.212-11.052-6.693c-0.451-0.048-0.901-0.061-1.35-0.069v175.114
	c50.256-8.089,92.244-15.301,94.989-17.132c7.001-4.672,8.889-14.135,4.217-21.136L336.545,132.732z"/>
<path style="fill:#45A832;" d="M461.987,247.353l-137.844,22.761v124.079h103.705c6.658,0,12.545-4.321,14.54-10.672l36.622-116.564
	c1.587-5.051,0.439-10.562-3.032-14.56S467.208,246.491,461.987,247.353z"/>
<g>
</g>
<g>
</g>
<g>
</g>
<g>
</g>
<g>
</g>
<g>
</g>
<g>
</g>
<g>
</g>
<g>
</g>
<g>
</g>
<g>
</g>
<g>
</g>
<g>
</g>
<g>
</g>
<g>
</g>
</svg>
