<svg xmlns="http://www.w3.org/2000/svg" viewBox="0 0 512 512" width="512" height="512">
	<style>
		tspan { white-space:pre }
		.shp0 { fill: #584300 } 
		.shp1 { fill: #5a3b00 } 
		.shp2 { fill: #5a3000 } 
		.shp3 { fill: #121212 } 
		.shp4 { fill: #502a00 } 
	</style>
	<path id="Layer" class="shp0" d="M291.48 113.25C280.09 81 244.71 64.08 212.45 75.48L150.77 97.27L176.02 168.73L295.74 125.28L291.48 113.25Z" />
	<g id="Layer">
		<path id="Layer" class="shp1" d="M176.02 343.27L150.77 414.73L212.45 436.52C244.71 447.91 280.09 431 291.48 398.75L295.73 386.72L176.02 343.27Z" />
		<path id="Layer" class="shp1" d="M328.79 119.76C229.74 119.76 111.44 198.57 79.62 239.31L79.62 272.68C111.44 313.43 229.74 392.24 328.79 392.24C444.38 392.24 512 256 512 256C512 256 444.38 119.76 328.79 119.76Z" />
	</g>
	<path id="Layer" class="shp2" d="M79.62 256L79.62 272.68C111.44 313.43 229.74 392.24 328.79 392.24C444.38 392.24 512 256 512 256L79.62 256Z" />
	<path id="Layer" class="shp0" d="M512 256C512 256 464.99 161.33 382.39 129.83C356.48 164.77 341.07 208.52 341.07 256C341.07 303.48 356.48 347.23 382.39 382.17C464.99 350.67 512 256 512 256Z" />
	<path id="Layer" class="shp1" d="M512 256L341.07 256C341.07 303.48 356.48 347.23 382.39 382.17C464.99 350.67 512 256 512 256Z" />
	<path id="Layer" class="shp3" d="M416.24 236.63C407.94 236.63 401.24 229.92 401.24 221.63C401.24 213.34 407.94 206.63 416.24 206.63C424.54 206.63 431.24 213.34 431.24 221.63C431.24 229.92 424.54 236.63 416.24 236.63Z" />
	<path id="Layer" class="shp2" d="M33.53 256L26.44 256C11.84 256 0 244.16 0 229.56L0 167.53L7.99 167.53C49.13 167.53 82.47 200.87 82.47 242L82.47 269.99C82.47 311.13 49.13 344.47 7.99 344.47L0 344.47L0 282.44C0 267.84 11.84 256 26.44 256" />
	<path id="Layer" class="shp4" d="M33.53 256L26.44 256C11.84 256 82.47 256 82.47 256L82.47 270C82.47 311.13 49.13 344.47 7.99 344.47L0 344.47L0 282.44C0 267.84 11.84 256 26.44 256" />
	<g id="Layer">
	</g>
	<g id="Layer">
	</g>
	<g id="Layer">
	</g>
	<g id="Layer">
	</g>
	<g id="Layer">
	</g>
	<g id="Layer">
	</g>
	<g id="Layer">
	</g>
	<g id="Layer">
	</g>
	<g id="Layer">
	</g>
	<g id="Layer">
	</g>
	<g id="Layer">
	</g>
	<g id="Layer">
	</g>
	<g id="Layer">
	</g>
	<g id="Layer">
	</g>
	<g id="Layer">
	</g>
</svg>