<svg xmlns="http://www.w3.org/2000/svg" viewBox="0 0 513 512" width="513" height="512">
	<style>
		tspan { white-space:pre }
		.shp0 { fill: #0e1e2d } 
		.shp1 { fill: #182d44 } 
		.shp2 { fill: #0f1013 } 
		.shp3 { fill: #3e4a54 } 
		.shp4 { fill: #5a5a5a } 
	</style>
	<path id="Layer" class="shp0" d="M0.52 237.95L0.52 114.36L18.17 114.36L9.34 79.05L44.65 87.88L53.48 61.39L88.79 70.22L97.62 34.91L132.93 52.57L150.58 26.09L185.89 43.74L203.55 17.26L238.86 34.91L283 17.26C298.71 72.34 279.38 106.41 274.96 113.13L0.52 237.95Z" />
	<path id="Layer" class="shp0" d="M415.41 495.8C390.68 495.09 366.13 491.5 342.23 485.12C318.66 477.79 296.06 453.52 282.73 432.68C250.28 445.16 216.16 452.74 181.48 455.2C146.57 457.61 111.77 449.2 81.82 431.09C64.55 419.69 49.8 404.88 38.47 387.57C34.38 381.57 30.73 375.29 27.53 368.77C26.55 367.09 25.76 365.42 24.96 363.74C10.22 332.75 3.69 289.59 0.52 255.6L90.38 347.5L98.77 356.06L104.06 358.71C114.57 363.88 125.39 368.39 136.46 372.21L150.23 376.71C164.87 381.04 179.8 384.31 194.9 386.52C200.72 387.31 206.55 387.93 212.37 388.55C232.98 390.25 253.7 390.02 274.26 387.84C293.86 338.36 336.89 301.95 388.93 290.82C374.25 307.94 362.82 327.59 355.21 348.82C347.62 370.2 346.91 393.41 353.18 415.2C364.47 448.2 386.35 476.53 415.41 495.8L415.41 495.8Z" />
	<path id="Layer" class="shp1" d="M344.79 220.29C344.79 220.29 362.45 237.95 415.41 255.6L412.85 255.6C395.9 255.43 378.86 254.81 361.91 253.66C352.38 253.04 342.76 252.51 333.31 251.1C324.57 249.78 316.01 247.04 307.36 245.45C290.2 240.82 271.89 243.24 256.52 252.16C242.06 261.72 225.91 268.43 208.93 271.93L164 274.85C163.09 274.83 162.17 274.77 161.27 274.67C149.91 272.21 138.09 273.29 127.37 277.76C116.61 284.09 107.85 293.33 102.12 304.42C93.32 320.26 92.09 339.21 98.77 356.06C70.93 341.88 45.87 322.8 24.79 299.74C14.73 289.6 7.15 277.27 2.63 263.72C1.87 261.18 1.28 258.58 0.87 255.95C-0.19 248.23 -0.28 240.4 0.6 232.65C1.38 225.76 2.55 218.92 4.13 212.17C4.4 210.93 4.66 209.79 4.93 208.55C6.82 200.06 9.48 191.76 12.87 183.75C14.98 178.19 17.55 172.81 20.55 167.68C26.74 156.36 34.63 146.06 43.95 137.14C44.38 136.68 44.85 136.27 45.36 135.9C49.54 131.94 54.03 128.31 58.78 125.04C70.68 116.76 83.78 110.33 97.62 105.97C103.09 104.2 108.66 102.72 114.3 101.56C126.25 98.97 138.38 97.35 150.58 96.71C318.31 87.88 344.79 176.15 344.79 176.15C399.43 193.28 455.6 205.11 512.52 211.46C512.52 211.46 450.72 229.12 344.79 220.29L344.79 220.29Z" />
	<path id="Layer" class="shp0" d="M215.38 238.92C216.79 238.68 218.23 239.14 219.24 240.15C220.25 241.17 220.71 242.61 220.46 244.02C218.36 253.94 214.47 263.4 208.98 271.93C197.6 290.38 175.62 313.69 133.07 334.96C133.07 335.01 133.03 335.05 132.98 335.05L133.07 334.96C146.82 316.88 157.31 296.54 164.05 274.85C166.38 266.87 167.77 258.65 168.21 250.36C168.27 248.29 169.78 246.54 171.82 246.18L215.38 238.92Z" />
	<path id="Layer" class="shp2" d="M238.82 220.29C236.91 220.3 235.05 219.68 233.53 218.53C223.27 210.13 216.54 198.18 214.69 185.05C213.33 166.81 219.56 148.81 231.92 135.32C234.97 131.52 240.53 130.9 244.34 133.95C248.14 136.99 248.77 142.55 245.72 146.36C236.52 156.11 231.64 169.16 232.18 182.55C233.39 191.05 237.65 198.82 244.16 204.41C247.2 206.7 248.43 210.67 247.22 214.28C246.01 217.88 242.63 220.3 238.82 220.29Z" />
	<path id="Layer" class="shp2" d="M185.9 229.12C182.95 229.12 180.19 227.65 178.55 225.19C164.78 204.54 149.29 157.05 189.2 125.12C193.01 122.07 198.57 122.69 201.61 126.5C204.66 130.3 204.05 135.86 200.24 138.91C162.84 168.82 191.98 213.5 193.24 215.39C195.04 218.1 195.21 221.58 193.68 224.45C192.14 227.32 189.16 229.12 185.9 229.12Z" />
	<g id="Layer">
		<path id="Layer" class="shp3" d="M119.25 157.53C118.02 158.18 116.66 158.51 115.27 158.5C111.94 158.53 108.88 156.64 107.41 153.64C101 138.57 97.67 122.36 97.62 105.97C103.09 104.2 108.66 102.72 114.3 101.56C114.93 102.79 115.27 104.15 115.27 105.53C115.34 119.3 118 132.93 123.13 145.7C124.19 147.78 124.38 150.2 123.65 152.42C122.92 154.64 121.34 156.48 119.25 157.53Z" />
		<path id="Layer" class="shp3" d="M87.82 180.13C86.35 183.12 83.3 185.01 79.96 184.98C78.58 185 77.21 184.66 75.99 184.01C57.1 174.57 47.65 144.2 45.36 135.9C49.54 131.94 54.03 128.31 58.78 125.04C60.4 126.23 61.55 127.95 62.04 129.9C65.13 141.99 73.78 163.18 83.93 168.3C86.03 169.34 87.61 171.18 88.34 173.4C89.07 175.63 88.88 178.04 87.82 180.13Z" />
		<path id="Layer" class="shp3" d="M70.69 214.29C69.48 217.88 66.1 220.3 62.31 220.29C61.35 220.27 60.4 220.12 59.48 219.85C40.8 212.55 24.61 200.01 12.87 183.75C14.98 178.19 17.55 172.81 20.55 167.68C22.58 168.21 24.34 169.47 25.5 171.21C35.39 185.4 49.15 196.46 65.13 203.08C69.73 204.67 72.21 209.66 70.69 214.29Z" />
		<path id="Layer" class="shp3" d="M52.51 259.57C51.04 262.57 47.99 264.46 44.65 264.43C43.27 264.45 41.9 264.11 40.68 263.46C26.13 254.84 12.68 244.49 0.6 232.65C1.38 225.76 2.55 218.92 4.13 212.17C5.12 212.62 6.02 213.25 6.78 214.02C19.4 226.82 33.44 238.13 48.63 247.75C50.71 248.79 52.3 250.63 53.03 252.85C53.76 255.07 53.57 257.49 52.51 259.57Z" />
		<path id="Layer" class="shp3" d="M60.19 331.87C60.01 332.05 59.92 332.23 59.75 332.4C49.13 345.61 43.76 362.27 44.65 379.19C44.66 383.04 42.16 386.45 38.47 387.57C34.38 381.57 30.73 375.29 27.53 368.77C28.68 351.2 35.32 334.44 46.5 320.84C50.92 324.72 55.51 328.43 60.19 331.87L60.19 331.87Z" />
		<path id="Layer" class="shp3" d="M104.06 358.71C103.62 359.24 97.62 367.09 97.62 388.02C97.62 392.89 93.66 396.84 88.79 396.84C83.91 396.84 79.96 392.89 79.96 388.02C79.17 374.94 82.08 361.91 88.35 350.41C91.79 352.35 95.23 354.21 98.77 356.06L104.06 358.71Z" />
		<path id="Layer" class="shp3" d="M150.23 376.71C150.85 378.83 150.66 381.09 149.7 383.07C145.86 391.81 145.82 401.76 149.61 410.53C150.68 412.61 150.86 415.03 150.13 417.25C149.41 419.47 147.82 421.31 145.73 422.36C144.51 423.01 143.14 423.34 141.75 423.32C138.42 423.36 135.36 421.47 133.9 418.47C127.57 404.75 127.57 388.94 133.9 375.21C134.48 374.01 135.36 372.98 136.46 372.21L150.23 376.71Z" />
		<path id="Layer" class="shp3" d="M218.64 408.23C216.05 405.18 214.32 401.49 213.61 397.55C212.96 394.59 212.54 391.57 212.38 388.55C206.55 387.93 200.72 387.31 194.9 386.52C194.79 387.01 194.73 387.51 194.72 388.02C194.61 399.92 198.64 411.5 206.11 420.77C209.59 424.18 215.16 424.18 218.64 420.77C222.09 417.3 222.09 411.7 218.64 408.23L218.64 408.23Z" />
	</g>
	<path id="Layer" class="shp4" d="M317.78 176.15C317.78 185.9 309.87 193.81 300.12 193.81C290.37 193.81 282.47 185.9 282.47 176.15C282.47 166.4 290.37 158.5 300.12 158.5C309.87 158.5 317.78 166.4 317.78 176.15L317.78 176.15Z" />
	<path id="Layer" class="shp2" d="M308.95 176.15C308.95 181.03 305 184.98 300.12 184.98C295.25 184.98 291.29 181.03 291.29 176.15C291.29 171.28 295.25 167.32 300.12 167.32C305 167.32 308.95 171.28 308.95 176.15Z" />
	<path id="Layer" class="shp4" d="M300.12 167.32C300.1 171.47 297.2 175.05 293.15 175.92C289.09 176.79 284.98 174.72 283.26 170.95C285.02 165.39 289.36 161.05 294.91 159.29C298.08 160.71 300.11 163.86 300.12 167.32L300.12 167.32Z" />
</svg>