<svg xmlns="http://www.w3.org/2000/svg" viewBox="0 0 512 512" width="512" height="512">
	<style>
		tspan { white-space:pre }
		.shp0 { fill: #c6c5ca } 
		.shp1 { fill: #898890 } 
		.shp2 { fill: #e9e9e9 } 
		.shp3 { fill: #3e3d42 } 
		.shp4 { fill: #2d2d30 } 
		.shp5 { fill: #ffffff } 
	</style>
	<path id="Layer" class="shp0" d="M504.5 256C504.5 393.24 393.24 504.5 256 504.5C118.76 504.5 7.5 393.24 7.5 256C7.5 118.76 118.76 7.5 256 7.5C393.24 7.5 504.5 118.76 504.5 256Z" />
	<path id="Layer" class="shp1" d="M37.5 256C37.5 123.79 140.74 15.7 271 7.95C266.04 7.65 261.04 7.5 256 7.5C118.76 7.5 7.5 118.76 7.5 256C7.5 393.24 118.76 504.5 256 504.5C261.04 504.5 266.04 504.35 271 504.05C140.74 496.3 37.5 388.21 37.5 256Z" />
	<g id="skull-death-2">
		<path id="Layer" class="shp2" d="M370.71 225.36C370.67 233.32 369.75 241.25 367.95 249.01C366.15 256.76 363.49 264.29 360.02 271.45C356.55 278.62 352.29 285.37 347.32 291.59C342.35 297.81 336.7 303.45 330.48 308.42C328.4 310.1 326.26 311.7 324.07 313.24C321.88 314.77 319.64 316.22 317.35 317.6C315.06 318.98 312.72 320.27 310.34 321.48C307.95 322.7 305.53 323.83 303.07 324.87L303.12 325.18L308.42 381.09L204.59 381.09L209.89 325.18L209.94 324.87C207.48 323.83 205.06 322.7 202.67 321.48C200.29 320.27 197.95 318.98 195.66 317.6C193.37 316.22 191.13 314.77 188.94 313.24C186.75 311.7 184.61 310.1 182.53 308.42C176.31 303.45 170.66 297.81 165.69 291.59C160.72 285.37 156.46 278.62 152.99 271.45C149.51 264.29 146.86 256.76 145.06 249.01C143.26 241.25 142.34 233.32 142.3 225.36C142.3 221.12 142.55 216.88 143.06 212.67C143.57 208.46 144.34 204.29 145.36 200.17C146.38 196.05 147.65 192 149.16 188.04C150.67 184.07 152.42 180.21 154.39 176.46C155.63 174.12 156.94 171.83 158.34 169.59C159.74 167.35 161.22 165.16 162.78 163.03C164.34 160.9 165.97 158.82 167.68 156.81C169.39 154.8 171.18 152.85 173.03 150.97C183.99 139.99 197 131.28 211.32 125.34C225.64 119.4 241 116.34 256.5 116.34C272.01 116.34 287.37 119.4 301.69 125.34C316.01 131.28 329.02 139.99 339.98 150.97C341.83 152.85 343.61 154.8 345.32 156.81C347.03 158.82 348.67 160.9 350.23 163.03C351.79 165.16 353.27 167.35 354.67 169.59C356.07 171.83 357.38 174.12 358.61 176.46C360.59 180.21 362.34 184.07 363.85 188.04C365.36 192 366.63 196.05 367.65 200.17C368.67 204.29 369.44 208.46 369.95 212.67C370.46 216.88 370.71 221.12 370.71 225.36L370.71 225.36Z" />
		<g id="Layer">
			<path id="Layer" class="shp2" d="M209.94 324.87L209.89 325.18L166.28 368.79C165.8 369.27 165.42 369.84 165.17 370.47C164.91 371.1 164.77 371.77 164.77 372.45C164.77 373.13 164.91 373.8 165.17 374.43C165.42 375.06 165.8 375.63 166.28 376.11L173.6 383.48C174.08 383.96 174.46 384.53 174.72 385.16C174.98 385.79 175.11 386.46 175.11 387.14C175.11 387.82 174.98 388.49 174.72 389.12C174.46 389.75 174.08 390.32 173.6 390.8L158.91 405.49C158.43 405.97 157.86 406.35 157.23 406.61C156.6 406.87 155.93 407 155.25 407C154.57 407 153.9 406.87 153.27 406.61C152.64 406.35 152.07 405.97 151.59 405.49L136.9 390.8C136.42 390.32 136.04 389.75 135.78 389.12C135.52 388.49 135.39 387.82 135.39 387.14C135.39 386.46 135.52 385.79 135.78 385.16C136.04 384.53 136.42 383.96 136.9 383.48L129.53 376.11C129.05 376.59 128.48 376.97 127.85 377.23C127.22 377.48 126.55 377.62 125.87 377.62C125.19 377.62 124.52 377.48 123.89 377.23C123.26 376.97 122.69 376.59 122.21 376.11L107.52 361.42C107.04 360.94 106.66 360.37 106.4 359.74C106.14 359.11 106.01 358.44 106.01 357.76C106.01 357.08 106.14 356.41 106.4 355.78C106.66 355.15 107.04 354.58 107.52 354.1L122.21 339.41C122.69 338.93 123.26 338.55 123.89 338.29C124.52 338.03 125.19 337.9 125.87 337.9C126.55 337.9 127.22 338.03 127.85 338.29C128.48 338.55 129.05 338.93 129.53 339.41L136.9 346.73C137.38 347.21 137.95 347.59 138.58 347.84C139.21 348.1 139.88 348.24 140.56 348.24C141.24 348.24 141.91 348.1 142.54 347.84C143.17 347.59 143.74 347.21 144.22 346.73L182.53 308.42C184.61 310.1 186.75 311.7 188.94 313.24C191.13 314.77 193.37 316.22 195.66 317.6C197.95 318.98 200.29 320.27 202.67 321.48C205.06 322.7 207.48 323.83 209.94 324.87L209.94 324.87Z" />
			<path id="Layer" class="shp2" d="M405.49 354.1C405.97 354.58 406.35 355.15 406.61 355.78C406.87 356.41 407 357.08 407 357.76C407 358.44 406.87 359.11 406.61 359.74C406.35 360.37 405.97 360.94 405.49 361.42L390.8 376.11C390.32 376.59 389.75 376.97 389.12 377.23C388.49 377.48 387.82 377.62 387.14 377.62C386.46 377.62 385.79 377.48 385.16 377.23C384.53 376.97 383.96 376.59 383.48 376.11L376.11 383.48C376.59 383.96 376.97 384.53 377.23 385.16C377.48 385.79 377.62 386.46 377.62 387.14C377.62 387.82 377.48 388.49 377.23 389.12C376.97 389.75 376.59 390.32 376.11 390.8L361.42 405.49C360.94 405.97 360.37 406.35 359.74 406.61C359.11 406.87 358.44 407 357.76 407C357.08 407 356.41 406.87 355.78 406.61C355.15 406.35 354.58 405.97 354.1 405.49L339.41 390.8C338.93 390.32 338.55 389.75 338.29 389.12C338.03 388.49 337.9 387.82 337.9 387.14C337.9 386.46 338.03 385.79 338.29 385.16C338.55 384.53 338.93 383.96 339.41 383.48L346.73 376.11C347.21 375.63 347.59 375.06 347.84 374.43C348.1 373.8 348.24 373.13 348.24 372.45C348.24 371.77 348.1 371.1 347.84 370.47C347.59 369.84 347.21 369.27 346.73 368.79L303.12 325.18L303.07 324.87C305.53 323.83 307.95 322.7 310.34 321.48C312.72 320.27 315.06 318.98 317.35 317.6C319.64 316.22 321.88 314.77 324.07 313.24C326.26 311.7 328.4 310.1 330.48 308.42L368.79 346.73C369.27 347.21 369.84 347.59 370.47 347.84C371.1 348.1 371.77 348.24 372.45 348.24C373.13 348.24 373.8 348.1 374.43 347.84C375.06 347.59 375.63 347.21 376.11 346.73L383.48 339.41C383.96 338.93 384.53 338.55 385.16 338.29C385.79 338.03 386.46 337.9 387.14 337.9C387.82 337.9 388.49 338.03 389.12 338.29C389.75 338.55 390.32 338.93 390.8 339.41L405.49 354.1Z" />
			<path id="Layer" class="shp2" d="M173.6 122.21C174.08 122.69 174.46 123.26 174.72 123.89C174.98 124.52 175.11 125.19 175.11 125.87C175.11 126.55 174.98 127.22 174.72 127.85C174.46 128.48 174.08 129.05 173.6 129.53L166.28 136.9C165.8 137.38 165.42 137.95 165.17 138.58C164.91 139.21 164.77 139.88 164.77 140.56C164.77 141.24 164.91 141.91 165.17 142.54C165.42 143.17 165.8 143.74 166.28 144.22L173.03 150.97C171.18 152.85 169.39 154.8 167.68 156.81C165.97 158.82 164.34 160.9 162.78 163.03C161.22 165.16 159.74 167.35 158.34 169.59C156.94 171.83 155.63 174.12 154.39 176.46L144.22 166.28C143.74 165.8 143.17 165.42 142.54 165.17C141.91 164.91 141.24 164.77 140.56 164.77C139.88 164.77 139.21 164.91 138.58 165.17C137.95 165.42 137.38 165.8 136.9 166.28L129.53 173.6C129.05 174.08 128.48 174.46 127.85 174.72C127.22 174.98 126.55 175.11 125.87 175.11C125.19 175.11 124.52 174.98 123.89 174.72C123.26 174.46 122.69 174.08 122.21 173.6L107.52 158.91C107.04 158.43 106.66 157.86 106.4 157.23C106.14 156.6 106.01 155.93 106.01 155.25C106.01 154.57 106.14 153.9 106.4 153.27C106.66 152.64 107.04 152.07 107.52 151.59L122.21 136.9C122.69 136.42 123.26 136.04 123.89 135.78C124.52 135.52 125.19 135.39 125.87 135.39C126.55 135.39 127.22 135.52 127.85 135.78C128.48 136.04 129.05 136.42 129.53 136.9L136.9 129.53C136.42 129.05 136.04 128.48 135.78 127.85C135.52 127.22 135.39 126.55 135.39 125.87C135.39 125.19 135.52 124.52 135.78 123.89C136.04 123.26 136.42 122.69 136.9 122.21L151.59 107.52C152.07 107.04 152.64 106.66 153.27 106.4C153.9 106.14 154.57 106.01 155.25 106.01C155.93 106.01 156.6 106.14 157.23 106.4C157.86 106.66 158.43 107.04 158.91 107.52L173.6 122.21Z" />
			<path id="Layer" class="shp2" d="M405.49 151.59C405.97 152.07 406.35 152.64 406.61 153.27C406.87 153.9 407 154.57 407 155.25C407 155.93 406.87 156.6 406.61 157.23C406.35 157.86 405.97 158.43 405.49 158.91L390.8 173.6C390.32 174.08 389.75 174.46 389.12 174.72C388.49 174.98 387.82 175.11 387.14 175.11C386.46 175.11 385.79 174.98 385.16 174.72C384.53 174.46 383.96 174.08 383.48 173.6L376.11 166.28C375.63 165.8 375.06 165.42 374.43 165.17C373.8 164.91 373.13 164.77 372.45 164.77C371.77 164.77 371.1 164.91 370.47 165.17C369.84 165.42 369.27 165.8 368.79 166.28L358.61 176.46C357.38 174.12 356.07 171.83 354.67 169.59C353.27 167.35 351.79 165.16 350.23 163.03C348.67 160.9 347.03 158.82 345.32 156.81C343.61 154.8 341.83 152.85 339.98 150.97L346.73 144.22C347.21 143.74 347.59 143.17 347.84 142.54C348.1 141.91 348.24 141.24 348.24 140.56C348.24 139.88 348.1 139.21 347.84 138.58C347.59 137.95 347.21 137.38 346.73 136.9L339.41 129.53C338.93 129.05 338.55 128.48 338.29 127.85C338.03 127.22 337.9 126.55 337.9 125.87C337.9 125.19 338.03 124.52 338.29 123.89C338.55 123.26 338.93 122.69 339.41 122.21L354.1 107.52C354.58 107.04 355.15 106.66 355.78 106.4C356.41 106.14 357.08 106.01 357.76 106.01C358.44 106.01 359.11 106.14 359.74 106.4C360.37 106.66 360.94 107.04 361.42 107.52L376.11 122.21C376.59 122.69 376.97 123.26 377.23 123.89C377.48 124.52 377.62 125.19 377.62 125.87C377.62 126.55 377.48 127.22 377.23 127.85C376.97 128.48 376.59 129.05 376.11 129.53L383.48 136.9C383.96 136.42 384.53 136.04 385.16 135.78C385.79 135.52 386.46 135.39 387.14 135.39C387.82 135.39 388.49 135.52 389.12 135.78C389.75 136.04 390.32 136.42 390.8 136.9L405.49 151.59Z" />
		</g>
		<path id="Layer" class="shp3" d="M266.89 282.46L272.08 303.22L240.93 303.22L246.12 282.46L266.89 282.46Z" />
		<path id="Layer" class="shp3" d="M326.12 207.03C332.12 211.66 336.52 218.06 338.7 225.32C340.88 232.58 340.74 240.33 338.29 247.51C335.84 254.68 331.2 260.91 325.04 265.31C318.87 269.72 311.48 272.08 303.9 272.08C300.67 272.08 297.45 271.65 294.33 270.8C291.21 269.94 288.22 268.68 285.44 267.04C282.65 265.4 280.1 263.4 277.84 261.08C275.58 258.77 273.65 256.16 272.08 253.34L326.12 207.03Z" />
		<path id="Layer" class="shp3" d="M241.61 253.34C237.71 260.4 231.58 265.97 224.17 269.16C216.77 272.35 208.51 272.99 200.7 270.98C192.89 268.96 185.97 264.4 181.04 258.02C176.11 251.64 173.43 243.81 173.45 235.74C173.44 232.97 173.75 230.22 174.37 227.52C174.99 224.83 175.92 222.21 177.14 219.73C178.36 217.25 179.86 214.92 181.62 212.78C183.37 210.64 185.37 208.71 187.57 207.03L241.61 253.34Z" />
		<path id="Layer" class="shp3" d="M241.61 253.34C237.71 260.4 231.58 265.97 224.17 269.16C216.77 272.35 208.51 272.99 200.7 270.98C192.89 268.96 185.97 264.4 181.04 258.02C176.11 251.64 173.43 243.81 173.45 235.74C173.44 232.97 173.75 230.22 174.37 227.52C174.99 224.83 175.92 222.21 177.14 219.73C178.36 217.25 179.86 214.92 181.62 212.78C183.37 210.64 185.37 208.71 187.57 207.03L241.61 253.34Z" />
		<path id="Layer" class="shp4" d="M251.31 349.95L261.7 349.95L261.7 381.09L251.31 381.09L251.31 349.95Z" />
		<path id="Layer" class="shp4" d="M225.36 360.33L235.74 360.33L235.74 381.09L225.36 381.09L225.36 360.33Z" />
		<path id="Layer" class="shp4" d="M277.27 360.33L287.65 360.33L287.65 381.09L277.27 381.09L277.27 360.33Z" />
	</g>
	<path id="Layer" class="shp5" d="M349.86 467.07L343.77 453.36C381.24 436.7 412.94 410.07 435.46 376.36L447.93 384.69C423.84 420.77 389.93 449.25 349.86 467.07L349.86 467.07ZM453.48 375.96L440.64 368.2C443.13 364.09 445.51 359.83 447.72 355.55L461.05 362.44C458.68 367.02 456.14 371.56 453.48 375.96ZM465.59 353.15L451.97 346.86C453.99 342.5 455.89 338 457.62 333.5L471.62 338.88C469.77 343.68 467.75 348.48 465.59 353.15Z" />
</svg>