<svg xmlns="http://www.w3.org/2000/svg" viewBox="0 0 512 512" width="512" height="512">
	<style>
		tspan { white-space:pre }
		.shp0 { fill: #c6c5ca } 
		.shp1 { fill: #898890 } 
		.shp2 { fill: #db1717 } 
		.shp3 { fill: #be1818 } 
		.shp4 { fill: #cdcdcd } 
		.shp5 { fill: #ffffff } 
	</style>
	<path id="Layer" class="shp0" d="M504.5 256C504.5 393.24 393.24 504.5 256 504.5C118.76 504.5 7.5 393.24 7.5 256C7.5 118.76 118.76 7.5 256 7.5C393.24 7.5 504.5 118.76 504.5 256Z" />
	<path id="Layer" class="shp1" d="M36.5 257C36.5 124.79 139.74 16.7 270 8.95C265.04 8.65 260.04 8.5 255 8.5C117.76 8.5 6.5 119.76 6.5 257C6.5 394.24 117.76 505.5 255 505.5C260.04 505.5 265.04 505.35 270 505.05C139.74 497.3 36.5 389.21 36.5 257Z" />
	<g id="surface1">
		<path id="Layer" class="shp2" d="M229.14 428.02C276.15 428.02 314.27 389.91 314.27 342.88C314.27 295.87 229.14 209.1 229.14 209.1L229.14 428.02Z" />
		<path id="Layer" fill-rule="evenodd" class="shp3" d="M144 342.88C144 389.91 182.12 428.02 229.14 428.02L229.14 209.1C229.14 209.1 144 295.87 144 342.88ZM174.4 342.88C174.44 369.74 196.2 391.5 223.06 391.54C196.2 391.5 174.44 369.74 174.4 342.88Z" />
		<path id="Layer" class="shp3" d="M271.7 178.7C271.73 205.55 293.5 227.31 320.35 227.34L320.35 99.35C294.2 130.7 271.7 164.82 271.7 178.7Z" />
		<path id="Layer" class="shp2" d="M320.35 99.33L320.35 227.34C347.21 227.31 368.97 205.55 369 178.7C369 165.82 347.91 132.29 320.35 99.33Z" />
		<path id="Layer" class="shp2" d="M226.85 119.1C220.57 106.77 213.2 95.03 204.85 84L204.85 148.29C215 148.28 224.08 141.98 227.64 132.48C229.19 128.09 228.91 123.27 226.85 119.1Z" />
		<path id="Layer" class="shp3" d="M210.89 148.29L210.89 84.01C202.56 94.96 195.19 106.6 188.87 118.82C186.81 122.99 186.51 127.8 188.01 132.2C191.49 141.84 200.64 148.27 210.89 148.29Z" />
		<path id="Layer" class="shp4" d="M223.06 397.62C192.84 397.58 168.36 373.1 168.32 342.88L180.49 342.88C180.52 366.38 199.56 385.42 223.06 385.45L223.06 397.62Z" />
	</g>
	<path id="Layer" class="shp5" d="M349.86 467.07L343.77 453.36C381.24 436.7 412.94 410.07 435.46 376.36L447.93 384.69C423.84 420.77 389.93 449.25 349.86 467.07L349.86 467.07ZM453.48 375.96L440.64 368.2C443.13 364.09 445.51 359.83 447.72 355.55L461.05 362.44C458.68 367.02 456.14 371.56 453.48 375.96ZM465.59 353.15L451.97 346.86C453.99 342.5 455.89 338 457.62 333.5L471.62 338.88C469.77 343.68 467.75 348.48 465.59 353.15Z" />
</svg>