<?xml version="1.0" encoding="UTF-8" standalone="no"?>
<svg
   xmlns:dc="http://purl.org/dc/elements/1.1/"
   xmlns:cc="http://creativecommons.org/ns#"
   xmlns:rdf="http://www.w3.org/1999/02/22-rdf-syntax-ns#"
   xmlns:svg="http://www.w3.org/2000/svg"
   xmlns="http://www.w3.org/2000/svg"
   xmlns:sodipodi="http://sodipodi.sourceforge.net/DTD/sodipodi-0.dtd"
   xmlns:inkscape="http://www.inkscape.org/namespaces/inkscape"
   id="svg6641"
   version="1.1"
   class=""
   width="512px"
   viewBox="-17 0 512 512"
   height="512px"
   sodipodi:docname="logs_maple.svg"
   inkscape:version="0.92.4 (5da689c313, 2019-01-14)">
  <sodipodi:namedview
     pagecolor="#ffffff"
     bordercolor="#666666"
     borderopacity="1"
     objecttolerance="10"
     gridtolerance="10"
     guidetolerance="10"
     inkscape:pageopacity="0"
     inkscape:pageshadow="2"
     inkscape:window-width="958"
     inkscape:window-height="991"
     id="namedview15922"
     showgrid="false"
     inkscape:zoom="0.921875"
     inkscape:cx="158.55352"
     inkscape:cy="157.14397"
     inkscape:window-x="-8"
     inkscape:window-y="0"
     inkscape:window-maximized="0"
     inkscape:current-layer="svg6641" />
  <metadata
     id="metadata6647">
    <rdf:RDF>
      <cc:Work
         rdf:about="">
        <dc:format>image/svg+xml</dc:format>
        <dc:type
           rdf:resource="http://purl.org/dc/dcmitype/StillImage" />
        <dc:title></dc:title>
      </cc:Work>
    </rdf:RDF>
  </metadata>
  <defs
     id="defs6645" />
  <g
     transform="translate(-830.2073,-1901.9989)"
     id="g9708">
    <path
       inkscape:connector-curvature="0"
       d="m 1224.3479,2043.1473 -64.1406,64.1407 V 1971.9989 H 840.20725 v 382 c 0,18.5 32.17188,34.6602 80,43.3008 37.80469,6.8437 81.23825,8.2422 120.00005,5.1211 69.0195,-5.5508 120,-25.1328 120,-48.4219 v -105.2891 l 134.8516,-134.8515 z m 0,0"
       data-original="#C66752"
       class=""
       data-old_color="#c66752"
       style="fill:#c3701b;fill-opacity:1"
       id="path5212-2-29-1" />
    <path
       inkscape:connector-curvature="0"
       d="m 1273.8479,2064.3583 c 19.5313,19.5312 29.0196,41.6914 21.211,49.5 -7.8125,7.8125 -29.9727,-1.6875 -49.4922,-21.2188 -19.5313,-19.5195 -29.0313,-41.6797 -21.2188,-49.4922 7.8086,-7.8086 29.9688,1.6797 49.5,21.211 z m 0,0"
       data-original="#FEC9A6"
       class="active-path"
       data-old_color="#fec9a6"
       style="fill:#b09272;fill-opacity:1"
       id="path5214-7-4-71" />
    <path
       inkscape:connector-curvature="0"
       d="m 1000.2072,2031.9989 -159.99995,-60 v 382 c 0,18.5 32.17188,34.6602 80,43.3008 25.18275,4.5588 52.86318,6.7014 79.99665,6.7014 z"
       data-original="#C66752"
       class=""
       data-old_color="#c66752"
       style="fill:#b16619;fill-opacity:1"
       id="path5212-2-2-9-6"
       sodipodi:nodetypes="ccsccc" />
    <path
       inkscape:connector-curvature="0"
       d="m 965.43867,2107.3368 c -5.5195,0 -10,4.4805 -10,10 0,5.5195 4.4805,10 10,10 5.5195,0 10,-4.4805 10,-10 0,-5.5195 -4.4805,-10 -10,-10 z m 0,0"
       data-original="#000000"
       class=""
       style="fill:#633f19;fill-opacity:1"
       id="path5218-2-1" />
    <path
       inkscape:connector-curvature="0"
       style="fill:#744a1d;fill-opacity:1"
       d="m 1111.4389,2013.1094 c -6.1807,2.243 -12.8372,4.2997 -19.916,6.1484 l -0.084,52.545 c -0.01,5.5195 4.4766,10 10,10 5.5234,0 10,-4.4805 10,-10 z"
       id="path5220-74-6" />
    <path
       inkscape:connector-curvature="0"
       d="m 891.43867,2117.3368 c 0,-5.5234 -4.47656,-10 -10,-10 -5.52344,0 -10,4.4766 -10,10 v 40 c 0,5.5234 4.47656,10 10,10 5.52344,0 10,-4.4766 10,-10 z m 0,0"
       data-original="#000000"
       class=""
       style="fill:#633f19;fill-opacity:1"
       id="path5222-0-4" />
    <path
       inkscape:connector-curvature="0"
       d="m 901.43867,2207.3368 c -5.52344,0 -10,4.4766 -10,10 v 86 c 0,5.5234 4.47656,10 10,10 5.52344,0 10,-4.4766 10,-10 v -86 c 0,-5.5234 -4.47656,-10 -10,-10 z m 0,0"
       data-original="#000000"
       class=""
       style="fill:#633f19;fill-opacity:1"
       id="path5224-3-2" />
    <path
       inkscape:connector-curvature="0"
       d="m 1141.4387,2147.3368 c -5.5234,0 -10,4.4766 -10,10 v 40 c 0,5.5234 4.4766,10 10,10 5.5234,0 10,-4.4766 10,-10 v -40 c 0,-5.5234 -4.4766,-10 -10,-10 z m 0,0"
       data-original="#000000"
       class=""
       style="fill:#744a1d;fill-opacity:1"
       id="path5226-9-9" />
    <path
       inkscape:connector-curvature="0"
       d="m 965.43867,2147.3368 c -5.5234,0 -10,4.4766 -10,10 v 146 c 0,5.5234 4.4766,10 10,10 5.5234,0 10,-4.4766 10,-10 v -146 c 0,-5.5234 -4.4766,-10 -10,-10 z m 0,0"
       data-original="#000000"
       class=""
       style="fill:#633f19;fill-opacity:1"
       id="path5228-5-4" />
    <path
       inkscape:connector-curvature="0"
       d="m 1061.4387,2087.3368 c -5.5234,0 -10,4.4766 -10,10 v 80 c 0,5.5234 4.4766,10 10,10 5.5234,0 10,-4.4766 10,-10 v -80 c 0,-5.5234 -4.4766,-10 -10,-10 z m 0,0"
       data-original="#000000"
       class=""
       style="fill:#744a1d;fill-opacity:1"
       id="path5230-6-9" />
    <path
       inkscape:connector-curvature="0"
       d="m 1061.4387,2207.3368 c -5.5234,0 -10,4.4766 -10,10 v 40 c 0,5.5234 4.4766,10 10,10 5.5234,0 10,-4.4766 10,-10 v -40 c 0,-5.5234 -4.4766,-10 -10,-10 z m 0,0"
       data-original="#000000"
       class=""
       style="fill:#744a1d;fill-opacity:1"
       id="path5232-52-2" />
    <path
       inkscape:connector-curvature="0"
       style="fill:#633f19;fill-opacity:1"
       d="m 928.50919,2360.4063 c -5.52344,0 -10,4.4766 -10,10 v 26.5742 c 0.56718,0.1054 1.12559,0.2151 1.69727,0.3183 5.97251,1.0812 12.08986,2.023 18.30273,2.836 v -29.7285 c 0,-5.5234 -4.47661,-10 -10,-10 z"
       id="path5220-7-2-3-5" />
    <path
       inkscape:connector-curvature="0"
       style="fill:#633f19;fill-opacity:1"
       d="m 918.5131,2021.5879 v 64.6738 c 0,5.5235 4.47656,10 10,10 5.52339,0 10,-4.4765 10,-10 v -60.8886 c -6.93105,-1.0871 -13.60438,-2.358 -20,-3.7852 z"
       id="path5220-7-0-6-28" />
    <path
       inkscape:connector-curvature="0"
       style="fill:#744a1d;fill-opacity:1"
       d="m 1048.5092,2333.7149 c -5.5234,0 -10,4.4804 -10,10 v 58.8281 c 0.5638,-0.043 1.1354,-0.078 1.6973,-0.1231 6.2588,-0.5033 12.3651,-1.1251 18.3027,-1.8515 v -56.8535 c 0,-5.5196 -4.4766,-10 -10,-10 z"
       id="path5220-7-5-2-0" />
    <path
       inkscape:connector-curvature="0"
       style="fill:#744a1d;fill-opacity:1"
       d="m 1128.5131,2346.2344 c -5.5234,0 -10.0007,4.4766 -10,10 v 31.416 c 7.586,-2.6028 14.292,-5.4591 20,-8.5195 v -0.022 -22.875 c 0,-5.5234 -4.4766,-10 -10,-10 z"
       id="path5220-7-6-2-72" />
    <path
       inkscape:connector-curvature="0"
       d="m 1000.2072,1911.9989 c -88.37104,0 -159.99995,26.8594 -159.99995,60 0,33.1406 71.62891,60 159.99995,60 88.3711,0 160.0001,-26.8594 160.0001,-60 0,-33.1406 -71.629,-60 -160.0001,-60 z m 0,0"
       data-original="#FEC9A6"
       class="active-path"
       data-old_color="#fec9a6"
       style="fill:#a07e5a;fill-opacity:1"
       id="path5216-9-3-3" />
    <path
       inkscape:connector-curvature="0"
       d="m 1000.2072,1933.4989 c -67.01469,0 -121.33328,16.7871 -121.33328,37.5 0,20.7129 54.31859,37.5 121.33328,37.5 67.0148,0 121.3334,-16.7871 121.3334,-37.5 0,-20.7129 -54.3186,-37.5 -121.3334,-37.5 z m 0,0"
       data-original="#FEC9A6"
       class="active-path"
       data-old_color="#fec9a6"
       style="fill:#b09272;fill-opacity:1;stroke-width:0.68844628"
       id="path5216-3-7-9-5" />
    <path
       inkscape:connector-curvature="0"
       d="m 1000.2072,1911.9989 c -88.37104,0 -159.99995,26.8594 -159.99995,60 0,33.1406 71.62891,60 159.99995,60 v -23.5 l -116.49995,-36.5 116.49995,-38.5 z"
       data-original="#FEC9A6"
       class="active-path"
       data-old_color="#fec9a6"
       style="opacity:1;vector-effect:none;fill:#937453;fill-opacity:1;stroke-width:1;stroke-linecap:butt;stroke-linejoin:miter;stroke-miterlimit:4;stroke-dasharray:none;stroke-dashoffset:0;stroke-opacity:1"
       id="path5216-9-9-7-9"
       sodipodi:nodetypes="csccccc" />
    <path
       inkscape:connector-curvature="0"
       d="m 1000.2072,1933.4989 c -67.01469,0 -121.33328,16.7871 -121.33328,37.5 0,20.7129 54.31859,37.5 121.33328,37.5 z"
       data-original="#FEC9A6"
       class="active-path"
       data-old_color="#fec9a6"
       style="fill:#a98865;fill-opacity:1;stroke-width:0.68844628"
       id="path5216-3-7-5-3-5"
       sodipodi:nodetypes="cscc" />
  </g>
</svg>
