<svg xmlns="http://www.w3.org/2000/svg" viewBox="0 0 512 512" width="512" height="512">
	<style>
		tspan { white-space:pre }
		.shp0 { fill: #865022 } 
		.shp1 { fill: #cb1c1c } 
		.shp2 { fill: #a01b1b } 
		.shp3 { fill: #ffd740 } 
		.shp4 { fill: #ffc400 } 
	</style>
	<path id="Layer" class="shp0" d="M41.71 469.16C31.19 458.64 31.19 441.59 41.71 431.07L384.91 87.87L423 125.97L79.8 469.16C69.29 479.68 52.23 479.68 41.71 469.16Z" />
	<path id="Layer" class="shp1" d="M397.24 113.64C375.39 91.79 375.34 56.53 397.12 34.76C418.89 12.98 454.15 13.03 476 34.88C497.84 56.72 497.89 91.98 476.12 113.76C454.34 135.53 419.08 135.48 397.24 113.64Z" />
	<path id="Layer" class="shp2" d="M476 34.88C471.38 30.26 466.15 26.63 460.58 23.96C470.51 44.71 466.93 70.28 449.78 87.42C432.64 104.57 407.07 108.15 386.32 98.22C388.99 103.79 392.62 109.02 397.24 113.64C419.05 135.45 454.37 135.51 476.12 113.76C497.87 92.01 497.81 56.69 476 34.88L476 34.88Z" />
	<path id="Layer" class="shp3" d="M394.95 157.93L352.95 115.92C350.05 113.02 350.05 108.32 352.95 105.42L373.95 84.42C376.85 81.52 381.55 81.52 384.45 84.42L426.46 126.42C429.36 129.32 429.36 134.02 426.46 136.92L405.45 157.93C402.55 160.83 397.85 160.83 394.95 157.93Z" />
	<path id="Layer" class="shp4" d="M426.46 126.42L400.2 100.17C403.1 103.07 403.1 107.77 400.2 110.67L379.2 131.67C376.3 134.57 371.6 134.57 368.7 131.67L394.95 157.93C397.85 160.83 402.55 160.83 405.45 157.93L426.46 136.92C429.36 134.02 429.36 129.32 426.46 126.42Z" />
</svg>