<svg width="370" height="580" viewBox="0 0 370 580" fill="none" xmlns="http://www.w3.org/2000/svg">
<rect width="26" height="60" transform="matrix(-0.906308 -0.422618 -0.422618 0.906308 99.5381 485.679)" fill="#7E7E7E"/>
<circle r="10" transform="matrix(-0.906308 -0.422618 -0.422618 0.906308 92.5931 493.474)" fill="#7E7E7E"/>
<circle r="10" transform="matrix(-0.906308 -0.422618 -0.422618 0.906308 84.1407 511.6)" fill="#7E7E7E"/>
<ellipse rx="9" ry="10" transform="matrix(-0.906308 -0.422618 -0.422618 0.906308 91.6869 493.052)" fill="#7E7E7E"/>
<ellipse rx="9" ry="10" transform="matrix(-0.906308 -0.422618 -0.422618 0.906308 83.2345 511.178)" fill="#7E7E7E"/>
<ellipse rx="9" ry="10" transform="matrix(-0.906308 -0.422618 -0.422618 0.906308 74.7821 529.304)" fill="#7E7E7E"/>
<rect width="26" height="2" rx="1" transform="matrix(-0.906308 -0.422618 -0.422618 0.906308 91.5083 502.899)" fill="#383838"/>
<rect width="26" height="2" rx="1" transform="matrix(-0.906308 -0.422618 -0.422618 0.906308 83.0562 521.025)" fill="#383838"/>
<path d="M92.2134 541.659L68.7242 553.688L40.8333 549.487L44.2721 526.656L92.2134 541.659Z" fill="#5B5B5B"/>
<path d="M155.405 468.751L129.185 500.868L95.2735 485.055L109.383 454.796L155.405 468.751Z" fill="#5B5B5B"/>
<path d="M40.2398 434.833L58.6594 467.981L95.2736 485.055L109.384 454.796L40.2398 434.833Z" fill="#5B5B5B"/>
<path d="M307.446 30.049C311.89 46.8361 251.434 92.4313 222.495 109.82C227.771 129.754 211.025 181.052 196.71 216.896C166.374 292.85 108.503 390.395 70.8121 443.633L132.43 458.039C153.874 423.203 262.483 265.33 280.426 235.753C365.282 109.959 333.796 46.2027 307.446 30.049Z" fill="#1D9B23"/>
<path d="M303.136 63.5137C306.06 77.3622 263.429 98.6115 240.312 114.035C243.784 130.48 226.561 186.076 214.249 216.412C188.16 280.693 105.362 399.66 74.2699 445.244L129.701 449.262C340.635 151.402 333.214 67.9883 303.136 63.5137Z" fill="#137617"/>
<path d="M120.953 422.67L60.8973 441.737L140.09 465.021L120.953 422.67Z" fill="#5B5B5B"/>
<path d="M96.1615 456.817L107.627 451.248L109.05 462.826L99.788 468.058L96.1615 456.817Z" fill="#F7D490"/>
</svg>
