<svg xmlns="http://www.w3.org/2000/svg" viewBox="0 0 512 512" width="512" height="512">
	<style>
		tspan { white-space:pre }
		.shp0 { fill: #ceced1 } 
		.shp1 { fill: #bebdc2 } 
	</style>
	<path id="Layer" class="shp0" d="M380.21 41.94C375.26 36.99 369.36 33.28 362.86 30.98C360.57 24.49 356.85 18.59 351.91 13.64C343.11 4.84 331.42 0 318.98 0C306.55 0 294.85 4.84 286.06 13.64C277.27 22.43 272.42 34.12 272.42 46.56C272.42 55.33 274.84 63.72 279.34 70.99L70.99 279.34C63.72 274.84 55.33 272.42 46.56 272.42C34.12 272.42 22.43 277.27 13.64 286.06C4.84 294.85 0 306.55 0 318.98C0 331.42 4.84 343.11 13.64 351.91C18.59 356.85 24.49 360.57 30.98 362.87C33.28 369.36 36.99 375.26 41.94 380.21C51.02 389.29 62.94 393.83 74.86 393.82C86.79 393.82 98.71 389.29 107.79 380.21C123.32 364.67 125.55 340.81 114.5 322.86L322.85 114.51C330.13 119.01 338.52 121.42 347.29 121.42C359.72 121.42 371.41 116.58 380.21 107.79C389 98.99 393.85 87.3 393.85 74.86C393.85 62.43 389 50.73 380.21 41.94Z" />
	<path id="Layer" class="shp1" d="M380.21 41.94C375.26 36.99 369.36 33.28 362.86 30.98C360.57 24.49 356.85 18.59 351.91 13.64C343.11 4.84 331.42 0 318.98 0C306.55 0 294.85 4.84 286.06 13.64C277.27 22.43 272.42 34.12 272.42 46.56C272.42 55.33 274.84 63.72 279.34 70.99L175.15 175.19L218.66 218.7L322.85 114.51C330.13 119.01 338.52 121.42 347.29 121.42C359.72 121.42 371.41 116.58 380.21 107.79C389 98.99 393.85 87.3 393.85 74.86C393.85 62.43 389 50.73 380.21 41.94Z" />
	<path id="Layer copy" class="shp0" d="M498.36 161.32C493.41 156.38 487.51 152.66 481.02 150.37C478.72 143.87 475.01 137.97 470.06 133.02C461.27 124.23 449.57 119.38 437.14 119.38C424.7 119.38 413.01 124.23 404.21 133.02C395.42 141.82 390.58 153.51 390.58 165.95C390.58 174.71 392.99 183.1 397.49 190.38L189.15 398.72C181.87 394.22 173.48 391.81 164.71 391.81C152.28 391.81 140.59 396.65 131.79 405.44C123 414.24 118.15 425.93 118.15 438.37C118.15 450.8 123 462.5 131.79 471.29C136.74 476.24 142.64 479.95 149.14 482.25C151.43 488.74 155.15 494.65 160.09 499.59C169.17 508.67 181.09 513.21 193.02 513.21C204.94 513.21 216.86 508.67 225.94 499.59C241.48 484.06 243.7 460.19 232.65 442.25L441.01 233.89C448.28 238.39 456.67 240.81 465.44 240.81C477.88 240.81 489.57 235.97 498.36 227.17C507.16 218.38 512 206.68 512 194.25C512 181.81 507.16 170.12 498.36 161.32Z" />
	<path id="Layer copy 2" class="shp1" d="M498.36 161.32C493.41 156.38 487.51 152.66 481.02 150.37C478.72 143.87 475.01 137.97 470.06 133.02C461.27 124.23 449.57 119.38 437.14 119.38C424.7 119.38 413.01 124.23 404.21 133.02C395.42 141.82 390.58 153.51 390.58 165.95C390.58 174.71 392.99 183.1 397.49 190.38L293.3 294.57L336.81 338.08L441.01 233.89C448.28 238.39 456.67 240.81 465.44 240.81C477.88 240.81 489.57 235.97 498.36 227.17C507.16 218.38 512 206.68 512 194.25C512 181.81 507.16 170.12 498.36 161.32Z" />
</svg>