<svg xmlns="http://www.w3.org/2000/svg" viewBox="0 0 512 512" width="512" height="512">
	<style>
		tspan { white-space:pre }
		.shp0 { fill: #024058 } 
		.shp1 { fill: #555555 } 
		.shp2 { fill: #515151 } 
		.shp3 { fill: #121212 } 
		.shp4 { fill: #2d4a5a } 
	</style>
	<path id="Layer" class="shp0" d="M155.64 197.54L155.47 159.27C201.11 152.3 236.08 112.87 236.08 65.28L236.08 41.98L169.49 47.91C148.21 49.81 129.1 61.74 118.05 80.02L118.04 80.04L118.03 80.03C106.98 61.74 87.87 49.81 66.58 47.91L0 41.98L0 65.28C0 112.88 34.97 152.31 80.62 159.27L80.45 197.54C80.45 303.18 156.37 391.09 256.63 409.69L337.42 409.39C436.88 390.16 512 302.62 512 197.54L155.64 197.54Z" />
	<path id="Layer" class="shp1" d="M337.42 409.39C436.88 390.16 512 302.62 512 197.54L450.53 197.54L442.47 221.62C419.76 289.45 356.23 335.17 284.71 335.17L284.71 335.17L284.71 409.58L337.42 409.39Z" />
	<path id="Layer" class="shp2" d="M337.42 409.39C436.88 390.16 512 302.62 512 197.54C512 197.54 495.67 197.54 482.47 197.54C482.47 273.24 412.24 371.02 284.71 371.02L284.71 409.58L337.42 409.39Z" />
	<path id="Layer" class="shp3" d="M365.24 268.99C356.43 268.99 349.31 261.87 349.31 253.06C349.31 244.25 356.43 237.13 365.24 237.13C374.05 237.13 381.17 244.25 381.17 253.06C381.17 261.87 374.05 268.99 365.24 268.99Z" />
	<path id="Layer" class="shp4" d="M264.93 324.93C264.93 324.93 235.31 402.66 266.2 470.02C354.27 439.04 342.2 324.93 342.2 324.93L264.93 324.93L264.93 324.93Z" />
	<g id="Layer">
	</g>
	<g id="Layer">
	</g>
	<g id="Layer">
	</g>
	<g id="Layer">
	</g>
	<g id="Layer">
	</g>
	<g id="Layer">
	</g>
	<g id="Layer">
	</g>
	<g id="Layer">
	</g>
	<g id="Layer">
	</g>
	<g id="Layer">
	</g>
	<g id="Layer">
	</g>
	<g id="Layer">
	</g>
	<g id="Layer">
	</g>
	<g id="Layer">
	</g>
	<g id="Layer">
	</g>
</svg>