<svg xmlns="http://www.w3.org/2000/svg" viewBox="0 0 504 505" width="504" height="505">
	<style>
		tspan { white-space:pre }
		.shp0 { fill: #7c5215 } 
		.shp1 { fill: #4c320e } 
	</style>
	<path id="Layer" class="shp0" d="M42.86 329C41.64 330.23 40.6 331.63 39.78 333.15C27.32 328.06 17.61 327.46 12.72 332.35C-0.2 345.27 25.25 391.74 69.64 436.14C87.81 454.83 108.31 471.1 130.64 484.55C150.67 496 166.67 499.82 173.43 493.06C178.32 488.17 177.72 478.46 172.63 465.87C174.15 465.1 175.54 464.08 176.72 462.86L179.19 460.38C189.92 449.63 204.53 443.66 219.71 443.84C245.22 444.17 286.94 442.36 317.34 429.37C364.21 409.29 432.38 383.71 459.16 383.71C485.95 383.7 485.95 356.92 472.56 343.53C459.16 330.14 411.08 335.63 377.6 342.32C366.9 344.54 355.98 345.53 345.06 345.27C338.61 345.03 332.73 341.52 329.45 335.97C326.18 330.42 325.95 323.57 328.86 317.81C334.56 307.01 341.98 297.19 350.82 288.75L478.05 161.53C487.94 151.72 489.26 136.2 481.18 124.86C473.1 113.52 458 109.71 445.5 115.86C442.68 117.27 440.11 119.13 437.87 121.35L464.65 94.56C472.53 87.55 475.87 76.76 473.33 66.52C470.8 56.29 462.81 48.3 452.58 45.77C442.35 43.24 431.55 46.58 424.54 54.45L397.76 81.24C400 79 401.83 76.4 403.18 73.54C405.09 69.69 406.07 65.45 406.06 61.15C406.05 49.67 399.14 39.32 388.53 34.92C377.92 30.53 365.71 32.95 357.58 41.06L305.15 93.49C307.39 91.26 309.22 88.65 310.57 85.79C312.48 81.94 313.46 77.7 313.45 73.41C313.49 65.14 309.89 57.28 303.61 51.91C291.7 42.3 274.42 43.4 263.83 54.45L103.13 215.16C103.13 215.16 67.03 251.26 68.97 294.98C69.08 300.05 67.07 304.93 63.42 308.44L42.86 329Z" />
	<path id="Layer" class="shp1" d="M431.17 114.66L317.34 228.49C313.64 232.19 313.64 238.18 317.33 241.88C321.03 245.58 327.03 245.58 330.73 241.88L444.56 128.05C447.87 124.79 448.27 119.59 445.5 115.86C442.68 117.27 440.11 119.13 437.87 121.35L444.56 114.65C440.87 110.95 434.87 110.96 431.17 114.66L431.17 114.66Z" />
	<path id="Layer" class="shp1" d="M431.17 114.66L317.34 228.49C313.64 232.19 313.64 238.18 317.33 241.88C321.03 245.58 327.03 245.58 330.73 241.88L444.56 128.05C447.87 124.79 448.27 119.59 445.5 115.86C442.68 117.27 440.11 119.13 437.87 121.35L444.56 114.65C440.87 110.95 434.87 110.96 431.17 114.66L431.17 114.66Z" />
	<path id="Layer" class="shp1" d="M391.06 74.54L277.22 188.38C273.53 192.07 273.53 198.07 277.22 201.77C280.92 205.47 286.92 205.47 290.62 201.77L404.45 87.94C408.15 84.24 408.15 78.24 404.45 74.54L397.76 81.24C400 79 401.83 76.4 403.18 73.54C399.44 70.85 394.31 71.27 391.06 74.54Z" />
	<path id="Layer" class="shp1" d="M298.45 86.79L230.35 154.9C226.65 158.6 226.66 164.59 230.35 168.29C234.05 171.99 240.04 171.99 243.74 168.29L311.85 100.19C315.54 96.49 315.54 90.5 311.85 86.8L305.15 93.49C307.39 91.26 309.22 88.65 310.57 85.79C306.82 83.14 301.72 83.57 298.45 86.79L298.45 86.79Z" />
	<path id="Layer" class="shp1" d="M136.71 235.35C140.4 239.05 146.4 239.05 150.1 235.35L190.27 195.17C193.97 191.47 193.98 185.48 190.28 181.78C186.58 178.08 180.58 178.08 176.88 181.78L136.71 221.96C133.01 225.66 133.01 231.65 136.71 235.35L136.71 235.35Z" />
	<path id="Layer" class="shp1" d="M103.22 282.22C105.93 284.93 110.01 285.74 113.54 284.28C117.08 282.81 119.39 279.36 119.39 275.53C119.12 270.68 120.56 265.88 123.47 261.98C126.89 258.14 126.7 252.3 123.05 248.67C119.39 245.1 113.55 245.14 109.92 248.74C103.46 256.14 100.07 265.72 100.45 275.54C100.45 278.05 101.45 280.45 103.22 282.22L103.22 282.22Z" />
	<path id="Layer" class="shp1" d="M91.25 416.11C103.37 428.02 117.45 437.74 132.88 444.85C135.99 446.19 139.57 445.76 142.29 443.73C144.99 441.71 146.42 438.39 146.02 435.03C145.62 431.67 143.46 428.77 140.35 427.44C139.92 427.25 97.2 408.39 85.33 372.87C83.67 367.91 78.3 365.23 73.34 366.89C68.38 368.54 65.7 373.91 67.35 378.87C72.32 392.97 80.5 405.72 91.25 416.11Z" />
</svg>