<svg xmlns="http://www.w3.org/2000/svg" viewBox="0 0 513 513" width="513" height="513">
	<style>
		tspan { white-space:pre }
		.shp0 { fill: #db7721 } 
		.shp1 { fill: #935534 } 
	</style>
	<g id="Layer">
		<g id="Layer">
			<path id="Layer" class="shp0" d="M335.59 335.46L326.77 335.46C292.57 335.46 264.84 307.74 264.84 273.54L264.84 273.54C264.84 176.11 343.82 97.12 441.26 97.12L450.09 97.12C484.28 97.12 512.01 124.85 512.01 159.05L512.01 159.05C512.01 256.48 433.02 335.46 335.59 335.46Z" />
			<path id="Layer" class="shp0" d="M18.67 42.33L22.69 34.46C38.31 4 76.89 -8.64 108.85 6.24L108.85 6.24C199.92 48.63 237.7 153.35 193.21 240.16L189.19 248.02C173.57 278.49 135 291.12 103.03 276.24L103.03 276.24C11.96 233.85 -25.82 129.12 18.67 42.33Z" />
			<path id="Layer" class="shp0" d="M26.34 466.35L19.77 460.35C-5.67 437.12 -6.68 398.49 17.52 374.06L17.52 374.06C84.69 302.02 199.13 298.98 273.54 367.89L280.1 373.89C305.86 397.04 306.83 435.66 282.36 460.17L282.36 460.17C214.53 526.88 99.94 529.51 26.34 466.35Z" />
			<path id="Layer" class="shp1" d="M159.53 276.2C158.74 274.21 157.29 272.47 155.21 271.46C131.79 260.15 115.42 241.18 109.13 218.04C102.62 194.16 107.22 168.01 121.73 146.31C122.02 145.9 122.27 145.47 122.46 145.01C146.73 90.68 125.39 30.4 72.95 0.49C65.42 1.36 58.12 3.49 51.38 6.76C52.19 8.73 53.67 10.44 55.75 11.41C106.05 34.82 127.83 88.78 106.63 137.15C89.62 162.98 84.32 194.11 92.09 222.67C98.84 247.46 114.93 268.22 137.85 282.09C145.4 281.35 152.73 279.35 159.53 276.2Z" />
			<path id="Layer" class="shp1" d="M298.67 430.49C300.24 423.29 300.44 415.91 299.27 408.68C297.34 408.87 295.45 409.55 293.95 411C250.81 452.8 202.99 451.65 159.3 407.72C111.69 360.18 55.85 359.21 1.25 404.37C-0.17 411.39 -0.3 418.58 0.85 425.62C2.67 425.44 4.47 424.85 5.94 423.54C56.18 378.14 103.58 377.03 146.81 420.19C172.84 446.36 200.77 459.47 228.6 459.47C252.45 459.47 276.22 449.76 298.67 430.49Z" />
			<path id="Layer" class="shp1" d="M502.7 126.5C498.73 120.1 493.64 114.48 487.68 109.92C486.44 111.44 485.6 113.3 485.6 115.41C485.6 166.19 444.73 203.05 388.43 203.05C328.78 203.05 279.65 248.42 274.22 306.18C278.15 312.51 283.19 318.06 289.07 322.59C290.43 321.04 291.32 319.07 291.32 316.84C291.32 263.83 334.89 220.7 388.43 220.7C450.86 220.71 497.22 181.72 502.7 126.5Z" />
		</g>
	</g>
</svg>