<svg xmlns="http://www.w3.org/2000/svg" viewBox="0 0 500 500"><defs><style>.a{fill:#ffab5f;}.a,.b,.c,.d,.f,.g{isolation:isolate;}.b{fill:#ffe17d;}.c{fill:#d28607;}.e{fill:#af6d00;}.f{fill:#9d5302;}.g{fill:#633401;}</style></defs><title>mastery_token_cooking</title><circle class="a" cx="250" cy="250" r="250"/><circle class="b" cx="250" cy="250" r="230"/><circle class="a" cx="250" cy="250" r="202"/><path class="c" d="M341.41,130.45a63.61,63.61,0,0,0-20.28,3.3,12,12,0,0,1-12.72-3.46C293.66,113.72,272.94,103.4,250,103.4c-21.64,0-41.57,9.49-56.11,24.45A16.67,16.67,0,0,1,176.44,133a63.59,63.59,0,0,0-17.85-2.54c-37.91,0-68.64,33.28-68.64,74.33,0,36.82,24.72,67.38,57.17,73.29a9,9,0,0,1,7.37,8.85v97.22A12.46,12.46,0,0,0,167,396.6h165.1a12.46,12.46,0,0,0,12.45-12.46V287.07a9,9,0,0,1,7.48-8.84c32.89-5.5,58.07-36.29,58.07-73.45C410.05,163.73,379.32,130.45,341.41,130.45Z"/><g class="d"><path class="e" d="M167.38,384.14V286.92a9,9,0,0,0-7.38-8.85c-32.45-5.91-57.17-36.47-57.17-73.29,0-38.7,27.31-70.49,62.19-74a62.21,62.21,0,0,0-6.43-.33c-37.91,0-68.64,33.28-68.64,74.33,0,36.82,24.72,67.38,57.17,73.29a9,9,0,0,1,7.37,8.85v97.22A12.46,12.46,0,0,0,167,396.6h12.88A12.45,12.45,0,0,1,167.38,384.14Z"/><path class="e" d="M189.32,133a16.65,16.65,0,0,0,17.45-5.14c13.1-13.48,30.57-22.51,49.73-24.17-2.14-.18-4.31-.28-6.5-.28-21.64,0-41.57,9.49-56.11,24.45a16.3,16.3,0,0,1-6.44,4.63C188.08,132.64,188.7,132.81,189.32,133Z"/><path class="e" d="M186.16,366.12a4.83,4.83,0,0,1-4.83-4.83V323.74a4.83,4.83,0,0,1,9.66,0v37.55A4.83,4.83,0,0,1,186.16,366.12Z"/><path class="e" d="M217.83,366.12a4.83,4.83,0,0,1-4.83-4.83V323.74a4.83,4.83,0,1,1,9.66,0v37.55A4.83,4.83,0,0,1,217.83,366.12Z"/><path class="e" d="M249.5,366.12a4.83,4.83,0,0,1-4.83-4.83V323.74a4.83,4.83,0,0,1,9.66,0v37.55A4.83,4.83,0,0,1,249.5,366.12Z"/><path class="e" d="M281.16,366.12a4.83,4.83,0,0,1-4.83-4.83V323.74a4.84,4.84,0,0,1,9.67,0v37.55A4.84,4.84,0,0,1,281.16,366.12Z"/><path class="e" d="M312.83,366.12a4.83,4.83,0,0,1-4.83-4.83V323.74a4.83,4.83,0,0,1,9.66,0v37.55A4.83,4.83,0,0,1,312.83,366.12Z"/><path class="e" d="M341.27,176.71A94.17,94.17,0,0,0,323.56,133c-.82.24-1.62.49-2.43.76a11.94,11.94,0,0,1-11.75-2.49l.06.06c.19.17,18.46,17.56,22.25,46.64a4.83,4.83,0,0,0,9.58-1.25Z"/><path class="e" d="M190.38,131.32a4.73,4.73,0,0,0,.74-.88A16.76,16.76,0,0,1,176.44,133l-.15,0a94.3,94.3,0,0,0-17.74,43.76,4.83,4.83,0,0,0,9.58,1.25C171.92,149,190.09,131.6,190.38,131.32Z"/></g><path class="f" d="M154.49,358.41v25.73A12.46,12.46,0,0,0,167,396.6h165.1a12.46,12.46,0,0,0,12.45-12.46V358.41Z"/><path class="g" d="M167.38,384.14V358.41H154.49v25.73A12.46,12.46,0,0,0,167,396.6h12.88A12.45,12.45,0,0,1,167.38,384.14Z"/></svg>