<svg xmlns="http://www.w3.org/2000/svg" viewBox="0 0 500 500"><defs><style>.a{fill:#ffab5f;}.a,.b,.c,.d,.e,.f{isolation:isolate;}.b{fill:#ffe17d;}.c{fill:#d28607;}.d{fill:#964e00;}.e{fill:#ff9f00;}.f{fill:#c16602;}</style></defs><title>mastery_token_crafting</title><circle class="a" cx="250" cy="250" r="250"/><circle class="b" cx="250" cy="250" r="230"/><circle class="a" cx="250" cy="250" r="202"/><path class="c" d="M274.46,181.21H226.3l-5.36-32.12L226.3,117h48.16Z"/><path class="c" d="M360.09,257.87l-26.76,21.4-26.76-21.4V118.73h53.52Z"/><path class="d" d="M167.43,172.24h42.81V397H167.43Z"/><path class="d" d="M306.57,300.68h53.52v69.57a26.76,26.76,0,0,1-53.52,0Z"/><path class="e" d="M220.94,150.83a32.11,32.11,0,1,1-32.1-32.1A32.11,32.11,0,0,1,220.94,150.83Z"/><path class="c" d="M135.32,129.43h21.41v42.81H135.32a21.41,21.41,0,1,1,0-42.81Z"/><path class="e" d="M306.57,279.27h53.52v21.41H306.57Z"/><path class="f" d="M183.49,370.25h10.7V397h-10.7Z"/><path class="f" d="M183.49,348.85h10.7v10.7h-10.7Z"/><path class="f" d="M183.49,327.44h10.7v10.7h-10.7Z"/><path class="f" d="M333.33,381a5.36,5.36,0,0,1,0-10.71V322.08a5.35,5.35,0,0,1,10.7,0v48.17A10.72,10.72,0,0,1,333.33,381Z"/></svg>