<svg xmlns="http://www.w3.org/2000/svg" viewBox="0 0 500 500"><defs><style>.a{fill:#ffab5f;}.a,.b,.c,.d,.e,.f,.g,.h,.i,.j{isolation:isolate;}.b{fill:#ffe17d;}.c{fill:#633401;}.d{fill:#9d5302;}.e{fill:#d28607;}.f{fill:#ffa007;}.g{fill:#ffd400;}.h{fill:#c5a403;}.i{fill:#ff9c00;}.j{fill:#c57a03;}</style></defs><title>mastery_token_firemaking</title><circle class="a" cx="250" cy="250" r="250"/><circle class="b" cx="250" cy="250" r="230"/><circle class="a" cx="250" cy="250" r="202"/><path class="c" d="M140.32,322.75l4.31,9.65,11.08,24.75,7.85,17.55,7.5,16.77,188.61-84.39a37.65,37.65,0,0,0,19-49.74c-.08-.18-.16-.36-.25-.54a37.63,37.63,0,0,0-49.48-18.44Z"/><path class="d" d="M140.32,322.75l4.31,9.65,11.08,24.75L378.41,256.8a37.63,37.63,0,0,0-49.48-18.44Z"/><path class="e" d="M118.05,357.16a37.36,37.36,0,0,0,3.28,15.32.61.61,0,0,0,.07.14,37.64,37.64,0,0,0,68.65-30.88s0,0,0-.05a37.64,37.64,0,0,0-72,15.47Z"/><path class="f" d="M118.05,357.16a37.36,37.36,0,0,0,3.28,15.32.61.61,0,0,0,.07.14L190,341.69a37.64,37.64,0,0,0-72,15.47Z"/><path class="d" d="M359.68,322.75l-4.31,9.65-11.08,24.75-7.85,17.55-7.5,16.77L140.33,307.08A37.65,37.65,0,0,1,119.08,264a36.83,36.83,0,0,1,2.26-6.66c.08-.18.16-.36.25-.54a37.63,37.63,0,0,1,49.48-18.44Z"/><path class="g" d="M314.9,186a64.9,64.9,0,0,1-129.79,0c0-15,9.72-35.47,29.71-62.66,14.12-19.2,28-34.31,28.6-34.95L250,81.25l6.59,7.13c.58.64,14.48,15.75,28.6,35C305.18,150.52,314.9,171,314.9,186Z"/><path class="c" d="M359.68,322.75l-4.31,9.65-11.08,24.75L121.59,256.8a37.63,37.63,0,0,1,49.48-18.44Z"/><path class="f" d="M382,357.16a37.36,37.36,0,0,1-3.28,15.32.61.61,0,0,1-.07.14A37.64,37.64,0,0,1,310,341.74s0,0,0-.05a37.64,37.64,0,0,1,72,15.47Z"/><path class="e" d="M382,357.16a37.36,37.36,0,0,1-3.28,15.32.61.61,0,0,1-.07.14L310,341.69a37.64,37.64,0,0,1,72,15.47Z"/><path class="h" d="M314.9,186A65,65,0,0,1,250,250.88V81.25l6.59,7.13c.58.64,14.48,15.75,28.6,35C305.18,150.52,314.9,171,314.9,186Z"/><path class="i" d="M286.93,214.56a36.93,36.93,0,1,1-73.85,0c0-8.47,5.14-19.58,15.72-34,7.21-9.8,14.32-17.54,14.62-17.86L250,155.6l6.59,7.13a229.54,229.54,0,0,1,14.61,17.86C281.78,195,286.93,206.1,286.93,214.56Z"/><path class="j" d="M286.93,214.56A37,37,0,0,1,250,251.49V155.6l6.59,7.13a229.54,229.54,0,0,1,14.61,17.86C281.78,195,286.93,206.1,286.93,214.56Z"/></svg>