<svg xmlns="http://www.w3.org/2000/svg" viewBox="0 0 500 500"><defs><style>.a{fill:#ffab5f;}.b{fill:#ffe17d;}.c{fill:#9d5302;}.d{fill:#633401;}.e{fill:#ff9f00;}.f{fill:#d28607;}</style></defs><title>mastery_token_mining</title><circle class="a" cx="250" cy="250" r="250"/><circle class="b" cx="250" cy="250" r="230"/><circle class="a" cx="250" cy="250" r="202"/><path class="c" d="M168.88,137.64,376.5,345.25a9,9,0,0,1,0,12.67v0L357.93,376.5a9,9,0,0,1-12.67,0L137.63,168.88a9,9,0,0,1,0-12.68l18.57-18.57a8.94,8.94,0,0,1,12.65,0Z"/><path class="d" d="M147.68,146.15,368,366.45l-10,10.05a9,9,0,0,1-12.67,0L137.63,168.88a9,9,0,0,1,0-12.68Z"/><path class="e" d="M339.76,96.25c-38.38,9.64-83.8,35.08-127,72.87l8.41,8.42a10.89,10.89,0,0,1,.06,15.41l-.06.06L193,221.21a10.93,10.93,0,0,1-15.45,0v0l-8.42-8.41c-37.78,43.16-63.23,88.57-72.83,127a76.57,76.57,0,0,1-6.51-22.72c-5.89-44.59,20.13-105.79,70.86-156.51S272.45,83.81,317,89.7A75,75,0,0,1,339.76,96.25Z"/><path class="f" d="M339.76,96.25c-38.38,9.64-83.8,35.08-127,72.87l8.41,8.42a10.89,10.89,0,0,1,.06,15.41l-.06.06L193,221.21a10.93,10.93,0,0,1-15.45,0v0l-8.42-8.41c-37.78,43.16-63.23,88.57-72.83,127a76.57,76.57,0,0,1-6.51-22.72c10.94-43.1,41.6-94.2,87.4-140s96.9-76.42,140-87.36A74.73,74.73,0,0,1,339.76,96.25Z"/></svg>