<svg xmlns="http://www.w3.org/2000/svg" viewBox="0 0 500 500"><defs><style>.a{fill:#ffab5f;}.a,.b,.c,.d,.f,.g{isolation:isolate;}.b{fill:#ffe17d;}.c{fill:#b25d00;}.d{fill:#633401;}.e{fill:#fff;}.f{fill:#ff9f00;}.g{fill:#d28607;}</style></defs><title>mastery_token_runecrafting</title><circle class="a" cx="250" cy="250" r="250"/><circle class="b" cx="250" cy="250" r="230"/><circle class="a" cx="250" cy="250" r="202"/><path class="c" d="M385.3,250.66A135.3,135.3,0,1,1,250,115.36,135.29,135.29,0,0,1,385.3,250.66Z"/><path class="d" d="M131,250.66A135.3,135.3,0,0,1,258.16,115.6c-2.7-.16-5.41-.24-8.16-.24A135.3,135.3,0,0,0,250,386c2.75,0,5.46-.08,8.16-.24A135.3,135.3,0,0,1,131,250.66Z"/><path class="e" d="M301.1,365.58l-3.31-7.47a117,117,0,0,0,49.92-41.92l6.79,4.54a125.22,125.22,0,0,1-53.4,44.85ZM357.52,316l-7-4.22c1.35-2.24,2.65-4.56,3.86-6.89l7.26,3.75C360.35,311.11,359,313.58,357.52,316Zm6.59-12.42-7.41-3.42c1.1-2.37,2.13-4.82,3.08-7.28l7.62,2.93C366.39,298.4,365.29,301,364.11,303.55Z"/><path class="f" d="M223,417.19,353.32,192.76a7.06,7.06,0,0,0-7.06-10.54L259.56,194,280.28,85.25a3.53,3.53,0,0,0-6.28-2.8L145.84,251.62a7.06,7.06,0,0,0,6.37,11.28l95.58-10.06L216.46,414.75A3.53,3.53,0,0,0,223,417.19Z"/><path class="g" d="M185.92,239.63a2.92,2.92,0,0,1-2.71-4.46L279,81.86a3.47,3.47,0,0,0-5,.59L145.84,251.62a7.06,7.06,0,0,0,6.37,11.28l95.58-10.06-31.33,161.9a3.43,3.43,0,0,0,2.77,4.09l53.7-169.91a11.77,11.77,0,0,0-12.16-15.28Z"/></svg>