<svg xmlns="http://www.w3.org/2000/svg" viewBox="0 0 512 512" width="512" height="512">
	<style>
		tspan { white-space:pre }
		.shp0 { fill: #495959 } 
		.shp1 { fill: #3f4a4a } 
		.shp2 { fill: #e1effb } 
		.shp3 { fill: #baced8 } 
		.shp4 { fill: #ff901d } 
		.shp5 { fill: #4e4e4e } 
	</style>
	<path id="Layer" class="shp0" d="M335.67 90.2L268.3 148.52C261.24 154.63 250.76 154.63 243.7 148.52L176.33 90.2L83.74 89.92L84.28 125.34C84.82 161.74 94.5 208.59 115.26 238.54C121.3 247.25 126.34 262.98 126.34 273.58L126.34 409.43C126.34 420.98 135.7 430.34 147.25 430.34L235.09 430.34C240.04 430.34 244.59 428.62 248.17 425.74C252.79 422.04 259.21 422.04 263.83 425.74C267.41 428.62 271.96 430.34 276.91 430.34L364.75 430.34C376.3 430.34 385.66 420.98 385.66 409.43L385.66 273.58C385.66 262.98 390.7 247.25 396.74 238.54C417.5 208.59 427.18 161.74 427.72 125.34L428.26 89.92L335.67 90.2Z" />
	<path id="Layer" class="shp1" d="M238.99 206.14C249.59 213.24 256 225.13 256 237.88C256 225.12 262.41 213.24 273.01 206.14C301.2 187.29 353.02 144.2 337.73 90.19L337.73 90.19L335.67 90.19L268.3 148.51C261.24 154.63 250.76 154.63 243.7 148.51L176.33 90.19L174.27 90.19L174.27 90.19C158.98 144.2 210.8 187.29 238.99 206.14L238.99 206.14Z" />
	<path id="Layer" class="shp2" d="M159.58 376.85L159.58 249.88C159.58 244.02 157.93 238.28 154.8 233.32C142.38 213.65 110.46 155.87 116.96 90.04L174.27 90.19C158.98 144.2 210.8 187.29 238.99 206.14C249.59 213.24 256 225.13 256 237.88L256 376.85C256 389.39 245.84 399.55 233.3 399.55L182.29 399.55C169.75 399.55 159.58 389.39 159.58 376.85Z" />
	<path id="Layer" class="shp3" d="M238.99 206.14C210.8 187.29 158.98 144.2 174.27 90.2L130.43 90.07C131.88 138.26 163.36 190.54 186.7 206.16C197.3 213.25 203.7 225.13 203.7 237.89L203.7 399.55L233.3 399.55C245.84 399.55 256 389.39 256 376.85L256 237.88C256 225.13 249.59 213.24 238.99 206.14Z" />
	<path id="Layer" class="shp2" d="M352.42 376.85L352.42 249.88C352.42 244.02 354.07 238.28 357.2 233.32C369.63 213.65 401.54 155.87 395.04 90.04L337.73 90.19C353.02 144.2 301.2 187.29 273.01 206.14C262.41 213.24 256 225.13 256 237.88L256 376.85C256 389.39 266.16 399.55 278.7 399.55L329.71 399.55C342.25 399.55 352.42 389.39 352.42 376.85L352.42 376.85Z" />
	<path id="Layer" class="shp3" d="M395.04 90.04L355.82 90.14C370.3 164.08 318.11 213.66 305.69 233.32C302.56 238.28 300.91 244.02 300.91 249.88L300.91 399.55L329.71 399.55C342.25 399.55 352.41 389.39 352.41 376.85L352.41 249.88C352.41 244.02 354.07 238.28 357.2 233.32C369.62 213.65 401.54 155.87 395.04 90.04L395.04 90.04Z" />
	<g id="Layer">
		<path id="Layer" class="shp4" d="M177.74 275.19L126.34 275.19L126.34 303.94L177.74 303.94C182.33 303.94 186.05 300.22 186.05 295.63L186.05 283.49C186.05 278.9 182.33 275.19 177.74 275.19Z" />
		<path id="Layer" class="shp4" d="M177.74 347.81L126.34 347.81L126.34 376.57L177.74 376.57C182.33 376.57 186.05 372.85 186.05 368.26L186.05 356.12C186.05 351.53 182.33 347.81 177.74 347.81L177.74 347.81Z" />
		<path id="Layer" class="shp4" d="M385.66 275.19L334.25 275.19C329.67 275.19 325.95 278.9 325.95 283.49L325.95 295.63C325.95 300.22 329.67 303.94 334.25 303.94L385.66 303.94L385.66 275.19Z" />
		<path id="Layer" class="shp4" d="M334.26 347.81L385.66 347.81L385.66 376.57L334.26 376.57C329.67 376.57 325.95 372.85 325.95 368.26L325.95 356.12C325.95 351.53 329.67 347.81 334.26 347.81L334.26 347.81Z" />
		<path id="Layer" class="shp4" d="M176.33 90.19C181.91 110.59 151.89 155.96 103.2 169.28C54.51 182.59 5.58 158.81 0 138.41C0 138.41 32.07 100.55 80.77 87.24C129.46 73.92 176.33 90.19 176.33 90.19Z" />
	</g>
	<path id="Layer" class="shp5" d="M103.09 95.92L98.13 83.64C92.42 84.47 86.61 85.64 80.76 87.24C73.62 89.2 66.83 91.68 60.45 94.49L66.93 110.54C70.97 120.52 82.34 125.34 92.32 121.31C102.3 117.27 107.13 105.91 103.09 95.92Z" />
	<path id="Layer" class="shp4" d="M335.67 90.19C330.09 110.59 360.11 155.96 408.8 169.28C457.49 182.59 506.42 158.81 512 138.41C512 138.41 479.93 100.55 431.23 87.24C382.54 73.92 335.67 90.19 335.67 90.19Z" />
	<path id="Layer" class="shp5" d="M431.23 87.24C425.39 85.64 419.58 84.47 413.87 83.64L408.91 95.92C404.87 105.91 409.7 117.27 419.68 121.31C429.66 125.34 441.03 120.52 445.07 110.54L451.55 94.49C445.17 91.68 438.38 89.2 431.23 87.24L431.23 87.24Z" />
</svg>