<svg xmlns="http://www.w3.org/2000/svg" viewBox="0 0 513 513" width="513" height="513">
	<style>
		tspan { white-space:pre }
		.shp0 { fill: #70c923 } 
		.shp1 { fill: #60a822 } 
		.shp2 { fill: #e6e9ed } 
		.shp3 { fill: #cdcdcd } 
		.shp4 { fill: #feda5f } 
		.shp5 { fill: #f4c84e } 
	</style>
	<path id="Layer" class="shp0" d="M9.95 502.05C-3.32 488.79 -3.32 467.28 9.95 454.02L368.51 95.45C381.78 82.19 403.29 82.19 416.55 95.45C429.81 108.72 429.81 130.22 416.55 143.49L57.99 502.05C44.72 515.32 23.21 515.32 9.95 502.05L9.95 502.05Z" />
	<path id="Layer" class="shp1" d="M416.55 95.45C403.73 82.64 383.23 82.21 369.89 94.15C370.36 94.57 370.82 95 371.27 95.45C384.54 108.72 384.54 130.22 371.27 143.49L12.71 502.05C12.26 502.5 11.8 502.93 11.33 503.35C24.66 515.3 45.17 514.87 57.99 502.05L416.55 143.49C429.81 130.22 429.81 108.71 416.55 95.45L416.55 95.45Z" />
	<path id="Layer" class="shp2" d="M416.55 95.45C403.29 82.19 381.78 82.19 368.51 95.45L314.04 149.92L362.08 197.96L416.55 143.49C429.81 130.22 429.81 108.71 416.55 95.45L416.55 95.45Z" />
	<path id="Layer" class="shp3" d="M416.55 95.45C403.73 82.64 383.23 82.21 369.89 94.15C370.36 94.57 370.82 95 371.27 95.45C384.54 108.72 384.54 130.22 371.27 143.49L339.44 175.32L362.08 197.96L416.55 143.49C429.81 130.22 429.81 108.71 416.55 95.45L416.55 95.45Z" />
	<path id="Layer" class="shp4" d="M317.38 81.81C274.4 94.67 263.98 105.09 251.12 148.07C238.27 105.09 227.84 94.67 184.87 81.81C227.84 68.96 238.27 58.54 251.12 15.56C263.98 58.54 274.4 68.96 317.38 81.81Z" />
	<path id="Layer" class="shp4" d="M466.23 243.9C442.52 250.99 436.77 256.74 429.67 280.45C422.58 256.74 416.83 250.99 393.12 243.9C416.83 236.8 422.58 231.05 429.67 207.34C436.77 231.05 442.52 236.8 466.23 243.9Z" />
	<path id="Layer" class="shp5" d="M512 49.74C479.73 59.4 471.91 67.22 462.26 99.49C452.6 67.22 444.78 59.4 412.51 49.74C444.78 40.09 452.6 32.27 462.26 0C471.91 32.27 479.73 40.09 512 49.74L512 49.74Z" />
</svg>