<svg xmlns="http://www.w3.org/2000/svg" viewBox="0 0 513 513" width="513" height="513">
	<style>
		tspan { white-space:pre }
		.shp0 { fill: #806749 } 
		.shp1 { fill: #957856 } 
		.shp2 { fill: #32a1c5 } 
		.shp3 { fill: #176b86 } 
		.shp4 { fill: #2287a8 } 
		.shp5 { fill: #ffde55 } 
		.shp6 { fill: #268eb0 } 
		.shp7 { fill: #6a563d } 
	</style>
	<path id="Layer" class="shp0" d="M467.35 20.89L467.35 387.51C467.35 399.06 458 408.4 446.47 408.4L95.86 408.4C90.07 408.4 84.47 409.38 79.24 411.18C60.95 417.44 47.07 433.72 44.66 453.35L44.65 51.54L44.66 51.54L44.66 51.2C44.66 28.86 59.17 9.73 79.24 2.79C84.45 0.98 90.05 0 95.86 0L446.47 0C458 0 467.35 9.35 467.35 20.89Z" />
	<path id="Layer" class="shp1" d="M467.35 20.89L467.35 387.52C467.35 399.05 458 408.4 446.46 408.4L119.89 408.4L119.89 0L446.46 0C458 0 467.35 9.35 467.35 20.89Z" />
	<path id="Layer" class="shp2" d="M425.69 112.12L425.69 294.81C425.69 299.44 422.44 303.37 417.92 304.4C399.2 308.68 383.54 320.96 374.71 337.45C371.5 343.44 369.19 350.01 367.98 356.94C367.15 361.58 363.04 364.92 358.33 364.92L227.79 364.92C223.08 364.92 218.97 361.58 218.16 356.94C216.94 350.01 214.63 343.44 211.42 337.45C208.39 331.78 204.53 326.59 200.03 322.09C191.45 313.46 180.49 307.21 168.2 304.4C163.69 303.37 160.43 299.44 160.43 294.81L160.43 112.12C160.43 107.48 163.69 103.56 168.2 102.52C193.73 96.69 213.59 75.97 218.16 49.98C218.97 45.35 223.08 42.01 227.79 42.01L358.33 42.01C363.04 42.01 367.15 45.35 367.98 49.98C372.54 75.97 392.39 96.69 417.92 102.52C422.44 103.56 425.69 107.48 425.69 112.12Z" />
	<path id="Layer" class="shp3" d="M398.18 203.46C398.18 256.8 358.45 300.87 306.97 307.67C302.42 308.28 297.78 308.59 293.06 308.59C235.01 308.59 187.94 261.52 187.94 203.46C187.94 145.41 235.01 98.34 293.06 98.34C297.78 98.34 302.42 98.65 306.97 99.26C358.45 106.06 398.18 150.13 398.18 203.46Z" />
	<path id="Layer" class="shp4" d="M441.54 408.4L441.54 489.71C441.54 502 431.58 511.96 419.3 511.96L147.61 511.99L97.85 512C78.15 512 60.93 501.27 51.74 485.34C49 480.6 46.98 475.39 45.82 469.88C45.05 466.3 44.65 462.6 44.65 458.8L44.66 453.36C44.74 452.68 44.85 452 44.95 451.33C45.86 445.84 47.66 440.63 50.21 435.87C58.9 419.57 76.26 408.4 95.86 408.4L441.54 408.4L441.54 408.4L441.54 408.4Z" />
	<g id="Layer">
		<path id="Layer" class="shp3" d="M441.54 435.87L441.54 451.33L192.06 451.33C187.79 451.33 184.33 447.86 184.33 443.6C184.33 439.33 187.79 435.87 192.06 435.87L441.54 435.87L441.54 435.87Z" />
		<path id="Layer" class="shp3" d="M168.87 443.6C168.87 447.87 165.41 451.33 161.14 451.33L44.95 451.33C45.86 445.84 47.66 440.63 50.21 435.87L161.14 435.87C165.41 435.87 168.87 439.33 168.87 443.6Z" />
		<path id="Layer" class="shp3" d="M274 477.61C274 481.88 270.53 485.34 266.26 485.34L51.74 485.34C49 480.6 46.98 475.39 45.82 469.88L266.27 469.88C270.53 469.88 274 473.34 274 477.61Z" />
		<path id="Layer" class="shp3" d="M441.54 469.88L441.54 485.34L297.18 485.34C292.92 485.34 289.45 481.88 289.45 477.61C289.45 473.34 292.92 469.88 297.18 469.88L441.54 469.88L441.54 469.88Z" />
	</g>
	<path id="Layer" class="shp5" d="M299.01 130.44L316.71 166.29C317.67 168.25 319.54 169.61 321.7 169.92L361.26 175.67C366.71 176.46 368.88 183.15 364.94 186.99L336.32 214.89C334.75 216.42 334.04 218.62 334.41 220.77L341.17 260.17C342.1 265.59 336.4 269.73 331.53 267.17L296.15 248.56C294.22 247.55 291.91 247.55 289.97 248.56L254.59 267.17C249.72 269.73 244.03 265.59 244.96 260.17L251.72 220.77C252.09 218.62 251.38 216.42 249.81 214.89L221.19 186.99C217.25 183.15 219.42 176.46 224.86 175.67L264.42 169.92C266.58 169.61 268.45 168.25 269.42 166.29L287.11 130.44C289.55 125.51 296.58 125.51 299.01 130.44Z" />
	<path id="Layer" class="shp6" d="M374.71 337.44C371.5 343.44 369.19 350.01 367.98 356.94C367.15 361.58 363.04 364.92 358.33 364.92L227.79 364.92C223.08 364.92 218.97 361.58 218.16 356.94C216.94 350.01 214.63 343.44 211.42 337.44C208.39 331.78 204.53 326.59 200.03 322.09C191.45 313.46 180.49 307.21 168.2 304.4C163.69 303.37 160.43 299.44 160.43 294.81L160.43 112.12C160.43 107.48 163.69 103.56 168.2 102.52C193.73 96.69 213.59 75.97 218.16 49.98C218.97 45.35 223.08 42.01 227.79 42.01L255.62 42.01C250.91 42.01 246.8 45.35 245.99 49.98C241.42 75.97 221.56 96.69 196.03 102.52C191.52 103.56 188.26 107.48 188.26 112.12L188.26 294.81C188.26 299.44 191.52 303.37 196.03 304.4C212.07 308.07 225.87 317.62 235.04 330.64C238.08 334.96 243.11 337.44 248.39 337.44L374.71 337.44L374.71 337.44Z" />
	<path id="Layer" class="shp7" d="M79.24 2.79L79.24 411.18C60.95 417.44 47.07 433.72 44.66 453.35L44.65 51.54L44.66 51.54L44.66 51.2C44.66 28.86 59.17 9.73 79.24 2.79Z" />
	<g id="Layer">
	</g>
	<g id="Layer">
	</g>
	<g id="Layer">
	</g>
	<g id="Layer">
	</g>
	<g id="Layer">
	</g>
	<g id="Layer">
	</g>
	<g id="Layer">
	</g>
	<g id="Layer">
	</g>
	<g id="Layer">
	</g>
	<g id="Layer">
	</g>
	<g id="Layer">
	</g>
	<g id="Layer">
	</g>
	<g id="Layer">
	</g>
	<g id="Layer">
	</g>
	<g id="Layer">
	</g>
</svg>