<svg xmlns="http://www.w3.org/2000/svg" viewBox="0 0 512 512" width="512" height="512">
	<style>
		tspan { white-space:pre }
		.shp0 { fill: #cacaca } 
		.shp1 { fill: #adadad } 
		.shp2 { fill: #d9d9d9 } 
		.shp3 { fill: #d97100 } 
		.shp4 { fill: #ffa511 } 
		.shp5 { fill: #eb6b24 } 
		.shp6 { fill: #d9c700 } 
		.shp7 { fill: #afb9d2 } 
		.shp8 { fill: #959cb3 } 
	</style>
	<path id="Layer" class="shp0" d="M160.83 430.21L503.32 87.72C504.57 86.48 505.33 84.83 505.48 83.08L511.97 8.13C512.37 3.5 508.5 -0.37 503.87 0.03L428.92 6.51C427.17 6.67 425.52 7.43 424.28 8.68L81.79 351.17L160.83 430.21Z" />
	<path id="Layer" class="shp1" d="M450.21 52.43C452.61 52.43 455 53.35 456.83 55.17C460.48 58.83 460.48 64.75 456.83 68.4L159.19 366.04C155.54 369.69 149.62 369.69 145.96 366.04C142.31 362.39 142.31 356.47 145.96 352.81L443.6 55.17C445.43 53.35 447.82 52.43 450.21 52.43Z" />
	<path id="Layer" class="shp2" d="M145.42 414.8L484.38 75.84L490.85 1.16L503.87 0.03C508.5 -0.37 512.37 3.5 511.97 8.13L505.49 83.07C505.34 84.83 504.57 86.47 503.32 87.72L160.84 430.21L145.42 414.8Z" />
	<path id="Layer" class="shp3" d="M87.26 345.69L81.79 351.17L160.83 430.21L191.94 399.1L184.49 395L187.21 392.28C193.13 386.36 193.13 376.79 187.21 370.88L141.12 324.79C135.21 318.87 125.64 318.87 119.72 324.79L117 327.51L112.9 320.06L87.26 345.69Z" />
	<path id="Layer" class="shp4" d="M43.69 438.41L106.36 375.74L136.26 405.64L73.59 468.31L43.69 438.41Z" />
	<g id="Layer">
		<path id="Layer" class="shp5" d="M110.49 431.42L136.26 405.64L106.36 375.74L80.58 401.51L84.19 408.06C86.77 412.75 91.37 415.4 96.2 415.81C96.6 420.63 99.25 425.23 103.94 427.81L110.49 431.42Z" />
		<path id="Layer" class="shp5" d="M73.6 468.31L96.12 445.78C93.28 439.35 89.22 433.31 83.95 428.05C78.69 422.78 72.65 418.72 66.22 415.88L43.69 438.4L73.6 468.31Z" />
	</g>
	<path id="Layer" class="shp6" d="M42.39 427.22C65.83 427.22 84.78 446.17 84.78 469.61C84.78 493.05 65.83 512 42.39 512C18.95 512 0 493.05 0 469.61C0 446.17 18.95 427.22 42.39 427.22Z" />
	<path id="Layer" class="shp4" d="M75.63 495.93C88.83 479.28 87.75 455.02 72.36 439.63C56.98 424.25 32.72 423.17 16.07 436.37C30.38 435.2 46.32 441.03 58.64 453.35C70.96 465.68 76.8 481.62 75.63 495.93Z" />
	<path id="Layer" class="shp6" d="M59.71 508.31C47.92 504.77 35.7 497.5 25.1 486.9C14.5 476.3 7.23 464.08 3.69 452.29C-3.28 467.87 -0.38 486.79 12.42 499.58C25.21 512.37 44.13 515.28 59.71 508.31Z" />
	<path id="Layer" class="shp7" d="M135.98 420.33L169.44 386.87C172.36 383.95 172.36 379.21 169.44 376.29L135.71 342.56C132.79 339.64 128.05 339.64 125.13 342.56L91.67 376.02L135.98 420.33Z" />
	<path id="Layer" class="shp8" d="M91.67 376.02L135.98 420.33L169.54 386.77L140.97 371.03L125.23 342.46L91.67 376.02Z" />
	<g id="Layer">
		<path id="Layer" class="shp6" d="M122.05 419.07L203.74 464.07C206.66 465.68 210.29 465.16 212.64 462.81L227.26 448.19C230.78 444.67 229.94 438.75 225.58 436.35L143.88 391.35C140.97 389.74 137.34 390.26 134.98 392.61L120.37 407.23C116.84 410.75 117.68 416.67 122.05 419.07Z" />
		<path id="Layer" class="shp6" d="M45.22 303.33L63.81 284.74C67.33 281.22 73.25 282.06 75.65 286.42L120.65 368.12C122.26 371.03 121.74 374.66 119.39 377.02L104.77 391.63C101.25 395.16 95.33 394.32 92.93 389.95L45.22 303.33Z" />
	</g>
</svg>