<?xml version="1.0" encoding="iso-8859-1"?>
<!-- Generator: Adobe Illustrator 19.0.0, SVG Export Plug-In . SVG Version: 6.00 Build 0)  -->
<svg version="1.1" id="Layer_1" xmlns="http://www.w3.org/2000/svg" xmlns:xlink="http://www.w3.org/1999/xlink" x="0px" y="0px"
	 viewBox="0 0 512 512" style="enable-background:new 0 0 512 512;" xml:space="preserve">
<path style="fill:#AEADB3;" d="M457.465,494.271c6.432-6.433,11.261-14.104,14.245-22.547c8.442-2.984,16.114-7.814,22.547-14.246
	c11.433-11.433,17.729-26.633,17.729-42.801s-6.297-31.368-17.729-42.8c-11.433-11.433-26.633-17.729-42.801-17.729
	c-11.396,0-22.306,3.141-31.761,8.992L148.844,92.291c5.852-9.455,8.993-20.364,8.993-31.761c0-16.168-6.297-31.368-17.729-42.801
	C128.676,6.296,113.476,0,97.308,0S65.939,6.296,54.507,17.729c-6.432,6.433-11.262,14.104-14.246,22.547
	c-8.442,2.984-16.114,7.814-22.546,14.246C5.912,66.323,0.013,81.82,0.014,97.322c0.001,15.498,5.901,31.001,17.7,42.8
	c20.196,20.197,51.225,23.093,74.548,8.723L363.127,419.71c-5.851,9.455-8.992,20.364-8.992,31.762
	c0,16.167,6.296,31.367,17.729,42.8c11.431,11.432,26.632,17.728,42.8,17.728S446.031,505.704,457.465,494.271z"/>
<path style="fill:#CECED1;" d="M494.271,54.536c-6.433-6.432-14.104-11.262-22.547-14.246c-2.984-8.443-7.814-16.115-14.246-22.546
	c-11.432-11.433-26.632-17.73-42.8-17.73s-31.368,6.296-42.8,17.729c-11.433,11.432-17.729,26.632-17.729,42.8
	c0,11.397,3.142,22.306,8.992,31.761L92.29,363.156c-9.454-5.851-20.363-8.993-31.761-8.993c-16.168,0-31.368,6.296-42.801,17.729
	C6.296,383.324,0,398.524,0,414.692s6.296,31.368,17.729,42.801c6.433,6.432,14.104,11.262,22.547,14.246
	c2.984,8.443,7.814,16.115,14.246,22.547c11.802,11.802,27.299,17.702,42.801,17.7c15.498-0.001,31.001-5.901,42.8-17.7
	c20.196-20.196,23.093-51.225,8.723-74.548L419.71,148.873c9.455,5.852,20.364,8.993,31.762,8.993
	c16.167,0,31.367-6.296,42.8-17.729C505.704,128.705,512,113.504,512,97.336S505.704,65.968,494.271,54.536z"/>
<path style="fill:#BEBDC2;" d="M494.271,54.536c-6.433-6.432-14.104-11.262-22.547-14.246c-2.984-8.443-7.814-16.115-14.246-22.546
	c-11.432-11.433-26.632-17.73-42.8-17.73s-31.368,6.296-42.8,17.729c-11.433,11.432-17.729,26.632-17.729,42.8
	c0,11.397,3.142,22.306,8.992,31.761L227.69,227.755l56.568,56.569L419.71,148.873c9.455,5.852,20.364,8.993,31.762,8.993
	c16.167,0,31.367-6.296,42.8-17.729C505.704,128.705,512,113.504,512,97.336S505.704,65.968,494.271,54.536z"/>
<g>
</g>
<g>
</g>
<g>
</g>
<g>
</g>
<g>
</g>
<g>
</g>
<g>
</g>
<g>
</g>
<g>
</g>
<g>
</g>
<g>
</g>
<g>
</g>
<g>
</g>
<g>
</g>
<g>
</g>
</svg>
