<svg xmlns="http://www.w3.org/2000/svg" viewBox="0 0 512 512" width="512" height="512">
	<style>
		tspan { white-space:pre }
		.shp0 { fill: #90a4ae } 
		.shp1 { fill: #7c8c95 } 
		.shp2 { fill: #ffd54f } 
		.shp3 { fill: #dbb847 } 
		.shp4 { fill: #ff901d } 
		.shp5 { fill: #e7831b } 
	</style>
	<path id="Layer" class="shp0" d="M360.36 147.91L381.77 110.09L511.63 83.16L323.79 0L164.86 116.11L120.35 385.17L118.89 494.9L393.8 495.31L392.91 385.17L360.36 147.91Z" />
	<path id="Layer" class="shp1" d="M360.36 147.91L381.77 110.09L512 83.16L323.79 0L256 50.66L256 495.11L393.8 495.31L392.91 385.17L360.36 147.91Z" />
	<path id="Layer" class="shp2" d="M120.34 385.17L102.19 494.9L388.02 495.31L372.91 385.17L120.34 385.17Z" />
	<path id="Layer" class="shp3" d="M392.91 385.17L256 385.17L256 495.11L408.02 495.31L392.91 385.17Z" />
	<path id="Layer" class="shp4" d="M192 385.17L192 496.1L222 496.1L222 415.17L290 415.17L290 433.01L260.33 433.01L260.33 463.01L290 463.01L290 496.1L320 496.1L320 385.17L192 385.17Z" />
	<path id="Layer" class="shp5" d="M256 385.17L256 415.17L290 415.17L290 433.01L260.33 433.01L260.33 463.01L290 463.01L290 496.1L320 496.1L320 385.17L256 385.17Z" />
	<path id="Layer" class="shp0" d="M455.06 512L56.94 512C25.54 512 0 486.46 0 455.06C0 423.67 25.54 398.13 56.94 398.13L75 398.13L75 428.13L56.94 428.13C42.08 428.13 30 440.21 30 455.06C30 469.92 42.08 482 56.94 482L455.07 482C469.92 482 482 469.92 482 455.06C482 440.21 469.92 428.13 455.06 428.13L437 428.13L437 398.13L455.06 398.13C486.46 398.13 512 423.67 512 455.06C512 486.46 486.46 512 455.06 512Z" />
	<path id="Layer" class="shp1" d="M455.06 398.13L437 398.13L437 428.13L455.06 428.13C469.92 428.13 482 440.21 482 455.06C482 469.92 469.92 482 455.06 482L256 482L256 512L455.06 512C486.46 512 512 486.46 512 455.06C512 423.67 486.46 398.13 455.06 398.13Z" />
</svg>