<svg width="310" height="300" viewBox="0 0 310 300" fill="none" xmlns="http://www.w3.org/2000/svg">
<path d="M129.5 300L45.5001 288L33.5 144L118.5 214L201.5 288L129.5 300Z" fill="#949494"/>
<path d="M9.5 147.5L21.5 120L33.5 144L45.5 288L0 189L9.5 147.5Z" fill="#7C7C7C"/>
<path d="M201.5 84L33.5 144L105.5 204L201.5 288L249.5 180L201.5 84Z" fill="#ABABAB"/>
<path d="M309.5 60L273.5 0L201.5 84L249.5 180L309.5 144V60Z" fill="#C9C9C9"/>
<path d="M93.5001 0L28.5 78L21.5 120L33.5001 144L201.5 84L273.5 0H93.5001Z" fill="#BBBBBB"/>
<path d="M275.5 35L261.5 45.6L273.5 84L285.5 67.2V45.6L280 35.5L275.5 35Z" fill="#156B88"/>
<path d="M273.5 83.9999V53.9999L285.5 47.9999V71.9999L273.5 83.9999Z" fill="#1D7B9B"/>
<path d="M273.5 54L261.5 45.6L273.5 32.5L280 35.5L285.5 45.6V48L273.5 54Z" fill="#49BBE1"/>
<path d="M105.5 18L81.5 48L69.5 66L99.5 54L141.5 36L177.5 42L189.5 30L177.5 12L129.5 0L105.5 18Z" fill="#156B88"/>
<path d="M141.5 24L129.5 0L177.5 12L189.5 30L177.5 42L141.5 24Z" fill="#49BBE1"/>
<path d="M9.5 132L21.5 120L33.5 144L34.5001 155.5L9.5 168V132Z" fill="#156B88"/>
<path d="M21.5 120L9.5 132L33.5 144L21.5 120Z" fill="#49BBE1"/>
<path d="M183.788 268.697L192.273 254L169.091 260.212L160.606 274.909L175.303 283.394L186.894 280.288L183.788 268.697Z" fill="#1D7B9B"/>
<path d="M186.894 280.288L183.788 268.697L160.606 274.909L175.303 283.394L186.894 280.288Z" fill="#156B88"/>
<path d="M183.788 268.697L192.273 254L195.379 265.591L186.894 280.288L183.788 268.697Z" fill="#49BBE1"/>
<path d="M154.5 165L142.5 156.6L176.5 146.5L175.5 153L154.5 165Z" fill="#1D7B9B"/>
<path d="M154.5 165L134.5 151L153.5 192H159.5L154.5 165Z" fill="#156B88"/>
<path d="M159.5 192L154.5 165L175.5 153L159.5 192Z" fill="#49BBE1"/>
</svg>
