<svg xmlns="http://www.w3.org/2000/svg" viewBox="0 0 512 512" width="512" height="512">
	<style>
		tspan { white-space:pre }
		.shp0 { fill: #f2f2fc } 
		.shp1 { fill: #e2d9fb } 
		.shp2 { fill: #be1f12 } 
		.shp3 { fill: #981b11 } 
		.shp4 { fill: #fed843 } 
		.shp5 { fill: #fabe2c } 
		.shp6 { fill: #c7c1dc } 
		.shp7 { fill: #000000 } 
		.shp8 { fill: none;stroke: #ffffff;stroke-linecap:round;stroke-linejoin:round;stroke-width: 2 } 
	</style>
	<path id="Layer" class="shp0" d="M256 512C162.04 512 85.59 435.56 85.59 341.59C85.59 273.1 126.8 211.39 189.18 184.79L189.18 114.36L322.82 114.36L322.82 184.79C385.2 211.39 426.41 273.1 426.41 341.59C426.41 435.56 349.96 512 256 512L256 512Z" />
	<path id="Layer" class="shp1" d="M322.82 184.79L322.82 114.36L255 114.36L255 511.99C255.33 511.99 255.67 512 256 512C349.96 512 426.41 435.55 426.41 341.59C426.41 273.1 385.2 211.39 322.82 184.79L322.82 184.79Z" />
	<path id="Layer" class="shp2" d="M92.39 294C87.95 309.22 85.59 325.21 85.59 341.59C85.59 435.56 162.04 512 256 512C349.96 512 426.41 435.56 426.41 341.59C426.41 325.21 424.05 309.22 419.61 294L92.39 294Z" />
	<path id="Layer" class="shp3" d="M419.61 293L255 293L255 510.99C255.33 510.99 255.67 511 256 511C349.96 511 426.41 434.56 426.41 340.59C426.41 324.21 424.05 308.22 419.61 293L419.61 293Z" />
	<path id="Layer" class="shp4" d="M320.38 85.64L191.62 85.64L176.29 0L335.71 0L320.38 85.64Z" />
	<path id="Layer" class="shp5" d="M255 0L255 85.64L320.38 85.64L335.71 0L255 0Z" />
	<path id="Layer" class="shp1" d="M341.86 135.11L170.14 135.11L170.14 55.72L341.86 55.72L341.86 135.11Z" />
	<path id="Layer" class="shp6" d="M255 55.72L341.86 55.72L341.86 135.11L255 135.11L255 55.72Z" />
	<path id="Layer" fill-rule="evenodd" class="shp7" d="M296.14 273.41L296.14 405.72C296.14 409.3 297.19 411.82 299.31 413.29C301.42 414.75 305.25 415.49 310.78 415.49L310.78 421.83L203.38 421.83L203.38 415.49C208.91 415.49 212.73 414.75 214.85 413.29C216.96 411.82 218.02 409.3 218.02 405.72L218.02 273.41C218.02 268.86 216.96 265.93 214.85 264.63C212.73 263.32 208.91 262.67 203.38 262.67L203.38 256.32L310.78 256.32L310.78 262.67C305.25 262.67 301.42 263.32 299.31 264.63C297.19 265.93 296.14 268.86 296.14 273.41ZM271.73 273.41C271.73 268.86 270.67 265.93 268.55 264.63C266.43 263.32 262.61 262.67 257.08 262.67C251.54 262.67 247.72 263.32 245.61 264.63C243.49 265.93 242.43 268.86 242.43 273.41L242.43 405.72C242.43 409.3 243.49 411.82 245.61 413.29C247.72 414.75 251.55 415.49 257.08 415.49C262.61 415.49 266.44 414.75 268.55 413.29C270.67 411.82 271.73 409.3 271.73 405.72L271.73 273.41Z" />
	<path id="Layer" fill-rule="evenodd" class="shp8" d="M296.14 273.41L296.14 405.72C296.14 409.3 297.19 411.82 299.31 413.29C301.42 414.75 305.25 415.49 310.78 415.49L310.78 421.83L203.38 421.83L203.38 415.49C208.91 415.49 212.73 414.75 214.85 413.29C216.96 411.82 218.02 409.3 218.02 405.72L218.02 273.41C218.02 268.86 216.96 265.93 214.85 264.63C212.73 263.32 208.91 262.67 203.38 262.67L203.38 256.32L310.78 256.32L310.78 262.67C305.25 262.67 301.42 263.32 299.31 264.63C297.19 265.93 296.14 268.86 296.14 273.41ZM271.73 273.41C271.73 268.86 270.67 265.93 268.55 264.63C266.43 263.32 262.61 262.67 257.08 262.67C251.54 262.67 247.72 263.32 245.61 264.63C243.49 265.93 242.43 268.86 242.43 273.41L242.43 405.72C242.43 409.3 243.49 411.82 245.61 413.29C247.72 414.75 251.55 415.49 257.08 415.49C262.61 415.49 266.44 414.75 268.55 413.29C270.67 411.82 271.73 409.3 271.73 405.72L271.73 273.41Z" />
</svg>