<svg xmlns="http://www.w3.org/2000/svg" viewBox="0 0 512 512" width="512" height="512">
	<style>
		tspan { white-space:pre }
		.shp0 { fill: #f2f2fc } 
		.shp1 { fill: #e2d9fb } 
		.shp2 { fill: #ab921a } 
		.shp3 { fill: #917c16 } 
		.shp4 { fill: #fed843 } 
		.shp5 { fill: #fabe2c } 
		.shp6 { fill: #c7c1dc } 
		.shp7 { fill: #000000 } 
		.shp8 { fill: none;stroke: #ffffff;stroke-linecap:round;stroke-linejoin:round;stroke-width: 2 } 
	</style>
	<path id="Layer" class="shp0" d="M256 512C162.04 512 85.59 435.56 85.59 341.59C85.59 273.1 126.8 211.39 189.18 184.79L189.18 114.36L322.82 114.36L322.82 184.79C385.2 211.39 426.41 273.1 426.41 341.59C426.41 435.56 349.96 512 256 512L256 512Z" />
	<path id="Layer" class="shp1" d="M322.82 184.79L322.82 114.36L255 114.36L255 511.99C255.33 511.99 255.67 512 256 512C349.96 512 426.41 435.55 426.41 341.59C426.41 273.1 385.2 211.39 322.82 184.79L322.82 184.79Z" />
	<path id="Layer" class="shp2" d="M92.39 294C87.95 309.22 85.59 325.21 85.59 341.59C85.59 435.56 162.04 512 256 512C349.96 512 426.41 435.56 426.41 341.59C426.41 325.21 424.05 309.22 419.61 294L92.39 294Z" />
	<path id="Layer" class="shp3" d="M419.61 293L255 293L255 510.99C255.33 510.99 255.67 511 256 511C349.96 511 426.41 434.56 426.41 340.59C426.41 324.21 424.05 308.22 419.61 293L419.61 293Z" />
	<path id="Layer" class="shp4" d="M320.38 85.64L191.62 85.64L176.29 0L335.71 0L320.38 85.64Z" />
	<path id="Layer" class="shp5" d="M255 0L255 85.64L320.38 85.64L335.71 0L255 0Z" />
	<path id="Layer" class="shp1" d="M341.86 135.11L170.14 135.11L170.14 55.72L341.86 55.72L341.86 135.11Z" />
	<path id="Layer" class="shp6" d="M255 55.72L341.86 55.72L341.86 135.11L255 135.11L255 55.72Z" />
	<path id="Layer" fill-rule="evenodd" class="shp7" d="M321.99 273.41L321.99 405.72C321.99 409.3 323.04 411.82 325.16 413.29C327.28 414.75 331.1 415.49 336.63 415.49L336.63 421.83L175.52 421.83L175.52 415.49C181.06 415.49 184.88 414.75 187 413.29C189.11 411.82 190.17 409.3 190.17 405.72L190.17 273.41C190.17 268.86 189.11 265.93 187 264.63C184.88 263.32 181.06 262.67 175.52 262.67L175.52 256.32L336.63 256.32L336.63 262.67C331.1 262.67 327.28 263.32 325.16 264.63C323.05 265.93 321.99 268.86 321.99 273.41ZM243.87 273.41C243.87 268.86 242.82 265.93 240.7 264.63C238.58 263.32 234.76 262.67 229.23 262.67C223.69 262.67 219.87 263.32 217.75 264.63C215.64 265.93 214.58 268.86 214.58 273.41L214.58 405.72C214.58 409.3 215.64 411.82 217.75 413.29C219.87 414.75 223.69 415.49 229.23 415.49C234.76 415.49 238.58 414.75 240.7 413.29C242.82 411.82 243.87 409.3 243.87 405.72L243.87 273.41ZM297.58 273.41C297.58 268.86 296.52 265.93 294.41 264.63C292.29 263.32 288.46 262.67 282.93 262.67C277.4 262.67 273.57 263.32 271.46 264.63C269.34 265.93 268.28 268.86 268.28 273.41L268.28 405.72C268.28 409.3 269.34 411.82 271.46 413.29C273.57 414.75 277.4 415.49 282.93 415.49C288.46 415.49 292.29 414.75 294.41 413.29C296.52 411.82 297.58 409.3 297.58 405.72L297.58 273.41Z" />
	<path id="Layer" fill-rule="evenodd" class="shp8" d="M321.99 273.41L321.99 405.72C321.99 409.3 323.04 411.82 325.16 413.29C327.28 414.75 331.1 415.49 336.63 415.49L336.63 421.83L175.52 421.83L175.52 415.49C181.06 415.49 184.88 414.75 187 413.29C189.11 411.82 190.17 409.3 190.17 405.72L190.17 273.41C190.17 268.86 189.11 265.93 187 264.63C184.88 263.32 181.06 262.67 175.52 262.67L175.52 256.32L336.63 256.32L336.63 262.67C331.1 262.67 327.28 263.32 325.16 264.63C323.05 265.93 321.99 268.86 321.99 273.41ZM243.87 273.41C243.87 268.86 242.82 265.93 240.7 264.63C238.58 263.32 234.76 262.67 229.23 262.67C223.69 262.67 219.87 263.32 217.75 264.63C215.64 265.93 214.58 268.86 214.58 273.41L214.58 405.72C214.58 409.3 215.64 411.82 217.75 413.29C219.87 414.75 223.69 415.49 229.23 415.49C234.76 415.49 238.58 414.75 240.7 413.29C242.82 411.82 243.87 409.3 243.87 405.72L243.87 273.41ZM297.58 273.41C297.58 268.86 296.52 265.93 294.41 264.63C292.29 263.32 288.46 262.67 282.93 262.67C277.4 262.67 273.57 263.32 271.46 264.63C269.34 265.93 268.28 268.86 268.28 273.41L268.28 405.72C268.28 409.3 269.34 411.82 271.46 413.29C273.57 414.75 277.4 415.49 282.93 415.49C288.46 415.49 292.29 414.75 294.41 413.29C296.52 411.82 297.58 409.3 297.58 405.72L297.58 273.41Z" />
</svg>