<svg xmlns="http://www.w3.org/2000/svg" viewBox="0 0 512 512" width="512" height="512">
	<style>
		tspan { white-space:pre }
		.shp0 { fill: #f2f2fc } 
		.shp1 { fill: #e2d9fb } 
		.shp2 { fill: #ab921a } 
		.shp3 { fill: #917c16 } 
		.shp4 { fill: #fed843 } 
		.shp5 { fill: #fabe2c } 
		.shp6 { fill: #c7c1dc } 
		.shp7 { fill: #000000 } 
		.shp8 { fill: none;stroke: #ffffff;stroke-linecap:round;stroke-linejoin:round;stroke-width: 2 } 
	</style>
	<path id="Layer" class="shp0" d="M256 512C162.04 512 85.59 435.56 85.59 341.59C85.59 273.1 126.8 211.39 189.18 184.79L189.18 114.36L322.82 114.36L322.82 184.79C385.2 211.39 426.41 273.1 426.41 341.59C426.41 435.56 349.96 512 256 512L256 512Z" />
	<path id="Layer" class="shp1" d="M322.82 184.79L322.82 114.36L255 114.36L255 511.99C255.33 511.99 255.67 512 256 512C349.96 512 426.41 435.55 426.41 341.59C426.41 273.1 385.2 211.39 322.82 184.79L322.82 184.79Z" />
	<path id="Layer" class="shp2" d="M92.39 294C87.95 309.22 85.59 325.21 85.59 341.59C85.59 435.56 162.04 512 256 512C349.96 512 426.41 435.56 426.41 341.59C426.41 325.21 424.05 309.22 419.61 294L92.39 294Z" />
	<path id="Layer" class="shp3" d="M419.61 293L255 293L255 510.99C255.33 510.99 255.67 511 256 511C349.96 511 426.41 434.56 426.41 340.59C426.41 324.21 424.05 308.22 419.61 293L419.61 293Z" />
	<path id="Layer" class="shp4" d="M320.38 85.64L191.62 85.64L176.29 0L335.71 0L320.38 85.64Z" />
	<path id="Layer" class="shp5" d="M255 0L255 85.64L320.38 85.64L335.71 0L255 0Z" />
	<path id="Layer" class="shp1" d="M341.86 135.11L170.14 135.11L170.14 55.72L341.86 55.72L341.86 135.11Z" />
	<path id="Layer" class="shp6" d="M255 55.72L341.86 55.72L341.86 135.11L255 135.11L255 55.72Z" />
	<path id="Layer" class="shp7" d="M315.15 256.33L315.15 262.67C320.69 262.67 324.92 263.33 327.85 264.63C329.72 265.44 330.65 266.94 330.65 269.14C330.65 270.36 330.37 271.79 329.8 273.41L289.77 383.26L253.15 273.41C252.74 271.95 252.54 270.65 252.54 269.51C252.54 267.15 253.47 265.52 255.35 264.63C258.11 263.33 262.26 262.67 267.8 262.67L267.8 256.33L214.09 256.33L214.09 262.67C218.32 262.67 221.5 263.33 223.61 264.63C225.73 265.93 227.44 268.86 228.74 273.41L279.03 421.83L286.35 421.83L342.01 273.41C343.96 268.86 345.83 265.93 347.62 264.63C349.41 263.33 352.42 262.67 356.65 262.67L356.65 256.33L315.15 256.33Z" />
	<path id="Layer" class="shp8" d="M315.15 256.33L315.15 262.67C320.69 262.67 324.92 263.33 327.85 264.63C329.72 265.44 330.65 266.94 330.65 269.14C330.65 270.36 330.37 271.79 329.8 273.41L289.77 383.26L253.15 273.41C252.74 271.95 252.54 270.65 252.54 269.51C252.54 267.15 253.47 265.52 255.35 264.63C258.11 263.33 262.26 262.67 267.8 262.67L267.8 256.33L214.09 256.33L214.09 262.67C218.32 262.67 221.5 263.33 223.61 264.63C225.73 265.93 227.44 268.86 228.74 273.41L279.03 421.83L286.35 421.83L342.01 273.41C343.96 268.86 345.83 265.93 347.62 264.63C349.41 263.33 352.42 262.67 356.65 262.67L356.65 256.33L315.15 256.33Z" />
	<path id="Layer" class="shp7" d="M197.74 264.63C199.85 263.32 203.67 262.67 209.21 262.67L209.21 256.32L155.51 256.32L155.51 262.67C161.04 262.67 164.86 263.32 166.98 264.63C169.09 265.93 170.15 268.86 170.15 273.41L170.15 405.72C170.15 409.3 169.09 411.82 166.98 413.29C164.86 414.75 161.04 415.49 155.51 415.49L155.51 421.83L209.21 421.83L209.21 415.49C203.68 415.49 199.85 414.75 197.74 413.29C195.62 411.82 194.56 409.3 194.56 405.72L194.56 273.41C194.56 268.86 195.62 265.93 197.74 264.63Z" />
	<path id="Layer" class="shp8" d="M197.74 264.63C199.85 263.32 203.67 262.67 209.21 262.67L209.21 256.32L155.51 256.32L155.51 262.67C161.04 262.67 164.86 263.32 166.98 264.63C169.09 265.93 170.15 268.86 170.15 273.41L170.15 405.72C170.15 409.3 169.09 411.82 166.98 413.29C164.86 414.75 161.04 415.49 155.51 415.49L155.51 421.83L209.21 421.83L209.21 415.49C203.68 415.49 199.85 414.75 197.74 413.29C195.62 411.82 194.56 409.3 194.56 405.72L194.56 273.41C194.56 268.86 195.62 265.93 197.74 264.63Z" />
</svg>