<svg id="icons" enable-background="new 0 0 64 64" height="512" viewBox="0 0 64 64" width="512" xmlns="http://www.w3.org/2000/svg"><g><g><path d="m16.8 49.017c-.256.001-.512-.098-.707-.293-.391-.391-.391-1.023 0-1.414l45.823-45.823c.391-.392 1.022-.392 1.413-.001s.391 1.023 0 1.414l-45.821 45.824c-.196.195-.452.293-.708.293z" fill="#ccd1d9"/></g><g><path d="m3.716 61.394c-.255 0-.512-.098-.707-.293-3.509-3.509-3.509-9.219 0-12.728.391-.391 1.023-.391 1.414 0s.391 1.023 0 1.414c-1.323 1.323-2.052 3.081-2.053 4.95.001 1.868.729 3.626 2.053 4.949.391.391.391 1.023 0 1.414-.195.196-.451.294-.707.294z" fill="#ccd1d9"/></g><g><path d="m3.716 50.08c-.255 0-.512-.098-.707-.293-.391-.391-.391-1.023 0-1.414l4.947-4.948c.391-.392 1.023-.391 1.414 0s.391 1.023 0 1.414l-4.947 4.948c-.195.195-.451.293-.707.293z" fill="#ccd1d9"/></g><path d="m14.323 52.612-2.12-2.12-8.483 8.484c-.389.389-.707.71-.707.712 0 .003-.319.323-.71.71-.39.388-.391 1.023-.002 1.412l.706.706c.389.389 1.025.389 1.414 0z" fill="#656d78"/><g><path d="m21.391 52.622c1.179 1.169 1.179 3.069 0 4.238l-1.41 1.41-5.66-5.659-2.12-2.12-5.649-5.649 1.398-1.411c1.182-1.181 3.08-1.18 4.261-.001l4.59 4.591 4.591 4.592v.009z" fill="#e6e9ed"/></g></g></svg>