<svg height="512pt" viewBox="0 -66 512 512" width="512pt" xmlns="http://www.w3.org/2000/svg"><path d="m512 94.210938v250.339843c0 19.550781-15.921875 35.449219-35.488281 35.449219h-441.023438c-19.566406 0-35.488281-15.898438-35.488281-35.449219v-250.339843c0-38.699219 31.53125-70.191407 70.289062-70.191407h371.421876c38.757812 0 70.289062 31.492188 70.289062 70.191407zm0 0" fill="#ff9d22"/><path d="m512 94.210938v250.339843c0 19.550781-15.921875 35.449219-35.488281 35.449219h-220.601563v-355.980469h185.800782c38.757812 0 70.289062 31.492188 70.289062 70.191407zm0 0" fill="#db7d00"/><path d="m317.960938 140.140625v88.730469c0 19.308594-15.710938 35.019531-35.011719 35.019531h-53.898438c-19.300781 0-35.011719-15.710937-35.011719-35.019531v-88.730469zm0 0" fill="#ffdf24"/><path d="m317.960938 140.140625v88.730469c0 19.308594-15.710938 35.019531-35.011719 35.019531h-27.039063v-123.75zm0 0" fill="#ecbd00"/><path d="m271 208.449219v55.441406h-30v-55.441406c0-8.257813 6.671875-14.949219 14.910156-15h.089844c8.28125 0 15 6.710937 15 15zm0 0" fill="#ecbd00"/><path d="m512 94.210938v60.929687h-512v-60.929687c0-38.699219 31.53125-70.191407 70.289062-70.191407h371.421876c38.757812 0 70.289062 31.492188 70.289062 70.191407zm0 0" fill="#09607d"/><path d="m512 94.210938v60.929687h-256.089844v-131.121094h185.800782c38.757812 0 70.289062 31.492188 70.289062 70.191407zm0 0" fill="#00272a"/><path d="m146.65625 0h-48.761719c-11.371093 0-20.617187 9.25-20.617187 20.617188v359.382812h90v-359.382812c0-11.367188-9.25-20.617188-20.621094-20.617188zm0 0" fill="#db7d00"/><path d="m414.105469 0h-48.761719c-11.371094 0-20.621094 9.25-20.621094 20.617188v359.382812h90v-359.382812c0-11.367188-9.246094-20.617188-20.617187-20.617188zm0 0" fill="#b96a00"/><path d="m271 208.449219v55.441406h-15.089844v-70.441406h.089844c8.28125 0 15 6.710937 15 15zm0 0" fill="#ca9b02"/></svg>