<svg xmlns="http://www.w3.org/2000/svg" viewBox="0 0 512 512" width="512" height="512">
	<style>
		tspan { white-space:pre }
		.shp0 { fill: #835626 } 
		.shp1 { fill: #684622 } 
	</style>
	<g id="Layer">
		<g id="Layer">
			<path id="Layer" class="shp0" d="M428.12 326.62L428.12 145.66C428.12 128.59 414.27 114.76 397.2 114.76C380.14 114.76 366.31 128.59 366.31 145.66L366.36 88.28L366.32 48.55C366.32 31.49 352.47 17.66 335.41 17.66C318.45 17.66 304.62 31.4 304.53 48.38L304.53 30.9C304.53 13.83 290.68 0 273.62 0C256.55 0 242.74 13.83 242.74 30.9L242.72 66.21C242.72 49.14 228.89 35.31 211.82 35.31C194.76 35.31 180.95 49.14 180.95 66.21L180.95 282.48C180.95 258.01 160.1 208.69 136.79 185.38C117.57 166.16 62.58 179.03 92.65 220.69C113.72 249.87 127.96 311.74 127.96 344.28C127.96 422.99 189.77 450.21 189.77 450.21L401.63 450.21C430.32 411.96 428.12 414.45 428.12 326.62Z" />
			<path id="Layer" class="shp1" d="M384.02 512L207.5 512C197.76 512 189.85 504.1 189.85 494.35L189.85 450.21L401.68 450.21L401.68 494.35C401.68 504.1 393.77 512 384.02 512Z" />
			<g id="Layer">
				<path id="Layer" class="shp0" d="M225.16 494.35C220.29 494.35 216.33 490.4 216.33 485.52L216.33 476.69C216.33 471.81 220.29 467.86 225.16 467.86C230.03 467.86 233.99 471.81 233.99 476.69L233.99 485.52C233.99 490.4 230.03 494.35 225.16 494.35Z" />
				<path id="Layer" class="shp0" d="M260.43 494.35C255.56 494.35 251.61 490.4 251.61 485.52L251.61 476.69C251.61 471.81 255.56 467.86 260.43 467.86C265.31 467.86 269.26 471.81 269.26 476.69L269.26 485.52C269.26 490.4 265.31 494.35 260.43 494.35Z" />
				<path id="Layer" class="shp0" d="M295.74 494.35C290.87 494.35 286.92 490.4 286.92 485.52L286.92 476.69C286.92 471.81 290.87 467.86 295.74 467.86C300.62 467.86 304.57 471.81 304.57 476.69L304.57 485.52C304.57 490.4 300.62 494.35 295.74 494.35Z" />
				<path id="Layer" class="shp0" d="M331.06 494.35C326.18 494.35 322.23 490.4 322.23 485.52L322.23 476.69C322.23 471.81 326.18 467.86 331.06 467.86C335.93 467.86 339.88 471.81 339.88 476.69L339.88 485.52C339.88 490.4 335.93 494.35 331.06 494.35Z" />
				<path id="Layer" class="shp0" d="M366.37 494.35C361.49 494.35 357.54 490.4 357.54 485.52L357.54 476.69C357.54 471.81 361.49 467.86 366.37 467.86C371.24 467.86 375.19 471.81 375.19 476.69L375.19 485.52C375.19 490.4 371.24 494.35 366.37 494.35Z" />
			</g>
			<g id="Layer">
				<path id="Layer" class="shp1" d="M242.78 203.03C237.91 203.03 233.95 199.09 233.95 194.21L233.95 61.79C233.95 56.91 237.91 52.97 242.78 52.97C247.65 52.97 251.61 56.91 251.61 61.79L251.61 194.21C251.61 199.09 247.65 203.03 242.78 203.03Z" />
				<path id="Layer" class="shp1" d="M366.37 238.34C361.49 238.34 357.54 234.4 357.54 229.52L357.54 141.24C357.54 136.36 361.49 132.41 366.37 132.41C371.24 132.41 375.19 136.36 375.19 141.24L375.19 229.52C375.19 234.4 371.24 238.34 366.37 238.34Z" />
				<path id="Layer" class="shp1" d="M304.57 203.03C299.7 203.03 295.74 199.09 295.74 194.21L295.74 44.14C295.74 39.26 299.7 35.31 304.57 35.31C309.44 35.31 313.4 39.26 313.4 44.14L313.4 194.21C313.4 199.09 309.44 203.03 304.57 203.03Z" />
			</g>
		</g>
	</g>
</svg>