<svg xmlns="http://www.w3.org/2000/svg" viewBox="0 0 512 512" width="512" height="512">
	<style>
		tspan { white-space:pre }
		.shp0 { fill: #835626 } 
		.shp1 { fill: #53433f } 
		.shp2 { fill: #684622 } 
		.shp3 { fill: #3e322e } 
	</style>
	<path id="Layer" class="shp0" d="M446.61 263.79L361 251.55L346 271L331 245.6C327.77 244.42 324.69 243.2 321.86 241.36L296.61 236.61L303.47 217.32C302.82 215.3 302.65 213.13 302.3 211L271 196L301 181L301 106L166 106L151 106L30 241L30 392L68.79 452L166 452L459.79 452L512 422L512 338.03C512 300.96 483.31 269.04 446.61 263.79Z" />
	<path id="Layer" class="shp0" d="M512 422L512 338.03C512 300.96 483.31 269.04 446.61 263.79L361 251.55L346 271L331 245.6C327.77 244.42 324.69 243.2 321.86 241.36L296.61 236.61L303.47 217.32C302.82 215.3 302.65 213.13 302.3 211L271 196L301 181L301 106L166 106L166 452L459.79 452L512 422Z" />
	<g id="Layer">
		<path id="Layer" class="shp1" d="M303.47 217.32L245.39 275.39L266.61 296.61L321.86 241.36C313.15 235.68 306.64 227.31 303.47 217.32Z" />
		<path id="Layer" class="shp1" d="M211 211L302.3 211C301.91 208.63 301 206.43 301 203.97L301 181L211 181L211 211Z" />
		<path id="Layer" class="shp1" d="M331 245.6L331 331L361 331L361 251.55L339.64 248.5C336.54 248.06 333.86 246.64 331 245.6Z" />
	</g>
	<path id="Layer" class="shp2" d="M151 136L151 106L30 106L30 241L45 241C102.99 241 151 193.99 151 136Z" />
	<path id="Layer" class="shp2" d="M166 0L0 0L0 121L166 121L331 121L331 0L166 0Z" />
	<path id="Layer" class="shp2" d="M166 0L331 0L331 121L166 121L166 0Z" />
	<path id="Layer" class="shp2" d="M166 422L159.79 422L129.79 392L30 392L30 512L142.21 512L166 488.21L172.21 482L219.79 482L249.79 512L301 512L316 482L331 512L361 512L376 482L391 512L421 512L436 482L451 512L512 512L512 422L166 422Z" />
	<path id="Layer" class="shp2" d="M219.79 482L249.79 512L301 512L316 482L331 512L361 512L376 482L391 512L421 512L436 482L451 512L512 512L512 422L166 422L166 488.21L172.21 482L219.79 482Z" />
	<path id="Layer" class="shp3" d="M301 452L331 452L331 512L301 512L301 452Z" />
	<path id="Layer" class="shp3" d="M361 452L391 452L391 512L361 512L361 452Z" />
	<path id="Layer" class="shp3" d="M421 452L451 452L451 512L421 512L421 452Z" />
</svg>