<?xml version="1.0" encoding="utf-8"?>
<!-- Generator: Adobe Illustrator 23.0.1, SVG Export Plug-In . SVG Version: 6.00 Build 0)  -->
<svg version="1.1" id="Layer_1" xmlns="http://www.w3.org/2000/svg" xmlns:xlink="http://www.w3.org/1999/xlink" x="0px" y="0px"
	 viewBox="0 0 512 512" style="enable-background:new 0 0 512 512;" xml:space="preserve">
<style type="text/css">
	.st0{fill:#835626;stroke:#835626;stroke-width:4;stroke-miterlimit:10;}
	.st1{fill:#684622;stroke:#684622;stroke-width:4;stroke-linejoin:round;stroke-miterlimit:10;}
</style>
<path class="st0" d="M236.82,364.85c3.08-229.61,0,0,3.07-229.17c-2.09-3.92-23.47-25.44-57.29-34.25
	c-4.31-1.12-47.03-5.02-76.67,11.85c-19.5,11.1-42.46,38.21-45.35,44.46c53.03,244.08-4.05-20.66,48.98,223.42
	c6.96-6.3,25.05-20.95,53.77-26.32C200.07,347.99,228.99,361.03,236.82,364.85z"/>
<path class="st1" d="M109.6,380.51c-3.94-22.71,17.87-35.9,42.56-41.43c21.07-4.72,79.56-0.41,83.73,24.4
	c2.02,12-2.98,22.31-7.41,26.63c-21.28,20.72-69.33,24.07-90.21,14.79C134.5,403.22,112.39,396.55,109.6,380.51z"/>
<path class="st1" d="M222,313c-0.22-10.09-0.85-124.6-1.07-134.69c-23.83-16.53-40.93-15.89-64.27-16.3
	C130.97,161.55,109.25,180.35,93,193c2.2,9.78,22.8,115.22,25,125c25.29-13.05,22.98-15.35,48-17
	C186.06,299.68,200.24,303.23,222,313z"/>
<path class="st0" d="M274.66,365.85c-3.08-229.61,0,0-3.07-229.17c2.09-3.92,23.47-25.44,57.29-34.25
	c4.31-1.12,47.03-5.02,76.67,11.85c19.5,11.1,42.46,38.21,45.35,44.46c-53.03,244.08,4.05-20.66-48.98,223.42
	c-6.96-6.3-25.05-20.95-53.77-26.32C311.42,348.99,282.49,362.03,274.66,365.85z"/>
<path class="st1" d="M401.88,381.51c3.94-22.71-17.87-35.9-42.56-41.43c-21.07-4.72-79.56-0.41-83.73,24.4
	c-2.02,12,2.98,22.31,7.41,26.63c21.28,20.72,69.33,24.07,90.21,14.79C376.98,404.22,399.09,397.55,401.88,381.51z"/>
<path class="st1" d="M289.48,314c0.22-10.09,0.85-124.6,1.07-134.69c23.83-16.53,40.93-15.89,64.27-16.3
	c25.68-0.45,47.41,18.34,63.65,30.99c-2.2,9.78-22.8,115.22-25,125c-25.29-13.05-22.98-15.35-48-17
	C325.43,300.68,311.24,304.23,289.48,314z"/>
</svg>
