<svg height="496pt" viewBox="0 -100 496 496" width="496pt" xmlns="http://www.w3.org/2000/svg"><path d="m368 0 40.089844 193.753906c-18.089844 3.765625-66.402344 12.324219-136.089844 14-7.761719.246094-15.761719.324219-24 .324219-8.230469 0-16.230469-.078125-24-.324219-69.761719-1.675781-118.078125-10.234375-136.160156-14l40.160156-193.753906c64 0 80 32 119.921875 32h.078125c40 0 56-32 120-32zm0 0" fill="#656d78"/><path d="m385.070312 197.921875c10.007813-1.59375 17.808594-3.082031 23.019532-4.167969l-40.089844-193.753906c-8.753906 0-16.535156.640625-23.679688 1.671875zm0 0" fill="#434a54"/><path d="m272 207.753906v40c-7.679688.246094-15.761719.324219-24 .324219-8.230469 0-16.3125-.078125-24-.324219v-40c7.769531.246094 15.769531.324219 24 .324219 8.238281 0 16.238281-.078125 24-.324219zm0 0" fill="#ffce54"/><path d="m87.519531 195.519531.320313-1.765625c18.082031 3.765625 66.398437 12.324219 136.160156 14v40c-89.761719-2.160156-144.078125-15.753906-144.078125-15.753906l7.519531-36.488281h.078125zm0 0" fill="#ed5565"/><path d="m408.488281 195.519531 7.511719 36.480469s-54.230469 13.59375-144 15.753906v-40c69.6875-1.675781 118-10.234375 136.089844-14zm0 0" fill="#ed5565"/><path d="m392.953125 236.609375c14.957031-2.59375 23.046875-4.609375 23.046875-4.609375l-7.511719-36.488281-.398437-1.769531c-5.226563 1.097656-13.058594 2.578124-23.128906 4.1875zm0 0" fill="#da4453"/><path d="m224 247.753906c7.6875.246094 15.769531.324219 24 .324219 8.238281 0 16.320312-.078125 24-.324219 89.769531-2.160156 144-15.753906 144-15.753906l-7.511719-36.488281c53.679688 8.800781 87.511719 13.929687 87.511719 28.648437 0 26.488282-111.039062 72-248 72-137.039062 0-248-45.511718-248-72 0-14.71875 33.769531-19.839844 87.449219-28.640625l-7.519531 36.488281c-.007813-.007812 54.308593 13.585938 144.070312 15.746094zm0 0" fill="#656d78"/></svg>