<svg xmlns="http://www.w3.org/2000/svg" viewBox="0 0 500 500"><defs><style>.a{fill:#ffab5f;}.a,.b,.c,.d{isolation:isolate;}.b{fill:#ffe17d;}.c{fill:#e69002;}.d{fill:#b47101;}</style></defs><title>mastery_token_herblore</title><circle class="a" cx="250" cy="250" r="250"/><circle class="b" cx="250" cy="250" r="230"/><circle class="a" cx="250" cy="250" r="202"/><path class="c" d="M325.09,247a150.09,150.09,0,0,1-71.78,128.11c-1.1.67-2.2,1.33-3.31,2-2-1.14-3.93-2.33-5.85-3.56q-6.36-4.08-12.26-8.75A150.21,150.21,0,0,1,250,116.93,150.11,150.11,0,0,1,324.88,239q.21,4,.21,8Z"/><path class="d" d="M174.91,247A150.09,150.09,0,0,0,250,377.09V116.93A150.11,150.11,0,0,0,174.91,247Z"/><path class="d" d="M325.09,247a150.09,150.09,0,0,1-71.78,128.11c-3.07-.42-6.13-.95-9.16-1.59-4.07-.87-8.12-1.91-12.1-3.16-.1-1.87-.15-3.73-.16-5.59a130.13,130.13,0,0,1,93-125.75q.21,4,.21,8Z"/><path class="c" d="M300.24,267.63a129.79,129.79,0,0,1,118.55-21.22A130,130,0,0,1,250,377.09a129.8,129.8,0,0,1,50.24-109.46Z"/><path class="d" d="M250,377.09,418.79,246.41A130,130,0,0,1,250,377.09Z"/><path class="c" d="M199.76,267.63A129.81,129.81,0,0,0,81.2,246.41,130,130,0,0,0,250,377.09,129.8,129.8,0,0,0,199.76,267.63Z"/><path class="d" d="M250,377.09,81.2,246.41A130,130,0,0,0,250,377.09Z"/></svg>