<svg xmlns="http://www.w3.org/2000/svg" viewBox="0 0 512 512" width="512" height="512">
	<style>
		tspan { white-space:pre }
		.shp0 { fill: #998f98 } 
		.shp1 { fill: #acacac } 
		.shp2 { fill: #b8b1b6 } 
		.shp3 { fill: #ada6ab } 
		.shp4 { fill: #b5afb3 } 
		.shp5 { fill: #aba4aa } 
		.shp6 { fill: #c7b958 } 
	</style>
	<path id="Layer" class="shp0" d="M437.43 314.16L389.08 265.79L290.13 292.31L272.43 358.37C274.17 358.83 276.02 358.85 277.82 358.37L432.75 316.86C434.55 316.38 436.15 315.42 437.43 314.16Z" />
	<path id="Layer" class="shp1" d="M217.69 219.88L244.2 120.93L195.85 72.56C194.57 73.84 193.63 75.44 193.15 77.24L151.64 232.17C151.16 233.97 151.16 235.83 151.64 237.58L217.69 219.88Z" />
	<path id="Layer" class="shp2" d="M343.15 94.42L360.85 28.35C359.11 27.89 357.26 27.87 355.46 28.35L200.53 69.87C198.73 70.35 197.13 71.31 195.85 72.56L244.2 120.93L343.15 94.42Z" />
	<path id="Layer" class="shp3" d="M343.15 94.42L415.59 166.84L481.64 149.14C481.18 147.4 480.26 145.78 478.94 144.47L365.53 31.05C364.21 29.75 362.59 28.83 360.85 28.35L343.15 94.42Z" />
	<path id="Layer" class="shp4" d="M415.59 166.84L389.08 265.79L437.43 314.16C438.71 312.88 439.65 311.28 440.13 309.49L481.64 154.56C482.12 152.76 482.12 150.9 481.64 149.14L415.59 166.84Z" />
	<path id="Layer" class="shp5" d="M415.59 166.84L343.15 94.42L244.2 120.93L217.69 219.88L290.13 292.31L389.08 265.79L415.59 166.84Z" />
	<path id="Layer" class="shp6" d="M132 232.13L155.91 160.43C158.33 153.14 167.58 150.98 173 156.39L353.68 337.08C359.09 342.49 356.94 351.74 349.64 354.16L277.94 378.07L132 232.13Z" />
</svg>