<svg xmlns="http://www.w3.org/2000/svg" viewBox="0 0 340 340" width="340" height="340">
	<style>
		tspan { white-space:pre }
		.shp0 { fill: #333353 } 
		.shp1 { fill: #ffffff } 
	</style>
	<path id="Layer" class="shp0" d="M307.93 112.74C292.85 118.79 261.74 126.88 228.72 109.42C228.3 109.2 227.86 109.05 227.4 108.95C226.95 108.85 226.48 108.8 226.01 108.82C225.55 108.84 225.08 108.91 224.64 109.05C224.19 109.18 223.76 109.37 223.36 109.62L223.33 109.63C220.52 111.26 217.3 112.01 214.06 111.81C210.82 111.61 207.72 110.45 205.13 108.49C202.55 106.53 200.6 103.85 199.54 100.79C198.47 97.72 198.34 94.41 199.15 91.27C156.3 69.01 118.85 76.84 99.2 88.19C76.79 101.12 46.74 136.4 52.46 197.81C52.86 201.7 53.02 205.62 52.93 209.54C52.84 213.46 52.49 217.37 51.9 221.24C51.31 225.11 50.47 228.94 49.39 232.71C48.31 236.48 46.99 240.17 45.44 243.77C45.01 244.74 44.69 245.75 44.48 246.79C44.27 247.83 44.17 248.89 44.2 249.95C44.22 251.01 44.35 252.07 44.6 253.1C44.85 254.13 45.21 255.13 45.68 256.08L49.36 263.51C49.85 264.5 50.04 265.62 49.9 266.72C49.76 267.82 49.3 268.85 48.58 269.69C47.86 270.53 46.9 271.14 45.84 271.44C44.77 271.74 43.64 271.72 42.59 271.39L30.43 267.51C29.35 268.76 28.24 269.99 27.11 271.19C25.97 272.39 24.8 273.57 23.6 274.71C22.41 275.86 21.19 276.97 19.94 278.06C18.69 279.15 17.41 280.2 16.11 281.22C15.05 282.05 14.19 283.09 13.58 284.29C12.97 285.48 12.63 286.8 12.59 288.13C12.54 289.47 12.79 290.81 13.31 292.04C13.84 293.27 14.62 294.38 15.62 295.27C17.48 296.96 19.4 298.57 21.39 300.1C23.37 301.64 25.42 303.09 27.52 304.47C29.62 305.84 31.77 307.14 33.97 308.34C36.17 309.55 38.41 310.67 40.7 311.7C42 312.27 43.36 312.71 44.75 313C46.14 313.29 47.55 313.44 48.97 313.45C50.4 313.45 51.81 313.31 53.2 313.02C54.6 312.74 55.96 312.31 57.26 311.75C102.77 292.06 186.85 240.01 186.85 240.01C186.85 240.01 274 193.21 313.79 163.62C314.93 162.77 315.98 161.8 316.93 160.74C317.87 159.67 318.7 158.51 319.41 157.27C320.11 156.04 320.69 154.73 321.13 153.38C321.57 152.02 321.87 150.62 322.02 149.21C322.27 146.72 322.42 144.22 322.47 141.72C322.52 139.22 322.48 136.72 322.34 134.22C322.2 131.72 321.96 129.23 321.62 126.75C321.29 124.28 320.86 121.81 320.33 119.37C320.05 118.06 319.49 116.82 318.69 115.75C317.89 114.68 316.86 113.79 315.68 113.16C314.49 112.53 313.19 112.16 311.85 112.09C310.51 112.02 309.17 112.24 307.93 112.74L307.93 112.74Z" />
	<path id="Layer" class="shp1" d="M115.18 109.81C110.26 113.08 106.37 117.69 103.98 123.1C101.59 128.51 100.79 134.49 101.68 140.33C102.57 146.18 105.11 151.65 109 156.1C112.9 160.55 117.98 163.79 123.65 165.45L128.13 173.21C128.73 174.24 129.52 175.15 130.46 175.87C131.41 176.6 132.48 177.13 133.63 177.44C134.78 177.74 135.98 177.82 137.16 177.67C138.34 177.51 139.48 177.13 140.51 176.53L142.14 175.59C142.28 175.51 142.4 175.4 142.5 175.28C142.59 175.15 142.67 175.01 142.71 174.86C142.75 174.7 142.76 174.54 142.74 174.39C142.72 174.23 142.66 174.08 142.59 173.94L138.68 167.17C138.45 166.8 138.3 166.38 138.22 165.95C138.15 165.51 138.16 165.07 138.25 164.64C138.34 164.21 138.51 163.8 138.75 163.43C138.99 163.07 139.3 162.75 139.66 162.5C140.05 162.25 140.48 162.08 140.93 162C141.38 161.92 141.84 161.94 142.29 162.04C142.73 162.15 143.15 162.35 143.52 162.62C143.89 162.89 144.19 163.24 144.42 163.64L148.43 170.57C148.5 170.71 148.61 170.83 148.74 170.92C148.86 171.02 149 171.09 149.16 171.13C149.31 171.17 149.47 171.18 149.63 171.16C149.78 171.14 149.93 171.09 150.07 171.01L153.76 168.88C153.9 168.8 154.02 168.69 154.12 168.57C154.21 168.44 154.28 168.3 154.33 168.15C154.37 167.99 154.38 167.84 154.36 167.68C154.34 167.52 154.28 167.37 154.2 167.23L150.3 160.47C150.07 160.09 149.92 159.67 149.84 159.24C149.77 158.81 149.78 158.36 149.87 157.93C149.96 157.5 150.13 157.09 150.37 156.73C150.61 156.36 150.92 156.04 151.28 155.79C151.67 155.54 152.1 155.37 152.55 155.29C153 155.21 153.46 155.23 153.91 155.34C154.35 155.44 154.77 155.64 155.14 155.91C155.51 156.19 155.81 156.53 156.04 156.93L160.04 163.86C160.12 164 160.23 164.12 160.35 164.21C160.48 164.31 160.62 164.38 160.78 164.42C160.93 164.46 161.09 164.47 161.25 164.45C161.4 164.43 161.55 164.38 161.69 164.3C162.72 163.71 163.62 162.91 164.35 161.97C165.07 161.03 165.61 159.95 165.91 158.8C166.22 157.65 166.3 156.45 166.14 155.27C165.99 154.09 165.6 152.95 165.01 151.92L161.64 146.08C163.83 139.94 164.03 133.26 162.21 126.99C160.39 120.73 156.64 115.2 151.5 111.18C146.36 107.17 140.08 104.87 133.56 104.63C127.04 104.38 120.61 106.19 115.18 109.81L115.18 109.81Z" />
	<path id="Layer" class="shp1" d="M185.81 182.85L169.46 179.96L163.4 196.64L145.92 193.55L140.25 209.16L157.73 212.25L151.67 228.94L168.02 231.84L174.08 215.15L191.56 218.25L197.23 202.64L179.75 199.54L185.81 182.85Z" />
	<g id="Layer">
		<path id="Layer" class="shp0" d="M153.04 124.26C153.43 124.84 153.78 125.45 154.1 126.07C154.41 126.7 154.69 127.34 154.93 128C155.17 128.65 155.38 129.32 155.54 130C155.7 130.68 155.82 131.37 155.91 132.07C156.01 133.21 155.87 134.37 155.5 135.45C155.13 136.54 154.54 137.54 153.76 138.38C152.98 139.23 152.04 139.9 150.99 140.36C149.93 140.82 148.8 141.06 147.65 141.05C146.55 141.07 145.46 141 144.38 140.84C143.29 140.67 142.22 140.43 141.18 140.09C140.14 139.76 139.13 139.34 138.15 138.84C137.18 138.34 136.25 137.76 135.37 137.1C134.45 136.4 133.69 135.51 133.14 134.5C132.58 133.48 132.25 132.36 132.17 131.2C132.08 130.05 132.23 128.89 132.63 127.8C133.02 126.72 133.64 125.72 134.44 124.89C134.79 124.52 135.15 124.17 135.53 123.82C135.9 123.48 136.29 123.15 136.69 122.83C137.08 122.51 137.49 122.2 137.91 121.91C138.32 121.61 138.75 121.33 139.18 121.07C140.3 120.37 141.55 119.91 142.85 119.69C144.15 119.48 145.48 119.52 146.77 119.82C148.05 120.11 149.27 120.66 150.34 121.42C151.42 122.18 152.34 123.15 153.04 124.26Z" />
		<path id="Layer" class="shp0" d="M112.34 151.07C112.77 151.62 113.23 152.14 113.73 152.64C114.22 153.13 114.75 153.6 115.29 154.03C115.84 154.47 116.42 154.87 117.01 155.24C117.61 155.61 118.22 155.94 118.86 156.23C119.91 156.69 121.05 156.92 122.2 156.91C123.35 156.9 124.48 156.64 125.53 156.17C126.57 155.7 127.51 155.01 128.27 154.15C129.04 153.3 129.62 152.29 129.97 151.2C130.33 150.16 130.6 149.1 130.79 148.02C130.98 146.94 131.08 145.85 131.08 144.75C131.09 143.66 131.01 142.56 130.84 141.48C130.67 140.4 130.41 139.33 130.07 138.29C129.69 137.2 129.08 136.2 128.29 135.36C127.5 134.52 126.54 133.85 125.47 133.41C124.4 132.96 123.25 132.75 122.09 132.78C120.94 132.81 119.8 133.09 118.76 133.59C118.3 133.81 117.85 134.04 117.4 134.29C116.96 134.54 116.52 134.8 116.09 135.08C115.67 135.36 115.25 135.65 114.84 135.95C114.43 136.25 114.03 136.57 113.64 136.9C112.63 137.75 111.8 138.79 111.19 139.96C110.58 141.12 110.2 142.4 110.08 143.71C109.96 145.03 110.1 146.35 110.48 147.61C110.87 148.88 111.5 150.05 112.34 151.07L112.34 151.07Z" />
		<path id="Layer" class="shp0" d="M139.85 153.25L140.37 151.49C140.41 151.36 140.47 151.24 140.55 151.14C140.63 151.03 140.73 150.95 140.85 150.88C140.96 150.81 141.09 150.76 141.22 150.74C141.35 150.72 141.48 150.72 141.61 150.75L143.52 151.14C143.73 151.18 143.96 151.16 144.16 151.08C144.36 150.99 144.53 150.84 144.65 150.66C144.76 150.47 144.82 150.25 144.81 150.03C144.79 149.81 144.71 149.6 144.58 149.43C144.11 148.83 143.61 148.25 143.08 147.7C142.56 147.16 142 146.64 141.42 146.15C140.83 145.66 140.23 145.2 139.6 144.77C138.96 144.35 138.31 143.96 137.64 143.6C137.49 143.52 137.32 143.49 137.15 143.49C136.98 143.49 136.81 143.53 136.66 143.61C136.51 143.68 136.37 143.8 136.27 143.94C136.17 144.07 136.11 144.23 136.08 144.4C135.97 145.17 135.93 145.95 135.96 146.73C135.98 147.51 136.07 148.29 136.22 149.06C136.37 149.82 136.58 150.57 136.86 151.3C137.13 152.03 137.46 152.74 137.85 153.42C137.95 153.61 138.1 153.77 138.29 153.87C138.48 153.98 138.69 154.02 138.91 154.01C139.12 153.99 139.32 153.91 139.49 153.77C139.66 153.64 139.78 153.45 139.85 153.25L139.85 153.25Z" />
	</g>
</svg>