<svg height="512pt" viewBox="0 -31 512 512" width="512pt" xmlns="http://www.w3.org/2000/svg"><path d="m180.691406 330-74.355468-11.425781c-28.386719 19.644531-45.335938 51.945312-45.335938 86.425781v15h149.691406zm0 0" fill="#ffb64c"/><path d="m86.429688 150.71875c-3.414063-.484375-6.882813-.71875-10.429688-.71875-41.351562 0-76 33.648438-76 75 0 23.394531 10.636719 45.027344 29.164062 59.355469l191.605469 147.390625 18.339844-23.726563zm0 0" fill="#ffd396"/><path d="m176.488281 71.851562c-12.097656-7.75-26.101562-11.851562-40.488281-11.851562-41.351562 0-75 33.648438-75 75 0 13.066406 3.414062 25.929688 9.871094 37.222656l146.046875 255.117188 26.046875-14.914063zm0 0" fill="#ffb64c"/><path d="m405.664062 318.574219-74.355468 11.425781-30 90h149.691406v-15c0-34.480469-16.949219-66.78125-45.335938-86.425781zm0 0" fill="#ff9c5e"/><path d="m436 150c-3.546875 0-7.015625.234375-10.429688.71875l-152.679687 257.300781 18.339844 23.726563 191.605469-147.390625c18.527343-14.328125 29.164062-35.960938 29.164062-59.355469 0-41.351562-34.648438-75-76-75zm0 0" fill="#ffb64c"/><path d="m376 60c-12.671875 0-25.195312 3.222656-36.210938 9.316406l-70.753906 343.109375 26.046875 14.914063 146.046875-255.117188c6.457032-11.292968 9.871094-24.15625 9.871094-37.222656 0-41.351562-33.648438-75-75-75zm0 0" fill="#ff9c5e"/><path d="m256 0c-57.898438 0-105 47.101562-105 105 0 7.199219.601562 14.097656 2.101562 21l58.800782 288c4.199218 21 22.796875 36 44.097656 36s39.902344-15 44.097656-36l58.800782-288c1.5-6.902344 2.101562-13.800781 2.101562-21 0-57.898438-47.101562-105-105-105zm0 0" fill="#ffd396"/><path d="m361 105c0 7.199219-.601562 14.097656-2.101562 21l-58.800782 288c-4.199218 21-22.796875 36-44.097656 36v-450c57.898438 0 105 47.101562 105 105zm0 0" fill="#ffb64c"/></svg>