<svg xmlns="http://www.w3.org/2000/svg" viewBox="0 0 513 513" width="513" height="513">
	<style>
		tspan { white-space:pre }
		.shp0 { fill: #057195 } 
		.shp1 { fill: #055e7f } 
		.shp2 { fill: #fa6931 } 
		.shp3 { fill: #88b9d4 } 
		.shp4 { fill: #6ea8c8 } 
		.shp5 { fill: #ed4322 } 
	</style>
	<path id="Layer" class="shp0" d="M354.46 189.99L479.91 64.54L439.07 23.7L313.62 149.15C304.69 158.08 292.99 163.74 280.44 165.18L224.01 171.69C207.67 173.58 192.45 180.93 180.83 192.56L17.42 355.97C7.8 365.59 7.8 381.18 17.42 390.8L112.81 486.19C122.43 495.81 138.02 495.81 147.64 486.19L311.05 322.78C322.68 311.16 330.03 295.94 331.92 279.6L338.43 223.17C339.87 210.62 345.52 198.92 354.46 189.99L354.46 189.99Z" />
	<path id="Layer" class="shp1" d="M331.91 279.6L338.42 223.17C339.87 210.62 345.52 198.92 354.46 189.99L479.91 64.54L439.07 23.7L313.62 149.15C305.36 157.41 294.74 162.85 283.26 164.78C283.11 165.71 282.97 166.66 282.86 167.61L276.35 224.03C274.46 240.37 267.11 255.59 255.48 267.22L92.07 430.62C82.45 440.24 66.86 440.24 57.24 430.62L112.81 486.19C122.42 495.81 138.02 495.81 147.64 486.19L311.05 322.78C322.67 311.16 330.03 295.94 331.91 279.6L331.91 279.6Z" />
	<path id="Layer" class="shp0" d="M444.57 98.51L405.1 59.04C401.17 55.11 401.17 48.75 405.1 44.82L433.5 16.42C437.42 12.5 443.79 12.5 447.72 16.42L487.19 55.89C491.11 59.82 491.11 66.19 487.19 70.11L458.79 98.51C454.86 102.44 448.49 102.44 444.57 98.51L444.57 98.51Z" />
	<path id="Layer" class="shp1" d="M486.96 55.66L466.42 35.13C470.47 39.18 470.47 45.75 466.42 49.81L438.48 77.75C434.43 81.8 427.86 81.8 423.8 77.75L444.34 98.28C448.39 102.33 454.96 102.33 459.02 98.28L486.96 70.34C491.01 66.29 491.01 59.72 486.96 55.66L486.96 55.66Z" />
	<path id="Layer" class="shp2" d="M472.99 84.31L419.3 30.62L433.5 16.42C437.42 12.5 443.79 12.5 447.71 16.42L487.18 55.89C491.11 59.82 491.11 66.18 487.18 70.11L472.99 84.31L472.99 84.31Z" />
	<path id="Layer" class="shp3" d="M156.63 395.27L67.37 306.01L152.38 221L241.64 310.26C248.23 316.85 248.23 327.54 241.64 334.13L180.5 395.27C173.9 401.86 163.22 401.86 156.63 395.27L156.63 395.27Z" />
	<path id="Layer" class="shp4" d="M241.74 310.36L227.04 295.66L142.03 380.67L156.73 395.37C163.26 401.91 173.86 401.91 180.39 395.37L241.74 334.02C248.27 327.49 248.27 316.9 241.74 310.36L241.74 310.36Z" />
	<path id="Layer" class="shp5" d="M486.96 55.66L466.42 35.13C470.47 39.18 470.47 45.75 466.42 49.81L452.45 63.78L472.99 84.31L486.96 70.34C491.01 66.29 491.01 59.72 486.96 55.66Z" />
</svg>