<svg id="Capa_1" enable-background="new 0 0 512 512" height="512" viewBox="0 0 512 512" width="512" xmlns="http://www.w3.org/2000/svg"><g><path d="m84.045 90.085s-28.452 25.412-68.226 34.012c-17.632 3.812-21.612 27.145-6.386 36.819 19.588 12.445 50.969 21.241 100.082 11.305v-82.136z" fill="#fe860a"/><path d="m109.511 90.085v82.133c-9.883 1.999-19.054 3.236-27.546 3.834-13.139-17.405-20.899-39.077-20.827-62.573.01-2.545.103-5.07.299-7.574 14.149-8.254 22.61-15.819 22.61-15.819h25.464z" fill="#fe7701"/><path d="m511.008 277.814c-1.02-15.245-8.366-100.25-38.813-75.003-2.401 1.991-4.801 3.982-7.203 5.973-28.398 23.55-55.37 47.116-92.208 55.323-16.744 3.73-34.165 4.781-51.224 2.913-19.615-2.146-40.03-11.291-52.837-26.627-8.423-10.086-11.502-22.744-10.172-35.678 2.071-20.136 13.762-31.478 22.045-48.547 7.422-15.296 11.324-32.965 11.324-49.957 0-57.674-47.156-104.334-105.015-103.528-56.221.784-101.908 47.012-102.062 103.238-.107 38.686 21.006 72.449 52.354 90.311 12.71 7.242 16.677 23.949 8.173 35.851-.055.078-.111.155-.167.232-7.181 9.863-16.894 17.208-26.819 24.11-18.106 12.592-33.794 29.031-43.621 48.914-17.464 35.336-15.177 82.856 4.328 116.901 23.217 40.524 68.412 66.064 112.445 77.637 29.276 7.694 59.908 10.25 90.107 9.235 15.938-.535 32.734.356 48.521-2.026 32.696-4.934 65.859-12.516 94.871-28.97 17.433-9.887 32.554-23.451 45.208-38.93 38.19-46.716 44.677-102.914 40.765-161.372z" fill="#fed402"/><path d="m470.246 439.185c-12.655 15.478-27.773 29.04-45.209 38.933-29.009 16.447-62.172 24.032-94.87 28.968-15.788 2.38-32.585 1.494-48.527 2.03-30.194 1.01-60.832-1.546-90.099-9.244-9.306-2.442-18.652-5.513-27.834-9.213 2.638.793 5.276 1.535 7.904 2.226 29.277 7.698 59.915 10.254 90.109 9.234 15.942-.526 32.729.361 48.517-2.02 32.698-4.936 65.861-12.521 94.88-28.968 17.426-9.893 32.544-23.455 45.199-38.933 38.191-46.714 44.683-102.918 40.767-161.37-.68-10.202-4.194-51.65-15.582-70.385 27.68-16.653 34.523 62.697 35.501 77.372 3.917 58.462-2.565 114.656-40.756 161.37z" fill="#fac600"/><g><path d="m156.758 94.197c-4.143 0-7.5-3.358-7.5-7.5v-16.108c0-4.142 3.357-7.5 7.5-7.5s7.5 3.358 7.5 7.5v16.108c0 4.142-3.358 7.5-7.5 7.5z" fill="#596c76"/></g><path d="m290.605 320.746c-1.837-3.305-3.766-6.579-5.966-9.751-8.609-12.409-22.74-21.835-36.818-26.921-39.607-14.308-83.314 6.2-97.622 45.807-4.256 11.781-5.505 24.588-3.699 36.979 3.458 23.713 18.1 42.914 38.485 54.948 10.211 6.028 21.432 10.262 32.907 13.166 43.734 11.072 89.769 2.512 130.094-16.992 3.852-1.863 7.655-3.826 11.406-5.885 9.673-5.311 9.071-19.398-1.037-23.826-.042-.018-.083-.036-.122-.053-7.954-3.471-15.455-7.929-22.439-13.07-12.402-9.129-23.171-20.408-32.369-32.732-5.129-6.866-8.749-14.345-12.82-21.67z" fill="#fee97d"/><path d="m359.393 412.103c-3.751 2.051-7.554 4.019-11.408 5.884-40.324 19.497-86.358 28.061-130.093 16.983-11.47-2.896-22.692-7.131-32.905-13.16-16.499-9.738-29.236-24.176-35.326-41.901 6.564 8.924 15.118 16.468 25.021 22.321 10.212 6.029 21.435 10.264 32.905 13.16 43.735 11.078 89.769 2.514 130.093-16.983 3.854-1.865 7.657-3.834 11.408-5.884 2.628-1.443 4.503-3.535 5.627-5.915 1.164.557 2.329 1.092 3.514 1.608.041.021.083.041.124.062 10.108 4.42 10.706 18.507 1.04 23.825z" fill="#fedf30"/></g></svg>