<svg xmlns="http://www.w3.org/2000/svg" viewBox="0 0 472 472" width="472" height="472">
	<style>
		tspan { white-space:pre }
		.shp0 { fill: #d6d6d4 } 
		.shp1 { fill: #a3a3a1 } 
		.shp2 { fill: #c7c7c5 } 
		.shp3 { fill: #999997 } 
		.shp4 { fill: #3d4d63 } 
		.shp5 { fill: #f59898 } 
		.shp6 { fill: #e07f7f } 
	</style>
	<path id="Layer" class="shp0" d="M142.59 372.84C158.63 356.8 177.31 343.64 197.81 333.93L222.96 322.01C262 303.52 297.57 278.45 328.11 247.91C369.47 206.54 400.64 156.11 419.15 100.61L419.24 100.33C424.22 85.38 420.33 68.91 409.19 57.77C398.05 46.63 381.58 42.74 366.63 47.72L366.35 47.81C310.85 66.31 260.42 97.49 219.05 138.85C188.5 169.39 163.44 204.96 144.95 244L133.03 269.15C123.32 289.65 110.16 308.33 94.12 324.36L142.59 372.84Z" />
	<path id="Layer" class="shp1" d="M94.12 324.36C110.16 308.33 123.32 289.65 133.03 269.15L144.95 244C188.92 151.16 268.89 80.3 366.35 47.81L366.63 47.72C375.69 44.7 385.51 44.9 394.44 48.28L106.24 336.48L94.12 324.36Z" />
	<path id="Layer" class="shp2" d="M397.03 152.94C379.16 188 355.9 220.05 328.11 247.91C297.57 278.45 262 303.52 222.96 322.01L197.81 333.93C177.31 343.64 158.63 356.8 142.59 372.84L106.24 336.48L198.03 244.69C268.71 224.56 335.83 193.61 397.03 152.94L397.03 152.94Z" />
	<path id="Layer" class="shp3" d="M133.03 269.15L139.06 256.41C158.95 253.78 178.65 249.87 198.03 244.69L106.24 336.48L94.12 324.36C110.16 308.33 123.32 289.65 133.03 269.15L133.03 269.15Z" />
	<path id="Layer" class="shp4" d="M348.6 118.36C355.29 111.67 355.29 100.81 348.6 94.12C341.91 87.43 331.06 87.43 324.36 94.12C317.67 100.81 317.67 111.67 324.36 118.36C331.06 125.05 341.91 125.05 348.6 118.36Z" />
	<path id="Layer" class="shp5" d="M112.3 463.72C124.12 451.9 131.95 436.68 134.7 420.19L142.59 372.84L94.12 324.36L46.77 332.26C30.28 335.01 15.06 342.84 3.24 354.66C19.09 370.52 38.97 381.77 60.73 387.21L75.94 391.01L79.75 406.23C85.19 427.99 96.44 447.86 112.3 463.72Z" />
	<path id="Layer" class="shp5" d="M306.19 197.12L288.68 204.62C272.6 211.52 259.48 223.89 251.66 239.54L294.07 245.6L324.36 215.3" />
	<path id="Layer" class="shp4" d="M348.6 187.52L348.6 170.38L327.77 170.38C319.39 170.38 311.42 166.74 305.92 160.4C300.43 154.07 297.96 145.66 299.14 137.36L302.55 113.51L285.59 111.09L282.18 134.95C280.17 149.29 284.99 163.76 295.21 174.03C303.83 182.69 315.55 187.55 327.77 187.51L348.6 187.52Z" />
	<path id="Layer" class="shp5" d="M263.77 166.83L136.53 294.07L148.65 306.19L275.89 178.95L263.77 166.83Z" />
	<path id="Layer" class="shp5" d="M144.42 245.11C131.72 244.08 118.96 243.9 106.24 244.59L142.59 166.83C160.03 149.4 193.03 147.65 210.25 148.04C183.65 176.46 161.62 208.83 144.95 244L144.42 245.11Z" />
	<g id="Layer">
		<path id="Layer" class="shp6" d="M130.35 193.02L138.56 175.47L188.82 173.07C184.28 178.86 179.92 184.79 175.72 190.85L130.35 193.02Z" />
		<path id="Layer" class="shp6" d="M156.87 221.09L116.99 221.57L125.06 204.33L167.12 203.83C163.53 209.49 160.14 215.25 156.87 221.09Z" />
		<path id="Layer" class="shp6" d="M73.27 368.6L66.5 352.84L105.96 336.2L130.31 360.55L114.12 400.45L98.36 393.69L115.83 350.63L73.27 368.6Z" />
	</g>
	<path id="Layer" class="shp2" d="M401.64 143.22C396.24 150.2 386.6 152.28 378.81 148.13C371.02 143.98 367.36 134.82 370.14 126.45L384.95 82L409.19 57.77C420.33 68.91 424.22 85.38 419.24 100.33L419.15 100.61C414.39 114.84 408.78 128.78 402.37 142.35L402.13 142.59L401.64 143.22Z" />
	<path id="Layer" class="shp5" d="M297.48 339.13L277.01 306.29C282.77 298.67 287.21 290.14 290.13 281.04C299.18 274.15 307.95 266.86 316.36 259.14C317.59 271.4 319.53 311.13 297.48 339.13L297.48 339.13Z" />
	<path id="Layer" class="shp5" d="M215.78 325.41C222.37 340.57 222.19 357.82 215.3 372.84L166.83 397.07C166.83 397.07 177.58 364.78 168.66 350.93C177.87 344.44 187.61 338.75 197.79 333.91L215.78 325.41Z" />
</svg>