<svg xmlns="http://www.w3.org/2000/svg" viewBox="0 0 46 46" width="46" height="46">
	<style>
		tspan { white-space:pre }
		.shp0 { fill: #698b9e } 
		.shp1 { fill: #5d7989 } 
		.shp2 { fill: #546a79 } 
		.shp3 { fill: #38454f } 
	</style>
	<g id="Layer">
		<path id="Layer" class="shp0" d="M13.98 45.03C13.36 45.6 12.3 45.35 11.95 44.58C11.15 42.78 8.49 43.52 8.63 42.01C8.8 40.29 7.53 39.02 5.81 39.19C4.08 39.35 2.82 38.08 2.98 36.36C3.14 34.63 0.46 36.31 0.15 33.53C0.15 33.53 -0.6 31.59 1.26 31.4L8.52 31.37L8.52 20.16C8.52 9.13 17.47 0.18 28.51 0.18L45.52 0.18L45.52 17.05C45.52 28.17 36.51 37.18 25.4 37.18L14.24 37.18L14.3 44.42C14.26 44.68 14.14 44.88 13.98 45.03Z" />
		<path id="Layer" class="shp1" d="M39.9 21.95L39.9 19.95C32.18 19.95 25.9 13.67 25.9 5.95L23.9 5.95C23.9 14.77 31.08 21.95 39.9 21.95Z" />
		<path id="Layer" class="shp1" d="M36.64 25.21L36.64 23.21C28.92 23.21 22.64 16.93 22.64 9.21L20.64 9.21C20.64 18.03 27.82 25.21 36.64 25.21Z" />
		<path id="Layer" class="shp1" d="M33.53 28.32L33.53 26.32C25.81 26.32 19.53 20.04 19.53 12.32L17.53 12.32C17.53 21.14 24.71 28.32 33.53 28.32Z" />
		<path id="Layer" class="shp1" d="M30.28 31.57L30.28 29.57C22.56 29.57 16.28 23.29 16.28 15.57L14.28 15.57C14.28 24.39 21.46 31.57 30.28 31.57Z" />
		<path id="Layer" class="shp2" d="M9.26 14.82C7.28 14.43 5.13 13.61 2.98 12.05C2.98 12.05 7.06 3.83 13.31 7.2C11.44 9.39 10.05 11.98 9.26 14.82Z" />
		<path id="Layer" class="shp2" d="M29.13 36.82C32.35 36.21 35.29 34.84 37.78 32.9C38.1 35.76 37.82 39.96 34.8 44.14C34.8 44.14 29.15 41.34 29.13 36.82Z" />
		<path id="Layer" class="shp3" d="M35.38 5.95C35.38 4.85 34.49 3.95 33.38 3.95C32.28 3.95 31.38 4.85 31.38 5.95C31.38 7.06 32.28 7.95 33.38 7.95C34.49 7.95 35.38 7.06 35.38 5.95Z" />
	</g>
	<g id="Layer">
	</g>
	<g id="Layer">
	</g>
	<g id="Layer">
	</g>
	<g id="Layer">
	</g>
	<g id="Layer">
	</g>
	<g id="Layer">
	</g>
	<g id="Layer">
	</g>
	<g id="Layer">
	</g>
	<g id="Layer">
	</g>
	<g id="Layer">
	</g>
	<g id="Layer">
	</g>
	<g id="Layer">
	</g>
	<g id="Layer">
	</g>
	<g id="Layer">
	</g>
	<g id="Layer">
	</g>
</svg>