<svg xmlns="http://www.w3.org/2000/svg" viewBox="0 0 506 505" width="506" height="505">
	<style>
		tspan { white-space:pre }
		.shp0 { fill: #285680 } 
		.shp1 { fill: #4482c3 } 
		.shp2 { fill: #d1d4d1 } 
		.shp3 { fill: #2c3e50 } 
		.shp4 { fill: #ffffff } 
		.shp5 { fill: #f0c419 } 
	</style>
	<path id="Layer" class="shp0" d="M369.04 176.69C364.13 117.56 313.55 72.77 254.26 75.03C194.97 77.29 147.95 125.81 147.56 185.15C147.56 185.15 104.89 185.15 79.64 202.21L87.83 202.21C120.84 209.84 172.87 221.75 186.86 257.3C193.37 273.85 190.77 292.06 194.34 309.19C198.43 324.95 205.28 339.87 214.55 353.25C232.45 380.78 258.52 402.02 289.09 413.97C295.55 416.46 302.17 418.5 308.91 420.07C354.55 430.67 402.54 419.87 439.25 390.75C475.96 361.62 497.38 317.34 497.43 270.48L497.43 227.81L249.96 227.81L369.09 228.32L369.04 176.69Z" />
	<path id="Layer" class="shp1" d="M87.83 202.21C62.23 142.48 2.5 82.75 2.5 82.75C45.16 168.08 2.5 193.68 2.5 193.68C28.09 193.68 87.83 202.21 87.83 202.21C53.7 219.28 2.5 279.02 2.5 279.02C2.5 279.02 28.09 227.81 2.5 193.68" />
	<path id="Layer" class="shp1" d="M226.75 369.64C214.97 406.07 220.95 483.81 220.95 483.81C220.95 483.81 202.77 429.54 160.62 423.48" />
	<path id="Layer" class="shp1" d="M226.58 369.38C222.48 372.45 177.86 406.25 160.62 423.48C160.62 423.48 172.65 375.18 82.11 345.06C82.11 345.06 165.82 345.06 226.07 368.79" />
	<path id="Layer" class="shp2" d="M471.83 227.81L441.25 181.94C440.45 180.75 439.12 180.04 437.7 180.04C436.27 180.04 434.94 180.75 434.14 181.94L403.56 227.81L372.98 181.94C372.19 180.75 370.86 180.04 369.43 180.04C368 180.04 366.67 180.75 365.88 181.94L335.29 227.81L304.71 181.94C303.92 180.75 302.59 180.04 301.16 180.04C299.73 180.04 298.4 180.75 297.61 181.94L267.03 227.81L471.83 227.81Z" />
	<path id="Layer" class="shp3" d="M292.63 116.88C287.91 116.88 284.09 113.06 284.09 108.35L284.09 74.21C284.13 41.24 310.86 14.52 343.83 14.48L386.5 14.48C419.47 14.52 446.19 41.24 446.23 74.21C446.23 78.93 442.41 82.75 437.7 82.75C432.98 82.75 429.16 78.93 429.16 74.21C429.13 50.66 410.05 31.57 386.5 31.55L343.83 31.55C320.27 31.57 301.19 50.66 301.16 74.21L301.16 108.35C301.16 113.06 297.34 116.88 292.63 116.88L292.63 116.88Z" />
	<path id="Layer" class="shp4" d="M267.03 159.55C267.03 168.97 259.39 176.61 249.96 176.61C240.54 176.61 232.89 168.97 232.89 159.55C232.89 150.12 240.54 142.48 249.96 142.48C259.39 142.48 267.03 150.12 267.03 159.55Z" />
	<path id="Layer" class="shp3" d="M352.36 381.41C352.36 386.13 348.54 389.95 343.83 389.95C339.11 389.95 335.29 386.13 335.29 381.41C335.29 376.7 339.11 372.88 343.83 372.88C348.54 372.88 352.36 376.7 352.36 381.41L352.36 381.41Z" />
	<path id="Layer" class="shp3" d="M292.63 355.81C292.63 360.53 288.81 364.35 284.09 364.35C279.38 364.35 275.56 360.53 275.56 355.81C275.56 351.1 279.38 347.28 284.09 347.28C288.81 347.28 292.63 351.1 292.63 355.81L292.63 355.81Z" />
	<path id="Layer" class="shp3" d="M412.09 355.81C412.09 360.53 408.27 364.35 403.56 364.35C398.85 364.35 395.03 360.53 395.03 355.81C395.03 351.1 398.85 347.28 403.56 347.28C408.27 347.28 412.09 351.1 412.09 355.81Z" />
	<path id="Layer" class="shp3" d="M497.43 237.95L249.96 237.95C245.25 237.95 241.43 234.13 241.43 229.42C241.43 224.71 245.25 220.89 249.96 220.89L497.43 220.89C502.14 220.89 505.96 224.71 505.96 229.42C505.96 234.13 502.14 237.95 497.43 237.95Z" />
	<path id="Layer" class="shp0" d="M8.64 287.55C5.3 287.55 2.28 285.61 0.89 282.58C-0.51 279.55 -0.01 275.99 2.16 273.46C22.74 249.55 45.41 227.52 69.91 207.63C50.43 205.21 23.42 202.21 8.64 202.21C3.93 202.21 0.11 198.39 0.11 193.68C0.11 188.97 3.93 185.15 8.64 185.15C34.55 185.15 92.71 193.41 95.18 193.77C98.88 194.29 101.8 197.16 102.4 200.85C103 204.54 101.13 208.18 97.79 209.85C65.57 225.95 15.62 283.99 15.11 284.57C13.5 286.46 11.13 287.55 8.64 287.55L8.64 287.55Z" />
	<path id="Layer" class="shp0" d="M93.97 210.75C90.56 210.75 87.47 208.71 86.13 205.57C61.48 148.09 3.19 89.37 2.61 88.78C0.39 86.64 -0.5 83.46 0.28 80.48C1.06 77.5 3.39 75.17 6.37 74.39C9.36 73.61 12.53 74.5 14.67 76.71C17.16 79.2 75.86 138.31 101.81 198.85C102.95 201.49 102.68 204.52 101.09 206.91C99.52 209.3 96.84 210.75 93.97 210.75Z" />
	<path id="Layer" class="shp0" d="M227.08 492.35C222.62 492.36 218.89 488.93 218.55 484.47C218.3 481.23 212.58 404.63 224.75 367.02C225.55 363.96 227.98 361.61 231.06 360.89C234.14 360.18 237.36 361.22 239.43 363.6C241.5 365.98 242.09 369.32 240.96 372.27C229.86 406.67 235.5 482.4 235.55 483.2C235.9 487.86 232.43 491.95 227.77 492.35C227.53 492.35 227.3 492.35 227.08 492.35Z" />
	<path id="Layer" class="shp0" d="M232.21 377.33C231.14 377.32 230.08 377.12 229.09 376.73C171.06 353.89 89.07 353.59 88.29 353.59C83.57 353.59 79.75 349.77 79.75 345.06C79.75 340.35 83.57 336.53 88.29 336.53C91.77 336.53 174.33 336.8 235.37 360.84C239.2 362.33 241.43 366.34 240.66 370.38C239.89 374.42 236.36 377.34 232.25 377.33L232.21 377.33Z" />
	<path id="Layer" class="shp0" d="M166.76 432.02C163.31 432.02 160.2 429.94 158.88 426.75C157.56 423.56 158.29 419.89 160.73 417.45C179.13 399.04 227.13 362.91 227.61 362.55C230.05 360.73 233.28 360.34 236.09 361.54C238.89 362.73 240.84 365.34 241.2 368.36C241.57 371.39 240.29 374.38 237.85 376.21C237.38 376.56 190.39 411.94 172.8 429.52C171.2 431.12 169.03 432.02 166.76 432.02L166.76 432.02Z" />
	<path id="Layer" class="shp5" d="M412.09 116.88C412.09 102.74 437.7 74.21 437.7 74.21C437.7 74.21 463.29 102.74 463.29 116.88C463.29 131.02 451.83 142.48 437.7 142.48C423.55 142.48 412.09 131.02 412.09 116.88Z" />
	<path id="Layer" class="shp4" d="M249.96 151.02C249.94 155.02 247.14 158.48 243.22 159.32C239.3 160.16 235.32 158.16 233.66 154.51C235.36 149.15 239.56 144.95 244.93 143.25C247.98 144.63 249.95 147.66 249.96 151.02Z" />
</svg>