<svg xmlns="http://www.w3.org/2000/svg" viewBox="0 0 64 64" width="64" height="64">
	<style>
		tspan { white-space:pre }
		.shp0 { fill: #f47b2a } 
		.shp1 { fill: #b55018 } 
		.shp2 { fill: #d35e0d } 
		.shp3 { fill: #9e470a } 
		.shp4 { fill: #eba372 } 
		.shp5 { fill: #333333 } 
		.shp6 { fill: #1a1a1a } 
		.shp7 { fill: #f7a679 } 
		.shp8 { fill: #666666 } 
		.shp9 { fill: #fc9e15 } 
		.shp10 { fill: #bd7710 } 
		.shp11 { fill: #ffc50b } 
		.shp12 { fill: #f7e784 } 
		.shp13 { fill: #7a3e15 } 
	</style>
	<g id="_6-carp_fish">
		<path id="Layer" fill-rule="evenodd" class="shp0" d="M50.04 58.84C49.73 58.95 49.41 59.06 49.09 59.17C48.77 59.27 48.45 59.37 48.13 59.46C47.81 59.55 47.49 59.64 47.17 59.72C46.84 59.8 46.52 59.88 46.19 59.95C45.61 60.08 45.02 60.2 44.43 60.3C43.84 60.4 43.25 60.49 42.65 60.57C42.06 60.65 41.47 60.72 40.87 60.77C40.27 60.83 39.68 60.87 39.08 60.9C38.81 60.57 38.55 60.23 38.3 59.89C38.05 59.54 37.81 59.19 37.58 58.83C37.35 58.47 37.12 58.11 36.91 57.74C36.7 57.37 36.49 57 36.3 56.62C36.19 56.41 36.08 56.19 35.98 55.97C35.87 55.75 35.78 55.53 35.68 55.31C35.59 55.08 35.5 54.86 35.41 54.63C35.33 54.41 35.25 54.18 35.17 53.95C35.12 53.79 35.06 53.63 35.02 53.47C34.97 53.31 34.92 53.15 34.88 52.98C34.83 52.82 34.79 52.66 34.75 52.49C34.71 52.33 34.67 52.16 34.64 52C34.57 51.67 34.5 51.34 34.45 51.01C34.4 50.68 34.36 50.35 34.33 50.01C34.3 49.68 34.28 49.34 34.27 49.01C34.26 48.67 34.26 48.34 34.27 48C34.47 41.57 38.38 36.63 40.56 34.37C40.77 34.41 40.97 34.45 41.18 34.5C41.38 34.54 41.59 34.59 41.79 34.64C41.99 34.7 42.2 34.75 42.4 34.81C42.6 34.87 42.8 34.93 43 35C52.31 38.1 58.63 46.62 60.46 49.21C60.72 49.57 60.89 49.98 60.96 50.41C61.03 50.85 61.01 51.29 60.88 51.71C60.76 52.14 60.54 52.52 60.24 52.85C59.95 53.17 59.58 53.43 59.17 53.59C57.03 54.48 55.77 55.91 54.82 58.59C54.75 58.81 54.64 59.01 54.5 59.19C54.37 59.38 54.2 59.54 54.02 59.67C53.83 59.8 53.63 59.91 53.41 59.98C53.19 60.05 52.97 60.09 52.74 60.09C52.66 60.09 52.58 60.09 52.49 60.08C52.41 60.07 52.33 60.05 52.25 60.03C52.17 60.02 52.09 59.99 52.02 59.97C51.94 59.94 51.86 59.91 51.79 59.87C51.66 59.81 51.54 59.73 51.42 59.64C51.31 59.55 51.2 59.45 51.11 59.35C51.01 59.24 50.93 59.12 50.86 58.99C50.79 58.87 50.73 58.74 50.68 58.6C50.49 58.67 50.27 58.76 50.04 58.84ZM49 47C49 45.79 48.27 44.69 47.15 44.23C46.03 43.76 44.74 44.02 43.88 44.88C43.02 45.74 42.76 47.03 43.23 48.15C43.69 49.27 44.79 50 46 50C46.39 50 46.78 49.92 47.15 49.77C47.51 49.62 47.84 49.4 48.12 49.12C48.4 48.84 48.62 48.51 48.77 48.15C48.92 47.78 49 47.39 49 47Z" />
		<path id="Layer" class="shp1" d="M55 52C54.46 52.05 53.93 52.16 53.41 52.3C52.89 52.45 52.38 52.65 51.89 52.89C51.41 53.13 50.95 53.41 50.51 53.73C50.08 54.05 49.67 54.42 49.3 54.81C49.12 55.01 48.96 55.21 48.8 55.4C48.65 55.59 48.49 55.77 48.31 55.93C48.13 56.1 47.93 56.24 47.73 56.37C47.53 56.51 47.31 56.62 47.09 56.72C46.87 56.81 46.64 56.89 46.4 56.94L46.19 56.99C45.6 57.12 45.02 57.24 44.43 57.34C43.84 57.45 43.25 57.54 42.65 57.62C42.06 57.7 41.46 57.76 40.87 57.82C40.27 57.87 39.67 57.91 39.08 57.94C38.43 57.97 37.75 57.99 37.06 57.99C37.21 58.25 37.37 58.5 37.53 58.74C37.69 58.99 37.85 59.24 38.02 59.48C38.19 59.72 38.36 59.96 38.54 60.2C38.72 60.44 38.9 60.67 39.08 60.9C39.68 60.87 40.27 60.83 40.87 60.77C41.47 60.72 42.06 60.65 42.65 60.57C43.25 60.49 43.84 60.4 44.43 60.3C45.02 60.2 45.61 60.08 46.19 59.95C46.52 59.88 46.84 59.8 47.17 59.72C47.49 59.64 47.81 59.55 48.13 59.46C48.45 59.37 48.77 59.27 49.09 59.17C49.41 59.06 49.73 58.95 50.04 58.84C50.27 58.76 50.49 58.67 50.68 58.6C50.64 58.47 50.61 58.33 50.59 58.2C50.57 58.06 50.56 57.92 50.57 57.78C50.58 57.64 50.6 57.51 50.63 57.37C50.67 57.24 50.71 57.11 50.77 56.98C50.83 56.85 50.89 56.71 50.96 56.58C51.02 56.45 51.09 56.32 51.16 56.19C51.23 56.06 51.3 55.93 51.37 55.8C51.44 55.67 51.52 55.55 51.59 55.42C51.79 55.06 52.01 54.72 52.26 54.4C52.5 54.07 52.77 53.76 53.06 53.47C53.35 53.18 53.65 52.92 53.98 52.67C54.3 52.42 54.64 52.2 55 52L55 52Z" />
		<path id="Layer" class="shp2" d="M51 24C51 24 37 26 34 16C34 16 23.31 18.14 22.26 25.55C21.84 25.59 21.43 25.68 21.02 25.81C20.62 25.94 20.23 26.11 19.87 26.32C19.5 26.53 19.16 26.78 18.84 27.06C18.53 27.34 18.25 27.66 18 28C16.22 30.37 16.9 33.09 17.75 34.91C17.45 34.75 17.16 34.57 16.89 34.36C16.62 34.16 16.37 33.93 16.13 33.68C15.9 33.44 15.69 33.17 15.5 32.89C15.31 32.61 15.14 32.31 15 32C9.5 21 26.71 12.72 33 12C32.99 11.84 32.99 11.67 32.99 11.5C32.99 11.34 33 11.17 33.01 11.01C33.03 10.85 33.04 10.68 33.07 10.52C33.09 10.35 33.12 10.19 33.15 10.03C33.77 6.87 36.59 1 49 1C49 1 49 9 40 13C40 13 50 17 51 24L51 24Z" />
		<path id="Layer" class="shp3" d="M34 16C37 26 51 24 51 24C50.97 23.79 50.93 23.58 50.88 23.38C50.84 23.17 50.78 22.97 50.72 22.77C50.66 22.56 50.59 22.36 50.52 22.17C50.44 21.97 50.36 21.77 50.27 21.58C46.13 22.22 38.28 22.42 34 16Z" />
		<path id="Layer" class="shp4" d="M48.74 2.91C48.78 2.75 48.81 2.59 48.84 2.44C48.87 2.28 48.89 2.12 48.92 1.96C48.94 1.8 48.96 1.64 48.97 1.48C48.98 1.32 48.99 1.16 49 1C36.59 1 33.77 6.87 33.15 10.03C33.12 10.19 33.09 10.35 33.07 10.52C33.04 10.68 33.03 10.85 33.01 11.01C33 11.17 32.99 11.34 32.99 11.5C32.99 11.67 32.99 11.84 33 12C33.94 9.2 38.37 2.9 48.74 2.91Z" />
		<path id="Layer" class="shp5" d="M25.48 35.29C22.44 35.76 19.79 35.95 17.75 34.91C16.9 33.09 16.22 30.37 18 28C18.25 27.66 18.53 27.34 18.84 27.06C19.16 26.78 19.5 26.53 19.87 26.32C20.23 26.11 20.62 25.94 21.02 25.81C21.43 25.68 21.84 25.59 22.26 25.55C21.88 28.12 22.68 31.32 25.48 35.29L25.48 35.29Z" />
		<path id="Layer" class="shp6" d="M22.26 25.55C22.06 25.57 21.86 25.6 21.67 25.64C21.47 25.68 21.28 25.73 21.08 25.79C20.89 25.85 20.71 25.92 20.52 26C20.34 26.08 20.16 26.16 19.98 26.26C19.92 27.07 19.92 27.89 19.99 28.7C20.05 29.52 20.17 30.32 20.36 31.12C20.54 31.91 20.79 32.69 21.09 33.45C21.39 34.21 21.74 34.95 22.15 35.65C22.43 35.64 22.71 35.62 22.99 35.6C23.27 35.57 23.54 35.55 23.82 35.52C24.1 35.49 24.38 35.45 24.65 35.41C24.93 35.38 25.2 35.34 25.48 35.29C22.68 31.32 21.88 28.12 22.26 25.55L22.26 25.55Z" />
		<path id="Layer" class="shp3" d="M20 26C19.99 26.08 19.99 26.18 19.98 26.26C20.16 26.16 20.34 26.08 20.52 26C20.71 25.92 20.89 25.85 21.08 25.79C21.28 25.73 21.47 25.68 21.67 25.64C21.86 25.6 22.06 25.57 22.26 25.55C23.31 18.14 34 16 34 16C30 15 21.05 18.04 20 26Z" />
		<path id="Layer" class="shp5" d="M11 40C11 42.78 7.62 45.56 5.56 46.99C5.14 46.23 4.77 45.44 4.46 44.63C4.14 43.82 3.87 43 3.65 42.16C3.44 41.31 3.28 40.46 3.17 39.6C3.06 38.74 3 37.87 3 37C2.97 35.77 3.04 34.54 3.2 33.33C3.36 32.11 3.61 30.91 3.95 29.73C4.3 28.55 4.73 27.4 5.26 26.29C5.78 25.18 6.38 24.11 7.07 23.09C7.36 23.43 7.62 23.8 7.85 24.18C8.08 24.56 8.28 24.97 8.44 25.38C8.61 25.8 8.74 26.23 8.83 26.67C8.92 27.11 8.98 27.55 9 28C9 32 7 32 7 34C7 36 11 36 11 40Z" />
		<path id="Layer" class="shp0" d="M7.07 23.09C15.27 11.18 33 10 33 10L33.15 10.03C33.12 10.19 33.09 10.35 33.07 10.52C33.04 10.68 33.03 10.85 33.01 11.01C33 11.17 32.99 11.34 32.99 11.5C32.99 11.67 32.99 11.84 33 12C26.71 12.72 9.5 21 15 32C15.14 32.31 15.31 32.61 15.5 32.89C15.69 33.17 15.9 33.44 16.13 33.68C16.37 33.93 16.62 34.16 16.89 34.36C17.16 34.57 17.45 34.75 17.75 34.91C19.79 35.95 22.44 35.76 25.48 35.29C27.84 34.92 30.43 34.39 33.16 34.13C33.19 34.82 33.17 35.51 33.1 36.2C33.02 36.89 32.89 37.57 32.71 38.24C32.53 38.91 32.29 39.56 32 40.19C31.72 40.82 31.38 41.42 31 42C28 46 20 43 16 48C15.58 48.57 15.23 49.18 14.95 49.82C14.67 50.46 14.47 51.14 14.34 51.83C14.21 52.52 14.17 53.22 14.2 53.93C14.23 54.63 14.34 55.32 14.53 56C13.59 55.48 12.69 54.89 11.83 54.24C10.98 53.59 10.17 52.89 9.41 52.13C8.65 51.37 7.95 50.55 7.31 49.69C6.66 48.83 6.08 47.93 5.56 46.99C7.62 45.56 11 42.78 11 40C11 36 7 36 7 34C7 32 9 32 9 28C8.98 27.55 8.92 27.11 8.83 26.67C8.74 26.23 8.61 25.8 8.44 25.38C8.28 24.97 8.08 24.56 7.85 24.18C7.62 23.8 7.36 23.43 7.07 23.09L7.07 23.09Z" />
		<path id="Layer" class="shp7" d="M8.91 24.09C15.51 14.51 28.27 11.87 33.01 11.21C33.01 11.11 33.02 11.01 33.03 10.91C33.04 10.81 33.05 10.71 33.06 10.62C33.07 10.52 33.09 10.42 33.1 10.32C33.12 10.22 33.14 10.13 33.15 10.03L33 10C33 10 15.27 11.18 7.07 23.09C7.19 23.24 7.31 23.4 7.42 23.55C7.53 23.71 7.64 23.87 7.74 24.04C7.84 24.2 7.94 24.37 8.03 24.54C8.12 24.71 8.21 24.88 8.29 25.05C8.5 24.73 8.69 24.4 8.91 24.09L8.91 24.09Z" />
		<path id="Layer" class="shp8" d="M4.84 38C4.81 36.87 4.87 35.74 5.01 34.61C5.14 33.49 5.36 32.38 5.65 31.28C5.94 30.19 6.31 29.12 6.75 28.07C7.19 27.03 7.71 26.02 8.29 25.05C8.21 24.88 8.12 24.71 8.03 24.54C7.94 24.37 7.84 24.2 7.74 24.04C7.64 23.87 7.53 23.71 7.42 23.55C7.31 23.4 7.19 23.24 7.07 23.09C6.38 24.11 5.78 25.18 5.26 26.29C4.73 27.4 4.3 28.55 3.95 29.73C3.61 30.91 3.36 32.11 3.2 33.33C3.04 34.54 2.97 35.77 3 37C3 37.87 3.06 38.74 3.17 39.6C3.28 40.46 3.44 41.31 3.65 42.16C3.87 43 4.14 43.82 4.46 44.63C4.77 45.44 5.14 46.23 5.56 46.99C5.87 46.77 6.21 46.53 6.56 46.26C6.28 45.61 6.03 44.94 5.82 44.27C5.6 43.59 5.42 42.91 5.28 42.22C5.13 41.52 5.02 40.82 4.95 40.12C4.88 39.41 4.84 38.71 4.84 38L4.84 38Z" />
		<path id="Layer" class="shp6" d="M36.3 56.62C36.49 57 36.7 57.37 36.91 57.74C37.12 58.11 37.35 58.47 37.58 58.83C37.81 59.19 38.05 59.54 38.3 59.89C38.55 60.23 38.81 60.57 39.08 60.9C38.49 60.93 37.89 60.94 37.29 60.95C36.7 60.96 36.1 60.96 35.51 60.95C34.91 60.94 34.32 60.92 33.72 60.89C33.13 60.86 32.53 60.82 31.94 60.77C32.25 60.57 32.56 60.36 32.86 60.13C33.16 59.91 33.44 59.67 33.72 59.43C34 59.18 34.27 58.93 34.53 58.66C34.79 58.39 35.04 58.12 35.28 57.83L36.3 56.62Z" />
		<path id="Layer" class="shp5" d="M40.56 34.37C38.38 36.63 34.47 41.57 34.27 48L27.77 49.38C27.13 49.52 26.5 49.7 25.89 49.92C25.27 50.14 24.68 50.4 24.1 50.69C23.52 50.99 22.96 51.33 22.42 51.7C21.88 52.07 21.37 52.48 20.89 52.92C20.59 53.2 20.32 53.5 20.08 53.83C19.85 54.17 19.65 54.52 19.48 54.9C19.32 55.27 19.2 55.66 19.12 56.06C19.04 56.46 19 56.86 19 57.27C19 57.34 19 57.42 19 57.49C19.01 57.56 19.01 57.63 19.02 57.71C19.02 57.78 19.03 57.85 19.04 57.92C19.05 58 19.06 58.07 19.07 58.14C18.68 57.99 18.29 57.84 17.9 57.68C17.52 57.52 17.13 57.35 16.75 57.17C16.38 56.99 16 56.8 15.63 56.61C15.26 56.41 14.89 56.21 14.53 56C14.34 55.32 14.23 54.63 14.2 53.93C14.17 53.22 14.21 52.52 14.34 51.83C14.47 51.14 14.67 50.46 14.95 49.82C15.23 49.18 15.58 48.57 16 48C20 43 28 46 31 42C31.38 41.42 31.72 40.82 32 40.19C32.29 39.56 32.53 38.91 32.71 38.24C32.89 37.57 33.02 36.89 33.1 36.2C33.17 35.51 33.19 34.82 33.16 34.13C33.78 34.06 34.39 34.01 35.01 33.98C35.63 33.96 36.25 33.95 36.87 33.97C37.49 33.99 38.11 34.04 38.72 34.1C39.34 34.17 39.95 34.26 40.56 34.37L40.56 34.37Z" />
		<path id="Layer" class="shp1" d="M14.22 53.12C13.44 52.7 12.67 52.26 11.92 51.79C11.17 51.33 10.43 50.84 9.7 50.32C8.98 49.81 8.27 49.28 7.58 48.72C6.89 48.17 6.22 47.59 5.56 46.99C6.08 47.93 6.66 48.83 7.31 49.69C7.95 50.55 8.65 51.37 9.41 52.13C10.17 52.89 10.98 53.59 11.83 54.24C12.69 54.89 13.59 55.48 14.53 56C14.48 55.76 14.43 55.53 14.39 55.29C14.35 55.05 14.32 54.81 14.29 54.57C14.27 54.33 14.25 54.09 14.24 53.85C14.23 53.6 14.23 53.36 14.23 53.12L14.22 53.12Z" />
		<path id="Layer" class="shp6" d="M23.69 48.92C23.17 49.07 22.65 49.26 22.15 49.48C21.66 49.71 21.18 49.97 20.72 50.27C20.26 50.56 19.82 50.89 19.41 51.25C19 51.62 18.62 52.01 18.27 52.42C18.03 52.71 17.74 52.95 17.42 53.14C17.1 53.32 16.75 53.45 16.38 53.52C16.02 53.58 15.65 53.58 15.28 53.52C14.91 53.45 14.56 53.32 14.24 53.14L14.22 53.13C14.22 53.37 14.23 53.61 14.24 53.85C14.25 54.09 14.27 54.33 14.29 54.57C14.32 54.81 14.35 55.05 14.39 55.29C14.43 55.53 14.48 55.76 14.53 56C14.75 56.13 14.97 56.25 15.19 56.37C15.42 56.49 15.64 56.61 15.87 56.72C16.09 56.83 16.32 56.95 16.55 57.05C16.78 57.16 17.01 57.27 17.24 57.37C17.83 57.64 18.43 57.9 19.07 58.14C19.06 58.07 19.05 58 19.04 57.92C19.03 57.85 19.02 57.78 19.02 57.71C19.01 57.63 19.01 57.56 19 57.49C19 57.42 19 57.34 19 57.27C19 57.2 19 57.12 19.01 57.05C19.01 56.97 19.01 56.9 19.02 56.82C19.03 56.75 19.03 56.68 19.04 56.6C19.05 56.53 19.06 56.45 19.07 56.38C19.08 56.34 19.08 56.3 19.09 56.26C19.1 56.18 19.12 56.11 19.13 56.03C19.15 55.96 19.17 55.89 19.18 55.81C19.2 55.74 19.22 55.66 19.24 55.59C19.26 55.52 19.29 55.44 19.31 55.37C19.38 55.14 19.48 54.91 19.58 54.69C19.69 54.46 19.81 54.25 19.94 54.04C20.07 53.84 20.22 53.64 20.38 53.45C20.54 53.26 20.71 53.09 20.89 52.92C21.37 52.48 21.88 52.07 22.42 51.7C22.96 51.33 23.52 50.99 24.1 50.69C24.68 50.4 25.27 50.14 25.89 49.92C26.5 49.7 27.13 49.52 27.77 49.38L34.27 48C33.39 47.89 32.5 47.83 31.6 47.81C30.71 47.8 29.82 47.83 28.93 47.91C28.04 47.98 27.16 48.11 26.29 48.28C25.41 48.45 24.54 48.66 23.69 48.92L23.69 48.92Z" />
		<path id="Layer" class="shp7" d="M25.48 35.29C22.82 35.7 20.46 35.9 18.55 35.25C18.62 35.31 18.69 35.37 18.76 35.44C18.83 35.5 18.9 35.56 18.97 35.61C19.05 35.67 19.12 35.73 19.2 35.78C19.28 35.84 19.35 35.89 19.43 35.94C21.38 37.15 24.03 37.18 27.1 36.97C28.95 36.84 30.95 36.63 33.02 36.53C33.05 36.33 33.07 36.13 33.09 35.93C33.11 35.73 33.12 35.53 33.13 35.33C33.14 35.13 33.15 34.93 33.16 34.73C33.16 34.53 33.16 34.33 33.16 34.13C30.43 34.39 27.84 34.92 25.48 35.29L25.48 35.29Z" />
		<path id="Layer" class="shp8" d="M33.16 34.13C33.16 34.33 33.16 34.53 33.16 34.73C33.15 34.93 33.14 35.13 33.13 35.33C33.12 35.53 33.11 35.73 33.09 35.93C33.07 36.13 33.05 36.33 33.03 36.53C33.63 36.5 34.24 36.48 34.85 36.47C35.17 36.46 35.48 36.46 35.8 36.47C36.11 36.47 36.43 36.48 36.74 36.49C37.05 36.51 37.37 36.53 37.68 36.55C38 36.58 38.31 36.61 38.62 36.64C38.77 36.44 38.92 36.25 39.08 36.05C39.24 35.86 39.4 35.67 39.56 35.48C39.72 35.29 39.88 35.1 40.05 34.92C40.22 34.73 40.39 34.55 40.56 34.37C39.95 34.26 39.34 34.17 38.72 34.1C38.11 34.04 37.49 33.99 36.87 33.97C36.25 33.95 35.63 33.96 35.01 33.98C34.39 34.01 33.78 34.06 33.16 34.13L33.16 34.13Z" />
		<path id="Layer" class="shp7" d="M42.21 37.33C42.41 37.39 42.61 37.45 42.81 37.51C43.01 37.57 43.21 37.64 43.41 37.71C43.61 37.78 43.81 37.85 44 37.93C44.2 38 44.39 38.08 44.58 38.17C52.76 41.68 58.09 49.41 60.21 52.87C60.34 52.74 60.45 52.59 60.55 52.44C60.64 52.29 60.73 52.13 60.79 51.96C60.86 51.79 60.91 51.62 60.95 51.44C60.98 51.26 61 51.08 61 50.9C61 50.75 60.99 50.6 60.96 50.45C60.94 50.3 60.91 50.16 60.86 50.01C60.82 49.87 60.76 49.73 60.69 49.6C60.62 49.46 60.55 49.33 60.46 49.21C58.63 46.62 52.31 38.1 43 35C42.8 34.93 42.6 34.87 42.4 34.81C42.2 34.75 41.99 34.7 41.79 34.64C41.59 34.59 41.38 34.54 41.18 34.5C40.97 34.45 40.77 34.41 40.56 34.37C40.39 34.55 40.22 34.73 40.05 34.92C39.88 35.1 39.72 35.29 39.56 35.47C39.4 35.66 39.24 35.86 39.08 36.05C38.92 36.24 38.77 36.44 38.62 36.64C38.92 36.67 39.23 36.71 39.53 36.75C39.83 36.8 40.13 36.85 40.43 36.91C40.73 36.97 41.03 37.03 41.32 37.1C41.62 37.17 41.91 37.25 42.21 37.33L42.21 37.33Z" />
		<path id="Layer" class="shp9" d="M35.17 53.95C35.25 54.18 35.33 54.41 35.41 54.63C35.5 54.86 35.59 55.08 35.68 55.31C35.78 55.53 35.87 55.75 35.98 55.97C36.08 56.19 36.19 56.41 36.3 56.62L35.28 57.83C35.04 58.12 34.79 58.39 34.53 58.66C34.27 58.93 34 59.18 33.72 59.43C33.44 59.67 33.16 59.91 32.86 60.13C32.56 60.36 32.25 60.57 31.94 60.77C31.38 61.13 30.8 61.45 30.2 61.73C29.59 62.01 28.97 62.24 28.34 62.43C27.7 62.62 27.05 62.76 26.39 62.86C25.74 62.95 25.07 63 24.41 63C24.01 63 23.61 62.95 23.22 62.86C22.83 62.77 22.45 62.63 22.09 62.45C21.73 62.27 21.39 62.05 21.08 61.8C20.77 61.55 20.49 61.26 20.25 60.94C20.09 60.74 19.95 60.53 19.82 60.3C19.69 60.08 19.57 59.85 19.47 59.62C19.38 59.38 19.29 59.14 19.22 58.89C19.16 58.65 19.1 58.39 19.07 58.14C19.06 58.07 19.05 58 19.04 57.92C19.03 57.85 19.02 57.78 19.02 57.71C19.01 57.63 19.01 57.56 19 57.49C19 57.42 19 57.34 19 57.27C19 56.86 19.04 56.46 19.12 56.06C19.2 55.66 19.32 55.27 19.48 54.9C19.65 54.52 19.85 54.17 20.08 53.83C20.32 53.5 20.59 53.2 20.89 52.92C21.37 52.48 21.88 52.07 22.42 51.7C22.96 51.33 23.52 50.99 24.1 50.69C24.68 50.4 25.27 50.14 25.89 49.92C26.5 49.7 27.13 49.52 27.77 49.38L34.27 48C34.26 48.34 34.26 48.67 34.27 49.01C34.28 49.34 34.3 49.68 34.33 50.01C34.36 50.35 34.4 50.68 34.45 51.01C34.5 51.34 34.57 51.67 34.64 52C34.67 52.16 34.71 52.33 34.75 52.49C34.79 52.66 34.83 52.82 34.88 52.98C34.92 53.15 34.97 53.31 35.02 53.47C35.06 53.63 35.12 53.79 35.17 53.95L35.17 53.95Z" />
		<path id="Layer" class="shp10" d="M35.17 53.95C35.12 53.79 35.06 53.63 35.02 53.47C34.97 53.31 34.92 53.15 34.88 52.98C34.83 52.82 34.79 52.66 34.75 52.49C34.71 52.33 34.67 52.16 34.64 52C34.57 51.67 34.5 51.34 34.45 51.01C34.4 50.68 34.36 50.35 34.33 50.01C34.3 49.68 34.28 49.34 34.27 49.01C34.26 48.67 34.26 48.34 34.27 48L31.26 48.64C31.26 49 31.27 49.37 31.28 49.73C31.3 50.1 31.32 50.46 31.35 50.83C31.38 51.19 31.42 51.56 31.47 51.92C31.52 52.28 31.57 52.64 31.64 53C31.67 53.16 31.71 53.33 31.75 53.49C31.79 53.66 31.83 53.82 31.88 53.98C31.92 54.15 31.97 54.31 32.02 54.47C32.06 54.63 32.12 54.79 32.17 54.95C32.31 55.3 32.46 55.65 32.61 55.99C32.77 56.33 32.93 56.67 33.1 57C33.27 57.34 33.45 57.67 33.63 58C33.82 58.32 34.01 58.65 34.21 58.96C34.31 58.87 34.4 58.78 34.49 58.69C34.58 58.6 34.67 58.51 34.76 58.41C34.85 58.32 34.94 58.22 35.02 58.12C35.11 58.03 35.2 57.93 35.28 57.83L36.3 56.62C36.19 56.41 36.08 56.19 35.98 55.97C35.87 55.75 35.78 55.53 35.68 55.31C35.59 55.08 35.5 54.86 35.41 54.63C35.33 54.41 35.25 54.18 35.17 53.95L35.17 53.95Z" />
		<path id="Layer" class="shp11" d="M46 50C44.34 50 43 48.66 43 47C43 45.34 44.34 44 46 44C47.66 44 49 45.34 49 47C49 48.66 47.66 50 46 50Z" />
		<path id="Layer" class="shp12" d="M46.5 48C45.67 48 45 47.33 45 46.5C45 45.67 45.67 45 46.5 45C47.33 45 48 45.67 48 46.5C48 47.33 47.33 48 46.5 48Z" />
		<g id="Layer">
			<path id="Layer" class="shp7" d="M27.91 37.65C27.67 37.71 27.42 37.77 27.17 37.83C26.93 37.88 26.68 37.93 26.43 37.98C26.18 38.03 25.93 38.07 25.68 38.11C25.43 38.14 25.18 38.18 24.93 38.21C24.83 38.22 24.74 38.24 24.66 38.29C24.57 38.33 24.5 38.4 24.43 38.47C24.37 38.54 24.33 38.63 24.3 38.72C24.27 38.81 24.26 38.91 24.27 39.01C24.28 39.13 24.29 39.26 24.3 39.39C24.32 39.51 24.34 39.64 24.36 39.76C24.38 39.89 24.4 40.02 24.42 40.14C24.45 40.27 24.47 40.39 24.5 40.51C24.52 40.62 24.57 40.71 24.63 40.8C24.7 40.88 24.78 40.95 24.87 41C24.96 41.05 25.06 41.08 25.16 41.09C25.27 41.1 25.37 41.09 25.47 41.06C25.8 40.96 26.13 40.84 26.43 40.68C26.74 40.51 27.02 40.32 27.29 40.1C27.56 39.88 27.8 39.64 28.01 39.37C28.23 39.1 28.42 38.81 28.57 38.5C28.62 38.4 28.65 38.29 28.64 38.17C28.63 38.06 28.58 37.95 28.51 37.86C28.44 37.77 28.35 37.71 28.24 37.67C28.14 37.63 28.02 37.62 27.91 37.65L27.91 37.65Z" />
			<path id="Layer" class="shp7" d="M22.62 39.13C22.63 39.03 22.62 38.93 22.59 38.83C22.56 38.74 22.5 38.65 22.44 38.57C22.37 38.49 22.29 38.43 22.19 38.39C22.1 38.34 22 38.32 21.9 38.32C21.33 38.3 20.75 38.25 20.19 38.16C19.62 38.06 19.06 37.93 18.51 37.77C17.96 37.6 17.42 37.39 16.9 37.15C16.38 36.91 15.88 36.64 15.39 36.33C15.29 36.26 15.17 36.22 15.05 36.22C14.92 36.22 14.8 36.26 14.7 36.34C14.6 36.41 14.53 36.51 14.49 36.63C14.45 36.75 14.45 36.87 14.49 36.99C15.33 39.41 18.12 40.8 21.74 41.23C21.84 41.24 21.94 41.23 22.04 41.2C22.14 41.16 22.23 41.11 22.31 41.04C22.39 40.97 22.45 40.89 22.49 40.79C22.53 40.7 22.55 40.6 22.55 40.49C22.56 40.06 22.58 39.59 22.62 39.13L22.62 39.13Z" />
			<path id="Layer" class="shp7" d="M36.83 49.41C36.88 49.92 36.95 50.42 37.06 50.91C37.16 51.4 37.3 51.89 37.46 52.36C37.63 52.84 37.82 53.31 38.04 53.76C38.27 54.21 38.52 54.65 38.79 55.07C38.88 55.21 38.99 55.33 39.12 55.43C39.24 55.54 39.38 55.63 39.53 55.7C39.67 55.77 39.83 55.82 39.99 55.85C40.15 55.88 40.31 55.88 40.47 55.87L42.68 55.7C43.48 55.64 43.67 54.96 43.23 54.66C42.68 54.29 42.16 53.9 41.67 53.48C41.17 53.07 40.69 52.62 40.24 52.15C39.8 51.68 39.37 51.18 38.98 50.67C38.58 50.15 38.22 49.61 37.88 49.06C37.81 48.94 37.71 48.86 37.59 48.81C37.47 48.77 37.33 48.77 37.21 48.81C37.09 48.85 36.98 48.94 36.92 49.05C36.85 49.16 36.82 49.29 36.83 49.41L36.83 49.41Z" />
		</g>
		<path id="Layer" class="shp13" d="M49 64C48.96 64 48.92 64 48.88 63.99C48.85 63.99 48.81 63.98 48.77 63.98C48.73 63.97 48.7 63.96 48.66 63.94C48.62 63.93 48.59 63.92 48.55 63.9C48.17 63.72 47.81 63.51 47.47 63.26C47.13 63.01 46.82 62.73 46.54 62.42C46.25 62.11 46 61.77 45.78 61.41C45.57 61.05 45.39 60.67 45.25 60.28C45.15 60 45.07 59.71 45.02 59.42C44.96 59.13 44.92 58.83 44.9 58.54C44.89 58.24 44.89 57.94 44.91 57.64C44.93 57.35 44.97 57.05 45.03 56.76C45.09 56.51 45.26 56.28 45.48 56.15C45.71 56.01 45.98 55.97 46.24 56.03C46.5 56.1 46.72 56.26 46.86 56.49C47 56.71 47.04 56.98 46.97 57.24C46.94 57.44 46.91 57.64 46.9 57.84C46.89 58.04 46.89 58.24 46.9 58.44C46.92 58.65 46.94 58.85 46.98 59.04C47.02 59.24 47.07 59.44 47.14 59.63C47.24 59.9 47.36 60.16 47.51 60.41C47.67 60.66 47.84 60.89 48.04 61.1C48.24 61.32 48.46 61.51 48.69 61.68C48.93 61.85 49.18 61.99 49.45 62.11C49.65 62.21 49.81 62.38 49.9 62.58C49.99 62.78 50.02 63.01 49.97 63.23C49.91 63.45 49.79 63.64 49.62 63.78C49.44 63.92 49.22 64 49 64L49 64Z" />
	</g>
</svg>