<?xml version="1.0" encoding="iso-8859-1"?>
<!-- Generator: Adobe Illustrator 19.0.0, SVG Export Plug-In . SVG Version: 6.00 Build 0)  -->
<svg xmlns="http://www.w3.org/2000/svg" xmlns:xlink="http://www.w3.org/1999/xlink" version="1.1" id="Layer_1" x="0px" y="0px" viewBox="0 0 512 512" style="enable-background:new 0 0 512 512;" xml:space="preserve" width="512" height="512">
<g>
	
		<rect x="115.661" y="216.339" transform="matrix(0.7071 -0.7071 0.7071 0.7071 -81.3776 266.215)" style="fill:#EFE2DD;" width="330" height="30"/>
	
		<rect x="278.464" y="71.642" transform="matrix(-0.7071 -0.7071 0.7071 -0.7071 320.8404 606.1809)" style="fill:#CDBFBA;" width="15" height="330"/>
	<path style="fill:#EFE2DD;" d="M507.43,16.872l-1.485-10.818L495.128,4.57C365.302-16.22,285.964,40.632,282.358,41.268   l188.373,188.373C471.368,226.036,528.22,146.698,507.43,16.872z"/>
	<path style="fill:#CDBFBA;" d="M470.732,229.641l-94.187-94.187l129.4-129.4l1.485,10.818   C528.22,146.698,471.368,226.036,470.732,229.641z"/>
	<path style="fill:#EFE2DD;" d="M185.626,326.374c-0.212-0.212-0.212-0.212-0.425-0.425c-40.729-40.729-107.551-40.941-148.492,0   L0,363.508l10.607,10.607c45.737,45.737,99.702,25.72,99.702,28.426c-8.273,34.153,0.637,71.913,27.577,98.853L148.492,512   l36.709-37.559C225.931,433.712,225.931,367.103,185.626,326.374z"/>
	
		<rect x="414.154" y="67.846" transform="matrix(0.7071 -0.7071 0.7071 0.7071 67.1148 327.7225)" style="fill:#537983;" width="30" height="30"/>
	
		<rect x="329.301" y="32.699" transform="matrix(0.7071 -0.7071 0.7071 0.7071 -17.738 292.5753)" style="fill:#EFE2DD;" width="30" height="270"/>
	
		<rect x="286.874" y="90.126" transform="matrix(0.7071 -0.7071 0.7071 0.7071 -60.1644 275.0017)" style="fill:#EFE2DD;" width="30" height="240"/>
	
		<rect x="244.448" y="162.552" transform="matrix(0.7071 -0.7071 0.7071 0.7071 -102.5908 257.4282)" style="fill:#EFE2DD;" width="30" height="180"/>
	
		<rect x="202.021" y="234.979" transform="matrix(0.7071 -0.7071 0.7071 0.7071 -145.0172 239.8546)" style="fill:#EFE2DD;" width="30" height="120"/>
	
		<rect x="208.235" y="301.192" transform="matrix(0.7071 0.7071 -0.7071 0.7071 293.3586 -75.8469)" style="fill:#CDBFBA;" width="60" height="30"/>
	
		<rect x="246.268" y="269.372" transform="matrix(0.7071 0.7071 -0.7071 0.7071 286.3916 -122.6667)" style="fill:#CDBFBA;" width="90" height="30"/>
	<path style="fill:#CDBFBA;" d="M185.202,474.441L148.492,512l-10.607-10.607c-26.94-26.94-35.85-64.7-27.577-98.853l75.317-76.167   C225.931,367.103,225.931,433.712,185.202,474.441z"/>
	
		<rect x="284.301" y="237.552" transform="matrix(-0.7071 -0.7071 0.7071 -0.7071 409.1767 674.5908)" style="fill:#CDBFBA;" width="120" height="30"/>
	
		<rect x="377.03" y="147.929" transform="matrix(0.7071 -0.7071 0.7071 0.7071 -37.5083 340.3051)" style="fill:#CDBFBA;" width="30" height="135"/>
	
		<rect x="419.457" y="80.65" transform="matrix(0.7071 -0.7071 0.7071 0.7071 64.9181 333.0258)" style="fill:#3E5959;" width="30" height="15"/>
</g>















</svg>
