<svg id="Capa_1" enable-background="new 0 0 512 512" height="512" viewBox="0 0 512 512" width="512" xmlns="http://www.w3.org/2000/svg"><g><path d="m255.999 118.269c-108.724 0-196.865 88.141-196.865 196.865s88.141 196.866 196.865 196.866 196.865-88.141 196.865-196.865-88.141-196.866-196.865-196.866zm0 345.555c-82.114 0-148.689-66.575-148.689-148.689s66.575-148.689 148.689-148.689 148.689 66.575 148.689 148.689-66.575 148.689-148.689 148.689z" fill="#fcac8d"/><path d="m452.867 315.132c0 108.726-88.143 196.868-196.868 196.868-6.84 0-13.598-.35-20.253-1.03 99.206-10.147 176.594-93.952 176.594-195.838 0-101.885-77.387-185.69-176.594-195.837 6.655-.68 13.413-1.03 20.253-1.03 108.725 0 196.868 88.142 196.868 196.867z" fill="#fb946d"/><path d="m350.59 142.433-9.333 8.643c-5.728 5.306-13.186 8.221-20.995 8.221h-128.526c-7.809 0-15.267-2.915-20.995-8.231l-9.323-8.633c28.072-15.401 60.297-24.168 94.581-24.168s66.519 8.767 94.591 24.168z" fill="#fb946d"/><g><path d="m349.458 56.887h-186.916l43.638-53.127c1.957-2.38 4.873-3.76 7.953-3.76h5.295l36.572 44.524 36.571-44.524h5.285c3.091 0 6.006 1.38 7.963 3.76z" fill="#64b9fc"/><path d="m349.458 56.887h-32.966l-35.325-43 11.404-13.887h5.295c3.08 0 5.996 1.38 7.953 3.76z" fill="#31a7fb"/><path d="m302.007.876-46.008 56.011-46.008-56.011c1.288-.567 2.689-.876 4.141-.876h83.733c1.453 0 2.854.309 4.142.876z" fill="#c5e2ff"/><path d="m302.007.876-15.762 19.192-13.392-16.308c-1.958-2.38-4.873-3.76-7.953-3.76h32.966c1.452 0 2.853.309 4.141.876z" fill="#8dcafc"/></g><path d="m356.512 108.867h-201.026l29.251 27.087c1.904 1.763 4.404 2.743 6.999 2.743h128.526c2.595 0 5.095-.98 6.999-2.743z" fill="#f28866"/><path d="m356.514 108.869-29.257 27.084c-1.896 1.762-4.399 2.74-6.995 2.74h-48.419c2.596 0 5.099-.979 6.995-2.74l29.257-27.084z" fill="#fc7d4b"/><g><path d="m351.361 115.048h-190.725c-2.845 0-5.151-2.306-5.151-5.151v-54.041c0-2.845 2.306-5.151 5.151-5.151h190.725c2.845 0 5.151 2.306 5.151 5.151v54.041c0 2.845-2.306 5.151-5.151 5.151z" fill="#fcac8d"/><path d="m356.515 55.856v54.044c0 2.843-2.308 5.151-5.151 5.151h-30.565c2.843 0 5.151-2.308 5.151-5.151v-54.044c0-2.843-2.308-5.151-5.151-5.151h30.565c2.843 0 5.151 2.308 5.151 5.151z" fill="#fb946d"/></g></g></svg>