<svg xmlns="http://www.w3.org/2000/svg" viewBox="0 0 503 504" width="503" height="504">
	<style>
		tspan { white-space:pre }
		.shp0 { fill: #b0681d } 
		.shp1 { fill: #a7541e } 
		.shp2 { fill: #b7771a } 
		.shp3 { fill: #ffffff } 
		.shp4 { fill: #2c2f38 } 
	</style>
	<path id="Layer" class="shp0" d="M212.61 269.02C212.61 269.02 156.64 319.7 121.93 311.02C87.22 302.34 121.93 276.31 121.93 276.31C121.93 276.31 78.54 258.95 113.25 232.92L113.25 234.3C112.99 234.05 112.64 233.87 112.39 233.61C79.23 208.01 121.93 190.92 121.93 190.92C121.93 190.92 87.22 164.88 121.93 156.2C148.4 149.61 206.71 185.54 216.52 194.73L212.61 269.02Z" />
	<path id="Layer" class="shp1" d="M151.86 269.02C147.54 269.01 143.88 265.82 143.28 261.55C142.68 257.27 145.32 253.2 149.48 252L190.42 240.29L147.52 215.8C143.49 213.37 142.13 208.16 144.47 204.07C146.81 199.98 151.98 198.5 156.13 200.74L216.88 235.45C219.9 237.18 221.6 240.56 221.18 244.02C220.76 247.48 218.31 250.36 214.96 251.32L154.21 268.68C153.45 268.9 152.66 269.02 151.86 269.02Z" />
	<path id="Layer" class="shp2" d="M403.52 116.98C403.52 138.85 392.94 156.73 385.13 156.2C382.57 155.82 380.16 154.74 378.18 153.08C340.78 127.74 291.93 143.71 251.57 126.53C248.19 125.05 227.88 110.56 229.96 104.14C224.06 122.01 227.01 144.32 242.29 156.2C258.52 168.79 281.42 164.54 300.43 170.18C335.15 180.46 361.07 209.5 367.36 245.17C373.64 280.84 359.22 316.99 330.11 338.53C314.31 350.24 284.46 352.24 256.09 356.49C220.33 361.96 186.83 370.98 186.57 407.87C186.4 436.42 200.46 456.46 229.88 459.93C263.72 463.84 299.82 454.21 322.64 428C329.41 420.1 342.78 403.18 342.78 391.38C346.51 461.75 292.1 504.02 247.32 503.67C193.34 503.24 134.94 468.61 134.77 408.99C135.64 389.93 143.02 371.73 155.68 357.45C165.66 344.52 178.16 331.93 188.92 318.31C192.39 313.8 195.77 309.2 198.81 304.43C202.74 298.39 205.97 291.93 208.44 285.16C210.3 279.97 211.56 274.58 212.17 269.11C212.45 266.66 212.59 264.2 212.61 261.73C212.61 255.34 211.91 248.96 210.52 242.72C209.54 237.78 208.21 232.9 206.53 228.14C204.18 221.17 201.37 214.36 198.12 207.75C195.68 202.63 193 197.6 190.3 192.65C186.75 186.06 183.1 179.64 179.54 173.39C178.94 172.26 178.33 171.22 177.72 170.18C175.55 166.27 173.38 162.62 171.47 159.07C157.64 137.57 150.79 112.32 151.86 86.78C151.86 36.02 197.34 2 238.64 0C241.59 -0.17 244.46 17.36 247.32 17.36C299.39 17.36 311.63 48.34 319.09 60.75C323.08 69.73 328.12 78.2 334.1 86C351.45 103.36 394.84 108.3 403.52 116.98L403.52 116.98Z" />
	<g id="Layer">
		<path id="Layer" class="shp0" d="M208.79 154.73L182.75 172.09C181.8 172.77 180.7 173.21 179.54 173.39C178.94 172.26 178.33 171.22 177.72 170.18C175.55 166.27 173.38 162.63 171.47 159.07C171.96 158.54 172.52 158.07 173.12 157.68L199.16 140.32C203.12 137.98 208.23 139.14 210.79 142.97C213.35 146.8 212.47 151.96 208.79 154.73Z" />
		<path id="Layer" class="shp0" d="M233.87 189.96L199.16 207.32C198.82 207.5 198.48 207.64 198.12 207.75C195.68 202.63 193 197.6 190.3 192.65C190.62 192.32 191.01 192.05 191.43 191.87L226.14 174.52C228.94 172.75 232.5 172.73 235.32 174.46C238.14 176.19 239.73 179.37 239.42 182.66C239.11 185.95 236.96 188.79 233.87 189.96Z" />
		<path id="Layer" class="shp0" d="M259.21 225.02L215.82 242.38C214.8 242.79 213.71 243 212.61 242.98C211.91 242.98 211.21 242.89 210.52 242.72C209.54 237.78 208.21 232.9 206.53 228.14C207.34 227.32 208.32 226.66 209.4 226.23L252.79 208.88C255.67 207.73 258.95 208.21 261.38 210.13C263.82 212.06 265.04 215.13 264.59 218.2C264.14 221.28 262.09 223.88 259.21 225.02Z" />
		<path id="Layer" class="shp0" d="M264.5 288.11C263.68 292.15 260.12 295.05 256 295.05C255.45 295.04 254.89 294.98 254.35 294.88L210.96 286.2C210.06 286.02 209.21 285.67 208.44 285.16C210.3 279.97 211.56 274.58 212.17 269.11C212.89 269 213.63 269.03 214.34 269.19L257.73 277.87C259.99 278.33 261.97 279.67 263.24 281.59C264.51 283.51 264.96 285.86 264.5 288.11Z" />
		<path id="Layer" class="shp0" d="M228.49 334.54C226.91 336.98 224.2 338.45 221.29 338.44C219.58 338.46 217.91 337.95 216.51 336.96L190.48 319.61C189.92 319.22 189.4 318.79 188.92 318.31C192.39 313.8 195.77 309.2 198.81 304.43L200.11 305.21L226.14 322.56C228.06 323.83 229.38 325.81 229.82 328.06C230.26 330.31 229.78 332.64 228.49 334.54L228.49 334.54Z" />
		<path id="Layer" class="shp0" d="M368.81 261.73C368.71 291.99 354.37 320.44 330.11 338.53C314.31 350.24 284.46 352.24 256.09 356.49C256.09 356.49 342.43 301.56 277.87 166.53C285.48 167.03 293.04 168.25 300.43 170.18C341.02 182.14 368.86 219.42 368.81 261.73L368.81 261.73Z" />
	</g>
	<path id="Layer" class="shp3" d="M299.39 69.43C299.39 79.01 291.62 86.78 282.03 86.78C272.45 86.78 264.68 79.01 264.68 69.43C264.68 59.84 272.45 52.07 282.03 52.07C291.62 52.07 299.39 59.84 299.39 69.43L299.39 69.43Z" />
	<path id="Layer" class="shp4" d="M290.71 69.43C290.71 74.22 286.82 78.1 282.03 78.1C277.24 78.1 273.35 74.22 273.35 69.43C273.35 64.63 277.24 60.75 282.03 60.75C286.82 60.75 290.71 64.63 290.71 69.43Z" />
	<path id="Layer" class="shp3" d="M282.03 60.75C282.01 64.82 279.16 68.34 275.18 69.19C271.19 70.05 267.14 68.02 265.46 64.3C267.18 58.85 271.45 54.57 276.91 52.85C280.02 54.25 282.02 57.34 282.03 60.75Z" />
</svg>