<svg xmlns="http://www.w3.org/2000/svg" viewBox="0 0 256 256" width="256" height="256">
	<style>
		tspan { white-space:pre }
		.shp0 { fill: #b7771a } 
		.shp1 { fill: #b0681d } 
		.shp2 { fill: #ba9e62 } 
		.shp3 { fill: #333333 } 
		.shp4 { fill: #1a1a1a } 
		.shp5 { fill: #9e470a } 
		.shp6 { fill: #666666 } 
		.shp7 { fill: #b55018 } 
		.shp8 { fill: #bd7710 } 
		.shp9 { fill: #7a3e15 } 
	</style>
	<g id="_6-carp_fish">
		<path id="Layer" fill-rule="evenodd" class="shp0" d="M200.16 235.36C198.92 235.8 197.64 236.24 196.36 236.68C195.08 237.08 193.8 237.48 192.52 237.84C191.24 238.2 189.96 238.56 188.68 238.88C187.36 239.2 186.08 239.52 184.76 239.8C182.44 240.32 180.08 240.8 177.72 241.2C175.36 241.6 173 241.96 170.6 242.28C168.24 242.6 165.88 242.88 163.48 243.08C161.08 243.32 158.72 243.48 156.32 243.6C155.24 242.28 154.2 240.92 153.2 239.56C152.2 238.16 151.24 236.76 150.32 235.32C149.4 233.88 148.48 232.44 147.64 230.96C146.8 229.48 145.96 228 145.2 226.48C144.76 225.64 144.32 224.76 143.92 223.88C143.48 223 143.12 222.12 142.72 221.24C142.36 220.32 142 219.44 141.64 218.52C141.32 217.64 141 216.72 140.68 215.8C140.48 215.16 140.24 214.52 140.08 213.88C139.88 213.24 139.68 212.6 139.52 211.92C139.32 211.28 139.16 210.64 139 209.96C138.84 209.32 138.68 208.64 138.56 208C138.28 206.68 138 205.36 137.8 204.04C137.6 202.72 137.44 201.4 137.32 200.04C137.2 198.72 137.12 197.36 137.08 196.04C137.04 194.68 137.04 193.36 137.08 192C137.88 166.28 153.52 146.52 162.24 137.48C163.08 137.64 163.88 137.8 164.72 138C165.52 138.16 166.36 138.36 167.16 138.56C167.96 138.8 168.8 139 169.6 139.24C170.4 139.48 171.2 139.72 172 140C209.24 152.4 234.52 186.48 241.84 196.84C242.88 198.28 243.56 199.92 243.84 201.64C244.12 203.4 244.04 205.16 243.52 206.84C243.04 208.56 242.16 210.08 240.96 211.4C239.8 212.68 238.32 213.72 236.68 214.36C228.12 217.92 223.08 223.64 219.28 234.36C219 235.24 218.56 236.04 218 236.76C217.48 237.52 216.8 238.16 216.08 238.68C215.32 239.2 214.52 239.64 213.64 239.92C212.76 240.2 211.88 240.36 210.96 240.36C210.64 240.36 210.32 240.36 209.96 240.32C209.64 240.28 209.32 240.2 209 240.12C208.68 240.08 208.36 239.96 208.08 239.88C207.76 239.76 207.44 239.64 207.16 239.48C206.64 239.24 206.16 238.92 205.68 238.56C205.24 238.2 204.8 237.8 204.44 237.4C204.04 236.96 203.72 236.48 203.44 235.96C203.16 235.48 202.92 234.96 202.72 234.4C201.96 234.68 201.08 235.04 200.16 235.36ZM196 188C196 183.16 193.08 178.76 188.6 176.92C184.12 175.04 178.96 176.08 175.52 179.52C172.08 182.96 171.04 188.12 172.92 192.6C174.76 197.08 179.16 200 184 200C185.56 200 187.12 199.68 188.6 199.08C190.04 198.48 191.36 197.6 192.48 196.48C193.6 195.36 194.48 194.04 195.08 192.6C195.68 191.12 196 189.56 196 188Z" />
		<path id="Layer" class="shp1" d="M220 208C217.84 208.2 215.72 208.64 213.64 209.2C211.56 209.8 209.52 210.6 207.56 211.56C205.64 212.52 203.8 213.64 202.04 214.92C200.32 216.2 198.68 217.68 197.2 219.24C196.48 220.04 195.84 220.84 195.2 221.6C194.6 222.36 193.96 223.08 193.24 223.72C192.52 224.4 191.72 224.96 190.92 225.48C190.12 226.04 189.24 226.48 188.36 226.88C187.48 227.24 186.56 227.56 185.6 227.76L184.76 227.96C182.4 228.48 180.08 228.96 177.72 229.36C175.36 229.8 173 230.16 170.6 230.48C168.24 230.8 165.84 231.04 163.48 231.28C161.08 231.48 158.68 231.64 156.32 231.76C153.72 231.88 151 231.96 148.24 231.96C148.84 233 149.48 234 150.12 234.96C150.76 235.96 151.4 236.96 152.08 237.92C152.76 238.88 153.44 239.84 154.16 240.8C154.88 241.76 155.6 242.68 156.32 243.6C158.72 243.48 161.08 243.32 163.48 243.08C165.88 242.88 168.24 242.6 170.6 242.28C173 241.96 175.36 241.6 177.72 241.2C180.08 240.8 182.44 240.32 184.76 239.8C186.08 239.52 187.36 239.2 188.68 238.88C189.96 238.56 191.24 238.2 192.52 237.84C193.8 237.48 195.08 237.08 196.36 236.68C197.64 236.24 198.92 235.8 200.16 235.36C201.08 235.04 201.96 234.68 202.72 234.4C202.56 233.88 202.44 233.32 202.36 232.8C202.28 232.24 202.24 231.68 202.28 231.12C202.32 230.56 202.4 230.04 202.52 229.48C202.68 228.96 202.84 228.44 203.08 227.92C203.32 227.4 203.56 226.84 203.84 226.32C204.08 225.8 204.36 225.28 204.64 224.76C204.92 224.24 205.2 223.72 205.48 223.2C205.76 222.68 206.08 222.2 206.36 221.68C207.16 220.24 208.04 218.88 209.04 217.6C210 216.28 211.08 215.04 212.24 213.88C213.4 212.72 214.6 211.68 215.92 210.68C217.2 209.68 218.56 208.8 220 208L220 208Z" />
		<path id="Layer" class="shp1" d="M204 96C204 96 148 104 136 64C136 64 93.24 72.56 89.04 102.2C87.36 102.36 85.72 102.72 84.08 103.24C82.48 103.76 80.92 104.44 79.48 105.28C78 106.12 76.64 107.12 75.36 108.24C74.12 109.36 73 110.64 72 112C64.88 121.48 67.6 132.36 71 139.64C69.8 139 68.64 138.28 67.56 137.44C66.48 136.64 65.48 135.72 64.52 134.72C63.6 133.76 62.76 132.68 62 131.56C61.24 130.44 60.56 129.24 60 128C38 84 106.84 50.88 132 48C131.96 47.36 131.96 46.68 131.96 46C131.96 45.36 132 44.68 132.04 44.04C132.12 43.4 132.16 42.72 132.28 42.08C132.36 41.4 132.48 40.76 132.6 40.12C135.08 27.48 146.36 4 196 4C196 4 196 36 160 52C160 52 200 68 204 96L204 96Z" />
		<path id="Layer" class="shp1" d="M136 64C148 104 204 96 204 96C203.88 95.16 203.72 94.32 203.52 93.52C203.36 92.68 203.12 91.88 202.88 91.08C202.64 90.24 202.36 89.44 202.08 88.68C201.76 87.88 201.44 87.08 201.08 86.32C184.52 88.88 153.12 89.68 136 64Z" />
		<path id="Layer" class="shp2" d="M194.96 11.64C195.12 11 195.24 10.36 195.36 9.76C195.48 9.12 195.56 8.48 195.68 7.84C195.76 7.2 195.84 6.56 195.88 5.92C195.92 5.28 195.96 4.64 196 4C146.36 4 135.08 27.48 132.6 40.12C132.48 40.76 132.36 41.4 132.28 42.08C132.16 42.72 132.12 43.4 132.04 44.04C132 44.68 131.96 45.36 131.96 46C131.96 46.68 131.96 47.36 132 48C135.76 36.8 153.48 11.6 194.96 11.64Z" />
		<path id="Layer" class="shp3" d="M101.92 141.16C89.76 143.04 79.16 143.8 71 139.64C67.6 132.36 64.88 121.48 72 112C73 110.64 74.12 109.36 75.36 108.24C76.64 107.12 78 106.12 79.48 105.28C80.92 104.44 82.48 103.76 84.08 103.24C85.72 102.72 87.36 102.36 89.04 102.2C87.52 112.48 90.72 125.28 101.92 141.16L101.92 141.16Z" />
		<path id="Layer" class="shp4" d="M89.04 102.2C88.24 102.28 87.44 102.4 86.68 102.56C85.88 102.72 85.12 102.92 84.32 103.16C83.56 103.4 82.84 103.68 82.08 104C81.36 104.32 80.64 104.64 79.92 105.04C79.68 108.28 79.68 111.56 79.96 114.8C80.2 118.08 80.68 121.28 81.44 124.48C82.16 127.64 83.16 130.76 84.36 133.8C85.56 136.84 86.96 139.8 88.6 142.6C89.72 142.56 90.84 142.48 91.96 142.4C93.08 142.28 94.16 142.2 95.28 142.08C96.4 141.96 97.52 141.8 98.6 141.64C99.72 141.52 100.8 141.36 101.92 141.16C90.72 125.28 87.52 112.48 89.04 102.2L89.04 102.2Z" />
		<path id="Layer" class="shp5" d="M80 104C79.96 104.32 79.96 104.72 79.92 105.04C80.64 104.64 81.36 104.32 82.08 104C82.84 103.68 83.56 103.4 84.32 103.16C85.12 102.92 85.88 102.72 86.68 102.56C87.44 102.4 88.24 102.28 89.04 102.2C93.24 72.56 136 64 136 64C120 60 84.2 72.16 80 104Z" />
		<path id="Layer" class="shp3" d="M44 160C44 171.12 30.48 182.24 22.24 187.96C20.56 184.92 19.08 181.76 17.84 178.52C16.56 175.28 15.48 172 14.6 168.64C13.76 165.24 13.12 161.84 12.68 158.4C12.24 154.96 12 151.48 12 148C11.88 143.08 12.16 138.16 12.8 133.32C13.44 128.44 14.44 123.64 15.8 118.92C17.2 114.2 18.92 109.6 21.04 105.16C23.12 100.72 25.52 96.44 28.28 92.36C29.44 93.72 30.48 95.2 31.4 96.72C32.32 98.24 33.12 99.88 33.76 101.52C34.44 103.2 34.96 104.92 35.32 106.68C35.68 108.44 35.92 110.2 36 112C36 128 28 128 28 136C28 144 44 144 44 160Z" />
		<path id="Layer" class="shp0" d="M28.28 92.36C61.08 44.72 132 40 132 40L132.6 40.12C132.48 40.76 132.36 41.4 132.28 42.08C132.16 42.72 132.12 43.4 132.04 44.04C132 44.68 131.96 45.36 131.96 46C131.96 46.68 131.96 47.36 132 48C106.84 50.88 38 84 60 128C60.56 129.24 61.24 130.44 62 131.56C62.76 132.68 63.6 133.76 64.52 134.72C65.48 135.72 66.48 136.64 67.56 137.44C68.64 138.28 69.8 139 71 139.64C79.16 143.8 89.76 143.04 101.92 141.16C111.36 139.68 121.72 137.56 132.64 136.52C132.76 139.28 132.68 142.04 132.4 144.8C132.08 147.56 131.56 150.28 130.84 152.96C130.12 155.64 129.16 158.24 128 160.76C126.88 163.28 125.52 165.68 124 168C112 184 80 172 64 192C62.32 194.28 60.92 196.72 59.8 199.28C58.68 201.84 57.88 204.56 57.36 207.32C56.84 210.08 56.68 212.88 56.8 215.72C56.92 218.52 57.36 221.28 58.12 224C54.36 221.92 50.76 219.56 47.32 216.96C43.92 214.36 40.68 211.56 37.64 208.52C34.6 205.48 31.8 202.2 29.24 198.76C26.64 195.32 24.32 191.72 22.24 187.96C30.48 182.24 44 171.12 44 160C44 144 28 144 28 136C28 128 36 128 36 112C35.92 110.2 35.68 108.44 35.32 106.68C34.96 104.92 34.44 103.2 33.76 101.52C33.12 99.88 32.32 98.24 31.4 96.72C30.48 95.2 29.44 93.72 28.28 92.36L28.28 92.36Z" />
		<path id="Layer" class="shp2" d="M35.64 96.36C62.04 58.04 113.08 47.48 132.04 44.84C132.04 44.44 132.08 44.04 132.12 43.64C132.16 43.24 132.2 42.84 132.24 42.48C132.28 42.08 132.36 41.68 132.4 41.28C132.48 40.88 132.56 40.52 132.6 40.12L132 40C132 40 61.08 44.72 28.28 92.36C28.76 92.96 29.24 93.6 29.68 94.2C30.12 94.84 30.56 95.48 30.96 96.16C31.36 96.8 31.76 97.48 32.12 98.16C32.48 98.84 32.84 99.52 33.16 100.2C34 98.92 34.76 97.6 35.64 96.36L35.64 96.36Z" />
		<path id="Layer" class="shp6" d="M19.36 152C19.24 147.48 19.48 142.96 20.04 138.44C20.56 133.96 21.44 129.52 22.6 125.12C23.76 120.76 25.24 116.48 27 112.28C28.76 108.12 30.84 104.08 33.16 100.2C32.84 99.52 32.48 98.84 32.12 98.16C31.76 97.48 31.36 96.8 30.96 96.16C30.56 95.48 30.12 94.84 29.68 94.2C29.24 93.6 28.76 92.96 28.28 92.36C25.52 96.44 23.12 100.72 21.04 105.16C18.92 109.6 17.2 114.2 15.8 118.92C14.44 123.64 13.44 128.44 12.8 133.32C12.16 138.16 11.88 143.08 12 148C12 151.48 12.24 154.96 12.68 158.4C13.12 161.84 13.76 165.24 14.6 168.64C15.48 172 16.56 175.28 17.84 178.52C19.08 181.76 20.56 184.92 22.24 187.96C23.48 187.08 24.84 186.12 26.24 185.04C25.12 182.44 24.12 179.76 23.28 177.08C22.4 174.36 21.68 171.64 21.12 168.88C20.52 166.08 20.08 163.28 19.8 160.48C19.52 157.64 19.36 154.84 19.36 152L19.36 152Z" />
		<path id="Layer" class="shp4" d="M145.2 226.48C145.96 228 146.8 229.48 147.64 230.96C148.48 232.44 149.4 233.88 150.32 235.32C151.24 236.76 152.2 238.16 153.2 239.56C154.2 240.92 155.24 242.28 156.32 243.6C153.96 243.72 151.56 243.76 149.16 243.8C146.8 243.84 144.4 243.84 142.04 243.8C139.64 243.76 137.28 243.68 134.88 243.56C132.52 243.44 130.12 243.28 127.76 243.08C129 242.28 130.24 241.44 131.44 240.52C132.64 239.64 133.76 238.68 134.88 237.72C136 236.72 137.08 235.72 138.12 234.64C139.16 233.56 140.16 232.48 141.12 231.32L145.2 226.48Z" />
		<path id="Layer" class="shp3" d="M162.24 137.48C153.52 146.52 137.88 166.28 137.08 192L111.08 197.52C108.52 198.08 106 198.8 103.56 199.68C101.08 200.56 98.72 201.6 96.4 202.76C94.08 203.96 91.84 205.32 89.68 206.8C87.52 208.28 85.48 209.92 83.56 211.68C82.36 212.8 81.28 214 80.32 215.32C79.4 216.68 78.6 218.08 77.92 219.6C77.28 221.08 76.8 222.64 76.48 224.24C76.16 225.84 76 227.44 76 229.08C76 229.36 76 229.68 76 229.96C76.04 230.24 76.04 230.52 76.08 230.84C76.08 231.12 76.12 231.4 76.16 231.68C76.2 232 76.24 232.28 76.28 232.56C74.72 231.96 73.16 231.36 71.6 230.72C70.08 230.08 68.52 229.4 67 228.68C65.52 227.96 64 227.2 62.52 226.44C61.04 225.64 59.56 224.84 58.12 224C57.36 221.28 56.92 218.52 56.8 215.72C56.68 212.88 56.84 210.08 57.36 207.32C57.88 204.56 58.68 201.84 59.8 199.28C60.92 196.72 62.32 194.28 64 192C80 172 112 184 124 168C125.52 165.68 126.88 163.28 128 160.76C129.16 158.24 130.12 155.64 130.84 152.96C131.56 150.28 132.08 147.56 132.4 144.8C132.68 142.04 132.76 139.28 132.64 136.52C135.12 136.24 137.56 136.04 140.04 135.92C142.52 135.84 145 135.8 147.48 135.88C149.96 135.96 152.44 136.16 154.88 136.4C157.36 136.68 159.8 137.04 162.24 137.48L162.24 137.48Z" />
		<path id="Layer" class="shp7" d="M56.88 212.48C53.76 210.8 50.68 209.04 47.68 207.16C44.68 205.32 41.72 203.36 38.8 201.28C35.92 199.24 33.08 197.12 30.32 194.88C27.56 192.68 24.88 190.36 22.24 187.96C24.32 191.72 26.64 195.32 29.24 198.76C31.8 202.2 34.6 205.48 37.64 208.52C40.68 211.56 43.92 214.36 47.32 216.96C50.76 219.56 54.36 221.92 58.12 224C57.92 223.04 57.72 222.12 57.56 221.16C57.4 220.2 57.28 219.24 57.16 218.28C57.08 217.32 57 216.36 56.96 215.4C56.92 214.4 56.92 213.44 56.92 212.48L56.88 212.48Z" />
		<path id="Layer" class="shp4" d="M94.76 195.68C92.68 196.28 90.6 197.04 88.6 197.92C86.64 198.84 84.72 199.88 82.88 201.08C81.04 202.24 79.28 203.56 77.64 205C76 206.48 74.48 208.04 73.08 209.68C72.12 210.84 70.96 211.8 69.68 212.56C68.4 213.28 67 213.8 65.52 214.08C64.08 214.32 62.6 214.32 61.12 214.08C59.64 213.8 58.24 213.28 56.96 212.56L56.88 212.52C56.88 213.48 56.92 214.44 56.96 215.4C57 216.36 57.08 217.32 57.16 218.28C57.28 219.24 57.4 220.2 57.56 221.16C57.72 222.12 57.92 223.04 58.12 224C59 224.52 59.88 225 60.76 225.48C61.68 225.96 62.56 226.44 63.48 226.88C64.36 227.32 65.28 227.8 66.2 228.2C67.12 228.64 68.04 229.08 68.96 229.48C71.32 230.56 73.72 231.6 76.28 232.56C76.24 232.28 76.2 232 76.16 231.68C76.12 231.4 76.08 231.12 76.08 230.84C76.04 230.52 76.04 230.24 76 229.96C76 229.68 76 229.36 76 229.08C76 228.8 76 228.48 76.04 228.2C76.04 227.88 76.04 227.6 76.08 227.28C76.12 227 76.12 226.72 76.16 226.4C76.2 226.12 76.24 225.8 76.28 225.52C76.32 225.36 76.32 225.2 76.36 225.04C76.4 224.72 76.48 224.44 76.52 224.12C76.6 223.84 76.68 223.56 76.72 223.24C76.8 222.96 76.88 222.64 76.96 222.36C77.04 222.08 77.16 221.76 77.24 221.48C77.52 220.56 77.92 219.64 78.32 218.76C78.76 217.84 79.24 217 79.76 216.16C80.28 215.36 80.88 214.56 81.52 213.8C82.16 213.04 82.84 212.36 83.56 211.68C85.48 209.92 87.52 208.28 89.68 206.8C91.84 205.32 94.08 203.96 96.4 202.76C98.72 201.6 101.08 200.56 103.56 199.68C106 198.8 108.52 198.08 111.08 197.52L137.08 192C133.56 191.56 130 191.32 126.4 191.24C122.84 191.2 119.28 191.32 115.72 191.64C112.16 191.92 108.64 192.44 105.16 193.12C101.64 193.8 98.16 194.64 94.76 195.68L94.76 195.68Z" />
		<path id="Layer" class="shp2" d="M101.92 141.16C91.28 142.8 81.84 143.6 74.2 141C74.48 141.24 74.76 141.48 75.04 141.76C75.32 142 75.6 142.24 75.88 142.44C76.2 142.68 76.48 142.92 76.8 143.12C77.12 143.36 77.4 143.56 77.72 143.76C85.52 148.6 96.12 148.72 108.4 147.88C115.8 147.36 123.8 146.52 132.08 146.12C132.2 145.32 132.28 144.52 132.36 143.72C132.44 142.92 132.48 142.12 132.52 141.32C132.56 140.52 132.6 139.72 132.64 138.92C132.64 138.12 132.64 137.32 132.64 136.52C121.72 137.56 111.36 139.68 101.92 141.16L101.92 141.16Z" />
		<path id="Layer" class="shp6" d="M132.64 136.52C132.64 137.32 132.64 138.12 132.64 138.92C132.6 139.72 132.56 140.52 132.52 141.32C132.48 142.12 132.44 142.92 132.36 143.72C132.28 144.52 132.2 145.32 132.12 146.12C134.52 146 136.96 145.92 139.4 145.88C140.68 145.84 141.92 145.84 143.2 145.88C144.44 145.88 145.72 145.92 146.96 145.96C148.2 146.04 149.48 146.12 150.72 146.2C152 146.32 153.24 146.44 154.48 146.56C155.08 145.76 155.68 145 156.32 144.2C156.96 143.44 157.6 142.68 158.24 141.92C158.88 141.16 159.52 140.4 160.2 139.68C160.88 138.92 161.56 138.2 162.24 137.48C159.8 137.04 157.36 136.68 154.88 136.4C152.44 136.16 149.96 135.96 147.48 135.88C145 135.8 142.52 135.84 140.04 135.92C137.56 136.04 135.12 136.24 132.64 136.52L132.64 136.52Z" />
		<path id="Layer" class="shp2" d="M168.84 149.32C169.64 149.56 170.44 149.8 171.24 150.04C172.04 150.28 172.84 150.56 173.64 150.84C174.44 151.12 175.24 151.4 176 151.72C176.8 152 177.56 152.32 178.32 152.68C211.04 166.72 232.36 197.64 240.84 211.48C241.36 210.96 241.8 210.36 242.2 209.76C242.56 209.16 242.92 208.52 243.16 207.84C243.44 207.16 243.64 206.48 243.8 205.76C243.92 205.04 244 204.32 244 203.6C244 203 243.96 202.4 243.84 201.8C243.76 201.2 243.64 200.64 243.44 200.04C243.28 199.48 243.04 198.92 242.76 198.4C242.48 197.84 242.2 197.32 241.84 196.84C234.52 186.48 209.24 152.4 172 140C171.2 139.72 170.4 139.48 169.6 139.24C168.8 139 167.96 138.8 167.16 138.56C166.36 138.36 165.52 138.16 164.72 138C163.88 137.8 163.08 137.64 162.24 137.48C161.56 138.2 160.88 138.92 160.2 139.68C159.52 140.4 158.88 141.16 158.24 141.88C157.6 142.64 156.96 143.44 156.32 144.2C155.68 144.96 155.08 145.76 154.48 146.56C155.68 146.68 156.92 146.84 158.12 147C159.32 147.2 160.52 147.4 161.72 147.64C162.92 147.88 164.12 148.12 165.28 148.4C166.48 148.68 167.64 149 168.84 149.32L168.84 149.32Z" />
		<path id="Layer" class="shp1" d="M140.68 215.8C141 216.72 141.32 217.64 141.64 218.52C142 219.44 142.36 220.32 142.72 221.24C143.12 222.12 143.48 223 143.92 223.88C144.32 224.76 144.76 225.64 145.2 226.48L141.12 231.32C140.16 232.48 139.16 233.56 138.12 234.64C137.08 235.72 136 236.72 134.88 237.72C133.76 238.68 132.64 239.64 131.44 240.52C130.24 241.44 129 242.28 127.76 243.08C125.52 244.52 123.2 245.8 120.8 246.92C118.36 248.04 115.88 248.96 113.36 249.72C110.8 250.48 108.2 251.04 105.56 251.44C102.96 251.8 100.28 252 97.64 252C96.04 252 94.44 251.8 92.88 251.44C91.32 251.08 89.8 250.52 88.36 249.8C86.92 249.08 85.56 248.2 84.32 247.2C83.08 246.2 81.96 245.04 81 243.76C80.36 242.96 79.8 242.12 79.28 241.2C78.76 240.32 78.28 239.4 77.88 238.48C77.52 237.52 77.16 236.56 76.88 235.56C76.64 234.6 76.4 233.56 76.28 232.56C76.24 232.28 76.2 232 76.16 231.68C76.12 231.4 76.08 231.12 76.08 230.84C76.04 230.52 76.04 230.24 76 229.96C76 229.68 76 229.36 76 229.08C76 227.44 76.16 225.84 76.48 224.24C76.8 222.64 77.28 221.08 77.92 219.6C78.6 218.08 79.4 216.68 80.32 215.32C81.28 214 82.36 212.8 83.56 211.68C85.48 209.92 87.52 208.28 89.68 206.8C91.84 205.32 94.08 203.96 96.4 202.76C98.72 201.6 101.08 200.56 103.56 199.68C106 198.8 108.52 198.08 111.08 197.52L137.08 192C137.04 193.36 137.04 194.68 137.08 196.04C137.12 197.36 137.2 198.72 137.32 200.04C137.44 201.4 137.6 202.72 137.8 204.04C138 205.36 138.28 206.68 138.56 208C138.68 208.64 138.84 209.32 139 209.96C139.16 210.64 139.32 211.28 139.52 211.92C139.68 212.6 139.88 213.24 140.08 213.88C140.24 214.52 140.48 215.16 140.68 215.8L140.68 215.8Z" />
		<path id="Layer" class="shp8" d="M140.68 215.8C140.48 215.16 140.24 214.52 140.08 213.88C139.88 213.24 139.68 212.6 139.52 211.92C139.32 211.28 139.16 210.64 139 209.96C138.84 209.32 138.68 208.64 138.56 208C138.28 206.68 138 205.36 137.8 204.04C137.6 202.72 137.44 201.4 137.32 200.04C137.2 198.72 137.12 197.36 137.08 196.04C137.04 194.68 137.04 193.36 137.08 192L125.04 194.56C125.04 196 125.08 197.48 125.12 198.92C125.2 200.4 125.28 201.84 125.4 203.32C125.52 204.76 125.68 206.24 125.88 207.68C126.08 209.12 126.28 210.56 126.56 212C126.68 212.64 126.84 213.32 127 213.96C127.16 214.64 127.32 215.28 127.52 215.92C127.68 216.6 127.88 217.24 128.08 217.88C128.24 218.52 128.48 219.16 128.68 219.8C129.24 221.2 129.84 222.6 130.44 223.96C131.08 225.32 131.72 226.68 132.4 228C133.08 229.36 133.8 230.68 134.52 232C135.28 233.28 136.04 234.6 136.84 235.84C137.24 235.48 137.6 235.12 137.96 234.76C138.32 234.4 138.68 234.04 139.04 233.64C139.4 233.28 139.76 232.88 140.08 232.48C140.44 232.12 140.8 231.72 141.12 231.32L145.2 226.48C144.76 225.64 144.32 224.76 143.92 223.88C143.48 223 143.12 222.12 142.72 221.24C142.36 220.32 142 219.44 141.64 218.52C141.32 217.64 141 216.72 140.68 215.8L140.68 215.8Z" />
		<path id="Layer" class="shp1" d="M184 200C177.36 200 172 194.64 172 188C172 181.36 177.36 176 184 176C190.64 176 196 181.36 196 188C196 194.64 190.64 200 184 200Z" />
		<path id="Layer" class="shp2" d="M186 192C182.68 192 180 189.32 180 186C180 182.68 182.68 180 186 180C189.32 180 192 182.68 192 186C192 189.32 189.32 192 186 192Z" />
		<g id="Layer">
			<path id="Layer" class="shp2" d="M111.64 150.6C110.68 150.84 109.68 151.08 108.68 151.32C107.72 151.52 106.72 151.72 105.72 151.92C104.72 152.12 103.72 152.28 102.72 152.44C101.72 152.56 100.72 152.72 99.72 152.84C99.32 152.88 98.96 152.96 98.64 153.16C98.28 153.32 98 153.6 97.72 153.88C97.48 154.16 97.32 154.52 97.2 154.88C97.08 155.24 97.04 155.64 97.08 156.04C97.12 156.52 97.16 157.04 97.2 157.56C97.28 158.04 97.36 158.56 97.44 159.04C97.52 159.56 97.6 160.08 97.68 160.56C97.8 161.08 97.88 161.56 98 162.04C98.08 162.48 98.28 162.84 98.52 163.2C98.8 163.52 99.12 163.8 99.48 164C99.84 164.2 100.24 164.32 100.64 164.36C101.08 164.4 101.48 164.36 101.88 164.24C103.2 163.84 104.52 163.36 105.72 162.72C106.96 162.04 108.08 161.28 109.16 160.4C110.24 159.52 111.2 158.56 112.04 157.48C112.92 156.4 113.68 155.24 114.28 154C114.48 153.6 114.6 153.16 114.56 152.68C114.52 152.24 114.32 151.8 114.04 151.44C113.76 151.08 113.4 150.84 112.96 150.68C112.56 150.52 112.08 150.48 111.64 150.6L111.64 150.6Z" />
			<path id="Layer" class="shp2" d="M90.48 156.52C90.52 156.12 90.48 155.72 90.36 155.32C90.24 154.96 90 154.6 89.76 154.28C89.48 153.96 89.16 153.72 88.76 153.56C88.4 153.36 88 153.28 87.6 153.28C85.32 153.2 83 153 80.76 152.64C78.48 152.24 76.24 151.72 74.04 151.08C71.84 150.4 69.68 149.56 67.6 148.6C65.52 147.64 63.52 146.56 61.56 145.32C61.16 145.04 60.68 144.88 60.2 144.88C59.68 144.88 59.2 145.04 58.8 145.36C58.4 145.64 58.12 146.04 57.96 146.52C57.8 147 57.8 147.48 57.96 147.96C61.32 157.64 72.48 163.2 86.96 164.92C87.36 164.96 87.76 164.92 88.16 164.8C88.56 164.64 88.92 164.44 89.24 164.16C89.56 163.88 89.8 163.56 89.96 163.16C90.12 162.8 90.2 162.4 90.2 161.96C90.24 160.24 90.32 158.36 90.48 156.52L90.48 156.52Z" />
			<path id="Layer" class="shp2" d="M147.32 197.64C147.52 199.68 147.8 201.68 148.24 203.64C148.64 205.6 149.2 207.56 149.84 209.44C150.52 211.36 151.28 213.24 152.16 215.04C153.08 216.84 154.08 218.6 155.16 220.28C155.52 220.84 155.96 221.32 156.48 221.72C156.96 222.16 157.52 222.52 158.12 222.8C158.68 223.08 159.32 223.28 159.96 223.4C160.6 223.52 161.24 223.52 161.88 223.48L170.72 222.8C173.92 222.56 174.68 219.84 172.92 218.64C170.72 217.16 168.64 215.6 166.68 213.92C164.68 212.28 162.76 210.48 160.96 208.6C159.2 206.72 157.48 204.72 155.92 202.68C154.32 200.6 152.88 198.44 151.52 196.24C151.24 195.76 150.84 195.44 150.36 195.24C149.88 195.08 149.32 195.08 148.84 195.24C148.36 195.4 147.92 195.76 147.68 196.2C147.4 196.64 147.28 197.16 147.32 197.64L147.32 197.64Z" />
		</g>
		<path id="Layer" class="shp9" d="M196 256C195.84 256 195.68 256 195.52 255.96C195.4 255.96 195.24 255.92 195.08 255.92C194.92 255.88 194.8 255.84 194.64 255.76C194.48 255.72 194.36 255.68 194.2 255.6C192.68 254.88 191.24 254.04 189.88 253.04C188.52 252.04 187.28 250.92 186.16 249.68C185 248.44 184 247.08 183.12 245.64C182.28 244.2 181.56 242.68 181 241.12C180.6 240 180.28 238.84 180.08 237.68C179.84 236.52 179.68 235.32 179.6 234.16C179.56 232.96 179.56 231.76 179.64 230.56C179.72 229.4 179.88 228.2 180.12 227.04C180.36 226.04 181.04 225.12 181.92 224.6C182.84 224.04 183.92 223.88 184.96 224.12C186 224.4 186.88 225.04 187.44 225.96C188 226.84 188.16 227.92 187.88 228.96C187.76 229.76 187.64 230.56 187.6 231.36C187.56 232.16 187.56 232.96 187.6 233.76C187.68 234.6 187.76 235.4 187.92 236.16C188.08 236.96 188.28 237.76 188.56 238.52C188.96 239.6 189.44 240.64 190.04 241.64C190.68 242.64 191.36 243.56 192.16 244.4C192.96 245.28 193.84 246.04 194.76 246.72C195.72 247.4 196.72 247.96 197.8 248.44C198.6 248.84 199.24 249.52 199.6 250.32C199.96 251.12 200.08 252.04 199.88 252.92C199.64 253.8 199.16 254.56 198.48 255.12C197.76 255.68 196.88 256 196 256L196 256Z" />
	</g>
</svg>