<svg xmlns="http://www.w3.org/2000/svg" viewBox="0 0 512 512" width="512" height="512">
	<style>
		tspan { white-space:pre }
		.shp0 { fill: #ad7b64 } 
		.shp1 { fill: #9e6b57 } 
		.shp2 { fill: #d8dce5 } 
		.shp3 { fill: #c71e1e } 
		.shp4 { fill: #b41b1b } 
		.shp5 { fill: #707487 } 
		.shp6 { fill: #875748 } 
		.shp7 { fill: #c3c8d1 } 
	</style>
	<path id="Layer" class="shp0" d="M433.86 118.17L393.83 78.14C389.86 74.17 383.42 74.17 379.45 78.14C373.61 83.98 53.41 404.18 48.13 409.46L102.54 463.87C107.17 459.24 427.87 138.54 433.86 132.55C437.83 128.58 437.83 122.14 433.86 118.17Z" />
	<path id="Layer" class="shp1" d="M395.1 91.66C397.64 89.13 401.14 88.15 404.42 88.72L393.84 78.14C389.86 74.17 383.42 74.17 379.45 78.14C373.61 83.98 53.41 404.18 48.13 409.46L62.71 424.05C124.14 362.62 389.69 97.07 395.1 91.66Z" />
	<path id="Layer" class="shp2" d="M466.79 370.18C466.47 365.92 462.77 362.74 458.51 363.04L124.38 387.62L148.96 53.49C149.27 49.23 146.08 45.53 141.82 45.21C137.56 44.91 133.86 48.1 133.55 52.35L108.31 395.42C107.98 400 111.78 404.04 116.58 403.69L459.64 378.45C463.9 378.14 467.1 374.44 466.79 370.18Z" />
	<path id="Layer" class="shp3" d="M481.51 357.35C453.55 321.91 432.68 281.02 419.49 235.81C399.41 167.02 345.11 112.62 276.19 92.51C230.98 79.32 190.09 58.45 154.65 30.49C147.59 24.92 137.36 26.12 131.78 33.19C126.21 40.25 127.42 50.49 134.48 56.06C173.22 86.62 217.83 109.4 267.07 123.77C325.2 140.74 371.23 186.7 388.22 244.93C402.59 294.17 425.38 338.78 455.94 377.52C461.51 384.58 471.75 385.79 478.81 380.22C485.87 374.65 487.08 364.41 481.51 357.35Z" />
	<path id="Layer" class="shp4" d="M471.91 363.97C441.35 325.23 418.57 280.62 404.2 231.38C387.17 173.02 341.03 127.15 283.04 110.22C233.8 95.85 189.19 73.07 150.45 42.51C145.61 38.69 143.53 32.68 144.49 27C139.71 27.03 134.98 29.14 131.78 33.19C126.21 40.25 127.42 50.49 134.48 56.06C173.22 86.62 217.83 109.4 267.07 123.77C325.2 140.74 371.23 186.7 388.23 244.93C402.6 294.17 425.38 338.78 455.94 377.52C464.72 388.65 482.44 383.92 484.77 370.15C479.93 370.17 475.14 368.06 471.91 363.97Z" />
	<path id="Layer" class="shp5" d="M69.87 442.13C66.85 439.11 66.85 434.22 69.87 431.2L449.07 52.01C452.08 48.99 456.98 48.99 459.99 52.01C463.01 55.02 463.01 59.92 459.99 62.94L80.8 442.13C77.78 445.15 72.89 445.15 69.87 442.13Z" />
	<path id="Layer" class="shp1" d="M7.76 404.97L7.76 404.97C17.99 394.74 34.44 394.61 44.51 404.68L107.32 467.49C117.39 477.56 117.26 494.01 107.03 504.24L107.03 504.24C96.8 514.47 80.35 514.6 70.28 504.53L7.47 441.72C-2.6 431.65 -2.47 415.2 7.76 404.97Z" />
	<path id="Layer" class="shp6" d="M87.97 491.72L25.16 428.91C16.77 420.52 15.46 407.7 21.18 397.74C16.27 398.74 11.58 401.15 7.76 404.97C-2.47 415.2 -2.6 431.65 7.47 441.72L70.28 504.53C80.35 514.6 96.8 514.47 107.03 504.24C108.74 502.53 110.16 500.65 111.3 498.66C103.08 500.33 94.27 498.02 87.97 491.72Z" />
	<path id="Layer" class="shp2" d="M502.87 0.37L432.74 23.74C427.85 25.37 426.39 31.57 430.03 35.22L476.78 81.97C480.43 85.61 486.63 84.14 488.26 79.26L511.63 9.13L511.63 9.13C513.44 3.72 508.29 -1.44 502.87 0.37Z" />
	<path id="Layer" class="shp7" d="M448.41 28.18C445.65 25.41 445.83 21.19 448.2 18.59L432.74 23.74C427.86 25.37 426.39 31.57 430.03 35.22L476.78 81.97C480.43 85.61 486.63 84.14 488.26 79.26L491.07 70.83L448.41 28.18Z" />
	<g id="Layer">
	</g>
	<g id="Layer">
	</g>
	<g id="Layer">
	</g>
	<g id="Layer">
	</g>
	<g id="Layer">
	</g>
	<g id="Layer">
	</g>
	<g id="Layer">
	</g>
	<g id="Layer">
	</g>
	<g id="Layer">
	</g>
	<g id="Layer">
	</g>
	<g id="Layer">
	</g>
	<g id="Layer">
	</g>
	<g id="Layer">
	</g>
	<g id="Layer">
	</g>
	<g id="Layer">
	</g>
</svg>