<svg xmlns="http://www.w3.org/2000/svg" viewBox="0 0 497 497" width="497" height="497">
	<style>
		tspan { white-space:pre }
		.shp0 { fill: #d9e7ec } 
		.shp1 { fill: #fece85 } 
		.shp2 { fill: #fec165 } 
		.shp3 { fill: #855b47 } 
		.shp4 { fill: #7a5341 } 
		.shp5 { fill: #000000 } 
		.shp6 { fill: #c39f8e } 
		.shp7 { fill: #e6ddde } 
		.shp8 { fill: #fea613 } 
		.shp9 { fill: #fe9901 } 
		.shp10 { fill: #fb8801 } 
	</style>
	<g id="Layer">
		<g id="Layer">
			<g id="Layer">
				<path id="Layer" class="shp0" d="M371.62 76.59C368.06 73.03 368.06 67.26 371.62 63.71L401.47 33.86C413.31 22.01 432.66 22.08 444.59 34.01L465.46 54.89C477.39 66.82 477.46 86.16 465.62 98.01L435.92 127.71C432.36 131.26 426.6 131.26 423.04 127.71C419.48 124.15 419.48 118.38 423.04 114.83L452.74 85.13C457.48 80.39 457.41 72.6 452.58 67.77L431.71 46.89C426.88 42.06 419.09 41.99 414.35 46.74L384.5 76.59C380.94 80.14 375.17 80.14 371.62 76.59L371.62 76.59Z" />
			</g>
		</g>
		<g id="Layer">
			<g id="Layer">
				<path id="Layer" class="shp1" d="M360.4 144.82C357.79 144.39 355.22 144.43 352.75 144.84C353.16 142.37 353.19 139.79 352.77 137.19C350.19 121.44 344.46 105.86 335.6 92.16C326.81 78.43 315.18 66.52 301.72 57.29C294.95 52.73 287.76 48.79 280.25 45.6C252.9 34.09 220.32 32.93 192.59 42.4C173.43 48.94 160.08 63.7 132.56 58.46C106.43 53.48 93.04 38.62 69.6 14.93C69.56 14.9 69.52 14.89 69.48 14.87C65.87 13.18 61.51 13.05 57.66 14.94C50.91 18.24 48.12 26.38 51.42 33.13C65.16 61.18 101.91 91.33 132.16 98.81C154.16 104.25 178.32 102.54 199.35 94.15C245.01 75.94 292.32 102.13 306.95 148.18C310.44 159.17 321.55 166.23 333.27 164.32C331.35 176.03 338.41 187.15 349.41 190.64C395.46 205.26 421.64 252.58 403.43 298.24C395.05 319.26 393.34 343.43 398.78 365.42C406.26 395.68 436.4 432.43 464.46 446.17C471.2 449.47 479.35 446.68 482.65 439.93C484.54 436.08 484.4 431.71 482.72 428.11C482.7 428.07 482.69 428.02 482.66 427.99C458.96 404.55 444.1 391.15 439.13 365.02C433.89 337.51 448.65 324.16 455.19 305C464.66 277.26 463.49 244.68 451.98 217.34C448.79 209.82 444.86 202.63 440.29 195.87C431.07 182.41 419.15 170.78 405.42 161.98C391.72 153.13 376.15 147.4 360.4 144.82L360.4 144.82Z" />
			</g>
		</g>
		<g id="Layer">
			<g id="Layer">
				<path id="Layer" class="shp2" d="M482.65 439.93C484.53 436.08 484.4 431.71 482.72 428.11C482.7 428.07 482.69 428.02 482.66 427.99C458.96 404.55 444.1 391.15 439.13 365.02C433.89 337.51 448.64 324.16 455.19 305C464.66 277.26 463.49 244.68 451.98 217.34C448.79 209.82 444.86 202.63 440.29 195.87C431.07 182.41 419.15 170.78 405.42 161.99C391.72 153.13 376.15 147.4 360.4 144.82C359.44 144.66 358.49 144.59 357.54 144.55L332.99 169.11C333.39 178.95 339.93 187.63 349.4 190.64C395.45 205.26 421.64 252.58 403.43 298.24C395.05 319.26 393.33 343.43 398.77 365.43C406.26 395.68 436.4 432.43 464.46 446.17C471.2 449.47 479.35 446.68 482.65 439.93L482.65 439.93Z" />
			</g>
		</g>
		<g id="Layer">
			<g id="Layer">
				<path id="Layer" class="shp3" d="M153.2 389.6C168.48 374.32 189.61 368.49 209.38 372.08C216.83 373.43 224.47 370.86 229.82 365.51L267.03 328.3C272.39 322.94 274.96 315.31 273.6 307.85C270.01 288.09 275.84 266.95 291.12 251.67C306.4 236.39 327.54 230.56 347.3 234.15C354.76 235.51 362.39 232.94 367.75 227.58L443.59 151.74C452.77 142.56 452.77 127.68 443.59 118.5L379.75 54.67C370.57 45.49 355.69 45.49 346.51 54.67L270.67 130.51C265.31 135.86 262.75 143.5 264.1 150.95C267.69 170.72 261.86 191.85 246.58 207.13C231.3 222.41 210.17 228.24 190.4 224.65C182.95 223.29 175.31 225.86 169.96 231.22L132.75 268.43C127.39 273.79 124.82 281.42 126.18 288.88C129.77 308.64 123.94 329.78 108.66 345.06C93.38 360.34 72.24 366.17 52.48 362.58C45.02 361.22 60.72 416.71 70.29 431.81C77.23 442.78 137.03 453.23 135.68 445.78C132.09 426.01 137.92 404.88 153.2 389.6L153.2 389.6Z" />
			</g>
		</g>
		<g id="Layer">
			<g id="Layer">
				<path id="Layer" class="shp4" d="M347.3 234.15C354.76 235.51 362.39 232.94 367.75 227.58L443.59 151.74C452.77 142.56 452.77 127.68 443.59 118.5L417.83 92.74C427.01 101.92 427.01 116.8 417.83 125.98L341.99 201.82C336.63 207.18 329 209.75 321.54 208.39C301.78 204.8 280.64 210.63 265.36 225.91C250.08 241.19 244.25 262.33 247.84 282.09C249.2 289.54 246.63 297.18 241.27 302.54L204.06 339.75C198.7 345.11 191.07 347.67 183.62 346.32C163.85 342.72 142.72 348.56 127.44 363.84C112.16 379.12 106.33 400.25 109.92 420.02C111.27 427.47 108.7 435.1 103.35 440.46L84.2 459.61C75.02 468.79 60.14 468.79 50.96 459.61L76.72 485.37C85.9 494.55 100.78 494.55 109.96 485.37L129.11 466.22C134.47 460.86 137.03 453.23 135.68 445.78C132.08 426.01 137.92 404.88 153.2 389.6C168.48 374.32 189.61 368.49 209.38 372.08C216.83 373.43 224.47 370.86 229.82 365.51L267.03 328.3C272.39 322.94 274.96 315.31 273.6 307.85C270.01 288.09 275.84 266.95 291.12 251.67C306.4 236.39 327.54 230.56 347.3 234.15L347.3 234.15Z" />
			</g>
		</g>
		<g id="Layer">
			<g id="Layer">
				<path id="Layer" class="shp5" d="M490.95 424.21C490.96 424.25 490.98 424.29 491 424.33C490.98 424.29 490.96 424.25 490.95 424.21Z" />
			</g>
		</g>
		<g id="Layer">
			<g id="Layer">
				<path id="Layer" class="shp6" d="M87.84 410.58C84.28 407.03 84.28 401.26 87.84 397.7L343.45 142.1C347.01 138.54 352.77 138.54 356.33 142.1C359.89 145.65 359.89 151.42 356.33 154.98L100.72 410.58C97.16 414.14 91.4 414.14 87.84 410.58Z" />
			</g>
		</g>
		<path id="Layer" class="shp7" d="M442.44 407.5C444.22 402.79 441.84 397.54 437.13 395.77L193.53 303.99L101.75 60.38C99.97 55.67 94.72 53.3 90.01 55.07C85.31 56.84 82.93 62.1 84.7 66.8L176.37 310.11C176.2 312.73 184.78 321.31 187.4 321.15L430.71 412.81C435.42 414.59 440.67 412.21 442.44 407.5Z" />
		<g id="Layer">
			<g id="Layer">
				<path id="Layer" class="shp0" d="M378.37 154.2C368.89 163.68 353.53 163.68 344.05 154.2C334.57 144.73 334.57 129.36 344.05 119.89C349.96 113.98 368.95 108.33 382.41 104.92C389.02 103.24 395.01 109.23 393.33 115.85C389.92 129.31 384.28 148.29 378.37 154.2L378.37 154.2Z" />
			</g>
		</g>
		<g id="Layer">
			<g id="Layer">
				<path id="Layer" class="shp1" d="M482.65 439.93C484.53 436.08 484.4 431.71 482.72 428.11C482.7 428.07 482.69 428.02 482.66 427.99C458.96 404.55 444.1 391.15 439.13 365.02C433.89 337.51 448.64 324.16 455.19 305C460.53 289.36 462.48 272.18 461.11 255.27L397.52 318.86C394.68 334.26 395.05 350.35 398.77 365.43C406.26 395.68 436.4 432.43 464.46 446.17C471.2 449.47 479.35 446.68 482.65 439.93L482.65 439.93Z" />
				<path id="Layer" class="shp1" d="M230.55 36.06C217.54 36.2 204.61 38.29 192.59 42.4C173.43 48.94 160.08 63.7 132.56 58.46C106.43 53.48 93.04 38.62 69.59 14.93C69.56 14.89 69.51 14.89 69.47 14.87C65.87 13.18 61.5 13.05 57.65 14.93C50.91 18.24 48.12 26.38 51.42 33.12C65.16 61.18 101.9 91.32 132.16 98.81C142.76 101.43 153.87 102.38 164.89 101.73L230.55 36.06L230.55 36.06Z" />
			</g>
		</g>
		<g id="Layer">
			<g id="Layer">
				<path id="Layer" class="shp2" d="M482.65 439.93C484.53 436.08 484.4 431.71 482.72 428.11C482.7 428.07 482.69 428.02 482.66 427.99C458.96 404.55 444.1 391.15 439.13 365.02C433.89 337.51 448.64 324.16 455.19 305C460.53 289.36 462.48 272.18 461.11 255.27L397.52 318.86C394.68 334.26 395.05 350.35 398.77 365.43C406.26 395.68 436.4 432.43 464.46 446.17C471.2 449.47 479.35 446.68 482.65 439.93L482.65 439.93Z" />
			</g>
		</g>
		<g id="Layer">
			<g id="Layer">
				<path id="Layer" class="shp8" d="M135.68 445.78C135.66 445.68 135.65 445.59 135.64 445.5L52.75 362.62C52.66 362.6 52.57 362.59 52.48 362.58C45.02 361.22 37.39 363.79 32.03 369.15L12.88 388.29C3.71 397.47 3.7 412.36 12.88 421.54L76.72 485.37C85.9 494.55 100.78 494.55 109.96 485.37L129.11 466.23C134.47 460.86 137.03 453.23 135.68 445.78L135.68 445.78Z" />
			</g>
		</g>
		<g id="Layer">
			<g id="Layer">
				<path id="Layer" class="shp9" d="M135.68 445.78C135.66 445.68 135.65 445.59 135.64 445.5L109.88 419.74C109.89 419.83 109.9 419.92 109.92 420.02C111.27 427.47 108.71 435.1 103.35 440.46L84.2 459.61C75.02 468.79 60.14 468.79 50.96 459.61L76.72 485.37C85.9 494.55 100.78 494.55 109.96 485.37L129.11 466.22C134.47 460.86 137.03 453.23 135.68 445.78Z" />
			</g>
		</g>
		<g id="Layer">
			<g id="Layer">
				<path id="Layer" class="shp10" d="M111.6 483.73L14.52 386.66C10.96 383.1 10.96 377.33 14.52 373.78C18.08 370.22 23.84 370.22 27.4 373.78L124.48 470.85C128.04 474.41 128.03 480.18 124.48 483.73C120.92 487.29 115.15 487.29 111.6 483.73Z" />
			</g>
		</g>
	</g>
</svg>