<svg id="Layer_1" data-name="Layer 1" xmlns="http://www.w3.org/2000/svg" viewBox="0 0 512 512"><defs><style>.cls-1{fill:#906527;}.cls-2{fill:#815b24;}.cls-3{fill:#fdbf00;}.cls-4{fill:#ffda2d;}.cls-5{fill:#534741;}.cls-6{fill:#f7931e;stroke:#f2f2f2;stroke-miterlimit:10;stroke-width:4px;}</style></defs><path class="cls-1" d="M395.93,144.65,44.47,496.11a18.12,18.12,0,0,1-25.62,0L14.7,492a18.11,18.11,0,0,1,0-25.62l77.09-77.09L366.16,114.88a18.11,18.11,0,0,1,25.62,0l4.15,4.14A18.12,18.12,0,0,1,395.93,144.65Z"/><rect class="cls-2" x="224.88" y="8.5" width="19.53" height="556.88" rx="3.55" transform="translate(271.62 -81.87) rotate(45)"/><path class="cls-3" d="M121.56,419,44.47,496.11a18.12,18.12,0,0,1-25.62,0l-3.52-3.52L14.7,492a18.11,18.11,0,0,1,0-25.62l77.09-77.09Z"/><path class="cls-4" d="M105.23,402.69l-89.9,89.9L14.7,492a18.11,18.11,0,0,1,0-25.62l77.09-77.09Z"/><rect class="cls-5" x="255.05" y="223.95" width="13.56" height="51.99" rx="4.93" transform="translate(-100.05 258.35) rotate(-45)"/><rect class="cls-5" x="265.58" y="212.87" width="13.56" height="51.99" rx="4.93" transform="translate(-89.13 262.55) rotate(-45)"/><rect class="cls-5" x="276.72" y="201.73" width="13.56" height="51.99" rx="4.93" transform="translate(-77.99 267.16) rotate(-45)"/><rect class="cls-5" x="287.05" y="190.56" width="13.56" height="51.99" rx="4.93" transform="translate(-67.07 271.2) rotate(-45)"/><rect class="cls-5" x="297.58" y="179.47" width="13.56" height="51.99" rx="4.93" transform="translate(-56.14 275.4) rotate(-45)"/><rect class="cls-5" x="308.72" y="168.34" width="13.56" height="51.99" rx="4.93" transform="translate(-45 280.01) rotate(-45)"/><path class="cls-4" d="M493.8,11.75,416.08,42.37A4,4,0,0,0,414.7,49l47.11,47.11a4.05,4.05,0,0,0,6.63-1.38L499.05,17A4,4,0,0,0,493.8,11.75Z"/><path class="cls-3" d="M438,134l-5.67-5.67a10.66,10.66,0,0,0-15.07,0l-11.64,11.64a24.87,24.87,0,0,1-35.17,0l-7.11-7.11a14.21,14.21,0,0,1,0-20.09l19.18-19.18a10.66,10.66,0,0,0,0-15.07l-5.67-5.66a5.05,5.05,0,0,1,1.72-8.28L479.46,24.79A5.05,5.05,0,0,1,486,31.34L446.28,132.22A5.05,5.05,0,0,1,438,134Z"/><rect class="cls-5" x="346" y="119.08" width="58.04" height="33.39" rx="8.77" transform="translate(205.85 -225.42) rotate(45)"/><rect class="cls-5" x="333.36" y="140.15" width="58.04" height="16.54" rx="7.43" transform="translate(211.09 -212.77) rotate(45)"/><path class="cls-4" d="M459.51,45.41,396.3,70.31a4.54,4.54,0,0,0-1.55,7.43l38.31,38.31a4.54,4.54,0,0,0,7.44-1.54L465.4,51.3A4.54,4.54,0,0,0,459.51,45.41Z"/><polygon class="cls-6" points="358.78 142.94 367.87 152.03 380.29 148.7 383.61 136.28 374.52 127.19 362.11 130.52 358.78 142.94"/></svg>