<svg xmlns="http://www.w3.org/2000/svg" viewBox="0 0 512 512" width="512" height="512">
	<style>
		tspan { white-space:pre }
		.shp0 { fill: #c71e1e } 
		.shp1 { fill: #b91d1d } 
		.shp2 { fill: #975327 } 
		.shp3 { fill: #ffc808 } 
		.shp4 { fill: #bd1c1c } 
	</style>
	<g id="Layer">
		<path id="Layer" class="shp0" d="M446.6 266.97L289.42 424.15L224.4 359.13L438.07 145.46L446.6 153.99C477.8 185.19 477.8 235.77 446.6 266.97L446.6 266.97Z" />
		<path id="Layer" class="shp1" d="M405.67 177.86L414.2 186.39C445.4 217.59 445.4 268.17 414.2 299.37L446.6 266.97C477.8 235.77 477.8 185.19 446.6 153.99L438.07 145.46L405.67 177.86Z" />
		<path id="Layer" class="shp2" d="M256.8 391.53L139.08 509.25C135.5 512.82 129.7 512.82 126.12 509.25L106.68 489.81C103.11 486.23 103.11 480.43 106.68 476.85L224.4 359.13L256.8 391.53Z" />
		<g id="Layer">
			<path id="Layer" class="shp3" d="M310.8 445.53C301.85 454.47 287.34 454.48 278.4 445.53L208.2 375.33L240.6 342.93L310.79 413.13C319.74 422.08 319.74 436.58 310.8 445.53Z" />
		</g>
	</g>
	<g id="Layer copy 6">
		<path id="Layer copy" class="shp0" d="M385.6 121.97L228.42 279.15L163.4 214.13L377.07 0.46L385.6 8.99C416.8 40.19 416.8 90.77 385.6 121.97L385.6 121.97Z" />
		<path id="Layer copy 2" class="shp4" d="M344.67 32.86L353.2 41.39C384.4 72.59 384.4 123.17 353.2 154.37L385.6 121.97C416.8 90.77 416.8 40.19 385.6 8.99L377.07 0.46L344.67 32.86Z" />
		<path id="Layer copy 3" class="shp2" d="M195.8 246.53L78.08 364.25C74.5 367.82 68.7 367.82 65.12 364.25L45.68 344.81C42.11 341.23 42.11 335.43 45.68 331.85L163.4 214.13L195.8 246.53Z" />
		<g id="Layer copy 5">
			<path id="Layer copy 4" class="shp3" d="M249.8 300.53C240.85 309.47 226.34 309.48 217.4 300.53L147.2 230.33L179.6 197.93L249.79 268.13C258.74 277.08 258.74 291.58 249.8 300.53Z" />
		</g>
	</g>
</svg>