<svg xmlns="http://www.w3.org/2000/svg" viewBox="0 0 512 512"><defs><style>.a{fill:#d7b51e;}.b{fill:#bd9a65;}.c{fill:#aeadb3;}.d{fill:#b8b7bd;}.e{fill:#c6aa2f;}.f{fill:#422c30;}.g{fill:#604046;}.h{fill:#c6c5cb;}.i{fill:#7e7c88;}.j{fill:#7e545d;}.k{fill:#c3c3c7;}.l{fill:#b79157;}.m{fill:#7a5230;}.n{fill:#815733;}</style></defs><title>armour_god_air_helmet</title><circle class="a" cx="386.49" cy="34.08" r="20.65"/><path class="b" d="M439.62,177.71l24.22-10.56L416,49.71,343.3,0,324,6.21,312.85,21.13Z"/><path class="c" d="M200.71,391.15l55.29,42,55.3-42-55.3.66Z"/><path class="d" d="M256,391.8v41.28l55.3-41.95Z"/><circle class="a" cx="121.79" cy="30.34" r="20.65"/><path class="b" d="M72.38,177.71,48.16,167.15,96,49.71,168.7,0,188,6.21l11.19,14.92Z"/><circle class="e" cx="45.05" cy="269.67" r="20.65"/><path class="f" d="M228,18.32V170.56H284V18.32H228Z"/><path class="g" d="M44.43,300.74,4,454.84l59.65,47.84L97.26,512l42.25-190.13Z"/><path class="d" d="M63,232.08l-8.08-34.8,32.62-90.09L169.16,18h57.12V271.06Z"/><path class="h" d="M97.74,223v41.3H211.09V62.15H185.17l-64.59,80Z"/><path class="i" d="M142.59,171.58c6.52,2.36,11.85,9.12,11.44,18.16v.06c-2.09,13.22-9.81,18.13-20.48,22.72,2.23,9.61,5.34,18.77,5.47,28.57h0a18.26,18.26,0,0,1-2.58,9.91l-3.7-2.35a14.09,14.09,0,0,0,1.89-7.55h0a48.82,48.82,0,0,0-.52-6.5c-.91-6.43-2.86-13-4.53-20.07-9,3-16.14,4.41-19.77,13.3a21.42,21.42,0,0,0-1.39,9.34l-4.38.32a25.85,25.85,0,0,1,1.69-11.28c4.22-9.92,13.66-13.27,22.69-16.05-2.79-8.41-8-19.72-3.95-30.61l0-.08,0-.06a14.25,14.25,0,0,1,18.11-7.84Zm-14.06,9.6c-3.14,8.47,1,18.41,3.82,27,9.13-3.94,16.45-9.2,17.29-18.67h0c.33-7.25-3.8-12.12-8.55-13.83-5.59-1.95-10.46,1.08-12.58,5.48Z"/><path class="i" d="M211.27,85.25l1.62,4.06L186.4,99.89a4.07,4.07,0,0,0-1.81,1.34c-5.81,6.66-5.88,15.23-6.36,23.26a61.48,61.48,0,0,1,13.36,8.4.92.92,0,0,0,1.08.25l19.61-4.29.93,4.28L192,137.76c-.89.14-1.1.15-1.65-.33a61.18,61.18,0,0,0-12.62-8.1c-.56,6.19-.2,12.9-1.54,18.34-3.89,15.73-18.27,15.68-24.18,6.56-6.54-10.09-6.1-25.48,1.35-31.29,6.65-4.47,14.22-3,20.65-.54.34-8.7,2.1-19.38,8-25a4.78,4.78,0,0,1,2-1.31Zm-55.37,41.3c-6.43,4.58-5.36,18.18-.46,24.87,4.05,5.53,14.69,6.33,16.48-4.59,1.2-7.29,1.34-13.54,1.69-20-6-2.61-12.7-3.33-17.71-.23Z"/><path class="i" d="M181.77,102.94c9.77,4.55,11.76,15.69,10,25-2.81,13.67-11.34,17.84-23.7,13.57,1,6,1.27,13-.3,18.31l0,.1,0,.12c-3.61,8.38-8.05,20.86-14.59,26.88l0,0,0,0c-4.23,3.66-9.35,5.19-14.1,6.91,2.39,4.58,4.89,9.32,6.18,14.65,1.38,6,1,12.38-1.72,17.4-4.19,7.06-14,10.63-20.61,7.6a19.6,19.6,0,0,1-9.67-24.91c4.17-8.92,12-13.48,20.14-16.79-3.67-7.06-7.37-17.18-5.27-23.92l9.54-25a17.35,17.35,0,0,1,6.28-8.43c6.51-3.66,12.94-1.88,18.89.6-.64-7.83-.8-16.12,1.33-22.35,2.55-7.69,9.95-12.69,17.67-9.74ZM180.13,107c-6.1-2.08-10.07,2.1-11.9,7.16-2.17,8-1.92,15.26-.8,22.46,10,4.65,18.13-.21,20.09-9.54,1.34-7.39.06-17-7.39-20.07Zm-33.85,31.1a13.3,13.3,0,0,0-4.6,6.36l-9.46,24.8c-1.49,7.61,2,14.44,5,20.59,4.77-1.75,9.54-3.3,13-6.24,4.87-4.49,9.75-16.65,13.43-25.19,1.72-6.53.81-12.49-.17-18.54l-.15,0c-5.24-2.2-11.85-5-17-1.72Zm-11.19,57.67c-7.45,2.89-14.82,7.53-17.87,14.51-2.76,8.32-.37,17.6,8.4,19.86a13.29,13.29,0,0,0,14-6.41c2.37-4.55,2.36-9.69,1.28-14.22s-3.48-9.16-5.85-13.73Z"/><path class="j" d="M246.68,11.49l-11,142.92-23.19,1.87-14.3-148Zm-205,197.72c4.75,80.11,2.18,97.41-13.93,106.13l141.81,29.9,2.24-89.57Z"/><path class="f" d="M92.93,355,63.88,480.84,17.78,448,49.13,335Z"/><path class="d" d="M115.34,430.76l2.26,4-8.08,34-31.37-6.83-67.58-43L19,387.48l2.77-.6-1.11,4.68,64.46,38.06,29.11,5.61Z"/><circle class="e" cx="98.8" cy="289.55" r="17.9"/><circle class="e" cx="466.96" cy="269.67" r="20.65"/><path class="f" d="M284,18.32H256V170.56h28Z"/><path class="d" d="M448.94,232.08l8.07-34.8L424.4,107.19,342.77,18H285.65V271.06Z"/><path class="h" d="M414.26,223v41.3H300.91V62.15h25.92l64.59,80Z"/><path class="i" d="M371.09,171.22c-6.51,2.35-11.85,9.12-11.43,18.16v.07c2.08,13.21,9.81,18.2,20.49,22.71-2.24,9.62-5.34,18.78-5.42,28.5h0a18.25,18.25,0,0,0,2.57,9.91l3.7-2.35a14,14,0,0,1-1.9-7.55h0a51.11,51.11,0,0,1,.51-6.51c.91-6.44,2.87-13,4.53-20.07,9,3,16.13,4.41,19.77,13.3a21.29,21.29,0,0,1,1.38,9.34l4.37.32A25.63,25.63,0,0,0,408,225.79c-4.21-9.92-13.67-13.28-22.69-16,2.79-8.41,8-19.79,4-30.6l-.07-.16a14.37,14.37,0,0,0-18.1-7.92Zm14.07,9.6c3.13,8.47-1,18.4-3.84,27-9.11-4-16.44-9.21-17.28-18.68h0c-.33-7.25,3.8-12.11,8.55-13.84,5.59-2,10.45,1.08,12.57,5.49ZM302.41,84.88,300.79,89l26.49,10.57a4.09,4.09,0,0,1,1.81,1.35c5.81,6.65,5.88,15.23,6.36,23.27a61.21,61.21,0,0,0-13.37,8.41.9.9,0,0,1-1.07.23l-19.62-4.29-.93,4.28,21.17,4.63c.89.14,1.09.16,1.64-.33A64,64,0,0,1,335.9,129c.56,6.19.2,12.9,1.55,18.34,3.89,15.73,18.26,15.68,24.17,6.57,6.54-10.08,6.1-25.49-1.34-31.29-6.65-4.43-14.24-3-20.58-.54-.35-8.69-2.11-19.39-8-25a4.84,4.84,0,0,0-2-1.31Zm55.37,41.32c6.43,4.57,5.36,18.18.46,24.85-4.05,5.55-14.69,6.34-16.49-4.59a173,173,0,0,1-1.68-20c6-2.61,12.7-3.34,17.71-.24Z"/><path class="i" d="M331.92,102.56c-9.77,4.55-11.76,15.7-10.05,25,2.81,13.68,11.34,17.84,23.7,13.58-1,6-1.27,13,.3,18.3l0,.11,0,.12c3.62,8.39,8.05,20.86,14.59,26.88l0,0,0,0c4.22,3.64,9.34,5.19,14.09,6.91-2.37,4.59-4.89,9.32-6.17,14.64-1.37,6-1.05,12.37,1.72,17.4,4.19,7.05,13.95,10.63,20.61,7.62a19.61,19.61,0,0,0,9.68-24.91c-4.18-8.93-12-13.48-20.15-16.79,3.69-7,7.37-17.17,5.27-23.92l-9.53-25a17.22,17.22,0,0,0-6.29-8.43c-6.5-3.67-12.93-1.88-18.89.6.63-7.84.81-16.12-1.33-22.35-2.53-7.69-10-12.69-17.65-9.74Zm1.63,4.07c6.1-2.08,10.07,2.1,11.91,7.16,2.17,8,1.91,15.27.79,22.45-10,4.66-18.21-.21-20.09-9.54-1.35-7.39-.06-17,7.39-20.07Zm33.86,31.11A13.2,13.2,0,0,1,372,144.1l9.46,24.8c1.49,7.61-1.94,14.43-5,20.58-4.78-1.76-9.54-3.3-13-6.26-4.86-4.49-9.75-16.65-13.42-25.19-1.73-6.53-.81-12.48.16-18.55,5.38-2.25,12-5,17.19-1.76Zm11.19,57.67c7.44,2.88,14.8,7.52,17.87,14.51,2.77,8.31.37,17.59-8.39,19.86A13.3,13.3,0,0,1,374,223.36c-2.37-4.55-2.35-9.69-1.28-14.22s3.48-9.16,5.86-13.73Z"/><path class="g" d="M467.57,300.74,508,454.84l-59.65,47.84L414.74,512,372.49,321.87Z"/><path class="f" d="M422.6,359.66l27.68,121.27,43.93-31.63-29.87-109Z"/><path class="d" d="M396.67,430.76l-2.26,4,8.07,34,31.38-6.83L501.44,419,493,387.63l-2.77-.6,1.11,4.68-64.47,38.06-29.1,5.61Z"/><path class="j" d="M470.33,209.21c-4.75,80.11-2.18,97.41,13.93,106.13l-141.81,29.9-2.24-89.57Z"/><circle class="e" cx="413.21" cy="289.55" r="17.9"/><path class="j" d="M265.31,11.49l11,142.92,23.19,1.87,14.31-148Z"/><path class="f" d="M256,160.62l-48.17,3.67L197,183.92,155.29,367.21l100.71,23,100.71-23L315,183.92l-10.86-19.63Z"/><path class="k" d="M251.21,308.39l-7.66-21a16.32,16.32,0,0,1-10,2.9l2.41,13.45Zm-6.32-25.3a21.36,21.36,0,0,0,2.26-2.77,23.7,23.7,0,0,0,3.5-8.82c1.63-8.5-.38-17.23-4.51-24.87a41.58,41.58,0,0,1-11.87,6.08c1.56,4.39,2.65,9.36,1.26,13.8a12.57,12.57,0,0,1-5,6.81,10,10,0,0,1-8.24,1.31,9.46,9.46,0,0,1-6-5.78,10.11,10.11,0,0,1,.79-8.37,4.52,4.52,0,0,1,1.13-1.54l-7.68-11.66a15.92,15.92,0,0,0-3.59,4.32,21.22,21.22,0,0,0-3.18,12.27A23.6,23.6,0,0,0,210,278.35a31.39,31.39,0,0,0,13.5,8.46,31,31,0,0,0,8.26,1.46,18.4,18.4,0,0,0,8.17-1.68,16.9,16.9,0,0,0,4.81-3.49Zm-18.38,17.73L197.33,272s1.35-25.41,5.2-35.43c3-5.3,7.45-10.17,12.48-11.17l-6.48-10.06a27.08,27.08,0,0,0-8.23,4.75,20.93,20.93,0,0,0-7,10.66,42.57,42.57,0,0,0-.9,6.76l-3.15,37.34,19.6,20.58Zm5.17-30.35a10,10,0,0,0,2.18-3.35l-3.46-6.44-16.59-29.31c-.53-1.08-.66-1.78-1.16-2.88-2.73,1.39-5.18,4-7.25,7,7.12,13,16.7,23.7,22.88,37.17a10.34,10.34,0,0,0,3.4-2.17Zm14-26.33a11.34,11.34,0,0,0,.83-1,27.74,27.74,0,0,0,3.88-23.23,36.7,36.7,0,0,0-2.95-7.68c-2.79,3.39-5.86,6.62-9.67,8.55a23.43,23.43,0,0,1-.24,8.61,11.15,11.15,0,0,1-3.85,7.65,15.44,15.44,0,0,1-8.14,3.75l-4.12,1,6.67,11.53c2.93-2,13-4.12,17.57-9.11Zm-12.57-8.64a13.93,13.93,0,0,0,2.24-3.17c-5.81-7.68-13.66-14.72-17.36-23.19a20.25,20.25,0,0,1-1-10.16c.54-2.95,1.35-5.55,3.33-7.68l-7.6-10.93a17,17,0,0,0-4.88,5.61,20.75,20.75,0,0,0-2.63,9.54,30.35,30.35,0,0,0,1.36,9.87,48.16,48.16,0,0,0,3.85,9.12l6.41,10,3.58,4.89,6.89,9.46a16.65,16.65,0,0,0,5.74-3.38ZM243,214.25a33.9,33.9,0,0,0,7.72-11.87,29.93,29.93,0,0,0-.79-20.21c-9.91-6.47-17.13-6.49-26.07-6.68l7.18,10.37c2.77-.25,5,.63,7.44,1.92,3.57,10.48-3.57,18.87-14.5,22.93l-2.62.77A86.89,86.89,0,0,0,228.7,222a26.71,26.71,0,0,0,4.67-1.3,25.05,25.05,0,0,0,9.62-6.33Zm-9.66-11.13c2-1.91,3.81-4.92,3.55-6.9-2.78-3.2-5.09-6.82-7.37-9.92L222.33,176a107.82,107.82,0,0,1-5.44-9.48,57.6,57.6,0,0,0-5.67,8.31l2.31,4.16.42.64,7.65,10.64,6.24,8.58,3.56,5.74a8.76,8.76,0,0,0,1.95-1.47Zm17.07-28.75.6-5.94L232,166.74a62.65,62.65,0,0,0,18.45,7.63Zm-43.6,39.83c-7.41-15.16-4.33-27.73,1.82-37.78l-7.28-8.23a56.48,56.48,0,0,0-3.82,9.26L195.06,190l-.16,1.92a69.94,69.94,0,0,0,3.6,27.26,19.73,19.73,0,0,1,8.32-4.95Z"/><path class="d" d="M261.37,309.79l7.66-21a16.38,16.38,0,0,0,10,2.91l-2.41,13.44Zm6.32-25.3a20.56,20.56,0,0,1-2.26-2.77,24,24,0,0,1-3.5-8.82c-1.62-8.5.38-17.22,4.51-24.87a41.63,41.63,0,0,0,11.88,6.08c-1.57,4.39-2.65,9.36-1.27,13.8a12.59,12.59,0,0,0,5,6.81,10,10,0,0,0,8.23,1.31,9.46,9.46,0,0,0,6.05-5.77,10.17,10.17,0,0,0-.79-8.38,4.42,4.42,0,0,0-1.14-1.54l7.68-11.66a16,16,0,0,1,3.6,4.32,21.22,21.22,0,0,1,3.18,12.27,23.68,23.68,0,0,1-6.29,14.48,31.36,31.36,0,0,1-13.51,8.46,31,31,0,0,1-8.25,1.46,18.37,18.37,0,0,1-8.17-1.68,17.08,17.08,0,0,1-4.82-3.49Zm18.38,17.73,29.17-28.81S313.9,248,310.05,238c-3-5.3-7.45-10.17-12.48-11.17L304,216.75a27.34,27.34,0,0,1,8.24,4.75,20.92,20.92,0,0,1,7,10.67,34.79,34.79,0,0,1,.9,6.75l3.15,37.34-19.6,20.58Zm-5.17-30.35a10.15,10.15,0,0,1-2.19-3.35l3.47-6.44,16.58-29.31c.53-1.08.67-1.78,1.17-2.88,2.73,1.39,5.18,4,7.25,7-7.13,13-16.7,23.7-22.88,37.16a10.18,10.18,0,0,1-3.4-2.17Zm-14-26.33c-.3-.33-.58-.68-.84-1a27.78,27.78,0,0,1-3.88-23.23,37.29,37.29,0,0,1,3-7.68c2.78,3.39,5.85,6.62,9.67,8.55a23.43,23.43,0,0,0,.24,8.61,11.14,11.14,0,0,0,3.84,7.65,15.47,15.47,0,0,0,8.15,3.75l4.12,1-6.67,11.53c-2.93-2-13-4.12-17.57-9.1Zm12.56-8.64a14.58,14.58,0,0,1-2.24-3.17c5.82-7.67,13.67-14.72,17.36-23.19a20,20,0,0,0,.95-10.16c-.53-2.95-1.34-5.54-3.32-7.68l7.6-10.93a16.85,16.85,0,0,1,4.87,5.61,20.77,20.77,0,0,1,2.64,9.55,30.49,30.49,0,0,1-1.36,9.86,48.71,48.71,0,0,1-3.85,9.12l-6.41,10-3.59,4.89-6.88,9.46a16.65,16.65,0,0,1-5.74-3.38Zm-9.86-21.25a33.9,33.9,0,0,1-7.72-11.87,29.93,29.93,0,0,1,.79-20.21c9.91-6.47,17.13-6.49,26.06-6.68l-7.18,10.37c-2.77-.25-5,.63-7.44,1.92-3.56,10.48,3.58,18.87,14.51,22.94l2.61.76a80.92,80.92,0,0,1-7.32,10.48,27.69,27.69,0,0,1-4.68-1.29,25.16,25.16,0,0,1-9.61-6.34Zm9.66-11.13c-2-1.91-3.82-4.92-3.55-6.9,2.77-3.2,5.09-6.82,7.36-9.92l7.21-10.29a107.82,107.82,0,0,0,5.44-9.48,58.42,58.42,0,0,1,5.67,8.31l-2.31,4.17-.42.63L291,191.69l-6.23,8.57L281.18,206a8.41,8.41,0,0,1-1.94-1.47Zm-17.08-28.75-.71-8,19.16.4a62.65,62.65,0,0,1-18.45,7.63Zm43.6,39.83c7.41-15.16,4.33-27.73-1.82-37.78l7.29-8.23a57.47,57.47,0,0,1,3.82,9.26l2.48,12.53.15,1.92a69.94,69.94,0,0,1-3.6,27.26,19.75,19.75,0,0,0-8.31-4.95Z"/><path class="j" d="M256,144.78,199.2,156l-11.54,13.31L140.21,378l116.23,26.92L371.79,378,324.34,169.33,312.8,156Zm0,25.79,44,3.34,9.92,17.93L348,359.26l-92,21-92-21,38.07-167.42L212,173.91Z"/><path class="j" d="M127.07,282.91c5.42,66.55-3.68,55.93-8.57,67.66l91.61,12.3V310.15Zm257.87,0c-5.42,66.55,3.67,55.93,8.57,67.66l-91.61,12.3V310.15Z"/><path class="l" d="M177,291.3l13.14,69.4L256,412l65.86-51.26L335,291.3,256,307Z"/><path class="b" d="M256,307V412l65.86-51.26L335,291.3Z"/><path class="m" d="M199.61,315.65,208.16,348,256,387.86,303.85,348l8.55-32.31L256,330.87Z"/><path class="n" d="M256,330.87v57L303.85,348l8.55-32.31Z"/><circle class="e" cx="255.8" cy="354.63" r="15.75"/></svg>