<svg xmlns="http://www.w3.org/2000/svg" viewBox="0 0 512 512"><defs><style>.a{fill:#795f71;}.b{fill:#2a1a17;}.c{fill:#483436;}.d{fill:#b09099;}.e{fill:#af74d7;}.f{fill:#554045;}.g{fill:#6a4682;}.h{fill:#6e5667;}.i{fill:#a37593;}.i,.u{fill-opacity:0.99;}.j{fill:#b2abaa;}.k{fill:#342f30;}.l{fill:#8a8484;}.m{fill:#948e8e;}.n{fill:#795961;}.o{fill:#84626a;}.p{fill:#cacace;}.q{fill:#3c2c2e;}.r{fill:#807a7a;}.s{fill:#795f72;}.t{fill:#a27493;}.u{fill:#aa809c;}</style></defs><title>armour_god_water_helmet</title><path class="a" d="M100.57,324.18l9,9.54-1-13.91-4,2.19Zm-11.87,76,34-27.28-8.12,31.62Z"/><path class="b" d="M155.34,193.88,132.52,279,228,444.4h56L379.47,279l-22.82-85.15L256,282.29Z"/><path class="c" d="M134.43,230.47c-23.51-6.16-47.18,2.42-65.91,14.21C29.21,171.83,32.25,82.13,40.38,74.45l8.7,40.86,47.22,49L124.81,153Z"/><path class="d" d="M40.38,74.45C45,131.2,61.64,199,124.81,153,81.6,169.29,47.57,91.76,40.38,74.45Z"/><path class="e" d="M166.06,209.58c-.32,2.25-26.32,79.29-26.32,79.29L133.05,285l25.3-80.56Z"/><path class="f" d="M159.31,214.4l-24.39,79L94.47,303.63l33.71-103.35Z"/><path class="g" d="M104.1,318.07c.64,1.61,18.62,54.89,18.62,54.89L110.2,400.24l108.5,72.22-2.57-119.4L142,303.31l-18.93,7.38Z"/><path class="h" d="M237.63,512l13.81-40.77L240.85,318.07,165,281.89l-28.78-1.38L225.93,342Z"/><path class="i" d="M175.65,321.39l.45,128.7L138.65,424,143,306.64Z"/><path class="j" d="M126.57,119.71l88.28,121L256,246.66l41.16-5.94,88.27-121L309,124.2,256,240.08,203,124.21Z"/><path class="k" d="M149,175.52c-19.6-3.49-49.81,5.92-63.93,12.33,18.15,17.88,74.18,58.22,81.49,14.48,3.21-17-5-24.57-17.55-26.8Z"/><path class="e" d="M146.3,181.19c-15.61-2.78-39.54,3.92-50.8,8.52,14.6,13.45,59.55,43.94,64.93,11.53,2.38-12.61-4.2-18.29-14.21-20.07Z"/><path class="l" d="M215.88,255.65,203.6,272.82l-67.08-82.17,4.49-27,15.73-11.55,60,79.28Z"/><path class="m" d="M136.53,190.65l20.22-38.52-30.56-46.71-18.23,38Z"/><path class="n" d="M256,0,211.32,49.41l38.3,35.4L256,35l6.39,49.86,38.29-35.39Z"/><path class="c" d="M143.91,35.93C114.22,47.44,104,71.38,95.76,96.6c20.95,2,31.45,13.9,41.76,26l50.85,28.6L256,86.25,211.32,49.41c-1,43.23-114.1,34.72-67.4-13.48Z"/><path class="d" d="M143.91,35.93C81.45,87,216.22,96.81,211.31,49.41A63,63,0,0,1,201,61.9c-1,.93-2.05,1.83-3.12,2.69A52.93,52.93,0,0,1,193.07,68C162.82,87.26,124.78,68.37,143.91,35.93Z"/><path class="o" d="M256,35c-10.89,30.55-28.85,62.66-47.35,86l15.66,18.14L256,89.2l31.68,49.85,15.67-18.14c-18.5-23.35-36.47-55.4-47.34-86Z"/><path class="c" d="M228.55,204.93l-65.71-49.59c6.42,0,21.84-9.7,21.84-9.7l34.09,27.19Z"/><path class="c" d="M256,169l10.18,33-10.18,29-10.19-29Zm0,0-36.83,21.51c5.67,14.93,19.38,33.38,36.83,49.59,17.44-16.21,31.15-34.66,36.82-49.59Z"/><path class="o" d="M225,190.32c4.8,14.8,17.16,28.54,31,40.61,13.87-12.07,26.18-25.81,31-40.61l-14.65,1L256,225.63,239.66,191.3Z"/><path class="k" d="M231,136.72c-12.75-18.67-44.41-35.67-60.85-42-.06,28.93,11.81,106.46,53.09,77.59,16.36-10.95,15.95-23.59,7.77-35.55Z"/><path class="e" d="M224.31,139.06c-10.16-14.87-34.63-28.94-47.32-34.41.71,22.54,11.74,83.24,42.3,61.82,12.12-8.1,11.49-18,5-27.49Z"/><path class="c" d="M256,89.2c-17.17,14.23-45.24,48.52-45.69,72.79-.59,12.62,8.5,18.5,18.72,21.16L256,96l27,87.19c10.22-2.65,19.31-8.54,18.72-21.16C301.24,137.72,273.17,103.42,256,89.2Z"/><path class="o" d="M256,96c-15.93,11.7-37,41.74-43.47,64.84.31,10,7.51,15.79,16,19.19L256,105.1,283.51,180c8.45-3.4,15.65-9.22,16-19.19C293,137.69,271.93,107.64,256,96Z"/><path class="p" d="M256,105.1l-20.94,24.25-3.38,24.87,6.17-.45L256,112.66l18.16,41.11,6.16.45L277,129.35Z"/><path class="g" d="M256,112.64l-17.16,19.28-3.13,29.19L256,150.19l20.28,10.92-3.13-29.19Z"/><path class="q" d="M254.07,193.86v-19H209.8l-.68,17.36Z"/><path class="p" d="M233.78,182.62l1.29,19.26L256,225.63l20.93-23.75,1.29-19.26-15,7.48L256,219.53l-7.26-29.43Z"/><path class="g" d="M237.84,185.11l.8,14.41,17.36,20,17.36-20,.8-14.41-11.1,6.72-7.06,8.3-7.06-8.3Z"/><path class="p" d="M220.94,164.48l3.7,15.57L256,200.11l31.36-20.06,3.7-15.57-12,5.62L256,193.86l-23.1-23.76Z"/><path class="g" d="M227.29,162.08l1.83,14.57L256,193.86l26.88-17.21,1.83-14.57L256,169Z"/><path class="q" d="M256,150.2l-46.62,1.13V169h93.23V151.34Z"/><path class="r" d="M216.77,231.41l-13.16,41.41L256,282.29l52.39-9.47-13.16-41.41L256,246.67Z"/><path class="s" d="M165,281.91l-28.78-1.39,89.72,61.53,14.92-24Z"/><path class="a" d="M411.43,324.18l-9,9.54,1-13.91,3.95,2.19Zm11.87,76-34-27.28,8.12,31.62Z"/><path class="b" d="M256,444.41h28L379.47,279l-22.82-85.15L256,282.3Z"/><path class="c" d="M377.57,230.47c23.51-6.16,47.18,2.42,65.91,14.21,39.31-72.85,36.27-162.55,28.14-170.23l-8.7,40.86-47.22,49L387.19,153Z"/><path class="d" d="M471.63,74.45C467,131.2,450.36,199,387.19,153,430.4,169.29,464.44,91.76,471.63,74.45Z"/><path class="e" d="M346,209.58c.32,2.25,26.32,79.29,26.32,79.29L379,285l-25.31-80.56Z"/><path class="f" d="M352.69,214.4l24.39,79,40.45,10.27-33.7-103.35Z"/><path class="g" d="M407.9,318.07c-.64,1.61-18.62,54.89-18.62,54.89l12.52,27.28L293.31,472.46l2.56-119.4L370,303.31,389,310.69Z"/><path class="h" d="M274.37,512l-13.8-40.77,10.59-153.11L347,281.89l28.78-1.38L286.08,342Z"/><path class="t" d="M336.35,321.39l-.45,128.7L373.35,424,369,306.64Z"/><path class="j" d="M256,246.66l41.15-5.94,88.28-121L309,124.2,256,240.08Z"/><path class="k" d="M363,175.52c19.6-3.49,49.81,5.92,63.93,12.33-18.15,17.88-74.18,58.22-81.49,14.48-3.2-17,5-24.57,17.55-26.8Z"/><path class="e" d="M365.7,181.19c15.61-2.78,39.54,3.92,50.8,8.52-14.6,13.45-59.55,43.94-64.93,11.53-2.38-12.61,4.2-18.29,14.21-20.07Z"/><path class="l" d="M296.13,255.65l12.27,17.17,67.09-82.17-4.49-27-15.73-11.55-60,79.28Z"/><path class="m" d="M375.48,190.65l-20.22-38.52,30.56-46.71,18.23,38Z"/><path class="n" d="M256,0V35l6.39,49.86,38.29-35.39Z"/><path class="c" d="M368.09,35.93C397.78,47.44,408,71.38,416.24,96.6c-20.95,2-31.45,13.9-41.76,26l-50.85,28.6L256,86.25l44.69-36.84c1,43.23,114.1,34.72,67.4-13.48Z"/><path class="d" d="M368.09,35.93c62.46,51.08-72.31,60.88-67.4,13.48A63,63,0,0,0,311,61.9c1,.93,2,1.83,3.12,2.69A52.93,52.93,0,0,0,318.93,68C349.18,87.26,387.22,68.37,368.09,35.93Z"/><path class="o" d="M303.34,120.91c-18.5-23.35-36.45-55.4-47.34-86V89.2l31.69,49.85Z"/><path class="c" d="M283.45,204.93l65.71-49.59c-6.42,0-21.84-9.7-21.84-9.7l-34.09,27.19Z"/><path class="c" d="M256,240.08v-9.14l10.18-29L256,169l36.82,21.51c-5.67,14.93-19.38,33.38-36.82,49.59Z"/><path class="o" d="M256,230.93v-5.29l16.33-34.33,14.65-1c-4.8,14.8-17.16,28.54-31,40.61Z"/><path class="k" d="M281,136.72c12.75-18.67,44.42-35.67,60.85-42,.06,28.93-11.8,106.46-53.09,77.59-16.36-10.95-15.94-23.59-7.77-35.55Z"/><path class="e" d="M287.69,139.06c10.17-14.87,34.64-28.94,47.32-34.41-.7,22.54-11.74,83.24-42.3,61.82-12.12-8.1-11.49-18-5-27.49Z"/><path class="c" d="M256,89.2V96l27,87.18c10.22-2.65,19.31-8.53,18.72-21.16-.45-24.27-28.52-58.57-45.68-72.78Z"/><path class="o" d="M256,96v9.14L283.51,180c8.45-3.4,15.65-9.22,16-19.19C293,137.68,271.93,107.63,256,95.94Z"/><path class="p" d="M256,105.1v7.55l18.16,41.12,6.16.45L277,129.34Z"/><path class="g" d="M256,112.64V150.2l20.28,10.91-3.13-29.19Z"/><path class="q" d="M257.93,193.86v-19H302.2l.68,17.36Z"/><path class="p" d="M263.26,190.1,256,219.53v6.1l20.93-23.75,1.29-19.26Z"/><path class="g" d="M263.06,191.82,256,200.11v19.42l17.36-20,.8-14.42Z"/><path class="p" d="M256,200.12v-6.27L279.1,170.1l12-5.62L287.37,180Z"/><path class="g" d="M256,193.86V169l28.71-6.9-1.83,14.57Z"/><path class="q" d="M256,150.2V169h46.61V151.33Z"/><path class="r" d="M256,246.66v35.63l52.38-9.47-13.16-41.41Z"/><path class="s" d="M347,281.91l28.78-1.39-89.72,61.53-14.92-24Z"/><path class="u" d="M110.15,400.3H88.64L237.58,512l-6.09-178.79-95.33-52.64L91.22,302.08l9.31,22.15,43.65-13.8,67.73,44.3,2.57,110.09Zm291.6,0h21.51L274.32,512l6.1-178.79,95.34-52.64,44.94,21.51-9.31,22.15-43.66-13.8L300,354.73l-2.57,110.09Z"/></svg>