<svg xmlns="http://www.w3.org/2000/svg" viewBox="0 0 512 513" width="512" height="513">
	<style>
		tspan { white-space:pre }
		.shp0 { fill: #a7a7a7 } 
		.shp1 { fill: #b4b4b4 } 
		.shp2 { fill: #82888b } 
		.shp3 { fill: #676f72 } 
	</style>
	<path id="Layer" class="shp0" d="M249.56 411L117.39 411C113.43 411 110.23 407.79 110.23 403.85C110.23 401.95 110.99 400.12 112.33 398.78L159.45 351.77C169.34 341.9 182.76 336.36 196.74 336.36L249.56 336.36L249.56 411Z" />
	<path id="Layer" class="shp1" d="M212.24 448.33L212.24 505.85C212.24 509.8 215.45 513 219.39 513C221.3 513 223.11 512.25 224.46 510.9L271.46 463.79C281.34 453.89 286.89 440.48 286.89 426.49L286.89 373.67L212.24 448.33Z" />
	<path id="Layer" class="shp2" d="M441.68 144.23L174.89 411C175.18 431.52 191.78 448.04 212.24 448.33L479 181.56L441.68 144.23Z" />
	<path id="Layer" class="shp3" d="M460.34 162.89L441.68 144.23L174.89 411C175.18 431.52 191.78 448.04 212.24 448.33L223.34 437.23C213.03 426.92 213.03 410.2 223.34 399.89L460.34 162.89Z" />
	<path id="Layer copy" class="shp0" d="M270.59 102.07L402.84 102.07C406.8 102.07 410 105.27 410 109.22C410 111.12 409.24 112.95 407.9 114.29L360.75 161.33C350.85 171.21 337.43 176.75 323.44 176.75L270.59 176.75L270.59 102.07Z" />
	<path id="Layer copy 2" class="shp1" d="M307.92 64.71L307.92 7.15C307.92 3.2 304.72 0 300.77 0C298.86 0 297.04 0.75 295.7 2.1L248.66 49.24C238.79 59.15 233.23 72.57 233.23 86.56L233.23 139.41L307.92 64.71Z" />
	<path id="Layer copy 3" class="shp2" d="M78.35 369L345.3 102.07C345.01 81.53 328.4 65 307.92 64.71L41 331.64L78.35 369Z" />
	<path id="Layer copy 4" class="shp3" d="M59.67 350.33L78.35 369L345.3 102.07C345.01 81.53 328.4 65 307.92 64.71L296.82 75.82C307.14 86.14 307.14 102.86 296.82 113.18L59.67 350.33Z" />
	<g id="Layer">
	</g>
</svg>