<svg xmlns="http://www.w3.org/2000/svg" viewBox="0 0 512 512" width="512" height="512">
	<style>
		tspan { white-space:pre }
		.shp0 { fill: #1d7b9b } 
		.shp1 { fill: #1a6883 } 
	</style>
	<path id="Layer" class="shp0" d="M506.98 473.89C466.87 423.05 436.93 364.39 418.01 299.54C389.21 200.86 311.32 122.83 212.45 93.98C147.6 75.06 88.94 45.12 38.11 5.01C27.98 -2.98 13.3 -1.26 5.3 8.88C-2.69 19.01 -0.95 33.7 9.17 41.69C64.75 85.53 128.74 118.21 199.37 138.82C282.76 163.16 348.79 229.09 373.16 312.62C393.77 383.25 426.46 447.25 470.3 502.82C478.29 512.95 492.98 514.68 503.11 506.69C513.23 498.7 514.97 484.01 506.98 473.89Z" />
	<path id="Layer" class="shp1" d="M493.21 483.38C449.37 427.81 416.69 363.82 396.08 293.18C371.65 209.47 305.46 143.67 222.28 119.38C151.65 98.77 87.65 66.09 32.08 22.25C25.14 16.77 22.16 8.15 23.53 0.01C16.68 0.05 9.89 3.08 5.3 8.88C-2.69 19.01 -0.95 33.7 9.17 41.69C64.75 85.53 128.74 118.21 199.37 138.82C282.76 163.16 348.79 229.09 373.17 312.62C393.79 383.25 426.46 447.25 470.3 502.82C482.9 518.78 508.31 512 511.66 492.25C504.71 492.28 497.84 489.25 493.21 483.38Z" />
</svg>