<svg xmlns="http://www.w3.org/2000/svg" viewBox="0 0 512 512" width="512" height="512">
	<style>
		tspan { white-space:pre }
		.shp0 { fill: #1d2b9b } 
		.shp1 { fill: #1a278f } 
	</style>
	<g id="Layer">
		<path id="Layer" class="shp0" d="M403.17 214.9C399.31 211.05 393.45 210.03 388.49 212.34L288.68 259.12C287.32 259.76 286.06 260.64 284.99 261.72L180.01 367.25C177.58 369.68 176.22 372.99 176.24 376.44C176.24 379.89 177.62 383.19 180.06 385.62L233.62 438.9C236.16 441.42 239.47 442.68 242.78 442.68C246.13 442.68 249.45 441.42 251.99 438.87L356.98 333.34C358.03 332.25 358.91 330.99 359.55 329.61L405.79 229.56C408.09 224.61 407.04 218.74 403.17 214.9L403.17 214.9Z" />
	</g>
	<path id="Layer" class="shp0" d="M279 447.4L171.34 340.29C166.25 335.22 158.02 335.26 152.95 340.33L110.78 382.74C108.36 385.17 107 388.48 107 391.93C107 395.38 108.38 398.68 110.83 401.11L218.49 508.21C220.93 510.64 224.22 512 227.65 512L227.69 512C231.14 511.98 234.43 510.6 236.86 508.17L279.05 465.77C284.11 460.69 284.07 452.46 279 447.4L279 447.4Z" />
	<path id="Layer" class="shp1" d="M403.17 214.9C399.31 211.05 393.45 210.03 388.49 212.34L367.02 222.42C367.33 224.8 367.02 227.28 365.97 229.56L319.71 329.61C319.09 330.99 318.21 332.25 317.14 333.32L222.81 428.16L233.62 438.9C236.16 441.42 239.47 442.68 242.78 442.68C246.13 442.68 249.45 441.4 251.99 438.87L356.98 333.32C358.03 332.25 358.91 330.99 359.55 329.61L405.79 229.56C408.09 224.61 407.04 218.74 403.17 214.9L403.17 214.9Z" />
	<path id="Layer" class="shp1" d="M279 447.4L171.34 340.29C166.25 335.22 158.02 335.26 152.95 340.33L142.31 351.05L239.16 447.4C244.25 452.46 244.26 460.69 239.21 465.77L207.7 497.46L218.49 508.22C220.93 510.64 224.24 512 227.65 512L227.69 512C231.14 511.98 234.45 510.6 236.86 508.17L279.05 465.77C284.11 460.69 284.07 452.46 279 447.4L279 447.4Z" />
	<g id="Layer copy 2">
		<path id="Layer copy" class="shp0" d="M350.17 3.9C346.31 0.05 340.45 -0.97 335.49 1.34L235.68 48.12C234.32 48.76 233.06 49.64 231.99 50.72L127.01 156.25C124.58 158.68 123.22 161.99 123.24 165.44C123.24 168.89 124.62 172.19 127.06 174.62L180.62 227.9C183.16 230.42 186.47 231.68 189.78 231.68C193.13 231.68 196.45 230.42 198.99 227.87L303.98 122.34C305.03 121.25 305.91 119.99 306.55 118.61L352.79 18.56C355.09 13.61 354.04 7.74 350.17 3.9L350.17 3.9Z" />
	</g>
	<path id="Layer copy 3" class="shp0" d="M226 236.4L118.34 129.29C113.25 124.22 105.02 124.26 99.95 129.33L57.78 171.74C55.36 174.17 54 177.48 54 180.93C54 184.38 55.38 187.68 57.83 190.11L165.49 297.21C167.93 299.64 171.22 301 174.65 301L174.69 301C178.14 300.98 181.43 299.6 183.86 297.17L226.05 254.77C231.11 249.69 231.07 241.46 226 236.4L226 236.4Z" />
	<path id="Layer copy 4" class="shp1" d="M350.17 3.9C346.31 0.05 340.45 -0.97 335.49 1.34L314.02 11.42C314.33 13.8 314.02 16.28 312.97 18.56L266.71 118.61C266.09 119.99 265.21 121.25 264.14 122.32L169.81 217.16L180.62 227.9C183.16 230.42 186.47 231.68 189.78 231.68C193.13 231.68 196.45 230.4 198.99 227.87L303.98 122.32C305.03 121.25 305.91 119.99 306.55 118.61L352.79 18.56C355.09 13.61 354.04 7.74 350.17 3.9L350.17 3.9Z" />
	<path id="Layer copy 5" class="shp1" d="M226 236.4L118.34 129.29C113.25 124.22 105.02 124.26 99.95 129.33L89.31 140.05L186.16 236.4C191.25 241.46 191.26 249.69 186.21 254.77L154.7 286.46L165.49 297.22C167.93 299.64 171.24 301 174.65 301L174.69 301C178.14 300.98 181.45 299.6 183.86 297.17L226.05 254.77C231.11 249.69 231.07 241.46 226 236.4L226 236.4Z" />
</svg>