<svg xmlns="http://www.w3.org/2000/svg" viewBox="0 0 387 387" width="387" height="387">
	<style>
		tspan { white-space:pre }
		.shp0 { fill: #796552 } 
		.shp1 { fill: #8c7560 } 
		.shp2 { fill: #6b5948 } 
	</style>
	<g id="Layer">
		<g id="Layer">
			<path id="Layer" class="shp0" d="M83.74 23.49L303.24 23.49L303.24 121.49L83.74 121.49L83.74 23.49Z" />
			<path id="Layer" class="shp1" d="M368.74 147.49L368.74 379.49L18.24 379.49L18.24 147.49C49.44 147.49 74.74 122.19 74.74 90.99L74.74 7.49L126.22 7.49C126.22 42.5 152.97 71.27 187.15 74.46C189.24 74.66 191.35 74.76 193.49 74.76C195.63 74.76 197.74 74.66 199.83 74.46C234.01 71.27 260.76 42.5 260.76 7.49L312.24 7.49L312.24 90.99C312.24 122.19 337.54 147.49 368.74 147.49Z" />
			<path id="Layer" class="shp0" d="M187.15 74.46L60.34 379.49L199.83 379.49L187.15 74.46Z" />
			<path id="Layer" class="shp0" d="M199.83 74.46L199.83 379.49L187.15 379.49L187.15 74.46C189.24 74.66 191.35 74.76 193.49 74.76C195.63 74.76 197.74 74.66 199.83 74.46Z" />
			<path id="Layer" class="shp2" d="M240.76 235.73L146.22 235.73C139.61 235.73 134.24 230.36 134.24 223.75L134.24 201.21C134.24 194.59 139.61 189.23 146.22 189.23L240.76 189.23C247.37 189.23 252.74 194.59 252.74 201.21L252.74 223.75C252.74 230.36 247.37 235.73 240.76 235.73Z" />
			<path id="Layer" class="shp2" d="M240.76 322.72L146.22 322.72C139.61 322.72 134.24 317.36 134.24 310.74L134.24 288.2C134.24 281.59 139.61 276.22 146.22 276.22L240.76 276.22C247.37 276.22 252.74 281.59 252.74 288.2L252.74 310.74C252.74 317.36 247.37 322.72 240.76 322.72Z" />
			<path id="Layer" class="shp0" d="M368.74 147.49L264.33 379.49L368.74 379.49L368.74 147.49Z" />
			<path id="Layer" class="shp2" d="M52.08 235.73L9.42 235.73C4.22 235.73 0 231.51 0 226.31L0 198.65C0 193.44 4.22 189.23 9.42 189.23L52.08 189.23C57.28 189.23 61.5 193.45 61.5 198.65L61.5 226.31C61.5 231.51 57.28 235.73 52.08 235.73Z" />
			<path id="Layer" class="shp2" d="M52.08 322.72L9.42 322.72C4.22 322.72 0 318.5 0 313.3L0 285.64C0 280.44 4.22 276.22 9.42 276.22L52.08 276.22C57.28 276.22 61.5 280.44 61.5 285.64L61.5 313.3C61.5 318.5 57.28 322.72 52.08 322.72Z" />
			<path id="Layer" class="shp2" d="M377.56 235.73L334.9 235.73C329.7 235.73 325.48 231.51 325.48 226.31L325.48 198.65C325.48 193.44 329.7 189.23 334.9 189.23L377.56 189.23C382.76 189.23 386.98 193.45 386.98 198.65L386.98 226.31C386.98 231.51 382.76 235.73 377.56 235.73Z" />
			<path id="Layer" class="shp2" d="M377.56 322.72L334.9 322.72C329.7 322.72 325.48 318.5 325.48 313.3L325.48 285.64C325.48 280.44 329.7 276.22 334.9 276.22L377.56 276.22C382.76 276.22 386.98 280.44 386.98 285.64L386.98 313.3C386.98 318.5 382.76 322.72 377.56 322.72Z" />
			<path id="Layer" class="shp2" d="M168.74 189.23L218.24 189.23L218.24 235.73L168.74 235.73L168.74 189.23Z" />
			<path id="Layer" class="shp2" d="M168.74 276.22L218.24 276.22L218.24 322.72L168.74 322.72L168.74 276.22Z" />
		</g>
	</g>
</svg>