<svg xmlns="http://www.w3.org/2000/svg" viewBox="0 0 512 512" width="512" height="512">
	<style>
		tspan { white-space:pre }
		.shp0 { fill: #796552 } 
		.shp1 { fill: #6b5948 } 
	</style>
	<g id="Layer">
		<path id="Layer" class="shp0" d="M457.02 367.42C435.32 334.29 423.85 295.76 423.85 256C423.85 216.24 435.32 177.71 457.02 144.58L463.11 135.29L408.63 69.9L399.76 71.8C394.98 72.83 390.1 73.35 385.26 73.35C350.62 73.35 321.28 47.47 316.99 13.14L315.35 0L196.64 0L195 13.14C190.72 47.47 161.37 73.35 126.74 73.35C121.89 73.35 117.01 72.83 112.24 71.8L103.37 69.91L48.89 135.29L54.97 144.58C76.67 177.71 88.14 216.24 88.14 256C88.14 295.76 76.67 334.29 54.97 367.42L48.82 376.82L106.59 444.67L115 443.23C121.04 442.19 127.21 441.67 133.33 441.67C174.78 441.67 213.02 465.9 230.74 503.41L234.8 512L277.2 512L281.26 503.41C298.98 465.9 337.22 441.67 378.67 441.67C384.79 441.67 390.96 442.19 397 443.23L405.41 444.67L463.18 376.82L457.02 367.42Z" />
		<path id="Layer" class="shp1" d="M457.02 367.42C435.32 334.29 423.85 295.76 423.85 256C423.85 216.24 435.32 177.71 457.02 144.58L463.11 135.29L408.63 69.9L399.76 71.8C394.98 72.83 390.1 73.35 385.26 73.35C350.62 73.35 321.28 47.47 316.99 13.14L315.35 0L256 0L256 512L277.2 512L281.26 503.41C298.98 465.9 337.21 441.67 378.66 441.67C384.79 441.67 390.95 442.19 396.99 443.23L405.41 444.67L463.18 376.82L457.02 367.42Z" />
	</g>
</svg>