<svg xmlns="http://www.w3.org/2000/svg" viewBox="0 0 513 513" width="513" height="513">
	<style>
		tspan { white-space:pre }
		.shp0 { fill: #1406b1 } 
		.shp1 { fill: #1508a1 } 
		.shp2 { fill: #766e6e } 
		.shp3 { fill: #5b5555 } 
		.shp4 { fill: #a15f12 } 
		.shp5 { fill: #96570e } 
		.shp6 { fill: #fff7cc } 
		.shp7 { fill: #ffe6b3 } 
	</style>
	<path id="Layer" class="shp0" d="M256.01 0.02C180.41 0.02 121.01 112.92 121.01 256.02C121.01 399.12 180.41 512.02 256.01 512.02C331.61 512.02 391.01 399.12 391.01 256.02C391.01 112.92 331.61 0.02 256.01 0.02L256.01 0.02Z" />
	<path id="Layer" class="shp1" d="M391.01 256.02C391.01 399.12 331.61 512.02 256.01 512.02L256.01 0.02C331.61 0.02 391.01 112.92 391.01 256.02L391.01 256.02Z" />
	<path id="Layer" class="shp2" d="M256.01 60.02C233.12 60.02 201.31 106.85 187.68 181.02L214.76 196.02L256.01 196.02L301.63 196.02L324.33 181.02C310.71 106.85 278.9 60.02 256.01 60.02L256.01 60.02Z" />
	<path id="Layer" class="shp3" d="M324.33 181.02C310.71 106.85 278.9 60.02 256.01 60.02L256.01 196.02L301.63 196.02L324.33 181.02Z" />
	<path id="Layer" class="shp2" d="M305.38 316.02L256.01 316.02L216.01 316.02L187.68 331.02C201.31 405.19 233.12 451.02 256.01 451.02C278.9 451.02 310.71 405.19 324.34 331.02L305.38 316.02Z" />
	<path id="Layer" fill-rule="evenodd" class="shp3" d="M324.33 331.02L305.38 316.02L256.01 316.02L256.01 451.02C278.9 451.02 310.71 405.19 324.33 331.02ZM258.88 421.53L259.17 421.53L258.88 421.53Z" />
	<path id="Layer" class="shp4" d="M315.5 250.02L330.48 234.28C330.09 226.28 329.44 218.57 328.65 211.02L306.01 196.02L256.01 196.02L208.51 196.02L183.37 211.02C182.58 218.57 181.93 226.28 181.54 234.28L190.52 256.02L181.5 276.73C181.89 285.08 182.54 293.15 183.36 301.02L207.26 316.02L256.01 316.02L306.63 316.02L328.65 301.02C329.47 293.15 330.12 285.08 330.51 276.73L315.5 250.02Z" />
	<path id="Layer" class="shp5" d="M328.65 301.02C329.48 293.15 330.13 285.08 330.51 276.73L315.5 250.02L330.48 234.28C330.09 226.28 329.44 218.57 328.65 211.02L306.01 196.02L256.01 196.02L256.01 316.02L306.63 316.02L328.65 301.02Z" />
	<path id="Layer" class="shp6" d="M271.01 361.02C271.01 369.42 264.41 376.02 256.01 376.02C247.61 376.02 241.01 369.42 241.01 361.02C241.01 352.62 247.61 346.02 256.01 346.02C264.41 346.02 271.01 352.62 271.01 361.02Z" />
	<path id="Layer" class="shp6" d="M271.01 150.02C271.01 158.42 264.41 165.02 256.01 165.02C247.61 165.02 241.01 158.42 241.01 150.02C241.01 141.62 247.61 135.02 256.01 135.02C264.41 135.02 271.01 141.62 271.01 150.02Z" />
	<path id="Layer" class="shp4" d="M324.33 181.02L256.01 181.02L187.68 181.02C185.93 190.57 184.46 200.56 183.37 211.02L256.01 211.02L328.65 211.02C327.56 200.56 326.09 190.57 324.34 181.02L324.33 181.02Z" />
	<path id="Layer" class="shp5" d="M324.33 181.02L256.01 181.02L256.01 211.02L328.65 211.02C327.56 200.56 326.09 190.57 324.34 181.02L324.33 181.02Z" />
	<path id="Layer" class="shp4" d="M256.01 301.02L183.37 301.02C184.46 311.48 185.93 321.46 187.68 331.02L256.01 331.02L324.34 331.02C326.09 321.46 327.56 311.48 328.65 301.02L256.01 301.02Z" />
	<path id="Layer" class="shp5" d="M328.65 301.02L256.01 301.02L256.01 331.02L324.34 331.02C326.09 321.47 327.56 311.48 328.65 301.02Z" />
	<g id="Layer">
		<path id="Layer" class="shp7" d="M271.01 361.02C271.01 369.42 264.41 376.02 256.01 376.02L256.01 346.02C264.41 346.02 271.01 352.62 271.01 361.02Z" />
		<path id="Layer" class="shp7" d="M256.01 165.02L256.01 135.02C264.41 135.02 271.01 141.62 271.01 150.02C271.01 158.42 264.41 165.02 256.01 165.02Z" />
	</g>
</svg>