<svg xmlns="http://www.w3.org/2000/svg" viewBox="0 0 512 512" width="512" height="512">
	<style>
		tspan { white-space:pre }
		.shp0 { fill: #725d57 } 
		.shp1 { fill: #53433f } 
		.shp2 { fill: #c7a47d } 
		.shp3 { fill: #c69c6d } 
		.shp4 { fill: #7f736f } 
		.shp5 { fill: #746966 } 
		.shp6 { fill: #c28f55 } 
		.shp7 { fill: #9e7d5d } 
		.shp8 { fill: #8cc63f } 
		.shp9 { fill: #736357 } 
	</style>
	<path id="Layer" class="shp0" d="M30 196L482 196L482 466L30 466L30 196Z" />
	<path id="Layer" class="shp1" d="M256 196L482 196L482 466L256 466L256 196Z" />
	<path id="Layer" fill-rule="evenodd" class="shp2" d="M512 196L512 481C512 489.4 505.4 496 497 496L15 496C6.6 496 0 489.4 0 481L0 196L30 166L482 166L512 196ZM452 256L60 256L60 436L226 436L226 286L286 286L286 436L452 436L452 256Z" />
	<path id="Layer" class="shp3" d="M256 166L256 256L452 256L452 436L286 436L286 286L256 286L256 496L497 496C505.4 496 512 489.4 512 481L512 196L482 166L256 166Z" />
	<path id="Layer" class="shp0" d="M30 46L482 46L482 166L30 166L30 46Z" />
	<path id="Layer" class="shp1" d="M256 46L482 46L482 166L256 166L256 46Z" />
	<path id="Layer" class="shp4" d="M363 185L363 334.1C363 392.89 315.29 440.6 256.5 440.6C197.71 440.6 150 392.89 150 334.1L150 185L363 185Z" />
	<path id="Layer" class="shp5" d="M363 185L363 334.1C363 392.89 315.29 440.6 256.5 440.6L256.5 185L363 185Z" />
	<path id="Layer" class="shp3" d="M497 16L467 16C458.72 16 452 22.72 452 31L452 136L286 136L286 31C286 22.6 279.4 16 271 16L241 16C232.6 16 226 22.6 226 31L226 136L60 136L60 31C60 22.72 53.28 16 45 16L15 16C6.72 16 0 22.72 0 31L0 136L0 196L512 196L512 136L512 31C512 22.72 505.28 16 497 16Z" />
	<path id="Layer" class="shp6" d="M512 196L512 136L512 31C512 22.72 505.28 16 497 16L467 16C458.72 16 452 22.72 452 31L452 136L286 136L286 31C286 22.6 279.4 16 271 16L256 16L256 196L512 196Z" />
	<g id="Layer_2">
		<g id="Layer_2-2">
			<path id="Layer" fill-rule="evenodd" class="shp7" d="M256 214C269.13 214 282.14 216.59 294.27 221.61C306.4 226.64 317.42 234 326.71 243.29C336 252.58 343.36 263.6 348.39 275.73C353.41 287.86 356 300.87 356 314C356 354.45 331.64 390.91 294.27 406.39C256.9 421.87 213.89 413.31 185.29 384.71C156.69 356.11 148.13 313.1 163.61 275.73C179.09 238.36 215.55 214 256 214ZM256 407.82C268.32 407.8 280.51 405.36 291.88 400.64C303.26 395.92 313.59 389.01 322.3 380.3C331.01 371.59 337.92 361.26 342.64 349.88C347.36 338.51 349.8 326.32 349.82 314C349.88 275.97 327.01 241.65 291.88 227.07C256.76 212.49 216.31 220.52 189.41 247.41C162.52 274.31 154.49 314.76 169.07 349.88C183.65 385.01 217.97 407.88 256 407.82Z" />
			<path id="Layer" class="shp8" d="M342.68 314C342.68 314 297.96 278.29 290.36 283.36C268.64 297.96 250.43 261.93 239.25 261.93C227.14 261.86 169.04 314 169.04 314C169.04 337.03 178.18 359.11 194.47 375.39C210.75 391.67 232.83 400.82 255.86 400.82C278.88 400.82 300.97 391.67 317.25 375.39C333.53 359.11 342.68 337.03 342.68 314L342.68 314Z" />
			<path id="Layer" class="shp7" d="M342.68 314C342.68 314 297.89 286.79 290.18 291.82C269.89 305.04 249.5 278.14 238.32 278.14C226.21 278.14 169.04 313.86 169.04 313.86C169.04 336.88 178.18 358.97 194.47 375.25C210.75 391.53 232.83 400.68 255.86 400.68C278.88 400.68 300.97 391.53 317.25 375.25C333.53 358.97 342.68 336.88 342.68 313.86L342.68 314Z" />
			<path id="Layer" class="shp3" d="M304.07 315.25C273.11 315.25 277 324.64 265.64 329.54C246.39 337.71 239.68 327.57 226.54 332.82C221.96 334.61 183.29 360.57 182.86 360.96C192.74 376.29 207.2 388.12 224.18 394.77C241.17 401.42 259.81 402.55 277.48 398.01C295.14 393.47 310.93 383.49 322.6 369.47C334.27 355.46 341.23 338.12 342.5 319.93C339.33 319.31 336.15 318.75 332.96 318.24C329.77 317.74 326.58 317.29 323.37 316.9C320.16 316.51 316.95 316.18 313.74 315.9C310.52 315.63 307.3 315.41 304.07 315.25L304.07 315.25Z" />
			<path id="Layer" class="shp9" d="M303.61 352.29C298.86 352.46 296.96 362.21 284.57 362.07C267.93 361.93 247.04 353.29 238.14 353.29C220.29 353.29 188.14 366.82 187.93 366.79L187.93 366.79L187.5 367.11C195.76 377.68 206.37 386.2 218.48 391.99C230.59 397.77 243.88 400.68 257.3 400.46C270.72 400.25 283.91 396.92 295.83 390.75C307.75 384.58 318.08 375.73 326 364.89C322.86 363.36 310.14 352.07 303.61 352.29Z" />
		</g>
	</g>
</svg>