<svg xmlns="http://www.w3.org/2000/svg" viewBox="0 0 512 512"><defs><style>.a{fill:#737131;}.b{fill:#817f37;}.c{fill:#e3dfbf;}.d{fill:#5a6331;}.e{fill:#4e562a;}.f{fill:#474e26;}.g{fill:#5c2f1e;}.h{fill:#451f11;}.i{fill:#abbcbc;}.j{fill:#4a2212;}.k{fill:#293130;}.l{fill:#2d3635;}.m{fill:#5f716f;}.n{fill:#495755;}.o{fill:#536260;}</style></defs><title>armour_god_earth_platelegs</title><path class="a" d="M344.71,189.59,256,250.65l-88.76-61.06Z"/><path class="b" d="M256,250.64l88.76-61.06L256,189.4Z"/><path class="c" d="M152.2,274.54l-4.4,21.09L256,410.32,364.12,295.63l-4.4-21.09L256,378.49Z"/><path class="c" d="M256,378.49v31.84L364.11,295.65l-4.4-21.1Z"/><path class="a" d="M156.19,230l-4.25,47L256,387.32,360,277.05l-4.24-47L255.87,330Zm26.7-43.79L160.06,216.1c-5,19.09,49.85,65.1,95.91,100.16,42.33-39.47,96.73-86,95.91-100.16l-22.83-29.87-13.09.19L315,215.07,256,256.27l-59-41.2L196,186.42Z"/><path class="b" d="M256,316.2V256l59.91-41.35.94-28.77,13.37-.19,23.16,29.91c4,16.15-49.57,63.89-97.3,100.57ZM256,330v57.36L360,277l-4.24-47Z"/><path class="c" d="M123.18,72.81l26.92,44.27H361.82l26.92-44.27L256,86.46Z"/><path class="c" d="M388.73,72.81,255.87,86.46V115.6l105.85,1.48Zm8.15,366.38c24.32-15.37,56.75-24.85,83.4-18.93,1.06-31,15.09-56.26,31.72-80.4l-46.38-77.45-92.95,62Z"/><path class="d" d="M496.43,339.48a146.65,146.65,0,0,0-27.3,65.65c-21.08.86-42.2,1.3-62.34,13.65l-19.55-93.32L457,276.77Z"/><path class="c" d="M115.12,439.19c-24.32-15.37-56.75-24.85-83.4-18.93C30.66,389.3,16.63,364,0,339.86l46.46-77.45,92.94,62Z"/><path class="e" d="M15.48,339.48a147,147,0,0,1,27.3,65.66c21.08.86,42.2,1.29,62.34,13.64l19.54-93.31L55,276.78Z"/><path class="c" d="M138.67,358.71c-21.81-13.36-54.87-22.45-83.15-17.89-1.06-31-8.3-51-24.94-75.19l22.68-47.25,107.38,24.69Z"/><path class="e" d="M129.18,340.32C110,328.79,89.05,326,67.49,325.85c-2.36-27-11.08-46-22.43-61.56l19.42-36.77,81.76,24.26Z"/><path class="c" d="M65.79,159.84,39.6,199.7c4.62,8.1,10.53,16.22,12.58,26,24,15.06,26.06,27.22,33.68,40.32,28.34-8.29,56.41-19.66,86.07-12,2.86-10.24-21.49-20.47-14.81-38.33l-.79-.53Z"/><path class="e" d="M55.13,200.43c2.72,5.28,6.23,10.16,7,16.41a73.13,73.13,0,0,1,30.43,32.64,140.42,140.42,0,0,1,62.89-11.06l5.06-25.12L73.58,170.92Z"/><path class="c" d="M373.23,358.71c21.82-13.36,54.88-22.45,83.16-17.89,1.06-31,8.3-51,24.93-75.19l-22.68-47.25L351.27,243.07Z"/><path class="d" d="M382.73,340.32c19.14-11.53,40.13-14.35,61.68-14.47,2.36-27,11.09-46,22.43-61.56l-19.41-36.77-81.77,24.26Z"/><path class="c" d="M446.11,159.84l26.2,39.86c-4.63,8.1-10.54,16.22-12.58,26-24,15.06-26.06,27.22-33.69,40.32-28.33-8.29-56.41-19.66-86.06-12l3.13-14.86Z"/><path class="c" d="M158.8,213.71l-14.94.92a97.57,97.57,0,0,0,7.54,16c3.46,6,7.41,11.68,11.45,17.3L256,335.62l93.1-87.71,11.45-17.3a96.76,96.76,0,0,0,7.54-16l-14.93-.92c-3.41,8-6.83,16.12-14,24.16L256,316.2l-83.13-78.33c-7.19-8.05-10.61-16.12-14-24.16ZM190,195.45l.09,17.74L256,260.51l65.88-47.32.1-17.74H309.83v15.31L256,248.52l-53.86-37.76V195.45Z"/><path class="c" d="M69,136.43l-7.37,18.81L94.22,222.7l74.59-7.82,20.34-25-9.9-1.05-3.71-1.12,2.59-3.29L83.79,140.31l-1.53,3.3-2.72-6.45Z"/><path class="e" d="M83.71,140.32,76,157.1l25.26,52.75,61.6-6.08,15.31-19.37Z"/><path class="f" d="M148.75,89.5l16.64,27.36H346.51L363.16,89.5,256,100.5Z"/><path class="g" d="M135.69,194.66l21-13.69L104.54,165.4l1.1,16.79Z"/><path class="h" d="M251.49,106.64,99.7,89.69,79.62,140.28l9.91,26.08,110.91,30.38Z"/><path class="h" d="M99.71,89.69l-18.65,47L89.54,159,204,190.44l47.51-83.87Z"/><path class="g" d="M163.59,96.21l-5.21,9.12-29.54,86.4-25.15-10.24-.79-9.64L124,96.22l4.43-3.65Z"/><path class="g" d="M156.36,95.35l-5,10.33-25.29,85-22.53-9.2-.69-9.66,18.52-75.67,3.88-3.66Z"/><path class="i" d="M197.76,115.83H314.15v86.46H197.76Z"/><path class="d" d="M456.79,200.43c-2.71,5.28-6.23,10.16-7,16.41a73.11,73.11,0,0,0-30.42,32.64,140.48,140.48,0,0,0-62.9-11.06L354.35,215l84-44.06Z"/><path class="c" d="M256,335.62V316.2l83.14-78.32c7.19-8,10.61-16.12,14-24.16l14.94.92a98.24,98.24,0,0,1-7.55,16c-3.46,6-7.41,11.68-11.46,17.3Z"/><path class="c" d="M443,136.43l7.38,18.81L417.68,222.7l-74.59-7.82-20.34-25,9.91-1.05,3.71-1.12-2.59-3.29,94.34-44.07,1.52,3.3,2.72-6.45Z"/><path class="d" d="M428.19,140.32l7.75,16.78-25.27,52.67-61.6-6.08-15.3-19.37ZM363.08,89.5l-16.65,27.36-90.56-1.26V100.52Z"/><path class="g" d="M376.21,194.66l-21-13.69,52.14-15.57-1.1,16.79Z"/><path class="j" d="M260.42,106.64l151.78-17,20.08,50.59-9.9,26.08L311.46,196.74Z"/><path class="j" d="M412.21,89.69l18.65,47L422.39,159,307.94,190.44l-47.51-83.87Z"/><path class="g" d="M348.31,96.21l5.21,9.12,29.54,86.4,25.16-10.24.78-9.64L387.88,96.22l-4.43-3.65Z"/><path class="g" d="M355.55,95.35l5,10.33,25.3,85,22.53-9.2.68-9.66L390.58,96.19l-3.89-3.66Z"/><path class="i" d="M314.15,115.83H256v86.46h58.17Z"/><path class="h" d="M208.45,124.32h95v67.55h-95Z"/><path class="k" d="M240.25,170.54h31.41v38.72H240.25Z"/><path class="j" d="M303.45,124.32H256v67.55h47.47Z"/><path class="l" d="M271.66,170.54H256v38.72h15.68Zm-68.82,40.4-18.26-18L212,185.84Z"/><path class="m" d="M185.24,199.23l11.88,12.39L213,185Z"/><path class="l" d="M309.07,210.94l18.25-18-27.39-7Z"/><path class="m" d="M326.66,199.23l-11.87,12.39L298.88,185Z"/><path class="n" d="M245.75,170.47h20.41v44.74H245.75Z"/><path class="o" d="M266.16,170.47H256v44.74h10.18Z"/></svg>