<svg xmlns="http://www.w3.org/2000/svg" viewBox="0 0 58 58" width="58" height="58">
	<style>
		tspan { white-space:pre }
		.shp0 { fill: #8c9c9c } 
		.shp1 { fill: #7f8384 } 
		.shp2 { fill: #e9931f } 
		.shp3 { fill: #e7bb19 } 
		.shp4 { fill: #29abe2 } 
		.shp5 { fill: #00ffff } 
	</style>
	<g id="Page-1">
		<g id="036---Magic-Scroll">
			<path id="Shape" class="shp0" d="M49 10L49 57C49 57.55 48.55 58 48 58L42 58C41.45 58 41 57.55 41 57L41 56L33 56L33 57C33 57.55 32.55 58 32 58L26 58C25.45 58 25 57.55 25 57L25 56L17 56L17 57C17 57.55 16.55 58 16 58L10 58C9.45 58 9 57.55 9 57L9 10L49 10Z" />
			<g id="Layer">
				<path id="Shape" class="shp1" d="M19 54L19 56L17 56L17 54C17 53.45 17.45 53 18 53C18.55 53 19 53.45 19 54Z" />
				<path id="Shape" class="shp1" d="M41 54L41 56L39 56L39 54C39 53.45 39.45 53 40 53C40.55 53 41 53.45 41 54Z" />
				<path id="Shape" class="shp1" d="M25 54L25 56L23 56L23 54C23 53.45 23.45 53 24 53C24.55 53 25 53.45 25 54Z" />
				<path id="Shape" class="shp1" d="M35 54L35 56L33 56L33 54C33 53.45 33.45 53 34 53C34.55 53 35 53.45 35 54Z" />
			</g>
			<path id="Shape" class="shp2" d="M2 5L6 5L6 9L2 9C0.9 9 0 8.1 0 7C0 5.9 0.9 5 2 5Z" />
			<path id="Shape" class="shp2" d="M56 9L52 9L52 5L56 5C57.1 5 58 5.9 58 7C58 8.1 57.1 9 56 9Z" />
			<path id="Rectangle-path" class="shp1" d="M8 2L50 2L50 12L8 12L8 2Z" />
			<path id="Rectangle-path" class="shp3" d="M7 0L7 0C8.11 0 9 0.89 9 2L9 12C9 13.11 8.11 14 7 14L7 14C5.89 14 5 13.11 5 12L5 2C5 0.89 5.89 0 7 0Z" />
			<path id="Rectangle-path" class="shp3" d="M51 14L51 14C49.89 14 49 13.11 49 12L49 2C49 0.89 49.89 0 51 0L51 0C52.11 0 53 0.89 53 2L53 12C53 13.11 52.11 14 51 14Z" />
		</g>
	</g>
	<g id="Layer_2">
		<g id="Layer_2-2">
			<path id="Layer" fill-rule="evenodd" class="shp4" d="M29 16C31.1 16 33.18 16.41 35.12 17.22C37.06 18.02 38.83 19.2 40.31 20.69C41.8 22.17 42.98 23.94 43.78 25.88C44.59 27.82 45 29.9 45 32C45 38.47 41.1 44.31 35.12 46.78C29.14 49.26 22.26 47.89 17.69 43.31C13.11 38.74 11.74 31.86 14.22 25.88C16.69 19.9 22.53 16 29 16ZM29 47.01C30.97 47.01 32.92 46.62 34.74 45.86C36.56 45.11 38.21 44 39.61 42.61C41 41.21 42.11 39.56 42.86 37.74C43.62 35.92 44.01 33.97 44.01 32C44.02 25.92 40.36 20.42 34.74 18.09C29.12 15.76 22.65 17.04 18.35 21.35C14.04 25.65 12.76 32.12 15.09 37.74C17.42 43.36 22.92 47.02 29 47.01Z" />
			<path id="Layer" fill-rule="evenodd" class="shp4" d="M29 18.09C34.61 18.09 39.67 21.48 41.82 26.67C43.96 31.86 42.77 37.83 38.8 41.8C34.83 45.77 28.86 46.96 23.67 44.82C18.48 42.67 15.1 37.61 15.09 32C15.09 28.26 19.51 22.55 28.04 26.49C31.79 28.23 34.33 31.3 37.18 29.65C40.03 28 38.14 18.41 29 18.09ZM25.42 32.06C25.33 32.1 25.24 32.16 25.16 32.23C25.09 32.31 25.03 32.39 24.99 32.49C24.95 32.59 24.93 32.69 24.93 32.79C24.93 33.12 25.12 33.41 25.42 33.54C25.72 33.66 26.07 33.6 26.3 33.37C26.53 33.14 26.59 32.79 26.47 32.49C26.34 32.19 26.05 32 25.73 32C25.62 32 25.52 32.02 25.42 32.06ZM21.35 32.35C21.65 32.35 21.95 32.3 22.22 32.18C22.5 32.07 22.75 31.9 22.96 31.69C23.17 31.48 23.34 31.23 23.46 30.96C23.58 30.68 23.64 30.39 23.64 30.09C23.64 29.17 23.08 28.33 22.23 27.98C21.37 27.63 20.39 27.82 19.74 28.48C19.08 29.13 18.89 30.11 19.24 30.97C19.6 31.82 20.43 32.38 21.35 32.38L21.35 32.35ZM24.93 40.13C24.98 40.13 25.03 40.12 25.08 40.1C25.12 40.08 25.17 40.05 25.2 40.02C25.24 39.98 25.27 39.94 25.29 39.9C25.31 39.85 25.32 39.8 25.33 39.75C25.33 39.59 25.23 39.44 25.08 39.38C24.93 39.32 24.76 39.35 24.64 39.47C24.53 39.58 24.49 39.75 24.56 39.9C24.62 40.05 24.77 40.15 24.93 40.15L24.93 40.13ZM25.73 38.14C25.91 38.14 26.09 38.11 26.25 38.04C26.42 37.97 26.57 37.87 26.7 37.74C26.83 37.61 26.93 37.46 27 37.3C27.07 37.13 27.11 36.95 27.11 36.77C27.11 36.21 26.77 35.7 26.25 35.48C25.73 35.27 25.13 35.39 24.73 35.79C24.33 36.19 24.22 36.79 24.43 37.31C24.65 37.83 25.16 38.17 25.73 38.17L25.73 38.14Z" />
			<path id="Layer" class="shp5" d="M42.14 27.57C42.14 27.75 43.55 33.18 40.92 36.99C36.18 43.85 33.03 37.17 30.01 41.45C27.88 44.46 24.03 44.97 17.74 40.17C19.7 42.83 22.55 44.71 25.76 45.47C28.98 46.22 32.37 45.8 35.31 44.29C38.25 42.78 40.55 40.26 41.8 37.2C43.06 34.14 43.18 30.74 42.14 27.59L42.14 27.57Z" />
			<path id="Layer" class="shp5" d="M29 18.09C38.14 18.41 40.03 28 37.18 29.65C34.33 31.3 31.79 28.23 28.04 26.49C19.51 22.55 15.09 28.26 15.09 32C15.46 29.53 18.39 25.03 25.67 26.98C32.22 28.71 39.41 36.96 41 30.86C42.37 25.66 36.65 18.09 29 18.09Z" />
			<path id="Layer" class="shp5" d="M20.65 29.85C20.27 29.85 19.96 29.54 19.96 29.17C19.96 28.79 20.27 28.48 20.65 28.48C21.02 28.48 21.33 28.79 21.33 29.17C21.33 29.54 21.02 29.85 20.65 29.85Z" />
			<path id="Layer" class="shp5" d="M25.84 32.5C25.84 32.46 25.83 32.42 25.82 32.38C25.8 32.34 25.78 32.31 25.75 32.28C25.72 32.25 25.69 32.23 25.65 32.21C25.61 32.2 25.57 32.19 25.53 32.19C25.49 32.19 25.45 32.2 25.41 32.21C25.37 32.23 25.34 32.25 25.31 32.28C25.28 32.31 25.26 32.34 25.24 32.38C25.23 32.42 25.22 32.46 25.22 32.5C25.22 32.54 25.23 32.58 25.24 32.62C25.26 32.66 25.28 32.69 25.31 32.72C25.34 32.75 25.37 32.77 25.41 32.79C25.45 32.8 25.49 32.81 25.53 32.81C25.57 32.81 25.61 32.8 25.65 32.79C25.69 32.77 25.72 32.75 25.75 32.72C25.78 32.69 25.8 32.65 25.82 32.62C25.83 32.58 25.84 32.54 25.84 32.5Z" />
			<path id="Layer" class="shp5" d="M25.71 36.26C25.71 36.2 25.7 36.15 25.68 36.09C25.66 36.04 25.63 36 25.59 35.96C25.55 35.92 25.5 35.88 25.45 35.86C25.4 35.84 25.34 35.83 25.29 35.83C25.23 35.83 25.17 35.84 25.12 35.86C25.07 35.88 25.03 35.92 24.99 35.96C24.95 36 24.92 36.04 24.9 36.09C24.87 36.15 24.86 36.2 24.86 36.26C24.86 36.31 24.87 36.37 24.9 36.42C24.92 36.47 24.95 36.52 24.99 36.56C25.03 36.6 25.07 36.63 25.12 36.65C25.18 36.67 25.23 36.68 25.29 36.68C25.34 36.68 25.4 36.67 25.45 36.65C25.5 36.63 25.55 36.6 25.59 36.56C25.63 36.52 25.66 36.47 25.68 36.42C25.7 36.37 25.71 36.31 25.71 36.26Z" />
			<path id="Layer" class="shp5" d="M25.03 39.57C25.03 39.55 25.02 39.53 25.02 39.51C25.01 39.49 25 39.47 24.98 39.45C24.97 39.44 24.95 39.42 24.93 39.41C24.91 39.41 24.88 39.4 24.86 39.4C24.84 39.4 24.82 39.41 24.8 39.41C24.78 39.42 24.76 39.44 24.74 39.45C24.73 39.47 24.71 39.49 24.71 39.51C24.7 39.53 24.69 39.55 24.69 39.57C24.69 39.59 24.7 39.62 24.71 39.64C24.72 39.66 24.73 39.67 24.74 39.69C24.76 39.7 24.78 39.72 24.8 39.72C24.82 39.73 24.84 39.74 24.86 39.74C24.88 39.74 24.91 39.73 24.93 39.72C24.95 39.72 24.96 39.7 24.98 39.69C25 39.67 25.01 39.65 25.02 39.63C25.02 39.61 25.03 39.59 25.03 39.57L25.03 39.57Z" />
		</g>
	</g>
</svg>