<svg xmlns="http://www.w3.org/2000/svg" xmlns:xlink="http://www.w3.org/1999/xlink" viewBox="0 0 512 512"><defs><style>.a{fill:#7cbd75;}.b{fill:#3f6b54;}.c{fill:#1d1d1b;}.d{fill:url(#a);}.e{fill:#34412a;}.f{fill:#2c4a3a;}.g{fill:#283d31;}.h{fill:#6d9f6f;}.i{fill:#99bc9a;}.j{fill:#5d9961;}.k{fill:#b4418f;}.l{fill:#ce82b8;}.m{fill:#e9c3da;}</style><radialGradient id="a" cx="417.92" cy="685.46" r="30.6" gradientTransform="translate(0 -416)" gradientUnits="userSpaceOnUse"><stop offset="0" stop-color="#522900"/><stop offset="0.1" stop-color="#5e3812"/><stop offset="0.31" stop-color="#7d5f40"/><stop offset="0.59" stop-color="#b09d8b"/><stop offset="0.95" stop-color="#f5f2f0"/><stop offset="1" stop-color="#fff"/></radialGradient></defs><title>Artboard 152</title><path class="a" d="M253.36,158.7C345.2,153.8,419.12,222.83,418,312.5s-26.09,176.63-160.87,187c-45.11,2.17-92.93-22.29-122.28-48.92-31-27.71-50.55-73.91-50-120.1C86,240.76,161.51,163.59,253.36,158.7Zm9.78,318.47c50-2.71,89.13-29.89,116.3-67.39,17.39-23.91,18.48-61.41,18.48-92.39a133.84,133.84,0,0,0-28.8-85.32c-26.63-33.7-63.59-43.48-112-40.77-82,4.35-151,72.83-152.12,153.27,0,19,1.08,21.73,7.6,38,21.2,52.72,73.37,93.48,135.87,90.22Z"/><path class="b" d="M358.79,144.57c-2.17,3.26-3.8,7.06-6,10.87-5.43,10.86-29.35,31-33.15,41.84,14.67,6.52,46.2,6,57.61,20.11a134.4,134.4,0,0,1,28.26,85.33c0,5.43,0,10.87-.54,16.85a63,63,0,0,1,18.47,13c1.09-11.41,3.27-26.63,3.27-38.59C416.94,247.28,392.49,177.72,358.79,144.57Z"/><path class="b" d="M267.49,181.52c91.84-4.89,165.76,64.13,164.67,153.81S355.53,502.17,263.68,507.07,97.92,443.48,99,353.26,175.64,186.41,267.49,181.52ZM264.23,488c76.08-4.34,139.13-67.93,139.67-142.93s-60.33-140.22-137-136.41S127.81,284.78,127.27,359.78,187.59,492.39,264.23,488Z"/><path class="c" d="M268,498.91c76.63-4.34,139.67-68.47,140.22-143.47,0-20.11-3.81-39.68-12-57.61a139,139,0,0,1,8.15,47.28c-1.08,75-64.13,138.59-140.21,142.93C211,491.85,161,463,138.68,414.67,156.62,466.85,207.7,501.63,268,498.91Z"/><path class="a" d="M275.09,197.28c81-4.34,145.66,64.13,144.57,143.48S396.83,496.2,278.9,504.89c-39.13,2.18-81.52-19.56-107.61-42.93-27.17-24.46-44.56-64.68-44-105.44C128.36,277.72,194.66,202.17,275.09,197.28Zm-9.23,270.66c71.73-3.81,128.8-60.33,129.89-131,.54-28.81-2.72-54.89-19-75-23.37-29.35-55.44-38-98.37-35.87-71.74,3.8-132.61,72.28-133.7,142.93-1.09,11.42,1.63,22.83,6.52,33.15,19,45.66,59.24,68.48,114.68,65.77Z"/><path class="d" d="M384.33,271.74l31.53,34.78-.55-2.72-32.06-35.32h-2.18c.55,1.09,1.09,2.17,1.63,3.26Z"/><path class="b" d="M269.12,201.09C353.36,169,436,259.78,432.16,360.87c-3.26,79.89-70.11,144.57-147.83,150.54-81.52,7.07-159.78-50.54-171.74-129.34C100.09,296.74,169.12,208.15,269.12,201.09ZM284.33,496.2c72.29-3.81,131-64.13,132.07-134.24S359.33,229.35,287.59,233.15s-142.93,78.26-144,148.37S212.59,500,284.33,496.2Z"/><path class="a" d="M114.23,151.63c-8.7,50.54-17.94,101.09-26.64,151.63,5.44,4.35,10.87,8.15,16.31,12.5,3.26-19,9.78-42.93,20.11-69a356.24,356.24,0,0,1,32.61-62Z"/><path class="b" d="M165.86,191.85l-8.7-7.07a303.25,303.25,0,0,0-32.61,62c-23.91,58.7-23.91,87.5-23.91,87.5s7.06-27.17,42.93-80.44a250.35,250.35,0,0,1,39.13-45.1C177.27,203.26,171.83,197.28,165.86,191.85Z"/><path class="e" d="M341.94,243.48a153.41,153.41,0,0,0-73.37-4.35A149,149,0,0,0,210.42,263c-12-16.84-23.91-33.15-35.87-50l64.13-32.6,125,9.78C356.62,208.7,349.55,226.09,341.94,243.48Z"/><path class="b" d="M286.51,213.59c0,14.13,1.08,33.69-4.35,39.67-5.43,2.72-14.67-4.35-15.76-4.89-7.61-3.26-13.59-17.39-13.59-34.78,0-19.57,7.61-35.33,16.85-35.33S286.51,193.48,286.51,213.59Z"/><path class="f" d="M296.83,217.39c0,19.57-7.6,35.33-16.84,35.33S263.14,237,263.14,217.39s7.61-35.32,16.85-35.32S296.83,197.83,296.83,217.39Z"/><path class="g" d="M280,248.91c-6,0-13.05-13.58-13.05-31.52S274,185.87,280,185.87s13,13.59,13,31.52S286,248.91,280,248.91Z"/><path class="b" d="M396.29,156.52V141.3H393c-14.13-31.52-70.65-54.89-138.59-54.89s-123.91,23.37-138,54.89H112.6v15.77h0c0,39.13,63.59,70.65,141.85,70.65S396.3,196.2,396.3,156.52Z"/><path class="b" d="M177.81,59.78c-2.72,16.31-3.26,39.13-14.67,43.48-8.7.54-25.55-8.69-27.72-9.78-13-6-20.11-23.91-17.39-43.48,3.8-22.28,19.56-38.59,36.41-35.87,1.09,0,20.11,8.15,20.65,8.15C185.42,33.15,181.07,38.59,177.81,59.78Z"/><path class="f" d="M195.75,67.39c-3.81,22.28-19.57,38.59-35.87,35.87s-26.63-22.83-22.83-45.11,19.57-38.58,36.41-35.87S199,45.11,195.75,67.39Z"/><path class="f" d="M421.29,65.76c3.26,11.41,2.17,22.83-2.72,28.26-1.63,2.18-9.24,11.41-14.67,10.87C394.66,107.61,393,90.22,388.14,75c-3.81-13.59-10.33-13-4.89-22.83a35.08,35.08,0,0,1,13.58-9.78C406.07,40.22,416.94,50.54,421.29,65.76Z"/><path class="b" d="M412.6,72.83c4.34,15.21,1.08,29.89-8.16,32.6s-20.65-7.6-25-22.82S378.36,52.72,387.6,50,407.7,57.61,412.6,72.83Z"/><path class="b" d="M423.46,127.72V109.24h-4.34C402.27,71.74,334.88,44,255,44S107.7,71.74,90.86,109.24H86.51v18.48h0c0,46.19,75.54,83.69,168.48,83.69S423.46,173.91,423.46,127.72Z"/><path class="h" d="M423.46,109.24c0,46.2-75.54,83.7-168.47,83.7s-168.48-37.5-168.48-83.7S162.05,25.54,255,25.54,423.46,63,423.46,109.24Z"/><path class="i" d="M123.46,57.07a103.65,103.65,0,0,0-22.28,18.47L275.64,192.39a321.36,321.36,0,0,0,51.09-7.61Z"/><path class="j" d="M387.6,103.8c0,36.42-59.24,65.77-132.61,65.77S122.38,140.22,122.38,103.8,181.62,37.5,255,37.5,387.6,67.39,387.6,103.8Z"/><path class="b" d="M255,52.17c68.47,0,124.45,25.55,132.06,58.7a30,30,0,0,0,.55-7.07C387.6,67.39,328.36,38,255,38S122.38,67.39,122.38,103.8c0,2.18.54,4.9.54,7.07C130.53,77.72,186.51,52.17,255,52.17Z"/><path class="f" d="M123.46,145.11c3.27,11.41,2.18,22.28-2.71,28.26-1.63,2.17-9.24,11.41-14.68,10.87C96.83,187,95.2,169.57,90.31,154.35c-3.8-13-10.32-13-4.89-22.83A35.08,35.08,0,0,1,99,121.74C107.7,119.57,118.57,129.89,123.46,145.11Z"/><path class="b" d="M114.23,151.63c4.34,15.22,1.08,29.89-8.16,32.61S86,176.63,81.62,161.41s-1.09-29.89,8.15-32.61S109.88,136.41,114.23,151.63Z"/><path class="g" d="M102.81,181c-6,0-14.13-7.61-17.93-20.11-2.18-6-2.18-12.5-1.09-19,.54-2.72,2.17-7.61,6.52-8.7h1.63c6,0,14.13,7.61,17.94,20.11,2.17,6,2.17,12.5,1.08,19-.54,2.72-2.17,7.61-6.52,8.7C104.44,180.44,103.9,181,102.81,181Z"/><path class="k" d="M352.27,42.39C341.94,17.39,301.18,0,255,0s-87,17.39-97.3,42.39c-1.08,2.18-21.19,58.7-21.19,61.41,0,32.61,53.26,59.2,118.49,59.2s118.47-26.63,118.47-59.24C373.46,100.54,353.36,44.57,352.27,42.39Z"/><path class="l" d="M255,0c-39.68,0-75,13-90.76,32.07-2.18,6.52-2.18,13.58.54,19.56C179.44,72.28,214.23,86.41,255,86.41s76.08-14.13,90.21-34.78c2.72-6.52,3.26-13.59.55-19.56C330,13,294.12,0,255,0Z"/><path class="b" d="M351.73,181.52c-2.72,16.31-3.27,39.13-14.68,43.48-8.69.54-25.54-9.24-27.17-9.78-13.05-6-20.11-23.92-17.39-43.48,3.8-22.28,20.1-38.59,36.41-35.87,1.09,0,20.11,8.15,20.65,8.15C359.33,154.89,355,160.87,351.73,181.52Z"/><path class="f" d="M369.66,189.13c-3.8,22.28-20.11,38.59-36.41,35.87s-26.63-22.83-22.83-45.11S330.53,141.3,346.83,144,373.46,166.85,369.66,189.13Z"/><path class="g" d="M337.05,218.48h-2.72c-12.5-2.18-20.65-19-17.39-37.5,2.72-16.85,14.13-30.44,26.09-30.44h2.72A21.54,21.54,0,0,1,359.88,162a43.16,43.16,0,0,1,3.26,26C359.88,205.44,348.46,218.48,337.05,218.48Z"/><ellipse class="m" cx="204.44" cy="46.2" rx="18.48" ry="8.7"/></svg>