<svg xmlns="http://www.w3.org/2000/svg" viewBox="0 0 512 512"><defs><style>.a{fill:#6d9f6f;}.b{fill:#3f6b54;}.c{fill:#99bc9a;}.d{fill:#7cbd75;}.e{fill:none;stroke:#000;stroke-miterlimit:10;stroke-width:0.1px;}.f{fill:#1d1d1b;}.g{fill:#34412a;}.h{fill:#2c4a3a;}.i{fill:#5d9961;}.j{fill:#b4418f;}.k{fill:#ce82b8;}.l{fill:#e9c3da;}.m{fill:#283d31;}</style></defs><title>Artboard 153</title><path class="a" d="M197.05,18.45c2.37-7.14-1.9-15.23-9-17.61s-15.24,1.91-17.62,9,1.9,15.23,9,17.6h0A14,14,0,0,0,197.05,18.45Z"/><path class="b" d="M179.93,26.54c-7.14-2.37-11.42-9.51-9.52-16.65v.47a14,14,0,0,0,9,17.62c7.14,2.38,15.24-1.91,17.62-9v-.48C194.67,24.64,187.05,28.45,179.93,26.54Z"/><path class="c" d="M181.82,4.65c1.42-2.38,6.19-2.85,10,0s5.71,6.66,3.81,9-6.19,2.39-10,0S179.93,7,181.82,4.65Z"/><path class="a" d="M171.34,18.45a14.75,14.75,0,0,0-28-9A15,15,0,0,0,152.82,28h0A14.76,14.76,0,0,0,171.34,18.45Z"/><path class="b" d="M152.78,28c-7.62-1.91-11.91-10.48-9.52-18.57h0c-1.43,8.09,4.28,16.18,12.38,17.13a15,15,0,0,0,15.7-8.09h0C169,25.59,163.73,30.36,152.78,28Z"/><path class="c" d="M155.16,4.17c1.9-2.86,6.19-2.86,10.47,0s5.71,6.67,4.29,9.52-6.67,2.86-10.48,0S153.25,6.55,155.16,4.17Z"/><path class="a" d="M221.8,25.12a13.77,13.77,0,0,0-8.75-17.39l-.77-.23c-7.62-1.9-15.71,1.91-17.61,9.53-2.39,7.61,1.9,15.23,9.52,17.61C211.33,37,218.94,33.21,221.8,25.12Z"/><path class="b" d="M203.71,33.68a14.73,14.73,0,0,1-9.52-17.6v.47a14.46,14.46,0,0,0,27.61,8.57v-.48A14.58,14.58,0,0,1,203.71,33.68Z"/><path class="c" d="M205.61,10.84c1.9-2.86,6.19-2.86,10,0s5.72,6.66,4.28,9.51-6.19,2.87-10,0S203.71,13.69,205.61,10.84Z"/><path class="a" d="M244.17,34.16a14,14,0,0,0-26.66-8.57c-2.37,7.14,1.91,15.23,9,17.62h0c7.61,2.85,15.23-1.43,17.61-9Z"/><path class="b" d="M227,43.21a14.22,14.22,0,0,1-9.52-17.14v.47c-1.9,7.62,2.38,15.24,9.52,16.67,7.63,2.37,14.76-1.43,17.14-8.09v-.48a13.5,13.5,0,0,1-17,8.6Z"/><path class="c" d="M228.47,20.35c1.42-2.37,6.19-2.37,10,0s5.71,6.67,3.81,9-6.19,2.86-10,0S227,23.27,228.47,20.35Z"/><path class="a" d="M272.25,42.3c2.39-8.1-1.9-17.14-10.46-19.52-8.1-2.39-17.14,1.9-19.52,10.47s1.9,17.06,10.47,19.47h0C260.83,55.11,269.4,50.31,272.25,42.3Z"/><path class="b" d="M253.21,51.31c-8.09-2.38-12.38-10.48-10.46-18.57v.48a15.64,15.64,0,1,0,27.41,15.09q.34-.63.63-1.29c.47-1.43.95-2.85,1.42-4.75v-.48A15.72,15.72,0,0,1,253.21,51.31Z"/><path class="c" d="M254.65,27c1.9-2.85,6.66-2.85,10.94,0s6.19,7.14,4.29,10-6.67,2.85-11,0S253.21,29.88,254.65,27Z"/><path class="a" d="M299.38,43.68c2.39-8.09-1.9-17.14-10.46-19.51-8.1-2.38-17.14,1.9-19.52,10.47-2.39,8.09,1.9,17.13,10.47,19.51A15.72,15.72,0,0,0,299.38,43.68Z"/><path class="b" d="M280.34,52.72a15.41,15.41,0,0,1-10.46-19v.48c-3.34,8.1,0,17.14,8.09,20.48s17.14,0,20.46-8.1a6.78,6.78,0,0,0,.95-2.86v-.47A15.49,15.49,0,0,1,280.34,52.72Z"/><path class="c" d="M282.25,28.45c1.91-2.86,6.67-2.86,10.95,0s6.18,7.14,4.28,10-6.66,2.86-11,0S280.34,31.28,282.25,28.45Z"/><path class="a" d="M327,42.3a15.75,15.75,0,0,0-10.47-19.52c-8.56-2.86-16.66,2.38-19,10.47a15.88,15.88,0,0,0,10,19.51C315.57,55.11,324.15,50.31,327,42.3Z"/><path class="b" d="M308,51.31a15.54,15.54,0,0,1-10.48-18.57v.48A15.56,15.56,0,0,0,326,45.59a6.6,6.6,0,0,0,.95-2.85v-1A15.71,15.71,0,0,1,308,51.31Z"/><path class="c" d="M309.39,27c1.9-2.85,6.66-2.85,10.94,0s6.19,7.14,4.28,10-6.66,2.85-10.95,0S308,29.88,309.39,27Z"/><path class="a" d="M354.13,43.68a15.88,15.88,0,0,0-9.95-19.51c-8.09-2.87-16.65,1.9-19.52,10a15.87,15.87,0,0,0,10,19.51h0A15.26,15.26,0,0,0,354,44.05C354.05,43.93,354.09,43.8,354.13,43.68Z"/><path class="b" d="M335.09,52.72c-8.1-2.41-12.38-10.42-10.48-18.56v.48c-2.37,8.09,1.91,17.13,10.48,19.51,8.09,2.39,16.18-2.38,19-10v-1A15.5,15.5,0,0,1,335.09,52.72Z"/><path class="c" d="M337,28.45c1.9-2.86,6.67-2.86,10.95,0s6.19,7.14,4.28,10-6.66,2.86-10.94.47S335.09,31.28,337,28.45Z"/><path class="a" d="M379.35,53.2a15.2,15.2,0,1,0-19,10h0A14.79,14.79,0,0,0,379.1,54,7.41,7.41,0,0,0,379.35,53.2Z"/><path class="b" d="M360.31,62.25a15.21,15.21,0,0,1-10.46-18.09h0c-2.87,8.56.95,16.65,10,19a15.15,15.15,0,0,0,19-9.92l0-.1v-.48C377,60.32,368.41,64.63,360.31,62.25Z"/><path class="c" d="M362.21,38.45c1.9-2.86,6.67-2.86,10.94,0s6.19,7.13,4.29,10-6.66,2.85-10.95,0S360.31,41.3,362.21,38.45Z"/><path class="a" d="M400.26,70.82a15.21,15.21,0,1,0-19,10h0a15.17,15.17,0,0,0,19-10Z"/><path class="b" d="M371.22,61.33a15.57,15.57,0,0,0,.48,12.37c2.86,5.23,8.09,6.66,9.52,7.14,4.28,1,7.62.48,8.09,0a16.1,16.1,0,0,0,10.95-10.5v-.48c-2.82,7.62-10.91,11.91-18.52,9.49A15.2,15.2,0,0,1,371.22,61.33Z"/><path class="c" d="M383.17,55.59c1.9-2.87,6.66-2.87,10.95-.48s6.18,7.14,4.27,10-6.66,2.86-10.94,0S381.74,58.44,383.17,55.59Z"/><path class="a" d="M417,92.23a15.2,15.2,0,1,0-19,10C406,105.11,414.12,100.34,417,92.23Z"/><path class="c" d="M399.82,77.48c1.91-2.85,6.66-2.85,10.95,0s6.19,7.14,4.29,10-6.66,2.86-10.95,0S397.92,80.35,399.82,77.48Z"/><path class="a" d="M429.31,116.51a15.21,15.21,0,0,0-29.05-9c-2.38,8.1,1.91,16.19,10,19A14.46,14.46,0,0,0,428.85,118C429,117.5,429.18,117,429.31,116.51Z"/><path class="b" d="M410.77,125.55c-5.71-1.42-8.56-6.66-8.56-7.14-2.86-4.76-1.91-9.51-1.43-10.46a15.2,15.2,0,0,0,1,11.89c2.85,5.71,8.57,7.14,9.52,7.61.47,0,7.61,1.92,13.8-2.85a15.62,15.62,0,0,0,4.76-7.61C425.05,123.65,417.44,127.42,410.77,125.55Z"/><path class="c" d="M412.2,101.76c1.91-2.86,6.66-2.86,10.95,0s6.19,7.14,4.29,10-6.67,2.86-10.95,0S410.77,104.61,412.2,101.76Z"/><path class="a" d="M433.62,143.64a15.21,15.21,0,0,0-29-9,14.67,14.67,0,0,0,9.54,18.42l.48.14c7.62,3.34,16.18-.95,19-9.52Z"/><path class="b" d="M415.06,152.68c-7.61-2.37-12.38-10.46-10-18.08h0A14.94,14.94,0,0,0,414,153.76c.36.13.73.25,1.11.35a15.43,15.43,0,0,0,19-10.47h0A15.9,15.9,0,0,1,415.06,152.68Z"/><path class="c" d="M416.49,128.89c1.9-2.86,6.66-2.86,10.95,0s6.18,7.14,4.28,10-6.67,2.86-11,0S415.06,131.74,416.49,128.89Z"/><path class="a" d="M430.76,170.78c2.38-8.09-1.9-16.18-10-19a15.37,15.37,0,0,0-19,10c-2.86,8.09,1.9,16.18,10,19h0a15.17,15.17,0,0,0,19-9.93Z"/><path class="c" d="M414.11,156c1.9-2.86,6.66-2.86,10.47,0s6.18,7.14,4.28,9.52-6.66,2.86-10.47,0S412.2,158.87,414.11,156Z"/><path class="b" d="M431.24,169.35c-2.85,7.61-10.47,11.9-18.57,9.52a15,15,0,0,1-10-18.57.46.46,0,0,1-.45.47h0a15.37,15.37,0,0,0,9,19.52c9,3.34,18.56-2.85,20-10.94"/><path class="a" d="M422.67,197a14.9,14.9,0,1,0-18.56,10h0C411.72,209.35,420.29,204.59,422.67,197Z"/><path class="c" d="M406,182.2c1.91-2.86,6.66-2.86,10.48,0s6.18,7.14,4.28,9.52-6.66,2.86-10.47,0S404.11,185.05,406,182.2Z"/><path class="b" d="M422.67,196c-2.86,7.61-10.47,11.9-18.56,9.51a15,15,0,0,1-10-18.56.47.47,0,0,1-.45.48h0a15.38,15.38,0,0,0,9,19.52,14.66,14.66,0,0,0,20-10.94"/><path class="a" d="M407.92,219.8a14.91,14.91,0,1,0-18.57,10,14.67,14.67,0,0,0,18.42-9.52Z"/><path class="b" d="M389.83,228.85a15.15,15.15,0,0,1-10-18.09v.48A14.92,14.92,0,0,0,390,229.72l.3.08a14.47,14.47,0,0,0,18.1-9.52v-.48A15.36,15.36,0,0,1,389.83,228.85Z"/><path class="c" d="M391.25,205.54c1.9-2.85,6.66-2.85,10.47,0s6.19,7.14,4.28,9.53-6.66,2.85-10.47,0S389.83,207.91,391.25,205.54Z"/><path class="a" d="M387.93,238.37a14.91,14.91,0,1,0-18.57,10,14.67,14.67,0,0,0,18.42-9.54Z"/><path class="b" d="M369.84,246.93a15.13,15.13,0,0,1-10-18.08v.48a15.05,15.05,0,0,0,28.56,9.51v-1.42C385.54,245,377.45,249.32,369.84,246.93Z"/><path class="c" d="M371.22,223.57c1.9-2.86,6.67-2.86,10.48,0s6.19,7.14,4.28,9.52-6.67,2.86-10.47,0S369.84,226.46,371.22,223.57Z"/><path class="a" d="M363.21,249.32a14.9,14.9,0,1,0-18.56,10C352.19,261.22,360.8,256.93,363.21,249.32Z"/><path class="b" d="M345.08,257.88a15.14,15.14,0,0,1-10-18.09v.48a14.91,14.91,0,0,0,28.56,8.57h0v-.47A15.15,15.15,0,0,1,345.08,257.88Z"/><path class="c" d="M346.51,234.09c1.91-2.86,6.66-2.86,10.47,0s6.19,7.14,4.29,9.52-6.66,2.85-10.47,0S344.61,236.94,346.51,234.09Z"/><path class="a" d="M336.52,250.27a14.91,14.91,0,1,0-18.57,10C325.57,262.67,333.66,257.9,336.52,250.27Z"/><path class="b" d="M318,258.83a15.14,15.14,0,0,1-10-18.08v.48a15.28,15.28,0,0,0,9.52,19c8.09,2.86,16.18-1.43,19-9.52v-.95A15.34,15.34,0,0,1,318,258.83Z"/><path class="c" d="M319.38,235.52c1.91-2.87,6.66-2.87,10.47,0s6.19,7.13,4.29,9.51-6.66,2.86-10.48,0S318,237.89,319.38,235.52Z"/><path class="a" d="M310.34,242.18a14.87,14.87,0,1,0,0,.1Z"/><path class="b" d="M291.77,251.22a15.14,15.14,0,0,1-10-18.09v.45a15.05,15.05,0,1,0,28,11,3.61,3.61,0,0,0,.48-2.38v-.48A15.64,15.64,0,0,1,291.77,251.22Z"/><path class="c" d="M293.67,227.43c1.91-2.87,6.67-2.87,10.48,0s6.19,7.13,4.29,9.51-6.67,2.85-10.48,0S291.77,230.28,293.67,227.43Z"/><path class="a" d="M286.09,229.33a15.2,15.2,0,1,0-19,10h0A15.34,15.34,0,0,0,286.09,229.33Z"/><path class="b" d="M268,237.89a15.14,15.14,0,0,1-10-18.09v.48c-1.42,8.1,3.82,16.19,11.91,17.61a15,15,0,0,0,16.65-8.56v-.48A15.34,15.34,0,0,1,268,237.89Z"/><path class="c" d="M269.4,214.56c1.9-2.86,6.67-2.86,10.47,0s6.19,7.14,4.29,9.52-6.67,2.85-10.48,0S267.49,217,269.4,214.56Z"/><path class="d" d="M263.69,213.61a14.91,14.91,0,1,0-19,10,15.15,15.15,0,0,0,19-9.92l0-.1Z"/><path class="e" d="M245.12,222.19a15.15,15.15,0,0,1-10-18.09v.44c-1.44,8.09,3.8,16.18,11.89,17.62a15,15,0,0,0,16.67-8.58v-.47C261.31,220.28,253.21,224.57,245.12,222.19Z"/><path class="f" d="M247,198.38c1.91-2.85,6.67-2.85,10.48,0s6.19,7.14,4.29,9.53-6.67,2.85-10.48,0S245.12,201.24,247,198.38Z"/><path class="a" d="M243.22,195.06a14.87,14.87,0,1,0,0,.1Z"/><path class="b" d="M225.13,203.62a15.14,15.14,0,0,1-10-18.09V186a15.28,15.28,0,0,0,9.51,19c8.09,2.86,16.18-1.43,19-9.52v-1A14.93,14.93,0,0,1,225.13,203.62Z"/><path class="c" d="M226.56,180.29c1.91-2.85,6.66-2.85,10.47,0s6.19,7.14,4.29,9.53-6.66,2.85-10.48,0S224.65,183.15,226.56,180.29Z"/><path class="a" d="M223.23,176.5A14.75,14.75,0,1,0,204.66,186h.48C212.28,188.39,220.84,184.1,223.23,176.5Z"/><path class="b" d="M204.66,185.05a15.14,15.14,0,0,1-10-18.09v.52A14.91,14.91,0,1,0,223,176.62c.06-.19.11-.38.17-.57v-.55C220.37,183.15,212.28,187.43,204.66,185.05Z"/><path class="c" d="M206.56,161.74c1.91-2.87,6.67-2.87,10.48,0,4.29,2.85,6.19,7.13,4.29,9.51s-6.67,2.85-10.48,0S204.66,164.59,206.56,161.74Z"/><path class="a" d="M199.42,162.69a14.75,14.75,0,1,0-18.57,9.51h0A14.74,14.74,0,0,0,199.42,162.69Z"/><path class="b" d="M181.34,171.25c-7.62-2.38-11.9-10-10-18.09v.48c-1.9,8.1,2.38,16.19,10.48,18.09,7.61,1.9,15.23-1.9,17.6-9.52v-.47A15.07,15.07,0,0,1,181.34,171.25Z"/><path class="c" d="M183.24,147.93c1.91-2.86,6.67-2.86,10.47,0s6.19,7.14,4.29,9.52-6.67,2.85-10.48,0S181.34,150.78,183.24,147.93Z"/><path class="a" d="M172.77,155.55a14.75,14.75,0,1,0-18.57,9.51h0C162.3,167.48,170.39,163.64,172.77,155.55Z"/><path class="b" d="M154.69,164.11a14.6,14.6,0,0,1-10-17.61V147a15.18,15.18,0,0,0,10.47,18.09c7.62,1.9,15.23-1.9,17.61-9.51v-.48C170.39,162.69,162.3,166.48,154.69,164.11Z"/><path class="c" d="M156.59,141.27c1.9-2.86,6.19-2.86,10.46,0s5.72,6.66,4.29,9.51c-1.9,2.86-6.19,2.86-10.47,0S154.69,144.12,156.59,141.27Z"/><path class="a" d="M146.59,147.93c2.38-7.62-1.9-15.71-9.52-18.56-7.61-2.39-15.71,1.9-18.57,9.51s1.91,15.72,9.53,18.57h0a14.76,14.76,0,0,0,18.56-9.52Z"/><path class="b" d="M128.51,156.47A14.75,14.75,0,0,1,119,138.85l-.48.48a14.45,14.45,0,1,0,27.61,8.57h0v-.45C144.21,155.07,136.12,158.87,128.51,156.47Z"/><path class="c" d="M130.41,133.64c1.9-2.85,6.19-2.85,10.46,0,3.82,2.39,5.72,6.67,4.29,9.53s-6.19,2.85-10.48,0S128.51,136,130.41,133.64Z"/><path class="a" d="M125.64,130.79a13.76,13.76,0,0,0-8.75-17.38l-.76-.23c-7.62-1.91-15.72,1.91-17.62,9.52-2.37,7.62,1.9,15.23,9.52,17.61C115.18,142.69,123.27,138.41,125.64,130.79Z"/><path class="b" d="M108,138.88a14.75,14.75,0,0,1-9.52-17.6v.47a14.45,14.45,0,1,0,27.61,8.57v-.48A14.58,14.58,0,0,1,108,138.88Z"/><path class="c" d="M109.46,116.51c1.91-2.38,6.19-2.86,10,0s5.71,6.67,4.28,9.52-6.19,2.86-10,0S108,118.89,109.46,116.51Z"/><path class="a" d="M116.13,105.09a13.78,13.78,0,0,0-8.77-17.39l-.76-.23C99,85.57,90.9,89.38,89,97a13.75,13.75,0,0,0,8.75,17.38l.76.23C106.13,117,113.74,112.7,116.13,105.09Z"/><path class="b" d="M98.51,113.18c-5.24-1.43-8.09-6.19-8.09-6.67A13.37,13.37,0,0,1,89,96.05l-.48.47a17.08,17.08,0,0,0,1,10.94,14.84,14.84,0,0,0,8.57,7.15,14.63,14.63,0,0,0,13.74-2.86c1-1,2.85-2.85,3.34-4.76l1-1.9h0C112.32,111.75,104.7,115.09,98.51,113.18Z"/><path class="c" d="M100.41,90.81c1.44-2.38,6.19-2.85,10,0s5.72,6.66,4.28,9.51-6.18,2.86-10,0S98.51,93.66,100.41,90.81Z"/><path class="a" d="M118,78a14.15,14.15,0,1,0-17.62,9.52C107.55,89.86,115.65,85.57,118,78Z"/><path class="b" d="M118,77.48c-2.38,7.14-10.48,11-17.62,9-7.14-2.38-11.89-9-10-16.66h0C88,77,92.3,85.06,99.92,87.44c7.61,2.86,16.66-2.85,18.09-10"/><path class="c" d="M101.82,63.68c1.43-2.87,6.18-2.87,10,0s5.71,6.66,4.29,9c-1.91,2.38-6.19,2.86-10,0S100.41,66.53,101.82,63.68Z"/><path class="a" d="M128.51,52.72a13.78,13.78,0,0,0-8.78-17.38c-.25-.08-.5-.16-.75-.22-7.61-1.91-15.7,1.9-17.62,9.51A13.79,13.79,0,0,0,110.15,62l.74.22C118,64.63,126.12,60.34,128.51,52.72Z"/><path class="b" d="M110.89,62.25c-7.61-1.91-11.9-10.48-9.53-18.09h0a14.1,14.1,0,0,0,11.7,16.13l.21,0a14.73,14.73,0,0,0,15.24-8.09h0C126.12,60.32,118,64.63,110.89,62.25Z"/><path class="c" d="M112.83,38.45c1.9-2.86,6.19-2.86,10,0s5.72,6.66,4.28,9-6.19,2.86-10,0S110.89,41.3,112.83,38.45Z"/><path class="a" d="M146.11,31.78a13.76,13.76,0,0,0-8.75-17.38l-.76-.23c-7.62-1.91-15.24,1.91-17.62,9a13.76,13.76,0,0,0,8.76,17.38c.25.08.51.16.77.22h0C136.12,43.68,143.73,39.4,146.11,31.78Z"/><path class="b" d="M129,39.87a14.43,14.43,0,0,1-9.52-17.13.47.47,0,0,0-.48.46v0a14.32,14.32,0,0,0,26.66,10.46,2.84,2.84,0,0,0,.47-1.9v-1C143.73,38,136.12,42.3,129,39.87Z"/><path class="c" d="M130.41,17.5c1.9-2.37,6.19-2.86,10,0s5.71,6.67,4.29,9-6.19,2.86-10,0S128.51,20.35,130.41,17.5Z"/><path class="g" d="M247,200.76c-27.6-8.57-58.54,11.9-69,45.7s3.33,68.11,30.94,76.64,58.54-11.9,69-46.17S274.64,209.33,247,200.76ZM219,291.2A42.49,42.49,0,0,1,189,255c15.23-18.09,41.88-20,60-4.76a41,41,0,0,1,14.76,28A41.91,41.91,0,0,1,219,291.2Z"/><path class="h" d="M247,200.76c-27.6-8.57-58.54,11.9-69,45.7s3.33,68.11,30.94,76.64,58.54-11.9,69-46.17S274.64,209.33,247,200.76ZM219,291.2A42.49,42.49,0,0,1,189,255c15.23-18.09,41.88-20,60-4.76a41,41,0,0,1,14.76,28A41.91,41.91,0,0,1,219,291.2Z"/><path class="g" d="M247,200.76c-27.6-8.57-58.54,11.9-69,45.7s3.33,68.11,30.94,76.64,58.54-11.9,69-46.17S274.64,209.33,247,200.76ZM219,291.2A42.49,42.49,0,0,1,189,255c15.23-18.09,41.88-20,60-4.76a41,41,0,0,1,14.76,28A41.91,41.91,0,0,1,219,291.2Z"/><path class="b" d="M247,200.76c-27.6-8.57-58.54,11.9-69,45.7s3.33,68.11,30.94,76.64,58.54-11.9,69-46.17S274.64,209.33,247,200.76ZM219,291.2A42.49,42.49,0,0,1,189,255c15.23-18.09,41.88-20,60-4.76a41,41,0,0,1,14.76,28A41.91,41.91,0,0,1,219,291.2Z"/><path class="i" d="M247,200.76a52.39,52.39,0,1,0,34.28,65.69V266a51.92,51.92,0,0,0-33.93-65.1ZM219,291.2c-22.37-7.14-35.22-30.94-28-53.31s30.94-35.22,53.31-28,35.22,30.94,28,53.31a57.88,57.88,0,0,1-8.09,15.23C252.74,291.2,235.13,296.44,219,291.2Z"/><path class="g" d="M272.25,263.12a57.88,57.88,0,0,1-8.09,15.23c-2.37-23.32-23.33-40.46-46.65-37.6-10.95.95-20.94,6.67-28,14.76a42.37,42.37,0,1,1,84.12-10.31c.05.43.09.86.13,1.29A33.69,33.69,0,0,1,272.25,263.12Z"/><path class="g" d="M272.25,263.12a57.88,57.88,0,0,1-8.09,15.23c-2.37-23.32-23.33-40.46-46.65-37.6-10.95.95-20.94,6.67-28,14.76a42.37,42.37,0,1,1,84.12-10.31c.05.43.09.86.13,1.29A33.69,33.69,0,0,1,272.25,263.12Z"/><path class="b" d="M272.25,263.12a57.88,57.88,0,0,1-8.09,15.23c-2.37-23.32-23.33-40.46-46.65-37.6-10.95.95-20.94,6.67-28,14.76a42.37,42.37,0,1,1,84.12-10.31c.05.43.09.86.13,1.29A33.69,33.69,0,0,1,272.25,263.12Z"/><path class="b" d="M258.92,480.66c-34.74,30-87.58,40.93-126.61,21.89a84.29,84.29,0,0,1-18.57-12.37c-38-33.33-44.26-96.14-26.18-142.33,4.29-10,7.14-17.14,13.8-24.75,35.24-40,111.87-16.19,136.62-8.57,40.46,12.37,51.41,27.61,55.22,34.75,1.43,2.85,7.14,13.33,7.14,34.75C300.81,444,258.92,480.66,258.92,480.66Z"/><path class="c" d="M117.55,442.58a93.32,93.32,0,0,1,2.38,25.7,71.46,71.46,0,0,1-6.19,21.9,64.58,64.58,0,0,0,8.1,7.13A77.28,77.28,0,0,0,132.31,503a62.23,62.23,0,0,1,25.23-35.7Z"/><path class="b" d="M287.48,198.38C275.59,217,263.21,235,251.31,253.6l-.48.48c-8.56,5.7-28-1.43-30.46-11.43,6.66-21.41,13.32-42.37,20.46-63.78,11,.47,21.43.47,32.37.95m-29.5.47-18.1,60.46,24.76,9,35.73-52.33c3.81-8.56-3.33-15.7-10.95-20-11-5.67-25.73-6.15-31.44,2.89Z"/><path class="a" d="M251.31,253.61c-.48.48-1,1-1.43,1a33.56,33.56,0,0,1-16.66-2.39,34.58,34.58,0,0,1-12.38-8.09,2.11,2.11,0,0,1-.47-2.38c6.66-20.94,11.9-42.37,19-62.83a.48.48,0,0,1,.46-.48h0c12.86-21.42,59.5-2.38,48.56,20.47C278.44,218.37,263.21,235,251.31,253.61Z"/><path class="c" d="M258.45,177c3.81-3.33,11.9-1.9,18.57,2.86,6.66,5.23,9,11.42,5.23,14.28s-11.9,1.91-18.56-2.86C257.5,186.51,254.65,180.29,258.45,177Z"/><path class="a" d="M284.63,436.39c-31.42,50.93-98.53,66.6-149.46,35.22s-67.11-99-35.23-149.94c31.42-50.93,98.53-66.64,149.47-35.23,50.93,31.9,66.64,99,35.22,150Z"/><path class="i" d="M202.29,285c-27.14-1-54.75,14.75-70.93,42.84a105.41,105.41,0,0,0-5.24,10.47c-20.47,40-10.47,88.55,23.77,111.39,35.7,23.8,83.77,9.51,107.58-31.42a98.08,98.08,0,0,0,11.9-32.85c7.62-34.27-3.81-70.44-31.42-89A70.29,70.29,0,0,0,202.29,285Z"/><path class="j" d="M254.65,409.73c-22.38,38.06-66.64,50.94-100,29s-41.86-70.45-19.52-108.53,67.1-51.41,100-29S277,371.65,254.65,409.73Z"/><path class="k" d="M241.79,396.88c-17.14,29-51.41,39.06-76.64,22.37S133.26,365,149.89,336s51.41-39.06,76.64-22.38S258.45,367.85,241.79,396.88Z"/><ellipse class="l" cx="203.54" cy="400.54" rx="13.8" ry="9.04" transform="translate(-240.64 468.1) rotate(-71.71)"/><path class="b" d="M176.1,295A72.76,72.76,0,0,0,156.59,306c14.75,4.76,28,14.76,38.06,29.05-.48,0-.48.48-1,.48-16.18-10-33.32-16.19-50-17.14a57.26,57.26,0,0,0-8.49,12.38c-1,1.9-1.91,3.34-2.86,5.24,15.71-2.86,32.37.48,48.55,8.57-1,.47-1.43,1.42-2.38,1.9a211.93,211.93,0,0,0-22.84,7.14,181.74,181.74,0,0,0-32.85,17.61,93.91,93.91,0,0,0,1,20,106.11,106.11,0,0,1,33.8-23.79c-2.38,3.33-5.24,6.18-7.14,9.52a145.81,145.81,0,0,0-19,36.17,89.63,89.63,0,0,0,12.37,17.61,101.7,101.7,0,0,1,20-48.55,111.43,111.43,0,0,1,21.33-23.41,144.15,144.15,0,0,1,14.75-1.91,72.87,72.87,0,0,1,9,8.09,118.24,118.24,0,0,1,4.75,32.37,113.44,113.44,0,0,1-10.94,51.41,67,67,0,0,0,20.47-7.61c3.33-13.33,5.24-27.13,4.28-40.94a100.39,100.39,0,0,0-.95-12.37c7.61,11.89,12.37,25.7,14.76,39.51a69.91,69.91,0,0,0,12.37-16.19,150.49,150.49,0,0,0-17.13-33.8,132.15,132.15,0,0,0-16.19-19.52v-.47c18.09,2.38,33.79,9.52,45.22,20.94a75.77,75.77,0,0,0,.47-20.94c-14.27-8.57-31.89-13.8-51.4-14.28-.48-.47-.48-.95-1-1.9C229.86,335,247,334,261.75,338.77a69.12,69.12,0,0,0-10-19.51c-14.76-.95-30,2.38-45.23,9C199,314.06,188.48,302.63,176.1,295Z"/><path class="h" d="M218.47,355.94c-5.24,16.18-17.14,27.13-26.66,24.27s-13.33-18.55-8.57-35.22,17.13-27.13,26.66-24.27S223.7,339.28,218.47,355.94Z"/><path class="m" d="M206.09,334.53c8.57,2.37,12.38,14.27,10,28a37.85,37.85,0,0,0,2.38-6.67c5.23-16.19,1.42-31.89-8.57-35.22S188,328.3,183.26,345c-.47,2.39-1.42,4.29-1.42,6.67C187.52,339.28,197.52,331.66,206.09,334.53Z"/></svg>