<svg xmlns="http://www.w3.org/2000/svg" viewBox="0 0 512 512"><defs><style>.a{fill:#75492c;}.b{fill:#5a3822;}.c{fill:#8ba9b3;}.d{fill:#915a37;}.e{fill:#78462a;}.f{fill:#531e05;}.g{fill:#501704;}.h{fill:#dd8b52;}.i{fill:#eab453;}.j{fill:#cc5d52;}.k{fill:#34bde8;}.l{fill:#f8fafc;}</style></defs><title>Artboard 155</title><path class="a" d="M264.71,139.18c5.49-3.93,13.89,5,21.65,19.18,8.64,15.82-.54,24.08-6.8,26.89-9.38,4.21-18.58-5.56-22.09-19.33C254.13,152.8,249.33,150.19,264.71,139.18Z"/><path class="b" d="M267.41,183.14c9.23-.72,17.07-4.23,22.36-11.09a16.94,16.94,0,0,0,0-3.63c-5.46,9.26-15.09,11.86-24.45,12.77a8.24,8.24,0,0,0,2.09,1.95Zm-4.82-5.42c11-1.86,18.76-7.63,25.8-14.92q-.37-1-.87-2.1c-9.37,8.69-14.57,13.16-26.18,15,.4.72.87,1.43,1.25,2Zm-3.14-6c10.31-3.46,18.21-8.86,26-15-.35-.62-.7-1.23-1.06-1.82-9.19,7.5-16.09,10.83-25.71,14.79.25.7.54,1.41.78,2Zm-2.09-6.2c9.33-4.91,16.3-8.9,25.18-13.62-.4-.61-.79-1.21-1.18-1.78-9,4.7-16.5,9.11-24.61,13.32.23.74.47,1.59.61,2.08Zm-2-6.79c8.09-5.39,15.64-8.59,23.77-11.73-.44-.57-.88-1.18-1.32-1.71a114,114,0,0,0-23,11.33c.14.73.4,1.59.55,2.11Zm-1.22-6.24c6.94-4.14,12.71-10,20-11a20.29,20.29,0,0,0-2.06-1.64c-7.1,2.06-11.93,6.22-17.39,9.5a10.47,10.47,0,0,0-.55,3.14Z"/><path class="c" d="M246.33,116.6c-20,0-36.66,9.36-38.58,28.42a36.05,36.05,0,0,0,0,3.89v59.46a10.46,10.46,0,0,0,2.39,6.65l24.58,30.15a1.63,1.63,0,0,0,1.41,1.22l5.9-14L227.56,214.6a26.87,26.87,0,0,1-6.09-17V154.43a19.7,19.7,0,0,1,0-2.43c1.45-14.05,17.7-15.64,24.58-15.69l1.85-10.14Z"/><path class="d" d="M239.73,142.13c4.43-3.53,12.5,4.37,20.47,17,8.87,14.09,1.6,21.49-3.6,24-7.8,3.79-16.63-4.88-20.87-17.15C231.7,154.32,227.3,152,239.73,142.13Z"/><path class="e" d="M245.83,181.32c7.86-.68,14.42-3.77,18.49-10a16,16,0,0,0-.3-3.24c-4.06,8.34-12.2,10.67-20.19,11.5a11.61,11.61,0,0,0,2,1.7Zm-4.63-4.81c9.32-1.72,15.59-6.84,21.15-13.41-.28-.62-.59-1.23-.94-1.88-7.63,8-11.46,11.78-21.47,13.52.4.63.83,1.19,1.26,1.77ZM238,171.22c8.65-3.11,15-8,21.31-13.48l-1.08-1.62c-7.44,7-13.2,9.52-21.11,13.28.27.62.55,1.23.88,1.82Zm-2.35-5.53c7.68-4.42,13.41-8,20.72-12.27-.39-.54-.79-1.07-1.18-1.59-7.39,4.2-13.57,8.23-20.25,12,.22.69.5,1.36.71,1.86Zm-2.34-6.05A88.74,88.74,0,0,1,253,149.07c-.43-.51-.87-1-1.29-1.51a87.13,87.13,0,0,0-19.05,10.21,12.28,12.28,0,0,0,.68,1.87Zm-1.6-5.56c5.67-4.17,10.35-8.45,16.45-9.9a21.13,21.13,0,0,0-1.93-1.45c-5.87,2-10,5.32-14.29,8.48a8.68,8.68,0,0,0-.23,2.87Z"/><path class="a" d="M214.7,145.32c3.88-4,12,3.56,20.3,16.07,9.28,13.92,3,22.17-1.62,25.2-7,4.54-15.83-3.77-20.66-16.18C208.11,158.56,203.85,156.5,214.7,145.32Z"/><path class="b" d="M223.24,185.49c7.6-1.35,13.33-5.38,16.49-11.78a17.1,17.1,0,0,0-.52-3.33c-3,8.54-10.19,11.91-17.93,13.49A8.46,8.46,0,0,0,223.24,185.49Zm-4.67-4.67c8.84-2.67,14.15-8.47,18.71-15.5-.3-.62-.63-1.23-1-1.87-6.4,8.55-9.48,13-19,15.68.41.59.85,1.15,1.31,1.69Zm-3.41-5.27c8-4,13.49-9.56,18.86-15.63-.37-.55-.75-1.08-1.12-1.61-6,7.25-11.6,11.2-18.71,15.42C214.5,174.32,215,175.18,215.16,175.55ZM212.57,170c6.74-5,12.3-9.8,18.4-14.32-.4-.54-.81-1.06-1.21-1.56-6.7,5.12-11.69,9.22-18,14.07l.8,1.81ZM210,164a80.41,80.41,0,0,1,17.54-12.47L226.21,150a81.48,81.48,0,0,0-17,12c.24.59.49,1.28.8,1.91Zm-1.92-5.63c4.91-4.65,8.87-9.53,14.6-11.54a19.38,19.38,0,0,0-1.91-1.35c-5.43,2.63-8.89,6.37-12.68,9.95A8.54,8.54,0,0,0,208.06,158.32Z"/><path class="d" d="M193.23,147.75c4-4,12.9,3,22.15,14.79,10.3,13.07,3.84,21.2-1.07,24.27-7.36,4.59-17.05-3.11-22.55-14.88C186.53,160.73,181.91,158.89,193.23,147.75Z"/><path class="e" d="M203.44,186.12c7.5-1.56,14.27-5.27,17.34-11.88a16.55,16.55,0,0,0-.64-3.19c-3.18,8.71-11,11.88-18.85,13.54a7.4,7.4,0,0,0,2.15,1.53Zm-5.1-4.3c9.06-2.69,14.79-8.4,19.64-15.5-.34-.58-.71-1.17-1.13-1.77-6.74,8.72-10.17,12.93-19.94,15.69a15.33,15.33,0,0,0,1.43,1.58Zm-3.79-4.95c8.18-4.09,14.17-9.49,19.74-15.68l-1.23-1.5c-6.58,6.45-11.93,12.17-19.58,15.38a9.61,9.61,0,0,0,1.07,1.8Zm-2.91-5.26c7-5.09,13-9.7,19.32-14.35-.45-.5-.89-1-1.34-1.46-7,5.12-12.24,9.26-18.88,14a11.67,11.67,0,0,0,.9,1.76Zm-3-5.76a88.46,88.46,0,0,1,18.44-12.59c-.48-.46-1-1-1.44-1.38A89.05,89.05,0,0,0,187.76,164c.27.57.56,1.22.88,1.82Zm-2.17-5.37c5.18-4.68,9.34-9.54,15.27-11.53a20.74,20.74,0,0,0-2.08-1.24c-5.62,2.63-9.32,6.37-13.31,10a7.59,7.59,0,0,0,.12,2.77Z"/><path class="a" d="M168.68,153.5c3.43-4.39,12.26,2.3,21.86,13.86,10.69,12.87,5.35,21.73,1,25.23-6.47,5.25-16.15-2.09-22.25-13.92C163.52,167.4,159.06,165.8,168.68,153.5Z"/><path class="b" d="M181.39,192.6c7.42-2.15,12.67-6.73,15.17-13.43a18.45,18.45,0,0,0-.87-3.26c-2,8.81-8.89,12.92-16.42,15.29A8.3,8.3,0,0,0,181.39,192.6Zm-5.14-4.12c8.53-3.57,13.15-9.93,16.94-17.42-.37-.58-.76-1.16-1.2-1.76-5.5,9.17-8,14-17.26,17.59.52.57,1,1.07,1.52,1.59Zm-4-4.88c7.54-4.82,12.41-10.91,17.13-17.52l-1.28-1.48c-5.38,8-10.25,12.25-17,17.29a17.13,17.13,0,0,1,1.1,1.71Zm-3.1-5.28c6.27-5.88,10.87-10.54,16.8-16.21-.46-.49-.91-1-1.37-1.42-6,5.64-11,10.77-16.42,15.82.36.7.63,1.14,1,1.81Zm-3.24-5.78A81.23,81.23,0,0,1,182,158.32L180.58,157A81.4,81.4,0,0,0,165,170.74C165.25,171.32,165.69,172.14,165.91,172.54Zm-2.47-5.42c4.38-5.17,7.84-10.34,13.28-13a18.76,18.76,0,0,0-2-1.14c-5.1,3.19-8.2,7.21-11.57,11.19a10.81,10.81,0,0,0,.29,3Z"/><path class="d" d="M148.91,160.17c4-4,12.89,3,22.14,14.78,10.3,13.08,3.84,21.21-1.06,24.27-7.36,4.6-17.06-3.11-22.55-14.87C142.2,173.14,137.59,171.32,148.91,160.17Z"/><path class="e" d="M159.08,198.53c7.75-1.52,13.94-5.3,17.35-11.88a15.84,15.84,0,0,0-.65-3.19c-3.16,8.73-11,11.86-18.84,13.55a8.25,8.25,0,0,0,2.14,1.52Zm-5.1-4.3c9.08-2.69,14.8-8.42,19.62-15.55-.34-.58-.71-1.16-1.12-1.76-6.75,8.68-10.18,12.94-19.94,15.68A18.63,18.63,0,0,0,154,194.23Zm-3.79-4.91c8.21-4,14.19-9.45,19.78-15.63-.41-.51-.83-1-1.24-1.51a67.74,67.74,0,0,1-19.58,15.38c.34.59.68,1.16,1,1.76Zm-2.91-5.25c7.18-5.2,12.49-9.36,19.32-14.36l-1.34-1.46c-7,5.13-12.27,9.25-18.89,14.1A12.86,12.86,0,0,1,147.28,184.07Zm-3-5.77c6-5.55,12-9,18.44-12.57-.48-.46-1-1-1.44-1.37a86.54,86.54,0,0,0-17.87,12.15,15,15,0,0,1,.87,1.81Zm-2.17-5.36c5.19-4.78,9.42-9.45,15.32-11.58a19.46,19.46,0,0,0-2.07-1.23c-5.62,2.63-9.33,6.36-13.32,10A12,12,0,0,0,142.11,172.94Z"/><path class="a" d="M124.36,165.92c3.43-4.39,12.26,2.29,21.86,13.86,10.68,12.87,5.35,21.72,1,25.23-6.47,5.25-16.14-2.1-22.24-13.92C119.19,179.81,114.74,178.22,124.36,165.92Z"/><path class="b" d="M137.05,205c7.42-2.15,12.67-6.73,15.17-13.43a17.7,17.7,0,0,0-.86-3.27c-2,8.79-8.86,12.91-16.38,15.3a7.41,7.41,0,0,0,2.07,1.4Zm11.8-21.55c-.37-.58-.77-1.15-1.2-1.75-5.5,9.16-8,13.94-17.26,17.58l1.48,1.6c7.9-4,13.68-11,17-17.43ZM128,196c7.55-4.81,12.41-10.93,17.13-17.53-.43-.5-.85-1-1.28-1.47-5.22,7.86-10.36,12.3-17,17.3.35.58.72,1.15,1.1,1.71Zm-3.15-5.26c6.09-5.78,11.33-10.9,16.8-16.2l-1.37-1.43c-6.12,5.78-10.62,10.41-16.42,15.83.35.67.62,1.1,1,1.8ZM121.58,185a83.94,83.94,0,0,1,16.13-14.25c-.48-.45-1-.93-1.45-1.33a81.5,81.5,0,0,0-15.64,13.79c.29.54.62,1.2,1,1.79Zm-2.47-5.41c4.39-5.17,7.84-10.36,13.29-13a18.84,18.84,0,0,0-2-1.15c-5.11,3.2-8.19,7.26-11.57,11.23A9,9,0,0,0,119.11,179.57Z"/><path class="d" d="M104.33,174c4-4,12.89,3,22.14,14.78,10.3,13.08,3.85,21.21-1.06,24.27-7.36,4.59-17-3.11-22.55-14.87C97.62,187,93,185.11,104.33,174Z"/><path class="e" d="M114.53,212.32c7.75-1.52,13.94-5.3,17.35-11.88a15.18,15.18,0,0,0-.65-3.19c-3.16,8.72-11,11.87-18.82,13.55a7.23,7.23,0,0,0,2.12,1.52Zm-5.1-4.3c9.08-2.7,14.79-8.43,19.63-15.55-.35-.58-.72-1.16-1.13-1.77-6.75,8.71-10.17,12.93-19.94,15.69a18.9,18.9,0,0,0,1.44,1.65Zm-3.79-5c8.2-4.06,14.2-9.45,19.78-15.64-.41-.51-.83-1-1.24-1.5a67.77,67.77,0,0,1-19.58,15.39,13,13,0,0,0,1,1.77Zm-2.91-5.25c7-5.08,13-9.73,19.32-14.36L120.71,182c-7,5.13-12.27,9.25-18.89,14.1.33.66.66,1.27.91,1.74Zm-3-5.77a89.09,89.09,0,0,1,18.45-12.57c-.49-.46-1-1-1.44-1.37a88.22,88.22,0,0,0-17.88,12.21c.26.5.56,1.16.87,1.75Zm-2.17-5.36c5.2-4.74,9.41-9.49,15.32-11.58a22.65,22.65,0,0,0-2.07-1.24c-5.62,2.64-9.34,6.36-13.32,10a7.75,7.75,0,0,0,.07,2.84Z"/><path class="a" d="M79.78,179.73c3.43-4.39,12.26,2.29,21.86,13.85,10.69,12.88,5.35,21.73,1,25.23-6.48,5.26-16.15-2.09-22.25-13.92C74.61,193.62,70.16,192,79.78,179.73Z"/><path class="b" d="M92.49,218.82c7.42-2.14,12.67-6.74,15.16-13.43a17.6,17.6,0,0,0-.86-3.26c-2,8.84-8.87,13-16.43,15.35a10.74,10.74,0,0,0,2.13,1.34Zm-5.15-4.12c8.54-3.57,13.15-9.93,16.94-17.42-.37-.58-.76-1.16-1.2-1.76-5.5,9.17-8,14-17.26,17.59C86.35,213.69,86.85,214.19,87.34,214.7Zm-3.94-4.88c7.58-4.8,12.41-10.92,17.13-17.5-.43-.5-.85-1-1.28-1.47-5.22,7.85-10.36,12.32-17,17.28A12.26,12.26,0,0,0,83.4,209.82Zm-3.15-5.25c6.26-5.88,10.87-10.54,16.8-16.2l-1.37-1.43c-6,5.65-11,10.75-16.42,15.83.35.67.62,1.1,1,1.8ZM77,198.79c5.09-6.07,10.37-10.14,16.13-14.26-.49-.44-1-.92-1.46-1.32A80.47,80.47,0,0,0,76,197C76.33,197.53,76.66,198.19,77,198.79Zm-2.48-5.42c4.39-5.16,7.84-10.35,13.29-13a17.25,17.25,0,0,0-2-1.15c-5.12,3.19-8.19,7.26-11.58,11.23A13.65,13.65,0,0,0,74.5,193.37Z"/><path class="d" d="M61.64,178.26c5.43-2.71,12.62,6.46,18.82,20.29,6.9,15.4-2.3,21.44-8.37,23-9.1,2.4-17-7.66-19.22-20.48C50.72,188.9,46.42,185.88,61.64,178.26Z"/><path class="e" d="M60.91,218c8.19.55,16.33-1,21.71-6.64a14.06,14.06,0,0,0,.28-3.24c-6,6.94-16.39,8.26-23.83,7.83A7.83,7.83,0,0,0,60.91,218Zm-4.14-5.55c10.13,0,17.94-4,25.26-9.58-.19-.65-.41-1.31-.66-2-9.72,6.62-14.86,9.67-25.65,9.62C56.07,211.14,56.42,211.77,56.77,212.41Zm-2.49-5.79c9.75-1.54,17.56-5.15,25.4-9.57l-.85-1.79c-8.84,5.26-16.32,7.45-25.17,9.47.22.59.41,1.25.62,1.89Zm-1.49-5.85c8.89-3,16.49-5.81,24.57-8.52-.32-.61-.64-1.19-1-1.77-8.74,2.85-16.12,5.82-24,8.34.19.7.32,1.18.46,2Zm-1.39-6.36c8.07-3.69,15.33-5.38,23.12-7-.37-.58-.73-1.19-1.1-1.72A102.91,102.91,0,0,0,51,192.44C51.14,193,51.25,193.75,51.4,194.41Zm-.67-5.76c6.88-2.82,12.81-7,19.54-6.93A17.71,17.71,0,0,0,68.46,180c-6.61,1-11.68,3.55-17,6a6.74,6.74,0,0,0-.77,2.74Z"/><path class="a" d="M53.12,173.79c6-.41,7.41,10.64,5.54,25.55-2.09,16.6-13,18.62-19,17.78-9-1.26-10.48-13.39-5.78-25.89C38.34,179.32,36.25,175,53.12,173.79Z"/><path class="b" d="M32,209.56c7.2,4,14.7,4.89,21.88,2.2a17,17,0,0,0,1.91-2.84c-7.91,4-18,1.46-24.34-1.87A11.25,11.25,0,0,0,32,209.56ZM31.35,203c9.14,3.91,17.68,3.09,26.44.85.18-.67.34-1.35.48-2.07-11.19,2.23-17.17,3.33-26.78-.94-.09.73-.12,1.44-.15,2.16Zm.87-6.22c9.39,2.36,17.89,1.84,26.62.89.07-.66.13-1.3.19-1.94-9.85,1.37-17.69.65-26.3-1-.19.69-.36,1.35-.52,2ZM34,190.89c9.28.68,16.4.94,25.26,1.56l.09-2c-8.92-.65-16.69-.87-24.75-1.51C34.38,189.65,34.25,190.14,34,190.89Zm2.1-6.31a97,97,0,0,1,23.36,2.36v-2a97.72,97.72,0,0,0-22.56-2.31l-.8,2Zm2.4-5.48c7.36-.2,14-1.16,20.21,1.09a18.36,18.36,0,0,0-.63-2.28c-6.32-1.65-11.85-1.17-17.52-1a10.45,10.45,0,0,0-2.06,2.19Z"/><path class="d" d="M49,158.1C54.75,161,51,172,42.56,184.76,33.12,199,22.05,195,16.88,190.94c-7.75-6-3.66-18.06,6.35-27.1C32.75,155.23,32.79,150.05,49,158.1Z"/><path class="e" d="M13.17,179.81c4.74,7.45,11.18,12.42,19.33,13.89a15.91,15.91,0,0,0,3.06-1.6c-9.45-.68-17.39-8.46-21.7-14.89A7.83,7.83,0,0,0,13.17,179.81Zm2.4-6.49c6.5,8.39,14.82,12.38,24.11,15.08.47-.52.92-1.06,1.38-1.66-11.5-4-17.62-6.4-24.38-15.35-.42.69-.76,1.33-1.11,1.93ZM19.18,168c7.55,7.14,15.63,11.34,24.27,15.21.37-.57.72-1.14,1.06-1.7-10-4.14-16.58-9-24-15.07C20.11,167,19.51,167.68,19.18,168Zm4.29-4.5c8.12,5.55,15.35,10.11,22.75,15.13l1-1.78c-8-5.46-15.08-9.84-22.26-14.78C24.47,162.65,23.81,163.23,23.47,163.54Zm4.8-4.7c8.17,4.4,14.25,9.31,20.54,14.76.28-.62.6-1.26.84-1.86a113.1,113.1,0,0,0-19.82-14.33c-.52.5-1.12,1-1.56,1.43Zm4.7-3.78c6.65,4,14.1,6.28,18.24,12a20.46,20.46,0,0,0,.45-2.46c-5-4.92-10.45-7.42-15.76-10.4a14.18,14.18,0,0,0-2.92.86Z"/><path class="a" d="M48.31,148.61c3.45,4.71-4.14,12.15-16.33,19.11-13.58,7.76-20.81-.1-23.3-5.5-3.74-8.1,4.59-16.24,16.45-19.5C36.43,139.61,38.63,135.4,48.31,148.61Z"/><path class="b" d="M10.36,151.66c.78,7.8,3.75,15,9.81,19.31a14.33,14.33,0,0,0,3.14-.05C15.24,166.21,12.91,158,12,149.84A5.75,5.75,0,0,0,10.36,151.66ZM15,147.32c1.77,9.49,6.75,16.15,13.15,22.2.59-.23,1.19-.49,1.81-.78-7.63-8.06-11.53-12.49-13.26-22.54C16.09,146.59,15.55,147,15,147.32Zm5.13-2.82c3.09,8.92,7.85,15.68,13.23,22.39.53-.31,1-.62,1.56-.94-6.42-7.34-9.54-14.31-13-22.13-.59.26-1.28.5-1.76.68Zm5.33-1.91c4.13,7.92,8.29,14.47,12,21.68.53-.35,1-.7,1.54-1-4.14-7.73-8.09-14.2-11.78-21.2a15.4,15.4,0,0,1-1.76.52Zm5.84-1.87a98.69,98.69,0,0,1,10.39,20.49c.49-.39,1-.78,1.46-1.17a98.67,98.67,0,0,0-10-19.87,15.93,15.93,0,0,1-1.82.55Zm5.38-1.15c4,6,8.25,11,9.72,17.22A16.38,16.38,0,0,0,47.77,155c-2-6-5.3-10.38-8.37-15A11.49,11.49,0,0,0,36.66,139.57Z"/><path class="d" d="M6.16,137.4c-2.48-5.35,6.6-12,20.19-17.59,15.12-6.19,20.73,2.94,22.12,8.88,2.08,8.9-7.9,16.21-20.39,18C16.18,148.32,13.12,152.41,6.16,137.4Z"/><path class="e" d="M44.63,139.4c.77-8-.51-15.9-5.84-21.31a14.88,14.88,0,0,0-3.13-.37c7.24,6.4,7.72,15,7,23.39A8.06,8.06,0,0,0,44.63,139.4Zm-5.49,3.8c.2-9.83-3.35-17.53-8.57-24.81-.64.16-1.29.35-2,.57,6.14,9.61,9,14.71,8.63,25.17a11.91,11.91,0,0,0,1.94-.93ZM24.82,120.44l-1.75.77c4.83,8.73,6.77,16.08,8.49,24.72.64-.11,1.27-.28,1.89-.45A88.31,88.31,0,0,0,24.82,120.44Zm2.92,26.24c-2.62-8.71-5.21-16.17-7.59-24.09-.6.29-1.18.58-1.75.88,2.66,8.52,5,15.89,7.43,23.58C26.54,147,27.25,146.79,27.74,146.68Zm-6.21,1.14c-3.35-7.94-4.81-15-6.19-22.65-.56.33-1.16.67-1.69,1a101.51,101.51,0,0,0,6,22A17.27,17.27,0,0,0,21.53,147.82Zm-5.55.5c-2.78-6.81-6.13-12.62-6.18-19.19A19.59,19.59,0,0,0,8,130.84c.74,6.44,3.15,11.42,5.26,16.64A6.83,6.83,0,0,0,16,148.32Z"/><path class="a" d="M5.82,115.32c-3-4.88,5.74-11.64,19.25-17.61,15-6.65,21.66,1.59,23.63,7.07,3,8.22-6.69,15.62-19.42,18C17.15,125,14.36,129,5.82,115.32Z"/><path class="b" d="M45.71,115.05c.1-7.73-2.18-15.11-8-19.62a16.24,16.24,0,0,0-3.27-.18c7.08,4.8,9.29,14.57,9.3,21.49A8,8,0,0,0,45.71,115.05ZM40.39,119c-.74-9.52-5.2-16.4-11.12-22.75-.64.19-1.29.4-2,.65,7,8.56,10.54,12.88,11.13,23.08Zm-5.68,2.36c-2.18-9-6.38-16-11.15-22.92l-1.74.82c5.72,7.74,8.37,14.59,11,22.67C33.45,121.72,34.09,121.53,34.71,121.32ZM29,122.82c-3.51-8-6.78-14.88-10-22.15-.58.3-1.16.61-1.71.92,3.45,7.87,6.7,14.54,9.75,21.67C27.69,123.1,28.17,123,29,122.82Zm-6.3,1.41c-4.14-7.16-6.33-13.76-8.43-20.86-.55.35-1.14.69-1.65,1a89.7,89.7,0,0,0,8.13,20.22C21.42,124.48,22.08,124.32,22.68,124.23Zm-5.74.75c-3.52-6.15-7.29-11.34-8.11-17.61a20.24,20.24,0,0,0-1.66,1.68c1.41,6.08,4.19,10.58,6.92,15.27A9.64,9.64,0,0,0,17,125Z"/><path class="d" d="M14.46,87.4c-.25-5.9,10.7-8.6,25.37-8.55,16.34,0,18,10.63,17.06,16.65-1.48,9-13.49,12-25.71,8.83C19.54,101.32,15.16,103.93,14.46,87.4Z"/><path class="e" d="M49.23,104C53,97,54.84,89.09,52,82.05a13.78,13.78,0,0,0-2.75-1.55c3.83,8,.79,17.89-2.51,24.27A8.54,8.54,0,0,0,49.23,104Zm-6.52,1.41c4-9,3.58-17.5,1.53-26.21-.65-.1-1.32-.17-2-.22,2,11.22,2.65,17-1.65,26.55C41.31,105.51,42,105.45,42.71,105.39Zm-6.11-.07C39.1,96,38.91,87.6,38.17,78.89H36.25c1.13,9.91.14,17.44-1.59,26.08C35.31,105.12,36,105.21,36.6,105.32Zm-5.76-1c.91-9.09,1.41-17,2.2-25.23-.67,0-1.33.09-2,.15-.86,8.89-1.31,16.61-2.13,24.63A10.42,10.42,0,0,1,30.84,104.32ZM24.67,103c-.21-8.62,1.47-15.78,2.89-23.31-.65.1-1.33.18-1.95.29a104,104,0,0,0-2.9,22.56A8.74,8.74,0,0,1,24.67,103Zm-5.35-1.69c.26-7.22-1.2-14.25,1.66-20.16a20.93,20.93,0,0,0-2.27.89c-1.73,6.27-1.48,11.8-1.46,17.46A12.27,12.27,0,0,0,19.32,101.32Z"/><path class="a" d="M22.58,66.85c-1-5.67,9.74-8.57,24.52-8.93,16.44-.39,19.41,9.74,19.14,15.56-.42,8.72-12.15,11.88-24.82,9.2C29.35,80.12,25.26,82.73,22.58,66.85Z"/><path class="b" d="M59.54,81.8c3-7.07,3.78-14.77.15-21.1a16.43,16.43,0,0,0-3-1.41C62,67,60.37,75.17,57.23,82.7A12,12,0,0,0,59.54,81.8Zm-8-23.63c-.67-.07-1.35-.13-2.07-.16C52.72,68.58,54.33,73.94,51,83.56a15.75,15.75,0,0,0,2.17-.18,44.68,44.68,0,0,0-1.58-25.21ZM47,83.45c1.34-9.16.33-17.25-1.56-25.48-.64,0-1.29.05-1.92.09C45.81,67.38,45.65,74.78,45,83.2,45.67,83.32,46.33,83.39,47,83.45Zm-5.91-.83c-.09-8.76-.62-16.3-.78-24.3l-1.94.2c.19,8.59.64,16,.78,23.76C39.82,82.4,40.32,82.46,41.07,82.62Zm-6.36-1.1c-1.06-8.21-.61-15.08.17-22.5-.64.1-1.32.2-1.92.33a89.93,89.93,0,0,0-.21,21.75C33.35,81.25,34.05,81.41,34.71,81.52ZM29.12,80c-.9-7-2.42-13.26-.77-19.38a17.41,17.41,0,0,0-2.18.93c-1,6.17-.1,11.4.6,16.79A7.72,7.72,0,0,0,29.12,80Z"/><path class="d" d="M39.6,44.53c1-5.81,12.28-6.14,26.61-3,16,3.51,15.38,14.21,13.15,19.88-3.38,8.52-15.71,8.91-27,3.2C41.62,59.23,36.79,60.84,39.6,44.53Z"/><path class="e" d="M70.09,68.08C75.25,62,78.71,54.71,77.4,47.22A14.31,14.31,0,0,0,75,45.13c2.16,8.56-3,17.68-7.55,23.19A8.19,8.19,0,0,0,70.09,68.08Zm-6.68,0c5.78-8,7.2-16.34,7-25.3-.62-.23-1.26-.44-1.94-.64-.37,11.39-1,17.16-7.21,25.57A15.84,15.84,0,0,0,63.41,68.08Zm-6-1.4c4.4-8.54,6-16.79,7.11-25.47l-1.88-.36c-.94,9.93-3.59,17.1-7,25.21C56.15,66.19,57.3,66.64,57.41,66.68ZM52,64.46c2.79-8.64,5-16.27,7.5-24.14l-1.94-.27c-2.77,8.48-4.72,16-7.3,23.58A17.27,17.27,0,0,0,52,64.46Zm-5.75-2.59a97.67,97.67,0,0,1,7.82-22.2c-.66,0-1.3-.06-2-.08A99.18,99.18,0,0,0,44.44,61C45,61.32,45.89,61.7,46.23,61.87Zm-4.87-2.8c1.59-7.19,2.1-13.89,5.82-19.32a22,22,0,0,0-2.41.4c-3.06,5.72-3.89,11.17-5.09,16.7A11.78,11.78,0,0,0,41.36,59.07Z"/><path class="a" d="M94.49,51.08c-1.59,5.58-12.34,4.33-25.63-.76C54.07,44.65,55.79,34.21,58.53,29c4.11-7.9,15.9-6.51,26,.61C94.17,36.32,99,35.44,94.49,51.08Z"/><path class="b" d="M68.07,23.69c-5.66,5.36-9.68,12.09-9.28,19.48a14.26,14.26,0,0,0,2,2.38c-1.35-9.24,3.82-16.1,9.71-21.74A7.63,7.63,0,0,0,68.07,23.69Zm6.35.93C68,31.76,65.78,39.78,65,48.5c.56.31,1.15.61,1.78.9,1.62-11,2.73-16.65,9.64-24.17C75.73,25,75,24.77,74.42,24.62Zm5.5,2.2c-5.15,7.85-7.56,15.72-9.53,24l1.74.62c2-9.51,5.21-16.28,9.47-23.75Zm4.9,2.94c-3.6,8.13-6.49,15.3-9.73,22.7L76.9,53c3.55-8,6.28-15,9.51-22.21C85.82,30.43,85.26,30.05,84.82,29.76ZM90,33.1c-2.57,8-6,14.2-9.82,20.69.62.14,1.26.3,1.85.4a96.36,96.36,0,0,0,9.54-20A14.17,14.17,0,0,0,90,33.1Zm4.32,3.43c-2.2,6.84-3.61,13.13-7.63,18.11A17.82,17.82,0,0,0,89,54.58c3.53-5.26,5-10.47,6.66-15.71A8.66,8.66,0,0,0,94.3,36.53Z"/><path class="d" d="M111.35,45.32c-2.65,5.16-13,1.82-25-5.78-13.39-8.46-9.66-18.36-5.93-23C86,9.61,97.29,13.32,105.8,22.25,114,30.78,118.78,30.82,111.35,45.32Z"/><path class="e" d="M90.83,13.23C84.21,17.38,79,23.18,78,30.52a13.58,13.58,0,0,0,1.52,2.74c.5-9.33,6.93-15,13.8-19.42A9.51,9.51,0,0,0,90.83,13.23Zm6,2.18c-7.71,5.74-11.46,13.16-14,21.56.48.42,1,.83,1.56,1.24,3.82-10.46,5.91-15.78,14.2-21.81a12.06,12.06,0,0,0-1.72-1Zm5,3.24c-6.59,6.67-10.47,13.91-14.07,21.67l1.59,1c3.79-9,8.36-14.89,13.94-21.43-.45-.43-1.13-1-1.42-1.24Zm4.23,3.84c-5.15,7.25-9.35,13.73-14,20.33.56.31,1.12.6,1.67.88,5.12-7.3,8.82-13.05,13.69-19.91-.44-.47-1-1-1.32-1.3Zm4.43,4.3c-4,7.38-8.76,12.62-13.65,18.32.58.26,1.18.54,1.74.76a96.29,96.29,0,0,0,13.28-17.76c-.44-.41-1-1-1.33-1.32ZM114.06,31C110.56,37.32,108,43.32,103,47.32a16.38,16.38,0,0,0,2.29.4c4.49-4.47,6.93-9.28,9.63-14.09a11.58,11.58,0,0,0-.8-2.63Z"/><path class="a" d="M128.19,42.11c-2.81,4.84-11.81-.43-22-10.41C94.83,20.6,99,11.08,102.75,7c5.6-6.14,15.46-.34,22.38,10.41C131.72,27.64,136.08,28.55,128.19,42.11Z"/><path class="b" d="M112.37,5.45c-6.92,3.28-11.33,8.64-13,15.5A16.83,16.83,0,0,0,100.51,24c1-8.83,7-14,14-17.53A6.8,6.8,0,0,0,112.37,5.45Zm5.26,3.3c-7.8,4.86-11.53,11.84-14.35,19.71.41.52.84,1,1.31,1.55,4.14-9.61,6.2-15,14.55-19.93A19.14,19.14,0,0,0,117.63,8.75ZM121.84,13c-6.69,5.92-10.7,12.64-14.47,19.83l1.35,1.27c4.43-7.76,8.15-14.44,14.33-19.58C122.65,14,122.25,13.46,121.84,13Zm3.48,4.71c-5.24,6.56-9.54,12.47-14.29,18.44.48.42,1,.82,1.43,1.2,5.11-6.46,9.33-12.2,13.93-18C126,18.71,125.74,18.32,125.32,17.68ZM129,22.9a85.56,85.56,0,0,1-13.83,16.42c.51.37,1,.76,1.51,1.09a84.67,84.67,0,0,0,13.43-15.88C129.71,24,129.34,23.43,129,22.9Zm2.87,5c-3.64,5.7-6.34,11.34-11.31,14.82a16.47,16.47,0,0,0,2,.82c4.54-3.93,7-8.38,9.84-12.76A12.38,12.38,0,0,0,131.85,27.9Z"/><path class="d" d="M147.27,43.17c-4.18,3.88-12.32-2.94-20.55-14.38-9.15-12.73-2.36-20.67,2.59-23.67,7.44-4.49,16.35,3,20.93,14.47C154.61,30.51,159,32.32,147.27,43.17Z"/><path class="e" d="M139.85,5.78c-7.5,1.54-14.2,5.17-17.59,11.54a14.83,14.83,0,0,0,.42,3.11C126.32,12,134,8.9,141.86,7.22a10.16,10.16,0,0,0-2-1.44ZM144.53,10c-9.06,2.65-14.94,8.29-20,15.2.29.56.62,1.13,1,1.72,6.94-8.4,10.71-12.62,20.35-15.33-.47-.57-.9-1.07-1.35-1.59Zm3.36,4.82c-8.37,3.89-14.25,9.36-20.2,15.29.37.5.74,1,1.11,1.46,6.47-7,12.66-11,20-15.07q-.44-.87-.9-1.68Zm2.49,5.12c-7.3,5.09-12.72,9.15-19.67,14,.4.49.8,1,1.2,1.42,7-4.88,12.89-9.37,19.23-13.74C150.87,21,150.66,20.58,150.38,19.9Zm2.51,5.61a92.38,92.38,0,0,1-18.71,12.28c.44.45.88.93,1.31,1.34a93,93,0,0,0,18.13-11.88c-.22-.52-.46-1.16-.73-1.74Zm1.76,5.23C149.31,35.32,145,40,139,42A18.66,18.66,0,0,0,141,43.26c5.64-2.59,9.47-6.24,13.57-9.75a7.17,7.17,0,0,0,.1-2.77Z"/><path class="a" d="M171.5,43.57c-2.82,4.83-11.81-.44-22-10.41-11.35-11.1-7.17-20.63-3.44-24.72,5.6-6.15,15.46-.35,22.38,10.41C175,29.1,179.38,30,171.5,43.57Z"/><path class="b" d="M155.68,6.92c-6.94,3.26-11.37,8.62-13,15.49a17.56,17.56,0,0,0,1.13,3.09c1.07-8.1,8.09-14.49,14-17.53A6.33,6.33,0,0,0,155.68,6.92ZM161,10.2c-7.81,4.86-11.54,11.85-14.35,19.72.4.51.83,1,1.3,1.55,4.17-9.7,6.24-14.9,14.6-19.94C162,11.06,161.46,10.64,161,10.2Zm4.2,4.23c-6.69,5.92-10.7,12.64-14.47,19.83q.67.65,1.35,1.26c4.42-7.74,8.17-14.39,14.28-19.57A11.51,11.51,0,0,1,165.18,14.43Zm3.49,4.71c-5.19,6.58-9.59,12.44-14.26,18.44.48.42,1,.82,1.43,1.2,5.22-6.6,9-11.81,13.93-18Zm3.59,5.18c-4.17,6.73-8.82,11.48-13.84,16.47.5.36,1,.76,1.5,1.09A84.67,84.67,0,0,0,173.35,26C173,25.5,172.64,24.89,172.26,24.32Zm2.86,5c-3.64,5.69-6.34,11.34-11.3,14.82a16.47,16.47,0,0,0,2,.82c4.54-3.93,7-8.38,9.84-12.77A8.79,8.79,0,0,0,175.12,29.32Z"/><path class="d" d="M190.57,44.62c-4.18,3.89-12.32-2.94-20.54-14.38-9.16-12.73-2.37-20.66,2.59-23.66,7.43-4.49,16.35,3,20.93,14.46C197.91,32,202.27,33.74,190.57,44.62Z"/><path class="e" d="M183.15,7.23c-7.49,1.53-14.22,5.17-17.59,11.58a14.83,14.83,0,0,0,.42,3.11c3.57-8.44,11.32-11.57,19.15-13.24A8.85,8.85,0,0,0,183.15,7.23Zm4.69,4.19c-9.05,2.65-14.94,8.28-20.05,15.19.3.57.62,1.14,1,1.72,6.93-8.4,10.73-12.61,20.36-15.33C188.71,12.43,188.27,11.93,187.84,11.42Zm3.36,4.82c-8.32,3.93-14.34,9.31-20.21,15.29L172.1,33c6.45-7,12.67-11,20-15.07-.29-.6-.59-1.14-.89-1.68Zm2.48,5.08c-7.14,5-13.2,9.51-19.67,14l1.21,1.42c7.16-5,12.46-9,19.23-13.74C194.18,22.46,194,22,193.68,21.32Zm2.51,5.62a91.71,91.71,0,0,1-18.7,12.3c.43.45.88.93,1.31,1.34a92.71,92.71,0,0,0,18.12-11.86c-.26-.62-.51-1.24-.73-1.78ZM198,32.2c-5.34,4.58-9.67,9.27-15.62,11.29a18.4,18.4,0,0,0,1.94,1.2c5.66-2.56,9.45-6.25,13.56-9.74A7.48,7.48,0,0,0,198,32.2Z"/><path class="a" d="M218.08,43c-2.82,4.84-11.81-.43-22-10.4-11.35-11.1-7.17-20.63-3.44-24.72,5.59-6.15,15.45-.35,22.34,10.4C221.6,28.57,226,29.48,218.08,43Z"/><path class="b" d="M202.26,6.39c-6.92,3.27-11.35,8.64-13,15.5A17.56,17.56,0,0,0,190.39,25c1.21-8.07,8.1-14.44,14-17.48A6.29,6.29,0,0,0,202.26,6.39Zm5.26,3.29c-7.81,4.86-11.53,11.83-14.35,19.71.4.52.83,1,1.3,1.56,4.16-9.66,6.24-14.94,14.6-19.94C208.56,10.54,208.07,10.12,207.52,9.68Zm4.2,4.23C205,19.82,201,26.53,197.25,33.72q.67.66,1.35,1.26c3.89-8.32,8.79-13.65,14.28-19.57-.35-.51-.75-1-1.16-1.5Zm3.49,4.71c-5.19,6.6-9.62,12.43-14.3,18.44l1.43,1.2c5.22-6.6,9-11.81,13.93-18-.35-.57-.65-1-1.06-1.59Zm3.63,5.21C214.65,30.54,210,35.32,205,40.32c.5.37,1,.77,1.5,1.1,5-5.41,11-9.83,13.43-15.87-.32-.55-.69-1.15-1.07-1.69Zm2.86,5c-3.64,5.68-6.33,11.35-11.3,14.81a16.54,16.54,0,0,0,2,.83c4.53-3.94,7-8.38,9.84-12.77A10.86,10.86,0,0,0,221.7,28.83Z"/><path class="d" d="M237.15,44.1C233,48,224.83,41.16,216.61,29.72,207.45,17,214.24,9.05,219.2,6.06c7.43-4.49,16.35,3,20.93,14.46C244.49,31.44,248.85,33.22,237.15,44.1Z"/><path class="e" d="M229.73,6.72c-7.49,1.52-14.22,5.17-17.59,11.58a14.65,14.65,0,0,0,.42,3.1C216,13.69,225,9.63,231.71,8.16A9,9,0,0,0,229.73,6.72Zm4.69,4.19c-9,2.65-14.94,8.28-20,15.19.3.57.62,1.13,1,1.72,7-8.34,10.72-12.66,20.36-15.33C235.3,11.92,234.8,11.32,234.42,10.91Zm3.35,4.81c-8.31,4-14.33,9.32-20.2,15.3l1.11,1.47c6.45-7,12.67-11,20-15.07-.28-.6-.64-1.23-.9-1.7Zm2.49,5.12c-7.16,4.95-13.17,9.54-19.67,14l1.21,1.48c7-4.87,12.88-9.38,19.23-13.73-.27-.64-.56-1.27-.77-1.75Zm2.51,5.62a91.81,91.81,0,0,1-18.68,12.26c.43.45.88.93,1.31,1.33a91.72,91.72,0,0,0,18.12-11.87Zm1.76,5.23C239.19,36.27,234.87,41,228.92,43a18.4,18.4,0,0,0,1.94,1.2c5.64-2.59,9.47-6.23,13.56-9.75A9.31,9.31,0,0,0,244.53,31.69Z"/><path class="a" d="M261.62,41.73c-2.82,4.84-11.81-.43-22-10.4-11.35-11.1-7.17-20.63-3.44-24.73C241.79.46,251.64,6.26,258.56,17,265.14,27.26,269.51,28.17,261.62,41.73Z"/><path class="b" d="M245.8,5.08c-6.9,3.31-11.35,8.69-13,15.55a17.76,17.76,0,0,0,1.13,3.08c1.1-8.1,8.08-14.48,14-17.52A5.19,5.19,0,0,0,245.8,5.08Zm5.26,3.29c-7.8,4.87-11.53,11.84-14.35,19.71.41.52.83,1,1.3,1.55,4.18-9.66,6.24-14.92,14.6-19.93C252.1,9.23,251.58,8.81,251.06,8.37Zm4.2,4.22c-6.7,5.92-10.67,12.66-14.47,19.83.46.44.91.86,1.36,1.27,4.45-7.72,8.12-14.47,14.33-19.57C256.08,13.59,255.67,13.09,255.26,12.59Zm3.49,4.73c-5.21,6.59-9.6,12.46-14.3,18.45l1.44,1.2c5.18-6.41,9.24-12.32,14-18C259.46,18.32,259.17,17.94,258.75,17.32Zm3.63,5.22c-4.19,6.7-8.79,11.5-13.84,16.46.5.37,1,.77,1.5,1.1a85.35,85.35,0,0,0,13.44-15.87C263.14,23.63,262.69,23,262.38,22.54Zm2.86,5C261.61,33.19,259,38.88,254,42.32a16.54,16.54,0,0,0,2,.83c4.55-3.92,7-8.38,9.84-12.77a10.25,10.25,0,0,0-.58-2.84Z"/><path class="d" d="M280.69,42.79c-4.17,3.88-12.31-2.94-20.54-14.38C251,15.68,257.78,7.74,262.74,4.75c7.44-4.5,16.35,3,20.93,14.46C288,30.13,292.39,31.91,280.69,42.79Z"/><path class="e" d="M273.28,5.4C265.78,6.94,259,10.6,255.66,17a14.65,14.65,0,0,0,.42,3.1c3.43-7.72,12.46-11.8,19.16-13.25a7.83,7.83,0,0,0-2-1.47ZM278,9.58c-9.05,2.66-14.92,8.28-20,15.2.3.57.62,1.13,1,1.72,7-8.34,10.72-12.66,20.36-15.33C278.83,10.6,278.4,10.1,278,9.58Zm3.36,4.82C273,18.32,267,23.72,261.14,29.7l1.1,1.47c6.45-7,12.67-11,20-15.07-.31-.58-.65-1.24-.89-1.7Zm2.49,5.12c-7.29,5.09-12.72,9.16-19.67,14,.4.49.8,1,1.2,1.42,7-4.88,12.89-9.36,19.23-13.73a17.09,17.09,0,0,1-.76-1.69Zm-16.2,17.89c.44.45.88.93,1.31,1.33a92.3,92.3,0,0,0,18.11-11.85c-.22-.57-.47-1.17-.74-1.75a112.28,112.28,0,0,1-18.68,12.27Zm20.47-7c-5.33,4.59-9.67,9.24-15.61,11.29a18.27,18.27,0,0,0,1.93,1.2c5.64-2.58,9.46-6.23,13.56-9.73a10.93,10.93,0,0,0,.12-2.8Z"/><path class="a" d="M300.34,43.38c-3.92,4-11.34-3.33-18.75-15.52-8.26-13.56-1.85-21.76,2.78-24.8,6.94-4.57,15.06,3.48,19.11,15.61C307.33,30.23,311.33,32.19,300.34,43.38Z"/><path class="b" d="M294,4c-7.53,1.47-13.16,5.62-16.45,11.86a17,17,0,0,0,.34,3.27C281,11.46,289.34,7,295.85,5.51A6.93,6.93,0,0,0,294,4Zm4.29,4.5c-8.76,2.78-14.11,8.62-18.78,15.55.26.6.55,1.2.88,1.83,6.43-8.35,9.71-12.92,19.06-15.69A17.45,17.45,0,0,0,298.33,8.45Zm3,5.13c-7.94,4.08-13.5,9.61-18.92,15.64.33.53.67,1.05,1,1.56a69.47,69.47,0,0,1,18.67-15.41A8.49,8.49,0,0,0,301.33,13.58ZM285.19,33.32c.36.52.73,1,1.09,1.52,6.57-5,12-9.57,18-14-.24-.63-.44-1.08-.68-1.8C297,23.94,290.52,29.21,285.19,33.32Zm3.16,4.13c.39.48.79,1,1.18,1.43a84.35,84.35,0,0,0,17-12.1c-.2-.53-.42-1.21-.65-1.82A94,94,0,0,1,288.35,37.45Zm4.35,4.61a16.1,16.1,0,0,0,1.77,1.3c5.38-2.69,8.89-6.39,12.7-10a8.68,8.68,0,0,0,.2-2.92C302.11,34.63,297.87,40.05,292.7,42.06Z"/><path class="d" d="M321.18,42.05c-4.74,3.16-11.68-4.87-18-17.48-7-14,1-20.79,6.35-22.95,8.06-3.24,15.66,5.59,18.34,17.63C330.46,30.73,334.48,33.19,321.18,42.05Z"/><path class="e" d="M319.83,4c-7.64.31-14.87,2.83-19.22,8.61a14.26,14.26,0,0,0-.08,3.13c4.61-7.07,14.18-9.61,21-10A7.79,7.79,0,0,0,319.83,4Zm4,4.89c-9.37,1.16-16.07,5.79-22.23,11.78.21.61.43,1.22.7,1.86,8.21-7.14,12.6-10.76,22.55-11.87-.34-.63-.69-1.2-1-1.77Zm2.54,5.29C317.53,16.69,310.75,21,304,26c.29.55.57,1.09.86,1.62,7.52-5.82,14.23-8.84,22.15-11.67-.22-.61-.42-1.21-.64-1.8ZM328,19.58c-7.85,3.74-14.56,7.26-21.67,10.74.32.55.65,1.08,1,1.59,7.73-3.61,14.22-7.28,21.19-10.47C328.3,20.75,328.15,20.32,328,19.58Zm1.57,6a93.34,93.34,0,0,1-20.42,9.16c.36.51.72,1.06,1.08,1.53A92.89,92.89,0,0,0,330,27.4c-.13-.65-.31-1.32-.45-1.87Zm.91,5.44c-6,3.7-11,7.55-17.23,8.64a16.35,16.35,0,0,0,1.72,1.5c6-1.64,10.37-4.64,15-7.45A9.09,9.09,0,0,0,330.46,31Z"/><path class="a" d="M340.73,43c-4.48,3.36-10.71-5-16.22-18.15C318.38,10.2,326,3.06,331,.74c7.55-3.48,14.37,5.7,16.55,18.3C349.61,31.05,353.28,33.59,340.73,43Z"/><path class="b" d="M340.44,3.08c-7.66.32-13.8,3.55-18,9.21a17.18,17.18,0,0,0-.16,3.28c4.19-7,13.09-10.18,19.73-10.68A6.79,6.79,0,0,0,340.44,3.08ZM344,8.16c-9.08,1.45-15.23,6.41-20.89,12.57.17.63.36,1.27.59,1.94,7.6-7.28,11.55-11.33,21.2-12.66A16.6,16.6,0,0,0,344,8.16Zm2.23,5.53c-8.46,2.85-14.77,7.48-21,12.63.25.57.5,1.14.75,1.69,6.9-6,13.35-9.33,20.82-12.44-.14-.67-.36-1.35-.52-1.88Zm1.37,5.7c-7.37,4-13.67,7.74-20.35,11.42l.85,1.66c7.24-3.95,13.34-7.65,19.9-11.15C347.86,20.59,347.7,19.9,347.58,19.39Zm1.31,6.22a85.22,85.22,0,0,1-19.16,9.76,18.5,18.5,0,0,0,1,1.59,84.7,84.7,0,0,0,18.57-9.42C349.18,26.87,349,26.17,348.89,25.61Zm.7,5.69c-5.57,3.82-10.25,8-16.18,9.25A17.66,17.66,0,0,0,335,42.1c5.72-1.85,9.75-5,14-8a9.75,9.75,0,0,0,.56-2.78Z"/><path class="d" d="M359,42.49c-5.41,1.79-10-7.81-12.66-21.64-3-15.39,6.48-19.77,12.23-20.42,8.63-1,13.61,9.55,13,21.88C371,34.05,374.16,37.49,359,42.49Z"/><path class="e" d="M367.83,5.38c-7.46-1.76-15.1-1.22-20.85,3.2a15,15,0,0,0-.91,3c6.33-5.58,16.22-5.5,22.91-4A7.12,7.12,0,0,0,367.83,5.38Zm2.53,5.8c-9.33-1.38-17,1.3-24.56,5.44a16.7,16.7,0,0,0,.18,2c9.85-4.72,15-7,24.89-5.41C370.73,12.47,370.54,11.83,370.36,11.18Zm1,5.78c-9.2.1-16.9,2.49-24.73,5.45.13.61.26,1.2.39,1.79,8.75-3.63,16.09-4.67,24.41-5.35C371.44,18.19,371.39,17.51,371.36,17Zm.13,5.69c-8.76,1.57-15.38,3-23.73,4.53.16.62.33,1.21.5,1.8,8.41-1.5,15.63-3.15,23.22-4.46C371.5,23.85,371.5,23.11,371.49,22.65Zm-.07,6.15c-7.9,2.32-14.74,2.9-22.13,3.36.21.59.42,1.21.64,1.76a92.41,92.41,0,0,0,21.43-3.23A11.91,11.91,0,0,0,371.42,28.8Zm-.54,5.52c-6.76,2-12.65,4.32-18.91,3.78a17.37,17.37,0,0,0,1.26,1.9c6.21,0,11.21-1.71,16.39-3.2A7.46,7.46,0,0,0,370.88,34.32Z"/><path class="a" d="M379.1,48.47c-5.22,2-8.94-7.73-10.66-21.89C366.53,10.82,375.75,6,381.23,5.15c8.21-1.29,12.27,9.4,10.94,22.12C390.9,39.39,393.74,42.83,379.1,48.47Z"/><path class="d" d="M401.61,52.53c-5.41,1.78-10-7.82-12.66-21.65-3-15.39,6.47-19.77,12.23-20.42,8.63-1,13.6,9.56,13,21.88C413.57,44.08,416.79,47.52,401.61,52.53Z"/><path class="b" d="M389.69,10c-7.45-1.81-14.24-.4-19.85,3.9a17.35,17.35,0,0,0-1,3.12c6.41-6.16,14.21-6.49,21.91-4.85A7.66,7.66,0,0,0,389.69,10Zm2.05,5.88c-9.13-1.1-16.41,2-23.53,6.4v2c9.29-4.93,14.16-7.74,23.81-6.4a15,15,0,0,0-.28-2Zm.63,5.92c-8.91.45-16.25,3.17-23.69,6.42.08.62.17,1.23.26,1.83,8.29-3.91,15.39-5.37,23.43-6.32Zm-.22,5.86c-8.2,1.85-15.26,3.74-22.7,5.44.12.63.24,1.24.37,1.84,8-1.83,14.92-3.74,22.19-5.34.05-.7.06-1.18.14-1.94ZM391.71,34c-7.48,2.62-14.1,3.47-21.15,4.18.16.6.31,1.23.49,1.79a86.58,86.58,0,0,0,20.53-4c0-.61.08-1.36.13-2Zm-.88,5.67c-6.39,2.17-12,4.88-18.08,4.49A15,15,0,0,0,373.82,46c6-.25,10.74-2.15,15.67-3.85a8.25,8.25,0,0,0,1.34-2.56Z"/><path class="e" d="M410.46,15.41c-7.45-1.73-15.08-1.23-20.82,3.18a15,15,0,0,0-.91,3c6.32-5.61,16.28-5.47,23-4A12.16,12.16,0,0,0,410.46,15.41Zm2.53,5.8c-9.34-1.37-17,1.3-24.56,5.44a16.7,16.7,0,0,0,.18,2c9.85-4.72,15-7,24.89-5.42-.15-.71-.35-1.43-.52-2ZM414,27c-9.21.09-16.88,2.51-24.73,5.45q.18.91.39,1.8c8.73-3.83,16.2-4.46,24.46-5.35A11,11,0,0,0,414,27Zm.13,5.69c-8.76,1.58-15.39,3-23.74,4.54.17.61.33,1.21.51,1.79,8.41-1.5,15.62-3.13,23.21-4.45C414.12,33.88,414.12,33.14,414.12,32.68Zm-.07,6.15a93.69,93.69,0,0,1-22.13,3.36c.21.59.41,1.21.63,1.76A93,93,0,0,0,414,40.73,13.36,13.36,0,0,0,414.05,38.83Zm-.54,5.49c-6.76,2-12.65,4.28-18.91,3.78a17.37,17.37,0,0,0,1.26,1.9c6.2,0,11.2-1.7,16.38-3.22A7.12,7.12,0,0,0,413.51,44.32Z"/><path class="a" d="M416.12,62.17c-5.45,1.28-7.81-8.87-7.58-23.14.26-15.87,10-19.39,15.59-19.49,8.31-.15,10.88,11,7.83,23.41C429.05,54.78,431.39,58.57,416.12,62.17Z"/><path class="b" d="M431.86,25.48c-7.14-2.73-14.09-2.25-20.21,1.24a18.06,18.06,0,0,0-1.46,3c7.12-5.33,15-4.54,22.37-1.87A7.11,7.11,0,0,0,431.86,25.48Zm1.22,6.05c-8.9-2.32-16.52-.21-24.18,3.14-.09.65-.17,1.31-.23,2,9.88-3.61,15.12-5.75,24.5-3.09C433.16,32.86,433.12,32.15,433.08,31.53Zm-.18,6c-8.9-.78-16.52.95-24.34,3.14v1.85c8.75-2.76,16-3.2,24.06-3.05C432.74,38.8,432.83,38.08,432.9,37.53Zm-1,5.77c-8.55.75-15.06,1.56-23.22,2.3,0,.64.07,1.26.11,1.87,8.22-.7,15.3-1.68,22.72-2.27.1-.7.27-1.36.39-1.88Zm-1.29,6.22a85,85,0,0,1-21.48,1.26c.08.62.15,1.27.24,1.85a85.79,85.79,0,0,0,20.8-1.22c.12-.66.31-1.37.44-1.89ZM429,55c-6.62,1.27-12.6,3.22-18.53,2a15.68,15.68,0,0,0,.79,2c6,.6,10.91-.61,16-1.6A8.25,8.25,0,0,0,429,55Z"/><path class="d" d="M433.32,76.61c-5.69.44-7.83-10-7.17-24,.74-15.66,11-17.66,16.74-16.93,8.62,1.1,10.94,12.52,7.41,24.34C447,71.25,449.24,75.32,433.32,76.61Z"/><path class="e" d="M450.72,42.69c-6.81-3.47-14.32-4.77-20.94-1.87a15,15,0,0,0-1.6,2.7c7.47-3.93,17.07-1.47,23.24,1.53a10.32,10.32,0,0,0-.7-2.36Zm1.09,6.2c-8.72-3.51-16.87-2.8-25.15-.61-.12.63-.22,1.27-.3,2,10.68-2.25,16.21-3.22,25.47.63v-2Zm-.37,5.86c-9-2.08-17-1.55-25.32-.55V56c9.22-.77,17-1.56,25,.61C451.24,56,451.35,55.37,451.44,54.75Zm-1.23,5.57c-8.88-.56-15.68-.74-24.16-1.23q0,.94.06,1.86c8.52.55,15.92.65,23.61,1.19.19-.66.26-1.13.49-1.82Zm-1.52,6a93.32,93.32,0,0,1-22.3-2c.06.63.11,1.28.19,1.86a93.94,93.94,0,0,0,21.55,1.94c.2-.58.41-1.23.56-1.8Zm-1.87,5.19c-7,.29-13.32,1.22-19.26-.84a18.35,18.35,0,0,0,.77,2.15c6,1.48,11.29,1,16.68.81a11.47,11.47,0,0,0,1.81-2.12Z"/><path class="a" d="M445.11,89.42c-5.59,0-5.47-10.47-1.86-24.27,4-15.36,14.37-16.45,19.77-15.24,8.12,1.83,8,13.26,2,24.6C459.43,85.32,460.8,89.55,445.11,89.42Z"/><path class="b" d="M469.12,57.52c-6.28-4.39-13.14-5.58-19.92-3.63a18.17,18.17,0,0,0-2.12,2.51c8.94-2.93,15.26-1.08,22.18,3.5a7.62,7.62,0,0,0-.14-2.38Zm-.26,6.2c-8.09-4.36-16-4.16-24.23-2.7-.25.61-.48,1.23-.7,1.9,10.51-1.18,16-2,24.53,2.85.17-.72.28-1.38.4-2Zm-1.58,5.74c-8.47-2.79-16.3-3.14-24.44-2.74-.15.61-.29,1.21-.43,1.8,9.15-.61,16.28.7,24.1,2.75.3-.61.54-1.21.77-1.81Zm-2.37,5.37c-8.48-1.33-15-2.07-23.1-3.29-.12.63-.23,1.24-.33,1.84,8.15,1.27,15.25,2,22.6,3.2.3-.63.49-1.08.83-1.75Zm-2.73,5.73c-7.91-.33-14.39-1.93-21.2-3.87-.07.62-.16,1.26-.21,1.84a83.21,83.21,0,0,0,20.51,3.79C461.56,81.79,461.9,81.16,462.18,80.56Zm-2.9,5c-6.74-.35-13,.14-18.47-2.48a14.46,14.46,0,0,0,.29,2.18c5.67,2,10.76,2,16,2.2a18.06,18.06,0,0,0,2.2-1.9Z"/><path class="d" d="M454.72,105.85c-5.44-1.71-3.53-12.16,2.36-25,6.54-14.25,16.8-12.27,21.85-9.44,7.58,4.24,5.47,15.7-2.23,25.34C469.36,106,470,110.65,454.72,105.85Z"/><path class="e" d="M483.54,80.91c-5-5.76-11.51-9.79-18.74-9.59a14.38,14.38,0,0,0-2.49,1.9c8.41-.84,16.4,5,21,10.1a7.23,7.23,0,0,0,.26-2.41Zm-1.3,6.19c-6.78-6.56-14.58-8.9-23.11-9.92-.35.54-.68,1.09-1,1.7C468.83,80.8,474.42,82,481.51,89c.25-.65.55-1.45.73-1.91Zm-2.53,5.3c-7.52-5.29-15.15-7.84-23.23-10-.25.56-.5,1.13-.73,1.68,9.25,2.21,15.81,5.56,23,9.94C479.05,93.46,479.49,92.76,479.71,92.4Zm-3.22,4.69c-8-3.83-14.24-6.54-21.92-10.17-.22.59-.43,1.18-.63,1.75,7.7,3.69,14.51,6.56,21.44,9.94.36-.57.84-1.17,1.11-1.52Zm-3.64,5a92.66,92.66,0,0,1-19.93-10.16c-.17.6-.37,1.22-.51,1.8a91.61,91.61,0,0,0,19.29,9.91C472.08,103.09,472.54,102.49,472.85,102.09Zm-3.68,4.11c-6.63-2.36-12.81-3.85-17.54-8a15.68,15.68,0,0,0-.1,2.27c5,3.65,10.11,5.15,15.18,7a13.64,13.64,0,0,0,2.46-1.27Z"/><path class="a" d="M460.87,122.15c-5.18-2.14-1.16-11.76,7.35-23.21,9.48-12.73,19.48-9.87,24-6.72,6.84,4.73,2.42,15.27-7.31,23.57C475.68,123.7,475.36,128.14,460.87,122.15Z"/><path class="b" d="M495.07,101.55C490.89,95.14,485,91.47,478,90.73a18,18,0,0,0-2.93,1.59c8.19,0,15.46,6.08,19.25,11.55A8.23,8.23,0,0,0,495.07,101.55Zm-2.56,5.66c-5.87-7.08-13.28-9.83-21.46-11.58-.46.47-.91,1-1.36,1.5,10.15,2.85,15.65,4.15,21.69,11.84Zm-3.62,4.73c-6.77-5.79-13.94-8.9-21.59-11.62-.37.51-.73,1-1.08,1.51,8.73,2.83,14.81,6.77,21.32,11.57.44-.52.92-1,1.35-1.46Zm-4.2,4.09c-7.26-4.24-13.64-7.87-20.23-11.69l-1,1.58c7.07,4.22,13.38,7.59,19.76,11.42C483.77,116.87,484.11,116.52,484.69,116ZM480,120.32c-7.2-3.26-12.6-7.16-18.18-11.51-.29.55-.62,1.11-.88,1.64a84.12,84.12,0,0,0,17.58,11.17C479,121.23,479.53,120.77,480,120.32Zm-4.55,3.51c-6.12-2.84-12.09-4.76-16.2-9.21a15.68,15.68,0,0,0-.54,2.12c4.5,4,9.26,5.85,14,8a10.67,10.67,0,0,0,2.75-.95Z"/><path class="d" d="M466.64,138c-3.86-4.21,3-12.3,14.52-20.45,12.79-9.06,20.68-2.22,23.64,2.76,4.44,7.47-3.11,16.33-14.6,20.83C479.25,145.38,477.44,149.72,466.64,138Z"/><path class="e" d="M504.08,130.79c-1.48-7.5-5.08-14.27-11.45-17.71a17.19,17.19,0,0,0-3.12.4c7.7,3.47,11.68,12.53,13.11,19.25a8.17,8.17,0,0,0,1.46-1.94Zm-4.22,4.65c-2.6-9.06-8.18-15-15.06-20.15-.56.3-1.13.61-1.72,1,8.31,7,12.57,10.81,15.19,20.47.57-.44,1.07-.88,1.59-1.32ZM495,138.77c-3.87-8.36-9.23-14.37-15.14-20.31-.5.37-1,.73-1.47,1.1,7,6.46,10.82,12.84,15,20.09.54-.28,1.1-.57,1.61-.88Zm-5.14,2.45C484.94,134,480.4,128,476,121.45c-.49.41-1,.8-1.43,1.2,4.85,7,9.26,13,13.6,19.32C488.73,141.73,489.49,141.38,489.84,141.22Zm-5.63,2.47c-5.36-6.23-8.73-12.28-12.17-18.79-.45.44-.93.88-1.34,1.3a92.57,92.57,0,0,0,11.69,18.21c.64-.23,1.27-.5,1.82-.72ZM479,145.42c-4.58-5.34-9.18-9.75-11.2-15.69a16,16,0,0,0-1.22,1.92c2.53,5.66,6.13,9.52,9.61,13.63a7.19,7.19,0,0,0,2.81.14Z"/><path class="a" d="M463.81,155.14c-3.41-4.44,4.88-10.77,18-16.42,14.58-6.3,21.81,1.18,24.18,6.19,3.56,7.52-5.54,14.44-18.12,16.76C475.86,163.88,473.37,167.58,463.81,155.14Z"/><path class="b" d="M503.76,154.4c-.41-7.66-3.71-13.79-9.44-17.93a18.08,18.08,0,0,0-3.29-.12c7.79,4.32,10.3,11.79,10.9,19.63a7.47,7.47,0,0,0,1.83-1.58Zm-5,3.62c-1.53-9.09-6.58-15.15-12.81-20.76-.63.18-1.26.38-1.93.62,7.38,7.52,11.46,11.41,12.9,21.06Zm-5.58,2.3c-2.93-8.44-7.66-14.68-12.86-20.91l-1.68.78c5.31,7.07,10.51,13,12.67,20.68Zm-5.68,1.45c-4.07-7.35-7.92-13.54-11.64-20.21l-1.66.87c4,7.19,7.77,13.26,11.39,19.77.69-.2,1.39-.33,1.91-.43Zm-6.2,1.37c-4.61-6.42-7.33-12.5-10-19-.53.32-1.1.65-1.58,1a85.55,85.55,0,0,0,9.61,18.47,16.76,16.76,0,0,1,2-.47Zm-5.69.77c-3.87-5.53-8.12-10.16-9.42-16.08a15.21,15.21,0,0,0-1.54,1.57c1.92,5.69,5.08,9.69,8.1,13.95a12.7,12.7,0,0,0,2.86.56Z"/><path class="d" d="M462.86,172.25c-1.41-5.52,8.47-9.41,22.45-11.16,15.56-2,19.29,7.81,19.54,13.6.39,8.68-10.46,12.92-22.71,11.46C470.47,184.76,466.82,187.73,462.86,172.25Z"/><path class="e" d="M499.24,183.61c2.27-7.32,2.29-15-1.72-21a15.27,15.27,0,0,0-2.93-1.12c5.15,6.7,4.39,16.57,2.48,23.16a8.06,8.06,0,0,0,2.17-1.05Zm-5.91,2.13c2-9.23-.15-17.1-3.81-24.88h-2c4,10.1,6,15.44,3.73,25.19A13.21,13.21,0,0,0,493.33,185.74Zm-5.84.64c.53-9.19-1.33-17-3.76-25l-1.81.27c3,9,3.58,16.4,3.67,24.77C486.23,186.39,486.86,186.39,487.49,186.38Zm-5.69-.26c-.95-8.67-2-16.1-2.91-24l-1.82.38c1,8.48,2,15.75,2.86,23.42.67.09,1.14.11,1.87.19Zm-6.13-.49a93.25,93.25,0,0,1-1.84-22.3c-.61.17-1.24.33-1.8.51a93.09,93.09,0,0,0,1.75,21.59c.57.07,1.25.16,1.89.2Zm-5.43-.95c-1.49-6.88-3.46-12.92-2.47-19.12a17,17,0,0,0-2,1.12c-.43,6.2.94,11.3,2.07,16.58A7.13,7.13,0,0,0,470.24,184.68Z"/><path class="a" d="M452.25,186.07c-.91-5.53,9.38-7.19,23.6-6,15.82,1.34,18.66,11.35,18.38,16.88-.41,8.31-11.7,10.11-23.88,6.22C458.74,199.47,454.8,201.55,452.25,186.07Z"/><path class="b" d="M487.78,204.32c3.25-6.94,3.24-13.88.18-20.24a17.14,17.14,0,0,0-2.84-1.66c4.4,8.3,3.69,14.85.33,22.44a7.2,7.2,0,0,0,2.33-.54Zm-6.15.81c2.92-8.73,1.35-16.51-1.5-24.38-.64-.14-1.3-.26-2-.37,2.93,10.1,4.72,15.48,1.42,24.65a16.05,16.05,0,0,0,2.08.05Zm-5.93-.59c1.39-8.82.18-16.55-1.46-24.5l-1.85-.11c2.15,8.92,2.11,16.14,1.4,24.21C474.44,204.29,475.07,204.43,475.7,204.54ZM470,203.08c-.13-8.4-.55-15.69-.71-23.32H467.4c.14,8.23.61,15.38.71,22.82.7.17,1.17.28,1.87.5Zm-6.12-1.71a86.5,86.5,0,0,1,.2-21.51,10.39,10.39,0,0,0-1.85.11,85.32,85.32,0,0,0-.23,20.82l1.88.58Zm-5.37-2c-.81-6.7-2.34-12.79-.72-18.62a18.78,18.78,0,0,0-2.09.66c-1,5.93-.09,11,.55,16.13a15.87,15.87,0,0,0,2.26,1.83Z"/><path class="d" d="M439.05,204.65c.33-5.66,11.6-6.4,26.34-3.89,16.41,2.8,17.07,13.16,15.48,18.72-2.37,8.35-14.73,9.13-26.7,4.09C442.77,218.77,438.12,220.5,439.05,204.65Z"/><path class="e" d="M472.34,226.32c4.76-6.31,6.81-13.25,4.93-20.42a15.53,15.53,0,0,0-2.62-1.93c3.11,7.92-.92,17.12-4.9,22.68A8.73,8.73,0,0,0,472.34,226.32Zm-6.69.28c4.94-8.09,5.33-16.17,4.13-24.7-.64-.2-1.31-.38-2-.55.84,11,1.14,16.4-4.27,25,.73.07,1.54.17,2.14.25Zm-6.13-1.13C463,217,463.59,209,463.71,200.6l-1.93-.28c.17,9.54-1.6,16.58-4.18,24.57.62.19,1.34.38,1.92.53Zm-5.68-1.95c1.78-8.48,3.11-15.89,4.7-23.6-.67-.07-1.32-.14-2-.19-1.62,8.34-3.15,15.54-4.53,23.09a11.9,11.9,0,0,1,1.83.7Zm-6.07-2.29A87.52,87.52,0,0,1,453,199.49c-.66,0-1.36-.06-2,0a87.83,87.83,0,0,0-5.07,21,14.77,14.77,0,0,1,1.86.69Zm-5.21-2.52c.7-7,.59-13.37,3.63-18.86a21.13,21.13,0,0,0-2.37.47c-2.42,5.74-2.65,11-3.19,16.37a10.59,10.59,0,0,0,1.93,2Z"/><path class="a" d="M423.87,214.57c.84-5.5,11.82-4,25.85,1.37,15.62,6,15.31,16.33,13.26,21.49-3.06,7.75-15.1,6.09-26.21-1.23C426.18,229.22,421.52,230,423.87,214.57Z"/><path class="b" d="M454.11,242.47c5.41-5.51,7.74-12.08,6.64-19.14a17.92,17.92,0,0,0-2.35-2.42c2.21,8-2.29,16.49-6.83,21.38a12,12,0,0,0,2.54.18Zm-6.5-1.15c5.69-7.3,6.62-15.12,6.27-23.51-.61-.33-1.24-.64-1.91-.94-.26,10.64-.2,16.09-6.43,23.74a10.13,10.13,0,0,0,2.07.71ZM441.78,239c4.21-7.9,5.47-15.59,6.34-23.67l-1.84-.66c-.68,9.21-3,16-6.31,23.38a13.55,13.55,0,0,0,1.81.95Zm-5.32-3c2.52-8,4.44-15,6.71-22.32l-1.89-.57C438.79,221,437,227.87,434.72,235c.63.37,1.07.62,1.74,1.05Zm-5.66-3.45c1.47-7.79,4.07-13.91,7.07-20.33-.64-.15-1.31-.32-1.92-.44a81.2,81.2,0,0,0-6.88,19.67C429.59,231.78,430.21,232.2,430.8,232.55ZM426,229c1.3-6.66,1.75-12.88,5.22-17.87a18.12,18.12,0,0,0-2.33,0c-2.88,5.29-3.6,10.33-4.58,15.46A8.46,8.46,0,0,0,426,229Z"/><path class="d" d="M407.89,216.43c3.69-4.34,12.57,1.49,22.07,11.9,10.57,11.58,4.75,20.26.17,23.81-6.86,5.32-16.59-1.09-22.47-11.94C402.06,229.86,397.53,228.6,407.89,216.43Z"/><path class="e" d="M419.61,252.71c7.26-2.39,13.54-6.79,16.16-13.54a14.86,14.86,0,0,0-.77-3c-2.62,8.79-9.9,12.79-17.51,15.37A8.61,8.61,0,0,0,419.61,252.71Zm-5.16-3.61c8.68-3.68,13.88-9.95,18.15-17.4-.36-.53-.74-1-1.17-1.6-5.95,9.12-9.16,13.79-18.44,17.59.48.5,1,.94,1.46,1.41Zm-3.89-4.4c7.81-4.87,13.13-10.92,18.29-17.52-.42-.45-.85-.89-1.27-1.33-5.63,7.66-11.28,12.4-18.11,17.29C409.83,243.68,410.19,244.19,410.56,244.7Zm-3.07-4.79c6.65-5.91,11.59-10.58,17.91-16.25-.45-.44-.91-.86-1.36-1.27-6.4,5.65-11.71,10.8-17.51,15.87.37.58.75,1.27,1,1.65Zm-3.14-5.29a94.83,94.83,0,0,1,17.15-14.38c-.48-.39-1-.82-1.45-1.17A93,93,0,0,0,403.42,233c.28.5.56,1.11.93,1.66Zm-2.36-5c4.76-5.2,8.55-10.29,14.2-13.05a19.56,19.56,0,0,0-2.06-1c-5.3,3.24-8.7,7.27-12.34,11.26a9,9,0,0,0,.2,2.79Z"/><path class="a" d="M390.48,215.74c4-3.93,11.28,3.52,18.5,15.82,8,13.69,1.51,21.78-3.17,24.76-7,4.45-15-3.73-18.86-15.93C383.28,228.77,379.31,226.75,390.48,215.74Z"/><path class="b" d="M396.12,255.26c7.54-1.35,13.23-5.36,16.64-11.54a17.13,17.13,0,0,0-.28-3.27c-3.34,8.27-10.47,11.66-18.18,13.22a8.36,8.36,0,0,0,1.82,1.59Zm-4.21-4.56c8.8-2.64,14.24-8.39,19-15.25-.25-.61-.53-1.21-.85-1.84-6.56,8.25-9.92,12.77-19.32,15.38.37.61.76,1.15,1.15,1.71ZM389,245.52c8-4,13.65-9.38,19.17-15.33-.32-.54-.65-1.06-1-1.58-6,7-12.12,10.92-19,15.16C388.44,244.32,388.69,244.94,389,245.52Zm-2.13-5.46c6.92-5.08,12-9.16,18.63-14-.36-.53-.71-1-1.06-1.53-6.69,4.83-12.19,9.47-18.28,13.74a13.07,13.07,0,0,0,.71,1.83Zm-2.13-6c5.77-5.4,11.53-8.76,17.66-12.26-.39-.49-.78-1-1.16-1.45a84.86,84.86,0,0,0-17.15,11.83c.19.66.46,1.35.65,1.88Zm-1.45-5.55c5-4.53,9.1-9.27,14.79-11.33a17.39,17.39,0,0,0-1.74-1.33c-5.42,2.61-9,6.24-12.85,9.76a9.74,9.74,0,0,0-.2,2.9Z"/><path class="d" d="M371.49,209.81c5.53-2.24,11.09,7.13,15.06,20.95,4.41,15.39-5.17,20.58-11.15,21.7-9,1.68-15-8.61-15.41-21.17C359.65,219.32,356,216.09,371.49,209.81Z"/><path class="e" d="M365.26,248.15c7.93,1.13,15.88,0,21.62-4.92a14.54,14.54,0,0,0,.71-3.12C381.34,246.33,371,247,363.87,246A6,6,0,0,0,365.26,248.15Zm-3.13-5.66c9.84.67,17.72-2.65,25.31-7.47-.09-.65-.2-1.3-.35-2-9.92,5.59-15.22,8.3-25.65,7.51C361.63,241.21,362,242.05,362.13,242.49Zm-1.56-5.78c9.61-.82,17.48-3.88,25.48-7.5-.18-.61-.37-1.2-.56-1.79-8.95,4.41-16.5,6-25.2,7.38.08.65.17,1.28.28,1.91ZM360,231c8.82-2.32,16.54-4.35,24.51-6.5-.22-.61-.45-1.2-.67-1.78-8.68,2.21-16.12,4.41-24,6.37A19.14,19.14,0,0,1,360,231Zm-.44-6.25c8.09-3,15.27-4.16,22.93-5.17-.27-.58-.53-1.2-.81-1.74a99.89,99.89,0,0,0-22.19,5,17.69,17.69,0,0,0,.07,1.93Zm.16-5.62c6.94-2.53,12.93-5.41,19.52-5.32a18.5,18.5,0,0,0-1.48-1.83c-6.48.51-11.61,2.61-16.92,4.55a7.34,7.34,0,0,0-1.12,2.6Z"/><path class="a" d="M355.49,201.17c5.6-1.73,8.91,8.39,9.84,22.88,1,16.13-8.94,20.48-14.74,21-8.7.81-12.31-10.29-10.13-23.14C342.53,209.7,339.77,206,355.49,201.17Z"/><path class="b" d="M342,239.63a24.71,24.71,0,0,0,21.13-2.83,17.49,17.49,0,0,0,1.29-3.1c-6.63,5.42-16.54,5.42-23.31,3.67a5.91,5.91,0,0,0,.89,2.26Zm-1.79-6c9.47,1.64,17.33-1.07,25.1-5.11,0-.67.07-1.34.08-2.06-10.1,4.5-15.42,7-25.44,5.09a18.23,18.23,0,0,0,.28,2.08Zm-.3-6.06c9.36.08,17.24-2.25,25.27-5.11-.05-.64-.1-1.27-.16-1.88a75.59,75.59,0,0,1-25,5c-.05.69-.09,1.38-.13,2Zm.6-5.94c8.92-1.44,15.67-2.78,24.18-4.2-.09-.65-.18-1.27-.27-1.89-8.73,1.45-15.39,2.79-23.63,4.11-.1.73-.19,1.4-.26,2Zm.84-6.42c8-2.21,14.92-2.69,22.38-3-.14-.62-.26-1.27-.41-1.85a92.25,92.25,0,0,0-21.68,2.86c-.11.69-.21,1.37-.29,2Zm1.27-5.71c6.86-1.82,12.95-4.26,19.27-3.48a16.22,16.22,0,0,0-1-2c-6.3-.11-11.4,1.52-16.69,3a10.47,10.47,0,0,0-1.58,2.52Z"/><path class="d" d="M338.66,188.06c5.69-.31,7.58,10.14,6.59,24.19-1.12,15.64-11.41,17.4-17.14,16.53-8.59-1.31-10.64-12.77-6.83-24.51C324.92,193.09,322.7,188.93,338.66,188.06Z"/><path class="e" d="M320.45,221.55c6.74,3.63,14.24,5.13,20.93,2.36a14.55,14.55,0,0,0,1.66-2.65c-8.93,3.62-15.72,1.83-23.19-2.11A8.21,8.21,0,0,0,320.45,221.55Zm-.94-6.23c8.65,3.75,16.79,3.2,25.13,1.15.14-.62.25-1.26.35-2-10.69,2-16.33,2.86-25.46-1.24v2.09Zm.5-5.85c8.92,2.3,17,2,25.31,1.17,0-.61.06-1.23.08-1.83a73.22,73.22,0,0,1-25-1.23c-.16.64-.3,1.39-.39,1.89Zm1.37-5.52c8.67.78,16.19,1.11,24.09,1.8v-1.86c-8.5-.74-15.82-1-23.51-1.75-.26.64-.36,1.11-.58,1.81ZM323,198a95,95,0,0,1,22.28,2.53,14.73,14.73,0,0,0-.15-1.87,99,99,0,0,0-21.49-2.51A15,15,0,0,0,323,198Zm2-5.14c7-.13,13.35-.9,19.24,1.3a16.72,16.72,0,0,0-.72-2.17c-6-1.62-11.27-1.27-16.66-1.18a9.29,9.29,0,0,0-1.86,2Z"/><path class="a" d="M318.06,172.62c5.32-1.73,8.51,8.2,9.46,22.43,1,15.84-8.42,20.16-13.93,20.72-8.27.84-11.75-10.06-9.73-22.68C305.78,181.05,303.14,177.47,318.06,172.62Z"/><path class="b" d="M305.4,210.48a23,23,0,0,0,20-2.82,17.55,17.55,0,0,0,1.21-3.06c-6.2,5.34-15.71,5.39-22.14,3.71A7.74,7.74,0,0,0,305.4,210.48Zm-1.73-6c9.06,1.59,16.5-1.13,23.84-5.12.05-.65.07-1.32.07-2-9.55,4.41-14.6,7-24.16,5.1a13.39,13.39,0,0,0,.25,2Zm-.31-5.95c8.95.08,16.43-2.34,24.05-5.12-.05-.63-.11-1.24-.17-1.85-8.47,3.47-15.66,4.51-23.73,5-.08.62-.13,1.61-.15,1.94Zm.54-5.83c8.47-1.45,14.88-2.8,23-4.22-.09-.63-.18-1.25-.27-1.85-8.13,1.38-15.1,2.94-22.45,4.13C304.07,191.41,304,192.39,303.9,192.7Zm.78-6.31a86.61,86.61,0,0,1,21.3-3c-.13-.61-.25-1.25-.39-1.82A86,86,0,0,0,305,184.45c-.06.62-.2,1.6-.25,1.94Zm1.18-5.61c6.53-1.84,12.32-4.22,18.35-3.51a19.63,19.63,0,0,0-1-2c-6-.11-10.84,1.56-15.86,3a12.25,12.25,0,0,0-1.49,2.54Z"/><path class="d" d="M297.54,160.32c5.55-1.31,9.24,8.65,10.71,22.66,1.64,15.6-8.18,19.13-14,19.27-8.68.22-12.71-10.71-11-22.93C284.89,167.67,282,164,297.54,160.32Z"/><path class="e" d="M285.47,196.45c7.26,2.39,14.91,2.55,21-1.34a14.35,14.35,0,0,0,1.18-2.9c-6.79,5-16.65,4.08-23.2,2a7.37,7.37,0,0,0,1,2.21Zm-2-5.94c9.19,2.16,17.08.21,24.95-3.26v-2c-10.23,3.83-15.52,5.68-25.27,3.22.07.72.2,1.38.32,2Zm-.53-5.85c9.18.71,17.05-1,25.12-3.26-.07-.62-.15-1.22-.23-1.82-9.07,2.83-16.45,3.27-24.83,3.18,0,.64-.06,1.27-.06,1.9Zm.38-5.68c8.85-.8,15.59-1.64,24-2.44-.11-.62-.23-1.23-.35-1.83-8.5.76-15.77,1.78-23.46,2.44-.09.63-.11,1.1-.21,1.83Zm.6-6.12c8.09-1.6,15-1.63,22.38-1.4-.16-.61-.3-1.25-.47-1.81A92.16,92.16,0,0,0,284.21,171c-.12.57-.21,1.24-.29,1.88Zm1.06-5.41c6.91-1.35,13-3.24,19.17-2.09a19.28,19.28,0,0,0-1.08-2c-6.18-.54-11.32.7-16.61,1.74a10.68,10.68,0,0,0-1.48,2.35Z"/><path class="c" d="M245.77,116.6c20,0,36.66,9.36,38.58,28.42a36.05,36.05,0,0,1,0,3.89v59.46A10.39,10.39,0,0,1,282,215l-24.6,30.15a1.61,1.61,0,0,1-1.4,1.22l-5.9-14,14.47-17.79a26.81,26.81,0,0,0,6.08-17V154.43a19.7,19.7,0,0,0,0-2.43C269.18,138,253,136.32,246.05,136.32Z"/><path class="f" d="M284.49,292.55a87,87,0,0,0-8.89-4.07c-1.27,5.9-1,16.81-1.69,20.13-3.51,17.56-9.74,31.37-24,42.75,19.94.23,41.34-19.34,45.65-38.49v-11.8A60.2,60.2,0,0,0,284.49,292.55Z"/><path class="f" d="M298,380.53c-15.59,12.73-21.68,42.13-6.09,55.06l11.47,1.4c-3.56-14,6.32-37.13,14.05-44.15a46.3,46.3,0,0,1,49.86-8.61C352.19,363.62,315.35,366.32,298,380.53Z"/><path class="f" d="M383.19,328.65c6.46-17.32-6.23-35.21-23.88-38.72-20.09-4.07-34.74,14.05-47.85,25.94-14,13-25,30.34-42.14,40.64-7.54,4.68-36.66,14-29.54,24.11,13.39,19.15,66.39-30.2,74.49-39.7s16.06-23.41,27.25-29.87c12.41-7.12,35.91-5,40.59,11.33Z"/><path class="f" d="M307.43,428c10.07,9.87,21.82,24.34,37.46,22.28,23.45-.84,32.63-22.71,32.63-22.71a32,32,0,0,1,4,4.69c8.57,12.78,2.67,34.92-7.73,45.08-11.89,11.66-30.19,12.46-45.55,8.38-21.54-5.75-34.32-25.65-46.12-42.93-5.9-8.57-32.4-59.27-42.14-58.06C267.92,381.37,290,410.63,307.43,428Z"/><path class="f" d="M206.68,292.32a73.83,73.83,0,0,1,8.89-4c1.22,5.9.89,16.86,1.55,20.18,3.42,17.56,9.36,31.42,23.74,42.89-20,0-41.25-19.62-45.42-38.82v-12A59.44,59.44,0,0,1,206.68,292.32Z"/><path class="f" d="M192.68,380.15c15.49,12.83,21.39,42.14,5.76,55.11L187,436.62c3.66-14.05-6.08-37.18-13.67-44.3a46.54,46.54,0,0,0-49.86-8.89C138.65,363,175.35,366.11,192.68,380.15Z"/><path class="f" d="M107.75,328c-6.33-17.37,6.41-35.16,24.11-38.58,20.13-3.94,34.64,14,47.71,26.26,14,13.07,24.72,30.44,41.81,40.88,7.54,4.68,36.61,14,29.45,24.3-13.53,19.05-66.21-30.62-74.31-40.17s-15.91-23.41-27.06-30.06c-12.36-7.17-36-5.34-40.73,11.09Z"/><path class="f" d="M182,429.09c-29.55,31.52-69.5,25.82-73.24,2.56-8.62,12.74-2.9,34.93,7.44,45.14,11.9,11.75,30.16,12.64,45.51,8.66,21.59-5.62,34.46-25.42,46.4-42.61,6-8.56,32.78-59.13,42.42-57.87C222.74,381.23,199.52,412,182,429.09Z"/><path class="f" d="M263.24,287.21c0,36.57-8.15,66.21-17.94,66.21s-17.65-29.73-17.55-66.3S236,221,245.75,221,263.24,250.6,263.24,287.21Z"/><path class="f" d="M250,287.68h-8.71a13.3,13.3,0,0,1-13.69-12.89v-1.15l3.6-55.16a10.58,10.58,0,0,1,11.43-8.33h6.6a10.64,10.64,0,0,1,11.38,8.43l3.27,55.2a13.34,13.34,0,0,1-12.75,13.9A10.65,10.65,0,0,1,250,287.68Z"/><path class="f" d="M311.27,257.16c2.34-5.81,11-24.82,18.73-43.13H319.75c-17.3,24-38.39,52.07-43.61,72.23l21.63,11.21c-1.61-4.44-1.78-9.86-1.34-14.33C297.6,272.47,307.53,266.57,311.27,257.16Z"/><path class="g" d="M161.68,213.52c7.59,18.35,16.11,37.45,18.4,43.21,3.7,9.37,13.63,15.36,14.66,26.08.41,4.35.3,9.62-1.21,14l21.11-12.36c-5.77-20-26-47.39-42.75-70.88Z"/><path class="h" d="M245.87,272c-47.38,0-86,51.12-86.15,114.47s38.07,115,85.44,115.13,86-51.22,86.15-114.57S293.28,272.14,245.87,272Zm-.61,203.48c-39.86,0-72.07-41.67-71.93-92.89s32.86-92.47,72.49-92.38,72.06,41.67,71.88,92.84-32.59,92.57-72.44,92.43Z"/><path class="i" d="M317.22,392c-13.16-11.85-4-39.43,14-26.55C346.34,376.32,335.06,408.24,317.22,392Z"/><path class="i" d="M218.29,283.09c0-9.64,12.26-17.41,27.34-17.37s27.3,7.92,27.3,17.51-12.32,17.33-27.39,17.33S218.24,292.69,218.29,283.09Z"/><path class="i" d="M173.29,391.58c13.25-11.76,4.26-39.38-13.71-26.64C144.31,375.75,155.55,407.49,173.29,391.58Z"/><path class="i" d="M283,373.58c0,52.47-25.82,135.74-38.41,135.74s-37.67-83.43-37.52-136,25.44-54.28,38.14-54.23S283.17,321.06,283,373.58Z"/><path class="j" d="M279.72,381.7c0,50.38-23.41,130.34-34.84,130.3s-34.18-80.11-34-130.54,23.1-52.14,34.56-52.06S279.9,331.32,279.72,381.7Z"/><path class="k" d="M245,485.87c-7.26-9.78-21.64-60.44-21.54-96s14.84-35.67,22-35.67,21.81,0,21.72,35.81S252.33,476.13,245,485.87Z"/><path class="l" d="M256.55,389.59a197.63,197.63,0,0,1,2.84,28.62,187.07,187.07,0,0,0,1.93-24.45C261.41,361,248.66,361,242.49,361h-1.38s11.7,8.61,15.44,28.61Z"/></svg>