<svg xmlns="http://www.w3.org/2000/svg" viewBox="0 0 512 512"><defs><style>.a{fill:#c4c0c1;}.b{fill:#bab6b6;}.c{fill:#d3d3d3;}.d{fill:#998c90;}.e{fill:#604046;}.f{fill:#422c30;}.g{fill:#b8b7bd;}.h{fill:#b79157;}.i{fill:#bd9a65;}.j{fill:#7a5230;}.k{fill:#815733;}.l{fill:#c6aa2f;}.m{fill:#7e545d;}</style></defs><title>aeris</title><path class="a" d="M512-.06,249.8,249.88,112,399.9l55.1-.35L195,364.14l19.7,10.37c115.81-91.64-6.4-35.07,29.62-75.23,32.39-32.21,59.42-27.29,85.67-16.92Z"/><path class="b" d="M512-.06l-400,400,.35-55.1,35.49-27.73-10.36-19.69c91.55-115.9,35,6.31,75.14-29.71,32.3-32.3,27.38-59.33,17-85.58Z"/><polygon class="c" points="422.79 89.16 302.13 173.88 288.23 223.71 338.15 209.9 422.79 89.16"/><path class="d" d="M377.88,153.24c-5.45,4.92-11.49,10.1-16.5,12.87A18.56,18.56,0,0,0,356,152.46h0a15.48,15.48,0,0,0-10.7-4.49,23.17,23.17,0,0,1,1.55-2.42l9.93-10.1-16.06,11.23c-.26.77-.52,1.38-.78,2.16a16.65,16.65,0,0,0-5.27,3.19h0l-.08.09c-4.58,4.58-6.74,10.53-7.95,16.41a30.89,30.89,0,0,0-16,7,20.71,20.71,0,0,0-5.44,8.55,21.87,21.87,0,0,0-6.82,3L295.91,196a24.2,24.2,0,0,1,2.68-3.19,21.19,21.19,0,0,1,5.62-3.72A20.87,20.87,0,0,0,309,204.2c2.5,3,6.56,4.66,10.71,5-.09.44-.18.87-.26,1.13-.61,1.81-1.13,3.54-1.82,5.27l5.53-1.56c.6-1.64,1-3.28,1.47-4.92a18.66,18.66,0,0,0,7.94-3.11c4.93-3.71,8.12-9.67,9.5-16.24a16.93,16.93,0,0,0,.35-2.24c6.3-1.47,11.74-4.84,16.58-12.09l.09-.09a17.47,17.47,0,0,0,1.38-3.46,44.65,44.65,0,0,0,7-3.71Zm-25.22,2.59A13.75,13.75,0,0,1,356.54,168c-4.32.86-9.15.34-14.07-.09,0-4.83-.26-10.1,1-15a10.31,10.31,0,0,1,9.16,2.94Zm-14.08-.78a56.64,56.64,0,0,0-.69,13.13,38,38,0,0,0-6.22,0c1-4.84,2.94-9.33,6.22-12.61h0a2.46,2.46,0,0,1,.69-.52Zm16.32,18-.08.09a19.45,19.45,0,0,1-12.1,9.16,88.53,88.53,0,0,0-.17-9.68c4,.35,8.12.87,12.35.43Zm-17.18-.25c.17,3.45.34,7.08.17,10.53a53.57,53.57,0,0,1-8.38.26c.43-3.37.78-7.17,1.3-10.79a44.28,44.28,0,0,1,6.91,0Zm-11.84.6c-.43,3.71-.77,7.34-1.12,10.45a69.69,69.69,0,0,0-14.08-.78,17.41,17.41,0,0,1,3.11-4.14c3.28-2.94,7.52-4.58,12.09-5.53Zm11.58,14.85a.63.63,0,0,0-.18.52c-.95,4.93-3.28,10-7.68,13.39a15.72,15.72,0,0,1-3.8,1.9c1.12-5.1,1.9-10.36,2.93-15.55,3.11,0,5.88,0,8.73-.26Zm-13.48.35c-1.12,5.61-2.07,11-3.19,16.15a14.44,14.44,0,0,1-7.77-2.59c-4.67-3.8-5.71-9.16-4.32-14.34,4.57-.6,9.5.18,15.28.78Z"/><path class="e" d="M105.62,418.75c14.91,15.71,20.59,23.43,9.41,26.55,2.38,3.51,13.05,12.36,9.36,15.48,47.42-4.31,40.22-30.46,34.77-44.41Z"/><path class="e" d="M93.48,406.27c-15.77-15-23.49-20.65-26.55-9.41-3.51-2.39-12.36-13.05-15.48-9.48,4.31-47.3,30.4-40.16,44.41-34.65Z"/><polygon class="f" points="97.79 382.45 129.55 414.21 49.41 488.23 25.18 463.11 97.79 382.45"/><path class="g" d="M131.82,408.43l-12.25,4.88a9.29,9.29,0,0,0-2.72-5.45l6.8-4.31Zm-13.56,7.2a8.57,8.57,0,0,1-.39,2.1,13.7,13.7,0,0,1-2.38,5,22.32,22.32,0,0,1-12.65,7.89,23.65,23.65,0,0,0-2-7.55c2.55-1.08,5.16-2.55,6.52-4.93a7.48,7.48,0,0,0,1-4.77,5.58,5.58,0,0,0-7.61-4.54,6.68,6.68,0,0,0-3.34,3.69,3.38,3.38,0,0,0-.17,1.08L89.11,415a10.51,10.51,0,0,1,.45-3.29,13,13,0,0,1,4.09-6.24,14.42,14.42,0,0,1,8.79-3,18.37,18.37,0,0,1,9,2.56,16.69,16.69,0,0,1,3.91,3,10.92,10.92,0,0,1,2.44,4.26,10.08,10.08,0,0,1,.4,3.46Zm.4-15-24-1.25S84.12,410,81.28,415.63c-1.13,3.4-1.47,7.26.06,9.81l-6.92,1.14a14.69,14.69,0,0,1-1.19-5.39A12.1,12.1,0,0,1,75,413.93a22.15,22.15,0,0,1,2.56-3.12l15-16.17,16.67.46Zm-11.12,14.29a6.1,6.1,0,0,1-.62,2.22l-4.14,1.07-19.4,4.43c-.68.22-1.08.39-1.76.62a12.27,12.27,0,0,1,.23-5.9c8.45-2.1,16.9-2.15,25.18-4.76a5.93,5.93,0,0,1,.46,2.38Zm-5.89,16.57a4.22,4.22,0,0,1-.12.79A16.18,16.18,0,0,1,93,443.08a30.42,30.42,0,0,1-4.48,1.76,19.08,19.08,0,0,0-.12-7.6A15,15,0,0,0,92,433.72a6.55,6.55,0,0,0,1.76-4.7,9.44,9.44,0,0,0-1.53-5L91,421.81l7.66-1.64c.34,2,3.35,7.32,3,11.29Zm-8.74-2a9.64,9.64,0,0,1-.45,2.16c-5.68.57-11.86-.06-17,1.64a11.69,11.69,0,0,0-4.82,3.58,8.94,8.94,0,0,0-2.05,4.54l-7.71,1a8.56,8.56,0,0,1,.45-4.31,11.7,11.7,0,0,1,3.12-4.94,17.42,17.42,0,0,1,4.77-3.29,32,32,0,0,1,5.5-2l6.92-1.14,3.52-.34,6.86-.74a8.86,8.86,0,0,1,.74,3.8Zm-5.28,12.65a20.82,20.82,0,0,1-2.15,8.06,17.35,17.35,0,0,1-9.13,7.65c-6.7-1.7-9.53-4.87-13.22-8.67l7.38-1a7.89,7.89,0,0,0,3.8,2.55c6-2.61,6.8-9.08,4.31-15.43l-.74-1.42a46.34,46.34,0,0,1,7.43-1,15.31,15.31,0,0,1,1.3,2.55,14,14,0,0,1,1,6.69Zm-8.67.17c-.06,1.65-.63,3.69-1.59,4.31-2.55.06-5,.46-7.26.68l-7.32,1c-2.32.4-4,.85-6.3,1.42a33,33,0,0,1,1.37-5.79l2.78-.62.39-.06,7.72-.91,6.12-.68,4-.68a5.26,5.26,0,0,1,.12,1.36Zm-5.79,18.83a23.12,23.12,0,0,1-7.88,8,24.82,24.82,0,0,1-7,3.12,15.8,15.8,0,0,0-.17-5.39,12.16,12.16,0,0,0,4.42-4.87A20.3,20.3,0,0,0,52.3,460.5a14.39,14.39,0,0,0-4.82,1.3A10.46,10.46,0,0,0,43.62,465a6.38,6.38,0,0,0-1.08,1.87l-6.92-.34a4.85,4.85,0,0,1,.06-1,9.59,9.59,0,0,1,2.83-5.68,16.7,16.7,0,0,1,5.39-3.34,29.33,29.33,0,0,1,18.72-.46,39.19,39.19,0,0,1,10.61,5.05Zm.11-34.71c-9.52,2.72-13.72,9.08-15.71,15.71A26.52,26.52,0,0,0,55,453.69a25,25,0,0,0-5.79.34,26.17,26.17,0,0,1,1.82-11.91,34.14,34.14,0,0,1,2.5-5.33L58,430.72l.79-.8a40.13,40.13,0,0,1,13.33-9.24,11.35,11.35,0,0,0,1.08,5.5ZM57.23,470.76c0,.74-.11,1.48-.17,2.22a12.09,12.09,0,0,1-2.32,5.38c-2.56,3-6.24,3.86-9.08,5.11a15.46,15.46,0,0,0-1.3-6.18,9.11,9.11,0,0,0,4.53-2.16A7.76,7.76,0,0,0,51.33,471a12.6,12.6,0,0,0,.29-4.82,23.71,23.71,0,0,0-1-4.48,41.58,41.58,0,0,1,5.33-.34l1.08,5.84c.12,1.25.17,2.44.17,3.69Zm-6.58-1.13a6.63,6.63,0,0,1-1.19,3.46l-2.61.11H42.09l-4.82-.28-4.48-.4-1-1.36.06-4,3.74.23,6.7.45,1,.12,6.46.45h.91a5.14,5.14,0,0,1,0,1.36Zm-1.93-23.14a19.65,19.65,0,0,0-.68,5.67c-1.19.62-1.75,1-2.95,1.59a41.29,41.29,0,0,0-6.86,4.93l-.57-.45L45.26,448l3.46-1.53ZM44.81,484a10.57,10.57,0,0,1-.57,3.29l-5.05-6.52a15.22,15.22,0,0,0-.17-2.33,18.86,18.86,0,0,0-1.41-4.71l4.76.23c.68,3.06,2.16,5.67,2.5,8.74a9.08,9.08,0,0,1-.06,1.3Zm-6.64-4.59L37,477.91l.79-.11a5.28,5.28,0,0,1,.29,1.64Z"/><polygon class="h" points="18.66 441.04 0 468.32 4.82 507.18 43.62 512.06 71.02 493.4 39.59 472.41 18.66 441.04"/><polygon class="i" points="39.59 472.41 4.82 507.18 43.62 512.06 71.02 493.4 39.59 472.41"/><polygon class="j" points="18.09 456.58 10.21 470.14 12.82 499.18 41.92 501.85 55.47 493.96 31.71 480.29 18.09 456.58"/><polygon class="k" points="31.71 480.29 12.82 499.18 41.92 501.85 55.47 493.96 31.71 480.29"/><path class="l" d="M29,493.34a7.38,7.38,0,1,1,0-10.44,7.36,7.36,0,0,1,0,10.44Z"/><path class="m" d="M222.46,386.72c-9,14.63-35.61,34.11-24.58,43.2l-93.39-16.68,27.54-28Z"/><polygon class="h" points="94.11 418.03 135.85 420.72 154.52 383.44 148.39 377.31 134.35 377.68 117.51 392.37 94.11 418.03"/><path class="m" d="M125.31,289.57c-14.63,9-34.11,35.61-43.2,24.58l16.68,93.39,28-27.49Z"/><polygon class="h" points="94.11 418.03 91.47 376.34 128.75 357.67 134.88 363.8 134.45 377.79 119.77 394.63 94.11 418.03"/><path class="l" d="M113.37,341.43a11.11,11.11,0,1,1,0-15.71,11.06,11.06,0,0,1,0,15.71Z"/><path class="l" d="M170.6,398.66a11.11,11.11,0,1,0,15.71,0,11.11,11.11,0,0,0-15.71,0Z"/><path class="l" d="M108.74,386.72a11.11,11.11,0,1,0,15.71,0,11.12,11.12,0,0,0-15.71,0Z"/></svg>