<svg xmlns="http://www.w3.org/2000/svg" viewBox="0 0 500 500"><defs><style>.a{fill:#7f6c4a;}.b{fill:#ffe17d;isolation:isolate;}.c{fill:#f29c1f;}.d{fill:#af8066;}.e{fill:#805333;}.f{fill:#f0c419;}.g{fill:#2c2f38;}</style></defs><title>bankslot</title><circle class="a" cx="250" cy="250" r="250"/><circle class="b" cx="250" cy="250" r="230"/><circle class="a" cx="250" cy="250" r="202"/><path class="c" d="M382.13,373.57H117.87a10.52,10.52,0,0,1-10.52-9.82L97.51,215.82l157.75-15.77,147.23,15.77-9.87,147.93A10.53,10.53,0,0,1,382.13,373.57Z"/><path class="d" d="M368.41,253l-1.73,25.92H133.32L131.59,253a5.21,5.21,0,0,1,1.4-4,5.26,5.26,0,0,1,3.86-1.67h226.3A5.26,5.26,0,0,1,367,249,5.21,5.21,0,0,1,368.41,253Z"/><path class="d" d="M366.68,278.92l-2.11,31.55-1.78,26.66a5.27,5.27,0,0,1-5.26,4.89H142.47a5.27,5.27,0,0,1-5.26-4.89l-1.78-26.66-2.11-31.55L250,268.4Z"/><path class="e" d="M366.68,278.92l-2.11,31.55H135.43l-2.11-31.55Z"/><path class="f" d="M218.45,210.56h63.1v47.33a31.55,31.55,0,0,1-63.1,0Z"/><path class="g" d="M260.52,247.37A10.52,10.52,0,1,1,250,236.85,10.52,10.52,0,0,1,260.52,247.37Z"/><path class="g" d="M250,273.66a5.26,5.26,0,0,1-5.26-5.26V257.89a5.26,5.26,0,0,1,10.52,0V268.4A5.26,5.26,0,0,1,250,273.66Z"/><path class="f" d="M186.9,126.43c-18.72,0-25.24,8.1-36.8,21-7.79,8.67-3.26,19.5-5.26,31.55-.58,3.41-10.52,6.94-10.52,10.51L123.8,215.82H97.51V184.27a57.82,57.82,0,0,1,57.84-57.84Z"/><path class="f" d="M402.49,184.27v31.55H376.2l-10.52-26.29c0-3.57-4.68-7.1-5.26-10.51-2-12.05-2.73-22.88-10.52-31.55-11.56-12.94-18.08-21-36.8-21h31.55a57.82,57.82,0,0,1,57.84,57.84Z"/><path class="e" d="M376.2,189.53v26.29H123.8V189.53a63.82,63.82,0,0,1,.9-10.51L250,163.24,375.3,179A63.82,63.82,0,0,1,376.2,189.53Z"/><path class="e" d="M360.16,147.47,250,152.72l-110.16-5.25a62.89,62.89,0,0,1,47.06-21H313.1A62.89,62.89,0,0,1,360.16,147.47Z"/><path class="d" d="M375.3,179H124.7a62.42,62.42,0,0,1,15.14-31.55H360.16A62.42,62.42,0,0,1,375.3,179Z"/></svg>