<svg xmlns="http://www.w3.org/2000/svg" viewBox="0 0 512 512" width="512" height="512">
	<style>
		tspan { white-space:pre }
		.shp0 { fill: #e4c915 } 
		.shp1 { fill: #d2ba1b } 
	</style>
	<path id="Layer" class="shp0" d="M506.98 474.16C466.85 423.29 436.89 364.6 417.96 299.72C389.14 200.98 311.21 122.91 212.29 94.04C147.4 75.11 88.71 45.16 37.85 5.03C27.71 -2.97 13.03 -1.25 5.02 8.9C-2.97 19.03 -1.24 33.73 8.9 41.73C64.5 85.59 128.53 118.28 199.2 138.91C282.63 163.26 348.7 229.23 373.08 312.81C393.71 383.48 426.42 447.5 470.28 503.11C478.27 513.24 492.97 514.98 503.1 506.98C513.24 498.99 514.97 484.29 506.98 474.16Z" />
	<path id="Layer" class="shp1" d="M493.2 483.66C449.34 428.06 416.64 364.03 396.02 293.36C371.57 209.6 305.35 143.76 222.12 119.46C151.45 98.84 87.42 66.14 31.82 22.28C24.87 16.8 21.89 8.17 23.26 0.02C16.4 0.06 9.62 3.09 5.02 8.9C-2.97 19.03 -1.24 33.73 8.9 41.73C64.5 85.59 128.53 118.28 199.2 138.91C282.63 163.26 348.7 229.23 373.1 312.81C393.72 383.48 426.42 447.5 470.28 503.11C482.88 519.08 508.31 512.29 511.66 492.53C504.71 492.56 497.84 489.53 493.2 483.66Z" />
</svg>