<svg xmlns="http://www.w3.org/2000/svg" viewBox="0 0 497 497" width="497" height="497">
	<style>
		tspan { white-space:pre }
		.shp0 { fill: #ffffff } 
		.shp1 { fill: #ff3060 } 
	</style>
	<path id="Layer" class="shp0" d="M248.08 0C111.07 0 0 111.06 0 248.09C0 385.09 111.07 496.15 248.08 496.15C385.09 496.15 496.16 385.08 496.16 248.08C496.16 111.06 385.09 0 248.08 0Z" />
	<path id="Layer" fill-rule="evenodd" class="shp1" d="M378 324.24C378 345.15 372.93 364.12 362.81 381.14C352.68 398.16 337.82 411.48 318.23 421.11C298.64 430.74 275.56 435.56 249 435.56C221.44 435.56 197.86 430.74 178.27 421.11C158.68 411.49 143.9 398.24 133.94 381.39C123.98 364.54 119 345.65 119 324.74C119 280.08 140.08 249.44 182.26 232.84C148.22 216.9 131.2 191.75 131.2 157.38C131.2 140.78 135.72 125.13 144.78 110.44C153.82 95.75 167.1 84 184.62 75.2C202.13 66.4 222.6 62 246.01 62C265.76 62 283.11 64.58 298.06 69.72C313 74.87 325.45 81.97 335.41 91.01C345.37 100.06 352.76 110.27 357.58 121.64C362.39 133.02 364.8 145.1 364.8 157.88C364.8 174.15 360.6 188.68 352.22 201.46C343.84 214.25 331.34 224.71 314.74 232.84C328.85 238.32 340.56 245.5 349.86 254.38C359.15 263.26 366.17 273.56 370.9 285.26C375.63 296.97 378 309.96 378 324.24ZM195.45 161.61C195.45 175.73 200.35 187.48 210.15 196.85C219.94 206.23 232.56 210.92 248 210.92C255.8 210.92 262.9 209.68 269.29 207.19C275.68 204.7 281.16 201.25 285.73 196.85C290.29 192.45 293.82 187.23 296.31 181.16C298.8 175.11 300.05 168.42 300.05 161.12C300.05 151.32 297.84 142.52 293.45 134.72C289.05 126.92 282.86 120.77 274.89 116.29C266.93 111.81 257.79 109.57 247.5 109.57C231.89 109.57 219.32 114.42 209.77 124.13C200.22 133.85 195.45 146.34 195.45 161.61ZM309.76 322.24C309.76 309.29 307.1 298 301.79 288.37C296.48 278.75 289 271.36 279.38 266.21C269.75 261.06 258.95 258.49 247 258.49C230.07 258.49 215.87 264.13 204.42 275.42C192.96 286.71 187.23 302.49 187.23 322.74C187.23 335.69 189.93 347.11 195.33 356.98C200.72 366.86 208.07 374.5 217.37 379.89C226.66 385.29 237.04 387.99 248.5 387.99C260.12 387.99 270.58 385.25 279.88 379.77C289.17 374.29 296.48 366.57 301.79 356.61C307.1 346.65 309.76 335.19 309.76 322.24Z" />
	<g id="Layer">
	</g>
	<g id="Layer">
	</g>
	<g id="Layer">
	</g>
	<g id="Layer">
	</g>
	<g id="Layer">
	</g>
	<g id="Layer">
	</g>
	<g id="Layer">
	</g>
	<g id="Layer">
	</g>
	<g id="Layer">
	</g>
	<g id="Layer">
	</g>
	<g id="Layer">
	</g>
	<g id="Layer">
	</g>
	<g id="Layer">
	</g>
	<g id="Layer">
	</g>
	<g id="Layer">
	</g>
</svg>