<svg xmlns="http://www.w3.org/2000/svg" viewBox="0 0 800 800" width="800" height="800">
	<style>
		tspan { white-space:pre }
		.shp0 { fill: #434343 } 
		.shp1 { fill: #333333 } 
		.shp2 { fill: #2ab4dc } 
		.shp3 { fill: #2ea2c4 } 
		.shp4 { fill: #6c787f } 
	</style>
	<g id="Layer_2">
		<g id="Layer_1-2">
			<path id="Layer" fill-rule="evenodd" class="shp0" d="M481.65 80.35C481.58 80.44 481.51 80.53 481.44 80.61C481.42 80.61 481.41 80.6 481.4 80.6L481.65 80.35ZM481.44 80.61C484.35 81.75 487.76 82.89 490.72 83.97C493.95 113.18 497.13 142.83 500.12 172.67C498.98 174.71 497.84 177.24 496.7 179.76C472.25 179.51 357.45 431.69 94.82 586.7C92.95 574.73 92.26 562.6 92.77 550.49C93.27 538.39 94.97 526.36 97.84 514.59C100.7 502.82 104.72 491.36 109.83 480.37C114.95 469.39 121.13 458.94 128.3 449.17C297.59 376.89 412.09 270.72 435.55 109.99C440.07 108.88 444.49 107.4 448.76 105.56C453.04 103.72 457.15 101.53 461.07 99.01C464.98 96.5 468.68 93.66 472.13 90.53C475.49 87.48 478.61 84.17 481.44 80.61ZM192.52 462.05C190.88 461.37 189.13 461.02 187.35 461.02C185.58 461.02 183.82 461.37 182.18 462.04C180.54 462.72 179.04 463.71 177.78 464.95C176.54 466.21 175.57 467.69 174.91 469.32C174.24 470.95 173.91 472.7 173.93 474.46C173.95 476.23 174.32 477.97 175.02 479.58C175.71 481.2 176.72 482.67 177.99 483.89C179.21 485.14 180.66 486.13 182.27 486.8C183.88 487.48 185.6 487.82 187.34 487.82C189.09 487.81 190.81 487.46 192.41 486.78C194.02 486.1 195.47 485.1 196.68 483.85C197.94 482.63 198.95 481.17 199.64 479.56C200.34 477.95 200.7 476.21 200.73 474.46C200.75 472.7 200.43 470.96 199.77 469.33C199.12 467.7 198.15 466.21 196.92 464.96C195.66 463.71 194.17 462.72 192.52 462.05Z" />
			<path id="Layer" fill-rule="evenodd" class="shp1" d="M481.65 80.35C478.76 84 475.58 87.41 472.13 90.53C468.68 93.66 464.98 96.5 461.07 99.01C457.15 101.53 453.04 103.72 448.76 105.56C444.49 107.4 440.07 108.88 435.55 109.99C432.99 128.13 429.07 146.04 423.82 163.59C418.57 181.14 412 198.26 404.17 214.82C396.34 231.37 387.27 247.31 377.04 262.5C366.8 277.69 355.44 292.08 343.04 305.55L342.54 306.05C386.01 272.5 421 211.72 447.2 122.53C462.22 112.97 475.85 101.62 481.4 80.6L481.65 80.35Z" />
			<path id="Layer" fill-rule="evenodd" class="shp2" d="M496.55 179.62C455.63 125.02 509.66 76.05 455.84 2.11C514.2 17.15 486.16 86.25 531.56 37.68C516.05 67.77 578.78 99.57 590.37 58.22C706.47 173.43 768.28 302.75 711.41 462.88C670.45 262.81 600.46 164.08 496.55 179.62Z" />
			<path id="Layer" fill-rule="evenodd" class="shp3" d="M496.55 179.62C494.18 176.51 492.03 173.24 490.13 169.83C488.24 166.42 486.59 162.87 485.21 159.22C483.83 155.57 482.72 151.82 481.88 148C481.05 144.19 480.49 140.32 480.22 136.43C641.41 130.28 700.55 281.91 711.51 462.98C670.45 262.81 600.46 164.08 496.55 179.62Z" />
			<path id="Layer" fill-rule="evenodd" class="shp4" d="M528.5 95.49C532.64 99.7 533.84 105.98 531.56 111.42C529.28 116.86 523.95 120.4 518.05 120.4C512.15 120.4 506.82 116.86 504.53 111.42C502.25 105.97 503.45 99.69 507.58 95.48C508.95 94.11 510.58 93.02 512.38 92.28C514.17 91.53 516.1 91.15 518.04 91.15C519.98 91.15 521.91 91.53 523.7 92.28C525.5 93.02 527.13 94.11 528.5 95.49Z" />
			<path id="Layer" fill-rule="evenodd" class="shp4" d="M581.31 110.23C584.39 112.91 586.22 116.75 586.36 120.83C586.5 124.91 584.94 128.86 582.06 131.74C579.17 134.63 575.22 136.19 571.14 136.05C567.06 135.9 563.22 134.07 560.54 131C557.46 128.31 555.63 124.48 555.49 120.4C555.35 116.32 556.91 112.36 559.79 109.48C562.68 106.59 566.63 105.04 570.71 105.18C574.79 105.32 578.63 107.15 581.31 110.23Z" />
			<path id="Layer" fill-rule="evenodd" class="shp4" d="M625.54 136.72C628.62 139.4 630.45 143.24 630.59 147.31C630.74 151.39 629.18 155.35 626.29 158.23C623.41 161.12 619.45 162.68 615.37 162.53C611.29 162.39 607.46 160.56 604.78 157.48C601.7 154.8 599.87 150.97 599.73 146.89C599.58 142.81 601.14 138.85 604.03 135.97C606.91 133.08 610.87 131.52 614.94 131.67C619.02 131.81 622.86 133.64 625.54 136.72L625.54 136.72Z" />
			<path id="Layer" fill-rule="evenodd" class="shp1" d="M139.65 444.17C147.19 447.15 140.1 466.53 131.48 486.16C134.45 468.61 137.82 449.57 128.3 449.17C131.92 447.34 135.78 445.75 139.65 444.17ZM94.62 586.5C94.97 586.28 95.33 586.05 95.71 585.81C95.41 586.11 95.12 586.4 94.82 586.7L94.62 586.5ZM112.81 557.7C113.57 559.47 114.04 561.35 114.19 563.28C114.35 565.2 114.18 567.13 113.71 569C113.24 570.87 112.47 572.65 111.42 574.27C110.38 575.89 109.07 577.32 107.56 578.52C104.06 580.76 99.27 583.57 95.71 585.81C103.22 578.25 111.48 569.15 112.81 557.7Z" />
		</g>
	</g>
	<g id="Layer_2 copy">
		<g id="Layer_1-2 copy">
			<path id="Layer copy" fill-rule="evenodd" class="shp0" d="M445.58 290.36C445.51 290.45 445.44 290.54 445.37 290.63C445.36 290.62 445.35 290.62 445.34 290.61L445.58 290.36ZM445.37 290.63C448.29 291.76 451.7 292.9 454.66 293.98C457.89 323.19 461.07 352.84 464.05 382.69C462.91 384.72 461.77 387.25 460.64 389.77C436.19 389.52 321.39 641.7 58.76 796.71C56.89 784.74 56.2 772.61 56.7 760.5C57.21 748.4 58.91 736.37 61.77 724.6C64.64 712.83 68.66 701.37 73.77 690.38C78.89 679.4 85.07 668.95 92.24 659.18C261.53 586.9 376.03 480.73 399.48 320C404 318.89 408.42 317.41 412.7 315.57C416.97 313.73 421.09 311.54 425.01 309.02C428.92 306.51 432.62 303.67 436.07 300.55C439.43 297.49 442.54 294.18 445.37 290.63ZM156.46 672.06C154.82 671.38 153.06 671.03 151.29 671.03C149.51 671.03 147.76 671.38 146.12 672.05C144.47 672.73 142.98 673.72 141.72 674.96C140.48 676.22 139.5 677.7 138.84 679.33C138.18 680.97 137.85 682.71 137.87 684.47C137.89 686.24 138.26 687.98 138.95 689.59C139.65 691.21 140.66 692.68 141.92 693.9C143.14 695.15 144.6 696.14 146.21 696.81C147.81 697.49 149.54 697.83 151.28 697.83C153.02 697.82 154.75 697.47 156.35 696.79C157.95 696.11 159.4 695.11 160.62 693.86C161.88 692.64 162.88 691.18 163.58 689.57C164.27 687.96 164.64 686.22 164.67 684.47C164.69 682.71 164.36 680.97 163.71 679.34C163.06 677.71 162.09 676.22 160.86 674.97C159.6 673.72 158.1 672.73 156.46 672.06Z" />
			<path id="Layer copy 2" fill-rule="evenodd" class="shp1" d="M445.58 290.36C442.7 294.01 439.51 297.42 436.07 300.55C432.62 303.67 428.92 306.51 425.01 309.02C421.09 311.54 416.97 313.73 412.7 315.57C408.42 317.41 404 318.89 399.48 320C396.93 338.14 393.01 356.05 387.76 373.6C382.51 391.15 375.94 408.27 368.11 424.83C360.28 441.38 351.21 457.32 340.97 472.51C330.74 487.7 319.38 502.09 306.97 515.56L306.48 516.06C349.95 482.51 384.94 421.73 411.14 332.54C426.16 322.98 439.79 311.63 445.34 290.61L445.58 290.36Z" />
			<path id="Layer copy 3" fill-rule="evenodd" class="shp2" d="M460.49 389.63C419.57 335.03 473.59 286.06 419.78 212.12C478.14 227.16 450.1 296.26 495.5 247.69C479.99 277.78 542.72 309.58 554.31 268.23C670.41 383.44 732.22 512.76 675.35 672.89C634.39 472.82 564.4 374.09 460.49 389.63Z" />
			<path id="Layer copy 4" fill-rule="evenodd" class="shp3" d="M460.49 389.63C458.11 386.53 455.97 383.26 454.07 379.84C452.17 376.43 450.53 372.88 449.15 369.23C447.77 365.58 446.66 361.83 445.82 358.02C444.99 354.2 444.43 350.33 444.16 346.44C605.34 340.29 664.49 491.92 675.45 672.99C634.39 472.82 564.4 374.09 460.49 389.63Z" />
			<path id="Layer copy 5" fill-rule="evenodd" class="shp4" d="M492.44 305.5C496.57 309.71 497.78 315.99 495.5 321.43C493.21 326.87 487.89 330.41 481.99 330.41C476.09 330.41 470.76 326.87 468.47 321.43C466.19 315.98 467.39 309.7 471.52 305.49C472.89 304.12 474.52 303.03 476.32 302.29C478.11 301.54 480.04 301.16 481.98 301.16C483.92 301.16 485.85 301.55 487.64 302.29C489.44 303.03 491.07 304.12 492.44 305.5Z" />
			<path id="Layer copy 6" fill-rule="evenodd" class="shp4" d="M545.25 320.24C548.33 322.92 550.16 326.76 550.3 330.84C550.44 334.92 548.88 338.87 546 341.76C543.11 344.64 539.16 346.2 535.08 346.06C531 345.91 527.16 344.09 524.48 341.01C521.4 338.33 519.57 334.49 519.43 330.41C519.29 326.33 520.85 322.37 523.73 319.49C526.62 316.6 530.57 315.05 534.65 315.19C538.73 315.33 542.57 317.16 545.25 320.24Z" />
			<path id="Layer copy 7" fill-rule="evenodd" class="shp4" d="M589.48 346.73C592.56 349.41 594.39 353.25 594.53 357.33C594.67 361.4 593.12 365.36 590.23 368.24C587.34 371.13 583.39 372.69 579.31 372.54C575.23 372.4 571.39 370.57 568.71 367.5C565.63 364.81 563.8 360.98 563.66 356.9C563.52 352.82 565.08 348.86 567.96 345.98C570.85 343.09 574.8 341.54 578.88 341.68C582.96 341.82 586.8 343.65 589.48 346.73L589.48 346.73Z" />
			<path id="Layer copy 8" fill-rule="evenodd" class="shp1" d="M103.59 654.18C111.13 657.16 104.04 676.54 95.42 696.17C98.39 678.62 101.76 659.58 92.24 659.18C95.85 657.35 99.72 655.76 103.59 654.18ZM58.56 796.51C58.91 796.29 59.27 796.06 59.64 795.82C59.35 796.12 59.05 796.42 58.76 796.71L58.56 796.51ZM76.75 767.71C77.51 769.48 77.98 771.36 78.13 773.29C78.28 775.21 78.12 777.14 77.65 779.01C77.18 780.88 76.41 782.66 75.36 784.28C74.31 785.9 73.01 787.33 71.5 788.53C68 790.77 63.21 793.58 59.64 795.82C67.15 788.26 75.42 779.16 76.75 767.71Z" />
		</g>
	</g>
</svg>