<?xml version="1.0" encoding="iso-8859-1"?>
<!-- Generator: Adobe Illustrator 19.0.0, SVG Export Plug-In . SVG Version: 6.00 Build 0)  -->
<svg version="1.1" id="Capa_1" xmlns="http://www.w3.org/2000/svg" xmlns:xlink="http://www.w3.org/1999/xlink" x="0px" y="0px"
	 viewBox="0 0 512 512" style="enable-background:new 0 0 512 512;" xml:space="preserve">
<polygon style="fill:#B3B3B3;" points="289.373,187.697 228.446,248.624 229.424,282.577 263.376,283.555 324.303,222.628 "/>
<polygon style="fill:#999999;" points="309.734,208.059 248.808,268.986 229.016,268.416 229.424,282.577 263.376,283.555 
	324.303,222.629 "/>
<path style="fill:#D9D9D9;" d="M457.786,262.251c-3.069,0.211-75.906,4.787-142.301-28.327c-8.048-4.014-15.393-9.342-21.73-15.678
	s-11.665-13.681-15.678-21.729c-33.115-66.396-28.538-139.233-28.327-142.301l33.602,2.311
	c-0.042,0.642-4.054,66.973,24.865,124.957c4.785,9.594,12.704,17.513,22.298,22.298c57.983,28.919,124.316,24.908,124.978,24.864
	L457.786,262.251z"/>
<g>
	<path style="fill:#999999;" d="M314.292,4.228c-5.637-5.637-14.777-5.637-20.414,0l-39.234,39.234l20.414,20.414l39.234-39.234
		C319.929,19.005,319.929,9.866,314.292,4.228z"/>
	<path style="fill:#999999;" d="M507.772,197.709c5.637,5.637,5.637,14.777,0,20.414l-39.234,39.234l-20.414-20.414l39.234-39.234
		C492.995,192.072,502.135,192.072,507.772,197.709z"/>
	<path style="fill:#999999;" d="M352.989,42.924c-5.637-5.637-14.777-5.637-20.414,0L293.34,82.158l20.414,20.414l39.234-39.234
		C358.626,57.701,358.626,48.561,352.989,42.924z"/>
	<path style="fill:#999999;" d="M391.684,81.621c-5.637-5.637-14.777-5.637-20.414,0l-39.234,39.234l20.414,20.414l39.234-39.234
		C397.322,96.398,397.322,87.258,391.684,81.621z"/>
	<path style="fill:#999999;" d="M430.38,120.316c-5.637-5.637-14.777-5.637-20.414,0l-39.234,39.234l20.414,20.414l39.234-39.234
		C436.017,135.093,436.017,125.954,430.38,120.316z"/>
	<path style="fill:#999999;" d="M469.077,159.012c-5.637-5.637-14.777-5.637-20.414,0l-39.234,39.234l20.414,20.414l39.234-39.234
		C474.714,173.789,474.714,164.649,469.077,159.012z"/>
</g>
<path style="fill:#B3B3B3;" d="M444.722,257.357L254.643,67.28c-6.577-6.577-6.577-17.24,0-23.817c6.577-6.577,17.24-6.577,23.817,0
	L468.538,233.54c6.577,6.577,6.577,17.24,0,23.817C461.961,263.934,451.299,263.934,444.722,257.357z"/>
<path style="fill:#C86D5C;" d="M228.446,248.624L7.234,469.835c-9.646,9.646-9.646,25.285,0,34.93s25.285,9.646,34.93,0
	l221.211-221.211L228.446,248.624z"/>
<path style="fill:#B24D40;" d="M248.808,268.986L27.597,490.197c-7.045,7.045-17.284,8.938-26.054,5.692
	c1.198,3.238,3.092,6.276,5.692,8.877c9.646,9.646,25.285,9.646,34.93,0l221.211-221.211L248.808,268.986z"/>
<g>
</g>
<g>
</g>
<g>
</g>
<g>
</g>
<g>
</g>
<g>
</g>
<g>
</g>
<g>
</g>
<g>
</g>
<g>
</g>
<g>
</g>
<g>
</g>
<g>
</g>
<g>
</g>
<g>
</g>
</svg>
