<svg id="Layer_1" height="512" viewBox="0 0 128 128" width="512" xmlns="http://www.w3.org/2000/svg" data-name="Layer 1"><g fill="#5be167"><path d="m59.22 91.612c0 3.344-6.053 13.7-6.053 13.7s-6.054-10.356-6.054-13.7a6.054 6.054 0 1 1 12.107 0z"/><path d="m80.887 91.612c0 3.344-6.054 13.7-6.054 13.7s-6.054-10.356-6.054-13.7a6.054 6.054 0 0 1 12.108 0z"/><path d="m70.054 67.618c0 3.344-6.054 13.7-6.054 13.7s-6.054-10.356-6.054-13.7a6.054 6.054 0 0 1 12.108 0z"/></g><path d="m53.167 92.209a1.75 1.75 0 0 1 -1.75-1.75v-46.4a1.75 1.75 0 0 1 3.5 0v46.4a1.75 1.75 0 0 1 -1.75 1.75z" fill="#b95d4f"/><path d="m74.833 92.209a1.75 1.75 0 0 1 -1.75-1.75v-45.584a1.75 1.75 0 0 1 3.5 0v45.584a1.75 1.75 0 0 1 -1.75 1.75z" fill="#b95d4f"/><path d="m64 68.438a1.749 1.749 0 0 1 -1.75-1.75v-18.307a1.75 1.75 0 0 1 3.5 0v18.307a1.749 1.749 0 0 1 -1.75 1.75z" fill="#b95d4f"/><path d="m34.667 47.991c0-.249-.03-.491-.049-.735h58.764c-.019.244-.049.486-.049.735a9.334 9.334 0 1 0 14.149-7.985 9.33 9.33 0 1 0 -14.149-7.984c0 .249.03.49.049.734h-58.764c.019-.244.049-.485.049-.734a9.334 9.334 0 1 0 -14.149 7.984 9.33 9.33 0 1 0 14.149 7.985z" fill="#fdf4cc"/><path d="m53.167 31.631h7.222v16.75h-7.222z" fill="#b95d4f"/><path d="m60.389 31.631h7.222v16.75h-7.222z" fill="#715d57"/><path d="m67.611 31.631h7.222v16.75h-7.222z" fill="#b95d4f"/><path d="m39.289 37.296h5.421v5.421h-5.421z" fill="#715d57" transform="matrix(-.707 -.707 .707 -.707 43.409 97.993)"/><path d="m83.289 37.296h5.421v5.421h-5.421z" fill="#715d57" transform="matrix(-.707 -.707 .707 -.707 118.522 129.106)"/></svg>