<svg xmlns="http://www.w3.org/2000/svg" viewBox="0 0 512 513" width="512" height="513">
	<style>
		tspan { white-space:pre }
		.shp0 { fill: #2d4957 } 
		.shp1 { fill: #6e6e6e } 
		.shp2 { fill: #212c32 } 
		.shp3 { fill: #fff1ce } 
		.shp4 { fill: #ffe1bd } 
		.shp5 { fill: #ffcb97 } 
		.shp6 { fill: #ffbd86 } 
	</style>
	<path id="Layer" class="shp0" d="M105.7 84.21L50.46 466.65C46.8 491.99 64.68 510.29 87.6 504.14L296.54 448.05C310.72 444.25 319.06 428.04 316.09 411.2L259.88 93.58L105.7 84.21Z" />
	<path id="Layer" class="shp0" d="M406.35 84.21L462.61 474.57C465.66 495.74 450.88 510.63 431.88 505.52L254.29 457.7C241.94 454.38 233.19 440.31 233.96 425.52L251.06 95.68L406.35 84.21Z" />
	<path id="Layer" class="shp1" d="M115.77 476.07L162.98 96L122.76 96L98.1 468.66C96.54 492.29 112.91 499.15 115.77 476.07L115.77 476.07Z" />
	<path id="Layer copy" class="shp1" d="M300.32 465.89L255.4 455L255.4 464.27L299.44 469.96C302.24 470.32 303.05 466.55 300.32 465.89L300.32 465.89Z" />
	<path id="Layer copy 2" class="shp1" d="M211.68 465.89L256.6 455L256.6 464.27L212.56 469.96C209.76 470.32 208.95 466.55 211.68 465.89L211.68 465.89Z" />
	<path id="Layer" class="shp1" d="M398.23 474.07L351.02 94L391.24 94L415.9 466.66C417.46 490.29 401.09 497.15 398.23 474.07L398.23 474.07Z" />
	<path id="Layer" class="shp0" d="M256.5 97.33L149.85 2.15C145.8 -1.46 139.45 -0.38 136.82 4.36L114.12 45.37C111.49 50.12 113.95 56.08 119.17 57.59L256.5 97.33Z" />
	<path id="Layer" class="shp2" d="M256.5 97.33L116.15 36.15C112.11 34.38 107.39 36.03 105.31 39.92L81.35 84.9C78.35 90.53 82.43 97.33 88.81 97.33L256.5 97.33Z" />
	<path id="Layer" class="shp0" d="M256.5 97.33L363.15 2.15C367.19 -1.46 373.55 -0.38 376.17 4.36L398.88 45.37C401.5 50.12 399.04 56.08 393.83 57.59L256.5 97.33Z" />
	<path id="Layer" class="shp2" d="M256.5 97.33L396.84 36.15C400.89 34.38 405.61 36.03 407.69 39.92L431.65 84.9C434.65 90.53 430.57 97.33 424.18 97.33L256.5 97.33Z" />
	<g id="Layer">
	</g>
	<g id="Layer">
		<g id="Layer">
			<path id="Layer" class="shp3" d="M314.82 270.94C319.68 261.68 322.42 251.13 322.38 239.93C322.24 203.39 292.73 174 256.19 174C219.63 174 190 203.63 190 240.19C190 251.29 192.74 261.75 197.56 270.94C192.96 274.57 190 280.2 190 286.52C190 297.49 198.89 306.38 209.86 306.38L209.86 321.66C209.86 330.8 217.27 338.21 226.41 338.21L285.98 338.21C295.12 338.21 302.52 330.8 302.52 321.66L302.52 306.38C313.49 306.38 322.38 297.49 322.38 286.52C322.38 280.2 319.42 274.57 314.82 270.94Z" />
		</g>
		<g id="Layer">
			<path id="Layer" class="shp4" d="M314.83 270.94C305.3 276.25 294.34 279.27 282.67 279.27C246.11 279.27 216.48 249.64 216.48 213.08C216.48 201.98 219.22 191.51 224.05 182.32C203.74 193.62 190 215.3 190 240.19C190 251.29 192.74 261.75 197.56 270.94C192.96 274.57 190 280.2 190 286.52C190 297.49 198.89 306.38 209.86 306.38L209.86 321.66C209.86 330.8 217.27 338.21 226.41 338.21L285.98 338.21C295.12 338.21 302.52 330.8 302.52 321.66L302.52 306.38C313.49 306.38 322.38 297.49 322.38 286.52C322.38 280.21 319.43 274.58 314.83 270.94Z" />
		</g>
		<g id="Layer">
			<g id="Layer">
				<path id="Layer" class="shp5" d="M268.78 287.65L259.08 270.29C257.82 268.03 254.56 268.03 253.3 270.29L243.6 287.65C242.37 289.86 243.96 292.58 246.49 292.58L265.89 292.58C268.42 292.58 270.02 289.86 268.78 287.65Z" />
			</g>
		</g>
		<g id="Layer">
			<path id="Layer" class="shp6" d="M253.53 287.65L261.16 274.01L259.08 270.29C257.82 268.03 254.56 268.03 253.3 270.29L243.6 287.65C242.37 289.86 243.96 292.58 246.49 292.58L256.42 292.58C253.89 292.58 252.3 289.86 253.53 287.65L253.53 287.65Z" />
		</g>
		<g id="Layer">
			<path id="Layer" class="shp5" d="M285.98 270.7C276.83 270.7 269.43 263.3 269.43 254.15C269.43 245 276.83 237.6 285.98 237.6C295.13 237.6 302.52 245 302.52 254.15C302.52 263.3 295.13 270.7 285.98 270.7Z" />
		</g>
		<g id="Layer">
			<path id="Layer" class="shp6" d="M279.36 254.15C279.36 246.74 284.23 240.47 290.94 238.36C289.37 237.87 287.71 237.6 285.98 237.6C276.84 237.6 269.43 245.01 269.43 254.15C269.43 263.29 276.84 270.7 285.98 270.7C287.71 270.7 289.37 270.43 290.94 269.94C284.23 267.83 279.36 261.56 279.36 254.15L279.36 254.15Z" />
		</g>
		<g id="Layer">
			<path id="Layer" class="shp5" d="M226.41 270.7C217.25 270.7 209.86 263.3 209.86 254.15C209.86 245 217.25 237.6 226.41 237.6C235.56 237.6 242.95 245 242.95 254.15C242.95 263.3 235.56 270.7 226.41 270.7Z" />
		</g>
		<g id="Layer">
			<path id="Layer" class="shp6" d="M219.79 254.15C219.79 246.74 224.66 240.47 231.37 238.36C229.8 237.87 228.13 237.6 226.41 237.6C217.27 237.6 209.86 245.01 209.86 254.15C209.86 263.29 217.27 270.7 226.41 270.7C228.13 270.7 229.8 270.43 231.37 269.94C224.66 267.83 219.79 261.56 219.79 254.15L219.79 254.15Z" />
		</g>
		<g id="Layer">
			<path id="Layer" class="shp6" d="M232.36 306.38C235.65 306.38 238.32 309.05 238.32 312.34L238.32 338.21L226.41 338.21L226.41 312.34C226.41 309.05 229.07 306.38 232.36 306.38L232.36 306.38Z" />
		</g>
		<g id="Layer">
			<path id="Layer" class="shp6" d="M256.19 306.38C259.48 306.38 262.15 309.05 262.15 312.34L262.15 338.21L250.23 338.21L250.23 312.34C250.23 309.05 252.9 306.38 256.19 306.38L256.19 306.38Z" />
		</g>
		<g id="Layer">
			<path id="Layer" class="shp6" d="M280.02 306.38C283.31 306.38 285.98 309.05 285.98 312.34L285.98 338.21L274.06 338.21L274.06 312.34C274.06 309.05 276.73 306.38 280.02 306.38L280.02 306.38Z" />
		</g>
		<path id="Layer" class="shp4" d="M295.15 186.62C293.84 185.67 292.49 184.77 291.11 183.91L282.35 192.67C282.34 192.68 282.34 192.68 282.34 192.68C282.34 192.68 282.34 192.68 282.34 192.68L276.6 198.42C273.93 201.09 270.37 202.57 266.6 202.57L262.95 202.57C257.9 202.57 253.79 206.68 253.79 211.73L253.79 229.94C253.79 231.26 254.86 232.34 256.19 232.34C257.52 232.34 258.6 231.26 258.6 229.94L258.6 211.73C258.6 209.33 260.55 207.38 262.95 207.38L266.6 207.38C271.66 207.38 276.42 205.41 280 201.83L284.04 197.78L289.05 202.79C290.34 204.07 290.69 205.85 290 207.53C289.3 209.21 287.8 210.21 285.98 210.21C284.65 210.21 283.57 211.29 283.57 212.62C283.57 213.95 284.65 215.03 285.98 215.03C289.75 215.03 293 212.86 294.44 209.37C295.89 205.88 295.12 202.06 292.45 199.39L287.45 194.38L294.88 186.94C294.98 186.84 295.07 186.74 295.15 186.62L295.15 186.62Z" />
	</g>
</svg>