<svg xmlns="http://www.w3.org/2000/svg" viewBox="0 0 512 512" width="512" height="512">
	<style>
		tspan { white-space:pre }
		.shp0 { fill: #505050 } 
		.shp1 { fill: #d957d6 } 
		.shp2 { fill: #bb3fc5 } 
		.shp3 { fill: #57d966 } 
		.shp4 { fill: #51c75e } 
		.shp5 { fill: #e2dd25 } 
		.shp6 { fill: #c9c52e } 
		.shp7 { fill: #cc3e3e } 
		.shp8 { fill: #3d51d7 } 
		.shp9 { fill: #374ac5 } 
		.shp10 { fill: #d95757 } 
		.shp11 { fill: #269bbf } 
		.shp12 { fill: #238bab } 
		.shp13 { fill: #ff3838 } 
		.shp14 { fill: #3a3a3a } 
		.shp15 { fill: #383838 } 
		.shp16 { fill: #ff5c5c } 
	</style>
	<g id="Layer">
		<g id="Layer">
			<path id="Layer" class="shp0" d="M195.15 434.21C178.38 427.64 162.27 418.37 147.28 406.66C144 404.11 139.28 404.69 136.73 407.96C134.17 411.23 134.76 415.95 138.03 418.51C154.17 431.11 171.55 441.1 189.67 448.2C190.57 448.55 191.5 448.72 192.41 448.72C195.41 448.72 198.25 446.91 199.41 443.94C200.92 440.08 199.02 435.72 195.15 434.21L195.15 434.21Z" />
			<path id="Layer" class="shp0" d="M84.36 329.69C82.47 326 77.93 324.55 74.24 326.44C70.55 328.34 69.1 332.88 71 336.56C77.28 348.77 84.54 360.51 92.59 371.46C94.06 373.46 96.34 374.52 98.65 374.52C100.2 374.52 101.76 374.05 103.1 373.06C106.44 370.6 107.16 365.9 104.7 362.56C97.12 352.25 90.28 341.19 84.36 329.69L84.36 329.69Z" />
			<path id="Layer" class="shp0" d="M57.6 225.24C57.52 221.09 54.1 217.79 49.95 217.86C45.8 217.94 42.5 221.37 42.57 225.52C42.83 239.72 44.38 254.12 47.18 268.33C47.89 271.91 51.03 274.39 54.55 274.39C55.03 274.39 55.52 274.34 56.01 274.25C60.08 273.44 62.73 269.49 61.93 265.42C59.3 252.08 57.84 238.56 57.6 225.24L57.6 225.24Z" />
			<path id="Layer" class="shp0" d="M81.02 117.58C77.54 115.32 72.89 116.3 70.62 119.78C61.17 134.29 54 150.46 49.3 167.81C48.22 171.82 50.59 175.94 54.6 177.03C55.25 177.2 55.91 177.29 56.56 177.29C59.87 177.29 62.91 175.08 63.81 171.73C68.09 155.9 74.62 141.18 83.22 127.98C85.48 124.5 84.5 119.84 81.02 117.58L81.02 117.58Z" />
			<path id="Layer" class="shp0" d="M155.94 60.11C154.2 56.34 149.74 54.69 145.97 56.42C128.8 64.3 113.36 74.2 100.09 85.85C96.97 88.59 96.66 93.34 99.4 96.46C100.89 98.15 102.96 99.01 105.05 99.01C106.81 99.01 108.58 98.4 110 97.15C122.18 86.46 136.39 77.35 152.24 70.08C156.01 68.35 157.66 63.89 155.94 60.11L155.94 60.11Z" />
			<path id="Layer" class="shp0" d="M235.34 34.89C217.88 36.04 200.97 38.67 185.08 42.71C181.05 43.74 178.62 47.83 179.65 51.85C180.51 55.25 183.57 57.52 186.92 57.52C187.54 57.52 188.16 57.44 188.78 57.28C203.78 53.46 219.78 50.98 236.32 49.89C240.47 49.62 243.6 46.04 243.33 41.9C243.06 37.75 239.48 34.6 235.34 34.89Z" />
			<path id="Layer" class="shp0" d="M364.72 406.66C348.46 419.36 333.21 427.66 315.26 433.57C311.32 434.87 309.18 439.12 310.48 443.06C311.52 446.22 314.46 448.23 317.62 448.23C318.4 448.23 319.19 448.11 319.97 447.85C339.63 441.36 356.28 432.31 373.97 418.51C377.24 415.95 377.82 411.23 375.27 407.96C372.72 404.69 368 404.11 364.72 406.66L364.72 406.66Z" />
			<path id="Layer" class="shp0" d="M437.76 326.45C434.07 324.55 429.53 326 427.64 329.69C421.72 341.19 414.88 352.25 407.3 362.56C404.84 365.9 405.56 370.61 408.9 373.07C410.24 374.05 411.8 374.53 413.35 374.53C415.66 374.53 417.94 373.46 419.41 371.46C427.46 360.51 434.73 348.77 441 336.57C442.9 332.88 441.45 328.34 437.76 326.45L437.76 326.45Z" />
			<path id="Layer" class="shp0" d="M462.05 217.86C457.93 217.79 454.48 221.09 454.4 225.24C454.16 238.56 452.7 252.08 450.07 265.42C449.27 269.49 451.92 273.44 455.99 274.25C456.48 274.34 456.97 274.39 457.45 274.39C460.97 274.39 464.11 271.91 464.82 268.32C467.62 254.12 469.17 239.72 469.43 225.51C469.5 221.36 466.2 217.94 462.05 217.86L462.05 217.86Z" />
			<path id="Layer" class="shp0" d="M455.44 177.29C456.09 177.29 456.75 177.2 457.4 177.03C461.41 175.94 463.78 171.82 462.7 167.81C458 150.46 450.83 134.3 441.38 119.78C439.11 116.3 434.45 115.32 430.98 117.58C427.5 119.85 426.52 124.5 428.78 127.98C437.38 141.18 443.91 155.9 448.19 171.73C449.09 175.08 452.13 177.29 455.44 177.29L455.44 177.29Z" />
			<path id="Layer" class="shp0" d="M412.6 96.46C415.34 93.34 415.03 88.59 411.91 85.85C398.64 74.2 383.2 64.3 366.03 56.42C362.26 54.69 357.8 56.34 356.07 60.11C354.34 63.89 355.99 68.35 359.76 70.08C375.61 77.35 389.82 86.46 402 97.15C403.42 98.4 405.19 99.01 406.95 99.01C409.04 99.01 411.12 98.15 412.6 96.46L412.6 96.46Z" />
			<path id="Layer" class="shp0" d="M325.08 57.51C328.43 57.51 331.49 55.25 332.35 51.85C333.38 47.83 330.95 43.74 326.93 42.71C314.39 39.52 301.16 37.2 287.61 35.81C283.49 35.39 279.79 38.39 279.37 42.52C278.94 46.64 281.95 50.34 286.08 50.76C298.9 52.08 311.39 54.27 323.22 57.28C323.84 57.44 324.46 57.51 325.08 57.51Z" />
		</g>
		<path id="Layer" class="shp1" d="M433.2 370.66L392.12 344.69C388.77 342.58 384.35 343.42 382.02 346.63L347.14 394.69C344.82 397.89 345.37 402.34 348.4 404.87L379.02 430.45C380.39 431.6 382.1 432.2 383.84 432.2C384.6 432.2 385.36 432.08 386.11 431.85L417.89 421.77C420.12 421.07 421.89 419.36 422.69 417.16L436.25 379.57C437.45 376.25 436.18 372.54 433.2 370.66L433.2 370.66Z" />
		<path id="Layer" class="shp2" d="M433.2 370.66L415.99 359.79L390.49 430.46L417.89 421.77C420.12 421.07 421.89 419.36 422.69 417.16L436.25 379.56C437.45 376.25 436.18 372.55 433.2 370.66L433.2 370.66Z" />
		<path id="Layer" class="shp3" d="M485.56 316.84L464.42 264.08C463.56 261.93 461.75 260.3 459.53 259.65C457.3 259.01 454.91 259.43 453.04 260.78L412.6 290.05C409.68 292.16 408.67 296.05 410.2 299.32L427.51 336.31C428.77 339.01 431.46 340.64 434.32 340.64C435.04 340.64 435.78 340.54 436.51 340.32L480.78 326.82C482.79 326.21 484.45 324.78 485.36 322.88C486.27 320.98 486.35 318.79 485.56 316.84L485.56 316.84Z" />
		<path id="Layer" class="shp4" d="M464.29 331.85L480.78 326.82C482.79 326.21 484.46 324.78 485.37 322.88C486.27 320.98 486.35 318.79 485.56 316.84L464.42 264.08C463.56 261.93 461.75 260.3 459.53 259.65C457.31 259.01 454.91 259.43 453.04 260.79L439.68 270.45L464.29 331.85Z" />
		<path id="Layer" class="shp5" d="M497.28 187.85L467.91 158.71C465.2 156.02 460.91 155.79 457.93 158.17L420.69 187.9C419.12 189.15 418.12 190.97 417.9 192.96C417.69 194.94 418.27 196.94 419.53 198.49L450.18 236.45C451.55 238.14 453.58 239.16 455.76 239.24C455.85 239.24 455.94 239.24 456.03 239.24C458.11 239.24 460.1 238.38 461.52 236.85L497.48 198.31C500.25 195.34 500.16 190.71 497.28 187.85L497.28 187.85Z" />
		<path id="Layer" class="shp6" d="M456.03 239.24C458.11 239.24 460.1 238.38 461.52 236.85L497.48 198.31C500.25 195.34 500.17 190.71 497.28 187.85L485.18 175.84L440.18 224.07L450.18 236.45C451.55 238.14 453.58 239.16 455.76 239.24C455.85 239.24 455.94 239.24 456.03 239.24L456.03 239.24Z" />
		<path id="Layer" class="shp7" d="M278.45 72.35L300.18 35.44C301.26 33.61 301.51 31.42 300.88 29.4C300.25 27.37 298.8 25.71 296.88 24.82L282.12 17.95L251.65 69.7L269.6 75.67C270.38 75.93 271.18 76.06 271.97 76.06C274.57 76.06 277.07 74.7 278.45 72.35Z" />
		<path id="Layer" class="shp8" d="M164.86 394.69L129.98 346.63C127.65 343.42 123.23 342.58 119.89 344.69L78.8 370.66C75.82 372.55 74.55 376.25 75.75 379.57L89.31 417.16C90.11 419.36 91.88 421.07 94.11 421.77L125.89 431.85C126.64 432.09 127.4 432.2 128.16 432.2C129.9 432.2 131.61 431.6 132.98 430.45L163.6 404.87C166.63 402.34 167.19 397.89 164.86 394.69L164.86 394.69Z" />
		<path id="Layer" class="shp9" d="M131.31 398.05L100.49 423.8L125.89 431.85C126.64 432.09 127.4 432.2 128.16 432.2C129.9 432.2 131.61 431.6 132.98 430.45L163.6 404.87C166.63 402.34 167.19 397.89 164.86 394.69L129.98 346.63C127.65 343.42 123.23 342.58 119.89 344.69L105.12 354.02L132.15 391.26C133.7 393.39 133.33 396.36 131.31 398.05L131.31 398.05Z" />
		<path id="Layer" class="shp10" d="M99.4 290.05L58.96 260.79C57.09 259.43 54.69 259.01 52.47 259.65C50.25 260.3 48.44 261.93 47.58 264.08L26.44 316.84C25.65 318.79 25.73 320.98 26.64 322.88C27.55 324.78 29.21 326.21 31.22 326.82L75.49 340.32C76.22 340.54 76.95 340.64 77.68 340.64C80.53 340.64 83.23 339.01 84.49 336.31L101.8 299.32C103.32 296.05 102.32 292.16 99.4 290.05L99.4 290.05Z" />
		<path id="Layer" class="shp7" d="M99.4 290.05L84.52 279.28L58.4 335.11L75.49 340.32C76.22 340.54 76.95 340.64 77.68 340.64C80.53 340.64 83.23 339.01 84.49 336.31L101.8 299.32C103.32 296.05 102.32 292.16 99.4 290.05L99.4 290.05Z" />
		<path id="Layer" class="shp11" d="M94.1 192.96C93.88 190.97 92.88 189.15 91.31 187.9L54.07 158.17C51.09 155.79 46.8 156.02 44.09 158.71L14.72 187.85C11.84 190.71 11.75 195.34 14.52 198.31L50.48 236.86C51.9 238.38 53.89 239.24 55.97 239.24C56.06 239.24 56.15 239.24 56.24 239.24C58.42 239.16 60.45 238.14 61.82 236.45L92.47 198.49C93.73 196.94 94.31 194.94 94.1 192.96L94.1 192.96Z" />
		<path id="Layer" class="shp12" d="M61.82 236.45L92.47 198.49C93.73 196.94 94.31 194.94 94.1 192.95C93.88 190.97 92.88 189.15 91.31 187.9L78.1 177.35L39.53 225.12L50.48 236.85C51.9 238.38 53.89 239.24 55.97 239.24C56.06 239.24 56.15 239.24 56.24 239.24C58.42 239.16 60.45 238.14 61.82 236.45L61.82 236.45Z" />
		<path id="Layer" class="shp13" d="M131.71 114.76L101.02 73.49C98.72 70.4 94.46 69.55 91.15 71.52L60.46 89.77C57.16 91.72 55.87 95.85 57.46 99.34L78.47 145.38C79.35 147.3 80.99 148.76 83 149.41C83.75 149.65 84.53 149.77 85.31 149.77C86.6 149.77 87.89 149.44 89.03 148.78L129.4 125.77C131.27 124.7 132.59 122.88 133.03 120.78C133.47 118.67 132.99 116.48 131.71 114.76L131.71 114.76Z" />
		<path id="Layer copy" class="shp14" d="M131.71 114.76L101.02 73.49C98.72 70.4 94.46 69.55 91.15 71.52L60.46 89.77C57.16 91.72 55.87 95.85 57.46 99.34L78.47 145.38C79.35 147.3 80.99 148.76 83 149.41C83.75 149.65 84.53 149.77 85.31 149.77C86.6 149.77 87.89 149.44 89.03 148.78L129.4 125.77C131.27 124.7 132.59 122.88 133.03 120.78C133.47 118.67 132.99 116.48 131.71 114.76L131.71 114.76Z" />
		<path id="Layer copy 2" class="shp15" d="M115.42 133.74L129.4 125.77C131.27 124.7 132.59 122.89 133.03 120.78C133.48 118.68 132.99 116.48 131.71 114.76L101.02 73.49C98.72 70.4 94.46 69.55 91.15 71.52L75.89 80.59L115.42 133.74Z" />
		<path id="Layer copy 3" class="shp14" d="M205.99 61.59L172.39 20.12C171.06 18.47 169.09 17.46 166.98 17.34C164.87 17.23 162.8 18 161.29 19.49L136.4 43.96C134.03 46.29 133.47 49.91 135.04 52.85L154.95 90.17C156.3 92.71 158.9 94.15 161.58 94.15C162.77 94.15 163.96 93.87 165.08 93.29L203.65 72.97C205.64 71.92 207.06 70.03 207.51 67.83C207.96 65.63 207.4 63.34 205.99 61.59L205.99 61.59Z" />
		<path id="Layer copy 4" class="shp15" d="M190.3 80L203.65 72.97C205.64 71.92 207.06 70.03 207.51 67.83C207.96 65.63 207.4 63.34 205.99 61.59L172.4 20.12C171.06 18.47 169.09 17.46 166.98 17.34C164.87 17.23 162.8 18 161.29 19.49L150.16 30.43L190.3 80Z" />
		<path id="Layer" class="shp14" d="M451.54 89.77L420.85 71.52C417.54 69.55 413.28 70.4 410.98 73.49L380.29 114.76C379.01 116.48 378.53 118.68 378.97 120.78C379.41 122.89 380.73 124.7 382.6 125.77L422.97 148.78C424.11 149.44 425.4 149.77 426.69 149.77C427.47 149.77 428.24 149.65 429 149.41C431.01 148.76 432.65 147.3 433.53 145.38L454.54 99.34C456.13 95.85 454.84 91.72 451.54 89.76L451.54 89.77Z" />
		<path id="Layer" class="shp15" d="M433.53 145.38L454.54 99.35C456.13 95.86 454.84 91.73 451.54 89.77L436.89 81.05L409.49 141.1L422.97 148.79C424.11 149.44 425.4 149.77 426.69 149.77C427.47 149.77 428.25 149.65 429 149.41C431.01 148.76 432.65 147.3 433.53 145.38Z" />
		<path id="Layer" class="shp14" d="M375.6 43.96L350.71 19.49C349.2 18 347.14 17.23 345.02 17.34C342.91 17.46 340.94 18.47 339.61 20.12L306.01 61.59C304.6 63.34 304.04 65.63 304.49 67.83C304.95 70.03 306.36 71.92 308.35 72.97L346.92 93.29C348.04 93.88 349.23 94.16 350.42 94.16C353.1 94.16 355.7 92.71 357.05 90.17L376.96 52.85C378.52 49.91 377.97 46.29 375.6 43.96Z" />
		<path id="Layer" class="shp15" d="M357.05 90.17L376.96 52.85C378.53 49.91 377.97 46.29 375.6 43.96L362.09 30.68L332.7 85.79L346.92 93.29C348.04 93.87 349.23 94.15 350.42 94.15C353.1 94.16 355.7 92.71 357.05 90.17L357.05 90.17Z" />
		<path id="Layer" class="shp14" d="M300.88 29.4C300.25 27.37 298.8 25.71 296.88 24.82L245.05 0.7C242.92 -0.29 240.47 -0.23 238.39 0.86C236.32 1.94 234.87 3.93 234.47 6.23L226.11 54.46C225.48 58.12 227.62 61.7 231.14 62.87L269.6 75.67C270.38 75.93 271.18 76.06 271.97 76.06C274.57 76.06 277.07 74.7 278.45 72.35L300.18 35.44C301.26 33.61 301.51 31.42 300.88 29.4L300.88 29.4Z" />
		<path id="Layer" class="shp0" d="M333.51 415.44L252.2 363.12C249.45 361.36 245.88 361.56 243.36 363.64L179.73 415.96C177.19 418.05 176.3 421.55 177.54 424.59L202.29 485.4C203.13 487.46 204.84 489.05 206.96 489.72L275.54 511.64C276.3 511.88 277.06 512 277.83 512C280.37 512 282.8 510.71 284.2 508.46L335.82 425.74C337.99 422.25 336.96 417.67 333.51 415.44L333.51 415.44Z" />
		<path id="Layer" class="shp15" d="M284.2 508.46L335.82 425.74C337.99 422.25 336.96 417.67 333.51 415.44L318.64 405.88L254.63 504.96L275.54 511.64C276.29 511.89 277.06 512 277.83 512C280.37 512 282.8 510.71 284.2 508.46L284.2 508.46Z" />
		<path id="Layer" class="shp16" d="M252.57 477.21C232.6 477.21 216.46 461.08 216.46 441.11C216.46 421.15 232.6 405.01 252.57 405.01C272.53 405.01 288.67 421.15 288.67 441.11C288.67 461.08 272.53 477.21 252.57 477.21Z" />
		<path id="Layer" class="shp13" d="M252.57 405.01C248.58 405.01 244.76 405.67 241.18 406.86C255.53 411.63 265.89 425.16 265.89 441.11C265.89 457.07 255.53 470.6 241.18 475.37C244.76 476.56 248.58 477.22 252.57 477.22C272.5 477.22 288.67 461.05 288.67 441.11C288.67 421.17 272.5 405.01 252.57 405.01L252.57 405.01Z" />
	</g>
</svg>