<svg xmlns="http://www.w3.org/2000/svg" viewBox="0 0 512 512" width="512" height="512">
	<style>
		tspan { white-space:pre }
		.shp0 { fill: #c6c5ca } 
		.shp1 { fill: #898890 } 
		.shp2 { fill: #fedb41 } 
		.shp3 { fill: #fea832 } 
		.shp4 { fill: #ffffff } 
	</style>
	<path id="Layer" class="shp0" d="M504.5 256C504.5 393.24 393.24 504.5 256 504.5C118.76 504.5 7.5 393.24 7.5 256C7.5 118.76 118.76 7.5 256 7.5C393.24 7.5 504.5 118.76 504.5 256Z" />
	<path id="Layer" class="shp1" d="M37.5 256C37.5 123.79 140.74 15.7 271 7.95C266.04 7.65 261.04 7.5 256 7.5C118.76 7.5 7.5 118.76 7.5 256C7.5 393.24 118.76 504.5 256 504.5C261.04 504.5 266.04 504.35 271 504.05C140.74 496.3 37.5 388.21 37.5 256Z" />
	<g id="Layer">
		<path id="Layer" class="shp2" d="M256 350.31C204.4 350.31 162.69 308.6 162.69 257C162.69 205.4 204.4 163.69 256 163.69C307.6 163.69 349.31 205.4 349.31 257C349.31 308.6 307.6 350.31 256 350.31Z" />
		<g id="Layer">
			<path id="Layer" class="shp3" d="M330.29 261.16C329.74 261.16 329.2 261.05 328.7 260.84C328.2 260.63 327.74 260.33 327.35 259.94C326.97 259.56 326.66 259.1 326.45 258.6C326.25 258.09 326.14 257.55 326.14 257.01C326.13 247.8 324.31 238.68 320.78 230.18C317.25 221.67 312.08 213.94 305.57 207.43C299.06 200.92 291.33 195.76 282.83 192.23C274.32 188.7 265.21 186.88 256 186.87C254.9 186.87 253.84 186.43 253.06 185.65C252.28 184.87 251.84 183.81 251.84 182.71C251.84 181.61 252.28 180.55 253.06 179.77C253.84 178.99 254.9 178.55 256 178.55C266.3 178.56 276.5 180.6 286.01 184.54C295.53 188.49 304.17 194.27 311.45 201.55C318.74 208.84 324.52 217.48 328.46 227C332.41 236.51 334.45 246.71 334.46 257.01C334.46 257.55 334.35 258.09 334.14 258.6C333.93 259.1 333.62 259.56 333.23 259.95C332.85 260.33 332.39 260.64 331.88 260.85C331.38 261.06 330.84 261.16 330.29 261.16L330.29 261.16Z" />
			<g id="Layer">
				<path id="Layer" class="shp3" d="M256 144.67C257.69 144.67 259.39 144.71 261.08 144.79C262.77 144.87 264.46 144.99 266.15 145.14C267.83 145.3 269.52 145.49 271.19 145.72C272.87 145.95 274.54 146.22 276.21 146.53C276.3 145.23 276.36 143.91 276.36 142.58C276.36 124.04 256 109 256 109C256 109 235.64 124.04 235.64 142.58C235.64 143.92 235.7 145.23 235.79 146.53C237.46 146.22 239.13 145.95 240.81 145.72C242.49 145.49 244.17 145.3 245.85 145.14C247.54 144.99 249.23 144.87 250.92 144.79C252.61 144.71 254.31 144.67 256 144.67L256 144.67Z" />
				<path id="Layer" class="shp3" d="M256 369.33C257.69 369.33 259.39 369.29 261.08 369.21C262.77 369.13 264.46 369.01 266.15 368.86C267.83 368.7 269.52 368.51 271.19 368.28C272.87 368.05 274.54 367.78 276.21 367.48C276.3 368.77 276.36 370.08 276.36 371.42C276.36 389.96 256 405 256 405C256 405 235.64 389.96 235.64 371.42C235.64 370.08 235.71 368.77 235.8 367.48C237.46 367.78 239.13 368.05 240.81 368.28C242.49 368.51 244.17 368.7 245.86 368.86C247.54 369.01 249.23 369.13 250.92 369.21C252.61 369.29 254.31 369.33 256 369.33L256 369.33Z" />
				<path id="Layer" class="shp3" d="M335.43 177.57C336.63 178.77 337.79 179.99 338.93 181.25C340.07 182.5 341.19 183.78 342.27 185.08C343.35 186.38 344.41 187.71 345.43 189.06C346.45 190.4 347.44 191.78 348.4 193.17C349.39 192.32 350.35 191.44 351.3 190.49C364.41 177.37 360.65 152.35 360.65 152.35C360.65 152.35 335.63 148.59 322.51 161.7C321.56 162.65 320.68 163.6 319.83 164.6C321.22 165.56 322.6 166.55 323.94 167.57C325.29 168.59 326.62 169.65 327.92 170.73C329.22 171.81 330.5 172.93 331.75 174.07C333.01 175.21 334.23 176.37 335.43 177.57Z" />
				<path id="Layer" class="shp3" d="M176.57 336.43C177.77 337.63 178.99 338.79 180.25 339.94C181.5 341.08 182.77 342.19 184.08 343.27C185.38 344.35 186.7 345.41 188.05 346.43C189.4 347.45 190.78 348.44 192.17 349.4C191.32 350.39 190.44 351.35 189.49 352.3C176.37 365.41 151.35 361.65 151.35 361.65C151.35 361.65 147.59 336.63 160.7 323.51C161.65 322.56 162.6 321.68 163.6 320.83C164.56 322.22 165.55 323.6 166.57 324.95C167.59 326.29 168.65 327.62 169.73 328.92C170.81 330.22 171.92 331.5 173.07 332.75C174.21 334.01 175.37 335.23 176.57 336.43L176.57 336.43Z" />
				<path id="Layer" class="shp3" d="M368.33 257.01C368.33 258.7 368.29 260.39 368.21 262.09C368.13 263.78 368.01 265.47 367.86 267.15C367.7 268.84 367.51 270.52 367.28 272.2C367.05 273.88 366.78 275.55 366.48 277.22C367.77 277.31 369.08 277.37 370.42 277.37C388.96 277.37 404 257.01 404 257.01C404 257.01 388.96 236.65 370.42 236.65C369.08 236.65 367.77 236.71 366.48 236.8C366.78 238.47 367.05 240.14 367.28 241.82C367.51 243.49 367.7 245.18 367.86 246.86C368.01 248.55 368.13 250.24 368.21 251.93C368.29 253.62 368.33 255.31 368.33 257.01L368.33 257.01Z" />
				<path id="Layer" class="shp3" d="M143.67 257.01C143.67 258.7 143.71 260.39 143.79 262.09C143.87 263.78 143.99 265.47 144.14 267.15C144.3 268.84 144.49 270.52 144.72 272.2C144.95 273.88 145.22 275.55 145.52 277.22C144.23 277.31 142.91 277.37 141.58 277.37C123.04 277.36 108 257.01 108 257.01C108 257.01 123.04 236.65 141.58 236.65C142.92 236.65 144.23 236.71 145.52 236.8C145.22 238.47 144.95 240.14 144.72 241.82C144.49 243.49 144.3 245.18 144.14 246.86C143.99 248.55 143.87 250.24 143.79 251.93C143.71 253.62 143.67 255.31 143.67 257.01L143.67 257.01Z" />
				<path id="Layer" class="shp3" d="M335.43 336.43C334.23 337.63 333.01 338.79 331.75 339.93C330.5 341.07 329.22 342.19 327.92 343.27C326.62 344.35 325.29 345.41 323.94 346.43C322.6 347.45 321.22 348.44 319.83 349.4C320.68 350.39 321.56 351.35 322.51 352.3C335.63 365.41 360.65 361.65 360.65 361.65C360.65 361.65 364.41 336.63 351.3 323.51C350.35 322.56 349.4 321.68 348.4 320.83C347.44 322.22 346.45 323.6 345.43 324.95C344.41 326.29 343.35 327.62 342.27 328.92C341.19 330.22 340.08 331.5 338.93 332.75C337.79 334.01 336.63 335.23 335.43 336.43L335.43 336.43Z" />
				<path id="Layer" class="shp3" d="M176.57 177.57C175.37 178.77 174.21 179.99 173.07 181.25C171.93 182.5 170.81 183.78 169.73 185.08C168.65 186.38 167.59 187.71 166.57 189.06C165.55 190.4 164.56 191.78 163.6 193.17C162.61 192.32 161.65 191.44 160.7 190.49C147.59 177.37 151.35 152.35 151.35 152.35C151.35 152.35 176.37 148.59 189.49 161.7C190.44 162.65 191.32 163.6 192.17 164.6C190.78 165.56 189.4 166.55 188.05 167.57C186.71 168.59 185.38 169.65 184.08 170.73C182.78 171.81 181.5 172.92 180.25 174.07C178.99 175.21 177.77 176.37 176.57 177.57Z" />
			</g>
		</g>
	</g>
	<path id="Layer" class="shp4" d="M349.86 467.07L343.77 453.36C381.24 436.7 412.94 410.07 435.46 376.36L447.93 384.69C423.84 420.77 389.93 449.25 349.86 467.07L349.86 467.07ZM453.48 375.96L440.64 368.2C443.13 364.09 445.51 359.83 447.72 355.55L461.05 362.44C458.68 367.02 456.14 371.56 453.48 375.96ZM465.59 353.15L451.97 346.86C453.99 342.5 455.89 338 457.62 333.5L471.62 338.88C469.77 343.68 467.75 348.48 465.59 353.15Z" />
</svg>