<svg xmlns="http://www.w3.org/2000/svg" viewBox="0 0 512 512" width="512" height="512">
	<style>
		tspan { white-space:pre }
		.shp0 { fill: #c6c5ca } 
		.shp1 { fill: #898890 } 
		.shp2 { fill: #e64c3c } 
		.shp3 { fill: #f18d46 } 
		.shp4 { fill: #ffffff } 
	</style>
	<path id="Layer" class="shp0" d="M504.5 256C504.5 393.24 393.24 504.5 256 504.5C118.76 504.5 7.5 393.24 7.5 256C7.5 118.76 118.76 7.5 256 7.5C393.24 7.5 504.5 118.76 504.5 256Z" />
	<path id="Layer" class="shp1" d="M37.5 256C37.5 123.79 140.74 15.7 271 7.95C266.04 7.65 261.04 7.5 256 7.5C118.76 7.5 7.5 118.76 7.5 256C7.5 393.24 118.76 504.5 256 504.5C261.04 504.5 266.04 504.35 271 504.05C140.74 496.3 37.5 388.21 37.5 256Z" />
	<g id="Layer">
		<path id="Layer" class="shp2" d="M379.39 283.31L311.8 300.48C308.84 301.3 306.91 304.14 307.22 307.2L312.13 364.58C312.44 366.91 311.36 369.22 309.37 370.48C307.38 371.74 304.84 371.73 302.85 370.45L256.92 339.22C254.64 337.66 251.58 337.92 249.59 339.84L203.98 383.26C202.12 384.97 199.4 385.34 197.15 384.19C194.91 383.04 193.62 380.61 193.92 378.1L198.97 306.35C199.2 303.66 197.7 301.13 195.24 300.03L131.75 272.85C129.46 271.79 128 269.5 128 266.99C128 264.47 129.46 262.18 131.75 261.13L195.17 233.98C197.67 232.86 199.17 230.27 198.9 227.55L193.92 169.4C193.61 167.06 194.69 164.76 196.68 163.49C198.67 162.23 201.22 162.24 203.2 163.52L248.9 194.59C251.29 196.23 254.52 195.85 256.47 193.71L315.3 130.83C317.21 128.87 320.21 128.43 322.6 129.77C324.99 131.11 326.18 133.89 325.51 136.54L307.68 227.48C307.11 230.23 308.4 233.03 310.86 234.4L380.69 271.51C382.96 272.77 384.25 275.27 383.96 277.84C383.68 280.42 381.87 282.57 379.39 283.31Z" />
		<path id="Layer" class="shp3" d="M230.67 299.85C231.51 290.11 226.17 280.88 217.3 276.76L199.28 268.89L217.25 261.03C226.25 256.88 231.61 247.46 230.59 237.59L229.25 221.65L241.01 229.81C244.45 232.23 248.55 233.53 252.76 233.53C258.63 233.48 264.22 230.97 268.16 226.61L281.31 212.26L276.85 235.48C274.82 245.47 279.4 255.64 288.24 260.73L309.02 272.01L292.64 276.26C281.93 279.34 274.99 289.69 276.23 300.77L277.52 316.13L265.58 307.84C262.14 305.43 258.04 304.13 253.84 304.12C248.41 304.15 243.2 306.3 239.33 310.11L229.28 319.88L230.67 299.85Z" />
	</g>
	<path id="Layer" class="shp4" d="M349.86 467.07L343.77 453.36C381.24 436.7 412.94 410.07 435.46 376.36L447.93 384.69C423.84 420.77 389.93 449.25 349.86 467.07L349.86 467.07ZM453.48 375.96L440.64 368.2C443.13 364.09 445.51 359.83 447.72 355.55L461.05 362.44C458.68 367.02 456.14 371.56 453.48 375.96ZM465.59 353.15L451.97 346.86C453.99 342.5 455.89 338 457.62 333.5L471.62 338.88C469.77 343.68 467.75 348.48 465.59 353.15Z" />
</svg>