<svg xmlns="http://www.w3.org/2000/svg" viewBox="0 0 512 512" width="512" height="512">
	<style>
		tspan { white-space:pre }
		.shp0 { fill: #c6c5ca } 
		.shp1 { fill: #898890 } 
		.shp2 { fill: #ffffff } 
		.shp3 { fill: #608291 } 
	</style>
	<path id="Layer" class="shp0" d="M504.5 256C504.5 393.24 393.24 504.5 256 504.5C118.76 504.5 7.5 393.24 7.5 256C7.5 118.76 118.76 7.5 256 7.5C393.24 7.5 504.5 118.76 504.5 256Z" />
	<path id="Layer" class="shp1" d="M37.5 256C37.5 123.79 140.74 15.7 271 7.95C266.04 7.65 261.04 7.5 256 7.5C118.76 7.5 7.5 118.76 7.5 256C7.5 393.24 118.76 504.5 256 504.5C261.04 504.5 266.04 504.35 271 504.05C140.74 496.3 37.5 388.21 37.5 256Z" />
	<path id="Layer" class="shp2" d="M349.86 467.07L343.77 453.36C381.24 436.7 412.94 410.07 435.46 376.36L447.93 384.69C423.84 420.77 389.93 449.25 349.86 467.07L349.86 467.07ZM453.48 375.96L440.64 368.2C443.13 364.09 445.51 359.83 447.72 355.55L461.05 362.44C458.68 367.02 456.14 371.56 453.48 375.96ZM465.59 353.15L451.97 346.86C453.99 342.5 455.89 338 457.62 333.5L471.62 338.88C469.77 343.68 467.75 348.48 465.59 353.15Z" />
	<path id="Layer copy" class="shp3" d="M219.03 335.13C192.62 321.17 176.21 293.96 176.21 264.11C176.21 219.84 212.23 183.83 256.5 183.83C300.77 183.83 336.79 219.84 336.79 264.11C336.79 292.71 321.38 319.37 296.58 333.69L291.56 325C313.27 312.47 326.75 289.14 326.75 264.11C326.75 225.37 295.24 193.86 256.5 193.86C217.76 193.86 186.25 225.37 186.25 264.11C186.25 290.23 200.61 314.04 223.72 326.26L219.03 335.13Z" />
	<path id="Layer copy 2" class="shp3" d="M309.07 361.21L304.29 352.39C330.84 337.98 349.34 312.77 355.04 283.23L364.9 285.14C358.62 317.64 338.28 345.36 309.07 361.21L309.07 361.21Z" />
	<path id="Layer copy 3" class="shp3" d="M366.77 269.36L356.75 268.89C356.82 267.31 356.86 265.72 356.86 264.11C356.86 262.51 356.82 260.91 356.75 259.33L366.77 258.86C366.85 260.6 366.89 262.35 366.89 264.11C366.89 265.87 366.85 267.62 366.77 269.36Z" />
	<path id="Layer copy 4" class="shp3" d="M203.93 361.21C168.27 341.85 146.11 304.65 146.11 264.11C146.11 203.24 195.63 153.72 256.5 153.72C309.32 153.72 354.91 191.3 364.9 243.09L355.04 244.99C345.96 197.92 304.52 163.75 256.5 163.75C201.16 163.75 156.14 208.77 156.14 264.11C156.14 300.97 176.29 334.79 208.71 352.39L203.93 361.21Z" />
	<path id="Layer copy 5" class="shp3" d="M320.93 389L316.32 380.09C359.89 357.56 386.96 313.12 386.96 264.11C386.96 192.18 328.44 133.65 256.5 133.65C184.56 133.65 126.04 192.18 126.04 264.11C126.04 311.69 151.96 355.52 193.69 378.49L188.84 387.28C143.91 362.55 116 315.35 116 264.11C116 186.64 179.03 123.61 256.5 123.61C333.97 123.61 397 186.64 397 264.11C397 316.89 367.85 364.74 320.93 389L320.93 389Z" />
</svg>