<svg xmlns="http://www.w3.org/2000/svg" viewBox="0 0 512 512" width="512" height="512">
	<style>
		tspan { white-space:pre }
		.shp0 { fill: #c6c5ca } 
		.shp1 { fill: #898890 } 
		.shp2 { fill: #ffffff } 
		.shp3 { fill: #918160 } 
	</style>
	<path id="Layer" class="shp0" d="M504.5 256C504.5 393.24 393.24 504.5 256 504.5C118.76 504.5 7.5 393.24 7.5 256C7.5 118.76 118.76 7.5 256 7.5C393.24 7.5 504.5 118.76 504.5 256Z" />
	<path id="Layer" class="shp1" d="M37.5 256C37.5 123.79 140.74 15.7 271 7.95C266.04 7.65 261.04 7.5 256 7.5C118.76 7.5 7.5 118.76 7.5 256C7.5 393.24 118.76 504.5 256 504.5C261.04 504.5 266.04 504.35 271 504.05C140.74 496.3 37.5 388.21 37.5 256Z" />
	<path id="Layer" class="shp2" d="M349.86 467.07L343.77 453.36C381.24 436.7 412.94 410.07 435.46 376.36L447.93 384.69C423.84 420.77 389.93 449.25 349.86 467.07L349.86 467.07ZM453.48 375.96L440.64 368.2C443.13 364.09 445.51 359.83 447.72 355.55L461.05 362.44C458.68 367.02 456.14 371.56 453.48 375.96ZM465.59 353.15L451.97 346.86C453.99 342.5 455.89 338 457.62 333.5L471.62 338.88C469.77 343.68 467.75 348.48 465.59 353.15Z" />
	<path id="Layer" class="shp3" d="M275.09 240.35L158.53 240.35L158.53 222.48L275.09 222.48C284.57 222.48 292.28 214.77 292.28 205.29C292.28 195.81 284.57 188.1 275.09 188.1C265.61 188.1 257.9 195.81 257.9 205.29L240.03 205.29C240.03 185.96 255.75 170.23 275.09 170.23C294.42 170.23 310.15 185.96 310.15 205.29C310.15 224.62 294.42 240.35 275.09 240.35Z" />
	<path id="Layer" class="shp3" d="M333.8 352.7C314.47 352.7 298.74 336.97 298.74 317.64L316.61 317.64C316.61 327.12 324.32 334.83 333.8 334.83C343.28 334.83 350.99 327.12 350.99 317.64C350.99 308.16 343.28 300.45 333.8 300.45L194.63 300.45L194.63 282.58L333.8 282.58C353.13 282.58 368.86 298.31 368.86 317.64C368.86 336.97 353.13 352.7 333.8 352.7Z" />
	<path id="Layer" class="shp3" d="M368.45 270.4L104 270.4L104 252.53L368.45 252.53C380.96 252.53 391.13 242.36 391.13 229.85C391.13 217.35 380.96 207.18 368.45 207.18C355.95 207.18 345.78 217.35 345.78 229.85L327.91 229.85C327.91 207.5 346.1 189.31 368.45 189.31C390.81 189.31 409 207.5 409 229.85C409 252.21 390.81 270.4 368.45 270.4Z" />
	<path id="Layer" class="shp3" d="M136.44 133.13L154.31 133.13L154.31 151L136.44 151L136.44 133.13Z" />
	<path id="Layer" class="shp3" d="M186.25 164.21L204.12 164.21L204.12 182.08L186.25 182.08L186.25 164.21Z" />
	<path id="Layer" class="shp3" d="M242.96 120L260.83 120L260.83 137.87L242.96 137.87L242.96 120Z" />
	<path id="Layer" class="shp3" d="M378.93 120L396.81 120L396.81 137.87L378.93 137.87L378.93 120Z" />
	<g id="Layer">
		<path id="Layer" class="shp3" d="M318.91 142.8L336.78 142.8L336.78 160.67L318.91 160.67L318.91 142.8Z" />
		<path id="Layer" class="shp3" d="M114.6 296.54L132.47 296.54L132.47 314.41L114.6 314.41L114.6 296.54Z" />
	</g>
	<path id="Layer" class="shp3" d="M138.69 362.53L156.56 362.53L156.56 380.41L138.69 380.41L138.69 362.53Z" />
	<g id="Layer">
		<path id="Layer" class="shp3" d="M210.67 329.32L228.54 329.32L228.54 347.2L210.67 347.2L210.67 329.32Z" />
		<path id="Layer" class="shp3" d="M378.93 334.96L396.81 334.96L396.81 352.83L378.93 352.83L378.93 334.96Z" />
	</g>
	<path id="Layer" class="shp3" d="M256.5 362.53L274.37 362.53L274.37 380.41L256.5 380.41L256.5 362.53Z" />
	<path id="Layer" class="shp3" d="M330.42 375.03L348.29 375.03L348.29 392.9L330.42 392.9L330.42 375.03Z" />
	<g id="Layer">
	</g>
</svg>