<svg xmlns="http://www.w3.org/2000/svg" viewBox="0 0 512 512" width="512" height="512">
	<style>
		tspan { white-space:pre }
		.shp0 { fill: #c6c5ca } 
		.shp1 { fill: #898890 } 
		.shp2 { fill: #ffffff } 
		.shp3 { fill: #adadad } 
		.shp4 { fill: #838383 } 
	</style>
	<path id="Layer" class="shp0" d="M504.5 256C504.5 393.24 393.24 504.5 256 504.5C118.76 504.5 7.5 393.24 7.5 256C7.5 118.76 118.76 7.5 256 7.5C393.24 7.5 504.5 118.76 504.5 256Z" />
	<path id="Layer" class="shp1" d="M37.5 256C37.5 123.79 140.74 15.7 271 7.95C266.04 7.65 261.04 7.5 256 7.5C118.76 7.5 7.5 118.76 7.5 256C7.5 393.24 118.76 504.5 256 504.5C261.04 504.5 266.04 504.35 271 504.05C140.74 496.3 37.5 388.21 37.5 256Z" />
	<path id="Layer" class="shp2" d="M349.86 467.07L343.77 453.36C381.24 436.7 412.94 410.07 435.46 376.36L447.93 384.69C423.84 420.77 389.93 449.25 349.86 467.07L349.86 467.07ZM453.48 375.96L440.64 368.2C443.13 364.09 445.51 359.83 447.72 355.55L461.05 362.44C458.68 367.02 456.14 371.56 453.48 375.96ZM465.59 353.15L451.97 346.86C453.99 342.5 455.89 338 457.62 333.5L471.62 338.88C469.77 343.68 467.75 348.48 465.59 353.15Z" />
	<g id="Layer">
		<path id="Layer" class="shp3" d="M408.78 244.73C408.78 267.42 395.86 287.09 376.98 296.79C374.28 339.56 338.75 373.41 295.29 373.41C263.21 373.41 235.44 354.96 222.03 328.07C217.57 319.14 214.7 309.29 213.78 298.87C203.69 307.11 190.82 312.05 176.79 312.05C169.57 312.05 162.65 310.75 156.27 308.35C156.25 308.34 156.25 308.34 156.25 308.34C156.25 308.51 156.27 308.68 156.27 308.85C156.27 323 144.78 334.47 130.63 334.47C116.48 334.47 105 323 105 308.85C105 296.07 114.34 285.48 126.57 283.54C121.33 274.78 118.31 264.53 118.31 253.58C118.31 242.75 121.26 232.59 126.41 223.9C136.58 206.67 155.33 195.12 176.79 195.12C178.49 195.12 180.18 195.19 181.85 195.33C188.74 163.7 216.9 140 250.6 140C284.24 140 312.36 163.6 319.31 195.15C328.3 189.52 338.93 186.27 350.31 186.27C382.61 186.27 408.78 212.45 408.78 244.73L408.78 244.73Z" />
		<g id="Layer">
			<path id="Layer" class="shp4" d="M376.98 296.79C374.28 339.56 338.75 373.41 295.29 373.41C263.21 373.41 235.44 354.96 222.03 328.07C237.06 345.06 260.03 355.78 284.44 355.78C329.45 355.78 365.93 319.29 365.93 274.28C365.93 262.33 363.36 250.98 358.75 240.76C370.04 254.74 376.98 277.41 376.98 296.79L376.98 296.79Z" />
			<path id="Layer" class="shp4" d="M234.15 264.97C231.5 278.39 223.91 290.45 213.78 298.87C203.69 307.11 190.82 312.05 176.79 312.05C169.57 312.05 162.65 310.75 156.27 308.35C156.25 308.34 156.25 308.34 156.25 308.34C143.69 303.68 133.35 294.89 126.57 283.54C121.33 274.78 118.31 264.53 118.31 253.58C118.31 242.75 121.26 232.59 126.41 223.9L126.42 223.9C125.69 227.58 125.31 231.4 125.31 235.3C125.31 267.58 151.48 293.76 183.78 293.76C205.22 293.76 223.98 282.21 234.15 264.97L234.15 264.97Z" />
			<path id="Layer" class="shp4" d="M319.31 195.15C307.67 171.84 284.35 155.33 256.53 155.33C217.3 155.33 185.51 187.13 185.51 226.35C185.51 231.96 186.16 237.41 187.4 242.65C182.64 233.13 179.97 222.38 179.97 211C179.97 205.61 180.71 200.38 181.85 195.33C188.74 163.7 216.9 140 250.6 140C284.24 140 312.36 163.6 319.31 195.15L319.31 195.15Z" />
		</g>
	</g>
</svg>