<svg xmlns="http://www.w3.org/2000/svg" viewBox="0 0 480 481" width="480" height="481">
	<style>
		tspan { white-space:pre }
		.shp0 { fill: #8f8f8f } 
		.shp1 { fill: #a5a5a5 } 
	</style>
	<path id="Layer" class="shp0" d="M480 408C480 368.24 372.55 336 240 336C107.45 336 0 368.25 0 408C0 447.75 107.46 480 240 480C372.54 480 480 447.77 480 408Z" />
	<path id="Layer" class="shp0" d="M399 397.69L315.29 165.77C313.47 160.76 311.96 155.64 310.74 150.44C309.53 145.25 308.63 139.99 308.04 134.69C307.45 129.39 307.18 124.05 307.22 118.72C307.26 113.39 307.62 108.06 308.29 102.77L319.93 9C320.02 8.22 320 7.43 319.87 6.66C319.73 5.88 319.48 5.14 319.13 4.43C318.77 3.73 318.32 3.09 317.78 2.52C317.24 1.95 316.61 1.47 315.93 1.08C315.24 0.68 314.5 0.4 313.73 0.22C312.96 0.05 312.16 -0.01 311.37 0.06C310.58 0.12 309.81 0.3 309.07 0.6C308.34 0.89 307.65 1.3 307.04 1.8L219.36 71.93C213.82 76.35 208.59 81.16 203.73 86.32C198.86 91.47 194.35 96.96 190.25 102.75C186.15 108.53 182.46 114.6 179.21 120.9C175.95 127.2 173.14 133.72 170.8 140.41L80.73 397.77C80.54 398.3 80.41 398.84 80.33 399.39C80.26 399.94 80.24 400.5 80.28 401.06C80.32 401.62 80.42 402.17 80.57 402.7C80.73 403.24 80.94 403.76 81.2 404.25C81.47 404.74 81.79 405.21 82.15 405.63C82.52 406.06 82.93 406.44 83.38 406.78C83.83 407.11 84.31 407.4 84.82 407.64C85.33 407.87 85.86 408.05 86.41 408.17C99.01 410.92 111.68 413.32 124.41 415.36C137.14 417.4 149.93 419.09 162.76 420.41C175.59 421.73 188.45 422.69 201.33 423.29C214.21 423.89 227.11 424.13 240 424C252.88 424.13 265.75 423.89 278.61 423.29C291.48 422.69 304.32 421.73 317.13 420.4C329.93 419.08 342.7 417.4 355.42 415.36C368.13 413.31 380.78 410.91 393.36 408.16C394.45 407.89 395.47 407.4 396.36 406.72C397.25 406.03 397.98 405.17 398.51 404.18C399.04 403.19 399.36 402.11 399.45 400.99C399.53 399.87 399.38 398.75 399 397.69Z" />
	<path id="Layer" class="shp1" d="M398.57 404.17C398.31 404.67 398 405.15 397.63 405.58C397.27 406.01 396.86 406.41 396.41 406.75C395.96 407.1 395.48 407.39 394.96 407.63C394.45 407.87 393.91 408.05 393.36 408.17C380.78 410.92 368.13 413.32 355.42 415.36C342.7 417.4 329.93 419.09 317.13 420.41C304.32 421.73 291.48 422.69 278.61 423.29C265.75 423.89 252.88 424.13 240 424C227.11 424.13 214.21 423.89 201.33 423.29C188.45 422.69 175.59 421.73 162.76 420.41C149.93 419.09 137.14 417.4 124.41 415.36C111.68 413.32 99.01 410.92 86.41 408.17C85.86 408.05 85.33 407.87 84.82 407.64C84.31 407.4 83.83 407.11 83.38 406.78C82.93 406.44 82.52 406.06 82.15 405.63C81.79 405.21 81.47 404.74 81.2 404.25C80.94 403.76 80.73 403.24 80.57 402.7C80.42 402.17 80.32 401.62 80.28 401.06C80.24 400.5 80.26 399.94 80.33 399.39C80.41 398.84 80.54 398.3 80.73 397.77L96.09 353.93C101.09 355.05 106.41 356.17 111.84 357.21C122.41 359.09 133.02 360.73 143.66 362.12C154.3 363.51 164.98 364.66 175.67 365.56C186.37 366.46 197.08 367.11 207.81 367.52C218.53 367.93 229.27 368.09 240 368C250.67 368.08 261.35 367.92 272.01 367.51C282.68 367.1 293.33 366.45 303.97 365.55C314.61 364.66 325.22 363.52 335.8 362.14C346.39 360.76 356.94 359.14 367.45 357.28C372.96 356.28 378.25 355.2 383.29 354L388.73 369.2L399 397.69C399.2 398.21 399.34 398.76 399.43 399.31C399.51 399.86 399.53 400.42 399.49 400.98C399.45 401.54 399.35 402.09 399.19 402.63C399.02 403.17 398.8 403.68 398.53 404.17L398.57 404.17Z" />
	<path id="Layer" class="shp1" d="M259.09 169.69L268.92 182.33L310.62 149.89C310.06 147.43 309.56 144.95 309.13 142.46C308.71 139.97 308.35 137.47 308.07 134.96C307.78 132.45 307.57 129.93 307.42 127.41C307.28 124.88 307.2 122.36 307.2 119.83L249.06 112.08L247 127.94L303.19 135.43L259.09 169.69Z" />
</svg>