<svg xmlns="http://www.w3.org/2000/svg" viewBox="0 0 460 512" width="460" height="512">
	<style>
		tspan { white-space:pre }
		.shp0 { fill: #343434 } 
		.shp1 { fill: #a5a5a5 } 
		.shp2 { fill: #8f8f8f } 
		.shp3 { fill: #acacac } 
	</style>
	<path id="Layer" class="shp0" d="M238.38 53L220.66 53C218.35 53 216.06 52.54 213.92 51.66C211.78 50.77 209.84 49.47 208.2 47.84C206.57 46.2 205.27 44.26 204.38 42.12C203.5 39.98 203.04 37.69 203.04 35.38L203.04 17.62C203.04 15.31 203.5 13.01 204.38 10.88C205.27 8.74 206.56 6.8 208.2 5.16C209.84 3.52 211.78 2.23 213.92 1.34C216.05 0.46 218.35 0 220.66 0L238.38 0C240.69 0 242.99 0.46 245.12 1.34C247.26 2.23 249.2 3.52 250.84 5.16C252.48 6.8 253.77 8.74 254.66 10.88C255.54 13.01 256 15.31 256 17.62L256 35.35C256 37.67 255.55 39.96 254.66 42.1C253.78 44.24 252.48 46.19 250.85 47.83C249.21 49.46 247.27 50.77 245.13 51.65C242.99 52.54 240.7 53 238.38 53L238.38 53Z" />
	<path id="Layer" class="shp1" d="M203.04 35.34L203.04 17.62C203.05 16.85 203.11 16.08 203.21 15.32C203.32 14.56 203.48 13.8 203.69 13.06C203.9 12.32 204.16 11.59 204.47 10.88C204.77 10.18 205.12 9.49 205.52 8.83L105.93 8.83L105.93 44.14L205.52 44.14C205.12 43.48 204.77 42.79 204.47 42.08C204.16 41.38 203.9 40.65 203.69 39.91C203.48 39.16 203.32 38.41 203.21 37.64C203.11 36.88 203.05 36.11 203.04 35.34L203.04 35.34Z" />
	<path id="Layer" class="shp1" d="M253.57 8.83C253.96 9.49 254.31 10.18 254.61 10.89C254.91 11.59 255.17 12.32 255.37 13.06C255.58 13.8 255.73 14.56 255.84 15.32C255.94 16.08 256 16.85 256 17.62L256 35.35C256 36.12 255.94 36.89 255.84 37.65C255.73 38.41 255.58 39.17 255.37 39.91C255.17 40.65 254.91 41.38 254.61 42.08C254.31 42.79 253.96 43.48 253.57 44.14L353.11 44.14L353.11 8.83L253.57 8.83Z" />
	<path id="Layer" class="shp2" d="M397.24 326.62C370.76 247.17 379.59 70.62 353.11 44.14L253.57 44.14C252.81 45.48 251.88 46.71 250.79 47.8C249.71 48.89 248.49 49.84 247.16 50.61C245.84 51.38 244.41 51.98 242.93 52.38C241.45 52.79 239.92 52.99 238.38 53L220.66 53C219.13 53 217.61 52.79 216.14 52.39C214.66 52 213.24 51.41 211.92 50.64C210.6 49.88 209.38 48.94 208.3 47.86C207.22 46.78 206.28 45.56 205.52 44.24L105.92 44.24C79.44 70.73 88.27 247.24 61.79 326.73C61.79 326.73 17.65 450.31 -0.01 467.97C-0.01 467.97 132.41 511.97 229.51 511.97L229.51 511.86C326.61 511.86 459.03 467.86 459.03 467.86C441.38 450.21 397.24 326.62 397.24 326.62Z" />
	<path id="Layer" class="shp3" d="M0 467.86C10.37 471.18 20.8 474.35 31.26 477.37C41.73 480.39 52.24 483.25 62.79 485.97C73.34 488.68 83.93 491.24 94.55 493.65C105.17 496.05 115.83 498.3 126.52 500.4C189.99 272.9 149.45 114.15 105.93 44.14C79.45 70.62 88.28 247.14 61.8 326.62C61.8 326.62 17.66 450.21 0 467.86Z" />
	<path id="Layer" class="shp3" d="M459.04 467.86C448.67 471.18 438.24 474.35 427.78 477.37C417.31 480.39 406.8 483.25 396.25 485.97C385.7 488.68 375.11 491.24 364.49 493.65C353.87 496.05 343.21 498.3 332.52 500.4C269.05 272.9 309.59 114.15 353.11 44.14C379.59 70.62 370.76 247.14 397.24 326.62C397.24 326.62 441.38 450.21 459.04 467.86Z" />
</svg>