<svg xmlns="http://www.w3.org/2000/svg" viewBox="0 0 64 64" width="64" height="64">
	<style>
		tspan { white-space:pre }
		.shp0 { fill: #8c421c } 
		.shp1 { fill: #a52929 } 
		.shp2 { fill: #db1717 } 
		.shp3 { fill: #7d3b19 } 
		.shp4 { fill: #f5f5f5 } 
		.shp5 { fill: #d4d4d4 } 
	</style>
	<path id="Layer" class="shp0" d="M35 23L3.63 58.3C3.27 58.69 3.29 59.29 3.67 59.67L4.33 60.33C4.71 60.71 5.31 60.73 5.7 60.37L41 29L35 23Z" />
	<path id="Layer" class="shp1" d="M49 5C43.48 5 39 9.48 39 15C39 17.28 39.77 19.37 41.05 21.05L42.95 22.95C44.63 24.23 46.72 25 49 25C54.52 25 59 20.52 59 15C59 9.48 54.52 5 49 5L49 5Z" />
	<path id="Layer" class="shp2" d="M57.57 9.86L58.32 8.36C59.18 6.64 57.36 4.82 55.64 5.68L54.14 6.43" />
	<path id="Layer" class="shp2" d="M49 5C45.47 5 42.38 6.83 40.59 9.59C42.15 8.59 44.01 8 46 8C51.52 8 56 12.48 56 18C56 19.99 55.41 21.85 54.41 23.41C57.17 21.63 59 18.53 59 15C59 9.48 54.52 5 49 5L49 5Z" />
	<path id="Layer" class="shp3" d="M34.45 34.83L41 29L35.51 23.51C36.07 25.65 36.46 28.15 36 30C35.65 31.39 35.06 33.13 34.45 34.83Z" />
	<g id="Layer">
		<path id="Layer" class="shp2" d="M52.21 29.66L51.79 27.7C53.46 27.34 55.02 26.65 56.43 25.67L57.57 27.31C55.95 28.44 54.14 29.23 52.21 29.65L52.21 29.66Z" />
		<path id="Layer" class="shp2" d="M60.49 24.64L58.96 23.36C59.45 22.78 59.88 22.15 60.26 21.5L61.99 22.5C61.56 23.26 61.05 23.98 60.49 24.64L60.49 24.64Z" />
		<path id="Layer" class="shp2" d="M37.25 9.43L35.44 8.57C36.71 5.9 38.73 3.67 41.27 2.14L42.3 3.86C40.1 5.18 38.35 7.11 37.25 9.43Z" />
		<path id="Layer" class="shp2" d="M36.03 14.07L34.04 13.93C34.09 13.21 34.19 12.49 34.35 11.79L36.3 12.21C36.17 12.82 36.08 13.45 36.03 14.07Z" />
		<path id="Layer" class="shp2" d="M48 46C42.55 46 37.19 44.56 32.5 41.85L33.5 40.12C37.89 42.66 42.9 44 48 44C52.03 44 55.94 43.19 59.6 41.59L60.4 43.42C56.48 45.13 52.31 46 48 46L48 46Z" />
		<path id="Layer" class="shp2" d="M21.77 31.53C18.65 26.59 17 20.87 17 15C17 12.55 17.29 10.12 17.85 7.77L19.79 8.23C19.27 10.44 19 12.71 19 15C19 20.5 20.54 25.84 23.46 30.47L21.77 31.53Z" />
		<path id="Layer" class="shp2" d="M26.5 10.21L24.54 9.79C24.85 8.37 25.27 6.97 25.82 5.63L27.67 6.38C27.17 7.61 26.78 8.9 26.5 10.21L26.5 10.21Z" />
		<path id="Layer" class="shp2" d="M46.92 39.91C34.07 38.85 24 27.91 24 15L26 15C26 26.88 35.26 36.95 47.08 37.92L46.92 39.91Z" />
		<path id="Layer" class="shp2" d="M53.17 39.65L52.83 37.68C54.82 37.35 56.75 36.75 58.58 35.91L59.42 37.73C57.43 38.65 55.32 39.29 53.17 39.65L53.17 39.65Z" />
		<path id="Layer" class="shp2" d="M51 24.4C46.04 24.4 42 20.36 42 15.4C42 11.32 45.32 8 49.4 8C52.77 8 55.52 10.75 55.52 14.12C55.52 16.93 53.23 19.22 50.42 19.22C48.07 19.22 46.15 17.3 46.15 14.94C46.15 12.94 47.77 11.32 49.77 11.32L49.77 13.32C48.87 13.32 48.15 14.04 48.15 14.94C48.15 16.19 49.17 17.22 50.42 17.22C52.13 17.22 53.52 15.83 53.52 14.12C53.52 11.85 51.67 10 49.4 10C46.42 10 44 12.42 44 15.4C44 19.26 47.14 22.4 51 22.4L51 24.4Z" />
	</g>
	<path id="Layer" class="shp4" d="M44 32C45.1 33.1 46.9 33.1 48 32C49.1 30.9 49.1 29.11 48 28L37 17C35.9 15.89 34.1 15.89 33 17C31.9 18.11 31.89 19.89 33 21L44 32Z" />
	<path id="Layer" class="shp5" d="M48 28L37 17C35.9 15.89 34.1 15.89 33 17C32.8 17.2 32.64 17.44 32.51 17.68C33.58 17.12 34.93 17.27 35.83 18.17L46.83 29.17C47.73 30.07 47.88 31.42 47.32 32.49C47.56 32.36 47.8 32.2 48 32C49.1 30.89 49.1 29.11 48 28Z" />
</svg>