<svg xmlns="http://www.w3.org/2000/svg" viewBox="0 0 256 256" width="256" height="256">
	<style>
		tspan { white-space:pre }
		.shp0 { fill: #601f84 } 
		.shp1 { fill: #7f00ff } 
		.shp2 { fill: #bdc3c7 } 
	</style>
	<g id="Page-1">
		<g id="029---Sword-and-Shield">
			<path id="Shape" class="shp0" d="M128 250.64C256.27 228.01 230.85 66.72 225.07 37.14C224.56 34.54 222.23 32.69 219.58 32.81C205.55 33.35 161.88 32.65 131.78 5.04C129.65 3.06 126.35 3.06 124.22 5.04C94.13 32.62 50.46 33.34 36.41 32.76C33.76 32.65 31.43 34.49 30.92 37.1C25.16 66.72 -0.26 228.01 128 250.64Z" />
			<path id="Shape" class="shp1" d="M206.48 136.82C203.92 156.3 197.06 174.96 186.37 191.45C175.07 208.13 158.23 220.28 138.84 225.76L138.84 162.35C151.12 158.69 160.71 149.09 164.37 136.82L206.48 136.82Z" />
			<path id="Shape" class="shp2" d="M208.87 115.14C208.44 122.4 207.65 129.64 206.48 136.82L164.37 136.82C166.47 129.75 166.47 122.22 164.37 115.14L208.87 115.14Z" />
			<path id="Shape" class="shp1" d="M208.87 115.14L164.37 115.14C160.71 102.87 151.12 93.27 138.84 89.62L138.84 36.61C159.6 47.53 182.56 53.61 205.99 54.39C208.94 74.5 209.9 94.85 208.87 115.14Z" />
			<path id="Shape" class="shp2" d="M138.84 36.61L138.84 89.62C131.77 87.52 124.24 87.52 117.16 89.62L117.16 36.61C120.9 34.53 124.51 32.25 128 29.78C131.49 32.25 135.11 34.53 138.84 36.61Z" />
			<path id="Shape" class="shp2" d="M138.84 162.35L138.84 225.76C135.29 226.91 131.67 227.85 128 228.58C124.34 227.85 120.72 226.91 117.16 225.76L117.16 162.35C124.24 164.44 131.77 164.44 138.84 162.35L138.84 162.35Z" />
			<path id="Shape" class="shp1" d="M117.16 162.35L117.16 225.76C97.78 220.28 80.94 208.13 69.63 191.45C58.95 174.96 52.08 156.3 49.53 136.82L91.64 136.82C95.29 149.09 104.89 158.69 117.16 162.35Z" />
			<path id="Shape" class="shp1" d="M117.16 36.61L117.16 89.62C104.89 93.27 95.29 102.87 91.64 115.14L47.14 115.14C46.11 94.85 47.07 74.5 50.01 54.39C73.45 53.61 96.41 47.53 117.16 36.61Z" />
			<path id="Shape" class="shp0" d="M165.94 125.98C165.95 129.65 165.42 133.3 164.37 136.82C160.71 149.09 151.12 158.69 138.84 162.35C131.77 164.44 124.24 164.44 117.16 162.35C104.89 158.69 95.29 149.09 91.64 136.82C89.54 129.75 89.54 122.22 91.64 115.14C95.29 102.87 104.89 93.27 117.16 89.62C124.24 87.52 131.77 87.52 138.84 89.62C151.12 93.27 160.71 102.87 164.37 115.14C165.42 118.66 165.95 122.31 165.94 125.98Z" />
			<path id="Shape" class="shp2" d="M90.07 125.98C90.06 129.65 90.59 133.3 91.64 136.82L49.53 136.82C48.36 129.64 47.57 122.4 47.14 115.14L91.64 115.14C90.59 118.66 90.06 122.31 90.07 125.98Z" />
		</g>
	</g>
</svg>