<svg id="Capa_1" enable-background="new 0 0 512 512" height="512" viewBox="0 0 512 512" width="512" xmlns="http://www.w3.org/2000/svg"><g><path d="m457.4 424.079h-68.292c-1.639 0-3.212-.651-4.371-1.81l-9.272-9.272c-2.414-2.414-6.328-2.414-8.741 0l-9.272 9.272c-1.159 1.159-2.731 1.81-4.371 1.81h-298.481v-336.158h95.731c1.639 0 3.212.651 4.371 1.81l9.272 9.272c2.414 2.414 6.328 2.414 8.741 0l9.272-9.272c1.159-1.159 2.731-1.81 4.371-1.81h271.042z" fill="#f3dcb0"/><g><g><path d="m15.453 48.419h54.6v415.163h-54.6z" fill="#ce9775"/><path d="m70.052 47.388h-54.6v-20.088c0-15.077 12.223-27.3 27.3-27.3 15.077 0 27.3 12.223 27.3 27.3z" fill="#655e67"/><path d="m46.311 47.388v-20.088c0-10.823-6.298-20.174-15.429-24.59 3.589-1.736 7.616-2.71 11.871-2.71 15.077 0 27.3 12.222 27.3 27.3v20.089h-23.742z" fill="#544f56"/><path d="m79.324 63.871h-73.143c-3.414 0-6.181-2.767-6.181-6.181v-19.573c0-3.414 2.767-6.181 6.181-6.181h73.143c3.414 0 6.181 2.767 6.181 6.181v19.573c0 3.414-2.767 6.181-6.181 6.181z" fill="#b0aab3"/></g><g><path d="m70.052 464.612h-54.6v20.088c0 15.077 12.223 27.3 27.3 27.3 15.077 0 27.3-12.223 27.3-27.3z" fill="#655e67"/><path d="m46.311 464.612v20.088c0 10.823-6.298 20.174-15.429 24.59 3.589 1.736 7.616 2.71 11.871 2.71 15.077 0 27.3-12.222 27.3-27.3v-20.089h-23.742z" fill="#544f56"/><path d="m79.324 448.129h-73.143c-3.414 0-6.181 2.767-6.181 6.181v19.573c0 3.414 2.767 6.181 6.181 6.181h73.143c3.414 0 6.181-2.767 6.181-6.181v-19.573c0-3.414-2.767-6.181-6.181-6.181z" fill="#b0aab3"/></g></g><g><g><path d="m441.948 48.419h54.6v415.163h-54.6z" fill="#ce9775"/><path d="m496.547 47.388h-54.6v-20.088c0-15.077 12.223-27.3 27.3-27.3 15.077 0 27.3 12.223 27.3 27.3z" fill="#655e67"/><path d="m472.806 47.388v-20.088c0-10.823-6.298-20.174-15.429-24.59 3.589-1.736 7.616-2.71 11.87-2.71 15.077 0 27.3 12.222 27.3 27.3v20.089h-23.741z" fill="#544f56"/><path d="m505.819 63.871h-73.143c-3.414 0-6.181-2.767-6.181-6.181v-19.573c0-3.414 2.767-6.181 6.181-6.181h73.143c3.414 0 6.181 2.767 6.181 6.181v19.573c0 3.414-2.767 6.181-6.181 6.181z" fill="#b0aab3"/><g fill="#c6855b"><path d="m465.642 63.871h30.905v384.258h-30.905z"/><path d="m39.147 63.871h30.905v384.258h-30.905z"/></g></g><g><path d="m496.547 464.612h-54.6v20.088c0 15.077 12.223 27.3 27.3 27.3 15.077 0 27.3-12.223 27.3-27.3z" fill="#766d78"/><path d="m472.806 464.612v20.088c0 10.823-6.298 20.174-15.429 24.59 3.589 1.736 7.616 2.71 11.871 2.71 15.077 0 27.3-12.222 27.3-27.3v-20.089h-23.742z" fill="#544f56"/><path d="m505.819 448.129h-73.143c-3.414 0-6.181 2.767-6.181 6.181v19.573c0 3.414 2.767 6.181 6.181 6.181h73.143c3.414 0 6.181-2.767 6.181-6.181v-19.573c0-3.414-2.767-6.181-6.181-6.181z" fill="#b0aab3"/><g fill="#a199a4"><path d="m505.819 448.129h-30.905c3.414 0 6.181 2.768 6.181 6.181v19.573c0 3.413-2.767 6.181-6.181 6.181h30.905c3.414 0 6.181-2.768 6.181-6.181v-19.573c0-3.414-2.767-6.181-6.181-6.181z"/><path d="m505.819 31.936h-30.905c3.414 0 6.181 2.768 6.181 6.181v19.573c0 3.413-2.767 6.181-6.181 6.181h30.905c3.414 0 6.181-2.768 6.181-6.181v-19.573c0-3.414-2.767-6.181-6.181-6.181z"/><path d="m79.324 448.129h-30.905c3.414 0 6.181 2.768 6.181 6.181v19.573c0 3.413-2.767 6.181-6.181 6.181h30.905c3.414 0 6.181-2.768 6.181-6.181v-19.573c0-3.414-2.767-6.181-6.181-6.181z"/><path d="m79.324 31.936h-30.905c3.414 0 6.181 2.768 6.181 6.181v19.573c0 3.413-2.767 6.181-6.181 6.181h30.905c3.414 0 6.181-2.768 6.181-6.181v-19.573c0-3.414-2.767-6.181-6.181-6.181z"/></g></g></g><g><path d="m401.256 149.891h-290.512c-4.267 0-7.726-3.459-7.726-7.726s3.459-7.726 7.726-7.726h290.511c4.267 0 7.726 3.459 7.726 7.726s-3.458 7.726-7.725 7.726z" fill="#eecb81"/></g><g><path d="m401.256 196.249h-290.512c-4.267 0-7.726-3.459-7.726-7.726s3.459-7.726 7.726-7.726h290.511c4.267 0 7.726 3.459 7.726 7.726.001 4.267-3.458 7.726-7.725 7.726z" fill="#eecb81"/></g><g><path d="m401.256 242.608h-290.512c-4.267 0-7.726-3.459-7.726-7.726s3.459-7.726 7.726-7.726h290.511c4.267 0 7.726 3.459 7.726 7.726s-3.458 7.726-7.725 7.726z" fill="#eecb81"/></g><g><path d="m401.256 288.966h-290.512c-4.267 0-7.726-3.459-7.726-7.726s3.459-7.726 7.726-7.726h290.511c4.267 0 7.726 3.459 7.726 7.726s-3.458 7.726-7.725 7.726z" fill="#eecb81"/></g><g><path d="m401.256 335.324h-290.512c-4.267 0-7.726-3.459-7.726-7.726s3.459-7.726 7.726-7.726h290.511c4.267 0 7.726 3.459 7.726 7.726s-3.458 7.726-7.725 7.726z" fill="#eecb81"/></g><g><path d="m308.539 381.682h-197.795c-4.267 0-7.726-3.459-7.726-7.726 0-4.268 3.459-7.726 7.726-7.726h197.795c4.267 0 7.726 3.459 7.726 7.726.001 4.267-3.459 7.726-7.726 7.726z" fill="#eecb81"/></g></g></svg>