<svg xmlns="http://www.w3.org/2000/svg" viewBox="0 0 512 512" width="512" height="512">
	<style>
		tspan { white-space:pre }
		.shp0 { fill: #ffb640 } 
		.shp1 { fill: #ffa90f } 
		.shp2 { fill: #fee17d } 
		.shp3 { fill: #ffce65 } 
	</style>
	<g id="Layer">
		<g id="Layer">
		</g>
		<g id="Layer">
		</g>
		<path id="Layer" class="shp0" d="M0 215.99L512 215.99L512 340.92L0 340.92L0 215.99Z" />
		<path id="Layer" class="shp1" d="M0 215.99L79.31 215.99L79.31 340.92L0 340.92L0 215.99Z" />
		<path id="Layer" class="shp2" d="M36.44 148L472.82 148L472.82 221.03L36.44 221.03L36.44 148Z" />
		<path id="Layer" class="shp3" d="M36.44 148L79.31 148L79.31 221.03L36.44 221.03L36.44 148Z" />
		<path id="Layer" class="shp2" d="M0 337.48L0 404.83C0 415.81 8.9 426.03 19.87 426.03L492.13 426.03C503.1 426.03 512 415.81 512 404.83L512 337.48L0 337.48Z" />
		<path id="Layer" class="shp3" d="M79.31 337.48L0 337.48L0 404.83C0 415.81 8.9 426.03 19.87 426.03L79.31 426.03L79.31 337.48Z" />
	</g>
</svg>