<svg xmlns="http://www.w3.org/2000/svg" viewBox="0 0 512 512" width="512" height="512">
	<style>
		tspan { white-space:pre }
		.shp0 { fill: #f27182 } 
		.shp1 { fill: #ed5469 } 
	</style>
	<g id="Layer">
		<g id="Layer">
		</g>
		<g id="Layer">
		</g>
		<g id="Layer">
			<path id="Layer" class="shp0" d="M348.75 26.76C342.05 32.13 338.58 39.8 338.28 47.57C338.01 54.64 332.2 60.15 325.45 60.41C318.63 60.67 311.9 63.37 306.72 68.54C301.55 73.72 298.85 80.45 298.58 87.27C298.31 94.34 292.51 99.84 285.75 100.1C278.93 100.36 272.2 103.07 267.03 108.24C261.85 113.42 259.15 120.15 258.89 126.96C258.62 134.03 252.81 139.54 246.05 139.8C239.24 140.06 232.5 142.76 227.33 147.94C222.16 153.11 219.45 159.85 219.19 166.66C218.92 173.73 213.11 179.24 206.36 179.5C199.54 179.76 192.81 182.46 187.63 187.63C182.46 192.81 179.76 199.54 179.5 206.36C179.22 213.43 173.42 218.93 166.66 219.19C159.84 219.45 153.11 222.16 147.94 227.33C142.76 232.5 140.06 239.24 139.8 246.05C139.53 253.12 133.72 258.63 126.96 258.89C120.15 259.15 113.42 261.85 108.24 267.03C103.07 272.2 100.36 278.93 100.1 285.75C99.83 292.82 94.02 298.32 87.27 298.58C80.45 298.85 73.72 301.55 68.54 306.72C63.37 311.9 60.67 318.63 60.41 325.45C60.13 332.52 54.33 338.02 47.57 338.28C39.8 338.58 32.13 342.05 26.76 348.75C17.75 359.99 19.1 376.37 29.29 386.56L126.54 483.81C136.83 494.1 153.41 495.38 164.65 486.13C177.58 475.49 178.26 456.13 166.7 444.57L134.42 412.29C124.13 402 122.85 385.42 132.1 374.19C142.74 361.26 162.1 360.58 173.66 372.14L205.94 404.42C216.23 414.71 232.81 415.98 244.04 406.73C256.97 396.09 257.65 376.74 246.09 365.18L213.81 332.9C203.52 322.61 202.24 306.03 211.5 294.79C222.14 281.87 241.49 281.18 253.05 292.75L285.33 325.03C295.62 335.32 312.2 336.59 323.44 327.34C336.36 316.7 337.04 297.35 325.48 285.79L293.2 253.51C282.91 243.22 281.64 226.64 290.89 215.4C301.53 202.47 320.88 201.79 332.44 213.35L364.72 245.63C375.01 255.92 391.59 257.2 402.83 247.95C415.75 237.31 416.44 217.95 404.88 206.39L372.6 174.11C362.3 163.82 361.03 147.24 370.28 136.01C380.92 123.08 400.27 122.4 411.84 133.96L444.11 166.24C454.41 176.53 470.99 177.81 482.22 168.55C495.15 157.91 495.83 138.56 484.27 127L386.56 29.29C376.37 19.1 359.99 17.74 348.75 26.76L348.75 26.76Z" />
			<path id="Layer" class="shp1" d="M430.77 75.52C421.52 86.76 422.79 103.33 433.08 113.63L465.36 145.91C472.85 153.39 475.19 164.15 472.41 173.69C475.91 172.69 479.25 171 482.22 168.56C495.15 157.91 495.83 138.56 484.27 127L431.71 74.44C431.39 74.79 431.07 75.15 430.77 75.52L430.77 75.52Z" />
			<path id="Layer" class="shp1" d="M271.98 234.3C262.73 245.54 264.01 262.12 274.3 272.41L306.58 304.69C314.07 312.18 316.41 322.93 313.63 332.47C317.12 331.47 320.47 329.78 323.44 327.34C336.36 316.7 337.04 297.35 325.48 285.79L293.2 253.51C285.63 245.93 282.96 234.96 285.76 225.21C280.56 226.72 275.73 229.75 271.98 234.3L271.98 234.3Z" />
			<path id="Layer" class="shp1" d="M351.38 154.91C342.13 166.15 343.4 182.73 353.69 193.02L385.97 225.3C393.46 232.79 395.8 243.54 393.02 253.08C396.52 252.08 399.86 250.39 402.83 247.95C415.75 237.31 416.44 217.95 404.87 206.39L372.6 174.11C365.02 166.54 362.35 155.56 365.15 145.82C359.96 147.33 355.13 150.36 351.38 154.91L351.38 154.91Z" />
			<path id="Layer" class="shp1" d="M192.59 313.7C183.34 324.93 184.61 341.51 194.91 351.8L227.19 384.08C234.67 391.57 237.02 402.32 234.23 411.87C237.73 410.86 241.08 409.17 244.04 406.73C256.97 396.09 257.65 376.74 246.09 365.18L213.81 332.9C206.24 325.33 203.57 314.35 206.36 304.6C201.17 306.12 196.34 309.14 192.59 313.7L192.59 313.7Z" />
			<path id="Layer" class="shp1" d="M89.78 326.07C82.61 318.9 79.83 308.66 81.95 299.3C77.03 300.44 72.36 302.91 68.55 306.72C63.37 311.9 60.67 318.63 60.41 325.45C60.13 332.51 54.33 338.02 47.57 338.28C39.8 338.58 32.13 342.05 26.76 348.75C17.75 359.99 19.1 376.37 29.29 386.56L126.54 483.81C136.84 494.1 153.41 495.38 164.65 486.13C177.58 475.48 178.26 456.13 166.7 444.57L134.42 412.29C124.13 402 122.85 385.42 132.1 374.18C132.99 373.11 133.94 372.13 134.93 371.22L89.78 326.07L89.78 326.07Z" />
		</g>
	</g>
</svg>