<svg xmlns="http://www.w3.org/2000/svg" viewBox="0 0 512 512" width="512" height="512">
	<style>
		tspan { white-space:pre }
		.shp0 { fill: #6dc1ce } 
		.shp1 { fill: #60aeba } 
	</style>
	<g id="Layer">
		<g id="Layer">
		</g>
		<g id="Layer">
		</g>
		<g id="Layer">
			<path id="Layer" class="shp0" d="M164.46 486.35C171.15 480.98 174.63 473.31 174.93 465.54C175.2 458.47 181 452.96 187.76 452.7C194.58 452.44 201.31 449.74 206.48 444.56C211.66 439.39 214.36 432.66 214.62 425.84C214.9 418.77 220.7 413.27 227.46 413.01C234.27 412.74 241.01 410.04 246.18 404.87C251.35 399.69 254.06 392.96 254.32 386.14C254.59 379.07 260.4 373.57 267.15 373.31C273.97 373.05 280.7 370.35 285.88 365.17C291.05 360 293.75 353.26 294.02 346.45C294.29 339.38 300.09 333.87 306.85 333.61C313.67 333.35 320.4 330.65 325.57 325.47C330.75 320.3 333.45 313.57 333.71 306.75C333.98 299.68 339.79 294.18 346.55 293.92C353.36 293.66 360.1 290.95 365.27 285.78C370.44 280.6 373.15 273.87 373.41 267.06C373.68 259.98 379.49 254.48 386.24 254.22C393.06 253.96 399.79 251.26 404.97 246.08C410.14 240.91 412.84 234.17 413.1 227.36C413.38 220.29 419.18 214.78 425.94 214.52C432.76 214.26 439.49 211.56 444.66 206.39C449.84 201.21 452.54 194.48 452.8 187.66C453.07 180.59 458.88 175.09 465.63 174.83C473.41 174.53 481.07 171.06 486.44 164.36C495.46 153.12 494.11 136.74 483.91 126.55L386.66 29.3C376.37 19.01 359.79 17.73 348.56 26.98C335.63 37.62 334.95 56.98 346.51 68.54L378.79 100.82C389.08 111.11 390.36 127.69 381.1 138.92C370.46 151.85 351.11 152.53 339.55 140.97L307.27 108.69C296.98 98.4 280.4 97.13 269.16 106.38C256.24 117.02 255.56 136.37 267.12 147.93L299.4 180.21C309.69 190.5 310.96 207.08 301.71 218.32C291.07 231.24 271.72 231.92 260.16 220.36L227.88 188.08C217.59 177.79 201.01 176.52 189.77 185.77C176.85 196.41 176.16 215.76 187.72 227.32L220 259.6C230.3 269.89 231.57 286.47 222.32 297.71C211.68 310.63 192.33 311.32 180.76 299.76L148.49 267.48C138.19 257.18 121.61 255.91 110.38 265.16C97.45 275.8 96.77 295.15 108.33 306.72L140.61 339C150.9 349.29 152.18 365.87 142.93 377.1C132.29 390.03 112.93 390.71 101.37 379.15L69.09 346.87C58.8 336.58 42.22 335.3 30.99 344.55C18.06 355.2 17.38 374.55 28.94 386.11L126.65 483.82C136.84 494.01 153.21 495.36 164.46 486.35L164.46 486.35Z" />
			<path id="Layer" class="shp1" d="M82.44 437.59C91.69 426.35 90.41 409.77 80.12 399.48L47.84 367.2C40.36 359.72 38.01 348.96 40.8 339.42C37.3 340.42 33.95 342.11 30.99 344.55C18.06 355.19 17.38 374.55 28.94 386.11L81.5 438.67C81.82 438.32 82.13 437.96 82.44 437.59L82.44 437.59Z" />
			<path id="Layer" class="shp1" d="M241.22 278.8C250.47 267.57 249.2 250.99 238.91 240.7L206.63 208.42C199.14 200.93 196.8 190.18 199.58 180.64C196.08 181.64 192.74 183.33 189.77 185.77C176.85 196.41 176.16 215.76 187.72 227.32L220 259.6C227.58 267.18 230.25 278.15 227.45 287.9C232.64 286.39 237.47 283.36 241.22 278.8L241.22 278.8Z" />
			<path id="Layer" class="shp1" d="M161.83 358.2C171.08 346.96 169.81 330.38 159.52 320.09L127.24 287.81C119.75 280.32 117.4 269.57 120.19 260.03C116.69 261.03 113.35 262.72 110.38 265.16C97.45 275.8 96.77 295.16 108.33 306.72L140.61 339C148.19 346.57 150.85 357.54 148.06 367.29C153.25 365.78 158.08 362.75 161.83 358.2L161.83 358.2Z" />
			<path id="Layer" class="shp1" d="M320.62 199.41C329.87 188.18 328.59 171.6 318.3 161.3L286.02 129.03C278.53 121.54 276.19 110.78 278.97 101.24C275.48 102.25 272.13 103.93 269.16 106.38C256.24 117.02 255.56 136.37 267.12 147.93L299.4 180.21C306.97 187.78 309.64 198.76 306.85 208.51C312.04 206.99 316.87 203.97 320.62 199.41L320.62 199.41Z" />
			<path id="Layer" class="shp1" d="M423.42 187.04C430.6 194.21 433.37 204.45 431.25 213.81C436.17 212.67 440.84 210.2 444.66 206.39C449.84 201.21 452.54 194.48 452.8 187.66C453.07 180.59 458.88 175.09 465.63 174.83C473.41 174.53 481.07 171.06 486.44 164.36C495.46 153.12 494.1 136.74 483.91 126.55L386.66 29.3C376.37 19.01 359.79 17.73 348.56 26.98C335.63 37.62 334.95 56.98 346.51 68.54L378.79 100.82C389.08 111.11 390.35 127.69 381.1 138.92C380.22 140 379.27 140.98 378.27 141.89L423.42 187.04L423.42 187.04Z" />
		</g>
	</g>
</svg>