<svg id="Capa_1" enable-background="new 0 0 512.002 512.002" height="512" viewBox="0 0 512.002 512.002" width="512" xmlns="http://www.w3.org/2000/svg"><g><path d="m417.001 203.499c-51.56 19.98-105.76 36.62-160.91 36.62h-.09c-55.11-.02-109.09-16.43-160.63-36.39 14.71-63.38 65.07-111.54 127.9-124.23h65.65c62.94 12.71 113.41 60.74 128.08 124z" fill="#fff7cc"/><path d="m417.001 203.499c-51.56 19.98-105.76 36.62-160.91 36.62h-.09v-160.62h32.92c62.94 12.71 113.41 60.74 128.08 124z" fill="#ffe6b3"/><path d="m422.001 240.999v23.5c-52.67 23.58-109.35 35.45-166 35.38-56.29-.08-112.58-11.73-165-35.15v-23.73c.09-12.6 1.56-25.36 4.37-37.5h321.63c2.82 12.14 5 24.9 5 37.5z" fill="#725d57"/><path d="m422.001 240.999v23.5c-52.67 23.58-109.35 35.45-166 35.38v-96.38h161c2.82 12.14 5 24.9 5 37.5z" fill="#53433f"/><path d="m509.591 354.838c-51.44 79.34-158.16 111.16-253.5 111.16h-.09c-95.57-.02-202.28-32-253.59-111.16-4.13-6.38-2.84-14.84 3-19.7l85.59-70.64h331l84.6 70.65c5.83 4.86 7.12 13.32 2.99 19.69z" fill="#fff7cc"/><path d="m509.591 354.838c-51.44 79.34-158.16 111.16-253.5 111.16h-.09v-201.5h166l84.6 70.65c5.83 4.86 7.12 13.32 2.99 19.69z" fill="#ffe6b3"/><g><path d="m256.091 46.003h-.09c-24.77.05-44.91 20.22-44.91 45s20.14 44.95 44.91 45h.09c24.82 0 45-20.19 45-45s-20.18-45-45-45z" fill="#ffe6b3"/></g><path d="m301.091 91.003c0 24.81-20.18 45-45 45h-.09v-90h.09c24.82 0 45 20.19 45 45z" fill="#ffca80"/></g></svg>