<?xml version="1.0" encoding="iso-8859-1"?>
<!-- Generator: Adobe Illustrator 19.0.0, SVG Export Plug-In . SVG Version: 6.00 Build 0)  -->
<svg version="1.1" id="Layer_1" xmlns="http://www.w3.org/2000/svg" xmlns:xlink="http://www.w3.org/1999/xlink" x="0px" y="0px"
	 viewBox="0 0 512 512" style="enable-background:new 0 0 512 512;" xml:space="preserve">
<path style="fill:#FF5959;" d="M256.001,125.271c-34.537,0-62.635-28.098-62.635-62.636C193.366,28.098,221.464,0,256.001,0
	c34.538,0,62.635,28.098,62.635,62.635C318.635,97.172,290.538,125.271,256.001,125.271z M256.001,32.868
	c-16.414,0-29.768,13.353-29.768,29.767c0,16.415,13.354,29.768,29.768,29.768s29.768-13.353,29.768-29.768
	C285.769,46.221,272.415,32.868,256.001,32.868z"/>
<path style="fill:#FF7F3F;" d="M405.453,299.462c0-82.543-66.914-149.456-149.456-149.456c-82.543,0-149.456,66.913-149.456,149.456
	s9.219,149.456,149.456,149.456S405.453,382.006,405.453,299.462z"/>
<path style="fill:#333E48;" d="M378.53,130.843c0-12.103-9.903-22.006-22.006-22.006H155.469c-12.103,0-22.006,9.903-22.006,22.006
	v37.977c0,12.103,9.903,22.006,22.006,22.006h201.056c12.103,0,22.006-9.903,22.006-22.006V130.843z"/>
<path style="opacity:0.2;enable-background:new    ;" d="M221.461,150.011c0-9.356-7.579-16.926-16.923-16.926
	c-9.34,0-16.919,7.57-16.919,16.926c0,9.343,7.577,16.917,16.919,16.917C213.882,166.928,221.461,159.349,221.461,150.011z"/>
<path style="opacity:0.2;enable-background:new    ;" d="M290.541,150.011c0-9.356,7.579-16.926,16.924-16.926
	c9.34,0,16.919,7.57,16.919,16.926c0,9.343-7.577,16.917-16.919,16.917C298.119,166.928,290.541,159.349,290.541,150.011z"/>
<path style="fill:#333E48;" d="M426.232,489.994c0,12.103-9.903,22.006-22.006,22.006H107.766c-12.103,0-22.006-9.903-22.006-22.006
	v-37.977c0-12.103,9.903-22.006,22.006-22.006h296.461c12.103,0,22.006,9.903,22.006,22.006V489.994z"/>
<path style="fill:#F9E2A9;" d="M322.193,363.819c0-36.558-29.636-126.357-66.192-126.357s-66.191,89.799-66.191,126.357
	c0,36.559,29.635,66.192,66.191,66.192C292.557,430.011,322.193,400.378,322.193,363.819z"/>
<path style="fill:#FF671B;" d="M256.001,384.587c-15.03,0-27.257-12.225-27.257-27.256c0-9.82,4.157-30.669,12.104-51.518
	c5.558-14.581,9.637-19.79,15.153-19.79c5.516,0,9.598,5.209,15.154,19.79c7.947,20.848,12.104,41.698,12.104,51.518
	C283.26,372.362,271.03,384.587,256.001,384.587z"/>
<circle style="fill:#FFFFFF;" cx="342.409" cy="251.14" r="25.082"/>
<path style="opacity:0.2;enable-background:new    ;" d="M272.922,471.01c0-9.356-7.579-16.926-16.923-16.926
	c-9.34,0-16.919,7.57-16.919,16.926c0,9.343,7.578,16.917,16.919,16.917C265.343,487.927,272.922,480.348,272.922,471.01z"/>
<path style="opacity:0.2;enable-background:new    ;" d="M186.738,471.01c0-9.356-7.579-16.926-16.923-16.926
	c-9.34,0-16.919,7.57-16.919,16.926c0,9.343,7.577,16.917,16.919,16.917C179.158,487.927,186.738,480.348,186.738,471.01z"/>
<path style="opacity:0.2;enable-background:new    ;" d="M325.26,471.01c0-9.356,7.58-16.926,16.923-16.926
	c9.34,0,16.92,7.57,16.92,16.926c0,9.343-7.578,16.917-16.92,16.917C332.839,487.927,325.26,480.348,325.26,471.01z"/>
<g>
	<path style="fill:#333E48;" d="M446.841,479.258h-23.895v-16.504h23.895c3.728,0,7.106-1.474,9.513-4.15
		c2.752-3.059,4-7.283,3.511-11.895L431.228,176.04c-1.021-9.638-10.07-17.782-19.763-17.782h-36.221v-16.504h36.221
		c18.048,0,34.276,14.602,36.175,32.55l28.637,270.668c0.973,9.192-1.817,18.183-7.655,24.672
		C463.043,475.844,455.308,479.258,446.841,479.258z"/>
	<path style="fill:#333E48;" d="M89.057,479.258H65.162c-8.468,0-16.205-3.415-21.783-9.614c-5.837-6.487-8.627-15.48-7.655-24.672
		l28.637-270.668c1.899-17.949,18.127-32.55,36.176-32.55h36.221v16.504h-36.221c-9.692,0-18.743,8.143-19.763,17.782
		L52.138,446.708c-0.489,4.612,0.758,8.836,3.511,11.895c2.407,2.676,5.786,4.15,9.514,4.15h23.894
		C89.056,462.753,89.056,479.258,89.057,479.258z"/>
</g>
<g>
</g>
<g>
</g>
<g>
</g>
<g>
</g>
<g>
</g>
<g>
</g>
<g>
</g>
<g>
</g>
<g>
</g>
<g>
</g>
<g>
</g>
<g>
</g>
<g>
</g>
<g>
</g>
<g>
</g>
</svg>
