<svg height="512pt" viewBox="-16 0 512 512" width="512pt" xmlns="http://www.w3.org/2000/svg"><path d="m75 512c-8.289062 0-15-6.710938-15-15v-30c0-8.289062 6.710938-15 15-15s15 6.710938 15 15v30c0 8.289062-6.710938 15-15 15zm0 0" fill="#3e5959"/><g fill="#293939"><path d="m165 512c-8.289062 0-15-6.710938-15-15v-30c0-8.289062 6.710938-15 15-15s15 6.710938 15 15v30c0 8.289062-6.710938 15-15 15zm0 0"/><path d="m255 512c-8.289062 0-15-6.710938-15-15v-30c0-8.289062 6.710938-15 15-15s15 6.710938 15 15v30c0 8.289062-6.710938 15-15 15zm0 0"/><path d="m345 512c-8.289062 0-15-6.710938-15-15v-30c0-8.289062 6.710938-15 15-15s15 6.710938 15 15v30c0 8.289062-6.710938 15-15 15zm0 0"/><path d="m435 512c-8.289062 0-15-6.710938-15-15v-30c0-8.289062 6.710938-15 15-15s15 6.710938 15 15v30c0 8.289062-6.710938 15-15 15zm0 0"/></g><path d="m480 421v46c0 8.398438-6.597656 15-15 15h-420c-8.402344 0-15-6.601562-15-15v-46l30-30h390zm0 0" fill="#537983"/><path d="m480 421v46c0 8.398438-6.597656 15-15 15h-315v-91h300zm0 0" fill="#3e5959"/><path d="m390 349.601562-30 71.398438h-180l-150-150v-135c0-8.402344 6.597656-15 15-15h210c8.402344 0 15 6.597656 15 15v45l-30 15 30 15v24.300781l-25.199219 19.796875 55.199219-2.699218 15 48.601562 15-40.5 30 7.800781zm0 0" fill="#ffd396"/><path d="m390 349.601562-30 71.398438h-180l-30-30v-270h105c8.402344 0 15 6.597656 15 15v45l-30 15 30 15v24.300781l-25.199219 19.796875 55.199219-2.699218 15 48.601562 15-40.5 30 7.800781zm0 0" fill="#ffb64c"/><path d="m105 241c-8.289062 0-15-6.710938-15-15v-90c0-8.289062 6.710938-15 15-15s15 6.710938 15 15v90c0 8.289062-6.710938 15-15 15zm0 0" fill="#3e5959"/><path d="m180 196c0 8.289062 6.710938 15 15 15h75v-30h-75c-8.289062 0-15 6.710938-15 15zm0 0" fill="#bbdcff"/><path d="m330 260.5v55.5c0 8.398438-6.597656 15-15 15s-15-6.601562-15-15v-63.601562zm0 0" fill="#bbdcff"/><path d="m285 0h-270c-8.402344 0-15 6.597656-15 15v121c0 8.398438 6.597656 15 15 15h270c8.402344 0 15-6.601562 15-15v-121c0-8.402344-6.597656-15-15-15zm0 0" fill="#537983"/><path d="m285 151h-135v-151h135c8.402344 0 15 6.597656 15 15v121c0 8.398438-6.597656 15-15 15zm0 0" fill="#3e5959"/><path d="m480 380.863281c0-45.265625-28.855469-85.296875-72.6875-99.875l-47.3125-12.582031v152.59375h120zm0 0" fill="#ff9100"/><path d="m300 252.398438-85.199219 32.699218c-8.101562 2.703125-16.5-1.5-18.898437-9.296875-2.703125-7.800781 1.5-16.5 9.296875-18.902343l64.800781-21.597657v9.300781zm0 0" fill="#bbdcff"/><path d="m180 406v15h-150v-150h15c42.597656 0 80.398438 19.5 105 50.398438 18.898438 23.101562 30 52.5 30 84.601562zm0 0" fill="#ffb64c"/><path d="m180 406v15h-30v-99.601562c18.898438 23.101562 30 52.5 30 84.601562zm0 0" fill="#ff9100"/></svg>