<svg id="Capa_1" enable-background="new 0 0 512 512" height="512" viewBox="0 0 512 512" width="512" xmlns="http://www.w3.org/2000/svg"><g><g><g fill="#7a6e79"><path d="m69.401 416.575 26.033 26.033-64.016 64.005c-7.18 7.18-18.842 7.18-26.033-.01-7.18-7.18-7.18-18.842 0-26.023z"/><path d="m121.732 321.444h100.84v36.816h-100.84z" transform="matrix(.707 -.707 .707 .707 -189.89 221.27)"/><path d="m206.807 220.421h132.735v36.812h-132.735z" transform="matrix(.707 -.707 .707 .707 -88.865 263.115)"/></g><path d="m283.257 188.749h43.165v36.816h-43.165z" fill="#685e67" transform="matrix(.707 -.707 .707 .707 -57.197 276.229)"/><path d="m220.818 317.214-24.652 24.642c-8.705-8.643-17.338-17.359-25.909-26.146l24.529-24.529z" fill="#685e67"/><path d="m53.706 423.062h33.625v36.816h-33.625z" fill="#685e67" transform="matrix(.707 -.707 .707 .707 -291.511 179.167)"/><path d="m63.681 384.324h91.167v36.816h-91.167z" fill="#31a7fb" transform="matrix(.707 -.707 .707 .707 -252.772 195.219)"/><path d="m196.814 276.579h40.393v36.816h-40.393z" fill="#31a7fb" transform="matrix(.707 -.707 .707 .707 -145.026 239.849)"/></g><g><g><g><path d="m317.961 212.349-18.308-18.308c-4.385-4.385-4.385-11.494 0-15.879l20.782-20.782 34.187 34.187-20.782 20.782c-4.385 4.385-11.494 4.385-15.879 0z" fill="#fde784"/><path d="m354.625 191.565-20.786 20.786c-4.383 4.383-11.497 4.383-15.879 0l-17.094-17.094c4.383 4.383 11.497 4.383 15.879 0l20.786-20.786z" fill="#fddd45"/></g><g><path d="m346.985 199.204-34.187-34.187c-4.385-4.385-4.385-11.494 0-15.879l20.782-20.782 50.066 50.066-20.782 20.782c-4.385 4.385-11.494 4.385-15.879 0z" fill="#fddd45"/><path d="m383.645 178.425-20.778 20.778c-4.391 4.391-11.497 4.383-15.879 0l-18.753-18.753c4.383 4.383 11.489 4.391 15.879 0l20.778-20.778z" fill="#f8c52d"/></g><g><path d="m372.04 182.089-42.127-42.127c-4.385-4.385-4.385-11.494 0-15.879l14.434-14.434 58.006 58.006-14.434 14.434c-4.385 4.385-11.494 4.385-15.879 0z" fill="#fca62f"/><path d="m402.35 167.658-14.434 14.434c-4.383 4.383-11.497 4.383-15.879 0l-18.753-18.753c4.383 4.383 11.497 4.383 15.879 0l14.434-14.434z" fill="#f98824"/></g></g><path d="m373.349 138.653c-24.723-24.723-26.466-64.235-4.017-91.04l27.032-32.276c16.15-19.282 45.357-20.571 63.142-2.786l39.944 39.944c17.785 17.785 16.496 46.992-2.786 63.142l-32.276 27.032c-26.803 22.45-66.316 20.707-91.039-4.016z" fill="#fb7722"/><path d="m496.66 115.635-32.275 27.034c-26.804 22.453-66.312 20.707-91.036-4.017-3.597-3.597-6.709-7.503-9.329-11.647 24.303 15.395 56.482 13.878 79.396-5.304l32.274-27.034c19.277-16.149 20.572-45.359 2.787-63.144l20.969 20.969c17.794 17.792 16.5 47.002-2.786 63.143z" fill="#ed5d1d"/><path d="m490.634 41.868-93.092 93.092-20.5-20.5 93.092-93.092c2.199-2.199 5.748-2.191 7.94 0l12.56 12.56c2.192 2.192 2.199 5.741 0 7.94z" fill="#f8c52d"/><path d="m455.692 35.81-23.962 23.962-2.072 13.648c-.794 5.224 3.7 9.718 8.924 8.924l13.648-2.072 23.962-23.962z" fill="#d6a826"/><path d="m414.846 136.797-39.641-39.641c-4.41-4.41-7.061-10.277-7.457-16.501l-1.735-27.295c-.184-2.893-3.694-4.218-5.744-2.168l-27.322 27.322c-6.152 6.152-6.152 16.126 0 22.278l78.262 78.262c6.152 6.152 16.126 6.152 22.278 0l27.322-27.322c2.05-2.05.725-5.56-2.168-5.744l-27.295-1.735c-6.223-.395-12.09-3.046-16.5-7.456z" fill="#fddd45"/><path d="m460.81 151.739-27.32 27.32c-6.153 6.153-16.133 6.145-22.279 0l-19.039-19.039c6.145 6.145 16.125 6.153 22.279 0l15.863-15.863c.341.04.691.071 1.032.095l27.296 1.731c2.89.191 4.224 3.7 2.168 5.756z" fill="#f8c52d"/><g><path d="m490.169 12.904-31.83 4.838c-3.393.516-6.057 3.179-6.573 6.573l-4.838 31.83c-.794 5.225 3.704 9.723 8.929 8.929l31.83-4.838c3.393-.516 6.057-3.179 6.573-6.573l4.838-31.83c.794-5.225-3.704-9.723-8.929-8.929z" fill="#68dbf9"/><path d="m487.681 60.238-31.827 4.838c-5.225.794-9.723-3.704-8.929-8.929l1.858-12.221 25.322-3.836 3.836-25.322 12.22-1.858c5.225-.794 9.723 3.704 8.929 8.929l-4.838 31.827c-.514 3.393-3.177 6.056-6.571 6.572z" fill="#21c1f8"/></g></g></g></svg>