<svg id="Capa_1" enable-background="new 0 0 512 512" height="512" viewBox="0 0 512 512" width="512" xmlns="http://www.w3.org/2000/svg"><g><path d="m375.307 103.286h30v30h-30z" fill="#e68a2e"/><path d="m325.733 64.65-44.75 83.9-28.39 14-28.391-14-44.75-83.9 73.141-14z" fill="#4ab564"/><path d="m325.733 64.65-44.75 83.9-28.39 14v-111.9z" fill="#00914f"/><path d="m325.733 64.65h-146.281l28.391-64.65h89.5z" fill="#8adb51"/><path d="m325.733 64.65h-73.14v-64.65h44.75z" fill="#4ab564"/><path d="m444.164 172.168h30v30h-30z" fill="#e68a2e"/><path d="m252.593 146.28c-100.99 0-182.85 81.88-182.85 182.87 0 100.98 81.86 182.85 182.85 182.85s182.85-81.87 182.85-182.85c0-100.99-81.86-182.87-182.85-182.87zm0 292.57c-60.59 0-109.72-49.11-109.72-109.7 0-60.6 49.13-109.72 109.72-109.72s109.72 49.12 109.72 109.72c0 60.59-49.13 109.7-109.72 109.7z" fill="#f5f0ff"/><path d="m435.443 329.15c0 100.98-81.86 182.85-182.85 182.85v-73.15c60.59 0 109.72-49.11 109.72-109.7 0-60.6-49.13-109.72-109.72-109.72v-73.15c100.99 0 182.85 81.88 182.85 182.87z" fill="#cecef4"/><path d="m197.096 172.148v30c-35.64 0-64.63 28.99-64.63 64.63h-30c0-35.64-28.99-64.63-64.63-64.63v-30c35.64 0 64.63-29 64.63-64.64h30c0 35.64 28.99 64.64 64.63 64.64z" fill="#fc6"/><path d="m197.096 172.148v30c-35.64 0-64.63 28.99-64.63 64.63h-15v-159.27h15c0 35.64 28.99 64.64 64.63 64.64z" fill="#ffb366"/></g></svg>