<svg height="512" viewBox="0 0 512 512" width="512" xmlns="http://www.w3.org/2000/svg"><g id="Flat"><g fill="#529ddf"><path d="m28.97056 372.97056 110.05888 110.05888a16.97054 16.97054 0 0 0 12 4.97056 16.97054 16.97054 0 0 0 16.97056-16.97055 16.97054 16.97054 0 0 0 -4.97056-12l-110.05888-110.05889a16.97054 16.97054 0 0 0 -12-4.97056 16.97054 16.97054 0 0 0 -16.97056 16.97055 16.97054 16.97054 0 0 0 4.97056 12.00001z"/><path d="m472 214.62988a22.6086 22.6086 0 0 1 -6.62 15.99024l-141.1 141.09988a96.58424 96.58424 0 0 1 -68.28 28.28 96.55727 96.55727 0 0 0 -68.28 28.28l-27.72 27.72-104-104 80-80v-64l177.37-177.37012a22.62742 22.62742 0 1 1 32 32l-121.37 121.37012a11.31371 11.31371 0 0 0 16 16l137.37-137.37012a22.61572 22.61572 0 0 1 16-6.62988h.01a22.62751 22.62751 0 0 1 16 38.62012l-137.39 137.38988a11.31371 11.31371 0 0 0 16.01 15.99l129.37-129.37012a22.62742 22.62742 0 1 1 32 32l-129.37 129.37012a11.31371 11.31371 0 0 0 16 16l97.37-97.37012a22.63 22.63 0 0 1 38.63 16z"/><path d="m56 352 14.62-14.62012c-.33.34009-.67.69019-1.01 1.03z"/></g><path d="m231.99993 280.12831c-.03087 25.04117-10.46074 48.95228-28.16745 66.65916l-6.86748 6.86753a7.99739 7.99739 0 0 1 -11.31006 0 7.99739 7.99739 0 0 1 0-11.31l7.71506-7.71513a77.25754 77.25754 0 0 0 0-109.25976l-7.79-7.78028c-10.36-10.35983-10.35-24.82983-1.43-33.75975a56.22825 56.22825 0 0 0 16.53-39.89014c0-.2 0-.40991-.01-.60986l14.45-14.4502a72.70727 72.70727 0 0 1 1.56 15.02 71.94262 71.94262 0 0 1 -21.21 51.25 5.98345 5.98345 0 0 0 -1.84 4.55 9.98486 9.98486 0 0 0 3.27 6.57012l7.78 7.79a92.65576 92.65576 0 0 1 27.31993 66.06831z" fill="#4384c3"/><path d="m216 280.01a77.25084 77.25084 0 0 1 -22.63 54.61987l-77.37 77.37013-60-60 13.61-13.59009c.34-.33984.68-.68994 1.01-1.03a144.46956 144.46956 0 0 0 30.44-45.96 144.8002 144.8002 0 0 0 11.04-55.46 144.79994 144.79994 0 0 1 42.4-102.35981l29.6-29.6001a56.20337 56.20337 0 0 1 16.57 39.33008c.01.2.01.40991.01.60986a56.22825 56.22825 0 0 1 -16.53 39.89014c-8.92 8.92993-8.93005 23.3999 1.43 33.75976l7.79 7.78028a77.26569 77.26569 0 0 1 22.63 54.63988z" fill="#529ddf"/><g fill="#fdca77"><path d="m216 88a32 32 0 0 1 32 32 32 32 0 0 1 32-32 32 32 0 0 1 -32-32 32 32 0 0 1 -32 32z"/><path d="m296 368a32 32 0 0 1 32 32 32 32 0 0 1 32-32 32 32 0 0 1 -32-32 32 32 0 0 1 -32 32z"/><path d="m64 296a32 32 0 0 1 32 32 32 32 0 0 1 32-32 32 32 0 0 1 -32-32 32 32 0 0 1 -32 32z"/></g><path d="m67.656 340.544h16v39.598h-16z" fill="#4384c3" transform="matrix(.707 -.707 .707 .707 -232.641 159.039)"/><path d="m127.656 377.916h16v84.854h-16z" fill="#4384c3" transform="matrix(.707 -.707 .707 .707 -257.494 219.039)"/></g></svg>