<svg id="Capa_1" enable-background="new 0 0 512 512" height="512" viewBox="0 0 512 512" width="512" xmlns="http://www.w3.org/2000/svg"><g><path d="m209.93 345.008 26.199-26.199c111.077-111.077 70.05-223.188 63.321-239.275-.422-1.008.218-2.127 1.296-2.307 33.249-5.554 62.438-25.416 79.797-54.397l13.181-22.006c.711-1.188 2.482-1.065 3.009.216 8.597 17.488 39.192 173.375-63.05 271.282l-98.219 98.219z" fill="#faf2f3"/><path d="m340.972 279.61-98.223 98.223-21.853-21.853 98.223-98.223c64.569-64.569 89.205-157.752 67.09-244.378l7.517-12.558c.707-1.187 2.477-1.064 3.008.226 39.292 95.484 17.402 205.398-55.762 278.563z" fill="#f0e5e0"/><path d="m143.22 462.78-25.185 25.185-19.564-19.564c-3.295-3.296-3.295-8.639 0-11.934l19.218-19.218z" fill="#6f6571"/><path d="m150.513 470.069-19.224 19.224c-3.293 3.293-8.639 3.293-11.939-.007l-20.885-20.885c-.16-.16-.313-.328-.459-.503 3.322 2.826 8.304 2.666 11.429-.459l19.224-19.224z" fill="#5d5360"/><path d="m144.69 454.038 83.043-83.042-21.896-21.896-24.629 24.63-1.614 9.739-9.316 1.191-12.939 12.939-2.214 8.651-8.716 2.279-23.614 23.614z" fill="#d19a6e"/><path d="m238.662 381.92-24.629 24.629-9.861 1.075-1.073 9.858-12.937 12.938-10.223.709-.703 10.217-23.617 23.617-21.853-21.854 83.042-83.042z" fill="#bc845e"/><path d="m181.412 337.724 63.847 63.847c16.477 16.477 16.477 43.193 0 59.67l-11.337 11.337c-16.477 16.477-43.193 16.477-59.67 0l-4.177-4.177-44.753-44.753c-3.295-3.295-8.639-3.295-11.934 0l-5.967 5.967c-3.295 3.296-3.295 8.639 0 11.934l44.753 44.753 7.16 7.16c24.716 24.716 57.505 17.432 82.221-7.284l17.304-17.304c24.716-24.716 32.001-57.505 7.284-82.221l-63.847-63.847c-1.648-1.648-1.648-4.319 0-5.967l4.177-4.177c4.943-4.943 4.943-12.958 0-17.901-4.943-4.943-12.958-4.943-17.901 0l-7.16 7.16c-9.887 9.887-9.887 25.916 0 35.803z" fill="#ffe07d"/><path d="m266.146 476.159-17.308 17.308c-24.716 24.716-64.788 24.709-89.504-.007l-18.211-18.211c24.213 24.213 63.178 24.716 87.981 1.471 1.683-1.246 3.293-2.622 4.815-4.145l11.335-11.335c1.522-1.522 2.899-3.132 4.145-4.815 23.245-24.804 22.742-63.768-1.471-87.981l18.211 18.211c24.716 24.716 24.723 64.788.007 89.504z" fill="#ffd064"/><path d="m180.783 373.906h15.458v36.115h-15.458z" fill="#bc845e" transform="matrix(.707 -.707 .707 .707 -221.946 248.101)"/><path d="m189.908 385.636h15.463v30.905h-15.463z" fill="#ad775c" transform="matrix(.707 -.707 .707 .707 -225.726 257.229)"/><path d="m156.915 397.774h15.454v36.111h-15.454z" fill="#bc845e" transform="matrix(.707 -.707 .707 .707 -245.729 238.017)"/><path d="m190.162 430.42-10.934 10.919-21.853-21.839 10.934-10.933z" fill="#ad775c"/></g></svg>