<svg xmlns="http://www.w3.org/2000/svg" xmlns:xlink="http://www.w3.org/1999/xlink" viewBox="0 0 127.65 145.8"><defs><style>.cls-1{isolation:isolate;}.cls-2{fill:#3d4359;}.cls-10,.cls-11,.cls-13,.cls-15,.cls-16,.cls-17,.cls-19,.cls-20,.cls-21,.cls-3,.cls-5,.cls-6,.cls-9{mix-blend-mode:overlay;}.cls-3{fill:url(#radial-gradient);}.cls-4{fill:#548a9e;}.cls-5{fill:url(#radial-gradient-2);}.cls-6{fill:url(#radial-gradient-3);}.cls-18,.cls-22,.cls-7{mix-blend-mode:multiply;}.cls-7{fill:url(#radial-gradient-4);}.cls-8{fill:#b2bad9;}.cls-9{fill:url(#radial-gradient-5);}.cls-10{fill:url(#radial-gradient-6);}.cls-11{fill:url(#radial-gradient-7);}.cls-12{fill:#fff;}.cls-13{fill:url(#radial-gradient-9);}.cls-14{fill:#20263b;}.cls-15{fill:url(#radial-gradient-10);}.cls-16{fill:url(#radial-gradient-11);}.cls-17{fill:url(#radial-gradient-12);}.cls-18{fill:url(#radial-gradient-13);}.cls-19{fill:url(#radial-gradient-14);}.cls-20{fill:url(#radial-gradient-15);}.cls-21{fill:url(#radial-gradient-16);}.cls-23{fill:url(#radial-gradient-17);}</style><radialGradient id="radial-gradient" cx="-78.6" cy="-639.79" r="68.68" gradientTransform="translate(533.28 408.96) rotate(-45)" gradientUnits="userSpaceOnUse"><stop offset="0" stop-color="#fff"/><stop offset="0.14" stop-color="#f8f8f8"/><stop offset="0.34" stop-color="#e5e5e5"/><stop offset="0.58" stop-color="#c6c6c6"/><stop offset="0.85" stop-color="#9c9c9c"/><stop offset="1" stop-color="gray"/></radialGradient><radialGradient id="radial-gradient-2" cx="-84.27" cy="-685.63" r="96.25" xlink:href="#radial-gradient"/><radialGradient id="radial-gradient-3" cx="-31.98" cy="-613.7" r="92.72" gradientTransform="translate(533.28 408.96) rotate(-45)" gradientUnits="userSpaceOnUse"><stop offset="0.66" stop-color="gray"/><stop offset="0.68" stop-color="#858585"/><stop offset="0.7" stop-color="#959595"/><stop offset="0.72" stop-color="#aeaeae"/><stop offset="0.75" stop-color="#d2d2d2"/><stop offset="0.78" stop-color="#fff"/><stop offset="0.78" stop-color="#f1f1f1"/><stop offset="0.8" stop-color="#cecece"/><stop offset="0.81" stop-color="#b2b2b2"/><stop offset="0.83" stop-color="#9c9c9c"/><stop offset="0.85" stop-color="#8c8c8c"/><stop offset="0.87" stop-color="#838383"/><stop offset="0.91" stop-color="gray"/></radialGradient><radialGradient id="radial-gradient-4" cx="-61.11" cy="-499.36" r="100.22" gradientTransform="translate(533.28 408.96) rotate(-45)" gradientUnits="userSpaceOnUse"><stop offset="0" stop-color="#290052"/><stop offset="0.1" stop-color="#38125e"/><stop offset="0.31" stop-color="#5f407d"/><stop offset="0.59" stop-color="#9d8bb0"/><stop offset="0.95" stop-color="#f2f0f5"/><stop offset="1" stop-color="#fff"/></radialGradient><radialGradient id="radial-gradient-5" cx="66.61" cy="109.2" r="21.19" gradientUnits="userSpaceOnUse"><stop offset="0" stop-color="#fff"/><stop offset="1" stop-color="gray"/></radialGradient><radialGradient id="radial-gradient-6" cx="47.29" cy="98.22" r="15.17" xlink:href="#radial-gradient-5"/><radialGradient id="radial-gradient-7" cx="12.18" cy="-544.81" r="150.65" xlink:href="#radial-gradient-3"/><radialGradient id="radial-gradient-9" cx="20.94" cy="54.32" r="35.7" xlink:href="#radial-gradient-5"/><radialGradient id="radial-gradient-10" cx="-91.51" cy="-519.39" r="18.89" xlink:href="#radial-gradient"/><radialGradient id="radial-gradient-11" cx="-135.3" cy="-523.13" r="52.34" gradientTransform="translate(533.28 408.96) rotate(-45)" gradientUnits="userSpaceOnUse"><stop offset="0.66" stop-color="gray"/><stop offset="0.68" stop-color="#7b7b7b"/><stop offset="0.71" stop-color="#6b6b6b"/><stop offset="0.74" stop-color="#525252"/><stop offset="0.77" stop-color="#2e2e2e"/><stop offset="0.78" stop-color="#292929"/><stop offset="0.78" stop-color="#323232"/><stop offset="0.8" stop-color="#4e4e4e"/><stop offset="0.82" stop-color="#646464"/><stop offset="0.84" stop-color="#747474"/><stop offset="0.87" stop-color="#7d7d7d"/><stop offset="0.91" stop-color="gray"/></radialGradient><radialGradient id="radial-gradient-12" cx="-109.97" cy="-490.08" r="26.37" xlink:href="#radial-gradient-3"/><radialGradient id="radial-gradient-13" cx="-102.13" cy="-494.3" r="8.47" xlink:href="#radial-gradient-4"/><radialGradient id="radial-gradient-14" cx="-101.16" cy="-494.18" r="19.77" xlink:href="#radial-gradient-3"/><radialGradient id="radial-gradient-15" cx="-98.75" cy="-495.38" r="19.76" xlink:href="#radial-gradient-3"/><radialGradient id="radial-gradient-16" cx="-92.38" cy="-505.6" r="12.03" xlink:href="#radial-gradient"/><radialGradient id="radial-gradient-17" cx="-95.89" cy="-501.45" r="11.77" gradientTransform="translate(533.28 408.96) rotate(-45)" gradientUnits="userSpaceOnUse"><stop offset="0" stop-color="#fff"/><stop offset="0.33" stop-color="#fffefd"/><stop offset="0.44" stop-color="#fefcf6"/><stop offset="0.53" stop-color="#fdf7eb"/><stop offset="0.59" stop-color="#fbf0da"/><stop offset="0.65" stop-color="#f9e8c4"/><stop offset="0.7" stop-color="#f7dda8"/><stop offset="0.75" stop-color="#f4d189"/><stop offset="0.79" stop-color="#f0c364"/><stop offset="0.8" stop-color="#f0c160"/><stop offset="0.8" stop-color="#f1c569"/><stop offset="0.85" stop-color="#f6d99e"/><stop offset="0.9" stop-color="#faeac8"/><stop offset="0.94" stop-color="#fdf5e6"/><stop offset="0.97" stop-color="#fefcf8"/><stop offset="1" stop-color="#fff"/></radialGradient></defs><g class="cls-1"><g id="Layer_2" data-name="Layer 2"><g id="weapon"><g id="sword"><g id="base"><path class="cls-2" d="M71.14,75.16c.26.38.51.74.78,1.09C64.65,79.11,54.41,79,48.21,84.07a18.14,18.14,0,0,0-3.06,3.16,17,17,0,0,0-3.21,11.59C14,78.52,1.28,40.56.1,6.93,2.49,32.88,19.75,57.18,34.33,77c1.44,2,3.38,4,4.64,6,5.42-6.85,13.6-8.18,22-8.12C64.35,74.92,68.39,75.26,71.14,75.16Z"/><path class="cls-3" d="M71.14,75.16c.26.38.51.74.78,1.09C64.65,79.11,54.41,79,48.21,84.07a18.14,18.14,0,0,0-3.06,3.16,17,17,0,0,0-3.21,11.59C14,78.52,1.28,40.56.1,6.93,2.49,32.88,19.75,57.18,34.33,77c1.44,2,3.38,4,4.64,6,5.42-6.85,13.6-8.18,22-8.12C64.35,74.92,68.39,75.26,71.14,75.16Z"/><path class="cls-4" d="M67.53,66.86a35.63,35.63,0,0,0,3.61,8.3c-2.75.1-6.79-.24-10.13-.26-8.44-.06-16.62,1.27-22,8.12-1.26-2.06-3.2-4-4.64-6C19.75,57.18,2.49,32.88.1,6.93,0,4.61,0,2.28,0,0,3.08,15.93,15.8,32.53,26.37,44.82A77.39,77.39,0,0,0,36.73,54.94a24.66,24.66,0,0,0,9.38,7.44A53.69,53.69,0,0,0,67.53,66.86Z"/><path class="cls-5" d="M67.53,66.86a35.63,35.63,0,0,0,3.61,8.3c-2.75.1-6.79-.24-10.13-.26-8.44-.06-16.62,1.27-22,8.12-1.26-2.06-3.2-4-4.64-6C19.75,57.18,2.49,32.88.1,6.93,0,4.61,0,2.28,0,0,3.08,15.93,15.8,32.53,26.37,44.82A77.39,77.39,0,0,0,36.73,54.94a24.66,24.66,0,0,0,9.38,7.44A53.69,53.69,0,0,0,67.53,66.86Z"/><path class="cls-6" d="M67.53,66.86a35.63,35.63,0,0,0,3.61,8.3c-2.75.1-6.79-.24-10.13-.26-8.44-.06-16.62,1.27-22,8.12-1.26-2.06-3.2-4-4.64-6C19.75,57.18,2.49,32.88.1,6.93,0,4.61,0,2.28,0,0,3.08,15.93,15.8,32.53,26.37,44.82A77.39,77.39,0,0,0,36.73,54.94a24.66,24.66,0,0,0,9.38,7.44A53.69,53.69,0,0,0,67.53,66.86Z"/><path class="cls-4" d="M83.86,80.86c-2.71-.37-5.67-.16-8.46-.46a23.87,23.87,0,0,0-8.46.67c-5.38,1.38-10.35,4.31-14.85,7.51a14.06,14.06,0,0,0,.27,2.6,42.18,42.18,0,0,1-7.21-4,18.14,18.14,0,0,1,3.06-3.16c6.2-5.09,16.44-5,23.71-7.82h0a10.24,10.24,0,0,0,1.34,1.44c1.6,1.41,4.29,1.59,6.86,1A8.51,8.51,0,0,1,83.86,80.86Z"/><path class="cls-4" d="M82,86.17c-1,5-5.7,10-7.79,15.45-.47-.31-.94-.64-1.39-1,.9-2,1.39-5.91-1.06-7.26-2.86-1.57-6.62,2.7-8.06,4.65-1.47-.65-2.89-1.43-4.29-2.22l.09-.15C62,92,64.93,90.26,69,88.82,70,88.45,82.25,84.8,82,86.17Z"/><path class="cls-7" d="M83.86,80.86c-2.71-.37-5.67-.16-8.46-.46a23.87,23.87,0,0,0-8.46.67c-5.38,1.38-10.35,4.31-14.85,7.51a14.06,14.06,0,0,0,.27,2.6,42.18,42.18,0,0,1-7.21-4,18.14,18.14,0,0,1,3.06-3.16c6.2-5.09,16.44-5,23.71-7.82h0a10.24,10.24,0,0,0,1.34,1.44c1.6,1.41,4.29,1.59,6.86,1A8.51,8.51,0,0,1,83.86,80.86ZM46.11,62.38a24.66,24.66,0,0,1-9.38-7.44A77.39,77.39,0,0,1,26.37,44.82C15.8,32.53,3.08,15.93,0,0,0,2.28,0,4.61.1,6.93,2.49,32.88,19.75,57.18,34.33,77c1.44,2,3.38,4,4.64,6,5.42-6.85,13.6-8.18,22-8.12,3.34,0,7.38.36,10.13.26a35.63,35.63,0,0,1-3.61-8.3A53.69,53.69,0,0,1,46.11,62.38ZM82,86.17c-1,5-5.7,10-7.79,15.45-.47-.31-.94-.64-1.39-1,.9-2,1.39-5.91-1.06-7.26-2.86-1.57-6.62,2.7-8.06,4.65-1.47-.65-2.89-1.43-4.29-2.22l.09-.15C62,92,64.93,90.26,69,88.82,70,88.45,82.25,84.8,82,86.17Z"/><path class="cls-2" d="M93.16,78.47a12.24,12.24,0,0,0-6.07,9.41A9.51,9.51,0,0,0,87,89c0,2.93,1.76,5,2.23,7.74-5.89-.35-8.64,3.13-9.61,7.63A27.7,27.7,0,0,0,80.06,116a35.29,35.29,0,0,0,4.22,10.9c1.73,2.69,4.74,4.79,6.22,7.57l-.62.49c-6.27-4.27-12.12-9-15.2-16.26a23.51,23.51,0,0,1-1.15-14.86,16.92,16.92,0,0,1,.66-2.17C76.28,96.13,81,91.16,82,86.17c.27-1.37-12,2.28-13,2.65-4.06,1.44-7,3.22-9.51,6.83l-.09.15h0c-1.05,1.55-1.92,3.19-2.82,4.83-.43.78-3,4.08-2.84,4.78-.75-3.55-.67-7.08-.87-10.67,0-.37-.29-2-.49-3.57a14.06,14.06,0,0,1-.27-2.6c4.5-3.2,9.47-6.13,14.85-7.51a23.87,23.87,0,0,1,8.46-.67c2.79.3,5.75.09,8.46.46a8.51,8.51,0,0,0-3.73-2.16,12.32,12.32,0,0,0,4.65-2A27.8,27.8,0,0,1,93.16,78.47Z"/><path class="cls-8" d="M74.68,118.65a23.51,23.51,0,0,1-1.15-14.86l0-.13a.14.14,0,0,1,0,.06,17,17,0,0,0-.67,2.17A23.51,23.51,0,0,0,74,120.75C76.68,127,81.75,130.1,87,132.86,81.84,129.09,77.27,124.77,74.68,118.65Z"/><path class="cls-9" d="M74.68,118.65a23.51,23.51,0,0,1-1.15-14.86l0-.13a.14.14,0,0,1,0,.06,17,17,0,0,0-.67,2.17A23.51,23.51,0,0,0,74,120.75C76.68,127,81.75,130.1,87,132.86,81.84,129.09,77.27,124.77,74.68,118.65Z"/><path class="cls-8" d="M59.81,97.27c-.91,1.32-1.41,2.14-2.56,3.82-2.11,3.09-4.26,6.06-4.17,6.43C52.33,104,50.9,89.48,51,89.4c.36-.25.73-.48,1.08-.72,0,.34.13,1.38.29,2.5.2,1.52.47,3.2.49,3.57.2,3.59.12,7.12.87,10.67-.15-.7,2.41-4,2.84-4.78.9-1.64,1.77-3.28,2.82-4.83h0C59.73,96,59.46,97.08,59.81,97.27Z"/><path class="cls-10" d="M59.81,97.27c-.91,1.32-1.41,2.14-2.56,3.82-2.11,3.09-4.26,6.06-4.17,6.43C52.33,104,50.9,89.48,51,89.4c.36-.25.73-.48,1.08-.72,0,.34.13,1.38.29,2.5.2,1.52.47,3.2.49,3.57.2,3.59.12,7.12.87,10.67-.15-.7,2.41-4,2.84-4.78.9-1.64,1.77-3.28,2.82-4.83h0C59.73,96,59.46,97.08,59.81,97.27Z"/><path class="cls-11" d="M71.14,75.16c.26.38.51.74.78,1.09C64.65,79.11,54.41,79,48.21,84.07a18.14,18.14,0,0,0-3.06,3.16,17,17,0,0,0-3.21,11.59C14,78.52,1.28,40.56.1,6.93,2.49,32.88,19.75,57.18,34.33,77c1.44,2,3.38,4,4.64,6,5.42-6.85,13.6-8.18,22-8.12C64.35,74.92,68.39,75.26,71.14,75.16Zm13.64,1.5a12.32,12.32,0,0,1-4.65,2,8.51,8.51,0,0,1,3.73,2.16c-2.71-.37-5.67-.16-8.46-.46a23.87,23.87,0,0,0-8.46.67c-5.38,1.38-10.35,4.31-14.85,7.51a14.06,14.06,0,0,0,.27,2.6c.2,1.52.47,3.2.49,3.57.2,3.59.12,7.12.87,10.67-.15-.7,2.41-4,2.84-4.78.9-1.64,1.77-3.28,2.82-4.83h0l.09-.15C62,92,64.93,90.26,69,88.82c1-.37,13.26-4,13-2.65-1,5-5.7,10-7.79,15.45a16.92,16.92,0,0,0-.66,2.17,23.51,23.51,0,0,0,1.15,14.86c3.08,7.26,8.93,12,15.2,16.26l.62-.49c-1.48-2.78-4.49-4.88-6.22-7.57A35.29,35.29,0,0,1,80.06,116a27.7,27.7,0,0,1-.41-11.62c1-4.5,3.72-8,9.61-7.63C88.79,93.94,87.05,91.89,87,89a9.51,9.51,0,0,1,.06-1.08,12.24,12.24,0,0,1,6.07-9.41A27.8,27.8,0,0,0,84.78,76.66Z"/><path class="cls-11" d="M71.14,75.16c.26.38.51.74.78,1.09C64.65,79.11,54.41,79,48.21,84.07a18.14,18.14,0,0,0-3.06,3.16,17,17,0,0,0-3.21,11.59C14,78.52,1.28,40.56.1,6.93,2.49,32.88,19.75,57.18,34.33,77c1.44,2,3.38,4,4.64,6,5.42-6.85,13.6-8.18,22-8.12C64.35,74.92,68.39,75.26,71.14,75.16Zm13.64,1.5a12.32,12.32,0,0,1-4.65,2,8.51,8.51,0,0,1,3.73,2.16c-2.71-.37-5.67-.16-8.46-.46a23.87,23.87,0,0,0-8.46.67c-5.38,1.38-10.35,4.31-14.85,7.51a14.06,14.06,0,0,0,.27,2.6c.2,1.52.47,3.2.49,3.57.2,3.59.12,7.12.87,10.67-.15-.7,2.41-4,2.84-4.78.9-1.64,1.77-3.28,2.82-4.83h0l.09-.15C62,92,64.93,90.26,69,88.82c1-.37,13.26-4,13-2.65-1,5-5.7,10-7.79,15.45a16.92,16.92,0,0,0-.66,2.17,23.51,23.51,0,0,0,1.15,14.86c3.08,7.26,8.93,12,15.2,16.26l.62-.49c-1.48-2.78-4.49-4.88-6.22-7.57A35.29,35.29,0,0,1,80.06,116a27.7,27.7,0,0,1-.41-11.62c1-4.5,3.72-8,9.61-7.63C88.79,93.94,87.05,91.89,87,89a9.51,9.51,0,0,1,.06-1.08,12.24,12.24,0,0,1,6.07-9.41A27.8,27.8,0,0,0,84.78,76.66Z"/><path class="cls-12" d="M.26,10.28C.18,9.65.08,9,0,8.38,1.19,42,13.94,80,41.85,100.27c0-.52,0-1,0-1.54C14.91,79.08,2.14,43,.26,10.28Z"/><path class="cls-8" d="M.26,10.28C.18,9.65.08,9,0,8.38,1.19,42,13.94,80,41.85,100.27c0-.52,0-1,0-1.54C14.91,79.08,2.14,43,.26,10.28Z"/><path class="cls-13" d="M.26,10.28C.18,9.65.08,9,0,8.38,1.19,42,13.94,80,41.85,100.27c0-.52,0-1,0-1.54C14.91,79.08,2.14,43,.26,10.28Z"/><path class="cls-14" d="M97.49,99.57c3.18,4.84,8.06,18.17,12.35,22.21-1.42.9-2.8,2.08-4.36,3.3a27.34,27.34,0,0,1-3.6,2.34,9.28,9.28,0,0,0,.83-3.45c.51-10-16.85-28.77-23.06-19.64,1-4.5,3.72-8,9.61-7.63C88.79,93.94,87.05,91.89,87,89a9.51,9.51,0,0,1,.06-1.08C90.87,91.55,94.64,95.22,97.49,99.57Z"/><path class="cls-15" d="M97.49,99.57c3.18,4.84,8.06,18.17,12.35,22.21-1.42.9-2.8,2.08-4.36,3.3a27.34,27.34,0,0,1-3.6,2.34,9.28,9.28,0,0,0,.83-3.45c.51-10-16.85-28.77-23.06-19.64,1-4.5,3.72-8,9.61-7.63C88.79,93.94,87.05,91.89,87,89a9.51,9.51,0,0,1,.06-1.08C90.87,91.55,94.64,95.22,97.49,99.57Z"/><path class="cls-16" d="M97.49,99.57c3.18,4.84,8.06,18.17,12.35,22.21-1.42.9-2.8,2.08-4.36,3.3a27.34,27.34,0,0,1-3.6,2.34,9.28,9.28,0,0,0,.83-3.45c.51-10-16.85-28.77-23.06-19.64,1-4.5,3.72-8,9.61-7.63C88.79,93.94,87.05,91.89,87,89a9.51,9.51,0,0,1,.06-1.08C90.87,91.55,94.64,95.22,97.49,99.57Z"/><path class="cls-4" d="M125.83,127.51a10.8,10.8,0,0,1,.1,11.85c-2.17,3.42-9.2,9.12-13.09,5,4.21-1.63,8.5-5.43,6.88-10.48a8.31,8.31,0,0,0-3.71-4.47,5.82,5.82,0,0,0,.22-1.93,4.19,4.19,0,0,0-1.78-3.15c-2.59-1.88-7.07,0-8.22,2.79a4.67,4.67,0,0,0-.24,2.66,8.76,8.76,0,0,0-.79,12.91c-4.36-2.19-15.19-16.09-5.6-17.94.92-.19,2.05-.51,3.11-.78a9.28,9.28,0,0,1-.83,3.45,27.34,27.34,0,0,0,3.6-2.34c1.56-1.22,2.94-2.4,4.36-3.3a8.63,8.63,0,0,1,8.5-.91A15.63,15.63,0,0,1,125.83,127.51Z"/><path class="cls-17" d="M125.83,127.51a10.8,10.8,0,0,1,.1,11.85c-2.17,3.42-9.2,9.12-13.09,5,4.21-1.63,8.5-5.43,6.88-10.48a8.31,8.31,0,0,0-3.71-4.47,5.82,5.82,0,0,0,.22-1.93,4.19,4.19,0,0,0-1.78-3.15c-2.59-1.88-7.07,0-8.22,2.79a4.67,4.67,0,0,0-.24,2.66,8.76,8.76,0,0,0-.79,12.91c-4.36-2.19-15.19-16.09-5.6-17.94.92-.19,2.05-.51,3.11-.78a9.28,9.28,0,0,1-.83,3.45,27.34,27.34,0,0,0,3.6-2.34c1.56-1.22,2.94-2.4,4.36-3.3a8.63,8.63,0,0,1,8.5-.91A15.63,15.63,0,0,1,125.83,127.51Z"/><path class="cls-18" d="M125.83,127.51a10.8,10.8,0,0,1,.1,11.85c-2.17,3.42-9.2,9.12-13.09,5,4.21-1.63,8.5-5.43,6.88-10.48a8.31,8.31,0,0,0-3.71-4.47,5.82,5.82,0,0,0,.22-1.93,4.19,4.19,0,0,0-1.78-3.15c-2.59-1.88-7.07,0-8.22,2.79a4.67,4.67,0,0,0-.24,2.66,8.76,8.76,0,0,0-.79,12.91c-4.36-2.19-15.19-16.09-5.6-17.94.92-.19,2.05-.51,3.11-.78a9.28,9.28,0,0,1-.83,3.45,27.34,27.34,0,0,0,3.6-2.34c1.56-1.22,2.94-2.4,4.36-3.3a8.63,8.63,0,0,1,8.5-.91A15.63,15.63,0,0,1,125.83,127.51Z"/><path class="cls-19" d="M103.81,126.26c-.63.4-1.27.78-1.93,1.16a9.28,9.28,0,0,0,.83-3.45c-1.06.27-2.19.59-3.11.78-9.59,1.85,1.24,15.75,5.6,17.94a8.72,8.72,0,0,1-.21-11.94A7.67,7.67,0,0,1,103.81,126.26Z"/><path class="cls-20" d="M118.6,122.39v0a2.72,2.72,0,0,0-.07.33c0,.31,0,.62-.06.94a27.37,27.37,0,0,1-.55,4.94,6.11,6.11,0,0,1-.65,1.7,7.87,7.87,0,0,1,2.45,3.56c1.62,5.05-2.67,8.85-6.88,10.48,3.89,4.12,10.92-1.58,13.09-5a10.8,10.8,0,0,0-.1-11.85,16,16,0,0,0-6.81-6.34A9.26,9.26,0,0,1,118.6,122.39Z"/><path class="cls-14" d="M116.23,127.48a5.82,5.82,0,0,1-.22,1.93,7.55,7.55,0,0,1-3.1,4.12c-3.12,1.9-6.35-.7-6.92-3.75a4.67,4.67,0,0,1,.24-2.66c1.15-2.84,5.63-4.67,8.22-2.79A4.19,4.19,0,0,1,116.23,127.48Z"/><path class="cls-21" d="M116.23,127.48a5.82,5.82,0,0,1-.22,1.93,7.55,7.55,0,0,1-3.1,4.12c-3.12,1.9-6.35-.7-6.92-3.75a4.67,4.67,0,0,1,.24-2.66c1.15-2.84,5.63-4.67,8.22-2.79A4.19,4.19,0,0,1,116.23,127.48Z"/><g class="cls-22"><path class="cls-23" d="M116.23,127.48a5.82,5.82,0,0,1-.22,1.93,7.55,7.55,0,0,1-3.1,4.12c-3.12,1.9-6.35-.7-6.92-3.75a4.67,4.67,0,0,1,.24-2.66c1.15-2.84,5.63-4.67,8.22-2.79A4.19,4.19,0,0,1,116.23,127.48Z"/></g><path class="cls-14" d="M70.68,61.44c-4.81-.74-10,1.6-15,1.36a25.36,25.36,0,0,1-10.08-3,32.71,32.71,0,0,1-10.48-8.07L34.7,52a30.76,30.76,0,0,0,2,2.95,24.66,24.66,0,0,0,9.38,7.44,53.69,53.69,0,0,0,21.42,4.48,35.63,35.63,0,0,0,3.61,8.3c.26.38.51.74.78,1.09h0a10.24,10.24,0,0,0,1.34,1.44c1.6,1.41,4.29,1.59,6.86,1a12.32,12.32,0,0,0,4.65-2,5.75,5.75,0,0,0,1.68-1.89C71.31,78.15,70.55,70.25,70.68,61.44Z"/><path class="cls-2" d="M12.8,44A254.61,254.61,0,0,0,27.71,67.53l4.88,6.91c.56.82,1,1.45,1.31,1.88a4,4,0,0,1,.43.68,4.54,4.54,0,0,1-.52-.61l-1.4-1.83c-1.2-1.59-2.93-3.9-5-6.81A226.82,226.82,0,0,1,12.33,44.24,135,135,0,0,1,5.76,30.32C4.94,28.1,4.1,26,3.51,24c-.31-1-.64-2-.89-2.91l-.69-2.73c-.49-1.72-.73-3.33-1-4.72-.13-.7-.24-1.35-.35-2S.45,10.52.39,10C.29,9,.21,8.26.15,7.73a5.94,5.94,0,0,1,0-.8,3.74,3.74,0,0,1,.16.79C.34,8.25.45,9,.6,10c.07.5.15,1,.23,1.65s.26,1.24.4,1.93c.29,1.38.56,3,1.07,4.69L3,21c.27.94.6,1.89.92,2.89.61,2,1.45,4.08,2.28,6.29A141.94,141.94,0,0,0,12.8,44Z"/></g></g></g></g></g></svg>