<svg xmlns="http://www.w3.org/2000/svg" xmlns:xlink="http://www.w3.org/1999/xlink" viewBox="0 0 76.83 83.26"><defs><style>.cls-1{fill:#141317;}.cls-1,.cls-10,.cls-11,.cls-12,.cls-2,.cls-3,.cls-4,.cls-5,.cls-6,.cls-7,.cls-8,.cls-9{fill-rule:evenodd;}.cls-2{fill:#82888a;}.cls-3{fill:#d1dbd7;}.cls-4{fill:url(#GradientFill_17);}.cls-5{fill:#373940;}.cls-6{fill:#707679;}.cls-7{fill:#474a52;}.cls-8{fill:#474950;}.cls-9{fill:#525e61;}.cls-10{fill:#292f31;}.cls-11{fill:#a3bdc3;}.cls-12{fill:#999d9d;}</style><linearGradient id="GradientFill_17" x1="65" y1="63.99" x2="19.62" y2="-0.83" gradientUnits="userSpaceOnUse"><stop offset="0" stop-color="#292f31"/><stop offset="1" stop-color="#a3bdc3"/></linearGradient></defs><g id="Layer_2" data-name="Layer 2"><g id="Ñëîé_1" data-name="Ñëîé 1"><path class="cls-1" d="M38.23,83.23l0,0C22.74,75.41,11.34,61,5.25,44.68A83.36,83.36,0,0,1,.35,8.19,23.87,23.87,0,0,0,12.68,0h1.71A12.06,12.06,0,0,0,16,1.13C30.46,9.79,45.43,8.92,59.85,1,60.44.64,61,.32,61.49,0h2.3A24.42,24.42,0,0,0,76.3,8.19c3.57,27.05-10.94,61.3-38,75.07Z"/><path class="cls-2" d="M38.2,83.25h0C23.18,75.63,12,61.83,5.78,46.07l32.38-13,.26,36.5Z"/><path class="cls-3" d="M5.93,46.45c-.23-.59-.46-1.18-.68-1.77A83.36,83.36,0,0,1,.35,8.19,23.87,23.87,0,0,0,12.68,0h1.71A12.06,12.06,0,0,0,16,1.13C30.46,9.79,45.43,8.92,59.85,1,60.44.64,61,.32,61.49,0H63.8Z"/><path class="cls-4" d="M38.09,81.87l0,0c-14.94-7.59-26-21.52-31.86-37.31A80.5,80.5,0,0,1,1.46,9.29,23.09,23.09,0,0,0,13.38,1.37H15a13,13,0,0,0,1.56,1.09C30.58,10.83,45.05,10,59,2.3c.57-.32,1.1-.63,1.58-.93h2.22a23.72,23.72,0,0,0,12.1,7.92c3.45,26.16-10.58,59.29-36.77,72.6Z"/><path class="cls-2" d="M38.25,72.51l0,0C17.67,62.38,7.59,35.87,9.51,16.69a16.85,16.85,0,0,0,9.6-6.8,7.06,7.06,0,0,0,2.27,1.59c11,6.39,22.32,5.75,33.27-.12a17.48,17.48,0,0,0,2.4-1.51A17.69,17.69,0,0,0,67,16.69c1.93,19.18-8.16,45.69-28.7,55.84Z"/><path class="cls-5" d="M67,16.69c1.93,19.17-8.14,45.66-28.66,55.83l.2-5.79-1.46-6.91,25-38.12Z"/><path class="cls-3" d="M9.5,16.8a.45.45,0,0,0,0-.11,16.85,16.85,0,0,0,9.6-6.8l.11.16,2.11,6.11.5,3.71-6.06,3.71S12.47,20,9.5,16.8Z"/><path class="cls-6" d="M66.68,16.7s0-.08,0-.11a16.82,16.82,0,0,1-9.59-6.8L57,10l-2.11,6.11-.5,3.7,6.06,3.72S63.7,19.9,66.68,16.7Z"/><path class="cls-6" d="M38.47,67.33l0,0C22.07,59,12.88,36.71,13.52,21.15c2.09.52,6.14-2.41,7.81-5,10.79,8,25.33,4.61,31.62,1.14a12.19,12.19,0,0,0,1.91-1.24,11.94,11.94,0,0,0,7.19,5.64C62,37.26,54.87,59,38.5,67.35Z"/><path class="cls-7" d="M38.47,67.33l0,0-.13-.07-.2-46.2A34.5,34.5,0,0,0,53,17.3a12.19,12.19,0,0,0,1.91-1.24,11.94,11.94,0,0,0,7.19,5.64C62,37.26,54.87,59,38.5,67.35Z"/><path class="cls-8" d="M14.55,6.71A2.12,2.12,0,1,1,13,9.26,2.12,2.12,0,0,1,14.55,6.71Z"/><path class="cls-9" d="M14.55,6.71a2.09,2.09,0,0,1,1.66.3,2.54,2.54,0,0,1-2,2.72,2.63,2.63,0,0,1-1,0A2.31,2.31,0,0,1,13,9.26,2.11,2.11,0,0,1,14.55,6.71Z"/><path class="cls-10" d="M15.33,6.94a1.78,1.78,0,0,1,1.4,1.35,1.8,1.8,0,0,1-2.56,2,1.63,1.63,0,0,0,.76,0,1.79,1.79,0,0,0,1.34-2.17A1.76,1.76,0,0,0,15.33,6.94Z"/><path class="cls-2" d="M14.12,7.22A.89.89,0,1,1,14.53,9a.91.91,0,0,1-1.12-.65A.9.9,0,0,1,14.12,7.22Z"/><path class="cls-11" d="M14,7.43a.5.5,0,0,1,.6.35.51.51,0,0,1-1,.23A.5.5,0,0,1,14,7.43Z"/><path class="cls-8" d="M61.72,5.68a2.12,2.12,0,1,1-1.57,2.55A2.12,2.12,0,0,1,61.72,5.68Z"/><path class="cls-9" d="M61.72,5.68a2.15,2.15,0,0,1,1.67.3,2.54,2.54,0,0,1-2,2.72,2.58,2.58,0,0,1-1,.05,2.14,2.14,0,0,1-.19-.52A2.11,2.11,0,0,1,61.72,5.68Z"/><path class="cls-10" d="M62.51,5.91a1.78,1.78,0,0,1,1.4,1.36,1.79,1.79,0,0,1-2.56,2,1.77,1.77,0,0,0,.76,0,1.81,1.81,0,0,0,.4-3.37Z"/><path class="cls-2" d="M61.3,6.19a.89.89,0,1,1,.41,1.73.89.89,0,1,1-.41-1.73Z"/><path class="cls-11" d="M61.21,6.4a.51.51,0,0,1,.61.35.51.51,0,0,1-1,.23A.5.5,0,0,1,61.21,6.4Z"/><path class="cls-8" d="M8.16,10.59a2.12,2.12,0,1,1-1.58,2.55A2.11,2.11,0,0,1,8.16,10.59Z"/><path class="cls-9" d="M8.16,10.59a2.11,2.11,0,0,1,1.67.3,2.55,2.55,0,0,1-2,2.72,2.58,2.58,0,0,1-1,.05,2.33,2.33,0,0,1-.2-.52A2.12,2.12,0,0,1,8.16,10.59Z"/><path class="cls-10" d="M8.94,10.82A1.8,1.8,0,0,1,9,14.34a1.85,1.85,0,0,1-1.23-.14,1.82,1.82,0,0,0,.77,0,1.8,1.8,0,0,0,.39-3.36Z"/><path class="cls-2" d="M7.74,11.09A.9.9,0,1,1,7,12.18.93.93,0,0,1,7.74,11.09Z"/><path class="cls-11" d="M7.65,11.31a.48.48,0,1,1-.38.58A.49.49,0,0,1,7.65,11.31Z"/><path class="cls-8" d="M67.23,9.38a2.13,2.13,0,1,1-1.57,2.56A2.13,2.13,0,0,1,67.23,9.38Z"/><path class="cls-9" d="M67.23,9.38a2.11,2.11,0,0,1,1.67.31,2.54,2.54,0,0,1-2,2.72,2.58,2.58,0,0,1-1,.05,2.31,2.31,0,0,1-.19-.52A2.12,2.12,0,0,1,67.23,9.38Z"/><path class="cls-10" d="M68,9.62A1.78,1.78,0,0,1,69.42,11a1.8,1.8,0,0,1-2.56,2,2,2,0,0,0,.76,0A1.8,1.8,0,0,0,69,10.81,1.76,1.76,0,0,0,68,9.62Z"/><path class="cls-2" d="M66.81,9.89a.94.94,0,0,1,1.13.65,1,1,0,1,1-1.13-.65Z"/><path class="cls-11" d="M66.72,10.11a.5.5,0,0,1,.61.35.49.49,0,0,1-.39.58.49.49,0,0,1-.6-.35A.5.5,0,0,1,66.72,10.11Z"/><path class="cls-8" d="M5.11,18a2.12,2.12,0,1,1-1.51,2.6A2.12,2.12,0,0,1,5.11,18Z"/><path class="cls-9" d="M5.11,18a2.15,2.15,0,0,1,1.67.26A2.55,2.55,0,0,1,4.85,21a2.8,2.8,0,0,1-1,.08,2.2,2.2,0,0,1-.22-.52A2.13,2.13,0,0,1,5.11,18Z"/><path class="cls-10" d="M5.89,18.16a1.8,1.8,0,0,1,.17,3.52,1.76,1.76,0,0,1-1.22-.1,1.79,1.79,0,0,0,.76,0,1.8,1.8,0,0,0,.29-3.38Z"/><path class="cls-2" d="M4.7,18.48a.89.89,0,1,1,.46,1.72.89.89,0,1,1-.46-1.72Z"/><path class="cls-11" d="M4.62,18.7a.48.48,0,0,1,.61.33.51.51,0,1,1-.61-.33Z"/><path class="cls-8" d="M5.9,26.16a2.12,2.12,0,1,1-1.5,2.6A2.12,2.12,0,0,1,5.9,26.16Z"/><path class="cls-9" d="M5.9,26.16a2.12,2.12,0,0,1,1.68.26A2.56,2.56,0,0,1,5.65,29.2a3,3,0,0,1-1,.08,2.2,2.2,0,0,1-.22-.52A2.13,2.13,0,0,1,5.9,26.16Z"/><path class="cls-10" d="M6.69,26.37a1.8,1.8,0,0,1,.17,3.52,1.76,1.76,0,0,1-1.22-.1,1.79,1.79,0,0,0,.76,0,1.8,1.8,0,0,0,.29-3.38Z"/><path class="cls-2" d="M5.5,26.69A.89.89,0,1,1,6,28.41a.93.93,0,0,1-1.15-.62A.92.92,0,0,1,5.5,26.69Z"/><path class="cls-11" d="M5.42,26.9a.5.5,0,0,1,.61.33.5.5,0,0,1-.37.6.5.5,0,0,1-.61-.33A.5.5,0,0,1,5.42,26.9Z"/><path class="cls-8" d="M7.6,34.33a2.12,2.12,0,1,1-1.5,2.6A2.12,2.12,0,0,1,7.6,34.33Z"/><path class="cls-9" d="M7.6,34.33a2.17,2.17,0,0,1,1.68.26,2.56,2.56,0,0,1-1.94,2.78,3,3,0,0,1-1,.08,2.18,2.18,0,0,1-.21-.52A2.13,2.13,0,0,1,7.6,34.33Z"/><path class="cls-10" d="M8.39,34.54a1.8,1.8,0,0,1,.17,3.52A1.73,1.73,0,0,1,7.33,38a1.68,1.68,0,0,0,.77,0,1.8,1.8,0,0,0,1.27-2.21A1.78,1.78,0,0,0,8.39,34.54Z"/><path class="cls-2" d="M7.19,34.86A.89.89,0,1,1,6.51,36,.91.91,0,0,1,7.19,34.86Z"/><path class="cls-11" d="M7.11,35.07a.48.48,0,1,1,.25.93.48.48,0,1,1-.25-.93Z"/><path class="cls-8" d="M10.11,42.36A2.12,2.12,0,1,1,8.61,45,2.12,2.12,0,0,1,10.11,42.36Z"/><path class="cls-9" d="M10.11,42.36a2.14,2.14,0,0,1,1.68.25,2.56,2.56,0,0,1-1.94,2.78,2.8,2.8,0,0,1-1,.08A2.18,2.18,0,0,1,8.61,45,2.11,2.11,0,0,1,10.11,42.36Z"/><path class="cls-10" d="M10.9,42.56A1.81,1.81,0,1,1,9.84,46a1.79,1.79,0,0,0,.76,0,1.81,1.81,0,0,0,.3-3.38Z"/><path class="cls-2" d="M9.7,42.88a.89.89,0,1,1,.46,1.72.89.89,0,1,1-.46-1.72Z"/><path class="cls-11" d="M9.62,43.1a.48.48,0,0,1,.61.33.49.49,0,0,1-.36.59.49.49,0,0,1-.61-.33A.48.48,0,0,1,9.62,43.1Z"/><path class="cls-8" d="M14.11,50.76a2.12,2.12,0,1,1-1.5,2.6A2.11,2.11,0,0,1,14.11,50.76Z"/><path class="cls-9" d="M14.11,50.76a2.12,2.12,0,0,1,1.68.25,2.66,2.66,0,0,1-3,2.86,1.92,1.92,0,0,1-.22-.51A2.12,2.12,0,0,1,14.11,50.76Z"/><path class="cls-10" d="M14.9,51a1.81,1.81,0,1,1-1.05,3.42A1.81,1.81,0,0,0,14.9,51Z"/><path class="cls-2" d="M13.71,51.28a.89.89,0,1,1-.69,1.1A.91.91,0,0,1,13.71,51.28Z"/><path class="cls-11" d="M13.63,51.5a.48.48,0,1,1-.37.59A.49.49,0,0,1,13.63,51.5Z"/><path class="cls-8" d="M19.66,59.35a2.12,2.12,0,1,1-1.5,2.6A2.11,2.11,0,0,1,19.66,59.35Z"/><path class="cls-9" d="M19.66,59.35a2.14,2.14,0,0,1,1.68.26,2.56,2.56,0,0,1-1.94,2.78,2.8,2.8,0,0,1-1,.08,2.18,2.18,0,0,1-.21-.52A2.12,2.12,0,0,1,19.66,59.35Z"/><path class="cls-10" d="M20.45,59.56A1.81,1.81,0,1,1,19.39,63a1.79,1.79,0,0,0,.76,0,1.81,1.81,0,0,0,1.28-2.21A1.83,1.83,0,0,0,20.45,59.56Z"/><path class="cls-2" d="M19.25,59.88a.89.89,0,1,1-.68,1.1A.91.91,0,0,1,19.25,59.88Z"/><path class="cls-11" d="M19.17,60.1a.48.48,0,0,1,.61.33.49.49,0,0,1-.36.59.51.51,0,0,1-.62-.33A.5.5,0,0,1,19.17,60.1Z"/><path class="cls-8" d="M27,67.42A2.12,2.12,0,1,1,25.51,70,2.12,2.12,0,0,1,27,67.42Z"/><path class="cls-9" d="M27,67.42a2.07,2.07,0,0,1,1.67.26,2.56,2.56,0,0,1-1.93,2.78,2.79,2.79,0,0,1-1,.07A2.09,2.09,0,0,1,27,67.42Z"/><path class="cls-10" d="M27.8,67.63A1.8,1.8,0,1,1,26.75,71a2,2,0,0,0,.76,0,1.8,1.8,0,0,0,.29-3.38Z"/><path class="cls-2" d="M26.61,67.94a.9.9,0,1,1-.69,1.11A.93.93,0,0,1,26.61,67.94Z"/><path class="cls-11" d="M26.53,68.16a.5.5,0,0,1,.61.33.49.49,0,0,1-.37.59.48.48,0,0,1-.61-.33A.5.5,0,0,1,26.53,68.16Z"/><path class="cls-8" d="M34.08,72.94a2.12,2.12,0,1,1-1.5,2.6A2.12,2.12,0,0,1,34.08,72.94Z"/><path class="cls-9" d="M34.08,72.94a2.12,2.12,0,0,1,1.68.25A2.56,2.56,0,0,1,33.82,76a2.72,2.72,0,0,1-1,.07,2.31,2.31,0,0,1-.22-.51A2.13,2.13,0,0,1,34.08,72.94Z"/><path class="cls-10" d="M34.87,73.15A1.8,1.8,0,0,1,35,76.67a1.82,1.82,0,0,1-1.22-.11,2,2,0,0,0,.76,0,1.81,1.81,0,0,0,1.27-2.22A1.76,1.76,0,0,0,34.87,73.15Z"/><path class="cls-2" d="M33.68,73.46A.89.89,0,1,1,33,74.57.93.93,0,0,1,33.68,73.46Z"/><path class="cls-11" d="M33.6,73.68a.5.5,0,0,1,.61.33.49.49,0,0,1-.37.59.48.48,0,0,1-.61-.33A.49.49,0,0,1,33.6,73.68Z"/><path class="cls-8" d="M70.52,16.15a2.12,2.12,0,1,1-1.58,2.55A2.12,2.12,0,0,1,70.52,16.15Z"/><path class="cls-9" d="M70.52,16.15a2.15,2.15,0,0,1,1.67.3,2.56,2.56,0,0,1-2,2.73,2.77,2.77,0,0,1-1,0,2.16,2.16,0,0,1-.2-.52A2.12,2.12,0,0,1,70.52,16.15Z"/><path class="cls-10" d="M71.3,16.38a1.8,1.8,0,1,1-1.16,3.38,1.8,1.8,0,0,0,1.16-3.38Z"/><path class="cls-2" d="M70.1,16.66a.91.91,0,0,1,1.12.65.95.95,0,1,1-1.12-.65Z"/><path class="cls-11" d="M70,16.88a.48.48,0,0,1,.6.35.5.5,0,0,1-1,.23A.49.49,0,0,1,70,16.88Z"/><path class="cls-8" d="M70,26.15a2.12,2.12,0,1,1-1.58,2.55A2.12,2.12,0,0,1,70,26.15Z"/><path class="cls-9" d="M70,26.15a2.11,2.11,0,0,1,1.67.3,2.56,2.56,0,0,1-2,2.73,2.77,2.77,0,0,1-1,0,2.33,2.33,0,0,1-.2-.52A2.12,2.12,0,0,1,70,26.15Z"/><path class="cls-10" d="M70.73,26.38a1.8,1.8,0,0,1,.07,3.52,1.85,1.85,0,0,1-1.23-.14,1.8,1.8,0,0,0,1.16-3.38Z"/><path class="cls-2" d="M69.53,26.66a.89.89,0,1,1,.41,1.73.89.89,0,1,1-.41-1.73Z"/><path class="cls-11" d="M69.44,26.87a.5.5,0,0,1,.6.35.5.5,0,0,1-1,.23A.5.5,0,0,1,69.44,26.87Z"/><path class="cls-8" d="M68.68,34.32a2.12,2.12,0,1,1-1.58,2.55A2.12,2.12,0,0,1,68.68,34.32Z"/><path class="cls-9" d="M68.68,34.32a2.11,2.11,0,0,1,1.67.3,2.56,2.56,0,0,1-2,2.73,2.77,2.77,0,0,1-1,0,3,3,0,0,1-.2-.52A2.13,2.13,0,0,1,68.68,34.32Z"/><path class="cls-10" d="M69.47,34.55a1.8,1.8,0,0,1,.06,3.52,1.75,1.75,0,0,1-1.22-.14,1.77,1.77,0,0,0,.76,0,1.8,1.8,0,0,0,1.34-2.17A1.78,1.78,0,0,0,69.47,34.55Z"/><path class="cls-2" d="M68.26,34.83a.89.89,0,1,1,.41,1.73.89.89,0,1,1-.41-1.73Z"/><path class="cls-11" d="M68.17,35a.51.51,0,0,1,.61.35.51.51,0,0,1-1,.23A.5.5,0,0,1,68.17,35Z"/><path class="cls-8" d="M66.4,42.34a2.12,2.12,0,1,1-1.58,2.55A2.12,2.12,0,0,1,66.4,42.34Z"/><path class="cls-9" d="M66.4,42.34a2.15,2.15,0,0,1,1.67.3,2.57,2.57,0,0,1-2,2.73,2.77,2.77,0,0,1-1,0,1.81,1.81,0,0,1-.2-.52A2.12,2.12,0,0,1,66.4,42.34Z"/><path class="cls-10" d="M67.18,42.57a1.81,1.81,0,0,1,.06,3.53A1.83,1.83,0,0,1,66,46a1.77,1.77,0,0,0,.76,0,1.8,1.8,0,0,0,.4-3.37Z"/><path class="cls-2" d="M66,42.85a.89.89,0,1,1-.71,1.08A.92.92,0,0,1,66,42.85Z"/><path class="cls-11" d="M65.89,43.06a.5.5,0,0,1,.6.35.51.51,0,0,1-1,.24A.5.5,0,0,1,65.89,43.06Z"/><path class="cls-8" d="M62.12,50.74a2.12,2.12,0,1,1-1.58,2.55A2.12,2.12,0,0,1,62.12,50.74Z"/><path class="cls-9" d="M62.12,50.74a2.15,2.15,0,0,1,1.67.3,2.56,2.56,0,0,1-2,2.73,2.77,2.77,0,0,1-1,0,2.16,2.16,0,0,1-.2-.52A2.13,2.13,0,0,1,62.12,50.74Z"/><path class="cls-10" d="M62.9,51A1.81,1.81,0,0,1,63,54.5a1.75,1.75,0,0,1-1.22-.15,1.77,1.77,0,0,0,.76,0A1.8,1.8,0,0,0,62.9,51Z"/><path class="cls-2" d="M61.7,51.25A.9.9,0,1,1,62.11,53a.9.9,0,1,1-.41-1.74Z"/><path class="cls-11" d="M61.61,51.47a.5.5,0,0,1,.61.35.51.51,0,0,1-.39.58.5.5,0,0,1-.6-.35A.49.49,0,0,1,61.61,51.47Z"/><path class="cls-8" d="M55.53,59.62A2.12,2.12,0,1,1,54,62.17,2.12,2.12,0,0,1,55.53,59.62Z"/><path class="cls-9" d="M55.53,59.62a2.15,2.15,0,0,1,1.67.3,2.57,2.57,0,0,1-2,2.73,2.77,2.77,0,0,1-1,0,1.81,1.81,0,0,1-.2-.52A2.12,2.12,0,0,1,55.53,59.62Z"/><path class="cls-10" d="M56.31,59.85a1.82,1.82,0,0,1,1.41,1.36,1.79,1.79,0,0,1-1.34,2.16,1.73,1.73,0,0,1-1.23-.14,1.77,1.77,0,0,0,.76,0,1.8,1.8,0,0,0,.4-3.37Z"/><path class="cls-2" d="M55.11,60.13a.92.92,0,0,1,1.12.65.95.95,0,0,1-1.84.43A.92.92,0,0,1,55.11,60.13Z"/><path class="cls-11" d="M55,60.35a.48.48,0,0,1,.6.35.5.5,0,0,1-1,.23A.49.49,0,0,1,55,60.35Z"/><path class="cls-8" d="M49,67.41A2.12,2.12,0,1,1,47.41,70,2.12,2.12,0,0,1,49,67.41Z"/><path class="cls-9" d="M49,67.41a2.09,2.09,0,0,1,1.66.3,2.54,2.54,0,0,1-2,2.72,2.57,2.57,0,0,1-1,0,2.31,2.31,0,0,1-.19-.52A2.11,2.11,0,0,1,49,67.41Z"/><path class="cls-10" d="M49.77,67.64A1.78,1.78,0,0,1,51.17,69a1.8,1.8,0,0,1-2.56,2,1.81,1.81,0,0,0,2.1-2.18A1.75,1.75,0,0,0,49.77,67.64Z"/><path class="cls-2" d="M48.56,67.91A.9.9,0,1,1,49,69.65a.9.9,0,1,1-.41-1.74Z"/><path class="cls-11" d="M48.47,68.13a.5.5,0,0,1,.61.35.49.49,0,0,1-.39.58.49.49,0,0,1-.6-.35A.5.5,0,0,1,48.47,68.13Z"/><path class="cls-8" d="M41.67,72.92a2.12,2.12,0,1,1-1.58,2.55A2.13,2.13,0,0,1,41.67,72.92Z"/><path class="cls-9" d="M41.67,72.92a2.12,2.12,0,0,1,1.67.31,2.56,2.56,0,0,1-2,2.72,3,3,0,0,1-1,0,2.39,2.39,0,0,1-.19-.53A2.12,2.12,0,0,1,41.67,72.92Z"/><path class="cls-10" d="M42.45,73.15a1.81,1.81,0,1,1-1.16,3.39,2,2,0,0,0,.76,0,1.81,1.81,0,0,0,.4-3.37Z"/><path class="cls-2" d="M41.24,73.43a.9.9,0,1,1,.41,1.74.9.9,0,1,1-.41-1.74Z"/><path class="cls-11" d="M41.16,73.65a.49.49,0,0,1,.6.35.49.49,0,0,1-.39.58.49.49,0,0,1-.6-.35A.49.49,0,0,1,41.16,73.65Z"/><path class="cls-8" d="M29.63,9.25a2.12,2.12,0,1,1-1.57,2.55A2.13,2.13,0,0,1,29.63,9.25Z"/><path class="cls-9" d="M29.63,9.25a2.11,2.11,0,0,1,1.67.31,2.54,2.54,0,0,1-2,2.72,2.75,2.75,0,0,1-1,0,2.14,2.14,0,0,1-.19-.52A2.11,2.11,0,0,1,29.63,9.25Z"/><path class="cls-10" d="M30.42,9.48a1.81,1.81,0,1,1-1.16,3.39,2,2,0,0,0,.76,0,1.8,1.8,0,0,0,1.34-2.17A1.77,1.77,0,0,0,30.42,9.48Z"/><path class="cls-2" d="M29.21,9.76a.9.9,0,1,1-.71,1.09A.91.91,0,0,1,29.21,9.76Z"/><path class="cls-11" d="M29.13,10a.48.48,0,1,1-.39.58A.49.49,0,0,1,29.13,10Z"/><path class="cls-8" d="M44.33,9.24a2.12,2.12,0,1,1-1.58,2.55A2.12,2.12,0,0,1,44.33,9.24Z"/><path class="cls-9" d="M44.33,9.24A2.09,2.09,0,0,1,46,9.55a2.55,2.55,0,0,1-2,2.72,2.81,2.81,0,0,1-1,0,2.14,2.14,0,0,1-.19-.52A2.11,2.11,0,0,1,44.33,9.24Z"/><path class="cls-10" d="M45.11,9.47A1.81,1.81,0,0,1,45.17,13,1.75,1.75,0,0,1,44,12.85a1.77,1.77,0,0,0,.76,0,1.8,1.8,0,0,0,1.34-2.17A1.77,1.77,0,0,0,45.11,9.47Z"/><path class="cls-2" d="M43.9,9.75a.9.9,0,1,1-.71,1.09A.91.91,0,0,1,43.9,9.75Z"/><path class="cls-11" d="M43.82,10a.48.48,0,0,1,.6.35.51.51,0,0,1-1,.23A.49.49,0,0,1,43.82,10Z"/><path class="cls-8" d="M37.78,10.5a2.12,2.12,0,1,1-1.57,2.55A2.11,2.11,0,0,1,37.78,10.5Z"/><path class="cls-9" d="M37.78,10.5a2.11,2.11,0,0,1,1.67.3,2.54,2.54,0,0,1-2,2.72,2.58,2.58,0,0,1-1,.05,2.31,2.31,0,0,1-.19-.52A2.11,2.11,0,0,1,37.78,10.5Z"/><path class="cls-10" d="M38.57,10.73A1.78,1.78,0,0,1,40,12.08a1.8,1.8,0,0,1-2.56,2,1.81,1.81,0,0,0,2.1-2.19A1.76,1.76,0,0,0,38.57,10.73Z"/><path class="cls-2" d="M37.36,11a.93.93,0,0,1,1.13.66A.95.95,0,1,1,37.36,11Z"/><path class="cls-11" d="M37.27,11.22a.48.48,0,1,1,.22.93.49.49,0,0,1-.6-.35A.5.5,0,0,1,37.27,11.22Z"/><path class="cls-8" d="M22.31,6.55a2.13,2.13,0,1,1-1.58,2.56A2.13,2.13,0,0,1,22.31,6.55Z"/><path class="cls-9" d="M22.31,6.55A2.11,2.11,0,0,1,24,6.86a2.55,2.55,0,0,1-2,2.72,2.77,2.77,0,0,1-1,.05,2.54,2.54,0,0,1-.2-.52A2.13,2.13,0,0,1,22.31,6.55Z"/><path class="cls-10" d="M23.09,6.79a1.8,1.8,0,0,1,.07,3.52,1.85,1.85,0,0,1-1.23-.14,2,2,0,0,0,.77,0,1.8,1.8,0,0,0,.39-3.36Z"/><path class="cls-2" d="M21.89,7.06a.9.9,0,1,1-.72,1.09A.93.93,0,0,1,21.89,7.06Z"/><path class="cls-11" d="M21.8,7.28a.48.48,0,1,1-.38.58A.5.5,0,0,1,21.8,7.28Z"/><path class="cls-8" d="M52.81,5.77a2.12,2.12,0,1,1-1.58,2.55A2.12,2.12,0,0,1,52.81,5.77Z"/><path class="cls-9" d="M52.81,5.77a2.11,2.11,0,0,1,1.67.3,2.55,2.55,0,0,1-2,2.72,2.58,2.58,0,0,1-1,.05,2.33,2.33,0,0,1-.2-.52A2.12,2.12,0,0,1,52.81,5.77Z"/><path class="cls-10" d="M53.59,6a1.8,1.8,0,0,1,.07,3.52,1.85,1.85,0,0,1-1.23-.14A1.8,1.8,0,0,0,54.54,7.2,1.79,1.79,0,0,0,53.59,6Z"/><path class="cls-2" d="M52.39,6.28A.89.89,0,1,1,52.8,8a.89.89,0,1,1-.41-1.73Z"/><path class="cls-11" d="M52.3,6.49a.5.5,0,0,1,.6.35.5.5,0,0,1-1,.23A.5.5,0,0,1,52.3,6.49Z"/><path class="cls-3" d="M37.22,63.83C23,56,15,36.35,15.58,22.57c1.88.47,5.54-2.17,7-4.5,0,0-1.26,12.37,2.26,23.36C25.64,43.78,31.43,55.42,37.22,63.83Z"/><path class="cls-12" d="M18.09,22a12.93,12.93,0,0,0,4-3.21l.52-.35c-.18,2.23-.85,13.14,2.29,23,.67,2.07,5.25,11.36,10.3,19.29C24.1,51.24,18,34.71,18.09,22Z"/><path class="cls-5" d="M38.68,64.35C52.93,56.51,60.9,36.87,60.33,23.09c-1.89.47-5.54-2.17-7-4.5,0,0,1.27,12.37-2.26,23.36C50.27,44.3,44.47,55.94,38.68,64.35Z"/><path class="cls-10" d="M53.42,27.79c-.5-.07-15.28,3.42-15.28,3.42L22.64,28l15.47-3.39Z"/><polygon class="cls-1" points="38.03 27.91 38.14 31.21 53.42 27.79 38.03 27.91"/><polygon class="cls-12" points="38.12 27.81 38.11 24.61 22.63 27.99 38.12 27.81"/><path class="cls-10" d="M50.3,37.84c-.4-.06-12.14,3.43-12.14,3.43L25.84,38.06l12.29-3.4Z"/><polygon class="cls-1" points="38.07 37.97 38.16 41.27 50.3 37.84 38.07 37.97"/><polygon class="cls-12" points="38.14 37.87 38.13 34.66 25.84 38.05 38.14 37.87"/><path class="cls-10" d="M47.55,46.74c-.31-.05-9.32,2.71-9.32,2.71l-9.46-2.54,9.44-2.68Z"/><polygon class="cls-1" points="38.16 46.84 38.23 49.45 47.55 46.74 38.16 46.84"/><polygon class="cls-12" points="38.22 46.76 38.21 44.23 28.77 46.9 38.22 46.76"/><path class="cls-10" d="M38.06,61.38c-.05-.17,2.71-5.17,2.71-5.17L38.23,51,35.54,56.2Z"/><polygon class="cls-1" points="38.16 56.17 40.77 56.21 38.06 61.38 38.16 56.17"/><polygon class="cls-12" points="38.08 56.2 35.54 56.2 38.22 50.96 38.08 56.2"/></g></g></svg>