<svg xmlns="http://www.w3.org/2000/svg" xmlns:xlink="http://www.w3.org/1999/xlink" viewBox="0 0 8.94 9.34"><defs><style>.cls-1{mask:url(#mask);filter:url(#luminosity-noclip-4);}.cls-2,.cls-4,.cls-6{mix-blend-mode:multiply;}.cls-2{fill:url(#radial-gradient);}.cls-3{mask:url(#mask-2);filter:url(#luminosity-noclip-5);}.cls-4{fill:url(#linear-gradient);}.cls-5{mask:url(#mask-3);filter:url(#luminosity-noclip-6);}.cls-6{fill:url(#linear-gradient-2);}.cls-7{isolation:isolate;}.cls-8{fill:url(#radial-gradient-2);}.cls-9{mask:url(#mask-4);}.cls-10{opacity:0.8;fill:url(#radial-gradient-3);}.cls-11{fill:url(#radial-gradient-4);}.cls-12{mask:url(#mask-5);}.cls-13{opacity:0.7;fill:url(#linear-gradient-3);}.cls-14{mix-blend-mode:screen;fill:url(#radial-gradient-5);}.cls-15{fill:#fff;opacity:0.5;}.cls-16{mask:url(#mask-6);}.cls-17{fill:url(#linear-gradient-4);}.cls-18{filter:url(#luminosity-noclip-3);}.cls-19{filter:url(#luminosity-noclip-2);}.cls-20{filter:url(#luminosity-noclip);}</style><filter id="luminosity-noclip" x="0.4" y="-8100.73" width="7.82" height="32766" filterUnits="userSpaceOnUse" color-interpolation-filters="sRGB"><feFlood flood-color="#fff" result="bg"/><feBlend in="SourceGraphic" in2="bg"/></filter><mask id="mask" x="0.4" y="-8100.73" width="7.82" height="32766" maskUnits="userSpaceOnUse"><g class="cls-20"/></mask><radialGradient id="radial-gradient" cx="-60.59" cy="-353" r="3.82" gradientTransform="translate(360.94 56.38) rotate(-71.94)" gradientUnits="userSpaceOnUse"><stop offset="0" stop-color="#fff"/><stop offset="0.1" stop-color="#fafafa"/><stop offset="0.22" stop-color="#eaeaea"/><stop offset="0.36" stop-color="#d1d1d1"/><stop offset="0.51" stop-color="#aeaeae"/><stop offset="0.66" stop-color="#818181"/><stop offset="0.82" stop-color="#4a4a4a"/><stop offset="0.98" stop-color="#090909"/><stop offset="1"/></radialGradient><filter id="luminosity-noclip-2" x="0.37" y="-8100.73" width="8.58" height="32766" filterUnits="userSpaceOnUse" color-interpolation-filters="sRGB"><feFlood flood-color="#fff" result="bg"/><feBlend in="SourceGraphic" in2="bg"/></filter><mask id="mask-2" x="0.37" y="-8100.73" width="8.58" height="32766" maskUnits="userSpaceOnUse"><g class="cls-19"/></mask><linearGradient id="linear-gradient" x1="-59.39" y1="-357.13" x2="-63.01" y2="-349.86" gradientTransform="translate(360.94 56.38) rotate(-71.94)" gradientUnits="userSpaceOnUse"><stop offset="0"/><stop offset="0.48" stop-color="#fff"/><stop offset="0.54" stop-color="#e1e1e1"/><stop offset="0.71" stop-color="#828282"/><stop offset="0.85" stop-color="#3c3c3c"/><stop offset="0.95" stop-color="#111"/><stop offset="1"/></linearGradient><filter id="luminosity-noclip-3" x="5.32" y="-8100.73" width="3.17" height="32766" filterUnits="userSpaceOnUse" color-interpolation-filters="sRGB"><feFlood flood-color="#fff" result="bg"/><feBlend in="SourceGraphic" in2="bg"/></filter><mask id="mask-3" x="5.32" y="-8100.73" width="3.17" height="32766" maskUnits="userSpaceOnUse"><g class="cls-18"/></mask><linearGradient id="linear-gradient-2" x1="-60.45" y1="-353.55" x2="-62.86" y2="-350.2" gradientTransform="translate(360.94 56.38) rotate(-71.94)" gradientUnits="userSpaceOnUse"><stop offset="0"/><stop offset="0.57" stop-color="#fff"/><stop offset="0.61" stop-color="#e1e1e1"/><stop offset="0.76" stop-color="#828282"/><stop offset="0.87" stop-color="#3c3c3c"/><stop offset="0.96" stop-color="#111"/><stop offset="1"/></linearGradient><radialGradient id="radial-gradient-2" cx="-65.39" cy="-354.83" r="5.44" gradientTransform="translate(360.94 56.38) rotate(-71.94)" gradientUnits="userSpaceOnUse"><stop offset="0" stop-color="#3ff"/><stop offset="0.19" stop-color="#2ad3ed"/><stop offset="0.63" stop-color="#1464c1"/><stop offset="1" stop-color="#009"/></radialGradient><filter id="luminosity-noclip-4" x="0.4" y="0.64" width="7.82" height="7.76" filterUnits="userSpaceOnUse" color-interpolation-filters="sRGB"><feFlood flood-color="#fff" result="bg"/><feBlend in="SourceGraphic" in2="bg"/></filter><mask id="mask-4" x="0.4" y="0.64" width="7.82" height="7.76" maskUnits="userSpaceOnUse"><g class="cls-1"><path class="cls-2" d="M5.63,8.33a2.18,2.18,0,0,0,2.5-1.28,1.79,1.79,0,0,0-.36-1.73A15.65,15.65,0,0,0,3.13,2.07C2.54,1.74,1.23,1,.4.64,4.22,4.37,8.76,6.25,5.63,8.33Z"/></g></mask><radialGradient id="radial-gradient-3" cx="-60.59" cy="-353" r="3.82" gradientTransform="translate(360.94 56.38) rotate(-71.94)" gradientUnits="userSpaceOnUse"><stop offset="0" stop-color="#003"/><stop offset="1" stop-color="#003"/></radialGradient><radialGradient id="radial-gradient-4" cx="-268.58" cy="166.95" r="7.18" gradientTransform="translate(223.05 -223.62) rotate(-13.8)" gradientUnits="userSpaceOnUse"><stop offset="0" stop-color="#03f"/><stop offset="0.13" stop-color="#03e"/><stop offset="0.39" stop-color="#0033c3"/><stop offset="0.74" stop-color="#00337e"/><stop offset="0.86" stop-color="#036"/></radialGradient><filter id="luminosity-noclip-5" x="0.37" y="0.2" width="8.58" height="8.43" filterUnits="userSpaceOnUse" color-interpolation-filters="sRGB"><feFlood flood-color="#fff" result="bg"/><feBlend in="SourceGraphic" in2="bg"/></filter><mask id="mask-5" x="0.37" y="0.2" width="8.58" height="8.43" maskUnits="userSpaceOnUse"><g class="cls-3"><path class="cls-4" d="M.39.22c.38.38,4,2.89,4.5,3.21A10.68,10.68,0,0,1,8.05,6.06a1.42,1.42,0,0,1,.11,1.46c-.14.31-.53,1-.46,1.11a6.15,6.15,0,0,0,1-1.17c.79-1.16-1-2.65-1.9-3.3A46.81,46.81,0,0,0,1.11.62L.37.2Z"/></g></mask><linearGradient id="linear-gradient-3" x1="-59.39" y1="-357.13" x2="-63.01" y2="-349.86" gradientTransform="translate(360.94 56.38) rotate(-71.94)" gradientUnits="userSpaceOnUse"><stop offset="0" stop-color="#cf0"/><stop offset="0.48" stop-color="#cf0"/><stop offset="1" stop-color="#cf0"/></linearGradient><radialGradient id="radial-gradient-5" cx="-70.26" cy="-350.01" r="4.22" gradientTransform="matrix(0.32, -0.95, 0.95, 0.32, 355.97, 53.95)" gradientUnits="userSpaceOnUse"><stop offset="0" stop-color="aqua"/><stop offset="0.09" stop-color="#00f3f3"/><stop offset="0.25" stop-color="#00d4d4"/><stop offset="0.46" stop-color="#00a0a0"/><stop offset="0.71" stop-color="#005959"/><stop offset="1"/></radialGradient><filter id="luminosity-noclip-6" x="5.32" y="3.73" width="3.17" height="4.28" filterUnits="userSpaceOnUse" color-interpolation-filters="sRGB"><feFlood flood-color="#fff" result="bg"/><feBlend in="SourceGraphic" in2="bg"/></filter><mask id="mask-6" x="5.32" y="3.73" width="3.17" height="4.28" maskUnits="userSpaceOnUse"><g class="cls-5"><path class="cls-6" d="M5.33,3.74c1.48,1,3.3,2.19,2.61,4.22A0,0,0,0,0,8,8C9.63,6.15,6.77,4.44,5.34,3.73,5.32,3.72,5.32,3.74,5.33,3.74Z"/></g></mask><linearGradient id="linear-gradient-4" x1="-60.45" y1="-353.55" x2="-62.86" y2="-350.2" gradientTransform="translate(360.94 56.38) rotate(-71.94)" gradientUnits="userSpaceOnUse"><stop offset="0" stop-color="aqua"/><stop offset="0.57" stop-color="#3ff"/><stop offset="0.83" stop-color="#1ff"/><stop offset="1" stop-color="aqua"/></linearGradient></defs><g class="cls-7"><g id="Layer_2" data-name="Layer 2"><g id="Layer_4" data-name="Layer 4"><path class="cls-8" d="M6.66,9.05a2.77,2.77,0,0,0,2-2.25,2.31,2.31,0,0,0-.82-1.43,18.1,18.1,0,0,0-4.7-3.3C2.27,1.59,1.42,1.09.55.61c.16.09.33.73.4.9.16.39.32.77.49,1.15.37.82.75,1.63,1.16,2.43A9.29,9.29,0,0,0,5.35,8.81,1.56,1.56,0,0,0,6.66,9.05Z"/><g class="cls-9"><path class="cls-10" d="M5.63,8.33a2.18,2.18,0,0,0,2.5-1.28,1.79,1.79,0,0,0-.36-1.73A15.65,15.65,0,0,0,3.13,2.07C2.54,1.74,1.23,1,.4.64,4.22,4.37,8.76,6.25,5.63,8.33Z"/></g><path class="cls-11" d="M.31.72c.09.19.18.41.28.64,1.17,2.7,3.13,7.23,5,7.9,1.19.43,2.51-.91,3.12-1.8.79-1.16-1-2.65-1.9-3.3A46.81,46.81,0,0,0,1.11.62L0,0Zm3,1.73c.55.32,1.08.66,1.62,1A10.68,10.68,0,0,1,8.05,6.06a1.42,1.42,0,0,1,.11,1.46,1.86,1.86,0,0,1-.8.82,3.06,3.06,0,0,1-1.56.43c-1.68-.6-3.63-5.09-4.7-7.55C1.83,1.62,2.55,2,3.27,2.45Z"/><g class="cls-12"><path class="cls-13" d="M.39.22c.38.38,4,2.89,4.5,3.21A10.68,10.68,0,0,1,8.05,6.06a1.42,1.42,0,0,1,.11,1.46c-.14.31-.53,1-.46,1.11a6.15,6.15,0,0,0,1-1.17c.79-1.16-1-2.65-1.9-3.3A46.81,46.81,0,0,0,1.11.62L.37.2Z"/></g><path class="cls-14" d="M1.14,1.77C.94,2.38,3,6.41,3.42,7c.29.4.85,1.43,1.41,1.48,1.07.09.76-1.53.48-2.07a17.29,17.29,0,0,0-3-4A2.61,2.61,0,0,0,1.14,1.77Z"/><path class="cls-15" d="M2.4,3.42A21.88,21.88,0,0,0,3.75,6.17a.27.27,0,1,0,.46-.26C3.67,5,2.91,4.32,2.42,3.41,2.41,3.4,2.4,3.41,2.4,3.42Z"/><path class="cls-15" d="M4.28,6.78a.28.28,0,0,0,.15.35A.27.27,0,0,0,4.79,7a.27.27,0,0,0-.15-.35A.28.28,0,0,0,4.28,6.78Z"/><g class="cls-16"><path class="cls-17" d="M5.33,3.74c1.48,1,3.3,2.19,2.61,4.22A0,0,0,0,0,8,8C9.63,6.15,6.77,4.44,5.34,3.73,5.32,3.72,5.32,3.74,5.33,3.74Z"/></g></g></g></g></svg>