<svg xmlns="http://www.w3.org/2000/svg" viewBox="0 0 362.13 362.12"><defs><style>.cls-1{fill:#207da6;}.cls-2{fill:#241a00;}.cls-3{fill:#3d2d00;}.cls-4{fill:#31c1ff;}.cls-5{fill:#ddd39b;}.cls-6{fill:#8a835f;}.cls-7{fill:#7a5a00;}.cls-8{fill:#daa100;}.cls-9{fill:#4d4b42;}.cls-10{fill:#636156;}</style></defs><g id="Layer_2" data-name="Layer 2"><g id="crossbow_and_arrow" data-name="crossbow and arrow"><g id="crossbow_and_arrow-2" data-name="crossbow and arrow"><g id="crossbow"><g id="base"><path class="cls-1" d="M115.25,275.77a52.28,52.28,0,0,1-12.17-16.71l0,0a52.5,52.5,0,0,1-16.73-12.19c2.5-1.47,5-3.06,7.45-4.74.93-.61,1.85-1.23,2.77-1.89a62.62,62.62,0,0,0,10,13.3c.68.71,1.32,1.39,2,2a62.24,62.24,0,0,0,13.28,10c-.66.92-1.27,1.85-1.89,2.78Q117.47,272,115.25,275.77Z"/><path class="cls-2" d="M103.06,259,1.79,360.31C-8,337.91,26.32,329.84,16.3,303.8,32.59,285.2,52.52,258.05,77.56,224c2.89,9.49,11.47,13.5,16.22,18.15-2.48,1.68-5,3.27-7.45,4.74A52.5,52.5,0,0,0,103.06,259Z"/><path class="cls-3" d="M138.17,284.56c-34.12,25-61.25,45-79.84,61.26-26-10-34.12,24.36-56.51,14.51l0,0L103.06,259l0,0a52.28,52.28,0,0,0,12.17,16.71q2.22-3.74,4.74-7.44C124.67,273.09,128.68,281.68,138.17,284.56Z"/><path class="cls-4" d="M227.38,61.09a145.32,145.32,0,0,0-29.6-6.23c-6.91-14.16-19.47-26.17-34.19-30.79,22.67-12,46.9-20.73,74.9-24.07C217,10.82,206.63,29.64,227.38,61.09Zm134.75,62.49C351.31,145,332.5,155.51,301,134.74a145.17,145.17,0,0,1,6.21,29.58c14.16,6.91,26.19,19.49,30.82,34.21C350.05,175.85,358.81,151.6,362.13,123.58Z"/><path class="cls-1" d="M135.5,247.58a67.43,67.43,0,0,0-9.63-11.35,67.88,67.88,0,0,0-11.31-9.62,325.65,325.65,0,0,0,28.9-27,105.53,105.53,0,0,0,8,11,101.53,101.53,0,0,0,11,8.05A325,325,0,0,0,135.5,247.58Z"/><path class="cls-5" d="M110.46,84.39c-1.77,2-4.08,2.7-6.58,1a10.8,10.8,0,0,1-2.63-2.65c-.22-.31-.42-.64-.6-.94a9.28,9.28,0,0,1-1.22-4.73s0,0,0,0a13.09,13.09,0,0,1,2.4-7.06c.16-.24.33-.46.49-.66a10.78,10.78,0,0,1,3.17-2.81,6.61,6.61,0,0,1,2.66-.85,4.85,4.85,0,0,1,4.46,1.79,7,7,0,0,1,1.11,2.08c.07.29.17.59.25.91,1,4.27-.47,10.36-3.19,13.61a1.86,1.86,0,0,1-.26-.23Z"/><path class="cls-6" d="M110.77,84c2.72-3.25,4.15-9.34,3.19-13.61-.08-.32-.18-.62-.25-.91,1.54-1.58,2.9-.94,3.84.78,1.18,2.06,1.81,5.69,1.62,9C118.83,84.49,116.41,88.73,110.77,84Z"/><path class="cls-6" d="M99.42,77a10.87,10.87,0,0,1-.15-7.65,4.77,4.77,0,0,1,6.21-2.88,10.78,10.78,0,0,0-3.17,2.81c-.16.2-.33.42-.49.66A13.09,13.09,0,0,0,99.42,77Z"/><path class="cls-7" d="M328.75,89.86a56.41,56.41,0,0,0-11.66,3.32h0c-9.29,3.66-18.31,9.53-26.93,16.06a78.32,78.32,0,0,0-10.61-14.76c-1.24-1.33-2.45-2.51-3.64-3.59l0,0c-.77-.77-1.58-1.56-2.35-2.3l-.25-.24c-.65-.68-1.34-1.4-2-2.09l0,0c-1.07-1.2-2.25-2.41-3.58-3.65A77.78,77.78,0,0,0,252.86,72c6.53-8.62,12.43-17.67,16.09-27a56.14,56.14,0,0,0,3.29-11.68A107.76,107.76,0,0,1,285.59,40c1.34.79,2.68,1.58,4,2.44a129.8,129.8,0,0,1,17.14,12.93,132,132,0,0,1,13,17.19c.84,1.32,1.63,2.63,2.39,3.94A106.38,106.38,0,0,1,328.75,89.86Zm-75.16,18.65a107.51,107.51,0,0,0-16-13.92c-23.32,32.55-50.26,62.59-74.57,87.08,2.81,3.05,5.64,6,8.54,8.9s5.85,5.72,8.89,8.53c24.49-24.31,54.56-51.23,87.08-74.57A108,108,0,0,0,253.59,108.51Z"/><path class="cls-3" d="M252.86,72c-2.91-1.67-6-3.21-9.12-4.63,3.77-6.48,9.06-14.52,12.55-20.71C260.75,46,265.41,45.41,269,45,265.29,54.32,259.39,63.37,252.86,72Zm64.22,21.2c-9.29,3.66-18.31,9.53-26.93,16.06,1.63,2.9,3.19,6,4.61,9.1,6.48-3.73,14.5-9,20.69-12.53C316.11,101.39,316.69,96.72,317.08,93.19Zm-44,40.33a94.81,94.81,0,0,0-5.6-9c-32.52,23.34-62.59,50.26-87.08,74.57-3-2.81-6-5.65-8.89-8.53s-5.73-5.85-8.54-8.9c24.31-24.49,51.25-54.53,74.57-87.08a94.29,94.29,0,0,0-9-5.58c-26,34-59.38,73.93-90.48,101.09a102.42,102.42,0,0,0,5.34,9.52,105.53,105.53,0,0,0,8,11,101.53,101.53,0,0,0,11,8.05A96.68,96.68,0,0,0,172,224C199.18,192.9,239.06,159.49,273.11,133.52Z"/><path class="cls-6" d="M292.61,248.41l-.91-.24c-4.27-1-10.36.46-13.61,3.18-4.72-5.66-.44-8.07,4.76-8.39,3.3-.19,6.94.42,9,1.6C293.54,245.53,294.17,246.85,292.61,248.41Z"/><path class="cls-8" d="M100.65,81.79c-47.81-1-36.46-53.28,4.43-52.92-6,6.25-9.16,15-8.46,25.22.53-3.5,6.66,6.65,5.9,5.9-2,2-5.28,3.82-6.06,6.06-.54,1.56.6,2.64,2.81,3.32A10.87,10.87,0,0,0,99.42,77s0,0,0,0A9.28,9.28,0,0,0,100.65,81.79ZM293.75,227c3.94-16.58,12.2-32.24,13.71-49.28a76.44,76.44,0,0,0-.22-13.4A145.17,145.17,0,0,0,301,134.74a137.36,137.36,0,0,0-6.27-16.39c-1.42-3.15-3-6.2-4.61-9.1a78.32,78.32,0,0,0-10.61-14.76c-1.24-1.33-2.45-2.51-3.64-3.59l0,0c-.08-.09-.19-.16-.28-.25-.57-.49-1.29-1.23-2.07-2l-.25-.24a24.37,24.37,0,0,1-1.78-1.81c-.09-.09-.16-.19-.25-.28l0,0c-1.07-1.2-2.25-2.41-3.58-3.65A77.78,77.78,0,0,0,252.86,72c-2.91-1.67-6-3.21-9.12-4.63a139.05,139.05,0,0,0-16.36-6.27,145.32,145.32,0,0,0-29.6-6.23,73.19,73.19,0,0,0-13.38-.19c-17.06,1.49-32.72,9.74-49.28,13.7a147.14,147.14,0,0,1-17.57,1.92c1.18,2.06,1.81,5.69,1.62,9,34.42-.49,73.68-9.76,109.43,9.74a94.29,94.29,0,0,1,9,5.58,107.51,107.51,0,0,1,16,13.92,108,108,0,0,1,13.92,16,94.81,94.81,0,0,1,5.6,9c19.47,35.75,10.26,75,9.74,109.44,3.3-.19,6.94.42,9,1.6A148.43,148.43,0,0,1,293.75,227Zm39.5,30.05c-6.25,6-14.94,9.18-25.22,8.45,3.5-.53-6.65-6.65-5.92-5.92-2,2-3.79,5.3-6.06,6.06-1.57.55-2.64-.6-3.32-2.8a10.9,10.9,0,0,1-7.64-.16h0a9.12,9.12,0,0,1-4.71-1.19C281.35,309.26,333.61,297.93,333.25,257.05Z"/><path class="cls-9" d="M139.76,254.9l-6.2,6.2c-1.76-1.21-3.61-2.6-5.48-4.11-4-3.19-8.22-6.85-12.13-10.62,0,0-.08-.05-.11-.11A160.07,160.07,0,0,1,105.13,234c-1.5-1.87-2.89-3.71-4.11-5.47l6.22-6.22a62.73,62.73,0,0,1,7.32,4.26,67.88,67.88,0,0,1,11.31,9.62,67.43,67.43,0,0,1,9.63,11.35A60.57,60.57,0,0,1,139.76,254.9Z"/><path class="cls-10" d="M276.72,258.22c-48,5.82-134.38,13.79-140.56,12.61a48.54,48.54,0,0,1-14.28-5.28,62.24,62.24,0,0,1-13.28-10c-.7-.63-1.34-1.31-2-2a62.62,62.62,0,0,1-10-13.3,48.22,48.22,0,0,1-5.27-14.28c-1.16-6.16,6.8-92.58,12.6-140.56,2.5,1.71,4.81,1,6.58-1L97,222.22a59.84,59.84,0,0,0,4,6.35c1.22,1.76,2.61,3.6,4.11,5.47a160.07,160.07,0,0,0,10.71,12.22c0,.06.07.07.11.11,3.91,3.77,8.1,7.43,12.13,10.62,1.87,1.51,3.72,2.9,5.48,4.11a61.75,61.75,0,0,0,6.35,4l137.83-13.43C275.75,253.43,275,255.72,276.72,258.22Z"/><path class="cls-5" d="M292.83,259.81c-.21.16-.43.34-.68.51a13.44,13.44,0,0,1-7.06,2.36h0a9.12,9.12,0,0,1-4.71-1.19c-.31-.18-.63-.39-.94-.61a10.84,10.84,0,0,1-2.68-2.65c-1.71-2.5-1-4.79,1-6.56l.58,0a1.94,1.94,0,0,1-.23-.26c3.25-2.72,9.34-4.14,13.61-3.18l.91.24a7.12,7.12,0,0,1,2.08,1.11,4.84,4.84,0,0,1,1.79,4.46,6.44,6.44,0,0,1-.83,2.66h0A10.86,10.86,0,0,1,292.83,259.81Z"/><path class="cls-6" d="M292.73,262.84a10.9,10.9,0,0,1-7.64-.16,13.44,13.44,0,0,0,7.06-2.36c.25-.17.47-.35.68-.51a10.86,10.86,0,0,0,2.81-3.16A4.74,4.74,0,0,1,292.73,262.84Z"/><path class="cls-1" d="M350.53,76.64a8.1,8.1,0,0,1-4.07-2.32c-8.22.42-16.5,1-24.37,2.19-.76-1.31-1.55-2.62-2.39-3.94,10.88-1.7,21.36-5.53,25.75-8.68a248.1,248.1,0,0,0-21.58-25.26,2.62,2.62,0,0,0-.38-.37,249.42,249.42,0,0,0-25.25-21.59c-3.16,4.4-7,14.88-8.66,25.78-1.31-.86-2.65-1.65-4-2.44,1.19-7.85,1.8-16.12,2.21-24.34a8.13,8.13,0,0,1-2.31-4.08c2.64-4.54,5.32-4.83,8.56-4.13,10.53,9.25,20.91,16.93,32.78,27.86,10.93,11.87,18.58,22.22,27.83,32.75C355.35,71.33,355.08,74,350.53,76.64Z"/></g></g></g></g></g></svg>