<?xml version="1.0" encoding="iso-8859-1"?>
<!-- Generator: Adobe Illustrator 19.0.0, SVG Export Plug-In . SVG Version: 6.00 Build 0)  -->
<svg version="1.1" id="Capa_1" xmlns="http://www.w3.org/2000/svg" xmlns:xlink="http://www.w3.org/1999/xlink" x="0px" y="0px"
	 viewBox="0 0 512 512" style="enable-background:new 0 0 512 512;" xml:space="preserve">
<polygon style="fill:#8098B1;" points="206,345.002 256,512 391,462.477 391,345.002 "/>
<g>
	<polygon style="fill:#B4C9E0;" points="121,345.002 121,462.477 256,512 256,345.002 	"/>
	<path style="fill:#B4C9E0;" d="M421,122.996c0-18.196-14.804-33-33-33s-33,14.804-33,33v42l33,30l33-30V122.996z"/>
</g>
<polygon style="fill:#8098B1;" points="325,164.996 325,269.996 421,224.996 421,164.996 "/>
<path style="fill:#90ACC8;" d="M355,62.996c0-18.196-14.804-33-33-33s-33,14.804-33,33l-30,102l96-60V62.996z"/>
<rect x="259" y="105" style="fill:#677D91;" width="96" height="195"/>
<path style="fill:#B4C9E0;" d="M256,0l-10,105l43-30V33C289,14.804,274.196,0,256,0z"/>
<g>
	<path style="fill:#CBDBEA;" d="M223,33v42l33,30V0C237.804,0,223,14.804,223,33z"/>
	<path style="fill:#CBDBEA;" d="M157,162.996c0-18.196-14.804-33-33-33s-33,14.804-33,33v42l111,45L157,162.996z"/>
</g>
<polygon style="fill:#B4C9E0;" points="91,204.996 91,284.996 157,284.996 202,204.996 "/>
<path style="fill:#CBDBEA;" d="M223,62.996c0-18.196-14.804-33-33-33s-33,14.804-33,33v42l96,45L223,62.996z"/>
<rect x="157" y="105" style="fill:#90ACC8;" width="96" height="195"/>
<polygon style="fill:#8098B1;" points="289,75 256,75 226,270 289,270 "/>
<g>
	<rect x="223" y="75" style="fill:#B4C9E0;" width="33" height="195"/>
	<path style="fill:#B4C9E0;" d="M256,224.996l-60,97.015l60,97.015l135-39.15c18.897-26.839,30-59.561,30-94.879v-60H256V224.996z"
		/>
</g>
<path style="fill:#CBDBEA;" d="M157,224.996v60H91c0,35.319,11.103,68.041,30,94.879l135,39.15V224.996H157z"/>
<rect x="208" y="270" style="fill:#90ACC8;" width="30" height="30"/>
<g>
	<rect x="274" y="270" style="fill:#677D91;" width="30" height="30"/>
	<rect x="340" y="270" style="fill:#677D91;" width="30" height="30"/>
</g>
<g>
</g>
<g>
</g>
<g>
</g>
<g>
</g>
<g>
</g>
<g>
</g>
<g>
</g>
<g>
</g>
<g>
</g>
<g>
</g>
<g>
</g>
<g>
</g>
<g>
</g>
<g>
</g>
<g>
</g>
</svg>
