<svg id="Layer_1" enable-background="new 0 0 512.002 512.002" height="512" viewBox="0 0 512.002 512.002" width="512" xmlns="http://www.w3.org/2000/svg"><g><g><path d="m457.931 111.8c-3.839 0-7.678-1.464-10.606-4.394l-42.73-42.73c-5.857-5.857-5.858-15.354-.001-21.212l39.061-39.07c5.857-5.859 15.355-5.859 21.213-.002l42.74 42.73c2.813 2.813 4.395 6.628 4.395 10.607s-1.58 7.794-4.394 10.607l-39.07 39.07c-2.93 2.93-6.769 4.394-10.608 4.394z" fill="#ffc247"/></g><path d="m485.871 25.391-60.281 60.281 21.735 21.735c2.929 2.929 6.768 4.394 10.606 4.394s7.678-1.464 10.606-4.394l39.07-39.07c2.813-2.813 4.394-6.629 4.394-10.607s-1.581-7.794-4.395-10.607z" fill="#ffa426"/><g><path d="m271.902 297.833c-3.979 0-7.794-1.581-10.606-4.394l-42.734-42.734c-5.858-5.858-5.858-15.355 0-21.213l186.122-186.122c5.857-5.858 15.355-5.858 21.213 0l42.734 42.734c2.813 2.813 4.394 6.628 4.394 10.606s-1.58 7.793-4.394 10.606l-186.122 186.124c-2.813 2.813-6.628 4.393-10.607 4.393z" fill="#f5e3a7"/></g><path d="m261.296 293.44c2.813 2.813 6.628 4.394 10.606 4.394s7.794-1.581 10.606-4.394l186.123-186.123c2.813-2.813 4.394-6.628 4.394-10.606s-1.58-7.793-4.394-10.606l-21.737-21.737-207.335 207.335z" fill="#f5d882"/><path d="m296.084 215.918c-28.131-28.131-71.862-38.19-123.141-28.329-46.516 8.947-92.192 33.077-125.318 66.203-32.645 32.645-49.078 70.616-47.524 109.809 1.439 36.276 17.873 71.124 47.524 100.775 29.651 29.652 64.499 46.085 100.776 47.524 1.698.067 3.391.101 5.084.101 37.386 0 73.495-16.395 104.725-47.625 33.125-33.125 57.255-78.802 66.202-125.318 9.863-51.278-.197-95.01-28.328-123.14z" fill="#ffc247"/><g><path d="m151.067 437.653c-3.839 0-7.678-1.464-10.606-4.394l-61.719-61.719c-5.858-5.858-5.858-15.355 0-21.213 5.857-5.858 15.355-5.858 21.213 0l61.719 61.719c5.858 5.858 5.858 15.355 0 21.213-2.93 2.93-6.768 4.394-10.607 4.394z" fill="#a65d4e"/></g><g><path d="m473.178 127.048c-3.839 0-7.678-1.464-10.606-4.394l-73.226-73.224c-5.858-5.857-5.858-15.355 0-21.213 5.857-5.858 15.355-5.858 21.213 0l73.225 73.224c5.858 5.858 5.858 15.355 0 21.213-2.929 2.93-6.768 4.394-10.606 4.394z" fill="#a65d4e"/></g><path d="m384.953 66.831h30v90.435h-30z" fill="#a65d4e" transform="matrix(.707 -.707 .707 .707 37.914 315.629)"/><path d="m348.341 103.443h30v90.435h-30z" fill="#a65d4e" transform="matrix(.707 -.707 .707 .707 1.301 300.462)"/><path d="m311.729 140.055h30v90.435h-30z" fill="#a65d4e" transform="matrix(.707 -.707 .707 .707 -35.312 285.296)"/><path d="m324.412 339.058c9.863-51.278-.197-95.01-28.328-123.141-.123-.123-.253-.24-.377-.363l-248.448 248.449c.123.124.242.249.366.373 29.651 29.652 64.499 46.085 100.776 47.524 1.698.067 3.391.101 5.084.101 37.386 0 73.495-16.395 104.725-47.625 33.125-33.125 57.255-78.802 66.202-125.318z" fill="#ffa426"/><path d="m140.46 433.259c2.929 2.929 6.768 4.394 10.606 4.394s7.678-1.464 10.606-4.394c5.858-5.858 5.858-15.355 0-21.213l-31.229-31.229-21.213 21.213z" fill="#915041"/><path d="m446.802 64.46-21.213 21.213 36.982 36.982c2.929 2.929 6.768 4.394 10.606 4.394s7.678-1.464 10.606-4.394c5.858-5.858 5.858-15.355 0-21.213z" fill="#915041"/><circle cx="182.183" cy="329.812" fill="#414952" r="42.953"/><path d="m151.811 360.185c16.774 16.774 43.971 16.774 60.745 0s16.774-43.971 0-60.745z" fill="#23272b"/><g><path d="m182.183 384.181c-14.521 0-28.173-5.655-38.44-15.923-21.196-21.196-21.196-55.685 0-76.881 10.268-10.268 23.919-15.923 38.44-15.923s28.173 5.655 38.441 15.923c21.196 21.196 21.196 55.685 0 76.881-10.268 10.269-23.92 15.923-38.441 15.923zm0-78.727c-6.508 0-12.626 2.534-17.227 7.136-9.5 9.5-9.5 24.956 0 34.456 9.5 9.499 24.955 9.499 34.455 0 9.499-9.5 9.499-24.956 0-34.456-4.602-4.602-10.72-7.136-17.228-7.136z" fill="#a65d4e"/></g><g fill="#915041"><path d="m220.624 291.377c-.124-.124-.254-.238-.379-.361l-21.213 21.213c.126.121.255.237.378.36 9.499 9.5 9.499 24.956 0 34.456-9.5 9.499-24.955 9.499-34.455 0-.125-.125-.229-.262-.351-.388l-21.222 21.222c.122.125.236.255.36.379 10.268 10.268 23.919 15.923 38.44 15.923s28.173-5.655 38.44-15.923c21.198-21.196 21.198-55.685.002-76.881z"/><path d="m327.531 178.205h30v45.74h-30z" transform="matrix(.707 -.707 .707 .707 -41.857 301.099)"/><path d="m364.143 141.592h30v45.74h-30z" transform="matrix(.707 -.707 .707 .707 -5.244 316.265)"/><path d="m400.755 104.98h30v45.74h-30z" transform="matrix(.707 -.707 .707 .707 31.368 331.43)"/></g></g></svg>