<svg xmlns="http://www.w3.org/2000/svg" xmlns:xlink="http://www.w3.org/1999/xlink" viewBox="0 0 236.16 236.13"><defs><style>.cls-1{fill:none;}.cls-2{isolation:isolate;}.cls-3{clip-path:url(#clip-path);}.cls-4{fill:#e06504;}.cls-5{fill:#cf0e04;}.cls-6{fill:#e87800;}.cls-7{fill:#f4e242;}.cls-58,.cls-59,.cls-8,.cls-9{mix-blend-mode:screen;}.cls-8{fill:url(#radial-gradient);}.cls-9{fill:url(#radial-gradient-2);}.cls-10{fill:url(#radial-gradient-3);}.cls-11{fill:url(#radial-gradient-4);}.cls-12{fill:url(#radial-gradient-5);}.cls-13{fill:url(#radial-gradient-6);}.cls-14{fill:url(#radial-gradient-7);}.cls-15{fill:url(#radial-gradient-8);}.cls-16{fill:url(#radial-gradient-9);}.cls-17{fill:url(#radial-gradient-10);}.cls-18{fill:url(#radial-gradient-11);}.cls-19{fill:url(#radial-gradient-12);}.cls-20{fill:url(#radial-gradient-13);}.cls-21{fill:url(#radial-gradient-14);}.cls-22{fill:url(#radial-gradient-15);}.cls-23{fill:url(#radial-gradient-16);}.cls-24{fill:url(#radial-gradient-17);}.cls-25{fill:url(#radial-gradient-18);}.cls-26{fill:url(#radial-gradient-19);}.cls-27{fill:url(#radial-gradient-20);}.cls-28{fill:url(#radial-gradient-21);}.cls-29{fill:url(#radial-gradient-22);}.cls-30{fill:url(#radial-gradient-23);}.cls-31{fill:url(#radial-gradient-24);}.cls-32{fill:url(#radial-gradient-25);}.cls-33{fill:url(#radial-gradient-26);}.cls-34{fill:url(#radial-gradient-27);}.cls-35{fill:url(#radial-gradient-28);}.cls-36{fill:url(#radial-gradient-29);}.cls-37{fill:url(#radial-gradient-30);}.cls-38{fill:url(#radial-gradient-31);}.cls-39{fill:url(#radial-gradient-32);}.cls-40{fill:url(#radial-gradient-33);}.cls-41{fill:url(#radial-gradient-34);}.cls-42{fill:url(#radial-gradient-35);}.cls-43{fill:url(#radial-gradient-36);}.cls-44{fill:url(#radial-gradient-37);}.cls-45{fill:url(#radial-gradient-38);}.cls-46{fill:url(#radial-gradient-39);}.cls-47{fill:url(#radial-gradient-40);}.cls-48{fill:url(#radial-gradient-41);}.cls-49{fill:url(#radial-gradient-42);}.cls-50{fill:url(#radial-gradient-43);}.cls-51{fill:url(#radial-gradient-44);}.cls-52{fill:url(#radial-gradient-45);}.cls-53{fill:url(#radial-gradient-46);}.cls-54{fill:url(#radial-gradient-47);}.cls-55{fill:url(#radial-gradient-48);}.cls-56{fill:url(#radial-gradient-49);}.cls-57{fill:url(#radial-gradient-50);}.cls-58{fill:url(#radial-gradient-51);}.cls-59{fill:url(#radial-gradient-52);}.cls-60{fill:url(#radial-gradient-53);}.cls-61{fill:url(#radial-gradient-54);}.cls-62{fill:url(#radial-gradient-55);}.cls-63{fill:url(#radial-gradient-56);}.cls-64{fill:url(#radial-gradient-57);}.cls-65{fill:url(#radial-gradient-58);}.cls-66{fill:url(#radial-gradient-59);}.cls-67{fill:url(#radial-gradient-60);}.cls-68{fill:url(#radial-gradient-61);}.cls-69{fill:url(#radial-gradient-62);}.cls-70{fill:url(#radial-gradient-63);}.cls-71{fill:url(#radial-gradient-64);}.cls-72{fill:url(#radial-gradient-65);}.cls-73{fill:url(#radial-gradient-66);}.cls-74{fill:url(#radial-gradient-67);}.cls-75{fill:url(#radial-gradient-68);}.cls-76{fill:url(#radial-gradient-69);}.cls-77{fill:url(#radial-gradient-70);}.cls-78{fill:url(#radial-gradient-71);}.cls-79{fill:url(#radial-gradient-72);}.cls-80{fill:url(#radial-gradient-73);}.cls-81{fill:url(#radial-gradient-74);}.cls-82{fill:url(#radial-gradient-75);}.cls-83{fill:url(#radial-gradient-76);}.cls-84{fill:url(#radial-gradient-77);}.cls-85{fill:url(#radial-gradient-78);}.cls-86{fill:url(#radial-gradient-79);}.cls-87{fill:url(#radial-gradient-80);}.cls-88{fill:url(#radial-gradient-81);}.cls-89{fill:url(#radial-gradient-82);}.cls-90{fill:url(#radial-gradient-83);}.cls-91{fill:url(#radial-gradient-84);}.cls-92{fill:url(#radial-gradient-85);}.cls-93{fill:url(#radial-gradient-86);}.cls-94{fill:url(#radial-gradient-87);}.cls-95{fill:url(#radial-gradient-88);}.cls-96{fill:url(#radial-gradient-89);}.cls-97{fill:url(#radial-gradient-90);}.cls-98{fill:url(#radial-gradient-91);}.cls-99{fill:url(#radial-gradient-92);}.cls-100{fill:url(#radial-gradient-93);}.cls-101{fill:url(#radial-gradient-94);}.cls-102{fill:url(#radial-gradient-95);}.cls-103{fill:url(#radial-gradient-96);}.cls-104{fill:url(#radial-gradient-97);}.cls-105{fill:url(#radial-gradient-98);}.cls-106{fill:url(#radial-gradient-99);}.cls-107{fill:url(#radial-gradient-100);}.cls-108{fill:url(#radial-gradient-101);}.cls-109{fill:url(#radial-gradient-102);}.cls-110{fill:url(#radial-gradient-103);}.cls-111{fill:url(#radial-gradient-104);}.cls-112{fill:url(#radial-gradient-105);}.cls-113{fill:url(#radial-gradient-106);}.cls-114{fill:url(#radial-gradient-107);}.cls-115{fill:url(#radial-gradient-108);}.cls-116{fill:url(#radial-gradient-109);}.cls-117{fill:url(#radial-gradient-110);}.cls-118{fill:url(#radial-gradient-111);}.cls-119{fill:url(#radial-gradient-112);}.cls-120{fill:url(#radial-gradient-113);}.cls-121{fill:url(#radial-gradient-114);}.cls-122{fill:url(#radial-gradient-115);}.cls-123{fill:url(#radial-gradient-116);}.cls-124{fill:url(#radial-gradient-117);}.cls-125{fill:url(#radial-gradient-118);}.cls-126{fill:url(#radial-gradient-119);}.cls-127{fill:url(#radial-gradient-120);}.cls-128{fill:url(#radial-gradient-121);}.cls-129{fill:url(#radial-gradient-122);}.cls-130{fill:url(#radial-gradient-123);}.cls-131{fill:url(#radial-gradient-124);}.cls-132{fill:url(#radial-gradient-125);}.cls-133{fill:url(#radial-gradient-126);}.cls-134{fill:url(#radial-gradient-127);}.cls-135{fill:url(#radial-gradient-128);}.cls-136{fill:url(#radial-gradient-129);}.cls-137{fill:url(#radial-gradient-130);}.cls-138{fill:url(#radial-gradient-131);}.cls-139{fill:url(#radial-gradient-132);}.cls-140{fill:url(#radial-gradient-133);}.cls-141{fill:url(#radial-gradient-134);}.cls-142{fill:url(#radial-gradient-135);}.cls-143{fill:url(#radial-gradient-136);}.cls-144{fill:url(#radial-gradient-137);}.cls-145{fill:url(#radial-gradient-138);}.cls-146{fill:url(#radial-gradient-139);}.cls-147{fill:url(#radial-gradient-140);}.cls-148{fill:url(#radial-gradient-141);}.cls-149{fill:url(#radial-gradient-142);}.cls-150{fill:url(#radial-gradient-143);}.cls-151{fill:url(#radial-gradient-144);}.cls-152{fill:url(#radial-gradient-145);}.cls-153{fill:url(#radial-gradient-146);}.cls-154{fill:url(#radial-gradient-147);}.cls-155{fill:url(#radial-gradient-148);}.cls-156{fill:url(#linear-gradient);}</style><clipPath id="clip-path" transform="translate(10.86 10.11)"><path class="cls-1" d="M217.89,121.24l-2.9-4.07c0-.45.08-.92.11-1.38l1-2.18-.87-.15c0-.61.05-1.23.07-1.86l.24-.37-.14-4.26c0-2.92,0-5.89-.27-8.86L215,92.59,214.71,94c-.26-1.93-.6-3.83-1-5.69l.22-.66-.33.22A34.48,34.48,0,0,0,205,71.51l1.2-4.49a1.88,1.88,0,0,0,.88-2.12,22.89,22.89,0,0,0-4.94-9.52l-.05-3.8-4.89-1.39L198.42,52c-3.58-2.71-7.67-4.73-11.28-7.41L187,35.24l-10.67-3.82-1.15-3.87-11.95-7.22-12.72-5.74-1.58-2.13-14.27-1.41-13-3.69L97.59,1,86,9.92a14.31,14.31,0,0,0-9.62.68l-1.84.13-7.18,4.6L75,11.07h.37A26.85,26.85,0,0,0,68,16.75l-5.38.4-6.06,7.34L47.81,26.1,37.42,36.21l-2.3,1.59L29,46.45l-12.3,4.6-2.14,6.7-1.39.81L6.69,71.92l3.72,6.3L6.09,87.07,11.23,83a57.83,57.83,0,0,0-2.38,11.3l-.69,1.4-4.84,7.61,1.06,9.65-1.95,3.7-.45.25v.61l-1,2,1-1.54v9.68l3.69.61,1.4,10.29.19,2.93-1.86,3.68L7.75,149l0,.33,1,1.55L5.6,154.57l11.08,10.65L18.14,163l-.07.31,2.67,2.44-3.11,4.62,10.72,12.08,2.16,5.29L37.78,196l5.78,10.49,11-.12,10.67,7.18,8.63,7.27,14-4.56,13.17,2.54,7-7.25h0l2.86,7.17,14-2.22-.34-2.16,9.54-.78,13.12-3.13,3.82,2,12.74-7.24,8-9.69L187.93,188l-1.68-7.24,14-4.29.21-11.16,1.14-1.32-.59-1,5.13-1.76.36-14.39L213.32,135l-3.53,2a64.8,64.8,0,0,0,3.92-11.67Z"/></clipPath><radialGradient id="radial-gradient" cx="83.38" cy="84.13" r="94.24" gradientTransform="translate(165.02 -1.68) rotate(88.32)" gradientUnits="userSpaceOnUse"><stop offset="0" stop-color="#e16a1a"/><stop offset="1"/></radialGradient><radialGradient id="radial-gradient-2" cx="94.24" cy="94.24" r="68.33" gradientTransform="matrix(1, 0, 0, 1, 0, 0)" xlink:href="#radial-gradient"/><radialGradient id="radial-gradient-3" cx="217.1" cy="207.73" r="217.81" gradientUnits="userSpaceOnUse"><stop offset="0" stop-color="#692700"/><stop offset="0.21" stop-color="#301200"/><stop offset="0.37" stop-color="#210c00"/><stop offset="0.54" stop-color="#301200"/><stop offset="1" stop-color="#5c0000"/></radialGradient><radialGradient id="radial-gradient-4" cx="217.1" cy="207.73" r="217.81" xlink:href="#radial-gradient-3"/><radialGradient id="radial-gradient-5" cx="217.1" cy="207.73" r="217.81" xlink:href="#radial-gradient-3"/><radialGradient id="radial-gradient-6" cx="217.1" cy="207.73" r="217.81" xlink:href="#radial-gradient-3"/><radialGradient id="radial-gradient-7" cx="217.1" cy="207.73" r="217.8" xlink:href="#radial-gradient-3"/><radialGradient id="radial-gradient-8" cx="217.1" cy="207.73" r="217.74" xlink:href="#radial-gradient-3"/><radialGradient id="radial-gradient-9" cx="217.1" cy="207.73" r="217.81" xlink:href="#radial-gradient-3"/><radialGradient id="radial-gradient-10" cx="217.1" cy="207.73" r="217.8" xlink:href="#radial-gradient-3"/><radialGradient id="radial-gradient-11" cx="217.1" cy="207.73" r="217.8" xlink:href="#radial-gradient-3"/><radialGradient id="radial-gradient-12" cx="217.1" cy="207.73" r="217.81" xlink:href="#radial-gradient-3"/><radialGradient id="radial-gradient-13" cx="217.1" cy="207.73" r="217.8" xlink:href="#radial-gradient-3"/><radialGradient id="radial-gradient-14" cx="217.1" cy="207.73" r="217.81" xlink:href="#radial-gradient-3"/><radialGradient id="radial-gradient-15" cx="217.1" cy="207.73" r="217.81" xlink:href="#radial-gradient-3"/><radialGradient id="radial-gradient-16" cx="217.1" cy="207.73" r="217.81" xlink:href="#radial-gradient-3"/><radialGradient id="radial-gradient-17" cx="217.1" cy="207.73" r="217.81" xlink:href="#radial-gradient-3"/><radialGradient id="radial-gradient-18" cx="217.1" cy="207.73" r="217.81" xlink:href="#radial-gradient-3"/><radialGradient id="radial-gradient-19" cx="217.1" cy="207.73" r="217.8" xlink:href="#radial-gradient-3"/><radialGradient id="radial-gradient-20" cx="217.1" cy="207.73" r="217.81" xlink:href="#radial-gradient-3"/><radialGradient id="radial-gradient-21" cx="217.1" cy="207.73" r="217.81" xlink:href="#radial-gradient-3"/><radialGradient id="radial-gradient-22" cx="217.1" cy="207.73" r="217.81" xlink:href="#radial-gradient-3"/><radialGradient id="radial-gradient-23" cx="217.1" cy="207.73" r="217.81" xlink:href="#radial-gradient-3"/><radialGradient id="radial-gradient-24" cx="217.1" cy="207.73" r="217.81" xlink:href="#radial-gradient-3"/><radialGradient id="radial-gradient-25" cx="217.1" cy="207.73" r="217.81" xlink:href="#radial-gradient-3"/><radialGradient id="radial-gradient-26" cx="217.1" cy="207.73" r="217.81" xlink:href="#radial-gradient-3"/><radialGradient id="radial-gradient-27" cx="217.11" cy="207.73" r="217.82" xlink:href="#radial-gradient-3"/><radialGradient id="radial-gradient-28" cx="217.1" cy="207.73" r="217.81" xlink:href="#radial-gradient-3"/><radialGradient id="radial-gradient-29" cx="217.1" cy="207.73" r="217.81" xlink:href="#radial-gradient-3"/><radialGradient id="radial-gradient-30" cx="217.1" cy="207.73" r="217.81" xlink:href="#radial-gradient-3"/><radialGradient id="radial-gradient-31" cx="217.1" cy="207.73" r="217.81" xlink:href="#radial-gradient-3"/><radialGradient id="radial-gradient-32" cx="217.1" cy="207.73" r="217.81" xlink:href="#radial-gradient-3"/><radialGradient id="radial-gradient-33" cx="217.1" cy="207.73" r="217.81" xlink:href="#radial-gradient-3"/><radialGradient id="radial-gradient-34" cx="217.1" cy="207.73" r="217.81" xlink:href="#radial-gradient-3"/><radialGradient id="radial-gradient-35" cx="217.1" cy="207.73" r="217.8" xlink:href="#radial-gradient-3"/><radialGradient id="radial-gradient-36" cx="217.1" cy="207.73" r="217.81" xlink:href="#radial-gradient-3"/><radialGradient id="radial-gradient-37" cx="217.11" cy="207.73" r="217.82" xlink:href="#radial-gradient-3"/><radialGradient id="radial-gradient-38" cx="217.1" cy="207.73" r="217.81" xlink:href="#radial-gradient-3"/><radialGradient id="radial-gradient-39" cx="217.1" cy="207.73" r="217.81" xlink:href="#radial-gradient-3"/><radialGradient id="radial-gradient-40" cx="217.1" cy="207.73" r="217.81" xlink:href="#radial-gradient-3"/><radialGradient id="radial-gradient-41" cx="217.1" cy="207.72" r="217.8" xlink:href="#radial-gradient-3"/><radialGradient id="radial-gradient-42" cx="217.1" cy="207.73" r="217.81" xlink:href="#radial-gradient-3"/><radialGradient id="radial-gradient-43" cx="217.1" cy="207.72" r="217.8" xlink:href="#radial-gradient-3"/><radialGradient id="radial-gradient-44" cx="217.1" cy="207.72" r="217.81" xlink:href="#radial-gradient-3"/><radialGradient id="radial-gradient-45" cx="217.1" cy="207.74" r="217.82" xlink:href="#radial-gradient-3"/><radialGradient id="radial-gradient-46" cx="217.1" cy="207.73" r="217.8" xlink:href="#radial-gradient-3"/><radialGradient id="radial-gradient-47" cx="217.1" cy="207.73" r="217.81" xlink:href="#radial-gradient-3"/><radialGradient id="radial-gradient-48" cx="217.1" cy="207.73" r="217.81" xlink:href="#radial-gradient-3"/><radialGradient id="radial-gradient-49" cx="217.1" cy="207.73" r="217.81" xlink:href="#radial-gradient-3"/><radialGradient id="radial-gradient-50" cx="217.1" cy="207.73" r="217.81" xlink:href="#radial-gradient-3"/><radialGradient id="radial-gradient-51" cx="169.17" cy="103.89" r="51.93" gradientTransform="matrix(1, 0, 0, 1, 0, 0)" xlink:href="#radial-gradient"/><radialGradient id="radial-gradient-52" cx="51.68" cy="147.87" r="40.86" gradientTransform="matrix(1, 0, 0, 1, 0, 0)" xlink:href="#radial-gradient"/><radialGradient id="radial-gradient-53" cx="185.28" cy="120.32" r="123.49" gradientUnits="userSpaceOnUse"><stop offset="0" stop-color="#692700"/><stop offset="0.21" stop-color="#301200"/><stop offset="0.37" stop-color="#210c00"/><stop offset="0.54" stop-color="#301200"/><stop offset="1" stop-color="#85170d"/></radialGradient><radialGradient id="radial-gradient-54" cx="195.31" cy="132.69" r="127.43" xlink:href="#radial-gradient-53"/><radialGradient id="radial-gradient-55" cx="199.34" cy="103.88" r="81.17" xlink:href="#radial-gradient-53"/><radialGradient id="radial-gradient-56" cx="149.25" cy="86.19" r="93.38" xlink:href="#radial-gradient-53"/><radialGradient id="radial-gradient-57" cx="193.64" cy="159.99" r="164.27" xlink:href="#radial-gradient-53"/><radialGradient id="radial-gradient-58" cx="204.09" cy="157.32" r="153.88" xlink:href="#radial-gradient-53"/><radialGradient id="radial-gradient-59" cx="215.96" cy="206.02" r="217.8" xlink:href="#radial-gradient-53"/><radialGradient id="radial-gradient-60" cx="197.84" cy="155.08" r="144.58" xlink:href="#radial-gradient-53"/><radialGradient id="radial-gradient-61" cx="205.55" cy="183.3" r="172.22" xlink:href="#radial-gradient-53"/><radialGradient id="radial-gradient-62" cx="211.04" cy="179.51" r="140.83" xlink:href="#radial-gradient-53"/><radialGradient id="radial-gradient-63" cx="215.96" cy="206.02" r="217.79" xlink:href="#radial-gradient-53"/><radialGradient id="radial-gradient-64" cx="103.6" cy="65.29" r="69.61" xlink:href="#radial-gradient-53"/><radialGradient id="radial-gradient-65" cx="177.84" cy="162.43" r="162.9" xlink:href="#radial-gradient-53"/><radialGradient id="radial-gradient-66" cx="173.35" cy="178.93" r="162.72" xlink:href="#radial-gradient-53"/><radialGradient id="radial-gradient-67" cx="187.39" cy="176.8" r="164.82" xlink:href="#radial-gradient-53"/><radialGradient id="radial-gradient-68" cx="198.83" cy="173.04" r="159.65" xlink:href="#radial-gradient-53"/><radialGradient id="radial-gradient-69" cx="211.65" cy="188.56" r="144.4" xlink:href="#radial-gradient-53"/><radialGradient id="radial-gradient-70" cx="173.19" cy="142.16" r="156.47" xlink:href="#radial-gradient-53"/><radialGradient id="radial-gradient-71" cx="165.63" cy="178.25" r="158.95" xlink:href="#radial-gradient-53"/><radialGradient id="radial-gradient-72" cx="186.25" cy="180.47" r="166.7" xlink:href="#radial-gradient-53"/><radialGradient id="radial-gradient-73" cx="189.37" cy="184.13" r="161.43" xlink:href="#radial-gradient-53"/><radialGradient id="radial-gradient-74" cx="192.34" cy="192.95" r="160.38" xlink:href="#radial-gradient-53"/><radialGradient id="radial-gradient-75" cx="201.95" cy="196.17" r="168.25" xlink:href="#radial-gradient-53"/><radialGradient id="radial-gradient-76" cx="209.36" cy="179.36" r="86.6" xlink:href="#radial-gradient-53"/><radialGradient id="radial-gradient-77" cx="215.96" cy="206.02" r="217.8" xlink:href="#radial-gradient-53"/><radialGradient id="radial-gradient-78" cx="166.57" cy="159.66" r="158.68" xlink:href="#radial-gradient-53"/><radialGradient id="radial-gradient-79" cx="186.29" cy="181.73" r="163.3" xlink:href="#radial-gradient-53"/><radialGradient id="radial-gradient-80" cx="195.39" cy="191.68" r="174.45" xlink:href="#radial-gradient-53"/><radialGradient id="radial-gradient-81" cx="191.86" cy="199.07" r="166.27" xlink:href="#radial-gradient-53"/><radialGradient id="radial-gradient-82" cx="202.38" cy="198.81" r="134.85" xlink:href="#radial-gradient-53"/><radialGradient id="radial-gradient-83" cx="-2.3" cy="126.1" r="3.01" xlink:href="#radial-gradient-53"/><radialGradient id="radial-gradient-84" cx="164.43" cy="185.17" r="157.32" xlink:href="#radial-gradient-53"/><radialGradient id="radial-gradient-85" cx="182.82" cy="193.16" r="172.14" xlink:href="#radial-gradient-53"/><radialGradient id="radial-gradient-86" cx="178.6" cy="202.25" r="157.93" xlink:href="#radial-gradient-53"/><radialGradient id="radial-gradient-87" cx="215.96" cy="206.03" r="217.81" xlink:href="#radial-gradient-53"/><radialGradient id="radial-gradient-88" cx="120.27" cy="193.38" r="110.59" xlink:href="#radial-gradient-53"/><radialGradient id="radial-gradient-89" cx="177.98" cy="207.15" r="159.61" xlink:href="#radial-gradient-53"/><radialGradient id="radial-gradient-90" cx="155.4" cy="214.75" r="61.55" xlink:href="#radial-gradient-53"/><radialGradient id="radial-gradient-91" cx="203.99" cy="159.71" r="143.27" xlink:href="#radial-gradient-53"/><radialGradient id="radial-gradient-92" cx="215.96" cy="206.03" r="217.8" xlink:href="#radial-gradient-53"/><radialGradient id="radial-gradient-93" cx="215.97" cy="206.04" r="217.82" xlink:href="#radial-gradient-53"/><radialGradient id="radial-gradient-94" cx="178.96" cy="142.95" r="143.95" xlink:href="#radial-gradient-53"/><radialGradient id="radial-gradient-95" cx="180.99" cy="144.17" r="137.68" xlink:href="#radial-gradient-53"/><radialGradient id="radial-gradient-96" cx="193.14" cy="185" r="141.3" xlink:href="#radial-gradient-53"/><radialGradient id="radial-gradient-97" cx="143.03" cy="169.42" r="130.52" xlink:href="#radial-gradient-53"/><radialGradient id="radial-gradient-98" cx="117.45" cy="145.68" r="110.65" xlink:href="#radial-gradient-53"/><radialGradient id="radial-gradient-99" cx="215.96" cy="206.03" r="217.79" xlink:href="#radial-gradient-53"/><radialGradient id="radial-gradient-100" cx="215.97" cy="206.03" r="217.81" xlink:href="#radial-gradient-53"/><radialGradient id="radial-gradient-101" cx="183.79" cy="118.06" r="123.5" gradientUnits="userSpaceOnUse"><stop offset="0" stop-color="#692700"/><stop offset="0.21" stop-color="#301200"/><stop offset="0.37" stop-color="#210c00"/><stop offset="0.54" stop-color="#301200"/><stop offset="1" stop-color="#ab1e11"/></radialGradient><radialGradient id="radial-gradient-102" cx="193.8" cy="130.42" r="127.43" xlink:href="#radial-gradient-101"/><radialGradient id="radial-gradient-103" cx="197.83" cy="101.61" r="81.17" xlink:href="#radial-gradient-101"/><radialGradient id="radial-gradient-104" cx="147.73" cy="83.93" r="93.39" xlink:href="#radial-gradient-101"/><radialGradient id="radial-gradient-105" cx="172.42" cy="110.34" r="110.37" xlink:href="#radial-gradient-101"/><radialGradient id="radial-gradient-106" cx="188.75" cy="108.49" r="92.53" xlink:href="#radial-gradient-101"/><radialGradient id="radial-gradient-107" cx="217.12" cy="138.32" r="100.63" xlink:href="#radial-gradient-101"/><radialGradient id="radial-gradient-108" cx="177.74" cy="102.37" r="73.37" xlink:href="#radial-gradient-101"/><radialGradient id="radial-gradient-109" cx="194.88" cy="153.9" r="105.58" xlink:href="#radial-gradient-101"/><radialGradient id="radial-gradient-110" cx="196.52" cy="145.23" r="46.65" xlink:href="#radial-gradient-101"/><radialGradient id="radial-gradient-111" cx="218.21" cy="176.17" r="151.24" xlink:href="#radial-gradient-101"/><radialGradient id="radial-gradient-112" cx="102.09" cy="63.01" r="69.6" xlink:href="#radial-gradient-101"/><radialGradient id="radial-gradient-113" cx="140.77" cy="115.74" r="109.26" xlink:href="#radial-gradient-101"/><radialGradient id="radial-gradient-114" cx="129.73" cy="149.18" r="109.29" xlink:href="#radial-gradient-101"/><radialGradient id="radial-gradient-115" cx="158.02" cy="145.38" r="112.48" xlink:href="#radial-gradient-101"/><radialGradient id="radial-gradient-116" cx="180.2" cy="141.64" r="106.45" xlink:href="#radial-gradient-101"/><radialGradient id="radial-gradient-117" cx="210.14" cy="186.3" r="144.4" xlink:href="#radial-gradient-101"/><radialGradient id="radial-gradient-118" cx="79.85" cy="62.01" r="48.45" xlink:href="#radial-gradient-101"/><radialGradient id="radial-gradient-119" cx="114.21" cy="144.09" r="99.12" xlink:href="#radial-gradient-101"/><radialGradient id="radial-gradient-120" cx="155.12" cy="152.79" r="116.31" xlink:href="#radial-gradient-101"/><radialGradient id="radial-gradient-121" cx="162.02" cy="158.58" r="104.44" xlink:href="#radial-gradient-101"/><radialGradient id="radial-gradient-122" cx="168.49" cy="177.43" r="106.96" xlink:href="#radial-gradient-101"/><radialGradient id="radial-gradient-123" cx="180.61" cy="184.04" r="106.26" xlink:href="#radial-gradient-101"/><radialGradient id="radial-gradient-124" cx="204.43" cy="184.31" r="86.59" xlink:href="#radial-gradient-101"/><radialGradient id="radial-gradient-125" cx="97.24" cy="142.98" r="101.24" xlink:href="#radial-gradient-101"/><radialGradient id="radial-gradient-126" cx="109.52" cy="112.82" r="94.64" xlink:href="#radial-gradient-101"/><radialGradient id="radial-gradient-127" cx="152.91" cy="155.24" r="108.69" xlink:href="#radial-gradient-101"/><radialGradient id="radial-gradient-128" cx="169.6" cy="174.54" r="123.37" xlink:href="#radial-gradient-101"/><radialGradient id="radial-gradient-129" cx="166.12" cy="189.85" r="113.54" xlink:href="#radial-gradient-101"/><radialGradient id="radial-gradient-130" cx="198.1" cy="199.53" r="134.85" xlink:href="#radial-gradient-101"/><radialGradient id="radial-gradient-131" cx="-3.8" cy="123.84" r="3.01" xlink:href="#radial-gradient-101"/><radialGradient id="radial-gradient-132" cx="114.37" cy="164.77" r="100.31" xlink:href="#radial-gradient-101"/><radialGradient id="radial-gradient-133" cx="144.01" cy="179.11" r="121.63" xlink:href="#radial-gradient-101"/><radialGradient id="radial-gradient-134" cx="138.96" cy="194.05" r="96.93" xlink:href="#radial-gradient-101"/><radialGradient id="radial-gradient-135" cx="175.04" cy="199.42" r="174.29" xlink:href="#radial-gradient-101"/><radialGradient id="radial-gradient-136" cx="118.76" cy="191.12" r="110.59" xlink:href="#radial-gradient-101"/><radialGradient id="radial-gradient-137" cx="176.47" cy="204.88" r="159.61" xlink:href="#radial-gradient-101"/><radialGradient id="radial-gradient-138" cx="151.53" cy="214.8" r="61.55" xlink:href="#radial-gradient-101"/><radialGradient id="radial-gradient-139" cx="190.41" cy="100.96" r="53.13" xlink:href="#radial-gradient-101"/><radialGradient id="radial-gradient-140" cx="214.83" cy="186.56" r="178.84" xlink:href="#radial-gradient-101"/><radialGradient id="radial-gradient-141" cx="214.46" cy="203.77" r="217.82" xlink:href="#radial-gradient-101"/><radialGradient id="radial-gradient-142" cx="133" cy="70.35" r="61.11" xlink:href="#radial-gradient-101"/><radialGradient id="radial-gradient-143" cx="164.7" cy="123.01" r="108.45" xlink:href="#radial-gradient-101"/><radialGradient id="radial-gradient-144" cx="167.36" cy="146.66" r="16.85" xlink:href="#radial-gradient-101"/><radialGradient id="radial-gradient-145" cx="112.55" cy="149.94" r="91.4" xlink:href="#radial-gradient-101"/><radialGradient id="radial-gradient-146" cx="84.13" cy="134.89" r="76.04" xlink:href="#radial-gradient-101"/><radialGradient id="radial-gradient-147" cx="187.44" cy="207.04" r="137.78" xlink:href="#radial-gradient-101"/><radialGradient id="radial-gradient-148" cx="166.23" cy="198.35" r="157.05" xlink:href="#radial-gradient-101"/><linearGradient id="linear-gradient" x1="25.42" y1="9.09" x2="161.44" y2="176.59" gradientUnits="userSpaceOnUse"><stop offset="0" stop-color="#fe0"/><stop offset="1" stop-color="#360e00"/></linearGradient></defs><g class="cls-2"><g id="Layer_2" data-name="Layer 2"><g id="Layer_1-2" data-name="Layer 1"><g class="cls-3"><path class="cls-4" d="M225.25,108.42A117.38,117.38,0,1,1,107.88-9,117.37,117.37,0,0,1,225.25,108.42Z" transform="translate(10.86 10.11)"/><path class="cls-5" d="M193.63,163.47c-10.15,5.25-20.06,6.83-26,3.65,3.25-4.33,6.73-8.73,10.28-13.29,9.08-1.69,19.85-8.29,29.24-19.59,6.75-5.3,12.78-13.1,18-22.08,0-.66,0-1.32.05-2A97.17,97.17,0,0,1,218,121.43,167.33,167.33,0,0,0,223,96.34c.39-1.36.75-2.71,1.09-4.07a119,119,0,0,0-2.29-12,61.6,61.6,0,0,1-4.9,10.42,123,123,0,0,0,.62-24.09,117.22,117.22,0,0,0-15.92-28.78,74.55,74.55,0,0,1,1.21,16.81c-2.57-.61-5.17-2.77-7.83-5.52A87.86,87.86,0,0,0,186.14,21c-.84-.75-1.68-1.48-2.54-2.2.71,1.29,1.38,2.59,2,3.91,3,10.39,2.81,19.89-1.28,24.55-3.38-5-7-10.36-11.06-15.82-1.42-9.11-6.74-19.38-15.1-29.06-1-.47-2-.92-3-1.36a78.67,78.67,0,0,1,6.05,7.38c1.35,5.19-.05,10-3.32,11.9A102.52,102.52,0,0,0,136.61,1.71a61.6,61.6,0,0,0-10.72-9.29,118.93,118.93,0,0,0-18-1.38c-3.26,0-6.47.17-9.66.43C105.37-5.3,111-1.24,113.83,3.4c-6.08.21-12.72.18-19.93.44C85.45.6,75-.9,63.5-.25A117.28,117.28,0,0,0,29.2,21.33a76.77,76.77,0,0,1,12-3.87c1.53,2,1.41,5.06.32,8.07A96,96,0,0,0,6.44,49.39Q3.59,54.28,1.21,59.46c9-11.34,19.47-19.93,29.94-25.34,8.31-1.89,15.77.49,18.47,5.48q-5.49,6.82-10.9,13.61c-6.95-1-16.42,2.33-25.3,10.24C6.65,66.2-.16,72.6-6.25,81c-.21.86-.41,1.71-.6,2.57a68.88,68.88,0,0,1,9.7-11.46A151.29,151.29,0,0,0-4.87,97.07a99.32,99.32,0,0,0-4.55,14.45c.1,3.64.35,7.25.77,10.81,2.35-6.41,5.2-11.87,8.7-15.58a114.91,114.91,0,0,0-.91,37.6c0,3.37.3,6.68.67,9.94a117,117,0,0,0,8.56,16.35A11.67,11.67,0,0,1,9.84,168a123.79,123.79,0,0,0,4.79,11.65q2.8,3.65,5.86,7.07c-5-12.72-8.06-25.66-7.29-37.1,2.78,1.69,5.51,4.54,8.45,7.92,2.21,13.43,8.9,28,19.24,41.23a118.43,118.43,0,0,0,6.71,10.34,116.77,116.77,0,0,0,47.27,15.92c-12.54-6.35-24.6-14.3-33.79-24.29-1.82-4.73-1.39-9.33,1.18-11.52a102.22,102.22,0,0,0,26.6,17.91c10.47,7.87,24.23,13.17,38.44,16.65,0,.11.07.22.11.33,1.58-.26,3.14-.54,4.69-.87-4.16-.82-8.47-1.78-12.85-3.09-.07-2.22,1.75-4.42,4.47-5.94a132.09,132.09,0,0,0,37.12-1.09,117.62,117.62,0,0,0,31.5-23.27c-13.45,6.3-27.91,10.68-42,11.55-5.87-1.45-10.41-4.24-11.79-7.77a116.6,116.6,0,0,0,31-7.77c13.81-2.81,28-10.2,40.74-20,.33-.6.68-1.19,1-1.79A116.54,116.54,0,0,1,187.9,178.9a5.76,5.76,0,0,1-3.81-5.43,112.1,112.1,0,0,0,35.06-33c.85-1,1.66-1.92,2.45-2.89.73-2.87,1.33-5.78,1.85-8.72C215.46,142.86,205.13,154.87,193.63,163.47Zm-22.42-13-1.9,2.38a23.2,23.2,0,0,1-9.67-3.52c.09-7.78.15-15.81-1.54-23.86.89-2.61,1.66-5.11,2.41-7.53.27-.89.55-1.77.81-2.63,1.68,1.59,3.31,3.33,5,5.13s3.27,3.49,5,5.17c.17.65.34,1.3.5,1.94,1.44,5.68,2.81,11.1,5.38,15.38ZM111.86,53.77A82.29,82.29,0,0,0,92.49,62.6,16.07,16.07,0,0,1,89.75,56a72,72,0,0,1,17.93-16.21c5-.42,9.64-.62,14.1-.62,1.91,0,3.8,0,5.66.11a35.92,35.92,0,0,0,1.62,4.49A52.84,52.84,0,0,0,111.86,53.77Zm42.38,3.57c3.79,4.46,8,9.28,12,14.77-4.88.77-9.59,1.56-13.36,3.63-9-3.44-18.4-3.95-26.22-1.64-5.85-2.31-11.52-3.95-16.66-5.86,2.26-5.71,6.92-10.95,13.12-14.65A77.21,77.21,0,0,1,154.24,57.34ZM102.82,67.71c4.56,2.14,9.8,3.61,15.33,5.34-1.27,5.14-.88,10.65-.14,16.15-5.05,4.26-9.59,9.09-14.26,13.76-5.7-1-11.48-2-17-3.88a85.66,85.66,0,0,1-1-18.83C90.92,76.17,96.33,71.58,102.82,67.71ZM96.3,103.54a120.46,120.46,0,0,1,2.23,16.83,38.47,38.47,0,0,1-21,7.92A68,68,0,0,1,59.19,113.7c2.08-3.38,3.08-7.79,3.82-12.66,5.66,1.31,11.5-.17,16.35-3.11C84.68,100.91,90.55,102.37,96.3,103.54Zm-33.86,20.7a18.7,18.7,0,0,1-4.87,2.36,120.61,120.61,0,0,1-14.28-8c-3.07-1.9-6-3.71-8.95-5.29-1.08-2-2.13-4-3.15-5.9-1.45-2.73-2.83-5.35-4.26-7.87,1.91-2.18,3.91-4.09,5.87-5.94,1.93,1.63,3.84,3.45,5.82,5.35a100.5,100.5,0,0,0,9.76,8.55A72.46,72.46,0,0,0,62.44,124.24Zm3.77,7.66a44.24,44.24,0,0,0,26.67-1.37c5.5,1.92,10.7,3.5,15.16,5.74-3,6.13-8.49,11.61-15.44,15.53A84.45,84.45,0,0,1,62,149.1c-3.27-4.13-7.09-8.47-11-13.37C56.5,135,61.87,134.15,66.21,131.9Zm36.08,16.18a100.44,100.44,0,0,0,21.95-9.29c2.4,4,3.07,9.35,2.5,14.87-6.27,7-13.92,12.69-21.54,17.58-7.06.12-14.59.09-22.42-.47-.83-3.88-1.51-7.62-3-11C88,157.07,96.05,153.48,102.29,148.08Zm12.25-10.84c-3.72-2.69-8.45-4.43-13.54-6.09,1.64-5.37,1.4-11.12.67-16.72,5-4.48,9.51-9.28,14.21-13.89,5.72,1.13,9.43,9.72,14.67,12.57.47,6.31,2.66,5.87,1.25,12.84C126.53,129.37,121,133.57,114.54,137.24Zm13.67,5A56.25,56.25,0,0,0,135.6,120c4.57-2.66,9.54-4.24,14.18-3.4,3.5,7.56,4.75,16.45,4.79,25.31a126.68,126.68,0,0,1-13.17,18.65,38.18,38.18,0,0,0-13.68-1.18C129,153.33,129.56,147.36,128.21,142.2Zm11.39-33.59c-4.71-4.32-10.52-6.79-16.26-8.36a155,155,0,0,1-2.13-16.71,32.93,32.93,0,0,1,21.15-5.37,64.62,64.62,0,0,1,17.36,18.21c-2.07,3.51-3.33,8-4.57,13A19.24,19.24,0,0,0,139.6,108.61Zm26.73-2.06A70.86,70.86,0,0,0,151.54,84a17.76,17.76,0,0,1,9.54-6.39c9,4.87,16.21,11.52,23.75,14.86,3.07,5.81,5.74,11.32,9,15.56a117.12,117.12,0,0,1-10.68,13.21C177,118.44,172.19,112,166.33,106.55Zm55.75-23.14a140.58,140.58,0,0,1-4.41,29.49c-7.46,15.53-18,26.72-28.32,31.84-5-.81-8.46-6.08-10.53-12.2,3.35-4.06,6.92-8.12,10.44-12.62,7.31.08,16-7.36,21.78-19.18C215.42,97.23,219.09,91,222.08,83.41Zm-18.62-3c4.14-6.17,6.34-15.14,6.43-25.72q.62,1.16,1.2,2.31a119.71,119.71,0,0,1,1.33,15.33c-1.77,14.2-6.56,26.06-13,32.51A27.68,27.68,0,0,1,195,99.1,54.34,54.34,0,0,0,203.46,80.41ZM192.05,55.54a42.53,42.53,0,0,0,4,4c.24,8.72-1.21,17-4.13,23.55a7,7,0,0,1-1.15.09c-4.06,0-9.56-3-14.52-6.07-2.29-3.63-4.81-7.28-7.74-11.19a24.21,24.21,0,0,0,9.87-4.46h.67A16.66,16.66,0,0,0,192.05,55.54ZM167.74,26.8c4.5,5.67,8.31,11.27,11.82,16.62-.58,7.18-4.87,12.45-10,14.47-8.84-2.93-18.41-6.52-28.75-8.1a34.77,34.77,0,0,1-6.05-10.3c7.56-2.55,14.8-4.71,18.29-9.58C159,30.25,164.71,29.88,167.74,26.8ZM125.81-3.37a97.77,97.77,0,0,1,25.08,18.12c2.49,6.89.11,13.67-4.84,17-7.65-.93-15.46-1.73-23.2-2.05A27.92,27.92,0,0,0,118,15.8C120.72,11.46,119.63,5,114.92.08,119.5-.48,123.47-1.33,125.81-3.37ZM86.16,23.85c2.74-3.18,5.29-6.55,6.58-10.19,5.75.09,11.27.36,16.64.63a22.63,22.63,0,0,1,5.87,9.18c-1.57,1-3.2,2-4.89,3A156.78,156.78,0,0,0,96.09,36c-3.51.5-7.07,1-10.38,1.2C86.56,32.69,87.11,28.14,86.16,23.85Zm.51,41.47a52.45,52.45,0,0,0-4.25,21.11c-4.63,3.49-9.53,6.33-14.64,6.74C63,87.12,60,79.06,58.86,70.4a105.89,105.89,0,0,1,11.2-20.13c4,1,8.67.7,13.67-.38C83.23,55.66,84.08,61.19,86.67,65.32ZM58.11,4.8a88,88,0,0,1,10.25-.62A74.64,74.64,0,0,1,78,4.79a7.5,7.5,0,0,1,2.47,3.48A117.78,117.78,0,0,0,56.93,11.1c-.7,0-1.4,0-2.11,0a58.43,58.43,0,0,0-9.23.77A114.52,114.52,0,0,1,58.11,4.8ZM43.22,32.4c2.64-3.87,4.89-7.51,5.92-11A93.48,93.48,0,0,1,76,17.91c4.56,3.85,5.39,10.35,4.51,16.46A121.77,121.77,0,0,0,65,53.1c-3.8-1.74-7.33-4.64-11.74-6.72C52.58,39.82,49.18,33.81,43.22,32.4Zm1.24,19.28c5.07,1.89,8.72,5.72,12.45,8.75.16,9,1.42,18,5,25.8-1.24,6-2,11.4-3.41,16.11C51.91,99.34,46.3,93.67,40.8,88,38.08,79.6,36.66,71.48,34,64.87,37.48,60.59,40.93,56.19,44.46,51.68Zm-49.7,59.51A129.21,129.21,0,0,1,1.71,82c8-12.54,18.07-20.41,26.78-22.1,4.08,3.66,5.86,10.46,8,17.86-3,3.53-6.33,6.84-9.68,10.48C20.51,86.16,11.83,90.44,6,99.6,2,100.86-2,105.25-5.24,111.19Zm17.85,14.08c-4.74,5.86-7.07,15.35-6.72,26.9A112.65,112.65,0,0,1,3.47,126c2.19-11.77,7-21.35,12.5-25.54a70.32,70.32,0,0,1,5.13,8.26A41.51,41.51,0,0,0,12.61,125.27Zm12.85,33.49a109.54,109.54,0,0,0-9.09-10.83c-.8-11.21,1.29-20.64,4.94-27.15,6.4-1.46,14,3.28,22.26,7.81,3.85,5.57,7.81,10.55,11.46,15.17-6.17.93-12.41,2.22-16.06,6.44C32.94,149.63,27.05,152.75,25.46,158.76Zm41.22,54.32c1.14,1.6,2.39,3.16,3.7,4.69-2.16-.74-4.29-1.55-6.38-2.41-12.27-10.54-21.66-21.59-27.91-32.87a38.13,38.13,0,0,1-2.18-13c2.31,3.17,5,6.63,7.91,10.15C45.48,191,54.27,202.84,66.68,213.08Zm-2.93-34.83c-5.24.12-10.17,1.16-12.35,4.34a165.92,165.92,0,0,1-13.81-17.44c-.23-7.52,3.61-13.47,8.77-15.8,8.68,2.39,18,5.36,28,6.65a38.19,38.19,0,0,1,4.49,10.61C71.85,169.4,65.38,172.77,63.75,178.25Zm37.87,33a101,101,0,0,1-31.07-16.46c-4.64-7.09-5-14.88-1.2-19.13,6.89.54,14,1.23,21.09,1.66a29.06,29.06,0,0,0,10,14.85c-.27,5.07,4.44,10.83,11.66,15C107.56,208.09,103.77,209.2,101.62,211.24Zm8.84-14.11c-8-4.06-13.35-9.58-15.85-14.9,4.82-4.83,11.87-8.76,19-13.95a108,108,0,0,1,16.59.17c-.87,6,0,12.37,4.6,16.25-2.25,3.85-3.09,8.26-1.08,11.43C125.33,197,117.6,197.08,110.46,197.13ZM144,206.19a110.92,110.92,0,0,0,33.78-5.62c-3,2.31-6.16,4.47-9.37,6.45a139.85,139.85,0,0,1-27.67,3.52,82.5,82.5,0,0,1-16.24-4c2.62-.3,5.37-.64,8.19-1.05A84.71,84.71,0,0,0,144,206.19ZM176.37,179a99.47,99.47,0,0,1-31.75,9c-7.5-2.14-12.21-7.63-12.83-13.27,5.06-5.21,10.29-10.66,15-16.59,4.17,1.72,8.71,4,14.36,4.79,2.35,5.21,9.45,8.19,17.63,6.81C177.09,173.15,176,176.35,176.37,179Z" transform="translate(10.86 10.11)"/><path class="cls-6" d="M84.47,221.51Q79,220.4,73.72,218.76l-1.9-2.22c-1.36-1.59-2.55-3.08-3.61-4.56l-.14-.2-.19-.15c-12.1-10-20.72-21.55-24.26-32.55l-.11-.35-.24-.29c-2.58-3.07-5.14-6.36-7.84-10.05L32.25,164l-.23,5.4a39.68,39.68,0,0,0,2.28,13.65l.05.17.09.15c5.54,10,13.49,19.83,23.68,29.25-3.12-1.49-6.2-3.14-9.21-4.93-1.89-2.67-4.28-6.14-6.38-9.85l-.07-.13-.08-.11C33.07,185.73,26.62,172.47,24,160l2.29,3,1-3.71c1.16-4.38,5.2-7.22,10.29-7.22.41,0,.81,0,1.22.06l1,.09.63-.74a11.13,11.13,0,0,1,1-1,19.27,19.27,0,0,0-5.72,14.81v.56l.32.46a165.22,165.22,0,0,0,14,17.64l1.6,1.75,1.35-2c1.49-2.18,5.24-3.4,10.83-3.52l1.37,0,.15-.47a19,19,0,0,0,.87,10.59c-.89-.77-1.77-1.56-2.63-2.36l-1.24-1.15L61,187.81c-3.18,2.72-3.85,8.07-1.71,13.64l.13.34.24.26A108.86,108.86,0,0,0,84.47,221.51Zm33-2.43a114.42,114.42,0,0,1-15.06-6l.54-.51c2-1.85,5.93-2.85,9.55-3.58l4.89-1-4.31-2.5c-5.59-3.25-9.45-7.4-10.46-11.1a45.14,45.14,0,0,0,7,4.36l.41.21h.46c6.81,0,14.8-.16,23.39-1l3-.3-1.64-2.59c-1.41-2.23-1-5.68,1-9.26a22.5,22.5,0,0,0,7.84,4l.36.1.37,0A102.57,102.57,0,0,0,166,185.22a114.94,114.94,0,0,1-27.72,6.56l-2.44.28.89,2.28c1.57,4,6.34,7.25,13.09,8.93l.28.07.29,0a111.44,111.44,0,0,0,33-7.57q-2.66,2.3-5.45,4.43l-.74-1.41A109.13,109.13,0,0,1,144,204.3a81,81,0,0,1-11.06-.73l-.26,0-.27,0c-2.48.36-5.14.7-8.13,1l-.44,3.65a83.75,83.75,0,0,0,16.62,4.13l.15,0h.17a134.84,134.84,0,0,0,21.72-2.28l-2.26,1.18a140.46,140.46,0,0,1-22.35,1.86,114.92,114.92,0,0,1-14-.83l-.61-.07-.54.3C119.78,214.27,117.85,216.64,117.44,219.08Zm52.18-35.15q3.84-1.45,7.56-3.22l1.27-.61-.22-1.38c-.29-1.9.42-4.47,2.24-8.11l.27-.53a47.3,47.3,0,0,0,9.95-3.13q-3.7,2.64-7.55,4.89l-.93.54v1.07a7.58,7.58,0,0,0,2.42,5.6A79.88,79.88,0,0,1,169.62,183.93Zm-76-3.37a23.15,23.15,0,0,1-1.34-3.73l-.35-1.32-1.36-.08c-4.71-.29-9.47-.7-14.08-1.09l-7-.58h-.18a41.37,41.37,0,0,1,10.24-5.39l.72-.28,1,4.47,1.41.1c5,.37,10.38.54,16.33.54,1.41,0,2.79,0,4.17,0A70.61,70.61,0,0,0,93.61,180.56Zm-79.26-6.13c-1-2.41-1.93-4.74-2.73-7l-1.14-3.28-2.17,2.78a115.17,115.17,0,0,1-6.65-13.1c-.38-3.43-.59-6.54-.63-9.49v-.12l0-.11a112.31,112.31,0,0,1,.9-37l.62-3.2a11.11,11.11,0,0,1,4.07-2.49l.67-.21.37-.59c4.21-6.66,10.4-11,15.76-11a8.48,8.48,0,0,1,2.75.43l1.16.4.84-.91c1.17-1.27,2.34-2.5,3.49-3.72,1.74-1.83,3.41-3.59,5-5.4.7,2.66,1.45,5.39,2.35,8.17l.14.42.31.32c5.25,5.39,11.21,11.49,18.25,14.71l2,.91.61-2.11c.93-3.23,1.6-6.78,2.32-10.54q.26-1.32.51-2.67a38.89,38.89,0,0,0,3.17,4.69l.62.79,1-.08c6.22-.5,11.9-4.3,15.63-7.12l.15-.11c.15,3.73.55,7.28,1,10.54a34.75,34.75,0,0,1-4.41-2.08l-1-.54-.94.57a21.5,21.5,0,0,1-11.11,3.33,16.79,16.79,0,0,1-3.83-.44l-2-.46-.31,2c-.61,4-1.51,8.62-3.56,11.95l-.73,1.19.92,1a70.07,70.07,0,0,0,18.88,15l.47.26.54,0a40.31,40.31,0,0,0,22-8.3l.69-.5a30.14,30.14,0,0,1-1.14,9.22l0,.09-2.27-.78c-1.11-.38-2.25-.76-3.39-1.17l-.67-.23-.65.26a40.16,40.16,0,0,1-14.57,2.66,44.82,44.82,0,0,1-11-1.37l-.69-.17-.64.33c-4,2.06-9,2.87-14.61,3.64l-.92.13c-1.56-2.07-3.13-4.22-4.69-6.47l-.26-.37L42,125.59c-6.47-3.58-12.58-7-18.25-7a13.06,13.06,0,0,0-2.89.31l-.82.19-.41.73c-4.11,7.32-5.95,17.33-5.18,28.2l0,.18-3-1.82-.21,3.11C10.81,156.94,11.84,165.28,14.35,174.43Zm.49-75.5c-6,4.54-11,14.52-13.23,26.71l0,.14v.15A113.39,113.39,0,0,0,4,152.55l3.74-.44c-.34-11.1,1.89-20.21,6.29-25.65l.26-.31.1-.39a39.83,39.83,0,0,1,8.09-15.82l.87-1-.64-1.15a71.18,71.18,0,0,0-5.27-8.49l-1.14-1.5ZM31.5,92.27c-1.84,1.73-4,3.77-6,6.06l-.89,1,.67,1.17c1.39,2.46,2.74,5,4.17,7.72l.13.25c1,1.9,2,3.84,3.1,5.78l.27.5.5.26c2.88,1.54,5.74,3.3,8.77,5.18a123,123,0,0,0,14.58,8.12l.66.3.69-.23a20.53,20.53,0,0,0,5.36-2.59l2-1.39-1.82-1.59A70.87,70.87,0,0,1,50,106.56l-.2-.32-.3-.22a98.68,98.68,0,0,1-9.57-8.39c-2-1.94-3.93-3.76-5.91-5.43l-1.29-1.09Zm100.25,79.82a24.61,24.61,0,0,1,.27-3.37l.28-1.94-2-.21a83.35,83.35,0,0,0-8.64-.41c-1.86,0-3.82.05-6.07.14A92.18,92.18,0,0,0,126.26,157q-.18,1-.39,2l-.51,2.47,2.51-.21c1.19-.1,2.37-.15,3.51-.15a34.55,34.55,0,0,1,9.43,1.25C138,165.6,135,168.77,131.75,172.09Zm34.45-6.2a8.8,8.8,0,0,1-3.32-3.72l-.43-.95-1-.15a43.51,43.51,0,0,1-11.7-3.73l-2.2-.93-.26-.1a128.17,128.17,0,0,0,8.95-13.45l.26-.44v-.52c-.05-10.3-1.72-19.09-5-26.09l-.41-.89-1-.18a16.41,16.41,0,0,0-2.91-.25,25.2,25.2,0,0,0-12.56,3.88l-.82.48,0,.29c-.12-.49-.27-1-.42-1.42a18.9,18.9,0,0,1-.94-4.75l-.08-1-.9-.49c-2-1.07-3.89-3.3-5.74-5.46a46,46,0,0,0-3.9-4.2l1,.28c6.55,1.8,11.62,4.39,15.48,7.93l.87.8,1.1-.43a16.9,16.9,0,0,1,6.2-1.16,17.56,17.56,0,0,1,7.82,1.85l2.11,1,.57-2.29A58.41,58.41,0,0,1,160.48,99a72.1,72.1,0,0,1,4.11,8.31l.16.38.3.28c1.68,1.56,3.31,3.24,4.88,4.87,4,4.13,7.75,8,12.49,10.19l1.26.57,2.36-2.63c-1.69,2.09-3.39,4.1-5,6.06-1.23,1.46-2.45,2.9-3.64,4.34l-.66.81.33,1c2.65,7.85,6.91,12.63,12,13.46l.6.1.54-.27c1.16-.58,2.32-1.22,3.47-1.93A40.49,40.49,0,0,1,177.58,152l-.71.13-2.44,3.13C171.55,158.91,168.83,162.4,166.2,165.89Zm-7.5-48.5c-.77,2.5-1.53,4.93-2.39,7.48l-.17.49.11.51c1.68,8,1.58,16.19,1.5,23.45v1.08l.93.56a24.88,24.88,0,0,0,10.44,3.78l1,.1,3.64-4.55c1.63-2,3.28-4.1,4.92-6.18l.82-1-.68-1.12c-2.42-4-3.76-9.28-5.16-14.83l-.64-2.5-.39-.38c-1.66-1.59-3.25-3.28-4.8-4.93l-.15-.17c-1.65-1.74-3.34-3.55-5.08-5.2l-2.19-2.08Zm-80.81,41A33.5,33.5,0,0,0,76,155l-.47-.74-.88-.11c-8.1-1-15.74-3.21-23.13-5.3l-4.63-1.3-.11,0a49.92,49.92,0,0,1,8.56-1.87l1.26-.19c1.38,1.65,2.7,3.26,3.94,4.83l.39.5.61.16a90.15,90.15,0,0,0,23.24,3.17c1.59,0,3.17,0,4.73-.14a92.25,92.25,0,0,1-10.29,4Zm25.68-12.66a34.2,34.2,0,0,0,6.17-8.66l.2-.43a27.82,27.82,0,0,1,3.49,2.1l1,.72,1-.6c4.37-2.47,8.21-5.12,11.93-7.68,1.63-1.12,3.21-2.22,4.78-3.24a53.1,53.1,0,0,1-5.06,12.36,18.94,18.94,0,0,0-1.25-2.51l-.93-1.56-1.59.87A102.52,102.52,0,0,1,103.57,145.76Zm106.19-16.3a88,88,0,0,0,7-10.59c-.18.68-.37,1.36-.56,2l.75.37A67.45,67.45,0,0,1,209.76,129.46ZM188.59,118a92,92,0,0,0,6.86-8.91l.75-1.14-.84-1.07c-2.69-3.45-5-7.89-7.45-12.6l-1.71-3.26-.6-.27c-3.91-1.73-7.81-4.45-11.95-7.32A121.66,121.66,0,0,0,162,76l-.69-.38-.76.23a19.94,19.94,0,0,0-10.07,6.48,65.84,65.84,0,0,0-7-5.7l-.41-.28-.49,0a31.61,31.61,0,0,0-3.23-.16A35.15,35.15,0,0,0,120.18,82l-.91.59,0,.78a33,33,0,0,1,.64-9.68c2,.69,4,1.41,6,2.22l.6.24.63-.18a34,34,0,0,1,9.66-1.34,43.53,43.53,0,0,1,15.34,2.92l.82.31.76-.42c3.6-2,8.47-2.73,12.76-3.41l3.08-.48L167.79,71c-3.64-4.92-7.28-9.2-10.8-13.33l-1.66-2-.51-.16a82.55,82.55,0,0,0-25.2-4.16,66.15,66.15,0,0,0-6.66.33l-.42,0-.36.21c-6.55,3.91-11.48,9.44-13.9,15.58l-.13.3c-1.58-.57-3.1-1.18-4.53-1.85l-.91-.43-.86.52a129.48,129.48,0,0,0-14.66,10.6q-1.16.93-2.31,1.83A47.29,47.29,0,0,1,88.4,66.08l.41-.91-.54-.86c-2.2-3.51-3.15-8.58-2.66-14.26l.22-2.54-2.5.54a38.21,38.21,0,0,1-7.9,1,20.34,20.34,0,0,1-4.78-.53A128.61,128.61,0,0,1,81.85,35.7l.44-.45.09-.62c1.14-7.94-.7-14.39-5.17-18.17L76.69,16H75.18a94.55,94.55,0,0,0-26.56,3.54l-1,.29-.29,1c-1,3.36-3.31,7-5.67,10.49L41.2,32a22.74,22.74,0,0,0-4.46-.42,26.61,26.61,0,0,0-4.9.46A83.09,83.09,0,0,1,42.16,27.3L43,27l.29-.82c1.42-3.94,1.2-7.54-.61-9.87l-.74-1-1.18.27-2.41.6q3.29-2.47,6.72-4.71l.84,2.18a56,56,0,0,1,8.93-.75c.68,0,1.36,0,2,0h.25l.25-.05a115.83,115.83,0,0,1,23.14-2.78L83,10.09,82.24,7.7a9.27,9.27,0,0,0-3.08-4.37L78.75,3l-.53-.07a76.86,76.86,0,0,0-9.86-.62c-2.17,0-4.39.08-6.63.25.73-.32,1.46-.63,2.2-.93,1.6-.09,3.22-.13,4.79-.13a69.09,69.09,0,0,1,24.5,4.12l.36.14.39,0c3.78-.13,7.4-.19,10.87-.25,3.15-.05,6.17-.09,9.06-.19l2.36-.09c1.68,3.36,1.8,6.94.13,9.6l-.67,1.07.74,1a25.68,25.68,0,0,1,4.51,13l.16,1.63,1.64.07c8.17.34,16.27,1.22,22.51,2a83.55,83.55,0,0,1-9.66,3.67l-3.31,1.11.66,1.82A36.92,36.92,0,0,0,139.34,51l.46.56.72.11c8.6,1.31,16.6,4,24.34,6.64,1.39.47,2.75.94,4.1,1.38l.65.22.64-.25a18.08,18.08,0,0,0,10.88-13.79l2.93,4.36,1.69-1.75c2.78-3.17,4-8.35,3.71-14.7a78.54,78.54,0,0,1,3.68,15.57l.08.62.44.46c2.31,2.39,5.4,5.25,8.75,6l2.19.52.12-2.25a64.92,64.92,0,0,0-.19-9.5c1.91,2.91,3.69,5.92,5.32,9l-1.85.46c-.08,10.32-2.2,18.85-6.11,24.67l-.18.28-.09.32a52.57,52.57,0,0,1-8.19,18l-.75,1,.67,1.07a29.59,29.59,0,0,0,4.76,6.14l1.33,1.22,1.28-1.27c6.81-6.79,11.76-19,13.57-33.62l0-.13v-.14c-.06-3.33-.29-6.76-.67-10.24q1.08,2.45,2,5a120,120,0,0,1-.63,23.44l1.42.5a28.71,28.71,0,0,1-6.62,8.33l-.32.26-.19.38C204,110.75,196,118,189.37,118ZM177.22,60a21.91,21.91,0,0,1-9.12,4.09l-2.81.66L167,67.08c2.9,3.87,5.41,7.49,7.66,11.07l.24.37.38.23c5.42,3.3,11,6.35,15.5,6.35a8.46,8.46,0,0,0,1.46-.12l1-.16.41-.93c3.06-6.89,4.54-15.32,4.29-24.38l0-.83-.63-.55a39.76,39.76,0,0,1-3.85-3.85L192,52.64l-1.4,1.7a14.83,14.83,0,0,1-11.52,5.27l-1.31,0ZM121.78,37.3c-4.52,0-9.19.2-14.26.63L107,38l-.4.26a74.11,74.11,0,0,0-18.4,16.65l-.5.66.15.82A18.08,18.08,0,0,0,91,63.71l1,1.41,1.48-.91a79.61,79.61,0,0,1,18.92-8.62l.42-.13.32-.29a51.33,51.33,0,0,1,16.59-9.61l1.87-.7-.8-1.83a33.25,33.25,0,0,1-1.53-4.25l-.38-1.31-1.36-.06C125.63,37.34,123.71,37.3,121.78,37.3ZM91,13c-1.25,3.53-3.85,6.83-6.23,9.59l-.62.71.21.93c.9,4.09.31,8.46-.47,12.58l-.45,2.39,2.43-.15c3.37-.22,6.9-.7,10.53-1.22l.49-.07.39-.3a155.05,155.05,0,0,1,14.1-9.37c1.71-1.05,3.35-2.05,4.92-3.05l1.23-.79-.44-1.39a24.65,24.65,0,0,0-6.36-10l-.51-.49-.71,0c-4.78-.24-10.73-.54-16.71-.63l-1.35,0ZM-7.41,114.59c0-1-.09-1.91-.11-2.88.2-.84.41-1.66.62-2.48-.08.58-.15,1.16-.21,1.75l1.41.45C-6.29,112.42-6.85,113.47-7.41,114.59Zm107.25-1c-.38-3-.9-5.92-1.42-8.82l-.15-.85,6.12,1.12.7-.7,3-3c3.56-3.61,7.24-7.34,11.15-10.64l.67-.56c.33,2.67.76,5.37,1.21,8.15l.54,3.4a11.66,11.66,0,0,0-5.4-2.95l-1-.19-.71.7c-1.53,1.5-3.06,3-4.58,4.56-3.08,3.1-6.27,6.3-9.57,9.28ZM3.14,76.62c.47-1.25,1-2.5,1.46-3.76l-.84-.58a35.08,35.08,0,0,1,10-6.94A61.81,61.81,0,0,0,3.14,76.62ZM59,65.45c-.11-1.62-.18-3.31-.21-5.05l0-.88L58.1,59c-.79-.64-1.57-1.32-2.37-2-3-2.55-6.32-5.45-10.61-7.05l-1-.39,6.21-7.75a20.54,20.54,0,0,1,1.13,4.82l.11,1,1,.45a56.36,56.36,0,0,1,6,3.45,49.81,49.81,0,0,0,5.74,3.28l.41.19A109.2,109.2,0,0,0,59,65.45ZM16.48,63.32c6.6-5.36,13.68-8.4,19.7-8.4a15,15,0,0,1,2.26.16l.86.13c-2,2.55-4.07,5.14-6.14,7.71a17.25,17.25,0,0,0-3.41-4.39l-.7-.62-.92.18A31.24,31.24,0,0,0,16.48,63.32ZM151,29.49a16.31,16.31,0,0,0,2.7-11.06c1,1,1.89,2,2.81,3.09l1,1.17,1.35-.79c2.94-1.72,4.63-5.14,4.76-9.17a56.3,56.3,0,0,1,6.75,14.36c-.37-.49-.75-1-1.14-1.46L167.89,24l-1.5,1.53c-1.75,1.78-5,2.64-10,2.64h0c-1.06,0-2.15,0-3.25-.1l-1-.05-.6.84C151.33,29,151.15,29.27,151,29.49Zm-38.65-31A36.9,36.9,0,0,0,105.16-7c.93,0,1.83,0,2.72,0a117.52,117.52,0,0,1,17.28,1.29l.3.21-.89.78c-2.11,1.83-6.18,2.54-9.88,3Z" transform="translate(10.86 10.11)"/><path class="cls-7" d="M116.22,216.69q-5.35-1.8-10.08-3.9a33.43,33.43,0,0,1,6.7-1.9l9.77-2-8.62-5a31.62,31.62,0,0,1-4.35-3h.84c6.86,0,14.9-.15,23.56-1l4.08-.4a19.55,19.55,0,0,0,4.08,2.9,76.7,76.7,0,0,1-9-.69l-.53-.07-.53.08c-2.46.36-5.1.7-8.07,1l-.89,7.3c.45.17.91.33,1.38.49l-1.62-.19-1.08.6A12.89,12.89,0,0,0,116.22,216.69ZM56.36,197.55a65.48,65.48,0,0,1-8.72-13.47c.32.36,4.19,4.57,4.19,4.57l2.68-3.92c1.05-1.52,4.12-2.48,8.5-2.67a19.32,19.32,0,0,0,0,2.74l-.66-.62-2.56,2.2C56.94,188.83,55.73,193,56.36,197.55Zm80.19-7.47a11.54,11.54,0,0,1,.44-1.38,21.14,21.14,0,0,0,1.91,1.11Zm43.55-11.65a7,7,0,0,1,.41-3,9.38,9.38,0,0,0,1.1,2.86c-.48.2-1,.39-1.45.57Zm-85.73-1.12c-.1-.32-.19-.63-.27-.95L93.75,175c1.12,0,2.27,0,3.43,0C96.21,175.81,95.27,176.55,94.37,177.31Zm-64.1-3.78a80.48,80.48,0,0,1-2.78-7.66l1.63-6.14c1-3.76,4.28-5.4,7.23-5.75a22,22,0,0,0-2.5,9l-3.26-4.46-.46,10.79A29.93,29.93,0,0,0,30.27,173.53Zm44.94-1.19c1.21-.6,2.46-1.16,3.69-1.67l.43,2Zm59.23-7.23-3.9-.41a81.63,81.63,0,0,0-8.84-.43h-.52c.7-.58,1.38-1.17,2-1.76l-.22,1.05,5-.42c1.13-.09,2.26-.14,3.35-.14a34,34,0,0,1,5.88.49c-1,1.1-2,2.19-3.06,3.3ZM8.55,163.53a111,111,0,0,1-5-10.21l-.06-.53,5.86-.7a68.56,68.56,0,0,0,.55,9.75Zm157.31-.32a6,6,0,0,1-1.26-1.82l-.86-1.91-2.08-.28a42.44,42.44,0,0,1-11.21-3.59l-.24-.11q3-4.08,5.68-8.44c0,.75,0,4.4,0,4.4l1.85,1.12a26.55,26.55,0,0,0,11.23,4l1.88.2C169.11,159,167.46,161.1,165.86,163.21Zm-87.22-7.44,1,.07-.83.28Zm102.44-11.61a15,15,0,0,0,4.25,3.21,32.47,32.47,0,0,1-8.1,2.75l-1,.19ZM54.39,147.68l1.41-.21.65.79ZM10,143.28a34.22,34.22,0,0,1,3.83-13.08,60.41,60.41,0,0,0-1.38,14.57Zm99.2-1.47c.56-.83,1.08-1.68,1.55-2.54.55.33,1.08.67,1.58,1l.17.13Q110.87,141.15,109.19,141.81ZM126,134.43l2.63-1.8c-.48,1.22-1,2.42-1.55,3.6ZM50.66,132q-2-2.67-4-5.53l-.51-.73-3.22-1.77c-6.68-3.71-13-7.21-19.16-7.21a15,15,0,0,0-3.31.37l-.69.15A34.07,34.07,0,0,1,24,111.17l1.72-2-1.28-2.31A73.11,73.11,0,0,0,19,98.16l-2.28-3-3,2.27c-4.44,3.35-8.33,9.43-11.07,17.08q.45-3.54,1.13-7l.5-2.57a8.59,8.59,0,0,1,2.89-1.68l1.34-.41.75-1.19c3.87-6.13,9.43-10.09,14.16-10.09a6.67,6.67,0,0,1,2.14.33l2.33.79,1.67-1.81c1.16-1.26,2.33-2.49,3.47-3.7.93-1,1.83-1.92,2.72-2.88q.68,2.43,1.47,4.93l.28.84.61.64c5.37,5.5,11.46,11.75,18.82,15.1l1.21.56A20,20,0,0,1,56,111.72l0,.09a66.66,66.66,0,0,1-4.31-6.24l-.39-.63-.6-.44a98.11,98.11,0,0,1-9.39-8.24c-2-2-4-3.8-6-5.51l-2.57-2.16-2.45,2.3c-1.87,1.76-4.05,3.84-6.12,6.2l-1.78,2,1.33,2.33c1.39,2.44,2.73,5,4.15,7.67l.13.25c1,1.91,2,3.85,3.11,5.81l.54,1,1,.53c2.83,1.5,5.66,3.26,8.66,5.12A123.48,123.48,0,0,0,56,130.05l1.32.59,1.38-.45a22.33,22.33,0,0,0,5.86-2.85l2.18-1.52q2.3,1.73,4.74,3.28a42,42,0,0,1-4.39-.87l-1.39-.35-1.27.67C60.82,130.44,56.05,131.22,50.66,132Zm125.62-2.29c-.26-1-.51-2-.77-3l-.77-3-.78-.75c-1.62-1.56-3.2-3.24-4.73-4.86l-.16-.17c-1.66-1.77-3.37-3.6-5.14-5.28l-4.4-4.17-1.18,3.78.47-1.92c.65-2.61,1.25-4.88,1.92-6.85q1.13,2.25,2.11,4.59l.31.75.6.56c1.65,1.53,3.26,3.2,4.81,4.8,3.71,3.85,7.54,7.82,12.22,10.19l-1.24,1.47C178.45,127.09,177.35,128.39,176.28,129.68ZM94.81,127.2c1.19-.64,2.36-1.33,3.51-2.09a25.39,25.39,0,0,1-.46,3.13Zm60.73-6a48.08,48.08,0,0,0-2.33-6.15l-.83-1.77-1.92-.36a18.44,18.44,0,0,0-3.25-.28,26.22,26.22,0,0,0-12.34,3.48,15.89,15.89,0,0,1-.55-3.25l-.15-2.06-1.81-1a18,18,0,0,1-4.27-4,30.64,30.64,0,0,1,9,5.55l1.73,1.59,2.19-.85a15.15,15.15,0,0,1,5.52-1,15.71,15.71,0,0,1,7,1.65l4.07,2-.64,2.06C156.45,118.29,156,119.72,155.54,121.16Zm37.84-6c1.23-1.57,2.45-3.24,3.64-5l1-1.48,1.5,1.37,2.55-2.55c.59-.58,1.16-1.21,1.73-1.87C200.55,110.23,196.85,113.62,193.38,115.19Zm-92.18-5.46c-.19-1.17-.39-2.34-.59-3.51l3.56.65C103.19,107.83,102.2,108.79,101.2,109.73Zm-33.93-12a14.71,14.71,0,0,1-3.4-.39l-.3-.07c.19-.88.36-1.79.54-2.7.23.31.47.62.71.92l1.25,1.58,2-.16c5.33-.43,10.21-3,14-5.57.1,1.33.24,2.64.38,3.91l-1.2-.64-1.92-1.08L77.4,94.7A19.71,19.71,0,0,1,67.27,97.75Zm51.83-.1a10.39,10.39,0,0,0-2.49-.82l-1.15-.23c1-1,2-1.9,3-2.82C118.69,95.08,118.9,96.37,119.1,97.65Zm90-.23a64.93,64.93,0,0,0,4.56-12c-.13,1.61-.3,3.21-.5,4.8l1.27.45A27.15,27.15,0,0,1,209.12,97.42Zm-17.52-.14c-.66-1.25-1.34-2.53-2-3.84l-2-3.85-1.2-.53c-3.74-1.66-7.57-4.33-11.63-7.15-2.84-2-5.75-4-8.91-5.9l4.72-.74q1.34,2,2.55,3.89l.47.75.76.46c6.53,4,11.83,6.62,16.48,6.62a11.23,11.23,0,0,0,1.77-.14l2-.33.83-1.87c3.17-7.14,4.7-15.85,4.44-25.19l0-1.67-.66-.56A12.84,12.84,0,0,0,202,58.29l4,.94c-.57,7.89-2.48,14.42-5.61,19.07l-.37.55-.16.65a50.7,50.7,0,0,1-7.89,17.38ZM150.31,79.63c-.51-.45-1-.89-1.56-1.33.74.23,1.46.47,2.18.73Zm-29.18-.47a29.79,29.79,0,0,1,.26-3c1.09.39,2.18.79,3.28,1.22A39.15,39.15,0,0,0,121.13,79.16Zm-33.4-5.32a42.34,42.34,0,0,1,2.4-7l.3-.67,1,1.46,3-1.81a77.84,77.84,0,0,1,17.9-8.26,31.27,31.27,0,0,0-5.24,7.88c-.93-.37-1.83-.75-2.7-1.16l-1.82-.85-1.72,1A118.45,118.45,0,0,0,87.73,73.84ZM164,63.12q-1.83-2.23-3.59-4.31l8.94,3c-.54.16-1.12.31-1.72.45Zm8.7-2.54a19.63,19.63,0,0,0,9.08-10.31l2.05,3,3.3-3.59a15.88,15.88,0,0,0,3.14-5.82q.6,2.88,1,5.67l.1.86-2.23,2.71a13,13,0,0,1-10.06,4.58h-.53l-1.42-.05-1.1.9A15.89,15.89,0,0,1,172.74,60.58ZM33.33,59.69a17.38,17.38,0,0,0-2-2.23,19.39,19.39,0,0,1,4.25-.64Zm26-2.19c-.77-.63-1.54-1.29-2.32-2a40.32,40.32,0,0,0-9.81-6.82c.76-.94,1.51-1.89,2.26-2.83,0,.31.09.62.13.92l.23,2.1,1.91.9a54.14,54.14,0,0,1,5.81,3.34C59,54.05,60.43,55,62,55.8c-.51.88-1,1.76-1.5,2.66Zm147.34-3c0-.7.06-1.42.07-2.14.35.62.69,1.24,1,1.87ZM87.37,52.92q0-1.32.12-2.7l.44-5.1-5,1.08a35.7,35.7,0,0,1-7.5.91c-.44,0-.86,0-1.28,0,2.28-2.82,4.76-5.63,7.44-8.4l-.5,2.6L86,41c3.44-.22,7-.7,10.67-1.23l1-.14L98.4,39a152.64,152.64,0,0,1,13.93-9.25c1.71-1.05,3.36-2.06,5-3.07l1.15-.73a30.87,30.87,0,0,1,.66,4.12l.32,3.27,3.29.14c5.11.21,10.2.64,14.83,1.11l-6.86,2.31-.35-1.24-2.72-.11c-1.91-.08-3.86-.12-5.82-.12-4.57,0-9.29.21-14.42.64l-1,.08-.8.53A76.53,76.53,0,0,0,87.37,52.92ZM136,49.76q-3.22-.27-6.39-.27c-1.57,0-3.14,0-4.68.16,1.71-.83,3.53-1.6,5.44-2.32l3.28-1.23A38.32,38.32,0,0,0,136,49.76Zm20.38-23.53-1.69,0a18.88,18.88,0,0,0,.73-3l1.68,1.92,2.69-1.58a11.08,11.08,0,0,0,4.67-5.63q1.26,2.31,2.22,4.58l-1.64,1.67c-1.36,1.38-4.27,2.08-8.66,2.08ZM83.1,21.62A16.33,16.33,0,0,0,78.43,15l-1-.88H75.18A96.73,96.73,0,0,0,48.1,17.74l-2,.58-.22.76a9.14,9.14,0,0,0-1.73-3.94l-.39-.5,1.65-1.1.78,2a54.49,54.49,0,0,1,8.63-.72c.65,0,1.3,0,2,0l.5,0,.5-.11a113.69,113.69,0,0,1,22.77-2.73l5-.14L84,7.13a10.48,10.48,0,0,0-1.16-2.47,56.77,56.77,0,0,1,9.66,2.71l.72.28.77,0c3.77-.14,7.38-.19,10.84-.25,3.16,0,6.19-.09,9.09-.2l1.07,0a7.56,7.56,0,0,1-.23,6.65l-.32.51A30.13,30.13,0,0,0,112,11.57l-1-1-1.42-.07c-4.8-.25-10.77-.55-16.78-.64l-2.71,0-.9,2.56c-1.15,3.24-3.62,6.36-5.88,9ZM113-3.49c-.58-.56-1.2-1.11-1.85-1.64,2.83.08,5.66.27,8.48.55a39,39,0,0,1-5.15.9Z" transform="translate(10.86 10.11)"/><circle class="cls-8" cx="83.38" cy="84.13" r="94.24" transform="translate(7.69 175.1) rotate(-88.32)"/><circle class="cls-9" cx="94.24" cy="94.24" r="68.33"/><path class="cls-10" d="M136.15,3.41A101.49,101.49,0,0,1,157.1,21.68c3.22-1.88,4.59-6.61,3.26-11.71a81.26,81.26,0,0,0-8.54-10A116.41,116.41,0,0,0,123-7.52,63.8,63.8,0,0,1,136.15,3.41Z" transform="translate(10.86 10.11)"/><path class="cls-11" d="M183.12,48.21c4-4.59,4.18-13.94,1.26-24.16-1.25-2.61-2.66-5.15-4.15-7.66A117.25,117.25,0,0,0,154.87,1.25c9.68,10.32,15.83,21.55,17.37,31.39C176.28,38,179.8,43.27,183.12,48.21Z" transform="translate(10.86 10.11)"/><path class="cls-12" d="M201.34,55.48a76.82,76.82,0,0,0-1.85-20.09,117.77,117.77,0,0,0-16.64-16.92,89.19,89.19,0,0,1,10.79,31.58C196.25,52.76,198.8,54.88,201.34,55.48Z" transform="translate(10.86 10.11)"/><path class="cls-13" d="M94.12,5.51c7.1-.26,13.64-.22,19.62-.44C110.54-.07,104-4.5,95.62-7.84A116.21,116.21,0,0,0,60,1.81C72.89.48,84.77,1.92,94.12,5.51Z" transform="translate(10.86 10.11)"/><path class="cls-14" d="M117.84,17.28a27.55,27.55,0,0,1,4.78,13.66c7.61.32,15.3,1.11,22.83,2,4.87-3.26,7.21-9.94,4.76-16.71A96.21,96.21,0,0,0,125.53-1.59c-2.3,2-6.21,2.84-10.72,3.39C119.45,6.67,120.52,13,117.84,17.28Z" transform="translate(10.86 10.11)"/><path class="cls-15" d="M134.32,40.6a34.44,34.44,0,0,0,6,10.13c10.17,1.56,19.59,5.09,28.3,8,5.06-2,9.27-7.17,9.84-14.24-3.45-5.26-7.2-10.77-11.63-16.35-3,3-8.56,3.39-14.47,3.05C148.9,36,141.76,38.09,134.32,40.6Z" transform="translate(10.86 10.11)"/><path class="cls-16" d="M215.2,91a65.7,65.7,0,0,0,5.91-13.29,116.09,116.09,0,0,0-5.85-16.4A121.7,121.7,0,0,1,215.2,91Z" transform="translate(10.86 10.11)"/><path class="cls-17" d="M165.35,72.7c-4-5.41-8.12-10.15-11.84-14.54-10.06-3.23-20.64-4.71-30.6-3.69-6.1,3.64-10.69,8.8-12.91,14.42,5.06,1.88,10.64,3.49,16.4,5.77,7.69-2.28,16.94-1.78,25.79,1.61C155.91,74.23,160.55,73.45,165.35,72.7Z" transform="translate(10.86 10.11)"/><path class="cls-18" d="M160.24,78.15a17.45,17.45,0,0,0-9.39,6.29,69.47,69.47,0,0,1,14.56,22.15c5.77,5.36,10.45,11.7,16.6,14.49a113.92,113.92,0,0,0,10.5-13c-3.25-4.18-5.88-9.6-8.9-15.32C176.19,89.48,169.09,82.94,160.24,78.15Z" transform="translate(10.86 10.11)"/><path class="cls-19" d="M177.7,132.17c2,6,5.46,11.21,10.36,12,10.16-5,20.54-16,27.88-31.33a138.49,138.49,0,0,0,4.33-29c-2.94,7.47-6.55,13.6-10.87,17.06-5.69,11.63-14.24,18.95-21.43,18.88C184.51,124.18,181,128.17,177.7,132.17Z" transform="translate(10.86 10.11)"/><path class="cls-20" d="M216.23,121.23a101.9,101.9,0,0,0,9-14.6,118.14,118.14,0,0,0-1.87-18.94c-.6,3-1.31,5.9-2.18,8.85A163.81,163.81,0,0,1,216.23,121.23Z" transform="translate(10.86 10.11)"/><path class="cls-21" d="M42.55,26.85c1.07-3,1.18-6-.32-7.94a79.68,79.68,0,0,0-15.57,5.47,117.69,117.69,0,0,0-22,29c.92-.82,1.83-1.66,2.78-2.44A94.65,94.65,0,0,1,42.55,26.85Z" transform="translate(10.86 10.11)"/><path class="cls-22" d="M65.72,54A120.7,120.7,0,0,1,81,35.55c.86-6,0-12.41-4.45-16.2a91.68,91.68,0,0,0-26.42,3.42c-1,3.46-3.24,7-5.83,10.84,5.87,1.39,9.21,7.31,9.92,13.77C58.51,49.42,62,52.28,65.72,54Z" transform="translate(10.86 10.11)"/><path class="cls-23" d="M70.66,51.2A103.94,103.94,0,0,0,59.64,71c1.12,8.52,4.08,16.45,8.78,22.4,5-.41,9.85-3.2,14.41-6.63A51.67,51.67,0,0,1,87,66c-2.55-4.06-3.39-9.51-2.9-15.18C79.19,51.89,74.63,52.19,70.66,51.2Z" transform="translate(10.86 10.11)"/><path class="cls-24" d="M102.9,68.37c-6.38,3.81-11.71,8.32-16.8,12.34A84.19,84.19,0,0,0,87,99.24c5.48,1.85,11.16,2.78,16.78,3.81,4.6-4.59,9.06-9.34,14-13.54-.73-5.41-1.12-10.83.12-15.88C112.55,71.92,107.39,70.47,102.9,68.37Z" transform="translate(10.86 10.11)"/><path class="cls-25" d="M158.9,96.58a63.52,63.52,0,0,0-17.08-17.92A32.46,32.46,0,0,0,121,83.94a149.91,149.91,0,0,0,2.1,16.45c5.64,1.55,11.36,4,16,8.23a19,19,0,0,1,15.31.74C155.62,104.43,156.87,100,158.9,96.58Z" transform="translate(10.86 10.11)"/><path class="cls-26" d="M205.59,133.84c-9.24,11.12-19.84,17.62-28.78,19.28-3.5,4.48-6.92,8.82-10.11,13.08,5.83,3.12,15.59,1.58,25.57-3.6,12.65-9.46,23.89-23.09,32-39,.17-1.88.39-3.91.63-6,.22-2.91.36-5.84.36-8.8v-.22C219.73,118.88,213.11,127.94,205.59,133.84Z" transform="translate(10.86 10.11)"/><path class="cls-27" d="M14.92,64.18C23.66,56.39,33,53.08,39.82,54.1q5.32-6.66,10.73-13.4c-2.66-4.91-10-7.25-18.18-5.39-11.81,6.1-23.66,16.32-33.24,30q-.87,2.18-1.67,4.39c-1.07,4.22-2.31,8.86-3.48,14C.36,74.29,7.67,67.12,14.92,64.18Z" transform="translate(10.86 10.11)"/><path class="cls-28" d="M59.27,102.44c1.33-4.63,2.13-10,3.36-15.84C59.12,78.94,57.87,70,57.72,61.21c-3.67-3-7.27-6.76-12.25-8.62C42,57,38.6,61.36,35.18,65.57c2.61,6.5,4,14.49,6.69,22.79C47.28,93.92,52.8,99.49,59.27,102.44Z" transform="translate(10.86 10.11)"/><path class="cls-29" d="M78.05,128a38,38,0,0,0,20.63-7.8,118.12,118.12,0,0,0-2.2-16.56c-5.65-1.15-11.43-2.59-16.66-5.53-4.77,2.91-10.53,4.36-16.09,3.07C63,106,62,110.3,60,113.63A67,67,0,0,0,78.05,128Z" transform="translate(10.86 10.11)"/><path class="cls-30" d="M114.43,136.8c6.41-3.62,11.8-7.75,17-11.12,1.4-6.86-.76-6.42-1.22-12.64-5.17-2.79-8.82-11.26-14.44-12.36-4.63,4.53-9.11,9.26-14,13.67.72,5.51,1,11.17-.65,16.45C106.12,132.43,110.77,134.15,114.43,136.8Z" transform="translate(10.86 10.11)"/><path class="cls-31" d="M140.87,159.74a124.14,124.14,0,0,0,13-18.35c0-8.72-1.26-17.47-4.71-24.91-4.56-.83-9.46.73-14,3.35a55.24,55.24,0,0,1-7.27,21.84c1.32,5.08.73,11-.49,16.91A37.7,37.7,0,0,1,140.87,159.74Z" transform="translate(10.86 10.11)"/><path class="cls-32" d="M160.31,162.09c-5.56-.76-10-3-14.13-4.71-4.64,5.84-9.78,11.2-14.76,16.34.6,5.53,5.24,10.94,12.62,13.05a97.9,97.9,0,0,0,31.24-8.88c-.4-2.6.72-5.75,2.38-9.09C169.61,170.15,162.62,167.22,160.31,162.09Z" transform="translate(10.86 10.11)"/><path class="cls-33" d="M182.89,172.45a5.68,5.68,0,0,0,3.74,5.35c9.85-4.57,18.78-11,26.92-17.82a117.09,117.09,0,0,0,9.13-26.52c-1.67,2.18-3.4,4.35-5.29,6.49A110.46,110.46,0,0,1,182.89,172.45Z" transform="translate(10.86 10.11)"/><path class="cls-34" d="M4.52,72.74A72.32,72.32,0,0,0-7.24,87.34a118.1,118.1,0,0,0-2,21.42c0,3,.15,5.92.37,8.84A103.61,103.61,0,0,1-3.08,97.26,149,149,0,0,1,4.52,72.74Z" transform="translate(10.86 10.11)"/><path class="cls-35" d="M7.66,99.76c5.7-9,14.24-13.24,20.39-11.15,3.3-3.58,6.58-6.84,9.52-10.31-2-7.28-3.8-14-7.82-17.58-8.57,1.67-18.5,9.41-26.36,21.75a127.69,127.69,0,0,0-6.83,28.69C-.23,105.31,3.65,101,7.66,99.76Z" transform="translate(10.86 10.11)"/><path class="cls-36" d="M92.85,151.12c6.83-3.86,12.25-9.25,15.19-15.28-4.39-2.2-9.51-3.76-14.92-5.65a43.47,43.47,0,0,1-26.24,1.35c-4.28,2.22-9.56,3-15,3.77,3.87,4.82,7.62,9.09,10.84,13.16A82.9,82.9,0,0,0,92.85,151.12Z" transform="translate(10.86 10.11)"/><path class="cls-37" d="M105.25,170.26c7.49-4.82,15-10.39,21.19-17.31.57-5.43-.09-10.67-2.46-14.63a98.35,98.35,0,0,1-21.6,9.14c-6.14,5.32-14.07,8.85-22.15,11.52,1.46,3.32,2.13,7,3,10.81C90.89,170.34,98.29,170.38,105.25,170.26Z" transform="translate(10.86 10.11)"/><path class="cls-38" d="M129.79,167.51a107,107,0,0,0-16.32-.17c-7,5.11-13.9,9-18.64,13.73,2.46,5.24,7.69,10.66,15.59,14.66,7,0,14.64-.17,22.85-1-2-3.13-1.16-7.46,1-11.25C129.83,179.68,129,173.38,129.79,167.51Z" transform="translate(10.86 10.11)"/><path class="cls-39" d="M168.51,184.67A114.33,114.33,0,0,1,138,192.31c1.36,3.48,5.83,6.23,11.6,7.66,15.75-1,31.9-6.36,46.57-13.92a117.48,117.48,0,0,0,15.42-22.32c-.49,0-1,.05-1.47,0C197.21,174,182.65,181.79,168.51,184.67Z" transform="translate(10.86 10.11)"/><path class="cls-40" d="M1.76,106.78c-4,4.24-7.13,10.78-9.63,18.42,0,.27,0,.53-.09.8a116.52,116.52,0,0,0,10.3,33.61A110,110,0,0,1,.87,143.79,113.28,113.28,0,0,1,1.76,106.78Z" transform="translate(10.86 10.11)"/><path class="cls-41" d="M55.87,143.21c-3.59-4.54-7.48-9.45-11.28-14.93-8.17-4.46-15.61-9.12-21.9-7.68-3.6,6.4-5.65,15.68-4.87,26.71a108.21,108.21,0,0,1,9,10.66c1.57-5.91,7.36-9,13.3-8.42C43.66,145.39,49.8,144.13,55.87,143.21Z" transform="translate(10.86 10.11)"/><path class="cls-42" d="M74.91,155.26c-9.82-1.27-19-4.2-27.57-6.54-5.08,2.28-8.86,8.14-8.63,15.54A162,162,0,0,0,52.3,181.43c2.15-3.14,7-4.16,12.15-4.27,1.61-5.4,8-8.72,14.88-11.47A37.35,37.35,0,0,0,74.91,155.26Z" transform="translate(10.86 10.11)"/><path class="cls-43" d="M100.56,190.84a28.58,28.58,0,0,1-9.84-14.61c-7-.42-14-1.1-20.76-1.64-3.7,4.18-3.38,11.86,1.18,18.84a99.66,99.66,0,0,0,30.58,16.19c2.12-2,5.85-3.1,10.31-4C104.93,201.5,100.3,195.84,100.56,190.84Z" transform="translate(10.86 10.11)"/><path class="cls-44" d="M9.16,171.78A118.8,118.8,0,0,0,19.85,186a130.86,130.86,0,0,1-8.46-18.92A15.73,15.73,0,0,0,9.16,171.78Z" transform="translate(10.86 10.11)"/><path class="cls-45" d="M23,156.81c-2.89-3.33-5.58-6.13-8.32-7.8-.85,12.72,3.09,27.33,9.19,41.38a117.53,117.53,0,0,0,27.47,21,144.31,144.31,0,0,1-9.41-14C31.78,184.36,25.19,170,23,156.81Z" transform="translate(10.86 10.11)"/><path class="cls-46" d="M89.17,205.61A100.85,100.85,0,0,1,63,188c-2.53,2.16-3,6.68-1.17,11.34,10.31,11.2,24.29,19.8,38.45,26.42,2.57.17,5.15.29,7.77.29a118.07,118.07,0,0,0,19.85-1.71A16.39,16.39,0,0,1,127,222C113,218.56,99.46,213.35,89.17,205.61Z" transform="translate(10.86 10.11)"/><path class="cls-47" d="M123.47,212.57c-2.68,1.5-4.47,3.66-4.4,5.85a171,171,0,0,0,17.78,4,116.91,116.91,0,0,0,29.87-12.17C152.59,213.21,137.75,214.33,123.47,212.57Z" transform="translate(10.86 10.11)"/><path class="cls-48" d="M189.49,83.62c-4,0-9.41-3-14.29-6-2.25-3.58-4.74-7.17-7.62-11a23.57,23.57,0,0,0,9.71-4.39l.66,0a16.42,16.42,0,0,0,12.77-5.87,41.07,41.07,0,0,0,4,4c.24,8.58-1.18,16.7-4.06,23.18A6.72,6.72,0,0,1,189.49,83.62Z" transform="translate(10.86 10.11)"/><path class="cls-49" d="M197.94,104.91a27.69,27.69,0,0,1-4.36-5.65,53.2,53.2,0,0,0,8.36-18.4c4.08-6.06,6.25-14.9,6.33-25.31.41.76.8,1.52,1.18,2.28a117.53,117.53,0,0,1,1.32,15.08C209,86.88,204.3,98.56,197.94,104.91Z" transform="translate(10.86 10.11)"/><path class="cls-50" d="M46.58,13.36A115.19,115.19,0,0,1,58.9,6.45,87.43,87.43,0,0,1,69,5.85a72.45,72.45,0,0,1,9.46.6,7.39,7.39,0,0,1,2.43,3.42,115.74,115.74,0,0,0-23.14,2.78c-.69,0-1.38-.05-2.08-.05A57.73,57.73,0,0,0,46.58,13.36Z" transform="translate(10.86 10.11)"/><path class="cls-51" d="M86.06,38.33c.84-4.43,1.39-8.9.45-13.13,2.7-3.13,5.2-6.44,6.47-10,5.66.09,11.1.36,16.38.62a22.3,22.3,0,0,1,5.77,9c-1.54,1-3.14,2-4.81,3a156,156,0,0,0-14,9.34C92.83,37.64,89.32,38.13,86.06,38.33Z" transform="translate(10.86 10.11)"/><path class="cls-52" d="M92.74,63.34A15.86,15.86,0,0,1,90,56.86a70.74,70.74,0,0,1,17.64-16c4.94-.41,9.49-.61,13.88-.61,1.88,0,3.74,0,5.57.11a35.37,35.37,0,0,0,1.59,4.42,52.18,52.18,0,0,0-16.93,9.82A81.1,81.1,0,0,0,92.74,63.34Z" transform="translate(10.86 10.11)"/><path class="cls-53" d="M168.33,152.16a22.77,22.77,0,0,1-9.5-3.46c.08-7.65.14-15.56-1.53-23.48.88-2.57,1.64-5,2.37-7.41.28-.88.54-1.74.81-2.58,1.65,1.56,3.26,3.27,4.91,5s3.23,3.43,5,5.08c.16.65.33,1.29.49,1.92,1.41,5.59,2.76,10.92,5.3,15.13l-5.92,7.42Z" transform="translate(10.86 10.11)"/><path class="cls-54" d="M58.37,126.32a118.31,118.31,0,0,1-14-7.83c-3-1.88-5.89-3.65-8.81-5.2-1.07-2-2.1-3.9-3.11-5.81-1.42-2.69-2.78-5.27-4.18-7.75,1.88-2.14,3.84-4,5.77-5.84,1.9,1.6,3.78,3.39,5.73,5.26a96.08,96.08,0,0,0,9.61,8.41A71.38,71.38,0,0,0,63.16,124,18.23,18.23,0,0,1,58.37,126.32Z" transform="translate(10.86 10.11)"/><path class="cls-55" d="M7.51,151.48a111.14,111.14,0,0,1-2.39-25.77c2.17-11.58,6.84-21,12.31-25.13a66.86,66.86,0,0,1,5,8.13A41,41,0,0,0,14.12,125C9.46,130.78,7.16,140.12,7.51,151.48Z" transform="translate(10.86 10.11)"/><path class="cls-56" d="M140.23,208.93a81.08,81.08,0,0,1-16-4c2.58-.29,5.28-.63,8.05-1a84.1,84.1,0,0,0,11.15.73,109.28,109.28,0,0,0,33.24-5.53,112,112,0,0,1-9.23,6.35A136.7,136.7,0,0,1,140.23,208.93Z" transform="translate(10.86 10.11)"/><path class="cls-57" d="M71,216.05q-3.2-1.11-6.29-2.38c-12.07-10.36-21.31-21.24-27.46-32.35a37.51,37.51,0,0,1-2.15-12.77c2.28,3.12,4.89,6.53,7.79,10,3.6,11.18,12.25,22.82,24.46,32.89C68.46,213,69.69,214.54,71,216.05Z" transform="translate(10.86 10.11)"/><path class="cls-58" d="M221.11,103.89A51.94,51.94,0,1,1,169.17,52,51.94,51.94,0,0,1,221.11,103.89Z" transform="translate(10.86 10.11)"/><path class="cls-59" d="M92.54,147.87A40.86,40.86,0,1,1,51.68,107,40.86,40.86,0,0,1,92.54,147.87Z" transform="translate(10.86 10.11)"/><path class="cls-60" d="M155.71,14.1A104.85,104.85,0,0,0,137.5-1.19c-.42-.46-.86-.92-1.31-1.38a110.92,110.92,0,0,1,12.36,4.06,78.28,78.28,0,0,1,7.17,8.38A9.66,9.66,0,0,1,155.71,14.1Z" transform="translate(10.86 10.11)"/><path class="cls-61" d="M181.24,38.66c-2.06-3-4.22-6.1-6.57-9.25A54.86,54.86,0,0,0,167.26,11q4.62,2.89,9,6.25c1.42,2.43,2.54,4.5,3.48,6.46C181.3,29.42,181.81,34.71,181.24,38.66Z" transform="translate(10.86 10.11)"/><path class="cls-62" d="M196.08,46.6a84.3,84.3,0,0,0-3.16-13.53c.65.75,1.29,1.52,1.92,2.29a80.76,80.76,0,0,1,1.56,11.55Z" transform="translate(10.86 10.11)"/><path class="cls-63" d="M93.61,0A66.21,66.21,0,0,0,80.36-3.28,111.36,111.36,0,0,1,94-5.68a47.91,47.91,0,0,1,10,5.47h-.25C100.46-.16,97.1-.11,93.61,0Z" transform="translate(10.86 10.11)"/><path class="cls-64" d="M143.23,27.32C138,26.7,131.48,26,124.8,25.62A30.5,30.5,0,0,0,121,15.31a16,16,0,0,0-.92-12.5,19.85,19.85,0,0,0,4.52-1.71,91.94,91.94,0,0,1,21.13,15.49A10.47,10.47,0,0,1,143.23,27.32Z" transform="translate(10.86 10.11)"/><path class="cls-65" d="M164.63,52.07c-7.07-2.39-15-5.09-23.43-6.53a32.83,32.83,0,0,1-2.86-4.39c5.72-2,11-4,14.56-7.83l1.59,0c3,0,7-.23,10.34-1.83,3.23,4.26,6.08,8.45,8.54,12.17a12.78,12.78,0,0,1-6.15,9.26Z" transform="translate(10.86 10.11)"/><path class="cls-66" d="M214.06,89.27A65.15,65.15,0,0,0,220,76a116.09,116.09,0,0,0-5.85-16.4A121.21,121.21,0,0,1,214.06,89.27Z" transform="translate(10.86 10.11)"/><path class="cls-67" d="M150.83,70.46a48.26,48.26,0,0,0-15.53-2.67A39.81,39.81,0,0,0,125.47,69c-3-1.14-5.88-2.11-8.69-3l-2.6-.87A28,28,0,0,1,123,56.45c1.68-.15,3.41-.22,5.15-.22a75.18,75.18,0,0,1,22,3.5l.6.71c2.17,2.56,4.39,5.16,6.62,7.94A33.44,33.44,0,0,0,150.83,70.46Z" transform="translate(10.86 10.11)"/><path class="cls-68" d="M180.07,114.61a53.52,53.52,0,0,1-8.2-7.47c-1.42-1.47-2.88-3-4.43-4.46a74.65,74.65,0,0,0-12.56-20,15.3,15.3,0,0,1,3.85-2.16c3.35,1.92,6.48,4.11,9.52,6.22A89.15,89.15,0,0,0,179.72,94l.79,1.49a109.6,109.6,0,0,0,6.24,11C184.58,109.43,182.31,112.08,180.07,114.61Z" transform="translate(10.86 10.11)"/><path class="cls-69" d="M186.5,138.44c-2.1-.9-4.08-3.44-5.63-7.24l2.15-2.56c1.88-2.23,3.81-4.52,5.75-6.94,8.17-1.08,16.74-8.72,22.53-20.14a27.06,27.06,0,0,0,2.17-2.13q-.91,5.22-2.24,10.41C204.86,123,195.92,133.29,186.5,138.44Z" transform="translate(10.86 10.11)"/><path class="cls-70" d="M215.09,119.53a101,101,0,0,0,9-14.6A117,117,0,0,0,222.24,86c-.6,2.94-1.31,5.9-2.17,8.85A164,164,0,0,1,215.09,119.53Z" transform="translate(10.86 10.11)"/><path class="cls-71" d="M23.85,29.77q1.88-2,3.84-3.93a80,80,0,0,1,10.69-4c0,.16-.05.33-.08.5A91.18,91.18,0,0,0,23.85,29.77Z" transform="translate(10.86 10.11)"/><path class="cls-72" d="M63.39,47.36c-.73-.43-1.47-.9-2.22-1.38-1.49-.93-3-1.9-4.68-2.79-1.08-5.72-3.87-10.28-7.8-12.9a39.33,39.33,0,0,0,3.17-6.11,86.84,86.84,0,0,1,22-2.75c2.57,3,2.7,7.53,2.39,10.68A126.13,126.13,0,0,0,63.39,47.36Z" transform="translate(10.86 10.11)"/><path class="cls-73" d="M69,87.63a43.71,43.71,0,0,1-6.58-17.79,101.59,101.59,0,0,1,8.85-16.18,27.62,27.62,0,0,0,3.58.23,35.6,35.6,0,0,0,4.27-.27,26.85,26.85,0,0,0,2.6,10.92A54.89,54.89,0,0,0,78,83.14,26.42,26.42,0,0,1,69,87.63Z" transform="translate(10.86 10.11)"/><path class="cls-74" d="M101.41,97.28c-4-.73-8.14-1.49-12.07-2.62a79.18,79.18,0,0,1-.72-13.73l1.29-1a136.33,136.33,0,0,1,12.14-9c3.3,1.38,6.81,2.48,10.49,3.62a49.77,49.77,0,0,0,.18,11.73c-3.45,3-6.67,6.3-9.8,9.47Z" transform="translate(10.86 10.11)"/><path class="cls-75" d="M138.8,102.66a41.47,41.47,0,0,0-13.48-6.92c-.63-4-1.24-7.76-1.54-11.45a28.55,28.55,0,0,1,13.91-3.7c.55,0,1.1,0,1.65,0a60.26,60.26,0,0,1,14,14.46,47.35,47.35,0,0,0-2.71,7.56,22.69,22.69,0,0,0-11.87,0Z" transform="translate(10.86 10.11)"/><path class="cls-76" d="M172.92,162.33l-.94,0c1.54-2,3.12-4,4.75-6.1l1.07-1.38c9.94-2.31,20.52-9.51,29.3-20a65.53,65.53,0,0,0,11-11.48c-7.65,13.94-17.61,25.75-29,34.31-5.85,3-11.59,4.64-16.2,4.64Z" transform="translate(10.86 10.11)"/><path class="cls-77" d="M1.34,65.42C9.94,53.26,21,43.26,32.53,37.2a20.52,20.52,0,0,1,4.21-.45A12.67,12.67,0,0,1,44.56,39L37,48.46l-.82,0c-7.67,0-16.55,3.93-24.43,10.79A39.9,39.9,0,0,0,.87,66.62C1,66.22,1.18,65.82,1.34,65.42Z" transform="translate(10.86 10.11)"/><path class="cls-78" d="M55.65,95c-4.16-2.81-8-6.71-11.59-10.33-1-3.17-1.81-6.31-2.6-9.36-1-3.78-1.93-7.38-3.11-10.75,2.39-3,4.79-6,7.11-9a41.22,41.22,0,0,1,6.28,4.78l1.11,1c.32,9.46,1.86,17.34,4.7,24-.31,1.54-.6,3-.88,4.51C56.33,91.61,56,93.35,55.65,95Z" transform="translate(10.86 10.11)"/><path class="cls-79" d="M77.79,122.44A63.49,63.49,0,0,1,63.4,111.32a36.55,36.55,0,0,0,2.3-7.62l1.08,0a26.28,26.28,0,0,0,12-3,59.5,59.5,0,0,0,13.33,4.4,110.86,110.86,0,0,1,1.6,11.5A33.93,33.93,0,0,1,77.79,122.44Z" transform="translate(10.86 10.11)"/><path class="cls-80" d="M113.42,130.66a50,50,0,0,0-9-4,45.41,45.41,0,0,0,.17-12.5c2.84-2.63,5.55-5.36,8.19-8l2.69-2.7A27.79,27.79,0,0,1,120,108a35.4,35.4,0,0,0,5.48,5.53,23.62,23.62,0,0,0,1,4,7.62,7.62,0,0,1,.38,4.16c-1.34.9-2.7,1.84-4.1,2.8C119.78,126.56,116.72,128.67,113.42,130.66Z" transform="translate(10.86 10.11)"/><path class="cls-81" d="M138.35,153.81a40.41,40.41,0,0,0-7.56-.85,37.81,37.81,0,0,0,0-12.38,58.42,58.42,0,0,0,6.75-20.05,18.15,18.15,0,0,1,7.88-2.19c2.21,5.59,3.38,12.42,3.51,20.34A121.59,121.59,0,0,1,138.35,153.81Z" transform="translate(10.86 10.11)"/><path class="cls-82" d="M143.25,181.23c-5-1.63-7.87-4.94-8.86-8,4.22-4.38,8.11-8.5,11.79-12.94a50.82,50.82,0,0,0,10.58,3.55c2.78,4.2,7.92,6.89,14.09,7.32a17.06,17.06,0,0,0-.5,2.64A94.77,94.77,0,0,1,143.25,181.23Z" transform="translate(10.86 10.11)"/><path class="cls-83" d="M193.41,167.54A114.18,114.18,0,0,0,212,150q-1.22,3-2.6,5.88A134.62,134.62,0,0,1,193.41,167.54Z" transform="translate(10.86 10.11)"/><path class="cls-84" d="M3.38,71A72.29,72.29,0,0,0-8.37,85.64a117.22,117.22,0,0,0-2,21.42c0,3,.15,5.92.37,8.84A103.61,103.61,0,0,1-4.21,95.56,149.93,149.93,0,0,1,3.38,71Z" transform="translate(10.86 10.11)"/><path class="cls-85" d="M1.56,96.32A129.84,129.84,0,0,1,5.67,82.45C12,72.68,20.09,65.53,27.35,63.24c2.12,2.86,3.5,7.48,4.9,12.42-1.46,1.64-3,3.27-4.61,5-.66.7-1.34,1.41-2,2.13a14.89,14.89,0,0,0-2-.14c-6.95,0-14.36,4.7-19.56,12.34A16,16,0,0,0,1.56,96.32Z" transform="translate(10.86 10.11)"/><path class="cls-86" d="M84,146.05a82.69,82.69,0,0,1-20.23-2.62c-1.44-1.8-3-3.64-4.58-5.54-.43-.53-.87-1-1.32-1.58a37.62,37.62,0,0,0,8.32-2.49A49.89,49.89,0,0,0,77,135,45.56,45.56,0,0,0,92,132.5l2.07.71c2.59.88,5.09,1.73,7.4,2.66a35,35,0,0,1-11,9.87C88.4,146,86.2,146.05,84,146.05Z" transform="translate(10.86 10.11)"/><path class="cls-87" d="M98,164.83c-4.62,0-8.85-.1-12.85-.33-.35-1.63-.73-3.28-1.21-4.91,8-3,14.19-6.31,19.12-10.4A94.09,94.09,0,0,0,121,141.87a23.35,23.35,0,0,1,.66,7.78C117,154.74,111,159.59,103,164.8,101.34,164.82,99.68,164.83,98,164.83Z" transform="translate(10.86 10.11)"/><path class="cls-88" d="M110.2,190.24a32,32,0,0,1-11.75-10.11,110,110,0,0,1,9-6.49c2-1.35,4.1-2.76,6.22-4.28,2.54-.11,4.69-.16,6.69-.16,1.51,0,2.92,0,4.25.09-.08,5.28,1.3,9.82,4,13.21a16.41,16.41,0,0,0-1.35,7.17C121.11,190.11,115.33,190.21,110.2,190.24Z" transform="translate(10.86 10.11)"/><path class="cls-89" d="M148.85,194.46a24.79,24.79,0,0,1-3.56-1.24,114.78,114.78,0,0,0,23.18-6.62,94.8,94.8,0,0,0,29.95-12.47q-2.71,3.69-5.73,7.18C177.68,189,162.55,193.51,148.85,194.46Z" transform="translate(10.86 10.11)"/><path class="cls-90" d="M-5.27,124.26c0-.14.09-.27.13-.41,0,.39,0,.79,0,1.18Z" transform="translate(10.86 10.11)"/><path class="cls-91" d="M25.09,149.44c-1.62-2-3.15-3.83-4.71-5.46-.41-8.25.86-15.79,3.61-21.57h0c4.12,0,9.51,3,15.23,6.15l1.64.91c2.35,3.35,4.76,6.53,7.06,9.49a23.68,23.68,0,0,0-10.5,5A16.33,16.33,0,0,0,25.09,149.44Z" transform="translate(10.86 10.11)"/><path class="cls-92" d="M51.47,174.39a161.62,161.62,0,0,1-10.12-13c.16-4.47,2.14-8.33,5.29-10.3l3.06.86a173.58,173.58,0,0,0,21.76,5.13,30.8,30.8,0,0,1,2.11,4.79c-5.26,2.34-10.3,5.39-12.8,10A21,21,0,0,0,51.47,174.39Z" transform="translate(10.86 10.11)"/><path class="cls-93" d="M99.91,203.7a94.69,94.69,0,0,1-27.07-14.56c-3-4.87-3.33-9.49-2.09-12.3l4.67.39c3.71.32,7.53.64,11.36.9a33.14,33.14,0,0,0,8.94,12.81c.46,3.91,2.81,7.89,6.7,11.47A16.46,16.46,0,0,0,99.91,203.7Z" transform="translate(10.86 10.11)"/><path class="cls-94" d="M8,170.07a118.12,118.12,0,0,0,10.69,14.24,129.78,129.78,0,0,1-8.46-18.92A15.54,15.54,0,0,0,8,170.07Z" transform="translate(10.86 10.11)"/><path class="cls-95" d="M36.13,195.75A114.83,114.83,0,0,1,26,186.55c-4.82-11.23-7.69-21.69-8.49-30.74.3.32.59.65.89,1C20.68,169.67,26.94,183.37,36.13,195.75Z" transform="translate(10.86 10.11)"/><path class="cls-96" d="M106.91,220.55c-2.07,0-4.25-.07-6.82-.23C84.7,213.05,72.56,204.74,64,195.61a12,12,0,0,1-.59-2.93,104.15,104.15,0,0,0,22.69,14.48c7.09,5.26,16,9.69,26.52,13.24C110.69,220.5,108.79,220.55,106.91,220.55Z" transform="translate(10.86 10.11)"/><path class="cls-97" d="M135.59,216.88c-2.67-.5-5.65-1.07-8.75-1.76,3.12.24,6.32.36,9.54.36,1.44,0,2.88,0,4.34-.07Q138.17,216.21,135.59,216.88Z" transform="translate(10.86 10.11)"/><path class="cls-98" d="M187,78c-3.17-.68-7.63-3.26-10.18-4.8-1.31-2.05-2.7-4.11-4.19-6.22a24.46,24.46,0,0,0,4.83-2.63,20.43,20.43,0,0,0,12.05-4.28l.32.3A52.2,52.2,0,0,1,187,78Z" transform="translate(10.86 10.11)"/><path class="cls-99" d="M196.8,103.2a27.15,27.15,0,0,1-4.36-5.65,53.27,53.27,0,0,0,8.37-18.39c4.07-6.06,6.24-14.9,6.33-25.31.4.76.79,1.52,1.18,2.28a119.29,119.29,0,0,1,1.31,15.08C207.89,85.18,203.17,96.86,196.8,103.2Z" transform="translate(10.86 10.11)"/><path class="cls-100" d="M45.44,11.66A115.33,115.33,0,0,1,57.77,4.75a87.43,87.43,0,0,1,10.09-.6,72.29,72.29,0,0,1,9.45.6,7.32,7.32,0,0,1,2.43,3.42A115.64,115.64,0,0,0,56.61,11c-.69,0-1.38,0-2.08,0A57.85,57.85,0,0,0,45.44,11.66Z" transform="translate(10.86 10.11)"/><path class="cls-101" d="M89.4,32.41a32,32,0,0,0,0-7.82,38.31,38.31,0,0,0,4.92-7.29c4.3.1,8.44.3,12.23.49a19.06,19.06,0,0,1,2.72,3.84c-.67.42-1.36.84-2.06,1.26-4.43,2.71-9,5.52-13.57,9C92.21,32.05,90.79,32.24,89.4,32.41Z" transform="translate(10.86 10.11)"/><path class="cls-102" d="M93,56.06A67.89,67.89,0,0,1,107.83,42.9c4.23-.34,8.16-.51,12-.52a51.5,51.5,0,0,0-11,7.19,81.49,81.49,0,0,0-15.66,6.81C93.08,56.28,93,56.17,93,56.06Z" transform="translate(10.86 10.11)"/><path class="cls-103" d="M165.63,146.37a18.82,18.82,0,0,1-4.14-1.57,105.34,105.34,0,0,0-1.42-21c.35-1,.68-2.06,1-3.07l.43.46c1.42,1.51,2.83,3,4.31,4.47l.22.88c1.25,4.93,2.44,9.64,4.45,13.8Z" transform="translate(10.86 10.11)"/><path class="cls-104" d="M52.31,117.86c-2.43-1.37-4.8-2.84-7.13-4.28-2.75-1.71-5.35-3.32-8-4.79q-1.26-2.34-2.47-4.64l-.14-.25c-1-1.83-1.9-3.59-2.84-5.32.42-.43.83-.85,1.25-1.26l3,2.86a105.19,105.19,0,0,0,9.38,8.28A74,74,0,0,0,52.31,117.86Z" transform="translate(10.86 10.11)"/><path class="cls-105" d="M7.8,124.2c1.57-8.09,4.46-15.1,7.9-19.43.37.61.74,1.24,1.1,1.86a45.14,45.14,0,0,0-7.25,15A25.4,25.4,0,0,0,7.8,124.2Z" transform="translate(10.86 10.11)"/><path class="cls-106" d="M139.1,207.23a81.19,81.19,0,0,1-16-4c2.58-.29,5.29-.63,8.06-1a84,84,0,0,0,11.14.73,109.23,109.23,0,0,0,33.24-5.53,110.3,110.3,0,0,1-9.23,6.35A137.34,137.34,0,0,1,139.1,207.23Z" transform="translate(10.86 10.11)"/><path class="cls-107" d="M69.84,214.35c-2.12-.74-4.22-1.53-6.28-2.38-12.07-10.36-21.31-21.24-27.46-32.35A37.3,37.3,0,0,1,34,166.85c2.28,3.12,4.89,6.53,7.79,10C45.34,188,54,199.65,66.2,209.73,67.33,211.3,68.56,212.84,69.84,214.35Z" transform="translate(10.86 10.11)"/><path class="cls-108" d="M154.21,11.83A104.85,104.85,0,0,0,136-3.45c-.43-.47-.86-.93-1.32-1.39A114,114,0,0,1,147-.77a78.37,78.37,0,0,1,7.18,8.37A9.65,9.65,0,0,1,154.21,11.83Z" transform="translate(10.86 10.11)"/><path class="cls-109" d="M179.73,36.39c-2.06-3-4.21-6.09-6.56-9.25a55.07,55.07,0,0,0-7.41-18.43c3.07,1.94,6.06,4,8.94,6.25,1.42,2.43,2.54,4.5,3.49,6.46C179.79,27.16,180.3,32.44,179.73,36.39Z" transform="translate(10.86 10.11)"/><path class="cls-110" d="M194.57,44.33a82.21,82.21,0,0,0-3.16-13.53c.65.76,1.29,1.52,1.92,2.3a80.57,80.57,0,0,1,1.56,11.55Z" transform="translate(10.86 10.11)"/><path class="cls-111" d="M92.1-2.26A66.38,66.38,0,0,0,78.85-5.55a111.36,111.36,0,0,1,13.59-2.4,47.56,47.56,0,0,1,10,5.47h-.25C99-2.43,95.59-2.37,92.1-2.26Z" transform="translate(10.86 10.11)"/><path class="cls-112" d="M140.13,21.07c-3.76-.43-8.61-.94-13.77-1.3a33.07,33.07,0,0,0-2.74-7.16,19.29,19.29,0,0,0,0-9.19,88.21,88.21,0,0,1,17.22,12.86A7.06,7.06,0,0,1,140.13,21.07Z" transform="translate(10.86 10.11)"/><path class="cls-113" d="M164.38,46.24a179.87,179.87,0,0,0-20.42-6,31.35,31.35,0,0,0,8.94-5.4H153a32.68,32.68,0,0,0,9-1.08c2.23,3,4.21,5.95,5.83,8.39a9.22,9.22,0,0,1-2.68,4.34Z" transform="translate(10.86 10.11)"/><path class="cls-114" d="M216.24,84.38A30.46,30.46,0,0,0,219,78.23a54.42,54.42,0,0,0-2.7-7.57A56.66,56.66,0,0,1,216.24,84.38Z" transform="translate(10.86 10.11)"/><path class="cls-115" d="M149.17,64.17a52,52,0,0,0-15.39-2.43,44.29,44.29,0,0,0-9.58,1c-1.77-.66-3.5-1.26-5.2-1.84a27.13,27.13,0,0,1,3.75-3.06c1.28-.08,2.58-.13,3.89-.13a70.89,70.89,0,0,1,19.89,3l2.83,3.34Z" transform="translate(10.86 10.11)"/><path class="cls-116" d="M181.6,111.57c-1.61-1.43-3.26-3.14-5-4.91-1.27-1.33-2.59-2.69-4-4a81.66,81.66,0,0,0-6.58-12L168.13,92A102.57,102.57,0,0,0,179,98.93l.22.42c1.65,3.17,3.23,6.21,5,9.06C183.32,109.51,182.46,110.56,181.6,111.57Z" transform="translate(10.86 10.11)"/><path class="cls-117" d="M184.27,131.64a12.45,12.45,0,0,1-1.42-2.12l.6-.71c1.63-1.94,3.28-3.88,4.92-5.9a25.7,25.7,0,0,0,9.25-4.17A52.66,52.66,0,0,1,184.27,131.64Z" transform="translate(10.86 10.11)"/><path class="cls-118" d="M217.6,116.11A69.45,69.45,0,0,0,223.87,106a81.39,81.39,0,0,0-1.3-13.15c-.42,2-.91,4.09-1.51,6.14A112.61,112.61,0,0,1,217.6,116.11Z" transform="translate(10.86 10.11)"/><path class="cls-119" d="M22.34,27.5c1.24-1.34,2.53-2.65,3.84-3.93a78.56,78.56,0,0,1,10.69-4c0,.16,0,.32-.08.49A90.33,90.33,0,0,0,22.34,27.5Z" transform="translate(10.86 10.11)"/><path class="cls-120" d="M60.9,40c-.84-.52-1.7-1.05-2.6-1.58a23.89,23.89,0,0,0-6.24-11.31c.37-.69.71-1.36,1-2A81.68,81.68,0,0,1,70.28,23,12.53,12.53,0,0,1,71,28.21,132.58,132.58,0,0,0,60.9,40Z" transform="translate(10.86 10.11)"/><path class="cls-121" d="M69.11,80.82a41.07,41.07,0,0,1-4.32-12.74,99.88,99.88,0,0,1,6.85-12.73c.55,0,1.1,0,1.66,0h.87a29.26,29.26,0,0,0,1.91,7,59.35,59.35,0,0,0-3.32,16.41A28,28,0,0,1,69.11,80.82Z" transform="translate(10.86 10.11)"/><path class="cls-122" d="M98.61,90.94c-2.37-.44-4.89-.93-7.33-1.54a72.32,72.32,0,0,1-.45-8.87C94.05,78,97.37,75.31,101,72.9c1.92.73,3.9,1.4,6.06,2.08a55.79,55.79,0,0,0,.23,7.5c-3,2.72-5.77,5.55-8.48,8.3Z" transform="translate(10.86 10.11)"/><path class="cls-123" d="M138.16,96.32a44.4,44.4,0,0,0-11-5.69c-.34-2.19-.66-4.32-.89-6.4a24.25,24.25,0,0,1,9.89-2.13h.33a57.32,57.32,0,0,1,11,11.18c-.35.86-.69,1.78-1,2.76a26.36,26.36,0,0,0-8.38.28Z" transform="translate(10.86 10.11)"/><path class="cls-124" d="M171.42,160.06c-.32,0-.64,0-.94,0,1.53-2,3.11-4,4.75-6.1l1.07-1.37c9.93-2.31,20.52-9.51,29.3-20a65.16,65.16,0,0,0,11-11.48c-7.65,13.94-17.61,25.75-29,34.31-5.86,3-11.6,4.64-16.2,4.64Z" transform="translate(10.86 10.11)"/><path class="cls-125" d="M22.33,45a74.68,74.68,0,0,1,10-6.46,16.66,16.66,0,0,1,2.94-.27,15.17,15.17,0,0,1,1.68.1l-3.24,4A34.21,34.21,0,0,0,22.33,45Z" transform="translate(10.86 10.11)"/><path class="cls-126" d="M51.62,86c-1.92-1.7-3.82-3.59-5.73-5.54-.85-2.8-1.58-5.6-2.29-8.31-.82-3.16-1.6-6.16-2.53-9,1.23-1.54,2.46-3.09,3.67-4.63.95.75,1.91,1.57,2.89,2.42a69.56,69.56,0,0,0,4.48,22.59C51.94,84.28,51.78,85.12,51.62,86Z" transform="translate(10.86 10.11)"/><path class="cls-127" d="M77.11,116.29a60.7,60.7,0,0,1-10.8-8.16c.32-.94.62-1.92.89-3a30.33,30.33,0,0,0,10-2.55,61,61,0,0,0,10,3.33c.38,2.23.7,4.35.93,6.42A30.07,30.07,0,0,1,77.11,116.29Z" transform="translate(10.86 10.11)"/><path class="cls-128" d="M111.81,124c-1.43-.73-3-1.44-4.74-2.14a49.61,49.61,0,0,0,0-8.53c2.38-2.26,4.67-4.56,6.9-6.8l.13-.13c.53.58,1.06,1.2,1.57,1.79a46.86,46.86,0,0,0,4.87,5.13,29.13,29.13,0,0,0,.83,3.09c.13.42.22.72.28,1l-2.44,1.67C116.76,120.75,114.33,122.42,111.81,124Z" transform="translate(10.86 10.11)"/><path class="cls-129" d="M135.3,147.42q-.92-.13-1.86-.24a39.16,39.16,0,0,0-.24-8.2,62.34,62.34,0,0,0,6.21-18.11,15.54,15.54,0,0,1,1.93-.64,57.73,57.73,0,0,1,2.25,15.18A115.72,115.72,0,0,1,135.3,147.42Z" transform="translate(10.86 10.11)"/><path class="cls-130" d="M142.16,175.1a10.58,10.58,0,0,1-4.71-3.46c3-3.18,5.74-6.09,8.31-9.08a50,50,0,0,0,7.3,2.38,19.85,19.85,0,0,0,7.69,5.73A91.75,91.75,0,0,1,142.16,175.1Z" transform="translate(10.86 10.11)"/><path class="cls-131" d="M188.48,172.48A114.52,114.52,0,0,0,207,155q-1.22,3-2.6,5.88A136.12,136.12,0,0,1,188.48,172.48Z" transform="translate(10.86 10.11)"/><path class="cls-132" d="M-1.57,80.23A33.41,33.41,0,0,0-7,87,54.59,54.59,0,0,0-8,97c0,1.39.07,2.76.17,4.11A48.83,48.83,0,0,1-5.1,91.63,69.68,69.68,0,0,1-1.57,80.23Z" transform="translate(10.86 10.11)"/><path class="cls-133" d="M7.57,81.87c4.88-7.45,11-13.37,16.63-16.16a53.79,53.79,0,0,1,2.33,6.7c-1,1.1-2.06,2.21-3.14,3.34l-.78.82H22.1A24.41,24.41,0,0,0,7.57,81.87Z" transform="translate(10.86 10.11)"/><path class="cls-134" d="M82.47,140a78.64,78.64,0,0,1-18.08-2.21l-1.3-1.58c.68-.23,1.33-.47,2-.72a53.8,53.8,0,0,0,10.41,1,50.16,50.16,0,0,0,15.05-2.3l3.1,1.06a33.9,33.9,0,0,1-5.8,4.5C86.06,139.93,84.27,140,82.47,140Z" transform="translate(10.86 10.11)"/><path class="cls-135" d="M96.49,158.79c-2.57,0-5,0-7.32-.1a62.63,62.63,0,0,0,14.16-8.35,93.54,93.54,0,0,0,13.1-5v.49a95,95,0,0,1-16.12,13Z" transform="translate(10.86 10.11)"/><path class="cls-136" d="M109.64,184.19a31.28,31.28,0,0,1-7.39-5.68c1.78-1.31,3.74-2.63,5.77-4,1.82-1.21,3.6-2.42,5.4-3.68,2-.09,3.74-.12,5.41-.12h.64a23.48,23.48,0,0,0,3.41,10.1,21.37,21.37,0,0,0-.71,3C117.69,184.08,113.41,184.16,109.64,184.19Z" transform="translate(10.86 10.11)"/><path class="cls-137" d="M144.57,195.18a23.73,23.73,0,0,1-3.57-1.25,114.48,114.48,0,0,0,23.19-6.61,94.85,94.85,0,0,0,30-12.47q-2.72,3.69-5.74,7.18C173.4,189.69,158.27,194.23,144.57,195.18Z" transform="translate(10.86 10.11)"/><path class="cls-138" d="M-6.79,122c0-.14.1-.28.14-.41,0,.39,0,.78,0,1.17Z" transform="translate(10.86 10.11)"/><path class="cls-139" d="M24,141.74c-.48-.56-.94-1.08-1.39-1.58a44.37,44.37,0,0,1,2.24-15.85c3.08.88,7.11,3.11,11,5.29l.89.49c1.05,1.49,2.17,3,3.4,4.65a24,24,0,0,0-5.7,3.28A20.55,20.55,0,0,0,24,141.74Z" transform="translate(10.86 10.11)"/><path class="cls-140" d="M50.94,167.45c-2.36-2.85-4.75-6-7.22-9.42A9,9,0,0,1,46,153l1.2.34a197.21,197.21,0,0,0,19.4,4.77A27.46,27.46,0,0,0,57,166,26.72,26.72,0,0,0,50.94,167.45Z" transform="translate(10.86 10.11)"/><path class="cls-141" d="M92.2,194.93a90.08,90.08,0,0,1-18-10.61,13.33,13.33,0,0,1-1.86-5.7l1.24.11c3,.25,6,.51,9.09.74a37.35,37.35,0,0,0,8,11.09A18.44,18.44,0,0,0,92.2,194.93Z" transform="translate(10.86 10.11)"/><path class="cls-142" d="M8.65,170.65A94.56,94.56,0,0,0,17.2,182a104.48,104.48,0,0,1-6.76-15.13A12.27,12.27,0,0,0,8.65,170.65Z" transform="translate(10.86 10.11)"/><path class="cls-143" d="M34.62,193.48a115,115,0,0,1-10.19-9.19c-4.81-11.24-7.68-21.69-8.48-30.75.3.32.59.66.88,1C19.16,167.4,25.42,181.1,34.62,193.48Z" transform="translate(10.86 10.11)"/><path class="cls-144" d="M105.39,218.28c-2.06,0-4.24-.07-6.81-.23-15.39-7.27-27.53-15.57-36.11-24.7a11.68,11.68,0,0,1-.59-2.94A104.32,104.32,0,0,0,84.57,204.9c7.08,5.26,16,9.69,26.52,13.24C109.18,218.23,107.28,218.28,105.39,218.28Z" transform="translate(10.86 10.11)"/><path class="cls-145" d="M131.72,216.93c-2.67-.5-5.65-1.07-8.75-1.77,3.12.25,6.32.37,9.54.37,1.44,0,2.89,0,4.34-.07C135.16,216,133.44,216.48,131.72,216.93Z" transform="translate(10.86 10.11)"/><path class="cls-146" d="M183,70.83q-2.13-1-5-2.71c-.43-.68-.88-1.35-1.32-2l.51-.32a24.76,24.76,0,0,0,7-1.56A48.13,48.13,0,0,1,183,70.83Z" transform="translate(10.86 10.11)"/><path class="cls-147" d="M199.1,102.14a22.19,22.19,0,0,1-3.58-4.65,43.65,43.65,0,0,0,6.87-15.1c3.34-5,5.12-12.23,5.19-20.78.33.62.66,1.24,1,1.87a96.23,96.23,0,0,1,1.08,12.38C208.2,87.34,204.33,96.93,199.1,102.14Z" transform="translate(10.86 10.11)"/><path class="cls-148" d="M43.93,9.4A112.76,112.76,0,0,1,56.26,2.48a87.29,87.29,0,0,1,10.09-.6,72.29,72.29,0,0,1,9.45.6A7.32,7.32,0,0,1,78.23,5.9,116.56,116.56,0,0,0,55.09,8.68c-.68,0-1.37,0-2.08,0A56.56,56.56,0,0,0,43.93,9.4Z" transform="translate(10.86 10.11)"/><path class="cls-149" d="M91.89,25.07c0-.54,0-1.07-.08-1.59a43.53,43.53,0,0,0,3.2-4.6c2,.06,4,.14,5.94.23C98,21,95,22.88,91.89,25.07Z" transform="translate(10.86 10.11)"/><path class="cls-150" d="M95.4,53.61a53.68,53.68,0,0,1,11.67-10.37c3.33-.26,6.43-.4,9.43-.41a40,40,0,0,0-8.68,5.67,63.07,63.07,0,0,0-12.34,5.36C95.45,53.78,95.43,53.69,95.4,53.61Z" transform="translate(10.86 10.11)"/><path class="cls-151" d="M164.64,141.67c0-1.09,0-2.2-.06-3.32.28.77.57,1.54.88,2.29Z" transform="translate(10.86 10.11)"/><path class="cls-152" d="M49,113.84c-1.7-1-3.36-2-5-3-1.93-1.2-3.75-2.33-5.62-3.35-.59-1.1-1.17-2.18-1.73-3.25l-.1-.18c-.67-1.29-1.33-2.52-2-3.73l.87-.88c.69.64,1.39,1.31,2.11,2a75.21,75.21,0,0,0,6.57,5.8A52.33,52.33,0,0,0,49,113.84Z" transform="translate(10.86 10.11)"/><path class="cls-153" d="M8.77,120.14c1.08-5.57,3.07-10.38,5.43-13.36.26.42.51.85.75,1.28a31.17,31.17,0,0,0-5,10.27A17.74,17.74,0,0,0,8.77,120.14Z" transform="translate(10.86 10.11)"/><path class="cls-154" d="M138.81,207.8a51.65,51.65,0,0,1-10.11-2.52c1.63-.18,3.34-.4,5.1-.65a53.76,53.76,0,0,0,7,.46,69.14,69.14,0,0,0,21-3.5q-2.83,2.16-5.84,4A87.39,87.39,0,0,1,138.81,207.8Z" transform="translate(10.86 10.11)"/><path class="cls-155" d="M60.87,204.35q-2.31-.79-4.53-1.71c-8.71-7.48-15.37-15.32-19.8-23.33A26.88,26.88,0,0,1,35,170.1c1.64,2.25,3.52,4.71,5.61,7.2,2.6,8.06,8.83,16.45,17.64,23.72C59.05,202.15,59.94,203.26,60.87,204.35Z" transform="translate(10.86 10.11)"/></g><path class="cls-156" d="M73.9,221.77a1,1,0,0,1-.61-.22l-8.63-7.27-10.35-6.95-10.74.12a1,1,0,0,1-.84-.49L37,196.55l-7.2-8.18a1,1,0,0,1-.17-.27L27.54,183,16.92,171a.93.93,0,0,1-.08-1.15l2.66-4-1.33-1.21-.7,1.06a.94.94,0,0,1-1.44.16L4.94,155.25A.94.94,0,0,1,4.87,154l2.7-3.2-.6-1a1,1,0,0,1-.14-.44v-.1l-2.24-3.69a1,1,0,0,1,0-.92l1.75-3.44-.18-2.68L4.82,129l-3-.49a1,1,0,0,1-.79-.94v-7.19a1.06,1.06,0,0,1-.57-.13A1,1,0,0,1,.11,119L1,117.24v-.37a.94.94,0,0,1,.49-.82l.2-.12,1.69-3.2-1-9.36a1,1,0,0,1,.14-.61l4.84-7.61L7.93,94A55.23,55.23,0,0,1,9.5,85.55L6.68,87.81a.93.93,0,0,1-1.18,0,1,1,0,0,1-.26-1.15l4.1-8.39L5.88,72.4a.91.91,0,0,1,0-.89l6.51-13.37a1,1,0,0,1,.37-.4l1.08-.63,2-6.34a.92.92,0,0,1,.57-.6l12-4.5,5.92-8.41a.84.84,0,0,1,.23-.23l2.3-1.59,10.27-10a1,1,0,0,1,.49-.25L56,23.63l5.84-7.08a1,1,0,0,1,.66-.34l4.06-.31-.06-.09a1,1,0,0,1,.3-1.28L74,9.93a1,1,0,0,1,.45-.15l1.68-.11a15.24,15.24,0,0,1,9.63-.78L97,.2A.93.93,0,0,1,97.83,0l24,6.41,13,3.7L149,11.52a.94.94,0,0,1,.66.38l1.43,1.93,12.5,5.64,12.05,7.27a1,1,0,0,1,.42.54l1,3.41,10.22,3.66a1,1,0,0,1,.63.88l.18,8.84c1.62,1.17,3.36,2.25,5,3.29,1.14.69,2.29,1.4,3.43,2.15a1,1,0,0,1,.91-.23l4.89,1.39a.94.94,0,0,1,.68.9l.05,3.46A23.73,23.73,0,0,1,208,64.66a2.76,2.76,0,0,1-1,2.93l-1,3.65a34.92,34.92,0,0,1,8.2,15.5,1.13,1.13,0,0,1,.21.12,1,1,0,0,1,.32,1.06l-.14.4c.25,1.1.48,2.24.68,3.4a1,1,0,0,1,.59.85l.17,5.52c.21,2.72.3,5.65.28,8.89l.13,4.22a.92.92,0,0,1-.14.53l-.1.16,0,.78h.05a.94.94,0,0,1,.68.49.92.92,0,0,1,0,.84l-.94,2c0,.29,0,.59-.07.88l2.7,3.78a1,1,0,0,1-.11,1.23l-4,3.87a64.33,64.33,0,0,1-2.85,9l1.14-.64a.95.95,0,0,1,1.28,1.3l-6.75,11.65L207,161.26a.93.93,0,0,1-.64.87l-4,1.39,0,0a1,1,0,0,1-.1,1.09l-.92,1.07-.2,10.81a1,1,0,0,1-.67.89l-13.12,4,1.48,6.38a.93.93,0,0,1-.53,1.06l-15.94,7.42-7.85,9.53a1.13,1.13,0,0,1-.27.22l-12.73,7.24a.9.9,0,0,1-.91,0l-3.51-1.87-12.77,3.05-8.67.72.19,1.15a1,1,0,0,1-.17.7.93.93,0,0,1-.62.38l-14,2.23a1,1,0,0,1-1-.58l-2.32-5.83-6,6.21a1,1,0,0,1-.86.27L88,217.24,74.2,221.73A1,1,0,0,1,73.9,221.77ZM54.6,205.44a.89.89,0,0,1,.52.16l10.68,7.18,8.31,7,13.5-4.4a.94.94,0,0,1,.47,0l12.67,2.45,6.6-6.88a1,1,0,0,1,1.58.3l2.59,6.47,12.32-2-.19-1.23a.95.95,0,0,1,.85-1.09l9.55-.78,13-3.11a.93.93,0,0,1,.67.09l3.36,1.79,12.13-6.9,7.88-9.55a.93.93,0,0,1,.33-.26l15.44-7.18-1.5-6.5a.94.94,0,0,1,.65-1.11l13.3-4.09.2-10.48a.88.88,0,0,1,.23-.6l.7-.81-.26-.44a1,1,0,0,1-.07-.81,1,1,0,0,1,.58-.56l4.51-1.55.34-13.73a.9.9,0,0,1,.13-.45l5.13-8.87-.52.29a.95.95,0,0,1-1.33-1.2,63,63,0,0,0,3.87-11.5,1,1,0,0,1,.26-.47l3.6-3.5-2.43-3.41a.94.94,0,0,1-.17-.63c0-.45.08-.9.11-1.36a.77.77,0,0,1,.08-.34l.52-1.11a1,1,0,0,1-.46-.85l.08-1.86a.89.89,0,0,1,.14-.47l.08-.13-.12-4c0-3.22-.07-6.09-.28-8.81l-.11-3.52a.92.92,0,0,1-.31-.59c-.26-1.92-.61-3.81-1-5.6a.83.83,0,0,1,0-.22.86.86,0,0,1-.07-.21c-1.64-6.65-4.36-11.84-8.32-15.88a1,1,0,0,1-.24-.9l1.2-4.5a1,1,0,0,1,.42-.56.94.94,0,0,0,.47-1.07A21.83,21.83,0,0,0,201.44,56a.93.93,0,0,1-.23-.61l-.05-3.1-1.82-.52a.94.94,0,0,1-1.49.95c-1.8-1.37-3.79-2.59-5.7-3.76s-3.78-2.33-5.57-3.66a.93.93,0,0,1-.39-.74L186,35.91,176,32.31a.92.92,0,0,1-.58-.62l-1-3.52-11.64-7-12.62-5.69a1.07,1.07,0,0,1-.37-.3l-1.33-1.79L134.52,12l-13.2-3.73L97.8,2,86.54,10.67a.94.94,0,0,1-.83.16,13.38,13.38,0,0,0-9,.64.82.82,0,0,1-.3.07l-.27,0a.92.92,0,0,1-.38.35,26,26,0,0,0-7.12,5.49,1,1,0,0,1-.61.29l-5,.37-5.8,7a.9.9,0,0,1-.56.33L48.26,27,38.08,36.89,35.8,38.48l-6,8.52a1,1,0,0,1-.45.34L17.49,51.78l-2,6.25a.93.93,0,0,1-.42.53l-1.15.67L7.76,71.88l3.47,5.86a1,1,0,0,1,0,.9L8.79,83.7l1.85-1.48a.93.93,0,0,1,1.12,0,.94.94,0,0,1,.37,1A57.5,57.5,0,0,0,9.79,94.35a.9.9,0,0,1-.09.33L9,96.08,4.29,103.5l1,9.31a1,1,0,0,1-.1.55l-2,3.7a1,1,0,0,1-.34.37v0a1.23,1.23,0,0,1,0,.2,1.49,1.49,0,0,1,0,.21v8.88l2.89.48a.94.94,0,0,1,.79.8L8,138.34l.2,3a.92.92,0,0,1-.1.49L6.47,145l2.09,3.44a.94.94,0,0,1,.13.43V149l.83,1.35a1,1,0,0,1-.07,1.11l-2.57,3,9.63,9.25.83-1.27a.94.94,0,0,1,1.73.47l2.3,2.1a.94.94,0,0,1,.15,1.22l-2.71,4,10.24,11.53a.92.92,0,0,1,.16.27l2.1,5.15,7.17,8.14.12.17,5.51,10,10.47-.11Z" transform="translate(10.86 10.11)"/></g></g></g></svg>