<svg id="Capa_1" enable-background="new 0 0 512 512" height="512" viewBox="0 0 512 512" width="512" xmlns="http://www.w3.org/2000/svg"><g><path d="m128.961 0 16.707 189.99-16.707 191.8h-1.73c-30.44 0-55.12 24.68-55.12 55.11v-400.84c0-19.92 16.15-36.06 36.06-36.06z" fill="#db3915"/><path d="m432.001 413.162v67.469h-311.58c-12.834 0-23.247-10.412-23.247-23.247v-20.976c0-12.834 10.412-23.247 23.247-23.247h311.58z" fill="#d9ecfd"/><path d="m432.001 446.897v33.735h-311.58c-12.834 0-23.247-10.412-23.247-23.247v-10.488z" fill="#c5e2ff"/><path d="m432.677 0h-303.718v381.79h-1.731c-30.439 0-55.115 24.676-55.115 55.115v19.981c0 30.439 24.676 55.115 55.115 55.115h305.449c3.983 0 7.211-3.229 7.211-7.211v-18.543c0-3.983-3.229-7.211-7.211-7.211h-305.448c-12.232 0-22.149-9.916-22.149-22.149v-19.981c0-12.233 9.917-22.149 22.149-22.149h305.449c3.983 0 7.211-3.229 7.211-7.211v-25.756-374.579c0-3.982-3.229-7.211-7.212-7.211z" fill="#fc5a36"/><path d="m127.229 381.789c-30.439 0-55.115 24.676-55.115 55.115v19.981c0 30.439 24.676 55.115 55.115 55.115h305.449c3.983 0 7.211-3.229 7.211-7.211v-18.543c0-3.983-3.229-7.211-7.211-7.211h-305.449c-12.232 0-22.149-9.916-22.149-22.149v-19.981c0-12.233 9.916-22.149 22.149-22.149h305.449c3.983 0 7.211-3.229 7.211-7.211v-25.755h-312.66z" fill="#a42b0f"/><path d="m370.407 140.439h-171.826c-3.866 0-7-3.134-7-7v-69.157c0-3.866 3.134-7 7-7h171.826c3.866 0 7 3.134 7 7v69.156c0 3.867-3.134 7.001-7 7.001z" fill="#ffc85e"/><g><g><path d="m344.245 256.61h-119.501c-4.268 0-7.726-3.459-7.726-7.726s3.459-7.726 7.726-7.726h119.501c4.268 0 7.726 3.459 7.726 7.726s-3.459 7.726-7.726 7.726z" fill="#d9ecfd"/></g></g><g><g><path d="m344.245 293.508h-119.501c-4.268 0-7.726-3.459-7.726-7.726s3.459-7.726 7.726-7.726h119.501c4.268 0 7.726 3.459 7.726 7.726s-3.459 7.726-7.726 7.726z" fill="#d9ecfd"/></g></g></g></svg>