<?xml version="1.0"?>
<svg xmlns="http://www.w3.org/2000/svg" height="512px" viewBox="0 0 64 64" width="512px" class=""><g><path d="m51 44h-1a3 3 0 0 1 -3-3v-6h2v6a1 1 0 0 0 1 1h1z" fill="#995f5b" data-original="#995F5B" class="" data-old_color="#995f5b" style="fill:#625B99"/><path d="m52 53h-1v-2h1a1 1 0 0 0 1-1v-19h2v19a3 3 0 0 1 -3 3z" fill="#995f5b" data-original="#995F5B" class="" data-old_color="#995f5b" style="fill:#625B99"/><path d="m42 50h-1v-2h1a1 1 0 0 0 1-1v-12h2v12a3 3 0 0 1 -3 3z" fill="#995f5b" data-original="#995F5B" class="" data-old_color="#995f5b" style="fill:#625B99"/><path d="m19 51h-2a3 3 0 0 1 -3-3v-13h2v13a1 1 0 0 0 1 1h2z" fill="#995f5b" data-original="#995F5B" class="" data-old_color="#995f5b" style="fill:#625B99"/><path d="m12 43h-2a3 3 0 0 1 -3-3v-5h2v5a1 1 0 0 0 1 1h2z" fill="#995f5b" data-original="#995F5B" class="" data-old_color="#995f5b" style="fill:#625B99"/><path d="m45 58h-26l7-4v-18h12v18z" fill="#995f5b" data-original="#995F5B" class="" data-old_color="#995f5b" style="fill:#625B99"/><ellipse cx="32" cy="43" fill="#301a12" rx="2" ry="3" data-original="#301A12" class=""/><path d="m31 51v4h-2v-3.59l-3-2.99v-2.81l4.71 4.68a1.033 1.033 0 0 1 .29.71z" fill="#66342e" data-original="#66342E" class="" data-old_color="#66342e" style="fill:#2E3266"/><path d="m38 43.51v2.91l-3 2.99v2.59h-2v-3a1.033 1.033 0 0 1 .29-.71z" fill="#66342e" data-original="#66342E" class="" data-old_color="#66342e" style="fill:#2E3266"/><path d="m29.71 39.29-1.42 1.42-2.29-2.29v-2.42h.41z" fill="#66342e" data-original="#66342E" class="" data-old_color="#66342e" style="fill:#2E3266"/><path d="m61 27c0-2.574-3.5-4.692-8-4.968 0-.011 0-.021 0-.032 0-2.761-4.029-5-9-5 0-2.761-3.582-5-8-5-.034 0-.067 0-.1 0-.623-3.392-4.364-6-8.9-6-4.971 0-9 3.134-9 7-6.627 0-12 3.134-12 7a4.984 4.984 0 0 0 1.61 3.492c-2.802 1.282-4.61 3.27-4.61 5.508 0 3.866 5.373 7 12 7h29c5.523 0 10-1.791 10-4 0-.042-.013-.084-.016-.126 4.016-.502 7.016-2.492 7.016-4.874z" fill="#55b56a" data-original="#55B56A" class="" data-old_color="#55b56a" style="fill:#6188FB"/><g fill="#40844d"><path d="m45 17h-2c0-2.168-3.206-4-7-4a10.349 10.349 0 0 0 -4.552.894l-.9-1.788a12.135 12.135 0 0 1 5.452-1.106c5.047 0 9 2.636 9 6z" data-original="#000000" class="active-path" data-old_color="#000000" style="fill:#9CDBF3"/><path d="m7 20h-2c0-4.486 5.71-8 13-8a19.724 19.724 0 0 1 6.32 1.053l-.64 1.894a17.731 17.731 0 0 0 -5.68-.947c-5.962 0-11 2.748-11 6z" data-original="#000000" class="active-path" data-old_color="#000000" style="fill:#9CDBF3"/><path d="m54 22h-2c0-1.892-3.286-4-8-4a11.781 11.781 0 0 0 -6.434 1.824l-1.132-1.648a13.648 13.648 0 0 1 7.566-2.176c5.607 0 10 2.636 10 6z" data-original="#000000" class="active-path" data-old_color="#000000" style="fill:#9CDBF3"/><path d="m15 37c-7.29 0-13-3.514-13-8s5.71-8 13-8v2c-5.962 0-11 2.748-11 6s5.038 6 11 6z" data-original="#000000" class="active-path" data-old_color="#000000" style="fill:#9CDBF3"/><path d="m62 27h-2c0-1.892-3.286-4-8-4a11.781 11.781 0 0 0 -6.434 1.824l-1.132-1.648a13.648 13.648 0 0 1 7.566-2.176c5.607 0 10 2.636 10 6z" data-original="#000000" class="active-path" data-old_color="#000000" style="fill:#9CDBF3"/><path d="m28 31h-2c0-1.626-2.29-3-5-3s-5 1.374-5 3h-2c0-2.8 3.075-5 7-5s7 2.2 7 5z" data-original="#000000" class="active-path" data-old_color="#000000" style="fill:#9CDBF3"/><path d="m33 22h-2c0-1.626-2.29-3-5-3s-5 1.374-5 3h-2c0-2.8 3.075-5 7-5s7 2.2 7 5z" data-original="#000000" class="active-path" data-old_color="#000000" style="fill:#9CDBF3"/><path d="m45 28h-2c0-1.626-2.29-3-5-3s-5 1.374-5 3h-2c0-2.8 3.075-5 7-5s7 2.2 7 5z" data-original="#000000" class="active-path" data-old_color="#000000" style="fill:#9CDBF3"/></g><path d="m26 10h2v2h-2z" fill="#71d383" data-original="#71D383" class="" style="fill:#C5CF45" data-old_color="#71d383"/><path d="m15 17h2v2h-2z" fill="#71d383" data-original="#71D383" class="" style="fill:#C5CF45" data-old_color="#71d383"/><path d="m51 26h2v2h-2z" fill="#71d383" data-original="#71D383" class="" style="fill:#C5CF45" data-old_color="#71d383"/><path d="m26 22h2v2h-2z" fill="#71d383" data-original="#71D383" class="" style="fill:#C5CF45" data-old_color="#71d383"/><path d="m9 27h2v2h-2z" fill="#71d383" data-original="#71D383" class="" style="fill:#C5CF45" data-old_color="#71d383"/><path d="m37 29h2v2h-2z" fill="#71d383" data-original="#71D383" class="" style="fill:#C5CF45" data-old_color="#71d383"/><path d="m20 47h-2v-2h2a1 1 0 0 0 1-1v-8h2v8a3 3 0 0 1 -3 3z" fill="#995f5b" data-original="#995F5B" class="" data-old_color="#995f5b" style="fill:#625B99"/><path d="m38 36v2.42l-2.29 2.29-1.42-1.42 3.29-3.29z" fill="#66342e" data-original="#66342E" class="" data-old_color="#66342e" style="fill:#2E3266"/></g> </svg>
