<svg height="512" viewBox="0 0 64 64" width="512" xmlns="http://www.w3.org/2000/svg"><path d="m27 45h10v16h-10z" fill="#ad6327"/><path d="m52.9 33.746a3.946 3.946 0 0 0 .217-5.23 4.989 4.989 0 0 0 -1.117-9.416c0-.033.005-.066.005-.1a7 7 0 0 0 -7-7 5 5 0 0 0 -5-5 4.93 4.93 0 0 0 -1.552.271 7 7 0 0 0 -13.211.948 4.95 4.95 0 0 0 -3.242-1.219 5 5 0 0 0 -5 5 7 7 0 0 0 -6.864 8.368 5 5 0 0 0 1.864 9.632c.05 0 .1-.013.146-.015a3.894 3.894 0 0 0 1.917 4.494 6 6 0 0 0 3.937 10.521h32a6 6 0 0 0 2.9-11.254z" fill="#8ec13f"/><g fill="#c8d952"><path d="m33 14a1 1 0 0 1 1 1h2a1 1 0 0 1 2 0h2a2.987 2.987 0 0 0 -5-2.22 2.987 2.987 0 0 0 -5 2.22h2a1 1 0 0 1 1-1z"/><path d="m25 15a2.981 2.981 0 0 0 -2 .78 2.987 2.987 0 0 0 -5 2.22h2a1 1 0 0 1 2 0h2a1 1 0 0 1 2 0h2a3 3 0 0 0 -3-3z"/><path d="m31 20a1 1 0 0 1 1 1h2a2.987 2.987 0 0 0 -5-2.22 2.987 2.987 0 0 0 -5 2.22h2a1 1 0 0 1 2 0h2a1 1 0 0 1 1-1z"/><path d="m47 21a2.981 2.981 0 0 0 -2 .78 2.987 2.987 0 0 0 -5 2.22h2a1 1 0 0 1 2 0h2a1 1 0 0 1 2 0h2a3 3 0 0 0 -3-3z"/><path d="m25 25a2.981 2.981 0 0 0 -2 .78 2.987 2.987 0 0 0 -5 2.22h2a1 1 0 0 1 2 0h2a1 1 0 0 1 2 0h2a3 3 0 0 0 -3-3z"/><path d="m43 30a2.981 2.981 0 0 0 -2 .78 2.987 2.987 0 0 0 -5 2.22h2a1 1 0 0 1 2 0h2a1 1 0 0 1 2 0h2a3 3 0 0 0 -3-3z"/><path d="m32 33a3 3 0 0 0 -3 3h2a1 1 0 0 1 2 0h2a1 1 0 0 1 2 0h2a2.987 2.987 0 0 0 -5-2.22 2.981 2.981 0 0 0 -2-.78z"/></g><path d="m27 42h-7c-2.214 0-3.737-.556-4.527-1.653a3.078 3.078 0 0 1 -.421-2.663l1.9.632-.952-.316.954.3a1.087 1.087 0 0 0 .151.892c.227.3.9.808 2.895.808h7z" fill="#499b58"/><path d="m29 40h2v2h-2z" fill="#499b58"/><path d="m13.105 21.447a5.846 5.846 0 0 1 0-4.894l1.79.894-.895-.447.9.441a3.867 3.867 0 0 0 0 3.112z" fill="#499b58"/><path d="m53 40h-2a3.439 3.439 0 0 0 -2.321-3.053l.637-1.9c.151.053 3.684 1.275 3.684 4.953z" fill="#499b58"/><path d="m48.948 19.316-1.9-.632a1.5 1.5 0 0 0 -.048-1.254 3.979 3.979 0 0 0 -2.241-1.461l.487-1.939a5.912 5.912 0 0 1 3.505 2.434 3.486 3.486 0 0 1 .197 2.852z" fill="#499b58"/></svg>