<svg height="512" viewBox="0 0 64 64" width="512" xmlns="http://www.w3.org/2000/svg"><path d="m44 45 3 3v-8h6v-7h4v-6l3-3-5.5-5.5 4.5-4.5h-6v-6h-6v-4l-4 4-4-4-3 3-4-4-4.5 4.5-3.5-3.5-4 4-3-3v6l-6-6v10h-6l5 5-4 4 4 4-4 4h8l-6 6h9l-7 7h8v4l4-4z" fill="#e1462b"/><path d="m36 57 6 4h-20l6-4v-13l-13-17v-4l13 13v-9l-7-10v-3l13 11 11-10v3l-9 13v4l13-8v3l-13 14z" fill="#66342e"/><path d="m28 34.172h2v5.657h-2z" fill="#995f5b" transform="matrix(.707 -.707 .707 .707 -17.669 31.343)"/><path d="m33.586 35h2.828v2h-2.828z" fill="#995f5b" transform="matrix(.707 -.707 .707 .707 -15.205 35.293)"/><path d="m29 26.172h2v5.657h-2z" fill="#995f5b" transform="matrix(.707 -.707 .707 .707 -11.719 29.707)"/><path d="m36 45.58v2.84l-2.29 2.29-1.42-1.42z" fill="#995f5b"/><path d="m32 54v4h-2v-3.59l-2-1.99v-2.84l3.71 3.71a1.033 1.033 0 0 1 .29.71z" fill="#995f5b"/><g fill="#f9bb4b"><path d="m15 17.586h2v2.828h-2z" transform="matrix(.707 -.707 .707 .707 -8.749 16.879)"/><path d="m27.586 11h2.828v2h-2.828z" transform="matrix(.707 -.707 .707 .707 .009 24.021)"/><path d="m31 15.586h2v2.828h-2z" transform="matrix(.707 -.707 .707 .707 -2.648 27.607)"/><path d="m35.586 12h2.828v2h-2.828z" transform="matrix(.707 -.707 .707 .707 1.645 29.971)"/><path d="m48 20.586h2v2.828h-2z" transform="matrix(.707 -.707 .707 .707 -1.205 41.092)"/><path d="m42.586 24h2.828v2h-2.828z" transform="matrix(.707 -.707 .707 .707 -4.79 38.435)"/><path d="m21 23.586h2v2.828h-2z" transform="matrix(.707 -.707 .707 .707 -11.234 22.879)"/></g><path d="m40 49h2v2h-2z" fill="#e1462b"/><path d="m22 50h2v2h-2z" fill="#e1462b"/></svg>