<?xml version="1.0" encoding="iso-8859-1"?>
<!-- Generator: Adobe Illustrator 19.0.0, SVG Export Plug-In . SVG Version: 6.00 Build 0)  -->
<svg version="1.1" id="Capa_1" xmlns="http://www.w3.org/2000/svg" xmlns:xlink="http://www.w3.org/1999/xlink" x="0px" y="0px"
	 viewBox="0 0 511.988 511.988" style="enable-background:new 0 0 511.988 511.988;" xml:space="preserve">
<path style="fill:#9A795F;" d="M393.702,242.352c0,0,0,35.424-43.84,61.872c-12.192,7.344-27.168-3.936-23.648-17.744
	c6.496-25.456,14.096-60.912,14.096-87.44c0-46.336-52.08,19.136-52.08,19.136l9.76,69.504c0,0-6.288,22.768-23.36,42.88
	c-8.32,9.808-24.144,6.272-27.648-6.096c-5.808-20.416-8.992-53.184,9.472-92.192c31.472-66.496-44.08-7.056-44.08-7.056
	s20.672,55.12,8.256,114.736c-2.448,11.76-16.768,16.544-25.92,8.752c-20.224-17.216-48.416-52.064-45.808-111.408
	c0,0-1.744,50.128-13.104,58.432c0,0-43.312-22.16-46.336-36.272c-3.024-14.112,0,29.216,0,29.216s162.192,44.32,77.568,211.552
	h104.768c0,0-64.864-69.28,16.432-132.352s95.392-48.976,114.528-106.4C421.91,204.064,393.702,242.352,393.702,242.352z"/>
<path style="fill:#8CC63E;" d="M108.918,274.256c6.144-0.928,12.416-1.12,18.608-0.544c-1.808-7.52,10.432-13.232,15.024-7.024
	c5.616,7.584-1.712,22.624,7.2,25.728c5.2,1.808,9.856-3.376,14.368-6.512c6.192-4.288,14.688-4.992,21.504-1.776
	c0.224-4.576,0.448-9.152,0.672-13.728c4.256,0.176,8.528,0.352,12.784,0.528c0.096-4.048,0.176-8.08,0.272-12.128
	c21.12,2.528,35.776,29.712,56.672,25.712c2.768-0.528,5.584-1.632,8.336-1.008c2.544,0.56,4.512,2.48,6.656,3.936
	c9.936,6.784,23.504,3.984,34.528-0.864c11.008-4.848,21.696-11.6,33.728-12.176c9.2-0.448,20.512,2,25.952-5.424
	c1.552-2.128,2.352-4.864,4.4-6.512c5.952-4.816,13.376,3.28,18.864,8.624c9.664,9.408,24.256,11.296,37.728,11.6
	c6.992,0.16,14.256-0.032,20.496-3.184s11.088-10.08,9.696-16.912c-1.488-7.232-9.168-14.768-4.544-20.528
	c8,3.696,18.288,1.68,24.288-4.784c-6.32-13.008,4.304-30.832,18.752-31.472c3.824-0.16,7.76,0.656,11.44-0.416
	s6.912-5.232,5.152-8.624c-2.256-4.336-10.352-3.712-11.248-8.512c-0.656-3.52,3.36-5.888,5.248-8.928
	c3.488-5.632-1.456-13.456-7.824-15.216s-13.12,0.672-19.12,3.456c-1.312-12.864-11.36-24.368-23.936-27.392
	c7.872-3.488,11.344-14.368,6.944-21.76c-4.4-7.392-15.616-9.552-22.432-4.32c2.72-7.264,0.96-16-4.336-21.664
	s-13.888-7.984-21.328-5.776c-2.368-11.008-4.736-22.032-7.104-33.04c-0.88-4.112-1.856-8.416-4.576-11.632
	c-6.608-7.808-19.808-5.584-27.744-12.064c-2.048-1.68-3.936-4.016-6.592-4.16c-4.432-0.24-6.96,5.712-11.344,6.368
	c-2.464,0.368-4.784-1.04-7.104-1.952c-8.256-3.296-18.64,0.128-23.328,7.68c-1.776-6.72-9.552-10.112-16.496-10.192
	s-13.76,2.128-20.704,2.272c-11.104,0.224-21.632-4.816-32.672-6.048c-11.04-1.232-24.592,3.648-26.352,14.624
	c-0.832,5.12,0.976,11.088-2.352,15.056c-2.064,2.464-5.456,3.248-8.352,4.64c-5.936,2.864-10.192,8.928-10.864,15.472
	c-3.856-2.784-7.84-5.728-10-9.968s-1.808-10.16,2.064-12.912c1.984-1.408,4.528-1.792,6.672-2.944
	c5.408-2.896,7.04-9.744,8.112-15.792c0.256-1.472,0.512-3.072-0.16-4.416c-0.736-1.472-2.352-2.24-3.856-2.912
	c-7.456-3.28-14.896-6.544-22.352-9.824c-7.216-3.168-17.344-5.552-21.568,1.104c-1.36,2.16-1.728,4.928-3.472,6.8
	c-3.392,3.6-9.904,1.888-13.808,4.992c-4.352,3.456-3.232,11.024-7.504,14.592c-2.304,1.936-5.568,2.16-8.24,3.52
	c-4.112,2.112-6.48,7.168-5.44,11.68s5.376,8.048,10.016,8.144c4.112,0.08,7.872-2.24,11.904-3.104s9.36,0.704,9.856,4.8
	c0.464,3.84-3.84,6.688-7.712,6.832c-3.856,0.128-7.616-1.376-11.472-1.504c-11.456-0.352-23.232,11.248-32.912,5.104
	c-3.536-2.24-5.92-6.592-10.048-7.216c-7.184-1.088-10.288,9.216-16.72,12.592c-6.416,3.36-16.912,0.352-19.488,7.12
	c-0.608,1.6-0.496,3.36-0.688,5.056c-1.024,9.232-10.352,14.976-18.848,18.72c-7.28,3.216-14.848,6.112-21.024,11.12
	c-6.176,4.992-10.832,12.704-9.856,20.592c0.816,6.704,5.552,12.848,4.656,19.536c-4.768,1.888-9.76,3.904-13.056,7.824
	s-4.24,10.368-0.608,14c5.888,5.904,16.048-0.384,24.144,1.552c0.56,2.832,1.104,5.664,1.664,8.496
	c7.568,0.56,15.152,1.12,22.72,1.68c0.416,2.592,0.816,5.2,1.232,7.792c6-7.424,18.304-2.304,27.248-5.68
	c4.704-1.776,8.144-5.824,12.448-8.432s10.832-3.2,13.6,0.992c-8.736,9.216-19.712,16.272-31.712,20.4
	c-7.36,2.528-15.312,4.08-21.472,8.848c-6.16,4.768-9.632,14.288-4.848,20.416c-4.928-0.272-9.904,0.208-14.688,1.456
	c-0.608,5.504,0.064,11.136,1.92,16.352c8.608-1.44,17.84,4.032,20.736,12.256c1.184,3.36,1.392,7.008,2.704,10.304
	c3.456,8.736,13.952,12.944,23.312,12.096s17.84-5.584,26-10.224"/>
<g>
	<path style="fill:#7FB239;" d="M235.91,113.344c-6.16-4.928-12.336-9.856-18.496-14.784c-1.712-1.376-3.584-2.8-5.776-2.896
		c-1.808-0.08-3.488,0.784-5.2,1.344c-10.368,3.424-20.992-3.632-31.696-5.76c-15.408-3.056-30.752,4.256-44.752,11.36
		c-3.6,1.824-7.664,4.304-8.048,8.32c-5.312-2.304-11.024-4.656-16.736-3.68c-5.712,0.976-10.944,6.832-9.04,12.304
		c-5.968,2.784-12.832-2.88-19.328-1.792c-6.576,1.104-10.032,8.512-10.896,15.12c-0.864,6.608-0.352,13.696-3.648,19.488
		l0.176,1.952c7.6,1.264,15.68,2.736,21.36,7.936c2.336,2.128,4.128,4.784,6.336,7.056c7.456,7.648,19.776,10.048,29.552,5.76
		c6.512-2.848,11.584-8.176,17.632-11.904c6.048-3.744,14.272-5.696,20.016-1.504c7.072,5.168,8.144,17.904,16.816,19.088
		c6.704,0.928,11.312-6.112,15.84-11.136c5.216-5.792,12.4-9.792,20.08-11.152c6.08-1.088,12.448-0.576,18.336-2.448
		s11.424-7.376,10.304-13.456c-2.64,3.408-9.376,0.688-8.912-3.6c0.64-5.968,10.16-6.368,12.816-11.744
		C245.11,122.208,240.262,116.832,235.91,113.344z"/>
	<path style="fill:#7FB239;" d="M410.182,94.128c-3.184-3.216-8.016-5.312-9.216-9.68c-0.496-1.792-0.272-3.712-0.192-5.568
		c0.752-18.08-15.6-35.072-33.696-35.008c0.464,2.096,0.912,4.176,1.376,6.272c-8.096-2.144-17.376,1.648-21.648,8.848
		c-14.464-4.592-28.912-9.184-43.376-13.776c-1.76-0.56-3.728-1.104-5.376-0.288c-1.904,0.944-2.576,3.28-3.632,5.12
		c-3.408,5.952-11.216,7.216-17.808,9.12s-13.936,7.216-12.352,13.888l-2.032,5.76c-2.928,11.936,6.976,25.28,19.248,25.952
		c5.216,0.288,10.304-1.376,15.408-2.384c7.808-1.536,15.888-1.6,23.712-0.176c1.328,0.24,2.752,0.576,3.648,1.6
		c3.472,3.904-5.008,9.6-2.992,14.432c0.8,1.904,2.96,2.784,4.928,3.408c12.592,3.936,26.112,4.88,39.12,2.704
		c4.88-0.816,10.064-2.288,13.152-6.16c2.896-3.632,3.6-8.992,7.376-11.696c6.432-4.592,16.128,1.984,23.104-1.728
		C413.462,104.576,413.366,97.344,410.182,94.128z"/>
	<path style="fill:#7FB239;" d="M284.246,230.192c-2.256-4.784-6.256-8.496-10.384-11.792c-10.96-8.768-25.392-15.808-38.688-11.312
		c-4.112,1.392-7.856,3.808-12.064,4.848c-14.496,3.536-28.192-10.176-43.088-9.456c-13.872,0.672-24.864,13.616-38.736,14.224
		c-6.672,0.288-13.104-2.352-19.744-2.976c-6.672-0.624-14.608,1.776-16.64,8.128c-1.376,4.304,0.352,9.408-1.936,13.312
		c-1.744,2.992-5.312,4.352-7.872,6.704c-6.656,6.096-5.008,16.8-2.832,25.568l0.48-2.048c2.928-2.032,4.88,3.408,6.976,6.288
		c2.176,3.008,6.672,3.504,10.128,2.128s6.096-4.192,8.608-6.928c5.328-5.808,10.784-11.872,17.984-15.072
		c7.2-3.216,16.688-2.752,21.808,3.232c3.904,4.56,5.888,12.304,11.888,12.576c6.992,0.32,8.816-9.488,13.376-14.8
		c5.088-5.936,14.064-6.064,21.888-5.728c4.816,0.208,9.776,0.448,14.176,2.4c4.112,1.824,7.456,5.008,11.408,7.152
		c3.952,2.144,9.168,3.072,12.736,0.336c-2.976-3.216-4.608-7.632-4.448-12.016c7.04,1.408,14.064,2.8,21.104,4.208
		c8.08,1.616,18.016,2.592,23.056-3.92C286.662,241.072,286.502,234.976,284.246,230.192z"/>
	<path style="fill:#7FB239;" d="M468.422,176.928c-7.424,3.952-16.816,1.808-23.84-2.816c-7.024-4.608-12.32-11.344-18.112-17.44
		c-2.288-2.416-4.8-4.816-7.984-5.808c-4.688-1.456-9.664,0.48-14.528,1.056c-15.872,1.888-32.96-10.448-46.944-2.688
		c-7.008,3.888-12.768,12.576-20.576,10.784c-3.392-0.784-5.984-3.488-9.12-4.992c-5.168-2.48-11.312-1.504-16.768,0.24
		c-10.704,3.424-20.496,9.648-28.112,17.904l1.776,3.216c-3.056,0.192-5.92,2.176-7.168,4.976c8.176,0.736,14.64,9.488,12.96,17.52
		c-0.528,2.544-1.744,4.976-1.664,7.568c0.192,6.656,7.936,9.872,14.08,12.4c8.368,3.44,16.08,8.496,22.592,14.784
		c1.456,1.408,2.912,2.976,3.424,4.96c1.216,4.768-3.52,9.216-3.328,14.128c0.208,5.424,6.544,8.832,11.936,8.208
		c5.392-0.608,10.016-3.92,14.672-6.72c7.12-4.288,14.848-7.6,22.864-9.808c1.392-0.384,2.88-0.736,4.256-0.304
		c1.344,0.4,2.384,1.488,3.664,2.048c3.84,1.712,7.92-1.472,11.216-4.064c3.296-2.608,8.528-4.656,11.248-1.44
		c-3.872,11.888,8.08,25.776,20.416,23.68c-2.384-4.848,2.512-10.064,7.152-12.832s10.288-6.208,10.096-11.616
		c-0.208-5.92-7.072-8.736-11.792-12.32c-6.736-5.088-10.144-14.224-8.384-22.48c0.336-1.568,0.896-3.184,2.112-4.24
		c1.904-1.616,4.704-1.36,7.184-1.072c10.448,1.2,21.04,1.104,31.472-0.272c2.528-0.336,5.152-0.8,7.152-2.368
		C476.214,192.528,472.518,183.184,468.422,176.928z"/>
</g>
<g>
</g>
<g>
</g>
<g>
</g>
<g>
</g>
<g>
</g>
<g>
</g>
<g>
</g>
<g>
</g>
<g>
</g>
<g>
</g>
<g>
</g>
<g>
</g>
<g>
</g>
<g>
</g>
<g>
</g>
</svg>
