<svg width="489" height="565" viewBox="0 0 489 565" fill="none" xmlns="http://www.w3.org/2000/svg">
<path d="M197.14 164.281L243.012 188.326L45.8723 564.426L-5.19285e-05 540.381L197.14 164.281Z" fill="#FB8C00"/>
<path d="M262.157 40.1681L308.03 64.2129L291.055 96.5964L245.183 72.5515L262.157 40.1681Z" fill="#FB8C00"/>
<path d="M28.5979 555.461L225.738 179.36L242.957 188.386L45.8169 564.486L28.5979 555.461Z" fill="#EF6C00"/>
<path d="M273.841 87.6625L290.816 55.2791L308.035 64.3048L291.06 96.6882L273.841 87.6625Z" fill="#EF6C00"/>
<path d="M335.075 288.208L325.504 276.006L325.386 273.948L377.07 192.861L405.607 114.811L425.352 115.98L421.615 145.955L382.962 240.259L335.075 288.208Z" fill="#999999"/>
<path d="M425.005 118.974L440.742 119.976C428.28 187.291 395.386 250.044 347.117 298.591L337.344 286.231C365.297 256.152 387.703 221.8 404.023 184.014C406.042 179.337 403.882 173.903 399.206 171.884C394.529 169.865 389.095 172.025 387.076 176.702C371.98 211.684 351.358 243.533 325.743 271.567L270.517 201.738C269.712 200.727 268.716 199.891 267.561 199.285L176.057 151.322L222.308 63.0847L313.823 111.044C314.963 111.642 316.221 111.997 317.511 112.084L406.358 117.773C405.143 123.087 403.805 128.376 402.351 133.585C400.973 138.499 403.836 143.584 408.739 144.966C410.519 145.467 412.329 145.404 413.973 144.891C416.85 143.993 419.236 141.689 420.117 138.566C421.905 132.119 423.541 125.552 425.005 118.974Z" fill="#B3B3B3" stroke="#B3B3B3" stroke-width="6"/>
<path d="M238.431 84.4424L284.303 108.487L250.391 173.185L204.518 149.14L238.431 84.4424Z" fill="#999999"/>
</svg>
