<svg height="512" viewBox="0 0 64 64" width="512" xmlns="http://www.w3.org/2000/svg"><path d="m27 47h10v14h-10z" fill="#ad6327"/><path d="m32 58h-2v-3a1 1 0 0 1 .293-.707l1.707-1.707v-5.586h2v6a1 1 0 0 1 -.293.707l-1.707 1.707z" fill="#d3843d"/><path d="m27 50h3v2h-3z" fill="#66342e"/><path d="m34 56h3v2h-3z" fill="#66342e"/><path d="m42 37v-10l1-1c1.039-1.385 2-2.269 2-4v-7l-4 4-2-11-4 4-3-9-3 9-4-4-2 11-4-4v5a6.258 6.258 0 0 0 2 5l2 2v7l-5-5v12a6 6 0 0 0 6 6h16a6 6 0 0 0 6-6v-8z" fill="#5dbf86"/><g fill="#479365"><path d="m23.5 33.379h2v4.243h-2z" transform="matrix(.707 -.707 .707 .707 -17.926 27.722)"/><path d="m43.707 36.707-1.414-1.414-5.293 5.293-1.293-1.293a1 1 0 0 0 -1.414 0l-3 3 1.414 1.414 2.293-2.293 3.293 3.293 1.414-1.414-1.293-1.293z"/><path d="m24.5 25.964h2v7.071h-2z" transform="matrix(.707 -.707 .707 .707 -13.391 26.672)"/><path d="m41.293 26.293-5.293 5.293-1.293-1.293a1 1 0 0 0 -1.414 0l-4 4 1.414 1.414 3.293-3.293 3.293 3.293 1.414-1.414-1.293-1.293 5.293-5.293z"/><path d="m28.207 22.793-1.293-1.293 4.086-4.086 2.293 2.293 1.414-1.414-3-3a1 1 0 0 0 -1.414 0l-4.793 4.793-2.793-2.793-1.414 1.414 5.5 5.5z"/><path d="m23 41v-4h-2v4a3 3 0 0 0 3 3h3v-2h-3a1 1 0 0 1 -1-1z"/><path d="m28.586 38h2.828v2h-2.828z" transform="matrix(.707 -.707 .707 .707 -18.79 32.636)"/><path d="m29.293 25.293 1.414 1.414 4.293-4.293 3.293 3.293 1.414-1.414-1.293-1.293 3.293-3.293-1.414-1.414-3.293 3.293-1.293-1.293a1 1 0 0 0 -1.414 0z"/></g></svg>