<?xml version="1.0" encoding="iso-8859-1"?>
<!-- Generator: Adobe Illustrator 19.0.0, SVG Export Plug-In . SVG Version: 6.00 Build 0)  -->
<svg version="1.1" id="Layer_1" xmlns="http://www.w3.org/2000/svg" xmlns:xlink="http://www.w3.org/1999/xlink" x="0px" y="0px"
	 viewBox="0 0 512.001 512.001" style="enable-background:new 0 0 512.001 512.001;" xml:space="preserve">
<path style="fill:#AA8B65;" d="M434.728,215.467h-39.126v75.485c-0.309,0.309-0.486,0.486-0.797,0.797h-47.831v-21.911
	c0-8.409-6.462-15.645-14.861-16.04c-8.968-0.423-16.372,6.724-16.372,15.599v23.122c0,16.836,13.648,30.484,30.484,30.484h42.361
	c-0.991,2.156-2.077,4.271-3.269,6.336l-88.014,152.445l-96.5-72.932h24.37c16.836,0,30.484-13.648,30.484-30.484v-22.68
	c0-8.409-6.463-15.645-14.862-16.039c-8.968-0.422-16.372,6.725-16.372,15.599v22.352h-62.345c-0.008,0-0.016,0-0.024,0
	c-1.617,0.003-3.2-0.453-4.49-1.426l-4.357-3.294c-8.531-6.448-13.547-16.524-13.547-27.22v-48.934h-39.126l0.109,68.649
	c0.015,10.616,4.969,20.619,13.404,27.064l155.503,118.818l55.484,0.747l99.44-172.233c6.743-11.679,10.291-24.929,10.286-38.416
	L434.728,215.467z"/>
<path style="fill:#338878;" d="M187.712,50.126C185.431,22.065,161.952,0,133.304,0S81.176,22.065,78.896,50.126
	c-45.763,20.84-77.78,67.062-77.78,120.4v142.892h264.377V170.526C265.492,117.187,233.475,70.965,187.712,50.126z"/>
<path style="fill:#28675A;" d="M186.787,50.126C184.506,22.065,161.026,0,132.379,0c-16.889,0-31.975,7.672-41.988,19.717
	c3.782-0.829,7.707-1.282,11.739-1.282c28.648,0,52.127,22.065,54.407,50.126c45.763,20.84,77.78,67.062,77.78,120.4v124.457h30.248
	V170.526C264.567,117.187,232.55,70.965,186.787,50.126z"/>
<path style="fill:#338878;" d="M415.366,0.805L415.366,0.805c-35.178,0-66.072,19.276-82.648,47.785
	c-2.598-0.837-5.367-1.295-8.243-1.295c-14.831,0-26.854,12.023-26.854,26.854c0,13.252,9.602,24.254,22.226,26.448v125.296h191.039
	V96.324C510.885,43.789,467.902,0.805,415.366,0.805z"/>
<path style="fill:#28675A;" d="M415.366,0.805L415.366,0.805c-12.363,0-24.19,2.389-35.059,6.713
	c51.05,1.725,92.278,44.007,92.278,95.457v122.919h38.3V96.324C510.885,43.789,467.902,0.805,415.366,0.805z"/>
<g>
	<path style="fill:#5FBDAB;" d="M28.895,313.42v-57.546c0-4.315,3.497-7.813,7.813-7.813s7.813,3.498,7.813,7.813v57.546H28.895z"/>
	<path style="fill:#5FBDAB;" d="M66.229,313.42V158.025c0-4.315,3.497-7.813,7.813-7.813c4.316,0,7.813,3.498,7.813,7.813V313.42
		L66.229,313.42L66.229,313.42z"/>
	<path style="fill:#5FBDAB;" d="M103.563,313.42v-95.261c0-4.315,3.497-7.813,7.813-7.813c4.316,0,7.813,3.498,7.813,7.813v95.261
		H103.563z"/>
	<path style="fill:#5FBDAB;" d="M140.897,313.42V190.297c0-4.315,3.497-7.813,7.813-7.813s7.813,3.498,7.813,7.813V313.42
		L140.897,313.42L140.897,313.42z"/>
	<path style="fill:#5FBDAB;" d="M178.231,313.42V187.851c0-4.315,3.497-7.813,7.813-7.813s7.813,3.498,7.813,7.813v125.567
		L178.231,313.42L178.231,313.42L178.231,313.42z"/>
	<path style="fill:#5FBDAB;" d="M215.565,313.42v-72.45c0-4.315,3.497-7.813,7.813-7.813c4.316,0,7.813,3.498,7.813,7.813v72.45
		H215.565z"/>
	<path style="fill:#5FBDAB;" d="M349.988,225.896v-80.961c0-4.315,3.497-7.813,7.813-7.813s7.813,3.498,7.813,7.813v80.961
		C365.615,225.896,349.988,225.896,349.988,225.896z"/>
	<path style="fill:#5FBDAB;" d="M380.832,225.896v-51.871c0-4.315,3.497-7.813,7.813-7.813c4.316,0,7.813,3.498,7.813,7.813v51.871
		C396.459,225.896,380.832,225.896,380.832,225.896z"/>
	<path style="fill:#5FBDAB;" d="M411.677,225.896v-80.961c0-4.315,3.497-7.813,7.813-7.813c4.316,0,7.813,3.498,7.813,7.813v80.961
		C427.303,225.896,411.677,225.896,411.677,225.896z"/>
	<path style="fill:#5FBDAB;" d="M442.521,225.896v-66.38c0-4.315,3.497-7.813,7.813-7.813c4.316,0,7.813,3.498,7.813,7.813v66.38
		H442.521z"/>
	<path style="fill:#5FBDAB;" d="M473.92,225.896v-51.871c0-4.315,3.497-7.813,7.813-7.813s7.813,3.498,7.813,7.813v51.871
		C489.547,225.896,473.92,225.896,473.92,225.896z"/>
</g>
<g>
	<rect x="395.599" y="225.895" style="opacity:0.5;fill:#574632;enable-background:new    ;" width="39.159" height="18.437"/>
	<rect x="100.535" y="313.423" style="opacity:0.5;fill:#574632;enable-background:new    ;" width="39.159" height="18.437"/>
</g>
<g>
</g>
<g>
</g>
<g>
</g>
<g>
</g>
<g>
</g>
<g>
</g>
<g>
</g>
<g>
</g>
<g>
</g>
<g>
</g>
<g>
</g>
<g>
</g>
<g>
</g>
<g>
</g>
<g>
</g>
</svg>
