<svg height="512" viewBox="0 0 64 64" width="512" xmlns="http://www.w3.org/2000/svg"><path d="m19 42a1 1 0 0 1 -.555-.168l-3-2 1.11-1.664 2.562 1.708 4.512-1.8.742 1.858-5 2a.991.991 0 0 1 -.371.066z" fill="#b79688"/><path d="m54.8 40.4-2.576-3.434 1.608-2.411-1.664-1.11-1.752 2.628-6.558.937.284 1.98 6.413-.917 2.645 3.527z" fill="#b79688"/><path d="m24.95 35.5h5.099v2h-5.099z" fill="#b79688" transform="matrix(.196 -.981 .981 .196 -13.688 56.3)"/><path d="m40 32.586h2v2.828h-2z" fill="#b79688" transform="matrix(.707 -.707 .707 .707 -12.033 38.95)"/><path d="m54.548 13.055a4.992 4.992 0 1 0 -9.415-3.163 2.987 2.987 0 0 0 -4.555.352 3.953 3.953 0 0 0 -5.637-1.657 4.944 4.944 0 0 0 .059-.587 5 5 0 0 0 -10 0 4.944 4.944 0 0 0 .059.587 3.955 3.955 0 0 0 -4.3.1 3.988 3.988 0 1 0 -7.174 3.374 2.977 2.977 0 0 0 -3.4 3.96c-.065 0-.125-.019-.19-.019a3.994 3.994 0 0 0 -1.656 7.632 2.975 2.975 0 0 0 3.675 4.178c0 .065-.019.125-.019.19a4 4 0 0 0 7.29 2.268 2.995 2.995 0 0 0 5.651-1.855 3.916 3.916 0 0 0 4.634-.376 3.987 3.987 0 0 0 7.345-1.245 2.924 2.924 0 0 0 2.2-.012 2.993 2.993 0 0 0 5.885-.782 3 3 0 1 0 5.792-1.08 4 4 0 0 0 3.208-3.92 3.991 3.991 0 0 0 .548-7.945z" fill="#55b56a"/><g fill="#8ec13f"><path d="m28 11a2.981 2.981 0 0 0 -2 .78 2.987 2.987 0 0 0 -5 2.22h2a1 1 0 0 1 2 0h2a1 1 0 0 1 2 0h2a3 3 0 0 0 -3-3z"/><path d="m21 17a2.981 2.981 0 0 0 -2 .78 2.987 2.987 0 0 0 -5 2.22h2a1 1 0 0 1 2 0h2a1 1 0 0 1 2 0h2a3 3 0 0 0 -3-3z"/><path d="m28 20a2.981 2.981 0 0 0 -2 .78 2.987 2.987 0 0 0 -5 2.22h2a1 1 0 0 1 2 0h2a1 1 0 0 1 2 0h2a3 3 0 0 0 -3-3z"/><path d="m49 13a2.981 2.981 0 0 0 -2 .78 2.987 2.987 0 0 0 -5 2.22h2a1 1 0 0 1 2 0h2a1 1 0 0 1 2 0h2a3 3 0 0 0 -3-3z"/><path d="m39 16a3 3 0 0 0 -3 3h2a1 1 0 0 1 2 0h2a1 1 0 0 1 2 0h2a2.987 2.987 0 0 0 -5-2.22 2.981 2.981 0 0 0 -2-.78z"/></g><path d="m44 25v6l-5 7-5-14v-8h-4v8l3 14v6l-11-12v-4h-4v5l15 18 2 4-2 6h8v-7l-2-4 2-5 7-12v-8z" fill="#ceac9a"/></svg>