<?xml version="1.0" encoding="UTF-8" standalone="no"?>
<svg
   xmlns:dc="http://purl.org/dc/elements/1.1/"
   xmlns:cc="http://creativecommons.org/ns#"
   xmlns:rdf="http://www.w3.org/1999/02/22-rdf-syntax-ns#"
   xmlns:svg="http://www.w3.org/2000/svg"
   xmlns="http://www.w3.org/2000/svg"
   xmlns:sodipodi="http://sodipodi.sourceforge.net/DTD/sodipodi-0.dtd"
   xmlns:inkscape="http://www.inkscape.org/namespaces/inkscape"
   id="svg6641"
   version="1.1"
   class=""
   width="512px"
   viewBox="-17 0 512 512"
   height="512px"
   sodipodi:docname="logs_normal.svg"
   inkscape:version="0.92.4 (5da689c313, 2019-01-14)">
  <sodipodi:namedview
     pagecolor="#ffffff"
     bordercolor="#666666"
     borderopacity="1"
     objecttolerance="10"
     gridtolerance="10"
     guidetolerance="10"
     inkscape:pageopacity="0"
     inkscape:pageshadow="2"
     inkscape:window-width="958"
     inkscape:window-height="991"
     id="namedview15922"
     showgrid="false"
     inkscape:zoom="0.921875"
     inkscape:cx="158.55352"
     inkscape:cy="157.14397"
     inkscape:window-x="-8"
     inkscape:window-y="0"
     inkscape:window-maximized="0"
     inkscape:current-layer="svg6641" />
  <metadata
     id="metadata6647">
    <rdf:RDF>
      <cc:Work
         rdf:about="">
        <dc:format>image/svg+xml</dc:format>
        <dc:type
           rdf:resource="http://purl.org/dc/dcmitype/StillImage" />
        <dc:title></dc:title>
      </cc:Work>
    </rdf:RDF>
  </metadata>
  <defs
     id="defs6645" />
  <g
     id="g9010"
     transform="translate(-845.88165,-236.15904)">
    <g
       id="g9035"
       transform="translate(28,36)">
      <path
         id="path5212-2-29-7"
         style="fill:#6a431b;fill-opacity:1"
         data-old_color="#c66752"
         class=""
         data-original="#C66752"
         d="m 1212.0223,341.30748 -64.1406,64.14062 V 270.15904 H 827.88165 v 381.99999 c 0,18.5 32.17188,34.6602 80,43.3008 37.80469,6.8437 81.23828,8.2422 120.00005,5.1211 69.0195,-5.5508 120,-25.1328 120,-48.4219 V 546.86998 l 134.8516,-134.85156 z m 0,0"
         inkscape:connector-curvature="0" />
      <path
         id="path5214-7-4-3"
         style="fill:#dcb995;fill-opacity:1"
         data-old_color="#fec9a6"
         class="active-path"
         data-original="#FEC9A6"
         d="m 1261.5223,362.51841 c 19.5313,19.53125 29.0196,41.69141 21.211,49.5 -7.8125,7.8125 -29.9727,-1.6875 -49.4922,-21.21875 -19.5313,-19.51953 -29.0313,-41.67968 -21.2188,-49.49218 7.8086,-7.8086 29.9688,1.67968 49.5,21.21093 z m 0,0"
         inkscape:connector-curvature="0" />
      <path
         sodipodi:nodetypes="ccsccc"
         id="path5212-2-2-9-7"
         style="fill:#593817;fill-opacity:1"
         data-old_color="#c66752"
         class=""
         data-original="#C66752"
         d="m 987.88165,330.15904 -160,-60.00001 v 382 c 0,18.5 32.17188,34.6602 80,43.3008 25.18275,4.5588 52.86318,6.7014 79.99663,6.7014 z"
         inkscape:connector-curvature="0" />
      <path
         id="path5218-2-8"
         style="fill:#3e2810;fill-opacity:1"
         class=""
         data-original="#000000"
         d="m 953.11307,405.49693 c -5.5195,0 -10,4.48047 -10,10 0,5.51953 4.4805,10 10,10 5.5195,0 10,-4.48047 10,-10 0,-5.51953 -4.4805,-10 -10,-10 z m 0,0"
         inkscape:connector-curvature="0" />
      <path
         id="path5220-74-3"
         d="m 1099.1133,311.26953 c -6.1807,2.24299 -12.8372,4.29971 -19.916,6.14844 l -0.084,52.54492 c -0.01,5.51953 4.4766,10 10,10 5.5234,0 10,-4.48046 10,-10 z"
         style="fill:#482e12;fill-opacity:1"
         inkscape:connector-curvature="0" />
      <path
         id="path5222-0-9"
         style="fill:#3e2810;fill-opacity:1"
         class=""
         data-original="#000000"
         d="m 879.11307,415.49693 c 0,-5.52344 -4.47656,-10 -10,-10 -5.52344,0 -10,4.47656 -10,10 v 40 c 0,5.52344 4.47656,10 10,10 5.52344,0 10,-4.47656 10,-10 z m 0,0"
         inkscape:connector-curvature="0" />
      <path
         id="path5224-3-6"
         style="fill:#3e2810;fill-opacity:1"
         class=""
         data-original="#000000"
         d="m 889.11307,505.49693 c -5.52344,0 -10,4.47656 -10,10 v 86 c 0,5.52344 4.47656,10 10,10 5.52344,0 10,-4.47656 10,-10 v -86 c 0,-5.52344 -4.47656,-10 -10,-10 z m 0,0"
         inkscape:connector-curvature="0" />
      <path
         id="path5226-9-7"
         style="fill:#482e12;fill-opacity:1"
         class=""
         data-original="#000000"
         d="m 1129.1131,445.49693 c -5.5234,0 -10,4.47656 -10,10 v 40 c 0,5.52344 4.4766,10 10,10 5.5234,0 10,-4.47656 10,-10 v -40 c 0,-5.52344 -4.4766,-10 -10,-10 z m 0,0"
         inkscape:connector-curvature="0" />
      <path
         id="path5228-5-4"
         style="fill:#3e2810;fill-opacity:1"
         class=""
         data-original="#000000"
         d="m 953.11307,445.49693 c -5.5234,0 -10,4.47656 -10,10 v 146 c 0,5.52344 4.4766,10 10,10 5.5234,0 10,-4.47656 10,-10 v -146 c 0,-5.52344 -4.4766,-10 -10,-10 z m 0,0"
         inkscape:connector-curvature="0" />
      <path
         id="path5230-6-2"
         style="fill:#482e12;fill-opacity:1"
         class=""
         data-original="#000000"
         d="m 1049.1131,385.49693 c -5.5234,0 -10,4.47656 -10,10 v 80 c 0,5.52344 4.4766,10 10,10 5.5234,0 10,-4.47656 10,-10 v -80 c 0,-5.52344 -4.4766,-10 -10,-10 z m 0,0"
         inkscape:connector-curvature="0" />
      <path
         id="path5232-52-6"
         style="fill:#482e12;fill-opacity:1"
         class=""
         data-original="#000000"
         d="m 1049.1131,505.49693 c -5.5234,0 -10,4.47656 -10,10 v 40 c 0,5.52344 4.4766,10 10,10 5.5234,0 10,-4.47656 10,-10 v -40 c 0,-5.52344 -4.4766,-10 -10,-10 z m 0,0"
         inkscape:connector-curvature="0" />
      <path
         id="path5220-7-2-3-9"
         d="m 916.18359,658.56641 c -5.52344,0 -10,4.4766 -10,10 v 26.57421 c 0.56718,0.10542 1.12559,0.21509 1.69727,0.31836 5.97251,1.0812 12.08986,2.02291 18.30273,2.83594 v -29.72851 c 0,-5.5234 -4.47661,-10 -10,-10 z"
         style="fill:#3e2810;fill-opacity:1"
         inkscape:connector-curvature="0" />
      <path
         id="path5220-7-0-6-2"
         d="m 906.1875,319.74805 v 64.67383 c 0,5.52343 4.47656,10 10,10 5.52339,0 10,-4.47657 10,-10 V 323.5332 c -6.93105,-1.08709 -13.60438,-2.35795 -20,-3.78515 z"
         style="fill:#3e2810;fill-opacity:1"
         inkscape:connector-curvature="0" />
      <path
         id="path5220-7-5-2-7"
         d="m 1036.1836,631.875 c -5.5234,0 -10,4.48047 -10,10 v 58.82812 c 0.5638,-0.0433 1.1354,-0.0778 1.6973,-0.12304 6.2588,-0.50336 12.3651,-1.12514 18.3027,-1.85156 V 641.875 c 0,-5.51953 -4.4766,-10 -10,-10 z"
         style="fill:#482e12;fill-opacity:1"
         inkscape:connector-curvature="0" />
      <path
         id="path5220-7-6-2-3"
         d="m 1116.1875,644.39453 c -5.5234,0 -10.0007,4.47659 -10,10 v 31.41602 c 7.586,-2.60282 14.292,-5.4591 20,-8.51953 v -0.0215 -22.875 c 0,-5.5234 -4.4766,-10 -10,-10 z"
         style="fill:#482e12;fill-opacity:1"
         inkscape:connector-curvature="0" />
      <path
         id="path5216-9-3-8"
         style="fill:#ce9c68;fill-opacity:1"
         data-old_color="#fec9a6"
         class="active-path"
         data-original="#FEC9A6"
         d="m 987.88165,210.15904 c -88.37109,0 -160,26.85937 -160,60 0,33.14062 71.62891,60 160,60 88.37105,0 160.00005,-26.85938 160.00005,-60 0,-33.14063 -71.629,-60 -160.00005,-60 z m 0,0"
         inkscape:connector-curvature="0" />
      <path
         id="path5216-3-7-9-2"
         style="fill:#dcb995;fill-opacity:1;stroke-width:0.68844628"
         data-old_color="#fec9a6"
         class="active-path"
         data-original="#FEC9A6"
         d="m 987.88165,231.65904 c -67.01474,0 -121.33333,16.7871 -121.33333,37.5 0,20.71289 54.31859,37.49999 121.33333,37.49999 67.01475,0 121.33335,-16.7871 121.33335,-37.49999 0,-20.7129 -54.3186,-37.5 -121.33335,-37.5 z m 0,0"
         inkscape:connector-curvature="0" />
      <path
         sodipodi:nodetypes="csccccc"
         id="path5216-9-9-7-3"
         style="opacity:1;vector-effect:none;fill:#c99259;fill-opacity:1;stroke-width:1;stroke-linecap:butt;stroke-linejoin:miter;stroke-miterlimit:4;stroke-dasharray:none;stroke-dashoffset:0;stroke-opacity:1"
         data-old_color="#fec9a6"
         class="active-path"
         data-original="#FEC9A6"
         d="m 987.88165,210.15904 c -88.37109,0 -160,26.85937 -160,60 0,33.14062 71.62891,60 160,60 v -23.50001 l -116.5,-36.5 116.5,-38.49999 z"
         inkscape:connector-curvature="0" />
      <path
         sodipodi:nodetypes="cscc"
         id="path5216-3-7-5-3-8"
         style="fill:#d8af86;fill-opacity:1;stroke-width:0.68844628"
         data-old_color="#fec9a6"
         class="active-path"
         data-original="#FEC9A6"
         d="m 987.88165,231.65904 c -67.01474,0 -121.33333,16.7871 -121.33333,37.5 0,20.71289 54.31859,37.49999 121.33333,37.49999 z"
         inkscape:connector-curvature="0" />
    </g>
  </g>
</svg>
