<svg xmlns="http://www.w3.org/2000/svg" viewBox="0 0 512 512" width="512" height="512">
	<style>
		tspan { white-space:pre }
		.shp0 { fill: #654628 } 
		.shp1 { fill: #1d7b9b } 
		.shp2 { opacity: 0.2;fill: #ffffff } 
		.shp3 { fill: #15566d } 
		.shp4 { fill: #553b22 } 
		.shp5 { fill: #676767 } 
		.shp6 { fill: #595959 } 
	</style>
	<path id="Layer" class="shp0" d="M181.55 371.27C181.55 368.45 180.43 365.73 178.43 363.73L148.26 333.56C144.09 329.39 137.33 329.39 133.17 333.56L37.21 429.52C33.05 433.68 33.05 440.43 37.21 444.6L67.38 474.77C71.55 478.93 78.3 478.93 82.47 474.77L178.43 378.81C180.43 376.81 181.55 374.1 181.55 371.27Z" />
	<path id="Layer" class="shp1" d="M490.8 96.62C492.21 95.2 493.19 93.41 493.65 91.47L511.73 13.06C512.54 9.48 511.46 5.73 508.87 3.13C506.27 0.52 502.51 -0.55 498.93 0.27L420.52 18.34C418.57 18.79 416.79 19.77 415.38 21.19L140.72 295.84C136.55 300.01 136.55 306.76 140.72 310.93L201.05 371.28C203.05 373.28 205.77 374.4 208.6 374.4C211.43 374.4 214.14 373.28 216.14 371.28L490.8 96.62Z" />
	<path id="Layer" fill-rule="evenodd" class="shp2" d="M512.73 13.06L494.65 91.47C494.19 93.41 493.21 95.2 491.8 96.62L217.14 371.28C215.14 373.28 212.43 374.4 209.6 374.4C206.77 374.4 204.05 373.28 202.05 371.28L141.72 310.93C137.55 306.76 137.55 300.01 141.72 295.84L416.38 21.19C417.79 19.77 419.57 18.79 421.52 18.34L499.93 0.27C503.51 -0.55 507.27 0.52 509.87 3.13C512.46 5.73 513.54 9.48 512.73 13.06ZM502.32 10.66L423.92 28.73L149.26 303.39L209.6 363.73L484.26 89.07L502.32 10.66Z" />
	<path id="Layer" class="shp3" d="M170.88 341.1C166.72 336.93 166.72 330.18 170.88 326.01L364.12 132.79C368.29 128.62 375.04 128.62 379.2 132.79C383.37 136.95 383.37 143.71 379.2 147.87L185.97 341.1C181.8 345.26 175.05 345.26 170.88 341.1Z" />
	<g id="Layer">
		<path id="Layer" class="shp4" d="M77.25 389.48L167.75 389.48L178.43 378.81C180.43 376.81 181.55 374.1 181.55 371.27C181.55 370.2 181.39 369.15 181.08 368.15L98.58 368.15L77.25 389.48Z" />
		<path id="Layer" class="shp4" d="M143.84 413.4L53.33 413.4L37.21 429.52C35.73 431.01 34.78 432.82 34.35 434.73L122.51 434.73L143.84 413.4Z" />
	</g>
	<g id="Layer">
		<path id="Layer" class="shp5" d="M253.85 393.9L118.08 258.14C113.92 253.97 107.17 253.97 103.01 258.14L80.37 280.76C76.21 284.93 76.21 291.68 80.37 295.84L216.14 431.6C218.14 433.6 220.85 434.73 223.68 434.73C226.51 434.73 229.22 433.6 231.22 431.6L253.85 408.98C258.01 404.82 258.01 398.06 253.85 393.9Z" />
		<path id="Layer" class="shp5" d="M85.33 469.32C85.33 457.93 80.89 447.21 72.83 439.15C56.19 422.51 29.13 422.51 12.49 439.15C4.44 447.21 0 457.93 0 469.32C0 480.71 4.44 491.43 12.49 499.49L12.49 499.49L12.49 499.49C20.55 507.55 31.27 511.99 42.66 511.99C54.06 511.99 64.77 507.55 72.83 499.49C80.89 491.43 85.33 480.71 85.33 469.32Z" />
	</g>
	<path id="Layer" class="shp6" d="M42.66 479.99C36.77 479.99 32 475.22 32 469.32C32 463.41 36.77 458.64 42.66 458.64C48.56 458.64 53.33 463.41 53.33 469.32C53.33 475.22 48.56 479.99 42.66 479.99Z" />
	<g id="Layer">
	</g>
	<g id="Layer">
	</g>
	<g id="Layer">
	</g>
	<g id="Layer">
	</g>
	<g id="Layer">
	</g>
	<g id="Layer">
	</g>
	<g id="Layer">
	</g>
	<g id="Layer">
	</g>
	<g id="Layer">
	</g>
	<g id="Layer">
	</g>
	<g id="Layer">
	</g>
	<g id="Layer">
	</g>
	<g id="Layer">
	</g>
	<g id="Layer">
	</g>
	<g id="Layer">
	</g>
</svg>