<svg xmlns="http://www.w3.org/2000/svg" viewBox="0 0 497 497" width="497" height="497">
	<style>
		tspan { white-space:pre }
		.shp0 { fill: #4d351e } 
		.shp1 { fill: #654628 } 
		.shp2 { fill: #3d2a18 } 
		.shp3 { fill: #bbe1e7 } 
		.shp4 { fill: #1c6c89 } 
		.shp5 { fill: #1d7b9b } 
		.shp6 { fill: #676767 } 
		.shp7 { fill: #767676 } 
		.shp8 { fill: #505050 } 
	</style>
	<path id="Layer" class="shp0" d="M120.85 392.01L97.07 368.22L73.28 392.01L89.14 423.72L120.85 392.01Z" />
	<path id="Layer" class="shp1" d="M81.21 415.79L104.99 423.72L128.78 399.93L112.92 384.08L81.21 415.79Z" />
	<path id="Layer" class="shp2" d="M89.14 407.86L73.28 392.01L57.42 407.86L73.28 439.58L89.14 407.86Z" />
	<path id="Layer" class="shp0" d="M65.35 431.65L89.14 439.58L104.99 423.72L89.14 407.86L65.35 431.65Z" />
	<path id="Layer" class="shp0" d="M57.42 471.29L73.28 423.72L57.42 407.86L25.71 439.58L57.42 471.29Z" />
	<path id="Layer" class="shp1" d="M89.17 439.55L57.46 471.26L41.61 455.4L73.32 423.7L89.17 439.55Z" />
	<path id="Layer" class="shp3" d="M136.71 360.29L138.69 358.31L136.71 360.29Z" />
	<path id="Layer" class="shp4" d="M495.13 1.86C493.78 0.51 491.78 -0.2 489.45 0.05L429.88 6.59C427.64 6.84 425.4 7.96 423.65 9.71L100.91 332.46L132.89 404.11L478.97 48.03L495.13 1.86Z" />
	<path id="Layer" class="shp5" d="M164.54 396.09L487.29 73.35C489.04 71.6 490.16 69.36 490.41 67.12L496.95 7.55C497.2 5.22 496.49 3.22 495.13 1.86L112.89 384.11L164.54 396.09Z" />
	<path id="Layer" class="shp6" d="M140.63 378.11L100.43 337.91L77.97 360.38C75.78 362.56 76.26 366.59 79.03 369.36L94.1 384.44L140.63 378.11Z" />
	<path id="Layer" class="shp7" d="M138.26 420.67L160.73 398.2L120.53 358.01L94.1 384.44L129.27 419.61C132.05 422.38 136.07 422.86 138.26 420.67L138.26 420.67Z" />
	<path id="Layer" class="shp6" d="M33.64 429.72C52.24 429.72 67.28 444.76 67.28 463.36C67.28 481.96 52.24 497 33.64 497C15.04 497 0 481.96 0 463.36C0 444.76 15.04 429.72 33.64 429.72Z" />
	<path id="Layer" class="shp8" d="M33.64 452.15C39.84 452.15 44.85 457.16 44.85 463.36C44.85 469.56 39.84 474.57 33.64 474.57C27.44 474.57 22.43 469.56 22.43 463.36C22.43 457.16 27.44 452.15 33.64 452.15Z" />
	<path id="Layer" class="shp6" d="M209.29 425.98L216 406.09C184.85 403.57 157.77 391.62 137.7 371.55L131.28 365.14L119.32 369.03L115.43 380.99L121.84 387.41C144.26 409.83 174.5 423.17 209.29 425.98L209.29 425.98Z" />
	<path id="Layer" class="shp8" d="M124.87 358.72C104.8 338.65 92.85 311.58 90.33 280.42L70.44 287.14C73.26 321.93 86.6 352.16 109.01 374.58L115.43 381L131.28 365.14L124.87 358.72Z" />
</svg>