<svg height="464pt" viewBox="0 -124 464 464" width="464pt" xmlns="http://www.w3.org/2000/svg"><g fill="#22689c"><path d="m256 56-16-56c-40 8-72 48-72 48l-10 12.664062h100.664062zm0 0"/><path d="m360 88 16-40c-24 0-54.097656 23.199219-54.097656 23.199219l-9.902344 7.464843zm0 0"/><path d="m220.664062 190.664062c21.359376 17.023438 48.027344 25.992188 75.335938 25.335938l-16-32-7.335938-12.664062-62.664062 6.664062c3.003906 4.65625 6.585938 8.914062 10.664062 12.664062zm0 0"/><path d="m360 152 8 56c-22.128906-6.902344-42.335938-18.886719-59-35l-12.335938-11.664062 62-19.335938zm0 0"/><path d="m464 192v-144c-15.367188 0-30.101562 6.101562-40.96875 16.96875l-23.03125 23.03125v64l23.03125 23.03125c10.867188 10.867188 25.601562 16.96875 40.96875 16.96875zm0 0"/></g><path d="m400 88h-3.335938c-25.824218-.277344-51.300781-6.003906-74.761718-16.800781-33.710938-15.03125-83-24.535157-137.902344-24.535157-101.601562 0-184 32.535157-184 72.671876 0 40.136718 82.398438 72.664062 184 72.664062 55.886719 0 105.9375-9.847656 139.671875-25.382812 22.152344-9.894532 46.179687-14.882813 70.441406-14.617188h5.886719zm0 0" fill="#4398d1"/><path d="m.929688 112c-.613282 2.398438-.92578175 4.863281-.929688 7.335938 0 40.128906 82.398438 72.664062 184 72.664062 55.886719 0 105.9375-9.847656 139.671875-25.382812 22.152344-9.894532 46.179687-14.882813 70.441406-14.617188h5.886719v-40zm0 0" fill="#87ced9"/><path d="m72 96c0 8.835938-7.164062 16-16 16s-16-7.164062-16-16 7.164062-16 16-16 16 7.164062 16 16zm0 0" fill="#0a4a7a"/><path d="m88 184c-1.738281-1.234375-2.910156-3.109375-3.257812-5.214844-.347657-2.101562.15625-4.257812 1.402343-5.984375l17.039063-23.855469c9.269531-12.960937 9.960937-30.1875 1.761718-43.847656l-7.800781-13.027344 13.710938-8.222656 7.808593 13.015625c11.476563 19.125 10.511719 43.230469-2.457031 61.375l-17.007812 23.90625c-1.234375 1.738281-3.109375 2.910157-5.214844 3.257813-2.101563.347656-4.253906-.15625-5.984375-1.402344zm0 0" fill="#22689c"/><path d="m156.128906 192.089844c-11.367187-.011719-22.515625-3.121094-32.25-8.992188l8.242188-13.722656c19.207031 11.644531 44.003906 7.785156 58.765625-9.144531h-46.886719v-16h64c3.105469 0 5.929688 1.792969 7.25 4.605469 1.316406 2.8125.890625 6.128906-1.097656 8.515624l-10.152344 12.167969c-11.800781 14.277344-29.351562 22.546875-47.871094 22.570313zm0 0" fill="#22689c"/><path d="m144 104h216v16h-216zm0 0" fill="#22689c"/><path d="m432 112h32v16h-32zm0 0" fill="#0a4a7a"/><path d="m432 80h32v16h-32zm0 0" fill="#0a4a7a"/><path d="m432 144h32v16h-32zm0 0" fill="#0a4a7a"/><path d="m44.800781 121.601562-34.746093-25.953124c-3.628907 4.007812-6.449219 8.679687-8.300782 13.757812l33.445313 24.992188zm0 0" fill="#22689c"/></svg>