<svg xmlns="http://www.w3.org/2000/svg" viewBox="0 0 512 512"><defs><style>.a{fill:#9b1d1d;}.b{fill:#7c1919;}.c{fill:#8c1c1c;}.d{fill:#b61a1a;}</style></defs><title>Artboard 118</title><path class="a" d="M492,512H287.16l-24.3-12.12c-8.38-4.85-14.27-5.68-22.79-5.68H210.78c-9.35,0-14.75,1.39-20.84,5.47L171.38,512H37.81V449.68H492Z"/><polygon class="a" points="331.69 345.05 265.83 279.2 202.96 237.1 215.91 170.14 215.91 104.63 124.02 104.63 37.81 193.68 37.81 327.25 162.52 451.89 491.99 451.89 331.69 345.05"/><path class="b" d="M73.47,489.77c-4.92,0-8.93,5.06-8.93,11.29V512H82.33V501.06c0-6.23-4-11.29-8.86-11.29Zm35.59,0c-4.91,0-8.93,5.06-8.93,11.29V512H118V501.06c0-6.23-4-11.29-8.93-11.29Zm35.59,0c-4.84,0-8.86,5.06-8.86,11.29V512h17.8V501.06c0-6.23-4-11.29-8.94-11.29Zm169.24,0c-4.92,0-8.93,5.06-8.93,11.29V512h17.79V501.06c0-6.23-4-11.29-8.86-11.29Zm35.59,0c-4.92,0-8.86,5.06-8.86,11.29V512h17.79V501.06c0-6.23-4-11.29-8.93-11.29Zm35.59,0c-4.84,0-8.86,5.06-8.86,11.29V512H394V501.06c0-6.23-4-11.29-8.94-11.29Zm35.66,0c-4.91,0-8.93,5.06-8.93,11.29V512h17.8V501.06c0-6.23-4-11.29-8.87-11.29Zm35.6,0c-4.85,0-8.87,5.06-8.87,11.29V512h17.8V501.06c0-6.23-4-11.29-8.93-11.29Z"/><path class="b" d="M37.81,327.25V451.89H162.52A124.63,124.63,0,0,0,37.81,327.25Z"/><path class="b" d="M447.46,380.71,331.69,345.05S215.91,354,215.91,451.89H492c0-32.06-8-62.52-44.53-71.18Z"/><path class="c" d="M445.25,435.55c-4.37-36.14-41.62-33.72-72.29-42.37a8.86,8.86,0,0,1-5.68-11.29c1.87-4.92,6.09-7,11.28-5.68,42.38,12.81,83.51,13.43,83.93,55.12.14,4.78-1.66,9.55-6.44,10.8h0c-4.78,1.11-9.9-1.8-10.8-6.58Z"/><path class="d" d="M215.91,218.82V165.43a25.15,25.15,0,0,0-25.14-25.21h-3.05a25.2,25.2,0,0,0-25.13,25.21v71.18a25.55,25.55,0,0,0,7.34,17.87l63.77,63.84a25.25,25.25,0,0,0,35.66,0h0a25.27,25.27,0,0,0,0-35.59l-46.11-46.12a25.26,25.26,0,0,1-7.34-17.79Z"/><path class="b" d="M37.81,104.63h89.05v17.8A71.28,71.28,0,0,1,55.6,193.68H37.81Z"/><path class="c" d="M73.47,362.85h0a9,9,0,0,0-8.93,8.93v35.59a17.9,17.9,0,0,0,17.79,17.87h26.73A9,9,0,0,0,118,416.3h0a9,9,0,0,0-8.93-8.93H91.27a9,9,0,0,1-8.94-8.86V371.78a8.93,8.93,0,0,0-8.86-8.93Z"/><path class="c" d="M73.47,238.2h0a8.94,8.94,0,0,1,8.86,8.94h0A8.92,8.92,0,0,1,73.47,256h0a8.94,8.94,0,0,1-8.93-8.86h0a9,9,0,0,1,8.93-8.94Z"/><path class="c" d="M73.47,273.8h0a8.93,8.93,0,0,1,8.86,8.93h0a8.94,8.94,0,0,1-8.86,8.93h0a9,9,0,0,1-8.93-8.93h0a9,9,0,0,1,8.93-8.93Z"/><path class="c" d="M198.25,171.38h17.66v17.8H198.39c-9.14,0-9.21,0-9.21-8.87s0-8.93,9.07-8.93Z"/><path class="c" d="M216.39,254.75l12.47-12.53,12.6,12.6-12.4,12.47c-6.44,6.44-6.51,6.44-12.81.14s-6.3-6.31.14-12.68Z"/><path class="c" d="M238.62,277l12.46-12.53,12.61,12.6-12.4,12.46c-6.44,6.44-6.51,6.44-12.81.14s-6.3-6.3.14-12.67Z"/><path class="c" d="M198.25,202.27h17.66v17.79H198.39c-9.14,0-9.21-.07-9.21-8.93s0-8.86,9.07-8.86Z"/><path class="a" d="M36.35,0H217.5a16.37,16.37,0,0,1,16.34,16.34V90.57A16.39,16.39,0,0,1,217.5,107H36.35A16.39,16.39,0,0,1,20,90.57V16.34A16.37,16.37,0,0,1,36.35,0Z"/><path class="b" d="M46.74,44.52V71.25a8.89,8.89,0,0,0,8.86,8.87h0a8.9,8.9,0,0,0,8.94-8.87V53.46a9,9,0,0,1,8.93-8.94h17.8a8.89,8.89,0,0,0,8.86-8.93h0a8.88,8.88,0,0,0-8.86-8.86H64.54a17.88,17.88,0,0,0-17.8,17.79Z"/><path class="b" d="M126.86,26.73h0a8.94,8.94,0,0,1,8.93,8.86h0a9,9,0,0,1-8.93,8.93h0A8.89,8.89,0,0,1,118,35.59h0a8.89,8.89,0,0,1,8.87-8.86Z"/></svg>