<svg id="Layer_1_1_" enable-background="new 0 0 64 64" height="512" viewBox="0 0 64 64" width="512" xmlns="http://www.w3.org/2000/svg"><path d="m50 19h-36c-2.608 3.912-4 8.509-4 13.211v2.789l.9 17.992 4.323.008h35.598l2.279-.011.9-17.989v-2.789c0-4.702-1.392-9.299-4-13.211z" fill="#8c421c"/><path d="m21 19c-1.947 2.596-3 5.754-3 9v25h4v-25c0-3.246 1.053-6.404 3-9z" fill="#fdb62f"/><path d="m43 19h-4c1.947 2.596 3 5.754 3 9v25h4v-25c0-3.246-1.053-6.404-3-9z" fill="#fdb62f"/><path d="m18 39h4v2h-4z" fill="#db9e29"/><path d="m42 39h4v2h-4z" fill="#db9e29"/><g fill="#fdb62f"><path d="m3 12h2v2h-2z"/><path d="m5 14h2v2h-2z"/><path d="m7 12h2v2h-2z"/><path d="m5 10h2v2h-2z"/><path d="m46 12h2v2h-2z"/><path d="m48 14h2v2h-2z"/><path d="m50 12h2v2h-2z"/><path d="m48 10h2v2h-2z"/><path d="m55 9h2v2h-2z"/><path d="m52 5h2v2h-2z"/><path d="m12 14h2v2h-2z"/><path d="m12 6h2v2h-2z"/></g><path d="m10.9 52.992.1 2.008 18 3 3-2 3 2 18-3 .1-2.004z" fill="#783918"/><path d="m60.095 27.76c-.626-5.004-4.88-8.76-9.923-8.76h-.172c2.608 3.912 4 8.509 4 13.211v2.789l-1 20v3h6l1.368-15.731c.21-2.419.292-4.845.246-7.269-.045-2.419-.218-4.836-.519-7.24z" fill="#fdb62f"/><path d="m14 19h-.172c-5.043 0-9.297 3.755-9.923 8.76-.602 4.813-.693 9.677-.273 14.51l1.368 15.73h6v-3l-1-20v-2.789c0-4.702 1.392-9.299 4-13.211z" fill="#fdb62f"/><path d="m10.85 52h-6.372l.522 6h6v-3z" fill="#edab2c"/><path d="m53.15 52-.15 3v3h6l.522-6z" fill="#edab2c"/><path d="m7 32c-.552 0-1-.448-1-1 0-.552.448-1 1-1 .552 0 1 .448 1 1 0 .552-.448 1-1 1z" fill="#30160a"/><path d="m7 40c-.552 0-1-.448-1-1 0-.552.448-1 1-1 .552 0 1 .448 1 1 0 .552-.448 1-1 1z" fill="#30160a"/><path d="m7 48c-.552 0-1-.448-1-1 0-.552.448-1 1-1 .552 0 1 .448 1 1 0 .552-.448 1-1 1z" fill="#30160a"/><path d="m57 32c-.552 0-1-.448-1-1 0-.552.448-1 1-1 .552 0 1 .448 1 1 0 .552-.448 1-1 1z" fill="#30160a"/><path d="m57 40c-.552 0-1-.448-1-1 0-.552.448-1 1-1 .552 0 1 .448 1 1 0 .552-.448 1-1 1z" fill="#30160a"/><path d="m57 48c-.552 0-1-.448-1-1 0-.552.448-1 1-1 .552 0 1 .448 1 1 0 .552-.448 1-1 1z" fill="#30160a"/><path d="m3.386 34h57.229v2h-57.229z" opacity=".16"/><path d="m34.352 40.52-.784-1.84c1.477-.631 2.432-2.075 2.432-3.68 0-2.206-1.794-4-4-4s-4 1.794-4 4c0 1.605.955 3.049 2.433 3.68l-.784 1.84c-2.217-.946-3.649-3.112-3.649-5.52 0-3.309 2.691-6 6-6s6 2.691 6 6c0 2.408-1.432 4.574-3.648 5.52z" fill="#30160a"/><path d="m36 41h-1v-1c0-1.654-1.346-3-3-3s-3 1.346-3 3v1h-1c-.552 0-1 .448-1 1v8c0 .552.448 1 1 1h8c.552 0 1-.448 1-1v-8c0-.552-.448-1-1-1zm-5-1c0-.551.449-1 1-1s1 .449 1 1v1h-2z" fill="#fdb62f"/><path d="m33 45c0-.552-.448-1-1-1s-1 .448-1 1c0 .353.193.648.469.826v3.161h1.063v-3.161c.275-.179.468-.474.468-.826z" fill="#30160a"/></svg>