<svg xmlns="http://www.w3.org/2000/svg" viewBox="0 0 512 512"><defs><style>.a{fill:#674411;}.b{fill:#5d3d11;}.c{fill:#6d4711;}.d{fill:#7c5215;}.e{fill:#6a4612;}.f{fill:#5f3e0f;}.g{fill:#5e3d11;}.h{fill:#4c320e;}</style></defs><title>Artboard 76</title><path class="a" d="M63,74.64,51.21,85.31l7.19,59.26A572.79,572.79,0,0,0,256,512L409.71,225.08,256,0A286.65,286.65,0,0,0,63,74.64Z"/><path class="b" d="M449,74.64l11.82,10.67-7.19,59.26A572.89,572.89,0,0,1,256,512V0A286.85,286.85,0,0,1,449,74.64Z"/><path class="c" d="M332.75,374.45A449,449,0,0,0,407.14,182.1l11-79.68a239.94,239.94,0,0,0-85.39-48.19l-38.6,158.62Z"/><path class="d" d="M252.82,42.65a240.17,240.17,0,0,0-73.65,11.58L137.75,209.46l41.42,165A449.64,449.64,0,0,0,256,460.75l37-221L256,42.65Z"/><path class="e" d="M179.17,374.45V54.23a240.29,240.29,0,0,0-85.31,48.19l11,79.68a449.87,449.87,0,0,0,74.31,192.35Z"/><path class="f" d="M332.75,54.23a239.66,239.66,0,0,0-73.57-11.58H256v418.1a445,445,0,0,0,76.79-86.3Z"/><path class="g" d="M256,179.21l21.9-43.15L256,93.82a42.7,42.7,0,0,0,0,85.39Z"/><path class="h" d="M256,179.21V93.82a42.7,42.7,0,1,1,0,85.39Z"/></svg>