<?xml version="1.0" encoding="iso-8859-1"?>
<!-- Generator: Adobe Illustrator 19.0.0, SVG Export Plug-In . SVG Version: 6.00 Build 0)  -->
<svg version="1.1" id="Capa_1" xmlns="http://www.w3.org/2000/svg" xmlns:xlink="http://www.w3.org/1999/xlink" x="0px" y="0px"
	 viewBox="0 0 512 512" style="enable-background:new 0 0 512 512;" xml:space="preserve">
<path style="fill:#FBBF00;" d="M291.484,113.248c-11.393-32.253-46.776-49.164-79.029-37.771l-61.683,21.789l25.245,71.466
	l119.719-43.45L291.484,113.248z"/>
<g>
	<path style="fill:#FFA900;" d="M176.017,343.267l-25.245,71.466l61.683,21.789c32.253,11.393,67.636-5.517,79.029-37.77
		l4.251-12.035L176.017,343.267z"/>
	<path style="fill:#FFA900;" d="M328.793,119.756c-99.049,0-217.351,78.811-249.175,119.559v33.368
		c31.823,40.749,150.125,119.559,249.175,119.559C444.378,392.243,512,256,512,256S444.378,119.756,328.793,119.756z"/>
</g>
<path style="fill:#FF8800;" d="M79.618,256v16.684c31.823,40.749,150.125,119.559,249.175,119.559C444.378,392.243,512,256,512,256
	H79.618z"/>
<path style="fill:#FBBF00;" d="M512,256c0,0-47.006-94.673-129.609-126.174c-25.911,34.944-41.323,78.691-41.323,126.173
	s15.411,91.229,41.323,126.174C464.994,350.673,512,256,512,256z"/>
<path style="fill:#FFA900;" d="M512,256H341.068c0,47.482,15.411,91.229,41.323,126.174C464.994,350.673,512,256,512,256z"/>
<circle style="fill:#333333;" cx="416.24" cy="221.63" r="15"/>
<path style="fill:#FF8800;" d="M33.53,256h-7.088C11.838,256,0,244.162,0,229.558v-62.027h7.994
	c41.131,0,74.474,33.343,74.474,74.474v27.989c0,41.131-33.343,74.474-74.474,74.474H0v-62.027C0,267.838,11.838,256,26.442,256"/>
<path style="fill:#E47700;" d="M33.53,256h-7.088c-14.603,0,56.027,0,56.027,0v13.995c0,41.131-33.343,74.474-74.474,74.474H0
	v-62.027C0,267.838,11.838,256,26.442,256"/>
<g>
</g>
<g>
</g>
<g>
</g>
<g>
</g>
<g>
</g>
<g>
</g>
<g>
</g>
<g>
</g>
<g>
</g>
<g>
</g>
<g>
</g>
<g>
</g>
<g>
</g>
<g>
</g>
<g>
</g>
</svg>
