<svg height="512pt" viewBox="-61 0 512 512.001" width="512pt" xmlns="http://www.w3.org/2000/svg"><g fill="#ff0059"><path d="m284.996094 179.261719 67.5-12.007813 35.886718-37.683594c-1.148437-2.390624-2.792968-4.527343-5.066406-6.046874l-180-120.996094c-2.519531-1.683594-5.417968-2.527344-8.320312-2.527344l-15 91.003906 15 40.253906 31.25 34.746094zm0 0"/><path d="m105 179.261719-41.25-42.007813-62.136719-7.683594c-.957031 1.996094-1.613281 4.15625-1.613281 6.433594v239.996094c0 2.28125.65625 4.441406 1.613281 6.4375l69.636719-8.9375 33.75-40.753906 20-81.742188zm0 0"/><path d="m284.996094 332.746094-52.5 9.507812-37.5 38.492188-15 62.503906 15 68.75c2.902344 0 5.800781-.835938 8.320312-2.519531l180-121c2.273438-1.515625 3.917969-3.652344 5.066406-6.042969l-43.386718-41.433594zm0 0"/></g><path d="m194.996094 131.257812v-131.257812c-2.898438 0-5.800782.84375-8.316406 2.527344l-180 120.996094c-2.273438 1.519531-3.917969 3.65625-5.066407 6.046874l103.386719 49.691407zm0 0" fill="#ff5e95"/><path d="m284.996094 332.746094 103.386718 49.691406c.957032-1.996094 1.613282-4.15625 1.613282-6.4375v-239.996094c0-2.277344-.65625-4.4375-1.613282-6.433594l-103.386718 49.691407zm0 0" fill="#e50048"/><path d="m105 332.746094-103.386719 49.691406c1.148438 2.390625 2.792969 4.527344 5.066407 6.046875l180 120.996094c2.519531 1.683593 5.417968 2.519531 8.316406 2.519531v-131.253906zm0 0" fill="#ff5e95"/><path d="m284.996094 179.203125v153.597656l-90 48-89.996094-48v-153.597656l89.996094-48zm0 0" fill="#ffa2c3"/><path d="m284.996094 179.203125v153.597656l-90 48v-249.597656zm0 0" fill="#ff5e95"/></svg>