<?xml version="1.0" encoding="iso-8859-1"?>
<!-- Generator: Adobe Illustrator 19.0.0, SVG Export Plug-In . SVG Version: 6.00 Build 0)  -->
<svg version="1.1" id="Layer_1" xmlns="http://www.w3.org/2000/svg" xmlns:xlink="http://www.w3.org/1999/xlink" x="0px" y="0px"
	 viewBox="0 0 512 512" style="enable-background:new 0 0 512 512;" xml:space="preserve">
<polygon style="fill:#ECF8FD;" points="423.724,75.034 512,180.966 374.634,180.966 "/>
<polygon style="fill:#CBEDF9;" points="256,75.034 374.634,180.966 423.724,75.034 "/>
<polygon style="fill:#AAE2F5;" points="512,180.966 256,436.966 374.634,180.966 "/>
<polygon style="fill:#7DD2F0;" points="88.276,75.034 0,180.966 137.366,180.966 "/>
<polygon style="fill:#64B9DC;" points="256,75.034 137.366,180.966 88.276,75.034 "/>
<polygon style="fill:#AAE2F5;" points="256,75.034 137.366,180.966 374.634,180.966 "/>
<polygon style="fill:#7DD2F0;" points="137.366,180.966 256,436.966 374.634,180.966 "/>
<polygon style="fill:#64B9DC;" points="0,180.966 256,436.966 137.366,180.966 "/>
<g>
	<path style="fill:#FFFFFF;" d="M434.955,128.531c-17.301-3.945-30.92-17.564-34.863-34.865c-0.297-1.303-2.022-1.303-2.319,0
		c-3.944,17.301-17.564,30.92-34.863,34.865c-1.303,0.297-1.303,2.022,0,2.319c17.301,3.944,30.92,17.562,34.863,34.863
		c0.297,1.303,2.022,1.303,2.319,0c3.944-17.301,17.564-30.92,34.863-34.863C436.257,130.552,436.257,128.828,434.955,128.531z"/>
	<path style="fill:#FFFFFF;" d="M394.522,192.124c-13.58-3.518-24.273-14.209-27.789-27.789c-0.353-1.364-2.119-1.364-2.472,0
		c-3.518,13.58-14.209,24.273-27.789,27.789c-1.364,0.353-1.364,2.119,0,2.472c13.58,3.517,24.273,14.209,27.789,27.789
		c0.353,1.364,2.119,1.364,2.472,0c3.517-13.581,14.209-24.273,27.789-27.789C395.887,194.242,395.887,192.477,394.522,192.124z"/>
</g>
<g>
</g>
<g>
</g>
<g>
</g>
<g>
</g>
<g>
</g>
<g>
</g>
<g>
</g>
<g>
</g>
<g>
</g>
<g>
</g>
<g>
</g>
<g>
</g>
<g>
</g>
<g>
</g>
<g>
</g>
</svg>
