<?xml version="1.0" encoding="iso-8859-1"?>
<!-- Generator: Adobe Illustrator 19.0.0, SVG Export Plug-In . SVG Version: 6.00 Build 0)  -->
<svg version="1.1" id="Layer_1" xmlns="http://www.w3.org/2000/svg" xmlns:xlink="http://www.w3.org/1999/xlink" x="0px" y="0px"
	 viewBox="0 0 495.423 495.423" style="enable-background:new 0 0 495.423 495.423;" xml:space="preserve">
<g>
	<path style="fill:#88C057;" d="M452.866,42.557c76.646,76.646,46.933,230.63-66.372,343.936s-267.29,143.019-343.936,66.372
		S-4.376,222.235,108.93,108.93S376.219-34.089,452.866,42.557"/>
	<g>
		<path style="fill:#659C35;" d="M338.216,15.335l0.043,0.094c2.867,7.219-2.441,15.061-10.214,15.061h-6.588
			c-6.938,0-12.134,6.34-10.778,13.141c1.579,7.91-5.615,14.771-13.44,12.817l-16.094-4.019c-7.433-1.86-14.438,4.258-13.585,11.87
			l3.302,29.764c0.58,5.154-2.526,10.001-7.441,11.639l-26.086,8.695c-1.118,0.375-2.295,0.563-3.473,0.563h-23.433
			c-6.067,0-10.991,4.924-10.991,10.991v26.3c0,6.067-4.924,10.982-10.991,10.982h-3.61c-5.47,0-10.112,4.019-10.88,9.438
			l-3.132,21.922c-0.862,6.007-6.426,10.18-12.433,9.327l-18.816-2.688c-6.622-0.947-12.544,4.19-12.544,10.88v11.255
			c0,6.545-5.692,11.639-12.203,10.923l-29.901-3.328c-6.511-0.717-12.203,4.378-12.203,10.923v22.144
			c0,1.178-0.188,2.355-0.563,3.473l-7.501,22.494c-2.116,6.349-9.361,9.344-15.343,6.357l-0.546-0.282
			c-6.289-3.14-13.867,0.35-15.573,7.168l-7.279,29.124c-0.913,3.644-3.627,6.571-7.194,7.765l-10.615,3.541
			c-4.693,1.562-7.885,6.084-7.526,11.017c1.203,16.939,4.548,33.058,10.112,47.974c2.756,7.407,12.425,9.293,18.014,3.703
			l5.973-5.973c1.212-1.203,2.679-2.116,4.301-2.654l24.533-8.175c5.257-1.758,8.388-7.151,7.305-12.587l-1.852-9.259
			c-1.237-6.187,2.97-12.143,9.216-13.039l24.021-3.43c4.113-0.589,7.552-3.456,8.866-7.398l9.361-28.075
			c0.367-1.118,0.563-2.296,0.563-3.473V290.16c0-6.545,5.692-11.648,12.203-10.923l29.901,3.319
			c6.511,0.725,12.203-4.369,12.203-10.923v-11.255c0-6.682,5.922-11.819,12.544-10.871l18.807,2.688
			c6.016,0.853,11.58-3.319,12.433-9.327l3.14-21.922c0.768-5.419,5.41-9.438,10.871-9.438h3.618
			c6.067,0,10.991-4.915,10.991-10.991v-26.291c0-6.067,4.924-10.991,10.991-10.991h23.433c1.178,0,2.347-0.188,3.473-0.563
			l26.086-8.695c4.915-1.638,8.013-6.485,7.441-11.639l-3.311-29.764c-0.845-7.612,6.161-13.73,13.594-11.878l17.084,4.275
			c7.569,1.894,14.643-4.489,13.542-12.211l-1.929-13.525c-0.947-6.613,4.19-12.544,10.88-12.535h0.469
			c6.076,0,10.991-4.924,10.991-10.991v-11.81c0-6.938,6.349-12.143,13.15-10.778l9.805,1.963c4.369,0.87,8.832-0.981,11.298-4.685
			l0.29-0.427c3.797-5.7,1.545-13.5-4.736-16.239C391.601,5.599,370.848,1.153,348.797,0.24
			C340.887-0.093,335.281,7.98,338.216,15.335"/>
		<path style="fill:#659C35;" d="M488.775,105.15c-7.706-0.674-15.923,1.391-18.21,6.571l-5.282,12.006
			c-1.476,3.354-4.497,5.777-8.09,6.494l-17.092,3.422c-4.446,0.887-7.927,4.369-8.815,8.823l-2.594,12.937
			c-1.118,5.623-6.298,9.498-12.006,8.994l-20.659-1.818c-7.074-0.623-12.945,5.393-12.16,12.45l3.516,31.616
			c0.589,5.274-2.586,10.231-7.62,11.913l-25.847,8.619c-1.143,0.375-2.347,0.572-3.558,0.572h-23.134
			c-6.204,0-11.238,5.035-11.238,11.247l-0.009,25.779c0,6.212-5.035,11.247-11.247,11.247h-3.132
			c-5.598,0-10.342,4.113-11.136,9.66l-3.063,21.444c-0.879,6.152-6.571,10.419-12.723,9.54l-18.261-2.603
			c-6.775-0.973-12.843,4.284-12.843,11.127v10.675c0,6.699-5.82,11.913-12.484,11.179l-29.329-3.26
			c-6.665-0.742-12.493,4.471-12.493,11.179v21.811c0,1.212-0.196,2.406-0.572,3.558l-7.398,22.17
			c-2.159,6.494-9.574,9.566-15.693,6.502c-6.434-3.217-14.191,0.35-15.94,7.33l-7.663,30.669c-0.649,2.586-2.193,4.855-4.352,6.409
			l-24.098,17.306c-4.224,3.038-5.436,11.529-4.25,19.149c17.015,4.309,35.26,6.067,54.289,5.35l4.19-4.864
			c5.385-1.801,8.585-7.313,7.475-12.877l-1.758-8.772c-1.263-6.332,3.046-12.433,9.438-13.346l23.586-3.371
			c4.224-0.597,7.731-3.533,9.079-7.569l9.293-27.887c0.384-1.143,0.58-2.347,0.58-3.55v-21.82c0-6.699,5.828-11.913,12.484-11.179
			l29.338,3.26c6.656,0.742,12.484-4.471,12.484-11.17v-10.675c0-6.844,6.059-12.1,12.834-11.136l18.27,2.611
			c6.144,0.879,11.844-3.396,12.723-9.54l3.063-21.453c0.794-5.538,5.538-9.651,11.136-9.651h3.132
			c6.212,0,11.247-5.035,11.247-11.247v-25.788c0-6.204,5.035-11.238,11.247-11.238h23.134c1.212,0,2.406-0.196,3.558-0.58
			l25.847-8.619c5.026-1.673,8.209-6.639,7.62-11.904l-3.251-29.193c-0.862-7.791,6.306-14.054,13.909-12.151l16.358,4.087
			c7.748,1.937,14.985-4.599,13.858-12.501l-1.835-12.851c-0.964-6.775,4.292-12.834,11.127-12.834h1.954
			c5.359,0,9.975-3.78,11.025-9.037l4.233-21.129h3.593C493.571,126.142,491.659,115.407,488.775,105.15"/>
	</g>
</g>
<g>
</g>
<g>
</g>
<g>
</g>
<g>
</g>
<g>
</g>
<g>
</g>
<g>
</g>
<g>
</g>
<g>
</g>
<g>
</g>
<g>
</g>
<g>
</g>
<g>
</g>
<g>
</g>
<g>
</g>
</svg>
