<svg height="496pt" viewBox="0 -1 496.40848 496" width="496pt" xmlns="http://www.w3.org/2000/svg"><path d="m309.738281 355.101562 12.484375 26.617188c9.769532 20.828125 23.84375 42.988281 21.144532 67.046875-2.140626 19.078125-17.875 28.824219-30.386719 41.335937-3.210938 3.21875-7.570313 5.03125-12.117188 5.03125h-2.390625c-6.390625.007813-12.25-3.558593-15.179687-9.238281-2.929688-5.679687-2.445313-12.519531 1.261719-17.726562 6.75-7.386719 12.257812-15.820313 16.308593-24.96875 3.824219-12.585938-4.652343-20.949219-10-31.375l-11.503906-22.433594-15.796875-30.789063h-30.71875l-15.785156 30.789063-11.519532 22.433594c-5.351562 10.425781-13.824218 18.773437-10.003906 31.375 4.054688 9.152343 9.566406 17.582031 16.316406 24.96875 3.707032 5.207031 4.195313 12.046875 1.261719 17.726562-2.929687 5.679688-8.789062 9.246094-15.179687 9.238281h-2.386719c-4.550781 0-8.910156-1.8125-12.121094-5.03125-12.507812-12.511718-28.242187-22.257812-30.386719-41.335937-2.695312-24.058594 11.375-46.21875 21.148438-67.046875l12.484375-26.617188zm0 0" fill="#c03a2b"/><path d="m341.398438 313.289062 11.6875 4.4375h.171874l124.160157 46.933594c8.25 1.335938 14.320312 8.453125 14.335937 16.808594 0 .945312-.085937 1.886719-.253906 2.816406-.734375 4.472656-3.214844 8.46875-6.894531 11.109375-3.683594 2.640625-8.265625 3.710938-12.734375 2.972657l-155.5625-54.273438h-136.207032l-155.566406 54.273438c-4.46875.738281-9.050781-.332032-12.730468-2.972657-3.683594-2.640625-6.160157-6.636719-6.894532-11.109375-.167968-.929687-.253906-1.871094-.253906-2.816406.015625-8.355469 6.082031-15.472656 14.335938-16.808594l124.15625-46.933594h.171874l11.691407-4.4375zm0 0" fill="#d25627"/><path d="m368.277344 282.824219c29.183594-1.535157 71.421875-5.035157 80.554687-10.238281l21.332031-12.203126c5.308594-3.386718 12.054688-3.574218 17.542969-.488281 5.488281 3.089844 8.832031 8.949219 8.699219 15.242188-.136719 6.296875-3.730469 12.007812-9.34375 14.855469l-29.1875 16.726562c-10.921875 6.230469-76.117188 9.984375-104.617188 11.007812h-210.109374c-28.5-1.023437-93.695313-4.777343-104.617188-11.007812l-29.183594-16.726562c-5.617187-2.847657-9.207031-8.558594-9.34374975-14.855469-.13671825-6.292969 3.20703175-12.152344 8.69921875-15.242188 5.488281-3.085937 12.230469-2.898437 17.539063.488281l21.335937 12.203126c9.128906 5.203124 51.371094 8.703124 80.554687 10.238281zm0 0" fill="#c03a2b"/><path d="m121.304688 264.050781c-.382813-.0625-.757813-.175781-1.109376-.339843l-93.441406-36.265626c-5.542968-2.050781-9.53125-6.957031-10.410156-12.800781l-10.066406-65.28125c-3.597656-23.445312.855468-47.417969 12.628906-68.011719 1.457031-2.691406 4.277344-4.363281 7.335938-4.351562 2.289062-.046875 4.492187.835938 6.121093 2.445312 1.625 1.605469 2.527344 3.804688 2.507813 6.089844-.019532 23.898438 4.289062 47.605469 12.714844 69.972656l3.414062 9.214844c5.714844 15.359375 57.085938 46.421875 74.835938 61.015625h244.746093c17.75-14.59375 69.117188-45.65625 74.835938-61.015625l3.414062-9.214844c8.421875-22.367187 12.730469-46.074218 12.707031-69.972656-.023437-2.285156.882813-4.480468 2.503907-6.089844 1.625-1.605468 3.828125-2.488281 6.113281-2.445312 3.0625-.011719 5.878906 1.660156 7.339844 4.351562 11.773437 20.59375 16.222656 44.566407 12.628906 68.011719l-10.070312 65.28125c-.878907 5.84375-4.867188 10.75-10.410157 12.800781l-93.441406 36.265626c-.351563.164062-.726563.277343-1.109375.339843zm0 0" fill="#d25627"/><path d="m130.519531 216.777344c-78.503906-124.5-76.03125-165.546875-7.847656-199.59375 85.332031-42.667969 93.863281 8.53125 93.863281 8.53125-8.105468 2.730468-16.210937 5.375-24.316406 8.109375-10.328125 3.410156-27.222656 5.542969-31.148438 17.148437-1.730468 4.421875-.816406 9.441406 2.363282 12.964844 3.179687 3.523438 8.082031 4.949219 12.65625 3.675781 16.644531-4.429687 33-9.871093 48.980468-16.296875 6.398438-2.132812 17.066407 34.132813-25.601562 51.199219-42.664062 17.066406-76.796875 0-68.265625 34.132813l37.207031 45.3125h159.570313l37.207031-45.3125c8.535156-34.132813-25.601562-17.066407-68.265625-34.132813-42.667969-17.066406-32-53.332031-25.601563-51.199219 15.980469 6.425782 32.339844 11.867188 48.980469 16.296875 4.574219 1.273438 9.476563-.152343 12.65625-3.675781 3.179688-3.523438 4.097657-8.542969 2.363281-12.964844-3.925781-11.605468-20.820312-13.738281-31.144531-17.148437-8.109375-2.734375-16.214843-5.378907-24.320312-8.109375 0 0 8.53125-51.199219 93.867187-8.53125 68.179688 34.046875 70.65625 75.09375-7.851562 199.59375zm0 0" fill="#d25627"/><path d="m248.203125 162.335938c27.835937-.34375 55.296875 6.410156 79.796875 19.625 15.441406 8.113281 28.5 20.113281 37.886719 34.816406 1.832031 2.839844 3.402343 5.839844 4.695312 8.960937 3.695313 8.238281 5.609375 17.164063 5.621094 26.195313-.027344 4.0625-.398437 8.117187-1.109375 12.117187-1.3125 6.566407-3.613281 12.898438-6.824219 18.773438-6.460937 12.113281-15.667969 22.546875-26.882812 30.464843-7.128907 5.351563-14.828125 9.902344-22.953125 13.566407h-1.960938v14.679687c0 .851563-.085937 1.707032-.171875 2.558594-.6875 4.378906-3.042969 8.324219-6.570312 11.007812-2.964844 2.273438-6.59375 3.503907-10.328125 3.5h-102.398438c-3.734375.003907-7.363281-1.226562-10.324218-3.5-3.527344-2.683593-5.882813-6.628906-6.570313-11.007812-.085937-.851562-.171875-1.707031-.171875-2.558594v-14.679687h-1.960938c-8.128906-3.664063-15.824218-8.214844-22.957031-13.566407-11.214843-7.917968-20.417969-18.351562-26.878906-30.464843-3.210937-5.875-5.511719-12.207031-6.828125-18.773438-.710938-4-1.082031-8.054687-1.109375-12.117187.015625-9.03125 1.933594-17.957032 5.632813-26.195313 1.292968-3.121093 2.863281-6.121093 4.695312-8.960937 9.382812-14.703125 22.445312-26.703125 37.886719-34.816406 24.496093-13.214844 51.957031-19.96875 79.785156-19.625zm0 0" fill="#f29c1f"/><path d="m376.203125 251.933594c-.027344 4.0625-.398437 8.117187-1.109375 12.117187-1.3125 6.566407-3.613281 12.898438-6.824219 18.773438-6.460937 12.113281-15.667969 22.546875-26.882812 30.464843-7.128907 5.351563-14.828125 9.902344-22.953125 13.566407h-1.960938v14.679687c0 .851563-.085937 1.707032-.171875 2.558594-.6875 4.378906-3.042969 8.324219-6.570312 11.007812-2.964844 2.273438-6.59375 3.503907-10.328125 3.5h-51.199219v-196.265624c27.832031-.34375 55.292969 6.410156 79.789063 19.625 15.441406 8.113281 28.5 20.113281 37.886718 34.816406 1.832032 2.839844 3.402344 5.839844 4.691406 8.960937 3.699219 8.238281 5.617188 17.164063 5.632813 26.195313zm0 0" fill="#e57e25"/><g fill="#f9eab0"><path d="m222.597656 213.535156c0 4.710938-3.824218 8.53125-8.535156 8.53125-4.714844 0-8.535156-3.820312-8.535156-8.53125 0-4.714844 3.820312-8.535156 8.535156-8.535156 4.710938 0 8.535156 3.820312 8.535156 8.535156zm0 0"/><path d="m290.878906 213.535156c0 4.710938-3.820312 8.53125-8.53125 8.53125-4.714844 0-8.535156-3.820312-8.535156-8.53125 0-4.714844 3.820312-8.535156 8.535156-8.535156 4.710938 0 8.53125 3.820312 8.53125 8.535156zm0 0"/></g></svg>