<?xml version="1.0"?>
<svg xmlns="http://www.w3.org/2000/svg" xmlns:xlink="http://www.w3.org/1999/xlink" version="1.1" id="Capa_1" x="0px" y="0px" viewBox="0 0 48.474 48.474" style="enable-background:new 0 0 48.474 48.474;" xml:space="preserve" width="512px" height="512px" class=""><g><g>
	<path style="fill:#50543A" d="M47.444,33.077l-1.142-1.291c-9.546-10.794-25.168-10.794-34.714,0l-1.142,1.291   c-1.373,1.552-1.373,3.699,0,5.251l1.142,1.291c9.546,10.794,25.168,10.794,34.714,0l1.142-1.291   C48.817,36.776,48.817,34.63,47.444,33.077z" data-original="#6A3311" class="" data-old_color="#6A3311"/>
	<path style="fill:#50543A" d="M30.179,23.726C30.165,10.148,19.424-0.042,5.589,0.807L3.868,0.913   C1.8,1.04,0.282,2.558,0.155,4.626L0.049,6.347c-0.652,10.617,5.2,19.409,14.092,22.934C18.84,25.265,24.548,23.41,30.179,23.726z" data-original="#4C312C" class="" data-old_color="#4C312C"/>
	<path style="fill:#9BA27D" d="M47.766,34.972c-4.965,4.965-13.045,4.965-18.01,0c-5.428-5.428-14.039-5.776-19.878-1.049   c-0.454,0.863-0.561,1.819-0.323,2.729c0.207-0.029,0.409-0.107,0.569-0.266c4.938-4.937,13.281-4.937,18.219,0   c2.872,2.873,6.646,4.309,10.419,4.309c3.298,0,6.595-1.097,9.291-3.291c0.427-0.857,0.517-1.799,0.271-2.696   C48.12,34.739,47.922,34.816,47.766,34.972z" data-original="#753D1F" class="" data-old_color="#753D1F"/>
	<path style="fill:#9BA27D" d="M20.106,25.105c-2.523-2.334-3.011-5.393-3.526-8.632c-0.317-1.987-0.645-4.043-1.453-6.027   C13.029,5.301,8.21,1.706,2.838,1.119C1.921,1.413,1.18,2.007,0.71,2.81C0.877,2.936,1.074,3.025,1.3,3.025   c5.171,0.003,9.983,3.288,11.976,8.176c0.721,1.771,1.03,3.711,1.329,5.588c0.531,3.335,1.087,6.78,3.901,9.545   c0.605-0.32,1.218-0.614,1.84-0.876C20.292,25.328,20.216,25.206,20.106,25.105z" data-original="#684B47" class="active-path" data-old_color="#684B47"/>
</g></g> </svg>
