<?xml version="1.0" encoding="iso-8859-1"?>
<!-- Generator: Adobe Illustrator 19.0.0, SVG Export Plug-In . SVG Version: 6.00 Build 0)  -->
<svg version="1.1" id="Capa_1" xmlns="http://www.w3.org/2000/svg" xmlns:xlink="http://www.w3.org/1999/xlink" x="0px" y="0px"
	 viewBox="0 0 512 512" style="enable-background:new 0 0 512 512;" xml:space="preserve">
<path style="fill:#6F6571;" d="M315.749,35.274l120.432,70.919c14.756-22.54,36.582-42.02,50.752-53.377
	c6.061-4.858,4.005-14.55-3.506-16.529C419.246,19.368,315.749,35.274,315.749,35.274z"/>
<path style="fill:#867E88;" d="M505.506,218.972c-3.659-15.756-9.507-30.918-16.446-45.53
	c-8.412-17.715-18.445-34.656-31.022-49.703C386.846,38.565,258.693,5.984,157.15,21.606C80.841,33.346,0,54.615,0,79.727
	c0,12.993,16.86,29.903,41.617,40.907c11.708,5.204,25.018,4.71,42.29,2.925c10.76,30.719,64.752,41.717,154.734,50.715
	C401.965,190.607,471.979,308.525,398.53,385.74c-27.419,28.826-85.006,42.31-118.913,47.979
	c-56.42-22.215-120.235-24.79-154.758-24.215c-6.506,0.108-8.29,8.987-2.366,11.677l67.79,30.771l-67.265,30.533
	c-5.964,2.707-4.122,11.646,2.427,11.681c35.962,0.189,102.377-3.539,155.488-29.667C348.554,459.298,512,447.108,512,277.428
	C512,256.657,509.734,237.177,505.506,218.972z"/>
<path style="fill:#AEA8AF;" d="M505.188,179.065c-15.896-16.547-59.276-55.415-125.951-68.844
	c-80.053-54.416-191.339-74.18-282.979-61.442c-29.472,4.097-59.545,9.37-86.156,15.564C3.659,69.263,0,74.408,0,79.727
	c0,12.993,16.86,29.903,41.617,40.907c11.708,5.204,25.018,4.71,42.29,2.925c10.76,30.719,64.752,41.717,154.734,50.715
	c113.123,11.312,181.43,71.359,188.36,132.86c26.788,104.533-108.961,151.759-146.067,157.365
	c36.236-2.787,99.976-7.615,151.35-37.578c31.286-26.976,52.895-66.482,52.895-124.81c0-20.569-2.484-39.86-7.118-57.887
	c-4.032-15.686-10.489-30.779-18.147-45.32c-1.559-2.961-3.279-5.851-4.952-8.762l47.031-2.878
	C506.131,187.012,508.06,182.053,505.188,179.065z"/>
<circle style="fill:#4B3F4E;" cx="173.65" cy="54.615" r="16.505"/>
<g>
	<path style="fill:#6F6571;" d="M264.438,107.74c-2.603,0-5.162-1.225-6.77-3.522c-2.607-3.727-1.708-8.861,2.011-11.476
		c0.314-0.23,17.552-12.741,19.225-31.136c0.415-4.537,4.42-7.825,8.966-7.475c4.541,0.415,7.886,4.428,7.475,8.966
		c-2.385,26.212-25.212,42.471-26.183,43.152C267.722,107.256,266.07,107.74,264.438,107.74z"/>
	<path style="fill:#6F6571;" d="M301.271,113.466c-2.277,0-4.541-0.935-6.173-2.772c-3.018-3.397-2.72-8.595,0.665-11.629
		c0.218-0.197,12.121-11.186,11.778-25.071c-0.117-4.557,3.485-8.341,8.043-8.454c4.662-0.302,8.345,3.49,8.454,8.043
		c0.54,21.703-16.561,37.152-17.29,37.8C305.176,112.781,303.221,113.466,301.271,113.466z"/>
	<path style="fill:#6F6571;" d="M333.672,118.313c-2.277,0-4.541-0.935-6.173-2.772c-3.018-3.397-2.72-8.591,0.657-11.621
		c0.189-0.177,9.038-8.393,8.784-18.58c-0.117-4.557,3.486-8.341,8.043-8.454c4.569-0.193,8.341,3.49,8.454,8.043
		c0.451,17.996-13.684,30.765-14.288,31.301C337.577,117.628,335.618,118.313,333.672,118.313z"/>
</g>
<path style="fill:#867E88;" d="M192.657,119.901c-46.012-4.598-79.465-0.193-103.896,3.026c-1.741,0.229-3.336,0.43-4.994,0.645
	c0.047-0.005,0.091-0.008,0.139-0.013c2.012,5.743,5.538,10.794,10.524,15.275c23.3-3.056,54.553-6.72,96.582-2.509
	c4.61,0.48,8.583-2.857,9.034-7.39C200.498,124.398,197.19,120.356,192.657,119.901z"/>
<g>
</g>
<g>
</g>
<g>
</g>
<g>
</g>
<g>
</g>
<g>
</g>
<g>
</g>
<g>
</g>
<g>
</g>
<g>
</g>
<g>
</g>
<g>
</g>
<g>
</g>
<g>
</g>
<g>
</g>
</svg>
