<svg xmlns="http://www.w3.org/2000/svg" viewBox="0 0 512 512" width="512" height="512">
	<style>
		tspan { white-space:pre }
		.shp0 { fill: #a24b25 } 
		.shp1 { fill: #bb741f } 
		.shp2 { fill: #b85e1e } 
		.shp3 { fill: #b87742 } 
		.shp4 { fill: #784b21 } 
		.shp5 { fill: #ad4e28 } 
		.shp6 { fill: #b2551d } 
	</style>
	<g id="Layer">
		<path id="Layer" class="shp0" d="M338.44 329.76C336.73 329.76 335.06 329.25 333.63 328.3C314.95 315.88 303.72 294.93 303.73 272.49L303.73 269.02C303.73 264.23 307.62 260.34 312.41 260.34C317.2 260.34 321.08 264.23 321.08 269.02L321.08 272.49C321.07 289.14 329.39 304.69 343.26 313.91C347.22 316.6 348.25 322 345.56 325.96C343.95 328.32 341.3 329.75 338.44 329.76Z" />
		<path id="Layer" class="shp0" d="M286.37 329.76C284.66 329.76 282.99 329.25 281.56 328.3C262.88 315.88 251.65 294.93 251.66 272.49L251.66 269.02C251.66 264.23 255.55 260.34 260.34 260.34C265.13 260.34 269.02 264.23 269.02 269.02L269.02 272.49C269 289.14 277.32 304.69 291.19 313.91C295.16 316.6 296.18 322 293.49 325.96C291.88 328.32 289.23 329.75 286.37 329.76Z" />
		<path id="Layer" class="shp0" d="M234.31 329.76C232.59 329.76 230.92 329.25 229.5 328.3C210.81 315.88 199.58 294.93 199.59 272.49L199.59 269.02C199.59 264.23 203.48 260.34 208.27 260.34C213.06 260.34 216.95 264.23 216.95 269.02L216.95 272.49C216.93 289.14 225.25 304.69 239.12 313.91C243.09 316.6 244.11 322 241.42 325.96C239.82 328.32 237.16 329.75 234.31 329.76Z" />
		<path id="Layer" class="shp0" d="M182.24 329.76C180.53 329.76 178.85 329.25 177.43 328.3C158.75 315.88 147.52 294.93 147.53 272.49L147.53 269.02C147.53 264.23 151.41 260.34 156.2 260.34C160.99 260.34 164.88 264.23 164.88 269.02L164.88 272.49C164.86 289.14 173.19 304.69 187.05 313.91C191.02 316.6 192.04 322 189.35 325.96C187.75 328.32 185.09 329.75 182.24 329.76Z" />
	</g>
	<g id="Layer">
		<path id="Layer" class="shp1" d="M147.53 242.98L112.81 242.98C50.51 242.98 0 192.48 0 130.17C0 67.86 50.51 17.36 112.81 17.36L503.32 17.36C508.11 17.36 512 21.24 512 26.03C512 30.82 508.11 34.71 503.32 34.71L112.81 34.71C60.09 34.71 17.36 77.45 17.36 130.17C17.36 182.89 60.09 225.63 112.81 225.63L147.53 225.63C152.32 225.63 156.2 229.52 156.2 234.31C156.2 239.1 152.32 242.98 147.53 242.98Z" />
		<path id="Layer" class="shp1" d="M216.95 277.69L112.81 277.69C50.51 277.69 0 227.19 0 164.88C0 102.57 50.51 52.07 112.81 52.07L503.32 52.07C508.11 52.07 512 55.96 512 60.75C512 65.54 508.11 69.42 503.32 69.42L112.81 69.42C60.09 69.42 17.36 112.16 17.36 164.88C17.36 217.6 60.09 260.34 112.81 260.34L216.95 260.34C221.74 260.34 225.63 264.23 225.63 269.02C225.63 273.81 221.74 277.69 216.95 277.69Z" />
	</g>
	<path id="Layer" class="shp2" d="M450.8 174.01C418.5 145.73 377.03 130.15 334.1 130.17L60.75 130.17C75.85 210.67 146.14 269.02 228.05 269.02L347.12 269.02C380.67 269.02 407.87 296.21 407.87 329.76C407.87 363.31 380.67 390.51 347.12 390.51L312.41 390.51L312.41 494.64L325.42 494.64C423.4 494.69 504.65 418.83 511.34 321.09C511.64 316.75 512 312.46 512 308.07L512 308.07C512.01 256.63 489.68 207.71 450.8 174.01Z" />
	<g id="Layer">
		<path id="Layer" class="shp3" d="M393.21 444.65L387.81 428.16C426.1 415.5 455.28 384.14 465.14 345.03L481.99 349.21C470.65 394.11 437.17 430.1 393.21 444.65Z" />
		<path id="Layer" class="shp3" d="M485.88 321.39L468.52 320.78C468.61 319.44 468.61 318.1 468.61 316.75C468.61 282.78 453.88 250.48 428.21 228.23L439.58 215.12C469.04 240.67 485.97 277.75 485.97 316.75C485.97 318.3 485.97 319.84 485.88 321.39Z" />
		<path id="Layer" class="shp3" d="M412.05 216.46C393.77 205.41 372.81 199.58 351.46 199.59L338.44 199.59L338.44 182.24L351.46 182.24C375.98 182.22 400.05 188.92 421.04 201.61L412.05 216.46Z" />
	</g>
	<path id="Layer" class="shp4" d="M164.88 173.56C150.5 173.56 138.85 161.9 138.85 147.53C138.85 133.15 150.5 121.49 164.88 121.49C179.26 121.49 190.91 133.15 190.91 147.53C190.91 161.91 179.26 173.56 164.88 173.56Z" />
	<g id="Layer">
		<path id="Layer" class="shp5" d="M303.73 130.17L303.73 269.02L312.41 269.02L321.08 269.02L321.08 130.17L312.41 130.17L303.73 130.17Z" />
		<path id="Layer" class="shp5" d="M405.18 312.41C406.06 315.25 406.73 318.14 407.17 321.08C407.6 323.96 407.84 326.86 407.86 329.76L510.52 329.76C510.85 326.89 511.14 324 511.34 321.08C511.54 318.17 511.73 315.31 511.85 312.41L405.18 312.41Z" />
		<path id="Layer" class="shp5" d="M450.8 174.01C448.61 172.1 446.26 170.37 443.98 168.56L343.53 269.02L347.12 269.02C353.26 269.08 359.36 270.03 365.23 271.86L457.22 179.87C455.12 177.9 452.99 175.91 450.8 174.01Z" />
		<path id="Layer" class="shp5" d="M375.01 383.69C372.22 385.1 369.31 386.31 366.33 387.28L436.68 457.63C439.03 455.9 441.43 454.21 443.69 452.36C445.94 450.51 448.12 448.62 450.27 446.67L382.59 378.99C380.18 380.74 377.65 382.31 375.01 383.69Z" />
	</g>
	<path id="Layer" class="shp6" d="M312.41 494.64L312.41 442.58L242.98 494.64L312.41 494.64Z" />
	<path id="Layer" class="shp5" d="M225.63 494.64L242.98 494.64L312.41 442.58L135.53 442.58C154.1 474.79 188.45 494.63 225.63 494.64Z" />
	<path id="Layer" class="shp6" d="M121.49 390.51C121.49 408.8 126.33 426.76 135.53 442.58L312.41 442.58L312.41 390.51L121.49 390.51Z" />
	<path id="Layer" class="shp5" d="M303.73 390.51L321.08 390.51L321.08 494.64L303.73 494.64L303.73 390.51Z" />
	<g id="Layer">
	</g>
	<g id="Layer">
	</g>
	<g id="Layer">
	</g>
	<g id="Layer">
	</g>
	<g id="Layer">
	</g>
	<g id="Layer">
	</g>
	<g id="Layer">
	</g>
	<g id="Layer">
	</g>
	<g id="Layer">
	</g>
	<g id="Layer">
	</g>
	<g id="Layer">
	</g>
	<g id="Layer">
	</g>
	<g id="Layer">
	</g>
	<g id="Layer">
	</g>
	<g id="Layer">
	</g>
</svg>