<?xml version="1.0"?>
<svg xmlns="http://www.w3.org/2000/svg" id="Layer_1" enable-background="new 0 0 512 512" height="512px" viewBox="0 0 512 512" width="512px" class=""><g><path d="m73.233 293.12c-8.117-21.769-12.233-44.688-12.233-68.12 0-96.265 70.004-176.838 162.627-192.322l4.947 29.589c-79.716 13.327-137.574 81.766-137.574 162.733 0 19.841 3.48 39.233 10.343 57.639z" fill="#5b5555" data-original="#5B5555"/><path d="m438.767 293.12-28.109-10.481c6.862-18.406 10.342-37.798 10.342-57.639 0-80.967-57.858-149.406-137.574-162.733l4.947-29.589c92.708 15.498 162.627 96.144 162.627 192.322 0 23.432-4.116 46.351-12.233 68.12z" fill="#463f3f" data-original="#463F3F" class=""/><path d="m350.445 395.64-14.55-26.235c18.143-10.062 34.063-23.291 47.32-39.32l23.118 19.119c-15.653 18.927-34.457 34.55-55.888 46.436z" fill="#463f3f" data-original="#463F3F" class=""/><path d="m161.555 395.64c-21.431-11.885-40.235-27.508-55.889-46.436l23.118-19.119c13.257 16.029 29.178 29.258 47.32 39.32z" fill="#5b5555" data-original="#5B5555"/><path d="m256 302c-57.9 0-105 47.1-105 105s47.1 105 105 105 105-47.1 105-105-47.1-105-105-105zm73.49 120c-5.98 29.34-29.15 52.51-58.49 58.49v-43.49h-30v43.49c-29.34-5.98-52.51-29.15-58.49-58.49h43.49v-30h-43.49c5.98-29.34 29.15-52.51 58.49-58.49v43.49h30v-43.49c29.34 5.98 52.51 29.15 58.49 58.49h-43.49v30z" fill="#766e6e" data-original="#766E6E" class=""/><path d="m361 407c0 57.9-47.1 105-105 105v-75h15v43.49c29.34-5.98 52.51-29.15 58.49-58.49h-43.49v-30h43.49c-5.98-29.34-29.15-52.51-58.49-58.49v43.49h-15v-75c57.9 0 105 47.1 105 105z" fill="#5b5555" data-original="#5B5555"/><path d="m76 344.419h30v105.581h-30z" fill="#5b5555" data-original="#5B5555"/><path d="m406 344.419h30v105.581h-30z" fill="#463f3f" data-original="#463F3F" class=""/><path d="m389.385 353.971c-21.513-12.42-28.893-39.957-16.471-61.471 12.406-21.49 39.984-28.877 61.471-16.471 21.512 12.42 28.893 39.957 16.471 61.471-12.371 21.427-39.881 28.937-61.471 16.471z" fill="#26bfa6" data-original="#26BFA6" class="" data-old_color="#26bfa6" style="fill:#BF2626"/><path d="m61.144 337.5c-12.421-21.511-5.044-49.05 16.471-61.471 21.488-12.406 49.064-5.018 61.471 16.471 12.421 21.512 5.044 49.05-16.471 61.471-21.552 12.445-49.067 5.014-61.471-16.471z" fill="#57d9ad" data-original="#57D9AD" class="active-path" style="fill:#D95757" data-old_color="#57d9ad"/><path d="m256 0c-24.81 0-45 20.19-45 45s20.19 45 45 45 45-20.19 45-45-20.19-45-45-45z" fill="#57d9ad" data-original="#57D9AD" class="active-path" style="fill:#D95757" data-old_color="#57d9ad"/><path d="m301 45c0 24.81-20.19 45-45 45v-90c24.81 0 45 20.19 45 45z" fill="#26bfa6" data-original="#26BFA6" class="" data-old_color="#26bfa6" style="fill:#BF2626"/><path d="m256 362c-24.81 0-45 20.19-45 45s20.19 45 45 45 45-20.19 45-45-20.19-45-45-45z" fill="#57d9ad" data-original="#57D9AD" class="active-path" style="fill:#D95757" data-old_color="#57d9ad"/><path d="m301 407c0 24.81-20.19 45-45 45v-90c24.81 0 45 20.19 45 45z" fill="#26bfa6" data-original="#26BFA6" class="" data-old_color="#26bfa6" style="fill:#BF2626"/></g> </svg>
