<svg xmlns="http://www.w3.org/2000/svg" viewBox="0 0 512 512" width="512" height="512">
	<style>
		tspan { white-space:pre }
		.shp0 { fill: #bd483b } 
		.shp1 { fill: #9a2820 } 
		.shp2 { fill: #aa3227 } 
	</style>
	<path id="Layer" class="shp0" d="M453.06 9.33C448.67 3.46 441.76 0 434.42 0C427.09 0 420.18 3.46 415.79 9.33C401.96 27.81 356.85 90.83 356.85 125.84C356.85 152 369.87 175.15 389.76 189.21L352.2 223.24C347.43 202.32 338.93 186.73 326.37 175.49C314.63 164.99 300.94 159.81 286.63 157.32L324.83 29.97C328.53 17.66 321.54 4.69 309.23 0.99C296.92 -2.7 283.95 4.29 280.25 16.6L256 97.44L231.75 16.6C228.05 4.29 215.08 -2.7 202.77 0.99C190.45 4.69 183.47 17.66 187.16 29.97L225.37 157.32C211.06 159.81 197.36 164.99 185.63 175.49C173.07 186.73 164.57 202.32 159.8 223.24L122.24 189.21C142.13 175.15 155.15 152 155.15 125.85C155.15 90.83 110.04 27.81 96.21 9.33C91.82 3.46 84.91 0 77.58 0C70.24 0 63.33 3.46 58.94 9.33C45.11 27.81 0 90.83 0 125.84C0 165.35 29.68 198.02 67.91 202.8L155.32 281.99C155.86 300.74 157.81 320.98 160.94 341.33L126.6 341.33C113.75 341.33 103.33 351.75 103.33 364.61C103.33 377.46 113.75 387.88 126.6 387.88L170.15 387.88C172.81 398.75 175.76 409.34 178.99 419.39C184.78 437.35 191.08 452.69 197.89 465.46L178.42 465.46C165.57 465.46 155.15 475.88 155.15 488.73C155.15 501.58 165.57 512 178.42 512L256 512L333.58 512C346.43 512 356.85 501.58 356.85 488.73C356.85 475.87 346.43 465.45 333.58 465.45L314.11 465.45C320.92 452.69 327.22 437.34 333.01 419.39C336.24 409.34 339.19 398.75 341.85 387.88L385.29 387.88C398.14 387.88 408.56 377.46 408.56 364.6C408.56 351.75 398.14 341.33 385.29 341.33L351.06 341.33C354.19 320.98 356.14 300.74 356.68 281.99L444.09 202.8C482.31 198.02 512 165.34 512 125.84C512 90.83 466.89 27.81 453.06 9.33Z" />
	<path id="Layer" class="shp1" d="M213.17 488.73C207.83 482.3 202.73 474.53 197.89 465.45L178.42 465.45C165.57 465.45 155.15 475.87 155.15 488.73C155.15 501.58 165.57 512 178.42 512L256 512C240.34 512 226.03 504.21 213.17 488.73Z" />
	<path id="Layer" class="shp2" d="M256 512L333.58 512C346.43 512 356.85 501.58 356.85 488.73C356.85 475.87 346.43 465.45 333.58 465.45L314.11 465.45C309.27 474.53 304.18 482.3 298.83 488.73C285.97 504.21 271.66 512 256 512Z" />
	<path id="Layer" class="shp1" d="M249.04 155.23C251.36 155.17 253.69 155.15 256 155.15L256 97.44L231.75 16.6C228.05 4.29 215.08 -2.7 202.77 0.99C190.45 4.69 183.47 17.66 187.16 29.97L225.37 157.32C229.71 156.57 234.1 156.06 238.51 155.73C242.01 155.47 245.53 155.31 249.04 155.23Z" />
	<path id="Layer" class="shp2" d="M262.96 155.23C266.47 155.31 269.98 155.47 273.49 155.73C277.9 156.06 282.29 156.57 286.63 157.32L324.84 29.97C328.53 17.66 321.54 4.69 309.23 0.99C296.92 -2.7 283.95 4.29 280.25 16.6L256 97.44L256 155.15C258.31 155.15 260.64 155.17 262.96 155.23Z" />
	<path id="Layer" class="shp1" d="M155.84 251.06C156.57 240.88 157.89 231.63 159.8 223.24L122.24 189.21C115.44 194.01 107.85 197.75 99.7 200.19C92.68 202.28 85.26 203.42 77.58 203.42L77.57 203.42C74.3 203.42 71.08 203.19 67.91 202.8L155.32 281.99C155.22 278.44 155.15 274.94 155.15 271.51C155.15 264.31 155.38 257.5 155.84 251.06Z" />
	<path id="Layer" class="shp2" d="M434.42 203.42C426.74 203.42 419.32 202.28 412.3 200.19C404.14 197.76 396.55 194.02 389.76 189.21L352.2 223.24C354.11 231.64 355.43 240.88 356.16 251.06C356.62 257.5 356.85 264.31 356.85 271.52C356.85 274.94 356.78 278.45 356.68 281.99L444.09 202.8C440.92 203.19 437.7 203.42 434.43 203.42L434.42 203.42L434.42 203.42Z" />
	<path id="Layer" class="shp1" d="M160.94 341.33L126.6 341.33C113.75 341.33 103.33 351.75 103.33 364.61C103.33 377.46 113.75 387.88 126.6 387.88L170.16 387.88C168.29 380.24 166.55 372.46 165 364.61C163.47 356.88 162.13 349.1 160.94 341.33Z" />
	<g id="Layer">
		<path id="Layer" class="shp2" d="M341.85 387.88L385.29 387.88C398.14 387.88 408.56 377.46 408.56 364.61C408.56 351.75 398.14 341.33 385.29 341.33L351.06 341.33C349.87 349.1 348.52 356.88 347 364.61C345.45 372.46 343.71 380.23 341.85 387.88Z" />
		<path id="Layer" class="shp2" d="M77.58 203.42C85.26 203.42 92.68 202.28 99.7 200.19C107.86 197.76 115.45 194.02 122.24 189.21C142.13 175.15 155.15 152 155.15 125.84C155.15 90.83 110.04 27.81 96.21 9.33C91.82 3.46 84.91 0 77.58 0C70.24 0 63.33 3.46 58.94 9.33C45.11 27.81 0 90.83 0 125.84C0 165.35 29.68 198.02 67.91 202.8C71.08 203.19 74.3 203.42 77.58 203.42L77.58 203.42Z" />
		<path id="Layer" class="shp2" d="M249.04 155.23C245.53 155.31 242.02 155.47 238.51 155.73C234.1 156.06 229.71 156.57 225.37 157.32C211.06 159.81 197.36 164.99 185.63 175.49C173.07 186.73 164.57 202.32 159.8 223.24C157.89 231.63 156.57 240.88 155.84 251.06C155.38 257.5 155.15 264.31 155.15 271.52C155.15 274.94 155.22 278.45 155.32 281.99C155.86 300.74 157.81 320.98 160.94 341.33C162.13 349.1 163.47 356.88 165 364.61C166.55 372.46 168.29 380.23 170.15 387.88C172.81 398.75 175.76 409.34 178.99 419.39C184.77 437.35 191.08 452.69 197.89 465.46C202.73 474.53 207.82 482.3 213.17 488.73C226.03 504.21 240.34 512 256 512L256 155.15C253.69 155.15 251.36 155.17 249.04 155.23Z" />
	</g>
	<g id="Layer">
	</g>
	<g id="Layer">
	</g>
	<g id="Layer">
	</g>
	<g id="Layer">
	</g>
	<g id="Layer">
	</g>
	<g id="Layer">
	</g>
	<g id="Layer">
	</g>
	<g id="Layer">
	</g>
	<g id="Layer">
	</g>
	<g id="Layer">
	</g>
	<g id="Layer">
	</g>
	<g id="Layer">
	</g>
	<g id="Layer">
	</g>
	<g id="Layer">
	</g>
	<g id="Layer">
	</g>
</svg>