<svg xmlns="http://www.w3.org/2000/svg" viewBox="0 0 512 513" width="512" height="513">
	<style>
		tspan { white-space:pre }
		.shp0 { fill: #ff6c6c } 
		.shp1 { fill: #ff4949 } 
		.shp2 { fill: #b35f49 } 
		.shp3 { fill: #99503d } 
		.shp4 { fill: #626262 } 
		.shp5 { fill: #464646 } 
	</style>
	<path id="Layer" class="shp0" d="M177.61 428.58L156.61 364.98C155.71 362.89 154.52 360.79 153.02 358.98C151.21 357.48 149.11 356.29 147.02 355.39L83.42 334.39C78.02 332.59 72.02 333.79 68.12 337.99L4.53 401.58C-3.57 409.38 -0.27 422.88 10.23 426.48L66.92 445.08L85.52 501.77C89.12 512.27 102.62 515.57 110.42 507.48L174.02 443.88C178.21 439.98 179.41 433.98 177.61 428.58L177.61 428.58Z" />
	<path id="Layer" class="shp0" d="M177.61 428.58C179.41 433.98 178.21 439.98 174.01 443.88L110.42 507.47C102.62 515.57 89.12 512.27 85.52 501.77L66.92 445.08L153.02 358.98C154.51 360.79 155.71 362.89 156.61 364.98L177.61 428.58Z" />
	<path id="Layer" class="shp1" d="M177.61 428.58C179.41 433.98 178.21 439.98 174.01 443.88L110.42 507.47C102.62 515.57 89.12 512.27 85.52 501.77L66.92 445.08L153.02 358.98C154.51 360.79 155.71 362.89 156.61 364.98L177.61 428.58Z" />
	<path id="Layer" class="shp2" d="M443.86 89.13L46.82 486.48C41.12 492.18 31.52 492.18 25.52 486.48C19.82 480.48 19.82 470.88 25.52 465.18L422.87 68.14C428.56 62.14 438.16 62.14 443.86 68.14C449.86 73.84 449.86 83.44 443.86 89.13L443.86 89.13Z" />
	<path id="Layer" class="shp3" d="M443.86 89.13L46.82 486.48C41.12 492.18 31.52 492.18 25.52 486.48L443.86 68.14C449.86 73.84 449.86 83.44 443.86 89.13L443.86 89.13Z" />
	<path id="Layer" class="shp4" d="M507.46 4.54C503.56 0.34 497.56 -1.16 492.16 0.94L364.97 43.24C358.97 45.34 354.77 51.04 354.77 57.34C354.77 63.94 358.97 69.64 364.97 71.74L421.36 90.64L440.26 147.03C442.36 153.03 448.06 157.23 454.66 157.23C460.96 157.23 466.66 153.03 468.76 147.03L511.05 19.84C512.86 14.44 511.66 8.44 507.46 4.54L507.46 4.54Z" />
	<path id="Layer" class="shp5" d="M511.06 19.84L468.76 147.03C466.66 153.03 460.96 157.23 454.66 157.23C448.06 157.23 442.36 153.03 440.27 147.03L421.37 90.64L507.46 4.54C511.66 8.44 512.86 14.44 511.06 19.84Z" />
</svg>