<svg xmlns="http://www.w3.org/2000/svg" viewBox="0 0 512 513" width="512" height="513">
	<style>
		tspan { white-space:pre }
		.shp0 { fill: #b4b4b4 } 
		.shp1 { fill: #949494 } 
	</style>
	<path id="Layer" class="shp0" d="M450.61 261.79C445.64 256.44 437.99 254.52 431.11 257.2L269 311.11C261.35 313.79 256 321.06 256 329.08C256 337.5 261.35 344.76 269 347.44L340.87 371.53L364.96 443.4C367.64 451.05 374.9 456.4 383.31 456.4C391.34 456.4 398.61 451.05 401.28 443.4L455.18 281.29C457.49 274.41 455.96 266.76 450.61 261.79L450.61 261.79Z" />
	<path id="Layer" class="shp1" d="M455.2 281.29L401.28 443.4C398.61 451.05 391.34 456.4 383.31 456.4C374.9 456.4 367.64 451.05 364.97 443.4L340.88 371.53L450.61 261.79C455.96 266.76 457.49 274.41 455.2 281.29Z" />
	<path id="Layer copy" class="shp0" d="M450.61 61.79C445.64 56.44 437.99 54.52 431.11 57.2L269 111.11C261.35 113.79 256 121.06 256 129.08C256 137.5 261.35 144.76 269 147.44L340.87 171.53L364.96 243.4C367.64 251.05 374.9 256.4 383.31 256.4C391.34 256.4 398.61 251.05 401.28 243.4L455.18 81.29C457.49 74.41 455.96 66.76 450.61 61.79L450.61 61.79Z" />
	<path id="Layer copy 2" class="shp1" d="M455.2 81.29L401.28 243.4C398.61 251.05 391.34 256.4 383.31 256.4C374.9 256.4 367.64 251.05 364.97 243.4L340.88 171.53L450.61 61.79C455.96 66.76 457.49 74.41 455.2 81.29Z" />
	<path id="Layer copy 3" class="shp0" d="M250.61 261.79C245.64 256.44 237.99 254.52 231.11 257.2L69 311.11C61.35 313.79 56 321.06 56 329.08C56 337.5 61.35 344.76 69 347.44L140.87 371.53L164.96 443.4C167.64 451.05 174.9 456.4 183.31 456.4C191.34 456.4 198.61 451.05 201.28 443.4L255.18 281.29C257.49 274.41 255.96 266.76 250.61 261.79L250.61 261.79Z" />
	<path id="Layer copy 4" class="shp1" d="M255.2 281.29L201.28 443.4C198.61 451.05 191.34 456.4 183.31 456.4C174.9 456.4 167.64 451.05 164.97 443.4L140.88 371.53L250.61 261.79C255.96 266.76 257.49 274.41 255.2 281.29Z" />
	<path id="Layer copy 5" class="shp0" d="M250.61 61.79C245.64 56.44 237.99 54.52 231.11 57.2L69 111.11C61.35 113.79 56 121.06 56 129.08C56 137.5 61.35 144.76 69 147.44L140.87 171.53L164.96 243.4C167.64 251.05 174.9 256.4 183.31 256.4C191.34 256.4 198.61 251.05 201.28 243.4L255.18 81.29C257.49 74.41 255.96 66.76 250.61 61.79L250.61 61.79Z" />
	<path id="Layer copy 6" class="shp1" d="M255.2 81.29L201.28 243.4C198.61 251.05 191.34 256.4 183.31 256.4C174.9 256.4 167.64 251.05 164.97 243.4L140.88 171.53L250.61 61.79C255.96 66.76 257.49 74.41 255.2 81.29Z" />
</svg>