<svg xmlns="http://www.w3.org/2000/svg" viewBox="0 0 512 513" width="512" height="513">
	<style>
		tspan { white-space:pre }
		.shp0 { fill: #1d7b9b } 
		.shp1 { fill: #18647e } 
	</style>
	<path id="Layer" class="shp0" d="M449.41 261.59C444.46 256.27 436.85 254.36 430 257.03L268.71 310.67C261.1 313.33 255.77 320.56 255.77 328.55C255.77 336.92 261.1 344.15 268.71 346.81L340.22 370.78L364.19 442.29C366.85 449.9 374.08 455.23 382.45 455.23C390.44 455.23 397.67 449.9 400.33 442.29L453.96 281C456.26 274.15 454.73 266.54 449.41 261.59L449.41 261.59Z" />
	<path id="Layer" class="shp1" d="M453.97 281L400.33 442.29C397.67 449.9 390.44 455.23 382.45 455.23C374.08 455.23 366.85 449.9 364.2 442.29L340.23 370.78L449.41 261.59C454.73 266.54 456.26 274.15 453.97 281Z" />
	<path id="Layer copy 3" class="shp0" d="M449.41 62.59C444.46 57.27 436.85 55.36 430 58.03L268.71 111.67C261.1 114.33 255.77 121.56 255.77 129.55C255.77 137.92 261.1 145.15 268.71 147.81L340.22 171.78L364.19 243.29C366.85 250.9 374.08 256.23 382.45 256.23C390.44 256.23 397.67 250.9 400.33 243.29L453.96 82C456.26 75.15 454.73 67.54 449.41 62.59L449.41 62.59Z" />
	<path id="Layer copy 4" class="shp1" d="M453.97 82L400.33 243.29C397.67 250.9 390.44 256.23 382.45 256.23C374.08 256.23 366.85 250.9 364.2 243.29L340.23 171.78L449.41 62.59C454.73 67.54 456.26 75.15 453.97 82Z" />
	<path id="Layer copy 5" class="shp0" d="M250.41 261.59C245.46 256.27 237.85 254.36 231 257.03L69.71 310.67C62.1 313.33 56.77 320.56 56.77 328.55C56.77 336.92 62.1 344.15 69.71 346.81L141.22 370.78L165.19 442.29C167.85 449.9 175.08 455.23 183.45 455.23C191.44 455.23 198.67 449.9 201.33 442.29L254.96 281C257.26 274.15 255.73 266.54 250.41 261.59L250.41 261.59Z" />
	<path id="Layer copy 6" class="shp1" d="M254.97 281L201.33 442.29C198.67 449.9 191.44 455.23 183.45 455.23C175.08 455.23 167.85 449.9 165.2 442.29L141.23 370.78L250.41 261.59C255.73 266.54 257.26 274.15 254.97 281Z" />
	<path id="Layer copy" class="shp0" d="M250.41 62.59C245.46 57.27 237.85 55.36 231 58.03L69.71 111.67C62.1 114.33 56.77 121.56 56.77 129.55C56.77 137.92 62.1 145.15 69.71 147.81L141.22 171.78L165.19 243.29C167.85 250.9 175.08 256.23 183.45 256.23C191.44 256.23 198.67 250.9 201.33 243.29L254.96 82C257.26 75.15 255.73 67.54 250.41 62.59L250.41 62.59Z" />
	<path id="Layer copy 2" class="shp1" d="M254.97 82L201.33 243.29C198.67 250.9 191.44 256.23 183.45 256.23C175.08 256.23 167.85 250.9 165.2 243.29L141.23 171.78L250.41 62.59C255.73 67.54 257.26 75.15 254.97 82Z" />
</svg>