<svg xmlns="http://www.w3.org/2000/svg" viewBox="0 0 497 496" width="497" height="496">
	<style>
		tspan { white-space:pre }
		.shp0 { fill: #9e4520 } 
		.shp1 { fill: #a7541e } 
		.shp2 { fill: #b7771a } 
		.shp3 { fill: #b0681d } 
		.shp4 { fill: #ba9e62 } 
	</style>
	<path id="Layer" class="shp0" d="M309.74 356.1L322.22 382.72C331.99 403.55 346.07 425.71 343.37 449.77C341.23 468.84 325.49 478.59 312.98 491.1C309.77 494.32 305.41 496.13 300.86 496.13L298.47 496.13C292.08 496.14 286.22 492.57 283.29 486.89C280.36 481.21 280.85 474.38 284.55 469.17C291.3 461.78 296.81 453.35 300.86 444.2C304.69 431.61 296.21 423.25 290.86 412.82L279.36 390.39L263.56 359.6L232.84 359.6L217.06 390.39L205.54 412.82C200.19 423.25 191.71 431.6 195.54 444.2C199.59 453.35 205.1 461.78 211.85 469.17C215.56 474.37 216.05 481.21 213.11 486.89C210.18 492.57 204.32 496.14 197.93 496.13L195.55 496.13C191 496.13 186.64 494.32 183.43 491.1C170.92 478.59 155.18 468.84 153.04 449.77C150.34 425.71 164.41 403.55 174.19 382.72L186.67 356.1L309.74 356.1Z" />
	<path id="Layer" class="shp1" d="M341.4 314.29L353.09 318.73L353.26 318.73L477.42 365.66C485.67 367 491.74 374.11 491.75 382.47C491.75 383.41 491.67 384.36 491.5 385.29C490.77 389.76 488.29 393.75 484.61 396.39C480.92 399.04 476.34 400.11 471.87 399.37L316.31 345.09L180.1 345.09L24.54 399.37C20.07 400.11 15.48 399.04 11.8 396.39C8.12 393.75 5.64 389.76 4.91 385.29C4.74 384.36 4.66 383.41 4.66 382.47C4.67 374.11 10.74 367 18.99 365.66L143.15 318.73L143.32 318.73L155.01 314.29L341.4 314.29Z" />
	<path id="Layer" class="shp0" d="M368.28 283.82C397.46 282.29 439.7 278.79 448.83 273.59L470.16 261.38C475.47 258 482.22 257.81 487.71 260.89C493.2 263.98 496.54 269.84 496.41 276.14C496.27 282.43 492.68 288.14 487.06 290.99L457.88 307.72C446.95 313.95 381.76 317.7 353.26 318.73L143.15 318.73C114.65 317.7 49.45 313.95 38.53 307.72L9.35 290.99C3.73 288.14 0.14 282.43 0 276.14C-0.13 269.84 3.21 263.98 8.7 260.89C14.19 257.81 20.93 258 26.24 261.38L47.58 273.59C56.71 278.79 98.95 282.29 128.13 283.82L368.28 283.82Z" />
	<path id="Layer" class="shp1" d="M121.3 265.05C120.92 264.99 120.55 264.88 120.2 264.71L26.75 228.45C21.21 226.39 17.22 221.49 16.34 215.64L6.28 150.36C2.68 126.92 7.13 102.95 18.91 82.35C20.36 79.66 23.18 77.99 26.24 78C28.53 77.95 30.73 78.84 32.36 80.45C33.99 82.05 34.89 84.25 34.87 86.54C34.85 110.43 39.16 134.14 47.59 156.51L51 165.72C56.71 181.08 108.09 212.14 125.84 226.74L370.58 226.74C388.33 212.14 439.7 181.08 445.42 165.72L448.83 156.51C457.25 134.14 461.56 110.43 461.54 86.54C461.52 84.25 462.42 82.05 464.04 80.45C465.67 78.84 467.87 77.96 470.16 78C473.22 77.99 476.04 79.66 477.5 82.35C489.27 102.95 493.72 126.92 490.13 150.36L480.05 215.64C479.18 221.49 475.19 226.39 469.64 228.45L376.2 264.71C375.85 264.88 375.48 264.99 375.09 265.05L121.3 265.05Z" />
	<path id="Layer" class="shp1" d="M130.52 217.78C52.02 93.28 54.49 52.23 122.67 18.18C208 -24.48 216.54 26.71 216.54 26.71C208.43 29.45 200.32 32.09 192.22 34.82C181.89 38.23 165 40.37 161.07 51.97C159.34 56.39 160.25 61.41 163.43 64.94C166.61 68.46 171.52 69.89 176.09 68.61C192.73 64.18 209.09 58.74 225.07 52.32C231.47 50.18 242.14 86.45 199.47 103.52C156.8 120.58 122.67 103.52 131.2 137.65L168.41 182.96L327.98 182.96L365.19 137.65C373.72 103.52 339.59 120.58 296.92 103.52C254.25 86.45 264.92 50.18 271.32 52.32C287.3 58.74 303.66 64.18 320.3 68.61C324.88 69.89 329.78 68.46 332.96 64.94C336.14 61.41 337.05 56.39 335.32 51.97C331.39 40.37 314.5 38.23 304.18 34.82C296.07 32.09 287.96 29.45 279.86 26.71C279.86 26.71 288.39 -24.48 373.72 18.18C441.9 52.23 444.38 93.28 365.87 217.78L130.52 217.78Z" />
	<path id="Layer" class="shp2" d="M248.2 163.34C276.04 162.99 303.5 169.75 328 182.96C343.44 191.07 356.5 203.07 365.89 217.78C367.72 220.62 369.29 223.62 370.58 226.74C374.28 234.98 376.19 243.9 376.2 252.93C376.18 257 375.8 261.05 375.09 265.05C373.78 271.62 371.48 277.95 368.27 283.82C361.81 295.94 352.6 306.37 341.39 314.29C334.26 319.64 326.56 324.19 318.43 327.86L316.47 327.86L316.47 342.54C316.47 343.39 316.39 344.24 316.3 345.09C315.61 349.47 313.26 353.42 309.73 356.1C306.77 358.38 303.14 359.61 299.4 359.6L197 359.6C193.27 359.61 189.64 358.38 186.68 356.1C183.15 353.42 180.8 349.47 180.11 345.09C180.02 344.24 179.94 343.39 179.94 342.54L179.94 327.86L177.98 327.86C169.85 324.19 162.15 319.64 155.02 314.29C143.8 306.37 134.6 295.94 128.14 283.82C124.93 277.95 122.63 271.62 121.31 265.05C120.6 261.05 120.23 257 120.2 252.93C120.22 243.9 122.14 234.98 125.84 226.74C127.13 223.62 128.7 220.62 130.53 217.78C139.91 203.07 152.98 191.07 168.42 182.96C192.91 169.75 220.37 162.99 248.2 163.34L248.2 163.34Z" />
	<path id="Layer" class="shp3" d="M376.2 252.93C376.18 257 375.8 261.05 375.09 265.05C373.78 271.62 371.48 277.95 368.27 283.82C361.81 295.94 352.6 306.37 341.39 314.29C334.26 319.64 326.56 324.19 318.43 327.86L316.47 327.86L316.47 342.54C316.47 343.39 316.39 344.24 316.3 345.09C315.61 349.47 313.26 353.42 309.73 356.1C306.77 358.38 303.14 359.61 299.4 359.6L248.2 359.6L248.2 163.34C276.04 162.99 303.5 169.75 327.99 182.96C343.43 191.07 356.49 203.07 365.88 217.78C367.71 220.62 369.28 223.62 370.57 226.74C374.27 234.98 376.19 243.9 376.2 252.93L376.2 252.93Z" />
	<g id="Layer">
		<path id="Layer" class="shp4" d="M222.6 214.54C222.6 219.25 218.77 223.07 214.06 223.07C209.35 223.07 205.53 219.25 205.53 214.54C205.53 209.82 209.35 206 214.06 206C218.77 206 222.6 209.82 222.6 214.54Z" />
		<path id="Layer" class="shp4" d="M290.88 214.54C290.88 219.25 287.06 223.07 282.35 223.07C277.63 223.07 273.81 219.25 273.81 214.54C273.81 209.82 277.63 206 282.35 206C287.06 206 290.88 209.82 290.88 214.54L290.88 214.54Z" />
	</g>
</svg>