<svg xmlns="http://www.w3.org/2000/svg" viewBox="0 0 513 512" width="513" height="512">
	<style>
		tspan { white-space:pre }
		.shp0 { fill: #805325 } 
		.shp1 { fill: #69441f } 
	</style>
	<path id="Layer" class="shp0" d="M30.67 496.12C24.04 502.76 12.87 502.76 5.89 496.12C2.75 492.63 1 488.09 1 483.55C1 479.37 2.75 474.82 5.89 471.34L14.85 464.24C43.48 435.26 88.17 430.37 122.73 452.36C199.54 500.55 298.7 476.11 388.08 387.08C477.46 297.7 501.55 198.54 453.36 121.73C431.37 87.17 436.26 42.48 465.23 13.85L474 4.97C480.98 -1.66 491.8 -1.66 498.78 4.97C505.42 11.96 505.42 23.13 498.78 29.77L490.03 38.29C472.57 55.75 469.77 82.28 482.69 103.23C540.65 194.71 514.46 310.27 412.86 411.86C311.27 513.46 196.05 539.65 104.23 481.69C83.28 468.77 56.75 471.57 39.29 489.03L30.67 496.12Z" />
	<path id="Layer" class="shp1" d="M30.67 496.12C24.04 502.76 12.87 502.76 5.89 496.12C2.75 492.63 1 488.09 1 483.55C1 479.37 2.75 474.82 5.89 471.34L14.85 464.24C43.48 435.26 88.17 430.37 122.73 452.36C199.54 500.55 298.7 476.11 388.08 387.08L412.86 411.86C311.27 513.46 196.05 539.65 104.23 481.69C83.28 468.77 56.75 471.57 39.29 489.02L30.67 496.12Z" />
</svg>