<svg xmlns="http://www.w3.org/2000/svg" viewBox="0 0 512 512" width="512" height="512">
	<style>
		tspan { white-space:pre }
		.shp0 { fill: #755b43 } 
		.shp1 { fill: #81684e } 
		.shp2 { fill: #957d62 } 
		.shp3 { fill: #634831 } 
	</style>
	<path id="Layer" class="shp0" d="M315.75 35.27L436.18 106.19C450.94 83.65 472.76 64.17 486.93 52.82C492.99 47.96 490.94 38.27 483.43 36.29C419.25 19.37 315.75 35.27 315.75 35.27Z" />
	<path id="Layer" class="shp1" d="M505.51 218.97C501.85 203.22 496 188.05 489.06 173.44C480.65 155.73 470.61 138.79 458.04 123.74C386.85 38.56 258.69 5.98 157.15 21.61C80.84 33.35 0 54.62 0 79.73C0 92.72 16.86 109.63 41.62 120.63C53.32 125.84 66.63 125.34 83.91 123.56C94.67 154.28 148.66 165.28 238.64 174.27C401.96 190.61 471.98 308.52 398.53 385.74C371.11 414.57 313.52 428.05 279.62 433.72C223.2 411.5 159.38 408.93 124.86 409.5C118.35 409.61 116.57 418.49 122.49 421.18L190.28 451.95L123.02 482.49C117.05 485.19 118.9 494.13 125.44 494.17C161.41 494.36 227.82 490.63 280.93 464.5C348.55 459.3 512 447.11 512 277.43C512 256.66 509.73 237.18 505.51 218.97Z" />
	<path id="Layer" class="shp2" d="M505.19 179.06C489.29 162.52 445.91 123.65 379.24 110.22C299.18 55.81 187.9 36.04 96.26 48.78C66.79 52.88 36.71 58.15 10.1 64.34C3.66 69.26 0 74.41 0 79.73C0 92.72 16.86 109.63 41.62 120.63C53.32 125.84 66.63 125.34 83.91 123.56C94.67 154.28 148.66 165.28 238.64 174.27C351.76 185.59 420.07 245.63 427 307.13C453.79 411.67 318.04 458.89 280.93 464.5C317.17 461.71 380.91 456.88 432.28 426.92C463.57 399.95 485.18 360.44 485.18 302.11C485.18 281.54 482.69 262.25 478.06 244.22C474.03 228.54 467.57 213.45 459.91 198.9C458.35 195.94 456.63 193.05 454.96 190.14L501.99 187.26C506.13 187.01 508.06 182.05 505.19 179.06Z" />
	<path id="Layer" class="shp3" d="M173.65 71.12C164.52 71.12 157.15 63.74 157.15 54.62C157.15 45.49 164.52 38.11 173.65 38.11C182.78 38.11 190.16 45.49 190.16 54.62C190.16 63.74 182.78 71.12 173.65 71.12Z" />
	<g id="Layer">
		<path id="Layer" class="shp0" d="M264.44 107.74C261.83 107.74 259.28 106.52 257.67 104.22C255.06 100.49 255.96 95.36 259.68 92.74C259.99 92.51 277.23 80 278.9 61.61C279.32 57.07 283.32 53.78 287.87 54.13C292.41 54.55 295.76 58.56 295.35 63.1C292.96 89.31 270.13 105.57 269.16 106.25C267.72 107.26 266.07 107.74 264.44 107.74Z" />
		<path id="Layer" class="shp0" d="M301.27 113.47C298.99 113.47 296.73 112.53 295.1 110.69C292.08 107.3 292.38 102.1 295.76 99.06C295.98 98.87 307.88 87.88 307.54 73.99C307.42 69.44 311.03 65.65 315.58 65.54C320.25 65.24 323.93 69.03 324.04 73.58C324.58 95.29 307.48 110.73 306.75 111.38C305.18 112.78 303.22 113.47 301.27 113.47Z" />
		<path id="Layer" class="shp0" d="M333.67 118.31C331.4 118.31 329.13 117.38 327.5 115.54C324.48 112.14 324.78 106.95 328.16 103.92C328.35 103.74 337.19 95.53 336.94 85.34C336.82 80.78 340.43 77 344.98 76.89C349.55 76.69 353.32 80.38 353.44 84.93C353.89 102.92 339.75 115.69 339.15 116.23C337.58 117.63 335.62 118.31 333.67 118.31Z" />
	</g>
	<path id="Layer" class="shp1" d="M192.66 119.9C146.65 115.3 113.19 119.71 88.76 122.93C87.02 123.16 85.43 123.36 83.77 123.57C83.81 123.57 83.86 123.56 83.91 123.56C85.92 129.3 89.44 134.35 94.43 138.83C117.73 135.78 148.98 132.11 191.01 136.32C195.62 136.8 199.59 133.47 200.05 128.94C200.5 124.4 197.19 120.36 192.66 119.9Z" />
	<g id="Layer">
	</g>
	<g id="Layer">
	</g>
	<g id="Layer">
	</g>
	<g id="Layer">
	</g>
	<g id="Layer">
	</g>
	<g id="Layer">
	</g>
	<g id="Layer">
	</g>
	<g id="Layer">
	</g>
	<g id="Layer">
	</g>
	<g id="Layer">
	</g>
	<g id="Layer">
	</g>
	<g id="Layer">
	</g>
	<g id="Layer">
	</g>
	<g id="Layer">
	</g>
	<g id="Layer">
	</g>
</svg>