<?xml version="1.0"?>
<svg xmlns="http://www.w3.org/2000/svg" xmlns:xlink="http://www.w3.org/1999/xlink" version="1.1" id="Capa_1" x="0px" y="0px" viewBox="0 0 512 512" style="enable-background:new 0 0 512 512;" xml:space="preserve" width="512px" height="512px" class="hovered-paths"><g><path style="fill:#1406B1" d="M457.024,367.424c-21.701-33.132-33.171-71.662-33.171-111.424s11.471-78.292,33.171-111.424  l6.085-9.29l-54.484-65.381l-8.864,1.899c-4.778,1.024-9.658,1.544-14.503,1.544c-34.635,0-63.983-25.882-68.266-60.205L315.352,0  H196.644l-1.64,13.143c-4.283,34.323-33.631,60.205-68.266,60.205c-4.845,0-9.725-0.519-14.503-1.544l-8.864-1.899l-54.484,65.381  l6.085,9.29c21.7,33.132,33.171,71.662,33.171,111.424s-11.471,78.292-33.171,111.424l-6.152,9.393l57.765,67.851l8.419-1.442  c6.038-1.035,12.205-1.56,18.329-1.56c41.451,0,79.684,24.235,97.404,61.741l4.06,8.592h42.406l4.06-8.592  c17.72-37.506,55.953-61.741,97.404-61.741c6.124,0,12.29,0.525,18.329,1.56l8.419,1.442l57.765-67.851L457.024,367.424z" data-original="#BF7300" class="" data-old_color="#BF7300"/><path style="fill:#0D0381" d="M457.024,367.424c-21.701-33.132-33.171-71.662-33.171-111.424s11.471-78.292,33.171-111.424  l6.085-9.29l-54.484-65.381l-8.864,1.899c-4.778,1.024-9.658,1.544-14.503,1.544c-34.635,0-63.983-25.882-68.266-60.205L315.352,0  h-59.354v512h21.203l4.06-8.592c17.72-37.506,55.953-61.741,97.404-61.741c6.124,0,12.29,0.525,18.329,1.56l8.419,1.442  l57.765-67.851L457.024,367.424z" data-original="#9E5F00" class="hovered-path active-path" data-old_color="#9E5F00"/></g> </svg>
