<?xml version="1.0"?>
<svg xmlns="http://www.w3.org/2000/svg" xmlns:xlink="http://www.w3.org/1999/xlink" version="1.1" id="Layer_1" x="0px" y="0px" viewBox="0 0 512 512" style="enable-background:new 0 0 512 512;" xml:space="preserve" width="512px" height="512px" class=""><g><path style="fill:#8B500F" d="M353.103,0H158.897c-4.875,0-8.828,3.953-8.828,8.828v44.138h211.862V8.828  C361.931,3.953,357.978,0,353.103,0z" data-original="#DCB991" class="" data-old_color="#DCB991"/><path style="fill:#B36511" d="M149.909,503.336c0.089,4.811,4.014,8.664,8.826,8.664h70.782c4.875,0,8.828-3.953,8.828-8.828  V158.897c0-9.751,7.904-17.655,17.655-17.655l0,0l0,0c9.751,0,17.655,7.904,17.655,17.655v344.276c0,4.875,3.953,8.828,8.828,8.828  h70.783c4.812,0,8.737-3.853,8.826-8.664l8.334-450.044c0.182-9.877-7.775-17.982-17.653-17.982H159.226  c-9.878,0-17.835,8.105-17.652,17.982L149.909,503.336z" data-original="#F5DCB4" class="" data-old_color="#F5DCB4"/><g>
	<path style="fill:#8B500F" d="M167.724,264.828h-26.483c-4.875,0-8.828-3.953-8.828-8.828v-88.276   c0-4.875,3.953-8.828,8.828-8.828h26.483c4.875,0,8.828,3.953,8.828,8.828V256C176.552,260.875,172.599,264.828,167.724,264.828z" data-original="#DCB991" class="" data-old_color="#DCB991"/>
	<path style="fill:#8B500F" d="M167.724,397.241h-17.655c-4.875,0-8.828-3.953-8.828-8.828v-61.793   c0-4.875,3.953-8.828,8.828-8.828h17.655c4.875,0,8.828,3.953,8.828,8.828v61.793C176.552,393.289,172.599,397.241,167.724,397.241   z" data-original="#DCB991" class="" data-old_color="#DCB991"/>
</g><g>
	<path style="fill:#935716" d="M167.724,194.207h-26.483c-4.875,0-8.828-3.953-8.828-8.828v-17.655   c0-4.875,3.953-8.828,8.828-8.828h26.483c4.875,0,8.828,3.953,8.828,8.828v17.655C176.552,190.254,172.599,194.207,167.724,194.207   z" data-original="#EBC9A0" class="active-path" data-old_color="#EBC9A0"/>
	<path style="fill:#935716" d="M167.724,317.793h-17.655c-4.875,0-8.828,3.953-8.828,8.828v17.655c0,4.875,3.953,8.828,8.828,8.828   h17.655c4.875,0,8.828-3.953,8.828-8.828v-17.655C176.552,321.746,172.599,317.793,167.724,317.793z" data-original="#EBC9A0" class="active-path" data-old_color="#EBC9A0"/>
</g><path style="fill:#8B500F" d="M370.759,264.828h-26.483c-4.875,0-8.828-3.953-8.828-8.828v-88.276c0-4.875,3.953-8.828,8.828-8.828  h26.483c4.875,0,8.828,3.953,8.828,8.828V256C379.586,260.875,375.634,264.828,370.759,264.828z" data-original="#DCB991" class="" data-old_color="#DCB991"/><path style="fill:#935716" d="M370.759,194.207h-26.483c-4.875,0-8.828-3.953-8.828-8.828v-17.655c0-4.875,3.953-8.828,8.828-8.828  h26.483c4.875,0,8.828,3.953,8.828,8.828v17.655C379.586,190.254,375.634,194.207,370.759,194.207z" data-original="#EBC9A0" class="active-path" data-old_color="#EBC9A0"/><path style="fill:#8B500F" d="M361.931,397.241h-17.655c-4.875,0-8.828-3.953-8.828-8.828v-61.793c0-4.875,3.953-8.828,8.828-8.828  h17.655c4.875,0,8.828,3.953,8.828,8.828v61.793C370.759,393.289,366.806,397.241,361.931,397.241z" data-original="#DCB991" class="" data-old_color="#DCB991"/><g>
	<path style="fill:#935716" d="M361.931,317.793h-17.655c-4.875,0-8.828,3.953-8.828,8.828v17.655c0,4.875,3.953,8.828,8.828,8.828   h17.655c4.875,0,8.828-3.953,8.828-8.828v-17.655C370.759,321.746,366.806,317.793,361.931,317.793z" data-original="#EBC9A0" class="active-path" data-old_color="#EBC9A0"/>
	<path style="fill:#935716" d="M229.517,512c4.875,0,8.828-3.953,8.828-8.828v-17.655h-88.766l0.33,17.818   c0.089,4.81,4.014,8.664,8.826,8.664H229.517z" data-original="#EBC9A0" class="active-path" data-old_color="#EBC9A0"/>
	<path style="fill:#935716" d="M273.655,485.517v17.655c0,4.875,3.953,8.828,8.828,8.828h70.783c4.811,0,8.736-3.853,8.826-8.664   l0.329-17.818H273.655z" data-original="#EBC9A0" class="active-path" data-old_color="#EBC9A0"/>
	<path style="fill:#935716" d="M141.575,53.292l0.811,43.811h7.683c24.376,0,44.138-19.761,44.138-44.138V35.31h-34.98   C149.348,35.31,141.391,43.416,141.575,53.292z" data-original="#EBC9A0" class="active-path" data-old_color="#EBC9A0"/>
	<path style="fill:#935716" d="M370.425,53.292l-0.811,43.811h-7.683c-24.376,0-44.138-19.761-44.138-44.138V35.31h34.98   C362.652,35.31,370.609,43.416,370.425,53.292z" data-original="#EBC9A0" class="active-path" data-old_color="#EBC9A0"/>
	<path style="fill:#935716" d="M256,141.241c3.232,0,6.222,0.932,8.828,2.449V35.31h-17.655v108.38   C249.778,142.174,252.768,141.241,256,141.241z" data-original="#EBC9A0" class="active-path" data-old_color="#EBC9A0"/>
</g></g> </svg>
