<?xml version="1.0"?>
<svg xmlns="http://www.w3.org/2000/svg" xmlns:xlink="http://www.w3.org/1999/xlink" version="1.1" id="Layer_1" x="0px" y="0px" viewBox="0 0 386.981 386.981" style="enable-background:new 0 0 386.981 386.981;" xml:space="preserve" width="512px" height="512px" class=""><g><g>
	<rect x="83.74" y="23.49" style="fill:#0D7217" width="219.5" height="98" data-original="#DD8822" class="" data-old_color="#DD8822"/>
	<path style="fill:#0FA01D" d="M368.74,147.491v232H18.24v-232c31.2,0,56.5-25.3,56.5-56.5V7.49h51.48   c0,35.01,26.75,63.78,60.93,66.97c2.09,0.2,4.2,0.3,6.34,0.3s4.25-0.1,6.34-0.3c34.18-3.19,60.93-31.96,60.93-66.97h51.48v83.5   C312.24,122.191,337.54,147.491,368.74,147.491z" data-original="#FCA430" class="" data-old_color="#FCA430"/>
	<polygon style="fill:#0E961C" points="187.15,74.46 60.336,379.49 199.83,379.49  " data-original="#F49C3B" class="" data-old_color="#F49C3B"/>
	<path style="fill:#0E961C" d="M199.83,74.46v305.03h-12.68V74.46c2.09,0.2,4.2,0.3,6.34,0.3S197.74,74.661,199.83,74.46z" data-original="#666666" class="active-path" data-old_color="#666666"/>
	<path style="fill:#0D7217" d="M240.758,235.726h-94.536c-6.616,0-11.979-5.363-11.979-11.979v-22.539   c0-6.616,5.363-11.979,11.979-11.979h94.536c6.616,0,11.979,5.363,11.979,11.979v22.539   C252.737,230.361,247.374,235.726,240.758,235.726z" data-original="#F75959" class="" data-old_color="#F75959"/>
	<path style="fill:#0D7217" d="M240.758,322.72h-94.536c-6.616,0-11.979-5.363-11.979-11.979v-22.54   c0-6.616,5.363-11.979,11.979-11.979h94.536c6.616,0,11.979,5.363,11.979,11.979v22.54   C252.737,317.357,247.374,322.72,240.758,322.72z" data-original="#F75959" class="" data-old_color="#F75959"/>
	<polygon style="fill:#0E961C" points="368.74,147.491 264.326,379.49 368.74,379.49  " data-original="#F49C3B" class="" data-old_color="#F49C3B"/>
	<path style="fill:#0D7217" d="M52.079,235.726H9.418c-5.202,0-9.418-4.217-9.418-9.418v-27.661c0-5.202,4.217-9.418,9.418-9.418   h42.661c5.202,0,9.418,4.217,9.418,9.418v27.661C61.497,231.508,57.28,235.726,52.079,235.726z" data-original="#F75959" class="" data-old_color="#F75959"/>
	<path style="fill:#0D7217" d="M52.079,322.72H9.418c-5.202,0-9.418-4.217-9.418-9.418v-27.661c0-5.202,4.217-9.418,9.418-9.418   h42.661c5.202,0,9.418,4.217,9.418,9.418v27.661C61.497,318.504,57.28,322.72,52.079,322.72z" data-original="#F75959" class="" data-old_color="#F75959"/>
	<path style="fill:#0D7217" d="M377.563,235.726h-42.661c-5.202,0-9.418-4.217-9.418-9.418v-27.661   c0-5.202,4.217-9.418,9.418-9.418h42.661c5.202,0,9.418,4.217,9.418,9.418v27.661C386.981,231.508,382.764,235.726,377.563,235.726   z" data-original="#F75959" class="" data-old_color="#F75959"/>
	<path style="fill:#0D7217" d="M377.563,322.72h-42.661c-5.202,0-9.418-4.217-9.418-9.418v-27.661c0-5.202,4.217-9.418,9.418-9.418   h42.661c5.202,0,9.418,4.217,9.418,9.418v27.661C386.981,318.504,382.764,322.72,377.563,322.72z" data-original="#F75959" class="" data-old_color="#F75959"/>
	<rect x="168.742" y="189.228" style="fill:#0D7217" width="49.498" height="46.498" data-original="#FFDE55" class="" data-old_color="#FFDE55"/>
	<rect x="168.742" y="276.223" style="fill:#0D7217" width="49.498" height="46.498" data-original="#FFDE55" class="" data-old_color="#FFDE55"/>
</g></g> </svg>
