<svg xmlns="http://www.w3.org/2000/svg" viewBox="0 0 512 512" width="512" height="512">
	<style>
		tspan { white-space:pre }
		.shp0 { fill: #8f755b } 
		.shp1 { fill: #524131 } 
	</style>
	<path id="Layer" class="shp0" d="M477.24 158.36L476.96 156.94C474.24 143.15 462.15 133.22 448.1 133.22L447.34 133.22C433.29 133.22 421.2 123.28 418.48 109.5L415.81 95.95C413.09 82.16 401 72.23 386.95 72.23L383.73 72.23C367.48 72.23 354.31 59.06 354.31 42.81L354.31 29.42C354.31 13.17 341.14 0 324.89 0L323.54 0C307.3 0 294.13 13.17 294.13 29.42L294.13 42.81C294.13 59.05 280.95 72.22 264.71 72.22L246.74 72.22C230.49 72.22 217.32 59.05 217.32 42.81L217.32 29.42C217.32 13.17 204.16 0 187.91 0L186.55 0C170.31 0 157.14 13.17 157.14 29.42L157.14 42.81C157.14 59.05 143.97 72.22 127.72 72.22L125.24 72.22C111.4 72.22 99.43 81.87 96.49 95.4L93.31 110.04C90.38 123.57 78.41 133.22 64.57 133.22L64.09 133.22C50.25 133.22 38.28 142.86 35.34 156.39L35.21 157C28.08 189.82 35.78 224.28 56.8 250.47C82.95 283.05 122.03 308.72 168.45 323.2L168.45 344.12C168.45 375.67 194.03 401.25 225.59 401.25L285.86 401.25C317.42 401.25 343 375.67 343 344.12L343 323.2C389.77 308.61 429.08 282.67 455.23 249.75C475.65 224.04 483.6 190.58 477.24 158.36Z" />
	<g id="Layer">
		<path id="Layer" class="shp1" d="M323.39 87.93C318.07 87.93 313.76 83.63 313.76 78.31C313.76 72.98 318.07 68.68 323.39 68.68C328.72 68.68 333.02 72.98 333.02 78.31C333.02 83.63 328.72 87.93 323.39 87.93Z" />
		<path id="Layer" class="shp1" d="M187.03 87.93C181.7 87.93 177.4 83.63 177.4 78.31C177.4 72.98 181.7 68.68 187.03 68.68C192.35 68.68 196.66 72.98 196.66 78.31C196.66 83.63 192.35 87.93 187.03 87.93Z" />
		<path id="Layer" class="shp1" d="M210.26 266.83C204.94 266.83 200.63 262.52 200.63 257.2L200.63 166.52C200.63 161.2 204.94 156.89 210.26 156.89C215.58 156.89 219.89 161.2 219.89 166.52L219.89 257.2C219.89 262.52 215.58 266.83 210.26 266.83Z" />
		<path id="Layer" class="shp1" d="M301.74 266.83C296.43 266.83 292.11 262.52 292.11 257.2L292.11 166.52C292.11 161.2 296.43 156.89 301.74 156.89C307.06 156.89 311.37 161.2 311.37 166.52L311.37 257.2C311.37 262.52 307.06 266.83 301.74 266.83Z" />
		<path id="Layer" class="shp1" d="M406.72 512L133.78 512C113.03 512 96.15 495.12 96.15 474.36L96.15 473.8C96.15 453.05 113.03 436.16 133.78 436.16L227.72 436.16C237.85 436.16 246.1 427.92 246.1 417.78L246.1 377.78C246.1 372.46 250.41 368.15 255.73 368.15C261.04 368.15 265.36 372.46 265.36 377.78L265.36 417.79C265.36 438.54 248.47 455.42 227.72 455.42L133.78 455.42C123.65 455.42 115.41 463.67 115.41 473.8L115.41 474.36C115.41 484.5 123.65 492.74 133.78 492.74L406.72 492.74C412.03 492.74 416.35 497.05 416.35 502.37C416.35 507.69 412.03 512 406.72 512Z" />
	</g>
	<g id="Layer">
	</g>
	<g id="Layer">
	</g>
	<g id="Layer">
	</g>
	<g id="Layer">
	</g>
	<g id="Layer">
	</g>
	<g id="Layer">
	</g>
	<g id="Layer">
	</g>
	<g id="Layer">
	</g>
	<g id="Layer">
	</g>
	<g id="Layer">
	</g>
	<g id="Layer">
	</g>
	<g id="Layer">
	</g>
	<g id="Layer">
	</g>
	<g id="Layer">
	</g>
	<g id="Layer">
	</g>
</svg>