<svg xmlns="http://www.w3.org/2000/svg" viewBox="0 0 512 512" width="512" height="512">
	<style>
		tspan { white-space:pre }
		.shp0 { fill: #a61313 } 
		.shp1 { fill: #ba1616 } 
	</style>
	<g id="Layer">
		<path id="Layer" class="shp0" d="M353.1 0L158.9 0C154.02 0 150.07 3.95 150.07 8.83L150.07 52.97L361.93 52.97L361.93 8.83C361.93 3.95 357.98 0 353.1 0Z" />
		<path id="Layer" class="shp1" d="M149.91 503.34C150 508.15 153.92 512 158.73 512L229.52 512C234.39 512 238.34 508.05 238.34 503.17L238.34 158.9C238.34 149.15 246.25 141.24 256 141.24L256 141.24L256 141.24C265.75 141.24 273.65 149.15 273.65 158.9L273.65 503.17C273.65 508.05 277.61 512 282.48 512L353.27 512C358.08 512 362 508.15 362.09 503.34L370.43 53.29C370.61 43.42 362.65 35.31 352.77 35.31L159.23 35.31C149.35 35.31 141.39 43.42 141.57 53.29L149.91 503.34Z" />
		<g id="Layer">
			<path id="Layer" class="shp0" d="M167.72 264.83L141.24 264.83C136.37 264.83 132.41 260.88 132.41 256L132.41 167.72C132.41 162.85 136.37 158.9 141.24 158.9L167.72 158.9C172.6 158.9 176.55 162.85 176.55 167.72L176.55 256C176.55 260.88 172.6 264.83 167.72 264.83Z" />
			<path id="Layer" class="shp0" d="M167.72 397.24L150.07 397.24C145.19 397.24 141.24 393.29 141.24 388.41L141.24 326.62C141.24 321.75 145.19 317.79 150.07 317.79L167.72 317.79C172.6 317.79 176.55 321.75 176.55 326.62L176.55 388.41C176.55 393.29 172.6 397.24 167.72 397.24Z" />
		</g>
		<g id="Layer">
			<path id="Layer" class="shp0" d="M167.72 194.21L141.24 194.21C136.37 194.21 132.41 190.25 132.41 185.38L132.41 167.72C132.41 162.85 136.37 158.9 141.24 158.9L167.72 158.9C172.6 158.9 176.55 162.85 176.55 167.72L176.55 185.38C176.55 190.25 172.6 194.21 167.72 194.21Z" />
			<path id="Layer" class="shp0" d="M167.72 317.79L150.07 317.79C145.19 317.79 141.24 321.75 141.24 326.62L141.24 344.28C141.24 349.15 145.19 353.1 150.07 353.1L167.72 353.1C172.6 353.1 176.55 349.15 176.55 344.28L176.55 326.62C176.55 321.75 172.6 317.79 167.72 317.79Z" />
		</g>
		<path id="Layer" class="shp0" d="M370.76 264.83L344.28 264.83C339.4 264.83 335.45 260.88 335.45 256L335.45 167.72C335.45 162.85 339.4 158.9 344.28 158.9L370.76 158.9C375.63 158.9 379.59 162.85 379.59 167.72L379.59 256C379.59 260.88 375.63 264.83 370.76 264.83Z" />
		<path id="Layer" class="shp0" d="M370.76 194.21L344.28 194.21C339.4 194.21 335.45 190.25 335.45 185.38L335.45 167.72C335.45 162.85 339.4 158.9 344.28 158.9L370.76 158.9C375.63 158.9 379.59 162.85 379.59 167.72L379.59 185.38C379.59 190.25 375.63 194.21 370.76 194.21Z" />
		<path id="Layer" class="shp0" d="M361.93 397.24L344.28 397.24C339.4 397.24 335.45 393.29 335.45 388.41L335.45 326.62C335.45 321.75 339.4 317.79 344.28 317.79L361.93 317.79C366.81 317.79 370.76 321.75 370.76 326.62L370.76 388.41C370.76 393.29 366.81 397.24 361.93 397.24Z" />
		<g id="Layer">
			<path id="Layer" class="shp0" d="M361.93 317.79L344.28 317.79C339.4 317.79 335.45 321.75 335.45 326.62L335.45 344.28C335.45 349.15 339.4 353.1 344.28 353.1L361.93 353.1C366.81 353.1 370.76 349.15 370.76 344.28L370.76 326.62C370.76 321.75 366.81 317.79 361.93 317.79Z" />
			<path id="Layer" class="shp0" d="M229.52 512C234.39 512 238.34 508.05 238.34 503.17L238.34 485.52L149.58 485.52L149.91 503.34C150 508.15 153.92 512 158.74 512L229.52 512L229.52 512Z" />
			<path id="Layer" class="shp0" d="M273.65 485.52L273.65 503.17C273.65 508.05 277.61 512 282.48 512L353.27 512C358.08 512 362 508.15 362.09 503.34L362.42 485.52L273.65 485.52L273.65 485.52Z" />
			<path id="Layer" class="shp0" d="M141.57 53.29L142.39 97.1L150.07 97.1C174.44 97.1 194.21 77.34 194.21 52.97L194.21 35.31L159.23 35.31C149.35 35.31 141.39 43.42 141.57 53.29Z" />
			<path id="Layer" class="shp0" d="M370.43 53.29L369.61 97.1L361.93 97.1C337.56 97.1 317.79 77.34 317.79 52.97L317.79 35.31L352.77 35.31C362.65 35.31 370.61 43.42 370.43 53.29Z" />
			<path id="Layer" class="shp0" d="M256 141.24C259.23 141.24 262.22 142.17 264.83 143.69L264.83 35.31L247.17 35.31L247.17 143.69C249.78 142.17 252.77 141.24 256 141.24Z" />
		</g>
	</g>
</svg>