<svg xmlns="http://www.w3.org/2000/svg" viewBox="0 0 512 512" width="512" height="512">
	<style>
		tspan { white-space:pre }
		.shp0 { fill: #5a482e } 
		.shp1 { fill: #269bbf } 
		.shp2 { fill: #000000 } 
		.shp3 { fill: #d9e518 } 
	</style>
	<g id="Layer">
		<path id="Layer" class="shp0" d="M509.68 134.57C506.61 131.52 501.65 131.54 498.6 134.62L256 379.1L13.4 134.62C10.35 131.54 5.39 131.52 2.32 134.57C-0.76 137.62 -0.77 142.58 2.27 145.66L250.44 395.75C251.91 397.23 253.91 398.07 256 398.07C258.09 398.07 260.09 397.23 261.56 395.75L509.73 145.66C512.77 142.58 512.75 137.62 509.68 134.57Z" />
		<path id="Layer" class="shp0" d="M247.42 202.25C248.89 203.73 250.9 204.56 252.98 204.56C255.07 204.56 257.08 203.73 258.55 202.25L413.76 45.83C416.81 42.75 416.79 37.79 413.72 34.74C410.65 31.69 405.69 31.71 402.64 34.79L252.99 185.6L103.33 34.78C100.28 31.71 95.32 31.69 92.25 34.74C89.18 37.79 89.16 42.75 92.21 45.82L247.42 202.25Z" />
	</g>
	<g id="Layer">
		<path id="Layer" class="shp1" d="M152.9 240.76C150.88 238.72 147.56 238.72 145.54 240.76L105.12 281.5C103.09 283.54 103.09 286.87 105.12 288.91L145.54 329.65C147.56 331.69 150.88 331.69 152.9 329.65L193.32 288.91C195.35 286.87 195.35 283.54 193.32 281.5L152.9 240.76Z" />
		<path id="Layer" class="shp1" d="M406.88 281.5L366.46 240.76C364.44 238.72 361.12 238.72 359.1 240.76L318.68 281.5C316.65 283.54 316.65 286.87 318.68 288.91L359.1 329.65C361.12 331.69 364.44 331.69 366.46 329.65L406.88 288.91C408.91 286.87 408.91 283.54 406.88 281.5Z" />
	</g>
	<path id="Layer" class="shp1" d="M335.6 394.07C337.63 396.11 337.63 399.45 335.6 401.49L259.68 478C257.66 480.04 254.34 480.04 252.32 478L176.4 401.49C174.37 399.45 174.37 396.11 176.4 394.07L252.32 317.56C254.34 315.52 257.66 315.52 259.68 317.56L335.6 394.07Z" />
	<g id="Layer" style="opacity: 0.102">
		<path id="Layer" class="shp2" d="M197.96 401.49C195.94 399.45 195.94 396.11 197.96 394.07L266.78 324.71L259.68 317.56C257.66 315.52 254.34 315.52 252.32 317.56L176.4 394.07C174.37 396.11 174.37 399.45 176.4 401.49L252.32 478C254.34 480.04 257.66 480.04 259.68 478L266.78 470.85L197.96 401.49Z" />
	</g>
	<g id="Layer" style="opacity: 0.102">
		<path id="Layer" class="shp2" d="M126.91 288.91C124.88 286.87 124.88 283.54 126.91 281.5L160.11 248.03L152.9 240.76C150.88 238.72 147.56 238.72 145.54 240.76L105.12 281.5C103.09 283.54 103.09 286.87 105.12 288.91L145.54 329.65C147.56 331.69 150.88 331.69 152.9 329.65L160.11 322.38L126.91 288.91Z" />
	</g>
	<g id="Layer" style="opacity: 0.102">
		<path id="Layer" class="shp2" d="M340.47 288.91C338.44 286.87 338.44 283.54 340.47 281.5L373.68 248.03L366.46 240.76C364.44 238.72 361.12 238.72 359.1 240.76L318.68 281.5C316.66 283.54 316.66 286.87 318.68 288.91L359.1 329.65C361.12 331.69 364.44 331.69 366.46 329.65L373.68 322.38L340.47 288.91Z" />
	</g>
	<path id="Layer" class="shp1" d="M335.6 188.34C337.63 190.38 337.63 193.71 335.6 195.75L259.68 272.27C257.66 274.31 254.34 274.31 252.32 272.27L176.4 195.75C174.37 193.71 174.37 190.38 176.4 188.34L252.32 111.82C254.34 109.78 257.66 109.78 259.68 111.82L335.6 188.34Z" />
	<g id="Layer">
		<path id="Layer" class="shp1" d="M70.61 176.81C68.59 174.77 65.28 174.77 63.25 176.81L42.1 198.13C40.07 200.17 40.07 203.51 42.1 205.55L63.25 226.87C65.27 228.91 68.59 228.91 70.61 226.87L91.77 205.55C93.79 203.51 93.79 200.17 91.77 198.13L70.61 176.81Z" />
		<path id="Layer" class="shp1" d="M469.9 198.13L448.75 176.81C446.73 174.77 443.41 174.77 441.39 176.81L420.23 198.13C418.21 200.17 418.21 203.51 420.23 205.55L441.39 226.87C443.41 228.91 446.73 228.91 448.75 226.87L469.9 205.55C471.93 203.51 471.93 200.17 469.9 198.13Z" />
		<path id="Layer" class="shp3" d="M218.99 397.78L256 435.08L293.01 397.78L256 360.48L218.99 397.78Z" />
		<path id="Layer" class="shp3" d="M218.99 192.04L256 229.35L293.01 192.04L256 154.74L218.99 192.04Z" />
	</g>
	<g id="Layer" style="opacity: 0.102">
		<path id="Layer" class="shp2" d="M197.96 195.75C195.94 193.71 195.94 190.38 197.96 188.33L266.78 118.98L259.68 111.82C257.66 109.78 254.34 109.78 252.32 111.82L176.4 188.34C174.37 190.38 174.37 193.71 176.4 195.75L252.32 272.27C254.34 274.31 257.66 274.31 259.68 272.27L266.78 265.11L197.96 195.75Z" />
	</g>
	<g id="Layer" style="opacity: 0.102">
		<path id="Layer" class="shp2" d="M63.87 205.55C61.84 203.51 61.84 200.17 63.87 198.13L77.82 184.07L70.61 176.81C68.59 174.77 65.28 174.77 63.25 176.81L42.1 198.13C40.07 200.17 40.07 203.51 42.1 205.55L63.25 226.87C65.27 228.91 68.59 228.91 70.61 226.87L77.82 219.61L63.87 205.55Z" />
	</g>
	<g id="Layer" style="opacity: 0.102">
		<path id="Layer" class="shp2" d="M240.49 397.78L266.75 371.31L256 360.48L218.99 397.78L256 435.08L266.75 424.25L240.49 397.78Z" />
	</g>
	<g id="Layer" style="opacity: 0.102">
		<path id="Layer" class="shp2" d="M240.49 192.04L266.75 165.57L256 154.74L218.99 192.04L256 229.35L266.75 218.51L240.49 192.04Z" />
	</g>
	<g id="Layer" style="opacity: 0.102">
		<path id="Layer" class="shp2" d="M442 205.55C439.98 203.51 439.98 200.17 442 198.13L455.96 184.07L448.75 176.81C446.73 174.77 443.41 174.77 441.39 176.81L420.23 198.13C418.21 200.17 418.21 203.51 420.23 205.55L441.39 226.87C443.41 228.91 446.73 228.91 448.75 226.87L455.96 219.61L442 205.55Z" />
	</g>
	<g id="Layer">
	</g>
	<g id="Layer">
	</g>
	<g id="Layer">
	</g>
	<g id="Layer">
	</g>
	<g id="Layer">
	</g>
	<g id="Layer">
	</g>
	<g id="Layer">
	</g>
	<g id="Layer">
	</g>
	<g id="Layer">
	</g>
	<g id="Layer">
	</g>
	<g id="Layer">
	</g>
	<g id="Layer">
	</g>
	<g id="Layer">
	</g>
	<g id="Layer">
	</g>
	<g id="Layer">
	</g>
</svg>