<svg xmlns="http://www.w3.org/2000/svg" viewBox="0 0 512 512"><defs><style>.a{fill:#f78c1e;}.b{fill:#faa629;}.c{fill:#969faa;}.d{fill:#838f9b;}.e{fill:#d2d2d2;}.f{fill:#656d78;}.g{fill:#8b95a1;}.h{fill:#788592;}.i{fill:#8c95a0;}</style></defs><title>Artboard 136</title><polygon class="a" points="256.02 0 237.24 57.6 256.02 89.06 282.72 89.06 300.53 53.44 256.02 0"/><polygon class="b" points="256.02 0 256.02 89.06 229.28 89.06 211.47 53.44 256.02 0"/><path class="c" d="M286.93,336.87,256,367.74,230,408.08,256,450.18h51.5V357.46a20.64,20.64,0,0,0-20.59-20.59Z"/><path class="a" d="M425.17,200.35l-35.54,35.5c0-5.85,0-11.83,0-17.68a132.75,132.75,0,0,0-7.33-43.54Z"/><path class="a" d="M378.43,86.83l-8.88,62.32-2.07,1.26A129.39,129.39,0,0,0,348.15,126c-1.51-1.52-3-2.95-4.54-4.34a129.92,129.92,0,0,0-19.84-15l1.23-2Z"/><path class="d" d="M394.26,378.26l4.21,71.42H354L335.69,290.26l55,8q1.2,40.05,3.53,80Z"/><path class="e" d="M256,84.39V351.65a131.36,131.36,0,0,0,23.2-2l3.5,2.1a17.84,17.84,0,0,1,17.81,17.77V512L354,485.26V333.92a35.58,35.58,0,0,1,35.62-35.62h1.14c-.63-20.85-1-41.61-1.1-62.45,0-4.5,0-9,0-13.6,0-1.43,0-2.82,0-4.21A133.63,133.63,0,0,0,256,84.39Z"/><polygon class="f" points="258.59 235.98 266.8 289.46 267.52 289.37 327.23 289.37 345.04 235.98 258.59 235.98"/><path class="g" d="M225.11,336.87,256,367.74v82.44h-51.5V357.46a20.65,20.65,0,0,1,20.59-20.59Z"/><path class="b" d="M86.83,200.35l35.54,35.5c.08-5.85.08-11.83.08-17.68a132.73,132.73,0,0,1,7.29-43.54Z"/><path class="b" d="M133.57,86.83l8.93,62.32,2,1.26A129.39,129.39,0,0,1,163.85,126c1.51-1.52,3-2.95,4.54-4.34a130.26,130.26,0,0,1,19.88-15l-1.27-2Z"/><path class="h" d="M117.74,378.26l-4.21,71.42h44.55l18.23-159.42-55,8c-.8,26.7-2.07,53.31-3.58,80Z"/><path class="e" d="M256,84.39V351.65a131.82,131.82,0,0,1-23.24-2l-3.5,2.1a17.86,17.86,0,0,0-17.81,17.77V512l-53.39-26.74V333.92a35.61,35.61,0,0,0-35.63-35.62h-1.13c.58-20.85,1-41.61,1.05-62.45,0-4.5.08-9,.08-13.6,0-1.43-.08-2.82-.08-4.21A133.64,133.64,0,0,1,256,84.39Z"/><path class="c" d="M336,129l-.72.72-59.08,77.65-.46-.21L256,187.8,234.71,142,256,98c32.51-.26,60.43,9.64,80,31Z"/><path class="i" d="M176,129l.72.72,59.08,77.65.46-.21L256,187.8V98c-32.51-.26-60.42,9.64-80,31Z"/><polygon class="f" points="253.41 235.98 245.24 289.46 244.53 289.37 184.77 289.37 166.96 235.98 253.41 235.98"/><polygon class="d" points="256.02 235.98 242.76 307.77 256.02 378.43 282.72 351.73 273.07 289.46 264.91 235.98 256.02 235.98"/><polygon class="h" points="256.02 235.98 256.02 378.43 229.28 351.73 238.93 289.46 247.09 235.98 256.02 235.98"/><path class="a" d="M256,241.91a33.69,33.69,0,1,0,0-67.37L239.77,207Z"/><path class="b" d="M256,241.91a33.69,33.69,0,1,1,0-67.37Z"/></svg>