<svg xmlns="http://www.w3.org/2000/svg" viewBox="0 0 512 512"><defs><style>.a{fill:#cbcbcb;}.b{fill:#eee;}.c{fill:#d2d2d2;}.d{fill:#f78c1e;}.e,.h{fill:#969faa;}.e,.f{fill-rule:evenodd;}.f,.i{fill:#8b95a1;}.g{fill:#faa629;}.j{fill:#d4d4d4;}.k{fill:#f5f5f5;}</style></defs><title>Artboard 140</title><path class="a" d="M485.54,83.71h0L449.65,44.94a160.4,160.4,0,0,0-57.08-28.4l-13-3.47V28.14L501.7,174.73,512,172a159.62,159.62,0,0,0-26.46-88.26Z"/><path class="b" d="M477.3,93.3h0L444.23,57.58a148.46,148.46,0,0,0-52.69-26.24l-11.93-3.2V207.26L501.7,174.73A147.25,147.25,0,0,0,477.3,93.3Z"/><path class="c" d="M414.9,154.29l70.64-70.58h0l14-14a17.57,17.57,0,0,0,0-24.89l-15.34-15.4a17.7,17.7,0,0,0-27.81,3.75L397.23,136.67a17.67,17.67,0,0,1,17.67,17.62Z"/><path class="c" d="M345.51,47.49,256,51.94,201.89,250,256,454.42H379.61s-12.2-18.32-11.39-35.29c3.64-42.12,15.94-77.25,17.57-115.64l1.84.6a20.66,20.66,0,0,0,27.27-19.68l-.81-86.31-34.48,9.16V66Z"/><path class="d" d="M397.23,172a17.65,17.65,0,1,1,17.67-17.68A17.6,17.6,0,0,1,397.23,172Z"/><path class="e" d="M359.44,99.86a8.27,8.27,0,0,1,11.33,7.65v1.3a8.32,8.32,0,0,1-5.2,7.7l-60.23,24.07a8.22,8.22,0,0,0-5.21,7.64v73.95a8.22,8.22,0,0,0,5.21,7.64l69.88,28a8.27,8.27,0,0,1,4.61,10.73l-.44,1.09a8.27,8.27,0,0,1-10.73,4.61L288,242a8.78,8.78,0,0,1-5.53-8.19v-97.1a8.86,8.86,0,0,1,5.53-8.24Z"/><path class="e" d="M359.44,99.86a8.27,8.27,0,0,1,11.33,7.65v1.3a8.32,8.32,0,0,1-5.2,7.7l-60.23,24.07a8.22,8.22,0,0,0-5.21,7.64v73.95a8.22,8.22,0,0,0,5.21,7.64l69.88,28a8.27,8.27,0,0,1,4.61,10.73l-.44,1.09a8.27,8.27,0,0,1-10.73,4.61L288,242a8.78,8.78,0,0,1-5.53-8.19v-97.1a8.86,8.86,0,0,1,5.53-8.24Z"/><path class="c" d="M166.49,47.49,256,51.94V454.42H132.39s12.2-18.32,11.39-35.29c-3.64-42.12-15.94-77.25-17.57-115.64l-1.84.6A20.66,20.66,0,0,1,97.1,284.41l.81-86.31,34.48,9.16V66Z"/><path class="e" d="M152.56,99.86a8.27,8.27,0,0,0-11.33,7.65v1.3a8.32,8.32,0,0,0,5.2,7.7l60.23,24.07a8.22,8.22,0,0,1,5.21,7.64v73.95a8.22,8.22,0,0,1-5.21,7.64l-69.88,28a8.27,8.27,0,0,0-4.61,10.73l.44,1.09a8.27,8.27,0,0,0,10.73,4.61L224,242a8.82,8.82,0,0,0,5.58-8.19v-97.1a8.9,8.9,0,0,0-5.58-8.24Z"/><path class="f" d="M152.56,99.86a8.27,8.27,0,0,0-11.33,7.65v1.3a8.32,8.32,0,0,0,5.2,7.7l60.23,24.07a8.22,8.22,0,0,1,5.21,7.64v73.95a8.22,8.22,0,0,1-5.21,7.64l-69.88,28a8.27,8.27,0,0,0-4.61,10.73l.44,1.09a8.27,8.27,0,0,0,10.73,4.61L224,242a8.82,8.82,0,0,0,5.58-8.19v-97.1a8.9,8.9,0,0,0-5.58-8.24Z"/><polygon class="d" points="256 452.47 240.06 477.36 256 498.93 362.26 498.93 387.63 498.93 387.63 452.47 256 452.47"/><polygon class="g" points="256 452.47 256 498.93 149.74 498.93 124.37 498.93 124.37 452.47 256 452.47"/><path class="h" d="M256,311l-13.72,9.92L256,328.65a206.19,206.19,0,0,1,49.55,6l46.25,11.6a8.34,8.34,0,0,0,10-6l.27-1.14a8.25,8.25,0,0,0-6-10l-46.25-11.61A222.69,222.69,0,0,0,256,311Zm0,44.13-13,10,13,7.7a205.83,205.83,0,0,1,49.55,6L343,388.17a8.28,8.28,0,0,0,10-6l.27-1.14a8.26,8.26,0,0,0-6-10l-37.41-9.38A222.69,222.69,0,0,0,256,355.1Z"/><path class="i" d="M256,311v17.68a205.48,205.48,0,0,0-49.5,6l-46.3,11.6a8.25,8.25,0,0,1-10-6l-.33-1.14a8.25,8.25,0,0,1,6-10l46.25-11.61A222.69,222.69,0,0,1,256,311Zm0,44.13v17.68a205.48,205.48,0,0,0-49.5,6L169,388.17a8.28,8.28,0,0,1-10-6l-.27-1.14a8.31,8.31,0,0,1,6-10l37.41-9.38A222.69,222.69,0,0,1,256,355.1Z"/><path class="j" d="M26.46,83.71h0L62.35,44.94a160.4,160.4,0,0,1,57.08-28.4l13-3.47V28.14L10.3,174.73,0,172A159.62,159.62,0,0,1,26.46,83.71Z"/><path class="k" d="M34.7,93.3h0L67.77,57.58a148.46,148.46,0,0,1,52.69-26.24l11.93-3.2V207.26L10.3,174.73A147.66,147.66,0,0,1,34.7,93.3Z"/><path class="c" d="M97.1,154.29,26.46,83.71h0l-14-14a17.57,17.57,0,0,1,0-24.89l15.34-15.4a17.7,17.7,0,0,1,27.81,3.75l59.15,103.54A17.67,17.67,0,0,0,97.1,154.29Z"/><path class="g" d="M114.77,172A17.65,17.65,0,1,0,97.1,154.29,17.56,17.56,0,0,0,114.77,172Z"/><path class="b" d="M310.32,18.38a7.53,7.53,0,0,0-6.45,3.41l-10,15a7.69,7.69,0,0,1-6.4,3.41H256l-7.37,7.11L256,54.54l98.4,7.37,6.94-5.85c-19.84-11-29.87-19.68-45.65-35.46a7.46,7.46,0,0,0-5.37-2.22Z"/><path class="k" d="M201.68,18.38a7.53,7.53,0,0,1,6.45,3.41l10,15a7.76,7.76,0,0,0,6.4,3.41H256V54.54l-98.4,7.37-6.94-5.85c19.84-11,29.87-19.68,45.65-35.46a7.46,7.46,0,0,1,5.37-2.22Z"/><path class="b" d="M311.62,30.31a6.54,6.54,0,0,0-5.42,2.87l-8.35,12.58a6.43,6.43,0,0,1-5.36,2.87H256l-9.92,25.48L256,92.49h59.64a6.37,6.37,0,0,0,4-1.41L354.4,61.91c-16.64-9.16-25-16.48-38.28-29.71a6.38,6.38,0,0,0-4.5-1.89Z"/><path class="k" d="M200.38,30.31a6.48,6.48,0,0,1,5.42,2.87l8.35,12.58a6.43,6.43,0,0,0,5.36,2.87H256V92.49H196.36a6.37,6.37,0,0,1-4-1.41L157.6,61.91c16.64-9.16,25.05-16.48,38.28-29.71a6.38,6.38,0,0,1,4.5-1.89Z"/></svg>