<svg xmlns="http://www.w3.org/2000/svg" viewBox="0 0 512 512"><defs><style>.a{fill:#d2d2d2;}.b{fill:#e4b923;}.c{fill:#ffc808;}.d{fill:#656d78;}.e{fill:#f78c1e;}.f{fill:#e7c139;}.g{fill:#ffce21;}.h{fill:#faa629;}</style></defs><title>Artboard 144</title><path class="a" d="M256,45.93l-37.95,102.3L256,256a9.7,9.7,0,0,1,9.65,8.46l31,232.71A17,17,0,0,0,313.61,512h89a17.16,17.16,0,0,0,17-15.43l11.32-121.12L435.21,256V228.42a454.41,454.41,0,0,0-3.76-59h-.12L401.07,51.18,315.34,39.26Z"/><path class="b" d="M452.24,298.06v60.35a17.1,17.1,0,0,1-17,17H349.83a17.11,17.11,0,0,1-17-17V307.18Z"/><path class="c" d="M469.34,273v17.1a17.09,17.09,0,0,1-17.1,17H332.79V256H452.24a17.12,17.12,0,0,1,17.1,17Z"/><path class="c" d="M431.45,169.38h-.12a64.44,64.44,0,0,1-13.22,1.31,68.22,68.22,0,0,1-45-119.51l15.19-8.94,12.81,8.94a473.14,473.14,0,0,1,30.38,118.2Z"/><rect class="d" x="273.04" y="110.93" width="17.1" height="17.1"/><rect class="d" x="273.04" y="76.79" width="17.1" height="17.1"/><polygon class="e" points="256 0 238.43 27.41 256 51.18 373.07 51.18 401.07 51.18 401.07 0 256 0"/><path class="a" d="M256,45.93V256a9.65,9.65,0,0,0-9.65,8.46l-31,232.71A17.08,17.08,0,0,1,198.39,512h-89a17.12,17.12,0,0,1-17-15.43L81.08,375.45,76.79,256V228.42a454.41,454.41,0,0,1,3.76-59h.06l30.32-118.2,85.73-11.92Z"/><path class="f" d="M59.7,298.06v60.35a17.12,17.12,0,0,0,17.09,17h85.32a17.12,17.12,0,0,0,17.1-17V307.18Z"/><path class="g" d="M42.66,273v17.1a17.07,17.07,0,0,0,17,17H179.21V256H59.7a17.11,17.11,0,0,0-17,17Z"/><path class="g" d="M80.55,169.38h.06a64.93,64.93,0,0,0,13.22,1.31,68.26,68.26,0,0,0,45.1-119.51l-15.19-8.94-12.81,8.94a473.14,473.14,0,0,0-30.38,118.2Z"/><rect class="d" x="221.86" y="110.93" width="17.04" height="17.1"/><rect class="d" x="221.86" y="76.79" width="17.04" height="17.1"/><polygon class="h" points="256 0 256 51.18 138.93 51.18 110.93 51.18 110.93 0 256 0"/></svg>