<?xml version="1.0" encoding="iso-8859-1"?>
<!-- Generator: Adobe Illustrator 19.0.0, SVG Export Plug-In . SVG Version: 6.00 Build 0)  -->
<svg version="1.1" id="Layer_1" xmlns="http://www.w3.org/2000/svg" xmlns:xlink="http://www.w3.org/1999/xlink" x="0px" y="0px"
	 viewBox="0 0 512 512" style="enable-background:new 0 0 512 512;" xml:space="preserve">
<g>
	<path style="fill:#A07852;" d="M506.892,136.096v90.685H6.155v-90.685c0-25.714,20.858-46.559,46.573-46.559H460.32
		C486.034,89.537,506.892,110.382,506.892,136.096z"/>
	<rect x="6.155" y="225.664" style="fill:#A07852;" width="500.737" height="206.239"/>
</g>
<g>
	<rect x="6.155" y="225.664" style="fill:#896746;" width="500.737" height="39.716"/>
	<rect x="125.235" y="225.664" style="fill:#896746;" width="40.786" height="206.239"/>
	<rect x="347.02" y="225.664" style="fill:#896746;" width="40.786" height="206.239"/>
	<rect x="125.245" y="89.538" style="fill:#896746;" width="32.21" height="137.244"/>
	<rect x="352.914" y="89.538" style="fill:#896746;" width="34.897" height="137.244"/>
</g>
<path style="fill:#FFE164;" d="M256.523,309.329L256.523,309.329c-23.103,0-41.833-18.729-41.833-41.832v-41.832h83.665v41.832
	C298.356,290.6,279.627,309.329,256.523,309.329z"/>
<g>
	<path style="fill:#896746;" d="M384.718,132.497h-44.571c-4.173,0-7.556-3.382-7.556-7.556s3.383-7.556,7.556-7.556h44.571
		c4.173,0,7.556,3.382,7.556,7.556C392.274,129.115,388.891,132.497,384.718,132.497z"/>
	<path style="fill:#896746;" d="M305.219,132.497h-176.89c-4.173,0-7.556-3.382-7.556-7.556s3.383-7.556,7.556-7.556H305.22
		c4.173,0,7.556,3.382,7.556,7.556C312.775,129.115,309.392,132.497,305.219,132.497z"/>
	<path style="fill:#896746;" d="M384.718,179.449H128.329c-4.173,0-7.556-3.382-7.556-7.556c0-4.174,3.383-7.556,7.556-7.556h256.39
		c4.173,0,7.556,3.382,7.556,7.556C392.276,176.066,388.891,179.449,384.718,179.449z"/>
</g>
<path style="fill:#EFCF4B;" d="M256.523,280.941c-4.173,0-7.556-3.382-7.556-7.556v-22.426c0-4.174,3.383-7.556,7.556-7.556
	c4.173,0,7.556,3.382,7.556,7.556v22.426C264.08,277.559,260.697,280.941,256.523,280.941z"/>
<rect x="385.658" y="226.54" style="fill:#FFE164;" width="64.713" height="205.373"/>
<rect x="385.658" y="226.54" style="fill:#EFCF4B;" width="64.713" height="54.406"/>
<rect x="62.678" y="226.54" style="fill:#FFE164;" width="64.713" height="205.373"/>
<rect x="62.678" y="226.54" style="fill:#EFCF4B;" width="64.713" height="54.406"/>
<g>
	<path style="fill:#896746;" d="M504.444,179.449h-52.14c-4.173,0-7.556-3.382-7.556-7.556c0-4.174,3.383-7.556,7.556-7.556h52.14
		c4.173,0,7.556,3.382,7.556,7.556C512,176.066,508.617,179.449,504.444,179.449z"/>
	<path style="fill:#896746;" d="M504.444,132.497h-52.14c-4.173,0-7.556-3.382-7.556-7.556s3.383-7.556,7.556-7.556h52.14
		c4.173,0,7.556,3.382,7.556,7.556C512,129.115,508.617,132.497,504.444,132.497z"/>
	<path style="fill:#896746;" d="M59.697,179.449H7.556c-4.173,0-7.556-3.382-7.556-7.556c0-4.174,3.383-7.556,7.556-7.556h52.14
		c4.173,0,7.556,3.382,7.556,7.556C67.253,176.066,63.87,179.449,59.697,179.449z"/>
	<path style="fill:#896746;" d="M59.697,132.497H7.556c-4.173,0-7.556-3.382-7.556-7.556s3.383-7.556,7.556-7.556h52.14
		c4.173,0,7.556,3.382,7.556,7.556C67.253,129.115,63.87,132.497,59.697,132.497z"/>
</g>
<g>
	<path style="fill:#FFEB96;" d="M127.389,408.066H62.672c-4.173,0-7.556-3.382-7.556-7.556c0-4.174,3.383-7.556,7.556-7.556h64.717
		c4.173,0,7.556,3.382,7.556,7.556C134.945,404.684,131.563,408.066,127.389,408.066z"/>
	<path style="fill:#FFEB96;" d="M450.375,408.066h-64.717c-4.173,0-7.556-3.382-7.556-7.556c0-4.174,3.383-7.556,7.556-7.556h64.717
		c4.173,0,7.556,3.382,7.556,7.556C457.931,404.684,454.548,408.066,450.375,408.066z"/>
</g>
<g>
	<path style="fill:#FFE164;" d="M450.375,246.692h-64.718V92.865c0-7.057,5.721-12.777,12.777-12.777h39.163
		c7.057,0,12.777,5.721,12.777,12.777V246.692z"/>
	<path style="fill:#FFE164;" d="M127.39,246.692H62.672V92.865c0-7.057,5.721-12.777,12.777-12.777h39.163
		c7.057,0,12.777,5.721,12.777,12.777V246.692z"/>
</g>
<g>
</g>
<g>
</g>
<g>
</g>
<g>
</g>
<g>
</g>
<g>
</g>
<g>
</g>
<g>
</g>
<g>
</g>
<g>
</g>
<g>
</g>
<g>
</g>
<g>
</g>
<g>
</g>
<g>
</g>
</svg>
