<?xml version="1.0"?>
<svg xmlns="http://www.w3.org/2000/svg" id="Layer_2" height="512px" viewBox="0 0 128 128" width="512px" data-name="Layer 2" class=""><g><path d="m85.5 96.83-43-4.75h-40.75v13.25h40.75v-4.623l43 4.623h40.75v-8.5z" fill="#515a5e" data-original="#515A5E" class=""/><path d="m70.006 82.33a15.029 15.029 0 0 0 12.462-6.63l2.387-3.543-26.674-8.483-7.5-29.261h-48.931v57.667h40.75l7.025.776 12.212-8.047a15.034 15.034 0 0 1 8.269-2.479z" fill="#4695bc" data-original="#4695BC" class="" data-old_color="#4695bc" style="fill:#46BC72"/><path d="m50.683 34.413 7.498 29.261 26.674 8.484 5.824-8.641-24.187-7.693-5.487-21.411z" fill="#515a5e" data-original="#515A5E" class=""/><path d="m112.312 70.4-21.633-6.88-5.824 8.641-2.387 3.539a15.029 15.029 0 0 1 -12.462 6.63 15.034 15.034 0 0 0 -8.269 2.479l-12.212 8.047 35.975 3.974h40.75v-7.374a20 20 0 0 0 -13.938-19.056z" fill="#fee372" data-original="#FEE372" class="" data-old_color="#fee372" style="fill:#3B963C"/><path d="m61.005 34.413-3.009-11.743h-56.246v11.743h48.933z" fill="#515a5e" data-original="#515A5E" class=""/><path d="m63.191 42.941h-10.323l.897 3.5h10.323z" fill="#343c3f" data-original="#343C3F"/><path d="m58.003 38.417h4.028l-1.026-4.004h-10.322l1.025 4.004z" fill="#343c3f" data-original="#343C3F"/><path d="m1.75 67.58h4.987a20 20 0 0 1 16.9 9.307l9.613 15.193h-31.5z" fill="#fee372" data-original="#FEE372" class="" data-old_color="#fee372" style="fill:#3B963C"/><path d="m26.75 48.455h-16.75a1.75 1.75 0 0 1 0-3.5h16.75a1.75 1.75 0 0 1 0 3.5z" fill="#0e708e" data-original="#0E708E" class="active-path" style="fill:#3B963C" data-old_color="#0e708e"/></g> </svg>
