<?xml version="1.0"?>
<svg xmlns="http://www.w3.org/2000/svg" id="Capa_1" enable-background="new 0 0 512 512" height="512px" viewBox="0 0 512 512" width="512px" class=""><g><g fill="#994e37"><path d="m195.153 434.206c-16.77-6.569-32.878-15.836-47.877-27.546-3.272-2.553-7.994-1.973-10.547 1.299-2.554 3.271-1.973 7.993 1.299 10.548 16.145 12.605 33.521 22.595 51.644 29.693.9.352 1.827.52 2.739.52 3.002 0 5.838-1.812 6.999-4.776 1.513-3.866-.393-8.225-4.257-9.738z" data-original="#994E37" class="" data-old_color="#994E37" style="fill:#505050"/><path d="m84.363 329.691c-1.898-3.69-6.429-5.145-10.119-3.246-3.691 1.898-5.144 6.43-3.246 10.12 6.277 12.204 13.542 23.945 21.592 34.894 1.473 2.004 3.751 3.065 6.06 3.065 1.546 0 3.105-.475 4.446-1.461 3.343-2.459 4.061-7.163 1.603-10.506-7.58-10.309-14.422-21.367-20.336-32.866z" data-original="#994E37" class="" data-old_color="#994E37" style="fill:#505050"/><path d="m57.599 225.241c-.076-4.15-3.503-7.449-7.65-7.377-4.15.076-7.452 3.501-7.376 7.651.259 14.201 1.81 28.606 4.609 42.81.706 3.581 3.847 6.063 7.364 6.063.482 0 .971-.046 1.461-.143 4.072-.802 6.722-4.753 5.92-8.826-2.629-13.34-4.085-26.859-4.328-40.178z" data-original="#994E37" class="" data-old_color="#994E37" style="fill:#505050"/><path d="m81.021 117.579c-3.477-2.263-8.132-1.282-10.398 2.197-9.455 14.519-16.628 30.68-21.319 48.034-1.083 4.006 1.287 8.132 5.293 9.215.657.177 1.316.262 1.965.262 3.312 0 6.344-2.207 7.25-5.556 4.28-15.834 10.809-30.555 19.404-43.754 2.266-3.477 1.283-8.132-2.195-10.398z" data-original="#994E37" class="" data-old_color="#994E37" style="fill:#505050"/><path d="m155.935 60.114c-1.731-3.771-6.191-5.426-9.964-3.696-17.172 7.879-32.609 17.782-45.882 29.433-3.119 2.739-3.428 7.486-.69 10.606 1.486 1.692 3.562 2.557 5.65 2.557 1.76 0 3.528-.615 4.955-1.867 12.178-10.691 26.387-19.798 42.235-27.069 3.772-1.731 5.426-6.192 3.696-9.964z" data-original="#994E37" class="" data-old_color="#994E37" style="fill:#505050"/><path d="m235.339 34.891c-17.462 1.146-34.373 3.779-50.263 7.824-4.022 1.024-6.452 5.114-5.428 9.137.865 3.4 3.922 5.663 7.277 5.663.613 0 1.237-.076 1.86-.234 15-3.819 30.995-6.306 47.54-7.393 4.141-.271 7.278-3.849 7.006-7.99-.274-4.143-3.849-7.293-7.992-7.007z" data-original="#994E37" class="" data-old_color="#994E37" style="fill:#505050"/><path d="m364.724 406.66c-16.262 12.697-31.516 20.997-49.459 26.914-3.941 1.3-6.083 5.549-4.783 9.49 1.042 3.16 3.98 5.163 7.135 5.163.78 0 1.574-.122 2.355-.38 19.659-6.484 36.313-15.533 54-29.34 3.271-2.554 3.853-7.277 1.299-10.548-2.553-3.271-7.275-3.853-10.547-1.299z" data-original="#994E37" class="" data-old_color="#994E37" style="fill:#505050"/><path d="m437.756 326.446c-3.69-1.896-8.221-.445-10.119 3.246-5.914 11.499-12.756 22.557-20.336 32.867-2.458 3.343-1.741 8.047 1.603 10.506 1.341.985 2.9 1.461 4.446 1.461 2.309 0 4.587-1.062 6.06-3.065 8.05-10.949 15.316-22.69 21.592-34.894 1.898-3.692.445-8.223-3.246-10.121z" data-original="#994E37" class="" data-old_color="#994E37" style="fill:#505050"/><path d="m462.051 217.864c-4.124-.073-7.574 3.226-7.65 7.377-.243 13.32-1.699 26.839-4.328 40.178-.802 4.072 1.848 8.023 5.92 8.826.491.097.979.143 1.461.143 3.517 0 6.659-2.481 7.365-6.063 2.799-14.204 4.35-28.609 4.609-42.81.075-4.15-3.227-7.575-7.377-7.651z" data-original="#994E37" class="" data-old_color="#994E37" style="fill:#505050"/><path d="m455.437 177.288c.649 0 1.309-.085 1.965-.262 4.006-1.083 6.376-5.209 5.294-9.215-4.691-17.354-11.864-33.516-21.319-48.034-2.265-3.479-6.922-4.461-10.398-2.197-3.478 2.265-4.461 6.921-2.196 10.398 8.596 13.2 15.124 27.921 19.404 43.754.906 3.35 3.939 5.556 7.25 5.556z" data-original="#994E37" class="" data-old_color="#994E37" style="fill:#505050"/><path d="m412.601 96.457c2.738-3.119 2.429-7.867-.69-10.606-13.273-11.652-28.71-21.555-45.881-29.433-3.772-1.733-8.233-.075-9.964 3.696-1.73 3.772-.076 8.233 3.696 9.964 15.847 7.271 30.057 16.379 42.235 27.069 1.427 1.253 3.194 1.867 4.954 1.867 2.087 0 4.165-.865 5.65-2.557z" data-original="#994E37" class="" data-old_color="#994E37" style="fill:#505050"/><path d="m325.076 57.514c3.355 0 6.411-2.263 7.277-5.663 1.024-4.022-1.406-8.112-5.428-9.137-12.536-3.191-25.763-5.514-39.315-6.905-4.123-.421-7.819 2.579-8.243 6.708-.424 4.128 2.58 7.819 6.708 8.243 12.821 1.316 25.317 3.509 37.142 6.52.622.158 1.246.234 1.859.234z" data-original="#994E37" class="" data-old_color="#994E37" style="fill:#505050"/></g><path d="m433.199 370.662-41.083-25.968c-3.35-2.117-7.769-1.27-10.097 1.938l-34.882 48.06c-2.321 3.198-1.768 7.648 1.264 10.181l30.619 25.58c1.37 1.145 3.081 1.748 4.818 1.748.76 0 1.526-.116 2.271-.351l31.782-10.076c2.23-.707 4.003-2.412 4.797-4.612l13.565-37.596c1.196-3.318-.074-7.021-3.054-8.904z" fill="#e8834d" data-original="#E8834D" class="" style="fill:#FF3838" data-old_color="#e8834d"/><path d="m433.199 370.662-17.207-10.876-25.501 70.674 27.399-8.687c2.23-.707 4.003-2.412 4.797-4.612l13.565-37.596c1.197-3.317-.073-7.02-3.053-8.903z" fill="#d66e41" data-original="#D66E41" class="active-path" style="fill:#CC3E3E" data-old_color="#d66e41"/><path d="m485.563 316.836-21.146-52.76c-.861-2.149-2.664-3.78-4.887-4.424-2.225-.642-4.619-.226-6.494 1.132l-40.432 29.263c-2.921 2.113-3.929 6.005-2.401 9.272l17.308 36.994c1.263 2.699 3.954 4.331 6.806 4.331.727 0 1.465-.106 2.192-.328l44.269-13.497c2.013-.613 3.676-2.043 4.586-3.94.91-1.898.982-4.09.199-6.043z" fill="#e8834d" data-original="#E8834D" class="" style="fill:#FF3838" data-old_color="#e8834d"/><path d="m464.287 331.848 16.493-5.028c2.013-.613 3.676-2.043 4.586-3.94.909-1.898.981-4.09.199-6.043l-21.146-52.76c-.861-2.149-2.664-3.78-4.887-4.424-2.225-.642-4.619-.226-6.494 1.132l-13.356 9.667z" fill="#d66e41" data-original="#D66E41" class="active-path" style="fill:#CC3E3E" data-old_color="#d66e41"/><path d="m497.282 187.848-29.372-29.14c-2.708-2.686-6.999-2.918-9.98-.538l-37.244 29.729c-1.564 1.248-2.565 3.067-2.782 5.056s.367 3.982 1.624 5.538l30.654 37.957c1.368 1.694 3.403 2.711 5.578 2.789.09.003.179.005.269.005 2.079 0 4.07-.862 5.494-2.389l35.962-38.546c2.769-2.969 2.68-7.601-.203-10.461z" fill="#e8834d" data-original="#E8834D" class="" style="fill:#FF3838" data-old_color="#e8834d"/><path d="m456.028 239.243c2.079 0 4.07-.862 5.494-2.389l35.962-38.546c2.77-2.969 2.681-7.601-.202-10.461l-12.103-12.007-44.996 48.229 9.998 12.38c1.368 1.694 3.403 2.711 5.578 2.789.09.003.179.005.269.005z" fill="#d66e41" data-original="#D66E41" class="active-path" style="fill:#CC3E3E" data-old_color="#d66e41"/><path d="m451.539 89.765-30.688-18.247c-3.31-1.967-7.572-1.116-9.87 1.975l-30.689 41.263c-1.284 1.726-1.766 3.92-1.325 6.025.441 2.106 1.764 3.922 3.633 4.987l40.368 23.017c1.146.653 2.43.986 3.723.986.775 0 1.554-.12 2.308-.363 2.009-.649 3.652-2.111 4.528-4.031l21.009-46.032c1.592-3.491.3-7.62-2.997-9.58z" fill="#e8834d" data-original="#E8834D" class="" style="fill:#FF3838" data-old_color="#e8834d"/><path d="m433.526 145.377 21.009-46.032c1.592-3.49.301-7.619-2.996-9.579l-14.651-8.712-27.403 60.044 13.483 7.687c1.146.653 2.43.986 3.723.986.775 0 1.554-.12 2.308-.363 2.008-.649 3.651-2.111 4.527-4.031z" fill="#d66e41" data-original="#D66E41" class="active-path" style="fill:#CC3E3E" data-old_color="#d66e41"/><path d="m375.596 43.956-24.882-24.469c-1.511-1.485-3.577-2.259-5.693-2.145-2.116.12-4.082 1.127-5.415 2.773l-33.591 41.472c-1.416 1.748-1.974 4.038-1.522 6.242.453 2.204 1.868 4.088 3.858 5.137l38.568 20.321c1.117.588 2.316.868 3.497.868 2.687 0 5.285-1.445 6.637-3.98l19.906-37.324c1.566-2.939 1.012-6.559-1.363-8.895z" fill="#e8834d" data-original="#E8834D" class="" style="fill:#FF3838" data-old_color="#e8834d"/><path d="m357.052 90.174 19.906-37.324c1.567-2.938 1.013-6.559-1.362-8.894l-13.503-13.278-29.395 55.116 14.22 7.492c1.117.588 2.316.868 3.497.868 2.687.001 5.285-1.444 6.637-3.98z" fill="#d66e41" data-original="#D66E41" class="active-path" style="fill:#CC3E3E" data-old_color="#d66e41"/><path d="m300.882 29.397c-.63-2.024-2.084-3.688-4.006-4.581l-51.83-24.114c-2.121-.988-4.579-.93-6.652.154s-3.523 3.071-3.922 5.376l-8.36 48.227c-.635 3.663 1.503 7.24 5.031 8.414l38.455 12.799c.783.26 1.583.386 2.372.386 2.604 0 5.097-1.359 6.477-3.703l21.735-36.913c1.075-1.827 1.329-4.022.7-6.045z" fill="#e8834d" data-original="#E8834D" class="" style="fill:#FF3838" data-old_color="#e8834d"/><path d="m278.447 72.354 21.735-36.913c1.075-1.827 1.329-4.021.7-6.045-.63-2.024-2.084-3.688-4.006-4.581l-14.758-6.866-30.47 51.748 17.95 5.975c.783.26 1.583.386 2.372.386 2.604-.001 5.097-1.36 6.477-3.704z" fill="#d66e41" data-original="#D66E41" class="active-path" style="fill:#CC3E3E" data-old_color="#d66e41"/><path d="m164.864 394.692-34.882-48.06c-2.329-3.208-6.747-4.055-10.097-1.938l-41.083 25.968c-2.98 1.884-4.25 5.586-3.053 8.903l13.565 37.596c.794 2.201 2.568 3.905 4.797 4.612l31.782 10.076c.745.236 1.51.351 2.271.351 1.738 0 3.448-.603 4.818-1.748l30.619-25.58c3.031-2.532 3.584-6.982 1.263-10.18z" fill="#e8834d" data-original="#E8834D" class="" style="fill:#FF3838" data-old_color="#e8834d"/><path d="m131.308 398.049-30.818 25.747 25.402 8.054c.745.236 1.51.351 2.271.351 1.738 0 3.448-.603 4.818-1.748l30.619-25.58c3.033-2.534 3.585-6.983 1.264-10.181l-34.882-48.06c-2.329-3.208-6.747-4.055-10.097-1.938l-14.762 9.33 27.027 37.237c1.548 2.133 1.179 5.099-.842 6.788z" fill="#d66e41" data-original="#D66E41" class="active-path" style="fill:#CC3E3E" data-old_color="#d66e41"/><path d="m99.396 290.048-40.432-29.263c-1.875-1.357-4.27-1.773-6.494-1.132-2.223.644-4.026 2.275-4.887 4.424l-21.146 52.76c-.783 1.953-.711 4.145.199 6.043.91 1.897 2.572 3.327 4.586 3.94l44.269 13.497c.727.222 1.464.328 2.192.328 2.851 0 5.543-1.632 6.806-4.331l17.308-36.994c1.527-3.268.52-7.159-2.401-9.272z" fill="#e8834d" data-original="#E8834D" class="" style="fill:#FF3838" data-old_color="#e8834d"/><path d="m99.396 290.048-14.878-10.768-26.12 55.826 17.093 5.211c.727.222 1.464.328 2.192.328 2.851 0 5.543-1.632 6.806-4.331l17.308-36.994c1.527-3.268.52-7.159-2.401-9.272z" fill="#d66e41" data-original="#D66E41" class="active-path" style="fill:#CC3E3E" data-old_color="#d66e41"/><path d="m94.096 192.955c-.217-1.988-1.219-3.808-2.782-5.056l-37.244-29.729c-2.981-2.38-7.273-2.149-9.98.538l-29.372 29.14c-2.883 2.86-2.972 7.492-.202 10.461l35.962 38.546c1.424 1.527 3.415 2.389 5.494 2.389.09 0 .179-.002.269-.005 2.176-.077 4.21-1.095 5.578-2.789l30.654-37.957c1.256-1.556 1.841-3.549 1.623-5.538z" fill="#e8834d" data-original="#E8834D" class="" style="fill:#FF3838" data-old_color="#e8834d"/><path d="m61.819 236.45 30.654-37.957c1.257-1.556 1.841-3.549 1.624-5.538-.217-1.988-1.219-3.808-2.782-5.056l-13.212-10.546-38.574 47.765 10.951 11.737c1.424 1.527 3.415 2.389 5.494 2.389.09 0 .179-.002.269-.005 2.173-.078 4.208-1.095 5.576-2.789z" fill="#d66e41" data-original="#D66E41" class="active-path" style="fill:#CC3E3E" data-old_color="#d66e41"/><path d="m131.708 114.756-30.688-41.264c-2.298-3.091-6.562-3.944-9.87-1.975l-30.689 18.248c-3.297 1.96-4.588 6.089-2.996 9.579l21.009 46.032c.876 1.92 2.519 3.383 4.528 4.031.753.243 1.532.363 2.308.363 1.292 0 2.577-.334 3.723-.986l40.368-23.017c1.869-1.066 3.192-2.882 3.633-4.987.44-2.105-.042-4.298-1.326-6.024z" fill="#e8834d" data-original="#E8834D" class="" style="fill:#FF3838" data-old_color="#e8834d"/><path d="m115.419 133.74 13.982-7.972c1.869-1.066 3.192-2.882 3.633-4.987.441-2.106-.041-4.299-1.325-6.025l-30.689-41.264c-2.298-3.091-6.562-3.944-9.87-1.975l-15.259 9.073z" fill="#d66e41" data-original="#D66E41" class="active-path" style="fill:#CC3E3E" data-old_color="#d66e41"/><path d="m205.986 61.587-33.591-41.472c-1.334-1.646-3.3-2.653-5.415-2.773-2.114-.112-4.182.66-5.693 2.145l-24.883 24.469c-2.375 2.336-2.929 5.956-1.362 8.894l19.906 37.324c1.352 2.535 3.95 3.98 6.637 3.98 1.181 0 2.38-.28 3.497-.868l38.568-20.321c1.99-1.049 3.406-2.933 3.858-5.137.453-2.202-.106-4.493-1.522-6.241z" fill="#e8834d" data-original="#E8834D" class="" style="fill:#FF3838" data-old_color="#e8834d"/><path d="m190.303 79.998 13.347-7.032c1.99-1.049 3.406-2.933 3.858-5.137.452-2.203-.106-4.494-1.522-6.242l-33.591-41.472c-1.334-1.646-3.3-2.653-5.415-2.773-2.114-.112-4.182.66-5.693 2.145l-11.131 10.946z" fill="#d66e41" data-original="#D66E41" class="active-path" style="fill:#CC3E3E" data-old_color="#d66e41"/><path d="m333.508 415.443-81.309-52.32c-2.745-1.767-6.318-1.559-8.839.515l-63.632 52.32c-2.542 2.089-3.428 5.589-2.188 8.637l24.746 60.805c.839 2.063 2.551 3.648 4.673 4.325l68.581 21.918c.755.242 1.525.358 2.287.358 2.541 0 4.976-1.294 6.377-3.538l51.613-82.723c2.175-3.487 1.146-8.074-2.309-10.297z" fill="#994e37" data-original="#994E37" class="" data-old_color="#994e37" style="fill:#505050"/><path d="m284.203 508.462 51.613-82.723c2.175-3.486 1.146-8.073-2.309-10.296l-14.865-9.565-64.016 99.081 20.913 6.684c.755.242 1.525.358 2.287.358 2.541-.001 4.977-1.295 6.377-3.539z" fill="#844131" data-original="#844131" class="" data-old_color="#844131" style="fill:#383838"/><circle cx="252.566" cy="441.112" fill="#ffaa5c" r="36.102" data-original="#FFAA5C" class="" data-old_color="#ffaa5c" style="fill:#FF5C5C"/><path d="m252.566 405.011c-3.982 0-7.809.654-11.391 1.845 14.354 4.771 24.711 18.3 24.711 34.257s-10.357 29.486-24.711 34.257c3.582 1.191 7.409 1.845 11.391 1.845 19.939 0 36.102-16.163 36.102-36.102s-16.163-36.102-36.102-36.102z" fill="#ff9838" data-original="#FF9838" class="" style="fill:#FF3838" data-old_color="#ff9838"/></g> </svg>
