<svg xmlns="http://www.w3.org/2000/svg" viewBox="0 0 512 512" width="512" height="512">
	<style>
		tspan { white-space:pre }
		.shp0 { fill: #86cec4 } 
		.shp1 { fill: #91e5d9 } 
		.shp2 { fill: #ffa000 } 
		.shp3 { fill: #546e7a } 
	</style>
	<path id="Layer" class="shp0" d="M416 53.33L96 53.33C42.98 53.33 0 96.31 0 149.33L0 192C0 197.89 4.78 202.67 10.67 202.67L501.33 202.67C507.22 202.67 512 197.89 512 192L512 149.33C512 96.31 469.02 53.33 416 53.33Z" />
	<path id="Layer" class="shp1" d="M469.33 170.67L469.33 181.33L42.67 181.33L42.67 170.67C42.65 159.38 44.68 148.17 48.64 137.6C51.14 130.42 54.59 123.61 58.88 117.33C76.69 90.68 106.62 74.68 138.67 74.67L373.33 74.67C405.38 74.68 435.31 90.68 453.12 117.33C457.41 123.61 460.86 130.42 463.36 137.6C467.32 148.17 469.35 159.38 469.33 170.67Z" />
	<path id="Layer" class="shp1" d="M463.36 137.6C461.89 138.28 460.29 138.64 458.67 138.67L53.33 138.67C51.71 138.64 50.11 138.28 48.64 137.6C51.14 130.42 54.59 123.61 58.88 117.33L453.12 117.33C457.41 123.61 460.86 130.42 463.36 137.6Z" />
	<path id="Layer" class="shp0" d="M10.67 181.33L501.33 181.33C507.22 181.33 512 186.11 512 192L512 448C512 453.89 507.22 458.67 501.33 458.67L10.67 458.67C4.78 458.67 0 453.89 0 448L0 192C0 186.11 4.78 181.33 10.67 181.33Z" />
	<path id="Layer" class="shp1" d="M53.33 224L458.67 224C464.56 224 469.33 228.78 469.33 234.67L469.33 405.33C469.33 411.23 464.56 416 458.67 416L53.33 416C47.44 416 42.67 411.22 42.67 405.33L42.67 234.67C42.67 228.78 47.44 224 53.33 224Z" />
	<path id="Layer" class="shp1" d="M42.67 309.33L469.33 309.33L469.33 330.67L42.67 330.67L42.67 309.33Z" />
	<path id="Layer" class="shp2" d="M309.33 181.33L202.67 181.33C196.78 181.33 192 186.11 192 192L192 245.33C192 280.68 220.65 309.33 256 309.33C291.35 309.33 320 280.68 320 245.33L320 192C320 186.11 315.22 181.33 309.33 181.33Z" />
	<path id="Layer" class="shp3" d="M277.33 234.67C277.33 222.88 267.78 213.33 256 213.33C244.22 213.33 234.67 222.88 234.67 234.67C234.76 242.15 238.82 249.02 245.33 252.72L245.33 256C245.33 261.89 250.11 266.67 256 266.67C261.89 266.67 266.67 261.89 266.67 256L266.67 252.71C273.18 249.02 277.24 242.15 277.33 234.67Z" />
	<g id="Layer">
	</g>
	<g id="Layer">
	</g>
	<g id="Layer">
	</g>
	<g id="Layer">
	</g>
	<g id="Layer">
	</g>
	<g id="Layer">
	</g>
	<g id="Layer">
	</g>
	<g id="Layer">
	</g>
	<g id="Layer">
	</g>
	<g id="Layer">
	</g>
	<g id="Layer">
	</g>
	<g id="Layer">
	</g>
	<g id="Layer">
	</g>
	<g id="Layer">
	</g>
	<g id="Layer">
	</g>
</svg>