<svg id="Capa_1" enable-background="new 0 0 512 512" height="512" viewBox="0 0 512 512" width="512" xmlns="http://www.w3.org/2000/svg"><g fill="#994e37"><path d="m222.039 405.923c-7.168-2.225-14.434-5.18-21.596-8.782-3.759-1.89-8.339-.376-10.23 3.383-1.891 3.76-.376 8.34 3.383 10.23 7.91 3.978 15.959 7.249 23.925 9.722.753.234 1.513.345 2.262.345 3.25 0 6.26-2.096 7.274-5.362 1.247-4.019-.999-8.288-5.018-9.536z"/><path d="m311.551 397.143c-7.165 3.604-14.435 6.56-21.609 8.786-4.019 1.247-6.266 5.516-5.019 9.535 1.014 3.267 4.024 5.363 7.275 5.363.748 0 1.509-.111 2.26-.344 7.973-2.474 16.028-5.747 23.94-9.727 3.759-1.891 5.274-6.471 3.383-10.23-1.891-3.76-6.472-5.274-10.23-3.383z"/><path d="m383.47 348.17c-3.126-2.819-7.943-2.57-10.761.554-6.515 7.222-13.296 13.973-20.155 20.065-3.146 2.795-3.431 7.61-.637 10.756 1.505 1.695 3.598 2.56 5.7 2.56 1.799 0 3.606-.634 5.057-1.923 7.277-6.464 14.461-13.613 21.35-21.251 2.819-3.124 2.571-7.942-.554-10.761z"/><path d="m432.267 271.993c-3.77-1.871-8.342-.333-10.213 3.435-3.832 7.717-8.002 15.38-12.392 22.774-2.148 3.619-.957 8.293 2.661 10.442 1.22.724 2.56 1.068 3.883 1.068 2.601 0 5.135-1.332 6.559-3.73 4.583-7.72 8.936-15.719 12.937-23.776 1.872-3.768.334-8.341-3.435-10.213z"/><path d="m402.956 36.781c-37.106-24.062-87.922-36.781-146.956-36.781s-109.85 12.719-146.956 36.781c-42.721 27.704-65.302 69.79-65.302 121.708 0 23.318 4.341 48.71 12.902 75.471 1.036 3.236 4.03 5.3 7.255 5.3.769 0 1.552-.118 2.323-.364 4.008-1.282 6.217-5.571 4.936-9.579-7.967-24.902-12.178-49.395-12.178-70.828 0-47.165 19.634-83.812 58.355-108.922 34.631-22.458 82.58-34.329 138.665-34.329s104.034 11.87 138.664 34.328c38.722 25.11 58.355 61.757 58.355 108.922 0 21.434-4.211 45.926-12.178 70.827-1.282 4.008.928 8.296 4.936 9.579 4.007 1.279 8.296-.927 9.579-4.936 8.561-26.761 12.902-52.153 12.902-75.471 0-51.916-22.581-94.002-65.302-121.706z"/><path d="m89.946 275.429c-1.872-3.768-6.443-5.307-10.213-3.435-3.769 1.872-5.307 6.444-3.435 10.213 4.005 8.064 8.357 16.063 12.937 23.776 1.424 2.398 3.958 3.73 6.559 3.73 1.323 0 2.663-.345 3.883-1.069 3.618-2.148 4.809-6.824 2.661-10.442-4.387-7.387-8.556-15.049-12.392-22.773z"/><path d="m158.283 367.749c-6.456-5.812-12.846-12.212-18.991-19.024-2.818-3.124-7.636-3.372-10.761-.554-3.124 2.819-3.372 7.637-.554 10.761 6.498 7.203 13.264 13.98 20.111 20.142 1.456 1.311 3.278 1.956 5.095 1.956 2.084 0 4.161-.851 5.665-2.522 2.816-3.126 2.562-7.944-.565-10.759z"/></g><circle cx="173.972" cy="390.828" fill="#ffaa5c" r="25.521"/><path d="m173.972 365.307c-3.23 0-6.317.606-9.161 1.701 9.568 3.682 16.36 12.955 16.36 23.82s-6.792 20.138-16.36 23.82c2.844 1.095 5.931 1.701 9.161 1.701 14.095 0 25.521-11.426 25.521-25.521s-11.426-25.521-25.521-25.521z" fill="#ff9838"/><circle cx="72.9" cy="255.319" fill="#ffaa5c" r="25.521"/><path d="m72.9 229.798c-3.23 0-6.317.606-9.161 1.701 9.568 3.682 16.36 12.955 16.36 23.82s-6.792 20.138-16.36 23.821c2.844 1.095 5.931 1.701 9.161 1.701 14.095 0 25.521-11.426 25.521-25.521.001-14.096-11.426-25.522-25.521-25.522z" fill="#ff9838"/><circle cx="338.028" cy="390.828" fill="#ffaa5c" r="25.521"/><path d="m338.028 365.307c-3.23 0-6.317.606-9.161 1.701 9.568 3.682 16.36 12.955 16.36 23.82s-6.792 20.138-16.36 23.82c2.844 1.095 5.931 1.701 9.161 1.701 14.095 0 25.521-11.426 25.521-25.521s-11.426-25.521-25.521-25.521z" fill="#ff9838"/><circle cx="439.1" cy="255.319" fill="#ffaa5c" r="25.521"/><path d="m439.1 229.798c-3.23 0-6.317.606-9.161 1.701 9.568 3.682 16.36 12.955 16.36 23.82s-6.792 20.138-16.36 23.821c2.844 1.095 5.931 1.701 9.161 1.701 14.095 0 25.521-11.426 25.521-25.521 0-14.096-11.426-25.522-25.521-25.522z" fill="#ff9838"/><path d="m292.291 414.907c0-23.074-16.248-41.78-36.291-41.78s-36.291 18.705-36.291 41.78c0 23.074 16.248 97.093 36.291 97.093s36.291-74.019 36.291-97.093z" fill="#ffeca1"/><path d="m256 373.128c-3.165 0-6.234.469-9.161 1.345 15.607 4.674 27.13 21.004 27.13 40.434 0 19.431-11.522 74.984-27.13 92.045 2.926 3.199 5.996 5.048 9.161 5.048 20.043 0 36.291-74.019 36.291-97.093s-16.248-41.779-36.291-41.779z" fill="#ffdf85"/><path d="m131.116 356.719c21.043-23.637 15.008-49.894-.806-59.338s-33.241-1.824-44.113 16.383c-12.518 20.962-17.769 100.013-.849 105.418 17.545 5.604 12.297-24.868 45.768-62.463z" fill="#ffeca1"/><path d="m130.309 297.381c-4.425-2.642-8.976-3.947-13.474-4.059 11.961 11.493 14.679 34.583-4.042 55.611-24.084 27.053-28.122 50.415-35.029 59.303 1.729 5.871 4.215 9.87 7.582 10.946 17.546 5.605 12.299-24.867 45.769-62.462 21.044-23.638 15.009-49.895-.806-59.339z" fill="#ffdf85"/><path d="m380.884 356.719c-21.043-23.637-15.008-49.894.806-59.338 15.815-9.444 33.241-1.824 44.113 16.383 12.518 20.962 17.769 100.013.85 105.418-17.546 5.604-12.298-24.868-45.769-62.463z" fill="#ffeca1"/><path d="m425.804 313.763c-9.739-16.309-24.737-24.112-39.125-18.776 7.923 2.894 15.226 9.437 20.803 18.776 10.811 18.103 16.199 79.523 6.57 99.423 3.169 5.533 6.513 7.939 12.602 5.995 16.919-5.405 11.668-84.456-.85-105.418z" fill="#ffdf85"/></svg>