<svg xmlns="http://www.w3.org/2000/svg" viewBox="0 0 512 512" width="512" height="512">
	<style>
		tspan { white-space:pre }
		.shp0 { fill: #c6c5ca } 
		.shp1 { fill: #898890 } 
		.shp2 { fill: #ffdaaa } 
		.shp3 { fill: #3e3d42 } 
		.shp4 { fill: #ffda44 } 
		.shp5 { fill: #000000 } 
		.shp6 { fill: #ffffff } 
	</style>
	<path id="Layer" class="shp0" d="M504.5 256C504.5 393.24 393.24 504.5 256 504.5C118.76 504.5 7.5 393.24 7.5 256C7.5 118.76 118.76 7.5 256 7.5C393.24 7.5 504.5 118.76 504.5 256Z" />
	<path id="Layer" class="shp1" d="M37.5 256C37.5 123.79 140.74 15.7 271 7.95C266.04 7.65 261.04 7.5 256 7.5C118.76 7.5 7.5 118.76 7.5 256C7.5 393.24 118.76 504.5 256 504.5C261.04 504.5 266.04 504.35 271 504.05C140.74 496.3 37.5 388.21 37.5 256Z" />
	<g id="skull-death-5">
		<path id="Layer" class="shp2" d="M381.01 237.1C381.01 246.2 380.03 255.26 378.07 264.14C376.1 273.02 373.17 281.65 369.33 289.89C365.49 298.13 360.76 305.93 355.22 313.14C349.68 320.35 343.37 326.93 336.4 332.76C334.77 334.16 333.3 335.72 332.01 337.43C330.72 339.14 329.62 340.99 328.73 342.94C327.84 344.89 327.16 346.92 326.71 349.02C326.26 351.11 326.04 353.25 326.06 355.39L326.06 371.98C326.06 375.91 325.28 379.81 323.78 383.45C322.27 387.08 320.06 390.39 317.28 393.17C314.5 395.95 311.19 398.16 307.56 399.67C303.92 401.17 300.02 401.95 296.09 401.95L216.16 401.95C212.23 401.95 208.33 401.17 204.69 399.67C201.06 398.16 197.75 395.95 194.97 393.17C192.18 390.39 189.98 387.08 188.47 383.45C186.96 379.81 186.19 375.91 186.19 371.98L186.19 355.39C186.21 353.26 186 351.14 185.56 349.06C185.12 346.97 184.45 344.95 183.58 343.01C182.7 341.07 181.61 339.23 180.34 337.52C179.07 335.82 177.61 334.26 176 332.86C143.25 305.47 126.77 263.25 132.29 220.91C137.82 178.58 164.59 142 203.27 123.93C241.95 105.86 287.19 108.8 323.2 131.74C359.21 154.67 381.02 194.41 381.01 237.1L381.01 237.1Z" />
		<g id="Layer">
			<path id="Layer" class="shp3" d="M256.12 292.05L276.1 317.03L266.11 322.02L256.12 322.02L246.13 322.02L236.14 317.03L256.12 292.05Z" />
			<path id="Layer" class="shp3" d="M236.79 259.03C233.04 265.83 227.14 271.19 220.02 274.26C212.89 277.33 204.94 277.95 197.43 276.01C189.91 274.07 183.26 269.68 178.51 263.54C173.76 257.4 171.19 249.86 171.2 242.1C171.19 239.44 171.49 236.78 172.09 234.19C172.69 231.6 173.58 229.08 174.76 226.69C175.93 224.31 177.38 222.06 179.07 220C180.76 217.95 182.68 216.09 184.79 214.48L236.79 259.03Z" />
			<path id="Layer" class="shp3" d="M328.11 214.48C333.88 218.93 338.11 225.09 340.21 232.07C342.31 239.05 342.17 246.52 339.82 253.42C337.46 260.33 333 266.32 327.07 270.56C321.13 274.8 314.02 277.07 306.73 277.07C303.62 277.07 300.52 276.65 297.52 275.83C294.52 275.01 291.64 273.8 288.96 272.22C286.28 270.64 283.82 268.71 281.65 266.49C279.48 264.26 277.61 261.75 276.1 259.03L328.11 214.48Z" />
		</g>
		<path id="Layer" class="shp4" d="M221.06 245.55L221.86 246.25L221.16 247.1C221.17 253.09 217.61 258.52 212.1 260.89C206.59 263.26 200.2 262.12 195.85 258C191.5 253.87 190.04 247.55 192.12 241.92C194.2 236.3 199.43 232.46 205.42 232.16L221.06 245.55Z" />
		<path id="Layer" class="shp4" d="M306.73 262.08C304.76 262.08 302.81 261.69 300.99 260.94C299.17 260.19 297.52 259.08 296.13 257.69C294.74 256.3 293.63 254.65 292.88 252.83C292.13 251.01 291.74 249.06 291.74 247.1L291.04 246.25L291.84 245.55L307.48 232.16C311.3 232.45 314.87 234.21 317.45 237.06C320.02 239.91 321.4 243.64 321.3 247.48C321.21 251.31 319.64 254.97 316.93 257.69C314.22 260.4 310.56 261.98 306.73 262.08Z" />
		<path id="Layer" fill-rule="evenodd" class="shp5" d="M241.14 261.48C236.85 269.24 230.1 275.34 221.96 278.85C213.82 282.35 204.74 283.04 196.16 280.82C187.58 278.6 179.98 273.6 174.56 266.59C169.14 259.58 166.2 250.96 166.21 242.1C166.19 239.06 166.52 236.02 167.2 233.05C167.88 230.09 168.9 227.21 170.25 224.48C171.59 221.75 173.25 219.18 175.18 216.84C177.12 214.49 179.32 212.37 181.74 210.53C182.19 210.18 182.7 209.91 183.24 209.74C183.78 209.56 184.35 209.47 184.92 209.49C185.49 209.5 186.05 209.61 186.58 209.82C187.11 210.02 187.6 210.31 188.04 210.68L240.04 255.24C240.47 255.61 240.84 256.06 241.13 256.56C241.41 257.05 241.61 257.6 241.71 258.16C241.81 258.73 241.81 259.31 241.71 259.87C241.61 260.44 241.42 260.98 241.14 261.48ZM206.17 272.07C208.5 272.07 210.82 271.8 213.09 271.26C215.36 270.72 217.56 269.92 219.64 268.87C221.72 267.83 223.67 266.54 225.46 265.05C227.25 263.55 228.85 261.85 230.25 259.98L224.45 255.04C221.94 260.85 216.82 265.13 210.65 266.56C204.47 267.98 197.99 266.39 193.18 262.27C188.37 258.15 185.8 251.99 186.27 245.67C186.73 239.36 190.17 233.64 195.53 230.26L184.84 221.07C183.46 222.45 182.23 223.95 181.15 225.57C180.07 227.19 179.15 228.92 178.41 230.72C177.67 232.52 177.11 234.39 176.74 236.3C176.37 238.21 176.19 240.15 176.2 242.1C176.2 246.04 176.97 249.93 178.48 253.57C179.99 257.21 182.19 260.51 184.98 263.29C187.76 266.08 191.06 268.28 194.7 269.79C198.34 271.3 202.23 272.07 206.17 272.07ZM203.87 237.4C200.22 238.26 197.35 241.09 196.46 244.74C195.57 248.38 196.81 252.22 199.66 254.66C202.51 257.1 206.49 257.73 209.95 256.29C213.42 254.85 215.78 251.59 216.06 247.84L203.87 237.4Z" />
		<path id="Layer" fill-rule="evenodd" class="shp5" d="M331.15 210.53C333.58 212.37 335.78 214.49 337.71 216.84C339.65 219.18 341.31 221.75 342.65 224.48C343.99 227.21 345.01 230.09 345.69 233.05C346.37 236.02 346.71 239.06 346.69 242.1C346.7 250.96 343.76 259.58 338.34 266.59C332.91 273.6 325.31 278.6 316.73 280.82C308.15 283.04 299.08 282.35 290.94 278.85C282.8 275.34 276.05 269.24 271.76 261.48C271.48 260.98 271.28 260.44 271.19 259.87C271.09 259.31 271.09 258.73 271.19 258.16C271.29 257.6 271.49 257.05 271.77 256.56C272.05 256.06 272.42 255.61 272.86 255.24L324.86 210.68C325.29 210.31 325.79 210.02 326.32 209.82C326.85 209.61 327.41 209.5 327.98 209.49C328.55 209.47 329.12 209.56 329.66 209.74C330.2 209.91 330.7 210.18 331.15 210.53ZM306.73 272.07C310.66 272.07 314.56 271.3 318.2 269.79C321.83 268.28 325.14 266.08 327.92 263.29C330.7 260.51 332.91 257.21 334.42 253.57C335.92 249.93 336.7 246.04 336.7 242.1C336.71 240.15 336.53 238.21 336.16 236.3C335.79 234.39 335.23 232.52 334.49 230.72C333.75 228.92 332.83 227.19 331.75 225.57C330.67 223.95 329.43 222.45 328.06 221.07L317.37 230.26C322.74 233.63 326.19 239.36 326.66 245.68C327.13 252.01 324.56 258.18 319.74 262.31C314.93 266.43 308.43 268.02 302.26 266.59C296.08 265.15 290.95 260.86 288.44 255.04L282.65 259.98C284.04 261.85 285.65 263.55 287.44 265.05C289.22 266.54 291.18 267.83 293.26 268.87C295.34 269.92 297.54 270.72 299.81 271.26C302.07 271.8 304.4 272.07 306.73 272.07ZM296.84 247.84C297.03 250.41 298.22 252.8 300.14 254.51C302.06 256.22 304.57 257.12 307.14 257.02C309.71 256.92 312.14 255.84 313.92 253.99C315.71 252.14 316.71 249.67 316.72 247.1C316.72 245.98 316.54 244.87 316.18 243.81C315.81 242.76 315.27 241.77 314.58 240.89C313.88 240.02 313.04 239.27 312.1 238.67C311.15 238.08 310.11 237.65 309.02 237.4L296.84 247.84Z" />
		<path id="Layer" fill-rule="evenodd" class="shp5" d="M280 313.93C280.47 314.51 280.8 315.18 280.97 315.9C281.15 316.63 281.15 317.38 280.99 318.1C280.84 318.83 280.52 319.51 280.06 320.09C279.6 320.67 279.02 321.15 278.35 321.48L268.36 326.47C268.19 326.56 268.01 326.64 267.83 326.71C267.65 326.77 267.46 326.83 267.27 326.88C267.08 326.92 266.89 326.96 266.7 326.98C266.5 327.01 266.31 327.02 266.11 327.02L246.13 327.02C245.94 327.02 245.74 327.01 245.55 326.98C245.36 326.96 245.17 326.92 244.98 326.88C244.79 326.83 244.6 326.77 244.42 326.71C244.24 326.64 244.06 326.56 243.89 326.47L233.89 321.48C233.23 321.15 232.65 320.67 232.19 320.09C231.73 319.51 231.41 318.83 231.25 318.1C231.09 317.38 231.1 316.63 231.27 315.9C231.45 315.18 231.78 314.51 232.25 313.93L252.23 288.96C252.71 288.39 253.31 287.94 253.98 287.63C254.65 287.32 255.38 287.16 256.12 287.16C256.86 287.16 257.6 287.32 258.27 287.63C258.94 287.94 259.54 288.39 260.02 288.96L280 313.93ZM268.36 315.33L256.12 300.05L243.89 315.33L247.33 317.03L264.92 317.03L268.36 315.33Z" />
		<path id="Layer" class="shp5" d="M193.13 188.1L200.23 195.19L207.27 188.1L217.86 198.69L224.95 191.65L214.36 181.06L221.41 173.96L235.54 188.1L242.59 181.06L228.45 166.92L235.54 159.88L246.13 170.47L253.18 163.37L242.59 152.78L249.68 145.74L242.59 138.65L235.54 145.74L224.95 135.15L217.86 142.19L228.45 152.78L221.41 159.88L207.27 145.74L200.23 152.78L214.36 166.92L207.27 173.96L196.68 163.37L189.64 170.47L200.23 181.06L193.13 188.1Z" />
	</g>
	<path id="Layer" class="shp6" d="M349.86 467.07L343.77 453.36C381.24 436.7 412.94 410.07 435.46 376.36L447.93 384.69C423.84 420.77 389.93 449.25 349.86 467.07L349.86 467.07ZM453.48 375.96L440.64 368.2C443.13 364.09 445.51 359.83 447.72 355.55L461.05 362.44C458.68 367.02 456.14 371.56 453.48 375.96ZM465.59 353.15L451.97 346.86C453.99 342.5 455.89 338 457.62 333.5L471.62 338.88C469.77 343.68 467.75 348.48 465.59 353.15Z" />
</svg>