<svg xmlns="http://www.w3.org/2000/svg" viewBox="0 0 512 512" width="512" height="512">
	<style>
		tspan { white-space:pre }
		.shp0 { fill: #c6c5ca } 
		.shp1 { fill: #898890 } 
		.shp2 { fill: #ffffff } 
		.shp3 { fill: #d80027 } 
		.shp4 { fill: #bd0022 } 
		.shp5 { fill: #ff5023 } 
	</style>
	<path id="Layer" class="shp0" d="M504.5 256C504.5 393.24 393.24 504.5 256 504.5C118.76 504.5 7.5 393.24 7.5 256C7.5 118.76 118.76 7.5 256 7.5C393.24 7.5 504.5 118.76 504.5 256Z" />
	<path id="Layer" class="shp1" d="M36.5 257C36.5 124.79 139.74 16.7 270 8.95C265.04 8.65 260.04 8.5 255 8.5C117.76 8.5 6.5 119.76 6.5 257C6.5 394.24 117.76 505.5 255 505.5C260.04 505.5 265.04 505.35 270 505.05C139.74 497.3 36.5 389.21 36.5 257Z" />
	<path id="Layer" class="shp2" d="M349.86 467.07L343.77 453.36C381.24 436.7 412.94 410.07 435.46 376.36L447.93 384.69C423.84 420.77 389.93 449.25 349.86 467.07L349.86 467.07ZM453.48 375.96L440.64 368.2C443.13 364.09 445.51 359.83 447.72 355.55L461.05 362.44C458.68 367.02 456.14 371.56 453.48 375.96ZM465.59 353.15L451.97 346.86C453.99 342.5 455.89 338 457.62 333.5L471.62 338.88C469.77 343.68 467.75 348.48 465.59 353.15Z" />
	<g id="Trident">
		<path id="Layer" class="shp3" d="M348.66 238.66L348.66 294.5C348.66 299.42 347.69 304.3 345.81 308.85C343.93 313.4 341.16 317.53 337.68 321.02C334.2 324.5 330.06 327.26 325.51 329.15C320.96 331.03 316.09 332 311.16 332C306.24 332 301.36 331.03 296.81 329.15C292.26 327.26 288.13 324.5 284.65 321.02C281.17 317.53 278.4 313.4 276.52 308.85C274.63 304.3 273.66 299.42 273.66 294.5L273.66 205.33L257 198.66L240.34 205.33L240.34 294.5C240.34 304.45 236.38 313.98 229.35 321.02C222.32 328.05 212.78 332 202.84 332C192.89 332 183.35 328.05 176.32 321.02C169.29 313.98 165.34 304.45 165.34 294.5L165.34 238.66L148.67 232L132 238.67L132 298.67C132 307.42 133.73 316.09 137.08 324.18C140.43 332.26 145.34 339.61 151.53 345.8C157.72 351.99 165.07 356.9 173.15 360.25C181.24 363.6 189.91 365.33 198.66 365.33C201.95 365.33 205.2 365.97 208.23 367.23C211.27 368.49 214.02 370.33 216.34 372.65C218.67 374.97 220.51 377.73 221.76 380.76C223.02 383.8 223.67 387.05 223.67 390.33L223.67 406.99L240.34 407L273.66 407L290.33 406.99L290.33 390.33C290.33 387.05 290.98 383.8 292.24 380.76C293.49 377.73 295.33 374.97 297.66 372.65C299.98 370.33 302.73 368.49 305.77 367.23C308.8 365.97 312.05 365.33 315.34 365.33C324.09 365.33 332.76 363.6 340.85 360.25C348.93 356.9 356.28 351.99 362.47 345.8C368.66 339.61 373.57 332.26 376.92 324.18C380.27 316.09 382 307.42 382 298.67L382 238.67L365.33 232L348.66 238.66Z" />
		<g id="Layer">
			<path id="Layer" class="shp4" d="M171.16 314.39C170.22 312.92 169.38 311.37 168.66 309.78C167.94 308.18 167.33 306.54 166.83 304.86C166.34 303.18 165.97 301.47 165.72 299.73C165.47 298 165.34 296.25 165.34 294.5L165.34 238.66L153.55 233.95L153.55 282.71C153.55 285.87 153.96 289.02 154.75 292.07C155.55 295.13 156.72 298.07 158.26 300.83C159.79 303.59 161.67 306.14 163.84 308.43C166.02 310.72 168.48 312.72 171.16 314.39Z" />
			<path id="Layer" class="shp4" d="M209.38 367.83C208.38 365.71 207.08 363.74 205.52 361.98C203.97 360.22 202.17 358.69 200.19 357.43C198.21 356.18 196.06 355.21 193.8 354.55C191.55 353.9 189.21 353.56 186.86 353.56C183.19 353.56 179.53 353.26 175.92 352.66C172.3 352.05 168.74 351.15 165.27 349.96C161.8 348.76 158.44 347.28 155.22 345.54C152 343.79 148.92 341.78 146.03 339.52C149.13 343.53 152.67 347.17 156.6 350.37C160.52 353.57 164.79 356.31 169.34 358.54C173.88 360.78 178.67 362.48 183.6 363.62C188.54 364.77 193.58 365.35 198.65 365.35C199.57 365.35 200.5 365.4 201.42 365.51C202.34 365.62 203.25 365.77 204.15 365.98C205.06 366.19 205.95 366.45 206.82 366.76C207.69 367.07 208.55 367.43 209.38 367.83L209.38 367.83Z" />
			<path id="Layer" class="shp4" d="M370.21 286.88C370.21 295.64 368.49 304.3 365.14 312.39C361.79 320.48 356.88 327.83 350.69 334.02C344.5 340.21 337.15 345.12 329.06 348.47C320.97 351.82 312.3 353.54 303.55 353.54C300.27 353.54 297.02 354.19 293.98 355.45C290.95 356.7 288.19 358.54 285.87 360.87C283.55 363.19 281.71 365.94 280.45 368.98C279.2 372.01 278.55 375.26 278.55 378.55L278.55 395.21L261.88 395.21L228.55 395.21L223.67 395.21L223.67 406.99L240.34 407L273.66 407L290.33 406.99L290.33 390.33C290.33 387.05 290.98 383.8 292.24 380.76C293.49 377.73 295.33 374.97 297.66 372.65C299.98 370.33 302.73 368.49 305.77 367.23C308.8 365.97 312.05 365.33 315.34 365.33C324.09 365.33 332.76 363.6 340.85 360.25C348.93 356.9 356.28 351.99 362.47 345.8C368.66 339.61 373.57 332.26 376.92 324.18C380.27 316.09 382 307.42 382 298.67L382 238.67L370.21 233.95L370.21 286.88Z" />
		</g>
		<path id="Layer" class="shp5" d="M273.66 205.33L298.67 215.33L257 107L215.33 215.33L240.34 205.33L257 198.66L273.66 205.33Z" />
		<path id="Layer" class="shp5" d="M348.66 238.66L365.33 232L382 238.67L407 248.67L365.33 140.33L323.67 248.67L348.66 238.66Z" />
		<path id="Layer" class="shp5" d="M165.34 238.66L190.33 248.67L148.67 140.33L107 248.67L132 238.67L148.67 232L165.34 238.66Z" />
	</g>
</svg>