<svg xmlns="http://www.w3.org/2000/svg" viewBox="0 0 512 512" width="512" height="512">
	<style>
		tspan { white-space:pre }
		.shp0 { fill: #865022 } 
		.shp1 { fill: #cb1c1c } 
		.shp2 { fill: #a01b1b } 
		.shp3 { fill: #ffd740 } 
		.shp4 { fill: #ffc400 } 
	</style>
	<path id="Layer" class="shp0" d="M41.71 469.16C31.19 458.64 31.19 441.59 41.71 431.07L384.91 87.87L423 125.97L79.8 469.16C69.29 479.68 52.23 479.68 41.71 469.16Z" />
	<path id="Layer" class="shp1" d="M397.24 113.64C375.39 91.79 375.34 56.53 397.12 34.76C418.89 12.98 454.15 13.03 476 34.88C497.84 56.72 497.89 91.98 476.12 113.76C454.34 135.53 419.08 135.48 397.24 113.64Z" />
	<path id="Layer" class="shp2" d="M476 34.88C471.38 30.26 466.15 26.63 460.58 23.96C470.51 44.71 466.93 70.28 449.78 87.42C432.64 104.57 407.07 108.15 386.32 98.22C388.99 103.79 392.62 109.02 397.24 113.64C419.05 135.45 454.37 135.51 476.12 113.76C497.87 92.01 497.81 56.69 476 34.88L476 34.88Z" />
	<path id="Layer" class="shp3" d="M121.56 431.32L79.55 389.32C76.65 386.42 76.65 381.72 79.55 378.82L100.55 357.81C103.45 354.91 108.16 354.91 111.06 357.81L153.06 399.82C155.96 402.72 155.96 407.42 153.06 410.32L132.06 431.32C129.16 434.22 124.46 434.22 121.56 431.32Z" />
	<path id="Layer" class="shp4" d="M153.06 399.82L126.81 373.57C129.71 376.47 129.71 381.17 126.81 384.07L105.81 405.07C102.91 407.97 98.21 407.97 95.31 405.07L121.56 431.32C124.46 434.22 129.16 434.22 132.06 431.32L153.06 410.32C155.96 407.42 155.96 402.72 153.06 399.82Z" />
	<path id="Layer" fill-rule="evenodd" class="shp3" d="M446.83 111.79C433.67 124.96 412.25 124.96 399.08 111.79C385.92 98.63 385.92 77.21 399.08 64.05C412.25 50.88 433.67 50.88 446.83 64.05C459.99 77.21 459.99 98.63 446.83 111.79ZM434.09 99.05C440.23 92.91 440.22 82.92 434.09 76.79C427.95 70.65 417.96 70.65 411.82 76.79C405.69 82.92 405.69 92.91 411.82 99.05C417.96 105.19 427.95 105.19 434.09 99.05Z" />
	<path id="Layer" class="shp3" d="M394.95 157.93L352.95 115.92C350.05 113.02 350.05 108.32 352.95 105.42L373.95 84.42C376.85 81.52 381.55 81.52 384.45 84.42L426.46 126.42C429.36 129.32 429.36 134.02 426.46 136.92L405.45 157.93C402.55 160.83 397.85 160.83 394.95 157.93Z" />
	<path id="Layer" class="shp4" d="M426.46 126.42L400.2 100.17C403.1 103.07 403.1 107.77 400.2 110.67L379.2 131.67C376.3 134.57 371.6 134.57 368.7 131.67L394.95 157.93C397.85 160.83 402.55 160.83 405.45 157.93L426.46 136.92C429.36 134.02 429.36 129.32 426.46 126.42Z" />
</svg>