<svg xmlns="http://www.w3.org/2000/svg" viewBox="0 0 480 481" width="480" height="481">
	<style>
		tspan { white-space:pre }
		.shp0 { fill: #356ec0 } 
		.shp1 { fill: #295798 } 
	</style>
	<path id="Layer" class="shp0" d="M480 408.01C480 368.25 372.55 336.01 240 336.01C107.46 336.01 0 368.25 0 408.01C0 447.77 107.46 480.01 240 480.01C372.55 480.01 480 447.77 480 408.01Z" />
	<path id="Layer" class="shp0" d="M399.04 397.69L315.29 165.77C307.97 145.61 305.56 124 308.25 102.73L319.93 8.97C320.31 5.77 318.73 2.64 315.93 1.05C313.1 -0.58 309.57 -0.29 307.04 1.77L219.36 71.93C197.06 89.74 180.23 113.47 170.8 140.41L80.73 397.77C79.96 399.9 80.14 402.25 81.2 404.25C82.29 406.25 84.18 407.68 86.41 408.17C136.85 419.2 188.37 424.51 240 424.01C291.56 424.51 343 419.2 393.36 408.17C395.58 407.64 397.46 406.2 398.55 404.2C399.63 402.2 399.81 399.83 399.04 397.69L399.04 397.69Z" />
	<path id="Layer" class="shp1" d="M398.57 404.17C397.51 406.21 395.61 407.68 393.36 408.17C343 419.2 291.56 424.51 240 424.01C188.37 424.51 136.85 419.2 86.41 408.17C84.18 407.68 82.29 406.25 81.2 404.25C80.14 402.25 79.96 399.9 80.73 397.77L96.09 353.93C101.12 355.05 106.41 356.17 111.84 357.21C154.14 364.74 197.04 368.35 240 368.01C282.72 368.33 325.38 364.74 367.45 357.29C372.96 356.33 378.25 355.21 383.29 354.01L388.73 369.21L399.04 397.69C399.86 399.81 399.68 402.19 398.57 404.17L398.57 404.17Z" />
	<path id="Layer" class="shp1" d="M259.09 169.69L268.92 182.33L310.62 149.89C308.36 140.03 307.21 129.95 307.2 119.83L249.06 112.08L246.95 127.94L303.14 135.43L259.09 169.69Z" />
</svg>