<svg xmlns="http://www.w3.org/2000/svg" viewBox="0 0 512 512" width="512" height="512">
	<style>
		tspan { white-space:pre }
		.shp0 { fill: #8c7560 } 
		.shp1 { fill: #b8a593 } 
		.shp2 { fill: #a2886f } 
	</style>
	<g id="Layer">
		<path id="Layer" class="shp0" d="M264.86 52.97L247.14 52.97C237.41 52.97 229.52 45.07 229.52 35.35L229.52 17.62C229.52 7.89 237.41 0 247.14 0L264.86 0C274.59 0 282.48 7.89 282.48 17.62L282.48 35.35C282.48 45.07 274.59 52.97 264.86 52.97Z" />
		<g id="Layer">
			<path id="Layer" class="shp1" d="M229.52 35.34L229.52 17.62C229.52 14.4 230.44 11.42 231.95 8.83L132.41 8.83L132.41 44.14L231.95 44.14C230.44 41.54 229.52 38.57 229.52 35.34Z" />
			<path id="Layer" class="shp1" d="M280.05 8.83C281.56 11.42 282.48 14.4 282.48 17.62L282.48 35.35C282.48 38.57 281.56 41.54 280.05 44.14L379.59 44.14L379.59 8.83L280.05 8.83Z" />
		</g>
		<path id="Layer" class="shp2" d="M423.72 326.62C397.24 247.17 406.07 70.62 379.59 44.14L280.05 44.14C277 49.39 271.38 52.97 264.86 52.97L247.14 52.97C240.67 52.97 235.07 49.44 232.01 44.24L132.41 44.24C105.93 70.73 114.76 247.28 88.28 326.73C88.28 326.73 44.14 450.31 26.48 467.97C26.48 467.97 158.9 512 256 512L256 511.89C353.1 511.89 485.52 467.86 485.52 467.86C467.86 450.21 423.72 326.62 423.72 326.62Z" />
		<g id="Layer">
			<path id="Layer" class="shp0" d="M26.48 467.86C26.48 467.86 85.14 487.35 153 500.4C216.47 272.9 175.93 114.15 132.41 44.14C105.93 70.62 114.76 247.17 88.28 326.62C88.28 326.62 44.14 450.21 26.48 467.86Z" />
			<path id="Layer" class="shp0" d="M485.52 467.86C485.52 467.86 426.86 487.35 359 500.4C295.53 272.9 336.07 114.15 379.59 44.14C406.07 70.62 397.24 247.17 423.72 326.62C423.72 326.62 467.86 450.21 485.52 467.86Z" />
		</g>
	</g>
	<g id="Layer">
	</g>
	<g id="Layer">
	</g>
	<g id="Layer">
	</g>
	<g id="Layer">
	</g>
	<g id="Layer">
	</g>
	<g id="Layer">
	</g>
	<g id="Layer">
	</g>
	<g id="Layer">
	</g>
	<g id="Layer">
	</g>
	<g id="Layer">
	</g>
	<g id="Layer">
	</g>
	<g id="Layer">
	</g>
	<g id="Layer">
	</g>
	<g id="Layer">
	</g>
	<g id="Layer">
	</g>
</svg>