<svg xmlns="http://www.w3.org/2000/svg" viewBox="0 0 512 512" width="512" height="512">
	<style>
		tspan { white-space:pre }
		.shp0 { fill: #c0b396 } 
		.shp1 { fill: #bcaa83 } 
	</style>
	<path id="Layer" class="shp0" d="M457.46 494.27C463.9 487.84 468.73 480.17 471.71 471.72C480.15 468.74 487.82 463.91 494.26 457.48C505.69 446.05 511.99 430.85 511.99 414.68C511.99 398.51 505.69 383.31 494.26 371.88C482.82 360.44 467.62 354.15 451.46 354.15C440.06 354.15 429.15 357.29 419.69 363.14L148.84 92.29C154.7 82.84 157.84 71.93 157.84 60.53C157.84 44.36 151.54 29.16 140.11 17.73C128.68 6.3 113.48 0 97.31 0C81.14 0 65.94 6.3 54.51 17.73C48.07 24.16 43.24 31.83 40.26 40.28C31.82 43.26 24.15 48.09 17.71 54.52C5.91 66.32 0.01 81.82 0.01 97.32C0.01 112.82 5.92 128.32 17.71 140.12C37.91 160.32 68.94 163.22 92.26 148.85L363.13 419.71C357.28 429.16 354.13 440.07 354.13 451.47C354.13 467.64 360.43 482.84 371.86 494.27C383.29 505.7 398.5 512 414.66 512C430.83 512 446.03 505.7 457.46 494.27Z" />
	<path id="Layer" class="shp1" d="M494.27 54.54C487.84 48.1 480.17 43.27 471.72 40.29C468.74 31.85 463.91 24.18 457.48 17.74C446.05 6.31 430.85 0.01 414.68 0.01C398.51 0.01 383.31 6.31 371.88 17.74C360.44 29.17 354.15 44.38 354.15 60.54C354.15 71.94 357.29 82.85 363.14 92.3L92.29 363.16C82.84 357.31 71.93 354.16 60.53 354.16C44.36 354.16 29.16 360.46 17.73 371.89C6.3 383.32 0 398.52 0 414.69C0 430.86 6.3 446.06 17.73 457.49C24.16 463.93 31.83 468.75 40.28 471.74C43.26 480.18 48.09 487.85 54.52 494.29C66.32 506.09 81.82 511.99 97.32 511.99C112.82 511.99 128.32 506.08 140.12 494.29C160.32 474.09 163.22 443.06 148.85 419.74L419.71 148.87C429.16 154.72 440.07 157.87 451.47 157.87C467.64 157.87 482.84 151.57 494.27 140.14C505.7 128.71 512 113.5 512 97.34C512 81.17 505.7 65.97 494.27 54.54Z" />
	<path id="Layer" class="shp1" d="M494.27 54.54C487.84 48.1 480.17 43.27 471.72 40.29C468.74 31.85 463.91 24.18 457.48 17.74C446.05 6.31 430.85 0.01 414.68 0.01C398.51 0.01 383.31 6.31 371.88 17.74C360.44 29.17 354.15 44.38 354.15 60.54C354.15 71.94 357.29 82.85 363.14 92.3L227.69 227.75L284.26 284.32L419.71 148.87C429.16 154.72 440.07 157.87 451.47 157.87C467.64 157.87 482.84 151.57 494.27 140.14C505.7 128.71 512 113.5 512 97.34C512 81.17 505.7 65.97 494.27 54.54Z" />
	<g id="Layer">
	</g>
	<g id="Layer">
	</g>
	<g id="Layer">
	</g>
	<g id="Layer">
	</g>
	<g id="Layer">
	</g>
	<g id="Layer">
	</g>
	<g id="Layer">
	</g>
	<g id="Layer">
	</g>
	<g id="Layer">
	</g>
	<g id="Layer">
	</g>
	<g id="Layer">
	</g>
	<g id="Layer">
	</g>
	<g id="Layer">
	</g>
	<g id="Layer">
	</g>
	<g id="Layer">
	</g>
</svg>