<?xml version="1.0" encoding="iso-8859-1"?>
<!-- Generator: Adobe Illustrator 19.0.0, SVG Export Plug-In . SVG Version: 6.00 Build 0)  -->
<svg version="1.1" id="Capa_1" xmlns="http://www.w3.org/2000/svg" xmlns:xlink="http://www.w3.org/1999/xlink" x="0px" y="0px"
	 viewBox="0 0 512 512" style="enable-background:new 0 0 512 512;" xml:space="preserve">
<polygon style="fill:#480306;" points="126,143.5 256,458.5 482,458.5 502,438.5 502,143.5 "/>
<g>
	<rect x="452" y="222.25" style="fill:#8B2613;" width="45" height="30"/>
	<rect x="452" y="301" style="fill:#8B2613;" width="45" height="30"/>
	<rect x="452" y="379.75" style="fill:#8B2613;" width="45" height="30"/>
	<polygon style="fill:#8B2613;" points="10,143.5 10,438.5 30,458.5 256,458.5 256,143.5 	"/>
</g>
<path style="fill:#FFF2A3;" d="M316,143.5v105c0,33.14-26.86,60-60,60l-30-165H316z"/>
<path style="fill:#FFFFFF;" d="M256,143.5v165c-33.14,0-60-26.86-60-60v-105H256z"/>
<rect x="241" y="218.5" style="fill:#480306;" width="30" height="30"/>
<g>
	<rect x="15" y="222.25" style="fill:#C7461F;" width="45" height="30"/>
	<rect x="15" y="301" style="fill:#C7461F;" width="45" height="30"/>
	<rect x="15" y="379.75" style="fill:#C7461F;" width="45" height="30"/>
</g>
<polygon style="fill:#D95D27;" points="30,143.5 30,458.5 0,458.5 0,173.5 "/>
<polygon style="fill:#C7461F;" points="482,143.5 482,458.5 512,458.5 512,173.5 "/>
<path style="fill:#F9963B;" d="M422,53.5H256l-50,60l50,60h256v-30C512,94,471.5,53.5,422,53.5z"/>
<path style="fill:#FCBA66;" d="M90,53.5c-49.5,0-90,40.5-90,90v30h256v-120H90z"/>
<g>
</g>
<g>
</g>
<g>
</g>
<g>
</g>
<g>
</g>
<g>
</g>
<g>
</g>
<g>
</g>
<g>
</g>
<g>
</g>
<g>
</g>
<g>
</g>
<g>
</g>
<g>
</g>
<g>
</g>
</svg>
