<svg xmlns="http://www.w3.org/2000/svg" viewBox="0 0 100 100" width="100" height="100">
	<style>
		tspan { white-space:pre }
		.shp0 { fill: #344d5b } 
		.shp1 { fill: #c3a791 } 
	</style>
	<path id="Layer" class="shp0" d="M87.04 92.4L8.9 14.41C7.55 13.06 6.05 12.22 5.54 12.51C5.02 12.81 5.7 14.13 7.05 15.48L85.19 93.47L87.04 92.4Z" />
	<path id="Layer" class="shp1" d="M99.54 97.35C98.94 96.74 97.95 96.74 97.34 97.35C96.92 97.77 96.79 98.38 96.96 98.91C96.15 98.72 95.35 98.45 94.61 98.11C94.27 97.96 93.94 97.75 93.61 97.58C93.45 97.49 93.28 97.41 93.13 97.32L92.66 97C92.36 96.78 92.05 96.58 91.76 96.36L90.93 95.62C88.75 93.63 87.22 91.04 86.11 88.31C85.51 86.97 85.16 85.5 84.73 84.09C84.52 83.38 84.42 82.62 84.26 81.89C84.13 81.16 83.95 80.44 83.86 79.69L83.34 75.15L83.04 72.66C82.93 71.83 82.85 71 82.66 70.19C81.47 63.58 79.15 57.08 75.78 51.05C74.06 48.06 72.1 45.18 69.88 42.47C68.76 41.11 67.6 39.79 66.33 38.53L65.37 37.58L64.36 36.65C64.36 36.65 64.36 36.65 64.36 36.64C64.35 36.64 64.35 36.64 64.35 36.64L63.42 35.63L62.47 34.67C61.21 33.4 59.89 32.24 58.53 31.12C55.82 28.9 52.94 26.94 49.95 25.22C43.92 21.85 37.42 19.53 30.81 18.34C30 18.15 29.17 18.07 28.34 17.96L25.85 17.66L21.31 17.14C20.56 17.05 19.84 16.87 19.11 16.74C18.38 16.58 17.62 16.48 16.91 16.27C15.5 15.84 14.03 15.49 12.69 14.89C9.96 13.78 7.37 12.25 5.38 10.07L4.64 9.24C4.42 8.95 4.22 8.64 4 8.34L3.68 7.87C3.59 7.72 3.51 7.55 3.42 7.39C3.25 7.06 3.04 6.73 2.89 6.39C2.55 5.65 2.28 4.85 2.09 4.04C2.62 4.21 3.23 4.08 3.65 3.66C4.26 3.05 4.26 2.06 3.65 1.46C3.05 0.85 2.06 0.85 1.45 1.46C1.04 1.86 0.92 2.44 1.05 2.96C0.92 5.94 1.94 8.9 3.58 11.45C5.41 14.3 8.06 16.56 10.92 18.32C12.33 19.26 13.86 19.92 15.37 20.67C16.13 21.03 16.91 21.28 17.69 21.59C18.47 21.86 19.25 22.21 20.05 22.44L24.76 23.81L26.92 24.45C27.63 24.67 28.34 24.86 29.03 25.15C34.62 27.17 39.77 30.09 44.24 33.7C46.46 35.53 48.51 37.52 50.36 39.65C51.28 40.72 52.16 41.81 52.95 42.93L53.54 43.76L54.08 44.61C54.27 44.89 54.41 45.16 54.58 45.44C54.67 45.58 54.73 45.7 54.79 45.82L54.89 46C54.92 46.05 54.92 46.06 54.92 46.07L54.91 46.08C54.92 46.08 54.92 46.08 54.92 46.08C54.92 46.08 54.92 46.08 54.92 46.09L54.93 46.08C54.94 46.08 54.95 46.08 55 46.11L55.18 46.21C55.3 46.27 55.42 46.33 55.56 46.42C55.84 46.59 56.11 46.73 56.39 46.92L57.24 47.46L58.07 48.05C59.19 48.84 60.28 49.72 61.35 50.64C63.48 52.49 65.47 54.54 67.3 56.76C70.91 61.23 73.83 66.38 75.85 71.97C76.14 72.66 76.33 73.37 76.55 74.08L77.19 76.24L78.56 80.95C78.79 81.75 79.14 82.53 79.41 83.31C79.72 84.09 79.97 84.87 80.33 85.63C81.08 87.14 81.74 88.67 82.68 90.08C84.44 92.94 86.7 95.59 89.55 97.42C92.1 99.06 95.06 100.08 98.04 99.95C98.56 100.08 99.14 99.96 99.54 99.55C100.15 98.94 100.15 97.95 99.54 97.35L99.54 97.35Z" />
</svg>