<svg width="310" height="300" viewBox="0 0 310 300" fill="none" xmlns="http://www.w3.org/2000/svg">
<path d="M130 300L46.0001 288L34 144L119 214L202 288L130 300Z" fill="#949494"/>
<path d="M10 147.5L22 120L34 144L46 288L0.5 189L10 147.5Z" fill="#7C7C7C"/>
<path d="M202 84.0001L33.9999 144L106 204L202 288L250 180L202 84.0001Z" fill="#ABABAB"/>
<path d="M310 60L274 0L202 84L250 180L310 144V60Z" fill="#C9C9C9"/>
<path d="M94.0001 0L29 78L22 120L34.0001 144L202 84L274 0H94.0001Z" fill="#BBBBBB"/>
<path d="M276 35L262 45.6L274 84L286 67.2V45.6L280.5 35.5L276 35Z" fill="#845614"/>
<path d="M274 83.9999V53.9999L286 47.9999V71.9999L274 83.9999Z" fill="#B5894B"/>
<path d="M274 54L262 45.6L274 32.5L280.5 35.5L286 45.6V48L274 54Z" fill="#C09556"/>
<path d="M106 18L82.0001 48L70.0001 66L100 54L142 36L178 42L190 30L178 12L130 0L106 18Z" fill="#845614"/>
<path d="M142 24L130 0L178 12L190 30L178 42L142 24Z" fill="#C09556"/>
<path d="M9.99994 132L21.9999 120L33.9999 144L35 155.5L9.99994 168V132Z" fill="#845614"/>
<path d="M21.9999 120L9.99994 132L33.9999 144L21.9999 120Z" fill="#C09556"/>
<path d="M184.288 268.697L192.773 254L169.591 260.212L161.106 274.909L175.803 283.394L187.394 280.288L184.288 268.697Z" fill="#926423"/>
<path d="M187.394 280.288L184.288 268.697L161.106 274.909L175.803 283.394L187.394 280.288Z" fill="#845614"/>
<path d="M184.288 268.697L192.774 254L195.879 265.591L187.394 280.288L184.288 268.697Z" fill="#C09556"/>
<path d="M155 165L143 156.6L177 146.5L176 153L155 165Z" fill="#B5894B"/>
<path d="M155 165L135 151L154 192H160L155 165Z" fill="#845614"/>
<path d="M160 192L155 165L176 153L160 192Z" fill="#C09556"/>
</svg>
