<svg height="512pt" viewBox="0 -13 512.00103 512" width="512pt" xmlns="http://www.w3.org/2000/svg"><path d="m409.601562 485.59375h-392.535156c-9.425781 0-17.066406-7.644531-17.066406-17.070312v-255.996094c0-56.554688 45.847656-102.402344 102.398438-102.402344h307.203124zm0 0" fill="#ffe55a"/><path d="m375.46875 110.125c-56.554688 0-102.402344 45.847656-102.402344 102.402344v27.953125c0 3.414062-2.765625 6.179687-6.179687 6.179687h-226.574219c-3.414062 0-6.179688-2.765625-6.179688-6.179687v-27.953125c0-56.554688 45.847657-102.402344 102.398438-102.402344zm0 0" fill="#bf80e2"/><path d="m273.066406 321.105469v124.171875c0 3.414062-2.765625 6.183594-6.179687 6.183594h-226.570313c-3.414062 0-6.183594-2.769532-6.183594-6.183594v-124.171875c0-3.414063 2.769532-6.179688 6.183594-6.179688h226.570313c3.414062 0 6.179687 2.769531 6.179687 6.179688zm0 0" fill="#bf80e2"/><g fill="#ffe55a"><path d="m51.199219 83.71875c-4.265625 0-7.726563-3.457031-7.726563-7.726562v-34.132813c0-4.265625 3.460938-7.726563 7.726563-7.726563 4.269531 0 7.726562 3.460938 7.726562 7.726563v34.132813c0 4.269531-3.457031 7.726562-7.726562 7.726562zm0 0"/><path d="m68.265625 66.652344h-34.132813c-4.265624 0-7.726562-3.457032-7.726562-7.726563s3.460938-7.726562 7.726562-7.726562h34.132813c4.269531 0 7.726563 3.457031 7.726563 7.726562s-3.457032 7.726563-7.726563 7.726563zm0 0"/><path d="m119.46875 49.585938c-4.269531 0-7.726562-3.457032-7.726562-7.726563v-34.132813c0-4.269531 3.457031-7.726562 7.726562-7.726562 4.265625 0 7.726562 3.457031 7.726562 7.726562v34.132813c0 4.269531-3.460937 7.726563-7.726562 7.726563zm0 0"/><path d="m136.535156 32.519531h-34.136718c-4.265626 0-7.726563-3.457031-7.726563-7.726562 0-4.265625 3.460937-7.726563 7.726563-7.726563h34.132812c4.269531 0 7.726562 3.460938 7.726562 7.726563 0 4.269531-3.457031 7.726562-7.722656 7.726562zm0 0"/><path d="m426.664062 83.71875c-4.265624 0-7.722656-3.457031-7.722656-7.726562v-34.132813c0-4.265625 3.457032-7.726563 7.722656-7.726563 4.269532 0 7.726563 3.460938 7.726563 7.726563v34.132813c0 4.269531-3.457031 7.726562-7.726563 7.726562zm0 0"/><path d="m443.734375 66.652344h-34.132813c-4.269531 0-7.726562-3.457032-7.726562-7.726563s3.457031-7.726562 7.726562-7.726562h34.132813c4.269531 0 7.726563 3.457031 7.726563 7.726562s-3.460938 7.726563-7.726563 7.726563zm0 0"/></g><path d="m409.601562 110.125c-56.554687 0-102.402343 45.847656-102.402343 102.402344v256c0 9.425781 7.640625 17.066406 17.070312 17.066406h170.664063c9.425781 0 17.066406-7.640625 17.066406-17.066406v-256c0-56.554688-45.847656-102.402344-102.398438-102.402344zm0 0" fill="#ffd500"/><path d="m477.867188 240.480469v-26.917969c0-37.460938-29.75-68.722656-67.207032-69.292969-38.128906-.582031-69.328125 30.261719-69.328125 68.257813v27.953125c0 3.414062 2.769531 6.179687 6.183594 6.179687h124.167969c3.414062 0 6.183594-2.769531 6.183594-6.179687zm0 0" fill="#bf80e2"/><path d="m341.332031 321.105469v124.171875c0 3.414062 2.769531 6.183594 6.183594 6.183594h124.167969c3.414062 0 6.183594-2.769532 6.183594-6.183594v-124.171875c0-3.414063-2.769532-6.179688-6.183594-6.179688h-124.167969c-3.414063 0-6.183594 2.769531-6.183594 6.179688zm0 0" fill="#bf80e2"/><path d="m136.53125 280.792969h68.269531v51.199219c0 18.851562-15.28125 34.132812-34.132812 34.132812h-34.132813v-85.332031zm0 0" fill="#b4dbff"/><path d="m170.667969 280.792969h-68.269531v52.367187c0 18.207032 14.761718 32.964844 32.96875 32.964844h2.335937c18.203125 0 32.964844-14.757812 32.964844-32.964844zm0 0" fill="#ebf7ff"/><path d="m136.535156 339.71875c-4.269531 0-7.726562-3.457031-7.726562-7.726562v-17.066407c0-4.265625 3.457031-7.726562 7.726562-7.726562 4.265625 0 7.726563 3.460937 7.726563 7.726562v17.066407c0 4.269531-3.460938 7.726562-7.726563 7.726562zm0 0" fill="#7a8c98"/><path d="m0 273.066406h512v15.453125h-512zm0 0" fill="#7a8c98"/><path d="m410.660156 144.269531c-4.414062-.070312-8.726562.300781-12.917968 1.039063 32.226562 5.734375 56.429687 34.464844 56.429687 68.253906v26.917969c0 3.414062-2.765625 6.179687-6.179687 6.179687h23.691406c3.414062 0 6.183594-2.765625 6.183594-6.179687v-26.917969c0-37.460938-29.75-68.722656-67.207032-69.292969zm0 0" fill="#9957be"/><path d="m471.683594 314.925781h-23.691406c3.414062 0 6.179687 2.765625 6.179687 6.179688v124.171875c0 3.414062-2.765625 6.183594-6.179687 6.183594h23.691406c3.414062 0 6.183594-2.769532 6.183594-6.183594v-124.171875c0-3.410157-2.769532-6.179688-6.183594-6.179688zm0 0" fill="#9957be"/><path d="m266.886719 314.925781h-23.695313c3.414063 0 6.179688 2.765625 6.179688 6.179688v124.171875c0 3.414062-2.765625 6.183594-6.179688 6.183594h23.695313c3.414062 0 6.179687-2.769532 6.179687-6.183594v-124.171875c0-3.410157-2.765625-6.179688-6.179687-6.179688zm0 0" fill="#9957be"/><path d="m351.769531 110.125c-56.554687 0-102.402343 45.847656-102.402343 102.402344v27.953125c0 3.414062-2.765626 6.179687-6.179688 6.179687h23.699219c3.414062 0 6.179687-2.765625 6.179687-6.179687v-27.953125c0-56.554688 45.847656-102.402344 102.402344-102.402344zm0 0" fill="#9957be"/></svg>