<svg xmlns="http://www.w3.org/2000/svg" viewBox="0 0 500 500"><defs><style>.a{fill:#ffab5f;}.a,.b,.c,.d,.e,.f,.g,.h{isolation:isolate;}.b{fill:#ffe17d;}.c{fill:#d28607;}.d{fill:#c47f06;}.e{fill:#ffd400;}.f{fill:#ff9f00;}.g,.j{fill:#9d5302;}.i{fill:#633401;}</style></defs><title>mastery_token_farming</title><circle class="a" cx="250" cy="250" r="250"/><circle class="b" cx="250" cy="250" r="230"/><circle class="a" cx="250" cy="250" r="202"/><path class="c" d="M264.83,225.38a10.44,10.44,0,0,1-8.23,3.24A141,141,0,0,1,204,212.78c-24.6-13.26-54.28-40.16-56-93a10.44,10.44,0,0,1,3.05-7.71,11.07,11.07,0,0,1,8.32-3.11h0c1.1,0,27,.18,53.74,16.2A105.89,105.89,0,0,1,247.41,158c10.71,16.3,17.51,36.15,20.21,59A10.42,10.42,0,0,1,264.83,225.38Z"/><path class="d" d="M247.73,158.5A121,121,0,0,0,237,185.91a254.75,254.75,0,0,0-9,36.89,132.27,132.27,0,0,0,28.6,5.82,10.44,10.44,0,0,0,11-11.63C265,194.37,258.26,174.7,247.73,158.5Z"/><path class="e" d="M255.88,207.49,233.4,185.57,227.48,156a4.32,4.32,0,1,0-8.48,1.7l3.44,17.15-12.39-12.09-6-29.94a4.32,4.32,0,1,0-8.48,1.7l3.52,17.55-28.92-28.2a4.32,4.32,0,1,0-6,6.18l31.81,31-22.19-.38a4.33,4.33,0,0,0-.15,8.65l31.36.53,14.76,14.39-22.53-.38a4.32,4.32,0,0,0-.15,8.64l31.7.54,21.11,20.59a4.32,4.32,0,1,0,6-6.19Z"/><path class="f" d="M366.73,112.18A10.43,10.43,0,0,0,358.5,109a140.52,140.52,0,0,0-52.56,15.84c-20,10.78-43.37,30.58-52.33,66-4.89,14.41-15.68,53.5-13.15,112.35a9.47,9.47,0,0,0,9.46,9.07h.41a9.48,9.48,0,0,0,9.06-9.88,343.24,343.24,0,0,1,4.44-73.8A116.4,116.4,0,0,0,315,212.44a105.89,105.89,0,0,0,34.26-32.86c10.72-16.29,17.52-36.14,20.22-59A10.45,10.45,0,0,0,366.73,112.18Z"/><path class="e" d="M353.12,124a4.32,4.32,0,0,0-6.11-.07l-28.93,28.2,3.53-17.55a4.32,4.32,0,0,0-8.48-1.7l-6,29.94-12.39,12.09,3.44-17.15a4.32,4.32,0,1,0-8.48-1.7l-5.93,29.54-22.47,21.92a4.32,4.32,0,0,0,6,6.19l21.11-20.59,31.7-.54a4.33,4.33,0,0,0-.07-8.65H320l-22.52.38,14.75-14.39,31.36-.54a4.32,4.32,0,0,0-.07-8.64h-.08l-22.18.38,31.8-31A4.32,4.32,0,0,0,353.12,124Z"/><path class="g" d="M356.46,334.93a22.6,22.6,0,0,0-11.89,3.36,40.79,40.79,0,0,0-45.06-28.44,54,54,0,0,0-99,0,40.79,40.79,0,0,0-45.06,28.44,22.74,22.74,0,1,0,5,34.56,40.81,40.81,0,0,0,63.29,5.83,54,54,0,0,0,52.46,0,40.81,40.81,0,0,0,63.29-5.83,22.75,22.75,0,1,0,16.94-37.92Z"/><g class="h"><path class="i" d="M279.69,299.55a54,54,0,0,1,15.46,2.26,54,54,0,0,0-94.66,8,40.79,40.79,0,0,0-45.06,28.44,22.74,22.74,0,1,0,5,34.56,40.83,40.83,0,0,0,63.29,5.83,53.73,53.73,0,0,0,10.78,4.55,54,54,0,0,1,45.14-83.68Z"/><circle class="i" cx="271.48" cy="340.93" r="9.79"/><circle class="i" cx="310.97" cy="364" r="9.79"/><circle class="i" cx="304.95" cy="330.49" r="3.77"/><circle class="i" cx="250" cy="367.77" r="3.77"/><circle class="i" cx="261.69" cy="316.4" r="3.77"/><circle class="i" cx="342.77" cy="350.73" r="3.77"/></g><g class="h"><circle class="j" cx="320.76" cy="283.73" r="9.79"/><circle class="j" cx="342.77" cy="305.63" r="3.77"/><circle class="j" cx="342.77" cy="287.5" r="3.77"/></g><g class="h"><circle class="i" cx="170.94" cy="280.28" r="9.79"/><circle class="i" cx="154.67" cy="301.86" r="3.77"/></g></svg>