<svg xmlns="http://www.w3.org/2000/svg" viewBox="0 0 500 500"><defs><style>.a{fill:#ffab5f;}.a,.b,.c,.d,.f,.g,.h,.j{isolation:isolate;}.b{fill:#ffe17d;}.c,.i{fill:#9d5302;}.e,.h{fill:#b96100;}.f{fill:#ff9f00;}.g{fill:#d28607;}.j{fill:#57411c;}</style></defs><title>mastery_token_fishing</title><circle class="a" cx="250" cy="250" r="250"/><circle class="b" cx="250" cy="250" r="230"/><circle class="a" cx="250" cy="250" r="202"/><path class="c" d="M330.4,266.08a8.7,8.7,0,0,0-11.89-3.18l-51.78,22.72a8.69,8.69,0,0,0,0,12.3l26,26a26.14,26.14,0,0,0,25.36,6.82,25.32,25.32,0,0,0,18.2-17.81A61.2,61.2,0,0,0,330.4,266.08Z"/><g class="d"><path class="e" d="M236.08,171a61,61,0,0,0-49.3-6.85,25,25,0,0,0-17.31,18,26.59,26.59,0,0,0,6.87,25.34l27.4,27.4a8.7,8.7,0,0,0,12.31,0L238.84,183A8.69,8.69,0,0,0,236.08,171Z"/><path class="e" d="M197.79,304.42c-15.64-14.07-24.92-28.51-47.34-28.71-17.92-.35-36.72,10.44-58.47,32a8.93,8.93,0,0,0,0,12.36C111.47,339.58,128.87,349,145.06,349a39.48,39.48,0,0,0,9.39-1,49.21,49.21,0,0,0-2.08,13.92c.17,19.66,13.92,32.89,23.84,42.46,11.36,11.36,13.89,5.62,22.62-2.43,11.83-11,26.45-24.54,26.8-44.55C226,336.79,212.06,319.56,197.79,304.42Z"/></g><path class="c" d="M176.21,404.31c11.36,11.36,13.89,5.62,22.62-2.43,11.83-11,26.45-24.54,26.8-44.55.35-20.54-13.57-37.77-27.84-52.91l-.21-.18-43.84,43.84.71-.15a49.21,49.21,0,0,0-2.08,13.92C152.54,381.51,166.29,394.74,176.21,404.31Z"/><path class="f" d="M375.54,223.05c-19.15,49.43-68.82,78.59-182.11,98.25-5.9,1.05-12.54-4.76-11.48-11.48,19.32-111.2,46.36-162.47,94.22-182.31l32.19,12.19,24.71,29.06,20,23.49Z"/><path class="g" d="M193.43,321.3c113.29-19.66,163-48.82,182.11-98.25l-22.45-30.8-20-23.49h0L184.24,317.58A10.12,10.12,0,0,0,193.43,321.3Z"/><path class="h" d="M386.5,141.44c0,19.84-.87,40.72-4.87,60a153.12,153.12,0,0,1-6.09,21.58c-30.63,9.75-59.35.7-78.66-17.92a78.46,78.46,0,0,1-20.71-77.62,143.82,143.82,0,0,1,21.23-6.61c20-4.52,42.11-5.74,62.82-5.57A26.19,26.19,0,0,1,378.67,123,27.09,27.09,0,0,1,386.5,141.44Z"/><g class="d"><path class="i" d="M296.88,205.13c19.31,18.62,48,27.67,78.66,17.92a153.12,153.12,0,0,0,6.09-21.58c4-19.31,4.87-40.2,4.87-60a27.11,27.11,0,0,0-7.75-18.37l-82,82Z"/><path class="i" d="M311.32,245.5a8.73,8.73,0,0,1-11.66,3.83,107.22,107.22,0,0,1-27.32-19.66A116.14,116.14,0,0,1,252,202.87a8.72,8.72,0,1,1,15.31-8.36,93.18,93.18,0,0,0,17.41,22.8,90.09,90.09,0,0,0,22.79,16.53A8.59,8.59,0,0,1,311.32,245.5Z"/><path class="i" d="M272.34,229.67a107.22,107.22,0,0,0,27.32,19.66,8.73,8.73,0,0,0,11.66-3.83,8.59,8.59,0,0,0-3.83-11.66,89.91,89.91,0,0,1-22.79-16.53l-.1-.09-12.35,12.35Z"/></g><circle class="j" cx="326.83" cy="161.14" r="8.7"/></svg>