<svg xmlns="http://www.w3.org/2000/svg" viewBox="0 0 500 500"><defs><style>.a{fill:#ffab5f;}.a,.b,.c,.e,.f,.g,.h,.i{isolation:isolate;}.b{fill:#ffe17d;}.c{fill:#ffd400;}.d{fill:#ff6c6c;}.e{fill:#c5a403;}.f{fill:#9d5302;}.g{fill:#633401;}.h{fill:#ff9f00;}.i{fill:#d28607;}</style></defs><title>mastery_token_fletching</title><circle class="a" cx="250" cy="250" r="250"/><circle class="b" cx="250" cy="250" r="230"/><circle class="a" cx="250" cy="250" r="202"/><path class="c" d="M246.71,357.24l-9.23-27.95a10.9,10.9,0,0,0-1.57-2.64,11.13,11.13,0,0,0-2.64-1.58l-28-9.23a6.36,6.36,0,0,0-6.72,1.58l-27.95,27.95a6.59,6.59,0,0,0,2.5,10.95l24.92,8.17,8.17,24.91a6.58,6.58,0,0,0,10.94,2.51l28-28a6.37,6.37,0,0,0,1.57-6.72Z"/><path class="d" d="M246.71,357.24a6.35,6.35,0,0,1-1.58,6.72L217.18,391.9a6.58,6.58,0,0,1-10.94-2.5l-8.17-24.91,37.84-37.84a10.9,10.9,0,0,1,1.57,2.64Z"/><path class="e" d="M246.71,357.24a6.35,6.35,0,0,1-1.58,6.72L217.18,391.9a6.58,6.58,0,0,1-10.94-2.5l-8.17-24.91,37.84-37.84a10.9,10.9,0,0,1,1.57,2.64Z"/><path class="f" d="M363.73,208.05,189.23,382.68a6.62,6.62,0,0,1-9.36-9.36L354.5,198.83a6.52,6.52,0,1,1,9.23,9.22Z"/><path class="g" d="M363.73,208.05,189.23,382.68a6.76,6.76,0,0,1-9.36,0L363.73,198.83a6.37,6.37,0,0,1,0,9.22Z"/><path class="h" d="M391.68,170.88a6.13,6.13,0,0,0-6.73-1.59l-55.89,18.6a6.61,6.61,0,0,0,0,12.52l24.78,8.31,8.3,24.78a6.62,6.62,0,0,0,12.53,0l18.59-55.9a6.34,6.34,0,0,0-1.58-6.72Z"/><path class="i" d="M393.26,177.6l-18.59,55.9a6.61,6.61,0,0,1-12.52,0l-8.31-24.78,37.84-37.84A6.34,6.34,0,0,1,393.26,177.6Z"/><path class="c" d="M253.29,142.76l9.23,28a10.9,10.9,0,0,0,1.57,2.64,11.13,11.13,0,0,0,2.64,1.58l27.95,9.23a6.36,6.36,0,0,0,6.72-1.58l28-28a6.59,6.59,0,0,0-2.5-10.95l-24.92-8.17-8.17-24.91a6.58,6.58,0,0,0-10.94-2.51l-28,27.95a6.37,6.37,0,0,0-1.57,6.72Z"/><path class="d" d="M253.29,142.76a6.35,6.35,0,0,1,1.58-6.72l27.95-27.94a6.58,6.58,0,0,1,10.94,2.5l8.17,24.91-37.84,37.84a10.9,10.9,0,0,1-1.57-2.64Z"/><path class="e" d="M253.29,142.76a6.35,6.35,0,0,1,1.58-6.72l27.95-27.94a6.58,6.58,0,0,1,10.94,2.5l8.17,24.91-37.84,37.84a10.9,10.9,0,0,1-1.57-2.64Z"/><path class="f" d="M136.27,292l174.5-174.63a6.62,6.62,0,0,1,9.36,9.36L145.5,301.17a6.52,6.52,0,1,1-9.23-9.22Z"/><path class="g" d="M136.27,292l174.5-174.63a6.76,6.76,0,0,1,9.36,0L136.27,301.17a6.37,6.37,0,0,1,0-9.22Z"/><path class="h" d="M108.32,329.12a6.13,6.13,0,0,0,6.73,1.59l55.89-18.6a6.61,6.61,0,0,0,0-12.52l-24.78-8.31-8.3-24.78a6.62,6.62,0,0,0-12.53,0l-18.59,55.9a6.34,6.34,0,0,0,1.58,6.72Z"/><path class="i" d="M106.74,322.4l18.59-55.9a6.61,6.61,0,0,1,12.52,0l8.31,24.78-37.84,37.84A6.34,6.34,0,0,1,106.74,322.4Z"/></svg>