<svg xmlns="http://www.w3.org/2000/svg" viewBox="0 0 500 500"><defs><style>.a{fill:#ffab5f;}.a,.b,.c,.d{isolation:isolate;}.b{fill:#ffe17d;}.c{fill:#9d5302;}.d{fill:#633401;}</style></defs><title>mastery_token_smithing</title><circle class="a" cx="250" cy="250" r="250"/><circle class="b" cx="250" cy="250" r="230"/><circle class="a" cx="250" cy="250" r="202"/><path class="c" d="M212.16,295h75.67v56.29H212.16Z"/><path class="d" d="M114.87,235.6h38.61v-54H98.63A5.4,5.4,0,0,0,93.25,187v27A21.61,21.61,0,0,0,114.87,235.6Z"/><path class="d" d="M185.13,295.06a5.41,5.41,0,0,0,5.41,5.41H309.45a5.41,5.41,0,0,0,5.41-5.41V249.33H185.13Z"/><path class="d" d="M185.13,343.7a21.64,21.64,0,0,0-21.62,21.63v3.13a7.6,7.6,0,0,0,7.62,7.61H328.86a7.6,7.6,0,0,0,7.62-7.61v-3.13a21.63,21.63,0,0,0-21.62-21.63H185.13Z"/><path class="c" d="M154.92,159.93a7.6,7.6,0,0,0-7.62,7.61v84.28a5.42,5.42,0,0,0,5.4,5.41h173a81.09,81.09,0,0,0,81.08-81.08v-8.61a7.6,7.6,0,0,0-7.62-7.61Z"/></svg>