<svg xmlns="http://www.w3.org/2000/svg" viewBox="0 0 500 500"><defs><style>.a{fill:#ffab5f;}.b{fill:#ffe17d;}.c{fill:#9d5302;}.d{fill:#633401;}.e{fill:#ffa24e;}.f{fill:#fb973c;}.g{fill:#b25d00;}.h{fill:#7d4201;}</style></defs><title>mastery_token_thieving</title><circle class="a" cx="250" cy="250" r="250"/><circle class="b" cx="250" cy="250" r="230"/><circle class="a" cx="250" cy="250" r="202"/><path class="c" d="M372.27,270.36v5.45c0,71.25-58.51,122.55-122.27,141.7h-.19c-63.95-21.85-122.07-72.29-122.07-141.7v-5.45l4.75-2.64a271.74,271.74,0,0,1,38.95-18.43H328.62a271.74,271.74,0,0,1,38.95,18.43Z"/><path class="d" d="M372.27,270.36v5.45c0,71.25-58.51,122.55-122.27,141.7V249.29h78.62a271.74,271.74,0,0,1,38.95,18.43Z"/><path class="e" d="M334.65,200.57V301c-20.14,7-49.1,21.07-84.65,21.07-35.36,0-61.13-13-84.65-21.07V200.57Z"/><path class="f" d="M334.65,200.57V301c-20.14,7-49.1,21.07-84.65,21.07V200.57Z"/><path class="c" d="M315.83,200.57H185.68L165.4,210l18.81,37.62h52.84l12.95-26,13,26h52.83L334.64,210Z"/><path class="d" d="M315.83,247.59,334.64,210l-18.81-9.4H250v21l13,26Z"/><path class="c" d="M334.45,198.69H165.55L185.86,96.45H314.11Z"/><path class="d" d="M334.45,198.69H250V96.45h64.14Z"/><path class="g" d="M372.27,172.35V210H127.74V172.35h18.81v18.81h206.9V172.35Z"/><path class="h" d="M372.27,172.35V210H250V191.16H353.45V172.35Z"/></svg>