<svg xmlns="http://www.w3.org/2000/svg" viewBox="0 0 500 500"><defs><style>.a{fill:#ffab5f;}.a,.b,.c,.d,.f,.g{isolation:isolate;}.b{fill:#ffe17d;}.c{fill:#ff9f00;}.e{fill:#d28607;}.f{fill:#9d5302;}.g{fill:#633401;}.h{fill:#ffd400;}</style></defs><title>mastery_token_woodcutting</title><circle class="a" cx="250" cy="250" r="250"/><circle class="b" cx="250" cy="250" r="230"/><circle class="a" cx="250" cy="250" r="202"/><path class="c" d="M392.6,237.24a53.75,53.75,0,0,0-32.83-49.52,47.94,47.94,0,0,0-63.61-65.07,47.94,47.94,0,0,0-92.32,0,47.94,47.94,0,0,0-63.61,65.07A53.73,53.73,0,0,0,158.69,290.9c4,14.41,19.34,25.16,37.7,25.16a42.71,42.71,0,0,0,26.8-9.07,44.14,44.14,0,0,0,53.61,0,42.74,42.74,0,0,0,26.81,9.07c18.36,0,33.72-10.75,37.7-25.16A53.73,53.73,0,0,0,392.6,237.24Z"/><g class="d"><path class="e" d="M247.12,87.73c-.59,0-1.18.08-1.76.14l-.54,0c-.62.07-1.24.15-1.87.25l-.35,0q-1.09.16-2.19.39h0C253,91.17,264.77,99.93,272.23,111A26.55,26.55,0,0,0,296,122.67l.2,0a48,48,0,0,0-46.16-35c-.77,0-1.54,0-2.3.06Z"/><path class="e" d="M359.77,187.72a47.93,47.93,0,0,0-52.19-68.95,47.93,47.93,0,0,1,33,69A53.73,53.73,0,0,1,322.12,290.9C318.86,302.71,308,312.05,294,315a45.63,45.63,0,0,0,9.6,1c18.36,0,33.72-10.74,37.7-25.15a53.73,53.73,0,0,0,18.46-103.18Z"/></g><path class="c" d="M215.68,299.05c-4.33,7.33-22.24,15.52-28.88,16,.73.16,1.47.29,2.22.42l.18,0c.75.12,1.51.22,2.29.31h.06c.69.07,1.39.12,2.1.17l.51,0c.74,0,1.48.06,2.23.06h0a43.2,43.2,0,0,0,24.91-7.64l1.17-.86-6-9.87Z"/><path class="f" d="M274,311.29l20.53-32.41a6.14,6.14,0,0,0-1.16-7.92h0a6.13,6.13,0,0,0-8.39.32l-15.13,15.31a3,3,0,0,1-5.06-2.48l4.45-33a6.15,6.15,0,0,0-5.67-7l-4.17-.28a6.14,6.14,0,0,0-6.46,5.06L245,294.09a3,3,0,0,1-5.24,1.35l-24.85-30.57a6.14,6.14,0,0,0-7.15-1.79l-4.35,1.83a6.15,6.15,0,0,0-2.89,8.82L226,316.32a32,32,0,0,1,4.3,20.53c-3.31,25.54-7.42,49.62-24.25,69.24h87.82c-18-21-22.46-47.12-24.84-74.66A32.26,32.26,0,0,1,274,311.29Z"/><path class="g" d="M294.5,278.88a6.14,6.14,0,0,0-1.16-7.92h0a6.13,6.13,0,0,0-8.39.32l-6.76,6.83h0l-8.37,8.48a3,3,0,0,1-5.06-2.48l4.45-33a6.14,6.14,0,0,0-5.41-6.92L251.3,322c-.21,1-.38,2-.5,3h0a32.88,32.88,0,0,0-.08,6.43c2.39,27.54,6.83,53.66,24.85,74.66h18.34c-18-21-22.46-47.12-24.85-74.66A32.38,32.38,0,0,1,274,311.28Z"/><path class="h" d="M240.87,125.27a33.26,33.26,0,0,0-30.26,19.46,33.27,33.27,0,0,0-48,43.83,33.28,33.28,0,0,0,5.09,66.16c18.38,0,106.44-77.8,106.44-96.18A33.28,33.28,0,0,0,240.87,125.27Z"/></svg>