<svg xmlns="http://www.w3.org/2000/svg" viewBox="0 0 512 512" width="512" height="512">
	<style>
		tspan { white-space:pre }
		.shp0 { fill: #546e7a } 
		.shp1 { fill: #ffa000 } 
		.shp2 { fill: #90a4ae } 
		.shp3 { fill: #78909c } 
		.shp4 { fill: #a5a5a5 } 
		.shp5 { fill: #989898 } 
		.shp6 { fill: #d1d1d1 } 
		.shp7 { fill: #6c6c6c } 
	</style>
	<g id="Layer">
		<path id="Layer" class="shp0" d="M53.91 241.18L56.57 348L145.43 305.21L142.88 224.06L53.91 241.18Z" />
		<path id="Layer" class="shp1" d="M307.4 204.12L281.09 177.84L320.49 138.48L346.8 164.77L307.4 204.12Z" />
		<path id="Layer" class="shp2" d="M290.61 373.79L64.05 499.05C58.25 502.26 51.08 498.34 50.66 491.72C48.84 462.85 44.68 394.96 41.97 334.37C41.94 333.58 42.36 332.84 43.06 332.47L85.69 309.64C105.62 298.96 116.89 277.1 114.01 254.68L113.69 252.16C113.09 247.47 108.44 244.44 103.91 245.75L42.19 263.7C40.88 264.08 39.57 263.11 39.55 261.75C39.29 245.35 39.47 232.7 40.26 226.05C44.83 187.36 95.28 150.09 159.37 141.7C257.81 128.8 301.43 180.23 301.43 180.23C301.43 180.23 325.41 200.77 326.11 255.06C326.82 309.35 290.61 373.79 290.61 373.79L290.61 373.79Z" />
		<g id="Layer">
			<path id="Layer" class="shp3" d="M326.12 255.06C325.41 200.77 301.43 180.23 301.43 180.23C301.43 180.23 262.31 134.14 174.61 140.18C240.64 145.04 270.5 180.23 270.5 180.23C270.5 180.23 294.47 200.77 295.18 255.06C295.88 309.35 259.67 373.79 259.67 373.79L50.52 489.43C50.57 490.21 50.61 490.99 50.66 491.72C51.08 498.34 58.25 502.26 64.05 499.05L290.61 373.79C290.61 373.79 326.82 309.35 326.12 255.06L326.12 255.06Z" />
		</g>
		<path id="Layer" class="shp4" d="M375.89 262.65L375.89 305.92L224.07 305.92C204.12 305.92 187.94 322.08 187.94 342.02L187.94 396.24C187.94 460.17 136.06 512 72.06 512L29.12 512C26.85 512 25 510.16 25 507.88L25 369.84C25 365.28 28.69 361.59 33.25 361.59L144.63 361.59L144.63 344.24C144.63 299.18 181.19 262.66 226.29 262.66L375.89 262.66L375.89 262.65Z" />
		<g id="Layer">
			<path id="Layer" class="shp5" d="M157 342.02L157 396.24C157 460.17 105.12 512 41.12 512L72.06 512C136.06 512 187.94 460.17 187.94 396.24L187.94 342.02C187.94 322.08 204.12 305.92 224.07 305.92L193.13 305.92C173.18 305.92 157 322.08 157 342.02L157 342.02Z" />
		</g>
		<path id="Layer" class="shp6" d="M166.82 95.01L145.51 3.79C145.06 1.85 146.53 0 148.52 0L244.12 0C378.26 0 487 108.41 487 242.15L487 371.53C487 373.38 485.4 374.81 483.56 374.61L371.12 362.12L371.12 245.86C371.12 162.77 303.68 95.36 220.35 95.15L166.82 95.01Z" />
		<path id="Layer" class="shp6" d="M244.12 0L213.18 0C347.32 0 456.06 108.41 456.06 242.15L456.06 371.55L483.56 374.61C485.4 374.81 487 373.38 487 371.53L487 242.15C487 108.41 378.26 0 244.12 0Z" />
		<path id="Layer" class="shp4" d="M219.12 80.11L165.42 80.11C156.88 80.11 149.95 87.03 149.95 95.56C149.95 104.1 156.88 111.01 165.42 111.01L219.12 111.01C295.58 111.01 357.79 173.16 357.79 249.54L357.79 364.48C357.79 373.02 364.71 379.93 373.26 379.93C381.8 379.93 388.73 373.02 388.73 364.48L388.73 249.54C388.73 156.12 312.64 80.11 219.12 80.11L219.12 80.11Z" />
		<g id="Layer">
			<path id="Layer" class="shp7" d="M208.54 50.51C204.5 51.03 200.68 48.17 200.16 44L194.66 0L209.78 0L215.06 42.14C215.58 46.25 212.66 50 208.54 50.51L208.54 50.51Z" />
			<path id="Layer" class="shp7" d="M291.45 4.6C291.39 4.9 291.32 5.2 291.23 5.49L276.5 52.6C275.27 56.56 271.05 58.75 267.1 57.52C263.15 56.29 260.94 52.08 262.18 48.12L276.54 2.15C281.57 2.81 286.53 3.63 291.45 4.6L291.45 4.6Z" />
			<path id="Layer" class="shp7" d="M363.95 31.48C363.93 31.52 363.9 31.57 363.88 31.61L336.91 78.5C334.84 82.13 330.2 83.32 326.67 81.27C323.07 79.21 321.84 74.62 323.9 71.03L350.66 24.49C355.17 26.67 359.61 29.01 363.95 31.48L363.95 31.48Z" />
			<path id="Layer" class="shp7" d="M427.24 83.07C427.21 83.09 427.19 83.12 427.16 83.14L384.53 120.39C381.43 123.12 376.69 122.81 373.93 119.69C371.21 116.57 371.52 111.83 374.64 109.11L417.02 72.08C420.54 75.64 423.94 79.3 427.24 83.07L427.24 83.07Z" />
			<path id="Layer" class="shp7" d="M471.81 157.69C471.77 157.71 471.72 157.72 471.68 157.74L415.9 178.34C411.91 179.78 407.66 177.72 406.25 173.9C404.81 170.02 406.8 165.7 410.69 164.27L466.13 143.8C468.17 148.36 470.06 152.99 471.81 157.69Z" />
			<path id="Layer" class="shp7" d="M486.95 237.52C486.15 237.55 495.25 237.25 424.22 239.59C420.19 239.59 416.86 236.4 416.73 232.34C416.59 228.2 419.83 224.74 423.97 224.6L486.21 222.53C486.61 227.49 486.86 232.48 486.95 237.52Z" />
			<path id="Layer" class="shp7" d="M487 295.81L487 310.81C486.9 310.81 486.81 310.81 486.71 310.8L423.93 308.35C419.79 308.19 416.57 304.7 416.73 300.56C416.89 296.42 420.39 293.18 424.52 293.36L487 295.81Z" />
		</g>
	</g>
</svg>