<svg height="512.00051pt" viewBox="0 0 512.00051 512.00051" width="512.00051pt" xmlns="http://www.w3.org/2000/svg"><path d="m9.949219 502.050781c-13.265625-13.265625-13.265625-34.773437 0-48.035156l358.5625-358.5625c13.265625-13.265625 34.773437-13.265625 48.035156 0 13.265625 13.265625 13.265625 34.769531 0 48.035156l-358.558594 358.5625c-13.265625 13.265625-34.773437 13.265625-48.039062 0zm0 0" fill="#86919e"/><path d="m416.550781 95.453125c-12.816406-12.816406-33.324219-13.246094-46.660156-1.300781.46875.417968.929687.851562 1.378906 1.300781 13.265625 13.265625 13.265625 34.769531 0 48.035156l-358.5625 358.5625c-.449219.449219-.910156.882813-1.378906 1.300781 13.335937 11.945313 33.84375 11.515626 46.660156-1.300781l358.5625-358.5625c13.261719-13.265625 13.261719-34.773437 0-48.035156zm0 0" fill="#77818c"/><path d="m416.550781 95.453125c-13.265625-13.265625-34.773437-13.265625-48.039062 0l-54.46875 54.46875 48.035156 48.039063 54.472656-54.472657c13.261719-13.265625 13.261719-34.773437 0-48.035156zm0 0" fill="#e6e9ed"/><path d="m416.550781 95.453125c-12.816406-12.816406-33.324219-13.246094-46.660156-1.300781.46875.417968.929687.851562 1.378906 1.300781 13.265625 13.265625 13.265625 34.769531 0 48.035156l-31.832031 31.832031 22.640625 22.640626 54.472656-54.472657c13.261719-13.265625 13.261719-34.773437 0-48.035156zm0 0" fill="#cdcdcd"/><path d="m317.375 81.8125c-42.976562 12.859375-53.398438 23.28125-66.253906 66.253906-12.855469-42.972656-23.277344-53.394531-66.253906-66.253906 42.976562-12.855469 53.398437-23.277344 66.253906-66.253906 12.855468 42.976562 23.277344 53.398437 66.253906 66.253906zm0 0" fill="#feda5f"/><path d="m466.226562 243.898438c-23.710937 7.09375-29.460937 12.84375-36.554687 36.554687-7.09375-23.710937-12.84375-29.460937-36.554687-36.554687 23.710937-7.09375 29.460937-12.84375 36.554687-36.554688 7.09375 23.710938 12.84375 29.460938 36.554687 36.554688zm0 0" fill="#feda5f"/><path d="m512 49.742188c-32.265625 9.65625-40.089844 17.480468-49.742188 49.746093-9.65625-32.265625-17.480468-40.089843-49.746093-49.746093 32.265625-9.652344 40.089843-17.476563 49.746093-49.742188 9.652344 32.265625 17.476563 40.089844 49.742188 49.742188zm0 0" fill="#f4c84e"/></svg>