<?xml version="1.0" encoding="iso-8859-1"?>
<!-- Generator: Adobe Illustrator 19.0.0, SVG Export Plug-In . SVG Version: 6.00 Build 0)  -->
<svg version="1.1" id="Capa_1" xmlns="http://www.w3.org/2000/svg" xmlns:xlink="http://www.w3.org/1999/xlink" x="0px" y="0px"
	 viewBox="0 0 512 512" style="enable-background:new 0 0 512 512;" xml:space="preserve">
<path style="fill:#D59F63;" d="M256,512L256,512c-115.621,0-209.35-93.729-209.35-209.35v-93.3C46.65,93.729,140.379,0,256,0l0,0
	c115.621,0,209.35,93.729,209.35,209.35v93.301C465.35,418.271,371.621,512,256,512z"/>
<path style="fill:#966D50;" d="M419.699,309.409c0,87.731-73.291,158.85-163.699,158.85l0,0c-90.409,0-163.699-71.12-163.699-158.85
	V202.591c0-87.731,73.291-158.85,163.699-158.85l0,0c90.409,0,163.699,71.12,163.699,158.85V309.409z"/>
<path style="fill:#AAE1FF;" d="M401.218,304.825c0,80.202-65.016,145.218-145.218,145.218l0,0
	c-80.202,0-145.218-65.016-145.218-145.218v-97.651c0-80.202,65.016-145.218,145.218-145.218l0,0
	c80.202,0,145.218,65.016,145.218,145.218V304.825z"/>
<g>
	<path style="fill:#C7F1FF;" d="M334.602,85.052L130.754,378.347c8.024,13.64,18.206,25.858,30.087,36.174l207.805-298.988
		C358.987,103.675,347.497,93.369,334.602,85.052z"/>
	<path style="fill:#C7F1FF;" d="M204.23,440.532l190.983-274.784c-3.064-10.311-7.241-20.142-12.394-29.354L179.818,428.47
		C187.508,433.218,195.675,437.267,204.23,440.532z"/>
</g>
<g>
</g>
<g>
</g>
<g>
</g>
<g>
</g>
<g>
</g>
<g>
</g>
<g>
</g>
<g>
</g>
<g>
</g>
<g>
</g>
<g>
</g>
<g>
</g>
<g>
</g>
<g>
</g>
<g>
</g>
</svg>
