<svg height="512" viewBox="0 0 59 59" width="512" xmlns="http://www.w3.org/2000/svg"><g id="Page-1" fill="none" fill-rule="evenodd"><g id="027---Eyeball" fill-rule="nonzero" transform="translate(0 -1)"><path id="Shape" d="m45.32 35.22c.7978486-.1930046 1.6108647-.3167972 2.43-.37 6.64-.38 10.58 6.12 10.81 12.04.14 3.8-.98 8.98-4.65 10.84-3.34 1.69-7.19 1.47-10.69.45-2.7392569-.8823996-5.4098122-1.9653282-7.99-3.24-3.43-1.55-7.16-3.02-10.86-2.36-3.8.67-5.6 3.92-8.96 5.34-2.4899749 1.0190568-5.1975539 1.3906179-7.87 1.08-2.69-.31-4.86-1.78-5.24-4.58-.11876219-1.0621312-.06132289-2.136584.17-3.18.02-.12.05-.23.07-.35.29155299-1.4864583-.21245439-3.0174281-1.33-4.04-.20134101-.2016391-.38222327-.4227174-.54-.66-.80225676-1.3399791-.85892214-2.9983861-.15-4.39 1.94-4.3 6.74-6.59 11.14-7.46.1-.02.21-.04.31-.05z" fill="#e64c3c"/><path id="Shape" d="m50 22c.00886 4.757633-1.606934 9.3756994-4.58 13.09-.4128569.5232475-.8534902 1.0239671-1.32 1.5-3.7085848 3.8552144-8.7560091 6.1390844-14.1 6.38-.33.02-.66.03-1 .03s-.67-.01-1-.03c-5.3439909-.2409156-10.3914152-2.5247856-14.1-6.38-.4665098-.4760329-.9071431-.9767525-1.32-1.5-5.743696-7.2041039-6.12075982-17.3107518-.9298325-24.9228101 5.1909273-7.6120583 14.7373646-10.95152558 23.5413412-8.23506567 8.8039765 2.71645991 14.8090862 10.85434457 14.8084913 20.06787577z" fill="#ecf0f1"/><circle id="Oval" cx="29" cy="21" fill="#fff" r="19"/><circle id="Oval" cx="29" cy="15" fill="#f0c419" r="10"/><path id="Shape" d="m32.99 13.74c.0083236.0864027.0116625.1732132.01.26 0 2.209139-1.790861 4-4 4s-4-1.790861-4-4 1.790861-4 4-4c.6179985-.00099216 1.2276298.1428534 1.78.42z" fill="#35495e"/><g fill="#c03a2b"><path id="Shape" d="m7 53c-.32126722-.0002439-.62285427-.1548257-.81063489-.4155001s-.23888567-.5956946-.13736511-.9004999c.666-2 .327-2.867-.347-4.594-.2-.521-.429-1.1-.653-1.774-.38300217-1.0460794-.31775459-2.2037913.18036098-3.2002117s1.38502304-1.7433803 2.45163902-2.0647883c.52467051-.1761788 1.09282116.1063295 1.269.631s-.10632949 1.0928212-.631 1.269c-.56771832.1475718-1.04420502.5328301-1.30737606 1.0570653-.26317105.5242352-.28745283 1.1365047-.06662394 1.6799347.214.639.427 1.186.62 1.679.741 1.9 1.276 3.268.38 5.953-.13733773.4066133-.51881942.68025-.948.68z"/><path id="Shape" d="m53 49c-.2901912.0003289-.5662138-.1254165-.7564078-.3445906-.1901939-.219174-.2757996-.5101587-.2345922-.7974094.3289693-1.4436006.0044134-2.9588047-.887-4.141-1.1097605-1.0694597-2.5811842-1.6823744-4.122-1.717-.5522847 0-1-.4477153-1-1s.4477153-1 1-1c2.1170805.0332436 4.1368226.894847 5.626 2.4 1.291392 1.6140435 1.7918842 3.7216883 1.364 5.744-.0715423.4916435-.4931785.8562098-.99.856z"/><path id="Shape" d="m48 55c-2.4444212.1059429-4.8390605-.7127403-6.707-2.293-.3802342-.3912818-.3766503-1.0151263.0080544-1.4020136.3847046-.3868874 1.0085188-.3940008 1.4019456-.0159864 1.4955895 1.2015611 3.3811151 1.8106104 5.297 1.711.5522847 0 1 .4477153 1 1s-.4477153 1-1 1z"/><path id="Shape" d="m20.45 33.89c-.8249353.3870986-1.7291131.5754689-2.64.55-.7093451-.0043607-1.4163744-.0814302-2.11-.23-.3580742.9502369-.983155 1.7767326-1.8 2.38-.4665098-.4760329-.9071431-.9767525-1.32-1.5.0174207-.0195386.0376402-.0363883.06-.05.8203678-.5601775 1.3253019-1.477227 1.36-2.47.0032384-.5458131-.0777129-1.0888615-.24-1.61-.3547811-1.1169049-.2392345-2.3301442.32-3.36.1429062-.3286843.4503081-.5561616.8064102-.5967434.3561021-.0405817.7068041.1118974.92.4.2131958.2881026.256496.6680591.1135898.9967434-.3824315.6102332-.4635325 1.3622609-.22 2.04.1628364.5840466.2601029 1.1844157.29 1.79 1.1716321.3197769 2.4125609.2779479 3.56-.12.3211808-.1932607.7234705-.1906728 1.0421383.0067041.3186678.1973768.5001928.5563928.4702434.9300368s-.2663431.6991617-.6123817.8432591z"/><path id="Shape" d="m45.42 35.09c-.4128569.5232475-.8534902 1.0239671-1.32 1.5-.816845-.6032674-1.4419258-1.4297631-1.8-2.38-.6936256.1485698-1.4006549.2256393-2.11.23-.9108869.0254689-1.8150647-.1629014-2.64-.55-.3460386-.1440974-.5824323-.4696151-.6123817-.8432591s.1515756-.73266.4702434-.9300368c.3186678-.1973769.7209575-.1999648 1.0421383-.0067041 1.1456301.4075742 2.3895246.4495033 3.56.12.0298971-.6055843.1271636-1.2059534.29-1.79.2435325-.6777391.1624315-1.4297668-.22-2.04-.2209139-.508102.0118981-1.0990861.52-1.32.508102-.2209139 1.0990861.0118981 1.32.52.5592345 1.0298558.6747811 2.2430951.32 3.36-.1622871.5211385-.2432384 1.0641869-.24 1.61.0346981.992773.5396322 1.9098225 1.36 2.47.0223598.0136117.0425793.0304614.06.05z"/><path id="Shape" d="m33.95 37.32c-.5871208 1.8045374-2.0932507 3.1581478-3.95 3.55v2.1c-.33.02-.66.03-1 .03s-.67-.01-1-.03v-2.32c-1.8120143-.8429611-2.9788892-2.6516172-3-4.65 0-.5522847.4477153-1 1-1s1 .4477153 1 1c.0609564 1.3376596.9092211 2.5118778 2.16 2.99 1.3414962-.1155634 2.4816971-1.0269351 2.89-2.31.114325-.3394023.4010346-.5920313.7521281-.6627241s.7132315.0512905.95.32c.2367686.2687095.3121969.6433218.1978719.9827241z"/><path id="Shape" d="m42 44h-27c-.5522847 0-1-.4477153-1-1s.4477153-1 1-1h27c.5522847 0 1 .4477153 1 1s-.4477153 1-1 1z"/></g><circle id="Oval" cx="32" cy="12" fill="#fff" r="3"/></g></g></svg>