<svg xmlns="http://www.w3.org/2000/svg" viewBox="0 0 465 464" width="465" height="464">
	<style>
		tspan { white-space:pre }
		.shp0 { fill: #37474f } 
		.shp1 { fill: #263238 } 
		.shp2 { fill: #cfd8dc } 
		.shp3 { fill: #b11c1c } 
		.shp4 { fill: #c71e1e } 
		.shp5 { fill: #a4a4a4 } 
		.shp6 { fill: #939393 } 
	</style>
	<path id="Layer" class="shp0" d="M358.62 267.64L327.13 173.17C326.73 172 326.08 170.93 325.2 170.05L293.7 138.55C292.83 137.68 291.76 137.02 290.58 136.62L243.5 120.93L198.65 104.93C197.49 104.52 196.3 104.37 195.03 104.51L145.45 110.02C143.65 110.22 141.96 111.03 140.68 112.31L77.7 175.29C76.58 176.41 75.82 177.82 75.51 179.37L58.37 264.35L39.09 283.64C35.96 286.77 35.96 291.83 39.09 294.95C42.21 298.08 47.27 298.08 50.4 294.95L168.8 413.35C165.67 416.48 165.67 421.54 168.8 424.66C170.36 426.23 172.41 427.01 174.45 427.01C176.5 427.01 178.55 426.23 180.11 424.66L199.39 405.38L284.38 388.24C285.92 387.93 287.34 387.16 288.45 386.05L351.44 323.07C352.72 321.79 353.53 320.1 353.73 318.3L358.98 271.06C359.11 269.91 358.98 268.74 358.62 267.64Z" />
	<path id="Layer" class="shp1" d="M327.13 173.17C326.73 172 326.08 170.93 325.2 170.05L309.45 154.3L109.6 354.15L168.8 413.35C165.67 416.48 165.67 421.54 168.8 424.66C170.36 426.23 172.41 427.01 174.45 427.01C176.5 427.01 178.55 426.23 180.11 424.66L199.39 405.38L284.38 388.24C285.92 387.93 287.34 387.16 288.45 386.05L351.44 323.07C352.72 321.79 353.53 320.1 353.73 318.3L358.98 271.06C359.11 269.91 358.98 268.74 358.62 267.64L327.13 173.17Z" />
	<path id="Layer" class="shp2" d="M459.3 94.94C456.27 93.57 452.7 94.21 450.34 96.57L366.37 180.54C364.87 182.04 364.02 184.08 364.02 186.2L364.02 207.45L348.77 203.63C346.05 202.95 343.16 203.75 341.17 205.73L319.13 227.78C306.9 240.01 300.66 252.62 297.59 261.04C296.73 263.41 297.03 266.06 298.42 268.17C299.81 270.29 302.12 271.62 304.64 271.77C307.15 271.91 310.79 272.74 313.88 275.83C316.98 278.93 317.8 282.57 317.95 285.08C318.1 287.61 319.44 289.91 321.55 291.3C322.87 292.16 324.4 292.61 325.94 292.61C326.86 292.61 327.79 292.45 328.68 292.12C337.1 289.04 349.7 282.81 361.59 270.91C365.55 267.39 458.58 183.82 463.98 102.75C464.2 99.43 462.34 96.32 459.3 94.94L459.3 94.94Z" />
	<path id="Layer" class="shp3" d="M459.3 94.94C456.27 93.57 452.7 94.21 450.34 96.57L366.37 180.54C364.87 182.04 364.02 184.08 364.02 186.2L364.02 207.45L348.77 203.63C346.05 202.95 343.16 203.75 341.17 205.73L319.13 227.78C306.9 240.01 300.66 252.62 297.59 261.04C296.73 263.41 297.03 266.06 298.42 268.17C299.81 270.29 302.12 271.62 304.64 271.77C307.15 271.91 310.79 272.74 313.88 275.83C316.98 278.93 317.8 282.57 317.95 285.08C318.1 287.61 319.44 289.91 321.55 291.3C322.87 292.16 324.4 292.61 325.94 292.61C326.86 292.61 327.79 292.45 328.68 292.12C337.1 289.04 349.7 282.81 361.59 270.91C365.55 267.39 458.58 183.82 463.98 102.75C464.2 99.43 462.34 96.32 459.3 94.94L459.3 94.94Z" />
	<path id="Layer" class="shp4" d="M278.48 97.59L276.81 89.23L288.56 89.23C290.69 89.23 292.72 88.39 294.22 86.89L367.45 13.66C369.8 11.31 370.45 7.74 369.08 4.7C367.7 1.68 364.7 -0.26 361.26 0.03C280.19 5.43 196.62 98.46 193.42 102.07C181.3 114.2 175.07 126.71 171.98 135.07C171.11 137.43 171.4 140.06 172.76 142.17C174.11 144.29 176.38 145.64 178.89 145.82C181.34 146.01 184.91 146.86 187.91 149.87C190.4 152.35 191.85 155.71 192.01 159.33C192.12 161.87 193.43 164.21 195.55 165.63C196.88 166.52 198.44 166.98 200 166.98C200.91 166.98 201.84 166.82 202.72 166.5C214.71 162.18 226.62 154.5 236.23 144.88L276.3 104.81C278.19 102.92 279.01 100.21 278.48 97.59Z" />
	<path id="Layer" class="shp4" d="M442.59 31.27C443.55 28.4 442.8 25.23 440.66 23.09C438.52 20.94 435.35 20.19 432.48 21.15C397.3 32.88 361.23 63.45 277.27 143.68C265.24 155.17 258.85 168.18 255.61 177.06C254.74 179.44 255.05 182.08 256.44 184.2C257.83 186.31 260.13 187.64 262.66 187.79C265.16 187.94 268.8 188.76 271.89 191.85L271.89 191.86C274.98 194.95 275.81 198.59 275.96 201.11C276.11 203.63 277.45 205.93 279.55 207.32C280.88 208.18 282.41 208.63 283.95 208.63C284.87 208.63 285.8 208.47 286.69 208.14C295.58 204.89 308.59 198.5 320.07 186.48C400.3 102.52 430.87 66.46 442.59 31.27Z" />
	<path id="Layer" class="shp3" d="M440.66 23.09L271.89 191.86C274.98 194.95 275.81 198.59 275.96 201.11C276.11 203.63 277.45 205.93 279.55 207.32C280.88 208.18 282.41 208.63 283.95 208.63C284.87 208.63 285.8 208.47 286.69 208.14C295.58 204.89 308.59 198.5 320.07 186.48C400.3 102.52 430.87 66.46 442.59 31.27C443.55 28.4 442.8 25.23 440.66 23.09Z" />
	<path id="Layer" class="shp3" d="M225.06 246.68C223.02 246.68 220.97 245.9 219.41 244.34C216.28 241.21 216.28 236.15 219.41 233.03L240.4 212.04C243.52 208.91 248.59 208.91 251.71 212.04C254.84 215.16 254.84 220.22 251.71 223.35L230.72 244.34C229.16 245.9 227.11 246.68 225.06 246.68Z" />
	<path id="Layer" class="shp3" d="M219.41 244.34C220.97 245.91 223.02 246.68 225.06 246.68C227.11 246.68 229.16 245.9 230.72 244.34L251.71 223.35C254.84 220.22 254.84 215.16 251.71 212.04L219.41 244.34Z" />
	<path id="Layer" class="shp3" d="M83.35 335.91C81.3 335.91 79.26 335.13 77.7 333.57C74.57 330.44 74.57 325.38 77.7 322.25L98.7 301.26C101.82 298.13 106.88 298.13 110.01 301.26C113.13 304.38 113.13 309.45 110.01 312.57L89.01 333.57C87.45 335.13 85.4 335.91 83.35 335.91L83.35 335.91Z" />
	<path id="Layer" class="shp3" d="M135.84 388.39C133.79 388.39 131.74 387.61 130.18 386.05C127.05 382.93 127.05 377.86 130.18 374.74L151.18 353.75C154.3 350.62 159.37 350.62 162.49 353.75C165.62 356.87 165.62 361.94 162.49 365.06L141.49 386.05C139.93 387.61 137.88 388.39 135.84 388.39Z" />
	<path id="Layer" class="shp5" d="M156.42 138.55C144.62 150.36 144.62 169.56 156.42 181.36C162.33 187.26 170.08 190.21 177.83 190.21C185.58 190.21 193.33 187.26 199.23 181.36C211.03 169.56 211.03 150.36 199.23 138.55C187.43 126.76 168.23 126.76 156.42 138.55Z" />
	<path id="Layer" class="shp5" d="M283.2 180.54C271.41 168.75 252.21 168.75 240.4 180.54C228.59 192.34 228.59 211.55 240.4 223.35C246.3 229.25 254.05 232.2 261.8 232.2C269.55 232.2 277.3 229.25 283.2 223.35C295.01 211.55 295.01 192.34 283.2 180.54Z" />
	<path id="Layer" class="shp6" d="M240.4 223.35C246.3 229.25 254.05 232.2 261.8 232.2C269.55 232.2 277.3 229.25 283.2 223.35C295.01 211.55 295.01 192.35 283.2 180.55L240.4 223.35Z" />
	<path id="Layer" class="shp6" d="M325.2 264.52C313.39 252.71 294.18 252.72 282.39 264.52C270.59 276.32 270.59 295.52 282.39 307.32C288.29 313.23 296.04 316.18 303.8 316.18C311.55 316.18 319.3 313.23 325.2 307.32C337 295.52 337 276.32 325.2 264.52Z" />
	<path id="Layer" class="shp4" d="M190.61 423.85L39.9 273.14C36.9 270.14 31.59 270.14 28.59 273.14L2.34 299.39C-0.78 302.51 -0.78 307.57 2.34 310.7L153.05 461.41C154.62 462.97 156.66 463.75 158.71 463.75C160.76 463.75 162.8 462.97 164.37 461.41L190.61 435.16C193.73 432.04 193.73 426.98 190.61 423.85Z" />
	<path id="Layer" class="shp3" d="M115.25 348.5L77.7 386.05L153.05 461.41C154.62 462.97 156.66 463.75 158.71 463.75C160.76 463.75 162.8 462.97 164.37 461.41L190.61 435.16C193.73 432.04 193.73 426.98 190.61 423.85L115.25 348.5Z" />
</svg>