<svg xmlns="http://www.w3.org/2000/svg" viewBox="0 0 512 512" width="512" height="512">
	<style>
		tspan { white-space:pre }
		.shp0 { fill: #ffef87 } 
		.shp1 { fill: #f5d869 } 
		.shp2 { fill: #52c3a3 } 
		.shp3 { fill: #35af94 } 
	</style>
	<path id="Layer" class="shp0" d="M492 353.94C492 354.44 491.98 354.93 491.97 355.43C476.5 392.11 452.71 424.43 422.98 450.04C381.86 469.78 325.62 479.26 263.3 479.95L263.3 479.95C262.66 479.96 262.02 479.96 261.39 479.97C260.93 479.97 260.46 479.98 260 479.98L260 479.98C258.67 479.98 257.34 480 256 480C125.66 480 20 442.3 20 353.94C20 274.12 106.2 180.28 218.93 162.86C188.82 131.88 151.33 91.05 151.33 79.83C151.33 57.83 169.17 40 191.17 40C195.98 40 200.6 40.86 204.87 42.42C210.38 44.44 216.55 41.8 218.54 36.29C224.08 20.96 238.76 10 256 10C257.35 10 260.06 10.22 260.1 10.22C260.94 10.31 263.2 10.66 263.3 10.67L263.3 10.69C277.29 13.28 288.72 23.18 293.46 36.29C295.45 41.8 301.62 44.45 307.13 42.42C311.4 40.86 316.02 40 320.83 40C342.83 40 360.67 57.83 360.67 79.83C360.67 91.05 323.18 131.88 293.07 162.87C405.8 180.28 492 274.13 492 353.94Z" />
	<path id="Layer" class="shp1" d="M362.04 343C362.7 315.86 356.71 286.61 343.37 258.45C326.6 223.07 301.15 195.59 272.81 178.95C268.96 179.6 264.85 179.96 260.57 179.99C266.43 205.01 270.04 238.94 270.04 276.33C270.04 322.67 264.51 363.72 256 389.03C247.49 363.72 241.96 322.67 241.96 276.33C241.96 239.25 245.5 205.57 251.28 180.62C224.06 197.41 199.73 224.24 183.51 258.45C170.17 286.61 164.18 315.86 164.84 343C149.17 311.6 147.57 273.59 163.76 239.42C178.82 207.64 206.22 185.69 237.52 176.54C234.25 175.43 231.33 174.08 228.86 172.55C136.41 203.06 70 283.89 70 353.94C70 436.58 162.42 474.9 281 479.52C272.78 479.84 264.44 480 256 480C125.66 480 20 442.31 20 353.94C20 273.79 106.93 179.48 220.36 162.64C220.13 161.78 220 160.9 220 160C220 156.04 222.31 152.36 226.27 149.26L205.61 91.26C203.66 85.78 206.32 79.74 211.68 77.48C217 75.24 223.15 77.51 225.73 82.67L254.59 140.19C255.55 140.12 256.51 140.07 257.48 140.04L286.27 82.67C288.86 77.51 295 75.24 300.32 77.48C305.68 79.74 308.34 85.78 306.39 91.26L287.14 145.31C295.04 148.97 300 154.19 300 160C300 166.22 294.32 171.77 285.42 175.44C318.35 183.85 347.43 206.31 363.12 239.42C379.31 273.59 377.71 311.6 362.04 343Z" />
	<path id="Layer" fill-rule="evenodd" class="shp2" d="M370.87 170.2C364.71 178.74 355.14 183.64 344.6 183.64C344.28 183.64 343.96 183.63 343.64 183.6L276.95 177.14L299.58 222.41C302.06 227.35 300.05 233.36 295.11 235.83C290.17 238.3 284.17 236.29 281.7 231.35L266.85 201.65L266.85 269.13C266.85 274.65 262.37 279.13 256.85 279.13C251.32 279.13 246.84 274.65 246.84 269.13L246.84 180L246 180C242.2 180 238.66 178.92 235.64 177.08L168.37 183.6C168.05 183.63 167.72 183.64 167.4 183.64C156.87 183.64 147.29 178.74 141.13 170.2C134.97 161.65 133.35 151.02 136.68 141.02C142.33 124.09 160.7 114.9 177.64 120.54L239.41 141.13C241.48 140.41 243.69 140 246 140L266 140C268.31 140 270.52 140.41 272.59 141.13L334.36 120.54C351.3 114.9 369.68 124.08 375.32 141.02C378.65 151.02 377.03 161.65 370.87 170.2ZM207.16 151.47L171.31 139.52C170.02 139.09 168.7 138.88 167.41 138.88C161.38 138.88 155.8 143.33 155.07 150.04C154.81 152.41 155.27 154.82 156.38 156.93C158.54 161.03 162.52 163.49 166.99 163.64L206.21 159.84C210.84 159.39 211.57 152.94 207.16 151.47ZM356.92 149.92C355.96 141.84 347.98 137.09 340.69 139.52L304.84 151.46C300.43 152.94 301.16 159.39 305.79 159.84L345.02 163.64C349.48 163.49 353.45 161.04 355.61 156.94C356.75 154.8 357.21 152.33 356.92 149.92Z" />
	<path id="Layer" fill-rule="evenodd" class="shp3" d="M181.24 182.35L168.36 183.6C168.04 183.63 167.72 183.64 167.4 183.64C156.86 183.64 147.29 178.74 141.13 170.2C134.97 161.65 133.35 151.02 136.68 141.02C142.32 124.08 160.7 114.9 177.64 120.54L178.96 120.98C170.16 124.31 162.86 131.42 159.66 141.02C159.57 141.28 159.5 141.54 159.42 141.8C157.09 143.76 155.44 146.6 155.06 150.04C154.81 152.41 155.27 154.82 156.38 156.93C157.16 158.41 158.19 159.68 159.38 160.7C160.41 164.04 161.98 167.24 164.11 170.2C168.43 176.18 174.42 180.37 181.24 182.35ZM284.79 166.79C282.01 174.49 274.66 180 266 180L246 180C234.95 180 226 171.05 226 160C226 151.34 231.51 143.99 239.21 141.21C238.44 143.33 238 145.61 238 148C238 159.05 246.95 168 258 168L278 168C280.39 168 282.67 167.56 284.79 166.79Z" />
	<g id="Layer">
	</g>
</svg>