<svg xmlns="http://www.w3.org/2000/svg" viewBox="0 0 512 513" width="512" height="513">
	<style>
		tspan { white-space:pre }
		.shp0 { fill: #028700 } 
		.shp1 { fill: #c7c7c7 } 
		.shp2 { fill: #026900 } 
	</style>
	<path id="Layer" class="shp0" d="M65.98 102.59L5.33 482.18C2.83 497.83 14.91 512 30.76 512L199.91 512C213.3 512 224.46 501.74 225.58 488.4L256.57 118.57L65.98 102.59Z" />
	<path id="Layer" class="shp0" d="M256.57 118.57L126.64 2.62C121.71 -1.79 113.97 -0.47 110.77 5.32L83.12 55.27C79.91 61.06 82.91 68.32 89.27 70.16L256.57 118.57Z" />
	<path id="Layer" class="shp1" d="M256.57 118.57L85.59 44.04C80.66 41.88 74.91 43.89 72.38 48.63L43.2 103.42C39.54 110.28 44.51 118.57 52.29 118.57L256.57 118.57Z" />
	<path id="Layer" class="shp0" d="M447.15 102.59L507.8 482.18C510.3 497.83 498.21 512 482.37 512L313.22 512C299.83 512 288.67 501.74 287.55 488.4L256.57 118.57L447.15 102.59Z" />
	<path id="Layer" class="shp0" d="M256.57 118.57L386.48 2.62C391.41 -1.79 399.16 -0.47 402.36 5.32L430.01 55.27C433.21 61.06 430.21 68.32 423.86 70.16L256.57 118.57Z" />
	<path id="Layer" class="shp1" d="M256.57 118.57L427.54 44.04C432.46 41.88 438.21 43.89 440.75 48.63L469.93 103.42C473.59 110.28 468.62 118.57 460.84 118.57L256.57 118.57Z" />
	<path id="Layer" class="shp2" d="M299.46 118.57C299.46 142.26 280.26 161.47 256.57 161.47C232.87 161.47 213.66 142.26 213.66 118.57C213.66 94.87 232.87 75.66 256.57 75.66C280.26 75.66 299.46 94.87 299.46 118.57Z" />
	<path id="Layer" class="shp2" d="M244.57 118.57C244.57 100.32 255.96 84.75 272.02 78.55C267.22 76.7 262.02 75.67 256.57 75.67C232.87 75.67 213.66 94.88 213.66 118.57C213.66 142.26 232.87 161.47 256.57 161.47C262.02 161.47 267.22 160.44 272.02 158.59C255.96 152.38 244.57 136.81 244.57 118.57L244.57 118.57Z" />
	<g id="Layer">
		<path id="Layer" class="shp1" d="M133.05 231.15L59.69 512L122.19 512L160.5 236.62C162.93 219.16 137.5 214.09 133.05 231.15L133.05 231.15Z" />
		<path id="Layer" class="shp1" d="M380.08 231.15L453.44 512L390.94 512L352.63 236.62C350.2 219.16 375.63 214.09 380.08 231.15L380.08 231.15Z" />
	</g>
</svg>