<svg height="495pt" viewBox="-15 0 495 495.84" width="495pt" xmlns="http://www.w3.org/2000/svg"><path d="m368.421875 56v.160156h-272v-16.160156c0-22.078125 17.917969-40 40-40h192c22.078125 0 40 17.921875 40 40zm0 0" fill="#967adc"/><path d="m328.421875 0h-192c-22.082031 0-40 17.921875-40 40v16.015625c0-22.078125 17.917969-40 40-40h192c22.078125 0 40 17.921875 40 40v-16.015625c0-22.078125-17.921875-40-40-40zm0 0" fill="#ac92ec"/><path d="m383.859375 88.152344h-303.4375v-32h304v32zm0 0" fill="#ffce54"/><path d="m383.859375 88.152344c49.359375 42.566406 80.5625 105.449218 80.5625 175.6875 0 128.160156-103.921875 232-232 232-128.167969 0-232-103.839844-232-232 0-70.238282 31.199219-133.199219 80.476563-175.6875h74c-67.4375 29.769531-114.476563 97.28125-114.476563 175.6875 0 106 86 192 192 192s192-86 192-192c0-78.40625-47.121094-145.917969-114.5625-175.6875zm0 0" fill="#f6bb42"/></svg>