<svg xmlns="http://www.w3.org/2000/svg" viewBox="0 0 512 512" width="512" height="512">
	<style>
		tspan { white-space:pre }
		.shp0 { fill: #766e6e } 
		.shp1 { fill: #ffda2d } 
		.shp2 { fill: #fdbf00 } 
		.shp3 { fill: #ee8900 } 
		.shp4 { fill: #c97400 } 
	</style>
	<path id="Layer" class="shp0" d="M25.72 443.77L38.47 456.52L51.23 469.28L461.16 59.35L448.41 46.59L435.65 33.84L25.72 443.77Z" />
	<path id="Layer" class="shp1" d="M360.8 37.25L365.91 72.95L431.39 63.61L422.05 129.09L457.75 134.2L473.92 21.08L360.8 37.25Z" />
	<path id="Layer" class="shp2" d="M457.75 134.2L473.92 21.08L431.39 63.61L422.05 129.09L457.75 134.2Z" />
	<path id="Layer" class="shp3" d="M79.81 343.03C74.26 345.67 69.23 349.23 64.84 353.62C43.74 374.72 43.74 409.06 64.84 430.16C85.94 451.26 120.28 451.26 141.38 430.16C145.77 425.77 149.33 420.74 151.95 415.21L217.9 277.1L79.81 343.03Z" />
	<path id="Layer" class="shp4" d="M141.38 430.16C145.77 425.77 149.33 420.74 151.95 415.21L217.9 277.1L64.84 430.16C85.94 451.26 120.28 451.26 141.38 430.16Z" />
</svg>