<svg xmlns="http://www.w3.org/2000/svg" viewBox="0 0 512 512" width="512" height="512">
	<style>
		tspan { white-space:pre }
		.shp0 { fill: #baced8 } 
		.shp1 { fill: #acbec7 } 
		.shp2 { fill: #000000 } 
		.shp3 { fill: #3c3c3c } 
		.shp4 { fill: #2d2d2d } 
	</style>
	<path id="Layer" class="shp0" d="M256.54 0C149.86 0 63.07 86.79 63.07 193.46L63.07 423.34L223.43 503.51C233.79 508.7 245.16 511.29 256.54 511.29C267.91 511.29 279.28 508.7 289.65 503.51L450 423.34L450 193.46C450 86.79 363.21 0 256.54 0Z" />
	<path id="Layer" class="shp1" d="M256.54 0L256.54 511.29C267.91 511.29 279.28 508.7 289.64 503.51L450 423.34L450 193.46C450 86.79 363.21 0 256.54 0Z" />
	<path id="Layer" class="shp2" d="M381.51 230.47L381.5 230.25C380.25 197.78 366.66 167.48 343.25 144.95C319.83 122.41 289.03 110 256.54 110C224.04 110 193.24 122.41 169.82 144.95C146.41 167.48 132.82 197.78 131.57 230.25L127.87 365.97L191.93 396.14C212.46 405.8 234.5 410.63 256.53 410.63C278.57 410.63 300.61 405.8 321.14 396.14L385.2 365.97L381.51 230.47Z" />
	<path id="Layer" class="shp2" d="M381.51 230.47L381.5 230.25C380.25 197.78 366.66 167.48 343.25 144.95C319.83 122.41 289.03 110 256.54 110L256.54 410.63C278.57 410.63 300.61 405.8 321.14 396.14L385.2 365.97L381.51 230.47Z" />
	<path id="Layer" class="shp3" d="M381.44 229.39C379.99 197.24 366.46 167.28 343.25 144.95C319.83 122.41 289.03 110 256.54 110C224.04 110 193.24 122.41 169.82 144.95C146.61 167.28 133.08 197.24 131.63 229.39C207.87 181.23 305.2 181.23 381.44 229.39Z" />
	<path id="Layer" class="shp4" d="M343.25 144.95C319.83 122.41 289.03 110 256.54 110L256.54 193.27C299.93 193.27 343.32 205.31 381.44 229.39C379.99 197.24 366.46 167.28 343.25 144.95Z" />
	<g id="Layer">
	</g>
	<g id="Layer">
	</g>
	<g id="Layer">
	</g>
	<g id="Layer">
	</g>
	<g id="Layer">
	</g>
	<g id="Layer">
	</g>
	<g id="Layer">
	</g>
	<g id="Layer">
	</g>
	<g id="Layer">
	</g>
	<g id="Layer">
	</g>
	<g id="Layer">
	</g>
	<g id="Layer">
	</g>
	<g id="Layer">
	</g>
	<g id="Layer">
	</g>
	<g id="Layer">
	</g>
</svg>