<svg xmlns="http://www.w3.org/2000/svg" viewBox="0 0 512 512" width="512" height="512">
	<style>
		tspan { white-space:pre }
		.shp0 { fill: #679f59 } 
		.shp1 { fill: #5a894e } 
	</style>
	<path id="Layer" class="shp0" d="M444.67 105.45C447.45 113.07 478.39 203.66 414.94 310.5C376.41 375.38 317.9 379.68 312.17 379.94C308.81 375.29 275.78 326.81 302.61 256.27C346.8 140.14 436.98 108.01 444.67 105.45Z" />
	<path id="Layer" class="shp1" d="M444.67 105.45L312.17 379.94L312.17 379.94C317.9 379.68 376.41 375.38 414.94 310.5C478.39 203.66 447.45 113.07 444.67 105.45Z" />
	<path id="Layer" class="shp0" d="M68.33 105.45C65.55 113.07 34.61 203.66 98.06 310.5C136.59 375.38 195.1 379.68 200.83 379.94C204.19 375.29 237.22 326.81 210.39 256.27C166.2 140.14 76.02 108.01 68.33 105.45Z" />
	<path id="Layer" class="shp1" d="M210.39 256.27C166.2 140.14 76.02 108.01 68.33 105.45C146.68 255.11 188.95 350.97 201.16 379.49C205.86 372.77 236.53 324.99 210.39 256.27Z" />
	<path id="Layer" class="shp0" d="M256.5 49.42C247.05 57.07 137.86 149.51 155.22 317.45C165.77 419.45 248.31 459.2 256.5 462.9C264.69 459.2 347.23 419.45 357.77 317.45C375.14 149.51 265.95 57.07 256.5 49.42Z" />
	<path id="Layer" class="shp1" d="M256.5 49.42L256.5 462.9C264.69 459.2 347.23 419.45 357.77 317.45C375.14 149.51 265.95 57.07 256.5 49.42Z" />
	<path id="Layer" class="shp0" d="M490.28 357.12C510.82 286.51 503.87 220.88 503.87 220.88C503.87 220.88 464.3 238.51 364.87 302.76C287.58 352.71 263.67 440.28 256.5 463.88L347.34 463.88C413.36 463.88 471.83 420.52 490.28 357.12Z" />
	<path id="Layer" class="shp1" d="M503.87 220.88C503.87 220.88 401.68 422.76 256.5 463.88L347.34 463.88C413.37 463.88 471.83 420.52 490.28 357.12C510.82 286.51 503.87 220.88 503.87 220.88Z" />
	<path id="Layer" class="shp0" d="M22.72 357.12C2.18 286.51 9.13 220.88 9.13 220.88C9.13 220.88 48.7 238.51 148.13 302.76C225.42 352.71 249.33 440.28 256.5 463.88L165.66 463.88C99.64 463.88 41.17 420.52 22.72 357.12Z" />
	<path id="Layer" class="shp1" d="M256.5 463.88C249.33 440.28 225.42 352.71 148.13 302.76C48.7 238.51 9.13 220.88 9.13 220.88C9.13 220.88 111.32 422.76 256.5 463.88Z" />
</svg>