<svg xmlns="http://www.w3.org/2000/svg" viewBox="0 0 512 512" width="512" height="512">
	<style>
		tspan { white-space:pre }
		.shp0 { fill: #5a894e } 
		.shp1 { fill: #476b3d } 
		.shp2 { fill: #66ad66 } 
	</style>
	<path id="Layer copy" class="shp0" d="M421.89 323.89C507.28 238.49 527.35 119.16 469.01 53.52L384.9 44.56L139.74 318.78L141.6 360.68C143.21 362.49 144.39 364.59 146.12 366.32C210.44 430.65 334.16 411.61 421.89 323.89Z" />
	<path id="Layer copy 2" class="shp1" d="M304.21 207.7C317.11 142.62 363.75 89.35 426.56 67.97L469.01 53.52C467.42 51.73 466.01 49.82 464.31 48.12C399.99 -16.21 276.27 2.83 188.54 90.54C135.89 143.19 108 208.79 108 266.75C108 302.77 119.27 335.52 141.6 360.68L179.99 348.06C243.69 327.13 291.17 273.48 304.21 207.7Z" />
	<path id="Layer" class="shp2" d="M335.89 185.11C250.49 99.72 131.16 79.65 65.52 138L56.56 222.1L330.78 467.26L372.68 465.4C374.49 463.79 376.59 462.61 378.32 460.88C442.65 396.56 423.61 272.84 335.89 185.11Z" />
	<path id="Layer" class="shp0" d="M219.7 302.79C154.62 289.89 101.35 243.25 79.97 180.44L65.52 137.99C63.73 139.58 61.82 140.99 60.12 142.69C-4.21 207.01 14.83 330.73 102.54 418.46C155.19 471.11 220.79 499 278.75 499C314.77 499 347.52 487.73 372.68 465.4L360.06 427.01C339.13 363.31 285.48 315.83 219.7 302.79Z" />
</svg>