<svg xmlns="http://www.w3.org/2000/svg" viewBox="0 0 512 511" width="512" height="511">
	<style>
		tspan { white-space:pre }
		.shp0 { fill: #fdd7ad } 
		.shp1 { fill: #7f6e5d } 
	</style>
	<path id="Layer" class="shp0" d="M489 219.84C484.06 240.08 477.59 259.93 469.66 279.2C465.02 290.61 459.41 303.18 452.64 316.32C438.13 345.38 420.08 372.52 398.89 397.15C389.78 407.54 379.96 417.3 369.5 426.34C323.4 467.21 264.04 489.94 202.44 490.34L202.25 490.34C200.31 490.54 198.19 490.54 196.26 490.54C184.41 490.56 172.58 489.66 160.87 487.83C88.37 476.62 48.53 429.63 32.87 365.63C29.7 352.73 27.57 339.61 26.49 326.38C17.79 235.11 47.76 121.22 96.67 26.1C98.81 22.12 103.42 20.15 107.77 21.35C112.13 22.55 115.06 26.61 114.86 31.13C109.44 130.32 107.69 362.34 215.78 316.52C284.78 289.97 331.17 224.69 333.54 150.81C334.29 132.53 347.77 117.27 365.83 114.27C407.59 107.7 475.66 114.07 489 219.84Z" />
	<g id="Layer">
		<path id="Layer" class="shp1" d="M398.89 397.15C389.78 407.54 379.96 417.3 369.5 426.34C367.29 423.99 365.7 421.14 364.86 418.02C359.29 391.8 344.64 368.37 323.49 351.9C317.75 348.04 314.51 341.4 315 334.5C315.48 327.6 319.61 321.48 325.82 318.45C332.04 315.42 339.4 315.93 345.14 319.8C371.37 338.69 390.34 365.99 398.89 397.15Z" />
		<path id="Layer" class="shp1" d="M202.44 490.34L202.25 490.34C200.31 490.54 198.19 490.54 196.26 490.54C184.41 490.56 172.58 489.66 160.87 487.83C161.09 484.94 162.03 482.15 163.57 479.71C179.72 455.65 185.63 426.15 180.01 397.73C177.88 387.26 184.63 377.04 195.09 374.91C205.56 372.77 215.77 379.52 217.91 390C224.84 424.22 219.36 459.8 202.44 490.34Z" />
		<path id="Layer" class="shp1" d="M91.65 353.06C76.13 361.25 58.92 365.68 41.38 366.01C38.48 366.01 35.58 365.82 32.87 365.63C29.7 352.73 27.57 339.61 26.49 326.38C28.35 326.16 30.24 326.22 32.09 326.57C46.63 328.49 61.41 325.71 74.25 318.65C80.46 314.91 88.24 314.96 94.4 318.77C100.56 322.59 104.07 329.53 103.49 336.76C102.91 343.98 98.34 350.28 91.65 353.06Z" />
		<path id="Layer" class="shp1" d="M469.66 279.2C465.02 290.61 459.41 303.18 452.64 316.32C450 315.25 447.67 313.52 445.87 311.3C428.21 289.17 406.74 270.37 382.46 255.8C373.48 250.27 370.6 238.55 375.98 229.48C381.35 220.41 393.01 217.33 402.18 222.54C427.58 237.66 450.37 256.79 469.66 279.2Z" />
	</g>
</svg>