<?xml version="1.0" encoding="iso-8859-1"?>
<!-- Generator: Adobe Illustrator 19.0.0, SVG Export Plug-In . SVG Version: 6.00 Build 0)  -->
<svg version="1.1" id="Capa_1" xmlns="http://www.w3.org/2000/svg" xmlns:xlink="http://www.w3.org/1999/xlink" x="0px" y="0px"
	 viewBox="0 0 512 512" style="enable-background:new 0 0 512 512;" xml:space="preserve">
<path style="fill:#FFDA2D;" d="M285.521,182h-60c-59.399,0-59.399,90,0,90h60C344.92,272,344.92,182,285.521,182z M285.521,242h-60
	c-19.799,0-19.799-30,0-30h60c8.401,0,15,6.599,15,15C300.521,235.399,293.922,242,285.521,242z"/>
<g>
	<path style="fill:#FF9800;" d="M323.621,151.81l45.952-38.555c45.518-38.248,103.41,30.708,57.847,68.936l-45.952,38.555
		C335.907,259.004,278.19,189.926,323.621,151.81z M388.851,136.238l-45.952,38.555c-15.184,12.726,4.129,35.721,19.292,22.969
		l45.952-38.555v-0.015C423.339,146.529,404.008,123.528,388.851,136.238z"/>
	<path style="fill:#FF9800;" d="M396.541,76.458l30.757-53.749c29.774-51.351,107.706-6.597,77.944,45.015l-30.757,53.749
		C445.183,172.217,366.468,128.609,396.541,76.458z M453.27,37.724l-30.742,53.749c-9.953,17.217,16.194,32.038,25.972,15
		l30.757-53.763v-0.015C489.191,35.581,463.166,20.588,453.27,37.724z"/>
</g>
<g>
	<path style="fill:#FFDA2D;" d="M136.605,220.745L90.638,182.19c-45.424-38.11,12.103-107.188,57.847-68.95l45.952,38.584
		C240.014,190.028,182.137,259.015,136.605,220.745z M109.915,159.192v0.015l45.967,38.569
		c15.096,12.712,34.501-10.283,19.277-22.969l-45.952-38.584C113.887,123.457,94.795,146.592,109.915,159.192z"/>
	<path style="fill:#FFDA2D;" d="M36.556,121.473l-29.8-53.536C-23.01,16.319,54.976-28.444,84.7,22.908l29.8,53.565
		C144.148,127.814,66.312,173.002,36.556,121.473z M32.742,52.908v0.015l29.8,53.55c9.82,17.112,35.878,2.179,25.986-14.985
		L58.714,37.922C48.909,20.907,22.752,35.699,32.742,52.908z"/>
</g>
<path style="fill:#FF9800;" d="M285.521,272h-30v-30h30c8.401,0,15-6.601,15-15c0-8.401-6.599-15-15-15h-30v-30h30
	C344.92,182,344.92,272,285.521,272z"/>
<path style="fill:#FFDA2D;" d="M255.521,242c-74.399,0-135,60.599-135,135c0,74.399,60.601,135,135,135s135-60.601,135-135
	C390.521,302.599,329.92,242,255.521,242z"/>
<path style="fill:#FFBC33;" d="M390.521,377c0,74.399-60.601,135-135,135V242C329.92,242,390.521,302.599,390.521,377z"/>
<path style="fill:#FFA81F;" d="M255.521,482c-57.891,0-105-47.109-105-105s47.109-105,105-105s105,47.109,105,105
	S313.411,482,255.521,482z"/>
<path style="fill:#FF9800;" d="M360.521,377c0-57.891-47.109-105-105-105v210C313.411,482,360.521,434.891,360.521,377z"/>
<path style="fill:#FFDA2D;" d="M272.921,448.4c-0.601,0.3-1.5,0.599-2.401,0.899V467c0,9.899-7.5,15-15,15c-7.5,0-15-5.101-15-15
	v-17.701c-7.8-2.699-15.3-6.899-22.2-13.5c-14.101-13.799,6.599-35.4,21-21.599c5.999,5.7,11.699,8.101,16.199,8.101
	c17.401,0,23.401-30.3,0-30.3c-50.4,0-62.1-70.201-15.3-87.301h0.3V287c0-9.901,7.5-15,15-15c7.5,0,15,5.099,15,15v17.399
	c9.901,3.301,19.2,9.901,27.299,19.801c12.902,15-10.199,34.501-22.798,19.2c-7.202-8.701-14.101-11.7-19.501-11.7
	c-16.8,0.3-23.101,30.3,0,30.3C304.421,362,317.921,429.5,272.921,448.4z"/>
<g>
	<path style="fill:#FFBC33;" d="M272.921,448.4c-0.601,0.3-1.5,0.599-2.401,0.899V467c0,9.899-7.5,15-15,15v-59.7
		c17.401,0,23.401-30.3,0-30.3v-30C304.421,362,317.921,429.5,272.921,448.4z"/>
	<path style="fill:#FFBC33;" d="M255.521,331.7V272c7.5,0,15,5.099,15,15v17.399c9.901,3.301,19.2,9.901,27.299,19.801
		c12.902,15-10.199,34.501-22.798,19.2C267.82,334.699,260.921,331.7,255.521,331.7z"/>
</g>
<g>
</g>
<g>
</g>
<g>
</g>
<g>
</g>
<g>
</g>
<g>
</g>
<g>
</g>
<g>
</g>
<g>
</g>
<g>
</g>
<g>
</g>
<g>
</g>
<g>
</g>
<g>
</g>
<g>
</g>
</svg>
