<svg xmlns="http://www.w3.org/2000/svg" viewBox="0 0 281 281" width="281" height="281">
	<style>
		tspan { white-space:pre }
		.shp0 { fill: #835626 } 
		.shp1 { fill: #684622 } 
	</style>
	<g id="Layer">
		<g id="Layer">
			<path id="Layer" class="shp0" d="M253.78 122.51C244.12 122.51 236.27 114.67 236.27 105.01L236.27 26.25C236.27 21.41 232.36 17.5 227.52 17.5L52.51 17.5C47.67 17.5 43.76 21.41 43.76 26.25L43.76 105.01C43.76 114.67 35.91 122.51 26.25 122.51L17.5 122.51L17.5 262.53C17.5 272.2 25.34 280.03 35 280.03L245.02 280.03C254.69 280.03 262.53 272.2 262.53 262.53L262.53 122.51L253.78 122.51Z" />
			<g id="Layer">
				<path id="Layer" class="shp1" d="M70.01 210.02L17.5 262.53C17.5 272.2 25.34 280.03 35 280.03L105.01 280.03L105.01 210.02L70.01 210.02L70.01 210.02ZM175.02 210.02L175.02 280.03L245.03 280.03C254.69 280.03 262.53 272.2 262.53 262.53L210.02 210.02L175.02 210.02L175.02 210.02Z" />
			</g>
			<path id="Layer" class="shp1" d="M236.27 52.51L43.76 52.51L43.76 61.26L236.27 61.26L236.27 52.51ZM236.27 96.26L43.76 96.26L43.76 105.01L236.27 105.01L236.27 96.26ZM17.5 140.01L17.5 148.77L262.53 148.77L262.53 140.01L17.5 140.01ZM17.5 192.52L262.53 192.52L262.53 183.77L17.5 183.77L17.5 192.52ZM17.5 236.27L262.53 236.27L262.53 227.52L17.5 227.52L17.5 236.27Z" />
			<path id="Layer" class="shp1" d="M140.76 96.26L148.77 96.26L148.77 280.03L140.76 280.03L140.76 96.26Z" />
			<path id="Layer" class="shp1" d="M96.26 0L183.77 0C193.43 0 201.27 7.83 201.27 17.5L201.27 43.75C201.27 53.42 158.43 96.26 148.77 96.26L131.26 96.26C121.6 96.26 78.76 53.42 78.76 43.75L78.76 17.5C78.76 7.83 86.6 0 96.26 0Z" />
			<path id="Layer" class="shp1" d="M117.52 17.5L162.53 17.5C169.43 17.5 175.03 22.2 175.03 27.99L175.03 35C175.03 40.8 150.73 70.01 143.83 70.01L136.24 70.01C129.35 70.01 105.04 40.8 105.04 35L105.04 28C105.01 22.21 110.61 17.5 117.52 17.5Z" />
			<g id="Layer">
				<path id="Layer" class="shp1" d="M105.01 236.27L105.01 227.52L52.51 227.52L43.76 236.27L105.01 236.27Z" />
				<path id="Layer" class="shp1" d="M227.52 227.52L175.02 227.52L175.02 236.27L236.27 236.27L227.52 227.52Z" />
			</g>
			<path id="Layer" class="shp1" d="M131.26 96.26L140.75 96.26L140.75 280.03L131.26 280.03L131.26 96.26Z" />
			<g id="Layer">
				<path id="Layer" class="shp1" d="M140.76 227.52L148.77 227.52L148.77 236.27L140.76 236.27L140.76 227.52Z" />
				<path id="Layer" class="shp1" d="M140.76 183.77L148.77 183.77L148.77 192.52L140.76 192.52L140.76 183.77Z" />
				<path id="Layer" class="shp1" d="M140.76 140.01L148.77 140.01L148.77 148.77L140.76 148.77L140.76 140.01Z" />
				<path id="Layer" class="shp1" d="M140.76 96.26L148.77 96.26L148.77 105.01L140.76 105.01L140.76 96.26Z" />
			</g>
			<g id="Layer">
				<path id="Layer" class="shp0" d="M260.95 269.7L210.02 218.77L183.77 218.77L183.77 280.03L245.02 280.03C252.12 280.03 258.21 275.78 260.95 269.7ZM70.01 218.77L19.08 269.7C21.82 275.78 27.91 280.03 35 280.03L96.26 280.03L96.26 218.77L70.01 218.77L70.01 218.77Z" />
			</g>
		</g>
	</g>
</svg>