<svg xmlns="http://www.w3.org/2000/svg" viewBox="0 0 512 512" width="512" height="512">
	<style>
		tspan { white-space:pre }
		.shp0 { fill: #c7b958 } 
		.shp1 { fill: #b9ab4b } 
	</style>
	<path id="Layer" fill-rule="evenodd" class="shp0" d="M387.95 445.44C299.2 534.19 155.31 534.19 66.56 445.44C-22.19 356.69 -22.19 212.8 66.56 124.05C155.31 35.31 299.19 35.31 387.94 124.06C476.69 212.81 476.69 356.69 387.95 445.44ZM366.03 423.52C442.67 346.88 442.67 222.62 366.03 145.97C289.38 69.33 165.12 69.33 88.48 145.97C11.84 222.62 11.83 346.89 88.47 423.53C165.11 500.17 289.38 500.16 366.03 423.52Z" />
	<path id="Layer" fill-rule="evenodd" class="shp1" d="M373.33 430.83C292.65 511.51 161.85 511.52 81.17 430.83C0.48 350.15 0.49 219.35 81.17 138.67C161.85 57.99 292.65 57.99 373.33 138.67C454.01 219.35 454.01 350.15 373.33 430.83ZM358.73 416.22C431.33 343.62 431.33 225.89 358.72 153.28C286.11 80.67 168.38 80.67 95.78 153.27C23.16 225.88 23.16 343.61 95.78 416.22C168.39 488.84 286.12 488.84 358.73 416.22Z" />
</svg>