<svg xmlns="http://www.w3.org/2000/svg" viewBox="0 0 512 512" width="512" height="512">
	<style>
		tspan { white-space:pre }
		.shp0 { fill: #998f98 } 
		.shp1 { fill: #acacac } 
		.shp2 { fill: #b8b1b6 } 
		.shp3 { fill: #ada6ab } 
		.shp4 { fill: #b5afb3 } 
		.shp5 { fill: #aba4aa } 
		.shp6 { fill: #c7b958 } 
		.shp7 { fill: #b9ab4b } 
	</style>
	<path id="Layer" class="shp0" d="M489.69 143.2L465.49 118.99L415.96 132.26L407.1 165.33C407.97 165.56 408.9 165.57 409.8 165.33L487.35 144.55C488.25 144.31 489.05 143.83 489.69 143.2Z" />
	<path id="Layer" class="shp1" d="M379.7 96.01L392.97 46.48L368.77 22.27C368.13 22.91 367.66 23.71 367.42 24.61L346.64 102.16C346.4 103.06 346.4 103.99 346.64 104.87L379.7 96.01Z" />
	<path id="Layer" class="shp2" d="M442.5 33.21L451.36 0.14C450.49 -0.09 449.56 -0.1 448.66 0.14L371.11 20.92C370.21 21.16 369.41 21.64 368.77 22.27L392.97 46.48L442.5 33.21Z" />
	<path id="Layer" class="shp3" d="M442.5 33.21L478.76 69.46L511.82 60.6C511.59 59.73 511.13 58.92 510.47 58.26L453.7 1.49C453.04 0.84 452.23 0.38 451.36 0.14L442.5 33.21Z" />
	<path id="Layer" class="shp4" d="M478.76 69.46L465.49 118.99L489.69 143.2C490.33 142.56 490.8 141.76 491.04 140.86L511.82 63.31C512.06 62.41 512.06 61.48 511.82 60.6L478.76 69.46Z" />
	<path id="Layer" class="shp5" d="M478.76 69.46L442.5 33.21L392.97 46.48L379.7 96.01L415.96 132.26L465.49 118.99L478.76 69.46Z" />
	<path id="Layer" fill-rule="evenodd" class="shp6" d="M387.95 445.44C299.2 534.19 155.31 534.19 66.56 445.44C-22.19 356.69 -22.19 212.8 66.56 124.05C155.31 35.31 299.19 35.31 387.94 124.06C476.69 212.81 476.69 356.69 387.95 445.44ZM366.03 423.52C442.67 346.88 442.67 222.62 366.03 145.97C289.38 69.33 165.12 69.33 88.48 145.97C11.84 222.62 11.83 346.89 88.47 423.53C165.11 500.17 289.38 500.16 366.03 423.52Z" />
	<path id="Layer" fill-rule="evenodd" class="shp7" d="M373.33 430.83C292.65 511.51 161.85 511.52 81.17 430.83C0.48 350.15 0.49 219.35 81.17 138.67C161.85 57.99 292.65 57.99 373.33 138.67C454.01 219.35 454.01 350.15 373.33 430.83ZM358.73 416.22C431.33 343.62 431.33 225.89 358.72 153.28C286.11 80.67 168.38 80.67 95.78 153.27C23.16 225.88 23.16 343.61 95.78 416.22C168.39 488.84 286.12 488.84 358.73 416.22Z" />
	<path id="Layer" class="shp6" d="M336.81 102.14L348.78 66.25C349.99 62.6 354.62 61.52 357.33 64.23L447.77 154.67C450.48 157.38 449.4 162.01 445.75 163.22L409.86 175.19L336.81 102.14Z" />
</svg>