<svg id="Capa_1" enable-background="new 0 0 499.029 499.029" height="512" viewBox="0 0 499.029 499.029" width="512" xmlns="http://www.w3.org/2000/svg"><g><g><g><path d="m29.991 248.573c-3.247 0-6.239-2.124-7.195-5.397l-20.58-70.392c-2.909-9.949-2.955-20.48-.135-30.456l.482-1.706c2.173-7.684 8.093-13.439 15.837-15.394 7.743-1.954 15.687.301 21.246 6.034l16.149 16.651c2.884 2.974 2.812 7.722-.162 10.605s-7.722 2.811-10.605-.162l-16.148-16.651c-2.567-2.647-5.617-2.235-6.808-1.934s-4.07 1.383-5.074 4.933l-.482 1.706c-2.053 7.259-2.019 14.923.098 22.164l20.579 70.392c1.163 3.976-1.118 8.141-5.094 9.303-.703.206-1.412.304-2.108.304z" fill="#685e68"/></g></g><g><g><path d="m15.363 343.105-4.216 11.348c-10.213 27.492-10.093 57.757.337 85.167 2.336 6.138 8.22 10.194 14.787 10.194h116.734c6.837 0 12.921-4.337 15.149-10.801l.655-3.264c2-9.962 11.949-16.205 21.789-13.672l102.116 26.28c2.476.637 4.995 1.118 7.543 1.317 1.205.094 2.413.141 3.623.141h72.624c35.506 0 70.156-10.903 99.265-31.234l7.823-5.464c23.534-16.438 31.978-47.335 20.073-73.458l-372.341-62.813z" fill="#554e56"/></g></g><g><g><g><path d="m493.666 339.658-30.259-5.104v5.061l.259.044c11.904 26.122 3.461 57.02-20.073 73.458l-7.823 5.464c-29.109 20.332-63.758 31.234-99.265 31.234h30c35.506 0 70.156-10.903 99.265-31.234l7.823-5.464c23.534-16.439 31.977-47.337 20.073-73.459z" fill="#433f43"/></g></g></g><g><g><path d="m15.363 343.105-4.338-14.46c-8.98-29.935-4.246-62.31 12.932-88.419 7.473-11.358 11.455-45.581 11.455-59.177v-16.637c0-10.678 7.079-20.063 17.347-22.997l39.322-11.235c26.016-7.433 48.234-24.476 62.155-47.677l12.62-21.034c4.562-7.603 12.779-12.255 21.645-12.255 12.249 0 22.73 8.793 24.859 20.856l20.008 113.382c2.562 14.518 11.818 47.903 24.977 54.549l119.133 60.168c8.24 4.162 17.527 5.792 26.692 4.686l53.127-6.412c13.287-1.604 26.103 5.501 31.783 17.619l2.492 5.316c6.421 13.699 2.016 30.033-10.423 38.645-25.134 17.4-54.976 26.722-85.545 26.722h-127.68c-20.118 0-40.031-4.039-58.558-11.878l-57.544-24.346c-22.763-9.63-47.55-13.498-72.165-11.26z" fill="#7a6d79"/></g></g><g><g><g><path d="m491.57 319.377-2.492-5.316c-5.68-12.118-18.496-19.222-31.783-17.619l-15.211 1.836c7.324 2.805 13.507 8.343 16.994 15.783l2.492 5.316c6.421 13.699 2.016 30.033-10.424 38.645-25.134 17.4-54.976 26.722-85.545 26.722h30c30.569 0 60.411-9.322 85.545-26.722 12.44-8.612 16.846-24.946 10.424-38.645z" fill="#685e68"/></g></g></g><g><g><path d="m88.819 234.785c1.744-6.6 1.832-13.528.254-20.17l-18.585-78.265-17.73 5.066c-10.267 2.934-17.346 12.318-17.346 22.997v16.637c0 13.596-3.982 47.818-11.455 59.177-10.826 16.456-16.704 35.4-17.327 54.655l27.388 3.906c20.817 2.969 40.561-10.118 45.933-30.448z" fill="#433f43"/></g></g><g><g><path d="m377.477 298.168-119.133-60.168c-13.159-6.646-22.415-40.031-24.977-54.549l-20.008-113.381c-2.129-12.062-12.61-20.856-24.858-20.856-8.867 0-17.083 4.652-21.645 12.255l-12.62 21.034c-.664 1.106-1.363 2.185-2.064 3.263l22.439 134.375c2.848 17.052 12.536 32.201 26.822 41.937l82.128 55.971c22.241 15.158 51.63 14.616 73.298-1.351l23.4-17.245c-.94-.398-1.869-.823-2.782-1.285z" fill="#b5adb6"/></g></g><g><g><path d="m377.477 298.168-119.133-60.168c-13.159-6.646-22.415-40.031-24.977-54.549l-20.008-113.381c-2.128-12.063-12.61-20.856-24.858-20.856-8.312 0-16.052 4.088-20.747 10.863 9.486 2.514 16.954 10.327 18.727 20.375l20.375 115.461c2.609 14.784 12.035 48.782 25.435 55.549l121.318 61.271c.93.47 1.876.903 2.83 1.309l-14.866 10.956c5.363-2.017 10.51-4.784 15.283-8.301l23.4-17.245c-.937-.397-1.866-.822-2.779-1.284z" fill="#a79ba7"/></g></g><g><g><g><path d="m55.913 449.814v-26.367c0-4.142-3.357-7.5-7.5-7.5s-7.5 3.358-7.5 7.5v26.367z" fill="#433f43"/></g></g><g><g><path d="m91.717 449.814v-26.367c0-4.142-3.357-7.5-7.5-7.5s-7.5 3.358-7.5 7.5v26.367z" fill="#433f43"/></g></g><g><g><path d="m127.522 449.814v-26.367c0-4.142-3.357-7.5-7.5-7.5-4.142 0-7.5 3.358-7.5 7.5v26.367z" fill="#433f43"/></g></g></g><g fill="#918291"><path d="m226.739 145.892c-16.103 18.093-48.724 25.573-59.915 27.63l2.52 15.088c12.959-1.44 40.965-6.567 60.752-23.697z"/><path d="m216.714 89.081c-11.978 20.868-44.372 32.215-57.956 36.133l2.547 15.255c13.641-2.792 41.385-10.711 59.152-30.176z"/><path d="m236.4 196.789c-16.899 18.855-51.539 26.367-60.806 28.033 1.256 5.112 3.133 10.012 5.572 14.604 13.859-1.818 41.76-7.689 60.787-25.568-2.222-5.684-4.088-11.633-5.553-17.069z"/><path d="m272.15 244.973-13.806-6.973c-.166-.084-.329-.191-.494-.283-13.247 15.416-37.167 24.665-50.017 28.724l16.734 11.404c15.882-5.448 35.673-15.395 47.583-32.872z"/><path d="m316.447 267.345-13.961-7.051c-10.843 18.644-36.058 31.762-48.777 37.412l15.466 10.54c15.953-7.174 36.974-20.091 47.272-40.901z"/></g></g></svg>