<svg height="512pt" viewBox="-37 0 512 512.002" width="512pt" xmlns="http://www.w3.org/2000/svg"><path d="m255.316406 491.277344c0-11.445313-13.792968-20.722656-30.808594-20.722656-17.015624 0-30.808593 9.277343-30.808593 20.722656 0 11.445312 13.792969 20.722656 30.808593 20.722656 17.015626 0 30.808594-9.277344 30.808594-20.722656zm0 0" fill="#b4d2d7"/><path d="m193.699219 491.277344c0-9.246094 9-17.074219 21.429687-19.746094.007813-.324219.015625-.648438.015625-.976562 0-22.890626-24.792969-41.445313-55.375-41.445313s-55.375 18.554687-55.375 41.445313c0 22.890624 24.792969 41.445312 55.375 41.445312 14.488281 0 27.671875-4.164062 37.542969-10.980469-2.304688-2.902343-3.613281-6.21875-3.613281-9.742187zm0 0" fill="#9bb9c3"/><path d="m118.609375 380.929688c12.394531 21.460937 24.269531 14.605468 36.660156 36.070312 2.667969 4.621094 4.207031 8.5625 5.109375 12.117188 8.363282.070312 16.28125 1.515624 23.367188 4.066406.191406-2.128906.308594-4.402344.308594-6.878906 0-32.488282-17.976563-32.488282-17.976563-64.972657 0-10.433593 1.859375-17.511719 4.375-23.394531-10.019531-10.703125-19.824219-9.292969-29.972656-26.871094-12.390625-21.464844-.515625-28.320312-12.910157-49.785156-12.390624-21.460938-24.265624-14.605469-36.65625-36.066406-12.390624-21.460938-.515624-28.320313-12.90625-49.78125-12.390624-21.460938-24.265624-14.605469-36.65625-36.066406l-3.878906-6.71875c-5.542968-9.601563-17.824218-12.890626-27.429687-7.347657-9.601563 5.542969-12.894531 17.824219-7.347657 27.429688l3.878907 6.71875c12.390625 21.460937.515625 28.316406 12.902343 49.777343 12.390626 21.460938 24.265626 14.605469 36.660157 36.066407 12.390625 21.460937.515625 28.320312 12.90625 49.78125 12.390625 21.460937 24.265625 14.605469 36.65625 36.070312 12.394531 21.464844.519531 28.320313 12.910156 49.785157zm0 0" fill="#72e4a0"/><path d="m427.214844 101.085938c-10.589844-6.117188-24.128906-2.488282-30.242188 8.101562l-4.277344 7.410156c-13.664062 23.660156-26.757812 16.101563-40.417968 39.761719-13.664063 23.664063-.566406 31.226563-14.230469 54.886719-13.664063 23.664062-26.753906 16.105468-40.417969 39.769531-13.664062 23.667969-.570312 31.226563-14.234375 54.890625-11.445312 19.824219-22.488281 17.746094-33.800781 30.453125 2.867188 6.203125 5.074219 13.589844 5.074219 24.976563 0 32.484374-17.972657 32.484374-17.972657 64.96875 0 26.835937 12.253907 31.519531 16.523438 50.644531 13.042969-23.148438.335938-30.796875 13.871094-54.238281 13.664062-23.667969 26.757812-16.109376 40.417968-39.773438 13.664063-23.664062.570313-31.222656 14.234376-54.890625 13.664062-23.664063 26.757812-16.105469 40.417968-39.769531 13.664063-23.664063.570313-31.222656 14.234375-54.886719 13.660157-23.664063 26.753907-16.105469 40.417969-39.769531 13.660156-23.660156.566406-31.222656 14.226562-54.882813l4.277344-7.410156c6.113282-10.589844 2.488282-24.128906-8.101562-30.242187zm0 0" fill="#72e4a0"/><path d="m184.054688 426.304688c0 2.480468-.117188 4.75-.308594 6.878906 18.574218 6.691406 31.394531 20.910156 31.394531 37.371094 0 .328124-.003906.652343-.015625.976562-.0625.015625-.121094.03125-.183594.046875 3.011719-.664063 6.226563-1.023437 9.566406-1.023437 14.632813 0 26.871094 6.863281 30.015626 16.0625-1.636719-27.890626-17.828126-29.464844-17.828126-60.3125 0-32.488282 17.972657-32.488282 17.972657-64.972657s-17.972657-32.484375-17.972657-64.972656c0-32.484375 17.972657-32.484375 17.972657-64.972656 0-32.484375-17.972657-32.484375-17.972657-64.96875s17.972657-32.484375 17.972657-64.964844c0-32.484375-17.972657-32.484375-17.972657-64.964844v-10.167969c0-14.535156-11.785156-26.320312-26.320312-26.320312s-26.320312 11.785156-26.320312 26.320312v10.167969c0 32.484375-17.976563 32.484375-17.976563 64.964844 0 32.484375 17.976563 32.484375 17.976563 64.96875s-17.976563 32.484375-17.976563 64.96875 17.976563 32.484375 17.976563 64.972656c0 32.484375-17.976563 32.484375-17.976563 64.972657 0 32.484374 17.976563 32.484374 17.976563 64.96875zm0 0" fill="#a4f7c5"/><path d="m210.375 90.386719c-4.269531 0-7.726562 3.460937-7.726562 7.726562v346.222657c7.804687 7.144531 12.496093 16.269531 12.496093 26.21875 0 .328124-.007812.652343-.015625.976562-.066406.015625-.125.03125-.1875.046875 1.027344-.226563 2.085938-.402344 3.160156-.558594v-372.90625c0-4.265625-3.460937-7.726562-7.726562-7.726562zm0 0" fill="#72e4a0"/><path d="m389.8125 165.867188c-3.699219-2.132813-8.421875-.867188-10.554688 2.828124l-141.476562 245.046876c-.679688 3.613281-1.085938 7.722656-1.085938 12.5625 0 6.792968.785157 12.160156 2.027344 16.707031l153.917969-266.589844c2.132813-3.695313.867187-8.421875-2.828125-10.554687zm0 0" fill="#6ad394"/><path d="m43.605469 183.433594c-3.695313 2.132812-4.960938 6.859375-2.828125 10.554687l137.058594 237.386719c2.023437.523438 4 1.121094 5.910156 1.808594.191406-2.128906.308594-4.398438.308594-6.878906 0-9.019532-1.386719-15.53125-3.390626-20.933594l-126.503906-219.109375c-2.132812-3.695313-6.859375-4.960938-10.554687-2.828125zm0 0" fill="#6ad394"/><path d="m267.027344 446.472656c-2.378906 0-4.707032.15625-6.984375.429688-.304688 8.832031.546875 16.960937-6.824219 30.042968-.285156-1.261718-.601562-2.457031-.945312-3.601562 1.125 3.746094 1.945312 8.046875 2.25 13.277344-.011719-.03125-.027344-.0625-.039063-.09375.535156 1.527344.832031 3.113281.832031 4.75 0 6.402344-4.316406 12.128906-11.101562 15.929687 6.644531 3.042969 14.453125 4.796875 22.8125 4.796875 24.175781 0 43.773437-14.671875 43.773437-32.765625 0-18.097656-19.597656-32.765625-43.773437-32.765625zm0 0" fill="#87a0af"/></svg>