<svg xmlns="http://www.w3.org/2000/svg" viewBox="0 0 512 512" width="512" height="512">
	<style>
		tspan { white-space:pre }
		.shp0 { fill: #9a5b20 } 
		.shp1 { fill: #89501a } 
	</style>
	<path id="Layer" fill-rule="evenodd" class="shp0" d="M348.21 255.45C338.03 245.3 331.2 233.06 327.7 220.1L193.94 353.39L238.39 397.69C248.5 407.75 248.5 424.07 238.39 434.14C228.29 444.21 211.91 444.21 201.81 434.14L157.35 389.84L123.38 423.7L167.83 467.99C177.94 478.06 177.94 494.38 167.83 504.45C157.73 514.52 141.35 514.52 131.25 504.45L86.8 460.15L44.16 502.63C34.06 512.7 17.68 512.7 7.58 502.63C-2.53 492.57 -2.53 476.25 7.58 466.18L291.11 183.65C278.11 180.16 265.83 173.36 255.65 163.21C224.58 132.25 224.58 81.88 255.64 50.92C284.33 22.33 329.62 20.16 360.85 44.37C364.61 36.73 369.65 29.56 376.01 23.22C407.08 -7.74 457.63 -7.74 488.7 23.22C519.77 54.18 519.77 104.55 488.7 135.51C482.33 141.85 475.14 146.87 467.48 150.62C491.76 181.74 489.59 226.86 460.9 255.45C429.83 286.41 379.28 286.41 348.21 255.45ZM288.04 130.93C301.25 144.09 322.73 144.09 335.94 130.93C349.15 117.77 349.15 96.36 335.94 83.2C322.73 70.04 301.24 70.04 288.04 83.2C274.83 96.36 274.83 117.77 288.04 130.93ZM408.4 103.23C421.61 116.39 443.1 116.39 456.31 103.23C469.51 90.07 469.51 68.66 456.31 55.5C443.1 42.34 421.61 42.34 408.4 55.5C395.2 68.66 395.2 90.07 408.4 103.23ZM380.61 223.17C393.81 236.33 415.3 236.33 428.51 223.17C441.71 210.01 441.72 188.6 428.51 175.44C415.3 162.28 393.81 162.28 380.61 175.44C367.4 188.6 367.4 210.01 380.61 223.17Z" />
	<g id="Layer">
		<path id="Layer" class="shp1" d="M367.47 162.3C354.26 175.46 354.26 196.87 367.47 210.03C369.73 212.29 372.25 214.15 374.92 215.63C367.81 202.8 369.69 186.31 380.6 175.44C391.54 164.53 408.16 162.67 421.05 169.83C419.55 167.13 417.67 164.59 415.37 162.3C402.16 149.14 380.67 149.14 367.47 162.3L367.47 162.3Z" />
		<path id="Layer" class="shp1" d="M274.9 70.06C261.69 83.22 261.69 104.63 274.9 117.79C277.17 120.05 279.68 121.91 282.35 123.4C275.24 110.57 277.13 94.07 288.04 83.2C298.98 72.3 315.59 70.43 328.49 77.59C326.99 74.89 325.1 72.35 322.8 70.06C309.59 56.9 288.1 56.9 274.9 70.06L274.9 70.06Z" />
		<path id="Layer" class="shp1" d="M184.47 343.91L193.96 353.37L327.7 220.08C325.69 216.58 323.98 212.95 322.55 209.24C321.21 205.75 316.74 204.77 314.09 207.41L184.47 336.59C182.45 338.61 182.45 341.89 184.47 343.91L184.47 343.91Z" />
		<path id="Layer" class="shp1" d="M395.26 42.36C382.06 55.52 382.06 76.93 395.26 90.09C397.53 92.35 400.05 94.21 402.72 95.7C395.61 82.87 397.49 66.37 408.4 55.5C419.34 44.6 435.96 42.74 448.85 49.89C447.35 47.19 445.46 44.65 443.17 42.36C429.96 29.2 408.47 29.2 395.26 42.36L395.26 42.36Z" />
		<path id="Layer" class="shp1" d="M475.56 122.37C470.62 127.29 465.18 131.42 459.41 134.77C456.83 136.27 456.02 139.62 457.68 142.09C478.35 172.93 475.06 215.11 447.76 242.31C418.88 271.09 373.17 273.1 341.92 248.37C343.85 250.82 345.94 253.19 348.21 255.45C379.28 286.41 429.83 286.41 460.9 255.45C489.59 226.86 491.76 181.74 467.48 150.62C475.14 146.87 482.33 141.85 488.7 135.51C519.77 104.55 519.77 54.18 488.7 23.22C486.5 21.03 484.2 19.02 481.82 17.14C506.44 48.27 504.37 93.66 475.56 122.37L475.56 122.37Z" />
		<path id="Layer" class="shp1" d="M86.88 460.19L77.3 450.64C75.29 448.64 72.03 448.64 70.01 450.64L31.02 489.5C23.23 497.26 11.7 499.03 2.2 494.82C3.62 498.01 5.71 500.99 8.5 503.51C18.8 512.82 34.73 512.03 44.57 502.23L86.79 460.15L86.88 460.19Z" />
		<path id="Layer" class="shp1" d="M155.59 455.8C164.79 465.92 164.49 481.55 154.69 491.31C144.59 501.38 128.21 501.38 118.11 491.31L118.08 491.33L131.25 504.45C141.35 514.52 157.73 514.52 167.83 504.45C177.94 494.38 177.94 478.06 167.83 467.99L155.59 455.8Z" />
		<path id="Layer" class="shp1" d="M157.41 389.85L147.86 380.34C145.84 378.33 142.59 378.33 140.57 380.34L113.91 406.9C111.89 408.92 111.89 412.2 113.91 414.22L123.4 423.68L157.36 389.84L157.41 389.85Z" />
		<path id="Layer" class="shp1" d="M226.16 385.49C235.35 395.61 235.05 411.24 225.25 421C215.15 431.07 198.77 431.07 188.67 421L188.64 421.02L201.81 434.14C211.91 444.21 228.29 444.21 238.39 434.14C248.5 424.07 248.5 407.75 238.39 397.68L226.16 385.49Z" />
	</g>
</svg>