<svg height="511pt" viewBox="0 0 511.99957 511" width="511pt" xmlns="http://www.w3.org/2000/svg"><path d="m319.300781 60.199219c-7.800781-6.601563-46.199219 17.699219-55.199219 13.199219-15.902343-8.101563-33.898437-12.898438-53.101562-12.898438-19.199219 0-37.199219 4.796875-53.097656 12.898438-9 4.5-47.398438-19.800782-55.199219-13.199219l24.898437-39c24.902344-13.199219 53.398438-20.699219 83.398438-20.699219s58.5 7.5 83.402344 20.699219zm0 0" fill="#c6715a"/><path d="m319.300781 60.199219c-7.800781-6.601563-46.199219 17.699219-55.199219 13.199219-15.902343-8.101563-33.898437-12.898438-53.101562-12.898438v-60c30 0 58.5 7.5 83.402344 20.699219zm0 0" fill="#b35f49"/><path d="m365.71875 88.847656c-17.574219-29.601562-43.152344-53.015625-71.332031-67.785156l-30.234375 52.363281c19.960937 9.933594 37.554687 25.890625 49.382812 45.554688l35.324219 27.925781c-3.632813-9.4375 21.964844-49.464844 16.859375-58.058594zm0 0" fill="#99503d"/><path d="m365.71875 88.847656-52.183594 30.132813c11.121094 18.5 17.464844 43.664062 17.464844 62.519531l30 30 30-30c0-32.15625-8.90625-65.082031-25.28125-92.652344zm0 0" fill="#b35f49"/><path d="m331 181.496094c0 3.335937 0 64.246094 0 61l30 30 30-30c0-3.332032 0-64.242188 0-61zm0 0" fill="#99503d"/><path d="m331 242.496094h60v120h-60zm0 0" fill="#b35f49"/><path d="m324.699219 332.496094h-113.695313c-16.570312 0-30 13.429687-30 30 0 16.566406 13.429688 30 30 30l23.699219 30 29.996094-30 72.601562-30zm0 0" fill="#b35f49"/><path d="m414.789062 332.496094h-90l-60 60 44.652344 30 45.347656-30 72.421876-30zm0 0" fill="#99503d"/><path d="m482 332.496094h-67.210938l-60 60 73.710938 30 53.5-30c16.570312 0 30-13.433594 30-30 0-16.570313-13.429688-30-30-30zm0 0" fill="#b35f49"/><path d="m352.210938 392.496094h129.789062c16.570312 0 30 13.429687 30 30 0 16.566406-13.429688 30-30 30l-38.4375 30-31.351562-30-72.421876-30zm0 0" fill="#c6715a"/><path d="m262.214844 392.496094h89.996094l60 60-75.585938 30-14.414062-30-72.417969-30zm0 0" fill="#b35f49"/><path d="m322.300781 452.496094-66.296875 30-23.699218-30-72.601563-30 12.601563-30h90zm0 0" fill="#c6715a"/><path d="m82.214844 392.496094h90l60 60-47.460938 30-42.539062-30-72.421875-30zm0 0" fill="#b35f49"/><path d="m30.003906 392.496094h52.210938l60 60-62.460938 30-49.75-30c-16.570312 0-29.99999975-13.433594-29.99999975-30 0-16.570313 13.42968775-30 29.99999975-30zm0 0" fill="#c6715a"/><path d="m144.792969 452.496094h-114.789063c-16.570312 0-29.99999975 13.429687-29.99999975 30 0 16.566406 13.42968775 30 29.99999975 30h54.789063l72.421875-30zm0 0" fill="#b35f49"/><path d="m234.792969 452.496094h-90l-60 60h90l72.421875-30zm0 0" fill="#99503d"/><path d="m337.300781 482.496094-72.601562 30h-89.996094l60-60h89.996094zm0 0" fill="#b35f49"/><path d="m414.789062 452.496094h-90l-60 60h90l72.421876-30zm0 0" fill="#99503d"/><path d="m482 452.496094h-67.210938l-60 60h127.210938c16.570312 0 30-13.433594 30-30 0-16.570313-13.429688-30-30-30zm0 0" fill="#b35f49"/><path d="m127.617188 21.0625c-28.078126 14.71875-53.667969 38.03125-71.332032 67.785156l10.148438 27.828125c2.898437-9.816406 36.871094 10.898438 42.039062 2.304688 11.71875-19.492188 29.238282-35.53125 49.378906-45.554688zm0 0" fill="#b35f49"/><path d="m56.28125 88.847656c-16.347656 27.539063-25.277344 60.453125-25.277344 92.652344l30 30 30-30c0-18.515625 6.148438-43.699219 17.464844-62.519531zm0 0" fill="#c6715a"/><path d="m118.484375 294.175781-27.480469-41.21875v-71.460937h-60v71.460937l-28.480468 41.21875c-4.597657 6.898438-2.738282 16.203125 4.160156 20.800781 7.019531 4.652344 16.28125 2.632813 20.800781-4.160156l18.519531-26.277344v32.957032c0 8.292968 6.710938 15 15 15 8.292969 0 15-6.707032 15-15v-32.957032l17.519532 26.277344c4.523437 6.792969 13.785156 8.808594 20.800781 4.160156 6.898437-4.597656 8.757812-13.898437 4.160156-20.800781zm0 0" fill="#b35f49"/></svg>