<?xml version="1.0" encoding="iso-8859-1"?>
<!-- Generator: Adobe Illustrator 19.0.0, SVG Export Plug-In . SVG Version: 6.00 Build 0)  -->
<svg version="1.1" id="Capa_1" xmlns="http://www.w3.org/2000/svg" xmlns:xlink="http://www.w3.org/1999/xlink" x="0px" y="0px"
	 viewBox="0 0 512.002 512.002" style="enable-background:new 0 0 512.002 512.002;" xml:space="preserve">
<g>
	<path style="fill:#EBAF4B;" d="M214.535,72.151c-4.563,0-8.263-3.7-8.263-8.263V32.902c0-4.563,3.7-8.263,8.263-8.263
		s8.263,3.7,8.263,8.263v30.986C222.798,68.451,219.098,72.151,214.535,72.151z"/>
	<path style="fill:#EBAF4B;" d="M77.7,127.429c-2.114,0-4.232-0.807-5.846-2.421l-11.89-11.898
		c-3.224-3.228-3.224-8.461,0.004-11.688c3.228-3.22,8.461-3.224,11.688,0.004l11.89,11.898c3.224,3.228,3.224,8.461-0.004,11.688
		C81.929,126.622,79.814,127.429,77.7,127.429z"/>
	<path style="fill:#EBAF4B;" d="M140.237,84.864c-3.248,0-6.326-1.929-7.642-5.116l-7.896-19.14
		c-1.743-4.22,0.266-9.05,4.487-10.789c4.216-1.755,9.046,0.266,10.789,4.487l7.896,19.14c1.743,4.22-0.266,9.05-4.487,10.789
		C142.355,84.662,141.286,84.864,140.237,84.864z"/>
	<path style="fill:#EBAF4B;" d="M288.728,85.146c-1.053,0-2.122-0.206-3.155-0.633c-4.22-1.743-6.221-6.576-4.474-10.793
		l8.017-19.362c1.743-4.22,6.568-6.221,10.793-4.474c4.22,1.743,6.221,6.576,4.474,10.793l-8.017,19.362
		C295.05,83.222,291.972,85.146,288.728,85.146z"/>
</g>
<g>
	<path style="fill:#F5DCB4;" d="M214.535,487.363c-4.563,0-8.263-3.7-8.263-8.263v-30.47c0-4.563,3.7-8.263,8.263-8.263
		s8.263,3.7,8.263,8.263v30.47C222.798,483.664,219.098,487.363,214.535,487.363z"/>
	<path style="fill:#F5DCB4;" d="M366.447,416.176c-2.074,0-4.148-0.775-5.749-2.328l-13.411-13
		c-3.28-3.179-3.361-8.408-0.186-11.684c3.179-3.284,8.416-3.353,11.684-0.186l13.411,13c3.28,3.179,3.361,8.408,0.186,11.684
		C370.76,415.337,368.606,416.176,366.447,416.176z"/>
	<path style="fill:#F5DCB4;" d="M62.623,416.176c-2.114,0-4.228-0.807-5.842-2.421c-3.228-3.228-3.228-8.461,0-11.684l14.432-14.428
		c3.228-3.228,8.457-3.228,11.684,0c3.228,3.228,3.228,8.461,0,11.684l-14.432,14.428C66.851,415.369,64.737,416.176,62.623,416.176
		z"/>
	<path style="fill:#F5DCB4;" d="M23.108,343.561c-3.244,0-6.318-1.921-7.638-5.104c-1.747-4.216,0.254-9.05,4.47-10.797
		l10.942-4.535c4.204-1.751,9.046,0.25,10.797,4.47c1.747,4.216-0.254,9.05-4.47,10.797l-10.942,4.535
		C25.234,343.355,24.161,343.561,23.108,343.561z"/>
	<path style="fill:#F5DCB4;" d="M296.753,462.752c-3.244,0-6.318-1.925-7.638-5.104l-7.561-18.257
		c-1.747-4.216,0.254-9.05,4.47-10.797c4.224-1.755,9.05,0.258,10.797,4.47l7.561,18.257c1.747,4.216-0.254,9.05-4.47,10.797
		C298.875,462.546,297.806,462.752,296.753,462.752z"/>
	<path style="fill:#F5DCB4;" d="M405.963,343.557c-1.053,0-2.122-0.206-3.159-0.633l-11.37-4.708
		c-4.216-1.747-6.217-6.58-4.47-10.797c1.739-4.212,6.56-6.225,10.797-4.47l11.37,4.708c4.216,1.747,6.217,6.58,4.47,10.797
		C412.285,341.632,409.206,343.557,405.963,343.557z"/>
	<path style="fill:#F5DCB4;" d="M132.317,462.752c-1.053,0-2.122-0.206-3.159-0.633c-4.216-1.747-6.217-6.58-4.47-10.797
		l7.964-19.229c1.747-4.212,6.564-6.225,10.797-4.47c4.216,1.747,6.217,6.581,4.47,10.797l-7.964,19.229
		C138.635,460.828,135.561,462.752,132.317,462.752z"/>
	<circle style="fill:#F5DCB4;" cx="214.531" cy="256.001" r="198.31"/>
</g>
<path style="fill:#EBC9A0;" d="M280.639,388.208c-109.524,0-198.311-88.787-198.311-198.311c0-37.821,10.597-73.164,28.97-103.237
	c-57.013,34.833-95.074,97.638-95.074,169.341c0,109.524,88.787,198.311,198.311,198.311c71.703,0,134.508-38.06,169.34-95.074
	C353.802,377.611,318.46,388.208,280.639,388.208z"/>
<path style="fill:#FFC850;" d="M502.302,158.557l-99.425,17.546c-3.666,0.647-7.331-1.214-8.894-4.592
	c-5.794-12.523-13.739-27.27-21.285-37.799c18.727-20.756,16.816-42.746,14.709-52.396c-0.617-2.826-3.434-4.544-6.244-3.861
	l-56.379,13.699C293.262,70.019,255.342,57.69,214.535,57.69c-77.39,0-144.426,44.33-177.101,108.983l-23.72,9.824
	c-3.537,1.465-5.66,5.244-4.786,8.971c1.888,8.046,6.296,17.153,11.771,24.742c-13.992,6.152-18.828,15.988-20.49,22.452
	c-0.906,3.522,1.219,7.142,4.704,8.183c77.105,23.019,186.718,25.396,217.599,25.527c5.998,0.025,10.865-9.578,16.811-10.371
	c123.944-16.526,170.457-34.565,170.457-34.565l92.521,16.327c5.06,0.893,9.699-2.999,9.699-8.137v-62.932
	C512.001,161.557,507.362,157.664,502.302,158.557z"/>
<path style="fill:#EBAF4B;" d="M4.918,240.846c27.413,8.183,58.933,13.753,89.565,17.546c-7.857-21.348-12.155-44.418-12.155-68.494
	c0-37.781,10.578-73.086,28.914-103.139c-31.423,19.22-57.117,46.888-73.808,79.914l-23.72,9.824
	c-3.537,1.465-5.66,5.244-4.786,8.972c1.888,8.046,6.296,17.152,11.771,24.742c-13.992,6.152-18.828,15.99-20.489,22.453
	C-0.696,236.186,1.433,239.806,4.918,240.846z"/>
<path style="fill:#FAEBC8;" d="M272.723,404.738c-3.244,0-6.322-1.925-7.638-5.108l-3.635-8.779
	c-1.747-4.216,0.254-9.046,4.474-10.793c4.208-1.751,9.05,0.258,10.793,4.474l3.635,8.779c1.747,4.216-0.254,9.046-4.474,10.793
	C274.845,404.532,273.776,404.738,272.723,404.738z"/>
<path style="fill:#FFDC64;" d="M159.991,132.577c-3.244,0-6.322-1.925-7.638-5.108l-3.635-8.779
	c-1.747-4.216,0.254-9.046,4.474-10.793c4.216-1.747,9.046,0.254,10.793,4.474l3.635,8.779c1.747,4.216-0.254,9.046-4.474,10.793
	C162.113,132.372,161.044,132.577,159.991,132.577z"/>
<g>
	<path style="fill:#FAEBC8;" d="M74.069,322.452c-3.244,0-6.322-1.924-7.638-5.108c-1.747-4.216,0.254-9.046,4.474-10.793
		l8.779-3.635c4.216-1.755,9.046,0.258,10.793,4.474s-0.254,9.05-4.474,10.793l-8.779,3.635
		C76.191,322.246,75.122,322.452,74.069,322.452z"/>
	<path style="fill:#FAEBC8;" d="M156.348,404.738c-1.053,0-2.122-0.206-3.155-0.633c-4.22-1.747-6.221-6.576-4.474-10.793
		l3.635-8.779c1.739-4.216,6.568-6.225,10.793-4.474c4.22,1.747,6.221,6.576,4.474,10.793l-3.635,8.779
		C162.67,402.813,159.591,404.738,156.348,404.738z"/>
</g>
<path style="fill:#FFDC64;" d="M269.079,132.577c-1.053,0-2.122-0.206-3.155-0.633c-4.22-1.747-6.221-6.576-4.474-10.793
	l3.635-8.779c1.743-4.22,6.576-6.221,10.793-4.474c4.22,1.747,6.221,6.576,4.474,10.793l-3.635,8.779
	C275.402,130.653,272.323,132.577,269.079,132.577z"/>
<path style="fill:#FAEBC8;" d="M355.001,322.452c-1.053,0-2.122-0.206-3.155-0.633l-8.779-3.635
	c-4.22-1.743-6.221-6.576-4.474-10.793c1.743-4.216,6.576-6.229,10.793-4.474l8.779,3.635c4.22,1.747,6.221,6.576,4.474,10.793
	C361.323,320.527,358.245,322.452,355.001,322.452z"/>
<path style="fill:#4B3F4E;" d="M90.591,198.16L90.591,198.16c-9.127,0-16.526-7.399-16.526-16.526v-8.263
	c0-9.127,7.399-16.526,16.526-16.526l0,0c9.127,0,16.526,7.399,16.526,16.526v8.263C107.117,190.762,99.718,198.16,90.591,198.16z"
	/>
<circle style="fill:#FFFFFF;" cx="90.591" cy="173.371" r="8.263"/>
<g>
	<path style="fill:#EBAF4B;" d="M239.324,256.001c6.535-0.871,12.736-1.748,18.845-2.625c10.23-18.976,12.734-38.974,6.686-48.337
		c-2.292-3.55-9.251-14.347-93.914-6.847c-4.543,0.403-7.904,4.414-7.5,8.961c0.403,4.543,4.402,7.916,8.961,7.5
		c32.168-2.844,70.594-3.421,78.873,0.097c1.741,5.615-1.267,25.306-15.784,42.93C236.733,256.833,237.999,256.178,239.324,256.001z
		"/>
	<path style="fill:#EBAF4B;" d="M502.303,158.557l-99.425,17.546c0,0,0.571,0.022,0,0c14.877,0.574,25.461,12.934,25.461,23.578
		c0,9.869-7.619,18.29-18.398,21.784l92.362,16.299c5.06,0.893,9.699-2.999,9.699-8.137v-62.932
		C512.001,161.557,507.362,157.664,502.303,158.557z"/>
</g>
<g>
</g>
<g>
</g>
<g>
</g>
<g>
</g>
<g>
</g>
<g>
</g>
<g>
</g>
<g>
</g>
<g>
</g>
<g>
</g>
<g>
</g>
<g>
</g>
<g>
</g>
<g>
</g>
<g>
</g>
</svg>
