<svg height="511pt" viewBox="0 0 511 511.99988" width="511pt" xmlns="http://www.w3.org/2000/svg"><path d="m182.925781 402.421875s.914063 66.378906-24.960937 101.597656c-7.773438 10.578125-23.566406 10.582031-31.789063.351563-8.351562-10.398438-17.808593-25.25-20.9375-42.015625-6.019531-32.238281-16.167969-39-16.167969-39s-6.765624-10.148438-39.003906-16.171875c-16.757812-3.128906-31.609375-12.578125-42.003906-20.925782-10.453125-8.402343-9.988281-24.363281.894531-32.199218 35.359375-25.464844 101.042969-24.558594 101.042969-24.558594zm0 0" fill="#a6b6c4"/><path d="m155.113281 395.210938s.910157 66.378906-24.964843 101.597656c-1.625 2.210937-3.605469 3.953125-5.789063 5.246094.609375.792968 1.214844 1.566406 1.816406 2.316406 8.222657 10.230468 24.015625 10.226562 31.789063-.351563 25.875-35.21875 24.960937-101.597656 24.960937-101.597656zm0 0" fill="#96a9ba"/><path d="m263.316406 71.234375s-79.476562-9.699219-138.542968 42.574219c-6.035157 5.339844-4.855469 15.066406 2.328124 18.722656 17.359376 8.832031 45.945313 25.226562 59.589844 43.40625zm0 0" fill="#96a9ba"/><path d="m137.707031 213.941406s-40.3125 9.917969-66.484375 39.511719c-5.707031 6.453125-3.5625 16.601563 4.296875 20.121094 9.242188 4.140625 20.828125 11.425781 29.160157 23.851562zm0 0" fill="#a6b6c4"/><path d="m298.484375 374.714844s-9.917969 40.3125-39.515625 66.484375c-6.449219 5.707031-16.597656 3.566406-20.121094-4.296875-4.136718-9.242188-11.421875-20.824219-23.851562-29.15625zm0 0" fill="#69829a"/><path d="m313.445312 37.453125c50.988282-29.320313 100.214844-42.402344 137.15625-35.757813 2.507813.449219 4.515626 2.351563 5.148438 4.828126l7.144531 27.933593c1.625 6.378907 8.476563 9.878907 14.597657 7.460938l17.144531-6.757813c3.125-1.234375 6.679687.101563 8.226562 3.085938 20.710938 39.738281 6.960938 104.144531-33.640625 170.40625l-75.847656 27.382812-113.652344-113.652344zm0 0" fill="#96a9ba"/><path d="m122.898438 389.527344c-50.675782-50.675782-9.40625-174.109375 92.179687-275.695313 31.628906-31.625 65.371094-57.402343 98.367187-76.378906 3.882813 33.515625 16.289063 66.230469 37.226563 94.628906zm0 0" fill="#69829a"/><path d="m502.863281 38.246094c-.390625-.746094-.902343-1.390625-1.5-1.914063-.300781-.261719-.621093-.496093-.960937-.699219-.339844-.203124-.695313-.371093-1.0625-.511718-.367188-.136719-.75-.242188-1.136719-.316406-.191406-.03125-.390625-.058594-.585937-.078126-.984376-.089843-2.003907.046876-2.984376.433594l-5.335937 2.101563c8.894531 39.621093-6.210937 94.535156-40.679687 150.785156-7.605469 12.417969-16.167969 24.894531-25.609376 37.289063l46.214844-16.683594c16-26.117188 29.511719-54.261719 37.234375-83.992188 8.800781-33.902344 8.054688-64.058594-3.59375-86.414062zm0 0" fill="#69829a"/><path d="m469.222656 208.652344c-18.3125 29.894531-42.089844 60.152344-70.632812 88.695312-101.582032 101.582032-225.019532 142.851563-275.691406 92.179688 104.441406-207.902344 227.773437-257.441406 227.773437-257.441406 5.855469 7.949218 12.390625 15.566406 19.585937 22.765624 28.171876 28.167969 62.699219 46.105469 98.964844 53.800782zm0 0" fill="#a6b6c4"/><path d="m418.925781 69.0625c-1.976562 0-3.953125-.753906-5.460937-2.261719l-10.492188-10.492187c-3.019531-3.015625-3.019531-7.910156 0-10.925782 3.015625-3.015624 7.910156-3.015624 10.925782 0l10.492187 10.492188c3.015625 3.015625 3.015625 7.910156 0 10.925781-1.507813 1.507813-3.488281 2.261719-5.464844 2.261719zm0 0" fill="#333941"/><path d="m440.78125 200.34375c-17.085938 25.855469-38.164062 51.765625-62.796875 76.398438-88.324219 88.324218-193.160156 131.039062-252.332031 107.378906-.917969 1.800781-1.839844 3.582031-2.757813 5.40625 19.003907 19.003906 48.238281 25.074218 82.714844 19.886718 61.3125-9.226562 117.699219-45.449218 163.910156-85.113281 38.667969-33.1875 73.054688-72.144531 99.699219-115.648437-9.628906-2.042969-19.136719-4.820313-28.4375-8.308594zm0 0" fill="#96a9ba"/><path d="m421.207031 244.898438c-11.46875 7.304687-26.714843 18.53125-43.976562 35.105468-6.125 5.882813-4.117188 16.144532 3.789062 19.242188 19.574219 7.660156 54.476563 16.253906 86.671875-1.757813 6.277344-3.511719 10.109375-10.234375 10.003906-17.425781-.109374-7.433594-2.429687-17.480469-11.21875-28.066406-11.144531-13.417969-30.558593-16.46875-45.269531-7.097656zm0 0" fill="#69829a"/></svg>