<svg xmlns="http://www.w3.org/2000/svg" viewBox="0 0 192 192" width="192" height="192">
	<defs>
		<linearGradient id="grd1" gradientUnits="userSpaceOnUse"  x1="70.343" y1="130.161" x2="137.09" y2="63.414">
			<stop offset="0" stop-color="#34cdfa"  />
			<stop offset="1" stop-color="#e8d9f1"  />
		</linearGradient>
	</defs>
	<style>
		tspan { white-space:pre }
		.shp0 { fill: #ccf2fe } 
		.shp1 { fill: #99e6fd } 
		.shp2 { fill: url(#grd1) } 
		.shp3 { fill: #ffffff } 
	</style>
	<path id="Layer" class="shp0" d="M158.13 62.06C142.38 41.82 108.59 37.39 107.16 37.21C105.81 37.04 104.44 37.22 103.17 37.73C101.91 38.24 100.79 39.07 99.94 40.13C99.08 41.19 98.51 42.45 98.28 43.8C98.05 45.14 98.17 46.52 98.63 47.81L110.53 81.55C110.88 82.54 111.42 83.45 112.13 84.23C112.83 85.01 113.68 85.65 114.63 86.1C115.57 86.55 116.6 86.82 117.65 86.87C118.7 86.93 119.75 86.78 120.74 86.43L154.48 74.52C155.67 74.1 156.75 73.4 157.62 72.48C158.49 71.56 159.13 70.44 159.49 69.23C159.85 68.01 159.91 66.73 159.67 65.48C159.44 64.24 158.91 63.06 158.13 62.06L158.13 62.06Z" />
	<path id="Layer" class="shp0" d="M69.42 102.93L48.82 73.68C48.04 72.56 46.98 71.67 45.75 71.08C44.52 70.48 43.16 70.22 41.8 70.3C40.44 70.38 39.12 70.81 37.97 71.54C36.83 72.28 35.88 73.29 35.24 74.49C34.55 75.76 18.59 105.87 25.96 130.43C26.34 131.64 27 132.73 27.88 133.64C28.76 134.54 29.84 135.23 31.03 135.64C32.22 136.05 33.49 136.18 34.74 136.01C35.99 135.85 37.19 135.39 38.23 134.68L67.48 114.08C68.34 113.47 69.07 112.7 69.64 111.81C70.2 110.93 70.58 109.94 70.76 108.9C70.94 107.87 70.91 106.81 70.68 105.78C70.45 104.76 70.02 103.79 69.42 102.93L69.42 102.93Z" />
	<path id="Layer" class="shp1" d="M38.96 130.43C31.59 105.87 47.56 75.76 48.24 74.49C48.28 74.42 48.32 74.34 48.37 74.27C48.41 74.19 48.45 74.12 48.5 74.05C48.54 73.98 48.59 73.91 48.64 73.83C48.68 73.76 48.73 73.69 48.78 73.62C47.99 72.52 46.93 71.64 45.71 71.06C44.48 70.48 43.12 70.22 41.77 70.3C40.42 70.39 39.11 70.82 37.96 71.55C36.82 72.29 35.88 73.3 35.24 74.49C34.56 75.76 18.59 105.87 25.96 130.43C26.34 131.64 27 132.73 27.88 133.64C28.76 134.54 29.84 135.23 31.03 135.64C32.22 136.05 33.5 136.18 34.75 136.01C36 135.85 37.19 135.39 38.23 134.68L40.42 133.14C40.25 132.94 40.1 132.73 39.95 132.52C39.81 132.31 39.68 132.09 39.55 131.86C39.43 131.63 39.32 131.4 39.22 131.16C39.12 130.92 39.04 130.68 38.96 130.43Z" />
	<path id="Layer" class="shp2" d="M190.29 142.73C190.09 142.43 189.85 142.17 189.57 141.94C189.3 141.71 189 141.52 188.67 141.37C188.35 141.22 188.01 141.11 187.65 141.05C187.3 141 186.94 140.98 186.59 141.02C186.27 141.05 154.63 144.09 136.59 127.81C128.24 120.27 124 109.57 124 96C124 48.72 103.14 25.64 85.63 14.62C82.74 12.8 79.75 11.16 76.66 9.71C73.57 8.25 70.39 6.99 67.15 5.93C63.91 4.87 60.6 4.01 57.25 3.35C53.9 2.69 50.51 2.24 47.11 2C46.7 1.99 46.3 2.04 45.91 2.16C45.52 2.27 45.15 2.44 44.81 2.66C44.47 2.89 44.16 3.16 43.91 3.47C43.65 3.79 43.44 4.14 43.29 4.51C29.66 38.57 28.41 68.05 39.58 92.11C52.36 119.67 80.87 140.5 126.74 155.79C142.27 160.97 159 172.32 159 185C159 185.9 159.3 186.78 159.86 187.48C160.42 188.19 161.2 188.69 162.08 188.89C162.96 189.1 163.88 189.01 164.7 188.62C165.51 188.24 166.18 187.6 166.58 186.79C168.29 183.36 167.56 178.56 166.78 173.49C166.64 172.78 166.53 172.06 166.43 171.34C166.33 170.63 166.24 169.91 166.18 169.18C166.11 168.46 166.07 167.74 166.04 167.02C166.01 166.29 165.99 165.57 166 164.84C182.24 163.09 190.22 147.49 190.57 146.79C190.73 146.47 190.85 146.13 190.92 145.78C190.99 145.43 191.01 145.08 190.99 144.72C190.96 144.36 190.89 144.01 190.77 143.68C190.65 143.34 190.49 143.02 190.29 142.73L190.29 142.73Z" />
	<path id="Layer" class="shp3" d="M64 48C59.58 48 56 44.42 56 40C56 35.58 59.58 32 64 32C68.42 32 72 35.58 72 40C72 44.42 68.42 48 64 48Z" />
	<g id="Layer">
	</g>
</svg>