<svg xmlns="http://www.w3.org/2000/svg" viewBox="0 0 512 512" width="512" height="512">
	<style>
		tspan { white-space:pre }
		.shp0 { fill: #e6eaee } 
		.shp1 { fill: #cdd3da } 
		.shp2 { fill: #aab5bd } 
		.shp3 { fill: #ffd160 } 
		.shp4 { fill: #f7b64d } 
	</style>
	<path id="Layer" class="shp0" d="M111.01 80.57L148.22 154.97L73.82 117.76L111.01 80.57Z" />
	<path id="Layer" class="shp1" d="M73.82 117.76L148.22 154.97L36.63 154.95L73.82 117.76Z" />
	<path id="Layer" class="shp2" d="M111.01 80.57L148.22 154.97L148.21 43.37L111.01 80.57Z" />
	<path id="Layer" class="shp0" d="M36.63 154.95L36.63 108.46L73.82 117.76L36.63 154.95Z" />
	<path id="Layer" class="shp1" d="M73.82 117.76L69.17 75.92L111.01 80.57L73.82 117.76Z" />
	<g id="Layer">
		<path id="Layer" class="shp2" d="M36.63 108.46L73.82 117.76L69.17 75.92L36.63 108.46Z" />
		<path id="Layer" class="shp2" d="M101.72 43.36L111.01 80.57L69.17 75.92L101.72 43.36Z" />
	</g>
	<path id="Layer" class="shp0" d="M148.21 43.37L101.72 43.36L111.01 80.57L148.21 43.37Z" />
	<g id="Layer">
		<path id="Layer" class="shp3" d="M157.32 150.3L148.24 150.3L148.22 97.2L157.33 97.2L157.32 150.3Z" />
		<path id="Layer" class="shp3" d="M143.56 164.06L90.48 164.06L90.46 154.97L143.57 154.97L143.56 164.06Z" />
		<path id="Layer" fill-rule="evenodd" class="shp3" d="M430.48 437.36C352.2 515.63 224.79 515.63 146.51 437.35C68.21 359.05 68.24 231.68 146.52 153.4C224.8 75.12 352.17 75.08 430.47 153.39C508.75 231.67 508.76 359.08 430.48 437.36ZM172.34 179.22C108.29 243.27 108.26 347.47 172.32 411.54C236.37 475.58 340.6 475.58 404.65 411.53C468.71 347.47 468.71 243.25 404.66 179.2C340.6 115.13 236.4 115.16 172.34 179.22Z" />
	</g>
	<path id="Layer" fill-rule="evenodd" class="shp4" d="M413.78 170.08C482.96 239.26 482.96 351.43 413.76 420.63C344.56 489.84 232.39 489.83 163.21 420.65C94.02 351.45 94.01 239.29 163.21 170.09C232.42 100.88 344.58 100.88 413.78 170.08ZM404.66 179.19C340.49 115.03 236.49 115.07 172.34 179.21C108.2 243.35 108.15 347.37 172.32 411.53C236.49 475.7 340.5 475.67 404.65 411.52C468.8 347.37 468.83 243.36 404.66 179.19Z" />
	<path id="Layer" class="shp3" d="M116.11 164.14L157.44 122.81L169.62 134.99L128.29 176.32L116.11 164.14Z" />
	<g id="Layer">
	</g>
</svg>