<svg xmlns="http://www.w3.org/2000/svg" viewBox="0 0 64 64" width="64" height="64">
	<style>
		tspan { white-space:pre }
		.shp0 { fill: #e2a467 } 
		.shp1 { fill: #c0baba } 
		.shp2 { fill: #d4cbcc } 
		.shp3 { fill: #ede4e5 } 
		.shp4 { fill: #05d9e3 } 
		.shp5 { fill: #f0ca8a } 
		.shp6 { fill: #b27846 } 
		.shp7 { fill: #05bbc4 } 
		.shp8 { fill: #e1ad71 } 
		.shp9 { fill: #fffffd } 
	</style>
	<g id="_20-mail_bottle">
		<path id="Layer" class="shp0" d="M56.13 7.87L59.05 10.78L62.7 7.13C62.8 7.03 62.87 6.92 62.92 6.79C62.97 6.67 63 6.54 63 6.4C63 6.26 62.97 6.13 62.92 6.01C62.87 5.88 62.8 5.77 62.7 5.67L58.33 1.3C58.23 1.2 58.12 1.13 58 1.08C57.87 1.03 57.74 1 57.6 1C57.47 1 57.33 1.03 57.21 1.08C57.08 1.13 56.97 1.2 56.87 1.3L53.22 4.95L56.13 7.87Z" />
		<path id="Layer" class="shp1" d="M51.77 4.89L49.47 7.01L49.58 7.13L53.22 10.78L56.13 7.87L53.22 4.95L53.19 4.92C53.1 4.83 52.99 4.75 52.87 4.7C52.75 4.65 52.62 4.62 52.49 4.62C52.36 4.61 52.22 4.64 52.1 4.68C51.98 4.73 51.87 4.8 51.77 4.89L51.77 4.89Z" />
		<path id="Layer" class="shp1" d="M53.22 10.78L56.87 14.42L56.99 14.53L59.11 12.23C59.2 12.13 59.27 12.02 59.32 11.9C59.36 11.78 59.39 11.65 59.38 11.51C59.38 11.38 59.35 11.25 59.3 11.13C59.25 11.01 59.17 10.9 59.08 10.81L59.05 10.78L56.13 7.87L53.22 10.78Z" />
		<path id="Layer" class="shp2" d="M2.21 47.22C1.83 47.6 1.52 48.06 1.31 48.56C1.11 49.06 1 49.6 1 50.14C1 50.68 1.11 51.21 1.31 51.71C1.52 52.21 1.83 52.67 2.21 53.05L10.95 61.79C11.33 62.18 11.79 62.48 12.29 62.69C12.79 62.89 13.32 63 13.86 63C14.4 63 14.94 62.89 15.44 62.69C15.94 62.48 16.4 62.18 16.78 61.79L17.51 61.06C17.51 61.06 14.6 61.06 13.14 59.61L4.39 50.86C4.27 50.73 4.16 50.6 4.06 50.46C3.95 50.32 3.86 50.17 3.77 50.02C3.68 49.87 3.61 49.71 3.54 49.55C3.47 49.39 3.41 49.23 3.36 49.06C3.29 48.85 3.24 48.64 3.19 48.43C3.14 48.22 3.09 48.01 3.06 47.79C3.02 47.58 3 47.36 2.98 47.14C2.96 46.93 2.94 46.71 2.94 46.49L2.21 47.22Z" />
		<path id="Layer" class="shp3" d="M16.05 33.37L24.32 25.1C24.63 24.79 24.97 24.49 25.32 24.22C25.68 23.95 26.05 23.7 26.44 23.48C26.82 23.25 27.22 23.06 27.63 22.88C28.05 22.71 28.47 22.57 28.9 22.45L31.85 21.64C32.25 21.53 32.64 21.4 33.02 21.25C33.4 21.09 33.77 20.92 34.13 20.72C34.49 20.52 34.83 20.3 35.17 20.06C35.5 19.82 35.82 19.56 36.12 19.28L49.47 7.01L49.58 7.13L53.22 10.78L56.87 14.42L56.99 14.53L44.72 27.88C44.44 28.18 44.18 28.5 43.94 28.83C43.7 29.17 43.48 29.51 43.28 29.87C43.08 30.23 42.91 30.6 42.75 30.98C42.6 31.36 42.47 31.75 42.36 32.15L41.55 35.1C41.43 35.53 41.29 35.95 41.12 36.37C40.95 36.78 40.75 37.18 40.52 37.56C40.3 37.95 40.05 38.32 39.78 38.68C39.51 39.03 39.21 39.37 38.9 39.68L30.63 47.95L25.64 52.94L17 51.43L16.97 51.4L27.71 40.66L27.72 40.66L30.63 37.74L39.38 29L48.85 19.52C49.66 18.72 49.33 17.09 48.12 15.88C46.91 14.67 45.28 14.34 44.48 15.15L26.26 33.37L23.34 36.28L23.34 36.29L11.68 47.95L9.5 50.13L9 50.04L3.36 49.06C3.29 48.85 3.24 48.64 3.19 48.43C3.14 48.22 3.09 48.01 3.06 47.79C3.02 47.58 3 47.36 2.98 47.14C2.96 46.93 2.94 46.71 2.94 46.49L16.05 33.37Z" />
		<path id="Layer" class="shp4" d="M4.39 50.86L13.14 59.61C14.6 61.06 17.51 61.06 17.51 61.06L25.64 52.94L17 51.43L16.97 51.4L13.87 54.5C13.06 55.31 11.43 54.98 10.22 53.78C9.01 52.58 8.69 50.94 9.5 50.13L9 50.04L3.36 49.06C3.41 49.23 3.47 49.39 3.54 49.55C3.61 49.71 3.69 49.87 3.77 50.02C3.86 50.17 3.95 50.32 4.06 50.46C4.16 50.6 4.27 50.73 4.39 50.86L4.39 50.86Z" />
		<path id="Layer" class="shp0" d="M45.21 18.79C46.42 20 48.05 20.33 48.85 19.52C49.66 18.72 49.33 17.09 48.12 15.88C46.92 14.67 45.29 14.35 44.48 15.15C43.68 15.96 44.01 17.58 45.21 18.79Z" />
		<path id="Layer" class="shp0" d="M23.34 36.29L27.71 40.66L27.72 40.66L30.63 37.74L26.26 33.37L23.34 36.29Z" />
		<path id="Layer" class="shp5" d="M26.26 33.37L30.63 37.74L39.38 29L48.85 19.52C48.05 20.33 46.41 20 45.21 18.79C44.01 17.58 43.67 15.95 44.48 15.15L26.26 33.37Z" />
		<path id="Layer" class="shp5" d="M9.5 50.13C8.69 50.94 9.02 52.57 10.22 53.78C11.42 54.99 13.06 55.31 13.87 54.5L16.97 51.4L27.71 40.66L23.34 36.29L11.68 47.95L9.5 50.13Z" />
		<path id="Layer" class="shp6" d="M45.21 18.79C45 18.61 44.81 18.4 44.65 18.17C44.5 17.94 44.37 17.7 44.27 17.43C44.18 17.17 44.12 16.9 44.09 16.62C44.06 16.35 44.07 16.07 44.12 15.79C44.39 15.75 44.67 15.74 44.95 15.76C45.23 15.79 45.5 15.85 45.76 15.95C46.02 16.04 46.27 16.17 46.5 16.33C46.73 16.49 46.94 16.67 47.12 16.88C47.33 17.06 47.52 17.27 47.67 17.5C47.83 17.73 47.96 17.98 48.06 18.24C48.15 18.5 48.21 18.77 48.24 19.05C48.26 19.33 48.25 19.61 48.21 19.88C47.94 19.93 47.66 19.94 47.38 19.91C47.1 19.89 46.83 19.82 46.57 19.73C46.31 19.63 46.06 19.51 45.83 19.35C45.6 19.19 45.39 19 45.21 18.79L45.21 18.79Z" />
		<path id="Layer" class="shp7" d="M9.55 50.08L16.96 51.41L13.87 54.5C13.06 55.31 11.43 54.98 10.22 53.78C9.01 52.58 8.69 50.94 9.5 50.13L9.55 50.08Z" />
		<path id="Layer" class="shp5" d="M11.68 47.95L23.34 36.29L27.71 40.66L16.97 51.4L16.96 51.41L9.55 50.08L11.68 47.95Z" />
		<path id="Layer" class="shp6" d="M55.09 3.09L57.59 5.59C57.77 5.77 57.99 5.92 58.23 6.02C58.48 6.12 58.74 6.17 59 6.17C59.26 6.17 59.52 6.12 59.76 6.02C60.01 5.92 60.23 5.77 60.41 5.59L61.51 4.49L62.7 5.67C62.8 5.77 62.87 5.88 62.92 6.01C62.97 6.13 63 6.26 63 6.4C63 6.54 62.97 6.67 62.92 6.79C62.87 6.92 62.8 7.03 62.7 7.13L59.05 10.78L56.13 7.87L53.22 4.95L55.09 3.09Z" />
		<path id="Layer" class="shp1" d="M2.21 47.22L2.94 46.49L2.94 46.55C2.62 46.94 2.37 47.39 2.22 47.87C2.06 48.35 1.99 48.85 2.02 49.35C2.04 49.86 2.16 50.35 2.36 50.81C2.57 51.27 2.85 51.69 3.21 52.05L11.95 60.79C12.31 61.15 12.73 61.43 13.19 61.64C13.65 61.84 14.14 61.96 14.65 61.98C15.15 62.01 15.65 61.94 16.13 61.78C16.61 61.62 17.06 61.38 17.45 61.06L17.51 61.06L16.78 61.79C16.39 62.17 15.94 62.48 15.44 62.68C14.94 62.89 14.4 63 13.86 63C13.32 63 12.78 62.89 12.28 62.68C11.78 62.48 11.33 62.17 10.95 61.79L2.21 53.05C1.82 52.67 1.52 52.21 1.31 51.71C1.11 51.21 1 50.68 1 50.14C1 49.59 1.11 49.06 1.31 48.56C1.52 48.06 1.83 47.6 2.21 47.22L2.21 47.22Z" />
		<path id="Layer" class="shp8" d="M48.85 19.52L39.38 29L30.63 37.74L28.44 35.55L45.21 18.79C46.41 20 48.05 20.33 48.85 19.52L48.85 19.52Z" />
		<path id="Layer" class="shp8" d="M22.59 38.59L21.82 37.81L23.34 36.29L25.52 38.48L27.71 40.66L26.19 42.19L16.97 51.4L16.96 51.41L13.26 50.74L22.59 41.41C22.78 41.23 22.92 41.01 23.02 40.76C23.12 40.52 23.17 40.26 23.17 40C23.17 39.74 23.12 39.48 23.02 39.23C22.92 38.99 22.77 38.77 22.59 38.59L22.59 38.59Z" />
		<g id="Layer">
			<path id="Layer" class="shp6" d="M29.93 37.74L26.27 34.08L24.06 36.28L27.72 39.95L29.93 37.74Z" />
			<path id="Layer" class="shp6" d="M53.22 10.78L53.57 11.13L48.45 16.26C48.4 16.19 48.35 16.13 48.29 16.06C48.24 16 48.18 15.94 48.12 15.88C48.06 15.82 48 15.76 47.94 15.71C47.87 15.65 47.81 15.6 47.74 15.55L52.87 10.43L53.22 10.78Z" />
			<path id="Layer" fill-rule="evenodd" class="shp6" d="M15.36 37.73C15.86 37.23 16.42 36.8 17.04 36.45C17.65 36.1 18.31 35.83 19 35.65C19.69 35.48 20.39 35.4 21.1 35.41C21.81 35.42 22.51 35.53 23.19 35.73L25.9 33.02C25.95 32.97 26 32.93 26.06 32.91C26.12 32.88 26.19 32.87 26.25 32.87C26.32 32.87 26.38 32.88 26.45 32.91C26.51 32.93 26.56 32.97 26.61 33.02L30.94 37.34L30.99 37.38L31.89 37.92C32.34 38.19 32.85 38.35 33.37 38.39C33.9 38.44 34.43 38.36 34.92 38.17C35.41 37.97 35.85 37.67 36.2 37.28C36.56 36.89 36.82 36.43 36.97 35.92L37.82 30.55L38.98 29.39C38.98 29.41 38.99 29.42 38.99 29.44C38.99 29.45 38.99 29.47 38.99 29.48C38.99 29.5 38.99 29.52 38.99 29.53C38.99 29.55 38.99 29.56 38.99 29.58L37.94 36.13C37.76 36.8 37.43 37.41 36.97 37.92C36.52 38.43 35.95 38.83 35.31 39.09C34.68 39.34 33.99 39.45 33.31 39.39C32.62 39.34 31.96 39.13 31.37 38.77L30.7 38.37L28.06 41.01C28.02 41.06 27.96 41.1 27.9 41.12C27.84 41.15 27.78 41.16 27.71 41.16C27.64 41.16 27.58 41.15 27.52 41.12C27.46 41.1 27.4 41.06 27.36 41.01L23.08 36.74C23.03 36.72 22.98 36.71 22.93 36.7C22.33 36.52 21.72 36.42 21.1 36.41C20.48 36.4 19.86 36.47 19.25 36.62C18.65 36.78 18.07 37.01 17.53 37.32C16.99 37.62 16.5 38 16.06 38.44L13.94 40.56C13.56 40.95 13.23 41.37 12.94 41.83C12.66 42.28 12.43 42.77 12.26 43.28C12.09 43.79 11.98 44.32 11.93 44.86C11.88 45.39 11.9 45.93 11.97 46.46L12.12 47.5L11.67 47.95L11.33 48.3C11.31 48.28 11.29 48.26 11.28 48.24C11.26 48.21 11.24 48.19 11.23 48.17C11.22 48.14 11.21 48.12 11.2 48.09C11.19 48.07 11.19 48.04 11.18 48.02L10.98 46.6C10.9 45.99 10.88 45.38 10.94 44.76C11 44.15 11.12 43.55 11.32 42.96C11.51 42.38 11.77 41.82 12.1 41.3C12.42 40.77 12.8 40.29 13.24 39.85L15.36 37.73ZM27.72 39.95L29.92 37.75L26.26 34.08L24.05 36.29L27.72 39.95Z" />
			<path id="Layer" class="shp6" d="M55.78 7.52L56.13 7.87L56.48 8.22L53.57 11.13L53.22 10.78L52.87 10.43L55.78 7.52Z" />
		</g>
		<path id="Layer" class="shp9" d="M24.69 26.84C24.9 26.55 25.14 26.28 25.39 26.03C25.64 25.78 25.91 25.54 26.19 25.33C26.48 25.11 26.78 24.92 27.09 24.75C27.41 24.58 27.73 24.43 28.06 24.31C28.27 24.24 28.49 24.18 28.7 24.14C28.92 24.09 29.14 24.06 29.36 24.03C29.58 24.01 29.8 24 30.02 24C30.24 24 30.46 24.01 30.68 24.03C31.22 24.09 31.86 24.32 31.98 24.9C32 24.99 32 25.09 31.99 25.18C31.98 25.27 31.97 25.36 31.94 25.45C31.91 25.54 31.87 25.62 31.82 25.7C31.77 25.78 31.72 25.85 31.65 25.91C31.59 25.97 31.52 26.03 31.45 26.09C31.39 26.14 31.32 26.2 31.25 26.25C31.17 26.3 31.1 26.35 31.03 26.39C30.95 26.44 30.88 26.48 30.8 26.53C29.75 27.17 28.84 28.04 27.83 28.76C27.13 29.26 24.43 30.95 24.06 29.28C24.02 29.06 24.01 28.85 24.02 28.63C24.03 28.41 24.06 28.2 24.11 27.99C24.17 27.78 24.24 27.58 24.34 27.38C24.44 27.19 24.55 27.01 24.69 26.84L24.69 26.84Z" />
		<path id="Layer" class="shp9" d="M23.39 30C23.44 30 23.49 30 23.53 30.02C23.58 30.03 23.63 30.05 23.67 30.08C23.71 30.1 23.75 30.14 23.78 30.17C23.81 30.21 23.83 30.25 23.85 30.3C23.91 30.42 23.94 30.55 23.97 30.68C23.99 30.8 24 30.94 24 31.07C23.99 31.2 23.97 31.33 23.93 31.46C23.89 31.58 23.84 31.7 23.78 31.82C23.72 31.92 23.65 32.02 23.58 32.12C23.51 32.21 23.43 32.3 23.35 32.39C23.27 32.48 23.18 32.56 23.09 32.64C23 32.72 22.9 32.79 22.8 32.86C22.66 33 22.5 33.14 22.33 33.26C22.16 33.38 21.99 33.49 21.8 33.59C21.62 33.69 21.43 33.77 21.24 33.84C21.04 33.91 20.84 33.96 20.64 34C19.99 34 19.86 32.98 20.14 32.38C20.22 32.23 20.31 32.09 20.41 31.95C20.5 31.8 20.6 31.67 20.71 31.54C20.82 31.4 20.93 31.28 21.05 31.15C21.17 31.03 21.29 30.91 21.42 30.8C21.55 30.67 21.69 30.56 21.84 30.46C21.99 30.36 22.15 30.27 22.32 30.2C22.49 30.13 22.67 30.08 22.85 30.05C23.02 30.01 23.21 30 23.39 30L23.39 30Z" />
		<path id="Layer" class="shp9" d="M33.84 29.12C33.78 29.14 33.72 29.16 33.67 29.19C33.61 29.22 33.56 29.26 33.5 29.29C33.45 29.33 33.4 29.37 33.36 29.42C33.31 29.46 33.27 29.51 33.23 29.56C33.19 29.63 33.16 29.69 33.13 29.76C33.1 29.83 33.07 29.9 33.06 29.97C33.04 30.04 33.02 30.11 33.01 30.19C33 30.26 33 30.33 33 30.41C33.01 30.64 33.04 30.87 33.09 31.09C33.14 31.32 33.2 31.54 33.29 31.76C33.37 31.97 33.47 32.18 33.59 32.38C33.71 32.58 33.84 32.76 33.99 32.94C34.04 33.01 34.09 33.07 34.15 33.13C34.2 33.2 34.25 33.26 34.3 33.32C34.36 33.39 34.41 33.45 34.47 33.51C34.52 33.57 34.58 33.63 34.64 33.69C34.86 33.91 35.11 34.11 35.38 34.29C35.65 34.46 35.94 34.6 36.24 34.72C36.54 34.83 36.85 34.91 37.16 34.96C37.48 35.01 37.8 35.02 38.12 35C38.2 34.99 38.29 34.98 38.37 34.97C38.45 34.96 38.54 34.94 38.62 34.93C38.7 34.91 38.78 34.89 38.86 34.86C38.95 34.84 39.03 34.81 39.1 34.78C39.28 34.73 39.45 34.67 39.6 34.58C39.76 34.5 39.91 34.4 40.05 34.28C40.19 34.17 40.32 34.04 40.43 33.9C40.54 33.76 40.64 33.6 40.72 33.44C40.74 33.38 40.77 33.32 40.79 33.26C40.81 33.2 40.83 33.14 40.84 33.08C40.86 33.02 40.87 32.96 40.89 32.89C40.9 32.83 40.91 32.77 40.92 32.7C40.94 32.62 40.95 32.54 40.96 32.45C40.98 32.37 40.98 32.28 40.99 32.19C40.99 32.11 41 32.02 41 31.94C40.99 31.85 40.99 31.76 40.98 31.68C40.96 31.54 40.92 31.4 40.85 31.28C40.79 31.15 40.71 31.03 40.61 30.93C40.51 30.82 40.4 30.74 40.28 30.67C40.15 30.6 40.02 30.54 39.88 30.51C39.82 30.51 39.75 30.5 39.68 30.5C39.61 30.49 39.55 30.49 39.48 30.49C39.41 30.49 39.34 30.49 39.28 30.49C39.21 30.49 39.14 30.49 39.07 30.49C38.84 30.46 38.62 30.42 38.39 30.37C38.16 30.32 37.94 30.26 37.72 30.19C37.5 30.12 37.28 30.04 37.07 29.95C36.85 29.86 36.64 29.76 36.44 29.66C35.58 29.33 34.8 28.75 33.84 29.12L33.84 29.12Z" />
	</g>
</svg>