<svg xmlns="http://www.w3.org/2000/svg" viewBox="0 0 512 512" width="512" height="512">
	<style>
		tspan { white-space:pre }
		.shp0 { fill: #995734 } 
		.shp1 { fill: #ae6741 } 
		.shp2 { fill: #885032 } 
		.shp3 { fill: #ebebeb } 
	</style>
	<g id="flat">
		<path id="Layer" class="shp0" d="M144.4 47.87C141.56 50.71 139.3 54.08 137.77 57.79C136.23 61.51 135.44 65.48 135.44 69.5C135.44 73.52 136.23 77.5 137.77 81.21C139.3 84.92 141.56 88.3 144.4 91.14L118.44 65.18C112.7 59.44 104.92 56.21 96.8 56.21C88.69 56.21 80.91 59.44 75.17 65.18C69.43 70.91 66.21 78.7 66.21 86.81C66.21 94.92 69.43 102.71 75.17 108.44L92.48 125.75C86.74 120.01 78.96 116.79 70.84 116.79C62.73 116.79 54.95 120.01 49.21 125.75C43.47 131.49 40.25 139.27 40.25 147.38C40.25 155.5 43.47 163.28 49.21 169.02L83.82 203.63C78.09 197.89 70.3 194.67 62.19 194.67C54.07 194.67 46.29 197.89 40.56 203.63C34.82 209.37 31.59 217.15 31.59 225.27C31.59 233.38 34.82 241.16 40.56 246.9L184.49 390.83C189.78 396.12 195.58 400.88 201.8 405.04C208.03 409.2 214.64 412.74 221.56 415.6C228.47 418.46 235.65 420.64 242.99 422.1C250.34 423.56 257.8 424.3 265.29 424.3L269.87 424.3L339.1 493.53L460.25 372.38L391.02 303.15L355.46 215.66L187.67 47.87C184.82 45.03 181.45 42.77 177.74 41.24C174.03 39.7 170.05 38.91 166.03 38.91C162.01 38.91 158.04 39.7 154.32 41.24C150.61 42.77 147.24 45.03 144.4 47.87Z" />
		<g id="Layer">
			<path id="Layer" class="shp1" d="M183.34 216.61L226.61 173.35L118.44 65.18C115.6 62.33 112.22 60.08 108.51 58.54C104.8 57.01 100.82 56.21 96.8 56.21C92.79 56.21 88.81 57.01 85.1 58.54C81.38 60.08 78.01 62.33 75.17 65.18C72.33 68.02 70.07 71.39 68.54 75.1C67 78.81 66.21 82.79 66.21 86.81C66.21 90.83 67 94.81 68.54 98.52C70.07 102.23 72.33 105.6 75.17 108.44L183.34 216.61Z" />
			<path id="Layer" class="shp1" d="M96.8 303.15L140.07 259.88L83.82 203.63C80.98 200.79 77.61 198.54 73.9 197C70.19 195.46 66.21 194.67 62.19 194.67C58.17 194.67 54.19 195.46 50.48 197C46.77 198.54 43.4 200.79 40.56 203.63C37.71 206.47 35.46 209.85 33.92 213.56C32.39 217.27 31.59 221.25 31.59 225.27C31.59 229.28 32.39 233.26 33.92 236.97C35.46 240.69 37.71 244.06 40.56 246.9L96.8 303.15Z" />
		</g>
		<path id="Layer" class="shp2" d="M391.02 441.61L347.76 484.87L278.53 415.64L321.8 372.38C326.34 367.83 331.74 364.23 337.68 361.77C343.62 359.31 349.98 358.04 356.41 358.04C362.84 358.04 369.2 359.31 375.14 361.77C381.08 364.23 386.48 367.83 391.02 372.38C395.57 376.92 399.18 382.32 401.64 388.26C404.1 394.2 405.36 400.56 405.36 406.99C405.36 413.42 404.1 419.78 401.64 425.72C399.18 431.66 395.57 437.06 391.02 441.61Z" />
		<path id="Layer" class="shp2" d="M122.76 329.11L140.07 346.42L209.3 277.19C211.59 274.89 212.88 271.78 212.88 268.53C212.88 265.29 211.59 262.18 209.3 259.88C207 257.59 203.89 256.3 200.65 256.3C197.4 256.3 194.29 257.59 191.99 259.88L122.76 329.11Z" />
		<path id="Layer" class="shp2" d="M252.57 233.92L313.14 173.35C315.44 171.05 316.73 167.94 316.73 164.69C316.73 161.45 315.44 158.33 313.14 156.04C310.85 153.74 307.73 152.45 304.49 152.45C301.24 152.45 298.13 153.74 295.83 156.04L235.26 216.61C232.96 218.91 231.68 222.02 231.68 225.27C231.68 228.51 232.96 231.62 235.26 233.92C237.55 236.22 240.67 237.5 243.91 237.5C247.16 237.5 250.27 236.22 252.57 233.92Z" />
		<path id="Layer" class="shp1" d="M287.18 182L281.37 106.49C281.01 101.77 281.63 97.02 283.18 92.55C284.74 88.08 287.2 83.99 290.42 80.51C293.63 77.04 297.53 74.27 301.87 72.38C306.21 70.48 310.89 69.5 315.62 69.5C319.94 69.5 324.22 70.32 328.24 71.9C332.25 73.49 335.93 75.82 339.09 78.77C342.24 81.72 344.81 85.24 346.66 89.14C348.51 93.04 349.61 97.26 349.89 101.57L356.41 199.31C361.88 204.78 366.81 210.78 371.11 217.21C375.41 223.65 379.07 230.49 382.03 237.65C384.99 244.8 387.24 252.22 388.75 259.82C390.26 267.41 391.02 275.13 391.02 282.87L391.02 303.15L339.1 355.07L296.45 312.42C288.03 303.99 281.18 294.13 276.23 283.29C271.29 272.45 268.32 260.82 267.48 248.94C266.63 237.05 267.92 225.12 271.29 213.69C274.65 202.26 280.03 191.53 287.18 182L287.18 182Z" />
		<path id="Layer" class="shp1" d="M382.37 450.26L339.1 493.53L269.87 424.3L313.14 381.03C317.69 376.48 323.08 372.88 329.02 370.42C334.96 367.96 341.33 366.69 347.76 366.69C354.18 366.69 360.55 367.96 366.49 370.42C372.43 372.88 377.82 376.48 382.37 381.03C386.92 385.58 390.52 390.97 392.98 396.91C395.44 402.85 396.71 409.22 396.71 415.64C396.71 422.07 395.44 428.44 392.98 434.38C390.52 440.32 386.92 445.71 382.37 450.26Z" />
		<path id="Layer" class="shp3" d="M322.09 424L339.4 406.69L356.71 424L339.4 441.31L322.09 424Z" />
	</g>
</svg>