<svg xmlns="http://www.w3.org/2000/svg" viewBox="0 0 504 505" width="504" height="505">
	<style>
		tspan { white-space:pre }
		.shp0 { fill: #a7541e } 
		.shp1 { fill: #b7771a } 
		.shp2 { fill: #e6e7e8 } 
		.shp3 { fill: #5e5f62 } 
		.shp4 { fill: #ba9e62 } 
		.shp5 { fill: #2c2f38 } 
	</style>
	<path id="Layer" class="shp0" d="M410.23 153.6C405.98 153.6 402.38 150.47 401.79 146.26C401.2 142.05 403.79 138.05 407.88 136.87C443.21 124.8 472.06 98.8 487.72 64.91C489.62 60.64 494.59 58.7 498.88 60.54C503.17 62.38 505.18 67.32 503.41 71.63C485.93 110.39 452.97 140.01 412.58 153.28C411.81 153.49 411.02 153.6 410.23 153.6L410.23 153.6Z" />
	<path id="Layer" class="shp0" d="M384.63 136.54C381.3 136.54 378.27 134.6 376.88 131.57C375.49 128.55 375.98 124.99 378.14 122.46C378.66 121.88 427.3 64.34 427.3 8.54C427.3 3.82 431.12 0 435.83 0C440.54 0 444.36 3.82 444.36 8.54C444.36 70.71 393.29 131.02 391.11 133.55C389.5 135.45 387.13 136.54 384.63 136.54Z" />
	<path id="Layer" class="shp0" d="M359.03 128C358.01 128 357 127.82 356.04 127.46C353.91 126.67 352.2 125.07 351.26 123.01C350.32 120.95 350.24 118.59 351.04 116.47C351.29 115.82 375.26 50.77 359.64 11.7C358.51 8.87 358.97 5.65 360.86 3.25C362.75 0.86 365.77 -0.35 368.79 0.09C371.8 0.52 374.36 2.54 375.49 5.37C393.57 50.6 368.11 119.55 367.03 122.47C365.77 125.8 362.59 128.01 359.03 128L359.03 128Z" />
	<path id="Layer" class="shp0" d="M333.43 128C329.05 128 325.39 124.68 324.95 120.32C322.65 97.61 311.14 34.48 285.64 15.36C281.88 12.54 281.11 7.19 283.94 3.42C286.77 -0.36 292.11 -1.12 295.89 1.71C332.58 29.25 341.56 114.99 341.96 118.62C342.2 120.88 341.52 123.15 340.08 124.91C338.64 126.68 336.55 127.79 334.29 128C334 128 333.7 128 333.43 128L333.43 128Z" />
	<path id="Layer" class="shp0" d="M307.83 128C304.46 128 301.4 126.02 300.03 122.94C299.71 122.2 266.23 48.48 201.62 16.21C197.4 14.11 195.69 8.98 197.79 4.77C199.9 0.55 205.03 -1.16 209.25 0.94C279.44 36.05 314.21 112.8 315.63 116.05C316.79 118.68 316.53 121.72 314.96 124.13C313.39 126.54 310.71 128 307.83 128Z" />
	<path id="Layer" class="shp0" d="M128.63 256C128.28 258.75 127.44 261.4 126.16 263.86C124.02 270.77 121.63 277.51 119.07 284.25C112.34 303.03 103.58 321.03 92.96 337.92C80.93 356.44 61.3 377.86 37.58 363.35C29.29 357.97 22.79 350.25 18.89 341.16C16.41 335.95 14.41 330.53 12.92 324.95C12.49 323.33 12.07 321.71 11.73 320.09C6.3 297.15 2.76 273.8 1.14 250.29L1.14 250.2C0.97 248.84 0.89 247.47 0.8 246.11L0.8 245.85C-0.19 227.93 0.09 209.96 1.66 192.09C1.83 189.53 2.08 186.97 2.34 184.24L2.34 184.15C2.68 180.48 3.11 176.73 3.53 172.8C6.35 148.91 11.81 122.8 26.66 105.22L26.66 105.13L28.45 103.09C31.45 99.82 34.93 97.03 38.78 94.81C42.7 92.66 46.98 91.21 51.41 90.54C67.62 88.07 80.33 102.23 88.61 114.27C94.59 123.07 99.78 132.38 104.14 142.08C110.75 156.82 116.09 172.09 120.1 187.74C120.1 187.74 120.44 190.21 120.87 194.31L123.17 212.23L127.95 250.37C128.38 253.87 128.63 256 128.63 256L128.63 256Z" />
	<path id="Layer" class="shp0" d="M270.11 134.4L228.9 217.6L123.17 212.23L102.35 211.2L104.14 142.08C106.61 135.81 109.54 129.73 112.93 123.91C115.48 119.46 118.27 115.16 121.29 111.02C125.92 104.47 131.28 98.46 137.25 93.1C140.25 90.34 143.44 87.8 146.81 85.51C151.77 81.99 157.12 79.07 162.77 76.8C165.62 75.65 168.6 74.82 171.64 74.33C178.08 73.28 184.66 73.51 191.01 75.01C224.72 82.86 256.72 121 270.11 134.4Z" />
	<path id="Layer" class="shp1" d="M225.83 286.13C188.62 257.8 141 237.23 118.99 255.15L120.1 256C120.1 256 94.5 238.94 111.57 187.74C120.1 196.27 137.16 204.8 171.3 187.74C205.43 170.67 205.43 153.6 282.23 128C359.03 102.4 418.77 153.6 435.83 170.67C436.7 171.52 437.5 172.43 438.22 173.4L458.7 210.86C461.32 215.54 465.23 219.36 469.96 221.87C487.03 230.4 497.53 239.02 495.57 256C491.64 290.65 476.79 309.76 458.53 320.09L225.83 286.13Z" />
	<path id="Layer" class="shp0" d="M469.71 481.96C465.21 485.88 460.25 489.23 454.95 491.95C449.76 494.69 444.3 496.86 438.65 498.43C432.12 500.24 425.48 501.58 418.77 502.45C413.22 503.21 407.5 503.81 401.79 504.07C381.74 505.06 361.65 504.09 341.79 501.16C335.99 500.31 330.19 499.29 324.56 497.92C318.93 496.56 313.38 495.02 308 493.23C284.02 485.13 261.88 472.34 242.89 455.6C241.61 454.4 240.25 453.29 238.97 451.93C233.98 447.53 229.52 442.57 225.66 437.16C219.36 429.27 215.55 419.67 214.73 409.6C214.6 394.78 218.75 380.23 226.68 367.7C234.79 353.63 249.8 330.33 265.16 322.65C213.96 348.25 137.16 341.34 145.7 324.27C154.23 307.2 282.23 273.07 282.23 273.07C272.8 272.04 263.5 270.01 254.5 267.01C249.95 265.82 245.89 263.22 242.89 259.59C231.03 238.94 333.43 238.94 387.88 240.05C391.98 240.57 395.49 243.23 397.09 247.04C398.58 251.22 399.64 255.54 400.25 259.93C402.62 265.94 406.79 271.07 412.2 274.61C447.78 301.32 481.57 339.63 491.89 384C500.43 420.61 495.39 459.1 469.71 481.96L469.71 481.96Z" />
	<path id="Layer" class="shp2" d="M469.96 187.74C469.96 201.88 458.5 213.34 444.36 213.34C430.23 213.34 418.77 201.88 418.77 187.74C418.77 173.6 430.23 162.14 444.36 162.14C458.5 162.14 469.96 173.6 469.96 187.74Z" />
	<path id="Layer" class="shp3" d="M452.9 273.07C449.75 273.07 446.86 271.33 445.38 268.56C443.9 265.79 444.06 262.42 445.81 259.8C464.84 231.26 484.82 230.4 487.03 230.4C491.75 230.35 495.61 234.13 495.66 238.84C495.71 243.55 491.93 247.42 487.22 247.47C486.37 247.53 473.7 248.71 460 269.27C458.41 271.64 455.75 273.07 452.9 273.07L452.9 273.07Z" />
	<g id="Layer">
		<path id="Layer" class="shp1" d="M233.08 153.35C232.41 153.52 231.72 153.6 231.03 153.6C227.14 153.61 223.73 150.98 222.75 147.2C222.67 146.69 213.96 115.03 174.54 83.46C171.74 81.34 170.58 77.68 171.64 74.33C178.08 73.28 184.66 73.51 191.01 75.01C230.43 108.89 238.97 141.57 239.31 143.02C240.44 147.59 237.65 152.21 233.08 153.35Z" />
		<path id="Layer" class="shp1" d="M198.61 170.5C198.04 170.59 197.47 170.65 196.9 170.67C192.84 170.67 189.35 167.82 188.54 163.84C186.5 155.88 183.43 148.22 179.41 141.06C170.52 124.6 157.38 110.84 141.35 101.21C138.5 99.55 136.89 96.38 137.25 93.1C140.25 90.34 143.44 87.8 146.81 85.51C147.95 85.6 149.06 85.95 150.05 86.53C177.51 102.89 197.36 129.46 205.26 160.43C205.71 162.65 205.27 164.95 204.02 166.84C202.77 168.73 200.82 170.05 198.61 170.5Z" />
		<path id="Layer" class="shp1" d="M165.5 195.84C164.61 196.1 163.69 196.25 162.77 196.27C159.1 196.28 155.83 193.94 154.66 190.47C150.14 176.98 134.35 139.18 115.41 126.55C114.39 125.87 113.55 124.96 112.93 123.91C115.48 119.46 118.27 115.16 121.29 111.02C122.54 111.24 123.73 111.7 124.79 112.39C152.52 130.82 170.11 182.87 170.87 185C172.34 189.48 169.95 194.3 165.5 195.84Z" />
		<path id="Layer" class="shp1" d="M83.49 270.59C62.46 291.8 42.77 314.28 24.52 337.92C23.16 339.72 21.13 340.89 18.89 341.16C16.41 335.95 14.41 330.53 12.92 324.95C31.06 301.65 50.58 279.45 71.37 258.48C74.72 255.13 80.14 255.13 83.49 258.48C86.84 261.82 86.84 267.25 83.49 270.59Z" />
		<path id="Layer" class="shp1" d="M9.16 256C5.4 256.01 2.08 253.55 0.99 249.95C-0.11 246.35 1.29 242.46 4.42 240.37C23.85 228.49 46.13 222.1 68.9 221.87C73.61 221.87 77.43 225.69 77.43 230.4C77.43 235.12 73.61 238.94 68.9 238.94C49.5 239.18 30.52 244.57 13.9 254.57C12.5 255.5 10.85 256 9.16 256Z" />
		<path id="Layer" class="shp1" d="M83.49 168.2C80.13 171.5 74.74 171.5 71.37 168.2C36.9 133.72 27.43 107.35 26.66 105.22L26.66 105.13L28.45 103.09C31.45 99.82 34.93 97.03 38.78 94.81C40.71 95.84 42.18 97.59 42.87 99.67C42.96 100.1 51.57 124.25 83.49 156.08C86.82 159.43 86.82 164.84 83.49 168.2Z" />
		<path id="Layer" class="shp1" d="M77.43 196.27C77.43 200.98 73.61 204.8 68.9 204.8C46.14 204.57 23.88 198.18 4.47 186.29C3.66 185.71 2.94 185.02 2.34 184.24C2.34 184.24 2.25 184.24 2.34 184.15C2.68 180.48 3.11 176.73 3.53 172.8C6.42 170.25 10.66 169.97 13.86 172.12C18.93 175.2 24.27 177.83 29.82 179.97C42.25 184.94 55.5 187.57 68.9 187.74C73.61 187.74 77.43 191.56 77.43 196.27Z" />
		<path id="Layer" class="shp1" d="M469.71 481.96C465.21 485.88 460.25 489.23 454.95 491.95C453.7 490.56 452.98 488.78 452.9 486.91C452.81 485.46 443.85 345.69 380.11 305.92C376.1 303.43 374.88 298.15 377.38 294.15C379.87 290.14 385.15 288.92 389.16 291.42C454.69 332.46 467.75 457.64 469.71 481.96L469.71 481.96Z" />
		<path id="Layer" class="shp1" d="M418.77 502.45C413.22 503.21 407.5 503.81 401.79 504.07C401.71 503.88 401.68 503.67 401.7 503.47C401.7 502.19 401.19 378.54 361.51 338.86C358.16 335.52 358.16 330.09 361.51 326.75C364.85 323.4 370.28 323.4 373.63 326.75C416.63 369.84 418.68 489.22 418.77 502.45L418.77 502.45Z" />
		<path id="Layer" class="shp1" d="M324.56 497.92C318.93 496.56 313.38 495.02 308 493.23C308.27 492.17 308.7 491.16 309.28 490.24C309.45 489.82 329.68 458.33 329.68 400.56C329.61 384.07 328.06 367.62 325.07 351.41C324.24 346.79 327.29 342.37 331.89 341.51C334.12 341.07 336.42 341.55 338.28 342.84C340.14 344.12 341.41 346.1 341.79 348.33C357.75 436.23 330.45 488.11 324.56 497.92L324.56 497.92Z" />
		<path id="Layer" class="shp1" d="M299.21 351.23C291.19 399.02 276.68 430.51 256.04 444.76C250.94 448.37 245.11 450.81 238.97 451.93C233.98 447.53 229.52 442.57 225.66 437.16C227.57 435.61 230.04 434.93 232.48 435.29C233.68 435.46 267.38 438.19 282.32 348.5C282.8 345.48 284.87 342.96 287.72 341.87C290.58 340.79 293.8 341.3 296.17 343.23C298.54 345.17 299.7 348.22 299.21 351.23Z" />
		<path id="Layer" class="shp1" d="M324.9 298.67C324.9 303.38 321.08 307.2 316.36 307.2C311.65 307.2 307.83 303.38 307.83 298.67C307.83 293.96 311.65 290.14 316.36 290.14C321.08 290.14 324.9 293.96 324.9 298.67L324.9 298.67Z" />
		<path id="Layer" class="shp1" d="M359.03 273.07C359.03 277.78 355.21 281.6 350.5 281.6C345.79 281.6 341.96 277.78 341.96 273.07C341.96 268.36 345.79 264.54 350.5 264.54C355.21 264.54 359.03 268.36 359.03 273.07L359.03 273.07Z" />
	</g>
	<path id="Layer" class="shp4" d="M376.1 170.67C376.1 175.38 372.28 179.2 367.57 179.2C362.85 179.2 359.03 175.38 359.03 170.67C359.03 165.96 362.85 162.14 367.57 162.14C372.28 162.14 376.1 165.96 376.1 170.67L376.1 170.67Z" />
	<path id="Layer" class="shp5" d="M452.9 187.74C452.9 192.45 449.08 196.27 444.36 196.27C439.65 196.27 435.83 192.45 435.83 187.74C435.83 183.02 439.65 179.2 444.36 179.2C449.08 179.2 452.9 183.02 452.9 187.74Z" />
	<path id="Layer" class="shp4" d="M324.9 162.14C324.9 166.85 321.08 170.67 316.36 170.67C311.65 170.67 307.83 166.85 307.83 162.14C307.83 157.42 311.65 153.6 316.36 153.6C321.08 153.6 324.9 157.42 324.9 162.14Z" />
	<path id="Layer" class="shp4" d="M273.7 179.2C273.7 183.91 269.88 187.74 265.16 187.74C260.45 187.74 256.63 183.91 256.63 179.2C256.63 174.49 260.45 170.67 265.16 170.67C269.88 170.67 273.7 174.49 273.7 179.2Z" />
	<path id="Layer" class="shp4" d="M213.96 204.8C213.96 209.52 210.14 213.34 205.43 213.34C200.72 213.34 196.9 209.52 196.9 204.8C196.9 200.09 200.72 196.27 205.43 196.27C210.14 196.27 213.96 200.09 213.96 204.8Z" />
	<path id="Layer" class="shp2" d="M444.36 179.2C444.36 183.91 440.54 187.74 435.83 187.74C431.12 187.74 427.3 183.91 427.3 179.2C427.3 174.49 431.12 170.67 435.83 170.67C440.54 170.67 444.36 174.49 444.36 179.2L444.36 179.2Z" />
</svg>