<svg xmlns="http://www.w3.org/2000/svg" viewBox="0 0 400 400" width="400" height="400">
	<style>
		tspan { white-space:pre }
		.shp0 { fill: #00b6c9 } 
		.shp1 { fill: #ffffff } 
	</style>
	<path id="Layer" class="shp0" d="M313.3 95.5C299.1 105.8 285.3 118.8 267.9 120.2C270.3 112.1 272.8 104 275.2 95.9C270.1 93 263.8 97.7 260.7 102.7C257.5 107.7 254.7 113.9 249 115.5C243.4 117.1 237.4 113 234.9 107.7C232.4 102.4 232.4 96.3 232.7 90.5C233.4 74.9 234.6 58.3 226.9 44.8C219.2 31.3 198.1 24.5 187.9 36.3C175.1 51.1 191.7 75.8 182.9 93.2C167.1 101.1 146.1 96.7 134.8 83.1C129 76.2 125.8 67.5 120.3 60.4C114.8 53.3 105.4 47.7 97 50.8C89.9 58.6 93.1 71.4 99.5 79.9C105.8 88.3 114.8 94.8 119.9 104.1C125 113.4 124.2 127.5 114.5 131.7C107.3 134.9 99.2 131.2 91.5 130.2C83.7 129.3 73.5 134.6 75.8 142.1C77.4 147.5 84.3 149.1 87.9 153.4C93.7 160.2 89.3 171.2 82.5 177.1C75.7 183 66.8 186.3 60.7 192.9C54.6 199.5 53 211.9 60.8 216.4C73.9 208.7 93.4 217.3 96.6 232.1C100.6 250.7 82.5 267.3 81.3 286.3C80.8 294.7 85.7 304.7 94.1 304.9C101.8 305.1 107.2 297 108.3 289.4C109.4 281.8 107.9 274 109.4 266.5C110.3 261.8 113.1 257.1 116.9 254.5C119 257.4 120.5 260.9 121.1 264.4C122.4 271.8 120.9 279.4 119.9 286.8C118.9 294.2 118.5 302.2 121.6 309C124.8 315.8 132.7 321 139.8 318.6C149.4 312.1 150.8 298.5 149 287.1C147.9 279.7 145.8 272.2 145.3 264.7C146.1 261.9 147.2 259.1 148.6 256.6C153.6 247.9 165.1 242 173.9 246.7C182 251 184.1 261.5 184.7 270.7C186.2 294.3 183.8 318.1 177.7 341C175.8 347.9 173.6 355.2 175.1 362.2C176.6 369.2 183.5 375.7 190.5 373.9C196.3 372.4 199.4 366.2 201.3 360.5C208.2 340.5 210.6 319 208.1 298C206.6 284.9 203.2 271.9 204.7 258.8C206.2 245.7 214.4 232.2 227.3 229.7C240.3 227.2 253.2 237.3 258 249.6C262.8 261.9 261.3 275.8 258.6 288.7C256.6 298.4 253.9 308.3 255.3 318.2C256.7 328 263.5 338 273.3 339.3C281.3 317.8 282.6 293.7 276.8 271.5C274.2 261.4 270.1 251.5 270 241.1C269.9 230.7 275.2 219.2 285.3 216.3C292.9 214.1 301 217.4 307.9 221.4C314.8 225.3 321.6 230.1 329.5 231.1C337.4 232.1 346.7 227.6 347.6 219.7C348.5 211.7 340.5 205.3 332.7 203.3C324.9 201.3 316.5 201.9 308.9 198.9C301.4 196 295 187.2 298.7 180.1C309.5 188 327.7 177.9 326.8 164.6C325.9 151.2 306.4 143.8 296.8 153.2C291.7 149.2 293.5 140.3 298.8 136.6C304.1 132.9 311.1 133 317.6 133.9C324 134.9 330.5 136.5 336.9 135.3C346.6 133.5 354.1 125.1 357.7 115.9C361.3 106.7 361.6 96.5 361.9 86.6C347 77.2 327.5 85.2 313.3 95.5Z" />
	<path id="Layer" class="shp1" d="M194.8 46.7C184.1 46.7 184.1 63.3 194.8 63.3C205.4 63.3 205.4 46.7 194.8 46.7Z" />
	<path id="Layer" class="shp1" d="M204.8 40.7C200.7 40.7 200.7 47.1 204.8 47.1C208.9 47.1 208.9 40.7 204.8 40.7Z" />
	<path id="Layer" class="shp1" d="M105 62.1C104.3 61.3 103.2 61 102.2 61.3C101.4 61.5 100.7 62.1 100.3 62.8C99.5 64 99.6 65.7 100.7 66.8C101.5 67.6 102.8 67.8 103.8 67.2C104.3 66.9 104.7 66.4 104.9 65.9C105.3 65.6 105.6 65.1 105.8 64.6C105.9 63.6 105.6 62.8 105 62.1Z" />
	<path id="Layer" class="shp1" d="M334 116.6C330.6 116.6 327.7 119.5 327.7 122.9C327.7 126.3 330.6 129.2 334 129.2C337.4 129.2 340.3 126.3 340.3 122.9C340.3 119.5 337.4 116.6 334 116.6Z" />
	<path id="Layer" class="shp1" d="M349.5 107.7C348.8 106.6 347.6 105.8 346.2 105.8C344.9 105.8 343.6 106.5 342.9 107.7C342.3 108.8 342.1 110.5 342.9 111.5C343 111.6 343.1 111.7 343.1 111.8C343.8 112.8 344.8 113.5 346.1 113.5C347.4 113.5 348.4 112.8 349.1 111.8C349.2 111.7 349.3 111.6 349.3 111.5C350.3 110.4 350.1 108.8 349.5 107.7Z" />
	<path id="Layer" class="shp1" d="M67.8 202.8C64.5 202.8 64.5 208 67.8 208C71.1 208 71.1 202.8 67.8 202.8Z" />
	<path id="Layer" class="shp1" d="M133.5 297.2C125.5 297.2 125.5 309.6 133.5 309.6C141.5 309.6 141.5 297.2 133.5 297.2Z" />
	<path id="Layer" class="shp1" d="M126.8 285.3C122.1 285.3 122.1 292.6 126.8 292.6C131.5 292.6 131.5 285.3 126.8 285.3Z" />
	<path id="Layer" class="shp1" d="M190 361.6C189.4 359.3 186.9 357.9 184.6 358.6C183 359 181.9 360.3 181.5 361.9C180.6 362.8 180.5 364.4 181.1 365.4C181.7 366.4 182.9 367 184 366.8C184.9 367.2 185.9 367.2 186.8 367C189.2 366.3 190.6 363.8 190 361.6Z" />
	<path id="Layer" class="shp1" d="M91.2 285C87.6 285 87.6 290.6 91.2 290.6C94.8 290.6 94.8 285 91.2 285Z" />
	<path id="Layer" class="shp1" d="M269.5 314.9C269.5 313.7 268.9 312.6 267.8 312C266.8 311.4 265.5 311.4 264.4 312C263.5 312.5 262.7 313.6 262.7 314.7C262.5 315.2 262.4 315.7 262.2 316.2C261.8 317.4 262.5 318.8 263.5 319.4C264.5 320 266.2 320 267 319C267.2 318.7 267.4 318.5 267.6 318.2C267.7 318.1 267.8 318 267.8 317.9C267.8 317.8 267.9 317.8 267.9 317.7L267.9 317.7C269 317 269.5 315.9 269.5 314.9Z" />
	<path id="Layer" class="shp1" d="M243.8 214.2C236.5 214.2 236.5 225.5 243.8 225.5C251.1 225.5 251.1 214.2 243.8 214.2Z" />
	<path id="Layer" class="shp1" d="M89.9 140.2C89.2 139.1 88 138.4 86.7 138.4C85.4 138.4 84.2 139.1 83.5 140.2C82.8 141.4 82.9 142.7 83.5 143.9C83.6 144.1 83.7 144.4 83.8 144.6C84.8 146.8 88.5 146.8 89.5 144.6C89.6 144.4 89.7 144.1 89.8 143.9C90.5 142.7 90.6 141.5 89.9 140.2Z" />
	<path id="Layer" class="shp1" d="M312.6 156.9C311.9 155.5 310 154.4 308.5 154.6C307.4 154.7 306.5 155 305.7 155.8C304.7 156.8 304.3 158.3 304.7 159.6C305 160.6 305.7 161.5 306.7 162L306.8 162.1C308.2 163.5 310.6 163.5 312 162.1C313.5 160.8 313.5 158.7 312.6 156.9Z" />
	<path id="Layer" class="shp1" d="M332.9 212.7C328 212.7 328 220.3 332.9 220.3C337.8 220.3 337.8 212.7 332.9 212.7Z" />
</svg>