<svg height="512pt" viewBox="-14 0 512 512" width="512pt" xmlns="http://www.w3.org/2000/svg"><g fill="#ffa73b"><path d="m410.335938 272.570312c-4.078126 0-8.140626-1.640624-11.121094-4.871093l-28.957032-31.40625c-5.660156-6.140625-5.269531-15.703125.867188-21.363281 6.140625-5.660157 15.703125-5.269532 21.363281.867187l28.957031 31.40625c5.660157 6.136719 5.269532 15.703125-.867187 21.359375-2.90625 2.683594-6.578125 4.007812-10.242187 4.007812zm0 0"/><path d="m440.332031 239.480469c-4.074219 0-8.136719-1.636719-11.117187-4.867188l-28.957032-31.40625c-5.660156-6.136719-5.273437-15.703125.863282-21.363281 6.140625-5.65625 15.703125-5.269531 21.363281.867188l28.957031 31.40625c5.660156 6.136718 5.273438 15.703124-.863281 21.359374-2.90625 2.679688-6.582031 4.003907-10.246094 4.003907zm0 0"/><path d="m467.855469 202.449219c-4.074219 0-8.136719-1.636719-11.117188-4.867188l-28.957031-31.40625c-5.660156-6.140625-5.269531-15.703125.867188-21.363281 6.136718-5.660156 15.703124-5.269531 21.363281.867188l28.957031 31.40625c5.660156 6.136718 5.269531 15.703124-.867188 21.359374-2.90625 2.683594-6.582031 4.003907-10.246093 4.003907zm0 0"/></g><path d="m74.070312 272.570312c-3.664062 0-7.339843-1.324218-10.246093-4.007812-6.136719-5.65625-6.527344-15.222656-.867188-21.359375l28.960938-31.40625c5.660156-6.136719 15.222656-6.527344 21.359375-.867187 6.140625 5.660156 6.527344 15.222656.867187 21.363281l-28.957031 31.40625c-2.980469 3.230469-7.042969 4.871093-11.117188 4.871093zm0 0" fill="#ffc02e"/><path d="m44.074219 239.480469c-3.664063 0-7.339844-1.320313-10.246094-4.003907-6.140625-5.65625-6.527344-15.222656-.867187-21.359374l28.957031-31.40625c5.660156-6.136719 15.226562-6.527344 21.363281-.867188 6.140625 5.660156 6.527344 15.226562.867188 21.363281l-28.957032 31.40625c-2.980468 3.230469-7.042968 4.867188-11.117187 4.867188zm0 0" fill="#ffc02e"/><path d="m16.546875 202.449219c-3.664063 0-7.339844-1.320313-10.242187-4.003907-6.140626-5.65625-6.527344-15.222656-.867188-21.359374l28.957031-31.40625c5.660157-6.136719 15.222657-6.527344 21.363281-.867188 6.136719 5.660156 6.527344 15.222656.867188 21.363281l-28.957031 31.40625c-2.980469 3.230469-7.042969 4.867188-11.121094 4.867188zm0 0" fill="#ffc02e"/><path d="m242.203125 297.15625c-.003906 0-.003906 0-.003906 0-65.15625 0-126.273438-29.652344-172.082031-83.5-45.214844-53.144531-70.117188-123.65625-70.117188-198.539062 0-8.347657 6.769531-15.117188 15.117188-15.117188 8.351562 0 15.117187 6.769531 15.117187 15.117188 0 138.84375 95.089844 251.804687 211.96875 251.804687 116.875 0 211.964844-112.960937 211.964844-251.804687 0-8.347657 6.769531-15.117188 15.117187-15.117188 8.351563 0 15.121094 6.769531 15.121094 15.117188 0 74.882812-24.902344 145.394531-70.117188 198.539062-45.808593 53.847656-106.925781 83.5-172.085937 83.5zm0 0" fill="#3d4883"/><path d="m469.285156 0c-8.347656 0-15.117187 6.769531-15.117187 15.117188 0 138.84375-95.085938 251.804687-211.964844 251.804687v30.234375c65.164063 0 126.277344-29.65625 172.085937-83.5 45.214844-53.144531 70.117188-123.65625 70.117188-198.539062 0-8.347657-6.769531-15.117188-15.121094-15.117188zm0 0" fill="#16204c"/><path d="m242.203125 512c-67.566406 0-122.539063-54.96875-122.539063-122.539062 0-67.570313 54.972657-122.539063 122.539063-122.539063 67.570313 0 122.539063 54.96875 122.539063 122.539063 0 67.570312-54.96875 122.539062-122.539063 122.539062zm0 0" fill="#fff780"/><path d="m242.203125 512c-67.566406 0-122.539063-54.96875-122.539063-122.539062h245.078126c0 67.570312-54.96875 122.539062-122.539063 122.539062zm0 0" fill="#ffc02e"/><path d="m242.203125 429.25c-30.726563 0-53.988281-31.785156-54.964844-33.136719-2.863281-3.972656-2.863281-9.332031 0-13.304687.976563-1.351563 24.234375-33.136719 54.964844-33.136719s53.988281 31.785156 54.964844 33.136719c2.863281 3.972656 2.863281 9.332031 0 13.304687-.976563 1.351563-24.234375 33.136719-54.964844 33.136719zm0 0" fill="#fff"/><path d="m242.203125 442.332031c-40.832031 0-71.742187-42.234375-73.039063-44.03125-3.804687-5.28125-3.804687-12.398437 0-17.679687 1.296876-1.796875 32.207032-44.03125 73.039063-44.03125 40.835937 0 71.746094 42.234375 73.039063 44.03125 3.804687 5.28125 3.804687 12.398437 0 17.679687-1.292969 1.796875-32.203126 44.03125-73.039063 44.03125zm-40.9375-52.835937c9.640625 10.039062 25.332031 22.601562 40.9375 22.601562 16.449219 0 32.058594-13.359375 40.9375-22.671875-9.648437-10.046875-25.339844-22.601562-40.9375-22.601562-16.449219 0-32.058594 13.359375-40.9375 22.671875zm0 0" fill="#3d4883"/><path d="m242.203125 404.578125c7.910156 0 15.484375-6.953125 15.121094-15.117187-.367188-8.191407-6.644531-15.117188-15.121094-15.117188-7.90625 0-15.484375 6.953125-15.117187 15.117188.367187 8.191406 6.640624 15.117187 15.117187 15.117187zm0 0" fill="#3d4883"/><path d="m242.203125 266.921875v245.078125c67.570313 0 122.539063-54.96875 122.539063-122.539062 0-67.570313-54.96875-122.539063-122.539063-122.539063zm0 0" fill="#ffc02e"/><path d="m242.203125 512c67.570313 0 122.539063-54.96875 122.539063-122.539062h-122.539063zm0 0" fill="#ffa73b"/><path d="m242.203125 349.671875v79.578125c30.730469 0 53.988281-31.785156 54.964844-33.136719 2.863281-3.972656 2.863281-9.332031 0-13.304687-.976563-1.351563-24.234375-33.136719-54.964844-33.136719zm0 0" fill="#f5fafc"/><path d="m257.324219 389.460938c-.367188-8.191407-6.644531-15.117188-15.121094-15.117188v30.234375c7.910156 0 15.484375-6.953125 15.121094-15.117187zm0 0" fill="#16204c"/><path d="m242.203125 336.585938v30.238281c15.597656 0 31.289063 12.554687 40.9375 22.601562-8.878906 9.3125-24.488281 22.671875-40.9375 22.671875v30.234375c40.835937 0 71.746094-42.234375 73.039063-44.03125 3.804687-5.28125 3.804687-12.398437 0-17.679687-1.292969-1.796875-32.203126-44.035156-73.039063-44.035156zm0 0" fill="#16204c"/></svg>