<svg xmlns="http://www.w3.org/2000/svg" viewBox="0 0 512 513" width="512" height="513">
	<style>
		tspan { white-space:pre }
		.shp0 { fill: #a7a7a7 } 
		.shp1 { fill: #b4b4b4 } 
		.shp2 { fill: #82888b } 
		.shp3 { fill: #676f72 } 
		.shp4 { fill: #37c94f } 
		.shp5 { fill: #40e35b } 
	</style>
	<path id="Layer" class="shp0" d="M163.13 392.57L8.38 392.57C3.75 392.57 0 388.82 0 384.2C0 381.98 0.89 379.84 2.46 378.27L57.63 323.23C69.21 311.67 84.92 305.18 101.29 305.18L163.13 305.18L163.13 392.57Z" />
	<path id="Layer" class="shp1" d="M119.44 436.28L119.44 503.63C119.44 508.25 123.19 512 127.81 512C130.04 512 132.17 511.12 133.74 509.54L188.78 454.38C200.34 442.79 206.84 427.09 206.84 410.71L206.84 348.87L119.44 436.28Z" />
	<path id="Layer" class="shp2" d="M388.07 80.23L75.71 392.57C76.05 416.6 95.48 435.94 119.44 436.28L431.77 123.94L388.07 80.23Z" />
	<path id="Layer" class="shp3" d="M409.92 102.08L388.07 80.23L75.71 392.57C76.05 416.6 95.48 435.94 119.44 436.28L132.43 423.28C120.36 411.21 120.36 391.64 132.43 379.57L409.92 102.08Z" />
	<path id="Layer" class="shp4" d="M482.26 2.25L327.98 79.39C311.1 87.83 312.85 112.46 330.75 118.43L377.87 134.13L393.57 181.25C399.54 199.15 424.17 200.9 432.61 184.02" />
	<path id="Layer" class="shp5" d="M482.26 2.25C422.52 39.66 401.57 120.75 432.61 184.02L509.75 29.75C518.55 12.13 499.87 -6.55 482.26 2.25L482.26 2.25Z" />
	<g id="Layer">
	</g>
</svg>