<svg xmlns="http://www.w3.org/2000/svg" viewBox="0 0 512 512" width="512" height="512">
	<style>
		tspan { white-space:pre }
		.shp0 { fill: #906527 } 
		.shp1 { fill: #815b24 } 
		.shp2 { fill: #c71e1e } 
		.shp3 { fill: #b81b1b } 
		.shp4 { fill: #bd3d36 } 
		.shp5 { fill: #b6261b } 
	</style>
	<path id="Layer" class="shp0" d="M100.02 452.95L392.34 159.1L361.29 128.21L38.24 452.95L100.02 452.95Z" />
	<path id="Layer" class="shp1" d="M76.93 452.95L100.02 452.95L392.34 159.1L361.29 128.21L349.8 139.76L369.24 159.1L76.93 452.95Z" />
	<g id="Layer">
		<path id="Layer" class="shp2" d="M509.78 9.99C507.54 7.76 504.14 7.17 501.27 8.51L443.4 35.63C442.61 36 441.88 36.51 441.26 37.14L380.4 98.32C378.99 99.73 378.2 101.65 378.21 103.65C378.21 105.65 379.01 107.56 380.43 108.97L411.48 139.86C412.95 141.32 414.87 142.05 416.79 142.05C418.73 142.05 420.66 141.32 422.13 139.84L483 78.66C483.61 78.03 484.12 77.3 484.49 76.5L511.3 18.49C512.63 15.62 512.02 12.22 509.78 9.99L509.78 9.99Z" />
	</g>
	<path id="Layer" class="shp2" d="M437.79 144.79L375.37 82.69C372.42 79.75 367.65 79.77 364.71 82.71L340.26 107.3C338.86 108.71 338.07 110.63 338.07 112.63C338.07 114.63 338.87 116.54 340.29 117.95L402.71 180.04C404.12 181.45 406.03 182.24 408.02 182.24L408.04 182.24C410.04 182.23 411.95 181.43 413.36 180.02L437.82 155.44C440.75 152.49 440.73 147.72 437.79 144.79L437.79 144.79Z" />
	<path id="Layer" class="shp3" d="M509.78 9.99C507.54 7.76 504.14 7.17 501.27 8.51L488.82 14.35C489 15.73 488.82 17.17 488.21 18.49L461.39 76.5C461.03 77.3 460.52 78.03 459.9 78.65L405.21 133.63L411.48 139.86C412.95 141.32 414.87 142.05 416.79 142.05C418.73 142.05 420.66 141.31 422.13 139.84L483 78.65C483.61 78.03 484.12 77.3 484.49 76.5L511.3 18.49C512.63 15.62 512.02 12.22 509.78 9.99L509.78 9.99Z" />
	<path id="Layer" class="shp3" d="M437.79 144.79L375.37 82.69C372.42 79.75 367.65 79.77 364.71 82.71L358.54 88.93L414.69 144.79C417.64 147.72 417.65 152.49 414.72 155.44L396.45 173.81L402.71 180.05C404.12 181.45 406.04 182.24 408.02 182.24L408.04 182.24C410.04 182.23 411.96 181.43 413.36 180.02L437.82 155.44C440.75 152.49 440.73 147.72 437.79 144.79L437.79 144.79Z" />
	<path id="Layer" class="shp4" d="M109.77 381.04L20.8 470.48C15.8 475.5 15.82 483.62 20.84 488.61L33.71 501.42C38.74 506.41 46.86 506.39 51.85 501.37L140.82 411.94L109.77 381.04Z" />
	<path id="Layer" class="shp5" d="M109.77 381.04L98.28 392.59L117.73 411.94L31.2 498.92L33.71 501.42C38.74 506.41 46.86 506.39 51.85 501.37L140.82 411.94L109.77 381.04Z" />
</svg>