<svg xmlns="http://www.w3.org/2000/svg" viewBox="0 0 512 512" width="512" height="512">
	<style>
		tspan { white-space:pre }
		.shp0 { fill: #3c3c3c } 
		.shp1 { fill: #2d2d2d } 
		.shp2 { fill: #e1ebf0 } 
		.shp3 { fill: #cde1e6 } 
		.shp4 { fill: #ffba00 } 
		.shp5 { fill: #f0ad00 } 
	</style>
	<path id="Layer" class="shp0" d="M144.7 322.03L68.73 398C63.48 403.25 54.98 403.25 49.73 398L11.74 360.02C6.5 354.77 6.5 346.27 11.74 341.02L87.72 265.05C92.97 259.8 101.47 259.8 106.71 265.05L144.7 303.04C149.95 308.28 149.95 316.78 144.7 322.03Z" />
	<path id="Layer" class="shp1" d="M30.74 379.01L49.73 398C54.98 403.25 63.48 403.25 68.73 398L144.7 322.03C149.95 316.78 149.95 308.28 144.7 303.04L125.71 284.04L30.74 379.01Z" />
	<path id="Layer" class="shp0" d="M298.52 413.12L260.53 375.13C255.29 369.89 246.79 369.89 241.54 375.13L165.56 451.11C160.32 456.36 160.32 464.86 165.56 470.1L203.55 508.09C208.8 513.34 217.3 513.34 222.55 508.09L298.52 432.12C303.77 426.87 303.77 418.37 298.52 413.12Z" />
	<path id="Layer" class="shp1" d="M184.56 489.1L203.55 508.09C208.8 513.34 217.3 513.34 222.55 508.09L298.52 432.12C303.77 426.87 303.77 418.37 298.52 413.12L279.53 394.13L184.56 489.1Z" />
	<path id="Layer" class="shp2" d="M478.15 136.37C473.32 134.76 468 136.01 464.4 139.61L235.84 368.17C230.6 373.42 230.6 381.92 235.84 387.16L286.49 437.81C291.74 443.06 300.24 443.06 305.49 437.81L432.74 310.56C453.76 289.53 469.85 263.51 479.25 235.31C488.65 207.1 491.4 176.64 487.19 147.21C486.47 142.17 482.97 137.98 478.15 136.37L478.15 136.37Z" />
	<path id="Layer" class="shp3" d="M261.17 412.49L286.49 437.81C291.74 443.06 300.24 443.06 305.49 437.81L432.74 310.56C453.76 289.53 469.85 263.51 479.25 235.31C484.67 219.03 487.87 202 488.8 184.85L261.17 412.49Z" />
	<path id="Layer" class="shp2" d="M323.69 26.92C318.86 25.31 313.54 26.56 309.95 30.16L81.39 258.72C76.14 263.96 76.14 272.47 81.39 277.71L132.04 328.36C137.28 333.61 145.79 333.61 151.03 328.36L278.29 201.1C299.31 180.08 315.39 154.06 324.8 125.85C334.2 97.65 336.94 67.19 332.74 37.76C332.02 32.72 328.52 28.52 323.69 26.92Z" />
	<path id="Layer" class="shp3" d="M106.71 303.04L132.04 328.36C137.28 333.61 145.79 333.61 151.03 328.36L278.29 201.1C299.31 180.08 315.39 154.06 324.8 125.85C330.22 109.58 333.42 92.55 334.35 75.4L106.71 303.04Z" />
	<path id="Layer" class="shp4" d="M330.18 463.77C324.93 469.02 316.43 469.02 311.18 463.77L209.88 362.47C204.64 357.23 204.64 348.72 209.88 343.48C215.13 338.23 223.63 338.23 228.88 343.48L330.18 444.78C335.42 450.02 335.42 458.53 330.18 463.77Z" />
	<path id="Layer" class="shp5" d="M260.53 413.12L311.18 463.77C316.43 469.02 324.93 469.02 330.18 463.77C335.42 458.53 335.42 450.02 330.18 444.78L279.53 394.13L260.53 413.12Z" />
	<path id="Layer" class="shp4" d="M176.36 353.69C171.11 358.93 162.61 358.93 157.36 353.69L56.06 252.39C50.82 247.14 50.82 238.64 56.06 233.39C61.31 228.15 69.81 228.15 75.06 233.39L176.36 334.69C181.6 339.94 181.6 348.44 176.36 353.69Z" />
	<path id="Layer" class="shp5" d="M106.71 303.04L157.36 353.69C162.61 358.93 171.11 358.93 176.36 353.69C181.6 348.44 181.6 339.94 176.36 334.69L125.71 284.04L106.71 303.04Z" />
</svg>