<svg xmlns="http://www.w3.org/2000/svg" viewBox="0 0 512 512"><defs><style>.a{fill:#363539;}.b{fill:#604046;}.c{fill:#422c30;}.d{fill:#b8b7bd;}.e{fill:#9d9aa6;}.f{fill:#b48c50;}.g{fill:#bd9a65;}.h{fill:#b79157;}.i{fill:#c6aa2f;}.j{fill:#6b6973;}.k{fill:#b68f54;}.l{fill:#3b3a3e;}.m{fill:#402a2e;}.n{fill:#616068;}</style></defs><title>armour_god_air_platelegs</title><path class="a" d="M256,57.23l-84.86,76.19L256,125.83l84.86,7.59Z"/><path class="b" d="M447.52,197.56,512,376.78,446.05,440.1l-39,14.67L336.55,232.83Z"/><path class="c" d="M395.53,267.38l48,146.74,51.4-44-49.28-131.3Z"/><path class="d" d="M376.89,359.94,374.63,365l13.24,39.66,36.64-11.47,75.9-58.43-13.36-36.51-3.36-.41,1.82,5.46-72.72,52.17-34.07,9.77Z"/><path class="e" d="M399.35,238.71c3,13.65,6.15,27.26,12,40.44-11.5,28.35-21.59,57.25-28.29,87.52-25.53,22.67-43.38,50.72-59.34,80.08-20-2.62-39.66-2.08-59,.05V290.67l48.57-39.49Z"/><path class="f" d="M226.4,181.41l-14.46.51,9,39.39,20.6,23.08,14.63,6.24,14.64-6.9,20.62-24,9-39.79-14.47.14L256.16,189Z"/><path class="g" d="M256.16,189l0,61.67,14.64-6.9,20.62-24,9-39.79-14.47.14Z"/><path class="h" d="M226,194.74l4.57,18.87L247.06,232l9.06,8.46,7.74-7.29,17.86-20.65,4.58-19.08-29.92,4.91Z"/><circle class="i" cx="256.35" cy="215.96" r="12.29" transform="translate(0.71 432.77) rotate(-80.41)"/><path class="d" d="M374.43,263.39,375,239,264.68,290.68V405.86a186.07,186.07,0,0,1,43.49-.12c14.72-26.87,30.34-53.37,52.45-76.88a429.87,429.87,0,0,1,13.81-65.47Z"/><path class="j" d="M329.25,318.77c-7.38-2.28-13.42-8.81-12.94-17.54v-.06c2.36-12.78,11.11-17.51,23.19-21.93-2.53-9.28-6.05-18.13-6.13-27.52h0a15.65,15.65,0,0,1,2.91-9.57l4.19,2.27a12,12,0,0,0-2.15,7.28h0a41.93,41.93,0,0,0,.59,6.28c1,6.21,3.24,12.58,5.13,19.38,10.19-2.9,18.27-4.26,22.38-12.84a17.71,17.71,0,0,0,1.58-9l4.94-.3A21.24,21.24,0,0,1,371,266.14c-4.77,9.58-15.46,12.82-25.68,15.49,3.16,8.12,9.1,19,4.47,29.55l0,.07,0,.07c-4.09,7.68-13.12,9.84-20.5,7.56Zm16-9.28c3.54-8.18-1.09-17.77-4.34-26.1-10.33,3.81-18.56,9-19.57,18h0c-.39,7,4.3,11.7,9.67,13.36,6.4,1.88,11.84-1,14.24-5.3Zm-93.69,92.63-1.84-3.93,30-10.21a4.67,4.67,0,0,0,2-1.3c6.58-6.43,6.65-14.71,7.2-22.4a71.68,71.68,0,0,1-15.13-8.11c-.45-.35-.62-.36-1.28-.24l-22.21,4.14-1-4.12,24-4.48c1-.13,1.24-.15,1.92.32a75.49,75.49,0,0,0,14.3,7.83c.64-6,.23-12.46,1.75-17.71,4.48-15.19,20.68-15.14,27.37-6.4,7.4,9.74,6.91,24.61-1.52,30.2-7.53,4.28-16.1,2.91-23.38.52-.4,8.39-2.39,18.72-9.09,24.12a5.68,5.68,0,0,1-2.27,1.27Zm62.69-39.89c7.27-4.48,6.06-17.55.51-24-4.59-5.33-16.64-6.11-18.67,4.44A157.4,157.4,0,0,0,294.17,362c6.78,2.52,14.39,3.21,20.06.22Z"/><path class="j" d="M284.9,385.05c-11.07-4.4-13.32-15.16-11.39-24.09,3.18-13.2,12.85-17.28,26.84-13.11-1.17-5.84-1.44-12.58.34-17.66l0-.1,0-.12c4.1-8.09,9.12-20.14,16.53-26l0,0,0,0c4.78-3.52,10.57-5,16-6.68-2.7-4.41-5.55-9-7-14.08-1.56-5.78-1.19-11.94,1.94-16.8,4.75-6.8,15.81-10.25,23.34-7.34,11.09,4.61,15.07,15.36,11,24.05-4.73,8.61-13.58,13-22.81,16.21,4.16,6.81,8.35,16.59,6,23.1l-10.8,24.14a17.25,17.25,0,0,1-7.1,8.13c-7.38,3.54-14.65,1.81-21.4-.58.73,7.57.92,15.55-1.5,21.58a16.05,16.05,0,0,1-20,9.41Zm1.86-3.93c6.91,2,11.4-2,13.48-6.91,2.45-7.68,2.17-14.74.89-21.68-11.27-4.5-20.52.2-22.74,9.21-1.52,7.13-.07,16.38,8.36,19.38Zm38.4-30a13.1,13.1,0,0,0,5.21-6.14L341.07,321c1.69-7.34-2.19-13.93-5.76-19.88-5.4,1.7-10.88,3.19-14.67,6-5.5,4.34-11,16.08-15.21,24.32-1.95,6.3-.91,12,.2,17.9l.16.05c5.93,2.11,13.42,4.8,19.3,1.66Zm12.67-55.67c8.43-2.78,16.77-7.27,20.22-14,3.14-8,.42-17-9.51-19.18-6.59-1.08-12.84,1.69-15.9,6.2-2.67,4.39-2.66,9.35-1.45,13.73s3.94,8.85,6.63,13.25Z"/><path class="k" d="M322.47,243.82l-12,2.45,13,31.51,20.39,16.31,13.05,3.2,11.2-7.79,13.79-22.87,1.89-34.37-12,2.15L348.29,246Z"/><circle class="i" cx="350.61" cy="265.23" r="10.37"/><path class="b" d="M64.46,197.56,0,376.78,66,440.1l39,14.66,70.52-221.94Z"/><path class="c" d="M116.46,267.38l-48,146.74-51.4-44L66.44,238.84Z"/><path class="d" d="M135.1,359.94l2.26,5.05-13.23,39.65L87.48,393.18l-75.9-58.43,13.36-36.51,3.36-.42-1.81,5.47,72.72,52.18,34.07,9.77Z"/><path class="e" d="M112.65,238.71c-3,13.65-6.16,27.26-12,40.44,11.5,28.35,21.59,57.25,28.29,87.52,25.53,22.67,43.39,50.72,59.34,80.08,20.05-2.62,39.66-2.08,59,.05V290.67l-48.57-39.49Z"/><path class="d" d="M256,290.67h27.75l27.9-36.61,12.54-37.88L305,167.28l-49-41.47Z"/><path class="l" d="M256,57.23l84.86,76.19L256,125.83Z"/><path class="c" d="M256,252.14H399.51l62.37-36V126.54L256,125.9Z"/><path class="d" d="M137.56,263.39,137.05,239l110.26,51.67V405.86a186.07,186.07,0,0,0-43.49-.12c-14.72-26.87-30.33-53.37-52.45-76.88a429.84,429.84,0,0,0-13.8-65.47Z"/><path class="j" d="M182.74,318.77c7.37-2.28,13.42-8.81,12.94-17.54v-.06c-2.36-12.76-11.1-17.5-23.18-21.93,2.53-9.28,6-18.12,6.19-27.58h0a15.63,15.63,0,0,0-2.92-9.57l-4.19,2.27a12,12,0,0,1,2.14,7.28h0a41.43,41.43,0,0,1-.58,6.28c-1,6.21-3.24,12.58-5.14,19.37-10.13-2.89-18.27-4.25-22.38-12.83a17.86,17.86,0,0,1-1.58-9l-4.95-.31A21.43,21.43,0,0,0,141,266c4.77,9.57,15.46,12.81,25.68,15.5-3.16,8.11-9.1,19-4.47,29.55l0,.07,0,.07c4.1,7.61,13.12,9.84,20.5,7.56Zm-15.93-9.27c-3.54-8.18,1.09-17.78,4.33-26.1,10.33,3.81,18.62,8.89,19.57,18h0c.38,7-4.3,11.7-9.68,13.36a12.09,12.09,0,0,1-14.24-5.3Z"/><path class="j" d="M260.5,402.12l1.83-3.93-30-10.21a4.61,4.61,0,0,1-2.05-1.29c-6.58-6.43-6.66-14.71-7.2-22.46a72.61,72.61,0,0,0,15.13-8.11,1.15,1.15,0,0,1,1.21-.24L261.64,360l1.05-4.13-24-4.47c-1-.14-1.24-.15-1.86.32a72.72,72.72,0,0,1-14.3,7.82c-.63-6-.22-12.46-1.74-17.71-4.41-15.19-20.68-15.14-27.37-6.34-7.41,9.75-6.91,24.61,1.52,30.22,7.53,4.31,16.11,2.9,23.38.51.39,8.4,2.39,18.72,9.08,24.12a5.58,5.58,0,0,0,2.27,1.27Zm-62.7-39.88c-7.28-4.42-6.07-17.56-.52-24,4.59-5.34,16.64-6.11,18.67,4.43,1.35,7,1.52,13.07,1.91,19.35-6.78,2.52-14.39,3.21-20.06.22Z"/><path class="j" d="M227.09,385c11.07-4.4,13.32-15.15,11.39-24.1-3.18-13.19-12.85-17.22-26.84-13.1,1.17-5.84,1.44-12.58-.34-17.67l0-.1,0-.11c-4.09-8.1-9.12-20.15-16.52-26l0,0,0,0c-4.78-3.52-10.58-5-16-6.67,2.7-4.42,5.54-9,7-14.14,1.55-5.78,1.13-11.95-1.95-16.8-4.75-6.81-15.79-10.26-23.33-7.34-11.09,4.61-15.07,15.42-11,24.05,4.73,8.61,13.58,13,22.81,16.21-4.16,6.81-8.34,16.59-6,23.09l10.79,24.14a17.17,17.17,0,0,0,7.12,8.14c7.37,3.54,14.64,1.81,21.38-.58-.73,7.57-.91,15.56,1.51,21.58a16,16,0,0,0,20,9.41Zm-1.85-3.93c-6.91,2-11.4-2-13.48-6.91-2.46-7.74-2.17-14.73-.9-21.68,11.28-4.49,20.52.2,22.74,9.21,1.52,7.13.07,16.38-8.36,19.38Zm-38.32-30a13.2,13.2,0,0,1-5.22-6.15L171,321c-1.69-7.35,2.25-13.94,5.69-19.89,5.41,1.7,10.81,3.19,14.68,6,5.5,4.34,11,16.08,15.19,24.32,2,6.31.92,12.06-.18,17.9l-.17.05c-5.94,2.12-13.42,4.8-19.31,1.66Zm-12.68-55.68c-8.43-2.79-16.77-7.27-20.23-14-3.12-8-.42-17,9.51-19.18,6.6-1.09,12.84,1.68,15.9,6.19,2.68,4.4,2.67,9.36,1.45,13.73s-3.94,8.85-6.63,13.26Z"/><path class="c" d="M247.31,305.08V446.8l8.69-6,8.69,6V305.08Z"/><path class="k" d="M189.52,243.82l12,2.45-13,31.51-20.38,16.31-13.06,3.2-11.2-7.79-13.78-22.87-1.9-34.37,12,2.15L163.71,246Z"/><circle class="i" cx="161.38" cy="265.23" r="10.37"/><path class="d" d="M256,290.67H228.25l-27.9-36.61L187.8,216.18l19.2-48.9,49-41.47Z"/><path class="m" d="M256,252.14H112.49l-62.37-36V126.54L256,125.9Z"/><path class="b" d="M461.87,126.54H441.49l.36,82.53L389.36,235.5l-61.89-.73L256,252.15l148.4.18,57.48-36.19Z"/><path class="b" d="M50.12,126.54H70.5l-.36,82.53,52.49,26.43,61.9-.73L256,252.15l-148.39.18L50.13,216.14Z"/><path class="e" d="M256,121l-44.51,35.52-21.88,14.76c-3.48,18.26-10,36.52-19,54.78,5.57,12.84,12.59,24.94,14.34,39.68,13.09,12.42,26.63,24.26,37.12,39.94,22.41-1.1,45-.94,67.77,0,10.48-15.68,24-27.52,37.12-39.94,1.75-14.74,8.76-26.84,14.33-39.68-8.93-18.25-15.46-36.51-18.94-54.78-7.73-4.83-15-9.77-21.89-14.76C285.1,145.46,271.09,132.19,256,121Z"/><path class="d" d="M256,125.83c-14.79,15.16-31.87,28.31-49,41.47-4.08,16.69-11,32.88-19.2,48.89,6.59,12,9.64,24.91,12.54,37.89,11.76,11.52,20.2,24,27.9,36.61a274,274,0,0,1,55.49,0c7.7-12.61,16.14-25,27.9-36.61,2.91-13,5.95-25.92,12.54-37.89C316,200.2,309.06,184,305,167.3,287.87,154.15,270.77,141,256,125.83Z"/><path class="g" d="M256.52,191.58l0,72.45,13.43-8.1,18.94-28.19L297.13,181l-13.28.16Z"/><path class="k" d="M229.2,182.71l-13.28.6,8.23,46.28,18.92,27.11L256.5,264l13.43-8.1,18.94-28.19L297.13,181l-13.28.16-27.33,10.42Z"/><circle class="i" cx="256.35" cy="220.3" r="12.29" transform="translate(-3.57 436.39) rotate(-80.41)"/><path class="n" d="M393,212.09l22.59,43.66-4.4,2.61,10.22,9,15.36-8.7-7.17-65.53Zm-274.08,0L96.37,255.75l4.4,2.61-10.23,9-15.36-8.7,7.17-65.53Z"/></svg>