<svg xmlns="http://www.w3.org/2000/svg" viewBox="0 0 512 512"><defs><style>.a{fill:#9d9aa6;}.b{fill:#b8b7bd;}.c{fill:#422c30;}.d{fill:#604046;}.e{fill:#bd9a65;}.f{fill:#3a272a;}.g{fill:#928f9c;}.h{fill:#b79157;}.i{fill:#2d1f21;}.j{fill:#7e545d;}.k{fill:#362427;}.l{fill:#c3c3c7;}.m{fill:#7a5230;}.n{fill:#815733;}.o{fill:#c6aa2f;}</style></defs><title>armour_god_air_boots</title><path class="a" d="M286.22,283.42l-19.36,23.67v67.25l63.21,63.21,109.32,29.3,34.5-34.49-8.51-68.77L397.05,306Z"/><path class="b" d="M286.22,283.42l-19.36,23.67c10.21,10.44,18.26,21.26,25.82,32.28,23.59,14.72,46.86,29.58,66.16,46.26,43.92-6.45,52.72-1.2,78.47-1.6,5.37-8.41,16-14.7,28-20.45-28.5-27.12-60.87-51.41-91.53-77.06Z"/><path class="c" d="M267.82,352.41v14.45c22.61,20.12,45,40.5,64.29,63.91,32.71,4,65.44,11.72,98.14,21.68,13.29-13.14,25.32-27.24,41.39-38.22l2.36,2.84.76,17.51c-12.4,11-21.22,24.4-29.67,38l-16,2.66a635.53,635.53,0,0,0-104.22-21.67,628.81,628.81,0,0,0-68.47-73l1.9-23.28Z"/><path class="a" d="M143,318.27l-19.36,23.67v67.24l63.21,63.21L296.21,501.7l34.5-34.49-8.52-68.77-68.32-57.57Z"/><path class="b" d="M143,318.27l-19.36,23.67c10.21,10.44,18.26,21.26,25.82,32.27,23.59,14.72,46.86,29.58,66.16,46.27,43.92-6.46,52.72-1.21,78.47-1.61,5.37-8.4,16-14.69,28-20.44-28.5-27.12-60.87-51.41-91.53-77.06Z"/><path class="c" d="M124.63,387.27v14.45c22.61,20.12,45,40.5,64.29,63.91,32.71,4,65.44,11.73,98.14,21.68,13.29-13.13,25.32-27.24,41.39-38.22l2.36,2.85.76,17.5c-12.4,11-21.22,24.41-29.66,38l-16.06,2.67a635.33,635.33,0,0,0-104.22-21.68,628.7,628.7,0,0,0-68.47-73l1.9-23.29Z"/><path class="d" d="M280,276.28l-2.69,18.08,13.45,11.52c17.66,11.47,34,20.81,56.49,26.47l36.37,9.15,19.45-30.56c1.33-2.41-1.47-21.33-4.64-27.81l-3-8.15.3-8.05,6.05-72.77-130.22,2.32L276.37,273Z"/><path class="b" d="M276.18,272l119.43-3.24,1.22,3.5.32,3.45-35.63,18.9-85.33-18.31Z"/><path class="d" d="M346.89,254.94l48.73,13.79-35.45,20.78-84-17.54Z"/><path class="b" d="M271,205.93l.28,5.31.21,12.72,66.33,10.64,63.34-10,.37-12.94v-3.83l-.63-1.36-.74,2.89-62.48,6.83-63.32-9-.27-2.8Z"/><path class="b" d="M272.61,242l.86,21.29,49.59,11.57,23.47,4.31,29.39-8.48L401,263.6l.36-15v-4.45l-4.09-2.94.19,2.87-59,9.79-61-10.09-3.2-4.81Z"/><path class="d" d="M226.55,98.25,255,211.14l55.07,9.59,24.77-5.86-40-136.63Z"/><path class="c" d="M303.15,129.48l16.36,80.64-54.84-8.19L246.6,132Z"/><path class="e" d="M320.17,166.42l2.87,1.79,6.82,24.62-17.18,7.07-64.62-9.52-4.83-17.65,1.69-1.56,1,3.59,54.46,1.63L321,169.72Z"/><path class="d" d="M434.93,92.71,410.33,198l-58.89,28.5-24.91-5.2L362.87,83.67Z"/><path class="c" d="M387.2,108l-26.59,90.55,41.12-4.38,20.55-83.24Z"/><path class="e" d="M342.08,163.87l-2.81,1.87-6.16,24.81,22.66,6.09,58.32-5.28,5.05-23.2-1.6-1.32-.85,3.41-54.63,3.1-20.78-6.13Z"/><path class="f" d="M193.83,22.4l260.34-6L468.23,85.3l-65.51,19.43L246.82,107l-66.4-10.62Z"/><path class="g" d="M256.39,48.19l128.94-.69,3.27,44.36L253.85,94Z"/><path class="h" d="M252.74,2l138.1-2,63.34,16.44-60.5,21.3L253.19,39.11l-59.35-16.7Z"/><path class="g" d="M446.64,30.83l9.91,47.57L411.4,91.57l-6-46.22Zm-247,2.91L189.6,89.32l49.9,8L245,46.45Z"/><path class="i" d="M222.37,20.52l35,10.88,132.59-2.74L425.54,17.5,394.09,7.1l-142,3.47Z"/><path class="j" d="M458.91,407.26l-10,61.06-3.1,4-15.87,4.78-15.65-1.9-4.4-4.26-17.79-59,32.83-12.47Z"/><path class="k" d="M401.67,416.77l23.58-8.89,24.9,6.05-6.94,51.12-1.67,1.79-12,1.69-11.9-.31-2.35-2.11Z"/><path class="j" d="M443.59,31.83,409.56,193l-8.72,10.37-42.77,10.82-41.38-6.94L305.5,195.36,265.29,36.23,354.08,7Z"/><path class="k" d="M290.25,50.23,354,29.43,419.49,48.5,394.91,183.58l-4.66,4.56-32.18,3.06-31.62-2.26-6-5.88Z"/><path class="l" d="M359.52,36.87l6.06,15.9a12.55,12.55,0,0,1,7.59-2.33l-2-10.21Zm5.1,19.18a15,15,0,0,0-1.69,2.14,18.15,18.15,0,0,0-2.55,6.75c-1.14,6.48.49,13.09,3.72,18.86A31.48,31.48,0,0,1,373,79c-1.24-3.31-2.14-7.08-1.13-10.48a9.53,9.53,0,0,1,3.71-5.23,7.63,7.63,0,0,1,6.25-1.08,7.14,7.14,0,0,1,4.66,4.32,7.4,7.4,0,0,1-.5,6.37,3.44,3.44,0,0,1-.84,1.18l6,8.78a12.13,12.13,0,0,0,2.67-3.33,16.1,16.1,0,0,0,2.28-9.36,18.07,18.07,0,0,0-5-10.95A24,24,0,0,0,380.74,53a21.39,21.39,0,0,0-6.29-1,14.11,14.11,0,0,0-6.19,1.39,12.78,12.78,0,0,0-3.62,2.7Zm13.76-13.71,22.53,21.58s-.74,19.33-3.55,27c-2.21,4.06-5.55,7.82-9.36,8.65l5.05,7.57a20.62,20.62,0,0,0,6.21-3.71,15.79,15.79,0,0,0,5.22-8.19,31.62,31.62,0,0,0,.6-5.14l2-28.44L392,46.3Zm-3.57,23.14a7.35,7.35,0,0,0-1.61,2.57l2.71,4.86,13,22.09c.43.82.52,1.35.93,2.18a16.43,16.43,0,0,0,5.43-5.4c-5.58-9.83-13-17.83-17.84-28a8.09,8.09,0,0,0-2.56,1.69ZM364.45,85.67a8.12,8.12,0,0,0-.62.8,21.16,21.16,0,0,0-2.67,17.7,30.44,30.44,0,0,0,2.33,5.8,24.07,24.07,0,0,1,7.25-6.6,18.4,18.4,0,0,1,.06-6.55A8.55,8.55,0,0,1,373.63,91a11.92,11.92,0,0,1,6.15-3l3.13-.79-5.21-8.69c-2.2,1.52-9.84,3.29-13.26,7.13Zm9.66,6.42a9.35,9.35,0,0,0-1.66,2.43c4.51,5.78,10.57,11,13.48,17.44a15.31,15.31,0,0,1,.84,7.72,11.19,11.19,0,0,1-2.45,5.88l5.91,8.22a13.16,13.16,0,0,0,3.65-4.33,15.72,15.72,0,0,0,1.89-7.29,23.09,23.09,0,0,0-1.16-7.5,31.79,31.79,0,0,0-3-6.89l-5.07-7.54-2.78-3.67-5.36-7.12A12.35,12.35,0,0,0,374,92.07Zm-7.26,16.27a26,26,0,0,0-5.74,9.13,22.85,22.85,0,0,0,.84,15.36c7.62,4.8,13.11,4.73,19.89,4.78l-5.58-7.81a9.83,9.83,0,0,1-5.69-1.36c-2.83-7.94,2.5-14.41,10.77-17.62l2-.61a61,61,0,0,0-5.7-7.89,21.8,21.8,0,0,0-3.54,1,18.7,18.7,0,0,0-7.23,5Zm7.48,8.35c-1.48,1.48-2.85,3.79-2.61,5.29,2.13,2.41,4,5.14,5.71,7.46l5.59,7.75a79.93,79.93,0,0,1,4.24,7.15,43.83,43.83,0,0,0,4.22-6.38l-1.8-3.14-.34-.47-5.95-8-4.84-6.53-2.77-4.33a6.47,6.47,0,0,0-1.47,1.13Zm-12.65,22.07a29.32,29.32,0,0,0-.5,14.53,31.77,31.77,0,0,0,3.16,9.38,21.1,21.1,0,0,1,5.23-4.6c-.74-2.86-.08-5.7.75-8.55A27,27,0,0,1,380.74,158a19.71,19.71,0,0,1,3,5.73,12.93,12.93,0,0,1,.43,6.44,9.76,9.76,0,0,1-.85,2.7l6.5,6.18a7.39,7.39,0,0,0,.89-.88,12.3,12.3,0,0,0,2.79-7.65,20.48,20.48,0,0,0-1.59-8.09c-3-7.63-9.06-13.84-16.13-18a48.46,48.46,0,0,0-14.12-5.6ZM394.37,108c5.82,11.44,3.63,21-.94,28.74a33.33,33.33,0,0,1-8.72,12.75,28.75,28.75,0,0,1,4.71,5.7,34.46,34.46,0,0,0,9.65-12.26,43.18,43.18,0,0,0,2.8-7.09l1.73-9.56.11-1.45a53,53,0,0,0-3.06-20.69,15.16,15.16,0,0,1-6.27,3.86Zm-27.78,54.34a21.43,21.43,0,0,0-1.88,2.15,15.46,15.46,0,0,0-3,6.9c-.63,5.09,1.91,9.27,3.24,13.12a19.22,19.22,0,0,1,6.95-4.26A11.43,11.43,0,0,1,370,174a10.64,10.64,0,0,1,1.68-5.93,15.88,15.88,0,0,1,4.27-4.52,38.42,38.42,0,0,1,5.07-3.07,39.31,39.31,0,0,0-4.37-5.27l-6.38,4a29.67,29.67,0,0,0-3.62,3.09Zm6.85,5.28a8.76,8.76,0,0,0-2.16,4.14l2.22,2.55,4.22,4.45,4.53,4.36,4.35,3.82,2.17-.2,3.67-3.61L389,179.73l-6.35-5.87-1-.81-6.18-5.71-.79-.85a11.49,11.49,0,0,0-1.3,1.21ZM397,148.94a22.52,22.52,0,0,1-4.81,5.6,36.51,36.51,0,0,1,1.12,4.2,47.56,47.56,0,0,1,1.4,10.83l.95.15,2.95-16.17L397,148.93Zm-31.92,36.75a14.28,14.28,0,0,0-2.53,3.51l10.64-1a13.47,13.47,0,0,1,2.26-1.94,24.83,24.83,0,0,1,5.76-2.82l-4.41-4.29c-3.55,2.09-7.25,3-10.45,5.43a11.49,11.49,0,0,0-1.28,1.13ZM375.31,188l2.48-.23-.68-.93a13.48,13.48,0,0,0-1.8,1.16Z"/><path class="b" d="M351.76,35.87,346.19,52a12.46,12.46,0,0,0-7.66-2.1l1.68-10.26Zm-4.5,19.32A15.89,15.89,0,0,1,349,57.28,18.3,18.3,0,0,1,351.77,64c1.34,6.44-.09,13.1-3.14,19a31.47,31.47,0,0,0-9-4.49c1.14-3.35,1.91-7.14.8-10.51a9.47,9.47,0,0,0-3.87-5.11,7.59,7.59,0,0,0-6.27-.89,7.14,7.14,0,0,0-4.53,4.47,7.38,7.38,0,0,0,.7,6.35,3.54,3.54,0,0,0,.87,1.15l-5.69,9a12.17,12.17,0,0,1-2.78-3.24,16.1,16.1,0,0,1-2.56-9.29,18,18,0,0,1,4.62-11.1A24,24,0,0,1,331,52.63a21,21,0,0,1,6.26-1.21,14,14,0,0,1,6.24,1.19,13,13,0,0,1,3.69,2.58ZM333.08,41.92,311.23,64.18s1.33,19.3,4.37,26.88c2.34,4,5.79,7.64,9.63,8.35l-4.81,7.73a20.5,20.5,0,0,1-6.33-3.52,15.84,15.84,0,0,1-5.47-8,32.55,32.55,0,0,1-.76-5.13L305,62.12l14.66-15.83Zm4.28,23a7.64,7.64,0,0,1,1.7,2.51l-2.57,5L324.23,94.88c-.4.83-.48,1.36-.86,2.2a16.25,16.25,0,0,1-5.6-5.23c5.27-10,12.42-18.22,17-28.53a7.66,7.66,0,0,1,2.61,1.61Zm11,19.85a5.89,5.89,0,0,1,.65.77,21.14,21.14,0,0,1,3.22,17.62,31.71,31.71,0,0,1-2.15,5.87,24.32,24.32,0,0,0-7.45-6.38,18.14,18.14,0,0,0-.27-6.54,8.52,8.52,0,0,0-3-5.78,11.85,11.85,0,0,0-6.23-2.76l-3.15-.69,4.93-8.85c2.25,1.45,9.94,3,13.48,6.71Zm-9.45,6.72a9,9,0,0,1,1.73,2.37c-4.33,5.91-10.22,11.36-12.93,17.84a15.26,15.26,0,0,0-.6,7.75,11.19,11.19,0,0,0,2.63,5.8l-5.65,8.4a12.93,12.93,0,0,1-3.78-4.21,15.8,15.8,0,0,1-2.12-7.24,23.11,23.11,0,0,1,.92-7.52,36.46,36.46,0,0,1,2.83-7l4.83-7.7,2.67-3.75L334.54,89A12.38,12.38,0,0,1,339,91.48Zm7.76,16a26,26,0,0,1,6,8.95,22.76,22.76,0,0,1-.36,15.38c-7.46,5-13,5.13-19.73,5.39l5.34-8a9.78,9.78,0,0,0,5.64-1.54c2.58-8-3-14.32-11.31-17.27l-2-.55a61.93,61.93,0,0,1,5.46-8.06,22,22,0,0,1,3.57.93,18.73,18.73,0,0,1,7.38,4.76Zm-7.22,8.58c1.53,1.43,3,3.7,2.77,5.21-2.06,2.47-3.8,5.25-5.48,7.63l-5.35,7.92a78.27,78.27,0,0,0-4,7.28,45.15,45.15,0,0,1-4.42-6.25l1.71-3.2.32-.48,5.7-8.18,4.63-6.67,2.64-4.42a6.53,6.53,0,0,1,1.51,1.09Zm13.32,21.67a29.28,29.28,0,0,1,.95,14.51,31.87,31.87,0,0,1-2.86,9.47,21.15,21.15,0,0,0-5.37-4.44c.65-2.89-.1-5.7-1-8.52a27,27,0,0,0-10.15,8.75,19.6,19.6,0,0,0-2.86,5.82,13,13,0,0,0-.23,6.44,10,10,0,0,0,.94,2.68l-6.3,6.37a7.35,7.35,0,0,1-.93-.84,12.38,12.38,0,0,1-3-7.57,20.57,20.57,0,0,1,1.34-8.13c2.77-7.72,8.63-14.11,15.56-18.51a48.26,48.26,0,0,1,13.94-6ZM319.12,108c-5.46,11.62-3,21.14,1.83,28.7a33.26,33.26,0,0,0,9.11,12.47,28.38,28.38,0,0,0-4.53,5.85,34.46,34.46,0,0,1-10-12,42.44,42.44,0,0,1-3-7l-2-9.5-.16-1.45a53.26,53.26,0,0,1,2.42-20.78,15.05,15.05,0,0,0,6.39,3.67Zm29.45,53.46a21.33,21.33,0,0,1,1.94,2.09,15.42,15.42,0,0,1,3.26,6.8c.78,5.06-1.64,9.32-2.84,13.21a19.41,19.41,0,0,0-7.08-4,11.42,11.42,0,0,0,1.72-6.3,10.65,10.65,0,0,0-1.87-5.88,15.62,15.62,0,0,0-4.41-4.39,37.8,37.8,0,0,0-5.16-2.91,39.32,39.32,0,0,1,4.21-5.4l6.5,3.84a30.54,30.54,0,0,1,3.72,3ZM341.88,167a8.7,8.7,0,0,1,2.29,4.07L342,173.65,338,178.22l-4.39,4.51-4.24,3.94-2.17-.13-3.78-3.49,3.3-3.49,6.17-6.06,1-.84,6-5.9.76-.88a12.56,12.56,0,0,1,1.34,1.18ZM317.71,149a22.74,22.74,0,0,0,5,5.45,37.63,37.63,0,0,0-1,4.23,47.79,47.79,0,0,0-1.07,10.87l-.95.18-3.44-16.07,1.46-4.67Zm33,35.75a14.08,14.08,0,0,1,2.64,3.43l-10.66-.68a14,14,0,0,0-2.33-1.87,24.84,24.84,0,0,0-5.84-2.64l4.27-4.42c3.62,2,7.34,2.73,10.63,5.1a12.41,12.41,0,0,1,1.31,1.09Zm-10.11,2.61-2.48-.16.64-.95a14.2,14.2,0,0,1,1.84,1.1Z"/><path class="h" d="M304.89,197.87,314.51,246l46.15,35.17,45.42-36.1,8.65-48.33L359.91,208.2Z"/><path class="e" d="M359.93,208.2l.74,73,45.42-36.1,8.66-48.33Z"/><path class="m" d="M320.79,214.64,327,237l33.54,27.41,33-28.07,5.72-22.53-39.1,11Z"/><path class="n" d="M360.1,224.83l.4,39.63,33-28.07,5.72-22.53Z"/><circle class="o" cx="360.12" cy="241.35" r="10.95" transform="translate(-2.41 3.63) rotate(-0.58)"/><path class="d" d="M136.81,311.14l-2.7,18.08,13.45,11.52c17.66,11.47,34,20.81,56.49,26.47l36.37,9.16,19.45-30.57c1.33-2.41-1.47-21.33-4.64-27.8l-3-8.15.3-8.06L258.56,229l-130.22,2.31,4.84,76.56Z"/><path class="b" d="M133,306.84l119.43-3.25,1.22,3.5.32,3.45-35.63,18.9L133,311.13Z"/><path class="d" d="M203.71,289.8l48.73,13.79L217,324.37l-84-17.54Z"/><path class="b" d="M127.78,240.78l.28,5.32.21,12.71,66.33,10.65,63.34-10,.37-12.94v-3.84l-.63-1.36-.74,2.89L194.47,251,131.15,242l-.27-2.81Z"/><path class="b" d="M129.43,276.86l.86,21.29,49.59,11.58L203.35,314l29.39-8.49,25.09-7.1.36-15V279L254.1,276l.19,2.88-59,9.79-61-10.09-3.2-4.81Z"/><path class="d" d="M83.36,133.12,111.84,246l55.07,9.59,24.77-5.86-40-136.63Z"/><path class="c" d="M160,153.8,176.32,245l-54.84-9.25-18.07-79Z"/><path class="e" d="M177,201.27l2.87,1.79,6.82,24.63-17.18,7.06-64.62-9.52L100,207.58l1.69-1.56,1,3.59,54.46,1.63,20.61-6.66Z"/><path class="d" d="M291.76,127.56l-24.6,105.3-58.89,28.51-24.91-5.21L219.7,118.52Z"/><path class="c" d="M244,142.88l-26.59,90.55L258.56,229l20.55-83.24Z"/><path class="e" d="M198.9,198.72l-2.81,1.87-6.16,24.81,22.66,6.08,58.32-5.27L276,203l-1.6-1.31-.85,3.41-54.63,3.09-20.78-6.12Z"/><path class="f" d="M50.65,57.26l260.34-6,14.06,68.87-65.51,19.43-155.9,2.27-66.4-10.62Z"/><path class="g" d="M113.21,83.05l128.94-.69,3.27,44.36-134.75,2.15Z"/><path class="e" d="M109.56,36.88l138.1-2L311,51.29,250.5,72.6,110,74,50.65,57.26Z"/><path class="g" d="M303.46,65.69l9.91,47.57-45.15,13.17-6-46.22Zm-247,2.89L46.42,124.17l49.9,8,5.46-50.86Z"/><path class="i" d="M79.19,55.38l35,10.88,132.59-2.74,35.61-11.16L250.91,42l-142,3.48Z"/><path class="j" d="M315.73,442.12l-10,61.06-3.1,4L286.72,512l-15.65-1.9-4.4-4.26-17.79-59,32.83-12.46Z"/><path class="k" d="M258.49,451.63l23.58-8.89,24.9,6L300,499.9l-1.67,1.79-12,1.7-11.9-.31L272.08,501Z"/><path class="j" d="M300.41,66.69l-34,161.14-8.72,10.37L214.89,249l-41.38-6.93-11.19-11.86L122.11,71.09l88.79-29.2Z"/><path class="k" d="M147.07,85.08l63.78-20.8,65.46,19.07L251.73,218.43,247.07,223l-32.17,3.05-31.63-2.25-6-5.88Z"/><path class="l" d="M216.34,71.73l6.06,15.9A12.49,12.49,0,0,1,230,85.3l-2-10.21Zm5.1,19.17A15,15,0,0,0,219.75,93a18.22,18.22,0,0,0-2.55,6.75c-1.14,6.49.49,13.1,3.72,18.87a31.23,31.23,0,0,1,8.9-4.76c-1.24-3.32-2.14-7.09-1.13-10.49a9.47,9.47,0,0,1,3.72-5.22,7.6,7.6,0,0,1,6.24-1.09,7.18,7.18,0,0,1,4.66,4.33,7.37,7.37,0,0,1-.5,6.36A3.48,3.48,0,0,1,242,109l6,8.77a11.94,11.94,0,0,0,2.67-3.32,16.15,16.15,0,0,0,2.28-9.37,18.07,18.07,0,0,0-5-10.94,24,24,0,0,0-10.37-6.28,21.07,21.07,0,0,0-6.29-1,14.24,14.24,0,0,0-6.19,1.38,13.17,13.17,0,0,0-3.62,2.7ZM235.2,77.2l22.53,21.57s-.74,19.33-3.55,27c-2.21,4.07-5.55,7.83-9.36,8.65l5.05,7.58a20.45,20.45,0,0,0,6.21-3.72,15.73,15.73,0,0,0,5.22-8.18,31.74,31.74,0,0,0,.6-5.15l2-28.43L248.79,81.15Zm-3.57,23.14a7.26,7.26,0,0,0-1.61,2.57l2.71,4.86,13,22.09c.43.82.52,1.35.93,2.17a16.34,16.34,0,0,0,5.43-5.4c-5.58-9.82-13-17.83-17.84-28a7.93,7.93,0,0,0-2.56,1.69Zm-10.36,20.19a9.36,9.36,0,0,0-.62.79A21.18,21.18,0,0,0,218,139a30.7,30.7,0,0,0,2.33,5.8,24.1,24.1,0,0,1,7.25-6.61,18.4,18.4,0,0,1,.06-6.55,8.53,8.53,0,0,1,2.83-5.86,11.85,11.85,0,0,1,6.15-3l3.13-.79-5.21-8.69c-2.2,1.52-9.84,3.29-13.26,7.12Zm9.66,6.42a9,9,0,0,0-1.66,2.43c4.51,5.77,10.57,11,13.48,17.43a15.34,15.34,0,0,1,.84,7.73,11.23,11.23,0,0,1-2.45,5.88l5.91,8.21a13.12,13.12,0,0,0,3.65-4.32,15.76,15.76,0,0,0,1.89-7.3,23.07,23.07,0,0,0-1.16-7.49,31.58,31.58,0,0,0-3-6.89l-5.07-7.54-2.78-3.67-5.36-7.12a12.35,12.35,0,0,0-4.33,2.63Zm-7.26,16.27a26,26,0,0,0-5.74,9.13,22.85,22.85,0,0,0,.84,15.36c7.62,4.8,13.11,4.72,19.89,4.78l-5.58-7.81a9.84,9.84,0,0,1-5.69-1.37c-2.83-7.94,2.5-14.4,10.77-17.62l2-.6a61,61,0,0,0-5.7-7.89,22.82,22.82,0,0,0-3.54,1,18.73,18.73,0,0,0-7.23,5Zm7.48,8.35c-1.48,1.47-2.85,3.79-2.61,5.29,2.13,2.41,4,5.14,5.71,7.45l5.59,7.76a77.21,77.21,0,0,1,4.24,7.15,44.38,44.38,0,0,0,4.22-6.38l-1.8-3.14-.34-.48-5.95-8-4.84-6.53-2.77-4.34a6.51,6.51,0,0,0-1.47,1.14ZM218.5,173.64a29.43,29.43,0,0,0-.5,14.53,31.77,31.77,0,0,0,3.16,9.38,21.34,21.34,0,0,1,5.23-4.61c-.74-2.86-.08-5.69.75-8.55a27.11,27.11,0,0,1,10.42,8.44,19.71,19.71,0,0,1,3,5.73A12.89,12.89,0,0,1,241,205a9.94,9.94,0,0,1-.85,2.71l6.5,6.17a7.3,7.3,0,0,0,.89-.87,12.33,12.33,0,0,0,2.79-7.66,20.51,20.51,0,0,0-1.59-8.09c-3-7.63-9.06-13.83-16.13-18a48.44,48.44,0,0,0-14.12-5.59Zm32.69-30.8c5.82,11.44,3.63,21-.94,28.74a33.22,33.22,0,0,1-8.72,12.74,29.07,29.07,0,0,1,4.71,5.71,34.54,34.54,0,0,0,9.65-12.26,42.94,42.94,0,0,0,2.8-7.1l1.73-9.55.11-1.45a53.07,53.07,0,0,0-3.06-20.7,15.19,15.19,0,0,1-6.27,3.87Zm-27.78,54.33a22.72,22.72,0,0,0-1.88,2.16,15.47,15.47,0,0,0-3,6.89c-.63,5.09,1.91,9.27,3.24,13.12a19.36,19.36,0,0,1,7-4.26,11.37,11.37,0,0,1-1.91-6.24,10.64,10.64,0,0,1,1.68-5.93,15.75,15.75,0,0,1,4.27-4.52,37.37,37.37,0,0,1,5.07-3.07,39.4,39.4,0,0,0-4.37-5.28L227,194.09a29.59,29.59,0,0,0-3.62,3.08Zm6.85,5.29a8.76,8.76,0,0,0-2.16,4.14l2.22,2.55,4.22,4.45,4.53,4.36,4.35,3.81,2.17-.19,3.67-3.61-3.41-3.38-6.35-5.87-1-.81-6.18-5.71-.79-.86a10.73,10.73,0,0,0-1.3,1.22Zm23.6-18.67a22.61,22.61,0,0,1-4.81,5.61,36.9,36.9,0,0,1,1.12,4.19,47.72,47.72,0,0,1,1.4,10.84l1,.15,2.95-16.17-1.61-4.63Zm-31.92,36.76a14.23,14.23,0,0,0-2.53,3.5l10.64-1a14,14,0,0,1,2.26-2,25.21,25.21,0,0,1,5.76-2.81L233.66,214c-3.55,2.08-7.25,2.95-10.45,5.43a12.36,12.36,0,0,0-1.28,1.12Zm10.19,2.29,2.48-.24-.68-.93a13.48,13.48,0,0,0-1.8,1.16Z"/><path class="b" d="M208.58,70.73,203,86.8a12.54,12.54,0,0,0-7.66-2.09L197,74.45Zm-4.5,19.32a16.47,16.47,0,0,1,1.75,2.08,18.45,18.45,0,0,1,2.76,6.67c1.34,6.45-.09,13.11-3.14,19a31.42,31.42,0,0,0-9-4.48c1.14-3.35,1.91-7.15.81-10.51a9.54,9.54,0,0,0-3.88-5.11,7.64,7.64,0,0,0-6.27-.9,7.18,7.18,0,0,0-4.53,4.48,7.36,7.36,0,0,0,.7,6.34,3.47,3.47,0,0,0,.87,1.16l-5.69,9a11.86,11.86,0,0,1-2.78-3.24,16.06,16.06,0,0,1-2.56-9.29,18,18,0,0,1,4.62-11.09,23.88,23.88,0,0,1,10.16-6.6,21.31,21.31,0,0,1,6.26-1.21,14.26,14.26,0,0,1,6.24,1.19,13,13,0,0,1,3.69,2.59ZM189.9,76.78,168.05,99s1.33,19.3,4.38,26.88c2.33,4,5.78,7.65,9.62,8.36L177.24,142a20.71,20.71,0,0,1-6.33-3.52,15.82,15.82,0,0,1-5.47-8,32.42,32.42,0,0,1-.76-5.12L161.77,97l14.66-15.83Zm4.28,23a7.68,7.68,0,0,1,1.7,2.52l-2.57,4.94-12.26,22.48c-.4.84-.48,1.37-.86,2.21a16.43,16.43,0,0,1-5.6-5.23c5.27-10,12.42-18.23,17-28.53a7.51,7.51,0,0,1,2.61,1.61Zm11,19.86a5.89,5.89,0,0,1,.65.77A21.14,21.14,0,0,1,209,138a32,32,0,0,1-2.15,5.87,24.22,24.22,0,0,0-7.45-6.39,18.15,18.15,0,0,0-.27-6.54,8.47,8.47,0,0,0-3-5.77,11.7,11.7,0,0,0-6.23-2.76l-3.15-.7,4.93-8.84c2.25,1.45,9.94,3,13.48,6.71Zm-9.45,6.71a9,9,0,0,1,1.73,2.38c-4.33,5.91-10.22,11.36-12.93,17.84a15.26,15.26,0,0,0-.6,7.75,11.23,11.23,0,0,0,2.63,5.8l-5.65,8.39a12.94,12.94,0,0,1-3.78-4.21,15.72,15.72,0,0,1-2.12-7.23,23.2,23.2,0,0,1,.92-7.53,36.64,36.64,0,0,1,2.83-7l4.83-7.7,2.67-3.76,5.13-7.27a12.09,12.09,0,0,1,4.41,2.49Zm7.76,16a25.87,25.87,0,0,1,6,8.95,22.76,22.76,0,0,1-.36,15.38c-7.46,5-13,5.12-19.73,5.39l5.34-8a9.86,9.86,0,0,0,5.64-1.54c2.58-8-3-14.32-11.31-17.28l-2-.55a61.82,61.82,0,0,1,5.46-8.05,22,22,0,0,1,3.57.93,18.73,18.73,0,0,1,7.38,4.76ZM196.24,151c1.53,1.43,3,3.71,2.77,5.21-2,2.48-3.8,5.26-5.48,7.63l-5.35,7.93a77,77,0,0,0-4,7.28,45.76,45.76,0,0,1-4.42-6.25l1.71-3.2.32-.48,5.7-8.18,4.63-6.68,2.64-4.41a6,6,0,0,1,1.51,1.09Zm13.32,21.68a29.24,29.24,0,0,1,.95,14.5,32,32,0,0,1-2.86,9.48,21.4,21.4,0,0,0-5.37-4.45c.65-2.88-.1-5.69-1-8.52a27.13,27.13,0,0,0-10.15,8.75,19.77,19.77,0,0,0-2.86,5.83,13,13,0,0,0-.23,6.44,10.17,10.17,0,0,0,.94,2.68l-6.3,6.37a7.35,7.35,0,0,1-.93-.84,12.4,12.4,0,0,1-3-7.57,20.62,20.62,0,0,1,1.34-8.14c2.77-7.72,8.63-14.11,15.56-18.51a48.63,48.63,0,0,1,13.94-6Zm-33.62-29.78c-5.46,11.61-3,21.14,1.83,28.7A33.15,33.15,0,0,0,186.88,184a28.64,28.64,0,0,0-4.53,5.85,34.42,34.42,0,0,1-10-11.95,42.54,42.54,0,0,1-3-7l-2-9.49-.16-1.45a53.24,53.24,0,0,1,2.42-20.78,15.16,15.16,0,0,0,6.39,3.67Zm29.45,53.45a22.54,22.54,0,0,1,1.94,2.09,15.46,15.46,0,0,1,3.26,6.81c.78,5.06-1.64,9.32-2.84,13.21a19.42,19.42,0,0,0-7.08-4.05,11.38,11.38,0,0,0,1.72-6.3,10.69,10.69,0,0,0-1.86-5.87,15.79,15.79,0,0,0-4.42-4.39,36.77,36.77,0,0,0-5.16-2.91,40,40,0,0,1,4.21-5.41l6.5,3.85a30.46,30.46,0,0,1,3.72,3Zm-6.69,5.5a8.72,8.72,0,0,1,2.29,4.06l-2.14,2.62-4.08,4.58-4.39,4.5-4.24,3.95L184,221.4l-3.78-3.5,3.3-3.48,6.17-6.07,1-.84,6-5.89.76-.88a11.46,11.46,0,0,1,1.34,1.17Zm-24.17-17.93a22.94,22.94,0,0,0,5,5.45,37.13,37.13,0,0,0-1,4.23,47.79,47.79,0,0,0-1.07,10.87l-1,.18-3.44-16.07,1.46-4.67Zm33,35.75a14.22,14.22,0,0,1,2.64,3.42l-10.66-.67a14,14,0,0,0-2.33-1.88,24.81,24.81,0,0,0-5.84-2.63l4.27-4.43c3.62,2,7.34,2.73,10.63,5.11a12.32,12.32,0,0,1,1.31,1.08Zm-10.11,2.6-2.48-.16.64-1a13.22,13.22,0,0,1,1.84,1.11Z"/><path class="h" d="M161.71,232.73l9.62,48.15,46.15,35.18L262.9,280l8.65-48.34-54.82,11.44Z"/><path class="e" d="M216.75,243.05l.74,73L262.92,280l8.65-48.34Z"/><path class="m" d="M177.61,249.5l6.17,22.4,33.54,27.4,33-28.07L256,248.71l-39.1,11Z"/><path class="n" d="M216.92,259.69l.4,39.62,33-28.07L256,248.72Z"/><circle class="o" cx="216.94" cy="276.21" r="10.95" transform="translate(-2.77 2.19) rotate(-0.58)"/></svg>