<svg xmlns="http://www.w3.org/2000/svg" viewBox="0 0 512 512"><defs><style>.a{fill:#797684;}.b{fill:#5e5c66;}.c{fill:#7e7c88;}.d{fill:#616068;}.e{fill:#775058;}.f{fill:#b8b7bd;}.g{fill:#604046;}.h{fill:#af874b;}.i{fill:#7e545d;}.j{fill:#3a272a;}.k{fill:#928f9c;}.l{fill:#bd9a65;}.m{fill:#2d1f21;}.n{fill:#362427;}.o{fill:#c3c3c7;}</style></defs><title>armour_god_air_gloves</title><ellipse class="a" cx="93.84" cy="485.84" rx="37.51" ry="18.76" transform="matrix(0.83, -0.56, 0.56, 0.83, -256.55, 136.45)"/><ellipse class="a" cx="35.88" cy="403.14" rx="31.45" ry="15.73" transform="translate(-334.64 240.28) rotate(-61.19)"/><ellipse class="a" cx="158.73" cy="468.75" rx="32.7" ry="16.35" transform="translate(-328.49 381.91) rotate(-61.19)"/><path class="b" d="M113.06,458.91c-8.33.82-18.16,4.49-27.23,10.19-17.57,11-28,26.8-23.84,36.12,9,3,23.95-.72,37.69-9.34,17.56-11.05,28-26.79,23.85-36.11a25.65,25.65,0,0,0-10.46-.86Z"/><ellipse class="a" cx="64.76" cy="464.4" rx="37.51" ry="18.76" transform="translate(-335.84 220.72) rotate(-50.75)"/><ellipse class="a" cx="45.33" cy="431.55" rx="32.7" ry="16.35" transform="translate(-354.64 263.27) rotate(-61.19)"/><path class="b" d="M57.14,401.84c-8-.3-18.49,8.33-25.73,21.1-6.59,11.65-9,24.25-6.18,31.83,8,2.26,19.88-6.57,27.92-20.73,6.59-11.64,9-24.25,6.18-31.82a9.12,9.12,0,0,0-2.19-.38Zm31,26.53c-10.12-.6-24.19,7.46-35.43,20.29C40.29,462.8,34.3,479.33,38.08,488.91,48,492.2,64.34,484,77.23,469.34c12.37-14.14,18.36-30.67,14.58-40.25a14.45,14.45,0,0,0-3.71-.72Z"/><path class="b" d="M47.24,374.56c-7.66-.29-17.78,8-24.75,20.29-6.28,11.1-8.66,23.13-6,30.45,7.69,2,19-6.48,26.7-20,6.29-11.1,8.67-23.13,6-30.45a8.91,8.91,0,0,0-2-.3ZM169.4,436.31c-8.13,3-16.87,11-23.28,21.18-10.48,16.8-12.12,34.78-3.06,39.87,10-5.15,17.17-14.84,21.57-23,7.68-17.56,13.85-33,4.89-38.09Z"/><ellipse class="c" cx="170.65" cy="440.79" rx="32.01" ry="18.33" transform="translate(-301.18 412.68) rotate(-65.43)"/><path class="d" d="M179,407.81c-8.89,2.73-17.92,10.26-24.13,20.17-10.47,16.72-10.05,35,.95,41.09,5.39-3.08,18.26-20.5,23.52-30.38,7.51-15.66,12.42-24.41,1.27-30.14a15.62,15.62,0,0,0-1.61-.74Z"/><ellipse class="c" cx="73.39" cy="405.25" rx="41.91" ry="20.96" transform="translate(-248.79 148.7) rotate(-41.2)"/><ellipse class="c" cx="61.81" cy="374.07" rx="41.91" ry="20.96" transform="translate(-231.11 133.35) rotate(-41.2)"/><ellipse class="c" cx="120.17" cy="462.74" rx="37.51" ry="18.76" transform="translate(-290.12 217.31) rotate(-44.56)"/><path class="d" d="M142.25,429c-9.67.84-21.83,7.18-32.28,16.82-14.88,13.75-22.69,30.79-18.53,40.44,9.83,2.85,24.56-4.51,38.11-17,14.88-13.75,24-30,19.81-39.67a19.11,19.11,0,0,0-7.11-.57ZM93.17,373.46c-9.61.29-22,6.06-32.87,15.32-15.82,13.49-24.51,30.91-20.43,41,9.47,3.89,26-1.89,40.36-14.13,15.82-13.49,24.51-30.91,20.43-41a18.21,18.21,0,0,0-7.49-1.19Z"/><ellipse class="c" cx="93.78" cy="436.78" rx="40.14" ry="20.08" transform="translate(-264.5 169.94) rotate(-41.2)"/><path class="d" d="M117.43,401.66c-10,.3-23,6.35-34.31,16.07-16.39,14-25.46,32.17-21.4,42.75,9.93,3.93,27-2.15,41.92-14.89,16.39-14,25.47-32.18,21.4-42.75a18.84,18.84,0,0,0-7.61-1.18ZM81.6,342.2c-9.6.28-22,6.06-32.83,15.31-15.8,13.5-24.49,30.94-20.4,41,9.45,3.89,25-7.6,39.32-19.85,15.8-13.49,25.49-25.22,21.4-35.27a18.23,18.23,0,0,0-7.5-1.19Z"/><path class="e" d="M184.19,415.55l-26.46,40.14-24.4-.65-11.54-15.56-19.71-8.08-8.16-20.51L72.22,404l-4.54-25.25-20.84-9.11,2.09-35,32.62-16.18Z"/><path class="e" d="M131.55,450.83l17.71-30.67h30.17l-22.11,34.38L134.41,454Zm-8.91-12.13L140,412.14l-8.83-8.63-28.26,26.81ZM114.43,389,94.66,410.08l-21.87-7.29L100.87,377ZM68.22,377.81l-20.69-9.36,29-21.06,11,13.24Z"/><path class="f" d="M74.68,322.85l-.72-.66-25,12.4-2.09,35,20.84,9.11L72.22,404l21.7,6.91,8.16,20.51,19.71,8.08L133.33,455l24.4.65,22.65-34.54-1.57-1.47-22,33.65-22.06-.28-11.53-15.56-19.72-8.08L95.35,408.9,73.66,402l-4.55-25.25-20.83-9.11,1.95-32.72Z"/><path class="f" d="M62.39,318.61l-7.6,4.32c26.59,37.55,58.77,71.53,95.68,102.5l43.77,1.3,2.49-7-2.24-1.14-39.16-1C121,387.08,91.65,354.76,64.26,319.93c-.22-.28-1.66-1.06-1.88-1.34Z"/><path class="g" d="M61.41,320.73c28.48,35.16,58.62,70.11,93.68,97.91l39.28,3,14.92-37.8-30.5-18.14-61.26-72.3Z"/><path class="h" d="M169.67,359.9l-32.78,26.91-22.81-22.95,25-36.06Z"/><path class="g" d="M200.42,188.5l108.69,98.66L251.28,346.4,145.09,250.69Z"/><path class="g" d="M241,201.71l44.52,41.54-34.09,38L227,263.57l-20.07-23.79Z"/><path class="i" d="M415.05,225.78,301.52,319.15l-56.15-36.9L353.74,178.57Z"/><path class="g" d="M398.27,226.72,300.9,308.54l-44.17-27.92,97.46-85.09Z"/><path class="i" d="M205.56,245.13,167.47,189.8,259,72.38l53.64,58Z"/><path class="j" d="M291.6.08l205,196.64-37.36,59.06-64.13-36.94L273.26,100.18,229.47,41.53Z"/><path class="g" d="M206.68,229.28,177,190.94l81.4-100.32,37.75,42.57Z"/><path class="k" d="M330.23,73.74l90,89L405.8,181.4,316.11,84.77Z"/><path class="g" d="M141,254.74l103.18,92.89-22.37,26.75c-39.17-26.79-73.93-58.36-105.64-93.29Z"/><path class="f" d="M157.91,230.59,152.09,237l-14.31,15,42.79,65.12,63.88,38.67,15-14.66,4.37-4.45-.43-2.56L261.5,336l-60-40.37-42.11-60.87,3-3.47Zm-32.35,33.08-5.82,6.39-14.31,15,42.79,65.11,63.88,38.68,15-14.66,4.38-4.45-.54-6.24-2.66,3-59.14-37.77-41.3-59.31,4-4.88Z"/><path class="l" d="M351.33,31.26,459.26,136.35l37.35,60.28L435,164.89,325.71,57.47,291.62,0Z"/><path class="k" d="M480.72,201l-25.66,40.95L411,216.33l27.76-37ZM288.18,12.52,241.49,43.66,274.4,87.75l39.81-31.4Z"/><path class="m" d="M314.94,20.78l19.35,34.59L438.48,155.72l35.29,19.66-17-31.54-112-107.13Z"/><path class="l" d="M200.85,138.54h0l-16.92,22L248,240.6,328.66,300l23-16.74-1.5-4.22-4.62,1.7L202.65,145.38l4.76-6.84Z"/><path class="i" d="M428.87,188.23,291.34,274.82l-13.34.95L241,253l-23.57-34.13.72-16.08L303.27,65l81.67,42.87Z"/><path class="n" d="M310.52,92.23l58.54,30.91,31.46,59.47L287.94,258l-6.51-.17-24.26-20.69-20.12-23.94,0-8.29Z"/><path class="o" d="M367.56,132.13l-7.09,15.21a12.38,12.38,0,0,1,6.87,3.78l5.87-8.41Zm-10.08,16.78a14.83,14.83,0,0,0-2.67.27,18.08,18.08,0,0,0-6.54,2.83c-5.37,3.65-8.93,9.34-10.81,15.59a31,31,0,0,1,9.49,3c1.5-3.16,3.56-6.38,6.66-8a9.38,9.38,0,0,1,6.25-1,7.6,7.6,0,0,1,5.06,3.67,7.08,7.08,0,0,1,.14,6.28,7.66,7.66,0,0,1-4.86,4,3.31,3.31,0,0,1-1.42.22l-2.12,10.26a11.93,11.93,0,0,0,4.2-.38,15.8,15.8,0,0,0,8.19-4.82,17.86,17.86,0,0,0,4.35-11,23,23,0,0,0-2.69-11.65,20.74,20.74,0,0,0-3.6-5.15,13.87,13.87,0,0,0-5.23-3.44,13,13,0,0,0-4.4-.71Zm19.17.34.2,30.77s-14.2,12.77-21.56,16c-4.4,1.22-9.36,1.44-12.54-.69l-1.9,8.77a20.26,20.26,0,0,0,6.89,1.85,15.81,15.81,0,0,0,9.39-1.93,31,31,0,0,0,4.05-3.1l21.51-18.14.49-21.29ZM357.8,162.61a7.58,7.58,0,0,0-2.93.62l-1.58,5.26-6.76,24.44c-.29.85-.6,1.3-.9,2.14a15.8,15.8,0,0,0,7.55.14c3.12-10.69,3.72-21.44,7.58-31.87a7.72,7.72,0,0,0-3-.65Zm-21.42,6.51a8.49,8.49,0,0,0-1,.11A20.84,20.84,0,0,0,321,179.49a31.51,31.51,0,0,0-2.51,5.64,23.59,23.59,0,0,1,9.67.6,17.78,17.78,0,0,1,4.68-4.44,8.57,8.57,0,0,1,6.11-2,11.68,11.68,0,0,1,6.32,2.33l2.68,1.68,2.59-9.65c-2.61-.52-9.09-4.71-14.16-4.51Zm2.08,11.26a9,9,0,0,0-2.86.49c-1,7.17-.57,15.07-3.1,21.52a15.08,15.08,0,0,1-4.89,5.9,10.8,10.8,0,0,1-5.84,2.31L320,220.43a12.77,12.77,0,0,0,5.56-.39,15.65,15.65,0,0,0,6.47-3.67,22.87,22.87,0,0,0,4.51-6,35.35,35.35,0,0,0,2.8-6.88l1.91-8.72.69-4.49,1.36-8.69a12.1,12.1,0,0,0-4.84-1.25Zm-16.51,6a25.77,25.77,0,0,0-10.41,2.2,22.43,22.43,0,0,0-10.3,11.14c1.82,8.7,5.65,12.53,10.29,17.39l1.69-9.32a9.67,9.67,0,0,1-2.93-5c3.66-7.46,11.91-8.12,19.87-4.48l1.8,1a64.17,64.17,0,0,0,1.67-9.45,21.65,21.65,0,0,0-3.18-1.8,18.58,18.58,0,0,0-8.51-1.71Zm-.77,11c-2.06,0-4.64.58-5.54,1.79-.24,3.18-.92,6.32-1.36,9.16l-1.65,9.29c-.61,2.91-1.28,5.11-2.14,7.92a46.54,46.54,0,0,0,7.41-1.39l1-3.43.12-.57,1.58-9.71,1.24-7.87,1.16-4.93a6.19,6.19,0,0,0-1.81-.26Zm-24.32,6.19a28.86,28.86,0,0,0-10.64,9.62,31.26,31.26,0,0,0-4.48,8.68,20.87,20.87,0,0,1,6.86.54c1.52-2.49,4.07-4,6.57-5.34a26.68,26.68,0,0,1,1.18,13.17,19.43,19.43,0,0,1-2,6.09,12.79,12.79,0,0,1-4.27,4.73,9.44,9.44,0,0,1-2.5,1.25l.08,8.84a7.13,7.13,0,0,0,1.22,0,12.21,12.21,0,0,0,7.34-3.28,20.22,20.22,0,0,0,4.64-6.68c3.34-7.38,3.58-15.93,1.69-23.81a47.67,47.67,0,0,0-5.75-13.85Zm44.28,2c-4.12,12-12.42,17-21,19.08a32.91,32.91,0,0,1-15,2.58,30.4,30.4,0,0,1-.8,7.33c5.31.81,10.18,0,15.31-1.58a43.15,43.15,0,0,0,6.95-2.89l8-5.34,1.11-.93a52.28,52.28,0,0,0,12.54-16.37,15,15,0,0,1-7-1.79Zm-57.6,17.66a20.42,20.42,0,0,0-2.81.14,15.19,15.19,0,0,0-7,2.58c-4,3-5.24,7.72-7.07,11.3a19.45,19.45,0,0,1,7.79,2,11.46,11.46,0,0,1,3.09-5.65,10.52,10.52,0,0,1,5.36-2.88,16.9,16.9,0,0,1,6.14-.08,34.24,34.24,0,0,1,5.66,1.5,39,39,0,0,0,.73-6.73l-7.33-1.74a29.31,29.31,0,0,0-4.68-.44Zm1,8.47a8.64,8.64,0,0,0-4.42,1.31l-.28,3.32-.25,6.06,0,6.2.3,5.7,1.63,1.39,5.08.13.05-4.74-.2-8.53-.05-1.32-.21-8.31.07-1.14a10.31,10.31,0,0,0-1.75-.08Zm29.44,3.89a22.45,22.45,0,0,1-7.28.44,36,36,0,0,1-2.2,3.67,46.57,46.57,0,0,1-6.7,8.44l.54.78,13.48-9,2.17-4.31Zm-48,2.63a14.36,14.36,0,0,0-4.22.61l8,6.85a13.66,13.66,0,0,1,2.93.27,24.65,24.65,0,0,1,5.95,2.15V242.1c-3.91-1.09-7.07-3.12-11-3.67a13.28,13.28,0,0,0-1.68-.13Zm5.37,8.8,1.86,1.59.2-1.12a10.56,10.56,0,0,0-2.06-.46Z"/><path class="f" d="M363,126,347.73,133a12.28,12.28,0,0,0-3.78-6.87l8.42-5.86ZM346.17,136a15.84,15.84,0,0,1-.28,2.67,17.82,17.82,0,0,1-2.82,6.54c-3.65,5.38-9.35,8.94-15.59,10.81a31.31,31.31,0,0,0-3-9.49c3.16-1.5,6.37-3.56,8-6.65a9.4,9.4,0,0,0,1-6.25,7.62,7.62,0,0,0-3.67-5.07,7.11,7.11,0,0,0-6.28-.14,7.63,7.63,0,0,0-4,4.87,3.1,3.1,0,0,0-.22,1.41L309,136.85a12.34,12.34,0,0,1,.38-4.19,16,16,0,0,1,4.83-8.2,17.88,17.88,0,0,1,11-4.35,23.1,23.1,0,0,1,11.64,2.69,20.22,20.22,0,0,1,5.16,3.61,14,14,0,0,1,3.44,5.23,12.88,12.88,0,0,1,.71,4.4Zm-.34-19.17-30.78-.19s-12.76,14.19-16,21.55c-1.23,4.4-1.45,9.37.69,12.56l-8.78,1.9a20.25,20.25,0,0,1-1.84-6.89A15.66,15.66,0,0,1,291,136.4a31.86,31.86,0,0,1,3.09-4.05l18.15-21.51,21.29-.49Zm-13.36,18.85a7.55,7.55,0,0,1-.62,2.93l-5.26,1.58L302.15,147c-.86.29-1.3.6-2.14.9a15.79,15.79,0,0,1-.14-7.55c10.69-3.12,21.44-3.72,31.87-7.58a7.76,7.76,0,0,1,.65,3ZM326,157.13a8.06,8.06,0,0,1-.1,1,20.81,20.81,0,0,1-10.27,14.38A31.42,31.42,0,0,1,310,175a23.59,23.59,0,0,0-.61-9.67,17.62,17.62,0,0,0,4.44-4.68,8.46,8.46,0,0,0,2-6.11,11.65,11.65,0,0,0-2.33-6.31l-1.68-2.69,9.66-2.58c.52,2.6,4.71,9.08,4.5,14.15Zm-11.26-2.08a9.09,9.09,0,0,1-.48,2.87c-7.17,1-15.07.57-21.53,3.09a15,15,0,0,0-5.89,4.89,10.92,10.92,0,0,0-2.32,5.85l-9.82,1.77A12.8,12.8,0,0,1,275,168a15.54,15.54,0,0,1,3.67-6.47,22.82,22.82,0,0,1,5.94-4.51,36.16,36.16,0,0,1,6.89-2.79l8.71-1.92,4.5-.69,8.68-1.36a12,12,0,0,1,1.26,4.84Zm-6,16.51a25.73,25.73,0,0,1-2.2,10.41,22.47,22.47,0,0,1-11.15,10.31c-8.7-1.83-12.52-5.66-17.38-10.29l9.32-1.7a9.64,9.64,0,0,0,5,2.94c7.46-3.67,8.12-11.92,4.48-19.88l-1-1.79a61.43,61.43,0,0,1,9.45-1.67,20.16,20.16,0,0,1,1.79,3.17,18.35,18.35,0,0,1,1.71,8.51Zm-11,.77c0,2.06-.59,4.65-1.79,5.54-3.18.25-6.32.92-9.17,1.36l-9.28,1.65c-2.91.61-5.11,1.28-7.92,2.14a45.34,45.34,0,0,1,1.38-7.41l3.44-1,.57-.11,9.71-1.59,7.86-1.24,4.94-1.16a6.55,6.55,0,0,1,.26,1.81Zm-6.19,24.33a28.94,28.94,0,0,1-9.62,10.64,31.18,31.18,0,0,1-8.69,4.48,21.11,21.11,0,0,0-.53-6.86c2.49-1.53,4-4.08,5.34-6.58a26.68,26.68,0,0,0-13.17-1.18,19.43,19.43,0,0,0-6.09,2,12.79,12.79,0,0,0-4.73,4.27,9.44,9.44,0,0,0-1.25,2.5l-8.84-.08a6.2,6.2,0,0,1,0-1.22,12.16,12.16,0,0,1,3.28-7.33,20.15,20.15,0,0,1,6.68-4.65c7.38-3.34,15.92-3.58,23.81-1.68a47.37,47.37,0,0,1,13.85,5.74Zm-2-44.28c-12,4.11-17,12.41-19.08,21a32.92,32.92,0,0,0-2.57,15,30.34,30.34,0,0,0-7.33.8c-.82-5.31,0-10.18,1.58-15.31a41.42,41.42,0,0,1,2.89-7l5.34-8,.93-1.11a52.43,52.43,0,0,1,16.37-12.54,14.91,14.91,0,0,0,1.79,7ZM271.79,210a22,22,0,0,1-.15,2.81,15.28,15.28,0,0,1-2.57,7c-3.05,4-7.72,5.25-11.31,7.07a19.3,19.3,0,0,0-2-7.79,11.39,11.39,0,0,0,5.65-3.09,10.52,10.52,0,0,0,2.88-5.36,16.89,16.89,0,0,0,.08-6.14,36.34,36.34,0,0,0-1.5-5.66,40,40,0,0,1,6.73-.73l1.73,7.33a30.64,30.64,0,0,1,.45,4.68Zm-8.47-1a8.64,8.64,0,0,1-1.31,4.42l-3.33.28-6.05.25-6.21,0-5.7-.3L239.34,212l-.13-5.08,4.74,0,8.53.2,1.32.06,8.3.2,1.14-.07a9.42,9.42,0,0,1,.09,1.75Zm-3.9-29.43a23,23,0,0,0-.44,7.27c-1.51.81-2.23,1.32-3.66,2.2a46.66,46.66,0,0,0-8.44,6.7l-.78-.53,9-13.49,4.32-2.17Zm-2.63,48a13.69,13.69,0,0,1-.61,4.22l-6.84-8a13.73,13.73,0,0,0-.28-2.93,24.65,24.65,0,0,0-2.15-5.95H253c1.08,3.91,3.11,7.07,3.68,11a11.88,11.88,0,0,1,.13,1.68ZM248,222.18l-1.59-1.86,1.11-.19a10.49,10.49,0,0,1,.47,2.05Z"/></svg>