<svg xmlns="http://www.w3.org/2000/svg" viewBox="0 0 512 512"><defs><style>.a{fill:#554045;}.b{fill:#3c2c2e;}.c{fill:#a97f9b;}.d{fill:#795f71;}.e{fill:#6a4682;}.f{fill:#6e5667;}.g{fill:#795f72;}.h{fill:#96908f;}.i{fill:#b2abaa;}.j{fill:#cacace;}.k{fill:#40213d;}.l{fill:#666161;}.m{fill:#84626a;}.n{fill:#1f1718;}.o{fill:#3f3333;}.p{fill:#c4c4c8;}.q{fill:#65427c;}.r{fill:#604749;}.s{fill:#6c5052;}.t{fill:#8a8484;}.u{fill:#948e8e;}.v{fill:#342f30;}.w{fill:#a59d9b;}.x{fill:#77595b;}.y{fill:#af74d7;}.z{fill:#66437d;}.aa{fill:#b09099;}.ab{fill:#8d6971;}.ac{fill:#342628;}.ad{fill:#473539;}.ae{fill:#8d6972;}</style></defs><title>armour_god_water_platebody</title><path class="a" d="M222.54,411l.82,18.49,3.95-3.32,9-19.77Z"/><path class="b" d="M192.7,311l58.51,51.48.42,3.11-28.28,63.83-12.68-6.23-31.4-68.61Z"/><path class="c" d="M149.11,428.44l-9.75,1.23,24.74-87.95,49.27,59.88-14.24,51.76-4.3-2.25L174.27,413.3Z"/><path class="d" d="M149.11,428.44l15.6-2.16-14-3.53Z"/><path class="e" d="M150.68,422.75l40.87,16.76,6.29-36c-.11-.36-.73-3.43-.73-3.43l-29.38-38.94Z"/><path class="f" d="M221.59,403.47l-7.38,48.13-15.08,1.76,8.43-53.11,7.38-.52Z"/><path class="g" d="M221.59,403.47l-14-3.22L164.1,341.72l13.41,3.12Z"/><path class="h" d="M214.62,371.24,224,385.49l-13.83,11.33-1.92-.11,4.11-23.28Z"/><path class="i" d="M221.23,385.12l-13,11.59-9.2-11,13-14.56Z"/><path class="h" d="M195.71,346.81l9.35,14.24-13.82,11.33-1.93-.1L193.42,349Z"/><path class="i" d="M202.3,360.69l-13,11.59-9.2-11,13-14.55Z"/><path class="j" d="M188.15,214.91l-14.09,8.16L146,109.43,157.87,107l41.88,45.47Z"/><path class="k" d="M154.36,239.06,93.28,192.25l26.89-73.7,42.48,43.78Z"/><path class="l" d="M16.26,176.81l13.32-1.1-1.77,15.85ZM0,216.9l9.61,8.71,9.13-12.12Z"/><path class="b" d="M185.4,330.18c16.15,37.3,47.49,86.5,70.6,101.92,23.11-15.42,54.45-64.62,70.6-101.92l-12.12,4L256,417l-58.49-82.83Z"/><path class="m" d="M190.05,329C209,362.15,233,400.89,256,417c23-16.1,47-54.84,65.95-88l-35,1.49L256,383.09l-30.93-52.58Z"/><path class="n" d="M181.91,311.26l56.94-.83-37.27-33.61Z"/><path class="o" d="M183.9,333l45.48.5-1.33-30-43.81.16Z"/><path class="b" d="M183.41,317.57l-5.32,9.29c-5.37-20.95-11-43.73-17.76-60.42l8.15-6.5,11.74,24.91Z"/><path class="a" d="M183.41,317.57c13.94-21.52,20-32.44,25.63-42.92l-27.46-29-16.67,15c7.9,18.53,13,37.76,18.5,56.88Z"/><path class="p" d="M217,298.48l6.11,46.95L256,383.14l32.88-37.71,6.1-46.95-4.8.11L256,376.28l-34.17-77.69Z"/><path class="q" d="M221,295.66l6.16,47.46L256,376.28l28.83-33.16L291,295.66l-35,33.52Z"/><path class="j" d="M179.36,246.13l.33,17.53L256,329.18l76.3-65.52.34-17.53-6.55,4.46L256,326.36l-70.08-75.77Z"/><path class="p" d="M181.69,229.7v32.63l74.31,64,74.31-64V229.71H317.87l-61.91,84L194.09,229.7Z"/><path class="m" d="M193.19,231.35,192.37,258,256,313.75,319.64,258l-.83-26.66L256,281.55Z"/><path class="p" d="M198.59,218.91l-13.15,10.56c22.47,17.88,42.73,36.69,70.56,52.08,27.82-15.4,48.08-34.2,70.55-52.08l-13.14-10.56L256,266.77Z"/><path class="r" d="M104,213.51l2.59,27.22H6.81l-1.87-19C31,205,38.41,169.28.71,162.1c5.47-16,9.79-32.76,28.64-39.67-18.74,32.84,59.85,58.16,47.89-45.3l50.47,44.13c-12.23,19.38-7.82,38-7,56.8C102.85,193,102,203.57,104,213.51Z"/><path class="s" d="M15.28,231.2l15.77-19.5,72.37-1.88,5.28,27.86Z"/><path class="t" d="M106.57,223.6l17.14,14.79L90.14,257.88,58,251.48l-25.11,4.28L4,242.61l-4-25.7L29.7,231.35l26.19,7.41,24.63-5.07Z"/><path class="u" d="M80.52,233.69l9.62,24.18-57.27-2.11L29.7,231.35Z"/><path class="i" d="M120.16,123.53c36.25,39.65,33.36,71.92,32.54,104.57L174,229.31c5.41-38.85,3.48-78.75-27-120.7l-17.76,4.08Z"/><path class="v" d="M129.11,223.13l-4.81,1-1.77-3.7,42.73-8.68L197,235l-39.09,38-3.29-3.82,3.4-3.11-5-25.82Z"/><path class="e" d="M129.11,223.13l28.87,43,31.82-30.7L164.2,216Z"/><path class="w" d="M124.23,123l4.68,5.72,16.49-17.51-15.18,3.27Z"/><path class="x" d="M110.58,106.28,61.41,182.84l42,27c-.94-8.92,1.59-18.71,17.24-31.77-.77-18.79-5.19-37.42,7-56.8Z"/><path class="s" d="M78.55,156.39,50.8,168.93l-21,33.39L104,213.49Z"/><path class="t" d="M8.12,201.38,35.84,218l22.4,2.25L84,227.1l33.36-10-9.63-17.09-26.22,5-23.43-2.78L36.5,194.4,16.25,176.8Z"/><path class="y" d="M131.45,90.66l4.82,19.42-4.15,5.65L79.84,69.58l5.47-6.47Z"/><path class="z" d="M157.86,107C180,138.2,191.29,173.07,185,214c23.9,19.53,43.58,35.2,71,52.8,27.44-17.6,47.12-33.27,71-52.8-6.35-40.93,5-75.77,27.11-107L273.2,134.87,256,249,238.69,134.87Z"/><path class="b" d="M209.46,94,189.05,98.8l29.38,50.63h75.14L323,98.8,302.53,94l-17.84,13.43L256,115.23l-28.69-7.82Z"/><path class="a" d="M209,86.85l-24.4,5.31,5.64,9.38,17.92-3.91,19.26,14.94L256,115.23l28.61-2.66L302.7,97.8l19.92,3.48,4.81-9.12L303,86.85,284.6,101.62,256,106.43l-28.6-4.81Z"/><path class="p" d="M209.13,84.86l-62.36,16-.35,11.09L156.81,110c30.34,8.58,59.68,37.47,19,83.1,33.75,7.59,64,20.7,80.18,55.93,16.19-35.23,46.43-48.35,80.17-55.93-40.66-45.63-11.33-74.52,19-83.1l10.39,1.94-.35-11.09-62.37-16L284.44,99.63,256,102.78l-28.43-3.15Zm-.33,4.81,18.26,13.61L256,106.44l28.94-3.16,18.26-13.61,21.91,4.48L256,240.22,186.88,94.15Z"/><path class="m" d="M183.81,95.2l-33.31,8.2-.16,3.42,6.7-1.26c58.66,18.91,49.32,62,25.66,85.36,26.8,5.14,57.84,19.08,73.31,49.3,15.47-30.23,46.5-44.16,73.31-49.3-23.67-23.36-33-66.45,25.66-85.36l6.7,1.26-.16-3.42L328.2,95.2l-35.29,51.4L256,162,219.1,146.6Z"/><path class="p" d="M187.22,91l-6.14,2.15,35.69,60.58L256,162l39.23-8.27,35.69-60.58L324.78,91l-33.69,51L256,149.43,220.93,142Z"/><path class="u" d="M35.84,218l.67-23.57,45,10.62L84,227.1Z"/><path class="v" d="M184,209.43c-8.36,5.26-16.31,18.8-19.34,25.88,12.63.5,46.66-3.42,34.73-21.91-4.51-7.32-10-7.34-15.39-4Z"/><path class="y" d="M184.89,212.4c-6.66,4.2-13.2,14.65-15.75,20.07,9.85.06,36.53-3.76,27.68-17.46-3.34-5.42-7.65-5.3-11.92-2.61Z"/><path class="v" d="M210.14,283.26c-4.18,8.95-3.53,24.63-2.25,32.23,10.89-6.41,37.38-28.13,17.34-37.22-7.76-3.71-12.41-.74-15.09,5Z"/><path class="y" d="M212.51,285.27c-3.33,7.13-3.18,19.46-2.39,25.41,8.32-5.29,28.68-22.94,13.83-29.67-5.74-2.75-9.31-.32-11.44,4.25Z"/><path class="v" d="M224.06,150.84c-2.59,9.53.73,24.88,3.29,32.15,9.63-8.18,32-34.11,10.74-39.64-8.28-2.33-12.36,1.39-14,7.5Z"/><path class="y" d="M226.74,152.42c-2.06,7.6.2,19.72,2,25.44,7.29-6.63,24.34-27.5,8.56-31.59-6.13-1.73-9.22,1.28-10.54,6.14Z"/><path class="v" d="M190.65,119.8c-8.78,7.48-15.71,24.46-18,33.15,14.69-1.53,53.37-11.74,36.5-31.12-6.44-7.71-12.83-6.81-18.46-2Z"/><path class="y" d="M192.19,123.09c-7,6-12.82,19.14-14.86,25.84,11.4-1.58,41.6-10.45,29.08-24.81-4.76-5.71-9.73-4.85-14.21-1Z"/><path class="aa" d="M29.34,122.43c-32.33,35.82,41.18,40.31,46,8l-5.1-.68C67,148.38,22.16,162.78,29.34,122.43Z"/><path class="o" d="M63.85,140.2l7.68-4.39,48.18,47.65,10.63,2.43L143.68,158l-8.12-8.26L83.8,118.09l-11.38,1.17-9.86,14.2-.35,4.46Z"/><circle class="m" cx="133.22" cy="169.12" r="21.32"/><circle class="v" cx="133.22" cy="169.12" r="11.58"/><circle class="y" cx="133.22" cy="169.12" r="8.84"/><path class="i" d="M72,58.63V76.56l56.67,48.26,6.81-8Z"/><path class="w" d="M72,58.63V76.56L94.47,95.67l6.47-10.55Z"/><path class="a" d="M289.45,411l-.81,18.5-3.95-3.33-9-19.76Z"/><path class="b" d="M319.3,311l-58.52,51.48-.42,3.12,28.28,63.82,12.68-6.24,31.39-68.6Z"/><path class="c" d="M362.88,428.44l9.75,1.22-24.74-87.94L298.62,401.6l14.24,51.77,4.3-2.22,20.56-37.81Z"/><path class="d" d="M362.88,428.44l-15.6-2.17,14-3.52Z"/><path class="e" d="M361.31,422.75l-40.86,16.76-6.29-36c.1-.37.73-3.43.73-3.43l29.4-38.94Z"/><path class="f" d="M290.41,403.47l7.38,48.13,15.07,1.76-8.42-53.12-7.38-.52Z"/><path class="g" d="M290.41,403.47l14-3.23,43.45-58.52-13.41,3.12Z"/><path class="h" d="M297.37,371.24,288,385.48l13.82,11.33,1.93-.1-4.11-23.29Z"/><path class="i" d="M290.77,385.12l13,11.59,9.19-11-13-14.55Z"/><path class="h" d="M316.29,346.81l-9.36,14.25,13.83,11.33,1.93-.11L318.58,349Z"/><path class="i" d="M309.69,360.69l13,11.59,9.2-11-13-14.55Z"/><path class="j" d="M323.85,214.91l14.09,8.16L366,109.43,354.13,107l-41.88,45.47Z"/><path class="k" d="M357.64,239.06l61.08-46.81-26.89-73.7-42.49,43.78Z"/><path class="l" d="M495.73,176.81l-13.32-1.1,1.77,15.85ZM512,216.9l-9.62,8.71-9.13-12.12Z"/><path class="b" d="M256,417V432.1c23.11-15.42,54.45-64.62,70.6-101.92l-12.11,4Z"/><path class="ab" d="M256,383.14V417c23-16.1,47-54.83,66-88l-35,1.49Z"/><path class="n" d="M330.09,311.26l-56.94-.83,37.26-33.61Z"/><path class="o" d="M328.09,333l-45.48.5,1.33-30,43.82.16Z"/><path class="b" d="M328.59,317.57l5.31,9.29c5.37-20.95,11-43.73,17.77-60.42l-8.15-6.5-11.74,24.91Z"/><path class="a" d="M328.59,317.57c-13.95-21.52-20-32.44-25.63-42.92l27.46-29,16.67,15c-7.9,18.53-13,37.76-18.5,56.88Z"/><path class="j" d="M256,376.28v6.85l32.88-37.71,6.1-46.95-4.81.12Z"/><path class="e" d="M256,329.18v47.1l28.83-33.16L291,295.66Z"/><path class="ac" d="M256,326.36v2.82l76.3-65.53.33-17.52L326,250.6Z"/><path class="j" d="M256,326.36v2.82l76.3-65.53.33-17.52L326,250.6Z"/><path class="j" d="M256,313.75v12.62l74.31-64V229.7H317.83Z"/><path class="ab" d="M256,281.55v32.2L319.6,258l-.83-26.67Z"/><path class="j" d="M256,266.77v14.78c27.82-15.4,48.08-34.21,70.55-52.09L313.37,218.9Z"/><path class="r" d="M408,213.51l-2.58,27.22h99.77l1.88-19C481,205,473.59,169.28,511.29,162.1c-5.47-16-9.79-32.76-28.63-39.67,18.73,32.84-59.85,58.16-47.89-45.3L384.3,121.26c12.23,19.38,7.81,38,7,56.8C409.16,193,410,203.57,408,213.51Z"/><path class="s" d="M496.71,231.2l-15.77-19.5-72.37-1.88-5.28,27.86Z"/><path class="t" d="M405.42,223.6l-17.13,14.79,33.57,19.49,32.16-6.4,25.11,4.28L508,242.61l4-25.7-29.69,14.44-26.19,7.41-24.63-5.07Z"/><path class="u" d="M431.48,233.69l-9.62,24.18,57.27-2.11,3.17-24.41Z"/><path class="i" d="M391.83,123.53c-36.24,39.65-33.35,71.92-32.53,104.57L338,229.31c-5.41-38.85-3.47-78.75,27-120.7l17.77,4.08Z"/><path class="v" d="M382.89,223.13l4.8,1,1.77-3.7-42.72-8.68L315.05,235l39.08,38,3.29-3.82L354,266.09l5.05-25.82Z"/><path class="e" d="M382.89,223.13l-28.88,43-31.82-30.7L347.79,216Z"/><path class="w" d="M387.76,123l-4.67,5.72L366.6,111.24l15.17,3.27Z"/><path class="x" d="M401.42,106.28l49.16,76.56-42,27c.94-8.92-1.59-18.7-17.24-31.76.77-18.8,5.19-37.43-7-56.81Z"/><path class="s" d="M433.45,156.39l27.74,12.54,21,33.39L408,213.49Z"/><path class="t" d="M503.87,201.38,476.15,218l-22.4,2.25L428,227.1l-33.36-10,9.62-17.09,26.23,5,23.42-2.78,21.56-7.85,20.25-17.6Z"/><path class="y" d="M380.54,90.66l-4.81,19.42,4.15,5.65,52.28-46.15-5.48-6.47Z"/><path class="e" d="M256,266.77V249l17.27-114.15L354.09,107C332,138.2,320.66,173.07,327,214c-23.9,19.53-43.58,35.19-71,52.8Z"/><path class="ac" d="M256,115.23v34.2h37.57L322.91,98.8,302.49,94l-17.84,13.43Z"/><path class="ad" d="M256,106.43v8.8l28.61-2.66L304,97.8l17.8,4.55,5.64-10.19L303,86.85l-18.42,14.77Z"/><path class="j" d="M256,249c16.2-35.23,46.43-48.35,80.18-55.94-40.67-45.63-11.34-74.51,19-83.09l10.39,1.93-.35-11.09-62.36-16L284.4,99.63,256,102.79v3.65l28.94-3.16,18.25-13.61,21.91,4.48L256,240.22Z"/><path class="ae" d="M256,240.22c15.47-30.23,46.51-44.16,73.31-49.3-23.66-23.36-33-66.45,25.66-85.36l6.7,1.26-.16-3.42-33.31-8.2-35.29,51.4L256,162Z"/><path class="j" d="M256,162l39.23-8.26,35.69-60.59L324,92.8,291,142,256,149.47Z"/><path class="u" d="M476.15,218l-.66-23.57L430.5,205,428,227.1Z"/><path class="v" d="M328,209.43c8.35,5.26,16.3,18.8,19.34,25.88-12.63.5-46.66-3.42-34.74-21.91,4.52-7.32,10-7.34,15.4-4Z"/><path class="y" d="M327.1,212.4c6.66,4.2,13.21,14.65,15.76,20.07-9.85.06-36.53-3.76-27.68-17.46,3.33-5.42,7.65-5.3,11.92-2.61Z"/><path class="v" d="M301.86,283.26c4.18,8.94,3.53,24.63,2.25,32.23-10.89-6.42-37.38-28.13-17.35-37.22,7.76-3.71,12.42-.74,15.09,5Z"/><path class="y" d="M299.49,285.27c3.32,7.13,3.17,19.46,2.38,25.41-8.31-5.29-28.68-22.94-13.82-29.67,5.74-2.75,9.3-.32,11.44,4.25Z"/><path class="v" d="M287.93,150.84c2.59,9.53-.73,24.88-3.28,32.15-9.64-8.18-32-34.11-10.74-39.64,8.28-2.33,12.36,1.39,14,7.5Z"/><path class="y" d="M285.25,152.42c2.06,7.6-.19,19.72-2,25.44-7.29-6.63-24.34-27.5-8.56-31.59,6.13-1.73,9.23,1.28,10.55,6.14Z"/><path class="v" d="M321.35,119.8c8.78,7.48,15.7,24.46,18,33.15-14.68-1.53-53.37-11.74-36.49-31.12,6.44-7.71,12.83-6.81,18.45-2Z"/><path class="y" d="M319.8,123.09c7,6,12.82,19.14,14.87,25.84-11.4-1.58-41.6-10.45-29.09-24.81,4.76-5.71,9.73-4.85,14.22-1Z"/><path class="aa" d="M482.65,122.43c32.34,35.82-41.17,40.31-46,8l5.1-.68C445,148.38,489.84,162.78,482.65,122.43Z"/><path class="o" d="M448.15,140.2l-7.69-4.39-48.18,47.65-10.62,2.43L368.32,158l8.12-8.26,51.75-31.69,11.38,1.17,9.86,14.2.35,4.46Z"/><circle class="m" cx="378.78" cy="169.12" r="21.32"/><circle class="v" cx="378.78" cy="169.12" r="11.58"/><circle class="y" cx="378.78" cy="169.12" r="8.84"/><path class="i" d="M440,58.63V76.56l-56.68,48.26-6.8-8Z"/><path class="w" d="M440,58.63V76.56L417.53,95.67l-6.48-10.55Z"/></svg>