<svg xmlns="http://www.w3.org/2000/svg" viewBox="0 0 512 512"><defs><style>.a{fill:#413337;}.b{fill:#84626a;}.c{fill:#b09099;}.d{fill:#322629;}.e{fill:#4c4644;}.f{fill:#463b35;}.g{fill:#71625a;}.h{fill:#b8b7bd;}.i{fill:#342f30;}.j{fill:#af74d7;}.k{fill:#6a4682;}.l{fill:#604749;}.m{fill:#77595b;}.n{fill:#666161;}.o{fill:#8a8484;}.p{fill:#948e8e;}.q{fill:#7c7878;}.r{fill:#cacace;}.s{fill:#c1c1c5;}.t{fill:#80549c;}.u{fill:#8f6b73;}.v{fill:#c0c0c4;}</style></defs><title>armour_god_water_boots</title><path class="a" d="M215,470.07l-5.42-23.9,18.71-35.09,25.19-21.63v21.92Z"/><path class="b" d="M127.45,195.59l-5.88,32.19c-19,8.14-31.39,25.88-41.44,40.35-28.61-21.76-59.64-40.65-61-94.59,18.45,26.2,63,18.9,56.9-7.86Z"/><path class="c" d="M19.15,173.54c18.47,23.67,59.7,19.78,56.9-7.87l9.5,10.56c-32.13,62.34-55.74,26-66.41-2.68Z"/><path class="b" d="M109.64,108.54l-5.88,32.18c-19,8.15-31.39,25.88-41.44,40.35-28.6-21.75-59.64-40.64-61-94.58,18.45,26.19,63,18.9,56.91-7.86Z"/><path class="c" d="M1.34,86.48c18.46,23.68,59.7,19.79,56.9-7.86l9.5,10.55C35.61,151.52,12,115.22,1.33,86.49Z"/><path class="d" d="M212.8,447.92,215,470.06l-107.49-2.79L91.38,421.1l.93-21.45Z"/><path class="e" d="M96.28,394.52,99.43,414l10.26,26.82,56.21,1.6,44.07-1-26.6-48-75.68-18.41Z"/><path class="f" d="M210,441.39l27.86-29.62,13.49-28L241.76,347l-30.55-6.76-22.5,68.2Z"/><path class="g" d="M188.73,408.39l38.36-48-5.13-16H126.6L107.71,375l6.3,28.84,28.92,13.06Z"/><path class="h" d="M121.92,343.22c15.25,14.12,31.87,27.81,38,49.2,15.17-31.88,43.08-41.47,73-47.57l-54.34-9.07Z"/><path class="c" d="M121.92,338.17c15.25,12.92,31.87,25.44,38,45,15.17-29.18,43.08-37.93,73-43.53l-54.34-8.31-38.28-2.56Z"/><path class="h" d="M182.55,334.37c33.8,3.94,52.86,14.8,65.53,28.68-.85-22.45-3-44.64,8.16-52l-.66-2.42Z"/><path class="c" d="M179.91,329.47c33.8,3.54,52.87,13.19,65.53,25.66-2.19-20.08-3.88-39.92,10.14-46.5-4.48-4.64-10.46-13.43-16-15.23Z"/><path class="h" d="M127.29,338.56C116.89,341,109,346.65,101.65,353c.83-2.25,1.19-4.73,2.48-6.75l19.43-30.33Z"/><path class="c" d="M128.8,334.08c-10.4,2.44-18.31,8.09-25.64,14.45,4.4-12.95,14.24-25.09,21.91-37.07Z"/><path class="h" d="M137.21,323.54v4.75c14.14,11.54,20,23.83,25.06,37.09,10.27-18.82,27-32.18,50.94-39.57v-3.64Z"/><path class="c" d="M137.21,317.28v6.26c14.14,9.75,20,20.14,25.06,31.34,10.27-15.9,27-26.41,50.94-32.65v-6.07Z"/><path class="i" d="M146.16,317.35c-4,12.13-18.46,26.35-26.37,32.39-4.59-15.68-10.39-59.59,16.55-50.45,10.59,3.36,12.36,10.28,9.82,18Z"/><path class="j" d="M142.14,317.15c-3.17,9.67-14.21,21.16-20.23,26.13-3.17-12.34-6.76-47,13.18-40.2,7.85,2.48,9.07,7.93,7,14.12Z"/><path class="h" d="M175.32,441.15l-31.66-32.41-29.84,30.78Z"/><path class="k" d="M168.74,441.15l-24.93-25.48-23.47,24.19Z"/><path class="l" d="M92.78,199.64,116.56,298l119.38-7.93L256,178.19Z"/><path class="m" d="M113.3,210.32l16.32,83.47,91.4-6.06,15.39-97.94Z"/><path class="i" d="M199.44,310.28c4.64,11.9,19.9,25.28,28.14,30.86,3.71-15.91,7-60.08-19.35-49.44-10.39,3.94-11.77,11-8.79,18.57Z"/><path class="j" d="M203.44,309.86c3.7,9.48,15.38,20.33,21.66,24.95,2.48-12.49,4.12-47.29-15.42-39.39-7.69,2.91-8.6,8.42-6.22,14.49Z"/><path class="n" d="M102.24,288.43l4.53,24.83,20.4,9.91,46.24-.28,47.37-5.78L249,290.76l.15-28.75-36.29,22.46-75.07,10Z"/><path class="o" d="M173.41,322.89l47.37-5.78,2.08-23.54-51.39,5.11-47.33.62,3,23.87Z"/><path class="p" d="M241.44,259.26l7.71,2.74,0,5.34-26.31,26.22L169.8,301.4l-45.64-2.11-21.91-10.87.1-4.66,9.33-7.46,1.4,6.76,24.6,5.49,78.17-6.07,24.77-18.77Z"/><path class="q" d="M150.14,286.5l4.6,52.41,29.91,2.3,7.17-51.89Z"/><path class="r" d="M151.08,287.72l4.39,47.51L184,337.31l6.86-47Z"/><path class="j" d="M157.37,295.56l3,32.49,19.53,1.42,4.69-32.15Z"/><path class="q" d="M129.48,192.26,146.6,298.34l51,.85L213,190.8Z"/><path class="r" d="M130.2,193.07l16.88,98.15,50.1.8,15.17-100.29Z"/><path class="j" d="M141.5,206.51l12.19,71.12,36.3.57,11-72.66Z"/><path class="s" d="M70.62,126.85l-22.24-21V83.48L162.56,0,298.49,82.07v24.72l-14.82,17.73Z"/><path class="k" d="M78,112.39,66.4,102.6,65.34,92.34l99.95-77.41,12.56,47.56-12.56,42Z"/><path class="t" d="M165.4,14.93,279.91,88.61V98.87l-11.61,8.87-103-3.28Z"/><path class="s" d="M67.5,143.85l-2.13-31.32L165.52,35.7l125.37,82.11v24.73l-14.36,6.3Z"/><path class="b" d="M80.43,137.91l-1.16-21.44,87-67.59L178,86.81Z"/><path class="u" d="M166.24,48.88V89.77l112.43,51.6-.47-18.84Z"/><path class="s" d="M73.1,199.39l-24-27.25V149.75L165.15,66.28,298.44,149.8l-.68,21.63L281.24,190,249,201.69l-148.4,6.49Z"/><path class="k" d="M100.53,208.19,67.15,168.25V160l98.73-76.17,13.85,80.46-12.82,61.41h-10Z"/><path class="t" d="M165.88,83.84l1,141.92h16.72l64.82-24.15,31.78-36.28v-9.55Z"/><path class="c" d="M92.31,399.66l14.92,45.93,105.58,2.33,40.62-58.53-2.1-5.59L210,441.41,110,438.83l-13.75-44.3Z"/><path class="a" d="M297.05,512l5.42-23.9L283.76,453l-25.19-21.63V453.3Z"/><path class="b" d="M384.55,237.52l5.88,32.19c19,8.14,31.39,25.88,41.44,40.35,28.61-21.76,59.64-40.65,61-94.59-18.45,26.2-63,18.9-56.9-7.86Z"/><path class="c" d="M492.85,215.47c-18.47,23.67-59.7,19.78-56.9-7.87l-9.5,10.56c32.13,62.34,55.74,26,66.41-2.68Z"/><path class="b" d="M402.36,150.47l5.88,32.18c19,8.15,31.39,25.88,41.44,40.36,28.6-21.76,59.64-40.65,61-94.59-18.45,26.19-63,18.9-56.91-7.86Z"/><path class="c" d="M510.66,128.41c-18.46,23.68-59.7,19.79-56.9-7.86l-9.5,10.55c32.13,62.35,55.74,26.05,66.41-2.68Z"/><path class="d" d="M299.2,489.85,297,512l107.49-2.79L420.62,463l-.93-21.45Z"/><path class="e" d="M415.72,436.45,412.57,456l-10.26,26.82-56.21,1.6-44.07-1,26.6-48L404.31,417Z"/><path class="f" d="M302,483.32l-27.86-29.61-13.49-28,9.56-36.84,30.55-6.76,22.5,68.2Z"/><path class="g" d="M323.27,450.32l-38.36-48,5.13-16H385.4l18.89,30.62L398,445.78l-28.92,13.06Z"/><path class="h" d="M390.08,385.15c-15.25,14.12-31.87,27.81-38,49.2-15.17-31.88-43.08-41.47-73-47.57l54.34-9.07Z"/><path class="c" d="M390.08,380.11c-15.25,12.91-31.87,25.43-38,45-15.17-29.18-43.08-37.93-73-43.53l54.34-8.31,38.28-2.56Z"/><path class="h" d="M329.45,376.3c-33.8,3.94-52.86,14.8-65.53,28.68.85-22.45,3-44.64-8.16-52l.66-2.41Z"/><path class="c" d="M332.09,371.41c-33.8,3.53-52.87,13.19-65.53,25.65,2.19-20.08,3.88-39.92-10.14-46.49,4.48-4.65,10.46-13.44,16-15.24Z"/><path class="h" d="M384.71,380.49c10.4,2.44,18.31,8.09,25.64,14.46-.83-2.25-1.19-4.73-2.48-6.75l-19.43-30.33Z"/><path class="c" d="M383.2,376c10.4,2.44,18.31,8.09,25.64,14.45-4.4-12.95-14.24-25.09-21.91-37.07Z"/><path class="h" d="M374.79,365.48v4.74c-14.14,11.54-20,23.83-25.06,37.09-10.27-18.82-27.05-32.18-50.94-39.57V364.1Z"/><path class="c" d="M374.79,359.21v6.27c-14.14,9.75-20,20.13-25.06,31.33-10.27-15.9-27.05-26.41-50.94-32.65v-6.07Z"/><path class="i" d="M365.84,359.28c4,12.14,18.46,26.35,26.37,32.39,4.59-15.68,10.39-59.59-16.55-50.45-10.59,3.36-12.36,10.28-9.82,18Z"/><path class="j" d="M369.86,359.08c3.17,9.67,14.21,21.16,20.23,26.13,3.17-12.33,6.76-47-13.18-40.2-7.85,2.48-9.07,7.93-7,14.12Z"/><path class="h" d="M336.68,483.08l31.66-32.41,29.84,30.78Z"/><path class="k" d="M343.26,483.08l24.93-25.48,23.47,24.19Z"/><path class="l" d="M419.22,241.57,395.44,340,276.06,332,256,220.12Z"/><path class="m" d="M398.7,252.25l-16.32,83.47L291,329.66l-15.39-97.94Z"/><path class="i" d="M312.56,352.21c-4.64,11.9-19.9,25.28-28.14,30.86-3.71-15.91-7-60.08,19.35-49.44,10.39,3.95,11.77,11,8.79,18.57Z"/><path class="j" d="M308.56,351.79c-3.7,9.48-15.38,20.33-21.66,24.95-2.48-12.49-4.12-47.29,15.42-39.39,7.69,2.91,8.6,8.42,6.22,14.49Z"/><path class="n" d="M409.76,330.36l-4.53,24.83-20.4,9.91-46.24-.28L291.22,359,263,332.69l-.15-28.75,36.29,22.46,75.07,10Z"/><path class="o" d="M338.59,364.82,291.22,359l-2.08-23.54,51.39,5.11,47.33.62-3,23.87Z"/><path class="p" d="M270.56,301.19l-7.71,2.74,0,5.35,26.31,26.21,53.06,7.84,45.64-2.11,21.91-10.87-.1-4.66-9.33-7.46-1.4,6.76-24.6,5.49-78.17-6.07-24.77-18.77Z"/><path class="q" d="M361.86,328.43l-4.6,52.41-29.91,2.3-7.17-51.88Z"/><path class="r" d="M360.92,329.65l-4.39,47.51L328,379.25l-6.86-47Z"/><path class="j" d="M354.63,337.49l-3,32.49-19.53,1.42-4.69-32.15Z"/><path class="q" d="M382.52,234.19,365.4,340.27l-51,.85L299,232.73Z"/><path class="r" d="M381.8,235l-16.88,98.14-50.1.8L299.65,233.67Z"/><path class="j" d="M370.5,248.44l-12.19,71.12-36.3.57-11-72.66Z"/><path class="r" d="M441.38,168.78l22.24-21V125.41L349.44,41.93,213.51,124v24.72l14.82,17.73Z"/><path class="k" d="M434,154.32l11.61-9.79,1.06-10.26-100-77.41-12.56,47.56,12.56,42Z"/><path class="t" d="M346.6,56.86,232.09,130.54V140.8l11.61,8.87,103-3.27Z"/><path class="v" d="M444.5,185.78l2.13-31.32L346.48,77.63,221.11,159.74v24.73l14.36,6.3Z"/><path class="b" d="M431.57,179.84l1.16-21.44-87-67.59-11.71,37.93Z"/><path class="u" d="M345.76,90.81V131.7L233.33,183.3l.47-18.83Z"/><path class="r" d="M438.9,241.32l24-27.25V191.68L346.85,108.21,213.56,191.73l.68,21.63,16.52,18.54L263,243.62l148.4,6.49Z"/><path class="k" d="M411.47,250.12l33.38-39.94v-8.24l-98.73-76.17-13.85,80.46,12.82,61.41h10.05Z"/><path class="t" d="M346.12,125.77l-1,141.92H328.37l-64.82-24.15-31.78-36.28v-9.55Z"/><path class="c" d="M419.69,441.59l-14.92,45.93-105.58,2.33-40.62-58.53,2.1-5.59L302,483.34,402,480.76l13.75-44.3Z"/></svg>