<svg xmlns="http://www.w3.org/2000/svg" viewBox="0 0 512 512"><defs><style>.a{fill:#7e7d81;}.b{fill:#241f1d;}.c{fill:#a07984;}.d{fill:#84626a;}.e{fill:#554045;}.f{fill:#3d2b2c;}.g{fill:#483436;}.h{fill:#372828;}.i{fill:#3f3333;}.j{fill:#5d424a;}.k{fill:#b8b7bd;}.l{fill:#b09099;}.m{fill:#8a8484;}.n{fill:#666161;}.o{fill:#604749;}.p{fill:#807a7a;}.q{fill:#342f30;}.r{fill:#af74d7;}.s{fill:#6c5052;}.t{fill:#cacace;}.u{fill:#6a4682;}.v{fill:#5f4b55;}.w{fill:#7c7878;fill-opacity:1;}.x{fill:#b1b1b7;}.y{fill:#553868;}.z{fill:#948e8e;}.aa{fill:#857f7f;}</style></defs><title>armour_god_water_gloves</title><path class="a" d="M223.49,340.61l2.5,46.21L200.2,374.88l6.3-35.19Z"/><path class="b" d="M222,381.44l-30.36-9.88,20-37.29,9.64,1.73Z"/><path class="c" d="M206.72,406.39c-7,27.21-13.21,46.8-13.45,74l-8.35,6.55-16.47-35.37,28.28-45.34Z"/><path class="d" d="M159.78,404.11l4.95,60.24,8.64,21,11.55,1.53c-7.61-27.2-2.67-54.16,11.81-80.71Z"/><path class="e" d="M46.75,367.39,28.34,420.71l-5.75,26L31,458.93l1.81-15.45L59.84,374.7Z"/><path class="f" d="M31,458.93l-1.23-2.68,3.63-33.72,16.86-43.19,8.54,4Z"/><path class="e" d="M28.27,470.19l8.08-43.31L52.9,441.7,36.74,482.9Z"/><path class="f" d="M46.86,441.62,36.73,482.9l6.36.48,13.09-43.22Z"/><path class="e" d="M46.93,503.42l-9.25-14.57,15.25-47.16L74,444.2Z"/><path class="f" d="M67.62,447.89l12.93-4.49-24.5,58.53-9.12,1.5Z"/><path class="e" d="M52,497.57,57.67,512l11.58-3.13,26.82-50.64-23.9-9.71Z"/><path class="c" d="M107.23,461.09,76.61,508.6,57.69,512l9-4.76L92.26,461.5l7.63-1.66Z"/><path class="g" d="M79.61,391.19,57,428.14,46.87,441.62l-7.23-.11-3.26-14.63,14.43-43.51Z"/><path class="h" d="M77.17,394.72l-30.3,46.9,13.07-.08Z"/><path class="g" d="M105.33,404.73l-28.16-10-24.25,47,4.77,5.23,9.94,1L89.68,434Z"/><path class="h" d="M105.33,404.73l-37.7,43.15,10.48,1.5Z"/><path class="g" d="M135.55,422.7l-20.16,20.82-23.13,18-13.61.13-6.48-13.11,33.16-43.79Z"/><path class="d" d="M135.55,422.7,92.26,461.5l15-.41L135,430.79Z"/><path class="e" d="M210.57,413.26c5.48-35.83.67-42.73-15.21-57.81L159,410.82Z"/><path class="a" d="M131.08,440.92l-1.23-16.69L114.91,419l-11-12.32-19.45-2.31L74.28,391.27l-20.9-6-11.32-17.2,1.24-6.84L145.72,419l-9.3,17Z"/><path class="i" d="M165.85,412.22,136.41,436l-1.26-17L118,413,106.77,401,87.5,399.42,77.15,385.54,56.38,379.9l-13.1-18.67,10.1-22.8,17.81-10.61L97,380.09l70.1,26.62Z"/><path class="a" d="M169.24,407.87,94.69,382.79,68.5,326.57l3.2-2.23,27.61,52.87,71.42,27Z"/><path class="i" d="M179.73,380.39l-9,23.86-72.15-25.6L71.71,324.34l23.75-15.67,24.26,49.1Z"/><path class="a" d="M183.38,382.8,117.3,360.62,93.19,308.53,88,305.72l-.25-3,79.33,21.37,44.08,35-2.31,1.54c-11.67-1.53-19.58,10.91-25.47,22.16Z"/><path class="i" d="M211.74,335.81l-.57,23.29c-12.61-7.66-19.8,10.45-25.11,18.94l-64.49-22.79L97.51,306.92l-9.82-4.23,51.59-29.83Z"/><path class="j" d="M180.14,196.05l-4.7-.56c-10.25-19.81-41.93-40.84-41.93-40.84,19.69,10.16,46.56,14,46.62,41.4Z"/><path class="d" d="M215.11,199.85,180.06,196c-10.26-19.81-30.28-31.73-46.62-41.39,21.16-32.47,39-67.32,96.92-73-26.72,21.89-15.38,69.21,12.92,60.57Zm-34.76,69.83c-1.91,0-78.16-8.86-78.16-8.86,6.64-35.63,19.45-65.31,46.39-81.41-1.54,25.21,1.24,47.2,36.28,45.2Z"/><path class="j" d="M102.2,260.84l59.08,9,.95-3.68Z"/><path class="k" d="M227,320.22c-1.94,3.46-2.34,26.49-1.92,26.57a87.2,87.2,0,0,0-75.42-10c5.95-29-.16-51.33-19.31-67.63,9.42-2,18.8-4.14,27.72-7.69l34.46,29.37Z"/><path class="d" d="M224.28,318.1c-1.79,3.2-2.17,24.47-1.79,24.55-22.61-14.61-46-17.33-68.17-10.18,3.86-22.16-2.93-48.33-18.16-61.69,8.7-1.89,17.38-3.83,25.61-7.12l31.84,27.12Z"/><path class="l" d="M148.48,179.43c-33.78,38.67,2.84,63.32,36.21,45.19C152.41,225.37,147.71,204.54,148.48,179.43Zm82-97.74c-24.08,21.71-16.6,65.73,12.92,60.56l-10.6,11c-69.55-29.66-32.37-57.88-2.32-71.6Z"/><path class="m" d="M409.08,203.36l31.89.74,15.5-24.18,22.81-11.11,10.06-58L433.57,57.93,385.63,0,315.39,3.27,285.44,38.12,288,67.05Z"/><path class="n" d="M288,67.05l6.93-15L353.06,24.5l71.35,51.7,29.14,72.48-18.86,37.93-25.61,16.76Z"/><path class="o" d="M273.18,86l14.8-19,65-25.66,36.75,28.43L419,103.4l18.66,28.91-28.55,71-22.91,9.29Z"/><path class="m" d="M307.9,247.71l13.28,9.07,21.1-6,20.2,4.51,40.82-40.05,6.16-31.95L317.82,75.13l-62,10-24.55,60.94Z"/><path class="n" d="M301,101.83l47.65,39.75,29.14,47.1L373.23,215l-52.06,41.8-10.3-1.45-78-99.13-1.61-10.11,30.47-40.4Z"/><path class="i" d="M362,202.92l-40.85,53.86-79.48,49-43.28-21.63-30.69-42.4,63.54-95.66,47.26-29.74Z"/><path class="p" d="M479.29,168.81,441,204.1l-6.21-17.49,17.71-36Z"/><path class="q" d="M451.2,124.72c-18.8,0-45.34,13.72-57.41,22,19.83,13.63,78.6,41.89,78.17,0,.17-16.36-8.7-22-20.74-22Z"/><path class="r" d="M449.64,130.43c-15,0-36.13,10.17-45.84,16.31,15.81,10.1,62.65,31,62.3,0,.13-12.12-6.93-16.31-16.54-16.31Z"/><path class="s" d="M288,67.05l29.84,8.08,29.44-34.85Z"/><path class="q" d="M315.54,26.57c0,18.8,13.73,45.34,22,57.42,13.63-19.83,41.89-78.61,0-78.18-16.36-.17-22,8.7-22,20.75Z"/><path class="r" d="M321.24,28.13c0,15,10.18,36.12,16.32,45.84,10.1-15.81,31-62.65,0-62.3-12.12-.13-16.32,6.93-16.32,16.53Z"/><path class="k" d="M241.71,305.77c-3.51,5.36-4.71,24.36-4.24,24.39C213,314.35,187.12,314.25,163.14,322c6-29-1.25-53.1-20.4-69.39,12.82-3.55,19-7,25-10.83l32.53,40.66Z"/><path class="d" d="M241.71,305.77c-4.87,1.94-7.58,19.4-7.2,19.48-22.57-14.57-44.95-14.92-67-7.81,5.1-24.59-1.42-48.53-19.08-63.91a58.9,58.9,0,0,0,19.37-11.79Z"/><path class="t" d="M278.55,116.34l-98.76,144L224.27,300l137.78-97.09,3.53-8.8-6.16-11.55-7.27,5.58-37.26-26.73-18.59-36,5.36-7.26L292,111Z"/><path class="u" d="M285.87,139l30.88,24.55,24,32.64-109.8,79.12-28.17-23.26Z"/><path class="v" d="M179.78,260.35l12.95,28.95L224.26,300l-19.66-22.2Z"/><path class="w" d="M179.78,260.35l5.32-7.94,44.52,40.29L362,202.92,224.26,300Z"/><path class="x" d="M278.55,116.34l17.74,9.09,5.44-7.26L292.11,111Zm87,77.69L362,202.84l-9.9-14.78,7.26-5.58Z"/><path class="s" d="M419,103.41l-32.79,54.23-35.66-43Z"/><path class="y" d="M296.29,125.41l55.86,62.73-11.4,8.09-54.87-57.18Z"/><path class="z" d="M317.83,75.13l30.76,66.45,60.87,41.75-31.19-56.22ZM385.63,0l38.85,76.19,64.93,34.61Z"/><path class="aa" d="M373.24,215l-10.75,40.35-41.29,1.44Z"/><path class="z" d="M255.83,85.15l5.92,20.62-30.48,40.4-4.91-25.7Z"/></svg>