<svg xmlns="http://www.w3.org/2000/svg" viewBox="0 0 512 512" width="512" height="512">
	<style>
		tspan { white-space:pre }
		.shp0 { fill: #626262 } 
		.shp1 { fill: #555555 } 
	</style>
	<g id="Layer">
		<path id="Layer" class="shp0" d="M403.16 213.91C399.28 210.05 393.4 209.02 388.43 211.34L288.28 258.28C286.92 258.92 285.65 259.8 284.58 260.89L179.26 366.77C176.82 369.21 175.45 372.53 175.47 375.99C175.47 379.45 176.85 382.76 179.31 385.2L233.04 438.66C235.59 441.18 238.91 442.45 242.23 442.45C245.59 442.45 248.93 441.18 251.47 438.62L356.82 332.75C357.87 331.65 358.75 330.39 359.39 329.01L405.79 228.62C408.09 223.65 407.04 217.76 403.16 213.91L403.16 213.91Z" />
	</g>
	<path id="Layer" class="shp0" d="M278.57 447.19L170.55 339.72C165.45 334.63 157.19 334.67 152.1 339.75L109.79 382.31C107.37 384.75 106 388.07 106 391.53C106 394.99 107.38 398.3 109.84 400.74L217.87 508.19C220.31 510.63 223.61 512 227.06 512L227.09 512C230.55 511.98 233.86 510.6 236.3 508.16L278.63 465.62C283.7 460.51 283.66 452.26 278.57 447.19L278.57 447.19Z" />
	<path id="Layer" class="shp1" d="M403.16 213.91C399.28 210.05 393.4 209.02 388.43 211.34L366.89 221.45C367.2 223.84 366.89 226.33 365.83 228.62L319.42 329.01C318.79 330.39 317.91 331.65 316.84 332.73L222.19 427.88L233.04 438.66C235.59 441.18 238.91 442.45 242.23 442.45C245.59 442.45 248.93 441.17 251.47 438.62L356.82 332.73C357.87 331.65 358.75 330.39 359.39 329.01L405.79 228.62C408.09 223.65 407.04 217.76 403.16 213.91L403.16 213.91Z" />
	<path id="Layer" class="shp1" d="M278.57 447.19L170.55 339.72C165.45 334.63 157.19 334.67 152.1 339.75L141.43 350.52L238.6 447.19C243.7 452.26 243.72 460.51 238.65 465.62L207.03 497.41L217.87 508.21C220.31 510.63 223.63 512 227.06 512L227.09 512C230.55 511.98 233.87 510.6 236.3 508.16L278.63 465.62C283.7 460.51 283.66 452.26 278.57 447.19L278.57 447.19Z" />
	<g id="Layer copy 2">
		<path id="Layer copy" class="shp0" d="M344.16 3.91C340.28 0.05 334.4 -0.98 329.43 1.34L229.28 48.28C227.92 48.92 226.65 49.8 225.58 50.89L120.26 156.77C117.82 159.21 116.45 162.53 116.47 165.99C116.47 169.45 117.85 172.76 120.31 175.2L174.04 228.66C176.59 231.18 179.91 232.45 183.23 232.45C186.59 232.45 189.93 231.18 192.47 228.62L297.82 122.75C298.87 121.65 299.75 120.39 300.39 119.01L346.79 18.62C349.09 13.65 348.04 7.76 344.16 3.91L344.16 3.91Z" />
	</g>
	<path id="Layer copy 3" class="shp0" d="M219.57 237.19L111.55 129.72C106.45 124.63 98.19 124.67 93.1 129.75L50.79 172.31C48.37 174.75 47 178.07 47 181.53C47 184.99 48.38 188.3 50.84 190.74L158.87 298.19C161.31 300.63 164.61 302 168.06 302L168.09 302C171.55 301.98 174.86 300.6 177.3 298.16L219.63 255.62C224.7 250.51 224.66 242.26 219.57 237.19L219.57 237.19Z" />
	<path id="Layer copy 4" class="shp1" d="M344.16 3.91C340.28 0.05 334.4 -0.98 329.43 1.34L307.89 11.45C308.2 13.84 307.89 16.33 306.83 18.62L260.42 119.01C259.79 120.39 258.91 121.65 257.84 122.73L163.19 217.88L174.04 228.66C176.59 231.18 179.91 232.45 183.23 232.45C186.59 232.45 189.93 231.17 192.47 228.62L297.82 122.73C298.87 121.65 299.75 120.39 300.39 119.01L346.79 18.62C349.09 13.65 348.04 7.76 344.16 3.91L344.16 3.91Z" />
	<path id="Layer copy 5" class="shp1" d="M219.57 237.19L111.55 129.72C106.45 124.63 98.19 124.67 93.1 129.75L82.43 140.52L179.6 237.19C184.7 242.26 184.72 250.51 179.65 255.62L148.03 287.41L158.87 298.21C161.31 300.63 164.63 302 168.06 302L168.09 302C171.55 301.98 174.87 300.6 177.3 298.16L219.63 255.62C224.7 250.51 224.66 242.26 219.57 237.19L219.57 237.19Z" />
</svg>