<svg xmlns="http://www.w3.org/2000/svg" viewBox="0 0 512 512" width="512" height="512">
	<style>
		tspan { white-space:pre }
		.shp0 { fill: #b4b4b4 } 
		.shp1 { fill: #a7a7a7 } 
	</style>
	<g id="Layer">
		<path id="Layer" class="shp0" d="M351.17 3.78C347.31 -0.07 341.45 -1.09 336.49 1.22L236.68 48C235.32 48.64 234.06 49.52 232.99 50.61L128.01 156.13C125.58 158.57 124.22 161.88 124.24 165.33C124.24 168.78 125.62 172.07 128.06 174.5L181.62 227.78C184.16 230.3 187.47 231.56 190.78 231.56C194.13 231.56 197.45 230.3 199.99 227.75L304.98 122.22C306.03 121.14 306.91 119.88 307.55 118.5L353.79 18.44C356.09 13.49 355.04 7.62 351.17 3.78L351.17 3.78Z" />
	</g>
	<path id="Layer" class="shp0" d="M227 236.29L119.34 129.17C114.25 124.1 106.02 124.14 100.95 129.21L58.78 171.62C56.36 174.05 55 177.37 55 180.82C55 184.27 56.38 187.56 58.83 189.99L166.49 297.09C168.93 299.52 172.22 300.88 175.65 300.88L175.69 300.88C179.14 300.86 182.43 299.49 184.86 297.05L227.05 254.66C232.11 249.57 232.07 241.34 227 236.29L227 236.29Z" />
	<path id="Layer" class="shp1" d="M351.17 3.78C347.31 -0.07 341.45 -1.09 336.49 1.22L315.02 11.3C315.33 13.68 315.02 16.16 313.97 18.44L267.71 118.5C267.09 119.88 266.21 121.14 265.14 122.21L170.81 217.04L181.62 227.78C184.16 230.3 187.47 231.56 190.78 231.56C194.13 231.56 197.45 230.28 199.99 227.75L304.98 122.21C306.03 121.14 306.91 119.88 307.55 118.5L353.79 18.44C356.09 13.49 355.04 7.62 351.17 3.78L351.17 3.78Z" />
	<path id="Layer" class="shp1" d="M227 236.29L119.34 129.17C114.25 124.1 106.02 124.14 100.95 129.21L90.31 139.94L187.16 236.29C192.25 241.34 192.26 249.57 187.21 254.66L155.7 286.34L166.49 297.1C168.93 299.52 172.24 300.88 175.65 300.88L175.69 300.88C179.14 300.86 182.45 299.49 184.86 297.05L227.05 254.66C232.11 249.57 232.07 241.34 227 236.29L227 236.29Z" />
	<g id="Layer copy 2">
		<path id="Layer copy" class="shp0" d="M403.17 214.78C399.31 210.93 393.45 209.91 388.49 212.22L288.68 259C287.32 259.64 286.06 260.52 284.99 261.61L180.01 367.13C177.58 369.57 176.22 372.88 176.24 376.33C176.24 379.78 177.62 383.07 180.06 385.5L233.62 438.78C236.16 441.3 239.47 442.56 242.78 442.56C246.13 442.56 249.45 441.3 251.99 438.75L356.98 333.22C358.03 332.14 358.91 330.88 359.55 329.5L405.79 229.44C408.09 224.49 407.04 218.62 403.17 214.78L403.17 214.78Z" />
	</g>
	<path id="Layer copy 3" class="shp0" d="M279 447.29L171.34 340.17C166.25 335.1 158.02 335.14 152.95 340.21L110.78 382.62C108.36 385.05 107 388.37 107 391.82C107 395.27 108.38 398.56 110.83 400.99L218.49 508.09C220.93 510.52 224.22 511.88 227.65 511.88L227.69 511.88C231.14 511.86 234.43 510.49 236.86 508.05L279.05 465.66C284.11 460.57 284.07 452.34 279 447.29L279 447.29Z" />
	<path id="Layer copy 4" class="shp1" d="M403.17 214.78C399.31 210.93 393.45 209.91 388.49 212.22L367.02 222.3C367.33 224.68 367.02 227.16 365.97 229.44L319.71 329.5C319.09 330.88 318.21 332.14 317.14 333.21L222.81 428.04L233.62 438.78C236.16 441.3 239.47 442.56 242.78 442.56C246.13 442.56 249.45 441.28 251.99 438.75L356.98 333.21C358.03 332.14 358.91 330.88 359.55 329.5L405.79 229.44C408.09 224.49 407.04 218.62 403.17 214.78L403.17 214.78Z" />
	<path id="Layer copy 5" class="shp1" d="M279 447.29L171.34 340.17C166.25 335.1 158.02 335.14 152.95 340.21L142.31 350.94L239.16 447.29C244.25 452.34 244.26 460.57 239.21 465.66L207.7 497.34L218.49 508.1C220.93 510.52 224.24 511.88 227.65 511.88L227.69 511.88C231.14 511.86 234.45 510.49 236.86 508.05L279.05 465.66C284.11 460.57 284.07 452.34 279 447.29L279 447.29Z" />
</svg>