<svg xmlns="http://www.w3.org/2000/svg" viewBox="0 0 512 512" width="512" height="512">
	<style>
		tspan { white-space:pre }
		.shp0 { fill: #c71e1e } 
		.shp1 { fill: #b81b1b } 
	</style>
	<g id="Layer">
		<path id="Layer" class="shp0" d="M403.17 214.9C399.31 211.05 393.45 210.03 388.49 212.34L288.68 259.12C287.32 259.76 286.06 260.64 284.99 261.72L180.01 367.25C177.58 369.68 176.22 372.99 176.24 376.44C176.24 379.89 177.62 383.19 180.06 385.62L233.62 438.9C236.16 441.42 239.47 442.68 242.78 442.68C246.13 442.68 249.45 441.42 251.99 438.87L356.98 333.34C358.03 332.25 358.91 330.99 359.55 329.61L405.79 229.56C408.09 224.61 407.04 218.74 403.17 214.9L403.17 214.9Z" />
	</g>
	<path id="Layer" class="shp0" d="M279 447.4L171.34 340.29C166.25 335.22 158.02 335.26 152.95 340.33L110.78 382.74C108.36 385.17 107 388.48 107 391.93C107 395.38 108.38 398.68 110.83 401.11L218.49 508.21C220.93 510.64 224.22 512 227.65 512L227.69 512C231.14 511.98 234.43 510.6 236.86 508.17L279.05 465.77C284.11 460.69 284.07 452.46 279 447.4L279 447.4Z" />
	<path id="Layer" class="shp1" d="M403.17 214.9C399.31 211.05 393.45 210.03 388.49 212.34L367.02 222.42C367.33 224.8 367.02 227.28 365.97 229.56L319.71 329.61C319.09 330.99 318.21 332.25 317.14 333.32L222.81 428.16L233.62 438.9C236.16 441.42 239.47 442.68 242.78 442.68C246.13 442.68 249.45 441.4 251.99 438.87L356.98 333.32C358.03 332.25 358.91 330.99 359.55 329.61L405.79 229.56C408.09 224.61 407.04 218.74 403.17 214.9L403.17 214.9Z" />
	<path id="Layer" class="shp1" d="M279 447.4L171.34 340.29C166.25 335.22 158.02 335.26 152.95 340.33L142.31 351.05L239.16 447.4C244.25 452.46 244.26 460.69 239.21 465.77L207.7 497.46L218.49 508.22C220.93 510.64 224.24 512 227.65 512L227.69 512C231.14 511.98 234.45 510.6 236.86 508.17L279.05 465.77C284.11 460.69 284.07 452.46 279 447.4L279 447.4Z" />
	<g id="Layer copy 2">
		<path id="Layer copy" class="shp0" d="M353.17 3.9C349.31 0.05 343.45 -0.97 338.49 1.34L238.68 48.12C237.32 48.76 236.06 49.64 234.99 50.72L130.01 156.25C127.58 158.68 126.22 161.99 126.24 165.44C126.24 168.89 127.62 172.19 130.06 174.62L183.62 227.9C186.16 230.42 189.47 231.68 192.78 231.68C196.13 231.68 199.45 230.42 201.99 227.87L306.98 122.34C308.03 121.25 308.91 119.99 309.55 118.61L355.79 18.56C358.09 13.61 357.04 7.74 353.17 3.9L353.17 3.9Z" />
	</g>
	<path id="Layer copy 3" class="shp0" d="M229 236.4L121.34 129.29C116.25 124.22 108.02 124.26 102.95 129.33L60.78 171.74C58.36 174.17 57 177.48 57 180.93C57 184.38 58.38 187.68 60.83 190.11L168.49 297.21C170.93 299.64 174.22 301 177.65 301L177.69 301C181.14 300.98 184.43 299.6 186.86 297.17L229.05 254.77C234.11 249.69 234.07 241.46 229 236.4L229 236.4Z" />
	<path id="Layer copy 4" class="shp1" d="M353.17 3.9C349.31 0.05 343.45 -0.97 338.49 1.34L317.02 11.42C317.33 13.8 317.02 16.28 315.97 18.56L269.71 118.61C269.09 119.99 268.21 121.25 267.14 122.32L172.81 217.16L183.62 227.9C186.16 230.42 189.47 231.68 192.78 231.68C196.13 231.68 199.45 230.4 201.99 227.87L306.98 122.32C308.03 121.25 308.91 119.99 309.55 118.61L355.79 18.56C358.09 13.61 357.04 7.74 353.17 3.9L353.17 3.9Z" />
	<path id="Layer copy 5" class="shp1" d="M229 236.4L121.34 129.29C116.25 124.22 108.02 124.26 102.95 129.33L92.31 140.05L189.16 236.4C194.25 241.46 194.26 249.69 189.21 254.77L157.7 286.46L168.49 297.22C170.93 299.64 174.24 301 177.65 301L177.69 301C181.14 300.98 184.45 299.6 186.86 297.17L229.05 254.77C234.11 249.69 234.07 241.46 229 236.4L229 236.4Z" />
</svg>