<?xml version="1.0" encoding="utf-8"?>
<!-- Generator: Adobe Illustrator 23.0.1, SVG Export Plug-In . SVG Version: 6.00 Build 0)  -->
<svg version="1.1" id="Layer_1" xmlns="http://www.w3.org/2000/svg" xmlns:xlink="http://www.w3.org/1999/xlink" x="0px" y="0px"
	 viewBox="0 0 512 512" style="enable-background:new 0 0 512 512;" xml:space="preserve">
<style type="text/css">
	.st0{fill:#303030;stroke:#303030;stroke-width:4;stroke-miterlimit:10;}
	.st1{fill:#222222;stroke:#222222;stroke-width:4;stroke-miterlimit:10;}
	.st2{stroke:#000000;stroke-width:4;stroke-linejoin:round;stroke-miterlimit:10;}
	.st3{fill:#C8B320;stroke:#C8B320;stroke-width:4;stroke-linejoin:round;stroke-miterlimit:10;}
</style>
<g>
	<path class="st0" d="M239,365c0-75,0-150,0-225c-9.46-9.53-27.91-25.1-55-31c-66.24-14.41-117.83,43.48-120,46
		c16,72.33,32,144.67,48,217C154.33,369.67,196.67,367.33,239,365z"/>
</g>
<g id="Layer_3">
	<path class="st1" d="M112.01,371.92l39.4-264.02c0.01-0.08,0.13-0.08,0.14,0l21.83,260.64c0,0.04-0.03,0.07-0.07,0.08L112.08,372
		C112.04,372,112.01,371.96,112.01,371.92z"/>
	<path class="st1" d="M173,369l65.76-228.16c0.04-0.14,0.24-0.11,0.24,0.03V365L173,369z"/>
</g>
<g>
	<path class="st2" d="M112.6,376.51c-3.94-22.71,17.87-35.9,42.56-41.43c21.07-4.72,79.56-0.41,83.73,24.4
		c2.02,12-2.98,22.31-7.41,26.63c-21.28,20.72-69.33,24.07-90.21,14.79C137.5,399.22,115.39,392.55,112.6,376.51z"/>
	<path class="st3" d="M108,257c1.33,8.67,2.67,17.33,4,26c15.13-7.02,44.71-17.94,81-13c11.98,1.63,22.39,4.68,31,8
		c0-8.67,0-17.33,0-26c-7.77-3.22-16.79-6.12-27-8C157.48,236.73,124.33,249.28,108,257z"/>
	<path class="st3" d="M98,204l-5-27c13.07-8.2,47.68-27.32,92-22c15.79,1.89,28.96,6.43,39,11c0,9.39,0,18.77,0,28.16
		c-8.34-3.36-18.04-6.35-29-8.16C151.02,178.73,114.67,195.02,98,204z"/>
	<path class="st0" d="M272,364c0-75,0-150,0-225c9.46-9.53,27.91-25.1,55-31c66.24-14.41,117.83,43.48,120,46
		c-16,72.33-32,144.67-48,217C356.67,368.67,314.33,366.33,272,364z"/>
	<path class="st1" d="M398.99,370.92l-39.4-264.02c-0.01-0.08-0.13-0.08-0.14,0l-21.83,260.64c0,0.04,0.03,0.07,0.07,0.08
		l61.23,3.37C398.96,371,398.99,370.96,398.99,370.92z"/>
	<path class="st1" d="M338,368l-65.76-228.16c-0.04-0.14-0.24-0.11-0.24,0.03V364L338,368z"/>
	<path class="st2" d="M398.4,375.51c3.94-22.71-17.87-35.9-42.56-41.43c-21.07-4.72-79.56-0.41-83.73,24.4
		c-2.02,12,2.98,22.31,7.41,26.63c21.28,20.72,69.33,24.07,90.21,14.79C373.5,398.22,395.61,391.55,398.4,375.51z"/>
	<path class="st3" d="M403,256c-1.33,8.67-2.67,17.33-4,26c-15.13-7.02-44.71-17.94-81-13c-11.98,1.63-22.39,4.68-31,8
		c0-8.67,0-17.33,0-26c7.77-3.22,16.79-6.12,27-8C353.52,235.73,386.67,248.28,403,256z"/>
	<path class="st3" d="M413,203l5-27c-13.07-8.2-47.68-27.32-92-22c-15.79,1.89-28.96,6.43-39,11c0,9.39,0,18.77,0,28.16
		c8.34-3.36,18.04-6.35,29-8.16C359.98,177.73,396.33,194.02,413,203z"/>
</g>
</svg>
