<svg xmlns="http://www.w3.org/2000/svg" viewBox="0 0 512 512" width="512" height="512">
	<style>
		tspan { white-space:pre }
		.shp0 { fill: #725d57 } 
		.shp1 { fill: #53433f } 
		.shp2 { fill: #90adb2 } 
		.shp3 { fill: #8aa3a7 } 
		.shp4 { fill: #7f736f } 
		.shp5 { fill: #746966 } 
		.shp6 { fill: #99b6ba } 
		.shp7 { fill: #6f8487 } 
		.shp8 { fill: #7f989b } 
	</style>
	<path id="Layer" class="shp0" d="M30 196L482 196L482 466L30 466L30 196Z" />
	<path id="Layer" class="shp1" d="M256 196L482 196L482 466L256 466L256 196Z" />
	<path id="Layer" fill-rule="evenodd" class="shp2" d="M512 196L512 481C512 489.4 505.4 496 497 496L15 496C6.6 496 0 489.4 0 481L0 196L30 166L482 166L512 196ZM452 256L60 256L60 436L226 436L226 286L286 286L286 436L452 436L452 256Z" />
	<path id="Layer" class="shp3" d="M256 166L256 256L452 256L452 436L286 436L286 286L256 286L256 496L497 496C505.4 496 512 489.4 512 481L512 196L482 166L256 166Z" />
	<path id="Layer" class="shp0" d="M30 46L482 46L482 166L30 166L30 46Z" />
	<path id="Layer" class="shp1" d="M256 46L482 46L482 166L256 166L256 46Z" />
	<path id="Layer" class="shp4" d="M363 185L363 334.1C363 392.89 315.29 440.6 256.5 440.6C197.71 440.6 150 392.89 150 334.1L150 185L363 185Z" />
	<path id="Layer" class="shp5" d="M363 185L363 334.1C363 392.89 315.29 440.6 256.5 440.6L256.5 185L363 185Z" />
	<path id="Layer" class="shp6" d="M497 16L467 16C458.72 16 452 22.72 452 31L452 136L286 136L286 31C286 22.6 279.4 16 271 16L241 16C232.6 16 226 22.6 226 31L226 136L60 136L60 31C60 22.72 53.28 16 45 16L15 16C6.72 16 0 22.72 0 31L0 136L0 196L512 196L512 136L512 31C512 22.72 505.28 16 497 16Z" />
	<path id="Layer" class="shp7" d="M512 196L512 136L512 31C512 22.72 505.28 16 497 16L467 16C458.72 16 452 22.72 452 31L452 136L286 136L286 31C286 22.6 279.4 16 271 16L256 16L256 196L512 196Z" />
	<g id="Layer_2">
		<g id="Layer_2-2">
			<path id="Layer" class="shp7" d="M280.64 228.61C326.96 241.21 352.82 290.57 339.14 336.64C339.14 336.64 347.29 304.71 321 272.11C306 253.36 272.86 244.57 272.54 265.14C236.21 263.75 244.07 218.61 280.64 228.61Z" />
			<path id="Layer" fill-rule="evenodd" class="shp6" d="M156 312C156 298.87 158.59 285.86 163.61 273.73C168.64 261.6 176 250.58 185.29 241.29C194.58 232 205.6 224.64 217.73 219.61C229.86 214.59 242.87 212 256 212C296.45 212 332.91 236.36 348.39 273.73C363.87 311.1 355.31 354.11 326.71 382.71C298.11 411.31 255.1 419.87 217.73 404.39C180.36 388.91 156 352.45 156 312ZM161.89 312C161.91 324.34 164.36 336.55 169.1 347.95C173.84 359.34 180.78 369.69 189.52 378.4C198.25 387.11 208.62 394.02 220.03 398.72C231.44 403.43 243.66 405.84 256 405.82C294 405.76 328.23 382.82 342.72 347.68C357.21 312.55 349.11 272.15 322.2 245.31C295.28 218.48 254.86 210.5 219.77 225.1C184.68 239.7 161.84 273.99 161.89 312Z" />
			<path id="Layer" class="shp6" d="M169.04 312C169.02 300.58 171.26 289.26 175.63 278.7C179.99 268.15 186.4 258.55 194.48 250.48C202.55 242.4 212.15 235.99 222.7 231.63C233.26 227.26 244.58 225.02 256 225.04C198.57 227.07 163.14 312.79 210.07 355.82C251.75 394.14 282.89 349.46 250.11 340.29C250.11 331.18 255.86 325.07 267.5 325.07C272.75 313.14 306.25 311.79 318.96 331.93C321.28 335.31 322.97 339.09 323.95 343.07C324.94 347.05 325.19 351.18 324.71 355.25C324.24 359.33 323.03 363.28 321.15 366.93C319.27 370.57 316.75 373.85 313.71 376.61C309.8 380.14 305.57 383.3 301.07 386.05C296.58 388.81 291.84 391.14 286.91 393.02C281.99 394.91 276.9 396.33 271.72 397.28C266.53 398.23 261.27 398.7 256 398.68C244.6 398.7 233.3 396.47 222.76 392.12C212.22 387.78 202.64 381.4 194.57 373.35C186.49 365.3 180.08 355.74 175.7 345.21C171.32 334.69 169.05 323.4 169.04 312L169.04 312Z" />
			<path id="Layer" class="shp8" d="M201.57 307.25C192.29 275.71 220.82 237.32 251.11 228.68C251.11 228.68 228.11 236.75 212.93 266.82C195.75 300.96 221.29 334.68 250.68 321C240.5 334.93 209.29 333.43 201.57 307.25Z" />
			<path id="Layer" class="shp8" d="M314.68 285.07C312.77 283.21 310.73 281.49 308.58 279.92C306.42 278.34 304.17 276.92 301.82 275.67C299.47 274.41 297.03 273.32 294.53 272.4C292.03 271.48 289.46 270.74 286.86 270.18C289.54 266.32 303.54 266.82 316.54 279.21C329.54 291.61 334.14 312 334.14 319.79C331.79 306.07 323.14 293.82 314.68 285.07Z" />
		</g>
	</g>
</svg>