<svg xmlns="http://www.w3.org/2000/svg" viewBox="0 0 512 512" width="512" height="512">
	<style>
		tspan { white-space:pre }
		.shp0 { fill: #725d57 } 
		.shp1 { fill: #53433f } 
		.shp2 { fill: #77bfde } 
		.shp3 { fill: #53b7e1 } 
		.shp4 { fill: #7f736f } 
		.shp5 { fill: #746966 } 
		.shp6 { fill: #29abe2 } 
		.shp7 { fill: #00ffff } 
	</style>
	<path id="Layer" class="shp0" d="M30 196L482 196L482 466L30 466L30 196Z" />
	<path id="Layer" class="shp1" d="M256 196L482 196L482 466L256 466L256 196Z" />
	<path id="Layer" fill-rule="evenodd" class="shp2" d="M512 196L512 481C512 489.4 505.4 496 497 496L15 496C6.6 496 0 489.4 0 481L0 196L30 166L482 166L512 196ZM452 256L60 256L60 436L226 436L226 286L286 286L286 436L452 436L452 256Z" />
	<path id="Layer" class="shp3" d="M256 166L256 256L452 256L452 436L286 436L286 286L256 286L256 496L497 496C505.4 496 512 489.4 512 481L512 196L482 166L256 166Z" />
	<path id="Layer" class="shp0" d="M30 46L482 46L482 166L30 166L30 46Z" />
	<path id="Layer" class="shp1" d="M256 46L482 46L482 166L256 166L256 46Z" />
	<path id="Layer" class="shp4" d="M363 185L363 334.1C363 392.89 315.29 440.6 256.5 440.6C197.71 440.6 150 392.89 150 334.1L150 185L363 185Z" />
	<path id="Layer" class="shp5" d="M363 185L363 334.1C363 392.89 315.29 440.6 256.5 440.6L256.5 185L363 185Z" />
	<path id="Layer" class="shp3" d="M497 16L467 16C458.72 16 452 22.72 452 31L452 136L286 136L286 31C286 22.6 279.4 16 271 16L241 16C232.6 16 226 22.6 226 31L226 136L60 136L60 31C60 22.72 53.28 16 45 16L15 16C6.72 16 0 22.72 0 31L0 136L0 196L512 196L512 136L512 31C512 22.72 505.28 16 497 16Z" />
	<path id="Layer" class="shp6" d="M512 196L512 136L512 31C512 22.72 505.28 16 497 16L467 16C458.72 16 452 22.72 452 31L452 136L286 136L286 31C286 22.6 279.4 16 271 16L256 16L256 196L512 196Z" />
	<g id="Layer_2">
		<g id="Layer_2-2">
			<path id="Layer" fill-rule="evenodd" class="shp6" d="M256 212C269.13 212 282.14 214.59 294.27 219.61C306.4 224.64 317.42 232 326.71 241.29C336 250.58 343.36 261.6 348.39 273.73C353.41 285.86 356 298.87 356 312C356 352.45 331.64 388.91 294.27 404.39C256.9 419.87 213.89 411.31 185.29 382.71C156.69 354.11 148.13 311.1 163.61 273.73C179.09 236.36 215.55 212 256 212ZM256 405.82C268.32 405.8 280.51 403.36 291.88 398.64C303.26 393.92 313.59 387.01 322.3 378.3C331.01 369.59 337.92 359.26 342.64 347.88C347.36 336.51 349.8 324.32 349.82 312C349.88 273.97 327.01 239.65 291.88 225.07C256.76 210.49 216.31 218.52 189.41 245.41C162.52 272.31 154.49 312.76 169.07 347.88C183.65 383.01 217.97 405.88 256 405.82Z" />
			<path id="Layer" fill-rule="evenodd" class="shp6" d="M256 225.04C291.09 225.09 322.7 246.27 336.1 278.7C349.5 311.13 342.06 348.44 317.25 373.25C292.44 398.06 255.13 405.5 222.7 392.1C190.27 378.69 169.09 347.09 169.04 312C169.04 288.64 196.71 252.93 250 277.57C273.43 288.43 289.32 307.64 307.14 297.32C324.96 287 313.14 227.07 256 225.04ZM233.64 312.38C233.03 312.63 232.49 312.99 232.03 313.45C231.56 313.91 231.2 314.46 230.95 315.06C230.7 315.67 230.57 316.31 230.57 316.96C230.56 318.99 231.77 320.83 233.64 321.61C235.51 322.4 237.67 321.97 239.11 320.54C240.54 319.1 240.97 316.94 240.18 315.07C239.4 313.2 237.56 311.99 235.54 312C234.88 312 234.24 312.13 233.64 312.38ZM208.21 314.21C210.08 314.21 211.92 313.85 213.65 313.14C215.37 312.43 216.94 311.39 218.27 310.08C219.59 308.77 220.65 307.21 221.37 305.49C222.1 303.78 222.48 301.94 222.5 300.07C222.5 294.29 219.02 289.08 213.68 286.87C208.34 284.66 202.2 285.88 198.11 289.97C194.03 294.06 192.81 300.2 195.02 305.54C197.23 310.88 202.44 314.36 208.21 314.36L208.21 314.21ZM230.57 362.79C230.88 362.79 231.19 362.73 231.48 362.61C231.77 362.5 232.04 362.33 232.27 362.11C232.49 361.9 232.68 361.65 232.81 361.36C232.94 361.08 233.02 360.78 233.04 360.46C233.05 359.45 232.45 358.52 231.51 358.13C230.57 357.73 229.49 357.94 228.77 358.66C228.05 359.38 227.84 360.46 228.23 361.4C228.63 362.34 229.55 362.94 230.57 362.93L230.57 362.79ZM235.54 350.39C236.67 350.39 237.78 350.16 238.83 349.73C239.87 349.3 240.82 348.67 241.62 347.88C242.43 347.08 243.07 346.14 243.51 345.1C243.96 344.07 244.2 342.95 244.21 341.82C244.21 338.29 242.09 335.11 238.83 333.77C235.57 332.42 231.82 333.17 229.33 335.67C226.84 338.17 226.1 341.93 227.46 345.18C228.82 348.44 232.01 350.55 235.54 350.54L235.54 350.39Z" />
			<path id="Layer" class="shp7" d="M338.14 284.32C338.14 285.46 346.96 319.39 330.5 343.21C300.86 386.07 281.21 344.29 262.29 371.07C249 389.89 224.96 393.07 185.64 363.04C197.88 379.69 215.66 391.43 235.78 396.16C255.9 400.88 277.04 398.28 295.42 388.81C313.79 379.35 328.18 363.64 336.01 344.51C343.85 325.39 344.6 304.1 338.14 284.46L338.14 284.32Z" />
			<path id="Layer" class="shp7" d="M256 225.04C313.14 227.07 324.96 287 307.14 297.32C289.32 307.64 273.43 288.43 250 277.57C196.71 252.93 169.04 288.64 169.04 312C171.39 296.57 189.71 268.46 235.21 280.61C276.14 291.43 321.07 343 331 304.86C339.57 272.39 303.82 225.04 256 225.04Z" />
			<path id="Layer" class="shp7" d="M203.79 298.57C201.42 298.57 199.5 296.66 199.5 294.29C199.5 291.92 201.42 290 203.79 290C206.16 290 208.07 291.92 208.07 294.29C208.07 296.66 206.16 298.57 203.79 298.57Z" />
			<path id="Layer" class="shp7" d="M236.25 315.11C236.25 314.85 236.2 314.6 236.1 314.37C236.01 314.13 235.86 313.92 235.69 313.74C235.51 313.56 235.29 313.42 235.06 313.33C234.83 313.23 234.57 313.18 234.32 313.18C234.07 313.18 233.81 313.23 233.58 313.32C233.34 313.42 233.13 313.56 232.95 313.74C232.76 313.92 232.62 314.13 232.52 314.37C232.42 314.6 232.36 314.85 232.36 315.11C232.36 315.36 232.41 315.62 232.51 315.86C232.61 316.1 232.75 316.31 232.93 316.5C233.12 316.68 233.33 316.82 233.57 316.92C233.81 317.02 234.06 317.07 234.32 317.07C234.58 317.07 234.83 317.01 235.06 316.91C235.3 316.81 235.51 316.67 235.69 316.48C235.87 316.3 236.01 316.09 236.1 315.85C236.2 315.61 236.25 315.36 236.25 315.11Z" />
			<path id="Layer" class="shp7" d="M235.46 338.61C235.46 338.26 235.39 337.91 235.25 337.59C235.12 337.26 234.92 336.97 234.67 336.72C234.42 336.48 234.13 336.28 233.81 336.14C233.48 336.01 233.14 335.93 232.79 335.93C232.44 335.93 232.09 336.01 231.77 336.14C231.45 336.28 231.16 336.48 230.91 336.73C230.67 336.97 230.48 337.27 230.34 337.59C230.21 337.91 230.14 338.26 230.14 338.61C230.14 338.95 230.21 339.3 230.34 339.62C230.48 339.94 230.67 340.23 230.92 340.48C231.16 340.72 231.45 340.92 231.77 341.05C232.1 341.18 232.44 341.25 232.79 341.25C233.13 341.25 233.48 341.18 233.8 341.05C234.13 340.92 234.42 340.72 234.67 340.48C234.92 340.23 235.11 339.94 235.25 339.62C235.39 339.3 235.46 338.96 235.46 338.61Z" />
			<path id="Layer" class="shp7" d="M231.18 359.32C231.18 359.18 231.15 359.05 231.1 358.92C231.05 358.79 230.97 358.67 230.88 358.58C230.78 358.48 230.67 358.4 230.54 358.34C230.42 358.29 230.28 358.25 230.14 358.25C230 358.25 229.87 358.28 229.74 358.34C229.61 358.4 229.49 358.47 229.4 358.57C229.3 358.67 229.22 358.79 229.16 358.92C229.11 359.04 229.08 359.18 229.07 359.32C229.08 359.46 229.11 359.59 229.16 359.72C229.22 359.85 229.3 359.96 229.4 360.06C229.5 360.15 229.61 360.23 229.74 360.28C229.87 360.33 230.01 360.36 230.14 360.36C230.28 360.36 230.41 360.33 230.54 360.28C230.67 360.23 230.78 360.15 230.88 360.05C230.97 359.96 231.05 359.84 231.1 359.72C231.15 359.59 231.18 359.46 231.18 359.32L231.18 359.32Z" />
		</g>
	</g>
</svg>