<svg xmlns="http://www.w3.org/2000/svg" viewBox="0 0 512 512" width="512" height="512">
	<style>
		tspan { white-space:pre }
		.shp0 { fill: #725d57 } 
		.shp1 { fill: #53433f } 
		.shp2 { fill: #ee8b66 } 
		.shp3 { fill: #ef764a } 
		.shp4 { fill: #7f736f } 
		.shp5 { fill: #746966 } 
		.shp6 { fill: #f15a24 } 
		.shp7 { fill: #fbb03b } 
		.shp8 { fill: #fcee21 } 
	</style>
	<path id="Layer" class="shp0" d="M30 196L482 196L482 466L30 466L30 196Z" />
	<path id="Layer" class="shp1" d="M256 196L482 196L482 466L256 466L256 196Z" />
	<path id="Layer" fill-rule="evenodd" class="shp2" d="M512 196L512 481C512 489.4 505.4 496 497 496L15 496C6.6 496 0 489.4 0 481L0 196L30 166L482 166L512 196ZM452 256L60 256L60 436L226 436L226 286L286 286L286 436L452 436L452 256Z" />
	<path id="Layer" class="shp3" d="M256 166L256 256L452 256L452 436L286 436L286 286L256 286L256 496L497 496C505.4 496 512 489.4 512 481L512 196L482 166L256 166Z" />
	<path id="Layer" class="shp0" d="M30 46L482 46L482 166L30 166L30 46Z" />
	<path id="Layer" class="shp1" d="M256 46L482 46L482 166L256 166L256 46Z" />
	<path id="Layer" class="shp4" d="M363 185L363 334.1C363 392.89 315.29 440.6 256.5 440.6C197.71 440.6 150 392.89 150 334.1L150 185L363 185Z" />
	<path id="Layer" class="shp5" d="M363 185L363 334.1C363 392.89 315.29 440.6 256.5 440.6L256.5 185L363 185Z" />
	<path id="Layer" class="shp3" d="M497 16L467 16C458.72 16 452 22.72 452 31L452 136L286 136L286 31C286 22.6 279.4 16 271 16L241 16C232.6 16 226 22.6 226 31L226 136L60 136L60 31C60 22.72 53.28 16 45 16L15 16C6.72 16 0 22.72 0 31L0 136L0 196L512 196L512 136L512 31C512 22.72 505.28 16 497 16Z" />
	<path id="Layer" class="shp6" d="M512 196L512 136L512 31C512 22.72 505.28 16 497 16L467 16C458.72 16 452 22.72 452 31L452 136L286 136L286 31C286 22.6 279.4 16 271 16L256 16L256 196L512 196Z" />
	<g id="Layer_2">
		<g id="Layer_2-2">
			<path id="Layer" fill-rule="evenodd" class="shp6" d="M256 216C269.13 216 282.14 218.59 294.27 223.61C306.4 228.64 317.42 236 326.71 245.29C336 254.58 343.36 265.6 348.39 277.73C353.41 289.86 356 302.87 356 316C356 356.45 331.64 392.91 294.27 408.39C256.9 423.87 213.89 415.31 185.29 386.71C156.69 358.11 148.13 315.1 163.61 277.73C179.09 240.36 215.55 216 256 216ZM256 409.82C268.32 409.8 280.51 407.36 291.88 402.64C303.26 397.92 313.59 391.01 322.3 382.3C331.01 373.59 337.92 363.26 342.64 351.88C347.36 340.51 349.8 328.32 349.82 316C349.88 277.97 327.01 243.65 291.88 229.07C256.76 214.49 216.31 222.52 189.41 249.41C162.52 276.31 154.49 316.76 169.07 351.88C183.65 387.01 217.97 409.88 256 409.82Z" />
			<path id="Layer" class="shp6" d="M310.5 307.39C315.64 328.14 281.71 339.54 288 309.18C298.21 260 256 243.36 239.89 239.64C272.04 289.64 205.07 288.86 183.93 320.82C170.86 340.57 182.54 362.89 186.79 368.5C195.15 379.46 206.01 388.27 218.45 394.21C230.9 400.15 244.58 403.04 258.37 402.64C272.15 402.24 285.64 398.57 297.72 391.92C309.81 385.28 320.14 375.85 327.86 364.43C337.21 350.57 344.04 320.11 310.5 307.39Z" />
			<path id="Layer" class="shp7" d="M256 398.14C250.14 398.18 244.3 397.53 238.59 396.21C232.88 394.9 227.35 392.92 222.09 390.32C216.84 387.73 211.91 384.53 207.4 380.8C202.88 377.06 198.82 372.82 195.29 368.14C194.14 366.64 172.43 338.32 219.96 316.61C265.96 295.54 268.61 271.46 268.14 267.29C281.5 278.46 280.36 299.64 277.68 312.39C273.11 334.36 292.36 357 318.96 334.04C322.61 377.36 281.18 398.14 256 398.14Z" />
			<path id="Layer" class="shp8" d="M258.29 393.21C242.43 393.21 219.68 389.64 219.68 364.64C219.68 343.96 245.14 339.18 262.25 311.71C262.25 313.36 251.75 349.43 269.39 364.89C279.75 374 288 362.14 288 362.14C286.96 386.46 270.61 393.21 258.29 393.21Z" />
			<path id="Layer" class="shp6" d="M301.86 280.71C303.57 272.21 300.46 268.36 300.46 268.36C300.46 268.36 312.75 277.79 311.18 285.93C309.57 293.5 308.61 298.14 308.61 298.14C307.3 297.15 306.14 295.98 305.15 294.67C304.16 293.35 303.36 291.91 302.77 290.38C302.18 288.85 301.8 287.25 301.64 285.61C301.49 283.98 301.56 282.33 301.86 280.71Z" />
		</g>
	</g>
</svg>