<svg xmlns="http://www.w3.org/2000/svg" viewBox="0 0 512 512"><defs><style>.a{fill:#303519;}.b{fill:#2a2e16;}.c{fill:#e3dfbf;}.d{fill:#ddd8b1;}.e{fill:#5a6331;}.f{fill:#667038;}.g{fill:#817f37;}.h{fill:#b7b24c;}</style></defs><title>armour_god_earth_helmet</title><path class="a" d="M141.17,294.58H370.82v108.7H141.17Z"/><path class="b" d="M256,294.58H141.19v108.7H256Z"/><path class="c" d="M116.42,298.74l-1.24,98.55,32.65,79L256,512,364.2,476.25l32.64-79-1.24-98.55H363.5l-16.79,51.61-90.78,52.84-90.79-52.84-16.79-51.61Z"/><path class="d" d="M256,512V403.19l-90.78-52.84-16.79-51.61h-32.1l-1.24,98.55,32.65,79Z"/><path class="e" d="M234.09,416.46v64.81l-.33,7.07-73.27-25.82L124.6,379.61l14.49-50.36,9.24,37.16Zm43.82,0v64.81l.33,7.07,73.28-25.82,35.89-82.91-14.49-50.36-9.24,37.16Z"/><path class="d" d="M99.05,460.56C80.4,448.77,55.54,441.51,35.1,446.05c-.82-23.75-11.56-43.13-24.32-61.65L46.42,325l71.28,47.51Z"/><path class="e" d="M22.65,384.11a112.57,112.57,0,0,1,20.93,50.34c16.16.66,32.36,1,47.79,10.45l15-71.55L52.9,336Z"/><path class="d" d="M121.44,393.8C102,382,72.63,373.83,47.5,377.89c-1-27.53-7.39-45.39-22.18-66.86l21.44-44L141,290.89Z"/><path class="e" d="M113,377.44c-17-10.24-35.68-12.75-54.85-12.87-2.09-24-9.85-40.86-19.94-54.73l17.28-32.7,72.7,21.56Z"/><path class="c" d="M413,460.56c18.65-11.79,43.51-19.05,63.95-14.51.82-23.75,11.56-43.13,24.32-61.65L465.58,325,394.3,372.52Z"/><path class="e" d="M489.35,384.11a112.45,112.45,0,0,0-20.93,50.34c-16.17.66-32.37,1-47.8,10.45l-15-71.55L459.09,336Z"/><path class="c" d="M390.56,393.8c19.4-11.81,48.81-20,73.94-15.91.95-27.53,7.39-45.39,22.18-66.86l-22-43.54L371,291Z"/><path class="e" d="M399,377.44c17-10.24,35.68-12.75,54.85-12.87,2.09-24,9.85-40.86,19.94-54.73l-17.28-32.7-72.7,21.56Z"/><path class="d" d="M61.87,191.5,27.63,223.18C30.1,232,33.8,241,33.47,250.77c19.23,19.94,18.33,32,22.47,46.17,28.83-1.19,50.68-5,76.25,4.51l49-3.65Z"/><path class="e" d="M42.2,227.5c1.33,5.65,4.14,12.82,3.4,18.93,10.46,10,17.33,20.67,20.58,36.42a137.43,137.43,0,0,1,62.27,4.29l35.05-.21L69.44,201.36Z"/><path class="c" d="M450.13,191.5l34.24,31.68c-2.47,8.78-6.17,17.86-5.84,27.59-19.23,19.94-18.33,32-22.47,46.17-28.83-1.19-50.68-5-76.25,4.51l-48.95-3.65Z"/><path class="e" d="M469.82,227.5c-1.33,5.65-4.14,12.82-3.41,18.93-10.45,10-17.32,20.67-20.57,36.42a137.49,137.49,0,0,0-62.28,4.29l-35-.21,94.06-85.57Z"/><path class="c" d="M43.39,165.11l53,80.92L256.09,350.87,415.83,246l52.95-80.92-32.34.55-38.85,61.15L256.1,321.34,114.62,226.81,75.77,165.66Z"/><path class="d" d="M256,350.88,96.26,246,43.31,165.12l32.34.55,38.85,61.15L256,321.34Z"/><path class="e" d="M90.86,156.8l-23,13.7,43.62,66.67L256,332V302.32L129.7,218ZM256,332l144.54-94.87,43.63-66.67-23-13.7-38.85,61.15L256,302.33Z"/><path class="e" d="M95,147.66l-25.1,14.5L116,230.53l140,91.85,140-91.85,46.17-68.37L417,147.66l-23.26,39.7L256,283.94,118.21,187.36Z"/><path class="e" d="M256,332,111.46,237.18,67.83,170.51l23-13.71L129.71,218l126,84.19Z"/><path class="e" d="M256,322.38V283.94L118.22,187.37,95,147.67l-25.1,14.5L116,230.53Z"/><path class="d" d="M42,165.11l44-27.25,10.63,17L53.39,180.5Z"/><path class="c" d="M468.7,165.11,426,137.86l-9.63,17.6,42.17,24.73Z"/><path class="e" d="M80,21,191.65,55.77V247.89l-73.42-60.52L76,118.65,127,82.6Zm352,0L320.34,55.77V247.89l73.42-60.52L436,118.65,385,82.6Z"/><path class="d" d="M73.17,110.5,26.33,63.9l97.37,7.69Z"/><path class="e" d="M75,87l26.83,2.12L87.93,99.81Z"/><path class="c" d="M438.83,110.5l46.84-46.6L388.3,71.59Z"/><path class="e" d="M437,87l-26.83,2.12,13.93,10.72Z"/><path class="c" d="M51.78,4.35l61.55,72.74L66.09,109.73l46.32,84.86L256,302.14,399.62,194.59l46.32-84.86L398.69,77.09,460.24,4.35,351.75,36.06l4.66,12.43L418.9,28.9,372,82.36l51.61,34.52L383.47,185,256,286,128.6,185,88.5,116.88l51.6-34.52L93.16,28.9l62.49,19.59,4.67-12.43Z"/><path class="d" d="M66.08,109.73l46.32,84.86L256,302.14V286L128.57,185l-40.1-68.08,51.61-34.51L93.14,28.9l62.48,19.59,4.67-12.43L51.79,4.35l61.55,72.74Z"/><path class="f" d="M158.24,31.14l-4.75,7c-46.4,74.15-12.3,197.86,72.89,227.74V7c-20.53,7.21-42.08,11.57-61.84,21q-3.19,1.51-6.31,3.21Z"/><path class="e" d="M146.41,131.43c3.43,55.42,28.25,106.9,80,125v-240C200.5,19.09,180.21,36.11,164.65,57c-14.57,19.59-18.68,46.14-18.23,74.41Z"/><path class="f" d="M353.77,31.14l4.75,7c46.4,74.15,12.3,197.86-72.89,227.74V7c20.53,7.21,42.08,11.57,61.83,21q3.19,1.51,6.32,3.2Z"/><path class="e" d="M365.59,131.43c-3.43,55.42-28.25,106.9-80,125v-240c25.88,2.67,46.17,19.69,61.73,40.6,14.57,19.59,18.68,46.14,18.23,74.41Z"/><path class="g" d="M256,318.89l2.25-317c19.24,1.54,36.18.93,57.44,13L334,62.48,314.75,180.3,271.22,309,256,318.88"/><path class="g" d="M256,0c-19.23,1.55-38.43,2.88-59.68,14.92L178,62.5l19.27,117.82L240.78,309,256,318.9,271.23,309l43.52-128.7L334,62.5,315.69,14.92C294.43,2.87,275.25,1.55,256,0Z"/><path class="c" d="M256,322.4l-21.44-9.34L193.83,180,173,60.33l21.07-43.46,3.73-4.21,12.35-4.45L206,16.49,183,66.86l18,106.31,55,143Z"/><path class="c" d="M256,322.4l21.45-9.34,40.73-133L339,60.33,317.93,16.87l-3.73-4.21L301.85,8.21l4.2,8.28,23,50.37L311,173.17l-55,143Z"/><path class="h" d="M262.94,185.17c-2.1,3.83-4,43.77-4.89,43.82-1.16.06-.6-34.57.42-43,.76-3.29,3.45-5.56,4.46-.81Zm-27.61,66c-1.65-1.37-.52,4.72,1,6.15,23.39,21.95,30.45-2.54.89-23.68-1.79-1.28-2.23,5.23-.48,6.56,19.59,14.85,21.93,31.39-1.4,11Zm3.48-25.4c-7.36,1.1-22.91-10.72-3.83-26.37,5.7-4.69,4.44,11.83.41,17-1.95,2.53-1-3.7-1.78-5.7-.18-.5-2.4-.89-2.47,0-.3,4,1.2,9.92,4.16,8.74,3.27-1.32,11.82-17.19,1.24-23.58-10.12-6.13-25.53,31.54,2.77,32.62,1.62.06,2.6-3.29-.51-2.75Zm4.2-45.45c-2.09-3.84-4-64.66-4.88-64.7-1.17-.06-.61,55.36.41,63.9.76,3.29,3.46,5.56,4.46.81Z"/><path class="h" d="M240.81,190.07c-1.38-3.69-20.54-39.18-21.12-38.7-1.12.82,4.53,12.64,9.63,23.5L236.37,191c1.92,2.67,5.32,3.84,4.45-.94Zm8.35-4.9c2.09,3.83,4,43.77,4.88,43.82,1.17.06.61-34.57-.41-43-.77-3.29-3.46-5.56-4.47-.81ZM215.92,170c.87,3.34-5.18,7.52-7.84-.76-1.24-8.7-4.65-34,.95-38.48,4.45-3.26,11.95,9.91,13.55,9.42,2.6-.49,1.12-28-9.82-26.59-2.11.69-2.27,4.57-4.46,4.94-3,.48-6.52-2.1-5-5.59,2.29-5.23,9.24-10.31,14.2-7.41,12.14,6.91,11.52,41.77,8.58,43.41-2.52,2-10.35-11.62-13.19-11.51-4.07.79.33,22.37,3,32.68Zm11-77.33c-.57,2.59-1.86,4.31-2.42,5.74s-.38,2.47.38,3.14,2.1.61,3.46-.33a9.69,9.69,0,0,0,3.32-4.71c.57-1.85.35-3.62.37-5.65s.31-4.3-.16-5.79a3.75,3.75,0,0,0-2.58-2.46c-.91-.27-1.52.14-1.65,2a56.83,56.83,0,0,1-.63,8ZM210.22,94.9c-1.58-1.15-4.73-3.46-6.33-6.77s-1.69-7.6-2.42-9.62-2.14-1.77-2.31.47.88,6.46,3,9.91a22.68,22.68,0,0,0,6.93,7.2c1.78,1.07,2.28.51,2.53.24s.25-.27-1.31-1.43Zm7.89-52.68a4.07,4.07,0,0,1-2.44.62c-.77-.2-1.23-1.22-1.09-3a14.94,14.94,0,0,1,2.68-7.18c1.86-2.7,4.56-5.43,7.43-5.88s5.77,1.42,7.56,4,2.22,5.76,1.12,9.43a24.21,24.21,0,0,1-6.47,10,15,15,0,0,1-8.44,3.8,23,23,0,0,1-9.83-.29,10.68,10.68,0,0,1-6.34-5.37,14.6,14.6,0,0,1-1.61-9.1c.52-3.29,2.27-6.59,3.61-7.74s2.26.12,2.09,2.1-1.44,4.75-1.65,7.16a7.47,7.47,0,0,0,1.76,5.94c1.38,1.49,3.49,2.42,6.55,2.61a24.33,24.33,0,0,0,10.21-1.64,12.07,12.07,0,0,0,6.27-5.52,5.32,5.32,0,0,0-.64-5.81c-1.33-1.74-3.67-3.19-5.54-2.22s-3.24,4.44-3.92,6.16-.68,1.64-1.24,2Zm11.56-19.55a40.68,40.68,0,0,0,.33-7.52c-.23-2.59-1-4.36-2.18-4.36s-2.57,1.84-3.68,1.85-1.89-1.78-1.19-3.31a6.16,6.16,0,0,1,4.58-3c1.67-.15,2.83.88,3.53,3.15a31,31,0,0,1,.88,8.73,17.78,17.78,0,0,1-.88,6.11c-.47.9-1,.43-1.3.19s-.28-.24-.08-1.89Zm-17.94-6.09a6.39,6.39,0,0,0,1.93,4,6.15,6.15,0,0,0,4.11,2.3c1.65.08,4.1-.71,5.07-2.16a4.27,4.27,0,0,0-.47-4.88,4.32,4.32,0,0,0-3.92-1.62c-1,.32-1,1.53-.36,2.36s1.91,1.26,2.24,2a1.71,1.71,0,0,1-1.07,2.06c-.79.28-1.64-.17-2.58-.56a3.35,3.35,0,0,1-2.17-1.94c-.53-1.21-.85-3.27-1.43-3.68s-1.44.84-1.45,2.17Zm64.93,234.53c1.64-1.37.51,4.73-1,6.15-23.39,21.95-30.46-2.54-.89-23.68,1.78-1.28,2.22,5.23.48,6.57-19.59,14.85-21.94,31.38,1.4,11Zm-3.48-25.39c7.36,1.09,22.91-10.73,3.84-26.37-5.71-4.69-4.45,11.83-.41,17,1.94,2.52,1-3.71,1.77-5.71.18-.49,2.41-.89,2.47,0,.3,4-1.2,9.93-4.16,8.74-3.27-1.32-11.81-17.18-1.24-23.58,10.13-6.12,25.54,31.55-2.77,32.63-1.61.05-2.59-3.3.51-2.76ZM269,180.26c2.09-3.83,4-64.65,4.88-64.69,1.17-.07.61,55.36-.41,63.89-.77,3.29-3.46,5.57-4.46.81Zm2.19,9.74c1.38-3.69,20.54-39.18,21.12-38.7,1.12.82-4.53,12.64-9.63,23.5l-7.05,16.13c-1.92,2.66-5.32,3.83-4.45-.94Zm24.89-20.09c-.87,3.35,5.18,7.53,7.84-.75,1.24-8.7,4.65-34-.95-38.49-4.45-3.25-12,9.92-13.55,9.43-2.6-.5-1.12-28,9.82-26.59,2.11.68,2.27,4.57,4.46,4.94,2.95.48,6.52-2.11,5-5.6-2.29-5.22-9.24-10.3-14.2-7.41-12.14,6.92-11.52,41.77-8.58,43.41,2.52,2.06,10.35-11.62,13.19-11.5,4.07.79-.33,22.37-3,32.67ZM285,92.59c.57,2.59,1.86,4.3,2.42,5.73s.38,2.47-.38,3.15-2.1.61-3.46-.33a9.68,9.68,0,0,1-3.31-4.72c-.58-1.85-.36-3.62-.38-5.64s-.31-4.3.16-5.79a3.76,3.76,0,0,1,2.59-2.47c.9-.26,1.51.14,1.64,2a55.28,55.28,0,0,0,.64,8Zm16.81,2.24c1.58-1.16,4.73-3.46,6.33-6.78s1.69-7.59,2.42-9.61,2.14-1.77,2.31.47-.88,6.46-2.95,9.91A22.63,22.63,0,0,1,303,96c-1.78,1.07-2.28.52-2.53.25s-.25-.27,1.33-1.43Zm-7.91-52.68a4.26,4.26,0,0,0,2.44.62c.77-.21,1.23-1.22,1.09-3.05a14.94,14.94,0,0,0-2.68-7.18c-1.86-2.7-4.56-5.43-7.43-5.87s-5.76,1.41-7.56,4-2.22,5.76-1.12,9.44a24.31,24.31,0,0,0,6.47,10,15,15,0,0,0,8.44,3.8,23,23,0,0,0,9.84-.3,10.64,10.64,0,0,0,6.33-5.36,14.57,14.57,0,0,0,1.61-9.11c-.51-3.29-2.27-6.58-3.61-7.73s-2.26.11-2.09,2.1,1.44,4.75,1.65,7.16a7.47,7.47,0,0,1-1.75,5.94c-1.39,1.48-3.49,2.41-6.56,2.61a24.11,24.11,0,0,1-10.2-1.65A12,12,0,0,1,282.47,42a5.32,5.32,0,0,1,.63-5.81c1.33-1.75,3.67-3.2,5.54-2.23s3.24,4.45,3.93,6.16.68,1.65,1.23,2Z"/><path class="h" d="M282.33,22.75a40.62,40.62,0,0,1-.33-7.51c.23-2.6,1-4.37,2.18-4.37s2.57,1.84,3.68,1.85,1.89-1.77,1.19-3.31a6.16,6.16,0,0,0-4.58-3c-1.67-.14-2.83.89-3.53,3.16a30.92,30.92,0,0,0-.88,8.72,17.73,17.73,0,0,0,.88,6.11c.47.9,1,.43,1.3.2s.28-.25.08-1.9Zm17.86-6.09a6.39,6.39,0,0,1-1.93,3.95,6.17,6.17,0,0,1-4.11,2.3c-1.65.09-4.1-.71-5.07-2.16a4.24,4.24,0,0,1,.47-4.87c1.1-1.34,3-1.94,3.92-1.62s1,1.53.36,2.35-1.91,1.26-2.24,2a1.71,1.71,0,0,0,1.07,2.06c.79.29,1.64-.17,2.58-.56a3.34,3.34,0,0,0,2.17-1.93c.53-1.21.85-3.28,1.43-3.69s1.44.84,1.45,2.17Z"/></svg>