<svg xmlns="http://www.w3.org/2000/svg" viewBox="0 0 512 512"><defs><style>.a{fill:#737131;}.b{fill:#817f37;}.c{fill:#ddd8b1;}.d{fill:#e3dfbf;}.e{fill:#c8c098;}.f{fill:#cfc8a4;}.g{fill:#5a6331;}.h{fill:#474e26;}.i{fill:#5c2f1e;}.j{fill:#451f11;}.k{fill:#abbcbc;}.l{fill:#4a2212;}.m{fill:#293130;}.n{fill:#2d3635;}.o{fill:#5f716f;}.p{fill:#495755;}.q{fill:#536260;}.r{fill:#b7b24c;}.s{fill:#6f8181;}.t{fill:#4c3429;}.u{fill:#85391e;}.v{fill:#303519;}.w{fill:#938f3d;}.x{fill:#5f716e;}.y{fill:#9d9d9c;}.z{fill:#9d9d9b;}.aa{fill:#a19d43;}</style></defs><title>armour_god_earth_platebody</title><path class="a" d="M300.2,327.49l-44.57,30.66-44.57-30.66Z"/><path class="b" d="M255.62,358.15l44.57-30.66-44.56-.1Z"/><path class="c" d="M203.52,370.15l-2.21,10.59,54.31,57.59,54.32-57.59-2.22-10.6-52.1,52.2Z"/><path class="d" d="M255.62,422.35v16l54.32-57.59-2.22-10.6Z"/><path class="a" d="M205.56,347.79l-2.13,23.62,52.23,55.34,52.24-55.34-2.13-23.62L255.66,398Zm13.41-22-11.5,15c-2.5,9.59,25,32.69,48.16,50.3,21.26-19.82,48.58-43.19,48.17-50.3l-11.5-15-6.58.1-.47,14.39L255.6,361l-29.66-20.68-.47-14.39Z"/><path class="b" d="M255.62,391.07V360.85l30.09-20.77.46-14.44,6.67-.1,11.64,15c2,8.11-24.9,32.09-48.86,50.5Zm0,6.91v28.8l52.23-55.34-2.13-23.61Z"/><path class="e" d="M189,268.85l13.52,22.22H308.78l13.53-22.22-66.68,6.85Z"/><path class="f" d="M322.3,268.85l-66.67,6.85v14.63l53.15.74Z"/><path class="d" d="M326.36,452.82c12.21-7.71,28.49-12.46,41.88-9.5.54-15.55,7.57-28.24,15.93-40.38l-23.34-38.89-46.67,31.12Z"/><path class="g" d="M376.39,402.76a73.62,73.62,0,0,0-13.71,33c-10.59.44-21.2.65-31.3,6.85l-9.82-46.86,35-24.45Z"/><path class="d" d="M184.9,452.82c-12.21-7.71-28.49-12.46-41.88-9.5-.54-15.55-7.58-28.24-15.93-40.38l23.34-38.89,46.67,31.12Z"/><path class="g" d="M134.87,402.76a73.71,73.71,0,0,1,13.7,33c10.59.44,21.2.65,31.3,6.85l9.82-46.86-35-24.45Z"/><path class="d" d="M196.73,412.42c-10.95-6.67-27.56-11.28-41.75-9-.54-15.55-4.17-25.63-12.53-37.76L153.84,342l53.92,12.4Z"/><path class="g" d="M192,403.18c-9.61-5.78-20.15-7.2-31-7.27-1.18-13.57-5.56-23.07-11.26-30.9l9.76-18.47,41.06,12.18Z"/><path class="d" d="M160.14,312.56l-13.16,20c2.32,4.07,5.29,8.14,6.33,13,12.05,7.56,13.09,13.66,16.92,20.24,14.23-4.16,28.32-9.87,43.21-6,1.44-5.14-10.78-10.28-7.43-19.25l-.43-.27Z"/><path class="g" d="M154.78,332.93c1.36,2.65,3.12,5.1,3.52,8.24a36.84,36.84,0,0,1,15.28,16.39A70.46,70.46,0,0,1,205.16,352l2.54-12.62L164,318.11Z"/><path class="d" d="M314.52,412.42c11-6.67,27.56-11.28,41.76-9,.53-15.55,4.16-25.63,12.52-37.76L357.41,342l-53.92,12.4Z"/><path class="g" d="M319.29,403.18c9.61-5.78,20.15-7.2,31-7.27,1.18-13.56,5.56-23.07,11.26-30.9l-9.76-18.47-41.06,12.18Z"/><path class="d" d="M351.12,312.56l13.15,20c-2.32,4.07-5.29,8.14-6.33,13-12.05,7.56-13.08,13.66-16.92,20.24-14.23-4.16-28.32-9.87-43.21-6l1.57-7.46Z"/><path class="c" d="M206.84,339.6l-7.5.47a48.36,48.36,0,0,0,3.79,8c1.74,3,3.72,5.86,5.75,8.69l46.71,44,46.72-44,5.75-8.69a51.41,51.41,0,0,0,3.79-8l-7.5-.47c-1.71,4-3.43,8.09-7.05,12.13l-41.68,39.34-41.75-39.34c-3.61-4-5.33-8.08-7-12.13Zm15.66-9.17,0,8.91,33.09,23.77,33.08-23.77,0-8.91h-6.08v7.69l-27,19-27-19v-7.69Z"/><path class="d" d="M161.72,300.8l-3.7,9.45,16.4,33.87,37.45-3.93,10.22-12.57-5-.53-1.87-.56,1.31-1.66-47.42-22.13-.77,1.65L167,301.16Z"/><path class="g" d="M169.13,302.75l-3.89,8.42,12.68,26.49,30.93-3.06,7.69-9.72Z"/><path class="h" d="M201.79,277.23,210.15,291h90.92l8.35-13.74-53.83,5.54Z"/><path class="i" d="M195.23,330l10.55-6.88-26.19-7.82.56,8.43Z"/><path class="j" d="M253.38,285.84l-76.22-8.52-10.08,25.4,5,13.1,55.7,15.26Z"/><path class="j" d="M177.16,277.32l-9.36,23.6,4.25,11.2L229.53,328l23.86-42.12Z"/><path class="i" d="M209.25,280.6l-2.63,4.58-14.83,43.39-12.67-5.14-.39-4.85,10.61-38,2.22-1.8Z"/><path class="i" d="M205.61,280.17l-2.53,5.19-12.69,42.7-11.32-4.63-.35-4.85,9.3-38,1.95-1.83Z"/><path class="k" d="M226.41,290.46h58.44v43.41H226.41Z"/><path class="g" d="M356.47,332.93c-1.36,2.65-3.12,5.1-3.52,8.24a36.84,36.84,0,0,0-15.28,16.39A70.46,70.46,0,0,0,306.09,352L305,340.24l42.18-22.13Z"/><path class="d" d="M255.62,400.82v-9.75l41.75-39.34c3.61-4,5.33-8.08,7-12.13l7.5.47a49.14,49.14,0,0,1-3.78,8c-1.74,3-3.72,5.86-5.75,8.69Z"/><path class="d" d="M349.53,300.8l3.7,9.45-16.39,33.87-37.46-3.93-10.21-12.57,5-.53,1.87-.56-1.3-1.66,47.41-22.13.77,1.65,1.37-3.23Z"/><path class="g" d="M342.12,302.75l3.89,8.42-12.69,26.49-30.93-3.06-7.69-9.72Zm-32.66-25.52L301.1,291l-45.47-.63v-7.57Z"/><path class="i" d="M316,330l-10.55-6.88,26.19-7.82-.56,8.43Z"/><path class="l" d="M257.87,285.84l76.22-8.52,10.08,25.4-5,13.1-55.7,15.26Z"/><path class="l" d="M334.09,277.32l9.37,23.6-4.26,11.2L281.73,328l-23.86-42.12Z"/><path class="i" d="M302,280.6l2.62,4.58,14.83,43.39,12.67-5.14.4-4.85-10.61-38-2.23-1.8Z"/><path class="i" d="M305.64,280.17l2.53,5.19,12.7,42.7,11.32-4.63.34-4.85-9.3-38-2-1.83Z"/><path class="k" d="M284.85,290.46H255.64v43.41h29.21Z"/><path class="j" d="M231.78,294.71h47.7v33.92h-47.7Z"/><path class="m" d="M247.74,317.92h15.81v19.45H247.74Z"/><path class="l" d="M279.48,294.71H255.65v33.92h23.83Z"/><path class="n" d="M263.51,317.92h-7.9v19.45h7.9Zm-34.59,20.29-9.16-9,13.75-3.51Z"/><path class="o" d="M220.12,332.33l6,6.21,8-13.35Z"/><path class="n" d="M282.3,338.21l9.16-9-13.76-3.51Z"/><path class="o" d="M291.14,332.33l-6,6.21-8-13.35Z"/><path class="p" d="M250.5,317.89h10.25v22.46H250.5Z"/><path class="q" d="M260.75,317.89h-5.1v22.46h5.1Z"/><path class="g" d="M313.18,298.27,332.72,279l-7.64-9L310,281.43Z"/><path class="d" d="M316.32,296.25l-10.11,21.56-22.91-2.92-7.63-8.31,5.08-13.2,14-9.77,17.15-3.38Z"/><path class="g" d="M309,285.32l2.39,11.28-7.19,14.73-17.95-.63-7.62-9.53,2.05-7.84,14-9.76ZM198.82,298.27,179.28,279l7.64-9L202,281.43Z"/><path class="c" d="M195.68,296.25l10.1,21.56,22.91-2.92,7.64-8.31-5.09-13.2-14-9.77-17.15-3.38Z"/><path class="g" d="M203,285.32l-2.39,11.28,7.15,14.73,17.95-.63,7.62-9.53-2-7.84-14-9.76Z"/><path class="a" d="M182.31,234.94l.23,32,17.55,13.3,17.16,3.37,14,9.77,5.08,13.21.68,6.29,19,12.68,19-12.68.68-6.29,5.08-13.21,14-9.77,17.15-3.37,17.56-13.3.22-32c-32.31,7.34-56.61,22.92-73.68,45.94-17.07-23-41.37-38.6-73.69-45.94Z"/><path class="b" d="M256,325.56l19-12.69.67-6.29,5.09-13.2,14-9.77,17.15-3.38,17.55-13.29.23-32c-32.32,7.35-56.61,22.93-73.68,45.94Z"/><path class="r" d="M256,288.8h0c-.29,0-.55.34-.53.88-1,8-2.65,4.37-4.19,3.56-2.31-1.72-8.53-1.07-9,2.88a3.93,3.93,0,0,0,.75,2.63c.78,1.2,2,.9,2.14.63s-.34-.63-.85-1.61c-1.66-3.17,3.14-3.39,5.4-2a5.23,5.23,0,0,1,2.48,3.72,13.88,13.88,0,0,1-1.33,9.7c-.62,1.09-5.19,2-5,3.25-.22.92,1.56.18,3.19.36,1.14.1,2.14,1.14,2.58,1.19,2,.16-.19-2,1.17-2.41,1.08-.35,1,1.84.8,2.8-.41,2.23-5.21,3.49-4.09,5.47,1,1.69,4.87.26,6.52-.43,1.64.68,5.55,2.12,6.51.43,1.13-2-3.67-3.24-4.08-5.47-.18-1-.28-3.16.8-2.8,1.35.44-.79,2.57,1.16,2.41.45,0,1.45-1.08,2.59-1.19,1.63-.14,3.41.6,3.19-.36.23-1.21-4.34-2.16-5-3.25a13.93,13.93,0,0,1-1.33-9.7,5.26,5.26,0,0,1,2.48-3.72c2.26-1.42,7.05-1.2,5.4,2-.51,1-1,1.39-.86,1.61s1.36.57,2.15-.63a3.9,3.9,0,0,0,.74-2.63c-.48-3.92-6.71-4.56-9-2.88-1.54.81-3.17,4.42-4.19-3.56,0-.54-.25-.85-.53-.88H256Z"/><path class="c" d="M184.22,263.09l-.48,7.9L203,285.29c26.39,1.14,29,15.73,32.07,28.9l21,15.09,21-15.09C280,301,282.64,286.43,309,285.29L328.25,271l-.47-7.9-19.54,16.2c-21.61-.63-34.2,15.74-36.36,32.23l-15.89,11-15.88-11c-2.17-16.49-14.76-32.87-36.37-32.23Z"/><path class="r" d="M256.05,288.8,256,319.41c1.64.69,5.55,2.12,6.51.43,1.13-2-3.67-3.23-4.08-5.47-.18-.95-.28-3.15.8-2.79,1.35.43-.79,2.56,1.16,2.4.45,0,1.45-1.08,2.59-1.18,1.63-.15,3.41.59,3.19-.36.23-1.21-4.34-2.16-5-3.25a14,14,0,0,1-1.33-9.71,5.3,5.3,0,0,1,2.48-3.72c2.26-1.42,7.05-1.2,5.4,2-.51,1-1,1.39-.85,1.61s1.35.57,2.14-.63a3.9,3.9,0,0,0,.74-2.63c-.48-3.92-6.7-4.57-9-2.88-1.54.81-3.17,4.42-4.19-3.57,0-.53-.25-.84-.53-.87Z"/><path class="c" d="M256,329.31v-6.82l15.88-11c2.17-16.49,14.76-32.86,36.37-32.23l19.53-16.2.48,7.91-19.21,14.29c-26.4,1.14-29,15.73-32.08,28.9Z"/><path class="a" d="M224.87,188.29,193.11,202l-2.54,38.75c35.57,1,39.19,16.94,45.73,31.44l19.7,16,19.69-16c6.54-14.5,10.16-30.44,45.74-31.44L318.89,202l-31.77-13.66L256,206.71Z"/><path class="b" d="M256,288.18V206.71l31.13-18.42,31.76,13.65,2.54,38.75c-35.57,1-39.19,16.95-45.74,31.44Z"/><path class="c" d="M186.36,232.69l-4.49,4.94,12.8,9.43c26.76-1.3,33.72,11,37.73,25.39L256,288.19l23.6-15.74c4-14.36,11-26.69,37.74-25.38l12.8-9.43-4.49-4.95L317,240.33c-33-.63-36.72,15-43.12,29.09L256,280.88l-17.88-11.46C231.73,255.3,228,239.7,195,240.33Z"/><path class="c" d="M256,288.18v-7.3l17.87-11.47C280.28,255.3,284,239.69,317,240.33l8.64-7.64,4.49,4.94-12.8,9.43c-26.76-1.3-33.72,11-37.73,25.39Z"/><path class="g" d="M498.34,175.74l-29.86-41.92-72.1,41.32,37.8,10.17Z"/><path class="g" d="M502.16,204.64l-17.79-22.23-49.55,7.31-44.47-14,.95,12.07,54.31,26.36Z"/><path class="d" d="M385.59,184v7.31L444,222.12,512,210V200.2l-63.21,6.35-58.44-23.82Z"/><path class="d" d="M507.22,171.6v11l-69.39,11.9-56.15-17.29V166.44l49.86,13.7Z"/><path class="g" d="M378,165.89l-28.91,57.49-3.49-42.24Z"/><path class="d" d="M381.68,166.43l-36.11,68.08-.64-13.66L376.06,163Z"/><path class="s" d="M342.77,190.33l4-1.57,2.54,27.72L325,231.1l-1.41-3.53,21.31-12.84Z"/><path class="i" d="M341.43,277.38,316.52,297.1,315.39,293a100.2,100.2,0,0,0,11.12-56.15l-4.28-17.87-6.52-20.48,32.23-17,1.11,38.27c.05,19.86-2.89,39-7.62,57.65Z"/><path class="k" d="M351.44,179.55l-40.81,21,8.89,41.32,35.58-22.23Zm-4.68,9.21,2.54,27.72L325,231.1l-5.15-27.72Z"/><path class="t" d="M284.68,193.8,308,204.31l66-34.12,43,14.73,24.46-20.17V145.69l-72.41,6Z"/><path class="t" d="M431.31,157l-13.93,12.36L372,156.11,305.09,188.9l-8.54-4.05,66.71-37.73,10.33-37.95Z"/><path class="g" d="M476.46,133.87l-31.22,31.22-68.95-60.41,29.65-6.29Z"/><path class="d" d="M479.6,133.42l-6.28,12.8-29.2,26.51-73.89-62.66.9-16.17,72.54,63.56,26.49-24Z"/><path class="g" d="M503.63,70.76c-25.08,16-60.35,21.37-96.69,25.71l68.28,36,14-.79,10-11.85Z"/><path class="n" d="M341.86,236.6c-2.34.65-20.95-30.72-7.75-36.74C346.06,196.08,344.9,236.14,341.86,236.6Z"/><path class="u" d="M342.28,163.77l7,19.48,20.29-10.7-7.63-17.86Z"/><path class="d" d="M498.18,69l12-5.84-7.63,60.64L490.6,137.24l-24-1.35L397,95.91l11.34-2.8,55.29,31.1,18.76.23L493.08,111Z"/><path class="g" d="M13.65,175.74l29.86-41.92,72.1,41.32-37.8,10.17Z"/><path class="g" d="M9.84,204.65l17.79-22.24,49.55,7.31,44.47-14-1,12.07L66.38,214.18Z"/><path class="d" d="M126.41,184v7.3L68,222.11,0,210v-9.85l63.21,6.36,58.44-23.83Z"/><path class="d" d="M4.77,171.6v11l69.4,11.9,56.15-17.29V166.44l-49.86,13.7Z"/><path class="g" d="M134,165.9l28.9,57.49,3.5-42.25Z"/><path class="d" d="M130.32,166.43l36.11,68.07.63-13.65L135.93,163Z"/><path class="s" d="M169.23,190.33l-4-1.57-2.54,27.72L187,231.09l1.41-3.52-21.31-12.84Z"/><path class="i" d="M170.56,277.38l24.91,19.72L196.6,293a100.19,100.19,0,0,1-11.11-56.15l4.27-17.87,6.53-20.49-32.24-17-1.11,38.27c-.05,19.86,2.89,39,7.62,57.64Z"/><path class="k" d="M160.55,179.55l40.82,21-8.9,41.32L156.9,219.61Zm4.69,9.21-2.54,27.72L187,231.09l5.15-27.71Z"/><path class="t" d="M227.32,193.8,204,204.3l-66-34.12L95,184.92,70.5,164.75V145.69l72.4,6Z"/><path class="t" d="M80.68,157l13.93,12.36L140,156.11l66.93,32.79,8.53-4-66.71-37.74L138.4,109.17Z"/><path class="g" d="M35.54,133.87l31.22,31.22,68.94-60.42-29.64-6.28Z"/><path class="d" d="M32.4,133.42l6.28,12.8,29.2,26.5,73.89-62.66-.9-16.17L68.33,157.46l-26.49-24Z"/><path class="g" d="M8.37,70.76c25.08,16,60.35,21.37,96.68,25.71L36.78,132.52l-14-.79-10-11.86Z"/><path class="n" d="M170.14,236.61c2.34.65,21-30.73,7.75-36.75C165.94,196.09,167.1,236.15,170.14,236.61Z"/><path class="u" d="M169.72,163.77l-7,19.47-20.29-10.7,7.63-17.86Z"/><path class="d" d="M13.82,69l-12-5.84,7.64,60.64,11.9,13.48,24-1.35,69.63-40-11.35-2.8L48.45,124.22l-18.75.22L19,111Z"/><path class="a" d="M197.47,84l-52.1,8.76,6.51,54.35L256,206.71l104.12-59.59,6.51-54.35L314.53,84,256,157.49Z"/><path class="b" d="M256,206.71V157.48L314.53,84l52.1,8.76-6.51,54.35Z"/><path class="c" d="M132.79,83.56l4.6,44,11.34,28.86,73.11,35.82,8,13.59L256,212.27l26.18-6.42,8-13.59,73.1-35.82,11.35-28.86,4.6-44-16.07,8.65-1.34,32.34-9.1,17.86-67.82,37.28-6.74,11.46-22.14,7-22.14-7-6.74-11.46-67.83-37.28-9.09-17.86-1.34-32.34Z"/><path class="c" d="M256,212.27V198.14l22.14-7,6.74-11.45,67.83-37.29,9.09-17.86,1.35-32.34,16.06-8.64-4.6,44-11.34,28.85-73.11,35.83-8,13.58Z"/><path class="v" d="M256,59.18l-21.76,1.9-26.68,5.4L203,73.64l26.84,9,7.78,30.91L256,129.86l18.42-16.26,7.79-30.91,26.83-9-4.61-7.16-26.68-5.4Z"/><path class="v" d="M256,59.18v70.67l18.43-16.27,7.78-30.9L309,73.62l-4.6-7.15-26.69-5.4Z"/><path class="a" d="M206,64.26,186.12,92.68l11.6,17.95L256,157.48l58.29-46.85,11.59-17.95L306,64.26l3,9.36-26.83,9.06-7.79,30.9L256,129.85l-18.43-16.27-7.78-30.9L203,73.62Z"/><path class="b" d="M306,64.26l19.85,28.42-11.59,17.95L256,157.48V129.81l18.42-16.27,7.79-30.91,26.83-9Z"/><path class="w" d="M231.55,59.18,206,64.26l-6.74,9.62,28.18,9.59L236,115.55l20,14.3,20-14.3,8.57-32.08,28.18-9.59L306,64.26l-25.56-5.08H231.55ZM256,61.41l19.54.47,27.15,5.41,2.7,5.08L279.5,80.78l-7.78,31.45L256,125l-15.73-12.74-7.78-31.45L206.6,72.37l2.7-5.08,27.15-5.41Z"/><path class="r" d="M292.37,276.15a2.64,2.64,0,0,0-1.08,1.53,2.77,2.77,0,0,0,0,2.06,2.53,2.53,0,0,0,1.85,1.48,1.87,1.87,0,0,0,1.75-1.16,1.85,1.85,0,0,0-.18-1.81c-.32-.3-.78-.07-1,.34s-.09,1-.3,1.26a.73.73,0,0,1-1,0c-.27-.23-.29-.72-.31-1.09a1.6,1.6,0,0,1,.29-1.21c.34-.45,1.07-1,1.08-1.29s-.61-.38-1.08-.11Zm-10.7,8.31c.68-.49.19-2.15-1.57-1-1.55,1.42-6.05,5.61-5.69,7.29.33,1.28,3.73,0,4,.32.4.48-4.07,5.36-5.88,3.44-.29-.45.27-1.2-.08-1.6a1,1,0,0,0-1.77.28c-.37,1.32.14,3.32,1.49,3.59,3.31.57,8.49-6,8.22-6.74s-3.7.57-4.21.12c-.63-.77,3.47-4.11,5.54-5.61Z"/><path class="r" d="M289.1,282.34c.45-.3.84-1,.69-1.32s-.84-.23-1.3.07-.68.81-.53,1.12a.79.79,0,0,0,1.13.13Z"/><path class="r" d="M263.58,301a5.4,5.4,0,0,0-1,3.59,5,5,0,0,0,5.9,5.25,3.79,3.79,0,0,0,.78-6.64c-.79-.32-1.48.44-1.54,1.32s.54,1.88.34,2.54a1.44,1.44,0,0,1-1.8.74c-.63-.24-1-1.07-1.36-1.79a3.13,3.13,0,0,1-.33-2.46c.32-1.08,1.28-2.59,1.13-3.18s-1.43-.26-2.14.6ZM256,230c-2,.72-1.44,15.81-2.14,23.87.1-1.79-7.11-9.26-8.74-.81-.26,1.34,1.57,4.85,2.19,3.7,4.33-8.09,7.11,11.25,1.06,14.37-.45.24-.53.52-.45.73a.46.46,0,0,0,.36.28c1.56,0,3.66-2.26,4.63-.72.72,1.13-1.64,3.18-.81,4.2.61.72,1.66-.77,2.54-.72a4.63,4.63,0,0,1,1.32.44,4.51,4.51,0,0,1,1.32-.44c.87,0,1.92,1.51,2.54.72.83-1-1.53-3.07-.81-4.2,1-1.51,3.07.73,4.62.72a.36.36,0,0,0,.36-.28c.09-.21,0-.49-.45-.73-6.05-3.16-3.23-22.49,1.07-14.37.62,1.15,2.44-2.35,2.18-3.7-1.62-8.46-8.84-1-8.74.81-.7-8-.17-23.18-2.13-23.87Z"/><path class="r" d="M256,275.36v-45.3c2,.72,1.44,15.81,2.13,23.87-.1-1.79,7.12-9.26,8.74-.81.26,1.34-1.56,4.85-2.18,3.7-4.34-8.09-7.12,11.25-1.07,14.4.46.24.53.52.45.73a.45.45,0,0,1-.36.28c-1.56,0-3.66-2.26-4.62-.72-.72,1.13,1.63,3.18.81,4.2-.61.72-1.67-.77-2.54-.72a4.51,4.51,0,0,0-1.32.44Zm9.39-11.66a1.39,1.39,0,0,0,1.05.66c.65.08,1.67-.17,1.88-.79s-.4-1.63-1.09-2.3a2.77,2.77,0,0,0-2.32-.91,3,3,0,0,0-2.3,1.56A3.42,3.42,0,0,0,263,265a7,7,0,0,0,3,2.53,9.66,9.66,0,0,0,3.88,1,3.41,3.41,0,0,0,2.74-1,4.67,4.67,0,0,0,1-2.85,7.47,7.47,0,0,0-.77-3.38,6.82,6.82,0,0,0-2.17-2.71,2.8,2.8,0,0,0-2.44-.44,1.24,1.24,0,0,0-.67,1.58,6,6,0,0,0,1.42,2,4.36,4.36,0,0,1,1.06,1.43,1.66,1.66,0,0,1-.14,1.49,2.36,2.36,0,0,1-1.79.88,5.86,5.86,0,0,1-3-.53,1.88,1.88,0,0,1-1.07-1.75c.06-.57.5-1,.78-.88s.4.61.47.88a1,1,0,0,0,.19.46ZM276,248.9c.12.24.37.51.58.46s.38-.42.47-1a12,12,0,0,1,.34-1.94c.2-.59.6-1,1.06-.89a2.14,2.14,0,0,1,1.24,1.61,7.67,7.67,0,0,1,0,3.09,2.84,2.84,0,0,1-1.26,2,4.19,4.19,0,0,1-2.9.64,3.74,3.74,0,0,1-2.3-1.85,4.39,4.39,0,0,1-.72-2.53,1.41,1.41,0,0,1,1.37-1.18,2.79,2.79,0,0,1,1.66.79,2.4,2.4,0,0,1,.47.72Zm5.75-5.74a3.8,3.8,0,0,1,1.21,1.07c.2.42-.05.86-.67.82a3.75,3.75,0,0,1-2.25-1.28,2.76,2.76,0,0,1-.66-2.42,1.74,1.74,0,0,1,1.32-1.27c.45,0,.7.44.74.94a8.92,8.92,0,0,1-.16,1.38c0,.31.09.49.47.72Zm4.93-1.7c-.47.25-1.17.55-1.32.94s.27.88,1.22,1.07a5.46,5.46,0,0,0,3.33-.4,1.84,1.84,0,0,0,.87-2.25,7.2,7.2,0,0,0-1.65-2.25c-.58-.62-.79-1.09-.63-1.61s.72-1.08.88-1.68a.89.89,0,0,0-.81-1.21A3.42,3.42,0,0,0,286,235a3.49,3.49,0,0,0-.81,2.83,4,4,0,0,0,1.06,2.27,7,7,0,0,0,1.05.72c.12.16-.1.38-.56.64Zm7.37-4.6a4.06,4.06,0,0,0,1.08.87c.49.25,1.2.34,1.67.54s.74.52.58.82-.74.58-1.69.54a5.59,5.59,0,0,1-3-1,2.67,2.67,0,0,1-.85-1.82,5.8,5.8,0,0,0-.21-1.58,1.68,1.68,0,0,1-.53-.79c0-.24.31-.37.52-.65s.3-.7.53-1,.6-.45.82-.21.3.85.63,1.29a2.52,2.52,0,0,0,1.52.81c.58.11,1.14.07,1.36.29s.12.72-.38.93a10,10,0,0,1-1.85.38c-.45.1-.46.24-.46.32s0,.07.19.28Zm8.91-1.41c.09.28.26.83.66,1a1.66,1.66,0,0,0,1.44-.38c.43-.32.65-.74.34-1.56a4.42,4.42,0,0,0-2.21-2.43,3,3,0,0,0-3.11,1,3.67,3.67,0,0,0-.79,3.38,4.6,4.6,0,0,0,2.73,3.15,7.2,7.2,0,0,0,5.4-.18,7.63,7.63,0,0,0,3.87-4,9.74,9.74,0,0,0,.45-4.62c-.11-1.28-.23-2.17-.7-2.57a1.16,1.16,0,0,0-1.51,0c-.23.32.11.91.36,2.14a8.31,8.31,0,0,1-.21,4.31,4.22,4.22,0,0,1-2.88,2.18,7.13,7.13,0,0,1-3.59.42,2.29,2.29,0,0,1-1.65-1.68.83.83,0,0,1,.6-1c.3,0,.51.27.61.43a1,1,0,0,1,.19.43ZM271.76,255a3.79,3.79,0,0,1,1.49.65c.31.33.21.82-.39,1a3.74,3.74,0,0,1-2.54-.52,2.75,2.75,0,0,1-1.37-2.1,1.77,1.77,0,0,1,.86-1.62c.42-.16.8.21,1,.67a7.82,7.82,0,0,1,.27,1.37c.09.33.25.43.72.57Zm45.57,14.49c0-.52-.36-1.1-.3-1.55s.44-.78.53-1.17a.69.69,0,0,0-.48-.84l-.21,0a2.17,2.17,0,0,0-1.75,1.17,3,3,0,0,0,.13,2.34c.32.7.79,1.12,1.22,1.1A1.06,1.06,0,0,0,317.33,269.53Zm-5.28-.3a1.51,1.51,0,0,0-.46,1.07,2,2,0,0,0,1.08,1.36,3,3,0,0,0,1.84.26c.4-.09.39-.51.09-.74s-.89-.3-1.22-.59a3.05,3.05,0,0,1-.58-1.07,1,1,0,0,0-.51-.44c-.15-.08-.12-.05-.29.15Zm-3.36-.69c-.11.29-.32.85-.09,1.2a.89.89,0,0,0,1.32,0,2.6,2.6,0,0,0,.46-2.16,1.35,1.35,0,0,0-1.58-1.07,3.6,3.6,0,0,0-2.42,1.54,3.31,3.31,0,0,0-.19,2.78,4,4,0,0,0,1.52,2.24,3,3,0,0,0,2.2.36c.66-.15,1.14-.37,1.25-.63s-.18-.48-.79-.64a4.93,4.93,0,0,1-2.11-.73,2.33,2.33,0,0,1-.55-2.05,2,2,0,0,1,.7-1.26c.22-.16.3,0,.34,0s0,.05-.06.34Zm-3.1,6.47a11.88,11.88,0,0,0,2.55.77c.63.21,1,.58.94,1s-.38.86-1.06,1.05a4.17,4.17,0,0,1-2.47-.2,8,8,0,0,1-2-1.42,9.73,9.73,0,0,1-1.87-1.64,1.51,1.51,0,0,1-.08-1.51c.19-.35.46-.46,1.15,0a30.61,30.61,0,0,0,2.8,2Zm-7.18,3.19a1.73,1.73,0,0,0,1.64.8c.32-.14.08-.7-.06-1.34a4.42,4.42,0,0,0-.51-1.73.72.72,0,0,0-1.2.09,2.34,2.34,0,0,0,.13,2.18Z"/><path class="r" d="M295.87,277.39c.46-.3.85-1,.7-1.33s-.85-.22-1.3.08-.69.8-.54,1.11a.79.79,0,0,0,1.14.13Z"/><path class="r" d="M303,278.69c.45-.3.85-1,.7-1.32s-.85-.23-1.31.07-.68.81-.53,1.11a.78.78,0,0,0,1.13.14Z"/><path class="r" d="M320.54,267.41c.46-.29.85-1,.7-1.32s-.85-.22-1.3.07-.68.81-.53,1.12a.78.78,0,0,0,1.13.13Z"/><path class="r" d="M269.36,181.22a2.1,2.1,0,0,0,1.61,1c1,.1,2.57-.27,2.89-1.22s-.62-2.49-1.67-3.52a4.22,4.22,0,0,0-3.6-1.38,4.6,4.6,0,0,0-3.52,2.37,5.24,5.24,0,0,0,.58,4.77,10.68,10.68,0,0,0,4.53,3.88,14.75,14.75,0,0,0,5.95,1.47,5.36,5.36,0,0,0,4.19-1.52,6.49,6.49,0,0,0,1.44-4.36,12.21,12.21,0,0,0-1.18-5.19,10.5,10.5,0,0,0-3.33-4.13,4.19,4.19,0,0,0-3.73-.67,1.88,1.88,0,0,0-1,2.41,9.19,9.19,0,0,0,2.17,3,7.55,7.55,0,0,1,1.63,2.16,2.61,2.61,0,0,1-.23,2.28,3.42,3.42,0,0,1-2.73,1.35,9.13,9.13,0,0,1-4.67-.82,2.79,2.79,0,0,1-1.63-2.68c.09-.86.77-1.46,1.2-1.35s.61.94.71,1.35a1.4,1.4,0,0,0,.29.71Zm15.25-14.39c.19.35.56.76.88.69s.59-.64.73-1.52a18.47,18.47,0,0,1,.51-3c.31-.9.91-1.5,1.63-1.35a3.17,3.17,0,0,1,1.89,2.45,11.65,11.65,0,0,1-.06,4.74,4.36,4.36,0,0,1-1.93,3.1,6.31,6.31,0,0,1-4.44,1,5.92,5.92,0,0,1-3.52-2.85,5.84,5.84,0,0,1-1.05-3.87,2.19,2.19,0,0,1,2.1-1.8,4.16,4.16,0,0,1,2.54,1.22,2.94,2.94,0,0,1,.71,1.16Zm8.86-8.74a5.87,5.87,0,0,1,1.85,1.64c.3.64-.07,1.31-1,1.26a5.68,5.68,0,0,1-3.44-2,4.22,4.22,0,0,1-1-3.7,2.74,2.74,0,0,1,2-1.95c.69,0,1.06.68,1.12,1.44a14.13,14.13,0,0,1-.25,2.16c0,.56.15.75.73,1.16Zm7.54-2.61c-.71.36-1.8.85-2,1.44s.41,1.35,1.87,1.65A8.38,8.38,0,0,0,306,158a2.79,2.79,0,0,0,1.32-3.44,11.9,11.9,0,0,0-2.52-3.45c-.82-.95-1.2-1.66-1-2.47s1.11-1.7,1.35-2.56a1.37,1.37,0,0,0-.79-1.77,1.63,1.63,0,0,0-.45-.09,5.24,5.24,0,0,0-4,1.42,5.34,5.34,0,0,0-1.24,4.33,6.24,6.24,0,0,0,1.61,3.48c.71.72,1.43.87,1.61,1.11s-.15.57-.86,1Zm11.29-7a5.35,5.35,0,0,0,1.71,1.34c.82.38,1.85.51,2.57.82s1.13.79.89,1.26-1.15.89-2.59.83a8.52,8.52,0,0,1-4.53-1.54,4.05,4.05,0,0,1-1.3-2.79,8.42,8.42,0,0,0-.34-2.42c-.26-.28-.79-.84-.8-1.22s.46-.56.79-1,.47-1.08.82-1.53.92-.69,1.26-.34.45,1.31,1,2a3.82,3.82,0,0,0,2.32,1.23c.89.17,1.75.11,2.09.44s.18,1.08-.59,1.42a14.6,14.6,0,0,1-2.82.58c-.69.14-.71.36-.72.48s0,.1.29.43Zm13.63-2.14c.13.42.36,1.27,1,1.52a2.56,2.56,0,0,0,2.21-.58,1.78,1.78,0,0,0,.51-2.38,6.69,6.69,0,0,0-3.39-3.72,4.59,4.59,0,0,0-4.75,1.45,5.72,5.72,0,0,0-1.22,5.19,7,7,0,0,0,4.18,4.82,11,11,0,0,0,8.26-.28,11.8,11.8,0,0,0,5.93-6.06,15.39,15.39,0,0,0,.72-7.07c-.14-2-.36-3.32-1.07-3.94a1.79,1.79,0,0,0-2.32,0c-.36.5.17,1.43.5,3.28a13,13,0,0,1-.33,6.59c-.79,1.85-2.51,2.69-4.4,3.33a10.19,10.19,0,0,1-5.44.65,3.51,3.51,0,0,1-2.53-2.57,1.28,1.28,0,0,1,.93-1.54c.46-.05.78.42.93.66a1.63,1.63,0,0,1,.29.66ZM284.58,283c.07.14.21.3.34.27s.22-.25.28-.59a6.73,6.73,0,0,1,.19-1.15c.12-.35.35-.57.63-.52s.59.41.73.95a4.47,4.47,0,0,1,0,1.82A1.68,1.68,0,0,1,286,285a2.51,2.51,0,0,1-1.71.38,2.19,2.19,0,0,1-1.36-1.1,2.44,2.44,0,0,1-.4-1.49.85.85,0,0,1,.81-.7,1.62,1.62,0,0,1,1,.47,1.12,1.12,0,0,1,.27.45Zm-64.95-6.82a2.59,2.59,0,0,1,1.07,1.53,2.72,2.72,0,0,1,0,2.06,2.55,2.55,0,0,1-1.85,1.48,1.88,1.88,0,0,1-1.75-1.16,1.85,1.85,0,0,1,.18-1.81c.31-.3.78-.07,1,.34s.09,1,.31,1.25a.72.72,0,0,0,1,0,1.65,1.65,0,0,0,.31-1.09,1.62,1.62,0,0,0-.29-1.22c-.34-.45-1.07-1-1.08-1.28s.61-.38,1.08-.11Zm10.73,8.31c-.67-.49-.19-2.16,1.57-1.06,1.56,1.43,6.06,5.62,5.69,7.3-.33,1.28-3.73,0-4,.31-.41.49,4.06,5.36,5.88,3.44.29-.45-.28-1.19.07-1.59a1,1,0,0,1,1.78.28c.37,1.32-.14,3.32-1.5,3.59-3.3.56-8.49-6-8.21-6.75s3.69.58,4.2.12c.64-.76-3.47-4.1-5.54-5.6Z"/><path class="r" d="M222.9,282.34c-.46-.3-.85-1-.7-1.32s.85-.23,1.3.07.69.81.54,1.12a.8.8,0,0,1-1.14.13Z"/><path class="r" d="M248.42,301a5.45,5.45,0,0,1,1,3.59,5,5,0,0,1-5.91,5.25,3.64,3.64,0,0,1-2.41-3.41,3.7,3.7,0,0,1,1.63-3.23c.79-.32,1.49.44,1.55,1.32s-.54,1.88-.34,2.54a1.43,1.43,0,0,0,1.79.74c.64-.24,1-1.07,1.36-1.79a3,3,0,0,0,.33-2.46c-.31-1.08-1.28-2.59-1.13-3.18s1.44-.26,2.14.6Zm-1.81-37.29a1.36,1.36,0,0,1-1.05.66c-.65.08-1.68-.17-1.89-.79s.41-1.62,1.09-2.3a2.76,2.76,0,0,1,2.33-.9,3,3,0,0,1,2.3,1.55A3.46,3.46,0,0,1,249,265a6.93,6.93,0,0,1-3,2.53,9.75,9.75,0,0,1-3.89,1,3.41,3.41,0,0,1-2.74-1,4.72,4.72,0,0,1-1-2.85,7.49,7.49,0,0,1,.77-3.39,6.82,6.82,0,0,1,2.18-2.7,2.72,2.72,0,0,1,2.43-.44,1.23,1.23,0,0,1,.67,1.58,5.69,5.69,0,0,1-1.42,2,4.62,4.62,0,0,0-1.06,1.43,1.73,1.73,0,0,0,.14,1.49,2.35,2.35,0,0,0,1.79.89,5.9,5.9,0,0,0,3-.54,1.89,1.89,0,0,0,1.07-1.75c-.06-.56-.51-.95-.79-.88s-.4.61-.46.88a1.06,1.06,0,0,1-.2.47ZM236,248.87c-.13.23-.37.5-.58.45s-.38-.42-.48-1a10.93,10.93,0,0,0-.33-1.94c-.21-.58-.6-1-1.06-.88a2.12,2.12,0,0,0-1.24,1.6,7.49,7.49,0,0,0,0,3.09,2.8,2.8,0,0,0,1.26,2,4.13,4.13,0,0,0,2.9.65,3.76,3.76,0,0,0,2.3-1.86,4.28,4.28,0,0,0,.71-2.53,1.38,1.38,0,0,0-1.36-1.17,2.74,2.74,0,0,0-1.66.79,1.89,1.89,0,0,0-.47.72Zm-5.78-5.75c-.38.27-1,.66-1.21,1.08s.05.85.67.82a3.77,3.77,0,0,0,2.25-1.29,2.76,2.76,0,0,0,.66-2.42,1.75,1.75,0,0,0-1.32-1.27c-.46,0-.7.44-.74.94a8.77,8.77,0,0,0,.16,1.38c0,.31-.1.49-.48.72Zm-4.93-1.7c.46.26,1.17.55,1.32.94s-.27.88-1.22,1.08A5.46,5.46,0,0,1,222,243a1.84,1.84,0,0,1-.87-2.25,7.09,7.09,0,0,1,1.65-2.25c.58-.62.79-1.09.63-1.62s-.72-1.08-.88-1.67a.9.9,0,0,1,.81-1.22,3.14,3.14,0,0,1,3.44,3.76,4.09,4.09,0,0,1-1.06,2.28c-.46.46-.93.56-1.05.72s.1.37.56.63Zm-7.38-4.6a4,4,0,0,1-1.07.87c-.5.25-1.21.34-1.68.54s-.74.52-.58.82.75.58,1.69.54a5.51,5.51,0,0,0,3-1,2.65,2.65,0,0,0,.85-1.82c0-.41,0-1.44.22-1.58a1.69,1.69,0,0,0,.52-.79c0-.24-.31-.37-.51-.65s-.31-.7-.54-1-.6-.45-.82-.22-.3.86-.63,1.3a2.56,2.56,0,0,1-1.52.8c-.58.12-1.14.08-1.36.29s-.12.72.38.94a12.18,12.18,0,0,0,1.85.38c.45.09.47.23.47.31s0,.07-.19.28Zm-8.9-1.4c-.09.27-.26.82-.66,1a1.66,1.66,0,0,1-1.44-.38c-.43-.32-.65-.73-.34-1.55a4.42,4.42,0,0,1,2.21-2.43,3,3,0,0,1,3.11.95,3.73,3.73,0,0,1,.79,3.39,4.64,4.64,0,0,1-2.73,3.15,7.25,7.25,0,0,1-5.4-.18,7.71,7.71,0,0,1-3.87-4,9.62,9.62,0,0,1-.45-4.62c.11-1.29.23-2.17.7-2.58a1.17,1.17,0,0,1,1.51,0c.23.33-.11.92-.36,2.15a8.07,8.07,0,0,0,.21,4.3,4.14,4.14,0,0,0,2.88,2.18,7.11,7.11,0,0,0,3.59.42,2.28,2.28,0,0,0,1.65-1.67.84.84,0,0,0-.6-1c-.3,0-.51.28-.61.43a1.16,1.16,0,0,0-.19.43ZM240.19,255a4.05,4.05,0,0,0-1.48.65c-.32.33-.22.83.39,1a3.73,3.73,0,0,0,2.53-.53A2.75,2.75,0,0,0,243,254a1.74,1.74,0,0,0-.86-1.61c-.42-.16-.8.2-1,.67a7.85,7.85,0,0,0-.28,1.36c-.08.34-.24.43-.72.58Zm-45.56,14.5c0-.53.36-1.1.29-1.56s-.43-.77-.52-1.16a.68.68,0,0,1,.48-.84.5.5,0,0,1,.21,0,2.18,2.18,0,0,1,1.75,1.16,3.06,3.06,0,0,1-.14,2.35c-.31.69-.79,1.12-1.22,1.09A1,1,0,0,1,194.63,269.5Zm5.28-.31a1.51,1.51,0,0,1,.45,1.08,2,2,0,0,1-1.07,1.35,3.13,3.13,0,0,1-1.85.27c-.4-.09-.38-.52-.08-.74s.88-.31,1.22-.59.41-.78.57-1.08a1.09,1.09,0,0,1,.51-.44c.15-.08.12-.05.29.15Zm3.35-.68c.11.28.32.85.09,1.19a.87.87,0,0,1-1.31,0,2.56,2.56,0,0,1-.46-2.16,1.34,1.34,0,0,1,1.57-1.07,3.62,3.62,0,0,1,2.43,1.55,3.29,3.29,0,0,1,.19,2.77,4.09,4.09,0,0,1-1.52,2.24,3,3,0,0,1-2.2.36c-.66-.14-1.15-.37-1.25-.62s.18-.49.79-.65a5,5,0,0,0,2.11-.73,2.38,2.38,0,0,0,.55-2.05,2,2,0,0,0-.7-1.25c-.22-.17-.31-.05-.35,0s0,.06.07.34Zm3.11,6.47a12.54,12.54,0,0,1-2.56.77c-.62.21-.95.57-.93,1s.37.86,1.06,1.05a4.34,4.34,0,0,0,2.47-.2,8.26,8.26,0,0,0,2-1.43,9.1,9.1,0,0,0,1.87-1.63,1.51,1.51,0,0,0,.09-1.51c-.19-.36-.46-.47-1.15,0a31.46,31.46,0,0,1-2.81,2Zm7.17,3.19a1.74,1.74,0,0,1-1.63.8c-.32-.14-.09-.7.05-1.35a4.42,4.42,0,0,1,.51-1.73.72.72,0,0,1,1.21.1,2.32,2.32,0,0,1-.14,2.17Z"/><path class="r" d="M216.13,277.39c-.46-.3-.85-1-.7-1.33s.85-.22,1.3.08.69.8.53,1.11a.78.78,0,0,1-1.13.13Z"/><path class="r" d="M209.09,278.69c-.46-.3-.85-1-.7-1.32s.84-.23,1.3.07.68.81.53,1.11a.78.78,0,0,1-1.13.14Z"/><path class="r" d="M191.46,267.41c-.46-.29-.85-1-.7-1.32s.84-.22,1.3.07.68.81.53,1.12a.78.78,0,0,1-1.13.13Z"/><path class="r" d="M242.63,181.22a2.07,2.07,0,0,1-1.61,1c-1,.1-2.56-.27-2.88-1.22s.62-2.49,1.67-3.52a4.21,4.21,0,0,1,3.59-1.38,4.6,4.6,0,0,1,3.53,2.37,5.27,5.27,0,0,1-.58,4.77,10.68,10.68,0,0,1-4.53,3.88,14.75,14.75,0,0,1-5.95,1.47,5.35,5.35,0,0,1-4.19-1.52,6.49,6.49,0,0,1-1.44-4.36,12.06,12.06,0,0,1,1.18-5.19,10.41,10.41,0,0,1,3.33-4.13,4.17,4.17,0,0,1,3.72-.67,1.88,1.88,0,0,1,1,2.41,9.19,9.19,0,0,1-2.17,3,7.55,7.55,0,0,0-1.63,2.16,2.61,2.61,0,0,0,.23,2.28,3.42,3.42,0,0,0,2.73,1.35,9.13,9.13,0,0,0,4.67-.82,2.79,2.79,0,0,0,1.63-2.68c-.09-.86-.77-1.46-1.19-1.35s-.62.94-.71,1.35a1.49,1.49,0,0,1-.3.71Zm-15.25-14.39c-.19.35-.56.76-.88.69s-.58-.64-.73-1.52a19.64,19.64,0,0,0-.51-3c-.31-.9-.91-1.5-1.62-1.35a3.13,3.13,0,0,0-1.89,2.45,11.48,11.48,0,0,0,.05,4.74,4.39,4.39,0,0,0,1.93,3.1,6.31,6.31,0,0,0,4.44,1,5.92,5.92,0,0,0,3.52-2.85,5.78,5.78,0,0,0,1.05-3.87,2.18,2.18,0,0,0-2.1-1.8,4.16,4.16,0,0,0-2.54,1.22,2.94,2.94,0,0,0-.71,1.16Zm-8.85-8.74a5.8,5.8,0,0,0-1.86,1.64c-.3.64.07,1.31,1,1.26a5.73,5.73,0,0,0,3.45-2,4.18,4.18,0,0,0,1-3.7,2.73,2.73,0,0,0-2-1.95c-.69,0-1.07.68-1.12,1.44a13.05,13.05,0,0,0,.24,2.16c0,.56-.15.75-.73,1.16ZM211,155.48c.71.36,1.8.85,2,1.44s-.41,1.35-1.87,1.65A8.36,8.36,0,0,1,206,158a2.8,2.8,0,0,1-1.33-3.44c.43-1.3,1.71-2.49,2.53-3.45s1.2-1.66.95-2.47-1.1-1.7-1.34-2.56a1.37,1.37,0,0,1,.78-1.77,1.8,1.8,0,0,1,.45-.09,5.25,5.25,0,0,1,4,1.42,5.33,5.33,0,0,1,1.23,4.33,6.11,6.11,0,0,1-1.61,3.48c-.71.72-1.42.87-1.61,1.11s.16.57.87,1Zm-11.28-7a5.3,5.3,0,0,1-1.72,1.34c-.81.38-1.84.51-2.56.82s-1.14.79-.89,1.26,1.14.89,2.59.83a8.48,8.48,0,0,0,4.52-1.54,4,4,0,0,0,1.3-2.79,8.79,8.79,0,0,1,.34-2.42c.27-.28.79-.84.81-1.22s-.47-.56-.79-1-.47-1.08-.83-1.53-.92-.69-1.26-.34-.45,1.31-1,2a3.82,3.82,0,0,1-2.32,1.23c-.89.17-1.75.11-2.1.44s-.18,1.08.59,1.42a14.69,14.69,0,0,0,2.83.58c.69.14.71.36.72.48s0,.1-.29.43Zm-13.64-2.14c-.13.42-.36,1.27-1,1.52a2.55,2.55,0,0,1-2.21-.58,1.77,1.77,0,0,1-.52-2.38,6.69,6.69,0,0,1,3.39-3.72,4.59,4.59,0,0,1,4.75,1.45,5.72,5.72,0,0,1,1.22,5.19,7,7,0,0,1-4.18,4.82,11,11,0,0,1-8.26-.28,11.8,11.8,0,0,1-5.93-6.06,15.39,15.39,0,0,1-.72-7.07c.14-2,.36-3.32,1.07-3.94a1.79,1.79,0,0,1,2.32,0c.36.5-.17,1.43-.5,3.28s-.47,4.73.33,6.59,2.51,2.69,4.4,3.33a10.2,10.2,0,0,0,5.44.65,3.49,3.49,0,0,0,2.53-2.57,1.28,1.28,0,0,0-.93-1.54c-.46-.05-.78.42-.93.66a1.71,1.71,0,0,0-.29.66ZM227.41,283c-.07.14-.22.3-.34.27s-.22-.25-.28-.59a7.88,7.88,0,0,0-.19-1.15c-.13-.35-.36-.57-.63-.52s-.59.41-.73.95a4.47,4.47,0,0,0,0,1.82A1.7,1.7,0,0,0,226,285a2.53,2.53,0,0,0,1.71.38,2.17,2.17,0,0,0,1.36-1.1,2.45,2.45,0,0,0,.41-1.49.86.86,0,0,0-.81-.7,1.62,1.62,0,0,0-1,.47,1.06,1.06,0,0,0-.28.45Z"/><ellipse class="x" cx="358.27" cy="124.45" rx="8.57" ry="6.67"/><ellipse class="x" cx="324.92" cy="156.53" rx="8.57" ry="6.67"/><ellipse class="x" cx="288.08" cy="177.33" rx="8.57" ry="6.67"/><ellipse class="y" cx="406.39" cy="124.36" rx="6.67" ry="8.57" transform="translate(47.33 351.72) rotate(-49.36)"/><ellipse class="y" cx="431.65" cy="146.36" rx="6.67" ry="8.57" transform="translate(39.43 378.55) rotate(-49.36)"/><ellipse class="y" cx="432.41" cy="102.88" rx="6.67" ry="8.57" transform="translate(159.53 453.73) rotate(-65.51)"/><ellipse class="y" cx="462.42" cy="117.64" rx="6.67" ry="8.57" transform="translate(163.67 489.68) rotate(-65.51)"/><ellipse class="x" cx="153.72" cy="124.45" rx="8.57" ry="6.67"/><ellipse class="x" cx="187.07" cy="156.53" rx="8.57" ry="6.67"/><ellipse class="x" cx="223.91" cy="177.33" rx="8.57" ry="6.67"/><ellipse class="z" cx="105.6" cy="124.36" rx="8.57" ry="6.67" transform="translate(-55.53 98.78) rotate(-40.64)"/><ellipse class="z" cx="80.35" cy="146.36" rx="8.57" ry="6.67" transform="translate(-75.95 87.64) rotate(-40.64)"/><ellipse class="z" cx="79.58" cy="102.89" rx="8.57" ry="6.67" transform="translate(-35.49 42.25) rotate(-24.49)"/><ellipse class="z" cx="49.56" cy="117.64" rx="8.57" ry="6.67" transform="translate(-44.31 31.13) rotate(-24.49)"/><path class="aa" d="M256,125v4.84l20-14.29,8.57-32.08,28.18-9.59L306,64.26l-25.57-5.08H256V61.4l19.53.48,27.16,5.4,2.69,5.08-25.89,8.42-7.78,31.44Z"/><path class="r" d="M256,137.71c-3.07.86-2.24,20.08-3.34,30.25.16-2.28-11.11-11.74-13.65-1-.41,1.71,2.44,6.15,3.41,4.69,6.78-10.25,11.12,14.25,1.66,18.25-.7.3-.82.67-.69.93a.7.7,0,0,0,.62.35c2.44,0,5.71-2.86,7.22-1,1.13,1.43-2.55,4-1.27,5.32,1,1,2.61-1,4-1a8.25,8.25,0,0,1,2.07.56,8.14,8.14,0,0,1,2.06-.56c1.36,0,3,1.92,4,1,1.29-1.3-2.4-3.89-1.27-5.32,1.51-1.91,4.79.92,7.22,1a.72.72,0,0,0,.62-.35c.13-.26,0-.63-.69-.93-9.46-4-5.12-28.5,1.66-18.25,1,1.46,3.82-3,3.41-4.69-2.54-10.71-13.81-1.25-13.65,1-1.1-10.16-.27-29.38-3.34-30.25Z"/><path class="r" d="M256,195.12V137.71c3.07.86,2.24,20.09,3.33,30.26-.15-2.28,11.12-11.75,13.66-1,.41,1.7-2.44,6.14-3.41,4.68-6.79-10.25-11.13,14.25-1.66,18.26.7.3.82.66.69.92a.69.69,0,0,1-.62.35c-2.44,0-5.72-2.86-7.23-1-1.12,1.43,2.57,4,1.28,5.32-1,1-2.61-1-4-1a8.24,8.24,0,0,0-2.07.55Z"/></svg>