<svg xmlns="http://www.w3.org/2000/svg" viewBox="0 0 512 512"><defs><style>.a{fill:#817f37;}.b{fill:#442216;}.c{fill:#abbcbc;}.d{fill:#536260;}.e{fill:#303519;}.f{fill:#4e562a;}.g{fill:#b7b24c;}.h{fill:#e3dfbf;}.i{fill:#646e35;}.j{fill:#4d2719;}.k{fill:#9d9d9d;}.l{fill:#b8b8b8;}</style></defs><title>armour_god_earth_boots</title><path class="a" d="M106.76,347.49V306.62h116.6l26.8,126.64-22.44,28.48Z"/><path class="b" d="M248.94,193.91l-4.59,10.73c-.44,1.4-.65,1.46-2,1.63l-13.64,1.61-16.22-38.36,24.1-10.19,12.2,31.38c.57,1.55.65,1.87.08,3.21Z"/><path class="b" d="M238.6,211.55l-9.73,7-15.11-.81-9.47-40.56,24.07-9.76,10.52,41.12c.38,1.48,1,2.1-.28,3Z"/><path class="b" d="M189.45,135l62.07-37c3.22-1.95,6-1.23,7.34,3.09L268,124.92c1.17,3.49,1.3,3.52-1.05,5.9l-53.52,54Z"/><path class="c" d="M238.23,93.48,192.3,124.56l5.75,11.68,35.2-24.61,10.31,37.13-37.22,22.16,4,11.34,43.59-29Z"/><path class="d" d="M262.26,119.15c-1.76-3.27-56.1,9.42-48.78,30.36C222,166.7,265,123,262.26,119.15Z"/><path class="b" d="M67.29,164.6l7.5,11.18c1,1.79,1.18,1.55,3,.88l13.48-5,12.52-39.72L78.8,124,67.52,158.66c-1,2.59-1.7,3.74-.21,5.94Z"/><path class="b" d="M78.47,200.93l8,12c.75,1.39.81,1.2,2.26.69l13.94-5.22,12.52-39.72-25-7.86L78.17,198.05c-.65,1.38-.46,1.62.34,2.89Z"/><path class="b" d="M80.36,184.15l8.21,5.92c.92.89,1.78.65,3,.58l13.09-.69,9.47-40.55-25.49-5.95-9.25,37.93c-.59,1.69-.38,1.79,1,2.77Z"/><path class="b" d="M70.66,147.11l7,5.88c1.18,1.35,2.11,1.21,3.82,1.26l12.74.28,12.52-39.72-25-7.86L70.21,142.48c-.95,2.47-1.45,3,.49,4.62Z"/><path class="b" d="M59.56,125.41l5.15,13.2c.49,1.59.54,1.63,2.1,1.42l13.37-1.87c1.19,0,1.42-.2,2-1.16l20.27-35.12-22.67-13L60.21,122c-1.08,1.47-1.27,1.94-.65,3.52Z"/><path class="e" d="M228.79,5.09,173.09,3.3,107.33,14.8,56.68,31,52,43.91l42,8.26,19,51.38,55.69-6.83,24.44-60L233.1,15.88Z"/><path class="f" d="M188.56,31.86,238.38,17,266,61.69,251.25,90.44,197,129.24,166.64,75.18Z"/><path class="f" d="M188.56,31.78l62.7,58.58L197,129.16,166.64,75.09ZM100.5,47.39l11,25.87L99.24,134.89l-48-24.06L30.78,75.44,46,45.63Z"/><path class="f" d="M100.5,47.47,51.27,110.89l48,24.07,12.22-61.63Z"/><path class="e" d="M92.27,55.12,46,45.72l8.64-16.51,53.61-17.78L172.07,0,231,2.54,238.38,17,196.46,38.36,170.8,101.13l-60.22,5.59Z"/><path class="e" d="M97.36,49.51,57,42.39l2-9.14,48-15.5L172.29,6.07,225.9,7.59l3.82,7.12L191.43,34.65,165.19,93.1,116,99.58Z"/><path class="a" d="M127.39,13l81,137.65,31.74,96.89L226,301.6l-118.6,2.69-13-27.47-4.23-116Z"/><path class="g" d="M119.82,85.88c-1.23,1.39-1.19-4.27,0-5.71,18.22-22.12,28.32-.38,4.39,21.55-1.45,1.33-2.83-4.58-1.42-6,15.77-15.3,15.45-30.61-3-9.9Z"/><path class="g" d="M126.83,108.75c-6.93-.34-19.45,11.83.44,24.43,6,3.77,2.3-11.2-2.18-15.61-2.17-2.14-.38,3.48-.77,5.36-.09.46-2.06,1-2.27.21-.88-3.62-.4-9.17,2.51-8.35,3.21.9,13.46,14.65,4.7,21.44-8.39,6.49-28.25-26.54-2.36-30,1.47-.21,2.82,2.66-.06,2.56Z"/><path class="g" d="M114.18,161.75c.3-3.13-5.9-6.42-7.1,1.39.16,8.05.86,31.5,6.68,35.07l2.59-6.36C112.49,191.48,113.27,171.39,114.18,161.75Z"/><path class="g" d="M156,81.92c1.66,1.07-.35-4.36-2-5.48-25.24-17.38-27.37,5.71,3.31,21.67,1.86,1,1.13-5-.76-6.07C136,80.7,131,65.91,155.94,81.88Z"/><path class="g" d="M157.23,105.43c6.55-1.82,22.84,7.2,8.11,23.59-4.41,4.9-6.12-10.28-3.35-15.48,1.34-2.52,1.57,3.27,2.62,5,.25.42,2.35.53,2.25-.28-.42-3.68-2.83-8.92-5.33-7.5-2.78,1.55-7.83,17,3,21.62,10.34,4.45,17.91-31.59-8.21-29.4-1.49.12-1.81,3.21.94,2.46Z"/><path class="g" d="M161.62,138.19c1.91,3.2,25.62,33.38,26.07,32.89.87-1-6.34-11-12.91-20.33l-9.31-14c-2.23-2.21-5.54-2.9-3.9,1.36Z"/><path class="g" d="M200.39,204.84c1.82-.85,1.5-4.53,3.49-5.06,2.61-.77,6.34,1.19,5.54,4.55-1.19,5-6.68,10.42-11.7,8.4Z"/><path class="g" d="M206.8,224.64c1.64.88,4.93,2.63,7,5.45s2.86,6.72,3.89,8.49,2.27,1.36,2-.69-1.93-5.79-4.42-8.7a23.07,23.07,0,0,0-7.6-5.77c-1.82-.77-2.18-.22-2.35.07s-.18.27,1.47,1.16Z"/><path class="h" d="M237.55,236.66l-83.87-7.11L93.27,251l1.51,22.83,63.16-17,77.24,7.82Z"/><path class="g" d="M187.91,153.69c-1.39-2.94,3.43-7.43,7.31-.18,2.65,7.78,10.17,30.49,5.83,35.15-3.52,3.47-12.69-7.69-14.05-7.07l-4.74-7.5c2-2.16,11.5,9.43,14.09,9,3.57-1.17-4.19-20.32-8.44-29.41Z"/><path class="h" d="M197.16,123.66,141.37,122l-46,17.53-.47,31.27c.71-1,50-22.51,50-22.51l63.5,2.36Z"/><path class="h" d="M141.37,122l27,.81-32.56,2L95.14,148l.27-8.46Z"/><path class="a" d="M139.72,109.2l66.81,117.73L229,307.25H104.41l2.35-64.44Z"/><path class="g" d="M130.6,174.69c-1.14,1.31-1-3.86.08-5.21,16.75-20.95,25.43-1.51,3.54,19.5-1.32,1.27-2.46-4.07-1.17-5.37,14.44-14.62,14.43-28.58-2.46-8.91Z"/><path class="g" d="M136.48,195.3c-6.22,0-17.68,11.6,0,22.27,5.29,3.2,2.26-10.32-1.68-14.16-1.91-1.87-.41,3.2-.79,4.94-.1.42-1.87,1-2,.28-.72-3.28-.19-8.36,2.41-7.72,2.86.69,11.81,12.82,3.82,19.37-7.65,6.28-24.88-23.07-1.59-27.33,1.33-.25,2.52,2.44-.1,2.34Z"/><path class="g" d="M145.35,232.41c-1.27,3.42,1.91,36.7,1.17,36.85-1,.2-4.6-28.46-4.76-35.65.24-2.74,2.21-5,3.59-1.2Z"/><path class="g" d="M142.39,224.62c-.71,3.22-12.36,34.87-12.88,34.56-1-.63,2.24-11,5.18-20.6l3.92-14.19c1.27-2.44,3.94-3.81,3.78.24Z"/><path class="g" d="M149.82,227.7c1.27-3.42-1.9-36.7-1.17-36.85,1-.2,4.6,28.46,4.76,35.65-.24,2.74-2.21,5-3.59,1.21Z"/><path class="g" d="M124.17,244.2c.33-2.87-5.18-5.69-6.39,1.56,0,7.35.2,28.74,5.36,31.75,4.07,2.16,8.72-9.63,10.1-9.41,1.28,0,2.5,7.77,1.51,14.29l3.82-.4c.46-10-1.89-20.87-3.44-21.49-2.33-1.41-7.18,10.86-9.55,11.09-3.46-.16-2.39-18.55-1.4-27.4Z"/><path class="g" d="M157.57,240.33a4.35,4.35,0,0,1,1,1.43c3,10.23,5,21.75,6.46,29.27a57.35,57.35,0,0,1,.57,5.72l-4.94.6-.82-5.51L157,242a4.13,4.13,0,0,1,.53-1.68Z"/><path class="g" d="M163.15,169.6c1.48.91-.24-4-1.68-4.92-22.36-14.83-24.68,6.34,2.58,19.65,1.65.81,1.1-4.64-.53-5.48-18.21-9.51-22.48-22.81-.38-9.25Z"/><path class="g" d="M163.84,191c5.91-1.93,20.39,5.64,6.85,21.2-4.05,4.66-5.31-9.14-2.72-14,1.25-2.44,1.35,2.93,2.26,4.45.22.38,2.11.41,2-.35-.33-3.33-2.38-8-4.66-6.62-2.52,1.54-7.33,15.82,2.28,19.62,9.2,3.63,16.64-29.58-6.85-26.51-1.33.16-1.68,3,.81,2.2Z"/><path class="g" d="M166.74,229.08c2.26,2.87,9.4,35.53,10.14,35.45,1-.11-4.3-28.51-6.35-35.4C169.44,226.61,166.89,225,166.74,229.08Z"/><path class="g" d="M167.18,220.75c1.66,2.84,22.41,29.43,22.83,29,.79-.91-5.5-9.79-11.22-18l-8.08-12.31c-2-1.94-4.92-2.43-3.52,1.38Z"/><path class="g" d="M161.05,226c-2.26-2.87-9.4-35.53-10.14-35.45-1,.11,4.31,28.51,6.36,35.4C158.35,228.42,160.9,230,161.05,226Z"/><path class="g" d="M190.51,233.83c-1.19-2.64,3.22-6.93,6.57-.47,2.24,7,8.59,27.42,4.59,31.87-3.22,3.3-11.23-6.51-12.48-5.88-2.09.76,3,23.21,11.8,20.55,1.64-.86,1.24-4.08,3-4.68,2.43-.81,5.66.83,4.89,3.93-1.15,4.63-6.18,9.79-10.65,8.14-11-4-15.27-32.84-13.15-34.58,1.79-2.06,10.17,8.13,12.49,7.64,3.24-1.22-3.39-18.4-7-26.51Z"/><path class="h" d="M198.7,209.65c-29.23-4-59.12-2.85-88.36,10.65l-3.55,31.27c32.42-21.19,67.48-22,103.76-14.93Z"/><path class="a" d="M47.47,459.74c2.69,0,88.47,13.4,88.47,13.4L218,448V371.29H76.31c-12.53,25.15-29.08,41.24-28.82,88.46Z"/><path class="g" d="M185,431.26c-16.26,18.9-19.85-15.62-13-6,4.28,6,8.24-4.75,2.56-7.53s-11.83,2.22-12.75,7c-1.53,7.85,7.2,18,15.18,18.56,5.51.36,11.43-5.33,12.07-11.37l-4-.66Z"/><path class="i" d="M45.46,466.44l-1.34,30.82L142.29,512l92.13-28.81-2.41-26,18.16-23.83L246.35,415l-22.64,17.16-5.36-17.54,2.68,38.2-83.09,27.13Z"/><path class="a" d="M246.35,414.9l-22.64,17.15,2.59-115.22Z"/><path class="h" d="M126.83,5.81,107.52,37.32,90.24,160.81V276.67l13.2,19.24-2.81-19.27L99.9,166.9,128.76,21.1Z"/><path class="h" d="M126.83,5.81l25.92,20.84L209.16,143l36.59,108.23-13.22,54.38L220.34,299l14.23-52.85-29-94L128.37,23.11Zm44.31,201.8,17.77.82,0,0c-28.55-.29-55.6,4-79.35,18.37l.75-6.62c20.11-9.3,40.52-12.77,60.82-12.7Z"/><path class="h" d="M101.41,306.29l1.68-59.64,19.76-123,15.74-22.44L141,113.89,112.45,242l-5,62.31Z"/><path class="h" d="M138.6,101.25l1.34,17.09,60.64,107.21,25.47,76.05,7.37-2.68-22.78-73L158.71,118.67Z"/><path class="h" d="M244.8,308l1.68,20.78-8.38,11.05c-43.85-34.2-89.5-43.77-138.7-4L94,326.06,95.71,306c50.19-45.4,99.78-34.5,149.09,2Z"/><path class="h" d="M167.58,293.29c25.4,0,51.66,11.49,78.83,35.45L238,339.79c-43.86-34.2-89.5-43.77-138.71-4L94,326.06c23.69-21.51,48.21-32.82,73.61-32.77ZM48.43,439.37l-6.74,6.28L41,470.86,135.5,485.6,226,457.47l-2.47-38.09h-6.63l0,23L134.5,465.51,47.67,452Z"/><path class="g" d="M121.68,429.55c1.66-3.37,11.51-1.3,10.19-4.88-2-5.23-14.26-.71-16.11,4.55-3,8.41,6.61,21.29,15.44,21.77,5.21.28,11.89-6.69,10.41-11.69-4.88,6.16-12.08,7.39-16.8,4.92-4.23-2.22-5.42-10.25-3.2-14.75ZM192,341.2c3,3.28,8.47,12.25,1.67,13.33-21.25,3.4-3.78-45.73,13.07-16.26,2.06,3.61,4.93.65,2.3-3.82-14.2-24.13-37.56-1.62-29.49,18.68,4.27,10.73,24.66,10.06,22.55-4-.57-3.72-4.46-10-8.28-10.68-1.14-.19-3.76.57-1.81,2.75Zm-29.81-7.34c2.49,1.75,7.57,7.07,3.2,9.33-13.64,7-9.71-32.42,6.16-14.63,1.95,2.18,3.39-.59.94-3.27-13.27-14.47-25.32,6.89-16.75,19.92,4.53,6.88,18,2,14.41-7.77-1-2.57-4.55-6.31-7.2-6-.79.1-2.41,1.22-.78,2.39ZM142.21,348.7l-30.59,61.46c1.18,13.83,7.64.57,9.94,3.74,2,2.85-7.46,16.79-13,1.19-1-2.75-2.3,9-5.72,10.64a1.33,1.33,0,0,1-1.42-.48c-1.92-2.53,1.33-12.19-.41-9.53-1.36,2.92-11.77,7.31-12.46,1-.29-3.57,3.79-.78,5.41-1.3,3.73-1.18,6.13-4.34,8.12-7.7,6.91-11.62,32.09-61.38,32.09-61.38ZM80,435.25c2.05-5.53-1.91-7.66-7.09-9.81s-.14-5.32,5.33-3.71,8.28,9.92,7.09,16.31S74.19,446,69.5,444.81s-9.8-4.13-8.28-7.19,2.55-2.11,3.54-.49S77.47,442,80,435.25Zm4.77-53.36C90.07,384,95.11,388.07,95.57,394c.2,6.83-9.8,10.86-14,5.22-.29-3.42-5.17-7.65-6-2.08-.27,6.73,4.86,13.8,12.1,13.42,8.84.1,15.45-9.39,13.27-17.73-1.26-6.66-7.81-11.88-14.23-13.14Zm59.76-9a125,125,0,0,0-13.84,13.58c-6,6.6-4.34,17.5,2.44,22.82,8.29,7.08,23.43,6.36,29.81-1.27,1.63-2,.82-9.07-1.61-8.08-1.91.8-9,6.44-14,6.2-6.36-.57-14.39-4.66-14.46-11.93,1.43-6.24,7.16-10.46,11.33-15,1.73-2,5.91-2.26,9-3.09Zm4,16.08c-7.07-2.44.36,7.26,2.79,6.85,2.13-.36,2.22-5.47.37-6.47-1.68-.82-1.24.29-3.16-.38Z"/><path class="g" d="M85.93,393.84c2.73-.71,4.07,2.19,1.84,2.74C86.71,396.82,84.7,394.16,85.93,393.84Zm56.28-45.14c.52-2.93,10.57-26.93,7.32-27.81-3.25-1.11-11.95,18.05-15.49,25.48Zm-18.08-13.86c-2.68,1.35-8.39,5.67-4.34,8,12.63,7.38,13.66-28.05-4.28-13.53-2.19,1.78-3.28-.81-.51-3,15-11.79,24.2,8.23,14.07,19.11-5.35,5.74-18.11.29-13.3-8.1,1.27-2.21,5.29-5.24,7.89-4.72.77.17,2.24,1.3.47,2.2Z"/><path class="h" d="M226,422.21l-9,20.1c-14.15-56.56-88.84-92.25-153-48.78l7.64-22.25C135.33,290,255.82,360.38,226,422.2Z"/><path class="h" d="M135.85,356.23c41.66-.44,71.42,22.15,90.2,66L217,442.3c-14.15-56.56-88.85-92.25-153-48.78l7.64-22.25c23.94-9.89,45.33-14.85,64.26-15Z"/><path class="a" d="M405.24,347.49V306.62H288.64l-26.8,126.64,22.44,28.48Z"/><path class="j" d="M263.07,193.91l4.59,10.73c.44,1.4.65,1.46,2,1.63l13.64,1.61,16.22-38.36-24.11-10.19-12.19,31.38c-.57,1.55-.65,1.87-.08,3.21Z"/><path class="j" d="M273.4,211.55l9.73,7,15.11-.81,9.47-40.56-24.07-9.76-10.52,41.12c-.38,1.48-.95,2.1.28,3Z"/><path class="j" d="M322.55,135l-62.07-37c-3.22-1.95-6-1.23-7.34,3.09l-9.09,23.76c-1.17,3.49-1.3,3.52,1,5.9l53.52,54Z"/><path class="c" d="M273.77,93.48l45.93,31.08L314,136.24l-35.2-24.61-10.31,37.13,37.22,22.16-4,11.34-43.59-29Z"/><path class="d" d="M249.75,119.15c1.76-3.27,56.1,9.42,48.78,30.36C290,166.7,247,123,249.75,119.15Z"/><path class="j" d="M444.72,164.6l-7.51,11.18c-1,1.79-1.17,1.55-3,.88l-13.48-5L408.25,131.9l25-7.86,11.27,34.62c1,2.59,1.71,3.74.22,5.94Z"/><path class="j" d="M433.55,200.93l-8.05,12c-.75,1.39-.81,1.2-2.26.69l-13.95-5.22-12.52-39.72,25-7.86,12.12,37.24c.65,1.38.45,1.62-.34,2.89Z"/><path class="j" d="M431.65,184.15l-8.22,5.92c-.92.89-1.77.65-3,.58L407.36,190l-9.47-40.55,25.49-5.95,9.25,37.93c.58,1.69.38,1.79-1,2.77Z"/><path class="j" d="M441.34,147.11l-7,5.88c-1.18,1.35-2.11,1.21-3.82,1.26l-12.74.28-12.52-39.72,25-7.86,11.57,35.53c.95,2.47,1.45,3-.49,4.62Z"/><path class="j" d="M452.44,125.41l-5.15,13.2c-.49,1.59-.55,1.63-2.1,1.42l-13.37-1.87c-1.19,0-1.42-.2-2-1.16l-20.27-35.12,22.67-13L451.79,122c1.08,1.47,1.27,1.94.65,3.52Z"/><path class="e" d="M283.21,5.09l55.7-1.79,65.76,11.5L455.32,31,460,43.91l-42,8.26-19,51.38-55.69-6.83-24.44-60L278.9,15.88Z"/><path class="f" d="M323.46,31.86,273.64,17,246,61.69l14.73,28.75L315,129.24l30.36-54.06Z"/><path class="f" d="M323.46,31.78l-62.7,58.58L315,129.16l30.36-54.07Zm88,15.61-11,25.87,12.22,61.63,48-24.06,20.49-35.39L466,45.63Z"/><path class="f" d="M411.5,47.47l49.23,63.42-48,24.07L400.54,73.33Z"/><path class="e" d="M419.73,55.12,466,45.72l-8.63-16.51L403.72,11.43,340,0,281,2.54,273.64,17l41.92,21.34,25.66,62.77,60.21,5.59Z"/><path class="e" d="M414.64,49.51l40.41-7.12-2-9.14-48-15.5L339.71,6.07,286.1,7.59l-3.82,7.12,38.29,19.94L346.81,93.1,396,99.58Z"/><path class="a" d="M384.61,13l-81,137.65-31.74,96.89,14.11,54,118.6,2.69,13-27.47,4.23-116Z"/><path class="g" d="M392.18,85.88c1.23,1.39,1.19-4.27,0-5.71-18.21-22.12-28.32-.38-4.39,21.55,1.45,1.33,2.84-4.58,1.43-6-15.78-15.3-15.46-30.61,2.94-9.9Z"/><path class="g" d="M385.17,108.75c6.93-.34,19.46,11.83-.44,24.43-6,3.77-2.3-11.2,2.18-15.61,2.17-2.14.38,3.48.77,5.36.1.46,2.07,1,2.28.21.87-3.62.39-9.17-2.52-8.35-3.21.9-13.46,14.65-4.7,21.44,8.39,6.49,28.25-26.54,2.37-30-1.48-.21-2.82,2.66.05,2.56Z"/><path class="g" d="M397.82,161.75c-.29-3.13,5.9-6.42,7.1,1.39-.16,8.05-.85,31.5-6.68,35.07l-2.58-6.36C399.52,191.48,398.73,171.39,397.82,161.75Z"/><path class="g" d="M356,81.92c-1.67,1.07.34-4.36,2-5.48,25.24-17.38,27.38,5.71-3.31,21.67-1.85,1-1.12-5,.76-6.07C376,80.7,381,65.91,356.06,81.88Z"/><path class="g" d="M354.77,105.43c-6.55-1.82-22.84,7.2-8.1,23.59,4.4,4.9,6.11-10.28,3.35-15.48-1.35-2.52-1.58,3.27-2.62,5-.25.42-2.35.53-2.26-.28.42-3.68,2.83-8.92,5.34-7.5,2.77,1.55,7.82,17-3,21.62-10.34,4.45-17.91-31.59,8.21-29.4,1.49.12,1.82,3.21-.94,2.46Z"/><path class="g" d="M350.38,138.19c-1.91,3.2-25.62,33.38-26.07,32.89-.86-1,6.34-11,12.91-20.33l9.32-14c2.22-2.21,5.53-2.9,3.89,1.36Z"/><path class="g" d="M311.61,204.84c-1.81-.85-1.5-4.53-3.48-5.06-2.62-.77-6.34,1.19-5.55,4.55,1.19,5,6.68,10.42,11.7,8.4Z"/><path class="g" d="M305.21,224.64c-1.65.88-4.94,2.63-7,5.45s-2.87,6.72-3.9,8.49-2.26,1.36-2-.69,1.93-5.79,4.42-8.7a23.27,23.27,0,0,1,7.6-5.77c1.83-.77,2.18-.22,2.36.07s.17.27-1.47,1.16Z"/><path class="h" d="M274.45,236.66l83.87-7.11L418.73,251l-1.51,22.83-63.16-17-77.24,7.82Z"/><path class="g" d="M324.09,153.69c1.39-2.94-3.43-7.43-7.31-.18-2.65,7.78-10.17,30.49-5.83,35.15,3.52,3.47,12.69-7.69,14.05-7.07l4.74-7.5c-1.95-2.16-11.5,9.43-14.09,9-3.57-1.17,4.19-20.32,8.44-29.41Z"/><path class="h" d="M314.84,123.66,370.63,122l46,17.53.47,31.27c-.71-1-50-22.51-50-22.51l-63.5,2.36Z"/><path class="h" d="M370.63,122l-27,.81,32.55,2L416.87,148l-.27-8.46Z"/><path class="a" d="M372.29,109.2,305.48,226.93,283,307.25H407.59l-2.36-64.44Z"/><path class="g" d="M381.41,174.69c1.14,1.32,1-3.85-.08-5.2-16.75-21-25.43-1.51-3.54,19.5,1.32,1.27,2.46-4.07,1.17-5.37-14.44-14.62-14.42-28.59,2.46-8.91Z"/><path class="g" d="M375.52,195.29c6.22,0,17.68,11.6,0,22.28-5.28,3.19-2.26-10.33,1.68-14.17,1.91-1.87.41,3.2.79,4.94.1.42,1.87,1,2,.28.72-3.27.19-8.36-2.4-7.72-2.86.69-11.82,12.82-3.82,19.37,7.64,6.28,24.88-23.07,1.58-27.33-1.32-.24-2.52,2.44.1,2.34Z"/><path class="g" d="M366.65,232.42c1.28,3.42-1.9,36.7-1.17,36.85,1,.19,4.6-28.46,4.76-35.65-.24-2.74-2.21-5-3.59-1.21Z"/><path class="g" d="M369.63,224.62c.7,3.22,12.35,34.87,12.87,34.56,1-.63-2.24-11-5.18-20.6l-3.91-14.19c-1.28-2.44-4-3.81-3.78.24Z"/><path class="g" d="M362.19,227.71c-1.28-3.42,1.9-36.71,1.17-36.85-1-.2-4.61,28.45-4.77,35.65.25,2.74,2.21,5,3.6,1.2Z"/><path class="g" d="M387.84,244.21c-.33-2.87,5.18-5.69,6.4,1.56,0,7.35-.21,28.74-5.37,31.74-4.07,2.17-8.72-9.62-10.1-9.4-1.28.05-2.5,7.77-1.51,14.29l-3.82-.41c-.46-10,1.89-20.86,3.44-21.48,2.33-1.41,7.19,10.86,9.55,11.09,3.46-.16,2.39-18.55,1.4-27.4Z"/><path class="g" d="M354.44,240.33a4.2,4.2,0,0,0-1,1.43c-3,10.23-5.05,21.75-6.47,29.27a57.35,57.35,0,0,0-.57,5.72l4.95.6.81-5.51L355,242a4.25,4.25,0,0,0-.54-1.68Z"/><path class="g" d="M348.85,169.6c-1.48.91.25-4,1.68-4.93,22.36-14.83,24.68,6.34-2.57,19.65-1.65.81-1.11-4.63.53-5.48,18.21-9.51,22.47-22.81.37-9.24Z"/><path class="g" d="M348.08,191c-5.91-1.93-20.38,5.64-6.85,21.2,4,4.66,5.31-9.13,2.73-14-1.26-2.44-1.36,2.93-2.26,4.46-.22.37-2.12.4-2-.35.33-3.34,2.38-8,4.66-6.63,2.52,1.54,7.34,15.82-2.27,19.62-9.21,3.63-16.65-29.58,6.84-26.51,1.34.17,1.69,3-.81,2.2Z"/><path class="g" d="M345.27,229.07c-2.26,2.87-9.41,35.53-10.15,35.45-1-.11,4.31-28.51,6.36-35.4C342.56,226.6,345.11,225,345.27,229.07Z"/><path class="g" d="M344.83,220.74c-1.65,2.84-22.41,29.43-22.83,29-.79-.91,5.5-9.79,11.22-18l8.08-12.32c1.95-1.94,4.92-2.43,3.52,1.38Z"/><path class="g" d="M351,225.94c2.26-2.87,9.41-35.53,10.15-35.45,1,.12-4.31,28.52-6.36,35.4C353.66,228.41,351.1,230,351,225.94Z"/><path class="g" d="M321.49,233.83c1.19-2.64-3.22-6.93-6.57-.47-2.23,7-8.58,27.42-4.59,31.87,3.22,3.3,11.24-6.51,12.49-5.88,2.08.76-3,23.21-11.81,20.55-1.64-.86-1.23-4.08-3-4.68-2.44-.81-5.67.83-4.9,3.93,1.16,4.63,6.18,9.79,10.65,8.14,11-4,15.27-32.84,13.15-34.58-1.79-2.06-10.16,8.13-12.49,7.64-3.23-1.22,3.39-18.4,7-26.51Z"/><path class="h" d="M313.3,209.65c29.24-4,59.13-2.85,88.37,10.65l3.55,31.27c-32.42-21.19-67.48-22-103.76-14.93Z"/><path class="a" d="M464.53,459.74c-2.68,0-88.46,13.4-88.46,13.4L294,448V371.29H435.7c12.52,25.15,29.08,41.24,28.82,88.46Z"/><path class="i" d="M466.54,466.44l1.34,30.82L369.71,512l-92.13-28.81,2.41-26-18.16-23.83L265.65,415l22.64,17.16,5.36-17.54L291,452.79l83.09,27.13Z"/><path class="a" d="M265.65,414.9l22.64,17.15L285.7,316.83Z"/><path class="h" d="M385.17,5.81l19.31,31.51,17.28,123.49V276.67l-13.2,19.24,2.81-19.27.73-109.74L383.24,21.1Z"/><path class="h" d="M385.17,5.81,359.26,26.65,302.86,143,266.27,251.26l13.21,54.38,12.2-6.6-14.23-52.85,29-94L383.66,23.11Zm-44.31,201.8-17.77.82,0,0c28.55-.29,55.6,4,79.35,18.37l-.75-6.62c-20.11-9.3-40.52-12.77-60.82-12.7Z"/><path class="h" d="M410.6,306.29l-1.67-59.64-19.76-123-15.75-22.44-2.36,12.64L399.56,242l5,62.31Z"/><path class="h" d="M373.41,101.25l-1.35,17.09L311.43,225.55,286,301.6l-7.37-2.68,22.78-73L353.3,118.67Z"/><path class="h" d="M267.2,308l-1.68,20.78,8.38,11.05c43.85-34.2,89.5-43.77,138.7-4l5.37-9.72L416.29,306c-50.19-45.4-99.78-34.5-149.09,2Z"/><path class="h" d="M344.34,293.29c-25.4,0-51.66,11.49-78.83,35.45l8.38,11.05c43.85-34.2,89.5-43.77,138.71-4l5.36-9.72c-23.69-21.51-48.21-32.82-73.61-32.77ZM463.49,439.37l6.73,6.28.67,25.21L376.41,485.6,286,457.47l2.47-38.09h6.63l-.06,23,82.42,23.12L464.25,452Z"/><ellipse class="k" cx="415.34" cy="442.84" rx="13.9" ry="9.94" transform="translate(-51.32 831.23) rotate(-86.61)"/><path class="k" d="M410.78,430.75a11.85,11.85,0,0,0-2.76,3.09c-3.73,5.85-3.47,14.61.58,19.57,2.44,2.89,5.61,4,8.77,2.87a11.85,11.85,0,0,0,2.76-3.09c3.73-5.85,3.47-14.61-.58-19.57-2.44-2.89-5.61-4-8.76-2.87Z"/><path class="g" d="M432,435.25c-2.05-5.53,1.92-7.66,7.09-9.81s.15-5.32-5.32-3.71-8.28,9.92-7.09,16.31,11.1,7.93,15.79,6.77,9.79-4.13,8.27-7.19-2.54-2.11-3.53-.49S434.54,442,432,435.25Z"/><ellipse class="k" cx="452.63" cy="436.1" rx="12.66" ry="8.8" transform="translate(-7.61 864.15) rotate(-86.86)"/><path class="k" d="M448.6,425.1a10.83,10.83,0,0,0-2.46,2.81c-3.29,5.32-3.06,13.3.51,17.82,2.09,2.63,5,3.6,7.76,2.62a11.21,11.21,0,0,0,2.46-2.81c3.29-5.32,3.06-13.3-.52-17.82-2.09-2.63-5-3.6-7.76-2.62Z"/><path class="g" d="M390.32,429.55c-1.66-3.37-11.51-1.3-10.19-4.8,1.95-5.23,14.26-.71,16.11,4.55,3,8.41-6.61,21.29-15.52,21.77-5.21.28-11.89-6.68-10.41-11.68,4.88,6.15,12.08,7.38,16.8,4.91,4.22-2.22,5.42-10.25,3.2-14.75Z"/><ellipse class="k" cx="363.49" cy="440.09" rx="15.54" ry="12.55" transform="translate(-192.5 569.24) rotate(-63.52)"/><path class="g" d="M327,431.26c16.27,18.9,19.86-15.62,13-6-4.28,6-8.24-4.75-2.56-7.53s11.83,2.22,12.75,7c1.53,7.85-7.21,18-15.18,18.56-5.52.36-11.43-5.33-12.07-11.37l4-.66Z"/><ellipse class="k" cx="318.79" cy="425.86" rx="13.9" ry="9.94" transform="translate(-199.35 546.35) rotate(-66.27)"/><path class="g" d="M320.11,341.2c-3,3.28-8.47,12.25-1.67,13.33,21.25,3.4,3.78-45.73-13.07-16.26-2.06,3.61-4.93.65-2.3-3.82,14.2-24.13,37.56-1.62,29.49,18.68-4.27,10.73-24.66,10.06-22.55-4,.57-3.72,4.46-10,8.28-10.68,1.14-.2,3.76.57,1.81,2.75Zm29.74-7.34c-2.49,1.75-7.58,7.07-3.2,9.33,13.64,7,9.71-32.42-6.17-14.63-2,2.18-3.39-.59-.93-3.27,13.27-14.47,25.32,6.89,16.75,19.92-4.53,6.88-18,2-14.42-7.77,1-2.57,4.56-6.31,7.21-6,.79.1,2.41,1.22.78,2.39Zm19.94,14.84,30.59,61.46c-1.18,13.83-7.64.57-9.94,3.74-2,2.85,7.46,16.79,13,1.19,1-2.75,2.3,9,5.72,10.64a1.33,1.33,0,0,0,1.42-.48c1.92-2.53-1.33-12.19.41-9.53,1.36,2.92,11.77,7.31,12.46,1,.29-3.57-3.79-.78-5.41-1.3-3.73-1.18-6.13-4.34-8.12-7.7-6.91-11.62-32.09-61.38-32.09-61.38Zm57.48,33.19c-5.34,2.09-10.38,6.18-10.84,12.09-.2,6.83,9.8,10.86,14,5.22.29-3.42,5.17-7.65,6-2.08.27,6.73-4.86,13.8-12.1,13.42-8.84.1-15.45-9.39-13.27-17.73,1.26-6.66,7.81-11.88,14.23-13.14Z"/><path class="g" d="M367.59,372.9a124.14,124.14,0,0,1,13.84,13.58c5.95,6.6,4.34,17.5-2.44,22.82-8.29,7.08-23.43,6.36-29.81-1.27-1.63-2-.82-9.07,1.61-8.08,1.91.8,9,6.44,14,6.2,6.36-.57,14.39-4.66,14.46-11.93-1.42-6.24-7.16-10.46-11.33-15-1.73-2-5.91-2.26-9-3.09Zm-4,16.08c7.07-2.44-.36,7.26-2.79,6.85-2.13-.36-2.22-5.47-.37-6.47,1.68-.82,1.24.29,3.16-.38Zm62.58,4.86c-2.73-.71-4.07,2.19-1.84,2.74C425.37,396.82,427.38,394.16,426.15,393.84ZM369.87,348.7c-.52-2.93-10.57-26.93-7.32-27.81,3.25-1.11,11.95,18.05,15.49,25.48ZM388,334.84c2.68,1.35,8.39,5.67,4.34,8-12.62,7.38-13.66-28.05,4.27-13.53,2.2,1.78,3.29-.81.51-3-15-11.79-24.2,8.23-14.06,19.11,5.34,5.74,18.1.29,13.29-8.1-1.27-2.21-5.28-5.24-7.89-4.72-.77.17-2.24,1.3-.47,2.2Z"/><path class="h" d="M286,422.21l9.05,20.1c14.15-56.56,88.84-92.25,153.05-48.78l-7.64-22.25C376.67,290,256.18,360.38,286,422.2Z"/><path class="h" d="M376.15,356.23c-41.65-.44-71.41,22.15-90.19,66L295,442.3c14.15-56.56,88.84-92.25,153.05-48.78l-7.64-22.25c-23.94-9.89-45.33-14.85-64.26-15Z"/><ellipse class="l" cx="96.66" cy="442.83" rx="9.94" ry="13.9" transform="translate(-26.05 6.5) rotate(-3.39)"/><ellipse class="l" cx="59.37" cy="436.1" rx="8.8" ry="12.66" transform="translate(-23.81 3.91) rotate(-3.14)"/><ellipse class="l" cx="148.51" cy="440.09" rx="12.55" ry="15.54" transform="translate(-180.63 112.37) rotate(-26.48)"/><ellipse class="l" cx="193.22" cy="425.86" rx="9.94" ry="13.9" transform="translate(-155.03 113.74) rotate(-23.73)"/></svg>