<svg xmlns="http://www.w3.org/2000/svg" viewBox="0 0 512 512"><defs><style>.a{fill:#555;}.b{fill:#7d7d7d;}.c{fill:#595959;}.d{fill:#3d3d3d;}.e{fill:#282828;}.f{fill:#646464;}.g{fill:#505050;}.h{fill:#818181;}</style></defs><title>Artboard 67</title><path class="a" d="M256,359.36,242.35,382,256,407.36h95a8.15,8.15,0,0,0,5.46-2.16l11.05-16.14a11.36,11.36,0,0,0,3.54-8.4l-.24-17Z"/><path class="b" d="M256,359.36v48H160.92a8,8,0,0,1-5.4-2.16l-11.1-16.14a11.59,11.59,0,0,1-3.54-8.4l.24-17Z"/><path class="a" d="M256,106.74l-7.56,31.69,7.56,32.7,6.84,1.8c43.62-22.74,46.38-66.19,46.38-66.19Z"/><path class="a" d="M256,106.74v64.39l-6.84,1.8c-43.68-22.74-46.38-66.19-46.38-66.19Z"/><path class="c" d="M346.93,390.74a10.22,10.22,0,0,0,3.54-7.68V363.68h20.41l.24,19.38a9.82,9.82,0,0,1-3.54,7.68l-11.05,14.64a8.59,8.59,0,0,1-5.46,2H330.43a8.72,8.72,0,0,0,5.46-2Z"/><path class="d" d="M309.25,106.74s-2.76,38.41-46.38,58.57a19.65,19.65,0,0,1-6.84,1.62l-10.74,91.38L256,363.68H370.88V242.59l-17.59-35.28-2-95.17Z"/><path class="a" d="M436.52,290.71c-6.42-32-25-50.4-25-50.4l54.18-69.78c33.36,32.52,43.38,75,46.2,102.36a10.56,10.56,0,0,1-8,11.4l-55.86,13.8a9.5,9.5,0,0,1-11.58-7.38Z"/><path class="d" d="M426,221.71l-14.46,18.6s18.54,18.36,25,50.4a9.5,9.5,0,0,0,11.58,7.38L460.64,295C456,272.35,446.18,245.23,426,221.71Z"/><path class="d" d="M465.74,170.53c26.64,25.92,38.34,58.14,43.5,84-54.9-9.3-69.6-50.4-69.6-50.4h0Z"/><path class="e" d="M351.25,112.14l2,95.17,17.59,35.28V363.68H350.47V251.47l-18.54-33.24a10.55,10.55,0,0,1-1.32-5.22V109.5Z"/><path class="a" d="M353.29,210.43l-2-73.56-55.74,86a18.3,18.3,0,0,0-2.88,9.84v82a10.58,10.58,0,0,0,10.56,10.57h67.69V245.65Z"/><path class="c" d="M313.27,314.77v-82a17.71,17.71,0,0,1,2.94-9.84l35.88-55.5-.84-30.6-55.74,86.1a18.15,18.15,0,0,0-2.88,9.84v82a10.58,10.58,0,0,0,10.56,10.57h20.7a10.6,10.6,0,0,1-10.62-10.57Z"/><path class="a" d="M377.84,113.76a6.84,6.84,0,0,0-.12,1.56v70.75a18.93,18.93,0,0,0,11.7,17.76,18.44,18.44,0,0,0,21-5.16.6.6,0,0,1,.24-.3l42.6-54.06c.06-.06.12-.18.18-.24a111.7,111.7,0,0,1,10.26,9.42,15,15,0,0,1,1,19.44L412.1,240.61a13.08,13.08,0,0,1-10.32,5h-30.9l-18.31-32.88a9.83,9.83,0,0,1-1.32-5V112.14a215.92,215.92,0,0,1,26.59,1.62Z"/><path class="a" d="M371.9,207.79V113.1c-6.48-.6-13.38-1-20.65-1v95.65a9.83,9.83,0,0,0,1.32,5l18.37,32.88h20.64l-18.36-32.88a10.47,10.47,0,0,1-1.32-5Z"/><path class="d" d="M455.84,136.39a10.91,10.91,0,0,0-4.56-7.21c-17.52-11.94-38.22-20.1-61.5-24.36a10.65,10.65,0,0,0-12.6,10.5v71.29A19.08,19.08,0,0,0,410.78,199c.12-.06.18-.18.3-.3l42.6-54.06a10.84,10.84,0,0,0,2.16-8.22Z"/><path class="e" d="M397.58,186.61V115.32a10.58,10.58,0,0,1,3.66-8c-3.78-.9-7.56-1.74-11.46-2.46a10.65,10.65,0,0,0-12.6,10.5v71.29a19.11,19.11,0,0,0,29.28,16.14,18.88,18.88,0,0,1-8.88-16.14Z"/><path class="f" d="M202.81,106.74s2.7,38.41,46.38,58.57a19.34,19.34,0,0,0,6.84,1.62V363.68H141.12V242.59l17.58-35.28,2-95.17Z"/><path class="b" d="M75.48,290.71c6.42-32,25-50.4,25-50.4L46.26,170.53C12.9,203.05,2.88,245.53.06,272.89a10.62,10.62,0,0,0,8,11.4l55.86,13.8a9.47,9.47,0,0,0,11.58-7.38Z"/><path class="f" d="M86,221.71l14.46,18.6s-18.54,18.36-25,50.4a9.47,9.47,0,0,1-11.58,7.38L51.42,295C56,272.35,65.82,245.23,86,221.71Z"/><path class="f" d="M46.26,170.53c-26.58,25.92-38.34,58.14-43.44,84,54.9-9.3,69.54-50.4,69.54-50.4h0Z"/><path class="g" d="M160.74,112.14l-2,95.17-17.58,35.28V363.68h20.4V251.47l18.55-33.24a10.61,10.61,0,0,0,1.38-5.22V109.5Z"/><path class="b" d="M158.7,210.43l2-73.56,55.75,86a17.86,17.86,0,0,1,2.94,9.84v82a10.6,10.6,0,0,1-10.62,10.57H141.12V245.65Z"/><path class="h" d="M198.73,314.77v-82a18.15,18.15,0,0,0-2.88-9.84l-35.95-55.5.84-30.6,55.75,86.1a17.71,17.71,0,0,1,2.94,9.84v82a10.6,10.6,0,0,1-10.62,10.57H188.17a10.58,10.58,0,0,0,10.56-10.57Z"/><path class="b" d="M134.22,113.76a13.65,13.65,0,0,1,.12,1.56v70.75a19,19,0,0,1-11.76,17.76,18.37,18.37,0,0,1-20.94-5.16c-.12-.12-.18-.24-.3-.3l-42.6-54.06a.45.45,0,0,1-.12-.24,97.86,97.86,0,0,0-10.26,9.42,14.88,14.88,0,0,0-1,19.44L99.9,240.61a13.08,13.08,0,0,0,10.32,5h30.9l18.36-32.88a10.41,10.41,0,0,0,1.26-5V112.14a214.87,214.87,0,0,0-26.52,1.62Z"/><path class="b" d="M140.1,207.79V113.1c6.54-.6,13.38-1,20.64-1v95.65a10.41,10.41,0,0,1-1.26,5l-18.36,32.88h-20.7l18.36-32.88a9.83,9.83,0,0,0,1.32-5Z"/><path class="f" d="M56.22,136.39a10.83,10.83,0,0,1,4.5-7.21c17.52-11.94,38.22-20.1,61.56-24.36a10.57,10.57,0,0,1,12.54,10.5v71.29A19.08,19.08,0,0,1,101.22,199a1.31,1.31,0,0,1-.24-.3l-42.6-54.06a10.36,10.36,0,0,1-2.16-8.22Z"/><path class="g" d="M114.48,186.61V115.32a10.63,10.63,0,0,0-3.72-8c3.78-.9,7.62-1.74,11.52-2.46a10.57,10.57,0,0,1,12.54,10.5v71.29a19.11,19.11,0,0,1-29.28,16.14,18.93,18.93,0,0,0,8.94-16.14Z"/><path class="h" d="M165.06,390.74a10.16,10.16,0,0,1-3.48-7.68l-.06-19.38h-20.4l-.24,19.38a10.22,10.22,0,0,0,3.54,7.68l11.1,14.64a8.43,8.43,0,0,0,5.4,2h20.65a8.43,8.43,0,0,1-5.4-2Z"/></svg>