<svg xmlns="http://www.w3.org/2000/svg" viewBox="0 0 512 512"><defs><style>.a{fill:#424923;}.b{fill:#4e562a;}.c{fill:#5e4237;}.d{fill:#573d33;}.e{fill:#485026;}.f{fill:#e3dfbf;}.g{fill:#646e35;}.h{fill:#b8b8b8;}.i{fill:#817f37;}.j{fill:#b7b24c;}</style></defs><title>armour_god_earth_gloves</title><path class="a" d="M38.08,372c-1.18-9.73,3.7-21.61,13.52-31a48,48,0,0,1,20.89-12Z"/><path class="b" d="M478.05,228l-85,48.8L254.43,120.62l60.22-80.07c107,22.88,167.55,81.61,163.4,187.33Z"/><path class="c" d="M241.33,133.68c112,8.72,146,68.36,136.89,156.16l-74.48,40.87L190.31,200.36Z"/><path class="d" d="M241.33,133.68l-51,66.67,53.34,61.29,95.58-95.58c-22-17.71-54-29-97.9-32.38Z"/><path class="e" d="M314.65,40.62l-60.2,80.07,80.48,90.54L440.39,105.78c-28-32.17-70.67-53.39-125.56-65.14Z"/><path class="f" d="M334.13,10C412.4,31.64,501.67,118,512,211.74l-12.35,16.2H478c-5.53-75.81-64.93-147.33-163.4-187.32L316,21.14Z"/><path class="g" d="M113.41,431.66,42.78,491a15.37,15.37,0,0,1-21.66-1.85l0,0c-5.49-6.52-4.2-15.72,1.88-21.69l64.47-63.18Z"/><path class="g" d="M98.94,396.25l-67.2,63.18A15.38,15.38,0,0,1,10,458.8l0,0c-5.84-6.21-4.5-15,.67-21.76L67,371.27Z"/><path class="a" d="M149.53,453.11c-14.28,8.86-31,7.65-37.42-2.65l51.72-32c6.39,10.3,0,25.83-14.3,34.6Z"/><path class="g" d="M65.33,373.57,23,423.33a9.65,9.65,0,0,1-13.57,1.48,9.18,9.18,0,0,1-1.07-1l-.08-.1a12.24,12.24,0,0,1-.54-16.13l42.3-49.75Z"/><path class="b" d="M89.36,441.14,37.9,484.25a11.19,11.19,0,0,1-15.76-1.37l0,0c-4-4.75-3-11.43,1.39-15.77l47.61-46.76Z"/><path class="g" d="M150.22,438.62,80,498.38A15.39,15.39,0,0,1,60,474.93l70.26-59.76Z"/><path class="b" d="M125,449.15,73.83,492.64a11.21,11.21,0,1,1-14.56-17l0,0,51.13-43.49ZM71.59,409,24.81,453a10.7,10.7,0,0,1-15.13-.45v0c-4.07-4.32-3.45-10.68.46-15.14l41.6-47.53ZM44.11,386.37,17.22,418a6.15,6.15,0,0,1-9.31.3l0-.05A7.77,7.77,0,0,1,7.52,408L34.4,376.36Zm169.05-5.64.18,61c.11,4.4-.24,7.07-2.16,10.77L190.36,492.7c-13.36,18.58-35.78,5.07-36-7.68l1.85-62.32Z"/><path class="a" d="M131.71,439.71l-15.56,9.15c-29.31,16.24-52.31-17.48-38.64-28.38l19.15-18.63Z"/><path class="f" d="M158.58,431.29l-55.94,69,9.26-84.51Z"/><path class="g" d="M213.16,380.74l1.07,36.08c-1.45,12,1.88,25.91-3.06,35.65l-20.82,40.24c-5.93,9-21.37,3.77-20.38-7.6a10.19,10.19,0,0,1,.65-2.79l17-43.24,2.52-41.42Z"/><path class="a" d="M44.87,388.36l26.18-24.12,28.19,32.43-26.16,22c-26.16,9.43-41.65-17.95-28.19-30.35Z"/><path class="f" d="M111.89,415.85,50.54,441.31l35.88-52.47Z"/><path class="f" d="M229.06,373.88l-42.29,59.75-53.12,20.73c-7.21-14-18.21-22.56-38.47-17.73C90,422,88.1,406.43,62.71,397.35c2.38-15.55,2.11-30.42-15.82-40.64l21.83-43.65,69.84-42.56,34.37-69.85,109.4-69L444.12,53.88l43.46-1.09-2.17,37-96.86,158L305.61,348.18Z"/><path class="f" d="M257.67,108.12c65.72,11.59,142.14,72.84,149,168.21l-10.34,13.52H378.23c-2.92-67-51.83-128.42-136.89-156.16l1.13-16.24ZM334.13,10C412.4,31.64,501.67,118,512,211.74l-12.35,16.2C483.94,130.82,397.9,41.22,316,21.13Z"/><ellipse class="h" cx="308.73" cy="74.31" rx="16.02" ry="10.96" transform="translate(-5.27 121.63) rotate(-22.1)"/><ellipse class="h" cx="352.92" cy="81.68" rx="18.71" ry="13.48" transform="translate(1.45 169.41) rotate(-27.05)"/><path class="f" d="M257.67,108.12c65.72,11.59,142.14,72.84,149,168.21l-10.34,13.52c-10.64-92-65.41-146.54-153.87-172.4ZM86.42,388.85,0,397.72l64.44-57.94Z"/><path class="b" d="M138.66,429.83,118.3,455l3.38-30.75ZM72,377.84l-27.65,2.84L65,362.17Z"/><path class="f" d="M115.92,417.18l-8.45,77.26,51.11-63.1ZM88.56,391.1,55.67,439.2l56.23-23.34ZM64.44,339.83,4.93,393.27l79.81-8.19Z"/><path class="g" d="M104.44,325.12l-59.5,53.44,79.81-8.19Z"/><path class="i" d="M469.7,69.12,384,235.55l-79.12,96.31-77.74,26.19L181.33,423l-43.11,16.37c-7.24-9.31-16.16-17-35.19-16.1-3-15-11.7-25.94-26.74-32.46.16-12.48-.08-25-13.09-35.2L82,315.49l70.66-41.74,37.66-73.4,101.41-64.12Z"/><ellipse class="h" cx="444.32" cy="183.03" rx="17.68" ry="12.65" transform="translate(83.58 500.5) rotate(-63.74)"/><ellipse class="h" cx="444.86" cy="230.05" rx="18.22" ry="12.28" transform="translate(70.79 563.06) rotate(-69.02)"/><path class="g" d="M130.91,383.11l-8.45,77.18,51.1-63.1Z"/><path class="i" d="M458.3,91.26,299.89,151,198.48,215.14l-37.65,73.4L90.17,330.29l-17.36,37c3.56,7.46,3.65,15.48,3.54,23.53,15.05,6.44,23.78,17.47,26.73,32.47,19-.94,28,6.79,35.2,16.1L181.39,423l45.83-64.94L305,331.87l79.12-96.3Z"/><path class="j" d="M396.88,103.87c-2.45-.34,3.84-4.16,6.3-3.91,38,3.87,21.44,29.25-20.57,19.3-2.54-.61,3-6.09,5.53-5.56,28.62,6,45.32-4.8,8.75-9.82Z"/><path class="j" d="M376.79,126.8C372,119.34,349.26,114.61,350.1,144c.24,8.78,14.09-5.26,15.64-12.95.76-3.71-4.12,2-6.5,2.87-.58.22-2.66-1.45-1.92-2.22,3.36-3.39,9.85-6.68,11.1-3.09,1.39,4-6.21,24-20.22,19.54-13.41-4.31,8.39-47.57,31.47-23,1.32,1.4-.85,4.77-2.88,1.7Z"/><path class="j" d="M339.23,166.07c-5,1.12-42.42,30.6-43.17,29.83-1-.92,30.5-27.46,39-33.21,3.46-1.81,7.7-1.23,4.21,3.38Zm7-9.57c-4.4,1.65-51.23,12.15-51.27,11.26-.06-1.63,14.89-5.81,28.63-9.69l20-6.27c3.9-.36,7.6,1.78,2.62,4.71Zm2,11.25c5-1.13,42.43-30.61,43.18-29.84,1,.93-30.5,27.47-39,33.21-3.46,1.82-7.7,1.24-4.21-3.37Zm-39.53-17.93c3.69-1.83,2.73-10.53-6.8-6.45-8.79,5.68-34.21,22.42-33.83,30.92.55,6.55,18.25,3,19,4.81,1.62,2.63-24.25,22.85-31.55,12-1-2.43,2.33-5.62.95-7.86-1.87-3-7-4.21-8.93-.1-2.9,6.14-2,16.35,4.37,18.61,15.7,5.5,46.46-22.35,45.7-26.19-.12-3.88-18.62-.23-20.73-2.88-2.45-4.34,20.34-17.17,31.68-22.81Z"/><path class="j" d="M274.16,198.77c1.43.31,2.74,1.66,4,1.89s2.38-.63,3.5-.58a1.93,1.93,0,0,1,1.82,2.46,6.18,6.18,0,0,1-4.36,3.87c-2.14.44-4.56-.68-6.19-2s-2.45-2.9-2.08-4.06a2.89,2.89,0,0,1,3.43-1.56Zm-2.81,14.39a4.34,4.34,0,0,1-3.3.45,5,5,0,0,1-2.77-3.93,8.38,8.38,0,0,1,.59-5.13c.66-1.07,1.66-.67,2.05.3s.19,2.58.73,3.68,1.79,1.66,2.48,2.29a2.67,2.67,0,0,1,.83,1.68c0,.35,0,.35-.62.74Zm-.52,9.49c-.84.08-2.51.25-3.27-.61a2.43,2.43,0,0,1,.83-3.56c1.48-.85,4.3-.7,6.1.3a3.82,3.82,0,0,1,1.84,5,10.24,10.24,0,0,1-5.85,5.41c-2.57.81-5.27,0-7.57-1.46a11.69,11.69,0,0,1-4.93-5.65,8.65,8.65,0,0,1,.5-6.18c.77-1.71,1.8-2.81,2.54-2.91s1.18.84,1.18,2.58-.46,4.39.48,6.18a6.25,6.25,0,0,0,5.1,2.9,5.48,5.48,0,0,0,3.84-1c.59-.56.34-.79.23-.94s-.12-.16-1-.07ZM248,220.19c1.89-2.53,2.41-5,3.27-6.66s2-2.35,3.12-2.11a3.46,3.46,0,0,1,2.4,3.37,12.22,12.22,0,0,1-1.64,6.66c-1.21,2-3,3.14-4.77,4.75s-3.62,3.62-5.33,4.39a4.11,4.11,0,0,1-4.16-.46c-.87-.67-1.06-1.46.46-3.15s4.78-4.25,6.65-6.78Zm-14.27-14.1c-2.28-.52-6.8-1.63-11-.41s-8.15,4.42-10.53,5.34-3.18-.53-1.38-2.44,6.49-4.25,11.21-5.1a26.85,26.85,0,0,1,11.87.62c2.36.77,2.25,1.64,2.2,2.08s-.06.44-2.33-.07ZM194,255.9c-.19-.71-.57-2.12-1.35-2.59s-2.08-.17-3.59,1.39a19.05,19.05,0,0,0-4.35,8c-1,3.7-1.33,8.34.53,11.25s5.82,4.14,9.47,3.69a12.93,12.93,0,0,0,9.35-6.36A29,29,0,0,0,208,257.68c.12-4.35-1.15-7.3-3.17-10.55s-4.87-6.69-7.94-8.6a12.6,12.6,0,0,0-9.76-1.5,17.43,17.43,0,0,0-9.44,5.68c-2.57,3-4.21,7.23-4.14,9.28s1.88,1.94,3.52.24,3.15-5,5.08-7.15a8.5,8.5,0,0,1,6.71-3.07c2.41.09,4.89,1.26,7.45,3.85a28.64,28.64,0,0,1,6.49,10.47c1.16,3.82,1,7.47-.06,9.94a6.32,6.32,0,0,1-5.71,4c-2.62.16-5.74-.79-6.32-3.25s1.46-6.37,2.46-8.33,1-2,.83-2.68Zm-29.78,44c-3,1.88-8.78,5.6-14,7.53s-9.26,2-10.27-.14,1.13-6.57.13-8.7-5.11-2-7.39.79-2.69,8.1-1.4,11.42,4.27,4.57,9.24,3.82,11.91-3.56,17.38-6.35,9.59-5.57,10.82-7.29-.11-2.33-.82-2.64-.71-.32-3.67,1.57Zm-43.39,20.15a2.07,2.07,0,0,0,2.5-2.57c-.15-.63-2.16-1.77-4.15-1.86-52.73-2.28-3.45,54.59,19.92,13.36,3.29-5.78-2.2-8.5-5-3.52-19.84,34.92-51.45-10.77-13.25-5.4Zm-34.55,40c-2.41,3.54-6.41,12.87.17,13,20.82.43-2.44-44.34-14.68-13.86-1.51,3.73-4.64,1.28-2.71-3.35,10.42-25,35.8-6.54,30.74,14-2.66,10.85-22.3,12.92-22.14-.85,0-3.64,2.94-10.18,6.52-11.33,1.07-.35,3.69.06,2.11,2.4Z"/><path class="j" d="M73.58,388.84S88.31,378.42,85,382l-9.83,10.65Zm76.51-62.94c-.13,2.18-1.84,4.08-2.81,4.21s-1.19-1.56-1.74-3.29-1.43-3.52-1.18-4.86a2,2,0,0,1,3-1.46,6.54,6.54,0,0,1,2.7,5.42Zm5-5.66c-1.51-.08-3.44-1.22-3.51-2.2s1.71-1.72,3.21-1.64,2.76,1,2.83,1.94-1,2-2.52,1.89Zm6.59-7.91a7.46,7.46,0,0,1,4.79,2.2,7.38,7.38,0,0,1,2.93,4.89,7.49,7.49,0,0,1-2.36,6.2c-1.7,1.3-4.19.88-5.82-.36s-2.41-3.53-2.1-4.58,1.77-1.25,2.79-.53,1.58,2.22,2.46,2.59a2,2,0,0,0,2.4-1.35c.31-.95-.27-2-.76-3.05a4.23,4.23,0,0,0-2.4-2.5c-1.45-.59-3.93-.86-4.45-1.54s1-1.74,2.52-1.8ZM339.8,187.53l-76.41,68.85s-11.76-5-10.28-9.34c1.3-4.06,9.14,1.13,12.8-1.09,1.55-.95,3.36-2.84,2.93-4.62-.66-2.63-6-1.54-7-4.05a2.6,2.6,0,0,1,.88-2.87c2-1.23,4.68,1.68,7,1.19A26.34,26.34,0,0,0,285,225.29c1.62-2.29,1.76-5.36,2.13-8.15s-4.53-3.17-6.07-5.29c-1.87-2.55,3.95-5.9,7.3-5,6.59,1.83,5.78,8.27,4.6,11.77-.91,2.69.48,2.73,2,2.5,2-.25,4.07-3.87,8.24-7.36l33.55-26.37c.83-.57,3,.12,3,.12ZM191.56,318.4s-3.2-9.82-6.84-8.93c-3.36.84.3,7.45-1.75,10.33-.95,1.18-2.52,2.53-3.91,2-2.08-.69-.83-5-2.78-6a2.09,2.09,0,0,0-2.38.53c-1.13,1.54,1,3.88.49,5.71a21.61,21.61,0,0,1-9.35,11.7c-1.95,1.16-4.43,1.05-6.62,1.17-2.45.11-2.26-3.87-3.85-5.32-1.93-1.68-5,2.8-4.5,5.55,1,5.44,6.28,5.21,9.18,4.51,2.24-.54,2.17.5,1.89,1.85-.36,1.62-3.4,3-6.42,6.17l-44.53,41.7c-.58.58.26,1.55.26,1.55,29-22.84,54.87-47.83,81.1-72.38Z"/><path class="j" d="M428.1,138.86c0,2.47,4.57-3.34,4.59-5.81.49-38.18-26.63-24.63-21.51,18.25.32,2.59,6.39-2.25,6.16-4.93-2.69-29.14,9.93-44.48,10.76-7.59Z"/><path class="j" d="M403,156.22c6.87,5.58,9,28.72-20.08,24.56-8.68-1.25,6.83-13.4,14.64-14.07,3.78-.33-2.44,3.87-3.57,6.14-.28.55,1.15,2.81,2,2.16,3.76-3,7.76-9,4.33-10.69-3.77-1.83-24.57,3.44-21.7,17.86,2.75,13.82,48.21-2.91,26.42-28.64-1.25-1.46-4.9.3-2,2.66Z"/><path class="j" d="M359.74,189.06c-1.68,4.91-35.24,38.67-34.57,39.5.88,1.07,30.77-27.17,37.43-34.93,2.19-3.25,2.1-7.52-2.88-4.56Z"/><path class="j" d="M370,183.17c-2.12,4.18-17.9,49.51-17,49.64,1.7.24,7.47-14.14,12.9-27.34l8.52-19.25c.8-3.83-.9-7.75-4.39-3.13Z"/><path class="j" d="M359.09,179.85c1.68-4.91,35.23-38.67,34.57-39.5-.89-1.07-30.78,27.17-37.43,34.93-2.2,3.25-2.1,7.52,2.87,4.56Zm13.31,41.29c2.24-3.44,10.77-1.49,5.63,7.49-6.64,8.08-26.17,31.43-34.57,30.08-6.44-1.3-.9-18.46-2.53-19.46-2.53-1.9-25.46,21.49-15.47,30,2.29,1.3,5.85-1.68,7.91,0,2.79,2.2,3.39,7.41-.91,8.8-6.42,2.19-16.47.16-18-6.45-3.67-16.22,27.5-43.6,31.22-42.42,3.85.56-1.89,18.44.5,20.84,3.95,2.93,19.38-18.27,26.28-28.88Z"/><path class="j" d="M319.9,249.9c-.15-1.45-1.33-2.9-1.42-4.22s.9-2.3,1-3.42a1.9,1.9,0,0,0-2.24-2.08,6.2,6.2,0,0,0-4.34,3.89c-.67,2.08.16,4.62,1.31,6.38s2.6,2.76,3.79,2.53a2.9,2.9,0,0,0,1.94-3.14Zm-14.69,1.24a4.23,4.23,0,0,0-.82,3.14,5.42,5.42,0,0,0,3.66,3.28,7.74,7.74,0,0,0,5.16,0c1.05-.53.86-1.57-.06-2.07s-2.55-.48-3.57-1.14-1.44-2-2-2.72a2.69,2.69,0,0,0-1.5-1c-.27-.08-.34-.09-.73.52Zm-9.48-.58c-.18.83-.52,2.37.23,3.32a2.37,2.37,0,0,0,3.63-.43c1-1.37,1.19-4.19.41-6.09a3.77,3.77,0,0,0-4.75-2.32,10.21,10.21,0,0,0-6,5.19c-1.11,2.46-.59,5.23.58,7.69a11.1,11.1,0,0,0,5.06,5.47,9.11,9.11,0,0,0,6.18.21c1.77-.55,3-1.47,3.19-2.19s-.7-1.27-2.42-1.47-4.42,0-6.08-1.17-2.36-3.53-2.3-5.4a5.58,5.58,0,0,1,1.42-3.72c.55-.54.81-.25,1-.13s.15.14,0,.95Zm-.16,23c2.73-1.59,5.28-1.83,7-2.41s2.63-1.71,2.46-2.95-1.15-2.32-3.07-2.76a12,12,0,0,0-6.8.8c-2.07.9-3.55,2.59-5.26,4.2s-4,3.18-4.95,4.79a4.18,4.18,0,0,0,0,4.2c.57.94,1.34,1.21,3.26-.1s4.76-4.26,7.49-5.83Z"/><path class="j" d="M308,289.31c.25,2.32.75,6.94-.84,11s-5.31,7.58-6.5,9.85.17,3.3,2.27,1.65,5-6,6.34-10.54a26.85,26.85,0,0,0,.74-11.87c-.5-2.43-1.38-2.42-1.82-2.41s-.43,0-.19,2.33Z"/><path class="j" d="M254,323.09a5.12,5.12,0,0,1,2.5,1.64c.45.82-.07,2.07-1.78,3.4a19.16,19.16,0,0,1-8.46,3.41c-3.8.61-8.44.37-11.14-1.81s-3.44-6.25-2.57-9.83a12.94,12.94,0,0,1,7.39-8.57A29.41,29.41,0,0,1,254,309a17.62,17.62,0,0,1,10.12,4.36c3,2.4,6.1,5.6,7.64,8.87a12.69,12.69,0,0,1,.37,9.87,17.65,17.65,0,0,1-6.7,8.71c-3.31,2.2-7.67,3.36-9.69,3.06s-1.72-2.09.16-3.53,5.33-2.55,7.69-4.22a8.5,8.5,0,0,0,3.81-6.32c.19-2.41-.7-5-3-7.85a28.57,28.57,0,0,0-9.65-7.63,14.45,14.45,0,0,0-9.88-1.08,6.62,6.62,0,0,0-4.68,5.22c-.55,2.57.14,5.79,2.51,6.64s6.57-.71,8.56-1.5,2.06-.78,2.74-.51Zm-47.13,24.56c-2.19,2.74-6.56,8.16-9.07,13.05s-3.07,9-1,10.24,6.65-.37,8.65.85,1.39,5.31-1.61,7.26-8.37,1.75-11.51.1-4.06-4.77-2.74-9.62,4.89-11.43,8.29-16.56,6.63-8.81,8.47-9.92,2.39.38,2.54,1.11.24.74-2,3.49Zm-24.95,40.81a2.07,2.07,0,0,1,2.83-2.19c.62.22,1.5,2.34,1.38,4.34-3.76,52.65-54.63-2.79-11-21.32,6.11-2.5,8.2,3.16,2.94,5.4-37,15.72,4.84,52.34,3.86,13.77Zm-43.7,29.78c-3.79,2-13.52,5-12.9-1.66,1.94-20.73,43.68,7.47,12.08,16.17-3.89,1.16-1.8,4.46,3,3.07,26-7.41,10.67-34.8-10.41-32.05-11.08,1.41-15.46,20.68-1.68,22.09,3.6.37,10.45-1.77,12-5.19.46-1,.36-3.67-2.15-2.36Z"/><path class="j" d="M108.08,427.59s12-13.45,8.11-10.61l-11.71,8.54Zm71.31-68.83c-2.18-.12-4.26,1.35-4.49,2.29s1.41,1.36,3,2.1,3.33,1.82,4.7,1.73a2,2,0,0,0,1.8-2.84,6.49,6.49,0,0,0-5.07-3.31Zm6.2-4.37c-.1,1.52.83,3.57,1.78,3.74s1.9-1.49,2-3-.67-2.83-1.61-3-2.07.79-2.16,2.3Zm8.62-5.66c.25-1.56-.51-3.3-1.56-5a6.88,6.88,0,0,0-4.45-3.45,7.52,7.52,0,0,0-6.36,1.64c-1.48,1.53-1.35,4.06-.31,5.83s3.15,2.81,4.32,2.6,1.43-1.61.85-2.7-2-1.83-2.29-2.75a2.07,2.07,0,0,1,1.61-2.24c1-.21,2,.5,2.95,1.12a4.24,4.24,0,0,1,2.22,2.65c.43,1.51.33,4,1,4.6s1.85-.73,2.08-2.29ZM338.5,186l-77.11,68.08s3.58,12.25,8.11,11.27c4.18-.9-.08-9.2,2.55-12.67,1.11-1.43,3.21-3,4.92-2.38,2.53.95.83,6.16,3.22,7.44a2.54,2.54,0,0,0,2.95-.55c1.45-1.86-1.14-4.84-.38-7.08a26.37,26.37,0,0,1,12-14.08c2.46-1.35,5.52-1.12,8.25-1.2,2.92-.05,2.64,4.86,4.55,6.64,2.32,2.15,6.31-3.26,5.76-6.6-1.07-6.75-7.54-6.69-11.15-5.91-2.79.6-2.66-.7-2.28-2.25.48-2,4.3-3.54,8.18-7.37l30-30.33c.65-.76.23-3,.23-3ZM191.56,318.41s9.39,4.3,8.09,7.81c-1.2,3.24-7.36-1.14-10.38.56-1.28.66-2.8,2.22-2.5,3.75.46,2.14,4.85,1.4,5.59,3.45a2,2,0,0,1-.79,2.29c-1.73,1-3.73-1.47-5.54-1.12a21.28,21.28,0,0,0-12.68,8c-1.37,1.81-1.55,4.29-1.92,6.53s3.58,2.68,4.79,4.43c1.36,2.11-3.36,4.68-6,3.84-5.29-1.65-4.48-6.83-3.44-9.63.81-2.15-.25-2.22-1.53-2.09-1.66.16-3.39,3-6.84,5.67l-46.33,39.22c-.64.51-1.47-.38-1.47-.38,1.28-1.85,53.74-49.11,81.11-72.38Z"/><path class="f" d="M313.3,333.67l-28.93,17.74c-25-72.25-62.66-107.31-113-130l18.13-27.78c61.81,28,101.77,74.75,123.87,140.06Z"/><path class="f" d="M189.44,193.61l-16.06,24.61.32.16-2,3.22c50.22,22.71,87.76,57.77,112.72,129.87l22.53-13.83a274.4,274.4,0,0,0-13.79-32.35c-14.27-34.77-34.31-63.7-60.8-86.71a237,237,0,0,0-42.87-24.91Zm215.94,13.1-18.27,35.47c-20-54.14-57.7-84.63-99.31-109.94l40.1-16.1c31.87,21.7,60.64,45.28,77.48,90.58Z"/><path class="f" d="M327.89,116.12l-40.1,16.1c41.61,25.32,79.32,55.8,99.31,109.94l14.77-28.66c-8.7-32.19-24.58-54.8-43.51-74.36a320.62,320.62,0,0,0-30.47-23Z"/><path class="f" d="M487.43,52.76,444,53.86,282.18,131.6l-109.4,69-34.37,69.84L68.56,313,46.74,356.69c17.93,10.22,18.19,25.09,15.82,40.64C87.94,406.41,89.88,422,95,436.61c20.26-4.83,31.25,3.72,38.47,17.73l53.12-20.74,42.29-59.75,76.37-25.64,82.94-100.4,96.86-158ZM469.7,69.13,384,235.56l-79.12,96.3-77.74,26.19L181.33,423l-43.11,16.37c-7.24-9.31-16.16-17-35.19-16.1-3-15-11.7-25.95-26.74-32.47.16-12.47-.08-25-13.09-35.19L82,315.49l70.66-41.74,37.66-73.4,101.41-64.12Z"/><path class="f" d="M63.18,355.61,82,315.5l70.67-41.74,37.65-73.41,101.41-64.11L469.63,69.12l17.73-16.37-43.47,1.09L282.11,131.59l-109.41,69-34.36,69.85L68.49,313,46.67,356.67Z"/><path class="f" d="M136,254.37c64.17,13.32,108.23,46.73,108.59,124l-14.19,14.73-14.76-.16C212.35,316.8,171,296,118.73,281.8l1-15.35Z"/><path class="f" d="M136,254.37c64.17,13.32,108.23,46.73,108.59,124l-14.19,14.73c-.7-71.77-33.57-115.93-110.64-126.6Z"/></svg>