<svg xmlns="http://www.w3.org/2000/svg" viewBox="0 0 512 512"><defs><style>.a{fill:#845623;}.b{fill:#754c1f;}.c{fill:#21170a;}.d{fill:#3b1f0b;}.e{fill:#d2a93e;}.f{fill:#1f1006;}.g{fill:#956629;}.h{fill:#dcb543;}.i{fill:#4e290f;}.j{fill:#2a1608;}.k{fill:#41220c;}.l{fill:#361d0a;}.m{fill:#7c5f24;}.n{fill:#b99037;}.o{fill:#6c471e;}.p{fill:#92844e;}.q{fill:#211c0a;}.r{fill:#806226;}.s{fill:#8f8861;}.t{fill:#5b4a29;}.u{fill:#817758;}.v{fill:#735a2d;}.w{fill:#7f6637;}.x{fill:#66581d;}.y{fill:#944f1d;}.z{fill:#dcd78a;}.aa{fill:#d2a93d;}.ab{fill:#463429;}</style></defs><title>armour_god_fire_helmet</title><path class="a" d="M256,146.11l-29.64,25L256,169.37l29.64,1.78Z"/><path class="b" d="M241.09,158.65l-1.38,1.16,1.74,10.43,1.54-.1Z"/><path class="a" d="M256,146.11l29.64,25L256,169.37Z"/><path class="b" d="M270.86,158.65l1.38,1.16-1.74,10.43-1.53-.1Z"/><path class="c" d="M343,125.43l-5.23,1,4.71,6.52Z"/><path class="a" d="M273.41,57.62,261,126.41,390.14,248.29,361,157.36c-28.91-42.27-57.85-83.59-87.55-99.73Z"/><path class="b" d="M286.19,66.29l1.47,1.16L276.38,135l-1.18-2Zm18.54,17.17,1.39,1.48-1.31,7.37-4.35,25.87-6,37.17-1.61-.26,6-37.18L303.19,92l1.54-8.59ZM317.49,98,319,99.86l-5.08,75.55-1.54-1.48Zm15.82,20.37,1.58,2.15L333,193.72l-1.59-1.53Zm21.11,29.8,2,2.88,8.19,72.58-.35,0-1.46-1.41Z"/><path class="c" d="M169,125.43l5.23,1L169.47,133Z"/><path class="a" d="M238.58,57.62,251,126.41,121.85,248.29,151,157.36c28.91-42.27,57.85-83.59,87.55-99.73Z"/><path class="d" d="M219.63,368.5c0,1.06-22.55,58.29-22.55,58.29h56.86l-.65-45.87Zm33.68-111.42.61,33.35L224,303l-12.91-29.1Z"/><path class="e" d="M251.64,258.29l-.11,28.81,4.47-2,4.47,2-.11-28.81L256,259.4Z"/><path class="f" d="M214.43,178.88l-88.69,95.18,18.83,34.86L256,246.54l111.43,62.38,18.83-34.86-88.69-95.18L256,207.11Z"/><path class="g" d="M220,171.15a36,36,0,0,0,72,0l-36,29.59-5.58-4.6Z"/><path class="h" d="M226.31,171.15a29.69,29.69,0,0,0,59.38,0l-29.64,21.37Z"/><path class="i" d="M208.78,168.28v24.24h94.43V168.28H208.78Z"/><path class="j" d="M229.55,260.79l-2.1,1.06,20.27,39.89,2.11-1.07Z"/><path class="e" d="M256,246.53l-47.65,18.88L213.21,278,256,259.4,298.79,278l4.86-12.59Z"/><path class="k" d="M156.72,351.66l-38,17.28,60.74,23.64Z"/><path class="l" d="M0,422.89c14.19,6.83,145.32,21.15,205.89,38.2L234,454.87v-15l-218-21Z"/><path class="e" d="M52.76,404.51,0,422.89c62.91-.63,116.36,12.89,174.53,19.34V429.36Z"/><path class="m" d="M70.58,393.57,36,412.22l128.43,20.15L169,421.44Z"/><path class="n" d="M70.68,396.26c-4.9.45-8.91,4.24-11.76,8-3.55,4.85,4.13,6.71,7,3.31,3.06-2.31,9.4-6.17,6.66-10.61a3,3,0,0,0-1.87-.68Zm9.56,0c-3.43,6.61-8.3,12.69-15.06,16-1.8,1.51-9.83,3.62-4.1,3.82,7.24-3.24,14.1-7.95,18.09-15,.26-1.49,4.5-4.82,1.12-4.87Zm-9.72,1.49c3.65,2.34-3.28,6.89-5.49,8.47-1.9,2.16-7.9,2.18-4.53-1.7,2.54-3,5.94-6.31,10-6.76Zm19.78,1.48L67.74,417.2c3.62,1.18,5.65-3.58,8.59-5l14.72-12A.76.76,0,0,0,90.3,399.27Zm-43.78,7.26c-3,.73-3.24,4.77-3.77,6.75C45.5,414.4,45.13,407.91,46.52,406.53ZM118,407c-1.17,4-4.55,7.36-8.89,7.5-7,1-14.45-1-21,2.14-2.1.57-4.88,4.64-1.44,3,3.2-3.14,8.64-4,12.76-2.61,5.08,2.63,9.63,6.72,15.57,7.32,7,.78,14.77.29,20.77-3.75,1.65-1.46,6.37-6.77,3.05-7.72a11.67,11.67,0,0,1-9.07,8.91c-8.29,2.28-17.92,2.11-25-3.39-1.48-1.15-5.18-2.59-1.14-2.1,5.21.08,11.62-.44,14.34-5.66.49-1.39,2.72-3.65,0-3.66Zm-21,.23c-8.18,0-15.41,4.68-20.7,10.55-.66,2.53,3.86-1.07,4.73-2.44,5.18-4.8,12.74-7.68,19.76-6.09.83.78,0,5.52,1.93,2.44,1.63-3.77-3-4.69-5.71-4.45Zm24.78.83c-2,2.42-5.63,6.7-2,9.39,3.79,2.73,10,1.85,11.78-2.86,1.66-1.22,1.22-5.4-.38-3-.78,3.93-4.67,7.15-8.7,5.46-5.68-1.24-.32-6.49.51-8.69l-1.17-.33ZM145,414.76c-1.14,2.72-3.09,4.63-6.5,3.85.16,3.27,7.64,1.43,7.08-2.36C145.86,415.69,145.8,414.8,145,414.76Zm6.39,1.7a47.25,47.25,0,0,1-19.72,9.59c-4.59.58.72,1.8,2.25.94,7-1.67,13.25-6.07,20.65-6.09,1.83-.59,9.52.92,7.64-1.38-3.56-.67-7.33-.11-10.93.18-5.74,1.53,3.09-2.14,1.2-2.93l-1.1-.31Z"/><path class="l" d="M76.49,388.75l-24.27.75c37.49,15.71,78.13,23.34,117.47,33.43l2.69-8.78Z"/><path class="e" d="M96.14,376.53l-43.92,13L176.76,418l4-9.85Z"/><path class="m" d="M115.86,361.2,77.29,384.84l104.48,26.82,10.33-17.88Z"/><path class="f" d="M232.73,362.92l-32.22,59.16L159.06,328Z"/><path class="o" d="M232.49,422.89H193.76v18h38.57Z"/><path class="p" d="M235.69,405.36l-7.57,39.28h17.77L256,423.15l10.1,21.49h17.77l-7.57-39.28H235.69Z"/><path class="b" d="M225.8,66.29l-1.46,1.16L235.61,135l1.19-2ZM207.26,83.46l-1.39,1.48,1.31,7.37,4.35,25.87,6,37.17,1.61-.26-6-37.18L208.8,92l-1.54-8.59ZM194.5,98,193,99.86l5.08,75.55,1.54-1.48Zm-15.82,20.37-1.58,2.15L179,193.72l1.6-1.53Zm-21.11,29.8-2,2.88-8.19,72.58.35,0,1.46-1.41Z"/><path class="q" d="M199.23,171.73l-27.49,29.58A361.29,361.29,0,0,1,158.21,140l10.69-14.58c5,19,15.81,33.91,30.27,46.3Z"/><path class="r" d="M188.46,173c-1.49-1.91,1.71-2.77,2.75-1.26a7.64,7.64,0,0,1,2,10.16c-1.81,3.1-6.14,4.91-9.42,3-2.43-1.32-3.06-4.33-2.81-6.87.27-3.08,1.14-6.32-.2-9.28-1-2.34-3.63-4.37-6.22-3.54-2.37.91-2.92,3.77-2.7,6,.32,1.32-.15,3.5,1.48,4,1.82,0-.12-3.05,2-2.83,1.4.31,2.13,1.82,2.45,3.09a4.85,4.85,0,0,1-3.93,5.82c-2.76.35-5.13-1.83-6.13-4.22a23.28,23.28,0,0,1-1.64-9.48c.15-3.88,2.06-7.88,5.7-9.53a7.76,7.76,0,0,1,8.61,1.62c4,3.86,5,10,3.5,15.27-.63,2.23-1.3,5,.38,6.94s4.66,1.46,6.25-.26c2.07-1.83,2.54-5.41.43-7.39a4.65,4.65,0,0,0-2.39-1.25Z"/><path class="r" d="M167.33,137.61c9.43,3.15-.14,19.21-1.4,23.1s-2.23,4.53-1.86,1.31a19.81,19.81,0,0,1,.49-2.47c1.09-4.54,5.59-13.85,2.53-17.12-1.48-1.57-2.6-1-3.13,0-.84,2.58-1,4.29-.16,5.25.71.77,2,1.09,2.53,1.75.3.38-.3,1.72-1.1,2-4.64,3.25-8.83-16.72,2.15-13.77Z"/><path class="q" d="M256,49.55c-11.68-.12-19.83,3.56-24.35,11.15l14.18,65.59,10.16-12,10.17,12L280.34,60.7c-4.52-7.59-12.67-11.27-24.35-11.15Z"/><path class="s" d="M253.35,285.12H246.8c-4.26,6.1-10.08,9.52-16.33,12.22v11.78l21.13-3.71Z"/><path class="t" d="M228.09,356.06v16.52l26,25.16,1.95-1.8,1.94,1.8,26-25.16V356.06L256,387.59Z"/><path class="u" d="M253.35,285.12c-4.41,9.8-12,17.83-22.88,24l.2,52.47,25.32,26,25.31-26,.2-52.47c-10.89-6.17-18.47-14.2-22.88-24h-5.27Z"/><path class="v" d="M241.15,408.8l13.37,22.43-3.65,4.24-18.52-17.58Z"/><path class="w" d="M256,423.15c-5.39,7.69-9.91,15.83-20.15,21l7.63,8L256,433l12.52,19.18,7.63-8c-10.23-5.17-14.76-13.31-20.15-21Z"/><path class="p" d="M256,433a71,71,0,0,1-15.15,16.78l9.6,4.86,5.55-1.5,5.55,1.5,9.6-4.86A71.44,71.44,0,0,1,256,433Z"/><path class="e" d="M256,395.92a32.59,32.59,0,1,0,32.65,32.59A32.63,32.63,0,0,0,256,395.92Zm0,9.44a23.9,23.9,0,1,1-23.94,23.89A23.93,23.93,0,0,1,256,405.36Z"/><path class="m" d="M172,228.74l28.78,11.15,18.71,40.53,2.77,6.79.65,84.24-79.47-58.3,8.12-32.22,8.76-7.48L157,259.22l5.75-22.81Z"/><path class="n" d="M173.53,232.18c-1.47,2.91,6.5,4.1,8.44,6.46,3.47,1.42,8.78,6.65,1.75,7-7.77,1.24-15.66.65-23.48.65-.76,3.55,7,.65,9.52,1.69,6-.07,12.23.15,17.93-1.93,5-5.09-5.36-8.05-8.31-11.29a11.51,11.51,0,0,0-5.84-2.59Zm-.17,4.46c-2.49,2.36,10,4.09,2.68,6.17-4.09,1.88-11.69-2.19-13.83,1.28,4.95.39,10.43.61,15.44-.54C183.84,242.06,175.78,237.29,173.36,236.64ZM190.55,239c-1.38,2.13,9.92,6.74,2.67,9.33-2.28,1.64-8.35,1.15-8.63,3.9,4.09-.51,8.88-1.62,12.2-4.39,1.47-3.67-3.35-7.46-6.24-8.84Zm11,11c-9.42,4.69-20.72,6.48-30.83,3-3.93-3.1-2.82,1.86.66,1.84,9.21,2.14,18.95.81,28-1.82,1-.15,4.85-2.4,2.19-3Zm-.21,7.3c-1.64,3,1.81,10.25-4.25,11.73-5.86,2.72-13.73,3.68-19.28-.14-4.11-7.47,10.59-7.37,12.44-1.82.21,2.28-8.55.47-4,2.69,6.43,2.16,6.92-5.88,1-6.92-4-2.26-11.95-1.87-12,4,2,7.17,11.63,6.49,17.51,5.34,4.72-.78,10.5-4,9.86-9.56-.24-1.65-.07-4.2-1.38-5.33Zm5.07,4.57c.09,2.7,4.67,7.37,1.19,10.7-2.06,2.93-8.41,5.77-10.46,3.65,3.28-.26,3.32-2.06,0-1.64-5.65,2.41,2.58,5.57,5.33,3.19,4.81-1.34,9.13-6,7.19-11.2C209.16,264.67,208.48,262.34,206.43,261.8Zm-46.35,20.59c-1.66,3.8,2,9.21,2.32,13.61,1.61,5.72,3,11.76,6.47,16.68,6.22,3.49,6.42-7.25,8.78-10.94,2.07-2.06.86-10.59-1-4.33-1.76,4.58-1.7,12.43-6.25,14.43-3.73-4.27-4.67-10.23-6.33-15.52C162.67,291.76,162.2,286.49,160.08,282.39Zm4.8,4.86c-1.38,3.63,1.87,9.45,3,13.6,2.18,7.24,6.89-.38,6.37-4.41-2.92-1.8-1.36,10.72-5.28,4.17-2.55-4-1.37-9.8-4.13-13.36Zm-6.21,11.62c-2.77,3.3-1.42,8.73-.54,12.74,1.47,4.57,3.55,9.21,7,12.63,4.38.47-2.58-4.64-2.92-6.66-3.17-5.5-4.71-12.28-2.84-18.42a.66.66,0,0,0-.7-.29Zm52.77,3.68c-2.77,3.31-1.42,8.73-.53,12.75,1.47,4.57,3.56,9.2,7,12.62,4.37.48-2.59-4.64-2.93-6.65-3.18-5.5-4.71-12.28-2.84-18.42a.66.66,0,0,0-.7-.29ZM188,308.26c-5.64,0-8,7.21-5.35,11.53,1.79,6.11,9.37.91,6.53-3.13-2.11.66-1.09,7.43-4.74,3.49-4.54-4.5,2.51-15.35,6.76-8.1a17.55,17.55,0,0,1-7.41,17.85c-2.84,2.39-8.74-1.76-9.94.87,4.94,2,11.37,1.66,14.69-3,3.55-4.8,6.48-11.76,3.52-17.49a5.53,5.53,0,0,0-4.06-2Zm-25.39,2.57c-.65,3.28,3.49,7.4,5.68,10.19,3.92,3.88,10.06-6.73,7-7.72-.3,3.82-4.86,10.44-7.7,4.51-1.79-2.2-2.68-5.32-5-7Zm32.24,15.11c-3.58.21-2.26,7.46-.35,1.82,1.87,2.18-2.76,7.59-5.81,8.9-3.58,3.32-9-2.24-11.08-1.17,2.62,3.24,7.93,3.77,11.71,2.35,3.79-2.17,7.63-6.06,7.4-10.72a1.88,1.88,0,0,0-1.86-1.18Zm20.2,1.59c-4.21,2.42-5.79,7.76-7.76,12-1.68,5-3.47,10.87-1.25,15.91,2.8-.22-1-6.51,1-8.94a32.91,32.91,0,0,1,8.75-18,.74.74,0,0,0-.7-1Zm4.15,2.58c-4.24,1.6-5.74,6.65-8.13,10.13,1.55,2.93,3.95-4.74,5.47-5.94,1.05-3.6,5.37-2.45,6-.36.46-2.08-1.4-3.59-3.34-3.84Zm.82,8.28c-4.37,1.31-4.95,7-6.64,10.67-1.4,4.24-2.42,8.59-3.49,12.9,2.82,2.47,2-5,3.33-6.79,1.6-5.09,2.57-10.81,6.17-14.91,2.77-.5,3.4,6.8,3.21,1.34.39-1.74-.87-3-2.57-3.27Zm-.48,9.56c-4.35,3.34-4.43,9.74-6.17,14.63-.83,5.24,3-1,2.37-3.32.41-2.69,1.73-11,5-8.81,0,2.62,2.2,8.52,1.9,3.16,0-2-.93-5.09-3.1-5.66Z"/><path class="q" d="M221.41,292.7v28.8c-26-12.71-53.22-25.09-69.9-40.52L157,259.26C173.52,272.38,192.8,284.4,221.41,292.7Z"/><path class="e" d="M222.17,360.91c-30.56-10.3-75.1-58.49-80.64-70.63l18.08,40.32c16.36,16.63,47,42.73,72.48,51.77Z"/><path class="e" d="M219.13,376.06l13,6.3.1-85-12.75-17Z"/><path class="x" d="M215.27,300.36c-1.24-13.3-25.26-5.71-30.76-5.26s-6.64,1.52-2.28,2c.49.05,2.56.2,3.37.19,6.3,0,19.91-3.05,23.25,1.95,1.62,2.41.57,3.72-.93,4.1-3.64.3-5.94,0-6.93-1.41-.79-1.16-.83-2.94-1.53-3.85-.4-.52-2.35-.13-2.94.83-5.69,5.08,19.25,16.68,18.76,1.42Z"/><path class="x" d="M190.82,288.13c-.93-10-19-4.3-23.2-4s-5,1.15-1.72,1.54c.37.05,1.93.14,2.54.14,4.75,0,15.07-2.3,17.54,1.47,1.22,1.83.43,2.81-.7,3.09-2.75.22-4.48,0-5.23-1.06-.6-.87-.62-2.22-1.15-2.9-.31-.38-1.77-.09-2.22.62C172.39,290.9,191.19,299.65,190.82,288.13Z"/><path class="n" d="M113.33,369.75c-5,.39-9.3,3.5-12.9,6.72-2.52,1.69-3.21,6.51.47,7.18,3.32.4,6.09-2.07,8.59-3.86-.7-2.91-4.35,2.08-6.39,2.12-4.41,1.72-3.58-4-.68-5.22,3.34-2.62,7.23-5.48,11.67-5.38,4.28.81,2,6,.34,8.29-3.43,5.07-8.29,9.79-14.48,11.06,1.54.3,3.13,1.26,4.55.08a27.8,27.8,0,0,0,13.25-14.42c1.39-3.22-.76-6.84-4.4-6.57Zm24.67,7c-8.43.12-17.33,2.7-23.38,8.8-1.67,2-4.49,5.91-3.61,8,2.24.09,1.88-4.79,4-6.14,5-5.82,13-8.39,20.45-9,3.41-.05,7.66-.44,10.09,2.41,2.12,1.73-.73,7,2.11,7,.9-3.45.38-8.5-3.52-10a16.63,16.63,0,0,0-6.17-1.09Zm-51.83,3.1c-1,1.6-2.64,6.9.31,7.39.13-1,.21-5.22.35-7.2l-.31-.17Zm46.22,5.88a18.13,18.13,0,0,0-14.56,7.64c-2.15,1-.44,2.71.73,1.52,2.85-4,7.12-7.16,12.17-7.49,3.05-.54,7.32-.26,7.79,3.49,3.15-.75-1.21-5.82-3.76-5.08a18.78,18.78,0,0,0-2.37-.09Zm21.25,3.2c-2,1.87-2.79,6.17-6.53,5.85-6.69.11-13.72-3-20.15.15-1.8.8-4.85,2.06-1.43,2.33,3.54-1.9,8.31-3.39,11.94-.77,5,3.63,10.56,6.92,16.86,7.58,5.47.6,11.34,1,16.52-1.2,3.44-1.39,3.21-5.9,1.14-8.35-3.45-4.71-10.54-5.73-15.67-3.39-3.51,1.59-4,7.18-.48,9a13.3,13.3,0,0,0,9.82-.45c3.09-.94-1.32-7.63-1.59-4,3.5,4-4.23,4-6.67,3.49-3.59-.77-3.12-6.3.33-7,4.9-1.58,11.65-.34,13.83,4.86,1.94,3.89-3,5.66-6,5.74-8.17.9-17-.19-23.81-5.11-1.48-1.07-4.68-2.76-1.09-1.85,3.82.59,8.87,1.66,11.51-2,.46-1.12,3.31-4.08,1.39-4.85Z"/><path class="d" d="M258.7,257.08l-.61,33.35L288,303l12.91-29.1Z"/><path class="e" d="M256,259.4v25.72l4.47,2-.11-28.81Z"/><path class="f" d="M367.43,308.91,256,246.53V207.09l41.57-28.22,88.69,95.18Z"/><path class="g" d="M256,200.78v6.31a36,36,0,0,0,36-35.94l-30.42,25Z"/><path class="h" d="M256,192.51v8.27a29.66,29.66,0,0,0,29.69-29.64Z"/><path class="i" d="M303.21,168.28H256v24.24h47.21Z"/><path class="j" d="M282.45,260.79l2.1,1.06-20.27,39.89-2.11-1.07Z"/><path class="e" d="M256,246.53V259.4L298.79,278l4.86-12.59Z"/><path class="k" d="M355.28,351.66l38,17.28-60.8,23.64Z"/><path class="l" d="M512,422.89c-14.19,6.83-145.32,21.15-205.89,38.2L278,454.87v-15l218-21Z"/><path class="e" d="M459.24,404.51,512,422.89c-62.91-.63-116.36,12.89-174.53,19.34V429.36Z"/><path class="m" d="M441.41,393.57,476,412.22,347.56,432.37l-4.51-10.93Z"/><path class="n" d="M441.32,396.26c4.9.45,8.91,4.24,11.76,8,3.55,4.85-4.13,6.71-7,3.31-3.06-2.31-9.4-6.17-6.66-10.61a3,3,0,0,1,1.87-.68Zm-9.56,0c3.43,6.61,8.3,12.69,15.06,16,1.8,1.51,9.83,3.62,4.1,3.82-7.24-3.24-14.1-7.95-18.09-15-.26-1.49-4.5-4.82-1.12-4.87Zm9.72,1.49c-3.65,2.34,3.28,6.89,5.49,8.47,1.9,2.16,7.9,2.18,4.53-1.7-2.54-3-5.94-6.31-10-6.76Zm-19.78,1.48,22.56,17.93c-3.62,1.18-5.65-3.58-8.59-5l-14.72-12A.76.76,0,0,1,421.7,399.27Zm43.78,7.26c3,.73,3.24,4.77,3.77,6.75C466.5,414.4,466.87,407.91,465.48,406.53Zm-71.43.46c1.17,4,4.55,7.36,8.89,7.5,6.95,1,14.45-1,21,2.14,2.1.57,4.88,4.64,1.44,3-3.2-3.14-8.64-4-12.76-2.61-5.08,2.63-9.63,6.72-15.57,7.32-7,.78-14.77.29-20.77-3.75-1.65-1.46-6.37-6.77-3-7.72a11.67,11.67,0,0,0,9.07,8.91c8.29,2.28,17.92,2.11,25-3.39,1.48-1.15,5.18-2.59,1.14-2.1-5.21.08-11.62-.44-14.34-5.66-.49-1.39-2.72-3.65,0-3.66Zm21,.23c8.18,0,15.41,4.68,20.7,10.55.66,2.53-3.86-1.07-4.73-2.44-5.18-4.8-12.74-7.68-19.76-6.09-.83.78,0,5.52-1.93,2.44-1.63-3.77,3-4.69,5.71-4.45Zm-24.78.83c2,2.42,5.63,6.7,2.05,9.39-3.79,2.73-10,1.85-11.78-2.86-1.66-1.22-1.22-5.4.38-3,.78,3.93,4.67,7.15,8.7,5.46,5.68-1.24.32-6.49-.51-8.69l1.17-.33ZM367,414.76c1.14,2.72,3.09,4.63,6.5,3.85-.16,3.27-7.64,1.43-7.08-2.36C366.14,415.69,366.2,414.8,367,414.76Zm-6.39,1.7a47.25,47.25,0,0,0,19.72,9.59c4.59.58-.72,1.8-2.25.94-7-1.67-13.25-6.07-20.65-6.09-1.83-.59-9.52.92-7.64-1.38,3.56-.67,7.33-.11,10.93.18,5.74,1.53-3.09-2.14-1.2-2.93l1.1-.31Z"/><path class="l" d="M435.51,388.75l24.26.75c-37.48,15.71-78.12,23.34-117.47,33.43l-2.68-8.78Z"/><path class="e" d="M415.85,376.53l43.92,13L335.23,418l-3.94-9.85Z"/><path class="m" d="M396.13,361.2l38.57,23.64L330.22,411.66,319.9,393.78Z"/><path class="f" d="M279.27,362.92l32.22,59.16L352.94,328Z"/><path class="d" d="M292.37,368.5c0,1.06,22.55,58.29,22.55,58.29H258l.65-45.87Z"/><path class="o" d="M279.5,422.89h38.73v18H279.66Z"/><path class="p" d="M256,423.15V405.36h20.31l7.57,39.29H266.11Z"/><path class="q" d="M312.77,171.73l27.49,29.58A362.26,362.26,0,0,0,353.79,140L343.1,125.43c-5,19-15.82,33.91-30.28,46.3Z"/><path class="r" d="M323.53,173c1.5-1.91-1.71-2.77-2.75-1.26a7.65,7.65,0,0,0-1.95,10.16c1.81,3.1,6.13,4.91,9.41,3,2.43-1.32,3.07-4.33,2.81-6.87-.26-3.08-1.13-6.32.21-9.28,1-2.34,3.63-4.37,6.22-3.54,2.37.91,2.92,3.77,2.69,6-.32,1.32.16,3.5-1.47,4-1.82,0,.11-3.05-2-2.83-1.4.31-2.12,1.82-2.45,3.09a4.85,4.85,0,0,0,3.94,5.82c2.76.35,5.13-1.83,6.12-4.22a23.12,23.12,0,0,0,1.65-9.48c-.15-3.88-2.06-7.88-5.7-9.53a7.77,7.77,0,0,0-8.62,1.62c-4,3.86-5,10-3.49,15.27.63,2.23,1.3,5-.38,6.94s-4.66,1.46-6.26-.26c-2.07-1.83-2.53-5.41-.42-7.39a4.65,4.65,0,0,1,2.39-1.25Z"/><path class="r" d="M344.66,137.61c-9.42,3.15.15,19.21,1.4,23.1s2.24,4.53,1.86,1.31a19.61,19.61,0,0,0-.48-2.47c-1.09-4.54-5.59-13.85-2.53-17.12,1.48-1.57,2.6-1,3.13,0,.83,2.58,1,4.29.16,5.25-.71.77-2,1.09-2.53,1.75-.31.38.3,1.72,1.09,2,4.65,3.25,8.83-16.72-2.14-13.77Z"/><path class="q" d="M256,49.55c11.68-.12,19.83,3.56,24.35,11.15l-14.18,65.59-10.16-12Z"/><path class="r" d="M244.64,57.57c-1.25,0-2.51,0-3.76.09-2.17.08-4.57,1.26-5,3.57a.92.92,0,0,0,1.75.36c.75-2.42,3.73-2.14,5.75-2.22,4.21,0,8.41.56,12.6.8l12.6-.8c2,.08,5-.19,5.75,2.22a.92.92,0,0,0,1.75-.36c-.41-2.31-2.82-3.49-5-3.57l-3.76-.09c-3.75.06-7.51.52-11.25.83h-.2Zm.12,4.84a2.21,2.21,0,0,0-1.53.41c-1.6,1.31-3.4,3.49-2.32,5.46a7.54,7.54,0,0,0,4.92,3.88c2.28.6,2.65,6.17,2.65,6.17a10.47,10.47,0,0,0-3.39-1,10.69,10.69,0,0,0-7,2.73c-2.48,2.34.5,6.31,3.09,7.23s4-1.38,4.8-3.37.14-3.14.24-3.85,3.21.34,3.64,3.77l.82,6.92c.36,1.57,1.91,1.61,1.72-.49s-1.64-10-1.64-10,2.17,2,3.2,2.15a4.7,4.7,0,0,0,2,.05,5.1,5.1,0,0,0,2-.05c1-.19,3.19-2.15,3.19-2.15l-1.64,10c-.19,2.06,1.36,2,1.72.49s.4-3.5.82-6.92,3.55-4.49,3.64-3.77-.52,1.87.24,3.85,2.21,4.29,4.8,3.37,5.56-4.89,3.09-7.23a10.73,10.73,0,0,0-6.95-2.73,10.47,10.47,0,0,0-3.39,1s.37-5.58,2.65-6.17a7.34,7.34,0,0,0,4.92-3.88c1-2-.73-4.15-2.32-5.46a2.28,2.28,0,0,0-1.53-.41c-1.79.07-4.15,1.39-5.22,2a9.54,9.54,0,0,1-3.46,1.14A14.58,14.58,0,0,1,256,65.2a16.77,16.77,0,0,1-2.55.32A10.87,10.87,0,0,1,250,64.38c-1.06-.58-3.43-1.9-5.22-2Zm.88,2.13a3.57,3.57,0,0,1,.8.09c2.13.44,4.72,4.09,5.6,5.66s-.84,2.68.68,2.75,1.12-4.77,2-5.92a1.61,1.61,0,0,1,2.58,0c.87,1.15.47,6,2,5.92s-.2-1.19.68-2.75,3.48-5.22,5.6-5.66,4.2.9,3.76,2.74-4.14,2-5.67,3.61-1,4-1.94,5.71-3.25,4-4.69,4c-.44,0-.79,0-1.07,0s-.62,0-1.07,0c-1.44,0-3.76-2.25-4.68-4s-.37-4.15-1.95-5.71-5.21-1.76-5.66-3.61c-.39-1.61,1.15-2.84,2.91-2.83Zm-2.35,15c1.67.16,1.31,3.44.59,4.85-1.11,2.51-3.57,1-4.49-.8-.85-2.36,1.47-3.69,3.54-4a1.47,1.47,0,0,1,.36,0Zm25.41,0h0a1.1,1.1,0,0,1,.36,0c2.07.3,4.39,1.64,3.55,4-.93,1.85-3.39,3.32-4.49.8-.72-1.35-1.08-4.64.58-4.85Zm-21.77,8.66c-.49,0-2,.81-.22,1.77s-3.49.73-2.11,3.14c1.91,2.59,4.65-1,4.63-2.91a2,2,0,0,0-2.3-2Zm18.15,0a2,2,0,0,0-2.3,2c0,1.92,2.72,5.5,4.63,2.91,1.38-2.43-3.86-2.18-2.11-3.14s.26-1.77-.22-1.78Zm-9.33,6.67c-2.5.53-5.66.55-7.51,2.42-1.38,1.41-2.58,3.87-1.73,5.65.7,1.49,2.91,3.26,4.58,1.88a4.09,4.09,0,0,0,1.46-3.75c.56.62.6,11.64.22,16.43a.74.74,0,0,0,.24.36l1.52-1.79-.26-15.49a3.19,3.19,0,0,0-2.38-3c1.35-.41,2.77-.62,4.12-1l4.12,1a3.19,3.19,0,0,0-2.38,3c-.53,5.14-.27,10.33-.26,15.49l1.52,1.79a.72.72,0,0,0,.24-.36c-.38-4.8-.34-15.81.22-16.43a4.08,4.08,0,0,0,1.46,3.75c1.67,1.38,3.88-.39,4.58-1.88.85-1.78-.35-4.24-1.73-5.65-1.85-1.86-5-1.88-7.51-2.42h0a1.11,1.11,0,0,0-.26,0,1,1,0,0,0-.25,0Zm-6.32,4.63c2.2.36,1.39,5.31-.73,3.52C247.46,102,248,99.67,249.43,99.47Zm13.14,0c1.42.2,2,2.55.73,3.52C261.18,104.78,260.37,99.83,262.57,99.47Z"/><path class="s" d="M258.65,285.12h6.55c4.26,6.1,10.08,9.52,16.33,12.22v11.78l-21.13-3.71Z"/><path class="t" d="M256,387.57v8.36l1.94,1.8,26-25.16V356.05Z"/><path class="u" d="M256,387.57l25.32-26,.19-52.47c-10.88-6.17-18.46-14.2-22.87-24H256Z"/><path class="y" d="M256,114.28,119.36,246.47l-7.9,42.74L256,124.57,400.54,289.21l-7.9-42.74Z"/><path class="v" d="M270.85,408.8l-13.37,22.43,3.65,4.24,18.53-17.58Z"/><path class="z" d="M256,423.15V433l12.53,19.18,7.63-8c-10.24-5.18-14.77-13.32-20.15-21Z"/><path class="p" d="M256,433a71,71,0,0,0,15.15,16.78l-9.65,4.87L256,453.15Z"/><path class="e" d="M256,395.92a32.58,32.58,0,1,1,0,65.16v-7.93a23.9,23.9,0,1,0,0-47.79Z"/><path class="m" d="M340.05,228.74l-28.78,11.15-18.71,40.53-2.77,6.79-.65,84.24,79.47-58.3-8.12-32.22-8.76-7.48L355,259.22l-5.75-22.81Z"/><path class="n" d="M338.46,232.18c1.48,2.91-6.5,4.1-8.43,6.46-3.48,1.42-8.79,6.65-1.76,7,7.78,1.24,15.66.65,23.49.65.76,3.55-7,.65-9.53,1.69-6-.07-12.22.15-17.93-1.93-5-5.09,5.36-8.05,8.31-11.29a11.55,11.55,0,0,1,5.84-2.59Zm.17,4.46c2.5,2.36-10,4.09-2.67,6.17,4.08,1.88,11.69-2.19,13.82,1.28-4.94.39-10.43.61-15.44-.54C328.15,242.06,336.22,237.29,338.63,236.64ZM321.44,239c1.39,2.13-9.91,6.74-2.67,9.33,2.28,1.64,8.36,1.15,8.64,3.9-4.1-.51-8.89-1.62-12.2-4.39-1.48-3.67,3.34-7.46,6.24-8.84Zm-11,11c9.41,4.69,20.71,6.48,30.83,3,3.92-3.1,2.81,1.86-.67,1.84-9.21,2.14-18.95.81-28-1.82-1-.15-4.84-2.4-2.18-3Zm.21,7.3c1.64,3-1.82,10.25,4.25,11.73,5.85,2.72,13.73,3.68,19.28-.14,4.11-7.47-10.6-7.37-12.45-1.82-.2,2.28,8.56.47,4,2.69-6.44,2.16-6.93-5.88-1-6.92,4-2.26,12-1.87,12,4-2.05,7.17-11.64,6.49-17.51,5.34-4.73-.78-10.51-4-9.87-9.56.25-1.65.08-4.2,1.38-5.33Zm-5.08,4.57c-.08,2.7-4.66,7.37-1.18,10.7,2.05,2.93,8.4,5.77,10.46,3.65-3.28-.26-3.32-2.06,0-1.64,5.66,2.41-2.57,5.57-5.32,3.19-4.81-1.34-9.14-6-7.19-11.2C302.83,264.67,303.51,262.34,305.56,261.8Zm46.35,20.59c1.66,3.8-2,9.21-2.31,13.61-1.62,5.72-3,11.76-6.48,16.68-6.22,3.49-6.41-7.25-8.77-10.94-2.08-2.06-.87-10.59,1-4.33,1.76,4.58,1.7,12.43,6.25,14.43,3.73-4.27,4.66-10.23,6.32-15.52C349.33,291.76,349.8,286.49,351.91,282.39Zm-4.79,4.86c1.37,3.63-1.88,9.45-3,13.6-2.19,7.24-6.89-.38-6.38-4.41,2.93-1.8,1.36,10.72,5.29,4.17,2.54-4,1.37-9.8,4.13-13.36Zm6.21,11.62c2.77,3.3,1.42,8.73.53,12.74-1.47,4.57-3.55,9.21-7,12.63-4.37.47,2.59-4.64,2.93-6.66,3.17-5.5,4.7-12.28,2.83-18.42a.67.67,0,0,1,.7-.29Zm-52.78,3.68c2.77,3.31,1.42,8.73.54,12.75-1.48,4.57-3.56,9.2-7,12.62-4.37.48,2.58-4.64,2.93-6.65,3.17-5.5,4.7-12.28,2.83-18.42a.68.68,0,0,1,.71-.29ZM324,308.26c5.63,0,8,7.21,5.34,11.53-1.78,6.11-9.37.91-6.52-3.13,2.11.66,1.08,7.43,4.74,3.49,4.53-4.5-2.51-15.35-6.77-8.1a17.57,17.57,0,0,0,7.41,17.85c2.84,2.39,8.74-1.76,9.95.87-4.95,2-11.38,1.66-14.7-3-3.55-4.8-6.48-11.76-3.51-17.49a5.51,5.51,0,0,1,4.06-2Zm25.38,2.57c.65,3.28-3.48,7.4-5.67,10.19-3.93,3.88-10.06-6.73-7-7.72.31,3.82,4.86,10.44,7.71,4.51,1.79-2.2,2.67-5.32,5-7Zm-32.24,15.11c3.58.21,2.26,7.46.36,1.82-1.88,2.18,2.75,7.59,5.81,8.9,3.57,3.32,9-2.24,11.08-1.17-2.63,3.24-7.94,3.77-11.72,2.35-3.79-2.17-7.63-6.06-7.39-10.72a1.87,1.87,0,0,1,1.86-1.18Zm-20.2,1.59c4.21,2.42,5.8,7.76,7.77,12,1.68,5,3.46,10.87,1.24,15.91-2.79-.22,1-6.51-1-8.94a32.84,32.84,0,0,0-8.75-18,.74.74,0,0,1,.7-1Zm-4.14,2.58c4.23,1.6,5.73,6.65,8.13,10.13-1.56,2.93-4-4.74-5.47-5.94-1.05-3.6-5.38-2.45-6-.36-.46-2.08,1.39-3.59,3.34-3.84Zm-.83,8.28c4.37,1.31,5,7,6.65,10.67,1.39,4.24,2.42,8.59,3.48,12.9-2.82,2.47-2-5-3.32-6.79-1.6-5.09-2.58-10.81-6.17-14.91-2.77-.5-3.4,6.8-3.22,1.34-.39-1.74.88-3,2.58-3.27Zm.49,9.56c4.35,3.34,4.43,9.74,6.17,14.63.82,5.24-3-1-2.37-3.32-.41-2.69-1.73-11-5-8.81,0,2.62-2.19,8.52-1.89,3.16.05-2,.93-5.09,3.1-5.66Z"/><path class="q" d="M290.59,292.7v28.8c26-12.71,53.22-25.09,69.9-40.52L355,259.26C338.48,272.38,319.19,284.4,290.59,292.7Z"/><path class="e" d="M289.83,360.91c30.56-10.3,75.1-58.49,80.64-70.63L352.39,330.6c-16.36,16.63-47,42.73-72.48,51.77Z"/><path class="e" d="M292.86,376.06l-12.95,6.3-.1-85,12.75-17Z"/><path class="y" d="M256,124.57V114.29L392.64,246.48l7.9,42.74Z"/><path class="k" d="M256,134v12.11L375.06,277,310.42,410.5l10.52,2.79L392.67,283.4Z"/><path class="i" d="M256,124.57V134L388.58,284.37,322,405.37l4,.86,74.56-117-11.42-35.5Z"/><path class="x" d="M296.72,300.36c1.25-13.3,25.26-5.71,30.77-5.26s6.63,1.52,2.28,2c-.5.05-2.56.2-3.37.19-6.31,0-19.91-3.05-23.25,1.95-1.62,2.41-.57,3.72.92,4.1,3.65.3,5.95,0,6.94-1.41.79-1.16.82-2.94,1.53-3.85.4-.52,2.35-.13,2.93.83,5.7,5.08-19.24,16.68-18.75,1.42Z"/><path class="x" d="M321.17,288.13c.94-10,19.05-4.3,23.2-4s5,1.15,1.73,1.54c-.38.05-1.93.14-2.54.14-4.76,0-15.07-2.3-17.55,1.47-1.21,1.83-.42,2.81.7,3.09,2.75.22,4.49,0,5.24-1.06.59-.87.62-2.22,1.15-2.9.3-.38,1.77-.09,2.21.62C339.61,290.9,320.8,299.65,321.17,288.13Z"/><path class="n" d="M398.66,369.75c5,.39,9.31,3.5,12.9,6.72,2.52,1.69,3.21,6.51-.47,7.18-3.31.4-6.08-2.07-8.59-3.86.71-2.91,4.36,2.08,6.4,2.12,4.41,1.72,3.58-4,.68-5.22-3.34-2.62-7.23-5.48-11.68-5.38-4.27.81-2,6-.34,8.29,3.44,5.07,8.3,9.79,14.48,11.06-1.53.3-3.12,1.26-4.55.08a27.78,27.78,0,0,1-13.24-14.42c-1.4-3.22.75-6.84,4.4-6.57Zm-24.66,7c8.43.12,17.33,2.7,23.37,8.8,1.68,2,4.5,5.91,3.61,8-2.23.09-1.88-4.79-4-6.14-5-5.82-13-8.39-20.46-9-3.4-.05-7.65-.44-10.09,2.41-2.12,1.73.73,7-2.11,7-.9-3.45-.37-8.5,3.52-10a16.66,16.66,0,0,1,6.17-1.09Zm51.83,3.1c1,1.6,2.63,6.9-.31,7.39-.13-1-.22-5.22-.36-7.2l.32-.17ZM379.6,385.7a18.14,18.14,0,0,1,14.57,7.64c2.15,1,.43,2.71-.73,1.52-2.86-4-7.13-7.16-12.17-7.49-3-.54-7.32-.26-7.8,3.49-3.15-.75,1.22-5.82,3.77-5.08a18.55,18.55,0,0,1,2.36-.09Zm-21.25,3.2c2,1.87,2.8,6.17,6.53,5.85,6.69.11,13.72-3,20.15.15,1.8.8,4.85,2.06,1.44,2.33-3.55-1.9-8.31-3.39-12-.77-5,3.63-10.56,6.92-16.86,7.58-5.47.6-11.33,1-16.51-1.2-3.44-1.39-3.22-5.9-1.15-8.35,3.45-4.71,10.55-5.73,15.67-3.39,3.51,1.59,4,7.18.49,9a13.33,13.33,0,0,1-9.83-.45c-3.08-.94,1.32-7.63,1.6-4-3.5,4,4.22,4,6.67,3.49,3.59-.77,3.12-6.3-.33-7-4.91-1.58-11.65-.34-13.83,4.86-1.95,3.89,3,5.66,6,5.74,8.18.9,17-.19,23.82-5.11,1.47-1.07,4.68-2.76,1.08-1.85-3.81.59-8.86,1.66-11.5-2-.47-1.12-3.32-4.08-1.39-4.85Z"/><path class="k" d="M256,134l-8.78,4.1L117,275l.65,16.7,73.44,121.55,10.53-2.78L137,277,256,146.12,375.06,277,310.42,410.51,321,413.29l71.72-129.88Z"/><path class="i" d="M256,124.56,122.88,253.71l-11.42,35.5,74.56,117,4-.86-66.57-121L256,134,388.58,284.36,322,405.36l4,.86,74.56-117-11.42-35.5Z"/><path class="aa" d="M199.27,404.34a16.09,16.09,0,0,1-2.41,27.48,16.1,16.1,0,0,1,7.62,21.47,16.57,16.57,0,0,1-1.51,2.53,16.14,16.14,0,0,1-29.15-8.39,16.09,16.09,0,1,1,0-32.17,16.14,16.14,0,0,1,25.48-10.92Z"/><ellipse class="ab" cx="190.27" cy="416.69" rx="8.35" ry="8.33" transform="translate(-0.69 0.32) rotate(-0.1)"/><ellipse class="ab" cx="190.41" cy="445.68" rx="8.35" ry="8.33" transform="translate(-0.66 0.28) rotate(-0.08)"/><ellipse class="ab" cx="174.32" cy="430.68" rx="8.35" ry="8.33" transform="translate(-0.64 0.26) rotate(-0.08)"/><path class="aa" d="M312.72,404.34a16.08,16.08,0,0,0,2.42,27.48,16.1,16.1,0,0,0-7.62,21.47,16.57,16.57,0,0,0,1.51,2.53,16.13,16.13,0,0,0,29.14-8.39,16.09,16.09,0,1,0,0-32.17,16.15,16.15,0,0,0-25.49-10.92Z"/><ellipse class="ab" cx="321.73" cy="416.69" rx="8.33" ry="8.35" transform="translate(-95.5 737.73) rotate(-89.9)"/><ellipse class="ab" cx="321.59" cy="445.68" rx="8.33" ry="8.35" transform="matrix(0, -1, 1, 0, -124.56, 766.61)"/><ellipse class="ab" cx="337.68" cy="430.68" rx="8.33" ry="8.35" transform="translate(-93.49 767.72) rotate(-89.92)"/></svg>