<svg xmlns="http://www.w3.org/2000/svg" viewBox="0 0 512 512"><defs><style>.a{fill:#745922;}.b{fill:#d2a93e;}.c{fill:#7c5f24;}.d{fill:#ab8431;}.e{fill:#644d1e;}.f{fill:#956629;}.g{fill:#b99037;}.h{fill:#845623;}.i{fill:#6f481d;}.j{fill:#744d22;}.k{fill:#5e3f1c;}.l{fill:#211c0a;}.m{fill:#806226;}</style></defs><title>armour_god_fire_platelegs</title><path class="a" d="M108.81,364.48C86.94,411.6,76.33,451.94,81,483.15L68.2,512H47L21,311.76l18.23-34.47Z"/><path class="b" d="M44.84,284.59,30.25,312.44,47,512,13.66,313.09l21.55-41.44Z"/><path class="c" d="M256,221.27l-75.73,60.58,41.26,60.95.93,33.75L256,384.7l33.54-8.15.94-33.75,41.26-60.95Z"/><path class="d" d="M214.47,287.41c-6.36-.07-12.3,4.84-12.91,11.18a13.45,13.45,0,0,0,7.85,13.82c7.11,3.27,15.5,1,21.74-3.09a31.66,31.66,0,0,0,13.76-20.18c-1.38-2.86-3,.92-3,2.54-3.53,11-14.11,20.05-25.94,20-5.82-.12-11.69-4.43-12.13-10.5a10.72,10.72,0,0,1,10-11.4l.56,0c5-.2,10.57,3.52,10.5,8.91-.11,3.26-3.45,6.28-6.72,5.32-1.39-.52-5.23-3.68-4.52-.09,3.2,4,10.36,3.09,12.56-1.54,2.73-5-.48-11.37-5.41-13.5a13.28,13.28,0,0,0-6.28-1.41Zm36.21,3.27c-2.33,1.46-1.18,5.33-2.09,7.78-1.29,7.89-2.79,15.82-5.64,23.32-1.9,4.5-6.14,8.82-11.39,8.33-3-.26-6.09-3.09-5.2-6.33.37-3.33,4.66-2.49,6-4.23-.7-2.67-4.72-1-6.18.36a6.84,6.84,0,0,0,.12,10.32c3.87,3.43,10,2.7,13.73-.58,5.68-4.73,7-12.37,8.63-19.17a151.46,151.46,0,0,0,3.16-18.82,1.18,1.18,0,0,0-1.17-1Zm-.91,21.22c-2.59,1.45.26,5.53-.72,8.09-.6,10.44-7.62,20.29-17.55,23.77-1.55,1.11-7.21.62-5.18,3.52,3.14.15,6.27-1.36,9.12-2.69a29.52,29.52,0,0,0,15.81-23.09,25.31,25.31,0,0,0-.48-9.05l-.42-.4Z"/><path class="e" d="M256,194.75l-92.85,71.64,38,87.44c1.63,1.41,29.06,16.63,29.06,16.63L228.55,340l-35.63-57.18c28.51-15.27,46.94-37.58,63.07-61.52,16.12,23.94,34.56,46.26,63.07,61.52L283.43,340l-1.64,30.47,29.06-16.63c1.64-1.41,38-87.44,38-87.44Z"/><path class="f" d="M205.35,350.22v22.36L256,392.67l50.64-20.09V350.22L256,384.7Z"/><path class="c" d="M163.55,262.45,210,336.71l-2.73,112.64L58.09,309.78,26.44,240.16,46,211.82Z"/><path class="g" d="M50.65,231.45c-3.95,6.1-3.54,14.4-4,21.59-.44,9.2,4.27,20.59,14.69,21.43,13.95,1.34,22.89-19.24,11.87-28.18-8.7-6.71-20.29,6.2-13.36,14.29,2.33,4.69,8.82,2.37,2.43-.91-7.3-7.45,5.75-18.48,11.54-9.5,6,9.26-2.63,24.46-14.16,21.26-10-2.07-10.87-13.69-10.65-22-.64-5.91,3.63-13.73,1.69-18.2Zm-8.2,3.87c-4.77,6.82-5,16.42-4.33,24.62,1.25,13.06,10.27,28,24.69,28.38,9.11,3.58,16.42-15.87,5-11.42-.86,3.53,6.56-.5,3.22,4.52-4.51,7.93-15.58,4.16-20.91-.78C39,269,37.8,250.66,43.82,236.27l-.46-.72Zm57.1,10.31c-3.21-1.38-15.11,4.11-8.35,4.5,10.51-7.29,27,4.11,23,16.52-3.75,11.7-23-4.91-10.59-7.53,8.18-2.11-7.6-4.77-6.37,2.53-1.81,11.75,19.86,16.18,19.89,2.81,1-9.77-7.89-18.81-17.52-18.81Zm19.92,5.12c-1.45,6.28,9.8,18,.77,23.73-8.73-.05-.21,5.69,3.18,1,5.77-6.67.77-19.09-4-24.69Zm10.59.19c-.72,5,11.55,5.84,15.15,10.71,16.55,12.07,27.7,31.47,29.23,52,5.22-1-.57-13-1.3-17.82-6.88-20.27-22.89-37.45-43.08-44.85Zm-.18,4.29c-1.54,5.76,7.48,13.38,6.05,20.91,1.29,8.89-9.09,5.71-12.88,7,8.15,8.33,19.88-4.67,14.34-13.8-1-3.64-7.75-14.25-.45-7.6,13.76,10.05,25.29,24.84,28,41.95.07,11.76-18.72,14.9-20,2.54-6.06,7.27,12.77,15.95,18,6.93,8.15-9.09,1.76-21.88-3.63-30.67-6.71-10.93-16-20.5-27.28-26.55-1.09,1.47-1.09-.91-2.09-.67Zm-43.16,10c-6.29-2.54-9.09,13.09-4.29,5.46,8.91-8.89,7.09,10.63.75,13.24-7.76,8.3-20.45,10.55-31.09,7.43,1.07,6.13,15.67,3.8,21.47,1.59,10-3.55,19.19-13.65,17.3-24.75a4.2,4.2,0,0,0-4.14-3.06ZM106,285.68c-10.95-.79-20.3,13.87-11.55,22.18,6.27,8.89,23.71-5.29,15.45-9.49,2.11,10.38-15.76,13.48-16.49,2.48-1.63-12.64,18.48-17.75,23.37-6,4.54,9.48-4,20-13.82,20.12-10.52.89-20.6-3.45-30.4-6.51-3.15-3.84-9.49.13-2.68,1.44,13.07,4.29,27.66,11.05,41.31,5.27,9.6-4.54,12.93-19.79,3.49-26.33a15.86,15.86,0,0,0-8.73-3.17Zm79.6,43.09c-11-.42-20.66,11-17.72,21.82,4.4,6.55.27-7.43,3.06-9.79,1.95-7.8,12.25-8.39,16.36-11l-.65-.68Zm2.3,4.82c-10.73.18-14.11,15.14-6.59,21.68,6.59,8.09,18.64,13.09,19.55,24.73,2.06,16.75-15.77,31.58-31.91,27.75-2.55,5.11,11.64,2.73,15.24,1.06,14.33-4.95,24.18-23,16.54-37.07-5.09-9.37-16.94-13.28-20.68-23.46-4.11-10,10.88-17.27,16.48-8.09,5.82,4.77,0,12.66,1,16.64,8.34-5.95,2.94-22.7-7.76-23.09Zm-61.69,8.18c-4.13-.45-18.92,7.11-7.94,5.46C118.89,344.5,130.68,345,126.17,341.77Zm46.23,14c-11.33-.05-22.84,6.47-27.51,17,4.48.84,7.67-10.27,14.13-11.37,6.18-3.67,13.93-3.3,20.45-3.12.68-3.26-5.27-2-7.09-2.5Zm8,5.4c-10.27.91-20.54,5.93-26.66,14.36-4.36,4.73,5.22,15.14,6.94,8.95-12.31-4.39,1.76-16.61,9.11-18.42,1.62-2.28,19.13-1.82,10.61-4.88Zm-.43,6.21c-9.07-.24-15,13.47-6.18,18.27,4,3.83,14.86-3.64,9.69-6.09-5.12,12.72-18.8-5.68-6.71-9.09,11.2-4.46,21.3,11.21,14,20.18-7.41,10.36-22.39,9.59-33,5.31-3.07.18-11.93-9.52-10.73-3.34,12.23,9,31.21,13,43.58,2.14,9.87-9,3.46-28.26-10.65-27.4Z"/><path class="b" d="M208.11,360.58v16.67l47.91,33,47.91-33V360.58L256,392.65Z"/><path class="b" d="M206.56,331.25l7.82,9.19-1.33,128C127,402.6,54.15,334.35,18.3,251.09l8.12-10.94c39.13,70.21,105.93,131.28,177.84,194.26Z"/><path class="h" d="M256,0l10.94,57.27L256,19.15,245.06,57.27Zm0,0L125.39,32,91.57,50.56C85.25,67.11,80.35,83.91,69,99.63c1.06,31.38-10.35,62.76-33.16,94.14L90.72,237.1,185.9,262l61.88-60.48L256,161.62l8.22,39.85L326.1,262l95.18-24.85,54.85-43.33C453.33,162.39,441.91,131,443,99.63c-11.32-15.73-16.23-32.51-22.54-49.07L386.62,32Z"/><path class="i" d="M227.15,62.22c-2.73,60.61-10.64,120.12-24.61,177l5.39-.7c15.76-52.91,19.49-114.09,19.22-176.36ZM206.82,75.84c-9.09,60-23.2,118.33-43.07,173.41l5.44-.13c21.24-51,31.36-111.42,37.64-173.27Zm-35.95,30.4c-10.6,53.18-30.21,98.65-52.45,143.21l6.45.07c21.43-42.05,39.07-87.23,46-143.29Zm-43.18,1.32c-4.27,53.84-24.42,85.73-43.09,119.68l4.82,4.31c19.68-38.7,40.21-77.51,38.29-124Zm-47.34,3c-12,55.57-25.61,68-41.95,96.58l5.86,4C60.08,180.32,79.38,152,80.35,110.55Zm16,1.35c-12,55.56-25.62,68-42,96.57l5.87,4c15.81-30.8,35.11-59.09,36.09-100.56Z"/><path class="b" d="M256,161.61c-8.84,34.6-34.56,59.21-64.68,81.22-8.48,6.45-8.16,5.47-18.55,5.36-57.42.06-96-28.91-136.88-54.44l-16.24,7.3c44,30.9,90.3,59.32,155.07,68,9.91,1,11.06,1.23,20.15-3.91,47.35-30.18,49.93-49.18,61.13-70.34,11.2,21.16,13.78,40.16,61.13,70.34,9.09,5.15,10.23,4.94,20.15,3.91,64.77-8.64,111.09-37,155.07-68l-16.24-7.3c-40.85,25.53-79.46,54.49-136.88,54.44-10.4.09-10.08,1.07-18.55-5.36-30.11-22-55.84-46.62-64.67-81.22Z"/><path class="j" d="M256,0C225.22,135.45,167.56,150.73,68.45,109.82a111.56,111.56,0,0,1-2.58,19.45C130.71,149.09,228.55,194.82,256,19.07c27.44,175.76,125.27,130,190.12,110.2a112.66,112.66,0,0,1-2.58-19.45C344.42,150.75,286.76,135.47,256,0Z"/><path class="k" d="M227.09,81,226,82.85l-2.48,30.79,2.93-4.35L227.08,81Zm-24.34,30-2.25,1.82L195,139.87l3.87-2.29ZM79.57,114.11l-4.51,17.94L78,133a132.08,132.08,0,0,0,2.27-18.61l-.67-.25Zm15.06,5.36-4.58,17.37,3.14,1a134,134,0,0,0,2.73-17.94l-1.3-.43Zm30.65,7.94-3.84,18.14,2.84.6a160.79,160.79,0,0,0,2.87-18.41l-1.88-.33Zm42.29.5-1.71.33-5.93,21.18,3.18-.22,4.47-21.27Z"/><path class="l" d="M228.08,104.91l-33.4,17.85C162.15,176.64,120.84,194.51,54.59,135L41.41,175.87c19,11.94,37.8,16.55,56.61,26.75,16.54,9,33,16.15,49.09,19.75,7.51,1.67,11.07.23,17.18-7.27a509.31,509.31,0,0,0,63.82-110.18Z"/><path class="m" d="M99.85,203.58c7.82-2.93,17.31-5.8,21.13-14,2.55-5.49.31-14.3-6.42-15.16-7.51,1-8.6,12-2.91,16,2.41,5.51-4.51,2.52-5-1-3.55-6.59-1-17.27,7.18-18.71,7.27-.44,11.38,7.85,11.07,14.18.06,8.91-7.22,15.57-14.93,18.73-3.63,2-6.49,3-10,0Zm11.75,5.94c8.45-2.12,18.47-3.64,23.64-11.69,5.84-9.73,8.29-21.41,16.1-30,4.39-2.52,9.91-9.13,15.24-5.07,6.12,6.37,4.89,17.09.07,23.91-2.1,4.26-9.46,9.17-11.82,2.38-2.82-6.36,4.91-6.67,8.83-7.05,4.55-4.09,1-13.09-5-13.22-5.29,2.09-6.68,8.46-8.95,13.14-4.06,9.54-7.07,20.76-16.58,26.42-4.06,1.94-8.54,6.74-13.13,5l-8.44-3.84ZM71.53,161.88c8.2-.47,18.52,2.47,21.47,11,2.15,5.47-2.61,10.94-8.18,10.73-3.86,2.42-12.94-3.95-6.84-5.59,2.73,3.64,13.13,2.46,12.43-3.27-2.09-6.79-10.3-8.73-16.55-9.16-7.12-.24-14.5,4.16-21.32.33,3.16-3.58,10.81-2.61,15.74-3.76l3.27-.33Zm73.89,48.86c-1.55-4.25,3.82-10.91,8.33-11.37,4.9.33,6.91,12.69,2,12-.18-3-.73-11.87-5.09-6.28C148.83,206.25,148.1,211.53,145.42,210.74ZM130.87,195.1c-1.58-4.8,4.67-10.87,0-16-1.82-2.73-5.88-9.42.09-6.35,3.64,5.35,6.37,12.35,3.2,18.58C133.26,192.51,133,196.1,130.87,195.1Zm48.75-15.89c-4-2.46-9.35-6.13-7.71-11.64,3.25-4.72-2.6-9-2.77-12.47,3.27-3.52,6.61,5.27,6.58,8.45-2.55,5.34.09,10,5.23,12.28,1.63.83.68,4.57-1.33,3.39Zm3.47-17.35c-3.14-3.36-2.62-9.91.6-13.05,3.46-1.4,1.09-12.55,5.71-8.64-1.16,5,2.44-6.18,3.59.12-3.84,5.46-.36,10.75-2.48,16.52C189.27,159.35,186.35,163.63,183.09,161.86Zm1.38-3.34c5.41-1.2,5.08-13.7.22-6A8.39,8.39,0,0,0,184.47,158.52ZM189.61,147C189.57,146.67,188.64,146.42,189.61,147Z"/><path class="a" d="M403.18,364.48c21.87,47.12,32.48,87.46,27.85,118.67L443.79,512H465l26-200.23L472.8,277.29Z"/><path class="b" d="M467.16,284.59l14.59,27.85L465,512l33.32-198.91-21.55-41.44Z"/><path class="c" d="M256,221.27l75.73,60.58L290.47,342.8l-.93,33.75L256,384.7Z"/><path class="d" d="M297.51,287.41c6.36-.07,12.3,4.84,12.91,11.18a13.44,13.44,0,0,1-7.85,13.82c-7.11,3.27-15.5,1-21.74-3.09a31.73,31.73,0,0,1-13.76-20.18c1.38-2.86,3,.92,3,2.54,3.53,11,14.11,20.05,25.95,20,5.81-.12,11.69-4.43,12.12-10.5a10.72,10.72,0,0,0-10-11.4l-.56,0c-5-.2-10.56,3.52-10.5,8.91.11,3.26,3.45,6.28,6.73,5.32,1.38-.52,5.22-3.68,4.51-.09-3.2,4-10.36,3.09-12.56-1.54-2.73-5,.48-11.37,5.41-13.5a13.28,13.28,0,0,1,6.28-1.41Zm-36.21,3.27c2.33,1.46,1.18,5.33,2.09,7.78,1.29,7.89,2.79,15.82,5.64,23.32,1.91,4.5,6.14,8.82,11.39,8.33,3-.26,6.09-3.09,5.2-6.33-.37-3.33-4.66-2.49-6-4.23.7-2.67,4.73-1,6.18.36a6.84,6.84,0,0,1-.12,10.32c-3.87,3.43-10,2.7-13.73-.58-5.68-4.73-7-12.37-8.63-19.17a151.46,151.46,0,0,1-3.16-18.82,1.19,1.19,0,0,1,1.17-1Zm.91,21.22c2.59,1.45-.26,5.53.73,8.09.59,10.44,7.61,20.29,17.54,23.77,1.55,1.11,7.21.62,5.18,3.52-3.14.15-6.27-1.36-9.11-2.69a29.51,29.51,0,0,1-15.82-23.09,25.31,25.31,0,0,1,.48-9.05l.43-.4Z"/><path class="e" d="M256,194.75v26.52c16.12,23.94,34.56,46.26,63.07,61.52L283.44,340l-1.64,30.48,29.06-16.64c1.64-1.41,38-87.44,38-87.44Z"/><path class="f" d="M256,384.7v7.95l50.64-20.09V350.2Z"/><path class="c" d="M348.45,262.45,302,336.71l2.73,112.64L453.91,309.78l31.65-69.62L466,211.82Z"/><path class="g" d="M461.35,231.45c4,6.1,3.55,14.4,4.06,21.59.44,9.2-4.27,20.59-14.69,21.43-14,1.34-22.89-19.24-11.88-28.18,8.7-6.71,20.3,6.2,13.37,14.29-2.33,4.69-8.82,2.37-2.43-.91,7.3-7.45-5.75-18.48-11.54-9.5-6,9.26,2.63,24.46,14.16,21.26,10-2.07,10.87-13.69,10.65-22,.64-5.91-3.63-13.73-1.69-18.2Zm8.2,3.87c4.78,6.82,5,16.42,4.34,24.62-1.25,13.06-10.27,28-24.69,28.38-9.11,3.58-16.42-15.87-4.95-11.42.86,3.53-6.56-.5-3.22,4.52,4.51,7.93,15.58,4.16,20.91-.78,11.09-11.64,12.27-30,6.25-44.37l.46-.72Zm-57.09,10.31c3.21-1.38,15.11,4.11,8.35,4.5-10.51-7.29-27,4.11-23,16.52,3.75,11.7,23-4.91,10.59-7.53-8.18-2.11,7.6-4.77,6.37,2.53,1.81,11.75-19.86,16.18-19.89,2.81-1-9.77,7.89-18.81,17.52-18.81Zm-19.92,5.12c1.45,6.28-9.8,18-.77,23.73,8.73-.05.21,5.69-3.18,1-5.77-6.67-.77-19.09,4-24.69Zm-10.59.19c.72,5-11.55,5.84-15.15,10.71-16.55,12.07-27.7,31.47-29.23,52-5.22-1,.57-13,1.3-17.82,6.87-20.27,22.89-37.45,43.07-44.85Zm.18,4.29c1.54,5.76-7.48,13.38-6.05,20.91-1.29,8.89,9.09,5.71,12.87,7-8.14,8.33-19.87-4.67-14.33-13.8,1-3.64,7.75-14.25.45-7.6-13.76,10.05-25.29,24.84-28,41.95-.07,11.76,18.72,14.9,19.95,2.54,6.05,7.27-12.77,15.95-17.95,6.93-8.15-9.09-1.76-21.88,3.63-30.67,6.71-10.93,16-20.5,27.27-26.55,1.1,1.47,1.1-.91,2.1-.67Zm43.16,10c6.29-2.54,9.09,13.09,4.29,5.46-8.91-8.89-7.09,10.63-.75,13.24,7.76,8.3,20.45,10.55,31.09,7.43-1.07,6.13-15.68,3.8-21.48,1.59-9.94-3.55-19.18-13.65-17.29-24.75a4.2,4.2,0,0,1,4.14-3.06Zm-19.24,20.4c10.95-.79,20.29,13.87,11.55,22.18-6.27,8.89-23.71-5.29-15.45-9.49-2.11,10.38,15.76,13.48,16.49,2.48,1.63-12.64-18.48-17.75-23.37-6-4.54,9.48,4,20,13.82,20.12,10.52.89,20.6-3.45,30.4-6.51,3.15-3.84,9.49.13,2.68,1.44-13.07,4.29-27.66,11.05-41.32,5.27-9.59-4.54-12.92-19.79-3.48-26.33a15.86,15.86,0,0,1,8.73-3.17Zm-79.61,43.09c11-.42,20.67,11,17.73,21.82-4.4,6.55-.27-7.43-3.06-9.79-1.95-7.8-12.25-8.39-16.36-11l.65-.68Zm-2.29,4.82c10.73.18,14.11,15.14,6.59,21.68-6.6,8.09-18.64,13.09-19.55,24.73-2.06,16.75,15.77,31.58,31.91,27.75,2.54,5.11-11.64,2.73-15.24,1.06-14.33-4.95-24.18-23-16.54-37.07,5.09-9.37,16.94-13.28,20.68-23.46,4.11-10-10.88-17.27-16.48-8.09-5.82,4.77,0,12.66-1,16.64-8.34-5.95-2.94-22.7,7.76-23.09Zm61.69,8.18c4.13-.45,18.92,7.11,7.94,5.46C393.12,344.5,381.33,345,385.84,341.77Zm-46.23,14c11.32-.05,22.83,6.47,27.51,17-4.48.84-7.67-10.27-14.13-11.37-6.18-3.67-13.93-3.3-20.45-3.12-.68-3.26,5.27-2,7.09-2.5Zm-8,5.4c10.27.91,20.54,5.93,26.66,14.36,4.36,4.73-5.22,15.14-6.94,8.95,12.31-4.39-1.76-16.61-9.11-18.42-1.62-2.28-19.13-1.82-10.61-4.88Zm.43,6.21c9.07-.24,15,13.47,6.18,18.27-4,3.83-14.86-3.64-9.69-6.09,5.12,12.72,18.8-5.68,6.71-9.09-11.2-4.46-21.3,11.21-14,20.18,7.42,10.36,22.4,9.59,33,5.31,3.07.18,11.93-9.52,10.73-3.34-12.23,9-31.21,13-43.58,2.14-9.87-9-3.46-28.26,10.65-27.4Z"/><path class="b" d="M256,392.66v17.58l47.91-33V360.59Z"/><path class="b" d="M305.42,331.25l-7.82,9.19,1.33,128c86.06-65.79,158.91-134,194.75-217.3l-8.12-10.94c-39.12,70.21-105.92,131.28-177.84,194.26Z"/><path class="h" d="M256,0l10.94,57.27L256,19.15V161.7l8.22,39.85L326.1,262l95.18-24.85,54.85-43.33c-22.8-31.38-34.22-62.76-33.15-94.14C431.66,84,426.75,67.2,420.44,50.65L386.62,32.08Z"/><path class="i" d="M284.84,62.22c2.72,60.61,10.63,120.12,24.6,177l-5.39-.7c-15.76-52.91-19.49-114.09-19.21-176.36Zm20.32,13.62c9.09,60,23.2,118.33,43.07,173.41l-5.44-.13c-21.24-51-31.36-111.42-37.64-173.27Zm35.95,30.4c10.6,53.18,30.21,98.65,52.45,143.21l-6.45.07c-21.43-42.05-39.06-87.23-46-143.29Zm43.18,1.32c4.27,53.84,24.42,85.73,43.09,119.68l-4.82,4.31c-19.68-38.7-40.21-77.51-38.29-124Zm47.34,3c12,55.57,25.61,68,41.95,96.58l-5.86,4C451.9,180.32,432.6,152,431.63,110.55Zm-16,1.35c12,55.56,25.62,68,42,96.57l-5.86,4c-15.82-30.8-35.12-59.09-36.1-100.56Z"/><path class="b" d="M256,161.61c8.84,34.6,34.56,59.21,64.67,81.22,8.48,6.45,8.16,5.47,18.55,5.36,57.43.06,96-28.91,136.88-54.44l16.25,7.3c-44,30.9-90.3,59.32-155.08,68-9.91,1-11.06,1.23-20.15-3.93C269.77,234.9,267.19,215.9,256,194.75Z"/><path class="j" d="M446.11,129.27C381.27,149.09,283.43,194.82,256,19.07V0c30.78,135.45,88.44,150.73,187.55,109.82a111.56,111.56,0,0,0,2.58,19.45Z"/><path class="k" d="M284.91,81,286,82.85l2.48,30.79-2.93-4.35L284.92,81Zm24.34,30,2.25,1.82L317,139.87l-3.87-2.29Zm123.18,3.11,4.51,17.94-2.89.92a132.08,132.08,0,0,1-2.27-18.61l.66-.25Zm-15.06,5.36L422,136.84l-3.14,1a134,134,0,0,1-2.73-17.94l1.3-.43Zm-30.65,7.94,3.84,18.14-2.84.6a158.62,158.62,0,0,1-2.87-18.41l1.88-.33Zm-42.29.5,1.71.33,5.93,21.18-3.18-.22-4.47-21.27Z"/><path class="l" d="M283.93,104.91l33.4,17.85c32.52,53.88,73.84,71.75,140.09,12.24l13.18,40.87c-19,11.94-37.8,16.55-56.61,26.75-16.54,9-32.95,16.15-49.09,19.75-7.51,1.67-11.07.23-17.18-7.27A509.31,509.31,0,0,1,283.9,104.92Z"/><path class="m" d="M412.14,203.58c-7.82-2.93-17.31-5.8-21.13-14-2.55-5.49-.31-14.3,6.42-15.16,7.52,1,8.6,12,2.91,16-2.41,5.51,4.52,2.52,5-1,3.55-6.59,1-17.27-7.18-18.71-7.27-.44-11.38,7.85-11.07,14.18-.06,8.91,7.23,15.57,14.93,18.73,3.63,2,6.49,3,10,0Zm-11.75,5.94c-8.45-2.12-18.47-3.64-23.64-11.69-5.84-9.73-8.29-21.41-16.1-30-4.39-2.52-9.91-9.13-15.24-5.07-6.12,6.37-4.89,17.09-.06,23.91,2.09,4.26,9.45,9.17,11.81,2.38,2.82-6.36-4.91-6.67-8.83-7.05-4.55-4.09-1-13.09,5-13.22,5.29,2.09,6.68,8.46,9,13.14,4.05,9.54,7.06,20.76,16.57,26.42,4.06,1.94,8.54,6.74,13.13,5l8.44-3.84Zm40.07-47.64c-8.2-.47-18.52,2.47-21.47,11-2.14,5.47,2.61,10.94,8.18,10.73,3.86,2.42,12.94-3.95,6.84-5.59-2.73,3.64-13.13,2.46-12.43-3.27,2.09-6.79,10.3-8.73,16.55-9.16,7.12-.24,14.5,4.16,21.33.33-3.17-3.58-10.82-2.61-15.75-3.76l-3.27-.33Zm-73.89,48.86c1.55-4.25-3.81-10.91-8.33-11.37-4.89.33-6.91,12.69-2,12,.18-3,.73-11.87,5.09-6.28C363.16,206.25,363.89,211.53,366.57,210.74Zm14.55-15.64c1.58-4.8-4.67-10.87,0-16,1.82-2.73,5.88-9.42-.09-6.35-3.64,5.35-6.37,12.35-3.2,18.58C378.73,192.51,379,196.1,381.12,195.1Zm-48.75-15.89c4-2.46,9.35-6.13,7.71-11.64-3.25-4.72,2.6-9,2.77-12.47-3.27-3.52-6.6,5.27-6.58,8.45,2.55,5.34-.09,10-5.22,12.28-1.64.83-.69,4.57,1.32,3.39Zm-3.47-17.35c3.14-3.36,2.62-9.91-.6-13.05-3.45-1.4-1.09-12.55-5.71-8.64,1.16,5-2.44-6.18-3.59.12,3.84,5.46.36,10.75,2.48,16.52C322.72,159.35,325.65,163.63,328.9,161.86Zm-1.38-3.34c-5.41-1.2-5.07-13.7-.22-6A8.39,8.39,0,0,1,327.52,158.52ZM322.38,147C322.42,146.67,323.35,146.42,322.38,147Z"/></svg>