<svg xmlns="http://www.w3.org/2000/svg" viewBox="0 0 512 512"><defs><style>.a{fill:#745922;}.b{fill:#d2a93e;}.c{fill:#7c5f24;}.d{fill:#ab8431;}.e{fill:#644d1e;}.f{fill:#956629;}.g{fill:#b99037;}.h{fill:#845623;}.i{fill:#6f481d;}.j{fill:#744d22;}.k{fill:#211c0a;}.l{fill:#806226;}.m{fill:#5e3f1c;}.n{fill:#72491e;}.o{fill:#944f1d;}.p{fill:#361d0a;}.q{fill:#41220c;}.r{fill:#4e290f;}.s{fill:#7f6637;}.t{fill:#92844e;}.u{fill:#4d3413;}.v{fill:#4c280e;}.w{fill:#d5b04d;}.x{fill:#dcd78a;}.y{fill:#d2a93d;}.z{fill:#735a2d;}.aa{fill:#905623;}.ab{fill:#37200b;}.ac{fill:#cba02f;}.ad{fill:#463429;}</style></defs><title>armour_god_fire_platebody</title><path class="a" d="M183.83,437.1c-10.59,22.82-15.73,42.35-13.48,57.47l-6.18,14H153.89l-12.6-97,8.83-16.7Z"/><path class="b" d="M152.85,398.41l-7.06,13.48,8.1,96.65-16.14-96.33,10.44-20.07Z"/><path class="c" d="M255.11,367.75l-36.67,29.34,20,29.51.45,16.35,16.25,3.94L271.36,443l.46-16.35,20-29.51Z"/><path class="d" d="M235,399.78a6.24,6.24,0,0,0-6.25,5.41,6.5,6.5,0,0,0,3.8,6.69c3.44,1.59,7.5.5,10.53-1.49a15.35,15.35,0,0,0,6.66-9.78c-.67-1.38-1.45.45-1.47,1.23-1.7,5.34-6.83,9.71-12.56,9.69-2.82-.06-5.66-2.15-5.87-5.08a5.2,5.2,0,0,1,4.84-5.53H235c2.42-.1,5.12,1.71,5.09,4.32a2.74,2.74,0,0,1-3.26,2.57c-.67-.25-2.53-1.78-2.19,0a3.77,3.77,0,0,0,6.09-.75c1.32-2.41-.24-5.5-2.62-6.54a6.45,6.45,0,0,0-3-.68Zm17.54,1.58c-1.13.7-.58,2.58-1,3.77a57.56,57.56,0,0,1-2.73,11.29c-.92,2.18-3,4.27-5.51,4-1.47-.12-2.95-1.49-2.52-3.06.18-1.62,2.25-1.21,2.9-2.05-.33-1.29-2.28-.49-3,.17a3.31,3.31,0,0,0,.06,5,5.14,5.14,0,0,0,6.65-.28c2.75-2.29,3.38-6,4.18-9.28a74,74,0,0,0,1.53-9.11.58.58,0,0,0-.57-.48Zm-.44,10.28c-1.26.7.12,2.67-.36,3.91a13.16,13.16,0,0,1-8.49,11.52c-.75.53-3.49.3-2.51,1.7a9.87,9.87,0,0,0,4.41-1.3,14.31,14.31,0,0,0,7.66-11.18,12.25,12.25,0,0,0-.23-4.39l-.21-.19Z"/><path class="e" d="M255.11,354.9l-45,34.69,18.39,42.35c.79.68,14.07,8.05,14.07,8.05l-.79-14.75-17.26-27.7c13.81-7.39,22.74-18.2,30.55-29.79,7.8,11.59,16.74,22.4,30.54,29.79l-17.25,27.7L267.6,440l14.08-8.05c.79-.69,18.39-42.35,18.39-42.35Z"/><path class="f" d="M230.58,430.18V441l24.52,9.73L279.63,441V430.18l-24.53,16.7Z"/><path class="c" d="M210.34,387.69l22.5,36-1.33,54.55-72.24-67.59L143.94,376.9l9.46-13.73Z"/><path class="g" d="M155.66,372.67c-1.91,2.95-1.71,7-2,10.45-.21,4.46,2.07,10,7.11,10.39,6.76.64,11.09-9.32,5.75-13.65-4.21-3.25-9.82,3-6.47,6.92,1.13,2.27,4.27,1.14,1.18-.44-3.54-3.61,2.78-8.95,5.59-4.6S165.58,393.58,160,392c-4.84-1-5.27-6.63-5.16-10.63-.31-2.86,1.76-6.64.82-8.81Zm-4,1.87c-2.31,3.31-2.4,8-2.1,11.93.61,6.32,5,13.54,12,13.74,4.41,1.74,7.95-7.68,2.39-5.53-.41,1.71,3.18-.24,1.57,2.19-2.19,3.84-7.55,2-10.13-.38-5.37-5.63-5.94-14.51-3-21.48l-.22-.36Zm27.65,5c-1.55-.67-7.32,2-4,2.18,5.09-3.53,13.07,2,11.15,8-1.82,5.67-11.16-2.38-5.13-3.65,4-1-3.68-2.31-3.09,1.22-.88,5.7,9.62,7.84,9.63,1.37.51-4.73-3.81-9.11-8.48-9.11ZM189,382c-.7,3,4.75,8.73.37,11.49-4.23,0-.1,2.76,1.54.47,2.8-3.23.38-9.24-1.91-12Zm5.13.09c-.35,2.42,5.59,2.83,7.33,5.18a34.9,34.9,0,0,1,14.16,25.17c2.53-.5-.27-6.29-.63-8.63a35.43,35.43,0,0,0-20.86-21.73Zm-.09,2.08c-.75,2.79,3.62,6.48,2.93,10.12.62,4.31-4.4,2.77-6.24,3.37,3.95,4,9.63-2.26,6.95-6.68-.5-1.76-3.76-6.9-.22-3.68,6.66,4.87,12.25,12,13.57,20.31,0,5.7-9.07,7.22-9.66,1.24-2.93,3.52,6.18,7.72,8.69,3.35,3.95-4.4.85-10.6-1.76-14.85a35.51,35.51,0,0,0-13.21-12.86c-.52.72-.52-.44-1-.32Zm-20.9,4.87c-3-1.24-4.4,6.34-2.08,2.64,4.31-4.3,3.43,5.15.37,6.41-3.76,4-9.91,5.11-15.06,3.6.51,3,7.59,1.84,10.4.77,4.81-1.72,9.29-6.61,8.37-12a2,2,0,0,0-2-1.48Zm9.31,9.87c-5.3-.38-9.82,6.72-5.59,10.75,3,4.3,11.48-2.57,7.49-4.6,1,5-7.64,6.53-8,1.2-.79-6.12,9-8.6,11.32-2.91,2.2,4.59-1.92,9.68-6.7,9.75-5.09.43-10-1.67-14.72-3.15-1.52-1.86-4.6.06-1.3.69,6.33,2.08,13.4,5.36,20,2.56,4.65-2.2,6.26-9.59,1.69-12.76a7.7,7.7,0,0,0-4.23-1.53ZM221,419.8c-5.32-.2-10,5.3-8.59,10.57,2.13,3.17.13-3.6,1.49-4.74.94-3.78,5.93-4.07,7.92-5.34l-.32-.33Zm1.11,2.34c-5.2.08-6.84,7.33-3.19,10.5,3.19,3.91,9,6.34,9.47,12,1,8.12-7.64,15.3-15.46,13.44-1.23,2.48,5.64,1.32,7.38.51,6.94-2.39,11.71-11.15,8-17.95-2.46-4.54-8.2-6.43-10-11.36-2-4.86,5.27-8.36,8-3.92,2.82,2.31,0,6.14.48,8.06,4-2.88,1.42-11-3.76-11.18Zm-29.87,4c-2-.22-9.17,3.44-3.85,2.64C188.71,427.42,194.42,427.65,192.24,426.1Zm22.38,6.76c-5.48,0-11.06,3.14-13.32,8.23,2.17.4,3.71-5,6.84-5.51,3-1.78,6.75-1.6,9.91-1.51.32-1.58-2.56-.95-3.44-1.21Zm3.87,2.62a18,18,0,0,0-12.91,6.95c-2.12,2.29,2.52,7.33,3.35,4.33-6-2.12.86-8,4.42-8.92.78-1.1,9.26-.88,5.14-2.36Zm-.21,3c-4.39-.11-7.27,6.53-3,8.85,1.95,1.86,7.2-1.76,4.7-2.95-2.48,6.17-9.11-2.75-3.25-4.4,5.42-2.16,10.31,5.43,6.79,9.77-3.59,5-10.84,4.65-16,2.57-1.48.09-5.78-4.6-5.19-1.61,5.92,4.34,15.11,6.27,21.1,1,4.78-4.33,1.67-13.68-5.16-13.27Z"/><path class="b" d="M231.92,435.21v8.07l23.2,16,23.2-16v-8.07l-23.2,15.53Z"/><path class="b" d="M231.18,421l3.79,4.45-.65,62C192.64,455.56,157.37,422.5,140,382.18l3.93-5.29c18.95,34,51.3,63.57,86.13,94.07Z"/><path class="h" d="M255.11,260.58l5.3,27.74-5.3-18.47-5.29,18.47Zm0,0-63.25,15.5-16.38,9c-3.06,8-5.43,16.15-10.92,23.76.52,15.2-5,30.4-16.05,45.59l26.56,21,46.09,12,30-29.29,4-19.3,4,19.3,30,29.29,46.1-12,26.56-21c-11-15.19-16.57-30.39-16.05-45.59-5.49-7.62-7.86-15.74-10.92-23.76l-16.38-9Z"/><path class="i" d="M242.92,290.72A442.81,442.81,0,0,1,231,376.42l2.61-.33c7.63-25.63,9.44-55.26,9.31-85.42Zm-9.85,6.59a443.85,443.85,0,0,1-20.85,84l2.63-.07c10.29-24.68,15.19-54,18.23-83.91ZM215.67,312c-5.14,25.75-14.63,47.77-25.41,69.35l3.13,0c10.38-20.37,18.92-42.25,22.28-69.4Zm-20.92.64c-2.07,26.07-11.82,41.52-20.87,57.95l2.34,2.09c9.53-18.74,19.47-37.53,18.54-60Zm-22.92,1.45C166,341,159.42,347.06,151.51,360.9l2.84,1.93c7.66-14.92,17-28.62,17.48-48.7Zm7.74.65c-5.81,26.91-12.41,32.93-20.32,46.77l2.84,1.93c7.66-14.92,17-28.62,17.48-48.7Z"/><path class="b" d="M255.11,338.85c-4.28,16.75-16.74,28.67-31.32,39.33-4.11,3.13-3.95,2.65-9,2.6-27.81,0-46.52-14-66.29-26.36L140.65,358c21.3,15,43.73,28.73,75.1,32.91,4.8.49,5.36.59,9.76-1.89,22.93-14.62,24.18-23.82,29.6-34.07,5.43,10.25,6.68,19.45,29.61,34.07,4.4,2.49,4.95,2.39,9.76,1.89,31.36-4.18,53.8-17.94,75.1-32.91l-7.87-3.53c-19.78,12.36-38.48,26.38-66.29,26.36-5,0-4.88.52-9-2.6-14.58-10.65-27.05-22.58-31.32-39.33Z"/><path class="j" d="M255.11,260.58c-14.9,65.6-42.83,73-90.82,53.19a55.38,55.38,0,0,1-1.25,9.42c31.4,9.6,78.78,31.74,92.07-53.37,13.29,85.12,60.67,63,92.07,53.37a55.38,55.38,0,0,1-1.25-9.42c-48,19.82-75.92,12.42-90.83-53.19Z"/><path class="a" d="M326.4,437.1c10.59,22.82,15.73,42.35,13.48,57.47l6.18,14h10.28l12.6-97-8.79-16.69Z"/><path class="b" d="M357.38,398.41l7.06,13.48-8.1,96.65,16.13-96.33L362,392.14Z"/><path class="c" d="M255.11,367.75l36.68,29.34-20,29.51L271.35,443l-16.24,3.94Z"/><path class="d" d="M275.22,399.78a6.25,6.25,0,0,1,6.26,5.41,6.5,6.5,0,0,1-3.8,6.69c-3.45,1.59-7.51.5-10.53-1.49a15.37,15.37,0,0,1-6.67-9.78c.67-1.38,1.46.45,1.47,1.23,1.71,5.34,6.83,9.71,12.57,9.69,2.81-.06,5.66-2.15,5.87-5.08a5.2,5.2,0,0,0-4.85-5.53h-.27c-2.42-.1-5.11,1.71-5.08,4.32a2.73,2.73,0,0,0,3.26,2.57c.66-.25,2.53-1.78,2.18,0a3.76,3.76,0,0,1-6.08-.75c-1.32-2.41.23-5.5,2.62-6.54a6.41,6.41,0,0,1,3-.68Zm-17.53,1.58c1.13.7.57,2.58,1,3.77a58.28,58.28,0,0,0,2.73,11.29c.93,2.18,3,4.27,5.52,4,1.46-.12,2.95-1.49,2.52-3.06-.18-1.62-2.26-1.21-2.91-2.05.34-1.29,2.29-.49,3,.17a3.31,3.31,0,0,1-.05,5,5.14,5.14,0,0,1-6.65-.28c-2.75-2.29-3.38-6-4.18-9.28a72.17,72.17,0,0,1-1.53-9.11.57.57,0,0,1,.56-.48Zm.44,10.28c1.25.7-.12,2.67.35,3.91a13.17,13.17,0,0,0,8.5,11.52c.75.53,3.49.3,2.51,1.7a9.91,9.91,0,0,1-4.42-1.3,14.31,14.31,0,0,1-7.66-11.18,12.48,12.48,0,0,1,.23-4.39l.21-.19Z"/><path class="e" d="M255.11,354.9v12.84c7.81,11.59,16.74,22.4,30.55,29.79l-17.26,27.7L267.61,440l14.07-8.05c.8-.68,18.39-42.35,18.39-42.35Z"/><path class="f" d="M255.11,446.89v3.85L279.64,441V430.18Z"/><path class="c" d="M299.89,387.69l-22.5,36,1.32,54.55L351,410.61l15.33-33.71-9.47-13.73Z"/><path class="g" d="M354.56,372.67c1.91,2.95,1.72,7,2,10.45.21,4.46-2.07,10-7.11,10.39-6.76.64-11.09-9.32-5.75-13.65,4.21-3.25,9.82,3,6.47,6.92-1.13,2.27-4.27,1.14-1.18-.44,3.54-3.61-2.78-8.95-5.59-4.6s1.28,11.84,6.86,10.29c4.84-1,5.27-6.63,5.16-10.63.31-2.86-1.76-6.64-.82-8.81Zm4,1.87c2.31,3.31,2.4,8,2.1,11.93-.61,6.32-5,13.54-12,13.74-4.41,1.74-7.95-7.68-2.39-5.53.41,1.71-3.18-.24-1.57,2.19,2.19,3.84,7.55,2,10.13-.38,5.37-5.63,5.94-14.51,3-21.48l.22-.36Zm-27.65,5c1.56-.67,7.32,2,4,2.18-5.09-3.53-13.07,2-11.14,8,1.81,5.67,11.15-2.38,5.12-3.65-4-1,3.69-2.31,3.09,1.22.88,5.7-9.62,7.84-9.63,1.37-.5-4.73,3.82-9.11,8.48-9.11ZM321.23,382c.71,3-4.75,8.73-.37,11.49,4.23,0,.1,2.76-1.54.47-2.8-3.23-.37-9.24,1.92-12Zm-5.13.09c.35,2.42-5.59,2.83-7.33,5.18a34.9,34.9,0,0,0-14.16,25.17c-2.52-.5.28-6.29.63-8.63A35.43,35.43,0,0,1,316.1,382.1Zm.09,2.08c.75,2.79-3.62,6.48-2.93,10.12-.62,4.31,4.41,2.77,6.24,3.37-3.95,4-9.63-2.26-6.95-6.68.5-1.76,3.76-6.9.22-3.68-6.66,4.87-12.24,12-13.57,20.31,0,5.7,9.07,7.22,9.66,1.24,2.94,3.52-6.18,7.72-8.69,3.35-3.95-4.4-.85-10.6,1.76-14.85a35.58,35.58,0,0,1,13.21-12.86c.53.72.53-.44,1-.32Zm20.9,4.87c3.05-1.24,4.41,6.34,2.08,2.64-4.31-4.3-3.43,5.15-.36,6.41,3.76,4,9.9,5.11,15.05,3.6-.51,3-7.59,1.84-10.4.77-4.81-1.72-9.29-6.61-8.37-12a2,2,0,0,1,2-1.48Zm-9.31,9.87c5.3-.38,9.82,6.72,5.59,10.75-3,4.3-11.48-2.57-7.49-4.6-1,5,7.64,6.53,8,1.2.79-6.12-8.95-8.6-11.31-2.91-2.21,4.59,1.92,9.68,6.69,9.75,5.09.43,10-1.67,14.72-3.15,1.52-1.86,4.6.06,1.3.69-6.33,2.08-13.4,5.36-20,2.56-4.65-2.2-6.26-9.59-1.69-12.76a7.7,7.7,0,0,1,4.23-1.53ZM289.22,419.8c5.32-.2,10,5.3,8.59,10.57-2.13,3.17-.13-3.6-1.48-4.74-.95-3.78-5.93-4.07-7.93-5.34l.32-.33Zm-1.11,2.34c5.2.08,6.84,7.33,3.19,10.5-3.19,3.91-9,6.34-9.46,12-1,8.12,7.63,15.3,15.45,13.44,1.23,2.48-5.64,1.32-7.38.51-6.94-2.39-11.71-11.15-8-17.95,2.46-4.54,8.2-6.43,10-11.36,2-4.86-5.27-8.36-8-3.92-2.82,2.31,0,6.14-.47,8.06-4-2.88-1.43-11,3.76-11.18Zm29.88,4c2-.22,9.16,3.44,3.84,2.64C321.51,427.42,315.8,427.65,318,426.1Zm-22.39,6.76c5.48,0,11.06,3.14,13.32,8.23-2.17.4-3.71-5-6.84-5.51-3-1.78-6.75-1.6-9.91-1.51-.32-1.58,2.56-.95,3.44-1.21Zm-3.87,2.62a18,18,0,0,1,12.92,6.95c2.11,2.29-2.53,7.33-3.36,4.33,6-2.12-.86-8-4.42-8.92-.78-1.1-9.26-.88-5.14-2.36Zm.21,3c4.39-.11,7.27,6.53,3,8.85-1.95,1.86-7.2-1.76-4.69-2.95,2.47,6.17,9.1-2.75,3.24-4.4-5.42-2.16-10.31,5.43-6.79,9.77,3.59,5,10.84,4.65,16,2.57,1.48.09,5.78-4.6,5.2-1.61-5.93,4.34-15.12,6.27-21.11,1-4.78-4.33-1.67-13.68,5.16-13.27Z"/><path class="b" d="M255.11,450.74v8.51l23.2-16v-8.07Z"/><path class="b" d="M279.05,421l-3.78,4.45.64,62c41.68-31.86,77-64.92,94.32-105.24l-3.93-5.29c-18.95,34-51.3,63.57-86.13,94.07Z"/><path class="i" d="M269.08,290.72A442.81,442.81,0,0,0,281,376.42l-2.61-.33c-7.64-25.63-9.44-55.26-9.31-85.42Zm9.85,6.59a443.85,443.85,0,0,0,20.85,84l-2.63-.07c-10.29-24.68-15.19-54-18.23-83.91ZM296.33,312c5.14,25.75,14.63,47.77,25.41,69.35l-3.13,0c-10.38-20.37-18.92-42.25-22.28-69.4Zm20.92.64c2.07,26.07,11.82,41.52,20.86,57.95l-2.33,2.09c-9.53-18.74-19.47-37.53-18.54-60Zm22.92,1.45C346,341,352.58,347.06,360.49,360.9l-2.84,1.93c-7.66-14.92-17-28.62-17.48-48.7Zm-7.74.65c5.81,26.91,12.41,32.93,20.32,46.77l-2.84,1.93c-7.66-14.92-17-28.62-17.48-48.7Z"/><path class="b" d="M255.11,338.85c4.28,16.75,16.74,28.67,31.32,39.33,4.11,3.13,3.95,2.65,9,2.6,27.82,0,46.52-14,66.29-26.36l7.87,3.53c-21.3,15-43.73,28.73-75.1,32.91-4.8.49-5.36.59-9.76-1.9-22.93-14.62-24.18-23.82-29.6-34.06Z"/><path class="k" d="M268.63,311.38,284.81,320c15.75,26.09,35.76,34.75,67.84,5.93L359,345.75c-9.19,5.78-18.31,8-27.42,12.95-8,4.35-16,7.83-23.77,9.57-3.64.81-5.37.11-8.32-3.52a246.45,246.45,0,0,1-30.91-53.36Z"/><path class="l" d="M330.73,359.18c-3.78-1.42-8.38-2.81-10.23-6.77-1.23-2.66-.15-6.92,3.11-7.34,3.64.47,4.16,5.82,1.41,7.75-1.17,2.67,2.19,1.22,2.44-.5,1.71-3.2.47-8.37-3.48-9.07-3.52-.21-5.51,3.81-5.36,6.87,0,4.32,3.5,7.54,7.23,9.07,1.76,1,3.14,1.44,4.84,0ZM325,362.05c-4.09-1-8.94-1.76-11.44-5.66-2.83-4.71-4-10.37-7.8-14.53-2.13-1.22-4.8-4.42-7.38-2.45-3,3.08-2.37,8.28,0,11.58,1,2.06,4.57,4.44,5.72,1.15,1.36-3.08-2.38-3.23-4.28-3.41-2.2-2-.48-6.34,2.4-6.4,2.57,1,3.24,4.09,4.34,6.36,2,4.62,3.42,10.05,8,12.79,2,.94,4.14,3.27,6.36,2.42l4.08-1.85ZM344.45,339c-4-.22-9,1.2-10.4,5.34a3.94,3.94,0,0,0,4,5.2c1.87,1.18,6.27-1.91,3.31-2.7-1.32,1.76-6.35,1.19-6-1.59,1-3.29,5-4.22,8-4.44,3.45-.11,7,2,10.33.17-1.53-1.74-5.24-1.27-7.63-1.83l-1.58-.15Zm-35.78,23.66c.74-2.05-1.85-5.28-4-5.5-2.37.16-3.35,6.15-1,5.8.09-1.47.35-5.75,2.46-3C307,360.47,307.37,363,308.67,362.64Zm7-7.57c.77-2.32-2.26-5.26,0-7.75.88-1.32,2.84-4.56,0-3.07-1.76,2.59-3.08,6-1.55,9C314.55,353.82,314.7,355.56,315.71,355.07Zm-23.61-7.69c1.95-1.19,4.53-3,3.74-5.64-1.58-2.29,1.26-4.38,1.34-6-1.58-1.7-3.2,2.55-3.19,4.09,1.24,2.59,0,4.86-2.53,5.95-.79.4-.33,2.21.64,1.64Zm-1.68-8.4a4.92,4.92,0,0,0-.29-6.33c-1.67-.67-.53-6.07-2.76-4.18.56,2.42-1.18-3-1.74.06,1.86,2.64.17,5.2,1.2,8C287.43,337.76,288.85,339.83,290.42,339Zm-.67-1.62c-2.62-.59-2.45-6.64-.1-2.91A4.06,4.06,0,0,1,289.75,337.36Zm-2.48-5.57C287.28,331.62,287.74,331.5,287.27,331.79Z"/><path class="j" d="M164.82,323.18c31.39,9.6,78.78,31.75,92.07-53.36v-9.24c-14.91,65.6-42.83,73-90.83,53.19a54.4,54.4,0,0,1-1.25,9.42Z"/><path class="m" d="M242.89,299.81l-.53.9-1.2,14.91,1.41-2.1.31-13.71ZM231.1,314.34l-1.09.88-2.67,13.11,1.88-1.11Zm-59.65,1.51-2.19,8.69,1.4.44a63.42,63.42,0,0,0,1.1-9l-.32-.12Zm7.29,2.6-2.22,8.41,1.52.48a63.67,63.67,0,0,0,1.32-8.69l-.63-.2Zm14.84,3.84-1.86,8.78,1.38.3a77,77,0,0,0,1.38-8.92l-.9-.16Zm20.48.24-.82.16L210.36,333l1.54-.11,2.17-10.3Z"/><path class="k" d="M243.37,311.38,227.19,320c-15.75,26.09-35.76,34.75-67.84,5.93L153,345.75c9.19,5.78,18.31,8,27.42,12.95,8,4.35,16,7.83,23.77,9.57,3.64.81,5.37.11,8.32-3.52a246.45,246.45,0,0,0,30.91-53.36Z"/><path class="l" d="M181.27,359.18c3.78-1.42,8.38-2.81,10.23-6.77,1.23-2.66.15-6.92-3.11-7.34-3.64.47-4.16,5.82-1.41,7.75,1.17,2.67-2.19,1.22-2.44-.5-1.71-3.2-.47-8.37,3.48-9.07,3.52-.21,5.51,3.81,5.36,6.87,0,4.32-3.5,7.54-7.23,9.07-1.76,1-3.14,1.44-4.84,0Zm5.69,2.87c4.09-1,8.94-1.76,11.44-5.66,2.83-4.71,4-10.37,7.8-14.53,2.13-1.22,4.8-4.42,7.38-2.45,3,3.08,2.37,8.28,0,11.58-1,2.06-4.58,4.44-5.72,1.15-1.36-3.08,2.38-3.23,4.28-3.41,2.2-2,.48-6.34-2.4-6.4-2.57,1-3.24,4.09-4.34,6.36-2,4.62-3.42,10.05-8,12.79-2,.94-4.14,3.27-6.36,2.42L187,362.05ZM167.55,339c4-.22,9,1.2,10.4,5.34a3.94,3.94,0,0,1-4,5.2c-1.87,1.18-6.27-1.91-3.32-2.7,1.33,1.76,6.36,1.19,6-1.59-1-3.29-5-4.22-8-4.44-3.45-.11-7,2-10.33.17,1.53-1.74,5.24-1.27,7.63-1.83l1.58-.15Zm35.78,23.66c-.74-2.05,1.85-5.28,4-5.5,2.37.16,3.35,6.15,1,5.8-.09-1.47-.35-5.75-2.46-3C205,360.47,204.63,363,203.33,362.64Zm-7-7.57c-.77-2.32,2.26-5.26,0-7.75-.88-1.32-2.84-4.56.05-3.07,1.76,2.59,3.08,6,1.55,9C197.45,353.82,197.3,355.56,196.29,355.07Zm23.61-7.69c-2-1.19-4.53-3-3.74-5.64,1.58-2.29-1.26-4.38-1.34-6,1.58-1.7,3.2,2.55,3.19,4.09-1.24,2.59,0,4.86,2.53,5.95.79.4.33,2.21-.64,1.64Zm1.68-8.4a4.92,4.92,0,0,1,.29-6.33c1.67-.67.53-6.07,2.76-4.18-.56,2.42,1.18-3,1.74.06-1.86,2.64-.17,5.2-1.2,8C224.57,337.76,223.15,339.83,221.58,339Zm.67-1.62c2.62-.59,2.45-6.64.1-2.91A4.06,4.06,0,0,0,222.25,337.36Zm2.48-5.57C224.72,331.62,224.26,331.5,224.73,331.79Z"/><path class="j" d="M347.18,323.18c-31.39,9.6-78.78,31.75-92.07-53.36v-9.24c14.91,65.6,42.83,73,90.83,53.19a53.44,53.44,0,0,0,1.25,9.42Z"/><path class="m" d="M269.11,299.81l.53.9,1.2,14.91-1.41-2.1-.31-13.71Zm11.79,14.53,1.09.88,2.67,13.11-1.88-1.11Zm59.65,1.51,2.19,8.69-1.4.44a63.42,63.42,0,0,1-1.1-9l.32-.12Zm-7.29,2.6,2.22,8.41-1.52.48a63.67,63.67,0,0,1-1.32-8.69l.63-.2Zm-14.84,3.84,1.86,8.78-1.38.3a79.26,79.26,0,0,1-1.39-8.92l.91-.16Zm-20.48.24.82.16L301.64,333l-1.54-.11-2.17-10.3Z"/><path class="h" d="M154.54,249.91l5.72,62.19,24.61,13,41.1-1.9,28.39-33.8-1.09-51.64Z"/><path class="n" d="M158.26,251.14l-1.44.26,5.05,34.26a245.18,245.18,0,0,1,.26,27.47l1.44.76-.23-28.35c-.87-11.17-3-22.79-5.08-34.38Zm6.12,4.77-1.45.28L168.36,292a169.32,169.32,0,0,1-.41,24.17l1.41.75a171.83,171.83,0,0,0,.47-25c-.74-11.39-3.1-23.71-5.46-36Zm66.51,2.22-1.4.42L235,279.49l3.84,25.41,1.46-.19-3.87-25.52c-1.57-7.78-3.55-14.44-5.53-21.06Zm-57.53.67-1.44.23,4.64,34.39a239.11,239.11,0,0,1,.32,27.47l.28.15,1.19,0L178,293.29c-.83-10.4-2.75-22.45-4.66-34.5Zm15.68,5-1.45.2,3.82,32.28a216.72,216.72,0,0,1,0,24.75l1.46.06v-24.9c-.64-9.57-2.23-21-3.83-32.39Zm26.77.61-1.46.11L216,290.34l1.4,30.55,1.47-.06-1.4-30.57Zm-12,1.14-1.47.13,2.2,28.49.29,28.61h1.47L206,294.09Z"/><path class="b" d="M159.61,308.25l-7.24,6.28c36.62,22,87.7,30.91,101.21-17.2l-.48-9.58c-18.7,35.14-62.62,35.46-93.49,20.5Z"/><path class="o" d="M187.84,18.22l7.9,31.22L256,48h0l60.26,1.44,7.9-31.22C306,42.56,284.62,37.69,256,37.9h0C227.38,37.69,206,42.56,187.84,18.22Z"/><path class="p" d="M0,150.18c11-5.84,22.59-16.7,32.7-13.77l-2.48-9.75-22.37,5Z"/><path class="q" d="M106.06,154.14c17.17,13.56,32.54,28.6,38.62,51.24l51.62-42.44-35.22-40.53Z"/><path class="h" d="M141.28,214.94c0,2.68,4.19,31.86,4.19,31.86l71.9,15.75,37.8-25.73-2.5-105.88-86.25-9.19,1.09,61.11Z"/><path class="n" d="M170.15,125l-1.13.94L176.7,135c7,8.28,20.77,24.42,31.85,44.64,10.86,19.84,19.21,43.68,27.53,67.63l1.22-1c-8.26-23.77-16.6-47.48-27.48-67.33-11.16-20.37-25-36.61-32-44.89L170.15,125Zm51.1,3.91-1.25.78,32.68,52.84v-2.79Zm-22.29-3-1.3.69,52.71,100.74,1.3-.68Zm-28.39,29-1.23.8c13.19,20.14,26.37,40.27,34.23,57.93s10.47,32.92,13.08,48.28l1.44-.24c-2.61-15.36-5.28-30.8-13.18-48.65s-21.15-38-34.34-58.13Zm-2.46,22.58-.7.41,0,1.38c9.48,16.41,18.86,32.75,23.77,46.22,4.61,12.54,5.44,22.66,5.93,32.65l1.48.32c-.49-10.15-1.29-20.58-6-33.47-5.14-14-14.83-30.74-24.52-47.51Zm-5.58,19.35-1.3.67c5.86,11.41,11.71,22.8,15.32,32.71a130.93,130.93,0,0,1,6,24.72l1.54.34c-1.32-8-2.77-16.15-6.19-25.56-3.66-10-9.54-21.47-15.4-32.88Zm-9.71,9.55-1.29.69c4.69,8.68,9.29,17.18,12.22,25.42a111.73,111.73,0,0,1,4.67,19.34l1.54.34A113.6,113.6,0,0,0,165.12,232c-3-8.4-7.62-16.95-12.31-25.63Zm-6.66,3.52-1.12.44-.19.23c2.7,7,5.43,14.05,7.63,20.92,1.92,6,3.47,12,5,17.94l1.61.35c-1.56-6.16-3.16-12.46-5.17-18.74-2.23-7-5-14.12-7.72-21.13Z"/><path class="b" d="M142.91,249.64c44.88,18.37,91.36,27.9,109.64-7.53l-2.18-14.78c-8.64,31.11-45.59,38.22-106.11,17.13ZM171,130.41c11.44,42.39.86,69.46-31.37,87.34l-5.54-9.2c20-9.31,38.64-27.94,28.53-72.73Z"/><path class="p" d="M164.49,131.93l-7.68,16c-56,1.55-97.85,29.61-147.2,38.17l16.22-16Z"/><path class="c" d="M25.83,123.64a317.93,317.93,0,0,1-5.72,47.05l146.37-39.1-7.67-20.11Z"/><path class="g" d="M124.63,124.48a6.3,6.3,0,0,0-6.24,7.25c.19,3,1.34,5.81,1.41,8.8,1,2,2.2-1,1.26-2-.27-3.39-2.15-6.9-.66-10.24,1.45-2.69,5.88-3.33,7.7-.7,1.19,2.29-2,4.49-4,3.52-1.24-.73-3.26.68-1.24,1.36,2.51.78,5.95,0,6.84-2.76s-1.92-5.34-4.57-5.28h-.25Zm13.56.63c-1.6,1.55.44,4-.55,5.83a9.69,9.69,0,0,1-3.3,6.11c-1.12-.23-3.86,1.11-1.66,1.82,3,.09,5-2.8,5.79-5.36a12.39,12.39,0,0,0,.27-8.17.83.83,0,0,0-.55-.23ZM83.78,129c-4.53-.11-9,3-10.87,7.07-1.49,3.16,1.43,7.31,5,6.47a12,12,0,0,0,6.52-6.06C86,134,79,132,80.92,134.59c4.75.73-.59,5.21-2.56,6.32-2.93,1.57-5.86-2.54-3.88-5,2.47-4,7.85-7.05,12.41-4.73,3.62,1.55,1.26,5.66-.8,7.5C81,144,74.27,148.42,66.68,149c-1.64.14-4.85.84-1.83-.63,3-1.83,7.09-4,6.75-8.15-.33-1-.1-4.75-1.85-4.13-.26,2.46,1.7,5.9-1.07,7.87-4.56,4-11.21,6-13.82,11.9-.78,1.61-2.14,4.27.38,2.46,1.34-3.4,3.75-7.22,7.79-7.49,5.59-.43,11.35-1.39,16.09-4.62,4.13-2.79,8.39-6,10.7-10.5,1.56-3-1.24-6-4.11-6.44a8.39,8.39,0,0,0-1.94-.25Zm27.36.13c-.41,0-.82,0-1.23,0-5.39-.12-11.25,1.42-14.76,5.79a18.54,18.54,0,0,0-4.33,11.13c1.93,1.51,1.5-2.36,2-3.46C94.19,137,98.73,132,104.57,131.1a20.45,20.45,0,0,1,8.28-.15c2.49,1.21.41,4.67-1.92,4.15-1-.26-4-.77-2.63,1,2.57,1.15,6.41.25,7.2-2.73.53-2.46-2.13-4.28-4.35-4.24ZM55.42,130.5a2.41,2.41,0,0,0-.71.13,14.75,14.75,0,0,0-4.9,2.86c-5.75,5-6.6,15.45-7.15,23.21,0,2.39.35,6.71,2.18,7.63,1.6-1.25-1.51-4.41-.82-6.6.61-6.45.94-16.1,5-21.64,7-9.16,16.3,5,16,2.74s-6-8.56-9.59-8.34Zm-20.78,7.39a4,4,0,0,0-3,1.2c-3.2,3.17-4.37,7.87-5,12.2-.75,2.64,1.6,6.39,4.53,4.69,2.53-1.66,3-5,3.67-7.69-2.22-1.63-1.78,4-3.17,5.21-2,3.77-4.83-.68-3.53-3.22.77-3.76,1.77-8,4.9-10.55,3.44-1.94,4.91,3,5.1,5.54.6,5.51-.94,19-4.48,23.48,1.24-.69,2.91-.95,3.2-2.61,2.29-5.54,3.64-19.39,1.64-25.08a4.34,4.34,0,0,0-3.92-3.17ZM58.74,144c-1.76-.13-4.37,1.27-5.52,2.29a16.43,16.43,0,0,0-5.57,13.82c-.89,2,1.29,2.12,1.4.61-.37-4.43.72-9.12,4-12.3,1.79-2.17,4.9-4.47,7.43-2.15.06-1.58-.69-2.2-1.75-2.27ZM24.31,163.47l-.31.06-.25.19C24,165.43,26,170,28.3,168.65c-.53-.8-2.91-3.74-4-5.18Z"/><path class="b" d="M9.61,186.1l12.44-25.82-1.89,10.41c41.08-17.06,84.08-32.68,135.27-42.16l10.89,7C112,147.45,51.74,163.13,9.61,186.1Z"/><path class="r" d="M187.79,28.17l15.59,61.55,35.22-4.78L256,59.7l17.4,25.24,35.22,4.78,15.59-61.55C306,52.51,284.62,47.78,256,48h0C227.38,47.78,206,52.51,187.79,28.17Z"/><path class="s" d="M256,59.7c-21.51,27-33.84,23.34-48.21,26.51l2.44,7.17,44.3-2.7L256,69.46Zm0,9.76,1.47,21.22,44.3,2.7,2.44-7.17C289.84,83,277.51,86.66,256,59.7Z"/><path class="t" d="M256,69.61v0c-9.78,18-27.83,21.06-46.51,22.72l24.4,21.29,22.11,8.3h0l22.11-8.3,24.41-21.29c-18.69-1.66-36.74-4.69-46.52-22.72v0h0Z"/><path class="h" d="M183.15,16.49,151.8,33.13,167.28,110l65.58,15.3s5-11.67,4-12-29.25-22.36-29.25-22.36Z"/><path class="n" d="M187.39,32.45,156,53l.81,1.21,31.36-20.54Zm4.86,16.76L160.35,70l.8,1.22,31.9-20.83Zm6.87,18.87a6.15,6.15,0,0,0-.79.46L197,69.4l-4,2.82-11.35,8.15L165.72,92l.86,1.19L182.5,81.56l11.34-8.14,4-2.8,1.28-.84.57-.34Zm6,16.6-28.38,22.16.9,1.17L206,85.91l-.1-.31ZM210.85,96l-21.36,16.49.9,1.16,21.36-16.49Z"/><path class="b" d="M230.38,106.59l-3.16,6.17-23.8-23L180.86,20.13,150.08,36l-2.51-5.34,37.94-20.19,23.85,76.68Zm0,10.47-58.31-13.19-3.25,18.74,63.66,13.57Z"/><path class="u" d="M109.11,35C53.72,46.06,38.24,62.6,29.89,80.12h79.22Z"/><path class="c" d="M131.28,26.85,149.4,12l17.89,98L9.21,129.05c1.84-17.14,6.86-40.37,11.25-51,31.6-16.87,57.36-14.73,83.36-13.38L82.79,36c11.19-4.38,29.64-8.25,48.49-9.15Z"/><path class="g" d="M127.48,33.91h-1A32.75,32.75,0,0,0,104.93,43c-4.68,5.3,2.45,11.14,8,9.58,4.84-.41,9.53-5.32,8.44-10.25-1-.88-1.76,1.07-1.31,1.82-.14,7.41-13.85,10.26-15.1,2.48,1.92-5.93,9-8,14.27-10.13a22.08,22.08,0,0,1,23.67,6.56c3.31,3.1,5.58,7.27,8.38,10.68,1.32.21,1-1.94.07-2.2C145.92,43.22,138.2,34.12,127.49,34Zm2,14.07c-16.31,1.48-10.38,21.28-8.87,21.31S104,70.27,100,75.65c-3.24,4.4,3.38-.45,9.63-1.59,11.14-2,24-.17,32.88,6.56,7.65,6.23,11.79,16.32,15.28,25.44,1.76-1.23,6.7-.79,5.34-3.66-2.44-8.2-8.31-14.69-13.77-21.05,1.16-7-5.92-10.65-11.22-12.46-5-1.71-9.11-12.34-1.17-10.23,1.92.34.13,4,2.21,3.6,2-2.81-2.53-7-5.49-5.36-6.16,3.37-1,11.21,3.7,13.21,3.9,1.78,11.69,6.14,10,9.11-4.77-5.48-12.94-7.63-19.59-10.15-4.72-1.8-8.06-8.47-4.54-13.4,5.2-5.29,14.78-3.51,19.31,1.87,4.74-1.51-4.27-8.48-7.4-8.92a14.79,14.79,0,0,0-4.9-.69h-.82Zm-20.67,10.7c-1.8.55.28,3.19-.66,4.39-.12,2.95-2.86,4.5-4.4,6.47.44,1.9,2.75-.36,3.23-1.06,2.12-2.35,4.07-6.93,2.12-9.75a.71.71,0,0,0-.29,0ZM27.92,77.38c-6.6.42-8,8.35-8.9,13.65-.72,5.2-1.82,11.35-6.09,14.66l-.39,1.94c7.43-4.13,8.23-13.49,8.89-20.95.4-4.56,8.9-11.37,8.34-5.25-.12,1.37-4.49-1.05-3.33.67,3.55,5.24,8.18-4.75,1.48-4.67Zm83.28-.95c-2.13,0-1.79,1.34.84,1.48,13.49.4,28.15,8.54,33.27,21.68,1.6,4.08,1.5,8.54,1.76,12.83l1.47-.17c.28-9.16-2.55-18.77-9.95-24.66-7.53-6.48-17.48-11.13-27.4-11.15Zm-41.59,2a64.79,64.79,0,0,0-35.33,24.42c-6.15,8.1-14.11,15.59-24.07,18.33L10,122.75C21.5,120,30.07,111,37,101.83,45.24,91,57.22,83.44,70.16,79.67a.73.73,0,0,0-.55-1.22Zm43,2c-7.15,0-16.56,3.28-17.39,11.51-.88,9.12,10.21,16.25,18.21,12.31.6-1.54-1.93-1.2-2.56-.63-7.88,2-16.95-6.39-13.47-14.35,4.51-7.72,15.65-8.87,23.34-5.75,10.52,4.18,13.5,18,8.51,27.38,0,1.28,1.85.81,1.74-.33,5-10.24.89-24.72-10.36-28.69a21.89,21.89,0,0,0-8-1.45ZM90.24,83.31c-1.76-1-2.1,12.18-6.74,16.64-3.88,4.81-11.83,9.8-17.35,4.75-7.79-7.14,11.68-16.71,5.35-4-3.23,5,4.86,2.78,5.45-1.78.86-6.59-5.09-10.72-10.16-7.73C60.38,94,56.48,104.5,63,109.17c6.93,3.83,15.36-.55,20.63-5.33,4.93-5,9.15-19.07,6.59-20.54Zm-58,2c-7.31.68-7.52,9.38-9.55,14.8-1.69,5.93-5.51,11.7-11.32,14L11,116a1.09,1.09,0,0,0,.49-.37C21,112.32,25.15,102,26.26,93c.92-7.38,12.53-8.16,9.68-.13-.68,2.6-3.77,1.69-5.14,3.08-.09,2,3.29.55,4.13,0C40,93.36,38,85.1,32.19,85.34ZM47.81,98.54a4.07,4.07,0,0,0-.61,0c-7.7,1.15-7.05,12.62-12.51,17.41-.44,1.71-4,2.49-3.34,4.42,1.51,1.12,2.64-2,3.68-2.55,5.72-4.69,5.11-15.7,12.09-17.81,3.92-1.19.3,7.81-.88,5.67.18-1.32-2-1-1.6.38,3.2,6.34,9.12-7.62,3.17-7.56Z"/><path class="b" d="M154.86,119.35C54.12,119.22,13.47,123.83,0,150.14l2.68-18.36c29.9-21.84,98.79-25,152.7-23.41Zm7.79-13.14,8-2.44C163,69.42,146.7,13,155.89,3.46L131.23,26.85l14.47-8.79c-5.26,11.45,11,58.4,16.9,88.14Z"/><path class="v" d="M173.19,111.08l5.66-5.68,1.38.3,0-1.55-10.14-9.24-1.52-.29.38,1.54-4.24,9.24Z"/><ellipse class="w" cx="163.66" cy="118.49" rx="15.29" ry="17.97"/><ellipse class="x" cx="162.7" cy="118.49" rx="10.98" ry="12.9"/><path class="h" d="M357.46,249.91l-5.72,62.19-24.61,13-41.1-1.9-28.39-33.8,1.09-51.64Z"/><path class="n" d="M353.74,251.14l1.44.26-5.05,34.26a245.18,245.18,0,0,0-.26,27.47l-1.44.76.23-28.35c.87-11.17,3-22.79,5.08-34.38Zm-6.12,4.77,1.45.28L343.64,292a169.32,169.32,0,0,0,.41,24.17l-1.41.75a171.83,171.83,0,0,1-.47-25c.74-11.39,3.1-23.71,5.46-36Zm-66.51,2.22,1.4.42L277,279.49l-3.84,25.41-1.46-.19,3.87-25.52c1.57-7.78,3.55-14.44,5.53-21.06Zm57.53.67,1.44.23-4.64,34.39a239.11,239.11,0,0,0-.32,27.47l-.28.15-1.19,0,.32-27.78c.83-10.4,2.75-22.45,4.66-34.5Zm-15.68,5,1.45.2-3.82,32.28a216.72,216.72,0,0,0,0,24.75l-1.46.06v-24.9c.64-9.57,2.23-21,3.83-32.39Zm-26.77.61,1.46.11L296,290.34l-1.4,30.55-1.47-.06,1.4-30.57Zm12,1.14,1.47.13-2.2,28.49-.29,28.61h-1.47l.29-28.68Z"/><path class="b" d="M352.39,308.25l7.24,6.28c-36.62,22-87.7,30.91-101.21-17.2l.48-9.58c18.7,35.14,62.62,35.46,93.49,20.5Z"/><path class="o" d="M256,48l60.26,1.44,7.9-31.22C306,42.56,284.61,37.68,256,37.9Z"/><path class="p" d="M512,150.18c-11-5.84-22.59-16.7-32.7-13.77l2.48-9.75,22.37,5Z"/><path class="q" d="M405.94,154.14c-17.17,13.56-32.54,28.6-38.62,51.24L315.7,162.94l35.22-40.53Z"/><path class="h" d="M370.72,214.94c0,2.68-4.19,31.86-4.19,31.86l-71.9,15.75-37.8-25.73,2.5-105.88,86.25-9.19-1.09,61.11Z"/><path class="n" d="M341.85,125l1.13.94L335.3,135c-7,8.28-20.77,24.42-31.85,44.64-10.86,19.84-19.21,43.68-27.53,67.63l-1.22-1c8.26-23.77,16.6-47.48,27.48-67.33,11.16-20.37,25-36.61,32-44.89l7.67-9.05Zm-51.1,3.91,1.25.78-32.68,52.84v-2.79Zm22.29-3,1.3.69L261.63,227.33l-1.3-.68Zm28.39,29,1.23.8c-13.19,20.14-26.37,40.27-34.23,57.93S298,246.55,295.35,261.91l-1.44-.24c2.61-15.36,5.28-30.8,13.18-48.65s21.15-38,34.34-58.13Zm2.46,22.58.7.41,0,1.38c-9.48,16.41-18.86,32.75-23.77,46.22-4.61,12.54-5.44,22.66-5.93,32.65l-1.48.32c.49-10.15,1.29-20.58,6-33.47,5.14-14,14.83-30.74,24.52-47.51Zm5.58,19.35,1.3.67c-5.86,11.41-11.71,22.8-15.32,32.71a130.93,130.93,0,0,0-6,24.72l-1.54.34c1.32-8,2.77-16.15,6.19-25.56,3.66-10,9.54-21.47,15.4-32.88Zm9.71,9.55,1.29.69c-4.69,8.68-9.29,17.18-12.22,25.42a111.73,111.73,0,0,0-4.67,19.34l-1.54.34A113.6,113.6,0,0,1,346.88,232c3-8.4,7.62-16.95,12.31-25.63Zm6.66,3.52,1.12.44.19.23c-2.7,7-5.43,14.05-7.63,20.92-1.92,6-3.47,12-5,17.94l-1.61.35c1.56-6.16,3.16-12.46,5.17-18.74,2.23-7,5-14.12,7.72-21.13Z"/><path class="b" d="M369.09,249.64c-44.88,18.37-91.36,27.9-109.64-7.53l2.18-14.78c8.64,31.11,45.59,38.22,106.11,17.13ZM341,130.41c-11.44,42.39-.86,69.46,31.37,87.34l5.54-9.2c-20-9.31-38.64-27.94-28.53-72.73Z"/><path class="p" d="M347.51,131.93l7.68,16c56,1.55,97.85,29.61,147.2,38.17l-16.22-16Z"/><path class="c" d="M486.17,123.64a317.93,317.93,0,0,0,5.72,47.05l-146.37-39.1,7.67-20.11Z"/><path class="g" d="M387.37,124.48a6.3,6.3,0,0,1,6.24,7.25c-.19,3-1.34,5.81-1.41,8.8-1,2-2.2-1-1.26-2,.27-3.39,2.15-6.9.66-10.24-1.45-2.69-5.88-3.33-7.7-.7-1.19,2.29,2,4.49,4,3.52,1.24-.73,3.26.68,1.24,1.36-2.51.78-6,0-6.84-2.76s1.92-5.34,4.57-5.28h.25Zm-13.56.63c1.6,1.55-.44,4,.55,5.83a9.69,9.69,0,0,0,3.3,6.11c1.12-.23,3.86,1.11,1.66,1.82-3,.09-5-2.8-5.79-5.36a12.39,12.39,0,0,1-.27-8.17.83.83,0,0,1,.55-.23ZM428.22,129c4.53-.11,9,3,10.87,7.07,1.49,3.16-1.43,7.31-5,6.47a12,12,0,0,1-6.52-6.06C426,134,433,132,431.08,134.59c-4.75.73.59,5.21,2.56,6.32,2.93,1.57,5.86-2.54,3.88-5-2.47-4-7.85-7.05-12.41-4.73-3.62,1.55-1.26,5.66.8,7.5C431,144,437.73,148.42,445.32,149c1.64.14,4.85.84,1.83-.63-3-1.83-7.09-4-6.75-8.15.33-1,.1-4.75,1.85-4.13.26,2.46-1.7,5.9,1.07,7.87,4.56,4,11.21,6,13.82,11.9.78,1.61,2.14,4.27-.38,2.46-1.34-3.4-3.75-7.22-7.79-7.49-5.59-.43-11.35-1.39-16.09-4.62-4.13-2.79-8.39-6-10.7-10.5-1.56-3,1.24-6,4.11-6.44a8.39,8.39,0,0,1,1.94-.25Zm-27.36.13c.41,0,.82,0,1.23,0,5.39-.12,11.25,1.42,14.76,5.79a18.54,18.54,0,0,1,4.33,11.13c-1.93,1.51-1.5-2.36-2-3.46-1.39-5.59-5.93-10.58-11.77-11.49a20.45,20.45,0,0,0-8.28-.15c-2.49,1.21-.41,4.67,1.92,4.15,1-.26,4-.77,2.63,1-2.57,1.15-6.41.25-7.2-2.73-.53-2.46,2.13-4.28,4.35-4.24Zm55.72,1.39a2.41,2.41,0,0,1,.71.13,14.75,14.75,0,0,1,4.9,2.86c5.75,5,6.6,15.45,7.15,23.21,0,2.39-.35,6.71-2.18,7.63-1.6-1.25,1.51-4.41.82-6.6-.61-6.45-.94-16.1-5-21.64-7-9.16-16.3,5-16,2.74s5.95-8.56,9.59-8.34Zm20.78,7.39a4,4,0,0,1,3,1.2c3.2,3.17,4.37,7.87,5,12.2.75,2.64-1.6,6.39-4.53,4.69-2.53-1.66-3-5-3.67-7.69,2.22-1.63,1.78,4,3.17,5.21,2,3.77,4.83-.68,3.53-3.22-.77-3.76-1.77-8-4.9-10.55-3.44-1.94-4.91,3-5.1,5.54-.6,5.51.94,19,4.48,23.48-1.24-.69-2.91-.95-3.2-2.61-2.29-5.54-3.64-19.39-1.64-25.08a4.34,4.34,0,0,1,3.92-3.17ZM453.26,144c1.76-.13,4.37,1.27,5.52,2.29a16.43,16.43,0,0,1,5.57,13.82c.89,2-1.29,2.12-1.4.61.37-4.43-.72-9.12-4-12.3-1.79-2.17-4.9-4.47-7.43-2.15-.06-1.58.69-2.2,1.75-2.27Zm34.43,19.44.31.06.25.19c-.23,1.71-2.23,6.32-4.55,4.93.53-.8,2.91-3.74,4-5.18Z"/><path class="b" d="M502.39,186.1,490,160.28l1.89,10.41c-41.08-17.06-84.08-32.68-135.27-42.16l-10.89,7c54.32,11.92,114.58,27.6,156.71,50.57Z"/><path class="r" d="M256,59.69l17.4,25.25,35.22,4.78,15.59-61.55C306,52.51,284.61,47.78,256,48Z"/><path class="s" d="M256,69.46l1.47,21.22,44.3,2.7,2.44-7.17C289.84,83,277.51,86.66,256,59.7Z"/><path class="t" d="M256,69.61c9.77,18,27.83,21.08,46.52,22.74l-24.41,21.29L256,122Z"/><path class="h" d="M328.85,16.49,360.2,33.13,344.72,110l-65.58,15.3s-5-11.67-4-12,29.25-22.36,29.25-22.36Z"/><path class="n" d="M324.61,32.45,356,53l-.81,1.21L323.81,33.68Zm-4.86,16.76L351.65,70l-.8,1.22L319,50.43Zm-6.87,18.87a6.15,6.15,0,0,1,.79.46l1.31.86,4,2.82,11.35,8.15L346.28,92l-.86,1.19L329.5,81.56l-11.34-8.14-4-2.8-1.28-.84-.57-.34Zm-6.05,16.6,28.38,22.16-.9,1.17L306,85.91l.1-.31ZM301.15,96l21.36,16.49-.9,1.16L300.25,97.19Z"/><path class="b" d="M281.62,106.59l3.16,6.17,23.8-23,22.56-69.59L361.92,36l2.51-5.34L326.49,10.46,302.64,87.14Zm0,10.47,58.31-13.19,3.25,18.74-63.66,13.57Z"/><path class="u" d="M402.89,35c55.39,11.1,70.87,27.64,79.22,45.16H402.89Z"/><path class="c" d="M380.72,26.85,362.6,12l-17.89,98,158.08,19.07c-1.84-17.14-6.86-40.37-11.25-51-31.6-16.87-57.36-14.73-83.36-13.38l21-28.68c-11.19-4.38-29.64-8.25-48.49-9.15Z"/><path class="g" d="M384.52,33.91h1.05A32.75,32.75,0,0,1,407.07,43c4.68,5.3-2.45,11.14-8,9.58-4.84-.41-9.53-5.32-8.44-10.25,1-.88,1.76,1.07,1.31,1.82.14,7.41,13.85,10.26,15.1,2.48-1.92-5.93-9-8-14.27-10.13a22.08,22.08,0,0,0-23.67,6.56c-3.31,3.1-5.58,7.27-8.38,10.68-1.32.21-1-1.94-.07-2.2,5.41-8.31,13.13-17.41,23.84-17.58Zm-2,14.07c16.31,1.48,10.38,21.28,8.87,21.31s16.63,1,20.63,6.36c3.24,4.4-3.38-.45-9.63-1.59-11.14-2-24.05-.17-32.88,6.56-7.65,6.23-11.79,16.32-15.28,25.44-1.76-1.23-6.7-.79-5.34-3.66,2.44-8.2,8.31-14.69,13.77-21.05-1.16-7,5.92-10.65,11.22-12.46,5-1.71,9.11-12.34,1.17-10.23-1.92.34-.13,4-2.21,3.6-2-2.81,2.53-7,5.49-5.36,6.16,3.37,1.05,11.21-3.7,13.21-3.9,1.78-11.69,6.14-10,9.11,4.77-5.48,12.94-7.63,19.59-10.15,4.72-1.8,8.06-8.47,4.54-13.4-5.2-5.29-14.78-3.51-19.31,1.87-4.74-1.51,4.27-8.48,7.4-8.92a14.79,14.79,0,0,1,4.9-.69h.82Zm20.67,10.7c1.8.55-.28,3.19.66,4.39.12,2.95,2.86,4.5,4.4,6.47-.44,1.9-2.75-.36-3.23-1.06-2.12-2.35-4.07-6.93-2.12-9.75a.71.71,0,0,1,.29,0Zm80.89,18.7c6.6.42,7.95,8.35,8.9,13.65.72,5.2,1.82,11.35,6.09,14.66l.39,1.94c-7.43-4.13-8.23-13.49-8.89-20.95-.4-4.56-8.9-11.37-8.34-5.25.12,1.37,4.49-1.05,3.33.67-3.55,5.24-8.18-4.75-1.48-4.67Zm-83.28-.95c2.13,0,1.79,1.34-.84,1.48-13.49.4-28.15,8.54-33.27,21.68-1.6,4.08-1.5,8.54-1.76,12.83l-1.47-.17c-.28-9.16,2.55-18.77,10-24.66,7.53-6.48,17.48-11.13,27.4-11.15Zm41.59,2a64.79,64.79,0,0,1,35.33,24.42c6.15,8.1,14.11,15.59,24.07,18.33l.22,1.54C490.5,120,481.93,111,475,101.83,466.76,91,454.78,83.44,441.84,79.67a.73.73,0,0,1,.55-1.22Zm-43,2c7.15,0,16.56,3.28,17.39,11.51.88,9.12-10.21,16.25-18.21,12.31-.6-1.54,1.93-1.2,2.56-.63,7.88,2,16.95-6.39,13.47-14.35-4.51-7.72-15.65-8.87-23.34-5.75-10.52,4.18-13.5,18-8.51,27.38,0,1.28-1.85.81-1.74-.33-5-10.24-.89-24.72,10.36-28.69a21.89,21.89,0,0,1,8-1.45Zm22.38,2.89c1.76-1,2.1,12.18,6.74,16.64,3.88,4.81,11.83,9.8,17.35,4.75,7.79-7.14-11.68-16.71-5.35-4,3.23,5-4.86,2.78-5.45-1.78-.86-6.59,5.09-10.72,10.16-7.73,6.41,2.86,10.31,13.36,3.77,18-6.93,3.83-15.36-.55-20.63-5.33-4.93-5-9.15-19.07-6.59-20.54Zm58.05,2c7.31.68,7.52,9.38,9.55,14.8,1.69,5.93,5.51,11.7,11.32,14l.3,1.8a1.09,1.09,0,0,1-.49-.37C491,112.32,486.85,102,485.74,93c-.92-7.38-12.53-8.16-9.68-.13.68,2.6,3.77,1.69,5.14,3.08.09,2-3.29.55-4.13,0C472,93.36,474,85.1,479.81,85.34ZM464.19,98.54a4.07,4.07,0,0,1,.61,0c7.7,1.15,7.05,12.62,12.51,17.41.44,1.71,4,2.49,3.34,4.42-1.51,1.12-2.64-2-3.68-2.55-5.72-4.69-5.11-15.7-12.09-17.81-3.92-1.19-.3,7.81.88,5.67-.18-1.32,2-1,1.6.38-3.2,6.34-9.12-7.62-3.17-7.56Z"/><path class="b" d="M357.14,119.35c100.74-.13,141.39,4.48,154.86,30.79l-2.68-18.36c-29.9-21.84-98.79-25-152.7-23.41Zm-7.79-13.14-8-2.44C349,69.42,365.3,13,356.11,3.46l24.66,23.39L366.3,18.06c5.26,11.45-11,58.4-16.9,88.14Z"/><path class="v" d="M338.81,111.08l-5.66-5.68-1.38.3,0-1.55L342,94.91l1.52-.29-.38,1.54,4.24,9.24Z"/><ellipse class="w" cx="348.34" cy="118.49" rx="15.29" ry="17.97"/><ellipse class="x" cx="349.3" cy="118.49" rx="10.98" ry="12.9"/><path class="y" d="M249.88,144.59H260.4V360.46H249.88Z"/><path class="t" d="M236.86,93.53l-7.14,39.52h16.75L256,112.76l9.53,20.29h16.75l-7.13-39.52H236.86Z"/><path class="z" d="M242,99.2l12.59,21.17-3.43,4-17.46-16.6Z"/><path class="s" d="M256,112.76c-5.08,7.26-9.35,14.94-19,19.84l7.18,7.59L256,122.07l11.81,18.12L275,132.6c-9.65-4.89-13.92-12.58-19-19.84Z"/><path class="z" d="M270,99.2l-12.59,21.17,3.43,4,17.46-16.6Z"/><path class="x" d="M256,112.76v9.31l11.81,18.12L275,132.6c-9.65-4.85-13.92-12.58-19-19.84Z"/><path class="t" d="M256,122.07a67.37,67.37,0,0,1-14.27,15.85l9,4.59L256,141.1l5.23,1.41,9-4.59A67.19,67.19,0,0,1,256,122.07Z"/><path class="b" d="M256,87.05a30.77,30.77,0,1,0,30.77,30.77A30.77,30.77,0,0,0,256,87.05ZM256,96a22.57,22.57,0,1,1-22.57,22.57A22.59,22.59,0,0,1,256,96Z"/><path class="aa" d="M243.58,344.79l5.91-.27,30.45-1.08,4,6.52-4.14,6.6-30-.93-5.53-.32-20,.21-.36-10.91Z"/><path class="y" d="M249.49,344.52,251,342.7l7.68-.4,2.12,1.63.37,11.19-1.49,2.63-8.07-.17-1.84-2-5.54-.32.18,2.8,3.6,3.81,13.83-.22,2.66-3.61-.12-17.24L261.67,338l-13.79-.15-3.44,3.83,0,3.13Z"/><ellipse class="ab" cx="256.17" cy="349.94" rx="2.02" ry="2.36" transform="translate(-1.2 0.88) rotate(-0.2)"/><path class="ac" d="M256.6,348.28c-2.19.48-1.56,3.62.12,3.74,2.41.19,7.9.18,10.67.06,2.52-.11,1.58-4.49-.41-4.51a64.17,64.17,0,0,0-10.37.7Z"/><path class="y" d="M230.9,338.3A7.42,7.42,0,0,1,229.58,351a7.43,7.43,0,0,1,3.35,10,7.67,7.67,0,0,1-.71,1.16A7.43,7.43,0,0,1,218.86,358a7.43,7.43,0,1,1,.22-14.85,7.44,7.44,0,0,1,8.44-6.27,7.36,7.36,0,0,1,3.38,1.42Z"/><circle class="ad" cx="226.66" cy="343.93" r="3.85" transform="translate(-184.45 318.32) rotate(-53.05)"/><circle class="ad" cx="226.51" cy="357.31" r="3.85" transform="translate(-195.2 323.54) rotate(-53.05)"/><circle class="ad" cx="219.21" cy="350.27" r="3.85" transform="translate(-192.48 314.9) rotate(-53.05)"/><path class="y" d="M280.54,338.3A7.42,7.42,0,0,0,281.86,351a7.45,7.45,0,0,0-3.35,10,7,7,0,0,0,.72,1.16A7.43,7.43,0,0,0,292.59,358a7.43,7.43,0,1,0-.22-14.85,7.43,7.43,0,0,0-11.83-4.85Z"/><circle class="ad" cx="284.79" cy="343.93" r="3.85" transform="translate(-149.55 240.27) rotate(-36.95)"/><circle class="ad" cx="284.94" cy="357.31" r="3.85" transform="translate(-157.56 243.05) rotate(-36.95)"/><circle class="ad" cx="292.24" cy="350.27" r="3.85" transform="translate(-151.86 246.02) rotate(-36.95)"/><path class="aa" d="M241.34,283l7-.31,35.85-1.27,4.72,7.67L284,296.84l-35.36-1.11-6.51-.37-23.56.24-.43-12.84Z"/><path class="y" d="M248.3,282.66l1.77-2.15,9.05-.47,2.49,1.92v14.13l-1.33,2.14-9.5-.2-2.16-2.34-6.52-.37.21,3.3,4.24,4.49,16.27-.26L266,298.6l-.14-20.31-3.19-3.37-16.24-.17-4.05,4.51,0,3.68Z"/><ellipse class="ab" cx="256.16" cy="289.04" rx="2.38" ry="2.78" transform="translate(-1 0.89) rotate(-0.2)"/><path class="ac" d="M256.67,287.08c-2.57.56-1.83,4.27.14,4.41,2.84.22,9.31.21,12.56.06,3-.12,1.87-5.29-.47-5.31a76.75,76.75,0,0,0-12.22.83Z"/><path class="y" d="M226.41,275.33a8.76,8.76,0,0,1-1.55,14.91A8.75,8.75,0,0,1,228.8,302a8.39,8.39,0,0,1-.84,1.37,8.75,8.75,0,0,1-15.73-4.82,8.74,8.74,0,0,1,.26-17.48,8.74,8.74,0,0,1,13.92-5.71Z"/><circle class="ad" cx="221.42" cy="281.96" r="4.53" transform="translate(-137.01 289.42) rotate(-53.05)"/><circle class="ad" cx="221.24" cy="297.72" r="4.53" transform="translate(-149.68 295.56) rotate(-53.05)"/><circle class="ad" cx="212.64" cy="289.42" r="4.53" transform="translate(-146.48 285.38) rotate(-53.05)"/><path class="y" d="M284.86,275.33a8.75,8.75,0,0,0,1.56,14.91A8.75,8.75,0,0,0,282.47,302a9.14,9.14,0,0,0,.84,1.37,8.76,8.76,0,0,0,15.74-4.82,8.74,8.74,0,0,0-.26-17.48,8.75,8.75,0,0,0-13.93-5.71Z"/><circle class="ad" cx="289.86" cy="281.96" r="4.53" transform="translate(-111.28 230.87) rotate(-36.95)"/><circle class="ad" cx="290.04" cy="297.72" r="4.53" transform="translate(-120.71 234.14) rotate(-36.95)"/><circle class="ad" cx="298.63" cy="289.42" r="4.53" transform="translate(-114 237.64) rotate(-36.95)"/><path class="aa" d="M238.37,218.77l8.35-.37,43-1.52,5.66,9.2-5.84,9.34-42.43-1.33-7.82-.45-28.27.3-.52-15.41Z"/><path class="y" d="M246.72,218.4l2.12-2.58,10.87-.56,3,2.3.25,17.23-1.83,2.31-11.4-.25-2.6-2.8-7.82-.45.25,4,5.08,5.38,19.54-.31,3.76-5.1-.17-24.37-3.82-4-19.5-.21-4.85,5.41,0,4.42Z"/><ellipse class="ab" cx="256.15" cy="226.06" rx="2.86" ry="3.34" transform="translate(-0.78 0.89) rotate(-0.2)"/><path class="ac" d="M256.76,223.71c-3.09.68-2.2,5.12.17,5.29,3.4.26,11.17.25,15.07.08,3.56-.15,2.24-6.35-.57-6.38-3.54,0-11.18.25-14.66,1Z"/><path class="y" d="M220.45,209.6a10.51,10.51,0,0,1-1.87,17.9,10.5,10.5,0,0,1,4.74,14.08,10.17,10.17,0,0,1-1,1.64,10.5,10.5,0,0,1-18.88-5.78,10.49,10.49,0,1,1,.31-21,10.52,10.52,0,0,1,16.71-6.86Z"/><circle class="ad" cx="214.45" cy="217.56" r="5.44" transform="matrix(0.6, -0.8, 0.8, 0.6, -88.33, 258.16)"/><circle class="ad" cx="214.24" cy="236.47" r="5.44" transform="translate(-103.52 265.54) rotate(-53.05)"/><circle class="ad" cx="203.92" cy="226.52" r="5.44" transform="translate(-99.68 253.32) rotate(-53.05)"/><path class="y" d="M290.6,209.6a10.5,10.5,0,0,0,1.86,17.9,10.49,10.49,0,0,0-4.73,14.08,10.12,10.12,0,0,0,1,1.64,10.51,10.51,0,0,0,18.89-5.78,10.49,10.49,0,0,0-.32-21,10.51,10.51,0,0,0-16.7-6.86Z"/><circle class="ad" cx="296.59" cy="217.56" r="5.44" transform="translate(-71.21 221.98) rotate(-36.95)"/><circle class="ad" cx="296.8" cy="236.47" r="5.44" transform="translate(-82.54 225.91) rotate(-36.95)"/><circle class="ad" cx="307.12" cy="226.52" r="5.44" transform="translate(-74.48 230.11) rotate(-36.95)"/><path class="aa" d="M239.68,162l7.84-.35,40.42-1.43,5.31,8.65-5.49,8.76-39.86-1.24-7.34-.42-26.56.27-.48-14.47Z"/><path class="y" d="M247.52,161.65l2-2.43,10.2-.52,2.81,2.16.22,16.13L261,179.21,250.33,179l-2.44-2.63-7.35-.42.23,3.71,4.78,5.06,18.35-.29,3.54-4.79-.16-22.89-3.59-3.8-18.32-.2-4.56,5.08.05,4.15Z"/><ellipse class="ab" cx="256.38" cy="168.84" rx="2.68" ry="3.14" transform="translate(-0.58 0.89) rotate(-0.2)"/><path class="ac" d="M257,166.64c-2.91.63-2.07,4.8.15,5,3.2.24,10.49.23,14.16.07,3.35-.14,2.11-6-.53-6a85.79,85.79,0,0,0-13.78.93Z"/><path class="y" d="M222.84,153.38a9.87,9.87,0,0,1,1.94,13.82,9.71,9.71,0,0,1-3.69,3,9.87,9.87,0,0,1,4.45,13.23,10,10,0,0,1-.95,1.53,9.87,9.87,0,0,1-17.74-5.42,9.86,9.86,0,0,1,.3-19.72,9.87,9.87,0,0,1,15.69-6.44Z"/><circle class="ad" cx="217.21" cy="160.86" r="5.11" transform="translate(-41.91 237.75) rotate(-53.05)"/><circle class="ad" cx="217.01" cy="178.63" r="5.11" transform="translate(-56.19 244.68) rotate(-53.05)"/><circle class="ad" cx="207.32" cy="169.27" r="5.11" transform="translate(-52.58 233.2) rotate(-53.05)"/><path class="y" d="M288.74,153.38a9.87,9.87,0,0,0-1.94,13.82,9.71,9.71,0,0,0,3.69,3A9.87,9.87,0,0,0,286,183.43,10,10,0,0,0,287,185a9.87,9.87,0,0,0,17.74-5.42,9.86,9.86,0,0,0-.3-19.72,9.87,9.87,0,0,0-15.69-6.44Z"/><circle class="ad" cx="294.37" cy="160.86" r="5.11" transform="translate(-37.58 209.26) rotate(-36.95)"/><circle class="ad" cx="294.57" cy="178.63" r="5.11" transform="translate(-48.21 212.95) rotate(-36.95)"/><circle class="ad" cx="304.26" cy="169.27" r="5.11" transform="translate(-40.65 216.9) rotate(-36.95)"/></svg>