<svg xmlns="http://www.w3.org/2000/svg" viewBox="0 0 512 512"><defs><style>.a{fill:#422a10;}.b{fill:#845623;}.c{fill:#734b1f;}.d{fill:#4d3413;}.e{fill:#dcd78a;}.f{fill:#71441b;}.g{fill:#37200b;}.h{fill:#43270d;}.i{fill:#d2a93d;}.j{fill:#463429;}.k{fill:#b5aa67;}.l{fill:#2d1a09;}.m{fill:#7e5222;}.n{fill:#211c0a;}.o{fill:#806226;}.p{fill:#92844e;}.q{fill:#735a2d;}.r{fill:#7f6637;}.s{fill:#d2a93e;}.t{fill:#905623;}.u{fill:#614019;}</style></defs><title>armour_god_fire_boots</title><path class="a" d="M270.6,449.26l10.63-2.81-10.49-5.2Z"/><path class="b" d="M305.43,470.34c-4.73-2.7-53.9-41.17-53.9-41.17l4.52-55,5.16-24.55,105,10.83L410,418.24l8.85,8L397,458.83Z"/><path class="c" d="M348.36,370.08l-.79,2a1,1,0,0,1,.33.15,7.35,7.35,0,0,1,1.07,1q3.5,3.54,6.78,7.29c7.35,8.19,21.65,24.59,41.55,33a85.29,85.29,0,0,0,12.18,4.06l-2.14-2.83a81.64,81.64,0,0,1-9.19-3.22c-19.33-8.2-33.42-24.26-40.81-32.49l-6.88-7.39a11.57,11.57,0,0,0-1.32-1.15,3.59,3.59,0,0,0-.78-.43ZM319,375.26l-1.76,1.22a24.08,24.08,0,0,0,2.39,2.85L329.87,390l54.57,55.23,1.53-1.52-54.56-55.22L321.25,377.9,319,375.28Zm14,3.2-1.4,1.65L384.67,425l1.4-1.63Zm-35.73,10.62L296,390.86c19.69,13.67,39.33,27.29,53.31,43.44a147.26,147.26,0,0,1,18.73,28.15l2.29-.29A150.35,150.35,0,0,0,351,432.88c-14.25-16.46-34-30.15-53.71-43.81Zm-5.57,3.43-1.39,1.62,22.56,20.15c5.57,5.1,12.43,11.47,16.78,18.3s6.2,13.93,2.13,21.09c-2.87,5.05-8.93,10.27-17,15.49l4.85-.6c6.45-4.5,11.39-9.07,14.08-13.81,4.52-7.94,2.39-16.11-2.18-23.3s-11.55-13.63-17.14-18.73l-22.62-20.19Zm-13.58,13.24-1.29,1.74c8.36,6.19,16.68,12.37,21.9,18.2,2.6,2.91,4.43,5.73,5.14,8.32a8.1,8.1,0,0,1-1.23,7.34c-2.81,4-10.05,8.17-19.78,12.1l2,1.54c9.28-3.8,16.32-7.77,19.56-12.41a10.55,10.55,0,0,0,1.54-9.14c-.87-3.09-2.89-6.13-5.63-9.19-5.47-6.1-13.86-12.3-22.21-18.49Z"/><path class="a" d="M379.11,377.46c-43.27-6.72-94,39.19-106.36,69.36-.4,1-1.79,1.38-2.16,2.43l-11.82-30.09,99.91-65.56Z"/><path class="d" d="M270.6,449.26l-26-20.46c-7.82-24.06,16.69-94.14,108.42-91.29,8.75,11.78,27.11,25.09,27,41.08-5.23-5.74-12.4-8.48-20.68-8.59l-26.44-4.33-18.18,20.16C291.67,401,272,425,270.59,449.26Z"/><path class="b" d="M314.64,385.82c12.8-8.1,25.88-15.82,44.62-15.82l-30.4-33.56L291.8,355.27Z"/><path class="e" d="M438.78,451.68l-5.87,13.06L377.5,484.62l-66.26-2.7-15.4-10.31.39-7.31,4.6-5.35c46.63,13.85,66.48-9.34,75-48.15,13,5.63,26.23,15.83,38.93,13.74l-4.84-6.3,9.21,5.24Z"/><path class="f" d="M270.31,373l-9.51,6.39c3.52-72.56-17.39-129.5-40.26-183.71l13.1-2.52C277.18,206.43,278.07,349.76,270.3,373Z"/><path class="g" d="M302.18,353.58,270.3,373c3.52-72.55-17.58-128-40.44-182.21L257.76,177Z"/><path class="h" d="M290.76,317.85l-32,5,.34,3.87-9.46-.84-10.58-47.07,30.41-15.6Z"/><path class="i" d="M273,273.13a11.29,11.29,0,0,1,5.49,18.55A11.29,11.29,0,0,1,289,303.73a11.61,11.61,0,0,1-.33,2,11.3,11.3,0,0,1-21.13,2,11.28,11.28,0,1,1-8.3-21A11.29,11.29,0,0,1,273,273.13Z"/><circle class="j" cx="270.18" cy="284.05" r="5.84" transform="translate(-72.54 474.4) rotate(-75.48)"/><circle class="j" cx="277.72" cy="302.93" r="5.84" transform="translate(-85.16 495.84) rotate(-75.48)"/><circle class="j" cx="263.38" cy="297.27" r="5.84" transform="translate(-90.42 477.72) rotate(-75.48)"/><path class="k" d="M437,449.27l-3.68,8.15-55.4,19.88-66.27-2.69-15.39-10.32-.4,7.32,15.41,10.31,66.26,2.7,55.4-19.88,5.88-13.05Z"/><path class="g" d="M348.86,342.89,356.24,320l-6.38-104.37-3.41-13.24L300.3,220.16l13.88,126Z"/><path class="l" d="M308.63,216.94l43,26.88.2,3.36-46.35-29Zm-3.34,34,48.49,28.83.21,3.31-50.1-29.79Zm43.8,55-4.24,8L346,343.14l-2.54.27-1.18-24.72-10.57,20-2.55,6.08-3,.25,3.1-7.61,12.74-24-.45-9.18,2.74-.13.22,4.57,2.08-3.92Z"/><path class="m" d="M345.7,211.39c7.45,45.69,4.79,89.37,1.1,132.83l3.94-.27,13.76-42.31c4.32-24.45,4.1-51.51,4.82-78l.64-10Z"/><path class="c" d="M346.89,219.29l22,23.77-.09,3.94-21.28-23-.6-4.69ZM350.25,254,367,283l-.48,4.65-16.27-28.23-.2-5.28ZM348.8,318.4l7.08,9.75-1.05,3.22-6.33-8.72Z"/><path class="m" d="M325.59,348.2l-25.75,8.32-31.85-98-8.49-22.12,48.06-17.74C317.26,261.16,322.6,304.46,325.59,348.2Z"/><path class="c" d="M303.67,222.54l-30.8,51L271.72,270l30.43-50.25Zm7.87,14.83.85,4.35-31,58-1.21-3.7Zm7.34,44.06.57,4.22-28.58,43.27-1.09-3.4ZM323.21,319l.45,4.83-17.79,30.79-4,1.29L323.21,319Z"/><path class="n" d="M397.75,76.28l-12.33,22C335-26.63,281.18,67.86,216.36,156.05l.28,1.21-.91-.35-2.36-4.61C254.81,67.23,295.21,27.19,335.26,2c5-2.88,7.39-2.61,11.42,1.06,18.68,17,34.8,45.57,51.09,73.29Z"/><path class="o" d="M370.36,31.55l-1.7-.3c-2.72-.42-7.58-.93-10.6.33a8,8,0,0,0-4.72,6.94c-.26,2.82.76,5.76,2.13,6.92a3.39,3.39,0,0,0,4.58-.44,7.49,7.49,0,0,0,1.79-4.79,9.64,9.64,0,0,0-.95-4.08,1.75,1.75,0,0,1,.29-1.87.76.76,0,0,1,1.28.34.61.61,0,0,1,.05.12,12.8,12.8,0,0,1,1.18,5.47c-.08,2.36-.84,5.27-2.66,7.05a4.75,4.75,0,0,1-6.1.81l-1.08-.95c-1.71-2-2.68-5.37-2.35-8.89.37-3.93,2.48-7.78,6.11-9.29,3.37-1.4,7.77-.92,10.61-.51l2.13,3.09Zm-5.65-7.94-.8-.17-6-1.66c-2.45-.5-5.67-.79-8.68,1.15s-5.83,6.08-9.08,9.42a26,26,0,0,1-7.79,5.77,32,32,0,0,0-6.1.41,5.54,5.54,0,0,1-3-3.3c-1.07-2.91-.58-7.41,1-10.64a12.34,12.34,0,0,1,6.46-6c2.06-.73,3.44-.19,4.16,1.23a6.25,6.25,0,0,1,.19,4.91,2.22,2.22,0,0,1-2.89.82c-.94-.36-1.48-1.11-2.16-1.43a1.88,1.88,0,0,0-2.22.6,5.56,5.56,0,0,0-1.32,4.11c.09,1.92,1,4.42,2.22,5.34s3,.4,5.61-2.3,6.22-7.58,9.12-10.5A13.27,13.27,0,0,1,351.94,17a26.93,26.93,0,0,1,7.66,0l5.1,6.62ZM390.24,70.8A16.35,16.35,0,0,1,392,75.35a1.73,1.73,0,0,1-.42,1.83c-.46.36-1,.12-1.25-.53a1.33,1.33,0,0,1,0-.19c-.66-2.39-1.16-4.22-2.83-5.1s-5.24-.71-9-2.53a20.62,20.62,0,0,1-9.2-9.5,11.52,11.52,0,0,1-1-5.82,5,5,0,0,1,2.28-4,4.53,4.53,0,0,1,3.73.05,12.61,12.61,0,0,1,3.2,1.7A5.43,5.43,0,0,1,379.17,53a7.94,7.94,0,0,1,.6,1.69,1.58,1.58,0,0,1-.64,1.7c-.5.24-1-.15-1.15-.85l0-.17a1.3,1.3,0,0,0-.17-.6,3.88,3.88,0,0,0-1.11-1.1,11.67,11.67,0,0,0-2.83-1.51A3.75,3.75,0,0,0,371.2,52a2.05,2.05,0,0,0-1,1.81,8.06,8.06,0,0,0,.75,4,19.63,19.63,0,0,0,8.29,8.45c3.35,1.63,6.63,1.32,9,2.55a5.63,5.63,0,0,1,2.1,2Zm-1.06,3.28h0l.06.11a1.81,1.81,0,0,1-.28,1.88.71.71,0,0,1-1.08,0,3.85,3.85,0,0,0-1.82-1.24,11,11,0,0,0-3.32.11c-.51.14-1-.34-1.06-1.07a1.44,1.44,0,0,1,.78-1.58.71.71,0,0,1,.2,0,11,11,0,0,1,3.78-.1A5.25,5.25,0,0,1,389,73.83a.86.86,0,0,1,.2.26Zm3.13,5.78a4.65,4.65,0,0,1,.4,1.64,5.75,5.75,0,0,1-.86,3.24,27,27,0,0,1-1.59,2.63.75.75,0,0,1-1.32.09,1.41,1.41,0,0,1-.18-.37.74.74,0,0,1-1.31-.09,1.09,1.09,0,0,1-.14-.31,9.4,9.4,0,0,1-.55-4.12,9.18,9.18,0,0,1,.69-2.7,3.27,3.27,0,0,1,1.79-1.93,2.24,2.24,0,0,1,2.19.77,4.37,4.37,0,0,1,.81,1.15Zm-1.57,1.57h0a1.77,1.77,0,0,0-.34-.5,1.05,1.05,0,0,0-.79-.35c-.13,0-.33.24-.52.69a6.15,6.15,0,0,0-.42,1.58,5.78,5.78,0,0,0,.4,2.58l1.38-2.23a3.35,3.35,0,0,0,.44-1.36,1.46,1.46,0,0,0-.13-.42ZM345.31,11.26a1.79,1.79,0,0,1-.14,1.9.69.69,0,0,1-.17.17c-1.72,1.41-3.42,3-5.11,3.11s-2.95-1.5-3.17-3.54a13,13,0,0,1,1-5.46c.22-.7.78-1,1.25-.74a1.61,1.61,0,0,1,.45,1.79h0a16.11,16.11,0,0,0-.9,4c0,.79.43,1.45,1.29,1.36s2.58-1.38,4.29-2.78a.73.73,0,0,1,1.17.28Zm5.33,15.33.06.11a1.81,1.81,0,0,1-.26,1.89h0c-1.48,1.55-2.69,2.88-3,4.78s.17,5.28.78,8.74a1.8,1.8,0,0,1,0,.92l-1.93-1.1c-.55-3.14-1.11-6.31-.61-9.12.54-3.09,2.3-4.86,3.78-6.42a.74.74,0,0,1,1.25.18Zm-31.4-6.13,2,3.72a8.39,8.39,0,0,1,1,3.95A6.7,6.7,0,0,1,321,31.45a8.31,8.31,0,0,0-1,2c-.26,1,.22,3.3.89,5.72a2,2,0,0,1,.08.69l-1.76.58a.85.85,0,0,1,0-.17c-.68-2.42-1.56-5-.91-7.65a9.63,9.63,0,0,1,1.39-2.91,3.72,3.72,0,0,0,.69-1.64,6.54,6.54,0,0,0-.66-2.36c-.48-1-1.17-2.24-1.87-3.46a1.8,1.8,0,0,1,.1-1.91.74.74,0,0,1,1.31.07l0,0Zm-5.48,10.29h0a5.47,5.47,0,0,1,.16,3.92,10.07,10.07,0,0,1-1.35,3.25,2.92,2.92,0,0,1-1.76,1.27,2.11,2.11,0,0,0-.87.26,5,5,0,0,0-.84,1.17l-.78,1.74a7.53,7.53,0,0,1-.94,1.62.74.74,0,0,1-1.31-.07,1.79,1.79,0,0,1,.1-1.9l0,0a.87.87,0,0,0,.1-.19l-1.09,1.42a.75.75,0,0,1-1.32-.07,1.83,1.83,0,0,1,.1-1.91l0,0,2.76-3.57c-.06-.17-.13-.16-.16-.37a7.32,7.32,0,0,1,.31-2.7,7.58,7.58,0,0,1,1.55-3,5.84,5.84,0,0,1,2.66-1.73,2.06,2.06,0,0,1,2.66.91Zm-1.48,1.75h0a2,2,0,0,0-.91,0,4.19,4.19,0,0,0-1.84,1.2,4.52,4.52,0,0,0-.93,1.79,4.3,4.3,0,0,0-.19,1.18,1,1,0,0,1,.2.32,2.61,2.61,0,0,1,.09.69c.15-.16.23-.4.41-.53a3,3,0,0,1,1.41-.56,1,1,0,0,0,.7-.47,8.28,8.28,0,0,0,.86-2.19,7.12,7.12,0,0,0,.14-1.37ZM307,38.34a.33.33,0,0,1,0,.14c.08.19.13.23.14.23a1.73,1.73,0,0,0-.16-.37Zm-8.37.6,1,2a4,4,0,0,1,.28,2.73,3,3,0,0,1-1.2,1.71c-.07.08-.12.1-.16.17s.06.11.23.41c.3.51.78,1.16,1.27,1.82a1.8,1.8,0,0,1,0,1.92.75.75,0,0,1-1.32.1h0l-1.38-2a3.73,3.73,0,0,1-.73-2.66,2.61,2.61,0,0,1,.56-1.37,4.35,4.35,0,0,1,.6-.61,3.2,3.2,0,0,0,.34-.37,1.5,1.5,0,0,0-.11-.37,15.51,15.51,0,0,0-.87-1.73,1.81,1.81,0,0,1,.21-1.9.73.73,0,0,1,1.26.16Zm-7,6.6.07.15,0,.09c1,2.52,2.15,5.12,2,8s-1.51,4.61-2.72,6.31l-.65.64c-.51.15-1-.31-1.08-1.05a1.86,1.86,0,0,1,.29-1.24c1.25-1.77,2.23-3.33,2.33-4.79s-.76-3.9-1.76-6.44a1.77,1.77,0,0,1,.3-1.87.73.73,0,0,1,1.21.21Zm-3.81,8.38a1.83,1.83,0,0,1-.2,1.9l-.07.08c-2.35,2.26-4.77,4.67-7.48,5.51s-5.38,0-7.93-.73a1.37,1.37,0,0,1-.68-1.59,1.75,1.75,0,0,1,.16-.52l.37-.43a.68.68,0,0,1,.59-.11c2.56.74,5,1.43,7.17.74s4.48-2.82,6.83-5.08a.74.74,0,0,1,1.25.25Zm-4.95,14.57-1.62,1.78a7,7,0,0,0-2.46-1.68c-.25,0-.32.06-.39.18a2.19,2.19,0,0,0-.15,1.19,16.58,16.58,0,0,0,.61,3l-1.56,1.79a21.57,21.57,0,0,1-.91-4.43A5.81,5.81,0,0,1,277,67.1a2.38,2.38,0,0,1,2-1.28c1.43.1,2.64,1.43,3.87,2.58l0,0Zm-9.81,6.59h0a4.69,4.69,0,0,1,.46,1.46,6.52,6.52,0,0,1-.16,2.86l-1.74,2.14a8.19,8.19,0,0,1-.86.36c-.5.2-1-.21-1.12-.93a1.55,1.55,0,0,1,.68-1.67l.1,0a3.89,3.89,0,0,0,.92-.41.69.69,0,0,0,.32-.43,3.4,3.4,0,0,0,0-1.19c-.06-.4-.14-.53-.25-.58s-.55,0-1.12.44a7.09,7.09,0,0,0-1.83,2.59,42,42,0,0,0-2.34,8.62l-2.33,3,.34-2.5A45.94,45.94,0,0,1,267,78.26a9.78,9.78,0,0,1,2.48-3.5,2.49,2.49,0,0,1,2.6-.69,2.23,2.23,0,0,1,1,1ZM257.25,97.8h0a4.3,4.3,0,0,1,.45,1.52l-5.67,7.6c-.52.07-1-.47-1-1.21a1.61,1.61,0,0,1,.52-1.32l3-2.58a5.56,5.56,0,0,0,1.27-1.82c0-.21,0-.56-.49-.95a2.43,2.43,0,0,0-2.28-.33c-2,.63-5.07,3.75-6.62,7.65-1.32,3.17-1.83,7.1-2.21,11.27l-2.09,2.89a1.55,1.55,0,0,1,0-.22c.4-5.22.79-10.65,2.71-15.26s5.16-8.07,8-9a3.64,3.64,0,0,1,3.56.6,3.74,3.74,0,0,1,.89,1.12Z"/><path class="h" d="M225,114.14l-36.14,29.7,32.13,63,4.69.6-1.8-5.76,35.5-28.2-18.33-36.41Z"/><path class="i" d="M213.7,109.91l26.18,32.31,161.36-9.15,6.7-2.54C377.6-15.55,300.94,34,213.7,109.9Z"/><path class="b" d="M380.21,149.93,400,131.19C363.55-11.36,293,63.48,228,111.37l15,67.23Z"/><path class="c" d="M378.94,76.63l1.77,3A152.7,152.7,0,0,0,332.77,150c-1.34.38-2.68.79-4,1.23a155.93,155.93,0,0,1,50.17-74.63Zm-12-15.35a222.29,222.29,0,0,0-54.35,94.33l-3.72.54A225,225,0,0,1,364.45,59c.87.74,1.73,1.52,2.55,2.31Zm19.44,29.54,1.47,3.37a169.1,169.1,0,0,0-36.38,53.52c-1.21-.05-2.46-.05-3.72,0a172.3,172.3,0,0,1,38.63-56.88ZM392,104.66l1.25,3.61a166.06,166.06,0,0,0-29.74,41c-1.16-.24-2.34-.47-3.52-.67a169.4,169.4,0,0,1,32-43.92Zm4.58,14,1.07,3.69a101.24,101.24,0,0,0-21.33,28.4l-3.72.78-.44-.12a104.52,104.52,0,0,1,24.42-32.75ZM342.94,48.92A363.86,363.86,0,0,0,287.4,161l-3.93,1.23A367.17,367.17,0,0,1,339,48.53c1.33.06,2.66.21,4,.4ZM320.39,51a253.72,253.72,0,0,0-50.95,116.44L265.7,169A257.19,257.19,0,0,1,314.51,53c2-.74,3.92-1.41,5.86-2ZM290.61,65.26a342.41,342.41,0,0,0-51,98.09l-1.45-6.47a345.9,345.9,0,0,1,44.33-86.36q4.05-2.74,8.06-5.26Z"/><path class="n" d="M397.6,137.2l-11.74,11.57c-36-78.84-86.67-30.34-146.31,14l.26,1.2-.93-.81-.38-4.85c39.07-43.46,75-61.91,109.81-72,4.45-1.12,6.45-.7,9.74,1.88,15,12.15,27.22,30.81,39.61,49Z"/><path class="o" d="M376.65,107.72l-1.43-.36c-2.31-.56-6.37-1.45-9.08-1s-4,1.93-4.41,3.56a4.42,4.42,0,0,0,1.43,4.32,3.93,3.93,0,0,0,3.92.29,3.58,3.58,0,0,0,1.79-2.61,4.51,4.51,0,0,0-.59-2.51.8.8,0,1,1,1.43-.72l0,.07a6,6,0,0,1,.71,3.35,5.07,5.07,0,0,1-2.64,3.86,5.47,5.47,0,0,1-5.25-.21l-.89-.69a6,6,0,0,1-1.51-5.51,6.54,6.54,0,0,1,5.73-4.77c2.95-.44,6.68.34,9.09.89l1.65,2.06Zm-4.38-5.32-.67-.19-5-1.65a13.63,13.63,0,0,0-7.48-.31c-2.68.8-5.3,2.93-8.26,4.53a22.87,22.87,0,0,1-7,2.52,39.69,39.69,0,0,0-5.22-.46,4.35,4.35,0,0,1-2.41-2.29,6.24,6.24,0,0,1,1.46-6.15,9.59,9.59,0,0,1,5.85-2.78c1.81-.18,2.95.28,3.49,1.2a2.66,2.66,0,0,1-.11,2.9,2.42,2.42,0,0,1-2.51.17,17.63,17.63,0,0,1-1.77-1.09,2.12,2.12,0,0,0-1.92.1,2.63,2.63,0,0,0-1.37,2.28,4.28,4.28,0,0,0,1.59,3.39c1,.68,2.52.57,4.92-.72s5.71-3.77,8.36-5.16a13.31,13.31,0,0,1,7.47-1.62,35.1,35.1,0,0,1,6.54.84l4,4.48Zm19.21,30.7a8.68,8.68,0,0,1,1.27,2.88.8.8,0,1,1-1.5.58l0-.12c-.43-1.48-.75-2.61-2.15-3.33s-4.44-1-7.51-2.51a16.72,16.72,0,0,1-7.34-6.64,5.08,5.08,0,0,1-.55-3.54,2.89,2.89,0,0,1,2.11-2.13,5.6,5.6,0,0,1,3.18.45,14.74,14.74,0,0,1,2.65,1.36,4.66,4.66,0,0,1,1.34,1.24,2.53,2.53,0,0,1,.36,1,.8.8,0,0,1-1.59.21v0a.64.64,0,0,0-.12-.38,3,3,0,0,0-.88-.77,12.36,12.36,0,0,0-2.34-1.21,4.52,4.52,0,0,0-2.25-.37,1.15,1.15,0,0,0-.91,1,3.6,3.6,0,0,0,.42,2.43c1,2,3.85,4.57,6.62,5.92s5.58,1.53,7.54,2.52a4,4,0,0,1,1.68,1.41Zm-1.09,1.81h0a.8.8,0,0,1-1.23,1,3.67,3.67,0,0,0-1.48-.94,14.3,14.3,0,0,0-2.85-.32.8.8,0,0,1-.86-.73.81.81,0,0,1,.74-.86h.2a13.83,13.83,0,0,1,3.23.37,5.46,5.46,0,0,1,2.09,1.27.69.69,0,0,1,.16.18Zm2.35,3.77a2.07,2.07,0,0,1,.25,1,2.74,2.74,0,0,1-.85,1.82,13.28,13.28,0,0,1-1.5,1.37.8.8,0,0,1-1.13-.09.84.84,0,0,1-.14-.24.8.8,0,0,1-1.11-.2.78.78,0,0,1-.11-.2,4.12,4.12,0,0,1-.24-2.5,3.78,3.78,0,0,1,.76-1.51,2.34,2.34,0,0,1,1.63-.94,2.42,2.42,0,0,1,1.82.7,2.63,2.63,0,0,1,.63.77Zm-1.42.75h0a1.16,1.16,0,0,0-.27-.33,1.1,1.1,0,0,0-.66-.3.84.84,0,0,0-.49.35,2.69,2.69,0,0,0-.44.88,2.28,2.28,0,0,0,.2,1.56l1.3-1.16a1.42,1.42,0,0,0,.44-.75.5.5,0,0,0-.1-.26Zm-34.94-46.5a.81.81,0,0,1-.23,1.11l-.15.07a11,11,0,0,1-4.53,1.26A2.64,2.64,0,0,1,349,92.93a5.52,5.52,0,0,1,1.14-3.15.8.8,0,0,1,1.38.81,5.75,5.75,0,0,0-.93,2.24,1,1,0,0,0,1,1,12.53,12.53,0,0,0,3.82-1.16.8.8,0,0,1,1,.3Zm3.7,9.64a.79.79,0,0,1-.21,1.11l-.09,0c-1.34.75-2.45,1.4-2.83,2.48s-.14,3.13.18,5.24a.75.75,0,0,1-.08.53l-1.58-.86c-.31-1.91-.6-3.83,0-5.44.63-1.76,2.23-2.61,3.58-3.35a.8.8,0,0,1,1.06.25Zm-26.53-7.18,1.5,2.42a3.94,3.94,0,0,1,.6,2.44,3.18,3.18,0,0,1-1.19,1.82,4.85,4.85,0,0,0-1,1.07c-.28.59,0,2,.49,3.52a.85.85,0,0,1,0,.42l-1.53.14,0-.11c-.45-1.5-1.06-3.13-.36-4.6a4.77,4.77,0,0,1,1.35-1.56c.42-.38.65-.66.68-.89a3,3,0,0,0-.44-1.46c-.36-.67-.87-1.45-1.41-2.26a.78.78,0,0,1,.22-1.1.8.8,0,0,1,1.11.21Zm-5.24,5.45h0a2.2,2.2,0,0,1-.08,2.32,5.35,5.35,0,0,1-1.33,1.77,2.69,2.69,0,0,1-1.57.55,1.5,1.5,0,0,0-1.54.64c-.3.31-.59.66-.82.94a4.58,4.58,0,0,1-.89.85.8.8,0,1,1-.89-1.32.94.94,0,0,1,.1-.1l-1,.71a.8.8,0,0,1-.89-1.33l2.54-1.78c-.05-.12-.1-.12-.11-.24a2.92,2.92,0,0,1,.42-1.56,4.24,4.24,0,0,1,1.49-1.57,5.41,5.41,0,0,1,2.37-.72,2.25,2.25,0,0,1,2.22.84Zm-1.35.86h0a2.47,2.47,0,0,0-.78-.11,4.07,4.07,0,0,0-1.64.5,2.49,2.49,0,0,0-.9,1,2.23,2.23,0,0,0-.22.68.49.49,0,0,1,.15.2,1.09,1.09,0,0,1,.05.38c.13-.08.22-.21.37-.27a3.2,3.2,0,0,1,1.3-.16.83.83,0,0,0,.63-.19,4,4,0,0,0,.85-1.19,3.67,3.67,0,0,0,.2-.8Zm-4.82,2.85c.07.21.12.23.12.23A1,1,0,0,0,322.14,104.55ZM315,104l.74,1.31a1.72,1.72,0,0,1,.1,1.63,1.93,1.93,0,0,1-1.11.87l-.16.08a3.22,3.22,0,0,1,.18.27,13.38,13.38,0,0,0,1,1.21.82.82,0,0,1,0,1.14.81.81,0,0,1-1.14,0l-.07-.08L313.38,109a1.87,1.87,0,0,1-.47-1.65,1.34,1.34,0,0,1,.55-.76,3.08,3.08,0,0,1,.55-.3,1.49,1.49,0,0,0,.31-.17,1.05,1.05,0,0,0-.07-.24,8.84,8.84,0,0,0-.64-1.11.8.8,0,0,1,1.36-.86Zm-6.34,3.11a1.09,1.09,0,0,1,.08.15c.71,1.6,1.56,3.27,1.26,4.93s-1.54,2.54-2.71,3.36l-.6.3a.79.79,0,0,1-.54-1.43c1.16-.91,2.09-1.71,2.24-2.56s-.43-2.39-1.15-4a.8.8,0,0,1,1.38-.8Zm-3.71,4.5a.8.8,0,0,1-.28,1.09l-.07,0a20.3,20.3,0,0,1-6.67,2.41c-2.32.25-4.6-.6-6.74-1.32a.8.8,0,0,1-.5-1,.75.75,0,0,1,.17-.3l.32-.21a.92.92,0,0,1,.52,0,15.86,15.86,0,0,0,6.08,1.25,18.1,18.1,0,0,0,6.11-2.23.8.8,0,0,1,1,.29Zm-5,8-1.47.87a6.93,6.93,0,0,0-2-1.27c-.21,0-.28,0-.34.07a1,1,0,0,0-.19.68,8,8,0,0,0,.36,1.84l-1.42.88a9.62,9.62,0,0,1-.54-2.72,2.49,2.49,0,0,1,.66-1.83,1.87,1.87,0,0,1,1.79-.43,7.27,7.27,0,0,1,3.17,1.95l0,0Zm-8.74,2.78h0a2.31,2.31,0,0,1,.32.91,2.7,2.7,0,0,1-.3,1.67L289.58,126a6.32,6.32,0,0,1-.76.11.8.8,0,0,1-.27-1.57l.12,0a3.61,3.61,0,0,0,.81-.13.42.42,0,0,0,.3-.22,1.32,1.32,0,0,0,.1-.7c0-.24-.09-.32-.17-.36a1.46,1.46,0,0,0-1,.12,4.71,4.71,0,0,0-1.71,1.33,20,20,0,0,0-2.5,4.76l-2.16,1.49a14,14,0,0,1,.43-1.44,20.15,20.15,0,0,1,3-5.88,6.12,6.12,0,0,1,2.31-1.78,2.8,2.8,0,0,1,2.26-.1,1.71,1.71,0,0,1,.78.7ZM276.41,134h0a2,2,0,0,1,.31.95l-5.25,3.84a.8.8,0,0,1-.26-1.55l2.73-1.17a3,3,0,0,0,1.18-.93c0-.12,0-.33-.36-.61a2.91,2.91,0,0,0-1.93-.45,10,10,0,0,0-6.13,3.74c-1.34,1.67-1.95,4-2.5,6.37l-1.94,1.47a.53.53,0,0,1,0-.13c.63-3,1.26-6.19,3.15-8.69a11,11,0,0,1,7.29-4.37,4.38,4.38,0,0,1,3,.75,2.54,2.54,0,0,1,.7.76Z"/><path class="p" d="M325.29,71.54l-10.7,44.93,19.23,1,12.26-22.7,9.76,23.89,19.23,1L369.25,73.9l-22-1.18Z"/><path class="q" d="M330.86,78.31,344,103.4l-4.19,4.39-19-20.13Z"/><path class="r" d="M346.08,94.8c-6.29,8-11.66,16.58-23,21.53l7.79,9.15,14.67-20.06,12.43,21.52,8.72-8.27C355.89,112.47,351.48,103.38,346.08,94.8Z"/><path class="q" d="M363,80l-15.75,23.54,3.69,4.82,21.07-18Z"/><path class="e" d="M346.08,94.8l-.58,10.69L357.94,127l8.72-8.27c-10.77-6.21-15.19-15.29-20.59-23.87Z"/><path class="p" d="M345.5,105.48a77.32,77.32,0,0,1-17.36,17.32l10.1,5.83,6.09-1.3,5.92,1.94,10.68-4.71a76.93,76.93,0,0,1-15.41-19.08Z"/><path class="s" d="M347.66,65.29a35.37,35.37,0,1,0,33.42,37.23,35.35,35.35,0,0,0-33.42-37.23Zm-.55,10.23A25.94,25.94,0,1,1,319.82,100,25.93,25.93,0,0,1,347.11,75.52Z"/><path class="i" d="M233.94,179.19l22.2,27.4,136.83-8,5.69-2.15c-25.13-123.6-88-81.63-164.72-17.22Z"/><path class="b" d="M373.21,217.84,393,198.56c-30.63-120.6-90.6-57.12-145.75-16.47l11.6,59c19.8-11.27,40.92-19.71,65-21.8,22.51-10.23,35.48-5.1,49.36-1.43Z"/><path class="c" d="M375,152.13l1.5,2.53a128.72,128.72,0,0,0-41.84,60.51c-1.1.31-2.22.64-3.37,1A131.4,131.4,0,0,1,375,152.14Zm-10.31-13a187.24,187.24,0,0,0-47.05,80.78l-3.13.52a190,190,0,0,1,48-83.16c.66.6,1.45,1.25,2.17,1.93ZM381.27,164l1.24,2.83a142,142,0,0,0-32,46.45c-1,0-2.09,0-3.14,0A145.23,145.23,0,0,1,381.27,164ZM386,175.64l1.06,3a140.25,140.25,0,0,0-26.46,35.94c-1-.21-2-.4-3-.58A142.89,142.89,0,0,1,386,175.65Zm3.9,11.89.9,3.09a85.21,85.21,0,0,0-20.06,26.56l-2.86-.77a88.38,88.38,0,0,1,22-28.87Zm-45.82-58.6a306.74,306.74,0,0,0-47.59,95.59l-3.32,1a309.44,309.44,0,0,1,47.51-96.88C341.81,128.7,342.94,128.79,344.07,128.93Zm-19.24,2.12a213.93,213.93,0,0,0-43.5,98.87l-3.15,1.35a216.7,216.7,0,0,1,41.61-98.42q2.49-1,5-1.78Zm-25.48,12.43A288.05,288.05,0,0,0,256.06,227l-1.15-5.72A291,291,0,0,1,292.47,148q3.46-2.37,6.88-4.55Z"/><path class="n" d="M391.14,204l-10,9.83C350.33,146.31,307,188.47,255.9,226.35l.14.63-.64-.27-1.5-2.54c34-38.61,65.11-54.76,95.32-63.53,3.78-1,5.55-.59,8.23,1.64,12.76,10.34,23.14,26.21,33.69,41.67Z"/><path class="o" d="M373.33,178.89l-1.22-.3c-2-.48-5.46-1.21-7.71-.87a4.11,4.11,0,0,0-3.75,3,3.79,3.79,0,0,0,1.23,3.67,3.36,3.36,0,0,0,3.33.26,3,3,0,0,0,1.52-2.23,3.64,3.64,0,0,0-.51-2.13.68.68,0,0,1,.24-.93.69.69,0,0,1,.94.24.59.59,0,0,1,.06.14,4.57,4.57,0,0,1,.54,2.86,4.51,4.51,0,0,1-2.25,3.27,4.6,4.6,0,0,1-4.45-.18l-.75-.6a5.05,5.05,0,0,1-1.29-4.67,5.55,5.55,0,0,1,4.86-4.07,22.34,22.34,0,0,1,7.71.77l1.41,1.76Zm-3.72-4.52-.58-.17-4.24-1.42a11.73,11.73,0,0,0-6.36-.27c-2.28.67-4.5,2.49-7,3.85a19.76,19.76,0,0,1-5.91,2.14,33.28,33.28,0,0,0-4.45-.39,3.74,3.74,0,0,1-2.05-2,5.32,5.32,0,0,1,1.25-5.23,8.17,8.17,0,0,1,5-2.36c1.52-.16,2.5.24,3,1a2.31,2.31,0,0,1-.09,2.48,2,2,0,0,1-2.14.14,11.73,11.73,0,0,1-1.49-.93,1.81,1.81,0,0,0-1.64.09,2.21,2.21,0,0,0-1.15,1.94,3.66,3.66,0,0,0,1.36,2.9c.88.6,2.14.49,4.17-.6s4.86-3.19,7.1-4.45a10.66,10.66,0,0,1,6.36-1.37,28.24,28.24,0,0,1,5.56.73l3.4,3.81ZM386,200.48a6.25,6.25,0,0,1,1.08,2.46.68.68,0,1,1-1.25.55.55.55,0,0,1,0-.17c-.37-1.26-.57-2.22-1.82-2.83s-3.77-.86-6.39-2.14a14.41,14.41,0,0,1-6.25-5.64,4.41,4.41,0,0,1-.47-3,2.46,2.46,0,0,1,1.8-1.8,4.81,4.81,0,0,1,2.7.38,12.31,12.31,0,0,1,2.25,1.16,3.77,3.77,0,0,1,1.13,1,1.92,1.92,0,0,1,.3.89.68.68,0,1,1-1.35.16c0-.19,0-.21-.1-.32a4.22,4.22,0,0,0-.74-.73,8,8,0,0,0-2-1,3.89,3.89,0,0,0-1.92-.31,1,1,0,0,0-.78.82,3.09,3.09,0,0,0,.36,2.07,13.56,13.56,0,0,0,5.63,5c2.35,1.14,4.74,1.3,6.4,2.15a4.11,4.11,0,0,1,1.43,1.19ZM385,202h0l0,.06a.67.67,0,0,1-.31.91.69.69,0,0,1-.76-.11,2.7,2.7,0,0,0-1.33-.8,13.3,13.3,0,0,0-2.42-.27.68.68,0,0,1-.74-.61.68.68,0,0,1,.61-.75h.2a11.83,11.83,0,0,1,2.74.32,4.76,4.76,0,0,1,1.78,1.09.47.47,0,0,1,.13.15Zm2,3.2a1.83,1.83,0,0,1,.22.86,2.32,2.32,0,0,1-.73,1.55,11.74,11.74,0,0,1-1.27,1.17.68.68,0,0,1-1-.09.82.82,0,0,1-.12-.2.68.68,0,0,1-.95-.17.89.89,0,0,1-.08-.17,3.54,3.54,0,0,1-.22-2.12,3.33,3.33,0,0,1,.64-1.29A1.94,1.94,0,0,1,385,204a2.12,2.12,0,0,1,1.55.59,2.4,2.4,0,0,1,.53.65Zm-1.21.64h0a1.71,1.71,0,0,0-.22-.29,1,1,0,0,0-.55-.25.71.71,0,0,0-.42.3,2.21,2.21,0,0,0-.38.75,2.11,2.11,0,0,0,.17,1.33l1.1-1a1.35,1.35,0,0,0,.38-.64.43.43,0,0,0-.08-.21ZM356.1,166.29a.69.69,0,0,1-.19,1,.38.38,0,0,1-.13.06,9.29,9.29,0,0,1-3.85,1.07,2.25,2.25,0,0,1-2.14-2.08,4.89,4.89,0,0,1,1-2.68.68.68,0,0,1,.93-.25.69.69,0,0,1,.25.94h0a4.65,4.65,0,0,0-.8,1.91.73.73,0,0,0,.88.73,13,13,0,0,0,3.24-1,.69.69,0,0,1,.84.25Zm3.16,8.2a.67.67,0,0,1-.18.94l-.07,0c-1.14.62-2.08,1.17-2.41,2.1s-.11,2.66.18,4.45a.73.73,0,0,1-.07.46l-1.34-.74a9.76,9.76,0,0,1,0-4.62,5.73,5.73,0,0,1,3-2.85.68.68,0,0,1,.9.22Zm-22.55-6.13,1.27,2.06a4.13,4.13,0,0,1,.58,2.08,2.58,2.58,0,0,1-1,1.55,3.45,3.45,0,0,0-.84.9,5.75,5.75,0,0,0,.39,3,.69.69,0,0,1,0,.35l-1.31.12a.19.19,0,0,1,0-.08c-.38-1.28-.91-2.67-.32-3.92a4.25,4.25,0,0,1,1.15-1.32c.36-.33.55-.57.58-.76a2.57,2.57,0,0,0-.37-1.24,21.33,21.33,0,0,0-1.21-1.92.68.68,0,1,1,1.05-.87.44.44,0,0,1,.08.11ZM332.27,173h0a2,2,0,0,1-.06,2,4.28,4.28,0,0,1-1.13,1.5,2.34,2.34,0,0,1-1.41.46,1.74,1.74,0,0,0-.64,0,2.22,2.22,0,0,0-.65.51c-.25.27-.5.56-.7.79a3.37,3.37,0,0,1-.75.72.68.68,0,1,1-.81-1.1l.05,0c-.25.14-.42.28-.78.53a.68.68,0,0,1-.95-.15.67.67,0,0,1,.14-.95l.05,0,2.17-1.51c0-.1-.09-.1-.1-.22a2.47,2.47,0,0,1,.35-1.32,3.53,3.53,0,0,1,1.26-1.34,4.58,4.58,0,0,1,2-.61,2,2,0,0,1,1.89.73Zm-1.14.73h0a2.73,2.73,0,0,0-.67-.09,3.36,3.36,0,0,0-1.38.42,2,2,0,0,0-.77.81,2,2,0,0,0-.19.58.41.41,0,0,1,.13.18.85.85,0,0,1,0,.32c.12-.07.19-.18.32-.24a2.68,2.68,0,0,1,1.1-.13.65.65,0,0,0,.53-.16,3.3,3.3,0,0,0,.73-1,2.3,2.3,0,0,0,.16-.68ZM327,176.14a1.52,1.52,0,0,0,.09.21,1.66,1.66,0,0,0-.1-.21Zm-6.1-.51.63,1.12a1.51,1.51,0,0,1,.08,1.38,1.63,1.63,0,0,1-.95.74.46.46,0,0,0-.13.07s0,.07.15.23.52.64.84,1a.68.68,0,0,1-.08,1,.69.69,0,0,1-1-.08l-.9-1.16a1.55,1.55,0,0,1-.41-1.4,1.31,1.31,0,0,1,.47-.64,3.7,3.7,0,0,1,.47-.25,1.28,1.28,0,0,0,.26-.15,1.12,1.12,0,0,0,0-.21c-.12-.25-.33-.59-.55-.94a.67.67,0,0,1,.29-.92.68.68,0,0,1,.86.19Zm-5.39,2.63a.35.35,0,0,1,.05.08l0,0c.61,1.36,1.32,2.77,1.08,4.2a5,5,0,0,1-2.27,2.9l-.51.24a.67.67,0,0,1-.72-.63.66.66,0,0,1,.26-.58c1-.78,1.77-1.46,1.91-2.18a7.72,7.72,0,0,0-1-3.4.68.68,0,0,1,1.17-.68Zm-3.15,3.83a.69.69,0,0,1-.24.94l0,0a16.1,16.1,0,0,1-5.68,2,14.11,14.11,0,0,1-5.72-1.13.69.69,0,0,1-.43-.87.64.64,0,0,1,.15-.25l.29-.19a.79.79,0,0,1,.43,0,13.27,13.27,0,0,0,5.17,1.07,15.47,15.47,0,0,0,5.18-1.89.68.68,0,0,1,.89.24Zm-4.26,6.81-1.24.73a5.38,5.38,0,0,0-1.71-1.07c-.18,0-.23,0-.29.05a.75.75,0,0,0-.17.58,5.87,5.87,0,0,0,.31,1.55l-1.22.75a8.32,8.32,0,0,1-.45-2.3,2,2,0,0,1,.57-1.56,1.68,1.68,0,0,1,1.48-.4,6.5,6.5,0,0,1,2.69,1.66v0Zm-7.42,2.36h0a1.82,1.82,0,0,1,.27.78,2.21,2.21,0,0,1-.25,1.42l-1.42.9-.64.09a.67.67,0,0,1-.82-.51.68.68,0,0,1,.5-.82.61.61,0,0,1,.19,0,3.83,3.83,0,0,0,.7-.13c.15,0,.19-.07.25-.18a1.14,1.14,0,0,0,.08-.59c0-.21-.08-.28-.15-.31a1.35,1.35,0,0,0-.84.11,4,4,0,0,0-1.44,1.12,15.58,15.58,0,0,0-2.1,4.1l-1.83,1.26c.07-.3.18-.66.37-1.22a16.85,16.85,0,0,1,2.51-5,5.14,5.14,0,0,1,2-1.51,2.45,2.45,0,0,1,1.92-.09,1.56,1.56,0,0,1,.67.6Zm-12.51,9.85h0a1.8,1.8,0,0,1,.26.8L284,205.17a.69.69,0,0,1-.65-.71.66.66,0,0,1,.43-.6l2.33-1a2.7,2.7,0,0,0,1-.79c0-.1,0-.28-.32-.52a2.46,2.46,0,0,0-1.64-.39,8.51,8.51,0,0,0-5.2,3.17,13.79,13.79,0,0,0-2.12,5.43L276.19,211a.52.52,0,0,1,0-.11c.53-2.58,1.06-5.25,2.67-7.37a9.35,9.35,0,0,1,6.19-3.72,3.78,3.78,0,0,1,2.56.65,2.62,2.62,0,0,1,.59.65Z"/><path class="i" d="M223,136.33a11.3,11.3,0,0,1,5.5,18.55A11.29,11.29,0,0,1,239,166.94a11.5,11.5,0,0,1-.33,2,11.29,11.29,0,0,1-21.13,2,11.27,11.27,0,1,1-8.29-21A11.28,11.28,0,0,1,223,136.33Z"/><circle class="j" cx="220.17" cy="147.26" r="5.84" transform="translate(22.42 323.48) rotate(-75.48)"/><circle class="j" cx="227.71" cy="166.13" r="5.84" transform="translate(9.8 344.93) rotate(-75.48)"/><circle class="j" cx="213.38" cy="160.47" r="5.84" transform="matrix(0.25, -0.97, 0.97, 0.25, 4.54, 326.81)"/><path class="t" d="M313.94,298.48l9.27-1.5,29.27-5.07,7.39,8-5.45,9.64-28.94,2.27-8.77.64-6.9.87-2.38-14.62Z"/><path class="i" d="M358.3,316.91a9.61,9.61,0,0,1-.3-16.47,9.6,9.6,0,1,1,12.66-10.72,9.6,9.6,0,0,1,2,19.1,9.61,9.61,0,0,1-14.41,8.09Z"/><circle class="j" cx="363.1" cy="308.58" r="4.97" transform="translate(-85.54 469.16) rotate(-60.05)"/><circle class="j" cx="361.19" cy="291.38" r="4.97" transform="translate(-71.6 458.89) rotate(-60.05)"/><circle class="j" cx="371.67" cy="299.27" r="4.97" transform="translate(-73.18 471.93) rotate(-60.05)"/><path class="i" d="M323.21,297l2.06-2.75,12.05-2,3.61,1.78,2.43,15-1.91,3.83-12.74,1.32-3.23-2.31-8.78.64.74,3.74,6.31,4.45,21.76-3,3.6-5.38-3.05-23.21-4.73-3.33-21.77,2.47-4.77,5.83.58,4.2Z"/><circle class="g" cx="334.63" cy="302.99" r="3.21"/><path class="i" d="M335,300.66c-3.35,1.07-1.86,5.18.81,5,3.83-.22,12.48-1.3,16.82-2,3.95-.64,1.75-6.36-1.39-6-3.95.45-12.44,1.77-16.24,3Z"/><path class="i" d="M309.61,289.12a9.6,9.6,0,0,1,.3,16.47,9.61,9.61,0,1,1-12.47,11.55,7.68,7.68,0,0,1-.19-.83,9.6,9.6,0,0,1-3.49-18.83,11.78,11.78,0,0,1,1.44-.27,9.62,9.62,0,0,1,14.41-8.09Z"/><circle class="j" cx="305.05" cy="297.02" r="4.97" transform="translate(-104.6 413.08) rotate(-60.05)"/><circle class="j" cx="306.97" cy="314.22" r="4.97" transform="translate(-118.54 423.35) rotate(-60.05)"/><circle class="j" cx="296.49" cy="306.33" r="4.97" transform="translate(-116.95 410.32) rotate(-60.05)"/><path class="t" d="M307.36,245.68l9.89-2.13,31.23-7.1,8.4,8.21-5.32,10.68-31,4.06-9.41,1.19-7.38,1.32-3.38-15.61Z"/><path class="i" d="M356.15,263.05a10.35,10.35,0,0,1-1.25-17.71,10.37,10.37,0,0,1-7-12.88,10.58,10.58,0,0,1,.7-1.76,10.37,10.37,0,0,1,19.34,2.39,10.35,10.35,0,0,1,3.28,20.44,10.37,10.37,0,0,1-15.06,9.52Z"/><circle class="j" cx="360.85" cy="253.81" r="5.36" transform="translate(-29.01 460.31) rotate(-63.03)"/><circle class="j" cx="357.83" cy="235.4" r="5.36" transform="translate(-14.26 447.55) rotate(-63.03)"/><circle class="j" cx="369.55" cy="243.31" r="5.36" transform="translate(-14.9 462.32) rotate(-63.03)"/><path class="i" d="M317.25,243.55l2.07-3.08,12.85-2.85,4,1.71,3.46,16-1.84,4.24-13.65,2.13-3.6-2.31-9.41,1.19,1,4,7,4.43,23.26-4.42,3.57-6-4.58-24.82-5.27-3.32-23.3,3.88L308,240.87l.86,4.49Z"/><circle class="g" cx="329.89" cy="249.38" r="3.46"/><path class="i" d="M330.2,246.86c-3.55,1.34-1.71,5.67,1.15,5.36,4.11-.45,13.36-2.1,18-3.09,4.23-.9,1.54-6.94-1.83-6.37-4.23.71-13.29,2.6-17.31,4.1Z"/><path class="i" d="M302.17,235.86a10.35,10.35,0,0,1,1.25,17.71,10.36,10.36,0,1,1-12.78,13.13c-.09-.29-.18-.59-.24-.88a10.36,10.36,0,0,1-4.82-20.08,11.75,11.75,0,0,1,1.53-.37,10.37,10.37,0,0,1,15.06-9.52Z"/><circle class="j" cx="297.71" cy="244.62" r="5.36" transform="translate(-55.32 399.01) rotate(-63.03)"/><circle class="j" cx="300.74" cy="263.03" r="5.36" transform="translate(-70.08 411.77) rotate(-63.03)"/><circle class="j" cx="289.01" cy="255.12" r="5.36" transform="translate(-69.44 397) rotate(-63.03)"/><path class="u" d="M314.64,385.82c13.18-9.39,27.64-15.67,44.62-15.82l-.47,7.8c-18.33,4-31.3,12-44.83,20.73Z"/><path class="a" d="M171.18,481.56l10.48-3.37-10.77-4.63Z"/><path class="b" d="M207.1,500.74c-4.87-2.44-56-38.21-56-38.21l1.56-55.14,3.84-24.78,105.44,5.18,46.78,55.32,9.26,7.54-20,33.69Z"/><path class="c" d="M244.59,398.33l-.69,2a1.26,1.26,0,0,1,.35.14,6.85,6.85,0,0,1,1.11.9c1.18,1,3.26,3,7.17,6.91,7.78,7.79,22.94,23.4,43.27,30.77a84.73,84.73,0,0,0,12.38,3.4l-2.29-2.71a80.17,80.17,0,0,1-9.35-2.73c-19.74-7.15-34.67-22.42-42.49-30.24l-7.27-7a10.13,10.13,0,0,0-1.38-1.07,4.5,4.5,0,0,0-.81-.39Zm-29,6.75-1.7,1.31a25.16,25.16,0,0,0,2.54,2.72l10.77,10.06,57.46,52.22,1.45-1.6-57.45-52.21-10.71-10-2.36-2.5Zm14.12,2.44-1.31,1.72,55.41,42,1.31-1.7ZM194.58,420l-1.13,1.85C213.84,434.48,234.18,447,249,462.4a147.13,147.13,0,0,1,20.21,27.11l2.28-.42a150.68,150.68,0,0,0-20.95-28.19c-15.11-15.67-35.58-28.28-56-40.87Zm-5.37,3.72-1.31,1.7,23.61,18.9c5.84,4.8,13,10.79,17.74,17.39s6.94,13.57,3.26,20.94c-2.6,5.2-8.37,10.73-16.19,16.38l4.8-.86c6.2-4.84,10.89-9.66,13.32-14.54,4.09-8.17,1.52-16.22-3.43-23.15s-12.26-13-18.12-17.79l-23.67-19Zm-12.85,14-1.2,1.8c8.68,5.73,17.32,11.46,22.84,17,2.76,2.77,4.73,5.48,5.58,8a8.11,8.11,0,0,1-.83,7.4c-2.6,4.18-9.6,8.7-19.1,13.15l2.06,1.42c9.06-4.28,15.88-8.63,18.87-13.43a10.54,10.54,0,0,0,1-9.22,24.16,24.16,0,0,0-6.11-8.87c-5.78-5.8-14.49-11.54-23.17-17.28Z"/><path class="a" d="M275.69,404.05c-43.57-4.39-91.77,44.18-102.49,75-.34,1.06-1.71,1.48-2,2.55l-13.42-29.42L254,381.32Z"/><path class="d" d="M171.18,481.56l-27.09-19c-9.1-23.61,11.61-94.9,103.37-97,9.37,11.3,28.41,23.61,29.14,39.58-5.53-5.45-12.84-7.8-21.11-7.46l-26.64-2.91-17.07,21.1c-22.15,16.37-40.5,41.42-40.6,65.71Z"/><path class="b" d="M211.76,415.85c12.35-8.77,25-17.18,43.71-18.18l-32.16-31.88-36,20.78Z"/><path class="e" d="M339.26,475l-5.17,13.35-54.26,22.83-66.31.86-15.93-9.47v-7.32l4.31-5.59c47.3,11.33,65.88-12.89,72.34-52.1,13.3,4.92,27,14.4,39.61,11.63l-5.16-6,9.47,4.74Z"/><path class="f" d="M166.8,405.41l-9.15,6.89c-.38-72.64-24.31-128.38-50.06-181.29l13-3.22c44.19,10.94,52.77,154,46.25,177.62Z"/><path class="g" d="M197.59,384.33l-30.8,21.1c-.37-72.64-24.41-126.87-50.15-179.78l27.12-15.29Z"/><path class="h" d="M184.27,349.26l-31.7,6.68.55,3.85-9.5-.33L130.53,313l29.54-17.2Z"/><path class="i" d="M164.13,305.56A11.28,11.28,0,0,1,173,318.87a11.43,11.43,0,0,1-2.33,4.92,11.29,11.29,0,0,1,11.1,11.47,10.7,10.7,0,0,1-.22,2,11.29,11.29,0,0,1-21,3.14,11.28,11.28,0,1,1-9.41-20.5,11.29,11.29,0,0,1,13-14.38Z"/><circle class="j" cx="161.9" cy="316.62" r="5.84" transform="translate(-180.54 412.49) rotate(-78.56)"/><circle class="j" cx="170.45" cy="335.06" r="5.84" transform="translate(-191.77 435.65) rotate(-78.56)"/><circle class="j" cx="155.83" cy="330.18" r="5.84" transform="translate(-198.7 417.41) rotate(-78.56)"/><path class="k" d="M337.32,472.65,334.08,481l-54.25,22.83-66.32.86-15.93-9.48v7.33L213.52,512l66.31-.86,54.26-22.82L339.26,475Z"/><path class="g" d="M243.63,371.15l6.14-23.29L237.8,244l-4.12-13L188.56,251.2l20.62,125Z"/><path class="l" d="M196.7,247.54,241,272.07l.39,3.35L193.58,249Zm-1.51,34.12,50,26.19.38,3.29-51.63-27.05Zm46.68,52.58-3.8,8.21,2.76,29.1-2.53.41-2.5-24.63-9.48,20.5L224.1,374l-3,.41,2.69-7.77L235.26,342l-.94-9.14,2.73-.28.47,4.55,1.86-4Z"/><path class="m" d="M233.42,240c9.89,45.23,9.58,89,8.22,132.58l3.92-.48,11.47-43c3-24.65,1.33-51.65.63-78.17l.1-10Z"/><path class="c" d="M235,247.83l23.23,22.57.12,3.93L235.9,252.5l-.85-4.65Zm5.22,34.45,18.24,28.06-.22,4.67-17.76-27.32-.48-5.27Zm2,64.41,7.6,9.36-.88,3.27L242.19,351Z"/><path class="m" d="M220.68,377.7l-25.27,9.69-37.07-96.18-9.66-21.64,47-20.29C207.69,291.23,215.35,334.19,220.68,377.7Z"/><path class="c" d="M192.05,253.39,164,306l-1.33-3.46,27.69-51.8Zm8.65,14.39,1.09,4.31-27.88,59.52L172.52,328Zm9.7,43.61.79,4.18L185,360.31,183.71,357Zm6.33,37.23.71,4.8-16.11,31.7-3.91,1.5,19.31-38Z"/><path class="n" d="M278.15,102.31,267,125c-57.08-122-105.72-24.81-165.72,66.74l.35,1.19-.92-.3-2.61-4.48c36.82-87.16,75-129.32,113.65-156.67,4.87-3.14,7.24-3,11.46.44,19.57,16,37.19,43.65,55,70.45Z"/><path class="o" d="M248.4,59.11l-1.71-.21c-2.74-.27-7.62-.53-10.58.9A8,8,0,0,0,231.77,67c-.1,2.83,1.07,5.71,2.5,6.8a3.4,3.4,0,0,0,4.55-.69,7.59,7.59,0,0,0,1.54-4.88,9.64,9.64,0,0,0-1.18-4,1.8,1.8,0,0,1,.19-1.89c.42-.44,1-.32,1.31.28a.54.54,0,0,0,0,.11,13,13,0,0,1,1.47,5.4,10.69,10.69,0,0,1-2.28,7.19,4.75,4.75,0,0,1-6,1.13l-1.14-.89c-1.81-1.86-3-5.22-2.82-8.75.16-3.94,2.06-7.9,5.61-9.61,3.28-1.58,7.7-1.33,10.56-1.07l2.29,3Zm-6.07-7.63-.81-.12-6-1.35c-2.48-.36-5.7-.48-8.61,1.62s-5.49,6.38-8.55,9.9a26.49,26.49,0,0,1-7.48,6.18,30.88,30.88,0,0,0-6.06.73,5.51,5.51,0,0,1-3.21-3.13c-1.23-2.85-1-7.37.46-10.68a12.33,12.33,0,0,1,6.13-6.3c2-.85,3.42-.38,4.22,1a6.25,6.25,0,0,1,.45,4.89,2.21,2.21,0,0,1-2.84,1,21,21,0,0,1-2.23-1.31,1.88,1.88,0,0,0-2.18.71,5.58,5.58,0,0,0-1.11,4.18c.2,1.91,1.19,4.37,2.51,5.22s3,.23,5.48-2.6,5.8-7.91,8.54-11a13.26,13.26,0,0,1,8.23-4.82,26.89,26.89,0,0,1,7.65-.45l5.44,6.34Zm28,45.75a15.88,15.88,0,0,1,2,4.45,1.7,1.7,0,0,1-.32,1.85c-.44.38-1,.18-1.27-.46a1.46,1.46,0,0,1-.07-.19c-.78-2.34-1.37-4.15-3.1-4.94s-5.27-.42-9.09-2a20.55,20.55,0,0,1-9.7-9,11.38,11.38,0,0,1-1.32-5.75A5,5,0,0,1,249.55,77a4.52,4.52,0,0,1,3.72-.15,12.84,12.84,0,0,1,3.3,1.52,5.54,5.54,0,0,1,1.77,1.68A6.8,6.8,0,0,1,259,81.7a1.55,1.55,0,0,1-.55,1.73c-.48.26-1-.09-1.19-.79a.45.45,0,0,1,0-.16,1.28,1.28,0,0,0-.21-.59,3.8,3.8,0,0,0-1.17-1,11.6,11.6,0,0,0-2.9-1.35,3.78,3.78,0,0,0-2.65,0,2.08,2.08,0,0,0-.86,1.87,8,8,0,0,0,1,3.92,19.59,19.59,0,0,0,8.74,8c3.43,1.45,6.68,1,9.12,2.07a5.63,5.63,0,0,1,2.21,1.86Zm-.88,3.34h0l.06.1a1.8,1.8,0,0,1-.18,1.9.71.71,0,0,1-1.07.05,3.8,3.8,0,0,0-1.89-1.15,11,11,0,0,0-3.31.29c-.5.17-1-.29-1.11-1a1.45,1.45,0,0,1,.7-1.62.63.63,0,0,1,.19,0,11.2,11.2,0,0,1,3.77-.31,5.46,5.46,0,0,1,2.64,1.53,1.43,1.43,0,0,1,.22.26Zm3.43,5.6a4.69,4.69,0,0,1,.5,1.61,5.7,5.7,0,0,1-.69,3.28,25.3,25.3,0,0,1-1.45,2.72.75.75,0,0,1-1.31.15,1.33,1.33,0,0,1-.2-.35.75.75,0,0,1-1.32,0,1.4,1.4,0,0,1-.15-.3,9.23,9.23,0,0,1-.77-4.09,9,9,0,0,1,.55-2.73,3.22,3.22,0,0,1,1.68-2,2.23,2.23,0,0,1,2.23.65,4.21,4.21,0,0,1,.86,1.1Zm-1.48,1.65h0a2,2,0,0,0-.36-.48,1.05,1.05,0,0,0-.81-.31c-.13,0-.32.26-.48.72a5.56,5.56,0,0,0-.33,1.6,5.7,5.7,0,0,0,.53,2.55l1.26-2.3a3.38,3.38,0,0,0,.36-1.38,1.3,1.3,0,0,0-.15-.41ZM222.3,40.19a1.82,1.82,0,0,1,0,1.91.93.93,0,0,1-.16.18c-1.64,1.49-3.26,3.12-4.94,3.37s-3-1.34-3.35-3.36a13.08,13.08,0,0,1,.67-5.51c.19-.71.72-1.07,1.21-.81a1.64,1.64,0,0,1,.55,1.77h0a15.77,15.77,0,0,0-.69,4c0,.78.51,1.42,1.36,1.28s2.5-1.51,4.13-3a.74.74,0,0,1,1.19.22Zm6.14,15a.41.41,0,0,1,.07.11,1.78,1.78,0,0,1-.17,1.89v0c-1.39,1.62-2.53,3-2.75,4.94s.45,5.26,1.25,8.68a1.91,1.91,0,0,1,0,.92l-2-1c-.72-3.1-1.45-6.23-1.1-9.06.37-3.13,2-5,3.43-6.62a.74.74,0,0,1,1.26.11Zm-31.69-4.43,2.21,3.6a8.63,8.63,0,0,1,1.17,3.89,6.73,6.73,0,0,1-1,3.38,8.51,8.51,0,0,0-.92,2.07c-.21,1.06.39,3.28,1.2,5.66a1.71,1.71,0,0,1,.11.68l-1.72.68a1.09,1.09,0,0,1-.05-.17c-.81-2.38-1.83-4.93-1.32-7.59a9.4,9.4,0,0,1,1.24-3,4,4,0,0,0,.6-1.68,6.73,6.73,0,0,0-.8-2.31c-.53-1-1.28-2.18-2.05-3.36a1.82,1.82,0,0,1,0-1.91.75.75,0,0,1,1.32,0l0,0Zm-4.92,10.57h0a5.39,5.39,0,0,1,.37,3.9A9.92,9.92,0,0,1,191,68.57a2.9,2.9,0,0,1-1.69,1.35,2.66,2.66,0,0,0-.86.31,5.17,5.17,0,0,0-.77,1.22L187,73.22a8.21,8.21,0,0,1-.84,1.68.75.75,0,0,1-1.32,0,1.82,1.82,0,0,1,0-1.91l0,0a.87.87,0,0,0,.1-.19l-1,1.47a.74.74,0,0,1-1.31,0,1.8,1.8,0,0,1,0-1.91l0,0,2.56-3.71c-.07-.17-.13-.16-.18-.36a8.33,8.33,0,0,1,1.56-5.76,5.68,5.68,0,0,1,2.56-1.87,2.05,2.05,0,0,1,2.7.76Zm-1.38,1.82h0a2.13,2.13,0,0,0-.91,0,4.19,4.19,0,0,0-1.77,1.29,4.67,4.67,0,0,0-.84,1.84,4,4,0,0,0-.12,1.19,1,1,0,0,1,.22.31,2.33,2.33,0,0,1,.12.69c.14-.18.21-.42.38-.56a3.11,3.11,0,0,1,1.38-.64,1,1,0,0,0,.68-.5,8.36,8.36,0,0,0,.74-2.23,9,9,0,0,0,.07-1.38Zm-5,6.11a.36.36,0,0,1,0,.14c.09.19.14.23.16.23a2.53,2.53,0,0,0-.18-.37Zm-8.32,1,1.1,2A4,4,0,0,1,178.7,75a3.05,3.05,0,0,1-1.1,1.77,1.22,1.22,0,0,0-.16.18s.07.11.25.39a21.18,21.18,0,0,0,1.37,1.75,1.84,1.84,0,0,1,.12,1.92.75.75,0,0,1-1.32.17h0l-1.49-2a3.77,3.77,0,0,1-.87-2.62,2.71,2.71,0,0,1,.48-1.39,5.2,5.2,0,0,1,.57-.65,3.37,3.37,0,0,0,.32-.38,1.51,1.51,0,0,0-.12-.37,15.65,15.65,0,0,0-1-1.68,1.82,1.82,0,0,1,.11-1.91.74.74,0,0,1,1.27.09Zm-6.64,7a1,1,0,0,1,.07.15.3.3,0,0,1,0,.08c1.14,2.47,2.42,5,2.41,7.86,0,2.71-1.27,4.68-2.38,6.44l-.62.67c-.49.19-1-.25-1.13-1a1.9,1.9,0,0,1,.22-1.26c1.15-1.83,2.06-3.44,2.07-4.9s-1-3.86-2.1-6.34a1.8,1.8,0,0,1,.2-1.89.74.74,0,0,1,1.22.15Zm-3.36,8.57a1.8,1.8,0,0,1-.09,1.91l-.07.08c-2.23,2.39-4.51,4.92-7.17,5.9s-5.37.32-8-.29a1.4,1.4,0,0,1-.78-1.56,1.82,1.82,0,0,1,.14-.52l.35-.46a.66.66,0,0,1,.58-.14c2.59.61,5,1.16,7.2.36s4.32-3.06,6.55-5.44a.74.74,0,0,1,1.26.18ZM163,100.69l-1.51,1.86A7.34,7.34,0,0,0,159,101a.37.37,0,0,0-.39.21,2.2,2.2,0,0,0-.08,1.19,16,16,0,0,0,.77,2.95l-1.46,1.88a20.28,20.28,0,0,1-1.14-4.38,5.84,5.84,0,0,1,.4-3.24,2.4,2.4,0,0,1,1.9-1.38c1.44,0,2.72,1.29,4,2.37l0,0Zm-9.44,7.11h0a4.53,4.53,0,0,1,.54,1.42,6.46,6.46,0,0,1,0,2.87l-1.61,2.23a9.37,9.37,0,0,1-.85.4c-.48.23-1-.15-1.17-.86a1.56,1.56,0,0,1,.6-1.71l.09,0a3.87,3.87,0,0,0,.9-.46.69.69,0,0,0,.29-.45,3.18,3.18,0,0,0,0-1.19c-.09-.39-.17-.52-.28-.56s-.55,0-1.1.49a7.33,7.33,0,0,0-1.68,2.69,41.87,41.87,0,0,0-1.88,8.73l-2.17,3.09.21-2.52a45.52,45.52,0,0,1,2.23-10.65,9.73,9.73,0,0,1,2.29-3.62,2.49,2.49,0,0,1,2.56-.83,2.19,2.19,0,0,1,1,.94ZM139,131.33h0a4.22,4.22,0,0,1,.53,1.49l-5.25,7.9c-.51.1-1-.42-1.05-1.16a1.57,1.57,0,0,1,.45-1.34l2.89-2.75a5.47,5.47,0,0,0,1.17-1.88c0-.21-.05-.56-.54-.92a2.39,2.39,0,0,0-2.29-.21c-2,.74-4.86,4-6.2,8-1.15,3.24-1.45,7.19-1.61,11.37l-1.93,3v-.21c.12-5.24.22-10.68,1.89-15.39s4.72-8.34,7.48-9.37a3.63,3.63,0,0,1,3.58.41,3.87,3.87,0,0,1,.95,1.07Z"/><path class="h" d="M107.72,149.38,73.22,181l35.47,61.18,4.71.34-2.1-5.65,33.93-30.07L125,171.4Z"/><path class="i" d="M96.17,145.75,124,176.62l160.64-17.8,6.56-2.89c-38.14-144.24-112-90.66-195.07-10.18Z"/><path class="b" d="M264.58,176.78,283.32,157c-44-140.39-110.47-61.87-172.76-10.56l18.63,66.32Z"/><path class="c" d="M259.38,103.66l1.93,2.9a152.73,152.73,0,0,0-44.1,72.88c-1.32.44-2.62.92-3.92,1.44a156,156,0,0,1,46.09-77.22ZM246.57,89a222.29,222.29,0,0,0-49.21,97.12l-3.69.74a225,225,0,0,1,50.3-100c.91.7,1.8,1.42,2.67,2.18Zm21,28.46,1.66,3.29a168.83,168.83,0,0,0-33.46,55.39c-1.22,0-2.46.08-3.72.19a172.29,172.29,0,0,1,35.52-58.86ZM273.87,131l1.45,3.54A165.85,165.85,0,0,0,247.82,177c-1.17-.19-2.36-.34-3.55-.48A169.16,169.16,0,0,1,273.87,131Zm5.33,13.73,1.27,3.64a101.39,101.39,0,0,0-19.78,29.5l-3.68,1-.44-.1a104.71,104.71,0,0,1,22.63-34ZM222,77.92a363.81,363.81,0,0,0-49.44,114.94l-3.86,1.44A367.25,367.25,0,0,1,218,77.74c1.34,0,2.67.07,4,.19Zm-22.41,3.29a253.66,253.66,0,0,0-44.63,119L151.26,202a257.23,257.23,0,0,1,42.52-118.5c1.93-.85,3.84-1.62,5.75-2.29ZM170.57,97A342.62,342.62,0,0,0,125,197.73l-1.79-6.38a345.91,345.91,0,0,1,39.63-88.62q3.9-3,7.77-5.68Z"/><path class="n" d="M281.26,163.14l-11.09,12.18C230,98.53,182,149.68,124.81,197.19l.33,1.17-1-.75-.64-4.83c36.68-45.48,71.54-65.84,105.78-77.83,4.39-1.36,6.41-1,9.83,1.35,15.65,11.34,28.83,29.31,42.18,46.79Z"/><path class="o" d="M258.76,134.83l-1.45-.29c-2.33-.43-6.43-1.1-9.11-.52s-3.92,2.14-4.22,3.79a4.4,4.4,0,0,0,1.67,4.23,4,4,0,0,0,3.92.09,3.58,3.58,0,0,0,1.65-2.71,4.5,4.5,0,0,0-.72-2.48.79.79,0,0,1,.3-1.09.8.8,0,0,1,1.09.3l0,.06a6,6,0,0,1,.89,3.32,5.08,5.08,0,0,1-2.44,4,5.44,5.44,0,0,1-5.25.07l-.92-.64a5.94,5.94,0,0,1-1.8-5.41,6.52,6.52,0,0,1,5.46-5.08c2.92-.6,6.69,0,9.13.4l1.76,2Zm-4.65-5.08-.68-.15-5.07-1.38a13.64,13.64,0,0,0-7.49.09c-2.63.94-5.14,3.21-8,5a23,23,0,0,1-6.83,2.88,39.84,39.84,0,0,0-5.24-.17,4.38,4.38,0,0,1-2.53-2.16,6.26,6.26,0,0,1,1.13-6.22,9.62,9.62,0,0,1,5.69-3.09c1.8-.28,3,.12,3.55,1a2.65,2.65,0,0,1,0,2.91,2.42,2.42,0,0,1-2.49.3,19,19,0,0,1-1.82-1,2.11,2.11,0,0,0-1.92.2,2.6,2.6,0,0,0-1.24,2.34A4.27,4.27,0,0,0,223,133.6c1.06.63,2.55.43,4.87-1s5.5-4.07,8.07-5.6a13.26,13.26,0,0,1,7.38-2,34.21,34.21,0,0,1,6.57.48l4.22,4.26Zm20.82,29.63a8.38,8.38,0,0,1,1.42,2.81.8.8,0,0,1-1.46.65s0-.07,0-.11c-.51-1.46-.89-2.57-2.32-3.21s-4.49-.78-7.64-2.1a16.8,16.8,0,0,1-7.68-6.24,5.09,5.09,0,0,1-.74-3.51,2.88,2.88,0,0,1,2-2.24,5.6,5.6,0,0,1,3.2.28,14,14,0,0,1,2.72,1.22,4.48,4.48,0,0,1,1.4,1.16,2.4,2.4,0,0,1,.42,1,.8.8,0,0,1-.64.93.79.79,0,0,1-.93-.64h0a.62.62,0,0,0-.14-.38,2.72,2.72,0,0,0-.92-.72,12.55,12.55,0,0,0-2.39-1.09,4.75,4.75,0,0,0-2.27-.24,1.16,1.16,0,0,0-.87,1,3.63,3.63,0,0,0,.56,2.4c1.11,1.94,4.08,4.36,6.93,5.56s5.65,1.22,7.66,2.11a4,4,0,0,1,1.76,1.32Zm-1,1.87h0a.8.8,0,0,1-1.17,1.08,3.77,3.77,0,0,0-1.53-.87,13.66,13.66,0,0,0-2.86-.15.8.8,0,1,1-.21-1.59h.2a14.29,14.29,0,0,1,3.25.19,5.45,5.45,0,0,1,2.16,1.16.85.85,0,0,1,.16.17Zm2.55,3.63a2.06,2.06,0,0,1,.31,1,2.7,2.7,0,0,1-.76,1.87,12.88,12.88,0,0,1-1.42,1.45.8.8,0,0,1-1.13,0,.78.78,0,0,1-.16-.24.78.78,0,0,1-1.23-.33,4.09,4.09,0,0,1-.38-2.48,3.94,3.94,0,0,1,.68-1.55,2.4,2.4,0,0,1,1.57-1,2.48,2.48,0,0,1,1.86.6,2.78,2.78,0,0,1,.67.74Zm-1.38.83h0a1.37,1.37,0,0,0-.28-.32,1.12,1.12,0,0,0-.67-.26.78.78,0,0,0-.48.37,2.72,2.72,0,0,0-.4.91,2.36,2.36,0,0,0,.29,1.55l1.24-1.23a1.45,1.45,0,0,0,.39-.78.43.43,0,0,0-.11-.25Zm-37.38-44.56a.8.8,0,0,1-.17,1.11.55.55,0,0,1-.14.09,11.07,11.07,0,0,1-4.46,1.5,2.65,2.65,0,0,1-2.64-2.31,5.47,5.47,0,0,1,1-3.2.8.8,0,0,1,1.42.74,5.41,5.41,0,0,0-.8,2.28,1,1,0,0,0,1.07.9,12.55,12.55,0,0,0,3.75-1.36.81.81,0,0,1,1,.25Zm4.21,9.42a.8.8,0,0,1-.15,1.12.24.24,0,0,1-.08.06c-1.31.82-2.38,1.53-2.7,2.63s0,3.13.47,5.22a.84.84,0,0,1-.06.54l-1.63-.78c-.41-1.9-.8-3.79-.32-5.43.53-1.79,2.08-2.72,3.39-3.54a.8.8,0,0,1,1.07.19Zm-26.88-5.74,1.63,2.33a3.93,3.93,0,0,1,.73,2.41,3.15,3.15,0,0,1-1.09,1.88,4.75,4.75,0,0,0-.92,1.12c-.25.61.12,2,.68,3.49a1,1,0,0,1,.06.41l-1.52.22a.29.29,0,0,1,0-.1c-.53-1.48-1.23-3.07-.61-4.58a4.93,4.93,0,0,1,1.26-1.62c.4-.41.61-.7.63-.92a3,3,0,0,0-.52-1.44,24.6,24.6,0,0,0-1.52-2.18.8.8,0,0,1,.15-1.12.81.81,0,0,1,1.12.16Zm-4.94,5.72h0a2.2,2.2,0,0,1,0,2.33,5.39,5.39,0,0,1-1.23,1.83,2.7,2.7,0,0,1-1.55.63,3.64,3.64,0,0,0-.76.09,3.25,3.25,0,0,0-.74.64c-.28.32-.55.69-.77,1a4.16,4.16,0,0,1-.84.9.79.79,0,0,1-1.12-.16.8.8,0,0,1,.16-1.12s.08-.09.1-.1l-1,.76a.8.8,0,0,1-1.12-.15.81.81,0,0,1,.16-1.12l2.45-1.93c-.06-.11-.11-.1-.12-.22a2.86,2.86,0,0,1,.33-1.58,4.19,4.19,0,0,1,1.4-1.65,5.48,5.48,0,0,1,2.33-.85,2.25,2.25,0,0,1,2.26.72Zm-1.3.93h0a2.28,2.28,0,0,0-.78-.06,3.87,3.87,0,0,0-1.61.59,2.4,2.4,0,0,0-.85,1,2.05,2.05,0,0,0-.18.69.67.67,0,0,1,.16.19,1.08,1.08,0,0,1,.06.38c.14-.09.21-.22.37-.29a3.22,3.22,0,0,1,1.28-.23.83.83,0,0,0,.62-.23,3.9,3.9,0,0,0,.79-1.23,3.4,3.4,0,0,0,.15-.8Zm-4.65,3.11c.07.21.12.23.12.23A1.76,1.76,0,0,0,204.17,134.59Zm-7.21-.21.81,1.27a1.74,1.74,0,0,1,.18,1.63,1.9,1.9,0,0,1-1.06.92l-.15.09a2.34,2.34,0,0,1,.19.26,13.93,13.93,0,0,0,1,1.16.8.8,0,0,1,0,1.14.82.82,0,0,1-1.14,0l-.07-.08-1.15-1.29a1.86,1.86,0,0,1-.57-1.63,1.43,1.43,0,0,1,.51-.78,2.45,2.45,0,0,1,.54-.32,1.86,1.86,0,0,0,.3-.2c0-.05,0-.11-.08-.23a10.47,10.47,0,0,0-.7-1.08.8.8,0,0,1,1.31-.92Zm-6.16,3.45a1,1,0,0,1,.09.15c.79,1.56,1.72,3.17,1.52,4.85s-1.41,2.62-2.52,3.5l-.59.33a.8.8,0,0,1-.9-.68.82.82,0,0,1,.28-.72c1.11-1,2-1.82,2.1-2.68s-.56-2.36-1.36-3.93a.8.8,0,0,1,.3-1.09.79.79,0,0,1,1,.21Zm-3.47,4.69a.79.79,0,0,1-.22,1.11l-.06,0a20.25,20.25,0,0,1-6.54,2.76c-2.3.38-4.63-.35-6.8-1a.79.79,0,0,1-.55-1,.73.73,0,0,1,.16-.3l.31-.23a.81.81,0,0,1,.51,0,16,16,0,0,0,6.14.91,18.15,18.15,0,0,0,6-2.55.8.8,0,0,1,1.06.23Zm-4.58,8.28-1.42.94a6.78,6.78,0,0,0-2.08-1.15c-.21,0-.27,0-.33.09a1,1,0,0,0-.15.69,7.42,7.42,0,0,0,.46,1.81l-1.38,1a9.57,9.57,0,0,1-.68-2.69,2.49,2.49,0,0,1,.56-1.86,1.88,1.88,0,0,1,1.77-.53,7.4,7.4,0,0,1,3.26,1.78h0ZM174.17,154h0a2.29,2.29,0,0,1,.37.89,2.67,2.67,0,0,1-.21,1.69l-1.53,1.15a6.58,6.58,0,0,1-.75.14.8.8,0,1,1-.36-1.55l.13,0a3.7,3.7,0,0,0,.8-.18c.17-.07.21-.1.28-.23a1.39,1.39,0,0,0,.07-.7c-.05-.24-.11-.32-.2-.36a1.51,1.51,0,0,0-1,.18,4.53,4.53,0,0,0-1.63,1.41,20.64,20.64,0,0,0-2.25,4.89l-2.07,1.6a14.57,14.57,0,0,1,.35-1.45,20.18,20.18,0,0,1,2.64-6,6.14,6.14,0,0,1,2.21-1.9,2.83,2.83,0,0,1,2.26-.22,1.78,1.78,0,0,1,.81.65Zm-14.09,12.38h0a2.16,2.16,0,0,1,.36.93l-5,4.11a.79.79,0,0,1-.34-1.52l2.66-1.32a2.9,2.9,0,0,0,1.13-1c0-.11,0-.33-.39-.58a2.89,2.89,0,0,0-2-.35,10,10,0,0,0-5.92,4.06c-1.25,1.74-1.74,4.07-2.16,6.5l-1.86,1.57a.53.53,0,0,1,0-.13c.46-3.07.92-6.25,2.68-8.85a11,11,0,0,1,7-4.76,4.43,4.43,0,0,1,3,.59,2.67,2.67,0,0,1,.73.73Z"/><path class="p" d="M205.54,101.46l-8.27,45.44h19.25l11-23.33,11,23.33h19.26l-8.27-45.44h-44Z"/><path class="q" d="M211.46,107.91l14.47,24.35-4,4.62-20.07-19.09Z"/><path class="r" d="M227.54,123.57c-5.84,8.35-10.75,17.18-21.84,22.73L214,155l13.57-20.83L241.11,155l8.27-8.73C238.29,140.68,233.4,131.85,227.54,123.57Z"/><path class="q" d="M243.63,107.91l-14.47,24.35,4,4.62,20.07-19.09Z"/><path class="e" d="M227.54,123.57v10.7l13.57,20.83,8.27-8.72c-11.09-5.62-16-14.46-21.84-22.74Z"/><path class="p" d="M227.54,134.27a77.4,77.4,0,0,1-16.41,18.22l10.4,5.28,6-1.63,6,1.63L244,152.49a77.46,77.46,0,0,1-16.42-18.22Z"/><path class="s" d="M227.54,94a35.37,35.37,0,1,0,35.37,35.38A35.37,35.37,0,0,0,227.54,94Zm0,10.24A25.94,25.94,0,1,1,201.6,130.2,25.94,25.94,0,0,1,227.54,104.26Z"/><path class="i" d="M120.1,213.85,143.73,240l136.21-15.37,5.56-2.45c-31.72-122.07-92.21-76.79-165.4-8.36Z"/><path class="b" d="M261.23,245l18.7-20.31C242.88,105.88,186.4,172.48,133.51,216l14.74,58.26C167.42,262,188.06,252.42,212,249c21.93-11.42,35.16-7,49.21-4.08Z"/><path class="c" d="M259.54,179.26l1.64,2.44a128.75,128.75,0,0,0-38.54,62.68c-1.09.36-2.18.76-3.31,1.21a131.44,131.44,0,0,1,40.21-66.32Zm-11-12.4a187.28,187.28,0,0,0-42.65,83.19l-3.1.69a190.15,190.15,0,0,1,43.48-85.62c.69.57,1.52,1.17,2.27,1.81Zm17.84,23.92,1.4,2.76a141.79,141.79,0,0,0-29.5,48.1c-1,0-2.1.07-3.14.16a145.4,145.4,0,0,1,31.24-51Zm5.34,11.37,1.22,3a140.5,140.5,0,0,0-24.49,37.3c-1-.15-2-.29-3-.4a143,143,0,0,1,26.26-39.85Zm4.53,11.67,1.07,3a85.32,85.32,0,0,0-18.61,27.6l-2.89-.62a88,88,0,0,1,20.43-30Zm-48.89-56.06a307,307,0,0,0-42.4,98L181.71,257A309.53,309.53,0,0,1,224,157.68C225.1,157.65,226.23,157.68,227.37,157.76Zm-19.1,3.15A213.89,213.89,0,0,0,170.14,262l-3.08,1.51A216.81,216.81,0,0,1,203.33,163c1.62-.74,3.27-1.43,4.94-2.05Zm-24.78,13.78a287.72,287.72,0,0,0-38.74,85.7l-1.46-5.65a291.41,291.41,0,0,1,33.57-75.15c2.22-1.7,4.42-3.34,6.63-4.91Z"/><path class="n" d="M278.4,230.16,269,240.51c-34.43-65.73-75.47-21.31-124.43,19.25l.18.62-.66-.22-1.63-2.46c31.85-40.38,62.08-58.17,91.77-68.56,3.72-1.15,5.51-.88,8.31,1.2,13.3,9.64,24.51,24.94,35.87,39.8Z"/><path class="o" d="M259.27,206.08l-1.24-.24c-2-.38-5.51-.91-7.75-.46a4.15,4.15,0,0,0-3.58,3.22,3.8,3.8,0,0,0,1.43,3.6,3.35,3.35,0,0,0,3.34.08,3,3,0,0,0,1.4-2.3,3.67,3.67,0,0,0-.62-2.1.68.68,0,1,1,1.13-.76.61.61,0,0,1,.07.14,4.54,4.54,0,0,1,.69,2.82,4.47,4.47,0,0,1-2.07,3.39,4.63,4.63,0,0,1-4.45.06l-.78-.56a5.08,5.08,0,0,1-1.55-4.6,5.58,5.58,0,0,1,4.64-4.32,22.48,22.48,0,0,1,7.75.36l1.5,1.68Zm-4-4.32-.59-.14-4.31-1.18a11.56,11.56,0,0,0-6.36.06c-2.24.8-4.36,2.73-6.8,4.22a19.48,19.48,0,0,1-5.79,2.45A34.93,34.93,0,0,0,227,207a3.73,3.73,0,0,1-2.15-1.84,5.31,5.31,0,0,1,1-5.29,8.14,8.14,0,0,1,4.82-2.62c1.52-.24,2.52.1,3,.86a2.27,2.27,0,0,1,0,2.48,2,2,0,0,1-2.12.25A11.36,11.36,0,0,1,230,200a1.78,1.78,0,0,0-1.63.17,2.22,2.22,0,0,0-1.05,2,3.67,3.67,0,0,0,1.51,2.82c.91.56,2.17.38,4.14-.82s4.68-3.45,6.85-4.83a10.69,10.69,0,0,1,6.27-1.7,29.17,29.17,0,0,1,5.6.42l3.59,3.63ZM273,227a6.19,6.19,0,0,1,1.2,2.39A.68.68,0,1,1,273,230a.52.52,0,0,1-.06-.16c-.44-1.24-.69-2.19-2-2.73s-3.81-.66-6.49-1.79A14.46,14.46,0,0,1,258,220a4.39,4.39,0,0,1-.63-3,2.43,2.43,0,0,1,1.7-1.9,4.69,4.69,0,0,1,2.71.24,12.36,12.36,0,0,1,2.31,1,3.8,3.8,0,0,1,1.19,1,2.08,2.08,0,0,1,.35.87.68.68,0,0,1-.47.84.67.67,0,0,1-.84-.46.39.39,0,0,1,0-.14c0-.19,0-.21-.12-.31a3.27,3.27,0,0,0-.78-.69,7.88,7.88,0,0,0-2-.93,3.88,3.88,0,0,0-1.93-.2,1,1,0,0,0-.74.86,3.06,3.06,0,0,0,.47,2A13.66,13.66,0,0,0,265,224c2.41,1,4.8,1.05,6.51,1.81a4,4,0,0,1,1.49,1.11Zm-.84,1.59h0l0,0a.68.68,0,0,1-1,.86,2.69,2.69,0,0,0-1.38-.73,13.47,13.47,0,0,0-2.42-.14.68.68,0,0,1-.78-.57.69.69,0,0,1,.58-.78.61.61,0,0,1,.19,0,11.76,11.76,0,0,1,2.76.18,4.76,4.76,0,0,1,1.83,1,.67.67,0,0,1,.14.15Zm2.17,3.08a1.73,1.73,0,0,1,.26.85,2.27,2.27,0,0,1-.64,1.58,12.86,12.86,0,0,1-1.21,1.24.68.68,0,0,1-1,0,.8.8,0,0,1-.13-.19.69.69,0,0,1-1-.12.56.56,0,0,1-.09-.17,3.52,3.52,0,0,1-.33-2.1,3.18,3.18,0,0,1,.57-1.32,2,2,0,0,1,1.34-.86,2.14,2.14,0,0,1,1.59.51,2.37,2.37,0,0,1,.56.62Zm-1.18.7h0a1.32,1.32,0,0,0-.23-.27.91.91,0,0,0-.56-.22.67.67,0,0,0-.4.32,2,2,0,0,0-.34.77,2.11,2.11,0,0,0,.23,1.32l1.05-1a1.3,1.3,0,0,0,.34-.66.32.32,0,0,0-.09-.2Zm-31.79-37.91a.68.68,0,0,1-.15,1,.5.5,0,0,1-.12.08,9.45,9.45,0,0,1-3.79,1.27,2.25,2.25,0,0,1-2.24-2,4.87,4.87,0,0,1,.81-2.73.68.68,0,1,1,1.21.63h0a4.78,4.78,0,0,0-.69,1.95.73.73,0,0,0,.92.69,13.22,13.22,0,0,0,3.18-1.15.7.7,0,0,1,.85.21Zm3.6,8a.7.7,0,0,1-.14,1l-.06,0c-1.11.69-2,1.29-2.3,2.23a11.26,11.26,0,0,0,.41,4.44.61.61,0,0,1,0,.46l-1.37-.67a9.67,9.67,0,0,1-.28-4.61,5.64,5.64,0,0,1,2.88-3,.67.67,0,0,1,.91.16Zm-22.85-4.9,1.38,2a4.25,4.25,0,0,1,.69,2.05,2.63,2.63,0,0,1-.93,1.6,3.52,3.52,0,0,0-.78,1,5.54,5.54,0,0,0,.55,2.93.69.69,0,0,1,0,.35l-1.29.19a.13.13,0,0,1,0-.08c-.45-1.26-1.05-2.62-.53-3.9a4.28,4.28,0,0,1,1.08-1.38,1.64,1.64,0,0,0,.54-.79,2.51,2.51,0,0,0-.45-1.21,21.39,21.39,0,0,0-1.3-1.86.68.68,0,0,1,1-.93.76.76,0,0,1,.08.11ZM218,202.39h0a1.93,1.93,0,0,1,0,2,4,4,0,0,1-1.05,1.56,2.28,2.28,0,0,1-1.37.54,1.61,1.61,0,0,0-.64.08,2.26,2.26,0,0,0-.62.55c-.24.28-.47.58-.66.83a3.78,3.78,0,0,1-.72.76.68.68,0,0,1-1-.1.69.69,0,0,1,.1-1l0,0c-.23.15-.39.3-.74.56a.68.68,0,1,1-.87-1.05l.05,0,2.08-1.63c0-.1-.09-.09-.11-.21a2.55,2.55,0,0,1,.28-1.34,3.43,3.43,0,0,1,1.19-1.4,4.34,4.34,0,0,1,2-.71,2,2,0,0,1,1.93.62Zm-1.1.79h0a2.36,2.36,0,0,0-.67-.06,3.49,3.49,0,0,0-1.36.5,2,2,0,0,0-.72.85,1.61,1.61,0,0,0-.16.58.69.69,0,0,1,.14.17.89.89,0,0,1,0,.32c.11-.07.18-.19.31-.25a2.73,2.73,0,0,1,1.09-.19.64.64,0,0,0,.53-.19,3.39,3.39,0,0,0,.66-1,2.24,2.24,0,0,0,.13-.69Zm-4,2.63a1.79,1.79,0,0,0,.11.21,2.34,2.34,0,0,0-.11-.21Zm-6.11-.18.68,1.08a1.5,1.5,0,0,1,.16,1.38,1.65,1.65,0,0,1-.91.79l-.13.07s0,.07.17.22.55.62.89,1a.69.69,0,1,1-1,.94l-1-1.1a1.56,1.56,0,0,1-.48-1.38,1.18,1.18,0,0,1,.43-.66,2.7,2.7,0,0,1,.46-.28,1.57,1.57,0,0,0,.25-.16.55.55,0,0,0-.07-.21,7.76,7.76,0,0,0-.6-.91.69.69,0,0,1,.25-.94.68.68,0,0,1,.86.15Zm-5.24,2.91.05.08,0,0c.69,1.33,1.47,2.7,1.31,4.13a5,5,0,0,1-2.11,3l-.5.28a.69.69,0,0,1-.76-.6.72.72,0,0,1,.23-.6c.95-.82,1.7-1.55,1.79-2.27a7.72,7.72,0,0,0-1.15-3.34.67.67,0,0,1,.31-.91.69.69,0,0,1,.82.16Zm-2.94,4a.69.69,0,0,1-.19,1l0,0a15.79,15.79,0,0,1-5.56,2.34A13.93,13.93,0,0,1,187,215a.68.68,0,0,1-.47-.84.64.64,0,0,1,.13-.26l.28-.2a.58.58,0,0,1,.43,0,13.43,13.43,0,0,0,5.22.78,15.48,15.48,0,0,0,5.08-2.16.68.68,0,0,1,.9.19Zm-3.89,7-1.2.8a5.27,5.27,0,0,0-1.77-1,.31.31,0,0,0-.29.07.82.82,0,0,0-.13.59,6.07,6.07,0,0,0,.39,1.53l-1.17.82a8,8,0,0,1-.58-2.28,2,2,0,0,1,.48-1.58,1.7,1.7,0,0,1,1.46-.48,6.41,6.41,0,0,1,2.78,1.51h0Zm-7.28,2.75h0a1.94,1.94,0,0,1,.31.76,2.26,2.26,0,0,1-.17,1.43l-1.38,1c-.23.06-.44.1-.63.13a.68.68,0,0,1-.85-.47.67.67,0,0,1,.46-.84.58.58,0,0,1,.19,0,4.05,4.05,0,0,0,.68-.16c.16-.06.19-.08.25-.19a1.25,1.25,0,0,0,0-.6c0-.21-.09-.28-.16-.3a1.27,1.27,0,0,0-.83.16,3.86,3.86,0,0,0-1.38,1.19,15.66,15.66,0,0,0-1.88,4.21l-1.75,1.35a12.1,12.1,0,0,1,.29-1.24,17,17,0,0,1,2.24-5.12,5.14,5.14,0,0,1,1.88-1.61,2.46,2.46,0,0,1,1.92-.2,1.51,1.51,0,0,1,.69.56Zm-12,10.51h0a1.69,1.69,0,0,1,.3.79l-4.27,3.49a.68.68,0,0,1-.69-.68.67.67,0,0,1,.4-.62l2.27-1.13a2.58,2.58,0,0,0,1-.84c0-.1,0-.27-.35-.5a2.42,2.42,0,0,0-1.65-.3,8.53,8.53,0,0,0-5,3.45,13.89,13.89,0,0,0-1.82,5.53L164,243.35a.41.41,0,0,1,0-.11c.39-2.6.78-5.3,2.27-7.51a9.41,9.41,0,0,1,6-4,3.77,3.77,0,0,1,2.59.51,2.32,2.32,0,0,1,.63.62Z"/><path class="i" d="M106.86,171.64A11.28,11.28,0,0,1,115.68,185a11.43,11.43,0,0,1-2.33,4.92,11.29,11.29,0,0,1,11.1,11.47,10.7,10.7,0,0,1-.22,2,11.29,11.29,0,0,1-21,3.14A11.28,11.28,0,1,1,93.83,186a11.29,11.29,0,0,1,13-14.38Z"/><circle class="j" cx="104.63" cy="182.7" r="5.84" transform="translate(-95.2 249.01) rotate(-78.56)"/><circle class="j" cx="113.18" cy="201.15" r="5.84" transform="translate(-106.42 272.16) rotate(-78.56)"/><circle class="j" cx="98.56" cy="196.26" r="5.84" transform="matrix(0.2, -0.98, 0.98, 0.2, -113.36, 253.92)"/><path class="t" d="M206.38,328.68l9.17-2,29-6.63,7.8,7.59-4.91,9.92-28.78,3.82-8.73,1.11-6.84,1.24-3.16-14.47Z"/><path class="i" d="M251.66,344.7a9.61,9.61,0,0,1-1.19-16.42A9.63,9.63,0,0,1,244,316.35a10.56,10.56,0,0,1,.65-1.64,9.61,9.61,0,0,1,17.94,2.18,9.6,9.6,0,0,1,3.08,19,9.61,9.61,0,0,1-14,8.85Z"/><circle class="j" cx="256.01" cy="336.13" r="4.97" transform="translate(-159.54 412.57) rotate(-63.13)"/><circle class="j" cx="253.18" cy="319.06" r="4.97" transform="translate(-145.86 400.68) rotate(-63.13)"/><circle class="j" cx="264.06" cy="326.37" r="4.97" transform="translate(-146.42 414.41) rotate(-63.13)"/><path class="i" d="M215.55,326.68l1.91-2.86,11.92-2.67,3.7,1.58,3.24,14.85-1.7,3.94-12.66,2-3.35-2.13-8.72,1.11.94,3.7,6.53,4.1,21.57-4.14,3.31-5.57-4.29-23-4.9-3.07-21.61,3.63L207,324.21l.8,4.16Z"/><circle class="g" cx="227.28" cy="332.07" r="3.21"/><path class="i" d="M227.57,329.73c-3.29,1.25-1.58,5.26,1.07,5,3.81-.42,12.39-2,16.69-2.89,3.91-.85,1.41-6.44-1.71-5.91-3.92.66-12.33,2.43-16.05,3.83Z"/><path class="i" d="M201.55,319.57A9.59,9.59,0,0,1,202.74,336,9.61,9.61,0,1,1,190.9,348.2c-.09-.27-.16-.55-.23-.82a9.6,9.6,0,0,1-4.49-18.62,9.48,9.48,0,0,1,1.42-.34,9.6,9.6,0,0,1,14-8.85Z"/><circle class="j" cx="197.43" cy="327.7" r="4.97" transform="translate(-184.13 355.69) rotate(-63.13)"/><circle class="j" cx="200.26" cy="344.77" r="4.97" transform="translate(-197.8 367.58) rotate(-63.13)"/><circle class="j" cx="189.37" cy="337.46" r="4.97" transform="translate(-197.24 353.85) rotate(-63.13)"/><path class="t" d="M197,276.31l9.77-2.66,30.8-8.76,8.83,7.74-4.74,10.95-30.77,5.72L201.53,291l-7.3,1.71L190,277.3Z"/><path class="i" d="M246.62,291a10.36,10.36,0,0,1-2.19-17.62,10.35,10.35,0,1,1,12.35-12.93,10.35,10.35,0,1,1,4.37,20.24A10.35,10.35,0,0,1,246.63,291Z"/><circle class="j" cx="250.82" cy="281.56" r="5.36" transform="translate(-108.2 396.83) rotate(-66.11)"/><circle class="j" cx="246.82" cy="263.34" r="5.36" transform="translate(-93.93 382.33) rotate(-66.11)"/><circle class="j" cx="258.95" cy="270.6" r="5.36" transform="translate(-93.35 397.75) rotate(-66.11)"/><path class="i" d="M206.74,273.65l1.9-3.18,12.68-3.54,4.07,1.49,4.32,15.8-1.61,4.33-13.52,2.86-3.72-2.11L201.53,291l1.21,3.93,7.27,4,23-5.66,3.24-6.18-5.9-24.53-5.45-3-23,5.12-4.45,6.79,1.09,4.43Z"/><circle class="g" cx="219.67" cy="278.8" r="3.46"/><path class="i" d="M219.84,276.26c-3.47,1.53-1.4,5.75,1.44,5.29,4.08-.67,13.23-2.81,17.8-4.05,4.17-1.12,1.16-7-2.17-6.27-4.18.94-13.13,3.32-17.07,5Z"/><path class="i" d="M191.27,266.78a10.34,10.34,0,0,1,2.2,17.61,10.36,10.36,0,1,1-12.06,13.8c-.11-.28-.21-.57-.3-.86a10.35,10.35,0,0,1-5.88-19.79,10.06,10.06,0,0,1,1.51-.45,10.37,10.37,0,0,1,14.53-10.32Z"/><circle class="j" cx="187.28" cy="275.76" r="5.36" transform="translate(-140.71 335.29) rotate(-66.11)"/><circle class="j" cx="191.29" cy="293.98" r="5.36" transform="translate(-154.98 349.8) rotate(-66.11)"/><circle class="j" cx="179.16" cy="286.72" r="5.36" transform="translate(-155.55 334.38) rotate(-66.11)"/><path class="u" d="M211.76,415.85c12.66-10.07,26.76-17.13,43.71-18.18l-.05,7.81c-18.1,5-30.61,13.68-43.66,23.11Z"/></svg>