<svg xmlns="http://www.w3.org/2000/svg" viewBox="0 0 512 512"><defs><style>.a{fill:#71441b;}.b{fill:#37200b;}.c{fill:#5f3917;}.d{fill:#43270d;}.e{fill:#d2a93d;}.f{fill:#463429;}.g{fill:#2f1f0d;}.h{fill:#39250f;}.i{fill:#3f2911;}.j{fill:#7b5020;}.k{fill:#a86d2c;}.l{fill:#a2692a;}.m{fill:#845421;}.n{fill:#37210b;}.o{fill:#d2a93e;}.p{fill:#c49b2e;}.q{fill:#845623;}.r{fill:#754c1f;}.s{fill:#2d1a09;}.t{fill:#734b1f;}.u{fill:#211c0a;}.v{fill:#905623;}.w{fill:#806226;}</style></defs><title>armour_god_fire_gloves</title><path class="a" d="M371.58,261.34l-122,52.09-41.24,30-5.63-13.13,63.75-46.87,104.25-37.12Z"/><path class="b" d="M367.21,250.82,263.4,291.26l-8.22-14.58,100-46.14Z"/><path class="c" d="M267.91,275.56l10.5,41.25-55.13,31.13-8.06-9.31,3.13-2.81-2.57-24.56Z"/><path class="d" d="M448.84,205.81v41.06l-86.43,24.94-3.4-5.06,4.05-1.86,1.23-13.14-33.94-6.56Z"/><path class="e" d="M421.65,217.16a13.07,13.07,0,0,0-21.4,6.58,13.05,13.05,0,0,0-18.31-2.4,12.37,12.37,0,0,0-1.76,1.63,13.06,13.06,0,0,0,11.58,21.66,13.05,13.05,0,1,0,25.53-5.44,13.06,13.06,0,0,0,4.35-22Z"/><circle class="f" cx="412.93" cy="226.86" r="6.76" transform="translate(-31.7 382.69) rotate(-48.1)"/><circle class="f" cx="389.9" cy="231.67" r="6.76" transform="translate(-42.93 367.15) rotate(-48.1)"/><circle class="f" cx="404.54" cy="241.87" r="6.76" transform="translate(-45.66 381.43) rotate(-48.1)"/><path class="g" d="M36.16,482.93l43.13,26.25,95.62-39.75-9.75-24.38-118,24.75Z"/><path class="h" d="M65,488l36.75,23.06,55.3-7.13-26.63-21.37Z"/><path class="i" d="M90.73,488.18,128,512,202,505.63l-2-6.33-58.85-2.25-37.34-12.22Z"/><path class="j" d="M126.44,479.12,104,484.83l31.41,20,64.78-5.58-3.69-12-29.65-6.79Z"/><path class="k" d="M193.66,478.24l2.78,9.1-70-8.22,8-11.94Z"/><path class="j" d="M174.82,448.5l14.06,37.38,26.12,1.2-.8-22.67L205.84,440Z"/><path class="l" d="M205.72,444.25,215,487.07l5.56.4L213.94,442Z"/><path class="m" d="M155.6,438.68l7.69,16.18,38.72-7,1.86-24.4-9.42-17.76Z"/><path class="k" d="M202,447.83l17-4.5-7.3-69.6-17.23,31.95Z"/><path class="m" d="M52.6,421.58,33.37,481.64c4.37,3.1,12.76,3.49,16.43,3.25l6.33-2.76,19.14-56Z"/><path class="n" d="M68,424.64,49.8,484.89a65.25,65.25,0,0,0,8.1-1.26l17.37-57.54Z"/><path class="m" d="M75.27,426.09,56,486.15c3.68,2.53,10,3.79,16.44,3.23l12.74-1.12,12.72-57.67Z"/><path class="n" d="M90.66,429.15,72.48,489.4l12.73-1.12,12.72-57.67Z"/><path class="m" d="M96.92,432.68,80.79,485.55c25.09,14.23,51.26,3,59.81-18l-8.81-35.25Z"/><path class="o" d="M218.78,353.56l4.13,9.37L182,437.18l-63.6,11.94L34.66,421.37l58.5-112.12Z"/><path class="p" d="M92.7,313.74l-3.37,2.93-4,7.63.62-.4,4.36-3.2Zm-14,40.6-12.91,7.35-3,5.77,14-7.54ZM184.21,388.5l-2.07,3.14c4.92,3.87,12.45,5.53,21.69,6l2.06-3.74c-9.92-.38-17.59-2.07-21.67-5.37ZM64.88,394.71,36.44,422l4.05,1.34,21.64-20.68Zm102.89,18.76-2.07,3.14a55.48,55.48,0,0,0,20.8,8l2.27.33,2-3.56-3.6-.47a52.38,52.38,0,0,1-19.36-7.46ZM90.45,419l-8.52,18.08,3.51,1.2,8.5-18.06Zm40.81,5.86-3.72.52a146.14,146.14,0,0,0,6.8,20.8l3.75-.7a148.36,148.36,0,0,1-6.83-20.6Z"/><path class="q" d="M218.78,353.56,174,422.38l-57.71,10.17L52.78,409.66,93.17,309.32l39-26.28Z"/><path class="r" d="M132.14,283l-.7.52c-8.8,18.58-17.75,35.55-27.18,47.71A99.71,99.71,0,0,1,73.9,357.34l-2.22,5.54c12.15-6.62,24.28-14.8,35.54-29.31C117,321,126,303.85,134.83,285.19Zm11.57,9.41C132.2,312,120.08,331,106.4,348.58c-15.58,20-33.24,38.26-51.57,56l-2.06,5.13,1.56.57c19.5-18.7,38.4-38,55-59.35,13.71-17.61,25.83-36.56,37.3-56Zm-26.11.4-12.3,8.29-3.5,3.72c-3.68,3.84-7.49,7.55-11.14,10.68l-2.84,7.06a132.73,132.73,0,0,0,16.69-15.15c4.77-5,9.31-10.14,13.08-14.61Zm36.22,7.83c-9.12,14.85-17.93,29.7-26.14,44.53-14.33,25.88-26.79,51.65-38.94,77.44l3.54,1.28c12.1-25.65,24.48-51.23,38.68-76.9,8.1-14.62,16.8-29.28,25.79-43.95ZM172.69,316c-1.49,2.34-3.57,5.25-6.52,9.24-10.45,14.06-31.45,41.36-38.17,65.14-4.12,14.59-2.69,27.62.81,39.94l3.7-.66c-3.46-11.94-4.84-24.33-.91-38.26,6.36-22.52,27.08-49.75,37.57-63.93,2.82-3.79,4.88-6.66,6.44-9.08Zm7.49,6.1C173,333.55,166,344.87,160.57,355.5c-6.69,13.1-11.16,25.13-10.75,35.36s5.83,18.15,13,23.68a50.54,50.54,0,0,0,11.92,6.75l2.09-3.22a47,47,0,0,1-11.71-6.49c-6.51-5-11.24-11.86-11.52-20.86s3.78-20.66,10.35-33.52c5.27-10.31,12.08-21.41,19.2-32.67Zm11.73,9.56c-5.24,10.48-10,20.73-13,29.88-1.95,6.06-3.11,11.64-2.95,16.61s1.69,9.39,5.13,12.65A23.47,23.47,0,0,0,191.24,396l2.25-3.46c-4.33-1-7.7-2.43-9.85-4.43-2.6-2.4-3.8-5.66-3.94-9.95s.9-9.52,2.78-15.34c2.76-8.58,7.35-18.42,12.42-28.6Z"/><path class="b" d="M218.78,353.56l-20.61,7-30.38-7.73L148.28,337l7.87-22.87-9.38-11.62-4.5,6-7.49-9.37L132.13,283l28.14-21.35L238.72,141.9l13.05-13.42L294.52,181,203.77,325.72Z"/><path class="s" d="M286.81,171.58l-69.3,2.77L215,178.22l74.79-3ZM267.7,214.24l-77.21,1.4L188,219.43l79.75-1.38Zm-89.41,35.64-.38,12.36-27.79,44.45,2.5,3.1,25.06-40.19-1,30.9c-.17,5.27-.28,7.87-1.52,10.9s-3.79,6.78-9,13.85l-12.08,16.51,3,2.39,12.15-16.68c5.25-7,8-11,9.48-14.65s1.61-6.92,1.79-12.2l1.19-37.23,6.76-10.61-3.17-2L181.85,256,182,250Zm-12,2.6-28.76,50.2,2.5,3.12,29.54-51.51Zm-28.59,26.28L132.12,283l.94,5.71,4.68-10Zm47.47,35.39-21.54,35.43,3,2.4,21.75-35.81Zm11.84,7.31-16.3,34.75,3.65.93c4-10.4,10-22.17,16-34Z"/><path class="q" d="M246.53,139.81c-39.88,49.25-66.37,103-91.49,157.12l-4.49-3,12.36-59.62c11.47-32,30.11-64,47.25-96Z"/><path class="t" d="M239.68,148.39l-42.27,13.33-2.57,4.73,40.9-12.89,3.93-5.17Zm-27.54,38.93-39.55,23.12-2.6,5.85,38.51-22.5,3.82-6.14Zm-42,77.56-15,6.79-.94,4.54,13.44-6.06,2.53-5.26Z"/><path class="q" d="M177.54,316.06l24.94,27.38L306.9,248.58l-20-74.25c-40.4,44-76.15,91.8-109.4,141.75Z"/><path class="t" d="M288.91,181.6l2,81.51,3.76-3.42-1.51-62.4Zm-19.43,12.28-4,4.6L263,288.41l3.93-3.58Zm-38.63,47.39-3.54,4.64,4.58,70.83,3.62-3.31Zm-30.62,41.65-3.82,5.44.23,48.67,3.87,4.24-.28-58.34Z"/><path class="e" d="M471,215.68l-53.56-4.78L310.86,31.14l-2.12-9C487.4-50.71,489.53,67.3,471,215.68Z"/><path class="q" d="M307.94,65.87l5.83-34.73C493-32.62,463.62,97.12,459.09,201.37l-83,32.35Z"/><path class="t" d="M387.51,14.35l-4.49.26a197.52,197.52,0,0,1-41,102.25L343.6,122A201.74,201.74,0,0,0,387.52,14.35Zm25.13,1.8a287.28,287.28,0,0,1-62,126.39l2.1,4.38A291.55,291.55,0,0,0,417,17.22c-1.41-.39-2.85-.75-4.33-1.07Zm-45.73.47-4.69.84A218.38,218.38,0,0,1,331,95.11c.93,1.28,1.83,2.6,2.7,4a222.9,222.9,0,0,0,33.17-82.5Zm-18.88,4-4.78,1.25a214.81,214.81,0,0,1-22.53,61.49Q322.39,85,324,86.65A218.86,218.86,0,0,0,348,20.62Zm-18.32,5.19L325,27.33A131,131,0,0,1,309.89,70.7l1.85,4.56.44.38A135,135,0,0,0,329.7,25.82ZM443.21,33A470.55,470.55,0,0,1,363,173.48l1.52,5.11A475.07,475.07,0,0,0,446.49,37q-1.55-2.07-3.29-4Zm14,25.69a329.79,329.79,0,0,1-39.15,80.9,331.13,331.13,0,0,1-49,57.79l1,5.16a333.69,333.69,0,0,0,51.78-60.48,334.39,334.39,0,0,0,37.55-75.64c-.62-2.65-1.31-5.23-2.11-7.73Zm6.19,42.25a443.73,443.73,0,0,1-37.23,79.64,442.74,442.74,0,0,1-31.29,45.8l8-3.12A449.41,449.41,0,0,0,430,182.85a448.87,448.87,0,0,0,33.57-69.46q0-6.24-.17-12.46Z"/><path class="e" d="M382.05,244l-45.42-4L246.53,87.26l-1.79-7.66C395.5,17.4,395.8,115.1,382.05,243.94Z"/><path class="q" d="M240.1,122.38l6.43-35.11c151.52-54.13,126.66,56,122.82,144.54L297.7,261.9c-2.2-29.37-8.38-58.13-23.54-85.52-5.27-31.55-20.11-41.75-34.06-54Z"/><path class="t" d="M309.3,73l-3.8.21a166.55,166.55,0,0,1-34.75,88.57c.48,1.44.92,2.89,1.32,4.36A170,170,0,0,0,309.29,73Zm21.43,1.66A242.07,242.07,0,0,1,278,183.42l1.78,3.7A245.81,245.81,0,0,0,334.37,75.59c-1.18-.35-2.39-.65-3.64-.93Zm-38.58.18-3.93.71a183,183,0,0,1-26.74,67.89c.77,1.07,1.55,2.2,2.28,3.37a187.76,187.76,0,0,0,28.38-71.95Zm-15.88,3.33-4,1a181.35,181.35,0,0,1-19.48,54.31c.94.9,1.86,1.83,2.75,2.77a184.45,184.45,0,0,0,20.73-58.12Zm-15.58,4.39-3.95,1.27a110,110,0,0,1-14,40.69l2.88,2.49a113.83,113.83,0,0,0,15.1-44.45Zm95.95,6.91a397.24,397.24,0,0,1-68.23,120l1.28,4.31a400.44,400.44,0,0,0,69.7-120.89c-.86-1.19-1.77-2.35-2.74-3.45Zm11.61,22.17a276.81,276.81,0,0,1-74.72,118l.84,4.36A281.78,281.78,0,0,0,338,183a281.81,281.81,0,0,0,32-64.67c-.5-2.29-1.08-4.53-1.73-6.69Zm5,36.38a374.33,374.33,0,0,1-31.49,67.46,373.38,373.38,0,0,1-26.9,39.23l7-2.88a372.17,372.17,0,0,0,23.13-34.43,378,378,0,0,0,28.37-58.72c0-3.56,0-7.11-.1-10.67Z"/><path class="u" d="M242.06,93.11l-3.36,17.78c94.68-15.58,80.72,61.38,76.91,143.5l-.79.31.75.49,3.8-.23c16.94-64.31,11.79-109.37-.59-148.12-1.71-4.75-3.33-6.31-7.7-7.73-20.31-6.24-44.83-5.93-69-6.09Z"/><path class="v" d="M230.41,268.06l-11.06-9-34.69-28.87-15.79,4.93-.15,16.82,36.38,24.93,11.06,7.5,8.42,6.38,14.22-17.44Z"/><path class="e" d="M158,258.69a14.61,14.61,0,0,0,14.59-14.62,14.79,14.79,0,0,0-1.7-6.83,14.59,14.59,0,0,0,17-11.69,13.86,13.86,0,0,0,.25-2.66,14.6,14.6,0,0,0-25.81-9.36,14.59,14.59,0,0,0-17.19,23.58A14.62,14.62,0,0,0,158,258.69Z"/><circle class="f" cx="158.04" cy="244.08" r="7.56"/><circle class="f" cx="173.6" cy="222.89" r="7.56"/><circle class="f" cx="153.82" cy="225.33" r="7.56"/><path class="e" d="M219.35,259.06l-.63-5.19-14.32-11.8-6.1-.4-14.58,17.9-.4,6.5,15.78,11.4,6-.6,11.06,7.5-3.81,4.37-11.66,1.06L174.3,269.38l-.66-9.81,21.61-28.23,8.75-.8,26.78,19.76,1.86,11.29-3.94,5.08Z"/><circle class="b" cx="199.75" cy="258.31" r="4.87"/><path class="e" d="M201,254.94c3.6,3.95-1.48,8.22-4.87,6-4.88-3.19-15.44-11.18-20.63-15.38-4.72-3.83,2.51-9.7,6.38-6.84,4.86,3.6,15,11.77,19.12,16.22Z"/><path class="e" d="M243.2,259a14.6,14.6,0,0,0-12.89,21.45A14.6,14.6,0,1,0,238,305.14c.3-.3.59-.62.87-.95A14.59,14.59,0,1,0,256,280.61,14.6,14.6,0,0,0,243.21,259Z"/><circle class="f" cx="243.21" cy="272.89" r="7.56"/><circle class="f" cx="227.64" cy="294.08" r="7.56"/><circle class="f" cx="247.42" cy="291.64" r="7.56"/><path class="v" d="M268.46,203.26,258,193.62,225,162.75l-16.05,4-1.14,16.78,34.84,27,10.6,8.14,8,6.86L276.53,209Z"/><path class="e" d="M196.77,189.63A14.61,14.61,0,0,0,210.91,169a14.6,14.6,0,1,0-7.12-24.17,14.59,14.59,0,1,0-18.55,22.52,14.61,14.61,0,0,0,4.67,20.12,14.78,14.78,0,0,0,6.86,2.18Z"/><circle class="f" cx="197.63" cy="175.05" r="7.56" transform="translate(11.21 362) rotate(-86.61)"/><circle class="f" cx="214.42" cy="154.82" r="7.56" transform="translate(47.2 359.71) rotate(-86.61)"/><circle class="f" cx="194.53" cy="156.08" r="7.56" transform="translate(27.23 341.05) rotate(-86.61)"/><path class="e" d="M258,193.62l-.32-5.21L244,175.78,238,175l-15.61,17-.78,6.46,15.07,12.31,6-.24,10.6,8.15-4.06,4.13-11.71.37-25.13-21.94-.08-9.83,23.24-26.92,8.78-.27,25.57,21.3,1.19,11.38-4.25,4.85Z"/><circle class="b" cx="238.44" cy="191.72" r="4.87"/><path class="e" d="M239.85,188.42c3.36,4.16-2,8.12-5.22,5.7-4.67-3.47-14.75-12.07-19.68-16.56-4.49-4.11,3.08-9.54,6.77-6.46,4.64,3.88,14.31,12.64,18.13,17.32Z"/><path class="e" d="M281.77,195a14.59,14.59,0,0,0-14.14,20.64,14.6,14.6,0,1,0,6.2,25.07,11.15,11.15,0,0,0,.92-.9A14.59,14.59,0,0,0,293.3,217.3,14.6,14.6,0,0,0,281.77,195Z"/><circle class="f" cx="280.95" cy="208.84" r="7.56" transform="translate(55.88 476.96) rotate(-86.61)"/><circle class="f" cx="264.16" cy="229.07" r="7.56" transform="translate(19.89 479.24) rotate(-86.61)"/><circle class="f" cx="284.06" cy="227.8" r="7.56" transform="translate(39.87 497.9) rotate(-86.61)"/><path class="w" d="M281.82,94.15,283,95.23c1.93,1.75,5.23,4.92,6.49,7.64s.72,4.85-.53,6.21a4.91,4.91,0,0,1-4.83,1.33,4.35,4.35,0,0,1-2.67-3.38,3.94,3.94,0,0,1,1.29-3.24,4.92,4.92,0,0,1,2.65-1,.87.87,0,0,0,.71-.56.9.9,0,0,0-.16-.89.85.85,0,0,0-.84-.28,6.52,6.52,0,0,0-3.5,1.41,5.57,5.57,0,0,0-1.9,4.77,6,6,0,0,0,3.42,4.66l1.17.37a6.55,6.55,0,0,0,5.95-2c1.76-1.88,2.37-5,.85-8.15-1.41-2.95-4.41-5.88-6.4-7.73l-2.89-.25Zm7.54.73.59.49,4.57,3.53a15,15,0,0,1,4.87,6.63c.91,2.93.58,6.63.93,10.3a25,25,0,0,0,2,7.89,43.13,43.13,0,0,1,3.61,4.48,4.82,4.82,0,0,0,3.57.8c2.15-.44,4.11-2.62,4.73-5.11a10.55,10.55,0,0,0-1.06-7c-.93-1.75-2.06-2.51-3.23-2.44a2.94,2.94,0,0,0-2.59,1.88c-.19.92.64,1.87,1.39,2.39a20.36,20.36,0,0,0,2.08.94,2.31,2.31,0,0,1,1.09,1.81,2.89,2.89,0,0,1-1.24,2.64,4.68,4.68,0,0,1-4.08.63c-1.25-.51-2.06-1.94-2.35-4.92s-.07-7.52-.42-10.78a14.64,14.64,0,0,0-3.11-7.8,39,39,0,0,0-4.78-5.44l-6.54-.89Zm-39.81,1.3a9.41,9.41,0,0,0-3.41.61.83.83,0,0,0-.63.63.91.91,0,0,0,.26.86.89.89,0,0,0,.9.17c1.61-.52,2.84-.92,4.35-.09s3.66,3.42,6.9,5.31,7.48,3,10.57,2.62a5.57,5.57,0,0,0,3.57-1.67,3.17,3.17,0,0,0,.65-3.22,6,6,0,0,0-2.36-2.62,15.39,15.39,0,0,0-2.87-1.59,5,5,0,0,0-2-.46,2.76,2.76,0,0,0-1.18.32.89.89,0,0,0-.51.74.83.83,0,0,0,.41.8,1.13,1.13,0,0,0,.9,0,.66.66,0,0,1,.42-.13,3.11,3.11,0,0,1,1.25.33,13.93,13.93,0,0,1,2.54,1.39,5.1,5.1,0,0,1,1.71,1.82,1.27,1.27,0,0,1-.32,1.43,3.93,3.93,0,0,1-2.47,1.1c-2.44.3-6.53-.71-9.47-2.41S254,98,251.88,96.82a4.3,4.3,0,0,0-2.32-.67Zm-1,2.1h0a.9.9,0,0,0-.85.85.89.89,0,0,0,.68.91,4.26,4.26,0,0,1,1.77.77,15.07,15.07,0,0,1,2,2.41.91.91,0,0,0,.83.43.85.85,0,0,0,.75-.56.87.87,0,0,0-.18-.91,15.6,15.6,0,0,0-2.31-2.72,6.06,6.06,0,0,0-2.45-1.13,1.15,1.15,0,0,0-.26,0Zm-4.87.16a2.19,2.19,0,0,0-1.09.39,2.94,2.94,0,0,0-1.13,1.89,13.82,13.82,0,0,0-.33,2.21.89.89,0,0,0,.29.76.88.88,0,0,0,.79.19.83.83,0,0,0,.34.7.78.78,0,0,0,.7.15,4.46,4.46,0,0,0,2.43-1.3,4.22,4.22,0,0,0,.91-1.62,2.58,2.58,0,0,0-.14-2.06,2.68,2.68,0,0,0-1.75-1.23,2.87,2.87,0,0,0-1.09-.1Zm.18,1.76h0a1.31,1.31,0,0,1,1.14.45.87.87,0,0,1,0,.66,2.68,2.68,0,0,1-.53,1,2.48,2.48,0,0,1-1.55.77l.26-1.89a1.53,1.53,0,0,1,.43-.87.55.55,0,0,1,.29-.07Zm63.9,3.35a.86.86,0,0,0-.85,1.07c.36,1.79.66,3.64,1.63,4.89a2.92,2.92,0,0,0,3.77.8,6.13,6.13,0,0,0,2.18-3,.88.88,0,0,0-.42-1.18.89.89,0,0,0-1.19.42,5.88,5.88,0,0,1-1.47,2.22,1.07,1.07,0,0,1-1.5-.35,13.85,13.85,0,0,1-1.29-4.19.87.87,0,0,0-.88-.71Zm-11.08,2.53a.94.94,0,0,0-.7.33.87.87,0,0,0-.19.65c.14,1.69.23,3.09-.52,4.1s-2.78,2-4.9,3a.79.79,0,0,0-.43.41l1.75.91c1.94-.89,3.87-1.8,5-3.3,1.22-1.65,1-3.63.87-5.31a.9.9,0,0,0-.88-.82Zm22.84,19.78-3.13.11a4.35,4.35,0,0,0-2.6,1,3.46,3.46,0,0,0-.93,2.2,5.21,5.21,0,0,1-.37,1.54c-.36.62-1.8,1.2-3.51,1.72a1,1,0,0,0-.4.21l.81,1.48c1.75-.55,3.63-1,4.54-2.53a5.29,5.29,0,0,0,.59-2.18,2.13,2.13,0,0,1,.4-1.17,3.26,3.26,0,0,1,1.6-.49,28.69,28.69,0,0,1,2.93-.1.7.7,0,0,0,.7-.44,1.08,1.08,0,0,0,0-.88.89.89,0,0,0-.7-.44ZM317.77,134h0a2.41,2.41,0,0,0-2.07,1.49,5.75,5.75,0,0,0-.79,2.29,2.87,2.87,0,0,0,.46,1.78,3.72,3.72,0,0,1,.42.73,3.45,3.45,0,0,1-.07,1.06c-.09.46-.24.94-.35,1.33a5,5,0,0,0-.23,1.33.69.69,0,0,0,.43.7,1.1,1.1,0,0,0,.89,0,.84.84,0,0,0,.43-.7s0-.13,0-.14l0,1.36a.72.72,0,0,0,.44.7,1.08,1.08,0,0,0,.88,0,.84.84,0,0,0,.44-.7l.07-3.42c.14,0,.17,0,.28,0a3.25,3.25,0,0,0,1.17-1.34,4.55,4.55,0,0,0,.52-2.32,5.82,5.82,0,0,0-.8-2.6,2.47,2.47,0,0,0-2.13-1.51Zm0,1.75h0a2.85,2.85,0,0,1,.58.65,4.39,4.39,0,0,1,.55,1.8,2.72,2.72,0,0,1-.32,1.4,2.35,2.35,0,0,1-.48.62.58.58,0,0,0-.28,0,1.19,1.19,0,0,0-.37.19,2.17,2.17,0,0,0,0-.51,3.49,3.49,0,0,0-.64-1.28.88.88,0,0,1-.21-.69,4.1,4.1,0,0,1,.56-1.51,3.51,3.51,0,0,1,.6-.66Zm.36,6.14c-.24.07-.29,0-.29,0a1.45,1.45,0,0,1,.29,0Zm4.94,6.18-1.65.13a1.93,1.93,0,0,0-1.55.91,2.15,2.15,0,0,0-.11,1.55l0,.19s-.1,0-.35,0c-.45,0-1.07-.07-1.71-.14a.81.81,0,0,0-.82.35,1.17,1.17,0,0,0-.1.88.87.87,0,0,0,.73.52l1.9.14a2,2,0,0,0,1.79-.57,1.52,1.52,0,0,0,.36-1,4.09,4.09,0,0,0-.07-.69,1.71,1.71,0,0,1,0-.39.89.89,0,0,1,.26-.08,12.18,12.18,0,0,1,1.4-.1.89.89,0,0,0,.85-.92.87.87,0,0,0-.9-.84Zm1.06,7.68-.19,0c-1.9.33-3.94.59-5.27,1.87s-1.38,3-1.41,4.53l.09.73a.87.87,0,0,0,1,.42.9.9,0,0,0,.68-.81c.11-1.61.28-2.95,1-3.61s2.44-1.07,4.36-1.41a.87.87,0,0,0-.12-1.74Zm-1.83,6.14a1.21,1.21,0,0,0-.7.32.66.66,0,0,0-.19.68,22.25,22.25,0,0,0,1.89,7.56c1.2,2.27,3.38,3.83,5.34,5.33a.88.88,0,0,0,.83.13.92.92,0,0,0,.57-.64v-.43a.85.85,0,0,0-.32-.47c-2-1.51-3.83-2.94-4.87-4.78s-1.38-4.34-1.71-6.93a.85.85,0,0,0-.91-.77Zm-4.25,9.49.12,1.87a7.67,7.67,0,0,1,2.39,1.05c.16.17.16.26.14.35a1.11,1.11,0,0,1-.51.59,8.07,8.07,0,0,1-1.89.8l.07,1.84a10.7,10.7,0,0,0,2.81-1.17,2.76,2.76,0,0,0,1.27-1.73,2.09,2.09,0,0,0-.71-1.9,8.1,8.1,0,0,0-3.72-1.69Zm2.83,9.66h0a2.71,2.71,0,0,0-1,.27,3,3,0,0,0-1.34,1.29v2.11l.36.75a.91.91,0,0,0,.76.53.88.88,0,0,0,.81-.44.89.89,0,0,0,0-.92,4.67,4.67,0,0,1-.37-.82c0-.2-.06-.26,0-.4a1.58,1.58,0,0,1,.58-.52c.24-.12.35-.12.44-.07a1.66,1.66,0,0,1,.49,1,5,5,0,0,1-.16,2.36,22,22,0,0,1-2.81,5.2l0,2.89c.26-.29.58-.66,1.05-1.27a22.16,22.16,0,0,0,3.56-6.3,6.76,6.76,0,0,0,.2-3.19,3.07,3.07,0,0,0-1.29-2.13,2,2,0,0,0-1.12-.28Zm-1.55,20.53h0a2.29,2.29,0,0,0-1.05.31L318,209a.88.88,0,0,0,1.57-.71l-.61-3.21a3.16,3.16,0,0,1,.13-1.64c.08-.1.29-.21.77,0a3.16,3.16,0,0,1,1.6,1.48,11,11,0,0,1,.35,7.87c-.71,2.25-2.43,4.21-4.29,6.18l-.14,2.67c2.49-2.53,5-5,6.1-8.29A12.16,12.16,0,0,0,323,204a4.8,4.8,0,0,0-2.53-2.27,2.86,2.86,0,0,0-1.12-.17Z"/><path class="u" d="M309.06,38,305.11,59C416.4,40.62,400,131.25,395.52,228l-.93.35.88.59,4.47-.27c19.9-75.75,13.86-128.82-.7-174.46-2-5.6-3.91-7.43-9-9-23.89-7.34-52.69-7-81.14-7.17Z"/><path class="w" d="M355.8,39.24l1.42,1.27c2.26,2.07,6.15,5.87,7.63,9s.85,5.72-.7,7.31a5.82,5.82,0,0,1-5.68,1.57,5.19,5.19,0,0,1-3.15-4,4.66,4.66,0,0,1,1.52-3.82A5.73,5.73,0,0,1,360,49.39a1,1,0,0,0,.83-.66,1,1,0,0,0-.18-1,1.08,1.08,0,0,0-1-.34A7.55,7.55,0,0,0,355.49,49a6.57,6.57,0,0,0-2.23,5.62,7,7,0,0,0,4,5.47l1.38.45a7.76,7.76,0,0,0,7-2.35c2.05-2.21,2.79-5.83,1-9.6-1.65-3.48-5.18-6.92-7.52-9.09l-3.4-.3Zm8.86.86.7.59,5.37,4.16c2.11,1.81,4.64,4.36,5.72,7.73s.69,7.73,1.1,12.14A29.89,29.89,0,0,0,379.87,74a50.45,50.45,0,0,1,4.25,5.29,5.71,5.71,0,0,0,4.2.93c2.53-.52,4.83-3.09,5.62-6a12.09,12.09,0,0,0-1.23-8.29c-1.09-2.09-2.42-3-3.79-2.89a3.44,3.44,0,0,0-3,2.22c-.24,1.09.73,2.2,1.63,2.82s1.76.7,2.44,1.11a2.71,2.71,0,0,1,1.28,2.13,3.42,3.42,0,0,1-1.46,3.11,5.54,5.54,0,0,1-4.8.74c-1.48-.62-2.42-2.3-2.77-5.81s-.08-8.85-.49-12.69a17.14,17.14,0,0,0-3.65-9.18,44.19,44.19,0,0,0-5.63-6.42l-7.69-1Zm-46.8,1.53a11.36,11.36,0,0,0-4,.73,1,1,0,0,0-.76.76,1,1,0,0,0,.32,1,1,1,0,0,0,1,.19c1.9-.6,3.35-1.08,5.12-.09s4.21,4,8.11,6.32,8.79,3.55,12.43,3.09a6.55,6.55,0,0,0,4.19-2,3.7,3.7,0,0,0,.76-3.8,7.16,7.16,0,0,0-2.77-3.09,17.91,17.91,0,0,0-3.38-1.86,5.71,5.71,0,0,0-2.29-.55,3.52,3.52,0,0,0-1.38.37,1,1,0,0,0-.6.87,1.06,1.06,0,0,0,.48,1,1,1,0,0,0,1.05,0,.86.86,0,0,1,.49-.14,4.05,4.05,0,0,1,1.48.39,16.43,16.43,0,0,1,3,1.63,5.89,5.89,0,0,1,2,2.15,1.48,1.48,0,0,1-.37,1.69,4.62,4.62,0,0,1-2.9,1.29c-2.87.35-7.7-.83-11.13-2.83s-5.67-4.89-8.15-6.28a6.1,6.1,0,0,0-2.72-.78Zm-1.17,2.48h0a1.07,1.07,0,0,0-1,1,1,1,0,0,0,.8,1.07,4.91,4.91,0,0,1,2.08.91A17.8,17.8,0,0,1,321,49.91a1,1,0,0,0,1,.51,1,1,0,0,0,.88-.66,1,1,0,0,0-.21-1.08,17.28,17.28,0,0,0-2.73-3.2A7,7,0,0,0,317,44.15a1.1,1.1,0,0,0-.31,0ZM311,44.3a2.86,2.86,0,0,0-1.27.45A3.53,3.53,0,0,0,308.36,47a16.32,16.32,0,0,0-.39,2.6,1,1,0,0,0,.35.89,1,1,0,0,0,.93.23,1,1,0,0,0,.4.84,1,1,0,0,0,.91.18,5.25,5.25,0,0,0,2.86-1.54,5.36,5.36,0,0,0,1.08-1.9,3,3,0,0,0-.18-2.42,3.24,3.24,0,0,0-2.06-1.46,3.92,3.92,0,0,0-1.28-.11Zm.21,2.07h0a1.72,1.72,0,0,1,.54,0,1.48,1.48,0,0,1,.79.49.91.91,0,0,1,0,.71,3.11,3.11,0,0,1-.7,1.12,3.16,3.16,0,0,1-1.83.91l.31-2.22a1.86,1.86,0,0,1,.49-1,.67.67,0,0,1,.35-.09Zm75.11,3.93a1,1,0,0,0-1,1.27c.42,2.11.77,4.22,1.91,5.76a3.35,3.35,0,0,0,4.43.94,7.43,7.43,0,0,0,2.57-3.5,1,1,0,0,0-1.88-.9,7.11,7.11,0,0,1-1.74,2.63,1.24,1.24,0,0,1-1.76-.43c-.58-.76-1.09-2.81-1.52-4.93a1,1,0,0,0-1-.84Zm-13,3a1.12,1.12,0,0,0-.81.39,1,1,0,0,0-.21.77c.17,2,.28,3.63-.61,4.83s-3.26,2.41-5.77,3.57a1.08,1.08,0,0,0-.51.48l2.08,1.07c2.28-1,4.55-2.13,5.86-3.89,1.44-2,1.2-4.28,1-6.33a1,1,0,0,0-1-1Zm26.85,23.3-3.68.13a5.12,5.12,0,0,0-3.05,1.12,4.06,4.06,0,0,0-1.09,2.59,5.71,5.71,0,0,1-.44,1.82c-.42.73-2.11,1.42-4.05,2a1.09,1.09,0,0,0-.47.26l.95,1.76c2.07-.65,4.26-1.17,5.34-3a6.63,6.63,0,0,0,.7-2.57,2.66,2.66,0,0,1,.47-1.38,3.94,3.94,0,0,1,1.89-.58,30.73,30.73,0,0,1,3.45-.12,1,1,0,0,0,.91-.51,1,1,0,0,0,0-1,1,1,0,0,0-.91-.51ZM398,86.13h0a3,3,0,0,0-2.44,1.75,6.28,6.28,0,0,0-.93,2.7,3.43,3.43,0,0,0,.55,2.09,4.3,4.3,0,0,1,.49.86,4,4,0,0,1-.09,1.25c-.11.55-.28,1.11-.4,1.55a6.47,6.47,0,0,0-.28,1.57,1,1,0,0,0,.51.91,1,1,0,0,0,1,0,1,1,0,0,0,.52-.91s0-.14,0-.18l0,1.6a1.05,1.05,0,0,0,.51.92,1,1,0,0,0,1,0,1,1,0,0,0,.51-.92l.09-4c.15,0,.19,0,.34,0a3.76,3.76,0,0,0,1.37-1.57,5.39,5.39,0,0,0,.61-2.73,6.81,6.81,0,0,0-.94-3.06,2.9,2.9,0,0,0-2.5-1.78Zm0,2.06h0a3.62,3.62,0,0,1,.67.76,5.09,5.09,0,0,1,.65,2.12,3.17,3.17,0,0,1-.37,1.65,2.63,2.63,0,0,1-.56.73.86.86,0,0,0-.34,0c-.14,0-.28.14-.44.22a2.41,2.41,0,0,0,0-.6,4.1,4.1,0,0,0-.76-1.5,1,1,0,0,1-.24-.81,5.32,5.32,0,0,1,.66-1.78c.35-.58.79-.77.7-.7Zm.42,7.24a.85.85,0,0,1-.34,0A1.78,1.78,0,0,1,398.51,95.43Zm5.81,7.27-1.94.14a2.3,2.3,0,0,0-1.83,1.09,2.43,2.43,0,0,0-.13,1.82l0,.23a2.26,2.26,0,0,0-.42,0,19.43,19.43,0,0,1-2-.18,1,1,0,0,0-1,.42,1,1,0,0,0-.11,1,1.06,1.06,0,0,0,.84.62l2.23.17a2.37,2.37,0,0,0,2.11-.68,1.79,1.79,0,0,0,.4-1.12,4.44,4.44,0,0,0-.09-.81,3.08,3.08,0,0,1,0-.46,1.13,1.13,0,0,1,.3-.1,14.07,14.07,0,0,1,1.67-.11,1,1,0,0,0,1-1,1,1,0,0,0-1.06-1Zm1.25,9h-.14c-2.32.41-4.71.71-6.28,2.22s-1.62,3.49-1.74,5.32l.12.86a1,1,0,0,0,1.12.51,1.15,1.15,0,0,0,.8-1c.13-1.9.33-3.48,1.13-4.25s2.81-1.27,5.11-1.65a1,1,0,0,0-.12-2.06ZM403.41,119a1,1,0,0,0-1,1.18c.39,3,.74,6.24,2.25,8.91s3.95,4.49,6.27,6.27a1.06,1.06,0,0,0,1,.16,1.09,1.09,0,0,0,.66-.74v-.51a1.11,1.11,0,0,0-.37-.56c-2.32-1.76-4.51-3.46-5.73-5.62s-1.63-5.1-2-8.17a1,1,0,0,0-1.06-.91Zm-4.92,11.24.14,2.2a9.37,9.37,0,0,1,2.81,1.23c.2.22.2.3.18.43s-.14.38-.6.7a9.2,9.2,0,0,1-2.22.93l.09,2.18a12.09,12.09,0,0,0,3.3-1.38,3.13,3.13,0,0,0,1.48-2.11,2.52,2.52,0,0,0-.75-2.23c-1.11-1.14-2.79-1.51-4.38-2Zm3.32,11.38h0a2.88,2.88,0,0,0-1.19.32,3.48,3.48,0,0,0-1.58,1.52v2.48l.42.9a1,1,0,0,0,.89.61,1,1,0,0,0,.95-.52,1,1,0,0,0,0-1.08,5,5,0,0,1-.44-1,.54.54,0,0,1,0-.47,1.87,1.87,0,0,1,.68-.61c.28-.14.42-.14.51-.08a2,2,0,0,1,.56,1.14,5.86,5.86,0,0,1-.19,2.78,22.83,22.83,0,0,1-3.39,6.12l0,3.37a17.54,17.54,0,0,0,1.23-1.5,26,26,0,0,0,4.18-7.42,7.91,7.91,0,0,0,.24-3.77,3.65,3.65,0,0,0-1.52-2.51,2.33,2.33,0,0,0-1.31-.33ZM400,165.8h0a2.63,2.63,0,0,0-1.23.36l-.33,8.41a1,1,0,0,0,1.26.33,1,1,0,0,0,.59-1.17l-.71-3.78a4.19,4.19,0,0,1,.14-1.94c.09-.12.35-.24.92,0a3.75,3.75,0,0,1,1.87,1.75c1.12,2,1.51,6,.4,9.27-.92,2.64-2.86,5-5.06,7.3l-.17,3.14.13-.11c2.79-2.87,5.73-5.82,7-9.65s1-8.22-.56-11a5.64,5.64,0,0,0-3-2.69,4.19,4.19,0,0,0-1.32-.21Z"/></svg>