<svg xmlns="http://www.w3.org/2000/svg" viewBox="0 0 512 512"><defs><style>.a{fill:#5a9fba;}.b{fill:#3b80a3;}.c{fill:#d1b74a;}.d{fill:#4fd2f2;}.e{fill:#47bdd9;}.f{fill:#b8efff;}.g{fill:#78daf0;}.h{fill:#3faec7;}.i{fill:#d3c062;}</style></defs><title>Artboard 148</title><path class="a" d="M84.72,350.88c-7.44,12.4-11.36,25.6-11.36,38.88,0,62.56,81.84,113.2,182.72,113.2S438.8,452.32,438.8,389.76c0-13.12-3.84-26.24-11.2-38.8-8.72,54.64-83,96.32-171.52,96.32s-162.8-41.76-171.36-96.4Z"/><path class="a" d="M256,214.8C148.16,214.8,60.88,271.28,60.88,341V387.2H73.6c-.4-145,363.52-152.4,367.52,0H451V341c0-69.76-87.28-126.24-195-126.24Z"/><path class="b" d="M256,259.6c-107.68,0-195,56.48-195,126.24h0C61,455.52,148.32,512,256,512h0c107.68,0,195.12-56.48,195.12-126.16S363.76,259.6,256,259.6ZM256,283c95.2,0,172.32,47.76,172.32,106.8S351.2,496.48,256,496.48h0c-95.2,0-172.32-47.76-172.32-106.8h0C83.68,330.8,160.88,283,256,283Z"/><path class="c" d="M106.56,322.72c-6.88-10.48-10.8-24.16-12.4-38.64-3.2-30.4,4.4-64.56,17.44-82.8,11.6-16.32,35.2-29,54.72-19.2,17,8.4,24,26.8,22.08,44.32-8.32,2.4-17,4.56-25,7.84-6.88-9.44-17-13.36-27.68-4.16A66.24,66.24,0,0,0,118,259.92a78.6,78.6,0,0,0-2.56,40.56,30.75,30.75,0,0,0,4.64,10.16Z"/><polygon class="d" points="132.96 230.24 126.48 200.4 130.88 179.52 152.88 183.04 180.08 208.4 184.88 209.92 204.8 240.8 214.56 273.28 215.52 305.12 210.4 308.4 160.08 278.72 132.96 230.24"/><polygon class="e" points="201.52 287.68 210.4 308.4 210.4 308.4 160.08 278.72 159.76 278 152.48 227.92 182.16 243.12 201.52 287.68"/><polygon class="f" points="184.88 209.92 185.2 210.4 185.04 211.28 152.88 228.08 180.08 208.4 184.88 209.92"/><polygon class="g" points="182.08 242.8 182.16 243.12 152.88 228.08 185.04 211.28 182.08 242.8"/><polygon class="f" points="126.48 200.4 130.88 179.52 131.36 179.52 152.64 228 152.48 227.92 159.76 278 132.96 230.24 126.48 200.4"/><polygon class="h" points="210.4 308.4 215.52 305.12 205.28 296.32 210.4 308.4"/><polygon class="d" points="260.88 326.08 317.36 213.68 309.84 94.32 287.2 32.8 254.88 0 219.04 32 199.28 109.84 192.4 117.92 192.4 197.12 212.32 267.36 247.76 326.08 260.88 326.08"/><polygon class="e" points="235.76 174.88 252.72 278.4 260.72 326.08 260.88 326.08 317.36 213.68 317.2 212.24 272.08 112.88 235.76 174.88"/><polygon class="f" points="271.52 113.68 271.6 113.68 199.28 109.84 192.4 117.92 192.4 119.2 193.52 120.72 271.52 113.68"/><polygon class="g" points="193.52 120.72 235.6 174.4 235.76 174.88 271.52 113.68 193.52 120.72"/><polygon class="f" points="309.84 94.32 287.2 32.8 254.88 0 254.08 0.72 271.76 113.2 272.08 112.88 317.2 212.24 309.84 94.32"/><path class="c" d="M346.72,120.4a55.06,55.06,0,0,1-11,20.72,52.15,52.15,0,0,1-9,8.32,31,31,0,0,1-12.4,3.44h-.8l-2.08-33.76c0-.8,2.24-3.52,2.56-4.72,2.24-5,1.28-13.12-4.8-14.56a14.21,14.21,0,0,0-12.56,4.48c-1.52,1.2-11.36,8.48-12.4,3.2C283,98.4,289.6,89.28,297.2,83.84c1.68-1.12,3.36-2.24,5.12-3.2a30.38,30.38,0,0,1,33.76,3.68,36,36,0,0,1,10.64,36.08Z"/><path class="i" d="M223.36,107.84a1.88,1.88,0,0,1-2.4,1.44h-.08a88.67,88.67,0,0,1-14.08-7.6,9.46,9.46,0,0,0-13,3,.08.08,0,0,1-.08.08,9.54,9.54,0,0,0-.8,8.56c.16.32.16.8.32,1.2l1,1.76-1.76,2V153a25.35,25.35,0,0,1-11.28-3.36,40.55,40.55,0,0,1-9-8.32,57.56,57.56,0,0,1-10.88-20.64,36.24,36.24,0,0,1,10.32-36A30.82,30.82,0,0,1,205.28,81a34.18,34.18,0,0,1,5.12,3.2,38.45,38.45,0,0,1,6.48,6,22.82,22.82,0,0,1,6.48,17.68Z"/><polygon class="h" points="260.88 326.08 247.76 326.08 256.08 298.24 260.88 326.08"/><path class="i" d="M427.6,284.08c-1.6,15.44-6.08,29.92-13.92,40.8L400.4,312.4a29.73,29.73,0,0,0,5.92-11.76,77.65,77.65,0,0,0-2.56-40.56,65.57,65.57,0,0,0-17.68-29.76c-10.8-9.12-20.8-5.28-27.68,4.08a253.74,253.74,0,0,0-24.48-7.76c-1.92-17.52,4.8-35.84,21.6-44.24,19.68-9.84,43,2.88,54.56,19.2,13.28,18,20.88,52.16,17.52,82.48Z"/><polygon class="d" points="332.16 209.92 312.32 240.8 302.48 273.28 301.6 305.12 306.72 308.4 356.96 278.72 384 230.24 390.56 200.4 386.16 179.52 364.16 183.04 336.96 208.4 332.16 209.92"/><polygon class="e" points="357.28 278 364.56 227.92 334.88 243.12 315.52 287.68 306.72 308.4 356.96 278.72 357.28 278"/><polygon class="f" points="331.92 210.4 332 211.28 364.08 228.08 364.16 228.08 336.96 208.4 332.16 209.92 331.92 210.4"/><polygon class="g" points="332 211.28 334.88 242.8 334.88 243.12 364.08 228.08 332 211.28"/><polygon class="f" points="364.56 227.92 357.28 278 384 230.24 390.56 200.4 386.16 179.52 385.68 179.52 364.4 228 364.56 227.92"/><polygon class="h" points="306.72 308.4 301.6 305.12 311.76 296.32 306.72 308.4"/><path class="c" d="M319.6,248.88C310.16,262,288,275.12,288.8,292.4c.64,12.8,17,12.32,26.08,12A24.4,24.4,0,0,1,292,311.92a25.23,25.23,0,0,1-23-27.2v-.4a25.79,25.79,0,0,1,13.52-23.92c6.48-3.92,14.4-5.52,20.64-9.36a21.38,21.38,0,0,0,8.56-9.84c5.44-13.12.4-34-13.12-40.56-7.2-3.6-16.4,1.68-21.76,6.48a68.5,68.5,0,0,0-8.64,9.36c-20.24,27.76-20,56.8-40.56,80.56-21.28,24-49.28,50.08-84.32,47.76a45,45,0,0,1-26.08-10.16,48.65,48.65,0,0,1-10.72-11.84l3.52-9.6,9.92-2.64a28.28,28.28,0,0,0,12.16,9.92,27.51,27.51,0,0,0,23.52,0,103.93,103.93,0,0,0,42.48-31.2,127.43,127.43,0,0,0,16.08-23.52c3.2-6.08,6.24-12.4,9.12-18.8s6.48-14.08,10.08-20.64c1.76-3,3.2-5.92,5-9a64.77,64.77,0,0,1,24.72-25.92c12.4-6.4,27.2-9,40.24-3a30,30,0,0,1,8.16,5.52c14.08,13.28,19.6,37.44,8.56,54.08Z"/><path class="i" d="M414.56,323.6a47,47,0,0,1-10,11,46,46,0,0,1-26.08,9.76c-28.24,1.92-52.24-14.8-71.52-34-2.16-2.16-4.32-4.4-6.48-6.56s-4.32-4.72-6.4-7a53,53,0,0,1-5.28-7.12c.64-10.16,9.2-18.56,17.6-26.88,5.44,9.2,11.76,19.12,17.84,26.24a105,105,0,0,0,41.84,31.28,27.51,27.51,0,0,0,23.52,0,30.7,30.7,0,0,0,10.8-8.08Z"/><path class="i" d="M275.12,291.6c-7,19.68-43.12,27.28-58.56,17.28a122.54,122.54,0,0,1-10.56-8,71.26,71.26,0,0,0-11.6-8,12.75,12.75,0,0,0-9.84-1c-7.84,2.56-9.28,9.6-6.88,16.48a44,44,0,0,1-7.12,4.72c-3.36-10.4-.8-22.48,9.76-27.44a23,23,0,0,1,19.84.72,91.34,91.34,0,0,1,11.92,6.72,44.65,44.65,0,0,0,13.44,6.56,22.35,22.35,0,0,0,3.2.56A17,17,0,0,0,240,297.68c5.2-4,1.68-11.68-2-15.76a200.55,200.55,0,0,0,11.2-26.72c0-.4,14.72,8.32,16.16,9.52a25.92,25.92,0,0,1,10.56,15.6,18.77,18.77,0,0,1-.8,11.28Z"/><path class="i" d="M301.52,252l-.72.4-.8.4c-1.44.72-2.8,1.2-4.08,1.84l-2.4,1c-1.92.72-3.76,1.52-5.52,2.24l-1.12.48-1.12.48-2.56,1.44a30.25,30.25,0,0,0-5.92,4.32l-.72.72c-5-12.4-9-25.28-15.2-36.88a83.08,83.08,0,0,0-7.36-12,56.85,56.85,0,0,0-8.64-9.44h0c-5.2-4.64-14.56-9.84-21.76-6.48a30.15,30.15,0,0,0-13.28,17.68,20.32,20.32,0,0,0-.8,3,32.11,32.11,0,0,0-.72,4,33.29,33.29,0,0,0-.4,4.8h0a34.47,34.47,0,0,0,2.16,11.36c1.2,3.28,12.48,6.4,12.48,6.4-2.24,5.12-4.64,10.24-7.28,15.12-3.92,7.36-11.68-7.12-14.56-12.88a41.06,41.06,0,0,1-4.72-26.24,66.13,66.13,0,0,1,1.84-8.8,44,44,0,0,1,12.24-21,33.54,33.54,0,0,1,8.64-5.84c13-5.92,27.68-3.28,40.32,3l1.76,1a53.81,53.81,0,0,1,16,14.64,95.54,95.54,0,0,1,6.8,10,98.65,98.65,0,0,1,5,9c3.6,6.8,6.88,13.84,10.08,20.72Z"/><path class="i" d="M166.56,355.2A15.74,15.74,0,0,1,152,348.64a13.76,13.76,0,0,1-1.52-3.92,15,15,0,0,1-.4-5,14.46,14.46,0,0,1,1.44-5.44,6.8,6.8,0,0,1,1.84-2.16s2.4-1.12,1.52-.48a2,2,0,0,1,2.64.72c.08.08.16.32.08.4a15.49,15.49,0,0,1,1,6.88,8.54,8.54,0,0,0,.8,4,.71.71,0,0,0,.32.4,8.24,8.24,0,0,0,7.6,2.8A12.37,12.37,0,0,0,177.6,338c2.48-1.12,4.48-2.32,7-3.6,2.8,9.68-7.2,20.32-18,20.8Z"/><path class="c" d="M321.92,286.88c-4.56-4.4-8.24-11.76-11.12-16.8a51.66,51.66,0,0,0,7.44-8.72c3.44-12.48-9-17-14.8-25.28-1.68-2.88-.4-4.32,1.84-5.6,10.88-4.08,27.68,6.32,32.08,15.6,7.2,15.28.32,33.6-15.44,40.8Z"/></svg>