<svg xmlns="http://www.w3.org/2000/svg" viewBox="0 0 512 512"><defs><style>.a{fill:#387c96;}.b{fill:#71dbf3;}.c{fill:#78daf0;}.d{fill:#51cef5;}.e{fill:#81ddeb;}.f{fill:#b8efff;}.g{fill:#4ac8e6;}.h{fill:#3b80a3;}.i{fill:#5b747c;}.j{fill:#3e6777;}.k{fill:#1f647f;}.l{fill:#d1b74a;}.m{fill:#53737c;}.n{fill:#cebb6b;}.o{fill:#465e66;}.p{fill:#1a3138;}.q{fill:#5a9fba;}.r{fill:#c6a932;}.s{fill:#d1bd65;}.t{fill:#d3c062;}.u{fill:#0aafd4;}.v{fill:#3691a6;}.w{fill:#94e2f3;}.x{fill:#3a9eb4;}.y{fill:#1590ad;}.z{fill:#4fd2f2;}.aa{fill:#1d7e96;}.ab{fill:#47bdd9;}.ac{fill:#41b8d1;}.ad{fill:#3faec7;}.ae{fill:#3a7a84;}.af{fill:#40b9d1;}</style></defs><title>Artboard 149</title><path class="a" d="M246.2,512l-38-3.26-4.29-16.25,42.26,6.31,2.47,6.57Z"/><path class="a" d="M246.2,498.8l-49.92-3.61-5.87-17.82,55.79,13.09Z"/><path class="a" d="M246.2,512l38-3.26,4.29-16.25-42.3,6.31Z"/><path class="a" d="M246.2,498.8l49.94-3.61L302,477.37,246.2,490.46Z"/><path class="b" d="M240.52,466.13l1,10.47-.37,6.82-4.38,5.25-6.55,4-.3-7.14,2.71-8,2.51-6.61Z"/><path class="c" d="M253.78,494.13l-7.58-5-5-5.68-.64-17.29,9.38,3.11,7.49,6.06-.48,9.8Z"/><path class="d" d="M257.39,475.3l17.44,1.48-9.95,9.76-11.1,7.59Z"/><path class="e" d="M217.39,477.89l5.18,9.36,7.66,5.42,2.41-15.19Z"/><path class="f" d="M253.78,494.13l-12.62-10.71h-.08l-10.85,9.23,10.7,1.5Z"/><path class="f" d="M286.73,482.05l-28.92,24-3.48-5.35-.55-6.53,21-17.35,6.1,1Z"/><path class="b" d="M257.81,506l-32.06-2.47L227.1,498l3.13-5.38,23.55,1.46Z"/><path class="g" d="M225.75,503.54l-16.81-20.12,4-3.6,4.41-1.93,12.84,14.78Z"/><path class="h" d="M246.2,490.46l-72.94-13.32-35.77-35.76,29.9-13c4.63-25.31,12.58-32.52,21-37.25l57.82,88.14,2.75,5.2Z"/><path class="i" d="M247.85,238.33l1.92,5.79L247.85,250c-7.21,0-13,11.69-13.06,26.1s5.85,26.11,13.06,26.11l2,5.79-2,5.86C237.42,313.85,229,297,229,276.09S237.42,238.33,247.85,238.33Z"/><path class="j" d="M246.15,271.76c-15.6,0-31,25.23-31,56.9s15.35,57.8,31,57.8S278,360.78,278,329.11,261.76,271.76,246.15,271.76Zm0,17.7c10.79,0,19.54,17.75,19.54,39.65s-8.75,39.65-19.54,39.66S226.62,351,226.62,329.11,235.37,289.46,246.15,289.46Z"/><path class="b" d="M200.71,394.9,192,389l-6.18-2.92-6.7,1.36-6.62,3.86,6.1,3.65,8.37,1.43,7,.94Z"/><path class="c" d="M182.37,369.92l.83,9.06,2.59,7.14,14.92,8.78,1.72-9.73-1.78-9.47-8.84-4.23Z"/><path class="d" d="M200.65,375.7l7-16-13.32,4.11-12,6.14Z"/><path class="e" d="M179.36,409.67l-5.77-9-1.12-9.32,14.5,5.1Z"/><path class="f" d="M182.37,369.92l3.42,16.2v.06l-13.27,5.16,3.76-10.13Z"/><path class="f" d="M208.67,346.7l-34.82,14,3,5.61,5.48,3.58,25.28-10.25,2-5.85Z"/><path class="b" d="M173.85,360.73l-13.08,29.38,5.47,1.42,6.23-.19,9.9-21.42Z"/><path class="g" d="M160.77,390.11l9.7,24.36,5.09-1.84,3.8-3-6.89-18.33Z"/><path class="h" d="M246.2,328l-51.28,42.28V334.51l19-32.88,3.52,2.34c.4,6.54,5.06,9.21,12.06,6.92l16.72,10.56,2.4,3.82Z"/><path class="k" d="M366.13,44.84,263.39,17c-5.12-2.14-1.48-12.82,3.78-11.54L369.09,35.24Z"/><path class="l" d="M354.69,46.17c6.69,9.29,23.69-2,15.78-11.54C362.6,25.46,348.34,35.88,354.69,46.17Z"/><path class="k" d="M368.25,37.27l38,39.78a25.37,25.37,0,0,0-8.29,6.8L358.64,44.52C355.89,40,364.77,33.44,368.25,37.27Z"/><path class="l" d="M396.4,83.85a6.69,6.69,0,0,0,8.11,4.86l.42-.12a7.55,7.55,0,0,0,4.75-9.14,6.63,6.63,0,0,0-8.17-4.54A7.51,7.51,0,0,0,396.4,83.85Z"/><path class="k" d="M416.26,135.31,399.42,82.65c-.76-3.43,6.2-5.38,7.59-2.19l19.53,52Z"/><path class="l" d="M413.13,128a8.22,8.22,0,1,0,11.48-1.84l-.29-.2a8,8,0,0,0-11.13,2h0Z"/><path class="k" d="M377.14,183.58l36.76-52.75c3.32-4.34,12.87,1.84,10.22,6.69l-33.45,54.89Z"/><path class="l" d="M378.41,176.39a10.67,10.67,0,1,0,14.13,5.3c-.07-.17-.16-.34-.24-.5a10.22,10.22,0,0,0-13.54-5h0Z"/><path class="k" d="M321.42,207.45l57-28.41c6.54-2.75,13.33,10.22,7.35,14.1L331,226Z"/><path class="k" d="M363.24,84,295.62,44.52c-3.06-2.74,1.93-10.1,5.34-7.77l66.77,40.59Z"/><path class="l" d="M354.7,77.74a7.2,7.2,0,0,0,6,8.22,7,7,0,0,0,8-5.83V80A7.15,7.15,0,0,0,363,71.66h-.07a7,7,0,0,0-8.11,5.68h0v.09A1.08,1.08,0,0,0,354.7,77.74Z"/><path class="k" d="M366.41,129.3l-9-49c-1.21-5.64,7.76-6.69,8.88-3.07l10.45,48.44Z"/><path class="l" d="M366.43,123.44a7.66,7.66,0,1,0,10.79.93h0c-.07-.09-.15-.17-.22-.25A7.51,7.51,0,0,0,366.43,123.44Z"/><path class="k" d="M310.12,167.66l56.15-42c4.06-3.13,11.19,4.7,7.68,8.45L318.51,182.9Z"/><path class="l" d="M290.85,47.07a9.55,9.55,0,0,0,12-6.2h0v-.12a9.31,9.31,0,0,0-17.44-6.54,2.25,2.25,0,0,0-.08.24l-.12.35h0A9.48,9.48,0,0,0,290.71,47Z"/><path class="m" d="M278.07,171.07a104.45,104.45,0,0,1,37.2-8.29l1.63-.07a13.18,13.18,0,0,1-.94,22.64,14.05,14.05,0,0,1-3.93,1.24h0c-6.54,1.16-27,5.08-38.77,2.89s-14.77-10.23,4.81-18.41Z"/><path class="n" d="M314.45,162.84c-2.82.15-5.63.4-8.43.78a8.79,8.79,0,0,1,.87.43c5.52,4.24,7.1,12.67,3.56,19a17.8,17.8,0,0,1-2.89,4.33l2.22-.39a14.89,14.89,0,0,0,6.14-7.26,15.21,15.21,0,0,0-1.47-16.88Zm-12.67,1.43c-3.24.55-6.46,1.24-9.63,2.09a9,9,0,0,1,4.47,1.22c5.56,4.18,7.16,12.63,3.6,18.94a20.33,20.33,0,0,1-1.21,2.14c1.31-.18,2.65-.35,3.85-.53a16,16,0,0,0,3.1-4.6c3.54-6.31,1.94-14.73-3.59-18.93C302.18,164.48,302,164.37,301.78,164.27Zm-11.59,2.59c-2.56.76-5.09,1.6-7.59,2.54a8.93,8.93,0,0,1,4.08,1.22c5.53,4.22,7.11,12.64,3.56,18.94l-.09.17c1.42-.12,2.83-.26,4.22-.42a16,16,0,0,0,1.46-2.55c3.55-6.3,2-14.71-3.54-18.93a9.2,9.2,0,0,0-2.1-1Zm-9.45,3.22c-.89.32-1.79.65-2.67,1-1.38.58-2.4,1.15-3.56,1.73a8.23,8.23,0,0,1,1.95,1.12c4.7,3.51,6.66,10.23,4.72,16.16,1.44,0,2.9,0,4.4-.07.06-.1.11-.21.16-.31,3.56-6.3,2-14.74-3.59-18.93a9.67,9.67,0,0,0-1.41-.69Z"/><path class="l" d="M261,19.77A9.61,9.61,0,0,0,270.28,10a9.3,9.3,0,0,0-18.54-1.37,7.84,7.84,0,0,0,0,1.37,9.5,9.5,0,0,0,9.16,9.81h0Z"/><path class="o" d="M248.58,173.32a15.28,15.28,0,1,0,15.28,15.27,15.27,15.27,0,0,0-15.28-15.27Zm0,4.72A10.57,10.57,0,1,1,238,188.59,10.56,10.56,0,0,1,248.58,178Z"/><path class="p" d="M256.61,184c0,2,3,3.47,6.29,3.17s5.77-2.2,5.56-4.19-3-3.52-6.23-3.22S256.45,182,256.61,184Z"/><path class="k" d="M291.44,30.59l-89.5,1.51a3.44,3.44,0,0,1-.16.69c0,3.21.12,6.43.21,9.65h89.89C297.62,41.89,296.82,30.69,291.44,30.59Z"/><path class="l" d="M207.08,48a9.59,9.59,0,0,1-12.6-4.88,9.34,9.34,0,0,1,16.65-8.47c.07.14.14.28.2.42h0A9.54,9.54,0,0,1,207.25,48l-.05,0h0Z"/><path class="k" d="M199.41,34.6,122.72,57.35a11.37,11.37,0,0,1,.63,5.39,10.73,10.73,0,0,0,1.38,5.31l79.69-22.53C209,42.66,204.31,32.7,199.41,34.6Z"/><path class="l" d="M129.26,66.49a7.24,7.24,0,0,1-8.78,5.27h0a1.66,1.66,0,0,1-.45-.12,8.27,8.27,0,0,1-5.21-9.91,7.26,7.26,0,0,1,8.94-5h.06l.3.09A8.18,8.18,0,0,1,129.26,66.49Z"/><path class="k" d="M100,133.12l25.39-66.2c.58-5.17-8.8-7.38-10.13-2.52L86.73,129.82Z"/><path class="l" d="M99.17,129.1a8.34,8.34,0,0,1-14,9h0a8,8,0,0,1,2.64-11h0A8,8,0,0,1,99,128.85l0,0h0Z"/><path class="k" d="M120.52,182.57,97.45,130.84c-4.59-2.58-13.18,2.24-10.21,6.69l21,54.13Z"/><path class="l" d="M120,176.39a10.67,10.67,0,1,1-14.14,5.3c.08-.17.16-.34.25-.5a10.2,10.2,0,0,1,13.52-5h0Z"/><path class="k" d="M176.74,207.45l-56.29-27.16c-6.69-2.76-13.33,10.31-7.3,14.09L167.09,226Z"/><path class="k" d="M162.44,31,259,15.22C263.39,13.38,260.37,4,255.72,5l-96,17.46Z"/><path class="l" d="M170,30.61a9.09,9.09,0,1,1-5-11.84h0l.43.19A8.87,8.87,0,0,1,170,30.61Z"/><path class="k" d="M157,24.59,124.77,80.78a23.17,23.17,0,0,1,7,4.56l33.68-56.07C167.4,26,159.5,21.64,157,24.59Z"/><path class="l" d="M135.58,81.77A7.21,7.21,0,0,1,130,90.2a7.1,7.1,0,0,1-8.31-5.64h0v-.08a7.25,7.25,0,0,1,5.57-8.58,7.15,7.15,0,0,1,8.35,5.7h0Z"/><path class="k" d="M130.76,132l1.33-48.56c-.16-3-7.67-4.06-8-1.21l-2.48,48.92Z"/><path class="l" d="M132.76,126.22a7.66,7.66,0,1,1-10.79,1l.27-.3A7.51,7.51,0,0,1,132.76,126.22Z"/><path class="k" d="M180.25,164.52,133,129.28c-4-3.23-11.31,4.41-7.9,8.24l52.84,46.68Z"/><path class="m" d="M218.71,172a104.45,104.45,0,0,0-37.2-8.29l-1.63-.07a13.15,13.15,0,0,0,.94,22.63,14,14,0,0,0,3.93,1.25h0c6.54,1.16,27,5.08,38.77,2.89S238.29,180.21,218.71,172Z"/><path class="n" d="M182.33,163.8q4.23.21,8.43.77c-.3.13-.59.28-.87.43-5.52,4.24-7.1,12.68-3.55,19a17.48,17.48,0,0,0,2.88,4.33L187,188a14.84,14.84,0,0,1-6.14-7.26,15.24,15.24,0,0,1,1.47-16.88ZM195,165.23c3.24.54,6.46,1.24,9.63,2.08a9,9,0,0,0-4.47,1.22c-5.56,4.19-7.16,12.64-3.6,18.94a18,18,0,0,0,1.21,2.15c-1.31-.18-2.65-.35-3.85-.54a16,16,0,0,1-3.1-4.6c-3.54-6.31-1.94-14.72,3.59-18.93l.59-.32Zm11.59,2.59c2.56.76,5.09,1.6,7.59,2.54a8.89,8.89,0,0,0-4.08,1.22c-5.53,4.22-7.11,12.64-3.56,18.94l.09.16c-1.42-.12-2.83-.26-4.22-.41a16,16,0,0,1-1.46-2.55c-3.55-6.3-2-14.71,3.54-18.94a9.63,9.63,0,0,1,2.1-1ZM216,171c.89.32,1.79.65,2.67,1,1.38.58,2.4,1.15,3.56,1.72a8.24,8.24,0,0,0-2,1.13c-4.7,3.51-6.66,10.23-4.72,16.16-1.44,0-2.9,0-4.4-.08-.06-.1-.11-.2-.16-.3-3.56-6.3-2-14.75,3.59-18.93a9.2,9.2,0,0,1,1.41-.69Z"/><path class="p" d="M241.49,184c0,2-3,3.47-6.23,3.17s-5.77-2.2-5.62-4.24,3-3.47,6.29-3.17S241.65,182,241.49,184Z"/><path class="b" d="M291.71,394.9l8.74-5.86,6.17-2.92,6.7,1.36,6.63,3.86L313.82,395l-8.37,1.43-7,.94Z"/><path class="c" d="M310,369.92l-.82,9.06-2.6,7.14-14.91,8.78L290,385.17l1.77-9.47,8.85-4.23Z"/><path class="d" d="M291.76,375.7l-7-16,13.32,4.11L310,369.92Z"/><path class="e" d="M313.06,409.67l5.77-9,1.12-9.32-14.5,5.1Z"/><path class="f" d="M310,369.92l-3.42,16.2.06.06,13.27,5.16-3.76-10.13Z"/><path class="f" d="M283.75,346.7l34.82,14-3,5.61L310,369.92l-25.27-10.25-2-5.85Z"/><path class="b" d="M318.57,360.73l13.08,29.38-5.47,1.42-6.23-.19L310,369.92Z"/><path class="g" d="M331.65,390.11l-9.71,24.36-5.08-1.84-3.8-3L320,391.3Z"/><path class="h" d="M246.2,490.46l73-13.32,35.77-35.76-29.9-13c-4.63-25.31-12.58-32.52-21-37.25L246.2,479.29Z"/><path class="q" d="M222,467.11v6.58l-41.19-7.85-20.19-21.07,16.88-7.64c2.62-14.9,7.1-19.15,11.85-21.93Z"/><path class="h" d="M246.2,328l51.3,42.28V334.51l-19-32.88L275,304c-.4,6.54-5.06,9.21-12.06,6.92L246.2,321.45Z"/><path class="q" d="M270.75,466.86v6.51l40.75-7.76,20-20.84-16.7-7.56c-2.59-14.74-7-18.95-11.72-21.7Z"/><path class="o" d="M262.65,219.24a25.18,25.18,0,0,0-25.19,25.18h0a25.2,25.2,0,1,0,25.21-25.18Zm0,7.77a17.42,17.42,0,1,1-17.42,17.43h0A17.4,17.4,0,0,1,262.58,227h.05Z"/><path class="o" d="M234.94,220a25.18,25.18,0,0,0-25.18,25.18h0A25.18,25.18,0,1,0,234.94,220Zm0,7.77a17.42,17.42,0,1,1-17.41,17.43h0a17.4,17.4,0,0,1,17.35-17.45h0Z"/><path class="q" d="M251.86,333.79l23.79-15.74,12.81,18.67-3.09,19.54Z"/><path class="i" d="M247.85,238.33V250c7.21,0,13,11.69,13.06,26.1s-5.85,26.11-13.06,26.11h0v11.65c10.43,0,18.89-16.91,18.89-37.76h0C266.74,255.23,258.28,238.33,247.85,238.33Z"/><path class="m" d="M295.17,215.59A104.33,104.33,0,0,1,330.78,202l1.61-.31a13.18,13.18,0,0,1,2.34,22.53A14.31,14.31,0,0,1,331,226h0c-6.31,2.09-26,8.93-37.94,8.46s-16.09-8,2.09-18.91Z"/><path class="n" d="M330,202.18q-4.15.82-8.23,2a7.6,7.6,0,0,1,.92.3c6.08,3.4,8.86,11.51,6.27,18.28a17.94,17.94,0,0,1-2.23,4.7l2.14-.71a14.78,14.78,0,0,0,5-8.07A15.2,15.2,0,0,0,330,202.18Zm-12.33,3.25q-4.68,1.56-9.23,3.46a8.83,8.83,0,0,1,4.6.56c6.11,3.33,8.92,11.46,6.3,18.22a21.35,21.35,0,0,1-.88,2.3c1.27-.37,2.57-.73,3.73-1.09a16.38,16.38,0,0,0,2.4-5c2.59-6.76-.21-14.85-6.29-18.21a4.38,4.38,0,0,0-.66-.24Zm-11.09,4.24c-2.43,1.11-4.81,2.32-7.15,3.61a8.85,8.85,0,0,1,4.22.62c6.07,3.37,8.86,11.48,6.26,18.22l-.06.18c1.38-.32,2.76-.67,4.11-1a19.49,19.49,0,0,0,1.08-2.74c2.59-6.74-.18-14.84-6.25-18.22a9,9,0,0,0-2.21-.65Zm-8.89,4.56c-.84.44-1.67.89-2.5,1.36-1.28.77-2.2,1.48-3.27,2.22a8.37,8.37,0,0,1,2.09.83c5.16,2.79,8.07,9.16,7,15.31,1.44-.2,2.87-.43,4.36-.71a.92.92,0,0,1,.11-.33c2.61-6.75-.2-14.87-6.3-18.21a7.81,7.81,0,0,0-1.49-.47Z"/><path class="m" d="M202.94,215.54A104.39,104.39,0,0,0,167.33,202l-1.61-.31a13.18,13.18,0,0,0-2.34,22.53,14.16,14.16,0,0,0,3.71,1.8h0c6.31,2.1,26,8.94,37.94,8.47s16.09-8-2.09-18.91Z"/><path class="n" d="M168.13,202.13c2.77.55,5.52,1.22,8.23,2a7.6,7.6,0,0,0-.92.3c-6.08,3.39-8.86,11.51-6.27,18.28a17.94,17.94,0,0,0,2.23,4.7l-2.14-.71a14.78,14.78,0,0,1-5-8.07,15.2,15.2,0,0,1,3.89-16.49Zm12.33,3.25q4.69,1.51,9.23,3.46a8.73,8.73,0,0,0-4.6.56c-6.11,3.33-8.92,11.46-6.3,18.22a21.35,21.35,0,0,0,.88,2.3c-1.27-.37-2.57-.73-3.73-1.09a16.38,16.38,0,0,1-2.4-5c-2.59-6.76.21-14.85,6.29-18.21Q180.15,205.49,180.46,205.38Zm11.09,4.24c2.43,1.11,4.81,2.32,7.15,3.61a8.85,8.85,0,0,0-4.22.62c-6.07,3.37-8.86,11.48-6.26,18.22l.06.18-4.11-1a19.49,19.49,0,0,1-1.08-2.74c-2.59-6.74.18-14.84,6.25-18.22a9,9,0,0,1,2.21-.65Zm8.89,4.56c.84.44,1.67.89,2.5,1.36,1.28.77,2.2,1.48,3.27,2.22a8,8,0,0,0-2.09.83c-5.16,2.79-8.07,9.16-7,15.31-1.44-.2-2.87-.43-4.36-.71a.92.92,0,0,0-.11-.33c-2.61-6.75.2-14.87,6.3-18.21a7.81,7.81,0,0,1,1.49-.47Z"/><path class="p" d="M224.6,233.93c-.87,2.55-4.9,3.42-9,1.95s-6.7-4.7-5.63-7.25,4.89-3.42,9-1.94S225.54,231.18,224.6,233.93Z"/><path class="q" d="M240.55,333.79l-23.78-15.74L204,336.72l3.09,19.54Z"/><path class="r" d="M259.69,403.67l-13.43,75.91c-34.76,0-62.93-34-62.93-75.91s28.17-75.9,62.93-75.9Z"/><path class="l" d="M309.19,403.67c0,41.93-28.17,75.91-62.93,75.91V327.77C281,327.77,309.19,361.76,309.19,403.67Z"/><path class="s" d="M272.41,403.67l-26.15,58.87c-26.95,0-48.8-26.35-48.8-58.87s21.85-58.85,48.8-58.85Z"/><path class="t" d="M295.06,403.67c0,32.52-21.85,58.87-48.8,58.87V344.82C273.21,344.82,295.06,371.17,295.06,403.67Z"/><ellipse class="u" cx="245.64" cy="407.41" rx="31.2" ry="35.43"/><path class="b" d="M247,406.87l8.73-5.87,6.19-2.92,6.7,1.36,6.63,3.85L269.16,407l-8.37,1.44-7,.94Z"/><path class="c" d="M265.38,381.88l-.82,9.06-2.6,7.14-15,8.79-1.72-9.74,1.77-9.47,8.84-4.23Z"/><path class="v" d="M247,406.87l3.56,6.81,5.17,5.19,6.08,2.55,6.54.21-3.18-7.72-4.43-5.51Z"/><path class="w" d="M240.09,371.62l-4.69,9.24-2.05,7.41,5.14,10.39,8.55,8.21.1-19.21-2.54-8.16Z"/><path class="x" d="M254.75,435.82,256.2,427l-.43-8.14-8.73-12-1.37,10.2,1.11,8.86,3.08,5.83Z"/><path class="y" d="M246.78,425.92l-5.06,5.79L232.94,436l-.23-8.64,2.63-6.63L240,413l7.07-6.18L246.88,417Z"/><path class="x" d="M217.83,416.93l7.55-7.18,7.56-4.27,7.2-.22,6.9,1.61c-3.69,4.64-7.8,9.28-11.7,13.84l-8.46-1Z"/><path class="z" d="M219.36,388.12l5.62,9.76,8,7.6,14.1,1.39c-4.31-6.27-9.13-12.43-13.69-18.6l-6.25-.81Z"/><path class="d" d="M247.09,387.66l-7-16,13.33,4.11,12,6.15Z"/><path class="aa" d="M235.34,420.71h-.05l-7.38-1.6-10.08-2.18,6.65,10.15,8.46,8.9Z"/><path class="ab" d="M268.39,421.63l-12.62-2.76-1,16.95,8.83-5.88Z"/><path class="e" d="M268.39,421.63l5.78-9,1.12-9.33-14.51,5.11Z"/><path class="ac" d="M219.36,388.12l-1.69,14.58.16,14.23,8.53-6.46,6.58-5Z"/><path class="f" d="M265.38,381.88,262,398.08l.05.05,13.28,5.16-3.76-10.13Z"/><path class="ad" d="M254.75,435.82l-8-9.9L232.94,436l10.78,1.8Z"/><path class="f" d="M239.07,358.65l34.84,14-3,5.61-5.48,3.59-25.29-10.26-2-5.85Z"/><path class="b" d="M273.91,372.68,287,402.07l-5.46,1.42-6.23-.2-9.91-21.41Z"/><path class="g" d="M287,402.07l-9.7,24.36-5.09-1.84-3.8-3,6.9-18.34Z"/><path class="u" d="M268.39,421.63l8.89,4.8-18.75,19-2.92-4.22-.86-5.38Z"/><path class="ae" d="M232.94,436l21.81-.16,3.78,9.6L228,445.5l1.26-5.35Z"/><path class="y" d="M208.13,420.4l4.57-2.32,5.13-1.15L232.94,436,228,445.5Z"/><path class="u" d="M209.56,383l5.49,1.66,4.31,3.5L217.83,417l-9.7,3.47Z"/><path class="z" d="M240.09,371.62l-8.89,9.26-11.84,7.24-9.8-5.16,29.51-24.31.52,6.53Z"/><path class="af" d="M233.35,388.27l-14-.15,20.73-16.5Z"/><path class="p" d="M274.48,235.18c.87,2.55,4.9,3.42,9,1.95s6.7-4.7,5.63-7.25-4.9-3.42-9-1.94S273.54,232.43,274.48,235.18Z"/></svg>