<svg xmlns="http://www.w3.org/2000/svg" viewBox="0 0 58 58" width="58" height="58">
	<style>
		tspan { white-space:pre }
		.shp0 { fill: #8c9c9c } 
		.shp1 { fill: #7f8384 } 
		.shp2 { fill: #e9931f } 
		.shp3 { fill: #e7bb19 } 
		.shp4 { fill: #6f8487 } 
		.shp5 { fill: #99b6ba } 
		.shp6 { fill: #7f989b } 
	</style>
	<g id="Page-1">
		<g id="036---Magic-Scroll">
			<path id="Shape" class="shp0" d="M49 10L49 57C49 57.55 48.55 58 48 58L42 58C41.45 58 41 57.55 41 57L41 56L33 56L33 57C33 57.55 32.55 58 32 58L26 58C25.45 58 25 57.55 25 57L25 56L17 56L17 57C17 57.55 16.55 58 16 58L10 58C9.45 58 9 57.55 9 57L9 10L49 10Z" />
			<g id="Layer">
				<path id="Shape" class="shp1" d="M19 54L19 56L17 56L17 54C17 53.45 17.45 53 18 53C18.55 53 19 53.45 19 54Z" />
				<path id="Shape" class="shp1" d="M41 54L41 56L39 56L39 54C39 53.45 39.45 53 40 53C40.55 53 41 53.45 41 54Z" />
				<path id="Shape" class="shp1" d="M25 54L25 56L23 56L23 54C23 53.45 23.45 53 24 53C24.55 53 25 53.45 25 54Z" />
				<path id="Shape" class="shp1" d="M35 54L35 56L33 56L33 54C33 53.45 33.45 53 34 53C34.55 53 35 53.45 35 54Z" />
			</g>
			<path id="Shape" class="shp2" d="M2 5L6 5L6 9L2 9C0.9 9 0 8.1 0 7C0 5.9 0.9 5 2 5Z" />
			<path id="Shape" class="shp2" d="M56 9L52 9L52 5L56 5C57.1 5 58 5.9 58 7C58 8.1 57.1 9 56 9Z" />
			<path id="Rectangle-path" class="shp1" d="M8 2L50 2L50 12L8 12L8 2Z" />
			<path id="Rectangle-path" class="shp3" d="M7 0L7 0C8.11 0 9 0.89 9 2L9 12C9 13.11 8.11 14 7 14L7 14C5.89 14 5 13.11 5 12L5 2C5 0.89 5.89 0 7 0Z" />
			<path id="Rectangle-path" class="shp3" d="M51 14L51 14C49.89 14 49 13.11 49 12L49 2C49 0.89 49.89 0 51 0L51 0C52.11 0 53 0.89 53 2L53 12C53 13.11 52.11 14 51 14Z" />
		</g>
	</g>
	<g id="Layer_2">
		<g id="Layer_2-2">
			<path id="Layer" class="shp4" d="M32.94 18.66C40.35 20.67 44.49 28.57 42.3 35.94C42.3 35.94 43.61 30.83 39.4 25.62C37 22.62 31.7 21.21 31.65 24.5C25.83 24.28 27.09 17.06 32.94 18.66Z" />
			<path id="Layer" fill-rule="evenodd" class="shp5" d="M13 32C13 29.9 13.41 27.82 14.22 25.88C15.02 23.94 16.2 22.17 17.69 20.69C19.17 19.2 20.94 18.02 22.88 17.22C24.82 16.41 26.9 16 29 16C35.47 16 41.31 19.9 43.78 25.88C46.26 31.86 44.89 38.74 40.31 43.31C35.74 47.89 28.86 49.26 22.88 46.78C16.9 44.31 13 38.47 13 32ZM13.94 32C13.95 33.97 14.34 35.93 15.1 37.75C15.85 39.57 16.96 41.23 18.36 42.62C19.76 44.02 21.42 45.12 23.24 45.88C25.07 46.63 27.03 47.01 29 47.01C35.08 47 40.56 43.33 42.88 37.71C45.19 32.09 43.9 25.62 39.59 21.33C35.29 17.04 28.82 15.76 23.2 18.1C17.59 20.43 13.93 25.92 13.94 32Z" />
			<path id="Layer" class="shp5" d="M15.09 32C15.08 30.17 15.44 28.36 16.14 26.67C16.84 24.98 17.86 23.45 19.16 22.16C20.45 20.86 21.98 19.84 23.67 19.14C25.36 18.44 27.17 18.08 29 18.09C19.81 18.41 14.14 32.13 21.65 39.01C28.32 45.14 33.3 37.99 28.06 36.53C28.06 35.07 28.98 34.09 30.84 34.09C31.68 32.18 37.04 31.97 39.07 35.19C39.45 35.73 39.72 36.33 39.87 36.97C40.03 37.61 40.07 38.27 39.99 38.92C39.92 39.57 39.72 40.2 39.42 40.79C39.12 41.37 38.72 41.9 38.23 42.34C37.61 42.9 36.93 43.41 36.21 43.85C35.49 44.29 34.73 44.66 33.95 44.96C33.16 45.27 32.34 45.49 31.51 45.64C30.69 45.8 29.84 45.87 29 45.87C27.18 45.87 25.37 45.52 23.68 44.82C22 44.12 20.46 43.1 19.17 41.82C17.88 40.53 16.85 39 16.15 37.31C15.45 35.63 15.09 33.82 15.09 32L15.09 32Z" />
			<path id="Layer" class="shp6" d="M20.29 31.24C18.81 26.19 23.37 20.05 28.22 18.67C28.22 18.67 24.54 19.96 22.11 24.77C19.36 30.23 23.45 35.63 28.15 33.44C26.52 35.67 21.53 35.43 20.29 31.24Z" />
			<path id="Layer" class="shp6" d="M38.39 27.69C38.08 27.39 37.76 27.12 37.41 26.87C37.07 26.62 36.71 26.39 36.33 26.19C35.95 25.99 35.56 25.81 35.16 25.66C34.76 25.52 34.35 25.4 33.94 25.31C34.37 24.69 36.61 24.77 38.69 26.75C40.77 28.74 41.5 32 41.5 33.25C41.13 31.05 39.74 29.09 38.39 27.69Z" />
		</g>
	</g>
</svg>