<svg xmlns="http://www.w3.org/2000/svg" viewBox="0 0 512 512"><defs><style>.a{fill:none;}.b{fill:#d67fe2;}.c{fill:#8a56a5;}.d{fill:#efabff;}.e{fill:#ad54c5;}.f{fill:#8645bd;}.g{fill:#eab021;}.h{fill:#ecc450;}.i{fill:#5454ba;}.j{fill:#96431e;}.k{fill:#c25bbf;}.l{fill:#ed8cea;}.m{fill:#b851b8;}.n{fill:#b242ae;}</style></defs><title>Artboard 150</title><path class="a" d="M441.48,399c-7.21,12.36-63.32,69.5-74.64,80.82-91.63,32.43-124.58,39.64-192.53-1.54C84.74,420.06,36.87,324.31,88.86,210c5.66-10.3,40.15-40.67,48.39-48.91,51-50.44,141.05-54,218.26-4.11C445.6,214.66,483.69,323.28,441.48,399ZM210.35,415c74.64,48.39,153.91,51,189.43-11.84S360.66,266.65,286,218.78s-111.19-67.95-146.71-5.15-3.59,152.89,71.06,201.28Z"/><path class="a" d="M441.48,399c-7.21,12.36-63.32,69.5-74.64,80.82-91.63,32.43-124.58,39.64-192.53-1.54C84.74,420.06,36.87,324.31,88.86,210c5.66-10.3,40.15-40.67,48.39-48.91,51-50.44,141.05-54,218.26-4.11C445.6,214.66,483.69,323.28,441.48,399ZM210.35,415c74.64,48.39,153.91,51,189.43-11.84S360.66,266.65,286,218.78s-111.19-67.95-146.71-5.15-3.59,152.89,71.06,201.28Z"/><path class="a" d="M441.48,399c-7.21,12.36-63.32,69.5-74.64,80.82-91.63,32.43-124.58,39.64-192.53-1.54C84.74,420.06,36.87,324.31,88.86,210c5.66-10.3,40.15-40.67,48.39-48.91,51-50.44,141.05-54,218.26-4.11C445.6,214.66,483.69,323.28,441.48,399ZM210.35,415c74.64,48.39,153.91,51,189.43-11.84S360.66,266.65,286,218.78s-111.19-67.95-146.71-5.15-3.59,152.89,71.06,201.28Z"/><path class="b" d="M441.48,399c-7.21,12.36-63.32,69.5-74.64,80.82-91.63,32.43-124.58,39.64-192.53-1.54C84.74,420.06,36.87,324.31,88.86,210c5.66-10.3,40.15-40.67,48.39-48.91,51-50.44,141.05-54,218.26-4.11C445.6,214.66,483.69,323.28,441.48,399ZM210.35,415c74.64,48.39,153.91,51,189.43-11.84S360.66,266.65,286,218.78s-111.19-67.95-146.71-5.15-3.59,152.89,71.06,201.28Z"/><path class="a" d="M122.32,208c-14.42,8.24-28.83,17-42.73,26.77-2.06,5.15-3.6,10.29-5.15,14.93,2.58-8.76,5.15-17.51,8.24-25.74a362.89,362.89,0,0,1,42.21-26.26,43.87,43.87,0,0,1,28.83-5.7c-2.57,3.09-5.15,6.18-7.72,9.78A49.34,49.34,0,0,0,122.32,208Z"/><polygon class="c" points="395.15 195.1 413.68 255.84 354.48 228.56 330.29 205.4 375.59 177.08 395.15 195.1"/><polygon class="d" points="375.59 177.08 395.15 195.1 413.68 255.84 413.17 255.84 356.54 188.92 375.59 177.08"/><path class="a" d="M396.18,444.25c-42.73,75.67-149.8,90.09-239.89,32.43S28.11,310.41,70.84,234.74s149.8-90.09,239.89-32.43S438.91,368.58,396.18,444.25ZM165,460.21c74.65,47.87,164.22,36,199.74-26.77s7.72-159.58-66.92-208-168.29-29.31-203.3,33.49S90.4,412.34,165,460.21Z"/><path class="a" d="M396.18,444.25c-42.73,75.67-149.8,90.09-239.89,32.43S28.11,310.41,70.84,234.74s149.8-90.09,239.89-32.43S438.91,368.58,396.18,444.25ZM165,460.21c74.65,47.87,164.22,36,199.74-26.77s7.72-159.58-66.92-208-168.29-29.31-203.3,33.49S90.4,412.34,165,460.21Z"/><path class="a" d="M396.18,444.25c-42.73,75.67-149.8,90.09-239.89,32.43S28.11,310.41,70.84,234.74s149.8-90.09,239.89-32.43S438.91,368.58,396.18,444.25ZM165,460.21c74.65,47.87,164.22,36,199.74-26.77s7.72-159.58-66.92-208-168.29-29.31-203.3,33.49S90.4,412.34,165,460.21Z"/><path class="a" d="M396.18,444.25c-42.73,75.67-149.8,90.09-239.89,32.43S28.11,310.41,70.84,234.74s149.8-90.09,239.89-32.43S438.91,368.58,396.18,444.25ZM165,460.21c74.65,47.87,164.22,36,199.74-26.77s7.72-159.58-66.92-208-168.29-29.31-203.3,33.49S90.4,412.34,165,460.21Z"/><path class="a" d="M396.18,444.25c-42.73,75.67-149.8,90.09-239.89,32.43S28.11,310.41,70.84,234.74s149.8-90.09,239.89-32.43S438.91,368.58,396.18,444.25ZM165,460.21c74.65,47.87,164.22,36,199.74-26.77s7.72-159.58-66.92-208-168.29-29.31-203.3,33.49S90.4,412.34,165,460.21Z"/><path class="e" d="M396.18,444.25c-42.73,75.67-149.8,90.09-239.89,32.43S28.11,310.41,70.84,234.74s149.8-90.09,239.89-32.43S438.91,368.58,396.18,444.25ZM165,460.21c74.65,47.87,164.22,36,199.74-26.77s7.72-159.58-66.92-208-168.29-29.31-203.3,33.49S90.4,412.34,165,460.21Z"/><path class="a" d="M301,266.65c8.75,9.27,28.31,8.24,44.27,3.61-1.55-20.59,7.2-40.67,22.65-54.57,11.84-11.32,25.74-28.31,37.06-16.47-.51-7.21-2.06-20.08-6.69-24.71-15.45-16-49.94-8.75-76.7,17S285.5,250.18,301,266.65Z"/><path class="f" d="M301,266.65c8.75,5.67,19.56,6.7,19.56,6.7a67,67,0,0,0,24.71-3.61c-1.55-20.59,7.2-40.66,22.65-54.56,11.84-11.33,25.74-28.32,37.06-16.48,0-11.84-3.09-20.07-6.69-25.22-17.5-26.77-75.67-35-104-3.6C267,201.28,280.87,253.78,301,266.65Z"/><path class="a" d="M88.86,210a123.77,123.77,0,0,1,30.37-23.68l11.32-33.46c8.76-12.36-21.1,3.6-21.1,3.6Z"/><path class="a" d="M88.86,210a123.77,123.77,0,0,1,30.37-23.68l11.32-33.46c8.76-12.36-21.1,3.6-21.1,3.6Z"/><path class="d" d="M88.86,210a123.77,123.77,0,0,1,30.37-23.68l11.32-33.46c8.76-12.36-21.1,3.6-21.1,3.6Z"/><path class="a" d="M112,189.44c0,25.74,12.36,46.33,27.8,46.33s27.8-20.59,27.8-46.33-12.36-46.33-27.8-46.33S112,163.7,112,189.44Z"/><path class="f" d="M112,189.44c0,25.74,12.36,46.33,27.8,46.33s27.8-20.59,27.8-46.33-12.36-46.33-27.8-46.33S112,163.7,112,189.44Z"/><polygon class="a" points="400.3 133.84 295.28 262.54 170.19 288.79 123.35 211.57 119.23 161.64 199.02 77.22 400.3 96.26 400.3 133.84"/><polygon class="a" points="400.3 133.84 295.28 262.54 170.19 288.79 123.35 211.57 119.23 161.64 199.02 77.22 400.3 96.26 400.3 133.84"/><polygon class="g" points="400.3 133.84 295.28 262.54 170.19 288.79 123.35 211.57 119.23 161.64 199.02 77.22 400.3 96.26 400.3 133.84"/><polygon class="a" points="176.37 218.78 170.71 288.27 170.19 288.79 123.35 211.57 119.23 161.64 126.44 153.92 176.37 218.78"/><polygon class="g" points="176.37 218.78 170.71 288.27 170.19 288.79 123.35 211.57 119.23 161.64 126.44 153.92 176.37 218.78"/><polygon class="g" points="400.3 96.26 400.3 133.84 295.8 261.51 291.68 211.06 382.28 94.72 400.3 96.26"/><polygon class="h" points="400.3 96.26 292.19 225.99 174.31 245.03 119.23 161.64 209.83 41.18 400.3 96.26"/><polygon class="a" points="284.99 212.6 375.59 103.98 215.49 57.66 136.22 162.15 181 229.59 284.99 212.6"/><polygon class="i" points="284.99 212.6 375.59 103.98 215.49 57.66 136.22 162.15 181 229.59 284.99 212.6"/><polygon class="a" points="215.49 66.41 139.82 166.79 136.22 162.15 215.49 57.66 375.59 103.98 369.41 111.19 215.49 66.41"/><polygon class="j" points="215.49 66.41 139.82 166.79 136.22 162.15 215.49 57.66 375.59 103.98 369.41 111.19 215.49 66.41"/><path class="a" d="M349.33,135.39l12.36,7.72,13.9,56.11s-31.92,24.19-34,37.06l-26.77,2.58L302,216.72l-15.45-6.18C286.53,210,293.74,148.77,349.33,135.39Z"/><path class="g" d="M349.33,135.39c5.15,1,10.3,2.57,15.45,3.6,3.09,18-4.12,21.62-1,39.12a86.14,86.14,0,0,0-23.68,15.45,78.59,78.59,0,0,0-17.5,24.7c-9.78-7.2-9.27,0-18.54-7.2l-13.89-4.64S293.74,148.26,349.33,135.39Z"/><path class="h" d="M304,211.06l-13.89-4.64s3.6-57.65,59.19-71l15.45,3.6c-8.24,3.09-25.23,14.41-38.1,27.8C311.24,183.77,306.09,202.31,304,211.06Z"/><path class="a" d="M192.84,96.26l-42.21,56.11-1.54-7.2-16-2.06-7.21,9.26S111,103.47,149.6,86.48,182,77.22,182,77.22l10.3,6.17Z"/><path class="a" d="M192.84,96.26l-42.21,56.11-1.54-7.2-16-2.06-7.21,9.26S111,103.47,149.6,86.48,182,77.22,182,77.22l10.3,6.17Z"/><path class="h" d="M189.75,96.26l-37.57,51.48-2.58-2.57-16-2.06c0-3.61-1-31.4,20.08-48.91A54.09,54.09,0,0,1,180,82.36c5.15,1.55,9.78,2.58,14.93,4.12Z"/><path class="j" d="M150.63,152.37l-1.54-7.2c1.54-7.72,5.66-24.71,19-40.16a82.69,82.69,0,0,1,25.74-19.56,78.42,78.42,0,0,0-1,10.81Z"/><polygon class="a" points="224.76 112.22 330.29 0 234.03 119.94 224.76 112.22"/><polygon class="a" points="224.76 112.22 330.29 0 234.03 119.94 224.76 112.22"/><polygon class="d" points="224.76 112.22 330.29 0 234.03 119.94 224.76 112.22"/><polygon class="a" points="330.29 0 296.31 90.09 279.32 128.18 234.03 119.94 330.29 0"/><polygon class="a" points="330.29 0 296.31 90.09 279.32 128.18 234.03 119.94 330.29 0"/><polygon class="k" points="330.29 0 296.31 90.09 279.32 128.18 234.03 119.94 330.29 0"/><path class="a" d="M195.93,152.37l-34-14.92c0-5.15-5.67-8.76-12.36-11.84L98.12,109.13l136.42,10.81Z"/><polygon class="a" points="97.61 109.13 224.76 112.22 234.03 119.94 97.61 109.13"/><polygon class="a" points="97.61 109.13 224.76 112.22 234.03 119.94 97.61 109.13"/><polygon class="a" points="279.32 128.18 366.32 210.03 234.03 119.94 279.32 128.18"/><polygon class="l" points="279.32 128.18 366.32 210.03 234.03 119.94 279.32 128.18"/><polygon class="a" points="234.03 119.94 189.75 216.72 195.93 152.37 234.03 119.94"/><polygon class="a" points="234.03 119.94 189.75 216.72 195.93 152.37 234.03 119.94"/><polygon class="d" points="234.03 119.94 167.1 219.29 195.93 152.37 234.03 119.94"/><polygon class="a" points="233.51 177.08 189.75 216.72 234.03 119.94 243.81 152.37 233.51 177.08"/><polygon class="m" points="233.51 177.08 167.1 219.29 234.03 119.94 243.81 152.37 233.51 177.08"/><polygon class="a" points="366.32 210.03 292.71 188.92 290.13 195.62 233.51 177.08 234.03 119.94 366.32 210.03"/><path class="n" d="M366.32,210c-44.27-11.33-88.54-22.14-132.81-33.46l.51-56.63Z"/><path class="a" d="M153.21,452c-6.7,12.87-3.09,23.17,5.14,32.43a45.9,45.9,0,0,0,43.24,14.93V478.74L250,436a133.27,133.27,0,0,0,12.87,5.15c.52-25.22-35.52-29.34-51.48-35a15.81,15.81,0,0,0-10.81,2.06C182,418,153.21,452,153.21,452Z"/><path class="a" d="M153.21,452c-6.7,12.87-3.09,23.17,5.14,32.43a45.9,45.9,0,0,0,43.24,14.93V478.74L250,436a133.27,133.27,0,0,0,12.87,5.15c.52-25.22-35.52-29.34-51.48-35a15.81,15.81,0,0,0-10.81,2.06C182,418,153.21,452,153.21,452Z"/><path class="f" d="M153.21,452c-6.7,12.87-3.09,23.17,5.14,32.43a45.9,45.9,0,0,0,43.24,14.93V478.74L250,436a133.27,133.27,0,0,0,12.87,5.15c.52-25.22-35.52-29.34-51.48-35a15.81,15.81,0,0,0-10.81,2.06C182,418,153.21,452,153.21,452Z"/><path class="j" d="M202.11,75.16c-4.12,11.32-11.33,25.74-22.65,41.18a179.44,179.44,0,0,1-34,34.49c.52-7.72,2.06-24.71,12.87-41.7C172.77,85.45,194.9,77.73,202.11,75.16Z"/><path class="h" d="M145,150.83c-4.63-1.55-9.27-2.57-13.9-4.12,0,0,.51-58.17,55.08-74.13l16,2.58c-7.72,3.6-24.2,15.44-36,29.85A97.54,97.54,0,0,0,145,150.83Z"/><path class="n" d="M195.93,152.37c-29.86-20.59-59.71-40.66-89.57-61.25,42.73,9.78,85.45,19,128.18,28.82Z"/><path class="l" d="M106.36,91.12c0-1,39.64,6.17,118.91,21.1l9.27,7.72C148.57,101.93,106.36,92.14,106.36,91.12Z"/></svg>