<svg xmlns="http://www.w3.org/2000/svg" viewBox="0 0 512 512"><defs><style>.a{fill:#94a2a2;}.b{fill:#96431e;}.c{fill:#ecc450;}.d{fill:#d354e1;}.e{fill:#efabff;}.f{fill:#a84ac2;}.g{fill:#db65e8;}.h{fill:#8645bd;}.i{fill:#d551e4;}.j{fill:#ad54c5;}</style></defs><title>Artboard 151</title><path class="a" d="M337.15,276a13,13,0,0,0,10.35-15.19l-.12-.58A13.9,13.9,0,0,0,337.15,250l-2-4.41,2-4.54c9.79,0,17.47,9.8,17.47,21.73s-8.09,21.74-17.47,21.74l-2-4.37Z"/><path class="a" d="M258.72,397a13,13,0,0,1-10.35-15.19c0-.2.08-.39.13-.58A13.88,13.88,0,0,1,258.72,371l2-4.4-2-4.55c-9.8,0-17.47,9.8-17.47,21.74s8.11,21.73,17.47,21.73l2-4.36Z"/><path class="b" d="M194.15,261.11c-14.12,6.78-31.68-3.27-40.57-21.8-7.9-18.17-3.84-36,9.42-43.09,14.12-6.78,31.72.54,40.62,19.07.21.45.42.91.62,1.37-8.34-14.52-23.39-21.43-34.8-16-12.24,5.88-15.84,23.8-8.05,40,7.23,15.06,21.87,23.57,33.91,19.72-.38.23-.76.45-1.15.65Z"/><path class="c" d="M196.48,260.05c-12.87,6.17-29.95-2.64-38.13-19.69s-4.38-35.88,8.49-42.06S196.78,200.93,205,218,209.36,253.86,196.48,260.05Zm-3.29-8.15c9.36-4.49,10.23-19.31,4.47-31.32s-16.66-18.73-26-14.24-12.25,17.86-6.5,29.86S183.84,256.39,193.19,251.9Z"/><path class="b" d="M225.23,307.28a9.53,9.53,0,0,0-.57,7.42,9.84,9.84,0,0,1,1-2.78c3.1-5.64,11.48-7,18.72-3a18.07,18.07,0,0,1,6.22,5.53c-.77-3.94-3.74-7.69-7.89-10-6.75-3.7-14.56-2.44-17.45,2.82Z"/><path class="b" d="M254.89,326.44c4.07-7.41.64-17.12-9.11-22.45l-.72-.38c7.59,4.92,10.88,13.24,7.61,19.23C252.33,324.69,252.58,326.18,254.89,326.44Z"/><path class="b" d="M225.23,307.28a9.53,9.53,0,0,0-.57,7.42,9.84,9.84,0,0,1,1-2.78c3.1-5.64,11.48-7,18.72-3a18.07,18.07,0,0,1,6.22,5.53c-.77-3.94-3.74-7.69-7.89-10-6.75-3.7-14.56-2.44-17.45,2.82Z"/><path class="b" d="M254.89,326.44c4.07-7.41.64-17.12-9.11-22.45l-.72-.38c7.59,4.92,10.88,13.24,7.61,19.23C252.33,324.69,252.58,326.18,254.89,326.44Z"/><path class="c" d="M253.89,324.31c3.7-6.76-.56-16.21-9.51-21.12s-19.22-3.41-22.92,3.35l4.29,2c2.69-4.91,10.71-5,17-1.5s9.61,9.55,6.92,14.46l1.41,2.54Z"/><path class="b" d="M292.72,304.3a9.49,9.49,0,0,1,.58,7.42,9.54,9.54,0,0,0-1-2.78c-3.11-5.64-11.49-7-18.72-3a18.07,18.07,0,0,0-6.22,5.53c.76-3.94,3.73-7.69,7.89-10,6.75-3.7,14.56-2.44,17.45,2.82Z"/><path class="b" d="M263.06,323.46c-4.06-7.41-.62-17.12,9.11-22.45l.72-.38c-7.59,4.92-10.88,13.24-7.6,19.23C265.64,321.71,265.37,323.2,263.06,323.46Z"/><path class="c" d="M264.08,321.33c-3.71-6.76.54-16.21,9.51-21.12s19.22-3.41,22.93,3.35l-4.3,2c-2.69-4.91-10.71-4.95-17-1.5s-9.61,9.55-6.92,14.46l-1.43,2.53Z"/><path class="b" d="M321.12,253a17.59,17.59,0,0,0,13.78.32,17.09,17.09,0,0,1-5.23-1.52c-10.74-5.17-14.06-20.53-7.45-34.32a33.81,33.81,0,0,1,9.61-12c-7.22,1.81-13.86,7.67-17.65,15.56-6.18,12.86-3.07,27.18,6.94,32Z"/><path class="b" d="M322.46,261.11c14.12,6.78,31.68-3.27,40.57-21.8,7.9-18.17,3.84-36-9.42-43.09-14.12-6.78-31.72.54-40.61,19.07-.22.45-.42.91-.63,1.37,8.34-14.52,23.4-21.43,34.8-16,12.24,5.88,15.84,23.8,8.05,40-7.23,15.06-21.86,23.57-33.9,19.72.37.23.75.45,1.14.65Z"/><path class="c" d="M320.14,260.05c12.88,6.17,29.95-2.64,38.13-19.69s4.38-35.88-8.49-42.06-29.94,2.63-38.13,19.68S307.27,253.86,320.14,260.05Zm3.29-8.15c-9.34-4.49-10.22-19.31-4.46-31.32s16.7-18.73,26-14.24,12.25,17.86,6.48,29.86S332.77,256.39,323.43,251.9Z"/><path class="b" d="M260.19,314.06c-16.44,0-29.77,13.82-29.77,30.87a31.3,31.3,0,0,0,12,24.71c-5.72-5.82-9.61-13.7-9.64-22.08,0-17.07,13.79-31.05,30-31.05A28.49,28.49,0,0,1,283,325.19,29.36,29.36,0,0,0,260.19,314.06Z"/><path class="b" d="M273,311.42a36,36,0,0,1-17.57,67.2,35.32,35.32,0,0,1-12.76-2.44,35.22,35.22,0,0,0,17.54,4.71A36,36,0,0,0,273,311.42Z"/><path class="c" d="M260.19,309a36,36,0,0,0-16.27,67.9,40.84,40.84,0,0,0,14.54,3,35.77,35.77,0,0,0,35.57-36v0c0-13.43-8.5-26-20.3-32.18A35.26,35.26,0,0,0,260.19,309Zm0,6.13c15.71,0,28.46,13.36,28.46,29.83s-12.74,29.83-28.46,29.83S231.08,361.44,231.08,345s13.4-29.86,29.11-29.86Z"/><path class="b" d="M162.39,160.24a9.47,9.47,0,0,0-6.49,3.66,9.16,9.16,0,0,1,2.85-.74c6.42-.57,12.2,5.64,12.94,13.87a18.36,18.36,0,0,1-1.13,8.24c2.85-2.84,4.3-7.39,3.88-12.1-.67-7.67-6.08-13.46-12.05-12.93Z"/><path class="c" d="M160.89,156.68c-7.67.69-13.17,9.5-12.25,19.67s7.88,17.85,15.55,17.17,13.17-9.49,12.25-19.66S168.58,156,160.89,156.68Zm.72,4.69c5.58-.5,10.08,6.14,10.72,13.3s-2.58,13.3-8.14,13.8-10.62-4.9-11.26-12.06S156,161.87,161.61,161.37Z"/><path class="b" d="M159.53,156.83c-8.44.76-13.81,10.27-12.81,21.32,1.35,10.62,8.16,17.77,16.27,17.4,8.42-.76,14.57-9,13.58-20.07a3.72,3.72,0,0,0-.09-.81c.14,9.05-4.94,16.41-11.74,17-7.3.65-13.92-6.67-14.79-16.36-.8-9,3.64-17,10.29-18.51Z"/><path class="c" d="M160.89,156.68c-7.67.69-13.17,9.5-12.25,19.67s7.88,17.85,15.55,17.17,13.17-9.49,12.25-19.66S168.58,156,160.89,156.68Zm.72,4.69c5.58-.5,10.08,6.14,10.72,13.3s-2.58,13.3-8.14,13.8-10.62-4.9-11.26-12.06S156,161.87,161.61,161.37Z"/><path class="b" d="M162.67,120.9a9.48,9.48,0,0,0-6.75,3.16,9.34,9.34,0,0,1,2.9-.53c6.43-.08,11.73,6.54,11.85,14.81a18,18,0,0,1-1.75,8.13c3.05-2.61,4.86-7.05,4.79-11.77-.11-7.7-5.05-13.88-11.05-13.8Z"/><path class="c" d="M161.43,117.24c-7.71.11-13.84,8.47-13.7,18.69s6.51,18.39,14.22,18.29,13.84-8.47,13.7-18.68S169.15,117.13,161.43,117.24Zm.37,4.73c5.6-.08,9.59,6.88,9.69,14.07s-3.57,13.07-9.17,13.14S152.11,143.5,152,136.31,156.2,122,161.81,122Z"/><path class="b" d="M160.06,117.28c-8.45.12-14.53,9.2-14.37,20.3.55,10.68,6.8,18.33,14.91,18.57,8.46-.12,15.21-7.89,15.06-19v-.81c-.54,9-6.16,16-13,16.08-7.33.1-13.38-7.7-13.52-17.42-.12-9,4.91-16.65,11.64-17.69Z"/><path class="c" d="M161.43,117.24c-7.71.11-13.84,8.47-13.7,18.69s6.51,18.39,14.22,18.29,13.84-8.47,13.7-18.68S169.15,117.13,161.43,117.24Zm.37,4.73c5.6-.08,9.59,6.88,9.69,14.07s-3.57,13.07-9.17,13.14S152.11,143.5,152,136.31,156.2,122,161.81,122Z"/><path class="b" d="M168,79.75a9.53,9.53,0,0,0-7.22,1.81,9.13,9.13,0,0,1,2.95,0c6.33,1.15,10.27,8.67,8.8,16.8a18.06,18.06,0,0,1-3.27,7.65c3.49-2,6.11-6,7-10.64,1.37-7.58-2.3-14.59-8.2-15.66Z"/><path class="b" d="M166.17,75.71c-8.34-1.51-16,6.25-18,17.17-1.51,10.59,3.16,19.29,11.08,21.08,8.33,1.5,16.44-4.84,18.41-15.76.05-.27.09-.54.13-.8-2.26,8.75-9.1,14.51-15.83,13.3-7.21-1.3-11.65-10.12-10-19.7,1.61-8.87,8-15.4,14.83-15.13Z"/><path class="c" d="M167.53,75.93c-7.59-1.37-15.22,5.67-17,15.72S153.37,111,161,112.32s15.22-5.66,17-15.71S175.11,77.3,167.53,75.93ZM167,80.64c5.51,1,8.09,8.59,6.81,15.66s-6,12.15-11.5,11.15-8.95-7.53-7.67-14.61S161.47,79.64,167,80.64Z"/><path class="b" d="M188.18,46.71a9.42,9.42,0,0,0-7.27-1.55,9,9,0,0,1,2.62,1.33c5.18,3.82,5.41,12.3.51,19a18.13,18.13,0,0,1-6.31,5.42c4-.24,8.13-2.68,10.93-6.49,4.56-6.2,4.35-14.11-.47-17.67Z"/><path class="b" d="M188.29,42.26c-6.81-5-17.14-1.45-23.71,7.49-6,8.85-5.65,18.72.67,23.81,6.82,5,16.89,2.89,23.47-6l.47-.67c-5.88,6.87-14.57,9-20.07,5-5.9-4.34-6-14.22-.25-22,5.34-7.27,14-10.31,20-7.06A6.25,6.25,0,0,0,188.29,42.26Z"/><path class="c" d="M189.42,43.05c-6.21-4.57-16.14-1.6-22.21,6.63s-5.92,18.59.29,23.16,16.15,1.61,22.2-6.62S195.64,47.63,189.42,43.05Zm-2.56,4c4.51,3.31,3.48,11.27-.78,17.06s-10.74,8.26-15.25,4.94-4.71-10.7-.44-16.49S182.36,43.73,186.86,47.05Z"/><path class="b" d="M226.09,24.64a9.51,9.51,0,0,0-5.45-5.07,9.15,9.15,0,0,1,1.58,2.49c2.47,5.94-1.69,13.33-9.31,16.53A18.13,18.13,0,0,1,204.72,40c3.56,1.86,8.34,1.87,12.7,0,7.11-3,11-9.86,8.67-15.4Z"/><path class="b" d="M228.47,20.87c-3.27-7.8-14-10-24.19-5.75-9.72,4.51-14.47,13.16-11.65,20.78,3.27,7.8,13,11.15,23.23,6.87l.75-.34c-8.58,2.88-17.14.27-19.78-6-2.83-6.76,2.14-15.29,11.11-19,8.31-3.49,17.28-1.68,20.75,4.2A5,5,0,0,0,228.47,20.87Z"/><path class="c" d="M229,22.14c-3-7.11-13-9.68-22.44-5.73s-14.64,12.91-11.67,20,13,9.68,22.45,5.73S232,29.25,229,22.14Zm-4.25,2.11c2.17,5.16-2.8,11.46-9.42,14.24s-13.47,1.57-15.62-3.59,1.46-11.61,8.09-14.39,14.81-1.43,17,3.74Z"/><path class="b" d="M270.49,17.66a9.45,9.45,0,0,0-2.88-6.87,8.77,8.77,0,0,1,.4,2.92c-.18,6.43-7,11.46-15.28,11.23a18.2,18.2,0,0,1-8-2.09c2.48,3.16,6.84,5.14,11.56,5.27,7.7.22,14.08-4.47,14.25-10.46Z"/><path class="b" d="M274.21,15.2C274.44,6.75,265.62.31,254.53,0c-10.71.11-18.6,6-19.17,14.13-.23,8.46,7.25,15.53,18.35,15.83h.82c-9-.92-15.72-6.82-15.54-13.65.2-7.32,8.25-13,18-12.78,9,.25,16.43,5.59,17.19,12.37C274.18,15.68,274.19,15.44,274.21,15.2Z"/><path class="c" d="M274.19,16.59c.23-7.71-7.89-14.19-18.1-14.47s-18.65,5.74-18.86,13.45,7.89,14.18,18.1,14.43S274,24.29,274.19,16.59Zm-4.73.17c-.15,5.59-7.27,9.29-14.45,9.09s-12.92-4.11-12.76-9.7,6.1-10,13.29-9.78S269.61,11.16,269.46,16.76Z"/><path class="b" d="M312.83,33.32A9.58,9.58,0,0,0,314.14,26a9.72,9.72,0,0,1-1.25,2.67C309.24,34,300.77,34.47,294,29.8a18.37,18.37,0,0,1-5.64-6.12c.38,4,3,8,6.86,10.7,6.35,4.36,14.25,3.88,17.64-1.06Z"/><path class="b" d="M317.28,33.27c4.78-7,.86-17.17-8.29-23.45-9.05-5.71-18.9-5-23.78,1.48-4.78,7-2.32,17,6.83,23.25l.69.44c-7.07-5.64-9.52-14.25-5.66-19.89,4.15-6,14-6.49,22-1,7.44,5.1,10.77,13.61,7.73,19.72A2.71,2.71,0,0,0,317.28,33.27Z"/><path class="c" d="M316.52,34.43c4.35-6.37,1.06-16.2-7.37-22S290.37,7.16,286,13.52s-1.06,16.19,7.36,22S312.17,40.79,316.52,34.43ZM312.44,32c-3.16,4.62-11.14,3.86-17.07-.2s-8.62-10.46-5.45-15.08,10.54-5.06,16.47-1S315.61,27.38,312.44,32Z"/><path class="b" d="M337.89,65.7a9.5,9.5,0,0,0,4.58-5.86,8.89,8.89,0,0,1-2.35,1.78c-5.7,3-13.42-.56-17.23-7.89a18.19,18.19,0,0,1-2.11-8c-1.54,3.71-1.17,8.47,1,12.67,3.56,6.83,10.77,10.12,16.08,7.35Z"/><path class="b" d="M341.83,67.75c7.5-3.91,8.84-14.75,3.7-24.59-5.29-9.3-14.32-13.31-21.67-9.87-7.5,3.91-10,13.89-4.9,23.73l.4.71c-3.58-8.3-1.71-17,4.35-20.21,6.5-3.39,15.41.86,19.91,9.48,4.18,8,3.12,17.08-2.44,21Z"/><path class="c" d="M340.62,68.41c6.83-3.56,8.55-13.79,3.82-22.85s-14.08-13.5-20.92-9.94S315,49.41,319.69,58.47,333.78,72,340.62,68.41Zm-2.45-4c-5,2.58-11.67-1.83-15-8.21s-2.7-13.28,2.26-15.87,11.68.48,15,6.86,2.69,14.58-2.26,17.17Z"/><path class="b" d="M349.84,105.86a9.51,9.51,0,0,0,6.27-4,9.65,9.65,0,0,1-2.8.9c-6.37,1-12.51-4.9-13.74-13.07a18.23,18.23,0,0,1,.64-8.3c-2.67,3-3.86,7.64-3.16,12.31,1.14,7.62,6.87,13.08,12.8,12.19Z"/><path class="b" d="M352.92,109.09c8.36-1.25,13.16-11.07,11.51-22-2-10.52-9.21-17.25-17.28-16.4-8.35,1.26-14,9.87-12.35,20.84a3.61,3.61,0,0,0,.13.8c-.68-9,4-16.67,10.71-17.68,7.25-1.09,14.29,5.83,15.73,15.45,1.34,8.92-2.62,17.16-9.17,19.09C352.44,109.14,352.68,109.12,352.92,109.09Z"/><path class="c" d="M351.55,109.32c7.62-1.14,12.58-10.26,11.06-20.36s-8.92-17.35-16.54-16.21S333.49,83,335,93.1,343.93,110.46,351.55,109.32Zm-1-4.64c-5.54.83-10.43-5.52-11.49-12.63s1.78-13.44,7.33-14.26,10.89,4.26,11.95,11.37S356.08,103.86,350.55,104.68Z"/><path class="b" d="M351.81,148.47a9.49,9.49,0,0,0,6.93-2.75,9.34,9.34,0,0,1-2.93.35c-6.42-.3-11.32-7.22-11-15.48a18.27,18.27,0,0,1,2.24-8c-3.21,2.43-5.27,6.74-5.49,11.46-.35,7.7,4.22,14.16,10.21,14.43Z"/><path class="b" d="M354.21,152.24c8.45.38,15-8.33,15.54-19.42.08-10.7-5.7-18.7-13.79-19.41-8.45-.39-15.65,7-16.15,18.06v.82c1.08-9,7.09-15.6,13.93-15.3,7.32.34,12.9,8.48,12.45,18.2-.41,9-5.88,16.33-12.67,17C353.74,152.19,354,152.22,354.21,152.24Z"/><path class="c" d="M352.83,152.2c7.7.35,14.32-7.64,14.78-17.85s-5.42-18.75-13.11-19.1-14.31,7.64-14.78,17.84S345.12,151.85,352.83,152.2Zm-.09-4.75c-5.59-.25-9.16-7.43-8.83-14.61s4.33-12.84,9.92-12.58,9.87,6.28,9.54,13.46S358.33,147.71,352.74,147.45Z"/><path class="b" d="M348.46,188.3a9.45,9.45,0,0,0,7.1-2.2,9.05,9.05,0,0,1-2.94.12c-6.39-.8-10.73-8.09-9.72-16.29a18.4,18.4,0,0,1,2.85-7.81c-3.38,2.17-5.76,6.31-6.35,11-.95,7.64,3.1,14.44,9.05,15.18Z"/><path class="b" d="M350.55,192.24c8.39,1,15.64-7.12,17-18.13.91-10.67-4.24-19.09-12.24-20.44-8.39-1-16.14,5.73-17.51,16.74,0,.27-.06.55-.08.82,1.77-8.87,8.29-15,15.07-14.16,7.27.9,12.2,9.46,11,19.11-1.11,8.95-7.14,15.82-14,15.92Z"/><path class="c" d="M349.17,192.1c7.64.94,14.88-6.5,16.13-16.64s-3.93-19.11-11.58-20.07-14.86,6.5-16.13,16.63S341.52,191.15,349.17,192.1Zm.29-4.74c-5.56-.69-8.56-8.13-7.68-15.26s5.33-12.46,10.89-11.77,9.33,7,8.45,14.17S355,188.05,349.46,187.36Z"/><path class="b" d="M352.34,176.45a4.28,4.28,0,0,1,.8.11c5.07,1.09,7.51,9.75,5.45,19.34s-7.86,16.47-12.94,15.37a4.52,4.52,0,0,1-.74-.22Z"/><path class="c" d="M344.92,211c4.92.29,10.22-6.44,12.17-15.47s-.12-17.37-4.74-19.11c-4.92-.26-10.19,6.46-12.14,15.47S340.3,209.28,344.92,211Z"/><path class="b" d="M166.67,212.94a4.92,4.92,0,0,1-.78.18c-5.13.77-10.47-6.47-11.93-16.17s1.53-18.18,6.66-18.95a5.12,5.12,0,0,1,.78-.06Z"/><path class="c" d="M161.39,178c-4.71,1.47-7.28,9.63-5.91,18.77S161.73,213,166.67,213c4.69-1.49,7.25-9.64,5.89-18.76S166.33,178,161.39,178Z"/><path class="b" d="M161.08,174.91a5.12,5.12,0,0,1-.78.06c-5.19,0-9.4-7.95-9.4-17.76s4.21-17.75,9.4-17.75a5.09,5.09,0,0,1,.77.06Z"/><path class="c" d="M161.06,139.53c-4.87.75-8.64,8.45-8.64,17.69s3.78,16.95,8.66,17.68c4.87-.78,8.61-8.46,8.61-17.68S165.93,140.28,161.06,139.53Z"/><path class="b" d="M160.42,133.17a5.08,5.08,0,0,1-.78,0c-5.18-.4-8.78-8.64-8-18.42s5.53-17.39,10.71-17a5.34,5.34,0,0,1,.77.12Z"/><path class="c" d="M163.06,97.89c-4.92.39-9.25,7.78-9.94,17s2.49,17.19,7.31,18.28c4.9-.41,9.21-7.79,9.91-17S167.86,99,163.06,97.89Z"/><path class="b" d="M163.48,94.39a5.36,5.36,0,0,1-.78-.15c-5-1.38-7-10.16-4.37-19.61s8.76-16,13.76-14.64a4.31,4.31,0,0,1,.74.26Z"/><path class="c" d="M172.81,60.26c-4.89-.56-10.56,5.86-13,14.77s-.84,17.35,3.68,19.35c4.89.53,10.53-5.89,13-14.78S177.33,62.27,172.81,60.26Z"/><path class="b" d="M178.64,53.86a5.9,5.9,0,0,1-.57-.55c-3.42-3.91-.2-12.31,7.19-18.76S201.4,26,204.83,29.94a7.26,7.26,0,0,1,.46.63Z"/><path class="c" d="M205.26,30.56c-3.77-3.17-12-.94-19,5.14s-10.28,14-7.61,18.16c3.79,3.15,12,.91,19-5.15S207.92,34.73,205.26,30.56Z"/><path class="b" d="M213.87,27.15a4.66,4.66,0,0,1-.3-.73c-1.58-5,4.72-11.37,14.07-14.34s18.2-1.37,19.77,3.58a4,4,0,0,1,.18.76Z"/><path class="c" d="M247.58,16.41c-2.19-4.42-10.66-5.67-19.47-2.87s-15,8.74-14.22,13.61c2.21,4.4,10.67,5.64,19.44,2.85S248.34,21.29,247.58,16.41Z"/><path class="b" d="M262.84,14.92c0-.27,0-.53,0-.8.6-5.16,9-8.41,18.74-7.27s17.14,6.25,16.54,11.41A4.57,4.57,0,0,1,298,19Z"/><path class="c" d="M298,19c-.17-4.93-7.39-9.55-16.56-10.63s-17.27,1.78-18.57,6.55c.21,4.92,7.4,9.53,16.56,10.61S296.68,23.76,298,19Z"/><path class="b" d="M304.08,24.41a5.06,5.06,0,0,1,.46-.65c3.3-4,12.11-2.19,19.68,4s11,14.55,7.71,18.55a4.07,4.07,0,0,1-.54.56Z"/><path class="c" d="M331.4,46.91c2.52-4.25-1-12-8.15-17.92s-15.48-7.88-19.15-4.57c-2.5,4.25,1,12,8.16,17.89S327.71,50.19,331.4,46.91Z"/><path class="b" d="M334.36,53.73a4.63,4.63,0,0,1,.7-.36c4.8-2,11.72,3.76,15.46,12.83s2.9,18-1.91,20a4.27,4.27,0,0,1-.74.24Z"/><path class="c" d="M347.89,86.42c4.22-2.56,4.75-11.1,1.23-19.64s-10-14.23-14.76-13c-4.21,2.58-4.72,11.1-1.21,19.63S343.08,87.59,347.89,86.42Z"/><path class="b" d="M350.42,93.4a4.07,4.07,0,0,1,.79-.11c5.18-.31,9.85,7.37,10.44,17.16s-3.15,18-8.33,18.29h-.78Z"/><path class="c" d="M352.55,128.71c4.82-1,8.11-9,7.56-18.17s-4.78-16.7-9.7-17.13c-4.81,1.07-8.09,9-7.54,18.16S347.64,128.26,352.55,128.71Z"/><path class="b" d="M354.77,136.35a5.29,5.29,0,0,1,.8.05c5.14.69,8.25,9.13,6.93,18.85s-6.55,17-11.69,16.34a5.14,5.14,0,0,1-.76-.16Z"/><path class="c" d="M350.06,171.42c4.94-.1,9.69-7.22,10.93-16.38s-1.48-17.3-6.22-18.68c-4.93.12-9.66,7.23-10.9,16.37S345.33,170,350.06,171.42Z"/><path class="b" d="M317.49,269.73a9.43,9.43,0,0,1,3.59,6.52,9.2,9.2,0,0,0-2-2.13c-5.14-3.86-13.34-1.63-18.3,5a18.22,18.22,0,0,0-3.36,7.6c-.93-3.91.23-8.55,3.05-12.33,4.64-6.16,12.27-8.24,17.06-4.64Z"/><path class="b" d="M321.74,268.34c6.76,5.08,6.31,16-.35,24.87-6.74,8.31-16.3,10.8-23,6.21-6.77-5.08-7.65-15.33-1-24.21l.51-.64c-4.9,7.61-4.46,16.55,1,20.65,5.85,4.4,15.35,1.67,21.19-6.11,5.42-7.21,5.85-16.34,1-21.15Z"/><path class="c" d="M320.65,267.49c6.16,4.63,6.19,15,0,23.17s-16.1,11-22.26,6.41-6.19-15-.06-23.17S314.47,262.86,320.65,267.49Zm-3.09,3.61c-4.47-3.36-11.8-.09-16.12,5.66s-4.82,12.66-.33,16,11.6,1.43,15.92-4.32,5-14,.52-17.34Z"/><path class="b" d="M311,277.7a5.34,5.34,0,0,0,.68.41c4.65,2.32,12-2.92,16.33-11.7s4.16-17.77-.49-20.08a4.55,4.55,0,0,0-.72-.3Z"/><path class="c" d="M326.77,246.05c4,2.85,4,11.41-.16,19.68s-10.94,13.49-15.65,12c-4-2.87-3.93-11.41.18-19.66S322.06,244.54,326.77,246.05Z"/><path class="b" d="M297.15,304.78c4.06,7.42-.85,17.18-10.57,22.51-9.58,4.79-19.3,3.12-23.52-3.83l3.19-1.73c3.53,6.42,12.33,6,20.87,1.31,7.9-4.34,12.07-12.47,9.65-18.85.14.19.26.39.39.59Z"/><path class="c" d="M296.52,303.56c3.7,6.76-.56,16.22-9.52,21.13s-19.22,3.4-22.92-3.36l4.2-2.8c2.69,4.91,10,6.09,16.29,2.63s10.34-10.68,7.65-15.59Z"/><path class="b" d="M292.72,304.3a9.49,9.49,0,0,1,.58,7.42,9.54,9.54,0,0,0-1-2.78c-3.11-5.64-11.49-7-18.72-3a18.07,18.07,0,0,0-6.22,5.53c.76-3.94,3.73-7.69,7.89-10,6.75-3.7,14.56-2.44,17.45,2.82Z"/><path class="b" d="M263.06,323.46c-4.06-7.41-.62-17.12,9.11-22.45l.72-.38c-7.59,4.92-10.88,13.24-7.6,19.23C265.64,321.71,265.37,323.2,263.06,323.46Z"/><path class="c" d="M264.08,321.33c-3.71-6.76.54-16.21,9.51-21.12s19.22-3.41,22.93,3.35l-4.3,2c-2.69-4.91-10.71-4.95-17-1.5s-9.61,9.55-6.92,14.46l-1.43,2.53Z"/><path class="b" d="M297.15,304.78c4.06,7.42-.85,17.18-10.57,22.51-9.58,4.79-19.3,3.12-23.52-3.83l3.19-1.73c3.53,6.42,12.33,6,20.87,1.31,7.9-4.34,12.07-12.47,9.65-18.85.14.19.26.39.39.59Z"/><path class="c" d="M296.52,303.56c3.7,6.76-.56,16.22-9.52,21.13s-19.22,3.4-22.92-3.36l4.2-2.8c2.69,4.91,10,6.09,16.29,2.63s10.34-10.68,7.65-15.59Z"/><path class="b" d="M286.49,311.62a4.23,4.23,0,0,0,.56.56c4,3.36,12.32,0,18.66-7.45S314,288.47,310,285.11a4.25,4.25,0,0,0-.63-.46Z"/><path class="c" d="M309.4,284.67c3.24,3.73,1.11,12-4.87,19.07s-13.85,10.48-18,7.87c-3.2-3.74-1.09-12,4.89-19.05S305.21,282.08,309.4,284.67Z"/><path class="b" d="M220.81,307.76c-4.06,7.42.85,17.18,10.58,22.51,9.57,4.79,19.3,3.12,23.5-3.83l-3.19-1.73c-3.53,6.42-12.33,6-20.86,1.31-7.91-4.34-12.08-12.47-9.65-18.85C221.06,307.36,220.92,307.56,220.81,307.76Z"/><path class="c" d="M221.45,306.54c-3.71,6.76.55,16.22,9.51,21.13s19.21,3.4,22.92-3.36l-4.2-2.8c-2.69,4.91-10,6.09-16.29,2.64s-10.34-10.69-7.65-15.6Z"/><path class="b" d="M220.81,307.76c-4.06,7.42.85,17.18,10.58,22.51,9.57,4.79,19.3,3.12,23.5-3.83l-3.19-1.73c-3.53,6.42-12.33,6-20.86,1.31-7.91-4.34-12.08-12.47-9.65-18.85C221.06,307.36,220.92,307.56,220.81,307.76Z"/><path class="c" d="M221.45,306.54c-3.71,6.76.55,16.22,9.51,21.13s19.21,3.4,22.92-3.36l-4.2-2.8c-2.69,4.91-10,6.09-16.29,2.64s-10.34-10.69-7.65-15.6Z"/><path class="a" d="M179.47,276a13,13,0,0,0,10.36-15.19c0-.2-.08-.39-.13-.58A13.87,13.87,0,0,0,179.47,250v-8.95c9.81,0,17.47,9.8,17.47,21.73s-8.08,21.74-17.47,21.74Z"/><path class="b" d="M200.25,269.73a9.49,9.49,0,0,0-3.58,6.52,9.41,9.41,0,0,1,2-2.13c5.15-3.86,13.34-1.63,18.3,5a18.27,18.27,0,0,1,3.39,7.6c.92-3.91-.23-8.55-3.08-12.33-4.61-6.16-12.25-8.24-17.06-4.64Z"/><path class="b" d="M196,268.34c-6.77,5.08-6.32,16,.34,24.87,6.74,8.31,16.3,10.8,23,6.21,6.76-5.08,7.63-15.33,1-24.21l-.5-.64c4.88,7.61,4.44,16.55-1,20.65-5.86,4.4-15.35,1.67-21.19-6.11-5.41-7.21-5.85-16.34-1-21.15Z"/><path class="c" d="M197.11,267.49c-6.17,4.63-6.19,15-.05,23.17s16.1,11,22.25,6.41,6.19-15,.06-23.17S203.28,262.86,197.11,267.49Zm3.08,3.61c4.48-3.36,11.81-.09,16.12,5.66s4.81,12.66.34,16-11.61,1.43-15.93-4.32-5-14-.53-17.34Z"/><path class="b" d="M205.67,277.7a4.43,4.43,0,0,1-.7.41c-4.64,2.32-12-2.92-16.33-11.7s-4.14-17.77.5-20.08a4.55,4.55,0,0,1,.72-.3Z"/><path class="c" d="M189.86,246.05c-4,2.85-4,11.41.16,19.68s10.94,13.49,15.64,12c4-2.87,3.92-11.41-.18-19.66S194.56,244.54,189.86,246.05Z"/><path class="b" d="M231.26,311.62a4.23,4.23,0,0,1-.56.56c-4,3.36-12.31,0-18.66-7.45s-8.29-16.26-4.33-19.62a5.64,5.64,0,0,1,.63-.46Z"/><path class="c" d="M208.34,284.67c-3.23,3.73-1.11,12,4.87,19.07s13.85,10.48,18,7.87c3.2-3.74,1.08-12-4.88-19.05S212.54,282.08,208.34,284.67Z"/><path class="a" d="M179.47,276a13,13,0,0,1-10.35-15.19c0-.2.08-.39.13-.58A13.87,13.87,0,0,1,179.47,250l2-4.41-2-4.54c-9.8,0-17.47,9.8-17.47,21.73s8.09,21.74,17.47,21.74l2-4.37Z"/><path class="d" d="M212.54,375.61,191.11,371l-11.55-69,13.37-18.83Z"/><path class="e" d="M179.56,302l-2.82-18,.85-14.92,15.34,14.06Z"/><path class="f" d="M177.17,391l-.86-1.35.86-1.21,11.13-10.68L203.6,371l9,4.68Z"/><path class="g" d="M177.17,388.4l-9-20,9.42-84.4,4,15.2L199,370.27Z"/><path class="h" d="M173.26,303l4.33-19V269.07L161.4,283.13Z"/><path class="i" d="M141.79,375.61,163.23,371l11.55-69L161.4,283.13Z"/><path class="j" d="M177.17,391v-2.6L164.5,377l-13.75-6.06-9,4.68Z"/><path class="h" d="M197.2,370.07l-20,18.33,26.44-17.47-26-86.94Z"/><path class="g" d="M177.17,388.4l9.83-20L177.59,284l-4,15.2L155.9,370.08Z"/><path class="e" d="M158,370.07l19.17,18.33-25.56-17.47,26-86.94Z"/><path class="c" d="M197.61,292.78c.42,1.65-1.33,5.75-1.69,4.26l-.86-3.41c-1-3.92-9.64-5.54-17.74-5.54s-16.91,1.62-17.9,5.54l-.85,3.41c-.44,1.75-2.35-2.52-2.13-4.26.24-1.9,2.18-3.33,3.84-4.27a34.72,34.72,0,0,1,17-4.26c6,0,12.13,1,17.05,4.26A7.31,7.31,0,0,1,197.61,292.78Z"/><path class="c" d="M199.5,300c.36,1.66-1.78,6.46-2.14,4.69l-.86-4.26c-.89-4.5-10.64-6.4-19.6-6.4s-18.24,1.9-19.14,6.4l-.85,4.26c-.36,1.77-2.5-3-2.13-4.69a8.38,8.38,0,0,1,3.83-5.11c5.46-3.54,11.47-4.9,17.86-5.12a30.78,30.78,0,0,1,18.33,5.12C196.87,296.29,199,297.78,199.5,300Z"/><path class="c" d="M201.19,308.12c.39,2.09-1.77,7.64-2.13,5.54l-.85-5.12c-.89-5.31-11.51-7.67-21.31-7.67s-19.47,2.48-20.78,7.71l-1.28,5.11c-.51,2.07-2.55-3.45-2.13-5.54a9.92,9.92,0,0,1,4.26-6,32.79,32.79,0,0,1,19.08-5.58,38.31,38.31,0,0,1,20.45,5.54C198.61,303.48,200.72,305.47,201.19,308.12Z"/><path class="c" d="M203.33,317.49c.42,2.53-1.61,9.25-2.14,6.82l-1.27-6c-1.34-6.2-12.78-9-23-9s-21.33,2.92-22.83,9l-1.47,6c-.6,2.42-2.76-4.34-2.13-6.82.69-2.77,2.93-5.18,5.11-6.81,6.34-4.76,13.64-6.61,21.31-6.82a34.49,34.49,0,0,1,21.73,6.82C200.83,312.31,202.89,314.84,203.33,317.49Z"/><path class="c" d="M206.31,329c.63,2.92-2.14,8.1-2.14,8.1l-1.7-7.25c-1.72-7.35-14.05-10.65-25.57-10.65s-24,3.1-25.41,10.65l-1.44,7.67s-2.67-5.59-2.13-8.09a15.39,15.39,0,0,1,5.54-8.53c6.8-5.56,14.92-7.88,23.44-8.09a35.8,35.8,0,0,1,23.44,8.09C203.18,323.23,205.62,325.83,206.31,329Z"/><path class="a" d="M258.72,397a13,13,0,0,0,10.4-15.16,5.78,5.78,0,0,0-.12-.57A13.86,13.86,0,0,0,258.72,371v-9c9.8,0,17.49,9.8,17.49,21.74s-8.1,21.73-17.49,21.73Z"/><path class="d" d="M291.8,496.66l-21.44-4.6L258.83,423l13.36-18.83Z"/><path class="e" d="M258.83,423,256,405l.86-14.92,15.35,14.07Z"/><path class="f" d="M256.43,512l-.87-1.35.87-1.21,11.12-10.67,15.29-6.8,9,4.69Z"/><path class="g" d="M256.43,509.44l-9-20,9.4-84.43,4,15.21,17.42,71.08Z"/><path class="h" d="M252.51,424l4.33-19V390.11l-16.19,14.07Z"/><path class="i" d="M221,496.66l21.44-4.6L254,423l-13.36-18.83Z"/><path class="j" d="M256.43,512v-2.56L243.75,498,230,492l-9,4.69Z"/><path class="h" d="M276.46,491.12l-20,18.32L282.84,492l-26-86.94Z"/><path class="g" d="M256.43,509.44l9.82-20L256.84,405l-4,15.21-17.69,70.88Z"/><path class="e" d="M237.25,491.12l19.18,18.32L230.86,492l26-86.94Z"/><path class="c" d="M276.87,413.82c.41,1.65-1.34,5.75-1.7,4.26l-.86-3.41c-1-3.92-9.64-5.54-17.73-5.54s-16.92,1.62-17.9,5.54l-.86,3.41c-.43,1.75-2.34-2.52-2.13-4.26s2.18-3.33,3.84-4.26a34.72,34.72,0,0,1,17-4.26c6,0,12.12,1,17,4.26A7.36,7.36,0,0,1,276.87,413.82Z"/><path class="c" d="M278.74,421.06c.37,1.67-1.78,6.47-2.13,4.69l-.86-4.26c-.89-4.5-10.64-6.39-19.6-6.39S237.92,417,237,421.49l-.85,4.26c-.35,1.78-2.5-3-2.13-4.69a8.48,8.48,0,0,1,3.83-5.11c5.47-3.53,11.47-4.9,17.86-5.11A30.69,30.69,0,0,1,274.05,416C276.12,417.33,278.24,418.82,278.74,421.06Z"/><path class="c" d="M280.44,429.16c.39,2.1-1.77,7.64-2.13,5.54l-.85-5.11c-.89-5.32-11.51-7.67-21.31-7.67s-19.47,2.47-20.78,7.7l-1.27,5.12c-.52,2.06-2.55-3.46-2.14-5.55a9.88,9.88,0,0,1,4.27-6,32.76,32.76,0,0,1,19.07-5.58,38.33,38.33,0,0,1,20.45,5.54C277.86,424.52,280,426.51,280.44,429.16Z"/><path class="c" d="M282.58,438.54c.42,2.52-1.61,9.25-2.14,6.82l-1.27-6c-1.33-6.2-12.78-8.95-23-8.95s-21.33,2.93-22.81,8.95l-1.48,6c-.6,2.41-2.75-4.34-2.13-6.82.69-2.78,2.92-5.18,5.11-6.82,6.33-4.76,13.64-6.61,21.31-6.82a34.63,34.63,0,0,1,21.73,6.82C280.08,433.36,282.14,435.88,282.58,438.54Z"/><path class="c" d="M285.56,450c.62,2.92-2.13,8.1-2.13,8.1l-1.71-7.24c-1.73-7.35-14.05-10.66-25.57-10.66s-24,3.11-25.4,10.66l-1.44,7.67s-2.67-5.6-2.14-8.1a15.28,15.28,0,0,1,5.54-8.52c6.8-5.57,14.92-7.89,23.44-8.1a35.76,35.76,0,0,1,23.44,8.1C282.43,444.27,284.89,446.87,285.56,450Z"/><path class="a" d="M337.15,276a13,13,0,0,1-10.36-15.19c0-.2.08-.39.13-.58A13.87,13.87,0,0,1,337.15,250v-8.95c-9.8,0-17.47,9.8-17.47,21.73s8.1,21.74,17.47,21.74Z"/><path class="d" d="M370.21,375.61,348.77,371l-11.53-69,13.37-18.83Z"/><path class="e" d="M337.24,302l-2.82-18,.85-14.92,15.34,14.06Z"/><path class="f" d="M334.84,391l-.87-1.35.87-1.21L346,377.72l15.3-6.79,8.95,4.68Z"/><path class="g" d="M334.84,388.4l-9-20,9.43-84.4,4,15.2,17.42,71.08Z"/><path class="h" d="M330.93,303l4.33-19V269.07l-16.19,14.06Z"/><path class="i" d="M299.46,375.61,320.9,371l11.54-69-13.36-18.83Z"/><path class="j" d="M334.84,391v-2.6L322.17,377l-13.75-6.06-9,4.68Z"/><path class="h" d="M354.87,370.07l-20,18.33,26.43-17.47L335.3,284Z"/><path class="g" d="M334.84,388.4l9.83-20-9.4-84.4-4,15.2-17.69,70.88Z"/><path class="e" d="M315.67,370.07l19.17,18.33-25.57-17.47,26-86.94Z"/><path class="c" d="M355.3,292.78c.41,1.65-1.34,5.75-1.71,4.26l-.85-3.41c-1-3.92-9.65-5.54-17.74-5.54s-16.92,1.62-17.89,5.54l-.86,3.41c-.44,1.75-2.35-2.52-2.13-4.26.24-1.9,2.18-3.33,3.84-4.27a34.62,34.62,0,0,1,17-4.26c6,0,12.12,1,17,4.26A7.42,7.42,0,0,1,355.3,292.78Z"/><path class="c" d="M357.17,300c.36,1.66-1.78,6.46-2.14,4.69l-.85-4.26c-.9-4.5-10.65-6.4-19.6-6.4s-18.24,1.9-19.15,6.4l-.85,4.26c-.36,1.77-2.5-3-2.13-4.69a8.42,8.42,0,0,1,3.83-5.11c5.46-3.54,11.47-4.9,17.86-5.12a30.78,30.78,0,0,1,18.33,5.12C354.55,296.29,356.67,297.78,357.17,300Z"/><path class="c" d="M358.86,308.12c.38,2.09-1.78,7.64-2.13,5.54l-.85-5.12c-.89-5.31-11.51-7.67-21.31-7.67s-19.47,2.48-20.78,7.71l-1.28,5.11c-.51,2.07-2.54-3.45-2.13-5.54a9.88,9.88,0,0,1,4.27-6,32.61,32.61,0,0,1,19.07-5.58,38.31,38.31,0,0,1,20.45,5.54C356.27,303.48,358.39,305.47,358.86,308.12Z"/><path class="c" d="M361,317.49c.43,2.53-1.6,9.25-2.13,6.82l-1.28-6c-1.32-6.2-12.78-9-23-9s-21.32,2.92-22.81,9l-1.48,6c-.6,2.42-2.75-4.34-2.13-6.82.69-2.77,2.93-5.18,5.11-6.81,6.34-4.76,13.64-6.61,21.31-6.82a34.49,34.49,0,0,1,21.73,6.82C358.49,312.31,360.55,314.84,361,317.49Z"/><path class="c" d="M364,329c.62,2.92-2.14,8.1-2.14,8.1l-1.7-7.25c-1.73-7.35-14.06-10.65-25.57-10.65s-24,3.1-25.41,10.65l-1.44,7.67s-2.67-5.59-2.13-8.09a15.39,15.39,0,0,1,5.54-8.53c6.8-5.56,14.92-7.88,23.44-8.09A35.74,35.74,0,0,1,358,320.9C360.86,323.23,363.3,325.83,364,329Z"/></svg>