<svg xmlns="http://www.w3.org/2000/svg" viewBox="0 0 512 512"><defs><style>.a{fill:#dd8b52;}.b{fill:#4f1b0d;}.c{fill:#501704;}.d{fill:#eab453;}.e{fill:#481a04;}.f{fill:#531e05;}.g{fill:#cc5d52;}.h{fill:#3d0909;}.i{fill:#7f2e2e;}.j{fill:#db5858;}.k{fill:#34bde8;}.l{fill:#f8fafc;}</style></defs><title>Artboard 154</title><path class="a" d="M455.64,35.88a41,41,0,0,0,11,27.52,39.83,39.83,0,0,0,24.47,12.85h2.45l9.18,10.4c35.48,38.54-34.26,159.06-155.4,269.18h0C226.22,465.34,99.58,522.85,64.1,484.3l-9.17-9.79v-2.44a40.79,40.79,0,0,0-11-25.7,43.94,43.94,0,0,0-26.31-13.46L9,423.74l131.52-119.3a313.76,313.76,0,0,0-44,71c42.22-12.23,105.84-52.61,168.86-109.5h0c63-56.89,108.89-116.24,125.41-157.23-26.31,9.18-52,21.41-74.64,36.71L447.07,26.7Z"/><path class="b" d="M493.58,76.14l9.17,10.42c35.49,38.62-34.26,159.37-155.39,269.7h0C226.23,466,99.59,523.59,64.11,485l-9.17-10.42v-2.46c43.43,25.75,161.5-31.87,275.29-134.85h0c113.18-103,181.09-215.75,160.29-261.11Z"/><path class="c" d="M390.79,109.28c-16.52,41-62.41,100.34-125.41,157.23S138.74,363.78,96.52,376.63a313.38,313.38,0,0,1,44.05-71L9,424.35l15.9,17.13C60.43,480,186.46,422.51,308.2,313S498.46,83,463,44.43L447.07,27.31,315.54,146.6A332.69,332.69,0,0,1,390.79,109.28Z"/><path class="a" d="M164.43,155.17C43.31,264.68-25.82,385.19,9,424.35c35.48,38.54,161.5-19,283.25-128.47S482.56,66.46,447.07,27.31C412.2-11.84,285.57,45.66,164.43,155.17Zm101,111.34C202.43,323.4,138.79,363.78,96.57,376,113,335,158.93,275.69,221.94,218.79s126.63-97.27,168.85-109.51C374.27,149.66,328.38,209,265.38,266.51Z"/><path class="c" d="M392,64.62c7.95,8.57,6.73,24.47-1.22,44.66h0C348.57,121.52,285,161.9,221.94,218.79S113,335,96.52,376h0c-20.8,6.11-36.7,5.5-44.65-3.06C28,346.62,84.86,256.7,178.5,171S368.15,38.33,392,64.62Z"/><path class="d" d="M431.17,106.22c0,.62,9.78,23.25,9.78,23.86-5.5,9.79-17.74,39.16-6.11,48.95-8.57,13.46-28.15,73.41-32.43,89.93a180.49,180.49,0,0,1-55.06,88.7,176,176,0,0,1-93.59,45.89c-17.14,2.44-78.31,15.9-92.39,23.86-8.56-12.85-38.54-3.06-48.94,1.22V428c-4.28-2.45-17.13-8.57-22-11.63L102,406c15.91-15.9,37.32-48.33,37.32-62.4.61-17.74,0-33,.61-39.15a154.61,154.61,0,0,1,3.67-23.24,175.79,175.79,0,0,1,53.84-88.71A178.11,178.11,0,0,1,291,146.6a104.1,104.1,0,0,1,23.85-1.22c6.12,0,21.42,1.83,38.55,3.67,14.07,1.22,48.33-16.52,66.07-31.2Z"/><path class="e" d="M450.13,139.87h0c-4.89,10.4-17.13,39.16-5.5,49.56-8.57,13.46-28.15,73.41-32.43,89.93a181.11,181.11,0,0,1-54.45,88.7A175.87,175.87,0,0,1,264.16,414c-17.13,2.44-78.31,15.9-93,23.86-8.56-12.85-38.54-3.06-48.94,1.22a.6.6,0,0,0-.59-.61h0c-8-4.28-23.25-16.52-31.2-22,14.07-1.83,58.12-44,58.12-62.4.61-17.74,0-33,.61-39.15a152.1,152.1,0,0,1,3.67-23.24C162,257.41,181,226.21,207.89,203a175.92,175.92,0,0,1,93.61-46,104.1,104.1,0,0,1,23.85-1.22c6.11,0,21.41,1.84,38.54,3.67,19,1.22,64.85-37.93,67.91-52,3.67,7.34,14.68,23.86,18.35,32.42Z"/><path class="f" d="M450.13,139.87h0c-4.89,10.4-17.13,39.16-5.5,49.56-8.57,13.46-28.15,73.41-32.43,89.93a181.11,181.11,0,0,1-54.45,88.7A175.87,175.87,0,0,1,264.16,414c-17.13,2.44-78.31,15.9-93,23.86-8.56-12.85-38.54-3.06-48.94,1.22a.6.6,0,0,0-.59-.61h0c-8-4.28-23.25-16.52-31.2-22,14.07-1.83,58.12-44,58.12-62.4.61-17.74,0-33,.61-39.15a152.1,152.1,0,0,1,3.67-23.24C162,257.41,181,226.21,207.89,203a175.92,175.92,0,0,1,93.61-46,104.1,104.1,0,0,1,23.85-1.22c6.11,0,21.41,1.84,38.54,3.67,19,1.22,64.85-37.93,67.91-52,3.67,7.34,14.68,23.86,18.35,32.42Z"/><path class="g" d="M344.9,354a157.46,157.46,0,0,1-80.74,39.77c-27.53,4.89-55.07,11-81.37,19.58-12.85-8.57-34.88-2.45-45.89,1.83a69.58,69.58,0,0,1-6.73-3.67c15.3-13.46,37.93-47.72,38.55-64.85V311.17c.61-6.73,1.22-13.45,3-19.57a158.67,158.67,0,0,1,47.11-76.48,152.54,152.54,0,0,1,81.37-39.76c6.73-1.23,13.46-1.23,19.57-1.23,2.45,0,6.73.62,12.23,1.23,6.73.61,14.69,1.22,23.25,1.83,17.13,1.23,53.23-18.35,67.91-32.42,1.23,2.44,1.84,4.89,3.06,7.34-4.89,10.4-13.46,31.81-6.12,45.27a580.06,580.06,0,0,0-27.53,79.54A154.23,154.23,0,0,1,344.9,354Z"/><path class="h" d="M214,347.26c-28.14-30.59-20.19-83.8,17.74-118.06S322.9,191.88,351,223.08s20.19,83.8-17.74,118.06S242.13,378.46,214,347.26Z"/><path class="i" d="M214,347.26c-28.14-30.59-20.19-83.8,17.74-118.06S322.9,191.88,351,223.08s20.19,83.8-17.74,118.06S242.13,378.46,214,347.26Z"/><path class="j" d="M294.75,239l-14.08-35.5a108.1,108.1,0,0,0-48.94,25.7l30.59,30Z"/><path class="k" d="M228.67,344.81c-22-23.86-12.85-67.28,20.19-97.26s77.08-34.26,99.1-10.4,12.85,67.9-20.19,97.26S250.08,369.29,228.67,344.81Z"/><path class="l" d="M261.1,269.57C289.85,243.27,329,239,348,260.4a45,45,0,0,1,8,12.84c1.23-11.62-3.05-22.63-10.4-31.81-19-21.41-58.11-17.13-86.86,9.18-23.86,21.41-33,51.38-25.08,72.79C234.79,303.21,245.19,283.64,261.1,269.57Z"/><path class="d" d="M411.56,187.17A584.89,584.89,0,0,0,384,267.07a159.26,159.26,0,0,1-47.21,76.81,157.74,157.74,0,0,1-80.91,39.94,638.89,638.89,0,0,0-82.15,20.29c-9.2-6.15-23.3-4.31-34.33-1.85-3.07,3.69-6.13,6.76-9.2,9.84a63.85,63.85,0,0,1,6.75,3.68c11-4.3,33.1-10.45,46-1.84a542.08,542.08,0,0,1,81.53-19.67,157.39,157.39,0,0,0,80.92-39.94,159.39,159.39,0,0,0,47.2-76.82,617.4,617.4,0,0,1,27.59-79.89c-7.36-13.52,1.23-35,6.13-45.48-1.22-2.46-1.84-4.91-3.06-7.37-3.68,3.07-6.75,5.53-10.43,8.6-3.67,10.45-6.13,24-1.22,33.8Z"/></svg>