<svg xmlns="http://www.w3.org/2000/svg" xmlns:xlink="http://www.w3.org/1999/xlink" viewBox="0 0 512 512"><defs><style>.a{fill:none;}.b{fill:#c5aad8;}.c{fill:#ac85c6;}.d{fill:#3f3333;}.e{fill:#84626a;}.f{fill:#342f30;}.g{fill:#af74d7;}.h{clip-path:url(#a);}.i{fill:#b09099;}.j{fill:#795961;}.k{fill:#6c4f56;}</style><clipPath id="a"><polygon class="a" points="113.34 373.25 7.07 476.15 35.59 503.95 139.4 397.38 113.34 373.25"/></clipPath></defs><title>glacia</title><path class="b" d="M512,0,297.38,202.2,121.11,390.9l47.11,3.68c18-10.51,49.3-9.2,41.68-42.56-16.55-1.31-21.62-7.27-6.65-21.19,16.37-12.52,20.66,1.93,19.79,28,21-39.23,32.05-52.36,35.55-53.24,4.64-1.31,1.75,35.2-14.45,62.26,26.88-23.2,51.58-49.12,70.49-82.4-48.34,21-18.65-46.14,5.34-10.42C328,185.56,411,140,478.2,85.13,492.56,62.36,503.94,34.34,512,0Z"/><path class="c" d="M512,0,121.11,390.9l-3.76-47.2c10.59-17.95,9.28-49.21,42.64-41.59,1.23,16.46,7.18,21.54,21.11,6.57,12.52-16.38-1.93-20.67-28-19.79,39.23-21,52.37-32.05,53.24-35.55,1.32-4.64-35.11-1.67-62.25,14.45,23.29-26.8,49.21-51.49,82.39-70.49-21,48.33,46.15,18.65,10.42-5.34,89.49-8.06,135-91.07,189.93-158.23C449.65,19.45,477.67,8.07,512,0Z"/><polygon class="d" points="113.34 373.25 7.07 476.15 35.59 503.95 139.4 397.38 113.34 373.25"/><path class="e" d="M18.44,511.6A22.68,22.68,0,1,1,45,493.48,22.69,22.69,0,0,1,18.44,511.6Z"/><path class="f" d="M20.37,501.37a12.31,12.31,0,1,1,14.38-9.81,12.32,12.32,0,0,1-14.38,9.81Z"/><path class="g" d="M20.91,498.54a9.43,9.43,0,1,1,11-7.52,9.51,9.51,0,0,1-11,7.52Z"/><g class="h"><path class="e" d="M64.41,463.58A22.68,22.68,0,1,1,91,445.47a22.7,22.7,0,0,1-26.54,18.11Z"/><path class="d" d="M60.76,467.24A22.68,22.68,0,1,1,87.3,449.13a22.7,22.7,0,0,1-26.54,18.11Z"/></g><path class="e" d="M119.92,393.58l-16,21.61c4.87,13.23,4.24,43.79,1.57,56.08,24.85,2.35,49.34,7.38,77.85-19.78-22.29,4.71-39.76-20.29-23-31.18-13.55,8.84-26.94-17.42-40.44-26.73Z"/><path class="i" d="M183.38,451.49c-21,3.4-38.66-18.25-23-31.18l-10,.89c-16.85,47.51,13.13,40,33,30.29Z"/><path class="j" d="M104,415.19l37.25,4.71c14,1.56,41.23,15.59,51,23.43,13.18-21.24,28.56-41,16.74-78.58-5.65,22.08-35.73,26.74-38.14,6.86L167.16,381c-5.91,15.54-38.19,2.83-34.89-1.2Z"/><path class="i" d="M208.91,364.75c-6.23,20.36-33.43,26.63-38.19,6.91L167.16,381c35.1,36.15,41.7,5.91,41.75-16.22Z"/><path class="e" d="M118.4,392.06,96.8,408c-13.24-4.87-43.79-4.24-56-1.52-2.4-24.9-7.42-49.38,19.73-77.9-4.71,22.29,20.3,39.76,31.18,23-8.84,13.55,17.42,26.95,26.73,40.44Z"/><path class="i" d="M60.49,328.6c-3.35,21,18.26,38.67,31.18,23l-.89,10c-47.5,16.84-40-13.14-30.29-33Z"/><path class="j" d="M96.8,408l-4.71-37.25c-1.57-14-15.59-41.22-23.44-51,21.24-13.18,41.07-28.51,78.58-16.74-22.08,5.65-26.68,35.79-6.86,38.14l-9.26,3.51c-15.53,5.8-2.93,38.29,1.16,35Z"/><path class="i" d="M147.23,303.07c-20.35,6.23-26.58,33.49-6.91,38.19L131,344.82c-36.15-35.1-5.91-41.69,16.22-41.75Z"/><path class="k" d="M104,415.19A12.37,12.37,0,0,0,96.8,408l26.62-46.72c4.14,15.64,13.45,25.37,29.77,27.36Z"/></svg>