<svg xmlns="http://www.w3.org/2000/svg" xmlns:xlink="http://www.w3.org/1999/xlink" viewBox="0 0 512 512"><defs><style>.a{fill:none;}.b{fill:#e3dfbf;}.c{fill:#4e562a;}.d{fill:#c2c4c0;}.e{fill:#b9bab6;}.f{fill:#485026;}.g{fill:#5e4237;}.h{clip-path:url(#a);}.i{fill:#442216;}.j{fill:#817f37;}.k{fill:#b7b24c;}</style><clipPath id="a"><path class="a" d="M34.55,451.17a20.75,20.75,0,0,0,26.52,27.89l68-73.84-22.67-18.91Z"/></clipPath></defs><title>terran</title><polygon class="b" points="175.44 400.72 222.28 439.47 206.71 381.21 175.44 400.72"/><polygon class="c" points="163.75 384.1 210.59 422.85 195.02 364.59 163.75 384.1"/><polygon class="b" points="120.45 372.85 75.85 337.49 131.79 341.27 120.45 372.85"/><polygon class="c" points="137.88 380.46 93.28 345.1 149.22 348.88 137.88 380.46"/><path class="b" d="M110,335.86,70.34,287.53l58.25,15.57Z"/><polygon class="c" points="125.71 346.06 86.96 299.22 145.22 314.79 125.71 346.06"/><path class="b" d="M108.52,388.71,39,360.88l70.35-.33Q109,374.64,108.52,388.71Z"/><path class="c" d="M108.7,382.79,66.16,365.85,111,368.49Q109.83,375.65,108.7,382.79Z"/><polygon class="b" points="139.53 390.62 174.89 435.21 171.11 379.28 139.53 390.62"/><polygon class="c" points="131.93 373.19 167.29 417.78 163.51 361.85 131.93 373.19"/><polygon class="b" points="121.12 400 148.96 469.5 149.29 401.34 121.12 400"/><path class="c" d="M131.29,410.56l12.7,31.8-2.18-36.51Z"/><polygon class="b" points="176.58 314.61 171.7 263.36 149.11 307.17 176.58 314.61"/><polygon class="b" points="197.03 334.89 248.36 339.85 204.47 362.53 197.03 334.89"/><path class="d" d="M511.68,0C498.13,84.5,336.31,183.74,373.24,235c-44.27-5-45.41,13.38-35.68,37.66-36.81-10.5-53.38,17.16-65,54.39-11.25-38.76-31.83-27.05-40.3-9.22-6.89,15-7.31,32,28.77,38.73-12.5,7.83-23.31,17.15-52,12.36-5.44-15-11.15-29.5-31.6-6.1l-14.78-14.78Z"/><path class="e" d="M511.68,0C427.05,13.42,327.81,175.24,276.54,138.32c5,44.26-13.26,45.53-37.65,35.68,10.5,36.8-17.17,53.38-54.39,65,38.75,11.26,27.05,31.83,9.21,40.3-15,6.9-31.82,7.44-38.73-28.77-7.82,12.51-17.15,23.31-12.35,52,15.13,5.56,29.49,11.16,6.21,31.72L163.63,349Z"/><path class="c" d="M40.45,503.79l16.69-21L30.7,454.5l-22.16,16c-1.8,24.22,7.53,36.79,31.83,33.2Z"/><path class="f" d="M8.54,470.5l22.16-16,10.35,18.91L15,498.05C9.65,492.32,7.68,483,8.54,470.5Z"/><path class="b" d="M.32,475.81C.15,493.43,13.84,511.91,34.46,512L39,508.83l1.45-5c-16.94.51-29.26-11.47-31.91-33.29L4,471.27Z"/><path class="b" d="M27.7,455.62C26,470.5,34.89,486.76,56.11,485.9l3.76-2.73,1.2-4.11c-15.06,1-25.75-8.81-26.52-27.89l-3.77.68Z"/><path class="g" d="M34.55,451.17a20.75,20.75,0,0,0,26.52,27.89l68-73.84-22.67-18.91Z"/><g class="h"><path class="i" d="M28.43,451.32,31.38,469c.05,2.21,1.39,3.17,3,4.8l16.78,17.57,59.94-29-24-41.82L30.55,447.09c-2.74.93-2.6,1.33-2.09,4.28Z"/><path class="g" d="M47.71,438.7,49.88,459c.08,3.12.49,2.92,3.41,3.31L75,465.15l44.93-44.54-28-28.35L52.22,430.88c-3.18,2.77-4.93,3.82-4.48,7.83Z"/><path class="i" d="M66.43,421.29,67,442.8c-.11,2.53-.06,2.61,2.28,3.11l20.08,4.16c1.7.61,2.13.44,3.45-.64l47-39.86L114,379.38,69.1,416.74c-2.3,1.55-2.81,2.13-2.73,4.7Z"/><path class="g" d="M84.83,403.39l.61,21.51c-.11,2.53-.06,2.61,2.28,3.11l20.08,4.16c1.71.61,2.14.44,3.46-.64l47-39.86-25.77-30.19L87.5,398.84c-2.29,1.55-2.81,2.13-2.73,4.7Z"/></g><path class="j" d="M103.83,410.16l70.89-13.32,37.3-21.9c.74-2.52,5.33-5.92,4.51-9.25-5.4-23.9-48.61-64.3-70.07-73.33-5.63-2.37-11.69,3.7-13.69,5.7l-18.65,37.88Z"/><path class="k" d="M124.92,339c.22,1.26,1.33,2.37,1.48,3.41s-.6,2.07-.67,3a1.69,1.69,0,0,0,2.07,1.63,5.07,5.07,0,0,0,3.48-3.63,6.68,6.68,0,0,0-1.48-5.32c-1.11-1.41-2.37-2.22-3.4-1.93a2.39,2.39,0,0,0-1.41,2.89Zm12.43-1.92a3.72,3.72,0,0,0,.44-2.81,4.09,4.09,0,0,0-3.25-2.52,6.44,6.44,0,0,0-4.37.37c-1,.52-.59,1.33.22,1.7s2.15.23,3.11.74a8.79,8.79,0,0,1,1.85,2.3,2.47,2.47,0,0,0,1.41.66c.29,0,.29,0,.66-.51Zm8.14-.15c.07-.66.29-2.07-.45-2.81a2.07,2.07,0,0,0-3.1.59A6.81,6.81,0,0,0,142,340a3.21,3.21,0,0,0,4.22,1.7,9,9,0,0,0,4.88-4.74,8.26,8.26,0,0,0-1-6.58,10.56,10.56,0,0,0-4.74-4.44,7.53,7.53,0,0,0-5.25.22c-1.48.59-2.52,1.48-2.59,2.14s.67,1,2.22,1,3.7-.3,5.18.59a5.48,5.48,0,0,1,2.29,4.52,4.11,4.11,0,0,1-1,3.18c-.52.52-.66.37-.81.22s-.15-.15,0-.89Zm-4.37-22.72c-2.3,1.55-4.44,1.92-5.85,2.59s-2.07,1.63-1.92,2.51a2.84,2.84,0,0,0,2.81,2.22,10.7,10.7,0,0,0,5.77-1.18c1.7-1,2.74-2.44,4.22-3.92s3.25-3,3.92-4.37a3.74,3.74,0,0,0-.22-3.62c-.59-.74-1.26-1-2.74.37-1.48,1.18-3.77,3.92-6,5.4Z"/><path class="k" d="M117.38,396.62l60.38-61.71s-3.85-10.22-7.62-9.11c-3.56.89.59,7.85-1.41,10.88-.89,1.33-2.52,2.81-4.07,2.44-2.22-.74-1.11-5.25-3.26-6.21a2.18,2.18,0,0,0-2.44.66c-1.11,1.71,1.26,4.07.74,6.07a23,23,0,0,1-9.32,12.73c-2,1.26-4.66,1.26-7.1,1.48s-2.52-4-4.3-5.33c-2.14-1.7-5.18,3.11-4.51,6,1.33,5.77,6.88,5.25,9.92,4.44,2.36-.74,2.29.51,2.07,1.77-.3,1.63-3.48,3.33-6.59,6.73l-23.75,27.9c-1.41,1.41-.82,3.48,1.26,1.26Z"/><path class="k" d="M173.33,386.12c-1.26-.08-2.45-1.11-3.56-1.33s-2,.66-3,.74a1.63,1.63,0,0,1-1.7-2,5.42,5.42,0,0,1,3.4-3.55,6.9,6.9,0,0,1,5.48,1.33c1.48,1,2.29,2.29,2,3.33a2.37,2.37,0,0,1-2.74,1.55Zm1.55-12.51a3.56,3.56,0,0,1,2.74-.51,4.58,4.58,0,0,1,2.66,3.25,5.64,5.64,0,0,1-.22,4.37c-.45.89-1.33.74-1.7-.08s-.3-2.22-.89-3.1-1.63-1.34-2.3-1.85a2.45,2.45,0,0,1-.74-1.34c-.07-.22-.07-.22.45-.59Zm-.15-8.14c.67-.07,2.07-.29,2.89.37a2,2,0,0,1-.52,3,6.47,6.47,0,0,1-5.26.22,3.42,3.42,0,0,1-1.85-4.22,9.05,9.05,0,0,1,4.67-5,8,8,0,0,1,6.58.82,9.56,9.56,0,0,1,4.52,4.51,7.19,7.19,0,0,1-.08,5.26c-.52,1.55-1.33,2.51-1.92,2.66s-1.11-.67-1.19-2.07.15-3.85-.81-5.26a5.34,5.34,0,0,0-4.51-2.14,4.53,4.53,0,0,0-3.26,1,.64.64,0,0,0-.15.89c.15.15.15.15.82.08Zm22.8,3.86c-1.48,2.22-1.78,4.44-2.3,5.84s-1.55,2.3-2.59,2-1.92-1-2.29-2.74a9.49,9.49,0,0,1,1-5.69c.82-1.85,2.3-3,3.78-4.37s2.88-3.33,4.29-4.14a3.79,3.79,0,0,1,3.55.14c.81.52,1,1.26-.15,2.82s-3.85,4-5.33,6.21Z"/><path class="k" d="M116.19,395.29l59.64-62.16s10.36,3.55,9.4,7.33c-.89,3.55-7.92-.37-10.95,1.77-1.33.89-2.74,2.59-2.22,4.15.67,2.14,5.18.88,6.22,3a2.05,2.05,0,0,1-.6,2.51c-1.62,1.19-4.07-1.11-6-.52a22.71,22.71,0,0,0-12.51,9.7c-1.18,2.07-1.11,4.66-1.25,7s4.07,2.44,5.47,4.14c1.78,2.07-3,5.33-5.84,4.66-5.7-1.11-5.48-6.66-4.67-9.69.6-2.37-.51-2.29-1.84-2-1.78.3-3.19,3.48-6.59,6.74l-27,24.64Z"/><path class="b" d="M98,415.86l-5-20.65,17.54-64.6,20.05-40.92,12-1.92c35.59,12.06,65.12,32.71,78.73,76.37l-1.18,13.76-38.85,23L116,421Zm5.84-5.7,70.89-13.32,37.3-21.9.89-9.92c-14.73-36.18-40-56.9-68.08-69.26l-12.06,2.3-18.65,37.88Z"/></svg>