<svg xmlns="http://www.w3.org/2000/svg" viewBox="0 0 512 512"><defs><style>.a{fill:#b3b3b3;}.b{fill:#999;}.c{fill:#ccc;}.d{fill:#a05a2c;}.e{fill:#f5c75e;}.f{fill:#f5d983;}.g{fill:#d69f41;}.h{fill:#e4c9a7;}.i{fill:#debd94;}.j{fill:#f3ce6e;}</style></defs><title>big_ron</title><path class="a" d="M411.1,44.26c4.52,13.55-23.91,34.64-33.83,29.16,1.79,21-19.91,41.09-47.44,25.2s-23-47-.2-53.75c-14.25-8.38-6.85-41.36,7.15-44.22-41.56-.38-81.18,20-105.73,62.52-24.43,42.32-19.78,85.64-1.75,122.17-4.28-13.37,21.16-36.88,34.63-29.1-5.18-24.07,19.29-40.83,46.83-25s24.8,47.76,2.3,53.7c13.66,8.11,3.69,40.86-10.05,43.81,41.82.78,82-20.32,106.43-62.63C434,123.65,429.78,77,411.1,44.26Z"/><path class="b" d="M392.71,67.68c-6.28,4.22-12.79,6.37-16.6,4.27,1.64,19-15,38-38.64,29.44h0A45.49,45.49,0,0,1,332.12,99l-.35-.18c-.57-.3-1.15-.61-1.72-.94S329,97.29,328.5,97l-.14-.09c-.49-.31-1-.62-1.44-.94h0c-23.89-16.28-17.53-44.12,4.4-50.6-4.94-2.9-7.1-8.86-7.23-15.52C300.84,40,279.84,58.31,265.48,83.19c-14.19,24.57-19.55,51.51-17,76.5,5.88-3.52,12.09-4.89,16.82-2.17-5-23.1,15.82-40.09,41.86-27.33h0l1.52.78.16.08,1.58.87c.69.41,1.35.81,2,1.24l.26.16c.63.41,1.24.83,1.84,1.25l.24.18,1.76,1.34.09.09c.59.47,1.17,1,1.71,1.45h0c18.53,16.63,13.24,41.66-6.83,46.93,4.79,2.85,6.64,8.86,6.42,15.57C341,189.87,361.76,171.69,376,147c14.72-25.48,20-53.54,16.69-79.31Z"/><path class="c" d="M409.61,40.53a11.52,11.52,0,0,1,0,6.73C406,60.53,384.52,76.59,376.1,71.94c1.74,20.16-20.19,38.5-46.06,26l-1.24,2.15c27.53,15.9,55.38-3.5,53.57-24.49,7.34,4,24.59-7.63,31.27-19.5,13.12,32.15,10.84,72.11-9.42,107.24-20,34.64-52.85,56.48-86.76,61.58,7.51-11.31,10.24-30.76.31-36.67,22.5-5.93,21.35-42.07-6.18-58l-1,1.79c24.19,16.33,22.58,46.87.94,52.58,11.49,6.83,6,31.81-4.16,41.31h0c-.23.21-.45.41-.68.6l-.09.08a12.7,12.7,0,0,1-5.39,2.81c41.28,3.07,84.9-20.16,109.32-62.48,24.52-42.54,22.71-92.18-.89-126.4Z"/><path class="c" d="M310.55,132l1-1.79c-27.53-15.89-57.74-.39-52.56,23.68-9.87-5.7-26.18,6.48-32.52,18.66-12.66-32-10.22-71.44,9.84-106.19S289.65,9.57,323.81,4.68c-7.24,11.29-9.16,31,1.24,37-22.84,6.76-23.78,42.45,3.75,58.33L330,97.89c-24-16.28-20.68-46.08,1.27-52.57-12-7-7.57-32.16,2.49-41.58h0A12.86,12.86,0,0,1,340,.32C298.51-3,254.61,20.23,230.07,62.74c-24.43,42.31-22.75,91.7.55,125.91a12.7,12.7,0,0,1,0-7h0c3.35-13.56,23.29-30.74,34.66-24.18C260.31,134.41,284.52,119.25,310.55,132Z"/><rect class="d" x="-12.69" y="303.04" width="434.96" height="23.58" transform="translate(-170.25 334.77) rotate(-60)"/><path class="e" d="M152.6,433.33l3-5.2-11.13-8.41-13.21-5.64-3,5.23a4.35,4.35,0,0,1-3.14,5.44l-5.71,9.87a4.35,4.35,0,0,1-3.14,5.46L110.54,450a4.33,4.33,0,0,1-3.14,5.43l-5.7,9.88a4.35,4.35,0,0,1-3.14,5.46l-5.7,9.87a4.35,4.35,0,0,1-3.14,5.46l-5.84,10.09,10.39,8.55,14,5.51,5.83-10.08a4.35,4.35,0,0,1,3.14-5.44l5.7-9.87a4.35,4.35,0,0,1,3.14-5.47l5.72-9.92a4,4,0,0,1,3.14-5.38l5.71-9.87a4.34,4.34,0,0,1,3.14-5.47l5.71-9.9a4.36,4.36,0,0,1,3.15-5.47Z"/><polygon class="f" points="134.91 412.28 131.26 414.08 155.6 428.13 155.34 424.07 134.91 412.28"/><polygon class="g" points="108.22 510.2 104.57 512 84.15 500.21 83.88 496.14 108.22 510.2"/><path class="f" d="M125.14,424.74l24.31,14a4.14,4.14,0,0,1,.39-3.38l-22-12.7a4.13,4.13,0,0,1-2.71,2Z"/><path class="g" d="M128.25,419.35a4.11,4.11,0,0,1-.42,3.35l22,12.7a4.16,4.16,0,0,1,2.67-2Z"/><path class="f" d="M116.3,440.08l24.25,14a4.17,4.17,0,0,1,.42-3.36l-22-12.68A4.09,4.09,0,0,1,116.3,440.08Z"/><path class="g" d="M119.41,434.69a4.13,4.13,0,0,1-.41,3.36l22,12.68a4.17,4.17,0,0,1,2.7-2Z"/><path class="f" d="M132,466l-21.88-12.63a4.17,4.17,0,0,1-2.7,2l24.32,14h0A4,4,0,0,1,132,466Z"/><path class="g" d="M134.83,464l-24.29-14a4.13,4.13,0,0,1-.41,3.36L132,466h0A4.06,4.06,0,0,1,134.83,464Z"/><path class="f" d="M98.6,470.75l24.25,14a4.21,4.21,0,0,1,.41-3.36l-22-12.68A4.15,4.15,0,0,1,98.6,470.75Z"/><path class="g" d="M101.71,465.36a4.1,4.1,0,0,1-.42,3.35l22,12.69a4.15,4.15,0,0,1,2.69-2Z"/><path class="f" d="M89.74,486.08l24.3,14a4.11,4.11,0,0,1,.39-3.37l-22-12.7A4.14,4.14,0,0,1,89.74,486.08Z"/><path class="g" d="M92.86,480.7a4.17,4.17,0,0,1-.42,3.36l22,12.69a4.14,4.14,0,0,1,2.69-2.05Z"/><circle class="d" cx="345.68" cy="70.8" r="11.78"/><path class="e" d="M353.1,86.11l3-5.2-10.94-8.4-13.39-5.65-3,5.23a4.33,4.33,0,0,1-3.14,5.43l-5.7,9.87a4.35,4.35,0,0,1-3.15,5.46l-5.7,9.88a4.34,4.34,0,0,1-3.14,5.42L302.2,118a4.35,4.35,0,0,1-3.14,5.46l-5.7,9.87a4.35,4.35,0,0,1-3.14,5.46l-5.8,10.05,11.47,8.26,12.86,5.79,5.84-10.08a4.34,4.34,0,0,1,3.14-5.44l5.69-9.87a4.35,4.35,0,0,1,3.14-5.47l5.67-9.87a4,4,0,0,1,3.14-5.38l5.71-9.87a4.35,4.35,0,0,1,3.14-5.47l5.71-9.9A4.34,4.34,0,0,1,353.1,86.11Z"/><polygon class="f" points="356.08 80.91 355.82 76.84 335.39 65.05 331.75 66.86 356.08 80.91"/><polygon class="g" points="284.42 148.87 308.75 162.92 305.1 164.72 284.68 152.93 284.42 148.87"/><path class="f" d="M325.62,77.52l24.31,14a4.11,4.11,0,0,1,.39-3.37l-22-12.7A4.16,4.16,0,0,1,325.62,77.52Z"/><path class="g" d="M328.73,72.12a4.13,4.13,0,0,1-.42,3.36l22,12.7A4.16,4.16,0,0,1,353,86.12Z"/><path class="f" d="M316.78,92.86l24.25,14a4.15,4.15,0,0,1,.42-3.35l-22-12.69a4.13,4.13,0,0,1-2.68,2Z"/><path class="g" d="M319.9,87.47a4.15,4.15,0,0,1-.42,3.35l22,12.69a4.17,4.17,0,0,1,2.7-2Z"/><path class="f" d="M332.49,118.78l-21.88-12.64a4.15,4.15,0,0,1-2.7,2l24.32,14h0A4,4,0,0,1,332.49,118.78Z"/><path class="g" d="M335.31,116.81l-24.29-14a4.13,4.13,0,0,1-.41,3.36l21.88,12.63h0A4,4,0,0,1,335.31,116.81Z"/><path class="f" d="M299.08,123.54l24.23,14a4.15,4.15,0,0,1,.41-3.35l-22-12.69A4.12,4.12,0,0,1,299.08,123.54Z"/><path class="g" d="M302.19,118.16a4.11,4.11,0,0,1-.42,3.35l22,12.69a4.15,4.15,0,0,1,2.69-2Z"/><path class="f" d="M290.22,138.86l24.29,14a4.15,4.15,0,0,1,.4-3.37l-22-12.7A4.14,4.14,0,0,1,290.22,138.86Z"/><path class="g" d="M293.34,133.47a4.15,4.15,0,0,1-.42,3.35l22,12.7a4.14,4.14,0,0,1,2.69-2.05Z"/><path class="h" d="M270,227.42c-1.91,3.29-3.44,4-3.44,4l-32.19,8.64s-.57-1.69,1.4-5.1,3.78-4,3.78-4l32.27-8.65S271.91,224.14,270,227.42Z"/><path class="i" d="M258.28,247.72c1.9-3.3,1.75-5,1.75-5l-8.64-32.19s-1.76.36-3.74,3.76-1.57,5.28-1.57,5.28l8.69,32.25S256.39,251,258.28,247.72Z"/><path class="j" d="M254.77,232.07a2.37,2.37,0,1,1-.87-3.24A2.37,2.37,0,0,1,254.77,232.07Z"/><path class="h" d="M241.73,276.36c-1.92,3.28-3.45,4-3.45,4L206.09,289s-.56-1.69,1.4-5.1,3.79-4,3.79-4l32.27-8.64S243.66,273.07,241.73,276.36Z"/><path class="i" d="M230,296.65c1.9-3.3,1.75-5,1.75-5l-8.65-32.19s-1.75.37-3.73,3.77-1.57,5.27-1.57,5.27l8.68,32.26S228.14,300,230,296.65Z"/><path class="j" d="M226.51,281a2.36,2.36,0,1,1-.86-3.23A2.36,2.36,0,0,1,226.51,281Z"/><path class="h" d="M213.29,325.62c-1.91,3.29-3.45,4-3.45,4l-32.19,8.64s-.56-1.69,1.41-5.1,3.78-4,3.78-4l32.27-8.64S215.22,322.34,213.29,325.62Z"/><path class="i" d="M201.59,345.92c1.9-3.31,1.75-5,1.75-5l-8.64-32.18s-1.76.36-3.74,3.76-1.57,5.28-1.57,5.28L198.08,350S199.7,349.22,201.59,345.92Z"/><path class="j" d="M198.08,330.26a2.37,2.37,0,1,1-.87-3.23A2.37,2.37,0,0,1,198.08,330.26Z"/><path class="h" d="M185,374.61c-1.91,3.29-3.45,4-3.45,4l-32.19,8.64s-.56-1.7,1.41-5.1,3.78-4,3.78-4l32.27-8.64S186.93,371.32,185,374.61Z"/><path class="i" d="M173.3,394.91c1.9-3.31,1.75-5,1.75-5l-8.64-32.18s-1.76.36-3.74,3.76-1.57,5.27-1.57,5.27L169.79,399S171.41,398.21,173.3,394.91Z"/><path class="j" d="M169.79,379.25a2.37,2.37,0,1,1-.87-3.23A2.37,2.37,0,0,1,169.79,379.25Z"/></svg>