<svg height="512pt" viewBox="0 -16 512.00106 512" width="512pt" xmlns="http://www.w3.org/2000/svg"><path d="m496.167969 479.03125h-480.339844c-8.742187 0-15.828125-7.085938-15.828125-15.828125v-275.386719c0-8.742187 7.085938-15.828125 15.828125-15.828125h480.339844c8.742187 0 15.828125 7.085938 15.828125 15.828125v275.386719c0 8.742187-7.085938 15.828125-15.828125 15.828125zm0 0" fill="#ffc02e"/><path d="m496.167969 171.988281h-240.171875v307.042969h240.171875c8.742187 0 15.828125-7.085938 15.828125-15.828125v-275.386719c0-8.742187-7.085938-15.828125-15.828125-15.828125zm0 0" fill="#ffa73b"/><path d="m432.859375 415.722656h-353.71875c-8.742187 0-15.828125-7.089844-15.828125-15.828125v-212.078125c0-8.742187 7.085938-15.828125 15.828125-15.828125h353.71875c8.738281 0 15.824219 7.085938 15.824219 15.828125v212.078125c0 8.738281-7.085938 15.828125-15.824219 15.828125zm0 0" fill="#b04617"/><path d="m432.859375 171.988281h-176.863281v243.734375h176.863281c8.738281 0 15.824219-7.089844 15.824219-15.828125v-212.078125c0-8.742187-7.085938-15.828125-15.824219-15.828125zm0 0" fill="#8c3200"/><path d="m256 289.503906c-36.257812 0-65.753906-29.5-65.753906-65.757812v-35.929688c0-8.742187 7.085937-15.828125 15.824218-15.828125h99.859376c8.742187 0 15.828124 7.085938 15.828124 15.828125v35.929688c0 36.257812-29.496093 65.757812-65.757812 65.757812zm0 0" fill="#ffc02e"/><path d="m305.929688 171.988281h-49.933594v117.515625h.003906c36.261719 0 65.757812-29.5 65.757812-65.757812v-35.929688c0-8.742187-7.085937-15.828125-15.828124-15.828125zm0 0" fill="#ffa73b"/><path d="m256 240.851562c-8.738281 0-15.828125-7.085937-15.828125-15.828124v-37.207032c0-8.742187 7.089844-15.828125 15.828125-15.828125 8.742188 0 15.828125 7.085938 15.828125 15.828125v37.207032c0 8.742187-7.085937 15.828124-15.828125 15.828124zm0 0" fill="#8c3200"/><path d="m256 171.988281h-.003906v68.863281h.003906c8.742188 0 15.828125-7.085937 15.828125-15.828124v-37.207032c0-8.742187-7.085937-15.828125-15.828125-15.828125zm0 0" fill="#802d0d"/><path d="m496.171875 203.644531h-480.339844c-8.742187 0-15.82812475-7.085937-15.82812475-15.828125v-171.988281c0-8.742187 7.08593775-15.828125 15.82812475-15.828125h480.339844c8.742187 0 15.828125 7.085938 15.828125 15.828125v171.988281c0 8.742188-7.085938 15.828125-15.828125 15.828125zm0 0" fill="#fff780"/><path d="m496.171875 0h-240.175781v203.644531h240.175781c8.742187 0 15.828125-7.085937 15.828125-15.828125v-171.988281c0-8.742187-7.085938-15.828125-15.828125-15.828125zm0 0" fill="#ffc02e"/><path d="m432.859375 140.332031h-353.71875c-8.738281 0-15.824219-7.085937-15.824219-15.828125v-124.503906h385.371094v124.503906c0 8.742188-7.085938 15.828125-15.828125 15.828125zm0 0" fill="#802d0d"/><path d="m255.996094 140.332031h176.867187c8.738281 0 15.828125-7.085937 15.828125-15.828125v-124.503906h-192.695312zm0 0" fill="#571908"/><path d="m63.316406 0h385.371094v70.167969h-385.371094zm0 0" fill="#b04617"/><path d="m255.996094 0h192.695312v70.167969h-192.695312zm0 0" fill="#8c3200"/></svg>