<svg xmlns="http://www.w3.org/2000/svg" viewBox="0 0 512 512" width="512" height="512">
	<style>
		tspan { white-space:pre }
		.shp0 { fill: #5b5555 } 
		.shp1 { fill: #463f3f } 
		.shp2 { fill: #766e6e } 
		.shp3 { fill: #3749bd } 
		.shp4 { fill: #3d51d7 } 
	</style>
	<g id="Layer">
		<path id="Layer" class="shp0" d="M73.23 293.12C65.12 271.35 61 248.43 61 225C61 128.74 131 48.16 223.63 32.68L228.57 62.27C148.86 75.59 91 144.03 91 225C91 244.84 94.48 264.23 101.34 282.64L73.23 293.12Z" />
		<path id="Layer" class="shp1" d="M438.77 293.12L410.66 282.64C417.52 264.23 421 244.84 421 225C421 144.03 363.14 75.59 283.43 62.27L288.37 32.68C381.08 48.18 451 128.82 451 225C451 248.43 446.88 271.35 438.77 293.12Z" />
		<path id="Layer" class="shp1" d="M350.44 395.64L335.89 369.4C354.04 359.34 369.96 346.11 383.21 330.08L406.33 349.2C390.68 368.13 371.88 383.75 350.44 395.64L350.44 395.64Z" />
		<path id="Layer" class="shp0" d="M161.56 395.64C140.12 383.75 121.32 368.13 105.67 349.2L128.78 330.09C142.04 346.11 157.96 359.34 176.1 369.41L161.56 395.64Z" />
		<path id="Layer" fill-rule="evenodd" class="shp2" d="M361 407C361 464.9 313.9 512 256 512C198.1 512 151 464.9 151 407C151 349.1 198.1 302 256 302C313.9 302 361 349.1 361 407ZM286 422L286 392L329.49 392C323.51 362.66 300.34 339.49 271 333.51L271 377L241 377L241 333.51C211.66 339.49 188.49 362.66 182.51 392L226 392L226 422L182.51 422C188.49 451.34 211.66 474.51 241 480.49L241 437L271 437L271 480.49C300.34 474.51 323.51 451.34 329.49 422L286 422Z" />
		<path id="Layer" class="shp0" d="M361 407C361 464.9 313.9 512 256 512L256 437L271 437L271 480.49C300.34 474.51 323.51 451.34 329.49 422L286 422L286 392L329.49 392C323.51 362.66 300.34 339.49 271 333.51L271 377L256 377L256 302C313.9 302 361 349.1 361 407Z" />
		<path id="Layer" class="shp0" d="M76 344.42L106 344.42L106 450L76 450L76 344.42Z" />
		<path id="Layer" class="shp1" d="M406 344.42L436 344.42L436 450L406 450L406 344.42Z" />
		<path id="Layer" class="shp3" d="M389.38 353.97C367.87 341.55 360.49 314.01 372.91 292.5C385.32 271.01 412.9 263.62 434.38 276.03C455.9 288.45 463.28 315.99 450.86 337.5C438.49 358.93 410.98 366.44 389.38 353.97Z" />
		<path id="Layer" class="shp4" d="M61.14 337.5C48.72 315.99 56.1 288.45 77.61 276.03C99.1 263.62 126.68 271.01 139.09 292.5C151.51 314.01 144.13 341.55 122.61 353.97C101.06 366.42 73.55 358.99 61.14 337.5L61.14 337.5Z" />
		<path id="Layer" class="shp4" d="M256 0C231.19 0 211 20.19 211 45C211 69.81 231.19 90 256 90C280.81 90 301 69.81 301 45C301 20.19 280.81 0 256 0Z" />
		<path id="Layer" class="shp3" d="M301 45C301 69.81 280.81 90 256 90L256 0C280.81 0 301 20.19 301 45Z" />
		<path id="Layer" class="shp4" d="M256 362C231.19 362 211 382.19 211 407C211 431.81 231.19 452 256 452C280.81 452 301 431.81 301 407C301 382.19 280.81 362 256 362Z" />
		<path id="Layer" class="shp3" d="M301 407C301 431.81 280.81 452 256 452L256 362C280.81 362 301 382.19 301 407Z" />
	</g>
</svg>