<svg xmlns="http://www.w3.org/2000/svg" viewBox="0 0 512 512" width="512" height="512">
	<style>
		tspan { white-space:pre }
		.shp0 { fill: #c6c5ca } 
		.shp1 { fill: #898890 } 
		.shp2 { fill: #4caf50 } 
		.shp3 { fill: #388e3c } 
		.shp4 { fill: #ffffff } 
	</style>
	<path id="Layer" class="shp0" d="M504.5 256C504.5 393.24 393.24 504.5 256 504.5C118.76 504.5 7.5 393.24 7.5 256C7.5 118.76 118.76 7.5 256 7.5C393.24 7.5 504.5 118.76 504.5 256Z" />
	<path id="Layer" class="shp1" d="M37.5 256C37.5 123.79 140.74 15.7 271 7.95C266.04 7.65 261.04 7.5 256 7.5C118.76 7.5 7.5 118.76 7.5 256C7.5 393.24 118.76 504.5 256 504.5C261.04 504.5 266.04 504.35 271 504.05C140.74 496.3 37.5 388.21 37.5 256Z" />
	<path id="Layer" class="shp2" d="M381.57 134.51C380.69 132.39 378.62 131 376.32 131C155.86 131 132 222.39 132 261.68C132 312.66 170.82 346.91 228.59 346.91C301.56 346.91 316.84 277.48 325.05 240.17C333.02 202.2 352.29 167.52 380.33 140.69C381.95 139.07 382.44 136.63 381.57 134.51Z" />
	<path id="Layer" class="shp3" d="M137.68 381C134.54 381 132 378.46 132 375.32C132 341.53 190.58 233.14 282.93 188.39C285.76 187.02 289.15 188.2 290.52 191.02C291.89 193.85 290.71 197.25 287.89 198.61L287.89 198.61C194.63 243.81 143.36 348.76 143.36 375.32C143.36 378.46 140.82 381 137.68 381Z" />
	<path id="Layer" class="shp4" d="M349.86 467.07L343.77 453.36C381.24 436.7 412.94 410.07 435.46 376.36L447.93 384.69C423.84 420.77 389.93 449.25 349.86 467.07L349.86 467.07ZM453.48 375.96L440.64 368.2C443.13 364.09 445.51 359.83 447.72 355.55L461.05 362.44C458.68 367.02 456.14 371.56 453.48 375.96ZM465.59 353.15L451.97 346.86C453.99 342.5 455.89 338 457.62 333.5L471.62 338.88C469.77 343.68 467.75 348.48 465.59 353.15Z" />
</svg>