<svg xmlns="http://www.w3.org/2000/svg" viewBox="0 0 512 512" width="512" height="512">
	<style>
		tspan { white-space:pre }
		.shp0 { fill: #c6c5ca } 
		.shp1 { fill: #898890 } 
		.shp2 { fill: #ffffff } 
		.shp3 { fill: #607d8b } 
	</style>
	<path id="Layer" class="shp0" d="M504.5 256C504.5 393.24 393.24 504.5 256 504.5C118.76 504.5 7.5 393.24 7.5 256C7.5 118.76 118.76 7.5 256 7.5C393.24 7.5 504.5 118.76 504.5 256Z" />
	<path id="Layer" class="shp1" d="M37.5 256C37.5 123.79 140.74 15.7 271 7.95C266.04 7.65 261.04 7.5 256 7.5C118.76 7.5 7.5 118.76 7.5 256C7.5 393.24 118.76 504.5 256 504.5C261.04 504.5 266.04 504.35 271 504.05C140.74 496.3 37.5 388.21 37.5 256Z" />
	<path id="Layer" class="shp2" d="M349.86 467.07L343.77 453.36C381.24 436.7 412.94 410.07 435.46 376.36L447.93 384.69C423.84 420.77 389.93 449.25 349.86 467.07L349.86 467.07ZM453.48 375.96L440.64 368.2C443.13 364.09 445.51 359.83 447.72 355.55L461.05 362.44C458.68 367.02 456.14 371.56 453.48 375.96ZM465.59 353.15L451.97 346.86C453.99 342.5 455.89 338 457.62 333.5L471.62 338.88C469.77 343.68 467.75 348.48 465.59 353.15Z" />
	<g id="Layer">
		<path id="Layer" class="shp3" d="M116.4 170.19L145.55 160.86C166.23 154.21 188.94 156.4 207.86 166.75C222.86 175 239.68 179.09 256.5 179.09C273.32 179.09 290.13 174.98 305.14 166.75C324.04 156.38 346.72 154.21 367.45 160.83L396.6 170.17C402.43 171.93 408.61 168.8 410.46 163.02C412.32 157.21 409.12 151.01 403.31 149.14L374.14 139.8C347.69 131.37 318.69 134.13 294.53 147.39C271.07 160.24 241.93 160.24 218.47 147.39C194.28 134.15 165.26 131.39 138.84 139.82L109.69 149.16C103.86 151.03 100.66 157.24 102.54 163.04C104.37 168.8 110.53 171.93 116.4 170.19Z" />
		<path id="Layer" class="shp3" d="M403.31 215.37L374.14 206.03C347.69 197.62 318.69 200.38 294.53 213.63C271.07 226.47 241.93 226.47 218.47 213.63C194.28 200.38 165.26 197.62 138.84 206.03L109.69 215.37C103.86 217.25 100.66 223.45 102.54 229.25C104.37 235.03 110.53 238.19 116.4 236.4L145.55 227.07C166.23 220.47 188.94 222.61 207.86 232.96C222.86 241.21 239.68 245.3 256.5 245.3C273.32 245.3 290.13 241.19 305.14 232.96C324.04 222.61 346.72 220.42 367.45 227.04L396.6 236.38C402.43 238.19 408.61 234.99 410.46 229.23C412.34 223.45 409.14 217.25 403.31 215.37Z" />
		<path id="Layer" class="shp3" d="M403.31 281.58L374.14 272.25C347.69 263.84 318.69 266.6 294.53 279.84C271.07 292.68 241.93 292.68 218.47 279.84C194.28 266.6 165.26 263.84 138.84 272.25L109.69 281.58C103.88 283.46 100.68 289.66 102.54 295.46C104.37 301.27 110.53 304.38 116.4 302.61L145.55 293.28C166.23 286.66 188.94 288.82 207.86 299.19C222.86 307.43 239.66 311.53 256.5 311.53C273.34 311.53 290.13 307.43 305.14 299.19C324.04 288.82 346.72 286.66 367.45 293.28L396.6 302.61C402.43 304.38 408.61 301.25 410.46 295.46C412.34 289.66 409.14 283.46 403.31 281.58Z" />
		<path id="Layer" class="shp3" d="M403.31 347.79L374.14 338.46C347.69 330.03 318.69 332.81 294.53 346.05C271.07 358.89 241.93 358.89 218.47 346.05C194.28 332.81 165.26 330.03 138.84 338.46L109.69 347.79C103.88 349.67 100.68 355.87 102.54 361.67C104.37 367.46 110.53 370.61 116.4 368.83L145.55 359.49C166.23 352.87 188.94 355.03 207.86 365.4C222.86 373.64 239.66 377.74 256.5 377.74C273.34 377.74 290.13 373.64 305.14 365.4C324.04 355.03 346.72 352.87 367.45 359.49L396.6 368.83C402.43 370.64 408.61 367.46 410.46 361.67C412.34 355.87 409.14 349.67 403.31 347.79Z" />
	</g>
</svg>