<svg xmlns="http://www.w3.org/2000/svg" viewBox="0 0 512 512" width="512" height="512">
	<style>
		tspan { white-space:pre }
		.shp0 { fill: #c6c5ca } 
		.shp1 { fill: #898890 } 
		.shp2 { fill: #ffffff } 
		.shp3 { fill: #aa8b65 } 
		.shp4 { fill: #836948 } 
		.shp5 { fill: #663a00 } 
	</style>
	<path id="Layer" class="shp0" d="M504.5 256C504.5 393.24 393.24 504.5 256 504.5C118.76 504.5 7.5 393.24 7.5 256C7.5 118.76 118.76 7.5 256 7.5C393.24 7.5 504.5 118.76 504.5 256Z" />
	<path id="Layer" class="shp1" d="M37.5 256C37.5 123.79 140.74 15.7 271 7.95C266.04 7.65 261.04 7.5 256 7.5C118.76 7.5 7.5 118.76 7.5 256C7.5 393.24 118.76 504.5 256 504.5C261.04 504.5 266.04 504.35 271 504.05C140.74 496.3 37.5 388.21 37.5 256Z" />
	<path id="Layer" class="shp2" d="M349.86 467.07L343.77 453.36C381.24 436.7 412.94 410.07 435.46 376.36L447.93 384.69C423.84 420.77 389.93 449.25 349.86 467.07L349.86 467.07ZM453.48 375.96L440.64 368.2C443.13 364.09 445.51 359.83 447.72 355.55L461.05 362.44C458.68 367.02 456.14 371.56 453.48 375.96ZM465.59 353.15L451.97 346.86C453.99 342.5 455.89 338 457.62 333.5L471.62 338.88C469.77 343.68 467.75 348.48 465.59 353.15Z" />
	<path id="Layer" class="shp3" d="M139.47 162.07C130.34 179.64 142.12 192.41 142.12 192.41C128.09 213.21 146.47 229.62 146.47 229.62C140.67 262.96 164.36 276.72 164.36 276.72C165.33 299.61 184.19 308.76 184.19 308.76C184.19 308.76 172.1 331.7 184.19 351.05C196.28 370.39 217.57 369.76 217.57 369.76C217.57 369.76 226.27 409.09 254.32 408.12C282.37 407.15 293.5 367.25 293.5 367.25C325.42 354.44 312.36 319.13 321.07 308.76C329.77 298.38 326.87 283.82 326.87 283.82C344.28 272.21 338 250.21 338 250.21C367.98 236.91 359.76 204.09 359.76 204.09C381.52 192.07 374.75 163.39 374.75 163.39C374.75 163.39 365.51 139.47 330.3 135.56C330.3 135.56 319.86 121.21 302.04 125.56C302.04 125.56 287.27 101.21 248.79 104.26C248.79 104.26 216.84 103.39 199.45 126.43C199.45 126.43 178.59 123.73 168.59 142.47C168.59 142.47 149.55 142.66 139.47 162.07Z" />
	<g id="Layer">
		<path id="Layer" class="shp4" d="M291.32 281.65C291.66 281.65 292.01 281.68 292.36 281.76C295 282.33 296.68 284.93 296.1 287.57C293.36 300.23 284.6 305.22 277.58 306.65C277.93 321.37 267.59 328.4 261.45 330.13C258.86 330.86 256.15 329.35 255.42 326.75C254.69 324.17 256.18 321.48 258.76 320.73C259.94 320.37 269.89 316.9 267.4 303.06C267.14 301.58 267.57 300.05 268.58 298.93C269.59 297.81 271.06 297.21 272.56 297.32C273.67 297.38 283.93 297.57 286.54 285.51C287.04 283.21 289.07 281.65 291.32 281.65Z" />
		<path id="Layer" class="shp4" d="M204.5 218.96C204.56 218.96 204.62 218.96 204.68 218.96C207.38 219.06 209.49 221.32 209.39 224.02C209.25 228 210.19 231.1 212.18 233.23C215.3 236.56 220.29 236.85 220.34 236.85C221.78 236.9 223.14 237.58 224.03 238.72C224.93 239.86 225.27 241.33 224.98 242.75C222.25 255.74 232.46 260.93 233.63 261.48C236.09 262.59 237.18 265.47 236.07 267.94C234.96 270.4 232.05 271.49 229.59 270.39C223.8 267.78 214.14 259.53 214.76 245.72C211.79 244.86 208.1 243.18 205.04 239.91C201.21 235.82 199.38 230.36 199.62 223.67C199.71 221.03 201.88 218.96 204.5 218.96Z" />
		<path id="Layer" class="shp4" d="M304.13 202.24C306.37 202.24 308.39 203.78 308.9 206.06C312.13 220.5 303.77 228.74 297.1 232.06C293.96 247.17 281.24 249.91 280.67 250.02L278.74 240.44L278.67 240.45C279.49 240.26 286.68 238.3 287.85 228.03C288.07 226.11 289.4 224.5 291.24 223.92L291.24 223.92C291.24 223.92 294.18 222.92 296.6 220.42C299.6 217.32 300.5 213.32 299.36 208.2C298.77 205.56 300.42 202.95 303.06 202.36C303.42 202.28 303.78 202.24 304.13 202.24Z" />
		<path id="Layer" class="shp4" d="M335.96 165.89C340.33 165.89 343.86 169.42 343.86 173.78C343.86 178.15 340.33 181.68 335.96 181.68C331.6 181.68 328.07 178.15 328.07 173.78C328.07 169.42 331.6 165.89 335.96 165.89Z" />
		<path id="Layer" class="shp4" d="M212.08 322.38C216.45 322.38 219.98 325.91 219.98 330.27C219.98 334.64 216.45 338.17 212.08 338.17C207.71 338.17 204.18 334.64 204.18 330.27C204.18 325.91 207.71 322.38 212.08 322.38Z" />
		<path id="Layer" class="shp4" d="M279.7 344.22C280.09 344.22 280.48 344.27 280.87 344.36C283.49 345.01 285.1 347.65 284.45 350.28C278.2 375.78 255.22 380.33 254.25 380.51C251.6 381.01 249.04 379.26 248.55 376.6C248.06 373.95 249.8 371.41 252.44 370.9C253.21 370.75 270.24 367.16 274.95 347.95C275.5 345.72 277.5 344.22 279.7 344.22Z" />
		<path id="Layer" class="shp4" d="M252.42 136.01C255.68 136.01 258.81 136.51 261.79 137.53C270.67 140.54 275.66 147.27 277.73 150.71C298.2 157.58 301.61 178.79 301.75 179.71C302.15 182.38 300.3 184.87 297.63 185.27C294.97 185.67 292.48 183.84 292.07 181.18C291.96 180.45 289.15 163.91 273.1 159.52C271.68 159.14 270.52 158.14 269.92 156.8C269.9 156.75 266.42 149.37 258.54 146.75C252.25 144.66 244.66 146 235.96 150.73C233.58 152.02 230.61 151.13 229.33 148.76C228.04 146.39 228.92 143.42 231.29 142.13C238.81 138.05 245.88 136.01 252.42 136.01Z" />
		<path id="Layer" class="shp4" d="M206.41 158.92C208.31 158.92 210.12 160.04 210.91 161.9C211.96 164.37 210.82 167.22 208.36 168.29C207.72 168.58 194.98 174.71 196.08 197.06C196.21 199.76 194.13 202.06 191.44 202.19C188.73 202.33 186.44 200.24 186.31 197.55C184.86 167.98 203.7 159.65 204.5 159.31C205.12 159.04 205.77 158.92 206.41 158.92Z" />
	</g>
	<g id="Layer" style="opacity: 0.161">
		<path id="Layer" class="shp5" d="M142.43 192.41C128.41 213.21 146.79 229.62 146.79 229.62C140.98 262.96 164.68 276.72 164.68 276.72C164.87 281.2 165.75 285.14 167.04 288.6C164.95 282.01 164.08 273.84 165.8 263.95C165.8 263.95 147.42 247.54 161.45 226.74C161.45 226.74 149.67 213.97 158.8 196.4C168.89 176.99 187.92 176.8 187.92 176.8C197.92 158.06 218.79 160.76 218.79 160.76C236.17 137.72 268.13 138.59 268.13 138.59C306.6 135.55 321.37 159.89 321.37 159.89C339.2 155.54 349.63 169.89 349.63 169.89C360.8 171.13 369.36 174.39 375.84 178.26C376.64 170.03 375.07 163.39 375.07 163.39C375.07 163.39 365.82 139.47 330.61 135.56C330.61 135.56 320.18 121.21 302.36 125.56C302.36 125.56 287.58 101.21 249.11 104.26C249.11 104.26 217.16 103.39 199.77 126.43C199.77 126.43 178.91 123.73 168.91 142.47C168.91 142.47 149.87 142.66 139.79 162.07C130.66 179.64 142.43 192.41 142.43 192.41Z" />
	</g>
</svg>