<svg xmlns="http://www.w3.org/2000/svg" viewBox="0 0 512 512" width="512" height="512">
	<style>
		tspan { white-space:pre }
		.shp0 { fill: #c6c5ca } 
		.shp1 { fill: #898890 } 
		.shp2 { fill: #ffffff } 
		.shp3 { fill: #212121 } 
	</style>
	<path id="Layer" class="shp0" d="M504.5 256C504.5 393.24 393.24 504.5 256 504.5C118.76 504.5 7.5 393.24 7.5 256C7.5 118.76 118.76 7.5 256 7.5C393.24 7.5 504.5 118.76 504.5 256Z" />
	<path id="Layer" class="shp1" d="M37.5 256C37.5 123.79 140.74 15.7 271 7.95C266.04 7.65 261.04 7.5 256 7.5C118.76 7.5 7.5 118.76 7.5 256C7.5 393.24 118.76 504.5 256 504.5C261.04 504.5 266.04 504.35 271 504.05C140.74 496.3 37.5 388.21 37.5 256Z" />
	<path id="Layer" class="shp2" d="M349.86 467.07L343.77 453.36C381.24 436.7 412.94 410.07 435.46 376.36L447.93 384.69C423.84 420.77 389.93 449.25 349.86 467.07L349.86 467.07ZM453.48 375.96L440.64 368.2C443.13 364.09 445.51 359.83 447.72 355.55L461.05 362.44C458.68 367.02 456.14 371.56 453.48 375.96ZM465.59 353.15L451.97 346.86C453.99 342.5 455.89 338 457.62 333.5L471.62 338.88C469.77 343.68 467.75 348.48 465.59 353.15Z" />
	<g id="Layer">
		<path id="Layer" fill-rule="evenodd" class="shp3" d="M318.97 147C354.85 147 383.99 176.03 383.99 211.73L384 211.74C384 247.6 354.86 276.51 319.03 276.51L256.58 321.94C254.28 346.43 233.44 365.67 208.29 365.67C185.15 365.67 165.6 349.27 160.85 327.52L128 314.37L128 253.28L183.55 275.65C192.18 270.41 201.94 268.08 213.26 269.1L253.82 211.21C254.1 175.76 283.24 147 318.97 147ZM208.29 352.78C228.12 352.78 244 336.96 244 317.2C244 297.44 228.12 281.62 208.29 281.62C205.72 281.62 203.15 281.9 200.58 282.48L215.43 288.45C229.99 294.26 237.14 310.65 231.25 325.17C225.43 339.68 208.86 346.8 194.28 340.82C188.45 338.54 182.56 336.1 176.74 333.88C182.74 345.09 194.56 352.78 208.29 352.78ZM362.57 211.74C362.57 187.82 342.98 168.35 319.03 168.35C294.86 168.35 275.32 187.82 275.32 211.74C275.32 235.76 294.91 255.12 319.03 255.12C342.97 255.18 362.57 235.82 362.57 211.74Z" />
		<path id="Layer" class="shp3" d="M319.15 176.93C299.89 176.93 284.3 192.47 284.3 211.65C284.3 230.83 299.84 246.37 319.15 246.37C338.28 246.37 353.99 230.88 353.99 211.65C353.99 192.42 338.28 176.93 319.15 176.93L319.15 176.93Z" />
	</g>
	<g id="Layer">
	</g>
</svg>