<svg xmlns="http://www.w3.org/2000/svg" viewBox="0 0 512 512" width="512" height="512">
	<style>
		tspan { white-space:pre }
		.shp0 { fill: #c6c5ca } 
		.shp1 { fill: #898890 } 
		.shp2 { fill: #ff7c48 } 
		.shp3 { fill: #ffb655 } 
		.shp4 { fill: #ff415b } 
		.shp5 { fill: #ffffff } 
	</style>
	<path id="Layer" class="shp0" d="M504.5 256C504.5 393.24 393.24 504.5 256 504.5C118.76 504.5 7.5 393.24 7.5 256C7.5 118.76 118.76 7.5 256 7.5C393.24 7.5 504.5 118.76 504.5 256Z" />
	<path id="Layer" class="shp1" d="M37.5 256C37.5 123.79 140.74 15.7 271 7.95C266.04 7.65 261.04 7.5 256 7.5C118.76 7.5 7.5 118.76 7.5 256C7.5 393.24 118.76 504.5 256 504.5C261.04 504.5 266.04 504.35 271 504.05C140.74 496.3 37.5 388.21 37.5 256Z" />
	<g id="Layer">
		<g id="Layer">
		</g>
		<path id="Layer" class="shp2" d="M316.1 236.67L196.24 236.67L148.93 331.42L171.94 331.42C177.24 331.42 181.55 335.73 181.55 341.03L181.55 371.77C181.55 380.45 184.93 388.62 191.07 394.76C197.21 400.9 205.38 404.28 214.06 404.28C231.98 404.28 246.56 389.69 246.56 371.77L246.56 341.03C246.56 335.73 250.87 331.42 256.17 331.42C261.48 331.42 265.79 335.73 265.79 341.03L265.79 347.2C265.79 365.13 280.37 379.71 298.3 379.71C316.22 379.7 330.8 365.12 330.8 347.2L330.8 341.03C330.8 335.73 335.11 331.42 340.41 331.42L363.42 331.42L316.1 236.67Z" />
		<g id="Layer">
			<path id="Layer" class="shp2" d="M244.73 108L267.62 108L267.62 130.89L244.73 130.89L244.73 108Z" />
		</g>
		<g id="Layer">
			<path id="Layer" class="shp2" d="M244.73 150.13L267.62 150.13L267.62 200.64L244.73 200.64L244.73 150.13Z" />
		</g>
		<g id="Layer">
			<path id="Layer" class="shp2" d="M221.83 217.59L198.94 217.59L198.94 167.89C198.94 161.58 193.81 156.44 187.49 156.44C181.18 156.44 176.05 161.58 176.05 167.89L176.05 175.19L153.16 175.19L153.16 167.89C153.16 148.95 168.56 133.55 187.49 133.55C206.43 133.55 221.83 148.95 221.83 167.89L221.83 217.59Z" />
		</g>
		<g id="Layer">
			<path id="Layer" class="shp2" d="M313.41 217.59L290.52 217.59L290.52 167.89C290.52 148.95 305.92 133.55 324.85 133.55C343.79 133.55 359.19 148.95 359.19 167.89L359.19 175.19L336.3 175.19L336.3 167.89C336.3 161.58 331.17 156.44 324.85 156.44C318.54 156.44 313.41 161.58 313.41 167.89L313.41 217.59Z" />
		</g>
		<g id="Layer">
			<path id="Layer" class="shp3" d="M336.3 194.7L359.19 194.7L359.19 217.59L336.3 217.59L336.3 194.7Z" />
		</g>
		<g id="Layer">
			<path id="Layer" class="shp3" d="M374.46 232.86L397.35 232.86L397.35 255.75L374.46 255.75L374.46 232.86Z" />
		</g>
		<g id="Layer">
			<path id="Layer" class="shp3" d="M153.16 194.7L176.05 194.7L176.05 217.59L153.16 217.59L153.16 194.7Z" />
		</g>
		<g id="Layer">
			<path id="Layer" class="shp3" d="M115 232.86L137.89 232.86L137.89 255.75L115 255.75L115 232.86Z" />
		</g>
		<g id="Layer">
			<path id="Layer" class="shp4" d="M313.41 217.59L290.52 217.59L290.52 167.89C290.52 148.95 305.92 133.55 324.85 133.55C343.79 133.55 359.19 148.95 359.19 167.89L359.19 175.19L336.3 175.19L336.3 167.89C336.3 161.58 331.17 156.44 324.85 156.44C318.54 156.44 313.41 161.58 313.41 167.89L313.41 217.59Z" />
		</g>
		<g id="Layer">
			<path id="Layer" class="shp2" d="M336.3 194.7L359.19 194.7L359.19 217.59L336.3 217.59L336.3 194.7Z" />
		</g>
		<g id="Layer">
			<path id="Layer" class="shp2" d="M374.46 232.86L397.35 232.86L397.35 255.75L374.46 255.75L374.46 232.86Z" />
		</g>
		<path id="Layer" class="shp4" d="M256.17 108L267.62 108L267.62 130.89L256.17 130.89L256.17 108Z" />
		<path id="Layer" class="shp4" d="M256.17 150.13L267.62 150.13L267.62 200.64L256.17 200.64L256.17 150.13Z" />
		<path id="Layer" class="shp4" d="M265.79 341.03L265.79 347.2C265.79 365.13 280.37 379.71 298.3 379.71C316.22 379.7 330.8 365.12 330.8 347.2L330.8 341.03C330.8 335.73 335.11 331.42 340.41 331.42L363.42 331.42L316.1 236.67L256.17 236.67L256.17 331.42C261.48 331.42 265.79 335.73 265.79 341.03Z" />
	</g>
	<path id="Layer" class="shp5" d="M349.86 467.07L343.77 453.36C381.24 436.7 412.94 410.07 435.46 376.36L447.93 384.69C423.84 420.77 389.93 449.25 349.86 467.07L349.86 467.07ZM453.48 375.96L440.64 368.2C443.13 364.09 445.51 359.83 447.72 355.55L461.05 362.44C458.68 367.02 456.14 371.56 453.48 375.96ZM465.59 353.15L451.97 346.86C453.99 342.5 455.89 338 457.62 333.5L471.62 338.88C469.77 343.68 467.75 348.48 465.59 353.15Z" />
	<g id="Layer">
	</g>
</svg>