<svg xmlns="http://www.w3.org/2000/svg" viewBox="0 0 512 511" width="512" height="511">
	<style>
		tspan { white-space:pre }
		.shp0 { fill: #8f8f8f } 
		.shp1 { fill: #3e3e3e } 
	</style>
	<path id="Layer" class="shp0" d="M368.73 466.92L143.27 466.92C139.19 466.92 135.29 465.26 132.46 462.32C129.63 459.39 128.12 455.43 128.27 451.35L135.38 263.63L83.88 375.77C80.6 382.91 72.37 386.31 65 383.56L9.76 362.97C2.12 360.12 -1.85 351.68 0.84 343.97C1.36 342.48 14.04 306.45 53.38 219.66C78.15 164.98 122.43 88.69 134.91 76.2C146.91 64.2 181.42 53.52 191.71 50.54C191.93 50.47 192.15 50.41 192.37 50.36C204.97 47.32 228.75 45.5 256 45.5C283.24 45.5 307.03 47.32 319.63 50.36C319.85 50.41 320.07 50.47 320.29 50.54C330.58 53.52 365.09 64.2 377.09 76.2C389.57 88.69 433.85 164.98 458.63 219.66C497.96 306.45 510.64 342.48 511.16 343.97C513.84 351.68 509.88 360.12 502.23 362.97L446.99 383.56C439.63 386.31 431.4 382.91 428.12 375.77L376.62 263.63L383.72 451.35C383.88 455.43 382.37 459.39 379.54 462.32C376.71 465.26 372.81 466.92 368.73 466.92L368.73 466.92Z" />
	<path id="Layer" class="shp0" d="M511.16 343.97C510.64 342.48 497.96 306.45 458.63 219.66C433.85 164.98 389.57 88.69 377.09 76.2C365.09 64.2 330.58 53.52 320.29 50.54C320.07 50.47 319.85 50.41 319.63 50.36C307.03 47.32 283.24 45.5 256 45.5L256 466.92L368.73 466.92C372.81 466.92 376.71 465.26 379.54 462.32C382.37 459.39 383.88 455.43 383.72 451.35L376.62 263.63L428.12 375.77C431.4 382.91 439.63 386.31 446.99 383.56L502.23 362.97C509.88 360.12 513.84 351.68 511.16 343.97L511.16 343.97Z" />
	<path id="Layer" class="shp1" d="M319.75 301.06L285.8 301.06C285.77 301.06 285.74 301.06 285.7 301.06L223.29 301.06L223.29 205.15L267.72 149.54C267.72 149.54 315.39 89.87 341.31 57.42C332.42 54.16 324.41 51.73 320.29 50.54C320.07 50.47 319.85 50.41 319.63 50.36C316.91 49.7 313.67 49.1 309.99 48.57L256 116.14L202.01 48.57C198.33 49.1 195.09 49.7 192.37 50.36C192.15 50.41 191.93 50.47 191.71 50.54C187.59 51.73 179.58 54.16 170.69 57.42L236.8 140.18L196.57 190.53C194.45 193.19 193.29 196.49 193.29 199.89L193.29 301.06L133.96 301.06L132.83 331.06L193.29 331.06L193.29 466.92L223.29 466.92L223.29 331.06L267.39 331.06L263.28 351.13C261.62 359.25 266.85 367.18 274.97 368.84C275.98 369.04 276.99 369.14 277.99 369.14C284.97 369.14 291.22 364.25 292.67 357.15L298.01 331.06L307.53 331.06L316.41 374.47C317.87 381.57 324.12 386.46 331.09 386.46C332.09 386.46 333.11 386.36 334.12 386.16C342.23 384.5 347.46 376.57 345.8 368.45L338.15 331.06L379.18 331.06L378.04 301.06L319.81 301.06C319.79 301.06 319.77 301.06 319.75 301.06L319.75 301.06Z" />
	<g id="Layer">
		<path id="Layer" class="shp1" d="M267.72 149.54C267.72 149.54 315.39 89.87 341.31 57.42C332.42 54.17 324.41 51.73 320.29 50.54C320.07 50.47 319.85 50.41 319.63 50.36C316.91 49.7 313.67 49.11 309.99 48.57L256 116.15L256 164.21L267.72 149.54Z" />
		<path id="Layer" class="shp1" d="M338.15 331.06L379.17 331.06L378.04 301.06L319.81 301.06C319.79 301.06 319.77 301.06 319.75 301.06L285.8 301.06C285.77 301.06 285.73 301.06 285.7 301.06L256 301.06L256 331.06L267.39 331.06L263.28 351.13C261.62 359.25 266.85 367.18 274.96 368.84C275.98 369.04 276.99 369.14 277.99 369.14C284.96 369.14 291.21 364.25 292.67 357.15L298.01 331.06L307.53 331.06L316.41 374.47C317.87 381.57 324.11 386.46 331.09 386.46C332.09 386.46 333.1 386.36 334.11 386.16C342.23 384.5 347.46 376.57 345.8 368.45L338.15 331.06Z" />
	</g>
</svg>