<svg xmlns="http://www.w3.org/2000/svg" viewBox="0 0 491 512" width="491" height="512">
	<style>
		tspan { white-space:pre }
		.shp0 { fill: #8f8f8f } 
		.shp1 { fill: #a5a5a5 } 
	</style>
	<path id="Layer" class="shp0" d="M414.25 433.21C381.25 424.21 343.94 414.07 312.77 397.21C277.77 378.21 258.12 354.59 252.83 324.94C239.26 248.88 241.02 73.47 241.88 21.53C241.94 18.87 241.48 16.21 240.53 13.73C239.57 11.24 238.14 8.96 236.31 7.02C234.48 5.08 232.29 3.52 229.86 2.42C227.43 1.33 224.81 0.71 222.15 0.62C198.24 -0.33 151.86 -1 109.78 5.08C53.78 13.2 24.08 30.93 21.4 57.77C21.39 57.89 21.38 58 21.37 58.12C21.37 58.24 21.37 58.36 21.37 58.47C21.37 58.59 21.37 58.71 21.37 58.83C21.38 58.95 21.39 59.06 21.4 59.18C21.53 60.68 34.57 209.27 34.57 236.32C34.57 289.37 22.06 339.32 12.01 379.48C5.42 405.81 0.21 426.61 0.21 441.55C0.21 444.55 0.15 447.49 0.1 450.29C-0.18 465.23 -0.42 478.13 9.25 487.99C26.14 505.19 66.96 509.39 217.25 509.39C273.91 509.39 318.62 510.34 354.54 511.09C378.17 511.59 397.54 512 413.54 512C453.48 512 472.19 509.45 482.54 499.36C490.01 492.04 490.88 482.21 490.88 475.45C490.88 454.05 458.76 445.31 414.29 433.21L414.25 433.21Z" />
	<path id="Layer" class="shp0" d="M414.25 433.21C381.25 424.21 343.94 414.07 312.77 397.21C277.77 378.21 258.12 354.59 252.83 324.94C239.26 248.88 241.02 73.47 241.88 21.53C241.94 18.87 241.48 16.21 240.53 13.73C239.57 11.24 238.14 8.96 236.31 7.02C234.48 5.08 232.29 3.52 229.86 2.42C227.43 1.33 224.81 0.71 222.15 0.62C211.5 0.2 196.36 -0.17 179.14 0.09C186.76 0.2 193.52 0.41 199.06 0.62C201.72 0.71 204.34 1.32 206.77 2.42C209.2 3.52 211.39 5.08 213.22 7.02C215.05 8.95 216.48 11.23 217.44 13.72C218.39 16.21 218.85 18.86 218.79 21.52C217.93 73.46 216.18 248.87 229.79 324.93C235.09 354.58 254.69 378.22 289.73 397.2C320.9 414.07 358.26 424.2 391.21 433.2C435.68 445.3 467.82 454.04 467.8 475.44C467.8 482.2 466.94 492.03 459.46 499.35C450.11 508.5 433.84 511.45 401.09 511.92C405.47 511.97 409.64 511.99 413.59 511.99C453.53 511.99 472.24 509.44 482.59 499.35C490.06 492.03 490.93 482.2 490.93 475.44C490.93 454.04 458.81 445.3 414.34 433.2L414.25 433.21Z" />
	<path id="Layer" class="shp1" d="M106.64 227.81L116.64 227.81C117.38 227.55 118.07 227.17 118.69 226.7C119.31 226.22 119.85 225.65 120.29 225.01C120.74 224.37 121.08 223.66 121.31 222.92C121.54 222.17 121.65 221.39 121.64 220.61C121.44 208.61 120.72 190.5 120.1 177.07L105.34 177.07C105.33 177.15 105.33 177.24 105.32 177.32C105.32 177.4 105.32 177.49 105.32 177.57C105.32 177.65 105.32 177.74 105.32 177.82C105.33 177.9 105.33 177.99 105.34 178.07C105.88 190.64 106.41 215 106.64 227.81Z" />
	<path id="Layer" class="shp1" d="M110.2 146.22C109.26 146.22 108.32 146.04 107.44 145.7C106.57 145.35 105.76 144.84 105.07 144.2C104.38 143.55 103.82 142.79 103.41 141.93C103.01 141.08 102.77 140.16 102.7 139.22C101.79 126.63 100.7 113.52 99.5 100.22C99.32 98.23 99.94 96.25 101.22 94.72C102.5 93.18 104.33 92.22 106.32 92.04C108.31 91.86 110.29 92.48 111.82 93.76C113.36 95.04 114.32 96.87 114.5 98.86C115.71 112.22 116.8 125.42 117.71 138.1C117.78 139.09 117.66 140.08 117.34 141.02C117.03 141.97 116.54 142.84 115.89 143.58C115.23 144.33 114.44 144.95 113.55 145.39C112.67 145.83 111.7 146.09 110.71 146.16L110.2 146.22Z" />
	<path id="Layer" class="shp1" d="M102.62 63.56C101.7 63.56 100.79 63.39 99.93 63.06C99.08 62.73 98.29 62.25 97.6 61.64C96.92 61.03 96.36 60.29 95.94 59.48C95.52 58.66 95.25 57.77 95.15 56.86C92.42 32 90.25 15.86 90.22 15.73C90.02 13.78 90.58 11.83 91.79 10.29C93 8.75 94.77 7.75 96.71 7.49C98.65 7.23 100.62 7.73 102.19 8.9C103.76 10.06 104.82 11.8 105.14 13.73C105.14 13.89 107.36 30.17 110.14 55.23C110.25 56.21 110.16 57.2 109.88 58.15C109.61 59.09 109.15 59.98 108.53 60.75C107.91 61.51 107.15 62.16 106.29 62.63C105.43 63.11 104.48 63.41 103.5 63.52C103.43 63.53 103.35 63.53 103.28 63.54C103.21 63.54 103.13 63.55 103.06 63.55C102.99 63.56 102.91 63.56 102.84 63.56C102.77 63.56 102.69 63.56 102.62 63.56Z" />
	<path id="Layer" class="shp1" d="M243.15 208.51L117.88 221.37C112.11 221.97 106.81 224.83 103.14 229.33C99.48 233.83 97.76 239.6 98.35 245.37C98.94 251.15 101.8 256.45 106.3 260.11C110.81 263.77 116.58 265.5 122.35 264.91L245.25 252.29C244.38 238.23 243.7 223.5 243.15 208.51Z" />
	<path id="Layer" class="shp1" d="M153.65 266.86C152.73 266.86 151.82 266.69 150.97 266.36C150.11 266.04 149.32 265.56 148.64 264.95C147.96 264.33 147.39 263.6 146.97 262.79C146.55 261.98 146.28 261.09 146.18 260.18L141.5 218.67C141.3 216.68 141.87 214.69 143.12 213.13C144.37 211.57 146.18 210.57 148.17 210.35C150.15 210.13 152.14 210.71 153.7 211.95C155.26 213.2 156.26 215.02 156.48 217L161.17 258.51C161.28 259.49 161.2 260.49 160.92 261.44C160.65 262.39 160.19 263.27 159.57 264.05C158.96 264.82 158.19 265.47 157.33 265.95C156.46 266.42 155.51 266.73 154.53 266.84C154.46 266.84 154.39 266.85 154.32 266.85C154.25 266.85 154.18 266.85 154.11 266.85C154.03 266.85 153.96 266.85 153.89 266.85C153.82 266.85 153.75 266.84 153.68 266.84L153.65 266.86Z" />
	<path id="Layer" class="shp1" d="M31.96 189.38L152.65 177C158.39 176.37 163.65 173.49 167.28 169C170.91 164.51 172.62 158.76 172.03 153.02C171.44 147.27 168.6 141.99 164.13 138.33C159.66 134.67 153.93 132.92 148.18 133.47L28.63 145.72C29.82 160.67 30.98 175.76 31.96 189.38Z" />
	<path id="Layer" class="shp1" d="M142.55 183.89C141.63 183.89 140.73 183.72 139.87 183.39C139.01 183.06 138.23 182.58 137.54 181.97C136.86 181.36 136.29 180.63 135.87 179.82C135.45 179 135.18 178.12 135.08 177.21L130.42 135.7C130.21 133.71 130.79 131.72 132.04 130.16C133.28 128.6 135.1 127.6 137.08 127.38C139.07 127.15 141.06 127.73 142.62 128.98C144.18 130.22 145.18 132.04 145.4 134.02L150.09 175.52C150.2 176.5 150.12 177.5 149.84 178.45C149.57 179.4 149.11 180.28 148.49 181.06C147.88 181.83 147.11 182.48 146.25 182.96C145.38 183.43 144.43 183.74 143.45 183.85C143.38 183.86 143.3 183.86 143.23 183.87C143.15 183.87 143.08 183.88 143 183.88C142.93 183.89 142.85 183.89 142.78 183.89C142.7 183.89 142.63 183.89 142.55 183.89L142.55 183.89Z" />
	<path id="Layer" class="shp1" d="M241.58 43.23C241.23 43.2 240.87 43.17 240.51 43.15C240.16 43.13 239.8 43.13 239.44 43.13C239.09 43.13 238.73 43.13 238.38 43.15C238.02 43.17 237.66 43.2 237.31 43.23L95.22 57.83C89.42 58.38 84.07 61.23 80.38 65.74C76.68 70.25 74.94 76.05 75.54 81.85C76.13 87.65 79.02 92.97 83.55 96.63C88.09 100.29 93.9 102 99.69 101.36L241.3 86.82C241.32 70.37 241.44 55.53 241.58 43.23Z" />
	<path id="Layer" class="shp1" d="M146.21 100.59C145.29 100.59 144.38 100.42 143.53 100.09C142.67 99.76 141.88 99.28 141.2 98.67C140.52 98.06 139.95 97.33 139.53 96.51C139.11 95.7 138.84 94.81 138.74 93.9L134.08 52.39C133.87 50.4 134.45 48.41 135.7 46.85C136.94 45.29 138.76 44.29 140.74 44.07C142.73 43.84 144.72 44.42 146.28 45.67C147.84 46.91 148.84 48.73 149.06 50.71L153.75 92.21C153.86 93.19 153.78 94.19 153.5 95.14C153.23 96.09 152.77 96.97 152.15 97.75C151.54 98.52 150.77 99.17 149.91 99.65C149.04 100.12 148.09 100.43 147.11 100.54C147.04 100.55 146.96 100.56 146.89 100.56C146.81 100.57 146.74 100.57 146.66 100.58C146.59 100.58 146.51 100.58 146.44 100.59C146.36 100.59 146.29 100.59 146.21 100.59Z" />
	<path id="Layer" class="shp1" d="M109.35 448.12C90.35 421.37 100.68 382.12 112.59 336.59L112.86 335.59C117.39 318.28 120.55 292.98 121.6 263.66C121.75 259.5 118.17 257.66 114.01 257.52L113.68 257.52L106.33 257.52L106.33 257.52C105.33 285.74 102.55 315.52 98.33 331.78L98.06 332.78C85.19 381.92 74.06 424.35 97.06 456.83C108.92 473.57 129.29 493.69 159.41 509.12C172.17 509.26 186.02 509.35 201.05 509.38C152.99 495.38 123.43 468 109.35 448.13L109.35 448.12Z" />
</svg>