<svg id="Layer_1" data-name="Layer 1" xmlns="http://www.w3.org/2000/svg" width="512" height="421.42" viewBox="0 0 512 421.42"><defs><style>.cls-1{fill:#356ec0;}.cls-2{fill:#a5a5a5;}</style></defs><title>wizard_robes_blue</title><path id="Layer" class="cls-1" d="M368.73,466.92H143.27a15,15,0,0,1-15-15.57l7.11-187.72L83.88,375.77A15,15,0,0,1,65,383.56L9.76,363A15,15,0,0,1,.84,344c.52-1.49,13.2-37.52,52.54-124.31C78.15,165,122.43,88.69,134.91,76.2c12-12,46.51-22.68,56.8-25.66q.33-.1.66-.18c12.6-3,36.38-4.86,63.63-4.86s51,1.82,63.63,4.86q.33.07.66.18c10.29,3,44.8,13.66,56.8,25.66,12.48,12.49,56.76,88.78,81.54,143.46,39.33,86.79,52,122.82,52.53,124.31a15,15,0,0,1-8.93,19L447,383.56a15,15,0,0,1-18.87-7.79l-51.5-112.14,7.1,187.72a15,15,0,0,1-15,15.57Z" transform="translate(0 -45.5)"/><path class="cls-1" d="M511.16,344c-.52-1.49-13.2-37.52-52.53-124.31C433.85,165,389.57,88.69,377.09,76.2c-12-12-46.51-22.68-56.8-25.66q-.33-.1-.66-.18c-12.6-3-36.39-4.86-63.63-4.86V466.92H368.73a15,15,0,0,0,15-15.57l-7.1-187.72,51.5,112.14A15,15,0,0,0,447,383.56L502.23,363a15,15,0,0,0,8.93-19Z" transform="translate(0 -45.5)"/><path class="cls-2" d="M319.75,301.06H223.29V205.15l44.43-55.61,73.59-92.12c-8.89-3.26-16.9-5.69-21-6.88q-.33-.1-.66-.18c-2.72-.66-6-1.26-9.64-1.79l-54,67.57L202,48.57c-3.68.53-6.92,1.13-9.64,1.79q-.33.07-.66.18c-4.12,1.19-12.13,3.62-21,6.88l66.11,82.76-40.23,50.35a15,15,0,0,0-3.28,9.36V301.06H134l-1.13,30h60.46V466.92h30V331.06h44.1l-4.11,20.07A15,15,0,0,0,275,368.84a15.54,15.54,0,0,0,3,.3,15,15,0,0,0,14.68-12L298,331.06h9.52l8.88,43.41a15,15,0,0,0,14.68,12,15.64,15.64,0,0,0,3-.3,15,15,0,0,0,11.68-17.71l-7.65-37.39h41l-1.14-30H319.75Z" transform="translate(0 -45.5)"/><path class="cls-2" d="M267.72,149.54l73.59-92.12c-8.89-3.25-16.9-5.69-21-6.88q-.33-.1-.66-.18c-2.72-.66-6-1.25-9.64-1.79l-54,67.58v48.06Z" transform="translate(0 -45.5)"/><path class="cls-2" d="M338.15,331.06h41l-1.13-30H256v30h11.39l-4.11,20.07A15,15,0,0,0,275,368.84a15.72,15.72,0,0,0,3,.3,15,15,0,0,0,14.68-12L298,331.06h9.52l8.88,43.41a15,15,0,0,0,14.68,12,15.54,15.54,0,0,0,3-.3,15,15,0,0,0,11.69-17.71Z" transform="translate(0 -45.5)"/></svg>