<svg id="Layer_1" data-name="Layer 1" xmlns="http://www.w3.org/2000/svg" width="459.04" height="512" viewBox="0 0 459.04 512"><defs><style>.cls-1{fill:#2d9d3f;}.cls-2{fill:#a5a5a5;}.cls-3{fill:#35c04b;}</style></defs><title>wizard_bottoms_green</title><path id="Layer" class="cls-1" d="M264.86,53H247.14a17.63,17.63,0,0,1-17.62-17.62V17.62A17.62,17.62,0,0,1,247.14,0h17.72a17.62,17.62,0,0,1,17.62,17.62V35.35A17.63,17.63,0,0,1,264.86,53Z" transform="translate(-26.48)"/><path class="cls-2" d="M229.52,35.34V17.62A17.38,17.38,0,0,1,232,8.83H132.41V44.14H232A17.41,17.41,0,0,1,229.52,35.34Z" transform="translate(-26.48)"/><path class="cls-2" d="M280.05,8.83a17.38,17.38,0,0,1,2.43,8.79V35.35a17.41,17.41,0,0,1-2.43,8.79h99.54V8.83Z" transform="translate(-26.48)"/><path class="cls-3" d="M423.72,326.62c-26.48-79.45-17.65-256-44.13-282.48H280.05A17.55,17.55,0,0,1,264.86,53H247.14A17.54,17.54,0,0,1,232,44.24h-99.6c-26.48,26.49-17.65,203-44.13,282.49,0,0-44.14,123.58-61.8,141.24,0,0,132.42,44,229.52,44v-.11c97.1,0,229.52-44,229.52-44C467.86,450.21,423.72,326.62,423.72,326.62Z" transform="translate(-26.48)"/><path class="cls-1" d="M26.48,467.86A1126,1126,0,0,0,153,500.4c63.47-227.5,22.93-386.25-20.59-456.26-26.48,26.48-17.65,203-44.13,282.48C88.28,326.62,44.14,450.21,26.48,467.86Z" transform="translate(-26.48)"/><path class="cls-1" d="M485.52,467.86A1126,1126,0,0,1,359,500.4c-63.47-227.5-22.93-386.25,20.59-456.26,26.48,26.48,17.65,203,44.13,282.48C423.72,326.62,467.86,450.21,485.52,467.86Z" transform="translate(-26.48)"/></svg>