<svg xmlns="http://www.w3.org/2000/svg" viewBox="0 0 512 422" width="512" height="422">
	<style>
		tspan { white-space:pre }
		.shp0 { fill: #8f8f8f } 
		.shp1 { fill: #f4bd0b } 
	</style>
	<path id="Layer" class="shp0" d="M368.73 421.42L143.27 421.42C141.25 421.42 139.25 421.02 137.39 420.23C135.54 419.44 133.86 418.28 132.46 416.83C131.06 415.37 129.96 413.65 129.24 411.77C128.52 409.88 128.19 407.87 128.27 405.85L135.38 218.13L83.88 330.27C83.1 331.98 82 333.52 80.65 334.82C79.29 336.12 77.71 337.16 75.97 337.87C74.23 338.59 72.38 338.97 70.5 339.01C68.63 339.04 66.76 338.72 65 338.06L9.76 317.5C7.94 316.82 6.27 315.79 4.84 314.48C3.41 313.16 2.25 311.58 1.42 309.82C0.6 308.06 0.12 306.16 0.02 304.22C-0.08 302.28 0.2 300.33 0.84 298.5C1.36 297.01 14.04 260.98 53.38 174.19C78.15 119.5 122.43 43.19 134.91 30.7C146.91 18.7 181.42 8.02 191.71 5.04C191.93 4.97 192.15 4.91 192.37 4.86C204.97 1.86 228.75 0 256 0C283.25 0 307 1.82 319.63 4.86C319.85 4.91 320.07 4.97 320.29 5.04C330.58 8.04 365.09 18.7 377.09 30.7C389.57 43.19 433.85 119.48 458.63 174.16C497.96 260.95 510.63 296.98 511.16 298.47C511.8 300.31 512.08 302.25 511.98 304.19C511.88 306.13 511.4 308.03 510.57 309.79C509.75 311.55 508.59 313.13 507.15 314.45C505.72 315.77 504.05 316.79 502.23 317.47L447 338.06C445.24 338.72 443.38 339.04 441.5 339C439.62 338.97 437.77 338.59 436.04 337.87C434.3 337.15 432.72 336.12 431.36 334.82C430.01 333.52 428.91 331.98 428.13 330.27L376.63 218.13L383.73 405.85C383.81 407.87 383.48 409.88 382.76 411.77C382.04 413.65 380.94 415.37 379.54 416.83C378.14 418.28 376.46 419.44 374.61 420.23C372.75 421.02 370.75 421.42 368.73 421.42Z" />
	<path id="Layer" class="shp0" d="M511.16 298.5C510.64 297.01 497.96 260.98 458.63 174.19C433.85 119.5 389.57 43.19 377.09 30.7C365.09 18.7 330.58 8.02 320.29 5.04C320.07 4.97 319.85 4.91 319.63 4.86C307.03 1.86 283.24 0 256 0L256 421.42L368.73 421.42C370.75 421.42 372.75 421.02 374.61 420.23C376.46 419.44 378.14 418.28 379.54 416.83C380.94 415.37 382.04 413.65 382.76 411.77C383.48 409.88 383.81 407.87 383.73 405.85L376.63 218.13L428.13 330.27C428.91 331.98 430.01 333.52 431.36 334.82C432.72 336.12 434.3 337.15 436.04 337.87C437.77 338.59 439.62 338.97 441.5 339C443.38 339.04 445.24 338.72 447 338.06L502.23 317.5C504.05 316.82 505.72 315.8 507.15 314.48C508.59 313.16 509.75 311.58 510.57 309.82C511.4 308.06 511.88 306.16 511.98 304.22C512.08 302.28 511.8 300.34 511.16 298.5Z" />
	<path id="Layer" class="shp1" d="M319.75 255.56L223.29 255.56L223.29 159.65L267.72 104.04L341.31 11.92C332.42 8.66 324.41 6.23 320.31 5.04C320.09 4.97 319.87 4.91 319.65 4.86C316.93 4.2 313.65 3.6 310.01 3.07L256.01 70.64L202 3.07C198.32 3.6 195.08 4.2 192.36 4.86C192.14 4.91 191.92 4.97 191.7 5.04C187.58 6.23 179.57 8.66 170.7 11.92L236.81 94.68L196.58 145.03C196.05 145.69 195.58 146.39 195.18 147.13C194.77 147.87 194.42 148.64 194.14 149.43C193.87 150.23 193.65 151.04 193.51 151.87C193.37 152.71 193.3 153.55 193.3 154.39L193.3 255.56L134 255.56L132.87 285.56L193.33 285.56L193.33 421.42L223.33 421.42L223.33 285.56L267.43 285.56L263.32 305.63C262.92 307.56 262.91 309.55 263.28 311.48C263.66 313.42 264.41 315.26 265.49 316.9C266.58 318.55 267.97 319.96 269.61 321.07C271.24 322.17 273.07 322.94 275 323.34C275.25 323.39 275.49 323.43 275.74 323.47C275.99 323.51 276.24 323.54 276.49 323.56C276.74 323.59 276.99 323.61 277.25 323.62C277.5 323.63 277.75 323.64 278 323.64C279.71 323.64 281.42 323.34 283.03 322.77C284.65 322.19 286.15 321.34 287.48 320.25C288.8 319.17 289.94 317.86 290.82 316.4C291.71 314.93 292.34 313.32 292.68 311.64L298 285.56L307.52 285.56L316.4 328.97C316.74 330.65 317.37 332.26 318.26 333.73C319.14 335.19 320.28 336.5 321.6 337.58C322.93 338.67 324.43 339.52 326.05 340.1C327.66 340.67 329.37 340.97 331.08 340.97C331.33 340.97 331.58 340.96 331.83 340.95C332.09 340.94 332.34 340.92 332.59 340.89C332.84 340.87 333.09 340.84 333.34 340.8C333.59 340.76 333.83 340.72 334.08 340.67C336.01 340.27 337.84 339.5 339.47 338.4C341.11 337.29 342.5 335.88 343.59 334.23C344.67 332.59 345.42 330.75 345.8 328.81C346.17 326.88 346.16 324.89 345.76 322.96L338.11 285.57L379.11 285.57L377.97 255.57L319.75 255.57L319.75 255.56Z" />
	<path id="Layer" class="shp1" d="M267.72 104.04L341.31 11.92C332.42 8.67 324.41 6.23 320.31 5.04C320.09 4.97 319.87 4.91 319.65 4.86C316.93 4.2 313.65 3.61 310.01 3.07L256.01 70.65L256.01 118.71L267.72 104.04Z" />
	<path id="Layer" class="shp1" d="M338.15 285.56L379.15 285.56L378.02 255.56L256 255.56L256 285.56L267.39 285.56L263.28 305.63C262.88 307.56 262.87 309.55 263.25 311.49C263.62 313.43 264.38 315.27 265.47 316.92C266.56 318.56 267.96 319.98 269.59 321.08C271.23 322.18 273.07 322.95 275 323.34C275.25 323.39 275.49 323.43 275.74 323.47C275.99 323.51 276.24 323.54 276.49 323.56C276.74 323.59 276.99 323.61 277.25 323.62C277.5 323.63 277.75 323.64 278 323.64C279.71 323.64 281.42 323.34 283.03 322.77C284.65 322.19 286.15 321.34 287.48 320.25C288.8 319.17 289.94 317.86 290.82 316.4C291.71 314.93 292.34 313.32 292.68 311.64L298 285.56L307.52 285.56L316.4 328.97C316.74 330.65 317.37 332.26 318.26 333.73C319.14 335.19 320.28 336.5 321.6 337.58C322.93 338.67 324.43 339.52 326.05 340.1C327.66 340.67 329.37 340.97 331.08 340.97C331.33 340.97 331.58 340.96 331.83 340.95C332.09 340.94 332.34 340.92 332.59 340.89C332.84 340.87 333.09 340.84 333.34 340.8C333.59 340.76 333.83 340.72 334.08 340.67C336.01 340.28 337.84 339.5 339.48 338.4C341.11 337.3 342.51 335.88 343.59 334.24C344.68 332.59 345.43 330.75 345.8 328.82C346.18 326.88 346.17 324.89 345.77 322.96L338.15 285.56Z" />
</svg>