<svg id="Layer_1" data-name="Layer 1" xmlns="http://www.w3.org/2000/svg" width="490.84" height="512" viewBox="0 0 490.84 512"><defs><style>.cls-1{fill:#35c04b;}.cls-2{fill:#f4bd0b;}</style></defs><title>wizard_boots_green</title><path id="Layer" class="cls-1" d="M424.75,433.21c-33-9-70.31-19.14-101.48-36-35-19-54.65-42.62-59.94-72.27-13.57-76.06-11.81-251.47-10.95-303.41A20.45,20.45,0,0,0,232.65.62C208.74-.33,162.36-1,120.28,5.08c-56,8.12-85.7,25.85-88.38,52.69a7.38,7.38,0,0,0,0,1.41c.13,1.5,13.17,150.09,13.17,177.14,0,53.05-12.51,103-22.56,143.16-6.59,26.33-11.8,47.13-11.8,62.07,0,3-.06,5.94-.11,8.74-.28,14.94-.52,27.84,9.15,37.7,16.89,17.2,57.71,21.4,208,21.4,56.66,0,101.37.95,137.29,1.7,23.63.5,43,.91,59,.91,39.94,0,58.65-2.55,69-12.64,7.47-7.32,8.34-17.15,8.34-23.91,0-21.4-32.12-30.14-76.59-42.24Z" transform="translate(-10.5 0)"/><path class="cls-1" d="M424.75,433.21c-33-9-70.31-19.14-101.48-36-35-19-54.65-42.62-59.94-72.27-13.57-76.06-11.81-251.47-10.95-303.41A20.45,20.45,0,0,0,232.65.62C222,.2,206.86-.17,189.64.09c7.62.11,14.38.32,19.92.53a20.44,20.44,0,0,1,19.73,20.9c-.86,51.94-2.61,227.35,11,303.41,5.3,29.65,24.9,53.29,59.94,72.27,31.17,16.87,68.53,27,101.48,36,44.47,12.1,76.61,20.84,76.59,42.24,0,6.76-.86,16.59-8.34,23.91-9.35,9.15-25.62,12.1-58.37,12.57q6.57.07,12.5.07c39.94,0,58.65-2.55,69-12.64,7.47-7.32,8.34-17.15,8.34-23.91,0-21.4-32.12-30.14-76.59-42.24Z" transform="translate(-10.5 0)"/><path class="cls-2" d="M117.14,227.81h10a7.54,7.54,0,0,0,5-7.2c-.2-12-.92-30.11-1.54-43.54H115.84a5.68,5.68,0,0,0,0,1C116.38,190.64,116.91,215,117.14,227.81Z" transform="translate(-10.5 0)"/><path class="cls-2" d="M120.7,146.22a7.52,7.52,0,0,1-7.5-7c-.91-12.59-2-25.7-3.2-39a7.53,7.53,0,0,1,15-1.36c1.21,13.36,2.3,26.56,3.21,39.24a7.53,7.53,0,0,1-7,8.06Z" transform="translate(-10.5 0)"/><path class="cls-2" d="M113.12,63.56a7.52,7.52,0,0,1-7.47-6.7c-2.73-24.86-4.9-41-4.93-41.13a7.53,7.53,0,0,1,14.92-2c0,.16,2.22,16.44,5,41.5A7.53,7.53,0,0,1,114,63.52,7.81,7.81,0,0,1,113.12,63.56Z" transform="translate(-10.5 0)"/><path class="cls-2" d="M253.65,208.51,128.38,221.37a21.88,21.88,0,0,0,4.47,43.54l122.9-12.62C254.88,238.23,254.2,223.5,253.65,208.51Z" transform="translate(-10.5 0)"/><path class="cls-2" d="M164.15,266.86a7.52,7.52,0,0,1-7.47-6.68L152,218.67A7.53,7.53,0,1,1,167,217l4.67,41.51a7.54,7.54,0,0,1-6.64,8.33,8.19,8.19,0,0,1-.85,0Z" transform="translate(-10.5 0)"/><path class="cls-2" d="M42.46,189.38,163.15,177a21.88,21.88,0,0,0-4.47-43.53L39.13,145.72C40.32,160.67,41.48,175.76,42.46,189.38Z" transform="translate(-10.5 0)"/><path class="cls-2" d="M153.05,183.89a7.53,7.53,0,0,1-7.47-6.68l-4.66-41.51a7.53,7.53,0,1,1,15-1.68l4.67,41.5a7.54,7.54,0,0,1-6.64,8.33A8.25,8.25,0,0,1,153.05,183.89Z" transform="translate(-10.5 0)"/><path class="cls-2" d="M252.08,43.23a21.76,21.76,0,0,0-4.27,0L105.72,57.83a21.88,21.88,0,1,0,4.47,43.53L251.8,86.82C251.82,70.37,251.94,55.53,252.08,43.23Z" transform="translate(-10.5 0)"/><path class="cls-2" d="M156.71,100.59a7.53,7.53,0,0,1-7.47-6.69l-4.66-41.51a7.53,7.53,0,1,1,15-1.68l4.67,41.5a7.54,7.54,0,0,1-6.64,8.33A8.27,8.27,0,0,1,156.71,100.59Z" transform="translate(-10.5 0)"/><path class="cls-2" d="M119.85,448.12c-19-26.75-8.67-66,3.24-111.53l.27-1c4.53-17.31,7.69-42.61,8.74-71.93.15-4.16-3.43-6-7.59-6.14l-.33,0h-7.35v0c-1,28.22-3.78,58-8,74.26l-.27,1c-12.87,49.14-24,91.57-1,124.05,11.86,16.74,32.23,36.86,62.35,52.29,12.76.14,26.61.23,41.64.26-48.06-14-77.62-41.38-91.7-61.25Z" transform="translate(-10.5 0)"/></svg>