<svg xmlns="http://www.w3.org/2000/svg" viewBox="0 0 512 512" width="512" height="512">
	<style>
		tspan { white-space:pre }
		.shp0 { fill: #242424 } 
		.shp1 { fill: #3d3d3d } 
		.shp2 { fill: #e9573f } 
		.shp3 { fill: #d6d6d6 } 
		.shp4 { fill: #000000 } 
	</style>
	<path id="Layer" fill-rule="evenodd" class="shp0" d="M448 79.58L448 89.9C448 155.37 438.61 217.03 420.1 273.18C405.21 318.35 384.42 360.06 358.3 397.15C313.42 460.88 268.28 488.98 266.38 490.15L256 496.51L245.63 490.15C243.73 488.98 198.58 460.88 153.7 397.15C127.58 360.06 106.79 318.35 91.9 273.18C73.39 217.03 64 155.37 64 89.9L64 79.58L72.44 73.66C75.8 71.3 155.8 15.95 256 15.95C356.19 15.95 436.2 71.3 439.55 73.66L448 79.58ZM408.22 100.74C388.57 88.95 337.19 61.62 275.84 56.48L275.84 117.48C293.69 119.44 312.29 123.97 331.37 131.06L345.94 136.46L344.18 151.9C336.45 219.95 315.47 280.24 281.84 331.1C279.89 334.04 277.88 336.94 275.84 339.82L275.84 432.01C291.23 417.61 309.58 397.67 327.06 372.58C350.62 338.74 369.4 300.66 382.86 259.38C398.74 210.71 407.26 157.39 408.22 100.74ZM186.15 374.29C204.08 399.76 221.89 418.76 236.16 432.04L236.16 339.82C234.12 336.94 232.11 334.03 230.16 331.09C196.51 280.22 175.53 219.9 167.81 151.81L166.05 136.38L180.61 130.97C199.61 123.91 218.21 119.4 236.16 117.46L236.16 56.48C174.81 61.62 123.42 88.95 103.78 100.74C104.75 157.93 113.42 211.71 129.59 260.76C143.25 302.21 162.28 340.41 186.15 374.29ZM256 297.68C279.48 258.62 295.13 213.53 302.66 163.3C286.27 158.48 270.63 156.04 256 156.04C241.26 156.04 225.61 158.45 209.33 163.22C216.85 213.49 232.51 258.6 256 297.68Z" />
	<g id="Layer">
		<path id="SVGCleanerId_0_1_" fill-rule="evenodd" class="shp1" d="M448 79.59L448 89.9C448 155.37 438.61 217.03 420.1 273.18C405.21 318.36 384.42 360.06 358.3 397.15C313.42 460.88 268.27 488.98 266.37 490.15L256 496.51L255.71 496.34L255.71 297.19C255.81 297.35 255.9 297.52 256 297.68C279.48 258.62 295.13 213.53 302.66 163.3C286.27 158.48 270.63 156.04 256 156.04C255.9 156.04 255.8 156.05 255.71 156.05L255.71 15.95C255.81 15.95 255.9 15.95 256 15.95C356.19 15.95 436.2 71.3 439.55 73.66L448 79.59ZM408.22 100.74C388.57 88.95 337.19 61.62 275.84 56.48L275.84 117.48C293.69 119.44 312.29 123.97 331.37 131.06L345.94 136.46L344.18 151.9C336.45 219.95 315.47 280.24 281.84 331.1C279.89 334.04 277.88 336.94 275.84 339.82L275.84 432.01C291.23 417.61 309.58 397.67 327.06 372.58C350.62 338.74 369.4 300.66 382.86 259.38C398.74 210.71 407.26 157.39 408.22 100.74Z" />
		<path id="Layer" class="shp2" d="M425.45 87.69C422.35 85.52 348.49 34.42 256 34.42C163.5 34.42 89.65 85.52 86.55 87.69L78.76 93.16L78.76 102.68C78.76 163.12 87.42 220.04 104.51 271.88C118.26 313.58 137.45 352.08 161.56 386.31C202.99 445.15 244.67 471.09 246.42 472.17L256 478.04L265.58 472.17C267.33 471.09 309.01 445.15 350.44 386.31C374.55 352.08 393.74 313.58 407.49 271.88C424.58 220.04 433.24 163.12 433.24 102.68L433.24 93.16L425.45 87.69Z" />
		<path id="Layer" class="shp2" d="M251.22 145.1C248.84 145.1 246.7 143.44 246.19 141.01L244.04 130.74C243.46 127.96 245.23 125.24 248.01 124.66C250.79 124.07 253.51 125.86 254.1 128.63L256.25 138.91C256.83 141.68 255.06 144.41 252.28 144.99C251.93 145.06 251.57 145.1 251.22 145.1Z" />
		<path id="Layer" class="shp3" d="M230.68 350.58C229.22 350.58 227.79 349.97 226.78 348.81C225.14 346.9 225.12 344.08 226.74 342.15C226.96 341.88 246.31 318.67 261.17 291.51C274 268.05 286.06 236.85 271.61 220.25L264.3 218.08L237.72 275.68C237.02 277.19 235.64 278.27 234 278.57C232.37 278.88 230.69 278.38 229.49 277.23L218.68 266.81L193.95 307.04C192.98 308.62 191.23 309.56 189.38 309.49C187.53 309.41 185.86 308.35 185.01 306.7C154.23 246.82 147.91 201.25 166.21 171.26C175.11 156.7 189.51 146.24 209.02 140.21C224.48 135.42 239.23 134.71 246.65 134.71C249.69 134.71 251.5 134.83 251.57 134.83C254.08 135.01 256.1 136.96 256.34 139.47C256.34 139.53 257.06 146.64 259.5 154.94C262.32 164.55 266.24 171.78 270.9 175.98C272.57 174.91 276.86 171.4 285.3 160.07C289.16 154.9 292.6 149.8 294.6 146.77L271.4 111.99C270.04 109.94 270.31 107.22 272.06 105.49C273.81 103.76 276.53 103.51 278.57 104.89L325.68 136.96C326.1 137.24 326.47 137.59 326.79 137.99L345.24 160.94L350.27 163.05C351.64 163.63 352.69 164.76 353.16 166.18L356.69 176.87C357.48 179.26 356.43 181.85 354.21 183.03L344.49 188.17C343.1 188.91 341.45 188.96 340.01 188.33L318.91 179C317.81 178.51 316.92 177.67 316.39 176.6L313.63 171.08L306.33 179.96L306.8 185.66C321.41 202.22 327.39 220.68 324.58 240.56C322.67 254.14 316.58 268.39 306.51 282.91C298.59 294.31 288.19 305.93 275.59 317.45C254.25 336.96 234.2 349.31 233.36 349.83C232.52 350.34 231.6 350.58 230.68 350.58Z" />
		<g id="Layer" style="opacity: 0.102">
			<path id="Layer" class="shp4" d="M356.69 176.87L353.16 166.18C352.69 164.76 351.64 163.63 350.27 163.05L345.24 160.94L326.79 137.99C326.47 137.59 326.1 137.24 325.68 136.96L278.57 104.89C276.91 103.76 274.78 103.73 273.1 104.69C273.21 104.76 273.32 104.82 273.43 104.89L320.54 136.96C320.96 137.24 321.33 137.59 321.65 137.99L340.11 160.94L345.13 163.05C346.5 163.63 347.55 164.76 348.02 166.18L351.55 176.87C352.34 179.26 351.29 181.85 349.08 183.03L339.49 188.1L340.01 188.33C341.45 188.96 343.1 188.91 344.49 188.17L354.21 183.03C356.43 181.85 357.48 179.26 356.69 176.87Z" />
			<path id="Layer" class="shp4" d="M306.33 179.96L313.64 171.08L311.69 167.2L301.19 179.96L301.67 185.66C316.27 202.22 322.25 220.68 319.45 240.56C317.53 254.14 311.45 268.39 301.37 282.91C293.45 294.31 283.06 305.93 270.46 317.45C249.12 336.96 229.06 349.31 228.22 349.83C228.18 349.85 228.15 349.88 228.1 349.9C228.89 350.35 229.78 350.58 230.68 350.58C231.6 350.58 232.53 350.34 233.36 349.83C234.2 349.31 254.25 336.96 275.59 317.45C288.19 305.93 298.59 294.31 306.51 282.91C316.59 268.39 322.67 254.14 324.59 240.56C327.39 220.68 321.41 202.22 306.8 185.66L306.33 179.96Z" />
		</g>
		<g id="Layer">
			<path id="Layer" class="shp2" d="M189.57 247.84C187.22 247.84 185.09 246.21 184.56 243.82C178.31 215.49 181.83 192.81 195.03 176.39C215.8 150.55 252.61 150.23 254.27 150.23L254.28 150.23C257.11 150.24 259.41 152.53 259.41 155.38C259.41 158.21 257.11 160.51 254.28 160.51C254.27 160.51 254.27 160.51 254.27 160.51C253.95 160.51 220.65 160.84 202.99 182.88C191.88 196.75 189.06 216.5 194.59 241.6C195.21 244.37 193.45 247.11 190.68 247.72C190.31 247.8 189.94 247.84 189.57 247.84Z" />
			<path id="Layer" class="shp2" d="M217.64 227.29C214.81 227.29 212.51 224.99 212.51 222.16C212.5 195.83 225.78 182.3 236.92 175.58C248.79 168.41 260.61 167.43 261.11 167.4C263.94 167.18 266.41 169.3 266.62 172.13C266.84 174.96 264.72 177.43 261.89 177.65C261.8 177.65 251.71 178.53 241.92 184.56C229.22 192.37 222.78 205.02 222.78 222.16C222.78 224.99 220.48 227.29 217.64 227.29Z" />
		</g>
		<path id="Layer" class="shp3" d="M252.62 419.26L252.62 415.67L260.72 415.67L260.72 417.58L256.21 426.89L253.49 426.89L257.77 417.81L254.94 417.81L254.94 419.26L252.62 419.26Z" />
		<path id="Layer" fill-rule="evenodd" class="shp3" d="M256.5 467.23C254.98 467.23 253.86 466.72 253.12 465.71C252.39 464.7 252 463.35 252 461.61C252 459.92 252.39 458.51 253.12 457.5C253.86 456.49 254.98 455.98 256.5 455.98C258.02 455.98 259.14 456.49 259.88 457.5C260.61 458.51 261 459.86 261 461.61C261 463.29 260.61 464.7 259.88 465.71C259.14 466.72 258.02 467.23 256.5 467.23ZM254.92 458.96C254.59 459.64 254.42 460.48 254.42 461.61C254.42 462.67 254.59 463.57 254.92 464.25C255.26 464.92 255.82 465.26 256.5 465.26C257.23 465.26 257.74 464.92 258.07 464.25C258.41 463.57 258.58 462.73 258.58 461.61C258.58 460.54 258.41 459.64 258.07 458.96C257.74 458.29 257.17 457.95 256.5 457.95C255.77 458.01 255.26 458.34 254.92 458.96Z" />
		<path id="Layer" fill-rule="evenodd" class="shp3" d="M256.5 440.23C254.98 440.23 253.86 439.72 253.12 438.71C252.39 437.7 252 436.35 252 434.61C252 432.92 252.39 431.51 253.12 430.5C253.86 429.49 254.98 428.98 256.5 428.98C258.02 428.98 259.14 429.49 259.88 430.5C260.61 431.51 261 432.86 261 434.61C261 436.29 260.61 437.7 259.88 438.71C259.14 439.72 258.02 440.23 256.5 440.23ZM254.92 431.96C254.59 432.64 254.42 433.48 254.42 434.61C254.42 435.67 254.59 436.57 254.92 437.25C255.26 437.92 255.82 438.26 256.5 438.26C257.23 438.26 257.74 437.92 258.07 437.25C258.41 436.57 258.58 435.73 258.58 434.61C258.58 433.54 258.41 432.64 258.07 431.96C257.74 431.29 257.17 430.95 256.5 430.95C255.77 431.01 255.26 431.34 254.92 431.96Z" />
		<path id="Layer" class="shp3" d="M259.51 442.83L259.51 444.97L255.24 444.97L255.24 446.77C255.58 446.66 255.91 446.66 256.36 446.66C257.43 446.66 258.33 446.99 259.06 447.61C259.79 448.23 260.19 449.07 260.19 450.2C260.19 451.27 259.79 452.17 259.01 452.84C258.22 453.52 257.26 453.91 256.08 453.91C254.62 453.91 253.38 453.35 252.37 452.28L253.66 450.48C253.78 450.59 253.89 450.71 254.06 450.82C254.23 450.93 254.51 451.16 254.9 451.38C255.29 451.61 255.74 451.72 256.14 451.72C256.53 451.72 256.93 451.61 257.26 451.32C257.6 451.1 257.77 450.71 257.77 450.2C257.77 449.69 257.6 449.36 257.26 449.07C256.93 448.79 256.48 448.68 255.91 448.68C255.35 448.68 254.73 448.91 254 449.3L252.99 448.23L252.99 442.83L259.51 442.83Z" />
	</g>
</svg>