<svg id="Layer_1" enable-background="new 0 0 510 510" height="512" viewBox="0 0 510 510" width="512" xmlns="http://www.w3.org/2000/svg"><g><path d="m240 117.427v32.573l7.5 10 7.5-10 10-16-10-14.021-7.5-10.611z" fill="#ffe7dd"/><path d="m263 109.368-8 10.573v30.059l7.5 10 7.5-10c0-6.422 0-26.159 0-32.573z" fill="#ffdfb9"/><path d="m180 150c0 24.852-20.145 45-45 45v75h45v180c-14.981 0-30.019 0-45 0v60h120l15-180-15-180c-20.194 0-63.236 0-75 0z" fill="#be4dd8"/><path d="m375 450c-14.981 0-30.019 0-45 0 0-16.651 0-283.349 0-300-20.194 0-63.236 0-75 0v360h120c0-7.259 0-52.693 0-60z" fill="#7a3db4"/><g fill="#c6ea4b"><path d="m255 210c0 2.702-.77 4.523-3.284 7.051-7.657 7.705-26.716 16.992-26.716 40.945 0 23.951 19.086 33.271 26.716 40.947 2.514 2.527 3.284 4.349 3.284 7.052l10-23.999-10-21.684v-4.571l10-25.241z"/><path d="m230.743 429.609c-3.364 5.351-5.743 11.982-5.743 20.391h30v-2.167l10-21.835-10-24.002c0 2.703-.77 4.525-3.284 7.055-5.287 5.316-14.696 10.578-20.973 20.558z"/><path d="m255 305.995c0 2.703-.77 4.524-3.284 7.053-5.301 5.33-14.695 10.575-20.973 20.556-3.364 5.35-5.743 11.981-5.743 20.389 0 23.981 19.189 33.38 26.716 40.949 2.514 2.529 3.284 4.352 3.284 7.055l10-24.002-10-21.495v-5.167l10-21.339z"/></g><path d="m279.257 326.385c3.364-5.35 5.743-11.98 5.743-20.39 0-23.948-19.081-33.265-26.716-40.946-2.514-2.528-3.284-4.35-3.284-7.053v95.996c0-2.702.77-4.523 3.284-7.051 5.271-5.302 14.699-10.582 20.973-20.556z" fill="#00dc7b"/><path d="m285 210c-10.492 0-19.508 0-30 0v47.996c0-2.702.77-4.523 3.284-7.051 7.657-7.705 26.716-16.992 26.716-40.945z" fill="#00dc7b"/><path d="m279.257 422.387c3.364-5.351 5.743-11.981 5.743-20.391 0-23.981-19.189-33.38-26.716-40.949-2.514-2.529-3.284-4.352-3.284-7.055v96.008c0-2.703.77-4.525 3.284-7.055 5.301-5.33 14.697-10.578 20.973-20.558z" fill="#00dc7b"/><path d="m213.143 53.569c-1.99 7.963-3.143 15.552-3.143 21.431 0 24.812 20.186 45 45 45l10-60-10-60c-8.148 0-15.533 3.725-22.092 11.114-9.597 10.815-16.284 28.521-19.765 42.455z" fill="#ffe278"/><path d="m300 75c0-5.879-1.153-13.468-3.143-21.431-3.486-13.954-10.18-31.654-19.766-42.455-6.557-7.389-13.943-11.114-22.091-11.114v120c24.811 0 45-20.187 45-45z" fill="#ffc178"/></g></svg>