<?xml version="1.0" encoding="iso-8859-1"?>
<!-- Generator: Adobe Illustrator 19.0.0, SVG Export Plug-In . SVG Version: 6.00 Build 0)  -->
<svg version="1.1" id="Capa_1" xmlns="http://www.w3.org/2000/svg" xmlns:xlink="http://www.w3.org/1999/xlink" x="0px" y="0px"
	 viewBox="0 0 512 512" style="enable-background:new 0 0 512 512;" xml:space="preserve">
<g>
	<path style="fill:#C94536;" d="M338.441,329.763c-1.71,0-3.384-0.512-4.808-1.458c-18.684-12.427-29.913-33.375-29.904-55.817
		v-3.471c0-4.79,3.888-8.678,8.678-8.678s8.678,3.888,8.678,8.678v3.471c-0.017,16.653,8.305,32.204,22.172,41.42
		c3.966,2.69,4.99,8.088,2.3,12.054C343.951,328.322,341.296,329.745,338.441,329.763z"/>
	<path style="fill:#C94536;" d="M286.373,329.763c-1.71,0-3.384-0.512-4.808-1.458c-18.684-12.427-29.913-33.375-29.904-55.817
		v-3.471c0-4.79,3.888-8.678,8.678-8.678c4.79,0,8.678,3.888,8.678,8.678v3.471c-0.017,16.653,8.305,32.204,22.172,41.42
		c3.966,2.69,4.99,8.088,2.3,12.054C291.883,328.322,289.228,329.745,286.373,329.763z"/>
	<path style="fill:#C94536;" d="M234.305,329.763c-1.71,0-3.384-0.512-4.808-1.458c-18.684-12.427-29.913-33.375-29.904-55.817
		v-3.471c0-4.79,3.888-8.678,8.678-8.678c4.79,0,8.678,3.888,8.678,8.678v3.471c-0.017,16.653,8.305,32.204,22.172,41.42
		c3.966,2.69,4.99,8.088,2.3,12.054C239.816,328.322,237.16,329.745,234.305,329.763z"/>
	<path style="fill:#C94536;" d="M182.237,329.763c-1.71,0-3.384-0.512-4.808-1.458c-18.684-12.427-29.913-33.375-29.904-55.817
		v-3.471c0-4.79,3.888-8.678,8.678-8.678s8.678,3.888,8.678,8.678v3.471c-0.017,16.653,8.305,32.204,22.172,41.42
		c3.966,2.69,4.99,8.088,2.3,12.054C187.748,328.322,185.092,329.745,182.237,329.763z"/>
</g>
<g>
	<path style="fill:#FA962A;" d="M147.525,242.983h-34.712C50.506,242.983,0,192.477,0,130.169S50.506,17.356,112.814,17.356h390.508
		c4.79,0,8.678,3.888,8.678,8.678s-3.888,8.678-8.678,8.678H112.814c-52.719,0-95.458,42.739-95.458,95.458
		s42.739,95.458,95.458,95.458h34.712c4.79,0,8.678,3.888,8.678,8.678S152.316,242.983,147.525,242.983z"/>
	<path style="fill:#FA962A;" d="M216.949,277.695H112.814C50.506,277.695,0,227.189,0,164.881S50.506,52.068,112.814,52.068h390.508
		c4.79,0,8.678,3.888,8.678,8.678s-3.888,8.678-8.678,8.678H112.814c-52.719,0-95.458,42.739-95.458,95.458
		s42.739,95.458,95.458,95.458h104.136c4.79,0,8.678,3.888,8.678,8.678C225.627,273.807,221.739,277.695,216.949,277.695z"/>
</g>
<path style="fill:#F46B27;" d="M450.803,174.011c-32.299-28.282-73.771-43.858-116.701-43.841H60.746
	c15.1,80.505,85.391,138.847,167.303,138.847h119.07c33.549,0,60.746,27.197,60.746,60.746s-27.197,60.746-60.746,60.746h-34.712
	v104.136h13.017c97.974,0.043,179.226-75.819,185.917-173.559c0.304-4.339,0.66-8.626,0.66-13.017l0,0
	C512.009,256.625,489.68,207.707,450.803,174.011z"/>
<g>
	<path style="fill:#F49C70;" d="M393.207,444.65l-5.398-16.488c38.296-12.661,67.471-44.023,77.329-83.135l16.853,4.183
		C470.65,394.11,437.17,430.097,393.207,444.65z"/>
	<path style="fill:#F49C70;" d="M485.879,321.388l-17.356-0.607c0.087-1.336,0.087-2.681,0.087-4.035
		c0-33.966-14.735-66.265-40.396-88.515l11.368-13.112c29.462,25.548,46.384,62.629,46.384,101.628
		C485.966,318.299,485.966,319.844,485.879,321.388z"/>
	<path style="fill:#F49C70;" d="M412.047,216.455c-18.276-11.047-39.233-16.879-60.59-16.861h-13.017v-17.356h13.017
		c24.524-0.017,48.588,6.682,69.58,19.369L412.047,216.455z"/>
</g>
<path style="fill:#75462E;" d="M164.881,173.559c-14.379,0-26.034-11.655-26.034-26.034c0-14.379,11.655-26.034,26.034-26.034
	c14.379,0,26.034,11.655,26.034,26.034C190.915,161.905,179.261,173.559,164.881,173.559z"/>
<g>
	<polygon style="fill:#DE4C3C;" points="303.729,130.169 303.729,269.017 312.407,269.017 321.085,269.017 321.085,130.169 
		312.407,130.169 	"/>
	<path style="fill:#DE4C3C;" d="M405.183,312.407c0.876,2.838,1.545,5.736,1.987,8.678c0.434,2.872,0.668,5.771,0.694,8.678h102.652
		c0.33-2.872,0.625-5.762,0.824-8.678c0.2-2.916,0.39-5.771,0.512-8.678H405.183z"/>
	<path style="fill:#DE4C3C;" d="M450.803,174.011c-2.196-1.909-4.539-3.645-6.821-5.45L343.526,269.017h3.593
		c6.144,0.061,12.245,1.015,18.111,2.838l91.986-91.986C455.116,177.898,452.99,175.911,450.803,174.011z"/>
	<path style="fill:#DE4C3C;" d="M375.01,383.688c-2.794,1.414-5.701,2.621-8.678,3.593l70.352,70.352
		c2.343-1.736,4.747-3.428,7.003-5.276s4.434-3.74,6.587-5.684l-67.688-67.688C380.182,380.737,377.648,382.308,375.01,383.688z"/>
</g>
<polygon style="fill:#E85925;" points="312.407,494.644 312.407,442.576 242.983,494.644 "/>
<path style="fill:#DE4C3C;" d="M225.627,494.644h17.356l69.424-52.068H135.532C154.103,474.789,188.451,494.635,225.627,494.644z"/>
<path style="fill:#E85925;" d="M121.492,390.508c0,18.293,4.842,36.257,14.041,52.068h176.874v-52.068H121.492z"/>
<rect x="303.729" y="390.508" style="fill:#DE4C3C;" width="17.356" height="104.136"/>
<g>
</g>
<g>
</g>
<g>
</g>
<g>
</g>
<g>
</g>
<g>
</g>
<g>
</g>
<g>
</g>
<g>
</g>
<g>
</g>
<g>
</g>
<g>
</g>
<g>
</g>
<g>
</g>
<g>
</g>
</svg>
