<svg xmlns="http://www.w3.org/2000/svg" viewBox="0 0 512 512" width="512" height="512">
	<style>
		tspan { white-space:pre }
		.shp0 { fill: #fcd68d } 
		.shp1 { fill: #eac681 } 
		.shp2 { fill: #5bc95e } 
		.shp3 { fill: #41a843 } 
		.shp4 { fill: #93ed95 } 
		.shp5 { fill: #77cd79 } 
		.shp6 { fill: #d3b477 } 
		.shp7 { fill: #c4a66a } 
	</style>
	<g id="Layer">
		<path id="Layer" fill-rule="evenodd" class="shp0" d="M256 118.27C364.72 118.27 452.86 206.41 452.86 315.13C452.86 423.86 364.72 512 256 512C147.27 512 59.13 423.86 59.13 315.13C59.13 206.41 147.28 118.27 256 118.27ZM256 463.82C338.11 463.82 404.69 397.25 404.69 315.13C404.69 233.02 338.11 166.45 256 166.45C173.88 166.45 107.31 233.02 107.31 315.13C107.31 397.25 173.88 463.82 256 463.82Z" />
		<path id="Layer" class="shp1" d="M452.87 315.13C452.87 423.86 364.72 512 256 512C249.16 512 242.4 511.65 235.75 510.97C334.95 500.82 412.34 417.02 412.34 315.13C412.34 213.25 334.95 129.44 235.75 119.3C242.4 118.62 249.16 118.27 256 118.27C364.72 118.27 452.87 206.41 452.87 315.13L452.87 315.13Z" />
		<path id="Layer" class="shp1" d="M350.59 142.43L341.26 151.08C335.53 156.38 328.07 159.3 320.26 159.3L191.74 159.3C183.93 159.3 176.47 156.38 170.74 151.07L161.42 142.43C189.49 127.03 221.71 118.26 256 118.26C290.28 118.26 322.52 127.03 350.59 142.43L350.59 142.43Z" />
		<g id="Layer">
			<path id="Layer" class="shp2" d="M349.46 56.89L162.54 56.89L206.18 3.76C208.14 1.38 211.05 0 214.13 0L219.43 0L256 44.52L292.57 0L297.86 0C300.95 0 303.86 1.38 305.82 3.76L349.46 56.89Z" />
			<path id="Layer" class="shp3" d="M349.46 56.89L316.49 56.89L281.17 13.89L292.57 0L297.87 0C300.95 0 303.86 1.38 305.82 3.76L349.46 56.89Z" />
			<path id="Layer" class="shp4" d="M302.01 0.88L256 56.89L209.99 0.88C211.28 0.31 212.68 0 214.13 0L297.87 0C299.32 0 300.72 0.31 302.01 0.88L302.01 0.88Z" />
			<path id="Layer" class="shp5" d="M302.01 0.88L286.25 20.07L272.85 3.76C270.89 1.38 267.98 0 264.9 0L297.87 0C299.32 0 300.72 0.31 302.01 0.88L302.01 0.88Z" />
		</g>
		<path id="Layer" class="shp6" d="M356.51 108.87L155.49 108.87L184.74 135.95C186.64 137.72 189.14 138.7 191.74 138.7L320.26 138.7C322.86 138.7 325.36 137.72 327.26 135.95L356.51 108.87Z" />
		<path id="Layer" class="shp7" d="M356.51 108.87L327.26 135.95C325.36 137.72 322.86 138.69 320.26 138.69L271.84 138.69C274.44 138.69 276.94 137.71 278.84 135.95L308.1 108.87L356.51 108.87Z" />
		<g id="Layer">
			<path id="Layer" class="shp0" d="M351.36 115.05L160.64 115.05C157.79 115.05 155.48 112.74 155.48 109.9L155.48 55.86C155.48 53.01 157.79 50.71 160.64 50.71L351.36 50.71C354.21 50.71 356.51 53.01 356.51 55.86L356.51 109.9C356.51 112.74 354.21 115.05 351.36 115.05Z" />
			<path id="Layer" class="shp6" d="M356.51 55.86L356.51 109.9C356.51 112.74 354.21 115.05 351.36 115.05L320.8 115.05C323.64 115.05 325.95 112.74 325.95 109.9L325.95 55.86C325.95 53.01 323.64 50.71 320.8 50.71L351.36 50.71C354.21 50.71 356.51 53.01 356.51 55.86L356.51 55.86Z" />
		</g>
	</g>
</svg>