<svg id="Capa_1" enable-background="new 0 0 512 512" height="512" viewBox="0 0 512 512" width="512" xmlns="http://www.w3.org/2000/svg"><g><path d="m449.258 33.032h-49.548l-6.71 6.484-9.806-6.484c0-9.122-7.395-16.516-16.516-16.516h-49.549l-7.462 6.484-9.054-6.484c0-9.121-7.394-16.516-16.516-16.516h-49.548l-16.516 16.516h-66.064l-6.636 21.484-4 189s20.333 215.581 20.333 240.015l-.666 34.985h257.418l16.684-6.516 4.719-33.032-3.987-8.285 6.347-8.232 3.539-24.773 20.055-239.485v-132.129c-.001-9.121-7.395-16.516-16.517-16.516z" fill="#6f6571"/><path d="m383.667 190.177c-41.047 0-74.323 33.275-74.323 74.323v73.677c0 41.047 33.275 74.323 74.323 74.323h39.833l24.578-7.855 8.732-61.125c5.968-41.778 8.964-83.927 8.964-126.13v-19.197l-20.274-8.016z" fill="#dad8db"/><path d="m176.742 462.452h263.078l2.359-16.516h-262.098c-7.485 0-14.002-5.043-15.891-12.285-1.353-5.187-3.025-10.285-4.997-15.27 47.853-10.797 83.613-53.456 83.613-104.574 0-51.3-36.022-94.076-84.128-104.696-3.867-.854-6.71-4.121-6.71-8.082v-184.513c-9.122 0-16.516 7.394-16.516 16.516v181.678l-21.081-42.162c-2.04-4.079-7-5.733-11.079-3.693l-43.25 21.625-5.542 13.02 29.5 99.5c6.405 21.776 15.649 40.976 29 59.333l23.777 32.694 5.559 25.789c6.318 14.492 9.632 30.211 9.632 46.199v28.469c0 9.122 7.395 16.516 16.516 16.516h249.934c8.219 0 15.188-6.044 16.35-14.18l.334-2.336h-250.102c-9.122 0-16.516-7.395-16.516-16.516v-8.258c0-4.561 3.697-8.258 8.258-8.258z" fill="#5d5360"/><path d="m143.213 389.3-23.777-32.693c-12.271-16.872-21.479-35.577-27.348-55.531l-32.046-110.597-9.25 4.625c-3.576 1.788-5.357 5.881-4.229 9.716l29.662 100.852c6.405 21.777 16.503 42.291 29.854 60.649l23.777 32.693c4.963 6.824 9.146 14.154 12.481 21.802 5.762-.363 11.292-1.284 16.772-2.518-4.06-10.229-9.347-19.992-15.896-28.998z" fill="#4b3f4e"/><path d="m374.936 404.645c-31.925 0-57.806-25.881-57.806-57.806v-90.839c0-31.926 25.881-57.806 57.806-57.806h90.839v-16.516h-90.839c-41.047 0-74.323 33.275-74.323 74.323v90.839c0 41.047 33.275 74.323 74.323 74.323h70.783l2.359-16.516h-73.142z" fill="#c8c5c9"/><g fill="#5d5360"><path d="m391.452 123.871c4.561 0 8.258-3.698 8.258-8.258v-82.581h-16.516v82.581c0 4.56 3.697 8.258 8.258 8.258z"/><path d="m308.871 107.355c4.561 0 8.258-3.698 8.258-8.258v-82.581h-16.516v82.581c0 4.56 3.697 8.258 8.258 8.258z"/><path d="m226.291 107.355c4.561 0 8.258-3.698 8.258-8.258v-99.097c-9.121 0-16.516 7.394-16.516 16.516v82.581c-.001 4.56 3.697 8.258 8.258 8.258z"/></g></g></svg>