<svg height="512" viewBox="0 0 44 58" width="512" xmlns="http://www.w3.org/2000/svg"><g id="Page-1" fill="none" fill-rule="evenodd"><g id="011---Magic-Book-" fill-rule="nonzero"><path id="Shape" d="m0 50v4c0 2.209139 1.790861 4 4 4h37c.5522847 0 1-.4477153 1-1v-3z" fill="#f0e1a7"/><path id="Shape" d="m4 0h39c.5522847 0 1 .44771525 1 1v52c0 .5522847-.4477153 1-1 1h-39c-2.209139 0-4-1.790861-4-4v-46c0-2.209139 1.790861-4 4-4z" fill="#e7bb19"/><path id="Shape" d="m0 9h44c.5522847 0 1 .44771525 1 1v33c0 1.1045695-.8954305 2-2 2h-42c-1.1045695 0-2-.8954305-2-2v-33c0-.55228475.44771525-1 1-1z" fill="#eacc5b" transform="matrix(0 1 -1 0 49 5)"/><circle id="Oval" cx="22" cy="27" fill="#dd4c3c" r="13"/><path id="Shape" d="m22 45c-5.9202306-.0018942-11.461608-2.9125846-14.823-7.786-.30907702-.4544687-.19345835-1.0731916.25888075-1.385377.45233911-.3121854 1.07184007-.2008112 1.38711925.249377 2.9858535 4.3352014 7.9130384 6.9243914 13.177 6.9243914s10.1911465-2.58919 13.177-6.9243914c.2018296-.2967714.5472184-.4626252.9050204-.4345858s.6731386.2456715.8262748.5702601.1205844.7063494-.0852952 1.0003257c-3.361392 4.8734154-8.9027694 7.7841058-14.823 7.786z" fill="#b73a2b"/><path id="Shape" d="m36 18.354c-.3290084.0003195-.6371233-.1612164-.824-.432-2.9858535-4.3352014-7.9130384-6.9243914-13.177-6.9243914s-10.1911465 2.58919-13.177 6.9243914c-.20182958.2967714-.5472184.4626252-.90502038.4345858s-.67313861-.2456715-.82627482-.5702601c-.1531362-.3245886-.12058444-.7063494.0852952-1.0003257 3.3592246-4.8761539 8.9017445-7.78830714 14.823-7.78830714s11.4637754 2.91215324 14.823 7.78830714c.2110098.3057516.235135.7032778.0626485 1.032303-.1724864.3290252-.5131529.535315-.8846485.535697z" fill="#b73a2b"/><g fill="#e9931f"><path id="Shape" d="m12 4-8 8v-6c.0032948-1.10320187.89679813-1.9967052 2-2z"/><path id="Shape" d="m12 50h-6c-1.10320187-.0032948-1.9967052-.8967981-2-2v-6z"/><path id="Shape" d="m40 5v7l-8-8h7c.5522847 0 1 .44771525 1 1z"/><path id="Shape" d="m40 42v7c0 .5522847-.4477153 1-1 1h-7z"/></g><path id="Shape" d="m14.627 38.664c-.3184475.0000194-.6178647-.1516327-.8062686-.4083675-.1884039-.2567349-.2432656-.587853-.1477314-.8916325l2.788-8.949-7.084-5.634c-.33149321-.2650794-.45953256-.7105444-.31938662-1.1111863s.51794062-.6691645.94238662-.6698137h8.771l2.274-7.3c.1311326-.4169758.5178909-.7004636.955-.7.4360017.0008458.8212001.2840799.952.7l2.342 7.3h8.706c.4239829-.0003121.8020774.2667783.9434814.6664863.141404.3997081.0153775.8451404-.3144814 1.1115137l-6.962 5.628 2.833 8.837c.1347116.4196186-.0211639.8779566-.3837705 1.128443-.3626067.2504863-.8464465.2340597-1.1912295-.040443l-6.825-5.426-6.848 5.536c-.176878.1433056-.3973572.2219726-.625.223zm3.513-8.912-1.577 5.061 3.937-3.184zm5.56 1.865 3.892 3.1-1.592-4.963zm-4.922-3.917 3.315 2.637 3.252-2.629-1.511-4.708h-3.591zm-5.914-4.7 4.236 3.369 1.048-3.369zm13.071 0 1.078 3.363 4.16-3.363zm-5.068-2h2.327l-1.18-3.682z" fill="#b73a2b"/></g></g></svg>