<svg id="Capa_1" enable-background="new 0 0 511 511" height="512" viewBox="0 0 511 511" width="512" xmlns="http://www.w3.org/2000/svg"><g><g id="Filled_47_"><path d="m7.5 415.5v50h154l10-20h60l10 20h262v-50z" fill="#57758d"/><path d="m22.5 375.5h466v40h-466z" fill="#ad935c"/><path d="m392.088 263.499-105.428-13.124c-22.962-2.858-40.963-21.098-43.518-44.095l-12.677-114.093c-1.688-15.193-14.53-26.687-29.816-26.687h-178.149v310h466v-2.844c0-55.497-41.34-102.302-96.412-109.157z" fill="#d4b981"/><path d="m107.5 125.5h-80c-11.046 0-20-8.954-20-20v-40c0-11.046 8.954-20 20-20h80c11.046 0 20 8.954 20 20v40c0 11.046-8.954 20-20 20z" fill="#f05475"/><g fill="#fff"><circle cx="179.5" cy="129.5" r="15"/><circle cx="186.5" cy="190.5" r="15"/><circle cx="206.5" cy="250.5" r="15"/><circle cx="256.5" cy="290.5" r="15"/><circle cx="319.5" cy="300.5" r="15"/></g><g fill="#f05475"><circle cx="97.5" cy="300.5" r="45"/><path d="m412.9 268.166c-22.765 24.991-35.4 57.583-35.4 91.41v15.924h111v-2.844c0-48.248-31.249-89.921-75.6-104.49z"/></g></g><g fill="#fff"><path d="m48.5 368h15v15h-15z"/><path d="m57.5 68h15v15h-15z"/><path d="m120 308h-15v-15h15zm-30 0h-15v-15h15z"/></g><g id="Outline_47_"><path d="m496 408v-35.344c0-59.165-44.274-109.292-102.985-116.601l-19.681-2.45-1.854 14.885 19.681 2.45c2.857.356 5.668.845 8.442 1.428-19.17 24.946-29.603 55.453-29.603 87.207v8.425h-261.5v15h372.5v25h-206.778v15h221.778v35h-27v-18.5h-15v18.5h-21v-18.5h-15v18.5h-21v-18.5h-15v18.5h-21v-18.5h-15v18.5h-21v-18.5h-15v18.5h-21v-18.5h-15v18.5h-27.865l-10-20h-69.271l-10 20h-28.864v-18.5h-15v18.5h-20v-18.5h-15v18.5h-20v-18.5h-15v18.5h-28v-35h244.222v-15h-229.222v-162.5h-15v162.5h-15v65h166.135l10-20h50.729l10 20h274.136v-65zm-111-40v-8.425c0-30.388 10.671-59.502 30.16-82.62 37.408 14.356 63.869 49.84 65.731 91.045z"/><path d="m78.5 368h15v15h-15z"/><path d="m15 129.982v100.518h15v-97.5h77.5c15.164 0 27.5-12.337 27.5-27.5v-32.5h65.649c11.481 0 21.095 8.604 22.362 20.016l3.22 28.984h-25.521c-3.096-8.729-11.432-15-21.21-15-12.407 0-22.5 10.094-22.5 22.5s10.093 22.5 22.5 22.5c9.777 0 18.114-6.271 21.21-15h27.188l5.111 46h-25.299c-3.096-8.729-11.432-15-21.21-15-12.407 0-22.5 10.094-22.5 22.5s10.093 22.5 22.5 22.5c9.777 0 18.114-6.271 21.21-15h26.966l1.012 9.107c.697 6.276 2.39 12.227 4.901 17.709l-19.051 8.965c-3.988-3.591-9.261-5.781-15.038-5.781-12.407 0-22.5 10.094-22.5 22.5s10.093 22.5 22.5 22.5 22.5-10.094 22.5-22.5c0-1.198-.096-2.374-.278-3.522l19.912-9.37c4.648 5.58 10.342 10.249 16.797 13.733l-7.788 16.688c-.379-.019-.76-.029-1.143-.029-12.407 0-22.5 10.094-22.5 22.5s10.093 22.5 22.5 22.5c12.406 0 22.5-10.094 22.5-22.5 0-6.639-2.892-12.613-7.481-16.735l7.972-17.083c2.04.483 4.12.872 6.242 1.136l26.267 3.27v18.203c-8.729 3.096-15 11.433-15 21.21 0 12.406 10.094 22.5 22.5 22.5s22.5-10.094 22.5-22.5c0-9.777-6.271-18.114-15-21.21v-16.336l29.596 3.684 1.854-14.885-70.862-8.82c-19.599-2.439-34.81-17.853-36.991-37.481l-12.678-114.094c-2.112-19.017-18.135-33.359-37.27-33.359h-66.697c-3.274-11.528-13.889-20-26.452-20h-80c-15.164 0-27.5 12.337-27.5 27.5v40c0 10.663 6.105 19.922 15 24.482zm164.5 7.018c-4.136 0-7.5-3.364-7.5-7.5s3.364-7.5 7.5-7.5 7.5 3.364 7.5 7.5-3.364 7.5-7.5 7.5zm7 61c-4.136 0-7.5-3.364-7.5-7.5s3.364-7.5 7.5-7.5 7.5 3.364 7.5 7.5-3.364 7.5-7.5 7.5zm20 60c-4.136 0-7.5-3.364-7.5-7.5s3.364-7.5 7.5-7.5 7.5 3.364 7.5 7.5-3.364 7.5-7.5 7.5zm50 40c-4.136 0-7.5-3.364-7.5-7.5s3.364-7.5 7.5-7.5 7.5 3.364 7.5 7.5-3.364 7.5-7.5 7.5zm63-5c4.136 0 7.5 3.364 7.5 7.5s-3.364 7.5-7.5 7.5-7.5-3.364-7.5-7.5 3.364-7.5 7.5-7.5zm-304.5-210h27.5v-15h-27.5v-2.5c0-6.893 5.607-12.5 12.5-12.5h80c6.893 0 12.5 5.607 12.5 12.5v40c0 6.893-5.607 12.5-12.5 12.5h-80c-6.893 0-12.5-5.607-12.5-12.5z"/><path d="m150 300.5c0-28.948-23.551-52.5-52.5-52.5s-52.5 23.552-52.5 52.5 23.551 52.5 52.5 52.5 52.5-23.552 52.5-52.5zm-90 0c0-20.678 16.822-37.5 37.5-37.5s37.5 16.822 37.5 37.5-16.822 37.5-37.5 37.5-37.5-16.822-37.5-37.5z"/></g></g></svg>