<svg id="Capa_1" enable-background="new 0 0 497 497" height="512" viewBox="0 0 497 497" width="512" xmlns="http://www.w3.org/2000/svg"><path d="m398.5 452v37.5c0 4.142-3.358 7.5-7.5 7.5h-22.5l-30-75z" fill="#f9d103"/><path d="m128.5 452v37.5c0 4.142 3.358 7.5 7.5 7.5h232.5v-120z" fill="#f9e167"/><path d="m398.5 135c0-16.57-13.43-30-30-30l-30 120 60-30z" fill="#fab9dc"/><path d="m338.5 135c0-16.57 13.43-30 30-30v120l-60-30z" fill="#fcdced"/><path d="m338.5 195h-60l30-165c16.57 0 30 13.43 30 30z" fill="#fab9dc"/><path d="m248.5 195h60v-165c-16.57 0-30 13.43-30 30z" fill="#fcdced"/><path d="m248.5 195h-90l30-165c16.57 0 30 13.43 30 30z" fill="#fab9dc"/><path d="m158.5 165 30 30v-165c-16.57 0-30 13.43-30 30z" fill="#fcdced"/><path d="m278.5 165h-60l30-165c16.57 0 30 13.43 30 30z" fill="#fab9dc"/><path d="m218.5 165h30v-165c-16.57 0-30 13.43-30 30z" fill="#fcdced"/><path d="m248.5 285h-90l30-120h30z" fill="#475055"/><path d="m188.5 285h-60l30-90v-30h30z" fill="#576267"/><path d="m398.5 255-60 30 30-90h30z" fill="#475055"/><path d="m368.5 285h-60l30-90h30z" fill="#576267"/><path d="m338.5 285h-60l30-120h30z" fill="#475055"/><path d="m308.5 285h-60l30-120h30z" fill="#576267"/><path d="m278.5 285h-60l30-150h30z" fill="#475055"/><path d="m218.5 135h30v150h-30z" fill="#576267"/><path d="m398.5 255h-30l-15 75.129 45-44.957z" fill="#576267"/><path d="m128.5 255v120l150 77h60l30-151.871v-45.129z" fill="#67747a"/><path d="m371.667 298.331c-1.079.539-2.132 1.115-3.167 1.713l-15 30v91.871l15 30h30v-166.829z" fill="#373e42"/><path d="m338.5 352.082v99.918h30v-151.871c-18.482 10.668-30 30.433-30 51.953z" fill="#475055"/><path d="m158.5 195c0-16.849-13.889-30.453-30.843-29.989-16.341.448-29.157 14.266-29.157 30.613v59.376l30 45 30-45z" fill="#fcdced"/><path d="m158.5 315 90 137h30v-17c0-66.33-53.67-120-120-120z" fill="#f9e167"/><path d="m158.5 315v-60h-60v122.836c0 9.315 2.169 18.501 6.334 26.833l23.666 47.331h120v-17c0-66.33-40.252-120-90-120z" fill="#fff0a3"/></svg>