<svg xmlns="http://www.w3.org/2000/svg" viewBox="0 0 512 512" width="512" height="512">
	<style>
		tspan { white-space:pre }
		.shp0 { fill: #f1f1f4 } 
		.shp1 { fill: #e4936b } 
		.shp2 { fill: #e27d47 } 
		.shp3 { fill: #756e78 } 
		.shp4 { fill: #dfdde2 } 
		.shp5 { fill: #665e66 } 
		.shp6 { fill: #c6c1c8 } 
	</style>
	<g id="Layer">
		<path id="Layer" class="shp0" d="M414.9 81.31L81.11 418.81L77.67 397.37L402.44 68.99C404.48 66.93 407.4 66.01 410.25 66.53C417.17 67.8 419.85 76.3 414.9 81.31L414.9 81.31Z" />
		<path id="Layer" class="shp1" d="M470.67 128.43L442.52 119.26L414.29 128.43C414.79 146.16 408.07 163.65 395.14 176.57L356.2 215.51L392.03 251.34L438.39 204.97C459.05 184.31 470.31 156.72 470.67 128.43L470.67 128.43Z" />
		<path id="Layer" class="shp1" d="M210.59 432.78L256.95 386.42L247.09 359.53L221.12 350.59L182.18 389.53C169.26 402.45 151.77 409.18 134.04 408.68L134.04 465.06C162.33 464.7 189.93 453.44 210.59 432.78Z" />
		<path id="Layer" class="shp2" d="M231.19 391.57C210.53 412.23 182.93 423.49 154.64 423.85C147.79 423.94 140.89 423.39 134.04 422.17L124.05 441.55L134.04 465.06C162.33 464.7 189.92 453.44 210.59 432.78L256.95 386.42L246.65 376.11L231.19 391.57Z" />
		<path id="Layer" class="shp2" d="M438.39 204.97C452.57 190.79 462.33 173.34 467.16 154.64C464.63 157.81 461.91 160.85 458.99 163.77L430.54 192.22C420.65 202.11 404.61 202.11 394.72 192.22L387.11 184.61L356.2 215.51L368.18 239.83L392.03 251.34L438.39 204.97Z" />
		<path id="Layer" class="shp0" d="M220.85 350.32C220.05 349.52 220.05 348.21 220.85 347.41L353.02 215.24C353.82 214.43 355.13 214.43 355.93 215.24L392.3 251.61C393.11 252.41 393.11 253.71 392.3 254.52L260.13 386.69C259.33 387.49 258.02 387.49 257.22 386.69L220.85 350.32Z" />
		<path id="Layer" class="shp3" d="M465.19 92.66L460.07 77.08L508.35 28.8C513.22 23.94 513.22 16.05 508.35 11.19C493.43 -3.73 469.24 -3.74 454.32 11.19L415.66 49.85C404.45 61.06 400.49 77.62 405.43 92.69L411.07 109.91C413.06 115.99 414.12 122.22 414.29 128.43L470.67 128.43C470.83 116.47 469.03 104.39 465.19 92.66L465.19 92.66Z" />
		<path id="Layer" class="shp3" d="M34.42 502.74L82.69 454.46L98.27 459.57C110.01 463.42 122.08 465.21 134.04 465.06L134.04 408.68C127.83 408.51 121.6 407.45 115.52 405.45L98.3 399.81C83.23 394.88 66.67 398.84 55.46 410.05L16.8 448.71C1.88 463.63 1.88 487.82 16.8 502.74C21.66 507.6 29.55 507.6 34.42 502.74Z" />
		<path id="Layer" class="shp4" d="M260.13 386.69L392.3 254.52C393.11 253.71 393.11 252.41 392.3 251.61L383.46 242.76L294.58 331.63C286.13 340.08 272.43 340.08 263.98 331.63L250.3 317.96L220.85 347.41C220.05 348.21 220.05 349.51 220.85 350.32L257.22 386.69C258.02 387.49 259.33 387.49 260.13 386.69L260.13 386.69Z" />
		<path id="Layer" class="shp5" d="M34.42 502.74L82.69 454.46L98.27 459.57C110.01 463.42 122.08 465.21 134.04 465.06L134.04 422.18C128.95 421.27 123.88 420.01 118.88 418.37C109.32 415.23 98.81 417.74 91.7 424.85L55.02 461.53C50.19 466.37 42.33 466.43 37.48 461.61C31.12 455.29 27.45 447.29 26.48 439.03L16.8 448.71C1.88 463.63 1.88 487.82 16.8 502.74C21.66 507.6 29.55 507.6 34.42 502.74L34.42 502.74Z" />
		<path id="Layer" fill-rule="evenodd" class="shp4" d="M281.47 286.79L292.4 275.86C292.4 275.86 331.68 315.14 331.68 315.14L320.75 326.07L320.75 326.07L281.47 286.79ZM354.52 292.3L315.24 253.02L326.17 242.09L365.45 281.37L354.52 292.3ZM247.7 320.56L258.63 309.63L297.91 348.91L286.98 359.84L247.7 320.56Z" />
		<path id="Layer" fill-rule="evenodd" class="shp6" d="M344.22 282L354.52 292.3L365.45 281.37L355.15 271.07L344.22 282ZM321.38 304.84L310.45 315.77L320.75 326.07C320.75 326.07 320.75 326.07 320.75 326.07L331.68 315.14C331.68 315.14 331.68 315.14 331.68 315.14L321.38 304.84ZM297.91 348.91L285.93 336.93C278.45 339.34 269.92 337.57 263.98 331.63L250.3 317.96L247.7 320.56L286.98 359.84L297.91 348.91Z" />
	</g>
</svg>