<svg height="464pt" viewBox="-16 0 464 464.00997" width="464pt" xmlns="http://www.w3.org/2000/svg"><path d="m342.246094 183.199219c-13.761719-25.039063-26.722656-48.71875-29.679688-88.160157-.917968-12.914062-11.617187-22.945312-24.5625-23.039062-4.417968 0-8 3.582031-8 8 0 35.347656-28.652344 64-64 64-35.34375 0-64-28.652344-64-64 0-4.417969-3.582031-8-8-8-12.800781.003906-23.46875 9.804688-24.558594 22.558594-2.878906 39.121094-16.242187 65.28125-30.480468 92.960937-16.238282 31.601563-32.960938 64.242188-32.960938 116.480469-.457031 42.585938 16.265625 83.5625 46.386719 113.667969 30.125 30.109375 71.109375 46.808593 113.695313 46.332031 33.839843 0 159.917968-27.121094 159.917968-160 0-59.28125-17.117187-90.558594-33.757812-120.800781zm-14.242188 120.800781c0 61.855469-50.144531 112-112 112-61.855468 0-112-50.144531-112-112s50.144532-112 112-112c61.828125.066406 111.933594 50.171875 112 112zm0 0" fill="#ffa91f"/><path d="m288.003906 170.078125c-1.3125 0-2.609375-.324219-3.765625-.941406-13.191406-7.101563-27.429687-12.0625-42.175781-14.695313-4.355469-.769531-7.257812-4.921875-6.488281-9.273437.765625-4.351563 4.917969-7.257813 9.269531-6.488281 16.414062 2.933593 32.261719 8.449218 46.945312 16.34375 3.238282 1.730468 4.882813 5.445312 3.988282 9.007812-.894532 3.558594-4.101563 6.054688-7.773438 6.046875zm0 0" fill="#e67500"/><path d="m144.003906 170.078125c-3.671875.007813-6.875-2.488281-7.773437-6.046875-.894531-3.5625.75-7.277344 3.992187-9.007812 14.695313-7.898438 30.554688-13.417969 46.980469-16.34375 4.355469-.769532 8.503906 2.136718 9.273437 6.488281.769532 4.351562-2.136718 8.503906-6.488281 9.273437-14.746093 2.632813-28.984375 7.59375-42.175781 14.695313-1.171875.625-2.480469.949219-3.808594.941406zm0 0" fill="#e67500"/><path d="m296.003906 80c0 44.183594-35.816406 80-80 80s-80-35.816406-80-80 35.816406-80 80-80 80 35.816406 80 80zm0 0" fill="#ffec97"/><path d="m216.003906 128c-4.417968 0-8-3.582031-8-8s3.582032-8 8-8c17.675782 0 32-14.328125 32-32 0-2.148438-.214844-4.292969-.640625-6.398438-.882812-4.332031 1.910157-8.558593 6.242188-9.441406 4.328125-.882812 8.554687 1.910156 9.441406 6.238282.636719 3.160156.957031 6.378906.957031 9.601562 0 26.507812-21.488281 48-48 48zm0 0" fill="#fff"/><path d="m240.003906 56c-1.730468 0-3.414062-.5625-4.800781-1.601562-1.886719-1.414063-3.921875-2.617188-6.070313-3.589844-2.679687-1.125-4.539062-3.617188-4.855468-6.507813-.316406-2.886719.960937-5.722656 3.332031-7.402343 2.375-1.675782 5.472656-1.9375 8.089844-.675782 3.226562 1.449219 6.28125 3.253906 9.105469 5.378906 2.753906 2.066407 3.878906 5.660157 2.789062 8.929688-1.089844 3.265625-4.144531 5.46875-7.589844 5.46875zm0 0" fill="#fff"/><g fill="#ffcf00"><path d="m424.003906 40c-17.671875 0-32-14.328125-32-32 0-4.417969-3.582031-8-8-8-4.417968 0-8 3.582031-8 8 0 17.671875-14.324218 32-32 32-4.417968 0-8 3.582031-8 8s3.582032 8 8 8c17.675782 0 32 14.328125 32 32 0 4.417969 3.582032 8 8 8 4.417969 0 8-3.582031 8-8 0-17.671875 14.328125-32 32-32 4.417969 0 8-3.582031 8-8s-3.582031-8-8-8zm0 0"/><path d="m88.003906 80c-17.671875 0-32-14.328125-32-32 0-4.417969-3.582031-8-8-8-4.417968 0-8 3.582031-8 8 0 17.671875-14.324218 32-32 32-4.417968 0-7.99999975 3.582031-7.99999975 8s3.58203175 8 7.99999975 8c17.675782 0 32 14.328125 32 32 0 4.417969 3.582032 8 8 8 4.417969 0 8-3.582031 8-8 0-17.671875 14.328125-32 32-32 4.417969 0 8-3.582031 8-8s-3.582031-8-8-8zm0 0"/></g></svg>