<svg xmlns="http://www.w3.org/2000/svg" viewBox="0 0 83.18 54.2"><defs><style>.cls-1{fill:#010005;}.cls-1,.cls-10,.cls-11,.cls-12,.cls-13,.cls-14,.cls-15,.cls-16,.cls-17,.cls-18,.cls-2,.cls-3,.cls-4,.cls-5,.cls-6,.cls-7,.cls-8,.cls-9{fill-rule:evenodd;}.cls-2{fill:#08090f;}.cls-3{fill:#38363b;}.cls-4{fill:#010105;}.cls-5{fill:#070810;}.cls-6{fill:#161923;}.cls-7{fill:#1f1f26;}.cls-8{fill:#ccddcb;}.cls-9{fill:#201e24;}.cls-10{fill:#7b817d;}.cls-11{fill:#333540;}.cls-12{fill:#94afaa;}.cls-13{fill:#010106;}.cls-14{fill:#211c23;}.cls-15{fill:#2d292b;}.cls-16{fill:#363c3e;}.cls-17{fill:#657471;}.cls-18{fill:#0c0f12;}</style></defs><g id="Layer_2" data-name="Layer 2"><g id="Ñëîé_1" data-name="Ñëîé 1"><path class="cls-1" d="M55.71,41.32,58,52.14l2.81,1.17s1.06-8.22,1.08-8.47S55.71,41.32,55.71,41.32Z"/><path class="cls-2" d="M30.62,1.64C30.7,3.91,31.3,19,32,19.11l17.53,1.78.49-12a2.49,2.49,0,0,0-.66-.21c-.39,0,.16-.28.69-.5l0-.35-2.3-.19s1.45-2.44,2.48-4.3l.07-1.8-11,.09h0l-6,0c-.24.09-.41.18-.41.25s-.19,0-.42-.24Z"/><path class="cls-3" d="M31,1.32l1.1,0c.37.36,1.38-.45,1.38-.65S35.13.2,35.13.2l3.73.28L43.29,0a50.2,50.2,0,0,0,7,1.23l-.44,2.22c-2.16-.06-4.17-.08-7.35-.08s-7.88.08-11.37.23l-.52-2.26Z"/><path class="cls-2" d="M65.57,23.13,65.31,5s9,0,9.82,1,1.44,11.3,1.44,11.3Z"/><polygon class="cls-4" points="14.71 20.74 12.79 20.52 11.48 23.93 15.16 24.25 14.71 20.74"/><path class="cls-4" d="M72.22,27.24a2.45,2.45,0,0,0,.12-.7c.09-4.58-13.23-8.16-29.74-8s-30,4-30.06,8.58a2.37,2.37,0,0,0,.1.7l-.38,19.74,3.64,0a1.11,1.11,0,0,1,0-.19c.06-3.12,11.65-5.77,25.87-5.91s25.7,2.28,25.64,5.4a1.11,1.11,0,0,1,0,.19L71.84,47Z"/><path class="cls-5" d="M49,18.68c-2.07-.11-4.22-.15-6.43-.13a102.5,102.5,0,0,0-11.21.71c.85,5.27-2.63,20.11-2.63,20.11L48,40.91Z"/><path class="cls-2" d="M59.16,19.77c-2.12-.37-4.42-.66-6.88-.87.28,4.76-1.81,20.6-1.81,20.6l7.44,1.65Z"/><path class="cls-6" d="M82.94,45.15c.09.23.18-1.71.13.7,0,1.88-5.08,5.72-22.3,7.46l-2-8.15-1.16,6.15-2.29.59-.93,1.92c-3.31.2-7,.33-11,.37-4.54,0-8.64,0-12.33-.2-.11-1.31-.2-2.48-.22-3.09a1.29,1.29,0,0,0-.48-.71L29.72,53c-.1.48-.56-1.32-.56-1.32l-.48,2.23C8.58,52.68,1.49,48.64,1.53,46.66c.05-2.41.06-.47.16-.7l1.57-7.91L2.07,26.22l5,0a.63.63,0,0,0,0,.19c-.06,3.12,15.62,5.5,35,5.31s35.17-2.89,35.23-6a1.37,1.37,0,0,0,0-.19l6,0-1.42,13Z"/><path class="cls-4" d="M82.16,47.42a11.37,11.37,0,0,1-3,1.85c-.35-5.31-.59-16.65-.71-23.79h2.93a17.4,17.4,0,0,0-.31,4.85,81.66,81.66,0,0,1,.65,8.2h0C82,42.19,82.1,46,82.16,47.42Z"/><path class="cls-4" d="M5.72,49.9a17.37,17.37,0,0,1-2.1-1c1-5.45.06-16.23-.69-22.68l2.53,0c.22,1.61.36,3.23.58,4.27C6.62,33.15,6.29,46.47,5.72,49.9Z"/><path class="cls-7" d="M32.18,54,31,54c-.11-1.31-.2-2.48-.22-3.09a1.29,1.29,0,0,0-.48-.71L29.72,53c-.1.48-.56-1.32-.56-1.32l-.48,2.23c-10-.59-16.77-1.89-21.06-3.28,2-4.69.54-18.93-1.43-21.17l12,1c3.92.54,8.67.94,13.94,1.14h0a38.69,38.69,0,0,0-1.46,9.07C30.49,44.25,31.47,50.31,32.18,54Z"/><path class="cls-3" d="M18.56,52.91c-2.74-.37-5.1-.81-7.11-1.27.17-.61.38-1.36.66-2.3,1.4-4.73,1.06-15.4-.83-19l8.61.36a26.9,26.9,0,0,0-.75,3.65C18.79,36.6,18.61,49.05,18.56,52.91Z"/><path class="cls-8" d="M15.38,52.42c-1-.16-1.87-.34-2.72-.52a13.33,13.33,0,0,1,.63-3.63c2.14-7.06.51-17,.51-17s3.63,1.4,3.44,1.79S16,46.06,15.38,52.42Z"/><path class="cls-9" d="M77.21,50.08a44.75,44.75,0,0,1-5.46,1.54l.44-23a16.24,16.24,0,0,0,3.73-1.42h1.74Z"/><path class="cls-4" d="M73.9,51.1a84.75,84.75,0,0,1-13.13,2.21l-.72-2.9-.8-19.64c7.76-.78,13.7-2,16.4-3.42Z"/><path class="cls-10" d="M42.5,18c6-.06,11.61.14,16.7.56,1.32.11,2.61.23,3.85.37l.28.79,1.38-.6C75.84,20.5,83.17,23,83.11,25.89S75.7,31.41,64.59,33a171.85,171.85,0,0,1-22.41,1.58c-22.51.23-40.7-3.3-40.61-7.88,0-1.87,3.13-3.63,8.32-5.07l2,.34,3.21.15-1.9-1.31A152.6,152.6,0,0,1,42.5,18Zm-.06,3.38h0c-16,.16-29,2.49-29,5.2s12.87,4.77,28.86,4.61,29-2.48,29-5.19S58.42,21.23,42.44,21.39Z"/><path class="cls-8" d="M42.57,17.6c6-.06,11.65.15,16.76.57l-.13.4.84-.34c1,.08,1.93.18,2.85.28l.44,1.22,2.12-.92c10.75,1.38,17.78,3.83,17.73,6.67-.09,4.58-18.42,8.47-40.93,8.7S1.55,30.87,1.63,26.3c0-1.76,2.77-3.42,7.41-4.81l2.87.48,3.21.15-2.33-1.6c7.47-1.69,18.05-2.8,29.78-2.92ZM42.5,21h0c-16,.16-29,2.49-29,5.2S26.32,31,42.31,30.8s29-2.49,29.05-5.2S58.49,20.82,42.5,21Z"/><path class="cls-11" d="M42.57,17.6c6-.06,11.65.15,16.76.57l-.13.4.84-.34c1,.08,1.93.18,2.85.28l.44,1.22,2.12-.92c10.74,1.38,17.77,3.82,17.73,6.67l-11.89-.22c-1-2.54-13.48-4.43-28.79-4.28-12,.12-22.37,1.47-26.77,3.28L3.19,24A20,20,0,0,1,9,21.49l2.87.48,3.21.15-2.33-1.6C20.26,18.83,30.84,17.72,42.57,17.6Z"/><path class="cls-12" d="M42.55,18.59a147.93,147.93,0,0,1,20.78,1.14h0c9.13,1.23,15,3.35,15,5.8-.08,4-16.23,7.47-36.08,7.66S6.4,30.28,6.47,26.25c0-1.55,2.44-3,6.5-4.23l2.15.1-.73-.5c6.62-1.74,16.78-2.92,28.16-3Zm0,1h0c-18.34.18-33.27,3.13-33.34,6.59S24,32.34,42.29,32.16,75.55,29,75.62,25.56,60.87,19.44,42.53,19.63Z"/><path class="cls-10" d="M7.77,30.91c-.12.12,1.2,1,1.2,1l.14-.44,1.64.43.55.12.39,1.21s.45-1,.66-1l1.34.05Z"/><polygon class="cls-10" points="21.28 33.44 22.71 33.77 23.11 35.67 24.99 33.98 28.25 34.1 21.28 33.44"/><path class="cls-10" d="M29.87,34.12l.51.71,3.75.28,1.64-.56,4.43,0,.29.23.71-.23.94,1.95,1-1.46,1.79.24,2-.65,5.93-.25.71-.27.3,1.64,3.2-1.92S33.06,34.47,29.87,34.12Z"/><path class="cls-4" d="M2.35,47.35l.8.56.24.42a5,5,0,0,0,.61.59l.89.25L7.3,48.5l-1.11,1,2.65,1,.64.25.42-.4,1.4.74.48-.51L14,51.82l1.48-.55.57,1.1,1.75-.52.77.37,2.89.74,7.31.51-.07.33A108,108,0,0,1,8.77,51.09c-4.1-1.07-5.86-2-6.42-3.74ZM31,53.62h0l3.75.26,2-.84s2.4.5,2.38.83S42.64,50,42.64,50l-1,3.75,9.89-.19c.17,0,1.87-.27,3.19-.49l-.31.64c-4.45.2-9.18.2-13.38.28-3.38.08-6.76,0-10-.1l0-.3Zm29.69-.76c2.85-.3,10-1.4,13.27-2.16,1-.26,1.59-4.33,1.76-4.39.76-.26,2.6,3.15,2.88,3a14.72,14.72,0,0,1,2.69-1.63c.4,0,1.82-2,1.82-2s-.06,1-.42,1.33a13.36,13.36,0,0,1-5,3c-3.41,1.22-8.71,2-14.75,3-.69.12-1.41.22-2.15.31Z"/><path class="cls-2" d="M12.46,33.4l.95,3.33L19,51.94l1.17.3s1.4-.63.16-.68S12.46,33.4,12.46,33.4Z"/><path class="cls-2" d="M10.77,36.18s-1.7,9.38-2,9.38.66-.16.66-.16Z"/><path class="cls-2" d="M57,35s10.41,7.07,10.21,7.18.27-.38.27-.38Z"/><polygon class="cls-2" points="23.8 47.99 25.05 45.18 25.19 46.62 27.42 46.32 22.07 50.58 23.8 47.99"/><polygon class="cls-2" points="75.36 43.77 70.99 42.45 73.45 42.69 73.56 41.37 79.24 45.31 75.36 43.77"/><polygon class="cls-2" points="9.65 34.77 7.09 34 8.53 34.14 8.59 33.36 11.92 35.67 9.65 34.77"/><polygon class="cls-2" points="7.9 47.61 4.91 47.29 6.44 47.18 6.1 46.41 10.67 48.11 7.9 47.61"/><polygon class="cls-2" points="69.15 43.92 66.6 44.94 67.56 44.23 66.36 43.85 71.76 43.12 69.15 43.92"/><polygon class="cls-2" points="27.95 35.73 36.47 36.83 28.32 36.32 25.78 35.9 27.95 35.73"/><polygon class="cls-2" points="58.3 43.59 66.81 44.7 58.66 44.19 56.12 43.77 58.3 43.59"/><polygon class="cls-4" points="47.67 43.71 54.44 40.37 48.73 43.88 46.59 44.83 47.67 43.71"/><polygon class="cls-4" points="7.41 45.75 14.18 42.4 8.47 45.91 6.33 46.86 7.41 45.75"/><polygon class="cls-9" points="69.05 40.26 69.77 35.19 70.01 39.93 69.66 41.46 69.05 40.26"/><path class="cls-10" d="M65.84,32.66l1,.86.39-.73.89.29L70,32.56l.51-.12.43,2.17,1.89-2.72a3.73,3.73,0,0,1,.8-.39c.14,0,.82,0,.82,0l2.45-1.16S66.9,32.82,65.84,32.66Z"/><path class="cls-5" d="M32,21.81l.58,1,1.17-.88s.13,2.47.13,2.34,5.08-2.81,5.08-2.81l-3,.13-4.13-.31Z"/><path class="cls-4" d="M23.94,24,19.89,23l3.54-.43a17.74,17.74,0,0,1-1.74-.39c.27,0,3.5.31,3.5.31Z"/><path class="cls-4" d="M14.52,26.42l-.9.8.76.65s.22-.17.33,0S16.37,29,16.37,29l1.94-.13Z"/><polygon class="cls-13" points="42.31 36.82 39.27 35.91 40.98 36.08 41.06 35.16 45 37.9 42.31 36.82"/><polygon class="cls-13" points="52.29 38.13 50.52 38.84 51.19 38.35 50.35 38.08 54.1 37.57 52.29 38.13"/><polygon class="cls-13" points="39.58 40.08 38.86 36.59 40.16 39.78 40.29 40.84 39.58 40.08"/><path class="cls-10" d="M1.84,45.12l.1,0c0-.25,0-.5,0-.75l.32-1.59.53.15.73.19a3.42,3.42,0,0,0,0,.45c-.06.79-.13,1.59-.17,2.37,0,.15,0,.31,0,.46l-.71-.19-1-.27a1.75,1.75,0,0,1,.16-.57l.05-.28ZM2.93,33.25h0l-.41,8.46.26.08.72.2.06-.45c.25-2.68.62-5.35.83-8q4.46,1.25,9,2.24c-.06.88-.14,1.75-.21,2.63S13,40.12,12.89,41l-2.37-.47c.12-1.1.26-2.2.37-3.3a3,3,0,0,1,0-.43l-.71-.19c-1.15-.28-2.3-.58-3.44-.89L6,35.5c0,.15,0,.31,0,.47-.14,1.71-.29,3.42-.42,5.14s-.23,3.44-.36,5.15c0,.15,0,.3,0,.44l.72.17c3.45.77,6.93,1.45,10.39,2L17,49c0-.14,0-.29,0-.44,0-.75.1-1.51.16-2.26,0-.14,0-.29,0-.43l-.73-.12c-2.18-.36-4.36-.77-6.54-1.2,0-.39,0-.77.08-1.15,2.13.45,4.26.87,6.41,1.25l.71.12c0-.14,0-.28.06-.43.13-1.28.29-2.56.43-3.84s.27-2.56.37-3.84c3,.46,6,.85,9,1.17-.07.85-.13,1.7-.21,2.55s-.16,1.71-.24,2.56l-2.38-.24c.12-1.06.25-2.13.36-3.2,0-.14,0-.27,0-.41l-.71-.1-3.46-.49-.76-.14,0,.45c-.14,1.63-.26,3.28-.38,4.92s-.24,3.29-.35,4.93l0,.42.72.11c3.48.45,7,.83,10.46,1.14l.73.06,0-.43c0-.74.08-1.49.13-2.23,0-.14,0-.29,0-.43l-.73,0c-2.19-.18-4.39-.39-6.58-.62,0-.37,0-.74.08-1.11,2.14.24,4.3.46,6.45.66l.73,0c0-.14,0-.28,0-.42.13-1.27.29-2.53.42-3.8s.25-2.53.36-3.79q4.51.21,9.09.24c-.06.87-.13,1.73-.19,2.6s-.17,1.72-.25,2.58c-.81,0-1.6,0-2.4,0,.11-1.08.24-2.15.35-3.22,0-.14,0-.28,0-.42l-.72,0c-1.17,0-2.33-.09-3.5-.15l-.73,0c0,.15,0,.29,0,.44-.14,1.63-.26,3.25-.38,4.88s-.22,3.25-.33,4.88c0,.14,0,.28,0,.42l.72.05c3.49.21,7,.37,10.5.46h.73c0-.14,0-.29,0-.44,0-.76.09-1.52.14-2.28l0-.44h-.73c-2.21,0-4.41-.07-6.6-.15,0-.37,0-.74.08-1.11,2.15.09,4.31.16,6.47.17h.72c0-.14,0-.29.05-.44.15-1.29.29-2.59.42-3.89s.26-2.59.36-3.89q4.56-.27,9.13-.74c-.06.89-.14,1.79-.2,2.68s-.15,1.78-.23,2.67l-2.41.23c.11-1.11.24-2.22.34-3.33a3,3,0,0,1,0-.43l-.73,0c-1.17.08-2.35.16-3.52.22l-.74,0c0,.15,0,.3,0,.46-.14,1.67-.24,3.34-.37,5s-.22,3.34-.34,5c0,.14,0,.29,0,.43h.74c3.49-.12,7-.34,10.54-.66l.62-3.28-.41,0c-2.21.24-4.43.43-6.64.6,0-.39,0-.77.08-1.15,2.15-.16,4.32-.33,6.5-.55l.69-.07.08-.45c.15-1.34.29-2.68.42-4s.25-2.68.36-4q4.57-.69,9.18-1.54c-.07.91-.14,1.82-.2,2.72s-.16,1.81-.23,2.71l-2.42.45c.11-1.13.24-2.26.33-3.4,0-.14,0-.29,0-.44l-.73.1c-1.17.18-2.34.37-3.53.53l-.76.09c0,.16,0,.31,0,.47-.14,1.71-.26,3.42-.37,5.13s-.2,3.41-.32,5.12a3.39,3.39,0,0,0,0,.45l.72-.09c3.52-.48,7.07-1,10.6-1.71l.76-.15v-.45q.06-1.18.15-2.37a3.4,3.4,0,0,1,0-.45l-.75.15q-3.33.66-6.67,1.21c0-.39,0-.77.09-1.17q3.25-.53,6.53-1.14l.73-.14a3.8,3.8,0,0,1,0-.46c.13-1.35.28-2.7.41-4s.25-2.7.34-4.05c3-.7,6-1.47,9.06-2.32l.11-.93c-3.24.92-6.44,1.74-9.65,2.47l-.93.18c-.1,1.42-.21,2.84-.34,4.26s-.31,2.85-.44,4.27q-3.27.61-6.54,1.12l-.75.11c0,.16,0,.31,0,.46-.06.69-.09,1.38-.13,2.07l0,.45.73-.11c2.21-.36,4.44-.75,6.66-1.18,0,.48-.06,1-.08,1.46C68.06,47.52,65,48,62,48.45c.1-1.56.19-3.12.29-4.68s.21-3.12.34-4.68l2-.34c-.11,1.13-.24,2.27-.34,3.4a2.25,2.25,0,0,0,0,.44l.71-.1c1.29-.2,2.6-.43,3.89-.66l.76-.13c0-.15,0-.31,0-.47.1-1,.2-2.11.29-3.17s.14-2.12.2-3.18c0-.14,0-.3,0-.45l-.72.14q-5.25,1-10.47,1.75l-.91.1c-.1,1.4-.23,2.81-.36,4.22s-.31,2.81-.45,4.22q-3.24.31-6.5.52l-.75,0c0,.15,0,.3,0,.45-.05.68-.1,1.36-.12,2l0,.44.73,0q3.3-.21,6.63-.55c0,.49-.07,1-.09,1.45-3,.27-6.06.47-9.06.59.1-1.53.19-3,.29-4.58s.21-3.05.35-4.58l2-.17c-.11,1.12-.23,2.23-.36,3.34a3.11,3.11,0,0,0,0,.43l.71,0c1.28-.09,2.59-.2,3.88-.32l.76-.05c0-.15,0-.31,0-.46.1-1,.2-2.1.29-3.14s.16-2.09.22-3.13c0-.15,0-.3,0-.45l-.74.08c-3.48.37-7,.66-10.42.85h-.91c-.1,1.36-.22,2.72-.35,4.09s-.31,2.73-.43,4.09c-2.18,0-4.33-.1-6.48-.19l-.75,0a3.25,3.25,0,0,0,0,.44c-.06.66-.11,1.32-.15,2,0,.15,0,.29,0,.43l.72,0c2.19.09,4.38.16,6.58.19,0,.47-.05.93-.08,1.4-3-.08-6-.22-9-.39.12-1.48.21-3,.31-4.45s.22-3,.35-4.45c.65,0,1.33,0,2,.06-.11,1.07-.24,2.15-.36,3.22,0,.14,0,.28-.05.42l.72,0c1.29,0,2.57.08,3.86.11l.76,0a3.42,3.42,0,0,1,0-.45c.1-1,.2-2,.29-3s.16-2,.23-3c0-.14,0-.28,0-.43h-.73q-5.2,0-10.37-.28l-.9-.06c-.1,1.33-.22,2.66-.35,4s-.32,2.66-.44,4q-3.24-.32-6.45-.7l-.74-.1a3.25,3.25,0,0,0,0,.44c-.06.66-.12,1.32-.16,2,0,.15,0,.29,0,.43l.72.09c2.18.24,4.36.45,6.57.65,0,.46-.06.92-.09,1.37-3-.28-6-.61-9-1l.3-4.47c.11-1.5.22-3,.37-4.48l2,.25c-.11,1.06-.24,2.13-.36,3.2,0,.14,0,.28,0,.42l.71.11,3.84.41L28,44c0-.14,0-.29,0-.43l.3-3c.1-1,.16-2,.22-3,0-.14,0-.28,0-.42l-.73-.07c-3.46-.35-6.89-.8-10.31-1.35l-.9-.17c-.08,1.35-.21,2.7-.34,4.06s-.33,2.71-.47,4.07c-2.14-.4-4.27-.84-6.42-1.31l-.72-.17c0,.15,0,.3,0,.45-.06.68-.1,1.37-.14,2.05l0,.45.72.15c2.17.44,4.36.85,6.54,1.22,0,.47-.07.93-.09,1.4q-4.48-.78-8.94-1.77c.1-1.55.21-3.1.32-4.66s.24-3.12.38-4.67c.66.16,1.33.33,2,.48-.12,1.11-.26,2.21-.38,3.32,0,.14,0,.29,0,.43l.7.18c1.28.29,2.56.55,3.83.8.24,0,.49.11.74.15,0-.14,0-.29,0-.44.1-1,.22-2,.32-3.05s.15-2,.21-3c0-.15,0-.29,0-.44L14.13,35Q9,33.92,3.89,32.45L3,32.17c0,.36-.06.72-.08,1.08ZM82,38.71h0l-3,.82-.71.16a3.42,3.42,0,0,1,0-.45c.11-1.14.23-2.28.34-3.42l-2.05.53c-.13,1.57-.24,3.14-.33,4.7s-.19,3.13-.28,4.7c2.31-.55,4.61-1.16,6.93-1.81l.11.65a1.34,1.34,0,0,1,.07.18c-2.64.75-5.28,1.44-7.91,2l-.73.16c0-.15,0-.3,0-.45.13-1.72.21-3.44.32-5.16s.22-3.43.35-5.15c0-.16,0-.32,0-.47l.77-.16c1.17-.27,2.34-.56,3.54-.85l.72-.18c0,.15,0,.3,0,.45-.1,1.14-.22,2.28-.32,3.41l2-.57V38l.13.74Zm.69,3.88h0c-1.39.4-2.77.78-4.15,1.15l-.73.18c0-.15,0-.3,0-.44,0-.7.08-1.39.13-2.08,0-.16,0-.31,0-.46l.75-.18c1.16-.3,2.31-.61,3.47-.93l.15.84-2.94.81c0,.39-.05.78-.06,1.16,1.06-.28,2.12-.58,3.19-.89Z"/><path class="cls-2" d="M3.08,45.17l.09,0c0-.24,0-.49.05-.73l.3-1.56.52.15.72.19a3.13,3.13,0,0,0,0,.44c-.06.77-.12,1.55-.17,2.32l0,.45-.7-.18L2.87,46A1.94,1.94,0,0,1,3,45.45l.06-.28ZM4.14,33.55h0l.41,4.16-.81,4.13.25.07.71.2.06-.44c.12-1.31.29-2.63.43-3.94s.27-2.62.38-3.92c2.91.81,5.84,1.54,8.77,2.19-.05.86-.13,1.71-.2,2.57s-.17,1.71-.24,2.57c-.78-.14-1.56-.3-2.32-.47.12-1.07.25-2.15.36-3.23A2.71,2.71,0,0,1,12,37l-.69-.19C10.15,36.57,9,36.27,7.91,36l-.73-.22c0,.15,0,.31,0,.46-.14,1.67-.28,3.35-.41,5s-.23,3.37-.36,5c0,.15,0,.29,0,.44l.7.16c3.38.76,6.79,1.42,10.18,2L18,49c0-.14,0-.29,0-.43,0-.74.1-1.48.16-2.22,0-.14,0-.28,0-.42l-.71-.12c-2.14-.35-4.27-.75-6.41-1.18,0-.37,0-.75.08-1.12q3.12.66,6.27,1.22l.7.13c0-.14,0-.29.06-.43.13-1.25.28-2.51.42-3.76s.27-2.51.36-3.76q4.41.68,8.85,1.14c-.07.84-.13,1.67-.21,2.51s-.15,1.67-.23,2.5L25,42.83c.11-1,.24-2.09.35-3.14,0-.13,0-.27,0-.4l-.7-.1c-1.13-.16-2.27-.31-3.39-.48l-.74-.14,0,.44c-.14,1.6-.26,3.21-.38,4.83s-.22,3.22-.33,4.82c0,.14,0,.28,0,.42l.71.1q5.12.66,10.24,1.12l.72.06,0-.42c0-.73.08-1.46.13-2.19,0-.14,0-.28,0-.42l-.72,0q-3.23-.27-6.44-.61c0-.36,0-.72.08-1.09,2.09.24,4.21.46,6.31.65l.72.06a3,3,0,0,1,0-.42c.13-1.24.28-2.48.41-3.72s.25-2.48.35-3.72c3,.15,5.92.22,8.91.25-.06.84-.13,1.69-.19,2.53s-.17,1.69-.25,2.54l-2.34,0c.1-1.06.23-2.11.34-3.16,0-.14,0-.27,0-.41l-.7,0c-1.14,0-2.28-.08-3.42-.14l-.72-.06c0,.15,0,.29,0,.44-.14,1.59-.25,3.18-.37,4.78s-.22,3.19-.33,4.78c0,.13,0,.27,0,.41l.7,0c3.42.2,6.86.36,10.28.45H45c0-.14,0-.28,0-.43,0-.74.09-1.49.14-2.24,0-.14,0-.28,0-.42h-.72c-2.16,0-4.32-.07-6.46-.15,0-.36,0-.73.08-1.09,2.1.08,4.21.15,6.33.17h.71c0-.15,0-.29.05-.43.14-1.27.28-2.54.41-3.81s.25-2.55.35-3.82q4.47-.25,8.94-.72c0,.87-.13,1.75-.19,2.62s-.15,1.75-.23,2.62l-2.36.23c.11-1.09.24-2.18.33-3.27,0-.14,0-.28,0-.42l-.71,0c-1.15.08-2.3.16-3.45.22h-.73l0,.45c-.14,1.64-.24,3.27-.37,4.91s-.21,3.27-.33,4.91c0,.14,0,.28,0,.43l.72,0c3.39-.11,6.82-.33,10.24-.63l.61-3.22-.32,0c-2.17.23-4.34.41-6.51.57,0-.37,0-.75.08-1.12,2.11-.15,4.23-.32,6.36-.53l.6-.07.09-.5.06.22c0-.06,0-.11,0-.17.14-1.31.29-2.62.42-3.92s.24-2.63.34-3.94c3-.44,6-.94,9-1.5-.07.89-.13,1.78-.2,2.67s-.16,1.77-.22,2.65c-.81.15-1.6.31-2.37.44.11-1.11.23-2.21.32-3.33,0-.14,0-.28.05-.43l-.71.1c-1.15.18-2.3.36-3.46.52l-.74.08a3.67,3.67,0,0,0,0,.46c-.13,1.68-.25,3.35-.36,5s-.2,3.34-.32,5c0,.14,0,.29,0,.44l.71-.09c3.45-.47,6.93-1,10.39-1.68l.74-.14v-.45c0-.77.09-1.54.15-2.32,0-.14,0-.29,0-.44l-.73.15c-2.18.43-4.35.82-6.53,1.19,0-.38,0-.76.09-1.15,2.12-.34,4.26-.71,6.39-1.12l.72-.14a3.42,3.42,0,0,1,0-.44c.13-1.32.28-2.65.41-4s.24-2.65.34-4q4.43-1,8.86-2.28l.11-.9c-3.17.89-6.31,1.7-9.45,2.41l-.91.18c-.09,1.39-.2,2.79-.33,4.18s-.31,2.79-.44,4.18q-3.21.6-6.4,1.09l-.74.12,0,.45c-.06.67-.09,1.35-.12,2,0,.15,0,.3,0,.44l.72-.11c2.16-.35,4.34-.73,6.52-1.16,0,.48-.06,1-.08,1.44-3,.54-6,1-8.92,1.45.09-1.53.18-3.06.28-4.58s.2-3.06.33-4.59l2-.34c-.11,1.11-.24,2.23-.34,3.33a3.37,3.37,0,0,0,0,.44l.69-.1c1.27-.2,2.55-.42,3.82-.65l.74-.12c0-.15,0-.3,0-.46.09-1,.19-2.07.28-3.11s.14-2.07.2-3.11l0-.44-.71.13q-5.13,1-10.25,1.71l-.9.1c-.09,1.38-.22,2.76-.35,4.14s-.3,2.75-.44,4.13q-3.18.31-6.37.51l-.73,0c0,.15,0,.3,0,.44-.05.66-.09,1.33-.11,2a3.22,3.22,0,0,0,0,.43l.71,0c2.15-.14,4.32-.31,6.49-.53,0,.47-.07.94-.08,1.41-3,.27-6,.46-8.88.58.09-1.5.19-3,.29-4.48s.2-3,.33-4.5c.67,0,1.32-.1,2-.15-.11,1.09-.23,2.17-.35,3.26a3.13,3.13,0,0,0,0,.43l.69,0c1.27-.09,2.55-.2,3.81-.32l.75-.05c0-.15,0-.3,0-.45.1-1,.2-2.05.28-3.07s.16-2,.22-3.07a3.15,3.15,0,0,1,0-.44l-.73.08c-3.41.36-6.82.64-10.21.83h-.89c-.1,1.33-.22,2.67-.34,4s-.31,2.68-.43,4c-2.13,0-4.23-.09-6.34-.19l-.74,0a3.11,3.11,0,0,0,0,.43c-.06.64-.1,1.29-.14,1.93,0,.14,0,.28,0,.42l.7,0c2.15.09,4.29.15,6.45.18L43.61,50c-2.93-.08-5.88-.21-8.83-.38.12-1.46.21-2.91.31-4.36s.21-2.91.34-4.37c.64,0,1.3,0,2,.06-.11,1.05-.24,2.11-.35,3.16,0,.13,0,.27,0,.41l.7,0c1.26,0,2.52.08,3.78.11l.75,0c0-.14,0-.29,0-.43.11-1,.2-2,.29-3s.15-2,.22-3c0-.14,0-.28,0-.42h-.72q-5.1,0-10.16-.27L31,37.5c-.09,1.31-.22,2.61-.34,3.92s-.32,2.61-.44,3.92c-2.11-.2-4.22-.43-6.31-.68l-.73-.1,0,.43c-.06.64-.11,1.29-.15,1.93,0,.14,0,.28,0,.42l.7.09c2.14.23,4.28.44,6.44.63,0,.45-.06.9-.09,1.35-2.93-.28-5.88-.6-8.8-1,.09-1.46.19-2.92.29-4.38s.21-2.93.36-4.39l2,.24c-.11,1.05-.24,2.09-.35,3.15,0,.13,0,.27-.05.41l.69.1c1.26.14,2.51.28,3.77.4l.74.08a3.28,3.28,0,0,1,0-.43c.1-1,.2-1.95.29-2.92s.16-2,.21-2.93c0-.14,0-.27,0-.41l-.72-.07Q23.48,36.78,18.46,36l-.89-.17c-.08,1.32-.2,2.64-.33,4s-.32,2.66-.46,4c-2.1-.39-4.19-.81-6.29-1.28l-.71-.17c0,.15,0,.3,0,.45-.06.67-.11,1.34-.14,2l0,.43.7.15c2.13.44,4.27.83,6.41,1.2,0,.45-.06.91-.08,1.37-2.94-.51-5.85-1.09-8.77-1.73.11-1.52.21-3,.32-4.57s.23-3.06.37-4.58c.65.17,1.3.33,2,.48-.11,1.08-.25,2.16-.37,3.25,0,.14,0,.28,0,.42l.69.17c1.25.29,2.5.54,3.75.79l.72.15c0-.14,0-.29,0-.44.1-1,.21-2,.31-3s.15-2,.21-3c0-.15,0-.29,0-.43l-.71-.16q-5-1.11-10-2.53l-.87-.28c0,.35,0,.71-.08,1.06Zm77.44,5.34h0l-2.94.81-.7.16c0-.15,0-.3,0-.44.11-1.12.23-2.23.34-3.35l-2,.52c-.12,1.54-.22,3.07-.32,4.6l-.27,4.6Q79.1,45,82.5,44l.11.64.06.17c-2.58.74-5.17,1.41-7.74,2l-.72.16c0-.15,0-.29,0-.44.12-1.69.2-3.38.31-5.05s.22-3.37.35-5c0-.15,0-.31,0-.47l.75-.14L79.14,35l.7-.17c0,.14,0,.29,0,.43-.1,1.12-.22,2.24-.32,3.35l2-.56v.12l.12.71Zm.68,3.8h0c-1.36.4-2.71.78-4.06,1.14l-.72.17a3.11,3.11,0,0,1,0-.43q0-1,.12-2c0-.15,0-.3,0-.45l.74-.18c1.13-.29,2.26-.59,3.39-.91l.15.83c-1,.27-1.92.54-2.88.79,0,.38,0,.76-.06,1.14,1-.28,2.08-.57,3.12-.88Z"/><path class="cls-4" d="M2.7,45.19l.09,0c0-.24,0-.48,0-.73l.31-1.55.51.14.72.19c0,.15,0,.3,0,.44-.06.78-.12,1.56-.17,2.33l0,.44-.69-.18-1-.27a1.8,1.8,0,0,1,.15-.55l.06-.28ZM3.76,33.56h0l.42,4.17-.82,4.12.26.08.7.19.06-.44c.12-1.31.29-2.62.43-3.93s.28-2.63.38-3.93C8.1,34.63,11,35.37,14,36c-.06.85-.13,1.71-.21,2.56s-.17,1.72-.24,2.57c-.78-.14-1.55-.3-2.32-.46.12-1.08.25-2.15.36-3.23a3,3,0,0,1,0-.42l-.69-.18c-1.13-.28-2.25-.58-3.37-.88l-.74-.22,0,.46c-.14,1.68-.28,3.36-.41,5.05s-.22,3.36-.35,5c0,.14,0,.29,0,.43l.7.17c3.38.75,6.79,1.41,10.19,2l.71.11c0-.14,0-.28,0-.43,0-.73.1-1.48.16-2.21,0-.15,0-.29,0-.43l-.71-.11c-2.14-.36-4.27-.75-6.41-1.18,0-.38,0-.75.08-1.13q3.12.66,6.27,1.23l.7.12.06-.42c.13-1.26.28-2.51.42-3.77s.27-2.51.36-3.75q4.41.68,8.85,1.14c-.07.83-.13,1.66-.21,2.5s-.15,1.67-.23,2.5l-2.33-.23c.11-1,.24-2.09.35-3.13,0-.14,0-.27,0-.41l-.7-.09-3.39-.49-.74-.13,0,.43c-.14,1.61-.26,3.22-.37,4.83s-.23,3.22-.34,4.82c0,.15,0,.28,0,.42l.71.11c3.41.43,6.82.81,10.25,1.12l.72,0c0-.14,0-.28,0-.42,0-.73.08-1.46.13-2.18,0-.14,0-.28,0-.42l-.72-.05c-2.14-.18-4.3-.38-6.44-.61,0-.37,0-.73.08-1.09,2.09.24,4.21.45,6.31.65l.72,0c0-.14,0-.28,0-.41.13-1.24.28-2.49.41-3.73s.25-2.47.35-3.71q4.42.21,8.91.24c-.06.85-.13,1.69-.19,2.54s-.17,1.69-.24,2.53c-.79,0-1.57,0-2.35,0,.1-1,.23-2.11.34-3.16a3,3,0,0,1,0-.41l-.71,0q-1.71-.06-3.42-.15l-.72,0c0,.14,0,.29,0,.43-.14,1.59-.25,3.19-.37,4.78s-.22,3.19-.33,4.78c0,.14,0,.28,0,.41l.7.05c3.42.21,6.86.37,10.28.45l.72,0c0-.15,0-.29,0-.43,0-.75.09-1.5.14-2.24,0-.14,0-.29,0-.43h-.72c-2.16,0-4.32-.07-6.46-.15,0-.36,0-.72.08-1.09,2.11.09,4.21.15,6.33.17h.71c0-.14,0-.28,0-.43.14-1.26.29-2.54.41-3.81s.25-2.54.35-3.82q4.47-.26,8.94-.72c-.05.88-.13,1.75-.19,2.63s-.15,1.74-.22,2.61l-2.37.23c.11-1.08.24-2.18.33-3.27,0-.14,0-.28,0-.42l-.71,0L48,39.94l-.74,0,0,.45c-.14,1.63-.24,3.27-.37,4.9s-.21,3.28-.32,4.91c0,.14,0,.29,0,.43h.72c3.42-.12,6.88-.34,10.33-.65l.29,0,.61-3.22-.7.08q-3.26.34-6.51.58c0-.38,0-.75.08-1.13q3.16-.21,6.36-.53l.73-.07a3.27,3.27,0,0,1,0-.44c.14-1.31.28-2.62.41-3.93s.24-2.62.35-3.93c3-.45,6-.95,9-1.5-.07.89-.13,1.78-.2,2.66s-.16,1.77-.22,2.66l-2.37.44c.11-1.11.23-2.22.32-3.33,0-.15,0-.29,0-.43l-.71.09c-1.15.18-2.3.36-3.46.52l-.74.09a3.44,3.44,0,0,0,0,.46c-.13,1.67-.25,3.35-.36,5s-.2,3.35-.32,5c0,.15,0,.29,0,.44l.71-.09c3.45-.47,6.93-1,10.39-1.67L72,47.6v-.44c0-.77.09-1.55.15-2.33,0-.14,0-.29,0-.44l-.73.15c-2.18.43-4.35.82-6.53,1.19,0-.38,0-.76.09-1.14,2.12-.35,4.26-.72,6.39-1.13l.72-.13a2.3,2.3,0,0,1,0-.45c.13-1.32.27-2.65.4-4s.24-2.64.34-4c2.95-.68,5.9-1.43,8.86-2.27l.11-.91c-3.17.9-6.3,1.7-9.45,2.42l-.91.17c-.09,1.39-.2,2.79-.33,4.18s-.3,2.79-.44,4.19c-2.13.4-4.27.76-6.4,1.09l-.74.11c0,.15,0,.3,0,.45-.07.68-.1,1.35-.13,2l0,.43.72-.11c2.16-.35,4.34-.73,6.52-1.15,0,.48-.06,1-.08,1.43-3,.54-6,1-8.92,1.45.09-1.53.18-3.05.28-4.58s.2-3.06.33-4.58l2-.34c-.11,1.11-.24,2.22-.34,3.33a3.11,3.11,0,0,0,0,.43l.69-.09c1.27-.2,2.55-.43,3.82-.66l.74-.12c0-.15,0-.3,0-.46.1-1,.19-2.07.28-3.11s.14-2.07.2-3.11l0-.44c-.24.05-.47.1-.71.13-3.42.65-6.84,1.21-10.25,1.72l-.9.1c-.09,1.37-.22,2.75-.35,4.13s-.3,2.76-.43,4.13c-2.13.21-4.25.38-6.38.51l-.73,0c0,.15,0,.3,0,.44,0,.67-.09,1.33-.11,2a3,3,0,0,0,0,.42l.71,0c2.15-.14,4.32-.32,6.49-.54,0,.47-.07.95-.08,1.42-3,.26-5.94.45-8.88.57.09-1.49.19-3,.29-4.48s.2-3,.33-4.49l2-.16c-.11,1.09-.22,2.18-.35,3.27a2.85,2.85,0,0,0,0,.42l.7,0c1.26-.09,2.54-.2,3.8-.31.25,0,.5,0,.75-.06,0-.15,0-.29,0-.45.1-1,.2-2,.29-3.07s.15-2,.21-3.07a3.25,3.25,0,0,1,0-.44L55.3,37c-3.41.36-6.82.64-10.21.83H44.2c-.1,1.34-.22,2.67-.34,4s-.31,2.67-.43,4c-2.13,0-4.23-.1-6.34-.19l-.74,0,0,.43c-.06.65-.1,1.29-.14,1.94,0,.13,0,.27,0,.41l.7,0c2.15.09,4.29.16,6.45.19,0,.46,0,.91-.08,1.37q-4.41-.12-8.84-.38c.12-1.45.21-2.9.31-4.36s.21-2.91.34-4.36l2,.06c-.11,1-.23,2.1-.35,3.15,0,.14,0,.28-.05.42l.7,0,3.79.1.74,0c0-.15,0-.29,0-.44.11-1,.21-2,.29-3s.16-2,.22-3c0-.14,0-.28,0-.42H41.7c-3.4,0-6.79-.1-10.15-.27l-.89-.06c-.09,1.3-.22,2.61-.34,3.91s-.31,2.62-.44,3.92q-3.16-.3-6.31-.68l-.73-.1,0,.43c-.06.65-.11,1.29-.15,1.94,0,.14,0,.28,0,.41.23,0,.47.06.7.09,2.14.24,4.28.45,6.44.64l-.09,1.35c-2.93-.28-5.88-.61-8.8-1,.09-1.45.19-2.92.3-4.38s.21-2.93.35-4.38l2,.23c-.11,1-.23,2.1-.35,3.15,0,.13,0,.27-.05.41l.69.1,3.77.41.74.08c0-.15,0-.29,0-.43l.3-2.93c.09-1,.15-2,.21-2.92,0-.14,0-.28,0-.42l-.72-.07Q23.1,36.79,18.08,36l-.88-.18c-.09,1.32-.21,2.65-.34,4s-.32,2.66-.46,4c-2.1-.4-4.19-.82-6.28-1.29l-.71-.16a3.29,3.29,0,0,0-.05.44c-.06.67-.11,1.34-.14,2,0,.15,0,.29,0,.44l.69.15q3.19.65,6.41,1.19c0,.46-.06.92-.08,1.37-2.94-.51-5.85-1.08-8.77-1.73.11-1.52.22-3,.32-4.57s.23-3.06.37-4.57l2,.47c-.11,1.08-.25,2.17-.37,3.25,0,.14,0,.28-.05.43l.69.17q1.88.42,3.75.78c.24.05.48.11.73.15a3.13,3.13,0,0,1,0-.43c.1-1,.21-2,.31-3s.15-2,.21-3c0-.14,0-.28,0-.42l-.71-.16q-5-1.11-10-2.54l-.87-.27c0,.35,0,.7-.08,1.05ZM81.2,38.91h0l-2.94.8-.69.16a3.37,3.37,0,0,1,0-.44c.11-1.11.23-2.23.34-3.35l-2,.52c-.13,1.54-.23,3.07-.33,4.6l-.27,4.61c2.26-.54,4.52-1.14,6.79-1.78l.11.64.06.18q-3.87,1.09-7.74,2l-.71.15c0-.14,0-.29,0-.44.12-1.69.2-3.37.31-5s.22-3.36.35-5.05c0-.15,0-.31,0-.46l.75-.15L78.76,35l.7-.18c0,.15,0,.29,0,.44-.1,1.11-.22,2.23-.32,3.34l2-.56v.12l.12.72Zm.68,3.8h0c-1.36.39-2.71.77-4.06,1.13L77.1,44c0-.15,0-.29,0-.44q0-1,.12-2c0-.15,0-.3,0-.45l.74-.17c1.13-.29,2.26-.6,3.39-.91l.15.83-2.88.78-.06,1.14c1-.27,2.08-.57,3.13-.87Z"/><path class="cls-2" d="M3.11,43.12l.05-.25.52.15.71.19a3.37,3.37,0,0,0,0,.44c-.07.78-.13,1.55-.17,2.32,0,.15,0,.3,0,.45l-.7-.18-.16-.05V46c0-.77.11-1.55.17-2.32,0-.15,0-.3,0-.44l-.41-.11Zm.72-10.38h0l0-.29.87.28q5,1.43,10,2.54l.7.16c0,.13,0,.28,0,.42-.06,1-.12,2-.22,3s-.21,2-.3,3a2.1,2.1,0,0,0-.05.43l-.73-.15-.13,0a2,2,0,0,1,0-.24c.09-1,.21-2,.3-3s.16-2,.21-3l0-.43-.71-.16c-3.34-.74-6.69-1.58-10-2.53Zm4.3,4.49h0L7.28,37c-.13,1.52-.26,3-.37,4.58s-.21,3-.32,4.57c2.92.64,5.83,1.22,8.77,1.73v-.17c-2.65-.48-5.27-1-7.9-1.58.1-1.52.21-3,.32-4.57s.22-2.9.34-4.35Zm1.26,5.26h0l0-.22.71.17c1.81.4,3.62.78,5.43,1.12l0,.18c-2-.38-4.09-.8-6.15-1.25ZM17.2,36h0q5,.81,10.09,1.32l.73.07c0,.14,0,.27,0,.41-.06,1-.12,2-.21,2.93s-.19,2-.3,2.92c0,.11,0,.22,0,.32h.13l.73.08c0-.14,0-.28,0-.43.11-1,.2-1.95.3-2.92s.15-1.95.21-2.93l0-.41-.72-.07c-3.39-.34-6.75-.78-10.1-1.32l-.88-.17V36Zm4.35,3.81h0c-.14,1.41-.24,2.83-.34,4.26l-.3,4.38c2.64.34,5.29.63,7.94.89v.1c-2.93-.28-5.88-.6-8.8-1l.3-4.38c.1-1.47.21-2.93.35-4.39l.86.11Zm1.29,4.89h0c2.05.25,4.12.47,6.19.67v-.1q-2.74-.27-5.45-.6l-.73-.1,0,.13Zm7.83-7.1h0v-.09l.88.07c3.37.17,6.76.26,10.15.27h.73c0,.15,0,.28,0,.43-.07,1-.14,2-.22,3s-.18,2-.29,3c0,.14,0,.29,0,.43l-.74,0H41c0-.13,0-.26,0-.38.1-1,.2-2,.29-3s.15-2,.22-3c0-.14,0-.28,0-.42h-.72c-3.4,0-6.79-.1-10.15-.27Zm4.4,3.32h0l-.87,0c-.14,1.46-.25,2.91-.35,4.37s-.19,2.9-.3,4.36c2.94.17,5.89.3,8.83.38v0c-2.65-.08-5.31-.2-8-.35.12-1.45.21-2.91.31-4.36s.2-2.88.34-4.31Zm1.29,4.74h0v-.06l.74,0c1.81.09,3.63.15,5.47.18v0q-3.13,0-6.22-.18Zm7.86-7.84h.2l-.19,0Zm10.94-.83h0l.16,0,.72-.08,0,.44c0,1-.13,2-.21,3.07s-.18,2-.28,3.07c0,.15,0,.3-.05.45l-.74.06c-1.26.11-2.55.22-3.81.31l-.69,0v0c1.21-.08,2.43-.19,3.64-.3l.74,0c0-.15,0-.3,0-.45.09-1,.2-2,.28-3.07s.15-2,.21-3.07c0-.12,0-.24,0-.36Zm-5.42,3.71h0l-1.11.09c-.14,1.49-.24,3-.34,4.49L48,49.69l-.87,0c.1-1.5.19-3,.29-4.48s.2-3,.34-4.5l2-.15v0Zm6.35,7.15h0v-.06c-2.11.21-4.23.38-6.33.52v0l.72,0q2.79-.18,5.61-.45Zm12.72-13h0l.17,0,.72-.13c0,.15,0,.3,0,.44-.06,1-.11,2.08-.19,3.11s-.19,2.08-.29,3.11c0,.16,0,.31,0,.46l-.75.12c-1.26.23-2.55.46-3.81.66l-.7.09v-.1c1.21-.2,2.43-.41,3.64-.63l.74-.12c0-.15,0-.3,0-.46.1-1,.2-2.07.28-3.11s.14-2.07.2-3.11l0-.3Zm-5.44,4.22h0v-.14l-2,.34q-.18,2.3-.33,4.59c-.1,1.52-.18,3-.28,4.58l.88-.13.27-4.47q.15-2.3.33-4.59l1.12-.18Zm6.39,6.64h0c-1.88.35-3.77.68-5.64,1l-.71.11v-.12c2.11-.34,4.24-.71,6.36-1.13v.16ZM81,32h0l-.08.68c-3,.83-5.92,1.59-8.87,2.27-.09,1.32-.21,2.65-.34,4s-.27,2.65-.4,4a3.49,3.49,0,0,0,0,.44l-.71.14c-2.14.41-4.28.78-6.4,1.12,0,.39-.06.77-.09,1.15l.88-.15c0-.34,0-.68.08-1q3.19-.51,6.4-1.12l.71-.14c0-.14,0-.29,0-.44.13-1.32.28-2.65.4-4s.25-2.64.34-4c3-.68,5.9-1.44,8.87-2.27l.11-.91L81,32ZM71.27,44.52h0l.15,0,.74-.15c0,.15,0,.3,0,.44,0,.78-.11,1.55-.14,2.32,0,.15,0,.3,0,.45l-.73.14c-3.46.65-6.94,1.21-10.4,1.68l-.7.09v-.09c3.4-.47,6.82-1,10.23-1.66l.73-.14c0-.15,0-.3,0-.45,0-.77.08-1.55.14-2.32,0-.09,0-.19,0-.28ZM64.9,37.94h0c0,.11,0,.21,0,.32-.09,1.12-.22,2.22-.33,3.33l.89-.16c.1-1.06.22-2.12.31-3.19a3.34,3.34,0,0,1,.05-.43l-.72.1-.17,0Zm2.42-2h0v-.15q-4.5.84-9,1.5c-.11,1.31-.22,2.63-.35,3.94s-.27,2.61-.41,3.92c0,.15,0,.3,0,.44l-.72.07c-2.13.22-4.26.39-6.37.54,0,.37-.06.75-.08,1.13l.88-.07c0-.36,0-.72.07-1.08,2.12-.15,4.24-.32,6.37-.53l.72-.08c0-.14,0-.29,0-.44.14-1.3.28-2.62.41-3.92s.25-2.62.35-3.93c2.7-.41,5.4-.85,8.11-1.34Zm-9.73,10.8h0c0,.12,0,.24,0,.36,0,.77-.11,1.54-.15,2.3,0,.15,0,.3,0,.44l-.72.08c-3.37.3-6.74.52-10.07.63h.6c3.42-.11,6.89-.33,10.34-.64l.28,0,.61-3.22-.69.08Zm-6.33-7.09h0c0,.13,0,.26,0,.39-.1,1.09-.23,2.18-.34,3.27l.88-.08c.11-1.07.23-2.14.33-3.21a3,3,0,0,1,0-.42l-.72,0-.16,0ZM53.66,38h0v-.07q-4.47.46-8.94.72c-.11,1.27-.23,2.54-.36,3.82S44.1,45,44,46.23c0,.13,0,.27,0,.4h.87c0-.14,0-.29.05-.43.13-1.27.28-2.54.41-3.81s.25-2.55.35-3.82c2.69-.15,5.37-.37,8.06-.63ZM37.74,46.51h0c0,.35-.05.7-.08,1,2.15.08,4.31.14,6.46.15h.72c0,.14,0,.28,0,.42-.06.75-.11,1.5-.14,2.24a3.17,3.17,0,0,0,0,.43h-.87a2.68,2.68,0,0,1,0-.4c0-.74.08-1.49.14-2.24,0-.14,0-.28,0-.42h-.72q-3.24,0-6.46-.15c0-.36,0-.73.08-1.09l.87,0ZM33.69,40h0c1.1.06,2.19.11,3.28.14l.71,0c0,.14,0,.27,0,.41-.11,1.05-.23,2.1-.34,3.16l2.35,0v0l-1.48,0c.11-1.06.24-2.11.34-3.16,0-.14,0-.27,0-.41l-.7,0c-1.15,0-2.28-.08-3.43-.14l-.72,0V40ZM32,38.45l-.87,0c-.1,1.24-.22,2.48-.35,3.72s-.28,2.48-.41,3.72a1.84,1.84,0,0,0,0,.33h.15l.72.06a2,2,0,0,1,0-.42c.12-1.24.27-2.48.4-3.72s.25-2.44.35-3.66ZM24.2,45.66h0l-.86-.1c0,.37-.06.73-.08,1.09q3.22.35,6.44.61l.72.05a3,3,0,0,0,0,.42c-.06.73-.1,1.46-.13,2.19l0,.33h.15l.72.06c0-.14,0-.28,0-.42,0-.73.07-1.46.13-2.19a2.73,2.73,0,0,1,0-.41l-.72,0c-2.14-.19-4.29-.39-6.44-.62,0-.32,0-.65.07-1Zm-4-7h0l0-.17.74.14q1.68.26,3.39.48l.7.1c0,.13,0,.27,0,.41-.11,1-.23,2.08-.35,3.13l1.47.15V43l-2.33-.23c.12-1.05.24-2.09.35-3.14a2.71,2.71,0,0,1,0-.4l-.71-.1c-1.09-.15-2.18-.3-3.27-.47ZM18.56,37c-.09,1.2-.22,2.4-.35,3.61s-.29,2.51-.42,3.77c0,.14,0,.28-.05.42l-.7-.13-.16,0a2.34,2.34,0,0,0,0-.26c.13-1.25.29-2.51.42-3.76s.27-2.51.36-3.76l.86.13Zm-7.81,6.65h0c0,.31,0,.61-.07.93,2.14.42,4.27.82,6.41,1.17l.71.12c0,.14,0,.28,0,.42-.07.74-.13,1.48-.16,2.22,0,.15,0,.29,0,.43l-.72-.11-.15,0c0-.09,0-.18,0-.27,0-.74.09-1.48.15-2.22l0-.42-.71-.12C14.08,45.44,12,45,9.81,44.61c0-.37,0-.75.08-1.12l.86.18ZM6.79,36h0c1.08.29,2.17.58,3.26.84l.69.19c0,.13,0,.27,0,.41-.1,1.08-.24,2.16-.36,3.23.77.17,1.54.32,2.32.47l0-.18-1.47-.3c.12-1.08.26-2.16.36-3.23,0-.14,0-.28,0-.42l-.69-.19c-1.13-.27-2.25-.57-3.37-.87l-.74-.22,0,.27ZM5.18,34h0l-.85-.23c-.07.92-.16,1.84-.25,2.77l.11,1.11L3.65,40.4c0,.42-.09.83-.13,1.25l0,.18.13,0,.71.2c0-.15,0-.29.06-.44.12-1.31.28-2.63.43-3.94s.25-2.45.35-3.67Zm76,4.83h0l-2.94.81-.7.16a1.15,1.15,0,0,1,0-.19l2.76-.76-.11-.61.87-.24,0,.12.13.71Zm-4.16-2.59-1.12.29c-.13,1.54-.23,3.07-.32,4.6s-.18,2.93-.26,4.41l-.89.21c.09-1.54.18-3.07.28-4.6s.19-3.06.32-4.6l2-.52,0,.21Zm4.24,8h0l.83-.23.12.64a1.54,1.54,0,0,1,0,.17q-3.87,1.11-7.73,2l-.72.15v-.17q3.78-.9,7.58-2a.7.7,0,0,0-.06-.17l-.07-.43ZM78.58,35h0l.19-.05.71-.17c0,.14,0,.29,0,.43-.09,1-.2,2.08-.29,3.11l-.9.26c.1-1.11.22-2.23.32-3.35,0-.07,0-.15,0-.23Zm3.32,7.64h0c-1.36.39-2.72.77-4.07,1.13l-.71.17a1.41,1.41,0,0,1,0-.2c1.29-.35,2.59-.71,3.89-1.09l-.1-.59.83-.25.15.83Zm-1.32-2.48h0l.84-.23.14.83c-1,.28-1.92.54-2.88.79,0,.31,0,.61-.05.92l-.88.24.06-1.14c1-.25,1.92-.52,2.88-.79Z"/><path class="cls-4" d="M21,51c-.2.27-.19,1.11,2,1.21a22.47,22.47,0,0,0,4,.13C27.63,52.17,25.12,50.23,21,51Z"/><path class="cls-2" d="M68.34,49.14a1.33,1.33,0,0,0,1.89,1.42,1.75,1.75,0,0,0,1.22-1.65C71.39,48.59,71.82,48,68.34,49.14Z"/><path class="cls-14" d="M13.72,27.26c2.8-.5,5.6-1,8.37-1.34-.07,1.2-.14,2.41-.22,3.62l1.45.21c.09-1.49.17-3,.28-4.47,0-.15,0-.3,0-.45l-.72.09c-3.13.43-6.27.93-9.4,1.49a3.32,3.32,0,0,0,.22.85Zm2.33,1h0c1.18-.21,2.35-.4,3.51-.59l.73-.12a3.4,3.4,0,0,1,0,.45c0,.42,0,.83-.06,1.25-.5-.09-1-.18-1.44-.28l0-.29-.74.13c-.68-.16-1.33-.34-2-.55ZM25.27,30h0l.08-.79a3.42,3.42,0,0,0,0-.45l.74-.08c2.18-.22,4.34-.39,6.5-.54,0-.39.06-.77.08-1.15-2.22.16-4.43.36-6.65.59l-.73.08a3.4,3.4,0,0,0,0-.45c.06-.78.11-1.56.16-2.34,0-.15,0-.31,0-.45l.74-.08c3.53-.32,7.06-.54,10.55-.66h.74c0,.15,0,.29,0,.44-.12,1.67-.2,3.34-.33,5l-.12,1.65-1.46,0c0-.52.07-1.05.1-1.58l.3-4.57c-3,.12-6,.32-9.07.58,0,.48,0,1-.08,1.45,2.21-.22,4.43-.41,6.62-.55l.73,0a3.25,3.25,0,0,1,0,.44c0,.68-.06,1.36-.12,2l0,.45-.75,0c-2.18.13-4.34.3-6.51.52l-.06.65L25.27,30Zm4.45.43h0c1.23.09,2.56.17,4,.23v-.09a3.42,3.42,0,0,0,0-.44l-.71,0-3.32.27ZM39,30.8h1.48c.08-.74.16-1.48.23-2.22,2.17,0,4.32.1,6.47.2l.76,0,0-.44c.06-.65.1-1.31.14-2,0-.14,0-.28,0-.42l-.71,0c-2.2-.09-4.39-.15-6.59-.18l.09-1.41c3,.08,6,.22,9,.39-.11,1.48-.21,3-.31,4.45,0,.46-.06.92-.1,1.38L51,30.49l.09-1.2c.12-1.62.22-3.25.33-4.87,0-.14,0-.29,0-.43l-.71,0q-5.25-.33-10.5-.47h-.74a3.24,3.24,0,0,1,0,.44c0,.76-.09,1.52-.14,2.28,0,.15,0,.3,0,.44H40c2.2,0,4.4.07,6.59.15,0,.37,0,.74-.08,1.12-2.15-.09-4.3-.16-6.46-.18H39.3c0,.15,0,.29,0,.44-.1.88-.19,1.76-.29,2.65Zm3.23,0h0l.06-.58c0-.14,0-.29,0-.44l.75,0c1.29,0,2.58.06,3.86.1l.72,0a3.15,3.15,0,0,1,0,.43l0,.29-1.66.06q-1.11,0-2.22,0v.08l-1.46,0Zm10.7-.45h0c.06-.61.13-1.21.19-1.82a2,2,0,0,0,0-.42l.74.06c2.15.19,4.31.41,6.44.66a10.36,10.36,0,0,0,.08-1.11c-2.18-.24-4.38-.44-6.57-.63L53.07,27a2,2,0,0,0,0-.43c.06-.74.1-1.48.13-2.23a3,3,0,0,0,0-.43L54,24q5.24.48,10.45,1.14l.73.11c0,.14,0,.28,0,.43-.06,1-.13,1.95-.2,2.93l-1.48.27c.07-1,.14-2,.2-3-3-.38-6-.71-9-1,0,.46-.06.92-.1,1.38,2.21.19,4.4.41,6.58.64l.71.09a3.05,3.05,0,0,1,0,.43c0,.6-.08,1.19-.14,1.79l-.14,0c-.27.06-.13.43-.37.53l-.28,0-.71-.08a2.81,2.81,0,0,0-.71-.1h-.05c-1.65-.19-3.31-.36-5-.52l-.12,1.14-1.49.13Zm14-2.16h0a13.25,13.25,0,0,0,1.51-.55c0-.4.05-.8.07-1.2l1.66.3c.39-.25.73-.48,1-.69-1.1-.21-2.21-.4-3.32-.59l-.74-.12c0,.15,0,.29,0,.44,0,.75-.1,1.51-.16,2.26A.76.76,0,0,0,66.87,28.19Z"/><path class="cls-4" d="M13.72,27.27c2.8-.5,5.6-.95,8.37-1.34-.08,1.2-.15,2.4-.22,3.61l1.41.21c.1-1.48.18-3,.28-4.45a3.1,3.1,0,0,0,0-.43l-.7.08c-3.12.43-6.25.93-9.37,1.49a3,3,0,0,0,.21.83Zm2.3,1h0l3.59-.61.71-.11c0,.15,0,.29,0,.44,0,.43,0,.86-.07,1.29-.49-.09-1-.18-1.41-.28,0-.11,0-.23,0-.34L18,28.8c-.65-.16-1.29-.34-1.93-.54ZM25.19,30h0l.09-.84c0-.15,0-.29,0-.44l.72-.07c2.13-.22,4.26-.39,6.37-.54,0-.37.06-.75.08-1.12q-3.26.24-6.51.58l-.72.08c0-.15,0-.29,0-.44.05-.77.11-1.53.15-2.3,0-.15,0-.3,0-.44l.72-.07c3.46-.32,6.92-.53,10.34-.65h.72c0,.14,0,.28,0,.42-.12,1.64-.2,3.28-.33,4.91l-.12,1.7-1.43,0c0-.55.08-1.09.11-1.63.1-1.5.19-3,.29-4.49-2.94.12-5.91.32-8.88.58,0,.47-.05.94-.08,1.42,2.17-.22,4.34-.4,6.49-.54L34,26c0,.15,0,.29,0,.43,0,.66-.06,1.33-.11,2,0,.15,0,.3,0,.44l-.74.05q-3.19.19-6.37.5c0,.24-.05.47-.07.71L25.19,30Zm4,.4h0c1.32.1,2.74.19,4.29.26l0-.17c0-.14,0-.28,0-.42l-.7,0c-1.21.08-2.44.19-3.65.3Zm9.44.4h1.45c.08-.75.17-1.5.23-2.25,2.13,0,4.24.09,6.35.19l.74,0c0-.15,0-.29,0-.44.06-.64.11-1.29.15-1.93,0-.14,0-.27,0-.41l-.71,0q-3.21-.13-6.45-.18l.09-1.37c2.94.08,5.89.21,8.83.38-.11,1.45-.2,2.9-.3,4.36,0,.48-.07,1-.11,1.46l1.44-.08c0-.43.07-.86.1-1.29.12-1.6.21-3.19.32-4.78,0-.14,0-.28,0-.42l-.7,0c-3.43-.21-6.86-.37-10.29-.46h-.72a3,3,0,0,1,0,.43c0,.75-.08,1.49-.14,2.24,0,.14,0,.29,0,.43h.72c2.16,0,4.31.07,6.46.15,0,.36,0,.72-.08,1.09-2.11-.09-4.22-.16-6.33-.18h-.72c0,.14,0,.28,0,.43l-.3,2.67Zm3.16,0h0l.07-.65c0-.15,0-.29,0-.44l.74,0c1.26,0,2.52.06,3.78.1l.7,0c0,.14,0,.28,0,.42l0,.39-1.45,0v-.09c-.78,0-1.56,0-2.35,0v.17Zm10.48-.4h0l.21-1.91a2.93,2.93,0,0,0,0-.41l.72.05q3.16.29,6.32.65c0-.36.06-.73.08-1.09q-3.23-.35-6.44-.61l-.72,0a3,3,0,0,0,0-.42c.06-.73.1-1.46.13-2.18,0-.14,0-.29,0-.42l.72,0q5.13.47,10.24,1.12l.71.1c0,.15,0,.28,0,.42l-.21,3.08-1.45.28.21-3.14c-2.92-.37-5.87-.69-8.8-1,0,.45-.06.9-.1,1.35,2.17.19,4.31.4,6.44.63l.7.09c0,.14,0,.28,0,.42-.05.65-.1,1.29-.16,1.93,0,.15,0,.29,0,.43l-.31,0a4.65,4.65,0,0,0-1-.17l-.14,0q-2.76-.33-5.55-.6c0,.42-.08.84-.13,1.26l-1.46.12Zm13.69-2h0a12,12,0,0,0,1.86-.55l-.38-.06q.06-.69.09-1.38l2.38.43c.39-.23.73-.46,1-.67q-2-.37-4.05-.72l-.72-.11c0,.14,0,.28,0,.42,0,.74-.09,1.48-.16,2.22C66,28.15,65.94,28.29,65.93,28.43Z"/><path class="cls-14" d="M13.75,27.32c2.92-.52,5.83-1,8.72-1.41-.08,1.23-.15,2.46-.23,3.68l1.42.21c.09-1.5.18-3,.28-4.51,0-.15,0-.29,0-.44l-.7.09c-3.24.45-6.5,1-9.74,1.56a2.49,2.49,0,0,0,.23.82Zm1.82,1.13h0c1.29-.23,3.14-.6,4.42-.81l.71-.11a3.37,3.37,0,0,1,0,.44c0,.45,0,.91-.07,1.36-.49-.08-1-.17-1.41-.26l0-.44c-.38.07-2.47.3-2.85.36l-.8-.54Zm10,1.59h0l.1-.9c0-.15,0-.3,0-.44l.72-.07c2.13-.22,4.25-.39,6.37-.54,0-.38.06-.75.08-1.13-2.17.17-4.34.35-6.52.59l-.71.08c0-.15,0-.3,0-.44,0-.77.11-1.54.15-2.3,0-.15,0-.3,0-.44l.72-.08c3.45-.31,6.91-.53,10.33-.64h.73c0,.14,0,.28,0,.42-.12,1.64-.2,3.27-.33,4.91l-.12,1.72-1.43,0c0-.55.07-1.1.11-1.66.09-1.49.19-3,.29-4.48-2.94.12-5.91.31-8.88.58q0,.7-.09,1.41c2.17-.21,4.34-.39,6.49-.53l.72,0,0,.43c0,.66-.07,1.33-.12,2l0,.44-.74,0q-3.19.2-6.37.51c0,.25,0,.51-.08.76L25.56,30Zm3.69.35h0c1.4.11,2.92.21,4.57.28l0-.2a3.11,3.11,0,0,0,0-.43l-.69,0c-1.26.09-2.55.2-3.81.32ZM39,30.8h1.44c.09-.76.17-1.52.24-2.27q3.2,0,6.34.19l.74,0a3.22,3.22,0,0,0,0-.43c.06-.64.11-1.29.15-1.93V26l-.7,0q-3.21-.14-6.45-.18l.09-1.38c2.93.08,5.89.21,8.83.38-.11,1.46-.21,2.91-.31,4.36,0,.49-.06,1-.1,1.46l1.44-.08c0-.43.07-.86.1-1.29.12-1.59.21-3.19.32-4.78,0-.13,0-.27,0-.41l-.7-.05c-3.43-.2-6.86-.36-10.29-.45h-.72a3.1,3.1,0,0,1,0,.43c0,.74-.08,1.49-.14,2.24a3,3,0,0,1,0,.42H40c2.15,0,4.31.07,6.46.15,0,.36-.05.73-.08,1.09-2.11-.08-4.22-.15-6.34-.17h-.71c0,.15,0,.29,0,.43L39,30.8Zm3.16,0h0c0-.22,0-.45.07-.67s0-.29,0-.43l.74,0c1.26,0,2.52.05,3.78.1l.7,0c0,.14,0,.28,0,.41l0,.4-1.45.05v-.1l-2.35,0,0,.18-1.43,0Zm10.48-.43h0l.21-1.89a3,3,0,0,0,0-.42l.72.06q3.16.28,6.32.65c0-.37.06-.73.08-1.09q-3.23-.34-6.44-.61L52.81,27a2,2,0,0,0,0-.42c0-.73.1-1.46.13-2.19,0-.14,0-.28,0-.42l.72.06q5.13.46,10.24,1.12l.71.1,0,.42-.21,3L63,29l.21-3.07c-2.92-.37-5.87-.69-8.8-1,0,.45-.06.9-.1,1.35,2.17.19,4.31.4,6.44.63l.7.09a3,3,0,0,1,0,.42c0,.64-.09,1.29-.15,1.93a3.11,3.11,0,0,1,0,.43l-.73-.1-.7-.08-.14,0c-1.81-.21-3.64-.4-5.47-.58,0,.41-.08.82-.13,1.24l-1.46.12Zm13.69-2h0a13.41,13.41,0,0,0,1.62-.51l-.14,0c0-.45.07-.91.09-1.37l2.11.38c.39-.24.72-.46,1-.67-1.25-.24-2.51-.46-3.76-.67l-.72-.12c0,.14,0,.29,0,.43,0,.74-.09,1.48-.16,2.22C66.33,28.11,66.32,28.23,66.31,28.34Z"/><path class="cls-14" d="M13.55,26.68l.17,0c3.4-.63,6.82-1.18,10.22-1.65v-.09l-.71.08c-3.23.45-6.48,1-9.72,1.56l0,.13Zm2.68,1.65h0c1.25-.23,2.5-.44,3.74-.64l.72-.11a.49.49,0,0,1,0,.12c-1.38.22-2.77.46-4.16.72l-.29-.09Zm2.95.74h0l.86.16c0-.19,0-.37,0-.56l-.89.15v.25Zm3.05.52h0c.07-1.17.14-2.34.22-3.51l.87-.13c-.07,1.26-.15,2.51-.23,3.77l-.86-.13Zm3.32.44h0l.86.1.11-1c0-.15,0-.29,0-.44l.73-.07c2.13-.22,4.25-.39,6.36-.54,0-.37.06-.75.08-1.12l-.87.07c0,.36-.05.71-.08,1.07-2.11.15-4.23.32-6.36.54l-.73.07a3.27,3.27,0,0,1,0,.44l-.09.84Zm4,.39h0c1.2-.11,2.4-.21,3.6-.29l.69,0v0c-1.21.09-2.43.19-3.63.3l-.34,0-.32,0Zm6.12.32h0c0-.54.07-1.07.1-1.6l.29-4.47.87,0c-.09,1.5-.19,3-.28,4.49,0,.55-.07,1.09-.11,1.64l-.87,0ZM39,30.8h.87c.1-.89.2-1.78.29-2.66,0-.14,0-.27,0-.4h-.87c0,.14,0,.28-.05.42-.1.88-.2,1.77-.29,2.65Zm3.16,0H43c0-.21,0-.42.07-.62s0-.26,0-.39H43l-.74,0c0,.15,0,.29,0,.43s-.05.42-.07.62Zm3.79-.07h0l.87,0v0c-.77,0-1.56,0-2.34,0v0l1.48,0v0Zm3.35-.14c0-.47.07-.94.1-1.4.1-1.46.19-2.91.31-4.36q-4-.24-8-.36v0c2.93.08,5.88.21,8.83.38-.12,1.45-.21,2.9-.31,4.36,0,.46-.06.91-.1,1.37l-.87.05Zm3.34-.22h0c.07-.61.14-1.22.2-1.84a3,3,0,0,0,0-.42l.72.06.15,0c0,.1,0,.21,0,.32-.06.6-.13,1.19-.19,1.79l-.88.07Zm6.78-.76h0l.13,0a3.57,3.57,0,0,1,.93.15h.06c.21,0,.43.06.63.09l.1,0v-.09c-2-.24-4.11-.47-6.18-.67v.11c1.45.14,2.89.3,4.33.46ZM63,29h0l.88-.16c.07-1,.13-1.92.19-2.88-2.92-.37-5.87-.69-8.8-1v.11c2.64.25,5.3.55,7.93.88-.06,1-.13,2-.2,3Zm3.32-.63h0c0-.1,0-.2,0-.3.06-.74.12-1.48.16-2.22,0-.14,0-.28,0-.43l.71.12.15,0c0,.09,0,.18,0,.27,0,.74-.1,1.48-.16,2.22v.06c-.28.1-.58.18-.89.26Zm3.62-1.5h0l.22-.14-1.41-.25v.18l1.19.21ZM47.74,28.76c-2.07-.1-4.13-.16-6.22-.19v0c1.83,0,3.65.1,5.47.18l.74,0v0ZM28,26.56h0c1.87-.18,3.75-.33,5.61-.45l.71,0v0c-2.1.14-4.21.31-6.33.53v-.07Zm-1.5,1-.17,0-.71.08c0-.15,0-.3,0-.44.06-.77.11-1.54.15-2.3a3.27,3.27,0,0,0,0-.44l.73-.08c3.45-.31,6.91-.53,10.33-.64h.6c-3.33.12-6.7.33-10.06.64l-.73.07c0,.15,0,.29,0,.44l-.15,2.3c0,.12,0,.24,0,.36Zm19.85.27c0-.35,0-.69.07-1-2.14-.08-4.3-.13-6.46-.14h-.72c0-.15,0-.29,0-.43,0-.75.1-1.49.14-2.24,0-.14,0-.29,0-.43h.87c0,.13,0,.26,0,.39,0,.75-.09,1.5-.14,2.24a3.11,3.11,0,0,1,0,.43h.73c2.15,0,4.31.07,6.45.15,0,.36,0,.72-.08,1.09l-.86,0Zm13.54.85.85.1a10,10,0,0,0,.08-1.09q-3.21-.34-6.44-.61l-.72-.05a3,3,0,0,0,0-.42c0-.73.1-1.45.13-2.18,0-.11,0-.22,0-.33l-.15,0L53,24c0,.14,0,.29,0,.43,0,.72-.08,1.45-.13,2.18,0,.14,0,.28,0,.42l.72.05c2.14.18,4.3.38,6.44.61,0,.32,0,.65-.06,1Z"/><path class="cls-15" d="M30.84,9.19c3.57.16,8.52.24,11.67.24s4.26,0,6.28-.07l3,2.06-.22,2.66a2.74,2.74,0,0,1-1,.36c-.37,0,.16,1.19.81,2.45l-.52,6.27-2.4,4.05,2.08-.3-.48,5.85c-2.77.12-3.18.13-7.16.13s-9.79-.19-14.19-.52l.11-4-.31-.56-.1-2.34.33-.5-.23-2.87s-.14-.49-.29-1.07l-.14-3.18a5,5,0,0,1,.31-.56,1.89,1.89,0,0,0-.16-1.83A1.44,1.44,0,0,1,28,15l-.14-3Z"/><path class="cls-2" d="M51.7,12.82l-.1,1.26a2.74,2.74,0,0,1-1,.36c-.37,0,.16,1.19.81,2.45l-.52,6.27-2.4,4.05,2.08-.3-.48,5.85c-2.77.12-3.18.13-7.16.13-3,0-7.14-.11-10.86-.31L33.88,30l4-.79L45,15.89a9.47,9.47,0,0,1,2.69.6C48,16.68,49.86,14.78,51.7,12.82Z"/><path class="cls-3" d="M28.63,23.71l-.13-1.63s-.14-.49-.29-1.07l-.1-2.34.34-.18,1.35,2.93Z"/><path class="cls-15" d="M18.23,5C14.93,5.51,13,6.1,13,6.7s1.7,1.11,4.61,1.56l-3.41,1.87,2.14,21c-7.11-1.23-11.85-3-12.71-4.91h0a1.61,1.61,0,0,1-.14-.64,1.35,1.35,0,0,1,.07-.44L3.36,23.9l.49.07L3.22,22.9l-.6-4.21.32-.88s-.4-1.51-.81-2.57l-.25-1.76a1.6,1.6,0,0,1,.74-.36c.37,0-.27-1.13-1.11-2.28L1,7.27C1,5.62,6,4.13,14,3.08Z"/><path class="cls-3" d="M13.62,30.6a28.78,28.78,0,0,1-8.41-2.81L2.83,5.57a35.3,35.3,0,0,1,8-2Z"/><path class="cls-2" d="M81.1,25.44s0,.08,0,.12c0,2.51-6.41,4.73-16.25,6.08l1.78-20.18-3-2.86c4.47-.53,7.18-1.26,7.18-1.9s-2-1.22-5.53-1.7l3.57-2.06C77.54,4,83,5.54,83,7.27L81.1,25.44Z"/><path class="cls-4" d="M78.31,28.35a27.8,27.8,0,0,1-5.1,1.73c1.07-8.74,2.35-19.23,3.17-25.94a25.28,25.28,0,0,1,4.78,1.42Z"/><path class="cls-2" d="M18.58,22.12,18.23,5,12,5.75l4,17.38A18.77,18.77,0,0,1,18.58,22.12Z"/><polygon class="cls-4" points="17.59 8.26 20.06 28.95 16.32 31.12 14.21 10.59 17.59 8.26"/><path class="cls-8" d="M14.23,11c-8-1-13-2.37-13.22-3.92.27-1.5,4.67-2.85,11.68-3.85.44.39.87.82.87.82l1.07,0,2.85,1.11c-2.85.44-4.5,1-4.5,1.54s1.7,1.11,4.61,1.56L14.23,11Z"/><path class="cls-10" d="M14.23,11c-8-1-13-2.37-13.22-3.92.28-1.59,5.23-3,13-4l-1.09.7a5.38,5.38,0,0,1-1.59.16c-.24,0-3.66.63-3.66.63L3.94,6.2l-.28.56.51.67L4.61,8l1.75.16a3.83,3.83,0,0,0,.84.44c.24,0,3.18.95,3.18.95l1.95.68,2.73-1,.18.35,1-1,.51-.4.86.14L14.23,11Z"/><path class="cls-8" d="M51.81,12.23c-2.85.08-4.66.12-8.85.12S32.5,12.22,27.81,12l3-2.78c3.57.16,8.52.24,11.67.24s4.26,0,6.28-.07l3,2.06Z"/><path class="cls-10" d="M66,11.52h0L63.39,8.66l.27,0c5.51-.52,7.18-1.21,7.18-1.93s-2-1.22-5.53-1.7l3.57-2.06C77.54,4,83,5.54,83,7.27l0,.79C80.76,9.59,75.64,10.73,66,11.52Z"/><path class="cls-3" d="M66,11.52h0L63.39,8.66l.27,0a36.5,36.5,0,0,0,5.11-.75c-.19.27-.41.55-.56.58s-2.84.59-3.13.59,1.24,1.6,1.64,1.79,1.59-.54,1.84-.74,2.88-.15,3.13-.25a12.34,12.34,0,0,1,2.13-.5c.4,0,3,.25,3.53.35s.55-.79.55-.79l2.29-.5s-.2-.8-.55-.8,1.43-1.27,1.43-1.27l-.93-.12a18.87,18.87,0,0,0-3.43,0c-.45.2,1.49-1.6,1.49-1.6l-5.42-.39-3.5-.67-.4.5-1.12.12-1.25,1L65.31,5l3.57-2.06C77.54,4,83,5.54,83,7.27l0,.79C80.76,9.59,75.64,10.73,66,11.52Z"/><path class="cls-15" d="M63.45,8.62c0,3-.83,21.38-.83,21.38l1.74,1.2.65.44,1.78-20.18Z"/><path class="cls-8" d="M39.16,15.67a7.14,7.14,0,1,1-7.25,7.13A7.18,7.18,0,0,1,39.16,15.67Z"/><path class="cls-1" d="M39.16,29.35A6.55,6.55,0,1,0,32.5,22.8,6.61,6.61,0,0,0,39.16,29.35Z"/><polygon class="cls-16" points="33.29 22.77 39.11 17.04 44.94 22.77 39.11 28.5 33.29 22.77"/><polygon class="cls-17" points="34.05 22.58 38.79 17.91 38.84 17.95 38.84 22.54 34.05 22.58"/><polygon class="cls-18" points="33.26 22.81 39.08 28.54 39.13 28.49 39.17 22.66 33.26 22.81"/><polygon class="cls-15" points="43.79 22.32 39.41 18.01 39.37 18.05 39.37 22.25 43.79 22.32"/><polygon class="cls-1" points="44.98 22.81 39.16 28.54 39.1 28.49 39.1 22.68 44.98 22.81"/><path class="cls-10" d="M29.33,10.58,27.81,12l.59,1.1.59.56,1-.92L31.9,13l.51,1.43,1.67-1.39,5,.32.56.32s1.43-.36,1.67-.36a12,12,0,0,1,2.62.08,6.62,6.62,0,0,0,1.63.2l.64-.36,3.62.15,1-1.16,1,0v-.81s-3.7.18-4,.18-2.54-.12-2.54-.12l-3.18-.12-4.18-.12-3.9.24Z"/><path class="cls-10" d="M2.23,7.12H1L2.15,10l.43-.6.75.84,1.36-.36,2.55,5.69,1.87-4.5.71.64.8-.64s.48.39.75.36,1.08.72,1.31.6a4.87,4.87,0,0,0,.61-.41l.94-.56S2.58,8,2.23,7.12Z"/><polygon class="cls-4" points="14.67 14.89 14.17 21.47 15.52 21.34 15.08 27.09 14.99 30.91 16.93 31.31 18.11 30.66 17.85 29.96 19.99 29.65 20.06 28.95 14.67 14.89"/><path class="cls-7" d="M7.33,13.09c2-.06,3.71,2.75,3.82,6.26s-1.44,6.41-3.44,6.47c-.39,0-2.45.59-2.81.4-1.48-.78-.92-3.82-1-6.66S2.61,14,4.1,13.19A21.63,21.63,0,0,1,7.33,13.09Z"/><path class="cls-1" d="M11.13,19c0,.1,0,.21,0,.32a9.47,9.47,0,0,1-.81,4.3l-5.72.52S3.9,20.45,3.9,20C3.9,19.72,7.91,19.31,11.13,19Z"/><path class="cls-10" d="M4.64,13.1c2-.06,3.71,2.74,3.82,6.25S7,25.76,5,25.82,1.31,23.08,1.2,19.57,2.64,13.16,4.64,13.1Z"/><path class="cls-1" d="M5,25.31c1.83-.06,3.25-2.73,3.15-5.95s-1.67-5.8-3.5-5.74S1.4,16.34,1.5,19.56,3.17,25.36,5,25.31Z"/><polygon class="cls-18" points="0.06 19.88 5.26 24.77 7.11 19.98 0.06 19.88"/><path class="cls-4" d="M.06,19.88l5.2,4.89.5-1.3C4.64,22.6,2.54,21,1.07,19.9Z"/><polygon class="cls-15" points="0 20 4.9 14.81 7.11 19.98 0 20"/><polygon class="cls-17" points="0 20 4.9 14.81 5.27 15.68 0.59 20 0 20"/><path class="cls-7" d="M75.53,13.7c-2-.06-3.71,2.74-3.82,6.25s1.44,6.41,3.44,6.47c.39,0,2.46.59,2.81.4,1.49-.78.93-3.82,1-6.65s1.29-5.57-.21-6.38A21.64,21.64,0,0,0,75.53,13.7Z"/><path class="cls-1" d="M71.73,19.63c0,.1,0,.21,0,.32a9.6,9.6,0,0,0,.82,4.3l5.72.52s.71-3.72.71-4.18C79,20.32,75,19.91,71.73,19.63Z"/><path class="cls-4" d="M78.22,13.7c-2-.06-3.71,2.74-3.81,6.25s1.43,6.41,3.43,6.47,3.72-2.74,3.82-6.25S80.23,13.76,78.22,13.7Z"/><path class="cls-1" d="M77.86,25.91C76,25.85,74.6,23.18,74.7,20s1.67-5.8,3.51-5.74,3.25,2.72,3.16,5.94S79.7,26,77.86,25.91Z"/><polygon class="cls-18" points="82.81 20.48 77.6 25.37 75.76 20.59 82.81 20.48"/><path class="cls-4" d="M82.81,20.48,77.6,25.37l-.5-1.3c1.12-.87,3.23-2.49,4.69-3.57Z"/><polygon class="cls-15" points="82.86 20.6 77.96 15.41 75.76 20.59 82.86 20.6"/><path class="cls-3" d="M63.9,8.82l-.51-.16L63.28,10l.83-.17.07.67.83-.11.22.76.82,6.91.81-3.49L67.71,16l.4-3.76.79.25,1.2-.72,3.28.1.5.4,2.23-.68.75.18,2.53-1.14,1.69-.1,1.2-.95L83,7.66S70.44,12.45,65.78,10C65.08,9.66,64.12,9.58,63.9,8.82Z"/><path class="cls-3" d="M64.68,29c0,.14-.32,2.16-.32,2.16l.65.44,1.24-.2-.5-2.89L66,27.34s.11-3.77.21-3.89a10.3,10.3,0,0,0-.32-1.9l-.67,5.87Z"/><polygon class="cls-3" points="35.11 4.51 33 3.23 48.63 3.12 44.9 4.58 43.76 4.08 41.22 7.56 39.93 4.08 37.99 5.97 37.59 4.13 35.11 4.51"/><path class="cls-4" d="M23.87,29.85l-1.43,1-2.19-.11-.16,1.06s-1.1.66-1.16,1.07.68,13.34.68,13.34l1.53-11.75,1.29-1.18s.57-.6,1.06-1a13.07,13.07,0,0,1,2.83-1.07l1.46-.95Z"/></g></g></svg>