<svg xmlns="http://www.w3.org/2000/svg" viewBox="0 0 73.51 95.47"><defs><style>.cls-1{fill:#525e61;}.cls-1,.cls-10,.cls-11,.cls-12,.cls-13,.cls-14,.cls-15,.cls-16,.cls-17,.cls-18,.cls-19,.cls-2,.cls-20,.cls-3,.cls-4,.cls-5,.cls-6,.cls-7,.cls-8,.cls-9{fill-rule:evenodd;}.cls-2{fill:#a6b3af;}.cls-3{fill:#1c1c21;}.cls-4{fill:#292f31;}.cls-5{fill:#99a19c;}.cls-6{fill:#474a52;}.cls-7{fill:#282932;}.cls-8{fill:#373941;}.cls-9{fill:#141f41;}.cls-10{fill:#64c3bc;}.cls-11{fill:#27282d;}.cls-12{fill:#172c4f;}.cls-13{fill:#3a6fa5;}.cls-14{fill:#172547;}.cls-15{fill:#1f3863;}.cls-16{fill:#12204c;}.cls-17{fill:#0f0d25;}.cls-18{fill:#1b376e;}.cls-19{fill:#fff;}.cls-20{fill:#a3bdc3;}</style></defs><g id="Layer_2" data-name="Layer 2"><g id="Ñëîé_1" data-name="Ñëîé 1"><path class="cls-1" d="M9,74.38c5,5.53,9.58,10.41,19.78,12.75s19-5.57,19-5.57L46.38,90S19.75,101.55,9,74.38Z"/><path class="cls-1" d="M47.23,29c-14.74-7.84-33.89-.65-42.76,16S.35,81.63,15.1,89.46s38.48,3.47,47.35-13.22S62,36.83,47.23,29Zm-1.59,3c13.29,7.06,17.58,25,9.58,40S30,93.54,16.68,86.48,1.56,63.19,9.55,48.15,32.36,24.92,45.64,32Z"/><path class="cls-2" d="M36.33,92.91a38,38,0,0,0,16.08-5.8L49,80.41a31.06,31.06,0,0,1-15.05,8.31Z"/><path class="cls-3" d="M47.23,29a24.49,24.49,0,0,0-2.76-1.27l.59,4c.19.09.39.19.58.3,11.19,5.94,16,19.58,12.47,32.73,2.6,4.34,4.85,7.92,5.66,8.66C70.26,57,61.15,36.4,47.23,29Z"/><path class="cls-4" d="M.05,64.41A31.81,31.81,0,0,0,4.9,80a14.73,14.73,0,0,0,6.78,2.9A21.88,21.88,0,0,1,5.11,70.1,34.94,34.94,0,0,1,.05,64.41Z"/><path class="cls-2" d="M23.44,27.9A36.14,36.14,0,0,0,6.71,41.32c1,1,.2,1.11,1.14,1.78.64.46,3.63.65,2.44,3.71A37.21,37.21,0,0,1,24.44,32.38C24.05,30.65,23.71,29.11,23.44,27.9Z"/><path class="cls-5" d="M47.23,29a28.55,28.55,0,0,0-23.79-1.1c-.32.12-1.62.68-1.93.81a6,6,0,0,0,2.21,4.06h0c6.85-4,14.62-4.68,21.92-.79a24.57,24.57,0,0,1,9.9,9.69L60,41.45A34.19,34.19,0,0,0,47.23,29Z"/><path class="cls-1" d="M47.23,29a27.2,27.2,0,0,0-12.65-3.17,29.69,29.69,0,0,0-5.92.57c-.45,1.06-.06,2.29,1.72,3.66A21.11,21.11,0,0,1,45.64,32a24.59,24.59,0,0,1,9.48,9c2,.76,4,1.49,5.82,2.17A34.87,34.87,0,0,0,47.23,29Z"/><path class="cls-6" d="M51.31,31.41c-14.74-7.83-33.89-.65-42.76,16S4.44,84,19.18,91.88s33.89.65,42.77-16,4.11-36.59-10.64-44.43Zm-2.45,4.42c13.29,7.07,17,22.28,9,37.32S34,93.41,20.68,86.35,5.41,65,13.41,50,35.57,28.77,48.86,35.83Z"/><path class="cls-3" d="M52,31.83c-14.74-7.83-33.9-.65-42.77,16S5.12,84.46,19.86,92.3s33.9.65,42.77-16S66.74,39.67,52,31.83Zm-2.46,4.42c13.29,7.07,17.05,22.28,9.05,37.32S34.91,94.91,21.22,87.06,6.1,65.44,14.09,50.4,36.26,29.19,49.54,36.25Z"/><path class="cls-7" d="M8,50.5a35.25,35.25,0,0,0-.33,28.57l4.79-.45C7.79,71.06,8.5,60.92,14.09,50.4l.12-.21L8,50.5ZM63.82,73.81A35.79,35.79,0,0,0,65.3,47.73L60.7,48c3.26,7.38,2.72,16.53-2.11,25.62-.13.26-.27.51-.42.77Z"/><path class="cls-8" d="M5.41,58.7A36.06,36.06,0,0,0,5,69.34l4.44-.42a30.06,30.06,0,0,1,1.33-10.48l-5.34.26Zm61.35,4.85A35.42,35.42,0,0,0,67,55.73l-4.29.21a28.72,28.72,0,0,1-.55,8Z"/><path class="cls-9" d="M48.52,29.67c-14.75-7.83-33.9-.65-42.77,16C-1.1,58.59.17,73.37,7.88,83.05,1,73.38.07,59.26,6.64,46.9c8.87-16.7,28-23.88,42.77-16a32.49,32.49,0,0,1,10.14,8.73A33,33,0,0,0,48.52,29.67Z"/><path class="cls-10" d="M48.43,29.85c-14.75-7.84-33.9-.65-42.77,16C-1.19,58.76.08,73.54,7.79,83.23A29.92,29.92,0,0,1,4,76.05C.5,67.09,1,56.1,6.23,46.22c8.87-16.69,28-23.88,42.77-16l.64.35c-.4-.24-.81-.47-1.21-.68Zm2.1,1.86a33.27,33.27,0,0,1,8.93,8,38.15,38.15,0,0,0-2.64-3.25A30.8,30.8,0,0,0,50.53,31.71Z"/><path class="cls-11" d="M60.78,36.28,64.5,32l-2.84,1.06S60.11,36.26,60.78,36.28Z"/><path class="cls-11" d="M34.83,23.71c-.34.27-.44,2.12-2,2.16-.33,0,2.06.82,2.21,1.24a12.86,12.86,0,0,0,2.06,3.48c1.47,1.89,6.94,4.65,12.3,6.83,7.26,2.94,11.16,1.15,11.78-.35a11.19,11.19,0,0,0,.8-3.35c-.67-2.81-3.61-3.84-9-7C46.9,23.13,41.65,15,34.83,23.71Z"/><path class="cls-1" d="M36.52,22.68c-.67.53-1.86.38,1.41,4.57.23.3.79.12,1.2.45a48.84,48.84,0,0,0,11.1,6.38c7.25,2.94,10.42,2,11,.48,1-2.37-.84-7.43-7.44-11.18C47.63,19.86,39.18,18.25,36.52,22.68Z"/><polygon class="cls-12" points="62.79 0 36.85 7.71 36.46 9.8 41.34 27.76 46.45 32.11 57.51 34.63 72.59 29.01 73.51 27.75 65.23 0.85 62.79 0"/><polygon class="cls-13" points="62.95 0.57 58.02 2.04 57.63 4.88 66.66 6.01 65.23 1.36 62.95 0.57"/><path class="cls-14" d="M64.42.57,62.8,0c-2.17,1.92-5.43,4.71-5.43,4.71L62.69,14.8Z"/><polygon class="cls-15" points="55.82 2.62 52.46 3.62 49.99 21.02 58.98 7.33 55.82 2.62"/><polygon class="cls-13" points="55.95 11.95 58.98 7.33 58.94 7.26 54.68 8.44 55.95 11.95"/><polygon class="cls-16" points="64.01 0.42 51.47 17.62 73.51 27.75 65.23 0.85 64.01 0.42"/><polygon class="cls-12" points="69.91 16.06 65.23 0.85 64.19 0.49 64.51 16.2 69.91 16.06"/><polygon class="cls-14" points="51.52 17.64 73.51 27.75 69.78 15.62 64.61 20.79 51.52 17.64"/><polygon class="cls-12" points="51.47 17.62 50.2 20.33 36.46 9.8 36.85 7.71 51.47 17.62"/><polygon class="cls-12" points="72.59 29.01 50.2 20.33 51.47 17.62 73.51 27.75 72.59 29.01"/><polygon class="cls-9" points="46.68 32.16 50.2 20.33 36.46 9.8 41.34 27.76 46.45 32.11 46.68 32.16"/><path class="cls-17" d="M48.3,26.69,49.71,22l-.44-2.33L38,11C41.38,16.11,45.49,22.39,48.3,26.69Z"/><path class="cls-13" d="M51.06,4.09,38.62,7.94s11.58,8.2,11.43,8.41S51.06,4.09,51.06,4.09Z"/><path class="cls-18" d="M51.06,4.09l-.18.06-6.94,7.59c3,2.18,6.19,4.5,6.11,4.61S51.06,4.09,51.06,4.09Z"/><path class="cls-13" d="M44.05,11.83a74.75,74.75,0,0,1,6,4.52c-.07.11.2-3.13.48-6.31Z"/><polygon class="cls-17" points="57.51 34.63 72.59 29.01 50.09 20.25 46.64 32.16 57.51 34.63"/><polygon class="cls-12" points="69.03 28.61 55.43 34.15 54.72 33.99 67.37 27.97 69.03 28.61"/><path class="cls-18" d="M49.51,26.89,54,32.07c.12.14-.61.69-1.66,1.37l-4.57-1Z"/><path class="cls-9" d="M66.19,27.05c-.65-.19-5,0-9.54-.61l-6.41-.82,5.39,6.25Z"/><path class="cls-17" d="M37.13,9.66s-.05,1.3.12,1.09,1.51,1.88,1.51,1.88l.78,0,.88,2.17,1-.29,3.44,2.31L45.67,20l.66-1.48,1.8,1.07.08,1.57s.55,3.38.72,3.11,1.16-4,1.16-4Z"/><path class="cls-10" d="M50.35,16.49C50.48,16.31,38.68,8,38.68,8s6.29,2.84,6.77,3.25S50.35,16.49,50.35,16.49Z"/><path class="cls-10" d="M48.27,7.29l2.54-.47.25-2.73Z"/><polygon class="cls-10" points="59.72 14.16 59.76 15.79 61.4 14.27 59.72 14.16"/><path class="cls-13" d="M64.33,2.39c.17.17,6.41,24.53,6.41,24.53l1.67,0L65.13,2.41Z"/><polygon class="cls-12" points="38.35 14.6 42.22 28.5 44.6 30.54 45.4 25.25 38.35 14.6"/><polygon class="cls-13" points="40.56 20.84 42.42 28.68 44.26 30.25 45.21 26.49 44.73 25.21 40.56 20.84"/><path class="cls-10" d="M52.47,21.57l-5.8,10.59-.22,0L46.32,32c1.09-5.08,4.45-11.37,4.35-11.21S52.47,21.57,52.47,21.57Z"/><polygon class="cls-17" points="64.17 3.34 68.4 25.16 71.86 26.99 64.48 1.52 64.17 3.34"/><polygon class="cls-10" points="37.26 8.57 37.23 9.06 51.4 20.29 72.18 28.84 72.44 28.27 51.96 19.64 37.26 8.57"/><polygon class="cls-13" points="51.97 20.56 52.01 20.59 72.18 28.84 72.44 28.27 52.58 19.95 52.48 19.88 51.97 20.56"/><path class="cls-10" d="M52.6,18.14C52.39,17.91,63.41.64,63.41.73l.25.18-9.84,18.3Z"/><polygon class="cls-10" points="43.81 9.36 45.3 8.7 43.27 7.77 43.81 9.36"/><polygon class="cls-10" points="55.44 4.71 56.93 4.05 54.9 3.12 55.44 4.71"/><path class="cls-15" d="M63,15.42s-8.59,4.06-8.7,4.49S65,22.08,65,22.08l-.45-7.42Z"/><polygon class="cls-10" points="50.35 33 51.83 31.75 53.96 32.07 51.95 33.36 50.35 33"/><polygon class="cls-19" points="63.28 0.46 63.18 1.02 63.6 1.43 63.03 1.33 62.63 1.74 62.73 1.18 62.31 0.78 62.88 0.87 63.28 0.46"/><polygon class="cls-19" points="39.52 7.67 39.66 8.47 41.1 9.76 39.46 8.74 38.65 8.82 38.51 8.03 37.07 6.73 38.72 7.75 39.52 7.67"/><path class="cls-10" d="M46.33,10.26c-.4.2,3.88,2.67,3.9,2.45S56,5.31,56,5.31Z"/><path class="cls-4" d="M36,23.28a5.88,5.88,0,0,0,1.67-2.36c.51-1.5.26-4.13.51-4.2.49-.13.92,1.9.92,1.9s.7,1.26.42,1.54a6.18,6.18,0,0,0-1.64,4.13C38,26.2,36.54,26.44,36,23.28Z"/><path class="cls-1" d="M35.86,24.07s.61.16,1.51-1.38c1.32-2.26,2.37-5.76,2.8-6.4.66-1,.92-.61.92-.61s-.66,4.14-.84,5.77A43.63,43.63,0,0,1,38.79,27s-1,.89-1.71.2S36,24.42,35.86,24.07Z"/><path class="cls-1" d="M42.9,30.12c1,1.81,2.73,1.8,3.78,2S50.31,28.1,51,26.94a8.08,8.08,0,0,0,.75-2.87s-.37-.79.84-.3,1.12,2.93,1.07,4.31A8.72,8.72,0,0,1,52,32.83c-1.12,1.44-.72,3.35-2.89,2.7-1.48-.45-1.55-1.49-2.7-2.4-.44-.34-1.82-.2-2.3-.56A3.77,3.77,0,0,1,42.9,30.12Z"/><path class="cls-1" d="M51.65,35.31s3.81-3.11,4.53-4.46.55-6.77.55-6.77a.53.53,0,0,1,.58.2c.21.36.3,1.29.49,1.63A7.59,7.59,0,0,1,59,31.75a6,6,0,0,1-2.32,3.69c-1.26,1.3-1.27,2.13-1.82,2.11S52.53,38.31,51.65,35.31Z"/><path class="cls-4" d="M57.08,24.16l0,0c.21.36.3,1.29.49,1.63a7.55,7.55,0,0,1,1.18,5.84,6,6,0,0,1-2.33,3.69l-.27.28a2.47,2.47,0,0,1,.54-2.51A5.71,5.71,0,0,0,58,28.34a26.61,26.61,0,0,0-1.08-3.82C56.87,24.24,56.94,24.14,57.08,24.16Z"/><path class="cls-1" d="M51,34.87c.54-1,2-2.62,2.53-3.58s.49-1.31.58-1.18.53.12.32,2a7.5,7.5,0,0,1-.44,2.2S51.48,36.14,51,34.87Z"/><path class="cls-1" d="M56.65,35.55c1.43-.22,3.25-2.61,3.94-3.8a11.7,11.7,0,0,0,1-2.09s.55,3.86-.44,5.5-2,2.6-2.81,1.94S56.8,36.78,56.65,35.55Z"/><path class="cls-4" d="M61.37,29.82c.1.86.38,3.86-.47,5.26a11.49,11.49,0,0,1-.7,1c-1.16.5-2.84.9-2.91-.75a4.48,4.48,0,0,0,2.65-1.3A17.45,17.45,0,0,0,61.37,29.82Z"/><path class="cls-4" d="M39.16,21.89a12.29,12.29,0,0,1-1,2.66c-.62,1,0,.77,0,.77l1.92-2.88,1-6.76s-.25.33-.55.76a8.23,8.23,0,0,0-.76,2.71C39.57,20.15,39.34,20.75,39.16,21.89Z"/><path class="cls-1" d="M46,18.79a26.29,26.29,0,0,0-6,3.72,8.38,8.38,0,0,0-2.74,3.9l2.65,1.81s.05-.87,2-4.18,4.87-4,4.3-4.91Z"/><path class="cls-4" d="M45.81,19.67s-4.66,3.13-5.65,4.65a11,11,0,0,0-1.3,2.47l.92.95a55.59,55.59,0,0,1,3.44-5.22c1-1.11,2.69-2.23,3-2.67s.12-.57.12-.57Z"/><path class="cls-1" d="M39.78,27.74A9.47,9.47,0,0,1,42.65,23a7.33,7.33,0,0,1,3.81-1.44.37.37,0,0,1,0,.27c-.41.73-2,3.31-2.49,4.46-.07.17-.11,1.67-.15,1.75-.34.73.4,3.47.4,3.47l-2.29-.8C40.24,30.15,39.8,29.81,39.78,27.74Z"/><path class="cls-4" d="M46,22.13l.42-.31A20.68,20.68,0,0,0,44,27a7.15,7.15,0,0,0,.07,3.93,7.63,7.63,0,0,0-1.1-.71c-.52-.32-1-.66-1.07-.82C41.81,29,41.18,25.63,46,22.13Z"/><path class="cls-1" d="M43.2,29.46c-.36-.85.59-2.51,2-3.57s2-1.68,2.06-2.05.69-.33.69-.33-.12.73-.33,1.67-2,3.49-2.08,4.62a4.36,4.36,0,0,0,.49,2S42.51,32.07,43.2,29.46Z"/><path class="cls-4" d="M47.94,23.77c-.18-.14-.37-.23-.42,0a7,7,0,0,1-1.24,2.91c-.9,1.06-1.87,2.88-1.65,3.75A3.23,3.23,0,0,0,45.85,32s-.68-2.62.16-3.83S48.28,24.71,47.94,23.77Z"/><path class="cls-4" d="M52,23.85a5.06,5.06,0,0,1,0,4.73c-1.15,2.37-3,4-2.62,4.5a2.34,2.34,0,0,0,2.24,0,9.76,9.76,0,0,0,1.19-2.18c.83-2.11,1.49-5.34-.39-7C52.26,23.77,52,23.7,52,23.85Z"/><path class="cls-4" d="M54.2,30.21a8.42,8.42,0,0,1-.72,3.32c-.33.3.18.56.49.24S55.28,31,54.2,30.21Z"/><path class="cls-20" d="M37.2,23.5c.84-.79,2-4.11,2.12-4.4a18.07,18.07,0,0,1-.51,2.48C38.74,21.84,37.19,24.93,37.2,23.5Z"/><path class="cls-20" d="M45.58,19a48.32,48.32,0,0,0-5.1,3.26A8.16,8.16,0,0,0,38.42,25a20.5,20.5,0,0,1,2.76-2.82C42.21,21.5,45.61,19.33,45.58,19Z"/><path class="cls-20" d="M45.79,21.86A5.62,5.62,0,0,0,42,24.19a6.16,6.16,0,0,0-1.46,3.38s2.17-4,3.19-4.49A23,23,0,0,0,45.79,21.86Z"/><path class="cls-20" d="M47,24.58a17.57,17.57,0,0,0-2.72,2.61,4,4,0,0,0-.8,3l.22.63s.33-3.05,1.08-3.87S47.09,24.83,47,24.58Z"/><path class="cls-20" d="M52,24.87a18.78,18.78,0,0,1-1.48,3.89c-1.13,1.94-2.66,3.49-2.39,3.41C48.63,32.05,53.49,27.19,52,24.87Z"/></g></g></svg>