<svg xmlns="http://www.w3.org/2000/svg" viewBox="0 0 77.03 83.9"><defs><style>.cls-1{fill:#a3bdc3;}.cls-1,.cls-10,.cls-11,.cls-12,.cls-13,.cls-14,.cls-15,.cls-16,.cls-18,.cls-2,.cls-3,.cls-4,.cls-5,.cls-6,.cls-7,.cls-8,.cls-9{fill-rule:evenodd;}.cls-2{fill:#8d9ea3;}.cls-3{fill:#bacecd;}.cls-4{fill:#d3ded8;}.cls-5{fill:#d6e4db;}.cls-6{fill:#8faab3;}.cls-7{fill:#b5c8c8;}.cls-8{fill:#141317;}.cls-17,.cls-9{fill:#525e61;}.cls-10{fill:#7b8e92;}.cls-11{fill:#292f31;}.cls-12{fill:#29292d;}.cls-13{fill:#310c0d;}.cls-14{fill:#4f1d1f;}.cls-15{fill:#260e11;}.cls-16{fill:#82888a;}.cls-18{fill:#260d0f;}</style></defs><g id="Layer_2" data-name="Layer 2"><g id="Ñëîé_1" data-name="Ñëîé 1"><path class="cls-1" d="M15.78,63.06l3.8,3.48L65.35,16.6A69.5,69.5,0,0,0,77,0,88,88,0,0,0,61.56,13.12Z"/><polygon class="cls-2" points="31.4 53.64 32 52.98 30.57 46.92 29.96 47.59 31.4 53.64"/><polygon class="cls-2" points="15.78 63.05 19.58 66.53 23.85 61.88 22.43 55.81 15.78 63.05"/><polygon class="cls-3" points="56.83 25.9 60.38 22.03 58.95 15.96 55.4 19.84 56.83 25.9"/><polygon class="cls-3" points="36.98 47.56 50.62 32.67 49.2 26.6 35.55 41.49 36.98 47.56"/><polygon class="cls-2" points="45.16 38.63 45.77 37.96 44.34 31.9 43.72 32.58 45.16 38.63"/><path class="cls-4" d="M68.61,6.22l0,0-.08.08,0,0-.08.07,0,0-.09.08,0,0,0,0h0a84.09,84.09,0,0,0-6.62,6.52L18,60.63a1.44,1.44,0,0,0,.7-.05A7.35,7.35,0,0,0,20,59.76l41-44.34.78-.84A63.9,63.9,0,0,1,70.63,7a56.11,56.11,0,0,1-6.07,8.9l-1.43,1.6L22.51,62.09a7.11,7.11,0,0,0-.7,1.34,1.38,1.38,0,0,0,0,.7L65.37,16.61A72.34,72.34,0,0,0,77,0,104.43,104.43,0,0,0,68.61,6.22Z"/><path class="cls-5" d="M68.61,6.22l0,0-.08.08,0,0-.08.07,0,0-.09.08,0,0,0,0h0a84.09,84.09,0,0,0-6.62,6.52L18,60.63a1.44,1.44,0,0,0,.7-.05A7.35,7.35,0,0,0,20,59.76l41-44.34.78-.84A63.9,63.9,0,0,1,70.63,7l-.08.13L77,0l0,0A104.43,104.43,0,0,0,68.61,6.22Z"/><path class="cls-6" d="M19.65,62.17l.62.56L61.94,17.27c.55-.6-.08-1.16-.65-.54Z"/><path class="cls-7" d="M20,62.44l.32.29L61.94,17.27c.28-.31.25-.6.09-.73Z"/><path class="cls-8" d="M14.8,65.05A3.45,3.45,0,0,0,17,63.73a5.73,5.73,0,0,0,.89-2l2.79-.22.22,3a3.44,3.44,0,0,0-3.06,3.34Z"/><path class="cls-9" d="M14.8,65.05A3.45,3.45,0,0,0,17,63.73a5.73,5.73,0,0,0,.89-2l2.77-.22-.42.52-4,4.32Z"/><polygon class="cls-10" points="17.86 61.71 17.86 61.71 20.63 61.49 20.21 62.01 20.2 62.02 18.35 62.4 17.86 61.71"/><path class="cls-11" d="M15.19,65.41a3.38,3.38,0,0,0,1.73-1.09,5.78,5.78,0,0,0,1.27-2.17L20.25,62l.17,2.19a4.23,4.23,0,0,0-3,3.23Z"/><path class="cls-12" d="M16.31,66.66l-.68-.29s-3.2-4.64-3.85-6.81a19.13,19.13,0,0,0-.95-2.73l-1.71-.11L9,56.45l7.82-2.13.27.35-2.84,1.84s-.65.54,0,2.66a28.84,28.84,0,0,0,3.17,5.6Z"/><path class="cls-12" d="M15.94,66.32l.35.65s4.9,2.79,7.11,3.25a18.82,18.82,0,0,1,2.81.71l.25,1.69.29.1,1.44-8-.37-.24-1.58,3s-.48.69-2.66.19A28.71,28.71,0,0,1,17.73,65Z"/><path class="cls-9" d="M14.29,64.33a25,25,0,0,1-2.51-4.77,19.13,19.13,0,0,0-.95-2.73l-1.71-.11L9,56.45l2-.54.2.51C12.24,59.23,13,61.9,14.64,64Z"/><path class="cls-9" d="M18.45,68.15a24.73,24.73,0,0,0,5,2.09,18.82,18.82,0,0,1,2.81.71l.25,1.69.29.1.36-2-.53-.15c-2.89-.8-5.61-1.34-7.86-2.78Z"/><path class="cls-8" d="M17,54.7l-2.79,1.81s-.65.54,0,2.66a28.65,28.65,0,0,0,3.17,5.59l-.47.79c-3.54-3.26-5.05-7.39-3.37-9.23a1.88,1.88,0,0,1,.51-.42L17,54.49Z"/><path class="cls-8" d="M27.82,64.5l-1.58,3s-.48.69-2.66.19A28.71,28.71,0,0,1,17.73,65l-.74.54c3.55,3.25,7.8,4.39,9.49,2.55A3.63,3.63,0,0,0,27.07,67L28,64.62C28.06,64.5,27.83,64.64,27.82,64.5Z"/><path class="cls-11" d="M15.67,66.38h0s-.72-1-1.54-2.37a3.28,3.28,0,0,1,2.42-.62c.53.82.94,1.38.94,1.38l-.24.41c-.05-.07-.36-.5-.76-1.11a2.7,2.7,0,0,0-2,.5C15,65.42,15.5,66.13,15.67,66.38Z"/><path class="cls-11" d="M16.82,65.84l.62-.45s.49.29,1.19.66a2.75,2.75,0,0,1-.33,2l.49.25a3.33,3.33,0,0,0,.4-2.47c-.86-.46-1.46-.82-1.46-.82l-.74.54Z"/><path class="cls-13" d="M3.59,77.73,6.09,80l.75-.67c1.43-2.16,9-9.76,11.45-11.07L14.1,64.55c-1,2.62-7.82,10.54-10,12.46Z"/><path class="cls-14" d="M3.85,78l.17.16c.84-.77,2.07-1.95,3.84-3.74a61.75,61.75,0,0,0,7.25-8.93l-.75-.67c-1,2.62-7.82,10.54-10,12.46Z"/><path class="cls-15" d="M5.09,79.11l.68.62.74-.66C8,76.9,15.54,69.3,18,68l-1.36-1.21A61.32,61.32,0,0,0,9,74.22C6.89,76.75,5.71,78.23,5.09,79.11Z"/><path class="cls-16" d="M1,83.07a3.16,3.16,0,1,0-.2-4.47A3.16,3.16,0,0,0,1,83.07Z"/><path class="cls-9" d="M1.19,82.89A2.92,2.92,0,1,0,1,78.77,2.92,2.92,0,0,0,1.19,82.89Z"/><path class="cls-8" d="M4.79,79a2.4,2.4,0,1,1-3.4.14A2.4,2.4,0,0,1,4.79,79Z"/><polygon class="cls-9" points="1.71 82.33 1.98 82.39 2.25 82.45 2.44 82.24 2.63 82.04 2.55 81.77 2.46 81.5 2.19 81.44 1.92 81.38 1.73 81.59 1.54 81.79 1.62 82.06 1.71 82.33"/><polygon class="cls-9" points="3.92 79.9 4.19 79.96 4.46 80.02 4.65 79.82 4.84 79.61 4.76 79.34 4.67 79.07 4.4 79.01 4.13 78.95 3.94 79.16 3.75 79.37 3.83 79.63 3.92 79.9"/><polygon class="cls-9" points="1.54 79.22 1.48 79.49 1.42 79.77 1.62 79.96 1.83 80.15 2.1 80.06 2.37 79.98 2.43 79.7 2.49 79.43 2.28 79.24 2.07 79.05 1.81 79.14 1.54 79.22"/><polygon class="cls-9" points="3.95 81.47 3.89 81.74 3.83 82.02 4.03 82.2 4.24 82.39 4.51 82.31 4.78 82.23 4.84 81.95 4.9 81.68 4.69 81.49 4.48 81.3 4.22 81.38 3.95 81.47"/><rect class="cls-17" x="2" y="79.53" width="2.35" height="2.35" transform="translate(-3.49 0.21) rotate(-2.48)"/><polygon class="cls-10" points="2.07 79.77 2.16 81.68 2.17 81.68 3.07 80.7 2.07 79.77"/><polygon class="cls-11" points="1.95 79.57 4.3 79.47 4.3 79.49 3.17 80.74 1.95 79.57"/><polygon class="cls-10" points="4.07 81.7 2.31 81.78 2.31 81.76 3.13 80.86 4.07 81.7"/><polygon class="cls-8" points="4.42 81.83 4.31 79.48 4.29 79.48 3.16 80.72 4.42 81.83"/><path class="cls-18" d="M3.56,77.72l2.61,2.39a.49.49,0,0,0,.7,0h0a.49.49,0,0,0,0-.7L4.23,77a.49.49,0,0,0-.7,0h0A.5.5,0,0,0,3.56,77.72Z"/><path class="cls-18" d="M7,74.37l2.33,2.14c.4.37,1.07-.36.67-.73L7.63,73.64C7.23,73.27,6.56,74,7,74.37Z"/><path class="cls-18" d="M10.8,69.52l3,2.78c.39.37,1.06-.36.67-.73l-3-2.78C11.07,68.43,10.4,69.16,10.8,69.52Z"/><path class="cls-18" d="M13.65,64.89l4.27,3.91a.5.5,0,0,0,.67-.73l-4.27-3.91A.5.5,0,0,0,13.65,64.89Z"/><path class="cls-14" d="M13.59,64.94a.49.49,0,0,1,.17-.83.46.46,0,0,0,.14.49l4.27,3.91a.46.46,0,0,0,.5.1.5.5,0,0,1-.82.24l-4.26-3.91ZM3.5,77.77a.49.49,0,0,1,0-.7h0a.46.46,0,0,1,.2-.14.51.51,0,0,0,.15.49l2.61,2.4a.51.51,0,0,0,.5.1.5.5,0,0,1-.12.21h0a.5.5,0,0,1-.7,0L3.5,77.77Zm3.4-3.35c-.27-.24-.06-.65.22-.78a.37.37,0,0,0,.09.43l2.34,2.15a.38.38,0,0,0,.44,0c-.11.29-.49.53-.76.29L6.9,74.42ZM11,68.79a.39.39,0,0,0,.09.43l3,2.79a.38.38,0,0,0,.44,0c-.11.29-.49.53-.76.29l-3-2.78C10.47,69.33,10.68,68.92,11,68.79Z"/><path class="cls-9" d="M15.25,67.45a2.06,2.06,0,1,0-.09-2.88A2,2,0,0,0,15.25,67.45Z"/><path class="cls-8" d="M15.45,67.24a1.78,1.78,0,1,0-.09-2.49A1.77,1.77,0,0,0,15.45,67.24Z"/><polygon class="cls-12" points="15.63 67.04 16.66 66.43 17.75 66.94 17.14 65.91 17.65 64.83 16.62 65.43 15.53 64.92 16.14 65.95 15.63 67.04"/><path class="cls-9" d="M15.85,66.77s.36-.72.4-.76.28.08.28.08Z"/><path class="cls-9" d="M15.72,65.09s.78.71.81.76-.33,0-.33,0Z"/><path class="cls-9" d="M17.6,66.85s-.78-.72-.83-.75,0,.33,0,.33Z"/><path class="cls-9" d="M17.47,65s-.68.44-.72.48.1.26.1.26Z"/></g></g></svg>