<svg xmlns="http://www.w3.org/2000/svg" viewBox="0 0 464 465" width="464" height="465">
	<style>
		tspan { white-space:pre }
		.shp0 { fill: #768174 } 
		.shp1 { fill: #2e7e1a } 
		.shp2 { fill: #5eb749 } 
		.shp3 { fill: #ffffff } 
	</style>
	<path id="Layer" fill-rule="evenodd" class="shp0" d="M392 304C392 436.88 265.93 464 232.09 464C189.5 464.48 148.52 447.78 118.39 417.67C88.27 387.56 71.55 346.59 72 304C72 251.76 88.73 219.12 104.96 187.52C119.2 159.84 132.57 133.68 135.45 94.56C136.54 81.8 147.2 72 160 72C164.42 72 168 75.58 168 80C168 115.35 196.66 144 232 144C267.35 144 296 115.35 296 80C296 75.58 299.59 72 304 72C316.95 72.09 327.65 82.13 328.57 95.04C331.52 134.48 344.48 158.16 358.25 183.2C374.89 213.44 392 244.72 392 304ZM232 192C170.15 192 120 242.14 120 304C120 365.86 170.15 416 232 416C293.86 416 344 365.86 344 304C343.94 242.17 293.83 192.07 232 192Z" />
	<path id="Layer" class="shp1" d="M304 170.08C302.69 170.08 301.39 169.75 300.24 169.14C287.05 162.04 272.81 157.07 258.06 154.44C253.71 153.67 250.8 149.52 251.57 145.17C252.34 140.82 256.49 137.91 260.84 138.68C277.26 141.61 293.11 147.13 307.79 155.02C311.03 156.75 312.67 160.47 311.78 164.03C310.88 167.59 307.68 170.09 304 170.08Z" />
	<path id="Layer" class="shp1" d="M160 170.08C156.33 170.09 153.13 167.59 152.23 164.03C151.34 160.47 152.98 156.75 156.22 155.02C170.92 147.13 186.78 141.61 203.2 138.68C207.56 137.91 211.71 140.82 212.48 145.17C213.25 149.52 210.34 153.67 205.99 154.44C191.24 157.07 177 162.04 163.81 169.14C162.64 169.76 161.33 170.09 160 170.08Z" />
	<path id="Layer" class="shp2" d="M312 80C312 124.18 276.19 160 232 160C187.82 160 152 124.18 152 80C152 35.82 187.82 0 232 0C276.19 0 312 35.82 312 80Z" />
	<path id="Layer" class="shp3" d="M232 128C227.59 128 224 124.42 224 120C224 115.58 227.59 112 232 112C249.68 112 264 97.67 264 80C264 77.85 263.79 75.71 263.36 73.6C262.48 69.27 265.27 65.04 269.61 64.16C273.93 63.28 278.16 66.07 279.05 70.4C279.68 73.56 280 76.78 280 80C280 106.51 258.52 128 232 128L232 128Z" />
	<path id="Layer" class="shp3" d="M256 56C254.27 56 252.59 55.44 251.2 54.4C249.32 52.98 247.28 51.78 245.13 50.81C242.45 49.68 240.59 47.19 240.28 44.3C239.96 41.41 241.24 38.58 243.61 36.9C245.98 35.22 249.08 34.96 251.7 36.22C254.93 37.67 257.98 39.48 260.8 41.6C263.56 43.67 264.68 47.26 263.59 50.53C262.5 53.8 259.45 56 256 56Z" />
	<g id="Layer">
	</g>
</svg>