<svg xmlns="http://www.w3.org/2000/svg" viewBox="0 0 85.88 86.91"><defs><style>.cls-1{isolation:isolate;}.cls-2{fill:#6d4d57;}.cls-3,.cls-5{opacity:0.4;}.cls-3,.cls-5,.cls-6{mix-blend-mode:overlay;}.cls-4{fill:#44b3ea;}.cls-5,.cls-6{fill:#fff;}.cls-6{opacity:0.9;}</style></defs><g class="cls-1"><g id="Layer_2" data-name="Layer 2"><g id="Ñëîé_1" data-name="Ñëîé 1"><circle class="cls-2" cx="42.94" cy="43.97" r="42.93" transform="translate(-16.1 26.89) rotate(-29.54)"/><circle class="cls-3" cx="42.94" cy="43.97" r="33" transform="translate(-17.67 33.76) rotate(-36.11)"/><path class="cls-4" d="M67.56,58.18A28.42,28.42,0,1,1,57.15,19.36,28.42,28.42,0,0,1,67.56,58.18Z"/><path class="cls-3" d="M40.62,66.94A28.42,28.42,0,0,1,45,15.65a28.41,28.41,0,1,0,7.71,55A28.33,28.33,0,0,1,40.62,66.94Z"/><path class="cls-3" d="M70.5,50.87A28.39,28.39,0,0,1,19,28.8c-.21.32-.43.62-.62,1A28.42,28.42,0,1,0,70.5,50.87Z"/><path class="cls-5" d="M63.3,55.73a21.4,21.4,0,1,1-7.83-29.24A21.4,21.4,0,0,1,63.3,55.73Z"/><path class="cls-5" d="M59.07,49A11.23,11.23,0,1,1,55,33.69,11.23,11.23,0,0,1,59.07,49Z"/><polygon class="cls-6" points="51.03 0 51.13 39.8 15.45 45.52 50.87 42.73 56.94 83.89 54.46 42.3 78.06 39 54.24 39.02 51.03 0"/></g></g></g></svg>