<svg xmlns="http://www.w3.org/2000/svg" viewBox="0 0 527 812.73"><defs><style>.cls-1{isolation:isolate;}.cls-11,.cls-2,.cls-3,.cls-9{fill:#44b3ea;}.cls-2{opacity:0.6;}.cls-12,.cls-3,.cls-5,.cls-6{opacity:0.2;}.cls-4{fill:#56363f;}.cls-10,.cls-13,.cls-15,.cls-16,.cls-5,.cls-6,.cls-8{mix-blend-mode:overlay;}.cls-7{fill:#6d4d57;}.cls-10,.cls-11,.cls-13,.cls-8{opacity:0.4;}.cls-10,.cls-14,.cls-16{fill:#fff;}.cls-15{opacity:0.8;}.cls-16{opacity:0.9;}</style></defs><g class="cls-1"><g id="Layer_2" data-name="Layer 2"><g id="Ñëîé_1" data-name="Ñëîé 1"><path class="cls-2" d="M474.81,24.63S568,206.15,444,325.52,135.43,338.34,74.64,437.28C20.21,525.85,112.36,604.11,218.79,575.6c0,0-78.95,57.24-165.22-12.77S17.92,373.32,111.69,354c83.38-17.17,230.34,8.12,309-80.48C516,166.3,474.81,24.63,474.81,24.63Z"/><path class="cls-3" d="M485.29,7.87a128.67,128.67,0,0,0-151,99.54c-3.16,14.93-3.59,30.73,1.13,45.24,6.23,19.13,20.64,34.24,32.19,50.71,19.94,28.44,31.95,63,30.28,97.73S380,370.24,352.14,391c-24.18,18-55.09,24.7-85.21,25.57-32.12.92-64.26-4.28-96.33-2.22s-65.79,13-84.91,38.79-16.12,68.75,12,84.28c-9-15.2-.78-38.26,11.88-50.55s31.1-17.07,48.74-16.89,34.9,4.79,52,9c52.95,12.88,109.32,21.75,161.31,5.43,57-17.88,103.05-67.1,117.1-125.16s-4.38-122.89-46.88-164.86c-15.93-15.73-35.34-29-45.34-49-13-26-6.4-59,11.92-81.52S456.6,12.33,485.29,7.87Z"/><path class="cls-4" d="M488.09,16.11c2.47-4.28,3-8.6-1.72-11.31S478.19,4.69,475.72,9L123.85,579.11c-4.93,8.54,4.88,23.44,14.28,28.87s27.2,6.47,32.14-2.07Z"/><g class="cls-5"><path d="M132.94,584.36l345.2-574c2.47-4.27,5.37-7.21,8.23-5.56-4.7-2.71-8.18-.11-10.65,4.16L123.85,579.11c-4.93,8.54,4.88,23.44,14.28,28.87C132.41,604.68,128,592.9,132.94,584.36Z"/><path d="M488.09,16.11c2.47-4.28,3-8.6-1.72-11.31,2.86,1.65,1.76,5.64-.7,9.91L161.17,600.66c-4.93,8.54-17.33,10.62-23,7.32,9.39,5.42,27.21,6.47,32.14-2.07Z"/></g><path class="cls-4" d="M108.11,606.93,5.66,772.92c-5.94,10.28,5.88,28.21,17.18,34.74s32.74,7.79,38.67-2.49l92.54-171.72Z"/><path class="cls-6" d="M91.49,633.85A42.9,42.9,0,0,0,139,661.3l15-27.85-45.94-26.53Z"/><path class="cls-6" d="M154.05,633.45l-7.59-4.38L63.16,780c-5.93,10.28-21.6,12.34-29,8.08s-13.44-18.87-7.5-29.15l89-147.58-7.58-4.39L5.66,772.92c-5.94,10.28,5.88,28.21,17.18,34.74s32.74,7.79,38.67-2.49Z"/><circle class="cls-7" cx="135.74" cy="612.11" r="42.93" transform="translate(-284.14 146.49) rotate(-29.54)"/><circle class="cls-8" cx="135.74" cy="612.11" r="33" transform="translate(-334.69 197.62) rotate(-36.11)"/><path class="cls-9" d="M160.36,626.32A28.42,28.42,0,1,1,150,587.49,28.42,28.42,0,0,1,160.36,626.32Z"/><path class="cls-8" d="M133.42,635.08a28.42,28.42,0,0,1,4.42-51.29,28.41,28.41,0,1,0,7.7,55A28.18,28.18,0,0,1,133.42,635.08Z"/><path class="cls-8" d="M163.3,619a28.39,28.39,0,0,1-51.55-22.08c-.21.33-.43.63-.62,1a28.42,28.42,0,0,0,49.23,28.42A28.71,28.71,0,0,0,163.3,619Z"/><path class="cls-10" d="M156.1,623.86a21.4,21.4,0,1,1-7.83-29.24A21.41,21.41,0,0,1,156.1,623.86Z"/><path class="cls-10" d="M151.87,617.16a11.23,11.23,0,1,1-4.11-15.34A11.22,11.22,0,0,1,151.87,617.16Z"/><path class="cls-11" d="M421.56,409.25c-25.18,10.67-54.69,8.4-79.79-2.46-53.12-23-94.28-78.51-97.8-136.46-3.89-64,38.73-122.91,82-165.57C371.92,59.54,455.54,4.71,484.56,4.55c-159.79.9-366.65,97.66-354.67,286.82a182.21,182.21,0,0,0,106.84,155C267.18,460.25,377.52,474.56,421.56,409.25Z"/><path class="cls-11" d="M185.45,552c22.93-11.51,37.74-37.52,35.92-63.11C219.6,464,203.89,442,200.29,417.29c-4.77-32.64,14.37-64,40.09-82.62,30.43-22.06,66.6-19.14,101.39-28.25,37.07-9.71,72-41.08,71-79.38-.67-25.72-16.69-48-28.19-71C359.2,105.31,368.18,49.76,421.81,23.45,442,13.53,464.3,8.69,486.32,3.92,468.18,12.73,450,20.46,435.47,34.46s-24.67,34-21.81,54c4.54,31.57,34.07,54.3,42.35,85.45,16.6,62.4-17,128.36-77.4,151.44-29.15,11.14-61.44,11.51-90.95,21.67s-58.12,35.93-55,67c4.21,41.72,45.52,74.59,8.34,115.11C227.93,543.36,204.62,549.47,185.45,552Z"/><g class="cls-12"><path class="cls-9" d="M321.56,85.92a8,8,0,1,0-10.86,2.91A7.94,7.94,0,0,0,321.56,85.92Z"/><path class="cls-9" d="M275.47,118.06a6.36,6.36,0,1,0,2.32,8.69A6.37,6.37,0,0,0,275.47,118.06Z"/><path class="cls-9" d="M225.39,157.09a4.77,4.77,0,1,0-1.75-6.52A4.78,4.78,0,0,0,225.39,157.09Z"/><path class="cls-9" d="M174.73,193.94a9.54,9.54,0,1,0,13-3.49A9.55,9.55,0,0,0,174.73,193.94Z"/><path class="cls-9" d="M230.19,231.47a6.36,6.36,0,1,0,2.33,8.69A6.35,6.35,0,0,0,230.19,231.47Z"/><path class="cls-9" d="M206,278.11a8.74,8.74,0,1,0,3.2,11.94A8.74,8.74,0,0,0,206,278.11Z"/><path class="cls-9" d="M237.21,316.31a7.15,7.15,0,1,0-2.62-9.77A7.15,7.15,0,0,0,237.21,316.31Z"/><path class="cls-9" d="M224.21,354.71a15.11,15.11,0,1,0,5.53,20.64A15.11,15.11,0,0,0,224.21,354.71Z"/><path class="cls-9" d="M273.63,374.07a7.15,7.15,0,1,0,2.62,9.77A7.14,7.14,0,0,0,273.63,374.07Z"/><path class="cls-9" d="M326.28,399a8,8,0,1,0-10.86,2.91A8,8,0,0,0,326.28,399Z"/><path class="cls-9" d="M353.4,422a6.36,6.36,0,1,0,2.33,8.68A6.36,6.36,0,0,0,353.4,422Z"/><path class="cls-9" d="M396.8,399.27a7.16,7.16,0,1,0,2.61,9.77A7.16,7.16,0,0,0,396.8,399.27Z"/><path class="cls-9" d="M257,277.25a7.15,7.15,0,1,0,9.77-2.62A7.15,7.15,0,0,0,257,277.25Z"/><path class="cls-9" d="M267.94,213.79a10.34,10.34,0,1,0-14.12,3.78A10.34,10.34,0,0,0,267.94,213.79Z"/><path class="cls-9" d="M283.43,145.61A7.16,7.16,0,1,0,293.2,143,7.16,7.16,0,0,0,283.43,145.61Z"/><path class="cls-9" d="M225.19,112.91a4.77,4.77,0,1,0-1.74-6.52A4.78,4.78,0,0,0,225.19,112.91Z"/><path class="cls-9" d="M357.75,64.58a6.36,6.36,0,1,0,2.33,8.69A6.37,6.37,0,0,0,357.75,64.58Z"/><path class="cls-9" d="M392.72,51.72A6.36,6.36,0,1,0,390.39,43,6.36,6.36,0,0,0,392.72,51.72Z"/><path class="cls-9" d="M485.78,192.67a5.57,5.57,0,1,0-7.6,2A5.56,5.56,0,0,0,485.78,192.67Z"/><path class="cls-9" d="M467.57,229a5.56,5.56,0,1,0,2,7.61A5.57,5.57,0,0,0,467.57,229Z"/><path class="cls-9" d="M450.81,294.58a6.36,6.36,0,1,0-2.33-8.69A6.36,6.36,0,0,0,450.81,294.58Z"/><path class="cls-9" d="M420.15,271.37a6.36,6.36,0,1,0,2.32,8.69A6.35,6.35,0,0,0,420.15,271.37Z"/><path class="cls-9" d="M388.88,317.58a7.16,7.16,0,1,0,2.61,9.77A7.15,7.15,0,0,0,388.88,317.58Z"/><path class="cls-9" d="M347.12,348.56a5.57,5.57,0,1,0-2-7.61A5.57,5.57,0,0,0,347.12,348.56Z"/><path class="cls-9" d="M89.6,378a5.57,5.57,0,1,0,2,7.6A5.57,5.57,0,0,0,89.6,378Z"/><path class="cls-9" d="M65.11,406.08a4.77,4.77,0,1,0,1.75,6.51A4.76,4.76,0,0,0,65.11,406.08Z"/><path class="cls-9" d="M35.86,442.43a7.16,7.16,0,1,0,2.62,9.78A7.17,7.17,0,0,0,35.86,442.43Z"/><path class="cls-9" d="M45.91,488.63a8.75,8.75,0,1,0,3.2,11.95A8.76,8.76,0,0,0,45.91,488.63Z"/><path class="cls-9" d="M75,443a8,8,0,1,0-10.86,2.91A8,8,0,0,0,75,443Z"/><path class="cls-9" d="M124.24,370.44a6.36,6.36,0,1,0,2.33,8.69A6.36,6.36,0,0,0,124.24,370.44Z"/><path class="cls-9" d="M49,389.44a6.36,6.36,0,1,0,2.33,8.69A6.36,6.36,0,0,0,49,389.44Z"/><path class="cls-9" d="M104.71,482.19a7.15,7.15,0,1,0,2.62,9.77A7.15,7.15,0,0,0,104.71,482.19Z"/><path class="cls-9" d="M133.71,438.33a7.16,7.16,0,1,0,2.61,9.78A7.17,7.17,0,0,0,133.71,438.33Z"/><path class="cls-9" d="M169.25,451.51a6.36,6.36,0,1,0,2.33,8.69A6.36,6.36,0,0,0,169.25,451.51Z"/><path class="cls-9" d="M388.35,456.82a6.36,6.36,0,1,0,2.33,8.69A6.36,6.36,0,0,0,388.35,456.82Z"/><path class="cls-9" d="M428.31,432.15A8,8,0,1,0,431.22,443,8,8,0,0,0,428.31,432.15Z"/><path class="cls-9" d="M454.91,392.43a6.36,6.36,0,1,0,2.33,8.69A6.35,6.35,0,0,0,454.91,392.43Z"/><path class="cls-9" d="M484.22,367.11a6.36,6.36,0,1,0,2.32,8.69A6.37,6.37,0,0,0,484.22,367.11Z"/><path class="cls-9" d="M342.1,479.7a6.36,6.36,0,1,0,2.33,8.68A6.36,6.36,0,0,0,342.1,479.7Z"/><path class="cls-9" d="M414.79,455.56a4.77,4.77,0,1,0,1.75,6.52A4.78,4.78,0,0,0,414.79,455.56Z"/><path class="cls-9" d="M483.75,339.3a8,8,0,1,0-2.91-10.86A7.95,7.95,0,0,0,483.75,339.3Z"/><path class="cls-9" d="M282.92,480.42a6.36,6.36,0,1,0,2.33,8.69A6.34,6.34,0,0,0,282.92,480.42Z"/></g><g class="cls-13"><path class="cls-14" d="M194.38,178.2a22.66,22.66,0,1,0,8.29,31A22.66,22.66,0,0,0,194.38,178.2Z"/><circle class="cls-14" cx="198.8" cy="282.66" r="14.31" transform="translate(-146.25 301.62) rotate(-58.03)"/><circle class="cls-14" cx="279.32" cy="120.52" r="20.87" transform="translate(-13.94 39.64) rotate(-7.92)"/><path class="cls-14" d="M398.69,139.17a6,6,0,1,0-8.14,2.18A6,6,0,0,0,398.69,139.17Z"/><path class="cls-14" d="M423.2,149.19a4.77,4.77,0,1,0,1.75,6.52A4.77,4.77,0,0,0,423.2,149.19Z"/><path class="cls-14" d="M418.35,176.69a4.77,4.77,0,1,0,1.74,6.51A4.77,4.77,0,0,0,418.35,176.69Z"/><path class="cls-14" d="M443.81,188.63a4.18,4.18,0,1,0-1.53-5.7A4.17,4.17,0,0,0,443.81,188.63Z"/><path class="cls-14" d="M429,213.12a6,6,0,1,0,2.19,8.15A6,6,0,0,0,429,213.12Z"/><path class="cls-14" d="M243.47,348.39a3.58,3.58,0,1,0,1.31,4.89A3.57,3.57,0,0,0,243.47,348.39Z"/><path class="cls-14" d="M233.25,385.18a4.77,4.77,0,1,0,1.75,6.51A4.77,4.77,0,0,0,233.25,385.18Z"/><path class="cls-14" d="M226.08,433.37a4.77,4.77,0,1,0,1.75,6.52A4.76,4.76,0,0,0,226.08,433.37Z"/><path class="cls-14" d="M244.87,449.73a4.17,4.17,0,1,0,1.53,5.7A4.17,4.17,0,0,0,244.87,449.73Z"/><path class="cls-14" d="M403.83,414.12a14.91,14.91,0,1,0-20.36,5.45A14.91,14.91,0,0,0,403.83,414.12Z"/><path class="cls-14" d="M457.58,386.62a11.33,11.33,0,1,0,4.14,15.48A11.33,11.33,0,0,0,457.58,386.62Z"/><path class="cls-14" d="M447.2,292.49a8.94,8.94,0,1,0-3.28-12.22A8.95,8.95,0,0,0,447.2,292.49Z"/><path class="cls-14" d="M135.61,436.22a11.33,11.33,0,1,0,4.15,15.48A11.32,11.32,0,0,0,135.61,436.22Z"/><path class="cls-14" d="M37.75,437.56a11.93,11.93,0,1,0,4.37,16.29A11.93,11.93,0,0,0,37.75,437.56Z"/><path class="cls-14" d="M66.09,401.59a10.14,10.14,0,1,0,3.71,13.85A10.13,10.13,0,0,0,66.09,401.59Z"/><path class="cls-14" d="M126.46,366.21a8.94,8.94,0,1,0,3.27,12.22A8.95,8.95,0,0,0,126.46,366.21Z"/><circle class="cls-14" cx="383.21" cy="459.37" r="14.31" transform="translate(-92.8 97.03) rotate(-12.89)"/><path class="cls-14" d="M478.72,239.08a11.93,11.93,0,1,0-16.29,4.37A11.93,11.93,0,0,0,478.72,239.08Z"/><path class="cls-14" d="M362.6,55a12.52,12.52,0,1,0,4.59,17.1A12.51,12.51,0,0,0,362.6,55Z"/></g><g class="cls-15"><polygon class="cls-14" points="186.25 293.95 179.55 301.32 169.68 299.99 174.62 308.64 170.29 317.61 180.05 315.58 187.25 322.47 188.33 312.57 197.11 307.85 188.02 303.75 186.25 293.95"/><polygon class="cls-14" points="256.4 129.86 256.98 125.54 253.2 127.7 249.28 125.82 250.16 130.08 247.16 133.23 251.49 133.7 253.55 137.53 255.34 133.56 259.62 132.78 256.4 129.86"/><polygon class="cls-14" points="322.74 48.64 324.56 55.81 329.14 50 336.51 50.48 332.41 44.34 335.15 37.47 328.03 39.48 322.35 34.75 322.06 42.14 315.81 46.08 322.74 48.64"/><polygon class="cls-14" points="398.31 95.08 391.64 94.86 388.03 89.25 385.76 95.53 379.3 97.22 384.58 101.32 384.19 107.99 389.72 104.24 395.94 106.66 394.08 100.25 398.31 95.08"/><polygon class="cls-14" points="438.91 231.89 432.52 232.59 428.32 227.73 427.02 234.02 421.1 236.51 426.68 239.7 427.21 246.1 431.97 241.78 438.22 243.24 435.58 237.39 438.91 231.89"/><polygon class="cls-14" points="497.75 175.71 493.4 175.84 490.82 172.33 489.6 176.51 485.47 177.87 489.06 180.32 489.08 184.68 492.52 182.02 496.67 183.35 495.2 179.25 497.75 175.71"/><polygon class="cls-14" points="412.25 29.03 413.24 24.66 409.17 26.53 405.32 24.24 405.84 28.69 402.48 31.65 406.87 32.52 408.64 36.64 410.83 32.73 415.29 32.32 412.25 29.03"/><polygon class="cls-14" points="395.6 300.54 389.22 301.24 385.02 296.38 383.71 302.66 377.79 305.15 383.37 308.34 383.91 314.74 388.66 310.42 394.92 311.88 392.28 306.03 395.6 300.54"/><polygon class="cls-14" points="463.36 289.83 468.25 280.41 457.8 282.25 450.35 274.69 448.88 285.2 439.39 289.95 448.93 294.6 450.51 305.09 457.88 297.45 468.35 299.19 463.36 289.83"/><polygon class="cls-14" points="439.01 373.61 443.7 367.52 436.02 367.49 431.68 361.14 429.28 368.45 421.9 370.61 428.1 375.15 427.88 382.83 434.12 378.34 441.35 380.93 439.01 373.61"/><polygon class="cls-14" points="257.98 373.54 256.76 368.4 253.43 372.5 248.16 372.07 251.03 376.51 249 381.38 254.1 380.03 258.11 383.46 258.4 378.19 262.91 375.44 257.98 373.54"/><polygon class="cls-14" points="154.75 367.35 155.39 373.74 160.08 369.34 166.35 370.71 163.62 364.89 166.86 359.35 160.48 360.15 156.21 355.36 155 361.67 149.12 364.25 154.75 367.35"/><polygon class="cls-14" points="56.43 418.73 52.73 419.61 49.9 417.06 49.6 420.86 46.3 422.76 49.82 424.22 50.6 427.94 53.08 425.05 56.87 425.45 54.88 422.2 56.43 418.73"/><polygon class="cls-14" points="55.12 512.94 48.01 514.95 42.32 510.22 42.03 517.61 35.78 521.56 42.72 524.12 44.54 531.28 49.12 525.48 56.49 525.96 52.39 519.81 55.12 512.94"/><polygon class="cls-14" points="127.14 438.45 120.25 439.29 115.64 434.09 114.31 440.91 107.95 443.68 114.02 447.05 114.69 453.96 119.77 449.23 126.55 450.73 123.62 444.43 127.14 438.45"/><polygon class="cls-14" points="173.78 190.65 178.91 181.18 168.27 182.87 160.85 175.07 159.17 185.71 149.46 190.35 159.06 195.24 160.48 205.91 168.09 198.29 178.68 200.24 173.78 190.65"/></g><path class="cls-11" d="M235.23,63.59c-10.53,5.88-22,9.35-32.26,15.89a186.39,186.39,0,0,0-27.94,22c-14.36,13.67-33,33.31-35,54-.2,2.17,2.65,3.67,4.39,2.54,16.52-10.76,28.05-31.14,41.46-45.5,7.23-7.74,14.71-15.15,22.5-22.34,8.93-8.24,17.6-18,28.16-24.19A1.35,1.35,0,0,0,235.23,63.59Z"/><path class="cls-11" d="M130.69,180.85c.27-1.54-1.63-3-2.88-1.66-5,5.45-8.88,9.41-11,16.78-1.62,5.71-2.34,13.71,2.47,18.09a3.77,3.77,0,0,0,5.21,0C132.71,206.51,129,190.68,130.69,180.85Z"/><path class="cls-11" d="M357.24,503.22c-10.94-.39-21.94,3.26-32.92,3.7-10.64.43-22.6.78-33.12-.36-1-.11-1.17,1.29-.46,1.73,11.52,7.24,21.42,11.11,35.42,10.84,11.34-.21,24.86-2.46,33.22-10.72A3.07,3.07,0,0,0,357.24,503.22Z"/><path class="cls-11" d="M414,476.43c-8.57.45-15.21,3.3-22.75,7.39-6.78,3.68-14.11,7.68-18.42,14.27a1.65,1.65,0,0,0,1.43,2.44c7.5.44,14.69-2.94,21.4-6,7.86-3.55,14.53-7.3,20.05-14C416.94,479.08,416.29,476.3,414,476.43Z"/><path class="cls-11" d="M526.78,94.53c1.81-21.87-7.37-54-25.57-67.68-1.45-1.09-2.93.72-2.73,2.1,1.65,11.2,7.61,22.17,11.28,32.88C513.58,73,516.7,84.38,521.1,95.29,522.32,98.31,526.5,97.93,526.78,94.53Z"/><path class="cls-11" d="M46.17,567.69C39.91,559.78,30.75,554.1,23.58,547c-8-8-15.4-16.62-20.13-26.94-.85-1.85-4.1-.54-3.33,1.37C8,541,20.05,567.87,43.3,572.67,46.34,573.29,48,570,46.17,567.69Z"/><path class="cls-11" d="M80,588.37c-2.62-2.68-6.47-3.4-9.94-4.5-4.43-1.41-8.91-2.49-12.81-5.1-2.06-1.39-4.67,1.9-2.71,3.5,6.29,5.15,16,14.46,24.94,9.83A2.39,2.39,0,0,0,80,588.37Z"/><polygon class="cls-16" points="143.83 568.14 143.93 607.94 108.25 613.65 143.67 610.87 149.74 652.03 147.26 610.44 170.87 607.14 147.05 607.15 143.83 568.14"/><polygon class="cls-16" points="471.26 243.31 435.15 260.05 415.03 230.03 432.38 261.04 397.53 283.77 434.27 264.13 447.14 284.18 437.17 262.55 471.26 243.31"/><polygon class="cls-16" points="467.9 9.08 443.21 20.53 429.45 0 441.31 21.2 417.48 36.75 442.61 23.32 451.41 37.03 444.59 22.24 467.9 9.08"/></g></g></g></svg>