<svg xmlns="http://www.w3.org/2000/svg" viewBox="0 0 111.2 111.17"><defs><style>.cls-1{fill:#7a5a00;}.cls-2{fill:#3d2d00;}.cls-3{fill:#207da6;}</style></defs><g id="Layer_2" data-name="Layer 2"><g id="crossbow_and_arrow" data-name="crossbow and arrow"><g id="crossbow_and_arrow-2" data-name="crossbow and arrow"><g id="crossbow"><g id="base"><path class="cls-1" d="M78.35,69.34c-.77-1.32-1.55-2.62-2.39-4A132.55,132.55,0,0,0,63,48.21,129.8,129.8,0,0,0,45.84,35.28c-1.32-.86-2.65-1.65-4-2.45A106.28,106.28,0,0,0,28.5,26.18a56.31,56.31,0,0,1-3.29,11.68c-3.66,9.29-9.56,18.34-16.09,27A77.38,77.38,0,0,1,23.89,75.41c1.34,1.24,2.52,2.45,3.59,3.64l0,0c.69.68,1.38,1.41,2,2.09l.25.24c.76.74,1.58,1.53,2.35,2.3l0,0c1.19,1.07,2.4,2.26,3.64,3.59a78.32,78.32,0,0,1,10.61,14.76C55,95.54,64.05,89.68,73.34,86h0A56.41,56.41,0,0,1,85,82.69,106.38,106.38,0,0,0,78.35,69.34Z"/><path class="cls-2" d="M25.21,37.86c-3.54.38-8.2,1-12.67,1.62C9.06,45.66,3.77,53.71,0,60.18c3.15,1.42,6.21,3,9.12,4.64C15.65,56.2,21.55,47.15,25.21,37.86Z"/><path class="cls-2" d="M46.41,102.08C48,105,49.6,108,51,111.17c6.48-3.73,14.5-9,20.69-12.53C72.37,94.22,73,89.55,73.34,86,64.05,89.68,55,95.54,46.41,102.08Z"/><path class="cls-3" d="M106.79,69.46a8.1,8.1,0,0,1-4.07-2.31c-8.22.42-16.5,1-24.37,2.19-.77-1.32-1.55-2.62-2.39-4,10.88-1.69,21.36-5.52,25.75-8.67A249.38,249.38,0,0,0,80.13,31.46a3.4,3.4,0,0,0-.38-.38A250.39,250.39,0,0,0,54.5,9.5c-3.16,4.39-7,14.87-8.66,25.78-1.32-.86-2.65-1.65-4-2.45C43,25,43.65,16.71,44.06,8.49a8,8,0,0,1-2.31-4.07C44.39-.12,47.07-.41,50.31.29,60.84,9.54,71.22,17.22,83.08,28.15,94,40,101.67,50.37,110.92,60.9,111.61,64.16,111.34,66.82,106.79,69.46Z"/></g></g></g></g></g></svg>