<svg id="Capa_1" enable-background="new 0 0 511.174 511.174" height="512" viewBox="0 0 511.174 511.174" width="512" xmlns="http://www.w3.org/2000/svg"><g><path d="m161.417 52.506-35.529 19.81c-25.824 14.398-45.811 36.295-57.798 63.323s-14.802 56.54-8.141 85.347l44.007 190.292 76.965 14.562z" fill="#c4e2fe"/><path d="m443.084 135.639c-11.987-27.028-31.973-48.924-57.797-63.323l-35.529-19.81-19.504 373.334 76.965-14.562 44.006-190.292c6.661-28.806 3.846-58.319-8.141-85.347z" fill="#afd7fd"/><g><path d="m349.758 425.841v-373.335l-94.171-52.506-10.667 255.174 10.667 170.667z" fill="#efe2dd"/><path d="m161.417 52.506v373.335h94.17v-425.841z" fill="#f7f0eb"/></g><g><path d="m270.587 166.679v-26.608h-15l-10.667 40.436 10.667 73.149h15v-56.977h25.566v-30z" fill="#fda102"/><path d="m240.587 140.071v26.608h-25.566v30h25.566v56.977h15v-113.585z" fill="#fdb902"/></g><g><path d="m407.218 411.278h-151.631l-21.333 46.562 21.333 53.334h128.53z" fill="#429bdb"/><path d="m103.956 411.278 23.101 99.896h128.53v-99.896z" fill="#12b0ff"/></g></g></svg>