<svg id="Capa_1" enable-background="new 0 0 510 510" height="512" viewBox="0 0 510 510" width="512" xmlns="http://www.w3.org/2000/svg" xmlns:xlink="http://www.w3.org/1999/xlink"><linearGradient id="lg1"><stop offset="0" stop-color="#fee903"/><stop offset=".2305" stop-color="#fee505"/><stop offset=".4171" stop-color="#fedb0b"/><stop offset=".5884" stop-color="#feca15"/><stop offset=".7504" stop-color="#feb223"/><stop offset=".9046" stop-color="#fe9435"/><stop offset="1" stop-color="#fe7d43"/></linearGradient><linearGradient id="SVGID_1_" gradientUnits="userSpaceOnUse" x1="281.667" x2="402.389" xlink:href="#lg1" y1="51.767" y2="51.767"/><linearGradient id="SVGID_2_" gradientUnits="userSpaceOnUse" x1="47" x2="167.916" xlink:href="#lg1" y1="51.767" y2="51.767"/><linearGradient id="lg2"><stop offset="0" stop-color="#fe73c5"/><stop offset=".1257" stop-color="#f771c7"/><stop offset=".3117" stop-color="#e36ecc"/><stop offset=".5339" stop-color="#c369d5"/><stop offset=".6488" stop-color="#af66da"/><stop offset=".7769" stop-color="#a15dc8"/><stop offset="1" stop-color="#814aa0"/></linearGradient><linearGradient id="SVGID_3_" gradientUnits="userSpaceOnUse" x1="29.627" x2="591.233" xlink:href="#lg2" y1="255" y2="255"/><linearGradient id="SVGID_4_" gradientUnits="userSpaceOnUse" x1="-210" x2="489.006" xlink:href="#lg2" y1="255" y2="255"/><linearGradient id="SVGID_5_" gradientUnits="userSpaceOnUse" x1="37" x2="523" xlink:href="#lg1" y1="255" y2="255"/><linearGradient id="SVGID_6_" gradientUnits="userSpaceOnUse" x1="345.5" x2="460.609" xlink:href="#lg1" y1="291.366" y2="291.366"/><linearGradient id="SVGID_7_" gradientUnits="userSpaceOnUse" x1="-43.333" x2="63.542" xlink:href="#lg1" y1="280.011" y2="280.011"/><linearGradient id="SVGID_8_" gradientUnits="userSpaceOnUse" x1="-2" x2="600.561" y1="280.343" y2="280.343"><stop offset="0" stop-color="#fee903"/><stop offset=".1629" stop-color="#fee306"/><stop offset=".3741" stop-color="#fed310"/><stop offset=".6117" stop-color="#feb820"/><stop offset=".8669" stop-color="#fe9336"/><stop offset="1" stop-color="#fe7d43"/></linearGradient><linearGradient id="SVGID_9_" gradientUnits="userSpaceOnUse" x1="189" x2="493.946" xlink:href="#lg1" y1="255" y2="255"/><linearGradient id="SVGID_10_" gradientUnits="userSpaceOnUse" x1="133.436" x2="319.814" y1="283.25" y2="283.25"><stop offset="0" stop-color="#bfbfbf"/><stop offset=".7584" stop-color="#5a5a5a"/><stop offset="1" stop-color="#444"/></linearGradient><g><path d="m345.067 57.733h89.933l-12.389-5.409c-9.857-4.303-20.496-6.524-31.251-6.524h-17.484c-10.805 0-21.169 4.293-28.809 11.933z" fill="url(#SVGID_1_)"/><path d="m164.929 57.733h-89.933l12.389-5.409c9.857-4.303 20.496-6.524 31.251-6.524h17.484c10.805 0 21.168 4.293 28.809 11.933z" fill="url(#SVGID_2_)"/><path d="m456.056 456h-402.112c-19.023 0-34.444-15.421-34.444-34.444v-277.599c0-49.682 40.275-89.957 89.957-89.957h291.086c49.682 0 89.957 40.275 89.957 89.957v277.599c0 19.023-15.421 34.444-34.444 34.444z" fill="url(#SVGID_3_)"/><path d="m400.543 54h-59.5c27.521 0 52.151 12.363 68.652 31.833h-253.596c-4.107 0-7.688 3.164-7.811 7.269-.128 4.247 3.277 7.731 7.497 7.731h245.798c12.327 0 23.294 8.18 26.439 20.099 1.049 3.977 1.833 8.061 2.332 12.234h-251.827c-4.107 0-7.688 3.164-7.811 7.269-.128 4.247 3.277 7.731 7.497 7.731h225.35c15.153 0 27.437 12.284 27.437 27.437v4.896h-232.473c-4.107 0-7.688 3.164-7.811 7.269-.128 4.247 3.277 7.731 7.497 7.731h205.35c15.153 0 27.437 12.284 27.437 27.437v58.155h-411.5v25.011h383.154c15.655 0 28.346 12.691 28.346 28.346v20.885h-194.151c-4.107 0-7.688 3.164-7.811 7.269-.128 4.247 3.277 7.731 7.497 7.731h167.029c15.153 0 27.437 12.284 27.437 27.437v4.896h-264.847c-4.107 0-7.688 3.164-7.811 7.269-.128 4.247 3.277 7.731 7.497 7.731h237.723c15.153 0 27.437 12.284 27.437 27.437 0 7.604-15.421 10.896-34.444 10.896h59.5c19.023 0 34.444-15.421 34.444-34.444v-277.598c0-49.682-40.275-89.957-89.957-89.957z" fill="url(#SVGID_4_)"/><path d="m403.26 45.8h-25.28c28.672 0 54.312 13.002 71.346 33.429 11.05 13.25 18.478 29.625 20.764 47.601.01.02.01.04.01.06.67 3.82 1.02 7.76 1.02 11.77v289.98c0 .99-.14 1.95-.39 2.86-1.25 4.44-5.32 7.7-10.16 7.7h-411.145c-4.84 0-8.91-3.26-10.16-7.7-.25-.91-.39-1.87-.39-2.86v-289.98c0-4.01.35-7.95 1.02-11.77 0-.02 0-.04.01-.06 2.286-17.977 9.714-34.351 20.764-47.601 17.034-20.427 42.675-33.429 71.346-33.429h-25.28c-51.29 0-92.86 41.58-92.86 92.86v289.98c0 19.64 15.91 35.56 35.55 35.56h411.145c19.64 0 35.55-15.92 35.55-35.56v-289.98c0-51.28-41.57-92.86-92.86-92.86z" fill="url(#SVGID_5_)"/><path d="m471.12 276.797h25v29.138h-25z" fill="url(#SVGID_6_)"/><path d="m13.875 256.955v46.111c3.645 1.936 7.802 3.036 12.217 3.036h12.783v-52.184h-12.783c-4.415.001-8.571 1.102-12.217 3.037z" fill="url(#SVGID_7_)"/><path d="m483.908 228.908h-457.816c-14.41 0-26.092 11.682-26.092 26.092 0 14.41 11.682 26.092 26.092 26.092h183.408v5.185c0 25.129 20.371 45.5 45.5 45.5 25.129 0 45.5-20.371 45.5-45.5v-5.185h183.408c14.41 0 26.092-11.682 26.092-26.092 0-14.41-11.682-26.092-26.092-26.092z" fill="url(#SVGID_8_)"/><path d="m483.908 228.908h-40.02c14.41 0 26.092 11.682 26.092 26.092 0 14.41-11.682 26.092-26.092 26.092h40.02c14.41 0 26.092-11.682 26.092-26.092 0-14.41-11.682-26.092-26.092-26.092z" fill="url(#SVGID_9_)"/><path d="m276.799 271.799c0-12.857-11.13-23.114-24.28-21.661-10.143 1.12-18.255 9.377-19.216 19.536-.752 7.947 2.767 15.122 8.528 19.497 3.531 2.681 5.67 6.805 5.67 11.239v8.276c0 4.107 3.165 7.688 7.27 7.811 4.247.127 7.73-3.278 7.73-7.497v-8.586c0-4.472 2.206-8.586 5.754-11.308 5.194-3.984 8.544-10.254 8.544-17.307z" fill="url(#SVGID_10_)"/></g></svg>