<svg xmlns="http://www.w3.org/2000/svg" viewBox="0 0 512 512" width="512" height="512">
	<style>
		tspan { white-space:pre }
		.shp0 { fill: #379a30 } 
		.shp1 { fill: #2f8d28 } 
		.shp2 { fill: #41a63a } 
	</style>
	<g id="Layer">
		<path id="Layer" class="shp0" d="M128 119.89L256 266.18L0 266.18L128 119.89Z" />
		<path id="Layer" class="shp1" d="M512 266.18L256 266.18L384 119.89L512 266.18Z" />
		<path id="Layer" class="shp2" d="M512 397.46L497 412.46L512 427.46L512 485.6L0 485.6L0 427.46L15 412.46L0 397.46L0 119.89L128 266.18L255.99 119.89L256 119.9L384 266.18L512 119.89L512 397.46Z" />
		<path id="Layer" class="shp0" d="M512 397.46L497 412.46L512 427.46L512 485.6L256 485.6L256 119.9L384 266.18L512 119.89L512 397.46Z" />
		<path id="Layer" class="shp2" d="M0 397.46L512 397.46L512 427.46L0 427.46L0 397.46Z" />
		<path id="Layer" class="shp0" d="M256 397.46L512 397.46L512 427.46L256 427.46L256 397.46Z" />
	</g>
</svg>