<svg xmlns="http://www.w3.org/2000/svg" viewBox="0 0 512 512" width="512" height="512">
	<style>
		tspan { white-space:pre }
		.shp0 { fill: #ff507d } 
		.shp1 { fill: #7c7c7c } 
		.shp2 { fill: #6f6f6f } 
		.shp3 { fill: #d23c69 } 
	</style>
	<path id="Layer" class="shp0" d="M256 0C201.27 0 156.9 26.74 156.9 49.55L355.1 49.55C355.1 26.74 310.73 0 256 0Z" />
	<path id="Layer" fill-rule="evenodd" class="shp1" d="M487.23 280.77C487.23 408.48 383.7 512 256 512C128.3 512 24.77 408.48 24.77 280.77C24.77 185.1 74.05 96.34 156.9 49.55L355.1 49.55C437.95 96.34 487.23 185.1 487.23 280.77ZM445.94 280.77C445.94 175.88 360.9 90.84 256 90.84C151.1 90.84 66.06 175.88 66.06 280.77C66.06 385.67 151.1 470.71 256 470.71C360.9 470.71 445.94 385.67 445.94 280.77Z" />
	<g id="Layer">
		<path id="Layer" class="shp2" d="M272.52 84.21L272.52 84.21C272.52 88.42 275.7 91.85 279.87 92.38C373.5 104.12 445.94 183.97 445.94 280.77C445.94 377.58 373.5 457.43 279.87 469.17C275.7 469.69 272.52 473.13 272.52 477.33L272.52 477.33C272.52 482.24 276.78 486.19 281.65 485.58C383.56 472.95 462.45 386.1 462.45 280.77C462.45 175.44 383.56 88.6 281.65 75.97C276.78 75.36 272.52 79.31 272.52 84.21Z" />
		<path id="Layer" class="shp2" d="M239.48 502.26C239.48 498.02 236.25 494.56 232.03 494.09C124.74 482.17 41.29 391.25 41.29 280.77C41.29 173.44 120.06 84.56 222.94 68.66C232.43 67.2 239.48 59.15 239.48 49.55L239.48 49.55L156.9 49.55C74.05 96.34 24.77 185.1 24.77 280.77C24.77 399.83 114.77 497.8 230.43 510.53C235.27 511.06 239.48 507.14 239.48 502.26L239.48 502.26Z" />
	</g>
	<path id="Layer" class="shp3" d="M313.81 33.03L219.77 33.03C212.37 33.03 208.62 24.01 213.94 18.87C221.24 11.81 233.48 5.16 248.92 0.21C197.51 2.39 156.9 27.74 156.9 49.55L313.81 49.55C318.37 49.55 322.06 45.85 322.06 41.29L322.06 41.29C322.06 36.73 318.37 33.03 313.81 33.03Z" />
	<g id="Layer">
	</g>
	<g id="Layer">
	</g>
	<g id="Layer">
	</g>
	<g id="Layer">
	</g>
	<g id="Layer">
	</g>
	<g id="Layer">
	</g>
	<g id="Layer">
	</g>
	<g id="Layer">
	</g>
	<g id="Layer">
	</g>
	<g id="Layer">
	</g>
	<g id="Layer">
	</g>
	<g id="Layer">
	</g>
	<g id="Layer">
	</g>
	<g id="Layer">
	</g>
	<g id="Layer">
	</g>
</svg>