<svg xmlns="http://www.w3.org/2000/svg" viewBox="0 0 512 512" width="512" height="512">
	<style>
		tspan { white-space:pre }
		.shp0 { fill: #4a6a2a } 
		.shp1 { fill: #d9ecfd } 
		.shp2 { fill: #c5e2ff } 
		.shp3 { fill: #567e2f } 
		.shp4 { fill: #425a2b } 
		.shp5 { fill: #ffc85e } 
	</style>
	<g id="Layer">
		<path id="Layer" class="shp0" d="M128.96 0L145.67 189.99L128.96 381.79L127.23 381.79C96.79 381.79 72.11 406.47 72.11 436.9L72.11 36.06C72.11 16.14 88.26 0 108.17 0L128.96 0Z" />
		<path id="Layer" class="shp1" d="M432 413.16L432 480.63L120.42 480.63C107.59 480.63 97.17 470.22 97.17 457.38L97.17 436.41C97.17 423.57 107.59 413.16 120.42 413.16L432 413.16L432 413.16Z" />
		<path id="Layer" class="shp2" d="M432 446.9L432 480.63L120.42 480.63C107.59 480.63 97.17 470.22 97.17 457.38L97.17 446.9L432 446.9Z" />
		<path id="Layer" class="shp3" d="M432.68 0L128.96 0L128.96 381.79L127.23 381.79C96.79 381.79 72.11 406.47 72.11 436.91L72.11 456.89C72.11 487.33 96.79 512 127.23 512L432.68 512C436.66 512 439.89 508.77 439.89 504.79L439.89 486.25C439.89 482.26 436.66 479.04 432.68 479.04L127.23 479.04C115 479.04 105.08 469.12 105.08 456.89L105.08 436.91C105.08 424.67 115 414.76 127.23 414.76L432.68 414.76C436.66 414.76 439.89 411.53 439.89 407.55L439.89 381.79L439.89 7.21C439.89 3.23 436.66 0 432.68 0L432.68 0Z" />
		<path id="Layer" class="shp4" d="M127.23 381.79C96.79 381.79 72.11 406.46 72.11 436.9L72.11 456.88C72.11 487.32 96.79 512 127.23 512L432.68 512C436.66 512 439.89 508.77 439.89 504.79L439.89 486.25C439.89 482.26 436.66 479.03 432.68 479.03L127.23 479.03C115 479.03 105.08 469.12 105.08 456.89L105.08 436.9C105.08 424.67 115 414.76 127.23 414.76L432.68 414.76C436.66 414.76 439.89 411.53 439.89 407.54L439.89 381.79L127.23 381.79L127.23 381.79Z" />
		<path id="Layer" class="shp5" d="M370.41 140.44L198.58 140.44C194.71 140.44 191.58 137.31 191.58 133.44L191.58 64.28C191.58 60.42 194.71 57.28 198.58 57.28L370.41 57.28C374.27 57.28 377.41 60.42 377.41 64.28L377.41 133.44C377.41 137.3 374.27 140.44 370.41 140.44Z" />
		<g id="Layer">
			<g id="Layer">
				<path id="Layer" class="shp1" d="M344.25 256.61L224.74 256.61C220.48 256.61 217.02 253.15 217.02 248.88C217.02 244.62 220.48 241.16 224.74 241.16L344.25 241.16C348.51 241.16 351.97 244.62 351.97 248.88C351.97 253.15 348.51 256.61 344.25 256.61Z" />
			</g>
		</g>
		<g id="Layer">
			<g id="Layer">
				<path id="Layer" class="shp1" d="M344.25 293.51L224.74 293.51C220.48 293.51 217.02 290.05 217.02 285.78C217.02 281.51 220.48 278.06 224.74 278.06L344.25 278.06C348.51 278.06 351.97 281.51 351.97 285.78C351.97 290.05 348.51 293.51 344.25 293.51Z" />
			</g>
		</g>
	</g>
</svg>