<svg xmlns="http://www.w3.org/2000/svg" viewBox="0 0 512 512" width="512" height="512">
	<style>
		tspan { white-space:pre }
		.shp0 { fill: #979797 } 
		.shp1 { fill: #ffffff } 
		.shp2 { fill: #fba61f } 
	</style>
	<path id="Layer" class="shp0" d="M292.48 512L219.52 512L190.16 450L165.39 439.73L100.79 462.82L49.18 411.21L72.27 346.61L62 321.84L0 292.48L0 219.52L62 190.16L72.27 165.39L49.18 100.79L100.79 49.18L165.43 72.29L190.14 62.05L219.52 0L292.48 0L321.86 62.05L346.57 72.29L411.21 49.18L462.82 100.79L439.73 165.39L450 190.16L512 219.52L512 292.48L450 321.84L439.73 346.61L462.82 411.21L411.21 462.82L346.61 439.73L321.84 450L292.48 512Z" />
	<path id="Layer" class="shp1" d="M320 352L192 352L192 240L125.21 240L256 87.43L386.79 240L320 240L320 352Z" />
	<g id="Layer">
		<path id="Layer" class="shp2" d="M288 384L320 384L320 416L288 416L288 384Z" />
		<path id="Layer" class="shp2" d="M192 384L224 384L224 416L192 416L192 384Z" />
	</g>
</svg>