<svg id="Layer_1" enable-background="new 0 0 512 512" height="512" viewBox="0 0 512 512" width="512" xmlns="http://www.w3.org/2000/svg"><g><path d="m300.525 290.916c-15.621-15.621-40.947-15.621-56.568 0l-64 64c-7.501 7.501-11.716 17.675-11.716 28.284v64c0 .336.017.668.025 1.002-13.815 3.544-24.025 16.078-24.025 30.998 0 8.837 7.163 16 16 16h72c8.837 0 16-7.163 16-16v-79.432l52.284-52.284c15.621-15.621 15.621-40.947 0-56.568z" fill="#f0915a"/><g><path d="m200.241 343.2v96h4.153c2.091 0 3.806-1.562 4.119-3.63 1.75-11.532 11.706-20.37 23.727-20.37s21.978 8.838 23.727 20.37c.314 2.068 2.028 3.63 4.119 3.63h8.307c2.091 0 3.806-1.562 4.119-3.63 1.75-11.532 11.706-20.37 23.727-20.37s21.978 8.838 23.727 20.37c.314 2.068 2.028 3.63 4.119 3.63 2.294 0 4.153-1.859 4.153-4.153v-91.847z" fill="#aa5a28"/></g><g><path d="m396.525 418.916-52.284-52.284v-63.432c0-22.092-17.909-40-40-40s-40 17.908-40 40v80c0 10.609 4.214 20.783 11.716 28.284l36.641 36.642c-13.981 3.428-24.357 16.036-24.357 31.074 0 8.837 7.163 16 16 16h88c8.837 0 16-7.163 16-16v-32c0-10.236-3.905-20.474-11.716-28.284z" fill="#fab991"/></g><g><path d="m144.241 311.2h72v-80h-72c-4.418 0-8 3.582-8 8v64c0 4.418 3.582 8 8 8z" fill="#dc7846"/></g><g><path d="m360.241 159.2c0-17.673-14.327-32-32-32h-24c0-22.092-17.909-40-40-40h-56c-22.091 0-40 17.908-40 40v56c0 8.837 7.163 16 16 16h32v22.111c0 10.963-6.194 20.985-16 25.889s-16 14.925-16 25.889v54.111c0 8.837 7.163 16 16 16h144c8.837 0 16-7.163 16-16v-56l2.564-3.846c8.761-13.142 13.436-28.582 13.436-44.376v-63.778z" fill="#f0915a"/></g><g><path d="m232.241 199.2h-48c-8.837 0-16-7.163-16-16v-56c0-22.091 17.909-40 40-40 22.091 0 40 17.909 40 40v56c0 8.837-7.163 16-16 16z" fill="#fab991"/></g><g><path d="m104.241 63.2 16-16h8c13.255 0 24 10.745 24 24v96l-16 16v124c0 11.046-8.954 20-20 20-11.046 0-20-8.954-20-20v-108l-16-16v-96c0-13.255 10.745-24 24-24z" fill="#96461e"/></g><g><path d="m96.241 223.2c13.255 0 24 10.745 24 24v32c0 13.255-10.745 24-24 24-4.418 0-8-3.582-8-8v-64c0-4.418 3.582-8 8-8z" fill="#f0915a"/></g><g><path d="m344.241 31.2v16h-12c-2.209 0-4 1.791-4 4 0 6.627 5.373 12 12 12h4c0 8.837 7.163 16 16 16h48v-48z" fill="#f0915a"/></g><g><path d="m392.241 15.2h-48c-4.418 0-8 3.582-8 8s3.582 8 8 8h48v32c0 8.837 7.164 16 16 16v-48c0-8.837-7.163-16-16-16z" fill="#fab991"/></g><g><path d="m416.241 79.2h-64c-4.418 0-8 3.582-8 8v72c-17.673 0-32 14.327-32 32s14.327 32 32 32h48c17.673 0 32-14.327 32-32v-104c0-4.418-3.582-8-8-8z" fill="#fab991"/></g><g><path d="m208.241 215.2v24c0 8.837 7.163 16 16 16h8c8.837 0 16-7.163 16-16v-24c0-4.418-3.582-8-8-8h-24c-4.418 0-8 3.582-8 8z" fill="#fab991"/></g><g><path d="m264.241 215.2v24c0 8.837 7.163 16 16 16h8c8.837 0 16-7.163 16-16v-24c0-4.418-3.582-8-8-8h-24c-4.418 0-8 3.582-8 8z" fill="#fab991"/></g><g><path d="m264.241 151.2h-8v-16c0-8.837 7.163-16 16-16h8v16c0 8.837-7.163 16-16 16z" fill="#fab991"/></g><g><path d="m344.241 343.2h-144c-8.837 0-16-7.163-16-16v-8h176v8c0 8.837-7.163 16-16 16z" fill="#d76e28"/></g><g><path d="m256.241 151.2h-8c0 4.418-3.582 8-8 8h-72v40c0 8.837 7.163 16 16 16h56c8.837 0 16-7.163 16-16z" fill="#464646"/></g><g><path d="m220.241 185.867h-32c-2.209 0-4-1.791-4-4 0-6.627 5.373-12 12-12h16c6.627 0 12 5.373 12 12 0 2.209-1.791 4-4 4z" fill="#f0697d"/></g><g><circle cx="200.241" cy="124.533" fill="#d7e6f0" r="24"/></g><g><circle cx="200.241" cy="132.533" fill="#464646" r="8"/></g><g><circle cx="196.241" cy="128.533" fill="#d7e6f0" r="4"/></g></g></svg>