<svg id="Layer_1" enable-background="new 0 0 512 512" height="512" viewBox="0 0 512 512" width="512" xmlns="http://www.w3.org/2000/svg"><g><g><path d="m291.179 256.8h56c22.091 0 40 17.909 40 40v104c0 8.837 7.163 16 16 16 8.837 0 16-7.163 16-16v-8c0-4.418 3.582-8 8-8 4.418 0 8 3.582 8 8v25c0 17.121-13.879 31-31 31h-17c-26.51 0-48-21.49-48-48v-64h-48z" fill="#5a6e82"/></g><g><path d="m299.179 51.542v-2.742c0-17.673-14.327-32-32-32v36.292c-9.562 5.534-16 15.866-16 27.708h-56v64c17.673 0 32 14.327 32 32v20c0 6.627 5.373 12 12 12s12-5.373 12-12 5.373-12 12-12 12 5.373 12 12 5.373 12 12 12h12c0 17.673 14.327 32 32 32v-144c0-20.898-13.359-38.667-32-45.258z" fill="#5a6e82"/></g><g><path d="m347.179 196.8c0-6.627-5.373-12-12-12-6.627 0-12 5.373-12 12 0 6.627-5.373 12-12 12-6.627 0-12-5.373-12-12v-20c0-17.673-14.327-32-32-32v-32h56c17.673 0 32-14.327 32-32 8.837 0 16 7.163 16 16v112h-12c-6.627 0-12-5.373-12-12z" fill="#788c9b"/></g><g><path d="m339.18 16.8v64h32v-32c-.001-17.673-14.327-32-32-32z" fill="#5a6e82"/></g><g><path d="m267.179 80.8h56c0-17.673 14.327-32 32-32 26.51 0 48 21.49 48 48v144c-17.673 0-32-14.327-32-32v-112c0-8.837-7.163-16-16-16 0 17.673-14.327 32-32 32h-56z" fill="#aac3d7"/></g><g><path d="m195.179 176.8h24v128h-24z" fill="#5a6e82"/></g><g><path d="m147.179 80.8v200c-13.255 0-24 10.745-24 24h72v-224z" fill="#788c9b"/></g><g><path d="m299.179 304.8h-80v-128h-48c-13.255 0-24-10.745-24-24v-72h112c39.765 0 72 32.235 72 72v120c0 17.673-14.326 32-32 32z" fill="#5a6e82"/></g><g><path d="m275.179 128.8c0-17.673-14.327-32-32-32s-32 14.327-32 32c0 8.112 3.025 15.515 8 21.155v130.845c-13.255 0-24 10.745-24 24h72v-154.845c4.976-5.64 8-13.043 8-21.155z" fill="#788c9b"/></g><g><path d="m107.179 48.8h24c8.837 0 16 7.163 16 16v16h-24v-16c-8.836 0-16-7.163-16-16z" fill="#5a6e82"/></g><g><path d="m147.179 48.8h24c8.837 0 16 7.163 16 16v16h-24v-16c-8.836 0-16-7.163-16-16z" fill="#788c9b"/></g><g><path d="m135.179 136.8h-52v-8h52c2.209 0 4 1.791 4 4 0 2.209-1.79 4-4 4z" fill="#5a6e82"/></g><g><path d="m203.179 88.8v-24h-8c-8.837 0-16 7.164-16 16h-56c-8.837 0-16 7.164-16 16v8h-24c-4.418 0-8 3.582-8 8v8c0 4.418 3.582 8 8 8h52c2.209 0 4 1.791 4 4s-1.791 4-4 4h-52c-4.418 0-8 3.582-8 8s3.582 8 8 8h96c13.255 0 24-10.745 24-24 0-13.255-10.745-24-24-24h8c8.837 0 16-7.164 16-16z" fill="#aac3d7"/></g><g><path d="m299.179 304.8h-32v-144c44.183 0 80 35.817 80 80v16c0 26.51-21.49 48-48 48z" fill="#788c9b"/></g><g><path d="m267.179 160.8c-13.255 0-24 10.745-24 24v96c-13.255 0-24 10.745-24 24h56c8.837 0 16-7.164 16-16v-104c0-13.255-10.745-24-24-24z" fill="#aac3d7"/></g><g><path d="m147.179 304.8h48v-16h-32c-8.836 0-16 7.163-16 16z" fill="#5a6e82"/></g><g><path d="m120.513 136.8c1.593 0 3.006-1.019 3.51-2.53l1.823-5.47h-10.667l1.823 5.47c.504 1.511 1.918 2.53 3.511 2.53z" fill="#aac3d7"/></g><g><path d="m99.179 136.8c1.593 0 3.006-1.019 3.51-2.53l1.823-5.47h-10.666l1.823 5.47c.504 1.511 1.918 2.53 3.51 2.53z" fill="#aac3d7"/></g><g><path d="m339.18 336.8h-224c-8.837 0-16-7.163-16-16 0-8.837 7.163-16 16-16h224c8.837 0 16 7.163 16 16-.001 8.837-7.164 16-16 16z" fill="#aac3d7"/></g><g><path d="m339.18 336.8h-128c-8.837 0-16-7.163-16-16 0-8.837 7.163-16 16-16h128c8.837 0 16 7.163 16 16-.001 8.837-7.164 16-16 16z" fill="#788c9b"/></g><g><path d="m115.179 336.8h224v160h-224z" fill="#788c9b"/></g><g><path d="m115.179 336.8h96v160h-96z" fill="#aac3d7"/></g><g><path d="m115.179 336.8h224v16h-224z" fill="#5a6e82"/></g><g><path d="m115.179 336.8h96v16h-96z" fill="#788c9b"/></g><g><circle cx="299.179" cy="456.8" fill="#5a6e82" r="5.333"/></g><g><circle cx="251.179" cy="408.8" fill="#5a6e82" r="8"/></g><g><circle cx="251.179" cy="139.467" fill="#5a6e82" r="5.333"/></g><g><circle cx="315.179" cy="216.8" fill="#5a6e82" r="8"/></g><g><circle cx="317.846" cy="376.8" fill="#5a6e82" r="5.333"/></g><g><circle cx="141.846" cy="440.8" fill="#788c9b" r="5.333"/></g><g><circle cx="259.179" cy="283.467" fill="#788c9b" r="5.333"/></g><g><circle cx="91.179" cy="104.8" fill="#5a6e82" r="8"/></g></g></svg>