<svg xmlns="http://www.w3.org/2000/svg" xmlns:xlink="http://www.w3.org/1999/xlink" viewBox="0 0 736.47 750.19"><defs><style>.cls-1{fill:url(#Degradado_sin_nombre_19);}.cls-2{fill:url(#Degradado_sin_nombre_19-2);}.cls-3{fill:url(#Degradado_sin_nombre_2);}.cls-4{fill:url(#Degradado_sin_nombre_6);}.cls-5{fill:url(#Degradado_sin_nombre_2-2);}.cls-6{fill:url(#Degradado_sin_nombre_6-2);}.cls-7{fill:url(#Degradado_sin_nombre_6-3);}.cls-8{fill:url(#Degradado_sin_nombre_6-4);}.cls-9{fill:url(#Degradado_sin_nombre_6-6);}.cls-10{fill:url(#Degradado_sin_nombre_6-7);}.cls-11{fill:url(#Degradado_sin_nombre_6-8);}.cls-12{fill:url(#Degradado_sin_nombre_6-9);}.cls-13{fill:url(#Degradado_sin_nombre_21);}.cls-14{fill:url(#Degradado_sin_nombre_21-2);}.cls-15{fill:url(#Degradado_sin_nombre_21-3);}.cls-16{fill:url(#Degradado_sin_nombre_21-4);}.cls-17{fill:url(#Degradado_sin_nombre_21-5);}.cls-18{fill:url(#Degradado_sin_nombre_21-6);}.cls-19{fill:url(#Degradado_sin_nombre_21-7);}.cls-20{fill:url(#Degradado_sin_nombre_21-8);}.cls-21{fill:url(#Degradado_sin_nombre_21-9);}.cls-22{fill:url(#Degradado_sin_nombre_21-10);}.cls-23{fill:url(#Degradado_sin_nombre_2-3);}.cls-24{fill:url(#Degradado_sin_nombre_21-11);}.cls-25{fill:url(#Degradado_sin_nombre_21-12);}.cls-26{fill:url(#Degradado_sin_nombre_21-13);}.cls-27{fill:url(#Degradado_sin_nombre_21-14);}.cls-28{fill:url(#Degradado_sin_nombre_21-15);}.cls-29{fill:url(#Degradado_sin_nombre_21-16);}.cls-30{fill:url(#Degradado_sin_nombre_21-17);}.cls-31{fill:url(#Degradado_sin_nombre_21-18);}.cls-32{fill:url(#Degradado_sin_nombre_21-19);}.cls-33{fill:url(#Degradado_sin_nombre_21-20);}.cls-34{fill:url(#Degradado_sin_nombre_21-21);}.cls-35{fill:url(#Degradado_sin_nombre_21-22);}.cls-36{fill:url(#Degradado_sin_nombre_6-10);}.cls-37{fill:url(#Degradado_sin_nombre_6-11);}.cls-38{fill:url(#Degradado_sin_nombre_6-12);}.cls-39{fill:url(#Degradado_sin_nombre_19-3);}.cls-40{fill:url(#Degradado_sin_nombre_21-23);}.cls-41{fill:url(#Degradado_sin_nombre_6-13);}.cls-42{fill:url(#Degradado_sin_nombre_6-14);}.cls-43{fill:url(#Degradado_sin_nombre_6-15);}.cls-44{fill:url(#Degradado_sin_nombre_6-16);}.cls-45{fill:#fff;}.cls-46{fill:url(#Degradado_sin_nombre_6-17);}.cls-47{fill:url(#Degradado_sin_nombre_6-18);}.cls-48{fill:url(#Degradado_sin_nombre_6-19);}.cls-49{fill:url(#Degradado_sin_nombre_6-20);}.cls-50{fill:url(#Degradado_sin_nombre_6-21);}.cls-51{fill:url(#Degradado_sin_nombre_6-22);}.cls-52{fill:url(#Degradado_sin_nombre_6-23);}.cls-53{fill:url(#Degradado_sin_nombre_6-24);}.cls-54{fill:url(#Degradado_sin_nombre_6-25);}.cls-55{fill:url(#Degradado_sin_nombre_6-26);}.cls-56{fill:url(#Degradado_sin_nombre_6-27);}.cls-57{fill:url(#Degradado_sin_nombre_6-28);}.cls-58{fill:url(#Degradado_sin_nombre_6-29);}.cls-59{fill:url(#Degradado_sin_nombre_6-30);}.cls-60{fill:url(#Degradado_sin_nombre_6-31);}.cls-61{fill:url(#Degradado_sin_nombre_6-32);}.cls-62{fill:url(#Degradado_sin_nombre_6-33);}.cls-63{fill:url(#Degradado_sin_nombre_6-34);}.cls-64{fill:url(#Degradado_sin_nombre_6-35);}.cls-65{fill:url(#Degradado_sin_nombre_19-4);}.cls-66{fill:url(#Degradado_sin_nombre_6-36);}.cls-67{fill:url(#Degradado_sin_nombre_6-37);}.cls-68{fill:url(#Degradado_sin_nombre_21-24);}.cls-69{fill:url(#Degradado_sin_nombre_21-25);}.cls-70{fill:url(#Degradado_sin_nombre_21-26);}.cls-71{fill:url(#Degradado_sin_nombre_21-27);}.cls-72{fill:url(#Degradado_sin_nombre_21-28);}.cls-73{fill:url(#Degradado_sin_nombre_21-29);}.cls-74{fill:url(#Degradado_sin_nombre_6-38);}.cls-75{fill:url(#Degradado_sin_nombre_6-39);}.cls-76{fill:url(#Degradado_sin_nombre_6-40);}.cls-77{fill:url(#Degradado_sin_nombre_6-41);}.cls-78{fill:url(#Degradado_sin_nombre_6-42);}.cls-79{fill:url(#Degradado_sin_nombre_6-43);}.cls-80{fill:url(#Degradado_sin_nombre_6-44);}.cls-81{fill:url(#Degradado_sin_nombre_6-45);}.cls-82{fill:url(#Degradado_sin_nombre_21-30);}.cls-83{fill:url(#Degradado_sin_nombre_21-31);}.cls-84{fill:url(#Degradado_sin_nombre_21-32);}.cls-85{fill:url(#Degradado_sin_nombre_21-33);}.cls-86{fill:url(#Degradado_sin_nombre_21-34);}.cls-87{fill:url(#Degradado_sin_nombre_21-35);}.cls-88{fill:url(#Degradado_sin_nombre_6-46);}.cls-89{fill:url(#Degradado_sin_nombre_6-47);}.cls-90{fill:url(#Degradado_sin_nombre_6-48);}.cls-91{fill:url(#Degradado_sin_nombre_6-49);}.cls-92{fill:url(#Degradado_sin_nombre_6-50);}.cls-93{fill:url(#Degradado_sin_nombre_6-51);}.cls-94{fill:url(#Degradado_sin_nombre_6-52);}.cls-95{fill:url(#Degradado_sin_nombre_6-53);}.cls-96{fill:url(#Degradado_sin_nombre_2-4);}.cls-97{fill:url(#Degradado_sin_nombre_2-5);}.cls-98{fill:url(#Degradado_sin_nombre_2-6);}.cls-99{fill:url(#Degradado_sin_nombre_2-9);}.cls-100{fill:url(#Degradado_sin_nombre_2-11);}.cls-101{fill:url(#Degradado_sin_nombre_6-54);}.cls-102{fill:url(#Degradado_sin_nombre_2-12);}.cls-103{fill:url(#Degradado_sin_nombre_6-55);}.cls-104{fill:url(#Degradado_sin_nombre_6-56);}.cls-105{fill:url(#Degradado_sin_nombre_6-57);}.cls-106{fill:url(#Degradado_sin_nombre_6-58);}.cls-107{fill:url(#Degradado_sin_nombre_23);}.cls-108{fill:url(#Degradado_sin_nombre_23-2);}.cls-109{fill:url(#Degradado_sin_nombre_23-3);}.cls-110{fill:url(#Degradado_sin_nombre_23-4);}.cls-111{fill:url(#Degradado_sin_nombre_23-5);}.cls-112{fill:url(#Degradado_sin_nombre_23-6);}.cls-113{fill:url(#Degradado_sin_nombre_23-7);}.cls-114{fill:url(#Degradado_sin_nombre_23-8);}.cls-115{fill:url(#Degradado_sin_nombre_23-9);}.cls-116{fill:url(#Degradado_sin_nombre_23-10);}.cls-117{fill:url(#Degradado_sin_nombre_2-13);}.cls-118{fill:url(#Degradado_sin_nombre_6-59);}.cls-119{fill:url(#Degradado_sin_nombre_23-11);}.cls-120{fill:url(#Degradado_sin_nombre_23-12);}.cls-121{fill:url(#Degradado_sin_nombre_23-13);}.cls-122{fill:url(#Degradado_sin_nombre_23-14);}.cls-123{fill:url(#Degradado_sin_nombre_23-15);}.cls-124{fill:url(#Degradado_sin_nombre_23-16);}.cls-125{fill:url(#Degradado_sin_nombre_23-17);}.cls-126{fill:url(#Degradado_sin_nombre_23-18);}.cls-127{fill:url(#Degradado_sin_nombre_23-19);}.cls-128{fill:url(#Degradado_sin_nombre_23-20);}.cls-129{fill:url(#Degradado_sin_nombre_23-21);}.cls-130{fill:url(#Degradado_sin_nombre_6-60);}.cls-131{fill:url(#Degradado_sin_nombre_6-61);}</style><linearGradient id="Degradado_sin_nombre_19" x1="274.46" y1="297.4" x2="258.5" y2="351.27" gradientUnits="userSpaceOnUse"><stop offset="0" stop-color="#92b259"/><stop offset="0.97" stop-color="#4a5b20"/></linearGradient><linearGradient id="Degradado_sin_nombre_19-2" x1="454.08" y1="305.15" x2="444.78" y2="336.53" xlink:href="#Degradado_sin_nombre_19"/><linearGradient id="Degradado_sin_nombre_2" x1="106.89" y1="592.8" x2="106.29" y2="584.46" gradientUnits="userSpaceOnUse"><stop offset="0" stop-color="#211408"/><stop offset="0.99" stop-color="#512f20"/></linearGradient><linearGradient id="Degradado_sin_nombre_6" x1="96.94" y1="590.39" x2="96.44" y2="583.41" gradientUnits="userSpaceOnUse"><stop offset="0" stop-color="#a0834a"/><stop offset="0.99" stop-color="#512f20"/></linearGradient><linearGradient id="Degradado_sin_nombre_2-2" x1="357.36" y1="595.84" x2="348.91" y2="477.51" xlink:href="#Degradado_sin_nombre_2"/><linearGradient id="Degradado_sin_nombre_6-2" x1="359.84" y1="154.55" x2="359.84" y2="464.82" xlink:href="#Degradado_sin_nombre_6"/><linearGradient id="Degradado_sin_nombre_6-3" x1="277.36" y1="192.94" x2="366.74" y2="297.8" xlink:href="#Degradado_sin_nombre_6"/><linearGradient id="Degradado_sin_nombre_6-4" x1="183.26" y1="342.05" x2="419.12" y2="677.98" xlink:href="#Degradado_sin_nombre_6"/><linearGradient id="Degradado_sin_nombre_6-6" x1="374.85" y1="195.83" x2="353.41" y2="443.55" xlink:href="#Degradado_sin_nombre_6"/><linearGradient id="Degradado_sin_nombre_6-7" x1="284.63" y1="335.09" x2="258.43" y2="544.71" xlink:href="#Degradado_sin_nombre_6"/><linearGradient id="Degradado_sin_nombre_6-8" x1="251.79" y1="401.74" x2="162.5" y2="685.08" xlink:href="#Degradado_sin_nombre_6"/><linearGradient id="Degradado_sin_nombre_6-9" x1="251.89" y1="301.66" x2="374.8" y2="271.74" xlink:href="#Degradado_sin_nombre_6"/><linearGradient id="Degradado_sin_nombre_21" x1="270.24" y1="163.11" x2="303.65" y2="157.99" gradientUnits="userSpaceOnUse"><stop offset="0" stop-color="#92b259"/><stop offset="0.78" stop-color="#586c2b"/><stop offset="0.97" stop-color="#4a5b20"/></linearGradient><linearGradient id="Degradado_sin_nombre_21-2" x1="270.17" y1="137.96" x2="285.86" y2="153.56" xlink:href="#Degradado_sin_nombre_21"/><linearGradient id="Degradado_sin_nombre_21-3" x1="403.43" y1="159.42" x2="446.44" y2="152.83" xlink:href="#Degradado_sin_nombre_21"/><linearGradient id="Degradado_sin_nombre_21-4" x1="423.43" y1="149.75" x2="427.8" y2="154.09" xlink:href="#Degradado_sin_nombre_21"/><linearGradient id="Degradado_sin_nombre_21-5" x1="423.29" y1="175.42" x2="448.26" y2="171.59" xlink:href="#Degradado_sin_nombre_21"/><linearGradient id="Degradado_sin_nombre_21-6" x1="425.84" y1="161.38" x2="434.67" y2="170.16" xlink:href="#Degradado_sin_nombre_21"/><linearGradient id="Degradado_sin_nombre_21-7" x1="269.86" y1="194.4" x2="309.03" y2="188.39" xlink:href="#Degradado_sin_nombre_21"/><linearGradient id="Degradado_sin_nombre_21-8" x1="277.83" y1="174.95" x2="289.5" y2="186.54" xlink:href="#Degradado_sin_nombre_21"/><linearGradient id="Degradado_sin_nombre_21-9" x1="268.06" y1="203.4" x2="312.26" y2="196.62" xlink:href="#Degradado_sin_nombre_21"/><linearGradient id="Degradado_sin_nombre_21-10" x1="284.33" y1="189.78" x2="291.99" y2="197.38" xlink:href="#Degradado_sin_nombre_21"/><linearGradient id="Degradado_sin_nombre_2-3" x1="298.44" y1="131.66" x2="436.21" y2="131.66" xlink:href="#Degradado_sin_nombre_2"/><linearGradient id="Degradado_sin_nombre_21-11" x1="498.62" y1="415.98" x2="520.67" y2="391.08" xlink:href="#Degradado_sin_nombre_21"/><linearGradient id="Degradado_sin_nombre_21-12" x1="427.85" y1="374.35" x2="423.42" y2="312.32" xlink:href="#Degradado_sin_nombre_21"/><linearGradient id="Degradado_sin_nombre_21-13" x1="424.92" y1="332.71" x2="422.03" y2="292.2" xlink:href="#Degradado_sin_nombre_21"/><linearGradient id="Degradado_sin_nombre_21-14" x1="450.03" y1="310.57" x2="449.96" y2="309.62" xlink:href="#Degradado_sin_nombre_21"/><linearGradient id="Degradado_sin_nombre_21-15" x1="418.09" y1="302.37" x2="416.36" y2="278.11" xlink:href="#Degradado_sin_nombre_21"/><linearGradient id="Degradado_sin_nombre_21-16" x1="372.18" y1="237" x2="371.94" y2="233.6" xlink:href="#Degradado_sin_nombre_21"/><linearGradient id="Degradado_sin_nombre_21-17" x1="386.47" y1="254.64" x2="385.97" y2="247.74" xlink:href="#Degradado_sin_nombre_21"/><linearGradient id="Degradado_sin_nombre_21-18" x1="166.72" y1="478.43" x2="257.03" y2="376.44" xlink:href="#Degradado_sin_nombre_21"/><linearGradient id="Degradado_sin_nombre_21-19" x1="296.44" y1="378.92" x2="292.08" y2="317.9" xlink:href="#Degradado_sin_nombre_21"/><linearGradient id="Degradado_sin_nombre_21-20" x1="291.65" y1="338.09" x2="288.86" y2="299.01" xlink:href="#Degradado_sin_nombre_21"/><linearGradient id="Degradado_sin_nombre_21-21" x1="280.12" y1="311.93" x2="301.1" y2="278.99" xlink:href="#Degradado_sin_nombre_21"/><linearGradient id="Degradado_sin_nombre_21-22" x1="273.37" y1="307.63" x2="294.35" y2="274.69" xlink:href="#Degradado_sin_nombre_21"/><linearGradient id="Degradado_sin_nombre_6-10" x1="361.9" y1="172.05" x2="362.56" y2="210.5" xlink:href="#Degradado_sin_nombre_6"/><linearGradient id="Degradado_sin_nombre_6-11" x1="364.34" y1="109.79" x2="359.69" y2="187.19" xlink:href="#Degradado_sin_nombre_6"/><linearGradient id="Degradado_sin_nombre_6-12" x1="334.02" y1="156.9" x2="388.2" y2="156.9" xlink:href="#Degradado_sin_nombre_6"/><linearGradient id="Degradado_sin_nombre_19-3" x1="323.77" y1="72.19" x2="457.02" y2="46.41" xlink:href="#Degradado_sin_nombre_19"/><linearGradient id="Degradado_sin_nombre_21-23" x1="237.54" y1="111.73" x2="457.67" y2="77.96" xlink:href="#Degradado_sin_nombre_21"/><linearGradient id="Degradado_sin_nombre_6-13" x1="363.33" y1="183.28" x2="363.33" y2="93.17" xlink:href="#Degradado_sin_nombre_6"/><linearGradient id="Degradado_sin_nombre_6-14" x1="352.11" y1="146.81" x2="352.11" y2="162.14" xlink:href="#Degradado_sin_nombre_6"/><linearGradient id="Degradado_sin_nombre_6-15" x1="369.67" y1="147.67" x2="369.67" y2="162.71" xlink:href="#Degradado_sin_nombre_6"/><linearGradient id="Degradado_sin_nombre_6-16" x1="348.39" y1="151.61" x2="350.45" y2="156.89" xlink:href="#Degradado_sin_nombre_6"/><linearGradient id="Degradado_sin_nombre_6-17" x1="366.53" y1="155.26" x2="367.81" y2="158.55" xlink:href="#Degradado_sin_nombre_6"/><linearGradient id="Degradado_sin_nombre_6-18" x1="339.75" y1="189.67" x2="333.27" y2="216.98" xlink:href="#Degradado_sin_nombre_6"/><linearGradient id="Degradado_sin_nombre_6-19" x1="338.97" y1="165.98" x2="336.3" y2="210.42" xlink:href="#Degradado_sin_nombre_6"/><linearGradient id="Degradado_sin_nombre_6-20" x1="388.24" y1="191.43" x2="381.8" y2="218.57" xlink:href="#Degradado_sin_nombre_6"/><linearGradient id="Degradado_sin_nombre_6-21" x1="387.63" y1="167.25" x2="384.96" y2="211.65" xlink:href="#Degradado_sin_nombre_6"/><linearGradient id="Degradado_sin_nombre_6-22" x1="301.91" y1="146.02" x2="334.56" y2="262.54" xlink:href="#Degradado_sin_nombre_6"/><linearGradient id="Degradado_sin_nombre_6-23" x1="397.93" y1="76.95" x2="453.4" y2="228.73" xlink:href="#Degradado_sin_nombre_6"/><linearGradient id="Degradado_sin_nombre_6-24" x1="317.35" y1="107.43" x2="317.35" y2="176.44" xlink:href="#Degradado_sin_nombre_6"/><linearGradient id="Degradado_sin_nombre_6-25" x1="296.25" y1="107.25" x2="306.18" y2="142.71" xlink:href="#Degradado_sin_nombre_6"/><linearGradient id="Degradado_sin_nombre_6-26" x1="287.89" y1="126.64" x2="295.68" y2="154.42" xlink:href="#Degradado_sin_nombre_6"/><linearGradient id="Degradado_sin_nombre_6-27" x1="294.92" y1="170.73" x2="300.2" y2="189.6" xlink:href="#Degradado_sin_nombre_6"/><linearGradient id="Degradado_sin_nombre_6-28" x1="563.16" y1="162.71" x2="519.36" y2="169.55" xlink:href="#Degradado_sin_nombre_6"/><linearGradient id="Degradado_sin_nombre_6-29" x1="532.76" y1="117.12" x2="495.9" y2="122.88" xlink:href="#Degradado_sin_nombre_6"/><linearGradient id="Degradado_sin_nombre_6-30" x1="555.85" y1="93.67" x2="511.4" y2="100.61" xlink:href="#Degradado_sin_nombre_6"/><linearGradient id="Degradado_sin_nombre_6-31" x1="557.79" y1="109.03" x2="513.43" y2="115.96" xlink:href="#Degradado_sin_nombre_6"/><linearGradient id="Degradado_sin_nombre_6-32" x1="560.68" y1="88.36" x2="514.95" y2="95.5" xlink:href="#Degradado_sin_nombre_6"/><linearGradient id="Degradado_sin_nombre_6-33" x1="406.43" y1="63.47" x2="384.88" y2="113.16" xlink:href="#Degradado_sin_nombre_6"/><linearGradient id="Degradado_sin_nombre_6-34" x1="332.33" y1="63.9" x2="341.63" y2="84.21" xlink:href="#Degradado_sin_nombre_6"/><linearGradient id="Degradado_sin_nombre_6-35" x1="362.1" y1="127.62" x2="362.12" y2="127.65" xlink:href="#Degradado_sin_nombre_6"/><linearGradient id="Degradado_sin_nombre_19-4" x1="401.21" y1="-58.67" x2="345.05" y2="50.11" xlink:href="#Degradado_sin_nombre_19"/><linearGradient id="Degradado_sin_nombre_6-36" x1="136.84" y1="454.76" x2="230.49" y2="588.14" xlink:href="#Degradado_sin_nombre_6"/><linearGradient id="Degradado_sin_nombre_6-37" x1="164.68" y1="700.22" x2="269.7" y2="674.66" xlink:href="#Degradado_sin_nombre_6"/><linearGradient id="Degradado_sin_nombre_21-24" x1="391.36" y1="255.54" x2="391.57" y2="256.14" xlink:href="#Degradado_sin_nombre_21"/><linearGradient id="Degradado_sin_nombre_21-25" x1="395.07" y1="242.9" x2="397.69" y2="250.5" xlink:href="#Degradado_sin_nombre_21"/><linearGradient id="Degradado_sin_nombre_21-26" x1="393.21" y1="253.23" x2="393.62" y2="254.43" xlink:href="#Degradado_sin_nombre_21"/><linearGradient id="Degradado_sin_nombre_21-27" x1="390.25" y1="241.05" x2="392.74" y2="248.25" xlink:href="#Degradado_sin_nombre_21"/><linearGradient id="Degradado_sin_nombre_21-28" x1="406.58" y1="247.11" x2="397.4" y2="254.89" xlink:href="#Degradado_sin_nombre_21"/><linearGradient id="Degradado_sin_nombre_21-29" x1="404.92" y1="251.16" x2="399.62" y2="256.75" xlink:href="#Degradado_sin_nombre_21"/><linearGradient id="Degradado_sin_nombre_6-38" x1="352.67" y1="274.59" x2="363.61" y2="269.73" xlink:href="#Degradado_sin_nombre_6"/><linearGradient id="Degradado_sin_nombre_6-39" x1="363.7" y1="267.99" x2="388.58" y2="254.21" xlink:href="#Degradado_sin_nombre_6"/><linearGradient id="Degradado_sin_nombre_6-40" x1="327.83" y1="272.19" x2="328.31" y2="272.07" xlink:href="#Degradado_sin_nombre_6"/><linearGradient id="Degradado_sin_nombre_6-41" x1="271.14" y1="275.13" x2="371.2" y2="250.78" xlink:href="#Degradado_sin_nombre_6"/><linearGradient id="Degradado_sin_nombre_6-42" x1="276.26" y1="264.79" x2="327.1" y2="262.8" xlink:href="#Degradado_sin_nombre_6"/><linearGradient id="Degradado_sin_nombre_6-43" x1="264.13" y1="258.33" x2="284.55" y2="257.53" xlink:href="#Degradado_sin_nombre_6"/><linearGradient id="Degradado_sin_nombre_6-44" x1="277.73" y1="272.8" x2="302.15" y2="271.84" xlink:href="#Degradado_sin_nombre_6"/><linearGradient id="Degradado_sin_nombre_6-45" x1="315.48" y1="276.43" x2="326.99" y2="275.98" xlink:href="#Degradado_sin_nombre_6"/><linearGradient id="Degradado_sin_nombre_21-30" x1="338.84" y1="235.76" x2="341.81" y2="244.35" xlink:href="#Degradado_sin_nombre_21"/><linearGradient id="Degradado_sin_nombre_21-31" x1="344.09" y1="237.56" x2="346.52" y2="244.59" xlink:href="#Degradado_sin_nombre_21"/><linearGradient id="Degradado_sin_nombre_21-32" x1="345.79" y1="230.98" x2="346.02" y2="231.64" xlink:href="#Degradado_sin_nombre_21"/><linearGradient id="Degradado_sin_nombre_21-33" x1="343.6" y1="232.77" x2="344.08" y2="234.16" xlink:href="#Degradado_sin_nombre_21"/><linearGradient id="Degradado_sin_nombre_21-34" x1="346.77" y1="226.37" x2="336.66" y2="234.94" xlink:href="#Degradado_sin_nombre_21"/><linearGradient id="Degradado_sin_nombre_21-35" x1="341.77" y1="225.77" x2="335.85" y2="232" xlink:href="#Degradado_sin_nombre_21"/><linearGradient id="Degradado_sin_nombre_6-46" x1="340.64" y1="229.42" x2="378.91" y2="216.14" xlink:href="#Degradado_sin_nombre_6"/><linearGradient id="Degradado_sin_nombre_6-47" x1="377.89" y1="216.74" x2="352.92" y2="229.76" xlink:href="#Degradado_sin_nombre_6"/><linearGradient id="Degradado_sin_nombre_6-48" x1="413.87" y1="210.16" x2="414.15" y2="210.17" xlink:href="#Degradado_sin_nombre_6"/><linearGradient id="Degradado_sin_nombre_6-49" x1="364.83" y1="216.86" x2="440.79" y2="217.53" xlink:href="#Degradado_sin_nombre_6"/><linearGradient id="Degradado_sin_nombre_6-50" x1="345.57" y1="210.49" x2="369.25" y2="216.19" xlink:href="#Degradado_sin_nombre_6"/><linearGradient id="Degradado_sin_nombre_6-51" x1="584.06" y1="210.35" x2="609.6" y2="207.49" xlink:href="#Degradado_sin_nombre_6"/><linearGradient id="Degradado_sin_nombre_6-52" x1="550.21" y1="197.14" x2="577.29" y2="194.1" xlink:href="#Degradado_sin_nombre_6"/><linearGradient id="Degradado_sin_nombre_6-53" x1="505.31" y1="195.65" x2="533.89" y2="192.45" xlink:href="#Degradado_sin_nombre_6"/><linearGradient id="Degradado_sin_nombre_2-4" x1="62.09" y1="651.52" x2="61.44" y2="642.49" xlink:href="#Degradado_sin_nombre_2"/><linearGradient id="Degradado_sin_nombre_2-5" x1="298.46" y1="746.45" x2="297.13" y2="727.87" xlink:href="#Degradado_sin_nombre_2"/><linearGradient id="Degradado_sin_nombre_2-6" x1="629.78" y1="692" x2="628.95" y2="680.43" xlink:href="#Degradado_sin_nombre_2"/><linearGradient id="Degradado_sin_nombre_2-9" x1="672.76" y1="651.48" x2="671.87" y2="638.96" xlink:href="#Degradado_sin_nombre_2"/><linearGradient id="Degradado_sin_nombre_2-11" x1="658.05" y1="589.53" x2="657.33" y2="579.42" xlink:href="#Degradado_sin_nombre_2"/><linearGradient id="Degradado_sin_nombre_6-54" x1="49.21" y1="652.15" x2="48.57" y2="643.25" xlink:href="#Degradado_sin_nombre_6"/><linearGradient id="Degradado_sin_nombre_2-12" x1="94.9" y1="697.05" x2="94" y2="684.45" xlink:href="#Degradado_sin_nombre_2"/><linearGradient id="Degradado_sin_nombre_6-55" x1="78.89" y1="685.51" x2="132.43" y2="652.29" xlink:href="#Degradado_sin_nombre_6"/><linearGradient id="Degradado_sin_nombre_6-56" x1="258.64" y1="725.3" x2="315.88" y2="689.78" xlink:href="#Degradado_sin_nombre_6"/><linearGradient id="Degradado_sin_nombre_6-57" x1="592.31" y1="677.23" x2="630.99" y2="653.23" xlink:href="#Degradado_sin_nombre_6"/><linearGradient id="Degradado_sin_nombre_6-58" x1="643.51" y1="634.14" x2="675.17" y2="614.5" xlink:href="#Degradado_sin_nombre_6"/><linearGradient id="Degradado_sin_nombre_23" x1="200.87" y1="755.43" x2="181.74" y2="665.39" gradientUnits="userSpaceOnUse"><stop offset="0" stop-color="#2c3a0a"/><stop offset="0.97" stop-color="#4a5b20"/></linearGradient><linearGradient id="Degradado_sin_nombre_23-2" x1="393.77" y1="714.47" x2="374.65" y2="624.42" xlink:href="#Degradado_sin_nombre_23"/><linearGradient id="Degradado_sin_nombre_23-3" x1="214.67" y1="752.5" x2="195.54" y2="662.46" xlink:href="#Degradado_sin_nombre_23"/><linearGradient id="Degradado_sin_nombre_23-4" x1="294.67" y1="735.51" x2="275.55" y2="645.46" xlink:href="#Degradado_sin_nombre_23"/><linearGradient id="Degradado_sin_nombre_23-5" x1="412.14" y1="710.56" x2="393.02" y2="620.52" xlink:href="#Degradado_sin_nombre_23"/><linearGradient id="Degradado_sin_nombre_23-6" x1="566.52" y1="677.77" x2="547.39" y2="587.73" xlink:href="#Degradado_sin_nombre_23"/><linearGradient id="Degradado_sin_nombre_23-7" x1="504.6" y1="690.92" x2="485.47" y2="600.88" xlink:href="#Degradado_sin_nombre_23"/><linearGradient id="Degradado_sin_nombre_23-8" x1="607.08" y1="669.16" x2="587.95" y2="579.11" xlink:href="#Degradado_sin_nombre_23"/><linearGradient id="Degradado_sin_nombre_23-9" x1="603.05" y1="670.01" x2="583.93" y2="579.97" xlink:href="#Degradado_sin_nombre_23"/><linearGradient id="Degradado_sin_nombre_23-10" x1="565.65" y1="677.96" x2="546.53" y2="587.91" xlink:href="#Degradado_sin_nombre_23"/><linearGradient id="Degradado_sin_nombre_2-13" x1="469.56" y1="739.99" x2="467.99" y2="717.97" xlink:href="#Degradado_sin_nombre_2"/><linearGradient id="Degradado_sin_nombre_6-59" x1="415.18" y1="712.98" x2="457.7" y2="686.6" xlink:href="#Degradado_sin_nombre_6"/><linearGradient id="Degradado_sin_nombre_23-11" x1="348.24" y1="542.2" x2="323.83" y2="427.27" xlink:href="#Degradado_sin_nombre_23"/><linearGradient id="Degradado_sin_nombre_23-12" x1="278.09" y1="611.25" x2="254.63" y2="500.78" xlink:href="#Degradado_sin_nombre_23"/><linearGradient id="Degradado_sin_nombre_23-13" x1="209.01" y1="485.5" x2="208.98" y2="485.36" xlink:href="#Degradado_sin_nombre_23"/><linearGradient id="Degradado_sin_nombre_23-14" x1="209.38" y1="541.45" x2="197.99" y2="487.84" xlink:href="#Degradado_sin_nombre_23"/><linearGradient id="Degradado_sin_nombre_23-15" x1="442.35" y1="579.84" x2="427.71" y2="510.93" xlink:href="#Degradado_sin_nombre_23"/><linearGradient id="Degradado_sin_nombre_23-16" x1="427.4" y1="459.21" x2="445.91" y2="481.98" xlink:href="#Degradado_sin_nombre_23"/><linearGradient id="Degradado_sin_nombre_23-17" x1="522.78" y1="476.75" x2="535.29" y2="492.13" xlink:href="#Degradado_sin_nombre_23"/><linearGradient id="Degradado_sin_nombre_23-18" x1="550.73" y1="523.98" x2="559.9" y2="535.26" xlink:href="#Degradado_sin_nombre_23"/><linearGradient id="Degradado_sin_nombre_23-19" x1="538.78" y1="537.46" x2="547.08" y2="547.66" xlink:href="#Degradado_sin_nombre_23"/><linearGradient id="Degradado_sin_nombre_23-20" x1="506.45" y1="617.87" x2="486" y2="563.42" xlink:href="#Degradado_sin_nombre_23"/><linearGradient id="Degradado_sin_nombre_23-21" x1="519.12" y1="613.11" x2="498.67" y2="558.66" xlink:href="#Degradado_sin_nombre_23"/><linearGradient id="Degradado_sin_nombre_6-60" x1="362.26" y1="173.47" x2="362.26" y2="173.48" xlink:href="#Degradado_sin_nombre_6"/><linearGradient id="Degradado_sin_nombre_6-61" x1="360.4" y1="169.22" x2="360.4" y2="176.52" xlink:href="#Degradado_sin_nombre_6"/></defs><title>earth_guardian1</title><g id="Layer_2" data-name="Layer 2"><g id="Capa_2" data-name="Capa 2"><polygon class="cls-1" points="230.56 376.13 281.44 335.89 322.25 261.41 270.47 293.32 289.43 292.99 249.19 321.59 258.83 322.59 227.9 351.85 252.84 344.2 210.94 386.44 230.56 376.13"/><polygon class="cls-2" points="393.85 258.09 434.66 332.57 485.54 372.81 505.16 383.11 463.26 340.88 488.2 348.53 457.27 319.26 466.92 318.27 426.68 289.67 445.63 290 393.85 258.09"/><path class="cls-3" d="M149.66,583.9l-26.83-11.39c-1.6.36-60.33,6.57-60.33,6.57s53,18,62.19,16.19S149.66,583.9,149.66,583.9Z"/><path class="cls-4" d="M122.83,572.51c-1.6.36-60.33,6.57-60.33,6.57s26.76,9.07,45.55,13.69l21.45-17.43Z"/><path class="cls-5" d="M596.91,557.52c-13-36.44-18.93-77-18.93-77s-35.71-41.22-52-70.29-75.47-90.5-76-92.64-81.66,15.1-81.66,15.1l-102.47,65.1s-67.07,50.51-98.76,110.35-22.48,75.47-41.37,88.31-66.8,16-66.8,16,35.35,10.92,58.21,10.39,27.62.64,27.62.64-25.26,12.17-23.15,12.75,56.2,5.56,60.46,5.13,332.64-22.54,332.64-22.54L609,631.66l-11.31-16.2,60.61-1.25S609.87,594,596.91,557.52Z"/><path class="cls-6" d="M572.58,593.69c-18.58-49.81-67.05-214-113.79-273.43s-91.86-92.5-91.86-92.5l-23.49,5.78S232.18,318.7,204.84,428.82s-42.31,213.81-60.43,223.1-27.9,12.71-27.9,12.71l87.22,10-36.07,20.19s7.26,12.14,56.11,14,82.51-.39,107.24,4.28-31.2-21-31.2-21,47.76,2.33,98.7,4.84,64.24,20.33,120.27,17.83,59.83-3.88,59.83-3.88-38.42-7.08-66.46-18.87-27-19.71-27-19.71l95.48,5.17-14-23.45,36.59,2.18S591.16,643.49,572.58,593.69Z"/><path class="cls-7" d="M458.79,320.26c-44.23-56.28-87-88.88-91.47-92.21h-1.58l-22.3,5.48s-3.17,2.43-8.54,7c10.36,19.68,31.18,57.67,45.81,74.18,20.19,22.79,74.53,119.7,74.53,119.7s-46.63-17-60.73-62c0,0,15.93,68.92,59,100.21s57.62,58.73,76.07,87.86c15.91,25.12,40.81,71.79,69.22,89.77-5.07-7.82-14.31-24.5-26.26-56.55-4.28-11.47-10.15-29-17.21-50C533,517.48,509.75,488,493.66,461.59c-41.46-67.92-60.33-113-79.49-146.12a470.29,470.29,0,0,0-40.09-58.33s50.76,45,69.64,90.1,72.9,121.26,72.9,121.26L467.15,367.71,528.23,466C507.53,409.6,482.93,351,458.79,320.26Z"/><path class="cls-8" d="M489.67,598.59c24.91,26.1,52.32,57.2,70.12,77.74l20.47,1.1c-4.1-6.2-8.65-13.89-13.68-23.43C533.07,590.46,437,496.93,400.25,433.91S359.5,267.17,359.5,267.17l-1.12-37.3-14.94,3.67S232.18,318.7,204.84,428.82c-26.47,106.65-41.35,207.26-58.72,221.94a288.89,288.89,0,0,0,29.41,20.63l28.2,3.24-11.81,6.61c16.43,9.52,34.53,19.09,52.62,28.17,37.87.75,65.41-.29,86.48,3.69,24.73,4.67-31.21-21-31.21-21s47.76,2.33,98.7,4.84,64.24,20.33,120.27,17.83,59.83-3.88,59.83-3.88-38.42-7.08-66.46-18.87-27-19.71-27-19.71l2.28.12c-62-45.64-109.35-209.52-109.35-209.52C399,522.35,448.43,555.39,489.67,598.59Z"/><path class="cls-8" d="M489.67,598.59c24.91,26.1,52.32,57.2,70.12,77.74l20.47,1.1c-4.1-6.2-8.65-13.89-13.68-23.43C533.07,590.46,437,496.93,400.25,433.91S359.5,267.17,359.5,267.17l-1.12-37.3-14.94,3.67S232.18,318.7,204.84,428.82c-26.47,106.65-41.35,207.26-58.72,221.94a288.89,288.89,0,0,0,29.41,20.63l28.2,3.24-11.81,6.61c16.43,9.52,34.53,19.09,52.62,28.17,37.87.75,65.41-.29,86.48,3.69,24.73,4.67-31.21-21-31.21-21s47.76,2.33,98.7,4.84,64.24,20.33,120.27,17.83,59.83-3.88,59.83-3.88-38.42-7.08-66.46-18.87-27-19.71-27-19.71l2.28.12c-62-45.64-109.35-209.52-109.35-209.52C399,522.35,448.43,555.39,489.67,598.59Z"/><path class="cls-9" d="M309.13,264a491.68,491.68,0,0,0-52.62,60.28c-2.92,96.8-6.67,311.57-7.91,385.2,35.79.61,62.11-.22,82.42,3.62,24.73,4.67-31.21-21-31.21-21l58.39,2.86c-9.87-44.54-.07-95.42-.07-95.42,6.37,34.29,17.57,68.68,28.28,96.8l12.1.6a200.47,200.47,0,0,1,39.69,5.88c-47.81-34.44-52.29-102.29-56.68-149-5.11-54.32-49.59-129.49-54.34-165.47s38.29-137.79,38.29-137.79Z"/><path class="cls-10" d="M341,235.43c-16.26,13.06-111.23,92.8-136.2,193.39-26.16,105.39-41,204.87-58.1,221.37l-3.61,17.49,60.6,7-36.07,20.19s7.26,12.14,56.11,14,82.51-.39,107.25,4.28c7.83,1.48,7.56-.09,3.55-2.93-13.63-7.39-27.06-14.5-34.76-18.1-20.09-9.37,18.6-98.26,18.6-98.26l-20.3,16.26L312.54,503.6l9.16,17.75c1.11-47.8-15.82-108-17.38-143.88s55.79-136.59,55.79-136.59Z"/><path class="cls-11" d="M343.72,233.47l-.28.07S232.18,318.7,204.84,428.82s-42.31,213.81-60.43,223.1-27.9,12.71-27.9,12.71l82.3,9.43c32.78-20.12,66.51-131.45,59.82-182.88-6.76-52,27.28-110.15,27.28-110.15l-16.1,6.8c25.42-64.77,81.61-150.34,81.61-150.34Z"/><path class="cls-12" d="M357.34,257.15c28.92-9.69,10-27.46,10-27.46l-22.5,1.66s-68.46,81.7-77.18,114.18l3.31-5.5S328.42,266.84,357.34,257.15Z"/><path class="cls-13" d="M277.69,143.71c5.56,17.86,25.14,32.66,25.14,32.66C294,146.28,277.69,143.71,277.69,143.71Z"/><path class="cls-14" d="M286.23,153.37c6.48,4,13.73,17,16.38,22.84l.22.16c-8.86-30.09-25.14-32.66-25.14-32.66.19.62.41,1.24.63,1.85A27.76,27.76,0,0,0,286.23,153.37Z"/><path class="cls-15" d="M439.39,137.56c-14.32,12-20.4,35.82-20.4,35.82C443.32,153.57,439.39,137.56,439.39,137.56Z"/><path class="cls-16" d="M439.39,137.56c-.5.42-1,.86-1.46,1.3a27.81,27.81,0,0,0-4.15,10.32c-1.22,7.54-10.41,19.25-14.72,23.94-.05.17-.07.26-.07.26C443.32,153.57,439.39,137.56,439.39,137.56Z"/><path class="cls-17" d="M441.64,153c-9.69,16-7.79,40.48-7.79,40.48C450.51,166.86,441.64,153,441.64,153Z"/><path class="cls-18" d="M433.85,193.45c16.66-26.59,7.79-40.48,7.79-40.48-.34.55-.66,1.12-1,1.7a27.63,27.63,0,0,0-.6,11.1c1.26,7.53-3.67,21.58-6.24,27.4C433.84,193.35,433.85,193.45,433.85,193.45Z"/><path class="cls-19" d="M280.24,182.42c8.51,11.25,26.17,16.76,26.17,16.76C292.45,180.09,280.24,182.42,280.24,182.42Z"/><path class="cls-20" d="M306.22,199.11l.19.07c-14-19.09-26.17-16.76-26.17-16.76.3.39.61.78.93,1.15a21,21,0,0,0,7.6,3.53C294.4,188.31,302.86,195.69,306.22,199.11Z"/><path class="cls-21" d="M281.23,199.39c11.22,4.77,26.83,1.28,26.83,1.28C289.37,192.38,281.23,199.39,281.23,199.39Z"/><path class="cls-22" d="M289.64,199.22c4.74-1.52,14.26.36,18.25,1.49l.17,0c-18.69-8.29-26.83-1.28-26.83-1.28.39.16.79.32,1.19.46A18.12,18.12,0,0,0,289.64,199.22Z"/><path class="cls-23" d="M298.57,94c-2.38-.46,27.58,47.87,27.58,47.87l-23-20.47,18.4,31.12,5.3,11.88c1.61-.36,67.84,5,67.84,5L436.21,139l-34.59,5.17L433.16,116l-42.72,20.53,15.26-30.73-26.42,30.67,6.26-26.23-22.65,37.2L349.71,140s-23.25-45.37-24.25-45.2,8.89,37.27,8.89,37.27l-12.43-22.4,8.67,29.69S301,94.43,298.57,94Z"/><path class="cls-24" d="M553.73,450.12c13.39,18.68-49.5-91-83.68-102.43l-15.53,18.44s30.26,42.39,51.24,51.39l-10.65-17.08S540.34,431.44,553.73,450.12Z"/><path class="cls-25" d="M404.31,303.11l15.13,38.38,4.1-18.56,16.28,36.44,3.33-15.08,12.79,29.1,3.33-15.08,16.29,40.83c2.44-9.93,2.92-36.34,2.92-36.34l18.07,28.32L491.64,365c-5-5.84-10-11.57-14.74-16.92-.08-.16-.17-.31-.26-.47l-1.19-2.08c-.35-.6-.69-1.2-1-1.79s-.8-1.36-1.2-2l-1-1.73c-.4-.67-.81-1.32-1.21-2l-1-1.65-1.23-1.93c-.34-.52-.67-1.05-1-1.56s-.85-1.28-1.27-1.91-.64-1-1-1.45c-.45-.65-.89-1.29-1.34-1.92l-.9-1.3c-.48-.68-1-1.35-1.46-2-.26-.35-.51-.71-.77-1.05-.73-1-1.45-1.93-2.18-2.86l0-.06-2.13-2.7-.66-.82-1.47-1.84-.82-1c-.44-.54-.87-1.08-1.31-1.61l-.88-1.08-1.24-1.51-.91-1.1-1.21-1.46-.92-1.09-1.2-1.42-.91-1.08-1.2-1.41-.9-1.06-1.19-1.38-.91-1.05-1.18-1.36-.9-1-1.2-1.36c-.28-.33-.57-.65-.86-1-.4-.47-.81-.92-1.22-1.38l-.84-.94-1.23-1.36-.81-.9L431.43,288l-.77-.84-1.32-1.44-.68-.74-1.42-1.54c-.2-.2-.39-.41-.58-.61-.53-.58-1.06-1.14-1.59-1.7l-.39-.42q-3-3.19-5.94-6.2l-.05-.05c-.62-.65-1.24-1.28-1.86-1.91l-.34-.35-1.55-1.57-.45-.46c-.48-.47-.95-.95-1.42-1.42l-.5-.5-1.37-1.36c-.16-.17-.33-.33-.49-.49l-1.33-1.31-.52-.51-1.28-1.26-.53-.51-1.27-1.23-.49-.47L404,259.85l-.48-.46-1.26-1.2-.45-.43c-.43-.4-.85-.81-1.28-1.2l-.39-.37-1.3-1.22-.36-.34-1.34-1.24-.27-.25-1.41-1.3-.18-.16-1.53-1.39c-17.25-8.76-29.18-13.92-29.18-13.92l-13.24,11.86L359,264.91s27,33.78,27.89,35.2-1.76-15.72-1.76-15.72L401,313.81Z"/><path class="cls-26" d="M463.74,327c-.16-.24-.32-.48-.49-.71-.48-.68-1-1.35-1.46-2-.26-.35-.51-.71-.77-1.05-.73-1-1.45-1.93-2.18-2.86l0-.06-2.13-2.7-.66-.82-1.47-1.84-.82-1c-.44-.54-.87-1.08-1.31-1.61l-.88-1.08-1.24-1.51-.91-1.1-1.21-1.46-.92-1.09-1.2-1.42-.91-1.08-1.2-1.41-.9-1.06-1.19-1.38-.91-1.05-1.18-1.36-.9-1-1.2-1.36c-.28-.33-.57-.65-.86-1-.4-.47-.81-.92-1.22-1.38l-.84-.94-1.23-1.36-.81-.9L431.43,288l-.77-.84-1.32-1.44-.68-.74-1.42-1.54c-.2-.2-.39-.41-.58-.61-.53-.58-1.06-1.14-1.59-1.7l-.39-.42q-3-3.19-5.94-6.2l-.05-.05c-.62-.65-1.24-1.28-1.86-1.91l-.34-.35-1.55-1.57-.45-.46c-.48-.47-.95-.95-1.42-1.42l-.5-.5-1.37-1.36c-.16-.17-.33-.33-.49-.49l-1.33-1.31-.52-.51-1.28-1.26-.53-.51-1.27-1.23-.49-.47L404,259.85l-.48-.46-1.26-1.2-.45-.43c-.43-.4-.85-.81-1.28-1.2l-.39-.37-1.3-1.22-.36-.34-1.34-1.24-.27-.25-1.41-1.3-.18-.16q-5.6-5.13-10.29-9.18l0,0-7.09,11.13L390,275.5s1.2-15.92,2-15.85.71,2.83,5,16.55,9.82,18.34,9.82,18.34l-1.74-17.81a167.88,167.88,0,0,0,9.23,25.79c6.07,13.26,13.42,19.63,13.42,19.63l-3.56-15.26,13.95,27.17c4.82-7,1-17.79,1-17.79L455,349c3.92-8.38-1.85-30.21-1.85-30.21l13.12,29.29C468.05,342.55,466.12,334.06,463.74,327Z"/><path class="cls-27" d="M450.28,309.69l-.91-1.1-.12-.14,1.13,2.53c.09-.29.17-.58.24-.88Z"/><path class="cls-28" d="M440.16,297.76l-.41-.48-.9-1-1.2-1.36c-.28-.33-.57-.65-.86-1-.4-.47-.81-.92-1.22-1.38l-.84-.94-1.23-1.36-.81-.9L431.43,288l-.77-.84-1.32-1.44-.68-.74-1.42-1.54c-.2-.2-.39-.41-.58-.61-.53-.58-1.06-1.14-1.59-1.7l-.39-.42q-3-3.19-5.94-6.2l-.05-.05c-.62-.65-1.24-1.28-1.86-1.91l-.34-.35-1.55-1.57-.45-.46c-.48-.47-.95-.95-1.42-1.42l-.5-.5-1.37-1.36c-.16-.17-.33-.33-.49-.49l-1.33-1.31-.52-.51-1.28-1.26-.53-.51-1.27-1.23-.49-.47L404,259.85l-.48-.46-1.26-1.2-.45-.43c-.43-.4-.85-.81-1.28-1.2l-.39-.37-1.3-1.22-.36-.34-1.34-1.24-.27-.25-1.41-1.3-.18-.16c-1.19-1.1-2.35-2.14-3.48-3.16a167.21,167.21,0,0,0,6.58,16.92c6.07,13.26,13.42,19.63,13.42,19.63l-3.56-15.27L422.21,297c4.82-7,1-17.78,1-17.78l15.89,32.7C440.67,308.57,440.69,303.12,440.16,297.76Z"/><path class="cls-29" d="M373.84,233.14l0,0-.84-.67h0c-1.37-1.1-2.53-2-3.45-2.72l-.07-.05-.32-.25,5,9s.16-2.09.4-4.75Z"/><path class="cls-30" d="M389.87,246.77q-2.55-2.27-4.86-4.27l-.07-.06-1.23-1.06-.14-.12-1.12-1-.16-.14-1.05-.89-.13-.11c4.27,13.68,9.8,18.3,9.8,18.3Z"/><path class="cls-31" d="M260,368.48l-22.32-12.75c-29.74,24.44-51.53,158.84-45.15,134.94s39.84-72.25,39.84-72.25l-4.25,21.25C245.64,422.67,260,368.48,260,368.48Z"/><path class="cls-32" d="M332.05,301c.73-1.51,23.65-38.18,23.65-38.18l3.36-10.4-.27-8.84-12-8.46s-7.89,4.55-19.92,12.3c-25,22.22-72.78,69.38-102.38,128.87a30.5,30.5,0,0,0,.15,5.69l11.94-21.47-3.06,43.53,14.7-30.21s3.52,26.18,7.08,35.76l11.48-42.43,5,14.6,9.36-30.39,5,14.6,12-38.07,6.21,18L315.05,306l4.54,10.24L332,285.2S331.31,302.52,332.05,301Z"/><path class="cls-33" d="M305.06,306.57a169.11,169.11,0,0,0,6.19-26.68l.32,17.89s5-5.24,7.64-19.36,2.22-16.85,3.05-17,3.85,15.51,3.85,15.51l9.47-23.13-6.64-8.16c-19.65,17.23-55.65,51.8-84.81,96.55A30.56,30.56,0,0,0,243,354.92l19.45-31.73s-8.53,24.06-3.75,34.6l9.65-30.61s-3.21,22.35,1.65,30.23l12-34.32s-2.55,11.18,3.05,17.55L295.77,312,294,327.61S300.55,320.44,305.06,306.57Z"/><path class="cls-34" d="M316.58,267.9c.67-2.08,1.28-4.13,1.83-6.12L309.13,264c-9.18,9-19.5,19.72-30.05,32-.51,7.24-.63,17.85,2.41,22.78l12-34.32S291,295.6,296.56,302l10.73-28.6-1.79,15.57S312.07,281.77,316.58,267.9Z"/><path class="cls-35" d="M268.81,308.29c-.23,4.11.08,8,1.38,10.83l6.38-20.22C274,301.94,271.39,305.08,268.81,308.29Z"/><path class="cls-36" d="M376.27,141.22l-14.39,2.26-14.26-2.93s-22.23,5-33.91,13.7c0,0,29,101.22,45.09,121.47,17-19.48,50.7-119.24,50.7-119.24C398.24,147.25,376.27,141.22,376.27,141.22Z"/><path class="cls-37" d="M396.44,164.27s6.59-3.6,8.08-4.68c.85-.61,2.82-1.1,4.55-1.82l.43-1.29c-11.26-9.23-33.23-15.26-33.23-15.26l-14.39,2.26-14.26-2.93s-22.23,5-33.91,13.7c0,0,.5,1.76,1.41,4.86a46.27,46.27,0,0,0,9.17,5.61c9.34,4.07,9.19,3.27,9.19,3.27l1.2,8.79.19-8.23,2.69.6,2.95,12-1.31-12.25,1.6-.1,1.78,9.08,1.74-.36,1.71,12-.39-13.83-1.81,0-.91-6.66,6,.53,1.25,7.47.16-7,10.6,8.36,15.54-8L373,190.16l5.65-20.06,6.27-.91L383.83,175l-1.61.76-2,4.6,1.2.16-1,3,2.91-4.85-1.47.24,1.66-2.89,2.56-.6.8-6.89,7-2.86-2.41,15.45Z"/><path class="cls-38" d="M348.89,140.78c-.94.71-6.86,20.77-14.87,22.57L360.9,173l27.3-8.66s-11.53-12.76-12.83-19.43-3.7-1-3.7-1l8.2,18.66-3.1,1.92-4.17-14.71-10.53-1.51-13.7,15L352.51,151l-11.06,12.76,8.66-18.13Z"/><path class="cls-39" d="M275.72,10.9A17.11,17.11,0,0,1,260.2,7.4s.37,2.36,3,15a27.81,27.81,0,0,0,9.94,15.76l-7.28-5s5.42,17.63,11.56,21.69S285,68.6,285,68.6c-1.78-4-11.72-5.76-11.72-5.76s.57,2.36,6.79,12.17,25.86,14.72,25.86,14.72l-5.82.12,26,22.16-5.45-2.87s4.88,4.82,13.79,15.22a181,181,0,0,0,20.14,19.54l7.41-4.83,7.17,5.17a181.75,181.75,0,0,0,21-18.58c9.38-10,14.48-14.56,14.48-14.56l-5.58,2.62,27-20.93-5.82-.4s19.86-4,26.52-13.49,7.35-11.85,7.35-11.85-10,1.33-12,5.21c0,0,1.88-9.63,8.21-13.4s12.56-21.13,12.56-21.13l-7.5,4.64A27.79,27.79,0,0,0,466.1,27.09c3.2-12.47,3.67-14.81,3.67-14.81a17.09,17.09,0,0,1-15.66,2.77,35.37,35.37,0,0,0-18.3-.16L451.24,4a249.59,249.59,0,0,0-26,1.75c-15,1.74-29.49,16.29-29.49,16.29l4.84-11.38L378.19,24l2-4.66s-8,1-15.66,10.82C357.3,20,349.37,18.62,349.37,18.62l1.76,4.75L329.42,9l4.31,11.6S319.94,5.39,305,3A251.61,251.61,0,0,0,279.1,0L294,11.58A35.39,35.39,0,0,0,275.72,10.9Z"/><path class="cls-40" d="M298.41,60.89,318.5,88.46,302.29,76.93c3.36,15.48,24.09,26.6,24.09,26.6l-18.95-7.89.91,1.24L326.09,112l-5.45-2.87s4.88,4.82,13.79,15.22a181,181,0,0,0,20.14,19.54l7.41-4.83,7.17,5.17a181.75,181.75,0,0,0,21-18.58c6.36-6.77,10.75-11,12.91-13.1-.6,0-1.17.06-1.7.07l-2.31,1.09,1.38-1.07c-2.46,0-3.45-.3-.4-1.3,8.3-2.73,19.23-15.49,19.23-15.49l-7.67-1.51c8.32-3.79,18.68-15,18.68-15l-6.89-.69c9.48-7.75,7.13-21.09,7.13-21.09-2.58,8.17-26.22,19.05-26.22,19.05l7.18-11.53c-10-2.36-24.72,11.65-24.72,11.65l2.32-8.18C372.24,70.84,368.15,84,367.72,86c0-1.51-2.2-8.88-2.2-8.88L361,87.33c-2.12-11.48-19.61-24.9-19.61-24.9l1.07,11.18c-4.81-10.47-19.93-22.78-19.93-22.78l-.23,9.82C314.4,47.45,302.68,49,302.68,49c8.57,8.17,7.5,20.1,7.5,20.1Z"/><path class="cls-41" d="M334.51,75.19c1.86.86,6.33,30.86,8.53,47.37s3.18,34.91,3.18,34.91l12,28.6,1.88,0,1.29,0,1.88,0,13.33-28s1.84-18.34,4.81-34.73,8.82-46.14,10.72-46.92c0,0-6.09,1.57-8.49,6.45s-4.91,14.29-4.91,14.29l.93-9.86-4.39,7.1c-3.68,5.94-10.91,26.64-13.16,33.23-1.95-6.68-8.21-27.7-11.6-33.8l-4.06-7.3.47,9.89S344.87,87,342.69,82,334.51,75.19,334.51,75.19Z"/><path class="cls-42" d="M352.2,157.3a13.31,13.31,0,0,0-6.09-1.66l.11,1.83,11.89,28.29c-.46-3.07-1.44-9.31-2.12-11.83-.91-3.41-5.46-9.3-5.46-9.3l7.33,2S357.21,160,352.2,157.3Z"/><path class="cls-43" d="M362.53,186.17h.75l13.33-28s.07-.65.19-1.8a13.12,13.12,0,0,0-7,1.33c-5.14,2.47-6.09,9-6.09,9l7.41-1.62s-4.81,5.67-5.89,9C364.43,176.72,363.11,183.25,362.53,186.17Z"/><path class="cls-44" d="M352.66,158.74c-3.82-.59-4.46,1.24-4.46,1.24,1.45,6.11,8.86,6.53,8.86,6.53S356.48,159.32,352.66,158.74Z"/><path class="cls-45" d="M349.63,160.29c.46.17,5.78,4.52,5.78,4.52A5.85,5.85,0,0,0,349.63,160.29Z"/><path class="cls-46" d="M369.88,158.87c-3.85.41-4.76,7.56-4.76,7.56s7.42-.07,9.16-6.11C374.28,160.32,373.72,158.46,369.88,158.87Z"/><path class="cls-45" d="M366.85,164.81s5.51-4.1,6-4.24A5.84,5.84,0,0,0,366.85,164.81Z"/><path class="cls-47" d="M341.46,212.05c3.8-.81,6.38-4.64,6.67-8.62s-3-23.58-11.81-19.2c-.28.14-11.35,8.5-10.89,18.38S337.65,212.85,341.46,212.05Z"/><path class="cls-48" d="M332.28,189.12a24.67,24.67,0,0,0-4.38,6.17,18.6,18.6,0,0,0-1,4.81,13.32,13.32,0,0,0-1.39.46,13.91,13.91,0,0,0-.07,2.05c.47,9.87,12.22,10.24,16,9.44s6.38-4.64,6.67-8.62a33.59,33.59,0,0,0-1.2-8.61,10.1,10.1,0,0,0-.06,2.81c.35,2.67.08,4.8-1.38,5.67l-.31-7.91-2.3-8.17s1.64,6.51,1.81,7.76c.13.91.05,5.89-.08,8.66a5.15,5.15,0,0,1-1.81,0,51.69,51.69,0,0,0-.21-5.93,16.41,16.41,0,0,1-1.87-3.44c-.27-1.15.55-2.22.67-2.77s-.72-5.6-.72-5.6.68,5,0,6-.86,2.52.58,5c1,1.67.88,4.8.72,6.59a18.77,18.77,0,0,1-3.47-1.28l.24-6.42s-.35,3.83-.62,6.24l-1.27-.65-.36-.18c.32-2.7,1.08-6.83,1.08-6.83l1,.25.22-.77.24-8-.84,8-1.15,0a61.72,61.72,0,0,0-1.07,7.18,12.46,12.46,0,0,0-1.51-.6,23.83,23.83,0,0,0,.55-4.79c-.15-1.79-2.31-1.05-2.15-1.59s3.83-6.34,3.83-6.34l-.69-.11,3.12-3.89h-.24l-3.94,4.27,1,0s-3.59,4.6-4.41,7.72c-.38,1.44-.66,2.88-.86,4a10.63,10.63,0,0,0-1.13,0l.32-3.13s-.52,1.86-.9,3.18c-.32,0-.64.08-.94.14.15-1.33.46-3.88.62-4.49A71.5,71.5,0,0,1,332.28,189.12Zm.26,5.73s1.15-.32,1.57.54c.24.51,0,2.94-.18,4.8a12.56,12.56,0,0,0-2.59-.5Z"/><path class="cls-49" d="M396.77,204.27c.93-9.84-9.74-18.71-10-18.87C378.2,180.62,374,200.05,374.06,204s2.51,7.93,6.27,8.91S395.85,214.11,396.77,204.27Z"/><path class="cls-50" d="M375.67,195.49a33.36,33.36,0,0,0-1.61,8.55c.11,4,2.51,7.93,6.27,8.91s15.52,1.16,16.44-8.68a12.78,12.78,0,0,0,0-2.05,13.51,13.51,0,0,0-1.37-.53,18.49,18.49,0,0,0-.77-4.84,24.77,24.77,0,0,0-4.09-6.38s3.21,5.56,3.39,6.41c.13.62.32,3.18.41,4.52q-.45-.1-.93-.18c-.32-1.34-.75-3.22-.75-3.22l.17,3.14c-.37,0-.74-.06-1.13-.07-.14-1.15-.35-2.61-.66-4.06-.68-3.15-4.05-7.91-4.05-7.91l1,0-3.73-4.46H384l2.93,4-.69.08s3.39,6,3.53,6.51-2-.3-2.23,1.49a24.45,24.45,0,0,0,.33,4.8c-.5.15-1,.32-1.53.53a68.1,68.1,0,0,0-.73-7.22l-1.16,0-.46-8-.14,8,.18.79,1-.21s.57,4.16.77,6.87l-.37.16c-.46.22-.89.41-1.3.59-.16-2.42-.32-6.26-.32-6.26l-.07,6.42a18.3,18.3,0,0,1-3.52,1.12c-.08-1.79-.05-4.93,1-6.55,1.55-2.36,1.49-3.8.81-4.91s.24-6,.24-6-1.06,5-1,5.56.86,1.66.53,2.8a16.61,16.61,0,0,1-2,3.34,50.55,50.55,0,0,0-.49,5.93,5.42,5.42,0,0,1-1.81-.11c0-2.77.16-7.75.32-8.65.23-1.24,2.17-7.67,2.17-7.67l-2.67,8-.68,7.89c-1.42-.94-1.59-3.08-1.12-5.74A9.82,9.82,0,0,0,375.67,195.49Zm12.78,1.16c.45-.84,1.59-.46,1.59-.46l1,4.89a12.46,12.46,0,0,0-2.61.38C388.28,199.59,388.18,197.15,388.45,196.65Z"/><path class="cls-51" d="M295.46,124.86c-6.63-6.14-16.92-9.3-19.45-8.82a6.9,6.9,0,0,0-4.05,2.82s8-1.4,12.48,5.74,9.33,15.89,9.8,29.85a54.52,54.52,0,0,0,7,24.48s-12.33-6.53-15.45-15.11c0,0,1.09,16,7.71,22.5s8.06,7.49,8.06,7.49,1.47,22.62,1.27,25.27S292,210.73,292,210.73s1.84,12.4,4.83,15.25a40.38,40.38,0,0,0,4.42,3.83s.46,26.18.95,27.78,11.52,7.58,14.83,8.05,13-4.87,12.46-4.89-11.76-5.45-11.76-5.45-1.32-8.8.15-15.14-.76-27.12-.44-28.18c0,0,1.86-21.21,2.36-31.29s5.5-8.11,7.59-17.63,4.83-13.43,1.95-15.63-4.7-3.29-6.15-9.44,0-33.21-3.87-39.15a29.85,29.85,0,0,0-6.72-7.19A23.3,23.3,0,0,0,310,89.86l-2,.62s7.2,5,8.18,14,2.39,28.35-.18,30.55-3.4-13.76-8.21-24S284.63,93.65,282.38,93.6a10.56,10.56,0,0,0-3.33.32s17.44,9.71,21.09,18.56,4,28.79,4,28.79S302.1,131,295.46,124.86Z"/><path class="cls-52" d="M400.57,105.27c4-1.47,9.38-11.54,9.38-11.54l-.15-2.87-3.22,4.62c-3.22,4.63-13,2.84-16.37,15.56s-1.7,25.31,2.92,37.17S407.43,164,409,171.06s1.33,10,5.25,22.85,18,30.21,18,30.21l-.72,2.07s1,4.47,4.52,6.64,5.11.12,6.45-.11,3.55-9.59,4.84-17.13-2.74-25.41-2.74-25.41l-4.05,21.07L435.2,184a71.8,71.8,0,0,0,.35-15.41c-.67-9.16-2.63-20.7-2.63-20.7l-1.76-.57-2.68,19.8s-7.41-16.11-6.39-21.84,3.76-8.53,13.12-9.62S446,130.89,446,130.89l.09-3.65s-6.16,6.65-16.06,2.24-19.24,5.3-19.24,5.3,2.58-15.36,11.7-15.67S436.11,97,436.11,97l-2.86-1.12s-6.12,14.49-17,15.55-19.29,17-19.29,17C392.48,118.67,396.54,106.75,400.57,105.27Z"/><path class="cls-53" d="M305.26,166c1,1.62,7.66,2.31,8.08,6.83s.12,17.54-.47,20.18-6.46,3.84-6.14,12.61-.94,40.63,1.35,44.67,2.84-30.49,2.84-30.49.63,30,1.9,32.46c.45.87,2.43,1.56,4.79,2.1-.29-2.43-.91-9.11.27-14.2,1.48-6.34-.76-27.12-.44-28.18,0,0,1.86-21.21,2.36-31.29s5.5-8.11,7.59-17.63,4.83-13.43,1.95-15.63-4.7-3.29-6.15-9.44,0-33.21-3.87-39.15a29.85,29.85,0,0,0-6.72-7.19c-.69-.53-1.28-.93-1.73-1.23,3.82,3.83,8,9.25,8.3,14.8.55,10.37.5,35.35.5,35.35L311,146.21l-5.81,9.7L313.4,159l-9.29-.48S304.24,164.38,305.26,166Z"/><path class="cls-54" d="M306.75,142.12l1.59-16.7L308.9,141a6.68,6.68,0,0,0,5.94-6.18c-1.83-2.48-3-15.14-7.1-23.74-4.81-10.21-23.11-17.41-25.36-17.46-.37,0-.68,0-1,0,7.29,4.23,17.09,10.18,19.54,12.91C305,111,306.75,142.12,306.75,142.12Z"/><path class="cls-55" d="M298.25,153.35c.15-.66.15-17.93.39-16.73S300.86,150,300.86,150s1.42-9.8,1.41-9.27,2.11,6.29,2.11,6.29-.26-3.88-1.08-8.75c-1.11-3.52-3.48-9.34-7.84-13.37-6.63-6.14-16.92-9.3-19.45-8.82a6,6,0,0,0-2.84,1.46c5.52.73,13.26,2.75,17.49,8.18C297.63,134.61,298.1,154,298.25,153.35Z"/><path class="cls-56" d="M285.79,163.82s0,.13,0,.34c1.13,3.77,3.95,12.38,7,16a49.65,49.65,0,0,0,9.9,8.47l-3.33-5.26,5.75,4.39a5.46,5.46,0,0,0,.38-4.91c-.6-1.41-2.87-3.4-4.88-5,.36.67.58,1,.58,1S288.91,172.4,285.79,163.82Z"/><path class="cls-57" d="M435.21,135.61c9.36-1.09,10.78-4.72,10.78-4.72l0-.78a15.36,15.36,0,0,1-9.69,3c-11.17.13-21.12-2.06-24.08,10.41s.2,12.75.2,12.75-.75-10.6,3.81-5.79,10.28,16.5,6.11,16.6-7.06-4.47-7.06-4.47,1.17,21.19,6.61,30.92l5.44,9.73s-4.56-11.67-2.8-15.75a46.39,46.39,0,0,1,5-8.31s-3.19,8.36-3.23,9.92,4.35,20.88,4.36,20.29,9.65,8.06,10.5,14.55c.35,2.66.57,5.91.87,8.85a1.9,1.9,0,0,1,.43-.13c1.34-.23,3.55-9.59,4.84-17.13s-2.74-25.41-2.74-25.41l-4.05,21.07L435.2,184a71.8,71.8,0,0,0,.35-15.41c-.67-9.16-2.63-20.7-2.63-20.7l-1.76-.57-2.68,19.8s-7.41-16.11-6.39-21.84S425.85,136.7,435.21,135.61Z"/><path class="cls-58" d="M407.54,136.06a6.68,6.68,0,0,0,.81,2.51l-.57-3.93Z"/><path class="cls-59" d="M419.06,120a7.8,7.8,0,0,1,3.42-.92C431.6,118.8,436.11,97,436.11,97l-1.52-.59a28.7,28.7,0,0,1-5.32,10.55c-5.15,6-10.85,7.59-15.71,8.45s-10.41,3.49-11.43,11.11l-1,7.61s6.84-14.53,16-14.12Z"/><path class="cls-60" d="M412.07,129.92a22.3,22.3,0,0,1,4.33-7.82c-3,.54-5.82,1.39-7.23,3a19.2,19.2,0,0,0-4.37,8.72l1.82,7.88.92-5.61C407.34,134.17,408,131.63,412.07,129.92Z"/><path class="cls-61" d="M400.57,105.27c4-1.47,9.38-11.54,9.38-11.54l-.15-2.87s0,0-.9,1.29c-1.42,3.19-3.85,7.31-7.15,8.06-5.53,1.24-9.82,13.48-10.67,21.11a26.26,26.26,0,0,0,2.84,14.17l-.58-10.79,3.44,9.69s.27-3.45.49-6.58c-.23.4-.35.63-.35.63C392.48,118.67,396.54,106.75,400.57,105.27Z"/><path class="cls-62" d="M365.49,147l-3.14,9.49s3.46-.58,6.12-6.1,6.19-15.14,6.19-15.14-6.87,21.23-5.94,21.25,5.4-9.3,5.4-9.3l-3.06,11.48,5.5-.35.05-.1s1.84-18.34,4.81-34.73c2.44-13.51,6.85-36.11,9.39-44.06-2.93,3.08-6.43,7.55-6.21,11.14.39,6.12-8.75,22.12-10.76,22.87s-9.61,30.6-9.21,30.47S371.4,127,371.4,127l-5.57,22.19Z"/><path class="cls-63" d="M351.66,115.94l-.18-9.17s9.79,21.75,10.64,21c-1.95-6.68-8.21-27.7-11.6-33.8l-4.06-7.3.47,9.89s-1.4-6.44-3.1-11.5Z"/><path class="cls-64" d="M362.12,127.74a.29.29,0,0,0,0-.1Z"/><path class="cls-65" d="M275.72,10.9a17.24,17.24,0,0,1-14.26-2.51c3,6.08,8.05,13.67,16,18,14.69,8,24.52,8,24.52,8l-8.46-13.22S316,26,325.38,44l-.06-8.77,21.21,24.67,1-8.48,16.75,22.44,18.85-22.14L378,64.87s6.18-3,15.39-10.53S404.91,40,404.91,40L401,58.77s9.24,2.6,18.77-7.54a101.07,101.07,0,0,0,14.54-19.58L431,49.9S441.4,36.33,450.2,34.67c6.37-1.19,15.12-14.84,19.47-22.3a17.14,17.14,0,0,1-15.56,2.68,35.37,35.37,0,0,0-18.3-.16L451.24,4a249.59,249.59,0,0,0-26,1.75c-15,1.74-29.49,16.29-29.49,16.29l4.84-11.38L378.19,24l2-4.66s-8,1-15.66,10.82C357.3,20,349.37,18.62,349.37,18.62l1.76,4.75L329.42,9l4.31,11.6S319.94,5.39,305,3A251.61,251.61,0,0,0,279.1,0L294,11.58A35.39,35.39,0,0,0,275.72,10.9Z"/><path class="cls-66" d="M214.15,450.29c-2.78,16.68-15.75,94.49-38.06,162.52-8.68,26.47-22.57,43.52-36.3,54.48l51.48,5.91c10-13.25,22.3-34.77,30.42-67.3,15.82-63.4,17.56-104,17.56-104s-11.95,68.27-13.43,29.18c-.07-1.74-.11-3.61-.12-5.6-.38-42.63,9.85-138.44,9.85-138.44S216.93,433.62,214.15,450.29Z"/><path class="cls-67" d="M240.67,680.47c14.31-9.76,36.1,1.64,36.1,1.64-37-30.09-71.57-7.25-73-7.48l-36.07,20.19s5.68,9.49,40.73,13c2.4-.63,4.81-1.25,7.25-1.87C249.31,697.41,226.36,690.23,240.67,680.47Z"/><path class="cls-68" d="M391.87,255l-1.45,1.55,2-.12.33-.6Z"/><path class="cls-69" d="M394.7,251.93c-.75,1.61-1.55,3.09-2,3.87l2.41,2.37s5.17-8.7,5.77-9.18.88-6.57.66-7-3-5.33-3-5.33a8.32,8.32,0,0,0-.42,4.21,11,11,0,0,0,1,2.49,41.34,41.34,0,0,1-.47,4.14C398.63,247.65,396.69,249.78,394.7,251.93Z"/><path class="cls-70" d="M391.87,255l.85.83c.43-.78,1.23-2.26,2-3.87Z"/><path class="cls-71" d="M391.87,255l2.83-3c1-2.08,1.86-4.35,1.77-5.58-.17-2.62-3-6.77-3.47-7s-6.22-1.86-6.22-1.86.51,3.06,2.62,3.71,2.71.78,2.71.78a24.72,24.72,0,0,1,1.25,3.44c.17,1-3.64,7.44-3.64,7.44Z"/><path class="cls-72" d="M400.18,254c-.41.16-12.75,4.45-12.75,4.45l3.87,1.47c1.7-.31,9.84-3.19,10.79-4.08s4.32-5.69,4.32-5.69.15-4.7.1-5-3,1.85-2.59,4.1A53.16,53.16,0,0,1,400.18,254Z"/><path class="cls-73" d="M410.67,251.26a3.64,3.64,0,0,0-3.79,2.12l-1,2.49s-5,1.84-5.18,2.18-11.16-.74-11.16-.74l-.12,3.66,12.24.11s3.93-2.76,6.49-3.3C408.17,257.78,409.35,253.24,410.67,251.26Z"/><path class="cls-74" d="M374.09,268.17l1,4.14S393.63,263,396,262.53s2.7-.88,1.53-3-6.8-7.76-7.81-7.74-16.09,2.61-20.95,13.34S374.09,268.17,374.09,268.17Z"/><path class="cls-75" d="M390.33,254.88c-.07-.65-1.17-2-2-2.86-3.82.76-14.42,3.74-19,11.91l.7,1.11c2.32,3.74,2.86,1.73,2.86,1.73l8.18-4.14s-4.82.37-4.94.29,9.32-4,9.32-4-9.69,3.53-8.27,2S390.43,255.92,390.33,254.88Z"/><path class="cls-76" d="M327.87,272.26c.38-.17.44-.27.44-.27Z"/><path class="cls-77" d="M277.58,255.11c-8.06-4.35-8.07-6-8.07-6s-2.68,6.24,12.52,13.09,25.84.33,26.87,3.32-10.52,6-15.39,5.1-13.72-3.38-13.72-3.38l2.36,1.25s8.48,6.66,26.86,5.91c13.73-.56,17.72-1.62,18.86-2.12l.44-.27s-.06.1-.44.27l-12.37,7.6a47.41,47.41,0,0,0,15.65-1.16c8.16-2.08,11-8.84,23.77-7.31S382,274.58,382,274.58l-2.08-2.49L368,259.7s-6.72,2.39-9.38,2.54-25.61-5.63-27.22-6-6.94-4.3-13.75-5.79-24.94-.14-24.94-.14l-3.28.38,6.56,6S285.63,259.46,277.58,255.11Z"/><path class="cls-78" d="M368,268.17c1,.28,2.33,2.95,3.33,5.15L382,274.58l-2.08-2.49L368,259.7s-6.72,2.39-9.38,2.54-25.61-5.63-27.22-6-6.94-4.3-13.75-5.79-24.94-.14-24.94-.14l-3.28.38.84.78c8.24,1.2,20.16,3.06,26,4.58,9.48,2.45,22.39,6.89,22.39,6.89L315.26,259a54.24,54.24,0,0,0,17,6.44,91.19,91.19,0,0,0,18.12,1.28l-9.9,1.76S366.31,267.69,368,268.17Z"/><path class="cls-79" d="M283.08,259.09a22.27,22.27,0,0,1-13.71-9.4c-.24,1.7.23,6.89,12.66,12.49,11.69,5.26,20.68,2.63,24.67,2.49-.06-1.52-13-2-13-2l6.21-2.45S295.12,261.86,283.08,259.09Z"/><path class="cls-80" d="M303.49,273.29c-6.71.54-14.07-1.58-19.29-3.55,3.52,1.9,11.61,5.18,24.81,4.64,12.47-.51,16.9-1.43,18.46-2l.84-.42-12.13.53,4.25-3.37S315.34,272.33,303.49,273.29Z"/><path class="cls-81" d="M325.44,277.63a30.17,30.17,0,0,1-6.71,2.42,47.36,47.36,0,0,0,12.42-1.35,29.41,29.41,0,0,0,8.11-3.86l-8.32,2.27,6.31-5.37S332.09,274.17,325.44,277.63Z"/><path class="cls-82" d="M342.61,235.9c.75-1.82,1.54-3.49,2-4.38L341.87,229s-5.23,9.87-5.87,10.44-.67,7.29-.41,7.74S339.1,253,339.1,253s.9-2.81.28-4.67a12.37,12.37,0,0,0-1.21-2.71c-.1-.22.27-4.26.33-4.59C338.53,240.82,340.54,238.37,342.61,235.9Z"/><path class="cls-83" d="M345.55,232.4c-.83,1-1.89,2.24-2.94,3.5-1,2.34-1.83,4.9-1.69,6.25.31,2.88,3.83,7.46,4.39,7.69s6.1-.67,6.1-.67,0-.95-2.27-1.56-3,.08-3,.08a47.65,47.65,0,0,1-1.8-4.68c-.23-1,3.62-8.4,3.62-8.4Z"/><path class="cls-84" d="M344.92,230.85s-.13.25-.33.67l1,.88,1.5-1.79Z"/><path class="cls-85" d="M342.61,235.9c1.05-1.26,2.11-2.53,2.94-3.5l-1-.88C344.15,232.41,343.36,234.08,342.61,235.9Z"/><path class="cls-86" d="M336.57,233.9c.44-.19,13.64-5.57,13.64-5.57L346,226.91c-1.83.42-10.55,4-11.54,5.06s-4.44,6.51-4.44,6.51,0,5.2.11,5.55,3.22-2.21,2.64-4.67C332.72,239.36,336.13,234.09,336.57,233.9Z"/><path class="cls-87" d="M329.31,234.93l1-2.8s5.39-2.3,5.53-2.68,12.16.24,12.16.24l0-4.05-13.3.51s-4.14,3.25-6.9,4c0,0-1.09,5.07-2.42,7.33A4,4,0,0,0,329.31,234.93Z"/><path class="cls-88" d="M348,235.77c1.09-.08,17.36-3.7,22.18-15.81s-5.94-3.06-5.94-3.06l-1.23-4.53s-19.76,11.25-22.3,11.88-2.89,1.11-1.53,3.37S347,235.85,348,235.77Z"/><path class="cls-89" d="M347.23,232.41c.09.72,1.35,2.12,2.28,3.06,4.12-1,15.5-4.87,20.08-14.13l-.81-1.19c-2.68-4-3.18-1.77-3.18-1.77l-8.71,5s5.22-.65,5.36-.58-9.95,4.89-9.95,4.89,10.38-4.41,8.9-2.6S347.07,231.27,347.23,232.41Z"/><path class="cls-90" d="M413.83,210.33l.47-.33C413.89,210.21,413.83,210.33,413.83,210.33Z"/><path class="cls-91" d="M410.45,203.06c-8.77,2.72-11.51,10.33-25.49,9.3s-29.56-2.13-29.56-2.13l2.37,2.64,13.49,13.07s7.2-3,10.08-3.29,28.06,4.9,29.83,5.21,7.73,4.39,15.18,5.69,27.1-1.13,27.1-1.13l3.54-.6-7.38-6.34s11.13-3.52,20.07.88,9,6.23,9,6.23,2.64-7-14.17-13.81-28.08,1-29.33-2.29,11.16-7.15,16.49-6.42,15,3,15,3l-2.61-1.26s-9.51-6.92-29.43-5.15c-14.89,1.33-19.17,2.7-20.39,3.31l-.47.33s.06-.12.47-.33l13.1-9A51.08,51.08,0,0,0,410.45,203.06Z"/><path class="cls-92" d="M397.49,216.11c-11.17-.35-23.57,3.12-30.65,5.55l4.42,4.28s7.2-3,10.08-3.29,28.06,4.9,29.83,5.21,7.73,4.39,15.18,5.69,27.1-1.13,27.1-1.13l3.54-.6-1.38-1.18c-4.47-.07-13.76-.21-23.38-.44-13.41-.31-15.45-4.08-15.45-4.08L435.19,223l-32.87-3.15,20.18.2S414.08,216.63,397.49,216.11Z"/><path class="cls-93" d="M463.52,222.25a24,24,0,0,1,15.31,9.67c.18-1.89-.56-7.59-14.3-13.14-12.93-5.21-22.57-1.84-26.91-1.49.13,1.68,14.22,1.57,14.22,1.57l-6.63,3S450.33,219.81,463.52,222.25Z"/><path class="cls-94" d="M440.73,207.61c7.26-.94,15.35,1,21.11,2.93-3.91-1.91-12.84-5.12-27.15-3.85-13.52,1.21-18.29,2.45-20,3.12l-.89.52L427,209.12l-4.46,3.94S427.9,209.28,440.73,207.61Z"/><path class="cls-95" d="M416.7,204a32.63,32.63,0,0,1,7.18-3,51,51,0,0,0-13.43,2.13c-3.47,1.08-6,2.91-8.64,4.68l8.94-2.94-6.62,6.26S409.63,208.11,416.7,204Z"/><path class="cls-96" d="M123.75,644.59l-7.46-2.46s-22.88-13.94-33-12.86S50.6,641.25,46,644.09,0,652.5,0,652.5s36.48,5.75,65.31,2.83S123.75,644.59,123.75,644.59Z"/><path class="cls-97" d="M315.86,748.81c25.7,3.8,87.57-1.45,87.57-1.45s-10.94-9.15-12.81-10.88-46-10.41-52.7-11.68-18.68-18.49-33.27-21.11-65.66,25-65.66,25l-46.32,5.54s49.7,14.67,60.83,15.45S290.17,745,315.86,748.81Z"/><path class="cls-98" d="M646.11,693.9c24.6.57,64.58-2.41,64.58-2.41s-27.88-4-40.47-7.66-30.94-17-57-17-43.91,11.85-43.91,11.85l-21,5.39c7.7,5.78,38.72,2.86,52.89,2.91S621.51,693.33,646.11,693.9Z"/><path class="cls-98" d="M646.11,693.9c24.6.57,64.58-2.41,64.58-2.41s-27.88-4-40.47-7.66-30.94-17-57-17-43.91,11.85-43.91,11.85l-21,5.39c7.7,5.78,38.72,2.86,52.89,2.91S621.51,693.33,646.11,693.9Z"/><path class="cls-98" d="M646.11,693.9c24.6.57,64.58-2.41,64.58-2.41s-27.88-4-40.47-7.66-30.94-17-57-17-43.91,11.85-43.91,11.85l-21,5.39c7.7,5.78,38.72,2.86,52.89,2.91S621.51,693.33,646.11,693.9Z"/><path class="cls-99" d="M675.71,626.1c-33.65-9.55-44.93,12.9-44.93,12.9l-22.37,2.27s42.92,5,51.69,5.19,76.37,6.16,76.37,6.16A264.27,264.27,0,0,0,675.71,626.1Z"/><path class="cls-99" d="M675.71,626.1c-33.65-9.55-44.93,12.9-44.93,12.9l-22.37,2.27s42.92,5,51.69,5.19,76.37,6.16,76.37,6.16A264.27,264.27,0,0,0,675.71,626.1Z"/><path class="cls-100" d="M707.06,590.61s-26.11-6-45.16-17.11-53.24-1.77-53.24-1.77l-.2,8.56c1.16,0,15.83.1,34.58,7.23S707.06,590.61,707.06,590.61Z"/><path class="cls-101" d="M69.87,642c5.08-4.85,21-8.4,27.17-9.62-5.14-2.06-10.24-3.52-13.79-3.14-10.16,1.07-32.65,12-37.29,14.82S0,652.5,0,652.5a342.09,342.09,0,0,0,50.1,3.64C67,653.36,65,646.66,69.87,642Z"/><path class="cls-102" d="M77.28,703.47c47.5-1.82,48.2-4.07,48.2-4.07l6.31-5.71L169.56,677l-8.44-.85s-33.24-10.2-39.09-10-32.24,16.48-32.24,16.48-64.06,15.08-69.88,13.65S29.78,705.29,77.28,703.47Z"/><path class="cls-103" d="M135.58,668.88c-6.13-1.59-11.51-2.79-13.55-2.72-5.86.19-32.24,16.48-32.24,16.48s-64.06,15.08-69.88,13.65c-3.39-.84.52,2.35,13.74,4.8,27.6-3.76,64.81-9,65-9.8.35-1.29,18.52-13.87,18.52-13.87L116,689.1Z"/><path class="cls-104" d="M252.69,738.4c24.44-1.09,28.73-16.76,28.73-16.76s27.63,4.73,28.9,3.62c.76-.66,7.49-6.64,12.85-11.4-5.41-4.5-11.68-8.94-18.52-10.17-14.6-2.62-65.66,25-65.66,25l-46.32,5.54,1.12.33C214.28,736.73,239.28,739,252.69,738.4Z"/><path class="cls-105" d="M613.18,666.82c-26.1-.05-43.91,11.85-43.91,11.85l-21,5.39c2.82,2.12,8.79,3.07,15.91,3.42,22.37-6.58,54.42-15.34,72.28-17.13A82.11,82.11,0,0,0,613.18,666.82Z"/><path class="cls-106" d="M675.71,626.1c-33.65-9.55-44.93,12.9-44.93,12.9l-22.37,2.27s22.58,2.62,38.33,4.14C657,638.1,669.43,630.14,678.67,627,677.69,626.67,676.71,626.38,675.71,626.1Z"/><path class="cls-107" d="M174.11,699.62a58.21,58.21,0,0,0,10.79,4c6.3.54,13.32,1.13,20.23,1.65Z"/><path class="cls-108" d="M348.25,499.23c-.77-2.68-1.27-4.18-1.27-4.18Z"/><path class="cls-109" d="M154.54,667.17l-1.62,1.63,5.57.64c9.89-9.88,20.21-19.93,19.15-17.81-.84,1.7-5.28,9.93-10.11,18.85l11.65,1.33c5-8,10.92-17,17.19-26.15,19.92-29.09,20.32-59.77,20.32-59.77S200,623,200,621.35s14.74-75.7,14.74-75.7S173.66,648.05,154.54,667.17Z"/><path class="cls-110" d="M302,640.88l-1.59,24.7L288,578.72l-8.77,86.06s-11.55-41-12.35-37.85c-.42,1.71-7.25,23.06-13.49,43.14a84.92,84.92,0,0,1,10.7,5.47c9.74,5.89,29.52,15,44.78,21.76l-.12-1c-5.17-2.49-8.95-4.23-8.95-4.23l8.48.42Z"/><path class="cls-111" d="M340.2,570.35s-4,35.07-2.79,69.33c.94,26.74,19.1,47.66,27,55.55l9.73.48c-6.28-21-15.24-52.84-15.24-52.84l22.71,53.21,16.87.83,1.88.1c-9.62-20.31-23.8-50.59-24.33-53.74s36.47,33.65,66.44,60.61c10.24,2.66,19.7,5.55,30.51,7.71-24.39-22.2-56.6-83.72-59.5-90.24-3.18-7.17,18.73,61.36,5.18,49.41s-27.89-49-27.89-49l-10.35-63L375.27,617s-2.79-45.42-8.77-57.77l-18.25-60a198.1,198.1,0,0,1,7.49,52c0,30.28-8,66.14-8,66.14Z"/><path class="cls-112" d="M511.79,535.82c0,1.54,44.17,123.68,65.84,136.65l-11-18.47,19.71,1.18C569.85,622.81,537.82,556,537.82,556l13.29,41.44S511.79,534.23,511.79,535.82Z"/><path class="cls-113" d="M528.74,674.64c-9.63-9.16-18.53-18.19-25.45-26.19-30.28-35.07-44.62-61.1-44.09-55.25s37.72,71.71,37.72,71.71l-30.81-42s-6,38.63,26.8,58.84c-8.22-5.92-7.78-9.51-7.78-9.51Z"/><path class="cls-114" d="M581.62,568.75c2.16,5.57,11.45,45.17,11.45,45.17l-10.62-13.29s4.31,15.76,8.26,28.54L609,631.66l-11.31-16.2,8-.17C594.94,594.57,583.53,572.58,581.62,568.75Z"/><path class="cls-115" d="M581.62,568.75a5,5,0,0,0-.23-.52C581.29,568.06,581.37,568.25,581.62,568.75Z"/><path class="cls-116" d="M566.11,708.25l4.15,3.56c7.44-.62,8.35-.95,8.35-.95S573.7,710,566.11,708.25Z"/><path class="cls-117" d="M427.74,742.22l91.6,2.93c47,1.49,56-9.46,56-9.46l-24.69-.57L535.8,722.81s-59.2-7.75-64.38-7.87-13-22.22-28.95-23.39-81,20.83-81,20.83l23.61,13.3,3.76,9.65s39.43.92,44.23.24S427.74,742.22,427.74,742.22Z"/><path class="cls-118" d="M419,708.93c7,8.14,10.25,22.16,26.3,17.35,6.93-2.07,15.64-7.52,23.24-13.14-5.18-5.29-12.83-20.63-26-21.59-15.24-1.12-75.6,19-80.64,20.71l0,.32,9.62,5.43C386.08,712.46,413.85,703,419,708.93Z"/><path class="cls-119" d="M347.11,509.26c1.59-17-19.12-82.87-19.12-82.87l6.9,66.4,5.85,51A235,235,0,0,0,347.11,509.26Z"/><path class="cls-120" d="M260.52,615l22.84-51L272.21,497s4.25,53.66-3.72,79.16S260.52,615,260.52,615Z"/><path class="cls-121" d="M209,485.36v.14A.53.53,0,0,0,209,485.36Z"/><path class="cls-122" d="M198.36,543.79l14.35-25.5L209,485.5C209.16,489.28,198.36,543.79,198.36,543.79Z"/><path class="cls-123" d="M405.55,515.64l31.87,38.78,27.09,20.72S407.14,517.23,405.55,515.64Z"/><polygon class="cls-124" points="439.01 469.95 496.92 555.48 491.07 526.79 439.01 469.95"/><polygon class="cls-125" points="539.42 476.86 563.32 546.98 558.01 508.73 539.42 476.86"/><path class="cls-126" d="M565.45,522,571,564l6.9,13.55C578.46,575.4,565.45,522,565.45,522Z"/><polygon class="cls-127" points="548.98 538.21 550.84 553.88 566.51 583.37 548.98 538.21"/><polygon class="cls-128" points="539.02 670.36 491.61 612.59 529.86 664.78 539.02 670.36"/><polygon class="cls-129" points="538.62 650.84 518.3 634.9 548.58 667.57 538.62 650.84"/><path class="cls-130" d="M362.25,173.49s0,0,0,0Z"/><path class="cls-131" d="M362.25,173.49c-.09.19-1.37,2.85-2.07,2.69s-1.63-2.49-1.63-2.49,1.25,5.94,1.88,5.74S362.16,173.69,362.25,173.49Z"/></g></g></svg>