<svg xmlns="http://www.w3.org/2000/svg" viewBox="0 0 137.72 208.22"><defs><style>.cls-1{fill:#677725;}.cls-2{fill:#6d5f24;}.cls-3{fill:#968638;}.cls-4{fill:#4b5110;}.cls-5{fill:#556018;}.cls-6{fill:#44470d;}.cls-7{fill:#556014;}.cls-8{fill:#5d681d;}.cls-9{fill:#b27422;}.cls-10{fill:#98bc51;}.cls-11{fill:#738c34;}.cls-12{fill:#495119;}.cls-13{fill:#db9633;}.cls-14{fill:#644172;}.cls-15{fill:#c6ccb4;}.cls-16{fill:#2d2630;}.cls-17{fill:#f1ff00;}.cls-18{fill:#a89b63;}</style></defs><title>earth_guardian2</title><g id="Layer_2" data-name="Layer 2"><g id="Capa_1" data-name="Capa 1"><path class="cls-1" d="M66.7,179.49s-.55,2-1.46,4.75l4.14,0Z"/><path class="cls-1" d="M118.8,183.39c-6.55,1.57-27.16,1.07-49.42.88l3.47,6.2c24.52.44,48.52.72,54.06-1.68,11.77-5.09,16.71-29.26.32-36.74s-24.18,3.66-24.18,3.66,3.34-4,16.39-2.55S136,179.25,118.8,183.39Z"/><path class="cls-1" d="M57.88,198.18C53.5,200.57,7,197.07,13.65,192c3.11-2.37,25.31-2.12,49.34-1.69.87-2.07,1.64-4.22,2.25-6-35-.22-72.11.7-64.15,11.87,13.36,18.77,67,10.34,72.61,9.47s4.86-4.93,4.86-4.93l-5.71-10.18L63,190.29C61.48,193.87,59.67,197.2,57.88,198.18Z"/><path class="cls-1" d="M65.24,184.24c-.61,1.83-1.38,4-2.25,6l9.86.18-3.47-6.2Z"/><path class="cls-2" d="M118.8,183.39c-6.55,1.57-27.16,1.07-49.42.88l-2.68-4.78s-.55,2-1.46,4.75c-35-.22-72.11.7-64.15,11.87C9.91,208.51,36.28,209,54.8,207.72a7.85,7.85,0,0,0-4.32-4.17,21.91,21.91,0,0,0-11.41-1.19,2,2,0,0,0-1.59,1.43s-.12-1.35-2.23-1.83a25.71,25.71,0,0,0-7.88-.4c-1.51.36-1.59,1-1.59,1a5,5,0,0,0-2.7-1.94c-1.63-.36-5.93-1.56-6.36-1.52a9.86,9.86,0,0,0-1.63.52,4.14,4.14,0,0,0-1.44-1.31c-.91-.48-5.48-2-6.16-2.67a2.11,2.11,0,0,0-1.55-.59s.66-3.18,1.33-3.7a8.21,8.21,0,0,0,1.21-1.17s1,0,2.39,0,7.81-.8,8-1.08a10.44,10.44,0,0,0,.38-1.17,2.06,2.06,0,0,0,1.71,1.29c1.19,0,10.34-.22,11-.3s.89-1.09.89-1.09-.08,1.09.72,1.13,9.26,0,9.34-.06.6-1.29.6-1.29S43,188.75,45.87,189s9.14.26,9.24.18a19.44,19.44,0,0,0,.58-2A1.57,1.57,0,0,0,57.16,189c1.77.32,9.09.26,9.09.26L82.35,186l.64-.06s-.9,3,1,3.52,10.8.3,11,.18a8.55,8.55,0,0,0,.82-1.13s-.34,1.17,1.73,1.19,9.28.1,9.66,0c.21-.08.35-.38.43-.64,0,.33.19.75,1.26.8,1.75.08,7.59-.32,8.41-.84a1.87,1.87,0,0,0,.91-1.23,2.18,2.18,0,0,0,1.71.88,14.83,14.83,0,0,0,4.5-1.79,4.35,4.35,0,0,0,.32-.84,1.78,1.78,0,0,0,1.31.12c.79-.2,4.45-4.21,4.51-4.73a3.17,3.17,0,0,0-.08-1,2.91,2.91,0,0,0,1.24-.81,27.69,27.69,0,0,0,2.4-5.47,4,4,0,0,0-.26-2.11s1.08-.51,1.08-1-.16-6.78-.68-7.82-.93-1.09-.93-1.09a5.87,5.87,0,0,0-.22-2.52,21.31,21.31,0,0,0-3.78-4.38,2.53,2.53,0,0,0-.93,0,2.73,2.73,0,0,0-.82-1.61c-.64-.42-7.26-2.9-8.49-2.88s-1.25.3-1.25.3a3.81,3.81,0,0,0-1.91-.58,83,83,0,0,0-8.76,1.77,15.05,15.05,0,0,0-4.07,3.62s3.34-4,16.39-2.55S136,179.25,118.8,183.39Z"/><path class="cls-3" d="M31.74,187.63c0-.26,0-1.77,0-2.91-4.34.21-8.43.5-12.13.9-.38,1-.25,2,1.72,2.27C25.21,188.42,31.74,188.05,31.74,187.63Z"/><path class="cls-3" d="M42.07,187.58a9.53,9.53,0,0,0,.67-3.23c-3.16.07-6.25.16-9.22.29-.11,1.41-.21,3.16.18,3.25C34.33,188.05,41.44,188.64,42.07,187.58Z"/><path class="cls-3" d="M66,188.42l6.28-4.12-2.89,0-2.68-4.78s-.55,2-1.46,4.75c-2.8,0-5.63,0-8.44,0-.17,1.58-.2,3.29.44,3.51C58.46,188.16,66,188.42,66,188.42Z"/><path class="cls-3" d="M9.84,189a37.45,37.45,0,0,0,7.84-.8c.37-.15.4-1.4.36-2.42-13.26,1.56-21,4.59-16.95,10.32q.39.55.84,1.08c1-.88,1.76-1.56,1.76-1.56s.53-4.29,2.7-5.3a1.86,1.86,0,0,0,1-2.58A3,3,0,0,0,9.84,189Z"/><path class="cls-3" d="M54.69,187.68c.08-.75.2-2.44.27-3.46-3.53,0-7,0-10.45.1-.58,1.22-1,2.73.38,3.1C47.22,188.05,54.59,188.79,54.69,187.68Z"/><path class="cls-3" d="M49.45,205.13c-2.6-1.22-10.34-2.18-10.5-.91-.08.65-.45,2.39-.79,4,4.35.1,8.67,0,12.72-.22A2.37,2.37,0,0,0,49.45,205.13Z"/><path class="cls-3" d="M94.57,188.21c.32-.51.23-2.47.17-3.71-3.16,0-6.51,0-10-.07-.18,1.83-.31,3.94,0,4.15C85.18,189,94.09,189,94.57,188.21Z"/><path class="cls-3" d="M36.56,204.44c-1.22-1.12-7.48-1.86-8.59-1.17-.53.33-1.43,2.16-2.23,4,3.3.45,6.71.71,10.12.85C36.6,206.55,37.13,205,36.56,204.44Z"/><path class="cls-3" d="M13.49,200.57c-.63-.8-5.72-2.13-7-3.72-.66-.79-2.17.21-3.51,1.43a26.58,26.58,0,0,0,9.42,5.78C13.16,202.35,13.74,200.87,13.49,200.57Z"/><path class="cls-3" d="M132.91,172.3a7.16,7.16,0,0,0-2.59-1.66A16,16,0,0,1,128,177.1a9.64,9.64,0,0,0,2.84,1.67C131.37,178.61,133.49,173.36,132.91,172.3Z"/><path class="cls-3" d="M126.09,156.53c.64-.85,1.24-1.91.82-2.36-.74-.8-8-3.45-8.32-2.7a11.84,11.84,0,0,0-.45,1.57l1.3.12A10.74,10.74,0,0,1,126.09,156.53Z"/><path class="cls-3" d="M123.57,185.19a31.85,31.85,0,0,0-1.75-2.83,17.55,17.55,0,0,1-3,1c-.43.1-.92.19-1.48.28.31,1.55.71,3.46,2.44,3.53C122.41,187.31,123.68,185.61,123.57,185.19Z"/><path class="cls-3" d="M116.89,187.15c.3-.42-.42-2-1-3.28-2.11.24-4.81.4-8,.49.23,1.63.7,3.73,1.65,3.9C111,188.53,116.36,187.89,116.89,187.15Z"/><path class="cls-3" d="M125.69,184.82c2.66-1.17,3.5-4.19,3.61-4.46a11.59,11.59,0,0,0-2.15-2.08,14.09,14.09,0,0,1-4.22,3.53C123.3,183.47,124,185.54,125.69,184.82Z"/><path class="cls-3" d="M116.84,151.09c-2-.21-11.08,1.91-11.72,3l-.24.42c2-.93,5.69-2,12.31-1.52C117.6,152.05,117.74,151.19,116.84,151.09Z"/><path class="cls-3" d="M106.76,188c.22-.5-.22-2.25-.63-3.59-2.88.07-6.1.09-9.57.09-.28,1.65-.71,3.74.18,3.87C98.17,188.58,106.39,188.85,106.76,188Z"/><path class="cls-3" d="M133.86,170.13c.32-1.22-.37-6.42-.85-7.11-.29-.42-2.08-.46-3.41-.43a18.7,18.7,0,0,1,.83,7C132,170.24,133.68,170.81,133.86,170.13Z"/><path class="cls-3" d="M24.79,203.38c-.69-.8-6.84-3.24-8.43-2.28-.81.48-1.72,2.07-2.43,3.53A61.29,61.29,0,0,0,24.1,207C24.67,205.34,25.1,203.73,24.79,203.38Z"/><path class="cls-3" d="M132.27,160.74c-.32-.47-3.24-4.45-4-4.56-.33,0-.92.52-1.48,1.16a15.53,15.53,0,0,1,2.66,4.85C130.76,161.73,132.47,161.05,132.27,160.74Z"/><path class="cls-4" d="M75.21,26s3,.31,7-2.25,3.6-8.37,2.14-12.43,3.39-4.51,3.39-4.51l-.13-1S83.79,5.66,82.53,9s3.38,6.19-.07,11.4c-2.21,3.33-6.84,2.34-10,1.23a36.09,36.09,0,0,1-5.29,1Z"/><path class="cls-4" d="M69.21,17.79s-3.72,1.34-3.91,1.49L69,20.37c.24,0,1.59.61,3.39,1.24,3.7-1,7.94-3,7.62-6.55-.57-6.22-2.72-8.55-1.33-10.63a6.11,6.11,0,0,1,3.37-2.52l-.88-.79S78,.58,76.87,4.43s1.94,9.51.07,11.42S69.21,17.79,69.21,17.79Z"/><path class="cls-4" d="M82.58,1.56,85.67.88a3.26,3.26,0,0,0-.3-.52C85.19.12,83.38.3,83,.3a3,3,0,0,0-2.64.06c-1.2.76-1.25,1.53-1.25,1.53l.61.69s1.26,1.2,2.12.8a10.44,10.44,0,0,1,3.09-.33l.16-.34a11.14,11.14,0,0,1-2.64-.33C82.29,2.16,82.54,1.57,82.58,1.56Z"/><path class="cls-4" d="M91.69,3.63a4.93,4.93,0,0,0-.24-.52c-.08-.1-.36-.33-.57-.21a13.74,13.74,0,0,1-3.15,1.38c-.88.11-2.67,2.1-2.69,2.46l.1.8s2.08.85,3,.17S91.07,5.9,91.07,5.9l.12-.5L89,6.51s-.41-.42.1-1.08A13.06,13.06,0,0,1,91.69,3.63Z"/><path class="cls-5" d="M44.79,125.4l-.1-2.86s-1,2.84-1,3,.71,2,.71,2l1.6-.63Z"/><path class="cls-6" d="M42.23,49.55c-1.85,8.59-10.6,12.68-14.79,10.61s-4.51-3.5-4.51-3.5l-.32,1.91s1.44,3.23,6.85,3.87,11.13-2.23,13.89-9,6.84-10.81,9.81-12.19A12.68,12.68,0,0,1,58.72,40S43.51,55.12,41.28,65.41s.53,16,.53,16h.69l1.11-1.7s-3.66-12,3-20,9-8.27,9-8.27-.1,26.45,4.14,30.91-2.07,8.11-2.07,8.11l.9.53c.16.11,4.4-2.6,4.56-6s-2.7-5.41-3.18-9-1-12.52-1-12.52l1.64-5.88,2.23-30.65s-16.33.95-20.89,6.47S38.15,51,31.52,51.89s-4.45-9.71-4.45-9.71l-1.22-.47s-3,12.24,4.82,12.4,10.4-17.92,14.85-19.56a29.29,29.29,0,0,1,10.24-1.28S44.09,41,42.23,49.55Z"/><path class="cls-6" d="M82.09,50.92c3.66-6.05,3.27-9.63,5.93-10.58a7,7,0,0,1,4.77,0L92.51,39s-2.58-2.67-6.16.12-4.61,10-7.6,10.46-8.35-3.42-8.35-3.42-4.29-1.28-4.57-1.28l2.66,3.5c.25.12,1,1.63,2.26,3.4C74.83,53.31,80,54.36,82.09,50.92Z"/><path class="cls-6" d="M70.36,57.64S72.91,60,78.28,60.3s8.91-5.21,10.3-9.9,6.12-1.83,6.12-1.83l.52-1s-3.38-2.75-6.76-.56S87.38,55,80.74,57.4c-4.25,1.56-7.81-2.46-10-5.63a40.27,40.27,0,0,1-5.52-2.6Z"/><path class="cls-4" d="M51.74,63.55c0-.1,0-.16,0-.16S51.73,63.45,51.74,63.55Z"/><path class="cls-4" d="M43.51,71.29c-4.14.06-5.09-5.14-5.09-5.14L37,66.26s3,9.65,9.28,7.15c5.73-2.28,5.5-8.79,5.42-9.86,0-.1,0-.16,0-.16s0,.06,0,.16c.14,1.54,1.58,14.31,9.79,16.7,8.75,2.55,9.87.16,9.87.16l-3.77-1.22a12.66,12.66,0,0,1-9.49-4.72,14.06,14.06,0,0,1-3-10.87s3.5,12,10.45,11.14,4.77-11,4.77-11l7-.11-6.47-2.81s8.17-.69,10.29-8.69S69,43.51,69,43.51s-1.27.79-.64.79,10.45,2.55,11,6.47-7.15,7.69-7.15,7.69,8.32-9.65.26-12.09a64.3,64.3,0,0,0-12.62-2.76l.69,13.9L58.72,44.36S45.68,48,46.26,58,47.64,71.24,43.51,71.29Z"/><path class="cls-4" d="M58.72,41.76c7.27-3.45,4.72-8.43,4.72-8.43l-1.37-6s-8.28-1.49-16.55,7.21-2,21.63-2,21.63.84,0,.69-.26-3.4-15.75,4.18-20.63,8.44-4.35,8.44-4.35-9.55,8.59-9.55,16.39,4.61,11.5,4.61,11.5l.8-.47s-5.36-8.86-.8-15,6.47-5.94,6.47-5.94S50,43,53.42,52.47s5.09,6.26,5.09,6.26S51.46,45.21,58.72,41.76Z"/><path class="cls-7" d="M61,21.53c2.78-.17,5.25-.56,5.25-.56A50.93,50.93,0,0,0,61,21.53Z"/><path class="cls-7" d="M52.68,31.58c-1.06,6.36-11.51,6-14.21,3.92a8.59,8.59,0,0,1-2.86-5.83H34.17s1,8.59,9.87,9,10.71-3.5,11.13-5.25,3-4.93,3.82-5.3-4.45,4.77-3.45,12.41,3.5,9.6,3.5,9.6,9.92,14.47,10,14.31,7.27-.85,6.15-9.49-6-10.76-6-10.76l6.9-5.65s6.24,2.23,9.9-3.18-4-8.63-4-8.63,2.71-3.42-.71-7.91-17.05.82-23.15.82-4.4-5.57-4.4-5.57H52.1s-.16,4.35,1.48,6.47c.86,1.11,4.3,1.17,7.37,1A50.93,50.93,0,0,1,66.2,21s-2.47.39-5.25.56c-3,.48-6.23,1.33-7.16,2.84-1.8,2.91-9.65,2.59-10-.32s-.37-3.5-.37-3.5l-1.27.21s-2.81,6,4.35,7.53,8.32-2.54,11-3.71a17.85,17.85,0,0,1,6.1-1.17S53.74,25.22,52.68,31.58Z"/><path class="cls-4" d="M58,21.61a9.84,9.84,0,0,1-5.73-4.72,8.13,8.13,0,0,0,1.31,3.66C54.17,21.31,56,21.58,58,21.61Z"/><path class="cls-4" d="M65.31,28.41c7.36-.76,9.55,6,9.55,6A9.12,9.12,0,0,0,65.19,26c-9.14,0-10,7.76-14.95,10.78a6.54,6.54,0,0,1-6.57.11,9.64,9.64,0,0,1-5.2-1.37,8.59,8.59,0,0,1-2.86-5.83H34.17s1,8.59,9.87,9,10.71-3.5,11.13-5.25,3-4.93,3.82-5.3-4.45,4.77-3.45,12.41,3.5,9.6,3.5,9.6,1.78,2.6,3.84,5.58c1.69-3.27,4.62-13.59,4.62-13.59s-5-4-2.47-8.07,8.67,1.19,8.67,1.19a5.46,5.46,0,0,0-3.1-3.14C68.06,31,63.52,30.84,62,36s4.38,8,4.38,8L66,46.23s-1.87.23-4.77-2.83S58,29.17,65.31,28.41Z"/><path class="cls-4" d="M79.27,26.82s3.06-3.86.44-6.2-8.35-1.87-16.66.75a9.74,9.74,0,0,1-3.75.47,21.88,21.88,0,0,0-2.12.54c3.92-.4,10.6-1.14,15-2C78.67,19.18,79.27,26.82,79.27,26.82Z"/><path class="cls-4" d="M43.4,20.55l-1.27.21s-2.81,6,4.35,7.53,8.32-2.54,11-3.71a17.85,17.85,0,0,1,6.1-1.17,22.25,22.25,0,0,0-4.23,1.33,24.43,24.43,0,0,1,12.27-.19c8,2.15,4.45,8.83,4.45,8.83s2.35-3.78,1.43-6.8-3.86-4.33-12.33-4-10.14,5.33-17.26,4.86c-5.52-.37-4.79-3.36-4.34-4.86C43.4,20.92,43.4,20.55,43.4,20.55Z"/><path class="cls-4" d="M82.4,32.82c-.53-2.17-2-2.17-2-2.17L79.06,34l.08,5.81s6.26-2.41,5.73-7-4.46-4.26-4.46-4.26,3.71,1.59,3.39,4.45-3.44,4.43-3.52,4.43S82.93,35,82.4,32.82Z"/><path class="cls-1" d="M94,123s2.07-1.16,2.07-1.8S86.3,88.63,86.3,88.63,80,61.32,76.91,57.4A54.91,54.91,0,0,0,69.38,50l2.55,22.74L79,92.29Z"/><path class="cls-8" d="M96.11,121.24c0-.63-9.81-32.61-9.81-32.61s-4.83-21-8.12-28.84L74.67,80.28l4.36,12L94,123S96.11,121.88,96.11,121.24Z"/><path class="cls-9" d="M76,72.57l-.55,3.23,7.09-2.24c-.31-1.13-.62-2.27-.94-3.39Z"/><path class="cls-9" d="M83.72,78.09l-.86-3.31-7.73,2.79-.46,2.71,0,.13.57.53Z"/><path class="cls-1" d="M79.38,88c0,.2.34-16.46.34-16.46A8.69,8.69,0,0,0,82.78,69s-7.34-8.36-8.84-12.3-10.47-11-10.47-11-8.91,5.44-11.36,9.25L68.43,85.34S79.38,87.79,79.38,88Z"/><path class="cls-2" d="M79.68,73.49a6.66,6.66,0,0,0-4.43-2c-2.68.1-5.8,5.41-6.26,6.62s2.33,4.59,2.39,4.79l8.1.43C79.55,80.06,79.63,75.9,79.68,73.49Z"/><path class="cls-10" d="M77.8,67l4.81,2.25a2.2,2.2,0,0,0,.17-.25s-7.34-8.36-8.84-12.3a16.07,16.07,0,0,0-3.29-4.52l-.68.22a10.17,10.17,0,0,1,3.1,3.86C73.74,58.24,77.8,67,77.8,67Z"/><path class="cls-11" d="M68.49,58.47l-.83,7.32,5.81,1.87A12.15,12.15,0,0,0,72.19,63,13.23,13.23,0,0,0,68.49,58.47Z"/><path class="cls-1" d="M73,77.71l-2.13.61S56,92.25,52.69,103.69s13.49,47.09,13.2,57.44-.59,31.91-3.73,38c-1.33,2.54-5.26,3.27-9.59,3.25,0,1,0,2-.08,3,12.2.7,24.88,1,27.67-.25,3.46-1.58.62-53,1.21-84C81.37,121.15,84.84,82.49,73,77.71Z"/><path class="cls-12" d="M61,141.4q.34,1,.66,2c1.45-.47,3.87-1.34,4.24-2,.53-1-1.94-6.13-3.11-6.66-.58-.26-2.13.45-3.55,1.26.26.78.51,1.56.76,2.33a8.65,8.65,0,0,1,2.18-.7c.72,0,1,1.2,1,2.18C63.18,140.36,62,141,61,141.4Z"/><path class="cls-12" d="M63,126.44c-.69-.45-2.17.77-2.33.77S60.1,125,59,125a7.84,7.84,0,0,0-2.82,1.65c.26.86.53,1.72.8,2.59a5.49,5.49,0,0,1,2.1-1.4c.77,0,1.25,1.67,1.49,3.31.12.86-1.18,1.38-2.45,1.69.15.48.31,1,.46,1.43,1.68-.57,4.17-1.54,4.35-2.27.26-1.11-1.12-3.24-1.12-3.24S63.68,126.89,63,126.44Z"/><path class="cls-12" d="M52.34,109.28c0,.68.13,1.39.23,2.12,1.44-.1,3.59-.26,4-.37.63-.15.26-2.89.16-3.18s3.71,0,3.71,0,.47,1.09,1.38,1.09,2.36-2.36,1.24-3.29-2.75.56-2.94.64a7,7,0,0,1-3-.75c-.34-.42.3-2.12-.84-2.54a14.47,14.47,0,0,0-3.22-.45c-.14.39-.27.79-.38,1.19a10,10,0,0,0-.3,1.47,22.49,22.49,0,0,1,2.81-.09c.21.11.5,3.5-.21,4.32C54.59,109.85,53.36,109.59,52.34,109.28Z"/><path class="cls-12" d="M67.1,181.27a4.46,4.46,0,0,0-1.95-.32c-.22,3.48-.52,6.87-.93,9.83a2.89,2.89,0,0,0,2,.06C67.08,190.2,67.34,181.72,67.1,181.27Z"/><path class="cls-12" d="M60.71,118.83c.85.13,2.92-2.78,1.41-3.92s-2.94,1.21-3,1.29a17,17,0,0,1-1.86.24,5.14,5.14,0,0,0-.9-2.49c-.46-.44-2,.29-3.19.91.17.83.36,1.68.56,2.55.6-.54,1.23-1,1.33-.94a11.87,11.87,0,0,1,.69,4.43,1.28,1.28,0,0,1-.9.92c.18.65.36,1.3.55,2a10.78,10.78,0,0,0,2.68-2,30.27,30.27,0,0,0-1-3.5l2.31-.53A2.18,2.18,0,0,0,60.71,118.83Z"/><path class="cls-12" d="M64.27,152.11c.23.86.45,1.7.65,2.49l3.16-1.33s-.16-7.16-1.64-8.41c-.68-.56-2.49-.22-4.26.32.24.75.47,1.49.7,2.22a4.38,4.38,0,0,1,2.76.25s.67,2.6.16,3.6A2.47,2.47,0,0,1,64.27,152.11Z"/><path class="cls-12" d="M67.18,169a2.1,2.1,0,0,0-1.47-.86c-.09,3.15-.21,6.62-.4,10.09a3.18,3.18,0,0,0,1.58-1C67.26,176.68,68,170.45,67.18,169Z"/><path class="cls-12" d="M57.64,99.08c-.47.37-1.88,0-3-.3-.25.48-.48,1-.7,1.44,1,.23,2.88.64,3.62.74,1,.13,2.07-1.38,2.33-2.07s2.44.64,2.76.9.64,1.51,1.46,1.91,2.65-1.91,1.75-3a1.94,1.94,0,0,0-2.57-.47c-.32.34-1.33-.16-2.42-.8s.11-1.75-.45-3c-.33-.77-1.63-1-2.6-1-.47.7-.93,1.41-1.37,2.12a4.35,4.35,0,0,1,2.12.25C59.1,96.27,58.41,98.47,57.64,99.08Z"/><path class="cls-12" d="M65.75,166.68c2-.1,1.83-.05,2-.08s.29-9-.51-9.67c-.25-.23-1-.2-1.84-.06a19.7,19.7,0,0,1,.47,4.26C65.85,162.74,65.81,164.62,65.75,166.68Z"/><path class="cls-2" d="M62.83,199.16a14.5,14.5,0,0,0-.26,2.36h-.1c-.27-.06-1.11-.25-1.91-.41h0l-.41-.08h0a10.06,10.06,0,0,0-1.31-.21,38.27,38.27,0,0,0-5.95,1.65h0a3.23,3.23,0,0,0-1.18.63c-.51.72-.19,2.71-.19,2.71s.5.82,1.24,2.07c7.84-.48,14.51-1.34,18.24-1.88,4.49,0,7.89-.27,9.17-.86,3.46-1.58.62-53,1.21-84,0,0,3.47-38.66-8.33-43.44l-2.13.61s-.46.43-1.23,1.19A25.31,25.31,0,0,0,71,82a9,9,0,0,0-.69,1.8c-.18.85-1.14,4.22-.92,4.59a7.07,7.07,0,0,0,1.75,1.11,6.27,6.27,0,0,0-1,1.2,64.51,64.51,0,0,0-1.48,6.68,3.31,3.31,0,0,0,.55.61s-1.83,1.43-1.83,1.69-1.88,6.63-1.61,7a4.09,4.09,0,0,0,.63.63,11.36,11.36,0,0,0-1.72,2.15,39.6,39.6,0,0,0-.08,6.76,7.3,7.3,0,0,0,1.3.32s-1.41,1-1.41,1.8a53,53,0,0,0,.67,6c.13.08,1.35.47,1.35.47s-1.09.67-1,1.6.74,8,1,8.06,1.14.21,1.14.21a1.73,1.73,0,0,0-.4,1.3c.08.79,1,7.79,1.43,8a6.15,6.15,0,0,0,1.59.37A4.89,4.89,0,0,0,69,146.72a92.65,92.65,0,0,0,1.06,9.86c.16.16,1.43-.08,1.43-.08s-1.43,1.33-1.43,2,.24,7.85.37,8.4,1.48.56,1.48.56-1.35.26-1.53,1.38a26.92,26.92,0,0,0,.29,5.86,2.33,2.33,0,0,0,.77.47,12.55,12.55,0,0,0-1.3,3.8,7.63,7.63,0,0,0,.63,3.26s-1.19-.43-1.22.05-1.27,8.09-1.06,8.85a5.79,5.79,0,0,0,.8,1.56h0a5.73,5.73,0,0,0-1.91.95C66.92,194.2,63.05,198.37,62.83,199.16Z"/><path class="cls-1" d="M50.8,118.72S52,90.09,52,89.69s5.49-26.56,5.49-26.56l6-17.5S52.39,51.36,50.56,54.7s-5,33.4-4.85,35.71,2.22,27.52,2.22,28.31S50.8,118.72,50.8,118.72Z"/><path class="cls-10" d="M52,89.69c0-.32,3.61-17.62,5-24.12l-1.48-5s-7.16,28.71-6.44,32.13c.39,1.9,1.4,8.79,2.22,14.55C51.61,99.24,52,89.92,52,89.69Z"/><path class="cls-13" d="M47.2,74.46a27.39,27.39,0,0,0,7.6,1.47c.24-1.13.47-2.26.7-3.34a23.71,23.71,0,0,1-7.86-1.68C47.49,72.09,47.34,73.28,47.2,74.46Z"/><path class="cls-13" d="M56.35,68.53a55.94,55.94,0,0,1-8.22-1.33c-.13,1-.27,2-.4,3a35.48,35.48,0,0,0,7.93,1.62C55.9,70.66,56.14,69.54,56.35,68.53Z"/><path class="cls-9" d="M48.13,67.2c-.13,1-.27,2-.4,3,.71.22,1.89.58,3.28.9.16-1.22.32-2.38.43-3.22C50.27,67.66,49.12,67.42,48.13,67.2Z"/><path class="cls-9" d="M47.64,70.91c-.15,1.18-.3,2.37-.44,3.55a22.13,22.13,0,0,0,3.25.91c.11-.92.27-2.16.44-3.42A17.61,17.61,0,0,1,47.64,70.91Z"/><path class="cls-9" d="M52.31,68c-.12.89-.27,2.06-.42,3.26.5.11,1,.2,1.53.29.18-1.18.35-2.34.49-3.3C53.39,68.21,52.85,68.13,52.31,68Z"/><path class="cls-9" d="M51.78,72.14c-.16,1.26-.31,2.49-.42,3.4l1.45.21c.14-.93.31-2.13.49-3.37Z"/><path class="cls-1" d="M69.69,34.7l-8.8,13.89L72,60s-2.76-9.7-.59-14.31Z"/><path class="cls-14" d="M77,43.09c-1.44-.47-1.59-.53-1.61-.52l-.11.93a5.19,5.19,0,0,1,1.25.35c0,.11.47,0,.63.15a.28.28,0,0,1,.12.28s.55-.55.51-.61S78.48,43.55,77,43.09Z"/><path class="cls-15" d="M75.21,43.35a2.76,2.76,0,0,0-.74.86c-.45.67-.34.61-.33.73a.94.94,0,0,0,.2.4,6.62,6.62,0,0,0,1.86.39,7.1,7.1,0,0,0,.46-.8l-.51.32-.3-.12.13-.6-.57.32-.61-.24.71-.91-.33-.32C75.31,43.3,75.21,43.36,75.21,43.35Z"/><path class="cls-15" d="M76.33,44.33a10.63,10.63,0,0,0,.81-.69c.17-.18.42.1.42.1l-.51.78a1.33,1.33,0,0,0,.74-.65c.16-.45-.88-.76-.88-.76h-.23a.19.19,0,0,1,0,.08,3.06,3.06,0,0,1-.38,1.14Z"/><path class="cls-10" d="M76.32,43.42a4.89,4.89,0,0,1,1.64.67l.27-1.75,1.64.63a111,111,0,0,0,.51-12.32c-3.61,4.4-9.84,2.75-9.84,2.75L69.75,38l-.56,6.68,4.53,4.17,2.81-3.27-1.85-.82S75.82,43.45,76.32,43.42Z"/><path class="cls-11" d="M78.77,38.51l-.15-.14s-1.21-2.07-1.87-2.1a17.32,17.32,0,0,0-3,.66s1,2,1.66,2.22a8.18,8.18,0,0,0,2.66-.57l-.82.67Z"/><path class="cls-11" d="M70.54,33.4,69.75,38l-.56,6.68,4.13,3.79a4.11,4.11,0,0,0,0-.53,52.59,52.59,0,0,0-1.62-9.06c-.07,0,1.89-3.34,3.06-5.31A12.25,12.25,0,0,1,70.54,33.4Z"/><path class="cls-11" d="M77.34,41.84l.93.51,1.6.62a1.23,1.23,0,0,0,0-.19l-2-1,.59-1Z"/><path class="cls-11" d="M76.32,43.42a4.89,4.89,0,0,1,1.64.67l0-.1a2.21,2.21,0,0,0-1.33-.87C75.79,43,74.4,45,74.4,45l1.79,1,.34-.41-1.85-.82S75.82,43.45,76.32,43.42Z"/><path class="cls-16" d="M74,36.93s2.31-.72,2.71-.43,1.8,2,1.94,2.06a.89.89,0,0,0,.3.08L79,37l-.32,1.18-2.31-2.61.11.52L73.29,37Z"/><path class="cls-17" d="M77.25,38.06a5.36,5.36,0,0,0-1.93-.7l1.17,1.47.7-.79Z"/><path class="cls-10" d="M75.62,38.27h0S75.61,38.26,75.62,38.27Z"/><path class="cls-10" d="M76.73,39.37l-.32-.45-.79-.65c.09.09.72,1.12.72,1.12Z"/><path class="cls-10" d="M76.07,37.36,77.4,38l.38-.22C77.34,37.29,76.07,37.36,76.07,37.36Z"/><path class="cls-11" d="M69.78,40.66l.59-2.31A6.72,6.72,0,0,0,68.88,35a10.4,10.4,0,0,0-2.94-2.18s.52,4.21,1.71,6S69.78,40.66,69.78,40.66Z"/><path class="cls-11" d="M66.93,43.93s0,11.41,4.95,15.54c-.41-1.64-1.6-6.77-1.18-10.82Z"/><path class="cls-4" d="M76.8,37.79l-.5.79.11.15.58-.84Z"/><path class="cls-4" d="M34.81,30.52l.78.67s.91-2.1.37-3.44a9.78,9.78,0,0,1-.57-2.92s-1.85.06-1.85.78-.66,2.26-.38,3A6.62,6.62,0,0,0,34.81,30.52Z"/><path class="cls-4" d="M46.6,17s.06-.22-.25-.41-.64-.12-1.43.29a8,8,0,0,0-2.27,1.24c-.79.73-.82,4.51-.82,4.51l1-.47c.5,0,1.48-1.08,1.75-1.81s2-1.08,2-1.08l0-.27a18.65,18.65,0,0,1-2.15.42.38.38,0,0,1-.33-.5A23.82,23.82,0,0,1,46.6,17Z"/><path class="cls-7" d="M52.77,15.94h.74s1-1.92.47-3.1-2.32-2.16-2.57-2.59-1.65.55-1.65.55a13,13,0,0,1,1.59,3.07A4.77,4.77,0,0,0,52.77,15.94Z"/><path class="cls-4" d="M43.8,60.64a2.63,2.63,0,0,0,1,.14,23.36,23.36,0,0,0,.66-4.27,52.66,52.66,0,0,0-2.21-5.75l-.85.22s-.7,5-.46,6A10.2,10.2,0,0,0,43.8,60.64Z"/><path class="cls-4" d="M37.85,64.46C37,64,36.22,61.1,36.22,61.1a5.23,5.23,0,0,0-.95.3c-.38.18.53,3.32.55,4s2.83,3.4,2.83,3.4l.18-.37a6.22,6.22,0,0,0,.43-3.32,10.63,10.63,0,0,1-.09-3.5l-.64-.14S38.75,64.88,37.85,64.46Z"/><path class="cls-6" d="M19.42,55.19l-.32.57a10.55,10.55,0,0,1,2.53,2.41,6.28,6.28,0,0,0,2.77,1.89l.4.12s-.13-3.88-.65-4.37-2.24-3.27-2.63-3.11a5.38,5.38,0,0,0-.86.51s1.7,2.51,1.41,3.46S19.42,55.19,19.42,55.19Z"/><path class="cls-6" d="M93.49,40.33l3.27,1.45a3.54,3.54,0,0,0,.08-.68c0-.33-1.77-1.38-2.14-1.66s-.84-1.61-2.45-1.72-2.17.56-2.17.56l.09,1s.34,1.94,1.39,2.16a11.51,11.51,0,0,1,3,1.77L95,43S92.76,41.27,92.79,41,93.44,40.31,93.49,40.33Z"/><path class="cls-6" d="M96.81,48.21a15,15,0,0,1,3.6.12,5.1,5.1,0,0,0,.12-.63c0-.14-.1-.54-.38-.58a16.18,16.18,0,0,1-3.8-.85c-.87-.5-3.84.11-4.09.43l-.46.8s1.33,2.17,2.62,2.17,3.9.31,3.9.31l.44-.37L96,49.13S95.89,48.47,96.81,48.21Z"/><path class="cls-1" d="M41.6,125.83l.93,2.86s6,.93,6,.11,2.23-10.08,2.23-10.08v-3.1l-2.34,2.25s-2.89,4.38-3,4.78-1.25,4.69-1.25,4.69l-1.35-2,.39-2.73Z"/><path class="cls-6" d="M26.85,42.92c.34-.34,1.37-1.49,1.37-1.49a10,10,0,0,0,.06-1.19,5.81,5.81,0,0,1,.37-1.69l-1.33-.67s-.41.81-.61,1.16a10.73,10.73,0,0,1-1.08,1.23L26,43l.22,1.3A3.73,3.73,0,0,1,26.85,42.92Z"/><path class="cls-8" d="M92.87,118.88a39.84,39.84,0,0,0-1.56,4.35c-.11.8,1.24,4.19,1.43,5.44a10.14,10.14,0,0,1-.24,3.07,5.44,5.44,0,0,0,.82-6.39,19.61,19.61,0,0,0,1.28-3.29Z"/><polygon class="cls-8" points="95.62 132.07 94.7 132.76 95.45 132.57 95.48 132.56 95.62 132.07"/><polygon class="cls-8" points="97.15 131.65 97.46 131.6 97.52 131.42 97.15 131.65"/><path class="cls-8" d="M93,133.06a1.82,1.82,0,0,0-.36,1l2.78-1.48-.75.19.92-.69,1.11-3.78-.34-2.23,1.17,2.55-.89,2.68-1,.78-.14.49h0l1.82-.44.19-.53-.31.05.37-.23.88-2.4-.34-2,1,1.87-.52,1.91-1,.61-.06.18,1.74-.25.43-1,.62-1.2-.08-2s-4.73-8.8-4.81-8.9a5.52,5.52,0,0,0-1.2-.16l-.23,4.35s1.45,5.31,1.57,5.31-.64,3.9-.64,3.9A16.54,16.54,0,0,0,93,133.06Z"/><path class="cls-3" d="M68.91,206.56c1.16-.37-4.94-3.93-9-4.19s-7,2.7-7.45,3a5.41,5.41,0,0,0,1.73,2.51C55.28,208.47,67.74,206.93,68.91,206.56Z"/><path class="cls-3" d="M75.53,122.78c2.11.16,5.57,1.51,5.81,1.27a19.34,19.34,0,0,0,.52-6,33.59,33.59,0,0,0-6.45-1.51,69.9,69.9,0,0,0-8.59,1.19c-.35.28-.83,5.41.08,6S73.43,122.62,75.53,122.78Z"/><path class="cls-3" d="M66.35,108.9c-.72,1.07-1.32,5.13-.28,5.61s7.51-.6,9.78-.36,5.89,2.31,6.09,1.23a47.47,47.47,0,0,0,.08-5.09l.07-.59s-4-1.79-5.84-1.79S67.06,107.83,66.35,108.9Z"/><path class="cls-3" d="M76.49,133.08c1.63,0,4.77,1,4.93.32s0-7.16,0-7.64a14,14,0,0,0-6.36-.87c-3.19.43-7.52.87-7.6,1.15s-.2,6.48.6,7.28S74.86,133.08,76.49,133.08Z"/><path class="cls-3" d="M68.65,100c-.35,1.2-1.63,5.73-1.11,6.21s6.72-.36,8.75-.2,5.33,1.51,5.61,1.47.16-6.48-.12-7.64c0,0-4.93-3.85-6-3.89S69,98.8,68.65,100Z"/><path class="cls-3" d="M76.41,80.23c-.59.16-4.67,2.52-5,3.07a15,15,0,0,0-.92,4.22A5.31,5.31,0,0,0,72.7,89c.31,0,2.41-2.28,3.55-2.28s3.9,2.6,3.9,2.6l.29-.48-.59-1.93.08-3.85S77,80.07,76.41,80.23Z"/><path class="cls-3" d="M76,72.57c-2.58-.75-5.6,5-5.55,5.78a13.09,13.09,0,0,0,.75,2.51,6.89,6.89,0,0,0,1.14.67S75.24,79,76.22,79s3.56,3,3.56,3l.84-4.51S78.57,73.31,76,72.57Z"/><path class="cls-3" d="M69.73,97.35c.08.16,5.33-3.92,6.2-3.95s5.52,4.09,5.57,4-.4-5.73-1-6.68c0,0-3.07-2.89-4.4-2.65S71,91.23,71,91.36,69.65,97.2,69.73,97.35Z"/><path class="cls-3" d="M78.56,155.19a11.93,11.93,0,0,0-5.89,2.43c-.68.75-.56,8.35-.12,8.67s4.93-1.63,6.6-1.2,2.39,2.15,2.87,1.47.07-8.9-.28-9.5A3.67,3.67,0,0,0,78.56,155.19Z"/><path class="cls-3" d="M81.9,168.75a4.58,4.58,0,0,0-3.77-1.32c-2.54.15-4.93,0-5.25,1.43a17,17,0,0,0-.16,5.09c.21.48,4.14,1.75,6.63,1.85s2.92,0,3-.58.22-5.78.16-5.94Z"/><path class="cls-3" d="M64.72,200.88c.42,1.49,6.57,5.47,6.57,5.47s8.17-.22,9.81-.64,1.49-7,1.27-8.11-3.13,1.27-5.41,1.06-6.57-4.4-7.47-4.4S64.29,199.4,64.72,200.88Z"/><path class="cls-3" d="M69.93,142.94c1,.36,6.16-.79,8.82-.44s2,1,2.67.36.64-6.52.28-7c0,0-3.86-.51-5.77-.51s-7,.2-7,1S68.89,142.58,69.93,142.94Z"/><path class="cls-3" d="M71.6,144.89c-2.27.88-.52,9.19,0,9.66s4-1.47,6.4-1.43,3.14,1.71,3.82,1.39-.12-9.5-.12-9.5S73.86,144,71.6,144.89Z"/><path class="cls-3" d="M82.37,177.18h-.85a8.61,8.61,0,0,1-3.12.32c-1-.26-3.45-1.38-4.25-1.33s-2.12,2.5-1.75,4.46,3.08,4.35,5.73,3.66,4.3-.59,4.4-2.07S83.17,177.5,82.37,177.18Z"/><path class="cls-3" d="M76.12,196.64c1.85.53,5.88-2.12,5.88-2.12.32-.53,1.12-8.64.69-9.44s-2.28.9-4.77,1-6-2.28-6.73-2.44-.91,6.73-.8,7.69S74.26,196.11,76.12,196.64Z"/><path class="cls-2" d="M71.48,82.15c0-.11-1.26-2.93-1.26-2.93l-.52-1.48-.34,1.89a20.17,20.17,0,0,0,1.44,3.13C71.13,83,71.48,82.26,71.48,82.15Z"/><path class="cls-18" d="M77.61,142.44a10,10,0,0,1,1.14.06c2.67.36,2,1,2.67.36s.64-6.52.28-7c0,0-2.57-.34-4.55-.47a23.35,23.35,0,0,1,.93,4.49C78,140.27,77.82,141.36,77.61,142.44Z"/><path class="cls-18" d="M78,153.12c2.38,0,3.14,1.71,3.82,1.39s-.12-9.5-.12-9.5-2.15-.27-4.52-.41l-.06.29a10.87,10.87,0,0,1,1,3.74,23.73,23.73,0,0,1-.71,4.52Z"/><path class="cls-18" d="M77.83,184.35l.3-.06c2.65-.69,4.3-.59,4.4-2.07s.64-4.72-.16-5h-.85a10.22,10.22,0,0,1-2.89.37,19.09,19.09,0,0,1-.43,4A14.23,14.23,0,0,0,77.83,184.35Z"/><path class="cls-18" d="M81.34,124.05a19.34,19.34,0,0,0,.52-6,33.59,33.59,0,0,0-6.45-1.51s-.2,3.92-.37,6.27h.49C77.64,122.94,81.1,124.29,81.34,124.05Z"/><path class="cls-18" d="M78.79,175.76a5.46,5.46,0,0,0,.56,0c2.49.11,2.92,0,3-.58s.22-5.78.16-5.94l-.63-.53a4.58,4.58,0,0,0-3.77-1.32,15.32,15.32,0,0,1,1,5.18C79.05,173.83,78.91,175,78.79,175.76Z"/><path class="cls-18" d="M76.22,79c1,0,3.56,3,3.56,3l.84-4.51S78.57,73.31,76,72.57a1.71,1.71,0,0,0-.87,0,10,10,0,0,0,.81,2.08c.72,1.39.11,3.21,0,4.4A1.48,1.48,0,0,1,76.22,79Z"/><path class="cls-18" d="M75.33,133.15c.48,0,.88-.07,1.16-.07,1.63,0,4.77,1,4.93.32s0-7.16,0-7.64a15.13,15.13,0,0,0-4-.92l.38,5.26-1.47-2.51a12.16,12.16,0,0,1,.2,2.35A21.77,21.77,0,0,1,75.33,133.15Z"/><path class="cls-18" d="M73,203.87a14.57,14.57,0,0,1-1.69,2.45l0,0s8.17-.22,9.81-.64,1.49-7,1.27-8.11-3.13,1.27-5.41,1.06h0l-2.18,5.92.55-6.2A26.46,26.46,0,0,1,73,203.87Z"/><path class="cls-18" d="M78.52,165a2.93,2.93,0,0,1,.63.06c1.67.44,2.39,2.15,2.87,1.47s.07-8.9-.28-9.5a3.84,3.84,0,0,0-2.59-1.85l.44,5.35-.92-2.11a19.31,19.31,0,0,1,.2,3.74C78.82,163,78.67,164,78.52,165Z"/><path class="cls-18" d="M80.46,90.7a17.62,17.62,0,0,0-2.86-2.18l-.24,3.72-.67-2.51-.06,4c1.58.93,4.82,3.78,4.87,3.69S81.1,91.65,80.46,90.7Z"/><path class="cls-18" d="M75.89,196.56l.23.08c1.85.53,5.88-2.12,5.88-2.12.32-.53,1.12-8.64.69-9.44-.34-.63-1.58.32-3.34.76L78.71,193l-1.19-5.57a18.39,18.39,0,0,1-.2,4.93A19.23,19.23,0,0,1,75.89,196.56Z"/><path class="cls-18" d="M77.83,108.16,77.2,113l-.35-2.35L76,114.17c2.28.3,5.76,2.27,6,1.21a47.47,47.47,0,0,0,.08-5.09l.07-.59A31.88,31.88,0,0,0,77.83,108.16Z"/><path class="cls-18" d="M76.41,80.23c1.12.22.58,4.7.29,6.62a15.29,15.29,0,0,1,3.45,2.5l.29-.48-.59-1.93.08-3.85S77,80.07,76.41,80.23Z"/><path class="cls-18" d="M76.16,106h.13c2,.16,5.33,1.51,5.61,1.47s.16-6.48-.12-7.64A41.42,41.42,0,0,0,76.16,96a9.34,9.34,0,0,1,.13,3.91A28.24,28.24,0,0,0,76.16,106Z"/><path class="cls-12" d="M66,188.73l-.34-7.17-.54-.61-2.28,9.87s2.18.44,2.52.1A7.41,7.41,0,0,0,66,188.73Z"/><path class="cls-12" d="M30.85,197.8c-.92-.1-1.82-.21-2.71-.33-.54,1.07-1,2.39,0,2.7,1.63.54,7.81,1.73,8.35.34a21.08,21.08,0,0,0,.63-2.12l-2.22-.19a2.08,2.08,0,0,1-2.11,1.31c-2.26-.26-3.06.12-2.56-.63C30.4,198.56,30.64,198.17,30.85,197.8Z"/><path class="cls-12" d="M19.2,197.46c.28-.11,1.29-.62,2.15-1.05-1-.19-1.89-.38-2.73-.59-1.56.49-3.83,1.3-3.24,1.78.9.74,8.63,1.89,9.09,1.61a11.65,11.65,0,0,0,1.6-2L24,196.88c-.39.65-1,1.32-1.71,1.26C20.91,198,18.68,197.68,19.2,197.46Z"/><path class="cls-12" d="M51.65,198.93l-1.78,0a3,3,0,0,0,1.84,2c2.19.5,7.64-1.35,7.62-1.83a4,4,0,0,0-1-1.21,3.34,3.34,0,0,1-.48.32,5.07,5.07,0,0,1-1.45.41,1.73,1.73,0,0,1-1,.5c-2.64.58-3.66,1.2-3.64.66A4.35,4.35,0,0,0,51.65,198.93Z"/><path class="cls-12" d="M39.34,198.55c-.14,1.08,0,2.21.94,2.45,1.91.48,8,1.2,8.23.42a10.59,10.59,0,0,0,.09-2.48l-1.75,0c-.06.72-.32,1.38-1,1.38-1.61,0-3.94-.26-4-.48a5,5,0,0,1,0-1.11Z"/><path class="cls-12" d="M13.6,192c-1.36-.35-3.12-.67-3.76-.23-1.12.75-.8,2.74.67,3.74,1.19.8,4.62,0,5.91-.31a13,13,0,0,1-2.13-.85c-1,.23-2.22.42-2.58,0-.64-.75-.7-1.31-.52-1.31s.87.07,1.84.17C12.92,192.82,13.09,192.42,13.6,192Z"/><path class="cls-12" d="M60.2,196.23,60,196.1a10.57,10.57,0,0,1-1,1.25,2.5,2.5,0,0,0,2,.17,8.83,8.83,0,0,0,3.86-4.21c0-.45-1.72-1.34-2.49-1.46-.25.53-.5,1-.75,1.54.5.14.88.33.81.59C62.19,194.64,62.07,197.23,60.2,196.23Z"/><path class="cls-12" d="M19.83,190.07c-1.14-.45-4,.26-5.3,1-.36.2-.47.43-.43.66a22.52,22.52,0,0,1,6.46-1.18A2.43,2.43,0,0,0,19.83,190.07Z"/><path class="cls-12" d="M23.15,189.67l-.42.7c2.28-.14,4.9-.23,7.8-.29-.07-.16-.12-.3-.15-.38C30.25,189.3,23.15,189.67,23.15,189.67Z"/><path class="cls-12" d="M44.86,189.4a3.12,3.12,0,0,0-1.43.62c2.5,0,5.09,0,7.75.08a2.21,2.21,0,0,0-.09-.24C51,189.62,46.08,189.38,44.86,189.4Z"/><path class="cls-12" d="M56,189.67a3.79,3.79,0,0,0-1.27.48l6.26.1a1.34,1.34,0,0,0-.62-.37A20.2,20.2,0,0,0,56,189.67Z"/><path class="cls-12" d="M40.22,189.67c-.32-.29-5.89-.11-6.63-.11a1.47,1.47,0,0,0-.81.48c2.4,0,5,0,7.65,0A1.18,1.18,0,0,0,40.22,189.67Z"/><path class="cls-12" d="M131.9,184.42a1.09,1.09,0,0,1,.62,0c.2-.24.39-.49.58-.74a13.13,13.13,0,0,0-1.57-1.1c-.9-.45-4.11,3.69-4.22,4.38,0,.23.51.6,1.24,1,.42-.26.83-.55,1.23-.85a1.5,1.5,0,0,1-.14-.18C129.43,186.49,130.63,184.82,131.9,184.42Z"/><path class="cls-12" d="M136.39,177.27q.23-.69.42-1.38a6.76,6.76,0,0,0-2-.54c-.82.06-1.72,4.83-2.15,5.6-.15.28.43.87,1.23,1.5.19-.28.36-.57.54-.87l-.49-.21c-.24-.1.63-3.1,1.48-4.08C135.7,177,136,177.06,136.39,177.27Z"/><path class="cls-12" d="M135.2,159.19c-.21-.36-.42-.7-.65-1a2.09,2.09,0,0,1-.61,0c-.82-.16-1.23-1.55-1.42-2.43a15.38,15.38,0,0,0-1.59-1.41,2.69,2.69,0,0,0-.41.66c0,.16,2.81,3.63,3.29,4.43C134,159.69,134.58,159.51,135.2,159.19Z"/><path class="cls-12" d="M137.72,169.7c0-.54,0-1.09,0-1.64a4.92,4.92,0,0,0-1.23.29c-.77.4-.4,4.06-.48,4.91,0,.32.53.63,1.24.89.09-.43.16-.86.23-1.28h0c-.29-.13-.27-2.17.08-3A.41.41,0,0,1,137.72,169.7Z"/><path class="cls-12" d="M136.65,162.44c-.15-.46-.33-.92-.52-1.37l-1.34.74a29.56,29.56,0,0,0,1.46,4.95c.09.16.65.1,1.33-.06-.05-.45-.11-.91-.19-1.37a3.07,3.07,0,0,1-.53,0,6.33,6.33,0,0,1-.53-2.54C136.33,162.68,136.46,162.55,136.65,162.44Z"/><path class="cls-12" d="M93.8,190.09c0-.34-5.06.35-6.12.35a.57.57,0,0,0-.48.25l6.66.06A6.16,6.16,0,0,1,93.8,190.09Z"/><path class="cls-12" d="M117.69,189.78c-.8-.67-6,.58-7.27.82l-.08,0c2.86-.08,5.46-.2,7.73-.37A1.57,1.57,0,0,0,117.69,189.78Z"/><path class="cls-12" d="M125.53,187.89c-1.8-1.35-3,.72-4.34,1.3a.73.73,0,0,0-.4.82,25.64,25.64,0,0,0,5.86-1.11A8,8,0,0,0,125.53,187.89Z"/><path class="cls-12" d="M106.61,190.44c-.38-.9-6.58-.37-7.69-.29-.33,0-.41.27-.37.61,2.85,0,5.58,0,8.15-.06Z"/><path class="cls-12" d="M129.32,153.16a19.62,19.62,0,0,0-2.09-1.11,30.7,30.7,0,0,0-4.11-1.56c0,.06,0,.12-.05.18-.24.74,4.72,2.62,5.46,2.92C128.72,153.66,129,153.48,129.32,153.16Z"/><path class="cls-12" d="M120.79,150.54c.53.06.74-.15.78-.46a21.34,21.34,0,0,0-6.45-.56.63.63,0,0,0,0,.2A51.91,51.91,0,0,0,120.79,150.54Z"/><path class="cls-6" d="M58.33,92.17c.24-.37,1-1.93,1-1.93l-.34-.48a11.06,11.06,0,0,0-2.1.25c-.58.2-1.47,2.1-1.72,2.45a4.09,4.09,0,0,0-.41.79L56,94A21.25,21.25,0,0,0,58.33,92.17Z"/><path class="cls-6" d="M44.89,87.25V83.31s-1-4.45-1.83-5l-1.61.3s-.83,4.93-.73,5.25,2.54,3.36,2.56,3.48A7.2,7.2,0,0,0,44.89,87.25Z"/><path class="cls-12" d="M63.23,90.2A7.76,7.76,0,0,1,61.16,89q-.7.88-1.41,1.83c1.12.75,3,1.92,3.53,1.72.83-.3,4.75-4.11,3.85-5a24.06,24.06,0,0,0-3-2.09c-.35.4-.7.8-1,1.22,1.08.4,2.49,1.08,2.06,1.72C64.45,89.43,64.27,90.41,63.23,90.2Z"/><path class="cls-12" d="M67.18,93.61a3.15,3.15,0,0,0,1-1.85c-.06-.4-1.08-.89-1.08-.89l-.51.27s-1.36,1.14-.86,1.77A1.61,1.61,0,0,0,67.18,93.61Z"/><path class="cls-12" d="M68.91,84.22l-2.65-1.16-1,1c.84.28,2.23.76,2.69.94C68.65,85.3,68.91,84.22,68.91,84.22Z"/><path class="cls-12" d="M63.07,69.93c0-.08-.44-1.24-.6-1.1a24.59,24.59,0,0,1-2.7.35l.48.88A17.8,17.8,0,0,0,63.07,69.93Z"/><path class="cls-12" d="M68.73,76c1.12-.47,2.31-2.7,2.31-2.76s-.28-.72-.54-.62-1.87,2.19-2,2.05a12.7,12.7,0,0,1-.67-1.51,17.93,17.93,0,0,1-3,.77A20.73,20.73,0,0,0,63.56,71a12.18,12.18,0,0,0-2.56.51l.68,1.26c.66-.17,1.38-.34,1.51-.14.23.38.87,1.37.65,1.55a5.83,5.83,0,0,1-1,.71l.49.92a20.55,20.55,0,0,1,3.92-1.11c.34.18.82,1.29.82,1.29S67.62,76.43,68.73,76Z"/><path class="cls-12" d="M66,79.47l-.68.07.55,1c1-.14,2-.38,1.92-.8A7,7,0,0,0,66.61,77a18.19,18.19,0,0,0-2.28.69l.5.93c.5-.17,1-.27,1.12-.11C66.23,78.86,67.18,79.35,66,79.47Z"/><path class="cls-12" d="M54.77,66.63A7.83,7.83,0,0,0,51.83,65a7.41,7.41,0,0,0-3.43.26c0,.26-.08.52-.11.78.32,0,.67,0,1,0a13.67,13.67,0,0,1,3.34.51A7.68,7.68,0,0,0,54.77,66.63Z"/><path class="cls-12" d="M51.73,57.64a10.62,10.62,0,0,0-2-.22c-.11.48-.22,1-.33,1.6h1.3l-.11.55s2.94.56,3.63.56.77-.53.72-.71a22.39,22.39,0,0,0-3.61-.88C51.22,58.54,52,57.82,51.73,57.64Z"/><path class="cls-12" d="M62.44,51c-.23-.44-2.8-1.58-4.48-2.29-.82.5-1.66,1-2.48,1.59.47.11.85.2,1,.25A46.3,46.3,0,0,1,61,52.15a7.43,7.43,0,0,1-.27,2,37.29,37.29,0,0,1,4.19,1.72,55.94,55.94,0,0,1,4.22,4.29s-1.75-4.61-3.85-5.72a13.35,13.35,0,0,1-2.73-1.75A2.89,2.89,0,0,0,62.44,51Z"/><path class="cls-12" d="M51.59,61.64a4.71,4.71,0,0,0-2.6-.17c-.09.52-.17,1.06-.26,1.62,1-.13,2.35-.28,2.73-.28.66,0-.61.5-.72.5S56,64.48,56,64.48l-3.32-1.7S53.82,62.41,51.59,61.64Z"/><path class="cls-12" d="M52.23,54.3a2,2,0,0,1-1.33-.12,4.59,4.59,0,0,0-.34.52,2.63,2.63,0,0,0-.15.33,15.41,15.41,0,0,0,2.3.33c.95,0,1.61-1.56,1.61-1.67a4,4,0,0,1,1.83.4c0,.18-.55,2.3-.58,2.44s2.6.55,3.82.9a6.08,6.08,0,0,1,2.25,1.35S63.26,60.1,63.58,60s-.64-2-1.36-2.68S58.88,56.08,58,55.65s.55-1.14.29-2.44c-.17-.8-2.55-1.38-4.35-1.76-.51.38-1,.76-1.43,1.13a2.76,2.76,0,0,1,1.16.68C53.71,53.56,53.29,53.93,52.23,54.3Z"/><path class="cls-12" d="M73.59,53.75l.22,4.34,1-3.13C74.37,54.54,74,54.13,73.59,53.75Z"/><path class="cls-12" d="M76.92,57.41l-2.16,3.76.67.84s1.64-1.34,2.73-2.27A11,11,0,0,0,76.92,57.41Z"/><path class="cls-18" d="M118.83,154.65c1.59-.82,2.86-5.28,2.38-5.36,0,0-6-1.59-6.89-.85s-1.86,5.86-.74,6.23S117.24,155.47,118.83,154.65Z"/><path class="cls-18" d="M113.27,153.92s1.26-4.83.82-5.29-3.72-1-4.34.16-.65,4.79,0,5.07S112.74,154.32,113.27,153.92Z"/><path class="cls-3" d="M110.16,150.91a5.51,5.51,0,0,0-.86.14c-.08,1.31.06,2.64.45,2.81.66.28,3,.46,3.52.06,0,0,.07-.26.17-.67a3.07,3.07,0,0,1-2.06-.18c.16,0,1.55,0,2.1,0l0-.07-2.67-.77h2.79l-2.72-.74,2,.28A3,3,0,0,0,110.16,150.91Z"/><path class="cls-3" d="M114.09,148.63a2,2,0,0,0-.76-.33.26.26,0,0,0-.06.12,14.87,14.87,0,0,1,.67,2.52A4.85,4.85,0,0,0,114.09,148.63Z"/><path class="cls-18" d="M109.67,149.66c-1-.69-3.44-.53-4.09,1.3s-.56,3.79.73,3.87,3.66-1.33,3.52-1.55C109.83,153.28,110.63,150.36,109.67,149.66Z"/><path class="cls-3" d="M107.4,151.49a6.33,6.33,0,0,0-2.22,1.41c0,1.06.31,1.88,1.13,1.93,1.3.08,3.66-1.33,3.52-1.55,0,0,.8-2.92-.16-3.62a1.58,1.58,0,0,0-.45-.23,4.1,4.1,0,0,1,0,.74,6.13,6.13,0,0,1-.46,1.75c-.12.05-1.69.17-1.69.17l1.22-.41S108.18,151.41,107.4,151.49Z"/><path class="cls-18" d="M103.45,156.44c1.33,0,2.74-1.31,2.61-1.75l-.14-.43s-.06-2.51-.8-2.87-4,1.55-3.38,2.75S102.12,156.42,103.45,156.44Z"/><path class="cls-18" d="M102.22,154.3c-.52-.48-3.38,1.65-4.08,3.22s2,.49,3.32.12a2.22,2.22,0,0,0,1.65-1.73l-.4-.24A2,2,0,0,0,102.22,154.3Z"/><path class="cls-3" d="M98.25,157.3a2.26,2.26,0,0,0-.11.22c-.69,1.57,2,.49,3.32.12a2.22,2.22,0,0,0,1.65-1.73l-.4-.24a2,2,0,0,0-.49-1.37c-.17-.16-.59,0-1.11.26a6,6,0,0,1,.77,1.55,9.73,9.73,0,0,1-1.51,1l.4-1Z"/><path class="cls-3" d="M102.83,154.79a5.08,5.08,0,0,1-.74.22c0,.14.09.28.13.41l.6.89a1.38,1.38,0,0,0,.63.13c1.33,0,2.74-1.31,2.61-1.75l-.14-.43s-.06-2.51-.8-2.87a1.3,1.3,0,0,0-.84.08,3.83,3.83,0,0,1,1.25,2.41c-.06,1.32-1.72,1.72-1.76,1.71s1.27-1.15,1.32-1.23-1.55.65-1.55.65l1.11-1.19A4.92,4.92,0,0,1,102.83,154.79Z"/><path class="cls-3" d="M104.68,153.79l0,0Z"/><path class="cls-3" d="M116.07,151.12h0Z"/><path class="cls-3" d="M113.22,151.62c-.23,1.44-.21,2.86.36,3,1.11.37,3.66.8,5.25,0,1.32-.68,2.41-3.86,2.48-5a20,20,0,0,1-2.48,3.64c-1.22,1.23-3.34.09-3.44.09s2.76-1.06,2.76-1.06h-2.86l2-.65-3,.23s1.59-.74,1.75-.8C115.9,151.16,114.18,151.45,113.22,151.62Z"/><path class="cls-12" d="M49.92,101.62a6,6,0,0,1,1.56.72c0-.67.05-1.34.08-2a13.24,13.24,0,0,0-2.31-.91,5.73,5.73,0,0,0-2.75.91c0,.46.07.93.11,1.41A7.58,7.58,0,0,1,49.92,101.62Z"/><path class="cls-12" d="M50.2,98.32a10.25,10.25,0,0,1,1.43.37c0-1.1.09-2.15.13-3.12a12,12,0,0,0-2.51-.63,8.7,8.7,0,0,0-3.18.08c0,.68.11,1.41.17,2.19a4.81,4.81,0,0,1,2.13-.16C50.52,97.45,48.05,97.92,50.2,98.32Z"/><path class="cls-12" d="M50.17,118.63c.1.06.22.11.34.17l.29-.08s0-1.07.11-2.79a2.54,2.54,0,0,0-1.09-.27,5.24,5.24,0,0,0-2.08.37c0,.38.06.73.08,1l2.34-.28S49.68,118.34,50.17,118.63Z"/><path class="cls-12" d="M51,113.33a1.16,1.16,0,0,0-.7-.17,4.36,4.36,0,0,0-2.57,1s2-.6,3.22.39C51,114.13,51,113.73,51,113.33Z"/><path class="cls-12" d="M50.8,108.09a3.36,3.36,0,0,1,.43.31c0-.37,0-.74,0-1.12-1.08-.69-2.51-1.38-3.48-.83-.29.16-.54.31-.77.46l.15,1.87C48.34,108.23,50,107.63,50.8,108.09Z"/><path class="cls-12" d="M50.76,111.25a3.28,3.28,0,0,1,.33.47c0-.54,0-1.11.07-1.69a1.82,1.82,0,0,0-1.07-.41,2.86,2.86,0,0,0-2.63,1.76S49.54,109.76,50.76,111.25Z"/><path class="cls-12" d="M51.4,104.18a10.49,10.49,0,0,0-1.28-.62c-1.1-.43-3,1-3,1s2.9.11,4.18,1.3l0,0C51.35,105.33,51.38,104.76,51.4,104.18Z"/><path class="cls-12" d="M45.83,92c0,.36.06.77.1,1.21A10.69,10.69,0,0,0,49,93.17c0-.22.4-4.55-.82-5.66a2.73,2.73,0,0,0-2.3-.42q0,.61-.09,1.14a3.89,3.89,0,0,1,1.06,0c.68.14,1.33,2.69,1.13,3.38C47.88,92,46.79,92,45.83,92Z"/><path class="cls-12" d="M51.91,77.68s.08-1.27-.48-1.55A22.29,22.29,0,0,0,47,76.06c-.08.67-.16,1.34-.23,2a4.73,4.73,0,0,1,1.3-.58A5.36,5.36,0,0,1,51.91,77.68Z"/><path class="cls-12" d="M46.1,84.74c0,.41-.07.81-.11,1.18a3.8,3.8,0,0,0,.81.21c1.55.24,2.63-.2,2.45-.53s1.19-4.84.75-6.07c-.3-.84-2.13-.39-3.37,0-.06.59-.13,1.17-.18,1.73a8.6,8.6,0,0,1,1.9-.31c0,.16-.14,3.56-.14,3.56S47,84.63,46.1,84.74Z"/><path class="cls-12" d="M88.82,100.46a4.27,4.27,0,0,1,1.15.18c-.18-.59-.36-1.17-.53-1.74a4.2,4.2,0,0,0-3,.68c-1.75,1.78-1.78,2.12-1.78,2.12A8.27,8.27,0,0,1,88.82,100.46Z"/><path class="cls-12" d="M93.72,113l-.5-1.67a6.78,6.78,0,0,0-4.17,1.44l.74,1.52A6.28,6.28,0,0,1,93.72,113Z"/><path class="cls-12" d="M86.3,88.63l-.25-1.06c-.71.15-1.26.41-1.4.85-.45,1.46.48,6.5,1.89,7.37a5.26,5.26,0,0,0,2.12.57l-1.29-4.23c-.38-.74-.67-1.37-.5-1.62Z"/><path class="cls-12" d="M94.6,116c-.14-.45-.28-.93-.43-1.42a3,3,0,0,0-1.14.31,6.49,6.49,0,0,0-2.13,1.76l.6,1.23A6,6,0,0,1,94.6,116Z"/><path class="cls-12" d="M84,79c-.88.19-1.84.57-2,1.32-.32,1.41.61,5.57,1.43,5.89a6.48,6.48,0,0,0,2.35,0c-.16-.64-.34-1.39-.54-2.22-.36.17-.69.28-.85.17-.46-.29-1-3.1-1-3.1l1.09-.13C84.29,80.31,84.13,79.68,84,79Z"/><path class="cls-12" d="M92.83,110.07c-.55.07-1.1.13-1.55.2-.86.12.52.47,1.84.75C93,110.71,92.93,110.39,92.83,110.07Z"/><path class="cls-12" d="M92.36,108.51c-.24-.8-.49-1.61-.74-2.43a3.66,3.66,0,0,0-2.14-.06,10.09,10.09,0,0,0-2.79,2l1,2.08c1.08-.84,2.59-1.88,3.36-1.85A5.37,5.37,0,0,1,92.36,108.51Z"/><path class="cls-12" d="M91.09,104.34c-.17-.58-.35-1.15-.52-1.73a9.59,9.59,0,0,0-3.37.18,5.87,5.87,0,0,0-2.27,1.58l.89,1.83c1.05-.82,2.51-2,3.71-2A8.26,8.26,0,0,1,91.09,104.34Z"/></g></g></svg>