<svg xmlns="http://www.w3.org/2000/svg" xmlns:xlink="http://www.w3.org/1999/xlink" viewBox="0 0 558.43 333.06"><defs><style>.cls-1{fill:#630606;}.cls-2{fill:#a395ba;}.cls-3{fill:#251638;}.cls-4{fill:#7c6599;}.cls-5{fill:#020202;}.cls-6{fill:#4f0707;}.cls-7{fill:#aa3c3c;}.cls-8{fill:url(#Degradado_sin_nombre_12);}.cls-9{fill:#2c2435;opacity:0.25;}.cls-10{fill:#20132d;}.cls-11{fill:url(#Degradado_sin_nombre_12-2);}.cls-12{fill:#0b0c0a;}.cls-13{fill:#7f1212;}.cls-14{fill:#ed7777;}.cls-15{fill:#bc4646;}.cls-16{fill:#d8d1b6;}.cls-17{fill:#fff800;}</style><linearGradient id="Degradado_sin_nombre_12" x1="453.05" y1="47.11" x2="343.01" y2="108.5" gradientUnits="userSpaceOnUse"><stop offset="0" stop-color="#9e0000"/><stop offset="1" stop-color="#ffb600"/></linearGradient><linearGradient id="Degradado_sin_nombre_12-2" x1="9.39" y1="88.27" x2="314.46" y2="88.27" xlink:href="#Degradado_sin_nombre_12"/></defs><title>fire_guard</title><g id="Layer_2" data-name="Layer 2"><g id="Capa_1" data-name="Capa 1"><path class="cls-1" d="M374.54,201.79s.7.79.86-.1l.16-.88s1.65.18,2.28.27l.63.1a.63.63,0,0,0,.83-.41c.18-.63.39-1.28.39-1.28l2.15.57a2.06,2.06,0,0,0,1.53-.33,3.41,3.41,0,0,0,.87-1.77s1.08.13,1.28.13.76,0,.92-1.16a4.54,4.54,0,0,0-.1-1.93l-9.15-6.15-3.93-1.07c-.08.12-.83,5.12.08,7.68a7.27,7.27,0,0,1-.08,4.66A19.85,19.85,0,0,0,374.54,201.79Z"/><path class="cls-2" d="M516.46,134.17c-2.89,2.22-28.93,13.73-28.93,13.73s-4.08,4.1-3.93,4.43,67.64-29.88,67.64-29.88l-5.92-.49-19.19,1.18s3,2.3.83,4.37-8.36,1.93-8.36,1.93S519.34,132,516.46,134.17Z"/><path class="cls-3" d="M547.58,127.09l3.63-4.71s-67.79,29.54-67.64,29.88,5.93.08,5.93.08,26-11.5,29.62-12.14,5,1.6,5,1.6,4-4.62,7-4.87,2.67,3.55,2.67,3.55Z"/><rect class="cls-3" x="240.27" y="197.13" width="263.29" height="4.72" transform="translate(-48.47 162.14) rotate(-23.13)"/><path class="cls-4" d="M488,156.68a3.43,3.43,0,0,0,1.8-4.47L487.53,147a3.4,3.4,0,0,0-6.26,2.68l2.22,5.17A3.4,3.4,0,0,0,488,156.68Z"/><path class="cls-4" d="M467.37,164.38h0a3.42,3.42,0,0,0,1.79-4.47l-1.42-3.34a3.42,3.42,0,0,0-4.47-1.79h0a3.42,3.42,0,0,0-1.79,4.47l1.43,3.34A3.4,3.4,0,0,0,467.37,164.38Z"/><path class="cls-5" d="M298.73,236.42h0a3.41,3.41,0,0,0,1.8-4.46l-1.43-3.34a3.41,3.41,0,0,0-4.47-1.79h0a3.42,3.42,0,0,0-1.79,4.47l1.43,3.34A3.41,3.41,0,0,0,298.73,236.42Z"/><rect class="cls-5" x="248.73" y="246.73" width="8.09" height="7.29" rx="3.4" transform="translate(-78.04 119.43) rotate(-23.13)"/><path class="cls-4" d="M504.45,125.6s13.18,1.3,19.63-6.18c0,0-12.32,4.86-19.39,1.66,0,0-21.13,12.84-22.15,21.91,0,0,4.37,5.76,4.72,7.22l8.26-3.53s-3.16-5.18-6.63-6.3C488.89,140.38,496.52,130.89,504.45,125.6Z"/><path class="cls-2" d="M504.45,125.6s13.18,1.3,19.63-6.18c0,0-.21.09-.59.22-5.09,2.41-16.17,7.12-19.39,4.2,0,0-17,12.07-18,17.11,0,0,6.51,2.84,8.76,6l.61-.26s-3.16-5.18-6.63-6.3C488.89,140.38,496.52,130.89,504.45,125.6Z"/><path class="cls-3" d="M495.42,146.42,487.15,150c.81,1.26,2,8.4,2,8.4,7.26,5.53,31.14-.86,31.14-.86,2.58-7.32,14.61-12.86,14.61-12.86-9.86-.5-18,9.91-18,9.91-9.3,2.07-21.43,1-21.43,1C497,152.28,495.42,146.42,495.42,146.42Z"/><path class="cls-2" d="M517.84,156c.12-4.33,11.19-9.09,16.44-11.1l.57-.28c-9.86-.5-18,9.91-18,9.91-9.3,2.07-21.43,1-21.43,1,1.59-3.29,0-9.15,0-9.15l-.62.26c.72,3.8-1.72,10.48-1.72,10.48C497.38,159.93,517.84,156,517.84,156Z"/><path class="cls-3" d="M482,152.55l14.92-6.37-9.53-1.76S485.4,150.13,482,152.55Z"/><path class="cls-4" d="M496.88,146.18,482,152.55c4.13-.81,9.6,1.73,9.6,1.73Z"/><path class="cls-6" d="M257.11,35.68s-8.81-14.79-26.76-17.94-49.43-1.89-49.43-1.89L184.7,31C229.72,14.9,257.11,35.68,257.11,35.68Z"/><path class="cls-6" d="M370.76,34.42c17.32,2.52,27.08,8.19,27.08,8.19l15.74-20.15a278.56,278.56,0,0,0-52.26,3.46c-22.35,3.78-20.78,17-20.78,17S353.45,31.91,370.76,34.42Z"/><path class="cls-7" d="M212.64,265.19,231.3,251.5l-10.39-27.41-.95,21.5-1.89,8.27-4-17.48-2.13,21-6.13,10.39-1.89-17s-4.4,11.13-2,17.84S212.64,265.19,212.64,265.19Z"/><polygon class="cls-7" points="349.36 253.38 352.82 262.83 342.43 254.49 353.61 269.76 357.43 257.86 354.39 239.69 342.27 233.24 349.67 242.05 354.08 251.34 342.27 242.52 349.36 253.38"/><path class="cls-8" d="M311.82,104.3l-8.88,17.91-3,43s39-37,48.3-37.95C371.12,125,405.67,134,405.67,134s-4.71-18.16.63-22.89S429.1,107,429.1,107s-9.14-20-.83-27.73,22.07-2,30.38-3.15,11.47-17.72,24.2-20.24,23.47-5,23.47-5-13.17-10.3,4.83-22.95S549.6,14.5,549.6,14.5L518.53,3S431.37,12,422.32,15.32s-49.49,16.12-49.49,16.12l3.3,19.62L336.65,83.38Z"/><path class="cls-9" d="M311.82,104.3l-8.88,17.91,4.65,4.75c7.17-6.75,19.29-26,46.2-24.76,22.89,1.06,44.07,22.64,51.81,31.45a67.52,67.52,0,0,1-1.81-12c-8.78-4.86-27.24-15.62-24-18.69,2.26-2.16,14.89,3.2,26,8.59a4.93,4.93,0,0,1,.5-.52c3.24-2.86,10.93-3.75,16.49-4-20.93-12.76-48-29.59-48.74-31.65C372.88,72.05,409,94.17,409,94.17s-22.09-28.79-10.55-30.91C405.46,62,417,75.28,425,86a11.28,11.28,0,0,1,3.26-6.67c6.4-6,16-3.91,23.93-3.19-6.67-5.56-11.53-11.29-8.05-14.25C448,58.57,461.4,59,474.4,60.37a17.35,17.35,0,0,1,8.45-4.48c12.72-2.53,23.47-5,23.47-5a14,14,0,0,1-2.69-3.06L458,42.48l-30.65,8.85s-26.22-20.56,9.56-25.81c21.11-3.09,47.57,4.75,65.71,11.7,1.24-2.84,3.81-6,8.51-9.28,18-12.64,38.45-13.44,38.45-13.44L518.53,3S431.37,12,422.32,15.32s-49.49,16.12-49.49,16.12l3.3,19.62L336.65,83.38Z"/><path class="cls-10" d="M423.86,107.89c3.69,2.64,6.16,4.37,6.75,4.47S428.5,110.74,423.86,107.89Z"/><path class="cls-6" d="M275.2,126.86s8,6.77,14.26-4.76,31.22-20.73,34.82-21.95,41.43,30.43,41.43,30.43,6.86-2,16.15-4.29,29.73,12.5,29.73,12.5-16.37-14.13-25.17-16.44-20.05,3.22-20.05,3.22l-33.1-29.78a174.42,174.42,0,0,1,26.36-15.12c10.15.44,23.24,1.92,30.87,5.81,11.35,8,25.23,16.42,33.36,21.41l-4.76-3.4c12,7.7,23,14.75,23,14.75l6.73-.27S379.48,80.9,373.1,65.64c4.41-8.13,21.49-14.2,21.49-14.2S422.62,62.5,424,65.1s42.76,14.79,42.76,14.79l-42.06-23S453.62,47.47,457.09,46,515,52.49,515,52.49L457.38,38.66s-13.52,7.12-38.15,10S373.5,33.89,373.5,33.89l1.91-.68,1.4,0,2.85-1.48c6-2.12,16.08-5.6,28.15-9.6C427.74,15.5,522.37,6.47,522.37,6.47l36.06,12.45L523.19,1.29c-19.81-3.21-47.34,0-74,5.17C444,5.37,437.45,4.27,437.45,4.27S440.29,6,443,7.71c-4.31.89-8.59,1.83-12.78,2.8a2.53,2.53,0,0,1-.33-.16c-2.87-1.68-27-.43-27-.43s9.14,2.23,15.12,3.52c-10.37,2.59-20,5.24-28.2,7.63-6.83.1-16.9.26-17.4.62-.34.24,3.09,1.46,6.55,2.61-10.31,3.15-16.62,5.3-16.62,5.3s6.2,5,7.38,12.23a105.84,105.84,0,0,0-13.58,6.11c-.89.63,7.3-.15,13.43-.6a19.52,19.52,0,0,1-5.31,9.21l-24.63,5.57,17.56.26c-2.72,1.95-5.83,4.1-9.2,6.37-8.08,1.67-24.78,5.16-25.14,5.54s8.5,1.12,14.33,1.59c-3,1.93-6,3.89-9.1,5.84-7.31.58-18.85,4-18.85,4l6.49.63,3.61.88c-18.88,11.84-36,22.09-36,22.09Z"/><path class="cls-11" d="M156.64,12.91c-11.06-2.09-113.5,3.5-113.5,3.5L9.39,35.18s23.77-2.82,46.93,8.24,9.84,25.16,9.84,25.16,12.89.84,28.06,1.39,21.89,18.73,31.72,18.56,24.66-9.26,35.71-2,4.19,31.62,4.19,31.62,20-3.93,27.1.45,5,25.85,5,25.85,27.37-26.21,49.22-10.81c20.13,14.19,30.23,30.43,30.23,30.43l37.1-51.68-13.58-18.7L268.3,74.51,216.67,45.05l.17-22.87S167.71,15,156.64,12.91Z"/><path class="cls-9" d="M156.64,12.91c-11.06-2.09-113.5,3.5-113.5,3.5L9.39,35.18s23.77-2.82,46.93,8.24c6,2.89,9.6,6,11.56,9,19.68-11.19,48.8-24.91,73.78-25.25,42.32-.57,15.83,27.53,15.83,27.53l-37.07-4.45L68.71,64.62a16,16,0,0,1-2.55,4s12.89.84,28.06,1.39a20.57,20.57,0,0,1,10.6,3.55c14.77-3.91,30.17-6.85,35.23-3.85,4.57,2.72,0,10.11-6.65,17.64,9-2.26,19.73-6.36,28.25-.75a13,13,0,0,1,5,7C173.91,80,184.79,62.77,193.13,63c13.73.3-6.45,37-6.45,37s37.63-31.69,36.91-27.65c-.45,2.47-28.63,26.5-50.45,44.8,6.47-.73,15.53-1.13,19.8,1.53a5.3,5.3,0,0,1,.67.5c11.89-8.15,25.49-16.53,28.5-14.49,4.28,2.9-15.05,18.47-24.3,25.58a77.09,77.09,0,0,1,.13,13.9c7.31-11.41,27.78-39.75,54-45.13,30.87-6.32,48.45,13.32,58,19.68l4.48-6.25-13.58-18.7L268.3,74.51,216.67,45.05l.17-22.87S167.71,15,156.64,12.91Z"/><path class="cls-10" d="M172.05,118.22c-4.83,4.08-7.71,6.55-7,6.3S168.27,121.88,172.05,118.22Z"/><path class="cls-6" d="M124,7.75c-31.81-1-64.22.38-86.53,7.63L0,41.81l39.37-20.7s111-7,135.3-3.15c14.7,2.33,27,4.45,34.32,5.76l3.57,1.16,1.62-.23,2.34.43s-21.13,23.75-50.12,25-45.94-4.33-45.94-4.33L56.38,72s61.48-19,65.77-17.93,39.49,6.51,39.49,6.51l-44.35,33.7S162.89,72.89,164,69.69s31.42-20.86,31.42-20.86,20.87,3.78,27.49,12.2c-4.55,18.48-77.62,74.31-77.62,74.31l7.83-.91s11.35-10,23.83-20.93l-4.87,4.72C180.52,111.08,195,99,206.63,87.85c8.1-5.81,23-9.87,34.6-12.22A206.69,206.69,0,0,1,274.5,88l-32.72,39.83s-14-4.24-23.77,0-26,23.25-26,23.25,20.88-20.57,32-19.61,19.47,1.93,19.47,1.93,37.84-42.8,42.23-42.08,34.91,6.63,44.32,18.56,17.36,2.8,17.36,2.8L334.72,94.24S313,85.73,289,75.74l4-1.65,7.38-1.9s-14-1.79-22.53-1.12c-3.92-1.65-7.81-3.32-11.61-5C272.9,64.51,283,62,282.52,61.69S262.07,60.41,252.43,60c-4.32-1.95-8.31-3.82-11.81-5.54L260.86,51l-29.5-1.84a22.46,22.46,0,0,1-7.85-9.48c7.17-.6,16.78-1.21,15.63-1.77a125.3,125.3,0,0,0-16.83-4.45c0-8.46,6.26-15.22,6.26-15.22s-7.69-1.3-20.19-3c3.79-1.93,7.52-3.94,7.09-4.16-.65-.31-12.32,1.35-20.24,2.47-9.93-1.2-21.53-2.46-34-3.51,6.67-2.56,16.82-6.75,16.82-6.75S150,6.22,147,8.66a2.36,2.36,0,0,1-.35.23c-5-.33-10.14-.62-15.29-.85,2.81-2.43,5.78-4.91,5.78-4.91S129.74,5.57,124,7.75Z"/><path class="cls-6" d="M103.38,218.12l-5.8-38.71s-24.86,64.06,38.12,67.75,34-50.23,60.91-73.28,69.7-1.63,74.63-2.43,26.6-10.34,26.6-10.34l-.54-11.65s-78.31-19.82-111,18,3.73,71.89-46.41,72.35S98,212.13,98,212.13Z"/><path class="cls-12" d="M291.72,55.05c.07.07.24,0,.52-.06C291.85,55,291.65,55,291.72,55.05Z"/><path class="cls-12" d="M286.21,61.18c-8,5.51-23.46,12-22.67,12s18.26.63,18.26.63-5.35,6.14-10.55,11-1.57,13.38-1.57,13.38L276.92,90s-5,22.35-2.83,25.19,9.44,12.59,10.07,12.59,9.29,2.52,10.71,2.2,11,.43,14.95-1.1,58.56-12,58.4-13.06S375.3,83.54,347.13,84L353,77.08s4.57-4.88-6-16.37-26.92-14-26.92-14l6.46,6.3s-6.77-6.3-18.11-3.78A69.22,69.22,0,0,0,292.24,55c2.19.15,10.5,1.63,10.5,1.63A26.67,26.67,0,0,0,286.21,61.18Z"/><path class="cls-13" d="M282,196c1.56-7.24,20.45-29.59,20.45-29.59l15.66,13.16s8.14,19.52,14,23.62,34.36,34.92,34.36,34.92l1-1a11.76,11.76,0,0,1,2.64-1.85,99.33,99.33,0,0,0-.8-13.31c-.88-6-11.47-32.17-17.42-38.88s-15.36-17-19.25-19.64S320.12,147,320.12,147l-37.29,5.33c-9.14,1.35-12.18,14.36-20.9,18.57s-25,34.63-25,44-7.65,31.2-7.65,31.2,15.8-9.64,22.31-15S280.43,203.24,282,196Z"/><path class="cls-14" d="M325.74,171.22c5.07,1.39,14.12,19.13,14.12,19.13l-9.8-9.65,4.45,7.71c4.45,7.71,12.2,16.69,23.41,20.09,3.87,1.18,7.11,4.05,9.75,7.52-3.39-10-11.05-27.65-15.78-33-6-6.71-15.36-17-19.25-19.64-3.6-2.43-11.24-14.35-12.38-16.14l-.82-.13-.86.13c.84,1.84,5.82,12.69,6.84,14.46C324.27,160,317,149.15,317,149.15l-2.94-.15,10,15.25-14.25-6.84,11.45,9-16.48-2.23S320.67,169.83,325.74,171.22Z"/><path class="cls-14" d="M290.66,154c.13,0,.16,0,0,0Z"/><path class="cls-14" d="M257.88,211.22l-7.66,21c.48-.37.93-.72,1.34-1.06,6.51-5.34,28.87-27.91,30.42-35.15,1.47-6.82,18.34-27.08,20.26-29.38l-3.15-4.5-15.87,17.72,12.3-23.42-14.12,19s8.16-20.84,9.26-21.41c-.88.17-6.42,1.13-6.42,1.13l-13.4,33.13,1.09-11.06S264,194.56,257.88,211.22Z"/><path class="cls-1" d="M305,174.19c5-2.09,23.74-35.62,23.74-35.62l-8.55,6.71,2.61-7.39-6.93,4.67-31,5-5.9-4.39.79,5.34s-7.27-5.74-7.74-6.26,4.4,8.7,4.4,8.7l-4.72-1.64S300,176.29,305,174.19Z"/><path class="cls-13" d="M380.26,197.66c-.55.55-.39,2.28-.39,2.28l7.4-5.19s-.71-4.49-.95-5.59-7.83-2.83-7.83-2.83l-2.4,2.44s1,3.62,3.15,4.72,5.27-.87,5.27-.87v1.5S380.81,197.11,380.26,197.66Z"/><path class="cls-1" d="M366.15,137.48l-3.23,11.31,11.86,33.92,1.72-.49,2.25-13.36s-4.11,8.07-4.35,8-.56-2.57-.55-5-1.25-12.65-1.48-13.59-1.34,8.7-1.38,9-1.53-6-1.53-6l.84-13.34s-3.06,9.1-3.39,9.06-1.76-2.27-1.76-2.27a71.52,71.52,0,0,0,1-7.41C366.27,144.25,366.15,137.48,366.15,137.48Z"/><path class="cls-1" d="M355.08,149.87l3.91-3.79s-7.78-29.69-12-44c-.75-2.59-1.84-5.61-3.1-8.81-1.54.67-3.1,1.31-4.7,1.93q-5.1,1.92-10,3.91c5.85,15.89,13.3,35.35,16,39.9C350,146.92,355.08,149.87,355.08,149.87Z"/><path class="cls-13" d="M342.18,126.83l-.06,0C342,126.73,342.06,126.75,342.18,126.83Z"/><path class="cls-13" d="M338.32,141c-.34.45,1.18,1,3.18,1.55,3.52,4.07,11.26,13.81,14.12,17.34,3.63,4.5,6.78,6.84,9.28,11.56s7.55,14.26,7.55,14.26L371,188.37l7.78,5.83,3.4-6.87-2.14-.78-.76-2.2c0-.33-8-19-12.66-32.22a80.6,80.6,0,0,0-8.75-17.6c-.09-2.67-.51-6.76-2-7.49-1.17-.56-1.32,1.2-1.25,3-.22-.25-.33-.35-.32-.3.11.4.24.91.38,1.44.08,1.18.17,2.15,0,2.16-.42,0-11.94-6.19-11.94-6.19l0,0-.57-.37c1.06,1.08,5.2,14.3,5.2,14.3S339.2,139.87,338.32,141Z"/><path class="cls-1" d="M345.47,143.23l0,0C345.38,143.2,345.4,143.21,345.47,143.23Z"/><path class="cls-1" d="M350.35,143.31c-1.37.58-4.4,0-4.88-.08.88.67,14.59,18.54,14.42,17.78s-7.5-14.14-4.34-14.81S369,166.07,369,166.07l-4-.42,12.27,22.67s-4.27-1.46-3.63-1.14a58.86,58.86,0,0,1,4.44,4.56l1.31-6.83-.19-.56c0-.33-8-19-12.66-32.22a80.2,80.2,0,0,0-8.11-16.62c0,.92-.27,2.74-2.22,2.09-2.58-.86-9.59-7.11-9.59-7.11S351.92,142.64,350.35,143.31Z"/><path class="cls-13" d="M384.79,200l1.3-2.16c-.91-.83-6.54-5.47-6.54-5.47a35.45,35.45,0,0,0,1.46,4.33A37.37,37.37,0,0,0,384.79,200Z"/><path class="cls-13" d="M382.82,200c-2-.63-5.43-7.67-5.43-7.67s-.39,3.86.27,5.08,2.29,3.66,2.29,3.66Z"/><path class="cls-13" d="M378.85,201.28l-.08-.31s-1.85-3.35-2.13-3.66-1.57-5.55-1.57-5.55-1.14,5.31-.4,6.18a39.53,39.53,0,0,1,2.4,3.66S378.69,201.28,378.85,201.28Z"/><path class="cls-13" d="M373.69,198.8c-.16-.16-1.46-5.51-1.46-5.51l-.31,6,1.85,3.06,1.57-.15Z"/><path class="cls-1" d="M233.41,204.23c6.76-1.58,6-5,6-5a33.46,33.46,0,0,1-4.74,1.47c-2.53.57-9.13-.69-11.69-2.26a39,39,0,0,0-7.72-2.94l-3.9-1.37L205.65,201l-1.57,1.89-.49,4.55-6.45,8.93,2.63,9.25,7.39,2c-.28-2.59-4.31-4.23-4.31-4.23l-1-6.27,6.25-6.38s-1,11.54.92,14.17,7.66,7.14,7.66,7.14-4.3-8.12-4.42-8.88.34-14.16.34-14.16l1.88-.38s5.37,13.32,6.46,15.4,4,7.78,4,7-2.47-12.09-2.78-14.87-3.25-10.81-3.25-10.81l3.69-2S226.65,205.82,233.41,204.23Z"/><path class="cls-1" d="M209.6,174.28l3.25,15.38,2,.48L227,150.26l-4.29-13s.19,7.86.52,11.41a83.05,83.05,0,0,0,1.46,8.54s-1.55,2.66-1.94,2.72-4.35-10.35-4.35-10.35l1.6,15.43s-1.43,7.41-1.49,7-1.8-11.51-2-10.4-1.19,13-1.07,15.82-.14,5.67-.41,5.8S209.6,174.28,209.6,174.28Z"/><path class="cls-1" d="M319.23,101.72l-17.72-4c-.4-.07-49.15,29.2-56,35.4s-8.76,11.81-8.76,11.81l4.48,3.1s27.6-13.42,40.86-20.31S319.23,101.72,319.23,101.72Z"/><path class="cls-13" d="M260.73,126.31l27.5-11.66-6.15,8.66,38.29-22.93L337,111.8c7.21.71,17.84,19.15,17.84,19.15s-.61-5.24,3.1-8.53,15.08,21.18,15.08,21.18c2.63-7.33-1.65-22-1.65-22s9.13,5,9.63,5-11-15.33-14.68-18.23-46.88-11.58-46.88-11.58,1.06-6-17.86-4-34.7,15.3-34.7,15.3,14.21-4.36,15.56-3.92S260.73,126.31,260.73,126.31Z"/><path class="cls-1" d="M358,122.42c1.18-1,3.12.7,5.23,3.57-2.08-5-4.66-9-7.2-8.1-3,1.08-3.78,5-3.81,8.77,1.65,2.49,2.68,4.29,2.68,4.29S354.27,125.71,358,122.42Z"/><path class="cls-1" d="M368.25,110.18l-3.51.29c2.19,1,10.15,10.76,10.15,10.76l-5.35-1.35s4.49,17.92,2.89,21.56c-.06.15-.13.29-.2.43.52,1.07.83,1.73.83,1.73,2.63-7.33-1.65-22-1.65-22s9.13,5,9.63,5S373,115.19,368.25,110.18Z"/><path class="cls-13" d="M340.26,116.48C345,114.81,355,102.22,355,102.22l-3.59-1.73-10.7-19.1L330.29,94.88a23.85,23.85,0,0,0-11.49-2.34c-6.91.21-14.62-1.72-22.25,13.29s-9.34,38.35-9.34,38.35l-5,1.88,20.92,14.83s16-17.07,16-17.54-3.18.31-3-.53-3.11-7.93,3.67-14.42S335.5,118.16,340.26,116.48Z"/><path class="cls-1" d="M311.16,122s-3.59,9.29-6.53,17.7c-1.91,5.48-.24,12.91,1.79,17.63,4.69-5,12.68-13.64,12.63-14s-3.18.31-3-.53-3.11-7.93,3.67-14.42,15.76-10.24,20.52-11.92a10.25,10.25,0,0,0,2.62-1.54l-10.7-4.82s1.45,3.87,1.08,4-7-.91-7-.91l1.79,3.53-6.27-1.6,1.85,4.58-6.78-1s5.4,4.94,4.91,4.92S311.16,122,311.16,122Z"/><path class="cls-14" d="M316.35,123.94a20.37,20.37,0,0,1,3.37,4.48l0,0c.76-.73,1.55-1.42,2.35-2.08-.82-.79-.9-4.84-4.89-4.66-4.17.19-8.54,4.81-12.81,3.62s-7.93-11.42-8.05-10.76,4.5,14.4,8.37,14.37S314.66,122.68,316.35,123.94Z"/><path class="cls-14" d="M332.89,115.68l2.66,2.65c1.48-.64,2.84-1.17,4-1.59C336.33,116.25,332.89,115.68,332.89,115.68Z"/><path class="cls-14" d="M328.57,118.47s1.06,1.2,1.89,2.33c1-.53,1.93-1,2.86-1.45Z"/><path class="cls-14" d="M326.7,123c.65-.42,1.3-.81,1.95-1.19-2.5-1.1-5.75-2.71-5.06-2.06C323.93,120.07,325.17,121.36,326.7,123Z"/><path class="cls-14" d="M314.76,130.63a8.23,8.23,0,0,1,2.25,1.25,13.89,13.89,0,0,1,2.09-2.83c-1.71-1.47-4-2.89-5.36-1.71-2.49,2.09-9.24,7.39-12.19,4.92S293.93,120,294,120.36s3.57,16.15,8.21,16.22S311,129.25,314.76,130.63Z"/><path class="cls-15" d="M360.84,103.05l-5.83-.83s-11.61,3.21-15,7,1.06,4.26,1.06,4.26a111.22,111.22,0,0,0,11.39-.31c3.91-.47,10,16.82,9.77,15.13s-7.38-15.7-2.23-15.06c3.1.38,9.92,7.43,14.73,12.95-4.11-5.57-8.84-12.72-7-13.12,3-.66,14.19,2.1,14.19,2.1l-13-7.33s5.73-.68,6.51-.76C374.29,107.07,360.84,103.05,360.84,103.05Z"/><path class="cls-15" d="M375.38,107.13h0Z"/><path class="cls-16" d="M355.85,101.85Z"/><path class="cls-1" d="M294.94,112.07a6.74,6.74,0,0,0-1.14.57C293.68,112.74,294.13,112.51,294.94,112.07Z"/><path class="cls-1" d="M265.4,101l25.69-1.64s-18.32,10-17.9,10,24.72-6.77,32.71-7.31c6.69-.45-6.82,7.74-11,10,4.54-2.06,21.1-8.67,25-9.44,4.5-.88,12.09,9,12.09,9s6.25-12.34,5.42-16.52-4.37.32-4.37.32l-34-10.9,9.41,6.15-30.64-6.34s19,6.66,18.9,7.75S265.4,101,265.4,101Z"/><path class="cls-13" d="M306.77,88.69l.05,0Z"/><path class="cls-13" d="M294.26,87.7,301,89.52c-1.86-.58-3.91-1.14-5.66-1.6Z"/><path class="cls-13" d="M305.39,92.48c-3.43.51-12.87,2.1-20.16,3.34-1.73.48-3.53,1-5.31,1.44,7.19-.27,21.25-.65,19.88.57-1.84,1.64-16.14,6.83-16.14,6.83S304.06,99,310.6,100c4.23.67.13,4.41-3.28,7l.69-.27c3.86-2.39,9.42-5.61,12.47-6.37,5-1.24,11,5.84,11.56,4.46.42-1,1.35-7,1.83-10.24a9.63,9.63,0,0,0-.75.82l-4.84-1.55,2.44,4.49s-8.19-2-13.17-2.21S326.14,94,326.14,94,308,89.15,306.82,88.72c.87.42,10,5.08,10,5.08L301,89.52C305,90.77,308.19,92.07,305.39,92.48Z"/><path class="cls-13" d="M250.08,123.75l-.08.07C250.14,123.72,250.17,123.69,250.08,123.75Z"/><path class="cls-13" d="M236.14,127.76c0-.06-.12.07-.35.36,0-2.09-.27-4.12-1.6-3.42-1.73.93-2,5.69-2,8.79a93.31,93.31,0,0,0-9.31,20.82c-4.71,15.54-13.2,37.57-13.14,37.95l-.79,2.58-2.44,1,4.26,7.81,8.75-7.13-1.81-3s5.4-11.31,8.08-16.9S232,168.21,236,162.81c3.14-4.23,11.66-15.88,15.55-20.76,2.29-.71,4-1.45,3.6-2-1.06-1.31-10.49.54-10.49.54s4.17-15.53,5.34-16.82l-.63.45,0-.06S236.34,132,235.85,132c-.18,0-.11-1.13-.08-2.5C235.9,128.82,236,128.23,236.14,127.76Z"/><path class="cls-13" d="M250.08,123.75l-.08.07C250.14,123.72,250.17,123.69,250.08,123.75Z"/><path class="cls-1" d="M247,143l0,0C247.05,143,247.07,143,247,143Z"/><path class="cls-1" d="M234.16,137c-2.23.85-2.61-1.25-2.67-2.32a93.47,93.47,0,0,0-8.62,19.66c-4.71,15.54-13.2,37.57-13.14,37.95l-.2.65,1.85,7.87s4.21-5.1,4.93-5.5-4.16,1.49-4.16,1.49l13.15-26.86-4.57.68s11-24.31,14.7-23.68-4.18,16.48-4.34,17.38S246,143.81,247,143c-.56.16-4,.94-5.65.33-1.85-.7,3.62-15,3.62-15S237.11,135.85,234.16,137Z"/><path class="cls-14" d="M308,168.69c.06,0,.91,0,2.17-.06,7.38-10.08,18.58-30.06,18.58-30.06l-8.55,6.71,2.61-7.39-1.9,1.28L313.27,154l6.85-7S307.66,168.73,308,168.69Z"/><path class="cls-13" d="M295.21,169.46c-1.64-2.87-3.4-5.78-3.88-6.49-1-1.51,10.07,5.52,10.81,5.31s-6.67-8.26-6.67-8.26,8.39,6.06,9.17,6-13.27-18-13.57-18l-2-1.12-4.16.68-5.9-4.39.79,5.34s-7.27-5.74-7.74-6.26,4.4,8.7,4.4,8.7l-4.72-1.64S285.22,162.2,295.21,169.46Z"/><path class="cls-7" d="M183.17,312.92s10.83-2,12.66-2.74,5-.61,6.71-.31,7.63,8.24,9,9.61,15,13.58,15,13.58-3.66-9.31-5.19-12.82-9.76-13-9.76-13a52.52,52.52,0,0,1,8.35,1.33c3.05.92,10.71.5,11.17.35s-7.36-.35-10.1-3.85-8.2-7.29-12-7.29c-2.16,0-3.43-3.59-4.27-6.72.53-5.27,1.78-11.16,4.58-15.47,6.41-9.89,20.85-15.23,27.75-21.82l.47-.46,2.82-1.76s18.39-15.18,19.91-15.41S275.43,218,275.43,218s-17.92,10.44-18.43,7,4.55-27.14,4.55-27.14S246.39,216.43,244.37,216s-1.43-15-1.43-15l-7.22,17s-1.35-15.95-2.31-13.77c-.8,1.84-9.91,26.42-12.51,36.58-4.69,4.41-13.4,17.87-19,27.82-.47-.79-1.19-1.05-2.3-.24-4,2.89-9.15,11.74-9.15,11.74s4.13-2.28,6.9-2.39c-2.51,6.58-2.54,15.54-2.32,20.35-.84,2.26-2,5.11-2.9,6C190.64,305.6,183.17,312.92,183.17,312.92Z"/><path class="cls-7" d="M345.15,278.6c-5.8,3.21-.61,13.12-.61,13.12s-1.68-10.22,5.64-5l.78.55,6.12,19.84-1.1,6.61,21,1.22-7.93-2.29s9.76-.46,11.74-.31S408,314,408,314l-20.44-6.1,10.22.61s-13-5-19.52-5.95c-5.54-.77-10.3,1.49-12.3,2.13-3.86-7.54-9.53-20.89-1.37-21.27,0,0-4.81-20.5,1.63-35.58s5.85-27.61,5.85-27.61l-4-11.45-.48,8.86s-10.13-15.12-10.85-14.83,3.73,14.93,3.73,14.93l-17.31-10.24,10.52,16s-9.48-5.48-9.39-4.92,4.62,15.75,4.62,15.75-1.67,19.73-1.26,22.53,3.91,9.17,3.91,9.17l1.71,11.59-2.56,1.59A4.74,4.74,0,0,0,345.15,278.6Z"/><path class="cls-13" d="M361.78,314c3.61-3.2,8-7.78,8.35-8.23.57-.68-6.75,3.43-6.87,3.09S354.11,288,354.11,288l-1.52,4.56,4.49,14.57-1.1,6.61Z"/><path class="cls-13" d="M345.15,278.6a5.11,5.11,0,0,0-2.6,3.69c3.74-1.78,11.22,1.88,11.22,1.88l5.26-4.8s-1.6-16.48-1.6-21.51,3.89-16.7,3.89-16.7l-4.12,4.58,3.43-18.08s3.66,3.2,3.66-1.37-3.89-10.3-4.8-12.36a.25.25,0,0,0-.18-.16c.65,2.25,1.17,4,1.17,4l-2.66-1.58c-1.93,4.45-4.74,13.57-4.74,13.57l-7.93-8.1c1.34,4.58,3.77,12.72,3.77,12.72s-1.67,19.73-1.26,22.53,3.91,9.17,3.91,9.17l1.71,11.59-2.56,1.59A4.74,4.74,0,0,0,345.15,278.6Z"/><path class="cls-13" d="M183.17,312.92l2.79-.52c5.5-3.56,11.2-7.18,11.55-7.18.68,0,5,4.65,5,4.65a4.08,4.08,0,0,1,1.51,1.05l10.62,7.34-8.24-16,5.72-2.29-11.67-1.6s-1.83-4.81-1.6-7.55,5.49-18.31,7.09-19.91,18.08-15.1,18.08-15.1-7.1.69-1.38-6.4,17.39-15.33,17.39-15.33-4.8,11.89-4.8,12.58,9.38-4.8,11.89-6,3.66-27.22,3.66-27.22l-5,1.72c-.68.53-1.19.81-1.46.75a.53.53,0,0,1-.25-.16l-12.52,4.32s-.29-5-.44-10c-3.08,8.36-8.38,23.29-10.26,30.65-4.69,4.41-13.4,17.87-19,27.82-.47-.79-1.19-1.05-2.3-.24-4,2.89-9.15,11.74-9.15,11.74s4.13-2.28,6.9-2.39c-2.51,6.58-2.54,15.54-2.32,20.35-.84,2.26-2,5.11-2.9,6C190.64,305.6,183.17,312.92,183.17,312.92Z"/><path class="cls-14" d="M357.72,97.75l0,.48A1.93,1.93,0,0,0,357.72,97.75Z"/><path class="cls-15" d="M353.42,70c-1.73-11.65,4.41-20.15,6.3-30.7a21.1,21.1,0,0,0-4.09-17.15s1.1,1.73,1.26,8-2.05,15.43-6.62,23.62-.21,18.39-.21,18.39l-3.16,1.61,8,4.87C354.68,77.82,354.25,75.57,353.42,70Z"/><path class="cls-15" d="M355.15,78.81l-.24-.15C355.15,79.58,355.15,78.81,355.15,78.81Z"/><path class="cls-15" d="M332,19.31s-10.55,2.68-9.45,17,13.7,19.52,15.11,30.86c1.19,9.53.6,10.93.39,11.14l8.83-4.52-3.39-2.06s2.67-7.55-6.93-18.73S324.93,32.69,327,27.18,332,19.31,332,19.31Z"/><path class="cls-15" d="M338.07,78.31l-.07,0S338,78.35,338.07,78.31Z"/><path class="cls-14" d="M333,84l-.74,1.91A1.3,1.3,0,0,0,333,84Z"/><path class="cls-14" d="M344,68.18l-4.55-.46L333,84a1.3,1.3,0,0,1-.74,1.91L333,84c-.49-1-2.07-2.54-6.05-4.73a146,146,0,0,0-17-8,40.27,40.27,0,0,0,5.76,8.15c4.1,4.66,14.1,9.66,14.1,9.66l-1.82,7.69s1.59,10.48,13,18.86l7.62-12.31-1.42-.08L350,98.54l1.59,1.49s4.66-7.6,5.23-13.71-5.11-17.67-5.11-17.67L349,68.07l.3,4-4.55-.46Z"/><path class="cls-15" d="M344.72,71.56,344,68.18l-4.55-.46L333,84c-.49-1-2.07-2.54-6.05-4.73a146,146,0,0,0-17-8s.25.51.78,1.41C317,75.48,327.92,80.48,329,83c.52,1.19.18,3.18-.51,5.28.84.45,1.36.71,1.36.71l-1.82,7.69A28.08,28.08,0,0,0,333.33,108l4-9.24.47-11.22,4.78-.41,1.51,2.46-.86,5.51-1.89.47,2.72.24.59-4.25,3.07,1.77.82-2.25-2.36-3.54,4.49,2.95,3.07-5L351.57,81l.48,3.78L349.57,88l-2.78-1.71L346,82.79s-3.25-6-.39-11.14Z"/><path class="cls-12" d="M332.58,134.14l-.6,1.19A3.53,3.53,0,0,0,332.58,134.14Z"/><path class="cls-12" d="M332.58,134.14l13.8-26.91-2.3-.59-3.31,3-4.13-2.19,4-5.9L349,101l-.77-.59S340,100,339.65,100s-6,8.5-6,8.5.94,12.75.17,19.3A28.53,28.53,0,0,1,332.58,134.14Z"/><path class="cls-12" d="M341,82.26l5,.53s-1.07,6.14,2.53,8.26l1.07-1.18s-2.78-2-2.78-3.6.42-4.66.42-4.66Z"/><path class="cls-12" d="M345.73,89a7.54,7.54,0,0,0-3.19-1.89c.95,2.6,5.14,6.2,5.14,6.2A6.47,6.47,0,0,0,345.73,89Z"/><path class="cls-17" d="M347,90.64A5.46,5.46,0,0,0,345.73,89c-.18-.16-.36-.31-.53-.44a1.55,1.55,0,0,0-1.15,1c.59.73,1.24,1.44,1.83,2A1.58,1.58,0,0,0,347,90.64Zm-1.46.09a.65.65,0,1,1,.65-.65A.65.65,0,0,1,345.52,90.73Z"/></g></g></svg>