<svg xmlns="http://www.w3.org/2000/svg" viewBox="0 0 334.12 356.46"><defs><style>.cls-1{fill:#244451;}.cls-2{fill:#193441;}.cls-3{fill:#365a66;}.cls-4{fill:#3e606f;}.cls-5{fill:#f25d5f;}.cls-6{fill:#fff;}.cls-7{fill:#ddd;}</style></defs><title>fire_monster</title><g id="Layer_2" data-name="Layer 2"><g id="Ñëîé_4" data-name="Ñëîé 4"><path class="cls-1" d="M131,293.28a11.34,11.34,0,0,1-1.84-10c1.41-4.43,5.48-.74,5.48-.74S130.68,284.65,131,293.28Z"/><path class="cls-2" d="M145,282.68s-7.4-2.71-12.08,1.23-1.61,10.23-1.85,10.73-.74,1,1.72,1.23a15.1,15.1,0,0,0,7.15-.74C142,294.27,145,282.68,145,282.68Z"/><path class="cls-1" d="M146.52,283.42s25.07-2.62,36.61-9.62,19.52-3.4,20.35.37c1.48,6.78-11.59,21.51-25.65,21.14S146.52,283.42,146.52,283.42Z"/><path class="cls-2" d="M149.17,282.83s-7.33-2.07-10.51.24a10.3,10.3,0,0,0-3.82,9.21c.42,2.45.11,2.79-.64,2.82s-1.19.82,2.33.95a56.8,56.8,0,0,0,8.51-.6Z"/><path class="cls-2" d="M163,286.06a17.74,17.74,0,0,0-12.94-3.61c-8.15.73-10.14,8.16-9.71,10.61s.13,2.55-.23,2.74-.94.5,1.74.59,10.05.13,12.92-.1S163,286.06,163,286.06Z"/><path class="cls-1" d="M135.18,293.77a11.3,11.3,0,0,1-1.85-10c1.41-4.44,5.48-.74,5.48-.74S134.87,285.14,135.18,293.77Z"/><path class="cls-2" d="M148.26,295.75s-.16-6.33,4.35-8.89,9.31-2.29,15.25,1.78,8.13,4.47,8.13,4.47-.76,2.16-10.32,3.13a94.05,94.05,0,0,1-17.81.26C147.6,296.38,147.71,295.65,148.26,295.75Z"/><path class="cls-3" d="M42,270.29s22.73.34,34.28-6.66,21.86-6.36,22.68-2.59c1.48,6.78-18,20-32.05,19.6S42,270.29,42,270.29Z"/><path class="cls-4" d="M44.63,269.7s-7.33-2.07-10.52.24a10.35,10.35,0,0,0-3.82,9.21c.42,2.45.11,2.79-.63,2.82s-1.19.82,2.32.95a56.8,56.8,0,0,0,8.51-.6Z"/><path class="cls-3" d="M58.44,272.93a17.72,17.72,0,0,0-12.94-3.61c-8.15.73-10.13,8.16-9.71,10.61s.13,2.55-.22,2.74-1,.5,1.74.59,10,.13,12.91-.1S58.44,272.93,58.44,272.93Z"/><path class="cls-1" d="M30.63,280.64s-2.58-3.55-.8-9.12c1.42-4.44,4.38-1.11,4.38-1.11S30.41,277.62,30.63,280.64Z"/><path class="cls-1" d="M40.62,271.71s-3.55-5.33-4.87-1.92a15.46,15.46,0,0,0,.43,12.52S36.06,273.68,40.62,271.71Z"/><path class="cls-4" d="M43.71,282.62s-.16-6.33,4.35-8.89,9.32-2.29,15.25,1.78S71.44,280,71.44,280s-.75,2.16-10.32,3.13a93.94,93.94,0,0,1-17.8.26C43.05,283.25,43.16,282.52,43.71,282.62Z"/><path class="cls-1" d="M149.79,303.51a13.6,13.6,0,0,1-.37-7.46c1-3.94,2.71-2.52,3.32-1.23S149.79,303.51,149.79,303.51Z"/><path class="cls-3" d="M164.27,294.33s-7.4-2.71-12.08,1.23-1.6,10.23-1.85,10.73-.74,1,1.73,1.23a15.13,15.13,0,0,0,7.15-.74C161.19,305.92,164.27,294.33,164.27,294.33Z"/><path class="cls-3" d="M115.27,286.37a130.86,130.86,0,0,0,27.6-13.66c13.39-8.92,18.68-7,14.78-2.23s8.36,18.12,30.11,17.57-12-32.9-28.72-36S115.27,286.37,115.27,286.37Z"/><path class="cls-1" d="M35.68,298.21s-2.58-3.55-.8-9.12c1.42-4.44,4.38-1.11,4.38-1.11S35.47,295.19,35.68,298.21Z"/><path class="cls-1" d="M48.51,282.12s6.23-1.88,26.65-2.15,24.71-.8,25-3.22,12.09,2.69,15.31,6.45-.18,4.85,6.53,6.2,5.68-3,5.68-3,2.57.54,1.35,4.07-8.45,5.58-14.09,2.09-1.08,1.88,3.22,4.84,3.23,4.64-11.81-2.62S78.11,297.71,66,298,48.51,282.12,48.51,282.12Z"/><path class="cls-4" d="M57.14,286.93c-.49,0-10.83-4.62-16.38-1.29s-5.57,10.41-5.44,11.4-1,1.11-.13,1.73,5.55,1.85,10.48,1.6S57.14,286.93,57.14,286.93Z"/><path class="cls-3" d="M68,292.11s-11.47-5.92-19.23-3-7.89,8.51-7.4,9.25-.65,1-1.11,1.25-.74,1.57,3.1,1.94,13.54-.85,18.72-3.07S68,292.11,68,292.11Z"/><path class="cls-4" d="M73.54,299.51s-11.47,5.17-20.35,4.43-4.8-2.58-4.8-2.58-1.11-4.07,6.65-7.77,17.39.37,17.39.37Z"/><path class="cls-3" d="M72.8,286.56s10.35,0,17,4.07,7.87,9.74,9.61,10.36c2.1.74-8.13-1.11-12.94-3s1.11,3.33,4.07,4.44-7.4,4.06-18.49-3.7-18.13-11.84-24-12.95-8.14.74-8.14.74,7-5.55,14-5S72.8,286.56,72.8,286.56Z"/><path class="cls-1" d="M55.9,293.22s-3.51-4.75-6.22-1.79-1.91,10.79-1.91,10.79,1.48-4,3.82-5.43A25.66,25.66,0,0,0,55.9,293.22Z"/><path class="cls-1" d="M45.67,291.12s-2.9-5-4.87-1.91-.55,10.44-.55,10.44l1.23-.76S41.11,293.1,45.67,291.12Z"/><path class="cls-3" d="M165.75,295.07s25.07-2.62,36.62-9.62,19.52-3.4,20.34.37c1.48,6.78-18,20-32.06,19.6S165.75,295.07,165.75,295.07Z"/><path class="cls-4" d="M168.41,294.48s-7.33-2.07-10.52.24a10.35,10.35,0,0,0-3.82,9.21c.42,2.45.11,2.79-.63,2.82s-1.19.82,2.32,1a57.69,57.69,0,0,0,8.51-.61Z"/><path class="cls-3" d="M182.22,297.71a17.74,17.74,0,0,0-12.94-3.61c-8.15.73-10.14,8.16-9.71,10.61s.13,2.55-.22,2.74-.95.5,1.74.59,10,.13,12.91-.1S182.22,297.71,182.22,297.71Z"/><path class="cls-1" d="M154.41,305.42a11.3,11.3,0,0,1-1.85-10c1.42-4.44,5.49-.74,5.49-.74S154.1,296.79,154.41,305.42Z"/><path class="cls-1" d="M164.4,296.49s-2.9-5-4.87-1.92S159,305,159,305l1.24-.76S159.84,298.46,164.4,296.49Z"/><path class="cls-4" d="M167.49,307.4s-.16-6.33,4.35-8.89,9.31-2.29,15.25,1.78,8.13,4.47,8.13,4.47-.76,2.16-10.32,3.13a93.91,93.91,0,0,1-17.8.26C166.83,308,166.94,307.3,167.49,307.4Z"/><path class="cls-1" d="M207.42,288.78s-11.83,6.66-17.26,12.33,11.1-2,11.1-2-3.21,4.68-1.48,8.13,9.86-12.08,9.86-12.08-.25,7.15,2.47,10.6,20.46,3.7,29.71-1.48.37-4.43.37-4.43,20.34-27.74-3.7-58.07-49.93-19.6-61.77-2.59,0,41,5.18,42.9-.18,3.52-5.18-1.85-4.25,2.41,3.33,6.29,13.13,3.7,13.13,3.7-3.88,3.33-3.33,5.36S207.42,288.78,207.42,288.78Z"/><path class="cls-1" d="M48.06,273.73s-1.16-2.52-3.38-3.07-3.69,4.25-3,7.39a11.28,11.28,0,0,0,2,4.57S43.3,275.88,48.06,273.73Z"/><path class="cls-5" d="M120.57,220.3s-8.92-9.48,3.9-25.65c5.39-6.8,8.09-6.41,22,11.43s34.29,3.07,31.5-16.45-8.36-14.5-8.36-8.92,2.23-11.71-10-35.13-19-19-16.17-10-7.25-15.61-21.19-29S87.11,90.38,82.1,73.09s17.28-22.86,15.61-8.92,9.48,3.35.56-10.59S68.16,46.89,72.62,67s8.92,29,8.92,29-11.71,13.38-21.75,21.18,7.81-8.36,13.94-19.51-11.15-12.27-19,8.92-16.17,31.22-22.86,36.8.56-5.58,7.81-17.28-8.36-12.83-13.38,7.8,1.11,31.23-14.5,39S-2.1,204.13,6.26,210.82,22.43,214.72,30.8,198s2.79,3.35,1.11,8.37,4.46,9.48,11.15-8.37,20.08-8.36,9.48,12.27S64.25,235.91,70.39,232,120.57,220.3,120.57,220.3Z"/><path class="cls-1" d="M104.31,289.39s11.81,1.3,22.43-9.79c41.25-43,48.8-5.61,58-1.53s12.59-9.48,12.59-9.48,6.66-34.08,5-37.63c-2.14-4.59-18.87-9.28-35.8-4.59s-30.19-.69-47.39-17.33C105.67,196,104.31,289.39,104.31,289.39Z"/><path class="cls-3" d="M67.46,146.6s0-4.66,15.59-21.17-.11-19.91-3.53-8.08-13.31,7.63-6.94-2.62,13-14.56,13.66-20-3.07-4.78-4.89-9.44S81,78,81,78a7.81,7.81,0,0,0,3.87,8.43c5.24,3.07,8,6,7.52,11s3.41,3.53,1.82-2.16,1.25-3.87,2.84,1,.23,9.22-.45,11.49,2.73,0,2.73-4.89,4.21-3.53,1.36,7.51a19.64,19.64,0,0,0,8.77,21.85c4.89,2.85-3.19,17.64-3.19,17.64Z"/><path class="cls-1" d="M80.52,199.85s-20.63,25.09-23.61,40,8.55,29.74,12.27,33.09,1.49-2.6,1.49-2.6a61,61,0,0,0,13.75,13.38c8.55,5.95,6.69-.37,6.69-.37s6.69,2.6,15.24-5.95,5.21-4.46,4.09-2.23,8.18-3.35,12.27-18.22-7.81-51.3-16-65.79S83.68,190,80.52,199.85Z"/><path class="cls-1" d="M4.42,186.89a1.14,1.14,0,0,1,.07-2.1A96.08,96.08,0,0,0,17,178.85a46.48,46.48,0,0,0,19.52-21.37c4.27-9.3,23.23-13.76,31-13.57s17.47,10.41,18,19.7-1.86,23.23-5,36.24-4.84,18-11.9,25.84-10.41,12.45-11.52,18.4.56,7.62.56,7.62-3.54-2.05-3.54-5.58,1.12-4.64,1.12-4.64-3.72-1.86.74-11.16,8-11.33,8.74-14.12-2.79-3.35-7.62-12.08S47.81,190,44.83,189.07s-5.76,2.42-10.78,3.16a69,69,0,0,0-11.41,2.91c-3.76,1.11-7,1.11-8.43.28s-2.51-4.6-4.53-5.86C8.54,188.86,6.23,187.73,4.42,186.89Z"/><path class="cls-1" d="M138.83,185s-1.53-.14-6.13-1-5.72.56-8.92,5-9,12.5-7.58,16,13.71,15.66,16.08,27.51.7,19.65-1.95,23.41-1.53-6.41-1.53-6.41-1.12,9.76-6.42,12.41-5-8.37-4.32-27.32S105.33,202.41,105.61,185s4.23-29.22,7.15-35.08S138.83,185,138.83,185Z"/><path class="cls-2" d="M56,146.32a22.17,22.17,0,0,1,9.48-14.86c8.55-5.77,10.6-5.39,9.48-3.35s3,1.86,6.69-7.43S93.34,111,87,120.3s-8.73,13.57-8.73,13.57a10.42,10.42,0,0,1,5-3.53c3.16-.93,3,3.16-3.91,7.43s-8,12.83-8,12.83-4.09.37-12.27,4.46-5.39-1.49,3.16-5.95,2-5.39-3-2.6-7.44,3-7.44,3S55.24,147.81,56,146.32Z"/><path class="cls-4" d="M124.75,130s-7.62-6.14-14.87-11.15-6.5-8.37-7.06-10.6-3.9,1.49-1.49,9.3,7.81,11.52,13.39,14.12S124.75,130,124.75,130Z"/><path class="cls-4" d="M80.14,224.14S80,207.63,79.62,201s-2.28-8-7.4-11.38-4.18-18.4-4.75-33.77,2.47-22.2,3.61-24.86,1.71,3.61,2.85,8.92,6.07.76,14.6-1.52,15.37,1.52,16.51,1.71,1.71-2.85,4-5.69,3-2.85,4.36-3.23-1.14,9.3-.19,16.89,3.22,20.68-1,27.89-14.42,12.71-15.37,22.39-.19,23.14-6.45,26.94S80.28,226.23,80.14,224.14Z"/><path class="cls-2" d="M125.5,133.31c0-1.3-1.12-9.66-6-13.56s-13.57-3.16-15.43-7.81-1.86,2.42,1.3,6.13,11,4.09,13,7.62S125.5,133.31,125.5,133.31Z"/><path class="cls-2" d="M130.51,136.66a53.25,53.25,0,0,0-3.71-8.74c-2.42-4.46-4.28-3.71-3.53-1.11A15.22,15.22,0,0,0,130.51,136.66Z"/><path class="cls-2" d="M114.21,150.74s4.88,3.2,7.24,12,1.4,13.66,7,18,9.76,3.9,15.76,5S155.47,188,155.47,188s-7.81-18.4-19.24-29.14S114.21,150.74,114.21,150.74Z"/><path class="cls-2" d="M136.79,184.38s5,1.39,11.66,8.64,10.78,9.57,12.18,9.3,3.9-.42-3.77-6.28S141.67,183.68,136.79,184.38Z"/><path class="cls-1" d="M96,133.31s6.27,1.82,14.77,13.53,14.5,9.06,23.28,14.35,10.46,9.48,14.92,19.66,16.45,15.19,18.26,14.91,1.81-3.9,1.81-3.9a53.45,53.45,0,0,1-10.46-17c-4.18-10.73-4.32-16.58-4.18-18.54S139,142.1,130.66,135.68s-13.53-9.34-20.5-10.31-4.32.83-.27,2.93a49.41,49.41,0,0,1,5.57,3.2s-3.76-2.23-12.13-2.51,1.4,2.09,1.4,2.09a64.83,64.83,0,0,0-9.9,0C89.11,131.5,96,133.31,96,133.31Z"/><path class="cls-4" d="M116.16,152.69a40,40,0,0,1,6,16.59c1.4,10.17-2.23,23.7-5.43,26.62s-4.74-3.76-.28-14.49-1.12-28-1.54-29S116.16,152.69,116.16,152.69Z"/><path class="cls-4" d="M143.41,175.83a20.71,20.71,0,0,1-5.69.23c-3.39-.15-6.37-3.41-6.89-4.06-.94-1.19,1.46.59,1.46.59a7.8,7.8,0,0,1-2.75-3.73c-.59-2.2.1-2.93.38-2.93s.6,1.71.6,1.71a14,14,0,0,1,.17-3.1,4.65,4.65,0,0,1,.56-1.71s8.26,8.47,9.76,10A23.58,23.58,0,0,1,143.41,175.83Z"/><path class="cls-6" d="M130.38,160.78s11,11.84,12.68,14.21-.14.7-5.3-4.88-6.69-6.83-7.38-7.94S130.38,160.78,130.38,160.78Z"/><path class="cls-6" d="M133.06,164.67a7.93,7.93,0,0,0-.36,6.26c1.3,3.25,4.9,3.34,6.14,2.95s1.6-1.15,1.6-1.15Z"/><path class="cls-2" d="M148.36,180.34s.56-7.25-3-13-2,.55-2,.55-2.05-7.06-7.62-9.85-1.72,3.16-1.72,3.16-7-6.13-10-7.25-.93,2.79,6.13,6.14S146.68,177,148.36,180.34Z"/><path class="cls-4" d="M137.44,177.21a12.31,12.31,0,0,1-5.28-1.17c-5.07-2.41-4.75-9.78-4.53-12a.29.29,0,0,1,.31-.25.27.27,0,0,1,.25.3c-.21,2.12-.53,9.19,4.21,11.43a12.65,12.65,0,0,0,10.07.1.28.28,0,1,1,.25.5A13.34,13.34,0,0,1,137.44,177.21Z"/><path class="cls-4" d="M125.54,170.49a.29.29,0,0,1-.26-.19,12,12,0,0,1-.48-4.25.28.28,0,1,1,.56,0,11.19,11.19,0,0,0,.45,4,.27.27,0,0,1-.18.35Z"/><path class="cls-7" d="M139.44,185.31s5.57-4.18,9.76-3.07,10.87,9.34,14.21,11.57,4.19,1.4,4.19,1.4-3.49,4.74-6.14,5.57-8.78-7-13.94-10.87S141,185.17,139.44,185.31Z"/><path class="cls-2" d="M166.57,196.41a7.24,7.24,0,0,0,2.23-2.32,3.14,3.14,0,0,0,.19-2.23,37.11,37.11,0,0,1-4.65.19,22.46,22.46,0,0,1-3.62-.47S164.16,195.49,166.57,196.41Z"/><path class="cls-2" d="M148.36,165.23l.41.7a.28.28,0,0,0,.48-.28l-.41-.7a.28.28,0,0,0-.48.28Z"/><path class="cls-2" d="M151,175.41l.84,1.11c.21.29.7,0,.48-.28l-.84-1.11c-.21-.29-.69,0-.48.28Z"/><path class="cls-2" d="M141.77,159.86a4.24,4.24,0,0,0-.75-1.59c-.22-.28-.7,0-.48.28a3.78,3.78,0,0,1,.69,1.46c.08.35.62.2.54-.15Z"/><path class="cls-2" d="M128.45,153.88l1.1,1c.27.24.66-.15.4-.39l-1.11-1c-.27-.23-.66.16-.39.4Z"/><path class="cls-2" d="M118.55,148.85a4.8,4.8,0,0,0,1.19,1,.28.28,0,0,0,.28-.48,4.11,4.11,0,0,1-1.07-.92c-.24-.28-.63.12-.4.39Z"/><path class="cls-2" d="M154.18,181.2l1.8,1.14c.3.19.58-.29.28-.48l-1.8-1.14c-.3-.19-.58.29-.28.48Z"/><polygon class="cls-2" points="161.68 201.56 161.15 201.4 162.7 196.24 154.64 197.35 156.3 190.3 148.9 192.25 150.85 184.7 142.1 186.56 141.98 186.01 151.62 183.97 149.68 191.47 157.05 189.52 155.37 196.69 163.48 195.57 161.68 201.56"/><path class="cls-2" d="M160.25,184.33a5.11,5.11,0,0,0-.36-1.38c-.14-.33-.68-.18-.54.15a4.41,4.41,0,0,1,.34,1.23c0,.36.6.36.56,0Z"/><path class="cls-2" d="M150.4,181.44a.86.86,0,0,1,.68.44.28.28,0,0,0,.48-.28,1.44,1.44,0,0,0-1.16-.72c-.35,0-.35.53,0,.56Z"/><path class="cls-2" d="M138.09,149a1.35,1.35,0,0,1,.45.56c.15.33.63.05.48-.28a1.83,1.83,0,0,0-.65-.76c-.29-.21-.57.28-.28.48Z"/><path class="cls-4" d="M125.17,161.82v.49a.28.28,0,0,0,.56,0v-.49a.28.28,0,0,0-.56,0Z"/><path class="cls-4" d="M140.65,178.31l.83-.36c.33-.14.05-.62-.28-.48l-.83.36c-.33.14-.05.62.28.48Z"/><path class="cls-2" d="M92.55,222.67s3.91-4.6,1.26-17.84-2.65-17.15,4.6-22.59,13.38-7.52,13.94-14.77,1.81-5.86,2.65,2.09-1.26,17.7-6.84,22.86-7.52,4.88-9.2,13-3.76,15.34-5.71,18S92.55,222.67,92.55,222.67Z"/><path class="cls-2" d="M80.84,224.2a12.52,12.52,0,0,0,5.81,1c3.07-.28,6.78-3.34,6.78-3.34a14.83,14.83,0,0,1-6.18,9.71C86,232.43,80.52,227.13,80.84,224.2Z"/><path class="cls-2" d="M94.22,210.12s-5-16-2.5-22.72,1.53.56,1.53.56,1.39-4.74,7.53-9.76,8.22-6.55,8.64-6.13-3.76,3.76-8.92,8.78-6.69,9.62-6,17.7S94.22,210.12,94.22,210.12Z"/><path class="cls-4" d="M97.78,201.2A20.71,20.71,0,0,1,102,190.89c3.77-4.67,5.3-6.28,5.37-7.46S105,185,105,185a31,31,0,0,0,2.16-4.32c.9-2.3-5.16.14-8.43,3.35a12.36,12.36,0,0,0-3.63,7,15.88,15.88,0,0,1,.42-4.18c.49-1.39-2.09-.69-2.37,5.37A10.32,10.32,0,0,0,97.78,201.2Z"/><path class="cls-6" d="M97.25,198.92a10.17,10.17,0,0,1-.24-9.43c2.51-5,6-5.44,7-5.71s.56,1-2,4.67S97.2,197.27,97.25,198.92Z"/><path class="cls-4" d="M98.55,201.48h-.08a.28.28,0,0,1-.19-.34c.08-.31,2.16-7.65,6.35-11.7a.28.28,0,1,1,.38.4c-4.07,3.94-6.17,11.37-6.2,11.45A.27.27,0,0,1,98.55,201.48Z"/><path class="cls-4" d="M109.84,181.41a.3.3,0,0,1-.16,0,.3.3,0,0,1-.08-.39,5.44,5.44,0,0,0,.66-3.17.28.28,0,0,1,.26-.3.28.28,0,0,1,.29.26,5.88,5.88,0,0,1-.74,3.52A.28.28,0,0,1,109.84,181.41Z"/><path class="cls-4" d="M112.49,175.83a.28.28,0,0,1-.13,0,.27.27,0,0,1-.12-.37,2.17,2.17,0,0,0,0-1.58.29.29,0,0,1,.15-.37.28.28,0,0,1,.36.15,2.66,2.66,0,0,1,0,2.05A.29.29,0,0,1,112.49,175.83Z"/><path class="cls-2" d="M85.58,188.16a2.89,2.89,0,0,0-.12,1.4c.05.36.59.21.54-.14a2.21,2.21,0,0,1,.12-1.11c.12-.34-.42-.49-.54-.15Z"/><path class="cls-2" d="M97.26,179.59a1.65,1.65,0,0,1,.88-1.4c.32-.17,0-.65-.28-.48a2.19,2.19,0,0,0-1.15,1.88.28.28,0,0,0,.55,0Z"/><path class="cls-2" d="M105,173.38a11.33,11.33,0,0,1,1.77-1.47c.29-.2,0-.68-.29-.48a11.55,11.55,0,0,0-1.87,1.56c-.25.26.14.65.39.39Z"/><path class="cls-2" d="M111,166.07l.17-2.23c0-.35-.53-.35-.56,0-.06.75-.11,1.49-.17,2.23,0,.36.54.36.56,0Z"/><path class="cls-2" d="M112.06,158.89a.48.48,0,0,1,.29-.52c.32-.16,0-.64-.28-.48a1,1,0,0,0-.54,1.15c.07.35.6.2.53-.15Z"/><path class="cls-2" d="M9.7,187.59S24.94,187,35,175.13s15.26-15.61,20.7-16.79-3.41,3.55-5,4.67,1.26,1.11,7.53-3.14,8.85-3.07,8.71-2.65-6.41,4.53-7.25,5.44,4.39-2.72,6.9-3.21,1.47,8-3.06,13.94c0,0-3.84,6.48-13.59,7.81s-8.51,7.18-8.51,7.18a54.93,54.93,0,0,1-19.3,7.45c-11,1.89-9.2-1.46-10.32-3s-3.34-4.05-3.34-4.05Z"/><path class="cls-2" d="M92.1,222.11a18.46,18.46,0,0,0,1.14-3.41c.08-.35-.46-.5-.54-.15a16.61,16.61,0,0,1-1.09,3.28c-.14.33.34.61.49.28Z"/><path class="cls-2" d="M82.48,223.54a1.19,1.19,0,0,1-.39-.83c0-.35-.57-.35-.55,0a1.68,1.68,0,0,0,.55,1.22c.26.25.65-.14.39-.39Z"/><path class="cls-2" d="M105.42,138.62l1.17,1.51c.22.29.61-.11.39-.39l-1.17-1.52c-.22-.28-.61.12-.39.4Z"/><path class="cls-7" d="M10.17,188.93a17.26,17.26,0,0,1,3.76,5.3c1,2.65,10.32-.46,16-3.95s7.67-3.58,9.9-3.3-2.23-2.37-5.44-3.62-4.18-1-4.74.14S21.32,188,16.3,188.1,10.17,188.93,10.17,188.93Z"/><path class="cls-2" d="M3.76,186.7a45.13,45.13,0,0,1,5.4,2.93c1.48,1.12-.73-1.85,1.7-2.37,3.14-.66,3.77-1.72,3.77-2.65s-3.39-.8-7.11-.8S3,185.77,3.76,186.7Z"/><polygon class="cls-2" points="14.18 194.35 13.68 194.11 16.47 188.38 22.14 192.38 23.94 186.29 29.32 189.19 30.1 183.32 30.66 183.4 29.77 190.07 24.28 187.11 22.45 193.29 16.69 189.21 14.18 194.35"/><path class="cls-4" d="M37.7,176.6s.28.9,1,.9,1-.9,1-.9,3.21,3,10.87,1,6.07-11.85,6.07-11.85-11.43,5.65-15.2,7.74S37.7,176.6,37.7,176.6Z"/><path class="cls-6" d="M40.77,175.2s1.81,2.65,8.36,1.47S54.84,168,54.84,168,41.53,174.51,40.77,175.2Z"/><path class="cls-4" d="M45.45,180c-5.72,0-6.91-2.82-7-3a.28.28,0,0,1,.51-.21s1.69,3.82,10.57,2.2S59,169.9,59,169.82a.28.28,0,0,1,.29-.26.27.27,0,0,1,.26.29c0,.08-.58,8.05-9.84,9.74A23.32,23.32,0,0,1,45.45,180Z"/><path class="cls-4" d="M59.19,175.74a.27.27,0,0,1-.2-.09.27.27,0,0,1,0-.39,3.73,3.73,0,0,0,1-1.93.28.28,0,0,1,.32-.24.27.27,0,0,1,.23.32,4.19,4.19,0,0,1-1.15,2.25A.27.27,0,0,1,59.19,175.74Z"/><path class="cls-4" d="M59.42,167.7h0a.29.29,0,0,1-.26-.3,14.44,14.44,0,0,0-.09-1.9.29.29,0,0,1,.25-.31.28.28,0,0,1,.31.25,16.27,16.27,0,0,1,.09,2A.28.28,0,0,1,59.42,167.7Z"/><path class="cls-4" d="M36.17,176.81a.27.27,0,0,1-.17-.06.28.28,0,0,1-.06-.39c.12-.16,2.86-3.9,4.92-4.83a.28.28,0,0,1,.23.51c-1.93.87-4.67,4.61-4.7,4.65A.26.26,0,0,1,36.17,176.81Z"/><path class="cls-2" d="M35.06,171.42a1.17,1.17,0,0,0,.92-.77c.13-.33-.41-.48-.54-.15a.63.63,0,0,1-.53.38c-.36.05-.21.59.15.54Z"/><path class="cls-2" d="M43.33,163.69a8.48,8.48,0,0,1,2.4-1.85c.32-.17,0-.65-.28-.49a9.17,9.17,0,0,0-2.51,2c-.24.27.15.66.39.39Z"/><path class="cls-2" d="M55.43,157.76l.83-.11c.35,0,.36-.6,0-.55l-.83.1c-.36,0-.36.6,0,.56Z"/><path class="cls-2" d="M63.77,156a1.89,1.89,0,0,0,.77-.54c.24-.27-.16-.67-.39-.39a1.41,1.41,0,0,1-.53.4c-.32.13-.18.67.15.53Z"/><path class="cls-2" d="M109,146.28c.16-.39,1.26-8.37,3.07-11.29s3.34-2.23,3.34-2.23,1,6-.41,9.89a28.24,28.24,0,0,0-1.54,7.53,13.26,13.26,0,0,0-1.11-3.9c-.7-1-.42.42-1.68,1.67S108.44,147.67,109,146.28Z"/><path class="cls-2" d="M105.63,142.63l-.51-.23c.16-.36,4-8.87,6.92-11.12,1.51-1.15,2.4-1.5,3-1.16s.74,1.44.39,3.79l-.55-.08c.1-.72.43-2.9-.12-3.23-.23-.13-.83,0-2.36,1.12C109.54,133.89,105.67,142.54,105.63,142.63Z"/><path class="cls-4" d="M112.58,226.43v1.86a.28.28,0,0,0,.56,0v-1.86a.28.28,0,0,0-.56,0Z"/><path class="cls-4" d="M114.4,236l.45-2.77c.06-.36-.48-.51-.53-.15-.15.92-.31,1.85-.46,2.77,0,.35.48.5.54.15Z"/><path class="cls-4" d="M112.58,220.11v.37a.28.28,0,0,0,.56,0v-.37a.28.28,0,0,0-.56,0Z"/><path class="cls-4" d="M116.45,245.76l.24-3.53c0-.36-.54-.36-.56,0l-.24,3.53c0,.36.53.36.56,0Z"/><path class="cls-4" d="M111,269.5a14.93,14.93,0,0,1,2-2.51.28.28,0,0,0-.39-.4,16.34,16.34,0,0,0-2.13,2.63c-.19.3.29.58.48.28Z"/><path class="cls-4" d="M115.91,267.4c.19-.62.38-1.24.56-1.86.11-.35-.43-.49-.54-.15-.18.62-.37,1.24-.55,1.86-.11.34.43.49.53.15Z"/><path class="cls-4" d="M112.7,263.84l1-2.56c.13-.33-.41-.48-.54-.15-.34.86-.68,1.71-1,2.57-.13.33.41.47.54.14Z"/><path class="cls-4" d="M97.08,281.09l1.85-1.48c.28-.23-.11-.62-.39-.4l-1.86,1.49c-.28.22.12.61.4.39Z"/><path class="cls-4" d="M77.76,274.29l2.06,1.08c.32.17.6-.32.28-.48L78,273.8c-.32-.16-.6.32-.28.49Z"/><path class="cls-4" d="M63.32,262.2a3.73,3.73,0,0,0,1,1.6c.26.24.66-.15.39-.4a3,3,0,0,1-.87-1.35c-.11-.34-.65-.2-.54.15Z"/><path class="cls-4" d="M55.52,234.24v1.86a.28.28,0,0,0,.56,0v-1.86a.28.28,0,0,0-.56,0Z"/><path class="cls-4" d="M59.72,229l1.69-2.58c.2-.31-.28-.58-.48-.29-.56.87-1.13,1.73-1.69,2.59-.2.3.28.58.48.28Z"/><path class="cls-4" d="M56,245.47,57,247a.28.28,0,0,0,.48-.29l-1-1.56c-.19-.3-.68,0-.48.28Z"/><path class="cls-4" d="M68.05,264l1.7,1.83c.25.26.64-.13.4-.39l-1.71-1.83c-.25-.26-.64.13-.39.39Z"/><path class="cls-1" d="M127.26,238.7v1.49a.28.28,0,0,0,.56,0V238.7a.28.28,0,0,0-.56,0Z"/><path class="cls-1" d="M125.61,248.45l.75-2c.12-.34-.42-.49-.54-.15l-.75,2c-.13.34.41.48.54.15Z"/><path class="cls-1" d="M127.2,230.83c-.08-.63-.17-1.25-.26-1.88,0-.35-.58-.2-.54.15l.27,1.87c0,.36.58.21.53-.14Z"/><path class="cls-1" d="M119.09,217.21c.07.25.13.5.19.75a.28.28,0,0,0,.54-.15c-.06-.25-.13-.5-.19-.75a.28.28,0,0,0-.54.15Z"/><path class="cls-1" d="M106.91,197.44l.93,1.11c.23.28.62-.12.39-.39l-.92-1.12c-.23-.27-.62.12-.4.4Z"/><path class="cls-1" d="M241.64,262.31s-10.85,17.36,45,20.07,78.81,63.69-24.41,61.3c-93.28-2.17-81.92,8-77.7,12.2,2.44,2.44-20.61-2.71-8.14-16.27s94.38.4,126.12-7.33,29.69-36.2-8.95-37.42-50.45,1.22-63.06-2S230.38,257,241.64,262.31Z"/><path class="cls-3" d="M101.05,270.34c6.42-3.62,6.56-13,8.37-14.36s-1.54-2.37-3.21,2.1a28.79,28.79,0,0,1-3.85,7.2,23.57,23.57,0,0,0,1.2-3.63c0-.65-1.11-1.39-3,2.42s-4.28,6.5-11,9.2a106.71,106.71,0,0,0-11.33,5.3l1,1.11S94.64,274,101.05,270.34Z"/><path class="cls-5" d="M80.15,41s4.6,2.16,10.78-.57,5.46-11.51,2.87-16.54-2.58.29-2.15,3.74-6.62,2-2.59-9.49S86.18,1,82.45.16,75.55,2,81.58,6.63s4.17,9.2,4.17,9.2A9,9,0,0,0,82,10.08c-3.17-2-7.34,1-1.16,5.17s6.62,9.78.29,13.66S75.83,39.41,80.15,41Z"/><path class="cls-5" d="M78.85,27.76c.59.1,1.44,0,4-2.15s1.58-5-1.73-4.17S76.26,27.33,78.85,27.76Z"/><path class="cls-4" d="M66,226.38c.31-.49.62-1,.94-1.48.19-.31-.3-.59-.49-.28l-.93,1.48c-.19.3.29.58.48.28Z"/><path class="cls-4" d="M69.74,219v-2.79a.28.28,0,0,0-.56,0V219a.28.28,0,0,0,.56,0Z"/><path class="cls-4" d="M67.24,211.44l-.91-1.87c-.15-.32-.63,0-.48.28l.91,1.87c.16.33.64,0,.48-.28Z"/><path class="cls-4" d="M90.36,270.62a3.81,3.81,0,0,0,2.6-2.29c.14-.33-.4-.48-.53-.15a3.22,3.22,0,0,1-2.22,1.9c-.35.09-.2.62.15.54Z"/><path class="cls-1" d="M246.55,283s8.47-10.16,3.72-27.1-5.42-8.47-5.42-8.47-2.37-12.2-12.87-18.3-10.85-2-10.85-2S240.11,260.68,246.55,283Z"/></g></g></svg>