<svg xmlns="http://www.w3.org/2000/svg" viewBox="0 0 384.15 543.43"><defs><style>.cls-1{fill:#ff5b00;}.cls-2{fill:#fa0;}.cls-3{fill:#0f0f0e;}.cls-4{fill:#474746;}.cls-5{fill:#8c8c89;}.cls-6{fill:#3a3a37;}.cls-7{fill:#494947;}.cls-8{fill:#51514e;}.cls-9{fill:#353533;}.cls-10{fill:#232322;}.cls-11{fill:#333331;}.cls-12{fill:#5b5b59;}</style></defs><title>fire_golem</title><g id="Layer_2" data-name="Layer 2"><g id="Capa_1" data-name="Capa 1"><path class="cls-1" d="M55.68,79.86C40.57,74.92,40,68.23,40,68.23s-3.2,18.31,12.79,23.54S85,95,84.16,83.92s21.5-8.71,23.83.59-8.72,27.89,0,32.25,15.4,3.2,15.4,3.2-3.49,17.14-19.18,4.36S86.48,108,71.08,116.47s1.75,27,1.75,27,7.84-21.22,21.79-9.88,1.16,30.51,16,45.62-7.84-6.1-29.35-13.37-20.63,16.28-9.59,21.22S74,197.26,74,197.26s15.69,1.16,10.75-7.85,7.56-11.91,13.66-2,11.91,26.44,39.23,30.51,36.61-2.62,36.61-2.62S190.6,235.09,214,235.64s30-39.55,30-39.55L236.72,64.16s-20.92-31.09-43.3-34.29-26.73,14-41.84,3.49S150.12,16.8,134.14,9.82s-26.73,0-27.61,7.85-25,5.23-24.7-3.2S72,1.11,62.66,3.72,53.07,11,53.07,11s12.49-7.85,16,2.61,11.33,21.8,34.87,23.25,10.75-13.37,21.79-11.33S119.61,35.4,123.1,45s13.66,13.65,13.66,13.65-24.7,4.65-31.39-8.13-40.68-9.59-38.06,6.1S70.79,84.8,55.68,79.86Z"/><path class="cls-2" d="M131,85.34a11,11,0,0,0,4,0C135.83,85.07,133.83,84.84,131,85.34Z"/><path class="cls-2" d="M107.41,64.16C90,46.73,86.48,68.81,86.48,68.81s14.24-7.26,21.22,3.78C113,81,124.73,84.52,131,85.34c2.79-.5,4.79-.27,4,0a11,11,0,0,1-4,0c-5.19.92-13.11,4.37-10.85,14.57,3.49,15.69,7,9.88,7,9.88s-8.14-14.24,11.91-8.72,13.66,7.85,13.66,7.85-15.69-7.85-19.18,8.71-7.85,22.09-18,17.73L105.37,131s-.58,17.73,17.44,21.5,25-.87,25-.87l18.69-28.28-9.88,23.05,26.94,15.17s-7.27,9.24-23.84,5.76-16.56-17.73-30.8-5.53-8.72,24.12-8.72,24.12,15.4-11.91,28.48-2.9,25-5.81,25-5.81,5.52,25.57-14.24,21.21-16.27-12.21-27.89-5.23-4.51,8.57-4.51,8.57,12.35-8.28,28.33,9.44,60.45,9.59,60.45,7.85,2.32-43.88,2.32-43.88l12.26-112S219.58,42.66,192,39.75s-26.74,13.66-40.1,8.14-11.05-10.17-11.05-10.17-7,12.21,7.56,20.34,21.5,10.75,21.5,10.75S124.84,81.6,107.41,64.16Z"/><path class="cls-3" d="M250.65,67.5,225,105.73c2.79.73,8.07,49.44,8.07,49.44l24.94,6,3.25-8.44-3-15.4s12.31,19,14.33,21.51-4.26-34.71-4.26-34.71l17.48,15.63S251.48,66.83,250.65,67.5Z"/><path class="cls-4" d="M346.58,285.76l-9.46,12.48S329.47,294,326.45,294s-4.43,6.24-4.43,6.24l15.1,5.24,17.31-5.84Z"/><path class="cls-3" d="M337.65,309c-4.56,4.57-.53,10.2-.53,10.2l22.27-5.37L365,293.48l-17.18-37s-21.74-15-23.08-15.57L304.91,260.2l-6.44,23.88s9.66,16.11,10.47,16.91,3.49,16.1,3.49,16.1h5.63c3.76-3.48,2.15-12.88,2.15-12.88l-3.49-16.64L336,283.28l13.42,11.27-2.41,9.93S342.22,304.48,337.65,309Z"/><path class="cls-5" d="M364.22,291.73l-16.37-35.29-.14-.1a30.93,30.93,0,0,0,.08,7.68c.4,3.42,5.83,26.57,5.83,26.57Z"/><path class="cls-5" d="M364.46,292.25l-8.62,1-1,14.69s2.95,1.4,5.52,2.51L365,293.48Z"/><polygon class="cls-5" points="341.28 318.24 358.77 314.02 353.22 310.72 341.28 318.24"/><path class="cls-6" d="M227.48,184.13l-18-22.49s4.16,19.44,7.45,32.83,31.51,23.4,31.51,23.4l-15.62-3s18.9,21.23,21,23.29,56.29,30.48,56.29,30.48c7.12,6.26,30.43,9.17,30.43,9.17l-8.45-9.13,6.19-1-11.86-28.94L295,210.31s-3.76-12.64-4.34-13.42S260.11,165.25,262,161.8s-11.86-27.3-11.86-27.3l-5.61,21.05L228,127.68l9.32,32.06-30.42-28.48Z"/><path class="cls-5" d="M250.14,134.5l-3,11.25c3.19,8.46,7.22,18.51,7.22,18.51l-3.66,10.05L256,185.78l4.05-7.91,17.86,22.83-17.05-6,72.94,62.08-7.37-18L295,210.31s-3.76-12.64-4.34-13.42S260.11,165.25,262,161.8,250.14,134.5,250.14,134.5Z"/><path class="cls-3" d="M292.85,236.28c-.78-1-15.73-11.81-16.58-12.4s-34.18-.06-34.18-.06l-8.44-8.75-.85-.16s18.9,21.23,21,23.29,56.29,30.48,56.29,30.48c7.12,6.26,30.43,9.17,30.43,9.17l-1.65-1.78L329.38,270l-.37-8.66s-12.82-3-13.8-2.69,6.69,6.78,6.69,6.78L297.18,253l14.72-.43-42.28-21.24S293.63,237.33,292.85,236.28Z"/><polygon class="cls-3" points="207.99 134.12 226.69 182.1 232.71 190.59 230.14 173 244.84 180.72 207.99 134.12"/><path class="cls-3" d="M230,208.86l14.7,6.5-8.43-17.28-12.1-6.4-10.92-25.29-3.8-4.75s4.16,19.44,7.45,32.83C218.28,200,223.89,205,230,208.86Z"/><polygon class="cls-3" points="244.84 170.25 227.98 127.68 237.3 159.74 236.74 159.22 244.84 170.25"/><polygon class="cls-7" points="249.6 136.53 245.33 152.54 250.56 168.11 256.68 162.02 249.6 136.53"/><path class="cls-3" d="M241,191.14c-.15,1,12.56,16.83,12.56,16.83l6,.69Z"/><path class="cls-3" d="M306.35,237.08l-15.81-7.7c.44.58,25,17.92,25,17.92Z"/><path class="cls-7" d="M214.59,183.93l9-1.4,1.18-3.94Z"/><path class="cls-7" d="M237.1,296.54l12.16,40.12,29.7,13s10.37-19.14,9.16-32.37-46.57-137.62-46.57-137.62l-18,2.82c-2.06,6.86-6.57,21.82-11.52,37.95,3.4,16.62,8.24,46.61,8.36,52.73C220.58,281.68,237.1,296.54,237.1,296.54Z"/><path class="cls-7" d="M139.66,351.55l22.77-36L193,278.75c1.49-1.8,10.85-31.62,19-58.27-1.31-6.41-2.41-10.83-2.94-11.12-1.92-1-.24-22.41-.24-22.41l5.73-3L194.92,187l-19.86.77s-33.79,49-32.91,58.63-12,93.88-12,93.88Z"/><path class="cls-7" d="M212,220.48c5-16.13,9.46-31.09,11.52-37.95l-9,1.4-5.73,3s-1.68,21.38.24,22.41C209.63,209.65,210.73,214.07,212,220.48Z"/><path class="cls-5" d="M184.7,288.75l8.32-10c1-1.26,6-16.32,11.63-34.39l.42-23.21L189,278.31l1.21-22.14S179,279.08,184.7,288.75Z"/><path class="cls-1" d="M247.33,217.74s0,0,0-.07l-.21,0C247.23,217.77,247.29,217.82,247.33,217.74Z"/><path class="cls-3" d="M282.2,216l7.41-9.3s-7,5.52-7.85,5.52-3.48-8.43-3.48-8.43l-17.15,9.59L279.29,244l-1.45,4.22,31,14.09,12.06-7.7-2.91-6,7.27-2.61-8.72,1.45,2.32,5.67-13.9,7-20.53-13.11,17-2.32,2-21.65-5.23,18.31-15.84,2-17-29.06,11.48-5.08Z"/><path class="cls-1" d="M323.64,236.28l-28.65-26s-3.76-12.64-4.34-13.42c-.17-.23-2.71-2.89-6.23-6.66-1,4.15-2.37,10.51-2.37,10.51s-7.41.44-7.84.88-10-2-10-2-6.54,2.33-7.26,2.47-13.81,7-12.35,8.57c1.15,1.28,2,5.41,2.49,6.74l.43.17c1.57-1.86,13.79-14.46,13.79-14.46l-6,35s2.32,1.89,3.2,1.17,8.13-35,8.13-35l15.26-.29,2.61,15-9.44-3.78-5.52,9.3,2.76,7.41s-5.52.14-6,.29-4,6.22-6.14,9.86l.52.28c2.45-2.74,6.25-6.9,6.64-6.8.58.14,10.31.58,10,.14S273,222.83,273,222.83s2.48-3.2,2.91-3.2,11,2.76,11,2.76l-9.3,5.38,5.53,11.91s-8.77,3.83-15,6.72c8,4.32,17.83,9.58,26,13.9l2.31-6.09,24.27,3.2-1.46-12.21,4.51-3Z"/><path class="cls-1" d="M272,176.43l-8.81-1-2.32,9.88L270,197l7.56,1.16,3.05-7.41a34.71,34.71,0,0,1,0-4.56C277.84,183.09,274.78,179.7,272,176.43Z"/><path class="cls-5" d="M287.87,324.26a30.78,30.78,0,0,0,.25-6.93c-1.07-11.63-36.24-109.15-44.74-132.57-1.42,11.39-2.07,37.06-2.07,37.06l20.93,59.85-4.56-32.21s19.59,49.12,19.86,52.07C277.69,303.23,283.22,314.8,287.87,324.26Z"/><path class="cls-3" d="M218.79,273.48c.17,8.47,16.7,23.33,16.7,23.33l12.16,40.12,29.7,13s.31-.57.81-1.58l-18.34-26.73L251,256.44l-6,26.57-16.1-20.93-7.65-72.47-13.69,20,2.67,12,.27-.88c.83,4,1.74,8.86,2.65,13.94l.45,2-.06.18C216.16,252.19,218.71,269.06,218.79,273.48Z"/><path class="cls-3" d="M287.76,325c0-3.06,0-6.25.06-9.44-.87-4.28-3.46-12.88-7-23.78L265.06,310.3s-15.62-5.21-26.36-8.48l10.56,34.84,29.7,13S285.91,336.87,287.76,325Z"/><path class="cls-3" d="M138.05,351.82l22.77-36s3.37-4,7.87-9.46c-5.4-5.91-10.14-11.54-10.32-13.25-.4-4,3.23-25.36,6.85-29s22.14-19.73,22.14-19.73L156,254l11.27-17.71,24.16-10.47s6-36.63,4.83-37.84a9.55,9.55,0,0,0-1.66-.91l-1.25.19-19.86.78s-33.79,49-32.91,58.63-12,93.88-12,93.88Z"/><path class="cls-3" d="M165,174.63,167,185.08l6.51,1,56.6-3.48,9.44-6.27-1-51.55s17.57-18.81,18.71-20.38S270.1,68,270.1,68L249.61,47,235,49.47s-12.91-3.55-17.62-2.85-11.55,4.18-11.55,4.18l9.43,5.74L203.58,60l-7.48-2.27L182.27,68.21l7,1.22-7.16,12.89-10.57,2.26-4.23,17.77,6.51-1.22-5.7,20.38Z"/><path class="cls-1" d="M138.06,171.09s23.35-17.71,33.82-29.79,31.67-55.55,31.67-55.55l-26,7.24c-1.61-.26-15.83,7.79-15.83,7.79S133,144.26,130.54,151,130,172.7,130,172.7l2.14-1.61Z"/><path class="cls-2" d="M147.59,163.56c2.5-2,5.29-4.34,8.13-6.79L154,147.51l6.82,4.75,2.55-2.34-6.79-3.52s-1.74-8.72.78-8.72,8.14-.19,8.14-.19l2.85,7.58c1.27-1.29,2.45-2.56,3.5-3.77.25-.29.51-.61.78-.94-1.68-3.24-3.25-6.25-2.87-6s2.57,2.24,4.43,3.93c5.89-8,13.89-22.54,20-34.29l-4.71-3.73L164.94,116l1.75,3.68s-10.28-.63-16.69-1l-.54.84c6.31,1.43,17,3.81,17,3.81h4.07l-1.16-6,6.78-.38.39,9.88-5,3.48L158.36,128l-2.13-3.68-4.85.38,4.07,1.55L157,129l11.63,3.1L154.1,134.2l-1.55,6.39-8.14-7.17,5.81,8.14-2.91,1.94L144,139.82l-1.74,2.32,4.65,5.81-7,9.69S145.05,161.78,147.59,163.56Z"/><path class="cls-6" d="M200.26,129.36c0,.11.35,0,1-.29C200.61,129.15,200.26,129.24,200.26,129.36Z"/><path class="cls-1" d="M257.26,104.44A77.55,77.55,0,0,0,260.15,97l-6.41-3.37A41.48,41.48,0,0,0,248,96c-2.21,1.2-20.73,20.13-19.72,20.13s10.31,8.74,10.31,8.74S256.12,106,257.26,104.44Z"/><path class="cls-1" d="M184.76,168l18.92,6.64s7-6,7.85-6.64,12.28,1.21,12.28,1.81,1.61,5.23,1.61,5.23l2.82-10.67.6,12.69,10.6-5-.89-47.25s-10.31.31-13.13-1.7-6.44-4.23-6.44-4.23-13.94,8.39-17.76,10.18c3.55-.46,15.74-.31,15.74-.31s2.42,5,11.08,5.23,9.66,1.81,9.66,1.81-10.27,5.84-16.51,3.42-8.86-6-8.86-6l-14.89,4.23-6.24,11.68,13.08-3s.41,3.62,11.88,4,18.32-2.21,18.32-2.21-6.85,8.25-20.53,7.65-12.28-3.63-12.28-3.63Z"/><path class="cls-2" d="M220.48,150.11a58.44,58.44,0,0,0,8.39-.84c3.87-1.4,7.37-2.65,8.14-2.87,1.14-.32-7.32,12.66-14.19,23,.61.16,1,.31,1,.42,0,.6,1.61,5.23,1.61,5.23l2.82-10.67.6,12.69,10.6-5-.89-47.25s-1.5,0-3.51,0L227.16,134l.88,0c8.65.2,9.66,1.81,9.66,1.81a39,39,0,0,1-5,2.3Z"/><path class="cls-8" d="M282,69.88l4-10.77,1.85-7.9-9.75-10.09c-4.88-2-20.53-7.57-20.53-7.57l-28.09,16,12.12,4.87,1.68,17L249,68.53l4.71,25.07,5.88-6.06,7.74,17,5.72-8.24,6.9,10.26-1-33.31-2.19,1.35,1.85-9.93Z"/><path class="cls-5" d="M273.31,96.63l-1.93-6.39s-2.68,4.57-2.62,5c0,.2.32,3.31.61,6.43l3.71-5.35Z"/><polygon class="cls-5" points="281.99 69.88 286.03 59.11 287.88 51.21 282.25 45.39 274.94 50.52 283.39 60.85 281.89 69.71 281.99 69.88"/><path class="cls-5" d="M274.8,75s-1.79,8.17-2.52,11.24c.66-2.08,2.19-6.14,2.19-6.14l.33,9.46L277,83.33l.4,8.66-1.34-3.56-.57,11.47,4.47,6.65-1-33.31-2.19,1.35.19-1Z"/><path class="cls-5" d="M272,87.36c0,.17.11-.29.3-1.11A8.12,8.12,0,0,0,272,87.36Z"/><polygon class="cls-5" points="277.89 46.77 281.37 44.48 280.68 43.75 277.89 46.77"/><polygon class="cls-1" points="279.79 59.01 275.7 52.55 270.58 52.17 274.38 59.58 279.79 59.01"/><path class="cls-9" d="M273.61,63.51c-.89.31-2.53,13.37-2.53,13.37L279,74.26l0-1-2.19,1.35,1.85-9.93L282,69.88v0c-1.3-2.44-3.16-6.15-3.16-6.15l3-2.27S274.49,63.19,273.61,63.51Z"/><path class="cls-7" d="M277.14,40.72c-5.71-2.27-19.54-7.17-19.54-7.17l-28.09,16,12.12,4.87,1.68,17L249,68.53l4.71,25.07L257,90.28,256.64,78l9.21-6.43.75-8.71-4.41-11.73,6.31-4.54L254,51.46s-5.05,14.38-5.05,12,3-15.52,3-15.52l9.08-5-7.44,1.26,13.12-3.91Z"/><path class="cls-10" d="M277.14,40.72c-5.71-2.27-19.54-7.17-19.54-7.17l-28.09,16,12.12,4.87,1.68,17L249,68.53l4.71,25.07L257,90.28,256.64,78l9.21-6.43.75-8.71-4.41-11.73,6.31-4.54L254,51.46s-5.05,14.38-5.05,12,3-15.52,3-15.52l9.08-5-7.44,1.26,13.12-3.91Z"/><polygon class="cls-7" points="266.86 89.05 262.06 84.89 259.91 88.17 267.36 104.53 267.55 104.26 266.86 89.05"/><polygon class="cls-7" points="272.91 92.71 271.56 98.48 273.08 96.29 279.19 105.38 272.91 92.71"/><polygon class="cls-3" points="271.71 58.72 270.48 63.78 272.1 59.42 273.63 60.63 278.35 58.28 276.46 54.5 276.41 54.99 273.53 53.27 272.1 53.46 274.52 57.07 277.11 58.26 273.43 59.93 271.71 58.72"/><polygon class="cls-2" points="275.9 55.75 273.29 53.98 275.06 56.38 277.62 57.98 275.9 55.75"/><path class="cls-10" d="M161.14,90.85l-12.08,27.91,40.8-11.27-6.71,17.71L245.68,90,230.38,63.2S197.1,51.13,188.25,51.13s-43.48,8-43.48,8l20.4,8.32-31.4,27.91Z"/><path class="cls-7" d="M188.25,51.13c-8.86,0-43.48,8-43.48,8Z"/><path class="cls-4" d="M171.27,86.28S168.8,106.84,160,115.75l29.9-8.26-6.71,17.71L245.68,90,231.92,65.9c-6,2-13.39,3.67-19.38,2.47C200.46,66,195,65.75,195,65.75s-4.83,39.05-5.43,36.84-1-20.4-.83-21.68C188,81.72,171.27,86.28,171.27,86.28Z"/><path class="cls-6" d="M188.76,80.91s0,0,0-.06S188.77,80.84,188.76,80.91Z"/><polygon class="cls-6" points="169.66 80.65 160.2 78.84 134.51 95.28 159.18 91.17 159.19 91.11 169.66 80.65"/><path class="cls-6" d="M150.38,115.71l-1.32,3.05,8.08-2.23c3.64-4.64,7.57-11,8.09-17.56C165.23,99,156.94,110.74,150.38,115.71Z"/><polygon class="cls-6" points="147.11 60.13 163.96 67.01 176.1 65.75 147.11 60.13"/><path class="cls-6" d="M188.76,80.91s0,0,0-.06S188.77,80.84,188.76,80.91Z"/><polygon class="cls-6" points="169.66 80.65 160.2 78.84 134.51 95.28 159.18 91.17 159.19 91.11 169.66 80.65"/><path class="cls-6" d="M150.38,115.71l-1.32,3.05,8.08-2.23c3.64-4.64,7.57-11,8.09-17.56C165.23,99,156.94,110.74,150.38,115.71Z"/><polygon class="cls-6" points="147.11 60.13 163.96 67.01 176.1 65.75 147.11 60.13"/><path class="cls-6" d="M191.8,154.52l-11.07-8.05s1.41,14.69,2.82,15.1S191.8,154.52,191.8,154.52Z"/><path class="cls-5" d="M185.89,118l-2.74,7.24L245.68,90l-2.07-3.64c-6.1-3.85-14.33-8.6-19-9.37a28.4,28.4,0,0,0-13.68.8s7.38,7.11,2.95,10.74S207.3,86,207.3,86l1.08,19.45-3-16.5-3.49,16.91V93.13Z"/><path class="cls-5" d="M125.36,340.91,91.9,396.09,81.63,430.51,62.31,451.65l-20.53,64,26.57,11.48,14.49,16.3,32.61-.6,61-17.52s-9.67-23.55-7.25-30.79-2.5-76-2.5-76l-1.47-24.08s5.84-18.12,7.65-21.54-2.62-28-2.62-28l12.48-28-16.91,14.49,10.67-15.7-7.85-28.58-10.87,24.15-19.93,17.32.2-15.3Z"/><path class="cls-11" d="M125.36,340.91,91.9,396.09,81.63,430.51,62.31,451.65l-20.53,64,26.57,11.48,14.49,16.3s1.81-30.19,1.21-32.61,20.53-26,20.53-26l29,3.62-10.87-57.36s25.36,8.45,27.18,7.85-15.7-52.54-12.08-76.69S168,320,168,320l1.8-28.71-1.14-4.13-10.87,24.15-19.93,17.32.2-15.3Z"/><polygon class="cls-3" points="91.9 396.09 81.63 430.51 62.31 451.65 41.78 515.65 58.92 523.05 71.37 495.73 69.56 470.37 88.28 456.48 87.07 423.87 121.49 402.74 117.86 357.45 123.71 343.63 91.9 396.09"/><path class="cls-7" d="M142.27,384.46,154.08,432s.27-15.29.54-16.1Z"/><polygon class="cls-7" points="131.54 444.31 136.9 490.74 157.3 504.16 131.54 444.31"/><path class="cls-7" d="M151.93,476c0-1.61.27-32.21.27-32.21l-16.64-3.22S151.93,477.59,151.93,476Z"/><path class="cls-7" d="M145,508.65l9.67,7.59S156.25,515.3,145,508.65Z"/><path class="cls-7" d="M145,508.65,131,497.72l-22-6.18L88.33,512.21s39.72-13.15,53.94-5.1Z"/><path class="cls-5" d="M115.16,294c0,1.88,4.43,42.95,4.43,42.95s9.93,9.25,14.63,13.15,17.44-.94,17.44-.94l1.08-6.75,15.3,4.2s7.89-7.51,11.69-11.36l2.26,1.16,9.4-10.33.8-7.79-10.87-4.56L180,317.36l-16.77-10.73-9.5-16.75,8.8-4.58c-.11.08-.55.68,3,4.69,3.89,4.43,11,4.29,11,4.29L176,305.82l6.44,1.08c7.39-7.25,5.91-19.73,5.91-19.73-11.14-.67-16.51-20-16.51-20s-6.71-4.3-13.95,2.68-23.35,1.88-23.35,1.88l-16,11.14c-1,1.79,1,6.67,3.26,9.26,0,.49,0,1-.07,1.62Zm39.73,28.59L171.35,331l-5.73,5s-17.18-7.52-16.37-8.46c.44-.52-2.43-10.88-5.14-20.12Zm-24.56-5.39,11.27,22.16.94.26-1.21,1.75-5-1.34-8.73-9.66Z"/><path class="cls-3" d="M147.5,312l.34.69,6.37,8.95,6.18-11.93-11.54-12.48-.41-11.4L135,281.13s-3.93-2.51-7.47-4.55l-3.63,2.53c2.54,5.86,6.72,14.75,6.72,14.75l16.19,15.45-11.6-9.65,9.35,9.4c-.16-.54-.31-1.08-.47-1.62l2.84,4Z"/><path class="cls-3" d="M178.13,336.86c.58-.57,1.12-1.11,1.6-1.6l2.26,1.16,9.4-10.33.13-1.32-12.75-4.32-10.11,9.17,2.69,1.37-2.46,2.15,7.89,3.18.52,0s0,.09,0,.24Z"/><path class="cls-3" d="M115.16,294c0,1.88,4.43,42.95,4.43,42.95s9.93,9.25,14.63,13.15,17.44-.94,17.44-.94l.37-2.28c-2.81-1.34-5.33-2.42-5.33-2.42l-8.86,2.42L125.23,334l-4.7-35.29s6.24,13.68,9.39,20.53l.41-2,8.85,17.41c2.21-2.81,5.26-6.76,5.51-6.92.4-.27-7-16.51-7-16.51L123,289.45l12.28,10.21-16.71-16.78c-1,1.79,1,6.67,3.26,9.26,0,.49,0,1-.07,1.62Z"/><polygon class="cls-3" points="177.43 318.44 163.61 311.32 154.61 322.21 154.88 322.6 168.4 329.49 177.43 318.44"/><path class="cls-3" d="M152.34,345l.4-2.53,15.3,4.2s5.19-4.94,9.18-8.86c0-.56.05-1,.06-1.24l-.5-.2-17.2,1.17-14.22-6.84s-3.42,2.52-5.91,4.49l2.15,4.23.94.26-1.21,1.75C142.55,342.74,147,344,152.34,345Z"/><path class="cls-6" d="M85.39,225.33c.15,3,19.9,60.85,19.9,60.85.86,9.44,15.78,27.58,15.78,27.58l.15-12.44,5.15,3.56,11.29-29.16-3.22-42.34s6-11.75,6.08-12.72-.41-44,3.34-45.17,10.17-28,10.17-28l-18.55,11.42,7.15-31.61L127.34,157l-2.49-41.59L103.44,168l2.39-28.73s-10.35,17-17.17,29,6.77,38.65,6.77,38.65L86.13,194S85.25,222.36,85.39,225.33Z"/><path class="cls-5" d="M120.39,198.63l10.25,95.23,7-18.14-3.22-42.34s6-11.75,6.08-12.72-.41-44,3.34-45.17,10.17-28,10.17-28l-9.92,6.1c-3.5,8.34-7.48,18.4-7.48,18.4l-9.58,4.78-4,12,8.38-3-2.73,28.86Z"/><path class="cls-3" d="M115,250.77c.15-1.29-3.29-19.4-3.5-20.4s-24.77-23.56-24.77-23.56l-.11-12.16-.51-.7s-.88,28.41-.74,31.38,19.9,60.85,19.9,60.85c.86,9.44,15.78,27.58,15.78,27.58l0-2.42-2.72-11,5.69-6.55s-7.23-11-8.17-11.45.2,9.53.2,9.53l-9.41-26,11,9.81-16.08-44.5S114.87,252.07,115,250.77Z"/><polygon class="cls-3" points="123.69 118.25 104.26 165.94 102.79 176.24 113.02 161.7 118.39 177.41 123.69 118.25"/><path class="cls-3" d="M105.83,139.22s-10.35,17-17.17,29c-2.81,4.95-2.15,12.4-.4,19.45l6.21,14.83,5.76-18.34-4.38-13,9.47-25.87Z"/><polygon class="cls-3" points="127.3 156.23 125.59 169.82 142.63 127.32 127.34 156.99 127.3 156.23"/><polygon class="cls-7" points="138.12 157.3 131.21 172.2 139.84 171.98 152.23 148.61 138.12 157.3"/><path class="cls-3" d="M105.94,203.16l3.88,4.63-1.43-25.49C107.58,183,105.94,203.16,105.94,203.16Z"/><path class="cls-3" d="M118.09,244.17c-.08.72,5.8,30.18,5.8,30.18l.38-13.72Z"/><path class="cls-3" d="M168.25,183.51,165,174.63l-.4,6.26-10.27,20.93s15.91-5,17.52-5.23-8.46,10.47-8.46,10.47,31.2-6.24,31.81-6-3,9.26-3,9.26l28-11.48-4.43,31.61,28-29.19,5-38.45-25,18.72s-36.43,2.22-38.45,2.42,2.22-4.83,2.22-4.83Z"/><path class="cls-5" d="M222.93,519.28l1.21,4.22s46.49-4.83,53.74-5.43,38.64,18.11,41.06,19.32,65.21-18.72,65.21-18.72L344.3,467.35l-17.51-55.56-2.42-23.55-18.11-44.08,8.45-33.81L280.29,256l13.89,50.73-17.51-21.14,2.42,30.8-9.66,25.36-24.76-10.27L240.44,349v33.82l1.21,44.08L228.36,448Z"/><path class="cls-12" d="M329.15,535.25l-14.44-42.54s-12.32,18.34-19.59,31.73c10.74,5.35,22.39,12.23,23.82,12.95C319.51,537.68,323.46,536.78,329.15,535.25Z"/><path class="cls-4" d="M222.93,519.28l1.21,4.22s46.49-4.83,53.74-5.43c1.75-.15,4.89.83,8.7,2.41l4-33.81,1.21-44.08-16.91,12.68c-12.68-31.4,24.15-29.59,29-45.29s-19.32-50.72-19.32-50.72l16.91-36.83-24-27.16,1.66,21.12-9.66,25.36-24.76-10.27L240.44,349v33.82l1.21,44.08L228.36,448Z"/><path class="cls-3" d="M222.93,519.28l1.21,4.22,23.16-2.39c2.46-10.1,8-33,8.47-36.93.08,3.47,1.34,22.27,2.26,35.84l4.74-.48,12.75-50.41L256.2,446.59l13.29-29.39L252.58,416l12.88-32.2s-14-20.2-24.8-35.71l-.22.91v33.82l1.21,44.08L228.36,448Z"/><polygon class="cls-7" points="296.32 434.92 299.81 475.71 308.94 453.43 296.32 434.92"/><path class="cls-7" d="M300.08,497.45l14.49-21.2-.8-18.79S301.15,494.23,300.08,497.45Z"/><path class="cls-3" d="M182.39,306.9a19.72,19.72,0,0,0,5.07-9.26c-.22-2.64-.4-4.83-.4-4.83s-12.38-2.32-14.7-6.95a109.37,109.37,0,0,1-4.83-12.78L152,288.28s1.44,1.81,2.43,2.92l-.75-1.32,8.8-4.58c-.11.08-.55.68,3,4.69,3.89,4.43,11,4.29,11,4.29L176,305.82Z"/><polygon class="cls-5" points="130.46 423.91 142.27 430.08 135.83 402.44 130.46 423.91"/><polygon class="cls-5" points="117.71 476.78 124.16 482.02 121.34 456.25 117.71 476.78"/><path class="cls-3" d="M57.28,506.59l23.54,11.19L87.65,503l20.77-2.91-22.52.59-6.25,12.49L61.2,501.07,65.42,481l26.59.73-1.6-8.87,4.21,5.38s12.79-2.32,13.37-2.76-13.22-.73-13.22-.73l-1-3.48,11.48-3.2-6.4-20.34,13.52-10.9-16.71,9.88,5.52,19.18-13.51,2.91.58,8.86-23.4-2.47Z"/><path class="cls-3" d="M157.82,380l-9.15,3.63-20.2-23,19.62,26.59,8.72-4.21,8.43,11.73,0-.36s.59-1.85,1.46-4.47Z"/><polygon class="cls-3" points="290.48 414.91 312.86 380.04 290.48 406.48 280.6 398.64 257.06 432.06 247.47 458.79 266.94 485.52 292.22 464.89 305.3 480.58 324.48 464.6 333.49 479.42 326.8 459.95 306.17 474.77 295.13 455.01 269.56 475.06 252.12 452.11 280.02 405.9 290.48 414.91"/><polygon class="cls-3" points="193.86 249.13 192.99 234.02 181.51 236.78 180.2 227.48 175.99 227.77 179.33 239.1 190.95 236.49 193.86 249.13"/><polygon class="cls-3" points="231.49 250.72 226.69 266.42 235.85 280.07 238.61 263.22 232.07 271.65 233.67 254.65 239.04 259.3 246.16 244.48 238.9 239.54 247.04 228.35 235.56 239.25 243.26 245.5 237.88 255.38 231.49 250.72"/><path class="cls-3" d="M98.69,252.9l7,13.52,18.61-5.79-1.46-19.35,8.28-6.1-11.77,4.65L122.66,258s-12.93,3.34-14,3.63Z"/><path class="cls-3" d="M114.38,188.83l14.39,2.76L127,201.76l13.64,2.94c0-1.15.05-2.32.08-3.5l-11.1-1.33,2.9-9.73Z"/><path class="cls-3" d="M224.73,107.22l5.5-1.5s-.77-18-.77-20.34C229.46,83.5,226,100.58,224.73,107.22Z"/><path class="cls-3" d="M223.47,107.56l.75,2.23s.2-1,.51-2.57Z"/><path class="cls-3" d="M219.58,108.63l3.89-1.07L212.79,76.27s-12.2,8-12.2,8.53-4.46-16.66-5-17.63,2.72,20.73,2.72,20.73L212,81.7Z"/><polygon class="cls-3" points="269.51 77.63 277.4 74.43 278.74 73.38 276.78 74.59 277.05 73.14 269.51 77.63"/><path class="cls-3" d="M255.93,56.5l-.13-.08Z"/><path class="cls-1" d="M252.32,69.69c-.3.48,2.13,7.07,2.13,7.07l2-.1.81,13.28,2.06-2.12c-.77-5.27-1.71-11.45-1.71-11.45l9.5-4-.54-9.59s-9.44-5.56-10.67-6.31c1.14.78,9,6.79,9,6.79l.94,8.23-10.34,3S252.61,69.2,252.32,69.69Z"/><polygon class="cls-3" points="229.31 127.66 223.9 136.01 226.55 137.25 230.62 130.13 247.04 134.2 248.05 127.37 260.99 108.77 249.94 102.67 248.78 106.3 242.97 102.23 248.78 108.48 250.81 105.57 257.5 110.66 248.34 119.23 237.88 111.53 248.93 123.01 240.93 130.13 229.31 127.66"/><polygon class="cls-3" points="209.55 130.28 209.64 130.75 210.34 130.62 209.55 130.28"/><polygon class="cls-3" points="218.12 133.33 218.11 133.38 222.63 137.97 223.9 136.01 218.12 133.33"/><polygon class="cls-3" points="206.88 131.25 211.88 142.77 209.64 130.75 206.88 131.25"/><path class="cls-3" d="M207.81,152.07c-.44.14,2.18,12.2,2.18,12.2l.87-10.46,7.84,1,2.76,19.76L221,153.23l-5.52-2.18,2.6-17.67-3.47-3.54-4.3.78,6.18,2.71L213,152.21S208.24,151.92,207.81,152.07Z"/><path class="cls-1" d="M205.43,182.63l-3.29,12,4.46-9.49L216.86,184l6.59-18.6-6.59-3.88-18.79,6.78-.58,2.13-13.37,23.83L170,199.69c-.93,1.13-2.07,2.42-3.13,3.6l19-6.32L200,169.84s20.73-5.23,20.53-4.45-6,17.24-6,17.24Z"/><path class="cls-1" d="M101.84,276,115,285l-.58-16.57,9.51,5.9-1.37-19.85,6.1.87,1.16-7.84,6,3.79-1.36-17.94s6-11.75,6.08-12.72c0-.3,0-4.57.07-10.37l-4.12-4.61-20.64,5.23-7-14.53,5.52-7.55-11.59-12.59,4.91,11.14-11,16.27,3.78,11.62-13.08,17C90.72,243.05,97.65,263.65,101.84,276Z"/><path class="cls-1" d="M142.32,179.18l-19.51,4.71-8.14,29.35s1.75,4.36,2,2.61,8.13-29.35,8.13-29.35l9,7.27,7.22-1.52c0-.78.08-1.54.12-2.3l-6.18.91-6.1-6.1,13-2.72C142,181,142.16,180,142.32,179.18Z"/><polygon class="cls-1" points="124.41 276.15 115.69 272.38 117 284.87 123.39 292.86 123.1 287.05 126.73 287.49 124.41 276.15"/><path class="cls-1" d="M113.07,285.89l-9.36-4.37c1,2.91,1.58,4.66,1.58,4.66.27,3,1.92,6.77,4,10.61Z"/><polygon class="cls-3" points="106.44 252.95 117.87 263.03 118.64 248.5 114.38 239.59 108.76 238.04 104.31 234.35 99.27 239 102.95 244.82 106.83 249.66 103.73 251.79 106.44 252.95"/><path class="cls-3" d="M107.55,259.15l-13-4.66c2.28,6.85,4.62,13.77,6.52,19.4l4.4,1.25,1.31-2.91-3.35-2.33,6.25-2.9Z"/><path class="cls-3" d="M104,249.2c.22,0-4.94-6.61-4.94-6.61l-4.65,3.34,1.75,4.8,5.45.94A24.91,24.91,0,0,1,104,249.2Z"/><path class="cls-2" d="M98.51,217.78l13.11,6.5a31.48,31.48,0,0,1,2.76,9.3c.73,5.38,12.21,9.3,12.21,9.3s4.26-.95,8.43-1.86l-.33-4.27-6.94.75-4.22-4.94,10.94,1.28,0-.46.75-1.49c-2-.58-6.8-2-7.15-2.09s-.44-7-.44-7l9,6.22c.64-1.28,1.33-2.69,1.95-4l-15.46-8.2,10.61-2.76,6.84,3c0-.84,0-1.81,0-2.88L133,210.19l-15.69,3.63-11.19-4.07-3.78-9.3,1.34-7.13-5.1,7.52,2.6,9.64,12.35,10.17-13.92-4.28Z"/><path class="cls-1" d="M136.27,257.41c-3,2.26-6.78,5.08-6.78,5.08l-1-10.89-1.3-3.93-2.33,1L127,267.87l10.26,2.79-.19-2.41-8-2.12,7.43-5.82Z"/><path class="cls-2" d="M274.55,249.79,294,240.85s-4.65-7.27-3.63-7.27,9.73.15,9.73.15l3.2,11.33-12.06,1.45-1.66,11.29.12.06c.79-2.16,3.67-9.9,4.3-9.9s11-.43,11-.43l1.34-10.45,7.52,8.56-.87,5.81-10.61-.58s12.5,3.92,12.79,2.91,1.16-9.59,1.16-9.59l-12.49-13.81,1.16-4.21,8.72,7,3.66-2.52-3.15-2.86c-.39.77-.66,1.21-.66,1,0-.73-9.88-8.29-9.88-8.29s-2.18,6.4-2.32,4.94-3.05-7-3.05-7l1.89-3.41-4.12-3.74-3.88,5.55,4.65,10.75s-10.31,3.2-10,3.78,3,8.72,3,8.72l-15.69,9.49Z"/><path class="cls-2" d="M290.65,196.89c-.09-.12-.87-.95-2.11-2.27-1.33,2.9-2.72,6.1-2.56,6.41.29.59,1.45,11.34,1.89,11.48s4.92-2.34,6.77-3.35c0-.12-.07-.25-.11-.39-1.57.06-4.67.11-4.78-.33s-.29-6.53-.29-6.53l3,.14A43.88,43.88,0,0,0,290.65,196.89Z"/><path class="cls-1" d="M178.12,66c-.12-.36-2.22-7.55-3.82-13-1.9.35-3.86.72-5.84,1.11L177.92,74l12.21-3.3,1.94,17.63-11.43.2s4.45,13.36,5,14-1.16-10.27-1.16-10.27l11-1.16-3.1-23.83h-8.52l-.39-7.75,23.44,7-4.45,13.18,6.58,1.55,1,11.62s2.91-13,2.33-13.17-6-2.72-6-2.72l3.49-11.62,10.46-2.13V59.71c-1.31-.45-2.71-.91-4.15-1.39l-.5,2.07-8.52,2.13s-2.91.19-3.1-.39a51.49,51.49,0,0,1,2.39-6.89l-3.72-1.09-1.19,4.69-3-5.83c-2-.53-3.92-1-5.58-1.3,2.84,4.8,5.31,9.06,5.31,9.06l-14.15-5.23-7,1S178.31,66.59,178.12,66Z"/><path class="cls-1" d="M222.93,519.28l1.21,4.22s46.49-4.83,53.74-5.43,38.64,18.11,41.06,19.32,65.21-18.72,65.21-18.72L344.3,467.35l-17.51-55.56-.27-2.6-14.83,10.66,13.66,19.47-27.9,9-16-27.9L298.91,412l-1.46-27-13.65-5.81-2.33-21.8-2.32,25.87,10.75,4.65-1.74,23.82L260,414.33l10.17-8.14.87-6.68-16.56-11.92.29-6.68,8.13-8.14L253.28,353l5.82,19.47-9.59,6.11L251,391.66l10.46,11.63s-11.08,7.57-20,14.08l.26,9.52L228.36,448Z"/><path class="cls-1" d="M309.81,352.8l-9.16,17.07L314,377.42s-5.52,13.08-5.23,13.95c.16.48,8.76,3.39,16.51,5.93l-.88-8.61-8.66-1.1,5.12-7.86L318.52,374,307,369.29l5.2-10.57Z"/><path class="cls-1" d="M86.26,415l-4.63,15.52L62.31,451.65l-20.53,64,26.57,11.48,14.49,16.3,32.61-.6,61-17.52s-9.67-23.55-7.25-30.79-2.5-76-2.5-76l-1.47-24.08s.92-2.85,2.14-6.5l-12.88,8.35c-.87.58,7.85,9.3,7.85,9.3l-12.21,11.33s6.11,6.69,5.23,7.56-14.23,7.85-14.23,7.85l-7-13.66,15.11-9.88L144,400.09l21.21-28.77L138.5,398.93l5.23,10.17-16,7.84,6.39,16.28s-22.08,11.91-23.25,11.62-7.26-24.7-7.26-24.7l16.56-11.33,1.17-19.47,16.56-11.92-11-9,3.48-8.14,7.85,4.94,7-10.75-7.55,5.81-8.43-4.94-7.84,13.08,10.17,8.13-14.24,9s-6.16-7.53-11.06-13.1l-2.94,4.85L115,392l-.58,14.53S100.56,410.68,86.26,415Z"/><path class="cls-2" d="M100.24,473.42l-21.7,5.42L63,469.93l9.3,18.6,24.41,2.71,10.85,14.34,21.7,17.82.64,15.26,46.5-13.35s-5.75-14-7.27-23.73L144,501.31l.39-15.49L158,493.56l11.24-4.26-12-2.32-12.4-7.75,9.3-7s9.81,5.93,15.74,8.95c0-3.53-.15-7.52-.3-11.74l-17.38-6.89,5.42-7,11.48,2.55c-.11-2.28-.22-4.57-.34-6.83l-16.56.8L141.7,466.44l-5.43-7.75,10.08-11.62,21.55-10c-.65-10.67-1.21-18.52-1.21-18.52l-1.47-24.08s.92-2.85,2.14-6.5l-12.88,8.35c-.87.58,7.85,9.3,7.85,9.3l-7.22,6.71,6,19.64-17,8.52-2.1-8.56-.8.43L139,428.17V442l-9.46-6.34-2,1.05,7.57,8.78-10.46,10.85-14-7.36,1.63-4.63a4.06,4.06,0,0,1-1.44.46c-.32-.08-1-2-1.85-4.72l-4.93,6.56-3.48-16.27,4.6-4c-.31-1.18-.59-2.27-.83-3.19l-11.91,6.44,8.14,27.51,25.57,11.63s0,25.18-1.16,26S100.24,473.42,100.24,473.42Z"/><path class="cls-2" d="M268,500.93c-8.91,6.2-16.66,10.46-17,15.88a26.3,26.3,0,0,1-.6,4l7.83-.8-1-3.19,20.92-14.72.93,16a31.24,31.24,0,0,1,7.32,2.28c-.91-7.39-2.44-18.87-2.44-20.23,0-1.94-11.62-24.41-11.62-24.41l13.17-5.81s21.31,14.72,23.25,16.27,21.7-5.42,21.7-5.42l-15.5,19L337,489.3l-20.15,15.11s2.32,20.15.39,23.25a26.54,26.54,0,0,0-2.58,7.32c2.27,1.28,3.83,2.18,4.3,2.41,2.42,1.21,65.21-18.72,65.21-18.72L344.3,467.35l-17.51-55.56-.27-2.6-14.83,10.66,13.66,19.47-27.9,9-4.74-8.28-.94,2.54s-11,20-12.14,20.75S263,470.7,263.36,473.42s-7.36,6.2.77,13.95S276.92,494.73,268,500.93Z"/><path class="cls-2" d="M293.19,412.59l-3.65,3.94,9.37-4.53-1.23-22.8C295.41,401.49,293.19,412.59,293.19,412.59Z"/><path class="cls-2" d="M258.71,446.68s-6.2-4.26-7-3.1-6.58,7.75-6.19,9.69,2.32,12,3.48,12.78,4.26.78,4.26.78l-1.16-14.72,2.33-1.94s5.81,4.26,7.36,3.1,13.56-13.17,13.56-13.17l-4.26-6.59,5.42-4.65,7.75,3.1,2.62-2L283,423c-1.9-.07-8.16-.25-9.14.4-1.16.78-9.3,10.08-8.91,11.63s3.1,0,1.16,5.81A8.12,8.12,0,0,1,258.71,446.68Z"/><polygon class="cls-3" points="267.62 423.05 272.85 416.07 251.93 419.37 257.35 430.02 264.71 428.86 267.62 423.05"/><polygon class="cls-3" points="251.15 428.28 241.08 433.7 245.73 442.42 254.45 437.38 251.15 428.28"/><path class="cls-3" d="M255.61,481.55c-.39-1-4.65-4.07-6.59-5.61a8.06,8.06,0,0,0-5.42-2.14c-1.94,0-8.72,4.65-8.72,4.65s.39,13.95.78,14.92l20.11-9.19C256.9,483.12,256,482.52,255.61,481.55Z"/><path class="cls-3" d="M235.85,457.92c-.37-.15,0,0,.3.17A1.37,1.37,0,0,0,235.85,457.92Z"/><path class="cls-3" d="M236.15,458.09l0,0C237,458.48,236.56,458.28,236.15,458.09Z"/><path class="cls-3" d="M230.81,514.49c0-.58,7.17-8.53,13.56-11.43s.39-5,.39-5-11.42,1.55-20.45,3.22l-1.38,18,1.21,4.22s11.17-1.16,23.41-2.41a13.9,13.9,0,0,1,.12-3.31c1.35-8.91-4.46-5.62-4.46-5.62s-9.88,4.07-12.4,2.91S230.81,515.07,230.81,514.49Z"/><path class="cls-3" d="M231.59,483.88s-2.83-.49-5.87-1.12l-.89,11.58c2.81-.2,5-.5,5.21-1C230.62,492,231.59,483.88,231.59,483.88Z"/><path class="cls-3" d="M236.2,458.12l-1.32-.59c-3.75-1.69-2.06-2.1-7-2.83l-1.22,15.91,8.82-.1,5.43-7.55A28.5,28.5,0,0,0,236.2,458.12Z"/><path class="cls-3" d="M69.05,493.66c-.2-.8-11.39-4.11-18.27-6.07l-9,28.06,3,1.3C56,506.66,69.22,494.33,69.05,493.66Z"/><path class="cls-3" d="M71.89,441.17c7.5,1.59,20.41,4.54,20.41,4.54s-7-6.31-13.3-12.32Z"/><path class="cls-3" d="M83.09,425.62c3.8,1,6.88,1.79,6.88,1.79s-1.8-6.61-3.76-12.24Z"/><path class="cls-3" d="M63.82,461.7c.29,1.45,11.91,9.88,11.91,9.88l17.73-5.53-2.33-15.11-21.5-5.52-1.7.08-5.62,6.15-3.94,12.29C61.32,462.3,63.71,461.16,63.82,461.7Z"/><path class="cls-1" d="M229.51,49.53l8.77,3.53,6.58-.37-4,1.4.78.31,1.68,17,5.42-2.71.05-2.63,8-3.63s.35-5.45-.84-5.92c-.6-.24-1.58-2-2.42-3.68-1.26,3.52-4.57,12.56-4.57,10.63,0-2.4,3-15.52,3-15.52l1.62-.9,1.15-1.75L254.2,44l-.59.1.56-.16-1.47-3.35-3.19-2-.56-.12-1.54.88,3,2.44,1.45,2.32L249.61,47l-6.35-.38-1.87-3.81L239,44.13c.84,1.1,1.5,2,1.5,2l-2.92-1.21Z"/><path class="cls-1" d="M45.34,28.42C49,19,60.72,19.8,60.72,19.8S45.54,11,41.65,21.44,27.9,30.67,27.9,30.67,41.65,37.85,45.34,28.42Z"/><path class="cls-1" d="M28.11,20.83l-11.7-2.06C16.82,19.39,22.16,25.13,28.11,20.83Z"/><path class="cls-1" d="M42.67,61.24C47.8,70.68,54,69.86,54,69.86l1.85-.21c-5.13-1-3.9-12.92-12.72-18.26s-16.41,1.85-16.41,1.85S37.54,51.8,42.67,61.24Z"/><path class="cls-1" d="M47,114.17l12.51-6.77C49.24,101.25,47,114.17,47,114.17Z"/><path class="cls-1" d="M56.42,155.82l-11.29-2.06S46.57,161.15,56.42,155.82Z"/><path class="cls-1" d="M26.67,148.84l7.18-.61C26.26,144.53,26.67,148.84,26.67,148.84Z"/><polygon class="cls-3" points="0 103.3 8.41 105.35 6.36 102.07 0 103.3"/><polygon class="cls-3" points="26.26 111.71 22.98 110.89 22.16 112.94 23.08 115.2 32.31 115.2 26.26 111.71"/><path class="cls-3" d="M30.47,96.42l-2.06,1v4.31c0,.61,7.59,1.33,7.59,1.33Z"/><path class="cls-3" d="M26.16,73.35l1.64-1.54-2.87-2.67S23.49,71,23.69,71.6,26.16,73.35,26.16,73.35Z"/><path class="cls-3" d="M36.52,62.47,35,63.29s-.41,1.13-.62,1.54,4,1.23,4,1.23Z"/><path class="cls-3" d="M16.31,59.29,14,61.14a9.2,9.2,0,0,1,.72.61L18.36,60Z"/><path class="cls-3" d="M4.21,137.56c.92.31,1.23.51,1.84.2l-.82-5.33S-.31,135.1,2,136.33,3.28,137.25,4.21,137.56Z"/><path class="cls-3" d="M54.47,138.28s-4.21-2.88-5.44-4-6.77.41-7.69-.11a9.06,9.06,0,0,0,.61,2.77c.41.52,6.57,1.23,7,1.23Z"/><path class="cls-3" d="M63.49,150.89l1.44.41,4.1-4.82c-1.12.1-8.1,1-7.79,1.75S62.06,150.48,63.49,150.89Z"/><path class="cls-3" d="M59.08,186c2.16,1,2.88.72,2.88.72l-3-5.33s-1.64,1.33-1.13,2S56.93,185,59.08,186Z"/><path class="cls-3" d="M96,95.4c-.41,0-3.9-1.23-5.74-.72s-3.59-.61-2.77,1.13,1.23,2.46,1.23,2.46Z"/><path class="cls-3" d="M76.11,105l-2.56-2.87s-2,.1-3.29.31,1,2,1.95,2.66S76.11,105,76.11,105Z"/><polygon class="cls-3" points="162.07 21.24 173.97 22.06 163.3 17.54 162.07 21.24"/><path class="cls-3" d="M198.18,22.06c1.64,2.87,3.69,1.23,4.92.82l-7-6.57.41,2.88C197,22.06,196.54,19.19,198.18,22.06Z"/><path class="cls-3" d="M173.35,3.18s-2.25,2.05-3.07,2.05S178.89,12,178.89,12Z"/><path class="cls-3" d="M100.93,2.77l6.16,1.44-5.33-2.87Z"/><path class="cls-3" d="M147.5,3.59a5.47,5.47,0,0,0,3.29.82l3.89,1.44s-5.74-4.72-8.2-5.54,0,0-.62,2.26S145.86,2.57,147.5,3.59Z"/><path class="cls-3" d="M212.74,10.36c-.61,0-2.46,2.26-2.46,2.26l4.51,2.05-1.43-4.31Z"/></g></g></svg>