<svg xmlns="http://www.w3.org/2000/svg" xmlns:xlink="http://www.w3.org/1999/xlink" viewBox="0 0 778.5 800.16"><defs><style>.cls-1{fill:url(#Degradado_sin_nombre_4);}.cls-2{fill:url(#Degradado_sin_nombre_4-2);}.cls-3{fill:url(#Degradado_sin_nombre_4-3);}.cls-4{fill:url(#Degradado_sin_nombre_10);}.cls-5{fill:url(#Degradado_sin_nombre_3);}.cls-6{fill:url(#Degradado_sin_nombre_3-2);}.cls-7{fill:url(#Degradado_sin_nombre_3-3);}.cls-8{fill:url(#Degradado_sin_nombre_3-4);}.cls-9{fill:url(#Degradado_sin_nombre_3-5);}.cls-10{fill:url(#Degradado_sin_nombre_3-6);}.cls-11{fill:url(#Degradado_sin_nombre_3-7);}.cls-12{fill:url(#Degradado_sin_nombre_3-8);}.cls-13{fill:url(#Degradado_sin_nombre_3-9);}.cls-14{fill:url(#Degradado_sin_nombre_3-10);}.cls-15{fill:url(#Degradado_sin_nombre_3-11);}.cls-16{fill:url(#Degradado_sin_nombre_10-2);}.cls-17{fill:url(#Degradado_sin_nombre_10-3);}.cls-18{fill:url(#Degradado_sin_nombre_10-4);}.cls-19{fill:url(#Degradado_sin_nombre_10-5);}.cls-20{fill:url(#Degradado_sin_nombre_10-6);}.cls-21{fill:url(#Degradado_sin_nombre_10-7);}.cls-22{fill:url(#Degradado_sin_nombre_10-8);}.cls-23{fill:url(#Degradado_sin_nombre_4-4);}.cls-24{fill:url(#Degradado_sin_nombre_4-5);}.cls-25{fill:url(#Degradado_sin_nombre_9);}.cls-26{fill:url(#Degradado_sin_nombre_10-9);}.cls-27{fill:url(#Degradado_sin_nombre_3-12);}.cls-28{fill:url(#Degradado_sin_nombre_3-13);}.cls-29{fill:url(#Degradado_sin_nombre_3-14);}.cls-30{fill:url(#Degradado_sin_nombre_3-15);}.cls-31{fill:url(#Degradado_sin_nombre_3-16);}.cls-32{fill:url(#Degradado_sin_nombre_3-17);}.cls-33{fill:url(#Degradado_sin_nombre_3-18);}.cls-34{fill:url(#Degradado_sin_nombre_3-19);}.cls-35{fill:url(#Degradado_sin_nombre_3-20);}.cls-36{fill:url(#Degradado_sin_nombre_3-21);}.cls-37{fill:url(#Degradado_sin_nombre_10-10);}.cls-38{fill:url(#Degradado_sin_nombre_10-11);}.cls-39{fill:url(#Degradado_sin_nombre_10-12);}.cls-40{fill:url(#Degradado_sin_nombre_10-13);}.cls-41{fill:url(#Degradado_sin_nombre_10-14);}.cls-42{fill:url(#Degradado_sin_nombre_10-15);}.cls-43{fill:url(#Degradado_sin_nombre_10-16);}.cls-44{fill:url(#Degradado_sin_nombre_10-17);}.cls-45{fill:url(#Degradado_sin_nombre_10-18);}.cls-46{fill:url(#Degradado_sin_nombre_10-19);}.cls-47{fill:url(#Degradado_sin_nombre_4-6);}.cls-48{fill:url(#Degradado_sin_nombre_4-7);}.cls-49{fill:url(#Degradado_sin_nombre_4-8);}.cls-50{fill:url(#Degradado_sin_nombre_4-9);}.cls-51{fill:url(#Degradado_sin_nombre_4-10);}.cls-52{fill:url(#Degradado_sin_nombre_4-11);}.cls-53{fill:url(#Degradado_sin_nombre_4-12);}.cls-54{fill:url(#Degradado_sin_nombre_4-13);}.cls-55{fill:url(#Degradado_sin_nombre_4-14);}.cls-56{fill:url(#Degradado_sin_nombre_4-15);}.cls-57{fill:url(#Degradado_sin_nombre_4-16);}.cls-58{fill:url(#Degradado_sin_nombre_4-17);}.cls-59{fill:url(#Degradado_sin_nombre_4-18);}.cls-60{fill:url(#Degradado_sin_nombre_4-19);}.cls-61{fill:url(#Degradado_sin_nombre_4-20);}.cls-62{fill:url(#Degradado_sin_nombre_4-21);}.cls-63{fill:url(#Degradado_sin_nombre_4-22);}.cls-64{fill:url(#Degradado_sin_nombre_10-20);}.cls-65{fill:url(#Degradado_sin_nombre_10-21);}.cls-66{fill:url(#Degradado_sin_nombre_10-22);}.cls-67{fill:url(#Degradado_sin_nombre_10-23);}.cls-68{fill:url(#Degradado_sin_nombre_10-24);}.cls-69{fill:url(#Degradado_sin_nombre_10-25);}.cls-70{fill:url(#Degradado_sin_nombre_4-23);}.cls-71{fill:url(#Degradado_sin_nombre_10-26);}.cls-72{fill:url(#Degradado_sin_nombre_4-24);}.cls-73{fill:url(#Degradado_sin_nombre_10-27);}.cls-74{fill:url(#Degradado_sin_nombre_10-28);}.cls-75{fill:url(#Degradado_sin_nombre_10-29);}.cls-76{fill:url(#Degradado_sin_nombre_10-30);}.cls-77{fill:url(#Degradado_sin_nombre_10-31);}.cls-78{fill:url(#Degradado_sin_nombre_10-32);}.cls-79{fill:#db9b46;}.cls-80{fill:#ffc431;}.cls-81{fill:#ff8;}.cls-82{fill:url(#Degradado_sin_nombre_10-33);}.cls-83{fill:url(#Degradado_sin_nombre_10-34);}.cls-84{fill:url(#Degradado_sin_nombre_10-35);}.cls-85{fill:url(#Degradado_sin_nombre_10-36);}.cls-86{fill:url(#Degradado_sin_nombre_10-37);}.cls-87{fill:url(#Degradado_sin_nombre_10-38);}.cls-88{fill:url(#Degradado_sin_nombre_10-39);}.cls-89{fill:url(#Degradado_sin_nombre_10-40);}.cls-90{fill:url(#Degradado_sin_nombre_10-41);}.cls-91{fill:url(#Degradado_sin_nombre_10-42);}.cls-92{fill:url(#Degradado_sin_nombre_10-43);}.cls-93{fill:url(#Degradado_sin_nombre_10-44);}.cls-94{fill:url(#Degradado_sin_nombre_10-45);}.cls-95{fill:url(#Degradado_sin_nombre_10-46);}.cls-96{fill:url(#Degradado_sin_nombre_10-47);}.cls-97{fill:url(#Degradado_sin_nombre_10-48);}.cls-98{fill:url(#Degradado_sin_nombre_10-49);}.cls-99{fill:url(#Degradado_sin_nombre_10-50);}.cls-100{fill:url(#Degradado_sin_nombre_10-51);}.cls-101{fill:url(#Degradado_sin_nombre_10-52);}.cls-102{fill:url(#Degradado_sin_nombre_10-53);}.cls-103{fill:url(#Degradado_sin_nombre_10-54);}.cls-104{fill:url(#Degradado_sin_nombre_4-25);}.cls-105{fill:url(#Degradado_sin_nombre_4-26);}.cls-106{fill:url(#Degradado_sin_nombre_4-27);}.cls-107{fill:url(#Degradado_sin_nombre_4-28);}.cls-108{fill:url(#Degradado_sin_nombre_4-29);}.cls-109{fill:url(#Degradado_sin_nombre_4-30);}.cls-110{fill:url(#Degradado_sin_nombre_4-31);}.cls-111{fill:url(#Degradado_sin_nombre_4-32);}.cls-112{fill:url(#Degradado_sin_nombre_4-33);}.cls-113{fill:url(#Degradado_sin_nombre_4-34);}.cls-114{fill:url(#Degradado_sin_nombre_4-35);}.cls-115{fill:url(#Degradado_sin_nombre_4-36);}.cls-116{fill:url(#Degradado_sin_nombre_4-37);}.cls-117{fill:url(#Degradado_sin_nombre_4-38);}.cls-118{fill:url(#Degradado_sin_nombre_4-39);}.cls-119{fill:url(#Degradado_sin_nombre_4-40);}.cls-120{fill:url(#Degradado_sin_nombre_4-41);}.cls-121{fill:url(#Degradado_sin_nombre_4-42);}.cls-122{fill:url(#Degradado_sin_nombre_4-43);}.cls-123{fill:url(#Degradado_sin_nombre_4-44);}.cls-124{fill:url(#Degradado_sin_nombre_4-45);}.cls-125{fill:url(#Degradado_sin_nombre_4-46);}.cls-126{fill:url(#Degradado_sin_nombre_4-47);}.cls-127{fill:url(#Degradado_sin_nombre_3-22);}</style><linearGradient id="Degradado_sin_nombre_4" x1="224.24" y1="314.12" x2="225.06" y2="314.12" gradientUnits="userSpaceOnUse"><stop offset="0" stop-color="#ffb624"/><stop offset="0.22" stop-color="#ff3000"/><stop offset="0.99" stop-color="#490f0f"/></linearGradient><linearGradient id="Degradado_sin_nombre_4-2" x1="169.66" y1="284.65" x2="171.22" y2="284.65" xlink:href="#Degradado_sin_nombre_4"/><linearGradient id="Degradado_sin_nombre_4-3" x1="13.1" y1="224.41" x2="383.67" y2="224.41" xlink:href="#Degradado_sin_nombre_4"/><linearGradient id="Degradado_sin_nombre_10" x1="114.63" y1="237.17" x2="367.05" y2="237.17" gradientUnits="userSpaceOnUse"><stop offset="0" stop-color="#ffb624"/><stop offset="0.43" stop-color="#ff3b03"/><stop offset="0.47" stop-color="#ff3000"/><stop offset="1" stop-color="#ff3000"/></linearGradient><linearGradient id="Degradado_sin_nombre_3" x1="212.39" y1="194.1" x2="340.44" y2="253.76" gradientUnits="userSpaceOnUse"><stop offset="0" stop-color="#ffb624"/><stop offset="0.37" stop-color="#ff3000"/><stop offset="0.99" stop-color="#490f0f"/></linearGradient><linearGradient id="Degradado_sin_nombre_3-2" x1="262.16" y1="230.08" x2="262.21" y2="230.1" xlink:href="#Degradado_sin_nombre_3"/><linearGradient id="Degradado_sin_nombre_3-3" x1="265.27" y1="206.18" x2="329.55" y2="236.13" xlink:href="#Degradado_sin_nombre_3"/><linearGradient id="Degradado_sin_nombre_3-4" x1="-2.7" y1="207.4" x2="37.21" y2="225.99" xlink:href="#Degradado_sin_nombre_3"/><linearGradient id="Degradado_sin_nombre_3-5" x1="179.93" y1="103.12" x2="219.82" y2="121.7" xlink:href="#Degradado_sin_nombre_3"/><linearGradient id="Degradado_sin_nombre_3-6" x1="224.17" y1="119.21" x2="281.83" y2="146.08" xlink:href="#Degradado_sin_nombre_3"/><linearGradient id="Degradado_sin_nombre_3-7" x1="256.61" y1="125.7" x2="271.1" y2="132.45" xlink:href="#Degradado_sin_nombre_3"/><linearGradient id="Degradado_sin_nombre_3-8" x1="113.49" y1="66.84" x2="151.01" y2="84.32" xlink:href="#Degradado_sin_nombre_3"/><linearGradient id="Degradado_sin_nombre_3-9" x1="183.69" y1="81.26" x2="198.3" y2="88.07" xlink:href="#Degradado_sin_nombre_3"/><linearGradient id="Degradado_sin_nombre_3-10" x1="227.99" y1="82.84" x2="244.44" y2="90.5" xlink:href="#Degradado_sin_nombre_3"/><linearGradient id="Degradado_sin_nombre_3-11" x1="285.6" y1="106.09" x2="296.94" y2="111.37" xlink:href="#Degradado_sin_nombre_3"/><linearGradient id="Degradado_sin_nombre_10-2" x1="21.5" y1="303.08" x2="102.67" y2="303.08" xlink:href="#Degradado_sin_nombre_10"/><linearGradient id="Degradado_sin_nombre_10-3" x1="106.69" y1="331.93" x2="163.14" y2="331.93" xlink:href="#Degradado_sin_nombre_10"/><linearGradient id="Degradado_sin_nombre_10-4" x1="84.24" y1="355.36" x2="125.3" y2="355.36" xlink:href="#Degradado_sin_nombre_10"/><linearGradient id="Degradado_sin_nombre_10-5" x1="158.29" y1="358.95" x2="201.62" y2="358.95" xlink:href="#Degradado_sin_nombre_10"/><linearGradient id="Degradado_sin_nombre_10-6" x1="196.12" y1="375.1" x2="245.52" y2="375.1" xlink:href="#Degradado_sin_nombre_10"/><linearGradient id="Degradado_sin_nombre_10-7" x1="224.25" y1="358.61" x2="239.13" y2="358.61" xlink:href="#Degradado_sin_nombre_10"/><linearGradient id="Degradado_sin_nombre_10-8" x1="146.32" y1="390.52" x2="172.52" y2="390.52" xlink:href="#Degradado_sin_nombre_10"/><linearGradient id="Degradado_sin_nombre_4-4" x1="553.44" y1="314.12" x2="554.26" y2="314.12" xlink:href="#Degradado_sin_nombre_4"/><linearGradient id="Degradado_sin_nombre_4-5" x1="607.28" y1="284.65" x2="608.84" y2="284.65" xlink:href="#Degradado_sin_nombre_4"/><linearGradient id="Degradado_sin_nombre_9" x1="705.25" y1="188.05" x2="451.74" y2="254.01" gradientUnits="userSpaceOnUse"><stop offset="0" stop-color="#ffb624"/><stop offset="0.22" stop-color="#ff3000"/><stop offset="0.81" stop-color="#75170b"/><stop offset="0.99" stop-color="#490f0f"/></linearGradient><linearGradient id="Degradado_sin_nombre_10-9" x1="637.69" y1="187.73" x2="487" y2="247.88" xlink:href="#Degradado_sin_nombre_10"/><linearGradient id="Degradado_sin_nombre_3-12" x1="552.16" y1="220.81" x2="415.86" y2="243.13" xlink:href="#Degradado_sin_nombre_3"/><linearGradient id="Degradado_sin_nombre_3-13" x1="516.29" y1="230.09" x2="516.32" y2="230.1" xlink:href="#Degradado_sin_nombre_3"/><linearGradient id="Degradado_sin_nombre_3-14" x1="502.02" y1="211.96" x2="420.05" y2="245.92" xlink:href="#Degradado_sin_nombre_3"/><linearGradient id="Degradado_sin_nombre_3-15" x1="744.87" y1="211.33" x2="764.78" y2="220.61" xlink:href="#Degradado_sin_nombre_3"/><linearGradient id="Degradado_sin_nombre_3-16" x1="561.29" y1="110.39" x2="584.84" y2="121.37" xlink:href="#Degradado_sin_nombre_3"/><linearGradient id="Degradado_sin_nombre_3-17" x1="512.76" y1="129.71" x2="516.83" y2="131.61" xlink:href="#Degradado_sin_nombre_3"/><linearGradient id="Degradado_sin_nombre_3-18" x1="628.67" y1="73.54" x2="653.35" y2="85.03" xlink:href="#Degradado_sin_nombre_3"/><linearGradient id="Degradado_sin_nombre_3-19" x1="583.84" y1="84.14" x2="590.15" y2="87.09" xlink:href="#Degradado_sin_nombre_3"/><linearGradient id="Degradado_sin_nombre_3-20" x1="536.09" y1="85.66" x2="543.31" y2="89.03" xlink:href="#Degradado_sin_nombre_3"/><linearGradient id="Degradado_sin_nombre_3-21" x1="483.73" y1="108.23" x2="488.68" y2="110.54" xlink:href="#Degradado_sin_nombre_3"/><linearGradient id="Degradado_sin_nombre_10-10" x1="675.83" y1="303.08" x2="757" y2="303.08" xlink:href="#Degradado_sin_nombre_10"/><linearGradient id="Degradado_sin_nombre_10-11" x1="615.36" y1="331.93" x2="671.81" y2="331.93" xlink:href="#Degradado_sin_nombre_10"/><linearGradient id="Degradado_sin_nombre_10-12" x1="653.2" y1="355.36" x2="694.26" y2="355.36" xlink:href="#Degradado_sin_nombre_10"/><linearGradient id="Degradado_sin_nombre_10-13" x1="576.88" y1="358.95" x2="620.21" y2="358.95" xlink:href="#Degradado_sin_nombre_10"/><linearGradient id="Degradado_sin_nombre_10-14" x1="532.98" y1="375.1" x2="582.38" y2="375.1" xlink:href="#Degradado_sin_nombre_10"/><linearGradient id="Degradado_sin_nombre_10-15" x1="539.37" y1="358.61" x2="554.25" y2="358.61" xlink:href="#Degradado_sin_nombre_10"/><linearGradient id="Degradado_sin_nombre_10-16" x1="605.98" y1="390.52" x2="632.18" y2="390.52" xlink:href="#Degradado_sin_nombre_10"/><linearGradient id="Degradado_sin_nombre_10-17" x1="414.56" y1="42.02" x2="414.53" y2="42.32" xlink:href="#Degradado_sin_nombre_10"/><linearGradient id="Degradado_sin_nombre_10-18" x1="401.03" y1="117.24" x2="391.09" y2="230.44" xlink:href="#Degradado_sin_nombre_10"/><linearGradient id="Degradado_sin_nombre_10-19" x1="407.75" y1="110.68" x2="399.92" y2="199.8" xlink:href="#Degradado_sin_nombre_10"/><linearGradient id="Degradado_sin_nombre_4-6" x1="304.79" y1="347.66" x2="295.73" y2="356.39" xlink:href="#Degradado_sin_nombre_4"/><linearGradient id="Degradado_sin_nombre_4-7" x1="327.68" y1="334.68" x2="262.73" y2="377.58" xlink:href="#Degradado_sin_nombre_4"/><linearGradient id="Degradado_sin_nombre_4-8" x1="515.33" y1="346.76" x2="505.91" y2="355.84" xlink:href="#Degradado_sin_nombre_4"/><linearGradient id="Degradado_sin_nombre_4-9" x1="549.22" y1="327.04" x2="469.36" y2="379.8" xlink:href="#Degradado_sin_nombre_4"/><linearGradient id="Degradado_sin_nombre_4-10" x1="370.34" y1="589.95" x2="340.16" y2="716.67" xlink:href="#Degradado_sin_nombre_4"/><linearGradient id="Degradado_sin_nombre_4-11" x1="466.18" y1="594.24" x2="465.51" y2="597.04" xlink:href="#Degradado_sin_nombre_4"/><linearGradient id="Degradado_sin_nombre_4-12" x1="390.15" y1="518.23" x2="345.83" y2="704.39" xlink:href="#Degradado_sin_nombre_4"/><linearGradient id="Degradado_sin_nombre_4-13" x1="459.77" y1="542.52" x2="460.99" y2="551.03" xlink:href="#Degradado_sin_nombre_4"/><linearGradient id="Degradado_sin_nombre_4-14" x1="312.38" y1="440.02" x2="341.02" y2="639.14" xlink:href="#Degradado_sin_nombre_4"/><linearGradient id="Degradado_sin_nombre_4-15" x1="349.13" y1="668.97" x2="349.18" y2="669.37" xlink:href="#Degradado_sin_nombre_4"/><linearGradient id="Degradado_sin_nombre_4-16" x1="352.16" y1="418.2" x2="390.83" y2="735.53" xlink:href="#Degradado_sin_nombre_4"/><linearGradient id="Degradado_sin_nombre_4-17" x1="430.19" y1="583.64" x2="431.6" y2="595.25" xlink:href="#Degradado_sin_nombre_4"/><linearGradient id="Degradado_sin_nombre_4-18" x1="375.88" y1="638.28" x2="376" y2="638.69" xlink:href="#Degradado_sin_nombre_4"/><linearGradient id="Degradado_sin_nombre_4-19" x1="365.22" y1="409.45" x2="401.59" y2="528.56" xlink:href="#Degradado_sin_nombre_4"/><linearGradient id="Degradado_sin_nombre_4-20" x1="381.36" y1="376.33" x2="395.44" y2="491.85" xlink:href="#Degradado_sin_nombre_4"/><linearGradient id="Degradado_sin_nombre_4-21" x1="383.79" y1="362.36" x2="389.59" y2="428.51" xlink:href="#Degradado_sin_nombre_4"/><linearGradient id="Degradado_sin_nombre_4-22" x1="382.62" y1="369.64" x2="383.13" y2="408.33" xlink:href="#Degradado_sin_nombre_4"/><linearGradient id="Degradado_sin_nombre_10-20" x1="437.95" y1="296.23" x2="429.87" y2="367.32" xlink:href="#Degradado_sin_nombre_10"/><linearGradient id="Degradado_sin_nombre_10-21" x1="456.36" y1="306.26" x2="447.92" y2="380.59" xlink:href="#Degradado_sin_nombre_10"/><linearGradient id="Degradado_sin_nombre_10-22" x1="491.55" y1="326.17" x2="487.81" y2="359.01" xlink:href="#Degradado_sin_nombre_10"/><linearGradient id="Degradado_sin_nombre_10-23" x1="342.4" y1="297.46" x2="335" y2="362.55" xlink:href="#Degradado_sin_nombre_10"/><linearGradient id="Degradado_sin_nombre_10-24" x1="326.73" y1="305.42" x2="319.06" y2="372.87" xlink:href="#Degradado_sin_nombre_10"/><linearGradient id="Degradado_sin_nombre_10-25" x1="365.24" y1="346.52" x2="358.78" y2="403.44" xlink:href="#Degradado_sin_nombre_10"/><linearGradient id="Degradado_sin_nombre_4-23" x1="368.35" y1="352.82" x2="371.01" y2="383.15" xlink:href="#Degradado_sin_nombre_4"/><linearGradient id="Degradado_sin_nombre_10-26" x1="408.66" y1="343.21" x2="401.52" y2="406.01" xlink:href="#Degradado_sin_nombre_10"/><linearGradient id="Degradado_sin_nombre_4-24" x1="403.63" y1="355.18" x2="405.97" y2="381.79" xlink:href="#Degradado_sin_nombre_4"/><linearGradient id="Degradado_sin_nombre_10-27" x1="394.53" y1="188.96" x2="394.53" y2="371.25" xlink:href="#Degradado_sin_nombre_10"/><linearGradient id="Degradado_sin_nombre_10-28" x1="373.5" y1="198.29" x2="373.5" y2="201.6" xlink:href="#Degradado_sin_nombre_10"/><linearGradient id="Degradado_sin_nombre_10-29" x1="376.72" y1="243.89" x2="376.72" y2="245.62" xlink:href="#Degradado_sin_nombre_10"/><linearGradient id="Degradado_sin_nombre_10-30" x1="393.78" y1="221.69" x2="393.78" y2="408.56" xlink:href="#Degradado_sin_nombre_10"/><linearGradient id="Degradado_sin_nombre_10-31" x1="398.98" y1="262.95" x2="385.35" y2="382.96" xlink:href="#Degradado_sin_nombre_10"/><linearGradient id="Degradado_sin_nombre_10-32" x1="389.8" y1="314.99" x2="382.49" y2="379.27" xlink:href="#Degradado_sin_nombre_10"/><linearGradient id="Degradado_sin_nombre_10-33" x1="422.46" y1="159.1" x2="435.65" y2="267.29" xlink:href="#Degradado_sin_nombre_10"/><linearGradient id="Degradado_sin_nombre_10-34" x1="440.53" y1="156.9" x2="453.71" y2="265.09" xlink:href="#Degradado_sin_nombre_10"/><linearGradient id="Degradado_sin_nombre_10-35" x1="437.99" y1="136.72" x2="439.2" y2="146.62" xlink:href="#Degradado_sin_nombre_10"/><linearGradient id="Degradado_sin_nombre_10-36" x1="435.49" y1="159.56" x2="447.47" y2="257.84" xlink:href="#Degradado_sin_nombre_10"/><linearGradient id="Degradado_sin_nombre_10-37" x1="404.53" y1="161.28" x2="417.71" y2="269.48" xlink:href="#Degradado_sin_nombre_10"/><linearGradient id="Degradado_sin_nombre_10-38" x1="368.68" y1="165.65" x2="381.87" y2="273.84" xlink:href="#Degradado_sin_nombre_10"/><linearGradient id="Degradado_sin_nombre_10-39" x1="370.47" y1="165.43" x2="383.66" y2="273.63" xlink:href="#Degradado_sin_nombre_10"/><linearGradient id="Degradado_sin_nombre_10-40" x1="403.27" y1="161.44" x2="416.46" y2="269.63" xlink:href="#Degradado_sin_nombre_10"/><linearGradient id="Degradado_sin_nombre_10-41" x1="403.39" y1="161.42" x2="416.58" y2="269.62" xlink:href="#Degradado_sin_nombre_10"/><linearGradient id="Degradado_sin_nombre_10-42" x1="425.79" y1="158.69" x2="438.97" y2="266.89" xlink:href="#Degradado_sin_nombre_10"/><linearGradient id="Degradado_sin_nombre_10-43" x1="446.24" y1="156.2" x2="459.43" y2="264.39" xlink:href="#Degradado_sin_nombre_10"/><linearGradient id="Degradado_sin_nombre_10-44" x1="456.5" y1="154.95" x2="469.69" y2="263.14" xlink:href="#Degradado_sin_nombre_10"/><linearGradient id="Degradado_sin_nombre_10-45" x1="350.98" y1="180.65" x2="349.36" y2="194.92" xlink:href="#Degradado_sin_nombre_10"/><linearGradient id="Degradado_sin_nombre_10-46" x1="286.48" y1="324.51" x2="282.25" y2="361.78" xlink:href="#Degradado_sin_nombre_10"/><linearGradient id="Degradado_sin_nombre_10-47" x1="352.21" y1="298.04" x2="360.74" y2="331.28" xlink:href="#Degradado_sin_nombre_10"/><linearGradient id="Degradado_sin_nombre_10-48" x1="339.02" y1="273.58" x2="345.2" y2="297.66" xlink:href="#Degradado_sin_nombre_10"/><linearGradient id="Degradado_sin_nombre_10-49" x1="349.98" y1="285.4" x2="352.33" y2="294.55" xlink:href="#Degradado_sin_nombre_10"/><linearGradient id="Degradado_sin_nombre_10-50" x1="355.52" y1="319.5" x2="361.07" y2="341.15" xlink:href="#Degradado_sin_nombre_10"/><linearGradient id="Degradado_sin_nombre_10-51" x1="458.45" y1="282.01" x2="464.79" y2="306.74" xlink:href="#Degradado_sin_nombre_10"/><linearGradient id="Degradado_sin_nombre_10-52" x1="442.66" y1="269.25" x2="448.3" y2="291.24" xlink:href="#Degradado_sin_nombre_10"/><linearGradient id="Degradado_sin_nombre_10-53" x1="462.15" y1="297.05" x2="467.27" y2="317" xlink:href="#Degradado_sin_nombre_10"/><linearGradient id="Degradado_sin_nombre_10-54" x1="479.45" y1="284.46" x2="484.01" y2="302.25" xlink:href="#Degradado_sin_nombre_10"/><linearGradient id="Degradado_sin_nombre_4-25" x1="301.29" y1="508.43" x2="203.1" y2="678.22" xlink:href="#Degradado_sin_nombre_4"/><linearGradient id="Degradado_sin_nombre_4-26" x1="230.86" y1="628.96" x2="118.34" y2="703.28" xlink:href="#Degradado_sin_nombre_4"/><linearGradient id="Degradado_sin_nombre_4-27" x1="269.6" y1="490.1" x2="171.41" y2="659.89" xlink:href="#Degradado_sin_nombre_4"/><linearGradient id="Degradado_sin_nombre_4-28" x1="294.57" y1="504.54" x2="196.37" y2="674.33" xlink:href="#Degradado_sin_nombre_4"/><linearGradient id="Degradado_sin_nombre_4-29" x1="324.87" y1="522.06" x2="226.68" y2="691.85" xlink:href="#Degradado_sin_nombre_4"/><linearGradient id="Degradado_sin_nombre_4-30" x1="340.02" y1="530.82" x2="241.83" y2="700.61" xlink:href="#Degradado_sin_nombre_4"/><linearGradient id="Degradado_sin_nombre_4-31" x1="413.06" y1="573.06" x2="314.87" y2="742.85" xlink:href="#Degradado_sin_nombre_4"/><linearGradient id="Degradado_sin_nombre_4-32" x1="388.07" y1="558.61" x2="289.88" y2="728.4" xlink:href="#Degradado_sin_nombre_4"/><linearGradient id="Degradado_sin_nombre_4-33" x1="364.58" y1="545.03" x2="266.39" y2="714.82" xlink:href="#Degradado_sin_nombre_4"/><linearGradient id="Degradado_sin_nombre_4-34" x1="479.34" y1="611.39" x2="381.15" y2="781.19" xlink:href="#Degradado_sin_nombre_4"/><linearGradient id="Degradado_sin_nombre_4-35" x1="523.86" y1="637.14" x2="425.67" y2="806.93" xlink:href="#Degradado_sin_nombre_4"/><linearGradient id="Degradado_sin_nombre_4-36" x1="550.1" y1="652.32" x2="451.91" y2="822.11" xlink:href="#Degradado_sin_nombre_4"/><linearGradient id="Degradado_sin_nombre_4-37" x1="515.3" y1="741.75" x2="507.39" y2="755.42" xlink:href="#Degradado_sin_nombre_4"/><linearGradient id="Degradado_sin_nombre_4-38" x1="572.59" y1="671.39" x2="482.31" y2="827.5" xlink:href="#Degradado_sin_nombre_4"/><linearGradient id="Degradado_sin_nombre_4-39" x1="569.27" y1="653.4" x2="471.08" y2="823.19" xlink:href="#Degradado_sin_nombre_4"/><linearGradient id="Degradado_sin_nombre_4-40" x1="232.7" y1="563.82" x2="231.25" y2="569.91" xlink:href="#Degradado_sin_nombre_4"/><linearGradient id="Degradado_sin_nombre_4-41" x1="396.3" y1="563.37" x2="298.11" y2="733.16" xlink:href="#Degradado_sin_nombre_4"/><linearGradient id="Degradado_sin_nombre_4-42" x1="272.7" y1="526.21" x2="269.59" y2="539.3" xlink:href="#Degradado_sin_nombre_4"/><linearGradient id="Degradado_sin_nombre_4-43" x1="224.82" y1="464.2" x2="126.63" y2="633.99" xlink:href="#Degradado_sin_nombre_4"/><linearGradient id="Degradado_sin_nombre_4-44" x1="550.49" y1="620.54" x2="547.44" y2="633.33" xlink:href="#Degradado_sin_nombre_4"/><linearGradient id="Degradado_sin_nombre_4-45" x1="587.64" y1="674.03" x2="489.45" y2="843.82" xlink:href="#Degradado_sin_nombre_4"/><linearGradient id="Degradado_sin_nombre_4-46" x1="566.31" y1="671" x2="565.84" y2="672.95" xlink:href="#Degradado_sin_nombre_4"/><linearGradient id="Degradado_sin_nombre_4-47" x1="635.72" y1="701.83" x2="537.53" y2="871.62" xlink:href="#Degradado_sin_nombre_4"/><linearGradient id="Degradado_sin_nombre_3-22" x1="296.72" y1="157.84" x2="317.17" y2="167.37" xlink:href="#Degradado_sin_nombre_3"/></defs><title>fire_guardian1</title><g id="Layer_2" data-name="Layer 2"><g id="Capa_2" data-name="Capa 2"><path class="cls-1" d="M224.24,315.22a12,12,0,0,0,.82-2.2Z"/><path class="cls-2" d="M169.66,286.35c1-2.1,1.56-3.41,1.56-3.41Z"/><path class="cls-3" d="M320.29,189.81l-183-100.88s54.32,49.15,71.79,57.55-5.18-.64-5.18-.64L110.11,85s7.76,29.11,18.1,36.87,61.44,33.63,61.44,33.63-44-14.88-61.44-21.34S92.64,98.63,92.64,98.63s-5.82,36.86,12.94,47.21,62.73,18.75,62.73,18.75-44,9.7-60.14-1.94-16.82-25.87-36.22-31-42,5.82-42,5.82,44,0,49.15,20,73.73,23.28,73.73,23.28-63.38,3.88-79.55-7.11-60.14,3.88-60.14,3.88,39.45,5.82,54.32,18.75,70.5,0,70.5,0S88.76,211.8,73.24,211.16s-46.56-13.58-46.56-13.58S30.56,222.15,59,228s69.85-14.23,69.85-14.23-30.4,29.75-48.5,32.34S40.91,249.31,44.14,250s36.86,18.76,55,14.88,44-23.29,44-23.29-29.75,38.81-59.5,40.75-47.21,4.52-42.68,4.52,60.14,14.88,74.37,7.76,43.33-39.45,42.68-36.21S136.62,303,114.63,310.11c0,0,9.06,12.61,27,6.79,14.09-4.57,24.29-22.88,28-30.55l1.56-3.41s-.54,1.31-1.56,3.41l-14.93,32.49s14.07,0,22.31-1.46S196.93,298,196.93,298s.48,22.8-16,27.65a26.26,26.26,0,0,0,26.19,3.88c11.14-4.18,15.54-10.85,17.13-14.29l.82-2.2a12,12,0,0,1-.82,2.2l-8.39,22.53s19.88-2.42,24.25-5.33,8.24-11.16,8.24-11.16l-2.42,21.83,137.75,20.7S291.19,262.9,320.29,189.81Z"/><path class="cls-4" d="M320.29,189.81l-106.9-58.93c.91,6.47,2.54,14.05,5.37,17.87,4.12,5.57,14.24,11.88,19.05,14.68-4.65-2.53-14.77-7.6-24.55-9.51-13.26-2.59-27.81-10-27.81-10s-1.29,11.31,12.61,15.52a77.08,77.08,0,0,1,24.58,13.26s-19.73-10.35-29.75-9.7-22.64-8.74-22.32-7.44-7.76,16.17,12.29,19.4,37.84,13.9,37.84,13.9-25.23-8.08-44.95-4.2-61.12,3.88-61.12,3.88a121.16,121.16,0,0,0,22.28,8l1-.23-.85.27a82.32,82.32,0,0,0,19.6,2.64c20.7,0,37.51-5.82,56.59,4.85,0,0-27.16-2.91-48.18,3.56s-38.48,32-38.48,32,29.75-20.05,49.47-16.49,34.28.65,34.28.65S193.53,240.26,177,236.7s-27.16,18.11-27.16,18.11,13.26-11,36.86-1.29,36.54-7.12,36.54-7.12-9.37,25.23-47.21,23.29a56.28,56.28,0,0,0,33,10.34c19.4-.32,30.07-15.19,30.07-15.19s-3.24,20-24.25,22c0,0,0,8.41,18.75,8.41s28.13-12.61,28.13-12.61-.32,22.31-16.81,26.19c0,0,14.23,7.76,27.48,2.59s15.85-12.29,15.85-12.29,0,25.22-14.55,27.49a54.42,54.42,0,0,0,37.18-4.85c19.08-10,38.81,4.85,49.16,16.81a17.2,17.2,0,0,0,7,4.89C341.9,310.24,299.22,242.74,320.29,189.81Z"/><path class="cls-5" d="M320.29,189.81,239,145c-.48,8.23.47,27.31,17.57,39.94l-34.28-22s10,25.22,19.41,32.33A127.53,127.53,0,0,0,257.88,206s-9,.33-19.4-6.79S212,196.61,212,196.61s15.19,2.58,22.95,16.81,17.79,11.64,17.79,11.64-9.05,6.47-16.17-1-29.1-7.44-29.1-7.44,12,5.82,15.52,17.14,33.31,4.85,33.31,4.85-7.12,14.88-19.73,16.82c0,0-.32,5.17,16.49,5.17s19.08-5.5,19.08-5.5-4.53,16.17-12.61,18.11c0,0,.65,4.53,17.14,3.56S296,271,296,271s-3.88,14.55-12,15.84c0,0,12.28,6.15,23.92-1.94s39.46,33.63,39.46,33.63.52-.46,1.4-1.3C326.27,281.38,303.83,231.15,320.29,189.81Z"/><path class="cls-6" d="M262.22,230.11l-.05,0S262.17,230.09,262.22,230.11Z"/><path class="cls-7" d="M320.29,189.81,280.75,168c-3.17,10.77-6.68,31.77,7.13,48l-21.35-17s-1.45,26.68,18.68,37.59c0,0-21.75-6-23-6.51.86.83,5.22,19.95,35.11,24.46l-16.73,4.12s33.21,6.46,47.93,20.55C315.91,250.21,309.09,218,320.29,189.81Z"/><path class="cls-8" d="M0,198.55s.49,33,45.11,35.89C45.11,234.44,6.63,215.68,0,198.55Z"/><polygon class="cls-9" points="178.34 103.48 227.49 130.64 206.79 110.27 178.34 103.48"/><path class="cls-10" d="M251.09,126.11c-8.08-18.43-25.87-13.58-25.87-13.58l12.61,9.7s12.29,15.2,28.14,26.84S291.51,162,291.51,162,259.18,144.54,251.09,126.11Z"/><path class="cls-11" d="M270.82,142.28l-10.67-24.9C252.06,129.35,270.82,142.28,270.82,142.28Z"/><polygon class="cls-12" points="110.75 69.85 158.93 91.19 139.53 74.7 110.75 69.85"/><path class="cls-13" d="M199.68,94.42,185.77,75.67S179,89.57,199.68,94.42Z"/><path class="cls-14" d="M228.78,79.87l18.11,15.85C244,82.78,228.78,79.87,228.78,79.87Z"/><path class="cls-15" d="M295.39,121.91l-5.82-25.22S284.72,112.21,295.39,121.91Z"/><path class="cls-16" d="M21.5,290.38S39,310.43,61.28,314.63s41.39-4.52,41.39-4.52l-14.55-4.53Z"/><path class="cls-17" d="M107.2,321.42s-5.5,15.2,19.72,20.05,36.22-10.34,36.22-10.34l-17.79-3.56S118.84,330.48,107.2,321.42Z"/><path class="cls-18" d="M125.3,357.32l-41.06-6.15S99.11,364.76,125.3,357.32Z"/><path class="cls-19" d="M178.34,370.25c14.22-1.29,23.28-23,23.28-23L158.29,369S164.11,371.55,178.34,370.25Z"/><path class="cls-20" d="M240.42,362.81s-5.5,13.59-20,17.14a71.43,71.43,0,0,0-24.25,11s13.26,0,33-4.85,16.17-26.84,16.17-26.84Z"/><path class="cls-21" d="M224.25,367.67c15.52-2.27,14.88-18.11,14.88-18.11Z"/><path class="cls-22" d="M146.32,393.53l26.2-5.17C153.11,384.8,146.32,393.53,146.32,393.53Z"/><path class="cls-23" d="M554.26,315.22l-.82-2.2A12,12,0,0,0,554.26,315.22Z"/><path class="cls-24" d="M608.84,286.35l-1.56-3.41S607.82,284.25,608.84,286.35Z"/><path class="cls-25" d="M711.08,196.28c14.87-12.93,54.32-18.75,54.32-18.75s-44-14.88-60.14-3.88-79.55,7.11-79.55,7.11,68.55-3.23,73.73-23.28,49.15-20,49.15-20-22.64-11-42-5.82-20,19.4-36.22,31-60.14,1.94-60.14,1.94,44-8.4,62.73-18.75,12.94-47.21,12.94-47.21-18.11,29.1-35.57,35.57-61.44,21.34-61.44,21.34,51.09-25.87,61.44-33.63S668.39,85,668.39,85l-93.77,60.8s-22.64,9-5.18.64,71.79-57.55,71.79-57.55l-183,100.88c29.1,73.09-63.38,174-63.38,174l137.75-20.7-2.42-21.83s3.88,8.25,8.24,11.16,24.25,5.33,24.25,5.33l-8.39-22.53a12,12,0,0,1-.82-2.2l.82,2.2c1.59,3.44,6,10.11,17.12,14.29a26.27,26.27,0,0,0,26.2-3.88c-16.49-4.85-16-27.65-16-27.65s11.64,17.95,19.89,19.4,22.31,1.46,22.31,1.46l-14.93-32.49c-1-2.1-1.56-3.41-1.56-3.41l1.56,3.41c3.74,7.67,13.94,26,28,30.55,17.94,5.82,27-6.79,27-6.79-22-7.12-42.69-48.51-43.33-51.74s28.45,29.1,42.68,36.21,69.85-7.76,74.37-7.76-12.93-2.58-42.68-4.52-59.5-40.75-59.5-40.75,25.87,19.41,44,23.29,51.74-14.23,55-14.88-18.11-1.29-36.22-3.88-48.5-32.34-48.5-32.34,41.39,20,69.85,14.23,32.33-30.39,32.33-30.39-31,12.93-46.56,13.58-64.68-14.88-64.68-14.88S696.2,209.22,711.08,196.28Z"/><path class="cls-26" d="M663.87,188.52s-41.39,0-61.12-3.88-45,4.2-45,4.2,17.79-10.67,37.84-13.9,12-18.11,12.28-19.4-12.28,8.08-22.31,7.44-29.75,9.7-29.75,9.7a77.08,77.08,0,0,1,24.58-13.26c13.9-4.21,12.61-15.52,12.61-15.52s-14.55,7.43-27.81,10c-9.78,1.91-19.9,7-24.55,9.51,4.81-2.8,14.93-9.11,19-14.68,2.83-3.82,4.46-11.4,5.37-17.87l-106.9,58.93c21.07,52.93-21.61,120.43-46.76,153.64a17.2,17.2,0,0,0,7-4.89c10.35-12,30.08-26.84,49.15-16.81a54.45,54.45,0,0,0,37.19,4.85c-14.55-2.27-14.55-27.49-14.55-27.49s2.59,7.12,15.84,12.29,27.49-2.59,27.49-2.59c-16.49-3.88-16.81-26.19-16.81-26.19s9.37,12.61,28.13,12.61,18.75-8.41,18.75-8.41c-21-1.94-24.25-22-24.25-22S550,279.71,569.44,280a56.28,56.28,0,0,0,33-10.34c-37.84,1.94-47.21-23.29-47.21-23.29s12.93,16.82,36.54,7.12,36.86,1.29,36.86,1.29S618,233.15,601.46,236.7s-33.31-12.93-33.31-12.93,14.55,2.91,34.28-.65,49.47,16.49,49.47,16.49-17.46-25.54-38.48-32S565.24,204,565.24,204c19.08-10.67,35.89-4.85,56.59-4.85a82.32,82.32,0,0,0,19.6-2.64l-.85-.27,1,.23A121.16,121.16,0,0,0,663.87,188.52Z"/><path class="cls-27" d="M525.79,225.06s10,2.59,17.79-11.64,22.95-16.81,22.95-16.81-16.16-4.53-26.51,2.58-19.4,6.79-19.4,6.79a127.53,127.53,0,0,0,16.16-10.67c9.38-7.11,19.41-32.33,19.41-32.33l-34.28,22C539,172.33,540,153.25,539.48,145l-81.27,44.79c16.46,41.34-6,91.57-28.57,127.4.88.84,1.4,1.3,1.4,1.3s27.81-41.71,39.45-33.63,23.93,1.94,23.93,1.94c-8.08-1.29-12-15.84-12-15.84s2.91,4.85,19.4,5.82S519,273.24,519,273.24c-8.08-1.94-12.61-18.11-12.61-18.11s2.26,5.5,19.08,5.5S542,255.46,542,255.46c-12.61-1.94-19.73-16.82-19.73-16.82s29.75,6.47,33.31-4.85,15.52-17.14,15.52-17.14-22,0-29.1,7.44S525.79,225.06,525.79,225.06Z"/><path class="cls-28" d="M516.28,230.11c.05,0,.08,0,.05,0Z"/><path class="cls-29" d="M512,199l-21.35,17c13.81-16.22,10.3-37.22,7.13-48l-39.54,21.79c11.2,28.14,4.38,60.4-8.24,89.43,14.72-14.09,47.93-20.55,47.93-20.55l-16.73-4.12c29.89-4.51,34.25-23.63,35.11-24.46-1.24.52-23,6.51-23,6.51C513.42,225.71,512,199,512,199Z"/><path class="cls-30" d="M733.39,234.44c44.62-2.91,45.11-35.89,45.11-35.89C771.87,215.68,733.39,234.44,733.39,234.44Z"/><polygon class="cls-31" points="551.01 130.64 600.16 103.48 571.71 110.27 551.01 130.64"/><path class="cls-32" d="M507.68,142.28s18.76-12.93,10.67-24.9Z"/><polygon class="cls-33" points="619.57 91.19 667.75 69.85 638.97 74.7 619.57 91.19"/><path class="cls-34" d="M578.82,94.42c20.7-4.85,13.91-18.75,13.91-18.75Z"/><path class="cls-35" d="M531.61,95.72l18.11-15.85S534.52,82.78,531.61,95.72Z"/><path class="cls-36" d="M483.11,121.91c10.67-9.7,5.82-25.22,5.82-25.22Z"/><path class="cls-37" d="M675.83,310.11s19.08,8.73,41.39,4.52S757,290.38,757,290.38l-66.62,15.2Z"/><path class="cls-38" d="M633.15,327.57l-17.79,3.56s11,15.19,36.22,10.34,19.72-20.05,19.72-20.05C659.66,330.48,633.15,327.57,633.15,327.57Z"/><path class="cls-39" d="M694.26,351.17l-41.06,6.15C679.39,364.76,694.26,351.17,694.26,351.17Z"/><path class="cls-40" d="M600.16,370.25c14.23,1.3,20.05-1.29,20.05-1.29l-43.33-21.67S585.94,369,600.16,370.25Z"/><path class="cls-41" d="M538.08,362.81l-4.85-3.55s-3.56,22,16.17,26.84,33,4.85,33,4.85a71.43,71.43,0,0,0-24.25-11C543.58,376.4,538.08,362.81,538.08,362.81Z"/><path class="cls-42" d="M554.25,367.67l-14.88-18.11S538.72,365.4,554.25,367.67Z"/><path class="cls-43" d="M606,388.36l26.2,5.17S625.39,384.8,606,388.36Z"/><path class="cls-44" d="M414.42,41.7c.16.46.27.69.27.69S414.6,42.13,414.42,41.7Z"/><path class="cls-45" d="M427,0s-15.39,12.6-14.95,25.21c.35,9.88,1.77,14.82,2.37,16.49.18.43.27.69.27.69s-.11-.23-.27-.69c-1.09-2.61-5.48-11.82-13.65-12L406.19,39s15.24,33.1-2.93,52.45-25.21,10.19-34,31.57,6.45,21.39,1.17,36.67-14.07,16.29-5.86,38.7,32.24,55.5,32.24,55.5a275.46,275.46,0,0,0,27.55-46.34c12.31-26.48-5.27-44.81-8.21-68.74s9.38-28.52,15.83-56.52c0,0,12.16,1.4-4.1-31.45S427,0,427,0Z"/><path class="cls-46" d="M420.64,17.72a78.56,78.56,0,0,0-7,21.27,25.36,25.36,0,0,0,.77,2.69c-.19-.46-.49-1.12-.88-1.9-.95,6.77-.54,13.46,2,19.54,12.31,29,0,46.85-18.76,55.51s-19.93,29-19.93,29,4.69-21.89,32.24-27c0,0-41,20.88-25.79,63.65,7.7,21.61,21.08,33.08,35.08,38.94,2-3.78,4-7.78,5.95-11.95,12.31-26.48-5.27-44.81-8.21-68.74s9.38-28.52,15.83-56.52c0,0,12.16,1.4-4.1-31.45C421.1,37.1,419.82,26,420.64,17.72Z"/><path class="cls-47" d="M286.18,375.1a3.86,3.86,0,0,0-2,2.15l-4.25-.17s3.84-1.05,3.84-1.73.37-4.73.37-4.73-1.58,1-1.66,2.3a2.59,2.59,0,0,0,.36,1.82l-2.83.44a17.48,17.48,0,0,1-2.06-1.45c0-.12,1.5-6,2.95-6.83s2.79-5.42,2.27-6.15-2.67-2.26-4-.72-5,13.33-5,13.66a7.92,7.92,0,0,1,.16,1.41l3.52,4.25,6.91,0,4.53-5.1A6.26,6.26,0,0,0,286.18,375.1Z"/><path class="cls-48" d="M290.79,363.83c-.25-3.16-6.43-6.43-6.43-6.43l-1-8-8.85-.85s-2.43,26.67-1.7,28.74,6.55,5.09,7.52,5.09,8-.49,8-.49-2.12-2.36-8-2.3c-.39,0-4-4.12-4-4.12s4.12-12.25,5-12.74,5.21,2.55,6.42,4.13,5.58,3.27,8.49,1.82C296.24,368.68,291,367,290.79,363.83Z"/><path class="cls-49" d="M492.51,360c-1.29-1.54-3.44,0-4,.72s.81,5.3,2.26,6.15,2.91,6.71,2.95,6.83a17.48,17.48,0,0,1-2.06,1.45l-2.83-.44a2.55,2.55,0,0,0,.37-1.82c-.09-1.33-1.66-2.3-1.66-2.3s.36,4,.36,4.73,3.84,1.73,3.84,1.73l-4.24.17a3.91,3.91,0,0,0-2-2.15,6.28,6.28,0,0,0-3.12-.89l4.53,5.1,6.91,0,3.52-4.25a9,9,0,0,1,.16-1.41C497.52,373.36,493.8,361.56,492.51,360Z"/><path class="cls-50" d="M488.31,349.4l-1,8s-6.19,3.27-6.43,6.43-5.46,4.85-5.46,4.85c2.91,1.45,7.28-.25,8.49-1.82s5.58-4.61,6.43-4.13,5,12.74,5,12.74-3.62,4.12-4,4.12c-5.88-.06-8,2.3-8,2.3s7,.49,8,.49,6.79-3,7.52-5.09-1.7-28.74-1.7-28.74Z"/><path class="cls-51" d="M502.27,616.73c-4.54-17.73-33.18-40.46-33.18-40.46L337.71,520.36s-41.82,59.55-39.1,82.28-30,19.09-31.36,1.82c0,0-7.73,23.64,18.18,32.73,0,0-33.18-2.27-49.55,11.82s-27.28-.45-27.28-.45-5.45,11.36,16.82,17.27,37.28-2.27,40.92-1.36-39.1,5.91-43.19,14.09-39.55,8.64-37.28,9.09,87.74,4.55,87.74,4.55-48.64-1.82-60,9.09-30.91,6.36-30.91,6.36,19.09,6.37,45.46-1.36,45.46,6.36,45.46,6.36,70.92,16.82,102.29,13.19,49.55-14.55,49.55-14.55S400.9,729,421.81,735.38c0,0,21.37-15,44.1-16.36s34.54-23.64,34.54-23.64l11.37-50s11.82,1.37,6.82-13.63C518.64,631.74,506.82,634.46,502.27,616.73Z"/><path class="cls-52" d="M466.63,597.94c-.86-3.37-1.41-5.3-1.41-5.3Z"/><path class="cls-53" d="M509.55,692.2c16.36-11.6,17-26.6,6.13-44.33s-32-38.18-32-38.18L434.54,502l-75-81.83S296.8,532,309.07,573.55s-2.05,98.87-64.1,103-89.33,20.46-75,28c0,0,8.19-16.36,69.56-9.55s92,11.6,126.15-23.86,43-104.33,43-104.33,27.95,118.65-16.37,127.51S395,724.93,395,724.93s73.64,5.45,80.46-33.42c5.6-31.91-4.89-78.07-8.82-93.57l-1.41-5.3s.55,1.93,1.41,5.3l23.14,87.44s-33.41,36.14,33.41,33.41C523.18,718.79,493.18,703.79,509.55,692.2Z"/><path class="cls-54" d="M465.7,555.69c-5.89-8.44-10-13.51-10-13.51A38.81,38.81,0,0,0,465.7,555.69Z"/><path class="cls-55" d="M455.68,542.18s4.13,5.07,10,13.51a28.19,28.19,0,0,0,18.62,6.95s-21.82-5.46-23.87-35.46S440,484.9,440,484.9l16.37-.68s-9.55-3.41-13.64-19.09.68-28.64-21.82-35.46S395,406.48,395,406.48l-36.14,38.87s-23.87,53.87-26.6,97.51,57.28,79.78,24.55,120-77.05,45.68-113.19,44.32-66.15,24.55-45.69,36.14c0,0-8.86-19.78,37.51-17.73s182.06-3.41,207.29-40.91,10.91-76.38,10.91-76.38,23.19,52.51,5.46,80.47-58.65,18.41-91.38,35.46,30.69,31.36,30.69,31.36S354.07,729,395,724.93s92.74,2.72,108.42-51.14c11.68-40.13-20.51-93.48-37.71-118.1A38.81,38.81,0,0,1,455.68,542.18Z"/><path class="cls-56" d="M350.13,668.82l-2,.65S348.9,669.26,350.13,668.82Z"/><path class="cls-57" d="M442.72,510.36S425.45,489,429.08,459.44s-.91-45.46-18.64-55.91l-49.09-11.37s-25.46,66.37-19.09,108.65S394.53,586.28,390,622.64c-3.92,31.35-32.14,43.44-39.86,46.18,11.13-3.73,66.19-23.17,73.95-44.81a118.6,118.6,0,0,0,6.62-29.36c.36-7.25.2-12,.2-12a68.87,68.87,0,0,1-.2,12c-1,20.42-6.11,60.66-30.26,70.73-32.73,13.63-114.1,29.09-95,61.37,0,0,2.28-28.64,65.92-33.64s87.28-36.37,88.19-90.92S425,510.81,424.54,489C424.54,489,431.81,507.18,442.72,510.36Z"/><path class="cls-58" d="M430.9,582.64s.16,4.76-.2,12A68.87,68.87,0,0,0,430.9,582.64Z"/><path class="cls-59" d="M378.78,638.2c-3.47.59-5.61.81-5.61.81A31.67,31.67,0,0,0,378.78,638.2Z"/><path class="cls-60" d="M417.49,499.22c-7.5-35.46,6.14-46.37,6.14-75s-25.86-54-25.86-54L364.3,384s-23.18,16.37-10.91,70.92,64.78,98.87,59.33,141.15c-4.07,31.5-24,39.9-33.94,42.15,13.94-2.4,49.34-10.9,53.71-36,5.46-31.37-19.09-73-19.09-73l21.14,25.92S425,534.68,417.49,499.22Z"/><path class="cls-61" d="M411.08,369.7l-24.87,20.17L361.33,369.7s-4.66,24.65-6.84,43.91,23.95,54.22,26.12,71.7l-2.17-17.48,7.77,15.24L394,467.83l-2.17,17.48c2.17-17.48,28.29-52.43,26.12-71.7S411.08,369.7,411.08,369.7Z"/><path class="cls-62" d="M365.8,367.45l-15.86-3.38s4.24,41.11,37.1,81.27c0,0,25-36.62,31-70S365.8,367.45,365.8,367.45Z"/><path class="cls-63" d="M414.93,358.92l-46,.34-22.51-3.92s9.21,33.41,18.93,43.81,20.28,19.61,20.28,19.61,19.27-15,28.64-36.14S414.93,358.92,414.93,358.92Z"/><path class="cls-64" d="M443.06,291.24c7.5,12.5-7,33.64-7.73,33.19s2.28-11.14,3.87-16.82-4.09-8.41-4.09-8.41,3.18,4.32-3.41,14.77-4.32,22.51-5.23,20.46.91-14.09,4.09-23.87-4.77-17.73-4.77-17.73a66.81,66.81,0,0,1-4.55,35c-7.73,18.64-7.05,33.41-7.05,33.41l31.6-43s7.27-5,7.95-12.73S443.06,291.24,443.06,291.24Z"/><path class="cls-65" d="M449.14,299.77c-5.62,1.87-15.68,25.23-22.67,31.87s-16,24.55-16,24.55l1.71,14.49s5.11,3.41,9.38,1.37,9.2-10.4,16.36-20.12,15.34-34.26,15.34-34.26-5.11-3.07,2.9,1,34.27,33.07,34.27,33.07,3.41.85-1.2-10.06S454.77,297.89,449.14,299.77Z"/><path class="cls-66" d="M494.09,342.84l-5.46-14.21-.22,5.8-8.53-12.16c4.21,8,1.48,20.8,1.48,20.8l-3.75-.91c3.52,1.13,9.21,11.48,9.21,11.48,7.84-1.71,13.18,4.77,13.18,4.77l-4.89-20.8Z"/><path class="cls-67" d="M346.57,292.83s-7.95,8-4.77,17.73,5,21.82,4.09,23.87,1.37-10-5.23-20.46-3.41-14.77-3.41-14.77-5.68,2.73-4.09,8.41S337.71,324,337,324.43s-15.23-20.69-7.73-33.19c0,0-11.37,6.59-10.68,14.32s7.95,12.73,7.95,12.73l31.6,43s.68-14.77-7.05-33.41A66.81,66.81,0,0,1,346.57,292.83Z"/><path class="cls-68" d="M345.89,331.64c-7-6.64-17.05-30-22.67-31.87s-35.46,31-40.06,41.93-1.2,10.06-1.2,10.06,26.26-29,34.27-33.07,2.9-1,2.9-1,8.18,24.54,15.34,34.26,12.1,18.07,16.37,20.12,9.37-1.37,9.37-1.37l1.71-14.49S352.88,338.29,345.89,331.64Z"/><path class="cls-69" d="M371.12,353.3s-20.45-12.62-30-12.62S349,389.44,365.33,399s23.09-8.78,23.31-22.29-2.52-32.26-2.52-32.26Z"/><path class="cls-70" d="M361.23,378c5.63,6.65,21.14,11.77,21.14,11.77l.34-32.22c-3.92-3.24-28.29-4.78-28.29-4.78S355.61,371.37,361.23,378Z"/><path class="cls-71" d="M429.57,340.68c-9.55,0-30,12.62-30,12.62l-15-8.87s-2.73,18.75-2.52,32.26S389,408.53,405.36,399,439.12,340.68,429.57,340.68Z"/><path class="cls-72" d="M391.07,389.78s15.51-5.12,21.14-11.77S419,352.78,419,352.78s-24.37,1.54-28.29,4.78Z"/><path class="cls-73" d="M412.37,243.53c-2.2,2,4.39-14.73,6.86-22.66s10.15-7.65,16.46-31.17-20.85-36-20.85-36,13.44,10.76,9.05,35.12-20.85,32.58-22.5,30.32,6-18.7,12.9-29.75-1.37-27.19-13.72-40.23,19.2-34.56,19.2-34.56-14.81-.56-26.88,16.72.55,14.44,5.21,41.07-14.27,43.06-14.27,43.06S382.74,198.2,386,190s3.29-25.22-6-37.11,9.33-34,9.33-34c-24.42,2-24.14,29.18-16.46,40.8,6.11,9.24,2.67,29.4,1,37.27a6.18,6.18,0,0,1-.74,3.24s.32-1.22.74-3.24c.13-2.84-.48-7.87-3.75-16.31-6-15.58-18.66-17.57-18.66-17.57a77.59,77.59,0,0,1,11.25,26.07c3.57,15.58-2.47,16.71-6.59,34s19.76,47.31,19.76,47.31L389.05,292s16.46,3.4,25.79-.56,21.94-27.2,13.71-48.73,9.06-36.54,9.06-36.54C416.76,209.82,414.56,241.55,412.37,243.53Z"/><path class="cls-74" d="M373.87,197c-.42,2-.74,3.24-.74,3.24A6.18,6.18,0,0,0,373.87,197Z"/><path class="cls-75" d="M376.18,243.28l1.08,2.05C376.91,244.59,376.55,243.92,376.18,243.28Z"/><path class="cls-76" d="M424,237c2.73,14-12.62,19.78-12.62,19.78s9.21-15.35,3.75-26.6-4.09-16.36,2.39-21.48,2.73-25.23,2.73-25.23-3.41,14.66-11.93,20.8-8.87,5.12-1.71,25.91-12.73,26-12.73,26,4.32-3.64,6.37-13.18-1.37-17.51-9.55-21.14,13.18-14.1,11.82-34.78S384.76,166,384.76,166c6.82,7.05,5.91,24.55-2.27,41.37s4.77,11.59,7.95,23-5.68,16.82-5.68,16.82,2.27-15.46-6.36-23.87-2-14.32-.69-35.46-18.86-31.59-18.86-31.59,11.36,16.14,8.41,27.5-10.91,25.91-4.78,35.46c4.83,7.51,11.2,19.37,13.7,24.09.37.64.73,1.31,1.08,2.05l-1.08-2.05c-4.6-8-10.33-8.42-16.65-14.32-6.82-6.36-3.64-26.36-3.64-26.36s-2,2.72-5.22,10,5,35.46,12.5,43.18,10.23,25.23,7.27,35.46-10.23,25.23-9.77,39.1,7.72,38.18,7.72,38.18l28.92,8.56c2.32-.43,6.2-18.33,9.27-34s9.21-20.8,21.48-35.12,9.21-57.62,4.43-69.55,5.12-25.23,5.12-25.23C430.79,212.82,421.24,223.05,424,237Z"/><path class="cls-77" d="M423,270.79c-12.62,3.06-6.48,9.88-6.48,25.91s-22.16,19.43-16.71,16.36,11.93-23.18,4.77-33.41,3.07-23.87,3.07-23.87c-8.18,1.71-11.93,6.48-9.2,23.53s-13.64,28-13.64,28,7.5-10.23,5.45-25.57S367.71,250,367.71,250,380,263.29,380,281s-5.46,19.44-14.66,34.1c-2.35,3.73-3.76,9.89-4.57,17,.95,14.06,7.63,36.4,7.63,36.4l28.92,8.56c2.32-.43,6.2-18.33,9.27-34,2.74-14,7.92-19.57,17.71-30.77,3.13-7.56,5-14.8,0-20C417.83,285.45,423,270.79,423,270.79Z"/><path class="cls-78" d="M390.67,315.79c-15-1.82-19.78,22-19.78,22-2.72-13.87,12.28-28.64,12.28-28.64s-14.49,8.56-22.11,20.51c-.1.79-.21,1.59-.3,2.41.95,14.06,7.63,36.4,7.63,36.4l28.92,8.56c2.32-.43,6.2-18.33,9.27-34a54.78,54.78,0,0,1,2.47-8.93,37.65,37.65,0,0,0-12.7-1.3c-18.64,1.13-7,29.09-7,29.09s-11.37-19.77-7.28-28.86c3.86-8.58,15.8-7.65,28.78-2.94a50,50,0,0,1,5.28-8.17C409.13,323,401.68,317.13,390.67,315.79Z"/><path class="cls-79" d="M374.19,371.11s-3.41-6.82-7.33-8.78c0,0,.85,14.92,7.42,14.75s2.55-5.63,2.55-5.63Z"/><path class="cls-79" d="M397.39,371.11l-2.64.34s-4,5.46,2.56,5.63,7.41-14.75,7.41-14.75C400.8,364.29,397.39,371.11,397.39,371.11Z"/><path class="cls-80" d="M397.15,358.3c-.34-.12.68-2.16.68-2.16a6.06,6.06,0,0,1-3.64.79l1.93-2.61a47.17,47.17,0,0,1-5.22,1.82c-.34-.12,1.82-3.41,1.82-3.41l-6.94,4.2-6.7-3.41.39,2a2.23,2.23,0,0,0,.86.17l.12,0h0l-.12,0h0l-.8.12-.06-.29a24.07,24.07,0,0,1-3-1.42l1,2.73a5.3,5.3,0,0,1-3.07-2.05l-.8,4.09-1.82-2.5-.5,3.09c.18,6,.78,15.69,2.8,20.66a33.41,33.41,0,0,0,9.64,12.51h4.2a33.51,33.51,0,0,0,9.64-12.51c2.12-5.23,2.67-15.65,2.82-21.55A7.6,7.6,0,0,1,397.15,358.3Z"/><path class="cls-80" d="M380.45,355.66Z"/><path class="cls-79" d="M379.48,368.55c-4.74-2.3-6.61.26-6.61.26a9.44,9.44,0,0,0,3.37,6,12.54,12.54,0,0,0,7,2.05S384.21,370.85,379.48,368.55Z"/><path class="cls-81" d="M374.09,370.34a9,9,0,0,0,7.75,5.42C380,370.23,374.09,370.34,374.09,370.34Z"/><path class="cls-79" d="M392.39,368.42c-4.73,2.31-3.75,8.27-3.75,8.27a12.58,12.58,0,0,0,7-2,9.44,9.44,0,0,0,3.36-6S397.12,366.12,392.39,368.42Z"/><path class="cls-81" d="M390,375.63a9,9,0,0,0,7.74-5.42S391.86,370.1,390,375.63Z"/><path class="cls-79" d="M384,383.5s1,3.63,2.41,3.21,2-3.54,2-3.54-2.13,2-2.41,1.79Z"/><path class="cls-82" d="M429.31,116.45s-23.41,11.37-24.09,23.64,6.36,17.73,6.36,17.73-6.36-22.73,5.23-28.19,18.64-14.09,13.64-23.18C430.45,106.45,431.81,113.72,429.31,116.45Z"/><path class="cls-83" d="M433.63,129c8.64-3.41,4.77-15.91,4.77-15.91Z"/><path class="cls-84" d="M436,139l4-4.6A11,11,0,0,0,436,139Z"/><path class="cls-85" d="M436,139l-.54.63s-15.23,6.13-4.32,17.5,10,22,10,22,6.14-5,.45-15.91C437.1,154.67,433.05,145.51,436,139Z"/><path class="cls-86" d="M393.17,121.45l11.59-11.59S392.94,116.22,393.17,121.45Z"/><path class="cls-87" d="M368.85,102.36s5.91,8.86,0,11.59c0,0-19.32,9.55-17.5,21.82S365,152.36,365,152.36s-13.86-21.13.46-29.77S377,105.54,368.85,102.36Z"/><path class="cls-88" d="M359.08,94.18l4.77,12.72C369.53,100.77,359.08,94.18,359.08,94.18Z"/><path class="cls-89" d="M386.12,71.67,397,56S381.35,57.81,386.12,71.67Z"/><path class="cls-90" d="M399.76,98.49l-7,8.41S398.4,111,399.76,98.49Z"/><path class="cls-91" d="M415.67,80.76l.68-13.63S411.13,71.9,415.67,80.76Z"/><path class="cls-92" d="M455.45,154.41s-8.64,20.91-4.09,35-8.64,15.23-8.64,15.23,21.37-1.13,15.46-21.14S455.45,154.41,455.45,154.41Z"/><path class="cls-93" d="M450,139.64l7.73-17.73S445.45,131.68,450,139.64Z"/><path class="cls-94" d="M352.48,194.41c1.82-5.22-4.54-15.23-4.54-15.23Z"/><path class="cls-95" d="M292.48,322.27,284,334.43l-.22-5.8-5.46,14.21-1-5.23-4.89,20.8s5.34-6.48,13.18-4.77c0,0,5.69-10.35,9.21-11.48l-3.75.91S288.27,330.22,292.48,322.27Z"/><path class="cls-96" d="M353.39,315.11l2.22-19.26C345.72,301.64,353.39,315.11,353.39,315.11Z"/><path class="cls-97" d="M336.86,273.17l5.62,12.11C343.85,278.63,341.29,274.88,336.86,273.17Z"/><path class="cls-98" d="M348.79,285.45l1.7,4.6C353.22,283.06,348.79,285.45,348.79,285.45Z"/><path class="cls-99" d="M355.61,330.79,358,318C352.71,323.29,355.61,330.79,355.61,330.79Z"/><path class="cls-100" d="M455.17,281.87l9,11.59C464.54,285.45,455.17,281.87,455.17,281.87Z"/><path class="cls-101" d="M444.94,280.16l-1-12.1S440.33,274.71,444.94,280.16Z"/><path class="cls-102" d="M467.61,306.07l-8.52-9S459.43,303.18,467.61,306.07Z"/><path class="cls-103" d="M477.5,284.25l5.11,8.7C484.15,286.64,477.5,284.25,477.5,284.25Z"/><path class="cls-104" d="M246.79,632.19l-30.46-6.36C219.06,644.46,246.79,632.19,246.79,632.19Z"/><path class="cls-105" d="M129.05,692.65l40-15.91C144.51,669.92,129.05,692.65,129.05,692.65Z"/><path class="cls-106" d="M115.87,734.93s17.73-16.37,40-15.91C155.87,719,103.59,712.65,115.87,734.93Z"/><path class="cls-107" d="M140,746.29c8.18-12.73,5-20.45,5-20.45S115,759,135,762.66a74.55,74.55,0,0,0,35.91-2.27S131.78,759,140,746.29Z"/><path class="cls-108" d="M181.1,744.25c-3.18-4.09,7.5-14.32,7.5-14.32l-5.91,3.63s-24.55,17.28-1.82,20.92,27.28,12.27,17.73,15.45c0,0,8.41,3.64,10.69-8.41S184.28,748.34,181.1,744.25Z"/><path class="cls-109" d="M206.56,740.16l32.27-7S197.92,727.88,206.56,740.16Z"/><path class="cls-110" d="M284.29,747.88c-7.5,10,26.37,14.78,26.37,14.78s-20.23-8.64-9.55-16.82,45-5.23,45.69-10.46l-11.59,1.37S291.8,737.88,284.29,747.88Z"/><path class="cls-111" d="M285.66,739.7l-9.55,3s-10.23,5.68-14.32,10.91,23.41,6.36,23.41,6.36S258.38,749.7,285.66,739.7Z"/><path class="cls-112" d="M240.2,750.38c7.73-2.72,24.09-6.59,24.09-6.59l-11.82,1.82s-23.41.68-21.59,6.59,13.86,10.69,12.27,11.14,5.46.91,4.78-3.64S232.47,753.11,240.2,750.38Z"/><path class="cls-113" d="M413.63,768.34l-42.74-12.73S395.67,775.39,413.63,768.34Z"/><path class="cls-114" d="M456.81,737.66C465,734.25,492,726.75,492,726.75l-11.59,2.72s-37.73,4.09-37.05,13.41,20.23,9.1,12.73,13,13.18,3.18,10-5.23S448.63,741.07,456.81,737.66Z"/><path class="cls-115" d="M488.86,737.2,519.09,729S486.13,728.34,488.86,737.2Z"/><path class="cls-116" d="M510.91,748.57c.64,1.2,1.15.07,2.39-1.92C511.46,747.19,510.51,747.81,510.91,748.57Z"/><path class="cls-117" d="M540.69,722.12s11.36,13.26-8,13.94c-12.48.45-17.18,7-19.43,10.59,6.48-1.94,24-3,32.16-5.81,10.46-3.64,2-12.28,2-12.28Z"/><path class="cls-118" d="M468.63,800.16l43-19.77C493.86,779.71,468.63,800.16,468.63,800.16Z"/><path class="cls-119" d="M248.61,574.58l-32.73-17.73S224.52,573.22,248.61,574.58Z"/><path class="cls-120" d="M278.16,793.57l-21.82-14.09S257.7,792.21,278.16,793.57Z"/><path class="cls-121" d="M262.58,517.42l17.28,27.27C287.13,536.51,262.58,517.42,262.58,517.42Z"/><path class="cls-122" d="M164,604.7l-31.82-15.46S143.49,604.24,164,604.7Z"/><path class="cls-123" d="M544.89,635.61c8.63-5,7.27-20.91,7.27-20.91Z"/><path class="cls-124" d="M591.37,701.74,555,696.29S578.65,707.2,591.37,701.74Z"/><path class="cls-125" d="M559.55,670.38l12.73,4.54C568.19,667.19,559.55,670.38,559.55,670.38Z"/><path class="cls-126" d="M597.28,785.39c9.55-8.64-4.54-27.28-4.54-27.28Z"/><path class="cls-127" d="M318.35,177.85c-2.91-12.61-18.43-28.46-18.43-28.46Z"/></g></g></svg>