<svg xmlns="http://www.w3.org/2000/svg" xmlns:xlink="http://www.w3.org/1999/xlink" viewBox="0 0 502.63 413.38"><defs><style>.cls-1{fill:url(#Degradado_sin_nombre_5);}.cls-2{fill:#bc6161;}.cls-3{fill:#b23c39;}.cls-4{fill:#7c1f13;}.cls-5{fill:url(#Degradado_sin_nombre_5-2);}.cls-6{fill:url(#Degradado_sin_nombre_5-3);}.cls-7{fill:url(#Degradado_sin_nombre_5-4);}.cls-8{fill:url(#Degradado_sin_nombre_5-5);}.cls-9{fill:url(#Degradado_sin_nombre_5-6);}.cls-10{fill:url(#Degradado_sin_nombre_5-7);}.cls-11{fill:url(#Degradado_sin_nombre_5-8);}.cls-12{fill:#b59d39;}.cls-13{fill:#323333;}.cls-14{fill:#0a0a0a;}.cls-15{fill:#f2d970;}.cls-16{fill:#68100c;}.cls-17{fill:#9b1616;}.cls-18{fill:#6d0303;}.cls-19{fill:#a01010;}.cls-20{fill:#d15656;}.cls-21{fill:#724e19;}.cls-22{fill:#d39807;}.cls-23{fill:#825b1c;}.cls-24{fill:#af7b08;}.cls-25{fill:url(#Degradado_sin_nombre_18);}.cls-26{fill:url(#Degradado_sin_nombre_7);}.cls-27{fill:url(#Degradado_sin_nombre_5-9);}.cls-28{fill:url(#Degradado_sin_nombre_29);}.cls-29{fill:#f4c34a;}.cls-30{fill:#bf1717;}.cls-31{fill:#847e7e;}.cls-32{fill:#605858;}.cls-33{fill:url(#Degradado_sin_nombre_5-10);}.cls-34{fill:url(#Degradado_sin_nombre_5-11);}.cls-35{fill:#141413;}.cls-36{fill:url(#Degradado_sin_nombre_5-12);}.cls-37{fill:url(#Degradado_sin_nombre_5-13);}.cls-38{fill:url(#Degradado_sin_nombre_5-14);}.cls-39{fill:url(#Degradado_sin_nombre_5-15);}.cls-40{fill:#f9d91c;}.cls-41{fill:#fff;}.cls-42{fill:url(#Degradado_sin_nombre_5-16);}.cls-43{fill:url(#Degradado_sin_nombre_5-17);}.cls-44{fill:url(#Degradado_sin_nombre_5-18);}.cls-45{fill:url(#Degradado_sin_nombre_5-19);}.cls-46{fill:url(#Degradado_sin_nombre_5-20);}.cls-47{fill:url(#Degradado_sin_nombre_5-21);}.cls-48{fill:url(#Degradado_sin_nombre_5-22);}</style><linearGradient id="Degradado_sin_nombre_5" x1="222.96" y1="181.97" x2="252.24" y2="176.8" gradientUnits="userSpaceOnUse"><stop offset="0" stop-color="#ffc50b"/><stop offset="1" stop-color="#f47a0b"/></linearGradient><linearGradient id="Degradado_sin_nombre_5-2" x1="185.31" y1="265.68" x2="185.32" y2="265.68" xlink:href="#Degradado_sin_nombre_5"/><linearGradient id="Degradado_sin_nombre_5-3" x1="86.11" y1="233.16" x2="188.76" y2="233.16" xlink:href="#Degradado_sin_nombre_5"/><linearGradient id="Degradado_sin_nombre_5-4" x1="242.05" y1="186.96" x2="261.4" y2="188.73" xlink:href="#Degradado_sin_nombre_5"/><linearGradient id="Degradado_sin_nombre_5-5" x1="232.68" y1="193.98" x2="294.01" y2="183.14" xlink:href="#Degradado_sin_nombre_5"/><linearGradient id="Degradado_sin_nombre_5-6" x1="240.4" y1="195.27" x2="259.21" y2="192.28" xlink:href="#Degradado_sin_nombre_5"/><linearGradient id="Degradado_sin_nombre_5-7" x1="222.25" y1="236.54" x2="325.88" y2="236.54" xlink:href="#Degradado_sin_nombre_5"/><linearGradient id="Degradado_sin_nombre_5-8" x1="221.02" y1="198.15" x2="369.36" y2="198.15" xlink:href="#Degradado_sin_nombre_5"/><linearGradient id="Degradado_sin_nombre_18" x1="205.83" y1="307.64" x2="210.74" y2="307.64" gradientUnits="userSpaceOnUse"><stop offset="0" stop-color="#f9cb38"/><stop offset="1" stop-color="#472f24"/></linearGradient><linearGradient id="Degradado_sin_nombre_7" x1="89.05" y1="268.65" x2="209.32" y2="268.65" gradientUnits="userSpaceOnUse"><stop offset="0" stop-color="#ffc50b"/><stop offset="1" stop-color="#ffee17"/></linearGradient><linearGradient id="Degradado_sin_nombre_5-9" x1="119.58" y1="267.27" x2="238.15" y2="267.27" xlink:href="#Degradado_sin_nombre_5"/><linearGradient id="Degradado_sin_nombre_29" x1="192.14" y1="303.73" x2="211.33" y2="303.73" gradientUnits="userSpaceOnUse"><stop offset="0" stop-color="#bab5b5"/><stop offset="1" stop-color="#2b2b2b"/></linearGradient><linearGradient id="Degradado_sin_nombre_5-10" x1="234.25" y1="202.86" x2="295.58" y2="192.02" xlink:href="#Degradado_sin_nombre_5"/><linearGradient id="Degradado_sin_nombre_5-11" x1="243.31" y1="173.44" x2="325.63" y2="158.89" xlink:href="#Degradado_sin_nombre_5"/><linearGradient id="Degradado_sin_nombre_5-12" x1="226.89" y1="188.76" x2="249.67" y2="188.76" xlink:href="#Degradado_sin_nombre_5"/><linearGradient id="Degradado_sin_nombre_5-13" x1="237.92" y1="236.7" x2="341.32" y2="236.7" xlink:href="#Degradado_sin_nombre_5"/><linearGradient id="Degradado_sin_nombre_5-14" x1="253.04" y1="217.85" x2="277.77" y2="225.21" xlink:href="#Degradado_sin_nombre_5"/><linearGradient id="Degradado_sin_nombre_5-15" x1="244.02" y1="226.77" x2="258.29" y2="226.77" xlink:href="#Degradado_sin_nombre_5"/><linearGradient id="Degradado_sin_nombre_5-16" x1="136.5" y1="183.14" x2="158.03" y2="183.14" xlink:href="#Degradado_sin_nombre_5"/><linearGradient id="Degradado_sin_nombre_5-17" x1="124.92" y1="186.46" x2="130.64" y2="186.46" xlink:href="#Degradado_sin_nombre_5"/><linearGradient id="Degradado_sin_nombre_5-18" x1="190.06" y1="200.81" x2="196.2" y2="200.81" xlink:href="#Degradado_sin_nombre_5"/><linearGradient id="Degradado_sin_nombre_5-19" x1="206.01" y1="217.91" x2="206.36" y2="217.91" xlink:href="#Degradado_sin_nombre_5"/><linearGradient id="Degradado_sin_nombre_5-20" x1="181.48" y1="220.94" x2="206.49" y2="220.94" xlink:href="#Degradado_sin_nombre_5"/><linearGradient id="Degradado_sin_nombre_5-21" x1="184.2" y1="256.07" x2="190.88" y2="256.07" xlink:href="#Degradado_sin_nombre_5"/><linearGradient id="Degradado_sin_nombre_5-22" x1="98.75" y1="185.07" x2="107.2" y2="185.07" xlink:href="#Degradado_sin_nombre_5"/></defs><title>fire_guardian2</title><g id="Layer_2" data-name="Layer 2"><g id="Capa_1" data-name="Capa 1"><path class="cls-1" d="M226.86,168.09c-6.13,4.5-8.58,1.37-8.58,12s2.86,5.59.68,12,2.21,16.22,13.22,16.63,10.49-4.09,10.49-4.09-21.12-9-17.85-12.67,0-6-3-9.27,6.27-3.55,11.58-10.91-5-9.26-3.27-13.62,4.5-6.55,7.5-4.91c0,0-4.5-4.91-10.09.68S233,163.6,226.86,168.09Z"/><path class="cls-2" d="M242.05,249.59l41.32,41.29s47.42-117.23,83-98,35.93,79.46,35.93,79.46c35.05-36,6.55-142.47,24.59-150.88s60.77,32.05,60.77,32.05l-14-24.7c-22.4-37.21-80.45-63.4-70.58-80.73S471,11.32,471,11.32L433,15l-56.14,9.72L316.3,46.23l-46.68,34L281,87.25s15-1.77,30.23,13,21.41,27.9,14.42,63.32S242.05,249.59,242.05,249.59Z"/><path class="cls-3" d="M376,43.92c6.77-.13,16.28,2.2,26.39,5.58a9,9,0,0,1,.64-1.42C412.94,30.75,471,11.32,471,11.32L433,15l-56.14,9.72L316.3,46.23l-46.68,34,3.91,2.41c24.15-11.71,77.09-29.15,77.09-29.15l-5-3.73,21.84,1.55S352.85,44.36,376,43.92Z"/><path class="cls-3" d="M420.37,144.27c.37-12.12,1.94-20.66,6.54-22.81,18-8.4,60.77,32.05,60.77,32.05l-14-24.7c-5.52-9.17-13.21-17.68-21.52-25.54-20.36-9.81-47.36-19-47.36-19l-72.23-7s-29.29,6.71-49.22,9.9c4.75.14,16.3,1.74,28,13.09,14,13.59,20.35,25.77,15.86,55.15,8.71-7.38,24-7,34.27,16,3.7,8.26,5.12,15.39,5.09,21.48,29.16,15.84,34.59,59.24,35.6,74.22a.22.22,0,0,0,.11-.1c.58-1.15,11.92-40.48,11.92-40.48S421.9,216.4,399,167.37,318.58,91.8,318.58,91.8s38.8,10.41,75.2,29.59C403.6,126.57,412.54,134.89,420.37,144.27Z"/><path class="cls-3" d="M344.08,195.7c-3.79-3.23-17.43-6.22-22.66-20.63-17.83,33.92-79.37,74.52-79.37,74.52L279.47,287c5.15-6.48,9.64-12.49,13.29-17.15C304.08,246.08,324.07,209,344.08,195.7Z"/><path class="cls-4" d="M292.73,59.53c-57.88,45.14-49.65,50-49.65,50s-.71-8.81,23.29-19,84,40.59,51.8,86.82-63.67,51.4-63.67,51.4l-6.1,8.92s22.13,12.22,21.14,9.14,22.13-28.05,54.18-61.7-3.63-76.86-3.63-76.86,56.93,27.44,82.68,78.16-17.45,109.2-17.45,109.2,53.89-47.29,22.38-111.38-108.82-97-108.82-97,74.44-10.61,127.92,9.17,75.83,94.31,75.83,94.31S483,97.58,414.59,82.44,273.76,82,273.76,82c77.7-67.2,218.38-72.5,218.38-72.5S350.61,14.39,292.73,59.53Z"/><path class="cls-3" d="M393.45,49.43c1.5-.85,1.89-3,.87-4.81s-3.07-2.57-4.58-1.71-1.88,3-.86,4.81S392,50.29,393.45,49.43Z"/><path class="cls-3" d="M390.12,55.85a1.88,1.88,0,1,0-2.56-.7A1.88,1.88,0,0,0,390.12,55.85Z"/><path class="cls-3" d="M385.58,51.85a1.31,1.31,0,1,0-1.24-2.17,1.31,1.31,0,1,0,1.24,2.17Z"/><path class="cls-3" d="M379.77,48a2.68,2.68,0,1,0-3.65-1A2.68,2.68,0,0,0,379.77,48Z"/><path class="cls-3" d="M376.86,55a1.69,1.69,0,1,0-2.31-.64A1.7,1.7,0,0,0,376.86,55Z"/><path class="cls-3" d="M341.9,59.63a3.84,3.84,0,1,0-5.23-1.44A3.84,3.84,0,0,0,341.9,59.63Z"/><path class="cls-3" d="M340.2,65.12a1.25,1.25,0,1,0-1.71-.47A1.25,1.25,0,0,0,340.2,65.12Z"/><path class="cls-3" d="M336.09,63.14a1.34,1.34,0,1,0-1.83-.5A1.34,1.34,0,0,0,336.09,63.14Z"/><path class="cls-3" d="M395.8,127.85a6.79,6.79,0,1,0-9.26-2.55A6.8,6.8,0,0,0,395.8,127.85Z"/><path class="cls-3" d="M401.78,137.81a3.31,3.31,0,1,0-4.51-1.24A3.32,3.32,0,0,0,401.78,137.81Z"/><path class="cls-3" d="M402.49,130.21a2.5,2.5,0,1,0-3.41-.94A2.5,2.5,0,0,0,402.49,130.21Z"/><path class="cls-3" d="M414.27,136.46a3,3,0,1,0-4.14-1.14A3,3,0,0,0,414.27,136.46Z"/><path class="cls-3" d="M408,142.72a1.61,1.61,0,1,0-2.19-.6A1.61,1.61,0,0,0,408,142.72Z"/><path class="cls-3" d="M382.32,118.05a3.67,3.67,0,1,0-5-1.38A3.68,3.68,0,0,0,382.32,118.05Z"/><path class="cls-3" d="M368.69,113.05a4.29,4.29,0,1,0-5.85-1.61A4.3,4.3,0,0,0,368.69,113.05Z"/><path class="cls-3" d="M363.38,172.59a4.73,4.73,0,1,0-6.45-1.77A4.73,4.73,0,0,0,363.38,172.59Z"/><path class="cls-3" d="M363.91,184a2.77,2.77,0,1,0-3.77-1A2.77,2.77,0,0,0,363.91,184Z"/><path class="cls-3" d="M357.09,176.17a2,2,0,1,0-2.68-.74A2,2,0,0,0,357.09,176.17Z"/><path class="cls-3" d="M353.58,159.87a2,2,0,0,0,.74-2.68,2,2,0,1,0-.74,2.68Z"/><path class="cls-2" d="M172.81,136.89l2.61-12.17-48.22,5.34L78.12,152.92,38.7,181.32l-25,21.23s46.34-22.72,62.61-16.68-2.86,61,6,101.36l6.34,26.27s1.43-55.42,17.25-60.81,62.36,87.75,104.82,91.14c0,0-35.77-42.77-25.93-78.71S293,282.2,293,282.2l.08-55.13S217,239.51,191.67,218.88s-29.44-33.81-29.18-53.8S172.81,136.89,172.81,136.89Z"/><path class="cls-3" d="M174.53,128.88l.89-4.16-48.22,5.34L78.12,152.92,38.7,181.32l-25,21.23s46.34-22.72,62.61-16.68a7.78,7.78,0,0,1,1.23.6c4-8.74,8.34-16.36,12.47-20.52,14.14-14.25,9.51-.2,9.51-.2l12.16-14.82-.77,5.78S153.08,135.78,174.53,128.88Z"/><path class="cls-3" d="M171.42,138.27C157.58,148.54,136,162.2,136,162.2L97,212.53s-10.7,23.42-17,43.14c-.28,10.77.2,21.61,2.37,31.56l6.34,26.27s1.43-55.42,17.25-60.81c4-1.38,10.08,3.67,17.54,12-.92-11.54-.53-23,2.26-32.86,10.34-36.41,27.36-68.15,27.36-68.15s-18.54,54.83-3,103.88,26.28,51.35,26.28,51.35,30.28,20.66,31.32,21.11a.13.13,0,0,0,.12,0c-8.34-11.22-31-45.29-23-74.8-3.65-4.28-7.06-10.2-9.78-18.36-7.59-22.76,1.33-32.6,11-32.86-20.23-17.93-23.68-30.55-23.44-48.92C162.69,149.74,168.65,141.35,171.42,138.27Z"/><path class="cls-3" d="M274.84,273.24c5,1,11.24,2.42,18.19,3.77l.07-49.94s-61.09,10-92-2.78c5.47,13.47-.91,24.15-1.25,28.81C219.75,249.92,253.87,263.56,274.84,273.24Z"/><path class="cls-4" d="M183.53,130c20.47-7.87,25.29-1.2,25.29-1.2s2.05-8.58-59.56-4.11S0,214.59,0,214.59s87.4-84.62,174.05-86c0,0-52.14,35.08-84.07,88.76s11.9,131.74,11.9,131.74S70.74,282.43,91,234.87,162.08,148,162.08,148s-26.62,71.82-7.22,136.89,79.92,64.63,79.92,64.63-60.8-14.17-75.66-66.18,2.82-107.16,2.82-107.16,4.45,52.95,43.74,56.58,68,6.75,69.28,9.55,7.2-19.73,7.2-19.73l-9-2.47s-21.94,16.11-68.82,3.68S163.06,137.83,183.53,130Z"/><path class="cls-3" d="M82.92,180.79c1.41-.34,2.17-2.17,1.71-4.09s-2-3.19-3.39-2.85-2.17,2.17-1.71,4.08S81.51,181.13,82.92,180.79Z"/><path class="cls-3" d="M88.75,183.23a1.8,1.8,0,1,0-2-1.37A1.69,1.69,0,0,0,88.75,183.23Z"/><path class="cls-3" d="M89.08,177.55a1.21,1.21,0,1,0-1.67-.82A1.31,1.31,0,0,0,89.08,177.55Z"/><path class="cls-3" d="M90.23,171.15a2.57,2.57,0,1,0-2.78-2A2.4,2.4,0,0,0,90.23,171.15Z"/><path class="cls-3" d="M96.15,174.27A1.63,1.63,0,1,0,94.39,173,1.52,1.52,0,0,0,96.15,174.27Z"/><path class="cls-3" d="M119.87,155.61a3.69,3.69,0,1,0-4-2.8A3.47,3.47,0,0,0,119.87,155.61Z"/><path class="cls-3" d="M124.18,158.42a1.2,1.2,0,0,0-.56-2.32,1.2,1.2,0,0,0,.56,2.32Z"/><path class="cls-3" d="M125.45,154.44a1.22,1.22,0,0,0,.8-1.51,1.14,1.14,0,1,0-.8,1.51Z"/><path class="cls-3" d="M128.34,237.66c3.06-.74,4.86-4.15,4-7.62s-4-5.68-7.05-4.94-4.86,4.15-4,7.62S125.28,238.4,128.34,237.66Z"/><path class="cls-3" d="M130.71,248.45a3.17,3.17,0,1,0-3.43-2.41A3,3,0,0,0,130.71,248.45Z"/><path class="cls-3" d="M125.75,243.53a2.4,2.4,0,1,0-2.6-1.82A2.26,2.26,0,0,0,125.75,243.53Z"/><path class="cls-3" d="M122.43,255.34a2.91,2.91,0,1,0-3.16-2.21A2.73,2.73,0,0,0,122.43,255.34Z"/><path class="cls-3" d="M129.94,255.8a1.54,1.54,0,1,0-1.67-1.17A1.45,1.45,0,0,0,129.94,255.8Z"/><path class="cls-3" d="M130.56,222.26a3.51,3.51,0,1,0-3.8-2.66A3.3,3.3,0,0,0,130.56,222.26Z"/><path class="cls-3" d="M135.74,210.17a4.11,4.11,0,1,0-4.45-3.12A3.86,3.86,0,0,0,135.74,210.17Z"/><path class="cls-3" d="M174.47,248.9a4.53,4.53,0,1,0-4.92-3.44A4.27,4.27,0,0,0,174.47,248.9Z"/><path class="cls-3" d="M181,257.3a2.65,2.65,0,1,0-2.88-2A2.49,2.49,0,0,0,181,257.3Z"/><path class="cls-3" d="M180.37,247.48a1.89,1.89,0,1,0-2-1.43A1.78,1.78,0,0,0,180.37,247.48Z"/><path class="cls-3" d="M172.74,233.76a1.89,1.89,0,1,0-2-1.43A1.77,1.77,0,0,0,172.74,233.76Z"/><path class="cls-5" d="M185.32,265.69Z"/><path class="cls-6" d="M137.64,199.87c-9.41-1.18-2.55-6.87-12.55-6.67s-6.48,12.55-14.52,14.91-6.87-4.52-16.48-2-9.61,20.79-4.9,23.14,1.57,4.52,8,9.62,6.67,4.12,8,7.65,7.07,4.32,15.7,8,3.92,5.3,10.59,9.22,22.17,10.6,22.17,10.6L171,283.64c4.61,2.65,5-.89,4.31-2.06s-3.14-8.34,5.89-7.26c8.7,1,4.27-8.31,4.12-8.63.19.4-3.25,6.57-13.25,3.14s-6,9.12-6,9.12-2.75-2.45-2.94-9.22,8.63-2.45,13.34-7.36-11.87-10.1-9.42-13.54S178,249.21,178,249.21c-.59-4.42-12-6.18-15.2-2s10.39,9.12.88,11.77-9.61,6.37-9.61,6.37-5.69-4.51-1.28-6.77-3.14-13.63-5.3-19.81,7.65-4.32,11.19.59,13.24-4.42,12.26-8.93,5.69-2.16,5.69-2.16-8-3-8.34,2.36-6.77,4.31-15.5-1.38-11.48,2.75-10,11.68-13.54,6.28-13.15,6.28,2.26-3.83.79-9.72-8.64-11-5.11-12,9.32,6.37,16.48,3.53,4.61-14.91,13.15-13.73,9.22,9.31,16.28,2.45.39-15.6,4.42-15.7,2.06,2.46,2.06,2.46,2.35,1.07.78-3-12.46,1.66-12.75,9.9-6.87,1.28-19.62,0-6,11.18-12.46,13.74-5.39-6.68-15.1-4.22-5.1,11.18-5.1,11.18-5.4-6.47-3.73-11.87,14.42-1,16.38-7.16-6-10-3-13.14,7.26.39,4.81,4.8,21.67,1,31.78-3.23,3.63-3.93.78-9.72,13.44-6.86,15.89-5.39-.59,4.81,3.34,7.94,11.77-5.68,8.24-3.33-9.22-.79-11.77-7.26-25.7,3.92-21.39,8.24S147.06,201,137.64,199.87Z"/><path class="cls-7" d="M291.74,186.13c-2.86-8.54-8.32-5.36-17.31-4.27s-.14-7.5-16.08-9.4S232,183.22,232,183.22l46.07,23C282.74,207.07,294.6,194.67,291.74,186.13Z"/><path class="cls-8" d="M272.59,185.78c-2.35-10-6.65-.1-12.27-7.05s-9.2-.11-17.07-.82-8.48,4-14.41,4.5-8.08,12.77-9.61,17.17S225.47,210,225.47,210Z"/><path class="cls-9" d="M281.72,186.87c-2.35-10-6.64-.1-12.27-7.05s-9.2-.11-17.07-.82-8.48,4-14.41,4.5-8.07,12.77-9.61,17.17,6.24,10.43,6.24,10.43Z"/><path class="cls-10" d="M315.12,220c19.26-5.69,6.79-18.16,6.79-18.16l-63.05.21s-7.66,2.41-21.45,8.1-9.19,8.1-13.79,15.11,3.72,17.29,5.69,22.33,17.51,11.16,22.77,13.13S268.49,268,281,270.83s19-11.6,19.48-16.64,3.07,5.26,14.23,8.32,7.44-8.1,7.44-8.1-7.44,8.1-7.66.88-17.73-12.48-17.29-2.85-11.16,12.7-19.48,5.47-20.14-10.28-20.14-10.28A60.16,60.16,0,0,1,277.69,252c10.94,4.38,20.36-3.94,18.82-14.22S295.86,225.74,315.12,220Z"/><path class="cls-11" d="M226.18,230.38l64.74-16.9c2.05-.95,21.81-4.09,34.89-6.81s-.13-11.59,9-13.22,3.27,9.67,18.94,5.86,5.05-16.77,8.86-19.63S368.2,182,368.2,182s4.36-1.78-3.82-5.73-8.31,5.32-9.26,11-9.95,6.95-13.91-.82-19.76-1.22-20.58-4-6.68-8-13.76-4.22-4.77,5-10.91,3.13-12,5.32-14.17,5.45-9.13-4.63-3.41-6.81,2.05,5.31,11.45,1.36,5-9.27,8.31-12.26,4.5,1.09,4.5,1.09,2.46-4.37-4.77-4.37-6.95,7.91-12.26,11-1.78-4.9-9.55-3-3.95,8.17-8.72,11-4.77-1.23-10.36-1.5-11.17,5.31-12.4,5.31-15.67,10.5-15.67,10.5-6,5.18-4.09,10.08-.27,5-3.14,10.22S226.18,230.38,226.18,230.38Z"/><path class="cls-12" d="M448.86,402.7,358.3,58l-4.4,1.11,90.49,344.47A6.42,6.42,0,0,0,448.86,402.7Z"/><polygon class="cls-13" points="358.84 60.11 354.51 61.54 357.83 74.64 362.26 73.63 358.84 60.11"/><path class="cls-13" d="M360.91,62.2a3.88,3.88,0,1,0-3.8,4A3.86,3.86,0,0,0,360.91,62.2Z"/><path class="cls-14" d="M363,68.44a4.18,4.18,0,1,0-4.09,4.26A4.17,4.17,0,0,0,363,68.44Z"/><path class="cls-15" d="M330.76,5.67c-4.29,5.4-2.83,15.89-2.83,15.89,1.42-3.16,3.35-3.83,4.6-3.89,0,.87,0,1.75-.08,2.6-.51,6.58-7.54,22,1.28,34.69,7.58,10.94,19.72,7.74,23,6.63l-12.06-50c-7.72,11-2.92,23.65-2.92,23.65l5.33-5.64c1.34,4.92,6.07,23.76-4,22.93-11.3-.92-8.39-24.52-7.67-29.77C336.51,14.38,330.76,5.67,330.76,5.67Z"/><path class="cls-12" d="M344.59,11.58l12.06,50c3.43-.49,15.69-3.18,17.45-16.38,2-15.36-11.21-25.83-14.67-31.45a25.17,25.17,0,0,1-1.25-2.29c1.14-.51,3.16-.79,5.87,1.37,0,0-3.48-10-9.76-12.85,0,0-1.15,10.37,3.67,17.28,3,4.35,16.38,24,6.74,30-8.62,5.34-13-13.59-14.05-18.58L358,31.3S356.48,17.85,344.59,11.58Z"/><path class="cls-16" d="M379.4,130.17l-1.53-.5s-4.74,2-4.85,2.05a9.07,9.07,0,0,0-1,1.43l1.2,7.11c.16.05,2.52,1,2.52,1l7.13-4.44s-.79-2.58-.87-2.64a5.64,5.64,0,0,0-1,0s.62-1.61-.13-1.94a1.49,1.49,0,0,0-1.43.22C379.49,132.43,379.4,130.17,379.4,130.17Z"/><path class="cls-17" d="M379.4,130.17s-.83-1.78-1.81-1.79l-4.78,5.24a1.23,1.23,0,0,0,1.24.28C374.71,133.62,379.4,130.17,379.4,130.17Z"/><path class="cls-17" d="M374.66,135.21c.75-.12,6.52-2.49,6.52-2.49s-.37-2.08-1.38-2.35l-6.34,4.22A1.28,1.28,0,0,0,374.66,135.21Z"/><path class="cls-17" d="M382.41,135.12s-.17-2-1.09-2.33l-6.25,3.58a1.16,1.16,0,0,0,1.06.67C376.84,137,382.41,135.12,382.41,135.12Z"/><path class="cls-17" d="M383.26,137.43s0-2-.86-2.29l-6,3.37s.28.72.94.67S383.26,137.43,383.26,137.43Z"/><polygon class="cls-18" points="318.35 336.61 306.44 312.32 276.09 319.56 278.42 346.88 302.7 360.19 318.35 336.61"/><path class="cls-18" d="M343.45,299.83l-31.87-26.26-47.28,21L250.64,317c1.05,0,51.48,18.92,51.48,18.92Z"/><path class="cls-18" d="M427,387.27c1.79-.95,2.08-3.92.65-6.64s-4.06-4.14-5.85-3.19-2.09,3.92-.65,6.63S425.19,388.22,427,387.27Z"/><path class="cls-18" d="M429,384.93c1.8-.95,2.09-3.92.65-6.63s-4.05-4.15-5.85-3.2-2.08,3.92-.65,6.64S427.17,385.88,429,384.93Z"/><path class="cls-19" d="M221.81,311.8l4.49-6.42-5.49-.82s-6.24,6.13-5.66,7.71S221.81,311.8,221.81,311.8Z"/><path class="cls-20" d="M227.07,296.82c-1.77,0-4.84-8.65-4.84-8.65-1.57,5.18,1.84,12.47,2,12.74l6.21-6.21C229.15,295.83,227.83,296.82,227.07,296.82Z"/><path class="cls-20" d="M230.42,294.7c1.68-1.51,3.26-3.26,3.26-3.26Z"/><path class="cls-20" d="M236.62,286.25c1.68-1.51,3.26-3.26,3.26-3.26Z"/><path class="cls-20" d="M233.27,288.37c-1.77,0-4.84-8.65-4.84-8.65-1.57,5.18,1.84,12.47,2,12.74l6.21-6.21C235.35,287.38,234,288.37,233.27,288.37Z"/><polygon class="cls-20" points="230.39 292.6 227.46 295.97 228.81 296.97 230.39 292.83 230.39 292.6"/><path class="cls-20" d="M323.09,152.15c-13.77,0-13.5,2-13.5,2s21.13-.54,25.76,5.73,7.23,2.86,7.23,2.86l21.8-17s-9.81-3.54-16.08-3.81a96.64,96.64,0,0,0-14.31.81s14.72,1.09,17.85,4.91l3.14,3.82-9.54,4.09S336.85,152.15,323.09,152.15Z"/><path class="cls-18" d="M267.8,311.39c.7-.7,27-28.37,27-28.37l61.46,22.24s-28.54-40.8-57.61-44.3L266.4,281.27s-29.07,14.36-37.65,38.35S267.1,312.09,267.8,311.39Z"/><path class="cls-19" d="M250.64,196.41c-1.17-.59-17.16,13-17.16,13s-13.89,19.26-14.13,20L255.54,228c.35-.35,22.18-28,22.18-28S251.81,197,250.64,196.41Z"/><path class="cls-19" d="M230.6,286.53c-1.39,4.49-8.34,13.06-11.75,17.1-1.92-.75-5.09-1.85-6.19-1.54-1.61.46-4.44,3.85-4.34,4.16s7.86,6.09,8,6.16,1-.12.35-1.88a9.55,9.55,0,0,0-2.21-2.9,5.25,5.25,0,0,0,5.85.35c.21-.11.4-.23.59-.34l2.79,1.24s30.41-28.64,31.41-29.87S237.39,243,237.39,243l-6.6-22.46s-12.8,4.81-19,17.73,4.84,15,4.84,15,9.69,22.52,20.11,24.56A16.79,16.79,0,0,0,230.6,286.53Z"/><path class="cls-20" d="M230.6,286.53c-1.39,4.49-8.34,13.06-11.75,17.1l-1.12-.42c.19,1.71.34,2.93.34,2.93L234,288.63l-2.45,5.43,19.09-19.56-2.45-10.56s-7,6.2-14.37,12.79a10.1,10.1,0,0,0,2.87,1.06A16.79,16.79,0,0,0,230.6,286.53Z"/><path class="cls-17" d="M250.64,274.5l4,2.59c-2.31-5.93-11.73-23.76-15.59-31l-3.13.41-15.83,13.8c3.74,6.79,10,16.22,16.59,17.5Z"/><path class="cls-16" d="M243.34,276.22l7.3-1.72,4,2.59c-2.31-5.93-11.73-23.76-15.59-31l-3.13.41-6.86,6c8.6,5.4,17.05,12.37,15.79,18.65A27.47,27.47,0,0,1,243.34,276.22Z"/><path class="cls-21" d="M228.56,315.19s-3.63-1.67-5.89-1.15l-2.06,3.71s1.94,2.93,3.88,3.91Z"/><path class="cls-22" d="M226.69,318.16s-3.37-1.55-5.64-1.2l-.44.79s1.94,2.93,3.88,3.91Z"/><path class="cls-23" d="M225.2,313.08s-3.62-1.67-5.88-1.15l-2.06,3.71s1.94,2.93,3.88,3.91Z"/><path class="cls-24" d="M223.34,316.05s-3.37-1.55-5.64-1.2l-.44.79s1.94,2.93,3.88,3.91Z"/><path class="cls-23" d="M220.39,312.1s-2.24-1-3.64-.71l-1.26,2.3a8.46,8.46,0,0,0,2.39,2.41Z"/><path class="cls-22" d="M219.24,313.94a7.79,7.79,0,0,0-3.48-.74l-.27.49a8.46,8.46,0,0,0,2.39,2.41Z"/><path class="cls-21" d="M218.32,310.8s-2.24-1-3.63-.71l-1.27,2.29a8.33,8.33,0,0,0,2.39,2.41Z"/><path class="cls-24" d="M217.17,312.64a7.9,7.9,0,0,0-3.48-.75l-.27.49a8.33,8.33,0,0,0,2.39,2.41Z"/><path class="cls-23" d="M216.71,309.79s-2.24-1-3.64-.71l-1.26,2.29a8.46,8.46,0,0,0,2.39,2.41Z"/><path class="cls-22" d="M215.56,311.62a7.94,7.94,0,0,0-3.48-.74l-.27.49a8.46,8.46,0,0,0,2.39,2.41Z"/><path class="cls-21" d="M214.64,308.49s-2.24-1-3.63-.72l-1.27,2.3a8.61,8.61,0,0,0,2.39,2.41Z"/><path class="cls-24" d="M213.49,310.32a7.79,7.79,0,0,0-3.48-.74l-.27.49a8.61,8.61,0,0,0,2.39,2.41Z"/><path class="cls-23" d="M212.81,307.33s-2.24-1-3.64-.71l-1.27,2.29a8.42,8.42,0,0,0,2.4,2.41Z"/><path class="cls-22" d="M211.65,309.17a7.9,7.9,0,0,0-3.48-.75l-.27.49a8.42,8.42,0,0,0,2.4,2.41Z"/><path class="cls-25" d="M210.74,306s-2.24-1-3.64-.71l-1.27,2.29a8.42,8.42,0,0,0,2.4,2.41Z"/><path class="cls-22" d="M209.59,307.86a7.94,7.94,0,0,0-3.48-.74l-.28.49a8.42,8.42,0,0,0,2.4,2.41Z"/><path class="cls-26" d="M112.8,237.6,89.05,227.12l18.71,18c18.2,9.58,95.93,65.05,95.93,65.05l-.7-6.57,6.33-1.85S128.56,250.82,112.8,237.6Z"/><path class="cls-27" d="M112.8,237.6l-22-9.73,112.57,78.8-.33-3.05,6.33-1.85S128.56,250.82,112.8,237.6Z"/><path class="cls-28" d="M202.57,310.87l8.76-2.53-1.53-8.94s-15.2-.48-17.66-2.82l1.76,3.58S199.07,309,202.57,310.87Z"/><path class="cls-29" d="M202.57,310.87l8.76-2.53-1.53-8.94s-15.2-.48-17.66-2.82l1.76,3.58S199.07,309,202.57,310.87Z"/><path class="cls-23" d="M192.76,297c3.14,2.7,13,10.8,18.54,11.15l-1.5-8.76S196.47,299,192.76,297Z"/><path class="cls-20" d="M199.87,298.64c-3.44-.43-6.7-1.08-7.73-2.06l1.76,3.58s.9,1.54,2.2,3.46C197.91,303.06,200.16,301.74,199.87,298.64Z"/><path class="cls-19" d="M199.87,298.64h0l-.23,0h-.11l-.22,0-.11,0-.22,0h-.12l-.21,0-.12,0-.21,0-.12,0-.21,0-.11,0-.35-.06-.16,0-.16,0-.16,0-.15,0-.17,0-.14,0-.17,0-.14,0-.17,0-.12,0-.18,0-.12,0-.19,0-.09,0-.26-.06h0l-.28-.07h0l-.22-.06-.07,0-.18-.05-.08,0-.17-.05-.08,0-.16-.06-.07,0-.16-.06-.06,0-.16-.06,0,0-.19-.08h0l-.37-.18h0c1.23,1.06,3.52,3,6.17,4.9A4.19,4.19,0,0,0,199.87,298.64Z"/><path class="cls-30" d="M214.37,317.22l.48-.48,3.28,1.43s5.93-6.38,5.85-6.52-2-1.73-2-1.73l-.18-.84-5.34-3.15-4-1.2-5.27,6.18,2.17,1.46-.35.49,2.64,2.08-.12.41Z"/><path class="cls-16" d="M222,309.92l-.18-.84-5.34-3.15-4-1.2L210.49,307c3.35,2.31,8,5.54,10.92,7.61,1.35-1.48,2.6-2.89,2.57-3S222,309.92,222,309.92Z"/><path class="cls-17" d="M209.15,305a3.57,3.57,0,0,0-.83,1.24c.11.31,7.86,6.09,8,6.16s1-.12.35-1.88a9.55,9.55,0,0,0-2.21-2.9,4.87,4.87,0,0,0,.53.35A12.88,12.88,0,0,0,209.15,305Z"/><path class="cls-19" d="M259.32,354.08c5.47-4.83,5-18.62,5-18.62l-15.4,19.36,6.95,8.17s.55,12.82,7.5,11.73,6.68-23.17,6.68-23.17l-8.59,18.26S253.85,358.91,259.32,354.08Z"/><path class="cls-30" d="M253.78,292.86c-8.71,4.88-24.66,23-30.8,34.56-2.53,1.87-6.9,5.77-5.76,9.71,1.57,5.39,40.77,36.17,46.19,50.81-1,1.69-3.75,3.58-10.9,4.78C237,395.32,236.64,403,236.64,403s10.48,5.35,15.55,1.25a28.53,28.53,0,0,1,17.41-6.7c5.33-.11,1.49-8.6-3.31-13.25-.33-10.51-3.91-30.11-12.55-38.11a102.74,102.74,0,0,0-11.33-9.37c12.36-7.31,28.11-18.3,29.67-22.89,2.46-7.28,17.88-14.7,20-18.39l.42-.72a8.73,8.73,0,0,1,1.05.1c.89.13,2.22-.46,3.78-1.51,4.91,2.49,14.16,7.39,16.55,10.05,3.3,3.66,19.54,24.53,35.91,29.62,4.19,1.31,8.07,2.5,11.52,3.51,4.19,8.39,10.85,20.61,14.84,22.18,5.79,2.29,36.93,11.18,49,26.12-.63,4.28-2.3,9.8-6.7,12.89-7.9,5.55,13.6,19.83,16.74,14.41s8.23-7,3.55-16.2c-3.3-6.44-8-14-13.09-19.34-7.44-16.12-24.94-42-53.88-52.05C366.7,315.55,358.53,304,347,295c-16.35-12.8-28.08-22.42-37-26.95A99.31,99.31,0,0,0,299,257.35l-7-20.32c4.38-7.34,7.55-14.87,8.84-21.41,7.38-7.16,16.77-16.16,16.77-16.16L337,179.71s11.22-5.31,13.39-6c1.89-.57,19.88-25.54,23.91-32.05a3.19,3.19,0,0,0,2.69-3.6c-.34-3.19-4.59-4.28-4.59-4.28l1.37-1.14s.5.59,2.69.79,2.26-.58,2.26-.58L372.53,130,370,132.5l-2.9,8.62c-8.64,3.94-28,12.84-33,15.8-6.46,3.85-11.08,17.75-11.08,17.75l-21.7,16.59s-5.61-.93-13.18,3.66a19.45,19.45,0,0,0-5.87,6c-13.26-.43-37.38-1.37-37.38-1.37s-28.49,34.69-27.19,34.55,8.28,26.49,34.69,31.44a17.83,17.83,0,0,0,2.3.28l10.07,11.4c-.64,2.86-1.35,6.31-1.85,9.31A75.56,75.56,0,0,1,253.78,292.86Z"/><path class="cls-18" d="M244.47,246.13c3.38-1,8,1.75,8.09,1.77l3.07,1.84-2.15-2.86a17.31,17.31,0,0,0-16.18-6,19.82,19.82,0,0,0-11.62,7c.28.4.57.79.87,1.18a18.63,18.63,0,0,1,11-6.79,15.29,15.29,0,0,1,12,2.78,9.77,9.77,0,0,0-5.47-.3,5.64,5.64,0,0,0-3.53,3.09c-.92,1.91-1,3.35-.2,4.28,1,1.16,3,1.08,4.36.86l-3.79,8.55c.41.22.82.43,1.25.63l5-11.26-1.46.43c-1.09.32-3.59.72-4.3-.11-.38-.46-.24-1.44.4-2.77A4.19,4.19,0,0,1,244.47,246.13Z"/><path class="cls-19" d="M416.11,368.86s4.49,11,6.95,3.06-4.5-28.62-4.5-28.62l.41,25.15-9.2-11.86s1.63-17-1.43-24.94-8.38-9.2-8.38-9.2c5.52,14.51,0,28,0,28Z"/><path class="cls-19" d="M376.41,133.47c2.19.2,2.26-.58,2.26-.58L372.53,130,370,132.5l-2.9,8.62c-8.64,3.94-28,12.84-33,15.8-6.46,3.85-11.08,17.75-11.08,17.75l-21.7,16.59s-5.61-.93-13.18,3.66a19.45,19.45,0,0,0-5.87,6c-10.09-.33-26.45-.95-33.7-1.23l.88,18.12L258.23,238l13.71-22.72,9.41,28.6s-7.2-2.87-22.64,6.42c0,0,14.56-6.18,26.38-1.3l1.5,4.47s-11.33-4.33-16.55,1c0,0,13.76,1.84,17,8.69s1.54,15.87,5.2,22.4c1.62,2.87,3.26,5.78,4.6,8.14l.47-.29c2.82,1.43,7.08,3.66,10.65,5.81-1-6.12-2.19-13.94-2.19-13.94s21.68,10.36,30.45,19.45,1.43,14.82,14,22.38,6.22,1.58,6.22,1.58l-1-7.07,14.09,11.15-4.87,2.36s38.74,24.6,49.2,40.13a48.11,48.11,0,0,1,11.24,9.63c-.62,4.25-2.28,9.69-6.59,12.8,4.63.2,10.77,1,12.51,3.85,1.35,2.22-.36,6.73-2.56,10.9,3,1.22,5.72,1.41,6.68-.25,3.15-5.41,8.23-7,3.55-16.2-3.3-6.44-8-14-13.09-19.34-7.44-16.12-24.94-42-53.88-52.05C366.7,315.55,358.53,304,347,295c-16.35-12.8-28.08-22.42-37-26.95A99.31,99.31,0,0,0,299,257.35l-7-20.32c4.38-7.34,7.55-14.87,8.84-21.41,7.38-7.16,16.77-16.16,16.77-16.16L337,179.71s11.22-5.31,13.39-6c1.89-.57,19.88-25.54,23.91-32.05a3.19,3.19,0,0,0,2.69-3.6c-.34-3.19-4.59-4.28-4.59-4.28l1.37-1.14S374.22,133.27,376.41,133.47Z"/><path class="cls-19" d="M292.11,295.52l.42-.72a8.73,8.73,0,0,1,1.05.1c.89.13,2.22-.46,3.78-1.51,4.91,2.49,14.16,7.39,16.55,10.05,1.15,1.27,3.87,4.63,7.61,8.68-2.76-13.73-5.74-29.21-5.74-29.21l-13.66-17.18c-5.13,4.83-10.86,10.25-16,15.2,1.69,4.62,3.59,9.81,5.58,15.18A5,5,0,0,0,292.11,295.52Z"/><path class="cls-18" d="M289.16,276l.44-4.47s-4-15-11.91-17.86-16.81,2.54-17.94,9S271,279,271,279Z"/><path class="cls-17" d="M317.7,199.46,337,179.71s5.41-2.56,9.44-4.34l.67-9-18.08-4a59.77,59.77,0,0,0-5.9,12.3l-21.7,16.59a18,18,0,0,0-8.32,1.3l-3.2,9.33L301.57,215C308.84,208,317.7,199.46,317.7,199.46Z"/><path class="cls-16" d="M309.12,200.55s-.87-7.56-1.72-13.9l-6,4.61a18,18,0,0,0-8.32,1.3l-3.2,9.33L301.57,215c7.27-7.05,16.13-15.54,16.13-15.54L337,179.71s5.41-2.56,9.44-4.34l.67-9-4.89-1.09c-5.31-.48-11.52.51-15.67,1.34-.7,1.38-1.31,2.71-1.82,3.89,2.73,2.65,6.1,7,4.23,12.5C325.76,192.32,309.12,200.55,309.12,200.55Z"/><path class="cls-19" d="M216.22,232.6l4.51,10.08s20.74-13.09,22.11-13.62C241.38,229.32,216.91,232.3,216.22,232.6Z"/><path class="cls-19" d="M242.84,229.06l.07,0Z"/><path class="cls-18" d="M273.52,201.31c-.35.12-22.76,26.5-22.76,26.5s-27.2,4.55-28.95,4.32,3.15,6.18,3.15,6.18l26.5-3.62,8.64,14,4.55-.7-8.17-17.16s25.33-23.34,26-23.34S273.87,201.19,273.52,201.31Z"/><path class="cls-31" d="M222.32,227.78l.77.84c1,0,9.41,2.37,16.53,4.44a10.12,10.12,0,0,0,1-.36c5.89-2.76,12.28-3.78,18.61-4.78l15.43-27.78s-6.19-3.73-9.69-3.73-4,.81-4,.81l-9.22,29.89L227,218.59a2.18,2.18,0,0,0-1.75.65c-.53.75.08,2.41.08,2.41a4.54,4.54,0,0,0-1.53,4.33C224.24,228.83,222.32,227.78,222.32,227.78Z"/><path class="cls-32" d="M256.59,232.24l.25,0,17.85-32.13s-4.67-2.81-8.19-3.56a24.75,24.75,0,0,1-.1,9C264.77,216.25,256.59,232.24,256.59,232.24Z"/><path class="cls-32" d="M224.16,223.11c8.67,4.25,22.28,11,22.28,11s1-3.42,2.3-8.06L227,218.59a2.18,2.18,0,0,0-1.75.65c-.53.75.08,2.41.08,2.41A4.52,4.52,0,0,0,224.16,223.11Z"/><path class="cls-18" d="M280.76,207.38c-.12-.35-3.85-3.85-3.85-3.85l-22.53,19.84-1.52,3.27L225.78,232l19.31,3.62,11.39-4.79S280.87,207.73,280.76,207.38Z"/><path class="cls-19" d="M272.08,313.91c2.46-7.28,17.88-14.7,20-18.39l.28-.49-24.91,8.26s-6.39,21.85-19.71,25.77-15.59,2.61-15.59,2.61,23.39,16.31,25.36,26.94-10.65-6-10.65-6l20.8,37,2.31,4.57s-14.64,2.44-20.11,8.21a11.06,11.06,0,0,1-6.77,2.9c3.12.71,6.69.88,9.07-1a28.53,28.53,0,0,1,17.41-6.7c5.33-.11,1.49-8.6-3.31-13.25-.33-10.51-3.91-30.11-12.55-38.11a102.74,102.74,0,0,0-11.33-9.37C254.77,329.49,270.52,318.5,272.08,313.91Z"/><path class="cls-19" d="M297.36,293.39,293,294.83l.59.07C294.47,295,295.8,294.44,297.36,293.39Z"/><path class="cls-16" d="M264.23,200.31,245,199.58s-10.53,12.83-18.5,22.85c6.63,3.33,18.94,9.7,18.94,9.7l16.22-12Z"/><path class="cls-33" d="M256,208.3c12.13-1.91,11.86-14,11.86-14l-7.77-4.36s-3.27-.13-4.36-.13S243.9,210.21,256,208.3Z"/><path class="cls-18" d="M274.66,219.7,273,213.36,267,211.18c-.37.2-5.2,3.59-5.2,3.59l.85,6.85,6.93,2.31Z"/><path class="cls-30" d="M272.23,219l-1.1-4.07-3.81-1.4c-.23.13-3.33,2.3-3.33,2.3l.55,4.4L269,221.7Z"/><polygon class="cls-30" points="215 235.83 195.11 233.52 208.6 248.51 213.87 245.19 215 235.83"/><path class="cls-20" d="M227.07,255.45c6.47-10.1-3.16-29.84-3.16-29.84-25.42,7.11-19.73,36.63-19.73,36.63S220.6,265.56,227.07,255.45Z"/><path class="cls-30" d="M294.46,185.57l-14.92-13.8,1.53,20.86,8.39.41C290.07,192.63,294.46,185.57,294.46,185.57Z"/><path class="cls-20" d="M297.92,208.78c14.71-9.81,9.63-26.09,9.63-26.09S288.81,175.16,267.8,199C267.8,199,283.21,218.59,297.92,208.78Z"/><path class="cls-30" d="M288,209.13s12.72,2.8,16.46-10.39a39.4,39.4,0,0,0,1.2-16.59c-3.23-.73-10.36-1.51-19.35,2.5,4.29,3,8.87,7.22,10.09,12.34C298.85,207.26,288,209.13,288,209.13Z"/><path class="cls-30" d="M218.65,259c.35,0,11-.59,9.11-15.06-1.18-9.17-4.14-14.72-6.15-17.57a25.32,25.32,0,0,0-12.53,9.35c3.93,1.72,8.59,4.4,11.21,8.22C225.42,251.39,218.3,259,218.65,259Z"/><polygon class="cls-18" points="309.82 264.35 299.32 255.01 292.31 265.16 288.11 279.29 272.7 276.55 263.48 277.3 262.97 286.56 281.34 292.13 301.89 290.03 309.82 264.35"/><path class="cls-16" d="M272.08,313.91a15.19,15.19,0,0,1,4.13-5.67l-30.53-9.1c-8.35,7.73-18.18,19.79-22.7,28.28a17.91,17.91,0,0,0-5.17,5.54l13.92,10.83,20,.56a94.18,94.18,0,0,0-9.34-7.55C254.77,329.49,270.52,318.5,272.08,313.91Z"/><path class="cls-17" d="M263.25,309.29l-19.09-6.65-15.43,15.79a78.94,78.94,0,0,0-5.75,9c-.15.1-.3.23-.46.35l.28.78,17.33-1.92C256.24,324,263.25,309.29,263.25,309.29Z"/><path class="cls-16" d="M361.34,336.57c.17.32.34.66.5,1,2.68-4.57,6-10.14,8.9-14.72-5.1-8.75-12.92-19.37-23.72-27.83-6.56-5.14-12.37-9.76-17.57-13.75l-13.54,24.5c5.66,6.65,19.74,22.88,33.91,27.29C354,334.37,357.89,335.56,361.34,336.57Z"/><path class="cls-18" d="M259.13,289.41c-.5.36-1,.7-1.48,1l30.3,8.83c.49-.36,1-.71,1.39-1Z"/><path class="cls-18" d="M316.66,272,299.5,294.49l1.26.66,17.07-22.36Q317.25,272.39,316.66,272Z"/><path class="cls-18" d="M252.24,293.81c-.46.31-.94.66-1.42,1,9.82,3.18,20.73,6.74,29.77,9.74l1.38-1C275,301.21,265.38,298.06,252.24,293.81Z"/><path class="cls-18" d="M324,277.19c-5.25,7.49-11.11,15.78-15.74,22.18.41.25.82.5,1.2.75,3.58-4.93,8.6-12,15.67-22.1Z"/><path class="cls-20" d="M320.16,324.35s-16.64-46.75-27.85-59.19c0,0-5.07,9.11-19.61,11.38l-3,59.89,31.87,13.66Z"/><path class="cls-30" d="M320.16,324.35s-16.64-46.75-27.85-59.19a22.47,22.47,0,0,1-7.83,7.27l17.86,76.63Z"/><path class="cls-18" d="M276.05,275.85l-2.53,51.29,1.59-4.54c2.89-8.21,6.84-11,9-12a15.07,15.07,0,0,0,3.14,19.52,11,11,0,0,0,6.83,2.58,9.23,9.23,0,0,0,7-3.33A10.25,10.25,0,0,0,304,321c-.62-4.94-4.77-9.12-7.34-11.28,9,1.41,12.76,6.67,14.26,9.91.58,1.67.91,2.66.93,2.71l1.35-.36a14,14,0,0,0-.82-2.42c-1.89-5.45-6.79-19.39-11.37-30.18a136.35,136.35,0,0,0-11.61-20.71c-.31.31-.66.63-1,1A133.91,133.91,0,0,1,299.72,290c3.43,8.08,7,17.94,9.43,24.65-2.79-3.06-7.38-6-14.86-6.53l-2.62-.19,2.18,1.47c.08,0,7.95,5.39,8.76,11.85a8.92,8.92,0,0,1-2.53,7.23c-3.92,4.39-8.87,3.07-11.91.6-4.84-3.93-7.13-12-1.83-19.21l.88-1.19-1.48.08c-.27,0-5.94.41-10.39,9.64l2.12-42.88Z"/><path class="cls-18" d="M277.9,275.34c6.48,18,8.6,23.86,9.51,25.68v.1h0c.39.76.55.73.77.7l.58-.11v-.59c0-.53-1.84-22.88-2.42-29.93-.42.3-.86.6-1.33.89.63,7.63,1.5,18.26,2,24.33-1.87-5.06-5-13.67-7.82-21.53C278.79,275,278.36,275.2,277.9,275.34Z"/><path class="cls-19" d="M251.75,344.35a96.3,96.3,0,0,0-9.22-7.46l-18.74.42.07.36,7.87,6.12Z"/><path class="cls-18" d="M230.85,327.85c-11.73-4.73-25-2.8-25-2.8l18.39,21.19,8.4,7.88S242.59,332.58,230.85,327.85Z"/><path class="cls-18" d="M383,345.19s2.63-16.29-8.93-25S350.45,318,350.45,318s-2.63,20.67,11.73,26.27S383,345.19,383,345.19Z"/><path class="cls-30" d="M370.55,338.94a7,7,0,0,0,3.9-.93l.13-.1,0-.17c.05-.31,1.18-7.74-4.24-11.85a10.85,10.85,0,0,0-11.27-1l-.18.1,0,.2c0,.1-1.16,9.81,5.63,12.46A16.76,16.76,0,0,0,370.55,338.94Zm-10.87-13.42a9.94,9.94,0,0,1,10.19,1c4.58,3.47,4.09,9.74,4,10.89-.65.35-3.54,1.6-9-.54C359.16,334.68,359.56,326.91,359.68,325.52Z"/><path class="cls-18" d="M270.25,249.05c11.33-1.82,22,2.64,28,6l-2.47-7.22c-2-1.51-11.91-7.91-29.85-1.79-14.27,4.87-18.92,13.17-20.42,17.62a40.7,40.7,0,0,0,6.94,1.93c.59.11,1.18.18,1.78.24C255.14,260.12,258.44,251,270.25,249.05Z"/><path class="cls-19" d="M272.33,194.29l-1,1c2.48,3.14,6.47,7.2,11.21,8.35l1.87.46-1.14-1.55c0-.06-4-5.54-.86-9,2-2.19,5.25-2.36,7.48-1.6a4.56,4.56,0,0,1,2.61,1.93c-1.25-.21-3.16-.31-4.34.73a3.47,3.47,0,0,0-.89,3.43c.41,2.4,2.53,4,5.54,4.23s6.84-1.29,7.9-4.6a11.92,11.92,0,0,0-1.39-10.08l-.23-.32-.39,0s-4.15.31-5.82-2a4.13,4.13,0,0,1-.71-2.69c-.46.12-.92.25-1.4.4a5.33,5.33,0,0,0,1,3.13c1.79,2.42,5.38,2.56,6.62,2.53a10.6,10.6,0,0,1,1,8.53c-.83,2.61-3.88,3.8-6.47,3.62-1.82-.12-3.9-1-4.25-3.06a2.24,2.24,0,0,1,.43-2.15c1-.88,3.38-.41,4.22-.16l1,.3-.08-1c-.13-1.82-1.57-3.38-3.85-4.15-2.66-.91-6.6-.67-9,2-2.71,3-1.38,6.93-.24,9.13C277.48,200.15,274.37,196.87,272.33,194.29Z"/><path class="cls-19" d="M205.26,248.3a4.59,4.59,0,0,0-1-.61c-.09.5-.17,1-.24,1.48l.3.2c2.16,1.8,1.61,5.88,1.61,5.92l-.06.39.31.25a12,12,0,0,0,7.07,2.33,11.78,11.78,0,0,0,2.91-.37c3.36-.86,5.09-4.48,5.05-7.62s-1.53-5.22-3.9-5.77a3.52,3.52,0,0,0-3.48.68c-1.1,1.13-1.12,3-1,4.3a4.53,4.53,0,0,1-1.77-2.72c-.64-2.27-.27-5.55,2-7.38,3.67-2.92,8.93,1.34,9,1.39L223.6,242l-.35-1.89c-.82-4.47-4.2-8.45-7.07-11.12-.42.26-.82.54-1.21.82,2.38,2.17,5.18,5.29,6.42,8.78-2.12-1.26-5.95-2.82-9.12-.29-2.79,2.23-3.25,6.15-2.5,8.85.64,2.32,2.11,3.85,3.92,4.09l1,.13-.25-1c-.19-.79-.53-3.25.41-4.2a2.22,2.22,0,0,1,2.16-.31c2.05.48,2.8,2.6,2.82,4.42,0,2.59-1.33,5.57-4,6.25a10.7,10.7,0,0,1-8.45-1.48C207.5,253.81,207.56,250.22,205.26,248.3Z"/><path class="cls-20" d="M350.34,173.75c1.89-.57,19.88-25.54,23.91-32.05h0l-7.9-.23c-9,4.09-27.38,12.58-32.2,15.45-5.51,3.28-9.67,13.87-10.78,16.92,3.11,2,7.79,4.78,12.16,7.32l1.41-1.45S348.17,174.4,350.34,173.75Z"/><path class="cls-19" d="M335.54,181.16l1.41-1.45s11.22-5.31,13.39-6c1.89-.57,19.88-25.54,23.91-32.05h0l-3.57-.11c-8.83,5.62-31.84,20.29-31.27,20.44s14.18-4.38,14.18-4.38S335,171,327.92,176.65C330.31,178.1,333,179.67,335.54,181.16Z"/><path class="cls-18" d="M278.85,224.45a42.88,42.88,0,0,1,17.84,3.81c.19-.43.38-.86.56-1.29a44.4,44.4,0,0,0-18.43-3.92c-12.11.27-14.49,16.64-14.52,16.8l-.31,2.29,1.53-1.73c1.71-1.92,6.83-6.92,10-6.94a1.83,1.83,0,0,1,1.53.64,2.3,2.3,0,0,1,.79,2.11c-.38,1.43-2.76,2.51-3.64,2.8l-2.6.86,23,4.23-.52-1.52-17.35-3.19a5.11,5.11,0,0,0,2.49-2.82,3.6,3.6,0,0,0-1.1-3.41,3.51,3.51,0,0,0-2.58-1.1c-3,0-7,3.45-9.27,5.64C267.3,233.4,270.57,224.64,278.85,224.45Z"/><path class="cls-30" d="M270.25,275.09c6.42,1,15.29-5.67,15.29-5.67s-2-9.69-10-12.14-12.9,1.29-12.72,7.47S270.25,275.09,270.25,275.09Z"/><path class="cls-18" d="M278,258.36a11.4,11.4,0,0,0-1.31-.65l-6.18,6.49-7.63.83a8,8,0,0,0,.21,1.39l8.09-.88Z"/><path class="cls-18" d="M283.29,263.86c-.24-.4-.5-.81-.77-1.21l-7.45,7.44-9.59.91c.39.46.79.9,1.19,1.29l9-.85Z"/><path class="cls-30" d="M290.07,325.36a5.12,5.12,0,0,0,3.16,1.2,4,4,0,0,0,1.13-.16,4.68,4.68,0,0,0,3.07-3.16,8.6,8.6,0,0,0,.05-5.2c-1.1-3.81-4.28-6.25-7.09-5.44s-4.22,4.57-3.12,8.37A8.69,8.69,0,0,0,290.07,325.36Zm.71-11.41a2.64,2.64,0,0,1,.74-.1c1.88,0,3.84,1.87,4.61,4.57a7.23,7.23,0,0,1,0,4.35,3.05,3.05,0,0,1-5.17,1.49,7.2,7.2,0,0,1-2.32-3.68C287.73,317.52,288.7,314.55,290.78,314Z"/><path class="cls-17" d="M376.41,133.47c2.19.2,2.26-.59,2.26-.59L372.53,130l-.13.14c.31.84.73,1.94,1.07,2.7l.25-.2S374.22,133.27,376.41,133.47Z"/><path class="cls-30" d="M228.08,349.87c.2-1.12.36-2.26.43-3.2.31-4-.15-9.35-4.08-12.15-3.64-2.59-9-3.33-13.38-3.44l1.27,1.47c3.91.21,8.3,1,11.3,3.11,3.91,2.79,3.9,8.75,3.23,13.06Z"/><path class="cls-18" d="M264.67,370.84c-.1-.5-.2-1-.31-1.51a74.37,74.37,0,0,0-15.27-.16q.67.69,1.32,1.38A71,71,0,0,1,264.67,370.84Z"/><path class="cls-18" d="M408.85,350.68l-1.24-1.4c-10.25,0-21.07.66-23.18,3-1.06,1.16-1.94,4.38-2.63,8.49l1.34.46c.59-3.89,1.35-6.94,2.32-8C387.18,351.32,397.59,350.69,408.85,350.68Z"/><path class="cls-18" d="M403.39,364.06c2.41-.84,9.35.59,17,2.7L419.36,365c-7.21-1.91-13.85-3.18-16.44-2.27-1.62.57-2.68,2.39-3.36,4.88l1.24.56C401.34,366,402.17,364.49,403.39,364.06Z"/><path class="cls-18" d="M260,355.59c-.23-.51-.46-1-.7-1.51-7.69-.63-16-.24-22.94,2.62l1.11,1.05C244.26,355.14,252.47,354.9,260,355.59Z"/><path class="cls-19" d="M268.07,389.52c1.39-.73,1.32-3.6-.16-6.4s-3.81-4.47-5.2-3.74-1.31,3.6.17,6.4S266.68,390.26,268.07,389.52Z"/><path class="cls-17" d="M348.35,322.6l-20.84-28.89-9.27,14.76a124.53,124.53,0,0,0,17.28,16.66C347.21,325.12,348.35,322.6,348.35,322.6Z"/><path class="cls-18" d="M242.53,233.18,237.74,229c-.41.06-6.13,1.52-6.13,1.52L230,237.26l5.66,4.61,6.24-2.16Z"/><path class="cls-30" d="M240.28,234l-3.07-2.65c-.27,0-3.93,1-3.93,1l-1.05,4.3,3.63,3,4-1.38Z"/><path class="cls-20" d="M210.51,208.57c10.22,4.77,22.89,1.64,22.89,1.64l7.91-8.31s-20.72,6.95-28.49,2.45-2.59-13.77-2.59-13.77S200.29,203.8,210.51,208.57Z"/><path class="cls-20" d="M239.24,203.69l11.36,1.6s11.88-5.42,16.92-15.51-11-14.26-11-14.26,9.81,4,6.52,12.39S239.24,203.69,239.24,203.69Z"/><path class="cls-34" d="M228,178.18c-9.26,4.91,6.41,19.08,6.41,19.08l7.09-.13a99.63,99.63,0,0,1-6.14-9.41c-3.13-5.45,8.59-7.63,15.68-11.45s-3.55-8,1.9-14.58,6,1.91,12.41,5.18,16.35-4.77,17.31-11.18,12.81-1.5,12.81-1.5c-2.05-8.58-18.54-4.77-19.76,3s-8.86-.41-20.31-6.54-15.27,6.54-14,16.22S237.22,173.27,228,178.18Z"/><path class="cls-30" d="M261.49,220.45c1-.22,1.12-7.14,1.12-7.14s-8.25-23.3-9.25-23.63a5.35,5.35,0,0,1-2.23-1.79L231,196.26A8.13,8.13,0,0,0,226,201.5c-1,3.9,8.36,24.52,8.36,24.52l5.36,2S260.49,220.67,261.49,220.45Z"/><path class="cls-35" d="M196.88,192c11.86,14.44,30.26,12.26,30.26,12.26l4.22,1.91c5.32.41,7.09-3.54,6.54-6.81s-2-5.73-10.76-5.32-23.17-1.91-26.85-9.4,4.22-17.18,4.63-24.26a9.45,9.45,0,0,0-5.72-9.41s2.45,1.5,2.86,7.63S185,177.5,196.88,192Z"/><path class="cls-35" d="M245.74,188.35c-7.26,4.85-7,7.71-5.51,10.67s5.28,5.08,9.31,1.6l2.27-4.05s16.1-9.16,17.07-27.83-20.68-18.62-24-23.8-2.22-7.84-2.22-7.84a9.46,9.46,0,0,0,1,11c4.54,5.46,16.65,8.55,18.13,16.77S253,183.5,245.74,188.35Z"/><path class="cls-36" d="M249.67,171.23c-.77-2.19-5.15-2.63-8.43,3.39s4.16,5.36,1.2,11.06-16,2.51-15.54,12,8.32,10.07,8.32,10.07l4.93-1.1c2-.77,10.17-4.92,6.78-8.21s1.42-8.54.88-12.69-3.4-5.7-4.38-10.18S249.67,171.23,249.67,171.23Z"/><path class="cls-20" d="M270,208.57c-10.12-3.78-14.2-1.73-14.2-1.73l-21.37,8.07s-10.63,6.24-9.4,14.11,10.73,8.38,10.73,8.38-9.4-3.88-4.7-11.14,13.59-5.73,13.59-5.73l13-7.87s9.2-1.43,13.39,1.43.81,11.55.81,11.55S280.15,212.36,270,208.57Z"/><path class="cls-17" d="M257.79,198.65c-1.34-.92-2.43,3.6-2.43,3.6l-25.83,6.69c-5.86,1.75,5.6,13.71,5.6,13.71S258,217.3,260.3,216,259.13,199.57,257.79,198.65Z"/><path class="cls-17" d="M239.68,225.42c4.93,3.7,10.82,7.74,12.25,7s1.54-.46,1.58-.83,3.27-10.64,4.25-16.7c.6-3.73-.89-10.68-2.94-16.23-5.11,4-11.63,10.17-11.63,10.44s-8.75-1.17-8.75-1.17l-6.88-2v.16S234.75,221.72,239.68,225.42Z"/><path class="cls-16" d="M250.37,226.61c-.52.47-2.14.55-2.62.61s-.66,3.07-.66,3.07l-.81-1.31.32,1.28c2.5,1.58,4.56,2.57,5.33,2.18,1.43-.72,1.54-.46,1.58-.83s2.86-9.34,4-15.47a57.42,57.42,0,0,0-.5-8.79c-.73-2.4-.9-4.07-1.68-5.35a6.37,6.37,0,0,0-2.32-1.9c-3.35,2.75-6.9,6-8.69,7.77.15,1.13.53,3.16.53,3.16l8.53-7.14,2.34,2.68s-1.11-.45-3.62.61-4.26,5.77-4.26,5.77l.29.48,3.69-1s1,3.18.89,3.18-1.67.25-1.75.25,1.81,10.23,1.81,10.23-.92-.33-1.17-.39S250.9,226.13,250.37,226.61Z"/><path class="cls-17" d="M251.93,232.44h0c-.32-.73-1.76-2.54-1.76-3.16s1.73-.76,2-1a2.76,2.76,0,0,0-.28-2c-.24,0-1.22.84-1.64,1.13s-1.58.17-2.19.28-.49,1.36-.49,1.42l-.33,1.52C249.45,232,251.23,232.8,251.93,232.44Z"/><path class="cls-35" d="M336.85,220.46a.7.7,0,0,0-.28-.11Z"/><path class="cls-37" d="M238.78,227.37s-4.64,12.68,7.63,19.36,18.4,2.31,15.4,7.36,6.41,9.81,12.4,2.45,9.54-2.32,12,.54,7.22-.54,7.22-.54-5.72,0-5.72-3,0-7.77-7.91-5.86-6.27,7.22-9,6.41c-2.27-.68,5.55-2.21,3.85-6.86a13.34,13.34,0,0,0,2.69-.91c8.45-3.95,8.59-3.14,15.4,2.86s12.27.82,16.49-2.45,13.22,0,9.27,3.4,10.77,3.41,10.77-.81c0,0-5.59,2-5.59-.41s6.54-6.68-.55-9-8.17.82-14.85,3.14c-6.47,2.24-4.12-5.61-8.17-7.35l.47-.29c2.86-1.84,5.24,2.73,12.33,2.05s3.61-13.15,10.7-13.09,3.07,6.41,13.29,3.07c9.23-3,1.35-6.53-.27-7.18.33.21.78.85.41,2.75-.55,2.8-7.5,1.3-11.18-2.93s-14.92,1-16.42,5.79-9.14,4.5-14.11.82c-2.83-2.09-8-1.08-11.95.19.49-1.24.79-2.5,1.11-3.53,1.09-3.47,4.23-1.7,5-.34s4.91,1.84,7.56-.54-1.56-4.23-1.56-4.23,1.84,2.32-.28,3.41-3.2-.14-4.56-2.93-6,.27-10.22,3.81-5.05-1.43-6.89-1.22a2.74,2.74,0,0,0-1.17.36c.1-.81-.92-1.47-.19-2.54,1-1.5,4,1.91,4,1.91s1.09-3.82-3.95-4.3-4.16,5-7.36,4.84-4.87-8.5-4.87-8.5-1,10.73-1,10.32-1.93.65-3.08,1.24c-.28,2.21-.9,6-.9,6l-3-3.19a3.47,3.47,0,0,1-3.36,1.15,4.78,4.78,0,0,1,.73,2.53Z"/><path class="cls-38" d="M276.19,221s1.09-3.82-3.95-4.3-4.16,5-7.36,4.84-4.87-8.5-4.87-8.5-1,10.73-1,10.32-1.93.65-3.08,1.24c-.28,2.21-.9,6-.9,6l-3-3.19a3.35,3.35,0,0,1-2.9,1.21A13.43,13.43,0,0,0,255,236.1c6.47,3.74,5.52-6,11.92-3.07s-1.57,9,2.59,9.81,11.11-1,14-4.5,10.36-2.45,9.95,1.23.68,8.25,7.91,5.79a42,42,0,0,0,4.78-1.92c-3.78-.16-2.49-6.24-6-7.74l.47-.29c-3.27-2.65-5.8-8-11.93-4.77s-2.45-7.08,6.95-2.25,14.79,11.39,18,3.28,8.79-12.34,13.09-9.27a4,4,0,0,0,3.22.76,13.33,13.33,0,0,1-4-3.08c-3.68-4.22-14.92,1-16.42,5.79s-9.14,4.5-14.11.82c-2.83-2.09-8-1.08-11.95.19.49-1.24.79-2.5,1.11-3.53,1.09-3.47,4.23-1.7,5-.34s4.91,1.84,7.56-.54-1.56-4.23-1.56-4.23,1.84,2.32-.28,3.41-3.2-.14-4.56-2.93-6,.27-10.22,3.81-5.05-1.43-6.89-1.22a2.74,2.74,0,0,0-1.17.36c.1-.81-.92-1.47-.19-2.54C273.19,217.63,276.19,221,276.19,221Z"/><path class="cls-39" d="M251.11,226.16c1-.71,3.94.92,5.32-.25s2.2-2.51,1.74-2.76-7.58-1.05-9.08,2.46c0,0-.89-.83-3.7,0s-.41,5-.41,5,1.59-3.39,3-3.38,1.32-1.07,1.32-1.07A1.44,1.44,0,0,0,251.11,226.16Z"/><path class="cls-16" d="M248.84,225.55l.87-1.77-.92.91-1.32-.1s-2.94-7.91-3.5-9.08a5.61,5.61,0,0,0-1.87-2l-11.22-3.75-.15,2.84s3.91,6.75,4.11,6.9,9.79,5.93,9.79,5.93Z"/><path class="cls-40" d="M252.77,208.13l-4.61,5.3s1,.23,3.11-1.51A3.71,3.71,0,0,0,252.77,208.13Z"/><path class="cls-35" d="M253.28,206.62c-3.56,1-6.22,7.09-6.22,7.09l.74.3a61.75,61.75,0,0,1,3.22-5.27A17.45,17.45,0,0,1,253.28,206.62Z"/><path class="cls-20" d="M250.16,215.46l8,19,3.65-16L254.63,192c-7,5.07-12.38,16-12.38,16-5.28-2.43-16.64-3.85-16.64-3.85l12.48,25.06,12.48,6.8-.81-1.53-8.63-17.24s-3.75,1.52-6.29-1.53a11.23,11.23,0,0,1-2.74-5.68l11.77,1.73,7.81-9.44s3.15,3.86,2.64,7.51S250.16,215.46,250.16,215.46Z"/><path class="cls-40" d="M241.34,216.17l-6.85-1.57a3.71,3.71,0,0,0,3.45,2.18C240.68,216.93,241.34,216.17,241.34,216.17Z"/><path class="cls-35" d="M242.39,215.74s-5.71-3.31-9.21-2.06a18.14,18.14,0,0,1,3.08.38,60.59,60.59,0,0,1,5.71,2.36Z"/><path class="cls-19" d="M224.59,205.17a22.15,22.15,0,0,0,15.39,5l-1.76-5.77c-18.56,1.09-14.55-12.29-14.55-12.29S217.57,199.24,224.59,205.17Z"/><path class="cls-19" d="M242.29,203.5l2.53,5.47A22.15,22.15,0,0,0,253,195c1.28-9.1-8-10.33-8-10.33S256.85,191.94,242.29,203.5Z"/><path class="cls-30" d="M248.26,207.93s-14.39-17.72-14.47-18,3.93,21.74,3.93,21.74l6.86,1.33Z"/><path class="cls-30" d="M239,221.82l4.56,10.42,1.92,1-5.7-13-.54.13a8.94,8.94,0,0,1-6-1l.91,1.84A9.59,9.59,0,0,0,239,221.82Z"/><path class="cls-30" d="M259.51,209.91l-.77-2.82,0,.19c-.55,5.33-4.82,9-4.86,9l-.4.33,5.92,12.6.48-2.12L255.09,217A17,17,0,0,0,259.51,209.91Z"/><path class="cls-19" d="M243.18,201.66l-1.07-1.32-1.23,5.41L236,202.49c.12.63.23,1.24.34,1.84l5.37,3.62Z"/><path class="cls-41" d="M237.58,216.72a1.3,1.3,0,0,0,1.15-1.15l-2.55-.59a1.28,1.28,0,0,0-.09.44,1.31,1.31,0,0,0,.69,1.14A3.78,3.78,0,0,0,237.58,216.72Z"/><path class="cls-41" d="M250.75,212.32a1.3,1.3,0,0,0-.18-1.66l-1.73,2a1.3,1.3,0,0,0,.8.29,1.55,1.55,0,0,0,.21,0A9.07,9.07,0,0,0,250.75,212.32Z"/><path class="cls-19" d="M292.31,265.16s-5.07,9.11-19.61,11.38l-.09,1.92,10.95,3.34,10.51-14.46C293.48,266.54,292.89,265.8,292.31,265.16Z"/><path class="cls-30" d="M223.67,192.13s-6.1,7.11.92,13A22.09,22.09,0,0,0,238,210.23l-.71-2.68s-11.44-.51-14.51-7a7.79,7.79,0,0,1,.81-8C223.63,192.29,223.67,192.13,223.67,192.13Z"/><path class="cls-42" d="M145.5,187.58c0-7.63,11-12.53,12.53-9.81,0,0-1.77-4.63-8.45-1.63s-4.63,13.76-7.36,13.63a18.75,18.75,0,0,1-5.72-1.5S145.5,195.22,145.5,187.58Z"/><path class="cls-43" d="M124.92,188.13l5.72-2.73C127.23,183.09,124.92,188.13,124.92,188.13Z"/><path class="cls-44" d="M196.2,199.85l-6.14.55S194.56,203.8,196.2,199.85Z"/><path class="cls-45" d="M206,217a14.1,14.1,0,0,1,.35,1.78A4.31,4.31,0,0,0,206,217Z"/><path class="cls-46" d="M189.52,217.71c-5.73-5.05-8,5.45-8,5.45,4.63-6.68,9.54-.28,18.53,2,6.62,1.71,6.75-3.51,6.35-6.4C206.16,223.58,194.68,222.25,189.52,217.71Z"/><path class="cls-47" d="M184.2,256.69l6.68.4C188,252.73,184.2,256.69,184.2,256.69Z"/><path class="cls-48" d="M98.75,187.86l8.45-5.45C102.29,181.32,98.75,187.86,98.75,187.86Z"/></g></g></svg>