<svg xmlns="http://www.w3.org/2000/svg" viewBox="0 0 1346.27 876.57"><defs><style>.cls-1{fill:#dc3b36;}.cls-2{fill:#af2c36;}.cls-3{fill:#912c36;}.cls-4{fill:#ff4f36;}.cls-5{fill:#ffd83b;}</style></defs><title>ragnar</title><g id="Layer_2" data-name="Layer 2"><g id="Layer_1-2" data-name="Layer 1"><path class="cls-1" d="M452,88.7c-188.64,114.15-229,176.1-237.1,193,34.67-83.1,165.23-176.29,165.23-176.29-12.12,3.86-18.4-7-18.4-7C164.57,124.47,0,302.8,0,302.8,171.68,40.66,528.15,40.66,528.15,40.66c11.16,107,98.36,143.85,98.36,143.85L609.1,191a88.7,88.7,0,0,0-34.28-4.57,39.16,39.16,0,0,1-18.72-14.65l9.64-5.62c-19.28,5.62-31.81-9.47-31.81-9.47L546,152.3c-14-5.78-17.83-29.87-17.83-29.87-5.78,14-20.24,92.75-20.24,92.75C500.68,157.59,511.77,95,511.77,95c-11.09-3.37-14-19.76-14-19.76C402.86,120.5,366.53,266,366.53,266,379.35,136.88,452,88.7,452,88.7Z"/><path class="cls-2" d="M497.79,75.2s2.89,16.39,14,19.76c0,0-11.09,62.63-3.86,120.22C477.07,115.11,366.53,266,366.53,266S402.86,120.5,497.79,75.2Z"/><path class="cls-2" d="M546,152.3l-12.05,4.34s12.53,15.09,31.81,9.47l-9.64,5.62a39.16,39.16,0,0,0,18.72,14.65c-38.78,2.41-66.91,28.8-66.91,28.8s14.46-78.78,20.24-92.75C528.15,122.43,532,146.52,546,152.3Z"/><path class="cls-2" d="M452,88.7S379.35,136.88,366.53,266C332.5,155.2,213,286.49,213,286.49c.59-1.59,1.24-3.19,1.91-4.8C223,264.8,263.37,202.85,452,88.7Z"/><path class="cls-1" d="M213,286.49a27.19,27.19,0,0,1,1.91-4.8C214.24,283.3,213.59,284.9,213,286.49Z"/><path class="cls-2" d="M361.74,98.44s6.28,10.82,18.4,7c0,0-130.56,93.19-165.23,176.29a27.19,27.19,0,0,0-1.91,4.8C203.36,166.11,0,302.8,0,302.8S164.57,124.47,361.74,98.44Z"/><path class="cls-3" d="M638.57,682.57c-9-24-44-16-64-1C533.06,711.23,495,742.1,456.3,771.06l-28.87,65.78s97.24-70.69,146.23-28.7a107.84,107.84,0,0,0,13,9.55C624.07,779.13,657.89,734.09,638.57,682.57Z"/><path class="cls-2" d="M901.07,761.31c1.56,1.24,3.08,2.35,4.58,3.34A23.71,23.71,0,0,0,901.07,761.31Z"/><path class="cls-3" d="M606.57,584.57c-20,41.56-61.67,59.49-102.11,76.75L476,726.18c25.86-11.39,50.06-25.6,70.58-45.61C574.57,654.57,599.57,623.57,606.57,584.57Z"/><path class="cls-3" d="M787.57,651.57c-10-11-13-29-30-29,0,32-2,65,1,97,2.42,28.19,7.42,55.72,10.32,84.17,16.26,6,66.39,13.2,90.26-24.09,1.38-2.16,2.76-4.1,4.13-5.88-20.89-26.91-35.61-57-55.71-87.2C799.57,674.57,796.57,661.57,787.57,651.57Z"/><path class="cls-2" d="M901.07,761.31c-62.54-49.62-174-296.72-174-296.72l-131.87-10-90.7,206.69c40.44-17.26,82.13-35.19,102.11-76.75-7,39-32,70-60,96-20.52,20-44.72,34.22-70.58,45.61L456.3,771.06c38.66-29,76.76-59.83,118.27-89.49,20-15,55-23,64,1,19.32,51.52-14.5,96.56-51.89,135.12,47.64,29.74,107.1,15.95,107.1,15.95,5.63-16.5,58.88-36,74.84-30l.27.1c-2.9-28.45-7.9-56-10.32-84.17-3-32-1-65-1-97,17,0,20,18,30,29,9,10,12,23,20,35,20.1,30.15,34.82,60.29,55.71,87.2C879.2,753.08,893.9,757.2,901.07,761.31Z"/><polygon class="cls-2" points="346.63 354.57 337.73 339.57 322.56 326.57 330.53 344.07 328.23 360.57 346.63 354.57"/><polygon class="cls-2" points="975.17 354.57 984.07 339.57 999.24 326.57 991.27 344.07 993.57 360.57 975.17 354.57"/><path class="cls-4" d="M639,134.83a24.09,24.09,0,0,0,21.89,14h.32a24.08,24.08,0,0,0,21.7-13.63l11.28-23.4a24.13,24.13,0,0,0,2.39-10.46V66.59A24.09,24.09,0,0,0,672.5,42.5H649.3a24.1,24.1,0,0,0-24.09,24.09V99.52a24,24,0,0,0,2.2,10Z"/><polygon class="cls-1" points="991.27 357.47 1007.07 351.07 1011.57 342.07 1006.57 326.57 1022.07 342.02 1012.07 360.07 992.94 369.79 991.27 357.47"/><polygon class="cls-1" points="987.57 363.57 1015.36 354.13 1022.07 339.24 1022.07 321.57 1029.57 342.57 1017.57 373.17 990.99 373.17 987.57 363.57"/><polygon class="cls-1" points="979.42 374.5 989.92 366.91 1012.92 366.91 1024.92 359.41 1033.92 345.41 1027.92 371.12 1012.42 378.41 979.42 374.5"/><path class="cls-2" d="M681.57,173.57s-1-6,0-6c6.64-3.32,13.55-7,20.18-11.23a63.57,63.57,0,0,1-7.8-7.85l-11-13.25-22,13.63-22-13.63-10.3,12.36C641.35,163.53,661.46,176.2,681.57,173.57Z"/><path class="cls-1" d="M437.57,332.57c2,1,5,4,4,6a8.93,8.93,0,0,1-14,0c-4-5,5-8,5-13-4.74,0-9.78-.3-14.71-.07l-45.21,26.26,10.5,21.41,99.07-34.25A54.35,54.35,0,0,0,437.57,332.57Z"/><path class="cls-4" d="M517.26,321.58l33.5-32.78c-8.13-4.56-15-12.25-18.19-20.23,4,1,6-3,7-5,2-4,3-12-2-13-14-2-18,15-17,26-8.91-10.18-8.5-23.6-6.25-36.92L478.7,290.17,417.86,325.5c4.93-.23,10,.07,14.71.07,0,5-9,8-5,13a8.93,8.93,0,0,0,14,0c1-2-2-5-4-6a54.35,54.35,0,0,1,44.65,6.35l15.84-5.47A51.59,51.59,0,0,0,517.26,321.58Z"/><path class="cls-1" d="M785.1,207.91a93.21,93.21,0,0,0-47-34.79L722.63,168c-1.87-.61-3.7-1.32-5.49-2.1-17,7.74-33.2,17-47.57,28.67,11-5,22-3,32,1,6,1,16,6,11,12-11,15-31,17-48,13-14-4-28-10-31-26-5,2-15,4-13,11,1,5,3,11,10,12-24.68-.88-43.15-20.41-54.71-41.47a93.16,93.16,0,0,0-39.16,31.81l-22.38,31.74c-2.25,13.32-2.66,26.74,6.25,36.92-1-11,3-28,17-26,5,1,4,9,2,13-1,2-3,6-7,5,3.19,8,10.06,15.67,18.19,20.23l18.35-17.95L585,287.69l4.09,19.08c16,2.65,32.83-.32,48.46-7.2-4-5-11-5-13-11-3-12,8-25,19-19,4,2,0,8-1,12,22,3,50-1,64-19-5,1-12,0-8-5,21-28.63,58.39-46.31,93.93-39.17Z"/><path class="cls-1" d="M949.15,351.76l-59.1-34.33c-6-.35-11.95.07-17.48,3.14,4,0,10,0,10,4,1,10-11,9-18,8-5-1-5-7-3-11,1-2,3-5,6-5-16-2-32,2-44,14,5,1,12-7,16-1A29.74,29.74,0,0,0,832,336.3l106.66,36.87Z"/><path class="cls-4" d="M630.57,217.57c-7-1-9-7-10-12-2-7,8-9,13-11,3,16,17,22,31,26,17,4,37,2,48-13,5-6-5-11-11-12-10-4-21-6-32-1,14.37-11.67,30.57-20.93,47.57-28.67a63.23,63.23,0,0,1-15.39-9.56c-6.63,4.18-13.54,7.91-20.18,11.23-1,0,0,6,0,6-20.11,2.63-40.22-10-53-26l-.74.89A63,63,0,0,1,599.17,168l-15.51,5.12c-2.66.88-5.25,1.88-7.8,3C587.42,197.16,605.89,216.69,630.57,217.57Z"/><polygon class="cls-1" points="377.31 349.05 390.29 370.7 357.9 386.57 338.56 386.57 322.56 358.91 377.31 349.05"/><polygon class="cls-1" points="330.53 357.47 314.73 351.07 310.23 342.07 315.23 326.57 299.73 342.02 309.73 360.07 328.86 369.79 330.53 357.47"/><polygon class="cls-1" points="334.23 363.57 306.44 354.13 299.73 339.24 299.73 321.57 292.23 342.57 304.23 373.17 330.81 373.17 334.23 363.57"/><polygon class="cls-1" points="342.38 374.5 331.88 366.91 308.88 366.91 296.88 359.41 287.88 345.41 293.88 371.12 309.38 378.41 342.38 374.5"/><path class="cls-4" d="M344.23,386.57h-29.1l-8.23-15,3.58-19,6.75,17.22S343.23,363.57,344.23,386.57Z"/><path class="cls-1" d="M991.83,371.71l4.33-7.48a4.32,4.32,0,0,0-3-6.41l-48.69-8.77-13,21.65,32.39,15.87h13.25C979,379.29,984.7,374,991.83,371.71Z"/><path class="cls-4" d="M991.83,371.71c-7.13,2.27-12.83,7.58-14.68,14.86h6.09Z"/><path class="cls-4" d="M977.57,386.57h29.1l8.23-15-3.58-19-6.75,17.22S978.57,363.57,977.57,386.57Z"/><path class="cls-2" d="M656.68,112.32s2.91-3.13,4.83-3.13,4.27,3.13,4.27,3.13S660.68,113.81,656.68,112.32Z"/><path class="cls-2" d="M683.86,71.48s37.85-5.39,26.44-70.43a1.27,1.27,0,0,0-2.52.15C707,17.66,701.57,44.9,675.94,55,675.94,55,671.37,64.78,683.86,71.48Z"/><path class="cls-2" d="M637.77,71.48s-37.86-5.39-26.44-70.43a1.27,1.27,0,0,1,2.52.15c.81,16.46,6.21,43.7,31.84,53.83C645.69,55,650.25,64.78,637.77,71.48Z"/><path class="cls-1" d="M635.39,807.44l9.66,69.13h14.52V814.06A47.39,47.39,0,0,1,635.39,807.44Z"/><path class="cls-1" d="M659.57,814.06v62.51h17.19l9.67-69.28A56.86,56.86,0,0,1,659.57,814.06Z"/><path class="cls-3" d="M726.65,454.63l-11.59-49.15v-.09l-30,13.68s-1.5-7-22-11-25,11-25,11l-31.3-13.72-11.61,49.28a25.9,25.9,0,0,0-.39,10l28.11,181-3.38,48,15.89,113.87c15.73,9.41,35.17,8.29,51-.15L702.3,693.57l-3.38-48,28.11-181A25.9,25.9,0,0,0,726.65,454.63Z"/><path class="cls-4" d="M890.05,317.43l-46.94-27.26L792.5,218.4c-35.54-7.14-72.93,10.54-93.93,39.17-4,5,3,6,8,5-14,18-42,22-64,19,1-4,5-10,1-12-11-6-22,7-19,19,2,6,9,6,13,11-15.63,6.88-32.44,9.85-48.46,7.2l17.66,98.58,31.3,13.72s4.5-15,25-11,22,11,22,11l30-13.68,21.72-117.7,15.9-16.84,51.85,50.73a51.67,51.67,0,0,0,19.2,11.87L832,336.3a29.74,29.74,0,0,1,7.58-6.73c-4-6-11,2-16,1,12-12,28-16,44-14-3,0-5,3-6,5-2,4-2,10,3,11,7,1,19,2,18-8,0-4-6-4-10-4C878.1,317.5,884,317.08,890.05,317.43Z"/><path class="cls-2" d="M606.77,405.35l-6.48,27.51s30.82,17,69.19,15.35a347.3,347.3,0,0,0-3.77-35.06C649.62,413.68,629.87,411.9,606.77,405.35Z"/><path class="cls-3" d="M689.83,410.38a145.21,145.21,0,0,1-24.12,2.77,347.3,347.3,0,0,1,3.77,35.06,114.18,114.18,0,0,0,25.1-3.85C694.1,433,692.15,421.52,689.83,410.38Z"/><path class="cls-2" d="M715.79,401.52s-9,5.39-26,8.86c2.32,11.14,4.27,22.59,4.75,34a106.85,106.85,0,0,0,26.93-11.5Z"/><path class="cls-2" d="M638.07,419.07c-4.5,124.5-76.5,233.5-107.74,261.5s-207.77,78-207.77,78,11.82,61.79,34.58,53.71c5-8.38,10.61-16,19.43-21.71,56-32,112-52,170-75-30,31-69,48-102,77-7.75,6.21-16.11,13.62-17.6,23.16l.46-.16c24.09-8.34,38.7,16,42.89,24.33-1.19-7,5.59-29.7,94.25-89.33,113-76,120.5-331.5,120.5-331.5C656.57,379.57,638.07,419.07,638.07,419.07Z"/><path class="cls-2" d="M471.57,842.57s-.42-1-1.25-2.67A4.38,4.38,0,0,0,471.57,842.57Z"/><path class="cls-3" d="M444.57,792.57c33-29,72-46,102-77-58,23-114,43-170,75-8.82,5.67-14.46,13.33-19.43,21.71a16.36,16.36,0,0,0,3.43-1.71c24.86-15.91,37.86,14.66,66.4,5.16C428.46,806.19,436.82,798.78,444.57,792.57Z"/><path class="cls-3" d="M644.18,458.33s-25.86,122.85-55.07,162.38C589.11,620.71,623.13,639.76,644.18,458.33Z"/><path class="cls-4" d="M689.83,804.24s-16.59,11.33-34.59,0v23.33s17.83,13,29.83,2.5Z"/><path class="cls-4" d="M627.9,769.24l31.67,14.33v35.64s-15.5.35-27-5.14Z"/><path class="cls-4" d="M692.4,94.74s3-10.67,18.17-14l15.17-3.33s-14.5,30-30.84,27.33S692.4,94.74,692.4,94.74Z"/><path class="cls-1" d="M636.07,89.24l-2.25-4.75s10.5-.42,16.33,5.58S659.82,98,661.65,98s9.92-7.33,9.92-7.33,5.08-4.85,18.25-6.17l-2.89,4.75-16.69,9.83s-6.09,4.42-9,3.42-8.46-3.42-8.46-3.42Z"/><path class="cls-2" d="M695.57,99.32s3.62,0,4.37-1.5-2.18-4.5-2.18-4.5,2.18-6,6.31-6.87,15.62-4.38,15.62-4.38S707.44,106,695.57,99.32Z"/><path class="cls-4" d="M627.6,94.74s-3-10.67-18.17-14l-15.16-3.33s14.5,30,30.83,27.33S627.6,94.74,627.6,94.74Z"/><path class="cls-2" d="M624.43,99.32s-3.62,0-4.37-1.5,2.19-4.5,2.19-4.5-2.19-6-6.32-6.87-15.62-4.38-15.62-4.38S612.56,106,624.43,99.32Z"/><path class="cls-5" d="M670.24,99.07l3.8-5.45a5,5,0,0,1,2.92-2l10-2.39S683.74,102.24,670.24,99.07Z"/><path class="cls-5" d="M652.77,99.07,649,93.62a5,5,0,0,0-2.91-2l-10-2.39S639.27,102.24,652.77,99.07Z"/><path class="cls-1" d="M894.26,88.7c188.64,114.15,229,176.1,237.11,193-34.68-83.1-165.24-176.29-165.24-176.29,12.12,3.86,18.4-7,18.4-7,197.18,26,361.74,204.36,361.74,204.36C1174.6,40.66,818.12,40.66,818.12,40.66c-11.16,107-98.36,143.85-98.36,143.85L737.17,191a88.7,88.7,0,0,1,34.28-4.57,39.16,39.16,0,0,0,18.72-14.65l-9.64-5.62c19.28,5.62,31.81-9.47,31.81-9.47l-12.05-4.34c14-5.78,17.83-29.87,17.83-29.87,5.78,14,20.24,92.75,20.24,92.75C845.59,157.59,834.51,95,834.51,95c11.08-3.37,14-19.76,14-19.76C943.41,120.5,979.75,266,979.75,266,966.93,136.88,894.26,88.7,894.26,88.7Z"/><path class="cls-2" d="M848.48,75.2s-2.89,16.39-14,19.76c0,0,11.08,62.63,3.85,120.22C869.2,115.11,979.75,266,979.75,266S943.41,120.5,848.48,75.2Z"/><path class="cls-2" d="M800.29,152.3l12.05,4.34s-12.53,15.09-31.81,9.47l9.64,5.62a39.16,39.16,0,0,1-18.72,14.65c38.79,2.41,66.91,28.8,66.91,28.8s-14.46-78.78-20.24-92.75C818.12,122.43,814.27,146.52,800.29,152.3Z"/><path class="cls-2" d="M894.26,88.7S966.93,136.88,979.75,266c34-110.83,153.53,20.46,153.53,20.46-.6-1.59-1.25-3.19-1.91-4.8C1123.28,264.8,1082.9,202.85,894.26,88.7Z"/><path class="cls-1" d="M1133.28,286.49a27.19,27.19,0,0,0-1.91-4.8C1132,283.3,1132.68,284.9,1133.28,286.49Z"/><path class="cls-2" d="M984.53,98.44s-6.28,10.82-18.4,7c0,0,130.56,93.19,165.24,176.29a27.19,27.19,0,0,1,1.91,4.8c9.64-120.38,213,16.31,213,16.31S1181.71,124.47,984.53,98.44Z"/></g></g></svg>