<svg id="Layer_1" enable-background="new 0 0 512 512" height="512" viewBox="0 0 512 512" width="512" xmlns="http://www.w3.org/2000/svg"><g><g><path d="m117.594 487.2h248v-80h-248c-22.091 0-40 17.909-40 40 0 22.091 17.908 40 40 40z" fill="#147864"/></g><g><path d="m285.594 295.2v12.224c0 23.527-5.478 46.732-16 67.775v.001c0 17.673 14.327 32 32 32h88c22.091 0 40 17.909 40 40 0 22.091-17.909 40-40 40h-152c-44.183 0-80-35.817-80-80v-112z" fill="#329682"/></g><g><path d="m125.594 68.533-2.343 2.344c-3.622 3.622-5.657 8.534-5.657 13.656 0 5.123 2.035 10.035 5.657 13.657l2.343 2.343-2.343 2.344c-3.622 3.622-5.657 8.534-5.657 13.656 0 5.123 2.035 10.035 5.657 13.657l2.343 2.343-2.343 2.344c-3.622 3.622-5.657 8.534-5.657 13.656 0 5.123 2.035 10.035 5.657 13.657l2.343 2.343-2.343 2.344c-3.622 3.622-5.657 8.534-5.657 13.656 0 5.123 2.035 10.035 5.657 13.657l2.343 2.343c0 8.837 7.164 16 16 16h26.667v-144z" fill="#464646"/></g><g><path d="m285.594 295.2h-128v-112c0-17.673 14.327-32 32-32h80v80.26c0 10.078-4.004 19.744-11.13 26.87l-4.87 4.87c17.673 0 32 14.327 32 32z" fill="#f0915a"/></g><g><path d="m309.594 39.2h40v37.333h-40z" fill="#f0915a"/></g><g><path d="m333.594 76.533c0-8.836-7.164-16-16-16v-4c0-6.627-5.373-12-12-12-2.209 0-4 1.791-4 4v20c0 4.419 3.582 8 8 8h8v58.667c0 8.837-7.164 16-16 16h-48c-8.836 0-16 7.163-16 16 0 8.837 7.164 16 16 16h48c26.51 0 48-21.49 48-48v-58.667z" fill="#fab991"/></g><g><path d="m309.594 23.2h32c4.418 0 8 3.582 8 8v8h-40c-4.418 0-8-3.582-8-8 0-4.418 3.581-8 8-8z" fill="#fab991"/></g><g><path d="m253.594 183.2h-96c-13.255 0-24 10.745-24 24 0 13.255 10.745 24 24 24v32h96l4.686-4.687c7.244-7.244 11.314-17.069 11.314-27.313v-32c0-8.837-7.164-16-16-16z" fill="#646464"/></g><g><path d="m173.594 167.2h40c8.837 0 16-7.163 16-16v-72c0-13.255-10.745-24-24-24h-40c-13.255 0-24 10.745-24 24v56c0 17.673 14.327 32 32 32z" fill="#f0915a"/></g><g><path d="m189.594 167.2h-16c-17.673 0-32-14.327-32-32v-56c0-13.255 10.745-24 24-24h16c13.255 0 24 10.745 24 24v72c0 8.837-7.164 16-16 16z" fill="#fab991"/></g><g><path d="m261.594 116.533c0-5.122-2.035-10.034-5.657-13.656l-2.343-2.344 2.343-2.343c3.622-3.622 5.657-8.534 5.657-13.657 0-5.122-2.035-10.034-5.657-13.656l-2.343-2.344c0-17.673-14.327-32-32-32l-2.343-2.343c-3.622-3.622-8.534-5.657-13.657-5.657s-10.035 2.035-13.657 5.657l-2.343 2.343-2.343-2.343c-3.622-3.622-8.534-5.657-13.657-5.657s-10.035 2.035-13.657 5.657l-2.343 2.343c-17.673 0-32 14.327-32 32v16c0 4.419 3.582 8 8 8h64v8c0 4.419 3.582 8 8 8v24l-2.343 2.344c-3.622 3.622-5.657 8.534-5.657 13.656 0 5.123 2.035 10.035 5.657 13.657l2.343 2.343-2.343 2.344c-3.622 3.622-5.657 8.534-5.657 13.656 0 5.123 2.035 10.035 5.657 13.657l2.343 2.343c0 8.837 7.164 16 16 16h16c8.836 0 16-7.163 16-16l2.343-2.343c3.622-3.622 5.657-8.534 5.657-13.657 0-5.122-2.035-10.034-5.657-13.656l-2.343-2.344 2.343-2.343c3.622-3.622 5.657-8.534 5.657-13.657 0-5.122-2.035-10.034-5.657-13.656l-2.343-2.344 2.343-2.343c3.622-3.622 5.657-8.534 5.657-13.657z" fill="#464646"/></g><g><path d="m213.594 135.2c-4.418 0-8-3.582-8-8v-16c0-4.418 3.582-8 8-8 8.837 0 16 7.163 16 16 0 8.837-7.164 16-16 16z" fill="#f0915a"/></g><g><path d="m253.594 263.2h-96v32h128c0-17.673-14.327-32-32-32z" fill="#faa51e"/></g><g><path d="m117.594 231.2c0-8.837-7.164-16-16-16v48h56v-32z" fill="#dc7846"/></g><g><path d="m85.594 215.2h16c4.418 0 8 3.582 8 8v32c0 4.418-3.582 8-8 8h-16c-4.418 0-8-3.582-8-8v-32c0-4.418 3.581-8 8-8z" fill="#fab991"/></g><g><path d="m237.594 487.2c-44.183 0-80-35.817-80-80v-112h80v128c0 35.346 28.654 64 64 64z" fill="#7dc8aa"/></g><g><path d="m237.594 407.2v8h-79.61c-.26-2.63-.39-5.3-.39-8z" fill="#7dc8aa"/></g><g><path d="m246.154 455.2h-72.57c-1.91-2.55-3.68-5.22-5.28-8h73.95c1.11 2.77 2.42 5.44 3.9 8z" fill="#7dc8aa"/></g><g><path d="m317.594 407.2c0-20.489 8.139-40.139 22.627-54.627l20.686-20.686c3.001-3.001 4.686-7.07 4.686-11.314v-17.373c0-4.418 3.582-8 8-8 4.418 0 8 3.582 8 8v44.686c0 7.244-2.878 14.191-8 19.314-5.122 5.122-8 12.07-8 19.314v20.686z" fill="#147864"/></g><g><path d="m157.594 327.2h80v8h-80z" fill="#329682"/></g><g><path d="m157.594 367.2h80v8h-80z" fill="#329682"/></g><g><path d="m237.594 407.2v8h-79.61c-.26-2.63-.39-5.3-.39-8z" fill="#329682"/></g><g><path d="m246.154 455.2h-72.57c-1.91-2.55-3.68-5.22-5.28-8h73.95c1.11 2.77 2.42 5.44 3.9 8z" fill="#329682"/></g><g><path d="m141.594 76.533h56v16h-56z" fill="#faa51e"/></g></g></svg>