<svg xmlns="http://www.w3.org/2000/svg" viewBox="0 0 511 512" width="511" height="512">
	<style>
		tspan { white-space:pre }
		.shp0 { fill: #836936 } 
		.shp1 { fill: #a88848 } 
		.shp2 { fill: #f5efca } 
		.shp3 { fill: #2ba2a2 } 
		.shp4 { fill: #fdd7ad } 
		.shp5 { fill: #7f6e5d } 
		.shp6 { fill: #2c2f38 } 
		.shp7 { fill: #ffffff } 
	</style>
	<path id="Layer" class="shp0" d="M89.86 241.17C77 253.44 60.3 277.06 54.28 319.97C54.07 321.43 54.61 322.89 55.71 323.88C56.8 324.86 58.32 325.23 59.75 324.86C68.04 322.3 76.89 322.12 85.29 324.32C87.32 325.29 88.28 327.64 87.48 329.75C80.6 350.58 85.31 373.51 99.84 389.95C100.93 391.31 102.72 391.91 104.41 391.46C106.09 391.02 107.36 389.63 107.64 387.9C110.14 372.22 117.04 340.78 133.6 325.12L89.86 241.17Z" />
	<path id="Layer" class="shp0" d="M423.01 241.17C435.86 253.44 452.56 277.06 458.63 319.97C458.83 321.43 458.3 322.89 457.2 323.88C456.11 324.86 454.59 325.23 453.16 324.86C444.86 322.3 436.02 322.12 427.62 324.32C425.59 325.29 424.63 327.64 425.43 329.75C432.3 350.58 427.6 373.51 413.07 389.95C411.98 391.31 410.19 391.91 408.5 391.46C406.81 391.02 405.55 389.63 405.27 387.9C402.77 372.22 395.87 340.78 379.31 325.12L423.01 241.17Z" />
	<path id="Layer" class="shp0" d="M424.16 220.69C424.2 227.54 423.81 234.38 423.01 241.17C418.24 282.22 399.18 304.91 379.31 325.12C353.8 350.98 327.05 372.7 327.05 423.72C327.05 464.16 285.92 497.35 266.5 509.35C260.99 512.76 254.05 512.83 248.49 509.53C247.95 509.3 247.45 509 246.99 508.64C227.74 494.88 185.81 457.71 185.81 423.72C185.81 372.7 159.06 350.98 133.55 325.12C113.69 304.91 94.62 282.22 89.86 241.17C89.05 234.37 88.67 227.54 88.71 220.69C88.34 181.06 102.36 142.64 128.17 112.55L187.66 65.15C192.08 62.85 194.64 61.79 194.64 61.79C189.7 27.37 201.26 12.09 212.47 5.39C217.75 2.16 223.77 0.31 229.95 0C229.95 21.63 239.93 30.02 247.61 33.28C250.4 34.48 253.39 35.17 256.43 35.31C256.43 35.31 280.18 35.31 282.74 5.39C282.83 3.71 282.91 1.86 282.91 0C282.91 0 327.05 0 318.23 61.79C318.23 61.79 320.79 62.85 325.2 65.15L384.7 112.55C410.5 142.64 424.52 181.06 424.16 220.69L424.16 220.69Z" />
	<path id="Layer" class="shp1" d="M406.5 220.69C406.54 227.54 406.16 234.38 405.35 241.17C400.59 282.22 381.52 304.91 361.66 325.12C336.14 350.98 309.4 372.7 309.4 423.72C309.4 458.77 278.5 488.34 257.67 503.44C236.84 486.84 203.46 454 203.46 423.72C203.46 372.7 176.72 350.98 151.21 325.12C131.34 304.91 112.28 282.22 107.51 241.17C106.7 234.38 106.32 227.54 106.36 220.69C106 181.06 120.02 142.64 145.82 112.55L205.32 65.15C209.73 62.85 212.29 61.79 212.29 61.79C209.41 47.89 210.86 33.44 216.44 20.39C220.61 29.06 229.17 34.78 238.78 35.31C241.82 35.17 244.81 34.48 247.61 33.28C248 33.46 248.41 33.61 248.84 33.72C249.33 33.92 249.83 34.1 250.34 34.25C254.28 35.66 258.59 35.66 262.52 34.25C263.05 34.07 263.49 33.9 264.02 33.72C264.45 33.6 264.86 33.45 265.26 33.28C276.1 28.27 282.96 17.33 282.74 5.39C288.65 8.96 293.41 14.17 296.42 20.39C302.01 33.44 303.45 47.89 300.57 61.79C300.57 61.79 303.13 62.85 307.54 65.15L367.04 112.55C392.84 142.64 406.86 181.06 406.5 220.69L406.5 220.69Z" />
	<path id="Layer" class="shp1" d="M406.5 220.69C406.54 227.54 406.16 234.38 405.35 241.17C400.59 282.22 381.52 304.91 361.66 325.12C336.14 350.98 309.4 372.7 309.4 423.72C309.4 458.77 278.5 488.34 257.67 503.44C236.84 486.84 203.46 454 203.46 423.72C203.46 372.7 176.72 350.98 151.21 325.12C131.34 304.91 112.28 282.22 107.51 241.17C106.7 234.38 106.32 227.54 106.36 220.69C106 181.06 120.02 142.64 145.82 112.55L205.32 65.15C209.73 62.85 212.29 61.79 212.29 61.79C209.41 47.92 210.86 33.5 216.44 20.48L216.44 20.39C219.46 14.17 224.21 8.96 230.12 5.39C229.91 17.33 236.76 28.27 247.61 33.28C248.01 33.45 248.42 33.6 248.84 33.72C249.3 33.92 249.77 34.1 250.25 34.25C251.69 34.69 253.17 34.99 254.67 35.13C254.93 35.21 255.19 35.24 255.46 35.22C255.78 35.27 256.11 35.3 256.43 35.31C259.47 35.17 262.46 34.48 265.26 33.28C268.05 34.48 271.05 35.17 274.09 35.31C283.7 34.78 292.25 29.06 296.42 20.39C302.01 33.44 303.45 47.89 300.57 61.79C300.57 61.79 303.13 62.85 307.54 65.15L367.04 112.55C392.84 142.64 406.86 181.06 406.5 220.69L406.5 220.69Z" />
	<path id="Layer" class="shp1" d="M406.5 220.69C406.54 227.54 406.16 234.38 405.35 241.17C400.59 282.22 381.52 304.91 361.66 325.12C336.14 350.98 309.4 372.7 309.4 423.72C309.4 458.77 278.5 488.34 257.67 503.44C236.84 486.84 203.46 454 203.46 423.72C203.46 372.7 176.72 350.98 151.21 325.12C131.34 304.91 112.28 282.22 107.51 241.17C106.7 234.38 106.32 227.54 106.36 220.69C106 181.06 120.02 142.64 145.82 112.55L205.32 65.15C209.73 62.85 212.29 61.79 212.29 61.79C209.41 47.92 210.86 33.5 216.44 20.48C219.25 26.24 224.05 30.79 229.95 33.28C230.35 33.46 230.76 33.61 231.18 33.72C231.71 33.9 232.16 34.07 232.69 34.25C236.62 35.66 240.93 35.66 244.87 34.25C245.37 34.1 245.88 33.92 246.37 33.72C246.79 33.6 247.2 33.45 247.61 33.28C248.01 33.45 248.42 33.6 248.84 33.72C249.3 33.92 249.77 34.1 250.25 34.25C251.69 34.69 253.17 34.99 254.67 35.13C254.93 35.21 255.19 35.24 255.46 35.22C255.78 35.27 256.11 35.3 256.43 35.31C259.47 35.17 262.46 34.48 265.26 33.28C271.19 30.78 275.99 26.2 278.77 20.39C281.07 15.7 282.42 10.6 282.74 5.39C288.65 8.96 293.41 14.17 296.42 20.39C302.01 33.44 303.45 47.89 300.57 61.79C300.57 61.79 303.13 62.85 307.54 65.15L367.04 112.55C392.84 142.64 406.86 181.06 406.5 220.69L406.5 220.69Z" />
	<path id="Layer" class="shp2" d="M219.8 301.46C211.13 301.4 202.46 300.87 193.84 299.88C191.11 299.61 188.37 299.17 185.63 298.73C179.68 297.86 173.83 296.41 168.16 294.4C162.39 292.57 157.13 289.43 152.8 285.22C151.94 284.39 151.17 283.47 150.5 282.48C138.94 265.09 142.55 240.02 146.44 224.93C152.94 227.36 159.25 230.25 165.33 233.58C166.66 234.29 168.07 235.08 169.48 235.88C175.24 239.12 180.71 242.88 185.81 247.09C192.37 252.3 198.24 258.32 203.29 265C211.44 275.77 217.08 288.23 219.8 301.46L219.8 301.46Z" />
	<path id="Layer" class="shp2" d="M362.36 282.48C357.86 288.19 351.69 292.36 344.71 294.4C339.04 296.41 333.18 297.86 327.23 298.73C315.93 300.55 304.51 301.46 293.07 301.46C297.61 279.89 309.65 260.62 327.05 247.09C332.16 242.88 337.62 239.12 343.38 235.88C350.74 231.57 358.45 227.91 366.42 224.93C370.31 240.02 373.93 265.09 362.36 282.48L362.36 282.48Z" />
	<path id="Layer" class="shp3" d="M203.46 269.24C203.79 280.24 200.4 291.04 193.84 299.88C191.11 299.61 188.37 299.17 185.63 298.73C179.68 297.86 173.83 296.41 168.16 294.4C162.39 292.57 157.13 289.43 152.8 285.22C151.24 280.04 150.47 274.65 150.5 269.24C149.73 255.71 155.19 242.57 165.33 233.58C166.66 234.29 168.07 235.08 169.48 235.88C175.24 239.12 180.71 242.88 185.81 247.09C192.37 252.3 198.24 258.32 203.29 265C203.38 266.42 203.46 267.83 203.46 269.24Z" />
	<path id="Layer" class="shp3" d="M309.4 269.24C309.07 280.24 312.46 291.04 319.02 299.88C321.76 299.61 324.49 299.17 327.23 298.73C333.18 297.86 339.04 296.41 344.71 294.4C350.47 292.57 355.73 289.43 360.07 285.22C361.62 280.04 362.39 274.65 362.36 269.24C363.14 255.71 357.67 242.57 347.53 233.58C346.21 234.29 344.8 235.08 343.38 235.88C337.62 239.12 332.16 242.88 327.05 247.09C320.49 252.3 314.62 258.32 309.57 265C309.48 266.42 309.4 267.83 309.4 269.24L309.4 269.24Z" />
	<path id="Layer" class="shp4" d="M211.77 127.12C204.61 172.05 174.6 174.7 156.06 171.79C147.82 170.41 141.67 163.45 141.32 155.1C140.26 121.36 119.07 91.55 87.56 79.45C38.21 58.53 39.01 164.37 41.48 209.74C41.58 211.8 40.23 213.66 38.25 214.21C36.26 214.75 34.16 213.86 33.18 212.04C10.85 168.61 -2.75 116.61 1.14 74.95C1.64 68.91 2.61 62.91 4.05 57.03C11.2 27.81 29.39 6.36 62.49 1.15C67.84 0.39 73.24 0 78.64 0C79.62 0 80.5 0 81.38 0.09L81.47 0.09C109.59 0.27 136.69 10.65 157.74 29.31C162.54 33.41 167.02 37.87 171.16 42.64C180.86 53.84 189.14 66.2 195.79 79.45C198.79 85.45 201.35 91.19 203.55 96.4C206.64 104.09 209.27 111.96 211.41 119.97C212.05 122.3 212.18 124.74 211.77 127.12Z" />
	<path id="Layer" class="shp4" d="M479.68 212.04C478.71 213.86 476.6 214.75 474.62 214.21C472.63 213.66 471.29 211.8 471.38 209.74C473.86 164.37 474.65 58.53 425.3 79.45C393.79 91.55 372.61 121.36 371.54 155.1C371.2 163.45 365.04 170.41 356.8 171.79C338.26 174.7 308.25 172.05 301.1 127.12C300.69 124.74 300.81 122.3 301.45 119.97C303.6 111.96 306.22 104.09 309.31 96.4C311.52 91.19 314.07 85.45 317.08 79.45C323.73 66.2 332 53.84 341.71 42.64C345.84 37.87 350.33 33.41 355.13 29.31C376.17 10.65 403.27 0.27 431.39 0.09L431.48 0.09C432.37 0 433.25 0 434.22 0C439.63 0 445.02 0.39 450.38 1.15C483.48 6.36 501.66 27.81 508.81 57.03C510.25 62.91 511.23 68.91 511.73 74.95C515.61 116.61 502.02 168.61 479.68 212.04L479.68 212.04Z" />
	<path id="Layer" class="shp5" d="M171.16 42.64C167.25 56.86 158.59 69.32 146.62 77.95C145.16 78.95 143.44 79.47 141.67 79.45C138.74 79.43 136 77.98 134.35 75.56C133.03 73.62 132.55 71.24 132.99 68.93C133.44 66.63 134.79 64.6 136.73 63.29C146.39 55.77 153.08 45.08 155.62 33.1C156 31.68 156.73 30.38 157.74 29.31C162.54 33.41 167.02 37.87 171.16 42.64Z" />
	<path id="Layer" class="shp5" d="M88.53 45.9C87.69 50.02 84.07 52.96 79.88 52.96C79.29 52.95 78.7 52.89 78.11 52.79C75.82 52.32 73.8 50.96 72.52 49.01C71.22 47.05 70.76 44.67 71.23 42.37C73.79 29.39 71.09 15.93 63.73 4.95C63.02 3.8 62.59 2.49 62.49 1.15C67.84 0.39 73.24 0 78.64 0C79.62 0 80.5 0 81.38 0.09L81.47 0.09C89.19 14.04 91.7 30.28 88.53 45.9L88.53 45.9Z" />
	<path id="Layer" class="shp5" d="M34.77 74.59C33.3 77.59 30.25 79.48 26.91 79.45C25.53 79.46 24.16 79.13 22.94 78.48C17.08 75.25 10.34 73.98 3.7 74.86C2.86 75.02 1.99 75.05 1.14 74.95C1.64 68.91 2.61 62.91 4.05 57.03C13.36 56.37 22.66 58.36 30.89 62.77C32.98 63.81 34.57 65.65 35.29 67.87C36.02 70.09 35.84 72.51 34.77 74.59Z" />
	<path id="Layer" class="shp5" d="M203.55 96.4C194.7 106.63 184.27 115.39 172.66 122.35C171.29 123.15 169.74 123.57 168.16 123.59C164.18 123.59 160.7 120.93 159.64 117.09C158.59 113.26 160.23 109.2 163.65 107.17C174.74 100.52 184.54 91.93 192.61 81.83C193.46 80.79 194.55 79.98 195.79 79.45C198.79 85.45 201.35 91.19 203.55 96.4Z" />
	<path id="Layer" class="shp5" d="M378.52 75.56C376.86 77.98 374.12 79.43 371.19 79.45C369.43 79.47 367.7 78.95 366.25 77.95C354.27 69.32 345.61 56.86 341.71 42.64C345.84 37.87 350.33 33.41 355.13 29.31C356.13 30.38 356.86 31.68 357.24 33.1C359.79 45.08 366.48 55.77 376.13 63.29C378.08 64.6 379.43 66.63 379.87 68.93C380.32 71.24 379.83 73.62 378.52 75.56Z" />
	<path id="Layer" class="shp5" d="M449.14 4.95C441.77 15.93 439.07 29.39 441.63 42.37C442.1 44.67 441.64 47.05 440.35 49.01C439.06 50.96 437.04 52.32 434.75 52.79C434.16 52.89 433.57 52.95 432.98 52.96C428.79 52.96 425.17 50.02 424.33 45.9C421.17 30.28 423.67 14.04 431.39 0.09L431.48 0.09C432.37 0 433.25 0 434.22 0C439.63 0 445.02 0.39 450.38 1.15C450.27 2.49 449.85 3.8 449.14 4.95L449.14 4.95Z" />
	<path id="Layer" class="shp5" d="M511.73 74.95C510.87 75.05 510.01 75.02 509.16 74.86C502.53 73.98 495.79 75.25 489.92 78.48C488.7 79.13 487.33 79.46 485.95 79.45C482.61 79.48 479.56 77.59 478.09 74.59C477.03 72.51 476.84 70.09 477.57 67.87C478.3 65.65 479.89 63.81 481.98 62.77C490.2 58.36 499.5 56.38 508.81 57.03C510.25 62.91 511.23 68.91 511.73 74.95Z" />
	<path id="Layer" class="shp5" d="M352.3 119.26C350.72 121.95 347.83 123.6 344.71 123.59C343.13 123.57 341.57 123.15 340.21 122.35C328.59 115.39 318.16 106.63 309.31 96.4C311.52 91.19 314.07 85.45 317.08 79.45C318.31 79.98 319.4 80.79 320.25 81.83C328.32 91.93 338.12 100.52 349.21 107.17C353.4 109.65 354.79 115.07 352.3 119.26L352.3 119.26Z" />
	<path id="Layer" class="shp6" d="M185.81 240.46L185.81 296.96C185.8 297.55 185.74 298.14 185.63 298.73C179.68 297.86 173.83 296.41 168.16 294.4L168.16 240.46C168.13 238.84 168.59 237.24 169.48 235.88C171.05 233.23 173.91 231.62 176.98 231.64C181.86 231.64 185.81 235.59 185.81 240.46Z" />
	<path id="Layer" class="shp6" d="M344.71 240.46L344.71 294.4C339.04 296.41 333.18 297.86 327.23 298.73C327.12 298.14 327.06 297.55 327.05 296.96L327.05 240.46C327.05 235.59 331 231.64 335.88 231.64C338.96 231.62 341.81 233.23 343.38 235.88C344.27 237.24 344.73 238.84 344.71 240.46Z" />
	<g id="Layer">
		<path id="Layer" class="shp0" d="M229.95 459.04C226.59 459.05 223.51 457.16 222 454.15L213.18 436.5C211.77 433.68 211.97 430.32 213.71 427.68C215.45 425.05 218.46 423.55 221.61 423.74C224.76 423.93 227.57 425.78 228.98 428.61L237.8 446.26C239.17 448.99 239.03 452.23 237.43 454.83C235.83 457.43 233 459.02 229.95 459.04Z" />
		<path id="Layer" class="shp0" d="M282.91 459.04C279.86 459.03 277.02 457.45 275.41 454.85C273.8 452.25 273.66 449 275.02 446.26L283.85 428.61C286.03 424.24 291.33 422.47 295.7 424.65C300.06 426.83 301.83 432.13 299.65 436.5L290.82 454.15C289.33 457.15 286.27 459.04 282.91 459.04L282.91 459.04Z" />
		<path id="Layer" class="shp0" d="M221.12 388.41C216.25 388.41 212.29 384.46 212.29 379.59L212.29 344.28C212.29 339.4 216.25 335.45 221.12 335.45C226 335.45 229.95 339.4 229.95 344.28L229.95 379.59C229.95 384.46 226 388.41 221.12 388.41L221.12 388.41Z" />
		<path id="Layer" class="shp0" d="M291.74 388.41C286.87 388.41 282.91 384.46 282.91 379.59L282.91 344.28C282.91 339.4 286.87 335.45 291.74 335.45C296.62 335.45 300.57 339.4 300.57 344.28L300.57 379.59C300.57 384.46 296.62 388.41 291.74 388.41L291.74 388.41Z" />
		<path id="Layer" class="shp0" d="M256.43 273.66C251.55 273.66 247.61 269.7 247.61 264.83L247.61 97.1C247.61 92.23 251.55 88.28 256.43 88.28C261.31 88.28 265.26 92.23 265.26 97.1L265.26 264.83C265.26 269.7 261.31 273.66 256.43 273.66Z" />
		<path id="Layer" class="shp0" d="M256.43 273.66C252.12 273.65 248.44 270.53 247.73 266.27C240.05 220.22 211.29 211.91 210.07 211.54C205.34 210.34 202.49 205.53 203.7 200.8C204.91 196.08 209.71 193.23 214.44 194.44C233.56 200.96 248.89 215.49 256.43 234.23C263.99 215.52 279.32 201.02 298.43 194.51C303.11 193.4 307.82 196.25 309.01 200.92C310.2 205.59 307.43 210.35 302.78 211.61C301.39 212 272.76 220.44 265.14 266.35C264.4 270.57 260.72 273.66 256.43 273.66L256.43 273.66Z" />
		<path id="Layer" class="shp0" d="M221.12 317.79C216.67 317.79 212.93 314.47 212.38 310.06C204.43 246.35 131.67 229.47 130.94 229.31C126.18 228.26 123.17 223.54 124.23 218.77C125.29 214.01 130.01 211.01 134.77 212.07C138.26 212.84 220.4 231.95 229.89 307.87C230.49 312.71 227.06 317.12 222.23 317.72C221.86 317.77 221.49 317.79 221.12 317.79Z" />
		<path id="Layer" class="shp0" d="M291.74 317.79C291.38 317.79 291 317.77 290.64 317.72C285.8 317.12 282.38 312.71 282.98 307.87C292.46 231.95 374.61 212.84 378.09 212.07C382.86 211 387.57 214 388.63 218.77C389.7 223.53 386.7 228.25 381.93 229.3C378.94 229.98 308.43 246.6 300.49 310.06C299.94 314.47 296.19 317.79 291.74 317.79L291.74 317.79Z" />
	</g>
	<path id="Layer" class="shp7" d="M168.16 256C168.16 260.88 164.2 264.83 159.33 264.83C154.45 264.83 150.5 260.88 150.5 256C150.5 251.13 154.45 247.17 159.33 247.17C164.2 247.17 168.16 251.13 168.16 256Z" />
	<path id="Layer" class="shp7" d="M362.36 256C362.36 260.88 358.41 264.83 353.54 264.83C348.66 264.83 344.71 260.88 344.71 256C344.71 251.13 348.66 247.17 353.54 247.17C358.41 247.17 362.36 251.13 362.36 256Z" />
</svg>