<svg id="Capa_1" enable-background="new 0 0 512.402 512.402" height="512" viewBox="0 0 512.402 512.402" width="512" xmlns="http://www.w3.org/2000/svg"><g><path d="m512.402 210.201h-87.902c-61.498 0-118.202 30-153.3 80.099v146.901h-30v-56.901c-35.098-50.099-91.802-80.099-153.3-80.099h-87.9c2.102-2.999 19.501-90 106.201-90 55.499 0 101.1 43.5 104.7 98.101 10.8 7.5 20.999 15.899 30.3 25.199v-138.3c0-41.4-33.6-75-75-75h-75v-15c0-41.4 33.6-75 75-75s75 33.6 75 75c0 5.099-.601 10.201-1.501 15 3.003 2.999 5.402 6.301 8.101 9.6 2.402-6.301 5.101-12.301 8.401-18.001 4.501-7.798 10.203-15.298 16.501-21.599-.901-4.799-1.501-9.901-1.501-15 0-41.4 33.6-75 75-75s75 33.6 75 75v15h-75c-41.4 0-75 33.6-75 75v78.3c9.302-9.3 19.501-17.699 30.3-25.199 4.2-55.501 49.497-98.101 104.7-98.101 87 0 103.798 86.4 106.2 90z" fill="#97de3d"/><g><path d="m512.402 210.201h-87.902c-61.498 0-118.202 30-153.3 80.099v146.901h-15v-325.401c4.501-7.798 10.203-15.298 16.501-21.599-.901-4.799-1.501-9.901-1.501-15 0-41.4 33.6-75 75-75s75 33.6 75 75v15h-75c-41.4 0-75 33.6-75 75v78.3c9.302-9.3 19.501-17.699 30.3-25.199 4.2-55.501 49.497-98.101 104.7-98.101 87.002 0 103.8 86.4 106.202 90z" fill="#59c36a"/></g><path d="m436.201 482.201c-40.459 0-59.561-12.729-81.68-27.48-22.852-15.249-48.779-32.52-98.32-32.52s-75.469 17.271-98.32 32.52c-22.119 14.751-41.221 27.48-81.68 27.48h-45v30h450v-30z" fill="#704c55"/><path d="m481.201 512.201v-30h-45c-40.459 0-59.561-12.729-81.68-27.48-22.852-15.249-48.779-32.52-98.32-32.52v90c5.31 0 234.826 0 225 0z" fill="#5a344b"/></g></svg>