<svg xmlns="http://www.w3.org/2000/svg" viewBox="0 0 176.36 386.2"><defs><style>.cls-1{fill:#55382c;}.cls-2{fill:#ffb379;}.cls-3{fill:#916a4d;}.cls-4{fill:#7a5037;}.cls-5{fill:#af8265;}.cls-6{fill:#754b31;}.cls-7{fill:#3f953a;}.cls-8{fill:#607742;}.cls-9{fill:#ff9754;}.cls-10{fill:#955d2c;}.cls-11{fill:#61bf48;}.cls-12{fill:#8ed846;}.cls-13{fill:#6c3815;}.cls-14{fill:#714d2e;}.cls-15{fill:#ffebd9;}.cls-16{fill:#7c4826;}</style></defs><g id="Layer_2" data-name="Layer 2"><g id="Layer_1-2" data-name="Layer 1"><path class="cls-1" d="M125.08,206.35c-2.69-11.9-9.55-21.92-11.92-33.53-2-9.58-2.75-19.52-4.09-29.21a159.17,159.17,0,0,1-1.25-27.9l-78.11,2c-1.73.23-6.56,38.34-7.12,41.15-2.38,12.06-5,24.08-8.27,36-1.84,6.73-5.6,13.26-8.27,19.88-1.8,4.45-8.08,19,1.26,15.74.9,4.87-1.95,9.59-3.64,14A48,48,0,0,0,.13,262.22c0,6.9-.75,14,1.24,20.65,1.43,4.76.63,14.77,4.28,18.49,4.1,4.18,9.06-3,11.58-2.34,3.52.88,1.29,6.19,1.41,8.23.26,4.38,3.2,7.88,5.46,11.52,4.66,7.49,1.93,21.1,10.21,25.27,5.82,2.94,13.2-19.25,21.8-14.78,6,3.13,8.25,10,12.23,14.91,1.77,2.22,4.11,5.46,6.84,4.13,3.73-1.82,2.8-6.14,3.86-8.83,1.47-3.73,2.24-3.07,6.52-3.63,4-.52,3-1.5,4.43-5.14,1.72-4.26,5.25-11.41,11.24-10.48,3.31.52,7,4.37,10.39,4,4.21-.48,4.28-20.75,4.94-24.67,1.25-7.51.27-16.34,8.43-19.6,1.63-.65,1.94.17,3.39-1.83,1.05-1.44,1.31-4.73,1.61-6.48C133.64,249.91,130,228,125.08,206.35Z"/><path class="cls-2" d="M101.07,166.84l3.34,11.89,11.65-12.64s-3.53-13.32-3.24-18.05a104.83,104.83,0,0,0-1.7-25.77l-13-3.41C98.8,134.87,100.29,150.86,101.07,166.84Z"/><path class="cls-2" d="M147.58,177.74l-13-4.92-21.47-12.14s-11.47,13.89-9.2,17.39,43.65,9.68,43.65,9.68Z"/><path class="cls-2" d="M47.08,145.49c.07-9.5.16-19,.46-28.49l-14.77,4.88L29,173s-1.06,8.7-1,11.62c.2,9.56,6.43,36.49,6.43,36.49l5.22-1.86L45,180.8l-.62-10.07C45.19,168.06,47.61,162.06,47.08,145.49Z"/><path class="cls-2" d="M37.39,228.48a13.05,13.05,0,0,0-1.76,6.21c-.27,4.68,1.93,8-.26,7.68-3.36-.5-7.09-10.21-5.62-18.41s4.07-16.17,7.43-15.67S41.67,219.75,37.39,228.48Z"/><path class="cls-3" d="M66.1,60.34a20.41,20.41,0,0,0-4.19-1c-1.49-.22-2.66-.4-3.25-1-3.58-3.67-3.92-7.25-4-11.92,0-.38,0-.88,0-1.45,0-6.73-.33-10.92-1.68-12.42a2.06,2.06,0,0,0-1.54-.76,1.71,1.71,0,0,0-1.24.52c-.75.75-1.14,2.31-.9,8.08v.16a12.67,12.67,0,0,1-2.19-2.51,14.56,14.56,0,0,1-1.65-4.86c-.43-2-.74-3.43-2.23-3.43-1.28,0-1.86,1.35-2.24,2.25-2.16,5.08,3.41,12.54,4,13.38l.1.11.07.07s1,1,2.43,4.77c.88,2.31.83,3.17.77,3.43h0a3,3,0,0,1-.74-.12l-1.28-.33c-2-.49-4.29-1.05-5.56-2.36a11.3,11.3,0,0,1-1.38-2c-.7-1.2-1.26-2.14-2.39-2.14-1.5,0-1.9,1.7-2.06,2.42-.84,3.64,3.49,6.78,6.07,8.66l.78.57c3.55,2.67,8.43,4.68,12.73,6.46l1.31.54a11.4,11.4,0,0,0,4.64.9,11.59,11.59,0,0,1,2.82.32c3.29.81,4.59,6.67,4.81,8.87L68.23,77l1.4-.18c.42,0,2.56-.53,3.52-4.7S70.55,62,66.1,60.34Z"/><path class="cls-3" d="M111.17,49.28c-.16-.72-.55-2.42-2.06-2.42-1.13,0-1.69.94-2.39,2.14a11.3,11.3,0,0,1-1.38,2c-1.27,1.31-3.55,1.87-5.56,2.36l-1.28.33a3,3,0,0,1-.74.12h0c-.06-.26-.11-1.12.77-3.43,1.41-3.73,2.39-4.73,2.38-4.73l.12-.1.1-.12c.64-.84,6.21-8.3,4-13.38-.38-.9-1-2.25-2.24-2.25-1.49,0-1.8,1.44-2.23,3.43A14.56,14.56,0,0,1,99,38.08a12.58,12.58,0,0,1-2.19,2.52v-.17c.24-5.77-.15-7.33-.9-8.08a1.71,1.71,0,0,0-1.24-.52,2,2,0,0,0-1.54.76c-1.35,1.5-1.64,5.69-1.68,12.43,0,.57,0,1.06,0,1.44-.1,4.67-.44,8.25-4,11.92-.59.6-1.76.78-3.25,1a20.41,20.41,0,0,0-4.19,1c-4.45,1.64-8,7.57-7,11.73s3.1,4.65,3.52,4.7l1.4.18L78,75.59c.22-2.19,1.51-8,4.81-8.86a11.59,11.59,0,0,1,2.82-.32,11.4,11.4,0,0,0,4.64-.9L91.59,65c4.3-1.78,9.18-3.79,12.73-6.46l.78-.57C107.68,56.06,112,52.92,111.17,49.28Z"/><path class="cls-4" d="M46.93,239.56S50.57,280.7,51,286s-5,65.65-4.54,70.9c-.67-7.75,4.46,23.8,15.9,1.75,2.27-4.38,7.73-59.28,8.52-62.8,1.71-7.55,12.16-50.44,12.61-54.38s-.23-16.3-2-32.06S76.6,197.11,75.17,196,41,229.5,46.93,239.56Z"/><path class="cls-4" d="M106.91,226.43c-.51,1.74-7.27,51.21-10,63s-6.25,47.16-12,62.59c-2,5.36-12.69,9.81-15.23,1.75-.05-.16,1.78-25.8,3.71-54.27.31-4.47,2.78-10.79,2.65-15.32-.68-24.4-1.15-55.63-1.36-59.52-.45-8.31,1.82-39,8.18-30.85S109.64,217.24,106.91,226.43Z"/><path class="cls-5" d="M114.18,267.35c-.34,3-25.56-19-28.62-28.23-1.58-4.71-3.53-22.21-5-31.93a48.07,48.07,0,0,0-1.16-6.14,34.61,34.61,0,0,1-.65-5.76c-.07-1-.14-2.09-.21-3.29,0,0,0,0,0,0,0-1-.11-2.1-.16-3.23C77.58,171.25,77,141.64,77,141.64c-.52-1.73.41-3.64,2.23-5.54,6.5-6.78,24.29-13.37,27.76-10.54,4.06,3.32-1.93,43.45-2.4,53.29a11.82,11.82,0,0,0,0,1.85c0,.27.12.88.25,1.77.26,2.12.7,5.83,1.26,10.58.14,1,.26,2.12.4,3.25C109.43,220.72,114.44,265.16,114.18,267.35Z"/><path class="cls-6" d="M79.2,147.81s4.93-1.49,1.23,56.32c-.55,8.65,1.44.6,1.44.6s3.29-12.58.62-58.41C81.76,133.93,79.2,142.42,79.2,147.81Z"/><path class="cls-5" d="M82.28,191.12v1.42c0,1.22,0,2.31,0,3.27s-.07,1.92-.11,2.61a56.63,56.63,0,0,1-1.57,8.77c-3.09,12.95-9.42,32.62-13.43,38.5C53.52,265.71,36.48,272,36.48,272c.34-13.79,6.4-49.59,8.63-63.46,1.07-6.59,2-11.62,2.7-15.69.16-.89.33-1.74.46-2.54.4-2.24.71-4.15,1-5.88.16-1.07.28-2.07.37-3a40.66,40.66,0,0,0,.17-5.92c-.34-7.88-7.83-46.61-7.83-46.61l37.33,7.26,1.52.29s1.29,32.85,1.47,51.39C82.27,189,82.28,190.07,82.28,191.12Z"/><path class="cls-7" d="M41.48,91.83c-5.41,2.87-16.65,3.32-19.62,9.37,1.5,0,3.06,0,4,1-2.6,1.7-7,4.13-8.48,6.65-1.88,3.29-3.41,5.74-3.58,9.19,6.48-2,11.78,2.44,16.1,6.65,4,3.89,3.5,8.07,4.16,13.25,1.72-2.34,4.79-1.93,5.47-3.74.5-1.31.6,6.5,1.87,5.5,1.88-1.48,1.33.72,2.73,3,1.39-.52,4.47-.21,5.85-1,1.24,1.14,4.58,4.28,6.12,4.65,2.19.54,4.71-1.24,7.64-.36,5.24,1.59,8.63,5.06,12.71,8.37,2.28-1.92,3.49-5.15,5.57-7.41a35.18,35.18,0,0,0,1.64,4.64c2.87-2.82,2.68-2.08,4.94-4.76s4.39-7.6,4.21-7.85c1.31,1.87,5.85,4.73,9.6,2.1-.69-2.29-1.68-4.17.18-6.7a25,25,0,0,1,3.08-3.6c1.89-1.74,1.23-1.24,3.12-.35,1.76-2.59,1.54-7,4.78-8.63A26.58,26.58,0,0,1,118.1,120a8.1,8.1,0,0,1,5.62.65c1.08-2.9-1.19-5.84-2-8.14,2.42.42,7.06-.68,8.94,1.19.12.13.12.13,0,0,0-3.6-2.1-7.29-4.78-9.81-3.36-3.16-8.4-4.71-12.14-7.56-4.23-3.22-8.38-7.31-14.07-7.75-7.62-.6-15-1.81-22.26,0-3.83,1-6,.2-10,0-5-.26-10.47,1.25-15.31.39-5-.88-11,.15-14.39-2.14A5.83,5.83,0,0,0,41.48,91.83Z"/><ellipse class="cls-8" cx="72.69" cy="102.47" rx="16.95" ry="16.85"/><path class="cls-2" d="M164.29,175.15c-1.94-3.29-7.94-2.81-12-2.09-7.74,1.38-13,6-11.78,10.34s8.51,6.71,16.25,5.33c5.88-1,8.59-5.4,8.12-11.53A4.54,4.54,0,0,0,164.29,175.15Z"/><path class="cls-9" d="M80.27,105.53s-2,2.63-6.64,2.63a9.77,9.77,0,0,1-7-2.63l-.17-13.45H80.1Z"/><path class="cls-10" d="M175.81,50.51a2.34,2.34,0,0,0-1.46.18c-.78.31-2.08,2.27-2.91,2.16-2.8-.36-2.63-4.72-1.88-6.4.46-1,2.53-2.16,2.77-3.26.18-.85.27-2.62-1-1.16-2.28,2.58-5.37,4.93-4.64,8.64.51,2.53,1.22,5,1.53,7.59s-.07,5.29.18,7.67c.17,1.63,1.27,3.49-.57,4.7-2.38,1.58-4.37,3-5.34,5.69-.44,1.22.11,4.38-1.13,5.8-2.41,2.74-8.64-.38-9.43-3-.7-2.26,1-9.59,2-11.55s4-4.61,5-6.56,1.13-4.39.47-5.49c-.84-1.41-.82-2.86-1.5-4.36s-4.73-3.22-4.94-5.09c-.37-3.33,1.27-6.19,1.71-9.51.34-2.63,4.35-4.62,5.39-6.24.75-1.18-.79-3.8-.79-2,0,1.31-.91,3.31-3.07,2.19-2.74-1.43-1.29-7.51-.91-9.63.47-2.64-.51-5.19,1.25-7.17C158.49,11.5,157.6,7.47,160,6c1-.65,2.84-.31,3.75-1.2.71-.71.92-2.22,1.7-2.85,1.41-1.12,2.37-3,.1-1.13-.94.77-1.3,2-2.29,2.78-1.17.9-2.52.51-3.75,1.15-2.7,1.4-1.67,5.5-4.17,7.09-1.14.72-.43,1.42-1.36.53s-1.15-2.9-2.27-3.47c-2.86-1.45.29.76.28,3.22.82,2.53.61,2.37,1.08,3.67.72,2-.05,3.9-.11,6-.1,3.43-1,7.31-1,10.75a13.43,13.43,0,0,1-.33,4c-.41,1.19-1.59,8.74-3.49,7.19-2.45-2-3.08-5-4.71-7.45-.73-2-1.43-4.11-2.33-6.08-.25-.56-.64-1.92-1.22-2.27s-1.09-.35-1.3,0c-.39,1.21,1.37,4.58-.61,4.5a2.82,2.82,0,0,1-1.62-.83c-.53-.43-1-.84-1.56-1.23l-.14-.05a15.09,15.09,0,0,1-2.07-.87c-3-1.74.48-3.51-2.24-9.59-.34-.75.14-5.35-1.19-4.67-.59.3-.16,5.29.13,5.94a5.74,5.74,0,0,1,.57,3c-.2,1.66-1,3.78-.36,5.37,1.48,3.77,8.38,5,11.07,8.2l.09.09c1.59,2,2.05,3.94,2.81,6.29,1,3.25,3.56,4.31,5.7,6.52,4.23,1.93,7.61,5.19,4.09,10.83-1.56,2.51-3.76,4.07-3.92,7.22-.11,2.23-1.49,4.53-2.54,6.52-3.33,6.3,1.48,7.26,4.25,12.69,1.27,2.5,3.44,5.73,1.72,8.57-2.66-1.27-4.56-.46-6.63-2.66-2.54-2.7-2.82-6.33-3.15-9.79a28.31,28.31,0,0,0-.8-5.27c-.3-1-1.74-2.47-2.76-1.49-1.3,1.26.88,3.73-.34,4.85-1.72,1.58-2.47-3.73-2.67-4.46-.36-1.35-.58-3.31-1.3-4.5-.52-.85-1.28-1.26-1.45-2.33-.26-1.52,1.27-2.5,1.42-3.91s-1.29-2.84-2-4c-1.84-2.92-3.53-6.11-6.63-8-2,1,1.91,4.67,2.62,5.86s2.94,3.63,2.86,5.24a2.34,2.34,0,0,1-2.09,2.33,2.51,2.51,0,0,0,.83,3c1.5,1.12,2.32,4,2.8,5.88.22.35.42.71.64,1.08.42.7,1.12,1.37.88,2.25-.36,1.25-2.11,1.49-2.24,2.77-.27,2.67,5.36,4.28,6.56,6.33s1,4.36,2,6.38c.91,1.83,3.76,3.21,5.24,4.6.78.73,2.2,1.78,2.53,2.83.59,1.86-.44,3.69.08,5.61s2.53,3.27,2,5.7-4.07,11.31-3.69,15.47S152,145.39,152.78,150s3,20,1.62,23-13.51,30-13.56,32.59,6.34,13.24,7.21,15.45a52.31,52.31,0,0,1,2.92,14c.35,5.92,3.78,29.18,2.33,33.53s-.58,19.47-3.38,22.92-3.76,7.16-4.56,13.27-4.67,67.54-4.06,71.49-1.48,6.32,4.18,7.08c5,.67,12.79-3.28,13.74-5.46s-3.39-13.19-3.77-17.57-.47-47.28,0-49.89,3.88-13.07,3.94-16.13,1.59-12.23,3-15.27.86-21.87-2.9-39.88-8.15-28.31-7.18-31.8,2-14.45,3-16.63,7.9-16.19,8-19.25-1.32-13.26-1.72-16.33-4.06-16-4.42-19.45c-1.27-12.48,2.63-11.39,3.41-16.74.66-4.58-3.67-9-1.14-12.91,1.09-1.67,1.94-5.36.91-9.19-.45-1.42-.34-8.42,3.07-10.5,2.48-1.51,3.42-3.8,2.71-6.29-.9-3.17,2.62-6.26,4.23-8.51,2.23-3.13.39-6.1.56-9.49-.31-1.15.29-3.14.22-4.27-.17-3.15,2.23-4,4.37-5.5C176.66,51.48,176.54,50.72,175.81,50.51Z"/><path class="cls-11" d="M28.42,105.43s-1.48,4-7.72,6.2-12,.32-13.48-.08,2-.51,3.53-2,6.26-4.91,9.49-5.35,6.63-.6,6.63-.6Z"/><path class="cls-11" d="M48.14,107s-1,2.66-4.86,4.17a13,13,0,0,1-8.29.17c-.93-.24,1.24-.37,2.2-1.38s3.94-3.31,5.93-3.65,4.09-.5,4.09-.5Z"/><path class="cls-11" d="M96.67,93a6.24,6.24,0,0,1,4.79-.5,9.88,9.88,0,0,1,5.23,3.43c.48.54-.92-.3-2-.09a11.2,11.2,0,0,1-5.24-.29c-1.39-.63-2.76-1.43-2.76-1.43Z"/><path class="cls-11" d="M72.3,130.88s2.37,4.61-.3,11.32-8.4,9.6-9.85,10.44,1-2,.83-4.48.36-9.08,2.32-12,4.3-5.68,4.3-5.68Z"/><path class="cls-11" d="M97.64,118.22s4.35.1,8.36,4.49a16.43,16.43,0,0,1,4.1,10.79c.08,1.33-1.11-1.46-3-2.27s-6.67-3.68-8.1-6.14S96.34,120,96.34,120Z"/><path class="cls-11" d="M107.26,102.94s3.26-2.77,9.31-2.16a17.58,17.58,0,0,1,10.6,5.25c1,.92-1.84-.34-3.83.32s-7.49,1.65-10.27.77-5.55-2.05-5.55-2.05Z"/><path class="cls-12" d="M40.71,121.83s-3.34,5.32-6.33,7.1-10.26-1.17-11.75-.49,1.6-1.37,2.42-3.11,2.73-4.75,4.62-5.24,7.91-.76,8.89-.31A7.9,7.9,0,0,1,40.71,121.83Z"/><path class="cls-12" d="M97.46,103s3.77-.13,5.63.71,2.67,5.21,3.5,5.7-1.21-.32-2.35-.15-3.29.23-4.14-.5a15.63,15.63,0,0,1-3-4.1A4.38,4.38,0,0,1,97.46,103Z"/><path class="cls-12" d="M61.62,123.42s.41,5-.68,7.55-7.32,3.89-8,5,.38-1.63.07-3.14-.53-4.37.46-5.56,4.83-4.1,5.7-4.24A6.73,6.73,0,0,1,61.62,123.42Z"/><path class="cls-12" d="M83.76,125.86S87.62,128,88.93,130s-.72,6.84-.21,7.82-1-1-2.26-1.57-3.44-1.76-3.82-3-.64-5.25-.33-5.91A5.51,5.51,0,0,1,83.76,125.86Z"/><path class="cls-12" d="M46.88,95.22A11.24,11.24,0,0,1,44.6,98.5c-1.17.89-4.37,0-5,.36s.6-.65.85-1.42.91-2.12,1.67-2.42a12.16,12.16,0,0,1,3.71-.56A3.46,3.46,0,0,1,46.88,95.22Z"/><path class="cls-13" d="M106.77,196.21a98.9,98.9,0,0,1-24.19-.35,1.92,1.92,0,0,1-.32-.05c-1.17-.16-2.35-.34-3.49-.52-3-.52-5.82-1.13-8.54-1.83h0c-2.73-.71-5.32-1.5-7.73-2.38h0c-5.4-1.93-10.25-4.14-13.56-6.61.17-1.06.35-2.58.43-3.52,4.85,3.5,12.41,7.06,21.13,9.28h0q3.87,1,8.07,1.73l.1,0c1.2.21,2.4.39,3.62.56l.3,0a98.27,98.27,0,0,0,23.85.26C106.57,193.88,106.63,195.08,106.77,196.21Z"/><path class="cls-13" d="M105.15,182.59a98.9,98.9,0,0,1-20.89,8l-2,.52c-1.21.31-2.42.59-3.62.86l-.1,0q-4.28.93-8.33,1.46h0c-8.91,1.18-17.14,1.12-22.75-.45.17-.9.55-2.24.69-3a54.49,54.49,0,0,0,14.32,1.11h0c2.55-.15,5.22-.43,8-.85h0q3.86-.57,7.91-1.5c1.28-.28,2.56-.61,3.86-.95l.62-.18a95.11,95.11,0,0,0,21.75-8.75,6.93,6.93,0,0,0,.35,1.93C105,181.06,105,181.69,105.15,182.59Z"/><polygon class="cls-6" points="92.32 159.56 73.63 161.98 73.11 158.3 91.8 155.87 92.32 159.56"/><polygon class="cls-6" points="92.55 172.91 73.86 175.33 73.34 171.64 92.03 169.22 92.55 172.91"/><path class="cls-5" d="M58.33,321.62C54,322.07,50,319.76,48,318s-.48,12.25-1.45,21.88,0,23.52-4.85,26.59-15,10.39-18.44,12.58-1.58,11.38,15.89,4.81,24-9.95,25.94-14.77,7.33-50.87,4.43-50.87C66.94,318.23,67.32,320.69,58.33,321.62Z"/><path class="cls-5" d="M82.12,321.14a14.24,14.24,0,0,0,10.14-2.73c2-1.58-.23,7.2-3.64,23.78-2,9.49-6.06,19.83-1,22.18s17,9,20.61,10.72S107.89,384,90.33,380s-20.65-5.65-23.28-10.14,1.74-52.4,4.41-52.79C73.29,316.75,75.18,320.16,82.12,321.14Z"/><ellipse class="cls-2" cx="72.95" cy="77.34" rx="14.2" ry="21.3"/><path class="cls-14" d="M71.93,54.66s5.22-3.28,8.63-1.31S94.42,69.21,93.74,86.5s.9,25.27.9,25.27l-5.45,6.57-6.36,1.75s1.14-37.86.23-43.77-10-13.13-11.82-15.1S71.93,54.66,71.93,54.66Z"/><path class="cls-14" d="M76,61.88s-7.49,5.58-9.88,12.47c-2.45,7.09-4.66,26.92-4.43,33.92a48.8,48.8,0,0,1-1.59,13.35L54.43,117l-5-8.75.46-9.85s1.88-21.52,5.34-30.3c3.75-9.52,11-16.41,14.65-15.43C74,53.78,79.2,55.75,76,61.88Z"/><path class="cls-2" d="M164.44,181.59c.59-2.14,1.25-7.15-.87-7.87-1.54-.52-3.68,1.59-4.65,3.05-1.55,2.32-2.47,5-1.31,7.92,1.26,3.14,3.25,3.55,5,1A13.8,13.8,0,0,0,164.44,181.59Z"/><path class="cls-2" d="M157.87,175.83c2.44-3.5-4.42-3.8-6.48-3.05-4,1.46-7.81,4.91-5.85,6.28.61.43,6.71-.91,7.56-1C155,177.89,156.75,177.44,157.87,175.83Z"/><path class="cls-2" d="M41.07,211.07c1.55.85,3.58,9,3.65,10.33.11,2.32-4.09,18.26-5.66,15.25-.93-1.81.41-7.8-.68-9.08C35.94,224.71,35.87,208.23,41.07,211.07Z"/><path class="cls-15" d="M78.26,195c-.25.81-.67,1.73-1,2.63-.28.7-.61,1.42-1,2.17-.07.14-.14.3-.23.45a67.23,67.23,0,0,1-4.56,7.52,24.55,24.55,0,0,1-4,4.45,22.87,22.87,0,0,1-2.68,2c-7.31,4.8-16.13,5-21.17,3.37-6.35-2.09-12.51-9.77-8-8.77,3.32.75,12.12,3,18.9-5,.48-.56.92-1.1,1.31-1.63a29.05,29.05,0,0,0,1.76-2.49A22.72,22.72,0,0,0,59.14,197c.13-.28.26-.55.37-.82v0a17,17,0,0,0,.93-2.66,19.67,19.67,0,0,0,.45-6.26,9.7,9.7,0,0,1,0-1.44c.27-2.55,4.58-2.33,8.78-1.3,3.6.88,7.13,2.36,8,3.22C79,189.06,79.33,191.47,78.26,195Z"/><path class="cls-16" d="M78.31,195.1a27.22,27.22,0,0,1-.94,2.56c-.28.7-.63,1.35-1,2.1-.07.14-.29.59-.38.74a18.39,18.39,0,0,1-7.86,1.87,18,18,0,0,1-10.51-2.62A22.72,22.72,0,0,0,59.14,197a18.18,18.18,0,0,0,8,1.69c.27,0,.54,0,.82,0a19,19,0,0,0,5.91-1.21A16.3,16.3,0,0,0,78.31,195.1Z"/><path class="cls-16" d="M77.22,197.65c-.28.7-.61,1.42-1,2.17a13.88,13.88,0,0,1-9.11-1.1,18,18,0,0,1-5.75-4.13c-.33-.34-.76-.74-1-1.09a41.79,41.79,0,0,0,.55-6.24,17.27,17.27,0,0,0,3.3,4.87,17.53,17.53,0,0,0,9.68,5.37A13.25,13.25,0,0,0,77.22,197.65Z"/><path class="cls-16" d="M67.53,212.31a22.19,22.19,0,0,1-2.64,2.09,17.67,17.67,0,0,1-5.61-5,21,21,0,0,1-3.52-7.3l3.76-6.1a21.75,21.75,0,0,0,.61,5,19.6,19.6,0,0,0,6.81,10.84C67.11,212,67.35,212.19,67.53,212.31Z"/></g></g></svg>