<svg xmlns="http://www.w3.org/2000/svg" viewBox="0 0 208.72 368.15"><defs><style>.cls-1{fill:#1f3142;}.cls-2{fill:#354e65;}.cls-3{fill:#365a73;}.cls-4{fill:#bac7d1;}.cls-5{fill:#626e73;}.cls-6{fill:#3c586a;}.cls-7{fill:#5b809c;}.cls-8{fill:#4b6980;}.cls-9{fill:#517f92;}.cls-10{fill:#476f81;}.cls-11{fill:#4f7087;}.cls-12{fill:#ffc18c;}.cls-13{fill:#3a4b5a;}.cls-14{fill:#4b6b81;}.cls-15{fill:#557591;}.cls-16{fill:#3f6984;}.cls-17{fill:#354e5f;}.cls-18{fill:#48637e;}.cls-19{fill:#3a5165;}.cls-20{fill:#2e4252;}.cls-21{fill:#31485c;}.cls-22{fill:#3d5774;}.cls-23{fill:#354b6a;}.cls-24{fill:#4c688a;}.cls-25{fill:#5b789e;}.cls-26{fill:#46617c;}</style></defs><g id="Layer_2" data-name="Layer 2"><g id="Layer_1-2" data-name="Layer 1"><path class="cls-1" d="M69.62,66.92s-10.84,4-13.83,14S41.79,133,39.53,196.23c-3,83.72-20.18,98.17-21.67,109.39-2.17,16.25,119.66,23.42,133.61,4s8.47-110.13,5.48-135.54-9.2-105.9-14.07-107.52S73,64.42,69.62,66.92Z"/><path class="cls-2" d="M69.26,206.52c-2.27,1.45-4-5-4.22-6.16-.31-1.31-.94-8.23,1.29-7.56,1.07.32,2.65,5.83,3,6.93C70,201.53,71.39,205.16,69.26,206.52Z"/><path class="cls-2" d="M206.05,126.55c-.2-3.17-7.45-2.19-11.19-1.41-7.17,1.49-12,6.06-10.73,10.21s8.05,6.31,15.21,4.82c5.44-1.14,7.87-5.39,7.31-11.29C206.57,128.1,206.09,127.17,206.05,126.55Z"/><path class="cls-3" d="M139.51,150.64s2,32.39-6,86.71c-6.4,43.61-9.47,65.28-9.47,65.28H107.12s4.48-89.7,4.48-107.14,6.48-41.86,6.48-41.86Z"/><path class="cls-4" d="M55.84,191.26S34.93,170.05,22,164.2s-22-1-22-1l51.24,34Z"/><path class="cls-5" d="M51.7,196.56l3.68-4.71,21.41,16.71a2.06,2.06,0,0,1,.67,2.79L76,213.24a2.06,2.06,0,0,1-2.87,0Z"/><path class="cls-5" d="M47.36,201.55a1.06,1.06,0,0,1-.29-1.48l10.58-13.56a1.07,1.07,0,0,1,1.51-.09l1,.75a1.06,1.06,0,0,1,.29,1.48L49.82,202.21a1.07,1.07,0,0,1-1.51.09Z"/><path class="cls-6" d="M187,137.81c-.94,0-40.34,1.17-43.1-4.37-3-5.9-4.13-15.36-4.59-23.14-.08-1.39-.14-2.73-.18-4-.17-5.31,0-9.12,0-9.12v-.48c0-.75,0-2.32,0-4.38.11-8.3.69-24.4,3.74-25.79,4.11-1.87,8.78,6,8.78,6A68,68,0,0,1,155,87.44c0,.26,0,.53.07.78.11,1.14.15,2.62.17,4.32,0,.76,0,1.57,0,2.41,0,2.14,0,4.47.06,6.83.12,6.23.52,12.63,2.12,15.85.77,1.51,21.81,6.84,21.81,6.84s11.71,2.5,11.22,3.25C183.77,137.67,186.85,137.81,187,137.81Z"/><path class="cls-7" d="M155.2,95c0,2.14,0,4.47.06,6.83a32.46,32.46,0,0,1-3.35,2.86,30.29,30.29,0,0,1-12.57,5.66c-.08-1.39-.14-2.73-.18-4a31.68,31.68,0,0,0,9.51-4.92A32.46,32.46,0,0,0,155.2,95Z"/><path class="cls-7" d="M155,88.22c.11,1.14.15,2.62.17,4.32a31.53,31.53,0,0,1-10.26,3.63,34.29,34.29,0,0,1-5.79.54c0-.75,0-2.32,0-4.38a32.91,32.91,0,0,0,4.35-.49A31,31,0,0,0,155,87.44C155,87.7,155,88,155,88.22Z"/><path class="cls-8" d="M86.06,145s-3.86,61.42-4.85,84.34-1,72.26-1,72.26,16.44,3,16,.5S111.6,209.44,115.09,197s7.48-28.9,3-43.35S86.06,145,86.06,145Z"/><path class="cls-9" d="M74.66,69.16l16.7-23.67,25.16-1.25,24.67,21.18a217.5,217.5,0,0,1,2.24,27.29c.38,20.55-2.79,58.28-4.73,62.41-3.74,8-54.81,8.72-54.07-1,4.11-53.82-5.48-45-7-59.92S74.66,69.16,74.66,69.16Z"/><path class="cls-10" d="M143.43,92.71a217.5,217.5,0,0,0-2.24-27.29L116.52,44.24l-13.2.66.06.14c5.11,11.37,10.67,22.86,12.43,35.24,2.13,14.85,4.14,29.53,3.48,44.55a287.22,287.22,0,0,1-3.84,36.31c11.25-.5,21.64-2.59,23.25-6C140.64,151,143.81,113.26,143.43,92.71Z"/><path class="cls-11" d="M132.91,73.15c7,.71,29.74-7.71,26.47-9.7s-16.54-9.22-25.11-6.73-15.31,6.73-14.9,8.72S129.13,72.76,132.91,73.15Z"/><path class="cls-12" d="M124.06,31.78c0,14-5.76,22.43-17.94,22.43S88.93,45.82,88.93,31.78s6-24.66,18.19-24.66S124.06,17.75,124.06,31.78Z"/><path class="cls-13" d="M87.06,294.65C82.58,294.9,82,293,80,291s-.12,10.21-.84,26.1c-.5,11-.44,23.11-5.42,26.6s-16.88,13.67-20.37,16.16-3.92,13.18,14,5.7,23.54-9.72,25.54-15.2,5.45-59.53,5.17-59.17C95.78,294,94.59,294.24,87.06,294.65Z"/><path class="cls-13" d="M116.47,294.28a12.37,12.37,0,0,0,9.59-4c2-2-.57,8.41-3.06,28.84-1.33,10.93-1.82,21.16,3.43,24.23,5.42,3.18,18.62,9.66,22.61,11.22s1.45,8.46-17.78,5.62-22.86-4.24-26-9.17c-2.59-4.12,1.58-59.46,1.89-59.18C108.8,293.22,108.94,293.86,116.47,294.28Z"/><path class="cls-1" d="M88.31,30.66s12.7,6,18.31,5.61,14.2-4.49,18.69-6.73-.75,23.73-5.23,27.85-9.47,26.66-23.92,4.48C81.4,39.23,86.81,27.67,88.31,30.66Z"/><path class="cls-2" d="M67.44,200c0,6.33-2.24,11.71-4.49,10.22-3.53-2.36-7.31-2.95-6.47-9.22,1-7.48,4.51-14.45,7.47-14.45S67.44,193.64,67.44,200Z"/><path class="cls-4" d="M195.39,144.53s-3.87,29.53-.5,43.36,12.7,17.94,12.7,17.94l-4.73-61.3Z"/><path class="cls-5" d="M202.11,144.53h-6V117.37a2.06,2.06,0,0,1,1.8-2.24h2.39a2.05,2.05,0,0,1,1.79,2.24Z"/><path class="cls-5" d="M208.72,144.89a1.08,1.08,0,0,1-1,1.14h-17.2a1.08,1.08,0,0,1-1-1.14v-1.22a1.07,1.07,0,0,1,1-1.13h17.2a1.08,1.08,0,0,1,1,1.13Z"/><path class="cls-14" d="M82,97.19s-.45,6.07-1.3,14.89c-.15,1.73-.34,3.59-.52,5.52-.32,2.93-.65,6-1,9.27-.23,2.12-.49,4.27-.76,6.45-.18,1.41-.36,2.83-.54,4.23-2.6,20.19-6,44.48-9.64,58.06C66.76,201,60,195.37,59.71,191c-1.49-25.53-1.31-58.3-1.31-58.3s0-3.94.12-9.68c.06-2.58.13-5.56.25-8.7,0-.37,0-.74,0-1.12.06-1.72.14-3.48.21-5.28.47-10.3,1.3-21.09,2.77-26.43C63,77,69.61,66.92,69.61,66.92s4.49-2.25,8.61-.38S82,97.19,82,97.19Z"/><path class="cls-7" d="M79.13,126.87c-.23,2.12-.49,4.27-.76,6.45C70,131.72,62.9,128,58.52,123c.06-2.58.13-5.56.25-8.7,0-.37,0-.74,0-1.12.32.57.66,1.14,1,1.69C63.62,120.44,70.58,124.79,79.13,126.87Z"/><path class="cls-7" d="M80.66,112.08c-.15,1.73-.34,3.59-.52,5.52-8,.85-15.15-.15-20.31-2.71-.35-.18-.71-.37-1.06-.57,0-.37,0-.74,0-1.12.06-1.72.14-3.48.21-5.28C64,111.35,71.81,112.87,80.66,112.08Z"/><path class="cls-15" d="M104.58,253.11c-.17,1.73-.39,3.59-.59,5.51-8.91.86-17-.15-22.75-2.7-.4-.18-.8-.38-1.19-.57,0-.37,0-.75,0-1.12.07-1.72.16-3.48.24-5.28C85.9,252.38,94.66,253.9,104.58,253.11Z"/><path class="cls-15" d="M102.9,263.64a21.1,21.1,0,0,0-1.33,6.41c-9.74-2.49-15.72-5.82-21-10.37-.37-.32-.73-.65-1.08-1,.13-.35.27-.7.41-1.05.63-1.59-.57-4.6.11-6.26C84.79,256.68,92.11,260.72,102.9,263.64Z"/><path class="cls-16" d="M109,248.45c-.22,1.72.23,3.79,0,5.71,7.59,2.52,14.18,2.85,19.76,1.44.39-.1,1.35,0,1.73-.13.08-.36.59-.94.65-1.31.31-1.69.82-3.65,1.12-5.42C126.63,251,117.44,251.09,109,248.45Z"/><path class="cls-16" d="M108.6,258.46a29.87,29.87,0,0,1,.3,7.53A36,36,0,0,0,130,260.08c.38-.25.77-.51,1.14-.78-.06-.43-.14-.85-.22-1.28-.36-2,1.22-4.51.83-6.56C126.47,256,119.07,258.35,108.6,258.46Z"/><path class="cls-17" d="M79.52,58C77.17,56.44,63,68,61.2,69.28,50,77.38,50,100.74,46.07,126.53c2-12.46,14.78-20,24.57-22.69s28.28-8,28.08-17.49C98.34,68.16,90.46,65,79.52,58Z"/><path class="cls-17" d="M94.1,80.62s12.25-.42,26.91-7.54c8.72-4.23,7.29-16.25,7.29-16.25l5.23-.94s.87,17.26-11.59,22.24S94.85,88.84,94.85,88.84Z"/><circle class="cls-18" cx="91.61" cy="84.86" r="4.98"/><path class="cls-19" d="M140,150.51c-5,3.81-13.91,6.23-27.23,6.23s-23-2.79-27.9-6.6c-1.69,1.3-.47,5.47-.94,7.47-.74,3.24,8.23,8.23,28.66,8.72,17.85.44,27.66-5,27.66-7C140.2,157.79,141.19,152.5,140,150.51Z"/><path class="cls-2" d="M206.31,133.2c.51-2.07,1-7.09-1-7.75-1.44-.48-3.33,1.75-4.22,3.18-1.4,2.25-2.22,4.86-1.1,7.65,1.22,3,3.07,3.39,4.67.94A13.46,13.46,0,0,0,206.31,133.2Z"/><path class="cls-19" d="M133,56.84s5,28.39-14.07,58.85c-15,24-34.32,28.47-34.32,28.47l.5,10s17.09-7.42,26.16-16.94C134.09,113.26,138.2,91.46,140.2,70S133,56.84,133,56.84Z"/><path class="cls-20" d="M128.11,55.7s4.3,31.77-11,70.08C104.89,156.28,84,165.71,84,165.71l-.62,2.87c-2.07.36,7.64-.66,20.43-15.51,26.53-30.84,27.05-69.13,27.84-90.64S128.11,55.7,128.11,55.7Z"/><path class="cls-21" d="M114.4,171.89c-17,7.75-33.1,8.37-36.06,1.38-.08-.2-.15-.41-.22-.62a6.9,6.9,0,0,0,.22,4.36c3,7,19.1,6.37,36.06-1.38,16.47-7.53,27.65-19,25.57-26.08C138.29,156.49,128.2,165.58,114.4,171.89Z"/><path class="cls-20" d="M130.4,153.17l-20.35,1a1.76,1.76,0,0,0-1.82,1.52l.07,12.41c0,.75.79,1.29,1.76,1.22l19.79-1.47a1.74,1.74,0,0,0,1.69-1.42l.47-12A1.38,1.38,0,0,0,130.4,153.17Zm-1.17,11a1.42,1.42,0,0,1-1.43,1.1l-15.56,1c-.83.06-1.49-.36-1.49-.94l.08-7c0-.61.69-1.14,1.53-1.18l15.79-.81c.78,0,1.38.41,1.35,1Z"/><rect class="cls-20" x="120.9" y="159.29" width="12.67" height="2.08" transform="translate(-9.35 7.89) rotate(-3.43)"/><path class="cls-22" d="M80,168.93c-1.49,3.74-6.07,13.95-4,15.39a56.2,56.2,0,0,1,6.42,4.84c1.82,1.7,3.72,5,5.85,5.54,1.12-4,7.71-14.63,7.61-19-3.55-3-7.12-6.71-11-9.06C82.29,165.09,81.41,165.41,80,168.93Z"/><path class="cls-23" d="M92.23,181.15c-.5,2.4-4.14,11-4,13.47,1,.22,2-.77,2.88-1.22.74-.35,1.84-.48,2.45-1.08,1.65-1.66,5.15-11.52,5.64-14,.18-.93.86-2.75.27-3.55-.46-.63-2.35-.59-3-.6-1.55,0-2.1.31-2.84,2.27A31.34,31.34,0,0,0,92.23,181.15Z"/><path class="cls-24" d="M86.9,164.6c1,.15,2.34,1.49,3.25,2.08a32.53,32.53,0,0,1,3.2,2.47A48.45,48.45,0,0,1,98,173.37c1.13,1.25,2.44,1.71,1.47,1.88s-1.38.4-2.12.48c-.59.07-.95-.23-1.51-.21a6.83,6.83,0,0,1-1.55.06c-1.28-.54-2.31-2-3.41-3a37.65,37.65,0,0,0-4.5-3.28c-.92-.58-4.11-1.85-4.58-3.15-.34-.94.65-1,1.52-.65.7.27,1-.08,1.44-.21C85.52,165.15,86.13,164.49,86.9,164.6Z"/><path class="cls-25" d="M85.75,168.4c-1-.56-1.72-1.7-2.63-2.42a2.56,2.56,0,0,0-2.79,0,7,7,0,0,0-2.5,2c-1.18,1.42-1.42,3.27-2.41,4.75-.63.93-.85,1-.06,1.84a22,22,0,0,0,2.06,1.81l4.49,3.84c1.18,1,3,2.79,4.71,2.61S90,179.57,91,178.17c.83-1.21,3.35-1.88,2.86-3.74-.38-1.4-2.47-2.78-3.63-3.5C88.78,170,87.27,169.25,85.75,168.4Z"/><path class="cls-2" d="M59.09,193.49S55.75,149.05,57,147.77c1.62-1.62,5.42,6.29,10.46,5.73,7.45-.83,8.66,3.37,8.66,3.37L68.44,198l-4,2.93Z"/><path class="cls-2" d="M188.66,138.93s-37-.38-40.74-2.87c-2.93-1.95,6.43-3.95,6.24-10.34-.27-9.44,4.85-9.34,4.85-9.34L191.52,127l.13,4.41Z"/><path class="cls-2" d="M201,126c2.22-3.42-3.59-1.89-5.5-1.13-3.73,1.46-7.19,4.84-5.35,6.14.58.4,4.73-1.36,5.52-1.45A9.15,9.15,0,0,0,201,126Z"/><path class="cls-26" d="M93.84,5.34A37.18,37.18,0,0,0,85,20.07C84.33,22.16,78.24,40.5,75.72,55,75.1,58.51,91.1,70.15,99.33,71.78c8.51,1.68,11.21,0,10.28-2.25-1.72-4.14-14.75-5.53-15.26-24-.25-9,.12-19.93,12.83-20.43S120.76,40.75,119.47,49c-2.14,13.7-9.25,17.44-11.35,19.43s-1.5,3.74,4.11,3.18C122.79,70.53,134.2,60.94,135,55s-5.73-33.63-12-42.61C119,6.6,112-.53,104.27,0,100.38.31,96.84,2.4,93.84,5.34Z"/></g></g></svg>