<svg xmlns="http://www.w3.org/2000/svg" viewBox="0 0 181.38 370.19"><defs><style>.cls-1{fill:#4f3529;}.cls-2{fill:#debaaf;}.cls-3{fill:#e9cbbd;}.cls-4{fill:#d46b3b;}.cls-5{fill:#f3ded5;}.cls-6{fill:#d6b7a9;}.cls-7{fill:#3ababa;}.cls-8{fill:#d6c6ce;}.cls-9{fill:#3f667b;}.cls-10{fill:#2f788b;}.cls-11{fill:#8c552d;}.cls-12{fill:#ebccb7;}.cls-13{fill:#7e4232;}.cls-14{fill:#965a46;}.cls-15{fill:#30ada7;}.cls-16{fill:#45cebe;}.cls-17{fill:#faeae3;}.cls-18{fill:#c75420;}.cls-19{fill:#8c8286;}.cls-20{fill:#e8c2b7;}.cls-21{fill:#e0bda5;}</style></defs><g id="Layer_2" data-name="Layer 2"><g id="Layer_1-2" data-name="Layer 1"><polygon class="cls-1" points="40.93 48.42 38.76 68.75 39.2 99.04 59.1 104.23 71.64 97.74 72.89 88.38 70.45 46.36 40.93 48.42"/><path class="cls-2" d="M47.54,98.05S37.85,111.68,30,117.48s-24.75,4.19-28.59,6.63,4.31-4,6.8-8.26,8.06-12,12.81-14.33S40.62,94.7,42.88,95,47.54,98.05,47.54,98.05Z"/><path class="cls-3" d="M57.27,101.32s-16.49,2.81-26.12,1.38-14.92-12.87-24-8.76c-4.15,1.88,4.74-7.39,9.52-8.65S35,82.81,40,84.53,54.74,94.06,56.1,95.9,57.27,101.32,57.27,101.32Z"/><path class="cls-3" d="M51.76,101.54s16.48,2.8,26.11,1.38S93.23,92,102.75,92.64c4.54.31-7.33-6.2-12.11-7.46s-14.15-2.37-19.15-.65-17.2,9.74-18.57,11.59S51.76,101.54,51.76,101.54Z"/><path class="cls-2" d="M62.44,100.61s11.61,12,20.21,16.6,25.1.47,29.26,2.31-4.85-3.31-8-7.16-9.76-10.69-14.8-12.26-20.37-3.84-22.57-3.16S62.44,100.61,62.44,100.61Z"/><path class="cls-4" d="M58.94,213.46l-30.06,2.48,4.32,32.45,1.45,13.2c3.15,19.64,2.41,39.1,3.25,58.83.3,7.05-.67,14.47-.36,21.53-.18,3.55-.8,6.39-2.39,7.68-3.74,3-14.83,11.81-17.45,14s-4.08,10.68,9.38,4.2S48.87,357.67,49.58,354c1.73-9.08,0-11.25.68-21.51.76-11.53,3.19-22.88,4.54-34.35.75-6.36,1.9-13,2-19.41.09-4.41-1-10.06-.64-14.27.47-5.83,2.44-23.7,2.44-23.7Z"/><path class="cls-4" d="M89.1,358.84c-3-1.33-14.11-7.46-18.2-10.18-3.08-2.06-3.4-8-2.75-15l0-.24s-.36,5.15.11-.66c1.58-19.67,5.29-40.42,7.5-58.84l.77-11.47,1.61-14.51,3.61-34.21-29-.08.55,27.25,3.12,24.31-1.7,12.35c.18,21.78-.49,41.19-.93,63-.14,7.2,0,13.06.77,14.7,2,4.44,6.38,2.32,19.62,7.43C87.89,367.88,92.11,360.17,89.1,358.84Z"/><path class="cls-5" d="M137.78,84.06c-1.46,4.53,1.44,12.27,2.57,16.68.49,1.92,1,6.64,2.82,7.53a11.53,11.53,0,0,0,.39-1.66c2.2,7.69,5.29,16.21,11.38,21.7-.11-.46,0-1-.18-1.44,1.47.65,2.58,2.52,4,3.52a20.19,20.19,0,0,0,4.32,2.25c3.56,1.45,7,1.39,10.67,1.72a11.92,11.92,0,0,1-.93-1c2.28.56,6.43.43,8.58-.66a13,13,0,0,1-4.75-3.27,11,11,0,0,1,2.33.64c-.79-3.38-1.86-4-5-5.25-2.62-1.1-5.44-2.09-8-3.39a9.27,9.27,0,0,1,3.82-.41c-6.37-2.28-13.57-4.2-17.67-10a13.22,13.22,0,0,1,1.83.86,49.41,49.41,0,0,0-8.57-12.71c.31.19.68.34,1,.55-1.46-2.75-3.46-5.31-5-8.06C140.15,89.43,139.27,85.83,137.78,84.06Z"/><path class="cls-5" d="M136.48,85.56c.12,3.43,4,8,5.83,10.69.81,1.18,2.22,4.92,3.69,5.06-.06-.32.11-.82,0-1.18,3.38,4.69,7.51,9,13,11.26-.2-.29-.26-.66-.48-.94,1.16.09,2.37,1.08,3.56,1.42a14.28,14.28,0,0,0,3.48.46c2.78.12,5.09-.77,7.67-1.44-.3-.09-.63-.37-.88-.46a10.94,10.94,0,0,0,5.66-2.55,9.43,9.43,0,0,1-4-1.06,8.46,8.46,0,0,1,1.74-.14c-1.37-2.1-2.24-2.22-4.65-2.34-2.05-.1-4.21-.09-6.26-.35a6.84,6.84,0,0,1,2.5-1.21c-4.89,0-10.25.48-14.46-2.47a9.13,9.13,0,0,1,1.46.14,35.61,35.61,0,0,0-8.94-6.53c.26,0,.55.06.82.13-1.67-1.51-3.65-2.76-5.39-4.24C139.41,88.62,137.93,86.39,136.48,85.56Z"/><path class="cls-6" d="M174.43,130.45h-.08c-.11,0-2.85.1-11-3.84S148.92,113,146.67,108.46c-2.66-5.4-7.44-17.13-7.49-17.24a.33.33,0,0,1,.18-.43c.18-.06.43-.49.5-.32s5.12,12.26,7.77,17.64,8.8,14.72,16.11,18.26c7.93,3.84,9.43,3.55,10.07,3.7.17.05.84-.12.85.05A.33.33,0,0,1,174.43,130.45Z"/><path class="cls-6" d="M171,107.67H171a41.44,41.44,0,0,1-14.06-1.22c-7.26-2.11-16.81-15.27-17.25-15.83a.25.25,0,0,1,0-.36.27.27,0,0,1,.37,0c.11.13,10.27,13.59,17,15.51a44.79,44.79,0,0,0,13,1.61c.14,0,1.09-.17,1.11,0A.26.26,0,0,1,171,107.67Z"/><path class="cls-4" d="M146.65,152.47c-.16-3.25-7.6-2.36-11.44-1.62-7.36,1.42-12.35,6-11.14,10.31s8.15,6.57,15.51,5.15c5.58-1.08,8.13-5.39,7.65-11.45C147.16,154.06,146.68,153.11,146.65,152.47Z"/><path class="cls-7" d="M130.89,29s-8.75,8.24-6.33,11.47,7,9.06,9.14,9.31,9.05-9.76,8.47-11.65-7-9.7-7.71-10.08S131.25,28.15,130.89,29Z"/><path class="cls-4" d="M92.62,159.82l12.07-13.36-4.49-15L93.75,105a12.62,12.62,0,0,0-7.68-8.76L77.7,93,60,86.92H51.31c-6.76,3.22-13.25,4.87-20.88,7.47C18,98.61,26.94,104,27.75,114c.53,6.59.6,10.51,3.12,16.77,1.49,3.72,1.94,9.08,5.51,16.54l-.32,15.25-2.75,14.27.11,2.81,20.33,3.9,19-2.6,12.59-2.48-5.52-15.25L79.21,146l3.25-9.41Z"/><path class="cls-8" d="M45.88,89.2l-.67.26c1.29,8.06-.89,18.19-3.43,23.1a38,38,0,0,1-12.36,13.93c.26.93.59,1.92,1,3,9.37-3.15,15.64-13.32,19.31-21.93A78.46,78.46,0,0,0,53.9,95,10.65,10.65,0,0,1,45.88,89.2Z"/><path class="cls-8" d="M56.07,95.22c-.17,0-.32,0-.48,0a73.88,73.88,0,0,1-4.87,14.06C46.77,117.86,40.44,127.84,31,131a33,33,0,0,1,1,3.2c3.55-3.21,8.69-5.72,13.62-7.35,4.23-3.74,7.49-9,9.92-13.63a67.87,67.87,0,0,0,5.75-14.4,28.26,28.26,0,0,1-.4-4.53A12.23,12.23,0,0,1,56.07,95.22Z"/><path class="cls-8" d="M63.57,115.38a40,40,0,0,1,3.19-4,29.76,29.76,0,0,1-4.7-9.15,62.73,62.73,0,0,1-3.39,8.46,28.84,28.84,0,0,1,4.86,4.83S63.55,115.42,63.57,115.38Z"/><path class="cls-8" d="M77.23,120.46a36.25,36.25,0,0,1-4.38-2.92A18,18,0,0,0,69,122.83a.83.83,0,0,1-.36.4c.75,1.35,1.48,2.71,2.17,4.07.85.28,1.7.59,2.54.91A46.85,46.85,0,0,0,77.23,120.46Z"/><path class="cls-8" d="M82,122.68a32.82,32.82,0,0,1-3.32-1.47,47.24,47.24,0,0,1-3.81,7.63c.58.25,1.17.48,1.75.75a2.78,2.78,0,0,1,.9.43c1.7.81,3.37,1.68,5,2.65C82.41,129.42,82.21,126.07,82,122.68Z"/><path class="cls-8" d="M71.61,116.51a34.71,34.71,0,0,1-3.82-3.85A35.85,35.85,0,0,0,65,116.22a.81.81,0,0,1-.61.36,52.56,52.56,0,0,1,3.35,5.09A21.92,21.92,0,0,1,71.61,116.51Z"/><path class="cls-8" d="M57.94,112.17c-.67,1.31-1.36,2.6-2.08,3.83a56.32,56.32,0,0,1-7,9.91,31,31,0,0,1,7.73-1.12,46.8,46.8,0,0,1,12,1.83C65.83,121.26,62.61,115.8,57.94,112.17Z"/><path class="cls-8" d="M81.37,167.35,80,163.17l-.6-13.26a1.86,1.86,0,0,1-.41-.28C74.15,155.26,73.36,164.37,81.37,167.35Z"/><path class="cls-8" d="M37.29,137.9h0a11.13,11.13,0,0,0-3.4,3.15,34.48,34.48,0,0,0,2,5.23c3,.16,5.86,1.21,7.58,3.9,2.51,3.91,1.86,9.13.16,13.23a31.85,31.85,0,0,1-10.33,13.42l.11,2.77,8.3,1.59C52.82,169.3,51.61,146.75,37.29,137.9Z"/><path class="cls-8" d="M80.29,142.87l1.3-3.77a54.8,54.8,0,0,0-6.08-3.56C68.4,138.24,64.13,151,64,157.72s1.13,17.79,6.59,23.48l2.23-.3,12.59-2.48-2.11-5.83c-3.86-.83-7.33-2.48-9.66-5.71C67.52,158.4,72.08,147.68,80.29,142.87Z"/><path class="cls-8" d="M58.12,157.72c.49-7.59,4-19.2,10.67-24.95a37.22,37.22,0,0,0-9-1.82,29.31,29.31,0,0,0-15.12,3.14l-1.61.74c14.13,11.18,15.45,33.43,5.09,47.59l5.63,1.08,10.37-1.42C59.39,175.13,57.63,165.44,58.12,157.72Z"/><path class="cls-8" d="M34.64,169.85a25.34,25.34,0,0,0,3.89-5.79c1.5-3,3.15-7.25,1.76-10.59a4.64,4.64,0,0,0-4-2.74L36,162.52Z"/><path class="cls-4" d="M129.61,154.41l-29.41-9.52S90.68,156.58,92.84,160s37.21,5.19,37.21,5.19Z"/><path class="cls-9" d="M57.78,109.72a1.15,1.15,0,0,1-1.16-1.07,1.17,1.17,0,0,1,1-1.3,4.11,4.11,0,0,0,.47-.07,1.13,1.13,0,0,1,1.3,1,1.19,1.19,0,0,1-.9,1.38l-.65.09Zm-3.26-.61A1,1,0,0,1,54,109a6.65,6.65,0,0,1-.58-.33A1.23,1.23,0,0,1,53,107a1.08,1.08,0,0,1,1.53-.41,3.38,3.38,0,0,0,.41.24,1.22,1.22,0,0,1,.52,1.58A1.12,1.12,0,0,1,54.52,109.11Zm6.75-1a1.08,1.08,0,0,1-.85-.37,1.23,1.23,0,0,1,0-1.68,3.73,3.73,0,0,0,.32-.36,1.08,1.08,0,0,1,1.58-.1,1.25,1.25,0,0,1,.1,1.68c-.15.18-.29.34-.45.5A1.07,1.07,0,0,1,61.27,108.08Zm-9.69-1.66a1.06,1.06,0,0,1-.92-.46c-.13-.17-.25-.35-.37-.53a1.23,1.23,0,0,1,.28-1.65,1.07,1.07,0,0,1,1.55.3l.3.43a1.24,1.24,0,0,1-.2,1.67A1.1,1.1,0,0,1,51.58,106.42Zm11.78-1.81a1.27,1.27,0,0,1-.47-.09,1.24,1.24,0,0,1-.61-1.56c.07-.17.13-.34.19-.51a1.1,1.1,0,0,1,1.44-.7,1.22,1.22,0,0,1,.66,1.53c-.07.2-.14.4-.22.6A1.13,1.13,0,0,1,63.36,104.61Zm-13.74-1.79a1.12,1.12,0,0,1-1.07-.7c-.08-.19-.16-.38-.23-.57a1.21,1.21,0,0,1,.59-1.56,1.11,1.11,0,0,1,1.47.64l.21.52a1.22,1.22,0,0,1-.56,1.57A1,1,0,0,1,49.62,102.82Zm14.83-2.2a1.09,1.09,0,0,1-.26,0,1.19,1.19,0,0,1-.88-1.4l.09-.55a1.13,1.13,0,0,1,1.3-1,1.19,1.19,0,0,1,.91,1.38c0,.2-.07.4-.11.61A1.13,1.13,0,0,1,64.45,100.62ZM47.6,99.51l-.62-2A1.19,1.19,0,0,1,47.75,96a1.11,1.11,0,0,1,1.38.82l.49,1.76s.14.61-.71,1A1.19,1.19,0,0,1,47.6,99.51ZM65,96.5h-.14a1.16,1.16,0,0,1-1-1.28l0-.58a1.12,1.12,0,0,1,1.19-1.1,1.17,1.17,0,0,1,1,1.27l0,.61A1.16,1.16,0,0,1,65,96.5ZM47.3,94.86a1.13,1.13,0,0,1-1.13-1l-.12-.6a1.19,1.19,0,0,1,.89-1.39,1.14,1.14,0,0,1,1.31,1l.11.57a1.19,1.19,0,0,1-.87,1.4Zm17.83-2.53h0A1.16,1.16,0,0,1,64,91.14v-.57a1.13,1.13,0,0,1,1.09-1.21,1.17,1.17,0,0,1,1.15,1.17v.62A1.14,1.14,0,0,1,65.13,92.33ZM46.66,90.74a1.15,1.15,0,0,1-1.15-1c0-.4-.07-.63-.07-.63a1.17,1.17,0,0,1,1-1.29,1.15,1.15,0,0,1,1.22,1.08s0,.21.06.57a1.18,1.18,0,0,1-1,1.32Z"/><path class="cls-10" d="M56.89,139.63h-.2C42.54,139.05,41.09,92.47,41,90.49l1.19,0c0,.48,1.47,47.44,14.5,48a6.27,6.27,0,0,0,4.89-2.07c9.13-9.13,8.12-44.51,8.11-44.86l1.2,0c0,1.47,1,36.26-8.47,45.76A7.55,7.55,0,0,1,56.89,139.63Z"/><path class="cls-11" d="M164.65,55.35c.44-2.17,3.47-15.58,3-16.88S152.12,15.54,150,14.67s-12.11,3.89-13,2.6-3-8.22-5.19-8.22-10.39,4.32-9.09,6.49,1.73,7.79,4.32,10.81,5.64,3.47,8.23,2.17,9.52-5.62,11.68-2.17,13,16.44,12.11,19.91c-.78,3.09-8.14,16.25-10.91,19.9a22.06,22.06,0,0,1-2.77,4.65c-2.29,2.62-4.73,5.21-7.15,7.71-3.08,3.17-6,.26-8.21-2.42s-2.64-4.94.23-7.64c2-1.88,5.72-4.59,8.26-2.08,1.11,1.1-.61,2.82-1.72,1.72-1.61-1.59-6,2.72-6.31,4.18-.26,1.19,2.7,3.88,3.63,4.67,2,1.67,7.63-5.67,8.76-7A19.94,19.94,0,0,0,145.42,66c-2.22-2.36-5.64-7.67-9.75-7.67-5.62,0-15.57,12.55-16.44,15.15s9.08,13,11.25,15.57c.52.62.77,2.14.84,4.17.06,1.39,0,3,0,4.72-.12,2.89-.36,6-.56,8.77,0,.41-.05.81-.07,1.2-.06.76-.11,1.49-.13,2.15a21.76,21.76,0,0,0,0,3.21c.08.65.29,1.75.56,3.14,1.19,6,3.76,17.5,3.76,20.66,0,3.9-.43,33.31-2.15,36.34s-9.09,15.14-6.93,18.17,8.65,22.5,9.95,28.11,4.32,35.49,3,41.54-8.22,41.53-9.52,60.57c0,0-1.3,22.06,2.17,35.9,1.63,6.51,2.15,9.53,5.62,9.08s12.55-4.75,13-7.34-10-26-9.52-41.11,2.6-28.11,3.46-31.15,3.46-19,5.19-25.51-5.62-41.53-6.92-51.06-4.76-16-4.32-19.47,4.32-9.08,4.32-13.83,2.17-30.72,2.17-35.49c0-2.87-1.1-8.89-2-14.07a71.71,71.71,0,0,1-1-7.49,3,3,0,0,1,0-.5c0-3.58,5.5-9.72,6.05-12.71a2.07,2.07,0,0,0,0-.7,23.64,23.64,0,0,0-1.33-3.84c-.24-.56-.48-1.16-.73-1.77-.4-1-.81-1.94-1.17-2.89-.86-2.23-1.45-4.19-1.09-4.91C143.89,91.24,164.22,57.5,164.65,55.35Z"/><path class="cls-12" d="M142.7,127.79a20.45,20.45,0,0,1-7-4.46,59.08,59.08,0,0,1-5-6.1l-.56-5.9c0-.62.08-1.3.14-2,0-.36,0-.74.08-1.11.15.31.31.64.49,1a14.5,14.5,0,0,0,1.07,1.69c.09.15.2.29.31.44a92.36,92.36,0,0,0,6.81,7.45,14.43,14.43,0,0,0,2.54,2.08A60.57,60.57,0,0,0,142.7,127.79Z"/><path class="cls-12" d="M146.23,102.55a31.27,31.27,0,0,1-4.48,3c-1.24.67-2.44,1.26-3.43,1.7a61,61,0,0,1-6.3,2.39c-.57.18-1.14.35-1.73.5,0-.66.08-1.39.13-2.15l.56-.17a25.12,25.12,0,0,0,5.79-2.84c.64-.42,1.26-.86,1.87-1.33a30.39,30.39,0,0,0,3.78-3.47c.37-.42.74-.85,1.09-1.28.16-.19.44-.53.77-1,.38,1,.79,1.93,1.2,2.89Z"/><path class="cls-12" d="M147.66,107.09a19.09,19.09,0,0,1-5.91-1.58,14.28,14.28,0,0,1-2.18-1.23l-1-.67c-2-1.33-4-2.66-5.83-4.19L131,98c.08-1.71.1-3.33.05-4.72a27.55,27.55,0,0,0,5.64,4.27,35.17,35.17,0,0,0,5.78,2.61,14,14,0,0,0,3,.63h.11l.75,1.77a23.58,23.58,0,0,1,1.4,3.84A2.09,2.09,0,0,1,147.66,107.09Z"/><path class="cls-7" d="M42.71,93a2.65,2.65,0,0,1-2.65-2.34l0-.34a2.67,2.67,0,0,1,5.31-.54l0,.31A2.63,2.63,0,0,1,43,93Z"/><path class="cls-7" d="M60.8,133.78a2.67,2.67,0,0,1-2.27-1.24,2.59,2.59,0,0,1,.87-3.61l.21-.16a2.7,2.7,0,0,1,3.76.33,2.6,2.6,0,0,1-.34,3.7,7.43,7.43,0,0,1-.83.59A2.65,2.65,0,0,1,60.8,133.78Zm-5.92-1.05a2.66,2.66,0,0,1-1.77-.67c-.19-.17-.39-.35-.59-.55a2.59,2.59,0,0,1,0-3.71,2.7,2.7,0,0,1,3.77,0l.35.32a2.6,2.6,0,0,1,.22,3.71A2.7,2.7,0,0,1,54.88,132.73ZM64.57,128a2.65,2.65,0,0,1-.91-.16,2.61,2.61,0,0,1-1.6-3.36l.2-.55a2.67,2.67,0,0,1,3.38-1.64,2.6,2.6,0,0,1,1.67,3.32c-.07.23-.15.44-.23.66A2.67,2.67,0,0,1,64.57,128Zm-13.69-1a2.66,2.66,0,0,1-2.41-1.48l-.29-.62a2.6,2.6,0,0,1,1.31-3.48A2.68,2.68,0,0,1,53,122.69l.26.54a2.6,2.6,0,0,1-1.25,3.5A2.77,2.77,0,0,1,50.88,127Zm15.56-5.77a2.57,2.57,0,0,1-.55-.06A2.63,2.63,0,0,1,63.82,118l.13-.6a2.66,2.66,0,0,1,3.14-2,2.62,2.62,0,0,1,2.09,3.09l-.13.65A2.67,2.67,0,0,1,66.44,121.21Zm-18.15-.76a2.66,2.66,0,0,1-2.54-1.83l-.19-.62a2.6,2.6,0,0,1,1.74-3.28,2.68,2.68,0,0,1,3.35,1.71l.19.6a2.62,2.62,0,0,1-1.74,3.3A2.79,2.79,0,0,1,48.29,120.45Zm19.34-6.16a2.31,2.31,0,0,1-.37,0,2.62,2.62,0,0,1-2.27-3l.08-.61a2.67,2.67,0,0,1,3-2.26,2.63,2.63,0,0,1,2.29,2.95l-.09.65A2.66,2.66,0,0,1,67.63,114.29Zm-21.25-.6a2.66,2.66,0,0,1-2.59-2l-.16-.63a2.64,2.64,0,0,1,2-3.16,2.68,2.68,0,0,1,3.21,2l.14.6a2.62,2.62,0,0,1-2,3.17A2.7,2.7,0,0,1,46.38,113.69Zm22.07-6.37-.26,0a2.63,2.63,0,0,1-2.4-2.86l0-.54s.22-2.84,2.85-2.78c2.81,0,2.47,3.18,2.47,3.18l-.06.64A2.65,2.65,0,0,1,68.45,107.32Zm-23.58-.49a2.66,2.66,0,0,1-2.62-2.13l-.12-.62a2.67,2.67,0,0,1,5.24-1l.13.63a2.63,2.63,0,0,1-2.13,3.07A2.81,2.81,0,0,1,44.87,106.83ZM69,100.32h-.18a2.64,2.64,0,0,1-2.49-2.79l0-.5s0-3.23,2.9-2.9a2.58,2.58,0,0,1,2.43,3.1l0,.65A2.65,2.65,0,0,1,69,100.32Zm-25.35-.4A2.65,2.65,0,0,1,41,97.7l-.1-.65a2.62,2.62,0,0,1,2.24-3,2.66,2.66,0,0,1,3,2.21l.1.61a2.64,2.64,0,0,1-2.23,3A2.83,2.83,0,0,1,43.66,99.92Z"/><path class="cls-7" d="M69.35,93.31h-.09a2.63,2.63,0,0,1-2.58-2.7v-.3a2.67,2.67,0,0,1,5.33.12v.34A2.65,2.65,0,0,1,69.35,93.31Z"/><path class="cls-4" d="M146.81,159.28c.56-2.11,1.13-7.24-.89-7.95-1.46-.51-3.44,1.74-4.37,3.19-1.47,2.29-2.35,4.95-1.24,7.82,1.2,3.12,3.09,3.52,4.77,1A13.78,13.78,0,0,0,146.81,159.28Z"/><path class="cls-4" d="M140,151.82c2.32-3.47-3.65-2-5.62-1.24-3.84,1.44-7.43,4.85-5.57,6.2.59.43,4.87-1.31,5.67-1.39A9.41,9.41,0,0,0,140,151.82Z"/><path class="cls-13" d="M66.7,191.85c-5.45,1.73-11.31-4.55-16.81-3.57-7.09,1.27-9.41-13.73-16.31-11.69C26.16,178.79,23,203.1,21,215.94c-2.85,19-6,31.59-8.21,51.49-1,9.43-.49,24.56-.87,33.74-.25,5.95,1,19.51,2.16,19.47,1.18,2.17,6-6.18,7.31-3.19,1.85,8.41,1.45,3.39,1.72,11.07.23,6.22,3.13,7.74,4.34,12.49,1.43,3.58,2.65-.46,5-3.81,1.52-2.16,2.86-.92,4.19-3.65,1.21-2.49,1.42-9.9,2.71-12.17,3.53-6.2,4.21,2.11,6.84,3.45,6,3.05,5.38-23.23,7.54-31.1C57.08,281.6,89.68,184.53,66.7,191.85Z"/><path class="cls-13" d="M102.79,279.11c-1.71-13-3.61-23.26-4.76-36.78-1.74-20.65-2-28.63-5.62-47.59-.94-4.86-6.44-19.68-7.93-22.84-4.78,8.91-10.48,14.26-16.4,17.69-6.19,9.93-12.88,15.71-19.33,13.73.57,12.8,3.81,25.56,5.07,37.57a211.71,211.71,0,0,0,7.62,38.82c1.42,5,3,9.55,4.51,14.43a109.45,109.45,0,0,1,3.32,13.91C71.5,321.61,68.85,327,72,339c2.83,10.75,6,4.72,9.41,2.59,3.92-2.44,4.13,7.21,8.44,7.21,2.43,0,2.35-2.36,3.73-14.71.6-5.44,3.47-7.13,3.9-11.75.34-3.62,1.58-9.5,1.83-13.84-.38-4.12,3.46,1.11,4.33-3C104.52,297.8,103.87,287.27,102.79,279.11Z"/><path class="cls-14" d="M81.18,234c-1.38-15.08-4.3-29.32-4.32-44.63,0-3.25-.66-4.93-1-7.08a136.51,136.51,0,0,0-15.41,5.49c-2.75,1.13-7.7.76-10.38-2-.75-.77-3.51-5.56-4.19-5-2.33,2-2.22,18.09-2.61,23.23-.74,10-2.75,19.14-3.43,29.13-.83,12.14-2.72,24-3.83,35.92-.84,9.09-1.66,23.39-1.47,31,.22,8.51,6.74-1.05,7.17,8.94.09,2.17.39,20.72,2,20.18,1.92-.67,1.79-10,4.71,6.53,1.52,8.62,3.73,20.68,5.49,19.59,4.11-2.79,4-18.68,7.27-13.06,2.55,4.35,4.72,5.15,6.87-.55s3.3-15.09,5.22-21.53c2.14-7.2,4,3.39,5.75-2.24,1.19-3.9.4-6.08,1.65-8.77-1.29,2.76,3.75,3.69,4.4,3.15,1.62-1.33,1.33-8.59,1.47-10.52.59-7.76-.71-16.06-1.42-23.77C83.78,263.82,82.51,248.68,81.18,234Z"/><path class="cls-15" d="M88.15,177.12a33,33,0,0,1-4.16-7c-.47,1.88-10.06,7.3-11.5,7.91a37.75,37.75,0,0,1-14.67,2.71,39.22,39.22,0,0,1-25.16-9.13s-1.62,5-3.89,7.46,21.89,14.06,29,11.9C64.9,192.91,90.24,179.49,88.15,177.12Z"/><polygon class="cls-16" points="69.91 187.93 63.74 185.23 63.17 182.53 60.37 181.35 59.81 180.06 57.84 179.86 57.84 179.83 57.7 179.84 57.56 179.83 57.56 179.86 55.59 180.06 55.03 181.35 52.23 182.53 51.66 185.23 45.49 187.93 45.21 190.62 50.54 191.56 54.19 196.02 57.28 196.11 57.28 196.14 57.7 196.13 58.12 196.14 58.12 196.11 61.21 196.02 64.86 191.56 70.19 190.62 69.91 187.93"/><path class="cls-4" d="M33.46,127.48c1.84-13.19.84-30.19-.81-32.93-1-1.62-9.11,2.38-10.75,4.56-4.66,6.23-4.56,15.79-5.38,23.32q-1.5,13.68-3,27.36c-.24,2.23-.39,4.51-.73,6.73,0,0-1.34,8.56-1.39,11.44-.12,6.14,1.92,19.63,3.35,28.32a57.76,57.76,0,0,0-3.19,10.65c-1.71,8,1.47,17.77,4.65,18.39,2.07.4.11-3,.54-7.58a13.28,13.28,0,0,1,1.91-6.07c.24-.46.46-.93.67-1.4a2.74,2.74,0,0,0,.31.54c1,1.3-.52,7.17.3,9,1.38,3,6-12.56,6-14.86,0-1.37-1.64-9.44-3.08-10.34l-.24-.12,5.15-29.63-.22-10C28.37,152.27,33.34,143.87,33.46,127.48Z"/><path class="cls-8" d="M32.79,136.94c.18-1.31.34-2.69.45-4.15-6.47-1.24-12.6-3.58-17-7.52l-.44,4C19.41,133.67,26.5,135.58,32.79,136.94Z"/><path class="cls-8" d="M15.68,140.75a4.11,4.11,0,0,0-1-2l-.53,4.66a1.8,1.8,0,0,0,.21-.08A2.29,2.29,0,0,0,15.68,140.75Z"/><path class="cls-8" d="M15.28,133.39l-.31,2.8a5.89,5.89,0,0,1,2.82,4.09,4.58,4.58,0,0,1-2.18,4.89,6.56,6.56,0,0,1-1.69.6l-.13,1.11c5.35.81,11.59-.14,17.43-1.93a27.21,27.21,0,0,0,1.11-4.79C26.33,138.8,19.78,137.06,15.28,133.39Z"/><path class="cls-8" d="M29.47,150.12c.16-.41.33-.84.49-1.3a42,42,0,0,1-16.47,1.39l-.22,2A62.45,62.45,0,0,0,29.47,150.12Z"/><path class="cls-8" d="M26.57,166a2.17,2.17,0,0,0-.51,2.46,3.61,3.61,0,0,0,.88,1.13l.75-4.23A3,3,0,0,0,26.57,166Z"/><path class="cls-8" d="M23.94,169A4.37,4.37,0,0,1,25,164.44,6.28,6.28,0,0,1,27.71,163l0-3.06A12.14,12.14,0,0,0,21,163.51c-2.7,2.68-3.6,6.87.44,9.13a8,8,0,0,0,4.83.92l.24-1.5A5.29,5.29,0,0,1,23.94,169Z"/><path class="cls-8" d="M16.73,183.9a14.62,14.62,0,0,0-4.4-4.15,104,104,0,0,0,1.85,12.9C17.49,191,19.53,188.2,16.73,183.9Z"/><path class="cls-8" d="M18.62,182.79c1.55,2.56,2.46,6.07.63,8.76a10,10,0,0,1-4.68,3.55c.07.4.08.79.14,1.17A38.09,38.09,0,0,0,13.38,200a10.81,10.81,0,0,1,8.51-4.24,11.65,11.65,0,0,1,1.45.11l.24-.23a2.75,2.75,0,0,0-.75-1c-.08,0,0-.24-.13-.27l3.19-18.48c-3.49.42-6.79-.7-8.58-4.56-3.1-6.67,3.71-12.56,10.28-13.45l0-3c.08-.25.19-.57.34-.93a67.46,67.46,0,0,1-15,1.56l-.43,1.27s-1.14,8.26-1.19,11.14a82.72,82.72,0,0,0,.7,9.25A14.72,14.72,0,0,1,18.62,182.79Z"/><path class="cls-8" d="M99.22,129c.15-.05.24-.11.39-.17l-1.23-4.86c-5.11,2.75-10.93,3.51-16.92,4.62a1.1,1.1,0,0,1-.66-.08c.43,1.39.79,2.81,1.1,4.23C87.62,133.15,95,130.59,99.22,129Z"/><path class="cls-8" d="M90.34,143.79a8.49,8.49,0,0,0-5-.54L90,153.8a14,14,0,0,0,1-1.15C93,150.12,94.07,145.45,90.34,143.79Z"/><path class="cls-8" d="M125.09,160.9a8.16,8.16,0,0,1,1.43-4.59,7.36,7.36,0,0,1-2.68,1.27,5,5,0,0,1-4.59-.9,3.36,3.36,0,0,1-.52-4.17,5.76,5.76,0,0,1,1-1.29l-1.64-.53c-4.36,2.21-6.95,8.3-7.55,13.07l2.31.23a6.34,6.34,0,0,1,9.76-2.05,7.79,7.79,0,0,1,2.21,3l1.48.1A7.36,7.36,0,0,1,125.09,160.9Z"/><path class="cls-8" d="M120.8,154.47a.36.36,0,0,0,0,.1l.08.14v0l0,0,.17.14a1.08,1.08,0,0,0,.18.11l.08.05h0a2.54,2.54,0,0,0,.37.1l.13,0h0a3.06,3.06,0,0,0,1.61-.19,5.74,5.74,0,0,0,1.73-1,9.15,9.15,0,0,0,.86-.79l-3.39-1.09c-.17.1-.35.18-.51.29a5,5,0,0,0-.77.65,1.8,1.8,0,0,0-.46.58s-.11.24-.13.26a1.09,1.09,0,0,0-.07.24.08.08,0,0,0,0,0v.05A1.28,1.28,0,0,0,120.8,154.47Z"/><path class="cls-8" d="M115.5,164.22c2.17.19,4.25.35,6.13.48C120,162.93,116.84,162.39,115.5,164.22Z"/><path class="cls-8" d="M108.16,160.82a21.56,21.56,0,0,1,6.78-11.15l-3.81-1.24c-3.55.94-6.81,5.14-7.66,7.91a23.49,23.49,0,0,0-1.09,6.43c1.66.24,3.45.47,5.28.68A21.75,21.75,0,0,1,108.16,160.82Z"/><path class="cls-8" d="M100.28,157a19.84,19.84,0,0,1,6.94-9.85l-2.43-.79-.36-1.29-4-12.83c-.68.25-1.36.49-2,.71-4.22,1.35-10.72,3.2-16.16,3.13a9,9,0,0,0,.61,1.39l1.42,3.23c6.27-1.13,13.84,2.39,11,10a14.61,14.61,0,0,1-4.08,5.78l1.43,3.28.1-.11a1.85,1.85,0,0,0,.12.33c.53.85,3.07,1.6,6.58,2.24A21,21,0,0,1,100.28,157Z"/><path class="cls-16" d="M39,179.51a3.57,3.57,0,1,1-3.57-3.57A3.56,3.56,0,0,1,39,179.51Z"/><circle class="cls-16" cx="43.95" cy="182.97" r="3.57"/><circle class="cls-16" cx="72.07" cy="183.4" r="3.57"/><circle class="cls-16" cx="81.59" cy="178.21" r="3.57"/><path class="cls-5" d="M41.21,87.7s-4.54-2.06-11.36.69c-4.22,1.7-8.44,10-16.87,12.71s-13,1.72-13,1.72,5.19,6.52,16.55,7.9c8.06,1,22.39-5.5,26-11.68S43.48,88,41.21,87.7Z"/><path class="cls-5" d="M70.55,87.66s4.54-2,11.35.65c4.23,1.61,8.44,9.41,16.88,12s13,1.63,13,1.63-5.2,6.16-16.55,7.46c-8.07.92-22.39-5.19-26-11S68.28,88,70.55,87.66Z"/><path class="cls-17" d="M67.45,93.24c-1.19,4,3,9.4,7.09,14.46s16.87,6.85,19,9.08-2-3.31-2.63-6.5-2.48-9.14-5.29-11.43S73.25,91.16,71.5,91,67.76,92.23,67.45,93.24Z"/><path class="cls-17" d="M44.17,94.54s-2.56,9.88-6.86,14.75-17.16,6.08-19.37,8.2,2.16-3.21,2.92-6.37,2.9-9,5.82-11.17,12.69-7.12,14.44-7.2S44.17,94.54,44.17,94.54Z"/><path class="cls-18" d="M62.5,92.1s-1.89,2.44-6.76,3c-4.09.45-7.08-3-7.08-3V76.54h14Z"/><ellipse class="cls-4" cx="54.99" cy="60.97" rx="15.36" ry="22.06"/><path class="cls-19" d="M73.67,80.4c.29-5.06,0-12.13.19-15.05.16-3.45-.65-13-2.27-17.53C69.14,41,62,33.55,56,34.85a3.73,3.73,0,0,0-2.9,2,6.54,6.54,0,0,0-4.61-1.38c-4.07.16-9.32,7.81-11,11.46A26.74,26.74,0,0,0,35.63,55l-.06.08v.81a29.62,29.62,0,0,0,0,3.09.76.76,0,0,0,0,.15l-.51,46a.85.85,0,0,0,.35.71.9.9,0,0,0,.79.14l.39-.13.74,1.58a.39.39,0,0,0,.43.21.38.38,0,0,0,.29-.37v-.41l1.12-.44.71,1.78a.23.23,0,0,0,.25.14.22.22,0,0,0,.18-.22l.24-41.7a40.37,40.37,0,0,1,3.72-7.06c3.2-4.71,8.27-7.85,10.19-13.35,1.92,5.5,7,8.64,10.19,13.35,1.17,1.74,2.75,5.76,4.22,10.17l.75,36.81.89,1.37a.68.68,0,0,0,1.24-.25l.11-.63,1-.73.83,1.47a.36.36,0,0,0,.41.17.35.35,0,0,0,.26-.36Z"/><path class="cls-20" d="M50.85,43.88s-4-11.76-2.85-21.77S53.2,5.78,52,.77c-1-4.42,6,11.32,7.17,18.94s.19,20.46-1.58,22.86S50.85,43.88,50.85,43.88Z"/><path class="cls-5" d="M44.85,46.51S38.57,38,38.37,29.39s1-15-1-16.76S43.28,15.7,46,21.46,53.1,41.82,50,44.34,44.85,46.51,44.85,46.51Z"/><path class="cls-20" d="M44.07,49.21s-7.47,0-14.54-7A26,26,0,0,1,22.07,24.7c-.2-2.16,2,2.35,5.3,3.61S39,34.07,41.51,38s4.72,8.29,4.72,8.29Z"/><path class="cls-5" d="M47.67,51.29s-9.45,3.25-15.35,3.25S18.77,48.24,16,48.06s3.54-.36,6.29-1.45,8.25-2.7,11.39-2.16,12,3.43,13,4.33A3.92,3.92,0,0,1,47.67,51.29Z"/><path class="cls-5" d="M63.9,46.51S70.19,38,70.39,29.39s-1-15,1-16.76-5.89,3.07-8.64,8.83S55.46,42.37,58.6,44.89,63.9,46.51,63.9,46.51Z"/><path class="cls-20" d="M63.85,49.21s7.46,0,14.54-7A26.06,26.06,0,0,0,85.85,24.7c.2-2.16-2,2.35-5.3,3.61S69,34.07,66.4,38s-4.71,8.29-4.71,8.29Z"/><path class="cls-5" d="M57.92,50.36s10.77,2.88,17.36,2.88,15.17-6.3,18.25-6.48-4-.36-7-1.44-9.23-2.71-12.75-2.17-13.4,3.43-14.5,4.33A5,5,0,0,0,57.92,50.36Z"/><path class="cls-21" d="M54.13,50.66c9,0,16.53,4.58,19.41,8A11.17,11.17,0,0,0,75,53.83c0-4.93-9.39-9.17-20.87-9.17s-20.5,4.89-20.5,9.82a11.17,11.17,0,0,0,1.78,4.72A25.34,25.34,0,0,1,54.13,50.66Z"/><polygon class="cls-7" points="63.57 47.22 58.8 44.44 58.36 41.66 56.19 40.45 55.76 39.11 54.24 38.9 54.24 38.87 54.13 38.89 54.02 38.87 54.02 38.9 52.5 39.11 52.07 40.45 49.9 41.66 49.46 44.44 44.69 47.22 44.47 50.01 48.59 50.98 51.41 55.58 53.8 55.67 53.8 55.7 54.13 55.68 54.45 55.7 54.45 55.67 56.84 55.58 59.66 50.98 63.79 50.01 63.57 47.22"/></g></g></svg>