<svg xmlns="http://www.w3.org/2000/svg" viewBox="0 0 342.04 357.01"><defs><style>.cls-1{fill:#394035;}.cls-2{fill:#1b7a49;}.cls-3{fill:#2a4036;}.cls-4{fill:#2b4032;}.cls-5{fill:#23382f;}.cls-6{fill:#11442b;}.cls-7{fill:#144e32;}.cls-8{fill:#bf774b;}.cls-9{fill:#194b33;}.cls-10{fill:#e3d1db;}.cls-11{fill:#706168;}.cls-12{fill:#db976c;}.cls-13{fill:#205942;}.cls-14{fill:#f2be9d;}.cls-15{fill:#b3c4cc;}.cls-16{fill:#ccdfe8;}.cls-17{fill:#5e4b38;}.cls-18{fill:#263b33;}</style></defs><g id="Layer_2" data-name="Layer 2"><g id="Layer_1-2" data-name="Layer 1"><path class="cls-1" d="M110.34,51.22s-12,26-5.87,29.33,17.37,3.16,19.86,1.13,11.28.68,15.56-.68,1.13-30.68-1.35-32.49S111.92,42.2,110.34,51.22Z"/><path class="cls-1" d="M87.32,40.5s6.77-2.7,35.2-3S173.67,44,171.93,48c-2.84,6.43-19.29,20.64-24.37,29.44s-21.66,23.36-31.13,13.88S78.18,55.06,73.78,51.67,80.89,42.53,87.32,40.5Z"/><path class="cls-2" d="M104.47,70.4s-20.31,4.06-21.66,8.12-13.09,39.26-14.89,40.61-4.06.91-5,2.26-1.8,4.06-5,4.51-17.15,7.22-26.17,7.67,0,46.48,0,46.48,4.51,1.81,15.79-5.41,38.81-22.11,40.61-24.37,6.32-34.75,8.58-41.06l2.25-6.32S108.08,78.52,104.47,70.4Z"/><path class="cls-3" d="M111.13,290.16a13.38,13.38,0,0,1-9.59-3.72c-1.81-1.81-.45,12.63-1.36,22.56s-1,23.2-4.51,27.41a86.69,86.69,0,0,1-16,14.44c-3.16,2.26-2.59,10.27,13.65,3.5s21.32-8.8,23.13-13.76,7.15-55.14,5.41-53.7C119.93,288.47,117.94,289.78,111.13,290.16Z"/><path class="cls-3" d="M127,290.72a13.36,13.36,0,0,0,9.59-3.72c1.81-1.8,0,11.51-2.38,25.05-1.72,9.82-2.49,19.59,2.15,22.56a181,181,0,0,0,21.54,11.06c3.62,1.41-.1,7.27-17.51,4.69s-20.55-3.93-23.51-8.3-2.34-56-.6-54.61C118.24,289,120.22,290.35,127,290.72Z"/><path class="cls-4" d="M128.39,151.63l-24.6,159.51-3.16,16.7s28,7.67,44.23-.9-6.55-137.41-6.55-137.41S134.7,147.11,128.39,151.63Z"/><path class="cls-5" d="M147.37,155.08c8.68-17.51-17.18-71.14-17.18-71.14l-7.44-1.13-10.61,76.94s.31.21.88.53C107,184.47,73.22,320.28,79,326c6.32,6.31,22.08,15.26,26.18,15.34,3.32.06,4.16-10.19,8.57-28.43,4.7-19.42,11.9-87.45,15.86-127.24.9,19.31,2.24,44.49,3.77,62,3.16,36.1,6.09,90.48,12.86,88.22s20.76-1.35,26.63-20.3C177.59,300.28,155.77,194.47,147.37,155.08Z"/><path class="cls-2" d="M142.78,70.4s20.3,4.06,21.66,8.12,10.88,37,12.68,38.36,2.71.45,3.61,1.8,3.61,3.16,6.77,3.61,18.05,2.71,27.08,3.16,0,46.48,0,46.48-4.52,1.81-15.8-5.41-34.29-22.11-36.1-24.37-10-26.63-12.23-32.94l-2.26-6.32S139.17,78.52,142.78,70.4Z"/><ellipse class="cls-3" cx="214.13" cy="149.14" rx="11.73" ry="23.69"/><path class="cls-6" d="M120.94,86.42s11.7,66.33,20.12,108.62c9.25,46.48,16.21,151.53,27.49,143s23-28.43,23.91-34.29-28.08-160.85-31.58-189.53c-2.79-22.8-11.84-36.88-21.41-39.92C132,71.88,123.71,76.72,120.94,86.42Z"/><path class="cls-7" d="M104.65,76.58c-2.61,1.65-6.86,7.89-7.8,11.58-5.92,23.3-7,37.58-10.65,55q-10.42,50.24-24.15,99.66c-12.18,43.77-15.12,64.75-12.86,69.27s30.24,35.19,34.3,28.88,32.71-111.69,39.93-170.8c7.16-58.64,3.71-85.56,3.61-86-.8-3.48-11-9.8-14-9.79A19.68,19.68,0,0,0,104.65,76.58Z"/><rect class="cls-8" x="116.77" y="59.46" width="12.86" height="17.6"/><path class="cls-9" d="M115.28,68s4.19,4.85,8.75,5,5.7-2.81,6.4-4.61,4.76,4.67,3.71,7.37-4.73,4.74-9.86,5.5-13.63-3.93-13.23-6.38S114.28,67.27,115.28,68Z"/><ellipse class="cls-3" cx="32.27" cy="157.27" rx="11.73" ry="23.69"/><path class="cls-10" d="M17.12,91.18v0h-.25v0C8.62,91.37,2,98.71,2,107.74a17.78,17.78,0,0,0,1.4,6.92,7.21,7.21,0,0,1,1.48-.15c4,0,7.1,2.24,7.1,6.26,0,.52.19,3.47.09,4a11,11,0,0,0,4.74,1.59v0H17v0a11.08,11.08,0,0,0,4.74-1.59c-.11-.49.25-3.44.25-4,0-4,3.09-6.26,7.11-6.26a7.12,7.12,0,0,1,1.47.15A17.78,17.78,0,0,0,32,107.74C32,98.71,25.38,91.37,17.12,91.18Z"/><path class="cls-11" d="M19.76,110.34l-.11-3.28s5.87-3.72,6.55-2.48,1.46,5.42.67,6.09S20,112.48,20,111.91A9.65,9.65,0,0,0,19.76,110.34Z"/><path class="cls-11" d="M14.23,110.34l.11-3.28s-5.86-3.72-6.54-2.48-1.47,5.42-.68,6.09S14,112.48,14,111.91A9.65,9.65,0,0,1,14.23,110.34Z"/><polygon class="cls-11" points="16.04 112.7 16.95 111.8 18.3 112.7 19.31 117.78 17.06 118.57 14.91 117.89 16.04 112.7"/><ellipse class="cls-12" cx="123.87" cy="41.52" rx="15.91" ry="23.01"/><path class="cls-13" d="M122.56,34.14c-1.9,0-3.78,2-5.46,7s-11.5,36.55-8.79,38.24,9.13,2.37,6.76,4.07-8.8,1.69-17.59-6.77-7.11-13.54-3.73-24,9.48-27.13,15.57-34.23c8.28-9.65,22.05-6.65,27.8.46S157,61.15,153,71.64s-8.46,10.83-13.2,10.83-6.09-1.69-1.69-3.39C144,76.8,135.75,55.5,134.47,52,132.41,46.45,127.42,34,122.56,34.14Z"/><path class="cls-14" d="M229.3,129.51c-.17-3.38-7.93-2.45-11.93-1.68-7.68,1.48-12.06,6.26-10.8,10.71s7.67,6.9,15.35,5.42c5.83-1.13,8.49-5.63,8-12C229.83,131.18,229.33,130.18,229.3,129.51Z"/><path class="cls-14" d="M35.9,143.28c-1.45-3.13-8.18-3.6-10.78-3.95s-20,2.27-16.9,4.11c1.13.68,4,.66,6.36.82a14.47,14.47,0,0,1-6.32,1c-5-.19-8.39-2.68-8.26-.48.21,3.37,10.26,8,19.19,7.34,4.09-.31,13-.47,16.06-3.53C36.6,147.22,36.41,144.38,35.9,143.28Z"/><path class="cls-15" d="M342,36.16S300.31,13.77,266,16s-45.58,19.84-45.58,19.84l-1.28-12.32-1-9.34s25.74-17.7,62.73-13.07C327.74,7,340.1,31.45,341.66,35,341.78,35.28,342,36.16,342,36.16Z"/><path class="cls-16" d="M341.83,36.1S300.31,14.44,266,16.7s-45.58,19.85-45.58,19.85l-1.28-12.32c5.19-3,23.54-18.42,64.67-13.68,32,3.69,49.49,16.47,57.83,25.12C341.78,36,341.83,36.1,341.83,36.1Z"/><path class="cls-17" d="M212.66,33.85s3.38,27.41,5.08,32.49,4.06,35.87,3.38,39.93-5.42,15.23-5.42,24.37-4.73,73.44-7.1,89.69-4.06,47.38-2.71,50.43S210.63,330,212,337.09s2.71,9.82,4.74,10.15,16.92-5.75,17.6-8.46S218.41,273.13,217.74,267s6.43-76.82,6.43-86,.33-43.66.33-46.37,7.11-29.78,7.79-36.55-8.8-50.09-7.79-60.58,4.74-37.91,2-37.57-13.19,6.1-14.21,8.8S212,30.12,212.66,33.85Z"/><path class="cls-14" d="M222.36,128.84c2.43-3.62-2.71-.34-6.94,0s-5.93,2.8-5.69,5.19c.11,1.12,1.8,2.93,4.51,1C215.77,134,221.25,130.5,222.36,128.84Z"/><path class="cls-14" d="M229.36,137.52c.58-2.2,1.18-7.55-.94-8.29-1.52-.53-3.58,1.82-4.55,3.33-1.53,2.39-2.45,5.16-1.29,8.16,1.25,3.24,3.22,3.67,5,1.07A14.25,14.25,0,0,0,229.36,137.52Z"/><path class="cls-18" d="M136.92,79.19c-5.92,2.89,2.1,5,4.86,1.64,4.25-5.12,3.56-6-2.19-25.5-2-6.73-5.29-12.07-9.13-18.44-14.13-23.43-23.2,23.42-25.21,30.73-.64,2.31-3.31,9.94.46,14.25,1.94,2.22,7,4.11,9.45,1.81s-3.93-2.48-6.24-4.69c-2.7-2.58,6.58-32.54,8.28-37.62s3.55-7,5.45-7c4.86-.12,9.85,12.31,11.91,17.88C135.84,55.69,143.81,75.83,136.92,79.19Z"/></g></g></svg>