<svg xmlns="http://www.w3.org/2000/svg" viewBox="0 0 289.44 404.47"><defs><style>.cls-1{fill:#3298c2;}.cls-2{fill:#38aada;}.cls-3{fill:#384a5f;}.cls-4{fill:#304b6a;}.cls-5{fill:#145e80;}.cls-6{fill:#1c79a1;}.cls-7{fill:#3cbaf3;}.cls-8{fill:#5bc8f9;}.cls-9{fill:#eb8749;}.cls-10{fill:#ff9500;}.cls-11{fill:#2399cd;}.cls-12{fill:#74d8ff;}.cls-13{fill:#f8a26c;}.cls-14{fill:#475a66;}.cls-15{fill:#56eef3;}.cls-16{fill:#2bb8e3;}</style></defs><g id="Layer_2" data-name="Layer 2"><g id="Layer_1-2" data-name="Layer 1"><path class="cls-1" d="M133.34,92.06s-28.36,6.16-24.9,8.14c8.38,4.78,7.66,12.21,9.34,16.27s31.36,3.36,31.36,3.36.47-14.37,11.49-22.27C162.8,96,141.48,92.78,133.34,92.06Z"/><path class="cls-2" d="M121.87,108.94S93.36,115,91,117s-18,39.5-18.43,41.89-3.83,1.92-5.75,1.92-1,2.39-2.39,3.83-29.21,8.89-29.21,8.89l.24,48.08s28.34-8.81,47.16-22.5c26.33-19.15,21.3-52.18,22.26-59.37S111.34,115.64,121.87,108.94Z"/><path class="cls-3" d="M89.07,233.65a136.1,136.1,0,0,1-20.53,13.79c-10.9,5.77-19.56,8-27.58,18.28-5.66,7.25-7.7,18.29-3.85,23.1s20.85,10.9,20.21,8.34-1.61-17.32,3.53-23.42,19.24-10.26,24.05-14.11S89.07,233.65,89.07,233.65Z"/><path class="cls-3" d="M97,190.44c-.89.71-15.44,32-28.36,39.5s-23.7-.36-42,2.87-14.72,8.62-14.72,8.62l6.43,22.19a1.62,1.62,0,0,0,3,.2c1.83-4.2,5.58-9.61,12.8-9.82C46,253.64,60,256.89,70,250.76c11.13-6.82,19.75-12.56,22.26-31.59S100.54,187.57,97,190.44Z"/><path class="cls-4" d="M121.73,333.83a14.26,14.26,0,0,1-10.18-3.95c-1.91-1.92-.48,13.4-1.43,23.94s0,25.73-4.79,29.08-14.84,11.37-18.19,13.76-1.56,12.45,15.68,5.27,22.62-9.34,24.53-14.6,7.59-58.5,5.75-57C131.06,332,129,333.43,121.73,333.83Z"/><path class="cls-4" d="M140.29,332.75a14.18,14.18,0,0,0,10.17-3.95c1.92-1.91,1.91,11.73-.61,26.09-1.82,10.42-5.1,22.34.36,24.42s18.43,8.19,22.26,9.69.49,9.76-18,7-21.81-4.17-24.95-8.81-2.48-59.45-.63-57.93C131,331,133.05,332.35,140.29,332.75Z"/><path class="cls-5" d="M115.14,266.08c-1.43,1-19.15,75.65-23.93,81.39s50.27,29.21,76.12,13.41S147.7,202.41,147.7,202.41s-13.88-4.79-14.36-2.39S115.14,266.08,115.14,266.08Z"/><path class="cls-6" d="M183.49,232.81c0,1.14,14.72,105.57,18.67,108.44s-3.59,8.62-12.21,14.36-23.34,16.52-25.85,14.72-16.16-85.1-12.93-103.41S183.49,227.78,183.49,232.81Z"/><path class="cls-6" d="M85.82,234.25s-12.57,53.14-22.26,74.32-17.77,22.31-16.88,25.5c2.52,9,38.78,38.06,46.68,27.29s21.19-42,25.14-67.15S85.82,234.25,85.82,234.25Z"/><path class="cls-2" d="M144.11,108.81s25.19,2.16,29.68,10.3c2.2,4,13.65,35,15.56,36.38s2.87.48,3.83,1.92,3.83,3.35,7.18,3.83,19.15,2.87,28.73,3.35,0,49.31,0,49.31-4.79,1.92-16.76-5.74-42.13-24.9-44-27.29-4.85-26.81-7.24-33.52l-2.39-6.7S140.28,117.43,144.11,108.81Z"/><ellipse class="cls-6" cx="228.61" cy="189.72" rx="12.45" ry="25.13"/><path class="cls-7" d="M129.45,112.88S138.6,233.05,139.08,258s6.23,63.67,8.14,60.32,14.36-45.48,21.54-58.89,16.76-23,18.68-24.41S175.21,194,171.16,182.78c-4.31-12-5.75-35.43-9.58-56.49a22.32,22.32,0,0,0-19.51-18l-6.82,2.39Z"/><path class="cls-8" d="M111.08,113.69c-12.69,5.9-14.38,58.66-15.56,67.18a257.4,257.4,0,0,1-13.41,53.62c-1.44,4.31,30.64,39.73,37.82,81.38.83,4.82,8.7-24,16.76-53.14,11.25-40.69,5.23-150.65,5.23-150.65s-12.11-4.4-16.44-4.07C121.78,108.29,111.08,113.69,111.08,113.69Z"/><path class="cls-9" d="M140.52,110s-1.82,3.48-7,3.41c-6.68-.09-7.6-3.41-7.6-3.41V97.32h14.6Z"/><ellipse class="cls-6" cx="35.07" cy="197.56" rx="10.77" ry="24.24"/><path class="cls-10" d="M20.11,164.59c-3,0-7.14-2.89-9.44-4.51A23.3,23.3,0,0,1,1,140.57c.06-3.77,1.05-9.75,5-11.65,3.12-1.51,7.44-2.18,9.13-5.64,2.79-5.73-4-9.42-5.76-14-1.57-4-.74-5.55,3.21-7.71-.9,9.7,5.59,7.72,9.34,12.21a12.54,12.54,0,0,1,.54,16c-1.41,2-4.8,4.28-4.94,6.89-.24,4.51,4.65,2.87,6.63,1.11s4.88-5.94,4.59-8.88c-.72-7.18,6.86-8.27,6.46-7.78C33.31,123.48,32,124,34.83,128c3.09,4.25,4.67,10.51,5.06,15.65C40.64,153.63,30.18,164.59,20.11,164.59Z"/><path class="cls-11" d="M75.29,96c-.72,2.15,8.74,10,9.81,10.77s10.77-1.44,13.65-2.15-6.56-10.3-9.82-10.3C84.86,94.33,75.74,94.65,75.29,96Z"/><path class="cls-11" d="M101.86,37.08c-1.41.88.25,9.76.52,10.67s6.76,4.22,8.72,5.16,1.1-8.88-.74-10.4C108.06,40.61,102.76,36.52,101.86,37.08Z"/><path class="cls-11" d="M70.48,57.51C69.66,59,80.61,70.15,81.87,71.23s13.8,2.7,17.84,3-9.12-13-12.57-14.77C85.7,58.79,71.2,56.19,70.48,57.51Z"/><path class="cls-11" d="M191.72,97.8c.72,2.16-8.73,10.06-9.81,10.78s-10.77-1.44-13.65-2.16,6.56-10.29,9.82-10.29C182.15,96.13,191.27,96.44,191.72,97.8Z"/><path class="cls-11" d="M163.13,37.38c1.41.88-.24,9.76-.51,10.67s-6.76,4.22-8.72,5.15-1.1-8.88.74-10.4C156.94,40.9,162.24,36.82,163.13,37.38Z"/><path class="cls-11" d="M197.61,56.79c.82,1.52-10.13,12.64-11.39,13.72s-13.81,2.7-17.84,3,9.12-13,12.57-14.76C182.39,58.07,196.89,55.47,197.61,56.79Z"/><path class="cls-11" d="M132.93,0c-1.74-.22-6.51,18.29-6.89,20.32S130.14,38,131.75,43s7.34-17.29,7.25-22.23C139,18.67,134.45.19,132.93,0Z"/><path class="cls-12" d="M142.85,112.82s-2.8,3.53-9.63,3.47c-8.81-.06-9.64-3.47-9.64-3.47v-9.57s2.63,3.71,9.64,3.35c7.89-.4,9.63-3.35,9.63-3.35Z"/><path class="cls-13" d="M150.09,78.41c0,12.3-7.55,22.27-16.87,22.27s-16.09-10-16.09-22.33,6.77-22.2,16.09-22.2S150.09,66.12,150.09,78.41Z"/><path class="cls-14" d="M133.58,63.81S125,65.49,123,68.6s-4.31,8.59-4.31,12.21c0,3.23-1.91,4.31-2,3.35-.25-2-3.71-10.29-3.71-14.36s2.39-11.25,8.62-13.89,15.56-5.5,17.47-2.63,3.83,2.63,6,2.39,7.66,6.47,7.66,9.34-.48,15.56-2.76,18.43c-1.05,1.33-.6-10-3-13.4s-5,0-6.46-1.68S137.41,63.57,133.58,63.81Z"/><path class="cls-13" d="M246.5,166.74c-.18-3.59-8.41-2.6-12.66-1.78-8.14,1.57-13.66,6.68-12.33,11.4s9,7.28,17.16,5.71c6.19-1.2,9-6,8.47-12.67C247.07,168.51,246.54,167.45,246.5,166.74Z"/><path class="cls-13" d="M38.08,180.15c-1.53-3.32-8.67-3.82-11.43-4.19s-21.2,2.41-17.93,4.36c1.2.72,4.24.7,6.74.87a15.29,15.29,0,0,1-6.7,1c-5.35-.2-8.9-2.84-8.76-.51.22,3.58,10.89,8.49,20.36,7.78,4.34-.32,13.74-.49,17-3.74C38.83,184.33,38.62,181.32,38.08,180.15Z"/><path class="cls-8" d="M240.74,288.57c-1.4-9.67,9.4-59.91,11.72-67.46s-9.52-22.76-10.63-29.05.68-27.57,2.32-31.32,3.25-14.28,3.25-14.28-7.37-16.62-8.2-19.06,4.68-25.16,5.41-29.92S232.27,59,233.35,56.62s25-28.41,28.82-28.2,18.21,27.33,17.5,31.6-8.83,13-11.2,12.36-4.08-4.44-7.43-4.62-8.08,1.17-10.1,3.69a4.87,4.87,0,0,0-.84,1.44c2.46,2.68,5.32,5,7.7,7.8,2.93,3.41,10.25.8,14.56-1.06a74.47,74.47,0,0,0,6.49-3.82c6.51-4.5,11.45-8,10.46-16.71-.33-2.9-13-35.21-18.11-38.36S252.86,23.13,245.84,29,221.22,50.22,222,54.1,225.82,72,225.82,72s-6.17,26-5.94,30.85,7.92,13.36,9.13,17.74-.66,12.43-2.27,15.7S232.2,151,232.2,151l2.64,13.56-1.33,25.1s-3.36,9.18-4.52,13-6.6,25.06-9.09,26.85,7.19,27.22,8.32,33-.63,21.06-1.24,23.42-5.63,70.18-5.8,73.53-3.88,19-1,19.6,4,6.44,4,6.44l.5,8.66s8.8,5.73,13.46-.73a37.41,37.41,0,0,0,6-13.11,45.31,45.31,0,0,0,2.42-18.57C245.56,351.63,242.15,298.23,240.74,288.57Zm-8.4-176.63s-6.39-8.25-7-10.44,4.54-17.74,4.54-17.74c1.3,2.59,5.26,9.27,5.85,11.82S232.34,111.94,232.34,111.94Zm10.38,109.85c-.85,2.47-7.2,34.14-7.2,34.14s-4.92-22.55-5.47-25.82S239,207.68,239,207.68C241.36,210,243.57,219.32,242.72,221.79Z"/><path class="cls-13" d="M246.68,174.28c.62-2.33,1.25-8-1-8.79-1.62-.57-3.8,1.92-4.83,3.53-1.62,2.53-2.6,5.48-1.37,8.66,1.32,3.44,3.42,3.88,5.28,1.13A15.23,15.23,0,0,0,246.68,174.28Z"/><path class="cls-13" d="M239.14,166c2.57-3.84-4-2.2-6.21-1.38-4.25,1.6-8.23,5.37-6.17,6.87.65.47,5.39-1.46,6.28-1.55C235,169.78,238,167.78,239.14,166Z"/><path class="cls-15" d="M263.8,66.56c1.75.41,5.74,3.6-.84,6-1.47.53-7.3,2.27-12.09-1.08a16.46,16.46,0,0,1-7.06-10.41c-1-5.41,2.27-15.38,12.21-18.37,5.43-1.64,16.67,1.2,15.44,5.2-.77,2.47-3.76.06-5.65.72-3.89,1.37-.29,3.24.62,3.41,1.61,3.59-2.45,3.1-4.41,3.12-.63,0-3.49.25-3.59,1.19s5.73,3.75.82,4.13c-1.29.1-5.08-2-5.54-.89-.88,2.19.09,4.71,1.71,6.88C256.81,68.32,262.24,66.21,263.8,66.56Z"/><path class="cls-16" d="M85.44,94.39c-4.36.15-9.8.57-10.15,1.62-.62,1.86,6.38,8,9,10.12a41.22,41.22,0,0,1,4-5.16Q86.81,97.7,85.44,94.39Z"/><path class="cls-16" d="M102.57,47.23c2.21,0,4.42-.09,6.62-.07.18-1.73.36-3.45.53-5.17-2.52-2-7-5.42-7.86-4.91-1.23.77-.12,7.68.36,10Z"/><path class="cls-16" d="M84.38,58.78c-4.64-1-13.35-2.29-13.9-1.27-.75,1.39,8.33,10.79,10.85,13.22,2-.85,4-1.7,6.08-2.49C86.23,65.11,85.23,61.93,84.38,58.78Z"/><path class="cls-16" d="M175.67,103c2.26,1.69,4.45,3.46,6.64,5.24,2.08-1.61,10.08-8.49,9.41-10.48-.4-1.21-7.72-1.59-12.17-1.66-1.41,2.21-2.83,4.42-4.26,6.61Z"/><path class="cls-16" d="M163.13,37.38c-.86-.55-5.88,3.28-8.27,5.24.33,1.88.67,3.75,1,5.63,2.24,0,4.49,0,6.71-.13a.43.43,0,0,1,0-.07C162.89,47.14,164.54,38.26,163.13,37.38Z"/><path class="cls-16" d="M182,68.37c1.52.5,3.15,1,4.78,1.61,2.55-2.46,11.56-11.81,10.82-13.19s-15.22,1.28-16.66,2a5.33,5.33,0,0,0-.77.46c-.74,2.6-1.56,5.18-2.4,7.75C179.39,67.47,180.88,68,182,68.37Z"/><path class="cls-16" d="M138.81,19.36C137.94,14.55,134.27.17,132.93,0c-1.74-.22-6.51,18.29-6.89,20.32v.14c1.95,1.92,3.86,3.86,5.75,5.83C134.05,23.88,136.4,21.57,138.81,19.36Z"/></g></g></svg>