<svg xmlns="http://www.w3.org/2000/svg" viewBox="0 0 860.91 718.64"><defs><style>.cls-1{fill:#af5d04;}.cls-2{fill:#161514;}.cls-3{fill:#b78821;}.cls-4{fill:#af2020;}.cls-5{fill:#557f13;}.cls-6{fill:#9faf3f;}.cls-7{fill:#799120;}.cls-8{fill:#b7a688;}.cls-9{fill:#f2e2c2;}.cls-10{fill:#514324;}.cls-11{fill:#6d5c32;}.cls-12{fill:#82724d;}.cls-13{fill:#66552e;}.cls-14{fill:#544629;}.cls-15{fill:#cebe9d;}.cls-16{fill:#564b36;}.cls-17{fill:#493a1d;}.cls-18{fill:#333231;}</style></defs><g id="Layer_2" data-name="Layer 2"><g id="Capa_2" data-name="Capa 2"><path class="cls-1" d="M248.42,231.29c0,.05,0,0,.13-.12A.81.81,0,0,0,248.42,231.29Z"/><path class="cls-1" d="M251,284.61h0Z"/><path class="cls-1" d="M284.13,199.74l-.16-.31A.59.59,0,0,0,284.13,199.74Z"/><path class="cls-1" d="M367,179.27l9.11-4.12-14.53,12.57s-19.29-6.72-45.3,10.62a13,13,0,0,1,3.9.65c1.74.65-3.68,9.32-19.94,6.07-12.77-2.55-15.51-4.57-16.1-5.32,1.1,2.07,7.94,13.7,22.17,12.91,0,0-17.13,4.55-25.36-2.17s-21.25,4.12-21.25,4.12,14.74-5.64,21.25,1.52c4,4.35,6.94,5.65,8.68,6,1.1.06,1.72.07,1.72.07a4.12,4.12,0,0,1-1.72-.07,69.86,69.86,0,0,1-17.35-3.4c-9.67-3.23-22.33,10.95-23.72,12.45,1.48-1.22,15.91-9.41,31.74-3.78,0,0-32.73-.65-30.35,24.71,0,0,4.55-11.71,22.54-11.92,0,0-19.29,5.63-16.9,20.59s-5.64,17.12-5.64,17.12,16-1.08,16.26-18.42c0,0,5.85,15.17-4.12,20.37-9.64,5-11,4.79-11,4.77.09,0,17.13,5.18,22.54-6.28,0,0-4.34,13-11.27,13.65s-16,18.21-1.09,28,104.34-43.35,104.34-43.35L404.85,202l-9-34.9S373.71,165.18,367,179.27Z"/><path class="cls-1" d="M291.34,222.19s-.62,0-1.72-.07A4.12,4.12,0,0,0,291.34,222.19Z"/><path class="cls-1" d="M400.7,163.77c-12.14,4.12-12.9,13.55-12.9,13.55l7.48-2.61s-7.91,11.6-12.25,12.9,19.29,12.79,19.29,12.79l12.14.22,12-39.78S412.84,159.65,400.7,163.77Z"/><path class="cls-2" d="M313.45,210.91s16.91,3.25,17.78,15.39,2.16-10.4-31.22,2.17c0,0,11.27,3.47,12.79,11.92s-6.28-6.5-29.91,7.16c0,0,19.72.21,21,7.37s-14.09-1.95-29,12.35c0,0,18,.44,20.59,7.15S282.24,276.81,275.3,292l27.53,2.17,21.89-34.25,21.46-53.1S333.39,196,313.45,210.91Z"/><polygon class="cls-2" points="452.25 203.18 459.19 186.71 432.89 208.67 433.46 243.65 465.26 221.1 450.81 221.97 477.97 193.36 452.25 203.18"/><path class="cls-2" d="M431.59,184.69l-18.21,49.85s28.61,50.29,42.48,3S431.59,184.69,431.59,184.69Z"/><path class="cls-3" d="M376.9,296.06c-51.44,13.2-73.5,39-81.8,48.69-.84,1-1.8,2.1-2.12,2.4a4.13,4.13,0,0,1,1.11-.65L298.28,357c1.83-.74,3-2,5.39-4.89,7.67-9,28-32.79,76-45.1,61.65-15.81,144.19-6.73,245.33,27l3.57-10.69C525.36,288.86,440.68,279.7,376.9,296.06Z"/><path class="cls-2" d="M824.05,309.39s20.68,38.65,12.58,44.39-15.86-43.6-15.86-43.6L815.25,307S827.32,384.86,842,364s-15.34-61.37-15.34-61.37Z"/><path class="cls-4" d="M306.43,335.55s21.1,19.37,25.73,10.69-4.63-26.87-4.63-28Z"/><path class="cls-2" d="M236.42,275.08,221,269.22l-8,20.38s36.85,30.13,70.23,19.07S282.16,333,282.16,333s-31,4.77-54-10.84-21.67-17.34-21.67-17.34l-16.69,2,.65,21.9S245.52,352,276.09,341s31.43-38.8,31.43-38.8l-18.21-5S250.94,303.69,236.42,275.08Z"/><path class="cls-5" d="M552.24,262.5l-3.9,4.77s1.19,9.54,16.91,10.51,19.72-6,19.72-6l2.22-5.13,3.31-2.56,1.63-4.34-12.25.11S552.57,262.5,552.24,262.5Z"/><path class="cls-5" d="M565.73,268.11c-2.79,4-9.51-4.05-9.51-4.05l-.29,7,.19,6s13.27,3,18.46.38,11.15-16.05,11.15-16.05l-8.65-6.63S568.52,264.08,565.73,268.11Z"/><path class="cls-2" d="M586.63,234c-.48.48-20.07,56.76-26.22,74.46-2.48.59-5.56,4.08-7.89,9.38-3.24,7.36-3.81,15.42-1.2,17.88s7.4-1.74,10.58-9.29c2.66-6.32,3.32-12.88,1.85-16.08L598,242.17Z"/><polygon class="cls-2" points="582 240.05 595.43 251.32 697.74 23.46 695.75 0 582 240.05"/><polygon class="cls-4" points="564.99 228.82 612.48 266.85 613.25 260.18 567.71 224.38 564.99 228.82"/><path class="cls-6" d="M579.86,252.12a3.88,3.88,0,0,0-4.65-.52s-1.24,7.75-4.13,9.61c0,0-.06,1.4,2.58.62s3.2-2.38,3.2-2.38l2.48,3.93,3.51-7.64A16.13,16.13,0,0,0,579.86,252.12Z"/><path class="cls-5" d="M467.7,308.38C416.26,292.2,344,336.13,344,336.13H320.89l-15,53.18c11,5.2,19.65,15.61,21.38,15.61s128.33,15.6,128.33,15.6L493.17,358S519.15,324.57,467.7,308.38Z"/><path class="cls-2" d="M320.89,336.13l-8.79,31.1a57.64,57.64,0,0,1,8.5-1.91c31.79-4.62,47.11,19.36,47.11,19.36s.24-53.35,11.33-65.6a262.64,262.64,0,0,0-35,17.05Z"/><path class="cls-6" d="M525.36,259.68c-16-1.73-36,2.17-36,2.17-11.7-18.21-39.88-18.21-39.88-18.21,0-14.3-30.44-36-30.44-36L410.91,258s2.17,4.34,10.41,12.14,63.73,17.77,70.23,19.07c4.31.87,35.32-4.75,55.72-8.64-.09-2.7,4.34-12.69,8.06-19.76A294,294,0,0,1,525.36,259.68Z"/><path class="cls-5" d="M484.76,269.94s-28.9,1.45-40.18-4.91-1.15-10.11-1.15-10.11l-22.82-16.1L410.91,258s2.17,4.34,10.41,12.14,63.73,17.77,70.23,19.07c4.25.86,34.45-4.6,54.85-8.47l-64.82-3.23Z"/><path class="cls-2" d="M562.36,263.15a10.85,10.85,0,0,0,2.18-2.53c-4.48.11-14.49.28-24.53,0l-2.51,2.7s-2.6,12.14-2.17,12.57c.26.25,1.57,3.56,2.75,6.38,10.78-2,20.34-3.87,24.69-4.73C562.57,275.73,561.29,263.69,562.36,263.15Z"/><path class="cls-7" d="M282.36,298.92l36.37,37.14s38.65-48.5,59.87-48.5,43.2-9.85,48.5-48.5L405.88,189.8S302.06,194.35,282.36,298.92Z"/><path class="cls-8" d="M775.07,404.05c1.52,0,3.91.43,17.56-3.9s20.38-34.68,20.59-35.33S785.7,385,785.05,385.63Z"/><path class="cls-9" d="M772,396.25,769.66,414a37.4,37.4,0,0,0,21-12.79c9.32-11.05,7.8-41.4,7.8-41.4S772.69,396,772,396.25Z"/><path class="cls-10" d="M178.38,583s-22.11,80.6-34.95,97c0,0,25.68,5,39.23-7.14s17.12-59.2,17.12-59.2l49.94,5s-5-7.84-.72-6.42,27.11,5.71,39.23-15l-35.66-77S234,615.82,178.38,583Z"/><path class="cls-10" d="M772.47,578.76C744.73,540.61,685.77,395,685.77,395l-34.68,137c-7.52,2.31,34.68,30.64,34.68,30.64l33,5.2-15.61,7.51,31.21,5.78-5.2,8.1,25.43.57s46.83,71.68,63,76.88,43.35.58,43.35.58S800.22,616.91,772.47,578.76Z"/><path class="cls-1" d="M449.05,158.1,434.3,181.16s6.3,4,17.52-4S449.05,158.1,449.05,158.1Z"/><path class="cls-7" d="M435.86,173.43c-5.54.3-43.32,27.67-43.32,27.67L403.29,238c.45.46,11.74,4.75,11.74,4.75s33.74-51.05,33.19-51.68S441.4,173.12,435.86,173.43Z"/><path class="cls-6" d="M430,218,417.55,187.2l2,36.16,23.33,9.25s-3.41-63.15-3.94-63.88S430,218,430,218Z"/><path class="cls-1" d="M443.39,188.82a9.8,9.8,0,0,0-1-.23c-21.09-4.19-9.68-23.27-9.68-23.27L413.81,163s-16.18,19.36-11.27,34.25l3.9-3.18s-7.22,7.8,2,18.5l1.58-5.5s4.05,11.71,10.84,16.19l.73-4.34S441,236.85,444.16,246.1l4.48.58S463.06,194.45,443.39,188.82Z"/><path class="cls-6" d="M421.68,157.48c-.55.32-.54,11.21-.82,12.23a33.36,33.36,0,0,0,1.83,5.86c4.7,4.41,10.19,10.52,9.91,13.88-.46,5.59,1.8-1.49,1.8-1.49l3,1-1.06.88s-1.26,1.64,1.32,4.2,4,2.73,4,2.73,0-5.49,2.24-5.23a35.85,35.85,0,0,0,3.72-.22l1.52-6.06,5.34.35a90,90,0,0,0-3.57-28.19Z"/><path class="cls-7" d="M441.38,168.54l-2.69-.43L435,169.23s1,5.37,4.59,6.47,6.87-1.92,6.87-1.92l-1.09-1.07Z"/><path class="cls-4" d="M437.06,174.24a48.34,48.34,0,0,1,5.63,1.87l.23-2.67C441.87,172.52,437.06,174.24,437.06,174.24Z"/><path class="cls-7" d="M422.87,169.78l-.37-9.59-1.24.75c-.16,3.38-.22,8.11-.4,8.77a33.36,33.36,0,0,0,1.83,5.86c4.7,4.41,10.19,10.52,9.91,13.88-.46,5.59,1.8-1.49,1.8-1.49l3,1-1.06.88s-1.26,1.64,1.32,4.2a17.23,17.23,0,0,0,1.38,1.24C438,180.74,422.87,169.78,422.87,169.78Z"/><path class="cls-1" d="M441.5,166.89s-6.24,1.52-7.19,2.43c-.24.23,5.85-.29,5.85-.29s3.86,4.95,6.68,5.72l1.23-2.18A45,45,0,0,1,441.5,166.89Z"/><path class="cls-6" d="M417.31,174.69c-.49-1.11-2.26-4.15-6.85-3.48-5.59.82,3.16,14.63,6.77,13.38s.23-9.5.23-9.5A3.09,3.09,0,0,0,417.31,174.69Z"/><path class="cls-7" d="M417.41,177.21c-.49-1.12-2.27-4.16-6.85-3.48a1.89,1.89,0,0,0-1.69,1.37c1.1,4.26,5.91,10.34,8.36,9.49a2.62,2.62,0,0,0,1.61-2.42,24.14,24.14,0,0,0-1.28-4.57S417.51,177.45,417.41,177.21Z"/><path class="cls-1" d="M416.52,165.9c11.52,6.68,24.92-7.33,24.92-7.33l-28.39,2.76S405,159.23,416.52,165.9Z"/><path class="cls-7" d="M441.47,189.13c-.59-.49-3.36,2.92-3.36,2.92l3.36-2s1.09.59,4.55.43a12.32,12.32,0,0,0,1.9-.22l.28-1.1C446.19,189.75,442,189.53,441.47,189.13Z"/><path class="cls-7" d="M447.84,182.41c-1.95-.11-5,.38-5.09-.43s2.11-2.88,2.11-2.88c-3.09.38-4.06,4.23-4.06,4.23l5,.87s-1.68-.54.55-.49a12.41,12.41,0,0,1,4.33,1S449.79,182.52,447.84,182.41Z"/><path class="cls-1" d="M433.68,187.65c-4.23,3.54-3.79,6.75-3.21,7.73a7.43,7.43,0,0,0,1.37,1.66l4.59-1.26c0-.65,1.05-8.2,5.85-9.9A8.82,8.82,0,0,0,433.68,187.65Z"/><path class="cls-10" d="M526.23,282.66s1.74,50.29,16,62.43,74.57,23.84,74.57,23.84L599.5,315.18Z"/><path class="cls-11" d="M139.55,488.31c-25-5.95-67.91-8.74-130.45,11.6L0,540.23s63.12-51.38,137.55-41.56c14.48,14.54,61.65,55.09,148.56,68.87C392.75,584.45,502,639.07,502,639.07l166.47-62.43s49.42-31.21,57.22-55.92,37.72-87.13,37.72-87.13l31.21-20.81,9.1-22.11-49.42-1.3c19.51-36.41,74.13-53.32,74.13-53.32l9.1-74.13-27.31,18.21C407.58,309.39,180.87,458.73,139.55,488.31Z"/><path class="cls-10" d="M603.1,306.14c-30.82,6-60.15,12.66-88,19.75,38.58,11.65,98.61,27.62,118.48,10.53C644.24,327.27,627.94,316.33,603.1,306.14Z"/><path class="cls-2" d="M679.27,347s19.07,20.66,45.08,9.43C724.35,356.45,710.91,335.79,679.27,347Z"/><path class="cls-4" d="M689,349.05s10.86,11.77,25.68,5.37C714.65,354.42,707,342.65,689,349.05Z"/><path class="cls-12" d="M809.65,280.17c2.29,13.74,4.78,41,11.87,58.33,4.29-1.64,6.9-2.45,6.9-2.45l9.1-74.13-27.31,18.21Z"/><path class="cls-11" d="M335.92,372l17.34.87S257.88,402.32,264,402.32s37.28-1.74,37.28-1.74-104,31.22-101.44,32.08,29.48,6.07,29.48,6.07-76.3,26.88-72,26.88,120.52,26.88,120.52,26.88L446.9,480.35,414,357.23Z"/><path class="cls-11" d="M579.56,482.08l-215,85.84c16.47,6.07,64.16,39.89,64.16,39.89s-25.15,14.74-20.81,15.6,35.55-2.6,35.55-2.6l-15.61,13.87,57.23-4.33-13,20.81,93.64-27.75S538.8,652,545.74,650.29s79.77-52.89,79.77-52.89l-9.54,33,48.56-47.69s-7.81,29.48-3.47,29.48,89.3-58.09,67.63-136.13S579.56,482.08,579.56,482.08Z"/><path class="cls-11" d="M630.71,540.61c-2.6,1.73,19.94,91,23.41,94.51s-32.08,4.33-75.43,27.74S557,716.62,557,716.62c5.21-28.61,122.26-65,122.26-65L687.94,525l-9.54-34.68S633.31,538.88,630.71,540.61Z"/><path class="cls-11" d="M332.59,642.2l-12.1-21.41,18.62,5.58L327,602.17l12.1.93-29.79-62.38-71.69-11.17C246,540.72,294.42,631,294.42,631l-19.55-.93s36.31,81.92,58.65,85.65S381,718.54,381,718.54l-71.68-70.76Z"/><path class="cls-13" d="M581.29,583.53c-3.47-.87,25.14-31.22,25.14-31.22l-51.15-14.73L577,503.76,507.59,518.5l70.23-45.09-34.68,4.34,33-32.95s-66.77,5.2-69.37,5.2S531,407.52,531,407.52s-76.3,5.2-85,4.33,26-23.41,26-23.41L375.8,391l33.81-13-101.52,9c-23.69,7.56-47.25,15.31-44.14,15.31,5.28,0,29.59-1.32,35.82-1.66l-2.58,1.14c-19.12,5.75-99.69,30.1-97.4,30.86,1.81.61,15.4,3.31,23.48,4.9q-9.24,4.9-17.55,9.55c-22,7.89-51.14,18.5-48.42,18.5.82,0,5.56.95,12.74,2.48-14.2,8.85-24.37,15.84-30.49,20.22-25-5.95-67.91-8.74-130.45,11.6L0,540.23s63.12-51.38,137.55-41.56c11.68,11.73,44.63,40.37,102.54,58.25-11.17,22.73-30.66,44.39-61.71,26.09,0,0-12.76,46.51-24.52,76.06l18.69,19.5a28.77,28.77,0,0,0,10.11-5.69c13.56-12.12,17.12-59.2,17.12-59.2l49.94,5s-5-7.84-.72-6.42c3.52,1.18,19.6,4.27,31.94-6.19,7.8,14.37,13.48,25,13.48,25l-19.55-.93s36.31,81.92,58.65,85.65S381,718.54,381,718.54l-71.68-70.76,23.27-5.58-12.1-21.41,18.62,5.58L327,602.17l12.1.93L325.9,575.44C363,584.17,398.59,596.13,428,607.33l.68.48s-25.15,14.74-20.81,15.6,35.55-2.6,35.55-2.6l-15.61,13.87,55.85-4.23,1,.47L472,651.16l93.64-27.75S538.8,652,545.74,650.29c4.86-1.21,42.11-26.72,63.94-41.86,26-22.11,45.31-42.24,45.31-42.24S584.76,584.4,581.29,583.53Z"/><path class="cls-13" d="M581.29,583.53c-3.47-.87,25.14-31.22,25.14-31.22l-51.15-14.73L577,503.76,507.59,518.5l70.23-45.09-34.68,4.34,33-32.95s-66.77,5.2-69.37,5.2S531,407.52,531,407.52s-76.3,5.2-85,4.33,26-23.41,26-23.41L375.8,391l33.81-13-101.52,9c-23.69,7.56-47.25,15.31-44.14,15.31,5.28,0,29.59-1.32,35.82-1.66l-2.58,1.14c-19.12,5.75-99.69,30.1-97.4,30.86,1.81.61,15.4,3.31,23.48,4.9q-9.24,4.9-17.55,9.55c-22,7.89-51.14,18.5-48.42,18.5.82,0,5.56.95,12.74,2.48-14.2,8.85-24.37,15.84-30.49,20.22-25-5.95-67.91-8.74-130.45,11.6L0,540.23s63.12-51.38,137.55-41.56c11.68,11.73,44.63,40.37,102.54,58.25-11.17,22.73-30.66,44.39-61.71,26.09,0,0-12.76,46.51-24.52,76.06l18.69,19.5a28.77,28.77,0,0,0,10.11-5.69c13.56-12.12,17.12-59.2,17.12-59.2l49.94,5s-5-7.84-.72-6.42c3.52,1.18,19.6,4.27,31.94-6.19,7.8,14.37,13.48,25,13.48,25l-19.55-.93s36.31,81.92,58.65,85.65S381,718.54,381,718.54l-71.68-70.76,23.27-5.58-12.1-21.41,18.62,5.58L327,602.17l12.1.93L325.9,575.44C363,584.17,398.59,596.13,428,607.33l.68.48s-25.15,14.74-20.81,15.6,35.55-2.6,35.55-2.6l-15.61,13.87,55.85-4.23,1,.47L472,651.16l93.64-27.75S538.8,652,545.74,650.29c4.86-1.21,42.11-26.72,63.94-41.86,26-22.11,45.31-42.24,45.31-42.24S584.76,584.4,581.29,583.53Z"/><path class="cls-14" d="M298.89,390c-20.18,6.49-37.65,12.36-34.94,12.36,5.28,0,29.59-1.32,35.82-1.66l-2.58,1.14c-6.49,1.95-20.06,6.05-35.06,10.63,34.38,22.64,107.55,70.66,110.2,71.1,3.47.58-1.16,20.81,0,23.12s78.53,34.29,102.31,60.11,24.28,12.14,24.28,12.14L404.7,448.27S335.7,410.15,298.89,390Z"/><path class="cls-14" d="M761.17,430.64h0l-1.25,0h0c-61.25-1.17-92.14,1.05-105.2,2.5a26,26,0,0,0-41.06-6.6l-96-44h0l-.11,0-1.07-.49a5.2,5.2,0,1,0-4.33,9.46l95.57,43.78a26,26,0,0,0,32.17,34.71,109.67,109.67,0,0,1,21.1,20.75l.72.92.82,1.08c12.44,16.55,27.51,45.52,28.66,89.54a5.23,5.23,0,0,0,2.2,4.11c2.67-2.79,5.36-5.77,8-8.94-.11-2.41-.25-4.79-.44-7.1h0c-.07-.86-.15-1.71-.23-2.56h0q-.49-5.28-1.25-10.26h0c-.12-.86-.26-1.72-.4-2.56h0q-.87-5.25-2-10.16h0c-.19-.85-.39-1.69-.59-2.53h0q-1.26-5.21-2.74-10l0,0c-.25-.83-.51-1.65-.78-2.47l-.05,0q-1.65-5.13-3.52-9.79l.05,0c-.32-.81-.65-1.61-1-2.41l-.05,0q-2.08-5-4.33-9.47l0,0c-.4-.79-.79-1.56-1.19-2.32l0,0c-1.69-3.24-3.42-6.26-5.15-9.07h0c-.46-.75-.93-1.49-1.39-2.21h0c-2-3.11-4-5.95-5.94-8.5l0-.07h0l-.36-.47c-.37-.49-.75-1-1.12-1.44l-.12-.16h0a130.09,130.09,0,0,0-8.62-9.85h0a114.07,114.07,0,0,0-10.67-9.77,25.93,25.93,0,0,0,8.21-19c0-.65,0-1.3-.08-2,12.6-1.28,40-3.11,90.73-2.45l1.28,0h0c3.32,0,6.75.1,10.27.17,2.19-4.64,3.53-7.43,3.53-7.43l1.64-1.1A5.19,5.19,0,0,0,761.17,430.64ZM641.65,458.58l-.4-.24h0l-.35-.21-.11-.07-.07,0-.22-.13h0a5.2,5.2,0,0,0-7.69,4c-.37,0-.74.05-1.12.05a16.67,16.67,0,0,1-15.5-22.85,5.2,5.2,0,0,0,6-7.59A16.66,16.66,0,0,1,644.83,435a5.21,5.21,0,0,0,2.94,9.5l.54,0c0,.25,0,.5,0,.75A16.64,16.64,0,0,1,641.65,458.58Z"/><path class="cls-14" d="M371.64,486.24l0-.11h0a5.2,5.2,0,0,0-9.81,3.46,222,222,0,0,1,8.3,34.07h0c.12.79.25,1.59.36,2.39h0c.46,3.11.85,6.32,1.14,9.57h0c.07.79.13,1.59.19,2.39h0c.23,3.17.37,6.36.38,9.54h-.06v.15c0,.75,0,1.49,0,2.23h.06a94.11,94.11,0,0,1-.6,9.41h-.07c-.09.78-.19,1.55-.3,2.32h.07a66.89,66.89,0,0,1-1.92,9l0,0c-.21.74-.44,1.46-.67,2.18l.05,0a46.4,46.4,0,0,1-3.59,8.16h0c-.36.64-.74,1.27-1.12,1.88h0c-.49.77-1,1.5-1.56,2.23l3.78,1.11,1.32.4,5.25,1.6.11,0q.66-1,1.29-2.16h0a56.52,56.52,0,0,0,4.35-10h0c.28-.84.54-1.7.79-2.57h0a78.48,78.48,0,0,0,2.2-10.39h0c.07-.53.14-1.07.2-1.6l0-.23c0-.26.07-.52.1-.78h0C385.69,527.36,372.73,489.37,371.64,486.24Z"/><path class="cls-14" d="M493.45,521.23c0-3.58-.09-7.1-.2-10.53h0c0-.89-.06-1.76-.09-2.63h0c-.13-3.62-.31-7.13-.52-10.5h0c-.06-.89-.11-1.76-.17-2.62h0c-.24-3.69-.52-7.2-.8-10.48h0q-.12-1.32-.24-2.61h0c-.35-3.85-.71-7.35-1.05-10.43h0c-.1-.91-.2-1.78-.29-2.61h0c-.25-2.22-.48-4.17-.68-5.8-.22-1.89-.42-3.49-.52-4.54,0-.12,0-.22,0-.32l0-.25c0-.09,0-.16,0-.24s0-.11,0-.15a5.2,5.2,0,1,0-10.39.57c0,.06,0,.13,0,.2a.76.76,0,0,0,0,.15c0,.08,0,.17,0,.27l0,.18a2.46,2.46,0,0,0,0,.26c0,.15,0,.31.05.48h0c.11,1.11.29,2.61.53,4.63,4.81,40.15,4.88,71.22,1.92,95.24h0c-.11.84-.22,1.69-.34,2.53h0c-.47,3.49-1,6.83-1.6,10h0c-.16.83-.32,1.66-.49,2.48h0c-.69,3.45-1.46,6.71-2.29,9.81h0c-.22.81-.44,1.61-.67,2.42h0q-1.46,5-3.12,9.48h0c-.29.78-.59,1.55-.89,2.32h0q-2,4.83-4.11,9h0c-.35.67-.71,1.34-1.07,2-6.75,12.09-14.83,19.51-22.8,24l18.87-1.43c12.84-12.81,21.75-32,26.62-57.32l.15-.79h0q1-5.09,1.7-10.51h0c.12-.88.24-1.76.35-2.64h0c.39-3.12.74-6.32,1-9.6,0-.32.05-.64.07-1h0l.21-2.63h0c.27-3.54.46-7.06.6-10.56h0c0-.88.07-1.76.1-2.64h0c.11-3.55.16-7.07.17-10.54h0v-.63c0-.68,0-1.35,0-2Z"/><path class="cls-15" d="M637.29,414.89a26,26,0,1,0,26,26A26,26,0,0,0,637.29,414.89Zm0,42.7A16.69,16.69,0,1,1,654,440.9,16.69,16.69,0,0,1,637.29,457.59Z"/><path class="cls-3" d="M370.6,478.62a5.21,5.21,0,0,0-3.18,6.64c.26.74,25.81,74.44-4.15,100.71a5.21,5.21,0,0,0,6.86,7.83c35.19-30.87,8.27-108.7,7.11-112A5.21,5.21,0,0,0,370.6,478.62Z"/><path class="cls-3" d="M494.44,453.18a5.2,5.2,0,0,0-10.39.58c.06,1.11.29,3,.67,6.16,14,117-12.19,157-36.63,169.87A5.2,5.2,0,1,0,453,639c25.71-13.57,40.85-44.56,45-92.13,3.23-37-1.23-74.17-2.9-88.17C494.73,456.05,494.48,454,494.44,453.18Z"/><path class="cls-3" d="M625.52,425l-103.47-47.4a5.2,5.2,0,0,0-4.34,9.46l103.47,47.4a5.2,5.2,0,1,0,4.34-9.46Z"/><path class="cls-3" d="M646.11,453.55a5.2,5.2,0,0,0-5.07,9.08c.13.08,13.56,7.76,27.05,25.71,12.45,16.56,27.52,45.53,28.67,89.54A5.2,5.2,0,0,0,702,583h.14a5.2,5.2,0,0,0,5.06-5.34c-1.23-47.07-17.6-78.18-31.11-96C661.25,462.11,646.72,453.89,646.11,453.55Z"/><path class="cls-3" d="M766.8,426.3c-86.85-1.72-113.33,3.35-114.41,3.57a5.2,5.2,0,0,0,1,10.3,5.83,5.83,0,0,0,1-.09c.26-.06,26.94-5.07,112.18-3.37a5.21,5.21,0,0,0,.2-10.41Z"/><path class="cls-16" d="M367.42,485.26s.15.42.39,1.13l9.87-3.27c-.28-.86-.44-1.32-.44-1.32Z"/><path class="cls-16" d="M374,509.8l10.19-2.11c-.18-.84-.35-1.67-.53-2.48l-10.17,2.21C373.64,508.2,373.81,509,374,509.8Z"/><path class="cls-16" d="M376.08,521.72l10.29-1.5c-.12-.85-.25-1.69-.38-2.52l-10.27,1.63C375.84,520.12,376,520.91,376.08,521.72Z"/><path class="cls-16" d="M377.39,533.68l10.38-.76c-.06-.85-.13-1.7-.2-2.55l-10.37.91C377.27,532.08,377.34,532.88,377.39,533.68Z"/><path class="cls-16" d="M381.27,495.34c-.22-.85-.44-1.67-.66-2.45l-10,2.75.63,2.34Z"/><path class="cls-16" d="M377.76,543.37c0,.74,0,1.49,0,2.23l10.4.2c0-.81,0-1.62,0-2.43v-.15h-10.4Z"/><path class="cls-16" d="M376.82,557.33l10.3,1.48c.13-.86.24-1.73.34-2.6L377.13,555C377,555.78,376.93,556.56,376.82,557.33Z"/><path class="cls-16" d="M374.25,568.53l9.89,3.25c.28-.85.54-1.71.79-2.57l-10-2.86C374.71,567.08,374.49,567.81,374.25,568.53Z"/><path class="cls-16" d="M369.57,578.57l8.78,5.6c.49-.77,1-1.57,1.42-2.39l-9.07-5.09C370.34,577.34,370,578,369.57,578.57Z"/><path class="cls-16" d="M363.28,586l6.85,7.83c.37-.33.74-.66,1.1-1l-7.13-7.58Z"/><path class="cls-16" d="M484.05,453.76c0,.38.07.89.13,1.53l10.35-1.06c0-.44-.08-.8-.09-1.05Z"/><path class="cls-16" d="M456.92,623.9l6.62,8c.72-.6,1.44-1.22,2.14-1.85l-7-7.72C458.12,622.88,457.52,623.39,456.92,623.9Z"/><path class="cls-16" d="M496,467.09c-.1-.9-.19-1.77-.29-2.6l-10.34,1.18c.1.82.19,1.68.29,2.56Z"/><path class="cls-16" d="M465.23,615.4l8.12,6.51c.58-.73,1.15-1.46,1.7-2.21l-8.35-6.21C466.22,614.14,465.73,614.77,465.23,615.4Z"/><path class="cls-16" d="M472,605.33,481,610.4c.45-.8.88-1.6,1.3-2.42l-9.22-4.8C472.74,603.9,472.35,604.62,472,605.33Z"/><path class="cls-16" d="M488.5,506.69l10.4-.33c0-.88,0-1.76-.09-2.63l-10.39.39C488.45,505,488.48,505.83,488.5,506.69Z"/><path class="cls-16" d="M487.91,493.87l10.38-.64c-.05-.88-.11-1.75-.16-2.62l-10.38.69C487.8,492.15,487.86,493,487.91,493.87Z"/><path class="cls-16" d="M487,481.05l10.36-.91c-.08-.89-.15-1.76-.23-2.61l-10.36,1C486.8,479.32,486.88,480.18,487,481.05Z"/><path class="cls-16" d="M487.66,545l10.37.86c.08-.87.15-1.75.21-2.63l-10.37-.77C487.8,543.34,487.74,544.19,487.66,545Z"/><path class="cls-16" d="M477.21,594.21l9.67,3.84c.33-.83.66-1.68,1-2.53l-9.74-3.63C477.81,592.67,477.52,593.44,477.21,594.21Z"/><path class="cls-16" d="M488.69,517c0,.64,0,1.3,0,1.95v.59l10.4,0v-2.65Z"/><path class="cls-16" d="M488.44,532.3l10.4.41.09-2.64-10.4-.32Q488.5,531,488.44,532.3Z"/><path class="cls-16" d="M486.28,557.69l10.31,1.41c.12-.88.23-1.75.34-2.63l-10.32-1.3Q486.46,556.43,486.28,557.69Z"/><path class="cls-16" d="M481.22,582.4l10,2.87c.25-.86.48-1.73.72-2.6L481.89,580C481.67,580.79,481.45,581.6,481.22,582.4Z"/><path class="cls-16" d="M484.18,570.17l10.2,2.07.51-2.62-10.23-1.92C484.51,568.53,484.35,569.35,484.18,570.17Z"/><path class="cls-16" d="M448.08,629.8,453,639l1.25-.67-5.08-9.09Z"/><rect class="cls-16" x="515.27" y="381.99" width="10.4" height="1.3" transform="translate(-44.09 696.62) rotate(-65.4)"/><rect class="cls-16" x="560.67" y="402.18" width="10.4" height="2.53" transform="translate(-36.56 749.92) rotate(-65.39)"/><rect class="cls-16" x="537.69" y="391.65" width="10.4" height="2.53" transform="translate(-40.45 722.8) rotate(-65.38)"/><rect class="cls-16" x="526.2" y="386.39" width="10.4" height="2.53" transform="translate(-42.32 709.37) rotate(-65.39)"/><rect class="cls-16" x="549.18" y="396.91" width="10.4" height="2.53" transform="translate(-38.52 736.33) rotate(-65.38)"/><rect class="cls-16" x="606.62" y="423.23" width="10.4" height="2.53" transform="translate(-28.88 803.99) rotate(-65.39)"/><rect class="cls-16" x="572.16" y="407.44" width="10.4" height="2.53" transform="translate(-34.69 763.35) rotate(-65.38)"/><rect class="cls-16" x="595.13" y="417.97" width="10.4" height="2.53" transform="translate(-30.8 790.47) rotate(-65.39)"/><rect class="cls-16" x="583.65" y="412.7" width="10.4" height="2.53" transform="translate(-32.72 776.95) rotate(-65.39)"/><rect class="cls-16" x="617.55" y="428.85" width="10.4" height="1.3" transform="translate(-26.98 816.97) rotate(-65.4)"/><path class="cls-16" d="M641,462.63c.05,0,.36.21.88.54l5.54-8.81c-.87-.55-1.35-.81-1.35-.81Z"/><path class="cls-16" d="M682,490.11l-8.74,5.65c.43.67.87,1.35,1.29,2l8.85-5.48C682.94,491.57,682.47,490.83,682,490.11Z"/><path class="cls-16" d="M688.57,501.38l-9.21,4.83c.37.71.74,1.43,1.1,2.16l9.3-4.67C689.37,502.92,689,502.15,688.57,501.38Z"/><path class="cls-16" d="M674.4,479.48l-8.16,6.45,1.48,1.91,8.28-6.29C675.47,480.84,674.93,480.15,674.4,479.48Z"/><path class="cls-16" d="M665.77,469.62l-7.47,7.24,1.66,1.75,7.62-7.08C667,470.87,666.37,470.24,665.77,469.62Z"/><path class="cls-16" d="M649.5,468.72l1.83,1.54,6.8-7.87c-.7-.6-1.37-1.17-2-1.7Z"/><path class="cls-16" d="M696,564.36c.08.81.15,1.63.22,2.45l10.37-.86c-.08-.86-.15-1.72-.23-2.57Z"/><path class="cls-16" d="M694.11,513.18l-9.61,4c.31.74.62,1.49.92,2.25l9.67-3.85C694.76,514.77,694.44,514,694.11,513.18Z"/><path class="cls-16" d="M704.66,550.56l-10.27,1.68c.13.8.26,1.61.38,2.42l10.29-1.54C704.93,552.26,704.8,551.41,704.66,550.56Z"/><path class="cls-16" d="M698.61,525.37l-9.9,3.2c.24.77.49,1.54.73,2.32l9.95-3Z"/><path class="cls-16" d="M702.11,537.87,692,540.29c.19.78.37,1.57.55,2.37l10.16-2.26C702.51,539.55,702.31,538.7,702.11,537.87Z"/><path class="cls-16" d="M696.72,576.62c0,.41,0,.84,0,1.26l10.4-.27c0-.45,0-.89,0-1.34Z"/><path class="cls-16" d="M652.39,429.87l2,10.21c.06,0,.4-.08,1.09-.19l-1.63-10.27C652.86,429.78,652.39,429.87,652.39,429.87Z"/><polygon class="cls-16" points="702.27 426.32 702.54 436.72 705.05 436.66 704.8 426.26 702.27 426.32"/><polygon class="cls-16" points="689.6 426.75 690.04 437.14 692.54 437.05 692.14 426.65 689.6 426.75"/><path class="cls-16" d="M676.92,427.4l.65,10.39,2.49-.15-.6-10.39Z"/><path class="cls-16" d="M664.2,428.38l1,10.36,2.47-.22-.9-10.37Z"/><polygon class="cls-16" points="727.58 425.96 727.62 436.36 730.13 436.36 730.11 425.95 727.58 425.96"/><polygon class="cls-16" points="714.93 426.07 715.07 436.47 717.58 436.44 717.46 426.04 714.93 426.07"/><polygon class="cls-16" points="752.72 436.48 755.23 436.51 755.38 426.11 752.85 426.08 752.72 436.48"/><polygon class="cls-16" points="740.17 436.37 742.68 436.38 742.75 425.98 740.22 425.97 740.17 436.37"/><rect class="cls-16" x="760.85" y="430.84" width="10.4" height="1.3" transform="translate(319.68 1188.97) rotate(-88.88)"/><path class="cls-2" d="M347.05,366.77l-72.83,7.8s32.95,95.37,17.34,138.73L323.64,496l8.67,39.89,36.42-33,5.2,26,51.15-26L453.7,526.3l35.54-45.95L504,502l27.75-37.28,6.07,29.48s32.67-107.76-22.68-168.33Z"/><path class="cls-4" d="M502.67,328.92c9.84,14.76,25.24,41.73,30.79,69.49,8.24,41.19,6.07,58.09,6.07,58.09l-5.2-13.43L507,478.18,488.38,460,445,505.06l-23.85-14.31L381.3,510.69l-6.94-23.84L339.68,514.6,333.18,476l-21.68,16s.87-89.3-16-101.44a63.87,63.87,0,0,0-18.93-8.95c7.22,22.89,28.07,95.41,15,131.64L323.64,496l8.67,39.89,36.42-33,5.2,26,51.15-26L453.7,526.3l35.54-45.95L504,502l27.75-37.28,6.07,29.48s32.67-107.76-22.68-168.33Z"/><path class="cls-17" d="M41.7,500.58c-2.31.58,12.14-9.25,12.14-9.25l-1.26-2.69A353.48,353.48,0,0,0,9.1,499.91L0,540.23S21.18,523,53.46,510.4c.94-1.79,1.53-2.88,1.53-2.88l-12.14,1.15,12.14-11S44,500,41.7,500.58Z"/><path class="cls-6" d="M377.61,204.19h0C377.54,204.18,377.55,204.18,377.61,204.19Z"/><path class="cls-6" d="M387.53,204.55s-9.23-.31-9.92-.36L359,218.7s-5.58,22.34-3.1,38.72,39.34,44.3,39.34,44.3,10.53-17.87,10.53-39.09S394,229.12,392.48,224.28,387.53,204.55,387.53,204.55Z"/><path class="cls-6" d="M387.53,204.55s-9.23-.31-9.92-.36L359,218.7s-5.58,22.34-3.1,38.72,39.34,44.3,39.34,44.3,10.53-17.87,10.53-39.09S394,229.12,392.48,224.28,387.53,204.55,387.53,204.55Z"/><path class="cls-6" d="M377.61,204.19h0C377.54,204.18,377.55,204.18,377.61,204.19Z"/><path class="cls-5" d="M390.32,200.73l23.19,37.71s-14.74-39.88-17.34-42.27Z"/><path class="cls-6" d="M386.43,191.57s-27.66-7.58-36,11.74,14,38.65,14,38.65c20.47-7.58,31.45-39.78,31.45-39.78l8.72-3C401.59,186.64,386.43,191.57,386.43,191.57Z"/><path class="cls-7" d="M348.92,360.7A105.9,105.9,0,0,0,320.31,352l9.53-61.56-37.28-13s-35.55,64.16-33.81,86.7,20.81,38.15,20.81,38.15L299.5,411s56.36,61.56,100.58,64.17,16.47-30.35,13-44.22S363.66,367.63,348.92,360.7Z"/><path class="cls-2" d="M292.14,359c-6.65,6.65-9.25,27.17-9.25,27.17L292.14,409l5.78-25.72-.29,13.29,17.92-24.85L312.08,383,332,366.77l-.58,7.8,14.45-9s-1.15,5.49-2,6.65,19.94-8.39,19.94-8.39l-24.56-14.73S298.78,352.31,292.14,359Z"/><path class="cls-5" d="M282.36,298.92l28.72,29.33c5.51,1.2,8.83.94,7.78-1.95-4-11.12,9-25.43,5.78-31.64s4.19-13,4.19-13l3.9,4.19-1.15,5.2,7.08,5.49s-2.75-4.91-2.75-6.21.29-5.92.29-5.92-1.44,0-4-5.5,5.49-14.45,5.49-14.45l4.62,10.41-.58,11.56,6.07,4.91L346.61,287l2-13s-4.62-10.4-5.49-16.47,15-30.35,15-30.35l-4.93-22.87C324.35,218.26,292.41,245.57,282.36,298.92Z"/><path class="cls-2" d="M320.31,352l2.4-15.54-41-38.09c-10.3,20.79-24,51.55-22.93,65.76,1,13.45,8.23,24.43,13.88,31.1,7.7-10,25.43-26.66,48-29.94,15.08-2.19,26.45-1.85,34.24-.88a37,37,0,0,0-5.92-3.74A105.9,105.9,0,0,0,320.31,352Z"/><path class="cls-2" d="M264.68,327.1c-.87,1.08-24.06,28.39-24.06,28.39l9.1-5L240,372l8.89-7.16-4.56,30.78,8-8.67.87,15,4.34-10.19,7.15,18.21.22-15.82,15.82,13s10,7.16,10,6.51-.65-25.8-.65-25.8Z"/><path class="cls-4" d="M304.24,315.84S268.55,351.46,245,361.35s-36.34,7.24-36.34,7.24l-8.78,22.24,22.7,4.38s25.42,3,49.44-25.85S310.21,320,310.21,320l4,16.24s-26.61,37.09-38.54,52-33.43,24.06-33.43,24.06l6.32,23.33,19.27-3.51s10.66-16.64,27.26-39.16,26.18-53.13,26.18-53.13L305,309.31Z"/><path class="cls-4" d="M211.32,310.82l-16.46,14.83,12.95,10.87S227,344.81,252,337.64a120.54,120.54,0,0,0,43.61-23.51l-6.79-14.56S252.07,327.21,211.32,310.82Z"/><polygon class="cls-2" points="283.89 292.63 278.69 301.3 319.44 355.06 328.54 329.92 289.31 297.15 283.89 292.63"/><path class="cls-6" d="M581,253.72c-.28.25-1.69,2-1.69,2l7.24,1.79,4.06,5.78s2.81-.09,3.71-1.78l-4.52-7.6S581.28,253.47,581,253.72Z"/><path class="cls-6" d="M579,255.84c-.31.21-2,1.75-2,1.75l6.92,2.79,3.2,6.31s2.79.3,3.93-1.24l-3.41-8.17S579.34,255.63,579,255.84Z"/><path class="cls-6" d="M577,259.35c-.31.21-2,1.76-2,1.76l6.92,2.79,3.21,6.3s2.79.31,3.92-1.24l-3.41-8.16S577.28,259.14,577,259.35Z"/><path class="cls-6" d="M575,262.35c-.31.2-2,1.75-2,1.75l6.92,2.79,3.2,6.3s2.79.31,3.93-1.24l-3.41-8.16S575.31,262.14,575,262.35Z"/><path class="cls-4" d="M563.62,258.82c-2.82,2.06-5.09,15.5-2.17,19.51s5.31.54,5.31.54a15.78,15.78,0,0,1-2.6-10.73c.65-6.61,3.36-8,3.36-8l.22-.44S566.44,256.76,563.62,258.82Z"/><path class="cls-4" d="M534.47,265.9c-2.17,6.07-1.3,18.06,2.31,18.21s3.76-2,3.76-2a18.6,18.6,0,0,1-2.75-10.55c.43-5.78,4.34-10.54,4.34-10.54C542.56,254.77,536.64,259.83,534.47,265.9Z"/><path class="cls-7" d="M412,440l-5.12.37-17.17,22.65s5.48,40.93,18.27,47.14,48.6,12.79,58.47,30.33,32,42.39,32,42.39l13-4.75s-60.66-103.42-67.6-115.84S412,440,412,440Z"/><path class="cls-4" d="M427.68,480.78s-16.48,10.11-28.21,19c2.36,4.93,5.17,8.85,8.47,10.45,12.79,6.21,48.6,12.79,58.47,30.33s32,42.39,32,42.39l13-4.75s-15.54-26.5-31.79-54.28Z"/><path class="cls-2" d="M508,575l-14,10.69.57,11.71s5.93.58,9.69-2.46,7.65-9.68,17.48-8.81,28.47-10.55,28.47-10.55l-3-6.22Z"/><path class="cls-4" d="M543.78,566.49c-6.07,2.68-47.64-1.5-47.64-1.5l-12.74-12,6.07,13.89s3.33,26.09,8.95,25.76,8.49-7.53,13.05-10,7.73,1,13.95-.33,21.85-8.37,21.85-8.37S549.85,563.82,543.78,566.49Z"/><path class="cls-2" d="M216.57,373.77a8.17,8.17,0,0,0-6.73,9.59A8.61,8.61,0,0,0,220,389.77a8.15,8.15,0,0,0,6.72-9.59A8.6,8.6,0,0,0,216.57,373.77Zm2.57,12.59c-3.06.58-5.95-.91-6.46-3.31s1.56-4.83,4.61-5.41,6,.91,6.46,3.31S222.2,385.78,219.14,386.36Z"/><path class="cls-2" d="M255.5,411.24a8.15,8.15,0,0,0-3.87,11.05,8.61,8.61,0,0,0,11.47,3.43A8.17,8.17,0,0,0,267,414.66,8.61,8.61,0,0,0,255.5,411.24Zm5.89,11.41c-2.78,1.39-6,.75-7.11-1.43s.19-5.07,3-6.45,6-.75,7.11,1.43S264.18,421.27,261.39,422.65Z"/><path class="cls-2" d="M218.31,317.86a8.16,8.16,0,0,0-9.41,7,8.61,8.61,0,0,0,7.59,9.27,8.16,8.16,0,0,0,9.4-7A8.61,8.61,0,0,0,218.31,317.86Zm4.55,9.09c-.27,2.44-3,4.09-6.08,3.67s-5.36-2.73-5.08-5.17,3-4.09,6.08-3.68S223.14,324.5,222.86,327Z"/><path class="cls-6" d="M365.41,373.31c-12.94.11-39.47.39-39.47.39s43.36,13.87,52,28.18-7.81-2.6-36.42-9.54c0,0,58.53,52,62.86,62.86,3.18,7.95,10.55.74,13.23-13.41-2-4.13-3.82-7.92-4.56-10.86C410.51,420.65,384.64,390.88,365.41,373.31Z"/><path class="cls-18" d="M807.88,264.45c-10.4-.86-6.93,8.24-6.93,8.24L644,295.67s-19.94-13.88-15.6,4.33c0,0,40.31,22.11,32.08,46.82,0,0,13.87-20.37,44.65-20.37s42.92,18.21,42.92,18.21,32.51-42.06,72-39.46C820,305.2,818.29,265.32,807.88,264.45Z"/><path class="cls-9" d="M758.17,309.54s23.41,17.34,24.71,34.25-9.76,21-9.76,21l-5.63,6.72s27.53,10,33.16-23.63S773.77,307.37,758.17,309.54Z"/><path class="cls-18" d="M758,288.3l-25.58.43c-56.36-74.57-107.08-67.63-107.08-67.63,51.16,23,60.69,78.47,60.69,78.47L729,297.4l60.26-17.34L706,232.37Z"/><polygon class="cls-18" points="539.75 303.69 552.32 309.32 560.13 294.58 546.9 288.51 539.75 303.69"/><polygon class="cls-4" points="161.5 630.35 182.09 638.8 185.56 627.1 164.32 617.99 161.5 630.35"/><path class="cls-18" d="M182.89,610.69l-14.74,45.09c21.39-1.16,18.78,14.45,18.78,14.45l.87-2.89c15.9-15.32,13.3-51.44,13.3-51.44Z"/><path class="cls-18" d="M195,629.48,190.4,648s21.39,6.64,31.22-11C221.62,637,204.28,643.93,195,629.48Z"/><path class="cls-18" d="M317.86,652.31l-16.47,1.16s13.87,34.68,29.47,42.77,18.5-1.15,36.13,6.36l-47.69-50Z"/><path class="cls-18" d="M326,668.21l9.25,13.29c19.07,0,13.29-26.3,13.29-26.3Z"/><path class="cls-18" d="M565.83,688.15c-10.69,24.28,3.76,17.05,3.76,17.05s58.67-36.12,80.64-43.06L640.11,652S576.53,663.87,565.83,688.15Z"/><path class="cls-18" d="M616.41,671.39,588.67,685s8.67,17.63,53.75,4.63C642.42,689.6,611.21,684.68,616.41,671.39Z"/><path class="cls-18" d="M779.71,585.55l-12.43,4.34S800.8,638.73,815.83,648s30.93,2.89,30.93,2.89C836.06,646.53,779.71,585.55,779.71,585.55Z"/><path class="cls-18" d="M799.65,615.32l16.18,11.56c11.56-15-4.33-36.42-4.33-36.42C813.23,604.62,799.65,615.32,799.65,615.32Z"/><polygon class="cls-4" points="295.24 671.97 301.75 683.45 319.52 681.07 311.5 664.38 295.24 671.97"/><polygon class="cls-4" points="586.21 657.23 591.12 668.93 609.19 662.14 598.2 651.59 586.21 657.23"/><polygon class="cls-4" points="774.36 622.11 783.32 635.12 801.38 631.79 790.11 615.61 774.36 622.11"/><path class="cls-3" d="M559.39,340.73c-14.85,6-73.77,2-112.76-.68-12.91-.88-24.06-1.64-32.85-2-18.42-.83-30,2.31-35.53,9.61a14.7,14.7,0,0,0-2.43,13.15l10.67-3.62a1,1,0,0,1,.06.18,3.55,3.55,0,0,1,.82-3.08c1.45-1.78,6.88-5.84,25.9-5,8.66.4,19.75,1.15,32.6,2,55,3.74,101.78,6.31,117.73-.12,23.72-9.55,26.52-35.93,26.63-37.05L579,313C578.92,313.87,576.68,333.77,559.39,340.73Z"/><path class="cls-12" d="M650.94,326.59s-19.65-40.46-93.06-49.13c0,0,13.87,49.13,30.63,63s67.06-5.78,67.06-5.78L648.63,326Z"/><path class="cls-10" d="M582.16,295.24c-3.28,22.31,9.79,40.54,18.3,49.78,13.44,1.77,31.68-2.74,43.43-6.35C632.4,312.76,582.16,295.24,582.16,295.24Z"/><polygon class="cls-18" points="567.71 315.39 573.78 326.88 590.04 322.76 585.27 310.41 567.71 315.39"/><polygon class="cls-2" points="310.35 322.26 414.39 275.73 421.62 265.03 301.67 313.01 310.35 322.26"/><path class="cls-6" d="M494.21,339.53s-9.13-4.29-12.74-5c-2.62-.5-9.9.75-13.69,1.48-9.46-8.84-26.41-24.56-27.52-30.32-1.55-8-16.31-21.5-21.91-23.55s-14.08-4.57-17-10.61l-28.61,10c.32,1.68,10.94,22.54,17.85,29.54,6,6.1,55.05,29.78,67.49,35.74,6,6.39,14.83,16.19,15.43,16.07.89-.17,4.78-1.62,4.78-1.62l1.6,1.08,6.48-2.41,1.24.46,5.54-2.46-10.58-15.33,13.44.81Z"/><polygon class="cls-2" points="320.6 328.62 326.67 329.48 336.21 318.21 364.39 221.1 354.42 218.5 320.6 328.62"/><path class="cls-5" d="M420.6,318.79c-9.54-8.67-8.1-16.19-8.1-16.19l-14.74-14.45s-6.93,2-14.45-6.93S376.67,215,376.67,215l-9.25,14.16s-11.85-10.11-6.36-24.56c2.77-7.31,11.38-11.65,19.21-14.17-8.65-1-24-.7-29.83,12.85-4.8,11.11.55,22.21,6,29.65-1,7.46-1.66,16.63-.48,24.46C357,264.6,364.71,274,373,282.28c1.66,4.05,11.22,22.37,17.61,28.84,6,6.1,55.05,29.78,67.49,35.74,2.54,2.72,5.6,6.05,8.32,9l-3.34-10.16S430.13,327.46,420.6,318.79Z"/><path class="cls-2" d="M443.86,311.83l-3.61.46-5.93,2.6L428,326.74l-2.32,4,.18.24c12.18,6.14,24.29,12,30.62,15.05.68-2.39,1.51-4.67,2.15-5.17s4.69-3.23,8.25-5.75C459.8,328.57,449.34,318.77,443.86,311.83Z"/><path class="cls-4" d="M444,310.7c-2.46-1.16-16.91,2.45-19.37,18.35,0,0-1,4.91,3.18,2.17,0,0,1.3-8.67,7.66-13s10.26-4.48,10.26-4.48S446.46,311.85,444,310.7Z"/><path class="cls-4" d="M466.69,331.94c-4.33-1.3-12.14,9.25-12.42,13.44s4.48,2.74,4.48,2.74c-2.32-7.51,10.11-13,10.11-13S471,333.24,466.69,331.94Z"/><path class="cls-4" d="M668.43,359.83l-22.54,33.24,13.58,8.67L676,376s5.49,5.21,9.54,5.49l-9,21.1,13.29,3.47,6.94-19.94s21.39,1.16,33.23-4.34l-11.84-9.24S690.69,377.75,668.43,359.83Z"/><path class="cls-2" d="M378.84,182.37c-26-7.51-43.06,12.72-45.37,32.08,0,0,19.94,28,37.28,21.39s15.61-37.57,32.95-37.57C403.7,198.27,404.85,189.89,378.84,182.37Z"/><path class="cls-2" d="M367.86,187.29l-27.75-32.37,15,37s-21.39-12.72-24.28-13,19.08,22.54,19.08,22.54l29.48-10.12-5.2-23.7Z"/><path class="cls-4" d="M400.14,192.3c-18.09-.66-20.54,25.51-29.68,37.18-8.26,10.56-27.44-13.31-35-23.6a41.37,41.37,0,0,0-2,8.57s19.94,28,37.28,21.39,15.61-37.57,32.95-37.57C403.7,198.27,404,195.78,400.14,192.3Z"/><path class="cls-2" d="M412.94,133.32c-25,8.05-20.65,28.24-20.65,28.24l38.61-3.64s21.1,3.8,20.05-2.73S437.93,125.27,412.94,133.32Z"/><polygon class="cls-4" points="390.26 159.25 390.98 168.93 453.99 161.42 452.54 151.59 390.26 159.25"/><path class="cls-2" d="M388.17,102.74C383.53,90.31,375.9,91,375.9,91c12.93,7.3,1.83,30.67,9.29,48.75s32,10.44,32,10.44l-7.62-10.44C384.86,142.7,392.81,115.18,388.17,102.74Z"/><path class="cls-2" d="M429.69,85.83s-6.26,2.32-5.29,13.85,17.47,30.26-3.11,37.09l-2.13,11.07s22.18-3.11,21.34-20.13S422.21,96.39,429.69,85.83Z"/><polygon class="cls-2" points="415.83 155.13 444.66 149.06 453.33 134.76 436.21 143 415.83 155.13"/><path class="cls-2" d="M448.58,244.67h-4.39a2.31,2.31,0,1,0,0,4.61h4.39a2.31,2.31,0,0,0,0-4.61Z"/><path class="cls-2" d="M448.48,248.55l-4.36-.47a2.3,2.3,0,1,0-.49,4.58l4.36.47a2.3,2.3,0,1,0,.49-4.58Z"/><path class="cls-2" d="M448.1,252.45l-4.36-.46a2.3,2.3,0,1,0-.49,4.58l4.36.46a2.3,2.3,0,1,0,.49-4.58Z"/><path class="cls-1" d="M442.07,258.27s-13.1,1-11.54,9.67-5.45,8.8-5.45,8.8,5.66,3.36,8.42-5.6c0,0-.14,7.76-4.46,8.64a10.52,10.52,0,0,1-7.79-1.76s-1.13,7.92,11.83,5.84,11.18-12.64,11.18-12.64,2.12,6.16-1.56,9.36c0,0,5.17,1.44,6.3-8.32s-2.9-15-2.9-15Z"/><path class="cls-2" d="M447.49,256l-4.32-.79a2.3,2.3,0,1,0-.82,4.53l4.31.79a2.3,2.3,0,0,0,.83-4.53Z"/><path class="cls-2" d="M501.82,579.19A90.37,90.37,0,0,1,517,575.51c6.94-.87,19.94,1.3,19.94,1.3l2.17-10L504.42,564Z"/><path class="cls-2" d="M464.32,495.74c-1.74,0-12.79,24.71-12.79,24.71l22.11,22.76s3-8.45,6.93-1.3-1.95,10-1.95,10l19.95,21.68,8.23-10.19S466.05,495.74,464.32,495.74Z"/><path class="cls-2" d="M461.93,492.27c-.75-.21-13.44-34.68-24.27-43.35S408.61,437,408.61,437s-14.52,34.89-3,50.72,30.35,9.1,30.35,9.1a16,16,0,0,0,4.34,18.86c9.53,8.45,28.39,4.12,28.39,4.12S467.35,493.79,461.93,492.27Z"/><polygon class="cls-2" points="514.25 569.08 526.53 569.94 522.19 546.53 514.25 569.08"/><path class="cls-2" d="M543.78,566.49c-2.49,1.1-11,1-20.09.59l-16,4s2.16,12.69-4.58,19.4c2.91-2.42,5.23-6.25,8.31-8,4.55-2.51,7.73,1,14-.33s21.84-8.37,21.84-8.37S549.85,563.82,543.78,566.49Z"/><path class="cls-2" d="M373.17,320.81l.22-5.2-14.85,13.66.76-6.18-12,9,1.08-4.66c-13.11-.32-17.12,10.3-20.27,13.77L346.62,356l14.3,8.56,11.6-2.82,2-9-5.53,2.5,8.78-13.23-6.28.87,8.67-9.86-5.75.76,7.7-10.62-5.42.86,7.8-8.78C377,314.09,373.17,320.81,373.17,320.81Z"/></g></g></svg>