<svg xmlns="http://www.w3.org/2000/svg" viewBox="0 0 371.92 633.74"><defs><style>.cls-1{fill:#ce5300;}.cls-2{fill:#7a3201;}.cls-3{fill:#51471d;}.cls-4{fill:#30290e;}.cls-5{fill:#537c23;}.cls-6{fill:#6e933d;}.cls-7{fill:#8fb554;}.cls-8{fill:#6d6337;}.cls-9{fill:#dbbc77;}.cls-10{fill:#af8c46;}.cls-11{fill:#7a5f34;}.cls-12{fill:#968a56;}.cls-13{fill:#fff;}.cls-14{fill:#3f381c;}.cls-15{fill:#877673;}.cls-16{fill:#8c7f4b;}.cls-17{fill:#706535;}.cls-18{fill:#968951;}.cls-19{fill:#0c090c;}.cls-20{fill:#a59b71;}.cls-21{fill:#4c721c;}.cls-22{fill:#f4d30f;}.cls-23{fill:#991919;}.cls-24{fill:#381f0e;}.cls-25{fill:#664e24;}.cls-26{fill:#7c6135;}.cls-27{fill:#66312d;}.cls-28{fill:#6d6d6d;}.cls-29{fill:#a8a2a1;}.cls-30{fill:#898989;}.cls-31{fill:#666462;}.cls-32{fill:#bca26f;}</style></defs><g id="Layer_2" data-name="Layer 2"><g id="Capa_2" data-name="Capa 2"><path class="cls-1" d="M238.57,350.63s-2.66-19.21-28.77-20.76l-64.94-136c-3.37-1.4-161,30.82-107.67,113.59s198.57,67.68,202.88,99.3-42.7,19.84-42.7,19.84,36.32,27.63,57.49,6.67,1.14-43.3,1.14-43.3,15.62,15,15,22.19c0,0,5.84-22.9-19.23-29,0,0,2.65-4.94,8.94-2.92,0,0-3.73-30.74-42.77-28.91s-38.28-6.12-38.28-6.12S224.24,341.79,238.57,350.63Z"/><path class="cls-2" d="M197.37,426.55s13.07,9.94,28.09,13.37c12.73-5.54,22.81-15.59,22.56-33.54-.67-48.13-83.28-51.41-83.28-51.41l2.72,23.72c38.89,8.82,70.63,13.5,72.61,28C244.38,438.34,197.37,426.55,197.37,426.55Z"/><path class="cls-2" d="M24.49,248.53l10.53-7s-19.8,23.81,13.54,40.61,164.19,13.53,164.19,13.53,32.59-24.31,20.81-49.88c0,0,10.78,5.76,15-2.51,0,0-23.81-2.51-25.57-25.82S212.75,166.06,190.19,158h7.52s-.25-9-27.82-12.29c0,0,7.52.25,7-6,0,0-23.82,2-29.33-12s-32.09-11.78-32.09-11.78L86.91,127S47.3,138.23,44.8,157.79l10.78-7.27s-7.78,15-12,21.56S29,171.57,29,171.57s-.25,8.28,11.28,7.52,6.77,27.08,6.77,27.08S22.23,226.72,24.49,248.53Z"/><path class="cls-1" d="M176.91,139.74s-23.82,2-29.33-12-32.09-11.78-32.09-11.78l-2.9,1.12c5.61,1.64,10.81,4.62,12.93,10,5.51,14,29.33,12,29.33,12,.5,6.27-7,6-7,6,27.57,3.25,27.82,12.28,27.82,12.28h-7.52c22.56,8,31.09,36.1,32.84,59.41s25.57,25.82,25.57,25.82c-4.26,8.27-15,2.51-15,2.51C223.28,270.68,190.69,295,190.69,295s-23.67.59-53.45,0c39.23,1.6,75.51.69,75.51.69s32.59-24.31,20.81-49.88c0,0,10.78,5.76,15-2.51,0,0-23.81-2.51-25.57-25.82S212.75,166.06,190.19,158h7.52s-.25-9-27.82-12.29C169.89,145.75,177.41,146,176.91,139.74Z"/><path class="cls-3" d="M272.23,0s72,44.92,56.19,136.23c0,0-6.27,14.91-12.12,29.54C305.85,191.89,309,204.1,309,204.1l.62,2.44,17.77-1s-6.88-23.44,8.33-50.79S341.54,20.51,272.23,0Z"/><path class="cls-3" d="M46.37,204.23c-3,15.63,16.66,16.13,21.26,16.63a111.82,111.82,0,0,0,17.44,0c6.8-.4,21.8-1.2,29.64-6L99.88,182.78S80.07,178.17,61.72,186l5.5,2.2S49.39,188.59,46.37,204.23Z"/><path class="cls-3" d="M144.87,162.13l1.36,36.38s49.17-3.31,61.8-3.31,22.07,3.31,14.32-11.12-37.68-18.64-37.68-18.64l6.73-5.11C163,156.42,144.87,162.13,144.87,162.13Z"/><path class="cls-3" d="M20,183.41c-7.76,14.43,1.68,11.12,14.31,11.12s61.81,3.31,61.81,3.31l1.35-36.38s-18.12-5.71-46.53-1.8l6.73,5.11S27.75,169,20,183.41Z"/><path class="cls-4" d="M22.74,315l6-7.52s-6,25.06,5,42.11l1-9L35,340c12.65,14.18,53.36,46.6,53.36,46.6s32.7,27.66,64.28,14.84,43.55-46.9,43.55-46.9l4,11.62c12.21-16.43,13.42-59.32,13.42-59.32l5.11,8c7-27.66-4.19-58.53-4.19-58.53l7.69,2c-11.9-71.75-92-91-92-91L105.5,180.18c-56.09,11.62-67.17,68.94-67.17,68.94l5.07-3.61a48,48,0,0,0-7.59,12.6C27.63,271.64,19.07,292.11,22.74,315Z"/><path class="cls-5" d="M53.34,231.51,72,243l12.28-29.29c.2-.69-12-24.9-44.92-29.74s-42.68,36.66-24.09,46.58S53.34,231.51,53.34,231.51Z"/><path class="cls-6" d="M71.9,229.78l-2.75-27.15L53.59,212s-2.41,9.51-21.74,10.55S9.69,208.16,9.69,208.16s3.54,20.75,19.89,23,33.81-11.41,33.81-11.41l-8.63,9.51Z"/><path class="cls-6" d="M6.93,214.39c5,5.07,23.2,3.69,23.2,3.69l23.72-31.6s-2.15-2.07-18.17-5.07S7.48,192,7.48,192s-3.9.69-4.32,1.84S-2,203.32,1,209.78,6.93,214.39,6.93,214.39Z"/><path class="cls-5" d="M8.2,208.33l20.87-3.11,3.27-14.41-13.12,7s7.75.58,7.06.58S8.2,208.33,8.2,208.33Z"/><path class="cls-3" d="M130.27,167.35,105.5,180.18a81.23,81.23,0,0,0-47.78,29.18,84.65,84.65,0,0,1,18.18-5.94l24.78-12.82s80.08,19.24,92,91l-7.69-2s11.18,30.87,4.19,58.52l-5.11-8s-1.2,42.89-13.42,59.32l-4-11.62a91.87,91.87,0,0,1-13.44,23.43c31.21-13,43-46.68,43-46.68l4,11.62c12.21-16.43,13.42-59.32,13.42-59.32l5.11,8c7-27.66-4.19-58.53-4.19-58.53l7.69,2C210.35,186.59,130.27,167.35,130.27,167.35Z"/><path class="cls-6" d="M40.12,547.69l-.26-51.13s-7.92,36.5-7.39,44.95S40.12,547.69,40.12,547.69Z"/><path class="cls-3" d="M300.18,215.56s4.93-3.2,4.68-7-4.72-7.84-4.72-7.84-4.21,3.2-5.45,6-6.12,7.22-1,9.59Z"/><path class="cls-6" d="M314,220l-2.19-15.29-28.81,4s3.27,16.83,10.86,24S314.33,221.17,314,220Z"/><path class="cls-7" d="M329.84,207.63c.59-.48-23.61-2.09-23.61-2.09l1.1,8.47,21.84.24S329.25,208.1,329.84,207.63Z"/><path class="cls-6" d="M320.76,206.6c-6.66-.54-14.53-1.06-14.53-1.06l1.1,8.47,13.76.15C321,212,320.86,209.23,320.76,206.6Z"/><path class="cls-7" d="M331.39,215.38c.64-.53-25.91-2.29-25.91-2.29l1.21,9.3,24,.26S330.74,215.9,331.39,215.38Z"/><path class="cls-6" d="M321.43,214.25c-7.31-.59-15.95-1.16-15.95-1.16l1.21,9.3,15.1.16C321.68,220.18,321.54,217.14,321.43,214.25Z"/><path class="cls-7" d="M329.14,223.89c.55-.45-22.21-2-22.21-2l1,8,20.55.22S328.58,224.34,329.14,223.89Z"/><path class="cls-6" d="M320.6,222.92c-6.26-.51-13.67-1-13.67-1l1,8,13,.14C320.81,228,320.69,225.4,320.6,222.92Z"/><path class="cls-7" d="M326.64,231.22c.46-.38-18.68-1.66-18.68-1.66l.87,6.71,17.28.19S326.17,231.59,326.64,231.22Z"/><path class="cls-6" d="M319.46,230.4c-5.27-.42-11.5-.84-11.5-.84l.87,6.71,10.89.12C319.64,234.68,319.54,232.49,319.46,230.4Z"/><path class="cls-7" d="M309.45,210.7l3.07,15.22,3.89-.67,1.8-22.3-13-3.79-12.43,16.78-.73,7.69C307.18,227.55,309.45,210.7,309.45,210.7Z"/><path class="cls-8" d="M116.76,376.45l69,34.39c11.32-37-24.17-103.5-24.17-103.5l-94,27.19c-30.78,14.08-32.28,79.91-32.28,79.91s52.73-43.23,53.73-43.89S116.76,376.45,116.76,376.45Z"/><path class="cls-6" d="M84.49,493c-6.35-14.9-16.35-31.36-16.35-31.36l-22.55,5.88s-8,12.15-10.39,59.59-3.33,60.38-3.33,60.38l19,5.09s-10.64-20,2-43.52S90.84,507.93,84.49,493Z"/><path class="cls-6" d="M84.49,493c-6.35-14.9-16.35-31.36-16.35-31.36l-22.55,5.88s-8,12.15-10.39,59.59-3.33,60.38-3.33,60.38l19,5.09s-10.64-20,2-43.52S90.84,507.93,84.49,493Z"/><path class="cls-7" d="M56.92,542.16C70.16,522.05,90.2,506.43,84.49,493c-3-7-6.83-14.45-10-20.29-6.94,6.66-24.06,25.65-23.23,50.48l9.51-13.33L54,542.56Z"/><path class="cls-6" d="M45.59,467.55s-7.44,11.34-10.13,54.86Z"/><path class="cls-6" d="M65,482.27c8.53,0,16.26-30.57,16.26-30.57s17-17.65,23.07-43.52S108,357.61,108,357.61s14.12-2.94,13-21.76L89.34,293.51s-18.1,1.76-15.45,39.4c0,0-24.32,32.34-26.5,61.74s-.47,42.93-.47,42.93l-.65,28.23S56.44,482.27,65,482.27Z"/><path class="cls-7" d="M51.88,442c.1.48.22.94.35,1.4l.11-1.13C52.18,442.15,52,442.05,51.88,442Z"/><path class="cls-7" d="M81.23,451.7s17-17.65,23.07-43.52A158.74,158.74,0,0,0,108.07,382l-3.67-13.65a155.87,155.87,0,0,1-4.33,16.22c-.6,4.16-1.38,8.46-2.4,12.79-6.11,25.88-23.08,43.52-23.08,43.52s-7.72,30.58-16.25,30.58c-.21,0-.42,0-.63,0l-.42-.24L56.75,477a47.81,47.81,0,0,0,7.59,5.28l.63,0C73.5,482.27,81.23,451.7,81.23,451.7Z"/><path class="cls-5" d="M47.18,427.17c-1.45,34.1,14,31.36,22.35,32.14,0,0-3.32,14.07-16.45,15.46,3.5,3.86,7.88,7.5,11.89,7.5,8.53,0,16.26-30.57,16.26-30.57s17-17.65,23.07-43.52a168.88,168.88,0,0,0,4.14-38.11l-3.44,1s-2.48,79.59-39,80.37-.72-71.35,15-71.74l17.67-41.17-6.27-3.92L81,325.23,66.48,373.06l19.27-38,3.33.79-8.6,39.59S48.62,393.06,47.18,427.17Z"/><path class="cls-5" d="M41.78,492.9A29.28,29.28,0,0,0,47,506.49s-3.32-20.39,2.64-27.44c0,0-10.25-20.39,6.64-27.18L49,449.25s-12.66,7.32-4.49,30.32A20.51,20.51,0,0,0,41.78,492.9Z"/><path class="cls-5" d="M51,583.2c4-29.4,9.18-38,27.42-60.37s-2.63-60.77-2.63-60.77l-6,14.5C80.65,500.09,74.32,513.42,56.1,535S51,583.2,51,583.2Z"/><path class="cls-6" d="M177.27,591l9.89-.88c23.52-70.14-12.1-160.81-12.1-160.81l-25.05.61s-29.46,55.55-6.54,76.19S177.27,591,177.27,591Z"/><path class="cls-7" d="M193.92,558.88c5.49-47.94-8.24-97.79-15.16-119l-8.65,24.6,10.2,61.7,1.83-43S191.74,526.19,193.92,558.88Z"/><path class="cls-5" d="M143.55,444.26c-7.1,17.9-15.6,47.88-.08,61.86,22.91,20.64,33.8,84.89,33.8,84.89l2.84-.25C182.52,566,165,527.55,165,527.55c5.2-20.47-10.83-43.32-10.83-43.32,7,13.19,3.1,32.58,3.1,32.58L143.14,495.2c-14.07-21.6,10.79-49.05,10.79-49.05Z"/><path class="cls-6" d="M123.69,321.52l-15.8,16s5.76,63.29,24.52,77.82S123.69,321.52,123.69,321.52Z"/><path class="cls-6" d="M182.11,409.85a147.87,147.87,0,0,0-4.41-42.21c-5.14-14.53-12.85-32-21.86-38.5a87.64,87.64,0,0,0-4.82-15l-.62-.7-11.33-2-12.39,8.62L116.62,340s6.76,31,7.28,56.47,11.47,48.59,11.47,48.59S179.84,470.18,182.11,409.85Z"/><path class="cls-7" d="M162.32,469.47s14.58,15.47,14,25,6.08-14.74,6.08-14.74l-6.84-45.2-5.59,1.72S170.72,464.06,162.32,469.47Z"/><path class="cls-7" d="M153.35,450.22c12.62.57,27.47-6.17,28.76-40.37a147.87,147.87,0,0,0-4.41-42.21c-5-14-12.34-30.84-21-37.82l-5.4-.92L138.8,314.14l9.25,21.72s27.88,20.38,25.13,54.27c0,0-4.27-15.85-11.22-28.11C168.06,383.91,177.85,431.8,153.35,450.22Z"/><path class="cls-5" d="M139.27,318.33l-8.21,5.2-2.78,5.5.79,48.88c.2,2,.39,3.94.55,5.92l5.23-57.09s5.69,22.54,5.12,37.63c-.55,14.42-9.22,28.95-7.44,51.29a139.07,139.07,0,0,0,9.21,28.92,41.09,41.09,0,0,0,4.88,2.22c-6.7-11.83-10.51-38.11-4.39-56.24C149.67,368.52,139.27,318.33,139.27,318.33Z"/><path class="cls-5" d="M180.39,424.85c0-1.41-.11-2.85-.16-4.34-2.35-62.93-39.28-79-39.28-79,35.65,21.5,35.74,73.14,33.35,98.67A41.83,41.83,0,0,0,180.39,424.85Z"/><path class="cls-5" d="M165.54,472.09a10.76,10.76,0,0,0,3.68-.65c12.51-4.29,8.57-44.89,8.57-44.89l-.49-7.26c-.41,3.5-2.81,10.17-5,15.78,1.28,2.64,3.26,26.54-5.25,35.62A13.29,13.29,0,0,1,165.54,472.09Z"/><path class="cls-5" d="M139.12,440.72c2.59,10.88,12.78,18.54,12.78,18.54s0,6,2.34,10.24c-1-4.55-1.27-11.44-1.24-18.65C146.67,448.43,139.12,440.72,139.12,440.72Z"/><path class="cls-5" d="M177.18,459.48l-4.65,7c5.72,4.09,3.13,18,3.13,18C184.06,477.16,177.18,459.48,177.18,459.48Z"/><path class="cls-5" d="M152.11,472.25c-.4,11.3,8.36,13.26,8.36,13.26Z"/><path class="cls-5" d="M125.26,384.8l4.46-13.17C127.44,372.91,125.26,384.8,125.26,384.8Z"/><path class="cls-5" d="M134,392.42c2.37,42.08,32.95,45.29,32.95,45.29-29.75-13.23-30.1-87-30.1-87l-7.09,20.9C131.33,370.73,133,375.06,134,392.42Z"/><path class="cls-3" d="M123.49,444.93c29.1,38.48,60.66,10.32,60.66,10.32l-35.55-127-83.24,9S33.57,435.91,51.77,460s43.7-21.81,43.7-21.81S94.4,406.45,123.49,444.93Z"/><path class="cls-5" d="M74.36,308.48a.73.73,0,0,0-.46,0C74,308.48,75.25,308.79,74.36,308.48Z"/><path class="cls-5" d="M90,364.67c3,11.24,27.56,3.14,27.56,3.14l7-43.65c-.46-1.31-7.88-3.4-33.35-10.72-14.33-4.11-17.15-4.92-17.28-5-2,.5-3.46,8.38-3.46,8.38l17.4,23S87,353.43,90,364.67Z"/><path class="cls-5" d="M73.9,308.46h0Z"/><polygon class="cls-5" points="161.42 305.08 106.75 312.53 108.45 368.59 117.96 344.68 161.42 305.08"/><path class="cls-5" d="M117.24,182.85c-31.83,4.13-38.65,24.76-38.7,27.29s6.57,16.51,6.57,16.51L170.18,194S149.06,178.72,117.24,182.85Z"/><path class="cls-5" d="M90.07,323l26.54-59.46-36,13.12s-13.51,26.66-6.87,36.18A23.42,23.42,0,0,0,90.07,323Z"/><path class="cls-9" d="M166.46,325.5c4.83-1.74,6.63-8.54,4-15.19s-8.64-10.64-13.47-8.9-6.63,8.53-4,15.19S161.62,327.23,166.46,325.5Z"/><path class="cls-10" d="M164.92,321.58c3.42-1.23,4.77-5.86,3-10.36s-6-7.13-9.38-5.9-4.77,5.87-3,10.36S161.5,322.81,164.92,321.58Zm-5.81-14.83c2.82-1,6.28,1.17,7.73,4.86s.34,7.52-2.48,8.54-6.29-1.16-7.74-4.86S156.29,307.77,159.11,306.75Z"/><path class="cls-10" d="M163.44,317.8c1.28-.46,1.56-2.78.62-5.18s-2.75-4-4-3.52-1.56,2.79-.62,5.19S162.15,318.26,163.44,317.8Zm-3.11-7.93c1.06-.38,2.55.91,3.32,2.89s.55,3.89-.51,4.27-2.55-.91-3.32-2.89S159.27,310.25,160.33,309.87Z"/><path class="cls-6" d="M153.56,247,135.9,239l-62.67,5.08s-7.89,14.6-3,25.07A147.48,147.48,0,0,1,77.11,286s-1.55,1.91-1.44,10.16,4.38,20,5.78,25.07,31.19,23.49,36.87,13.33c4.58-8.2,32.34-22,42.9-29A28.88,28.88,0,0,0,157,293a1.92,1.92,0,0,1-.35-1.46l-5.17-21.71,5.94-21.9Z"/><path class="cls-7" d="M83.5,277.43c2-3,7.45-1.9,7.45-1.9L93.06,269l1.28,7.63c.17-.87,1.28-1.86,5.83-1.28,7.53.95,8.52,4.28,8.52,4.28,2.6-1.58,5.5-16.18,5.5-16.18l-12.33-9.05-2.45,1.11-3.34.64H92a19.32,19.32,0,0,0-4.55,1.11c-2.13.63-3.67,1.9-7,7.93S81.47,280.45,83.5,277.43Z"/><path class="cls-5" d="M97.76,241.67,85.63,217.13a24.15,24.15,0,0,0-15.94,1.06c-8.55,3.59-5.41,34.06-.6,35.33S96.15,241.67,97.76,241.67Z"/><path class="cls-7" d="M96.65,205.54l-27,7.78s-4.09,15.55-4.27,23.33,6.47,14.76,6.47,14.76c4.5-4.29,28.72-7.46,28.72-7.46Z"/><path class="cls-5" d="M166.39,214.27l4.07.38c-.27-.65-.43-1-.43-1Z"/><path class="cls-5" d="M183.58,215.86l-55.33-12.38c-15.89,7.93-7,17.46-6.35,26.66s8.42,15.23,10.77,18.09,23.64,10.48,23.64,10.48,15.15-1.91,19.32-12.38c3.64-9.14-3.34-27.23-5.17-31.68l-4.07-.38,3.64-.63s.16.36.43,1l1.32.12Z"/><path class="cls-6" d="M153.34,257.62c19.15-6.68,14.47-39.22,14.47-39.22l-11-8.53-28.55-6.39c-15.89,7.93-7,17.46-6.35,26.66s8.42,15.23,10.77,18.09C134.48,250.42,147.4,255.41,153.34,257.62Z"/><path class="cls-6" d="M96.59,248.87l.78,1.48s22.83-2.75,32.56,3.17,18.62-12.27,19-21.58-14.1-26.45-14.1-26.45l-39.49-.42s-3.34,14.17-.3,22.43l3,8.25S95.82,247.39,96.59,248.87Z"/><path class="cls-6" d="M174.22,204.22l32.18-12.85-11.88-9.05s-18.85-1.75-25,3.17-5.95,15.87-4.75,16.35A29.22,29.22,0,0,0,174.22,204.22Z"/><path class="cls-7" d="M152.49,234c1.41-.52,11.82-3.51,21.14-6.14a94.25,94.25,0,0,0,18.61,6h4.08c2.51,0,8.28-1.66,14.6-4.19,9.89,2.17,23.88,3.62,30.73,2.13,9.72-2.12,15-5.93,15-5.93L284,223.05c2-.21,14.27-16.08,0-25.18,0,0-30.53-4-31.34-3.81l-.81.22A67.11,67.11,0,0,0,233.35,189c-4.24-.54-10.11.7-15.47,2.31a59.25,59.25,0,0,0-12.37-2.9c-5.79-.57-11.94-1.32-17.2-1.66-5.76-3.65-13.47-7.39-19.64-6.27-11.38,2.06-25.95,11.27-25.95,11.27L133.17,200s-2.89,7.46-2.92,8.73,2.26,13.64,2.19,16.34S149.9,234.9,152.49,234Z"/><path class="cls-6" d="M192.68,194.59a36.14,36.14,0,0,0-6.19-9c-5.5-3.25-12.28-6.17-17.82-5.16-11.38,2.06-25.95,11.27-25.95,11.27L133.17,200s-2.89,7.46-2.92,8.73,2.26,13.64,2.19,16.34,17.46,9.84,20.05,8.89c1.41-.52,11.82-3.51,21.14-6.14a94.25,94.25,0,0,0,18.61,6h4.08a31.92,31.92,0,0,0,8.11-1.84c-5.55-3.75-14.86-11.23-13.84-18.63,1.45-10.48,24.83-8.73,24.83-8.73-2.46-4.76-12.42-5.4-24.94,0S177.14,226.65,169,225.06s-14.89-9.68-14.89-9.68,17.82.8,20-3.49,13.26-11.58,13.26-11.58c-8.49,1.11-14,12.06-27.73,9.83s-15.92-10.95-15.92-10.95S154.89,188.4,167.38,184,192.68,194.59,192.68,194.59Z"/><path class="cls-6" d="M243.07,191.06a61.91,61.91,0,0,0-9.72-2.07c-3.29-.42-7.55.23-11.79,1.29a15.18,15.18,0,0,0-7.75,5.26L199.88,197l17.64,1.75S224.88,191.07,243.07,191.06Z"/><path class="cls-6" d="M233.52,212.68s-11.19-6.19-19.1,2.38c-4.95,5.38-5.45,10.75-3,14.64a125.89,125.89,0,0,0,19.07,2.53c-3.36-1.83-7.38-5.19-7.43-10.82C223,211.89,233.52,212.68,233.52,212.68Z"/><path class="cls-6" d="M259.65,219.67c-17.95.84-22.54-.85-22.54-.85l19.07,7.32c.34-.21.51-.34.51-.34L284,223.05c1.71-.18,10.7-11.51,4.86-20.51-6.11.08-53.05.83-51.15.83s46.47,3.18,46.47,3.18S277.6,218.82,259.65,219.67Z"/><path class="cls-6" d="M283.92,197.87s-30.53-4-31.34-3.81l-.81.22-.53-.25c-10.88.56-19.44,1.09-19.44,1.09s50.24,6.37,56.93,7.29A15.91,15.91,0,0,0,283.92,197.87Z"/><path class="cls-5" d="M132,252s11.65-7.41,11.88-17.35-10.29-25.81-10.29-25.81l-3-1.27L110.1,230.88c-1.43.85-6,6.14-7.84,8s-1.39,7.83,3.45,7.62S132,252,132,252Z"/><path class="cls-7" d="M114.26,204c-2.36,0-12.62,2.11-15,5.08S93.38,247,101,245.27s21.26,3.6,26.28,1.48,11.53-11.85,10.12-18.83S136,197.66,136,197.66l3.73-3Z"/><path class="cls-6" d="M148.25,187.93s-28.63,9.84-42.87,11.42-31.6,7.3-34.49,14.92c0,0,14-6.35,26.74-6.35s44.88-7,44.88-7Z"/><path class="cls-5" d="M153.56,247c8.31-6.66,4.85-14.12,4.85-14.12s-1.48,5.08-8.83,9.68a45.93,45.93,0,0,1-13.44,5.87L130.52,250s3.94,19.2,16.7,16.18,10.82-17,10.82-17-9.13,9.37-16.68,8.89-7.52-8.09-7.52-8.09S145.24,253.63,153.56,247Z"/><path class="cls-5" d="M152.84,258.55c.5,11.11-16,19.67-16,19.67,18.18-2.06,26.07-23.64,26.07-23.64Z"/><path class="cls-5" d="M165,230.93l-14.87,2.54C158.94,242.84,165,230.93,165,230.93Z"/><path class="cls-6" d="M105.22,213l35.05.32,2.8-3.65C142,209.67,105.22,213,105.22,213Z"/><path class="cls-6" d="M65.36,217.92l-.64,8.41c3.15-5.55,23.24-11.9,23.24-11.9Z"/><path class="cls-6" d="M104.77,232.84H96.91l0,1.9a7.23,7.23,0,0,0-7.08-1L98,238.23S106.28,232.84,104.77,232.84Z"/><path class="cls-5" d="M119.37,266s-12.63-11.64-19.13-14-7,2.54-7,2.54a7.27,7.27,0,0,0-4.81-2.33c-2.75,0-11,7.41-11.66,10.58s3.19,8.89,3.19,8.89S77.53,265,82.67,262s10.06-5.08,10.18-1.06c0,0,2.23-5.29,5.82-4.87s14.34,11,14.34,11L112,273Z"/><path class="cls-7" d="M108.86,291.87l2.35-3.81s-7.52-7.93-14.65-6.82S93.27,293,93.27,293,107.45,294.09,108.86,291.87Z"/><path class="cls-7" d="M88.15,283.46c-2.49-1.16-6.49,1.69-7.18,5.61s-.41,4.55-.41,4.55l9.47.1S90.64,284.63,88.15,283.46Z"/><path class="cls-7" d="M108.28,301.87s-7.2-6.66-11.69-4.13.53,12,.53,12S100.35,300.6,108.28,301.87Z"/><path class="cls-7" d="M92.76,297.74s-7.47.75-7.08,5.72a7.21,7.21,0,0,0,4.49,6.35S90.63,298.38,92.76,297.74Z"/><path class="cls-7" d="M100.53,334.63c-3.62-8.3-8.08-18.69-8.08-18.69s-5.25-8.67-5-2.11c.12,3.2,3.32,10.7,6.63,17.61A68.78,68.78,0,0,0,100.53,334.63Z"/><path class="cls-7" d="M99.18,312.34c-2.44,3.78.28,14.74,2.79,22.88a39.25,39.25,0,0,0,5.86,1.84c-4.42-9.95,2.73-29.16,2.73-29.16S103.15,306.21,99.18,312.34Z"/><path class="cls-5" d="M156.64,291.3l-2.3-9.65c-8.61,4.1-21.24,11-22.81,16.94-2,7.39-9.54,27.46-13.09,35.77,2.42-4.06,10.34-9.44,19-14.69-1.61-6-2.36-13.55,1.11-19.6C144.79,289.18,152,287.09,156.64,291.3Z"/><path class="cls-5" d="M134.46,269.18l-16,14.28C137.19,282.19,134.46,269.18,134.46,269.18Z"/><path class="cls-5" d="M134.17,282,117,294.71C135.71,295.29,134.17,282,134.17,282Z"/><path class="cls-5" d="M128.22,241.94c1.69-.63,2.71-2.25,2.28-3.63s-2.16-2-3.86-1.35-2.71,2.25-2.27,3.63S126.53,242.57,128.22,241.94Z"/><path class="cls-5" d="M73.8,247.73c1.07-.36,1.53-2,1-3.75s-1.75-2.81-2.81-2.44-1.54,2-1,3.75S72.74,248.09,73.8,247.73Z"/><path class="cls-6" d="M171.34,601.78c8.66,6.3,4.54,14.72,12.76,20.08s36.08-4.2,35.93-6.54.24-2-13-15-16.68-33.87-16.68-33.87l-8.88-3.92s-3,2-2.39,12S162.68,595.48,171.34,601.78Z"/><path class="cls-5" d="M216.84,617.55c0-.43,0-.88.06-1.36.2-4-8-7.44-8-7.44s3.62,2.33,5.19,4.84c.75,1.19.68,3.19.41,4.95C215.37,618.2,216.15,617.87,216.84,617.55Z"/><path class="cls-5" d="M204.8,621.58a13.92,13.92,0,0,0-.37-4.09c-.87-3.26-9-6.37-9-6.37s1.82,2.1,5.24,5.53a6.78,6.78,0,0,1,1.72,5.47C203.23,622,204,621.77,204.8,621.58Z"/><path class="cls-5" d="M208.8,620.49l2.37-.75a12.88,12.88,0,0,0-.78-4.15c-1.1-2.46-8.34-5.64-8.34-5.64s4.62,3.22,6,6.54A12.91,12.91,0,0,1,208.8,620.49Z"/><path class="cls-5" d="M196.78,623.1l-.78-7-8.37-6c.23,2,4.34,6.1,5.42,6.79.64.41.72,3.83.68,6.55C194.72,623.33,195.74,623.24,196.78,623.1Z"/><path class="cls-5" d="M184.1,621.86c2.72,1.77,7.59,1.91,12.88,1.22-13.79-9.75-18-31-19.22-42.57-3.72,8.14-13.38,16.21-6.42,21.27C180,608.08,175.88,616.5,184.1,621.86Z"/><path class="cls-11" d="M119,379.4l56.53-37.34-10.89-25.22-14.8-.42c-22.16,9.71-48.71,20.3-56.35,18.11-6.36-1.83-17-6.57-26.67-11.11-7.06,7.55-15.57,24.86-15.57,24.86l33.14,26.2C101.32,392.83,119,379.4,119,379.4Z"/><path class="cls-8" d="M175.52,342.06l-10.89-25.22-14.8-.42c-6.52,2.86-13.43,5.79-20.12,8.46a10.5,10.5,0,0,0,1.84,6.37c6.94,10.78,5.78,25.45,2.49,38.21Z"/><path class="cls-12" d="M214.48,485.55a415.44,415.44,0,0,0-16-87.7,445.38,445.38,0,0,0-21.4-57.23c-3.66-8.08-8.4-16.09-11.85-24.36-11.81,4.26-24.65,8.8-33.61,12,17,50.59,22.82,103.23,16.44,155.71Q181.29,484.67,214.48,485.55Z"/><path class="cls-9" d="M177.51,385.91l-1.95.51q2.52,8.5,4.64,17.11l2-.42Q180,394.47,177.51,385.91Z"/><path class="cls-9" d="M184,410.91l-2,.38q2,8.64,3.49,17.35l2-.29Q186,419.6,184,410.91Z"/><path class="cls-9" d="M169,360.42l-1.91.65q3.1,8.32,5.83,16.78l1.95-.56Q172.11,368.8,169,360.42Z"/><path class="cls-9" d="M189,437.13l-2,.23q1.35,8.76,2.27,17.54l2-.14Q190.33,445.93,189,437.13Z"/><path class="cls-9" d="M192,462.73l-2,.1q.75,8.82,1.08,17.66h2Q192.78,471.61,192,462.73Z"/><path class="cls-9" d="M170,378.69q-2.7-8.38-5.79-16.65l-1.91.65q3.08,8.22,5.76,16.56Z"/><path class="cls-9" d="M159.09,336.39l-1.86.78q3.68,8.13,7,16.42l1.9-.69Q162.77,344.58,159.09,336.39Z"/><path class="cls-9" d="M154.44,338.34l-1.85.78q3.61,8,6.86,16.2l1.9-.69Q158.08,346.41,154.44,338.34Z"/><path class="cls-9" d="M202.21,462.25l-2,.1q.77,9.06,1.11,18.14h2C203.06,474.41,202.72,468.33,202.21,462.25Z"/><path class="cls-9" d="M170.83,351.17q-3.36-8.44-7.09-16.73l-1.86.78q3.72,8.23,7.05,16.64Z"/><path class="cls-9" d="M173.76,358.79l-1.91.65q3.15,8.44,5.91,17l2-.55Q176.94,367.28,173.76,358.79Z"/><path class="cls-9" d="M194,436.54l-2,.24q1.37,8.87,2.31,17.77l2-.13Q195.41,445.45,194,436.54Z"/><path class="cls-9" d="M197.12,462.49l-2,.1q.76,8.94,1.09,17.9h2Q197.88,471.49,197.12,462.49Z"/><path class="cls-9" d="M189,410l-2,.37q2,8.76,3.53,17.59l2-.28Q191,418.77,189,410Z"/><path class="cls-9" d="M182.41,384.63l-2,.51q2.56,8.63,4.71,17.34l2-.42Q185,393.3,182.41,384.63Z"/><path class="cls-9" d="M154.64,365.3l-1.91.65q3,8,5.6,16.1l1.94-.56Q157.65,373.33,154.64,365.3Z"/><path class="cls-9" d="M167.31,406.26q-2.06-8.29-4.48-16.5l-2,.51q2.41,8.16,4.46,16.41Z"/><path class="cls-9" d="M145.15,342.25l-1.86.78q3.53,7.8,6.68,15.75l1.89-.69Q148.7,350.1,145.15,342.25Z"/><path class="cls-9" d="M181.84,463.21l-2,.1q.73,8.58,1,17.18h2Q182.58,471.85,181.84,463.21Z"/><path class="cls-9" d="M212.93,468.83c-.25-2.18-.53-4.54-.86-7.05l-1.71.08q.72,9.33,1.13,18.63h2C213.36,475.82,213.24,473.49,212.93,468.83Z"/><path class="cls-9" d="M176.75,463.46l-2,.09q.72,8.47,1,16.94h2Q177.48,472,176.75,463.46Z"/><path class="cls-9" d="M169.08,413.74l-2,.38q1.88,8.28,3.35,16.64l2-.29Q171,422.07,169.08,413.74Z"/><path class="cls-9" d="M173.83,438.89l-2,.24Q173.1,447.52,174,456l2-.14Q175.12,447.34,173.83,438.89Z"/><path class="cls-9" d="M149.8,340.29l-1.86.78q3.57,7.92,6.77,16l1.9-.69Q153.39,348.25,149.8,340.29Z"/><path class="cls-9" d="M186.93,463l-2,.1q.73,8.7,1.06,17.42h2Q187.67,471.73,186.93,463Z"/><path class="cls-9" d="M199.09,436l-2,.24q1.37,9,2.33,18l2-.14Q200.47,445,199.09,436Z"/><path class="cls-9" d="M179,411.85l-2,.38q1.92,8.52,3.44,17.11l2-.28Q181,420.42,179,411.85Z"/><path class="cls-9" d="M183.93,437.72l-2,.23q1.32,8.63,2.24,17.3l2-.14Q185.27,446.4,183.93,437.72Z"/><path class="cls-9" d="M174.06,412.79l-2,.38q1.89,8.41,3.39,16.88l2-.28Q176,421.25,174.06,412.79Z"/><path class="cls-9" d="M172.62,387.19l-2,.52q2.49,8.39,4.58,16.87l2-.42Q175.12,395.63,172.62,387.19Z"/><path class="cls-9" d="M178.88,438.3l-2,.24q1.3,8.5,2.21,17.06l2-.14Q180.2,446.87,178.88,438.3Z"/><path class="cls-9" d="M167.72,388.48l-2,.51q2.46,8.26,4.53,16.64l2-.42Q170.19,396.8,167.72,388.48Z"/><path class="cls-9" d="M159.42,363.67l-1.91.65q3,8.1,5.68,16.33l1.94-.56Q162.46,371.83,159.42,363.67Z"/><path class="cls-9" d="M163.73,440.07l-2,.23q1.24,8.16,2.11,16.35l2-.14Q165,448.28,163.73,440.07Z"/><path class="cls-9" d="M159.11,415.62l-2,.38q1.8,8.06,3.25,16.17l2-.28Q160.94,423.73,159.11,415.62Z"/><path class="cls-9" d="M167.57,480.5q-.3-8.29-1-16.56l-2,.09q.69,8.24,1,16.47Z"/><path class="cls-9" d="M153,392.32l-2,.51q2.34,7.94,4.33,15.94l2-.42Q155.4,400.3,153,392.32Z"/><path class="cls-9" d="M158.68,440.66l-2,.23q1.23,8,2.08,16.11l2-.14Q159.91,448.75,158.68,440.66Z"/><path class="cls-9" d="M161.47,464.18l-2,.09q.69,8.12,1,16.23h2.05Q162.15,472.33,161.47,464.18Z"/><path class="cls-9" d="M145.08,368.55l-1.91.65q2.9,7.77,5.44,15.65l1.94-.56Q148,376.36,145.08,368.55Z"/><path class="cls-9" d="M152.43,409.4q-2-7.93-4.29-15.8l-.62.16c.52,3.7.75,5.55,1.17,9.24.73,2.72,1.08,4.09,1.76,6.82Z"/><path class="cls-9" d="M154.13,416.57l-2,.37q1.78,7.94,3.2,15.94l2-.29Q155.93,424.55,154.13,416.57Z"/><path class="cls-9" d="M149.86,366.92l-1.91.65q2.94,7.89,5.52,15.88l1.94-.56Q152.82,374.85,149.86,366.92Z"/><path class="cls-9" d="M171.66,463.7l-2,.09q.7,8.35,1,16.71h2Q172.37,472.09,171.66,463.7Z"/><path class="cls-9" d="M151.29,464.66l-1.27.06c-.14,2-.22,3-.39,5,.3,4.31.42,6.47.58,10.8h2C152.06,475.22,151.73,469.94,151.29,464.66Z"/><path class="cls-9" d="M140.51,344.2l-1.86.78q3.47,7.69,6.58,15.53l1.89-.7Q144,351.94,140.51,344.2Z"/><path class="cls-9" d="M157.93,391l-2,.51q2.39,8,4.4,16.17l2-.41Q160.32,399.12,157.93,391Z"/><path class="cls-9" d="M140,355.66c.63,2.48.94,3.72,1.52,6.2l.87-.32C141.45,359.18,141,358,140,355.66Z"/><path class="cls-9" d="M168.78,439.48l-2,.23Q168,448,168.91,456.3l2-.14Q170.06,447.8,168.78,439.48Z"/><path class="cls-9" d="M167.41,431.18q-1.47-8.28-3.32-16.5l-2,.38q1.85,8.16,3.3,16.4Z"/><path class="cls-9" d="M156.38,464.42l-2,.1q.67,8,1,16h2C157.16,475.14,156.83,469.77,156.38,464.42Z"/><path class="cls-9" d="M172.52,330.74l-1.35.57c2.51,5.67,4.92,11.35,7.24,17.09l1.85-.67C177.76,342,175.2,336.37,172.52,330.74Z"/><path class="cls-9" d="M204.14,435.36l-2,.24q1.33,9.12,2.36,18.26l2-.14Q205.48,444.53,204.14,435.36Z"/><path class="cls-9" d="M207.3,462l-2,.1q.72,9.19,1.13,18.38h2Q208,471.24,207.3,462Z"/><path class="cls-9" d="M168.38,332.48l-1.86.78q3.78,8.36,7.15,16.87l1.9-.69Q172.17,340.89,168.38,332.48Z"/><path class="cls-9" d="M194,409l-2,.38q2,8.88,3.59,17.82l2-.28Q196,418,194,409Z"/><path class="cls-9" d="M187.3,383.35l-2,.51q2.58,8.75,4.77,17.57l2-.42Q189.91,392.13,187.3,383.35Z"/><path class="cls-9" d="M150.37,423.2c.22,4.14.3,6.2.4,10.32l1.55-.22C151.6,429.25,151.21,427.23,150.37,423.2Z"/><path class="cls-9" d="M178.54,357.16l-1.91.65q3.19,8.56,6,17.25l1.95-.56Q181.75,365.77,178.54,357.16Z"/><path class="cls-9" d="M150.45,457.57h.16c0-.41-.06-.62-.11-1Z"/><path class="cls-9" d="M153.63,441.24l-2,.24q1.21,7.92,2,15.87l2-.14Q154.85,449.22,153.63,441.24Z"/><path class="cls-9" d="M199,408.08l-2,.38q2,9,3.63,18.06l2-.29Q201,417.13,199,408.08Z"/><path class="cls-9" d="M192.2,382.07l-2,.51c1.72,5.92,3.33,11.84,4.84,17.8l2-.42Q194.78,391,192.2,382.07Z"/><path class="cls-9" d="M205.3,423.85l.35,2h.08C205.59,425.15,205.44,424.5,205.3,423.85Z"/><path class="cls-9" d="M207.66,435l-.49.06q1.35,9.24,2.39,18.5l1.33-.09Q209.48,444.15,207.66,435Z"/><path class="cls-9" d="M183.32,355.53l-1.91.65q3.18,8.7,6.07,17.48l2-.56Q186.52,364.27,183.32,355.53Z"/><path class="cls-13" d="M182.54,404.55l-2,.41c.4,1.61.59,2.41,1,4l2-.39C183.12,407,182.93,406.17,182.54,404.55Z"/><path class="cls-13" d="M187.94,430.69l-2,.27c.27,1.63.41,2.44.67,4.07l2-.25C188.36,433.15,188.22,432.33,187.94,430.69Z"/><path class="cls-13" d="M175.6,379.66l-1.95.54c.5,1.58.75,2.37,1.23,4l2-.53C176.35,382,176.1,381.25,175.6,379.66Z"/><path class="cls-13" d="M168.14,358.18c-.59-1.56-.89-2.34-1.5-3.89l-1.9.68c.6,1.55.9,2.32,1.49,3.88Z"/><path class="cls-13" d="M161.89,356l-1.9.68c.6,1.53.89,2.29,1.48,3.82l1.9-.66C162.79,358.3,162.49,357.53,161.89,356Z"/><path class="cls-13" d="M191.42,456.24l-2,.13c.16,1.64.24,2.46.39,4.11l2-.11C191.67,458.72,191.59,457.89,191.42,456.24Z"/><path class="cls-13" d="M151.72,332.44l-1.84.81c.7,1.49,1.05,2.24,1.73,3.73l1.86-.79C152.78,334.69,152.43,333.94,151.72,332.44Z"/><path class="cls-13" d="M171.38,352.58l-1.9.68c.62,1.57.92,2.35,1.52,3.93l1.91-.66C172.31,354.94,172,354.15,171.38,352.58Z"/><path class="cls-13" d="M201.59,455.58l-2,.13c.18,1.69.26,2.53.41,4.22l2-.11C201.84,458.13,201.76,457.28,201.59,455.58Z"/><path class="cls-13" d="M160.94,328.37l-1.84.82c.72,1.53,1.07,2.29,1.78,3.83l1.85-.79C162,330.68,161.66,329.91,160.94,328.37Z"/><path class="cls-13" d="M170.73,381l-1.95.55c.49,1.56.74,2.34,1.21,3.9l1.95-.52C171.47,383.37,171.22,382.59,170.73,381Z"/><path class="cls-13" d="M156.33,330.41l-1.84.81c.71,1.51,1.06,2.26,1.76,3.78l1.85-.79C157.4,332.68,157.05,331.92,156.33,330.41Z"/><path class="cls-13" d="M180.47,378.29l-1.95.55c.51,1.6.76,2.4,1.24,4l2-.53C181.23,380.71,181,379.9,180.47,378.29Z"/><path class="cls-13" d="M196.5,455.91l-2,.13c.17,1.67.25,2.5.4,4.17l2-.11C196.76,458.42,196.67,457.58,196.5,455.91Z"/><path class="cls-13" d="M187.5,403.52l-2,.41c.39,1.63.59,2.45,1,4.08l2-.39C188.1,406,187.9,405.16,187.5,403.52Z"/><path class="cls-13" d="M193,430l-2,.27c.29,1.65.42,2.48.69,4.13l2-.24C193.4,432.5,193.26,431.67,193,430Z"/><path class="cls-13" d="M177.58,405.58l-2,.41c.39,1.59.57,2.38.94,4l2-.39C178.15,408,178,407.17,177.58,405.58Z"/><path class="cls-13" d="M152.39,359.42l-1.9.68c.58,1.48.87,2.23,1.44,3.72l1.91-.67C153.27,361.66,153,360.91,152.39,359.42Z"/><path class="cls-13" d="M161,383.76l-2,.54c.48,1.52.72,2.28,1.18,3.8l1.95-.53C161.71,386,161.47,385.28,161,383.76Z"/><path class="cls-13" d="M181.25,456.9l-2,.13c.16,1.6.24,2.4.38,4l2-.1C181.49,459.31,181.42,458.5,181.25,456.9Z"/><path class="cls-13" d="M142.5,336.51l-1.84.81c.68,1.45,1,2.17,1.69,3.63l1.85-.8C143.53,338.69,143.19,338,142.5,336.51Z"/><path class="cls-13" d="M176.17,457.23l-2,.13c.16,1.57.24,2.36.38,3.94l2-.11C176.41,459.6,176.33,458.81,176.17,457.23Z"/><path class="cls-13" d="M167.65,407.64l-2,.41c.38,1.54.56,2.31.92,3.86l2-.39C168.21,410,168,409.19,167.65,407.64Z"/><path class="cls-13" d="M172.83,432.72l-2,.27c.26,1.56.39,2.34.64,3.9l2-.25C173.23,435.07,173.1,434.29,172.83,432.72Z"/><path class="cls-13" d="M177.87,432l-2,.27c.27,1.58.4,2.38.66,4l2-.25C178.27,434.43,178.14,433.63,177.87,432Z"/><path class="cls-13" d="M186.34,456.57l-2,.13c.17,1.62.25,2.43.39,4.05l2-.11C186.58,459,186.5,458.2,186.34,456.57Z"/><path class="cls-13" d="M147.11,334.47l-1.84.82c.69,1.46,1,2.2,1.71,3.67l1.85-.79C148.15,336.69,147.81,336,147.11,334.47Z"/><path class="cls-13" d="M167.06,386.26c-.47-1.55-.71-2.33-1.2-3.87l-2,.55c.49,1.53.73,2.3,1.19,3.84Z"/><path class="cls-13" d="M172.61,406.61l-2,.41c.38,1.56.56,2.35.93,3.91l2-.39C173.18,409,173,408.18,172.61,406.61Z"/><path class="cls-13" d="M157.14,357.71l-1.9.68c.59,1.51.88,2.26,1.46,3.77l1.9-.66C158,360,157.73,359.22,157.14,357.71Z"/><path class="cls-13" d="M182.9,431.37l-2,.27c.27,1.6.41,2.4.66,4l2-.25C183.31,433.79,183.18,433,182.9,431.37Z"/><path class="cls-13" d="M162.76,434.07l-2,.27c.26,1.51.39,2.27.63,3.79l2-.25C163.14,436.35,163,435.59,162.76,434.07Z"/><path class="cls-13" d="M166,457.88l-2,.14c.15,1.53.23,2.29.37,3.82l2-.11C166.23,460.19,166.16,459.42,166,457.88Z"/><path class="cls-13" d="M151.25,386.49l-1.95.54c.47,1.48.7,2.21,1.14,3.69l2-.52C152,388.71,151.72,388,151.25,386.49Z"/><path class="cls-13" d="M157.72,409.7l-2,.41c.36,1.5.54,2.25.89,3.75l2-.39C158.27,412,158.09,411.2,157.72,409.7Z"/><path class="cls-13" d="M157.72,434.74l-2,.27c.25,1.5.37,2.24.61,3.74l2-.25C158.1,437,158,436.24,157.72,434.74Z"/><path class="cls-13" d="M146.89,389.49c.13.84.19,1.26.32,2.1l.3-.08C147.27,390.7,147.14,390.3,146.89,389.49Z"/><path class="cls-13" d="M160.92,458.21l-2,.13c.16,1.51.23,2.27.37,3.78l2-.11C161.14,460.49,161.07,459.73,160.92,458.21Z"/><path class="cls-13" d="M152.76,410.73l-2,.41c.36,1.47.54,2.21.88,3.69l2-.39C153.29,413,153.12,412.21,152.76,410.73Z"/><path class="cls-13" d="M147.64,361.13l-1.9.68c.58,1.46.86,2.2,1.42,3.66l1.91-.66C148.51,363.34,148.22,362.6,147.64,361.13Z"/><path class="cls-13" d="M142.89,362.84l-1.06.38c.36,1.52.53,2.28.86,3.81l1.61-.56C143.74,365,143.46,364.29,142.89,362.84Z"/><path class="cls-13" d="M137.9,338.54l-1.85.81c.67,1.43,1,2.15,1.66,3.58l1.86-.79C138.91,340.69,138.57,340,137.9,338.54Z"/><path class="cls-13" d="M156.12,385.12l-2,.55c.47,1.49.71,2.24,1.16,3.74l2-.53C156.83,387.38,156.6,386.62,156.12,385.12Z"/><path class="cls-13" d="M171.08,457.55l-2,.14c.16,1.55.23,2.33.37,3.88l2-.11C171.32,459.9,171.24,459.12,171.08,457.55Z"/><path class="cls-13" d="M162.69,408.67l-2,.41c.37,1.52.55,2.28.9,3.8l2-.39C163.24,411,163.06,410.2,162.69,408.67Z"/><path class="cls-13" d="M167.79,433.39l-2,.27c.26,1.54.39,2.31.63,3.85l2-.25C168.19,435.71,168.06,434.94,167.79,433.39Z"/><path class="cls-13" d="M180.94,349.31l-.06-.15-1.9.68c.63,1.61.94,2.42,1.56,4l1.91-.66C181.85,351.65,181.55,350.87,180.94,349.31Z"/><path class="cls-13" d="M169.54,324.58l-1.23.54c.74,1.57,1.11,2.36,1.83,3.93l1.3-.55C170.78,327.12,170.14,325.81,169.54,324.58Z"/><path class="cls-13" d="M167.36,330.24c-.71-1.56-1.08-2.34-1.81-3.9l-1.85.81c.74,1.55,1.1,2.33,1.81,3.89Z"/><path class="cls-13" d="M203.05,428.66l-2,.27c.29,1.7.43,2.55.7,4.24l2-.24C203.48,431.22,203.34,430.37,203.05,428.66Z"/><path class="cls-13" d="M206.67,455.25l-2,.13c.17,1.71.25,2.57.41,4.28l2-.11C206.93,457.83,206.85,457,206.67,455.25Z"/><path class="cls-13" d="M192.47,402.49l-2,.42c.4,1.65.6,2.47,1,4.13l2-.39C193.07,405,192.87,404.15,192.47,402.49Z"/><path class="cls-13" d="M185.34,376.92l-2,.55c.51,1.62.77,2.44,1.26,4.06l1.95-.52C186.11,379.37,185.85,378.56,185.34,376.92Z"/><path class="cls-13" d="M176.13,350.87l-1.9.68c.63,1.59.93,2.39,1.54,4l1.91-.66C177.07,353.26,176.76,352.46,176.13,350.87Z"/><path class="cls-13" d="M155.83,458.54l-2,.13c.15,1.49.22,2.23.36,3.72l2-.11C156.06,460.78,156,460,155.83,458.54Z"/><path class="cls-13" d="M150.38,458.89c-.07,1.49-.12,2.23-.21,3.71l.93-.05c-.13-1.47-.2-2.21-.35-3.68Z"/><path class="cls-13" d="M211.12,455l-1.4.09c.18,1.74.26,2.6.42,4.34l1.6-.09C211.54,457.9,211.34,456.45,211.12,455Z"/><path class="cls-13" d="M153.3,439.12c-.24-1.48-.36-2.22-.62-3.7l-1.87.25c0,.37,0,.55,0,.92.19,1.11.28,1.67.46,2.78Z"/><path class="cls-13" d="M198.71,433.55c-.27-1.69-.41-2.53-.69-4.21l-2,.27c.29,1.67.42,2.51.69,4.18Z"/><path class="cls-13" d="M190.21,375.56l-2,.54c.52,1.65.77,2.47,1.27,4.12l2-.52C191,378,190.73,377.21,190.21,375.56Z"/><path class="cls-13" d="M197.43,401.46l-2,.42c.4,1.67.6,2.51,1,4.18l2-.39C198,404,197.84,403.15,197.43,401.46Z"/><path class="cls-13" d="M206.27,428.23l-.2,0c.3,1.72.44,2.58.71,4.29l.39,0C206.88,431.1,206.58,429.67,206.27,428.23Z"/><path class="cls-14" d="M69.37,316.7c-3.33,8.06-8,15.77-11.54,23.63a414.6,414.6,0,0,0-20.68,55.93A400.19,400.19,0,0,0,22.29,483q33.2,1.17,66.39,2.48a345,345,0,0,1,14.48-154.75C94.15,327,81.24,321.69,69.37,316.7Z"/><path class="cls-10" d="M58,385.62q-2.41,8.4-4.45,16.91l2,.55q2-8.47,4.43-16.83Z"/><path class="cls-10" d="M51.8,410.22q-1.84,8.56-3.28,17.23l2,.41q1.44-8.61,3.27-17.14Z"/><path class="cls-10" d="M66.21,360.64q-3,8.19-5.65,16.52l1.95.68q2.63-8.29,5.63-16.43Z"/><path class="cls-10" d="M47.18,436.14q-1.23,8.73-2.06,17.51l2,.26q.81-8.73,2-17.41Z"/><path class="cls-10" d="M44.46,461.57q-.63,8.83-.85,17.7l2,.13q.21-8.82.85-17.61Z"/><path class="cls-10" d="M71,362.56q-3,8.07-5.58,16.3l2,.68q2.58-8.18,5.55-16.21Z"/><path class="cls-10" d="M75.81,337.21q-3.59,8-6.79,16.09l1.9.81q3.18-8.08,6.76-16Z"/><path class="cls-10" d="M80.48,339.45q-3.54,7.85-6.7,15.87l1.91.81q3.14-8,6.66-15.78Z"/><path class="cls-10" d="M34.27,460.46c-.44,6.05-.69,12.11-.88,18.18l2,.12c.15-6,.44-12.07.88-18.08Z"/><path class="cls-10" d="M71.13,335q-3.63,8.07-6.88,16.3l1.91.81q3.23-8.19,6.84-16.21Z"/><path class="cls-10" d="M61.41,358.71q-3.06,8.31-5.73,16.75l2,.68q2.65-8.4,5.7-16.66Z"/><path class="cls-10" d="M42.12,435.24Q40.86,444.08,40,453l2,.27q.82-8.85,2.07-17.65Z"/><path class="cls-10" d="M39.37,461q-.66,9-.87,17.94l2,.13q.23-8.94.86-17.84Z"/><path class="cls-10" d="M46.81,409q-1.87,8.68-3.33,17.47l2,.4q1.45-8.73,3.32-17.37Z"/><path class="cls-10" d="M53.09,384q-2.46,8.52-4.52,17.15l2,.54q2.05-8.58,4.5-17.05Z"/><path class="cls-10" d="M80.62,366.41q-2.9,7.84-5.42,15.85l2,.68q2.5-7.95,5.39-15.76Z"/><path class="cls-10" d="M72.75,390.37q-2.34,8.06-4.28,16.23l2,.54Q72.4,399,74.71,391Z"/><path class="cls-10" d="M89.82,343.94q-3.43,7.62-6.51,15.43l1.91.8q3-7.74,6.47-15.34Z"/><path class="cls-10" d="M54.66,462.68q-.63,8.6-.84,17.22l2,.13q.21-8.58.83-17.13Z"/><path class="cls-10" d="M24.4,459.38c-.3,2.49-.55,4.83-.77,7-.25,4.64-.34,7-.46,11.63l2,.12q.3-9.3.9-18.56Z"/><path class="cls-10" d="M59.75,463.24q-.6,8.47-.82,17l2,.13c.13-5.64.41-11.27.81-16.89Z"/><path class="cls-10" d="M66.8,414Q65,422.2,63.64,430.51l2,.41q1.38-8.26,3.14-16.44Z"/><path class="cls-10" d="M62.36,438.84q-1.19,8.37-2,16.8l2,.26q.78-8.37,2-16.69Z"/><path class="cls-10" d="M85.15,341.69q-3.5,7.74-6.61,15.65l1.91.81q3.1-7.86,6.57-15.56Z"/><path class="cls-10" d="M49.56,462.13q-.63,8.7-.85,17.46l2,.12q.21-8.7.84-17.36Z"/><path class="cls-10" d="M37.06,434.34q-1.28,9-2.12,18l2,.26q.84-9,2.1-17.88Z"/><path class="cls-10" d="M56.8,411.47q-1.81,8.46-3.24,17l2,.41Q57,420.39,58.8,412Z"/><path class="cls-10" d="M52.24,437q-1.22,8.61-2,17.27l2,.26q.81-8.61,2-17.17Z"/><path class="cls-10" d="M61.8,412.72q-1.8,8.34-3.2,16.77l2,.41q1.4-8.38,3.18-16.68Z"/><path class="cls-10" d="M62.92,387.2q-2.4,8.28-4.4,16.69l2,.54q2-8.35,4.37-16.59Z"/><path class="cls-10" d="M57.3,437.94q-1.2,8.49-2,17l2,.27q.8-8.5,2-16.94Z"/><path class="cls-10" d="M67.83,388.79Q65.48,397,63.5,405.24l2,.55q2-8.25,4.31-16.37Z"/><path class="cls-10" d="M75.82,364.48q-2.94,8-5.5,16.08l2,.68q2.55-8.07,5.47-16Z"/><path class="cls-10" d="M72.48,440.65c-.77,5.41-1.41,10.86-1.92,16.31l2,.27q.77-8.14,1.91-16.22Z"/><path class="cls-10" d="M76.79,416.48q-1.71,8-3.06,16.07l2,.4q1.34-8,3-16Z"/><path class="cls-10" d="M70,464.35q-.6,8.23-.8,16.5l2,.13q.21-8.22.8-16.41Z"/><path class="cls-10" d="M82.57,393.54q-2.26,7.83-4.15,15.77l2,.54q1.88-7.89,4.13-15.67Z"/><path class="cls-10" d="M77.54,441.55c-.75,5.34-1.39,10.7-1.89,16.08l2,.26c.5-5.34,1.12-10.68,1.88-16Z"/><path class="cls-10" d="M75.05,464.91q-.58,8.11-.79,16.26l2,.13q.21-8.1.79-16.17Z"/><path class="cls-10" d="M90.23,370.25q-2.82,7.63-5.27,15.41l2,.68q2.43-7.72,5.24-15.32Z"/><path class="cls-10" d="M88.11,395.33l-.62-.2q-2.23,7.71-4.1,15.54l2,.54c.64-2.69,1-4,1.67-6.71C87.43,400.83,87.64,399,88.11,395.33Z"/><path class="cls-10" d="M81.79,417.73q-1.7,7.88-3,15.83l2,.41q1.32-7.91,3-15.74Z"/><path class="cls-10" d="M85.42,368.33q-2.85,7.74-5.34,15.63l2,.68q2.48-7.84,5.32-15.54Z"/><path class="cls-10" d="M64.85,463.79q-.6,8.35-.81,16.75l2,.12q.21-8.34.81-16.64Z"/><path class="cls-10" d="M86.51,466.16,85.24,466q-.57,7.88-.76,15.78l2,.13c.11-4.32.19-6.47.44-10.77C86.76,469.16,86.67,468.16,86.51,466.16Z"/><path class="cls-10" d="M94.5,346.18q-3.39,7.51-6.43,15.21l1.91.81q3-7.65,6.39-15.13Z"/><path class="cls-10" d="M77.66,392q-2.3,7.94-4.22,16l2,.54q1.92-8,4.19-15.91Z"/><path class="cls-10" d="M92.84,363.41l.87.37c.56-2.44.85-3.67,1.45-6.11C94.21,360,93.75,361.11,92.84,363.41Z"/><path class="cls-10" d="M67.42,439.75q-1.17,8.24-2,16.55l2,.26q.76-8.25,1.94-16.45Z"/><path class="cls-10" d="M71.8,415.23q-1.76,8.1-3.11,16.3l2,.41q1.36-8.16,3.09-16.21Z"/><path class="cls-10" d="M80.14,465.46q-.57,8-.77,16l2,.12q.2-8,.77-15.93Z"/><path class="cls-10" d="M62.3,330.74c-2.61,5.45-5.1,11-7.53,16.51l1.86.79q3.38-8.4,7-16.65Z"/><path class="cls-10" d="M32,433.44q-1.23,9.09-2.14,18.21l2,.27q.91-9.09,2.13-18.12Z"/><path class="cls-10" d="M29.17,459.9q-.6,9.21-.89,18.42l2,.13q.29-9.18.89-18.33Z"/><path class="cls-10" d="M66.46,332.73q-3.69,8.17-7,16.52l1.9.81q3.27-8.3,6.94-16.43Z"/><path class="cls-10" d="M41.81,407.72q-1.91,8.79-3.38,17.7l2,.41q1.47-8.85,3.36-17.61Z"/><path class="cls-10" d="M48.18,382.45q-2.51,8.63-4.58,17.37l2,.54q2.07-8.7,4.55-17.28Z"/><path class="cls-10" d="M83.81,434.58l1.56.32c0-4.12.09-6.18.26-10.3C84.84,428.58,84.48,430.58,83.81,434.58Z"/><path class="cls-10" d="M56.61,356.79q-3.11,8.41-5.81,17l2,.68q2.7-8.52,5.78-16.88Z"/><path class="cls-10" d="M85.83,459l.16,0c0-.41,0-.62-.07-1C85.88,458.34,85.87,458.55,85.83,459Z"/><path class="cls-10" d="M82.6,442.45q-1.11,7.89-1.86,15.84l2,.27q.75-7.9,1.86-15.75Z"/><path class="cls-10" d="M36.81,406.47Q35,415.4,33.39,424.4l2,.41q1.55-9,3.4-17.84Z"/><path class="cls-10" d="M43.26,380.86q-2.48,8.76-4.64,17.61l2,.54q2.16-8.81,4.62-17.51Z"/><path class="cls-10" d="M30.28,423.77l.09,0c.12-.78.19-1.17.32-1.94C30.55,422.49,30.42,423.13,30.28,423.77Z"/><path class="cls-10" d="M28.47,432.81q-1.71,9.09-3,18.27l1.33.18q.93-9.21,2.16-18.36Z"/><path class="cls-10" d="M51.81,354.87c-2.07,5.7-4,11.42-5.89,17.19l1.95.68q2.79-8.61,5.86-17.1Z"/><path class="cls-15" d="M53.21,404c-.37,1.59-.55,2.39-.91,4l2,.51c.35-1.59.53-2.38.9-4Z"/><path class="cls-15" d="M48.14,429.77c-.26,1.62-.38,2.43-.62,4.05l2,.37c.24-1.61.36-2.42.62-4Z"/><path class="cls-15" d="M59.84,379.48c-.48,1.56-.72,2.34-1.18,3.9l2,.65c.46-1.56.7-2.34,1.17-3.89Z"/><path class="cls-15" d="M68.48,354.65c-.59,1.52-.88,2.28-1.45,3.81l1.91.78,1.45-3.79Z"/><path class="cls-15" d="M73.26,356.66c-.59,1.49-.87,2.24-1.44,3.75l1.92.78c.56-1.5.85-2.24,1.43-3.73Z"/><path class="cls-15" d="M45,455.11c-.15,1.64-.22,2.46-.35,4.11l2,.23c.13-1.63.2-2.45.34-4.08Z"/><path class="cls-15" d="M83.13,333.72c-.69,1.45-1,2.18-1.7,3.64l1.86.91c.67-1.45,1-2.18,1.69-3.62Z"/><path class="cls-15" d="M63.71,352.65c-.6,1.54-.89,2.31-1.47,3.85l1.91.78c.58-1.53.88-2.3,1.47-3.83Z"/><path class="cls-15" d="M34.81,453.82c-.16,1.69-.23,2.53-.36,4.22l2,.24c.13-1.68.2-2.52.35-4.2Z"/><path class="cls-15" d="M73.85,329.08c-.7,1.49-1,2.24-1.74,3.74l1.86.91c.69-1.49,1-2.24,1.74-3.72Z"/><path class="cls-15" d="M64.73,381.15c-.48,1.53-.71,2.3-1.17,3.85l2,.64c.45-1.53.68-2.3,1.15-3.83Z"/><path class="cls-15" d="M78.49,331.4c-.7,1.47-1,2.21-1.72,3.69l1.86.91c.68-1.47,1-2.21,1.72-3.67Z"/><path class="cls-15" d="M55,377.81c-.49,1.58-.73,2.37-1.2,4l2,.64c.46-1.58.7-2.36,1.18-3.93Z"/><path class="cls-15" d="M39.9,454.47c-.15,1.66-.22,2.49-.35,4.16l2,.24c.13-1.66.2-2.49.35-4.15Z"/><path class="cls-15" d="M48.23,402.62c-.37,1.61-.56,2.42-.92,4l2,.51c.36-1.61.54-2.41.92-4Z"/><path class="cls-15" d="M43.09,428.78c-.26,1.64-.39,2.46-.63,4.11l2,.37c.25-1.63.37-2.45.63-4.08Z"/><path class="cls-15" d="M58.19,405.29c-.37,1.57-.54,2.36-.89,3.93l2,.51c.35-1.56.53-2.34.89-3.91Z"/><path class="cls-15" d="M82.8,360.67c-.57,1.45-.85,2.18-1.4,3.65l1.92.78c.55-1.46.83-2.18,1.39-3.63Z"/><path class="cls-15" d="M74.5,384.48c-.46,1.5-.68,2.25-1.13,3.75l2,.64c.44-1.49.66-2.23,1.12-3.72Z"/><path class="cls-15" d="M55.17,456.4c-.15,1.6-.21,2.39-.34,4l2,.24c.12-1.59.19-2.39.33-4Z"/><path class="cls-15" d="M92.4,338.36c-.67,1.41-1,2.12-1.65,3.54l1.86.91c.65-1.41,1-2.12,1.64-3.53Z"/><path class="cls-15" d="M60.26,457c-.15,1.58-.21,2.36-.34,3.94l2,.24c.13-1.57.19-2.35.33-3.92Z"/><path class="cls-15" d="M68.15,408c-.36,1.53-.53,2.29-.87,3.83l2,.51c.34-1.52.52-2.28.87-3.8Z"/><path class="cls-15" d="M63.28,432.73c-.25,1.55-.36,2.33-.6,3.89l2,.37c.23-1.55.35-2.32.59-3.87Z"/><path class="cls-15" d="M58.24,431.74c-.26,1.58-.38,2.37-.61,3.95l2,.37c.23-1.57.35-2.36.6-3.92Z"/><path class="cls-15" d="M50.08,455.75c-.15,1.62-.22,2.43-.35,4.06l2,.23c.13-1.61.2-2.42.34-4Z"/><path class="cls-15" d="M87.76,336c-.67,1.43-1,2.15-1.67,3.59l1.86.91c.66-1.43,1-2.15,1.67-3.57C88.88,336.59,88.5,336.41,87.76,336Z"/><path class="cls-15" d="M69.62,382.81c-.47,1.52-.7,2.28-1.15,3.8l2,.65c.45-1.52.68-2.27,1.14-3.78Z"/><path class="cls-15" d="M63.17,406.63c-.36,1.54-.54,2.32-.88,3.87l2,.52c.35-1.55.52-2.32.88-3.86Z"/><path class="cls-15" d="M78,358.66c-.58,1.48-.86,2.22-1.42,3.7l1.92.78c.55-1.47.84-2.21,1.41-3.68Z"/><path class="cls-15" d="M53.19,430.75c-.26,1.6-.38,2.4-.62,4l2,.38c.24-1.6.36-2.39.62-4Z"/><path class="cls-15" d="M73.38,434.7c-.24,1.51-.36,2.27-.58,3.78l2,.37c.22-1.5.34-2.25.58-3.75Z"/><path class="cls-15" d="M70.44,458.33c-.14,1.53-.21,2.3-.33,3.83l2,.23c.12-1.52.19-2.28.32-3.8Z"/><path class="cls-15" d="M84.28,387.82c-.45,1.45-.66,2.18-1.1,3.64l2,.64c.42-1.45.64-2.17,1.09-3.61C85.46,388.22,85.07,388.08,84.28,387.82Z"/><path class="cls-15" d="M78.11,410.64c-.35,1.48-.52,2.22-.85,3.71l2,.51c.32-1.48.49-2.21.84-3.69Z"/><path class="cls-15" d="M78.43,435.69c-.24,1.49-.36,2.23-.58,3.72l2,.38c.22-1.49.34-2.23.57-3.71Z"/><path class="cls-15" d="M88.09,393.07l.3.1c.12-.83.17-1.25.29-2.08C88.44,391.88,88.32,392.28,88.09,393.07Z"/><path class="cls-15" d="M75.53,459c-.14,1.51-.2,2.27-.32,3.78l2,.23c.12-1.5.18-2.25.31-3.75Z"/><path class="cls-15" d="M83.08,412c-.34,1.47-.5,2.2-.83,3.66l2,.52c.32-1.46.49-2.19.83-3.64Z"/><path class="cls-15" d="M87.57,362.67c-.56,1.44-.83,2.16-1.38,3.6l1.92.78c.54-1.43.82-2.15,1.37-3.58Z"/><path class="cls-15" d="M92.34,364.67c-.55,1.42-.82,2.13-1.35,3.55l1.61.66c.31-1.51.48-2.26.81-3.76Z"/><path class="cls-15" d="M97,340.68c-.66,1.39-1,2.09-1.63,3.49l1.86.91c.64-1.39,1-2.09,1.62-3.48Z"/><path class="cls-15" d="M79.39,386.15c-.45,1.47-.67,2.21-1.11,3.69l2,.65c.44-1.47.66-2.21,1.11-3.67Z"/><path class="cls-15" d="M65.35,457.69c-.14,1.55-.21,2.33-.33,3.88l2,.24c.12-1.55.18-2.32.32-3.87Z"/><path class="cls-15" d="M73.13,409.3c-.35,1.51-.53,2.26-.86,3.77l2,.51c.34-1.5.51-2.25.86-3.75Z"/><path class="cls-15" d="M68.33,433.72c-.24,1.53-.36,2.29-.59,3.83l2,.37c.23-1.52.35-2.29.59-3.81Z"/><path class="cls-15" d="M54.17,348.64l-.06.15c-.59,1.52-.88,2.28-1.46,3.81l1.92.78c.59-1.58.9-2.37,1.51-3.94Z"/><path class="cls-15" d="M65.2,324.75c-.59,1.2-1.21,2.47-1.85,3.81l1.31.63c.7-1.53,1.06-2.3,1.78-3.82Z"/><path class="cls-15" d="M69.22,326.76c-.72,1.51-1.07,2.27-1.77,3.79l1.86.91c.7-1.51,1-2.27,1.76-3.77Z"/><path class="cls-15" d="M33,426.81c-.27,1.68-.4,2.53-.65,4.22l2,.37c.25-1.68.38-2.52.65-4.2Z"/><path class="cls-15" d="M29.72,453.18c-.16,1.71-.23,2.56-.36,4.27l2,.24c.14-1.7.21-2.55.36-4.25Z"/><path class="cls-15" d="M43.26,401.28c-.39,1.63-.57,2.45-.94,4.09l2,.52c.36-1.63.55-2.45.93-4.08Z"/><path class="cls-15" d="M50.06,376.14c-.49,1.6-.74,2.4-1.21,4l2,.65c.47-1.6.71-2.4,1.21-4Z"/><path class="cls-15" d="M58.94,350.64c-.61,1.56-.91,2.34-1.5,3.91l1.92.78c.59-1.56.89-2.33,1.49-3.89Z"/><path class="cls-15" d="M80.62,459.62c-.14,1.48-.2,2.23-.32,3.71l2,.24c.12-1.48.18-2.22.31-3.7Z"/><path class="cls-15" d="M85.71,460.26c-.13,1.46-.2,2.2-.31,3.66l.94.11c-.12-1.49-.17-2.23-.27-3.72Z"/><path class="cls-15" d="M25.26,452.62c-.2,1.47-.39,2.9-.56,4.3l1.6.18c.13-1.72.21-2.58.36-4.31Z"/><path class="cls-15" d="M85.35,437l-1.88-.36c-.23,1.46-.34,2.2-.56,3.67l2,.37c.16-1.1.25-1.65.42-2.75Z"/><path class="cls-15" d="M38.05,427.79c-.27,1.67-.4,2.5-.65,4.17l2,.37c.24-1.66.37-2.49.63-4.14Z"/><path class="cls-15" d="M45.17,374.47c-.5,1.62-.74,2.44-1.23,4.06l2,.65c.48-1.62.72-2.43,1.22-4Z"/><path class="cls-15" d="M38.28,399.94c-.39,1.66-.58,2.49-1,4.15l2,.51c.36-1.65.55-2.47.94-4.12Z"/><path class="cls-15" d="M29.78,426.18c-.29,1.41-.58,2.82-.85,4.22l.39.07c.25-1.71.38-2.56.65-4.26Z"/><path class="cls-3" d="M124,326.64s-42.3-3.71-44.16-3.71-1,6.18-2.25,6.18-7.42.42-7.42.42-3.88,12.37.9,40.82,17,31.34,17,31.34l-.21-5.78c5.28,16.91,23.41,29.28,23.41,29.28A47.44,47.44,0,0,0,129.38,405l-.36,7c16-19.79,13.12-72.15,13.12-72.15l4.46-13.2Z"/><path class="cls-8" d="M131.45,326.64c-.57,12.66-3,50.64-12.44,66.32l-.34-9.07S110.2,402.35,101,416.37a76.71,76.71,0,0,0,10.24,8.82A47.44,47.44,0,0,0,129.38,405l-.36,7c16-19.79,13.12-72.15,13.12-72.15l4.46-13.2Z"/><path class="cls-16" d="M248.83,234.52l-2.53,4.13a66.89,66.89,0,0,0,17-3.51l-.87,4.33c21.67.41,34.64-5.56,34.64-5.56-4.26-9.08,3-30.72,3-30.72l.44.82c1.27-4.54-5.9-8.86-5.9-8.86s.58,9.89-2.37,2.68a8.06,8.06,0,0,0-.55-1.1c-3.62-6.16-14.17-6.53-14.17-6.53l-.85,4.74c-2.58-8.25-20.36-9.69-20.36-9.69l3.51,5.77s-8.16-3.3-19.81-.62-8.13,41.86-8.13,41.86l-4.1,6.18C235.6,239.06,248.83,234.52,248.83,234.52Z"/><path class="cls-8" d="M248.83,234.52l-2.53,4.13a66.89,66.89,0,0,0,17-3.51l-.87,4.33c21.67.41,34.64-5.56,34.64-5.56-1.55-3.3-1.57-8.26-1-13.24l-9.78,1.23,4.09-6.5s-9.48,2.94-9.66,2.32,1-7.42,1-7.42l-9.33,6.8,1.2-9.28-5.94,6.65-1.14-5.87c-4.91,9.43-12.82,8.66-12.82,8.66l-.5-5.11a43.44,43.44,0,0,1-21.58,16.11c.13,2.47.27,4,.27,4l-4.1,6.18C235.6,239.06,248.83,234.52,248.83,234.52Z"/><path class="cls-14" d="M293,200.29c-8,9.1-10.37,38.26-10.37,38.26l2.52-.75c-2.67-11.28,9.41-38,9.41-38Z"/><polygon class="cls-14" points="276.38 191.65 260.98 238.25 263.09 238.4 277.78 192.85 276.38 191.65"/><path class="cls-14" d="M247.65,235.54s16.87-33.27,12.13-44.52l-2.1-.87s.44,23.9-11.83,45.39Z"/><path class="cls-6" d="M36.5,573.59l-1-47.5s-8.73,34.68-7.14,55.72S36.5,573.59,36.5,573.59Z"/><path class="cls-17" d="M2.35,607.39S.77,622.33.6,623.58s32.21,9.25,38.49-2.34,13.35-8.61,20.16-15.39S61.09,588,61.09,588l5.5,1.18-6.16-21.47,6,3.95L68.53,555l3.76,2.67.89-16.46L76.53,546s5.35-12.25,4.85-21.15-53.59-10.81-53.59-10.81C23,518.89,23,544.19,23,544.19l4.89-2-6.76,23.9,6.39-2.63-6.23,16.07,6-.52C21.46,597.07,2.35,607.39,2.35,607.39Z"/><path class="cls-14" d="M50.65,600.16c-5.87,4.28-19.23,9.12-20.49,12.07-1.07,2.5-21.61-3-27.82-4.67-.18,1.61-1.58,14.85-1.74,16s32.21,9.25,38.49-2.34,13.35-8.61,20.16-15.39S61.09,588,61.09,588l5.5,1.18-6.16-21.47,6,3.95L68.53,555l3.76,2.67.89-16.46L76.53,546s5.35-12.25,4.85-21.15c-.21-3.88-10.4-6.42-21.83-8.07l2.72,26.76L56,536.29l-1.57,25-2.57-5.41L52,577.3l-4.64-3.56S56.52,595.88,50.65,600.16Z"/><path class="cls-18" d="M52.28,597.46a63.65,63.65,0,0,1,2,11.95,19.09,19.09,0,0,0,5-3.56c6.81-6.77,1.84-17.83,1.84-17.83l5.5,1.18-6.16-21.47,6,3.95L68.53,555l3.76,2.67.89-16.46L76.53,546s5.35-12.25,4.85-21.15c-.21-3.88-10.4-6.42-21.83-8.07l2.72,26.76L56,536.29l-1.57,25-2.57-5.41L52,577.3l-4.64-3.56S54.16,590.17,52.28,597.46Z"/><path class="cls-14" d="M59,606.09c-8.36-8.69-21.58-18.17-37.86-15.29L20,592.29c11.51,0,24.49,3.52,37.34,14.17L58,607C58.33,606.72,58.66,606.41,59,606.09Z"/><path class="cls-14" d="M66.59,589.2l-1.46-5.07c-12.71-3.63-29.23-7.31-42.89-6.92l-.91,2.33,6-.52c-.14.42-.29.84-.44,1.26C39.73,580.1,53.82,582.21,66.59,589.2Z"/><path class="cls-14" d="M23,544.19l4.86-2-4.84.32C23,543.58,23,544.19,23,544.19Z"/><path class="cls-14" d="M73.81,542.15l4.35-.35c.31-.9.65-1.9,1-3l-51.21,3.39L26.86,546l46.27-3.77.05-1Z"/><polygon class="cls-14" points="27.18 564.45 27.16 564.51 67.04 567 67.48 563.46 27.18 564.45"/><path class="cls-8" d="M79.56,321.91l-25.89,207L148.42,530s-16.78-173.88-17.09-206.41C115.75,326.17,94.7,327.85,79.56,321.91Z"/><path class="cls-12" d="M83.84,325,63.49,525.85l78.5,1s-14.83-168.78-15.25-200.36C113.84,329.09,96.41,330.73,83.84,325Z"/><polygon class="cls-9" points="112.46 407.75 110.04 407.75 110.83 428.77 113.24 428.77 112.46 407.75"/><polygon class="cls-9" points="113.59 438.23 111.18 438.23 111.96 459.25 114.38 459.25 113.59 438.23"/><polygon class="cls-9" points="111.28 376.11 108.86 376.11 109.64 397.13 112.06 397.13 111.28 376.11"/><polygon class="cls-9" points="114.77 469.75 112.35 469.75 113.14 490.77 115.55 490.77 114.77 469.75"/><polygon class="cls-9" points="115.91 500.23 113.49 500.23 114.28 521.24 116.69 521.24 115.91 500.23"/><polygon class="cls-9" points="105.24 376.11 102.82 376.11 103.6 397.13 106.02 397.13 105.24 376.11"/><polygon class="cls-9" points="110.14 345.64 107.72 345.64 108.51 366.66 110.92 366.66 110.14 345.64"/><polygon class="cls-9" points="104.1 345.64 101.68 345.64 102.47 366.66 104.88 366.66 104.1 345.64"/><polygon class="cls-9" points="127.99 500.23 125.57 500.23 126.36 521.24 128.77 521.24 127.99 500.23"/><polygon class="cls-9" points="116.18 345.64 113.76 345.64 114.55 366.66 116.96 366.66 116.18 345.64"/><polygon class="cls-9" points="117.32 376.11 114.9 376.11 115.69 397.13 118.1 397.13 117.32 376.11"/><polygon class="cls-9" points="120.81 469.75 118.39 469.75 119.18 490.77 121.59 490.77 120.81 469.75"/><polygon class="cls-9" points="121.95 500.23 119.53 500.23 120.32 521.24 122.73 521.24 121.95 500.23"/><polygon class="cls-9" points="119.64 438.23 117.22 438.23 118 459.25 120.42 459.25 119.64 438.23"/><polygon class="cls-9" points="118.5 407.75 116.08 407.75 116.87 428.77 119.28 428.77 118.5 407.75"/><polygon class="cls-9" points="93.16 376.11 90.74 376.11 91.52 397.13 93.94 397.13 93.16 376.11"/><polygon class="cls-9" points="94.33 407.75 91.92 407.75 92.7 428.77 95.12 428.77 94.33 407.75"/><polygon class="cls-9" points="92.02 345.64 89.6 345.64 90.39 366.66 92.8 366.66 92.02 345.64"/><polygon class="cls-9" points="103.83 500.23 101.41 500.23 102.19 521.24 104.61 521.24 103.83 500.23"/><path class="cls-9" d="M140.37,508.16c-.22-2.45-.44-5.1-.69-7.93h-2l.79,21h2.41Z"/><polygon class="cls-9" points="97.79 500.23 95.37 500.23 96.15 521.24 98.57 521.24 97.79 500.23"/><polygon class="cls-9" points="95.47 438.23 93.06 438.23 93.84 459.25 96.26 459.25 95.47 438.23"/><polygon class="cls-9" points="96.65 469.75 94.23 469.75 95.02 490.77 97.43 490.77 96.65 469.75"/><polygon class="cls-9" points="98.06 345.64 95.64 345.64 96.43 366.66 98.84 366.66 98.06 345.64"/><polygon class="cls-9" points="109.87 500.23 107.45 500.23 108.23 521.24 110.65 521.24 109.87 500.23"/><polygon class="cls-9" points="126.85 469.75 124.44 469.75 125.22 490.77 127.64 490.77 126.85 469.75"/><polygon class="cls-9" points="107.55 438.23 105.14 438.23 105.92 459.25 108.34 459.25 107.55 438.23"/><polygon class="cls-9" points="108.73 469.75 106.31 469.75 107.1 490.77 109.51 490.77 108.73 469.75"/><polygon class="cls-9" points="101.51 438.23 99.1 438.23 99.88 459.25 102.3 459.25 101.51 438.23"/><polygon class="cls-9" points="106.42 407.75 104 407.75 104.78 428.77 107.2 428.77 106.42 407.75"/><polygon class="cls-9" points="102.69 469.75 100.27 469.75 101.06 490.77 103.47 490.77 102.69 469.75"/><polygon class="cls-9" points="100.38 407.75 97.96 407.75 98.74 428.77 101.16 428.77 100.38 407.75"/><polygon class="cls-9" points="99.19 376.11 96.78 376.11 97.56 397.13 99.98 397.13 99.19 376.11"/><polygon class="cls-9" points="84.57 469.75 82.15 469.75 82.94 490.77 85.35 490.77 84.57 469.75"/><polygon class="cls-9" points="83.39 438.23 80.97 438.23 81.76 459.25 84.17 459.25 83.39 438.23"/><polygon class="cls-9" points="85.7 500.23 83.29 500.23 84.07 521.24 86.49 521.24 85.7 500.23"/><polygon class="cls-9" points="82.25 407.75 79.84 407.75 80.62 428.77 83.04 428.77 82.25 407.75"/><polygon class="cls-9" points="78.53 469.75 76.11 469.75 76.89 490.77 79.31 490.77 78.53 469.75"/><polygon class="cls-9" points="79.66 500.23 77.25 500.23 78.03 521.24 80.45 521.24 79.66 500.23"/><polygon class="cls-9" points="81.07 376.11 78.66 376.11 79.44 397.13 81.86 397.13 81.07 376.11"/><polygon class="cls-9" points="76.21 407.75 75.45 407.75 74.24 419.68 74.58 428.77 77 428.77 76.21 407.75"/><polygon class="cls-9" points="77.35 438.23 74.93 438.23 75.72 459.25 78.13 459.25 77.35 438.23"/><polygon class="cls-9" points="87.11 376.11 84.7 376.11 85.48 397.13 87.9 397.13 87.11 376.11"/><polygon class="cls-9" points="91.75 500.23 89.33 500.23 90.11 521.24 92.53 521.24 91.75 500.23"/><polygon class="cls-9" points="67.58 500.23 66.08 500.23 65.41 506.84 65.95 521.24 68.37 521.24 67.58 500.23"/><polygon class="cls-9" points="85.98 345.64 83.56 345.64 84.34 366.66 86.76 366.66 85.98 345.64"/><polygon class="cls-9" points="88.29 407.75 85.88 407.75 86.66 428.77 89.08 428.77 88.29 407.75"/><polygon class="cls-9" points="79.61 366.66 80.72 366.66 80.42 358.66 79.61 366.66"/><polygon class="cls-9" points="90.61 469.75 88.19 469.75 88.97 490.77 91.39 490.77 90.61 469.75"/><polygon class="cls-9" points="89.43 438.23 87.02 438.23 87.8 459.25 90.22 459.25 89.43 438.23"/><polygon class="cls-9" points="73.62 500.23 71.21 500.23 71.99 521.24 74.41 521.24 73.62 500.23"/><path class="cls-9" d="M127.6,345.64h-1.76l.79,21H129C128.44,358.91,128,351.81,127.6,345.64Z"/><polygon class="cls-9" points="132.89 469.75 130.48 469.75 131.26 490.77 133.68 490.77 132.89 469.75"/><polygon class="cls-9" points="134.03 500.23 131.61 500.23 132.4 521.24 134.81 521.24 134.03 500.23"/><polygon class="cls-9" points="122.22 345.64 119.81 345.64 120.59 366.66 123 366.66 122.22 345.64"/><polygon class="cls-9" points="125.67 438.23 123.26 438.23 124.04 459.25 126.46 459.25 125.67 438.23"/><polygon class="cls-9" points="124.54 407.75 122.12 407.75 122.91 428.77 125.32 428.77 124.54 407.75"/><polygon class="cls-9" points="70.23 459.25 72.09 459.25 71.59 445.82 70.23 459.25"/><polygon class="cls-9" points="123.36 376.11 120.94 376.11 121.73 397.13 124.14 397.13 123.36 376.11"/><polygon class="cls-9" points="67.04 490.77 67.23 490.77 67.18 489.41 67.04 490.77"/><polygon class="cls-9" points="72.49 469.75 70.07 469.75 70.85 490.77 73.27 490.77 72.49 469.75"/><polygon class="cls-9" points="131.72 438.23 129.3 438.23 130.08 459.25 132.5 459.25 131.72 438.23"/><polygon class="cls-9" points="130.58 407.75 128.16 407.75 128.95 428.77 131.36 428.77 130.58 407.75"/><path class="cls-9" d="M136,457l.08,2.25h.11C136.17,458.5,136.1,457.75,136,457Z"/><path class="cls-9" d="M137.1,469.75h-.58l.78,21h1.58C138.33,484.31,137.73,477.24,137.1,469.75Z"/><polygon class="cls-9" points="129.4 376.11 126.98 376.11 127.77 397.13 130.18 397.13 129.4 376.11"/><polygon class="cls-13" points="113.31 430.52 110.89 430.52 111.07 435.43 113.49 435.43 113.31 430.52"/><polygon class="cls-13" points="114.48 462.05 112.07 462.05 112.25 466.95 114.67 466.95 114.48 462.05"/><polygon class="cls-13" points="112.17 400.05 109.75 400.05 109.94 404.95 112.35 404.95 112.17 400.05"/><polygon class="cls-13" points="110.99 368.41 108.57 368.41 108.76 373.31 111.17 373.31 110.99 368.41"/><polygon class="cls-13" points="104.95 368.41 102.53 368.41 102.72 373.31 105.13 373.31 104.95 368.41"/><polygon class="cls-13" points="115.62 492.52 113.2 492.52 113.39 497.43 115.8 497.43 115.62 492.52"/><polygon class="cls-13" points="103.81 337.93 101.39 337.93 101.58 342.84 103.99 342.84 103.81 337.93"/><polygon class="cls-13" points="117.03 368.41 114.61 368.41 114.8 373.31 117.21 373.31 117.03 368.41"/><polygon class="cls-13" points="127.7 492.52 125.28 492.52 125.47 497.43 127.88 497.43 127.7 492.52"/><polygon class="cls-13" points="115.89 337.93 113.48 337.93 113.66 342.84 116.08 342.84 115.89 337.93"/><polygon class="cls-13" points="106.13 400.05 103.71 400.05 103.9 404.95 106.31 404.95 106.13 400.05"/><polygon class="cls-13" points="109.85 337.93 107.44 337.93 107.62 342.84 110.03 342.84 109.85 337.93"/><polygon class="cls-13" points="118.21 400.05 115.79 400.05 115.98 404.95 118.39 404.95 118.21 400.05"/><polygon class="cls-13" points="121.66 492.52 119.24 492.52 119.43 497.43 121.84 497.43 121.66 492.52"/><polygon class="cls-13" points="119.35 430.52 116.93 430.52 117.11 435.43 119.53 435.43 119.35 430.52"/><polygon class="cls-13" points="120.52 462.05 118.11 462.05 118.29 466.95 120.71 466.95 120.52 462.05"/><polygon class="cls-13" points="107.27 430.52 104.85 430.52 105.03 435.43 107.45 435.43 107.27 430.52"/><polygon class="cls-13" points="92.87 368.41 90.45 368.41 90.63 373.31 93.05 373.31 92.87 368.41"/><polygon class="cls-13" points="94.05 400.05 91.63 400.05 91.81 404.95 94.23 404.95 94.05 400.05"/><polygon class="cls-13" points="103.54 492.52 101.12 492.52 101.31 497.43 103.72 497.43 103.54 492.52"/><polygon class="cls-13" points="91.73 337.93 89.31 337.93 89.5 342.84 91.91 342.84 91.73 337.93"/><polygon class="cls-13" points="97.5 492.52 95.08 492.52 95.26 497.43 97.68 497.43 97.5 492.52"/><polygon class="cls-13" points="95.19 430.52 92.77 430.52 92.95 435.43 95.37 435.43 95.19 430.52"/><polygon class="cls-13" points="96.36 462.05 93.94 462.05 94.13 466.95 96.54 466.95 96.36 462.05"/><polygon class="cls-13" points="102.4 462.05 99.98 462.05 100.17 466.95 102.58 466.95 102.4 462.05"/><polygon class="cls-13" points="109.58 492.52 107.16 492.52 107.35 497.43 109.76 497.43 109.58 492.52"/><polygon class="cls-13" points="97.77 337.93 95.35 337.93 95.54 342.84 97.95 342.84 97.77 337.93"/><polygon class="cls-13" points="100.09 400.05 97.67 400.05 97.86 404.95 100.27 404.95 100.09 400.05"/><polygon class="cls-13" points="101.23 430.52 98.81 430.52 98.99 435.43 101.41 435.43 101.23 430.52"/><polygon class="cls-13" points="98.91 368.41 96.49 368.41 96.67 373.31 99.09 373.31 98.91 368.41"/><polygon class="cls-13" points="108.44 462.05 106.03 462.05 106.21 466.95 108.63 466.95 108.44 462.05"/><polygon class="cls-13" points="84.28 462.05 81.86 462.05 82.05 466.95 84.46 466.95 84.28 462.05"/><polygon class="cls-13" points="85.42 492.52 83 492.52 83.18 497.43 85.6 497.43 85.42 492.52"/><polygon class="cls-13" points="81.97 400.05 79.55 400.05 79.73 404.95 82.15 404.95 81.97 400.05"/><polygon class="cls-13" points="83.1 430.52 80.69 430.52 80.87 435.43 83.29 435.43 83.1 430.52"/><polygon class="cls-13" points="78.24 462.05 75.82 462.05 76 466.95 78.42 466.95 78.24 462.05"/><polygon class="cls-13" points="75.73 404.95 76.11 404.95 76.01 402.24 75.73 404.95"/><polygon class="cls-13" points="79.38 492.52 76.96 492.52 77.14 497.43 79.56 497.43 79.38 492.52"/><polygon class="cls-13" points="77.06 430.52 74.65 430.52 74.83 435.43 77.25 435.43 77.06 430.52"/><polygon class="cls-13" points="86.83 368.41 84.41 368.41 84.59 373.31 87.01 373.31 86.83 368.41"/><polygon class="cls-13" points="79.43 368.41 78.94 373.31 80.97 373.31 80.79 368.41 79.43 368.41"/><polygon class="cls-13" points="85.69 337.93 83.27 337.93 83.46 342.84 85.87 342.84 85.69 337.93"/><polygon class="cls-13" points="88.01 400.05 85.59 400.05 85.77 404.95 88.19 404.95 88.01 400.05"/><polygon class="cls-13" points="91.46 492.52 89.04 492.52 89.22 497.43 91.64 497.43 91.46 492.52"/><polygon class="cls-13" points="89.14 430.52 86.73 430.52 86.91 435.43 89.33 435.43 89.14 430.52"/><polygon class="cls-13" points="90.32 462.05 87.9 462.05 88.09 466.95 90.5 466.95 90.32 462.05"/><path class="cls-13" d="M129.12,368.59l0-.18h-2.41l.19,4.9h2.41Z"/><path class="cls-13" d="M127.17,337.93h-1.61l.18,4.91h1.7C127.34,341.12,127.25,339.48,127.17,337.93Z"/><polygon class="cls-13" points="121.93 337.93 119.52 337.93 119.7 342.84 122.12 342.84 121.93 337.93"/><polygon class="cls-13" points="132.6 462.05 130.19 462.05 130.37 466.95 132.79 466.95 132.6 462.05"/><polygon class="cls-13" points="133.74 492.52 131.32 492.52 131.51 497.43 133.93 497.43 133.74 492.52"/><polygon class="cls-13" points="125.39 430.52 122.97 430.52 123.16 435.43 125.57 435.43 125.39 430.52"/><polygon class="cls-13" points="124.25 400.05 121.83 400.05 122.02 404.95 124.43 404.95 124.25 400.05"/><polygon class="cls-13" points="123.07 368.41 120.65 368.41 120.84 373.31 123.25 373.31 123.07 368.41"/><polygon class="cls-13" points="73.33 492.52 70.92 492.52 71.1 497.43 73.52 497.43 73.33 492.52"/><polygon class="cls-13" points="66.86 492.52 66.37 497.43 67.48 497.43 67.29 492.52 66.86 492.52"/><path class="cls-13" d="M139,492.52h-1.66l.18,4.91h1.9C139.31,495.84,139.17,494.2,139,492.52Z"/><polygon class="cls-13" points="72.2 462.05 69.95 462.05 69.83 463.25 69.97 466.95 72.38 466.95 72.2 462.05"/><polygon class="cls-13" points="126.56 462.05 124.15 462.05 124.33 466.95 126.75 466.95 126.56 462.05"/><polygon class="cls-13" points="130.29 400.05 127.88 400.05 128.06 404.95 130.47 404.95 130.29 400.05"/><polygon class="cls-13" points="131.43 430.52 129.01 430.52 129.19 435.43 131.61 435.43 131.43 430.52"/><path class="cls-13" d="M136.46,462.05h-.23l.18,4.9h.46C136.73,465.33,136.6,463.7,136.46,462.05Z"/><path class="cls-8" d="M166.54,319.13l-6.16-17s-26,19-53.53,20.64-39.41-9.5-39.41-9.5l-3.91,13.43s18.74,11.13,41.61,13.42S166.54,319.13,166.54,319.13Z"/><path class="cls-8" d="M139.36,354.25a349.72,349.72,0,0,1,8.73,129.68q33.19.74,66.39,1.62c-.21-2.79-.45-5.59-.71-8.38l-58.07-1.58S163.86,385.91,139.36,354.25Z"/><path class="cls-9" d="M115.21,331.34c-.29-7.67-8.13-13.88-17.51-13.88s-16.76,6.21-16.47,13.88,8.12,13.88,17.51,13.88S115.5,339,115.21,331.34Z"/><path class="cls-10" d="M110.25,331.34c-.19-5.18-5.74-9.37-12.38-9.37S86,326.16,86.19,331.34s5.73,9.37,12.38,9.37S110.44,336.51,110.25,331.34Zm-22,0c-.16-4.26,4.16-7.72,9.64-7.72s10.06,3.46,10.22,7.72-4.16,7.71-9.64,7.71S88.45,335.6,88.29,331.34Z"/><path class="cls-10" d="M102.73,331.34a5,5,0,0,0-4.7-5,4.58,4.58,0,0,0-4.33,5,5,5,0,0,0,4.7,5A4.57,4.57,0,0,0,102.73,331.34Zm-8.24,0a3.78,3.78,0,0,1,3.57-4.13,4.12,4.12,0,0,1,3.88,4.13,3.76,3.76,0,0,1-3.57,4.12A4.12,4.12,0,0,1,94.49,331.34Z"/><path class="cls-9" d="M144.75,335.36c7.52-2.7,11.57-10.12,9-16.58s-10.68-9.5-18.2-6.8-11.57,10.13-9,16.59S137.23,338.07,144.75,335.36Z"/><path class="cls-10" d="M143.26,331.57c5.33-1.92,8.26-7,6.55-11.36s-7.41-6.34-12.73-4.43-8.26,7-6.55,11.36S137.94,333.48,143.26,331.57Zm-5.64-14.4c4.4-1.58,9.1.05,10.51,3.64s-1,7.78-5.41,9.36-9.1-.05-10.51-3.64S133.23,318.75,137.62,317.17Z"/><path class="cls-10" d="M141.82,327.89c2-.72,2.88-3.19,2-5.52s-3.28-3.64-5.27-2.92-2.88,3.19-2,5.52S139.82,328.61,141.82,327.89Zm-3-7.69a3.61,3.61,0,0,1,4.35,2.4,3.38,3.38,0,0,1-1.63,4.55,3.61,3.61,0,0,1-4.35-2.4A3.37,3.37,0,0,1,138.81,320.2Z"/><path class="cls-9" d="M72.63,325.33c3.32-5.85,3.39-12.13.17-14s-8.53,1.28-11.84,7.13-3.4,12.12-.17,14S69.31,331.17,72.63,325.33Z"/><path class="cls-10" d="M70.93,324.32c2.24-3.95,2.2-8.24-.08-9.59s-5.95.75-8.19,4.69-2.21,8.24.08,9.59S68.69,328.26,70.93,324.32Zm-7.55-4.47c1.85-3.25,4.87-5,6.75-3.86s1.92,4.65.07,7.9-4.86,5-6.75,3.86S61.54,323.1,63.38,319.85Z"/><path class="cls-10" d="M68.34,322.79c1.2-2.11,1.48-4.23.62-4.74s-2.52.79-3.72,2.9-1.47,4.23-.62,4.74S67.15,324.9,68.34,322.79Zm-2.83-1.68c1-1.73,2.36-2.8,3.07-2.38s.48,2.16-.51,3.9S65.71,325.43,65,325,64.53,322.85,65.51,321.11Z"/><path class="cls-5" d="M124.07,207.29l5.13-1.3,15.49-2.84L128.5,153.64,124.78,150,95,150c1.34,17.27-4.72,45.07-4.72,45.07Z"/><path class="cls-6" d="M135.62,204.69C116.83,193,96.67,146.94,96.67,146.94l-.42,3.53.81,46.07L99,167.93c3.92,13.15,1.06,38.25,1.06,38.25l7.86-1.33L99.11,156l27.46,58S154.41,216.41,135.62,204.69Z"/><path class="cls-6" d="M144.69,203.15,128.5,153.64l0,0c.44,14.26,1.54,47.92,1.54,47.92l4.36-.74-2.17-29.22,10,32Z"/><path class="cls-19" d="M137.79,140.93c.5-.51-1.28-28.82-14.7-32.23s-37.16,4-38.7,12.24S90,156,90,156l44-1.14S137.29,141.43,137.79,140.93Z"/><path class="cls-20" d="M138.57,129.48c-2.84-12.81-13.82-8.9-14.15-5.58s-3.21,26.93-3.39,29l11.9,33.16,20.89-16S141.41,142.3,138.57,129.48Z"/><path class="cls-2" d="M137.76,154.29c2.05-7.21-2.92-30.36-2.92-30.36l-47.6-3.11,4.56,35.3,36.08,7.45S135.7,161.51,137.76,154.29Z"/><path class="cls-21" d="M120.87,186l6.13-1.44L134.39,171l-3.09-9.33c-11,.22-26.76-3.34-35.79-5.66,0,3-.08,6.15-.29,9.35Z"/><path class="cls-7" d="M96.37,159.79,93.09,147.7s-2-4.26-5.19-2.17,2.42,12.7,4.76,15.67S96.37,159.79,96.37,159.79Z"/><path class="cls-6" d="M95.64,163.39c1.1,4,22.27,18.56,23,18.91s8-.66,8-.66,8.76-15.58,9.85-20.31c.68-3-1.24-17.71-1.67-28.59l-.38-1.17-2.11-1.6L130,121c-11.44,9.06-29.07.61-29.07.61l-1.31,8.83-3.58,3.28.9,12,.44.95-5,2.54C93.88,155.84,95.21,161.79,95.64,163.39Z"/><path class="cls-7" d="M120.79,162.05l.92-3.67-3.58-16.72-5.48,0a38.42,38.42,0,0,1,3,4.06c2.5,3.57,1.54,15.57,1.54,15.57Z"/><path class="cls-5" d="M131.83,160l-.33,12.67c2.23-4.33,4.51-9.07,5-11.34a60,60,0,0,0,.45-9A14.18,14.18,0,0,1,131.83,160Z"/><path class="cls-5" d="M122.27,161.64c-1.13,0-2.54-.36-3.22-.4s-.89-2.45-.89-2.45l-1.15,3,5.08,3.25a5.68,5.68,0,0,0,4-4.17l-5.64-20.34,4.31,19.74S123.4,161.69,122.27,161.64Z"/><path class="cls-7" d="M110.18,168.73l0,7.68,1.86,1.34Z"/><path class="cls-7" d="M95.64,163.39c.63,2.33,7.93,8.13,14.15,12.7l-4.57-13.37-3.89-3,2.3-11.78,4.42-1.05L104.27,139l-3.81-14-.81,5.48-3.58,3.28.9,12,.44.95-5,2.54C93.88,155.84,95.21,161.79,95.64,163.39Z"/><path class="cls-7" d="M111.77,149.72a24.54,24.54,0,0,1-5.85-.07,14.32,14.32,0,0,1-3.77-1.55l-.17.28a9.77,9.77,0,0,0,5.52,1.89C110.81,150.35,111.77,149.72,111.77,149.72Z"/><path class="cls-22" d="M113.31,147.51l-3.62-1.72-2.51-.24s-1.65-.21-1.77-.17-2.9,2.27-2.9,2.27a9.45,9.45,0,0,0,3.85,1.41C108.56,149.33,112.19,149,113.31,147.51Z"/><path class="cls-23" d="M111.58,147.83a2.08,2.08,0,0,0-.7-1.47l-1.1-.52a1.53,1.53,0,0,0-.3,0,1.94,1.94,0,0,0-2,2,2.09,2.09,0,0,0,.54,1.31,12.13,12.13,0,0,0,3.39-.51A2.07,2.07,0,0,0,111.58,147.83Z"/><path class="cls-5" d="M105.49,145.09c-1.5.15-3.16,1.77-3.63,2.43l-.14.21,3.8-1.61,1.15-.26c3.14-.13,8,2.46,8,2.46-1.75-2.12-7.25-4.89-9.19-4.74s-3,2.43-3,2.43a7.12,7.12,0,0,1,2.91-1.4,9.92,9.92,0,0,1,3.64.75A11.06,11.06,0,0,0,105.49,145.09Z"/><path class="cls-22" d="M133.84,145.18s-3.07-1.79-3.18-1.81-1.51.47-1.51.47l-2.12.69-2.68,2.37c1.39,1.28,4.67,1,6.52.38A7,7,0,0,0,133.84,145.18Z"/><path class="cls-23" d="M130.87,147.28a6.71,6.71,0,0,0,2.19-1.3,1.48,1.48,0,0,0,0-.21,2.1,2.1,0,0,0-.59-1.38l-1-.59a2,2,0,0,0-.48-.06,1.93,1.93,0,0,0-1.95,2,2.08,2.08,0,0,0,1.07,1.74A7.23,7.23,0,0,0,130.87,147.28Z"/><path class="cls-5" d="M133.42,143.5s-1.62-2.14-3.35-1.95-5.78,3.95-6.7,6.42c0,0,3.54-3.48,6.33-3.9l1-.22,3.89,1.28-.19-.19c-.6-.59-2.51-2-3.86-1.86a8.25,8.25,0,0,0-3,.89,7.45,7.45,0,0,1,3-1.39A6.62,6.62,0,0,1,133.42,143.5Z"/><path class="cls-7" d="M134.51,145.83l-.22-.26a10.84,10.84,0,0,1-2.87,2.23,18.67,18.67,0,0,1-5.1,1.08s1,.48,3.9-.17A7.33,7.33,0,0,0,134.51,145.83Z"/><path class="cls-19" d="M114.27,148.17l.08-.5s-4.8-2.18-7.34-1.95a15.48,15.48,0,0,0-5.59,2.2l.09.22s3-2,5.45-2.1S114.27,148.17,114.27,148.17Z"/><path class="cls-19" d="M134.38,145.43l.33-.19a7.92,7.92,0,0,0-4.49-1.57c-2.21.16-6.58,3.93-6.58,3.93l.23.17c.09,0,2.66-2.91,5.73-3.34A6.29,6.29,0,0,1,134.38,145.43Z"/><path class="cls-2" d="M105.85,138.09c-2.72-.12-7.88,4.18-7.88,4.18l-.06.48a25.11,25.11,0,0,1,6.65-2.53c3.07-.51,9.35,2.48,9.35,2.48l1.28-3.19-1.43,2s.35-1.55.47-1.79S108.56,138.22,105.85,138.09Z"/><path class="cls-2" d="M122.64,142.74s8.56-5,9.44-4.6a24.58,24.58,0,0,1,3,2.15l-.07-.24s-1.36-3.79-3.06-3.85-8.84,3.44-8.84,3.44l.09,2.11L122,139.9Z"/><path class="cls-5" d="M107.18,174.14c1,.76,2,1.51,3,2.22-2.2-5.36-3.43-13.72-3.43-13.72s-7.36-4.5-9.66-7.35a31.23,31.23,0,0,1-3.28-6.76l-1.35.7.9,4.14a24.46,24.46,0,0,0,2.91,4.55,26.75,26.75,0,0,0,9.11,7.2C105.18,166.7,106.09,170.43,107.18,174.14Z"/><path class="cls-2" d="M132.56,165.12l-6.79-4.45-2.67,2.9-4.71-1.73L108.08,168c-8.43-4.7-12.7-34.61-12.7-34.61l-3.9,9.82c-2,5.63,4.32,28.79,4.32,28.79l.81-1.21c1.89,10.26,11.46,19.38,11.46,19.38l-.52-2.52c6.63,11.84,25.09,20.83,25.09,20.83L135.83,190l.19,2c4.42-4.13.27-23.9.27-23.9l.66,1.34c3-7.48-1-19.85-1-19.85s.6,7.72.4,8.6S132.56,165.12,132.56,165.12Zm-4.41,13.31-3.22-7.11-6.63.84-.55,6.94L111,169.48c.29-.1,9.22-4.12,9.22-4.12l2.2,1.83,1.55-2.11,6.35,2.46Z"/><path class="cls-5" d="M126.93,172.24l1.91-2.08-2.15,1s-5.22-.82-8.36.72l-3.74-.6,3.68,1.58S124.3,171.26,126.93,172.24Z"/><path class="cls-13" d="M115.49,165.68c-1.88,1.34-1.71,4.64-1.71,4.64l2.38-.67Z"/><path class="cls-13" d="M128,165.72l-.5,3.39,1.42,0C130.07,167.4,128,165.72,128,165.72Z"/><polygon class="cls-24" points="124.64 168.91 130.04 169.41 124.17 167.71 122.26 169.31 120.22 168.05 112.24 170.82 120.13 169.38 122.45 170.92 124.64 168.91"/><path class="cls-5" d="M114.82,147.26a14,14,0,0,1-1.09,4.51c-1,2.34-5.93,2.92-5.93,2.92a7.18,7.18,0,0,0,5.6-1C116.41,151.85,114.82,147.26,114.82,147.26Z"/><path class="cls-5" d="M122.84,147.42s.25,2.6,1,3.51c.52.65,2.91.92,4.31,1A10.16,10.16,0,0,1,122.84,147.42Z"/><path class="cls-5" d="M129.19,152s-.42,0-1-.06a8.28,8.28,0,0,0,1.45.31Z"/><path class="cls-16" d="M106.6,195.43c-6.23-8.55-16.82-64-16.82-64l-11.33-1.76c2,11.53-.34,43.83-.34,43.83Z"/><path class="cls-14" d="M72.17,125.22l-.34,5.94,1.53-1,.61,6.18,1.87-.73,2.68,2.65,6,.2L90.67,140l-.65.77,8.39-.93-1.54,1.9L109,139.18l2.53,2.67,5.57-2.53,7.2,1.28,2.12-1.1,2.45.07,2-1.08,10.47-2.38-.33-1.18,5-2-1.18-.74,4.77-1.75-.5-3.41,1.62-.36-3-6.61.9-.1-4.84-9,.55-1.45L141,105.41s-10.4-3.36-25.82-2.51S79.05,112,79.05,112l-8,5.58,1.41,1.23-1.77,6.62Z"/><path class="cls-16" d="M107.51,134.08s-7,2.41-6.51,2.48,7.32.76,7.32.76l-4.8,3,5.46-1.16,2.16,2.28,1.19,0,4.75-2.16,7.2,1.28,2.12-1.1,2.45.07,2-1.08,10.47-2.38-.33-1.18,5-2-1.18-.74,4.77-1.75-.5-3.41,1.62-.36-3-6.61.9-.1-4.84-9,.55-1.45-2.64-3.25a23.32,23.32,0,0,1-8,7.23l3,1-11.66,2.59,3.81.73-13.56,1.53,4.23,1.28L106.9,123l3.67,1.53-8.27,3.55,6,.83-7.62,3.74Z"/><path class="cls-25" d="M133.45,111.74s-4.06-16.8-20.82-21.17S81,102.53,85,118.71C85,118.71,109.89,121.71,133.45,111.74Z"/><path class="cls-26" d="M127.35,114c2-.68,4.07-1.44,6.1-2.3,0,0-4.06-16.8-20.82-21.17a21.51,21.51,0,0,0-8.62-.48c.57.13,1.14.28,1.72.47C119.9,95.05,125.67,108.94,127.35,114Z"/><path class="cls-27" d="M103.7,95.05c1.26-.22,2.13-1.14,1.94-2.07A2.17,2.17,0,0,0,103,91.69c-1.26.21-2.13,1.14-1.94,2.06A2.18,2.18,0,0,0,103.7,95.05Z"/><path class="cls-28" d="M103.43,93.61,99.18,73,98.3,89.29c2,.06,4,4.31,4,4.31Z"/><path class="cls-27" d="M115.74,88.28c-3.45-1.22-12.08,2-13.36,3.63l.62.33s12.64,4,18,4.31,22.72-3,22.72-3-10,1.31-8.81,1.06,19.29-3.5,19.29-3.5l-15.34-.44s7.46-2.93,7-2.83-28.42,2.77-28.42,2.77l4.82-1.85A12.33,12.33,0,0,1,115.74,88.28Z"/><path class="cls-29" d="M106.5,87.9,99.18,73l4.25,20.65,1.06-.38S104.68,88.6,106.5,87.9Z"/><path class="cls-17" d="M156.52,524.49l-5.3-9.07c-15.2,6.21-4.8,33.72-4.8,33.72l5.66-4-2.19,16.44,5.86-4.21.6,16.23,2.46-3.81L165.2,585s-9.92,18.83-2.19,22,13.55,24.85,22.63,26.46,41.27-6,41.27-6l1.58-16.63c-16-8.82-25.43-31.67-25.43-31.67h2.4l-5-11.22,4.64.8L202.79,556l3.63.6-3.56-9.42,3.58-6.22-3.59-4.81s2.59-.6,5.05-9.62-14.09-17.83-14.09-17.83l.76,9.62C187,525.29,156.52,524.49,156.52,524.49Z"/><path class="cls-14" d="M156.52,524.49l-5.3-9.07c-6.85,2.81-8.5,9.94-8.24,16.94,13.34,3.58,32.58,5.76,51.44-2.06l-1.93,18,2.53-1.8-6.88,25.05,3.74-2-1.14,12.63,2.9-3s11.39,26.06,19.8,31.27l5.19,4.61s-16.45,10.42-30,1.6S172,595.84,160.78,600.85l-.71.33c0,2.71.7,5,2.94,5.88,7.74,3.21,13.55,24.85,22.63,26.46s41.27-6,41.27-6l1.58-16.63c-16-8.82-25.43-31.67-25.43-31.67h2.4l-5-11.22,4.64.8L202.79,556l3.63.6-3.56-9.42,3.58-6.22-3.59-4.81s2.59-.6,5.05-9.62-14.09-17.83-14.09-17.83l.76,9.62C187,525.29,156.52,524.49,156.52,524.49Z"/><path class="cls-18" d="M191.88,569.58l-1.14,12.63,2.9-3s9.73,22.25,17.84,29.73c4.86,3.65,8.55,6.39,8.55,6.39s7.06,4.55,2.58,13.16c2.64-.59,4.3-1,4.3-1l1.58-16.63c-16-8.82-25.43-31.67-25.43-31.67h2.4l-5-11.22,4.64.8L202.79,556l3.63.6-3.56-9.42,3.58-6.22-3.59-4.81s2.59-.6,5.05-9.62c1.23-4.48-2.25-8.92-6.06-12.25,1,5.62.47,12.71-7.42,16.06l-1.93,18,2.53-1.8-6.88,25.05Z"/><path class="cls-14" d="M156.28,571.61l.07,2,1.17-1.81Z"/><path class="cls-14" d="M151.88,546.68l-.42,3.12c15.07,1.76,34.5,2.55,51.92-1.29l-.52-1.37,2.33-4C191.51,546.48,169.08,550.58,151.88,546.68Z"/><path class="cls-14" d="M210.25,592.43c-.37-.56-.73-1.12-1.07-1.67-17.52,4.69-35.5,12.2-37.67,23.92-.11.61-.22,1.19-.33,1.75l1.14,1.91C179.39,609.77,192.77,596.47,210.25,592.43Z"/><polygon class="cls-14" points="206.04 555.56 155.75 557.36 155.87 560.54 203.36 559.14 202.79 555.96 206.42 556.56 206.04 555.56"/><path class="cls-14" d="M148,545.63c-1-.33-2-.63-3-.91.74,2.69,1.39,4.42,1.39,4.42l4-2.82C149.58,546.11,148.78,545.88,148,545.63Z"/><path class="cls-14" d="M204.49,565.48c-12.62,3.95-29.66,7.87-44.74,6.54l.85,2c13.3.39,28.18-.35,40.82-3.88l-1-2.2,4.64.8Z"/><path class="cls-14" d="M204.79,582.91c-.56-1.11-1-2-1.27-2.65-14.64,3.81-29.93,6.23-39,3.26l.63,1.5s-.34.64-.84,1.7C175.37,588.44,190.83,589,204.79,582.91Z"/><path class="cls-3" d="M161.74,301.83l-3.07-9.92c-40.57-23.75-83.91-97.7-83.91-97.7L99,238.4C136.15,292.81,161.74,301.83,161.74,301.83Z"/><path class="cls-3" d="M163.28,181.88,138,180.38c-2.3,18.94-39.47,37.88-39.47,37.88C89,214.35,83.94,190.6,83.94,190.6L58.52,202.32l4.1,5.11,13.65,35.48,5.7-8.42,14,20.44s8.89-11.42,17.51-14.13,18.11-14.13,18.11-14.13l-.43,4.51C162.69,214.35,163.28,181.88,163.28,181.88Z"/><polygon class="cls-3" points="118.71 260.34 73.43 279.58 75.82 287.1 122.53 266.06 118.71 260.34"/><path class="cls-3" d="M207.08,187.59l-7.71-2.6c-29,22.24-8.76,49.9-8.76,49.9,4.46,1.4,10.57-1.4,10.57-1.4s-13-10.22-8.56-25.26S207.08,187.59,207.08,187.59Z"/><path class="cls-3" d="M288.75,442.54c67.77-20.5,69.19-127.44,51.94-154.78S328.57,237,328.57,237l-17.84-1-.44,2.44s-2.25,12.21,10.15,38.33c6.94,14.63,14.33,29.54,14.33,29.54C357.42,397.62,288.75,442.54,288.75,442.54Z"/><polygon class="cls-6" points="127.75 186.37 123.67 188.21 120.9 205.16 125.95 206.09 134.95 195.36 127.75 186.37"/><path class="cls-5" d="M123.22,213.29l13.63-18.1-19.52,2.19L117,205.8c-12.27-1.27-11.15,7-11.15,7C112,210,123.22,213.29,123.22,213.29Z"/><polygon class="cls-6" points="131.86 194.44 123.25 184.7 116.88 186.95 119.25 202.45 125.74 203.43 131.86 194.44"/><path class="cls-13" d="M116.28,181.81l7.82,11.65,21.15-1.84c-.36-.12-8.33-9.92-8.33-9.92l-3.47,0,4.44,6-5.34-6-3.13,0,5.68,6.82-7.52-6.81-4.69,0,4.43,6.78-5.6-6.78-2.5,0,5.55,7.91-7-7.9Z"/><path class="cls-13" d="M138.16,205.57s7.24-9.8,7.58-9.92l-21.28-1.84-6.95,11.64H119l6.41-7.91-5,7.92H123l5.09-6.77-3.92,6.78,4.69,0,7-6.8-5.17,6.81,3.14,0,4.89-6-4,6Z"/><polygon class="cls-9" points="362.64 185.5 113.14 191.73 113.44 196.57 362.94 190.35 362.64 185.5"/><path class="cls-30" d="M371.92,186.94l-27.62-8s7.84,7.83,2.45,19.49Z"/><path class="cls-31" d="M371.92,186.94l-.95-.27-22.52,1.09a18.4,18.4,0,0,1-1.7,10.66Z"/><polygon class="cls-32" points="279.02 4.67 115.24 191.02 295.84 437.34 297.5 436.15 117.9 191.19 280.61 6.07 279.02 4.67"/><path class="cls-7" d="M121.37,206.84l4.56-7.61-7.39-15.69-21.37,8.19-.63,7.73s6.67,8.87,12.39,7.84,5.23-2.08,5.23-2.08l1.12,2.19Z"/><path class="cls-6" d="M107.54,207.12l-.56.17a5.8,5.8,0,0,0,2,0c5.73-1,5.23-2.08,5.23-2.08l1.12,2.19,6.09-.57,4.56-7.61-.08-.17-8,.17-7.62-9.52S119.75,203.72,107.54,207.12Z"/><polygon class="cls-7" points="108.56 192.59 65.46 187.06 66.63 213.87 102.93 199.34 108.56 192.59"/><path class="cls-16" d="M44.25,220.06,41.94,224a73.46,73.46,0,0,0,16.87-4.31l-.63,4c21.79-1,34.49-7.35,34.49-7.35-4.78-8,1.28-28.18,1.28-28.18l.49.72c1-4.22-6.42-7.69-6.42-7.69s1.13,9-2.24,2.6a7.45,7.45,0,0,0-.6-1c-4-5.37-14.61-5-14.61-5L70,182.16c-3-7.35-21-7.49-21-7.49l3.86,5s-8.39-2.47-20,.73-5.83,38.67-5.83,38.67L23.28,225C31.21,225.06,44.25,220.06,44.25,220.06Z"/><path class="cls-8" d="M44.25,220.06,41.94,224a73.46,73.46,0,0,0,16.87-4.31l-.63,4c21.79-1,34.49-7.35,34.49-7.35-1.74-2.9-2-7.42-1.73-12l-9.75,1.76,3.75-6.19s-9.36,3.3-9.58,2.75.56-6.83.56-6.83l-9,6.82.69-8.54L62,200.55l-1.48-5.28c-4.4,8.92-12.4,8.73-12.4,8.73l-.78-4.61a44.13,44.13,0,0,1-20.78,16.09c.26,2.24.49,3.62.49,3.62L23.28,225C31.21,225.06,44.25,220.06,44.25,220.06Z"/><path class="cls-14" d="M86.74,186c-7.54,8.81-8.29,35.54-8.29,35.54l2.49-.85c-3.31-10.1,7.33-35.27,7.33-35.27Z"/><polygon class="cls-14" points="69.55 179.18 56.67 222.65 58.8 222.65 71.02 180.18 69.55 179.18"/><path class="cls-14" d="M43.13,221.06s15.09-31.43,9.71-41.36L50.68,179s1.77,21.75-9.36,42.14Z"/></g></g></svg>