<svg xmlns="http://www.w3.org/2000/svg" viewBox="0 0 493.04 688.1"><defs><style>.cls-1{fill:#7a3201;}.cls-2{fill:#537c23;}.cls-3{fill:#8fb554;}.cls-4{fill:#30290e;}.cls-5{fill:#51471d;}.cls-6{fill:#6b0505;}.cls-7{fill:#f7e9b0;}.cls-8{fill:#7f4c30;}.cls-9{fill:#6e933d;}.cls-10{fill:#936d21;}.cls-11{fill:#6d6d6d;}.cls-12{fill:#a8a2a1;}.cls-13{fill:#bcb09b;}.cls-14{fill:#6d6337;}.cls-15{fill:#a07e6b;}.cls-16{fill:#4c721c;}.cls-17{fill:#dbbc77;}.cls-18{fill:#af8c46;}.cls-19{fill:#7a5f34;}.cls-20{fill:#968a56;}.cls-21{fill:#fff;}.cls-22{fill:#3f381c;}.cls-23{fill:#877673;}.cls-24{fill:#ce5300;}.cls-25{fill:#f4d30f;}.cls-26{fill:#991919;}.cls-27{fill:#0c090c;}.cls-28{fill:#8c7f4b;}.cls-29{fill:#706535;}.cls-30{fill:#664e24;}.cls-31{fill:#7c6135;}.cls-32{fill:#66312d;}.cls-33{fill:#c1972d;}.cls-34{fill:#726739;}.cls-35{fill:#381f0e;}.cls-36{fill:#7f0e0e;}.cls-37{fill:#541212;}</style></defs><g id="Layer_2" data-name="Layer 2"><g id="Capa_2" data-name="Capa 2"><path class="cls-1" d="M170.93,417.28a20.42,20.42,0,0,0,2-4.31S172.25,414.67,170.93,417.28Z"/><path class="cls-1" d="M144.35,444.3c-17.71,4.76-8.86,46.3-8.86,46.3s-6.12-34.05,17.71-39.49c0,0-31.33,24.51-4.09,53.11,0,0-8.85-30.64,7.49-40.17,0,0-27.92,61.28,44.27,57.2s91.4,2.89,94.73-42.82-5.52-149.9-5.52-149.9L183.16,287.67s-36.09,76.27-24.51,103.51-6.81,36.09-6.81,36.09,12.86,0,19.09-10c1.32-2.61,2-4.31,2-4.31a20.42,20.42,0,0,1-2,4.31C167,425,157.58,440.73,144.35,444.3Z"/><path class="cls-1" d="M323.36,218c.41.06-.2-.51-1.38-1.43C322.59,217.47,323.07,218,323.36,218Z"/><path class="cls-1" d="M211.89,185.37l.38-.27Z"/><path class="cls-1" d="M202.32,192.25l9.57-6.88.38-.27-.38.27c-2,1.58-11.18,10.43,1.41,34.46,14,26.81,51.07,38.56,51.07,38.56l58.73-2.55-15.57-49.29s10.47,7,14.45,10.06c-3.2-4.48-9.86-18-9.86-18a17,17,0,0,0,10,4.09s-6.89-5.87-7.4-15.07l4.34,4.6s2.3-20.69-7.66-31.16-13.54-12-22.22-11.74L244.2,156c-1.28,0-32.18,2-36.52,19.15l9.45-4.09S203.85,180.25,202.32,192.25Z"/><path class="cls-2" d="M256.37,184.33l-2.4-8.11s-3.22-6.19-16.67-9.08c0,0-.51,11.92,9,18.55S256.37,184.33,256.37,184.33Z"/><path class="cls-3" d="M254,176.22s-3-5.76-15.29-8.76c5.16,3,14.42,9.53,16.73,13.67Z"/><path class="cls-2" d="M300.12,192.16c9.53-6.64,9-18.55,9-18.55-13.45,2.89-16.68,9.08-16.68,9.08l-2.39,8.11S290.58,198.8,300.12,192.16Z"/><path class="cls-4" d="M316,220.61c-19.73-.47-66.71-9.4-66.71-9.4l-71.88,11.28s-20.67,46-19.27,75.64,6.58,33.36,6.58,33.36l-.94-17.86s16.45,16.92,9.4,28.66-.94,24.43-.94,24.43l5.17-16.44s-2.35,18.32,8,29.6l4.23-11.28s4.7,24,27.25,38.06S348,443.74,348,443.74L346.43,420l58.88,27.07-19-18.32,46.75,9.4-44.64-64.37,21.15-64.36-59.67-64.84,20.67,4.7S335.77,221.08,316,220.61Z"/><path class="cls-5" d="M280.61,209.28l-14.41,33.9c8.47,5.09,24.37,5.93,31.57,6.36a119.52,119.52,0,0,0,18.43,0c4.85-.53,25.64-1.06,21.83-17.59S315.36,215,315.36,215l5.72-2.33C301.37,204.41,280.61,209.28,280.61,209.28Z"/><path class="cls-5" d="M171.83,223.27C164.2,238.53,174.05,235,187.4,235s65.47,3.5,65.47,3.5V200.07s-19.38-6-49.26-1.9l7.31,5.4S179.45,208,171.83,223.27Z"/><path class="cls-6" d="M19.51,62.79,16.12,78S160.63,42.87,231,57.28c0,0-42.8-15.26-92.81-14.83l8.9-4.67s-26.7-.42-70.77,15.68c0,0,14.83,1.28,13.56,1.7S39.85,73.38,19.51,62.79Z"/><path class="cls-7" d="M284.73,197.22c0,4.64,1.9,8.4,4.25,8.4s4.25-3.76,4.25-8.4a11.65,11.65,0,0,0-2.05-7.18,12.16,12.16,0,0,1,1.17,5.52c0,4-1.51,7.3-3.37,7.3s-3.37-3.27-3.37-7.3a12,12,0,0,1,1.18-5.52A11.65,11.65,0,0,0,284.73,197.22Z"/><path class="cls-8" d="M153.14,173.21,124.7,183.69s-11.28,15.47-27.53,18.59-49.71-5.1-49.71-5.1l-3.17,4.73S110.59,226.63,153.14,173.21Z"/><path class="cls-9" d="M370.12,590.59c.22-8.94-9.59-47.52-9.59-47.52l1.74,54.06S369.9,599.52,370.12,590.59Z"/><path class="cls-5" d="M81.09,246.74c5.34-2.51,0-7.2-1.42-10.14s-6-6.32-6-6.32-4.58,4.25-4.69,8.28S74.22,246,74.22,246Z"/><path class="cls-9" d="M81.6,264.15c7.75-7.53,10.54-25.33,10.54-25.33l-30.62-4.27L59.8,250.72C59.49,251.91,73.86,271.69,81.6,264.15Z"/><path class="cls-3" d="M67.43,235.38s-25.52,1.7-24.88,2.21,1,7,1,7l23.07-.25Z"/><path class="cls-9" d="M52.11,236.5c0,2.79,0,5.71,0,8l14.54-.16.83-9S59.13,235.93,52.11,236.5Z"/><path class="cls-3" d="M68.52,243.36s-28,1.87-27.3,2.42,1.07,7.69,1.07,7.69l25.31-.28Z"/><path class="cls-9" d="M51.71,244.6c0,3.05,0,6.26-.06,8.77l15.95-.18.92-9.83S59.4,244,51.71,244.6Z"/><path class="cls-3" d="M67.34,252.7s-24,1.6-23.41,2.08.92,6.59.92,6.59l21.71-.24Z"/><path class="cls-9" d="M52.92,253.76c0,2.62,0,5.37-.05,7.52l13.69-.15.78-8.43S59.53,253.22,52.92,253.76Z"/><path class="cls-3" d="M66.55,260.78s-20.19,1.35-19.68,1.75.76,5.54.76,5.54l18.26-.2Z"/><path class="cls-9" d="M54.42,261.67c0,2.2,0,4.52,0,6.33l11.51-.13.66-7.09S60,261.22,54.42,261.67Z"/><path class="cls-10" d="M142,584.89,22,67.23,12.68,69.4,132.31,585.66C135.39,586.37,139,586.56,142,584.89Z"/><path class="cls-8" d="M147.57,117.62,144.2,93.29s-17,35.14-62.79,10.24S26.1,71,17.24,75.47c0,0,27,9.26,63.66,36.44S147.57,117.62,147.57,117.62Z"/><polygon class="cls-11" points="25.79 47.58 4.08 0 0 54.56 18.71 76.76 21.1 75.88 25.79 47.58"/><polygon class="cls-12" points="4.08 0 3.69 5.28 18.17 67.15 25.67 47.33 4.08 0"/><polygon class="cls-6" points="23.06 71.7 13.87 74.52 20.3 102.31 29.7 100.35 23.06 71.7"/><polygon class="cls-13" points="60.9 234.99 51.2 235.63 52.84 242.73 62.55 242.09 60.9 234.99"/><path class="cls-13" d="M77.72,307.57l-8.58,5.5,1.72,7.43,8.58-5.5Z"/><polygon class="cls-13" points="87.17 348.35 79.22 356.54 81.15 364.87 89.1 356.69 87.17 348.35"/><polygon class="cls-13" points="123.49 505.08 114.37 508.24 116 515.29 125.12 512.13 123.49 505.08"/><polygon class="cls-13" points="130.61 535.84 120.96 536.7 122.6 543.78 132.25 542.91 130.61 535.84"/><polygon class="cls-13" points="118.03 481.54 108.42 482.58 110.06 489.64 119.67 488.6 118.03 481.54"/><path class="cls-6" d="M51.87,196.05,42,196l1.67,7.19,9.86.07Z"/><polygon class="cls-13" points="112.53 457.83 103.25 460.26 104.88 467.27 114.16 464.84 112.53 457.83"/><path class="cls-13" d="M99.14,400l-6.48,3.44-2.29,1.22,1.68,7.25,8.77-4.66Z"/><path class="cls-13" d="M109.86,446.28l-9.72.57,1.65,7.1,9.71-.57Z"/><path class="cls-3" d="M64.23,240.84s3.06,17.81,19,13.66l-1.08-8.12L68.29,228.64l-13.63,4,2.78,23.59,4.15.7Z"/><path class="cls-14" d="M303.55,409.84c1.08.7,58.53,46.41,58.53,46.41s-4.18-69.61-37.28-84.5L224.39,343s-34.91,70.3-21.47,109.43l71.57-36.36S302.47,409.15,303.55,409.84Z"/><path class="cls-9" d="M372.57,639.23s-1.47-13.68-5.9-63.84-13.34-63-13.34-63l-24.08-6.22s-9.92,17.41-16.05,33.16,21.53,34.41,35.76,59.28,3.77,46,3.77,46Z"/><path class="cls-9" d="M372.57,639.23s-1.47-13.68-5.9-63.84-13.34-63-13.34-63l-24.08-6.22s-9.92,17.41-16.05,33.16,21.53,34.41,35.76,59.28,3.77,46,3.77,46Z"/><path class="cls-3" d="M323,517.88c-3.15,6.18-6.9,14-9.8,21.45-5.51,14.17,16.3,30.68,31.1,51.95l3.06.42L339,557.16l10.59,14.09C349.45,545,330.6,524.92,323,517.88Z"/><path class="cls-9" d="M366.2,570.39c-4.56-46-12.87-58-12.87-58Z"/><path class="cls-9" d="M300.2,328.39l-31.8,44.76c-.39,19.9,14.65,23,14.65,23s-1.62,26.11,5.87,53.46,26.11,46,26.11,46S324.4,528,333.42,528s19.12-17.41,19.12-17.41l-1.8-29.84s1.27-14.3-2.19-45.39S318.09,370,318.09,370C319.42,330.25,300.2,328.39,300.2,328.39Z"/><path class="cls-3" d="M345.2,485.63l.15,1.19c.12-.48.23-1,.32-1.48Z"/><path class="cls-3" d="M333.42,528q.33,0,.66,0a48.31,48.31,0,0,0,7.82-5.59l-.79-6.1-.45.26-.66,0c-9,0-18.39-32.33-18.39-32.33s-18.63-18.65-26.11-46c-1.25-4.58-2.25-9.13-3-13.52a169.6,169.6,0,0,1-5.22-17.16L283.9,422a170.51,170.51,0,0,0,5,27.67c7.48,27.36,26.11,46,26.11,46S324.4,528,333.42,528Z"/><path class="cls-2" d="M331.08,495.4c-38.61-.83-44.37-85-44.37-85L283,409.34a180.67,180.67,0,0,0,5.89,40.28c7.48,27.36,26.11,46,26.11,46S324.4,528,333.42,528c4.24,0,8.72-3.85,12.28-7.93-13.94-1.47-18-16.34-18-16.34,8.79-.83,25.24,2.07,22.37-34S312.81,415,312.81,415l-10.65-41.86,3.48-.83,21.88,40.21-17.19-50.57-11.79,9.94L292.07,376l20.3,43.52C329,420,369.69,496.23,331.08,495.4Z"/><path class="cls-2" d="M349,493.05l-7.61,2.76c18.12,7.19,8.09,28.74,8.09,28.74,6.58,7.46,3.87,29,3.87,29a29.7,29.7,0,0,0,5-14.36,22.3,22.3,0,0,0-3.44-14.1C362.66,500.78,349,493.05,349,493.05Z"/><path class="cls-2" d="M321.14,506.59s-20.55,40.62-.38,64.25,26,32.74,31.37,63.83c0,0,12.87-28.19-7.25-51s-27.34-36.89-16.8-61.76Z"/><path class="cls-9" d="M251.37,553.17c23.41-21.83-9.93-80.55-9.93-80.55l-26.5-.65s-34.08,95.86-6.45,170l10.49.93S228,575,251.37,553.17Z"/><path class="cls-3" d="M213.21,574.38l8.35-65.23-10.12-26c-6.48,22.42-19,75.12-11.33,125.81,1-34.56,9.47-80.05,9.47-80.05Z"/><path class="cls-2" d="M216,642.65l3,.27s9-67.92,32.39-89.75c15.85-14.78,5.69-46.47-2.53-65.4l-10.9,2s27.37,29,13.34,51.86l-14,22.84s-4.85-20.5,2-34.45c0,0-16,24.17-9.74,45.8C229.5,575.82,212.44,616.52,216,642.65Z"/><path class="cls-9" d="M259.48,457.2c19.26-15.35,22.85-82.27,22.85-82.27L265,358S240.22,472.55,259.48,457.2Z"/><path class="cls-9" d="M261.78,356.47l-13.44-9.11-11.9,2.07-.63.73a89.81,89.81,0,0,0-4.5,15.9c-9.27,6.87-16.73,25.35-21.6,40.7a155.33,155.33,0,0,0-3,44.63c4.79,63.78,50.81,37.24,50.81,37.24s10.68-24.4,10.21-51.37,5.47-59.71,5.47-59.71Z"/><path class="cls-3" d="M220.64,479.36l-6-1.82-5.45,47.79s8,25.71,7,15.58S230,514.42,230,514.42C220.9,508.71,220.64,479.36,220.64,479.36Z"/><path class="cls-3" d="M239.81,373.17l8.92-23-12.67,15.6-5.67,1c-8.85,7.37-16,25.14-20.68,40a155.33,155.33,0,0,0-3,44.63c2.72,36.16,18.68,43.29,32,42.68-26.63-19.47-18.16-70.1-12.57-93.25-6.87,13-10.77,29.72-10.77,29.72C211.14,394.71,239.81,373.17,239.81,373.17Z"/><path class="cls-2" d="M261.18,423.88c.1-2.09.21-4.18.35-6.26l-1.09-51.68-3.15-5.82-8.89-5.49s-9,53.06-.28,76.37c7.18,19.16,4.19,46.95-2.43,59.46a42.17,42.17,0,0,0,5.08-2.35,142.16,142.16,0,0,0,8.59-30.58c1-23.61-8.74-39-9.88-54.23-1.2-15.94,3.92-39.78,3.92-39.78Z"/><path class="cls-2" d="M247.53,379.11s-38.41,17-38.4,83.55v4.59a46.35,46.35,0,0,0,7,16.19C212.63,456.45,210.69,401.85,247.53,379.11Z"/><path class="cls-2" d="M212.17,461.37,212,469S209.38,512,222.78,516.5a11.82,11.82,0,0,0,3.91.7,17.23,17.23,0,0,1-1.64-1.48c-9.36-9.61-8.2-34.88-7-37.67C215.54,472.13,212.75,465.07,212.17,461.37Z"/><path class="cls-2" d="M240.61,503.63s10.46-8.1,12.78-19.61c0,0-7.69,8.16-14.29,10.71.32,7.63.34,14.92-.57,19.72C240.86,509.94,240.61,503.63,240.61,503.63Z"/><path class="cls-2" d="M219.08,511.3l-5.2-7.44s-6.57,18.7,2.6,26.49C216.48,530.35,213.19,515.63,219.08,511.3Z"/><path class="cls-2" d="M240.89,517.36l-8.31,14S241.76,529.31,240.89,517.36Z"/><path class="cls-2" d="M260.59,411l5.25,13.93S263.06,412.33,260.59,411Z"/><path class="cls-2" d="M223.88,480.85s32.21-3.39,33.06-47.89c.35-18.36,1.92-22.93,3.65-22l-8.32-22.09S254.82,466.86,223.88,480.85Z"/><path class="cls-5" d="M270.07,488.47c29.24-40.68,29.36-7.08,29.36-7.08S328.2,530,346.5,504.46s-19.22-129.77-19.22-129.77l-88.35-9.54L206.35,499.39S240.83,529.16,270.07,488.47Z"/><path class="cls-2" d="M316.64,344.22c-.93.33.34,0,.48,0A.88.88,0,0,0,316.64,344.22Z"/><path class="cls-2" d="M317.13,344.2c-.13.06-3.08.91-18.07,5.27-26.64,7.73-34.4,9.94-34.84,11.33l9.09,46.14s26.3,8.57,29-3.31,1.32-26.25,1.32-26.25l17.49-24.32S319.25,344.72,317.13,344.2Z"/><path class="cls-2" d="M317.12,344.19h0S317.13,344.19,317.12,344.19Z"/><polygon class="cls-2" points="282.56 348.5 224.46 340.62 271.97 382.49 282.96 407.77 282.56 348.5"/><path class="cls-15" d="M398.06,260.18c3.71-4.84-.54-9.11-.54-9.11-.82,6.19-12.53,15.19-12.53,15.19l1.91,14.09,9.92-7.56-4.42-6.5S394.35,265,398.06,260.18Z"/><path class="cls-15" d="M410.37,275.15a15.51,15.51,0,0,0-12.81-5c-8.45.54-10.92,9.34-11.11,9.66l12.88,4.35a43.14,43.14,0,0,0,5.72-2.83C406.26,280.69,410.37,275.15,410.37,275.15Z"/><path class="cls-15" d="M404.5,281.18l5.86-.73s1.44-3.09,2-3.25l3.76-1,.94-2.63L420,273l-2.45-14.57-14.87-6.48-1.47,3.34-2.68-.78-1.71,3.62-2.88-.39-1,3.79,8.19,5.82.77,9.56Z"/><path class="cls-2" d="M347.52,258.12c-.55-1-.92-1.54-.92-1.54S347.94,272.06,347.52,258.12Z"/><path class="cls-2" d="M347.52,258.12c.42,13.94-.92-1.54-.92-1.54s.37.57.92,1.54c0-.28,0-.56,0-.87-.5-15.43-24.93-21.47-24.93-21.47s-7.23-6.94-7.87-6.94-19.29,1.57-19.29,1.57l20.09,33.11s-6.1-5.82-8.32,17.45,34,44.74,34,44.74l26.89-23.94c1.45-.67-1.23-9.84-1.23-9.84l-15.22-8.73.68-2.91C355.47,273.26,349.83,262.16,347.52,258.12Z"/><path class="cls-9" d="M350.35,308.26c1.95,21.92,18-1.12,18-2s-.14-13-.82-13.65-14.63-23.71-41.93-10.07C325.58,282.53,348.39,286.34,350.35,308.26Z"/><path class="cls-9" d="M349.16,281.41s0-10.06-.51-19a25.15,25.15,0,0,0-.34-2.84c-.29-.54-.56-1-.79-1.44,0-.28,0-.56,0-.87a15.19,15.19,0,0,0-.31-2.56c-.24-.82-.49-1.64-.77-2.46-4.79-11.74-23.85-16.45-23.85-16.45s-2.61-2.5-4.83-4.5l-7.56.47,10.1,4.92s15.59,7.83,16.25,22.37c.36,7.88.07,10.18-.27,10.63Z"/><path class="cls-9" d="M336.25,269.67l-.61-.56S336,270.05,336.25,269.67Z"/><path class="cls-16" d="M349.74,280.7c-4.19-13.78-34.3-28.59-34.3-28.59l1.38,21.14C328.29,266.36,346.06,278.1,349.74,280.7Z"/><path class="cls-16" d="M344.6,244.5C336.26,233.32,326,236,326,236s-2-8.5-15.66-8.95-18.94,7.38-18.94,7.38l10.5,1.12c8.31-7.16,19.22,4.25,19.22,4.25s2.62-2.46,15.59,4.25,12.55,42.29,12.55,42.29S352.94,255.69,344.6,244.5Z"/><path class="cls-2" d="M266.35,211.39c-33.81-4.36-55.53,11.75-55.53,11.75L302,257.7s6.46-14.76,6.3-17.45S300.16,215.76,266.35,211.39Z"/><path class="cls-2" d="M296.9,241.26l-6.27-54.14-3.09-4.47-31-5.15c-2.3,18.12-14.58,45.86-14.58,45.86l32.59,18.57,5.62-.45Z"/><path class="cls-9" d="M258.17,236.56l1.3-52.12,16.21,64.87s28.5,7.38,11.43-8.05-28.23-66.67-28.23-66.67l-1.2,3.58-9,47.88,8.13-29.31c1.27,14.32-7.09,39.82-7.09,39.82Z"/><path class="cls-9" d="M294.24,241.29l2.66,0-6.27-54.14,0,0C288,202,282,237,282,237h4.71l4-30.65Z"/><path class="cls-2" d="M317.42,348.86c6.64-10.07-8.68-38.25-8.68-38.25L270.2,296.74l30.4,62.86A23.65,23.65,0,0,0,317.42,348.86Z"/><path class="cls-17" d="M233.83,352.8c2.49-7,.32-14.23-4.86-16.06s-11.39,2.37-13.89,9.41-.32,14.22,4.86,16.06S231.33,359.83,233.83,352.8Z"/><path class="cls-18" d="M231.09,351.83c1.69-4.75.08-9.65-3.58-10.95s-8,1.49-9.69,6.24-.08,9.65,3.59,10.95S229.41,356.57,231.09,351.83ZM219,347.53c1.39-3.91,5-6.21,8-5.14s4.35,5.11,3,9-5,6.21-8,5.14S217.59,351.44,219,347.53Z"/><path class="cls-18" d="M227,350.36c.9-2.54.51-5-.86-5.48s-3.22,1.17-4.13,3.71-.51,5,.87,5.48S226.05,352.89,227,350.36Zm-4.55-1.62c.74-2.09,2.26-3.46,3.4-3.05s1.45,2.42.71,4.51-2.26,3.46-3.4,3.06S221.66,350.83,222.4,348.74Z"/><path class="cls-9" d="M224.69,341.13c11.44,7.41,41.34,22,46.5,30.66,6.4,10.74,37.18-8.72,38.46-14.09s5.32-17.79,5.11-26.51-1.92-10.74-1.92-10.74a149.87,149.87,0,0,1,6.6-17.78c4.77-11.08-4.15-26.51-4.15-26.51l-66.46-5.37-18.35,8.39-4.09,1,7.14,23.16-4.61,22.94a2,2,0,0,1-.31,1.55A29.72,29.72,0,0,0,224.69,341.13Z"/><path class="cls-3" d="M288,309.21c4.79-.61,6,.43,6.22,1.36l1.05-8.07,2.49,6.88s5.68-1.18,7.95,2,6.47-6.54,2.73-12.92-5.41-7.72-7.69-8.39a21.19,21.19,0,0,0-4.86-1.17h-4.32l-3.55-.67-2.63-1.18-12.68,9.57s3.64,15.43,6.46,17.11C279.21,313.74,280.11,310.22,288,309.21Z"/><path class="cls-2" d="M318,248.75a25.63,25.63,0,0,0-16.89-1.12l-11.86,25.95c1.7,0,25.75,13.87,30.78,12.53S327.19,252.56,318,248.75Z"/><path class="cls-3" d="M323.29,268.27c-.5-8.22-5.44-24.66-5.44-24.66L289,235.39,286.36,276s25.74,3.35,30.67,7.88C317,283.87,323.78,276.49,323.29,268.27Z"/><path class="cls-2" d="M211.34,245l4.28-.4-3.87-.67S211.59,244.32,211.34,245Z"/><path class="cls-2" d="M207.11,278.51c4.82,11.07,20.92,13.08,20.92,13.08s22.2-8,24.58-11.07,10.3-9.4,10.67-19.13,9.36-19.8-7.76-28.19l-58,13.09L210,245.14l1.39-.13c.25-.69.41-1.07.41-1.07l3.87.67-4.28.4C209.57,249.72,202.91,268.84,207.11,278.51Z"/><path class="cls-9" d="M252.61,280.52c2.37-3,10.3-9.4,10.67-19.13s9.36-19.8-7.76-28.19L225.58,240l-11.29,9s-3.67,34.4,16.84,41.46C237.32,288.1,250.79,282.83,252.61,280.52Z"/><path class="cls-9" d="M290.34,234.88l-41.73.45s-14.67,18.12-13.87,28,10.91,29.09,21,22.82S290,282.76,290,282.76l.76-1.57c.76-1.57-2.11-13.87-2.11-13.87l2.88-8.72C294.43,249.87,290.34,234.88,290.34,234.88Z"/><path class="cls-9" d="M211.18,214.19c-6.7-5.2-26.56-3.36-26.56-3.36l-12.2,9.57L206.94,234a30.33,30.33,0,0,0,9.92-2.52C218.1,231,217.89,219.39,211.18,214.19Z"/><path class="cls-3" d="M253.61,238.74c-.08-1.34-3.43-9.23-3.43-9.23l-10.43-8.72s-15.76-9.73-27.87-11.91c-6.57-1.19-14.57,2.76-20.52,6.63-5.55.36-12,1.15-18.12,1.76a60.62,60.62,0,0,0-13,3.06c-5.73-1.71-12-3-16.45-2.45a68.7,68.7,0,0,0-19.26,5.59l-.87-.22c-.87-.22-33,4-33,4-14.76,9.62-1.18,26.39,1,26.62l28.93,2.91s5.78,4,16.14,6.26c7.3,1.58,22,0,32.4-2.25,6.79,2.67,13,4.43,15.61,4.43h4.31a96.4,96.4,0,0,0,19.44-6.33c10,2.79,21.08,5.95,22.59,6.5,2.78,1,21-6.55,20.84-9.4S253.69,240.08,253.61,238.74Z"/><path class="cls-9" d="M213.27,256c-8.52,1.68-10.06-15.94-23.51-21.64s-23.94-5-26.36,0c0,0,24.66-1.85,26.6,9.23,1.37,7.82-8.18,15.73-13.9,19.7a34.71,34.71,0,0,0,8.65,1.94h4.31a96.4,96.4,0,0,0,19.44-6.33c10,2.79,21.08,5.95,22.59,6.5,2.78,1,21-6.55,20.84-9.4s1.76-15.94,1.68-17.28-3.43-9.23-3.43-9.23l-10.43-8.72s-15.76-9.73-27.87-11.91c-5.9-1.07-13,2-18.64,5.45a36.18,36.18,0,0,0-6.19,9.48s12.94-15.94,26.33-11.24S239,228.67,239,228.67s-2,9.23-16.4,11.58-20.69-9.23-29.7-10.4c0,0,12,7.72,14.47,12.25s21.31,3.69,21.31,3.69S221.8,254.34,213.27,256Z"/><path class="cls-9" d="M164.75,224.82a16.84,16.84,0,0,0-8.4-5.57c-4.53-1.12-9.06-1.81-12.52-1.37a63.31,63.31,0,0,0-10.2,2.2c19.24,0,27.32,8.09,27.32,8.09l18.59-1.84Z"/><path class="cls-9" d="M148.58,263.61a131.41,131.41,0,0,0,20.06-2.69c2.42-4.11,1.68-9.79-3.77-15.47-8.69-9.06-20.28-2.51-20.28-2.51s11.13-.84,11.42,9.22C156.17,258.12,152.06,261.67,148.58,263.61Z"/><path class="cls-9" d="M85.72,232.21c-5.81,9.51,4.14,21.5,6,21.69l28.93,2.91.55.35L141,249.42s-4.8,1.79-23.81.9-26.39-13.87-26.39-13.87,46.87-3.36,49-3.36S92.19,232.3,85.72,232.21Z"/><path class="cls-9" d="M124.57,223.47l-.87-.22c-.87-.22-33,4-33,4a15.83,15.83,0,0,0-4.9,4.8c7-1,59.9-7.71,59.9-7.71s-9.07-.56-20.59-1.15Z"/><path class="cls-2" d="M253.49,284.55s22.43-6,27.55-5.82,5.39-6,3.35-8.05-7.06-7.61-8.6-8.51l-22.57-24.6-3.11,1.34s-10.5,16.78-9.87,27.29S253.49,284.55,253.49,284.55Z"/><path class="cls-3" d="M258.24,279c5.39,2.24,19.59-3.35,27.73-1.56s3.15-35.13.47-38.26-13.61-5.37-16.11-5.37L243,223.92l4.06,3.13s.93,24.61-.29,32S252.85,276.72,258.24,279Z"/><path class="cls-9" d="M316.59,244.61c-3.36-8.05-21.93-14.09-37-15.77s-45.78-12.08-45.78-12.08l6.58,13.76s34.31,7.38,47.73,7.38S316.59,244.61,316.59,244.61Z"/><path class="cls-2" d="M243.81,290.92c-8,.5-18-9.39-18-9.39s-1.51,14.76,12.1,18,17-17.12,17-17.12l-6-1.67a50.67,50.67,0,0,1-14.43-6.21c-8-4.87-9.72-10.24-9.72-10.24s-3.36,7.89,5.69,14.94,21,3.18,21,3.18S251.76,290.42,243.81,290.92Z"/><path class="cls-2" d="M231.69,291.42l-10.79-4.19s9.2,22.82,28.5,25C249.4,312.23,231.6,303.17,231.69,291.42Z"/><path class="cls-2" d="M233.62,264.92l-15.82-2.69S224.63,274.81,233.62,264.92Z"/><path class="cls-9" d="M240.09,239.75l3.11,3.86,37.05-.34S241.21,239.75,240.09,239.75Z"/><path class="cls-9" d="M322.58,248.47l-24-3.69s21.49,6.71,25,12.58Z"/><path class="cls-9" d="M297.38,265.25a7.51,7.51,0,0,0-7.45,1l-.12-2h-8.3c-1.6,0,7.37,5.71,7.37,5.71Z"/><path class="cls-2" d="M312.32,296c-.87-3.35-9.83-11.18-12.74-11.18a7.36,7.36,0,0,0-5,2.46s-.76-5.15-7.54-2.68-19.68,14.76-19.68,14.76l8,7.38-1.27-6.26s11-11.19,14.73-11.63,6.34,5.14,6.34,5.14c0-4.25,5.25-2,10.8,1.12s3.3,10.29,3.3,10.29S313.2,299.31,312.32,296Z"/><path class="cls-3" d="M296,327.83s3.64-11.24-3.94-12.41-15.22,7.21-15.22,7.21l2.63,4C281.08,329,296,327.83,296,327.83Z"/><path class="cls-3" d="M308.88,323.69c-.89-4.13-5.22-7.15-7.81-5.92s-1.58,10.85-1.58,10.85l10-.12S309.77,327.83,308.88,323.69Z"/><path class="cls-3" d="M292.62,345.51s4.94-10,.09-12.64-12.2,4.36-12.2,4.36C288.85,335.89,292.62,345.51,292.62,345.51Z"/><path class="cls-3" d="M304.47,338.91c.22-5.26-7.71-6-7.71-6,2.28.67,3.21,12.75,3.21,12.75A7.27,7.27,0,0,0,304.47,338.91Z"/><path class="cls-3" d="M297.81,352.1s-4.31,11-7.81,19.76a67.35,67.35,0,0,0,6.68-3.37c3.23-7.3,6.31-15.23,6.32-18.62C303,342.93,297.81,352.1,297.81,352.1Z"/><path class="cls-3" d="M288.5,372.49c2.33-8.61,4.78-20.2,2.05-24.19-4.44-6.49-12.21-4.7-12.21-4.7s8.31,20.31,4,30.83A40.31,40.31,0,0,0,288.5,372.49Z"/><path class="cls-2" d="M271.06,371.58c-4.09-8.79-12.88-30-15.25-37.82-1.91-6.26-15.53-13.57-24.79-17.91L229,326.06c4.75-4.46,12.44-2.24,19.48,9.27,3.9,6.39,3.41,14.36,1.94,20.72C259.75,361.59,268.33,367.28,271.06,371.58Z"/><path class="cls-2" d="M251.54,302.67s-2.37,13.75,17.52,15.1Z"/><path class="cls-2" d="M271.06,329.66l-18.7-13.4S251.25,330.27,271.06,329.66Z"/><path class="cls-16" d="M365.81,296.18h5.32s-1.61-9.17-21.73-17.9-27.61,8.5-27.61,8.5C341.24,270.23,365.81,296.18,365.81,296.18Z"/><path class="cls-9" d="M381.4,312.84c2.67-8.72,20.8-26.17,20.8-26.17s-12.67-14.09-13.41-10.4-24.57,16.44-24.57,16.44c-6.66-4.36-11,2.69-11,2.69-8.83-3.36-12.51,15.1-12.51,15.1-4.56,14.42,5.36,20.13,13.39,20.8S378.73,321.57,381.4,312.84Z"/><path class="cls-2" d="M388.79,276.27c-.74,3.69-24.57,16.44-24.57,16.44-6.66-4.36-11,2.69-11,2.69-5.28-2-8.72,3.79-10.63,8.78,3.45-4.1,8.69-7.43,16.17-5.32,0,0-12.67,8.95-11,16.11,0,0,5.73-14.54,17.75-13l-2.79-3.8,31.73-19.31C391.66,276.4,389.11,274.67,388.79,276.27Z"/><path class="cls-2" d="M395.52,279.85l-23.25,21,27.28-17C398.38,282.63,397,281.18,395.52,279.85Z"/><path class="cls-2" d="M362.34,323.47c-12.26,1.57-12.6-.45-12.6-.45a9.86,9.86,0,0,0,6.12,8.26c8.48-.75,23.06-10.32,25.54-18.44,2.67-8.72,20.8-26.17,20.8-26.17s-.71-.79-1.8-1.94l-32.29,28.45s12.9-5.25,14.58-6.14C381.39,308.48,373.94,322,362.34,323.47Z"/><path class="cls-2" d="M261.08,272.44c.41-1.46-.73-3.18-2.54-3.84s-3.62,0-4,1.43.73,3.18,2.55,3.84S260.68,273.89,261.08,272.44Z"/><path class="cls-2" d="M317.71,277.41c.45-1.81-.11-3.59-1.25-4s-2.43.78-2.88,2.58.11,3.59,1.25,4S317.26,279.22,317.71,277.41Z"/><path class="cls-2" d="M386.81,283.3c-.65,8,.33,8.09.33,8.09l6.29,2.23s13-7.34,15.88-13.09-1.07-16.41-1.07-16.41-10.93-8.29-14-5.67S391.15,269,391.15,269l7.25,6.11L399,275c.5-1.21,1.48-4.81-2.36-8.44l5.22,1.83s-.76,5.07-.51,5.92c.07.22-.9.4-2.35.69a3.36,3.36,0,0,1-.2.42l-.37-.31C394.3,276,387.26,277.71,386.81,283.3Z"/><path class="cls-2" d="M398.4,275.12l.37.31a3.36,3.36,0,0,0,.2-.42Z"/><path class="cls-9" d="M213.4,612.86,204.17,617s-2.82,22.1-16.3,35.81-13.06,13.33-13.14,15.81,29.76,12.57,38.24,6.9,3.79-14.56,12.7-21.22-9.57-18.24-9.27-28.76S213.4,612.86,213.4,612.86Z"/><path class="cls-2" d="M186.23,661.68s-8.52,3.59-8.15,7.86c0,.51.08,1,.11,1.45.74.33,1.58.68,2.51,1-.36-1.87-.51-4,.23-5.24C182.49,664.14,186.23,661.68,186.23,661.68Z"/><path class="cls-2" d="M200.52,664.19s-8.42,3.28-9.21,6.73a14.53,14.53,0,0,0-.23,4.32c.83.2,1.67.4,2.51.58A7,7,0,0,1,195.2,670C198.67,666.4,200.52,664.19,200.52,664.19Z"/><path class="cls-2" d="M193.52,662.94s-7.52,3.37-8.59,6a13.61,13.61,0,0,0-.66,4.39c.81.26,1.66.53,2.53.79a13.34,13.34,0,0,1,.68-4.23C188.77,666.35,193.52,662.94,193.52,662.94Z"/><path class="cls-2" d="M208.78,663.05l-8.61,6.38-.56,7.42c1.11.14,2.2.25,3.25.31-.15-2.88-.2-6.5.46-6.93C204.43,669.5,208.61,665.21,208.78,663.05Z"/><path class="cls-2" d="M225.67,654.31c7.17-5.36-3.37-13.88-7.62-22.49-.88,12.22-4.45,34.7-18.64,45,5.62.73,10.76.58,13.56-1.3C221.46,669.87,216.76,661,225.67,654.31Z"/><path class="cls-19" d="M308.64,414l34-27.7S333,368,325.2,360c-10,4.8-21.1,9.81-27.75,11.74-8,2.33-36.48-8.87-60.29-19.14l-15.63.45L211,379.72l61.24,39.47S291.46,433.39,308.64,414Z"/><path class="cls-14" d="M258.76,361.55c-7.18-2.82-14.59-5.92-21.6-8.94l-15.63.45L211,379.72l44.94,29c-4-13.49-5.79-29,1.12-40.4A10.76,10.76,0,0,0,258.76,361.55Z"/><path class="cls-20" d="M220.83,352.45c-3.31,8.74-8,17.2-11.56,25.75a453.64,453.64,0,0,0-20.36,60.5,431.66,431.66,0,0,0-13.43,92.72q35.06-.93,70.12-1.71a369.35,369.35,0,0,1,11.25-164.63C247.25,361.75,233.49,356.94,220.83,352.45Z"/><path class="cls-17" d="M210.63,426.08q-2.34,9-4.26,18.18l2.11.45q1.91-9.09,4.24-18.09Z"/><path class="cls-17" d="M204.73,452.51q-1.72,9.18-3,18.44l2.14.3q1.29-9.21,3-18.34Z"/><path class="cls-17" d="M218.64,399.12q-3,8.86-5.53,17.85l2.08.59q2.53-8.94,5.5-17.75Z"/><path class="cls-17" d="M200.52,480.23q-1.07,9.3-1.71,18.65L201,499q.64-9.28,1.71-18.54Z"/><path class="cls-17" d="M198.32,507.3q-.45,9.37-.44,18.78H200q0-9.35.45-18.68Z"/><path class="cls-17" d="M223.76,400.85q-2.92,8.73-5.46,17.6l2.08.59q2.51-8.82,5.43-17.51Z"/><path class="cls-17" d="M228.16,373.72q-3.58,8.65-6.75,17.46l2,.73q3.15-8.76,6.71-17.36Z"/><path class="cls-17" d="M233.15,375.79q-3.54,8.52-6.66,17.22l2,.73q3.1-8.64,6.62-17.13Z"/><path class="cls-17" d="M187.53,506.79c-.3,6.43-.41,12.85-.45,19.29h2.16q0-9.6.45-19.19Z"/><path class="cls-17" d="M223.17,371.66q-3.63,8.76-6.84,17.69l2,.73q3.19-8.88,6.8-17.6Z"/><path class="cls-17" d="M213.53,397.4q-3,9-5.61,18.09l2.07.59q2.58-9.06,5.58-18Z"/><path class="cls-17" d="M195.16,479.61q-1.09,9.42-1.74,18.9l2.15.14q.65-9.4,1.74-18.79Z"/><path class="cls-17" d="M192.93,507.05q-.45,9.49-.45,19h2.16q0-9.47.44-18.93Z"/><path class="cls-17" d="M199.42,451.51q-1.74,9.32-3.06,18.7l2.14.29q1.31-9.33,3.05-18.59Z"/><path class="cls-17" d="M205.4,424.73q-2.37,9.16-4.32,18.43l2.12.44q1.94-9.21,4.29-18.33Z"/><path class="cls-17" d="M234,404.29q-2.87,8.49-5.31,17.12l2.07.59q2.44-8.58,5.29-17Z"/><path class="cls-17" d="M226.31,430.15q-2.25,8.67-4.09,17.44l2.12.44q1.82-8.71,4.06-17.34Z"/><path class="cls-17" d="M243.12,379.92q-3.44,8.29-6.47,16.74l2,.73q3-8.4,6.44-16.65Z"/><path class="cls-17" d="M209.11,507.81q-.44,9.12-.44,18.27h2.16q0-9.09.43-18.17Z"/><path class="cls-17" d="M177.09,506.3c-.25,2.65-.46,5.14-.63,7.45-.15,4.92-.18,7.39-.18,12.33h2.16c0-6.58.19-13.13.46-19.7Z"/><path class="cls-17" d="M214.5,508.06q-.44,9-.43,18h2.16q0-9,.43-17.91Z"/><path class="cls-17" d="M220.65,455.5q-1.67,8.81-2.9,17.69l2.14.3q1.23-8.82,2.88-17.59Z"/><path class="cls-17" d="M216.61,482.09Q215.58,491,215,500l2.15.15q.62-8.91,1.64-17.79Z"/><path class="cls-17" d="M238.13,377.85q-3.48,8.41-6.56,17l2,.73c2.05-5.67,4.22-11.31,6.53-16.88Z"/><path class="cls-17" d="M203.71,507.55q-.44,9.26-.44,18.53h2.16q0-9.21.44-18.42Z"/><path class="cls-17" d="M189.8,479q-1.11,9.56-1.77,19.15l2.16.15q.65-9.56,1.75-19.05Z"/><path class="cls-17" d="M210,453.51q-1.71,9.06-3,18.19l2.14.3q1.26-9.08,3-18.09Z"/><path class="cls-17" d="M205.89,480.85q-1.06,9.18-1.7,18.39l2.16.15q.63-9.17,1.68-18.29Z"/><path class="cls-17" d="M215.34,454.5q-1.68,8.94-2.94,17.95l2.14.3q1.26-9,2.92-17.85Z"/><path class="cls-17" d="M215.86,427.44q-2.31,8.91-4.21,17.93l2.12.45q1.88-9,4.18-17.84Z"/><path class="cls-17" d="M211.25,481.47q-1,9.06-1.67,18.14l2.15.15q.63-9,1.67-18Z"/><path class="cls-17" d="M221.08,428.79q-2.28,8.81-4.14,17.69l2.11.45q1.86-8.85,4.12-17.6Z"/><path class="cls-17" d="M228.88,402.57q-2.9,8.61-5.39,17.36l2.08.59q2.48-8.7,5.36-17.27Z"/><path class="cls-17" d="M227.34,483.34q-1,8.67-1.6,17.38l2.15.15q.6-8.65,1.6-17.28Z"/><path class="cls-17" d="M231.26,457.49q-1.6,8.56-2.81,17.2l2.14.3q1.18-8.58,2.79-17.1Z"/><path class="cls-17" d="M225.28,508.57q-.41,8.76-.41,17.51H227c0-5.8.14-11.61.41-17.4Z"/><path class="cls-17" d="M236.76,432.86q-2.17,8.43-4,16.95l2.11.44q1.78-8.47,3.95-16.85Z"/><path class="cls-17" d="M232.7,484q-1,8.55-1.57,17.13l2.15.15q.58-8.53,1.57-17Z"/><path class="cls-17" d="M230.68,508.83q-.41,8.63-.41,17.25h2.16q0-8.58.41-17.15Z"/><path class="cls-17" d="M244.23,407.73q-2.78,8.25-5.16,16.63l2.08.59q2.37-8.32,5.13-16.54Z"/><path class="cls-17" d="M242.65,434.38l-.66-.17q-2.16,8.31-3.92,16.71l2.12.44c.6-2.89.92-4.33,1.59-7.21C242.07,440.25,242.25,438.29,242.65,434.38Z"/><path class="cls-17" d="M236.57,458.49q-1.59,8.44-2.78,16.95l2.14.29q1.19-8.44,2.76-16.84Z"/><path class="cls-17" d="M239.12,406q-2.82,8.37-5.24,16.87l2.08.6q2.4-8.46,5.2-16.79Z"/><path class="cls-17" d="M219.89,508.32q-.42,8.88-.42,17.76h2.16q0-8.83.42-17.66Z"/><path class="cls-17" d="M242.8,509.4l-1.34-.06q-.39,8.37-.39,16.74h2.16c0-4.57,0-6.85.18-11.41C243.15,512.57,243,511.51,242.8,509.4Z"/><path class="cls-17" d="M248.11,382q-3.37,8.17-6.38,16.51l2,.73q3-8.28,6.35-16.41Z"/><path class="cls-17" d="M231.54,431.5q-2.22,8.55-4,17.2l2.11.44q1.8-8.59,4-17.1Z"/><path class="cls-17" d="M246.81,400.32l.93.33c.53-2.62.8-3.93,1.37-6.56C248.17,396.57,247.71,397.82,246.81,400.32Z"/><path class="cls-17" d="M222,482.72q-1,8.79-1.63,17.63l2.16.15q.6-8.79,1.61-17.54Z"/><path class="cls-17" d="M226,456.5q-1.62,8.69-2.85,17.44l2.14.3q1.22-8.7,2.84-17.34Z"/><path class="cls-17" d="M236.07,509.08q-.4,8.51-.4,17h2.16c0-5.63.13-11.27.4-16.89Z"/><path class="cls-17" d="M213.74,367.76c-2.62,5.94-5.1,11.93-7.52,17.95l2,.72q3.35-9.1,7-18.07Z"/><path class="cls-17" d="M184.43,478.37q-1.05,9.69-1.78,19.4l2.15.15q.72-9.68,1.78-19.31Z"/><path class="cls-17" d="M182.14,506.54q-.4,9.76-.46,19.54h2.16q.06-9.74.46-19.44Z"/><path class="cls-17" d="M218.18,369.59q-3.68,8.88-6.93,17.93l2,.73q3.24-9,6.89-17.83Z"/><path class="cls-17" d="M194.12,450.52q-1.78,9.42-3.1,18.94l2.13.3q1.32-9.47,3.09-18.85Z"/><path class="cls-17" d="M200.18,423.37q-2.42,9.28-4.38,18.68l2.11.44q2-9.33,4.36-18.58Z"/><path class="cls-17" d="M239.14,476.18l1.65.23c-.07-4.35-.06-6.53,0-10.9C240.07,469.76,239.74,471.9,239.14,476.18Z"/><path class="cls-17" d="M208.41,395.68q-3.06,9.1-5.69,18.33l2.08.59q2.61-9.18,5.66-18.23Z"/><path class="cls-17" d="M241.9,501.83h.17c0-.44-.06-.66-.09-1.09C241.94,501.18,241.93,501.39,241.9,501.83Z"/><path class="cls-17" d="M238.07,484.58q-1,8.42-1.56,16.88l2.16.15q.57-8.42,1.54-16.78Z"/><path class="cls-17" d="M188.81,449.52q-1.74,9.57-3.14,19.19l2.14.3c.93-6.39,2-12.74,3.12-19.09Z"/><path class="cls-17" d="M195,422q-2.38,9.42-4.43,18.92l2.11.44q2-9.45,4.41-18.82Z"/><path class="cls-17" d="M182.37,468.25h.09c.12-.83.17-1.24.3-2.07C182.62,466.88,182.5,467.56,182.37,468.25Z"/><path class="cls-17" d="M180.7,477.93q-1.57,9.74-2.69,19.52l1.4.1c.49-6.54,1.09-13,1.81-19.56Z"/><path class="cls-17" d="M203.29,394q-3,9.26-5.76,18.57l2.08.6q2.7-9.3,5.73-18.48Z"/><path class="cls-21" d="M206.05,445.79c-.35,1.71-.52,2.56-.85,4.27l2.12.42c.33-1.71.5-2.56.85-4.26Z"/><path class="cls-21" d="M201.37,473.42c-.23,1.73-.34,2.6-.55,4.33L203,478c.21-1.72.32-2.58.55-4.3Z"/><path class="cls-21" d="M212.41,419.47c-.47,1.68-.7,2.52-1.15,4.2l2.09.56c.45-1.68.67-2.51,1.14-4.18Z"/><path class="cls-21" d="M220.88,392.65c-.58,1.64-.87,2.46-1.43,4.11l2,.71c.56-1.65.85-2.47,1.43-4.1Z"/><path class="cls-21" d="M226,394.45c-.57,1.63-.86,2.44-1.42,4.07l2,.7c.55-1.62.83-2.43,1.41-4Z"/><path class="cls-21" d="M198.7,500.43c-.11,1.75-.16,2.62-.26,4.37l2.16.12c.09-1.74.15-2.61.26-4.35Z"/><path class="cls-21" d="M235.79,369.55c-.69,1.58-1,2.37-1.7,4l2,.84c.67-1.58,1-2.37,1.69-3.94Z"/><path class="cls-21" d="M215.8,390.84c-.6,1.66-.89,2.5-1.46,4.17l2,.7c.57-1.66.86-2.49,1.45-4.15Z"/><path class="cls-21" d="M187.93,499.74c-.12,1.79-.17,2.69-.27,4.48l2.16.12c.09-1.79.15-2.68.26-4.46Z"/><path class="cls-21" d="M225.88,365.25c-.7,1.62-1,2.44-1.74,4.07l2,.84c.69-1.62,1-2.44,1.74-4.05Z"/><path class="cls-21" d="M217.61,420.91c-.46,1.66-.69,2.49-1.13,4.15l2.09.56c.44-1.66.66-2.48,1.12-4.13Z"/><path class="cls-21" d="M230.84,367.4c-.7,1.6-1,2.41-1.72,4l2,.84c.67-1.61,1-2.41,1.71-4Z"/><path class="cls-21" d="M207.2,418c-.47,1.71-.7,2.56-1.15,4.27l2.08.55c.45-1.7.68-2.55,1.15-4.24Z"/><path class="cls-21" d="M193.31,500.09c-.11,1.77-.16,2.65-.26,4.42l2.16.12c.09-1.76.15-2.64.26-4.4Z"/><path class="cls-21" d="M200.76,444.7c-.35,1.73-.53,2.6-.86,4.33l2.12.41c.33-1.72.5-2.58.86-4.3Z"/><path class="cls-21" d="M196,472.71c-.23,1.75-.35,2.63-.56,4.39l2.14.26c.22-1.75.33-2.62.56-4.36Z"/><path class="cls-21" d="M211.34,446.88c-.35,1.68-.51,2.52-.84,4.21l2.12.42c.32-1.68.49-2.52.84-4.2Z"/><path class="cls-21" d="M236.15,398.07c-.56,1.58-.84,2.37-1.38,3.95l2,.7c.54-1.57.81-2.36,1.37-3.93Z"/><path class="cls-21" d="M228,423.8c-.44,1.61-.66,2.42-1.09,4l2.08.55c.43-1.61.65-2.41,1.09-4Z"/><path class="cls-21" d="M209.48,501.13c-.11,1.7-.16,2.55-.25,4.25l2.15.11c.09-1.69.14-2.53.25-4.22Z"/><path class="cls-21" d="M245.7,373.85c-.67,1.54-1,2.31-1.65,3.85l2,.84c.64-1.54,1-2.3,1.64-3.83Z"/><path class="cls-21" d="M214.87,501.48c-.11,1.67-.16,2.51-.25,4.19l2.16.11c.09-1.66.13-2.5.24-4.16Z"/><path class="cls-21" d="M221.92,449.05c-.34,1.64-.5,2.46-.82,4.1l2.12.42c.31-1.64.48-2.45.81-4.08Z"/><path class="cls-21" d="M217.43,475.56c-.22,1.66-.33,2.5-.53,4.16L219,480c.2-1.65.31-2.48.53-4.13Z"/><path class="cls-21" d="M212.08,474.85c-.23,1.68-.34,2.53-.54,4.21l2.14.26c.21-1.67.31-2.51.54-4.18Z"/><path class="cls-21" d="M204.09,500.78c-.11,1.72-.16,2.59-.25,4.31l2.15.12c.09-1.72.15-2.58.26-4.29Z"/><path class="cls-21" d="M240.74,371.7c-.68,1.56-1,2.34-1.67,3.91l2,.84c.66-1.56,1-2.34,1.66-3.89Z"/><path class="cls-21" d="M222.81,422.36c-.45,1.63-.68,2.45-1.11,4.09l2.09.55c.43-1.63.65-2.44,1.1-4.07Z"/><path class="cls-21" d="M216.63,448c-.34,1.67-.51,2.5-.83,4.16l2.12.42c.32-1.66.48-2.49.82-4.14Z"/><path class="cls-21" d="M231.06,396.26c-.57,1.6-.85,2.4-1.4,4l2,.7c.55-1.6.83-2.39,1.39-4Z"/><path class="cls-21" d="M206.72,474.14c-.22,1.7-.33,2.56-.54,4.27l2.14.26c.21-1.7.32-2.55.55-4.25Z"/><path class="cls-21" d="M228.13,477c-.21,1.61-.32,2.42-.51,4l2.14.26c.2-1.61.3-2.41.51-4Z"/><path class="cls-21" d="M225.64,502.17c-.1,1.63-.15,2.45-.24,4.08l2.16.11c.09-1.62.13-2.43.24-4.05Z"/><path class="cls-21" d="M238.42,426.69c-.44,1.57-.65,2.35-1.07,3.92l2.09.56c.42-1.56.63-2.34,1.06-3.9Z"/><path class="cls-21" d="M232.49,451.23c-.32,1.59-.48,2.39-.79,4l2.12.42c.31-1.59.46-2.38.79-4Z"/><path class="cls-21" d="M233.48,477.71c-.21,1.59-.31,2.38-.5,4l2.14.27c.19-1.59.29-2.38.5-4Z"/><path class="cls-21" d="M242.57,432l.33.09c.09-.89.14-1.34.25-2.23C242.91,430.72,242.8,431.14,242.57,432Z"/><path class="cls-21" d="M231,502.52c-.1,1.61-.15,2.41-.24,4l2.16.12c.09-1.6.13-2.39.24-4Z"/><path class="cls-21" d="M237.78,452.32c-.32,1.57-.48,2.35-.78,3.92l2.12.42c.3-1.57.46-2.35.78-3.91Z"/><path class="cls-21" d="M241.23,399.88c-.55,1.55-.82,2.33-1.36,3.89l2,.7c.53-1.55.8-2.32,1.35-3.87Z"/><path class="cls-21" d="M246.32,401.69c-.54,1.53-.81,2.3-1.34,3.84l1.72.58c.29-1.61.45-2.41.76-4Z"/><path class="cls-21" d="M250.65,376c-.66,1.51-1,2.28-1.63,3.8l2,.84c.64-1.52,1-2.27,1.62-3.78Z"/><path class="cls-21" d="M233.22,425.25c-.45,1.58-.66,2.38-1.09,4l2.09.56c.42-1.59.64-2.38,1.08-4Z"/><path class="cls-21" d="M220.25,501.83c-.1,1.65-.15,2.47-.24,4.13l2.16.11c.09-1.64.13-2.46.24-4.11Z"/><path class="cls-21" d="M227.21,450.14c-.34,1.62-.5,2.42-.81,4l2.12.42c.31-1.61.47-2.42.8-4Z"/><path class="cls-21" d="M222.78,476.28c-.22,1.63-.32,2.45-.52,4.09l2.14.27c.2-1.63.3-2.45.52-4.08Z"/><path class="cls-21" d="M205.63,387.22l-.06.16c-.59,1.65-.88,2.47-1.45,4.13l2,.7c.58-1.71.88-2.56,1.49-4.26Z"/><path class="cls-21" d="M216.64,361.23l-1.86,4.15,1.4.59c.7-1.67,1.06-2.5,1.78-4.16Z"/><path class="cls-21" d="M220.93,363.1c-.71,1.65-1.07,2.47-1.76,4.13l2,.83c.69-1.64,1-2.46,1.75-4.1Z"/><path class="cls-21" d="M185.32,471.28c-.24,1.8-.36,2.7-.58,4.51l2.15.26c.21-1.79.33-2.69.57-4.48Z"/><path class="cls-21" d="M182.54,499.39c-.12,1.82-.17,2.73-.27,4.55l2.16.11c.09-1.81.15-2.71.26-4.52Z"/><path class="cls-21" d="M195.48,443.61c-.37,1.76-.54,2.63-.88,4.39l2.12.41c.34-1.74.51-2.62.87-4.36Z"/><path class="cls-21" d="M202,416.58c-.48,1.72-.71,2.59-1.17,4.32l2.08.55c.46-1.72.7-2.58,1.17-4.29Z"/><path class="cls-21" d="M210.71,389c-.6,1.69-.9,2.54-1.48,4.23l2,.7c.58-1.69.88-2.53,1.47-4.21Z"/><path class="cls-21" d="M236.42,502.87c-.1,1.58-.15,2.37-.23,3.95l2.15.12c.09-1.57.13-2.36.23-3.93Z"/><path class="cls-21" d="M241.81,503.22c-.1,1.55-.15,2.33-.23,3.89l1,.05c-.16-1.56-.24-2.35-.38-3.92Z"/><path class="cls-21" d="M177.82,499.09c-.17,1.57-.33,3.1-.48,4.58l1.7.09c.09-1.83.15-2.75.27-4.58Z"/><path class="cls-21" d="M240.83,478.68l-2-.26c-.21,1.57-.31,2.35-.51,3.92l2.15.26c.14-1.18.22-1.76.37-2.94C240.84,479.27,240.84,479.08,240.83,478.68Z"/><path class="cls-21" d="M190.67,472c-.24,1.77-.35,2.66-.57,4.44l2.14.26c.22-1.77.33-2.65.57-4.42Z"/><path class="cls-21" d="M196.8,415.13c-.49,1.75-.72,2.63-1.19,4.38l2.09.56c.46-1.75.7-2.62,1.18-4.36Z"/><path class="cls-21" d="M190.19,442.52c-.37,1.78-.55,2.67-.89,4.45l2.12.41c.34-1.77.52-2.65.88-4.42Z"/><path class="cls-21" d="M181.9,470.83c-.27,1.52-.53,3-.78,4.51l.41.05c.22-1.81.33-2.72.58-4.54Z"/><path class="cls-22" d="M378.57,528.74A431.26,431.26,0,0,0,359.43,437a454.63,454.63,0,0,0-24.06-59.13c-4.07-8.31-9.29-16.46-13.14-25-12.35,5.27-25.79,10.92-35.16,14.84a369.44,369.44,0,0,1,21.41,163.61Q343.52,530,378.57,528.74Z"/><path class="cls-18" d="M337,425.77l-2.05.67q2.88,8.83,5.35,17.79l2.08-.58Q339.88,434.65,337,425.77Z"/><path class="cls-18" d="M344.5,451.78l-2.1.53q2.28,9,4.13,18.12l2.12-.43Q346.79,460.85,344.5,451.78Z"/><path class="cls-18" d="M333.93,416.83q-3.1-8.81-6.62-17.47l-2,.81q3.51,8.61,6.6,17.38Z"/><path class="cls-18" d="M350.41,479.19l-2.13.38q1.65,9.17,2.85,18.4l2.15-.28Q352.07,488.41,350.41,479.19Z"/><path class="cls-18" d="M354.28,506.07l-2.14.24q1,9.29,1.59,18.61l2.16-.13Q355.31,515.42,354.28,506.07Z"/><path class="cls-18" d="M322.3,401.39l-2,.82q3.45,8.49,6.51,17.13l2-.71Q325.78,409.93,322.3,401.39Z"/><path class="cls-18" d="M316.24,374.6l-1.94.94q4.08,8.37,7.77,16.92l2-.86Q320.34,383,316.24,374.6Z"/><path class="cls-18" d="M311.39,377l-1.94,1q4,8.25,7.66,16.68l2-.85Q315.44,385.27,311.39,377Z"/><path class="cls-18" d="M365,504.89l-2.15.24q1,9.54,1.64,19.12l2.16-.13C366.23,517.7,365.72,511.29,365,504.89Z"/><path class="cls-18" d="M321.09,372.23l-1.94.94q4.14,8.49,7.88,17.15l2-.86Q325.26,380.76,321.09,372.23Z"/><path class="cls-18" d="M339,415q-3.16-8.92-6.72-17.7l-2,.81q3.54,8.73,6.68,17.61Z"/><path class="cls-18" d="M355.72,478.24l-2.12.38q1.66,9.28,2.89,18.65l2.14-.28Q357.4,487.59,355.72,478.24Z"/><path class="cls-18" d="M359.65,505.48l-2.15.24q1,9.4,1.62,18.86l2.16-.13Q360.68,515,359.65,505.48Z"/><path class="cls-18" d="M349.73,450.46l-2.09.53q2.31,9.13,4.19,18.37l2.11-.43Q352.05,459.65,349.73,450.46Z"/><path class="cls-18" d="M342.1,424.09l-2.05.67q2.93,9,5.42,18l2.09-.57Q345,433.1,342.1,424.09Z"/><path class="cls-18" d="M312.3,405.46l-2,.81q3.36,8.26,6.32,16.67l2-.72Q315.68,413.76,312.3,405.46Z"/><path class="cls-18" d="M321.57,430.8l-2.05.67q2.76,8.46,5.13,17.06l2.08-.58Q324.36,439.33,321.57,430.8Z"/><path class="cls-18" d="M301.69,381.7l-1.95.95q3.93,8,7.46,16.22l2-.85Q305.63,389.77,301.69,381.7Z"/><path class="cls-18" d="M343.55,507.25l-2.15.23q1,9,1.56,18.11l2.15-.14Q344.54,516.33,343.55,507.25Z"/><path class="cls-18" d="M376.5,511.15c-.32-2.29-.68-4.76-1.09-7.39l-1.8.19c.67,6.54,1.23,13.07,1.68,19.63l2.15-.13C377.14,518.52,377,516.06,376.5,511.15Z"/><path class="cls-18" d="M338.18,507.83l-2.14.24q1,8.91,1.53,17.85l2.15-.13Q339.17,516.79,338.18,507.83Z"/><path class="cls-18" d="M328.79,455.75l-2.09.53q2.19,8.64,4,17.38l2.12-.43Q331,464.46,328.79,455.75Z"/><path class="cls-18" d="M334.46,482.05l-2.12.38q1.57,8.79,2.73,17.65l2.15-.28Q336,490.89,334.46,482.05Z"/><path class="cls-18" d="M306.54,379.33l-1.94.95q4,8.13,7.56,16.45l2-.85Q310.54,387.51,306.54,379.33Z"/><path class="cls-18" d="M348.92,506.66l-2.15.23q1,9.17,1.57,18.36l2.16-.13Q349.93,515.87,348.92,506.66Z"/><path class="cls-18" d="M361,477.28l-2.13.39q1.69,9.4,2.93,18.9l2.14-.28Q362.73,486.75,361,477.28Z"/><path class="cls-18" d="M339.26,453.11l-2.09.52q2.25,8.89,4.07,17.88l2.12-.43Q341.52,462.05,339.26,453.11Z"/><path class="cls-18" d="M345.09,480.14l-2.12.38q1.62,9,2.81,18.16l2.14-.29Q346.72,489.24,345.09,480.14Z"/><path class="cls-18" d="M334,454.43l-2.1.53q2.22,8.76,4,17.63l2.12-.43Q336.26,463.25,334,454.43Z"/><path class="cls-18" d="M337.14,445.09q-2.44-8.88-5.3-17.64l-2,.67q2.83,8.7,5.27,17.54Z"/><path class="cls-18" d="M339.78,481.09l-2.13.38q1.61,8.92,2.78,17.91l2.14-.28Q341.39,490.05,339.78,481.09Z"/><path class="cls-18" d="M326.71,429.12l-2.06.67q2.81,8.59,5.21,17.3l2.08-.57Q329.53,437.76,326.71,429.12Z"/><path class="cls-18" d="M317.3,403.43l-2,.81q3.4,8.37,6.41,16.9l2-.72Q320.74,411.85,317.3,403.43Z"/><path class="cls-18" d="M323.83,484l-2.12.38q1.53,8.55,2.66,17.15l2.14-.28Q325.37,492.55,323.83,484Z"/><path class="cls-18" d="M318.32,458.4l-2.09.53q2.11,8.4,3.85,16.89l2.12-.43Q320.46,466.84,318.32,458.4Z"/><path class="cls-18" d="M327.45,509l-2.15.24q.94,8.65,1.49,17.34l2.15-.13Q328.4,517.71,327.45,509Z"/><path class="cls-18" d="M311.31,434.15l-2.06.67q2.7,8.22,5,16.58l2.08-.58Q314,442.44,311.31,434.15Z"/><path class="cls-18" d="M318.52,484.9l-2.13.38q1.51,8.42,2.62,16.9l2.15-.28Q320,493.38,318.52,484.9Z"/><path class="cls-18" d="M322.08,509.6l-2.15.23q.94,8.54,1.47,17.1l2.16-.14Q323,518.18,322.08,509.6Z"/><path class="cls-18" d="M302.3,409.53l-2,.81q3.26,8,6.14,16.19l2-.72Q305.57,417.6,302.3,409.53Z"/><path class="cls-18" d="M311.12,452.26q-2.28-8.28-4.94-16.44l-.65.22c.64,3.87.94,5.81,1.47,9.69.84,2.83,1.25,4.25,2,7.1Z"/><path class="cls-18" d="M313.09,459.72l-2.1.53q2.1,8.28,3.8,16.64l2.12-.43Q315.18,468,313.09,459.72Z"/><path class="cls-18" d="M307.3,407.49l-2,.82q3.3,8.13,6.23,16.43l2-.72Q310.63,415.68,307.3,407.49Z"/><path class="cls-18" d="M334.33,526.12q-.54-8.86-1.51-17.7l-2.15.24q1,8.77,1.51,17.6Z"/><path class="cls-18" d="M311.35,510.77l-1.34.15c-.09,2.12-.15,3.18-.28,5.29.43,4.55.61,6.82.89,11.38l2.16-.13Q312.26,519.11,311.35,510.77Z"/><path class="cls-18" d="M296.83,384.07l-1.94.95q3.87,7.91,7.35,16l2-.86Q300.72,392,296.83,384.07Z"/><path class="cls-18" d="M316.44,432.47l-2.05.67q2.72,8.36,5.06,16.82l2.08-.57Q319.17,440.87,316.44,432.47Z"/><path class="cls-18" d="M296.58,396.22c.74,2.58,1.09,3.88,1.78,6.47l.91-.4C298.21,399.86,297.68,398.64,296.58,396.22Z"/><path class="cls-18" d="M329.15,483l-2.13.38q1.56,8.67,2.7,17.4l2.14-.28Q330.72,491.71,329.15,483Z"/><path class="cls-18" d="M323.56,457.08l-2.1.52q2.16,8.52,3.91,17.14l2.12-.43Q325.72,465.64,323.56,457.08Z"/><path class="cls-18" d="M316.71,510.19l-2.14.23q.92,8.4,1.44,16.84l2.16-.13Q317.65,518.64,316.71,510.19Z"/><path class="cls-18" d="M338.87,385.21c-2.79-5.86-5.63-11.69-8.61-17.46l-1.41.69q4.2,8.73,8.09,17.6Z"/><path class="cls-18" d="M366.35,476.33l-2.12.38c1.1,6.38,2.08,12.75,3,19.16l2.15-.28Q368,485.93,366.35,476.33Z"/><path class="cls-18" d="M370.39,504.31l-2.15.23c.66,6.46,1.22,12.9,1.66,19.38l2.16-.14Q371.39,514,370.39,504.31Z"/><path class="cls-18" d="M334,387.32q-3.81-8.82-8-17.46l-1.94.94q4.2,8.59,8,17.38Z"/><path class="cls-18" d="M355,449.14l-2.1.52q2.34,9.27,4.25,18.62l2.11-.43Q357.32,458.44,355,449.14Z"/><path class="cls-18" d="M347.24,422.42l-2.06.67q3,9.07,5.5,18.27l2.08-.57Q350.21,431.54,347.24,422.42Z"/><path class="cls-18" d="M309.3,467c.34,4.36.48,6.54.69,10.89l1.62-.33C310.75,473.3,310.29,471.19,309.3,467Z"/><path class="cls-18" d="M337.31,395.29l-2,.82q3.58,8.83,6.77,17.84l2-.71Q340.93,404.18,337.31,395.29Z"/><path class="cls-18" d="M310.28,503.33l.17,0c-.06-.43-.09-.64-.14-1.07C310.3,502.67,310.29,502.89,310.28,503.33Z"/><path class="cls-18" d="M313.21,485.85l-2.13.38q1.49,8.29,2.58,16.65l2.14-.28Q314.71,494.2,313.21,485.85Z"/><path class="cls-18" d="M360.2,447.81l-2.09.53q2.31,9.41,4.3,18.86l2.11-.43Q362.53,457.25,360.2,447.81Z"/><path class="cls-18" d="M352.37,420.74l-2.05.67q2.94,9.22,5.56,18.52l2.09-.58Q355.33,430,352.37,420.74Z"/><path class="cls-18" d="M367.27,464.07c.18.82.26,1.24.43,2.06l.09,0C367.62,465.43,367.45,464.75,367.27,464.07Z"/><path class="cls-18" d="M370.06,475.67l-.52.09q1.68,9.69,3,19.41L374,495Q372.23,485.29,370.06,475.67Z"/><path class="cls-18" d="M342.31,393.26l-2,.81q3.58,9,6.86,18.09l2-.72Q345.91,402.28,342.31,393.26Z"/><path class="cls-23" d="M342.76,445.16l-2.08.56c.45,1.67.67,2.51,1.11,4.19l2.09-.54C343.44,447.68,343.22,446.84,342.76,445.16Z"/><path class="cls-23" d="M349.14,472.45l-2.12.41c.34,1.71.5,2.56.82,4.27l2.12-.4C349.64,475,349.48,474.16,349.14,472.45Z"/><path class="cls-23" d="M334.79,419.28l-2,.7c.57,1.64.84,2.46,1.39,4.11l2.05-.68C335.64,421.75,335.36,420.93,334.79,419.28Z"/><path class="cls-23" d="M324.67,393l-2,.85c.68,1.6,1,2.4,1.68,4l2-.83C325.69,395.44,325.35,394.64,324.67,393Z"/><path class="cls-23" d="M319.7,395.15l-2,.85c.67,1.57,1,2.36,1.65,3.94l2-.82C320.71,397.53,320.38,396.73,319.7,395.15Z"/><path class="cls-23" d="M353.48,499.24l-2.15.27c.22,1.73.33,2.59.53,4.32l2.14-.24C353.8,501.85,353.7,501,353.48,499.24Z"/><path class="cls-23" d="M308.36,370.9l-1.92,1c.78,1.53,1.16,2.3,1.93,3.83l1.93-1C309.53,373.21,309.15,372.44,308.36,370.9Z"/><path class="cls-23" d="M329.63,390.91l-2,.85c.69,1.62,1,2.43,1.7,4.06l2-.83C330.67,393.36,330.33,392.54,329.63,390.91Z"/><path class="cls-23" d="M364.19,497.88l-2.14.27c.22,1.78.33,2.66.54,4.44l2.14-.25C364.52,500.56,364.41,499.66,364.19,497.88Z"/><path class="cls-23" d="M318,366l-1.92,1c.8,1.57,1.2,2.35,2,3.93l1.93-1C319.19,368.37,318.79,367.58,318,366Z"/><path class="cls-23" d="M329.69,421l-2,.71c.55,1.61.83,2.42,1.37,4.05l2.05-.69C330.52,423.48,330.25,422.67,329.69,421Z"/><path class="cls-23" d="M313.17,368.45l-1.92,1c.79,1.55,1.18,2.33,1.95,3.88l1.94-1C314.36,370.79,314,370,313.17,368.45Z"/><path class="cls-23" d="M339.89,417.51l-2,.71c.58,1.66.86,2.49,1.41,4.16l2.05-.68C340.75,420,340.47,419.18,339.89,417.51Z"/><path class="cls-23" d="M358.83,498.56l-2.14.27c.22,1.75.33,2.63.53,4.38l2.15-.25C359.16,501.2,359.06,500.32,358.83,498.56Z"/><path class="cls-23" d="M348,443.74l-2.08.57c.46,1.69.68,2.54,1.12,4.25l2.09-.55C348.66,446.3,348.43,445.45,348,443.74Z"/><path class="cls-23" d="M354.44,471.4l-2.12.42c.34,1.73.5,2.59.83,4.32l2.12-.39C355,474,354.78,473.14,354.44,471.4Z"/><path class="cls-23" d="M337.55,446.57l-2.08.56c.44,1.65.66,2.48,1.09,4.14l2.09-.55C338.22,449.06,338,448.23,337.55,446.57Z"/><path class="cls-23" d="M309.77,399.39l-2,.85c.66,1.53,1,2.3,1.62,3.83l2-.82C310.75,401.7,310.43,400.93,309.77,399.39Z"/><path class="cls-23" d="M319.48,424.57l-2,.7c.54,1.58.81,2.36,1.34,3.94l2-.68C320.3,426.94,320,426.15,319.48,424.57Z"/><path class="cls-23" d="M342.76,500.6l-2.14.28c.21,1.67.32,2.52.51,4.2l2.15-.25C343.08,503.14,343,502.29,342.76,500.6Z"/><path class="cls-23" d="M298.74,375.8l-1.92,1c.76,1.49,1.13,2.24,1.87,3.73l1.94-1C299.88,378.05,299.5,377.3,298.74,375.8Z"/><path class="cls-23" d="M337.41,501.28l-2.15.28c.22,1.65.32,2.48.51,4.14l2.14-.25C337.72,503.78,337.62,503,337.41,501.28Z"/><path class="cls-23" d="M327.13,449.4,325,450c.44,1.61.65,2.41,1.07,4l2.09-.54C327.78,451.82,327.57,451,327.13,449.4Z"/><path class="cls-23" d="M334,479.69c-.3-1.65-.46-2.47-.78-4.11l-2.12.42c.32,1.63.48,2.45.78,4.08Z"/><path class="cls-23" d="M338.55,474.53l-2.12.42c.32,1.66.48,2.49.79,4.15l2.12-.39C339,477,338.87,476.2,338.55,474.53Z"/><path class="cls-23" d="M348.12,499.92l-2.14.27c.21,1.71.32,2.56.52,4.27l2.14-.25C348.44,502.49,348.34,501.64,348.12,499.92Z"/><path class="cls-23" d="M303.55,373.35l-1.92,1c.77,1.51,1.15,2.27,1.9,3.78l1.93-1C304.71,375.63,304.33,374.87,303.55,373.35Z"/><path class="cls-23" d="M324.58,422.81l-2,.7c.55,1.6.82,2.39,1.36,4l2.05-.68C325.41,425.21,325.14,424.41,324.58,422.81Z"/><path class="cls-23" d="M333.43,452.08c-.43-1.64-.65-2.46-1.09-4.1l-2.09.57c.45,1.63.66,2.44,1.09,4.07Z"/><path class="cls-23" d="M314.74,397.27l-2,.85c.66,1.55,1,2.33,1.64,3.89l2-.83C315.73,399.61,315.4,398.83,314.74,397.27Z"/><path class="cls-23" d="M343.84,473.49l-2.12.42c.34,1.68.5,2.52.81,4.2l2.12-.39C344.34,476,344.18,475.18,343.84,473.49Z"/><path class="cls-23" d="M322.65,477.66l-2.12.42c.32,1.59.47,2.38.76,4l2.13-.4C323.12,480.06,323,479.26,322.65,477.66Z"/><path class="cls-23" d="M326.7,502.64l-2.15.28c.21,1.61.3,2.41.49,4l2.15-.25C327,505.07,326.9,504.26,326.7,502.64Z"/><path class="cls-23" d="M309.27,428.1l-2,.7c.53,1.53.79,2.29,1.3,3.83l2.05-.69C310.07,430.4,309.81,429.63,309.27,428.1Z"/><path class="cls-23" d="M316.71,452.22l-2.09.57c.42,1.56.63,2.34,1,3.9l2.09-.54C317.34,454.58,317.13,453.79,316.71,452.22Z"/><path class="cls-23" d="M317.36,478.71l-2.12.42L316,483l2.12-.39C317.82,481.07,317.67,480.28,317.36,478.71Z"/><path class="cls-23" d="M304.75,431.55c.16.89.24,1.33.39,2.21l.32-.11C305.18,432.81,305,432.39,304.75,431.55Z"/><path class="cls-23" d="M321.34,503.33l-2.14.27c.2,1.58.29,2.38.48,4l2.14-.24C321.64,505.72,321.54,504.92,321.34,503.33Z"/><path class="cls-23" d="M311.49,453.63l-2.08.57c.42,1.54.62,2.31,1,3.85l2.09-.54C312.12,456,311.91,455.18,311.49,453.63Z"/><path class="cls-23" d="M304.8,401.51l-2,.85c.64,1.51,1,2.26,1.59,3.78l2-.83C305.77,403.79,305.45,403,304.8,401.51Z"/><path class="cls-23" d="M299.84,403.63l-1.11.47c.41,1.59.61,2.38,1,4l1.68-.69C300.79,405.87,300.48,405.12,299.84,403.63Z"/><path class="cls-23" d="M293.93,378.26l-1.92,1c.74,1.46,1.11,2.2,1.84,3.67l1.94-1C295.06,380.47,294.68,379.73,293.93,378.26Z"/><path class="cls-23" d="M314.38,426.33l-2,.71c.53,1.55.8,2.32,1.31,3.88l2.05-.68C315.18,428.67,314.92,427.89,314.38,426.33Z"/><path class="cls-23" d="M332.05,502l-2.14.28c.21,1.63.31,2.45.49,4.08l2.15-.25C332.36,504.43,332.26,503.61,332.05,502Z"/><path class="cls-23" d="M321.92,450.81l-2.09.56c.43,1.59.64,2.38,1.05,4l2.09-.55C322.56,453.2,322.35,452.4,321.92,450.81Z"/><path class="cls-23" d="M328,476.62l-2.12.42c.32,1.61.47,2.42.77,4l2.13-.39C328.42,479.05,328.27,478.24,328,476.62Z"/><path class="cls-23" d="M339.63,386.83a1,1,0,0,0-.07-.15l-2,.84c.71,1.66,1.06,2.5,1.75,4.17l2-.83C340.66,389.24,340.32,388.44,339.63,386.83Z"/><path class="cls-23" d="M327,361.42l-1.28.65c.82,1.62,1.23,2.42,2,4.05l1.36-.68C328.33,364,327.63,362.68,327,361.42Z"/><path class="cls-23" d="M322.79,363.54l-1.92,1c.81,1.6,1.21,2.39,2,4l1.93-.95C324,366,323.61,365.14,322.79,363.54Z"/><path class="cls-23" d="M365,469.32l-2.12.41c.35,1.78.52,2.67.85,4.44l2.13-.39C365.55,472,365.38,471.1,365,469.32Z"/><path class="cls-23" d="M369.54,497.2l-2.14.27c.23,1.8.34,2.7.55,4.5l2.14-.25C369.88,499.91,369.77,499,369.54,497.2Z"/><path class="cls-23" d="M353.18,442.33l-2.08.56c.46,1.72.69,2.58,1.14,4.31l2.09-.54C353.88,444.92,353.65,444.06,353.18,442.33Z"/><path class="cls-23" d="M345,415.75l-2.05.71c.59,1.68.87,2.52,1.44,4.21l2-.68C345.87,418.29,345.58,417.44,345,415.75Z"/><path class="cls-23" d="M334.6,388.79l-2,.85c.7,1.64,1.05,2.46,1.73,4.11l2-.83C335.65,391.27,335.3,390.44,334.6,388.79Z"/><path class="cls-23" d="M316,504l-2.14.27c.2,1.56.29,2.34.48,3.91l2.14-.25C316.28,506.36,316.18,505.58,316,504Z"/><path class="cls-23" d="M310.24,504.73c0,1.58-.07,2.37-.13,3.94l1-.11c-.18-1.55-.28-2.33-.47-3.87Z"/><path class="cls-23" d="M374.23,496.61l-1.47.18c.23,1.82.34,2.73.55,4.56l1.69-.2C374.76,499.68,374.5,498.16,374.23,496.61Z"/><path class="cls-23" d="M312.8,483.63c-.29-1.55-.44-2.33-.74-3.88l-2,.39c0,.39,0,.59,0,1,.23,1.16.34,1.74.56,2.91Z"/><path class="cls-23" d="M359.74,470.36l-2.12.42c.34,1.75.51,2.62.83,4.38l2.13-.4C360.25,473,360.08,472.12,359.74,470.36Z"/><path class="cls-23" d="M350.1,414l-2,.7c.59,1.71.88,2.56,1.45,4.27l2.05-.68C351,416.56,350.69,415.7,350.1,414Z"/><path class="cls-23" d="M358.39,440.92l-2.08.56c.47,1.74.7,2.62,1.16,4.36l2.09-.54C359.1,443.54,358.87,442.67,358.39,440.92Z"/><path class="cls-23" d="M368.41,468.65l-.2,0c.35,1.8.53,2.7.86,4.5l.4-.08C369.13,471.64,368.78,470.15,368.41,468.65Z"/><path class="cls-5" d="M322.58,409.63c3.94-30.08-.65-43.16-.65-43.16s-6.56-.44-7.87-.44-.65-6.54-2.62-6.54-46.54,3.93-46.54,3.93H241l5.25,13.95s-1,55.36,16.71,76.29l-.65-7.41a52.84,52.84,0,0,0,20,21.36s18.68-13.08,23.6-30.95v6.1S318.65,439.71,322.58,409.63Z"/><path class="cls-24" d="M300.14,189.42c3.69-7.11,3.46-32,3.46-32l-49-11.58-2.81,37.38,36,14.05S296.45,196.54,300.14,189.42Z"/><path class="cls-16" d="M293.05,206.13l-1.23-10.21c-11.5-1.7-27.17-8.15-36.09-12.14-.6,3.09-1.4,6.35-2.3,9.63l22.31,25.88,6.7-.41Z"/><path class="cls-9" d="M254.28,191.45c.28,4.38,19.25,23.14,20,23.64s8.48.71,8.48.71,12.47-14.59,14.61-19.3c1.35-3,2.51-18.57,4.39-29.92l-.15-1.27-1.86-2-.51-9.68c-13.87,7.39-30.44-4.47-30.44-4.47L265.52,158l-4.44,2.77-1.63,12.6c.16.67.26,1.05.26,1.05L254,176.22C254.06,183.32,254.17,189.72,254.28,191.45Z"/><path class="cls-3" d="M280.79,194.48l1.75-3.64-.16-18-5.7-1a39.47,39.47,0,0,1,2.28,4.74c1.85,4.14-1.72,16.41-1.72,16.41Z"/><path class="cls-2" d="M292.74,194.3l-3.06,13.06c3.26-4.09,6.64-8.61,7.67-10.86a63.66,63.66,0,0,0,2.4-9.21A15.84,15.84,0,0,1,292.74,194.3Z"/><path class="cls-2" d="M276.9,193.57l4.6,4.25a6.29,6.29,0,0,0,5-3.61L285,172.14l.27,21.21s-1.7,1.22-2.87,1-2.57-.82-3.27-1-.4-2.69-.4-2.69Z"/><path class="cls-3" d="M266.69,207.5c.56.59,1.11,1.17,1.65,1.72l0-9.68Z"/><path class="cls-3" d="M254.28,191.45c.16,2.53,6.52,9.82,12,15.64l-1.9-14.65-3.4-3.8,4.92-11.79,4.83-.32-2.25-8.84-1-15.18-2,5.53-4.44,2.77-1.63,12.6c.16.67.26,1.05.26,1.05L254,176.22C254.06,183.32,254.17,189.72,254.28,191.45Z"/><path class="cls-3" d="M274,180.12a25.79,25.79,0,0,1-6.09-1.1,14.21,14.21,0,0,1-3.6-2.27l-.23.26a9.89,9.89,0,0,0,5.35,2.93C272.89,180.61,274,180.12,274,180.12Z"/><polygon class="cls-2" points="268.11 180.17 269.24 188.8 270.24 180.37 268.11 180.17"/><path class="cls-25" d="M276.1,178.11l-3.4-2.42-2.56-.7s-1.68-.5-1.81-.48-3.51,1.85-3.51,1.85a9.5,9.5,0,0,0,3.7,2.13C270.77,179.16,274.63,179.41,276.1,178.11Z"/><path class="cls-26" d="M269.55,178.74a2.31,2.31,0,0,0,1.21-2.21A2.39,2.39,0,0,0,270,175a17.19,17.19,0,0,0-1.7-.45c-.06,0-.79.39-1.57.81a2.39,2.39,0,0,0-.19,2.32,9,9,0,0,0,1.95.85C268.84,178.58,269.18,178.67,269.55,178.74Z"/><path class="cls-2" d="M264.17,176.11l-.2.19,4.4-1.3,1.16.23c3.31.42,7.84,4,7.84,4-1.36-2.51-6.51-6.34-8.56-6.53s-3.7,2-3.7,2a7.89,7.89,0,0,1,3.34-.93,10.42,10.42,0,0,1,3.64,1.41,11.73,11.73,0,0,0-3.62-.9C266.88,174.12,264.8,175.51,264.17,176.11Z"/><path class="cls-25" d="M294.47,181A7.89,7.89,0,0,0,298,179.3s-2.82-2.4-2.93-2.44a14.77,14.77,0,0,0-1.67.22l-2.36.34-3.3,2C288.92,181,292.39,181.3,294.47,181Z"/><path class="cls-26" d="M292.82,179.5a2.72,2.72,0,0,0-.61-2.25l-1.16.17-2.14,1.29a2.8,2.8,0,0,0,.39,1.78,9.38,9.38,0,0,0,2.67.56A2.45,2.45,0,0,0,292.82,179.5Z"/><path class="cls-2" d="M295.06,176a6.71,6.71,0,0,1,2.88,1.47s-1.24-2.5-3.09-2.61S288,178,286.5,180.34c0,0,4.43-3,7.43-2.92l1.06-.06,3.78,2-.15-.22c-.5-.72-2.2-2.47-3.63-2.61a9,9,0,0,0-3.33.4A8.12,8.12,0,0,1,295.06,176Z"/><path class="cls-3" d="M298.57,180.08l-.18-.3a11.94,11.94,0,0,1-3.46,1.8,20,20,0,0,1-5.55.23s1,.68,4.1.5A8.17,8.17,0,0,0,298.57,180.08Z"/><path class="cls-27" d="M269.8,175.47c2.56.33,7.16,3.49,7.16,3.49l.19-.51s-4.53-3.1-7.22-3.3a16.9,16.9,0,0,0-6.3,1.3l0,.24S267.25,175.14,269.8,175.47Z"/><path class="cls-27" d="M298.52,179.65l.38-.15a8,8,0,0,0-4.34-2.41c-2.34-.22-7.71,2.92-7.71,2.92l.21.21c.1,0,3.4-2.54,6.69-2.45A6.48,6.48,0,0,1,298.52,179.65Z"/><path class="cls-24" d="M270.34,167c-2.8-.61-9.1,3-9.1,3l-.17.48a27.61,27.61,0,0,1,7.47-1.45c3.31,0,9.22,4.21,9.22,4.21l2-3.09-1.92,1.78a17.84,17.84,0,0,1,.88-1.76C278.93,169.94,273.15,167.65,270.34,167Z"/><path class="cls-24" d="M297.68,171.69a23.3,23.3,0,0,1,2.65,2.74l0-.25s-.61-4.17-2.36-4.53-10,2-10,2l-.35,2.21-.88-2.13.09,3.06S296.85,171.12,297.68,171.69Z"/><path class="cls-2" d="M257.5,183.32a32.45,32.45,0,0,1-2-7.58l-1.57.48c0,1.53,0,3,.06,4.45a24.78,24.78,0,0,0,2.06,5.23,27,27,0,0,0,8,9.06c-.53,1.6-.38,5.63-.05,9.66q1.33,1.45,2.64,2.82c-1.15-5.94-.63-14.82-.63-14.82S259.3,186.67,257.5,183.32Z"/><path class="cls-24" d="M254.26,169.84c-3.34,5.49-1.67,30.6-1.67,30.6l1.11-1.12c-.23,11,7.79,22.09,7.79,22.09v-2.7c4.37,13.43,21.69,26,21.69,26L290.49,226l-.23,2.15c5.48-3.5,5.4-24.71,5.4-24.71l.4,1.51c4.68-7.24,3.25-20.74,3.25-20.74s-1,8.1-1.43,9-5.48,6.51-5.48,6.51l-6.12-5.8-3.41,2.54-4.53-2.62-12.08,4.61c-7.79-6.36-5.83-38.09-5.83-38.09Zm25.24,28,1.91,2.28,2.06-1.91,6.1,3.66-4.24,7.84L283.42,203l-7.15-.11L274.2,210,269,200.46C269.33,200.41,279.5,197.81,279.5,197.81Z"/><path class="cls-1" d="M259.27,162.15l-5,7.69c-3.34,5.49-1.67,30.6-1.67,30.6l1.11-1.12c-.23,11,7.79,22.09,7.79,22.09v-2.7c4.37,13.43,21.69,26,21.69,26l1.27-3.23c-2-8.2-5-18.57-5-18.57l-1.54,2.81-1.53-11-1.53,3.58-1.31-9.53L269,200.46l3.27-.81-.45-3.33-5.57,2.13c-6.67-5.44-6.19-29.46-5.92-36.27Z"/><path class="cls-2" d="M284.82,204.65l2.33-1.8-2.34.63s-5-1.7-8.41-.66l-3.57-1.23,3.3,2.21S282.42,203.21,284.82,204.65Z"/><path class="cls-14" d="M282.27,467.61a77.17,77.17,0,0,0,10.48-9.33c-10.31-14.82-20-34.33-20-34.33v9.59C262.19,417,258.09,376.8,257,363.42H241l5.25,13.95s-1,55.36,16.71,76.29l-.65-7.41A52.84,52.84,0,0,0,282.27,467.61Z"/><path class="cls-28" d="M73.46,233.77l.44-.88s8.5,22.89,4.36,32.48c0,0,13.95,6.32,36.83,5.89L114,266.68a72.88,72.88,0,0,0,18.1,3.71L129.26,266s14.17,4.79,22.45,4.14l-4.57-6.54s2.17-41.42-10.25-44.25S116,220,116,220l3.48-6.1s-18.74,1.53-21.14,10.25l-1.09-5s-11.14.39-14.73,6.91a8.19,8.19,0,0,0-.53,1.16c-2.83,7.63-2.61-2.84-2.61-2.84S71.93,229,73.46,233.77Z"/><path class="cls-14" d="M115.09,271.26,114,266.68a72.88,72.88,0,0,0,18.1,3.71L129.26,266s14.17,4.79,22.45,4.14l-4.57-6.54s.08-1.62.12-4.22a48.49,48.49,0,0,1-23.45-17l-.32,5.39s-8.34.82-13.9-9.15l-1,6.21-6.54-7,1.63,9.81-10.13-7.2s1.47,7.2,1.31,7.85-10.3-2.45-10.3-2.45l4.57,6.87-10.38-1.3c.82,5.26,1,10.5-.51,14C78.26,265.37,92.21,271.69,115.09,271.26Z"/><path class="cls-9" d="M376,633.19c.85-22.24-9.75-58.9-9.75-58.9l.85,50.22S375.17,655.44,376,633.19Z"/><path class="cls-29" d="M374,561.58s-56.07,2-56.24,11.42,6,22.37,6,22.37l3.36-5,1.59,17.4,3.87-2.83,2.84,17.59,6.22-4.18L335.92,641l5.77-1.25s-4.81,11.69,2.65,18.85,14.82,4,21.92,16.27,41,3.8,40.79,2.48-2.49-17.12-2.49-17.12-20.61-10.91-27.51-30l6.35.56-7.23-17,6.86,2.78L375,591.32l5.24,2.1S379.2,566.68,374,561.58Z"/><path class="cls-22" d="M317.75,573c-.18,9.41,6,22.37,6,22.37l3.36-5,1.59,17.4,3.87-2.83,2.84,17.59,6.22-4.18L335.92,641l5.77-1.25s-4.81,11.69,2.65,18.85,14.82,4,21.92,16.27,41,3.8,40.79,2.48-2.22-15.23-2.47-16.94c-6.5,1.81-28,7.58-29.23,4.94-1.44-3.12-15.77-8.24-22.14-12.77s2.41-27.93,2.41-27.93l-4.77,3.77-.67-22.62-2.5,5.72L345,585.07l-6.34,7.7,1.81-28.29C328.49,566.21,317.82,568.91,317.75,573Z"/><path class="cls-22" d="M385.31,644.28c-.43-.52-.85-1-1.27-1.58-17.33-3.05-30.93,7-39.42,16.17.36.34.73.66,1.1,1l.67-.57C359.55,648,373.14,644.3,385.31,644.28Z"/><path class="cls-22" d="M382.35,628.33c-14.47-.41-31.79,3.48-45.09,7.31L335.92,641c13.23-7.39,28-9.62,41.65-9.43-.18-.44-.36-.89-.52-1.34l6.35.56Z"/><path class="cls-22" d="M375,591.33l5.22,2.09s0-.64-.08-1.75Z"/><path class="cls-22" d="M327.07,590.32l.09,1,49.06,4-1.27-4-54.28-3.59c.39,1.14.79,2.21,1.16,3.15l4.61.38Z"/><polygon class="cls-22" points="376.61 614.84 333.96 613.79 334.57 617.54 376.64 614.91 376.61 614.84"/><path class="cls-14" d="M347.2,577.22,311.67,358.41c-15.78,6.29-38.1,4.51-54.68,1.72,1,34.4-9.92,218.24-9.92,218.24Z"/><path class="cls-20" d="M336.71,574,307.27,361.64c-13.07,6.1-31.57,4.37-45.3,1.67.8,33.39-8.22,211.83-8.22,211.83Z"/><rect class="cls-17" x="280.27" y="449.18" width="2.55" height="22.22"/><rect class="cls-17" x="280.27" y="481.39" width="2.55" height="22.22"/><rect class="cls-17" x="280.27" y="415.72" width="2.55" height="22.22"/><rect class="cls-17" x="280.27" y="514.72" width="2.55" height="22.22"/><rect class="cls-17" x="280.27" y="546.94" width="2.55" height="22.22"/><rect class="cls-17" x="286.66" y="415.72" width="2.55" height="22.22"/><rect class="cls-17" x="280.27" y="383.5" width="2.55" height="22.22"/><rect class="cls-17" x="286.66" y="383.5" width="2.55" height="22.22"/><rect class="cls-17" x="267.5" y="546.94" width="2.55" height="22.22"/><rect class="cls-17" x="273.89" y="383.5" width="2.55" height="22.22"/><rect class="cls-17" x="273.89" y="415.72" width="2.55" height="22.22"/><rect class="cls-17" x="273.89" y="514.72" width="2.55" height="22.22"/><rect class="cls-17" x="273.89" y="546.94" width="2.55" height="22.22"/><rect class="cls-17" x="273.89" y="481.39" width="2.55" height="22.22"/><rect class="cls-17" x="273.89" y="449.18" width="2.55" height="22.22"/><rect class="cls-17" x="299.43" y="415.72" width="2.55" height="22.22"/><rect class="cls-17" x="299.43" y="449.18" width="2.55" height="22.22"/><rect class="cls-17" x="299.43" y="383.5" width="2.55" height="22.22"/><rect class="cls-17" x="293.05" y="546.94" width="2.55" height="22.22"/><path class="cls-17" d="M255.13,546.94c-.14,3-.28,5.8-.4,8.39v13.83h2.55V546.94Z"/><rect class="cls-17" x="299.43" y="546.94" width="2.55" height="22.22"/><rect class="cls-17" x="299.43" y="481.39" width="2.55" height="22.22"/><rect class="cls-17" x="299.43" y="514.72" width="2.55" height="22.22"/><rect class="cls-17" x="293.05" y="383.5" width="2.55" height="22.22"/><rect class="cls-17" x="286.66" y="546.94" width="2.55" height="22.22"/><rect class="cls-17" x="267.5" y="514.72" width="2.55" height="22.22"/><rect class="cls-17" x="286.66" y="481.39" width="2.55" height="22.22"/><rect class="cls-17" x="286.66" y="514.72" width="2.55" height="22.22"/><rect class="cls-17" x="293.05" y="481.39" width="2.55" height="22.22"/><rect class="cls-17" x="286.66" y="449.18" width="2.55" height="22.22"/><rect class="cls-17" x="293.05" y="514.72" width="2.55" height="22.22"/><rect class="cls-17" x="293.05" y="449.18" width="2.55" height="22.22"/><rect class="cls-17" x="293.05" y="415.72" width="2.55" height="22.22"/><rect class="cls-17" x="312.21" y="514.72" width="2.56" height="22.22"/><rect class="cls-17" x="312.21" y="481.39" width="2.56" height="22.22"/><rect class="cls-17" x="312.21" y="546.94" width="2.56" height="22.22"/><rect class="cls-17" x="312.21" y="449.18" width="2.56" height="22.22"/><rect class="cls-17" x="318.59" y="514.72" width="2.55" height="22.22"/><rect class="cls-17" x="318.59" y="546.94" width="2.55" height="22.22"/><rect class="cls-17" x="312.21" y="415.72" width="2.56" height="22.22"/><polygon class="cls-17" points="319.4 449.18 318.59 449.18 318.59 471.4 321.15 471.4 321.15 461.78 319.4 449.18"/><rect class="cls-17" x="318.59" y="481.39" width="2.55" height="22.22"/><rect class="cls-17" x="305.82" y="415.72" width="2.55" height="22.22"/><rect class="cls-17" x="305.82" y="546.94" width="2.55" height="22.22"/><polygon class="cls-17" points="332.95 546.94 331.37 546.94 331.37 569.16 333.92 569.16 333.92 553.93 332.95 546.94"/><rect class="cls-17" x="305.82" y="383.5" width="2.55" height="22.22"/><rect class="cls-17" x="305.82" y="449.18" width="2.55" height="22.22"/><polygon class="cls-17" points="312.21 405.72 313.38 405.72 312.21 397.27 312.21 405.72"/><rect class="cls-17" x="305.82" y="514.72" width="2.55" height="22.22"/><rect class="cls-17" x="305.82" y="481.39" width="2.55" height="22.22"/><rect class="cls-17" x="324.98" y="546.94" width="2.55" height="22.22"/><path class="cls-17" d="M261.81,383.5c-.14,6.52-.36,14-.63,22.22h2.49V383.5Z"/><rect class="cls-17" x="261.11" y="514.72" width="2.55" height="22.22"/><rect class="cls-17" x="261.11" y="546.94" width="2.55" height="22.22"/><rect class="cls-17" x="267.5" y="383.5" width="2.55" height="22.22"/><rect class="cls-17" x="267.5" y="481.39" width="2.55" height="22.22"/><rect class="cls-17" x="267.5" y="449.18" width="2.55" height="22.22"/><polygon class="cls-17" points="324.98 503.61 326.95 503.61 324.98 489.42 324.98 503.61"/><rect class="cls-17" x="267.5" y="415.72" width="2.55" height="22.22"/><polygon class="cls-17" points="331.37 536.94 331.57 536.94 331.37 535.5 331.37 536.94"/><rect class="cls-17" x="324.98" y="514.72" width="2.55" height="22.22"/><rect class="cls-17" x="261.11" y="481.39" width="2.55" height="22.22"/><rect class="cls-17" x="261.11" y="449.18" width="2.55" height="22.22"/><path class="cls-17" d="M257.17,503.61h.11v-2.37C257.25,502,257.21,502.82,257.17,503.61Z"/><path class="cls-17" d="M256.66,514.72l-1,22.22h1.66V514.72Z"/><rect class="cls-17" x="261.11" y="415.72" width="2.55" height="22.22"/><rect class="cls-21" x="280.27" y="473.25" width="2.55" height="5.18"/><rect class="cls-21" x="280.27" y="506.58" width="2.55" height="5.18"/><rect class="cls-21" x="280.27" y="441.03" width="2.55" height="5.18"/><rect class="cls-21" x="280.27" y="407.58" width="2.55" height="5.18"/><rect class="cls-21" x="286.66" y="407.58" width="2.55" height="5.18"/><rect class="cls-21" x="280.27" y="538.8" width="2.55" height="5.18"/><rect class="cls-21" x="286.66" y="375.36" width="2.55" height="5.18"/><rect class="cls-21" x="273.89" y="407.58" width="2.55" height="5.18"/><rect class="cls-21" x="267.5" y="538.8" width="2.55" height="5.18"/><rect class="cls-21" x="273.89" y="375.36" width="2.55" height="5.18"/><rect class="cls-21" x="286.66" y="441.03" width="2.55" height="5.18"/><rect class="cls-21" x="280.27" y="375.36" width="2.55" height="5.18"/><rect class="cls-21" x="273.89" y="441.03" width="2.55" height="5.18"/><rect class="cls-21" x="273.89" y="538.8" width="2.55" height="5.18"/><rect class="cls-21" x="273.89" y="473.25" width="2.55" height="5.18"/><rect class="cls-21" x="273.89" y="506.58" width="2.55" height="5.18"/><rect class="cls-21" x="286.66" y="473.25" width="2.55" height="5.18"/><rect class="cls-21" x="299.43" y="407.58" width="2.55" height="5.18"/><rect class="cls-21" x="299.43" y="441.03" width="2.55" height="5.18"/><rect class="cls-21" x="293.05" y="538.8" width="2.55" height="5.18"/><rect class="cls-21" x="299.43" y="375.36" width="2.55" height="5.18"/><rect class="cls-21" x="299.43" y="538.8" width="2.55" height="5.18"/><rect class="cls-21" x="299.43" y="473.25" width="2.55" height="5.18"/><rect class="cls-21" x="299.43" y="506.58" width="2.55" height="5.18"/><rect class="cls-21" x="293.05" y="506.58" width="2.55" height="5.18"/><rect class="cls-21" x="286.66" y="538.8" width="2.55" height="5.18"/><rect class="cls-21" x="293.05" y="375.36" width="2.55" height="5.18"/><rect class="cls-21" x="293.05" y="441.03" width="2.55" height="5.18"/><rect class="cls-21" x="293.05" y="473.25" width="2.55" height="5.18"/><rect class="cls-21" x="293.05" y="407.58" width="2.55" height="5.18"/><rect class="cls-21" x="286.66" y="506.58" width="2.55" height="5.18"/><rect class="cls-21" x="312.21" y="506.58" width="2.56" height="5.18"/><rect class="cls-21" x="312.21" y="538.8" width="2.56" height="5.18"/><rect class="cls-21" x="312.21" y="441.03" width="2.56" height="5.18"/><rect class="cls-21" x="312.21" y="473.25" width="2.56" height="5.18"/><rect class="cls-21" x="318.59" y="506.58" width="2.55" height="5.18"/><polygon class="cls-21" points="318.59 446.21 318.99 446.21 318.59 443.35 318.59 446.21"/><rect class="cls-21" x="318.59" y="538.8" width="2.55" height="5.18"/><rect class="cls-21" x="318.59" y="473.25" width="2.55" height="5.18"/><rect class="cls-21" x="305.82" y="407.58" width="2.55" height="5.18"/><polygon class="cls-21" points="312.21 407.58 312.21 412.76 314.35 412.76 313.63 407.58 312.21 407.58"/><rect class="cls-21" x="305.82" y="375.36" width="2.55" height="5.18"/><rect class="cls-21" x="305.82" y="441.03" width="2.55" height="5.18"/><rect class="cls-21" x="305.82" y="538.8" width="2.55" height="5.18"/><rect class="cls-21" x="305.82" y="473.25" width="2.55" height="5.18"/><rect class="cls-21" x="305.82" y="506.58" width="2.55" height="5.18"/><path class="cls-21" d="M261.12,407.58a1.28,1.28,0,0,1,0,.19v5h2.56v-5.18Z"/><path class="cls-21" d="M262,375.36c0,1.63-.06,3.36-.09,5.18h1.79v-5.18Z"/><rect class="cls-21" x="267.5" y="375.36" width="2.55" height="5.18"/><rect class="cls-21" x="261.11" y="506.58" width="2.55" height="5.18"/><rect class="cls-21" x="261.11" y="538.8" width="2.55" height="5.18"/><rect class="cls-21" x="267.5" y="473.25" width="2.55" height="5.18"/><rect class="cls-21" x="267.5" y="441.03" width="2.55" height="5.18"/><rect class="cls-21" x="267.5" y="407.58" width="2.55" height="5.18"/><rect class="cls-21" x="324.98" y="538.8" width="2.55" height="5.18"/><polygon class="cls-21" points="331.37 538.79 331.37 543.98 332.54 543.98 331.82 538.79 331.37 538.79"/><path class="cls-21" d="M255.53,538.8c-.09,1.77-.17,3.5-.25,5.18h2V538.8Z"/><polygon class="cls-21" points="327.36 506.58 324.98 506.58 324.98 511.76 327.53 511.76 327.53 507.85 327.36 506.58"/><rect class="cls-21" x="267.5" y="506.58" width="2.55" height="5.18"/><rect class="cls-21" x="261.11" y="441.03" width="2.55" height="5.18"/><rect class="cls-21" x="261.11" y="473.25" width="2.55" height="5.18"/><path class="cls-21" d="M257,506.58c-.08,1.74-.16,3.47-.24,5.18h.48v-5.18Z"/><path class="cls-14" d="M328.81,363.44l-4.67-14.19s-12.1,11.77-41.29,10-57.41-21.82-57.41-21.82l-5.84,18s41.64,24.59,65.74,22.16S328.81,363.44,328.81,363.44Z"/><path class="cls-14" d="M175.48,531.42q35.06-.93,70.12-1.71a367.71,367.71,0,0,1,4.12-137.1c-24.65,33.47-12.49,128.28-12.49,128.28l-61.34,1.68Q175.65,527,175.48,531.42Z"/><ellipse class="cls-17" cx="292.31" cy="368.38" rx="17.96" ry="14.67"/><path class="cls-18" d="M305,368.38c0-5.47-5.69-9.9-12.72-9.9s-12.72,4.43-12.72,9.9,5.7,9.91,12.72,9.91S305,373.85,305,368.38Zm-23.21,0c0-4.5,4.7-8.15,10.49-8.15s10.5,3.65,10.5,8.15-4.7,8.16-10.5,8.16S281.82,372.89,281.82,368.38Z"/><path class="cls-18" d="M297.09,368.38a4.8,4.8,0,1,0-4.78,5.3A5.06,5.06,0,0,0,297.09,368.38Zm-8.72,0a4,4,0,1,1,3.94,4.36A4.18,4.18,0,0,1,288.37,368.38Z"/><path class="cls-17" d="M262.25,365.45c2.42-6.82-2.15-14.67-10.21-17.53s-16.55.36-19,7.18,2.15,14.68,10.2,17.54S259.83,372.28,262.25,365.45Z"/><path class="cls-18" d="M258,363.94c1.63-4.61-1.67-10-7.37-12s-11.66.08-13.29,4.68,1.66,10,7.37,12S256.35,368.55,258,363.94Zm-18.86-6.68c1.35-3.8,6.26-5.52,11-3.85s7.43,6.1,6.08,9.89-6.25,5.52-11,3.85S237.79,361.05,239.13,357.26Z"/><path class="cls-18" d="M251.54,361.65c.87-2.46-.16-5.07-2.3-5.83s-4.59.62-5.46,3.08.15,5.08,2.3,5.84S250.66,364.12,251.54,361.65Zm-7.08-2.51a3.43,3.43,0,1,1,1.89,4.81A3.67,3.67,0,0,1,244.46,359.14Z"/><path class="cls-17" d="M331.93,369.56c3.34-2,3-8.66-.73-14.84s-9.47-9.55-12.8-7.53-3,8.66.73,14.84S328.6,371.58,331.93,369.56Z"/><path class="cls-18" d="M329.73,365.92c2.36-1.42,2.23-6-.29-10.13s-6.48-6.4-8.85-5-2.22,6,.3,10.14S327.37,367.35,329.73,365.92Zm-8.33-13.76c2-1.18,5.21.65,7.29,4.08s2.18,7.17.24,8.35-5.21-.65-7.29-4.08S319.45,353.33,321.4,352.16Z"/><path class="cls-18" d="M327.61,362.41c.88-.54.51-2.78-.84-5s-3.16-3.6-4-3.06-.51,2.77.84,5S326.72,363,327.61,362.41Zm-3.77-3.24c-1.11-1.83-1.42-3.68-.69-4.12s2.23.69,3.34,2.52,1.42,3.69.69,4.13S325,361,323.84,359.17Z"/><path class="cls-22" d="M238.18,153.08l-.69,6.51,2.11-.42,2.22,3.22,6.19,1.25,6.1,2.71-.84.68,9,.51-2,1.71,13.18-.54,2.07,3.21,6.34-1.64,7.23,2.59,2.45-.77,2.54.51,2.29-.78,11.42-.63-.08-1.28,5.67-1.14-1.06-1,5.34-1,.21-3.63,1.77-.08-1.67-7.37,1,.05-3.12-10.18.88-1.41L314,139.35s-10.12-5.31-26.38-7.13-39.63,3-39.63,3l-9.55,4.37,1.2,1.53-3.26,6.55,1.6.09-1.62,6.09Z"/><path class="cls-28" d="M265.62,164.6c.48.16,7.47,2.07,7.47,2.07L267.43,169l5.95-.24,1.76,2.74,1.24.23,5.41-1.4,7.23,2.59,2.45-.77,2.54.51,2.29-.78,11.42-.63-.08-1.28,5.67-1.14-1.06-1,5.34-1,.21-3.63,1.77-.08-1.67-7.37,1,.05-3.12-10.18.88-1.41-2.05-3.83a26,26,0,0,1-9.85,6.09l2.86,1.59-12.72.64,3.82,1.43-14.46-.8,4.13,2.07-13.67.16,3.5,2.22L268.8,156l6,1.91-8.74,2.54,6.83,2.7S265.15,164.44,265.62,164.6Z"/><path class="cls-30" d="M304.77,144.58s-.64-18.12-17.16-25.59-35.6,6.83-34.81,24.32C252.8,143.31,278.07,150.77,304.77,144.58Z"/><path class="cls-31" d="M297.92,145.89c2.26-.35,4.55-.78,6.85-1.31,0,0-.64-18.12-17.16-25.59a22.63,22.63,0,0,0-8.89-2c.56.24,1.13.5,1.69.79C294.22,124.91,297.26,140.32,297.92,145.89Z"/><path class="cls-32" d="M279.79,120.26c0-1-1.1-1.8-2.46-1.8s-2.46.81-2.46,1.8,1.1,1.8,2.46,1.8S279.79,121.26,279.79,120.26Z"/><path class="cls-11" d="M277.36,120.53V98.38l-4.43,16.77c2,.41,3.24,5.17,3.24,5.17Z"/><path class="cls-32" d="M297.07,116.44c-5.7-.15-19.65,2.88-19.65,2.88l-.7.29c1.19,1.79,10,5.91,13.84,5a13.6,13.6,0,0,1,6.94.07l-4.93-2.35s29.5,5.24,30,5.39-7.12-3.55-7.12-3.55l16.42.9s-19-5-20.18-5.34,9.28,1.88,9.28,1.88S302.77,116.59,297.07,116.44Z"/><path class="cls-12" d="M281.78,115.15l-4.42-16.77v22.15l1.19-.21S279.74,115.56,281.78,115.15Z"/><path class="cls-29" d="M165.61,663.92l2.33,17.59s34.33,8,43.86,6.35,14.84-24.58,22.89-28-3.18-23.31-3.18-23.31l6.14-16.1,2.76,4V607.34l6.35,4.45-3-17.37,6.14,4.24s9.91-29.09-6.41-35.65l-5.24,9.58s-32.21.85-40.47-6.56l.42-10.18s-17.16,9.33-14.19,18.86,5.72,10.17,5.72,10.17L186.16,590l4,6.57-3.39,10,3.81-.64-1.9,13.56,4.87-.85-4.87,11.87h2.54S182.14,654.6,165.61,663.92Z"/><path class="cls-22" d="M165.61,663.92l2.33,17.59s34.33,8,43.86,6.35,14.84-24.58,22.89-28c2.33-1,3-3.35,2.88-6.22l-.76-.35C224.73,648,222,660.74,208,670.06s-31.78-1.69-31.78-1.69l5.29-4.88c8.69-5.5,19.71-33,19.71-33l3.18,3.18-1.7-13.35,4,2.12-8.27-26.49,2.76,1.91-2.76-19.07c20.26,8.27,40.51,6,54.47,2.17,0-7.39-2-14.94-9.39-17.9l-5.24,9.58s-32.21.85-40.47-6.56l.42-10.18s-17.16,9.33-14.19,18.86,5.72,10.17,5.72,10.17L186.16,590l4,6.57-3.39,10,3.81-.64-1.9,13.56,4.87-.85-4.87,11.87h2.54S182.14,654.6,165.61,663.92Z"/><path class="cls-22" d="M239.1,622.59l1.31,1.92v-2.09Z"/><path class="cls-22" d="M244.64,599.35l-.56-3.29c-18,4.12-41.91-.22-56.51-3.8l2.62,4.28L189.7,598C208.27,602.05,228.78,601.21,244.64,599.35Z"/><path class="cls-22" d="M226.42,669.79c-.14-.59-.28-1.2-.42-1.85-2.75-12.38-22.06-20.32-40.77-25.28-.34.58-.69,1.17-1.06,1.77,18.64,4.27,33.31,18.33,41.12,27.39C225.66,671.14,226,670.46,226.42,669.79Z"/><polygon class="cls-22" points="240.41 610.71 240.41 607.34 187.16 605.44 186.8 606.5 190.61 605.86 190.14 609.23 240.41 610.71"/><path class="cls-22" d="M248.14,595c-.82.26-1.66.51-2.51.73l4.31,3s.63-1.83,1.3-4.68Z"/><path class="cls-22" d="M235.93,625l.82-2.16c-15.89,1.42-34.06-2.73-47.55-6.91l-.49,3.49,4.87-.85-1,2.33C206.12,624.63,221.88,625.41,235.93,625Z"/><path class="cls-22" d="M190.8,631.55c-.28.68-.69,1.64-1.23,2.81,15,6.44,31.31,5.85,42.89,4-.57-1.13-1-1.81-1-1.81l.6-1.58C222.69,638.14,206.43,635.59,190.8,631.55Z"/><path class="cls-5" d="M311.71,223.4s-42.91,78.19-84.86,103.3L224,337.18s26.69-9.53,63.88-67.06Z"/><path class="cls-5" d="M272.62,272.66c9.21,2.86,19.07,14.94,19.07,14.94l14-21.61,6.36,8.9,13-37.51,4.13-5.4-27.33-12.39s-4.45,25.1-14.31,29.24c0,0-40-20-43.22-40.05l-26.7,1.59s1.91,34.32,35.92,52.12l-.64-4.76S263.4,269.8,272.62,272.66Z"/><ellipse class="cls-33" cx="413.55" cy="324.82" rx="76.21" ry="103.86" transform="matrix(1, -0.07, 0.07, 1, -20.67, 28.2)"/><ellipse class="cls-34" cx="416.68" cy="324.82" rx="76.21" ry="103.86" transform="translate(-20.66 28.41) rotate(-3.81)"/><path class="cls-28" d="M393.88,422.66a60.2,60.2,0,0,0,21.17,5.4c42.16,2.71,76.54-41.5,76.77-98.74S458.06,223.48,415.9,220.78a56.15,56.15,0,0,0-21.2,2.68c31.82,14.51,55,55.88,54.77,103.14S425.8,412.24,393.88,422.66Z"/><path class="cls-22" d="M346.59,279.67c-.26.82-.52,1.64-.77,2.46l135.57-8.69q-.52-1.17-1.08-2.34Z"/><path class="cls-22" d="M343,293.22c-.17.81-.33,1.63-.48,2.45l143.84-9.22c-.26-.79-.52-1.58-.79-2.36Z"/><path class="cls-22" d="M341,307.36c-.08.8-.15,1.61-.21,2.42l149.31-9.57c-.17-.8-.34-1.59-.52-2.38Z"/><path class="cls-22" d="M362.41,248.84c-.63.83-1.25,1.67-1.86,2.53l102.26-6.55c-.72-.78-1.44-1.53-2.17-2.28Z"/><path class="cls-22" d="M493,329.73c0-.77,0-1.54,0-2.3l-151.71,9.72q.13,1.2.3,2.4L493,329.84Z"/><path class="cls-22" d="M352.36,265.31c-.4.82-.78,1.65-1.16,2.48l123-7.88c-.49-.78-1-1.56-1.48-2.32Z"/><path class="cls-22" d="M377.13,233.9c-1.09.83-2.16,1.71-3.21,2.62l73.72-4.73c-1.16-.77-2.34-1.49-3.53-2.19Z"/><path class="cls-22" d="M492.17,313.49l-151.81,9.73.06,2.4,152-9.74C492.34,315.08,492.26,314.28,492.17,313.49Z"/><path class="cls-22" d="M492.64,339.7l-149.36,9.57c.16.8.34,1.59.52,2.38l148.63-9.53C492.51,341.32,492.58,340.51,492.64,339.7Z"/><path class="cls-22" d="M481,384.26,360.6,392c.51.78,1,1.55,1.55,2.31l117.65-7.54C480.22,385.93,480.64,385.1,481,384.26Z"/><path class="cls-22" d="M459.66,413,385.5,417.7c1.15.77,2.32,1.5,3.5,2.19l67.47-4.32C457.55,414.73,458.61,413.86,459.66,413Z"/><path class="cls-22" d="M472.94,398.1l-102.52,6.57c.7.78,1.42,1.53,2.15,2.28l98.52-6.32C471.71,399.8,472.33,399,472.94,398.1Z"/><path class="cls-22" d="M486.8,369.89,353,378.47c.38.78.75,1.56,1.14,2.33L486,372.36C486.25,371.54,486.53,370.72,486.8,369.89Z"/><path class="cls-22" d="M490.83,353.81,346.91,363c.26.8.52,1.58.79,2.37l142.66-9.15C490.53,355.44,490.68,354.63,490.83,353.81Z"/><path class="cls-17" d="M379.64,251.94a3.34,3.34,0,1,0-2.28.9A3.33,3.33,0,0,0,379.64,251.94Z"/><path class="cls-17" d="M389,408.93a3.32,3.32,0,1,0-1.87-.57A3.41,3.41,0,0,0,389,408.93Z"/><path class="cls-17" d="M350.15,318.75a3.26,3.26,0,1,0-.15,0Z"/><path class="cls-17" d="M377.84,399.51a3.29,3.29,0,0,0,2.31-.94,3.33,3.33,0,1,0-4.7-.07h0A3.36,3.36,0,0,0,377.84,399.51Z"/><path class="cls-17" d="M398.8,411.13a3.33,3.33,0,0,0,2,4.27,3.22,3.22,0,0,0,1.14.2,3.33,3.33,0,0,0,1.13-6.46h0A3.33,3.33,0,0,0,398.8,411.13Z"/><path class="cls-17" d="M416,418.63h.32a3.33,3.33,0,0,0,.2-6.66h-.14a3.33,3.33,0,0,0-.45,6.65Z"/><path class="cls-17" d="M402.62,238.87a3.37,3.37,0,0,0,.77-.09,3.33,3.33,0,1,0-.77.09Z"/><path class="cls-17" d="M351.7,304.24a3.35,3.35,0,1,0-.56-.05A3.64,3.64,0,0,0,351.7,304.24Z"/><path class="cls-17" d="M389.08,244.18a3.27,3.27,0,0,0,1.63-.42,3.35,3.35,0,1,0-1.63.42Z"/><path class="cls-17" d="M368.64,388.18a3.33,3.33,0,1,0-2.75-1.46A3.33,3.33,0,0,0,368.64,388.18Z"/><path class="cls-17" d="M361.36,375.53a3.28,3.28,0,0,0,1.45-.34,3.31,3.31,0,1,0-1.45.34Z"/><path class="cls-17" d="M352.26,347.84a2.7,2.7,0,0,0,.63-.07,3.28,3.28,0,1,0-.63.07Z"/><path class="cls-17" d="M367.8,263.85a3.33,3.33,0,1,0-1.93-.61A3.37,3.37,0,0,0,367.8,263.85Z"/><path class="cls-17" d="M355.92,362a3.08,3.08,0,0,0,1-.16,3.35,3.35,0,1,0-1,.16Z"/><path class="cls-17" d="M360.4,276.44a3.35,3.35,0,0,0,3-1.89,3.33,3.33,0,1,0-4.45,1.56A3.4,3.4,0,0,0,360.4,276.44Z"/><path class="cls-17" d="M350.58,333.35a3.31,3.31,0,1,0-.24,0Z"/><path class="cls-17" d="M355.08,290a3.33,3.33,0,1,0-1-.15A3.4,3.4,0,0,0,355.08,290Z"/><path class="cls-17" d="M477.43,294.26a3.33,3.33,0,1,0-3.17-2.29h0A3.33,3.33,0,0,0,477.43,294.26Z"/><path class="cls-17" d="M483.22,337.47a3.32,3.32,0,0,0,3.32-3.18h0a3.33,3.33,0,1,0-3.48,3.18Z"/><path class="cls-17" d="M483.25,322.87a3.46,3.46,0,1,0-.24,0Z"/><path class="cls-17" d="M481.09,308.4a2.79,2.79,0,0,0,.64-.07,3.29,3.29,0,1,0-.64.07Z"/><path class="cls-17" d="M481.69,352a3.35,3.35,0,1,0-.56-.05A3.53,3.53,0,0,0,481.69,352Z"/><path class="cls-17" d="M472,280.71a3.24,3.24,0,0,0,1.45-.33,3.33,3.33,0,1,0-1.45.33Z"/><path class="cls-17" d="M473,379.8a3.33,3.33,0,1,0-1.44-.33A3.25,3.25,0,0,0,473,379.8Z"/><path class="cls-17" d="M417.13,237.68a3.37,3.37,0,1,0-.22,0Z"/><path class="cls-17" d="M465.61,392.39a3.33,3.33,0,1,0-1.92-.61A3.33,3.33,0,0,0,465.61,392.39Z"/><path class="cls-17" d="M464.69,268.06a3.33,3.33,0,1,0-2.76-1.45h0A3.32,3.32,0,0,0,464.69,268.06Z"/><path class="cls-17" d="M444.32,247.34a3.33,3.33,0,1,0-1.86-.57A3.28,3.28,0,0,0,444.32,247.34Z"/><path class="cls-17" d="M478.31,366.21a3.33,3.33,0,1,0-3.18-4.32h0a3.35,3.35,0,0,0,2.2,4.17A3.4,3.4,0,0,0,478.31,366.21Z"/><path class="cls-17" d="M430.81,417.43a3.44,3.44,0,0,0,.77-.09,3.33,3.33,0,1,0-.77.09Z"/><path class="cls-17" d="M431.37,240.69a3.34,3.34,0,1,0-1.14-.2A3.51,3.51,0,0,0,431.37,240.69Z"/><path class="cls-17" d="M458.34,402.52a3.33,3.33,0,1,0-2.27.9A3.35,3.35,0,0,0,458.34,402.52Z"/><path class="cls-17" d="M444.35,412.09a3.33,3.33,0,1,0-1.64-6.23,3.33,3.33,0,0,0,1.64,6.23Z"/><path class="cls-17" d="M457.8,255.8a3.34,3.34,0,1,0-2.32.94A3.32,3.32,0,0,0,457.8,255.8Z"/><polygon class="cls-5" points="267.85 293.32 264.03 299.36 314.25 321.61 316.48 313.67 267.85 293.32"/><path class="cls-5" d="M179.6,264.93s6.56,3,11.23,1.48c0,0,20.34-29.24-11.23-52.76l-8.06,2.76s10.81,5.93,16.11,21.82S179.6,264.93,179.6,264.93Z"/><path class="cls-22" d="M96.93,219.18l.39.44-.1-.46Z"/><path class="cls-22" d="M104,270.94c3.1-8,9-24.87,7.63-32.95-1.26-7.26-7.3-13.88-11.12-17.45A9.4,9.4,0,0,0,99.32,222c4,5,8.12,11.48,8.36,17.39.34,8.45-4.25,23.73-6.71,31.26C102,270.77,103,270.86,104,270.94Z"/><path class="cls-22" d="M125.42,269.58c2.27-7.47,5.59-20,5.28-28.3-.42-11-8.59-20.41-10.43-22.39-.93.17-1.73.36-2.38.53l-.34.49s8,3.75,10.57,20.43c1.72,11.11-1.35,22.62-3.6,29.08Z"/><path class="cls-22" d="M92.57,269.43c.2-7.11.32-21.33-1.57-28.38-1.52-5.66-5.38-11.47-8.31-15.31-.07.11-.14.22-.2.33a8.19,8.19,0,0,0-.53,1.16c0,.14-.1.27-.16.4a38.28,38.28,0,0,1,7.79,15.06c2.24,9.61.56,20.19-.75,26C90,268.92,91.24,269.18,92.57,269.43Z"/><path class="cls-22" d="M79.1,224.55l.24.26c0-.26,0-.42,0-.42Z"/><path class="cls-5" d="M170.6,217.63a59.62,59.62,0,0,0-6.37,1.47l25.9,19.13,1.41-3.29Z"/><path class="cls-5" d="M180,264.44c1.49-4.74,3.56-13.16,2.63-21.28-1-8.64-12.12-18.81-18.53-24-1.29.37-2.57.77-3.81,1.19-1.24-.37-2.5-.72-3.77-1,8.3,6.07,18,14.72,19.53,22.93a54.86,54.86,0,0,1,0,21.06C177.45,263.74,178.78,264.13,180,264.44Z"/><path class="cls-24" d="M255.35,315.08c-9.54-.85-10.22,19.07-10.22,19.07s0-7,27.75-10.73,22.81-54.65,16.86-67.41-6.13-13.62-6.13-13.62L279.69,240s-14.81,14.47-11.23,31.84-9.2,35.92-9.2,35.92a14.18,14.18,0,0,0,10.9-6S264.88,315.93,255.35,315.08Z"/><path class="cls-1" d="M255.35,315.08c-9.54-.85-10.22,19.07-10.22,19.07s0-2.42,5.66-5.17c4.66-12.3,11.32-9.72,25.33-16.11,15.66-7.15,9.19-23.84,9.19-23.84l-4.43,2.73c5.7-9.27,3.12-35.43,1-50.4L279.69,240s-14.81,14.47-11.23,31.84-9.2,35.92-9.2,35.92a14.18,14.18,0,0,0,10.9-6S264.88,315.93,255.35,315.08Z"/><polygon class="cls-21" points="272.99 200.55 275.67 200.23 275.41 196.72 272.99 200.55"/><polygon class="cls-21" points="286.52 201.38 288.12 202.27 287.35 198.57 286.52 201.38"/><polygon class="cls-35" points="283.26 200.87 288.5 202.28 283.05 199.57 280.83 200.89 279.08 199.26 270.6 200.75 278.7 200.6 280.67 202.56 283.26 200.87"/><path class="cls-36" d="M387,263s-36.27,42.9-24,73.54c0,0,6.64-15.83,27.58-5.62s-1,52.61-1,52.61l21.19,10.21,8.43-44.94s-2.81,46.22-1.79,46.48,9.71,5.61,20.69-1.79l-1.79-41.63,10,38.56s13-9.19,17.37-23.23c0,0-29.63-29.63-18.39-42.39s24.51,7.91,24.51,7.91,4.35-19.92-12.51-50.82-35-31.41-35-31.41,20.68,43.42,2,53.12-38.31-26.81-29.88-47.5Z"/><polygon class="cls-37" points="411.64 388.71 401.6 389.35 406.01 391.48 411.18 391.15 411.64 388.71"/><path class="cls-37" d="M451.16,386.17l-6,.39.62,2.37,2.47-.16C449.08,388.1,450.07,387.23,451.16,386.17Z"/><path class="cls-37" d="M454,356.17l-16.41,1.05.61,2.37,17.61-1.13C455.25,357.73,454.64,357,454,356.17Z"/><path class="cls-37" d="M445.52,342.72l-46.06,2.95c.07.79.1,1.59.11,2.4l47.13-3C446.28,344.28,445.89,343.5,445.52,342.72Z"/><path class="cls-37" d="M417.73,374.32c0,.81-.08,1.62-.11,2.42l19.63-1.26-.11-2.41Z"/><path class="cls-37" d="M393,375.91c-.37.89-.72,1.71-1.05,2.48L413.84,377l.45-2.44Z"/><path class="cls-37" d="M418.56,358.44c0,.78-.09,1.59-.13,2.42l18.14-1.16-.1-2.41Z"/><path class="cls-37" d="M398.16,359.75c-.18.82-.38,1.64-.59,2.45L416.84,361l.46-2.44Z"/><path class="cls-37" d="M469.19,315l-108.77,7c0,.81,0,1.61,0,2.41l109.1-7C469.45,316.58,469.32,315.78,469.19,315Z"/><path class="cls-37" d="M417.17,388.35c0,.87,0,1.68-.05,2.42l20.73-1.33-.11-2.41Z"/><path class="cls-37" d="M461.9,371.49l-20.26,1.3.61,2.37,18.4-1.18C461.09,373.17,461.5,372.34,461.9,371.49Z"/><path class="cls-37" d="M363.07,305.94c-.25.81-.47,1.63-.69,2.45l53.14-3.4a16.36,16.36,0,0,1-5.43-2.07Z"/><path class="cls-37" d="M368.7,291.58c-.4.82-.78,1.65-1.16,2.49L399.61,292c-.47-.75-.91-1.53-1.34-2.33Z"/><path class="cls-37" d="M362.66,335.78c.09.25.18.5.28.75,0,0,.13-.3.4-.79Z"/><path class="cls-37" d="M426.77,301.85a12.52,12.52,0,0,1-2.54,1.74,14.08,14.08,0,0,1-2.41,1l44.06-2.82c-.26-.77-.53-1.56-.81-2.36Z"/><path class="cls-37" d="M394.55,333.74a15.23,15.23,0,0,1,1.89,2.29l46.23-3a13.92,13.92,0,0,1,0-2.42Z"/><path class="cls-37" d="M470.11,328.9l-3.15.2c.74.88,1.36,1.68,1.81,2.29l1.13-.07C470,330.71,470.05,329.9,470.11,328.9Z"/><path class="cls-37" d="M451.7,272.94l-21.29,1.36c.17.79.34,1.59.49,2.38l22.34-1.43C452.73,274.45,452.21,273.68,451.7,272.94Z"/><path class="cls-37" d="M432,287.52c0,.82,0,1.63-.11,2.42l28.46-1.82c-.37-.77-.76-1.56-1.15-2.34Z"/><path class="cls-37" d="M376.38,277.76c-.51.82-1,1.65-1.55,2.52L394,279.05c-.21-.79-.41-1.58-.59-2.38Z"/><path class="cls-37" d="M386.86,263.09c-.24.29-1,1.17-2,2.55l7.58-.49c0-.82.12-1.63.23-2.43Z"/><path class="cls-37" d="M440.23,259.67l-13.91.9c.27.75.55,1.54.83,2.35l15.49-1C441.83,261.13,441,260.37,440.23,259.67Z"/></g></g></svg>