<svg xmlns="http://www.w3.org/2000/svg" viewBox="0 0 496.88 691.8"><defs><style>.cls-1{fill:#cecbaa;}.cls-2{fill:#ada87f;}.cls-3{fill:#ffaf57;}.cls-4{fill:#fc9;}.cls-5{fill:#b26b2b;}.cls-6{fill:#6d4033;}.cls-7{fill:#845342;}.cls-8{fill:#a36b5b;}.cls-9{fill:#6b6361;}.cls-10{fill:#565150;}.cls-11{fill:#544235;}.cls-12{fill:#3d3028;}.cls-13{fill:#8e8683;}.cls-14{fill:#afa7a5;}.cls-15{fill:#7f7673;}.cls-16{fill:#c6824b;}.cls-17{fill:#afaaa8;}.cls-18{fill:#423125;}.cls-19{fill:#7c5942;}.cls-20{fill:#e28c37;}.cls-21{fill:#3a2d23;}.cls-22{fill:#512b22;}.cls-23{fill:#775f4d;}.cls-24{fill:#937d6d;}.cls-25{fill:#b2d326;}.cls-26{fill:#83a80f;}.cls-27{fill:#698e0e;}.cls-28{fill:#4c6d0b;}.cls-29{fill:#a35d41;}.cls-30{fill:#702e1c;}.cls-31{fill:#c67052;}.cls-32{fill:#353333;}.cls-33{fill:#d3d3d3;}.cls-34{fill:#c48876;}.cls-35{fill:#af631e;}.cls-36{fill:#997e6b;}.cls-37{fill:#526363;}.cls-38{fill:#56271b;}.cls-39{fill:#3f140f;}.cls-40{fill:#72392e;}.cls-41{fill:#0f0b0b;}.cls-42{fill:#703c2a;}.cls-43{fill:#999;}.cls-44{fill:#6b483b;}.cls-45{fill:#9b2815;}.cls-46{fill:#f7dbbf;}.cls-47{fill:#3a5e25;}.cls-48{fill:#fff;}.cls-49{fill:#adadad;}.cls-50{fill:#939393;}.cls-51{fill:#ddd;}.cls-52{fill:#848180;}.cls-53{fill:#b2b2b2;}.cls-54{fill:#b27c69;}.cls-55{fill:#b77d69;}.cls-56{fill:#b27362;}.cls-57{fill:#6b5f5b;}.cls-58{fill:#756e6c;}.cls-59{fill:#7c7674;}.cls-60{fill:#c1972d;}.cls-61{fill:#726739;}.cls-62{fill:#8c7f4b;}.cls-63{fill:#5b522c;}.cls-64{fill:#dbbc77;}.cls-65{fill:#ad1e1e;}.cls-66{opacity:0.52;}</style></defs><g id="Layer_2" data-name="Layer 2"><g id="Capa_2" data-name="Capa 2"><path class="cls-1" d="M311.08,14.33C287.79,8.77,228.36,17,228.36,17c-7.94,6.05,2.37,11.53,2.37,11.53s64.18-8,77.64-5.16,25.33,13,25.33,13S334.37,19.88,311.08,14.33Z"/><path class="cls-2" d="M287.37,17.18c-31.05.2-36.07.79-36.07.79l13.18.8L227.3,25.88a15.2,15.2,0,0,0,3.43,2.64s64.18-8,77.64-5.16,25.33,13,25.33,13C333.91,34.78,318.42,17,287.37,17.18Z"/><path class="cls-3" d="M400.57,474.39a189.93,189.93,0,0,0-33.29-29.09c-21.75-15.13-40.38-22.38-41.17-22.68a3.84,3.84,0,0,0-5,2.39,4,4,0,0,0,2.23,5.17,211.86,211.86,0,0,1,39.73,21.94c19.22,13.39,44.55,35.92,56.1,67.21,9.09,24.64,9,46.44-.25,64.79-6.91,13.72-16.68,20.35-16.78,20.41a4.16,4.16,0,0,0-1.24,5.56,3.76,3.76,0,0,0,5.32,1.23c.46-.31,11.38-7.63,19.31-23.1a72.87,72.87,0,0,0,7.36-23.73q.39-3,.57-6c.76-13.16-1.62-27.35-7.09-42.16S412.27,487.49,400.57,474.39Z"/><path class="cls-4" d="M400.8,606.1a50.44,50.44,0,0,0,6.33-5.78,40.19,40.19,0,0,1-5,4.21A4,4,0,0,0,400.8,606.1Z"/><path class="cls-4" d="M400.57,474.39a189.93,189.93,0,0,0-33.29-29.09c-21.75-15.13-40.38-22.38-41.17-22.68a3.83,3.83,0,0,0-4.84,2.06,3.72,3.72,0,0,1,3-.12,214.81,214.81,0,0,1,41.16,22.68,190,190,0,0,1,33.3,29.09c11.69,13.1,20.38,27.22,25.83,42s7.85,29,7.08,42.16q-.16,3-.57,6a73,73,0,0,1-7.35,23.73A70.11,70.11,0,0,1,412.52,606a69.21,69.21,0,0,0,13-17.82,72.87,72.87,0,0,0,7.36-23.73q.39-3,.57-6c.76-13.16-1.62-27.35-7.09-42.16S412.27,487.49,400.57,474.39Z"/><path class="cls-5" d="M341.79,439c.72.39,1.45.79,2.19,1.21a40.91,40.91,0,0,1,15.77.07c-1.19-.76-2.36-1.49-3.51-2.2A42.24,42.24,0,0,0,341.79,439Z"/><path class="cls-5" d="M366,444.43a66.49,66.49,0,0,0-15.91-.69l2.43,1.47a82.37,82.37,0,0,1,16.54,1.36l-1.8-1.27Z"/><path class="cls-5" d="M401,487.31l1.41,1.84a45,45,0,0,1,13,5c-.57-.92-1.16-1.83-1.76-2.75C408.82,489,404.58,487.65,401,487.31Z"/><path class="cls-5" d="M362.26,447.81c-2.3-.24-4.46-.41-6.4-.52.94.6,1.9,1.22,2.86,1.86a108.54,108.54,0,0,1,17.58,2.78c-1.05-.82-2.11-1.63-3.19-2.43A108.08,108.08,0,0,0,362.26,447.81Z"/><path class="cls-5" d="M371.63,458.4l1.94,1.52a92.1,92.1,0,0,1,13.12.65c-.71-.64-1.43-1.27-2.15-1.9A80.1,80.1,0,0,0,371.63,458.4Z"/><path class="cls-5" d="M325.92,428.83c-1.06.38-2.05.76-3,1.15l.44.2s.65.25,1.74.71a60,60,0,0,1,12.14-3.27l-2.54-1.23A63.55,63.55,0,0,0,325.92,428.83Z"/><path class="cls-5" d="M337,432a23.57,23.57,0,0,0-6.42,1.33l2.16,1c3.71-1,9.24-1.14,16.29-.53-1.16-.66-2.3-1.29-3.4-1.89A62.5,62.5,0,0,0,337,432Z"/><path class="cls-5" d="M419,518.89c.06.15.12.29.17.44.25.69.5,1.38.74,2.06a49.52,49.52,0,0,1,10.87,9.43c-.27-1.12-.56-2.25-.86-3.38A53.63,53.63,0,0,0,419,518.89Z"/><path class="cls-5" d="M400.45,607.08c.45,1.33.92,2.69,1.38,4a3.7,3.7,0,0,0,2,.81c-.73-2.15-1.55-4.53-2.33-6.78A4.08,4.08,0,0,0,400.45,607.08Z"/><path class="cls-5" d="M425.73,547.85q.11,1.29.15,2.58a61.63,61.63,0,0,1,7.47,10.08c0-.66.1-1.32.14-2,0-.28,0-.55,0-.82-.89-1.4-1.89-2.81-3-4.23C429,551.48,427.38,549.61,425.73,547.85Z"/><path class="cls-5" d="M405.31,602c.95,2.6,1.93,5.28,2.87,7.88.39-.31.82-.67,1.3-1.08-1-2.85-2.05-5.64-2.9-8C406.13,601.27,405.71,601.66,405.31,602Z"/><path class="cls-5" d="M389.82,474.56c.83.84,1.65,1.7,2.47,2.57a110.38,110.38,0,0,1,16.27,7c-.78-1-1.57-2.05-2.38-3.06A127.6,127.6,0,0,0,389.82,474.56Z"/><path class="cls-5" d="M425.91,515.05a23.94,23.94,0,0,0-10.17-4c.28.6.55,1.2.82,1.81a24.14,24.14,0,0,1,10.38,5c-.17-.5-.35-1-.54-1.49S426.08,515.49,425.91,515.05Z"/><path class="cls-5" d="M418.72,501.59A84.71,84.71,0,0,0,407.29,496c.53.81,1.06,1.63,1.58,2.46a71.47,71.47,0,0,1,12.91,7.09c-.49-1-1-2-1.52-3Z"/><path class="cls-5" d="M424,535.76c.16.73.3,1.46.44,2.19a37.58,37.58,0,0,1,8.9,8.49c-.08-1-.17-1.93-.28-2.9A36.6,36.6,0,0,0,424,535.76Z"/><path class="cls-6" d="M390.94,341.56c2.44-43.81-43.2-82.74-43.2-82.74l-70,129.59s28.59,105.25,70,82.13,34.68-87,34.68-87l13.39,17c12.17-32.25-19.47-66.93-19.47-66.93Z"/><path class="cls-6" d="M28.74,391.65,44.15,384s-12.57,21.49-9.33,50.7l4.46-11.36s-1.62,36.91,16.23,47.45,58.81-27.17,58.81-27.17l8.11-88.42L73.35,306.07S25.9,343.79,28.74,391.65Z"/><path class="cls-6" d="M117.16,442.56c-1.83,1.82,72.4,68.14,72.4,68.14l3-24.95,14.6,34.07,21.91-31,3.65,14.61,104-71.19V379.28s-200.16-12.17-202.6-12.78S119,440.73,117.16,442.56Z"/><path class="cls-6" d="M9,518.16l9.13-5.59L2.26,556.1,16.86,550S-2,572.84.43,599.07l7.91-6.13s-9.73,26.78-6.69,47.43l6.08-7.25v21.2s45.63,8.93,87.61,5.58,56-36.83,56-36.83L43,461.79S13.21,486.9,9,518.16Z"/><path class="cls-7" d="M164.7,488,55.19,589.59c-4.26,2.79,4.26,39.06,6.69,60.82s112,22.33,125.33,13.4.61-26.23.61-26.23l8.52,11.16c5.48-17.3-4.26-53-4.26-53l10.34,20.09-6.08-52.46,6.08,7.25C201.21,533.22,164.7,488,164.7,488Z"/><path class="cls-8" d="M164.7,488l-3.44,3.19c8.56,11.45,33.92,47.9,34.93,79l-6.08-7.26,4.33,37.41,8,15.5-6.08-52.46,6.08,7.25C201.21,533.22,164.7,488,164.7,488Z"/><path class="cls-8" d="M196.19,615.37l-10.34-20.09s7.77,28.53,5.51,46.94l5,6.52c2.79-8.82,1.63-22.44-.18-33.66Z"/><path class="cls-8" d="M190.11,648.3l-8.52-11.17s12.78,17.3-.61,26.23c-6.75,4.51-37.94,6.59-67.52,4.77,31.28,2.55,66.53.5,73.75-4.32,8.35-5.57,6.52-14.39,4-20.24A32.2,32.2,0,0,1,190.11,648.3Z"/><path class="cls-6" d="M169.65,488.46a85.88,85.88,0,0,1-24.3,4.74l-11-14.32-2.43,7.43L91.87,465l5,8.88L53.93,459.8l5.94,6.8-20.39,3.27-9.64,9,6.94,1.28S27.47,505.6,26.26,515s3.89,2,3.89,2l-3.8,25.16,7-12.53-9.08,47.76,10.29-9.25L30.9,603.29l4.7-6.53s3.87,38.58,6.7,45.14,32.59,12,32.59,12L66.17,645s61.24,20.86,58.06,19.6-21-14.77-21-14.77l53,8.69S174,616.84,176,605.1l-.26,6.29s25.68-44.13,1.11-66.24l17.28,11.31Z"/><path class="cls-7" d="M169.65,488.46a85.88,85.88,0,0,1-24.3,4.74l-11-14.32-2.43,7.43-16-8.55c-4,19.64-10.78,48.28-10.78,48.28l-9.5-10.69,2.38,54.29,8.64-18.3.67,44.23-10.69-4.74,1.66,23.87L83.29,598.4,89.4,630,77.09,624.1s4.11,15.45,5.75,26.52c17.88,6.08,43.47,14.76,41.39,13.93-3.17-1.26-21-14.77-21-14.77l53,8.69S174,616.84,176,605.1l-.26,6.29s25.68-44.13,1.11-66.24l17.28,11.31Z"/><polygon class="cls-7" points="78.11 580.87 90.8 588.21 81.54 566.75 78.11 580.87"/><polygon class="cls-7" points="68.78 609.76 81.47 617.11 73.13 591.41 68.78 609.76"/><polygon class="cls-7" points="84.6 558.75 84.81 515.69 76.69 535.19 84.6 558.75"/><polygon class="cls-7" points="70.52 574.89 73.89 564.7 62.34 551.89 70.52 574.89"/><path class="cls-6" d="M147,599.65,133.62,560l-6.23,49.42L117.59,528l-5.78,91.72L139,646l21.37-4.9s12.47-62.78-11.13-95.73Z"/><path class="cls-7" d="M413.25,535.75l6.08,4.46c1.22-43.52-59-85.94-59-85.94L270.88,614.44S339,650.15,378.57,642.9s30.42-34,30.42-34l16.43,12.84-12.17-43L426,590.44Z"/><path class="cls-6" d="M254.46,466s-25.56,17.86-25,112.17l8.52-8.93-5.48,43,11.56-10-3.65,33.48s42.59,1.68,79.1-4.46l-3.05-2.24s42,4.47,57.19-8.92.61-47.44.61-47.44Z"/><path class="cls-6" d="M375.24,438.63A97,97,0,0,1,351.8,449.3L339.05,438l-1.46,7.88L295.25,435l6.05,7.46L257,439.31l6.75,5.18L244,452.74,235.65,464l7-.47s-6,27.2-5.94,36.7,4.1,1,4.1,1l-.53,25.56,5.32-14-2.86,49,9-11.6.89,35.25,3.82-7.56s8.78,36.79,12.42,42.5,33.79,3.61,33.79,3.61l-9.78-6.54s63.29,5.21,60,4.76-22.71-9.23-22.71-9.23l53.55-4.65s12.32-45.15,12.73-57.11l.56,6.22s19.75-49.55-7.41-65.08l18.56,6.77Z"/><path class="cls-7" d="M375.24,438.63A97,97,0,0,1,351.8,449.3L339.05,438l-1.46,7.88-17-4.39c-1.43,20.21-4.47,49.91-4.47,49.91l-10.77-8.1,9.32,52.52,6.2-20.05,6.34,43.1-11.19-2,4.71,22.94-16.87-12.24L314,597,301,594.28s6,14.1,9.1,24.53c18.47,1.51,44.92,3.64,42.75,3.35-3.3-.44-22.71-9.23-22.71-9.23l53.55-4.65s12.32-45.15,12.73-57.11l.56,6.22s19.75-49.55-7.41-65.08l18.56,6.77Z"/><polygon class="cls-7" points="296.5 551.74 310 555.78 298.08 537.09 296.5 551.74"/><polygon class="cls-7" points="290.98 582.33 304.48 586.36 292.93 563.29 290.98 582.33"/><polygon class="cls-7" points="289.24 507.41 300.09 528.5 294.77 486.32 289.24 507.41"/><polygon class="cls-7" points="288.22 547.78 290.25 536.98 277.18 527.3 288.22 547.78"/><path class="cls-6" d="M345,508.27l11.35,73.46-18.7-54.09L345,601.77,329.64,565.7S331,619.8,331,623.81s36.07,4,36.07,4l16-51.43C381.07,576.39,345,508.27,345,508.27Z"/><path class="cls-9" d="M122.84,594.05c-37.72-10.95-71-4.87-86.8,12.17s-20.69,47.86-20.69,47.86S34,691.39,80.25,691.8,179.62,659,179.62,659C179.22,657.32,160.56,605,122.84,594.05Z"/><path class="cls-10" d="M135,616.76C96.07,596.48,40.09,616,40.09,616s56-11.36,88.43,4.87S150.82,674,150.82,674h0q3.88-1.76,7.37-3.45C160.74,654.23,159.7,629.62,135,616.76Z"/><path class="cls-10" d="M40.9,650s41.78-2,47.46-2.91l2-39.68L36,624.47Z"/><path class="cls-10" d="M56.32,668.27s-4.26-4.86-3.65-26.16c.38-13.44,33.74-36.1,58.29-51C78.23,584.53,50.17,591,36,606.22c-15.82,17-20.69,47.86-20.69,47.86S34,691.39,80.25,691.8c31.68.28,66.59-15.25,85.44-25C103.34,695,56.32,668.27,56.32,668.27Z"/><path class="cls-3" d="M101,508.9c-1.18-.51-2.44.69-2.8,2.68A309.77,309.77,0,0,1,87.35,552c-6.79,19.82-18.46,46.45-35.45,60.79-13.38,11.28-25.48,13.48-36,6.53-7.84-5.2-11.84-13.87-11.88-14-.72-1.61-2.12-1.88-3.12-.6a5.58,5.58,0,0,0-.51,5.22C.61,610.34,5,620,13.88,626a25.61,25.61,0,0,0,13.41,4.57,24.77,24.77,0,0,0,3.33-.08c7.33-.64,15.12-4.41,23.17-11.19s15.55-16.56,22.44-29.14a226.11,226.11,0,0,0,15-35,316.51,316.51,0,0,0,11.23-41.82C102.87,511.43,102.2,509.41,101,508.9Z"/><path class="cls-4" d="M3.14,604.16a39.78,39.78,0,0,0,3.42,5.47,34.82,34.82,0,0,1-2.51-4.32A2.61,2.61,0,0,0,3.14,604.16Z"/><path class="cls-4" d="M101.21,509a5.91,5.91,0,0,1,.16,2.8,315.63,315.63,0,0,1-11.23,41.82,225.7,225.7,0,0,1-15,35C68.2,601.15,60.65,611,52.65,617.71s-15.84,10.56-23.17,11.2a26.54,26.54,0,0,1-3.33.08,25.62,25.62,0,0,1-13.41-4.58,38.12,38.12,0,0,1-9.18-9A39.45,39.45,0,0,0,13.88,626a25.61,25.61,0,0,0,13.41,4.57,24.77,24.77,0,0,0,3.33-.08c7.33-.64,15.12-4.41,23.17-11.19s15.55-16.56,22.44-29.14a226.11,226.11,0,0,0,15-35,316.51,316.51,0,0,0,11.23-41.82C102.85,511.54,102.27,509.63,101.21,509Z"/><path class="cls-5" d="M93.34,532.38a67.47,67.47,0,0,1,.47,15.12l1.11-3.59a67.15,67.15,0,0,0-1-13.75Z"/><path class="cls-5" d="M90.84,541.1a136.11,136.11,0,0,1-.21,16l.65-1.86c.15-.44.29-.87.44-1.3a111.73,111.73,0,0,0-.14-15.31Z"/><path class="cls-5" d="M65.73,606.54c.49-.64,1-1.3,1.47-2A62,62,0,0,0,69.07,592c-.32.52-.64,1-1,1.55A70.88,70.88,0,0,1,65.73,606.54Z"/><path class="cls-5" d="M87.9,564.58c.41-1.09.83-2.19,1.24-3.31.32-3.81.49-7.46.58-10.58.06-2.22.08-4.31.08-6.19l-.94,3C88.79,552.47,88.55,558.56,87.9,564.58Z"/><path class="cls-5" d="M83.37,562.79c.22,4,.2,8.49.07,12.65.33-.74.66-1.5,1-2.26.08-4.17,0-8.53-.27-12.4Z"/><path class="cls-5" d="M98.32,511.14c0,.14-.07.29-.1.44s-.12.65-.34,1.74a84.4,84.4,0,0,1,2.22,11.3l.6-2.57c-.47-3.08-1.07-5.87-1.65-8.17C98.81,512.91,98.56,512,98.32,511.14Z"/><path class="cls-5" d="M96.72,518.78c-.16.69-.32,1.42-.5,2.18a84.22,84.22,0,0,1,.83,15.56c.33-1.19.64-2.34.93-3.46,0-3.16-.11-5.93-.32-8.26A35.07,35.07,0,0,0,96.72,518.78Z"/><path class="cls-5" d="M50.78,613.66a59,59,0,0,1-4.87,11.4c.61-.37,1.22-.76,1.84-1.17a68.07,68.07,0,0,0,4.39-11.36l-.24.21Z"/><path class="cls-5" d="M2.58,603.93.39,605.67a5.8,5.8,0,0,0-.39,2l3.69-2.94A1.77,1.77,0,0,0,2.58,603.93Z"/><path class="cls-5" d="M29.51,630.59c.37,0,.74,0,1.11-.07l.46,0q1.13-1.51,2.25-3.3c1.05-1.68,2-3.44,3-5.2-.48.15-.95.28-1.43.41A53.68,53.68,0,0,1,29.51,630.59Z"/><path class="cls-5" d="M1.28,611.63c.18.34.4.72.64,1.14l4.33-3.62c-.26-.38-.48-.75-.69-1.09Z"/><path class="cls-5" d="M71.1,598.86c.54-.85,1.08-1.72,1.62-2.6,1.27-5.36,2.25-11,3.06-16.35l-1.34,2.62C73.56,588,72.48,593.61,71.1,598.86Z"/><path class="cls-5" d="M53,620l.81-.67.71-.61a37.55,37.55,0,0,0,1.88-10.17c-.32.33-.64.66-1,1A36.49,36.49,0,0,1,53,620Z"/><path class="cls-5" d="M59.63,613.77q.81-.87,1.62-1.77l.48-1.58c1.15-4,2-7.93,2.72-11.53-.43.59-.87,1.18-1.31,1.76A105,105,0,0,1,59.63,613.77Z"/><path class="cls-5" d="M37.32,629.11l1.6-.57a43.9,43.9,0,0,0,4-9.5c-.4.23-.8.44-1.2.65A42.39,42.39,0,0,1,37.32,629.11Z"/><path class="cls-3" d="M197.78,605.31c0,.09-4,8.76-11.88,14-10.49,7-22.59,4.75-36-6.53-17-14.34-28.66-41-35.46-60.79a313.63,313.63,0,0,1-10.87-40.37c-.36-2-1.61-3.19-2.79-2.68s-1.85,2.53-1.49,4.52a316.51,316.51,0,0,0,11.23,41.82,225.15,225.15,0,0,0,15,35c6.88,12.58,14.43,22.38,22.44,29.14s15.83,10.55,23.16,11.19a24.81,24.81,0,0,0,3.33.08A25.61,25.61,0,0,0,188,626c8.84-6,13.27-15.69,13.45-16.1a5.55,5.55,0,0,0-.51-5.22C199.9,603.43,198.5,603.7,197.78,605.31Z"/><path class="cls-4" d="M197.78,605.31a35.42,35.42,0,0,1-2.5,4.32,40.84,40.84,0,0,0,3.42-5.47A2.55,2.55,0,0,0,197.78,605.31Z"/><path class="cls-4" d="M189.1,624.41A25.63,25.63,0,0,1,175.68,629a26.54,26.54,0,0,1-3.33-.08c-7.33-.64-15.12-4.41-23.16-11.2s-15.56-16.56-22.44-29.13a225.7,225.7,0,0,1-15-35,315.63,315.63,0,0,1-11.23-41.82,5.78,5.78,0,0,1,.16-2.8c-1.06.63-1.64,2.54-1.3,4.42a316.51,316.51,0,0,0,11.23,41.82,225.15,225.15,0,0,0,15,35c6.88,12.58,14.43,22.38,22.44,29.14s15.83,10.55,23.16,11.19a24.81,24.81,0,0,0,3.33.08A25.61,25.61,0,0,0,188,626a39.75,39.75,0,0,0,10.32-10.65A38.3,38.3,0,0,1,189.1,624.41Z"/><path class="cls-5" d="M107.9,530.16a68,68,0,0,0-1,13.75c.35,1.17.72,2.37,1.1,3.59a67.41,67.41,0,0,1,.48-15.12C108.29,531.63,108.1,530.88,107.9,530.16Z"/><path class="cls-5" d="M111,541.1c-.25-.83-.49-1.66-.73-2.47a108.6,108.6,0,0,0-.14,15.31c.14.43.29.86.44,1.3l.64,1.86A138.34,138.34,0,0,1,111,541.1Z"/><path class="cls-5" d="M132.76,592a61.4,61.4,0,0,0,1.88,12.6c.49.67,1,1.33,1.47,2a70.88,70.88,0,0,1-2.37-13C133.41,593,133.08,592.49,132.76,592Z"/><path class="cls-5" d="M112,544.5c0,1.88,0,4,.08,6.19.08,3.12.25,6.77.58,10.58.41,1.12.82,2.22,1.24,3.31-.66-6-.9-12.11-1-17.13C112.66,546.45,112.34,545.47,112,544.5Z"/><path class="cls-5" d="M117.69,560.78c-.31,3.87-.36,8.23-.28,12.4.33.76.65,1.52,1,2.26-.12-4.16-.14-8.63.08-12.65Q118.07,561.79,117.69,560.78Z"/><path class="cls-5" d="M103.51,511.14c-.24.86-.48,1.77-.73,2.74-.57,2.3-1.17,5.09-1.64,8.17.18.81.38,1.67.59,2.57a86,86,0,0,1,2.22-11.3c-.22-1.09-.33-1.7-.34-1.74S103.55,511.28,103.51,511.14Z"/><path class="cls-5" d="M105.12,518.78a35,35,0,0,0-1,6c-.2,2.33-.31,5.1-.32,8.26.3,1.12.61,2.27.94,3.46a83.34,83.34,0,0,1,.83-15.56C105.44,520.2,105.27,519.47,105.12,518.78Z"/><path class="cls-5" d="M149.94,612.74l-.24-.21a68,68,0,0,0,4.38,11.36c.62.41,1.24.8,1.85,1.17a58.36,58.36,0,0,1-4.87-11.4C150.68,613.36,150.31,613.05,149.94,612.74Z"/><path class="cls-5" d="M199.26,603.93a1.79,1.79,0,0,0-1.12.77l3.69,2.94a6.05,6.05,0,0,0-.38-2Z"/><path class="cls-5" d="M165.55,622c.92,1.76,1.91,3.52,3,5.2q1.13,1.79,2.25,3.3l.45,0c.37,0,.75.06,1.11.07a54.44,54.44,0,0,1-5.35-8.2C166.5,622.26,166,622.13,165.55,622Z"/><path class="cls-5" d="M195.59,609.15l4.33,3.62.64-1.14c-1.42-1.17-2.87-2.39-4.28-3.57C196.07,608.4,195.84,608.77,195.59,609.15Z"/><path class="cls-5" d="M126.05,579.91c.81,5.39,1.8,11,3.07,16.35.53.88,1.08,1.75,1.62,2.6-1.38-5.25-2.46-10.85-3.34-16.33C126.94,581.66,126.49,580.78,126.05,579.91Z"/><path class="cls-5" d="M145.45,608.55a37.19,37.19,0,0,0,1.89,10.17l.71.61.81.67a36.49,36.49,0,0,1-2.44-10.47Z"/><path class="cls-5" d="M137.39,598.89c.69,3.6,1.56,7.56,2.72,11.53.15.53.31,1.06.47,1.58.54.6,1.08,1.19,1.63,1.77a103.31,103.31,0,0,1-3.51-13.12C138.25,600.07,137.82,599.48,137.39,598.89Z"/><path class="cls-5" d="M158.9,619a43.9,43.9,0,0,0,4,9.5l1.59.57a42.35,42.35,0,0,1-4.41-9.42C159.7,619.48,159.3,619.27,158.9,619Z"/><path class="cls-11" d="M80.52,274.06S54.65,401.1,72,462.25s63.53,63.29,97.46,22.4,32.2-199.49,32.2-199.49Z"/><path class="cls-12" d="M80.52,274.06S54.65,401.1,72,462.25C80.16,491,94.7,506.73,111.35,511a108.47,108.47,0,0,1-8.53-21.63c-17.35-61.15,8.53-188.19,8.53-188.19l90.07,8.25c.33-14.86.23-24.31.23-24.31Z"/><path class="cls-13" d="M84.3,411.91c-21.9,17.86-31.63,37.39-41.37,40.18,0,0-1.21,36.83,24.95,56.92s51.1,7.26,51.1,7.26,47.46-1.12,60.24-35.16c0,0-24.95-27.9-34.68-46.88S106.21,394.05,84.3,411.91Z"/><path class="cls-14" d="M39.58,456.81l.83-.81c-.28.1-.55.2-.82.28C39.59,456.28,39.58,456.46,39.58,456.81Z"/><path class="cls-14" d="M81,416.1c-.94.76-1.84,1.53-2.73,2.29,21.08-11.49,46.33,8,55.36,25.61,9.73,19,34.67,46.88,34.67,46.88A43.4,43.4,0,0,1,161,503.44a50.92,50.92,0,0,0,9.63-8.24,43.58,43.58,0,0,0,5.26-9.9s-25-27.91-34.68-46.88S102.86,398.24,81,416.1Z"/><path class="cls-15" d="M84.3,411.91c-21.9,17.86-31.63,37.39-41.37,40.18A84.54,84.54,0,0,0,46.12,475c9.69-3.72,25.41-18,33.93-43.27,5.83-17.28,20.34-23.16,32.72-25C103.33,403.84,93.26,404.61,84.3,411.91Z"/><path class="cls-15" d="M91.61,428.09c-15.21,6.7-25.25,24.28-28.6,36.84l-.91-1.12s-3,35.72,36.81,36.55,34.68-35.71,26.77-49.94S106.82,421.4,91.61,428.09Z"/><path class="cls-13" d="M99.89,441.46c-9.46,4.32-15.7,15.66-17.78,23.76l-.56-.72s-1.89,23.05,22.88,23.59,21.56-23,16.64-32.23S109.34,437.14,99.89,441.46Z"/><path class="cls-14" d="M96.36,443.48a30.48,30.48,0,0,0-6.13,5.78c5.62,1.84,10,8.49,13.5,15,3,5.54,5.31,16.3,1.28,23.86a33.15,33.15,0,0,0,4-.2c9.74-6.71,7-22,3.27-29C108.3,451.56,103.13,444,96.36,443.48Z"/><polygon class="cls-16" points="274.03 471.15 236.71 480.07 236.71 482.51 281.33 475.61 280.52 482.51 235.09 488.19 235.09 490.62 304.45 487.78 273.09 465.77 274.03 471.15"/><polygon class="cls-16" points="235.09 468.31 236.71 471.96 268.89 462.82 262.26 458.17 235.09 468.31"/><polygon class="cls-16" points="268.89 462.82 273.09 465.77 272.4 461.82 268.89 462.82"/><path class="cls-3" d="M379.42,462.39a4,4,0,0,0-4.16,3.79,211.74,211.74,0,0,1-7.86,44.7c-6.42,22.52-19.5,53.8-45.35,74.88-20.35,16.61-41,23.61-61.36,20.81-15.22-2.09-24.66-9.18-24.75-9.25a4.16,4.16,0,0,0-5.66.63,3.75,3.75,0,0,0,.56,5.43c.44.34,10.92,8.29,28.12,10.77a73.18,73.18,0,0,0,24.84-.75c1.94-.39,3.88-.85,5.83-1.4,12.69-3.55,25.33-10.41,37.57-20.39s22.71-22.74,31.3-38.06a189.27,189.27,0,0,0,16.71-40.94,214.67,214.67,0,0,0,8.09-46.29A3.86,3.86,0,0,0,379.42,462.39Z"/><path class="cls-4" d="M234,596.53a48.34,48.34,0,0,0,7.53,4.11,39.71,39.71,0,0,1-5.6-3.32A4,4,0,0,0,234,596.53Z"/><path class="cls-4" d="M379.78,462.41a3.72,3.72,0,0,1,1.07,2.74,214.71,214.71,0,0,1-8.09,46.3,189.48,189.48,0,0,1-16.71,40.94c-8.59,15.32-19.12,28.12-31.3,38.06s-24.88,16.84-37.57,20.39c-1.95.54-3.89,1-5.84,1.4a73.11,73.11,0,0,1-24.83.75,69.61,69.61,0,0,1-18.64-5.4A69.26,69.26,0,0,0,259,614.15a73.18,73.18,0,0,0,24.84-.75c1.94-.39,3.88-.85,5.83-1.4,12.69-3.55,25.33-10.41,37.57-20.39s22.71-22.74,31.3-38.06a189.27,189.27,0,0,0,16.71-40.94,214.67,214.67,0,0,0,8.09-46.29A3.84,3.84,0,0,0,379.78,462.41Z"/><path class="cls-5" d="M372.47,488.93a41.14,41.14,0,0,1,5,14.94c.33-1.37.65-2.72.94-4a41.92,41.92,0,0,0-5.56-13.36Q372.7,487.67,372.47,488.93Z"/><path class="cls-5" d="M370.51,498.64a82.26,82.26,0,0,1,4.09,16.09c.21-.7.41-1.41.61-2.12l.42-1.47a66.29,66.29,0,0,0-4.52-15.26Q370.83,497.25,370.51,498.64Z"/><path class="cls-5" d="M345.15,560.11a44.9,44.9,0,0,1-.53,14c.68-.84,1.36-1.69,2-2.55.69-5.43.62-9.89-.22-13.35C346,558.82,345.59,559.47,345.15,560.11Z"/><path class="cls-5" d="M369.62,502.46c-.26,1.09-.54,2.2-.83,3.32a108.35,108.35,0,0,1,3.08,17.52c.43-1.26.85-2.52,1.26-3.8-.49-3.94-1.2-7.66-1.92-10.82C370.69,506.43,370.15,504.34,369.62,502.46Z"/><path class="cls-5" d="M363.42,523.31a92.27,92.27,0,0,1,3.66,12.63c.37-.88.73-1.77,1.09-2.66A80.6,80.6,0,0,0,364.24,521C364,521.76,363.7,522.53,363.42,523.31Z"/><path class="cls-5" d="M375.31,465.7a2.52,2.52,0,0,0-.05.48s0,.7-.11,1.87a60.5,60.5,0,0,1,7,10.43c.12-1,.23-1.92.33-2.81a63.37,63.37,0,0,0-5.16-7.52C376.66,467.28,376,466.46,375.31,465.7Z"/><path class="cls-5" d="M374.62,474c-.08.75-.17,1.54-.27,2.38,2.11,3.19,4.07,8.36,5.79,15.23.24-1.31.47-2.59.68-3.82a63.13,63.13,0,0,0-2.86-8.15A23.75,23.75,0,0,0,374.62,474Z"/><path class="cls-5" d="M320.34,587.13A49.17,49.17,0,0,1,315,600.47c1-.62,1.95-1.25,2.92-1.91a53.6,53.6,0,0,0,4.54-13.1l-.36.3C321.48,586.23,320.91,586.68,320.34,587.13Z"/><path class="cls-5" d="M233,596.52l-3.36,2.62a3.71,3.71,0,0,0-.13,2.11c1.8-1.39,3.79-2.93,5.66-4.4A4,4,0,0,0,233,596.52Z"/><path class="cls-5" d="M287.69,612.51c.65-.16,1.29-.33,1.94-.51l.79-.23c1-1.3,2-2.69,3-4.19,1.38-2.1,2.62-4.25,3.75-6.38-.8.34-1.59.67-2.39,1A60.66,60.66,0,0,1,287.69,612.51Z"/><path class="cls-5" d="M232.82,604.74c.42.27.9.57,1.44.89l6.6-5.33c-.55-.29-1.06-.57-1.52-.83Z"/><path class="cls-5" d="M353.23,546.6a110.19,110.19,0,0,1-1.33,17.66c.73-1.06,1.43-2.14,2.13-3.24a127.3,127.3,0,0,0,.83-17.58C354.33,544.49,353.79,545.55,353.23,546.6Z"/><path class="cls-5" d="M327.32,581.16A24.25,24.25,0,0,1,326,592.6l1.23-1,1.08-.89a23.71,23.71,0,0,0,.48-10.92C328.29,580.25,327.81,580.71,327.32,581.16Z"/><path class="cls-5" d="M335.92,583.73c.79-.79,1.58-1.6,2.35-2.42.14-.58.27-1.17.4-1.76a83.38,83.38,0,0,0,1.57-12.62c-.59.77-1.2,1.53-1.81,2.29A72.12,72.12,0,0,1,335.92,583.73Z"/><path class="cls-5" d="M301,607.93c.88-.39,1.77-.79,2.65-1.21a36.66,36.66,0,0,0,4.42-11.09c-.65.38-1.29.76-1.93,1.12A37.45,37.45,0,0,1,301,607.93Z"/><path class="cls-11" d="M217,264.26s9.12,129,42.39,184.3,78.59,46.94,100.46-.37-22.48-200.61-22.48-200.61Z"/><path class="cls-13" d="M350.47,391.26c-21.9-17.86-50.49,3.35-60.23,22.33s-34.68,46.87-34.68,46.87c12.78,34,60.24,35.16,60.24,35.16s24.94,12.83,51.1-7.26,25-56.92,25-56.92C382.11,428.65,372.38,409.12,350.47,391.26Z"/><path class="cls-17" d="M354.9,395c10.68,18.08,29.43,54.93,23.16,81.82,14.62-20.11,13.79-45.42,13.79-45.42C382.79,428.85,373.74,411.78,354.9,395Z"/><path class="cls-15" d="M350.47,391.26c-21.9-17.86-50.49,3.35-60.23,22.33s-34.68,46.87-34.68,46.87a45.05,45.05,0,0,0,14.17,19.34c2.2-2.47,25.24-28.62,34.51-46.68,9.73-19,38.33-40.18,60.23-22.33,12,9.8,20.36,20.09,27.06,27.86a64.19,64.19,0,0,0,.32-7.21C382.11,428.65,372.38,409.12,350.47,391.26Z"/><path class="cls-15" d="M373.29,446.71c-3.35-12.55-13.39-30.13-28.6-36.83S318.53,418,310.62,432.2,297.54,483,337.39,482.15,374.2,445.6,374.2,445.6Z"/><path class="cls-13" d="M352.67,444.58c-2.09-8.11-8.33-19.45-17.78-23.77s-16.26,5.22-21.18,14.4-8.13,32.77,16.64,32.23,22.88-23.58,22.88-23.58Z"/><path class="cls-17" d="M352.67,444.58c-2.08-8.11-8.33-19.45-17.78-23.77-5-2.27-9.2-.71-12.82,2.6a11.38,11.38,0,0,1,4,1c9.45,4.32,15.69,15.66,17.77,23.77l.57-.72s1,12.56-8.4,19.35c18.81-3.65,17.22-23,17.22-23Z"/><path class="cls-18" d="M347.86,108l14.12.71s-3.18-36-30-38.84L345,66S323.5,38.81,279.37,47.28l-44.13,8.47s-108.38.71-120.38,27.89l-1.25,16.41.15,281.23c62.33,6.92,198.44-17,198.44-17S333,338.18,333,318.76l2.12,18.36s24-32.84,10.59-52.61l10.59,13.77s18.36-40.95-6.36-54S368.33,168,368.33,168,370.1,114,347.86,108Z"/><path class="cls-18" d="M344.68,108.53l14.12.71s-3.18-36-30-38.84l13.06-3.88s-21.53-27.18-65.66-18.71l-44.13,8.47S123.68,57,111.68,84.17l-1.53,20.12s-68-6.35-89.2,91.08l15.53-4.23s-38.83,35.3-30.36,82.61l11.3-9.18s-18.36,36.71.71,56.48l4.23-13.41s0,19.77,10.59,32.48L36.48,326s9.18,45.89,68.49,55.07,204-16.24,204-16.24,20.83-26.13,20.83-45.54L332,337.65s24-32.84,10.59-52.61l10.59,13.77s18.36-40.95-6.35-54,18.35-76.26,18.35-76.26S366.92,114.53,344.68,108.53Z"/><path class="cls-19" d="M332,69.87,345,66S323.5,38.81,279.37,47.28l-1.33.25c42.4-7,63.11,19.17,63.11,19.17l-13.06,3.88c24.29,2.56,29.19,32.33,29.9,37.93l4,.2S358.8,72.7,332,69.87Z"/><path class="cls-19" d="M231.36,56.46l3.66-.71c-3.2,0-42.15.54-75.05,6.78C193.43,56.7,231.36,56.46,231.36,56.46Z"/><path class="cls-19" d="M308.36,365l3.84-.66s12.86-16.14,18.37-32.47l-1.42-12.37C329.15,338.42,309.3,363.76,308.36,365Z"/><path class="cls-19" d="M350.59,109l-6.62-.33c22.24,6,20.48,60,20.48,60S321.38,231.91,346.09,245c20.12,10.63,11.69,39.76,7.86,50.21l2.38,3.09s18.36-40.95-6.36-54S368.33,168,368.33,168,370,118.55,350.59,109Z"/><path class="cls-19" d="M341.85,285.22c10.16,15-1.13,37.42-7.22,47.45l.52,4.45s16.65-22.78,14.46-41.82Z"/><path class="cls-11" d="M276.19,48l-44.13,8.48s-108.38.7-120.38,27.89l-1.53,20.12s-68-6.36-89.2,91.08l15.53-4.24S-2.35,226.62,6.12,273.92l11.3-9.17s-18.36,36.71.71,56.48l4.23-13.42s0,19.77,10.59,32.48l3.53-14.12S44.94,368.41,98,380c-38.62-15.55-45.29-48.84-45.29-48.84l-3.53,14.13C38.6,332.53,38.6,312.76,38.6,312.76l-4.23,13.41c-19.07-19.77-.71-56.48-.71-56.48l-11.3,9.18c-8.47-47.31,30.36-82.61,30.36-82.61l-15.53,4.23c21.18-97.43,89.2-91.08,89.2-91.08l1.53-20.12C139.92,62.11,248.3,61.4,248.3,61.4l44.13-8.47a81.5,81.5,0,0,1,29.48-.55C311.12,47.53,295.91,44.2,276.19,48Z"/><path class="cls-20" d="M266.09,38.86l8.5-1.84s-11.83-8.16-21-.66l4.5-4.5s-6.08-9.17-18,4.67l-45.79,9.66c-3,1.33-.33-1-25.67-1.67l6.67,4s-16-5-31.17,2.5l10.67,3s-20.23-.31-25.18,7.93a6.38,6.38,0,0,0-.32.57l8.5-.5s-13.83,3.67-10.67,16,65.17,16.67,65.17,16.67l107.5-38.83S283.09,37.86,266.09,38.86Z"/><path class="cls-11" d="M54.64,360.61c.15.42.31.84.46,1.25,14.87,39.46,48.11,51.86,48.11,51.86s105.91,6.71,157.45,3.53,65.27-57.7,65.27-57.7l-12.32-11.84Z"/><path class="cls-21" d="M181.5,289.66c-9.37,2.64-1.1,9.53-46.83,22.77-15.07,4.36-32.89,8.2-50,11.4l-12.51,8.71c-2.33,19-4.49,41-5.52,63.13,36.18.06,111.77-5.4,132.5-50.41.48-1.05,1-2.06,1.43-3.05,1-23.45,1.11-42.11,1.11-49.82C191.21,290.22,183.62,289.06,181.5,289.66Z"/><polygon class="cls-21" points="217.21 265.88 175.55 355.85 205.2 379.14 210.5 366.97 250.74 403.5 278.27 369.08 279.86 381.79 299.99 353.2 245.44 268.48 217.21 265.88"/><polygon class="cls-6" points="224.1 255.82 182.43 345.79 212.09 369.08 217.38 356.91 257.62 393.44 285.16 359.02 286.75 371.73 306.87 343.14 252.33 258.42 224.1 255.82"/><path class="cls-22" d="M223.73,261.88s-27,76.65-26.47,78.61,28.06,11.65,28.06,11.65l-12.71-22.77s36,29.12,37.6,28.59-5.29-27-5.29-27l11.64,30.18,3.18-33.89L264,366.44l9-31.24,5.29,15.88s15.89-33.36,15.69-33.85l-32.1-47.7Z"/><path class="cls-23" d="M172.9,239.35s-88.78,0-91.43,25.42-26.83,95.84-26.83,95.84,50.48,18.54,121.44,1.06,80.48-86.84,80.48-86.84-2.64,19.59,15.36,47.66,54,37.06,54,37.06L304.75,250.47Z"/><path class="cls-11" d="M81.47,264.77c-2,18.83-15.74,62.35-22.75,83.65l15.16,12.19,3.18-50.3,24.62,58.48c5.08.29,10.5.43,16.23.36L153.84,332s-46-54.25-66-77C84.17,257.77,81.87,261,81.47,264.77Z"/><path class="cls-24" d="M294,317.23l.12-.47S288.47,303.74,294,317.23Z"/><path class="cls-24" d="M294.16,317.72l-.2-.49-1.76,7.29-6.83-20.24-3.53,5.89-6.35-20.95-1.65,6.59-9.89-36-25.42.94L222.77,298.4l7.29-5.18s-7.76,16.71-19.77,22.13l2.59-10.83s-8.71,15.53-18.36,17.42-98.61,24.24-98.61,24.24,3.77-5.89,1.41-5.89-26.59,1.18-26.59,1.18,6.12,2.35,4.7,2.35-9.88-1.17-9.88-1.17,11.06-4.47,8.24-4.47c-1.37,0-6.89-1-12.25-2-3.88,14.14-6.9,24.44-6.9,24.44s50.48,18.54,121.44,1.06,80.48-86.84,80.48-86.84-2.64,19.59,15.36,47.66,54,37.06,54,37.06l-4.07-21C311.11,333.84,297.64,326.25,294.16,317.72Z"/><path class="cls-25" d="M270,121.27c0,1.59-17.23,68.77,38.65,35s17.48-73.61,17.48-73.61Z"/><path class="cls-26" d="M264.73,123.39c0,1.59-17.23,68.76,38.66,35s17.47-73.61,17.47-73.61Z"/><path class="cls-26" d="M265,148.28l3.69,87.31s60.38,13.29,86.85-25.89S321.7,106.44,321.7,106.44Z"/><path class="cls-26" d="M265,148.28l3.69,87.31s60.38,13.29,86.85-25.89S321.7,106.44,321.7,106.44Z"/><path class="cls-25" d="M317.86,109.28c10.09,11.41,55.58,66.17,32,101.13-11.65,17.23-29.85,24.31-46.58,26.84,18.18-1.73,39.35-8.31,52.34-27.55,26.48-39.19-33.88-103.26-33.88-103.26Z"/><path class="cls-27" d="M328.46,114.27c-1.33-1.63-2.52-3-3.52-4.18l-9.9,1.27-50,36.92,3.61,85.32a26.84,26.84,0,0,0,6.76,3.09c13.38,1.74,44.08,3.45,66.43-12.78-11.4-6.17-43.86-59-27.52-64.37,17.3-5.65,29.3,29.3,29.3,29.3C349.27,167,322.09,132,322.09,132Z"/><path class="cls-27" d="M328.46,114.27c-1.33-1.63-2.52-3-3.52-4.18l-9.9,1.27-50,36.92,3.61,85.32a26.84,26.84,0,0,0,6.76,3.09c13.38,1.74,44.08,3.45,66.43-12.78-11.4-6.17-43.86-59-27.52-64.37,17.3-5.65,29.3,29.3,29.3,29.3C349.27,167,322.09,132,322.09,132Z"/><path class="cls-28" d="M265,148.28l3.69,87.31s25.58,5.63,50.74-1.24a56.94,56.94,0,0,0,15.82-15.65c22.72-33.63-18.53-85.59-30.67-99.65Z"/><path class="cls-29" d="M309.38,234.86c-.71-4.71-3.53-6.12-3.53-6.12a5.29,5.29,0,0,0,2.35-5.18c-.47-3.53-4.24-5.41-4.24-5.41L157.1,224.5a38.41,38.41,0,0,0-3.53,7.53c-1.17,3.77,2.12,6.12,2.12,6.12s-2.59.94-2.59,5.88,2.35,4.24,2.35,4.24-3,2.82-2.11,6.12,3.06,3.29,3.06,3.29l-.24,4.2c13,10.79,142.15,6.16,149.22,2.63s1.88-9.41,1.88-9.41a66.4,66.4,0,0,0,2.12-7.3c.47-2.59-1.89-5.65-1.89-5.65A8.75,8.75,0,0,0,309.38,234.86Z"/><path class="cls-30" d="M286.35,262c2.14,0,3.26,0,3-.12A11.94,11.94,0,0,0,286.35,262Z"/><path class="cls-30" d="M296.19,250l.48,0Z"/><path class="cls-30" d="M263.72,233.44s-2.28.36-6.14.92C259.68,234.08,261.73,233.78,263.72,233.44Z"/><path class="cls-30" d="M204.64,254.39l82.14-7.06-113,2.82-1.88-3.76,106.14-4-87.61-.78c22.79-1.07,54-5.35,67.12-7.25-35.09,4.63-84.94,1.91-84.94,1.91l-1.89-10.83-13.74-.8a38.15,38.15,0,0,0-3.44,7.39c-1.17,3.77,2.12,6.12,2.12,6.12s-2.59.94-2.59,5.88,2.35,4.24,2.35,4.24-3,2.82-2.11,6.12,3.06,3.29,3.06,3.29l-.24,4.2c7,5.85,48.14,7.16,85.49,6.59,16.15-2.45,37-5.69,44.7-6.47-14.8-.2-78.41-3.37-78.41-3.37,22.61-1.13,82.14-8.13,88.25-8.68C289,250.36,204.64,254.39,204.64,254.39Z"/><path class="cls-30" d="M290.23,241c-2.77.72-31,6.75-45.16,5.44a3.53,3.53,0,0,0-3.58,3.56,3.74,3.74,0,0,0,3.06,4.18c1.56.15,3.26.21,5,.21,16.82,0,41.88-5.76,42.13-5.83a3.94,3.94,0,0,0,2.5-4.65C293.81,241.78,292,240.47,290.23,241Z"/><path class="cls-30" d="M274.84,230a4.07,4.07,0,0,0-4.43-3.6c-15.72,1.59-31.43,2.39-47.23,2.42a4.07,4.07,0,0,0-4,4l-.33,32.89a3.9,3.9,0,0,0,1.17,2.8c17.4.12,35.56-.29,50.66-.95l4-.39a4.23,4.23,0,0,0,3.87-4.53Q276.68,246.37,274.84,230ZM267,263.45q-18.28,1.57-36.62,1.88a4.19,4.19,0,0,1-4.33-4q-.06-11.93-.11-23.86a4.08,4.08,0,0,1,4-4.11c11.43-.19,22.81-.77,34.2-1.75a4.09,4.09,0,0,1,4.42,3.67q1.15,11.87,2.33,23.75A4.19,4.19,0,0,1,267,263.45Z"/><path class="cls-31" d="M309.38,234.86c-.71-4.71-3.53-6.12-3.53-6.12a5.29,5.29,0,0,0,2.35-5.18c-.47-3.53-4.24-5.41-4.24-5.41l-2.61.11c.79.45,3.62,2.27,4,5.3a5.29,5.29,0,0,1-2.36,5.18s2.83,1.41,3.53,6.12a8.73,8.73,0,0,1-1.88,7.29s2.35,3.06,1.88,5.65a66.4,66.4,0,0,1-2.12,7.3s5.18,5.88-1.88,9.41c-3.72,1.86-41.37,4-78.05,4.08,37.54.06,77.06-2.17,80.88-4.08,7.06-3.53,1.88-9.41,1.88-9.41a66.4,66.4,0,0,0,2.12-7.3c.47-2.59-1.89-5.65-1.89-5.65A8.75,8.75,0,0,0,309.38,234.86Z"/><polygon class="cls-13" points="309.93 70.19 336.68 12.19 289.43 65.94 280.68 60.94 278.93 14.19 263.68 61.19 304.93 84.44 330.18 98.19 387.93 66.94 317.18 83.44 309.93 70.19"/><path class="cls-13" d="M283.83,46.37a57.31,57.31,0,0,0-53.65,77.35,180.94,180.94,0,0,1,27.18,4c34.06,7.33,65.28-9.28,83.72-22.57,0-.52,0-1,0-1.55A57.27,57.27,0,0,0,283.83,46.37Z"/><path class="cls-9" d="M334.28,109.83c1-.64,1.93-1.27,2.86-1.9l-4.48-15S333.62,102.24,334.28,109.83Z"/><path class="cls-9" d="M327.54,100.16l-3-16.19-3.14-.17-5.45-16,4.79,17.52,2.48,1.65,2.15,18.84s-2.48-12.72-10.91-28.42S283.08,59,283.08,59c10.59,8.57,16.37,25.78,18.52,33.47C294.84,71,269.11,58.66,255.91,53.63A57.42,57.42,0,0,0,236.84,70.9l-.19.34s13.22,30.08,16.19,32.89c2.33,2.2,26.71,15.52,39.74,23.51,15.05-3.12,28.56-9.64,39.36-16.34,1.83-8-4.07-30-4.07-30Z"/><circle class="cls-13" cx="300.05" cy="106.94" r="10.47"/><path class="cls-32" d="M300.05,99.45a7.5,7.5,0,1,0,7.16,7.49A7.33,7.33,0,0,0,300.05,99.45Z"/><path class="cls-33" d="M283.83,46.37a57.31,57.31,0,0,0-54.32,39.09A57.27,57.27,0,0,1,339.93,106l1.15-.81c0-.52,0-1,0-1.55A57.27,57.27,0,0,0,283.83,46.37Z"/><path class="cls-34" d="M295.14,161.07c2.12,2.47,7.76,25.77,10.94,6,2.26-14.07,25.64-24.75,38.92-29.73-1.26-2-2.53-4-3.8-5.92C317.91,135.78,293.22,158.84,295.14,161.07Z"/><polygon class="cls-35" points="317.85 152.01 345.38 131.3 343.74 129.89 317.85 152.01"/><path class="cls-35" d="M348,134.83c-.18,0-.63.39-1.28,1Z"/><path class="cls-35" d="M346.69,135.88,327,152C334.15,150.43,343.26,139.37,346.69,135.88Z"/><path class="cls-35" d="M361.09,167l-15.88.17C352.62,170,359.86,167,361.09,167Z"/><path class="cls-35" d="M339.48,155c4-1.25,14.38-3.79,14.38-3.79l-.36-1.95Z"/><path class="cls-35" d="M339.48,155c-.93.3-1.51.52-1.51.62Z"/><path class="cls-35" d="M333.74,152.66s15.18-9,16.76-9L348,141.71Z"/><path class="cls-35" d="M334.88,165.37s22-3.89,23.21-3.8l-.61-1.32Z"/><path class="cls-35" d="M341.41,159c2.21-.5,14-2.91,14-2.91l-.44-1.59S343.58,158.37,341.41,159Z"/><path class="cls-35" d="M341.06,159.1a2.09,2.09,0,0,0,.35-.09A1.93,1.93,0,0,0,341.06,159.1Z"/><path class="cls-35" d="M362.24,175.6l-20.12.36C347.68,179,362.24,175.6,362.24,175.6Z"/><path class="cls-35" d="M353.5,172.07l-17.65-.35C338.68,175.16,352.89,172.07,353.5,172.07Z"/><path class="cls-35" d="M361,184.7,342.3,183C351.56,187.08,360.39,184.7,361,184.7Z"/><path class="cls-35" d="M331.18,179s19.32,1.76,19.59,1.76l-.27-1.32Z"/><path class="cls-35" d="M357.74,195.37l-19.15-4C343.09,195.73,356.77,195.2,357.74,195.37Z"/><path class="cls-35" d="M354.92,189.73l-15.45-3.53C341.68,189.55,354.56,189.73,354.92,189.73Z"/><path class="cls-35" d="M316.7,142.68l17-9.53S319.26,137.3,316.7,142.68Z"/><polygon class="cls-35" points="362.92 182.25 363.04 180.61 353.15 180.61 362.92 182.25"/><polygon class="cls-35" points="361.98 193.31 362.8 191.9 352.33 192.96 361.98 193.31"/><path class="cls-35" d="M346.55,201.45c-2.77-1.4-4.81-2.6-4.81-2.6C342.58,199.89,344.38,200.75,346.55,201.45Z"/><path class="cls-35" d="M359,205.79l1-1.77a80.48,80.48,0,0,1-13.54-2.57C350.55,203.48,356,205.93,359,205.79Z"/><path class="cls-35" d="M329.73,192.37l9.65,4-.7-1.29C338.32,194.85,329.73,192.37,329.73,192.37Z"/><path class="cls-6" d="M294.43,159.07c2.12,2.47,7.77,25.77,10.95,6,2.33-14.55,27.25-25.47,40.23-30.22-1.24-2-2.49-3.85-3.72-5.67C318.2,132.85,292.48,156.79,294.43,159.07Z"/><path class="cls-23" d="M305,158.17l4,1.15s-4.2-33.13-8.77-34.5a23.54,23.54,0,0,0-1-2.34c-10.17-20.32-41.46-46.84-41.46-46.84L132.68,121s-9.92,24.79-3,48.09c.87,2.92,2,6.07,3.28,9.37l-.32.07-.5,18.84,2.15-4.63L136,204.93l2.65-5.28,2.47,8.26.83-2.65,5.75,4.44C154,221.83,159.45,231,159.45,231c56,8.92,142.66-9.15,142.66-9.15s.18-2,.45-5.5a23.16,23.16,0,0,0,2.95,0c0-.59-1.54-12.72-1.9-15.59l0-.57,5,1.78-4.13-20.16,7.27,3Z"/><path class="cls-11" d="M160.13,180.64l-28.43-7.59c.6,1.74,1.27,3.53,2,5.37l-.33.07-.49,18.84L135,192.7l1.65,12.23,2.64-5.28,2.48,8.26.83-2.65,5.75,4.44c6.36,12.13,11.79,21.33,11.79,21.33,15.41,2.45,33.14,2.86,50.74,2.17C189,209.31,161.1,180.64,160.13,180.64Z"/><path class="cls-11" d="M275.05,179.49c8.56-9,21-44.23,25.12-56.49-.08-.18-.17-.35-.25-.52-.48-1-1-1.92-1.56-2.9l-102.13,26c-8.68,0-20.33,6.19-28.51,9.91s-3,20.82-3,20.82l12.39,14.63,1-6.2L190,198.09l-24.29,13.38s-10,1.83-15.11,2.49c3.07,5.73,5.76,10.52,7.5,13.55,51.49,11.53,99.07-27.69,99.07-27.69s30.33,15.38,44.57,22.27l1-.21s.09-.95.23-2.66c-11-10.85-33.44-32.29-33.44-32.29S264.64,190.4,275.05,179.49Z"/><path class="cls-36" d="M305.72,158.17l4,1.15s-4.2-33.13-8.77-34.5a21.37,21.37,0,0,0-1-2.34l-.33-.64-10.91,5.85c0,1.24,12.65,27.51,12.65,27.51l-7.94-2L304.05,174l-7.43-3.22,6.69,7.19-12.15-4.71s11.16,14.87,12.15,22.31l-4.46-3.72L299.1,213l-5.57,10.7c5.88-1.07,9.28-1.78,9.28-1.78s.19-2,.46-5.5a23.16,23.16,0,0,0,3,0c0-.59-1.54-12.72-1.9-15.59l0-.57,5,1.78-4.13-20.16,7.27,3Z"/><path class="cls-3" d="M302.42,99.08a3.75,3.75,0,0,0-4.61,2.7,222.62,222.62,0,0,1-17.12,41.6c-10.86,20.39-29.69,47.71-57.77,62.12-22.11,11.36-42.33,13.31-60.09,5.8a53.06,53.06,0,0,1-20.29-14.8,3.67,3.67,0,0,0-5.25-.71,3.94,3.94,0,0,0-.71,5.4c.32.43,8,10.63,23,17.08a63.78,63.78,0,0,0,22.6,5.11c1.84.07,3.7.08,5.58,0,12.27-.47,25.22-4.17,38.51-11s25.62-16.77,36.82-29.63a191.37,191.37,0,0,0,24.27-35.87A225.63,225.63,0,0,0,305,103.81,3.87,3.87,0,0,0,302.42,99.08Z"/><path class="cls-4" d="M142.54,196.5a3.75,3.75,0,0,0-1.56-1.22,47.35,47.35,0,0,0,5.88,5.77A40.15,40.15,0,0,1,142.54,196.5Z"/><path class="cls-4" d="M302.73,99.18a3.92,3.92,0,0,1,.35,2.92,224.61,224.61,0,0,1-17.68,43.1,191.64,191.64,0,0,1-24.28,35.86c-11.19,12.87-23.58,22.84-36.81,29.63s-26.25,10.52-38.51,11c-1.88.07-3.74.07-5.58,0A63.33,63.33,0,0,1,142,206.94a63.28,63.28,0,0,0,40.18,16.44c1.84.07,3.7.08,5.58,0,12.27-.47,25.22-4.17,38.51-11s25.62-16.77,36.82-29.63a191.37,191.37,0,0,0,24.27-35.87A225.63,225.63,0,0,0,305,103.81,3.88,3.88,0,0,0,302.73,99.18Z"/><path class="cls-5" d="M290.18,123.24a43.89,43.89,0,0,1,1.21,15.7c.61-1.25,1.19-2.49,1.75-3.7a44.83,44.83,0,0,0-2-14.29Z"/><path class="cls-5" d="M286.24,132.22a89.18,89.18,0,0,1,.08,16.6c.35-.64.69-1.27,1-1.92l.71-1.33a72.25,72.25,0,0,0-.66-15.9C287,130.51,286.64,131.36,286.24,132.22Z"/><path class="cls-5" d="M245.93,199.45c.81-.65,1.61-1.32,2.41-2a41,41,0,0,0,2.8-13L249.55,186A47.72,47.72,0,0,1,245.93,199.45Z"/><path class="cls-5" d="M283.08,138.75a118.27,118.27,0,0,1-1.14,17.76c.67-1.12,1.33-2.26,2-3.4.44-4,.63-7.73.68-11,0-2.3,0-4.47,0-6.42C284.09,136.72,283.6,137.73,283.08,138.75Z"/><path class="cls-5" d="M274.3,154.53a98.58,98.58,0,0,1,.47,13.13c.53-.77,1.06-1.54,1.58-2.32a85.78,85.78,0,0,0-.79-12.88Q274.94,153.5,274.3,154.53Z"/><path class="cls-5" d="M298,101.33a4,4,0,0,0-.15.45s-.19.68-.53,1.8a62.69,62.69,0,0,1,4,11.79c.33-.93.64-1.82.92-2.65a63.8,63.8,0,0,0-3-8.52C298.82,103.18,298.39,102.23,298,101.33Z"/><path class="cls-5" d="M295.47,109.22c-.24.7-.49,1.46-.77,2.25,1.19,3.6,1.8,9.08,1.81,16.16.52-1.22,1-2.41,1.47-3.56a66.37,66.37,0,0,0-.75-8.59A24.7,24.7,0,0,0,295.47,109.22Z"/><path class="cls-5" d="M221.07,206.43a49.61,49.61,0,0,1-7.86,11.7q1.53-.56,3.06-1.17a54.5,54.5,0,0,0,7-11.66l-.4.2C222.3,205.82,221.69,206.13,221.07,206.43Z"/><path class="cls-5" d="M136.41,196.78a3.92,3.92,0,0,0-.59,2l6.11-3A3.74,3.74,0,0,0,140,195Z"/><path class="cls-5" d="M185.89,223.43l1.86,0,.76,0q1.85-1.53,3.68-3.36c1.72-1.72,3.33-3.52,4.83-5.32l-2.39.39A58.67,58.67,0,0,1,185.89,223.43Z"/><path class="cls-5" d="M138.07,203c.31.36.68.76,1.1,1.2l7.15-3.63c-.43-.41-.82-.79-1.18-1.16Z"/><path class="cls-5" d="M254.71,191.62c.89-.86,1.78-1.75,2.65-2.65a135.74,135.74,0,0,0,4.69-16.89c-.71.9-1.44,1.8-2.18,2.69A116.62,116.62,0,0,1,254.71,191.62Z"/><path class="cls-5" d="M224.93,213.07l1.33-.67,1.18-.62a25.31,25.31,0,0,0,2.89-10.5l-1.61,1A25.53,25.53,0,0,1,224.93,213.07Z"/><path class="cls-5" d="M235.9,206.79c.9-.59,1.79-1.19,2.68-1.8l.75-1.62a90,90,0,0,0,4.25-11.9c-.71.61-1.43,1.21-2.15,1.8A75.58,75.58,0,0,1,235.9,206.79Z"/><path class="cls-5" d="M198.94,222.1c.88-.17,1.77-.35,2.66-.55a37,37,0,0,0,6.48-9.74l-2,.64A37.8,37.8,0,0,1,198.94,222.1Z"/><path class="cls-37" d="M145.59,212l12.56,18.84C261.6,206.09,297,106.94,297,106.94L281.1,86.11C256.64,182,145.59,212,145.59,212Z"/><path class="cls-30" d="M145.59,212l12.56,18.84a185.91,185.91,0,0,0,43.27-16.22c-.08-.3-.14-.47-.14-.47L176,221.13l21.32-11.4-25.78,8.42,23.79-13.71L168.56,213s25-11.73,25.12-12.56-27.9,8.74-27.9,8.74c82.14-30.48,110-90.49,118.73-118.63l-3.41-4.47C256.64,182,145.59,212,145.59,212Z"/><path class="cls-37" d="M115.18,131.39s-5.28,43.3,24.46,57.51,50.24-21.15,50.24-21.15l-13.88-44Z"/><path class="cls-27" d="M108.24,121.48S103,164.78,132.7,179s50.24-21.15,50.24-21.15l-13.88-44Z"/><path class="cls-26" d="M129.48,182.69c22.77-8.47,44-40.24,44-40.24L113.07,98.5C63.82,125,106.71,191.17,129.48,182.69Z"/><path class="cls-26" d="M107.24,119.68c-15.89.53-39.18,19.59-39.71,29.65a69.54,69.54,0,0,0,2.11,19.6l-8.47,16.94c-11.12,29.65,18,107,66.12,68.31s14.9-99,14.9-99Z"/><path class="cls-25" d="M130,160.6s12.84,87.31-44.12,99.4c11.09,7.06,25.15,7.21,41.37-5.82,30.66-24.63,28.29-58.08,22.54-79.1C145.31,167.9,139,162.5,130,160.6Z"/><path class="cls-27" d="M61.67,184.87l-.5,1a40.19,40.19,0,0,0-2.24,11.46c27.59-3.54,77.29-2,94.33-1.36A93.19,93.19,0,0,0,152.05,185C122.83,181.11,85.25,183,61.67,184.87Z"/><path class="cls-25" d="M136.37,146.93c-7.47,9.12-21.8,26.12-38.5,33.83l-.67.67c43.78-5.65,42.37-31.07,42.37-31.07Z"/><path class="cls-27" d="M70.73,214.38l2.6-.71-.16-5.56Z"/><path class="cls-27" d="M73.33,213.67l.22,7.3s52.05-20.95,50-20.71C121.84,200.46,83.73,210.83,73.33,213.67Z"/><polygon class="cls-27" points="73.17 208.11 78.09 195.44 72.85 197.43 73.17 208.11"/><path class="cls-27" d="M119.21,176l-36.95,8.7-4.17,10.72,38.77-14.72,2.59,6.59s17-6.43,20.06-7.21c-2.92.38-19.12,2-19.12,2Z"/><path class="cls-27" d="M139.51,180.1c.38,0,.55-.08.41-.08A2.26,2.26,0,0,0,139.51,180.1Z"/><path class="cls-27" d="M101.79,145.42c8.34,3.4,19.86,1.64,29.77-1l-21.39-21.72-6.93-2.49C87.72,123.25,68,140.09,67.53,149.33a69.54,69.54,0,0,0,2.11,19.6l-8.47,16.94c-11.12,29.65,18,107,66.12,68.31.83-.67,1.63-1.34,2.42-2-10.05-16.49-25.09-35.43-25.09-35.43l-6.36,30.72S81.67,227,81.67,211.79s19.42-53.66,19.42-53.66l-18,8.12-3.53-8.12c-3.53-8.12,5-19.77,5-19.77Z"/><path class="cls-28" d="M109.34,121.81l-2.1-2.13c-15.89.53-39.18,19.59-39.71,29.65a69.54,69.54,0,0,0,2.11,19.6l-8.47,16.94C52.59,208.75,68,260,97.54,264.46c-25.53-10-38.21-55.7-30.25-76.94l8.47-17A69.5,69.5,0,0,1,73.65,151C74.13,141.74,93.83,124.91,109.34,121.81Z"/><path class="cls-38" d="M262.66,89.52l-116.75,16.6s-10.66,3.72-11.4,18.59,28.75,36.19,28.75,36.19l.5-8.92c4.46,16.61,32.72,21.81,32.72,21.81L192,160.66s.75,1,9.42,10.41,37.18,11.4,37.18,11.4a52.58,52.58,0,0,0,31-28l3,10.16c12.15-12.39,6.2-35.44,6.2-35.44l8.18,4C289.43,112.32,262.66,89.52,262.66,89.52Z"/><path class="cls-39" d="M193.4,99.37l-47.49,6.75s-10.66,3.72-11.4,18.59c-.54,10.74,14.67,24.82,23.18,31.83,2-.27,3.93-.58,5.86-.9l.21-3.66a17.55,17.55,0,0,0,1.31,3.41c10.28-1.77,19.21-3.86,19.21-3.86a23.73,23.73,0,0,0,7.89,9.58l-.16-.45.69.8a18.14,18.14,0,0,0,11.06,2.8c14-.82,9.62-14.83,9.62-14.83S211.73,116.63,193.4,99.37Z"/><path class="cls-38" d="M257,163.7c-14-4.13-28.75-18.18-30.57-23.13s-16.85-20.66-16.85-20.66l-6.62,7.44.83,23s8.1,25.45,29.91,33.21,22.81,13.06,22.81,13.06,7.1,1.16,7.76-2.65l-2.8-5.78,4.79,4.3,7.1-3-3.14-5.62,6.28,4.47,7.11-6.45S271,167.83,257,163.7Z"/><path class="cls-40" d="M257,163.7c-14-4.13-28.75-18.18-30.57-23.13-1-2.83-6.36-9.14-10.75-14,2.25,8.77,10.82,35.48,33.23,42.63,18.4,5.87,26.7,13,30.11,16.89l4.59-4.17S271,167.83,257,163.7Z"/><path class="cls-41" d="M258.38,196.09a5.7,5.7,0,0,1,2.31,7.11,3.16,3.16,0,0,0,2.89-2.65c.66-2.64-1.73-7.18-1.73-7.18Z"/><path class="cls-41" d="M267.72,190.06a5.71,5.71,0,0,1,2.31,7.11,3.16,3.16,0,0,0,2.89-2.65c.66-2.64-1.73-7.19-1.73-7.19Z"/><path class="cls-41" d="M278.13,185a5.7,5.7,0,0,1,2.31,7.11,3.16,3.16,0,0,0,2.89-2.65c.66-2.64-1.73-7.19-1.73-7.19Z"/><path class="cls-42" d="M271.19,79c-2.65-5.79-15.7-8.43-15.7-8.43l6.94-.5c-10.25-2.8-13.39-.82-13.39-.82l3.47-4.3s-8.76,6-9.67,5.62l-15.28,37s11.24,10.74,20.82,11.4,16.53-10.74,16.53-10.74l-1.33,4c7.44-5.28,5.62-14,5.62-14l1.66,3c1.48-4.62-1.82-14.87-1.82-14.87l4,3.3c.5-4-6.61-12.22-6.61-12.22Z"/><path class="cls-42" d="M263.75,85.7c-2.64-5.78-15.7-8.43-15.7-8.43l6.94-.49C244.75,74,241.61,76,241.61,76l3.47-4.3s-8.76,5.95-9.67,5.62l-15.29,37s11.24,10.74,20.82,11.4S257.47,115,257.47,115l-1.32,4c7.43-5.29,5.62-14,5.62-14l1.65,3C264.91,103.22,261.6,93,261.6,93l4,3.31c.49-4-6.61-12.23-6.61-12.23Z"/><path class="cls-38" d="M263.25,87.52c-2.64-5.79-15.7-8.43-15.7-8.43l6.95-.5c-10.25-2.8-13.39-.82-13.39-.82l3.47-4.3s-1.9,1.29-4,2.63l-13,31.5s11.24,10.74,20.82,11.4c5.18.36,9.59-2.81,12.55-5.8a15.4,15.4,0,0,0,.34-6.51l1.65,3c1.49-4.62-1.81-14.87-1.81-14.87l4,3.31c.5-4-6.61-12.23-6.61-12.23Z"/><polygon class="cls-42" points="176.49 73.06 179.97 75.21 170.05 75.21 174.02 76.69 159.47 75.21 169.39 78.02 162.78 78.51 164.76 96.03 179.63 119 201.94 117.84 205.58 117.51 211.36 106.77 191.04 73.06 176.49 73.06"/><path class="cls-43" d="M192.8,18.75l4.52-3.25-4-1.55C193,13.84,192.8,18.75,192.8,18.75Z"/><path class="cls-13" d="M193.5,17.53c.73,1.08,2.73.21,2.73.21l1.14-2.93-3.14.85S192.77,16.46,193.5,17.53Z"/><path class="cls-29" d="M214.34,11.91c-19.5-.16-34.87,10.58-33.55,30.74l59.49-11.24S233.84,12.08,214.34,11.91Z"/><path class="cls-29" d="M214.34,11.91c-19.5-.16-34.87,10.58-33.55,30.74l59.49-11.24S233.84,12.08,214.34,11.91Z"/><path class="cls-44" d="M180.79,42.65l11.52-2.17c-.66-15.44,8.63-25.2,22-28.57C194.82,11.76,179.47,22.5,180.79,42.65Z"/><path class="cls-13" d="M209.52,13A39.14,39.14,0,0,0,194,15.88a1.2,1.2,0,0,0-.34.75h.52c16.69.15,23.31,15.77,24.46,18.87l15.58-3.08S228.05,13.18,209.52,13Z"/><path class="cls-20" d="M246.07,57.86l-16.86,3.8s1.82,30.4,9.59,28.92,7.43-19.17,7.43-19.17L249,73.89,245.9,65l3.47,2.32Z"/><path class="cls-20" d="M199.69,54.16,191,59.67s-6.72,13.66-5.51,21.16l4-3.53a9.29,9.29,0,0,0,.66,10.58l2-4.08s1.88,8,8.16,8.59,15.42-5.83,16.41-10.13,6.94-15.32,5-17.3S205.3,53.06,199.69,54.16Z"/><path class="cls-20" d="M241.85,35.3,226.4,36s2.32,5.87,2.4,6.45,5.86,13.38,13.47,16.61c7,3,3.07.68,2.4.3a.11.11,0,0,1-.09-.06l.09.06c.25,0,1.08-.5,3.46-5.59,3.06-6.53-1.65-11.74-1.65-11.74s3.06.5,3.39.66S242.18,35.3,241.85,35.3Z"/><path class="cls-20" d="M244.67,59.4l-.09-.06A.11.11,0,0,0,244.67,59.4Z"/><path class="cls-20" d="M202,42.32c-1.33-1.32-7.44.25-11,.83A11.56,11.56,0,0,0,182.28,51c-1.49,4.46-2.32,7.27-2.32,7.27L183,55.79c.66,3.88-1.49,7.93-1.49,7.93a5.47,5.47,0,0,0,3.72-2.89c1,3.88,5.29,4.63,5.29,4.63s-.49-10.74,5-8.84,5,8.84,5,8.84c1.49-1.82.74-7.36.74-7.36l1.82-9.5,2.73-2.81s-1-.91-1.41-1.32S203.35,43.64,202,42.32Z"/><path class="cls-25" d="M249.26,50.53s-4.4-12.89-7.6-13.88-31.18,4.07-37.24,9.14S201,59,201,59c18.18-.33,8.26,18.95,8.26,18.95l29.42,8.15,1.1-5.72s5-2.43,2.75-10.58,7.38-10.14,7.38-10.14l-3.74-8.15Z"/><path class="cls-26" d="M204.42,45.79C198.36,50.86,201,59,201,59a20.42,20.42,0,0,1,3.76.26c-1.47-5.74,1.15-11.72,3.65-15.71A16.83,16.83,0,0,0,204.42,45.79Z"/><path class="cls-26" d="M241.66,36.65c-3.19-1-31.18,4.07-37.24,9.14A11.09,11.09,0,0,0,202,48.57c13.54-4.54,31.36-7.78,42.09-9.44A5.82,5.82,0,0,0,241.66,36.65Z"/><path class="cls-26" d="M247.39,50.75c-1.16-.08-5-.25-5.45-.17a13,13,0,0,0-2.15,1.93l-.5.47,2.15,2a31.39,31.39,0,0,0,3.39.25c.72,0,1.6-.78,2.31-1.58l-1-2.11,1.82-.58A1.26,1.26,0,0,0,247.39,50.75Z"/><path class="cls-45" d="M246.42,51.44l-.21-.76-1.5-.06c-.69.12-1.4.24-1.51.24s-1.48.4-2.48.71c-.49.47-.93.94-.93.94l-.09.09,0,.35c.22-.05,2.87,2.21,4.63,1.55a4.44,4.44,0,0,0,2.33-1.86l-.51-1.12Z"/><path class="cls-26" d="M214.75,46.37l1.74.5,1-6.32-1.28.35Z"/><polygon class="cls-26" points="215.77 59.78 218.25 63.97 217.75 59.62 215.77 59.78"/><path class="cls-3" d="M240.12,51v-.27C240.11,50.93,240.12,51,240.12,51Z"/><path class="cls-20" d="M252.4,47.83l-2.81.72,2.15-2.43c-4.35.5-5,3-5,3,0-1.44,2.26-3.8,2.26-3.8a5.63,5.63,0,0,0-5.07,4.4,9.46,9.46,0,0,1,1-3.47,17.1,17.1,0,0,0-2.64,1.05,3.67,3.67,0,0,0-2.16,3.48V51s0-.1,0-.27l-.1-2.87-.83,3.36L239,48.11l-2.1,3.47,3,1.65S251.19,50,251.36,50l1.92-.6-2.2-.17Z"/><path class="cls-3" d="M253.94,100.71c-1.87-13.88-16.08-16.63-16.08-16.63L217.15,79c-13.22,0-24.46,16.85-24.46,16.85l7.11-1.65c-11.57,5.29-7.11,20.33-7.11,20.33l2.48-3.47c-2.81,11.07,12.06,22.47,12.06,22.47l.17-5.29s3.47,9.92,9.42,9.92S227.89,143,227.89,143c12.23-1.48,18.67-12.72,18.67-12.72l-.82,5.45c14.37-8.43,5.45-19.33,5.45-19.33l4.41,2.86c2-8.15-3.86-19.17-3.86-19.17Z"/><path class="cls-20" d="M224.42,131.23A96.78,96.78,0,0,1,211.53,122l6.61-.67c-11.07-3.47-9.26-16.69-9.26-16.69l6,5.13c-3.14-10.08,4.8-27.11,4.8-27.11l-10.92-1.49c-9.23,4.53-16,14.71-16,14.71l7.11-1.65c-11.57,5.29-7.11,20.33-7.11,20.33l2.48-3.47c-2.81,11.07,12.06,22.47,12.06,22.47l.17-5.29s3.47,9.92,9.42,9.92S227.89,143,227.89,143h0C228.58,140.18,229,133.78,224.42,131.23Z"/><path class="cls-25" d="M239.35,91,234,93.83s0,4.4,1.76,6.5,4.63,3.63,7.71.33S239.35,91,239.35,91Z"/><path class="cls-25" d="M219.74,76.53c-1.33,0-10.69,9.25-10.69,15.2s11,13.44,15,12.34,2.43-10.57,2.43-10.57Z"/><path class="cls-26" d="M215.23,80.36c-2.94,3.23-6.18,7.87-6.18,11.37,0,4,4.86,8.58,9.28,10.93C214.4,96,215,83.9,215.23,80.36Z"/><path class="cls-3" d="M246.89,79.17a11.56,11.56,0,0,0-4-8.59l1.41-.08c-4.05-6.28-13.06-3.72-13.06-3.72l0,0c-2.33-3.33-8.17-7.29-22.11-.45l3.12.57c-.37-.06-4.81-.67-7.66,6.7-3,7.68-7.11,7.6-7.11,7.6s5.81,8.51,17.16,2.12L222.3,79l-1.93,2.65s-1.74,4.55-1.74,4.79,13.47,4.47,17.19,3.48,5.54-6.86,5.54-6.86c3.22,4.54,7.93,1.07,7.93,1.07S246.89,84.63,246.89,79.17Z"/><polygon class="cls-46" points="223.15 75.87 226.13 78.18 235.38 73.89 230.75 71.46 223.15 75.87"/><path class="cls-26" d="M236.65,88.76l-6.45-4,3.36-5.46a9.86,9.86,0,0,0,.39-2.47l4.3-4.08-2.7-.94s-.89,3-4.69,2.15a17.9,17.9,0,0,1-6.66-3.14s-10.63,4-12.89,17.41c0,0,7.55,5.51,12.89,6.11s14.87-.11,16.19-2.37S236.65,88.76,236.65,88.76Z"/><path class="cls-26" d="M236.56,73.35l-7.48,4.31s.93,9.64,1.21,11,3.94.5,4.09.42,11.24-.33,9.32-2.27S236.56,73.35,236.56,73.35Z"/><path class="cls-26" d="M246,86.11c-1.08-.75-11.46-.92-11.79-.92L235.51,93s6.13-.08,9.58-1.2S247.09,86.86,246,86.11Z"/><path class="cls-20" d="M209.05,66.37l3.12.57c-.37-.06-4.81-.67-7.66,6.7-3,7.68-7.11,7.6-7.11,7.6a7.59,7.59,0,0,0,.76.9c4.8-1,8.69-6.38,8.69-6.38l.66,3.85c1-6,8.59-11.89,8.59-11.89l1,2c1.4-5.22,8.31-5.26,12.24-4.84C226.2,62.35,220.23,60.89,209.05,66.37Z"/><path class="cls-26" d="M239.79,52.51c-3.75-2.86-6.94-2.31-6.94-2.31s6.36,1.87,8.18,6.66,1.15,6.28,1.15,6.28-7.52-1.81-12.64-.16l1.62,3.84s7.09,1.89,12.7-1.86C243.86,65,243.53,55.38,239.79,52.51Z"/><path class="cls-47" d="M232,64.14l.17,1.11,5-.37C235.2,62.94,232,64.14,232,64.14Z"/><path class="cls-47" d="M234.81,67.29a17.92,17.92,0,0,0,4.85-.5C238.48,66.49,235.82,66,234.81,67.29Z"/><path class="cls-26" d="M208.88,58.19s5.87,2.72,9.26,1.9,7.19-4.3,7.19-4.3C218,60.67,208.88,58.19,208.88,58.19Z"/><path class="cls-20" d="M231,47.86l-.5-2.56-1,2.56-.41-3.06-.41,2.81c-.25-3.22-7.28-4.71-7.28-4.71l1.78,3,.37.64-.37-.64c-2.41-3.08-11.61-2.42-11.61-2.42l4.89,2.34.81.39-.81-.39c-5.33-2.25-12.66,1-12.66,1l5.62.75s4.88.08-.33.08-7.93,2.07-7.93,2.07l5.62.41-3.31.58,3.39.58s7.52-3.39,9.67-3.39,14.05,2.72,14.05,2.72c1.48-.82,1.73-5.45,1.48-5.45Z"/><path class="cls-3" d="M216.5,45.82a6,6,0,0,1,.81.39Z"/><path class="cls-3" d="M223.22,45.9a2.73,2.73,0,0,1,.37.64Z"/><path class="cls-35" d="M203.84,46.78l5.62.75s4.88.08-.33.08a15.12,15.12,0,0,0-7.23,1.64l-.23.46,5.15.38-3.31.58,3.39.58s7.52-3.39,9.67-3.39a45.39,45.39,0,0,1,5.77.94c-3-2.77-9.68-3.32-14.2-3.34A25.15,25.15,0,0,0,203.84,46.78Z"/><path class="cls-26" d="M236.56,48.52l4.63-5.29S237.06,45.21,236.56,48.52Z"/><path class="cls-26" d="M223,39.2a29.68,29.68,0,0,1,9.45,5.93l-6.66-6.53Q224.38,38.89,223,39.2Z"/><path class="cls-26" d="M238.8,41.83l2.28-5.28c-.28,0-.63,0-1,0Z"/><path class="cls-26" d="M233.88,37.15l-1.07.16,2,3.77L232.1,41l3.64,8.43-1.9-7.27,2.39-.17Z"/><path class="cls-26" d="M242.64,59l.25,1.61c3.63,1.65,4.87-2.6,4.87-2.6C246.19,60.25,242.64,59,242.64,59Z"/><circle class="cls-48" cx="245.25" cy="53.01" r="0.48"/><path class="cls-26" d="M219.43,48.81c-5.45-1-7,.39-7,.39l3.57,0A5.49,5.49,0,0,0,211.92,52a9.33,9.33,0,0,1,5.76-2.54c3.18,0,7.3,3.39,7.3,3.39C223.5,49.51,219.43,48.81,219.43,48.81Z"/><path class="cls-26" d="M211.88,52.71a9.68,9.68,0,0,0,5.91,2.69,13.92,13.92,0,0,0,7.51-1.73,37.44,37.44,0,0,0-7.17-3.16C215.16,49.75,211.88,52.71,211.88,52.71Z"/><path class="cls-45" d="M212.92,52.77A6.93,6.93,0,0,0,217.33,55a19.58,19.58,0,0,0,6.56-1.14,12.37,12.37,0,0,0-5.21-2.57A7.14,7.14,0,0,0,212.92,52.77Z"/><path class="cls-48" d="M222.45,53.11a.48.48,0,1,0,.38.55A.47.47,0,0,0,222.45,53.11Z"/><path class="cls-25" d="M193,53.72c-5.17-.33-4,11.79-2,15.21s5.51,3.08,7.49.77,1.88-7.49,1.88-7.49S198.14,54.05,193,53.72Z"/><path class="cls-26" d="M192.06,56.12a2.68,2.68,0,0,0-2.51,1.29c-.76,3.77.18,9.37,1.43,11.52,2,3.41,5.51,3.08,7.49.77A5,5,0,0,0,199,69a20.11,20.11,0,0,0,.48-4.41S197.23,56.45,192.06,56.12Z"/><path class="cls-49" d="M180,39.68l.67,15c20.82-13.39,66.76-15.54,66.76-15.54L241.44,29.1C218.3,24,180,39.68,180,39.68Z"/><path class="cls-49" d="M180,39.68l.67,15c20.82-13.39,66.76-15.54,66.76-15.54L241.44,29.1C218.3,24,180,39.68,180,39.68Z"/><path class="cls-13" d="M181.2,53.64l-.62-14.21-.62.25.67,15c20.82-13.39,66.76-15.54,66.76-15.54l-.6-1C239.5,38.61,200.06,41.52,181.2,53.64Z"/><path class="cls-49" d="M211.5,12a38.21,38.21,0,0,0-17.27,3.64l1.89,0c16.68.15,23.3,15.77,24.46,18.87l15.57-3.08S230,12.19,211.5,12Z"/><path class="cls-33" d="M211.17,12.44a38.55,38.55,0,0,0-16.38,3.21h1.13a39.55,39.55,0,0,1,14.67-2.5c12.77.11,19.65,9.29,22.69,15l1,0C231.42,22.57,224.51,12.56,211.17,12.44Z"/><path class="cls-33" d="M232.17,40.52c1.1-.13,2.16-.25,3.18-.35l-1.59-10.08A74.1,74.1,0,0,1,232.17,40.52Z"/><path class="cls-33" d="M236,28.29c1.06,2.83,2.71,8.41.61,11.47l-.2.29c6.61-.67,10.94-.87,10.94-.87L241.44,29.1A41.48,41.48,0,0,0,236,28.29Z"/><path class="cls-13" d="M201.08,13.65l-1,2.34c.54.09,1.06.2,1.57.32l6-2.66s-2.15-1-2.69-1.2Z"/><path class="cls-13" d="M180,39.68l.67,15c6.7-4.32,16-7.46,25.57-9.75a125.44,125.44,0,0,1-2.53-12.92A198.48,198.48,0,0,0,180,39.68Z"/><path class="cls-13" d="M205.69,31.55l3.8,12.67c1.38-.3,2.76-.59,4.14-.85l-3.22-12.89C208.81,30.82,207.23,31.17,205.69,31.55Z"/><path class="cls-13" d="M216,42.92l2.53-.44c-2.85-5.32-6-11.14-6.14-11.23S214.44,38.19,216,42.92Z"/><path class="cls-49" d="M192.29,20.48c-2.88-.49-5.77,2.35-6.45,6.35s1.09,7.64,4,8.13,5.77-2.35,6.45-6.35S195.17,21,192.29,20.48Z"/><path class="cls-13" d="M191,30.58c-2.53-.44-4.21-3.3-4.11-6.7a9.51,9.51,0,0,0-1,2.95c-.69,4,1.09,7.64,4,8.13s5.77-2.35,6.45-6.35a10,10,0,0,0,.14-1.43C195.15,29.52,193.05,30.93,191,30.58Z"/><path class="cls-1" d="M189.3,21.69s-59.5,7.75-80.5,19.25-16,27.25-16,27.25,8.75-13,21-19.25,76.25-15.5,76.25-15.5S198.55,25.44,189.3,21.69Z"/><path class="cls-2" d="M167.43,28.69s-5,.75-35,8.75S92.18,66.69,92.8,68.19c0,0,8.75-13,21-19.25s76.25-15.5,76.25-15.5A15.18,15.18,0,0,0,192.67,30l-37.74,2.95Z"/><path class="cls-13" d="M225.62,21.25l-3-1.16-3.22,5.79,9.67-.33s-2.4-3.06-2.4-3.27Z"/><path class="cls-43" d="M229.05,25.55l1.24-7.27-7.69,1.81S221.36,26.21,229.05,25.55Z"/><path class="cls-13" d="M217.64,15.67l-1-1-3-1.16-3.22,5.79,9.5-1.32A23.09,23.09,0,0,1,217.64,15.67Z"/><path class="cls-43" d="M213.59,13.48S212.35,18.61,220,18l-.25-7.11Z"/><path class="cls-43" d="M201.08,13.65s2.19,2.4,6.77,0c.15-.08-3.22-5-3.22-5Z"/><path class="cls-33" d="M228.33,25.59l.72,0,1.24-7.27h0C228.54,20.39,226.83,23.36,228.33,25.59Z"/><path class="cls-33" d="M219.66,10.9c-1.28,2.16-2.65,5.33-.86,6.91L219,18c.32,0,.65,0,1-.05l-.25-7.11Z"/><path class="cls-33" d="M205.18,14.59a9.58,9.58,0,0,0,2.67-1c.14-.07-2.8-4.35-3.18-4.9C204.1,10.24,203.25,13.38,205.18,14.59Z"/><path class="cls-13" d="M181.2,53.64l-.62-14.21-.62.25.67,15c20.82-13.39,66.76-15.54,66.76-15.54l-.6-1C239.5,38.61,200.06,41.52,181.2,53.64Z"/><polygon class="cls-13" points="219.35 40.5 220.23 38.74 217.75 38.74 219.35 40.5"/><polygon class="cls-13" points="216.53 36.62 217.97 38.31 219.13 37.9 219.01 36.83 216.53 36.62"/><polygon class="cls-13" points="219.34 41.37 222.13 40.99 221.07 38.69 219.34 41.37"/><polygon class="cls-13" points="226.36 40.38 225.16 40.55 221.98 31.25 223.43 36.83 222.27 36.66 219.75 31.79 221.9 37.32 223.06 37.41 224.24 40.7 226.72 40.36 226.4 38.15 226.36 40.38"/><polygon class="cls-13" points="222.13 40.99 222.23 41.21 222.2 40.98 222.13 40.99"/><path class="cls-13" d="M221.9,38.27l.3,2.71,1.45-.2c-.11-.57-.59-2.76-.59-2.76Z"/><polygon class="cls-13" points="227.56 36.7 226.36 32.49 227.06 36.95 228.05 37.16 228.51 39.84 227.06 40.32 229 40.05 228.51 36.5 227.56 36.7"/><path class="cls-13" d="M223.65,40.78a.7.7,0,0,1,0,.14c0,.12.57-.17.57-.17v0Z"/><polygon class="cls-13" points="226.73 40.42 227.06 40.32 226.72 40.36 226.73 40.42"/><path class="cls-13" d="M211.94,36.91c-1-4-2.11-3.59-2.11-3.59s-2-1.29-1.28,1A13.22,13.22,0,0,1,209,39l-2.85-1.08.33,2.48,1.44.54-2.06.33-1.24,3.14,3.18.21,6.94-2.11-.87-3.47S213,40.92,211.94,36.91Z"/><polygon class="cls-13" points="226.94 30.96 227.85 34.68 227.81 32.94 226.94 30.96"/><path class="cls-13" d="M218.35,33.32l1.36,1.85S218,31,217.93,30.75Z"/><path class="cls-13" d="M230.7,37.65l.45-2.76-.91-2.11C230.2,32.94,230.7,37.65,230.7,37.65Z"/><path class="cls-33" d="M235.33,30.51c0,.37,2.14,8.05,2.14,8.05s-1.77-4.5-1.77-4S237,38.93,237,38.93l1.86-.2-1.08-1.45S235.33,30.13,235.33,30.51Z"/><path class="cls-13" d="M211.31,22.63l-.11,0,2,2,.51-.22-.07-.33Z"/><path class="cls-13" d="M205.58,18.86s5.78-2.26,5.62-2.26S205.3,18,205.3,18s5-1.87,4.58-1.92-6.17,1.59-6.17,1.59l7.6,5c.74-.2,5.32-1.41,5.07-1.41s-5,.5-5,.5Z"/><path class="cls-13" d="M213.69,24.47l.15.78s8.6-4.14,7.66-4C220.71,21.32,215.37,23.71,213.69,24.47Z"/><path class="cls-49" d="M164.39,68s-35.53,10.45-48.93,1.41c0,0-27.79,20.6-34.41,45.1,0,0,27.25,21.81,38,26.15s52-1.94,52-1.94,4.74,15.72,20.14,16.08,11.95-15.75,11.95-15.75S205.31,77.54,164.39,68Z"/><path class="cls-49" d="M164.39,68s-35.53,10.45-48.93,1.41c0,0-27.79,20.6-34.41,45.1,0,0,27.25,21.81,38,26.15s52-1.94,52-1.94,4.74,15.72,20.14,16.08,11.95-15.75,11.95-15.75S205.31,77.54,164.39,68Z"/><path class="cls-13" d="M165.36,139.53l1.4-.18-1.66-6.17A45.4,45.4,0,0,1,165.36,139.53Z"/><path class="cls-13" d="M121.13,141.31a44.43,44.43,0,0,0,8.08.85l-2.7-20.75Z"/><path class="cls-13" d="M110.75,136.15a57.51,57.51,0,0,0,8.31,4.53,9.55,9.55,0,0,0,1,.33l4.61-26.42-4-4.94Z"/><path class="cls-13" d="M155,140.76l2.85-.32L154,123.3Z"/><path class="cls-13" d="M81.05,114.53s13,10.39,24.57,18.26c4.26-11.55,10.25-27.68,11-29L92,93.11C87.3,99.52,83.13,106.83,81.05,114.53Z"/><path class="cls-50" d="M191.9,135.13c-4.88-.41-9.14,2.75-9.51,7.08s3.31,8.15,8.19,8.57,9.14-2.76,9.51-7.08S196.79,135.54,191.9,135.13Z"/><path class="cls-42" d="M159.11,69.4c-10.4,2.5-33.45,6.92-43.65,0,0,0-17.72,13.14-28.23,30.9,10.14,7.85,28.31,21.84,36.05,27.22,11,7.65,64.08-2.81,64.08-2.81C187.85,100.8,170,79.86,159.11,69.4Z"/><path class="cls-51" d="M121.85,69.42a5.23,5.23,0,1,0,5.42,5.23A5.32,5.32,0,0,0,121.85,69.42Z"/><path class="cls-49" d="M125.05,70.44a5.49,5.49,0,0,0-3.2-1,5.23,5.23,0,1,0,0,10.45,5.49,5.49,0,0,0,1.58-.23,5.16,5.16,0,0,1-2.22-4.21A5.25,5.25,0,0,1,125.05,70.44Z"/><path class="cls-29" d="M154.51,70.43c-3.41.72-7.44,1.44-11.66,2-10,1.63-22.26,2.49-29.94-1-5.28,4.33-17.61,15.25-25.68,28.89,10.14,7.85,28.31,21.84,36.05,27.22,6.46,4.48,27.33,2.75,43.52.54,9-1.35,15.62-2.65,15.62-2.65C182.91,101.75,165.39,81,154.51,70.43Z"/><path class="cls-38" d="M248.71,140.48c-1.82,5-16.52,19-30.57,23.14s-26.61,18.18-26.61,18.18l7.11,6.44,6.28-4.46-3.14,5.62,7.1,3,4.8-4.29-2.81,5.78c.66,3.8,7.76,2.65,7.76,2.65s1-5.29,22.81-13.06,29.91-33.22,29.91-33.22l.83-23-6.61-7.43S250.53,135.53,248.71,140.48Z"/><path class="cls-40" d="M262.66,89.52l-3.47.74s24.8,21.13,24.45,41.28l3.31,1.6C289.43,112.32,262.66,89.52,262.66,89.52Z"/><path class="cls-40" d="M275.3,129.92s5,19.31-3.49,32.09l.76,2.61c9.62-9.81,7.89-26.3,6.76-32.75Z"/><path class="cls-40" d="M160,158.39c2,1.59,3.29,2.51,3.29,2.51l.11-1.92a18.49,18.49,0,0,1-3.08-6.26Z"/><path class="cls-40" d="M188.54,161.4l3.89,11.44c2.47.66,4,.95,4,.95l-1.95-5.71C189.08,162.11,188.54,161.4,188.54,161.4Z"/><path class="cls-40" d="M237.47,182.37l1.14.1a52.76,52.76,0,0,0,28.65-23.41l-1.13-3.86A52.62,52.62,0,0,1,237.47,182.37Z"/><path class="cls-39" d="M218.14,163.62c-14,4.13-26.61,18.18-26.61,18.18l4.59,4.16c3.41-3.91,11.71-11,30.12-16.89,22.41-7.15,31-33.85,33.22-42.63-4.39,4.91-9.71,11.22-10.75,14C246.89,145.44,232.19,159.49,218.14,163.62Z"/><path class="cls-41" d="M211.53,200.47a3.16,3.16,0,0,0,2.89,2.65,5.71,5.71,0,0,1,2.31-7.11l-3.47-2.73S210.87,197.83,211.53,200.47Z"/><path class="cls-41" d="M202.19,194.44a3.15,3.15,0,0,0,2.89,2.64,5.7,5.7,0,0,1,2.32-7.1l-3.47-2.73S201.53,191.8,202.19,194.44Z"/><path class="cls-41" d="M191.78,189.4a3.15,3.15,0,0,0,2.89,2.64,5.7,5.7,0,0,1,2.32-7.1l-3.47-2.73S191.12,186.76,191.78,189.4Z"/><path class="cls-29" d="M196.16,139c-11.72-3.57-9.92,6.94-9.92,6.94,43.3,21.48,119,77.34,119,77.34l1-9.26C288.7,194.19,196.16,139,196.16,139Z"/><path class="cls-37" d="M294.39,206.76c-12.28-12.06-90.52-58.5-105.93-67.6-3,2-2.22,6.78-2.22,6.78,19.27,9.56,44.94,25.92,67.51,41.14l48.32,28.36L192,144.05Z"/><path class="cls-49" d="M230.62,140.07a3.28,3.28,0,1,0,3.63,3.26A3.47,3.47,0,0,0,230.62,140.07Z"/><path class="cls-50" d="M230,142.67a3.14,3.14,0,0,1,1.34-2.53,4.77,4.77,0,0,0-.76-.07,3.28,3.28,0,1,0,0,6.53,3.84,3.84,0,0,0,2.29-.74A3.36,3.36,0,0,1,230,142.67Z"/><path class="cls-3" d="M233.89,143.18c-3.37,0-6.11,2.32-6.11,5.18s2.74,5.18,6.11,5.18,6.12-2.32,6.12-5.18S237.27,143.18,233.89,143.18Z"/><path class="cls-20" d="M235.44,144.84a6.75,6.75,0,0,1,.49,5.78s.61-4.41-2.53-5.73l-.11,5-1.21-5.12-1.16,5.67s-1.07-4.11-.14-6.55a5.09,5.09,0,0,0-3,4.46c0,2.86,2.74,5.18,6.11,5.18a6.64,6.64,0,0,0,4.57-1.73C238.58,149.88,238.38,146.33,235.44,144.84Z"/><path class="cls-49" d="M235.66,151.31a3.28,3.28,0,1,0,3.63,3.26A3.47,3.47,0,0,0,235.66,151.31Z"/><path class="cls-50" d="M233.67,154.41a3.31,3.31,0,0,1,2.42-3.08l-.43,0a3.28,3.28,0,1,0,0,6.53,4.15,4.15,0,0,0,1.22-.19A3.42,3.42,0,0,1,233.67,154.41Z"/><path class="cls-3" d="M236,154.74c-3.4.53-5.77,3.4-5.31,6.42s3.61,5,7,4.51,5.77-3.4,5.3-6.42S239.42,154.21,236,154.74Z"/><path class="cls-20" d="M237.84,156.24a7.52,7.52,0,0,1,1.45,6s-.11-4.75-3.49-5.65l.71,5.31-2.06-5.22-.23,6.17S232.47,158.7,233,156a5.45,5.45,0,0,0-2.3,5.17c.47,3,3.61,5,7,4.51a6.58,6.58,0,0,0,4.3-2.54C241.84,161.08,241.05,157.36,237.84,156.24Z"/><path class="cls-49" d="M238.22,163a3.28,3.28,0,1,0,3.63,3.26A3.47,3.47,0,0,0,238.22,163Z"/><path class="cls-50" d="M235.82,165.23a3,3,0,0,1,.56-1.74,3.21,3.21,0,0,0-1.8,2.81,3.47,3.47,0,0,0,3.64,3.27,3.75,3.75,0,0,0,3.07-1.52,4,4,0,0,1-1.83.44A3.47,3.47,0,0,1,235.82,165.23Z"/><path class="cls-3" d="M247.22,172.63c-.82-9.84-10.74-6-10.74-6s-10.9,3.64-7.85,15.37,18,8.43,18,8.43C241.52,187.91,248.05,182.46,247.22,172.63Z"/><path class="cls-20" d="M245.12,185a29.78,29.78,0,0,1-4.84-2.68c-3.05-2.14-1.32-10-1.32-10s-1.73,1.9-1.73,6.69,4,7.85,4,7.85a12.29,12.29,0,0,1-4.87-5.21c-2-3.8.08-11.4.08-11.4a14,14,0,0,0-2.64,8.26,11.44,11.44,0,0,0,4,8.68,8.34,8.34,0,0,1-5.12-7.52c-.18-4.25,2-10,3.1-12.77-2.36,1-9.73,5.18-7.15,15.08,3.06,11.74,18,8.43,18,8.43C244.3,189.25,244.4,187.49,245.12,185Z"/><path class="cls-13" d="M315.81,95.53a5.46,5.46,0,1,0,5.45,5.46A5.46,5.46,0,0,0,315.81,95.53Z"/><path class="cls-9" d="M298.45,77.52A5.46,5.46,0,1,0,303.91,83,5.45,5.45,0,0,0,298.45,77.52Z"/><path class="cls-13" d="M302.58,74.71A5.46,5.46,0,1,0,308,80.17,5.45,5.45,0,0,0,302.58,74.71Z"/><path class="cls-13" d="M282.42,60.17a5.46,5.46,0,1,0,5.46,5.45A5.45,5.45,0,0,0,282.42,60.17Z"/><path class="cls-13" d="M282.42,60.17a5.46,5.46,0,0,0-4.73,2.75,5.37,5.37,0,0,1,2.92-.85,5.45,5.45,0,0,1,4.73,8.16,5.45,5.45,0,0,0-2.92-10.06Z"/><path class="cls-13" d="M261.11,53.72a5.46,5.46,0,1,0,5.45,5.46A5.46,5.46,0,0,0,261.11,53.72Z"/><path class="cls-9" d="M312.17,98.89a3.67,3.67,0,0,0-1.52.33,5.43,5.43,0,0,0,3.69,7,4.05,4.05,0,0,0,1.69-3.32A4,4,0,0,0,312.17,98.89Z"/><path class="cls-9" d="M300.71,78.07a4,4,0,1,0,3.86,4A3.94,3.94,0,0,0,300.71,78.07Z"/><path class="cls-9" d="M281.32,63.64a4,4,0,1,0,3.86,4A3.94,3.94,0,0,0,281.32,63.64Z"/><path class="cls-9" d="M258.85,56.37a4,4,0,1,0,3.85,4A3.94,3.94,0,0,0,258.85,56.37Z"/><path class="cls-52" d="M280.31,229.85a4.06,4.06,0,0,0-4.43-3.61c-15.72,1.59-31.43,2.4-47.23,2.42a4.08,4.08,0,0,0-4,4.05l-.33,32.88a4.22,4.22,0,0,0,4.31,4.11,513,513,0,0,0,51.55-2.65,4.22,4.22,0,0,0,3.87-4.53Q282.16,246.19,280.31,229.85Zm-7.85,33.43q-18.28,1.56-36.62,1.88a4.19,4.19,0,0,1-4.33-4.05q-.06-11.93-.11-23.86a4.07,4.07,0,0,1,4-4.1q17.15-.3,34.21-1.76a4.09,4.09,0,0,1,4.41,3.67q1.16,11.88,2.33,23.75A4.2,4.2,0,0,1,272.46,263.28Z"/><path class="cls-53" d="M280.31,229.85a4.06,4.06,0,0,0-4.43-3.61c-15.72,1.59-31.43,2.4-47.23,2.42a4,4,0,0,0-2.25.7q23.06-.11,46-2.42a4.06,4.06,0,0,1,4.43,3.61q1.85,16.33,3.7,32.68a4.08,4.08,0,0,1-2.19,4l1.85-.18a4.22,4.22,0,0,0,3.87-4.53Q282.16,246.19,280.31,229.85Z"/><path class="cls-53" d="M231.51,261.11q-.06-11.93-.11-23.86a4.08,4.08,0,0,1,1.83-3.43l-1.35,0a4.09,4.09,0,0,0-4,4.11q0,11.92.11,23.86a4.19,4.19,0,0,0,4.33,4q18.36-.3,36.62-1.88a4.43,4.43,0,0,0,1.79-.56q-17.42,1.44-34.88,1.74A4.19,4.19,0,0,1,231.51,261.11Z"/><path class="cls-52" d="M292.82,238.13c-2.77.73-31,6.76-45.16,5.45a3.52,3.52,0,0,0-3.58,3.56,3.74,3.74,0,0,0,3.06,4.18c1.56.14,3.26.21,5.05.21,16.81,0,41.88-5.76,42.13-5.83a4,4,0,0,0,2.5-4.66A3.36,3.36,0,0,0,292.82,238.13Z"/><path class="cls-42" d="M139.45,113.88l-5.18-3.53L151.92,84.7,129.1,111.06,135,115.3l-9,13.53a39.69,39.69,0,0,0,10.83,1.48L158.51,92.7l-24,28.24Z"/><path class="cls-42" d="M144,130.25c2.63-.1,5.35-.27,8.1-.5-.05-.26-.09-.52-.13-.8-.94-7.54,9.18-25.19,9.18-25.19C153.62,109.64,146.82,123.74,144,130.25Z"/><path class="cls-42" d="M158.5,129.12l2.94-.34-1.28-13.72Z"/><path class="cls-42" d="M113.33,103.76c2.12-12.46,15.71-23.53,28-31.2-9.63,1.06-20,.89-25.91-3.13,0,0-17.72,13.14-28.23,30.9,7,5.41,17.77,13.72,26.34,20.13,5.19-15.06,35.77-41.17,35.77-41.17C131.68,85.17,113.33,103.76,113.33,103.76Z"/><path class="cls-35" d="M63,180l45.89.88C88.91,172.25,63,180,63,180Z"/><path class="cls-35" d="M78,188.49l35.84-1.76C113.09,186.73,88.73,181.78,78,188.49Z"/><path class="cls-35" d="M82.91,183.37c-3.18.71-21.36,2.12-24.71,4.24l.52,2.47S86.08,182.67,82.91,183.37Z"/><path class="cls-35" d="M57.67,197l38.12-4.59C79.91,187.61,57.67,197,57.67,197Z"/><path class="cls-35" d="M82.2,202.79l24-3.89S87.67,197.67,82.2,202.79Z"/><path class="cls-35" d="M57.67,204.73,82,197.49S58,201.2,56.78,203Z"/><path class="cls-35" d="M57.14,209.14l.35,1.94S73.2,206,72.67,206,57.14,209.14,57.14,209.14Z"/><path class="cls-35" d="M60,219.2s19.59-9.7,37.77-9C97.73,210.2,70.2,208.44,60,219.2Z"/><path class="cls-35" d="M81,220.79l23.47-5.29S85.91,214.79,81,220.79Z"/><path class="cls-35" d="M61.73,226.62l14.82-8.47S63,222.91,61,224.85Z"/><path class="cls-35" d="M66,172.25v1.94l28.42-1.76S69.67,170.84,66,172.25Z"/><path class="cls-35" d="M75.14,136.07,97.2,148.24C92.44,138.36,75.14,136.07,75.14,136.07Z"/><polygon class="cls-35" points="67.55 145.6 86.08 147.36 68.61 142.24 67.55 145.6"/><path class="cls-35" d="M98.44,155.84c-.76,0-2.22.21-4.12.5Z"/><path class="cls-35" d="M66.14,161.48s19.09-3.74,28.18-5.14L65.61,159.9Z"/><path class="cls-35" d="M66.84,155.84l9.71-2.3c-1.23,0-10.76.18-10.76.18Z"/><path class="cls-35" d="M65.79,236.33,99,225.56C97.91,225.38,68.26,230,65.79,236.33Z"/><path class="cls-35" d="M73.55,247.62,94,235.8C91.56,236.15,74.08,242.33,73.55,247.62Z"/><path class="cls-13" d="M331.73,268.75c36.48,4.23,48.49-29.42,48.49-29.42l-73-12.71S295.25,264.51,331.73,268.75Z"/><path class="cls-7" d="M393.31,174.47l3-1.18c-3.55-19.48-33-15.94-33-15.94l-8.88,3.84-8.4.79-22.82,12.85,5.77,1.57c-13.9,5.51-20.46,29.12-20.46,29.12l9.71-4.46s-16,21.51-13.38,40.13,30.43,34.11,30.43,34.11l22.3,4.46-.53-7.09c12.59,8.92,30.43-2.36,33.32-2.36s-8.4-.79-8.4-.79l13.9-11,.27,3.67c8.39-8.66,7.6-29.64,7.6-29.64l6.3.26-4.2-27,5.27,1.15C411,186.86,393.31,174.47,393.31,174.47Z"/><path class="cls-6" d="M309.15,205.19a51.77,51.77,0,0,1,1.14-5.08c-1.24,3.21-1.86,5.41-1.86,5.41Z"/><path class="cls-6" d="M407.4,216.41c-.68,6.74-2.5,15.52-7.22,20.39l-.26-3.67-13.91,11s11.28.78,8.4.78-20.73,11.28-33.32,2.36l.53,7.09-22.3-4.46s-26.52-14.76-30.2-32.8c-3.08,7.21-5.51,15.92-4.36,24.07,2.62,18.63,30.43,34.11,30.43,34.11l22.3,4.46-.53-7.09c12.59,8.92,30.43-2.36,33.32-2.36s-8.4-.79-8.4-.79l13.9-11,.27,3.67c8.39-8.66,7.6-29.64,7.6-29.64l6.3.26Z"/><path class="cls-54" d="M323,152.14s-12.57,45.43-23.93,50.5c0,0,5.07,9.13,22.92-2.23l61.45-21.29c-1.22-2-22.92-36.31-22.92-36.31Z"/><path class="cls-13" d="M395.62,11.52,375,84.35S415.53,97,423.72,123.08c9.42,29.9-23.2,48.76-31.14,50.39,9.13,2.13,134.66,20.15,97.41-149.62Z"/><path class="cls-33" d="M471.43,21.43c6.37,27,15.5,88.88-26.14,114.46-20,12.27-27.86,26.27-29.88,39,37.18-1.5,102.89-22.06,74.58-151.08Z"/><path class="cls-9" d="M456.55,37.19C454.5,38.87,438,109,438,109s11.87-64.52,16.2-89.81L452.76,19c-7,24.14-23.78,84.52-23.78,84.52l4.82-49-4.8,13,3.32-22.62-5.66-1.38,5.71-27.23-.65-.08L421.55,46.67l5,1.76-8.65,33.32,2.89-29.81L403.68,84.28l19.37-69.17-2.39-.32-23.1,56.56,10.53-58.2-12.47-1.63L375,84.35S415.53,97,423.72,123.08a34.35,34.35,0,0,1,1.6,13l15.55-.84C440.73,133.62,458.59,35.51,456.55,37.19Z"/><path class="cls-9" d="M385,55.76l-1.8-.35L375,84.35S415.53,97,423.72,123.08c9.42,29.9-23.2,48.76-31.14,50.39,3.64.85,25.84,4.23,48.82-2.81C450.84,146.22,471,73.51,385,55.76Z"/><path class="cls-29" d="M306,299.56c15.48,11,26.07,6.34,26.07,6.34L405.44,4,391.88,0Z"/><path class="cls-29" d="M306,299.56c15.48,11,26.07,6.34,26.07,6.34L405.44,4,391.88,0Z"/><path class="cls-30" d="M327.81,306.8C336.34,262.07,354.93,164,354.93,164L317.25,305.43A26.41,26.41,0,0,0,327.81,306.8Z"/><polygon class="cls-30" points="367.5 134.67 395.28 35.34 363.8 133.22 367.5 134.67"/><polygon class="cls-30" points="363.65 133.16 384.47 58.87 360.2 131.81 363.65 133.16"/><polygon class="cls-30" points="362.55 137.1 363.8 133.22 363.65 133.16 362.55 137.1"/><path class="cls-30" d="M306,299.56a39.72,39.72,0,0,0,13.91,6.61,46.13,46.13,0,0,1-7.22-4.26L398.58,2.35l6.77,2,.09-.34L391.88,0Z"/><polygon class="cls-3" points="315.1 267.74 339.84 273.86 341.86 265.55 317.4 259.73 315.1 267.74"/><polygon class="cls-3" points="330.18 215.17 353.06 219.46 354.81 212.28 333.3 204.28 330.18 215.17"/><polygon class="cls-3" points="319.3 253.12 343.79 257.59 344.56 254.43 321.07 246.94 319.3 253.12"/><polygon class="cls-3" points="323.57 238.2 346.98 244.5 350.09 231.69 326.45 228.18 323.57 238.2"/><path class="cls-3" d="M312.39,277.2a174.77,174.77,0,0,0,25.36,5.26l.83-3.42-25.23-5.19Z"/><polygon class="cls-3" points="350.25 145.19 371.39 144.08 374.38 131.79 354.59 130.03 350.25 145.19"/><polygon class="cls-3" points="346.55 158.08 366.85 162.73 368.83 154.59 348.74 150.45 346.55 158.08"/><path class="cls-3" d="M310,285.65l-2.26,7.89c8.71,1.16,18.06,1.93,26.75,2.45l1.9-7.84C328.43,288.7,319.11,287.54,310,285.65Z"/><polygon class="cls-3" points="335.87 195.32 356.23 206.43 358.63 196.54 338.33 186.74 335.87 195.32"/><path class="cls-3" d="M340.6,178.83c6.95,0,14.94,0,22.36-.08l1.7-7L343,170.42Z"/><polygon class="cls-3" points="315.1 267.74 339.84 273.86 341.86 265.55 317.4 259.73 315.1 267.74"/><polygon class="cls-3" points="319.3 253.12 343.79 257.59 344.56 254.43 321.07 246.94 319.3 253.12"/><path class="cls-3" d="M310,285.65l-2.26,7.89c8.71,1.16,18.06,1.93,26.75,2.45l1.9-7.84C328.43,288.7,319.11,287.54,310,285.65Z"/><path class="cls-3" d="M312.39,277.2a174.77,174.77,0,0,0,25.36,5.26l.83-3.42-25.23-5.19Z"/><polygon class="cls-3" points="323.57 238.2 346.98 244.5 350.09 231.69 326.45 228.18 323.57 238.2"/><polygon class="cls-3" points="346.55 158.08 366.85 162.73 368.83 154.59 348.74 150.45 346.55 158.08"/><polygon class="cls-3" points="350.25 145.19 371.39 144.08 374.38 131.79 354.59 130.03 350.25 145.19"/><polygon class="cls-3" points="330.18 215.17 353.06 219.46 354.81 212.28 333.3 204.28 330.18 215.17"/><polygon class="cls-3" points="335.87 195.32 356.23 206.43 358.63 196.54 338.33 186.74 335.87 195.32"/><path class="cls-3" d="M340.6,178.83c6.95,0,14.94,0,22.36-.08l1.7-7L343,170.42Z"/><path class="cls-16" d="M352.49,137.37c6-.24,13.77-.56,20.75-.89l1.14-4.69L354.59,130Z"/><path class="cls-16" d="M350.25,145.19l21.14-1.11.05-.21-19.62-4.18Z"/><path class="cls-16" d="M312.39,277.2l.73.21-.67-.42Z"/><path class="cls-16" d="M343,170.42l-2.41,8.41c5.92,0,12.6,0,19-.06l-14.54-8.22Z"/><polygon class="cls-16" points="346.55 158.08 361.31 161.46 367.32 160.82 367.79 158.88 347.58 154.5 346.55 158.08"/><polygon class="cls-16" points="335.87 195.32 355.42 205.99 356.28 206.22 356.89 203.69 337.55 189.47 335.87 195.32"/><path class="cls-16" d="M321.07,246.94l-1.77,6.17,21.89,4c-4.48-2.6-9.91-5.66-15.15-8.58Z"/><polygon class="cls-16" points="315.1 267.74 339.84 273.86 340.25 272.15 317.37 259.82 315.1 267.74"/><path class="cls-16" d="M310,285.65l-2.26,7.89c8.71,1.16,18.06,1.93,26.75,2.45l1.06-4.38-5.28-3.35A118.18,118.18,0,0,1,310,285.65Z"/><polygon class="cls-16" points="330.18 215.17 351.69 219.2 332.73 206.26 330.18 215.17"/><polygon class="cls-16" points="326.45 228.18 323.57 238.2 346.98 244.5 347.55 242.12 333.53 229.23 326.45 228.18"/><path class="cls-9" d="M379.48,43.26l15.85,2.33,3.81-15.68c-4.76-1.68-10.14-3-15-2.89Z"/><path class="cls-9" d="M385.26,23.09l15.37.72,1.44-5.94a56.9,56.9,0,0,0-13.77-5.39Z"/><polygon class="cls-9" points="369.95 76.48 387.33 78.48 392.13 58.74 375.72 56.36 369.95 76.48"/><path class="cls-28" d="M239.45,377.46l-11.87-17.65,25.56-8.21a48.48,48.48,0,0,0-2.44-9.74c-1.82-4.86-55.06-8.51-55.06-8.51l-49.89-7.61s-27.37-5.78-34.07,9.43,36.51,94.61,36.51,94.61l10-5.17,21.9,5.17,8.52-7.91,16.12,3,10.95-13.08s18.56-2.43,20.69-2.13,23.12-15.51,23.12-15.51l-3-22.51Z"/><path class="cls-55" d="M151,326.54l-37,5a14.44,14.44,0,0,0-2.31,3.65c-6,13.7,28.4,79.44,35.31,92.38L131.15,372s25.55,42,26.77,43.5-11.86-49-11.86-49,13.08-.6,14.9-.6S144.54,361,144.54,361s33.15-6.69,36.81-7-17.65-3.95-17.65-3.95,29.2-11.87,29.2-12.78l-8.25-5.63Z"/><path class="cls-27" d="M149.19,429.26l8.18-4.21L149.1,414S149,422.4,149.19,429.26Z"/><path class="cls-27" d="M239.45,377.46l-11.87-17.65,25.56-8.21a48.48,48.48,0,0,0-2.44-9.74c-1.47-3.92-36.39-7.06-49.84-8.12-3.24,7.53-7.49,19.38-6.13,27,2.13,11.87,21.29,36.81,21.29,36.81l22.81,11.14c6.07-3.46,20.7-14.48,20.7-14.48l-3-22.51Z"/><path class="cls-27" d="M205.16,424.45l10.56-12.62.37-.05-26.23-19.72Z"/><polygon class="cls-27" points="176.94 429.03 180.13 429.78 187.94 422.53 162.79 392.67 176.94 429.03"/><path class="cls-27" d="M149.19,429.26l8.18-4.21L149.1,414S149,422.4,149.19,429.26Z"/><path class="cls-27" d="M205.16,424.45l10.56-12.62.37-.05-26.23-19.72Z"/><polygon class="cls-27" points="176.94 429.03 180.13 429.78 187.94 422.53 162.79 392.67 176.94 429.03"/><polygon class="cls-28" points="239.45 377.46 227.58 359.81 232.61 358.2 224.24 347.04 225.46 356.47 208.12 350.08 232.45 373.5 232.15 387.8 236.41 376.85 244.92 385.06 243.93 375.94 239.45 377.46"/><path class="cls-6" d="M193.22,294.77l1.77,4.57s3.18-38.83-19.77-47.66l14.83,3.18L153,213.2a56.86,56.86,0,0,1-14.46,10.29l-11.66-7.11.71,6L94.73,218.5l6,4.94-32.48,2.12,6,3.18L61.9,236.86,58.37,246,63.31,245s1.77,20.82,3.89,27.88,3.17.36,3.17.36l5.3,19.06.71-10.94,8.82,36.71,3.89-9.53,8.47,26.12,1.06-6S113.09,355.12,117,359s25.07-.7,25.07-.7l-8.47-3.89s46.6-2.47,44.13-2.47-18.36-4.59-18.36-4.59l37.42-8.82S195.58,303.71,193.22,294.77Z"/><path class="cls-7" d="M193.22,294.77l1.77,4.57s3.18-38.83-19.77-47.66l14.83,3.18L153,213.2a56.86,56.86,0,0,1-14.46,10.29l-11.66-7.11.71,6-13.17-1.56c3.45,15.17,7.87,37.57,7.87,37.57l-9.53-4.94,18.36,38.13V276l14.12,31.42-8.48-.35,8.48,16.59-14.83-7.41,13.77,20.83-9.89-.71s7.48,9.88,12,17.33c13.6-.73,33.07-1.8,31.45-1.8-2.48,0-18.36-4.59-18.36-4.59l37.42-8.82S195.58,303.71,193.22,294.77Z"/><path class="cls-6" d="M116.9,232.22c.53,2.48,1,5,1.55,7.37l40.27-19.94-.9-1Z"/><path class="cls-56" d="M195,299.34s2.38-29.14-11.89-42.67l-11.76-2.52c22.95,8.83,19.77,47.66,19.77,47.66l-1.78-4.56c2.07,7.81,3.23,35.37,3.49,42.21l3.94-.93s-1.18-34.82-3.54-43.76Z"/><path class="cls-56" d="M149.61,216.25l32.93,37,7.51,1.61L153,213.2A44.05,44.05,0,0,1,149.61,216.25Z"/><path class="cls-56" d="M114.4,220.82l.68,3,8.6,1-.35-3Z"/><path class="cls-56" d="M126.86,216.38l.61,5.21,7.17,4.37a53.67,53.67,0,0,0,7-4.13c-1,.57-2,1.13-3.12,1.66Z"/><polygon class="cls-7" points="121.56 305.23 132.16 306.87 119.45 294.16 121.56 305.23"/><polygon class="cls-7" points="124.39 328.53 134.98 330.17 121.56 314.17 124.39 328.53"/><path class="cls-7" d="M138.79,354.14C132.23,347.3,123,337,123,337l10.67,22.76c4.64-.65,8.39-1.46,8.39-1.46l-8.47-3.89Z"/><polygon class="cls-7" points="106.5 272.98 118.97 287.57 105.8 256.74 106.5 272.98"/><path class="cls-7" d="M99.69,219.08c3.79,12.19,9.79,31.37,10.11,32s-1.35-20.38-2.42-31.1Z"/><polygon class="cls-7" points="96.85 254.15 100.38 246.62 94.03 232.03 96.85 254.15"/><polygon class="cls-7" points="102.27 288.99 114.74 303.11 113.8 294.87 102.27 288.99"/><path class="cls-57" d="M61.31,239.33l13.18,13.41,86.14-32.48L159,217.2S83,242.86,61.31,239.33Z"/><path class="cls-13" d="M65.31,214.38S36.6,228,43.66,253.68s29,25.89,29,25.89C95.2,256.27,66,214.38,65.31,214.38Z"/><path class="cls-57" d="M55.9,253.68c-4.46-16.2,5.35-27.61,13.18-33.82a31,31,0,0,0-3.77-5.48S36.6,228,43.66,253.68s29,25.89,29,25.89a31,31,0,0,0,2.16-2.49C68.05,274.13,59.76,267.71,55.9,253.68Z"/><path class="cls-13" d="M49.78,241.21,12.83,253.92l38.6,4.94C58.25,247.56,49.78,241.21,49.78,241.21Z"/><path class="cls-57" d="M49.78,241.21l-36.65,12.6c14.48-2.71,30.15-5.62,40.25-7.46A12,12,0,0,0,49.78,241.21Z"/><path class="cls-6" d="M61.31,180.68l-2.54,5a36.64,36.64,0,0,0-1.92,7.72c27.38-4,80.41-2.32,97.28-1.65a98.25,98.25,0,0,0-1.72-10.94C122.93,176.84,84.89,178.77,61.31,180.68Z"/><path class="cls-42" d="M165.52,101.12a8.56,8.56,0,1,0,8.82,8.56A8.69,8.69,0,0,0,165.52,101.12Z"/><path class="cls-51" d="M168.74,103.06a5.88,5.88,0,1,0,5.6,5.87A5.74,5.74,0,0,0,168.74,103.06Z"/><path class="cls-49" d="M172,104.2a5.32,5.32,0,0,0-3.3-1.14,5.88,5.88,0,0,0,0,11.74,5.15,5.15,0,0,0,1.63-.26,6,6,0,0,1-2.29-4.73A5.83,5.83,0,0,1,172,104.2Z"/><path class="cls-42" d="M148.28,85.11c-4.72,0-8.53,3.41-8.53,7.62s3.81,7.62,8.53,7.62,8.53-3.41,8.53-7.62S153,85.11,148.28,85.11Z"/><path class="cls-51" d="M151.39,86.84a5.23,5.23,0,1,0,5.42,5.22A5.33,5.33,0,0,0,151.39,86.84Z"/><path class="cls-49" d="M154.59,87.85a5.56,5.56,0,0,0-3.2-1,5.23,5.23,0,1,0,0,10.45,5.49,5.49,0,0,0,1.58-.23,5.16,5.16,0,0,1-2.22-4.21A5.26,5.26,0,0,1,154.59,87.85Z"/><path class="cls-42" d="M127.17,73.82a6.88,6.88,0,0,0-1,3.5c0,4.2,3.82,7.61,8.53,7.61s8.54-3.41,8.54-7.61a7.12,7.12,0,0,0-1.83-4.71A97.78,97.78,0,0,1,127.17,73.82Z"/><path class="cls-51" d="M137.86,71.42a5.23,5.23,0,1,0,5.42,5.23A5.33,5.33,0,0,0,137.86,71.42Z"/><path class="cls-49" d="M141.05,72.44a5.46,5.46,0,0,0-3.19-1,5.23,5.23,0,1,0,0,10.45,5.49,5.49,0,0,0,1.58-.23,5.14,5.14,0,0,1-2.22-4.21A5.24,5.24,0,0,1,141.05,72.44Z"/><path class="cls-28" d="M374.21,165.07l-35.59,87.16,6.05,6.66s26.19-10.92,37.15-23.7,6.86-51.36-2.5-68.27C379.32,166.92,379,163.65,374.21,165.07Z"/><path class="cls-26" d="M377.22,164.53l-45.63-5.88-3.85,14.6,3.45,1.83-4.92-.56-7.76,16.58,1.67,2.43-2.28.46-10.49,19.47,2.74,3.95c-1.52,1.68-9,17.19-9,17.19l42.89,23.88,6.39-2.89s2.74-6.08,4.41-9.28,7.91-5.78,7.91-5.78,1.83-8.36,4.41-12.93,10-7.3,10.5-10.64-1.52-12.32-1.37-15.82,6.54-8.52,7-9.13-2.13-12.78-2.13-12.78Z"/><path class="cls-28" d="M365.79,188.44l-20.68-9.32,6.37-17.91-19.89-2.56-3.85,14.6,3.45,1.83-4.92-.56-7.76,16.58,1.67,2.43-2.28.46-10.49,19.47,2.74,3.95c-1.52,1.68-9,17.19-9,17.19l18.46,10.28c.76-7.68,8.24-16.28,8.24-16.28s15.62,6.49,16.22,6.29-21.7-13.19-21.7-13.19l10.35-18,22.31,7.51-21.3-11.76,10.34-17.24Z"/><path class="cls-9" d="M397,569.71c-10.55-21.09-49.49-9.33-52.33,8.11S264,634.61,264,634.61s2.84,10.95,48.26,18.66S467.2,637,467.2,637C470.85,594.86,397,569.71,397,569.71Z"/><polygon class="cls-10" points="414.67 588.37 387.29 615.14 454.42 616.36 449.35 611.69 414.67 588.37"/><path class="cls-10" d="M350.79,639.68c-8.55-17.08,3.48-54.49,13.3-79.31-9.81,3.13-18.13,9.74-19.39,17.45C341.86,595.27,264,634.61,264,634.61s2.84,10.95,48.26,18.66S467.2,637,467.2,637a35.09,35.09,0,0,0-.56-9.86C422.47,653.71,350.79,639.68,350.79,639.68Z"/><path class="cls-13" d="M455.43,617.17l2.44-47.86-43,18.25S421.77,620,455.43,617.17Z"/><path class="cls-13" d="M57.42,626.51S66,649.27,84.8,648.2s34.5-20.27,34.5-20.27L92.63,570.32Z"/><path class="cls-58" d="M94.41,588.46l-15.3,45.81,14.78-61.22-1.26-2.73L57.42,626.51a45.15,45.15,0,0,0,8.19,13.06l15.64-29.42L69.31,643A24.72,24.72,0,0,0,76,646.88l8.1-19.3,1.53,20.55a31.86,31.86,0,0,0,6-1.09l4.92-48.27-7.82,35.5Z"/><path class="cls-59" d="M432.84,612.64l21.38-34.21s-27,25.35-28,25c-.77-.31,20.85-23,31.62-33.7l0-.37-43,18.25S418.42,604.24,432.84,612.64Z"/><path class="cls-10" d="M371.07,597.7c-13.79,21.5-7.3,51.51-7.3,51.51l8.11-2.43s-6.09-25.15,7.3-46.65c7.44-12,21.28-19.89,32.1-24.58-3-1.38-5.67-2.51-7.88-3.41C393,577,379,585.34,371.07,597.7Z"/><ellipse class="cls-60" cx="141.56" cy="367.41" rx="139.65" ry="129.2" transform="translate(-228.68 501.36) rotate(-88.82)"/><ellipse class="cls-61" cx="136.42" cy="368.79" rx="139.65" ry="129.2" transform="matrix(0.02, -1, 1, 0.02, -235.1, 497.57)"/><path class="cls-62" d="M83.11,385.55c-16.71-61,7-124.69,54.32-157.49A120.24,120.24,0,0,0,101.64,234c-68.43,22.1-107.5,99.92-87.27,173.81s92.11,115.86,160.54,93.75a125.53,125.53,0,0,0,32.94-16.32C151.73,485.81,99.81,446.56,83.11,385.55Z"/><path class="cls-63" d="M13.13,327.42c-.34,1.16-.66,2.33-1,3.51l226-48.59c-.69-1-1.4-1.9-2.12-2.84Z"/><path class="cls-63" d="M8.91,346.54c-.17,1.13-.34,2.27-.48,3.4l239.81-51.55c-.54-1-1.08-2-1.63-2.94Z"/><path class="cls-63" d="M7.23,366c0,1.1,0,2.2,0,3.31l248.94-53.52c-.38-1-.78-2-1.18-3Z"/><path class="cls-63" d="M35.59,281.82c-1,1.29-1.88,2.58-2.79,3.9l170.49-36.65c-1.3-.84-2.62-1.65-3.94-2.45Z"/><path class="cls-63" d="M11.74,405.84q.38,1.49.78,3c0,.05,0,.1,0,.15L265,354.69c-.1-1.07-.21-2.15-.34-3.22Z"/><path class="cls-63" d="M20.93,306.61c-.56,1.2-1.1,2.42-1.63,3.65l205.07-44.09c-.92-.91-1.84-1.81-2.78-2.7Z"/><path class="cls-63" d="M58.29,257.81c-1.72,1.41-3.4,2.88-5,4.38l122.91-26.42q-3.08-1.07-6.19-2Z"/><path class="cls-63" d="M8.31,387.44c.13,1.07.27,2.14.43,3.21l253.4-54.48c-.23-1-.47-2.09-.73-3.14Z"/><path class="cls-63" d="M17.81,424.57,265.62,371.3q0-1.65,0-3.3l-249,53.53C17,422.55,17.4,423.57,17.81,424.57Z"/><path class="cls-63" d="M54.06,476.69l196.15-42.17c.6-1.21,1.19-2.44,1.76-3.67L51.15,474C52.11,474.92,53.08,475.81,54.06,476.69Z"/><path class="cls-63" d="M102.43,503.64l112.49-24.18c1.71-1.42,3.38-2.87,5-4.37L96.29,501.66Q99.33,502.74,102.43,503.64Z"/><path class="cls-63" d="M73.21,490.79l164.24-35.31q1.43-1.92,2.76-3.89L69.28,488.33C70.58,489.18,71.89,490,73.21,490.79Z"/><path class="cls-63" d="M38.93,460.8l219.74-47.23c.38-1.17.73-2.35,1.07-3.53L36.71,458C37.43,458.93,38.18,459.87,38.93,460.8Z"/><path class="cls-63" d="M26.11,441.92,264,390.8c.17-1.14.33-2.27.47-3.4L24.49,439Q25.29,440.47,26.11,441.92Z"/><path class="cls-64" d="M177.89,249.94a6.81,6.81,0,0,0-7.69,2.27,3.83,3.83,0,0,0,1.88,6,6.58,6.58,0,0,0,4.07.16,6.48,6.48,0,0,0,3.64-2.44A3.82,3.82,0,0,0,177.89,249.94Z"/><path class="cls-64" d="M213.89,457.34a6.68,6.68,0,0,0-7.92.89c-2.15,2-2.09,4.86.15,6.38a6.25,6.25,0,0,0,5,.67,7,7,0,0,0,2.87-1.56C216.18,461.71,216.12,458.85,213.89,457.34Z"/><path class="cls-64" d="M241.2,323.05c-3,.91-4.79,3.56-4,5.89s3.67,3.43,6.58,2.65l.25-.07c3-.92,4.8-3.56,4-5.9S244.2,322.13,241.2,323.05Z"/><path class="cls-64" d="M228,439.77a6.79,6.79,0,0,0-7.71,2.18,3.81,3.81,0,0,0,1.75,6.05,6.81,6.81,0,0,0,7.73-2.17h0A3.83,3.83,0,0,0,228,439.77Z"/><path class="cls-64" d="M188.05,471.77h0c-2.63,1.57-3.43,4.44-1.81,6.39a5.8,5.8,0,0,0,5.92,1.46,6.79,6.79,0,0,0,1.8-.77c2.63-1.57,3.43-4.43,1.8-6.39S190.68,470.19,188.05,471.77Z"/><path class="cls-64" d="M167.13,481.31l-.11,0-.12,0c-3,1-4.72,3.63-3.89,5.95s3.68,3.33,6.54,2.57l.36-.11.16-.05.1,0c3-1,4.71-3.63,3.88-5.95S170.11,480.34,167.13,481.31Z"/><path class="cls-64" d="M128.71,242.64c-3.1.25-5.66,2.48-5.73,5s2.38,4.33,5.48,4.08a7.78,7.78,0,0,0,1.28-.22c2.48-.67,4.38-2.61,4.44-4.76C134.25,244.23,131.8,242.39,128.71,242.64Z"/><path class="cls-64" d="M233,305.19c-2.87,1.2-4.29,4-3.15,6.18,1,2,3.73,2.84,6.36,2.14a8,8,0,0,0,.9-.31c2.88-1.2,4.29-4,3.15-6.18S235.84,304,233,305.19Z"/><path class="cls-64" d="M154.39,243.59c-3-.46-6.1,1.18-7,3.65s.72,4.84,3.67,5.3a6.91,6.91,0,0,0,2.83-.17,6.08,6.08,0,0,0,4.19-3.47C159,246.42,157.34,244.05,154.39,243.59Z"/><path class="cls-64" d="M238.39,420.79a6.71,6.71,0,0,0-7.31,3.18c-1.18,2.42.18,4.93,3,5.6a6.79,6.79,0,0,0,3.29-.09,6.23,6.23,0,0,0,4-3.09C242.62,424,241.25,421.46,238.39,420.79Z"/><path class="cls-64" d="M245.19,401.09c-3-.3-6,1.48-6.78,4s1.1,4.76,4.1,5.07a7.15,7.15,0,0,0,2.49-.21,6,6,0,0,0,4.29-3.76C250,403.66,248.2,401.39,245.19,401.09Z"/><path class="cls-64" d="M249.13,361.29c-3.09.35-5.56,2.65-5.51,5.14s2.59,4.22,5.69,3.88a7.49,7.49,0,0,0,1.07-.2c2.57-.69,4.48-2.73,4.44-4.93C254.77,362.69,252.22,361,249.13,361.29Z"/><path class="cls-64" d="M198.34,260.4a6.74,6.74,0,0,0-7.92,1c-2.1,2-1.95,4.89.32,6.36a6.29,6.29,0,0,0,5,.61,6.75,6.75,0,0,0,3-1.65C200.76,264.72,200.61,261.88,198.34,260.4Z"/><path class="cls-64" d="M248.71,381.14c-3.07,0-5.84,2.1-6.17,4.61s1.89,4.53,5,4.49a6.72,6.72,0,0,0,1.75-.24c2.32-.62,4.15-2.34,4.42-4.36C254,383.12,251.78,381.11,248.71,381.14Z"/><path class="cls-64" d="M207.64,273.87c-2.44,1.75-2.91,4.64-1,6.43a6,6,0,0,0,5.6,1.11,6.77,6.77,0,0,0,2.26-1.06c2.45-1.76,2.91-4.65,1-6.43S210.1,272.1,207.64,273.87Z"/><path class="cls-64" d="M246.59,341.84c-3.06.64-5.21,3.13-4.79,5.56s3.24,3.88,6.31,3.24l.4-.09c2.85-.76,4.79-3.14,4.39-5.46S249.66,341.2,246.59,341.84Z"/><path class="cls-64" d="M221.81,288.64c-2.7,1.49-3.67,4.34-2.16,6.37,1.22,1.65,3.7,2.25,6,1.62a6.68,6.68,0,0,0,1.58-.63c2.7-1.48,3.67-4.32,2.16-6.35S224.51,287.16,221.81,288.64Z"/><path class="cls-64" d="M25.36,347.23c-3.08,0-5.85,2.09-6.18,4.6s1.88,4.53,5,4.5a7.86,7.86,0,0,0,1.76-.24,5.73,5.73,0,0,0,4.41-4.37h0C30.66,349.21,28.43,347.2,25.36,347.23Z"/><path class="cls-64" d="M28.8,406c-3,.92-4.8,3.55-4,5.9h0c.75,2.27,3.65,3.42,6.56,2.64l.26-.07c3-.92,4.8-3.56,4-5.89S31.8,405,28.8,406Z"/><path class="cls-64" d="M24.72,386.83c-3.06.64-5.22,3.12-4.8,5.55s3.24,3.89,6.31,3.26l.4-.1c2.85-.77,4.79-3.14,4.39-5.46S27.79,386.19,24.72,386.83Z"/><path class="cls-64" d="M23.53,367.16c-3.09.35-5.57,2.64-5.52,5.13s2.6,4.23,5.69,3.89a7.23,7.23,0,0,0,1.07-.2c2.58-.69,4.49-2.74,4.45-4.93C29.17,368.56,26.62,366.82,23.53,367.16Z"/><path class="cls-64" d="M35.71,424.29c-2.87,1.2-4.29,4-3.16,6.17,1,2,3.74,2.85,6.36,2.14a6.78,6.78,0,0,0,.9-.3c2.89-1.21,4.3-4,3.17-6.18S38.58,423.09,35.71,424.29Z"/><path class="cls-64" d="M30.37,327.34c-3-.3-6.05,1.47-6.79,4s1.09,4.77,4.09,5.07a7.21,7.21,0,0,0,2.5-.21,6,6,0,0,0,4.28-3.76C35.2,329.92,33.37,327.65,30.37,327.34Z"/><path class="cls-64" d="M58.28,457.15c-2.45,1.76-2.91,4.64-1,6.44a6,6,0,0,0,5.6,1.12,7.21,7.21,0,0,0,2.26-1.07c2.46-1.76,2.91-4.64,1-6.43S60.73,455.39,58.28,457.15Z"/><path class="cls-64" d="M102.8,247.82c-3,1-4.72,3.64-3.88,6s3.68,3.33,6.54,2.56l.37-.11c3-1,4.71-3.63,3.87-6S105.78,246.86,102.8,247.82Z"/><path class="cls-64" d="M82,469.73a6.7,6.7,0,0,0-7.92,1c-2.1,2-2,4.88.31,6.36a6.31,6.31,0,0,0,5,.61,6.62,6.62,0,0,0,2.94-1.65C84.42,474,84.28,471.19,82,469.73Z"/><path class="cls-64" d="M38.76,307.91a6.68,6.68,0,0,0-7.31,3.17c-1.18,2.42.18,4.93,3.05,5.6a6.82,6.82,0,0,0,3.27-.08,6.21,6.21,0,0,0,4-3.09h0C43,311.08,41.63,308.58,38.76,307.91Z"/><path class="cls-64" d="M66.82,272.89a6.71,6.71,0,0,0-7.93.88c-2.14,2-2.08,4.86.14,6.38a6.22,6.22,0,0,0,5,.68A6.89,6.89,0,0,0,67,279.27C69.1,277.26,69,274.41,66.82,272.89Z"/><path class="cls-64" d="M53.13,442.49c-1.5-2-4.91-2.48-7.62-1s-3.67,4.32-2.17,6.35c1.23,1.66,3.71,2.27,6,1.64a7.06,7.06,0,0,0,1.57-.63c2.7-1.48,3.68-4.33,2.17-6.36Z"/><path class="cls-64" d="M144.27,485.88c-3.1.25-5.67,2.47-5.74,5s2.37,4.34,5.46,4.1a7.08,7.08,0,0,0,1.3-.23c2.48-.66,4.38-2.6,4.44-4.75C149.81,487.47,147.36,485.64,144.27,485.88Z"/><path class="cls-64" d="M79,258.65c-2.62,1.57-3.44,4.44-1.81,6.4a5.82,5.82,0,0,0,5.92,1.46,7.26,7.26,0,0,0,1.8-.76c2.62-1.58,3.43-4.44,1.81-6.4S81.61,257.08,79,258.65Z"/><path class="cls-64" d="M100.64,479.3a6.84,6.84,0,0,0-7.7,2.27,3.84,3.84,0,0,0,1.89,6,6.61,6.61,0,0,0,4.06.16,6.49,6.49,0,0,0,3.63-2.43A3.83,3.83,0,0,0,100.64,479.3Z"/><path class="cls-64" d="M121.7,485c-3-.47-6.1,1.16-7,3.64s.71,4.85,3.66,5.31a7,7,0,0,0,2.84-.17,6,6,0,0,0,4.18-3.47C126.28,487.85,124.64,485.48,121.7,485Z"/><path class="cls-64" d="M50.83,289.48a6.81,6.81,0,0,0-7.72,2.17,3.81,3.81,0,0,0,1.74,6.05,6.54,6.54,0,0,0,4.15.2,6.46,6.46,0,0,0,3.58-2.36A3.82,3.82,0,0,0,50.83,289.48Z"/><path class="cls-65" d="M223.59,367.52s-.66-75-77.33-90.33c0,0,28.67,46.67-8.33,49s-24.67-41-25.67-40.67-26.67,19-23,40.34c0,0-12.33-19.67,5-37.34L73.59,307.19c-2.33,2-37,48.67-18.66,90.67,0,0-2.67-44.67,46-34.67s3,67-22,66c0,0,44.66,54.67,112,7,0,0-59-39.67-38.67-72S223.59,367.52,223.59,367.52Z"/><circle class="cls-65" cx="82.59" cy="397.52" r="18.67" transform="translate(-316.28 321.71) rotate(-67.5)"/><circle class="cls-65" cx="188.26" cy="384.19" r="19.33" transform="translate(-216.52 245.65) rotate(-45)"/><g class="cls-66"><path class="cls-63" d="M13.13,327.42c-.34,1.16-.66,2.33-1,3.51l226-48.59c-.69-1-1.4-1.9-2.12-2.84Z"/><path class="cls-63" d="M8.91,346.54c-.17,1.13-.34,2.27-.48,3.4l239.81-51.55c-.54-1-1.08-2-1.63-2.94Z"/><path class="cls-63" d="M7.23,366c0,1.1,0,2.2,0,3.31l248.94-53.52c-.38-1-.78-2-1.18-3Z"/><path class="cls-63" d="M35.59,281.82c-1,1.29-1.88,2.58-2.79,3.9l170.49-36.65c-1.3-.84-2.62-1.65-3.94-2.45Z"/><path class="cls-63" d="M11.74,405.84q.38,1.49.78,3c0,.05,0,.1,0,.15L265,354.69c-.1-1.07-.21-2.15-.34-3.22Z"/><path class="cls-63" d="M20.93,306.61c-.56,1.2-1.1,2.42-1.63,3.65l205.07-44.09c-.92-.91-1.84-1.81-2.78-2.7Z"/><path class="cls-63" d="M58.29,257.81c-1.72,1.41-3.4,2.88-5,4.38l122.91-26.42q-3.08-1.07-6.19-2Z"/><path class="cls-63" d="M8.31,387.44c.13,1.07.27,2.14.43,3.21l253.4-54.48c-.23-1-.47-2.09-.73-3.14Z"/><path class="cls-63" d="M17.81,424.57,265.62,371.3q0-1.65,0-3.3l-249,53.53C17,422.55,17.4,423.57,17.81,424.57Z"/><path class="cls-63" d="M54.06,476.69l196.15-42.17c.6-1.21,1.19-2.44,1.76-3.67L51.15,474C52.11,474.92,53.08,475.81,54.06,476.69Z"/><path class="cls-63" d="M102.43,503.64l112.49-24.18c1.71-1.42,3.38-2.87,5-4.37L96.29,501.66Q99.33,502.74,102.43,503.64Z"/><path class="cls-63" d="M73.21,490.79l164.24-35.31q1.43-1.92,2.76-3.89L69.28,488.33C70.58,489.18,71.89,490,73.21,490.79Z"/><path class="cls-63" d="M38.93,460.8l219.74-47.23c.38-1.17.73-2.35,1.07-3.53L36.71,458C37.43,458.93,38.18,459.87,38.93,460.8Z"/><path class="cls-63" d="M26.11,441.92,264,390.8c.17-1.14.33-2.27.47-3.4L24.49,439Q25.29,440.47,26.11,441.92Z"/></g><path class="cls-47" d="M240.76,87.44c-2.67-1.42-5.37-12.17-5.37-12.17L234.16,75c-3.2,1.42-9.95-.5-12.87-1.45-2.53,1.37-6.86,7.68-6.86,7.68l-.21,1.21,13.75,7a16.12,16.12,0,0,0,2.79-.16S243.43,88.86,240.76,87.44Z"/><path class="cls-26" d="M228.3,78.11c-7.21-.29-14.21,4.37-14.21,4.37l4.84,6,9.66.33a8.63,8.63,0,0,1,2.92-4.58c2.33-1.79,5.33.75,5.33.88S235.51,78.4,228.3,78.11Z"/><path class="cls-48" d="M219.67,89.43c.07,4.46,6.06,1.69,6.06,1.69l.06-10.31C221,82.5,219.67,89.43,219.67,89.43Z"/><path class="cls-48" d="M239.18,80.37l1.8,6s-2.41-.88-2.87-.65-.81,1.54-.81,1.54-1.29-1.42-2-1.3-1.75,1.74-1.75,1.74l-2.19-1.27-1.55,1.92s-.73-1.81-1.35-1.88-4.14,2.3-4,2.79l-.28,1.68s2.17,1.92,3.59,2a2.25,2.25,0,0,0,2.05-1.17s1.6,1.7,2.17,1.58a8.59,8.59,0,0,0,2-1.55,1.44,1.44,0,0,0,1.85.84,4,4,0,0,0,2.3-1.57s1.06,1,1.43.88a34.25,34.25,0,0,0,3-1.72s.27.46,1.64.29,1.92-1.79,1.92-1.79a13,13,0,0,0-2.25-4.84A7.46,7.46,0,0,0,239.18,80.37Z"/><path class="cls-48" d="M230.84,74.77c-3.62.25-8.12-2.75-8.12-2.75-1.38.38-2.56,2.5-2.56,2.5l2.18.57a2.43,2.43,0,0,0,1.13,2l1.75-1.19.81.75,2.06-.38,2.25.69,1.82-.25s1.06.19,1.25.25a11.61,11.61,0,0,0,1.93-1.06s1.07,1.19,1.69.5.31-3.06.31-3.06A23.16,23.16,0,0,1,230.84,74.77Z"/><path class="cls-48" d="M217.93,83.36a1.38,1.38,0,0,0-.17-1.17c-.37-.75-3.33-.92-3.33-.92s-1,2.92-.34,3.75a1.6,1.6,0,0,0,1.34.75s.29-.83.5.75,4.75,2.75,4.75,2.75L222.3,87a5.46,5.46,0,0,0,.21-2.12C222.34,84,217.93,83.36,217.93,83.36Z"/></g></g></svg>