<svg xmlns="http://www.w3.org/2000/svg" viewBox="0 0 719.65 728.76"><defs><style>.cls-1{fill:#a57c41;}.cls-2{fill:#594905;}.cls-3{fill:#493c07;}.cls-4{fill:#725d08;}.cls-5{fill:#4c3e05;}.cls-6{fill:#9b9372;}.cls-7{fill:#bfb89d;}.cls-8{fill:#492e0e;}.cls-9{fill:#846528;}.cls-10{fill:#35302a;}.cls-11{fill:#7a542e;}.cls-12{fill:#66431d;}.cls-13{fill:#b7883e;}.cls-14{fill:#544c43;}.cls-15{fill:#7c3a82;}.cls-16{fill:#725420;}.cls-17{fill:#827d68;}.cls-18{fill:#7f5c2d;}.cls-19{fill:#3d250b;}.cls-20{fill:#726a61;}.cls-21{fill:#845c35;}.cls-22{fill:#754c2a;}.cls-23{fill:#6d5238;}.cls-24{fill:#d1740f;}.cls-25{fill:#3a3523;}.cls-26{fill:#96ce4e;}.cls-27{fill:#231f0f;}.cls-28{fill:#6b9b38;}.cls-29{fill:#605c4a;}.cls-30{fill:#0f0f0f;}.cls-31{fill:#54460b;}.cls-32{fill:#191919;}.cls-33{fill:#8e7719;}.cls-34{fill:#fff;}.cls-35{fill:#ef8f1d;}.cls-36{fill:#141414;}.cls-37{fill:#878684;}.cls-38{fill:#4f4d42;}.cls-39{fill:#c6ba8b;}.cls-40{fill:#bc9668;}.cls-41{fill:#604e00;}.cls-42{fill:#726d56;}.cls-43{fill:#cc5b4c;}.cls-44{fill:#b2473f;}.cls-45{fill:#726d59;}.cls-46{fill:#994149;}</style></defs><g id="Layer_2" data-name="Layer 2"><g id="Capa_2" data-name="Capa 2"><path class="cls-1" d="M309.7,532c2.6,15.29,2.48,21.92,2.48,21.92s4.6-17.41,4.77-16.65-3.37,25.33-3.37,25.33,16.13-13.09,14.43-26.73l1.7,13.64s4.9-5.32,5-19.09c.06-7.59-.61-17.43-.63-26a6.38,6.38,0,0,0,4.42-7.5,6.27,6.27,0,0,0-1.61-3c2.83-27.49-14.62-73.69-15.38-75.69l-6,2.27c.18.47,17.2,45.5,15.11,71.64a6.38,6.38,0,0,0-4.61,7.55,6.14,6.14,0,0,0,1.14,2.45l-.83,1.33S307.11,516.67,309.7,532Z"/><path class="cls-2" d="M196.17,213.26l7.9-6.52s-10.16,18,1.45,32.57l3.85-13.26,14.27,30.43,5.29-12.13,21.22,22.45,94.28,21.11s23.15-63,24.35-62.76,4.43,15.32,4.43,15.32l9.72-38.88,7.39,8.68s3.17-30.82-7.54-52A47.79,47.79,0,0,0,351,132.84L242.25,122.06c-.64,1.15-44,51.24-44,51.24L215.86,170S187,186.38,196.17,213.26Z"/><path class="cls-3" d="M231.39,245.58l1.15-12.66,18.79,24.93L254,246l23.77,16.5,91.28,2.3s10-61,11.12-61,6.91,13,6.91,13L389,180l8.43,6.52s-2.68-28.38-16.49-45.64a45.65,45.65,0,0,0-34.13-17.26L244,133.21c-.38,1.15-31.44,54.08-31.44,54.08l15.72-6.14S204.54,201.09,218,223.72l6.13-7.29S218,234.46,231.39,245.58Z"/><path class="cls-4" d="M371.76,197.64l-6.91-8s-24.16,58.67-27.61,64c-1.45,2.26,9.05,6.77,22,10.88l9.81.25s10-61,11.12-61,6.91,13,6.91,13L389,180l8.43,6.52s-2.19-23.2-12.82-40.41l-13.26.91c1.92.76,5.76,30.68,5.76,30.68l-5-6.91Z"/><path class="cls-4" d="M318.29,224.61l-1.88,10,130.65,55.6,8.08-56.92S334.63,212,318.29,224.61Z"/><path class="cls-5" d="M395.21,225.41c-.16,1.24-.33,2.49-.53,3.74l12.78,3.09c.11-1.76.22-3.51.31-5.25C403.68,226.45,399.46,225.92,395.21,225.41Z"/><path class="cls-5" d="M391.46,243.83c-.58,2.13-1.14,4-1.63,5.67L404.66,255c.42-2,.79-4.08,1.12-6.34Z"/><path class="cls-5" d="M393.88,233.57c-.37,1.88-.78,3.73-1.21,5.5l13.8,4.28c.22-2,.42-4,.6-6.09Z"/><path class="cls-5" d="M417.14,240.07c-.24,2.17-.52,4.3-.81,6.34L431.1,251c.26-2.26.42-4.57.5-6.87Z"/><path class="cls-5" d="M418,229.13c-.06,1.85-.17,3.71-.32,5.57l14,3.39c0-2.09-.11-4.12-.23-6.06Z"/><path class="cls-5" d="M370.11,236.61c-.53,1.9-1,3.58-1.48,5l12.12,4.51c.55-1.63,1.07-3.44,1.55-5.38Z"/><path class="cls-5" d="M415.46,252c-.42,2.5-.84,4.75-1.22,6.64l14,5.22a43.79,43.79,0,0,0,1.94-6.88Z"/><path class="cls-6" d="M391.3,242.93c-.58,2.13-1.14,4-1.63,5.67l14.83,5.52c.41-2,.79-4.08,1.12-6.34Z"/><path class="cls-6" d="M417,239.17c-.25,2.17-.52,4.3-.81,6.33l14.77,4.59c.26-2.27.42-4.58.5-6.88Z"/><path class="cls-6" d="M393.72,232.67c-.37,1.88-.78,3.73-1.21,5.49l13.8,4.29c.22-2,.42-4,.6-6.1Z"/><path class="cls-6" d="M395.05,224.5c-.16,1.25-.33,2.5-.53,3.75l12.77,3.09c.12-1.76.23-3.51.32-5.25C403.51,225.55,399.3,225,395.05,224.5Z"/><path class="cls-6" d="M417.81,228.23c-.06,1.84-.17,3.71-.32,5.57l14,3.38c0-2.08-.11-4.12-.23-6.06Z"/><path class="cls-6" d="M415.3,251.05c-.42,2.49-.84,4.74-1.22,6.64l14,5.21A43.67,43.67,0,0,0,430,256Z"/><path class="cls-6" d="M370,235.71c-.53,1.89-1,3.58-1.48,5l12.11,4.51c.56-1.64,1.08-3.45,1.56-5.39Z"/><path class="cls-7" d="M383.19,235.27c.36-1.71.69-3.48,1-5.27l-12-3.35c-.19.85-.38,1.68-.58,2.5l11.66,3.26c-.16.92-.33,1.84-.5,2.74Z"/><path class="cls-7" d="M359.36,237.31c.51-1.42,1-3,1.45-4.69l-12.65-4.28c-.25.87-.49,1.7-.73,2.47L359.92,235c-.21.78-.43,1.53-.65,2.25Z"/><path class="cls-7" d="M380.58,245.22c.56-1.64,1.08-3.45,1.56-5.39L370,235.71c-.25.87-.49,1.69-.71,2.47l12,4.07c-.25,1-.52,2-.79,2.92Z"/><path class="cls-7" d="M407.29,231.34c.12-1.76.23-3.51.32-5.25-4.1-.54-8.31-1.08-12.56-1.59-.11.83-.22,1.66-.34,2.49,4.07.48,8.09,1,12,1.51-.05.88-.11,1.77-.16,2.66Z"/><path class="cls-7" d="M373.11,222.2,373,223l11.91,2.88c.14-.85.25-1.69.38-2.53C381.18,223,377.12,222.55,373.11,222.2Z"/><path class="cls-7" d="M406.31,242.45c.22-2,.42-4,.6-6.1l-13.19-3.68c-.16.84-.34,1.68-.52,2.51L406,238.76c-.1,1.18-.21,2.34-.33,3.49Z"/><path class="cls-7" d="M337.75,229.27c.45-1.24.87-2.58,1.28-4l-11.1-3.76L327.2,224l10.93,3.7c-.15.54-.31,1.06-.47,1.57Z"/><path class="cls-7" d="M430.94,250.09c.26-2.27.42-4.58.5-6.88l-14.46-4c-.1.87-.21,1.72-.31,2.57l13.88,3.88c-.05,1.43-.14,2.85-.25,4.27Z"/><path class="cls-7" d="M361.79,228.63c.34-1.49.66-3,1-4.63l-11.56-3.23-1.06,0c-.2.82-.4,1.63-.6,2.42l.76,0,11.56,3.24q-.19,1.07-.42,2.1Z"/><path class="cls-7" d="M428.08,262.9A43.67,43.67,0,0,0,430,256l-14.72-5c-.15.89-.3,1.74-.45,2.56l14.28,4.83c-.31,1.53-.69,3-1.12,4.44Z"/><path class="cls-7" d="M431.5,237.18c0-2.08-.11-4.12-.23-6.06l-13.46-2.89c0,.85-.07,1.71-.12,2.57l12.69,2.73c.07,1.11.12,2.26.16,3.42Z"/><path class="cls-7" d="M336.41,220.75l3.5,1.09c.09-.39.18-.8.28-1.2C338.89,220.67,337.63,220.7,336.41,220.75Z"/><path class="cls-7" d="M404.5,254.12c.41-2,.79-4.08,1.12-6.34l-14.32-4.85-.69,2.48,14.12,4.78c-.19,1.31-.4,2.57-.62,3.79Z"/><path class="cls-6" d="M316.41,234.66l130.65,55.6,8.08-56.92s-4.22-.75-11.18-1.88l-3,20.48L438.74,250l1.75,15.07-4.32-4.59-.49,14.31-62.37-26.93,3.09,2.95s-40.06-17.74-58.35-24.95Z"/><path class="cls-8" d="M496.1,232.27c-78.19-29.42-111.48,30.19-111.48,30.19-118.45,3.1-97.55,113-97.55,113L458.94,387.1C490.68,379.36,574.29,261.68,496.1,232.27Z"/><path class="cls-9" d="M452.11,658.71a92.6,92.6,0,0,1-1.93,19.43,60.2,60.2,0,0,1,9.27-8.87c3.67-2.43-9.38,16.26-8.57,28.45,0,0,8.16-20.73,16.72-13s-9.38,15-5.7,23.16,9.37,8.94,9.37,8.94-4.45-16.65,13.93-11.46c1.89,8.61,4.19,17.22,4.19,17.22h66.5a329.43,329.43,0,0,0-21.62-25.51c2.54-4.18,4.7-8.88,4.7-12.75,0-9.35-7.34-15-7.34-15A50.1,50.1,0,0,0,528.37,649l-4.08-10.16a27,27,0,0,0-1.22-20.72,86.55,86.55,0,0,0-11-16.48c1.67-4.71,3.56-10.82,4-15.17.7-7.64-8.48-29.08-9.51-31.46l10-74.79,7.88-18-12.8-80.87L463.3,424.47l24.11,159a93.7,93.7,0,0,0-1,11A22,22,0,0,0,489,605.28c-9.65,3-27.06,10.67-27.06,20.92,0,13.41-11,21.94-11,21.94l14.47-6C463.61,642.88,452.11,648.19,452.11,658.71Z"/><path class="cls-10" d="M529.83,653.27l-77.13,1.42a14,14,0,0,0-.59,4,92.6,92.6,0,0,1-1.93,19.43,60.2,60.2,0,0,1,9.27-8.87c3.67-2.43-9.38,16.26-8.57,28.45,0,0,8.16-20.73,16.72-13s-9.38,15-5.7,23.16,9.37,8.94,9.37,8.94-4.45-16.65,13.93-11.46c1.89,8.61,4.19,17.22,4.19,17.22h66.5a329.43,329.43,0,0,0-21.62-25.51c2.54-4.18,4.7-8.88,4.7-12.75,0-9.35-7.34-15-7.34-15A50.73,50.73,0,0,0,529.83,653.27Z"/><path class="cls-9" d="M70.23,535.13c1.7-.47,1.38-.61,0,0Z"/><path class="cls-8" d="M137.87,574.81c42.54-9.64,21-74.3,21-74.3L137.3,495.4,86.82,476.69s-77.71,31.76-60.69,76,6.24,60.69,6.24,60.69,6.24,7.37,10.78-16.45,0-57.28,21.55-60.69a54.94,54.94,0,0,0,5.53-1.11c1.38-.61,1.7-.47,0,0-4.42,1.92-19.7,11.4-15.17,42,6.8,45.94,25.52,48.78,53.31,45.38,0,0-45.37-4-23.82-32.9s30.63-32.9,30.63-32.9S78.31,615.08,128.79,606C128.79,606,95.33,584.45,137.87,574.81Z"/><path class="cls-11" d="M46.86,569.91c-32.51,5-51,13.54-46.06,30.7,0,0,8.13-19.87,58.71-10.38s49.22-49.68,49.22-49.68,10.84,43.81-9.94,54.64c0,0,27.1,1.81,36.58-35.67L144.86,522,143.05,560s19,.45,28-53.74S173.76,439,173.76,439l-65-4.52S32.86,444.36,41,490.88s5,63.67-8.13,61.87c0,0,4.52,15.8,18.52-7.23s11.29-33,11.29-33S79.38,564.94,46.86,569.91Z"/><path class="cls-8" d="M47.68,444.36C21,431.31,15.92,480.66,16.49,479S28.4,448.33,44.85,459.1s29.49,2.84,29.49,2.84-10.78,17.58-28.93,11.91-35.16,25.52-21.55,42.54c0,0-5.1-25,20.42-21s42.54,2.27,49.91-11.91c0,0,3.41,29.5-22.12,25s-42,19.28-23.82,40.27c0,0-7.37-26.09,19.29-23.82s38-6.24,49.91-23.82c0,0-26.66,42.54-48.78,42s-15.88,61.26,33.46,56.15c0,0-36.3-18.72-16.44-31.76s45.37,5.67,65.22-48.78,16.45-72,16.45-72l33.7-114.32c-2.55,0-65.51-13.61-85.93,16.17s-9.36,91.89-53.61,79.13l-1.66-.48c1.65,2.15,11.06,13,27,5.32C86.82,432.45,74.34,457.4,47.68,444.36Z"/><path class="cls-12" d="M47.68,444.36C21,431.31,15.92,480.66,16.49,479S28.4,448.33,44.85,459.1s29.49,2.84,29.49,2.84-10.78,17.58-28.93,11.91-35.16,25.52-21.55,42.54c0,0-5.1-25,20.42-21s42.54,2.27,49.91-11.91c0,0,3.41,29.5-22.12,25s-42,19.28-23.82,40.27c0,0-7.37-26.09,19.29-23.82s38-6.24,49.91-23.82c0,0-26.66,42.54-48.78,42s-15.88,61.26,33.46,56.15c0,0-36.3-18.72-16.44-31.76s45.37,5.67,65.22-48.78c-25,32.33-42.54,6.24-42.54,6.24,29.5-27.79,19.85-47.08,19.85-47.08C117.45,505.61,105.77,494,105.77,494c22.12-12.76,20.42-52.76,18.71-103-1.44-42.65,48.09-57,64.59-60.41-19.86-2.42-58.72-4.33-73.94,17.87-20.43,29.78-9.36,91.89-53.61,79.13l-1.66-.48c1.65,2.15,11.06,13,27,5.32C86.82,432.45,74.34,457.4,47.68,444.36Z"/><path class="cls-13" d="M279.79,453.2,197.14,410,180.83,648.21s47.85,65.33,59.81,73.38,43.5-3,43.5-3c-6.52-33.17-43.68-39-43.68-39L217.8,598V587.89Z"/><path class="cls-14" d="M284.14,718.57c-6.52-33.17-43.68-39-43.68-39l-5.8-20.91-45.41.84c14.28,19.08,42.58,56.11,51.39,62C252.61,729.63,284.14,718.57,284.14,718.57Z"/><path class="cls-9" d="M248.47,416.56,202,500.51C208.77,498.24,324.47,479,324.47,479Z"/><path class="cls-8" d="M217.69,596.69,198,606.88l-2.31,41.82s37.52,66.34,42,52.77,23.66-14.32,23.66-14.32l-14.69-7.54s-.81-4.9-.81-18.09-10.2-23.75-10.2-23.75a18.35,18.35,0,0,0,1.23-7.16c0-4.52-7.75-10.93-7.75-10.93a16.77,16.77,0,0,0,.81-6C229.92,609.5,217.69,596.69,217.69,596.69Z"/><path class="cls-10" d="M262.9,714.31c3.26-15.83-36.71-24.88-39.16-24.88-.48,0-1.55-4-3-10.5l-7.15,1c8,20.4,14.2,35.86,14.2,35.86S259.64,730.15,262.9,714.31Z"/><path class="cls-9" d="M288.19,456.46l-72.6-61.08s-38.34,180.2-38.34,187c0,4.41,21.41,59.58,36.37,97.59l7.15-1c-5.82-26.55-17.42-94.3-17.42-94.3l40.79-103.29Z"/><path class="cls-8" d="M586.51,330.46,558.43,212.19s-93-8.68-116.69,30.9a37.61,37.61,0,0,0-2.43,4.83C420.59,293,333,280.26,368.69,335.56S586.51,330.46,586.51,330.46Z"/><path class="cls-9" d="M564.4,222.58,599,230.53c-9.07-7.95-1.13-68.63-1.13-68.63C566.66,174.94,564.4,220.88,564.4,222.58Z"/><path class="cls-15" d="M487.82,243s-5,1.61-12.33,3.23A24.36,24.36,0,0,0,487.82,243Z"/><path class="cls-12" d="M426.57,244.71c-18.72-11.92-55,20.41-55,20.41s44.24-17,61.82-3.4-38.56,8.51-35.16,35.17,22.12,34,34,35.73S587.08,304.83,587.08,298l26.66-86.21s2.27-30.63-47.64-21.56-55,28.36-72.6,19.29c0,0,4.53,14.75,27.79,11.91,0,0-28.36,19.28-57.29,2.84s-68.06,13.61-68.06,13.61,45.37-16.45,60.69-.57c6.62,6.87,13.35,8.86,18.86,8.9,7.33-1.62,12.33-3.23,12.33-3.23a24.36,24.36,0,0,1-12.33,3.23C461.44,249.34,438.86,252.53,426.57,244.71Z"/><path class="cls-8" d="M516.26,235.55a6.46,6.46,0,0,1,0-1.74S514.48,234.54,516.26,235.55Z"/><path class="cls-8" d="M442.29,303.88C466.68,316.26,460.1,317,460.1,317s19.35,24.38,23.22,22.45,40.65-7.74,55.36-17,61.54-44.13,62.7-46.45l3.49-83.61s-32.9,1.54-41.81,19-39.48,13.16-39.48,13.16,2.71,7.36,24.39,5.81c0,0-9.29,9.29-22.84,7.36-5.23-.75-7.75-1.5-8.87-2.14.47,3.21,3.49,9.51,20.48,7.17,0,0-28.26,8.9-29.42,20.13s-33.67,22.06-58.83,10.06c0,0-12.39,20.52,55,9.29s8.52,24,8.52,24-41.42,1.16-58.07-14.32S440,271.36,440,271.36,417.91,291.49,442.29,303.88Z"/><path class="cls-11" d="M544.48,212.14c13.76-9.1,20.07-17.07,22.57-22l-.95.16c-49.92,9.08-55,28.36-72.6,19.29,0,0,1.73,5.61,8.51,9.24C518,219.67,534.7,218.6,544.48,212.14Z"/><path class="cls-11" d="M395.94,237.9s45.37-16.45,60.69-.57c.33.35.67.67,1,1,10.64.41,20.57,1.44,26.47,3.62,17.8,6.58,28.64-14.71,28.64-14.71S494.94,235.75,481,233s-35.61-13.16-35.61-13.16l1-.47C421.4,218.35,395.94,237.9,395.94,237.9Z"/><path class="cls-9" d="M202.77,545.88l31.48-85.94S343.16,506.74,407,505.89s108.92-47.65,134.44-80.83S618,272.75,624,263.39s16.16-18.72,16.16-18.72l-44.24-39.14L463.13,301.68l-34.88-.85S353.37,326.36,328.69,323c0,0-85.08-16.16-120-11.91S122.78,397,124.48,428.46,184.9,545.88,184.9,545.88Z"/><path class="cls-16" d="M150.1,363.74c-9.16,14.11-16.74,29-21.22,41.88a24.16,24.16,0,0,0,5.09,4.46h0a24,24,0,0,0,3.77,2h0a24.5,24.5,0,0,0,4,1.31l.12,0a22.58,22.58,0,0,0,2.71.47l.14,0c.4,0,.79.08,1.19.1h.24a23.78,23.78,0,0,0,2.67,0l.28,0,1.06-.1.33,0c.43-.05.86-.12,1.28-.19h0l1.29-.27.36-.09,1-.27.37-.11c.42-.14.84-.28,1.26-.44l.91,1.6a3.27,3.27,0,0,0,3.51,1.56l-.41,1.19a3.27,3.27,0,0,0,2,4.16l1.74.6a24.48,24.48,0,0,0,27.45,28.62h0a23.79,23.79,0,0,0,4.17-1h0a24.42,24.42,0,0,0,3.87-1.64l.11-.05c.8-.44,1.59-.91,2.35-1.43l.11-.08c.33-.23.65-.47,1-.71l.19-.15a23.88,23.88,0,0,0,2-1.76l.19-.2c.25-.25.5-.5.74-.77l.22-.24c.29-.33.57-.65.84-1v0c.28-.35.54-.7.8-1.06l.2-.3c.19-.28.38-.56.55-.84l.21-.33c.23-.38.45-.76.66-1.15l1.74.6a3.28,3.28,0,0,0,4.16-2l1.79-5.13a3.27,3.27,0,0,0-2-4.16l-2.47-.86a51,51,0,0,0-1.28-17.16l.73.25a2.53,2.53,0,0,0,2.41-4.37,2.56,2.56,0,0,0,2.95-1.63l1.43-4.11a2.46,2.46,0,0,0,.11-.45.76.76,0,0,0,0-.15,1.58,1.58,0,0,0,0-.31v-.16c0-.1,0-.2,0-.3l0-.14a2.35,2.35,0,0,0-.14-.37,2,2,0,0,0-.11-.2l-.1-.17a2.43,2.43,0,0,0-.14-.2l-.12-.13a2.45,2.45,0,0,0-1-.65l-28-9.77-18-31.62a2.55,2.55,0,0,0-3.46-.95l-3.79,2.16a2.53,2.53,0,0,0-1.06,3.19,2.53,2.53,0,0,0-3.87,3.16l.83,1.46A49.9,49.9,0,0,0,150.1,363.74Zm26.28,28.41.38.67a2.55,2.55,0,0,0,.58.68,2.9,2.9,0,0,0-.35.65,2.56,2.56,0,0,0,1.57,3.24l1.58.55a50.86,50.86,0,0,0-11.68,12.64l-.74-.26a3.21,3.21,0,0,0-.37-2.13l-1.29-2.27A51,51,0,0,0,176.38,392.15Z"/><path class="cls-16" d="M253.5,394.84c18.95-1.11,24-51.63,25.39-79.83-16.75-2.24-35.06-4.18-50.37-4.6-22.76,20.26-55.86,50.62-51.66,51.14C183.05,362.33,227.18,396.39,253.5,394.84Z"/><path class="cls-17" d="M452.52,300.87l-22.73-.56s-74.87,25.53-99.55,22.13c0,0-29.94-5.69-61.58-9.43L246.54,422.2H437S448,328.21,452.52,300.87Z"/><path class="cls-9" d="M442.84,606.65c9.61-6.07,1.48-31.68.74-37.07H421.41s-8.86,32.35-8.86,40.44v8.08s-7.39,44.48-11.09,52.57-2.95,53.92,1.48,53.92h53.2s-17.73-31.68-19.21-40.44,0-6.06-2.22-14.15l-2.21-8.09S433.24,612.71,442.84,606.65Z"/><path class="cls-9" d="M444.58,592.49s23.65-116.8,25.62-133.88-53.35-25.06-53.35-25.06-7.73,38.54-4.77,47.53a70.81,70.81,0,0,0,8.86,17.07L417,609.56Z"/><path class="cls-13" d="M439.66,580.81l-9.85,14.37h10.42l4.35-2.69s23.65-116.8,25.62-133.88c.63-5.46-4.69-11.47-12.22-17.12.49,10.74,1,26.11.4,33.3C457.39,486.47,439.66,580.81,439.66,580.81Z"/><path class="cls-16" d="M439.59,483l-32-48.31s5.65,102.72,17.57,123.36L437,578.71Z"/><path class="cls-1" d="M554.35,424.06c-11,7.75-26,8.33-44.32,1.72-48.66-17.52-57.75-127.16-57.83-128.27l-7.72.6a340.36,340.36,0,0,0,11,59.59c11.83,41.86,29.31,67.21,52,75.36q14,5,25.8,5a43.42,43.42,0,0,0,25.59-7.71c14.43-10.14,20.89-29.05,20.89-43.29,0-17.14-1.7-22.43-3.16-24.37-1.35,2.86-3.27,6.83-5.17,10.45a134.66,134.66,0,0,1,.58,13.92C571.94,396.23,568.24,414.29,554.35,424.06Z"/><path class="cls-18" d="M452.2,297.51l-7.72.6s0,.42.1,1.21l7.71-.7C452.23,297.91,452.2,297.53,452.2,297.51Z"/><path class="cls-18" d="M463.92,359.11l-7.42,2.2c.22.75.45,1.5.68,2.25l7.4-2.28C464.35,360.56,464.13,359.83,463.92,359.11Z"/><path class="cls-18" d="M453.2,306.9l-7.68,1c.09.73.19,1.51.3,2.31l7.67-1C453.39,308.38,453.29,307.63,453.2,306.9Z"/><path class="cls-18" d="M467.17,369.21l-7.31,2.55.78,2.21,7.29-2.62C467.67,370.64,467.42,369.93,467.17,369.21Z"/><path class="cls-18" d="M458.62,338.47l-7.56,1.66c.17.76.33,1.52.51,2.29l7.55-1.71C459,340,458.78,339.21,458.62,338.47Z"/><path class="cls-18" d="M456.5,328l-7.61,1.42c.14.76.28,1.52.43,2.3l7.61-1.47C456.78,329.5,456.64,328.75,456.5,328Z"/><path class="cls-18" d="M454.69,317.48l-7.65,1.2c.12.75.24,1.52.37,2.31l7.64-1.25C454.93,319,454.81,318.22,454.69,317.48Z"/><path class="cls-18" d="M485.93,406.56l-6.19,4.65c.49.65,1,1.29,1.48,1.92l6.06-4.83C486.82,407.73,486.38,407.15,485.93,406.56Z"/><path class="cls-18" d="M492.61,414.31l-5.47,5.47c.58.58,1.17,1.15,1.76,1.7l5.27-5.67C493.65,415.32,493.12,414.82,492.61,414.31Z"/><path class="cls-18" d="M475.21,388.73l-7,3.4,1.06,2.12,6.9-3.51C475.87,390.08,475.54,389.4,475.21,388.73Z"/><path class="cls-18" d="M470.91,379.11l-7.16,2.94c.29.73.6,1.46.9,2.18l7.13-3C471.49,380.51,471.19,379.81,470.91,379.11Z"/><path class="cls-18" d="M480.17,397.94l-6.64,4c.41.68.82,1.36,1.24,2l6.57-4.09Z"/><path class="cls-18" d="M461.08,348.85l-7.5,1.92c.2.75.39,1.5.59,2.26l7.49-2C461.46,350.32,461.27,349.58,461.08,348.85Z"/><path class="cls-18" d="M571.22,395c-.12.7-.26,1.41-.41,2.12l7.57,1.63c.17-.82.33-1.62.47-2.42Z"/><path class="cls-18" d="M579.21,373.84l-7.72.67c.06.68.12,1.42.17,2.21l7.73-.49C579.33,375.38,579.27,374.58,579.21,373.84Z"/><path class="cls-18" d="M568.58,404.72c-.25.66-.51,1.33-.79,2l7.12,3c.33-.76.63-1.53.92-2.29Z"/><path class="cls-18" d="M557.92,421.16c-.51.47-1,.93-1.56,1.36l4.91,6c.65-.53,1.29-1.09,1.92-1.67Z"/><path class="cls-18" d="M579.69,387.25v-.15c0-.76,0-1.49,0-2.2l-7.75.08c0,.68,0,1.39,0,2.06v.21Z"/><path class="cls-18" d="M564.16,413.63c-.39.6-.79,1.19-1.19,1.76l6.3,4.49c.48-.66,1-1.36,1.4-2.07Z"/><path class="cls-18" d="M550,426.63c-.61.31-1.25.59-1.88.86l3,7.14c.79-.33,1.57-.69,2.32-1.06Z"/><path class="cls-18" d="M511,426.13l-1-.35c-.34-.13-.69-.25-1-.39l-2.81,7.21c.4.16.81.32,1.22.46l1.08.39Z"/><path class="cls-18" d="M500.31,420.75l-4.38,6.39c.68.46,1.38.92,2.08,1.36l4.09-6.58C501.49,421.54,500.89,421.15,500.31,420.75Z"/><path class="cls-18" d="M518.8,428.45,517,436c.8.19,1.59.38,2.36.54l1.63-7.57C520.24,428.79,519.52,428.63,518.8,428.45Z"/><path class="cls-18" d="M540.83,429.65c-.68.12-1.37.23-2.08.32l1,7.68c.83-.11,1.67-.24,2.48-.39Z"/><path class="cls-18" d="M528.82,430.14l-.65,7.71c.84.07,1.66.12,2.47.16l.33-7.74C530.27,430.24,529.55,430.2,528.82,430.14Z"/><path class="cls-1" d="M436.81,456.71c-36.44,11.94-71.92,3.34-105.46-25.56a203.41,203.41,0,0,1-40.15-48l-6.75,3.77a206.69,206.69,0,0,0,41.68,49.95c15.58,13.46,32,22.9,48.74,28.07a103.39,103.39,0,0,0,30.59,4.67,108.14,108.14,0,0,0,33.76-5.54c21.09-6.92,35.94-20,44.14-38.87,9.64-22.21,10-51.76,1.13-87.85A284.39,284.39,0,0,0,468.36,290l-7,3.26c.37.79,36.39,79.41,14.92,128.87C469,438.88,455.71,450.52,436.81,456.71Z"/><path class="cls-1" d="M174.8,330.84l-3.82-.62a114.91,114.91,0,0,0,1.32,39c5.93,27.11,22.42,44.07,47.68,49a70.93,70.93,0,0,0,13.73,1.36c20,0,39-8.77,55.6-25.81a129.83,129.83,0,0,0,23.19-33l-7-3.22a123.46,123.46,0,0,1-21.7,30.78c-18.72,19.21-39.67,26.7-62.28,22.26-22.26-4.38-36.24-18.81-41.57-42.9a108.63,108.63,0,0,1-1.29-36.29Z"/><polygon class="cls-1" points="174.8 330.84 178.62 331.47 178.62 331.47 174.8 330.84"/><path class="cls-18" d="M468.36,290l-7,3.26s.17.36.45,1l7.07-3.15C468.54,290.37,468.36,290,468.36,290Z"/><path class="cls-18" d="M375.26,456.94l-2.43,7.35c.76.25,1.51.49,2.27.72l2.27-7.4C376.66,457.4,376,457.17,375.26,456.94Z"/><path class="cls-18" d="M395.38,461.33l-.83,7.7,2.38.23.65-7.72C396.85,461.48,396.11,461.41,395.38,461.33Z"/><path class="cls-18" d="M365.59,453.23l-3.11,7.08,2.18.94,3-7.15Z"/><path class="cls-18" d="M418.15,461l-2.2.27.86,7.69c.78-.08,1.57-.18,2.37-.29Z"/><path class="cls-18" d="M407.87,461.84l-2.21,0,0,7.74,2.39,0Z"/><path class="cls-18" d="M428.3,459.12c-.72.18-1.44.34-2.15.49l1.63,7.57c.78-.17,1.55-.34,2.33-.53Z"/><path class="cls-18" d="M356.27,448.63l-3.72,6.79c.69.38,1.39.75,2.09,1.12l3.6-6.86C357.58,449.34,356.92,449,356.27,448.63Z"/><path class="cls-18" d="M308.73,407.9l-6,4.93c.49.6,1,1.19,1.5,1.8l5.91-5Z"/><path class="cls-18" d="M302.21,399.6l-6.2,4.63,1.41,1.87,6.16-4.7C303.11,400.79,302.65,400.19,302.21,399.6Z"/><path class="cls-18" d="M315.65,415.85l-5.7,5.24,1.58,1.71,5.66-5.29C316.67,417,316.15,416.4,315.65,415.85Z"/><path class="cls-18" d="M296.12,391l-6.44,4.3,1.32,1.95,6.39-4.38C296.94,392.21,296.52,391.59,296.12,391Z"/><path class="cls-18" d="M440.78,463.54l-2.55-7.31-1.42.48-.68.22,2.39,7.36.7-.22Z"/><path class="cls-18" d="M338.81,437.2l-4.7,6.16c.62.47,1.25.95,1.89,1.41l4.6-6.22C340,438.1,339.4,437.66,338.81,437.2Z"/><path class="cls-18" d="M323,423.43,317.55,429l1.69,1.63,5.35-5.59C324,424.48,323.5,424,323,423.43Z"/><path class="cls-18" d="M347.34,443.25l-4.25,6.48,2,1.28,4.14-6.54Z"/><path class="cls-18" d="M330.69,430.57l-5.09,5.84,1.78,1.53,5-5.9Z"/><path class="cls-18" d="M385.21,459.67l-1.65,7.56,2.33.49,1.49-7.6C386.66,460,385.93,459.83,385.21,459.67Z"/><path class="cls-18" d="M485.25,340.5l-7.54,1.76c.17.73.34,1.47.5,2.21l7.56-1.69C485.6,342,485.42,341.26,485.25,340.5Z"/><path class="cls-18" d="M482.56,330,475.1,332c.19.72.39,1.45.59,2.19l7.48-2C483,331.45,482.76,330.69,482.56,330Z"/><path class="cls-18" d="M479.47,319.52l-7.38,2.33c.22.71.45,1.43.67,2.16l7.4-2.26C479.93,321,479.7,320.25,479.47,319.52Z"/><path class="cls-18" d="M447.64,452.27l-2,1,3.28,7c.73-.34,1.45-.69,2.17-1.05Z"/><path class="cls-18" d="M476,309.21l-7.3,2.59.76,2.14,7.31-2.53Z"/><path class="cls-18" d="M464,440.53c-.51.51-1,1-1.54,1.5l5.3,5.64c.6-.56,1.18-1.13,1.75-1.71Z"/><path class="cls-18" d="M472.18,299l-7.2,2.86c.27.67.55,1.37.83,2.11l7.22-2.8Z"/><path class="cls-18" d="M489.23,362l-7.67,1c.1.74.19,1.49.28,2.23l7.69-1Z"/><path class="cls-18" d="M487.49,351.18l-7.61,1.42c.14.74.27,1.48.41,2.23l7.62-1.35Z"/><path class="cls-18" d="M479,414.56c-.21.7-.43,1.4-.67,2.09l7.33,2.49c.26-.76.51-1.53.74-2.3Z"/><path class="cls-18" d="M475.38,424.06c-.31.65-.63,1.3-1,1.94l6.88,3.54c.37-.72.73-1.45,1.08-2.18Z"/><path class="cls-18" d="M470.36,432.79c-.41.59-.83,1.18-1.26,1.75l6.2,4.64c.49-.66,1-1.32,1.43-2Z"/><path class="cls-18" d="M456.31,447.05l-1.78,1.23,4.28,6.45c.68-.46,1.35-.92,2-1.39Z"/><path class="cls-18" d="M481.44,404.58c-.14.73-.27,1.45-.42,2.17l7.58,1.55c.16-.78.31-1.57.45-2.35Z"/><path class="cls-18" d="M490.83,386.22c0-.52,0-1,0-1.55v-.82l-7.74,0v2.24Z"/><path class="cls-18" d="M482.73,394.31c-.05.74-.12,1.48-.19,2.22l7.7.75q.12-1.18.21-2.37Z"/><path class="cls-18" d="M490.38,372.86l-7.72.58c.06.75.11,1.5.15,2.24l7.73-.47C490.49,374.43,490.44,373.64,490.38,372.86Z"/><path class="cls-18" d="M291.2,383.15l-6.75,3.77s.21.38.62,1.08l6.67-3.93Z"/><path class="cls-18" d="M174.8,330.84l-3.82-.62s-.08.44-.19,1.27l7.68,1c.08-.63.14-1,.15-1Z"/><polygon class="cls-18" points="174.8 330.84 178.62 331.47 178.62 331.47 174.8 330.84"/><path class="cls-18" d="M177.78,351.26l-7.73.37c0,.79.08,1.59.14,2.41l7.72-.52C177.86,352.76,177.82,352,177.78,351.26Z"/><path class="cls-18" d="M204,404.2l-3.94,6.67c.71.42,1.44.83,2.18,1.22l3.64-6.83C205.27,404.92,204.63,404.57,204,404.2Z"/><path class="cls-18" d="M178.8,361.74l-7.66,1.15q.18,1.2.39,2.4l7.63-1.33Q179,362.84,178.8,361.74Z"/><path class="cls-18" d="M170,340.36c0,.76-.06,1.57-.08,2.41l7.74.2c0-.79.05-1.54.08-2.27Z"/><path class="cls-18" d="M213.2,408.43l-2.54,7.32c.77.27,1.56.52,2.36.77l2.26-7.41C214.57,408.9,213.88,408.67,213.2,408.43Z"/><path class="cls-18" d="M181,372,173.5,374c.22.78.45,1.57.69,2.35l7.39-2.29C181.36,373.38,181.15,372.67,181,372Z"/><path class="cls-18" d="M189.42,390.55,183.06,395c.48.69,1,1.37,1.47,2l6.16-4.69C190.25,391.73,189.83,391.15,189.42,390.55Z"/><path class="cls-18" d="M196,398.19l-5.3,5.65c.61.57,1.25,1.13,1.88,1.68l5-5.9C197.05,399.16,196.51,398.68,196,398.19Z"/><path class="cls-18" d="M184.44,381.67l-7.07,3.18c.34.75.69,1.5,1.06,2.24l6.94-3.43C185.05,383,184.74,382.34,184.44,381.67Z"/><path class="cls-18" d="M264.85,403.34c-.64.37-1.28.73-1.94,1.07l3.65,6.83c.73-.38,1.44-.78,2.15-1.19Z"/><path class="cls-18" d="M295.18,374.7l-1.34,1.83,6.21,4.62c.49-.65,1-1.3,1.42-1.94Z"/><path class="cls-18" d="M223.14,411l-1.31,7.63c.82.14,1.64.27,2.44.38l1-7.67C224.6,411.2,223.87,411.08,223.14,411Z"/><path class="cls-18" d="M301,365.83c-.37.62-.77,1.27-1.19,1.94l6.57,4.1c.45-.71.86-1.4,1.26-2.06Z"/><path class="cls-18" d="M288.65,383c-.48.57-1,1.14-1.49,1.7l5.79,5.15c.54-.61,1.07-1.21,1.59-1.82Z"/><path class="cls-18" d="M281.43,390.72c-.54.52-1.09,1-1.64,1.54L285,398c.6-.55,1.19-1.11,1.77-1.67Z"/><path class="cls-18" d="M278.2,403.71l-4.7-6.15c-.59.45-1.19.9-1.8,1.34l4.55,6.26C276.91,404.68,277.56,404.2,278.2,403.71Z"/><path class="cls-18" d="M235.57,411.86c-.57,0-1.15,0-1.72,0h-.47l-.07,7.75h.54c.65,0,1.3,0,1.94,0Z"/><path class="cls-18" d="M245.73,410.69c-.71.15-1.43.28-2.16.4l1.26,7.64c.82-.14,1.64-.29,2.44-.45Z"/><path class="cls-18" d="M255.55,407.8c-.68.26-1.37.51-2.06.75l2.54,7.32c.78-.27,1.55-.56,2.32-.85Z"/><path class="cls-18" d="M305.47,357.62s-.17.36-.46.93L312,362l.56-1.15Z"/><path class="cls-12" d="M427.43,406.45l-40.77-7.74-127.48,1.55c-.52,1-11.61,61.68-11.61,61.68l18.06-1s-2.32,2.58-1.29,2.84,16.26-3.09,16.26-3.09-5.68,4.64-4.13,4.38S310,462.45,310,462.45l-4.39,5.42,28.13-6.19-1.29,3.61,9.8-2.58-2.06,4.39,23.48-4.91s-5.16,5.42-4.38,5.42,15.74-4.13,15.74-4.13l-2.58,4.39L382.79,464l-2.07,7.48,24.52-7.74-3.61,5.94,17.29-5.16-4.39,4.64s13.42-4.39,13.94-8a86.19,86.19,0,0,0,.25-10.84l3.36,3.87-2.84-16.77,3.61,2.58Z"/><path class="cls-1" d="M271.05,535.74l-1.29,13.68s5.94-4.13,9-17.55c1.71-7.4,3.18-17.15,5-25.53a6.36,6.36,0,0,0,5-9.64c8.72-26.23,1.68-75.1,1.37-77.23l-6.32.93c.08.5,6.94,48.14-.76,73.21a6.38,6.38,0,0,0-5.56,9l-1.09,1.12S254.79,512.52,254,528s-2.32,21.93-2.32,21.93,8.25-16,8.25-15.22-8.77,24-8.77,24S269.76,549.42,271.05,535.74Z"/><path class="cls-17" d="M408.72,429.29c1.16.39,31.36-5.42,31.36-5.42l5-67s4.26,8.13,4.26,6.58-4.65-53.81-5-52.65-22.84,97.94-22.84,97.94L255.83,378.2c-3.49,2.71-15.1,37.54-15.1,37.54l9.68-9.67-7,19,23.22-2.32-5.8,4.65,99.87-3.1-7,6.19,63.09-7.74S407.56,428.9,408.72,429.29Z"/><path class="cls-8" d="M432.33,300.93l-4.08-.1S353.37,326.36,328.69,323c0,0-15.7-3-36.37-6l-20,11.87c0,1.55-8.77,84.13-8.77,84.13L325,409.29l-6.71,2.58,68.13-8.25-5.68,5.67,42.33-.51V381.94l3.61,2.06-3.1-44.9,6.2,12.39Z"/><path class="cls-19" d="M317.76,421.94c2.32.77,91.35-91.35,91.35-91.35L307.69,308.91,253.5,348.39l84.39-2.32S315.44,421.16,317.76,421.94Z"/><path class="cls-9" d="M244,453.65l-42.33-18.54-31.29,69.35-3.68,94.35S193.38,714.13,200.74,723s61.65,4.84,61.65,4.84l-38.65-44.35L198,606.88s4.6-12.1,4.6-19.36a37.1,37.1,0,0,0-1.84-12.09l19.32-72.58Z"/><path class="cls-14" d="M262.39,727.84l-38.65-44.35-8.21-24.42-34,.63c7.45,29.27,15.65,59,19.25,63.3C208.1,731.87,262.39,727.84,262.39,727.84Z"/><path class="cls-13" d="M182.21,595.56l5.71,20.73L213.47,653,198,606.88s4.6-12.1,4.6-19.36a37.1,37.1,0,0,0-1.84-12.09l19.32-72.58,11.71-24.08-16.18,12.37s-4.9-19.6-13.87-13.57S190.3,519,197.64,540.9s-4.42,34.68-4.42,34.68l-6.12,1.13,2,13.95-5.71-12.06Z"/><path class="cls-20" d="M227.07,699.21c5.86,3.36,14.22,16.72,21.17,29.34,8.21-.27,14.15-.71,14.15-.71l-38.65-44.35-1.51-4.5c-20.17,6.14-12.7,32.28-12.7,32.28S215.24,692.43,227.07,699.21Z"/><path class="cls-21" d="M152.8,680s9.79,3.77,13-8.67c0,0-.41,15.45-9,20,0,0,13.05,2.64,17.94-7.54,0,0,.41,10.93-6.11,13.57s-2.86,11.31-2.86,11.31,0-6.79,7.75-7.54,14.27-3,18.35-10.56c0,0-2.33,14.71-8.86,15.46s-3.53,8.8-3.53,8.8a18.86,18.86,0,0,1,16.85-8.29c11.7.5,15.23-23.88,24.48-21.87s12,12.07,12,12.07,7.88-7.29,7.61-17.09-12.23-15.83-12.23-15.83a30.74,30.74,0,0,0,0-12.32c-1.36-7-9.79-11.05-9.79-11.05s-3-9.8-6.8-15.08a81,81,0,0,1-4.62-6.79L198.86,601s-3,13.07-12,10.56-13.71-12.19-13.71-12.19-19.57,19.22-15.9,43l4.89-9s-9,19.6-3.67,30.15S152.8,680,152.8,680Z"/><path class="cls-12" d="M152.8,680s9.79,3.77,13-8.67c0,0-.41,15.45-9,20,0,0,13.05,2.64,17.94-7.54,0,0,.41,10.93-6.11,13.57s-2.86,11.31-2.86,11.31,0-6.79,7.75-7.54,14.27-3,18.35-10.56c0,0-2.33,14.71-8.86,15.46s-3.53,8.8-3.53,8.8a18.86,18.86,0,0,1,16.85-8.29c11.7.5,15.23-23.88,24.48-21.87s12,12.07,12,12.07,7.88-7.29,7.61-17.09a14,14,0,0,0-2.68-7.62c-16.12-10.46-38.19,8.12-38.19,8.12.27-11.81,9.24-14.32,23.11-15.83a11.14,11.14,0,0,0,5.84-2.19,32.91,32.91,0,0,0-.31-10.63c-.81-4.17-4.11-7.29-6.66-9.13-1.11,5.95-4.27,15.64-13,14.41-12.51-1.76-15.5,15.08-15.5,15.08s-1.36-14.58,7.34-17.34,4.9-13.57,4.9-13.57-4.63,11.31-12.51,11.31-7.89,14.82-7.89,14.82-2.44-16.83,6-19.35,9-12.81,9-12.81-4.9,8.29-12.24,8.29-11.14,15.33-11.14,15.33c-1.36-14.32,9.51-22.62,14.41-24.63s2.44-8.29,2.44-8.29-1.63,6.53-8.43,6.28a9.7,9.7,0,0,0-9.24,5c-3.88-9,1.75-19.87,7-27.25a27.77,27.77,0,0,1-9.43-10.32s-19.57,19.22-15.9,43l4.89-9s-9,19.6-3.67,30.15S152.8,680,152.8,680Z"/><path class="cls-14" d="M405.53,655.56c-1.49,6.88-2.95,12.66-4.07,15.11-3.69,8.09-2.95,53.92,1.48,53.92h53.2s-17.73-31.68-19.21-40.44,0-6.06-2.22-14.15l-2.21-8.09s0-2.67.22-6.85Z"/><path class="cls-9" d="M597.64,224.63s-10.68,28.51,8.83,40.78,77.09,19.4,87.77,26.13l15.32-2,2.32-3.56L710,283.62l4.64-.4s6.5-21,4.64-24.54-65-51.86-78.48-58.59A267.53,267.53,0,0,0,615.29,189l-7-28.9s-18.57,27.32-14.86,36-.93,28.11-.93,28.11Z"/><path class="cls-10" d="M639.3,231.49a7.49,7.49,0,1,0-7.49,7.49A7.48,7.48,0,0,0,639.3,231.49Z"/><path class="cls-13" d="M713.37,283.34l1.3-.12s6.5-21,4.64-24.54c-1.37-2.64-36.45-29.88-60-46.53l-13.19,4.35c1.39,0,35,33.56,41.48,38.22s5.59-2.8,5.59-2.8l11.19,10.72-3.27,17.71Z"/><path class="cls-15" d="M662.84,221.79a11.22,11.22,0,0,0-1.56-2.73S661.83,220.16,662.84,221.79Z"/><path class="cls-12" d="M685.05,200.18s-.93-19.34-15.84-24.47a66.33,66.33,0,0,0-28-3.26s-5.59-10.95-23.54-11.65-33.56,26.33-34,29.83,15.38-.93,15.38-.93l16.23-.7s19,15.61,12,25.17-17.48,5.59-17.48,5.59,12.82,7.22,22.84-.93S639.38,206,639.38,206s11,14.92-1.4,20-15.62,9.56-14.92,18.65c0,0,3.27-11.42,25.64-12.59,15.47-.8,15.56-6.74,14.14-10.32-1-1.63-1.56-2.73-1.56-2.73a11.22,11.22,0,0,1,1.56,2.73c2.74,4.4,8.86,12.75,16.85,14.28,11,2.1,12.36.47,12.36.47s8.39-9.09-6.53-30.06-24.47-21.91-24.47-21.91S679,185.27,685.05,200.18Z"/><path class="cls-22" d="M685.05,200.18s-.93-19.34-15.84-24.47a66.33,66.33,0,0,0-28-3.26s-5.59-10.95-23.54-11.65a20.78,20.78,0,0,0-10,2.3c12.38,4.92,30,14.87,24.54,29.29,0,0,26.57-2.79,28.31,16.43,0,0,10.49-1.75,10.84,8.39.2,5.85,11.24,13.22,22.09,16.66,1.49-4.06,2.33-12.88-8-27.39-14.91-21-24.47-21.91-24.47-21.91S679,185.27,685.05,200.18Z"/><path class="cls-11" d="M685.05,200.18s-.93-19.34-15.84-24.47a66.33,66.33,0,0,0-28-3.26s-5.59-10.95-23.54-11.65a19.82,19.82,0,0,0-8.05,1.47c6.51,3,28.34,15.37,28.12,25.61,0,0,29.42,5.94,35.1,18.32l-14-3.62c0,.1.09.21.14.31,5.46,2.82,29.47,15.64,30.38,23.18.66,5.44-8.36.67-15.11-3.29,4,4.38,11.67,8.69,19.24,11.09,1.49-4.06,2.33-12.88-8-27.39-14.91-21-24.47-21.91-24.47-21.91S679,185.27,685.05,200.18Z"/><path class="cls-13" d="M541.41,425.06c19.11-24.84,52.51-97.8,70.6-136.87l-.83-1.82L522.69,416.55l19.57-5.11-73.69,78.45C500.72,473.11,525.08,446.3,541.41,425.06Z"/><path class="cls-9" d="M709.06,267.48c0-1.64-.58-3-1.28-3s-1.29,1.34-1.29,3,.58,3,1.29,3S709.06,269.12,709.06,267.48Z"/><path class="cls-21" d="M382.78,654.24c-12.24,3.25-11,19.91-11,19.91S376.25,664,381.15,664a19.28,19.28,0,0,0,8.22-2C385.6,664,369.24,674.27,375,691.22c0,0,3.26-14.63,12.23-9.35s-12.64,15.44-4.07,28.44c0,0,7.75-7.31,9.38-8.94s-9,14.63-4.08,19.1,14.45,4.12,14.45,4.12-1.4-29.72,10.43-38.66,24.46,2.85,24.46,2.85,6.53-8.54,6.53-15.85-3.67-11.38-3.67-11.38,8.56-8.94,6.93-13.81-2.85-8.13-2.85-8.13,7.75-8.53,5.3-13.41a14.22,14.22,0,0,0-6.12-6.5s7.34-8.53,4.49-13.41-6.53-2-10.2,3.25a21.55,21.55,0,0,0-2.12,4,18.61,18.61,0,0,1-4-.71c-10.19-2.84-16.31-17.87-16.31-17.87s-9,3.25-13.05,15.84-7.34,28.85-17.13,28.45c0,0,1.63,4.06,9.79.4A16.41,16.41,0,0,1,382.78,654.24Z"/><path class="cls-12" d="M382.78,654.24c-12.24,3.25-11,19.91-11,19.91S376.25,664,381.15,664a19.28,19.28,0,0,0,8.22-2C385.6,664,369.24,674.27,375,691.22c0,0,3.26-14.63,12.23-9.35s-12.64,15.44-4.07,28.44c0,0,7.75-7.31,9.38-8.94s-9,14.63-4.08,19.1,14.45,4.12,14.45,4.12-1.4-29.72,10.43-38.66c6.19-4.68,12.61-3.67,17.32-1.66a21.46,21.46,0,0,0-2-4.43c-5.7-9.48-27.46,6.78-27.46,6.78s1.36-17.88,13.33-17.61S429.8,653.3,429.8,653.3s-3.26,10-13.59,6.77-18.49,4.87-18.49,4.87,1.36-13.27,13.87-15.44S429.8,633,429.8,633s-15.5,11.65-17.13-.81c-1-7.93,6-18.27,11.19-24.75a45.4,45.4,0,0,1-8.05-12.5s-9,3.25-13.05,15.84-7.34,28.85-17.13,28.45c0,0,1.63,4.06,9.79.4A16.41,16.41,0,0,1,382.78,654.24Z"/><path class="cls-9" d="M618.75,207.1l-9.51-50.58c-20.77,5.6-18.52,54.77-18.52,55.7l3.76,20.05Z"/><path class="cls-21" d="M691.32,233.12q1.09.39,2.19.75c1.49-4.06,2.33-12.88-8-27.39-8.9-12.53-15.9-17.9-20.09-20.2-.68-.05-1.38-.08-2.11-.08-18.2,0-16.84,2.33-16.84,2.33s29.8,6.19,31.93,22.25c0,0,22.65,9.29,13,22.26Z"/><path class="cls-21" d="M673.72,188.11a23.38,23.38,0,0,1,11.33,12.07A19.5,19.5,0,0,0,673.72,188.11Z"/><path class="cls-21" d="M640.29,181s28.71-9.1,42.34,8.66c-2.12-5.42-6.07-11.4-13.42-13.93a66.33,66.33,0,0,0-28-3.26s-5.59-10.95-23.54-11.65a19.52,19.52,0,0,0-6.85,1C624,164.85,638.89,170.56,640.29,181Z"/><path class="cls-21" d="M502.29,217.75c13,4.84,33.68-5,39.68-18a13,13,0,0,1,3.82-4.65c-31.5,9.56-37.45,22.1-52.29,14.44a16,16,0,0,0,4.39,6.33C499.23,216.52,500.69,217.15,502.29,217.75Z"/><path class="cls-21" d="M478.87,235.94a39,39,0,0,0,38.54-12.25c-8.72,4.55-30.89,13.4-53.41.6-28.92-16.45-68.06,13.61-68.06,13.61A151.72,151.72,0,0,1,418.65,232C432.21,224,453.81,230.16,478.87,235.94Z"/><path class="cls-8" d="M512,601.6c.67-1.9,1.38-4,2-6.16l-.4-.09Z"/><path class="cls-8" d="M452.11,658.71a92.6,92.6,0,0,1-1.93,19.43,60.2,60.2,0,0,1,9.27-8.87c3.67-2.43-9.38,16.26-8.57,28.45,0,0,8.16-20.73,16.72-13s-9.38,15-5.7,23.16,9.37,8.94,9.37,8.94-4.45-16.65,13.93-11.46c1.05,4.78,2.23,9.56,3.07,12.87,7.76-13.44,18.38-30.6,23.31-33.07,5.14-2.57,15.68,5.27,22.91,11.54,2.44-4.09,4.48-8.63,4.48-12.38,0-9.35-7.34-15-7.34-15A50.1,50.1,0,0,0,528.37,649l-4.08-10.16a27,27,0,0,0-1.22-20.72,86.55,86.55,0,0,0-11-16.48s5.23,8.2-1.48,10.27c-4.52,1.39-15.37-3.78-22-7.3l.38.71c-9.65,3-27.06,10.67-27.06,20.92,0,13.41-11,21.94-11,21.94l14.47-6C463.61,642.88,452.11,648.19,452.11,658.71Z"/><path class="cls-12" d="M490.68,656.51c-10.84,3.48-5,19.74-5,19.74s-2.33-11.22,13.93-11.61,17-10.06,17-10.06,2.32,15.87-10.45,19c-7.35,1.78-7.91,15-6.39,25.86,4.71-7.14,9.11-12.9,11.81-14.25,5.14-2.57,15.68,5.27,22.91,11.54,2.44-4.09,4.48-8.63,4.48-12.38,0-9.35-7.34-15-7.34-15A50.1,50.1,0,0,0,528.37,649l-4.08-10.16a27,27,0,0,0-1.22-20.72,86.55,86.55,0,0,0-11-16.48s5.23,8.2-1.48,10.27c-2.5.77-6.94-.47-11.51-2.33l-9.52,31.1,13.16-7S501.52,653,490.68,656.51Z"/><path class="cls-23" d="M600.63,207.11l2.08-7.55,3.74,4.26s-7.27-19.55.62-38.33C607.07,165.49,593.56,190.46,600.63,207.11Z"/><path class="cls-24" d="M218.28,162.6c8.71,18.58,38.32,18.19,38.32,18.19l67-66-9.68-38.32s11.63-24.27-4.05-26L279.63,62S258.92,79,258,92.15s-19.93,11-19.93,11l5.81,4.46s-18.58-.2-22.46,18.19l7.55-2.71S209.57,144,218.28,162.6Z"/><path class="cls-25" d="M369.82,252.6l-22.64,19.55s16.64,14.13,19.55,16.06,6.77.77,6.77.77l36-2.32-1.94-10.06,9.29-1.16Z"/><path class="cls-25" d="M283.65,440.92c1.2,8.87,39.8,33.72,41.63,31.32s.9-7.64.9-7.64-3.57-20.78-.5-37l17.1-10.73-4,6.07,17.73-11.81-2.15,6,11.35-9.43-1.11,5.64,30.19-18.9L386,382.81c17.52-7.94,33.07-13.76,38.18-16.41,12.38-6.43,22-23.58,22-23.58l-4.62-17.39-14.74,9.86c-3.72-2.54-35.95-13.89-64.6,15.58l-2.25-3-20.07,16.9,6.25,1-19.08,14.62,6.07.07s-11.85,7.77-16.39,15.37l4.47-2.33s-9.65,10-12.26,21.15C296.44,424.42,283,436.15,283.65,440.92Z"/><path class="cls-26" d="M348.31,321.79c13,1.11,28.46,7.34,39.3,12.42a65.33,65.33,0,0,0-25.38,16.66l-2.25-3-.94.8,27.7,33.84C404,374.71,419.17,369,424.21,366.4c12.38-6.43,22-23.58,22-23.58L444.64,337c4.63-11.79-11.44-21.64-11.44-21.64s-.64-5.79-11.57-25.72c-2.22-4.06-7.56-9.07-14.65-14.48-.16,2.7-.45,5.18-.45,5.18l-11.1-8.77,3.36,4.38-10.32-5.67,3.87,9.54-14.71-7-1.29,5.67-7.23-1.29,1,11.1-10.83-1.55v8.52l-9,.26,1.29,7-8.51,1,2.06,10.06-10.26,3.73A36.59,36.59,0,0,0,348.31,321.79Z"/><path class="cls-27" d="M359.41,267,312.73,301.3c10.82,9.67,24.39,19.53,35.58,20.49,22.51,1.93,52.74,19.3,52.74,19.3l12.39,12.39,9-12-8.27-10.24C422.83,306.41,359.41,267,359.41,267Z"/><path class="cls-28" d="M334.88,317.38l1.57.79.31.14c.49.24,1,.46,1.47.68l.11.05c.51.22,1,.43,1.54.63l.33.13,1.45.53.09,0c.5.17,1,.32,1.5.46l.34.1,1.43.36h.06c.49.11,1,.2,1.45.28l.35.05c.48.07,1,.13,1.43.17.79.07,1.58.16,2.38.26l.2,0c.75.1,1.51.21,2.27.34l.22,0c.79.13,1.58.28,2.38.44l.09,0c.83.17,1.65.36,2.48.55l.18,0c.78.18,1.57.38,2.36.59l.24.07,2.38.66.15.05c.84.24,1.67.5,2.5.76l.11,0c.8.25,1.61.52,2.41.79l.22.07,2.32.82.19.06c1.64.6,3.26,1.22,4.85,1.84l.16.07,2.23.9.17.07q2.32,1,4.52,1.94l.06,0,2.09.94.1,0c.7.31,1.37.63,2,.94h0c8,3.75,13.44,6.88,13.44,6.88l12.39,12.39,9-12-8.27-10.24C419.9,314.81,394.08,292,376,278.46l-6.84-1.22,1,11.1-10.83-1.55v8.52l-9,.26,1.29,7-8.51,1,2.06,10.06-10.26,3.73Z"/><path class="cls-17" d="M379.45,259.73c1.74-4.22-35.75-32.28-35.75-32.28l-9.44.5-29.79,5.46L299.5,366s25.82-44.2,38.73-73S379.45,259.73,379.45,259.73Z"/><path class="cls-29" d="M334.76,248.06c7.59-4.9,17.3-7,25.19-7.91-7.23-5.87-14.1-11.08-15.83-12.39-10.6,2.46-24.76,6.19-27.49,7.63-4.22,2.24-11.17,8.69-11.17,18.13l-4,79.2s23.09-48.66,35.25-63.81c8-10,26.61-13.9,38.43-15.44-1.66-1.67-3.69-3.55-5.92-5.51a50.39,50.39,0,0,0-14.63.84C336.5,252.53,315.39,289,315.39,289S319.36,258,334.76,248.06Z"/><polygon class="cls-30" points="310.44 109.09 332.29 121.33 316.42 74.38 310.44 109.09"/><path class="cls-24" d="M271.91,103.81s.25,10.39,3.51,13.63,16.77-5.84,16.22-7.88l-20-43.14-2.3,24.47,3.24-7.17-4.72,24Z"/><path class="cls-28" d="M300.33,307.81C311.26,293.56,315.69,271,315.69,271l-21.89-5.61L262.42,325S289.4,322.07,300.33,307.81Z"/><path class="cls-28" d="M340.66,122.46c-2.11-16-29.25-23.21-48.51-21.31s-40.66,28.39-40.66,28.39l61.19,16.11C327.16,144.48,342.77,138.44,340.66,122.46Z"/><path class="cls-28" d="M331.48,124.37s-27.25-55.62-28.09-55.46-19.15-3.24-21.72,1.75,1.95,52,1.95,52l37.71,9.52C322,132,331.48,124.37,331.48,124.37Z"/><path class="cls-26" d="M407.93,151s.4,2,10.31,2.89c6,.56,8.12-11.53,8.85-21.15-6.13,1.26-10.59,2-10.59,2l-.38-4.22c-21.61-19.94-37.53-8.22-37.53-8.22-22.81-20.4-57.2-9-57.2-9l15.49,24.78,17.29,9.6C371.45,157.28,407.93,151,407.93,151Z"/><path class="cls-28" d="M354.17,147.69c17.28,9.59,53.76,3.3,53.76,3.3s.4,2,10.31,2.89c2.44.23,4.24-1.64,5.56-4.57a13.87,13.87,0,0,1-5.77,2.46c-5.78.72-10-16.28-10-16.28s-1.81,7-11.45,7.24-19.32-6.34-19.32-6.34c-5.56-10.22-46.18-24.09-51.46-24l.5,8.77,10.58,16.92Z"/><path class="cls-26" d="M351.49,203.83s9.36-56.66-.33-78.25-96.54-12.53-95.88,12.63c0,0,7.82,28.07,29.09,40.49s18.1,22.12,18.1,22.12Z"/><path class="cls-28" d="M337.48,150.68a63.53,63.53,0,0,1,18,.54l-.06-1.66-4.18-1.74c-26.2-10.88-42.62,10-55.12,7.42-8.74-1.84-20-21.63-26-33.38-9.06,4.14-15,9.68-14.87,16.35,0,0,7.82,28.07,29.09,40.49s18.1,22.12,18.1,22.12l28.24,1.73c-2.66-3.87-7.41-10.33-9.19-18.27-2.66-11.9,13.09-27,13.09-27a28.67,28.67,0,0,0-26.42,17.83l-.91-5.3C306.37,164.51,314.16,153.26,337.48,150.68Z"/><path class="cls-26" d="M229.67,208.27c6.45,7.25,29.92,11.36,39.64,8.15,7.13-2.36,8.76-14.46,9.12-20.75l-3.37-.23-20.25-.29s14-16.48,16.6-26a38.3,38.3,0,0,0,.67-17.48s4.24-32.69,18.7-33.89c0,0-22.58-2-39.77,4s-15.82,19.78-15.82,19.78-8.7,13-9.05,25.35S223.23,201,229.67,208.27Z"/><path class="cls-26" d="M299.48,197.13l-21-5.26s0,1.52-.1,3.8Z"/><path class="cls-28" d="M229.67,208.27c6.45,7.25,29.92,11.36,39.64,8.15,4.92-1.63,13.29-11.63,20.37-13.54a56.66,56.66,0,0,0-4.23-3.78c-8.83-7.13-26.2,8.53-26.2,8.53l-18-5.84,26.14-3.33s-22.09-2.39-22.91-2.44,11.36-.54,11.36-.54l.5-.31-1.57,0s.91-1.08,2.31-2.84c-7,1-17.7.73-19-10.06-1.51-13,11.21-31.64,37-29.88.15-.74-1.76-7.84-1.56-8.68-13.51,1.52-30.73,12.49-30.73,12.49s-7.18-7,5.36-23.55c7.67-10.1,22.32-12.37,30.32-15.15-8,.2-18.48,1.15-27.52,4.3-17.2,6-15.82,19.78-15.82,19.78s-8.7,13-9.05,25.35S223.23,201,229.67,208.27Z"/><path class="cls-5" d="M365.77,225.25l1.31,4.12,1.35-.54C367.53,227.59,366.64,226.39,365.77,225.25Z"/><path class="cls-5" d="M359.31,217.53,355,219l3.44,13.31c1.5-.4,3.09-.89,4.75-1.48Z"/><path class="cls-6" d="M366.53,224.48l1.32,4.13,1.35-.55Q367.85,226.2,366.53,224.48Z"/><path class="cls-6" d="M360.08,216.77l-4.33,1.45,3.45,13.32c1.49-.4,3.08-.9,4.75-1.48Z"/><path class="cls-4" d="M323.43,215.28l-28.38-10.74L210.68,364.85s30.68,32.22,98.18,32.22Z"/><path class="cls-5" d="M285.13,225.75l-3.77,13.11c2.3.43,4.56.83,6.76,1.19l3.31-13.5Z"/><path class="cls-5" d="M278.1,250.17l-4.35,15.11c2.65.53,5.27,1,7.81,1.46l3.79-15.42C283,251,280.6,250.59,278.1,250.17Z"/><path class="cls-5" d="M278.79,278c-2.68-.41-5.47-.87-8.31-1.37l-4.15,14.41c3,.62,5.94,1.21,8.83,1.75Z"/><path class="cls-5" d="M285.52,337.35c-3.19-.61-7-1.37-11.09-2.26l-3.78,18.18a106.81,106.81,0,0,0,12,1.61Z"/><path class="cls-5" d="M247.67,299.12l-5.52,14.52c2.75.84,5.55,1.68,8.35,2.5L255.66,301C253,300.43,250.29,299.8,247.67,299.12Z"/><path class="cls-5" d="M263,302.54l-4.57,15.87c3.3.92,6.57,1.79,9.78,2.62l4.13-16.83C269.34,303.71,266.2,303.15,263,302.54Z"/><path class="cls-5" d="M255,330.52l-5,17.4c3.57,1.14,7.23,2.21,10.89,3.15l4.42-18C261.94,332.27,258.48,331.42,255,330.52Z"/><path class="cls-5" d="M237.61,325.56l-6,15.74c2.87,1.15,5.92,2.32,9.08,3.47l5.67-16.57C243.42,327.36,240.48,326.48,237.61,325.56Z"/><path class="cls-5" d="M224.62,338.37l0,0,.14-.35Z"/><path class="cls-5" d="M258.36,274.26l-4.44,8.43-2,5.17c2.51.6,5,1.18,7.6,1.76l4.82-14.1C262.38,275.13,260.36,274.7,258.36,274.26Z"/><path class="cls-5" d="M296.86,227.24,294,240.94c2.51.34,4.89.61,7.12.8l2.23-13.67Z"/><path class="cls-5" d="M291.66,252.21l-3.24,15.62c2.93.42,5.72.75,8.29,1l2.55-15.65C297.07,252.9,294.51,252.59,291.66,252.21Z"/><path class="cls-5" d="M271.65,249l-7.5,14.24,4.12.9,5.06-14.82Z"/><path class="cls-5" d="M286.07,279.11l-3.13,15.05c3.34.53,6.5.94,9.43,1.23l2.48-15.17C292.34,279.93,289.37,279.56,286.07,279.11Z"/><path class="cls-5" d="M280.59,305.46l-3.68,17.69c3.71.85,7.26,1.6,10.57,2.2l3-18.58C287.65,306.43,284.28,306,280.59,305.46Z"/><path class="cls-6" d="M283.79,305.72l-3.68,17.68c3.71.86,7.26,1.6,10.56,2.2l3-18.57C290.85,306.68,287.48,306.25,283.79,305.72Z"/><path class="cls-6" d="M258.17,330.78l-5,17.4c3.58,1.14,7.23,2.2,10.9,3.15l4.42-18C265.14,332.52,261.68,331.68,258.17,330.78Z"/><path class="cls-6" d="M266.22,302.8l-4.56,15.86c3.29.92,6.57,1.8,9.77,2.62l4.13-16.82C272.53,304,269.4,303.41,266.22,302.8Z"/><path class="cls-6" d="M277.62,335.35l-3.78,18.17a105.08,105.08,0,0,0,12,1.62l2.86-17.53C285.52,337,281.76,336.23,277.62,335.35Z"/><path class="cls-6" d="M300.05,227.49l-2.85,13.7c2.51.35,4.9.62,7.13.8l2.23-13.67Z"/><path class="cls-6" d="M294.86,252.46l-3.25,15.63c2.94.42,5.72.75,8.3,1l2.55-15.64C300.27,253.16,297.7,252.84,294.86,252.46Z"/><path class="cls-6" d="M240.81,325.82l-6,15.73c2.88,1.16,5.92,2.33,9.09,3.47l5.66-16.57C246.62,327.61,243.68,326.74,240.81,325.82Z"/><path class="cls-6" d="M238.59,311.82l.25.08,1-2.53Z"/><path class="cls-6" d="M232.68,323.05l-7.57,14.39,2.74,1.2,6.2-15.09Z"/><path class="cls-6" d="M260.42,274.27l-5.27,13.85c2.51.59,5.06,1.18,7.61,1.75l4.82-14.09C265.19,275.31,262.8,274.8,260.42,274.27Z"/><path class="cls-6" d="M271.82,248.69l-6,11.42-1.08,2.83c2.24.51,4.49,1,6.73,1.48l5.07-14.82C275,249.31,273.39,249,271.82,248.69Z"/><path class="cls-6" d="M250.87,299.37l-5.53,14.53q4.14,1.26,8.36,2.49l5.16-15.11C256.16,300.69,253.48,300.05,250.87,299.37Z"/><path class="cls-6" d="M282,278.3c-2.67-.41-5.46-.87-8.31-1.38l-4.15,14.42c3,.62,5.94,1.21,8.83,1.75Z"/><path class="cls-6" d="M284.05,225.46l-6.46,12.27,2.8.57,4.36-12.75Z"/><path class="cls-6" d="M281.3,250.43,277,265.54c2.65.52,5.27,1,7.81,1.45l3.79-15.42C286.22,251.23,283.79,250.85,281.3,250.43Z"/><path class="cls-6" d="M288.33,226l-3.78,13.11c2.3.44,4.56.84,6.76,1.2l3.32-13.51Z"/><path class="cls-6" d="M289.27,279.36l-3.14,15.06c3.34.52,6.51.94,9.43,1.23L298,280.48C295.54,280.18,292.57,279.82,289.27,279.36Z"/><path class="cls-7" d="M284.05,225.46,279,235.09l-.41,1.2-.2,0-.78,1.48,2.8.57,4.36-12.75Z"/><path class="cls-7" d="M238.59,311.82l.25.08,1-2.53Z"/><path class="cls-7" d="M282,278.3l-2.22-.36-3.23,13.13c-2.15-.4-4.35-.83-6.56-1.29l-.45,1.56c3,.62,5.94,1.21,8.83,1.75Z"/><path class="cls-7" d="M292.38,226.52l-2.89,11.77c-1.46-.24-3-.5-4.48-.77l-.46,1.59c2.3.44,4.56.84,6.76,1.2l3.32-13.51Z"/><path class="cls-7" d="M286.31,251.23,282.94,265c-1.81-.31-3.67-.66-5.54-1l-.45,1.58c2.65.52,5.27,1,7.81,1.45l3.79-15.42C287.82,251.47,287.06,251.35,286.31,251.23Z"/><path class="cls-7" d="M265.23,275.3l-4.29,12.56c-1.75-.39-3.5-.8-5.23-1.2l-.56,1.46c2.51.59,5.06,1.18,7.61,1.75l4.82-14.09Z"/><path class="cls-7" d="M256.53,300.75l-4.66,13.63-6-1.79-.5,1.31q4.14,1.26,8.36,2.49l5.16-15.11Z"/><path class="cls-7" d="M274.17,249.14l-4.53,13.26c-1.44-.3-2.89-.63-4.34-.95l-.57,1.49c2.24.51,4.49,1,6.73,1.48l5.07-14.82Z"/><path class="cls-7" d="M232.68,323.05l-4.91,9.34L226,336.63l-.39-.18-.52,1,2.74,1.2,6.2-15.09Z"/><path class="cls-7" d="M300.35,253.16l-2.27,13.89q-2.9-.26-6.11-.68l-.36,1.72c2.94.42,5.72.75,8.3,1l2.55-15.64Z"/><path class="cls-7" d="M295.93,280.22l-2.19,13.42c-2.28-.23-4.71-.54-7.25-.91l-.36,1.69c3.34.52,6.51.94,9.43,1.23L298,280.48Z"/><path class="cls-7" d="M304.45,228.05,302.5,240c-1.57-.13-3.22-.31-4.94-.52l-.36,1.73c2.51.35,4.9.62,7.13.8l2.23-13.67Z"/><path class="cls-7" d="M291.6,306.77l-2.75,16.82c-2.66-.49-5.49-1.07-8.42-1.72l-.32,1.53c3.71.86,7.26,1.6,10.56,2.2l3-18.57Z"/><path class="cls-7" d="M273.34,304.08l-3.73,15.19c-2.48-.64-5-1.32-7.55-2l-.4,1.4c3.29.92,6.57,1.8,9.77,2.62l4.13-16.82Z"/><path class="cls-7" d="M266.29,332.79l-4.06,16.52c-2.91-.75-5.82-1.58-8.68-2.46l-.39,1.33c3.58,1.14,7.23,2.2,10.9,3.15l4.42-18Z"/><path class="cls-7" d="M247.29,327.79,242.09,343c-2.36-.85-4.64-1.72-6.84-2.58l-.43,1.12c2.88,1.16,5.92,2.33,9.09,3.47l5.66-16.57Z"/><path class="cls-7" d="M286.63,337.2,284,353.13c-3.2-.23-6.5-.67-9.85-1.24l-.34,1.63a105.08,105.08,0,0,0,12,1.62l2.86-17.53Z"/><path class="cls-6" d="M246.22,373s-21.32-14.84-29.94-18.82l-5.6,10.63s30.68,32.22,98.18,32.22l14.57-181.79-6.51-2.46L297.74,381.35l-19.82-8.57,1.28,3.84-16.62-6.91,2.81,5.63-19.17-9.72Z"/><path class="cls-31" d="M361,198.6l-38.35-1.53-34.9,4.21L279,231.2s55.8,18.22,93.57-3.45Z"/><path class="cls-17" d="M321.53,184.9l-1.28-1.56-26.75-1.76S280.44,196.07,279,206.64l27.39,7.64-1.5-2.55,28.46,5.1s-3.42-3.53-2.78-3.72,26.1,1.37,26.1,1.37-7.49-2.75-6.2-2.75,17.12-2.93,17.12-2.93l-1.71-12-1.5,1.57-2.57-10.19L359.83,191l-6.2-11s-15.41,6.07-19.05,6.07-3-2.94-3-2.94Z"/><path class="cls-6" d="M350.42,211.73c1.28,0,17.12-2.93,17.12-2.93l-1.71-12-1.5,1.57-1.75-6.94L340.29,190s-13.06,14.49-14.56,25.07l3.94,1.1,3.63.65s-3.42-3.53-2.78-3.72,26.1,1.37,26.1,1.37S349.13,211.73,350.42,211.73Z"/><path class="cls-26" d="M306.91,122.24l25.38-.91s-28.81-57.15-29.61-57.62S314.48,113,314.48,113L290.39,89.52Z"/><path class="cls-28" d="M329.19,141.26c4.21-6.33-67.69-28.76-67.69-28.76l-10.36,13.81c.77-.2,35.48,10.93,35.48,10.93l-2.5-4.8S325,147.59,329.19,141.26Z"/><path class="cls-32" d="M316,145.25a53.93,53.93,0,0,1-42.14-22.17l-2,1.24a56.27,56.27,0,0,0,44,23.25c.62,0,1.22,0,1.82,0,10.34,0,17.78-2.45,22.15-7.3,3.46-3.86,4.86-9.11,4.05-15.2-.53-3.94-4-13.75-4.19-14.17l-2.18.79c0,.09,3.58,10,4.07,13.69.72,5.39-.48,10-3.48,13.33C334,143.34,326.56,145.53,316,145.25Z"/><path class="cls-4" d="M236,127.07l4.47-2.6a6.13,6.13,0,0,1,1.67-1l-1.67,1a5.88,5.88,0,0,0-2,5.93s14.7-10.87,19.3-10.49c0,0,38.61,21.48,53.7,22,0,0-4.09-4.6-2.3-4.34s19.94,5.36,19.94,5.36L338,126.31l1.53,4.85,2.3-20.71h4.6s-8.43-6.9-14.31-7.41-7.67.25-7.67.25l-4.86,14.32S290.45,101,266.67,103.29s-20.45,7.93-20.45,7.93l4.09-.77S236.25,117.1,236,127.07Z"/><path class="cls-33" d="M328.61,124.2l.15,18.64.3.08L338,126.31l1.53,4.85,2.3-20.71h4.6s-7.06-5.78-12.77-7.15c-2.43,4.26-6.62,11.75-6.21,11.88.58.2,4.6-2.11,4.6-2.11l-8.24,14.19Z"/><polygon class="cls-2" points="328.23 131.1 321.52 135.7 354.88 183.45 356.8 171.75 328.23 131.1"/><polygon class="cls-34" points="332.53 141.96 345.95 148.67 337.82 136.54 332.53 141.96"/><polygon class="cls-34" points="339.63 131.38 352.14 135.25 343.63 123.89 339.63 131.38"/><polygon class="cls-2" points="323.05 132.44 288.92 174.25 300.04 178.46 329.57 142.22 323.05 132.44"/><polygon class="cls-34" points="315.95 145.63 321.89 161.25 324.73 145.51 315.95 145.63"/><path class="cls-24" d="M295.24,176.89s12.87,21.78,32.32,9.39,3.3-30.29,3.3-30.29l-3.39-1.45s-14,3.29-15,12.77-12.1,6.58-12.1,6.58.58,6.49,11.61,3.39A14.47,14.47,0,0,1,295.24,176.89Z"/><path class="cls-28" d="M317.3,79.9,279.2,68.14,284.83,90s27.48,10.1,30.55,13.81l10.48-2.94-6-16.88L321,81.82Z"/><path class="cls-28" d="M315.11,84.09l-5.54,8.58,15.09,1.42-.39-12.71A20,20,0,0,0,315.11,84.09Z"/><path class="cls-26" d="M309.25,48.38l-27.11,11.9c-.38.52,4.05,10.62,4.21,11.67a34.25,34.25,0,0,0,4.08,4.69c6.15,2.18,13.72,5.61,14.83,8.85,1.84,5.37,1.06-2.12,1.06-2.12l3.19-.25-.62,1.24s-.5,2,2.93,3.37,4.86.88,4.86.88-2.26-5.08-.06-5.75A35,35,0,0,0,320,81.14l-1.06-6.24L324,73.06A91.09,91.09,0,0,0,309.25,48.38Z"/><path class="cls-28" d="M306.1,69.92c3.8-.46,5.6-4.57,5.6-4.57l-1.46-.55-5.34-2.27-2.67.69-3,2.56S302.31,70.37,306.1,69.92Z"/><path class="cls-30" d="M303.21,69.57a50.8,50.8,0,0,1,6-.55l-.87-2.57C307,66,303.21,69.57,303.21,69.57Z"/><path class="cls-28" d="M311.82,87.73a16.46,16.46,0,0,0,1.78.58c-6.87-13.1-25.36-17.1-25.36-17.1L284,62.46l-.85,1.2c1.22,3.2,3.09,7.61,3.19,8.29a34.25,34.25,0,0,0,4.08,4.69c6.15,2.18,13.72,5.61,14.83,8.85,1.84,5.37,1.06-2.12,1.06-2.12l3.19-.25-.62,1.24S308.39,86.4,311.82,87.73Z"/><path class="cls-35" d="M312.49,66.07l.25-2.52a45.71,45.71,0,0,1-8.4-2.6s-5.17,4-5.68,5.18c-.13.31,5.31-2.65,5.31-2.65S309.56,66.51,312.49,66.07Z"/><path class="cls-35" d="M297.19,57.46c-.75-7.45-13.88-4-13.88-4l-7.82,6.41c-.13,1.26,0,16.92,0,16.92l17,9.62-4.54-17.1S297.94,64.91,297.19,57.46Z"/><path class="cls-35" d="M286.76,108.43l0-.21Z"/><path class="cls-35" d="M277.11,103.44c5,14.07,12.78,15.87,12.78,15.87-3.84-2.91-3.27-9.6-3.13-10.88l0-.21,0,.21c-.11,1.23-.12,7.56,11.26,11.27,12.64,4.13,24.25,16.52,26.84,13S332.47,116,332.47,116l1.42,1.55c5-7.87-2.2-18.45-2.2-18.45l1.29,1.16C330.53,90.15,321.5,86,321.5,86l-4.13.91v3.35l-4.51-1.55-4,2.33L279.44,66.41l.9,9.16S272.08,89.38,277.11,103.44Z"/><path class="cls-24" d="M304.21,97l-.13,3.1C297.15,88.94,285.52,83.24,278,80.58c-2,5.27-4.08,14-.92,22.86,5,14.07,12.78,15.87,12.78,15.87-3.84-2.91-3.27-9.6-3.13-10.88-.11,1.23-.12,7.56,11.26,11.27,12.64,4.13,24.25,16.52,26.84,13a54.53,54.53,0,0,0,4.36-8.73c-2.46-7.6-10.3-14.24-10.3-14.24l-4.13,4.39C315.82,102,304.21,97,304.21,97Z"/><path class="cls-26" d="M289,87.23c2.84-2.62-3.64-8.91-3.64-8.91s-.11-.12-.31-.3c-.9-.84-3.78-2.94-7.76-.45C272.47,80.61,286.19,89.85,289,87.23Z"/><path class="cls-28" d="M289,87.23a2.64,2.64,0,0,0,.51-2.9,25,25,0,0,0-3-3.72,3.29,3.29,0,0,0-.3-.3c-.91-.83-3.79-2.93-7.77-.44a1.9,1.9,0,0,0-1,1.95C280.18,85.32,287.11,89,289,87.23Z"/><path class="cls-35" d="M300.9,53.26l-25.2,14.1s-8.3,1.32,5.08,2.83S300.9,53.26,300.9,53.26Z"/><path class="cls-35" d="M321,81.82c2.18-.51,2.18-6.7-.92-6.89,0,0-11.42,2.13-12,10.45s-6.77,15.29-6.77,15.29,7.93-1,10.45-7.36S318.83,82.32,321,81.82Z"/><path class="cls-36" d="M330.05,156.21l-1.74-28.93c-.49-.1-12.58,1.94-12.58,1.94s4.85,18.41,6.84,25.8c.25,1,.46,1.74.61,2.26Z"/><polygon class="cls-34" points="315.21 82.51 315.56 87.73 318.31 85.19 315.21 82.51"/><path class="cls-37" d="M268,70.94l46.86-19c-2-4.49-7.14-12.71-19.33-15.68C285,33.7,279.11,27.83,276.18,23.72c.76,5,.63,13.28-5.18,22.5C264.31,56.83,266.31,66.34,268,70.94Z"/><path class="cls-38" d="M268,70.94l21.48-8.7c1.5-3.61.33-14.2-5.06-19.9-4.45-4.69-6.87-13.64-7.85-18.06l-.41-.56c.76,5,.63,13.28-5.18,22.5C264.31,56.83,266.31,66.34,268,70.94Z"/><path class="cls-6" d="M265,63.5c-2.06,1.7,0,7.2,0,7.2L266.53,69l.42,6.4,4-3.36-.1,2.6,7.78-4,1.81.21,1.66-1.61,11.33-3-.55-1.36,13-4.31-1.63-.8L313,57.61l-1.17-1.48,6.41-2-2.79-3.69,1.11-.45-1-2.61-1.39-1.65.24-1.2s-.53-.94-3.92-.42-12.55,6.08-12.55,6.08l1-2.44L288.44,54l.66-2.29-14.17,7.75.4-1.15Z"/><path class="cls-39" d="M292.16,56.64c-2.06,1.7,0,7.2,0,7.2l1.48-1.69.16,2.46,12-4-1.63-.8L313,57.61l-1.17-1.48,6.41-2-2.79-3.69,1.11-.45-1-2.61L314.27,46l-12.19,6.66.4-1.15Z"/><path class="cls-4" d="M242.13,123.49a6.13,6.13,0,0,0-1.67,1Z"/><path class="cls-27" d="M344.05,384.41c10.24,10.24,33.88,28.76,37.82,2.76s28.75-29.94,28.75-29.94l11.82-15.76-8-9.86c-12.8-1.86-33.3-.22-52.24,19.26l-2.25-3-20.07,16.9,6.25,1L335.38,374A92.28,92.28,0,0,0,344.05,384.41Z"/><path class="cls-28" d="M410.62,357.23l11.82-15.76-8-12.19c-7.13-1-16.66,1.35-27,5-.33.11-.67.24-1,.37l-.63.23-1,.39-.68.28-1,.42-.71.32-.95.44-.73.36-.93.47-.79.42-.89.48-.92.53c-.46.26-.91.54-1.37.81l-1,.65-.75.49-1,.64-.77.54-.94.68c-.26.19-.52.38-.77.58s-.64.48-1,.73l-.76.6c-.33.26-.65.53-1,.8s-.49.41-.73.62l-1,.89-.69.61-1.12,1-.57.54c-.56.54-1.12,1.1-1.67,1.67h0l-2.25-3-.94.8L384,379.11C391.16,360.33,410.62,357.23,410.62,357.23Z"/><path class="cls-27" d="M283.65,440.92c.78,5.75,17.29,18.23,29.3,25.63.06-.16.12-.33.17-.5,4.52-14.71-11.56-32.55-11.56-32.55l18.74-11.58,10.23-13.72,5.81-3.91c5.81-3.92.91-8.26.91-8.26l1.88.9,1.15.41c1.14.41,37.23-26.51,38.7-26.59l-19.59-22.4-19.48,16.4,6.25,1-19.08,14.62,6.07.07s-11.85,7.77-16.39,15.37l4.47-2.33s-9.65,10-12.26,21.15C296.44,424.42,283,436.15,283.65,440.92Z"/><path class="cls-4" d="M327.81,426.31,311,408.62a33.53,33.53,0,0,0-1.93,5.5l16.27,15.33c.09-.6.19-1.21.31-1.8Z"/><path class="cls-4" d="M323.64,387.87c-1.07,1-2.14,2-3.13,3.09l15,30.54,2.28-1.43Z"/><polygon class="cls-4" points="338.73 422.99 338.97 422.83 338.92 422.71 338.73 422.99"/><path class="cls-4" d="M328.2,384c-.76.59-1.56,1.24-2.38,1.93l22.57,30.6,2.53-1.69C344.56,406.23,335.6,394.06,328.2,384Z"/><polygon class="cls-4" points="357.89 414.21 358.51 413.7 340.09 370.39 337.2 372.61 356.4 411.22 356.46 411.18 356.43 411.27 357.89 414.21"/><polygon class="cls-4" points="345.22 366.46 341.73 369.14 370.17 409.88 371.67 408.94 345.22 366.46"/><path class="cls-4" d="M294.86,426.37c-.82.75-1.62,1.48-2.38,2.21,13.14,6.35,24.07,15.3,32.29,23.58-.13-1.88-.23-3.9-.29-6C315.93,438.89,304.54,431.79,294.86,426.37Z"/><polygon class="cls-4" points="339.91 364.75 344.61 365.49 342.69 362.41 339.91 364.75"/><path class="cls-40" d="M508.45,122.28l-5.06-11.37c.26-1.23-4.25-4.32-4.49-4.44a89.78,89.78,0,0,0-9.26,6.67c-.13.39-8.46,9-1.72,13.08S508.45,122.28,508.45,122.28Z"/><path class="cls-41" d="M512.4,134.19c-.55-11-3.4-26-13.52-36.48C489,79.34,472.16,53.46,450.51,40.65,414.84,19.56,381.09,21.86,376.1,0c0,0-3.11,21.67,24.93,28.38,27.23,6.52,70,25.82,95.5,88.59l.4,0c1.85,5.44,3.63,11.28,5.14,17.22,12,58.25-8.65,95.7-25.21,116-18.24,22.34-2.63,37.68-2.63,37.68-9.28-20.41,19-39,34.54-77.43C518.48,186.56,515.8,154.77,512.4,134.19Z"/><path class="cls-26" d="M501,118.43s-6.49-11.51-8.31-12.38-7.25,8.17-7.25,8.17l3,10.63c7.85-1.6,4.75-14,4.75-14l6.88,7.71Z"/><path class="cls-26" d="M446.34,145.57s27-13,28-13.48S472.16,117,472.16,117l-31.4,5.68s-.47-.92-15-.6-26.85,13-26.85,13l2,16.78C414.88,164.42,446.34,145.57,446.34,145.57Z"/><path class="cls-28" d="M388.44,143.37c.7,2.39,1.82,2.72,1.05,6-.34,1.52,14.73,3,13.65,4.09,14.82,9.08,43.2-7.93,43.2-7.93L472.45,133c-1.18-2.18-2.27-3.92-2.27-3.92s-16.73,3.65-18.66,4.19,13.7-7,13.7-7l-52.64,18.53,5.86-8.12S395,141.23,388.44,143.37Z"/><polygon class="cls-4" points="487.43 111.82 453.57 118.53 460.41 139.79 492.42 125.74 487.43 111.82"/><path class="cls-6" d="M483.58,118.21l-3.6.14,5.32,6.14s-3.23.6-3.1.84,4.35,4,4.35,4l-2.4.35s2.42,3.63,7.17,1.67,3.49-5,3.49-5-5-14.54-7.17-16.78-7.19-1.12-7.19-1.12l2.08,2.41-5,.79Z"/><path class="cls-6" d="M452.6,141.17c.34.24,13.31,7.14,14.81-2.1.1-.59-4-19.06-9.27-23.17s-11.05.13-10.91.38,3.85,5.43,3.85,5.43l-3.19-.3,6,11.84L451,132.13l5.55,8.93S452.25,140.93,452.6,141.17Z"/><polygon class="cls-26" points="505.04 100.85 494.04 107.55 494.84 109.72 507.57 106.24 505.04 100.85"/><polygon class="cls-26" points="508.25 105.8 497.25 112.5 498.05 114.67 510.78 111.19 508.25 105.8"/><polygon class="cls-26" points="510.47 110.69 499.48 117.39 500.28 119.56 513 116.07 510.47 110.69"/><polygon class="cls-26" points="500.36 120.23 500.31 122.54 513.43 123.94 513.04 118 500.36 120.23"/><polygon class="cls-36" points="517.6 93.96 310.9 179.53 312.03 184.34 518.73 98.78 517.6 93.96"/><polygon class="cls-41" points="386.8 20.01 323.39 172.4 323.02 173.29 470.09 266.37 471.32 264.42 325.89 172.39 388.93 20.9 386.8 20.01"/><path class="cls-36" d="M310.73,182.73s-4.27,21.3-3.19,20.78,9.65-7.16,9.65-7.16l-2,5.44,13.94-14.4-4.28-16.27-22.45-6.76,5.78,4.85-14.94-2.3,7.64,6.12-11.15-.9Z"/><path class="cls-26" d="M303,187.83c2.32,3.61,2.89,4.35,2.89,4.35l3.94,5.54L334,190.06l-1-4.6,1.55-.91-1.82-5.62,1-.85-4.22-7.15.62-.77-4.57-3.73-8.19,2.4s.77,1.33.41,1.81-8.55,2.56-8.55,2.56l-.28-1.6-.7-2.39-5.68,1.92.83,4.73S300.69,184.23,303,187.83Z"/><path class="cls-26" d="M286.53,200.18l-14.7-13c-.65-.22-17.95-4.54-25.3,5.62s-1.51,19.24,8.86,21.4S283.29,208.83,286.53,200.18Z"/><polygon class="cls-4" points="303.4 179.42 261.6 187.7 270.04 213.95 309.56 196.61 303.4 179.42"/><path class="cls-6" d="M298.64,187.31l-4.43.17,6.56,7.59s-4,.73-3.82,1,5.36,4.92,5.36,4.92l-3,.43s3,4.48,8.86,2.06,4.3-6.23,4.3-6.23-6.13-17.95-8.85-20.72-8.88-1.38-8.88-1.38l2.57,3-6.13,1Z"/><path class="cls-6" d="M260.39,215.65c.43.3,16.44,8.83,18.29-2.59.12-.73-4.93-23.53-11.45-28.61s-13.64.16-13.47.47,4.76,6.71,4.76,6.71l-3.94-.37,7.36,14.61-3.55-1.38,6.85,11S260,215.36,260.39,215.65Z"/><path class="cls-37" d="M517.7,111.87,529,96.75l-.43,5.84,6.57-9.16.88,4.61,16.17-15.48H524.17l6.35,2.54-13.57.8,5.52,2.46-18.5,2C520.34,95.92,517.7,111.87,517.7,111.87Z"/><path class="cls-38" d="M535.17,93.43l.88,4.61,16-15.28c-9,3.45-28,10.73-38,14.56a20.87,20.87,0,0,1,3.66,14.55L529,96.75l-.43,5.84Z"/><polygon class="cls-34" points="288.15 155.63 299.37 141.7 290.86 137.44 288.15 155.63"/><path class="cls-34" d="M303.82,142.93c-.77-.52,0,16.77,0,16.77l9-14.58S304.6,143.44,303.82,142.93Z"/><path class="cls-28" d="M290,84s-1.73-9.36-10.77-11.34a29.8,29.8,0,0,0-16.19.91s10.48,13.66,21.31,14.17S290,84,290,84Z"/><path class="cls-26" d="M279.26,77.25c3.16,4.55,7.7,10.62,11.89,8.32A4.16,4.16,0,0,0,290,84s-1.73-9.36-10.77-11.34a30,30,0,0,0-16.13.88C268.3,73.59,277,74.05,279.26,77.25Z"/><path class="cls-42" d="M178.78,412.38l-2.46-.86a3.27,3.27,0,0,0-4.16,2l-1.79,5.14a3.27,3.27,0,0,0,2,4.15l1.73.61a24.49,24.49,0,0,0,45.68,15.93l1.73.61a3.27,3.27,0,0,0,4.16-2l1.79-5.14a3.27,3.27,0,0,0-2-4.15L223,427.8a50.94,50.94,0,0,0-1.29-17.15l.73.25a2.53,2.53,0,0,0,2.41-4.38,2.53,2.53,0,0,0,3-1.63l1.43-4.1a2.55,2.55,0,0,0-1.56-3.24l-34.59-12.06a2.54,2.54,0,0,0-3.23,1.56l-1.43,4.11a2.53,2.53,0,0,0,1.29,3.11,2.53,2.53,0,0,0-.83,4.92l1.58.55A51.05,51.05,0,0,0,178.78,412.38Z"/><path class="cls-17" d="M200.13,420l-2.47-.86a3.27,3.27,0,0,0-4.15,2l-1.8,5.13a3.28,3.28,0,0,0,2,4.16l1.74.61a24.48,24.48,0,0,0,6.1,21,24.52,24.52,0,0,0,18.23-12.69l1.73.61a3.27,3.27,0,0,0,4.16-2l1.79-5.14a3.27,3.27,0,0,0-2-4.15L223,427.8a50.94,50.94,0,0,0-1.29-17.15l.73.25a2.53,2.53,0,0,0,2.41-4.38,2.53,2.53,0,0,0,3-1.63l1.43-4.1a2.54,2.54,0,0,0-.74-2.76l-14.06-4.91a2.56,2.56,0,0,0-3.24,1.56l-1.43,4.11a2.55,2.55,0,0,0,1.3,3.12,2.53,2.53,0,0,0-.84,4.92l1.59.55A50.86,50.86,0,0,0,200.13,420Z"/><path class="cls-42" d="M136.43,403.52a24.49,24.49,0,0,0,29.93,10.8l.91,1.59a3.28,3.28,0,0,0,4.45,1.23l4.73-2.69a3.29,3.29,0,0,0,1.23-4.46l-1.3-2.27A50.72,50.72,0,0,0,186.7,394l.38.67a2.53,2.53,0,0,0,4.69-1.71,2.54,2.54,0,0,0,3.3.71l3.78-2.15a2.54,2.54,0,0,0,1-3.46l-18.12-31.84a2.55,2.55,0,0,0-3.46-.95l-3.78,2.15a2.54,2.54,0,0,0-1.07,3.2,2.53,2.53,0,0,0-3.87,3.16l.83,1.46A50.86,50.86,0,0,0,153.22,367l-1.29-2.27a3.28,3.28,0,0,0-4.45-1.23l-4.73,2.7a3.27,3.27,0,0,0-1.22,4.45l.91,1.59A24.49,24.49,0,0,0,136.43,403.52Z"/><path class="cls-17" d="M144.29,411.89a24.51,24.51,0,0,0,22.07,2.43l.91,1.59a3.28,3.28,0,0,0,4.45,1.23l4.73-2.69a3.29,3.29,0,0,0,1.23-4.46l-1.3-2.27A50.72,50.72,0,0,0,186.7,394l.38.67a2.53,2.53,0,0,0,4.69-1.71,2.54,2.54,0,0,0,3.3.71l3.78-2.15a2.53,2.53,0,0,0,1.25-2.57L192.74,376a2.55,2.55,0,0,0-3.46-.95l-3.79,2.15a2.53,2.53,0,0,0-1.06,3.2,2.53,2.53,0,0,0-3.87,3.16l.82,1.46a50.8,50.8,0,0,0-17.1,1.84L163,384.55a3.28,3.28,0,0,0-4.46-1.22L153.8,386a3.27,3.27,0,0,0-1.22,4.45l.91,1.6A24.5,24.5,0,0,0,144.29,411.89Z"/><path class="cls-43" d="M550.27,473.29l.5,1.13C550.5,473.46,550.27,473.29,550.27,473.29Z"/><path class="cls-43" d="M538.91,441.55l-17.54,6.19s-24.52,29.16-11.1,49.55l3.1-9s.25,18.06,7.74,24.77,2.06,19.61,2.06,19.61,16.52-4.64,15-27.09l2.32,10.58s10.58-8.52,11.1-25c.33-10.62-.3-14.94-.79-16.68l-.5-1.13s.23.17.5,1.13l4.66,10.48S556.46,447.23,538.91,441.55Z"/><path class="cls-44" d="M530.39,444.56l-9,3.18s-24.52,29.16-11.1,49.55l3.1-9s.25,18.06,7.74,24.77a11.22,11.22,0,0,1,3.06,4.57c3-11.55.68-27.92.68-27.92L531,495.1l-4.26-26.71,7.75,7.74Z"/><path class="cls-8" d="M486.91,281.43l-8.12,3.48c.77,65.8,41.8,139.35,41.8,139.35l8.13-8.52C493.88,371.23,486.91,281.43,486.91,281.43Z"/><ellipse class="cls-17" cx="532.01" cy="426.58" rx="24.58" ry="27.1"/><ellipse class="cls-45" cx="532.01" cy="426.58" rx="15.68" ry="17.03"/><ellipse class="cls-46" cx="532.01" cy="426.58" rx="8.71" ry="8.52"/><path class="cls-44" d="M454.21,531.29s17.42,4.84,26.9-17.23a120.63,120.63,0,0,0,9.48-42.77l5.23,17.61V454.07s3.68,8.7,3.68,7.74-.39-24-5-31.94L491,432.78s-15.48,13.54-14.13,31.93-12.19,41.61-11.42,41.61,12-11.8,12-11.8S474,529.74,454.21,531.29Z"/><path class="cls-44" d="M563.94,473.81l4.26-9.29s-3.09,40.64-1.16,39.87,6.58-14.71,6.58-14.71,10.45,27.87-.39,45.67c0,0,15.88-2.71,14.71-41.41s-24.75-67.1-24.75-67.1l.37,1.68S559.3,464.52,563.94,473.81Z"/><path class="cls-44" d="M500.46,427.74a5.42,5.42,0,1,0-5.42,5.42A5.42,5.42,0,0,0,500.46,427.74Z"/><path class="cls-44" d="M568.59,425.81A6.2,6.2,0,1,0,562.4,432,6.2,6.2,0,0,0,568.59,425.81Z"/><path class="cls-8" d="M702.52,242.33l-5.68-4.9-24.51,30.45-68.39-28.65-2.58,5.16c2.07,0,73.16,32.39,73.16,32.39Z"/><circle class="cls-17" cx="674.52" cy="276.78" r="12"/><path class="cls-29" d="M679.72,276.78a5.2,5.2,0,1,0-5.2,5.2A5.2,5.2,0,0,0,679.72,276.78Z"/><path class="cls-8" d="M588.31,203l-7-1.07c.83,1.78,36.76,75.51,36.76,75.51l4-5Z"/><circle class="cls-17" cx="604.07" cy="241.17" r="15.48"/><path class="cls-29" d="M610.78,241.17a6.71,6.71,0,1,0-6.71,6.71A6.7,6.7,0,0,0,610.78,241.17Z"/></g></g></svg>