<svg xmlns="http://www.w3.org/2000/svg" viewBox="0 0 833.3 582.89"><defs><style>.cls-1{fill:#777f2a;}.cls-2{fill:#e0e08c;}.cls-3{fill:#ccca76;}.cls-4{fill:#a1ad32;}.cls-5{fill:#5e4970;}.cls-6{fill:#e2e5b3;}.cls-7{fill:#ffd110;}.cls-8{fill:#dde279;}.cls-9{fill:#969b26;}</style></defs><g id="Layer_2" data-name="Layer 2"><g id="Capa_1" data-name="Capa 1"><path class="cls-1" d="M160.46,423.3a6.62,6.62,0,0,1-4.64-7.52c-7.7,1.55-5.67,7.36-5.67,7.36,2.49,2.52,3.73,3.77,6.21,6.25C156.36,429.39,166.23,425.26,160.46,423.3Z"/><path class="cls-1" d="M173.25,423.43c-5.63-1.59-4.59-7.38-4.59-7.38-7.49,2.15-5.45,8-5.45,8l6.1,5.94S178.89,425,173.25,423.43Z"/><path class="cls-1" d="M185.74,422.66c-5.52-1.24-4.55-7.24-4.55-7.24-7.29,2.71-5.25,8.55-5.25,8.55l6,5.66S191.25,423.91,185.74,422.66Z"/><path class="cls-1" d="M197.93,421.07c-5.41-.93-4.5-7.12-4.5-7.12-7.11,3.24-5.07,9.09-5.07,9.09,2.37,2.17,3.55,3.25,5.92,5.39C194.28,428.43,203.33,422,197.93,421.07Z"/><path class="cls-1" d="M211,418.43c-5.29-.61-4.46-7-4.46-7-6.92,3.76-4.87,9.63-4.87,9.63,2.33,2.06,3.49,3.09,5.82,5.12C207.53,426.19,216.33,419,211,418.43Z"/><path class="cls-1" d="M222.69,415.3c-5.2-.34-4.41-6.89-4.41-6.89-6.78,4.21-4.72,10.08-4.72,10.08,2.3,2,3.45,3,5.74,4.9C219.3,423.39,227.9,415.64,222.69,415.3Z"/><path class="cls-1" d="M234.13,411.53c-5.12-.1-4.39-6.79-4.39-6.79-6.63,4.6-4.57,10.49-4.57,10.49,2.27,1.89,3.4,2.83,5.67,4.7C230.84,419.93,239.25,411.63,234.13,411.53Z"/><path class="cls-1" d="M245.36,407.19c-5,.12-4.35-6.7-4.35-6.7-6.51,4.95-4.45,10.86-4.45,10.86,2.24,1.81,3.37,2.72,5.61,4.51C242.17,415.86,250.4,407.07,245.36,407.19Z"/><path class="cls-1" d="M256.6,402.25c-5,.31-4.33-6.62-4.33-6.62-6.39,5.28-4.33,11.19-4.33,11.19l5.55,4.35S261.58,401.94,256.6,402.25Z"/><path class="cls-1" d="M267.5,397c-4.92.47-4.31-6.56-4.31-6.56-6.3,5.55-4.23,11.48-4.23,11.48l5.5,4.2S272.41,396.47,267.5,397Z"/><path class="cls-1" d="M278.26,391.26c-4.87.61-4.29-6.5-4.29-6.5-6.22,5.78-4.14,11.73-4.14,11.73l5.45,4.07S283.13,390.64,278.26,391.26Z"/><path class="cls-1" d="M288.91,385.24c-4.83.74-4.27-6.45-4.27-6.45-6.15,6-4.07,11.94-4.07,11.94l5.42,4S293.73,384.51,288.91,385.24Z"/><path class="cls-1" d="M300.53,378.33c-4.8.83-4.26-6.42-4.26-6.42-6.09,6.15-4,12.12-4,12.12l5.39,3.88S305.32,377.49,300.53,378.33Z"/><path class="cls-1" d="M311,371.84c-4.77.9-4.25-6.39-4.25-6.39-6.05,6.26-4,12.25-4,12.25l5.36,3.81S315.78,370.94,311,371.84Z"/><path class="cls-1" d="M321.45,365.22c-4.76.94-4.24-6.37-4.24-6.37-6,6.33-3.94,12.33-3.94,12.33l5.35,3.77S326.2,364.29,321.45,365.22Z"/><path class="cls-1" d="M331.86,358.54c-4.75.95-4.24-6.36-4.24-6.36-6,6.35-3.92,12.36-3.92,12.36l5.34,3.75S336.61,357.59,331.86,358.54Z"/><path class="cls-1" d="M341.4,352.41c-4.75.95-4.24-6.36-4.24-6.36-6,6.35-3.92,12.37-3.92,12.37l5.34,3.74S346.16,351.47,341.4,352.41Z"/><path class="cls-1" d="M351.83,345.78c-4.76.91-4.24-6.38-4.24-6.38-6,6.3-3.93,12.34-3.93,12.34l5.34,3.75S356.6,344.87,351.83,345.78Z"/><path class="cls-1" d="M362.3,339.26c-4.78.85-4.25-6.4-4.25-6.4-6.07,6.21-4,12.26-4,12.26,2.15,1.51,3.22,2.27,5.36,3.79C359.45,348.91,367.09,338.41,362.3,339.26Z"/><path class="cls-1" d="M372.84,332.91c-4.82.77-4.27-6.43-4.27-6.43-6.11,6.08-4,12.15-4,12.15l5.37,3.84S377.65,332.15,372.84,332.91Z"/><path class="cls-1" d="M384.53,326.21c-4.86.65-4.28-6.48-4.28-6.48-6.18,5.9-4.06,12-4.06,12l5.41,3.93S389.39,325.56,384.53,326.21Z"/><path class="cls-1" d="M395.27,320.44c-4.91.51-4.3-6.53-4.3-6.53-6.26,5.68-4.13,11.77-4.13,11.77,2.17,1.6,3.26,2.4,5.43,4C392.27,329.7,400.17,319.93,395.27,320.44Z"/><path class="cls-1" d="M406.13,315c-5,.36-4.32-6.59-4.32-6.59-6.34,5.43-4.21,11.53-4.21,11.53l5.47,4.13S411.09,314.69,406.13,315Z"/><path class="cls-1" d="M417.14,310.08c-5,.17-4.34-6.67-4.34-6.67-6.45,5.14-4.31,11.25-4.31,11.25,2.21,1.7,3.31,2.55,5.52,4.27C414,318.93,422.17,309.91,417.14,310.08Z"/><path class="cls-1" d="M428.52,305.54c-5.1-.05-4.37-6.75-4.37-6.75-6.57,4.8-4.43,10.92-4.43,10.92,2.23,1.76,3.35,2.65,5.58,4.43C425.3,314.14,433.62,305.59,428.52,305.54Z"/><path class="cls-1" d="M439.91,301.64c-5.18-.28-4.41-6.84-4.41-6.84-6.69,4.42-4.55,10.56-4.55,10.56l5.64,4.6S445.09,301.92,439.91,301.64Z"/><path class="cls-1" d="M451.51,298.36c-5.27-.54-4.44-6.95-4.44-6.95-6.84,4-4.69,10.16-4.69,10.16,2.28,1.91,3.42,2.87,5.7,4.8C448.08,306.37,456.79,298.91,451.51,298.36Z"/><path class="cls-1" d="M463.35,295.77c-5.37-.83-4.48-7.06-4.48-7.06-7,3.55-4.84,9.71-4.84,9.71l5.78,5S468.73,296.59,463.35,295.77Z"/><path class="cls-1" d="M476.69,293.77c-5.49-1.17-4.53-7.19-4.53-7.19-7.19,3-5,9.18-5,9.18,2.34,2.09,3.52,3.14,5.87,5.26C473,301,482.19,294.94,476.69,293.77Z"/><path class="cls-1" d="M489.11,292.82c-5.61-1.51-4.58-7.33-4.58-7.33-7.38,2.46-5.21,8.66-5.21,8.66,2.37,2.19,3.57,3.29,5.95,5.51C485.27,299.66,494.72,294.32,489.11,292.82Z"/><path class="cls-1" d="M501.83,292.74a6.55,6.55,0,0,1-4.63-7.47c-7.58,1.88-5.41,8.09-5.41,8.09,2.41,2.29,3.63,3.45,6,5.79C497.84,299.15,507.57,294.61,501.83,292.74Z"/><path class="cls-1" d="M514.88,293.6C509,291.34,510.2,286,510.2,286c-7.8,1.26-5.63,7.48-5.63,7.48,2.46,2.42,3.69,3.64,6.16,6.09C510.73,299.54,520.75,295.85,514.88,293.6Z"/><path class="cls-2" d="M525.92,320.23C384.72,310,298.92,459,157.72,448.8q-4.87-13.94-9.74-27.88c141.2,10.22,227-138.79,368.21-128.57Z"/><path class="cls-3" d="M254.71,412.72l-1.48.66,6.33,18.14,1.49-.66C258.52,423.61,257.25,420,254.71,412.72Z"/><path class="cls-3" d="M289.87,394.66l-1.43.82,6.33,18.14c.58-.32.86-.49,1.43-.82Z"/><path class="cls-3" d="M334.35,367.11l-1.4.9,6.33,18.14,1.4-.9Z"/><path class="cls-3" d="M278.84,400.81l-1.44.78,6.33,18.14,1.44-.77Z"/><path class="cls-3" d="M322.62,374.62l-1.41.9c2.54,7.26,3.81,10.88,6.34,18.14l1.4-.89Z"/><path class="cls-3" d="M311.82,381.44l-1.41.88c2.54,7.26,3.8,10.89,6.34,18.14l1.41-.87C315.62,392.33,314.36,388.7,311.82,381.44Z"/><path class="cls-3" d="M301.77,387.63l-1.42.85c2.54,7.26,3.8,10.89,6.34,18.15l1.41-.86Z"/><path class="cls-3" d="M267.05,406.93l-1.47.72c2.54,7.25,3.81,10.88,6.34,18.14l1.46-.72Z"/><path class="cls-3" d="M243.21,417.51l-1.51.59c2.53,7.25,3.8,10.88,6.34,18.14l1.51-.58C247,428.4,245.74,424.77,243.21,417.51Z"/><path class="cls-3" d="M170.49,449.78c-2.54-7.26-3.8-10.89-6.34-18.14l-1.74-.08,6.33,18.14Z"/><path class="cls-3" d="M191.35,430.68l-1.65.18L196,449l1.65-.18Z"/><path class="cls-3" d="M177.35,431.69l-1.7.05c2.53,7.26,3.8,10.89,6.34,18.14l1.69,0Z"/><path class="cls-3" d="M229.87,422.26l-1.54.49,6.33,18.15,1.55-.49C233.67,433.15,232.41,429.52,229.87,422.26Z"/><path class="cls-3" d="M204.59,428.71,203,429l6.33,18.14,1.61-.29Z"/><path class="cls-3" d="M216.83,426l-1.58.39,6.33,18.14,1.58-.39Z"/><path class="cls-3" d="M391.77,332.13l-1.44.78,6.33,18.14,1.44-.78Z"/><path class="cls-3" d="M345.72,359.8l-1.4.9c2.54,7.25,3.8,10.88,6.34,18.14l1.4-.9C349.52,370.69,348.26,367.06,345.72,359.8Z"/><path class="cls-3" d="M453.55,306.88l-1.57.41c2.53,7.26,3.8,10.88,6.34,18.14l1.57-.41Z"/><path class="cls-3" d="M440.14,310.8l-1.54.5,6.33,18.15,1.54-.51Z"/><path class="cls-3" d="M479.41,302.09l-1.64.2,6.33,18.14,1.65-.19C483.21,313,482,309.35,479.41,302.09Z"/><path class="cls-3" d="M493,301.08l-1.69.07,6.33,18.14,1.69-.07Z"/><path class="cls-3" d="M519.59,302.09l-.45,0c2.53,7.26,3.8,10.89,6.34,18.14l.44.05Z"/><path class="cls-3" d="M506.17,301.08l-1.74-.05c2.54,7.25,3.8,10.88,6.34,18.14l1.73.06Z"/><path class="cls-3" d="M465.78,304.15l-1.61.32c2.54,7.25,3.8,10.88,6.34,18.14l1.6-.31Z"/><path class="cls-3" d="M368.32,345.65l-1.42.86c2.54,7.26,3.8,10.89,6.34,18.15l1.41-.86Z"/><path class="cls-3" d="M380.74,338.29l-1.42.83,6.33,18.14,1.43-.83C384.54,349.18,383.28,345.55,380.74,338.29Z"/><path class="cls-3" d="M356.51,353l-1.4.88L361.44,372l1.41-.88C360.31,363.84,359,360.21,356.51,353Z"/><path class="cls-3" d="M427.38,315.38l-1.51.6c2.54,7.25,3.81,10.88,6.34,18.14l1.51-.6C431.18,326.27,429.91,322.64,427.38,315.38Z"/><path class="cls-3" d="M403.92,325.82l-1.46.73,6.34,18.14,1.46-.73C407.72,336.71,406.46,333.08,403.92,325.82Z"/><path class="cls-3" d="M415.88,320.19l-1.48.66c2.54,7.26,3.8,10.89,6.34,18.15l1.48-.67C419.68,331.08,418.42,327.45,415.88,320.19Z"/><path class="cls-4" d="M513,292.1,513,292a148.87,148.87,0,0,0-27.52-.48s0,0,0,.07a.46.46,0,0,0-.07-.07c-5.5.33-8.22.61-13.58,1.34,0,.11,0,.22,0,.33-.08-.1-.17-.19-.26-.29-5.36.74-8,1.21-13.24,2.32,0,0,0,.05,0,.08l-.06-.06a220,220,0,0,0-36.1,11.13c0,.12,0,.24,0,.36l-.25-.25c-4.93,2-7.37,3-12.22,5.25,0,0,0,.06,0,.09l-.06-.06c-9.43,4.32-14.06,6.71-23.24,11.74a.28.28,0,0,0,0,.09l-.06-.05c-4.72,2.59-7.06,3.92-11.73,6.65,0,.13,0,.26,0,.39l-.24-.24c-4.67,2.73-7,4.13-11.62,7,0,0,0,.06,0,.09l-.06-.05c-9,5.52-13.48,8.38-22.41,14.11,0,.13,0,.26,0,.39a2.5,2.5,0,0,0-.23-.23L328.4,359c0,.13,0,.26,0,.39l-.24-.23c-4.59,2.95-6.89,4.43-11.49,7.35v.09l-.06-.05c-9,5.69-13.44,8.51-22.5,13.9v.09l-.06-.05c-4.66,2.77-7,4.13-11.69,6.77,0,.13,0,.26,0,.39l-.24-.24c-4.7,2.64-7.06,3.93-11.82,6.41v.09l-.06-.06a298,298,0,0,1-34.57,15.5l0,.37c-.07-.09-.16-.18-.24-.27-5,1.84-7.5,2.69-12.58,4.23a.19.19,0,0,0,0,.08l-.06-.06a165.92,165.92,0,0,1-25.28,5.92s0,.06,0,.08l-.07-.06c-5.31.87-8,1.22-13.46,1.7,0,.11,0,.22,0,.33l-.26-.3c-5.46.48-8.22.62-13.82.67a.64.64,0,0,1,0,.07l-.06-.07A150.53,150.53,0,0,1,148,420.92c2,5.76,3,8.64,5,14.41a12.4,12.4,0,0,0,5.39,1.92c2.92.25,5-1,5.61-2.94a11.84,11.84,0,0,0,7.9,3.58c3.17,0,5.27-1.74,5.6-4.2a10.59,10.59,0,0,0,8.39,3.79c3.19-.22,5.25-2.32,5.44-5a9.44,9.44,0,0,0,8.4,3.49,5.89,5.89,0,0,0,5.24-5.24,8.54,8.54,0,0,0,8,2.8,6.36,6.36,0,0,0,4.95-4.85,7.82,7.82,0,0,0,7.26,1.75,6.85,6.85,0,0,0,5-6.07,7.22,7.22,0,0,0,12.6-4.71,6.84,6.84,0,0,0,7.83,1.85,7.78,7.78,0,0,0,4.47-5.29,6.53,6.53,0,0,0,6.49.47,8.24,8.24,0,0,0,4.51-6.1,6.24,6.24,0,0,0,6.84.57,8.74,8.74,0,0,0,4.54-7.25,6,6,0,0,0,7.38.9,9.13,9.13,0,0,0,4.48-7.74,5.83,5.83,0,0,0,7.49.91,9.45,9.45,0,0,0,4.41-7.62,5.72,5.72,0,0,0,7.27.58,9.61,9.61,0,0,0,4.28-6.78,5.73,5.73,0,0,0,6.63,0,9.91,9.91,0,0,0,4.35-7.8c1.82,1.81,4.63,2.09,7.22.43a10,10,0,0,0,4.33-8.14c1.82,2,4.72,2.32,7.39.6a10,10,0,0,0,4.34-8.13c1.81,2,4.73,2.33,7.4.64a9.83,9.83,0,0,0,4.26-6.83,5.79,5.79,0,0,0,6.64,0,9.72,9.72,0,0,0,4.38-7.7,5.8,5.8,0,0,0,7.29.63,9.43,9.43,0,0,0,4.44-7.85,6,6,0,0,0,7.52,1,9.11,9.11,0,0,0,4.49-7.39,6.18,6.18,0,0,0,7.42,1,8.69,8.69,0,0,0,4.46-6.25,6.45,6.45,0,0,0,6.87.65,8.26,8.26,0,0,0,4.65-6.91,6.77,6.77,0,0,0,7.59,1.49,7.8,7.8,0,0,0,4.78-6.89,7.2,7.2,0,0,0,7.88,2,7.33,7.33,0,0,0,4.62-4.86,7.72,7.72,0,0,0,6.73,1.17,6.86,6.86,0,0,0,4.87-5.08,8.33,8.33,0,0,0,7.3,1.89,6.39,6.39,0,0,0,5.15-5.52,9.2,9.2,0,0,0,8.1,3c3.1-.49,5.14-2.63,5.33-5.31a10.21,10.21,0,0,0,8.46,3.69c3.08-.24,5.16-2.07,5.49-4.54a11.55,11.55,0,0,0,8.46,4c2.84,0,4.85-1.29,5.5-3.27a13.09,13.09,0,0,0,8,3.78c2.76.21,4.78-.77,5.57-2.47l-4.45-12.76c-1.26-.14-1.88-.21-3.13-.32A.64.64,0,0,0,513,292.1Z"/><path class="cls-5" d="M128.36,440.67s-11.12-3.55-25.49,4.12l7.53-1.53-4.46,5s17.53-7.54,25.09-2.17,6.4-2.37,6.4-2.37"/><path class="cls-6" d="M107.37,454l-.26-4.82,3.11,1.11.47-6.24s2.84.56,4.93,5.07l2.09,4.5L116.4,446s3.12-.89,5.29,2.93,2,1.17,2,1.17l-2.06-5.55a5.14,5.14,0,0,1,6.2,2c2.56,3.63-1.21-4-1.21-4s11.45,1.37,9,6.88-12.95,8.07-13.81,8.37"/><path class="cls-6" d="M98,435.39s.51,4.6,4.68,6.18c0,0-.44-6.05,0-6.4s4.66,3.54,4.66,3.54l2-4.06,3.77,3.79,2.6-3.11,3.41,3.46s3-5.05,2.74-5.47-3-4.32-6-5.2"/><path class="cls-1" d="M129.91,443.62s-10.48,3.66-15.46,6a31.07,31.07,0,0,1-11,2.55s5.36,13.12,17.37,16.81c0,0-5.28-8.11,8.33-11.31s40-2.34,31.89-22.25-25.61-13.41-25.61-13.41l1.64,22.34-3.4,3.08"/><path class="cls-4" d="M146.85,419.23s-28.43-4.81-31.93-4.49-10.65-5.71-8.52-10.33c0,0-17.33,7.73-10.37,33.21,0,0,14.47-5.18,24.27.31s13.6,17.47,30.27,10.1S159,417.82,146.85,419.23Z"/><path class="cls-1" d="M126.59,432.82l11.78-7.72s6.32,2.18,8.57,7.15a12.26,12.26,0,0,1-9.27,6.4C131.09,439.4,126.59,432.82,126.59,432.82Z"/><path class="cls-7" d="M140.73,431.31a4,4,0,1,0-2.44,5.05A4,4,0,0,0,140.73,431.31Z"/><path d="M138.64,432a1.75,1.75,0,1,0-1.08,2.23A1.75,1.75,0,0,0,138.64,432Z"/><path class="cls-1" d="M530.54,502.45c-40.34,5.24-39.69-8.76-85.11-17.06-29.32-5.35-88.89,2-123.13,7.51v0s-8.61,2.08-9,4.56c-.3,2.06,68.74,8.15,97.8,22.48l2.49.94C400.84,500.28,391,494.66,391,494.66s43.37-9,75.32,10.78,64.2,15.09,64.2,15.09Z"/><path class="cls-1" d="M653.28,361.67s20.61-16.14,56.23.28c0,0-12,13.27-3.93,20.38s10.25-16.44,41.55-.43c0,0-5.59,13.2,2.36,17.63s14.35-13.72,41.69,5.26c0,0-19.14,11.26-7.12,18.75s26.64,1.51,43.45,29.21c0,0-19.81,4.16-19.33,6.21s20-2.14,25.12,31.83c0,0-14.72-10.76-17.33,2.72s20.36,11.29.56,40.23c0,0-3.2-15.7-19.65-8.21s16.82,6.27-11.5,29.72c0,0-10.37-14.37-28.34-8.36s28.73,7.72-15.32,24c0,0,1.17-16-18.39-14.46s10.69,25.12-26.89,25.93c0,0,5-14.26-9.3-14.94s-4.56,20-33.85,14.56c0,0,9.8-8.12-6.33-11s-1.16,12.28-29.62,5.25c0,0,6.23-5.78-.09-9.72s-12.49,8.2-30.42-.52-13.69-14.68-13.69-14.68l62.65,10.25,66.12,1.88,79.85-37.35s24-41.26,23.47-43-22.55-34.26-35.18-38.8"/><path class="cls-1" d="M374.55,327,386,396s-25.87,37.13-27.16,44.3,1.4.19,1.4.19,20,14.05,30,11.15,23.26-49.37,23.26-49.37,6.49-8,10.37-3.9,2.17,6.51,2.17,6.51A23.09,23.09,0,0,0,429.68,393c-.09-6.4-11.16-3.39-11.16-3.39s4.79-54-.32-71.08-13.87-22.66-25.63-18.94S374.55,327,374.55,327Z"/><path class="cls-1" d="M367.54,439.92s-16.39-4-24.69.71-6.07,22.74-6.07,22.74,9.11-15.57,13.16-15.08,11.73,4.7,16.24,3.28,7.75-8.87,7.75-8.87"/><path class="cls-8" d="M342.85,440.63c-8.31,4.69-6.07,22.74-6.07,22.74s7.54-12.89,12-14.84c1.46-5.5.82-8.31-.48-9.71A17.1,17.1,0,0,0,342.85,440.63Z"/><path class="cls-1" d="M378.32,439.09s-16.39-4-24.69.71-6.07,22.73-6.07,22.73,9.11-15.57,13.16-15.07,11.73,4.69,16.24,3.28,7.75-8.88,7.75-8.88"/><path class="cls-8" d="M353.63,439.8c-8.31,4.68-6.07,22.73-6.07,22.73s7.54-12.88,11.95-14.83c1.46-5.5.82-8.32-.48-9.71A16.86,16.86,0,0,0,353.63,439.8Z"/><path class="cls-1" d="M389.31,439.3s-16.39-4-24.69.72-6.07,22.73-6.07,22.73,9.11-15.57,13.16-15.07S383.44,452.37,388,451s7.75-8.88,7.75-8.88"/><path class="cls-8" d="M364.62,440c-8.3,4.68-6.07,22.73-6.07,22.73s7.54-12.88,11.95-14.84c1.47-5.49.82-8.31-.48-9.71A17.2,17.2,0,0,0,364.62,440Z"/><path class="cls-1" d="M621,333.35c1.79-.33,30.44-5.92,51.77,7.64,0,0-15.5,9.84-12.74,17.88s11.66-14.47,32.3,6.31c0,0-16,4.77-12,13.18s-46.27-4.61-48.73-5.09"/><path class="cls-1" d="M192.84,63.26c2.28-6.37,8-2,8-2-1.32-10.36-7.4-11.3-7.4-11.3-2.73,1.78-4.08,2.7-6.77,4.58C186.71,54.58,190.56,69.63,192.84,63.26Z"/><path class="cls-1" d="M192.24,79.41c1.84-6.39,7.89-2.47,7.89-2.47-2-10-8.15-10.53-8.15-10.53-2.6,1.92-3.89,2.91-6.45,4.93C185.53,71.34,190.4,85.79,192.24,79.41Z"/><path class="cls-1" d="M192.73,95.26c1.41-6.39,7.71-3,7.71-3-2.69-9.71-8.85-9.77-8.85-9.77-2.46,2.06-3.68,3.12-6.1,5.28C185.49,87.82,191.32,101.65,192.73,95.26Z"/><path class="cls-1" d="M194.27,110.79c1-6.38,7.49-3.43,7.49-3.43-3.31-9.35-9.47-9-9.47-9-2.32,2.19-3.47,3.31-5.74,5.59C186.55,104,193.28,117.16,194.27,110.79Z"/><path class="cls-1" d="M197.13,127.47c.53-6.34,7.23-3.93,7.23-3.93-4-8.94-10.1-8.11-10.1-8.11-2.15,2.32-3.22,3.5-5.32,5.91C188.94,121.34,196.59,133.81,197.13,127.47Z"/><path class="cls-1" d="M200.74,142.22c.13-6.3,7-4.37,7-4.37-4.54-8.56-10.6-7.32-10.6-7.32-2,2.44-3,3.68-4.93,6.2C192.18,136.73,200.62,148.52,200.74,142.22Z"/><path class="cls-1" d="M205.29,156.56c-.28-6.24,6.67-4.79,6.67-4.79-5.07-8.16-11-6.52-11-6.52-1.84,2.54-2.74,3.83-4.52,6.45C196.4,151.7,205.56,162.8,205.29,156.56Z"/><path class="cls-1" d="M210.73,170.45c-.67-6.16,6.35-5.18,6.35-5.18-5.57-7.76-11.42-5.73-11.42-5.73-1.68,2.64-2.5,4-4.1,6.69C201.56,166.23,211.39,176.62,210.73,170.45Z"/><path class="cls-1" d="M217.13,184.1c-1-6.08,6-5.58,6-5.58-6-7.31-11.75-4.91-11.75-4.91-1.51,2.73-2.24,4.12-3.67,6.92C207.72,180.53,218.19,190.17,217.13,184.1Z"/><path class="cls-1" d="M224.26,197c-1.43-6,5.64-5.93,5.64-5.93-6.49-6.88-12-4.11-12-4.11-1.33,2.81-2,4.23-3.23,7.11C214.65,194.08,225.68,203,224.26,197Z"/><path class="cls-1" d="M232.15,209.39c-1.79-5.85,5.26-6.27,5.26-6.27-6.88-6.42-12.24-3.3-12.24-3.3-1.15,2.88-1.7,4.33-2.77,7.27C222.4,207.09,234,215.24,232.15,209.39Z"/><path class="cls-1" d="M240.79,221.21c-2.14-5.71,4.86-6.58,4.86-6.58-7.26-6-12.41-2.51-12.41-2.51-1,2.95-1.43,4.43-2.32,7.43C230.92,219.55,242.94,226.92,240.79,221.21Z"/><path class="cls-1" d="M251.11,233.54c-2.53-5.54,4.39-6.9,4.39-6.9C247.86,221.21,243,225,243,225c-.77,3-1.13,4.5-1.81,7.55C241.16,232.57,253.63,239.08,251.11,233.54Z"/><path class="cls-1" d="M261.17,244.09c-2.85-5.37,4-7.16,4-7.16-7.95-4.94-12.59-.83-12.59-.83-.58,3-.85,4.57-1.34,7.65C251.2,243.75,264,249.46,261.17,244.09Z"/><path class="cls-1" d="M271.86,254c-3.18-5.19,3.5-7.4,3.5-7.4-8.23-4.43-12.6,0-12.6,0-.4,3.07-.57,4.61-.87,7.72C261.89,254.27,275,259.17,271.86,254Z"/><path class="cls-1" d="M283.13,263.2c-3.5-5,3-7.59,3-7.59-8.48-3.92-12.57.74-12.57.74-.2,3.08-.28,4.64-.38,7.76C273.21,264.11,286.62,268.18,283.13,263.2Z"/><path class="cls-1" d="M293.93,271c-3.78-4.78,2.59-7.76,2.59-7.76-8.69-3.44-12.5,1.45-12.5,1.45,0,3.09,0,4.65.06,7.77C284.08,272.49,297.7,275.81,293.93,271Z"/><path class="cls-1" d="M306.2,278.86c-4.06-4.54,2.1-7.91,2.1-7.91-8.88-2.89-12.38,2.22-12.38,2.22.17,3.09.28,4.64.55,7.76C296.47,280.93,310.26,283.4,306.2,278.86Z"/><path class="cls-1" d="M319,285.93c-4.35-4.28,1.6-8,1.6-8-9.05-2.34-12.22,3-12.22,3,.36,3.08.56,4.62,1,7.72C309.36,288.6,323.29,290.22,319,285.93Z"/><path class="cls-1" d="M332.13,292.21c-4.61-4,1.09-8.12,1.09-8.12-9.2-1.78-12,3.73-12,3.73.55,3.05.85,4.58,1.51,7.64C322.71,295.46,336.74,296.22,332.13,292.21Z"/><path class="cls-1" d="M347.09,298.17c-4.89-3.69.52-8.18.52-8.18-9.32-1.16-11.75,4.54-11.75,4.54.76,3,1.17,4.51,2.05,7.53C337.91,302.06,352,301.86,347.09,298.17Z"/><path class="cls-1" d="M361.05,302.68c-5.13-3.37,0-8.2,0-8.2-9.4-.57-11.47,5.27-11.47,5.27,1,3,1.46,4.44,2.53,7.39C352.11,307.14,366.18,306.06,361.05,302.68Z"/><path class="cls-1" d="M375.33,306.32c-5.37-3.05-.53-8.19-.53-8.19-9.46,0-11.15,6-11.15,6,1.14,2.89,1.75,4.33,3,7.22C366.65,311.33,380.69,309.37,375.33,306.32Z"/><path class="cls-1" d="M389.88,309c-5.58-2.71-1.06-8.14-1.06-8.14-9.49.62-10.8,6.67-10.8,6.67,1.34,2.82,2,4.22,3.48,7C381.5,314.59,395.46,311.74,389.88,309Z"/><path class="cls-1" d="M404.92,310.83c-5.79-2.32-1.61-8.05-1.61-8.05-9.49,1.25-10.4,7.37-10.4,7.37,1.53,2.72,2.32,4.08,4,6.78C396.87,316.93,410.7,313.16,404.92,310.83Z"/><path class="cls-1" d="M419.91,311.62c-6-1.94-2.14-7.92-2.14-7.92-9.47,1.87-10,8-10,8,1.71,2.62,2.6,3.92,4.42,6.5C412.21,318.23,425.88,313.56,419.91,311.62Z"/><path class="cls-1" d="M435.06,311.41c-6.15-1.53-2.67-7.76-2.67-7.76-9.42,2.5-9.53,8.68-9.53,8.68,1.89,2.49,2.87,3.73,4.87,6.19C427.73,318.52,441.21,313,435.06,311.41Z"/><path class="cls-1" d="M450.33,310.17c-6.31-1.1-3.2-7.56-3.2-7.56-9.35,3.14-9.05,9.3-9.05,9.3,2.07,2.37,3.14,3.54,5.32,5.86C443.4,317.77,456.64,311.28,450.33,310.17Z"/><path class="cls-1" d="M467.24,307.58c-6.47-.61-3.79-7.3-3.79-7.3-9.23,3.86-8.49,10-8.49,10,2.27,2.2,3.44,3.29,5.81,5.43C460.77,315.69,473.71,308.2,467.24,307.58Z"/><path class="cls-1" d="M482.65,304.08c-6.6-.14-4.32-7-4.32-7-9.11,4.51-7.95,10.56-7.95,10.56,2.44,2,3.69,3,6.24,5C476.62,312.64,489.25,304.23,482.65,304.08Z"/><path class="cls-1" d="M498.06,299.46c-6.72.35-4.84-6.68-4.84-6.68-9,5.18-7.38,11.13-7.38,11.13,2.6,1.85,3.93,2.76,6.64,4.54C492.48,308.45,504.77,299.12,498.06,299.46Z"/><path class="cls-1" d="M513.43,293.7c-6.81.85-5.34-6.31-5.34-6.31-8.79,5.84-6.8,11.66-6.8,11.66,2.77,1.66,4.18,2.47,7,4C508.34,303.09,520.25,292.85,513.43,293.7Z"/><path class="cls-2" d="M526.48,318.59c-186.9,73.75-381.24-74.24-359.87-274l29.27,3.9C177.52,226,348.72,356.33,514.93,291.41Z"/><path class="cls-3" d="M206.33,182.09l-.88-1.88L188,188.28l1,2Z"/><path class="cls-3" d="M232.14,224.4l-1.23-1.63-15.44,11.46c.53.7.79,1.06,1.33,1.76Z"/><path class="cls-3" d="M277.3,269.81l-1.61-1.25-11.87,15.11,1.73,1.35Z"/><path class="cls-3" d="M223,211.59c-.45-.68-.68-1-1.12-1.71l-16.16,10.44c.48.74.72,1.11,1.21,1.84Z"/><path class="cls-3" d="M264.2,259l-1.52-1.35-12.91,14.23,1.64,1.47Z"/><path class="cls-3" d="M252.85,248.21l-1.42-1.46-13.81,13.38c.61.63.92.94,1.54,1.56Z"/><path class="cls-3" d="M243,237.6c-.54-.61-.81-.91-1.34-1.53L227,248.59l1.45,1.66Z"/><path class="cls-3" d="M214.3,197.4l-1-1.8-16.85,9.3c.43.78.65,1.16,1.09,1.94Z"/><path class="cls-3" d="M200,167.46l-.75-1.94-18,6.9c.32.84.48,1.26.81,2.1Z"/><path class="cls-3" d="M164.82,62.49,184,63.7c.06-.91.09-1.36.16-2.27L165,60C164.92,61,164.88,61.51,164.82,62.49Z"/><path class="cls-3" d="M184.21,99.46c-.07-.87-.1-1.3-.16-2.18l-19.18,1.46c.07,1,.11,1.42.18,2.36Z"/><path class="cls-3" d="M183.45,81V78.77l-19.22,0c0,1,0,1.45,0,2.41Z"/><path class="cls-3" d="M193.92,150.2c-.25-.8-.37-1.2-.61-2l-18.44,5.52.65,2.17Z"/><path class="cls-3" d="M186.27,117c-.13-.85-.2-1.27-.32-2.13l-19,2.86c.14.93.2,1.39.35,2.3Z"/><path class="cls-3" d="M189.35,133.11c-.19-.83-.28-1.24-.46-2.08l-18.79,4.15c.19.9.29,1.35.49,2.25Z"/><path class="cls-3" d="M350,308.47c-.78-.25-1.17-.38-1.94-.65-2.45,7.3-3.67,10.95-6.11,18.24.84.29,1.26.43,2.1.7Z"/><path class="cls-3" d="M290.69,279.45,289,278.31,278.19,294.2l1.82,1.23Z"/><path class="cls-3" d="M434.29,320.26l-2.12.08.6,19.24,2.29-.09C434.75,331.8,434.6,328,434.29,320.26Z"/><path class="cls-3" d="M416.09,320.33l-2.1-.09-.85,19.23,2.26.09C415.67,331.87,415.81,328,416.09,320.33Z"/><path class="cls-3" d="M468.62,316.27l-2.15.4c1.34,7.58,2,11.37,3.33,18.95l2.32-.43Z"/><path class="cls-3" d="M486.09,312.27l-2.15.57,4.72,18.63,2.32-.61C489,323.42,488.05,319.71,486.09,312.27Z"/><path class="cls-3" d="M519,300.91l-.54.22,7.47,17.71.58-.25Z"/><path class="cls-3" d="M502.62,307.2l-2.15.73c2.41,7.3,3.62,10.95,6,18.25l2.32-.79C506.34,318.11,505.1,314.47,502.62,307.2Z"/><path class="cls-3" d="M450.67,319l-2.13.23,1.9,19.15,2.3-.25C451.91,330.47,451.5,326.64,450.67,319Z"/><path class="cls-3" d="M319,295.78l-1.83-.9-8.57,17.2,2,1Z"/><path class="cls-3" d="M335.24,303.06l-1.89-.77-7.28,17.8c.81.34,1.22.5,2,.83C331,313.78,332.39,310.21,335.24,303.06Z"/><path class="cls-3" d="M303.94,287.73l-1.75-1-9.77,16.56,1.9,1.11Z"/><path class="cls-3" d="M398.63,319.07l-2.07-.24c-.89,7.65-1.34,11.47-2.24,19.11l2.23.26C397.39,330.55,397.8,326.72,398.63,319.07Z"/><path class="cls-3" d="M366.48,313.27l-2-.51-4.8,18.63,2.15.55C363.7,324.47,364.63,320.74,366.48,313.27Z"/><path class="cls-3" d="M382.85,316.79l-2-.37-3.5,18.92,2.2.41C380.85,328.16,381.52,324.37,382.85,316.79Z"/><path class="cls-4" d="M511.31,293l-.07-.05c-10.95,4.12-21.53,7.56-32.81,10.63l0,.09a.46.46,0,0,0-.07-.07c-6.75,1.65-10.13,2.34-16.86,3.46a2.6,2.6,0,0,0-.13.36l-.24-.3c-6.73,1.11-10.1,1.54-16.79,2.13l0,.08-.06-.07a225.35,225.35,0,0,1-46.95-.75l-.21.3-.14-.35c-6.47-.79-9.69-1.3-16.05-2.55l-.06.07,0-.09a210,210,0,0,1-30.27-8.14l-.07.06s0-.06,0-.09c-6.08-2.09-9.08-3.24-15-5.74a3.36,3.36,0,0,0-.29.24l0-.38c-5.9-2.5-8.8-3.86-14.5-6.76l-.07.05s0-.06,0-.09a216.52,216.52,0,0,1-26.65-15.88l-.33.17c0-.12,0-.24.05-.37-5.25-3.62-7.81-5.53-12.8-9.5l-.34.15c0-.12,0-.24.07-.36-5-4-7.41-6.06-12.12-10.37l-.08,0s0-.06,0-.09a213.7,213.7,0,0,1-21.45-22.46l-.09,0,0-.09c-4.1-4.91-6.07-7.44-9.84-12.64-.12,0-.25,0-.37.06.06-.11.12-.23.17-.34-3.76-5.2-5.55-7.87-8.94-13.34h-.09a.3.3,0,0,1,0-.08,306.46,306.46,0,0,1-20.2-41.41l-.37,0c.08-.09.16-.19.25-.28-2.25-6.16-3.27-9.29-5.09-15.66l-.08,0,.06-.07c-2.75-10.68-4.88-21-6.62-31.86l-.08,0,.07-.06c-.89-6.73-1.22-10.13-1.62-17l-.34-.16.32-.21c-.39-6.9-.45-10.38-.32-17.42l-.08-.05.08,0a201.33,201.33,0,0,1,2.07-27.1l-15.12-2a13.33,13.33,0,0,0-2.3,6.29c-.42,3.89.75,7.38,2.76,9.33-2.27,1.65-3.93,4.94-4.07,8.76-.16,4.27,1.62,7.93,4.2,9.47-2.58,1.58-4.36,5.24-4.2,9.43s2.35,7.84,5.16,9.06c-2.59,1.66-4.21,5.48-3.72,9.7s2.77,7.31,5.54,8.39c-2.32,1.89-3.55,5.66-2.78,9.64A10.29,10.29,0,0,0,186.6,134a10.3,10.3,0,0,0-1.49,9c1,3.87,3.75,6.65,6.64,7.3-2,2.16-2.73,6-1.44,9.73s4.39,6.44,7.42,6.75c-2,2.26-2.55,6.21-.94,9.94a10.17,10.17,0,0,0,6.05,5.83,10.14,10.14,0,0,0,.62,8.35,9.87,9.87,0,0,0,7,5.51,9.79,9.79,0,0,0,.92,8.82c2,3.34,5.32,5.2,8.27,5-1.39,2.6-1.07,6.38,1.15,9.56s5.88,4.89,8.86,4.35c-1.36,2.7-.83,6.59,1.68,9.69s6,4.37,8.86,3.77c-1,2.76-.19,6.45,2.44,9.28a9.75,9.75,0,0,0,8.16,3.32A9.65,9.65,0,0,0,254,258.4c2.79,2.66,6.48,3.53,9.25,2.54-.64,2.87.67,6.42,3.64,8.87s6.94,3.1,9.65,1.77c-.58,3,1,6.56,4.2,8.87s7.13,2.62,9.75,1.1c-.38,3,1.42,6.49,4.8,8.57a9.71,9.71,0,0,0,8.74,1,9.73,9.73,0,0,0,5.31,7c3.41,1.8,7.19,1.66,9.59,0,.16,2.94,2.39,6,5.92,7.59s7.54,1.13,9.79-.88c.25,3,2.73,6.08,6.49,7.44s7.38.65,9.53-1.36c.58,2.9,3.23,5.63,7,6.7a9.84,9.84,0,0,0,8.76-1.38,9.88,9.88,0,0,0,7.12,5.34c3.82.82,7.47-.35,9.33-2.64,1,2.79,4,5.14,7.92,5.69s7.69-1,9.34-3.54c1.09,2.84,4.39,5.1,8.47,5.36a10.33,10.33,0,0,0,8-2.73,11.12,11.12,0,0,0,16.17-.51,10.24,10.24,0,0,0,8.57,3.15c4-.28,7.36-2.44,8.59-5.17,1.76,2.41,5.45,3.8,9.51,3.21s7.47-3.17,8.41-6.1c1.9,2.41,5.85,3.61,10.06,2.66s7.15-3.58,8-6.47c2.16,2.09,6.14,2.88,10.22,1.63,3.64-1.12,6.38-3.57,7.39-6.19,2.39,1.45,6.06,1.69,9.7.29a12,12,0,0,0,7-6.35c-2.11-5-3.17-7.47-5.29-12.45l-3.6,1.5A.29.29,0,0,1,511.31,293Z"/><path class="cls-5" d="M174.75,35.9s2-11.5-7.52-24.71l2.54,7.26-5.54-3.75s9.83,16.35,5.53,24.57,3.21,6,3.21,6"/><path class="cls-6" d="M158.71,16.9l4.74-.91-.69,3.23,6.25-.38s-.17,2.89-4.35,5.57l-4.18,2.68,7.37-2.32s1.3,3-2.19,5.63-.89,2.17-.89,2.17l5.22-2.8a5.14,5.14,0,0,1-1.18,6.42c-3.25,3,3.83-1.75,3.83-1.75s.2,11.54-5.6,9.84-9.74-11.74-10.16-12.56"/><path class="cls-6" d="M175.89,5.07s-4.49,1.13-5.5,5.47c0,0,5.94-1.24,6.35-.84s-2.88,5.1-2.88,5.1l4.29,1.44-3.24,4.25,3.43,2.16-3,3.84s5.42,2.3,5.8,2,3.88-3.54,4.34-6.66"/><path class="cls-1" d="M172,37.83s-5-9.89-8.07-14.5a31.13,31.13,0,0,1-4-10.56s-12.28,7.08-14.31,19.47c0,0,7.32-6.32,12.32,6.73s7.71,39.33,26.35,28.61,9.83-27.18,9.83-27.18L172.24,45l-3.52-3"/><path class="cls-4" d="M198.49,51.33s.93-28.81.14-32.24,4.23-11.33,9.09-9.84c0,0-10-16.12-34.3-5.8,0,0,7.09,13.64,3,24.09S160.9,43.37,170.45,58.9,201.52,63.2,198.49,51.33Z"/><path class="cls-1" d="M182.29,33.09l9.24,10.63s-1.31,6.55-5.93,9.45A12.24,12.24,0,0,1,178,44.85C176.38,38.43,182.29,33.09,182.29,33.09Z"/><path class="cls-7" d="M185.69,46.9a4,4,0,1,0-5.33-1.74A4,4,0,0,0,185.69,46.9Z"/><path d="M184.69,44.92a1.75,1.75,0,1,0-2.36-.76A1.74,1.74,0,0,0,184.69,44.92Z"/><path class="cls-1" d="M251.42,90.49c-3.85-2.89,3.2-6.47,3.2-6.47-9.7-.79-14.1,4.16-14.1,4.16,0,2.25,0,3.39,0,5.68C240.57,93.86,255.27,93.38,251.42,90.49Z"/><path class="cls-1" d="M263.73,94.76c-3.56-3.23,3.32-6.61,3.32-6.61-9.22-1.33-13.6,3.6-13.6,3.6-.07,2.37-.11,3.56-.2,6C253.25,97.71,267.28,98,263.73,94.76Z"/><path class="cls-1" d="M275.32,99.83c-3.28-3.54,3.43-6.73,3.43-6.73-8.77-1.84-13.14,3.08-13.14,3.08-.16,2.47-.24,3.71-.42,6.21C265.19,102.39,278.59,103.37,275.32,99.83Z"/><path class="cls-1" d="M286.23,105.66c-3-3.83,3.54-6.84,3.54-6.84-8.34-2.32-12.71,2.59-12.71,2.59-.24,2.57-.37,3.86-.64,6.45C276.42,107.86,289.25,109.49,286.23,105.66Z"/><path class="cls-1" d="M297.54,112.89c-2.76-4.12,3.64-7,3.64-7-7.92-2.8-12.27,2.1-12.27,2.1-.33,2.67-.5,4-.86,6.7C288.05,114.72,300.3,117,297.54,112.89Z"/><path class="cls-1" d="M307.22,120.12c-2.55-4.37,3.72-7.06,3.72-7.06-7.56-3.2-11.91,1.69-11.91,1.69-.4,2.75-.61,4.13-1,6.9C298,121.65,309.76,124.48,307.22,120.12Z"/><path class="cls-1" d="M316.38,127.93c-2.35-4.59,3.8-7.15,3.8-7.15-7.24-3.56-11.57,1.32-11.57,1.32-.47,2.82-.71,4.24-1.2,7.08C307.41,129.18,318.73,132.51,316.38,127.93Z"/><path class="cls-1" d="M325.08,136.26C322.9,131.48,329,129,329,129c-7-3.88-11.28,1-11.28,1-.53,2.89-.8,4.34-1.35,7.25C316.32,137.26,327.25,141,325.08,136.26Z"/><path class="cls-1" d="M333.5,145.2c-2-4.95,3.93-7.3,3.93-7.3-6.69-4.17-11,.68-11,.68-.59,3-.88,4.44-1.48,7.41C325,146,335.52,150.16,333.5,145.2Z"/><path class="cls-1" d="M341.42,154.41c-1.89-5.11,4-7.36,4-7.36-6.48-4.42-10.77.42-10.77.42-.64,3-1,4.51-1.61,7.54C333,155,343.3,159.52,341.42,154.41Z"/><path class="cls-1" d="M349,164c-1.77-5.23,4-7.41,4-7.41-6.28-4.64-10.57.19-10.57.19-.68,3.05-1,4.58-1.7,7.65C340.79,164.4,350.8,169.21,349,164Z"/><path class="cls-1" d="M356.37,173.82c-1.67-5.34,4.08-7.45,4.08-7.45-6.13-4.82-10.41,0-10.41,0-.71,3.1-1.06,4.64-1.78,7.75C348.26,174.12,358.05,179.17,356.37,173.82Z"/><path class="cls-1" d="M364.22,184.94c-1.6-5.43,4.11-7.49,4.11-7.49-6-5-10.26-.16-10.26-.16-.74,3.13-1.11,4.69-1.86,7.83C356.21,185.12,365.82,190.37,364.22,184.94Z"/><path class="cls-1" d="M371.18,195.23c-1.54-5.49,4.13-7.52,4.13-7.52-5.9-5.07-10.16-.27-10.16-.27-.76,3.15-1.14,4.73-1.91,7.88C363.24,195.32,372.73,200.72,371.18,195.23Z"/><path class="cls-1" d="M378,205.63c-1.51-5.53,4.14-7.53,4.14-7.53-5.84-5.13-10.09-.35-10.09-.35-.77,3.17-1.16,4.75-1.94,7.93C370.15,205.68,379.56,211.15,378,205.63Z"/><path class="cls-1" d="M384.85,216.09c-1.5-5.54,4.14-7.53,4.14-7.53-5.82-5.16-10.05-.39-10.05-.39l-2,8S386.35,221.63,384.85,216.09Z"/><path class="cls-1" d="M391.08,225.68c-1.51-5.53,4.14-7.53,4.14-7.53-5.83-5.15-10.05-.39-10.05-.39l-2,8S392.59,231.21,391.08,225.68Z"/><path class="cls-1" d="M397.92,236.1c-1.53-5.5,4.14-7.52,4.14-7.52-5.87-5.11-10.09-.36-10.09-.36-.78,3.18-1.17,4.77-2,7.94C390,236.16,399.46,241.6,397.92,236.1Z"/><path class="cls-1" d="M404.86,246.42c-1.58-5.45,4.11-7.5,4.11-7.5-5.93-5-10.14-.3-10.14-.3-.77,3.17-1.16,4.75-1.93,7.91C396.9,246.53,406.44,251.86,404.86,246.42Z"/><path class="cls-1" d="M411.94,256.57c-1.65-5.37,4.09-7.47,4.09-7.47-6-4.91-10.24-.19-10.24-.19-.76,3.15-1.14,4.72-1.89,7.86C403.9,256.77,413.59,261.94,411.94,256.57Z"/><path class="cls-1" d="M420,267.49c-1.75-5.26,4.05-7.42,4.05-7.42-6.19-4.74-10.38,0-10.38,0-.73,3.12-1.1,4.67-1.82,7.78C411.81,267.82,421.71,272.76,420,267.49Z"/><path class="cls-1" d="M427.5,277.12c-1.85-5.13,4-7.38,4-7.38-6.36-4.54-10.54.16-10.54.16-.7,3.08-1.05,4.62-1.74,7.7C419.23,277.6,429.36,282.26,427.5,277.12Z"/><path class="cls-1" d="M435.35,286.42c-2-5,4-7.33,4-7.33-6.58-4.31-10.74.38-10.74.38-.66,3-1,4.56-1.65,7.59C426.92,287.06,437.34,291.41,435.35,286.42Z"/><path class="cls-1" d="M443.54,295.31c-2.13-4.82,3.9-7.25,3.9-7.25-6.81-4.05-11,.62-11,.62-.62,3-.93,4.5-1.54,7.48C434.94,296.16,445.68,300.14,443.54,295.31Z"/><path class="cls-1" d="M452.29,303.9c-2.31-4.63,3.83-7.18,3.83-7.18-7.08-3.74-11.22.92-11.22.92-.58,2.95-.87,4.41-1.42,7.34C443.48,305,454.6,308.53,452.29,303.9Z"/><path class="cls-1" d="M461.34,311.83c-2.5-4.42,3.76-7.1,3.76-7.1-7.39-3.39-11.52,1.26-11.52,1.26-.52,2.88-.77,4.31-1.28,7.17C452.3,313.16,463.84,316.24,461.34,311.83Z"/><path class="cls-1" d="M470.9,319.19c-2.71-4.17,3.67-7,3.67-7-7.72-3-11.84,1.62-11.84,1.62-.46,2.81-.68,4.21-1.12,7C461.61,320.81,473.61,323.37,470.9,319.19Z"/><path class="cls-1" d="M481,325.94c-2.94-3.92,3.58-6.91,3.58-6.91-8.09-2.6-12.2,2-12.2,2-.39,2.73-.58,4.09-.95,6.8C471.44,327.86,484,329.85,481,325.94Z"/><path class="cls-1" d="M492.84,332.57c-3.22-3.61,3.47-6.78,3.47-6.78-8.53-2.1-12.63,2.51-12.63,2.51-.31,2.64-.46,4-.74,6.57C482.94,334.87,496.05,336.18,492.84,332.57Z"/><path class="cls-1" d="M504.27,337.82c-3.49-3.3,3.37-6.66,3.37-6.66-9-1.61-13.06,3-13.06,3-.23,2.55-.34,3.82-.54,6.34C494,340.49,507.76,341.12,504.27,337.82Z"/><path class="cls-1" d="M516.41,342.27c-3.78-3,3.25-6.53,3.25-6.53-9.44-1.08-13.51,3.51-13.51,3.51-.14,2.45-.2,3.67-.32,6.09C505.83,345.34,520.2,345.24,516.41,342.27Z"/><path class="cls-1" d="M529.32,345.87c-4.1-2.62,3.12-6.39,3.12-6.39-9.94-.52-14,4.06-14,4.06-.05,2.34-.07,3.51-.08,5.82C518.36,349.36,533.41,348.48,529.32,345.87Z"/><path class="cls-2" d="M512.55,367.23c-140.06-38-151.59-221-291.64-258.94l19.6-22.08c140.06,38,151.59,221,291.65,258.94Z"/><path class="cls-3" d="M324.11,147.9,323,146.71l-12.76,14.37,1.11,1.19Z"/><path class="cls-3" d="M349.21,178.58c-.39-.53-.58-.8-1-1.33l-12.76,14.37c.4.53.59.8,1,1.33Z"/><path class="cls-3" d="M378.74,222.25c-.36-.56-.54-.85-.91-1.41l-12.76,14.37c.37.56.55.85.91,1.41Z"/><path class="cls-3" d="M341.57,168.45l-1-1.29L327.8,181.53l1,1.29Z"/><path class="cls-3" d="M371.08,210.47c-.37-.56-.56-.84-.92-1.4L357.4,223.44l.92,1.4Z"/><path class="cls-3" d="M364,199.74l-.93-1.39-12.76,14.37.93,1.39Z"/><path class="cls-3" d="M357.28,189.91l-.95-1.37-12.76,14.38.95,1.36Z"/><path class="cls-3" d="M333.17,158.1l-1.06-1.24-12.75,14.37,1.05,1.24C325.52,166.73,328.07,163.85,333.17,158.1Z"/><path class="cls-3" d="M315.37,139l-1.17-1.12-12.76,14.37,1.17,1.12Z"/><path class="cls-3" d="M233.6,111.67,246.36,97.3l-1.71-.51-12.76,14.37Z"/><path class="cls-3" d="M272,107.63l-1.5-.75-12.76,14.37,1.5.75Z"/><path class="cls-3" d="M259,101.78l-1.6-.64-12.76,14.38,1.6.63Z"/><path class="cls-3" d="M304.85,129.53l-1.25-1-12.76,14.37,1.25,1Z"/><path class="cls-3" d="M283.69,114.21l-1.41-.86-12.76,14.38c.57.33.85.51,1.41.85Z"/><path class="cls-3" d="M294.13,121.18l-1.32-.94-12.76,14.37,1.32.94Z"/><path class="cls-3" d="M417.15,278l-1-1.3-12.76,14.37,1,1.3Z"/><path class="cls-3" d="M386.18,233.68l-.92-1.4L372.5,246.65l.92,1.4Z"/><path class="cls-3" d="M464.34,325.25l-1.31-1-12.75,14.37,1.31,1Z"/><path class="cls-3" d="M453.35,316.6l-1.23-1.05-12.75,14.37L440.6,331Z"/><path class="cls-3" d="M486.84,339.06l-1.49-.76L472.6,352.67l1.48.76Z"/><path class="cls-3" d="M499.36,344.77l-1.59-.65L485,358.49l1.59.65Z"/><path class="cls-3" d="M525.31,352.86l-.45-.1L512.1,367.13l.45.1Z"/><path class="cls-3" d="M512,349.29l-1.69-.54-12.76,14.37,1.69.54Z"/><path class="cls-3" d="M474.76,332.25c-.56-.34-.84-.52-1.39-.87l-12.76,14.37c.56.35.83.53,1.39.87Z"/><path class="cls-3" d="M401.1,256c-.37-.55-.56-.82-.94-1.37L387.4,269l1,1.37Z"/><path class="cls-3" d="M409.52,267.87c-.4-.53-.59-.8-1-1.34-5.1,5.75-7.65,8.63-12.76,14.37l1,1.34Z"/><path class="cls-3" d="M393.26,244.44l-.93-1.39-12.76,14.37.93,1.39Z"/><path class="cls-3" d="M443.31,307.5l-1.16-1.13-12.76,14.37,1.17,1.13Z"/><path class="cls-3" d="M425.8,288.68l-1.05-1.25L412,301.8l1.05,1.25Z"/><path class="cls-3" d="M434.58,298.59l-1.1-1.19-12.76,14.37,1.1,1.19C426.93,307.22,429.48,304.34,434.58,298.59Z"/><path class="cls-4" d="M528.92,344.46a.15.15,0,0,1,0-.07,151.12,151.12,0,0,1-26.58-9l-.09.05,0-.08a132.61,132.61,0,0,1-12.38-6l-.35.17a3,3,0,0,0,.09-.32c-4.78-2.6-7.1-4-11.58-6.94l-.08,0a.24.24,0,0,1,0-.08,191.15,191.15,0,0,1-29.29-23.87l-.32.15a3.58,3.58,0,0,0,.11-.35c-3.78-3.73-5.62-5.66-9.21-9.61l-.08,0,0-.09c-7-7.68-10.29-11.74-16.7-20.08l-.07,0,0-.09c-3.29-4.28-4.91-6.47-8.09-10.88l-.3.13c.05-.12.09-.25.13-.37-3.18-4.42-4.74-6.66-7.83-11.17l-.07,0,0-.09c-6-8.78-8.94-13.26-14.78-22.23l-.3.12c0-.12.09-.25.14-.37-3-4.62-4.5-6.93-7.5-11.54l-.3.12c.05-.12.09-.25.14-.37-3-4.62-4.5-6.93-7.52-11.52l-.07,0,0-.09c-5.88-8.93-8.84-13.38-14.95-22l-.08,0,0-.09c-3.14-4.45-4.73-6.65-8-11l-.31.13c.05-.12.09-.25.13-.37-3.25-4.33-4.9-6.47-8.28-10.66l-.07,0,0-.09A261.09,261.09,0,0,0,319,128.23l-.32.15c0-.11.07-.23.11-.34-3.9-3.6-5.91-5.34-10.05-8.67l-.08,0,0-.08a146,146,0,0,0-21.4-14.79l-.08,0s0,0,0-.08a132.89,132.89,0,0,0-12.07-6.38l-.36.18c0-.1.06-.21.08-.31a132.16,132.16,0,0,0-12.91-5.44l-.09,0s0,0,0-.08a139.29,139.29,0,0,0-21.34-6.3L230.38,97.62a6.71,6.71,0,0,0,3.89,2.33,14.7,14.7,0,0,0,9.11-.82c-.09,2,1.4,3.85,4.13,4.79a12.65,12.65,0,0,0,9.62-.77c-.6,2.36.73,4.73,3.58,6a11,11,0,0,0,9.45-.43c-.82,2.52.33,5.18,3.09,6.72a9.65,9.65,0,0,0,8.78.17,6.2,6.2,0,0,0,2.79,6.92,8.63,8.63,0,0,0,7.57.92,6.75,6.75,0,0,0,2.64,6.46,7.84,7.84,0,0,0,8.11.92,7.35,7.35,0,0,0,10.2,8.78,7.85,7.85,0,0,0,1.76,8.21,6.77,6.77,0,0,0,6.23,2,8.3,8.3,0,0,0,2,6.75,6.4,6.4,0,0,0,6.55,2.06,8.87,8.87,0,0,0,1.69,7.54,6.08,6.08,0,0,0,7.16,2A9.37,9.37,0,0,0,340,176.8a5.81,5.81,0,0,0,7.22,2.07,9.81,9.81,0,0,0,1,9.08c1.79,2.5,4.49,3.31,6.86,2.33a10.13,10.13,0,0,0,1,8.94,5.66,5.66,0,0,0,6,2.67,10.28,10.28,0,0,0,1.21,8.09c1.7,2.58,4.35,3.45,6.7,2.5a10.49,10.49,0,0,0,.88,9.07c1.74,2.68,4.5,3.53,6.9,2.43a10.51,10.51,0,0,0,.75,9.36c1.74,2.68,4.51,3.53,6.91,2.42a10.38,10.38,0,0,0,.78,9.33,5.57,5.57,0,0,0,6,2.72,10.11,10.11,0,0,0,1.23,8.06c1.73,2.55,4.43,3.38,6.8,2.4a9.86,9.86,0,0,0,1,8.89,5.65,5.65,0,0,0,7.13,2.18,9.5,9.5,0,0,0,1.06,9,5.82,5.82,0,0,0,7,2.11,9,9,0,0,0,1.33,8.57,6.1,6.1,0,0,0,6.44,2.19,8.43,8.43,0,0,0,1.76,7.46,6.33,6.33,0,0,0,7.42,1.69,8,8,0,0,0,1.73,8.11,6.76,6.76,0,0,0,7.91,1.3,7.35,7.35,0,0,0,1.9,8.06,7.2,7.2,0,0,0,6.57,1.59,6.82,6.82,0,0,0,2.56,6.11,7.81,7.81,0,0,0,7.38,1.13,6.31,6.31,0,0,0,2.76,6.34,8.64,8.64,0,0,0,8.55.42,5.78,5.78,0,0,0,2.92,6.76,9.72,9.72,0,0,0,9.19-.14c-.82,2.53.32,5.2,3.25,6.55a11.07,11.07,0,0,0,9.35-.47c-.61,2.37.72,4.73,3.75,5.82a12.57,12.57,0,0,0,8.85-.52c-.1,2,1.39,3.85,4.28,4.62a14.36,14.36,0,0,0,8.83-.8l9-10.11-3.15-.74Z"/><path class="cls-1" d="M102.45,206.61a6.62,6.62,0,0,1,1.26-8.75c-6.9-3.75-9.07,2-9.07,2,.3,3.53.45,5.29.76,8.78C95.4,208.65,105.62,211.81,102.45,206.61Z"/><path class="cls-1" d="M112.18,214.91c-3.3-4.83,1.21-8.61,1.21-8.61-7.12-3.15-9.3,2.63-9.3,2.63.35,3.4.52,5.1.88,8.47C105,217.4,115.49,219.74,112.18,214.91Z"/><path class="cls-1" d="M122.25,222.32c-3.43-4.49,1.16-8.47,1.16-8.47-7.34-2.59-9.51,3.2-9.51,3.2.38,3.29.58,4.93,1,8.19C114.88,225.24,125.69,226.82,122.25,222.32Z"/><path class="cls-1" d="M132.63,228.92c-3.55-4.18,1.11-8.35,1.11-8.35-7.53-2.08-9.71,3.72-9.71,3.72.42,3.19.64,4.78,1.08,7.93C125.11,232.22,136.19,233.09,132.63,228.92Z"/><path class="cls-1" d="M144.39,235.3c-3.68-3.86,1.06-8.22,1.06-8.22-7.73-1.55-9.92,4.26-9.92,4.26.47,3.08.71,4.61,1.18,7.66C136.71,239,148.06,239.16,144.39,235.3Z"/><path class="cls-1" d="M155.34,240.37c-3.78-3.6,1-8.12,1-8.12-7.89-1.12-10.08,4.71-10.08,4.71.5,3,.75,4.48,1.26,7.44C147.54,244.4,159.11,244,155.34,240.37Z"/><path class="cls-1" d="M166.53,244.81c-3.87-3.36,1-8,1-8-8-.73-10.23,5.11-10.23,5.11.53,2.91.8,4.36,1.34,7.24C158.62,249.14,170.39,248.16,166.53,244.81Z"/><path class="cls-1" d="M177.93,248.68c-3.94-3.14.95-7.93.95-7.93-8.17-.38-10.37,5.48-10.37,5.48.56,2.83.84,4.24,1.41,7.05C169.92,253.28,181.88,251.82,177.93,248.68Z"/><path class="cls-1" d="M189.72,252.1c-4-2.95.93-7.86.93-7.86-8.3-.05-10.5,5.81-10.5,5.81.58,2.77.87,4.15,1.47,6.9C181.62,257,193.74,255.05,189.72,252.1Z"/><path class="cls-1" d="M201.48,255c-4.08-2.78.9-7.79.9-7.79-8.39.22-10.6,6.1-10.6,6.1.6,2.71.91,4.06,1.52,6.75C193.3,260.07,205.56,257.8,201.48,255Z"/><path class="cls-1" d="M213.39,257.55c-4.13-2.65.88-7.74.88-7.74-8.48.45-10.7,6.35-10.7,6.35.63,2.65.94,4,1.57,6.62C205.14,262.78,217.52,260.19,213.39,257.55Z"/><path class="cls-1" d="M225.42,259.76c-4.18-2.53.86-7.69.86-7.69-8.56.65-10.78,6.55-10.78,6.55.64,2.62,1,3.92,1.61,6.52C217.11,265.14,229.59,262.29,225.42,259.76Z"/><path class="cls-1" d="M238.77,261.9c-4.21-2.43.85-7.65.85-7.65-8.62.82-10.85,6.73-10.85,6.73.66,2.58,1,3.87,1.65,6.43C230.42,267.41,243,264.34,238.77,261.9Z"/><path class="cls-1" d="M251,263.65c-4.23-2.37.84-7.63.84-7.63-8.66.92-10.89,6.86-10.89,6.86.67,2.55,1,3.82,1.67,6.36C242.59,269.24,255.21,266,251,263.65Z"/><path class="cls-1" d="M263.23,265.26c-4.25-2.33.83-7.6.83-7.6-8.69,1-10.93,6.93-10.93,6.93.68,2.53,1,3.8,1.69,6.32C254.82,270.91,267.48,267.59,263.23,265.26Z"/><path class="cls-1" d="M275.5,266.81c-4.25-2.31.83-7.6.83-7.6-8.69,1-10.94,7-10.94,7l1.7,6.3S279.76,269.13,275.5,266.81Z"/><path class="cls-1" d="M286.75,268.23c-4.25-2.33.83-7.61.83-7.61-8.69,1-10.94,7-10.94,7l1.7,6.3S291,270.55,286.75,268.23Z"/><path class="cls-1" d="M299,269.82c-4.24-2.36.83-7.61.83-7.61-8.67,1-10.92,6.94-10.92,6.94.68,2.52,1,3.79,1.69,6.31C290.61,275.46,303.25,272.18,299,269.82Z"/><path class="cls-1" d="M311.23,271.53c-4.22-2.41.84-7.64.84-7.64-8.64.88-10.9,6.88-10.9,6.88.67,2.53,1,3.8,1.68,6.34C302.85,277.11,315.45,274,311.23,271.53Z"/><path class="cls-1" d="M323.38,273.42c-4.19-2.5.85-7.67.85-7.67-8.59.75-10.85,6.76-10.85,6.76.66,2.55,1,3.83,1.66,6.39C315,278.9,327.57,275.92,323.38,273.42Z"/><path class="cls-1" d="M336.65,275.77c-4.14-2.62.87-7.71.87-7.71-8.52.56-10.79,6.58-10.79,6.58.65,2.59,1,3.88,1.63,6.48C328.36,281.12,340.79,278.39,336.65,275.77Z"/><path class="cls-1" d="M348.59,278.23c-4.1-2.75.89-7.77.89-7.77-8.45.35-10.72,6.39-10.72,6.39.64,2.62,1,3.93,1.6,6.57C340.36,283.42,352.68,281,348.59,278.23Z"/><path class="cls-1" d="M360.38,281.05c-4-2.91.92-7.83.92-7.83-8.35.1-10.63,6.15-10.63,6.15.63,2.67.94,4,1.55,6.68C352.22,286.05,364.42,284,360.38,281.05Z"/><path class="cls-1" d="M372,284.31c-4-3.1.94-7.91.94-7.91-8.24-.19-10.52,5.87-10.52,5.87.6,2.72.9,4.08,1.5,6.82C363.94,289.09,376,287.4,372,284.31Z"/><path class="cls-1" d="M383.66,288.12c-3.88-3.31,1-8,1-8-8.11-.52-10.4,5.55-10.4,5.55.58,2.78.87,4.17,1.45,7C375.68,292.65,387.54,291.43,383.66,288.12Z"/><path class="cls-1" d="M394.9,292.43c-3.8-3.54,1-8.08,1-8.08-8-.9-10.27,5.19-10.27,5.19.56,2.84.83,4.27,1.38,7.14C387,296.68,398.69,296,394.9,292.43Z"/><path class="cls-1" d="M405.91,297.35c-3.7-3.8,1-8.18,1-8.18-7.82-1.31-10.11,4.79-10.11,4.79.52,2.92.79,4.39,1.3,7.33C398.14,301.29,409.6,301.15,405.91,297.35Z"/><path class="cls-1" d="M416.66,303c-3.59-4.08,1.09-8.29,1.09-8.29-7.65-1.76-9.95,4.35-9.95,4.35.49,3,.74,4.51,1.22,7.55C409,306.56,420.25,307,416.66,303Z"/><path class="cls-1" d="M428.17,310c-3.46-4.42,1.14-8.43,1.14-8.43-7.44-2.31-9.75,3.82-9.75,3.82.46,3.11.68,4.67,1.13,7.8C420.69,313.17,431.64,314.4,428.17,310Z"/><path class="cls-1" d="M438.31,317.2c-3.34-4.75,1.19-8.55,1.19-8.55-7.24-2.85-9.55,3.29-9.55,3.29.42,3.21.62,4.82,1,8.06C431,320,441.65,322,438.31,317.2Z"/><path class="cls-1" d="M448.12,325.3a6.55,6.55,0,0,1,1.25-8.7c-7-3.42-9.35,2.73-9.35,2.73.38,3.32.57,5,.94,8.33C441,327.66,451.33,330.41,448.12,325.3Z"/><path class="cls-1" d="M457.59,334.32c-3.06-5.49,1.29-8.85,1.29-8.85-6.79-4-9.11,2.14-9.11,2.14.34,3.42.5,5.15.82,8.61C450.59,336.22,460.65,339.82,457.59,334.32Z"/><path class="cls-2" d="M449,361.84c-101.8-98.38-263.19-39-365-137.42L94.4,196.78c101.8,98.38,263.19,39,365,137.43Z"/><path class="cls-3" d="M181.56,258.92l-1.56-.45-6.77,18,1.56.45Z"/><path class="cls-3" d="M220.12,267.6l-1.62-.28-6.78,18,1.63.29C216.05,278.39,217.41,274.8,220.12,267.6Z"/><path class="cls-3" d="M271.92,275l-1.65-.21c-2.71,7.19-4.07,10.79-6.77,18l1.65.2Z"/><path class="cls-3" d="M207.71,265.25l-1.61-.33c-2.7,7.2-4.06,10.79-6.77,18l1.61.33Z"/><path class="cls-3" d="M258.1,273.23l-1.65-.22c-2.71,7.2-4.07,10.79-6.77,18l1.64.21Z"/><path class="cls-3" d="M245.44,271.54l-1.64-.23-6.78,18,1.65.23Z"/><path class="cls-3" d="M233.76,269.84l-1.64-.25-6.77,18,1.64.25C229.69,280.63,231.05,277,233.76,269.84Z"/><path class="cls-3" d="M194.74,262.38l-1.58-.38-6.78,18,1.59.39Z"/><path class="cls-3" d="M169.66,255.22l-1.53-.52c-2.71,7.2-4.07,10.79-6.77,18l1.53.52Z"/><path class="cls-3" d="M93.16,233.35l6.78-18c-.52-.47-.78-.7-1.29-1.18l-6.77,18Z"/><path class="cls-3" d="M121.42,232.07l-1.38-.92-6.77,18,1.38.93Z"/><path class="cls-3" d="M110,223.87c-.54-.41-.8-.62-1.34-1.05-2.7,7.2-4.06,10.79-6.77,18l1.34,1.05C106,234.66,107.32,231.07,110,223.87Z"/><path class="cls-3" d="M156.38,250.32l-1.5-.62-6.77,18,1.5.61Z"/><path class="cls-3" d="M132.85,239.05l-1.43-.81-6.77,18,1.42.81Z"/><path class="cls-3" d="M144,244.83l-1.46-.71-6.77,18,1.46.71Z"/><path class="cls-3" d="M338.41,285l-1.61-.32-6.77,18,1.61.32C334.35,295.75,335.7,292.15,338.41,285Z"/><path class="cls-3" d="M285.33,276.67l-1.65-.21-6.77,18,1.65.21Z"/><path class="cls-3" d="M402,305.19l-1.47-.69c-2.71,7.19-4.06,10.79-6.77,18l1.47.69C398,316,399.3,312.39,402,305.19Z"/><path class="cls-3" d="M389.2,299.6l-1.5-.6-6.77,18,1.5.59Z"/><path class="cls-3" d="M424.92,318.1l-1.38-.9c-2.71,7.19-4.07,10.79-6.77,18l1.38.91C420.86,328.89,422.22,325.3,424.92,318.1Z"/><path class="cls-3" d="M436,326c-.53-.42-.8-.62-1.34-1l-6.77,18,1.34,1Z"/><path class="cls-3" d="M455.75,343.86l-.31-.32c-2.7,7.19-4.06,10.79-6.77,18l.31.32C451.69,354.65,453.05,351.05,455.75,343.86Z"/><path class="cls-3" d="M446.1,334.48l-1.29-1.15-6.78,18,1.3,1.16Z"/><path class="cls-3" d="M413.14,310.94l-1.43-.79c-2.71,7.2-4.07,10.79-6.77,18l1.43.79Z"/><path class="cls-3" d="M311.74,280.3l-1.64-.25c-2.71,7.19-4.06,10.79-6.77,18l1.64.24Z"/><path class="cls-3" d="M326,282.62l-1.63-.29c-2.7,7.2-4.06,10.79-6.77,18l1.63.28C321.93,293.41,323.29,289.81,326,282.62Z"/><path class="cls-3" d="M298,278.33l-1.65-.22-6.77,18,1.65.22Z"/><path class="cls-3" d="M376.48,294.94l-1.54-.51-6.77,18,1.53.51Z"/><path class="cls-3" d="M351.78,287.91l-1.59-.38-6.77,18,1.59.38Z"/><path class="cls-3" d="M364.57,291.26l-1.56-.44-6.78,18,1.57.44Z"/><path class="cls-4" d="M457.14,332v-.11a149.58,149.58,0,0,0-20.8-18l-.06.05s0-.06,0-.09c-4.44-3.28-6.69-4.81-11.28-7.69a2.61,2.61,0,0,0-.24.23c0-.13,0-.26,0-.39-4.59-2.87-6.93-4.2-11.66-6.71l-.06.06v-.09a219.68,219.68,0,0,0-34.84-14.6l-.25.26c0-.12,0-.24,0-.35-5.06-1.65-7.61-2.4-12.75-3.81l-.06.06a.19.19,0,0,1,0-.08c-10-2.73-15.1-3.87-25.37-5.89l-.06.06a.22.22,0,0,1,0-.08c-5.28-1-7.94-1.52-13.27-2.42-.09.1-.18.19-.26.29l0-.34c-5.34-.9-8-1.31-13.39-2.11l-.06.07a.22.22,0,0,1,0-.08c-10.45-1.54-15.72-2.21-26.25-3.55-.09.1-.18.19-.26.29l0-.32c-5.41-.69-8.12-1-13.54-1.7a3.58,3.58,0,0,0-.26.29l0-.33c-5.42-.68-8.13-1-13.53-1.73l-.07.07a.22.22,0,0,0,0-.08c-10.51-1.38-15.76-2.09-26.17-3.76l-.06.07a.22.22,0,0,1,0-.08c-5.35-.86-8-1.31-13.32-2.29a3.45,3.45,0,0,0-.26.28c0-.11,0-.23,0-.34-5.3-1-7.94-1.51-13.18-2.66l-.06.07s0-.06,0-.08a299.07,299.07,0,0,1-36.47-10.27l-.25.26c0-.12,0-.24,0-.36-5-1.79-7.47-2.75-12.36-4.83l-.06.06s0-.06,0-.09a164.51,164.51,0,0,1-23.2-11.66l-.06.06v-.09c-4.64-2.74-6.93-4.2-11.43-7.32l-.24.22c0-.13,0-.26,0-.39-4.49-3.14-6.7-4.8-11-8.35l0,0s0-.07,0-.1A152.53,152.53,0,0,1,94.4,196.78L89,211.06a12.43,12.43,0,0,0,2.9,4.93c2.08,2.06,4.44,2.43,6.2,1.34a11.78,11.78,0,0,0,3.76,7.81c2.41,2.06,5.16,2.05,7,.37a10.6,10.6,0,0,0,4,8.29c2.59,1.87,5.51,1.58,7.37-.35a9.48,9.48,0,0,0,4.21,8.07,5.89,5.89,0,0,0,7.38-.66,8.52,8.52,0,0,0,4.38,7.3,6.37,6.37,0,0,0,6.91-.54,7.78,7.78,0,0,0,4.44,6,6.84,6.84,0,0,0,7.69-1.48,7.23,7.23,0,0,0,12.7,4.46,6.81,6.81,0,0,0,4.81,6.44,7.78,7.78,0,0,0,6.83-1.19,6.49,6.49,0,0,0,4.67,4.52,8.21,8.21,0,0,0,7.38-1.79,6.24,6.24,0,0,0,4.88,4.82,8.7,8.7,0,0,0,8.13-2.65,6,6,0,0,0,5.09,5.43,9.15,9.15,0,0,0,8.4-3.07,5.84,5.84,0,0,0,5.17,5.5,9.47,9.47,0,0,0,8.27-3,5.71,5.71,0,0,0,5.21,5.11,9.62,9.62,0,0,0,7.62-2.46,5.74,5.74,0,0,0,5.11,4.23,9.88,9.88,0,0,0,8.34-3.2c.24,2.55,2.22,4.57,5.27,5a10,10,0,0,0,8.54-3.47c.13,2.67,2.14,4.81,5.28,5.2a10,10,0,0,0,8.55-3.45c.12,2.67,2.13,4.81,5.27,5.23a9.79,9.79,0,0,0,7.64-2.51,5.8,5.8,0,0,0,5.1,4.26,9.72,9.72,0,0,0,8.3-3.1,5.81,5.81,0,0,0,5.19,5.16,9.43,9.43,0,0,0,8.44-3.18,6,6,0,0,0,5.14,5.57,9.12,9.12,0,0,0,8.18-2.79,6.19,6.19,0,0,0,5.06,5.51,8.68,8.68,0,0,0,7.43-1.93,6.49,6.49,0,0,0,4.85,4.91,8.29,8.29,0,0,0,8-2.33,6.77,6.77,0,0,0,4.87,6,7.77,7.77,0,0,0,8.08-2.23,7.19,7.19,0,0,0,4.76,6.61,7.33,7.33,0,0,0,6.66-.76,7.7,7.7,0,0,0,4.41,5.21,6.85,6.85,0,0,0,7-.77,8.36,8.36,0,0,0,4.4,6.13,6.37,6.37,0,0,0,7.48-.94,9.18,9.18,0,0,0,4.32,7.47,5.88,5.88,0,0,0,7.49-.66,10.23,10.23,0,0,0,4.13,8.26c2.52,1.79,5.29,1.73,7.12,0a11.57,11.57,0,0,0,3.94,8.49c2.17,1.81,4.55,2.12,6.32,1a13,13,0,0,0,3.68,8c2,1.93,4.16,2.48,5.86,1.68l4.76-12.66c-.87-.91-1.31-1.36-2.19-2.25Z"/><path class="cls-1" d="M116.05,159c-5-2.65-.87-8.1-.87-8.1-9,.76-9.87,7.15-9.87,7.15,1.33,2.69,2,4,3.28,6.74C108.59,164.83,121,161.69,116.05,159Z"/><path class="cls-1" d="M129.2,161.36c-4.88-2.79-.64-8.12-.64-8.12-9,.51-10,6.88-10,6.88,1.25,2.73,1.87,4.09,3.08,6.83C121.6,167,134.08,164.14,129.2,161.36Z"/><path class="cls-1" d="M142.24,164c-4.79-2.91-.4-8.13-.4-8.13-9,.28-10.21,6.61-10.21,6.61,1.18,2.76,1.75,4.14,2.88,6.91C134.51,169.41,147,166.94,142.24,164Z"/><path class="cls-1" d="M155.18,167c-4.7-3-.18-8.14-.18-8.14-9,0-10.36,6.33-10.36,6.33,1.09,2.79,1.63,4.19,2.68,7C147.32,172.21,159.88,170.08,155.18,167Z"/><path class="cls-1" d="M169.28,170.76c-4.59-3.18.07-8.14.07-8.14-8.95-.23-10.52,6-10.52,6,1,2.82,1.49,4.23,2.45,7.06C161.28,175.7,173.88,173.93,169.28,170.76Z"/><path class="cls-1" d="M182,174.5c-4.5-3.3.29-8.14.29-8.14-8.93-.47-10.67,5.74-10.67,5.74.93,2.85,1.38,4.27,2.26,7.12C173.85,179.22,186.46,177.79,182,174.5Z"/><path class="cls-1" d="M194.52,178.57c-4.39-3.42.52-8.12.52-8.12-8.9-.71-10.81,5.45-10.81,5.45.85,2.87,1.26,4.3,2.06,7.17C186.29,183.07,198.92,182,194.52,178.57Z"/><path class="cls-1" d="M206.94,183c-4.29-3.53.74-8.1.74-8.1-8.86-1-10.94,5.16-10.94,5.16.77,2.89,1.14,4.33,1.86,7.22C198.6,187.25,211.23,186.5,206.94,183Z"/><path class="cls-1" d="M219.42,187.78c-4.19-3.64,1-8.07,1-8.07-8.82-1.19-11.06,4.86-11.06,4.86.68,2.91,1,4.36,1.64,7.27C211,191.84,223.61,191.43,219.42,187.78Z"/><path class="cls-1" d="M231.55,192.85c-4.08-3.76,1.19-8,1.19-8-8.78-1.42-11.18,4.56-11.18,4.56.6,2.93.88,4.39,1.44,7.31C223,196.67,235.63,196.6,231.55,192.85Z"/><path class="cls-1" d="M243.52,198.23c-4-3.86,1.41-8,1.41-8-8.73-1.66-11.29,4.26-11.29,4.26.52,2.94.76,4.41,1.24,7.35C234.88,201.83,247.49,202.09,243.52,198.23Z"/><path class="cls-1" d="M255.33,203.93c-3.86-4,1.63-8,1.63-8-8.68-1.89-11.4,4-11.4,4,.44,3,.65,4.42,1,7.37C246.6,207.29,259.2,207.89,255.33,203.93Z"/><path class="cls-1" d="M268.14,210.56c-3.74-4.08,1.86-7.92,1.86-7.92-8.6-2.14-11.5,3.63-11.5,3.63.35,3,.52,4.44.82,7.4C259.32,213.67,271.89,214.63,268.14,210.56Z"/><path class="cls-1" d="M279.6,216.91c-3.63-4.17,2.07-7.87,2.07-7.87-8.54-2.36-11.59,3.32-11.59,3.32.27,3,.39,4.45.62,7.42C270.7,219.78,283.23,221.08,279.6,216.91Z"/><path class="cls-1" d="M290.88,223.56c-3.52-4.27,2.28-7.8,2.28-7.8-8.47-2.6-11.67,3-11.67,3,.19,3,.27,4.46.41,7.43C281.9,226.19,294.39,227.83,290.88,223.56Z"/><path class="cls-1" d="M302,230.52c-3.4-4.37,2.49-7.75,2.49-7.75-8.4-2.82-11.75,2.69-11.75,2.69.11,3,.15,4.47.22,7.44C292.93,232.9,305.37,234.88,302,230.52Z"/><path class="cls-1" d="M312,237.14c-3.29-4.44,2.69-7.67,2.69-7.67-8.33-3-11.82,2.39-11.82,2.39,0,3,0,4.48,0,7.45C302.86,239.31,315.25,241.59,312,237.14Z"/><path class="cls-1" d="M322.68,244.66c-3.17-4.53,2.89-7.6,2.89-7.6-8.24-3.25-11.87,2.08-11.87,2.08-.05,3-.08,4.47-.17,7.44C313.53,246.58,325.85,249.19,322.68,244.66Z"/><path class="cls-1" d="M333.2,252.47c-3.05-4.62,3.09-7.53,3.09-7.53-8.16-3.47-11.93,1.76-11.93,1.76-.12,3-.2,4.47-.36,7.43C324,254.13,336.25,257.08,333.2,252.47Z"/><path class="cls-1" d="M343.51,260.56c-2.93-4.7,3.29-7.44,3.29-7.44-8.06-3.7-12,1.43-12,1.43-.21,3-.32,4.46-.57,7.42C334.26,262,346.43,265.25,343.51,260.56Z"/><path class="cls-1" d="M354.6,269.78c-2.78-4.78,3.52-7.33,3.52-7.33-8-3.94-12,1.07-12,1.07-.29,3-.45,4.45-.79,7.4C345.31,270.92,357.39,274.57,354.6,269.78Z"/><path class="cls-1" d="M364.42,278.49c-2.65-4.87,3.74-7.27,3.74-7.27-7.87-4.14-12.05.74-12.05.74-.37,3-.57,4.44-1,7.38C355.13,279.34,367.07,283.36,364.42,278.49Z"/><path class="cls-1" d="M374.06,287.42c-2.6-4.89,3.91-7.15,3.91-7.15-7.8-4.33-12.1.44-12.1.44-.44,2.94-.65,4.39-1.07,7.26C364.8,288,376.65,292.31,374.06,287.42Z"/><path class="cls-1" d="M383.55,296.55c-2.54-4.9,4-7,4-7-7.7-4.54-12.07.06-12.07.06-.45,2.88-.66,4.29-1.05,7.06C374.43,296.71,386.09,301.44,383.55,296.55Z"/><path class="cls-1" d="M393,306c-2.49-4.89,4-6.7,4-6.7-7.57-4.77-11.94-.4-11.94-.4-.44,2.8-.63,4.15-1,6.8C384.13,305.74,395.51,310.94,393,306Z"/><path class="cls-1" d="M402.13,315.61c-2.45-4.89,4-6.41,4-6.41-7.42-5-11.73-.9-11.73-.9-.42,2.69-.58,4-.87,6.51C393.52,314.81,404.57,320.5,402.13,315.61Z"/><path class="cls-1" d="M411,325.41c-2.39-4.88,3.94-6.09,3.94-6.09-7.26-5.23-11.47-1.45-11.47-1.45-.39,2.59-.52,3.81-.75,6.21C402.72,324.08,413.39,330.3,411,325.41Z"/><path class="cls-1" d="M419.61,335.48c-2.32-4.89,3.89-5.79,3.89-5.79-7.1-5.46-11.18-2-11.18-2-.36,2.47-.47,3.63-.63,5.9C411.69,333.59,421.94,340.37,419.61,335.48Z"/><path class="cls-1" d="M428.76,346.87c-2.24-4.91,3.85-5.46,3.85-5.46-6.91-5.72-10.87-2.61-10.87-2.61a55.28,55.28,0,0,0-.52,5.57S431,351.77,428.76,346.87Z"/><path class="cls-1" d="M436.72,357.51c-2.13-4.93,3.88-5.2,3.88-5.2-6.76-5.93-10.62-3.13-10.62-3.13a45.13,45.13,0,0,0-.45,5.3S438.85,362.45,436.72,357.51Z"/><path class="cls-1" d="M444.34,368.46c-2-5,4-5,4-5-6.62-6.12-10.42-3.61-10.42-3.61a39.82,39.82,0,0,0-.44,5.08S446.33,373.44,444.34,368.46Z"/><path class="cls-1" d="M451.57,379.73c-1.83-5.06,4.16-4.88,4.16-4.88-6.5-6.3-10.29-4-10.29-4a36.73,36.73,0,0,0-.51,4.92S453.4,384.78,451.57,379.73Z"/><path class="cls-2" d="M438.29,388.16c-22.12-32.42-51.88-55.49-81.87-80.13-22.56-18.54-44.35-37.59-68.92-53.52C230.66,217.66,167,195.09,100.17,185q2-14.64,4-29.27c143.12,21.54,271.41,102.35,349.24,225.13C446.48,384.49,448.33,381.93,438.29,388.16Z"/><path class="cls-3" d="M210.92,193.88l-1.62-.62-6.88,17.94,1.55.6Z"/><path class="cls-3" d="M249.3,210.75l-1.55-.77-8.44,17.27,1.5.73C244.2,221.09,245.9,217.64,249.3,210.75Z"/><path class="cls-3" d="M296.77,237.62l-1.45-.93L285,252.88l1.39.9C290.53,247.32,292.61,244.08,296.77,237.62Z"/><path class="cls-3" d="M237.28,205c-.63-.29-.94-.44-1.58-.72-3.17,7-4.76,10.5-7.94,17.49l1.51.69Z"/><path class="cls-3" d="M284.49,230l-1.49-.89-9.85,16.5,1.42.85Z"/><path class="cls-3" d="M273,223.27l-1.51-.85-9.39,16.77,1.45.81Z"/><path class="cls-3" d="M262.2,217.35l-1.53-.81-9,17,1.47.77Z"/><path class="cls-3" d="M224.39,199.34l-1.59-.67c-3,7.09-4.46,10.63-7.43,17.72l1.53.65C219.9,210,221.4,206.42,224.39,199.34Z"/><path class="cls-3" d="M198.4,189.22l-1.64-.58-6.38,18.13,1.58.56C194.53,200.08,195.82,196.46,198.4,189.22Z"/><path class="cls-3" d="M112.33,186.81l3.1-19-1.74-.29c-1.21,7.59-1.82,11.39-3,19Z"/><path class="cls-3" d="M143.18,173.24l-1.71-.39c-1.67,7.51-2.5,11.26-4.16,18.77L139,192C140.64,184.48,141.49,180.73,143.18,173.24Z"/><path class="cls-3" d="M128.77,170.22l-1.73-.33-3.57,18.89,1.66.31C126.59,181.55,127.32,177.77,128.77,170.22Z"/><path class="cls-3" d="M184,184.34l-1.66-.53-5.8,18.32,1.6.51C180.45,195.32,181.62,191.66,184,184.34Z"/><path class="cls-3" d="M157,176.57l-1.7-.43c-1.88,7.45-2.82,11.18-4.71,18.63l1.63.41C154.15,187.74,155.11,184,157,176.57Z"/><path class="cls-3" d="M170,180.1l-1.68-.48c-2.09,7.39-3.14,11.09-5.23,18.49l1.61.46Z"/><path class="cls-3" d="M352.83,279.88l-1.3-1.14-12.61,14.5,1.25,1.09Z"/><path class="cls-3" d="M308.46,245.4l-1.42-1c-4.33,6.36-6.5,9.53-10.82,15.89l1.36.93C301.94,254.91,304.11,251.74,308.46,245.4Z"/><path class="cls-3" d="M405.45,328.87l-1.23-1.26c-4.13,3.55-5.8,5-11.66,10,.52.44.78.66,1.29,1.11C399.71,333.76,401.35,332.35,405.45,328.87Z"/><path class="cls-3" d="M394.78,318.17,393.52,317c-4.47,4.15-6.39,6-12.2,11.23l1.31,1.08C388.46,324,390.35,322.25,394.78,318.17Z"/><path class="cls-3" d="M424.32,349.72l-1.13-1.34c-3.52,2.46-4.72,3.23-10.66,7.7l1.18,1.2C419.66,352.85,420.84,352.12,424.32,349.72Z"/><path class="cls-3" d="M433.24,360.84c-.42-.56-.64-.84-1.07-1.39a110.52,110.52,0,0,0-10.32,6.66c.45.5.67.76,1.11,1.27A104.06,104.06,0,0,1,433.24,360.84Z"/><path class="cls-3" d="M448.59,383l-.24-.37c-3,1.18-3.77,1.1-10.28,5.16l.22.36C444.82,384.1,445.54,384.18,448.59,383Z"/><path class="cls-3" d="M441.21,371.75c-.41-.57-.61-.86-1-1.44A62.88,62.88,0,0,0,430,376.14l1,1.35A59.41,59.41,0,0,1,441.21,371.75Z"/><path class="cls-3" d="M414.66,338.68c-.47-.52-.7-.78-1.18-1.29-3.83,3-5.26,4.14-11.15,8.86l1.24,1.15C409.47,342.71,410.87,341.63,414.66,338.68Z"/><path class="cls-3" d="M330.89,261.78l-1.37-1.06L317.79,276l1.32,1C323.82,270.89,326.17,267.85,330.89,261.78Z"/><path class="cls-3" d="M342.7,271.25l-1.34-1.1L329.16,285l1.28,1.06Z"/><path class="cls-3" d="M319.31,253.07l-1.4-1-11.26,15.57,1.35,1Z"/><path class="cls-3" d="M384.16,308.06l-1.28-1.19c-4.75,4.68-6.89,6.84-12.63,12.34l1.32,1.06C377.32,314.8,379.45,312.68,384.16,308.06Z"/><path class="cls-3" d="M363.73,289.51l-1.3-1.15c-5.07,5.52-7.54,8.22-12.91,14l1.29,1.07C356.22,297.66,358.67,295,363.73,289.51Z"/><path class="cls-3" d="M374.27,299,373,297.8c-5,5.13-7.27,7.56-12.88,13.23l1.31,1.07C367,306.45,369.34,304,374.27,299Z"/><path class="cls-4" d="M451.65,378.13l0-.06c-5-8.13-10.41-16.13-16.07-23.82h-.07s0,0,0-.06c-3.47-4.76-5.25-7.1-8.87-11.72l-.29,0,.09-.27c-3.62-4.62-5.48-6.89-9.25-11.38h-.07s0,0,0-.06q-13.38-15.91-28.05-30.68l-.33.11c0-.11.07-.22.11-.33-4.1-4.15-6.18-6.19-10.37-10.23l-.09,0,0-.09c-6.77-6.53-13.7-12.95-20.79-19.14l-.08,0,0-.08c-4.38-3.8-6.61-5.67-11.1-9.34l-.33.16.09-.36c-4.5-3.66-6.77-5.46-11.37-9l-.08,0s0-.05,0-.08c-7.42-5.73-15.07-11.25-22.84-16.48l-.32.18c0-.12,0-.24.06-.36-4.8-3.25-7.22-4.84-12.1-7.94l-.31.2c0-.12,0-.25,0-.37-4.89-3.1-7.36-4.61-12.34-7.57l-.08.05a.28.28,0,0,0,0-.09c-8.05-4.81-16.31-9.39-24.65-13.67l-.07,0v-.09c-5.15-2.66-7.75-3.95-13-6.46a2.83,2.83,0,0,0-.28.23v-.37c-5.23-2.51-7.87-3.72-13.18-6.08l-.07.06V193q-18.93-8.39-38.51-15.14l-.26.27c0-.13,0-.25,0-.37-5.51-1.9-8.29-2.81-13.87-4.54l-.06.06a.19.19,0,0,0,0-.08c-9-2.84-18.23-5.41-27.43-7.66l-.06.07a.29.29,0,0,0,0-.09c-5.7-1.41-8.56-2.07-14.31-3.31a3.25,3.25,0,0,0-.23.29c0-.12-.05-.24-.08-.36-5.76-1.24-8.65-1.81-14.46-2.88l-.05.07,0-.08c-8.81-1.62-13.24-2.33-22.17-3.55l-2.06,15.13a8.42,8.42,0,0,0,4.55,2.18,8.12,8.12,0,0,0,7.25-2.52,8.09,8.09,0,0,0,6.07,4.67,8,8,0,0,0,7.88-3,8.17,8.17,0,0,0,14.29,2.71,8.15,8.15,0,0,0,14.05,3.63,8.14,8.14,0,0,0,13.22,4.4,8,8,0,0,0,5.41,5.35,7.93,7.93,0,0,0,8.11-2.06,8.06,8.06,0,0,0,13.74,4.35,7.87,7.87,0,0,0,5.21,6.81,8,8,0,0,0,7-.67,8.09,8.09,0,0,0,12.28,4.42,8,8,0,0,0,13,4.79,8,8,0,0,0,13.08,5.87,8,8,0,0,0,12.66,6.72,8,8,0,0,0,11.7,7.28,7.9,7.9,0,0,0,4,6.42,7.82,7.82,0,0,0,8.31-.16,8,8,0,0,0,12.27,7.37,8,8,0,0,0,12,8,7.8,7.8,0,0,0,3.22,7.91,7.89,7.89,0,0,0,7.48,1A8,8,0,0,0,330.28,264a8,8,0,0,0,11.33,8.78,8,8,0,0,0,10.73,9.5,7.62,7.62,0,0,0,2.47,7.9,8.31,8.31,0,0,0,7.43,1.78,7.54,7.54,0,0,0,2.71,6.9,8.59,8.59,0,0,0,8.22,1.75,7.39,7.39,0,0,0,2.59,7.56,8.91,8.91,0,0,0,8.32,2c-.81,2.38.13,5.38,2.59,7.58a10.07,10.07,0,0,0,6.57,2.62,8.25,8.25,0,0,0,2.9,6,10.41,10.41,0,0,0,6.85,2.93c-.19,1.95.83,4.34,2.87,6.35,2.28,2.24,5.15,3.44,7.25,3.33-.44,1.88.56,4.54,2.75,6.87s5.09,3.82,7.06,3.83c-.48,1.72.49,4.44,2.64,6.94s4.63,4,6.46,4.35c-.34,1.6.58,4.2,2.53,6.74a15,15,0,0,0,5.5,4.65c-.08,1.54.74,3.88,2.35,6.26a16.6,16.6,0,0,0,4.92,4.93,40.25,40.25,0,0,0,6.07-2.65l-1.67-2.71Z"/><path class="cls-1" d="M56.73,311.89c-5.63-.05-4.52-6.78-4.52-6.78C44.57,310,46.77,316,46.77,316c2.43,1.77,3.64,2.66,6,4.46C52.8,320.48,62.36,311.94,56.73,311.89Z"/><path class="cls-1" d="M69.46,307.85c-5.62-.2-4.32-6.9-4.32-6.9-7.75,4.63-5.72,10.75-5.72,10.75,2.37,1.84,3.55,2.76,5.89,4.63C65.31,316.33,75.07,308.06,69.46,307.85Z"/><path class="cls-1" d="M82.26,304.18c-5.6-.36-4.13-7-4.13-7-7.85,4.41-6,10.58-6,10.58,2.32,1.9,3.47,2.86,5.75,4.79C77.89,312.53,87.85,304.54,82.26,304.18Z"/><path class="cls-1" d="M95.12,300.86c-5.57-.52-3.93-7.13-3.93-7.13-7.94,4.19-6.25,10.41-6.25,10.41,2.26,2,3.38,3,5.6,4.95C90.54,309.09,100.69,301.38,95.12,300.86Z"/><path class="cls-1" d="M109.34,297.63c-5.54-.69-3.71-7.25-3.71-7.25-8,3.94-6.54,10.21-6.54,10.21,2.2,2,3.29,3.06,5.45,5.12C104.54,305.71,114.88,298.32,109.34,297.63Z"/><path class="cls-1" d="M122.31,295.07c-5.51-.84-3.5-7.35-3.5-7.35-8.13,3.72-6.8,10-6.8,10,2.14,2.09,3.2,3.15,5.29,5.26C117.3,303,127.82,295.91,122.31,295.07Z"/><path class="cls-1" d="M135.33,292.86c-5.48-1-3.3-7.43-3.3-7.43-8.22,3.49-7.06,9.83-7.06,9.83,2.08,2.15,3.11,3.23,5.14,5.41C130.11,300.67,140.8,293.86,135.33,292.86Z"/><path class="cls-1" d="M148.37,291c-5.44-1.14-3.09-7.53-3.09-7.53-8.3,3.27-7.31,9.64-7.31,9.64,2,2.21,3,3.32,5,5.55C143,298.68,153.81,292.16,148.37,291Z"/><path class="cls-1" d="M161.66,289.51c-5.39-1.29-2.88-7.61-2.88-7.61-8.37,3-7.55,9.43-7.55,9.43,2,2.26,2.91,3.4,4.82,5.68C156.05,297,167.06,290.8,161.66,289.51Z"/><path class="cls-1" d="M174.76,288.38c-5.36-1.44-2.68-7.68-2.68-7.68-8.43,2.8-7.79,9.22-7.79,9.22,1.88,2.31,2.82,3.48,4.66,5.81C169,295.73,180.11,289.82,174.76,288.38Z"/><path class="cls-1" d="M187.86,287.61c-5.31-1.59-2.46-7.76-2.46-7.76-8.5,2.58-8,9-8,9,1.82,2.37,2.73,3.55,4.51,5.94C181.87,294.8,193.17,289.19,187.86,287.61Z"/><path class="cls-1" d="M201,287.19c-5.26-1.73-2.25-7.82-2.25-7.82-8.56,2.35-8.27,8.79-8.27,8.79,1.76,2.41,2.62,3.62,4.34,6C194.79,294.21,206.23,288.91,201,287.19Z"/><path class="cls-1" d="M215.39,287.14c-5.2-1.88-2-7.88-2-7.88-8.62,2.09-8.52,8.53-8.52,8.53,1.68,2.47,2.51,3.7,4.15,6.18C209,294,220.6,289,215.39,287.14Z"/><path class="cls-1" d="M228.49,287.46c-5.15-2-1.8-7.93-1.8-7.93-8.67,1.86-8.74,8.3-8.74,8.3,1.61,2.51,2.41,3.77,4,6.29C221.93,294.12,233.64,289.48,228.49,287.46Z"/><path class="cls-1" d="M241.56,288.14c-5.09-2.16-1.58-8-1.58-8-8.72,1.62-9,8.07-9,8.07,1.54,2.55,2.31,3.83,3.81,6.39C234.83,294.62,246.66,290.29,241.56,288.14Z"/><path class="cls-1" d="M254.62,289.16c-5-2.29-1.38-8-1.38-8-8.75,1.39-9.17,7.82-9.17,7.82,1.48,2.59,2.21,3.89,3.64,6.49C247.71,295.46,259.65,291.46,254.62,289.16Z"/><path class="cls-1" d="M266.54,290.41c-5-2.41-1.17-8.05-1.17-8.05-8.79,1.18-9.36,7.6-9.36,7.6,1.41,2.63,2.1,3.94,3.47,6.58C259.48,296.54,271.51,292.83,266.54,290.41Z"/><path class="cls-1" d="M279.52,292.11c-4.9-2.55-.95-8.08-.95-8.08-8.82.94-9.57,7.34-9.57,7.34,1.34,2.67,2,4,3.3,6.68C272.3,298.05,284.43,294.66,279.52,292.11Z"/><path class="cls-1" d="M292.46,294.16c-4.84-2.68-.74-8.1-.74-8.1-8.84.7-9.76,7.08-9.76,7.08,1.27,2.7,1.89,4.05,3.11,6.76C285.07,299.9,297.3,296.84,292.46,294.16Z"/><path class="cls-1" d="M305.34,296.56c-4.77-2.81-.52-8.12-.52-8.12-8.86.46-9.95,6.81-9.95,6.81,1.19,2.74,1.78,4.11,2.93,6.85C297.8,302.1,310.11,299.37,305.34,296.56Z"/><path class="cls-1" d="M319.45,299.6c-4.69-3-.28-8.13-.28-8.13C310.29,291.67,309,298,309,298c1.12,2.77,1.66,4.16,2.73,6.93C311.74,304.91,324.14,302.55,319.45,299.6Z"/><path class="cls-1" d="M332.2,302.73c-4.61-3.08-.07-8.13-.07-8.13-8.89-.05-10.33,6.23-10.33,6.23,1,2.8,1.55,4.2,2.54,7C324.34,307.83,336.81,305.81,332.2,302.73Z"/><path class="cls-1" d="M344.86,306.21c-4.53-3.21.16-8.14.16-8.14-8.89-.29-10.51,5.95-10.51,5.95,1,2.83,1.44,4.24,2.36,7.07C336.87,311.09,349.4,309.41,344.86,306.21Z"/><path class="cls-1" d="M357.45,310c-4.45-3.33.37-8.13.37-8.13-8.89-.54-10.67,5.66-10.67,5.66.89,2.85,1.32,4.28,2.17,7.13C349.32,314.69,361.9,313.35,357.45,310Z"/><path class="cls-1" d="M370.15,314.27c-4.36-3.45.59-8.12.59-8.12-8.88-.78-10.83,5.36-10.83,5.36.81,2.88,1.21,4.32,2,7.19C361.89,318.7,374.52,317.72,370.15,314.27Z"/><path class="cls-1" d="M382.55,318.78c-4.28-3.57.81-8.09.81-8.09-8.88-1-11,5.06-11,5.06.74,2.89,1.1,4.34,1.8,7.24C374.16,323,386.83,322.36,382.55,318.78Z"/><path class="cls-1" d="M394.84,323.65c-4.19-3.69,1-8.08,1-8.08-8.85-1.28-11.14,4.76-11.14,4.76.67,2.91,1,4.37,1.61,7.29C386.33,327.62,399,327.34,394.84,323.65Z"/><path class="cls-1" d="M407,328.85c-4.1-3.81,1.24-8,1.24-8-8.84-1.53-11.29,4.44-11.29,4.44.59,2.93.87,4.4,1.42,7.33C398.39,332.58,411.11,332.66,407,328.85Z"/><path class="cls-1" d="M420.28,335c-4-3.94,1.48-8,1.48-8-8.81-1.8-11.43,4.09-11.43,4.09.5,3,.74,4.43,1.2,7.38C411.53,338.44,424.27,338.91,420.28,335Z"/><path class="cls-1" d="M432.2,340.9c-3.89-4,1.69-8,1.69-8-8.77-2.05-11.56,3.76-11.56,3.76.43,3,.63,4.45,1,7.42C423.34,344.12,436.09,345,432.2,340.9Z"/><path class="cls-1" d="M444,347.17c-3.79-4.16,1.9-7.92,1.9-7.92-8.73-2.3-11.67,3.44-11.67,3.44.34,3,.51,4.47.81,7.44C435,350.13,447.77,351.33,444,347.17Z"/><path class="cls-1" d="M455.62,353.77c-3.69-4.27,2.11-7.86,2.11-7.86C449,343.35,446,349,446,349c.27,3,.39,4.49.61,7.47C446.56,356.48,459.31,358.05,455.62,353.77Z"/><path class="cls-2" d="M443,378.81C323.3,310.52,185,297.49,54.66,342.24q-5-13.89-10-27.78C183.11,266.72,330.87,280.64,458,353.39Z"/><path class="cls-3" d="M157,298.84l-1.73.2,2.2,19.09,1.66-.19C158.24,310.3,157.81,306.48,157,298.84Z"/><path class="cls-3" d="M198.78,296l-1.73,0c.21,7.68.31,11.52.52,19.21l1.66,0Z"/><path class="cls-3" d="M253.3,297.87l-1.72-.15c-.67,7.65-1,11.48-1.68,19.14l1.65.15Z"/><path class="cls-3" d="M185.48,296.52l-1.73.09,1.05,19.19,1.66-.09C186.07,308,185.87,304.2,185.48,296.52Z"/><path class="cls-3" d="M238.87,296.77l-1.73-.1c-.44,7.68-.66,11.51-1.09,19.19l1.65.1C238.17,308.28,238.4,304.45,238.87,296.77Z"/><path class="cls-3" d="M225.59,296.15l-1.73,0c-.22,7.68-.33,11.52-.56,19.21l1.66.05C225.21,307.68,225.34,303.83,225.59,296.15Z"/><path class="cls-3" d="M213.27,295.91h-1.73c0,7.68,0,11.53-.06,19.21h1.66C213.19,307.44,213.22,303.59,213.27,295.91Z"/><path class="cls-3" d="M171.42,297.45l-1.72.14c.64,7.66,1,11.49,1.62,19.15l1.66-.13C172.35,308.94,172,305.11,171.42,297.45Z"/><path class="cls-3" d="M143.7,300.51l-1.72.25c1.09,7.61,1.64,11.41,2.73,19l1.66-.24C145.3,311.93,144.77,308.13,143.7,300.51Z"/><path class="cls-3" d="M66.29,338.23l-6-18.25-1.67.56,6.09,18.22Z"/><path class="cls-3" d="M87.35,311.91l-1.7.46c2,7.42,3,11.13,5,18.55l1.63-.44C90.31,323.05,89.32,319.34,87.35,311.91Z"/><path class="cls-3" d="M73.19,315.91l-1.69.51c2.23,7.36,3.35,11,5.58,18.39l1.61-.49Z"/><path class="cls-3" d="M128.65,302.87l-1.72.3c1.34,7.57,2,11.35,3.34,18.92l1.65-.29C130.61,314.23,130,310.44,128.65,302.87Z"/><path class="cls-3" d="M101.16,308.46l-1.7.4,4.45,18.7,1.63-.39C103.79,319.68,102.91,315.94,101.16,308.46Z"/><path class="cls-3" d="M114.29,305.58l-1.71.35c1.57,7.53,2.35,11.29,3.92,18.81l1.64-.33Z"/><path class="cls-3" d="M322.56,309.37l-1.69-.41-4.47,18.7,1.62.39C319.83,320.58,320.74,316.84,322.56,309.37Z"/><path class="cls-3" d="M267.26,299.35l-1.71-.2c-.9,7.63-1.35,11.45-2.24,19.08l1.65.2Z"/><path class="cls-3" d="M390.61,331.41l-1.61-.65c-2.89,7.12-4.33,10.68-7.21,17.81l1.55.63C386.25,342.09,387.7,338.53,390.61,331.41Z"/><path class="cls-3" d="M376.6,325.94l-1.63-.61-6.65,18,1.57.59C372.57,336.74,373.92,333.14,376.6,325.94Z"/><path class="cls-3" d="M416.31,342.82l-1.59-.76c-3.29,6.95-4.94,10.42-8.24,17.36l1.52.73Z"/><path class="cls-3" d="M429.09,349.19l-1.57-.81-8.76,17.1,1.5.78Z"/><path class="cls-3" d="M452.73,362.27l-.38-.22c-3.91,6.62-5.86,9.93-9.76,16.55l.36.21Z"/><path class="cls-3" d="M441,355.58l-1.55-.85c-3.69,6.74-5.54,10.1-9.24,16.84l1.48.82C435.45,365.67,437.31,362.3,441,355.58Z"/><path class="cls-3" d="M403,336.68l-1.6-.71c-3.09,7-4.63,10.56-7.71,17.61l1.54.67Z"/><path class="cls-3" d="M294.72,303.49l-1.7-.31-3.35,18.93,1.64.29C292.67,314.83,293.36,311.05,294.72,303.49Z"/><path class="cls-3" d="M309.58,306.41l-1.7-.36c-1.57,7.53-2.36,11.29-3.94,18.81l1.62.34C307.17,317.69,308,313.93,309.58,306.41Z"/><path class="cls-3" d="M280.43,301.13l-1.71-.25c-1.11,7.6-1.66,11.41-2.77,19l1.64.25C278.73,312.53,279.3,308.73,280.43,301.13Z"/><path class="cls-3" d="M362.86,321.06l-1.65-.56c-2.43,7.29-3.65,10.94-6.09,18.23l1.59.53Z"/><path class="cls-3" d="M336.61,313l-1.67-.46c-2,7.42-3,11.13-5,18.55l1.61.44Z"/><path class="cls-3" d="M350.15,317l-1.66-.5c-2.23,7.35-3.35,11-5.58,18.39l1.59.48Z"/><path class="cls-4" d="M455.16,351.83v-.09c-8.24-4.84-16.71-9.43-25.25-13.72l-.07.05V338c-5.26-2.65-7.91-3.94-13.23-6.43l-.28.23c0-.12,0-.24,0-.37-5.32-2.48-8-3.69-13.38-6l-.07.06v-.09q-19.08-8.22-38.81-14.8l-.26.27c0-.12,0-.24,0-.37-5.53-1.83-8.31-2.71-13.88-4.38l-.07.06s0-.06,0-.08c-9-2.73-18.14-5.18-27.3-7.32l-.06.06a.31.31,0,0,0,0-.08c-5.65-1.34-8.48-2-14.16-3.14l-.22.3c0-.12-.06-.24-.09-.36-5.68-1.16-8.53-1.71-14.24-2.7l0,.07,0-.08c-9.22-1.64-18.56-3-27.88-4l-.19.32a3.59,3.59,0,0,0-.12-.35c-5.75-.66-8.63-.95-14.4-1.44-.06.11-.13.21-.18.32l-.13-.34c-5.77-.49-8.66-.69-14.45-1,0,0,0,0,0,.08l0-.08c-9.36-.54-18.8-.77-28.17-.71a.3.3,0,0,0,0,.08l0-.08c-5.8,0-8.7.08-14.5.28l-.15.33c-.05-.11-.11-.21-.17-.32-5.8.2-8.7.34-14.49.71a.59.59,0,0,1,0,.08l0-.07q-20.66,1.34-41.14,4.41c0,.12-.08.23-.11.35l-.2-.3c-5.77.87-8.65,1.35-14.4,2.39l0,.09a.18.18,0,0,0-.05-.07c-9.33,1.67-18.66,3.65-27.86,5.92a.24.24,0,0,1,0,.08l-.06-.06c-5.7,1.38-8.55,2.12-14.22,3.69,0,.12,0,.24-.07.36a3.22,3.22,0,0,0-.24-.28c-5.67,1.57-8.5,2.39-14.14,4.14a.19.19,0,0,1,0,.08l-.06-.06c-8.56,2.65-12.82,4.07-21.29,7.13,2.07,5.74,3.11,8.61,5.18,14.36a8.46,8.46,0,0,0,5-.17,8.13,8.13,0,0,0,5.26-5.59,8.09,8.09,0,0,0,7.54,1.32,8,8,0,0,0,5.59-6.3,8.18,8.18,0,0,0,13.93-4.22,8.13,8.13,0,0,0,14.13-3.29,8.15,8.15,0,0,0,13.76-2.21,8,8,0,0,0,7.27,2.23,7.92,7.92,0,0,0,6.23-5.58,8.07,8.07,0,0,0,14.2-2.5,7.85,7.85,0,0,0,7.77,3.62,8,8,0,0,0,5.92-3.85,8.1,8.1,0,0,0,12.93-1.77,8,8,0,0,0,6.92,3.06,7.86,7.86,0,0,0,6.79-4.82,8,8,0,0,0,14.31-.85,8,8,0,0,0,14.33.1,7.84,7.84,0,0,0,7,4.45A7.92,7.92,0,0,0,225.5,299a8,8,0,0,0,13.78-.13,8,8,0,0,0,14.28.84,8,8,0,0,0,14.34,1.55,7.79,7.79,0,0,0,6.51,5.51,7.88,7.88,0,0,0,7.08-2.6,7.92,7.92,0,0,0,6,4.6,7.84,7.84,0,0,0,7.72-3.1,8,8,0,0,0,14.1,2.54,8,8,0,0,0,13.91,3.45,8,8,0,0,0,13.15,4.24,8,8,0,0,0,5.43,5.28,7.87,7.87,0,0,0,8-2.16,8,8,0,0,0,13.77,4.21,7.84,7.84,0,0,0,5.28,6.75,8,8,0,0,0,7-.74,8.17,8.17,0,0,0,12.39,4.32,8.14,8.14,0,0,0,13.11,4.7,8.14,8.14,0,0,0,13.29,5.81,8.18,8.18,0,0,0,12.92,6.7A8,8,0,0,0,432,358a8.12,8.12,0,0,0,7.66.08A8.34,8.34,0,0,0,451.1,365c2.75-4.66,4.12-7,6.88-11.64l-2.75-1.61Z"/><path class="cls-1" d="M101.56,331.3a6.62,6.62,0,0,1-1.08-8.78c-7.65-1.8-8.22,4.33-8.22,4.33,1.21,3.33,1.82,5,3,8.27C95.3,335.12,106,335.48,101.56,331.3Z"/><path class="cls-1" d="M113.14,336.74c-4.47-3.79-1.1-8.62-1.1-8.62-7.71-1.16-8.28,5-8.28,5,1.22,3.2,1.84,4.78,3.07,7.94C106.83,341,117.6,340.53,113.14,336.74Z"/><path class="cls-1" d="M124.8,341.25c-4.5-3.43-1.11-8.48-1.11-8.48-7.76-.57-8.34,5.58-8.34,5.58,1.24,3.08,1.86,4.61,3.1,7.65C118.45,346,129.3,344.68,124.8,341.25Z"/><path class="cls-1" d="M136.55,344.88c-4.53-3.1-1.13-8.35-1.13-8.35-7.81,0-8.39,6.15-8.39,6.15,1.25,3,1.88,4.44,3.13,7.37C130.16,350.05,141.08,348,136.55,344.88Z"/><path class="cls-1" d="M149.57,347.94c-4.56-2.75-1.14-8.21-1.14-8.21-7.86.54-8.45,6.72-8.45,6.72l3.16,7.09S154.13,350.7,149.57,347.94Z"/><path class="cls-1" d="M161.47,350c-4.59-2.47-1.15-8.1-1.15-8.1-7.91,1-8.49,7.2-8.49,7.2,1.27,2.75,1.91,4.12,3.18,6.85C155,355.9,166.06,352.43,161.47,350Z"/><path class="cls-1" d="M173.43,351.29c-4.61-2.22-1.16-8-1.16-8-7.94,1.41-8.53,7.62-8.53,7.62,1.28,2.67,1.92,4,3.2,6.64C166.94,357.56,178,353.51,173.43,351.29Z"/><path class="cls-1" d="M185.45,352c-4.63-2-1.16-7.91-1.16-7.91-8,1.79-8.57,8-8.57,8,1.28,2.59,1.93,3.87,3.21,6.44C178.93,358.58,190.09,354,185.45,352Z"/><path class="cls-1" d="M197.73,352.22c-4.66-1.78-1.18-7.82-1.18-7.82-8,2.13-8.6,8.37-8.6,8.37,1.29,2.52,1.94,3.77,3.23,6.26C191.18,359,202.38,354,197.73,352.22Z"/><path class="cls-1" d="M209.84,351.94c-4.67-1.61-1.18-7.75-1.18-7.75-8,2.42-8.63,8.67-8.63,8.67,1.3,2.46,1.95,3.68,3.25,6.11C203.28,359,214.51,353.56,209.84,351.94Z"/><path class="cls-1" d="M222,351.25c-4.69-1.46-1.19-7.69-1.19-7.69-8.07,2.67-8.66,8.94-8.66,8.94l3.26,6S226.68,352.72,222,351.25Z"/><path class="cls-1" d="M234.18,350.23c-4.69-1.35-1.19-7.65-1.19-7.65-8.08,2.88-8.68,9.16-8.68,9.16l3.28,5.86S238.88,351.57,234.18,350.23Z"/><path class="cls-1" d="M247.63,348.78c-4.71-1.24-1.2-7.6-1.2-7.6-8.1,3.05-8.69,9.35-8.69,9.35,1.31,2.31,2,3.46,3.28,5.77C241,356.3,252.33,350,247.63,348.78Z"/><path class="cls-1" d="M259.86,347.25c-4.71-1.17-1.2-7.57-1.2-7.57-8.11,3.16-8.7,9.47-8.7,9.47l3.28,5.71S264.57,348.42,259.86,347.25Z"/><path class="cls-1" d="M272.11,345.59c-4.72-1.13-1.2-7.56-1.2-7.56-8.12,3.24-8.72,9.57-8.72,9.57,1.32,2.26,2,3.39,3.29,5.65C265.48,353.25,276.82,346.72,272.11,345.59Z"/><path class="cls-1" d="M284.36,343.85c-4.72-1.11-1.2-7.55-1.2-7.55-8.12,3.27-8.72,9.61-8.72,9.61l3.29,5.63S289.07,345,284.36,343.85Z"/><path class="cls-1" d="M295.58,342.26c-4.71-1.12-1.2-7.55-1.2-7.55-8.12,3.26-8.72,9.61-8.72,9.61L289,350S300.3,343.39,295.58,342.26Z"/><path class="cls-1" d="M307.83,340.57c-4.71-1.16-1.2-7.56-1.2-7.56-8.12,3.21-8.71,9.57-8.71,9.57,1.31,2.26,2,3.39,3.29,5.64C301.21,348.22,312.54,341.74,307.83,340.57Z"/><path class="cls-1" d="M320.07,339c-4.71-1.22-1.2-7.59-1.2-7.59-8.11,3.12-8.71,9.5-8.71,9.5,1.32,2.26,2,3.4,3.29,5.67C313.45,346.59,324.77,340.23,320.07,339Z"/><path class="cls-1" d="M332.28,337.63c-4.69-1.31-1.19-7.62-1.19-7.62-8.09,3-8.69,9.37-8.69,9.37l3.28,5.74S337,338.94,332.28,337.63Z"/><path class="cls-1" d="M345.71,336.41c-4.69-1.43-1.19-7.67-1.19-7.67-8.08,2.78-8.68,9.19-8.68,9.19l3.28,5.82S350.39,337.85,345.71,336.41Z"/><path class="cls-1" d="M357.87,335.64c-4.67-1.58-1.18-7.73-1.18-7.73-8.06,2.56-8.66,9-8.66,9l3.26,5.92S362.54,337.22,357.87,335.64Z"/><path class="cls-1" d="M370,335.27c-4.65-1.75-1.17-7.8-1.17-7.8-8,2.29-8.64,8.73-8.64,8.73,1.3,2.4,2,3.61,3.26,6C363.44,342.24,374.65,337,370,335.27Z"/><path class="cls-1" d="M382.08,335.34c-4.64-1.94-1.17-7.87-1.17-7.87-8,2-8.61,8.43-8.61,8.43,1.3,2.46,1.94,3.7,3.24,6.18C375.54,342.08,386.71,337.29,382.08,335.34Z"/><path class="cls-1" d="M394.31,336c-4.62-2.17-1.16-8-1.16-8-8,1.62-8.58,8.08-8.58,8.08,1.3,2.53,1.94,3.8,3.23,6.35C387.8,342.43,398.93,338.13,394.31,336Z"/><path class="cls-1" d="M406.29,337.16c-4.6-2.42-1.16-8.06-1.16-8.06-7.92,1.23-8.53,7.7-8.53,7.7,1.28,2.6,1.92,3.91,3.2,6.53C399.8,343.33,410.88,339.58,406.29,337.16Z"/><path class="cls-1" d="M418.2,339c-4.57-2.69-1.14-8.16-1.14-8.16-7.89.79-8.5,7.28-8.5,7.28,1.28,2.68,1.92,4,3.19,6.73C411.75,344.86,422.77,341.71,418.2,339Z"/><path class="cls-1" d="M430.05,341.59c-4.54-3-1.13-8.29-1.13-8.29-7.85.31-8.46,6.82-8.46,6.82,1.27,2.77,1.9,4.16,3.17,7C423.63,347.08,434.59,344.58,430.05,341.59Z"/><path class="cls-1" d="M443,345.34c-4.5-3.36-1.11-8.43-1.11-8.43-7.79-.27-8.41,6.25-8.41,6.25,1.26,2.88,1.89,4.32,3.15,7.23C436.63,350.39,447.51,348.69,443,345.34Z"/><path class="cls-1" d="M454.69,349.64c-4.47-3.71-1.11-8.57-1.11-8.57-7.73-.83-8.35,5.7-8.35,5.7,1.25,3,1.88,4.48,3.12,7.5C448.35,354.27,459.16,353.35,454.69,349.64Z"/><path class="cls-1" d="M466.28,354.87a6.56,6.56,0,0,1-1.09-8.72c-7.67-1.45-8.29,5.1-8.29,5.1,1.24,3.09,1.86,4.65,3.09,7.79C460,359,470.72,359,466.28,354.87Z"/><path class="cls-1" d="M477.79,361.09c-4.4-4.5-1.08-8.88-1.08-8.88-7.61-2.1-8.23,4.45-8.23,4.45,1.23,3.22,1.84,4.84,3.06,8.1C471.54,364.76,482.18,365.59,477.79,361.09Z"/><path class="cls-2" d="M476.73,389.9c-124.1-68.13-264.19,31.56-388.29-36.57q1.38-14.7,2.77-29.4C215.3,392.06,355.4,292.36,479.5,360.5Q478.11,375.2,476.73,389.9Z"/><path class="cls-3" d="M191.65,361l-1.62,0c-.73,7.65-1.09,11.48-1.81,19.13l1.63,0Z"/><path class="cls-3" d="M231.13,359.19l-1.64.15-1.8,19.13,1.64-.15Z"/><path class="cls-3" d="M283.05,352.68l-1.65.23L279.6,372l1.64-.23C282,364.15,282.33,360.33,283.05,352.68Z"/><path class="cls-3" d="M218.54,360.19l-1.63.1-1.81,19.13,1.64-.1Z"/><path class="cls-3" d="M269.25,354.62l-1.65.23L265.8,374l1.65-.22Z"/><path class="cls-3" d="M256.59,356.32l-1.64.21-1.8,19.13,1.64-.21Z"/><path class="cls-3" d="M244.88,357.76l-1.64.18c-.73,7.66-1.09,11.48-1.81,19.14l1.65-.19Z"/><path class="cls-3" d="M205.27,360.83l-1.63,0L201.84,380l1.63-.05Z"/><path class="cls-3" d="M179.19,360.52l-1.61-.1-1.8,19.13,1.61.1Z"/><path class="cls-3" d="M99.64,359.54l1.8-19.13-1.55-.8-1.8,19.13Z"/><path class="cls-3" d="M126.57,350.87l-1.58-.53-1.8,19.14,1.57.52C125.48,362.35,125.84,358.52,126.57,350.87Z"/><path class="cls-3" d="M113.41,346l-1.56-.67-1.8,19.14,1.56.66Z"/><path class="cls-3" d="M165.09,359.28l-1.61-.2-1.8,19.13,1.61.2Z"/><path class="cls-3" d="M139.42,354.6l-1.59-.41L136,373.32l1.59.41Z"/><path class="cls-3" d="M151.67,357.25l-1.6-.3-1.8,19.14,1.59.3C150.58,368.73,151,364.91,151.67,357.25Z"/><path class="cls-3" d="M349.82,344.81l-1.63.11c-.73,7.65-1.09,11.48-1.81,19.13l1.64-.11Z"/><path class="cls-3" d="M296.43,350.78l-1.64.23c-.73,7.65-1.09,11.48-1.81,19.13l1.65-.23Z"/><path class="cls-3" d="M416.51,347.61l-1.6-.29c-.72,7.66-1.08,11.48-1.81,19.14l1.6.28C415.42,359.09,415.79,355.26,416.51,347.61Z"/><path class="cls-3" d="M402.68,345.58l-1.61-.18-1.8,19.13,1.61.18Z"/><path class="cls-3" d="M442,354l-1.58-.51-1.8,19.13,1.58.51Z"/><path class="cls-3" d="M454.77,358.77l-1.57-.65-1.8,19.14,1.57.64Z"/><path class="cls-3" d="M478.53,370.77l-.39-.23-1.8,19.13.39.23Z"/><path class="cls-3" d="M466.75,364.26l-1.55-.77c-.73,7.65-1.09,11.48-1.81,19.13l1.56.78Z"/><path class="cls-3" d="M428.75,350.22l-1.58-.38c-.73,7.65-1.09,11.48-1.81,19.13l1.59.39Z"/><path class="cls-3" d="M322.87,347.33l-1.65.2-1.8,19.13,1.64-.2C321.78,358.81,322.14,355,322.87,347.33Z"/><path class="cls-3" d="M337.23,345.82l-1.64.15-1.8,19.14,1.64-.16Z"/><path class="cls-3" d="M309.09,349.05l-1.65.22-1.8,19.13,1.65-.22Z"/><path class="cls-3" d="M389.17,344.43l-1.61-.09c-.73,7.65-1.09,11.48-1.81,19.13l1.62.09Z"/><path class="cls-3" d="M363.5,344.14l-1.63.05c-.72,7.66-1.08,11.48-1.81,19.14l1.64-.06Z"/><path class="cls-3" d="M376.72,344l-1.63,0-1.8,19.14h1.62C375.64,355.49,376,351.66,376.72,344Z"/><path class="cls-4" d="M476.75,359l0-.1A149.42,149.42,0,0,0,451.91,347l-.05.06,0-.09c-5.14-2-7.72-2.88-12.91-4.45-.05.1-.11.19-.17.29,0-.13-.07-.25-.11-.37-5.18-1.56-7.78-2.24-13-3.41a.43.43,0,0,0,0,.07l0-.09a219.75,219.75,0,0,0-37.45-4.92c-.06.11-.12.21-.17.32l-.12-.34c-5.31-.25-8-.31-13.3-.31a.59.59,0,0,0,0,.08l0-.08c-10.37,0-15.58.23-26,1,0,0,0,.05,0,.08l0-.07c-5.37.38-8.06.62-13.44,1.15l-.18.35c0-.11-.07-.21-.11-.32-5.38.54-8.08.84-13.47,1.49l0,.08,0-.07c-10.49,1.26-15.74,2-26.25,3.48l-.18.35a2.85,2.85,0,0,0-.12-.31L281,342.83l-.18.35c0-.1-.07-.21-.11-.31-5.41.77-8.11,1.16-13.51,1.89a.41.41,0,0,1-.05.09s0-.05,0-.08c-10.5,1.44-15.76,2.14-26.24,3.26l0,.09,0-.08c-5.39.58-8.08.85-13.45,1.29l-.18.34c0-.11-.07-.21-.11-.32-5.38.45-8.06.63-13.42.9l0,.08,0-.07a299.41,299.41,0,0,1-37.89-.31l-.17.31a3.38,3.38,0,0,1-.11-.34c-5.3-.41-7.94-.68-13.2-1.4l0,.07a.19.19,0,0,0,0-.08,165.53,165.53,0,0,1-25.44-5.15l-.05.07,0-.09c-5.19-1.42-7.78-2.22-12.94-4.06l-.17.28c0-.12-.08-.25-.11-.37-5.16-1.85-7.73-2.87-12.85-5.16l0,.06,0-.09a150.66,150.66,0,0,1-19.28-10.07c-.57,6.07-.86,9.11-1.43,15.19a12.16,12.16,0,0,0,4.09,4c2.55,1.45,4.92,1.18,6.33-.33a11.83,11.83,0,0,0,5.68,6.55c2.88,1.35,5.52.62,6.85-1.49a10.54,10.54,0,0,0,6,6.94c3,1.13,5.73.08,7-2.27a9.46,9.46,0,0,0,6.18,6.68,5.91,5.91,0,0,0,7-2.58,8.52,8.52,0,0,0,6.15,5.89,6.37,6.37,0,0,0,6.52-2.34,7.78,7.78,0,0,0,5.86,4.61,6.83,6.83,0,0,0,7-3.45,7.23,7.23,0,0,0,13.42,1,6.82,6.82,0,0,0,6.34,4.94,7.77,7.77,0,0,0,6.27-2.94,6.54,6.54,0,0,0,5.7,3.13,8.2,8.2,0,0,0,6.64-3.67,6.28,6.28,0,0,0,6,3.37,8.71,8.71,0,0,0,7.14-4.7,6,6,0,0,0,6.34,3.9,9.11,9.11,0,0,0,7.3-5.18,5.82,5.82,0,0,0,6.43,3.95,9.45,9.45,0,0,0,7.18-5.08,5.74,5.74,0,0,0,6.37,3.56,9.63,9.63,0,0,0,6.71-4.38,5.77,5.77,0,0,0,6.05,2.74,9.91,9.91,0,0,0,7.2-5.29c.9,2.4,3.34,3.83,6.38,3.4a10,10,0,0,0,7.34-5.59c.82,2.54,3.32,4.07,6.46,3.63a10,10,0,0,0,7.33-5.58c.83,2.54,3.33,4.08,6.47,3.66a9.85,9.85,0,0,0,6.71-4.43,5.8,5.8,0,0,0,6,2.76,9.67,9.67,0,0,0,7.19-5.17,5.81,5.81,0,0,0,6.37,3.61,9.43,9.43,0,0,0,7.3-5.29,6,6,0,0,0,6.43,4,9.12,9.12,0,0,0,7.16-4.83,6.17,6.17,0,0,0,6.33,4,8.68,8.68,0,0,0,6.66-3.82,6.47,6.47,0,0,0,6,3.46,8.27,8.27,0,0,0,7.11-4.35,6.78,6.78,0,0,0,6.28,4.52,7.79,7.79,0,0,0,7.21-4.28,7.2,7.2,0,0,0,6.33,5.12,7.31,7.31,0,0,0,6.23-2.48,7.72,7.72,0,0,0,5.62,3.87,6.9,6.9,0,0,0,6.55-2.59,8.33,8.33,0,0,0,5.85,4.76,6.36,6.36,0,0,0,7-2.88,9.19,9.19,0,0,0,6.14,6.08,5.89,5.89,0,0,0,7.05-2.61,10.22,10.22,0,0,0,6.16,6.88c2.9,1.07,5.55.28,6.87-1.84a11.57,11.57,0,0,0,6,7.16c2.57,1.18,4.94.85,6.36-.68a13.06,13.06,0,0,0,5.66,6.75c2.42,1.34,4.67,1.29,6.09.08.51-5.38.76-8.08,1.27-13.46l-2.71-1.6Z"/><path class="cls-1" d="M39.79,337S28.24,338.74,18.7,352l6.09-4.69L23,353.69s12.42-14.47,21.57-13,4.72-4.94,4.72-4.94"/><path class="cls-1" d="M26.8,358.24,24.44,354l3.28-.36-2.32-5.81s2.8-.75,6.66,2.38l3.85,3.12-4.52-6.27s2.41-2.17,6,.31,2.33.16,2.33.16l-4.29-4.07a5.13,5.13,0,0,1,6.46-.9c3.9,2.14-2.86-3.09-2.86-3.09s10.89-3.81,11.1,2.23-8.08,12.94-8.73,13.59"/><path class="cls-1" d="M10.17,345.66s2.48,3.91,6.92,3.49c0,0-3.05-5.24-2.8-5.76S20,344.52,20,344.52V340l5.06,1.74,1-3.93,4.58,1.61s.49-5.87.05-6.12-4.58-2.57-7.68-2"/><path class="cls-1" d="M42.48,339s-7.81,7.89-11.24,12.22a31.08,31.08,0,0,1-8.76,7.12s10.58,9.43,23,7.47c0,0-8.31-5,2.51-13.82s34.91-19.68,18.88-34-28.9-.79-28.9-.79l11.29,19.35-1.7,4.26"/><path class="cls-1" d="M47,309.66s-27.64,8.17-30.65,10-12.08-.45-12.19-5.54c0,0-12.17,14.56,5.28,34.39,0,0,10.72-11,21.93-10.39S51.23,347.85,63,333.9,57.29,303.05,47,309.66Z"/><path class="cls-1" d="M34.75,330.77l7.18-12.11s6.64-.82,10.84,2.66a12.25,12.25,0,0,1-5.51,9.82C41.68,334.7,34.75,330.77,34.75,330.77Z"/><path class="cls-1" d="M46.79,323.2a4,4,0,1,0,0,5.61A4,4,0,0,0,46.79,323.2Z"/><path class="cls-1" d="M45.23,324.78a1.75,1.75,0,1,0,0,2.47A1.74,1.74,0,0,0,45.23,324.78Z"/><path class="cls-5" d="M65.15,333.71s-8.64-7.86-24.9-6.88l7.49,1.74-6.13,2.67s19.07.45,23.7,8.48,6.82.52,6.82.52"/><path class="cls-6" d="M40.51,337.08l1.77-4.49,2.35,2.31,3-5.48s2.35,1.7,2.38,6.66l0,5,2-7.47s3.2.49,3.58,4.88,1.36,1.9,1.36,1.9l.43-5.9a5.14,5.14,0,0,1,4.79,4.43c.81,4.37.58-4.17.58-4.17s9.84,6,5.3,10-15.13,1.95-16,1.86"/><path class="cls-6" d="M39.71,316.24s-1.45,4.4,1.68,7.57c0,0,2.13-5.68,2.69-5.81s2.76,5.16,2.76,5.16l3.52-2.85,1.85,5,3.66-1.74,1.65,4.57s4.85-3.34,4.77-3.84-.92-5.17-3.3-7.23"/><path class="cls-1" d="M65.32,337s-11-1-16.57-.95a31.21,31.21,0,0,1-11.06-2.27s-.6,14.16,8.79,22.52c0,0-1.43-9.57,12.28-6.81S96.1,364.07,97,342.59s-17.69-22.86-17.69-22.86l-7.82,21-4.38,1.38"/><path class="cls-4" d="M90.88,321.92S67.05,305.7,63.73,304.53s-7.3-9.63-3.44-12.94c0,0-19-.19-23.26,25.87,0,0,15.31,1.32,21.93,10.39s5.08,21.56,23.31,21.8S102.53,325.71,90.88,321.92Z"/><path class="cls-1" d="M66.81,325.84l13.92-2.12s4.83,4.62,4.81,10.07a12.26,12.26,0,0,1-11.09,2C68.15,333.68,66.81,325.84,66.81,325.84Z"/><path class="cls-7" d="M80.29,330.35A4,4,0,1,0,76,333.93,4,4,0,0,0,80.29,330.35Z"/><path d="M78.08,330.15a1.75,1.75,0,1,0-1.9,1.57A1.74,1.74,0,0,0,78.08,330.15Z"/><path class="cls-5" d="M71.77,204.86s-5.9-10.07-21.71-14l6.63,3.9-6.65.72s18.07,6.12,20.1,15.17,6.35,2.52,6.35,2.52"/><path class="cls-6" d="M47.25,200.74l3-3.76,1.56,2.9,4.52-4.32s1.74,2.32.28,7.06l-1.46,4.75,4.13-6.54s2.91,1.42,2,5.72.72,2.22.72,2.22l2.18-5.51a5.14,5.14,0,0,1,3.25,5.66c-.53,4.41,1.79-3.81,1.79-3.81s7.61,8.68,2.09,11.13-15-2.66-15.87-3"/><path class="cls-6" d="M52.7,180.61s-2.7,3.76-.65,7.72c0,0,3.72-4.78,4.3-4.74s1.09,5.75,1.09,5.75l4.21-1.68.28,5.34,4-.57.21,4.85s5.63-1.74,5.7-2.24.66-5.21-1-7.89"/><path class="cls-1" d="M71,208.09s-10.24-4.29-15.54-5.85a31.19,31.19,0,0,1-9.88-5.46s-4.79,13.33,1.68,24.11c0,0,1.49-9.56,13.75-2.84s31.31,25,38.59,4.79-10.07-27.1-10.07-27.1L75.76,213.45l-4.59,0"/><path class="cls-4" d="M99.85,201.28S81.93,178.7,79.11,176.59s-4.09-11.37.58-13.38c0,0-18-5.84-29.92,17.76,0,0,14.23,5.82,17.84,16.46S66,219.52,83.36,225.19,109.84,208.37,99.85,201.28Z"/><path class="cls-1" d="M75.7,197.84,89.62,200s3.24,5.85,1.59,11.05A12.25,12.25,0,0,1,80,209.58C74.65,205.73,75.7,197.84,75.7,197.84Z"/><path class="cls-7" d="M87.22,206.17A4,4,0,1,0,82,208.3,4,4,0,0,0,87.22,206.17Z"/><path d="M85.18,205.32A1.75,1.75,0,1,0,82,204a1.75,1.75,0,1,0,3.23,1.35Z"/><path class="cls-5" d="M89.51,159.25s-5.9-10.07-21.72-14l6.64,3.9-6.65.72s18.07,6.12,20.1,15.17,6.34,2.52,6.34,2.52"/><path class="cls-6" d="M65,155.13l3-3.76,1.56,2.9L74.1,150s1.74,2.32.28,7.06l-1.46,4.75,4.13-6.54s2.91,1.42,2,5.72.72,2.22.72,2.22l2.17-5.5a5.12,5.12,0,0,1,3.25,5.65c-.52,4.41,1.8-3.81,1.8-3.81s7.61,8.68,2.08,11.13-15-2.66-15.86-3"/><path class="cls-6" d="M70.44,135s-2.7,3.76-.66,7.72c0,0,3.73-4.78,4.3-4.74s1.1,5.75,1.1,5.75l4.21-1.68.27,5.34,4-.57.22,4.85s5.62-1.74,5.7-2.24.66-5.21-1-7.89"/><path class="cls-1" d="M88.69,162.48s-10.24-4.29-15.54-5.85a31.19,31.19,0,0,1-9.88-5.46s-4.79,13.34,1.67,24.11c0,0,1.49-9.56,13.76-2.84s31.31,25,38.59,4.79-10.08-27.1-10.08-27.1L93.49,167.84l-4.59,0"/><path class="cls-4" d="M117.59,155.67S99.67,133.09,96.85,131s-4.1-11.37.58-13.38c0,0-18.05-5.84-29.92,17.76,0,0,14.23,5.82,17.84,16.46s-1.58,22.09,15.75,27.76S127.58,162.76,117.59,155.67Z"/><path class="cls-1" d="M93.44,152.23l13.92,2.13s3.24,5.85,1.59,11A12.25,12.25,0,0,1,97.78,164C92.38,160.12,93.44,152.23,93.44,152.23Z"/><path class="cls-7" d="M105,160.56a4,4,0,1,0-5.19,2.13A3.95,3.95,0,0,0,105,160.56Z"/><path d="M102.92,159.71a1.75,1.75,0,1,0-2.29.94A1.75,1.75,0,0,0,102.92,159.71Z"/><path class="cls-5" d="M215.67,91.5s-9.06-7.37-25.24-5.49L198,87.34l-6,3s19.07-.6,24.14,7.16,6.83.14,6.83.14"/><path class="cls-6" d="M191.25,96.23l1.52-4.58,2.48,2.18L198,88.19s2.45,1.56,2.74,6.52l.3,5,1.57-7.57s3.23.31,3.85,4.67,1.46,1.83,1.46,1.83l.1-5.92a5.13,5.13,0,0,1,5,4.16c1,4.31.35-4.2.35-4.2s10.16,5.46,5.85,9.69-15,2.78-15.92,2.74"/><path class="cls-6" d="M189.31,75.47s-1.21,4.47,2.09,7.46c0,0,1.81-5.78,2.37-6s3,5,3,5l3.35-3,2.13,4.9,3.56-1.93,1.9,4.46s4.65-3.6,4.55-4.09-1.21-5.12-3.69-7"/><path class="cls-1" d="M216,94.81s-11.09-.43-16.6,0a31.14,31.14,0,0,1-11.17-1.65s.19,14.17,10,22c0,0-2-9.47,11.88-7.47s38.1,12.45,37.83-9-18.94-21.85-18.94-21.85l-6.64,21.39-4.29,1.62"/><path class="cls-4" d="M240.71,78.31S216,63.44,212.64,62.45s-7.82-9.21-4.15-12.73c0,0-19,.85-21.8,27.11,0,0,15.37.47,22.48,9.17s6.26,21.24,24.47,20.48S252.56,81.45,240.71,78.31Z"/><path class="cls-1" d="M216.89,83.55l13.78-2.88S235.75,85,236,90.46a12.23,12.23,0,0,1-11,2.56C218.67,91.31,216.89,83.55,216.89,83.55Z"/><path class="cls-7" d="M230.6,87.32a4,4,0,1,0-4.11,3.81A4,4,0,0,0,230.6,87.32Z"/><path d="M228.39,87.23a1.75,1.75,0,1,0-3.5-.13,1.75,1.75,0,0,0,3.5.13Z"/><path class="cls-4" d="M345.9,273.12s80.89-27,162.58-19.84,178,130.77,178,130.77-71.4,59.57-136.21,54.47S405.92,398.3,389.44,344"/><path class="cls-1" d="M474.88,403.8l-2.32,15.79A265.07,265.07,0,0,0,520,434.16c9.92-26.8-34.87-107.77-35.1-108.77S474.88,403.8,474.88,403.8Z"/><path class="cls-4" d="M352.58,274.17s9.4,26.58-20.37,28.88-1.49,6-1.49,6l23.13,7.7,11.24.56,17.62,4.92s7.41,12,7.27,13.49-16,1.76-16,1.76,15.24,19.51,0,26.62l-9.37.87s46.16,11.13,57.92,22.28,13.65-51.7,12.32-58.85-16-24.36-16-24.36"/><path class="cls-1" d="M366.53,278.08s.12-19.07,24.29-26.84c0,0-4.94,24,10.84,23.45s1.89-23.59,31.51-28.83c0,0-4.51,23,6.9,22.74s6.54-23.15,33.55-25.63c0,0-4.9,23.64,8.29,22.21s9.68-24.54,45-22.55c0,0-11,17.71-1.45,18.95s18.09-14.37,42.87-3.67c0,0-8.22,12.62,1.36,17.54s18.13-7.66,40.57,6.5c0,0-13.86,12.09-5.67,17.55s20.19-1.11,40.54,13.86c0,0-12.9,12.51-5.92,20.2s-44.51-62.45-129.74-63.95-149.88,13-149.88,13"/><path class="cls-9" d="M492.43,391.94l.52.32c12.69-7.9,41-28.22,41.76-52.56.95-31.38-54.65-56-54.65-56s38.46,25.39,44.36,55.07C529,361.75,503.93,383.38,492.43,391.94Z"/><path class="cls-9" d="M502.23,277.55S541.17,305,547,337.39c5.23,29.26-30.47,56.74-37.42,61.79l.12.06c7.62-4.65,46.68-29.92,47.75-60.86C558.62,304.09,502.23,277.55,502.23,277.55Z"/><path class="cls-9" d="M526,275.44s39.27,28.92,45,63.23-39.3,66.54-39.3,66.54,48.52-29.19,49.88-65.55S526,275.44,526,275.44Z"/><path class="cls-1" d="M457.22,336.78,451,331.39s.24-34.85,22.93-33.4,26.14,27.56,26.55,41.55-11.38,27-11.38,27"/><path class="cls-4" d="M451.64,332.37l11.24,72.82S438.17,441.62,437,449s1.34.31,1.34.31,19.28,16.35,28.91,14.18,22.16-49.38,22.16-49.38,6.2-7.78,9.95-3.17,2.12,7,2.12,7a23.54,23.54,0,0,0,3.46-12.06c-.11-6.66-10.75-4.48-10.75-4.48s4.39-55.75-.59-74-13.42-24.78-24.71-21.92S451.64,332.37,451.64,332.37Z"/><path class="cls-9" d="M504.9,405.81c-.11-6.66-10.75-4.48-10.75-4.48s4.39-55.75-.59-74c-4.47-16.4-11.74-23.32-21.35-22.49,4.09,9.6,11.31,34.87,11.31,49,0,19-12.33,12.34-12.33,12.34s9,10.33,14,3,.66,10.33-4,10.33-8-6.33-8-6.33-.34,17.66,9,16.33,1.33,11.33,1.33,11.33-10-6.48-21.74-2.83l1,6.52c6.92-.81,13.86-.76,17.74,1.65A201.6,201.6,0,0,0,459.67,410C453,420.12,437.89,443.27,437,449c-1.21,7.36,1.34.31,1.34.31s19.28,16.35,28.91,14.18,22.16-49.38,22.16-49.38,6.2-7.78,9.95-3.17,2.12,7,2.12,7A23.54,23.54,0,0,0,504.9,405.81Z"/><path class="cls-9" d="M445.35,449.32s-15.77-5.54-23.73-1.38-5.74,23.14-5.74,23.14,8.69-15.43,12.59-14.56,11.29,5.89,15.63,4.81,7.41-8.58,7.41-8.58"/><path class="cls-8" d="M421.62,447.94c-8,4.16-5.74,23.14-5.74,23.14s7.19-12.76,11.43-14.42c1.38-5.59.75-8.58-.5-10.14A14.22,14.22,0,0,0,421.62,447.94Z"/><path class="cls-9" d="M455.71,449.37S439.94,443.83,432,448s-5.74,23.14-5.74,23.14,8.69-15.42,12.59-14.56,11.29,5.89,15.62,4.81,7.42-8.57,7.42-8.57"/><path class="cls-8" d="M432,448c-8,4.16-5.74,23.14-5.74,23.14s7.19-12.76,11.43-14.41c1.38-5.6.75-8.59-.5-10.15A14.56,14.56,0,0,0,432,448Z"/><path class="cls-9" d="M466.28,450.54s-15.78-5.54-23.74-1.38-5.74,23.14-5.74,23.14,8.7-15.42,12.6-14.56,11.29,5.89,15.62,4.81,7.41-8.57,7.41-8.57"/><path class="cls-8" d="M442.54,449.16c-8,4.16-5.74,23.14-5.74,23.14s7.2-12.76,11.43-14.41c1.39-5.6.76-8.59-.5-10.15A14.47,14.47,0,0,0,442.54,449.16Z"/><path class="cls-4" d="M628.08,343.06c2,.19,163.46,45.53,190.23,123.89S689.2,606,576.64,558.69,529,456.77,557,485s-8.76,34.33-8.76,34.33,75.36,58.32,156.15,21.74,57.57-120.64-119-106.64"/><path class="cls-1" d="M552.8,514.93s5.14-3,5.65-12-15.22-17.84-22.61-7,12.36,23.43,12.36,23.43a39.34,39.34,0,0,0,8.8-2.77A22.54,22.54,0,0,1,552.8,514.93Z"/><path class="cls-9" d="M746.69,393.25c32.69,36.13,61.57,84.53,29.5,120.29-46.8,52.18-137.44,53.14-200.12,44.91l.57.24C689.2,606,845.08,545.3,818.31,467,808.25,437.51,779.18,412.73,746.69,393.25Z"/></g></g></svg>