<svg xmlns="http://www.w3.org/2000/svg" viewBox="0 0 443.74 291.5"><defs><style>.cls-1,.cls-12,.cls-15,.cls-5,.cls-7{fill:none;stroke-miterlimit:22.93;stroke-width:3px;}.cls-1,.cls-5{stroke:#00052a;}.cls-2{fill:#303974;}.cls-10,.cls-11,.cls-13,.cls-14,.cls-15,.cls-16,.cls-17,.cls-18,.cls-19,.cls-2,.cls-3,.cls-4,.cls-5,.cls-6,.cls-7,.cls-8,.cls-9{fill-rule:evenodd;}.cls-3{fill:#181f50;}.cls-4{fill:#d2d2d2;}.cls-6{fill:#1f2758;}.cls-7{stroke:#1a1a1a;}.cls-8{fill:#4d4d4d;}.cls-9{fill:#333;}.cls-10{fill:#999;}.cls-11{fill:gray;}.cls-12,.cls-15{stroke:#2c3257;}.cls-13{fill:#5d66a1;}.cls-14{fill:#4c5485;}.cls-16{fill:#fff;}.cls-17{fill:#900;}.cls-18{fill:#600000;}.cls-19{fill:#454c7d;}</style></defs><g id="Layer_2" data-name="Layer 2"><g id="Layer_1-2" data-name="Layer 1"><path class="cls-1" d="M175.07,126.92c1.91-11.34,5.12-26.36-10.25-36.8-16.48,3.81-25.74,18-28.57,49.07-4.08,44.68,4.16,111.76,9.62,131.49C146.58,242,151.8,190.3,162.21,155,165.75,143,170.29,133.59,175.07,126.92Z"/><path class="cls-2" d="M175.07,126.92c1.91-11.34,5.12-26.36-10.25-36.8-16.48,3.81-25.74,18-28.57,49.07-4.08,44.68,4.16,111.76,9.62,131.49C146.58,242,151.8,190.3,162.21,155,165.75,143,170.29,133.59,175.07,126.92Z"/><path class="cls-3" d="M175.06,126.92c.85-5,2.86-10.79,2.74-16.18-2.53-2.15-6.23-4-11.5-5.43-10.23-2.75-22.2,13.74-25,44.76-3,33.21.74,78.79,5.12,108.11,1.65-29.6,6.78-72.55,15.82-103.16C165.75,143,170.29,133.59,175.06,126.92Z"/><path class="cls-4" d="M138.35,140.21c2.8-30.67,15.31-43.43,26.41-48.33-21.06,3.38-27.24,36.07-28.31,47.78-4,44,4.05,110,9.45,129.82q.09-3.11.24-6.53C140.93,237.52,134.73,179.92,138.35,140.21Z"/><path class="cls-5" d="M163.68,105.44a15.4,15.4,0,1,1-8.74,19.94A15.4,15.4,0,0,1,163.68,105.44Z"/><path class="cls-6" d="M163.68,105.44a15.4,15.4,0,1,1-8.74,19.94A15.4,15.4,0,0,1,163.68,105.44Z"/><path class="cls-3" d="M169.19,120.21A15.37,15.37,0,0,1,154,117.92a15.39,15.39,0,1,0,24.87-10.19A15.39,15.39,0,0,1,169.19,120.21Z"/><path class="cls-5" d="M167.93,116.81h0c5.17-3.43,12.94-2.42,15.63,3.17,5.57,11.56,33.53,55.23,41.93,63.33,4.48,4.31,2,12.21-3.17,15.63h0c-5.17,3.42-13.62,2.69-15.63-3.18-3.53-10.29-32.67-53.28-41.94-63.33C160.54,127.88,162.76,120.23,167.93,116.81Z"/><path class="cls-6" d="M167.93,116.81h0c5.17-3.43,12.94-2.42,15.63,3.17,5.57,11.56,33.53,55.23,41.93,63.33,4.48,4.31,2,12.21-3.17,15.63h0c-5.17,3.42-13.62,2.69-15.63-3.18-3.53-10.29-32.67-53.28-41.94-63.33C160.54,127.88,162.76,120.23,167.93,116.81Z"/><path class="cls-3" d="M218.64,175.54c-4.31,1.25-29.76-31.32-37.37-35.45S165.58,125,167.11,117.4c-4.57,3.66-6.33,10.73-2.36,15,9.27,10,38.41,53,41.94,63.33,2,5.87,10.46,6.6,15.63,3.18s7.65-11.32,3.17-15.63A68.07,68.07,0,0,1,218.64,175.54Z"/><path class="cls-5" d="M257.75,106.49c1-13.09,3.19-30.49-15.35-40.83-18.37,6-27.47,23.1-27.58,58.69-.17,51.24,15.93,126.75,24.12,148.65-2.07-32.75-1.31-92.05,7-133.23C248.76,125.74,253,114.56,257.75,106.49Z"/><path class="cls-2" d="M257.75,106.49c1-13.09,3.19-30.49-15.35-40.83-18.37,6-27.47,23.1-27.58,58.69-.17,51.24,15.93,126.75,24.12,148.65-2.07-32.75-1.31-92.05,7-133.23C248.76,125.74,253,114.56,257.75,106.49Z"/><path class="cls-3" d="M257.74,106.5c.47-5.83,2.17-12.57,1.5-18.68-3.1-2.2-7.49-3.95-13.63-5-11.92-2.11-23.88,17.86-24,53.44-.13,38.09,8.74,89.57,16.66,122.49-1.08-33.84.45-83.22,7.65-119C248.77,125.74,253,114.56,257.74,106.5Z"/><path class="cls-4" d="M217.31,125.3c.11-35.18,13.07-50.95,25.2-57.64-23.63,6-27.38,43.77-27.42,57.21-.16,50.48,15.63,124.78,23.77,146.76-.15-2.36-.27-4.85-.38-7.46C230,235.77,217.16,170.84,217.31,125.3Z"/><path class="cls-5" d="M249.76,81.24a17.59,17.59,0,1,1-19,16A17.59,17.59,0,0,1,249.76,81.24Z"/><path class="cls-6" d="M249.76,81.24a17.59,17.59,0,1,1-19,16A17.59,17.59,0,0,1,249.76,81.24Z"/><path class="cls-3" d="M247.94,99.16a17.57,17.57,0,0,1-14.41-10,17.58,17.58,0,1,0,30.64,2.11A17.59,17.59,0,0,1,247.94,99.16Z"/><path class="cls-5" d="M248.37,95h0c7-.89,14.48,4.06,14.41,11.15-.12,14.65,6.49,73.52,11,86,2.4,6.67-4.12,13.52-11.15,14.42h0c-7,.9-15.31-4.12-14.41-11.15,1.57-12.33-6.58-71.09-11-86C235.22,102.66,241.35,95.93,248.37,95Z"/><path class="cls-6" d="M248.37,95h0c7-.89,14.48,4.06,14.41,11.15-.12,14.65,6.49,73.52,11,86,2.4,6.67-4.12,13.52-11.15,14.42h0c-7,.9-15.31-4.12-14.41-11.15,1.57-12.33-6.58-71.09-11-86C235.22,102.66,241.35,95.93,248.37,95Z"/><path class="cls-3" d="M270.69,180.81c-5.05-.9-14.68-47.12-20.4-55.19s-8.44-23.41-3.06-30.39c-6.53,1.43-11.9,7.8-10,14.22,4.43,15,12.58,73.72,11,86.05-.9,7,7.38,12.05,14.41,11.15s13.55-7.75,11.15-14.42A77.17,77.17,0,0,1,270.69,180.81Z"/><path class="cls-5" d="M283.11,91c-6.88-14.31-16.89-33-.48-52.75C306,37,323.69,52.31,339.32,92.4c22.5,57.74,37.22,149.94,37.52,178.21-11.92-37.85-38.61-104.42-65.92-147.26C301.62,108.76,292,98,283.11,91Z"/><path class="cls-2" d="M283.11,91c-6.88-14.31-16.89-33-.48-52.75C306,37,323.69,52.31,339.32,92.4c22.5,57.74,37.22,149.94,37.52,178.21-11.92-37.85-38.61-104.42-65.92-147.26C301.62,108.76,292,98,283.11,91Z"/><path class="cls-3" d="M283.11,91c-3.06-6.38-7.91-13.24-9.83-20.42,2.55-3.83,6.73-7.71,13.2-11.62,12.53-7.57,34.72,9.75,50.34,49.85,16.73,42.91,29.15,104.85,34.55,145.44-13.52-38.64-36.75-93.68-60.45-130.86C301.62,108.76,292,98,283.11,91Z"/><path class="cls-4" d="M336.93,94.56c-15.46-39.64-36.94-51.78-53.55-54C312.63,37,333.33,78,339.24,93.1,361.4,150,375.94,240.69,376.34,269q-1.3-4.09-2.82-8.57C370.71,224.71,356.92,145.88,336.93,94.56Z"/><path class="cls-5" d="M285.15,60A21.27,21.27,0,1,0,312,73.52,21.26,21.26,0,0,0,285.15,60Z"/><path class="cls-6" d="M285.15,60A21.27,21.27,0,1,0,312,73.52,21.26,21.26,0,0,0,285.15,60Z"/><path class="cls-3" d="M292.34,80.6a21.28,21.28,0,0,0,14.12-15.84A21.27,21.27,0,1,1,271,75.87,21.26,21.26,0,0,0,292.34,80.6Z"/><path class="cls-5" d="M290.66,75.87h0c-8.51.92-15.87,8.86-13.81,17.17,4.28,17.2,13.09,88.28,11.31,104.3-1,8.52,8.65,14.74,17.17,13.81h0c8.52-.92,16.84-9.16,13.81-17.16-5.33-14.06-12.3-85.46-11.3-104.31C308.28,81.13,299.18,75,290.66,75.87Z"/><path class="cls-6" d="M290.66,75.87h0c-8.51.92-15.87,8.86-13.81,17.17,4.28,17.2,13.09,88.28,11.31,104.3-1,8.52,8.65,14.74,17.17,13.81h0c8.52-.92,16.84-9.16,13.81-17.16-5.33-14.06-12.3-85.46-11.3-104.31C308.28,81.13,299.18,75,290.66,75.87Z"/><path class="cls-3" d="M288.6,183c5.68-2.48,4-59.54,8.43-70.65s3.33-29.9-5-36.59c8.09-.16,16.2,5.8,15.78,13.89-1,18.85,6,90.25,11.3,104.31,3,8-5.29,16.24-13.81,17.16s-18.12-5.29-17.17-13.81A93.22,93.22,0,0,0,288.6,183Z"/><path class="cls-5" d="M359.15,109.12c-6.08-13.11-15-30.27.23-48,21.26-.85,37.2,13.34,50.92,50,19.77,52.84,32,137,31.94,162.69-10.39-34.6-33.84-95.54-58.17-134.87C375.78,125.55,367.16,115.63,359.15,109.12Z"/><path class="cls-2" d="M359.15,109.12c-6.08-13.11-15-30.27.23-48,21.26-.85,37.2,13.34,50.92,50,19.77,52.84,32,137,31.94,162.69-10.39-34.6-33.84-95.54-58.17-134.87C375.78,125.55,367.16,115.63,359.15,109.12Z"/><path class="cls-3" d="M359.16,109.12c-2.71-5.84-7-12.14-8.7-18.71,2.37-3.45,6.23-6.94,12.16-10.41,11.5-6.73,31.48,9.31,45.2,46,14.7,39.28,25.23,95.82,29.64,132.84-11.82-35.35-32.28-85.75-53.39-119.88C375.78,125.56,367.16,115.63,359.16,109.12Z"/><path class="cls-4" d="M408.1,113.07c-13.57-36.28-33-47.59-48.07-49.86,26.67-2.89,45,34.71,50.19,48.57,19.47,52.05,31.58,134.8,31.58,160.6-.75-2.49-1.58-5.1-2.46-7.83C437.23,232,425.66,160,408.1,113.07Z"/><path class="cls-5" d="M364.27,117.8A19.36,19.36,0,1,0,344.9,98.44,19.4,19.4,0,0,0,364.27,117.8Z"/><path class="cls-6" d="M364.27,117.8A19.36,19.36,0,1,0,344.9,98.44,19.4,19.4,0,0,0,364.27,117.8Z"/><path class="cls-3" d="M364.58,98.9a19.36,19.36,0,0,0,16.74-9.63,19.36,19.36,0,1,1-33.81-.56A19.38,19.38,0,0,0,364.58,98.9Z"/><path class="cls-5" d="M364.49,94.34h0c-7.63-1.64-16.27,3.1-16.86,10.88-1.24,16.08-14,80-20.13,93.36-3.26,7.09,3.24,15.21,10.87,16.85h0c7.62,1.65,17.18-3.08,16.85-10.87-.57-13.67,13.87-77.36,20.14-93.37C378.2,103.93,372.11,96,364.49,94.34Z"/><path class="cls-6" d="M364.49,94.34h0c-7.63-1.64-16.27,3.1-16.86,10.88-1.24,16.08-14,80-20.13,93.36-3.26,7.09,3.24,15.21,10.87,16.85h0c7.62,1.65,17.18-3.08,16.85-10.87-.57-13.67,13.87-77.36,20.14-93.37C378.2,103.93,372.11,96,364.49,94.34Z"/><path class="cls-3" d="M332,186.33c5.63-.5,20.51-50.3,27.55-58.62s11.45-24.88,6.2-33c7,2.18,12.33,9.66,9.64,16.52-6.27,16-20.71,79.7-20.14,93.37.33,7.79-9.23,12.52-16.85,10.87s-14.14-9.76-10.87-16.85A85.38,85.38,0,0,0,332,186.33Z"/><path class="cls-7" d="M129.62,15.54a107.92,107.92,0,0,0-34.19,7.27l0,0L73.86,26.72l9,1.61L64.77,32.45l8.68,1.12L55,40.52l5.22.85-10.6,6.56,3.37.43C29.51,68.38,11.31,95.52,4.42,124a150.61,150.61,0,0,0,12.87,21.77l-9.92-2.89,10.43,7.91-6.73.67,12.79,6.73-8.75,1.52,13.46,4.71-5.38,2.36,15.58,3a139.16,139.16,0,0,0,98.14,35.21,132.71,132.71,0,0,0,30.58-5l-2.25,5.54,16.67-10.35-.52,8.67,13.47-9.42-1,10.77,8.08-14.81.33,6.06,7.92-15.61c28-18,48.62-44.33,47.49-73.51C256.21,69.33,218.4,37,176.75,23L154.65,7.53l6.24,7.57L145.06,9.37l6.33,7.45A117.91,117.91,0,0,0,129.62,15.54Z"/><path class="cls-8" d="M129.62,15.54a107.92,107.92,0,0,0-34.19,7.27l0,0L73.86,26.72l9,1.61L64.77,32.45l8.68,1.12L55,40.52l5.22.85-10.6,6.56,3.37.43C29.51,68.38,11.31,95.52,4.42,124a150.61,150.61,0,0,0,12.87,21.77l-9.92-2.89,10.43,7.91-6.73.67,12.79,6.73-8.75,1.52,13.46,4.71-5.38,2.36,15.58,3a139.16,139.16,0,0,0,98.14,35.21,132.71,132.71,0,0,0,30.58-5l-2.25,5.54,16.67-10.35-.52,8.67,13.47-9.42-1,10.77,8.08-14.81.33,6.06,7.92-15.61c28-18,48.62-44.33,47.49-73.51C256.21,69.33,218.4,37,176.75,23L154.65,7.53l6.24,7.57L145.06,9.37l6.33,7.45A117.91,117.91,0,0,0,129.62,15.54Z"/><path class="cls-9" d="M11,104.3c27.35,15.44,71.3,25.46,120.86,25.46,52.34,0,98.43-11.17,125.3-28.11q.38,2.79.48,5.62c1.13,29.18-19.49,55.53-47.49,73.51l-7.92,15.61-.33-6.06-8.08,14.81,1-10.77-13.47,9.42.52-8.67-16.67,10.35,2.25-5.54a132.71,132.71,0,0,1-30.58,5,139.16,139.16,0,0,1-98.14-35.21l-15.58-3,5.38-2.36-13.46-4.71,8.75-1.52-12.79-6.73,6.73-.67L7.37,142.86l9.92,2.89A150.61,150.61,0,0,1,4.42,124,125.06,125.06,0,0,1,11,104.3Z"/><path class="cls-10" d="M131.64,21.27a108.13,108.13,0,0,0-34.17,7.24l-21.6,3.94,9,1.61L66.78,38.17l8.69,1.12L57,46.25l5.22.84-10.6,6.56,3.37.43C38.09,68.52,23.9,86.65,14.73,106.3c-1.27-.65-2.5-1.32-3.7-2,9.08-21.08,24-40.6,42-55.94l-3.37-.43,10.6-6.56L55,40.52l18.45-7-8.68-1.12L82.9,28.33l-9-1.61,21.57-3.91a107.92,107.92,0,0,1,34.19-7.27,116.64,116.64,0,0,1,18.55.84l5.24,6.16A117.88,117.88,0,0,0,131.64,21.27Z"/><path class="cls-10" d="M178.77,28.71,157.63,13.92l3.26,1.18-6.24-7.57L176.75,23C211.38,34.68,243.36,59,254,88.63l-.31.05C241.24,61.61,211.16,39.65,178.77,28.71Z"/><polygon class="cls-10" points="157.05 13.71 162.9 20.82 151.19 16.58 145.06 9.37 157.05 13.71"/><path class="cls-11" d="M217.37,57.41l14.47,13.46L211.31,59.76l6.06,8.42-19.19-5L217,76.26l-30.63-3,10.1,4.38-16.83.67L215,92.42l-29.28-1,17.84,7.41L181,95.11l7.07,5.39-26.59-1.68L184.72,113l-16.83-4.37,11.1,9.76-41.73,1,21.88-5.73-28.07-7.12,14.26-2.63-32.65-8.09,21.55-2L106,82l35.34,7.41L122.78,80.3,146.68,85l-38-21.55,43.43,6.73-23.9-6.73h32l-23.23-13.8,18.86,5.72L140.62,41.26l30,9.08-20.53-10.1,14.47-1.68-31.3-5.38,15.48-3.71-32.31-.67,13.46-2.69-23.56,1.68,16-5.7c3.13-.42,6.26-.7,9.39-.82a117.88,117.88,0,0,1,21.77,1.27l-5.24-6.16c1.07.14,2.14.28,3.22.44l-.2-.24,11.71,4.24-5.85-7.11.58.21,21.14,14.79c22.45,7.58,43.79,20.46,58.92,36.66Z"/><path class="cls-11" d="M68.74,41.83l20.52.1L71.92,48,84,47.66l-12.45,7.4,26.93-3.7L66.37,61l12.78,2.36L62.83,68,92,69.2,63,76.44,81.35,79.3,66,83.51l5.89,1-11.78,7.4L77,95.29l-23.22.16,7.06,4.38-16.49,1.85,11.27,6.73-21-.84,6.74-2.35-13.13-3.87,15.15-5L30.85,97l12.29-8.08-9.76,1.68L41.62,79,31,86.87,47.68,67.52,32.35,77.74A163.05,163.05,0,0,1,55,54.08l-3.37-.43,10.6-6.56L57,46.25Z"/><path class="cls-7" d="M257.13,175.92A45,45,0,1,0,212.18,131,45,45,0,0,0,257.13,175.92Z"/><path class="cls-8" d="M257.13,175.92A45,45,0,1,0,212.18,131,45,45,0,0,0,257.13,175.92Z"/><path class="cls-9" d="M226.94,107.92a44.92,44.92,0,0,0,44.94,44.94c.83,0,1.64,0,2.45-.07a44.69,44.69,0,0,0,26.25-10.28,45,45,0,1,1-72.15-46.15A45,45,0,0,0,226.94,107.92Z"/><path class="cls-10" d="M254.83,93.62a44.82,44.82,0,0,0-27.65,9.5,45.79,45.79,0,0,1,1.25-6.76,45,45,0,0,1,72.15,46.15c-.34.29-.7.57-1.06.86a45,45,0,0,0-44.69-49.75Z"/><path class="cls-11" d="M288.39,113.57l5.3,11.76-7.83-8.3,5.53,16.37-19.83-14.29,8.07,11.07-10.83-6.92,8.76,13.83-20.29-10.6,14.52,18.67-12-4.62,4.84,7.61-28.47-12.93,11.18,1.41-4.61-9.22,8.06,2.07-14.75-14.06,8.07,3.22L231.68,103.2l15.9,5.53-7.83-7.61h9.91l-6.68-3,12-1.84L249.3,94a45.87,45.87,0,0,1,5.53-.34,44.91,44.91,0,0,1,38.24,21.32Z"/><rect class="cls-12" x="362.95" y="177.95" width="23.76" height="13.99" rx="6.99"/><path class="cls-13" d="M379.72,178h-9.78a7,7,0,0,0-7,7h0a7,7,0,0,0,7,7h9.78a7,7,0,0,0,7-7h0A7,7,0,0,0,379.72,178Z"/><path class="cls-14" d="M367.74,187.52h14.19a4.78,4.78,0,0,0,4.68-3.79,7,7,0,0,1,.1,1.21,6.73,6.73,0,0,1-.39,2.3,7,7,0,0,1-6.6,4.7h-9.78a7,7,0,0,1-6.88-8.21A4.8,4.8,0,0,0,367.74,187.52Z"/><path class="cls-15" d="M392.53,238.4c10.69-23.64,12.47-44-4.11-67.07-10,6.9-15.22,17.55-11.81,24.46C383.28,208.56,393.53,218.35,392.53,238.4Z"/><path class="cls-13" d="M392.53,238.4c10.69-23.64,12.47-44-4.11-67.07-10,6.9-15.22,17.55-11.81,24.46C383.28,208.56,393.53,218.35,392.53,238.4Z"/><path class="cls-14" d="M384.94,192.4c5.19,9,11.67,17,13.72,29.07a103.86,103.86,0,0,1-6.13,16.93c1-20.06-9.26-29.84-15.92-42.61a11.18,11.18,0,0,1-.94-6.41A21.5,21.5,0,0,1,379.6,180a34.59,34.59,0,0,1,8-8.07,24.54,24.54,0,0,0-4.91,9.27,12,12,0,0,0,.59,8.33C383.84,190.47,384.38,191.44,384.94,192.4Z"/><path class="cls-16" d="M388.29,172.92c10,13.89,13.67,35.36,7.19,54.87C396.12,217.55,399.75,195.93,388.29,172.92Z"/><path class="cls-15" d="M263.58,145.62c-2.44,46.65,60.91,42.56,114.61,68.86,8.82-86.65-48.68-128.14-109-144Z"/><path class="cls-13" d="M263.58,145.62c-2.44,46.65,60.91,42.56,114.61,68.86,8.82-86.65-48.68-128.14-109-144Z"/><path class="cls-14" d="M290,77.06c-7.86,16.62-3.42,45.27,12.79,72.33,20.72,34.59,52.84,53.47,71.73,42.15a22.36,22.36,0,0,0,4.35-3.4,163.6,163.6,0,0,1-.63,26.34c-53.7-26.3-117-22.21-114.61-68.86l5.58-75.15A214.18,214.18,0,0,1,290,77.06Z"/><path class="cls-16" d="M306.07,87.58c39.07,20.48,63.64,50.68,68.76,94C357.45,144.16,334.83,112.5,306.07,87.58Z"/><path class="cls-16" d="M331.09,110.9c-8.25-.75-9.18,9.9-2.07,23.78s19.59,25.74,27.85,26.49,9.18-9.9,2.06-23.78S339.35,111.64,331.09,110.9Z"/><path class="cls-9" d="M277.16,117.05l-11.4-.85.17-2.24L267.63,91l5.26,1,.41,5.29,6.5,4.88,6.69.94A89.32,89.32,0,0,0,288.24,114a107,107,0,0,0,3.79,13l-7.95-1.75Z"/><path class="cls-8" d="M292,126.93a107.48,107.48,0,0,1-3.79-13,89.32,89.32,0,0,1-1.75-10.82l6.34.89L296.9,114l13.42,8,10,11.18,1,9.37,11.6,11-14.65-4.27-5.7-12-14.64-9Z"/><path class="cls-9" d="M275.73,130.67l2.64,9,5.7,2.65,6.92,9.36,13.22,7.73-15.67-.61-14-8.55-4.88.21-6.05.35a48.94,48.94,0,0,1,0-5.14l1.51-20.42Z"/><path class="cls-9" d="M267.2,164.53l16.46,7,1.63,3.45,6.92.82,10-1.63,4.88.81,10.17,1.43-15.66,3.86-8.38,4.77C281.28,180.06,272,173.86,267.2,164.53Z"/><path class="cls-15" d="M347.54,133.69c-5.62,2.12-8.28,8.81-6,14.94s8.74,9.38,14.35,7.27,8.27-8.81,5.95-15S353.14,131.57,347.54,133.69Z"/><path class="cls-17" d="M347.54,133.69c-5.62,2.12-8.28,8.81-6,14.94s8.74,9.38,14.35,7.27,8.27-8.81,5.95-15S353.14,131.57,347.54,133.69Z"/><path class="cls-18" d="M349.32,138.4c-3.23,1.22-4.76,5.07-3.43,8.6a6.27,6.27,0,1,0,11.68-4.42C356.23,139.06,352.54,137.18,349.32,138.4Z"/><path class="cls-16" d="M351.17,134.8a5.83,5.83,0,1,0,7,3.55A5.57,5.57,0,0,0,351.17,134.8Z"/><path class="cls-16" d="M349.55,148.9a2.86,2.86,0,1,0,3.45,1.74A2.75,2.75,0,0,0,349.55,148.9Z"/><path class="cls-15" d="M320.37,159.57c-3.73,1.41-5.51,5.88-4,10s5.83,6.26,9.57,4.84,5.52-5.87,4-10S324.11,158.16,320.37,159.57Z"/><path class="cls-17" d="M320.37,159.57c-3.73,1.41-5.51,5.88-4,10s5.83,6.26,9.57,4.84,5.52-5.87,4-10S324.11,158.16,320.37,159.57Z"/><path class="cls-18" d="M321.56,162.72a4.57,4.57,0,1,0,5.51,2.79A4.37,4.37,0,0,0,321.56,162.72Z"/><path class="cls-16" d="M322.8,160.31a3.89,3.89,0,1,0,4.68,2.37A3.72,3.72,0,0,0,322.8,160.31Z"/><path class="cls-16" d="M321.72,169.72a1.83,1.83,0,0,0-1,2.39,1.74,1.74,0,1,0,1-2.39Z"/><path class="cls-15" d="M341.92,162.55c-3.74,1.41-5.52,5.88-4,10s5.83,6.27,9.57,4.85,5.52-5.87,4-10S345.66,161.13,341.92,162.55Z"/><path class="cls-17" d="M341.92,162.55c-3.74,1.41-5.52,5.88-4,10s5.83,6.27,9.57,4.85,5.52-5.87,4-10S345.66,161.13,341.92,162.55Z"/><path class="cls-18" d="M343.11,165.69a4.57,4.57,0,1,0,5.5,2.79A4.38,4.38,0,0,0,343.11,165.69Z"/><path class="cls-16" d="M344.34,163.29a3.89,3.89,0,1,0,4.68,2.37A3.71,3.71,0,0,0,344.34,163.29Z"/><path class="cls-16" d="M343.27,172.7a1.91,1.91,0,1,0,2.29,1.16A1.81,1.81,0,0,0,343.27,172.7Z"/><path class="cls-15" d="M364.25,159.5c-3.74,1.41-5.52,5.87-4,10s5.83,6.26,9.57,4.85,5.52-5.88,4-10S368,158.09,364.25,159.5Z"/><path class="cls-17" d="M364.25,159.5c-3.74,1.41-5.52,5.87-4,10s5.83,6.26,9.57,4.85,5.52-5.88,4-10S368,158.09,364.25,159.5Z"/><path class="cls-18" d="M365.44,162.65a4.57,4.57,0,1,0,5.5,2.79A4.37,4.37,0,0,0,365.44,162.65Z"/><path class="cls-16" d="M366.67,160.25a3.89,3.89,0,1,0,4.68,2.36A3.72,3.72,0,0,0,366.67,160.25Z"/><path class="cls-16" d="M365.6,169.65a1.91,1.91,0,0,0,1.34,3.56,1.91,1.91,0,0,0-1.34-3.56Z"/><path class="cls-15" d="M341.89,184.38H332.1a7,7,0,0,0-7,7h0a7,7,0,0,0,7,7h9.79a7,7,0,0,0,7-7h0A7,7,0,0,0,341.89,184.38Z"/><path class="cls-13" d="M341.89,184.38H332.1a7,7,0,0,0-7,7h0a7,7,0,0,0,7,7h9.79a7,7,0,0,0,7-7h0A7,7,0,0,0,341.89,184.38Z"/><path class="cls-14" d="M329.91,194h14.18a4.74,4.74,0,0,0,2.65-.81,4.82,4.82,0,0,0,2-3,8,8,0,0,1,.1,1.21,7,7,0,0,1-7,7H332.1a7,7,0,0,1-7-7,6.89,6.89,0,0,1,.11-1.21A4.8,4.8,0,0,0,329.91,194Z"/><path class="cls-15" d="M354.7,244.82c10.69-23.64,12.47-43.94-4.11-67.06-10,6.9-15.23,17.55-11.81,24.45C345.44,215,355.7,224.77,354.7,244.82Z"/><path class="cls-13" d="M354.7,244.82c10.69-23.64,12.47-43.94-4.11-67.06-10,6.9-15.23,17.55-11.81,24.45C345.44,215,355.7,224.77,354.7,244.82Z"/><path class="cls-14" d="M347.1,198.82c5.19,9,11.67,17,13.73,29.08a104.71,104.71,0,0,1-6.13,16.92c1-20-9.26-29.84-15.92-42.61a11.23,11.23,0,0,1-.95-6.4,21.62,21.62,0,0,1,3.93-9.43,34.59,34.59,0,0,1,8.05-8.07,24.5,24.5,0,0,0-4.9,9.27,12,12,0,0,0,.58,8.33C346,196.89,346.55,197.87,347.1,198.82Z"/><path class="cls-16" d="M350.45,179.34c10,13.9,13.68,35.36,7.19,54.88C358.29,224,361.91,202.35,350.45,179.34Z"/><path class="cls-15" d="M199.05,198.58a21,21,0,1,0-21-21A21.07,21.07,0,0,0,199.05,198.58Z"/><path class="cls-14" d="M199.05,198.58a21,21,0,1,0-21-21A21.07,21.07,0,0,0,199.05,198.58Z"/><path class="cls-19" d="M199.39,178.05a21,21,0,0,0,18.19-10.47,21,21,0,1,1-36.73-.6A21,21,0,0,0,199.39,178.05Z"/><path class="cls-15" d="M228.67,202.62a21,21,0,1,0-21-21A21.07,21.07,0,0,0,228.67,202.62Z"/><path class="cls-14" d="M228.67,202.62a21,21,0,1,0-21-21A21.07,21.07,0,0,0,228.67,202.62Z"/><path class="cls-19" d="M229,182.09a21,21,0,0,0,18.19-10.47,21,21,0,1,1-36.73-.6A21,21,0,0,0,229,182.09Z"/><path class="cls-15" d="M253.44,206.88a21,21,0,1,0-21-21A21.07,21.07,0,0,0,253.44,206.88Z"/><path class="cls-14" d="M253.44,206.88a21,21,0,1,0-21-21A21.07,21.07,0,0,0,253.44,206.88Z"/><path class="cls-19" d="M253.77,186.35A21,21,0,0,0,272,175.88a21,21,0,1,1-36.73-.6A21,21,0,0,0,253.77,186.35Z"/><circle class="cls-12" cx="286.5" cy="190.66" r="21.04"/><path class="cls-14" d="M286.5,211.69a21,21,0,1,0-21-21A21.08,21.08,0,0,0,286.5,211.69Z"/><path class="cls-19" d="M286.84,191.16A21,21,0,0,0,305,180.7a21,21,0,1,1-36.72-.61A21,21,0,0,0,286.84,191.16Z"/><path class="cls-15" d="M283.57,86.8h0c-7.8,0-15.24,6.46-14.18,14.19,2.18,16,3.19,81.19,0,95.52-1.69,7.61,6.38,14.18,14.18,14.18h0c7.8,0,16.15-6.64,14.18-14.18-3.44-13.25-2.75-78.55,0-95.52C299,93.29,291.37,86.8,283.57,86.8Z"/><path class="cls-14" d="M283.57,86.8h0c-7.8,0-15.24,6.46-14.18,14.19,2.18,16,3.19,81.19,0,95.52-1.69,7.61,6.38,14.18,14.18,14.18h0c7.8,0,16.15-6.64,14.18-14.18-3.44-13.25-2.75-78.55,0-95.52C299,93.29,291.37,86.8,283.57,86.8Z"/><path class="cls-19" d="M271.18,183.59c5.39-1.68,9.45-53.5,14.57-63.12s5.95-26.73-.91-33.61c7.34.65,14.09,6.85,12.91,14.13-2.75,17-3.44,82.27,0,95.52,2,7.54-6.38,14.18-14.18,14.18s-15.88-6.57-14.18-14.18A84.77,84.77,0,0,0,271.18,183.59Z"/><path class="cls-15" d="M268,107.79c-2.78-18.89,6.18-47.63,26.35-51.63,40.8,74.9,30,151.14,21.88,227.31Z"/><path class="cls-13" d="M268,107.79c-2.78-18.89,6.18-47.63,26.35-51.63,40.8,74.9,30,151.14,21.88,227.31Z"/><path class="cls-14" d="M314.13,275.73,268.61,109.9C293,17.37,315.73,258.11,314.13,275.73Z"/><path class="cls-16" d="M293.58,57.44c39,71.6,30.06,144.91,22.29,217.71-.23-37.18,4.76-80,.42-117.33C309.8,101.86,293.21,57.52,293.58,57.44Z"/><path class="cls-16" d="M296,75.81c-4.67,1.12-6,12.07-3.09,24.46s9.14,21.56,13.8,20.44,6-12.06,3.08-24.46S300.61,74.7,296,75.81Z"/><path class="cls-15" d="M108.88,143.93h0c2.49-5.45,9.38-8.57,14.43-5.37C133.77,145.2,179,166.75,190,169.11c5.85,1.25,7.85,9,5.36,14.43h0c-2.5,5.44-9.8,9.14-14.44,5.36-8.14-6.64-53.93-27-66.65-30.54C108.47,156.77,106.39,149.37,108.88,143.93Z"/><path class="cls-14" d="M108.88,143.93h0c2.49-5.45,9.38-8.57,14.43-5.37C133.77,145.2,179,166.75,190,169.11c5.85,1.25,7.85,9,5.36,14.43h0c-2.5,5.44-9.8,9.14-14.44,5.36-8.14-6.64-53.93-27-66.65-30.54C108.47,156.77,106.39,149.37,108.88,143.93Z"/><path class="cls-19" d="M180.38,166.23c-2.9,3.23-40.36-10.51-48.7-10s-20.56-4.4-23.17-11.38c-1.88,5.33.28,12,5.73,13.53,12.72,3.5,58.51,23.9,66.65,30.54,4.64,3.78,11.94.08,14.44-5.36s.49-13.18-5.36-14.43A65.44,65.44,0,0,1,180.38,166.23Z"/><path class="cls-15" d="M110,160.4c7.18-12.79,8.64-35.84-4.73-44.24-49.78,42.51-63,100.13-78,157Z"/><path class="cls-13" d="M110,160.4c7.18-12.79,8.64-35.84-4.73-44.24-49.78,42.51-63,100.13-78,157Z"/><path class="cls-14" d="M30.91,268.15,109,161.76C116.91,88.72,34.59,255.09,30.91,268.15Z"/><path class="cls-16" d="M105.49,117.29c-47.58,40.64-61.28,95.65-75.67,150C40.18,240.67,48.34,208.6,61.69,183,81.69,144.68,105.75,117.46,105.49,117.29Z"/><path class="cls-15" d="M147.64,108.29h0c5-5,13.89-5.51,18.11.12,8.73,11.67,49.4,54.23,60.53,61.42,5.91,3.83,4.88,13.17-.13,18.11h0c-5,4.95-14.59,6-18.11-.13-6.18-10.7-48-52.25-60.53-61.42C141.83,122.24,142.62,113.23,147.64,108.29Z"/><path class="cls-14" d="M147.64,108.29h0c5-5,13.89-5.51,18.11.12,8.73,11.67,49.4,54.23,60.53,61.42,5.91,3.83,4.88,13.17-.13,18.11h0c-5,4.95-14.59,6-18.11-.13-6.18-10.7-48-52.25-60.53-61.42C141.83,122.24,142.62,113.23,147.64,108.29Z"/><path class="cls-19" d="M216.94,162.67c-4.53,2.34-40-28.42-49.37-31.36s-20.77-13.42-20.72-22.18c-4.3,5.07-4.72,13.33.66,17.26,12.51,9.17,54.35,50.72,60.53,61.42,3.52,6.1,13.09,5.08,18.11.13s6-14.28.13-18.11A75.43,75.43,0,0,1,216.94,162.67Z"/><path class="cls-15" d="M153.62,127.21c6.42-16,4.59-43.11-12.28-50.87-51.57,57.19-58.13,126.39-67,195Z"/><path class="cls-13" d="M153.62,127.21c6.42-16,4.59-43.11-12.28-50.87-51.57,57.19-58.13,126.39-67,195Z"/><path class="cls-14" d="M77.82,265l74.84-136C150.71,42.58,80.12,249.17,77.82,265Z"/><path class="cls-16" d="M141.76,77.64C92.48,132.29,84.9,198.55,76.41,264.11c8-32.61,12.65-71.25,24.3-103.12C118.18,113.22,142.08,77.78,141.76,77.64Z"/><path class="cls-15" d="M228.39,65.85h0c8.39-1.19,17.38,4.61,17.43,13.08.09,17.54,9,87.83,14.61,102.75,3,7.94-4.69,16.23-13.09,17.43h0C239,200.3,229,194.44,229.92,186c1.67-14.78-9.06-84.92-14.62-102.74C212.78,75.19,220,67,228.39,65.85Z"/><path class="cls-14" d="M228.39,65.85h0c8.39-1.19,17.38,4.61,17.43,13.08.09,17.54,9,87.83,14.61,102.75,3,7.94-4.69,16.23-13.09,17.43h0C239,200.3,229,194.44,229.92,186c1.67-14.78-9.06-84.92-14.62-102.74C212.78,75.19,220,67,228.39,65.85Z"/><path class="cls-19" d="M256.52,168.06c-6-1-18.34-56.1-25.32-65.66S220.7,74.55,227,66.11c-7.79,1.82-14.11,9.52-11.73,17.17,5.56,17.82,16.29,88,14.62,102.74-1,8.42,9,14.28,17.42,13.09s16.08-9.5,13.09-17.43A91.88,91.88,0,0,1,256.52,168.06Z"/><path class="cls-15" d="M241.87,89.29c5.29-20.06-.91-52.17-22.2-58.93-53.11,76-50.67,159.57-51.1,242.79Z"/><path class="cls-13" d="M241.87,89.29c5.29-20.06-.91-52.17-22.2-58.93-53.11,76-50.67,159.57-51.1,242.79Z"/><path class="cls-14" d="M171.8,265.06,241,91.5C225.85-11.35,172.2,245.84,171.8,265.06Z"/><path class="cls-16" d="M220.36,31.84c-50.75,72.59-50,152.84-50.37,232.39,4.74-40.13,4.52-87,13.72-126.75C197.48,77.84,220.76,32,220.36,31.84Z"/></g></g></svg>