<svg xmlns="http://www.w3.org/2000/svg" viewBox="0 0 467.31 695.46"><defs><style>.cls-1{fill:#750e0e;}.cls-2{fill:#8a7e5f;}.cls-3{fill:#2d2b27;}.cls-4{fill:#aa1b1b;}.cls-5{fill:#e0d1b6;}.cls-6{fill:#514a3d;}.cls-7{fill:#ad987d;}.cls-8{fill:#821414;}.cls-9{fill:#7a6f57;}.cls-10{fill:#63634e;}.cls-11{fill:#592a5e;}.cls-12{fill:#dddad7;}.cls-13{fill:#fff;}.cls-14{fill:#ccba9f;}</style></defs><g id="Layer_2" data-name="Layer 2"><g id="Capa_1" data-name="Capa 1"><path class="cls-1" d="M421.17,149.53s-52.64,11.7-85.79-7.8,40.3-75.39,40.3-75.39L54,176.18l13,64.34L86.46,432.89,163.15,507c-11.05-33.79,105.29-43.54,105.29-43.54s-40.3-13-35.1-48.75S351,375.7,351,375.7,281.44,356.85,280.14,340s87.09-17.54,87.09-17.54-52-11.7-53.3-41S414,248.32,414,248.32s-30.55-5.85-54.59-31.85S421.17,149.53,421.17,149.53Z"/><path class="cls-2" d="M100.76,120.28,72.82,184.62l75.39,30.55s-31.85,108.54-33.8,109.19,45.49,11,45.49,11,74.74-115.68,59.15-130S100.76,120.28,100.76,120.28Z"/><path d="M123.5,651.19c-5.8-32.85-20.77-21-20.77-21L73.1,667.62l-7,26.62H95.62l5.28-10.49,5.71,10.49h78l-.31-6S129.31,684,123.5,651.19Z"/><path class="cls-2" d="M124.43,655l-26.05,9.63s23.14,19.54,36.2,20.17c5.7.28,13-1.46,19.43-3.51C141.35,676.44,128.61,668.35,124.43,655Z"/><polygon points="77.36 671.41 121.91 655.13 158.95 405.61 83.86 518.03 77.36 671.41"/><path d="M83.54,646.06c-6.18-37.69-22.1-24-22.1-24L29.92,664.91l-7.47,30.55H53.88l5.62-12,6.07,12h83l-.32-6.83S89.71,683.76,83.54,646.06Z"/><path class="cls-2" d="M84.53,650.44l-27.71,11s24.61,22.42,38.51,23.15c6,.32,13.82-1.68,20.66-4C102.53,675,89,665.75,84.53,650.44Z"/><path class="cls-3" d="M23.47,693.14s26.31-28.26,69.2-28.26l9.74-262.19L57.58,414.38C51.73,435.83,23.47,693.14,23.47,693.14Z"/><path d="M78.2,514.69c-.9,49.42-2.38,117.44-3.6,151.89,1.05-.2,2.11-.38,3.19-.55.06-1.45.11-3,.16-4.55.48-14.49,1-34.63,1.62-59.88.89-38.46,1.63-77.31,1.78-85.35l7-.24L84.49,665.22q1.58-.13,3.18-.21l4-152.29-13.41.47Z"/><path d="M47.25,676.1c1.08-.57,2.2-1.12,3.35-1.66L65,525.81l2.83-.83-7,145.25c1.06-.37,2.13-.72,3.23-1.05l7-146.27.11-2.23-9.16,2.69Z"/><path d="M29,688.11q1.56-1.29,3.54-2.78l17-138.89,4.35-2.18L37.13,682.06c1.09-.73,2.25-1.47,3.47-2.21L57.74,538.78l-11.17,5.58Z"/><path class="cls-4" d="M432.87,40.34C429,33.52,454,10.45,454,10.45l-37.37,24L174.88,167.87,193.52,166,467.31,44.24S436.77,47.17,432.87,40.34Z"/><path d="M371.46,36.07c-13.65-6.33-8.28-28.27-8.28-28.27s-34.61,30.22-65.81,20S271,0,271,0s-15.6,34.12-52.16,35.1-42.41-23.4-42.41-23.4-8.29,35.59-26.81,41-41.44-28.28-41.44-28.28S107.71,59.94,87,65.31,52.65,52.65,52.65,52.65,49.24,98,35.59,103.35s-35.59,1-35.59,1L35.1,156l64.61-7.75,68.64,36.37L424.11,31.2S385.11,42.41,371.46,36.07Z"/><polygon class="cls-5" points="77.17 110.37 6.04 135.48 51.36 317.69 145.44 314.19 145.44 126.14 104 124.7 77.17 110.37"/><path d="M119.59,187.56c-1,.31-1.52,1.72-1.09,3.15s1.62,2.34,2.65,2,1.52-1.72,1.08-3.15S120.62,187.25,119.59,187.56Z"/><path class="cls-6" d="M126.11,200.22,77.36,155.38,64.69,226.87a121.43,121.43,0,0,0,20.8,1.62c9.42-.32,43.54.33,54.92-.65a11.14,11.14,0,0,0,5-1.47V161.65c-12.58-11.72-30.38-25.44-30.38-25.44Z"/><path d="M105,158.63l62.39,34.77s80.59-68.89,81.56-69.22l-100.73-26Z"/><polygon class="cls-5" points="153.75 180.59 150.01 181.57 163.53 212.52 185.36 204.38 159.94 177.5 153.75 180.59"/><polygon class="cls-6" points="155.95 195.5 158.23 205.6 186.71 201.61 170.43 184.78 155.95 195.5"/><path class="cls-7" d="M120.26,190.07c-2.76-.22-12.36-1.54-14.91,5.62s-14.8,23.55-14.8,23.55l5.62-.42s3.29-3.5,6.37-7.32S111,195.37,111,195.37a73.33,73.33,0,0,1,8.7-1.27c2.33,0,8.27,3.61,8.27,3.61S123,190.28,120.26,190.07Z"/><path class="cls-7" d="M90.27,222h0Z"/><path class="cls-7" d="M122.59,199.3a84.87,84.87,0,0,0-9.76,1.06C112.31,207,91.28,221.5,90.27,222l17.57-6.67c1.59-1.59,9.45-11.46,9.45-11.46l5.51-.21,9.23,3.5S125.88,199.3,122.59,199.3Z"/><path class="cls-7" d="M104,184.58a84.47,84.47,0,0,0-7.76,6c3,6-7.29,29.29-7.9,30.24L99.85,206c.52-2.19,2-14.7,2-14.7l4.59-3.07,9.7-1.85S106.82,182.86,104,184.58Z"/><path class="cls-7" d="M88.36,220.84l0,0S88.35,220.85,88.36,220.84Z"/><path class="cls-7" d="M81.89,215.85l0,0Z"/><path class="cls-7" d="M97.55,179.59a86.36,86.36,0,0,0-7.76,6c3,6-7.29,29.29-7.9,30.24L93.37,201c.53-2.19,2-14.71,2-14.71l4.59-3.07,9.7-1.85S100.35,177.87,97.55,179.59Z"/><path class="cls-4" d="M295.74,251.57s-37.7-6.5-50.05-29.9S271,180.07,271,180.07L82.56,213.87,217.1,350.35,277.54,327s-32.5-11.7-23.4-37S295.74,251.57,295.74,251.57Z"/><path d="M239.84,272.08C236,251.61,272,224.32,272,224.32L100.11,210l12.28-62L6,135.48,45.88,323.74,24.44,601.52s34.11-76,73.1-74.07,56.53,36.06,56.53,36.06-13.64-76,18.52-90.65,69.2,6.83,69.2,6.83-52.63-44.84-32.16-77,88.7-22.42,88.7-22.42-66.28-17.54-56.54-49.71,67.26-26.32,67.26-26.32S243.74,292.55,239.84,272.08Z"/><polygon points="71.93 107.06 55.11 119.73 50.24 141.67 112.35 161.72 109.31 115.69 71.93 107.06"/><path d="M47.07,88.54,28.31,64.17S4.42,131.92,97.52,152.88c0,0,18.38,11.68,18.62,11l38.41-85.77-41.68,52.4Z"/><polygon points="77.17 110.37 6.04 135.48 9.54 149.58 97.52 218.68 119.7 124.12 104 124.7 77.17 110.37"/><path class="cls-4" d="M128.71,83.42l-5.36-7.55S107.75,67.09,94.84,71s-25.35-3.9-25.35-3.9c-9.75,9.51-19.74-1.46-19.74-1.46C39,74.89,28.31,64.17,28.31,64.17s-5.12,42.16,21.44,61.65,59.47,30.71,59.47,30.71l45.33-78.47C142.12,89.27,128.71,83.42,128.71,83.42Z"/><path class="cls-8" d="M128.71,83.42l-5.36-7.55S107.75,67.09,94.84,71s-25.35-3.9-25.35-3.9c-9.75,9.51-19.74-1.46-19.74-1.46a14.55,14.55,0,0,1-7.81,3.67c.22,14.15,1.55,38.37,7.81,45.31,9,10,32.66,18.53,32.66,18.53l15.35,10.48,27.3-25.11-11.21,2.2,17.93-36.37A18.21,18.21,0,0,1,128.71,83.42Z"/><path class="cls-5" d="M72.42,111.69c-1,.24-14.14,10.24-14.14,10.24l50.93,35L102.39,130Z"/><path class="cls-9" d="M100.85,113.68,72.55,87.76,76.7,91.9,66.32,122.07l36.88,25S97.36,128.37,100.85,113.68Z"/><path class="cls-2" d="M112,110.64c14.62,3.47,23.5-16.25,23.5-16.25l-19.93,8.67Z"/><path d="M126.6,52.2,124,60.33s-15.44,48.58-5.2,45.49,23.39-24,20-35.09S126.6,52.2,126.6,52.2Z"/><path class="cls-10" d="M137,73.49c-3.16,3.82-9.83,6.74-10.07,6.74s-.89-3.09,3.49-5.2c3.07-1.47,5.57-5.88,6.81-8.4A41.89,41.89,0,0,0,133.4,60c-.16,1.16-.39,2.49-.71,4-1.71,8.05-4.55,6.67-4.55,6.67L126,67.07s6.43-3.72,5-10.33a41.28,41.28,0,0,0-4.34-4.54l-.4,1.22a18.18,18.18,0,0,1,.72,3.17c.89,6.91-5.36,12.92-5.36,12.92a24.6,24.6,0,0,0,1.6-6.46c-1.33,4.39-4,13.45-5.81,22.12,3.1,1.78,7.36,3.89,10.46,4.08,2.91.17,6.41-1.9,9.05-3.87.33-.79.64-1.59.91-2.39l-9.14,2.93c-.25.08-3.5-3.74,1.22-3.58,2.51.09,6-1.07,8.76-2.18a18.23,18.23,0,0,0,.23-9.21A21.13,21.13,0,0,1,137,73.49Z"/><path class="cls-5" d="M107.51,48.05A31.56,31.56,0,0,0,76.59,99.1l.17,16.51,19.37,16,8.53,1.85.85-1.06c2.22-7.35,9-25.79,22.79-31l3-13.08.68-2.72C135.68,68.61,124.54,51.74,107.51,48.05Z"/><path class="cls-2" d="M92.1,50,85.81,55.4s14.73.65,22.64,4.44,9.64,8.23,9.64,8.23,8.3-1.45,11.47-2.63c-.33-.69-.69-1.36-1.07-2C120.2,59.74,92.1,50,92.1,50Z"/><path class="cls-2" d="M122.59,88.36c-2.44.14-17.08-2.11-22.91-4.37a28.83,28.83,0,0,1-8.79-5.06l-7.15,3.44,9,10.75c4.84,1,8.1-.57,16.58-2.48s11,7,14.67,7.5,5.18-3.62,5.18-3.62l-1.61-6A33.89,33.89,0,0,0,122.59,88.36Z"/><path class="cls-2" d="M104.52,120.42a3,3,0,0,0-3.47,1.41l5.57,1.65A2.72,2.72,0,0,0,104.52,120.42Z"/><path class="cls-2" d="M118.53,91c-4.27-4.83-15.17-3.62-15.17-3.62s-1.41,4.6-2.1,7.77,1.35,4.12,2.46,6.69.35,4.15,0,6.32,1.89,4.74,3.18,4.93,4.62-2.16,4.62-2.16.4-1.07-1-1.29a8.3,8.3,0,0,1-2.81-1.19l2.27-19.71Z"/><path class="cls-2" d="M70,72.22a32.58,32.58,0,0,0-.65,4.55h0v.07c0,.2,0,.4,0,.6v.14l0,.71v0c0,.5,0,1,0,1.5,0,.06,0,.11,0,.17s0,.37,0,.55,0,.16,0,.24,0,.32,0,.48a2.45,2.45,0,0,0,0,.27c0,.15,0,.3,0,.45l0,.28c0,.15,0,.29,0,.43l0,.3.06.42a2.54,2.54,0,0,1,0,.29c0,.15.05.3.08.44s.06.38.1.57,0,.23.07.35.05.26.08.4l.06.29c0,.13.06.27.1.4l.06.27c0,.14.07.28.11.42l.06.25.12.43.06.21.14.47,0,.15a29.85,29.85,0,0,0,1.08,2.91l0,.07c.07.18.15.36.23.53l0,.09.24.52,0,.08.26.54h0a31.45,31.45,0,0,0,3.94,6l.17,16.51,19.18,15.84c.31-7.85.53-25.72-3.39-33.28a25.11,25.11,0,0,0-3.73-5c2.16-5.81,6.6-18.87,7.86-31,.64-6.19-.9-10.73-3.1-14A31.55,31.55,0,0,0,70,72.22Z"/><path d="M82.11,86.45A12.13,12.13,0,0,0,92,94.85c8.17,1.33,13.11-.44,14.06-7.07,0,0-14.51-3.49-15.95-5.08S82.11,86.45,82.11,86.45Z"/><path d="M124.57,90.14c-1.28.86-10.4-1.09-10.4-1.09-1.46,6,.76,9.16,5.7,10.8s8-3.79,8-3.79S125.85,89.27,124.57,90.14Z"/><path d="M124.57,90.14c-1.28.86-10.4-1.09-10.4-1.09-1.46,6,.76,9.16,5.7,10.8s8-3.79,8-3.79S125.85,89.27,124.57,90.14Z"/><path class="cls-11" d="M110.55,110.2c-.27,1.27-3.61,2.87-3.61,2.87,4.92,1.07,5.08-2.72,5.08-2.72-.12-2.52,1.7-19.23,1.7-19.23S110.83,108.93,110.55,110.2Z"/><path class="cls-12" d="M96,88.94a2.65,2.65,0,0,1-.69,1.3,6.6,6.6,0,0,0,4.16-1.09l-3.41-.74A2.39,2.39,0,0,1,96,88.94Z"/><path class="cls-12" d="M120.49,93.52a3,3,0,0,1-.52,1.3,4.16,4.16,0,0,0,3.13-1.1L120.54,93A5,5,0,0,1,120.49,93.52Z"/><path d="M124.27,47.49a10.66,10.66,0,0,0-7.69-2.81l-3.25-3L110.4,41,108,39.26l-7.37.32L98.27,38.5s-4.44-1.19-11.59,2.17S73.79,56.05,73.79,56.05l-7.47,5.2L67.4,87.57l8.12,5,16-37.91s23.88-1.14,27.3,12.67c0,0,8.77-1.84,12.67-6.17S127.84,50.74,124.27,47.49Z"/><path class="cls-10" d="M106.53,47.57C96,41.4,83.13,50.66,83.13,50.66s14-3.66,23,1.14A19.76,19.76,0,0,1,114,60.17a12.82,12.82,0,0,1,4.8,7.14l.11,0C118.34,64.26,115.64,52.9,106.53,47.57Z"/><path class="cls-10" d="M128.46,51.38c-1.47-1.49-3-2.84-4.19-3.89a12.1,12.1,0,0,0-1.53-1.16,25.85,25.85,0,0,1,4.18,10.26,14,14,0,0,1-2.23,8.86,21.25,21.25,0,0,0,5.66-3.24,8.48,8.48,0,0,0,.47-5.94A16.6,16.6,0,0,0,128.46,51.38Z"/><path class="cls-10" d="M94.34,39.12s12.27,3.34,20.31,9.67c6.82,5.37,5.23,15.47,4.59,18.42.63-.15,1.86-.47,3.35-1,1-4.18,1.74-11.61-3.31-17.85C111.81,39.12,94.34,39.12,94.34,39.12Z"/><path class="cls-10" d="M78.5,56.1l11.75,1.51,1.25-3a52,52,0,0,1,12.16,1.11c-.64-.28-1.31-.55-2-.78C90.85,51.31,78.5,56.1,78.5,56.1Z"/><polygon class="cls-10" points="83.71 73.14 85.53 68.81 73.71 66.91 83.71 73.14"/><polygon class="cls-10" points="86.12 67.4 87 65.31 79.07 64.8 86.12 67.4"/><polygon class="cls-10" points="88.15 62.59 89.69 58.95 78.99 58.95 88.15 62.59"/><path class="cls-11" d="M120.64,98.24c-3.39.17-5.65-3.9-6.86-6.92-.42,4.53,1.82,7.11,6.09,8.53,4.94,1.63,8-3.79,8-3.79s-.18-.59-.47-1.4A9.15,9.15,0,0,1,120.64,98.24Z"/><path class="cls-11" d="M94.91,93.74c-6.22.13-10.83-5.36-12.43-7.58l-.37.29A12.13,12.13,0,0,0,92,94.85c7.76,1.27,12.61-.28,13.89-6.12C104.62,90.72,102,93.6,94.91,93.74Z"/><path class="cls-2" d="M64.68,75.33S63,87,65.86,92.62s11.7,5.13,11.7,5.13L79,94.51s1-2.9-2.63-9.12S64.68,75.33,64.68,75.33Z"/><path class="cls-5" d="M64.68,75.33s-.14,1-.27,2.43C68.25,80.15,74.81,85,77.83,92L79,94.59l0-.08s1-2.9-2.63-9.12S64.68,75.33,64.68,75.33Z"/><path class="cls-11" d="M106.42,116.64a3.14,3.14,0,0,1-2.2-1.61l-6.79,1.52,4.26,3.3a30,30,0,0,1,5.47,1.43s1.66.31,2-.63.29-1.64.76-2.11-.33-2.61-.33-2.61A7.8,7.8,0,0,1,106.42,116.64Z"/><path class="cls-13" d="M100.58,119.58l1-2.85-1.86-.28A3.36,3.36,0,0,0,100.58,119.58Z"/><path class="cls-13" d="M108.45,118l-.7,3s1.41-.38,1.79-1.22a5.09,5.09,0,0,0,.32-1.95Z"/><path d="M106.42,116.64a3.14,3.14,0,0,1-2.2-1.61l-6.5,1.46,5.79.9a5.2,5.2,0,0,0,3,1.07,12,12,0,0,0,3.42.08c.46-.46-.33-2.61-.33-2.61A7.8,7.8,0,0,1,106.42,116.64Z"/><path class="cls-5" d="M88.94,86.62a3.36,3.36,0,0,0-.47,1.58c1,1,2.74,2,6.11,2a3.36,3.36,0,0,0,.6-1.92,2.74,2.74,0,0,0,0-.5Z"/><path d="M92.12,87.22a1.19,1.19,0,1,0,1.19,1.19A1.19,1.19,0,0,0,92.12,87.22Z"/><path class="cls-5" d="M115.64,91.7a3.28,3.28,0,0,0-.3,1.24,4.74,4.74,0,0,0,3.93,1.61,3.11,3.11,0,0,0,.39-1.51,2.56,2.56,0,0,0,0-.39Z"/><path d="M117.38,92.4a.68.68,0,0,0-.6.73.61.61,0,1,0,1.19,0A.68.68,0,0,0,117.38,92.4Z"/><path d="M89,85.88a2.58,2.58,0,1,0,2.72,2.58A2.65,2.65,0,0,0,89,85.88Z"/><path d="M118.11,92.29l-2.47-.59a3.28,3.28,0,0,0-.3,1.24A4.19,4.19,0,0,0,118,94.42a2.55,2.55,0,0,0,.16-2.1Z"/><polygon class="cls-9" points="95.48 140.43 109.86 157.65 99.87 138.32 95.48 140.43"/><path d="M113,166.22c-1,.31-1.52,1.72-1.09,3.15s1.62,2.34,2.65,2,1.52-1.72,1.09-3.15S114,165.91,113,166.22Z"/><path d="M116.44,177.05c-1,.31-1.51,1.72-1.08,3.15s1.62,2.35,2.65,2,1.51-1.72,1.08-3.15S117.47,176.74,116.44,177.05Z"/><circle class="cls-12" cx="91.09" cy="88.92" r="0.54"/><path class="cls-12" d="M117.17,93.09a.55.55,0,0,0-.54.55.54.54,0,1,0,1.08,0A.55.55,0,0,0,117.17,93.09Z"/><path class="cls-7" d="M125.73,212.65s-4.34,6.62-7.27,7.06,1,14.11,1,14.11l2.5-10.2,5.65-4.46,17.16-1.41,2.39-12.49L145,200.48S136.37,216.23,125.73,212.65Z"/><path class="cls-14" d="M140.39,211.67s-8.58,15.85-16.61,17.59c0,0,1.08,8.26-2.61,11.4,0,0-2.39,6.52,7.28,9.89l-2.07-8.36a12.57,12.57,0,0,0,3.91-8.91l9.78-7.82,7.38-2.93,1.3-11.62-5.43.54Z"/><path class="cls-5" d="M149.68,179.69,137,219.43l23.62,1.63.25-29,8.49-6.48-9.15-8A78.38,78.38,0,0,0,149.68,179.69Z"/><path class="cls-5" d="M143.54,238.82a10.81,10.81,0,0,0-3.36-4.56l5.75-16.51-5.86-4.34c-.11.54-3.1,6-3.1,6s.49,12.33-3.31,15.7c0,0,6.08,5.75,4.45,11.4,0,0,4.56,8.14,17.27,9,0,0-8.36-6.84-11.3-9.55A13.3,13.3,0,0,0,143.54,238.82Z"/><path class="cls-5" d="M153.53,231.65l-1.19-14.55-8.47-3.58c0,.43,3.58,19.87,3.58,19.87s5.54,6.73,7.71,12.6c0,0,8.26,4.23,16.73.32l-12.28-4.88A32.67,32.67,0,0,0,153.53,231.65Z"/><path class="cls-5" d="M164.28,227.74l-5.53-14-9.13.33c1.63,1.19,9.45,16.61,9.45,16.61a22.91,22.91,0,0,1,10.64,6.63s9,3.47,15.1-2.72l-11.3-1.3A23.34,23.34,0,0,0,164.28,227.74Z"/></g></g></svg>