<svg xmlns="http://www.w3.org/2000/svg" viewBox="0 0 187.45 303.7"><defs><style>.cls-1{fill:#020202;}.cls-2{fill:#434c4b;}.cls-3{fill:#3db7b1;}.cls-4{fill:#208481;}.cls-5{fill:#94a8a6;}.cls-6{fill:#604a82;}.cls-7{fill:#7d65a0;}.cls-8{fill:#bccccb;}.cls-9{fill:#d2dbdb;}</style></defs><g id="Layer_2" data-name="Layer 2"><g id="Capa_1" data-name="Capa 1"><path class="cls-1" d="M58.19,301c26,6.09,108.17,0,108.17,0L164,259.76,80.89,156.68l-62,.47L16.56,168.4l-10.4.47s.94,28.58,6.14,42.63L0,216.19s-.95,21.55,20.81,37L7.57,269.6S32.17,294.9,58.19,301Z"/><path class="cls-2" d="M39.35,293.54C65.75,281.76,45.3,229,45.3,229s-12.61,11.6-25.61,23.42c.37.28.74.56,1.13.83L7.57,269.6S21.44,283.86,39.35,293.54Z"/><path class="cls-2" d="M6.16,168.87s.2,6.21,1,14.26l.33-1.28,44.42-17-35,2.34-.25,1.2Z"/><polygon class="cls-2" points="18.3 160.14 73.33 160.39 67.25 156.79 18.93 157.15 18.3 160.14"/><path class="cls-2" d="M54.25,202.42,0,216.85a42.76,42.76,0,0,0,4.18,16.83Z"/><path class="cls-3" d="M44.2,53.91a3.15,3.15,0,0,0,.21.65C44.33,54.33,44.27,54.12,44.2,53.91Z"/><path class="cls-3" d="M147.46,18.28,135.93,4.17S113.87,7.45,109.7,23s-14.31,12.53-23,6S64.08,23.25,65,31.6s12.22,20.57-.6,18.48c-12.53-2-23.07-5.5-20.18,3.83-.27-1.22-.08-3.57,6.47-1.44,8.55,2.78,25.64,9.14,27,2.18s-5.17-16.89,4.17-14.9,12.13,8.55,22.26,7S112.68,30.21,118.24,30s15.7-2.78,15.7-2.78l-6.75-5.9,8.91-2.72Z"/><path class="cls-3" d="M91.41,114.23c-9.94-3-12.72-5.37-12.72-5.37s5.17,16.9,28.22,12.32,27.23-25,27.23-25l20.27-80.69s-16.69-5-29.61,2.78S112.48,39.5,105.32,48.05s-14.9-2.59-19.08.59-3,7.16-4.57,14.71-14.31,11.92-21.86,7-17.69-6.17-18.28.79a10,10,0,0,0,4.77,9.74s-3.38-8.75,3-7.75S55,85.61,73.72,85s19.28-8,19.28-8S95.39,91.37,80.28,91s-23.85-5.17-26,3,7.35,16.09-1.79,15.5c0,0,10.33,9.74,12.12,1.79s-9.34-14.71,4.77-13.12S93,112.64,102.74,109.66C102.74,109.66,101.35,117.21,91.41,114.23Z"/><path class="cls-4" d="M136.83,65.88s-6.86-9.24-23.56-7.75S95.39,75.42,95.39,75.42l7.15-4.17c-5.07,16.1-2.38,24.15-27.72,20.87S59.31,99.57,59,111.2a12.46,12.46,0,0,1-.3,2.54c2.54,1.08,5.06,1.07,5.86-2.49,1.79-8-9.34-14.71,4.77-13.12S93,112.64,102.74,109.66c0,0-1.39,7.55-11.33,4.57s-12.72-5.37-12.72-5.37,5.17,16.9,28.22,12.32a34.3,34.3,0,0,0,20.93-12.43,63.24,63.24,0,0,1,1.23-14C131.76,82.28,136.83,65.88,136.83,65.88Z"/><polygon class="cls-5" points="104.69 149.53 123.92 148.63 123.02 88.72 112.29 73.96 104.69 149.53"/><polygon class="cls-6" points="114.47 127.79 104.33 116.07 102.94 142.3 114.47 127.79"/><path class="cls-1" d="M166.5,286.19S157.1,160,152.77,136.54s-13.26-29.37-13.26-29.37l-24,2.54s-.4,42.33-55.25,41.73l3,16.7L45.9,170.52l1.19,20.87-12.25,1.79S35.76,216.43,45.3,229l-6,9S62,265.32,87,277.25V288Z"/><path class="cls-2" d="M52.16,169.93s1-.22,2.83-.66l-9.09,1.25L46,172Z"/><path class="cls-2" d="M60.21,151.44,63,167.16c17-4.78,48.51-15.63,53.69-31.49,3.8-11.63,3.05-20.49,1.5-26.25l-2.75.29S115.06,152,60.21,151.44Z"/><path class="cls-2" d="M35.53,200.39a178.3,178.3,0,0,0,30.65-8.83c25-9.39,57.74-42.93,57.74-42.93s-34,23.7-58.63,30.41a57.51,57.51,0,0,1-18.77,2.33l.57,10-12.25,1.79S35,196.08,35.53,200.39Z"/><path class="cls-2" d="M116.3,287.11,129.68,192S103.57,247.72,87,278.52V288Z"/><path class="cls-2" d="M131.84,150.19c.62-.83.08-.21.08-.21Z"/><path class="cls-2" d="M68.44,265.62c2.43-2.65,5.63-5.84,9.82-9.67,25.6-23.43,52-101.16,53.58-105.76-1,1.3-4.75,6.09-17.81,22.14-20,24.59-67.18,45.29-73.52,48A38.86,38.86,0,0,0,45.3,229l-6,9A197.37,197.37,0,0,0,68.44,265.62Z"/><path class="cls-4" d="M182.44,83.67c7.15-3,5-12.12,3.57-19.28s-7.95-13.31-13.51-14.51-3.38-10.53-1-15.1-1-10.33-6-11.73-7.15-8-7.75-14.31-9.74-5.36-13.71-5.36S140.3.6,135.93.8,127.78,6,127.78,6l3.38,19.68,6.56,32.59L127.19,85.06s11.13,30.81,12.32,27,11.13-11.53,16.89-9.54S165.15,98,165.15,98l-1.2,4.37c-1.19,4.38-7.35,4.18-7.35,4.18,3.18,3.38,15.3-3.58,14.51-9.34S175.28,86.65,182.44,83.67Z"/><path class="cls-4" d="M134.29,38.68l-4.92-12.07s-.74,8.94-5.81,9.69-3.88,7-1,8.64,4.47,5.81-.6,7-3.73,10.88,1.19,10.73l4.92-.15s-10.88-4.62-6.26-7.15,10.43-1.94,8.35-7S126.09,39.72,134.29,38.68Z"/><path class="cls-1" d="M134.72,51.79,124.06,54,106.91,77.1l9.16,23.14h22.81l25.47-33.8s-8.66-15.64-19-15.81Z"/><path class="cls-7" d="M142,61.56a93,93,0,0,1,12.86-6.74c-2.82-2.35-6.08-4.14-9.53-4.19l-10.65,1.16L124.06,54l-2.9,3.91-1.63,12A5.38,5.38,0,0,0,116,69c-1.94.3-3.58,6.71-3.58,6.71s4.47-3.58,5.07-.45.89,20.43.89,20.43,10.73-19.53,17-21.77a6.42,6.42,0,0,1,8.5,3.58s1.49-5.66-2.83-7.9-8.8,1.94-8.8,1.94A40,40,0,0,1,142,61.56Z"/><path class="cls-8" d="M125.39,55.62l-4.31,29.54s6.81-22.88,29.62-32.37a43.63,43.63,0,0,1-9.32-25.64l-7,4.42S132.55,51.46,125.39,55.62Z"/><path class="cls-9" d="M125.15,33.59l1,6.46s9.49-3,11.58-3.78S142,24,142,24s1.69-10.58.85-12.67-17.84.89-17.84.89L120.83,28l4.17.6-.4,3.18,1.29.4-1,.15A1.22,1.22,0,0,0,125.15,33.59Z"/><path class="cls-8" d="M137.77,36.27C139.86,35.48,142,24,142,24s1.69-10.58.85-12.67c-.55-1.36-7.94-.57-13,.15l.81,4.72-3.08.3.49,3.5,3.69-.52,4.07,8.24-7.61,11.69C131.13,38.49,136.29,36.83,137.77,36.27Z"/><path class="cls-4" d="M127.19,21.33c0,.73.39,1.33.88,1.33s.88-.6.88-1.33-.39-1.33-.88-1.33S127.19,20.59,127.19,21.33Z"/><path class="cls-1" d="M126.53,19.37l.89,1.22s2.42-.18,3.39-.18a6.85,6.85,0,0,1,2.57,1,4.78,4.78,0,0,0-2.23-2C129.62,18.77,126.53,19.37,126.53,19.37Z"/><path class="cls-4" d="M125.84,16.22a4.78,4.78,0,0,1,.35,1c0,.15,4.18-1.1,6.19-.72a8.22,8.22,0,0,1,3.72,2.11s-2.48-2.54-3.9-2.93S125.84,16.22,125.84,16.22Z"/><path class="cls-4" d="M125.15,33.59v.06c1.4.15,2.14-1.7,2.14-1.7A2.08,2.08,0,0,1,125,30.76l-.27.19-.11.85,1.29.4-1,.15A1.22,1.22,0,0,0,125.15,33.59Z"/><path class="cls-1" d="M133.35,8.94c-.6-.2-1.79,0-2.34-.24S126.79,0,126.79,0C124.16,5.76,123,15.3,123,15.3s6.41-3.77,10.39-2.73A10,10,0,0,1,139,16.05l-.3-3.83-.64-.89S133.94,9.14,133.35,8.94Z"/><path class="cls-3" d="M145.15,14.73c-.9-8.64-2.69-5.36-8-7s-6.46.79-6.46.79L137,11.35s1.89,7.75.1,10.24-5.67,5.17-3.38,8.05,5.27,3.77,2,5.56-5.77.1-6.66,3.78,3.18,2.28,3.38,5-1.49,5.16-4.57,3.77-7.75,3.48-5.57,5.87,7.16,1.88,6,3.08c0,0,1.69,1.79,1.2-1.2s-5-.49-4.47-3.27,6.16,3.27,10.43-1.59-3.28-7.16-2.48-9.84,10.23-.2,9.93-6.56-8.15-3.78-6-6.76S146,23.38,145.15,14.73Z"/><polygon class="cls-7" points="114.86 115.47 144.68 115.47 142.49 96.79 114.86 96.79 114.86 115.47"/><path class="cls-6" d="M144.68,115.47l-2.19-18.68H128.07c-6.37.45-11.77.84-11.52.84.6,0,19.53,1.2,19.53,1.2l-21.22.54v.2l22.41,1.49-22.41.6v3.61l24.65-1.08-19.38,3.13h14.76s-20,2.69-19.23,2.69l22.21-.15-17.34,5.61Z"/><path class="cls-8" d="M155.41,57.24a33.61,33.61,0,0,0-7,7.55c-2.58,4.17,0,45.31,0,45.31s-1.19,18.29-1,21.47S153,168.14,153,168.14h4.18s2.78-54.86,1.59-57.84S160,62.41,160,62.41Z"/><path class="cls-9" d="M147.46,131.57c0,.43.15,1.41.34,2.79l3,1.58,1.79-24.44-5.26-38.26c-.4,13.26,1.08,36.86,1.08,36.86S147.26,128.39,147.46,131.57Z"/><polygon class="cls-5" points="154.53 184.09 154.38 193.14 157.17 197.54 157.17 192.81 158.66 196.05 157.32 187.93 157.1 180.14 154.53 184.09"/><path class="cls-8" d="M157.54,180.81c.45,0-.89-6.26-.44-6.41l-2.59-3.78s-3.38,3-3.87,3.58-3.78,4.37-3.78,4.37a4.78,4.78,0,0,0-2.38-.49c-1.29.09-2.69,3-2.69,3,1.1-2,5.47.69,5.47.69l3.28-2.18s2.48,2,2.48,3-.2,8.44-.2,8.44l3.38,8.25s-1.09-7.85-.69-8.54S157.1,180.81,157.54,180.81Z"/><path class="cls-1" d="M156.5,124l-3.73,9.54-6.85-4.62,6.41,40.24L157.54,183l.75-13.56s3.89-46.79,4.56-50.32c-.7,1.45-5.75,9.63-5.75,9.63Z"/><path class="cls-1" d="M162.91,119s0,.09-.06.21C162.93,119,163,118.92,162.91,119Z"/><path class="cls-4" d="M145.15,14.73c-.63-6.07-1.7-6.26-4.11-6.42,1.46,2.6,2.54,5.91,1.05,8.78-3,5.77-8.94,8.35-6.26,10.63a6.76,6.76,0,0,1,.7.71,1.39,1.39,0,0,1,.37-1C139.09,24.47,146,23.38,145.15,14.73Z"/><path class="cls-4" d="M142.86,34.21c-.22-4.71-4.57-4.52-5.94-5.31,1.82,2.33,3.79,6.59,2.78,9.6C141.53,37.89,143,36.76,142.86,34.21Z"/><path class="cls-7" d="M151.43,152.64s3.22-6.92,8.74-5.35c1.1-12.61,2.33-26.26,2.68-28.13-.7,1.45-5.75,9.63-5.75,9.63l-.6-4.77-3.73,9.54-6.85-4.62.92,5.75c3.31,2.63,6.18,4.9,6.38,4.83.45-.15,2.09-5.81,2.09-5.81l3.13,5.81S148.6,144.29,151.43,152.64Z"/><path class="cls-7" d="M162.91,119s0,.08-.06.21C162.93,119,163,118.92,162.91,119Z"/><path class="cls-7" d="M151.06,161.21l1.27,8L157.54,183l.75-13.56s0-.38.09-1.08l-2.92-6.3L153.37,164l1.79-6.26Z"/><path class="cls-7" d="M166.5,286.19s.31-4,.79-10.6L87,277.25V288Z"/><path class="cls-7" d="M67.86,151.23q-3.63.26-7.65.21l3,16.7L45.9,170.52l1.19,20.87-12.25,1.79S35.76,216.43,45.3,229l9.54-6.26c-5.06-2.68-12.22-28.32-12.22-28.32l12.52-.3-3-24.14,17-2.09Z"/><path class="cls-7" d="M87,277.25l3.28-10.73L45.3,229l-6,9S62,265.32,87,277.25Z"/><path class="cls-7" d="M69.76,295.75c-20.52-.42-54.76-26.72-59-30.06L7.57,269.6S32.17,294.9,58.19,301s108.17,0,108.17,0l-.43-7.5C142.38,294.52,84.54,296.05,69.76,295.75Z"/><polygon class="cls-7" points="24.15 167.86 26.84 157.09 18.93 157.15 16.61 168.19 24.15 167.86"/><path class="cls-7" d="M26.83,249.24C17.44,247.46,4,214.81,4,214.81l17.44-4L13.9,168.52l-7.74.35s.94,28.58,6.14,42.63L0,216.19s-.95,21.55,20.81,37l-7.15,8.86Z"/></g></g></svg>