<svg xmlns="http://www.w3.org/2000/svg" viewBox="0 0 243.33 333.67"><defs><style>.cls-1{fill:#6c6475;}.cls-2{fill:#ebcdbf;}.cls-3{fill:#b75125;}.cls-4{fill:#010002;}.cls-5{fill:#77271d;}.cls-6{fill:#98381c;}.cls-7{fill:#65181a;}.cls-8{fill:#342520;}.cls-9{fill:#c85636;}.cls-10{fill:#b01f16;}.cls-11{fill:#531313;}.cls-12{fill:#6e1f1b;}</style></defs><g id="Layer_2" data-name="Layer 2"><g id="Capa_1" data-name="Capa 1"><path class="cls-1" d="M163.74,305.22c-1.5,2.15-2.41,3.51-2.41,3.51S163,308.11,163.74,305.22Z"/><path class="cls-1" d="M189.33,299.4s8-2.67,13.34-24-8.67-174-8.67-174l-75.33-10S57.33,174.06,0,208.06c0,0,35.33-14.66,45.33,4.67S26,252.06,26,252.06s38-18,52-8.66-12.67,35.33-12.67,35.33,40-25.33,50-10S108,298.06,108,298.06s42-33.33,51.33-12.66c4.88,10.79,5.2,16.66,4.41,19.82,6.77-9.67,25.77-35.28,29.59-23.82C198,295.4,189.33,299.4,189.33,299.4Z"/><circle class="cls-2" cx="72.31" cy="73.43" r="22.68"/><circle class="cls-3" cx="72.31" cy="73.43" r="17.22"/><path class="cls-4" d="M75.49,101.19l-.66-3.91,1.55-1.51L79,94.21l-4.47-.84-2.13,2.19.1,3.57L70.9,94.56l.89-2,3.29-1-5.4-1.5-1.63,3.1,0,4a14.68,14.68,0,0,0-2.58-4.14l.08-2.74,3.29-2.19c-3.4-1.49-6.08,1.59-6.08,1.59s-.09,5.06.81,5.72,1.12,3.84,1.12,3.84a8.33,8.33,0,0,0-3.9-3.17l-1.28-1.69,1.84-4.37c-3.26.17-4.81,4.1-4.81,4.1l2.11,4.11c4,1.77,5.9,12.87,5.9,12.87s13.74,7.66,14.15,7.62l-.56-6C82.06,106.51,75.49,101.19,75.49,101.19Z"/><path class="cls-4" d="M171,103.43,193.29,38.8l-2.73-1.24S161.34,98,160.85,99.22Z"/><polygon class="cls-4" points="193.52 45.88 197.9 34.49 191.46 31.6 185.6 42.25 193.52 45.88"/><path class="cls-4" d="M140.24,49.58c-3.75-11.14-15-8.3-15-8.3l2.8-2.64a17.41,17.41,0,0,0-13,5.31L102.38,14.69c1.07-1.29,1-4.62-.24-8.17-1.48-4.16-4.07-7-5.79-6.44s-1.91,4.48-.43,8.65c1.32,3.73,3.54,6.43,5.22,6.52l9.43,30.16a17.1,17.1,0,0,0-12.24,2.93l3.79.68s-11,3.79-8,15.16c0,0,6.52-12.69,18.91-10.86l8,25.73,8.67-1.24L118.18,51.13C127.57,42.4,140.24,49.58,140.24,49.58Z"/><path class="cls-4" d="M226.12,44.42c2.47-2,3.82-4.37,3-5.39s-3.47-.26-5.94,1.7c-2.21,1.75-3.52,3.87-3.2,5L201.82,59.07a12.2,12.2,0,0,0-4.8-7.58l.41,2.71s-5.08-6.52-12.07-1.89c0,0,10.07,1.47,11.69,10.26L181.54,73.93l2.83,5.56,15.34-14c8.06,4.33,6.13,14.53,6.13,14.53C212.5,75,208,68,208,68l2.43,1.28a12.47,12.47,0,0,0-6.58-7.54l16.82-15.31C221.78,46.89,224,46.09,226.12,44.42Z"/><path class="cls-4" d="M100.24,137.1a85.51,85.51,0,0,1,.79,13.75C106.36,139.05,100.24,137.1,100.24,137.1Z"/><path class="cls-4" d="M108.85,177.32a15.71,15.71,0,0,0,.43-1.6Z"/><polygon class="cls-4" points="152.08 255.98 155.38 248.95 155.38 151.76 136.56 145.03 130.28 224.36 152.08 255.98"/><polygon class="cls-4" points="161.66 248.95 164.96 255.98 186.76 224.36 180.48 145.03 161.66 151.76 161.66 248.95"/><path class="cls-4" d="M180.92,333.18l11.39.29,2.8-2.52-1.19-2.81a43.82,43.82,0,0,1-10.3-9.08A42.59,42.59,0,0,1,177,307.28L171.55,306l-5.5,6.86.08,11.14,4,1.34s-.71-3.73,2.26-2.95,2.76,6.52,2.76,6.52Z"/><path class="cls-5" d="M177.22,291.31l1.87-1.36,2.41-13.24C174.68,282.16,177.22,291.31,177.22,291.31Z"/><path class="cls-5" d="M186.45,284.58,179.09,290l-1.25,6.83C185.17,294.74,186.45,284.58,186.45,284.58Z"/><path class="cls-5" d="M182.84,275.76c8.48-5.26,9.56-16.14,9.56-16.14l-8.93,6.29-2,10.8A15.21,15.21,0,0,1,182.84,275.76Z"/><path class="cls-6" d="M162.47,250.37l-1.13,25.4,4.63,7.84,4.68,36.65,4.7-.19s9.63-42.66,11-54,2.45-56.46,2.45-56.46l-13.19,17.66-12.72,22Z"/><polygon class="cls-4" points="169.45 310.87 170 315.21 175.19 303.17 178.12 264.9 162.18 256.84 161.93 262.56 175 266.98 173.17 302.39 169.45 310.87"/><path class="cls-4" d="M168.09,311.19c-1.85.56-.9,12.18-.45,12.35s9.93.27,9.93.27l.34-8.11a62.89,62.89,0,0,1-.34-6.44l-3-9.51S169.93,310.63,168.09,311.19Z"/><path class="cls-4" d="M226.71,230.55l.33-7.26c-2,.33-72-56.47-72-56.47l-3.3,3.3Z"/><path class="cls-5" d="M216.67,137.1s-6.28,8.09-9.91,6.44-6.77,9.08-6.77,9.08l-.5,25.59s8.75,1.49,12.88-15c0,0-5.94,5.94-9.41,4.62s3.63-10.07,3.63-10.07S216.17,147.17,216.67,137.1Z"/><path class="cls-4" d="M186,103.09c.67,1,13.21,61.75,13.21,61.75s8.92,9.25,8.92-11.23-7.27-61.09-7.27-61.09l-14.19-3.3S185.29,102.1,186,103.09Z"/><path class="cls-4" d="M190.77,209.09s10.73-2,11.89-4.62-.33-13.38-.33-13.38l-6.94-5-12.22,4.62-.82,5.62,4.29,2.14-2.48,5.95Z"/><path class="cls-6" d="M191.47,132.9l-1.24,59.52h8.17s8.67-27.5,11.89-40.88,2.23-29.95,2.23-29.95l-14.12,17.9Z"/><path class="cls-4" d="M108.82,153.61c0,20.48,8.92,11.23,8.92,11.23s12.55-60.76,13.21-61.75-.66-13.87-.66-13.87l-14.2,3.3S108.82,133.14,108.82,153.61Z"/><path class="cls-4" d="M155.13,323.84,155,312.69l-5.61-6.78L144,307.27a42.17,42.17,0,0,1-6.46,11.87,43.46,43.46,0,0,1-10.14,9.21l-1.14,2.83,2.84,2.49,11.38-.44,5.67-4.36s-.31-5.74,2.65-6.56,2.3,2.93,2.3,2.93Z"/><path class="cls-5" d="M137.58,275.84a12.34,12.34,0,0,1,1.35.93L136.77,266l-9-6.17S129,270.69,137.58,275.84Z"/><path class="cls-5" d="M142.94,296.78,141.58,290l-7.46-5.27S135.58,294.85,142.94,296.78Z"/><path class="cls-5" d="M141.58,290l1.89,1.34s2.38-9.18-4.54-14.54Z"/><path class="cls-6" d="M144,227.28l-13.5-17.49s1.86,45.11,3.43,56.42,12,53.83,12,53.83l4.7.13,4-36.71,4.5-7.9-1.57-25.38-.46-1.1Z"/><polygon class="cls-4" points="157.91 256.64 142.12 264.92 145.7 303.14 151.1 315.11 151.58 310.77 147.71 302.33 145.26 266.95 158.26 262.36 157.91 256.64"/><polygon class="cls-4" points="135.04 325.95 129.75 318.12 128.49 328.97 135.04 325.95"/><path class="cls-4" d="M146.3,299.72l-2.87,9.55a63.91,63.91,0,0,1-.23,6.44l.48,8.1s9.48-.22,9.93-.4,1.19-11.81-.66-12.34S146.3,299.72,146.3,299.72Z"/><polygon class="cls-5" points="143.76 141.32 138.06 230.48 151.01 248.11 158.62 226.59 166.41 247.85 179.17 230.48 173.47 141.32 158.62 138.1 143.76 141.32"/><polygon class="cls-4" points="158.62 189.11 151.01 210.63 140.26 196 139.35 210.28 151.01 226.15 158.62 204.63 166.41 225.9 177.88 210.28 176.97 196 166.41 210.38 158.62 189.11"/><polygon class="cls-4" points="158.62 157.24 151.01 178.76 142.14 166.68 141.22 180.96 151.01 194.28 158.62 172.76 166.41 194.03 176.01 180.96 175.09 166.68 166.41 178.51 158.62 157.24"/><path class="cls-6" d="M200.34,84.2,170.87,79l-12.09-4.93v0h-.05v0L146.65,79l-29.47,5.2S133,116.14,135.5,127.78s0,25,0,25l23.23,11.36v0h.05v0L182,152.8s-2.48-13.38,0-25S200.34,84.2,200.34,84.2Z"/><path class="cls-3" d="M158,163.81c-.16-4.8-1.26-17.29-7.75-35-8.42-22.95-17.66-34.35-17.83-35.67l-4.13,7.1s6.77,14.37,9.58,26.91c1.83,8.17,1.14,19.83.43,27Z"/><polygon class="cls-3" points="138.87 88.72 158.19 126.7 158.19 80.14 151.42 75.52 140.69 86.41 138.87 88.72"/><polygon class="cls-4" points="138.71 87.73 137.22 89.22 158.85 131.32 179.16 86.58 178.5 85.09 158.68 124.72 138.71 87.73"/><path class="cls-5" d="M116.36,62.91s13.65-10,29.83-2.64,9.69-6.71,9.69-6.71l-10.79-2.31S122.86,47.17,116.36,62.91Z"/><path class="cls-6" d="M116.36,62.91s.43-.31,1.23-.79c7.67-12.85,27.5-9.22,27.5-9.22l10.79,2.31a16.28,16.28,0,0,1,1.24,4.37c.34-2.59-1.24-6-1.24-6l-10.79-2.31S122.86,47.17,116.36,62.91Z"/><path class="cls-5" d="M172.13,51.25l-10.78,2.31s-6.5,14.09,9.68,6.71,29.83,2.64,29.83,2.64C194.37,47.17,172.13,51.25,172.13,51.25Z"/><path class="cls-6" d="M172.13,51.25l-10.78,2.31a13.89,13.89,0,0,0-1.26,5.81,16.59,16.59,0,0,1,1.18-3.91l10.78-2.32s19.35-3.54,27.22,8.76c1,.6,1.59,1,1.59,1C194.37,47.17,172.13,51.25,172.13,51.25Z"/><polygon class="cls-5" points="101.78 72.93 108.82 85.26 138.65 74.91 135.57 65.33 132.49 75.13 124.67 75.13 117.41 64.34 117.52 76.23 111.35 79.31 101.78 72.93"/><polygon class="cls-5" points="192.2 75.13 184.38 75.13 181.3 65.33 178.22 74.91 208.05 85.26 215.09 72.93 205.52 79.31 199.35 76.23 199.47 64.34 192.2 75.13"/><path class="cls-4" d="M164.85,74.55s-1.53,6.57,13,22.44,42.35,10.89,42.35,10.89-9.75-17.25-9.84-17.9L182,78.51Z"/><path class="cls-6" d="M220.93,97.7l-3.75-5L172,79.94s-1.73-.41,3.3,10.2,13,12.31,13,12.31l-1.46-4.57c4.85,6.4,12.63,5.58,12.63,5.58l-1.91-3.83c4.37,4.69,14.4,1.75,14.4,1.75l-2.45-3.75C217.67,101.19,220.93,97.7,220.93,97.7Z"/><path class="cls-3" d="M161.51,81.29A8.48,8.48,0,1,0,170,72.82,8.47,8.47,0,0,0,161.51,81.29Z"/><path class="cls-3" d="M166,72.6,164,74s8.62,19.08,24.77,24.36,29.87-4.89,29.87-4.89S212.44,80.27,199,74.15,166,72.6,166,72.6Z"/><path class="cls-3" d="M166,72.6,164,74s8.62,19.08,24.77,24.36,29.87-4.89,29.87-4.89S212.44,80.27,199,74.15,166,72.6,166,72.6Z"/><path class="cls-6" d="M215.33,94.8s-6.2-13.21-19.68-19.33-33-1.55-33-1.55l-2,1.41s.05.12.16.34c6.37-1,19.26-2.15,29,2.28,13.49,6.11,19.68,19.32,19.68,19.32a27.79,27.79,0,0,1-3.37,2A36.41,36.41,0,0,0,215.33,94.8Z"/><path class="cls-6" d="M164.26,81.29A5.73,5.73,0,1,0,170,75.57,5.72,5.72,0,0,0,164.26,81.29Zm10,0A4.3,4.3,0,1,1,170,77,4.29,4.29,0,0,1,174.28,81.29Z"/><path class="cls-4" d="M213.88,86.14a46.07,46.07,0,0,0-5.79-6.07c-5.23.13-11.73.73-15.65,2.66l6.05,3.85s-12.43.67-20.63,5.58c.39.32.78.64,1.19,1,6.19-2.62,15-5.24,24.45-4.66l-6-4.84S203.89,81.75,213.88,86.14Z"/><path class="cls-4" d="M106.19,90c-.1.65-9.85,17.9-9.85,17.9s27.81,5,42.35-10.89,13-22.44,13-22.44l-17.11,4Z"/><path class="cls-6" d="M141.27,90.14c5-10.61,3.3-10.2,3.3-10.2L99.38,92.69l-3.75,5s3.27,3.49,11.48-.07l-2.46,3.75s10,2.94,14.4-1.75l-1.91,3.83s7.78.82,12.63-5.58l-1.46,4.57S136.24,100.74,141.27,90.14Z"/><path class="cls-6" d="M138.1,81.29a8.48,8.48,0,1,0,8.48-8.47A8.47,8.47,0,0,0,138.1,81.29Z"/><path class="cls-3" d="M117.61,74.15c-13.49,6.12-19.68,19.33-19.68,19.33s13.73,10.16,29.87,4.89S152.57,74,152.57,74l-2-1.41S131.1,68,117.61,74.15Z"/><path class="cls-6" d="M118.72,98.37a30.63,30.63,0,0,1-5.07,1.19,31.12,31.12,0,0,0,14.15-1.19C144,93.09,152.57,74,152.57,74l-2-1.41a74.34,74.34,0,0,0-19.89-1.48,73.69,73.69,0,0,1,10.81,1.48l2,1.41S134.87,93.09,118.72,98.37Z"/><path class="cls-5" d="M140.85,81.29a5.73,5.73,0,1,0,5.73-5.72A5.72,5.72,0,0,0,140.85,81.29Zm10,0A4.3,4.3,0,1,1,146.58,77,4.29,4.29,0,0,1,150.87,81.29Z"/><polygon class="cls-7" points="154.17 47.83 156.63 50.29 161 47.06 161 12.61 157.75 21.29 157.84 21.53 156.01 25.93 157.75 21.29 154.17 12.61 154.17 47.83"/><polygon class="cls-7" points="157.84 21.53 157.75 21.29 156.01 25.93 157.84 21.53"/><path class="cls-8" d="M167.9,70.62c-1.35-4.2-4.77-3.64-4.77-3.64l-16.37,1.71s.83,7.9,4.17,10.39l.15-1.32s3.23,6.21,7.19,8.06A22.92,22.92,0,0,0,164,78.1l-.27,2S169.26,74.82,167.9,70.62Z"/><path class="cls-3" d="M145,50.69V71.81c6.43,1.18,16.9,2.39,25.32,0V50.69a12.66,12.66,0,0,0-25.32,0Z"/><path class="cls-6" d="M157.43,73.17c.07-3.29.35-12.1.41-14.2.07,2.1.35,10.94.42,14.22,1.22,0,2.46,0,3.7-.06V62.25s1.21,2.37,4.56.55,5.73-11.28-1.92-15.57c-3.45-1.94-5.52-2.45-6.76-2.43s-3.31.49-6.75,2.43c-7.65,4.29-5.28,13.76-1.93,15.57s4.57-.55,4.57-.55V73C154.94,73.07,156.17,73.14,157.43,73.17Z"/><path class="cls-8" d="M160.44,73.18V59.34s.83,2.39,4,1.4,3.38-5.78,2.23-7.93c-.91-1.69-6.48,2.15-8.81,3.86-2.32-1.71-7.89-5.55-8.8-3.86-1.16,2.15-.91,6.94,2.22,7.93s4-1.4,4-1.4V73.08C156.92,73.18,158.68,73.22,160.44,73.18Z"/><path class="cls-8" d="M146.29,45.12c3.47,1.68,9,4.68,11.51,7.5a59.39,59.39,0,0,1,11.39-7.07,12.64,12.64,0,0,0-22.9-.43Z"/><path class="cls-9" d="M154.23,57.88a11.12,11.12,0,0,0-4.87-2.34C151.12,59.17,154.23,57.88,154.23,57.88Z"/><path class="cls-9" d="M166.28,55.54a11.07,11.07,0,0,0-4.87,2.34S164.52,59.17,166.28,55.54Z"/><polygon class="cls-10" points="155.71 42.77 157.58 44.75 159.46 42.77 161 12.61 157.58 12.61 154.17 12.61 155.71 42.77"/><path class="cls-4" d="M137.52,93.11c.4-.31.79-.63,1.18-1-8.19-4.91-20.63-5.58-20.63-5.58l6.05-3.85c-3.92-1.93-10.42-2.53-15.65-2.66a45.3,45.3,0,0,0-5.78,6.07c10-4.39,16.37-2.53,16.37-2.53l-6,4.84C122.53,87.87,131.32,90.49,137.52,93.11Z"/><polygon class="cls-4" points="152.19 116.41 151.53 115.25 152.08 116.52 152.19 116.41"/><path class="cls-4" d="M139,110.52l-7.6,5.15c.31.78.61,1.54.89,2.29l5.33-4.74.22,2.53,10.35-6.28,3.3,5.78-3.58-8.2-8.58,6Z"/><path class="cls-4" d="M141.84,122.68,136.07,131c.2,1.49.34,3,.42,4.46l4.8-8.42.77,3.09,10.79-11.89-.77-1.76-9.47,9.57Z"/><path class="cls-4" d="M164.63,116.52l-.77,1.76,10.78,11.89.77-3.09L181,136.8c.06-1.56.17-3.17.36-4.77l-6.46-9.35-.77,3.41Z"/><path class="cls-4" d="M168.75,107.05l-3.57,8.2,3.3-5.78,10.35,6.28.22-2.53L185,118.5l.93-2.4-8.23-5.58-.33,2.48Z"/><polygon class="cls-4" points="165.18 115.25 164.52 116.41 164.63 116.52 165.18 115.25"/><path class="cls-4" d="M158.35,135.45,149.6,151.3l-13.31-4.76c0,.58-.11,1.13-.16,1.65l14.63,4.93,7.92-13.54,7.43,13.21,15.34-4c0-.42-.1-.86-.14-1.33l-13.71,3.36Z"/><path class="cls-5" d="M194.42,192.42h4s8.67-27.5,11.89-40.88,2.23-29.95,2.23-29.95l-9.41,11.93C200.52,151.27,196.52,178.27,194.42,192.42Z"/><polygon class="cls-11" points="231 216.46 233.53 205.46 221.75 209.75 220.66 209.31 212.95 201.05 209.76 215.8 197.32 216.24 203.37 226.81 196.33 234.63 209.32 235.07 207.45 246.62 217.13 241.23 223.74 248.27 227.81 237.93 238.6 238.15 234.3 227.36 243.33 219 231 216.46"/><circle class="cls-5" cx="219.25" cy="224.6" r="19.32"/><path class="cls-12" d="M238.57,224.6a19.32,19.32,0,0,0-32.84-13.8,19.11,19.11,0,0,1,4-.41,19.32,19.32,0,0,1,13.52,33.12A19.32,19.32,0,0,0,238.57,224.6Z"/><path class="cls-11" d="M214.6,224.28a4.08,4.08,0,1,0,4.07-4.29A4.18,4.18,0,0,0,214.6,224.28Z"/><path class="cls-11" d="M207.47,218.33c6.94-.33,5.12-6.1,5.12-6.1l-6.77-.42Z"/><path class="cls-11" d="M203.4,231.36l6.7.68c2.06-6.63-4-6.9-4-6.9Z"/><path class="cls-11" d="M216.14,236l4.35,5.2,3.6-5.68C219.09,230.66,216.14,236,216.14,236Z"/><path class="cls-11" d="M230.87,230.64l4.83-4.76-5.95-3.13C225.36,228.13,230.87,230.64,230.87,230.64Z"/><path class="cls-11" d="M227.35,215.27l-.89-6.73-6.09,2.88C222,218.16,227.35,215.27,227.35,215.27Z"/><path class="cls-4" d="M192,330.22c2.31-3,.44-11.21.44-11.21l-5.07,7.14Z"/><path class="cls-6" d="M115.56,144.89s-18.64-20.52-38.8-33.2L67.41,104c-1.68.84-2.24,7-2.24,7s6.68,12.81,16.16,26.92c0,3.48.44,8.26,2.6,12.27l3.7-3.33c1,1.32,2,2.64,3,3.93,1.23,5.34,3.61,13.21,7.58,17.88l2.24-6.59c5.06,5.11,10.21,9.13,15.12,11.07l-1.12-18.48,7.84-.84Z"/><path class="cls-5" d="M115.56,144.89s-18.64-20.52-38.8-33.2L67.41,104a3.32,3.32,0,0,0-1.23,1.9c8.28,8.76,37.59,40.07,46.09,53.25,1,1.49,1.85,2.75,2.68,3.83l-.51-8.31,7.84-.84Z"/><path class="cls-4" d="M85.19,66.56l.52-1.07,1.21.62-.34-2.31c-.23-.34-.48-.68-.74-1l-.31-.16,0-.28c-.26-.31-.52-.6-.79-.88l.2,1.34-.52.73Z"/><polygon class="cls-4" points="86.31 78.6 86.83 77.53 88.04 78.15 87.6 75.15 86.65 74.68 85.95 69.83 86.89 70.33 85.21 67.7 84.78 70.7 85.28 70.06 86.02 74.86 85.5 75.59 86.31 78.6"/><path class="cls-4" d="M72.34,71.53l.59-1.62,1.83.69-1.11-4.25-1.46-.52L70.39,59l1.44.57-2.49-3.07-.38.07-.12,3.87.62-1,1.86,6.78-.63,1.13Z"/><polygon class="cls-4" points="62.59 81.74 61.54 81.91 58.12 78.4 59.18 78.25 56.27 77.11 57.69 79.8 57.72 78.98 61.14 82.43 61.14 83.32 63.56 85.29 63.36 84.11 64.7 83.91 62.59 81.74"/><path class="cls-4" d="M63.06,73l.19-1.71,1.94.24-2.08-3.86-1.54-.17-2.64-4.89c-.22.28-.44.57-.65.87L60.81,68l-.34,1.25Z"/><polygon class="cls-4" points="79.53 86.92 79.97 85.25 81.86 85.78 80.37 81.65 78.88 81.25 76.46 74.58 77.95 75.02 74.79 71.77 75.06 76.16 75.58 75.11 78.04 81.69 77.52 82.88 79.53 86.92"/><path class="cls-4" d="M63.29,80.84l0-1.72,2,.07-2.42-3.67-1.55,0L57.4,69.57l1.55.08L56,67.81c-.13.4-.26.8-.37,1.21l.74,2.42.27-1.15,3.94,5.83-.24,1.27Z"/><path class="cls-4" d="M70.16,90.51a16.88,16.88,0,0,0,2.15.14h.37l-1.41-2.13-1.06,0L67.5,84.4l1.08.06-2.65-1.67.89,2.9L67,84.9l2.72,4-.16.88Z"/><path class="cls-4" d="M83.3,79.18l-.16,3,.45-.69,1,4c.19-.19.36-.37.54-.57l-.89-3.69,1,.41Z"/><polygon class="cls-4" points="70.72 79.22 71.16 77.55 73.04 78.08 71.55 73.95 70.06 73.56 67.64 66.88 69.14 67.32 65.97 64.07 66.24 68.46 66.76 67.41 69.22 74 68.7 75.18 70.72 79.22"/><polygon class="cls-4" points="71.41 86.76 71.54 85.57 72.88 85.74 71.44 83.08 70.39 82.96 68.06 78.65 69.12 78.8 66.63 76.9 67.26 79.87 67.51 79.1 69.86 83.34 69.62 84.2 71.41 86.76"/><polygon class="cls-4" points="81.16 79.23 81.75 77.61 83.58 78.3 82.46 74.05 81.01 73.53 79.2 66.66 80.65 67.23 77.79 63.72 77.66 68.11 78.28 67.11 80.14 73.89 79.51 75.02 81.16 79.23"/></g></g></svg>