<svg xmlns="http://www.w3.org/2000/svg" viewBox="0 0 203.5 176.35"><defs><style>.cls-1{fill:#5ed1d3;}.cls-2{fill:#0a6466;}.cls-3{fill:#004947;}.cls-4{fill:#89a3a3;}.cls-5{fill:#a3d1d3;}.cls-6{fill:#0a8783;}.cls-7{fill:#274241;}.cls-8{fill:#054949;}.cls-9{fill:#29a1aa;}.cls-10{fill:#03514f;}.cls-11{fill:#056d68;}.cls-12{fill:#35302a;}.cls-13{fill:#7c3a82;}.cls-14{fill:#168989;}</style></defs><g id="Layer_2" data-name="Layer 2"><g id="Capa_1" data-name="Capa 1"><path class="cls-1" d="M37.37,49l2.54,5.6s-3.3,12.22,4.59,17.82,24.43,3.82,24.43,3.82l74.32-15.53s-40-19.34-52.18-23.16S42.46,10.1,42.46,10.1s-6.11,10.44-4.84,17.82L38.9,35.3S34.82,43.44,37.37,49Z"/><path class="cls-2" d="M37.37,49l2.54,5.6s-3.3,12.22,4.59,17.82c4.41,3.13,11.54,4,17,4.07A6.74,6.74,0,0,0,63.84,74c3-6.62,50.9-13.75,50.9-13.75l8.15,2s20,1.69-32.08-20.19c-18.07-7.59-38.06-22.4-46.35-30.7l-2-1.29s-6.11,10.44-4.84,17.82L38.9,35.3S34.82,43.44,37.37,49Z"/><path class="cls-3" d="M119.64,61.47l.21.05c-3.28-1.12-40.45-14-61.53-28.26-11.08-7.5-16.17-13.55-18.48-17.71-1.29,3.17-2.53,7.23-2.38,10.83,7.59,5.65,22.66,16.28,33.42,20C84.82,51.08,115.59,60.26,119.64,61.47Z"/><path class="cls-3" d="M75.12,64s6.28.68-12.55-4.41A97.73,97.73,0,0,1,37.05,48.21a8.36,8.36,0,0,0,.32.83l2.54,5.6C52.05,61.43,75.12,64,75.12,64Z"/><path class="cls-3" d="M111.5,60.75c-4.56-1-10.75-2.1-19.07-3.39-30.14-4.7-46.07-14-54.12-20.72a26.25,26.25,0,0,0-1.45,4.88c5.32,3.83,13.19,8.88,21,11.59,7.94,2.79,26.48,7,40.48,10C103.72,62,108.51,61.23,111.5,60.75Z"/><polygon class="cls-4" points="185.96 23.8 189.86 26.73 203.5 0 185.96 23.8"/><polygon class="cls-5" points="192.23 17.41 190.84 19.5 193.93 18.76 195.45 15.77 192.23 17.41"/><polygon class="cls-5" points="194.59 13.72 192.92 16.37 195.57 15.54 197.06 12.63 194.59 13.72"/><path class="cls-5" d="M203.5,0l-2.95,4c-2.57,4-5.81,9.14-5.68,9.1l2.33-.75Z"/><path class="cls-6" d="M168.69,81.31c1.78-.86,16.21-1,16.21-1s1.43-.38.49-3.45-15.8-5.58-16-5.63-14.85,1.92-16.32,2.13l3.23,4.79C159.82,81,166.91,82.16,168.69,81.31Z"/><path class="cls-7" d="M172.17,104l-1.69-3.78c-.24.14-9.68,5.81-10,6.44s0,11.49-.51,12.68c0,0,7.41-3.36,10.6-6S172.17,104,172.17,104Z"/><path class="cls-6" d="M158.61,98.57c6-1.56,12,0,17.43,2.68.08-.24.16-.48.22-.73l.54-2.11a5.39,5.39,0,0,0,2.25-3.47,16.93,16.93,0,0,0,.16-4,13.9,13.9,0,0,0,2.42-2c1-1.14,2.07-5.67,2.18-6.17l.18-.18c.34-1.51,2.18-3,1.84-5-.12-1.24-2-1.91-2.91-1.8l-.72.13-4.81,9.19a17.09,17.09,0,0,0-1.45,1.65,4.22,4.22,0,0,0-.86,2c-1.91-.65-5.61-1.48-6.81.17a6.07,6.07,0,0,1-4.35,2.23l3,.74c-.36-.09-2.83-.59-4.07,1.1a18.46,18.46,0,0,1-2.6,2.89,11.4,11.4,0,0,1,2.53-.33C163.58,95.7,160.27,96.87,158.61,98.57Z"/><path class="cls-8" d="M179.21,91c.33-.22.7-.48,1-.75l0-.06Z"/><path class="cls-8" d="M158.08,99.23s3.75-2.37,4.22-.12-3.28,1.31-3.65,3a2.77,2.77,0,0,0,.46,2.54s1.24-3.19,3.58-.2c-.39.89-.77,1.8-1,2.43,2.83-1.24,6.55-2.75,7.64-2.56s1.89,2.69,2.31,4.54a5.13,5.13,0,0,0,2.18-1.46,4.07,4.07,0,0,0,.59-3.27,10,10,0,0,0,1.87-3.65l.54-2.11a5.39,5.39,0,0,0,2.25-3.47,16.93,16.93,0,0,0,.16-4s-.12,1.93-1.44,1.48c-.89-.31-2-2.42-2.67-3.76a1,1,0,0,0,0,.16c-1.91-.65-5.61-1.48-6.81.17a6.07,6.07,0,0,1-4.35,2.23l3,.74c-.36-.09-2.83-.59-4.07,1.1a18.46,18.46,0,0,1-2.6,2.89,11.4,11.4,0,0,1,2.53-.33C163.68,95.71,159.38,97.17,158.08,99.23Z"/><path class="cls-2" d="M169.8,101.85c-1.39-.58-3,1.48-4.07,3.4a9.89,9.89,0,0,1,3.58-.89c1.12.19,1.89,2.69,2.31,4.54a5.13,5.13,0,0,0,2.18-1.46,4.07,4.07,0,0,0,.59-3.27,10,10,0,0,0,1.87-3.65l.54-2.11a5.39,5.39,0,0,0,2.25-3.47,16.93,16.93,0,0,0,.16-4s-.12,1.93-1.44,1.48a4.23,4.23,0,0,1-1.58-1.73L171,94.61l2.94.43s-2.47,3-4.62,2.26-3.13,2.57-3.13,2.57.95-2.07,3.6-.22,3.92.39,3.92.39S172.22,102.86,169.8,101.85Z"/><path class="cls-2" d="M2,93s14.79-.24,17.34,9.71-1.62,16.87-1.62,16.87,6-4.85,12.48,6.71S33.7,143.2,33.7,143.2s8.09-1.62,20.58,1.39,10.4-4.85,7.86-5.32-20.35-14.1-20.81-20.57-.46-17.8-.46-17.8l5.37-19S59.13,70.38,65.6,68.76L122.54,53C121.09,51.42,3,60.21,3,60.21s16.19,5.31,16,15.95S2,93,2,93Z"/><path class="cls-3" d="M39.25,107.91c.12-.13.18-.2.16-.19S39.31,107.8,39.25,107.91Z"/><path class="cls-3" d="M30.37,126.58a42.74,42.74,0,0,1,2,4c2.23-4.7,4.36-9.27,4.61-10.12S34,122.83,30.37,126.58Z"/><path class="cls-3" d="M44.85,85.93,19.26,102.37c0,.12.07.25.11.38a26.12,26.12,0,0,1,.82,6.32Z"/><path class="cls-3" d="M37.25,113.88a58.17,58.17,0,0,1,2-6c-1.08,1.15-7.28,7.08-13.13,13a19.19,19.19,0,0,1,3.17,3.87Z"/><path class="cls-3" d="M66.43,61.68l-54.15,3.4a17.79,17.79,0,0,1,5.47,6.11Z"/><path class="cls-3" d="M46.24,81.94,12,95a13.79,13.79,0,0,1,5.35,3.8Z"/><path class="cls-3" d="M55.64,66.51c1.54-.47-20.77,5.22-36.74,9.18a3.69,3.69,0,0,1,0,.47,11,11,0,0,1-1.12,4.54C31.91,75.35,54,67,55.64,66.51Z"/><path class="cls-2" d="M112.18,51.2c4.86,2.6-5.5,10.87,12.95,17.25S164,67.51,164,67.51l16.19-33.09,7-13.55-11-12.29s1.19,9.3-7.23,11.19-13.27.16-13.27.16S161.06,31.59,134,30.17c0,0,2.27,7.09-5.67,9.45s-18-1.65-17.8-.71S107.32,48.6,112.18,51.2Z"/><path class="cls-3" d="M113.51,57a10.89,10.89,0,0,0,.11,2l24.7,4.92Z"/><path class="cls-3" d="M113.53,56.3c4.25.72,9.89,1.69,14.63,2.55-4.81-1.2-10.49-2.72-14.54-3.82C113.59,55.43,113.56,55.86,113.53,56.3Z"/><path class="cls-3" d="M172.44,18.22l4,3.8s-1.09-2.67-2.27-5.51A8.2,8.2,0,0,1,172.44,18.22Z"/><path class="cls-3" d="M115.66,48.25a51.35,51.35,0,0,1-6.09-3.14,10.36,10.36,0,0,0,.13,2.37,130.45,130.45,0,0,0,30.88,7.86S121.89,51,115.66,48.25Z"/><path class="cls-3" d="M166.56,43.29s-16.18,1.53-26.06-.83a75.48,75.48,0,0,1-10.67-3.38,11.35,11.35,0,0,1-1.47.54,23.17,23.17,0,0,1-8.55.63c7.6,2.61,17.6,5.16,27,5.4C165.35,46.12,166.56,43.29,166.56,43.29Z"/><path class="cls-3" d="M109.89,42.4l18.47,8.09L110.31,40.36C110.18,40.93,110,41.63,109.89,42.4Z"/><path class="cls-3" d="M128.16,58.85a70.51,70.51,0,0,0,9.11,1.92C138.49,60.77,134,59.9,128.16,58.85Z"/><path class="cls-3" d="M152.32,27.8c1.5.45,3,.9,4.39,1.34-1.3-.55-2.64-1.11-3.88-1.65Z"/><path class="cls-3" d="M145.52,36.9l-11.34-6.1a8.36,8.36,0,0,1,.12,2.26Z"/><path class="cls-3" d="M155.6,24.47a5.42,5.42,0,0,1-.59,1c4.37,2.29,9.29,4.91,9.29,4.91Z"/><path class="cls-3" d="M181.57,31.67c-3.94-3-10.59-8.09-14.42-11.55a33.9,33.9,0,0,1-4.4.5c4.95,4.33,10.73,9,14.49,10.49l3.84,1.51Z"/><path class="cls-3" d="M135.49,34.78,134.16,34a6.62,6.62,0,0,1-1.78,3.34c7.31,2.17,19.13,5.26,27.22,4.72C159.6,42.1,141.64,38.2,135.49,34.78Z"/><path class="cls-3" d="M169.48,19.62c4.07,3.06,8.09,6.18,8.09,6.18l-5.81-7.14A9.71,9.71,0,0,1,169.48,19.62Z"/><path class="cls-3" d="M175.71,36.79c-.27-.19-16.55-4.8-25.7-8a24.63,24.63,0,0,1-4.35,1c8.64,3.31,20.26,7,24.06,7C175.71,36.79,176,37,175.71,36.79Z"/><path class="cls-3" d="M156.71,29.14c3.32,1.37,6.44,2.57,7.26,2.57S161.26,30.55,156.71,29.14Z"/><path class="cls-1" d="M176.51,10c-.24-.89-.4-1.43-.4-1.43Z"/><path class="cls-1" d="M113.62,52.92l-.25-.06Z"/><path class="cls-1" d="M133.11,46.55a131.61,131.61,0,0,1-22.55-7.64S134,51.28,141.85,52.07s12.2,2,4.43,3.62c-7.23,1.47-30-2.25-32.66-2.77,2.88.8,28.23,9.23,28.23,9.23l29.57-3.46L186.2,36.16l-3.45-4.1L176.51,10c1.25,4.55,4.72,18.53.84,19.84-4.64,1.58-21.74-9.92-21.74-9.92S173,32.85,170.77,36s-35.39-5.83-35.39-5.83,29.35,8.66,28.27,12.76S144.44,49.08,133.11,46.55Z"/><path class="cls-9" d="M100.41,89.28C101.76,88.83,124.8,85,124.8,85L109.66,72.57Z"/><path class="cls-8" d="M163,36.53a1.36,1.36,0,0,1,0-.35S162.63,36.33,163,36.53Z"/><path class="cls-1" d="M0,94S37,82.7,41.62,84.08s-23.87,35.54-23.87,35.54S29,107.2,33.91,110s-.21,33.22-.21,33.22,6.07-11.49,7.61-12.11S77.37,74.37,77.37,74.37l23-14.79,6.17-5.86-1.49,0S-.62,59.88,1.08,59.88s75.68-2.77,77.22.93S0,94,0,94Z"/><path class="cls-10" d="M113.85,129.7a32.84,32.84,0,0,0-11.95,7.08C103.17,136,109.05,132.51,113.85,129.7Z"/><path class="cls-10" d="M75.15,155.22l-.07-.23S75.1,155.07,75.15,155.22Z"/><path class="cls-10" d="M53.81,137.65l-6.93-4.85A100.25,100.25,0,0,0,55,156.15c6.24,12.95,24.27,13.18,24.27,13.18l-4.09-14.11c-.05-.15-.07-.23-.07-.23l.07.23c.38,1.25,2.6,7.61,9.64,13.41,7.86,6.48,21.27,5.55,21.27,5.55l-2.54-11.09s17.8,20.34,34.91,10.63,50.17-2.54,50.17-2.54-11.33-31.91-42.31-40.92c-14.64-4.26-25.25-3-32.44-.56-4.8,2.81-10.68,6.27-11.95,7.08a.73.73,0,0,1-.23.18c-.06,0,0,0,.23-.18a32.84,32.84,0,0,1,11.95-7.08l6.55-3.84c-21-5.31-37.46,8.56-37.46,8.56l10.87-10.17C71.15,120.55,53.81,137.65,53.81,137.65Z"/><path class="cls-3" d="M87.56,130.09l6.25-5.84-.33,0c-11.63,5.34-27.63,20.54-28.08,20.71-.17.07,5,.33,12,.65a14.53,14.53,0,0,1-1.2-5.27C76,137.53,81.18,133.71,87.56,130.09Z"/><path class="cls-3" d="M77.39,145.56c1,2,2.09,2.13,2.09,2.13l8.27.16a.62.62,0,0,1-.25-.47,3.77,3.77,0,0,1,.37-1.36C84.22,145.87,80.61,145.71,77.39,145.56Z"/><path class="cls-3" d="M115.64,128.64l3.77-2.2c-15.88,2.64-29.16,14.27-31.54,19.58,12.28.53,25,1,25,1s-.52-5.14,6-10.48c3.74-3.09,16.47-5.28,26.56-6.59-1-.28-2-.53-3-.76l-4.81.06c-22.09.2-28.36,10.27-30.52,11.4s-8.32,3.49-2.46-5.24C106.61,132.54,110.86,130.32,115.64,128.64Zm-14,8.32c-.06,0,0,0,.23-.18A.73.73,0,0,1,101.67,137Z"/><path class="cls-3" d="M142.68,140.19c5.2-3.14,13.47-3.07,19.56-2.45L161,137a65.23,65.23,0,0,0-15.38-.27,26.49,26.49,0,0,0-20,11.92l-37.87-.76c4.75,4.46,76.09,10,76.09,10l7.71-3a14.34,14.34,0,0,1,7.85-.32c-.61-.83-1.24-1.68-1.92-2.53-8.27-2.54-13.95,1.91-20.62,1.1-7.71-.92-5.86-4.72,3.49-7.39a30.4,30.4,0,0,1,10.78-.77l-.6-.57c-18.35-4.69-21.29,5.25-29.29,5.45C133,150.05,133.63,145.63,142.68,140.19Z"/><path class="cls-3" d="M81.56,157.41c1.08-.49,1.21-1.19,1.21-1.19A9.86,9.86,0,0,0,81.56,157.41Z"/><path class="cls-3" d="M66.23,153.55l10.76,8-1.25-4.31A81.44,81.44,0,0,1,66.23,153.55Z"/><path class="cls-3" d="M79,157.86a12.23,12.23,0,0,1-3-.54,30,30,0,0,0,4.3,6.81c-1.48-2.72.07-5.28,1.31-6.72A6.23,6.23,0,0,1,79,157.86Z"/><polygon class="cls-3" points="78.09 165.36 77.06 161.81 64.99 157.55 67.87 161.05 78.09 165.36"/><path class="cls-3" d="M142,172a40,40,0,0,1,4.68-1.51c-12.77-5.76-19.46-17.4-19.46-17.87s-3.9,8,6.27,14.18C136.2,168.42,139.15,170.22,142,172Z"/><path class="cls-3" d="M168.67,160.43l-8-3.8c-.41-.21-6,2-2,6.78,1.32,1.58,4.57,3.46,8.31,5.27,2.15.07,4.24.19,6.22.35a79.92,79.92,0,0,1-7.85-4.08C157.57,160.12,168.67,160.43,168.67,160.43Z"/><path class="cls-3" d="M150.79,153.24l-15-1.65s-.82,2.47,3.29,8.63c1.83,2.75,6.93,6.2,12.24,9.32a70.74,70.74,0,0,1,9.12-.85c-5.05-2-9.55-4.33-11.81-6.62C141.85,155.19,150.79,153.24,150.79,153.24Z"/><path class="cls-3" d="M62.12,156.22l-1.72,6.69A24.35,24.35,0,0,0,63.53,165a13.27,13.27,0,0,1,1.36-5.33Z"/><path class="cls-3" d="M113.7,158.89c-3.6.22-3.66,5.72-3,10.61.74.55,1.54,1.1,2.37,1.63-2.56-5.3,2.33-10.89,2.57-11.52C116,158.79,120.27,158.48,113.7,158.89Z"/><path class="cls-3" d="M59.85,149.54s-2.84,2.69-5.49,5.32c.2.43.4.86.61,1.29a18.89,18.89,0,0,0,1.42,2.45A28.76,28.76,0,0,1,59.85,149.54Z"/><path class="cls-3" d="M73.32,165.36l-4.42-2.67s.73,2.5,1.45,5.17A40.1,40.1,0,0,0,75.4,169C74.29,167.07,73.32,165.36,73.32,165.36Z"/><path class="cls-3" d="M88.63,161.77l6.07,11.4c1.26.29,2.5.51,3.67.66C93.53,169.45,88.63,161.77,88.63,161.77Z"/><path class="cls-3" d="M102.91,161.77c-2-1.65-17-7-17.57-6.89s18.19,10.48,18.19,10.48l-11.72-2.67,13.43,7.9-1.72-7.5s.72.82,2,2.06c-1.41-6.58,6.11-10.27,6.11-10.27s1.85-2-6.57-1.44S104.86,163.41,102.91,161.77Z"/><path class="cls-3" d="M83.18,159.4c-1.43,1.32-.65,5,.44,8.22.37.34.76.68,1.17,1a19.06,19.06,0,0,0,3.5,2.27,22.88,22.88,0,0,1-3.05-12.53S86,156.83,83.18,159.4Z"/><path class="cls-11" d="M91.91,124.26c-16.13.31-31.85,13.15-31.77,14.31s-7.48-4.45-7.48-4.45l-4.11,5s-1.95,1.23.1,4.32,8.12,4,12.34,12,16.95,12.94,16.95,12.94-19.83-15.1-14.18-16.54,15.1,3.6,22.4,9.56,18.5,11.81,18.5,11.81S76.5,153.34,88.42,151.8s22.4,6.88,30.21,13.56a37.62,37.62,0,0,0,17.78,7.91s-10.84-4.88-13.41-6.73-6-13.1,12.79-13.1,47.78,13.67,47.78,13.67c-10.38-6.78-35-18.81-46.14-18.81s-13.25-1.54-8.94-8.83,19.22-7.71,19.22-7.71c-21.78-.82-26.1,10.69-38.33,12.43s-22.6,2.16-17.77-6.47,26.71-12.12,26.71-12.12c-11.92-.52-25.89,7.7-31.13,11.3s-17.57,7.71-17.78,0S91.91,124.26,91.91,124.26Z"/><path class="cls-9" d="M86.41,91.42c18.31-2.18,27.37,0,34.55-5,6.66,2.11,14.41,4,20.26,4,12.71-.17,21.69-9.48,26.77-16.09s15.24-30.32,16.43-32.19a23,23,0,0,1,3.22-3.73l-8.81-7.79L152.4,49.69l-6.94-.16s-14.91,5.08-19.82,4.4c0,0-20.64-1.06-27.59-.21a4.51,4.51,0,0,0-.7.13c-6,1.22-44.9,8.87-59.72,44.73-16,38.61,13.18,56.88,47.39,54.56,31.94-2.15,64.49-1.09,73.38,4-4-2.76-15.9-9.73-36.16-11.58-25.43-2.31-52,1.62-63.34-13.87S67,93.73,86.41,91.42Z"/><path class="cls-9" d="M158.4,157.09c1,.71,1.53,1.14,1.53,1.14A6.92,6.92,0,0,0,158.4,157.09Z"/><path class="cls-9" d="M158.4,157.09c1,.71,1.53,1.14,1.53,1.14A6.92,6.92,0,0,0,158.4,157.09Z"/><path class="cls-9" d="M179.18,34.35s-2.12,5.68,1.76,8.12,15.35,3.87,17.47,5.21l3.06-.4.46-.71-.37-.47.92-.08s1.3-4.18.93-4.89-12.95-10.32-15.63-11.66a53.61,53.61,0,0,0-5.08-2.21l-1.39-5.75s-3.7,5.44-3,7.17-.18,5.6-.18,5.6Z"/><path class="cls-12" d="M187.48,35.72A1.49,1.49,0,1,0,186,37.21,1.49,1.49,0,0,0,187.48,35.72Z"/><path class="cls-1" d="M202.22,46l.26,0s1.3-4.18.93-4.89c-.28-.52-7.26-5.94-11.95-9.26l-2.62.87c.28,0,7,6.68,8.26,7.6s1.11-.55,1.11-.55l2.23,2.13-.65,3.53Z"/><path class="cls-13" d="M192.16,33.79a2,2,0,0,0-.31-.54S192,33.46,192.16,33.79Z"/><path class="cls-2" d="M196.59,29.49s-.19-3.85-3.16-4.87a13,13,0,0,0-5.57-.65s-1.11-2.18-4.68-2.32-6.68,5.24-6.78,5.93,3.07-.18,3.07-.18l3.23-.14s3.77,3.11,2.38,5a3.06,3.06,0,0,1-3.48,1.11s2.55,1.44,4.55-.18,1.34-2.55,1.34-2.55,2.18,3-.28,4-3.1,1.9-3,3.71c0,0,.65-2.27,5.11-2.51,3.08-.16,3.1-1.34,2.81-2.05-.2-.33-.31-.54-.31-.54a2,2,0,0,1,.31.54c.55.88,1.77,2.54,3.36,2.84,2.18.42,2.46.1,2.46.1s1.67-1.81-1.3-6-4.87-4.36-4.87-4.36S195.38,26.52,196.59,29.49Z"/><path class="cls-3" d="M196.59,29.49s-.19-3.85-3.16-4.87a13,13,0,0,0-5.57-.65s-1.11-2.18-4.68-2.32a3.89,3.89,0,0,0-1.61.29c1.3.6,5.65,3.06,5.6,5.1,0,0,5.86,1.18,7,3.65L191.37,30l0,.07c1.09.56,5.87,3.11,6,4.61.13,1.08-1.67.13-3-.65a9.37,9.37,0,0,0,3.83,2.2c.3-.81.46-2.56-1.59-5.45-3-4.18-4.87-4.36-4.87-4.36S195.38,26.52,196.59,29.49Z"/><path class="cls-1" d="M168,74.26c3.8-5,10.45-19.47,14-27.25l-.16-.36L164.26,72.56l3.9-1L153.49,87.17C159.89,83.83,164.74,78.49,168,74.26Z"/><path class="cls-9" d="M201.37,42.88c0-.32-.12-.59-.26-.59s-.26.27-.26.59.12.6.26.6S201.37,43.21,201.37,42.88Z"/><path class="cls-9" d="M183.39,30.86l-1.9-10.06c-4.13,1.11-3.68,10.9-3.68,11.08l.74,4Z"/><path class="cls-14" d="M197.83,36a3.81,3.81,0,0,0,.44.15c.3-.81.46-2.56-1.59-5.45a13.09,13.09,0,0,0-4-4l-.42,0c-3.62,0-3.35.47-3.35.47s5.93,1.23,6.35,4.43c0,0,4.51,1.85,2.59,4.43Z"/><path class="cls-14" d="M194.33,27.08a4.7,4.7,0,0,1,2.26,2.41A3.89,3.89,0,0,0,194.33,27.08Z"/><path class="cls-14" d="M196.1,27.39a4.49,4.49,0,0,0-2.67-2.77,13,13,0,0,0-5.57-.65s-1.11-2.18-4.68-2.32a4,4,0,0,0-1.37.2c2.61.6,5.59,1.74,5.86,3.81C187.67,25.66,193.39,23.85,196.1,27.39Z"/><path class="cls-3" d="M179.78,30.87l.41-1.51.75.85a11.46,11.46,0,0,1,.12-7.63S178.37,27.55,179.78,30.87Z"/><path class="cls-6" d="M145.46,49.53s-14.91,5.08-19.82,4.4c0,0-20.64-1.06-27.59-.21a4.51,4.51,0,0,0-.7.13c-6,1.22-44.9,8.87-59.72,44.73-16,38.61,13.18,56.88,47.39,54.56,8.52-.57,17.08-.92,25.22-1a14.16,14.16,0,0,0-6.61-3.51c-8-1.85-19.32,3.09-21.17-.2s-10.07-1.13-15.72-1.34-7.91-5.34-8.53-10-2.16-3.9-7.91-8-.41-7.4-.52-7.81-.51-3.9,3.09-9.56-2.57-10.27-2.57-10.27A51.43,51.43,0,0,0,58.8,97c4.16-2.77.46-8.94.46-8.94a5.82,5.82,0,0,0,5.48.93,3.25,3.25,0,0,0,2.54-4s2.46,4.24,5.86,2.08.15-6,.15-6a12.28,12.28,0,0,1-6.4-2.23c-2.54-2.09,3.32-6.79,9.64-6.4s6.86,11.4,6.86,11.4,1.54-1.69,1.07-1.84,4-5.25,6.48-5.09a14.18,14.18,0,0,0,4.16-.31S91.71,75,96.18,71.91,122.25,65,122.25,65s-.24,8.56.92,9.71,9,3.24,9,3.24S129,74,129,71.69s.75-8.06.75-8.06,2.25,9,7.8,10.83,11.33,3.47,11.33,3.47-4.62-6.93-6.21-9.25c-1-1.44,2.45-11.6,5.19-19.1Z"/><path class="cls-6" d="M74.55,80.08c1.08,0,.31-5.3-1.29-5.76s-5.13,1.65-4.77,3S74.55,80.08,74.55,80.08Z"/><path class="cls-6" d="M80.51,78.12c-.16-1.85-2.57-4.83-4.21-2.93s2.36,4.17,2.36,4.17S80.66,80,80.51,78.12Z"/><path class="cls-6" d="M78.3,83.52c1.49-.52.82-2.88-1.39-3.29-1.7-.32-1.69,1.19-1.6,1.9,0,.22.06.36.06.36Z"/><path class="cls-6" d="M69.51,92.35c1.39.16,1.9-1.07,2.68-2.51s-2-2-3.65-1.75-1,2.83-1,2.83A2.72,2.72,0,0,0,69.51,92.35Z"/><path class="cls-6" d="M66.89,94.49c1.62-.52.72-1.34-.13-3s-2.54-1.08-4.7-.64S61.63,94,61.63,94C61.58,95.18,65.28,95,66.89,94.49Z"/><path class="cls-6" d="M71.44,94.8c.82-.18-.36-1.75-1.8-1.75s-.77,1.64-.77,1.64C68.9,95,70.62,95,71.44,94.8Z"/><path class="cls-6" d="M63.4,98.88c2-.39,1.59-3.29.49-3.47s-3.19,2.13-3.55,2.42C59.42,98.57,61.37,99.26,63.4,98.88Z"/><path class="cls-6" d="M56.21,104.22c1.38-.1,4.06-2.23,2.39-4s-4.27-.08-5.94,1.31,1.7,2.33,1.7,2.33S54.82,104.33,56.21,104.22Z"/><path class="cls-6" d="M57.44,106.53c.62-1.46-1.18-1.84-2.44-1.43s-.3,2.24-.26,2.36C55.08,108.41,56.82,108,57.44,106.53Z"/><path class="cls-6" d="M59.85,105.25c.78-.46,0-1.62-1.54-1.13s.23,1.31.23,1.31A1.4,1.4,0,0,0,59.85,105.25Z"/><path class="cls-6" d="M61.34,101.22c.52-.57.47-1.62.26-1.52,0,0-2-.44-2.28.44S60.83,101.78,61.34,101.22Z"/><path class="cls-6" d="M59,98.55c1.08-1.52-.23-3.19-.65-3.09l-2.51,1.85S57.93,100.06,59,98.55Z"/><path class="cls-6" d="M53.84,116.94a4.81,4.81,0,0,0,.9-3.24,1,1,0,0,0-1-.77l-.06-.26a4.43,4.43,0,0,0-2.15,3.06C51.35,117.66,53.23,117.86,53.84,116.94Z"/><path class="cls-6" d="M53.1,120.89a1.62,1.62,0,0,0-2.47-2c-1.44,1,0,2.92,0,3C50.66,122.87,52.43,122.74,53.1,120.89Z"/><path class="cls-6" d="M50.12,127.11a6.28,6.28,0,0,0,1.77,1c1.23.49.87-1.44.36-2.91s-2.47-2.85-3.31-.38,1,2.52,1,2.52Z"/><path class="cls-6" d="M55.54,131.48l1.33.74c.21,0-.46-1.82-1.59-2.62s-3-1.1-2.44.08S55.44,131.43,55.54,131.48Z"/><path class="cls-6" d="M66.07,145.12c2.6-.59-5.32-7.07-6-4.86s2.62,4.11,2.57,4.24l-.18.47S63.48,145.71,66.07,145.12Z"/><path class="cls-6" d="M70.16,145.61A3.62,3.62,0,0,0,66,148.15l5.47,2S73.57,146.07,70.16,145.61Z"/><path class="cls-6" d="M76.06,145.74c1-.13-.43-1.62-.43-1.62l-.93-.21s-2.8-1.23-2.85.28S75.11,145.86,76.06,145.74Z"/><path class="cls-6" d="M70.62,145.15l.77-1.42c-.46-.46-3.37-1.33-4,.08S70.62,145.15,70.62,145.15Z"/><path class="cls-6" d="M59.06,135.05l-.16,1.16s-.33,2.15,1.24,2.36S59.06,135.05,59.06,135.05Z"/><path class="cls-6" d="M95.05,150.57c0-.16-.9-3.83-2.34-3.65s-3,4.13-3.31,4.11-.54-3.55-3.09-3.34-1.87,4.11-1.9,4.26Z"/><path class="cls-6" d="M91.55,146.79l-1.23-.87s-3.42-.16-2.18,1S91.55,146.79,91.55,146.79Z"/><path class="cls-6" d="M102.19,147.33l-.93-1c-.07,0-6-.51-5.6.49S102.19,147.33,102.19,147.33Z"/><path class="cls-6" d="M113.6,148.69s-5.07-.64-5,.46,5.24,1.57,5.24,1.57Z"/><path class="cls-6" d="M120,151.1l.23-.23s1.7-.33,2-.82-2.67-1.15-4.85-1.57-2.11,2.09-.49,2.6A5.67,5.67,0,0,0,120,151.1Z"/><path class="cls-6" d="M117.76,69.49l1.44-1.8s-9.1.31-12.44,2.93,3.86,4.78,8.79,4S115.34,70.52,117.76,69.49Z"/><path class="cls-6" d="M126.85,77.92l-5.24-3.29s-7.19.46-2.67,2.67A9.63,9.63,0,0,0,126.85,77.92Z"/><path class="cls-6" d="M101.32,74.63l.51-.77s5.75-2.52,1.39-1.59S92.38,74.63,97.57,77s9.3,1.44,12.17,1.08-.51-2.67-2.52-2.88S100.24,75.3,101.32,74.63Z"/><path class="cls-6" d="M96.33,83.36c3.44-.41,3.14-3.7-1.59-4.41s-7.09,3.59-7.09,3.59l-2,2.36C85.08,85.21,92.89,83.77,96.33,83.36Z"/><path class="cls-6" d="M107.69,80.59c-2.37-2-6.37.62-6.94.87,0,0-1.44,1.13,0,1.75S110.05,82.59,107.69,80.59Z"/><path class="cls-6" d="M111.08,79.72c.1,2.36,6.42.36,6.57-.52.09-.49-.36-.8-.77-1C116.29,78.14,111,77.48,111.08,79.72Z"/><path class="cls-6" d="M116.79,78.18a3.59,3.59,0,0,0-.52-.16Z"/><path class="cls-6" d="M116.94,78.23l-.15,0,.09,0Z"/><path class="cls-6" d="M148.89,57.42c-3.39,1.46-3.54,8.48-3.54,8.48s-.31,2.46,1.77,2.85S152.28,56,148.89,57.42Z"/><path class="cls-6" d="M156.37,54.1c1.62-1.38,3.23-4.47,1.15-3.54-1.63.73-8.4.38-8.63,3S154.75,55.49,156.37,54.1Z"/><path class="cls-6" d="M155.29,56.8c-2.93.77-4.78,1.62-3.7,3.39s3.93.23,4.08-.69l-1-1.62S158.22,56,155.29,56.8Z"/><path class="cls-3" d="M166,38.77s4.16,1.39,3.44,4.72a29.6,29.6,0,0,1-.71,3l14-5.23s-3.24-4.11-2.21-7.35l-9.35-10.23s1.8,4-.16,6.12a11.7,11.7,0,0,1-2.72,2.52,2.57,2.57,0,0,1,.62,3.59A8.73,8.73,0,0,1,166,38.77Z"/><path class="cls-3" d="M168.68,46.52h0S168.67,46.55,168.68,46.52Z"/><path class="cls-3" d="M166,38.77s4.16,1.39,3.44,4.72a20.84,20.84,0,0,1-.63,2.55l14.35-4.29s-3.7-4.57-2.67-7.81l-9.35-10.23s1.8,4-.16,6.12a11.7,11.7,0,0,1-2.72,2.52,2.57,2.57,0,0,1,.62,3.59A8.73,8.73,0,0,1,166,38.77Z"/><path class="cls-3" d="M168.76,46l-.09,0S168.67,46.25,168.76,46Z"/><path class="cls-9" d="M179.77,38.72c.55,1.17-8,6.15-11.34,8l15.33-5.09s-4.2-5.22-3.17-8.45l-7.75-7.54c2.79,3.17,6.35,7.59,5.08,8.31-2,1.13-9.71-1.59-9.71-1.59l9.92,4.16L166,38.77S179.05,37.18,179.77,38.72Z"/><path class="cls-9" d="M149.25,91.12c1.95-1.12,18.33-2.45,18.33-2.45s1.6-.55.27-4-18.41-5-18.67-5.06-16.71,3.42-18.37,3.78l4.08,5.17C139.15,91.49,147.3,92.24,149.25,91.12Z"/><path class="cls-7" d="M154.11,127.39c3.41-3.25,1-10.75,1-10.75l-2.23-4.16c-.25.19-10.51,7.41-10.78,8.15s1,13.05.49,14.46C142.57,135.09,150.7,130.64,154.11,127.39Z"/><path class="cls-9" d="M139.24,111.58c6.7-2.27,13.62-1,20,1.58.08-.27.14-.55.2-.84l.43-2.45a6.1,6.1,0,0,0,2.26-4.13,19.72,19.72,0,0,0-.14-4.49,16.45,16.45,0,0,0,2.59-2.44c1.05-1.39,1.87-6.61,2-7.2l.18-.22c.27-1.75,2.24-3.57,1.68-5.83-.25-1.4-2.45-2-3.46-1.81-.25.08-.53.15-.81.22L159.46,94.8a22.17,22.17,0,0,0-1.52,2,5.1,5.1,0,0,0-.81,2.37c-2.21-.58-6.48-1.21-7.72.76a6.89,6.89,0,0,1-4.75,2.9l3.5.58c-.42-.06-3.27-.43-4.54,1.6a20.64,20.64,0,0,1-2.71,3.5,14.2,14.2,0,0,1,2.85-.59C144.65,107.91,141,109.51,139.24,111.58Z"/><path class="cls-8" d="M162,101.25c.36-.29.75-.61,1.13-1l-.06-.06Z"/><path class="cls-8" d="M138.69,112.37s4.06-3,4.78-.49-3.61,1.76-3.88,3.77a3.11,3.11,0,0,0,.72,2.84s1.15-3.73,4.06-.52c-.37,1-.72,2.1-1,2.84,3.11-1.65,7.22-3.67,8.46-3.55s2.38,2.9,3,5a6.06,6.06,0,0,0,2.35-1.84,4.68,4.68,0,0,0,.4-3.77,11.44,11.44,0,0,0,1.82-4.3l.43-2.45a6.1,6.1,0,0,0,2.26-4.13,19.72,19.72,0,0,0-.14-4.49s0,2.2-1.52,1.79c-1-.27-2.5-2.57-3.34-4,0,.07,0,.13,0,.18-2.21-.58-6.48-1.21-7.72.76a6.89,6.89,0,0,1-4.75,2.9l3.5.58c-.42-.06-3.27-.43-4.54,1.6a20.64,20.64,0,0,1-2.71,3.5,14.2,14.2,0,0,1,2.85-.59C144.76,107.9,140,109.93,138.69,112.37Z"/><path class="cls-2" d="M152.23,114.37c-1.63-.54-3.33,1.93-4.34,4.2a11.43,11.43,0,0,1,4-1.31c1.3.12,2.38,2.9,3,5a6.06,6.06,0,0,0,2.35-1.84,4.68,4.68,0,0,0,.4-3.77,11.44,11.44,0,0,0,1.82-4.3l.43-2.45a6.1,6.1,0,0,0,2.26-4.13,19.72,19.72,0,0,0-.14-4.49s0,2.2-1.52,1.79a4.78,4.78,0,0,1-1.93-1.83L153,106l3.37.25s-2.56,3.58-5.06,2.94-3.34,3.19-3.34,3.19.9-2.43,4.07-.55,4.49.11,4.49.11S155.06,115.31,152.23,114.37Z"/><path class="cls-3" d="M75.06,112.75c0,3.91,4.73,7.5,4.73,7.5s19.21-6.16,24.66-13,7-23.53,6.89-24c0,0-2.68,1.44-12,1.23S82.77,85,81,87s-.51,7.91-.51,7.91-4.11,2.16-4,4.52,2.36,8,2.36,8S75.06,108.85,75.06,112.75Z"/><path class="cls-9" d="M76.87,108.71l0,0a21.71,21.71,0,0,0,5.43.6A30.87,30.87,0,0,1,76.87,108.71Z"/><path class="cls-9" d="M78,118.56l.15.16c5.2-1.63,14.71-5,21.61-9.46,6.51-4.23,9.73-14.93,11.18-21.85a38,38,0,0,0,.44-4.25s-2.49,1.34-11.06,1.25l-.25.08s-.2,4.11-5.86,9.35c-4,3.67-12.57,4.32-17.4,4.38a3.13,3.13,0,0,0-.24.71,32.53,32.53,0,0,0,12.1.16C96.13,97.54,103,87.88,103,87.88a39.25,39.25,0,0,1-8.94,16.34,15.65,15.65,0,0,1-11.8,5.11,33.11,33.11,0,0,0,8.72-.89c8.53-2.06,15.1-20.25,15.21-21.17a41.81,41.81,0,0,1-3.91,16.34C99.26,110,84.81,116,78,118.56Z"/><path class="cls-3" d="M60,155.74c-.2-2.27-4.84-7.82-11.55-14.36s-7.84-9.19-7.84-9.19c-.34.19-8.06,10-7.85,17.52s10.5,24.38,10.5,24.38,5.24,1.48,7.31-.57.14-5.51.14-5.51,4.58-1.36,5.91-2.53-.44-5.22-.44-5.22S60.24,158,60,155.74Z"/><path class="cls-6" d="M51.47,170.11a40.52,40.52,0,0,1-4.14-3.51,29,29,0,0,0,4.15,3.54Z"/><path class="cls-6" d="M47.8,140.7c-6.1-6-7.15-8.51-7.15-8.51a20.8,20.8,0,0,0-1.94,2.53c-2.64,4.67-6,12.58-3.66,19.43,2.5,7.26,7.44,15.78,10.24,20.33l.2,0C42,168.3,35,154.86,36.22,149.35A24.37,24.37,0,0,1,42.11,138c-.42.56-5.4,14.78-.46,21.93a44.25,44.25,0,0,0,5.68,6.67c-2.56-2.64-5.21-6.43-5.63-11.08C40.86,146.2,44,140.59,44,140.59s-.25,10,4.23,16.11a43.22,43.22,0,0,0,8.62,8.51,1.84,1.84,0,0,0,.21-.54c-3.38-3.47-9.12-9.94-10-14.67-1.21-6.77.81-9.08.81-9.08Z"/><path class="cls-3" d="M14.24,160.21s3.7,3.67,5.48,4.24,4.61-3.75,4.61-3.75,4.23,2.55,6.22.92,4.68-9.75,7.18-20.54,4.37-13.59,4.37-13.59c-.36-.21-13.58-1.61-20.42,3.35s-17,25.86-17,25.86,1.42,6.12,4.41,6.86S14.24,160.21,14.24,160.21Z"/><path class="cls-6" d="M12.65,162.29l0,0a52.94,52.94,0,0,1,1.05-6.33A38.23,38.23,0,0,0,12.65,162.29Z"/><path class="cls-6" d="M23.41,150.57a57,57,0,0,0-3.32,13.93,1.54,1.54,0,0,0,.61-.14c1.42-5.54,4.37-15.33,8.31-19.17,5.63-5.5,8.85-5,8.85-5L38,140c2.37-9.87,4.1-12.48,4.1-12.48a20.19,20.19,0,0,0-3.38-.31c-5.73.35-14.87,2-20,8.7-5.41,7.08-10.69,17.37-13.42,23a1.8,1.8,0,0,0,.08.21c3.91-7.39,12.65-22.86,18.41-25.13,7.61-3,14.39-1.33,13.65-1.38s-16.57,4-20.58,13.46a58.47,58.47,0,0,0-3.17,9.85c1.09-4.2,3.2-9.24,7.28-12.6,8.21-6.74,15.09-7.17,15.09-7.17S26.73,142.24,23.41,150.57Z"/></g></g></svg>