<svg xmlns="http://www.w3.org/2000/svg" viewBox="0 0 237.88 148.7"><defs><style>.cls-1{fill:#004947;}.cls-2{fill:#0a8783;}.cls-20,.cls-3{fill:#c1ff00;}.cls-4{fill:#0a6466;}.cls-5{fill:#c8ceb7;}.cls-6{fill:#84a09d;}.cls-7{fill:#d5d8ce;}.cls-8{fill:#a9bfbd;}.cls-9{fill:#e6efee;}.cls-10{fill:#5ed1d3;}.cls-11{fill:#29a1aa;}.cls-12{fill:#054949;}.cls-13{fill:#03514f;}.cls-14{opacity:0.6;}.cls-15{fill:#769105;}.cls-16{fill:#7c3a82;}.cls-17{fill:#9cff00;}.cls-18{opacity:0.64;}.cls-19{fill:#edff85;}.cls-20{opacity:0.39;}</style></defs><g id="Layer_2" data-name="Layer 2"><g id="Capa_1" data-name="Capa 1"><path class="cls-1" d="M169,108.88l5.4,1.89a142.52,142.52,0,0,1,2.69-17.92c1.88-7.94,3.25-41.2,3.25-41.2l-5.81,2.55-1.28,19Z"/><path class="cls-1" d="M170.09,50.1s-.29,2.51-.71,6.35l5.11-2.25.41-6.06Z"/><path class="cls-1" d="M150.88,98.08c3.5,8.1,7.55,2.7,13.76,4.32s1.89-1.08,1.61-8.74c-.21-5.64,2-26.55,3.13-37.21L142.24,68.38C142.51,72.43,147.37,90,150.88,98.08Z"/><path class="cls-1" d="M44.2,123.46c.07-1.83-3.07-6.71-7.75-12.6s-5.31-8.11-5.31-8.11c-.3.13-7.43,7.18-8,13.16S29,136.38,29,136.38s4,1.7,5.87.28.67-4.37.67-4.37,3.78-.62,5-1.42.18-4.2.18-4.2S44.13,125.28,44.2,123.46Z"/><path class="cls-2" d="M35.93,134A31.4,31.4,0,0,1,33,130.82a23.41,23.41,0,0,0,2.94,3.24Z"/><path class="cls-3" d="M36.05,110.44l-.08-.18c-4.25-5.43-4.83-7.51-4.83-7.51a17.54,17.54,0,0,0-1.81,1.83c-2.56,3.45-6.06,9.41-4.87,15.09,1.26,6,4.34,13.31,6.11,17.22l.16,0c-2.15-5.29-6.38-16.7-4.85-21a19.6,19.6,0,0,1,5.83-8.44c-.39.4-5.78,11.22-2.58,17.41A35,35,0,0,0,33,130.82a14.94,14.94,0,0,1-3.37-9.38c.27-7.51,3.36-11.66,3.36-11.66s-1.2,7.91,1.74,13.25a34.63,34.63,0,0,0,6,7.65,1.78,1.78,0,0,0,.22-.41c-2.34-3.1-6.26-8.83-6.46-12.68C34.2,112.07,36.05,110.44,36.05,110.44Z"/><path class="cls-1" d="M7.29,122.4s2.57,3.3,3.93,3.93,4-2.52,4-2.52,3.11,2.46,4.86,1.36,4.71-7.29,7.79-15.63,4.85-10.38,4.85-10.38c-.27-.2-10.66-2.65-16.6.61S0,118.64,0,118.64s.51,5,2.82,5.91S7.29,122.4,7.29,122.4Z"/><path class="cls-2" d="M5.81,123.89h0A40.74,40.74,0,0,1,7.31,119,32.08,32.08,0,0,0,5.81,123.89Z"/><path class="cls-3" d="M15.56,115.65a45.65,45.65,0,0,0-4.05,10.76,1.73,1.73,0,0,0,.5,0c1.69-4.27,5-11.76,8.55-14.43,5-3.81,7.54-3.05,7.54-3.05l.14-.2c2.88-7.62,4.53-9.52,4.53-9.52a17.12,17.12,0,0,0-2.67-.59c-4.6-.29-12,.12-16.76,4.92-5,5.09-10.26,12.75-13,17l0,.17c3.85-5.48,12.37-16.92,17.18-18.15a19.29,19.29,0,0,1,11,.28c-.58-.12-13.6,1.55-17.74,8.64A46.33,46.33,0,0,0,7.31,119c1.29-3.24,3.48-7,7.07-9.3,7.21-4.54,12.74-4.19,12.74-4.19S19,109.35,15.56,115.65Z"/><path class="cls-4" d="M173,46.92l24.6,12.72,3.12-14.28-6.6,2.4,2-7.92s-4.44,2.64-4.08,2.28-2.16-12.84-2.16-13.2-1.44,8-1.44,8L183.17,25.2l-.84,8.4S175,30.36,175,25.32,181.79,7.21,198.11,12s16.55,15.71,16.55,15.71-3.36,8.94-2.28,11.46,2.94,2.58,9.42-.3-.6-11.64-.6-12S218.32,3.25,195.29.25c-18.16-2.37-44.95,12.85-55.44,20l10,18.27Z"/><path class="cls-4" d="M139.85,20.25l-4.56-8.36.4,11.49A38,38,0,0,1,139.85,20.25Z"/><path class="cls-4" d="M127.37,31.92l.84-.85C127.7,31.5,127.37,31.81,127.37,31.92Z"/><path class="cls-4" d="M128.21,31.07c2.12-1.73,7.56-5.39,7.56-5.39l-.08-2.3c-.19.19-.28.32-.28.38Z"/><path class="cls-1" d="M213.45,9.71A28,28,0,0,0,195.29.25c-18.16-2.37-44.95,12.85-55.44,20L144,27.84c.24.09.46.18.66.24,1.8.6,19.68,1,19.92-.12s4.8-10.32,4.8-10.32-5.88,2.16-6,1.56S170.21,13,170.21,13l-6.48,2.51a42.08,42.08,0,0,1,21.6-9.95C193.87,4.29,205.82,7.36,213.45,9.71Z"/><path class="cls-1" d="M139.85,20.25l-2.49-4.57a16.49,16.49,0,0,0-1.86,2.16l.16,4.55a5.75,5.75,0,0,0,.64.46C137.05,22.23,138.27,21.33,139.85,20.25Z"/><path class="cls-4" d="M136.47,28.51l20.78,5.21L146.63,17.07s-.36,2.34-6.57,2.07-11.51-6.92-11.51-6.92,2.52,15.38,2.07,15.56Z"/><path class="cls-4" d="M72.92,33.41c-8.42,1.39-18.16-4-18.12-3s-4.57,9.5.06,12.78-7,10.41,11,19.33,39.87,4.06,39.87,4.06L126.58,34.8l8.87-13-9.66-14s0,9.67-8.85,10.51-13.6-1.56-13.6-1.56,4.07,12.64-23.4,7.69C79.94,24.48,81.34,32,72.92,33.41Z"/><path class="cls-3" d="M76.88,41.12A136.23,136.23,0,0,1,54.8,30.38S77.15,46.07,85.11,47.89s12.2,3.68,4,4.28c-7.58.57-30.36-6.18-33-7.06C59,46.3,83.8,58.21,83.8,58.21l30.7.28,18-21.13-3-4.64L126,9.35c.69,4.82,2.43,19.57-1.71,20.41-5,1-21-13-21-13S119.5,32.27,116.77,35.2,81.32,24.65,81.32,24.65s28.9,12.67,27.27,16.72S88.14,45.17,76.88,41.12Z"/><path class="cls-5" d="M147.89,87.18l6.57,13.76c.36-.09,22,7.65,22,8.28S189,114.53,189,114.53s8.55-3.51,9.27-4.23,3-7.2,3-7.2l-5,3.78,2.52-3.78c2.52-3.78,1.44-9.26,1.44-9.26A25.09,25.09,0,0,1,199.1,98a23.5,23.5,0,0,1-3,4.13,7,7,0,0,1-1.19,1.36s.51-.57,1.19-1.36c3.09-4.5,1.39-11.92,1.15-10.78s-2.43,8.27-2.43,8.27l-.72-7S193,99.86,192.44,101s-.36-6.47-.36-6.83-.45-6.93-.45-6.93-.54,3.69-.9,5.76-.45,8.81-.45,8.81-.63-10.16-.81-11.24,0,1.53-.72,3.6-1.62,9.44-1.62,9.44v-3.33c0-2.25-1.26-13-1.26-13l-.9,6.48L184,85s-.54,5.49-.63,5.76-.72,8.54-.72,8.54-.45-3.32-.63-5.39-1.17-8.1-1.17-8.1l-1.62,10.7-.36-4.85L176.51,99s.45-3.95.54-6.11S175.79,83,175.79,83l-2.25,14.24a42.75,42.75,0,0,0-.27-5c-.27-1.53-.72-6.12-1.08-4.41s-1.44,8.81-1.44,8.81l-.63-4.94-1.71,3.15s.36-4,.36-6.66-.36-2.88-.36-2.88c-.72,2.43-2.16,8.37-2.16,8.37l-.72-2.79-1.8,3.87.45-9.72-3,7.83.27-4.5L159,92.58l2.25-9.81-3.6,7.65.81-9.63-4.23,7.92,1.17-9-3.24,7.11.27-8Z"/><path class="cls-5" d="M196.06,102.1c-.68.79-1.19,1.36-1.19,1.36A7,7,0,0,0,196.06,102.1Z"/><path class="cls-6" d="M168.41,94.83a.24.24,0,0,0,0,.07l0-.1Z"/><path class="cls-6" d="M170.75,96.62a.13.13,0,0,0,0-.05Z"/><path class="cls-6" d="M152.48,89.88l-1.66,3.44,3.64,7.62c.2,0,6.85,2.28,12.79,4.49.76.11,1.59.26,2.51.46,4.05.9,8.62,3.5,13.08,6.24,3.1,1.24,6.18,2.4,6.18,2.4s3.49-1.43,6.2-2.66c.29-1.08.55-1.93.55-1.93a22.61,22.61,0,0,1-3.33.81c-.36-.09,2.43-3.06,2.43-3.06a32.36,32.36,0,0,1-3.6,2c-.36,0,1-2.34,1.62-3.69s-3,2.52-3,2.52l1.35-4.23s-3.78,4-4.14,4.32.36-3.51.36-4.23-1.53,3.6-1.8,3.51,0-5,0-5-1.08,4-1.35,4.14-.81-5.13-.81-5.49-.45,4-1.17,5-.9-6.66-.9-6.66-.9,4.59-1.53,5-.45-5.31-.45-5.31-.63,4.68-1.44,4.77S178,99.5,178,99.5s-2.43,4.77-2.79,4.68-.27-4-.27-4l-2.25,4,.54-5.49s-2.7,3.6-3.06,3.6.45-5.22.63-5.76v0c-.19.13-2,3.15-2.6,3.64s0-4.6.24-5.32c-.24.57-1.63,3.7-1.86,4.24s-.09-2.34-.09-2.34S165,99.68,164,100.31s-.45-4.4-.45-4.4-1,3.32-1.71,3.59-1.26-5-1.26-5-.54,3-1.26,3.14S157.88,93,157.88,93s-1.08,2.52-2.16,2.7-.09-5.94-.09-5.94Z"/><path class="cls-7" d="M170.45,71.52v.34C170.46,71.64,170.45,71.52,170.45,71.52Z"/><path class="cls-7" d="M161.69,80.07l-.12.09A.41.41,0,0,0,161.69,80.07Z"/><path class="cls-7" d="M205.12,78.84s-2.15-7.68-4.43-11.76-3-8.16-4.68-8.64-3.36-.6-12.36-1.68-24.6-.6-24.6-.6l-9.24,11,3.48,8.52L154.37,70l1.44,8,2.76-8.52s1.32,6.24.72,9.6a7.37,7.37,0,0,0,2.76-4.56,30.26,30.26,0,0,0,.6-5.16,76,76,0,0,1,0,7.68c-.18,2.1-.71,2.81-1,3A12.83,12.83,0,0,0,165.41,76c1.08-2.28,1.2-6.6,1.2-6.6a53.11,53.11,0,0,1-.12,8.64c-.48,2.88-2.16,3.6-2.16,3.6s2.52,1.08,4.44-3a16.29,16.29,0,0,0,1.69-6.74v-.34s0,.12,0,.34l.23,8.42,2.52-7.08,1.2,5.28,1-6.12a60.78,60.78,0,0,1,1,10.92,7.33,7.33,0,0,0,2.28-3.72,38.76,38.76,0,0,0,.6-7s2,8.64.24,13a11.48,11.48,0,0,0,3.48-8l.12-5.16s1.2,7.56,1.56,7.68,1.68-6.72,1.68-6.72l1.92,7.8V74.28s1.32,4.32,1.8,7a11.85,11.85,0,0,1-.12,4.8s2.16-4.08,2.16-6.12a35,35,0,0,0-.6-5.16l3.24,7L194.21,75a36.71,36.71,0,0,1,2.64,5c.24,1.08.72,4.2.72,4.2s1.56-5.4,1.32-6.84a10.28,10.28,0,0,0-1.12-2.75l-.56-1s.25.4.56,1l3.76,6.47s-.84-6.36-.84-7.8V71.88Z"/><path class="cls-7" d="M197.77,74.65c-.31-.57-.56-1-.56-1Z"/><path class="cls-8" d="M201.44,68.56c-.25-.53-.5-1-.75-1.48-2.28-4.08-3-8.16-4.68-8.64s-3.32-.6-12-1.64c-7.95.42-17,1.55-21.24,3.38-1.89.82-3.56-.6-4.88-2.6l-5.27,6.3a.5.5,0,0,1,.43,0c1.08.45,1.35,5.22,1.35,5.22s1.44-5,2.43-5.58,2,5,2,5-.27-4.14.9-5.31,1.8,4.41,1.8,4.41,1.17-6.48,1.8-6.48,3.33,8.19,3.33,8.19,1.08-6.48,1.53-6.66S169.4,70,169.4,70s2.79-5.67,2.88-6.12,1.17,6.48,1.17,6.48l1.53-5,.25,5c0-1.19-.06-4.62,1.28-4.54s1.82,4.89,1.88,5.86c0-.94-.22-5.44.91-5.68s3,5.76,3,5.76v-6l3.06,5.76s-.36-4.68.81-4.77,2.52,6.12,2.52,6.12l.72-5.49,2.43,5.31s-1.08-4-.18-4.23S193.88,73,193.88,73s0-5,1.17-4.41,3.06,4.77,3.06,4.77l-.9-4.32,2.16,1.62S199.7,67.92,201.44,68.56Z"/><path class="cls-8" d="M175.25,70.71l0-.41C175.24,70.55,175.25,70.71,175.25,70.71Z"/><path class="cls-8" d="M178.4,71.79s0-.06,0-.17A1.33,1.33,0,0,0,178.4,71.79Z"/><path class="cls-8" d="M151.31,66.64v0Z"/><path class="cls-8" d="M151.31,66.64a9.31,9.31,0,0,1,.67-2l-.34.4Z"/><path class="cls-3" d="M87.45,43.46l36.12,14S111.86,38.1,107.7,33.07,94.55,7.77,94.55,7.77s-5.52,2.76-7,6.28L86,17.56S82,19.91,81.53,23l-.47,3.11s-4.82,4.31-3,8.9S87.45,43.46,87.45,43.46Z"/><path class="cls-4" d="M84.19,41.49a3.39,3.39,0,0,0,1.72-.43c3.15-2,25.61,8.29,25.61,8.29l2.92,3.14s8.1,6.3-8.1-17.57a87.23,87.23,0,0,1-11.29-26l-.5-1.11s-5.52,2.76-7,6.28L86,17.56S82,19.91,81.53,23l-.47,3.11s-4.82,4.31-3,8.9C79.08,37.59,81.9,39.93,84.19,41.49Z"/><path class="cls-1" d="M87.88,13.35c1.67,4.53,5.17,13.27,8.75,17.84,4.64,5.91,15.25,18.41,16.64,20.05l.08.08c-1.09-1.39-13.41-17.25-18.46-29.22-2.65-6.3-3.14-10.3-3-12.73A14.14,14.14,0,0,0,87.88,13.35Z"/><path class="cls-1" d="M89.38,34.53a50.09,50.09,0,0,1-7.75-12c0,.15-.07.29-.1.44l-.47,3.11c3.3,6.28,12.47,13.8,12.47,13.8S96,42,89.38,34.53Z"/><path class="cls-1" d="M110,48.67c-1.68-1.69-4-3.89-7.21-6.77C91.19,31.5,87,23.08,85.39,18a12.9,12.9,0,0,0-2,1.69,45.27,45.27,0,0,0,5.74,10.79C91.77,33.85,98.54,40.8,103.7,46,106.3,47.05,108.58,48,110,48.67Z"/><path class="cls-9" d="M195.63,49.42s0,0,0,0A.08.08,0,0,0,195.63,49.42Z"/><path class="cls-3" d="M36.9,36.24,38.36,41S34.5,50.34,40.22,55.6s19.06,5.5,19.06,5.5L120,56.23S90.15,36.8,80.81,32.53,44.88,5.75,44.88,5.75,39,13.44,39.23,19.45l.27,6S35.44,31.52,36.9,36.24Z"/><path class="cls-4" d="M36.9,36.24,38.36,41S34.5,50.34,40.22,55.6c3.2,2.94,8.79,4.31,13.09,4.95a5.45,5.45,0,0,0,2.15-1.79c3.1-5,41.91-5.81,41.91-5.81l6.28,2.44s15.77,3.36-23.5-19.3C66.52,28.22,52.1,14.42,46.34,7L44.88,5.75S39,13.44,39.23,19.45l.27,6S35.44,31.52,36.9,36.24Z"/><path class="cls-1" d="M101.14,54.42l.17.06c-2.5-1.22-30.8-15.22-46.13-28.69-8.07-7.09-11.51-12.42-12.94-16a22.19,22.19,0,0,0-3,8.38c5.47,5.26,16.4,15.24,24.59,19.24C74.47,42.64,98,53.05,101.14,54.42Z"/><path class="cls-1" d="M65.45,51.93s4.93,1.17-9.55-4.78A78.72,78.72,0,0,1,36.73,35.54c.05.23.1.47.17.7L38.36,41C47.34,47.58,65.45,51.93,65.45,51.93Z"/><path class="cls-1" d="M94.74,53c-3.53-1.24-8.35-2.76-14.84-4.63-23.53-6.78-35.27-15.8-41-21.94a21.5,21.5,0,0,0-1.65,3.74c3.85,3.58,9.61,8.39,15.52,11.34s20.38,8.21,31.22,12C88.41,53.26,92.31,53.11,94.74,53Z"/><path class="cls-4" d="M4.34,67.7s11.8,1.3,12.82,9.47a18.82,18.82,0,0,1-3,13.27s5.28-3.25,9.26,6.6,1.06,13.78,1.06,13.78,6.61-.47,16.24,3.18,8.77-2.81,6.8-3.44S32.75,97.28,33,92.08s1.42-14.21,1.42-14.21l6.19-14.55s11.43-7.9,16.74-8.54l46.92-6.85c-1-1.36-95.93-6.27-95.93-6.27S20.73,47.52,19.47,56,4.34,67.7,4.34,67.7Z"/><path class="cls-1" d="M32.61,83.15s-.08,0-.15.14C32.58,83.2,32.63,83.15,32.61,83.15Z"/><path class="cls-1" d="M23.52,97.26a34.8,34.8,0,0,1,1.15,3.38c2.25-3.52,4.41-6.94,4.69-7.6S26.78,94.64,23.52,97.26Z"/><path class="cls-1" d="M39.14,66.36l-22,10.5c0,.11,0,.21.05.31a20.9,20.9,0,0,1,0,5.12Z"/><path class="cls-1" d="M32.46,83.29c-1,.8-6.5,4.9-11.76,9a15.18,15.18,0,0,1,2.14,3.4l7.43-7.85A47.55,47.55,0,0,1,32.46,83.29Z"/><path class="cls-1" d="M58.76,49.23,15.31,46.48a14.27,14.27,0,0,1,3.75,5.41Z"/><path class="cls-1" d="M40.65,63.32,12.08,70.24A10.93,10.93,0,0,1,16,73.8Z"/><path class="cls-1" d="M19.52,55.59c0,.12,0,.25-.05.37a8.73,8.73,0,0,1-1.35,3.5C29.9,56.63,48.37,52.21,49.69,52S32.63,54.05,19.52,55.59Z"/><path class="cls-1" d="M96.71,50.23a8.77,8.77,0,0,0-.1,1.56l19.16,6.4Z"/><path class="cls-1" d="M96.8,49.69c3.31,1,7.7,2.34,11.39,3.5-3.71-1.44-8.08-3.22-11.19-4.5C96.94,49,96.87,49.34,96.8,49.69Z"/><path class="cls-1" d="M147.53,25.31l2.8,3.43s-.6-2.24-1.26-4.61A6.61,6.61,0,0,1,147.53,25.31Z"/><path class="cls-1" d="M99.31,43.49a39.53,39.53,0,0,1-4.54-3.11,9.44,9.44,0,0,0-.13,1.9,104.3,104.3,0,0,0,23.79,9.37S104,46.29,99.31,43.49Z"/><path class="cls-1" d="M140.33,44.67s-13-.4-20.66-3.28a63.13,63.13,0,0,1-8.16-3.76,9.56,9.56,0,0,1-1.22.28,18.46,18.46,0,0,1-6.88-.37,76,76,0,0,0,21,7C139.07,46.81,140.33,44.67,140.33,44.67Z"/><path class="cls-1" d="M95.3,38.26l13.89,8.3L95.84,36.68C95.68,37.12,95.49,37.66,95.3,38.26Z"/><path class="cls-1" d="M108.19,53.19a54.8,54.8,0,0,0,7,2.45C116.21,55.77,112.74,54.62,108.19,53.19Z"/><path class="cls-1" d="M130.55,30.91c1.15.51,2.3,1,3.36,1.51L131,30.72Z"/><path class="cls-1" d="M124.22,37.47l-8.41-6a7.32,7.32,0,0,1-.13,1.81Z"/><path class="cls-1" d="M133.5,28.59a4.94,4.94,0,0,1-.58.76l6.9,4.84Z"/><path class="cls-1" d="M150.06,36.06l2.9,1.59.48-.71c-2.84-2.77-7.61-7.51-10.31-10.65a27.55,27.55,0,0,1-3.56,0C143.08,30.19,147.21,34.51,150.06,36.06Z"/><path class="cls-1" d="M115.47,34.05a5.32,5.32,0,0,1-1.76,2.48c5.6,2.46,14.7,6.12,21.2,6.5,0,0-13.91-4.91-18.46-8.26Z"/><path class="cls-1" d="M145,26.13c2.92,2.85,5.81,5.73,5.81,5.73L147,25.59A7.62,7.62,0,0,1,145,26.13Z"/><path class="cls-1" d="M148.26,40.42c-.19-.18-12.68-5.48-19.65-9a19.51,19.51,0,0,1-3.57.37c6.55,3.51,15.43,7.6,18.45,8C148.26,40.42,148.5,40.64,148.26,40.42Z"/><path class="cls-1" d="M133.91,32.42a32,32,0,0,0,5.52,2.77C140,35.27,137.39,34,133.91,32.42Z"/><path class="cls-10" d="M151.6,19.19c-.1-.74-.17-1.18-.17-1.18Z"/><path class="cls-10" d="M97.22,47l-.2-.08S97.06,47,97.22,47Z"/><path class="cls-11" d="M83,74.62c1.12-.22,19.85-1,19.85-1L92.08,62.25Z"/><path class="cls-12" d="M138.19,38.66s-.29.08,0,.27A.73.73,0,0,1,138.19,38.66Z"/><path class="cls-3" d="M2.63,68.22S33.21,63,36.75,64.56,14.17,90.44,14.17,90.44s10.19-8.75,13.84-6-3.52,26.42-3.52,26.42,6-8.53,7.28-8.87S66.2,60.43,66.2,60.43L86,51l5.5-4-1.18-.19S5.57,41,6.92,41.21s60.53,5.42,61.38,8.52S2.63,68.22,2.63,68.22Z"/><path class="cls-13" d="M89.65,108.15a26.38,26.38,0,0,0-10.22,4.44C80.53,112.06,85.55,109.9,89.65,108.15Z"/><path class="cls-13" d="M56.28,124.57l0-.19Z"/><path class="cls-13" d="M41.06,108.43l-5-4.56a80.61,80.61,0,0,0,4.09,19.4c3.66,10.94,18,12.94,18,12.94l-1.84-11.64,0-.19,0,.19a23.94,23.94,0,0,0,6.32,11.65c5.61,5.94,16.38,6.56,16.38,6.56l-.91-9.09s12.12,18,26.72,12,40.19,3,40.19,3-5.8-26.54-29.56-36.84c-11.22-4.86-19.79-5-25.77-3.71-4.1,1.75-9.12,3.91-10.22,4.44a.57.57,0,0,1-.2.11s0,0,.2-.11a26.38,26.38,0,0,1,10.22-4.44l5.6-2.39c-16.21-6.36-30.67,3-30.67,3l9.67-7C56.59,96.56,41.06,108.43,41.06,108.43Z"/><path class="cls-1" d="M68.69,105.82l5.56-4-.26-.07c-9.79,3.08-24.06,13.56-24.43,13.66-.14,0,3.95.77,9.47,1.72a11.9,11.9,0,0,1-.42-4.31C58.73,110.57,63.24,108.05,68.69,105.82Z"/><path class="cls-1" d="M67.33,118.53,59,117.1c.57,1.66,1.46,1.91,1.46,1.91l6.56,1a.51.51,0,0,1-.15-.4A3.19,3.19,0,0,1,67.33,118.53Z"/><path class="cls-1" d="M91.19,107.49l3.22-1.37c-12.91.5-24.65,8.42-27.08,12.41,9.72,1.66,19.8,3.35,19.8,3.35s.11-4.14,5.8-7.74c3.29-2.08,13.65-2.55,21.81-2.57-.77-.32-1.52-.62-2.27-.9l-3.83-.44c-17.61-2.07-23.62,5.32-25.45,6s-7,1.94-1.43-4.42C83.61,109.69,87.21,108.34,91.19,107.49Zm-12,5.21s0,0,.2-.11A.57.57,0,0,1,79.23,112.7Z"/><path class="cls-1" d="M111.55,119.41c4.46-2,11-1.09,15.82,0-.29-.25-.58-.5-.88-.74a52.27,52.27,0,0,0-12.22-1.77,21.28,21.28,0,0,0-17.15,7.47L67.05,120c3.33,4,59.57,15.64,59.57,15.64l6.43-1.6a11.47,11.47,0,0,1,6.28.54c-.4-.73-.82-1.46-1.27-2.21-6.33-2.85-11.3.11-16.53-1.2-6-1.51-4.19-4.35,3.53-5.54a24.65,24.65,0,0,1,8.65.48l-.42-.52c-14.13-5.58-17.47,2-23.86,1.39C102.86,126.28,103.8,122.83,111.55,119.41Z"/><path class="cls-1" d="M62.24,126.13a8.27,8.27,0,0,0-1.08.83A1.51,1.51,0,0,0,62.24,126.13Z"/><path class="cls-1" d="M49.34,122.33l7.77,7.48-.57-3.56A64.9,64.9,0,0,1,49.34,122.33Z"/><path class="cls-1" d="M61.16,127a5,5,0,0,1-2.11.09,9.35,9.35,0,0,1-2.34-.73,23.71,23.71,0,0,0,2.73,5.85C58.54,129.86,60,128,61.16,127Z"/><polygon class="cls-1" points="57.14 130 47.96 125.4 49.9 128.47 57.6 132.94 57.14 130"/><path class="cls-1" d="M107.84,144.67a29.76,29.76,0,0,1,3.87-.74C102.13,138.07,98,128.12,98,127.75s-3.91,6,3.57,11.92Z"/><path class="cls-1" d="M130.2,138.14l-6-3.83c-.3-.21-4.94.95-2.23,5.2.88,1.39,3.28,3.21,6.07,5,1.71.27,3.36.58,4.92.91a64.67,64.67,0,0,1-5.83-4C121.4,136.78,130.2,138.14,130.2,138.14Z"/><path class="cls-1" d="M116.69,130.61l-11.77-2.82s-.91,1.88,1.74,7.2c1.18,2.37,4.9,5.63,8.81,8.65a60.37,60.37,0,0,1,7.35.24c-3.82-2.13-7.17-4.4-8.73-6.45C109.38,131.26,116.69,130.61,116.69,130.61Z"/><path class="cls-1" d="M45.8,124.05l-2,5.15a19.42,19.42,0,0,0,2.28,2,10.47,10.47,0,0,1,1.62-4.1Z"/><path class="cls-1" d="M86.6,131.37c-2.89-.18-3.49,4.19-3.45,8.15.53.51,1.11,1,1.72,1.54-1.5-4.48,3-8.44,3.21-8.92S91.87,131.71,86.6,131.37Z"/><path class="cls-1" d="M44.68,118.5s-2.54,1.86-4.92,3.68l.36,1.09a15.19,15.19,0,0,0,.88,2.1A23.22,23.22,0,0,1,44.68,118.5Z"/><path class="cls-1" d="M53.8,132.46l-3.25-2.58s.33,2.06.63,4.27a32.35,32.35,0,0,0,3.91,1.38C54.4,133.91,53.8,132.46,53.8,132.46Z"/><path class="cls-1" d="M66.35,131.14,70,140.83c1,.36,1.94.65,2.86.9A57.73,57.73,0,0,1,66.35,131.14Z"/><path class="cls-1" d="M77.72,132.58c-1.39-1.51-12.8-7.28-13.3-7.26S77.84,135.5,77.84,135.5l-9-3.31,9.89,7.64-.61-6.14s.49.73,1.39,1.84c-.46-5.38,5.9-7.55,5.9-7.55s1.68-1.45-5.09-1.81S79.11,134.08,77.72,132.58Z"/><path class="cls-1" d="M62.25,128.71c-1.27.9-1,3.89-.48,6.58.26.31.54.62.83.93a15.87,15.87,0,0,0,2.55,2.15A18.35,18.35,0,0,1,64,128.09S64.72,126.94,62.25,128.71Z"/><g class="cls-14"><path class="cls-15" d="M77.52,113.54A3.51,3.51,0,1,0,74,117.05,3.51,3.51,0,0,0,77.52,113.54Z"/><circle class="cls-15" cx="78.17" cy="113.83" r="2.53"/><path class="cls-15" d="M78.9,110.27a1.32,1.32,0,1,0-1.32,1.32A1.32,1.32,0,0,0,78.9,110.27Z"/><path class="cls-15" d="M82,107.86a1,1,0,1,0-1,1A1,1,0,0,0,82,107.86Z"/><path class="cls-15" d="M82.08,112a.51.51,0,1,0-.51.51A.51.51,0,0,0,82.08,112Z"/><path class="cls-15" d="M83.1,111a.18.18,0,1,0-.18.18A.18.18,0,0,0,83.1,111Z"/><path class="cls-15" d="M102.18,118.73A2.28,2.28,0,1,0,99.9,121,2.28,2.28,0,0,0,102.18,118.73Z"/><path class="cls-15" d="M105.54,118.25a1.38,1.38,0,1,0-1.38,1.38A1.38,1.38,0,0,0,105.54,118.25Z"/><path class="cls-15" d="M106.62,115.79a.49.49,0,0,0-.48-.48.48.48,0,0,0-.48.48.47.47,0,0,0,.48.48A.48.48,0,0,0,106.62,115.79Z"/><path class="cls-15" d="M109.08,115.85a.36.36,0,1,0-.36.36A.36.36,0,0,0,109.08,115.85Z"/><path class="cls-15" d="M110,115.31a.24.24,0,0,0-.24-.24.24.24,0,0,0-.24.24.23.23,0,0,0,.24.24A.24.24,0,0,0,110,115.31Z"/><circle class="cls-15" cx="103.62" cy="115.49" r="1.02"/><circle class="cls-15" cx="101.07" cy="117.8" r="0.99"/><circle class="cls-15" cx="114.3" cy="123.71" r="1.44"/><path class="cls-15" d="M119,123a.93.93,0,1,0-1.86,0,.93.93,0,1,0,1.86,0Z"/><circle class="cls-15" cx="119.76" cy="121.43" r="0.84"/><circle class="cls-15" cx="117.84" cy="122.03" r="1.44"/><path class="cls-15" d="M115.14,122.45a.72.72,0,1,0-.72.72A.72.72,0,0,0,115.14,122.45Z"/><path class="cls-15" d="M112.08,122.57a.54.54,0,0,0-.54-.54.54.54,0,1,0,0,1.08A.54.54,0,0,0,112.08,122.57Z"/><path class="cls-15" d="M115,119.9a.45.45,0,0,0-.45-.45.45.45,0,0,0,0,.9A.45.45,0,0,0,115,119.9Z"/><path class="cls-15" d="M95.94,132.05a1.74,1.74,0,1,0-1.74,1.74A1.74,1.74,0,0,0,95.94,132.05Z"/><path class="cls-15" d="M98.52,136.91a2.82,2.82,0,1,0-2.82,2.82A2.82,2.82,0,0,0,98.52,136.91Z"/><path class="cls-15" d="M101.7,135.83a2.22,2.22,0,1,0-2.22,2.22A2.22,2.22,0,0,0,101.7,135.83Z"/><path class="cls-15" d="M98.4,132.92a1.47,1.47,0,1,0-1.47,1.47A1.47,1.47,0,0,0,98.4,132.92Z"/><path class="cls-15" d="M100.74,130.64a1,1,0,1,0-1,1A1,1,0,0,0,100.74,130.64Z"/><circle class="cls-15" cx="102.15" cy="132.56" r="0.93"/><circle class="cls-15" cx="102.06" cy="139.85" r="0.96"/><circle class="cls-15" cx="101.31" cy="141.68" r="0.87"/><path class="cls-15" d="M69.06,127.37a1.44,1.44,0,1,0-1.44,1.44A1.44,1.44,0,0,0,69.06,127.37Z"/><path class="cls-15" d="M72.36,132.56a1.77,1.77,0,1,0-1.77,1.77A1.77,1.77,0,0,0,72.36,132.56Z"/><path class="cls-15" d="M72.9,128a1,1,0,1,0-1,1A1,1,0,0,0,72.9,128Z"/><path class="cls-15" d="M70.8,129.86A1.77,1.77,0,1,0,69,131.63,1.77,1.77,0,0,0,70.8,129.86Z"/><path class="cls-15" d="M68.34,125.81a1.56,1.56,0,1,0-1.56,1.56A1.56,1.56,0,0,0,68.34,125.81Z"/><circle class="cls-15" cx="69.51" cy="125.36" r="0.93"/><path class="cls-15" d="M68.88,128.48a2.43,2.43,0,1,0-2.43,2.43A2.43,2.43,0,0,0,68.88,128.48Z"/><circle class="cls-15" cx="47.91" cy="124.64" r="2.37"/><circle class="cls-15" cx="52.53" cy="125.24" r="0.81"/><circle class="cls-15" cx="50.34" cy="122.33" r="0.78"/></g><path class="cls-3" d="M72.74,101.61c-12.87-1.38-26.68,7.26-26.73,8.19s-5.51-4.29-5.51-4.29l-3.78,3.59s-1.68.79-.35,3.45,6.06,4,8.6,10.81,12.2,12,12.2,12-14.27-14-9.62-14.6,11.66,4.38,16.86,9.86A105.88,105.88,0,0,0,78,141.91s-20.41-18.7-10.76-18.73S84.33,130.92,89.87,137a30.11,30.11,0,0,0,13.35,8.09s-8.13-5-10-6.71-3.47-11,11.5-9.14S141.39,145,141.39,145c-7.58-6.45-26-18.5-34.83-19.62s-10.4-2.56-6.23-7.94,16.07-4.19,16.07-4.19c-17.25-2.85-21.85,5.87-31.76,6s-18.21-.56-13.5-6.94,22.49-7,22.49-7c-9.44-1.61-21.39,3.52-25.92,5.86s-14.77,4.36-14.15-1.8S72.74,101.61,72.74,101.61Z"/><path class="cls-11" d="M71.67,74.91c14.8.11,21.8,2.72,28-.52,5.09,2.35,11.07,4.67,15.73,5.2,10.13,1.14,18.22-5.37,22.93-10.12s15.19-22.6,16.33-24a18,18,0,0,1,2.93-2.65l-6.22-7.09-23,12.58-5.51-.84S110.52,50.06,106.68,49c0,0-16.33-2.92-21.94-3a5.46,5.46,0,0,0-.57,0c-4.89.36-36.64,2.54-52,29.59-16.59,29.13,4.76,46.6,32.23,48.21,25.64,1.5,51.44,5.63,58,10.54-2.91-2.61-11.68-9.36-27.61-12.86-20-4.41-41.57-4-49-17.43S56,74.79,71.67,74.91Z"/><path class="cls-11" d="M122.36,134.45c.74.66,1.1,1.06,1.1,1.06A5.09,5.09,0,0,0,122.36,134.45Z"/><path class="cls-11" d="M173.83,34h0Z"/><path class="cls-11" d="M122.36,134.45c.74.66,1.1,1.06,1.1,1.06A5.09,5.09,0,0,0,122.36,134.45Z"/><path class="cls-16" d="M161.67,39.69a1.8,1.8,0,0,0-.2-.46S161.54,39.41,161.67,39.69Z"/><path class="cls-10" d="M138.34,69.47c3.53-3.55,10.29-14.44,13.94-20.27l-.1-.31L135.55,67.75l3.2-.42-13.25,11C130.93,76.27,135.33,72.51,138.34,69.47Z"/><path class="cls-2" d="M122.9,47.51S110.52,50.06,106.68,49c0,0-16.33-2.92-21.94-3a5.46,5.46,0,0,0-.57,0c-4.89.36-36.64,2.54-52,29.59-16.59,29.13,4.76,46.6,32.23,48.21,6.84.4,13.68,1,20.18,1.73a11.35,11.35,0,0,0-4.92-3.46c-6.19-2.28-15.68.5-16.83-2.3s-7.9-1.91-12.38-2.65-5.76-5-5.78-8.79-1.32-3.33-5.49-7.18.42-5.93.38-6.27,0-3.16,3.41-7.29-1-8.44-1-8.44a41.53,41.53,0,0,0,7.23-2.72c3.59-1.79,1.27-7.07,1.27-7.07a4.65,4.65,0,0,0,4.26,1.28,2.6,2.6,0,0,0,2.43-2.93s1.53,3.62,4.45,2.25.73-4.77.73-4.77a9.84,9.84,0,0,1-4.87-2.43c-1.81-1.91,3.32-5.06,8.31-4.12S70,68.52,70,68.52s1.4-1.19,1-1.36,3.72-3.77,5.67-3.4a11.43,11.43,0,0,0,3.34.18s-2.54-1.57,1.32-3.58,21.45-2.88,21.45-2.88-1,6.79-.24,7.82,6.85,3.49,6.85,3.49-2.18-3.46-2-5.3,1.41-6.34,1.41-6.34.89,7.38,5.12,9.41,8.67,3.91,8.67,3.91-3-6-4-8c-.64-1.25,3.11-9,6.06-14.68Z"/><path class="cls-2" d="M63.37,64.69c.86.15.78-4.18-.44-4.71s-4.26.79-4.11,1.93S63.37,64.69,63.37,64.69Z"/><path class="cls-2" d="M68.31,63.73c.07-1.48-1.55-4.1-3-2.75s1.46,3.55,1.46,3.55S68.25,65.22,68.31,63.73Z"/><path class="cls-2" d="M65.24,65.05c-1.32-.42-1.47.77-1.47,1.35,0,.18,0,.29,0,.29L66,67.81C67.25,67.55,67,65.6,65.24,65.05Z"/><path class="cls-2" d="M58.13,74c1.09.26,1.62-.67,2.38-1.74s-1.35-1.79-2.73-1.76-1.1,2.15-1.1,2.15A2.2,2.2,0,0,0,58.13,74Z"/><path class="cls-2" d="M55.83,75.39c1.34-.25.7-1,.2-2.41s-1.92-1.11-3.68-1-.66,2.43-.66,2.43C51.52,75.4,54.49,75.63,55.83,75.39Z"/><path class="cls-2" d="M59.41,76.09c.68-.06-.11-1.42-1.25-1.57s-.78,1.23-.78,1.23C57.37,76,58.74,76.15,59.41,76.09Z"/><path class="cls-2" d="M52.6,78.53c1.66-.1,1.6-2.45.74-2.71s-2.75,1.38-3.06,1.57C49.46,77.89,51,78.64,52.6,78.53Z"/><path class="cls-2" d="M46.34,82.06c1.11.06,3.45-1.37,2.3-2.91s-3.39-.49-4.86.45,1.12,2,1.12,2S45.22,82,46.34,82.06Z"/><path class="cls-2" d="M47.09,84c.63-1.11-.76-1.59-1.8-1.39s-.47,1.75-.44,1.85C45,85.28,46.45,85.13,47.09,84Z"/><path class="cls-2" d="M49.14,83.25C49.8,83,49.32,82,48,82.19s0,1.07,0,1.07A1.11,1.11,0,0,0,49.14,83.25Z"/><path class="cls-2" d="M50.73,80.19c.47-.4.53-1.24.36-1.18,0,0-1.53-.55-1.87.11S50.26,80.59,50.73,80.19Z"/><path class="cls-2" d="M49.14,77.82c1-1.09.14-2.55-.2-2.51l-2.19,1.21S48.13,78.92,49.14,77.82Z"/><path class="cls-2" d="M43.18,92a3.94,3.94,0,0,0,1-2.49.77.77,0,0,0-.74-.72l0-.21a3.55,3.55,0,0,0-2,2.22C41.12,92.27,42.59,92.62,43.18,92Z"/><path class="cls-2" d="M42.18,95c.72-1.4-.51-2.52-1.76-1.86s-.27,2.33-.28,2.41C40,96.35,41.47,96.43,42.18,95Z"/><path class="cls-2" d="M39.19,99.67a5,5,0,0,0,1.31,1c.93.52.84-1.05.58-2.27s-1.68-2.52-2.6-.64.54,2.1.54,2.1Z"/><path class="cls-2" d="M43.06,103.69l1,.73a3.24,3.24,0,0,0-1-2.25c-.82-.74-2.3-1.18-1.95-.18S43,103.64,43.06,103.69Z"/><path class="cls-2" d="M50.07,115.61c2.12-.21-3.52-6.16-4.3-4.47s1.68,3.54,1.62,3.63l-.19.35S47.94,115.82,50.07,115.61Z"/><path class="cls-2" d="M53.27,116.41a2.91,2.91,0,0,0-3.59,1.6l4.16,2.13S55.94,117.12,53.27,116.41Z"/><path class="cls-2" d="M57.78,115.78l-.72-.26s-2.1-1.26-2.3-.06,2.43,1.66,3.2,1.65S57.78,115.78,57.78,115.78Z"/><path class="cls-2" d="M54.44,115c-.32-.41-2.54-1.4-3.22-.34s2.47,1.39,2.47,1.39Z"/><path class="cls-2" d="M45.5,106.89l-.24.9s-.48,1.69.75,2S45.5,106.89,45.5,106.89Z"/><path class="cls-2" d="M71.09,119.73c-1.16,0-2.83,3-3,2.94s-.07-2.88-2.12-3S64,122.78,64,122.9l8.61,0C72.6,122.74,72.26,119.73,71.09,119.73Z"/><path class="cls-2" d="M70.19,119.51l-.9-.82s-2.7-.47-1.83.54S70.19,119.51,70.19,119.51Z"/><path class="cls-2" d="M78.6,121,78,120.1c-.07,0-4.7-1-4.51-.18S78.6,121,78.6,121Z"/><path class="cls-2" d="M87.54,123.24s-4-1-4-.13,4,1.78,4,1.78Z"/><path class="cls-2" d="M92.39,125.81l.21-.16s1.38-.1,1.65-.46-2-1.18-3.7-1.73-1.89,1.44-.65,2A4.49,4.49,0,0,0,92.39,125.81Z"/><path class="cls-2" d="M98.84,60.62l1.32-1.29S92.89,58.66,90,60.41s2.58,4.19,6.59,4.07S96.81,61.19,98.84,60.62Z"/><path class="cls-2" d="M105.23,68.24l-3.84-3.14S95.61,64.74,99,67A7.72,7.72,0,0,0,105.23,68.24Z"/><path class="cls-2" d="M85.23,63.05l.49-.56s4.83-1.43,1.26-1.13-8.87.79-5,3.19,7.25,2.09,9.58,2.09-.14-2.18-1.71-2.54S84.3,63.47,85.23,63.05Z"/><path class="cls-2" d="M80.38,69.5c2.78,0,2.87-2.63-.82-3.68s-6,2.15-6,2.15l-1.79,1.69C71.24,69.84,77.6,69.48,80.38,69.5Z"/><path class="cls-2" d="M89.7,68.44c-1.68-1.84-5.13-.16-5.61,0,0,0-1.26.76-.17,1.39S91.38,70.27,89.7,68.44Z"/><path class="cls-2" d="M97.77,68.34c.12-.39-.2-.68-.51-.86-.46-.13-4.62-1.18-4.77.6S97.56,69,97.77,68.34Z"/><path class="cls-2" d="M97.19,67.44a2.3,2.3,0,0,0-.4-.18Z"/><path class="cls-2" d="M97.19,67.44l.07,0h0Z"/><path class="cls-2" d="M124.84,54.14c-2.85.83-3.68,6.39-3.68,6.39s-.49,1.94,1.12,2.45S127.68,53.32,124.84,54.14Z"/><path class="cls-2" d="M131.12,52.26c1.43-.94,3-3.23,1.28-2.71-1.38.42-6.73-.54-7.17,1.53S129.69,53.2,131.12,52.26Z"/><path class="cls-2" d="M130,54.3c-2.41.32-4,.8-3.29,2.32s3.11.58,3.33-.14l-.64-1.39S132.4,54,130,54.3Z"/><path class="cls-1" d="M141.69,47.46h0Z"/><path class="cls-1" d="M141.8,47.09h-.07S141.71,47.25,141.8,47.09Z"/><path class="cls-10" d="M126.24,74.72a7.52,7.52,0,0,1,1.05,2.82,38.46,38.46,0,0,0,11-8.07,73.4,73.4,0,0,0,7.13-9.6C142.61,58.55,134,54,134,54l7.51,6.57-6.16-1.5,4.32,3.18s-7.61.57-8.37.12,4.83,4.14,4.83,4.14l-5.25-2.2,5.5,6-6.27-2.07,2.42,3.85-4.06-1.61,1.15,4.5S125.59,74.1,126.24,74.72Z"/><path class="cls-10" d="M119.67,79.33l-3.35-3.69s-5.3,1.43-6.65,2.67a32.63,32.63,0,0,0,5.74,1.28,22.19,22.19,0,0,0,11.78-2l-4-2.44,1.57,2.65-4.87-1Z"/><path class="cls-10" d="M143.23,55.1,147.34,57l1.1-1.73a37.43,37.43,0,0,1-4.12-1.59,83.1,83.1,0,0,0-7.84-3.26c.84.47,6,5.57,6.27,5.6S143.23,55.1,143.23,55.1Z"/><path class="cls-10" d="M152.37,42.38l3.31,2.06c.58-.53,1.15-1,1.52-1.27Z"/><path class="cls-10" d="M152.2,49.32,136.78,48l8.68,4.54-2.05-1.71,6.77,1.69Z"/><path class="cls-10" d="M147.58,46.58l4.91,2.28c.85-1.36,1.51-2.41,1.9-3Z"/><path class="cls-11" d="M164.38,42.84c-.53-1.09-2-4.61-2-4.61l-3.42.72c0,.08,7.84,6.92,7.84,6.92A17.47,17.47,0,0,1,164.38,42.84Z"/><path class="cls-2" d="M57.47,91.33l4.85,4.48,12.43-2.32,9.72,10,10.25-1.62,14.85,5.4,1.35-3.51,14,2.7,3.78-5.94s6.75,1.08,7.83.81S151.42,58.67,168.42,60A189.4,189.4,0,0,1,201.36,66s-3.78-24-10.49-30.07-40.53-21-73.47-15-60,33.91-60,33.91l-18,26.83,2.06,9.14L51,94.84Z"/><path class="cls-4" d="M128.25,101.28c-3.67-5.65-9.54-38.8-9.54-38.8s-18.33,7.6-18.33,17.68c0,7.88,10.57,19.62,15.43,24.53l9.15,1.76Z"/><path class="cls-2" d="M153.83,113.45c15.66-1.8,34.56,6.66,35.46,6.12s2.34-6.66,2.34-6.66-23.94-10.08-33.12-16.73-2.16-31-17.64-39.6-32.21,8.28-32.21,8.28l-.18,1.8C89.17,86,138.17,115.25,153.83,113.45Z"/><path class="cls-2" d="M174,53.52c2.16-1.44-11.16,2.7-17.28,4.32s-2,2.34.09,5.67.63,34.46.63,35-3.24-2.15-3.24-2.15l5.22,9.53,2.07-17.54s2.43,17.18,1.71,17.36,4.06-.28,4.06-.28-8-20.23-4.6-28.39S171.83,55,174,53.52Z"/><path class="cls-11" d="M42.57,76.86l-.06.1-1.77,8-.13,2.11.51,2.28L43,91.44l8,3.4,6.48-3.51,4.85,4.48,10.3-1.92c-.61-.8-1.19-1.59-1.4-1.85a26.71,26.71,0,0,0-3.36-2.4s-4.68-7.08-5.76-9.36S59,66.36,59,66.36s-5.28,6.84-6.24,8.4S50,84.48,50,84.48l4.08,7.32s-7-3.48-7.44-3.6-1.77-3.71-1.77-3.71l.44-1.85Z"/><path class="cls-11" d="M80.1,80.16c-1.92-3.6-2.4-16.68-2.4-16.68a14.28,14.28,0,0,0-2,1.2C75.3,65,71,70.8,70,73.56s1.92,7.68,2.52,10,2.21,10,2.21,10l9.72,10,10.25-1.62,14.85,5.4,1.14-3c-2.28-4.29-7.27-12-7.09-11.66s-5.4-2-6.12-2.4-3.72-22-5.76-19.32-4.2,11.88-4.08,12.6S91.5,97.43,91.5,97.43s-3.24-3.23-4.92-4S82,83.76,80.1,80.16Z"/><path class="cls-11" d="M46.38,82.36a1.94,1.94,0,1,0-1.93,1.94A1.92,1.92,0,0,0,46.38,82.36Z"/><circle class="cls-11" cx="46.38" cy="85.92" r="0.81"/><path class="cls-11" d="M47.64,83.31a.54.54,0,0,0-.54-.54.54.54,0,0,0-.54.54.55.55,0,0,0,.54.54A.54.54,0,0,0,47.64,83.31Z"/><path class="cls-11" d="M63.75,77.86A2.12,2.12,0,1,0,61.64,80,2.1,2.1,0,0,0,63.75,77.86Z"/><path class="cls-11" d="M66.9,84.3a2.07,2.07,0,1,0-2.07,2.07A2.07,2.07,0,0,0,66.9,84.3Z"/><path class="cls-11" d="M66,80.29a.77.77,0,0,0-1.53,0,.77.77,0,1,0,1.53,0Z"/><path class="cls-11" d="M65.82,74.89a.95.95,0,0,0-1.89,0,.95.95,0,1,0,1.89,0Z"/><path class="cls-11" d="M62.22,71.07a.36.36,0,1,0-.36-.36A.36.36,0,0,0,62.22,71.07Z"/><path class="cls-11" d="M65.91,67.56a.63.63,0,1,0-.63.63A.63.63,0,0,0,65.91,67.56Z"/><circle class="cls-11" cx="50.66" cy="73.18" r="0.13"/><circle class="cls-11" cx="70.19" cy="88.48" r="1.48"/><circle class="cls-11" cx="80.09" cy="76.87" r="1.84"/><circle class="cls-11" cx="82.33" cy="72.46" r="0.85"/><path class="cls-11" d="M79.23,71.61a.18.18,0,1,0-.18.18A.18.18,0,0,0,79.23,71.61Z"/><path class="cls-11" d="M82.92,66.07a.77.77,0,1,0-.77.77A.76.76,0,0,0,82.92,66.07Z"/><path class="cls-11" d="M82.2,83.89a.86.86,0,1,0-.86.86A.85.85,0,0,0,82.2,83.89Z"/><circle class="cls-11" cx="83.73" cy="80.34" r="0.9"/><circle class="cls-11" cx="84.81" cy="86.19" r="1.08"/><path class="cls-11" d="M98.76,82.86a1.71,1.71,0,1,0-1.71,1.71A1.71,1.71,0,0,0,98.76,82.86Z"/><path class="cls-11" d="M97.41,78.4a1.31,1.31,0,1,0-1.31,1.31A1.31,1.31,0,0,0,97.41,78.4Z"/><path class="cls-11" d="M98.31,75.34a.68.68,0,1,0-.68.68A.67.67,0,0,0,98.31,75.34Z"/><path class="cls-11" d="M95.16,73a1.26,1.26,0,1,0-1.26,1.26A1.26,1.26,0,0,0,95.16,73Z"/><path class="cls-11" d="M97,69.18a.63.63,0,1,0-.63.63A.63.63,0,0,0,97,69.18Z"/><path class="cls-11" d="M92.82,67.92a.54.54,0,1,0-.54.54A.54.54,0,0,0,92.82,67.92Z"/><path class="cls-1" d="M48,104.29c-.39,3.1,3,6.44,3,6.44s15.92-3,20.94-7.9,7.94-18,7.91-18.45c0,0-2.27.88-9.7-.23S57,83,55.36,84.35s-1.2,6.25-1.2,6.25-3.49,1.31-3.65,3.2,1.08,6.62,1.08,6.62A4.84,4.84,0,0,0,48,104.29Z"/><path class="cls-11" d="M49.84,101.26a17.23,17.23,0,0,0,4.26,1,24.67,24.67,0,0,1-4.24-1Z"/><path class="cls-11" d="M49.74,109.2l.11.15c4.3-.78,12.21-2.49,18.15-5.36,5.61-2.71,9.25-10.9,11.11-16.27a30.1,30.1,0,0,0,.77-3.34s-2.12.82-8.93-.12l-.2,0s-.58,3.25-5.61,6.85c-3.51,2.52-10.44,2.17-14.29,1.73a1.68,1.68,0,0,0-.26.54,25.71,25.71,0,0,0,9.61,1.34c6.12-.47,12.58-7.46,12.58-7.46A31.43,31.43,0,0,1,64,99.41a12.61,12.61,0,0,1-9.91,2.88,26.66,26.66,0,0,0,7,.17c7-.78,14.07-14.6,14.24-15.32a33.27,33.27,0,0,1-4.75,12.61C67.56,104.52,55.45,107.86,49.74,109.2Z"/><path class="cls-4" d="M125.85,36.32c-3.59,3.37-12.24,12.7-14.85,19-3.06,7.38,10.44,23.4,10.44,23.4s-5.75-13.15-5.67-20.53l11.42-23C126.93,35.35,126.47,35.75,125.85,36.32Z"/><path class="cls-4" d="M121.26,57.84c-2,3.78,8.45,26.1,9,25.92l-4.86-23c.18-1.26,7.74-22.5,7.74-22.5S123.23,54.06,121.26,57.84Z"/><path class="cls-4" d="M153.83,113.45c15.66-1.8,34.56,6.66,35.46,6.12.46-.28,1.07-2,1.55-3.7L165,109.67c-1.26,0-18.18,1.08-25.38-3.6S129,86.28,129,86.28s-.3,16.12-.21,19C138.29,110.74,148.21,114.1,153.83,113.45Z"/><path class="cls-4" d="M144.05,62.28,135.17,62s7.56,3.24,11.52,4.56,15.24-11.52,15.24-11.52-8.64-11.64-14.64-10.68-10.56,11.28-10.56,11.28l-2.76.6,6.12,2.52s-6.84-.72-7.68-.84S144.05,62.28,144.05,62.28Z"/><path class="cls-3" d="M218.44,29.88,217.3,28c-.18-.3-.84,2.94-.84,2.94l-1.92-2.52-.19.2c-.8,2.3-2.84,8.56-2,10.6,1.08,2.52,2.94,2.58,9.42-.3s-.6-11.64-.6-12c0,0,0-.1,0-.24l-1.06-.84c-.9-.72.36,3.18.36,3.18a26.48,26.48,0,0,1-1.5-2.34C219,26.46,218.44,29.88,218.44,29.88Z"/><path class="cls-17" d="M157,55.26s-1.86-4.14-8.64-4.92-6.72,3.72-6.72,3.72-.54,3.42,5.46,5.4S157,55.26,157,55.26Z"/><path class="cls-3" d="M150.65,33.3a.54.54,0,1,0-.54.54A.54.54,0,0,0,150.65,33.3Z"/><path class="cls-3" d="M156.89,35.52a1.32,1.32,0,1,0-1.32,1.32A1.32,1.32,0,0,0,156.89,35.52Z"/><path class="cls-3" d="M163.73,39.36A1.68,1.68,0,1,0,162.05,41,1.68,1.68,0,0,0,163.73,39.36Z"/><path class="cls-3" d="M167.93,44.88a1.32,1.32,0,1,0-1.32,1.32A1.32,1.32,0,0,0,167.93,44.88Z"/><circle class="cls-3" cx="169.19" cy="50.1" r="0.9"/><path class="cls-3" d="M170.93,53.28a.36.36,0,1,0-.36.36A.36.36,0,0,0,170.93,53.28Z"/><path class="cls-3" d="M167.69,31.2a.72.72,0,1,0-.72.72A.72.72,0,0,0,167.69,31.2Z"/><path class="cls-3" d="M174.89,34.26A1.86,1.86,0,1,0,173,36.12,1.86,1.86,0,0,0,174.89,34.26Z"/><path class="cls-3" d="M179.69,37.44a1.32,1.32,0,1,0-1.32,1.32A1.32,1.32,0,0,0,179.69,37.44Z"/><path class="cls-3" d="M183.05,41.22a.66.66,0,1,0-1.32,0,.66.66,0,0,0,1.32,0Z"/><path class="cls-3" d="M185.21,44a.6.6,0,1,0-.6.6A.6.6,0,0,0,185.21,44Z"/><path class="cls-3" d="M185.93,48.18a.31.31,0,0,0-.3-.3.3.3,0,0,0-.3.3.29.29,0,0,0,.3.3A.3.3,0,0,0,185.93,48.18Z"/><path class="cls-3" d="M187.25,52a.36.36,0,1,0-.36.36A.36.36,0,0,0,187.25,52Z"/><path class="cls-3" d="M188.33,55.08a.6.6,0,1,0-.6.6A.6.6,0,0,0,188.33,55.08Z"/><path class="cls-3" d="M92,76.32a1,1,0,1,0-1,1A1,1,0,0,0,92,76.32Z"/><circle class="cls-3" cx="90.6" cy="80.7" r="0.9"/><path class="cls-3" d="M93.18,86.1a1.38,1.38,0,1,0-1.38,1.38A1.38,1.38,0,0,0,93.18,86.1Z"/><path class="cls-3" d="M94.86,90.6a1.08,1.08,0,1,0-1.08,1.08A1.08,1.08,0,0,0,94.86,90.6Z"/><circle class="cls-3" cx="95.46" cy="94.32" r="0.72"/><path class="cls-3" d="M97.5,97.91a.24.24,0,1,0-.48,0,.24.24,0,1,0,.48,0Z"/><path class="cls-3" d="M101.7,102a.6.6,0,1,0-1.2,0,.6.6,0,1,0,1.2,0Z"/><path class="cls-3" d="M72.78,71.52A.47.47,0,0,0,72.3,71a.48.48,0,0,0-.48.48.49.49,0,0,0,.48.48A.48.48,0,0,0,72.78,71.52Z"/><path class="cls-3" d="M74.76,76.45A1.55,1.55,0,1,0,73.22,78,1.54,1.54,0,0,0,74.76,76.45Z"/><circle class="cls-3" cx="74.4" cy="80.7" r="0.66"/><circle class="cls-3" cx="74.16" cy="67.62" r="0.54"/><circle class="cls-3" cx="76.32" cy="63.42" r="0.42"/><path class="cls-3" d="M77.22,85a.54.54,0,0,0-1.08,0,.54.54,0,0,0,1.08,0Z"/><path class="cls-3" d="M81.78,92.76a1.08,1.08,0,1,0-1.08,1.08A1.08,1.08,0,0,0,81.78,92.76Z"/><path class="cls-3" d="M84.18,98.27a.6.6,0,1,0-1.2,0,.6.6,0,1,0,1.2,0Z"/><path class="cls-3" d="M54.3,82.38a.41.41,0,0,0-.42-.42.42.42,0,0,0-.42.42.42.42,0,0,0,.42.42A.42.42,0,0,0,54.3,82.38Z"/><path class="cls-3" d="M54.18,79.32a.79.79,0,1,0-.79.79A.79.79,0,0,0,54.18,79.32Z"/><circle class="cls-3" cx="54.66" cy="73.92" r="0.72"/><path class="cls-3" d="M57.42,69.48a.72.72,0,1,0-.72.72A.72.72,0,0,0,57.42,69.48Z"/><circle class="cls-3" cx="58.62" cy="66" r="0.72"/><circle class="cls-3" cx="60.54" cy="63" r="0.6"/><circle class="cls-3" cx="42.12" cy="74.82" r="0.18"/><circle class="cls-3" cx="41.76" cy="78.54" r="0.66"/><path class="cls-3" d="M41.94,82.32a.47.47,0,0,0-.48-.48.48.48,0,0,0-.48.48.49.49,0,0,0,.48.48A.48.48,0,0,0,41.94,82.32Z"/><path class="cls-3" d="M42.54,85.86a.9.9,0,0,0-1.8,0,.9.9,0,1,0,1.8,0Z"/><circle class="cls-3" cx="44.52" cy="90.3" r="1.62"/><path class="cls-3" d="M47.7,91.26a.66.66,0,1,0-1.32,0,.66.66,0,0,0,1.32,0Z"/><path class="cls-3" d="M42.78,110.26a.68.68,0,0,0-.67-.68.69.69,0,0,0-.68.68.68.68,0,0,0,.68.67A.67.67,0,0,0,42.78,110.26Z"/><circle class="cls-3" cx="45.17" cy="112.96" r="0.76"/><path class="cls-3" d="M50.34,116.06a.54.54,0,0,0-.54-.54.54.54,0,0,0,0,1.08A.54.54,0,0,0,50.34,116.06Z"/><circle class="cls-3" cx="39.05" cy="107.65" r="0.94"/><path class="cls-3" d="M36.13,102.11a.64.64,0,0,0-.63-.63.63.63,0,0,0-.63.63.63.63,0,0,0,.63.63A.63.63,0,0,0,36.13,102.11Z"/><path class="cls-3" d="M34.06,97.88a.46.46,0,0,0-.45-.45.45.45,0,0,0-.45.45.45.45,0,0,0,.45.45A.45.45,0,0,0,34.06,97.88Z"/><circle class="cls-3" cx="33.34" cy="93.3" r="0.72"/><circle class="cls-3" cx="33.97" cy="89.61" r="0.63"/><path class="cls-3" d="M35.41,85.78a.59.59,0,0,0-.59-.58.58.58,0,0,0-.58.58.59.59,0,0,0,.58.59A.6.6,0,0,0,35.41,85.78Z"/><path class="cls-3" d="M37.3,80.88a.72.72,0,1,0-.72.72A.72.72,0,0,0,37.3,80.88Z"/><path class="cls-3" d="M38.92,75.66a.45.45,0,0,0-.45-.45.45.45,0,1,0,0,.9A.45.45,0,0,0,38.92,75.66Z"/><path class="cls-3" d="M44.31,70a.54.54,0,0,0-.54-.54.54.54,0,0,0,0,1.08A.54.54,0,0,0,44.31,70Z"/><path class="cls-3" d="M46.92,67a.58.58,0,0,0-.58-.58.59.59,0,1,0,0,1.17A.58.58,0,0,0,46.92,67Z"/><path class="cls-3" d="M51,62.88a.72.72,0,1,0-.72.72A.72.72,0,0,0,51,62.88Z"/><path class="cls-3" d="M54.57,60.45a.45.45,0,1,0-.45.45A.45.45,0,0,0,54.57,60.45Z"/><path class="cls-3" d="M58.8,59.73a.72.72,0,1,0-.72.72A.72.72,0,0,0,58.8,59.73Z"/><path class="cls-3" d="M66,56.44a.68.68,0,1,0-.67.68A.67.67,0,0,0,66,56.44Z"/><path class="cls-3" d="M72.48,54.69a.9.9,0,1,0-.9.9A.9.9,0,0,0,72.48,54.69Z"/><path class="cls-3" d="M76.08,54.33a.63.63,0,1,0-.63.63A.63.63,0,0,0,76.08,54.33Z"/><path class="cls-3" d="M81.48,52.35a1,1,0,1,0-1,1A1,1,0,0,0,81.48,52.35Z"/><path class="cls-3" d="M86.07,50.42a1.4,1.4,0,1,0-2.79,0,1.4,1.4,0,0,0,2.79,0Z"/><path class="cls-3" d="M95.52,42.45a1.17,1.17,0,1,0-2.34,0,1.17,1.17,0,0,0,2.34,0Z"/><path class="cls-3" d="M102.63,38.13a.9.9,0,0,0-1.8,0,.9.9,0,1,0,1.8,0Z"/><circle class="cls-3" cx="107.13" cy="34.89" r="0.9"/><path class="cls-3" d="M112.62,30.8a.69.69,0,0,0-.68-.68.68.68,0,0,0-.67.68.67.67,0,0,0,.67.67A.68.68,0,0,0,112.62,30.8Z"/><circle class="cls-3" cx="118.11" cy="29.76" r="0.81"/><path class="cls-3" d="M124.22,28.91a.49.49,0,0,0-.49-.5.5.5,0,1,0,0,1A.49.49,0,0,0,124.22,28.91Z"/><path class="cls-3" d="M130.52,29.22a.9.9,0,1,0-.9.9A.9.9,0,0,0,130.52,29.22Z"/><path class="cls-3" d="M135.29,30a.63.63,0,0,0-.63-.63A.64.64,0,0,0,134,30a.63.63,0,0,0,.63.63A.63.63,0,0,0,135.29,30Z"/><path class="cls-3" d="M104.34,46.28a.23.23,0,1,0-.45,0,.22.22,0,0,0,.22.22A.22.22,0,0,0,104.34,46.28Z"/><path class="cls-3" d="M108.3,43.85a.5.5,0,1,0-.5.49A.5.5,0,0,0,108.3,43.85Z"/><path class="cls-3" d="M110.73,41.24a.32.32,0,1,0-.63,0,.32.32,0,0,0,.63,0Z"/><path class="cls-3" d="M114.87,39.39a.45.45,0,0,0-.45-.45.45.45,0,0,0,0,.9A.45.45,0,0,0,114.87,39.39Z"/><path class="cls-3" d="M118.65,38.54a.59.59,0,0,0-.59-.59.59.59,0,0,0,0,1.17A.59.59,0,0,0,118.65,38.54Z"/><path class="cls-3" d="M58.86,118A1.08,1.08,0,1,0,57.78,119,1.08,1.08,0,0,0,58.86,118Z"/><path class="cls-3" d="M68.34,119.81a1.26,1.26,0,1,0-1.26,1.26A1.26,1.26,0,0,0,68.34,119.81Z"/><circle class="cls-3" cx="75.12" cy="121.25" r="0.66"/><path class="cls-3" d="M83.34,121.67a.72.72,0,1,0-.72.72A.72.72,0,0,0,83.34,121.67Z"/><circle class="cls-3" cx="90.66" cy="122.39" r="0.84"/><path class="cls-3" d="M98.7,124.67a.49.49,0,0,0-.48-.48.48.48,0,0,0-.48.48.47.47,0,0,0,.48.48A.48.48,0,0,0,98.7,124.67Z"/><path class="cls-3" d="M103.26,126a.49.49,0,0,0-.48-.48.48.48,0,0,0-.48.48.47.47,0,0,0,.48.48A.48.48,0,0,0,103.26,126Z"/><circle class="cls-3" cx="108.54" cy="127.79" r="0.72"/><path class="cls-3" d="M74.37,114.35a1.8,1.8,0,1,0-1.8,1.8A1.81,1.81,0,0,0,74.37,114.35Z"/><circle class="cls-3" cx="75" cy="111.29" r="0.63"/><path class="cls-3" d="M78.15,110.3a.45.45,0,1,0-.45.45A.45.45,0,0,0,78.15,110.3Z"/><path class="cls-3" d="M81.39,108.64a.23.23,0,1,0-.45,0,.22.22,0,0,0,.22.22A.22.22,0,0,0,81.39,108.64Z"/><path class="cls-3" d="M77.16,113.72a.54.54,0,1,0-.54.54A.54.54,0,0,0,77.16,113.72Z"/><path class="cls-3" d="M103.35,119.21a.54.54,0,1,0-.54.54A.54.54,0,0,0,103.35,119.21Z"/><path class="cls-3" d="M105.51,121.28a.36.36,0,1,0-.36.36A.36.36,0,0,0,105.51,121.28Z"/><path class="cls-3" d="M107,116.51a.36.36,0,1,0-.36.36A.36.36,0,0,0,107,116.51Z"/><path class="cls-3" d="M113.07,115.52a.45.45,0,0,0-.45-.45.45.45,0,0,0,0,.9A.45.45,0,0,0,113.07,115.52Z"/><path class="cls-3" d="M110.28,118.9a.32.32,0,1,0-.63,0,.32.32,0,0,0,.63,0Z"/><path class="cls-3" d="M99.12,133.79a.54.54,0,1,0-.54.54A.54.54,0,0,0,99.12,133.79Z"/><path class="cls-3" d="M99,136.49a.54.54,0,1,0-.54.54A.54.54,0,0,0,99,136.49Z"/><path class="cls-3" d="M100.2,138.24a.13.13,0,0,0-.14-.13.13.13,0,0,0-.13.13.13.13,0,0,0,.13.14A.14.14,0,0,0,100.2,138.24Z"/><circle class="cls-3" cx="101.86" cy="136.09" r="0.13"/><path class="cls-3" d="M69.51,128.57a.63.63,0,1,0-.63.63A.63.63,0,0,0,69.51,128.57Z"/><path class="cls-3" d="M70.68,130.91a.36.36,0,1,0-.36.36A.36.36,0,0,0,70.68,130.91Z"/><path class="cls-3" d="M71.4,129.29a.36.36,0,1,0-.36.36A.36.36,0,0,0,71.4,129.29Z"/><path class="cls-3" d="M71.85,133h0Z"/><g class="cls-18"><path class="cls-15" d="M80.31,80.29a2,2,0,1,0-2,2A2,2,0,0,0,80.31,80.29Z"/><path class="cls-15" d="M82.29,85.42a1.94,1.94,0,1,0-1.93,1.94A1.93,1.93,0,0,0,82.29,85.42Z"/><path class="cls-15" d="M84.45,89.74a1.58,1.58,0,1,0-1.58,1.58A1.57,1.57,0,0,0,84.45,89.74Z"/><circle class="cls-15" cx="78.38" cy="88.66" r="0.94"/><path class="cls-15" d="M82.74,82.81a.95.95,0,1,0-.95,1A.94.94,0,0,0,82.74,82.81Z"/><path class="cls-15" d="M79.28,75.64A1.24,1.24,0,1,0,78,76.87,1.24,1.24,0,0,0,79.28,75.64Z"/><path class="cls-15" d="M86.43,93.75A1.26,1.26,0,1,0,85.17,95,1.25,1.25,0,0,0,86.43,93.75Z"/><path class="cls-15" d="M88.41,95.14a.5.5,0,0,0-1,0,.5.5,0,1,0,1,0Z"/><circle class="cls-15" cx="86.65" cy="98.38" r="0.76"/><path class="cls-15" d="M80.31,84.25a2.84,2.84,0,1,0-2.83,2.84A2.83,2.83,0,0,0,80.31,84.25Z"/><path class="cls-15" d="M96.69,81.37a2.3,2.3,0,1,0-2.3,2.3A2.29,2.29,0,0,0,96.69,81.37Z"/><circle class="cls-15" cx="92.23" cy="83.8" r="1.57"/><path class="cls-15" d="M96.6,87a1.49,1.49,0,1,0-1.49,1.49A1.49,1.49,0,0,0,96.6,87Z"/><path class="cls-15" d="M95.7,90a1.35,1.35,0,1,0-1.35,1.35A1.35,1.35,0,0,0,95.7,90Z"/><path class="cls-15" d="M98,91.68a.54.54,0,0,0-1.08,0,.54.54,0,0,0,1.08,0Z"/><path class="cls-15" d="M98,93.84v0Z"/><path class="cls-15" d="M99.93,95.77A1.22,1.22,0,1,0,98.71,97,1.22,1.22,0,0,0,99.93,95.77Z"/><circle class="cls-15" cx="101.77" cy="98.11" r="0.67"/><path class="cls-15" d="M104,96.49a1.13,1.13,0,1,0-1.13,1.12A1.13,1.13,0,0,0,104,96.49Z"/><path class="cls-15" d="M99.66,98.15a.27.27,0,0,0-.54,0,.27.27,0,0,0,.54,0Z"/><path class="cls-15" d="M98.58,94a.95.95,0,1,0-1,1A.95.95,0,0,0,98.58,94Z"/><path class="cls-15" d="M103.89,100.67a.54.54,0,0,0-1.08,0,.54.54,0,0,0,1.08,0Z"/><path class="cls-15" d="M58.35,78a2.84,2.84,0,1,0-2.83,2.84A2.83,2.83,0,0,0,58.35,78Z"/><path class="cls-15" d="M61.41,80.74a1.85,1.85,0,1,0-1.84,1.85A1.84,1.84,0,0,0,61.41,80.74Z"/><path class="cls-15" d="M61.5,76.51a2,2,0,1,0-2,2A2,2,0,0,0,61.5,76.51Z"/><path class="cls-15" d="M60.69,72.91a1.58,1.58,0,0,0-3.15,0,1.58,1.58,0,1,0,3.15,0Z"/><path class="cls-15" d="M61.05,69.54a.54.54,0,1,0-.54.54A.54.54,0,0,0,61.05,69.54Z"/><path class="cls-15" d="M62.94,66.84a.72.72,0,1,0-.72.72A.72.72,0,0,0,62.94,66.84Z"/><path class="cls-15" d="M62.94,72.15a1.35,1.35,0,1,0-1.35,1.35A1.34,1.34,0,0,0,62.94,72.15Z"/><path class="cls-15" d="M65.73,73a1.35,1.35,0,1,0-1.35,1.35A1.34,1.34,0,0,0,65.73,73Z"/><circle class="cls-15" cx="63.93" cy="77.55" r="1.71"/><path class="cls-15" d="M64.92,81.06a.63.63,0,1,0-1.26,0,.63.63,0,0,0,1.26,0Z"/><path class="cls-15" d="M44.94,79.53a.63.63,0,0,0-.63-.63.63.63,0,0,0-.63.63.64.64,0,0,0,.63.63A.63.63,0,0,0,44.94,79.53Z"/><path class="cls-15" d="M45.39,82.32a1.08,1.08,0,0,0-2.16,0,1.08,1.08,0,0,0,2.16,0Z"/><path class="cls-15" d="M46.29,84.93a.63.63,0,0,0-.63-.63.63.63,0,0,0-.63.63.64.64,0,0,0,.63.63A.63.63,0,0,0,46.29,84.93Z"/><path class="cls-15" d="M47.46,86.23a2.3,2.3,0,1,0-2.29,2.3A2.28,2.28,0,0,0,47.46,86.23Z"/><path class="cls-15" d="M50.07,89.16a1.26,1.26,0,0,0-2.52,0,1.26,1.26,0,0,0,2.52,0Z"/><path class="cls-15" d="M49.35,85.87a1.31,1.31,0,0,0-2.61,0,1.31,1.31,0,1,0,2.61,0Z"/><path class="cls-15" d="M47.46,80.61a1.08,1.08,0,0,0-2.16,0,1.08,1.08,0,1,0,2.16,0Z"/><path class="cls-15" d="M47.46,76a1.08,1.08,0,0,0-2.16,0,1.08,1.08,0,1,0,2.16,0Z"/><path class="cls-15" d="M48.81,72a.54.54,0,0,0-.54-.54.54.54,0,0,0,0,1.08A.54.54,0,0,0,48.81,72Z"/><path class="cls-15" d="M51.06,68.55a.54.54,0,0,0-.54-.54.54.54,0,0,0,0,1.08A.54.54,0,0,0,51.06,68.55Z"/><circle class="cls-15" cx="66.86" cy="63.46" r="0.58"/><path class="cls-15" d="M79.86,71.88a.72.72,0,1,0-.72.72A.72.72,0,0,0,79.86,71.88Z"/><circle class="cls-15" cx="79.19" cy="67.42" r="0.49"/><path class="cls-15" d="M81.48,65.49a.81.81,0,1,0-.81.81A.81.81,0,0,0,81.48,65.49Z"/><path class="cls-15" d="M75.63,70.8a.18.18,0,1,0-.18.18A.18.18,0,0,0,75.63,70.8Z"/><path class="cls-15" d="M79.05,63.19a.32.32,0,0,0-.63,0,.32.32,0,1,0,.63,0Z"/><path class="cls-15" d="M93.72,72a.32.32,0,1,0-.32.32A.31.31,0,0,0,93.72,72Z"/><circle class="cls-15" cx="93.99" cy="75.57" r="0.18"/><path class="cls-15" d="M112.74,85.68a2,2,0,1,0-2,2A2,2,0,0,0,112.74,85.68Z"/><path class="cls-15" d="M119.7,92.76a2.64,2.64,0,1,0-2.64,2.64A2.64,2.64,0,0,0,119.7,92.76Z"/><circle class="cls-15" cx="114.54" cy="85.56" r="2.64"/><path class="cls-15" d="M121.26,90.54a2.82,2.82,0,1,0-2.82,2.82A2.82,2.82,0,0,0,121.26,90.54Z"/><path class="cls-15" d="M112.38,80.7A1.38,1.38,0,1,0,111,82.08,1.38,1.38,0,0,0,112.38,80.7Z"/><path class="cls-15" d="M108.9,73.74a.18.18,0,1,0-.18.18A.18.18,0,0,0,108.9,73.74Z"/><path class="cls-15" d="M123.17,94.86a1.62,1.62,0,1,0-1.62,1.61A1.61,1.61,0,0,0,123.17,94.86Z"/><path class="cls-15" d="M127.49,99.71a1.32,1.32,0,1,0-1.32,1.32A1.33,1.33,0,0,0,127.49,99.71Z"/><path class="cls-15" d="M113.34,77.16A1.32,1.32,0,1,0,112,78.48,1.32,1.32,0,0,0,113.34,77.16Z"/><circle class="cls-15" cx="108.54" cy="78.12" r="0.96"/><path class="cls-15" d="M111.66,72a1.2,1.2,0,1,0-1.2,1.2A1.2,1.2,0,0,0,111.66,72Z"/><path class="cls-15" d="M115.26,81.3a.78.78,0,1,0-.78.78A.78.78,0,0,0,115.26,81.3Z"/><circle class="cls-15" cx="119.82" cy="87" r="1.44"/><path class="cls-15" d="M136.79,94a.9.9,0,1,0-.9-.9A.9.9,0,0,0,136.79,94Z"/><path class="cls-15" d="M140.57,99.29a1.14,1.14,0,1,0-1.14,1.14A1.15,1.15,0,0,0,140.57,99.29Z"/><circle class="cls-15" cx="137.39" cy="97.49" r="1.74"/><path class="cls-15" d="M142.85,102.77a1.38,1.38,0,1,0-1.38,1.38A1.38,1.38,0,0,0,142.85,102.77Z"/><circle class="cls-15" cx="142.25" cy="98.51" r="0.84"/><path class="cls-15" d="M144.77,104.93a.54.54,0,1,0-1.08,0,.54.54,0,0,0,1.08,0Z"/><path class="cls-15" d="M147.53,106.79a.6.6,0,0,0-1.2,0,.6.6,0,0,0,1.2,0Z"/><path class="cls-15" d="M149,106a.66.66,0,1,0-.66.66A.66.66,0,0,0,149,106Z"/></g><path class="cls-3" d="M162.89,16.68a.72.72,0,1,0-.72.72A.72.72,0,0,0,162.89,16.68Z"/><path class="cls-3" d="M167.69,11.71a.78.78,0,1,0-.78.78A.77.77,0,0,0,167.69,11.71Z"/><path class="cls-3" d="M172.13,9.73a1.08,1.08,0,1,0-1.08,1.08A1.08,1.08,0,0,0,172.13,9.73Z"/><path class="cls-3" d="M177.41,7.21a.6.6,0,0,0-1.2,0,.6.6,0,0,0,1.2,0Z"/><path class="cls-3" d="M184.25,4.87a.42.42,0,1,0-.84,0,.42.42,0,1,0,.84,0Z"/><circle class="cls-3" cx="190.25" cy="3.73" r="0.72"/><path class="cls-3" d="M196.61,4.21a.6.6,0,0,0-.6-.6.59.59,0,0,0-.6.6.6.6,0,0,0,.6.6A.6.6,0,0,0,196.61,4.21Z"/><path class="cls-3" d="M202.25,6.31a.54.54,0,0,0-.54-.54.54.54,0,0,0-.54.54.54.54,0,0,0,.54.54A.55.55,0,0,0,202.25,6.31Z"/><path class="cls-3" d="M206.56,8.89a.47.47,0,0,0-.48-.48.48.48,0,0,0-.48.48.49.49,0,0,0,.48.48A.48.48,0,0,0,206.56,8.89Z"/><path class="cls-3" d="M211,12.73a1.08,1.08,0,1,0-2.16,0,1.08,1.08,0,1,0,2.16,0Z"/><path class="cls-3" d="M213,16.56a.48.48,0,0,0-.48-.48.49.49,0,0,0-.48.48.48.48,0,0,0,.48.48A.47.47,0,0,0,213,16.56Z"/><circle class="cls-3" cx="214.9" cy="20.82" r="0.9"/><circle class="cls-3" cx="215.74" cy="24.06" r="0.18"/><circle class="cls-3" cx="132.29" cy="65.64" r="0.72"/><circle class="cls-3" cx="136.25" cy="69.12" r="1.08"/><path class="cls-3" d="M141.53,71.34a.66.66,0,1,0-1.32,0,.66.66,0,1,0,1.32,0Z"/><circle class="cls-3" cx="144.71" cy="71.46" r="0.66"/><path class="cls-3" d="M149.57,70a.54.54,0,1,0-.54.54A.54.54,0,0,0,149.57,70Z"/><path class="cls-3" d="M151.37,68.34v0Z"/><path class="cls-19" d="M152.25,59.27A5.35,5.35,0,0,0,154.43,55a5.3,5.3,0,0,0-1-3,14.66,14.66,0,0,0-6.91-1.67,5.34,5.34,0,0,0-1.19,8.55,15.32,15.32,0,0,0,1.67.66A7.27,7.27,0,0,0,152.25,59.27Zm-3.16-7.19A2.88,2.88,0,1,1,146.21,55,2.88,2.88,0,0,1,149.09,52.08Z"/><path class="cls-1" d="M80,61.54s6.51,3.12,4.65,8.43a36.47,36.47,0,0,1-1.56,4l24.34-4s-5.1-8.24-2.75-13.32L91.51,38S93.63,44.83,90,48s-5,3.56-5,3.56,3,2.86.27,6A14.4,14.4,0,0,1,80,61.54Z"/><path class="cls-11" d="M102.6,64.31c.65,2-14.28,8.42-20.19,10.71l26.12-5.14s-5.79-9.39-3.44-14.47L94,41.49c3.91,5.75,8.8,13.72,6.58,14.63C97.06,57.55,85,51.51,85,51.51l15.35,8.85L80,61.54S101.74,61.64,102.6,64.31Z"/><circle class="cls-20" cx="217.9" cy="35.34" r="19.98" transform="translate(38.83 164.43) rotate(-45)"/></g></g></svg>