<svg xmlns="http://www.w3.org/2000/svg" viewBox="0 0 218.47 208.79"><defs><style>.cls-1{fill:#720537;}.cls-2{fill:#841055;}.cls-3{fill:#a0105f;}.cls-4{fill:#93165b;}.cls-5{fill:#600f40;}.cls-6{fill:#db1679;}.cls-7{fill:#9b085f;}.cls-8{fill:#bc0c6c;}.cls-9{fill:#ef3782;}.cls-10{fill:#ff66ac;}.cls-11{fill:#87064d;}.cls-12{fill:#4c0931;}.cls-13{fill:#6b4815;}.cls-14{fill:#8e6d38;}.cls-15{fill:#bc9b61;}.cls-16{fill:#efd8a8;}.cls-17{fill:#db7185;}</style></defs><g id="Layer_2" data-name="Layer 2"><g id="Capa_1" data-name="Capa 1"><path class="cls-1" d="M55.74,95.92c45.52-14.63,58.16-21.49,58.16-21.49l8.34-12.19S91,38.6,64.4,57.85,28.34,85.07,21.91,81.12s-7.52-17.55-11.57-17.2S10.22,110.55,55.74,95.92Z"/><path class="cls-2" d="M73.39,99.77l10-16.65S15.65,50.73,2.22,95.38s38.43,49.94,40.68,68.89,20.65,45.61,36.53,44.48c0,0,3.9.31,2.29-2.77s-4.43-29.32-9.5-38.62-17.91,10.46-19.57,2.51,4-12.19-13.29-25.22S6.26,116.8,16.48,100.47,59.9,88.4,73.39,99.77Z"/><path class="cls-2" d="M54.93,152.48c-1.7.6,19.88,8,19-10.89S97,118,106.78,119.89,104.92,89,104.92,89L94.67,78.59s-42.95,34.16-32.62,53.46S56.64,151.88,54.93,152.48Z"/><path class="cls-3" d="M104.75,161.92C93.83,163.38,78.16,176.51,93.51,184s-7.39-5.89.71-9.24,36.33,3.71,38.88-11.57-19.94-25.86-4.66-36.41-2-19.71-2-19.71L110,103.68s-21.31,22.66-11.88,35.6S115.67,160.46,104.75,161.92Z"/><path class="cls-2" d="M128.44,126.77c12.89-8.89,2.59-16.8-1-19.06-2.89.13-5.81.31-8.73.54a75.38,75.38,0,0,1-12.58,0c-3.83,4.94-9.26,13.12-10.26,20.79a21.39,21.39,0,0,0,4.63,3.78c6,3.6,14.26,4.71,22.87,4.64C122.45,133.81,123.35,130.29,128.44,126.77Z"/><path class="cls-2" d="M133.28,159.83a21.76,21.76,0,0,0-2.5-8.37,177.57,177.57,0,0,1-24.87-1.72c2,2.77,3.38,5.12,3.88,7a177.25,177.25,0,0,0,20.09,2.83C131,159.68,132.16,159.76,133.28,159.83Z"/><path class="cls-4" d="M39.59,115c1.56-1.7,2-3.68.92-4.42s-3.17,0-4.73,1.74-2,3.68-.93,4.42S38,116.69,39.59,115Z"/><path class="cls-5" d="M39.16,114.69c1-1.06,1.21-2.29.55-2.76s-2,0-3,1.06-1.21,2.29-.55,2.76S38.19,115.74,39.16,114.69Z"/><path class="cls-4" d="M48.09,103.69c1.56-1.7,2-3.68.92-4.42s-3.17,0-4.73,1.74-2,3.69-.93,4.43S46.52,105.4,48.09,103.69Z"/><path class="cls-5" d="M47.66,103.39c1-1,1.21-2.29.55-2.75s-2,0-3,1.06S44,104,44.7,104.46,46.69,104.45,47.66,103.39Z"/><path class="cls-4" d="M54.13,91.63c1-2.09.8-4.1-.42-4.5s-3,1-4,3.06-.81,4.1.42,4.5S53.14,93.72,54.13,91.63Z"/><path class="cls-5" d="M53.63,91.47c.62-1.29.49-2.55-.29-2.8s-1.9.6-2.51,1.89-.49,2.54.29,2.79S53,92.76,53.63,91.47Z"/><path class="cls-4" d="M210.35,92.39c.51-2.25-.11-4.18-1.39-4.3s-2.73,1.6-3.25,3.85.1,4.18,1.38,4.31S209.83,94.64,210.35,92.39Z"/><path class="cls-5" d="M209.83,92.34c.32-1.4-.08-2.59-.89-2.67s-1.73,1-2.05,2.39.08,2.59.89,2.67S209.51,93.74,209.83,92.34Z"/><path class="cls-4" d="M173,151.12c3-1.61,4.55-3.8,3.5-4.89s-4.33-.66-7.31,1-4.55,3.8-3.5,4.89S170,152.74,173,151.12Z"/><path class="cls-5" d="M172,150.12c1.85-1,2.81-2.37,2.14-3.06s-2.7-.43-4.55.57-2.81,2.37-2.15,3.06S170.18,151.12,172,150.12Z"/><path class="cls-4" d="M154.41,155.54c3.36-.42,5.62-1.9,5-3.29s-3.79-2.18-7.16-1.76-5.62,1.9-5,3.3S151,156,154.41,155.54Z"/><path class="cls-5" d="M153.86,154.25c2.09-.26,3.48-1.19,3.11-2.07s-2.37-1.38-4.45-1.12-3.48,1.19-3.11,2.07S151.78,154.52,153.86,154.25Z"/><path class="cls-4" d="M136.44,155c3.37-.42,5.62-1.9,5-3.29s-3.79-2.18-7.16-1.76-5.62,1.9-5,3.3S133.07,155.47,136.44,155Z"/><path class="cls-5" d="M135.9,153.75c2.09-.26,3.48-1.19,3.1-2.07s-2.36-1.38-4.45-1.12-3.47,1.19-3.1,2.07S133.81,154,135.9,153.75Z"/><path class="cls-1" d="M170.92,86.52c5.09-39.28-52.66-36.36-52.66-36.36l-9.44,36.21S165.83,125.81,170.92,86.52Z"/><path class="cls-3" d="M65.63,33.26C66,44.13,77.29,42.81,80.9,64.78l14.24,7.5s-3.45-25.7-17.68-32.91-5.28-17.66-5.28-17.66S65.24,22.4,65.63,33.26Z"/><path class="cls-6" d="M103.33,58.79l.28,4.57c.47.1.81.55,1.16.9,1.68-6.05,4.26-19.75-4.89-24.68a21.58,21.58,0,0,0-9.1-2.9c3,1.11,6.44,3.2,7.21,7,.84,4.21.14,7.11-.65,8.76Z"/><path class="cls-6" d="M100.9,69.06C71,51.94,70.28,86.5,70.28,86.5l13.84,6.43S130.79,86.18,100.9,69.06Z"/><path class="cls-4" d="M65,84.53C67.87,83,69.32,80.46,68.24,79s-4.3-1.39-7.18.2-4.34,4.07-3.25,5.55S62.11,86.12,65,84.53Z"/><path class="cls-5" d="M64.55,83.93c1.78-1,2.67-2.53,2-3.47s-2.69-.89-4.48.09-2.67,2.54-2,3.47S62.76,84.92,64.55,83.93Z"/><path class="cls-3" d="M37.28,104.69c4.38,5.08,3-8.64-6.41-7.63s-19.2,16.62-10.17,26.49,26.21,10.46,36.63-.3S83.2,94.79,109.44,107s48.32-2.49,48.32-2.49L116.54,86.25s-50.72-22.37-64.3,5-24.14,29.29-25.71,21S32.91,99.61,37.28,104.69Z"/><path class="cls-6" d="M105.45,105.13l11.18,6.24s.54-7.33-14.2-21.15S64.37,98.6,73,112.87s15,16.42,12,23.26-8.6,3.9-7.73,6.34,8.42,5.14,16-4-2.67-18.95-2-24.59S105.45,105.13,105.45,105.13Z"/><path class="cls-3" d="M93.69,86C80.2,84.29,66,101.23,73,112.87c8.6,14.27,15,16.42,12,23.26s-8.6,3.9-7.73,6.34c.36,1,1.82,2,3.93,2.29l.07,0c14.65-10.15,7-20.82-1.89-34.74C73.8,101.34,84.64,91.9,93.69,86Z"/><path class="cls-3" d="M137.35,27.25C118.87,35,115.28,60.8,115.28,60.8l18.47-8c3.94-22.1,18.83-21.19,18.95-32.07s-9.06-11.3-9.06-11.3S155.83,19.51,137.35,27.25Z"/><path class="cls-3" d="M158.52,54.88c15-2.93,23.86-14.2,30-27.3,5.56-11.76,29.83-1.08,29.91-1.17s-17.24-15.27-29-13.21c-9.09,1.6-17.11,7.87-21.64,15.8-4,6.93-11.05,6.93-18.11,7.93-11,1.55-19.16,7.57-24.5,17-8.16,14.48-8.8,33.6-1.77,49.12l8.83-3.36c3.43-.11,6.87-.15,10.3-.37,2.69-.17,8.78-.82,4.77-4.51-5.15-4.75-4.46-14.92-3.23-21.15C145.64,66.05,150,56.54,158.52,54.88Z"/><path class="cls-6" d="M158.52,54.88c15-2.93,23.86-14.2,30-27.3,5.56-11.76,21.64-6.73,29.91-1.17-.71-1-1.45-1.87-2.21-2.72-9-6.17-22.32-11-32-3.89a46.49,46.49,0,0,0-12.39,13.51c-1.91,3.14-3.69,5.67-7.05,7.33-5.27,2.58-12.48.87-18.19,2a24.63,24.63,0,0,0-19,16.91c-4.43,13.38-1.62,27.74,4.06,40.42l.64-.21c3.43-.11,6.87-.15,10.3-.37,2.69-.17,8.78-.82,4.77-4.51-5.15-4.75-4.46-14.92-3.23-21.15C145.64,66.05,150,56.54,158.52,54.88Z"/><path class="cls-4" d="M137.74,60.62c.58-1.83.92-5.21-1.52-5.82s-4.73,2.37-5.28,4.41c-.43,1.63-.85,5.4,1.67,5.74S137.12,62.61,137.74,60.62Z"/><path class="cls-5" d="M136,60.22c.44-1.18.42-3.31-1-3.6s-3,1.44-3.3,2.73c-.25,1-.47,3.29,1.07,3.57S135.53,61.53,136,60.22Z"/><path class="cls-4" d="M146.73,66.34c.64-1.84,1.05-5.11-1.28-5.92s-4.67,2-5.25,3.94c-.49,1.65-1,5.28,1.42,5.85S146.08,68.22,146.73,66.34Z"/><path class="cls-5" d="M145.08,65.79c.48-1.18.51-3.26-.86-3.67s-2.94,1.21-3.28,2.44c-.29,1.06-.56,3.23.92,3.64S144.58,67,145.08,65.79Z"/><path class="cls-4" d="M132.14,84.1c2.85-.33,4.32-4.36,4.37-6.73,0-2-.63-6.48-3.8-6.07s-4.51,4.43-4.46,6.91C128.29,80.34,129.12,84.45,132.14,84.1Z"/><path class="cls-5" d="M131.64,81.73c1.65-.21,2.69-2.6,2.77-4.21s-.71-3.94-2.44-3.73-2.7,2.55-2.8,4.29C129.09,79.58,129.94,82,131.64,81.73Z"/><path class="cls-4" d="M144.92,78.26c.09-1.87-.42-5.09-2.83-5.15-2.25,0-3.77,3.22-3.77,5.2s.62,5,2.89,5S144.82,80.2,144.92,78.26Z"/><path class="cls-5" d="M143.24,78.23c0-1.07-.3-3.19-1.81-3.17s-2.39,2-2.37,3.22c0,1,.36,3.16,1.83,3.13S143.24,79.44,143.24,78.23Z"/><path class="cls-4" d="M145.5,52.28c2-.31,5.33-1.81,5.2-4.2s-3.81-3.08-5.76-2.73c-2.15.38-5.41,2.08-5.17,4.47S143.55,52.57,145.5,52.28Z"/><path class="cls-5" d="M145.36,50.51c1.36-.22,3.31-1.22,3.22-2.68s-2.27-1.92-3.57-1.7-3.35,1.3-3.22,2.78S144.09,50.72,145.36,50.51Z"/><path class="cls-4" d="M152.47,58.48c1.54-.7,4.44-3.21,3.44-5-1.11-1.94-4.49-.92-6.19-.11s-4.35,3.42-3.31,5.19S150.84,59.23,152.47,58.48Z"/><path class="cls-5" d="M151.78,57.18c1-.44,2.69-2,2.1-3.15S151,53.53,150,54s-2.68,2.14-2.05,3.23S150.79,57.6,151.78,57.18Z"/><path class="cls-4" d="M165.82,47.45c0-1.92-3-2.8-4.78-2.83s-4.78,1.1-4.72,3,3.08,2.7,4.78,2.62S165.81,49.32,165.82,47.45Z"/><path class="cls-5" d="M164,47c0-1-1.33-1.79-3-1.76s-2.95.87-2.93,1.85,1.36,1.71,3,1.69S164,48,164,47Z"/><path class="cls-4" d="M175.26,43.93c1.23-1.33,2.24-3.7.67-5.07s-4.29,0-5.56,1.28-2.06,4-.54,5.11S174,45.3,175.26,43.93Z"/><path class="cls-5" d="M174,43c1.05-1.09,1.22-2.51.36-3.18s-2.42-.32-3.46.79-1.17,2.54-.32,3.19S173,44,174,43Z"/><path class="cls-4" d="M183.4,33.59c1-1.53,1.23-4.13-.5-5.2s-4.33.47-5.31,2-1.18,4.24.6,5.19S182.34,35.14,183.4,33.59Z"/><path class="cls-5" d="M181.93,32.75c.81-1.22.66-2.67-.37-3.24a2.66,2.66,0,0,0-3.31,1.23c-.8,1.25-.61,2.7.4,3.24A2.69,2.69,0,0,0,181.93,32.75Z"/><path class="cls-4" d="M190.64,25.19c1-1.12,2.48-3.41.9-4.59s-4.12,0-5.25,1.31c-1,1.07-2.39,3.49-.8,4.63C186.9,27.55,189.55,26.42,190.64,25.19Z"/><path class="cls-5" d="M189.54,24.34c1-1,1.28-2.29.52-2.87s-2.24-.23-3.28.8-1.23,2.33-.47,2.89S188.5,25.35,189.54,24.34Z"/><path class="cls-3" d="M164.15,83.19c14.52-2.46,21.2-14.63,25.62-30.63s23.68-11.62,23.68-11.62c-16.76-14.08-34.15.65-41.06,16s-22.06-1.55-39.21,19.14-11.1,46.49-11.1,46.49l10.55.35s25.55,7.47,17.81-.77S149.62,85.65,164.15,83.19Z"/><path class="cls-6" d="M164.15,83.19c14.52-2.46,21.2-14.63,25.62-30.63s23.68-11.62,23.68-11.62c-.72-.6-1.43-1.15-2.15-1.65-7.19-1.83-18.31-2.65-25.72,6.35-11.75,14.25-8.71,19-15.65,23.18S145,62.9,134.52,82.27c-8.22,15.2-4.6,33.45-2.65,40.64l.76,0s25.55,7.47,17.81-.77S149.62,85.65,164.15,83.19Z"/><path class="cls-4" d="M143.94,86.18c1.27-2.5.9-5.24-.83-6.12S139,80.5,137.69,83s-.91,5.24.82,6.12S142.66,88.68,143.94,86.18Z"/><path class="cls-5" d="M142.34,85.37c.79-1.55.54-3.26-.55-3.81s-2.61.25-3.4,1.8-.54,3.25.55,3.81S141.55,86.92,142.34,85.37Z"/><path class="cls-4" d="M152.17,93.6c1.27-2.5.9-5.24-.82-6.11s-4.16.43-5.43,2.93-.9,5.24.82,6.12S150.9,96.1,152.17,93.6Z"/><path class="cls-5" d="M150.58,92.79c.78-1.55.54-3.25-.55-3.81s-2.62.25-3.41,1.8-.54,3.26.55,3.81S149.79,94.34,150.58,92.79Z"/><path class="cls-4" d="M140.74,102.4c.69-3.41-.65-6.56-3-7s-4.82,1.9-5.51,5.3.65,6.55,3,7S140,105.8,140.74,102.4Z"/><path class="cls-5" d="M138.57,102c.43-2.11-.43-4.06-1.92-4.36s-3,1.16-3.47,3.27.43,4.06,1.92,4.37S138.14,104.06,138.57,102Z"/><path class="cls-4" d="M149.34,105.19c.56-2.75-.52-5.29-2.42-5.67s-3.88,1.52-4.44,4.27.52,5.29,2.42,5.68S148.78,107.94,149.34,105.19Z"/><path class="cls-5" d="M147.59,104.83c.35-1.7-.34-3.28-1.54-3.52s-2.46.94-2.8,2.64.34,3.28,1.54,3.53S147.25,106.54,147.59,104.83Z"/><path class="cls-4" d="M157,75.81c0-1.93-2.3-3.48-5.11-3.46s-5.06,1.61-5,3.55,2.3,3.48,5.11,3.46S157,77.75,157,75.81Z"/><path class="cls-5" d="M155.08,75.33c0-1.23-1.42-2.21-3.16-2.19s-3.14,1-3.13,2.24,1.43,2.21,3.16,2.19S155.09,76.55,155.08,75.33Z"/><path class="cls-4" d="M158.24,86.44c2.56-1.14,4.11-3.27,3.45-4.76s-3.28-1.77-5.84-.64-4.11,3.27-3.45,4.75S155.67,87.57,158.24,86.44Z"/><path class="cls-5" d="M157.63,85.06c1.59-.7,2.54-2,2.12-3s-2-1.14-3.63-.43-2.54,2-2.12,3S156,85.76,157.63,85.06Z"/><path class="cls-4" d="M171,75.67c0-1.55-2-2.8-4.41-2.78s-4.38,1.3-4.36,2.86,2,2.8,4.41,2.78S171,77.23,171,75.67Z"/><path class="cls-5" d="M169.31,75.29c0-1-1.23-1.78-2.74-1.77s-2.71.82-2.7,1.81,1.23,1.78,2.73,1.76S169.32,76.27,169.31,75.29Z"/><path class="cls-4" d="M179.47,71.38c1.43-1.95,1.57-4.29.32-5.21s-3.44-.09-4.87,1.86-1.58,4.29-.33,5.21S178,73.33,179.47,71.38Z"/><path class="cls-5" d="M178.3,70.52c.89-1.21,1-2.66.18-3.24s-2.16-.08-3,1.13-1,2.66-.17,3.25S177.42,71.73,178.3,70.52Z"/><path class="cls-4" d="M185.93,59.69c1-2.22.61-4.53-.82-5.15s-3.37.66-4.35,2.87-.61,4.53.82,5.15S185,61.9,185.93,59.69Z"/><path class="cls-5" d="M184.61,59.11c.61-1.38.36-2.81-.54-3.21s-2.12.4-2.73,1.77-.36,2.81.54,3.21S184,60.48,184.61,59.11Z"/><path class="cls-4" d="M191.25,49.67c1.22-2,1.35-4.18.29-4.82s-2.91.48-4.13,2.51-1.34,4.18-.28,4.82S190,51.69,191.25,49.67Z"/><path class="cls-5" d="M190.27,49.08c.76-1.25.82-2.6.15-3s-1.82.28-2.58,1.54-.82,2.6-.15,3S189.52,50.33,190.27,49.08Z"/><path class="cls-3" d="M183.07,94.63c-26.63-19-55.21,1.45-55.21,1.45l-1.09,21.48,60.37-1c1.15,0,28-5,28-19.63s-12-15.26-12-15.26C211.53,85,209.7,113.66,183.07,94.63Z"/><path class="cls-6" d="M183.07,94.63a42.73,42.73,0,0,0-32.68-7.46l.5,7.62s24.82,4.82,39.23,11.46C200.45,111,212,98.4,211.91,86.33a13.23,13.23,0,0,0-8.73-4.62C211.53,85,209.7,113.66,183.07,94.63Z"/><path class="cls-7" d="M142.17,106.29c17.45-6.24-.87-25.82-.87-25.82L119.78,68s-16.59,5-15.58,14.83S113.4,116.58,142.17,106.29Z"/><path class="cls-8" d="M120.7,91.45l1.85,2.64,1.7-1.64.55,2.73s5.9,4,10.31,2.27c2.85-1.13,8.75-6.53,12.44-10.16L123.82,64.07a48.2,48.2,0,0,0-9.42,14.11c.34,3.72,1.41,9.87,4.78,12.43l.44-.59-.35,1.89Z"/><path class="cls-8" d="M148,87.73l.83,1.35.25-.3Z"/><ellipse class="cls-9" cx="138.39" cy="76.45" rx="17.95" ry="21.86" transform="translate(-19.17 89.58) rotate(-33.68)"/><path class="cls-10" d="M153.33,66.5c-6.7-10-18.81-13.73-27.06-8.24a15.11,15.11,0,0,0-4,4,15.09,15.09,0,0,1,3.21-2.9c8.25-5.5,20.37-1.81,27.06,8.24,5.39,8.08,5.63,17.81,1.23,24.17C159,85.45,159,75.05,153.33,66.5Z"/><ellipse class="cls-6" cx="138.44" cy="76.39" rx="15.11" ry="18.8" transform="matrix(0.83, -0.55, 0.55, 0.83, -19.12, 89.6)"/><path class="cls-8" d="M125.87,84.77c5.76,8.64,16,11.89,23,7.26a12.42,12.42,0,0,0,3.5-3.54,12.19,12.19,0,0,1-2.46,2.17c-6.95,4.63-17.24,1.38-23-7.26-4.58-6.87-4.91-15.08-1.36-20.48C120.94,68.22,120.88,77.29,125.87,84.77Z"/><path class="cls-11" d="M146.25,89.79c5.45-3.64,6.05-12.33,1.33-19.41s-13-9.88-18.42-6.25-6,12.32-1.33,19.41S140.8,93.42,146.25,89.79Z"/><path class="cls-12" d="M142.48,87.66c3.33-2.23,3.31-8.11,0-13.14s-8.78-7.32-12.11-5.1-3.32,8.11,0,13.14S139.14,89.88,142.48,87.66Z"/><path class="cls-13" d="M133.89,76.82a1.24,1.24,0,0,0-.47.34l1.2.74.78-1A2,2,0,0,0,133.89,76.82Z"/><path class="cls-13" d="M135.44,76.9l.57,1.7,1.21-.4A5,5,0,0,0,135.44,76.9Z"/><path class="cls-13" d="M133,78.68a5.16,5.16,0,0,0,.81,2.28,6.4,6.4,0,0,0,.64.88l.57-1-1.51-.55.84-1Z"/><path class="cls-13" d="M137.43,83.43a1.41,1.41,0,0,0,.46-.11c1.15-.49,1.18-2.34.08-4.14a8.66,8.66,0,0,0-.6-.82l-.43,1.3,1.53.57-.94.82,1.19,1.11-1.21.24S137.43,83.21,137.43,83.43Z"/><path class="cls-13" d="M133,78.66l1.15-.46-.74-1A2,2,0,0,0,133,78.66Z"/><path class="cls-13" d="M135.93,83.05a2.76,2.76,0,0,0,1.48.39c-.16-.21-.84-1-.84-1Z"/><path class="cls-13" d="M135.75,81.69l-1.24.2a5.72,5.72,0,0,0,1.31,1.1Z"/><path class="cls-14" d="M132.82,73.54a2.31,2.31,0,0,0-.84.6l2.16,1.33,1.39-1.82A3.57,3.57,0,0,0,132.82,73.54Z"/><path class="cls-14" d="M135.6,73.67l1,3.06,2.17-.73A8.93,8.93,0,0,0,135.6,73.67Z"/><path class="cls-14" d="M131.25,76.88A9.18,9.18,0,0,0,132.69,81a11.69,11.69,0,0,0,1.16,1.58l1-1.86-2.72-1L133.67,78Z"/><path class="cls-14" d="M139.18,85.42a2.58,2.58,0,0,0,.84-.2c2.06-.89,2.12-4.22.13-7.44a11.72,11.72,0,0,0-1.08-1.48l-.77,2.33,2.76,1-1.69,1.48,2.13,2-2.16.44S139.18,85,139.18,85.42Z"/><path class="cls-14" d="M132,74.15a3.67,3.67,0,0,0-.72,2.69l2.06-.82Z"/><path class="cls-14" d="M137.63,83.68l-1.15,1a4.92,4.92,0,0,0,2.66.7C138.86,85.05,137.63,83.68,137.63,83.68Z"/><path class="cls-14" d="M136.17,82.29l-2.24.35a10,10,0,0,0,2.37,2Z"/><path class="cls-15" d="M144.2,85l-3.44-1.34L138.94,87a5.55,5.55,0,0,0,4.1-.74A4.31,4.31,0,0,0,144.2,85Z"/><path class="cls-15" d="M133.67,84.4a11.59,11.59,0,0,0,5.17,2.53l-2-4.38Z"/><path class="cls-15" d="M144.89,80.52a12.92,12.92,0,0,0-2.78-5.84,15.27,15.27,0,0,0-2-2l-1.25,3.21,4.22.62-2,3.14Z"/><path class="cls-15" d="M131.69,70a4.68,4.68,0,0,0-1.23.6c-3,2-2.54,7.22.93,11.53A15.37,15.37,0,0,0,133.23,84l.8-3.87-4.29-.67,2.32-2.84-3.51-2.37,3.19-1.39S131.75,70.6,131.69,70Z"/><path class="cls-15" d="M144.9,80.58l-3,2L144.22,85A6.28,6.28,0,0,0,144.9,80.58Z"/><path class="cls-15" d="M135.85,70.16a6.92,6.92,0,0,0-4.1-.19c.48.49,2.53,2.18,2.53,2.18Z"/><path class="cls-15" d="M136.14,70.26l.54,3.56,3.32-1.3A12.73,12.73,0,0,0,136.14,70.26Z"/><path class="cls-16" d="M129.78,66.59A6.47,6.47,0,0,0,128,68.27l4.41,1.87,2.94-4.57A7.53,7.53,0,0,0,129.78,66.59Z"/><path class="cls-16" d="M135.52,65.59l2,6.1,4.51-2.57A13.66,13.66,0,0,0,135.52,65.59Z"/><path class="cls-16" d="M126.43,74.51a16.64,16.64,0,0,0,2.85,8.14,18.83,18.83,0,0,0,2.34,2.84L133.79,81l-5.58-.87,3.18-4.37Z"/><path class="cls-16" d="M142.55,89.2a6.78,6.78,0,0,0,1.74-.83c4.28-2.85,4.51-10,.5-16.06a18.18,18.18,0,0,0-2.18-2.68L141,75l5.67.94-3.55,4,4.35,3.3-4.49,2S142.57,88.35,142.55,89.2Z"/><path class="cls-16" d="M126.43,74.43l4.29-2.73L128,68.31A9.68,9.68,0,0,0,126.43,74.43Z"/><path class="cls-16" d="M139.41,86.17,137,89a8.84,8.84,0,0,0,5.47.27C141.91,88.54,139.41,86.17,139.41,86.17Z"/><path class="cls-16" d="M131.8,85.66a14.76,14.76,0,0,0,4.83,3.15l-.19-5Z"/><path class="cls-3" d="M85.94,69.25c-5.49,26.31,11.92,46.28,11.92,46.28l9.49-4.62s26.08-5.34,15.39-9S105,70,116.63,61,128.54,38.2,125,22,140.46.64,140.46.64C119.07-4,110.58,17.18,111.65,34S91.43,42.93,85.94,69.25Z"/><path class="cls-6" d="M90,74.08c-.17,17.28,11.57,31.72,16.65,37.16l.68-.33s26.08-5.34,15.39-9S105,70,116.63,61,128.54,38.2,125,22,140.46.64,140.46.64c-.91-.2-1.8-.34-2.66-.45C130.58,1.94,120.37,6.41,118,17.83c-3.71,18.09,1.2,20.87-3,27.81S90.24,52,90,74.08Z"/><path class="cls-4" d="M100.17,73.13c0-2.8-1.65-5-3.59-5s-3.47,2.33-3.42,5.13,1.65,5.06,3.58,5S100.21,75.94,100.17,73.13Z"/><path class="cls-5" d="M98.38,73.16c0-1.74-1-3.13-2.27-3.11s-2.19,1.44-2.17,3.18,1,3.13,2.27,3.11S98.41,74.9,98.38,73.16Z"/><path class="cls-4" d="M110.92,75.85c0-2.81-1.65-5.06-3.59-5s-3.47,2.33-3.42,5.14,1.65,5.05,3.58,5S111,78.65,110.92,75.85Z"/><path class="cls-5" d="M109.13,75.87c0-1.73-1-3.13-2.27-3.11s-2.19,1.45-2.17,3.18,1,3.14,2.27,3.12S109.16,77.61,109.13,75.87Z"/><path class="cls-4" d="M102.53,96.22c2.3-.67,3.37-3.92,2.39-7.26s-3.63-5.49-5.94-4.81-3.37,3.92-2.39,7.26S100.23,96.9,102.53,96.22Z"/><path class="cls-5" d="M101.26,94.1c1.45-.42,2.14-2.45,1.54-4.51s-2.28-3.4-3.74-3-2.14,2.45-1.54,4.51S99.8,94.53,101.26,94.1Z"/><path class="cls-4" d="M111.9,93.27c1.86-.54,2.73-3.17,1.94-5.86S110.9,83,109,83.52s-2.72,3.17-1.93,5.86S110.05,93.82,111.9,93.27Z"/><path class="cls-5" d="M110.88,91.56c1.17-.35,1.73-2,1.24-3.65s-1.84-2.74-3-2.39-1.73,2-1.24,3.64S109.7,91.9,110.88,91.56Z"/><path class="cls-4" d="M104.08,63.35c2.47-1.33,3.72-3.79,2.81-5.5s-3.67-2-6.14-.67S97,61,98,62.68,101.61,64.68,104.08,63.35Z"/><path class="cls-5" d="M103.23,61.78c1.53-.83,2.3-2.37,1.72-3.45s-2.3-1.28-3.82-.46-2.3,2.37-1.72,3.45S101.7,62.6,103.23,61.78Z"/><path class="cls-4" d="M112.93,66.67c1.74-2.2,2.11-4.8.83-5.81s-3.73,0-5.46,2.16-2.11,4.81-.83,5.82S111.19,68.88,112.93,66.67Z"/><path class="cls-5" d="M111.75,65.74c1.07-1.36,1.29-3,.48-3.62s-2.34,0-3.41,1.31-1.3,3-.49,3.63S110.67,67.11,111.75,65.74Z"/><path class="cls-4" d="M116.64,55.77c2.13-1.15,3.26-3.19,2.52-4.57s-3.07-1.55-5.2-.4-3.26,3.2-2.52,4.57S114.51,56.92,116.64,55.77Z"/><path class="cls-5" d="M116,54.5c1.32-.71,2-2,1.54-2.86s-1.92-1-3.24-.28-2,2-1.54,2.86S114.64,55.22,116,54.5Z"/><path class="cls-4" d="M124.65,43.44c.36-2.4-.6-4.53-2.14-4.75s-3.09,1.52-3.44,3.92.61,4.52,2.15,4.75S124.3,45.83,124.65,43.44Z"/><path class="cls-5" d="M123.23,43.23c.22-1.49-.39-2.81-1.37-2.95s-1.94.94-2.16,2.42.39,2.81,1.36,2.95S123,44.71,123.23,43.23Z"/><path class="cls-4" d="M122.4,34.66c1.56-.11,2.68-2.16,2.5-4.58s-1.57-4.28-3.13-4.17-2.67,2.16-2.5,4.58S120.85,34.77,122.4,34.66Z"/><path class="cls-5" d="M121.88,33c1-.07,1.69-1.34,1.59-2.83s-1-2.66-2-2.59S119.8,29,119.9,30.44,120.9,33.1,121.88,33Z"/><path class="cls-4" d="M124.93,18.74c.13-2.36-.77-4.33-2-4.39s-2.34,1.78-2.47,4.14.76,4.32,2,4.39S124.8,21.09,124.93,18.74Z"/><path class="cls-5" d="M123.78,18.67c.08-1.46-.48-2.68-1.27-2.72S121,17.06,121,18.52s.49,2.68,1.27,2.72S123.7,20.14,123.78,18.67Z"/><path class="cls-3" d="M155.78,141.72c-19.61,8.35-63.81.44-68.43-2.35s-.41,10.31,43.72,14.18S201.52,139,192.93,120.8s-40.11-21.11-73-18.58-29.11-12.7-29.11-12.7l-2.06-3.4c-2.57.33-3.22,31,13,40.71s49.53,1.22,59.82.48S175.39,133.38,155.78,141.72Z"/><path class="cls-6" d="M105.1,58.53l0,0Z"/><path class="cls-6" d="M104.52,56.18v0Z"/><path class="cls-17" d="M189.22,50.13l0,0Z"/><path class="cls-17" d="M189.39,52.54l0,0Z"/><path class="cls-6" d="M140.76,154.06c38.22.57,60.11-16.46,52.17-33.26-8.59-18.18-40.11-21.11-73-18.58-3.09.24-5.85.32-8.32.27,3.79,5.83,12.6,12.07,32.85,12.79,38.94,1.38,45.7,12.43,39.88,24C180.64,146.6,157.25,151.48,140.76,154.06Z"/><path class="cls-4" d="M139,110.47c3.31-1.07,5.39-3.79,4.65-6.07s-4-3.26-7.32-2.19-5.39,3.78-4.65,6.06S135.67,111.54,139,110.47Z"/><path class="cls-5" d="M138.68,109.54c2-.66,3.33-2.37,2.86-3.81s-2.5-2.08-4.55-1.42-3.33,2.37-2.86,3.82S136.63,110.2,138.68,109.54Z"/><path class="cls-4" d="M88.4,115c1.11-.83,1-2.8-.14-4.42s-3.07-2.25-4.18-1.43-1,2.8.14,4.41S87.28,115.84,88.4,115Z"/><path class="cls-5" d="M87.29,114.12c.7-.52.68-1.76-.06-2.76s-1.91-1.39-2.62-.87-.67,1.76.06,2.76S86.58,114.64,87.29,114.12Z"/><path class="cls-4" d="M83.44,73.64c.94-1.77.72-3.73-.5-4.38s-3,.25-3.93,2-.71,3.74.51,4.39S82.5,75.41,83.44,73.64Z"/><path class="cls-5" d="M82.31,73c.59-1.1.43-2.32-.34-2.73s-1.87.14-2.46,1.24-.43,2.32.34,2.73S81.73,74.14,82.31,73Z"/><path class="cls-4" d="M93.06,124.71c1.23-.63,1.49-2.59.58-4.38s-2.65-2.72-3.88-2.1-1.5,2.59-.59,4.38S91.82,125.34,93.06,124.71Z"/><path class="cls-5" d="M92.11,123.64c.78-.4,1-1.62.39-2.73s-1.65-1.68-2.43-1.28-1,1.62-.39,2.72S91.33,124,92.11,123.64Z"/><path class="cls-4" d="M96.45,131.8c.41-2-.36-3.78-1.71-4.07s-2.79,1.08-3.2,3,.36,3.78,1.71,4.07S96,133.77,96.45,131.8Z"/><path class="cls-5" d="M95.2,131.54c.25-1.22-.24-2.35-1.1-2.53s-1.76.67-2,1.88.23,2.35,1.09,2.53S94.94,132.76,95.2,131.54Z"/><path class="cls-4" d="M156.17,111.91c3.31-1.07,5.39-3.79,4.65-6.07s-4-3.26-7.32-2.19-5.39,3.78-4.65,6.07S152.87,113,156.17,111.91Z"/><path class="cls-5" d="M155.87,111c2-.66,3.33-2.37,2.87-3.81s-2.51-2.08-4.56-1.41-3.33,2.37-2.86,3.81S153.82,111.65,155.87,111Z"/><path class="cls-4" d="M181.6,112.26c.3-2.37-2.24-4.66-5.69-5.11s-6.49,1.12-6.79,3.5,2.23,4.67,5.68,5.11S181.29,114.64,181.6,112.26Z"/><path class="cls-5" d="M179.14,112.57c.2-1.5-1.38-2.95-3.51-3.22s-4,.72-4.22,2.22,1.38,3,3.51,3.23S179,114.08,179.14,112.57Z"/><ellipse class="cls-4" cx="190.28" cy="123.24" rx="4.34" ry="6.29" transform="translate(-29.91 69.28) rotate(-19.16)"/><path class="cls-5" d="M191,127.12c1.43-.49,2-2.55,1.31-4.58s-2.44-3.28-3.87-2.78-2,2.55-1.32,4.58S189.54,127.62,191,127.12Z"/><path class="cls-4" d="M191.4,139.61c1.93-2.79,2.34-5.45.91-6s-4.15,1.37-6.09,4.16-2.34,5.45-.91,6S189.47,142.4,191.4,139.61Z"/><path class="cls-5" d="M190.08,139.15c1.2-1.73,1.44-3.38.53-3.7s-2.61.84-3.8,2.57-1.44,3.38-.53,3.7S188.88,140.88,190.08,139.15Z"/><path class="cls-4" d="M169.68,90.28c.09-1.57-2.08-3.26-4.84-3.78s-5.08.32-5.17,1.89,2.08,3.25,4.85,3.77S169.59,91.84,169.68,90.28Z"/><path class="cls-5" d="M167.75,90.32c.06-1-1.28-2-3-2.37s-3.15.21-3.21,1.2,1.29,2,3,2.38S167.7,91.31,167.75,90.32Z"/><path class="cls-4" d="M182.2,95.94c.43-1.5-1.3-3.64-3.88-4.77s-5-.82-5.45.68,1.29,3.64,3.87,4.77S181.76,97.44,182.2,95.94Z"/><path class="cls-5" d="M180.31,95.55c.28-1-.79-2.29-2.39-3s-3.11-.49-3.39.46.79,2.29,2.39,3S180,96.5,180.31,95.55Z"/><path class="cls-4" d="M193.75,102.81c.44-1.5-1.29-3.63-3.87-4.76s-5-.83-5.45.68,1.29,3.63,3.87,4.76S193.31,104.32,193.75,102.81Z"/><path class="cls-5" d="M191.87,102.42c.27-1-.8-2.28-2.39-3s-3.12-.5-3.39.45.79,2.29,2.38,3S191.59,103.37,191.87,102.42Z"/><path class="cls-4" d="M193.46,102.44c.44-1.51-1.3-3.64-3.87-4.77s-5-.82-5.46.68,1.3,3.63,3.87,4.76S193,103.94,193.46,102.44Z"/><path class="cls-5" d="M191.57,102.05c.28-1-.79-2.29-2.39-3s-3.11-.5-3.39.45.8,2.29,2.39,3S191.3,103,191.57,102.05Z"/><path class="cls-4" d="M203.87,102.09c1.56-1.7,2-3.68.93-4.42s-3.18,0-4.74,1.74-2,3.69-.92,4.43S202.31,103.8,203.87,102.09Z"/><path class="cls-5" d="M203.44,101.79c1-1.05,1.22-2.29.55-2.75s-2,0-3,1.06-1.21,2.29-.55,2.75S202.47,102.85,203.44,101.79Z"/><path class="cls-3" d="M129.44,122.47c1.93,0,34.36,1,34.36,1l13.88,9s13.78-10.1-18.93-15.8-32.9-17.5-32.9-17.5C93.81,108.87,88,78.28,88,78.28l4.78,30.61s9.52,5,11.48,6.25S127.51,122.5,129.44,122.47Z"/><path class="cls-3" d="M69.51,179.19c3.53,4.88,4.9,23.62,5.59,29.22a14.8,14.8,0,0,0,4.33.34s3.9.31,2.29-2.77-4.43-29.32-9.5-38.62c-4.35-8-14.38,5.38-18.22,4.39,1.08,5.72,4,18,9.33,19.51C70.31,193.27,65.36,173.47,69.51,179.19Z"/><path class="cls-3" d="M89.45,110.14c7.16,13.4,9.17,5.84,9.13,3.71s-5.1-16.91-7.07-19.39S83.81,84,83.81,84l-27,28.23S82.28,96.74,89.45,110.14Z"/><path class="cls-2" d="M32.07,97a9.8,9.8,0,0,0-1.2,0c-9.43,1-19.2,16.62-10.17,26.49s26.21,10.46,36.63-.3c5.92-6.12,13.48-14.48,23.72-18.32-8.29-2.73-19,5.11-26.25,12.13-8.93,8.64-25.31,10.64-31.88-1.8C18,105.87,27.22,99.55,32.07,97Z"/></g></g></svg>