<svg xmlns="http://www.w3.org/2000/svg" viewBox="0 0 247.35 379.46"><defs><style>.cls-1{isolation:isolate;}.cls-2{fill:#1c5680;}.cls-3{fill:#6f8da7;}.cls-4{fill:#8dacc1;}.cls-5{fill:#698198;}.cls-6{fill:#b8dff2;}.cls-7{fill:#92cbeb;}.cls-8{fill:#edf8ff;}.cls-9{fill:#315a73;}.cls-10{fill:#2a4e63;}.cls-11{fill:#c7e4f5;}.cls-12{fill:#bcd3e8;}.cls-13{fill:#d5ebf9;}.cls-14{fill:#d48943;}.cls-15{fill:#f9cb48;}.cls-16{fill:#2c5066;}.cls-17{fill:#f9ba4d;}.cls-18{fill:#8bb3c9;}.cls-19{fill:#1f5e8c;}.cls-20{fill:#ffd661;}.cls-21{fill:#ffb78c;}.cls-22{fill:#aad4e8;}.cls-23{fill:#7da5bd;}.cls-24{fill:#d8e2e8;mix-blend-mode:multiply;}.cls-25{fill:#add6ec;}.cls-26{fill:#def4ff;}.cls-27{fill:#ffd059;}</style></defs><g class="cls-1"><g id="Layer_2" data-name="Layer 2"><g id="Layer_1-2" data-name="Layer 1"><path class="cls-2" d="M34.68,153.54q-1.4,9.06-2.42,18.2c-3.52,32-14.19,56.82-17,88.92-2.07,23.63-1.46,58.79-13.7,85.69,29.74,1.34,44.42-1.19,63.3-12.08,16.19-9.34,38.52-8.53,55.61-3.33,12.57,3.82,14.42,8.23,27.41,11.74,20.69,5.6,28.86,2.77,42,2.24-7.06-27.9-6.35-59.86-10.69-87.85-3.9-25.18-12.39-51.9-18.63-76.93-7.58-30.43-9.43-45-13.54-77.64-1.51-11.94-7.4-23.82-17.6-28.09-4.72,6.53-12.6,3.88-23.22,8.71C96.62,87.45,94.92,85,85.22,81.63c-6.42-2.21-14.88-11.29-21.9-8.31C52.33,78,45.41,101,42.74,112.45,39.58,126,36.82,139.72,34.68,153.54Z"/><path class="cls-3" d="M71.72,281.27S71,344.9,68.09,350.46s-36.41,27.7-28.42,28.91,49.72-10.28,52.62-19S92.05,348,94,339.09s9-56.37,4.11-57.58S71.72,281.27,71.72,281.27Z"/><path class="cls-3" d="M124,283.69s-13.55,57.33-10.64,62.9,44.51,21.77,36.77,25.64c-7.22,3.62-52.26-2.42-55.16-11.12s-1.85-13.07-3.79-22,.4-57.58,5.24-58.79S124,283.69,124,283.69Z"/><polygon class="cls-3" points="63.98 230.94 67.78 267.23 83 272.56 98.84 268.69 108.35 232.4 81.73 214.49 63.98 230.94"/><polygon class="cls-3" points="138.36 233.83 127.94 269.18 113.17 272.57 99.59 266.81 97.99 229.82 125.49 215.41 138.36 233.83"/><path class="cls-4" d="M111.42,263.85s7.4-6.78,15.8-5.33,7.9,5.81,6.91,14.52-6.42,18.39-11.35,20.32-13.34-2.42-17.29-5.32a48.05,48.05,0,0,1-6.91-6.29l1.36-14.94S96.11,256.59,111.42,263.85Z"/><path class="cls-4" d="M89.13,263.85s-7.41-6.78-15.8-5.33-7.91,5.81-6.92,14.52,6.42,18.39,11.36,20.32S91.1,290.94,95.05,288a48.47,48.47,0,0,0,6.92-6.29l-1.36-14.94S104.43,256.59,89.13,263.85Z"/><path class="cls-5" d="M177.9,159.61c-3.23-10.42,7.78-11.92,14.74-12.7,2.4-.27,6.86,1,9.06,2.16,3.88,2,2.7,9.55,1.6,13C199.07,175.4,181.51,171.24,177.9,159.61Z"/><path class="cls-3" d="M152.53,125.34s.79-4.72,4.06-3.27,3.39,5.52,6,6.29c2.49.72,10.52,10.68,14.27,14.27,5.81,5.57,11,4.59,9.92,6.29a77.62,77.62,0,0,0-6.53,14.76s-30.05-7.26-40.16-17.18c-9.44-9.25,5.86-18.26,5.86-18.26Z"/><path class="cls-6" d="M111.83,174.33s9.73,125.54,16.45,136.93c1.57,2.66,34-15.56,36.29-21.29s-25.3-125.28-30-132.84S111.83,174.33,111.83,174.33Z"/><path class="cls-6" d="M94.41,172.39S93.33,179,91.57,189.3c-.4,2.36-.84,4.92-1.31,7.64C83.45,236.36,70.14,309.71,64.9,313.2c-2.43,1.61-29.57-15.11-31.46-21.29-.85-2.82,5.8-30.26,13.78-60q1.14-4.24,2.31-8.54C57,196,65.09,168.51,69.1,157.84A25.09,25.09,0,0,1,71,153.57c2.87-4.23,9.71,2,15.26,8.33A132.77,132.77,0,0,1,94.41,172.39Z"/><path class="cls-7" d="M70.81,268.2S93.66,320,97.23,318.52s28.58-44.49,29-49.56-7.93-96.45-7.93-96.45l-25.75-5.08c5.71-10.48,2.44-26.71-5.87,2.06C84.28,177.73,80.32,178.2,70.81,268.2Z"/><path class="cls-8" d="M118.28,172.51,112.81,169c0,6.59,1.32,11.62,3.43,33.39.83,8.55,6.9,54.82,3.17,65.81-4.75,14-14.72,37.07-21.66,39.19-2.06.63-18.52-33.19-19.54-40.64-1.06-7.75,1.1-29.67,3.17-45.49.58-4.45,6.54-53.26,9-53.22-1.85,0-2.13,2.46-4,2.37-2.41,7.49-7.74,11.5-16.89,98,0,0,23.91,53.22,27.47,51.77s29.72-45.73,30.11-50.8S118.28,172.51,118.28,172.51Z"/><path class="cls-9" d="M150.6,97.88s1.93,18.71,4.83,25.64c5.88,14-16.45,24.2-22.74,18.39s-5.8-56.61-5.8-56.61-5.65-12.58-2.6-13.43C149,65,150.6,97.88,150.6,97.88Z"/><path class="cls-10" d="M47.91,97.88S46,116.59,43.07,123.52c-5.87,14,16.45,24.2,22.74,18.39S71.62,85.3,71.62,85.3s5.64-12.58,2.59-13.43C49.54,65,47.91,97.88,47.91,97.88Z"/><path class="cls-11" d="M140.26,116.5c-3.13,22.58-4.78,37.87-4.78,37.87s-3.44,7.13-26,8.22c-.48,0-1,0-1.49.06-2.08.08-4.31.1-6.71.07-5.94-.09-10.88-.39-15-.82-9.42-1-14.47-2.67-17.15-4.06a11.52,11.52,0,0,1-1.23-.72,4.54,4.54,0,0,1-1.74-1.67s-1-43.38-3.24-63.38a46.67,46.67,0,0,0-1.56-8.77c-3.39-9.2,19-18.21,27.21-15.79s25.47,2.72,25.95-.18,20.81,7.08,21.78,10C136.27,77.31,144.52,85.77,140.26,116.5Z"/><polygon class="cls-8" points="122.26 79.24 78.95 78.51 85.5 159.22 117.02 162.61 122.26 79.24"/><polygon class="cls-7" points="116.94 79.24 83.79 78.76 88.93 159.27 112.89 162.54 116.94 79.24"/><path class="cls-12" d="M247.35,52.94l-1.89-23.65a2.34,2.34,0,0,0-3.83-1.62L223.2,43l-35.26,94.85,17,7Z"/><path class="cls-13" d="M243.82,27.26a2.32,2.32,0,0,0-2.19.41L223.2,43l-35.26,94.85,8.72,3.6Z"/><rect class="cls-14" x="174.83" y="154.17" width="29.76" height="9.07" transform="translate(-29.41 273.45) rotate(-67.55)"/><path class="cls-15" d="M214.75,152.76a1.64,1.64,0,0,1-2.14.88l-35-14.45a2.6,2.6,0,0,1-1.41-3.4l.83-2a2.48,2.48,0,0,1,3.24-1.35l34.77,14.37a2,2,0,0,1,1.08,2.6Z"/><path class="cls-15" d="M190.39,175a7,7,0,1,1-3.8-9.17A7,7,0,0,1,190.39,175Z"/><path class="cls-16" d="M113.13,56.75c-3.36.44-6.72.92-10.08,1.33a39.36,39.36,0,0,1-8.4-.2c-1.09-.1-8.8-1.65-9.17-1.13L77.05,68.54s9.11,10,19.37,10.23c1.2,0,4.57,0,5.77,0,10.26-.23,19.37-10.23,19.37-10.23Z"/><path class="cls-5" d="M200.66,167.09c2.74-2.8,9.67-16.41,4.16-18-2-.55-5.14.36-7.11,1.4-4.69,2.49-6.44,6-5.4,11.6C193.16,166.71,196.32,171.54,200.66,167.09Z"/><path class="cls-3" d="M186.08,153.3c-3,.18-8.57-1.87-4.36-4.73,2.66-1.8,6.34-1.85,9.32-2.82s7.44-1.74,5,2.89C194.41,151.73,189.32,153.11,186.08,153.3Z"/><polygon class="cls-15" points="188.65 135.98 207.16 116.02 205.76 143 188.65 135.98"/><polygon class="cls-17" points="207.16 116.02 205.76 143 197.69 139.69 207.16 116.02"/><path class="cls-18" d="M130.51,63.74c3.77-2.82,7.15-.77,10.82,1.46C146,68,150,72,154.83,74.52c4.51,2.37,6.25,5,8.14,8.83,1.33,16-6.69,16.48-20.67,13.78A32.15,32.15,0,0,1,127.11,89C118.17,81,121.28,70.67,130.51,63.74Z"/><path class="cls-11" d="M161.63,96c20.23-5-10.53-35.29-24.46-33.34a9.39,9.39,0,0,0-4.69,2.15c-6.22,5-7.69,13.67-2.58,19.3C135.48,90.25,152.59,98.2,161.63,96Z"/><path class="cls-18" d="M70.39,63.74c-3.74-2.82-7.1-.77-10.74,1.46C55,68,51.08,72,46.25,74.52c-4.47,2.37-6.2,5-8.07,8.83-1.32,16,6.64,16.48,20.51,13.78A31.86,31.86,0,0,0,73.76,89C82.63,81,79.54,70.67,70.39,63.74Z"/><path class="cls-11" d="M39.51,96C19.44,91,50,60.68,63.78,62.63a9.34,9.34,0,0,1,4.66,2.15c6.16,5,7.62,13.67,2.56,19.3C65.45,90.25,48.48,98.2,39.51,96Z"/><path class="cls-19" d="M67,68.53C63.9,66.1,60,64.71,56.33,63.63c-3.8-1.12,2-8.14,4.83-8.29,1.32-.06,1.8,1.38,3.37.56.62-.33.93-2.46,1.6-3.09,3.57-3.28,11.4-2.34,14,1,5.23,6.83,14.1,22.25,24.74,22.25.48,11.62-10.09,12.57-15.74,12.34-4.74-.19-11.24,3.26-11.24-1.93C77.86,79.24,74.3,74.16,67,68.53Z"/><path class="cls-19" d="M131.82,68.9c2.36-3.27,6.35-4.18,8.89-6.35,2.92-2.51-1.54-4.34-4.42-4.48-1.32-.06-1.8,1.33-3.37.53-.62-.31-3.2-4.13-3.88-4.74-3.56-3.18-10.8-1.65-13.37,1.61C110.44,62.09,105,78,96,77.45c-.56,7.84,1.91,16.34,7.56,16.12,4.73-.18,17.94,4.38,21.59-7.44C126.66,81.09,128.69,73.23,131.82,68.9Z"/><path class="cls-20" d="M117.38,23.83c-3.41-2-5-4.55-4-7.36a6.77,6.77,0,0,1,4.07-4.06c2.44-.95,1-5.31,4.14-7.12a23.61,23.61,0,0,1,4.93-1.57c3.59-.92,9.2-1.5,11.57-3.72,4.43,2,.3,7.49-2.31,9.27-1.1.75-5.71,3-4.44,3.4,2.81,1,4.17-1.57,4.87.67,0,3.09-3.88,6.2-8.12,7.24.16,1.81,5.95-1.68,3.81,2.14C129,27.45,122,26.59,117.38,23.83Z"/><path class="cls-20" d="M80.76,23.83c3.4-2,5-4.55,4-7.36a6.82,6.82,0,0,0-4.07-4.06c-2.45-.95-1-5.31-4.14-7.12a23.7,23.7,0,0,0-4.94-1.57C68.07,2.8,62.45,2.22,60.09,0c-4.44,2-.31,7.49,2.3,9.27,1.11.75,5.71,3,4.45,3.4-2.81,1-4.17-1.57-4.88.67,0,3.09,3.89,6.2,8.13,7.24-.17,1.81-6-1.68-3.82,2.14C69.1,27.45,76.12,26.59,80.76,23.83Z"/><ellipse class="cls-21" cx="99.43" cy="35.22" rx="21.03" ry="24.68"/><path class="cls-22" d="M121.85,34.8a24.29,24.29,0,0,0,.15-2.57c0-13.42-3.63-30.36-23-30.12-17.42.22-23.46,16.7-23.46,30.12a23.6,23.6,0,0,0,.13,2.39c-.39,7.06-.8,18.64.35,21.93,1.38,4,12.12,12.1,16,15a.88.88,0,0,0,.91.07.86.86,0,0,0,.48-.78L93.2,45.62l-10.88-6V35.74c4.24-2.33,7.08-1.28,12.53-1.79V44.62l4.46,3.22,3.87-3.22V34c5.25.56,8.63-.52,12.74,1.73v3.88L104.09,46.1l-.45,24.71a.87.87,0,0,0,.47.78.86.86,0,0,0,.91-.06c4-2.83,15.08-11,16.47-15C122.63,53.28,122.23,41.88,121.85,34.8Z"/><circle class="cls-15" cx="99.01" cy="24.57" r="4.59"/><polygon class="cls-15" points="98.85 21.39 97.44 18.66 99.12 13.18 100.36 18.59 98.85 21.39"/><polygon class="cls-15" points="95.95 24.5 93.28 26.03 87.73 24.58 93.09 23.11 95.95 24.5"/><polygon class="cls-15" points="98.83 27.29 100.39 29.95 99 35.51 97.47 30.17 98.83 27.29"/><polygon class="cls-15" points="101.86 24.57 104.56 23.09 110.08 24.65 104.69 26.02 101.86 24.57"/><path class="cls-18" d="M126.88,172.88c-7.69,3.27-18.16,4.31-22.79,4.39-.78,0-1.41,0-1.81,0a33,33,0,0,1-4.2-.07c-5.25-.32-13.83-1.5-20.41-4.29-12.92-5.51-13-8.65-13-8.72s-1-13.31-1-17.17,2.17-1.7,2.42-.25,7.19,6.78,14,7.75a13.74,13.74,0,0,0,9.07-2.28,20,20,0,0,1,8.81-3c.1,0,.22,0,.32,0l3.57-.28h.83l1.52.12,2.8.22a16.91,16.91,0,0,1,8,2.74,13.9,13.9,0,0,0,9.41,2.48c6.77-1,11.19-5.33,11.44-6.78s2.9-2.78,2.9,1.09.38,13.91.38,13.91S140,167.31,126.88,172.88Z"/><circle class="cls-23" cx="101.32" cy="163.48" r="10.45"/><path class="cls-24" d="M123.22,110.52c3.35,1,4.8-2,5.75.49.21,3.41-4.22,7-9.14,8.4.3,2,6.89-2.15,4.59,2.17-1.55,2.71-4.44,3.9-7.64,4a185.82,185.82,0,0,1-7.34,32.73c-.47,1.45-1,2.88-1.49,4.29-3.38,9.16-7.69,17.44-13,23.12q-1.67,1.77-3.35,3.53l-1.31,1.35c-6,6.12-12,11.93-17.86,16.89a1.49,1.49,0,0,1-.44.75L68.82,211c-5.54,4.79-12,11.27-19.29,12.35C57,196,65.09,168.51,69.1,157.84a11.52,11.52,0,0,1-1.23-.72c.44-1.2.85-2.29,1.23-3.23-2.54-1.24-3-2.25-3-2.25s-1-40.78-3.24-59.57c3,.85,5.58,1.62,7.47,2.2,11.65.65,35.8,2.55,44.3,7.32l2.42-.7c4.16-1.2,10.72-2.12,13.37-4.69,5.31,2,.76,8.25-2.2,10.34C127,107.43,121.71,110.1,123.22,110.52Z"/><path class="cls-25" d="M113.73,92.1C112.16,84.53,80.37,81.81,66.44,81c-11.15-3.64-46.38-14.44-50.88-7.42C10.21,81.92-4,135.72,5.93,162.21s22.46,52.36,33.71,55.57h.11l.1,0c11.65,1,32.43-18.28,51.16-39.48S115.74,101.82,113.73,92.1Z"/><path class="cls-26" d="M85.64,174.09c-12.44,14.08-25.93,27.19-36,32a15.77,15.77,0,0,1-8,1.93l-.09,0h-.09c-2.24-.64-4.54-2.32-6.88-4.83C30.71,199,26.79,192.62,23,185a262.06,262.06,0,0,1-10.57-24.81C3.93,137.44,16.13,91.16,20.73,84c2-3.06,10.74-2.18,20.14-.18,5,1.07,10.12,2.48,14.55,3.76,3.71,1.09,6.93,2.1,9.09,2.8,1.69.1,3.67.23,5.83.41,13.3,1,33.69,3.56,34.84,9.16C106.92,108.27,101.74,155.86,85.64,174.09Z"/><path class="cls-27" d="M19.5,96.31C24,95,26.58,92.65,26.31,89.16a8,8,0,0,0-3.41-5.83c-2.49-1.81.43-6.33-2.56-9.32a27.81,27.81,0,0,0-5.13-3.28c-3.79-2.12-10-4.47-12-7.69C-2.44,64,.6,71.45,3,74.25c1,1.19,5.59,5.08,4,5.21-3.48.27-4.25-3-5.73-.71-1,3.49,2.55,8.2,7,10.66-.73,2-6.26-3.69-5,1.28C5.18,96.91,13.41,98.05,19.5,96.31Z"/><path class="cls-27" d="M103.57,112.12c-4.1-2.19-6.14-5.07-5.14-8.42a8,8,0,0,1,4.56-5c2.82-1.24.92-6.28,4.47-8.58A27.87,27.87,0,0,1,113.17,88c4.16-1.27,10.71-2.26,13.36-5,5.31,2.13.77,8.77-2.2,11-1.25.94-6.54,3.79-5,4.24,3.35,1,4.8-2.08,5.76.52.21,3.62-4.23,7.48-9.15,8.93.3,2.11,6.9-2.29,4.59,2.3C117.44,115.73,109.16,115.11,103.57,112.12Z"/><circle class="cls-27" cx="53.71" cy="141.68" r="20.06" transform="translate(-96.52 161.41) rotate(-76.72)"/><polygon class="cls-27" points="53.35 123.1 50.74 118.05 53.85 107.92 56.15 117.93 53.35 123.1"/><polygon class="cls-27" points="34.93 141.58 29.99 144.4 19.75 141.72 29.64 139 34.93 141.58"/><polygon class="cls-27" points="53.32 160.32 56.2 165.23 53.63 175.5 50.8 165.64 53.32 160.32"/><polygon class="cls-27" points="40.56 155.06 38.78 160.46 29.38 165.33 34.91 156.68 40.56 155.06"/><polygon class="cls-27" points="66.55 155.02 72.05 156.46 77.5 165.54 68.53 160.56 66.55 155.02"/><polygon class="cls-27" points="72.15 141.7 77.14 138.97 87.33 141.84 77.39 144.38 72.15 141.7"/><polygon class="cls-27" points="40.3 128.63 34.86 126.96 29.82 117.65 38.56 123.01 40.3 128.63"/><polygon class="cls-27" points="66.9 128.75 68.29 123.23 77.32 117.7 72.42 126.72 66.9 128.75"/><path class="cls-27" d="M42.52,205.06c-9.57-2.62-16.13-8.71-21.77-15.21a1.51,1.51,0,0,0-2.51,1.62c4.56,9.95,10,19.18,16.66,24,11.83,8.52,21.89-2.81,30-10.27,1.32-1.2,2.31-2.12,3.14-2.9a1.5,1.5,0,0,0-1.73-2.43C59.38,203.51,50.49,207.24,42.52,205.06Z"/></g></g></g></svg>