<svg xmlns="http://www.w3.org/2000/svg" viewBox="0 0 273.69 393.35"><defs><style>.cls-1{fill:#aa8e9a;}.cls-2{fill:#decdd6;}.cls-3{fill:#b98698;}.cls-4{fill:#ffce45;}.cls-5{fill:#ffad64;}.cls-6{fill:#eadbe4;}.cls-7{fill:#cbb1bb;}.cls-8{fill:#77b1e7;}.cls-9{fill:#f6edf6;}.cls-10{fill:#e9cada;}.cls-11{fill:#fdf4ff;}.cls-12{fill:#e8d7e0;}.cls-13{fill:#eee4ed;}.cls-14{fill:#f6f0f6;}.cls-15{fill:#e3d4da;}.cls-16{fill:#f3eaf6;}.cls-17{fill:#ffdf80;}.cls-18{fill:#b08c9e;}.cls-19{fill:#a3778c;}.cls-20{fill:#ffe8f7;}.cls-21{fill:#eed3e2;}.cls-22{fill:#af869d;}.cls-23{fill:#cfb8c3;}</style></defs><g id="Layer_2" data-name="Layer 2"><g id="Layer_1-2" data-name="Layer 1"><path class="cls-1" d="M55.39,334.59c-2.61,2.08,23.56,21.55,39.86,27.59,27.56,10.21,54.76,8,83.49,3.59,16.28-2.5,50.81-25.56,49.46-27.81-11.27-18.79-12.34-28.5-17.28-50.5-5-22.38-15.57-64.56-21.54-86.85-9.24-34.46-15.41-56.87-35.56-70.85-34.14-23.67-54.94,57.93-59.38,76.91-7.41,31.64-8.81,37.81-15.26,67.1C73.34,300.26,67.51,324.94,55.39,334.59Z"/><path class="cls-1" d="M129.92,321.77s-.53,46.38-2.65,50.44-26.54,20.19-20.72,21.07,36.24-7.49,38.36-13.84-.18-9,1.23-15.52,6.52-41.09,3-42S129.92,321.77,129.92,321.77Z"/><path class="cls-1" d="M168,323.54s-9.88,41.79-7.76,45.85,32.44,15.87,26.8,18.69c-5.26,2.63-38.09-1.76-40.21-8.11s-1.35-9.52-2.76-16.05.3-42,3.82-42.85S168,323.54,168,323.54Z"/><path class="cls-2" d="M134.35,111.72s-26,5.55-28.23,7.36S89.41,156.16,89,158.41s-3.58,1.8-5.38,1.81-.89,2.25-2.23,3.6-27.8,8.39-27.8,8.39l.55,55.14s18.18-3.2,45.34-20.5c25.75-16.4,18.89-59.76,19.77-66.49S124.49,118,134.35,111.72Z"/><polygon class="cls-3" points="131.78 73.4 118.27 117.97 173.81 118.88 158.5 73.09 131.78 73.4"/><rect class="cls-4" x="200.07" y="47.54" width="73.61" height="7.18" rx="2.69"/><path class="cls-4" d="M246.87,100.51c0,1.49-.33,2.69-.73,2.69H227.62c-.4,0-.73-1.2-.73-2.69V98.72c0-1.49.33-2.7.73-2.7h18.52c.4,0,.73,1.21.73,2.7Z"/><path class="cls-2" d="M227.68,162.2,227,221.56l-32.34-14.77S179.5,198,176,193.4c-3.6-4.71-8.3-22.22-8.3-22.22a95.11,95.11,0,0,1-5.17-13.69c-4.63-16.59-4.61-43.08-9.37-44.67l13.63,2,10.68,1.53,6.66,1,19.33,44.63Z"/><ellipse class="cls-1" cx="227.68" cy="191.71" rx="12.79" ry="29.74"/><path class="cls-5" d="M245.37,166.92c-.17-3.37-7.88-2.44-11.87-1.67-7.63,1.47-12.81,6.26-11.56,10.69s8.46,6.82,16.09,5.35c5.8-1.12,8.45-5.6,7.94-11.88C245.9,168.58,245.41,167.59,245.37,166.92Z"/><path class="cls-6" d="M200.19,312.36c-3.21-20.64-10.09-41.59-14.75-62-4.18-18.25-10.22-42.57-11.9-58.8-1.25-12,5.08-25.75,6.19-37.82.57-6.21-.48-11.93-.23-18.13,0-1,1.22-18.68.93-18.73L173,115.58l-6.14,1.18-23.57-1.35-16.79.78-4.78,1.57-8.39-1-4,1c-.55.14.46,16.13.54,17.58.48,9.63-1.78,17.66,1.11,26.86a179.82,179.82,0,0,1,4.94,21.32c1.18,6.17-1.06,10.24-2.24,16.7-7,38.06-11,66.34-22,115-2.12,9.42-5.43,34.72-10.16,43.16-1.18,2.09-6.78,8.06-5.82,10.76,1.9,5.3,27.7,10.35,33.23,11.88,12.39,3.42,25.24,5.75,38.14,4.44,19.25-2,50.24.39,65.76-12.55a4.9,4.9,0,0,0,1.36-1.44c-8.77-19.21-11.43-42.22-13.34-54.92C200.63,315.18,200.41,313.77,200.19,312.36Z"/><path class="cls-7" d="M153.55,208.56h0c6.78-.23,15.49-.93,21.73-4.58-.78-4.43-1.4-8.62-1.79-12.36-.95-9.21,2.52-19.39,4.7-29.08-14.45,2.5-29.15,2.74-43.84,2.48-6.82-.13-15-.07-22.89-1a195.27,195.27,0,0,1,4.39,19.5c1,5.37-.54,9.16-1.74,14.3C126.27,204.23,139.64,207.26,153.55,208.56Z"/><path class="cls-8" d="M203,157.14c-3.81,1.66-5.93,4-8.52,7.11-5.36,6.52-11.81,2.83-19.41,6.48-4.92,2.37-11.7,6.32-17.27,5.17a138.14,138.14,0,0,0-14.37-2.48c-10.45-1-15.59,5.81-25.59,1.58-7.79-3.3-9.93-7.33-16.6-11.89-3.37-2.3-10.77-4.19-14.6-5.17C83,157,80.52,154,84,152.55c6.38-2.58,11.65-18.31,13.61-20.92,4.84-6.44,6.91-13.92,14.67-17.46a20,20,0,0,1,2-.78c8.73-2.93,21.1-1.22,29.74-1.65,7.66-.38,15-1.09,22.57,0a87.34,87.34,0,0,1,11.62,2.18,23.1,23.1,0,0,1,6.33,2.76c4.74,3.15,9,13.8,11.89,18.62s4.81,14,9.66,15.26C210.64,151.69,206.37,155.7,203,157.14Z"/><path class="cls-9" d="M167.79,291.61c-2.53-35.21-7.26-61.75-6.64-93.56a71.08,71.08,0,0,1-32.53.24c.13,1.85.24,3.7.33,5.57,1.33,30.3-.81,60.62-4.14,90.72-1.28,11.55-2.86,23.06-4.29,34.59-.3,2.39-2.86,11.25-1.07,13.47s22.61,27.22,25.75,26.65c3.14.57,24-24.49,25.75-26.65,2-2.45-.19-11.81-.39-14.56C169.72,315.92,168.66,303.77,167.79,291.61Z"/><path class="cls-8" d="M160.42,280.3c-1.32-23.63-3.75-47.43-4.36-71.18-.06-2.7-.11-5.4-.12-8.1a50.07,50.07,0,0,1-9.92,1.09,71.11,71.11,0,0,1-12.14-1.06c.07,1.68.13,3.36.17,5.06,1,42.31-5.36,89.63-7.42,131.83-.11,2.36,16.32,23.88,18.41,23.34,2.09.54,17.25-19.5,18.4-21.55,1.83-3.23-1-18.38-1.12-21.85C161.87,305.35,161.12,292.82,160.42,280.3Z"/><path class="cls-10" d="M240.92,387.53,237.11,390l-4.27-2.46V10.6L237.93,3a1.69,1.69,0,0,1,1.82-.65,1.52,1.52,0,0,1,1.17,1.44V387.53Z"/><path class="cls-4" d="M255.62,85.7c0,1.49-.61,2.69-1.37,2.69H219.51c-.75,0-1.37-1.2-1.37-2.69V83.9c0-1.48.62-2.69,1.37-2.69h34.74c.76,0,1.37,1.21,1.37,2.69Z"/><path class="cls-4" d="M236.88,28.24a22.9,22.9,0,1,0,22.89,22.9A22.89,22.89,0,0,0,236.88,28.24Zm0,38.16a15.27,15.27,0,1,1,15.26-15.26A15.26,15.26,0,0,1,236.88,66.4Z"/><path class="cls-5" d="M245.54,174c.58-2.19,1.18-7.51-.93-8.25-1.51-.53-3.56,1.81-4.53,3.31-1.52,2.38-2.43,5.14-1.28,8.12,1.24,3.23,3.2,3.65,4.94,1.07A14,14,0,0,0,245.54,174Z"/><path class="cls-5" d="M238.47,166.25c2.41-3.6-3.78-2.06-5.83-1.29-4,1.5-7.71,5-5.78,6.44.61.44,5.06-1.37,5.89-1.45A9.78,9.78,0,0,0,238.47,166.25Z"/><path class="cls-11" d="M145.2,106.09c-6.23,0-11.28,1.2-11.28,2.69v4.38c0,1.48,5.05,15.38,11.28,15.38s11.28-13.9,11.28-15.38v-4.38C156.48,107.29,151.43,106.09,145.2,106.09Z"/><ellipse class="cls-5" cx="145.2" cy="87.23" rx="16.03" ry="22.89"/><path class="cls-12" d="M162.26,83.64a60.9,60.9,0,0,0-34,0l-.16,0V48.29L145.2,33.61l17.06,14.68Z"/><rect class="cls-8" x="144.49" y="49.42" width="2.56" height="23.11"/><rect class="cls-8" x="140.58" y="55.41" width="10.38" height="2.45"/><ellipse class="cls-1" cx="53.87" cy="199.63" rx="10.1" ry="27.66"/><path class="cls-5" d="M56.7,178.37c-1.44-3.11-8.14-3.59-10.72-3.93s-19.88,2.26-16.81,4.09c1.12.67,4,.65,6.32.81a14.31,14.31,0,0,1-6.28,1c-5-.19-8.35-2.66-8.22-.48.21,3.35,10.21,8,19.09,7.3,4.07-.3,12.88-.47,16-3.51C57.39,182.29,57.2,179.46,56.7,178.37Z"/><path class="cls-4" d="M165.88,113.9h-.19a2,2,0,0,1-1.82-2.2l0-.34a2,2,0,0,1,4,.38l0,.34A2,2,0,0,1,165.88,113.9Z"/><path class="cls-4" d="M144.81,145.26a2.06,2.06,0,0,1-2.06-2,2,2,0,0,1,2-2h.57a2,2,0,0,1,2.1,1.93,2,2,0,0,1-1.93,2.11Zm-5.14-1.15a1.94,1.94,0,0,1-.84-.19l-.67-.32A2,2,0,0,1,140,140c.16.09.33.17.5.25a2,2,0,0,1-.85,3.85Zm10.74-.09a2,2,0,0,1-.83-3.86l.5-.24a2,2,0,1,1,1.84,3.59c-.22.12-.45.23-.67.33A2.12,2.12,0,0,1,150.41,144Zm-15.49-3.3a2,2,0,0,1-1.42-.58c-.18-.17-.34-.34-.51-.52a2,2,0,1,1,2.94-2.77l.41.42a2,2,0,0,1-1.42,3.45Zm20.29,0a2,2,0,0,1-1.4-3.48c.14-.13.28-.27.41-.41a2,2,0,0,1,2.9,2.82l-.52.51A2,2,0,0,1,155.21,140.68Zm-23.94-4.55a2,2,0,0,1-1.7-.93c-.13-.19-.25-.39-.37-.59a2,2,0,0,1,3.44-2.11l.33.52a2,2,0,0,1-1.7,3.11Zm27.63,0a2,2,0,0,1-1.69-3.12l.32-.52a2,2,0,0,1,3.44,2.13c-.13.2-.25.4-.38.59A2,2,0,0,1,158.9,136.13ZM128.51,131a2,2,0,0,1-1.84-1.2l-.28-.63a2,2,0,1,1,3.72-1.58l.25.57a2,2,0,0,1-1,2.66A2,2,0,0,1,128.51,131Zm33.15,0a1.93,1.93,0,0,1-.81-.17,2,2,0,0,1-1-2.65l.24-.58a2,2,0,0,1,3.73,1.56l-.27.63A2,2,0,0,1,161.66,130.94Zm-35.19-5.5a2,2,0,0,1-1.93-1.42l-.2-.66a2,2,0,0,1,3.88-1.13l.18.59a2,2,0,0,1-1.33,2.53A2.08,2.08,0,0,1,126.47,125.44Zm37.19,0a1.93,1.93,0,0,1-.58-.08,2,2,0,0,1-1.36-2.51l.17-.6a2,2,0,0,1,2.5-1.4,2,2,0,0,1,1.39,2.49l-.19.66A2,2,0,0,1,163.66,125.42ZM125,119.75a2,2,0,0,1-2-1.61l-.14-.66a2,2,0,1,1,4-.78l.13.61a2,2,0,0,1-1.56,2.4A2,2,0,0,1,125,119.75Zm40,0a2.56,2.56,0,0,1-.39,0,2,2,0,0,1-1.6-2.37l.11-.61a2,2,0,1,1,4,.7l-.12.67A2,2,0,0,1,165,119.71Z"/><path class="cls-4" d="M124,113.89a2,2,0,0,1-2-1.75l-.05-.36a2,2,0,1,1,4-.47l0,.3a2,2,0,0,1-1.74,2.27Z"/><path class="cls-13" d="M182.8,256.9c1.19,4.66,1.64,11.69,3.21,12.28,4.6,1.7,9.43-2.21,12.7-1.13.48-5.65-4-12.92-5.84-18.37-2.45-7.29-5.4-16.37-8.8-23.47-2.7-5.65-5.79-11.21-7.73-17-.72-2.15-1.76-6.92-4.94-5.75-6.72,2.49-1.65,8.82-.8,11.59,2.64,8.5,5.54,17.89,8.13,26.76C179.31,243.77,181.24,250.74,182.8,256.9Z"/><path class="cls-14" d="M175.8,279.9c.18.89,1.37,7.09,2.26,10.91.16,4.09,7.48,3.18,12.53,6.2,2.58,1-2.87-21-4.59-29.27-2.31-11.09-4-22.67-7.42-33.56-2.73-8.67-5.94-17.22-7.76-26.06-.67-3.28-.22-7.56-4.16-7.72-8.54-.35-3.95,11.82-3.16,16C167.48,237.71,171.43,258.75,175.8,279.9Z"/><path class="cls-15" d="M174.36,180.89q-10,4.65-27.92,4.66c-13.94,0-26-1.83-32.12-5.84a26.62,26.62,0,0,0,.79,10.44c5.65,4.49,16.38,5.27,31.33,5.27,13.07,0,22.95-1.55,29.4-5.16C175.16,187.29,175.71,183.75,174.36,180.89Z"/><path class="cls-14" d="M174.53,183.25c-6.72,5.46-17.53,7.76-30.78,10.11-15.46,2.73-22,.12-29.65-4.05-1.18,3.7-2.52,9.93-.84,15,7.23,4.91,16,5.24,32.59,2.3,14.5-2.56,24.65-5.79,31-11.9C177.22,190,176.06,186.75,174.53,183.25Z"/><path class="cls-13" d="M176,194.69c-7.89,2.8-18,4-31.08,1.72-15.22-2.61-25.45-6.79-31.36-13.16a42.94,42.94,0,0,0-1.35,13.13c5.27,6.9,14.41,10.09,30.73,12.88,14.29,2.45,25.63.37,33.4-3.12C176.23,202.15,177.22,198.9,176,194.69Z"/><path class="cls-16" d="M206.09,150.53a5.44,5.44,0,0,1-2.45-1.45c-.5,3.7-3.86,2.69-8.24,7.07-3.18,3.18-6,6.45-10.27,6.73-3.55.23-7.52.4-10.94,1.51s-8.33,4.72-11.78,5.22c-5.6.81-11.78-2.86-19.19-2.69s-12,4.2-19.69,3.53c-7.49-.65-10.41-6.62-16.16-10.94-6.32-4.74-13.52-7-21.43-8.18a7.6,7.6,0,0,1-2,1.22c-3.47,1.42-1,4.46,2.69,5.39,3.83,1,11.23,2.87,14.6,5.17,6.67,4.56,8.81,8.59,16.6,11.89,10,4.23,15.14-2.63,25.59-1.58a138.14,138.14,0,0,1,14.37,2.48c5.57,1.15,12.35-2.8,17.27-5.17,7.6-3.65,14,0,19.41-6.48,2.59-3.16,4.71-5.45,8.52-7.11C206.37,155.7,210.64,151.69,206.09,150.53Z"/><path class="cls-4" d="M232.84,349.12v38.36l4.27,2.51,3.81-2.51V354.32Q236.86,351.76,232.84,349.12Z"/><path class="cls-4" d="M240.92,123.81V5a1.55,1.55,0,0,0-1.17-1.48,1.69,1.69,0,0,0-1.82.67L232.84,12V125.42Z"/><circle class="cls-4" cx="237.01" cy="7.24" r="7.24"/><rect class="cls-17" x="46.29" y="127.11" width="16.85" height="1.1" transform="translate(-79.98 93.76) rotate(-52.67)"/><rect class="cls-17" x="14.08" y="125.84" width="1.1" height="16.85" transform="translate(-101 64.48) rotate(-52.67)"/><rect class="cls-17" x="57.65" y="144.51" width="16.85" height="1.1" transform="translate(-32.29 19.63) rotate(-13.61)"/><rect class="cls-17" x="31.47" y="114.48" width="1.1" height="16.85" transform="translate(-28.03 10.99) rotate(-13.61)"/><path class="cls-18" d="M.62,146.56a.62.62,0,0,0-.56.32.62.62,0,0,0,.08.65l14.05,17,39.29-1.81-11.29-14Z"/><polygon class="cls-19" points="14.19 164.56 17.57 162.52 53.48 162.75 51.29 164.47 14.19 164.56"/><path class="cls-20" d="M4.7,144.08l37.11,3.06,7.07,8.19s-5.94-3.18-11.17-2.92c-4,.2-7.37,2.32-10.82,4.1-2.46,1.27-9.15,5-9.21,4.88C17.25,160.77,4.7,144.08,4.7,144.08Z"/><path class="cls-21" d="M16.72,160.2l1.05,1.26,16.62-8L69.06,157c.15.3-4.17-3.16-4.17-3.16l-31.38-3.44Z"/><path class="cls-22" d="M17.56,162.51l16.78-8.81a1.47,1.47,0,0,1,.85-.17l35.21,3.1a.25.25,0,0,1,.22.22.24.24,0,0,1-.16.26l-17,6Z"/><path class="cls-23" d="M33.35,150.48l-16.51,9.64-12.14-16-2.26,4,12.2,15.28,3-1.84h0l16.77-8.1h.1A30,30,0,0,0,33.35,150.48Z"/></g></g></svg>