<svg xmlns="http://www.w3.org/2000/svg" viewBox="0 0 1004.07 667.1"><defs><style>.cls-1{fill:#353330;}.cls-2{fill:#565452;}.cls-3{fill:#f2f1e7;}.cls-4{fill:#827c79;}.cls-5{fill:#211915;}.cls-6{fill:#afadac;}.cls-7{fill:#020202;}.cls-8{fill:#ffce00;}.cls-9{fill:#993939;}.cls-10{fill:#d1ceb8;}.cls-11{fill:#878684;}.cls-12{fill:#a0a0a0;}.cls-13{fill:#dbd5d5;}.cls-14{fill:#070606;}.cls-15{fill:#ffbb10;}.cls-16{fill:#96928c;}.cls-17{fill:#e3dae5;}.cls-18{fill:#fff;}.cls-19{fill:#302d2a;}.cls-20{fill:#c6c4c1;}.cls-21{fill:#191714;}.cls-22{fill:#ffc81a;}.cls-23{fill:#1e1d1c;}</style></defs><g id="Layer_2" data-name="Layer 2"><g id="Capa_1" data-name="Capa 1"><path class="cls-1" d="M139.08,151.23c51.8-11.95,89,34.54,89,34.54C234.05,114.71,132,99.21,68,133.3c-82.19,43.79-106.92,188,23.25,204.55s163.37-59.11,166-60.43l46.49-48.49c-40.51-17.26-48.48-2.65-110.91,45.16S16.21,312,33.48,218.31s122.86-89,122.86-89C137.75,134.63,139.08,151.23,139.08,151.23Z"/><path class="cls-1" d="M228.81,245.83l24.63-2.89s15.63,11.55,24.29,14.1,2.55-2,28,6.12,47.91,15.28,88.17,25,55,14.78,74.4,15.29,22.94,2,38.23.51,28-2,28-2L513.18,191.81c-2,2.55-42.3,49.94-78.48,37.71l9.68,10.7s-22.42,2-39.24-11.72l7.65,13.25-46.38-20.89,11.21,17.32s-26-20.38-55.55-24l13.25,13.25s-16.82-15.8-76.44-9.17l8.66,4.59S232.38,234.62,228.81,245.83Z"/><path class="cls-1" d="M397.5,247.36c-56.06-14.27-150.85,54-38.74,72.37s216.09,40.77,252.78,23.44,72.37-28.54,77.46-42.81,8.16,9.17,5.1-14.27L522.87,142.37S489.23,170.91,477,211.68l18.35-7.13L471.9,237.16l21.41-1S453.56,261.63,397.5,247.36Z"/><path class="cls-2" d="M902.74,113.52s-95.88-15.94-153.51.29S640.5,304.33,640.5,304.33l95.68,55.94L915.92,181Z"/><path class="cls-2" d="M786.82,169.22c-14.15,21.15-21.28,56.21-21.28,56.21L782,214.09C760,251.63,779.44,316,779.44,316L902.69,196l11.11-27.39s22.48-19.39-25-42.68-96.06,21-96.06,21l17.5,1.32S801,148.07,786.82,169.22Z"/><path class="cls-3" d="M1001.87,122.14l-5.49-.53,2.41,8.84C1003.54,128.17,1001.87,122.14,1001.87,122.14Z"/><path class="cls-3" d="M997.81,133.7l-.89,9.12,5.32-1.45S1002.87,135.14,997.81,133.7Z"/><path class="cls-3" d="M986.3,132.92l-.88,9.12,5.32-1.46S991.37,134.36,986.3,132.92Z"/><path class="cls-3" d="M993.45,125.1l-5.48-.53,2.41,8.84C995.13,131.13,993.45,125.1,993.45,125.1Z"/><path class="cls-4" d="M913.5,73A65.59,65.59,0,0,0,909,125.11l23.1-12.59Z"/><path class="cls-4" d="M870.34,135.14c-6.08,6.84-10.23,21.06-10.23,21.06l23.23-3.65S869,166.44,866.55,173.64s.32,16.23.32,16.23c5.32-7.58,30.44-8.35,30.44-8.35l-3.77,24.24,80.06-48-4.42,13.17c8.16-1.77,10.1-5.09,10.1-5.09l-7.07,16.67c8.7-1.16,12-7.27,12-7.27l-4.29,18c19.36-19.89,22.44-54.64,22.44-54.64L987.55,138c.23-10.56,16.52-13.52,16.52-13.52l-6.93-25.75-107.88,9.14s-3.32-1.94-8,1-17.37,16-17.37,16l22.19,1.68S876.42,128.29,870.34,135.14Z"/><path class="cls-5" d="M997.14,98.72l-18.42,1.56c4.09,4.76,14.13,5.82,20.45,6Z"/><path class="cls-6" d="M914.81,102.29c.25-.44,2.14-7.21,2.14-7.21l1.51,7.57,1.91-8.1,1.23,7.56,2.88-5.72-8.09-17.21A33.08,33.08,0,0,0,911,102.27l2.5-6.56S914.55,102.74,914.81,102.29Z"/><path class="cls-4" d="M890.6,73.31a65.59,65.59,0,0,0-4.55,52.08l23.1-12.59Z"/><path class="cls-6" d="M891.91,102.58c.25-.45,2.14-7.22,2.14-7.22l1.51,7.57,1.91-8.09,1.23,7.55,2.88-5.71-8.09-17.22a33,33,0,0,0-5.43,23.09l2.5-6.56S891.65,103,891.91,102.58Z"/><path class="cls-6" d="M866.55,173.64c-2.42,7.2.32,16.23.32,16.23,5.32-7.58,30.44-8.35,30.44-8.35l-3.77,24.24,80.06-48-4.42,13.17c8.16-1.77,10.1-5.09,10.1-5.09l-7.07,16.67c8.7-1.16,12-7.27,12-7.27l-4.29,18c19.36-19.89,22.44-54.64,22.44-54.64L987.55,138c.23-10.56,16.52-13.52,16.52-13.52l-1.08-4-52,11.18s-7.2,16.89-17.71,17.58-24.45-21.72-24.45-21.72l-26.05,25.15.55-.09S869,166.44,866.55,173.64Z"/><path class="cls-7" d="M931.78,128.42a8.85,8.85,0,1,0-12.11,3.17A8.86,8.86,0,0,0,931.78,128.42Z"/><path class="cls-8" d="M929.45,127.06a6.16,6.16,0,1,0-8.42,2.2A6.16,6.16,0,0,0,929.45,127.06Z"/><path class="cls-7" d="M926.79,125.5a3.08,3.08,0,1,0-4.21,1.11A3.07,3.07,0,0,0,926.79,125.5Z"/><polygon class="cls-4" points="915.52 110.73 909.2 120.27 938.76 125.37 940.25 113.16 915.52 110.73"/><path class="cls-2" d="M782.21,177.49,747,182.84c-1.78.89-12.47,97.59-6.23,114.08s33.42,20.95,49,7.13,2.68-43.22,2.68-43.22l9.8,10.25C810.73,250.13,784.44,178.83,782.21,177.49Z"/><path class="cls-2" d="M715.24,241.24l-111.87,42s-48.8,159.23-19,159.23,58-8.31,58-8.31l-17.9,17.23c23.32,5.35,45.55-11.29,45.55-11.29l9.22,13.66,18.43-22,40.67,16.64,3.79,20.2,15.19-8.91s4.88.59,19.52-33.28-8.14-66.55-8.14-66.55l20.61,26.15c4.88-28.52-15.19-61.8-15.19-61.8L787.72,337C782.84,288,715.24,241.24,715.24,241.24Z"/><path class="cls-1" d="M440.51,560.71c1-3.68-35.45-140.43-35.45-140.43l-82.41-5.52c-.48,28.21,58.93,102.41,58.93,102.41s-16.29.62-16.29,6.14,44.56,137.36,44.56,137.36h63.72s-6.23-19.62-9.58-25.76-24-11.65-24-11.65L419,553.35S439.55,564.39,440.51,560.71Z"/><path class="cls-2" d="M626.19,548.61l2.54-14.06,1.75,10.69,29.79,120.82,51.29.2c1.43-8.6-14.42-37.72-14.42-37.72s-10.13-31.32-10.4-34.68S679.13,565,679.13,565l-12-126.74L644,368.19l-13.22-45.86L588.2,450.4l30.47,80,3-10.68Z"/><path class="cls-2" d="M734.23,548.61l2.55-14.06,1.75,10.69,29.78,120.82,51.29.2c1.43-8.6-14.42-37.72-14.42-37.72s-10.13-31.32-10.39-34.68S787.17,565,787.17,565l-12-126.74L752,368.19,738.8,322.33l-86.49,58.55,74.4,149.51,3-10.68Z"/><path class="cls-2" d="M202.12,495.47C198.87,502.6,226,661.35,226,661.35h58.56s1.09-29.71-10.84-35.65l-11.93-6L245.5,524l16.27,7.13,43.38-103.48s80.79,59.42,223.93,34.46S722.65,333.17,722.65,333.17L576.25,185.81s-62.89,76.06-121.45,68.93-134.47-63-209.3-17.83-24.94,252.62-24.94,252.62S205.38,488.34,202.12,495.47Z"/><path class="cls-1" d="M272.18,414.7s37.52-97.08,87-138.19,41.51-5.25,154.05-7c83.13-1.29,106.23-22.67,112.64-33.76l-13.15-13.23-50.49-21.6c-21.82,21.78-65.72,58.89-107.43,53.82-58.56-7.13-134.47-63-209.3-17.83-53.67,32.39-43.18,143-33,203L267.39,304.5Z"/><path class="cls-2" d="M581.13,457.37C603.24,450.1,674,392.93,674,392.93L453.36,413.76c-21.22,5.33-33.6,43.61-33.6,43.61L403.4,469s7.52,3.39,22.55,6.3,59.69-14.53,59.69-14.53l-15,13.08,26.53-1c26.53-1,65-16.47,65-16.47l-11.93,8.23S559,464.63,581.13,457.37Z"/><path class="cls-9" d="M864.18,65.66,830.79,73l-24.88,30.1,37.42-4.57S862.8,66.5,864.18,65.66Z"/><path class="cls-10" d="M859.43,70.07c1.44,2.15,3.59,10.16,3.59,10.16l6.61-11.54Z"/><path class="cls-10" d="M852.09,71.07,833.8,73.56l8,9.55,4.08-10.5S848.92,71.84,852.09,71.07Z"/><path class="cls-10" d="M858.8,69.54c-.64.08-3.72.8-6.71,1.53l7.34-1C859.2,69.72,859,69.52,858.8,69.54Z"/><path class="cls-10" d="M822.4,102.64l17.32,3.9,19-8s.13-10-5.27-15.57l-1.31,7.24-12.87.35A23.23,23.23,0,0,0,834.11,82c-2.37-2.36-1.25,16.51-1.25,16.51l-5-6.45Z"/><path class="cls-11" d="M678.08,152.2l12.83-12.45s-8.7,30.29,18.43,63.58L716.68,188s7.87,19.36,54.4,22.07l2.48-14.73,37.61,27.92,14.75-117.58L806.73,51.1l-22.58-7.67s-75.42-5.16-109.64,44.75L694,83.57S659.6,99.52,678.08,152.2Z"/><path class="cls-11" d="M747.77,50.27l-6.52.49L712.38,9.61s-14.45,17.31.32,51.45,17.79,37.49,19,37.2,24-8.85,24-8.85l26.72-34.58L769.82,0s-26.14,25.64-17.56,54S747.77,50.27,747.77,50.27Z"/><path class="cls-12" d="M747.77,50.27l-3.17.24c3.8,12.92,8.32,28.17,8.56,28.58s3.66,1.46,9.23,1.62l20-25.88L769.82,0s-26.14,25.64-17.56,54S747.77,50.27,747.77,50.27Z"/><path class="cls-12" d="M718.87,125.75l8.87-9.6a260.33,260.33,0,0,0,22.36,44.2l1.44-14.1,59.83,75.44,14.55-116L806.73,51.1l-22.58-7.67A158.47,158.47,0,0,0,757,44.61c-12.14,8.54-22.82,19.08-26.57,31.19l8.05-3.9S716.82,99.57,718.87,125.75Z"/><path class="cls-13" d="M871.46,75l7.26-35.95-61.05,5.23-22,32.57-35.87,33.57L783,133.29a18.54,18.54,0,0,0,5.49-3.48c16.82-14.94,35-12.82,35-12.82l.81,8.78c10.38-5.06,11.61-7.7,11.75-8.32l-2,14.81c10.61-3,15.26-13,15.26-13l2.37,8.53c13.24-15.18,10-36.58,10-36.58L823.1,94.18C838.76,71,871.46,75,871.46,75Z"/><path class="cls-12" d="M754.16,105.48c.2,12.06,15.23,35.8,30.91,26.78-8.62-5.76-19.09-15.62-12.76-26.87,10-17.86,28.89-19.52,28.89-19.52-1.51-20.11,26.5-36.94,39.28-43.54l-48.84,4.19L759.1,51.35,773.31,76.1S754,92.56,754.16,105.48Z"/><path class="cls-14" d="M875.88,53.11l2.84-14-27.5,2.35a49,49,0,0,0,6.87,7.6C861.06,51.42,870.87,52.73,875.88,53.11Z"/><path class="cls-13" d="M769.48,58.85a27.73,27.73,0,0,0-16.32,20.24s17.45-13.46,35.91-14.15C789.07,64.94,773.39,64.36,769.48,58.85Z"/><path class="cls-13" d="M761.34,84.19l.85,0c-.08-.13-.18-.25-.27-.38Z"/><path class="cls-13" d="M777.62,91.3l7.91-16.57s-1.7,2.4-8,6.23c-5.23,3.15-12.78,3.3-15.29,3.26C767.83,92.41,777.62,91.3,777.62,91.3Z"/><path class="cls-13" d="M714.19,16.32a46,46,0,0,0,1.14,20.34c3.17,10.38,6.72,15.1,6.72,15.1l.72-8.23,3.31,5.1.3-6.57,5.25,5.58-1.47-4.78L736,47.39Z"/><path class="cls-13" d="M767.34,42.25l2.86-5.91,2.63,7.2.54-5L776.92,45,769.13,7.88a46.11,46.11,0,0,0-7,19.15c-1.17,10.79.24,16.52.24,16.52l3.9-7.28Z"/><path class="cls-11" d="M871.46,75l.46-2.28c-8.29-.58-26.51-1.35-35.53,2.11-11.91,4.57-16.29,21.62-16.29,21.62l41.86.22a42.44,42.44,0,0,0-.35-5.44L823.1,94.18C838.76,71,871.46,75,871.46,75Z"/><path class="cls-11" d="M871.46,75l2.65-13.1-13.87,12.9.56.12A61.37,61.37,0,0,1,871.46,75Z"/><path class="cls-14" d="M786.52,70.13s-19.34-3.48-28,12.37C758.52,82.5,776.63,85.3,786.52,70.13Z"/><path class="cls-15" d="M770.13,81.7a29.06,29.06,0,0,0,6.27-2.37,5.64,5.64,0,0,0,.11-6,5.55,5.55,0,0,0-3-2.43,25.25,25.25,0,0,0-7,3,5.66,5.66,0,0,0,3.64,7.78Zm.38-7.37a2.23,2.23,0,1,1-.76,3.06A2.23,2.23,0,0,1,770.51,74.33Z"/><path class="cls-1" d="M643.18,285.63c-3.82-13.76.76-39.75-32.87-55.8s-35.93-19.11-52-22.17l-51.22,48.16,54.28,58.09,1.52-18.35,48.93,36.7-6.12-16.82,29,30.58S647,299.39,643.18,285.63Z"/><path class="cls-11" d="M576.87,262.37c39.66-13.13-10-74.37-10-74.37l-43.15-4.69S537.21,275.49,576.87,262.37Z"/><path class="cls-11" d="M705.87,187.87c-6-16.65-26.32-36.6-28-34.72l-138,27s8.1,80.1,18.49,89.25,29.2,20.74,29.2,20.74L585,283.53s17.18,11.35,28.06,25.66l-1.21-6.37s20.45,14.43,22.39,30.27c0,0,10.66-5.22,16.36-19s6.51-17.74,6.51-17.74l4.67,16.81s6.88-18.23,13.86-32.12,5.62-25,5.62-25l5.06,9.37s4.44.76,6.89-21.7,1-34.44,1-34.44l7.89,11.2S711.83,204.52,705.87,187.87Z"/><path class="cls-16" d="M556.09,100.27c-10.4,12-9.81,35.67-9.81,35.67l117-11.77s15.83-.79,15-16.9-9.41-15.36-9.41-15.36L659,82.41s-4.4,8.94-17-11.23-21.89-15.56-21.89-15.56l4.69,7.53c-8.45-.41-13.49-10.79-13.49-10.79C603.92,58.19,612,65,612,65c-14.68-1.68-14.66-13.26-14.66-13.26-5.58,6.47.19,13.3.19,13.3-8.86-10.79-29-9.48-29-9.48L579.7,66.09l-21.24-5.5L577.31,82A93.36,93.36,0,0,0,556.09,100.27Z"/><path class="cls-17" d="M674.05,209a2.51,2.51,0,1,0-2.8-2.19A2.51,2.51,0,0,0,674.05,209Z"/><path class="cls-2" d="M678.71,114.77C638.06,92.51,630,94.68,630,94.68l-80.66,20.18-15,11.12s-3,8.55-6.09,20.4c-5.37,20.53-11,51-1.89,64.11l14.39,20.74,5.08-21.35s5.68,36.62,20.61,47.22l14.93,10.61-1.79-14.59,45.48,47.14,38.79-65.19,6.65,25.25a224.31,224.31,0,0,0,10.87-25.88c2.57-7.53,4.71-15.53,5.13-22.29,1.21-19.11-5-26.63-5-26.63L699,198.17S719.36,137,678.71,114.77Z"/><path class="cls-2" d="M509.06,167.73l7.25-4.65s-2.45,27.23,3.81,33.42a27.22,27.22,0,0,0,13.36,7.33s119.45-20.17,122.73-17.1,20.51,25.57,20.51,25.57,17.34-19.21,14-36.76,8.08-7.37,8.08-7.37l10.7,14s3.38-14.9-.23-27.78-8.09-16.38-8.09-16.38l7.8,2.23s.12-6.1-11.66-17.11S682,111.45,682,111.45l10.45-2.16S675.1,85.94,635.34,87.64s-85.14,47.24-85.14,47.24l13.25-26.54s-22.93,4.27-35.69,16S510,142.42,510,142.42l9.5-2.9S506.91,155,509.06,167.73Z"/><path class="cls-16" d="M619.21,211.87l5.43,3.27,5.15-4.77,2.32-2.16,4.42,5.68s4.29-4.26,9.84-19.65,5.11-40.39,5.11-40.39L584,171.25s3.49,8.58,8,18.07c5.1,10.66,11.52,22.47,15.83,24.57l-.28-2.25L618,216Z"/><path class="cls-2" d="M592.51,182s5,7,8.68,12.14q3.82,2,7.59,4.12c5.63-1.74,16.52-4.84,25.36-2.18,0,0,.41,0,3.17-5.09,2.32-4.29,3.25-15.82,3.5-19.49,1.36-4.81,2.47-8.7,2.47-8.7l-25.39,1.44-24.8,15.44.27.45-3.2.65Z"/><path class="cls-2" d="M608.78,198.26q-3.76-2.08-7.59-4.12c2,2.75,3.61,4.94,3.84,5.12S606.6,198.93,608.78,198.26Z"/><path class="cls-18" d="M605.5,196.46l-1.81-1c.48.63.81,1,.9,1.12S605,196.6,605.5,196.46Z"/><path class="cls-18" d="M592.07,179.33s8.73,12.32,11.62,16.15l1.81,1c3.67-1,17.45-6.28,28.2-3,0,0,.41.05,3.18-5.09,2.31-4.3,3.25-15.82,3.49-19.49l2.48-8.7-25.4,1.44L592.66,177l.26.45-3.2.66Z"/><polygon class="cls-19" points="609.21 189.53 612.9 185.06 617.56 188.51 621.3 184.47 626.5 187.95 629.08 183.29 633.82 185.64 639.24 173.14 636.85 173.11 633.59 183.72 627.9 180.72 625.99 185.52 621.14 182.31 617.64 186.54 612.84 182.79 608.98 186.74 604.93 183 603.38 186.23 599.04 179.27 596.77 181.07 603.77 188.57 605.44 185.33 609.21 189.53"/><path class="cls-16" d="M555.2,39.56s-31.7,24.86-6.78,68,23.6-.38,23.6-.38l13.83-11.33Z"/><path class="cls-20" d="M557.93,44.56C543.8,59.8,554.76,92.2,554.76,92.2l-.51-12.45,7.29,10.86-.06-12.31s9,9.21,9.52,10.09-1.49-10.83-1.49-10.83l12.67,11.58Z"/><path class="cls-21" d="M561.67,51.44,555.2,39.56s-31.7,24.86-6.78,68c1.23,2.14,2.4,4.06,3.51,5.79,4.12-3.81,7.24-8.94,7.68-9,.83-.11-10.07-8.94-13.39-25.91s8.31-33.73,8.31-33.73Z"/><path class="cls-16" d="M676.05,94.3c11.37-51.18-33.17-67.55-33.17-67.55L630.1,93l19.61,7.64S664.67,145.48,676.05,94.3Z"/><path class="cls-20" d="M643.76,81.12c.28-1.05,6.76-13,6.76-13l4.57,12.6,4-13.17,4.13,12.86s-.05-36.21-21.47-47.76L631.63,85.06l9.7-15.42S643.49,82.17,643.76,81.12Z"/><path class="cls-21" d="M662.42,94.21c.51-.07,5.9,4.28,11.91,7q.87-3.12,1.72-6.91c11.37-51.18-33.17-67.55-33.17-67.55l-2.7,14,5.39-8.89s19.22,13.8,21.93,32.09S661.45,94.33,662.42,94.21Z"/><path class="cls-20" d="M661.84,90.1c-18-6.61-40.53-6.1-54-5l-29.33,3.33s-43.72,28.64-35.37,64.38l7.94-5.4s-4.37,11.71,2.74,20.38l5.08-6s1.24,7.64,5.58,13.46l5.41,2.69a91.36,91.36,0,0,1,52.14-21.34c33.44-2.48,52,12,52,12s6.1-3.72,3.83-15.51l7.94,7.08s3.54-9.3-1.17-21.07l9.91,5.1S689.38,100.22,661.84,90.1Z"/><path class="cls-20" d="M569.94,178l-5.41-2.69a18,18,0,0,0,4,4S569,178.81,569.94,178Z"/><path class="cls-20" d="M589.87,129.36a.24.24,0,0,0,0,.07l.92-1.35S590.45,128.53,589.87,129.36Z"/><path class="cls-20" d="M583.12,175.41C588,182,586,182.65,600,184.34c7.5.91,7.45-10.06,17.55-8.67S629,185,637.41,177.89s17.7-16.29,13-33.24-30.2-31.2-45.95-25.54c-14.62,5.25-14.64,9.64-14.57,10.25.58-.83.93-1.28.93-1.28l-.92,1.35a.24.24,0,0,1,0-.07C585.85,135.07,570.77,158.71,583.12,175.41Z"/><path class="cls-19" d="M615,163.07l-3.41-.28,2.12,13a9.47,9.47,0,0,1,2.21-.24Z"/><path class="cls-16" d="M583.07,133.64c7.26,1.32-15.31-18.48-15.31-18.48l-3.58,29.53,1.17,6.06S575.81,132.32,583.07,133.64Z"/><path class="cls-16" d="M694.56,144.26s-5.18-44-32.72-54.16c-18-6.61-40.53-6.1-54-5l-29.33,3.33s-43.72,28.64-35.37,64.38l6.37-4.33a78.13,78.13,0,0,1,3.76-13.22l5-7.43,1,11.67,2.53-7c-.91,6,3.5,18.19,3.5,18.19s2.53-42.51,16.26-47c5.65-1.84,9.37,0,11.78,2.87l7.93,21.24,1.1-12.55,3.64,12,.94-12.53,5.5,11.89.77-12.66,6.18,13.67s1-27.58,11.81-31.39,22.6,8.39,22.6,8.39l-13.64,19s23.6,3.93,31.92,14.85l-3.54-12.44,9.42,7.22-4.48-12.48S690.67,126.51,694.56,144.26Z"/><path class="cls-21" d="M563.58,114l22.9,28.4C591.79,106,563.58,114,563.58,114Z"/><path class="cls-22" d="M579.54,130c2.77-.34,4.67-3.48,4.23-7s-3-6.14-5.81-5.8-4.67,3.49-4.23,7S576.76,130.39,579.54,130Z"/><path class="cls-21" d="M579.05,126a2.22,2.22,0,0,0,1.59-2.64c-.17-1.33-1.14-2.31-2.19-2.18a2.22,2.22,0,0,0-1.59,2.64C577,125.19,578,126.17,579.05,126Z"/><path class="cls-21" d="M635.71,139.16l22.86-39.35S616.88,99.58,635.71,139.16Z"/><path class="cls-22" d="M641.46,123a7.58,7.58,0,1,0-8.09-6.63A7.4,7.4,0,0,0,641.46,123Z"/><path class="cls-21" d="M640.88,118.29a2.84,2.84,0,1,0-3-2.49A2.78,2.78,0,0,0,640.88,118.29Z"/><path class="cls-21" d="M613,168.17c6.08-.75,14.77-1,16.81-7.19S625,145.17,625,145.17c-3.51-4.92-5.26-4-12.4-1.5s-7.86-.55-11.14.2-9,10.18-6.1,17.63S607,168.91,613,168.17Z"/><path class="cls-19" d="M616.87,150.24c5.4-.81,11.31,3.22,13.29,7.33-.46-5.79-5.19-12.4-5.19-12.4-3.51-4.92-5.26-4-12.4-1.5s-7.86-.55-11.14.2c-2.95.68-7.86,8.38-6.72,15.33,1.15-3,3.46-6.87,7.94-7.91,7.77-1.81,9.05,5.48,9.05,5.48S611.23,151.09,616.87,150.24Z"/><path class="cls-16" d="M584.53,112a16.38,16.38,0,0,0-16.39-7.29c20.56,3,21,33.42,21,33.42S591.1,121.46,584.53,112Z"/><path class="cls-16" d="M643.38,96.64a16.39,16.39,0,0,0-14.15,11c-4.07,10.8,1.85,26.47,1.85,26.47S624.14,104.5,643.38,96.64Z"/><path class="cls-1" d="M725,667S722.3,636,712.11,630.6s-28.88,3.06-29.9,3.06l15.29,30.92C701.24,668,725,667,725,667Z"/><path class="cls-1" d="M833.4,667S830.68,636,820.49,630.6s-28.88,3.06-29.9,3.06l15.29,30.92C809.62,668,833.4,667,833.4,667Z"/><path class="cls-2" d="M653.84,408.4,661.48,548s46.38-102.44,49.95-107.53S664,405.85,653.84,408.4Z"/><path class="cls-2" d="M653.84,408.4,661.48,548s46.38-102.44,49.95-107.53S664,405.85,653.84,408.4Z"/><path class="cls-12" d="M686,484.37l-3.82,15.29,24.46-15.29-5.35,11.47c22.93-6.12,35.16-35.16,35.16-35.16l2.3,18.34L754,447.68l9.93,9.17-3.05-33.63,10.7,9.17c1.53-17.58-10.7-52.74-10.7-52.74l9.93,2.29C762.42,332.26,702,346.78,702,346.78s6.88,39,4.58,65S689,484.37,686,484.37Z"/><path class="cls-12" d="M305.15,427.64s80.79,59.42,223.93,34.46a311.94,311.94,0,0,0,61.57-17.22V434.39s-69.82,16.31-73.39,16.82,15.29-14.27,15.29-14.27l-55,12.23s9.4-9.83,12.16-11.48c-5.86,1.86-51.91,14-51.91,14l17.32-14.78-72.36,7.14,15.8-12.75Z"/><path class="cls-12" d="M489.67,437.69c.48-.16.7-.24.58-.24A1.38,1.38,0,0,0,489.67,437.69Z"/><path class="cls-1" d="M805.18,628.54s-10.13-31.32-10.39-34.68S787.17,565,787.17,565l-.4-4.18-11.13-7.17-.51,12.74s-15.8-14.78-17.83-17.33S754.24,570,754.24,570l-11.9-9.25,26,105.36,51.29.2C821,657.66,805.18,628.54,805.18,628.54Z"/><path class="cls-1" d="M651.8,574.54,635.06,563.8l25.21,102.26,51.29.2c1.43-8.6-14.42-37.72-14.42-37.72s-10.13-31.32-10.4-34.68c-.18-2.34-3.83-15.51-6-23.23-9.89-6.31-18.74-11.89-18.74-11.89l3.57,15.8-12.74-16.31Z"/><path class="cls-23" d="M376.26,559.59c13.2,40.75,33.59,101.08,33.59,101.08h63.72s-6.23-19.62-9.58-25.76-24-11.65-24-11.65l-15.27-50.63-12-6.24V577.6L398,560.78l2,13.76-20.89-27Z"/><path class="cls-1" d="M273.7,625.7l-11.93-6-13.12-77.21c-3.79-2.91-6.59-4.69-6.59-4.69l-9.17,19.36-7.14-22.42-3.57,14.27-8.66-18.35s-2.07,11.14-4.58,25c7.12,47.49,17,105.61,17,105.61h58.56S285.63,631.64,273.7,625.7Z"/></g></g></svg>