<svg xmlns="http://www.w3.org/2000/svg" viewBox="0 0 1147.39 642.32"><defs><style>.cls-1{fill:#7a1313;}.cls-2{fill:#9b2727;}.cls-3{fill:#540808;}.cls-4{fill:#a5987e;}.cls-5{fill:#b7ad97;}.cls-6{fill:#ba6c68;}.cls-7{fill:#3a0d0a;}.cls-8{fill:#d1cab8;}.cls-9{fill:#e5e1d6;}.cls-10{fill:#bc9133;}.cls-11{fill:#a37a28;}.cls-12{fill:#211e17;}</style></defs><g id="Layer_2" data-name="Layer 2"><g id="Capa_1" data-name="Capa 1"><path class="cls-1" d="M745.29,349.35,674.05,390l-6.39,89.08s75.64-63.7,183.79-47.77,142,82.94,142,82.94-21.9-98.87-.66-132.71,81-31.18,81-31.18-66-47.45-59.39-75.65,103.51-50.43,103.51-50.43-94.55-11.94-78.29-62S1129.14,75,1129.14,75s-79.29,26.87-76.64-3.32S1110.9,0,1110.9,0L904.54,112.14l-66,51.42-44.79,19.58,3,43.12-7,57.73Z"/><path class="cls-2" d="M801,322.48c-7.52,3.09-16.37,61-16.37,61s-.44-19-11.06-7.08c-8.26,9.3-22.68,47-28.67,63.24a240.8,240.8,0,0,1,106.52-8.38A247.86,247.86,0,0,1,915,449.05c-8.46-18.3-18.37-36.07-26.38-39.87-17.69-8.41-5.31,28.31-5.31,28.31s-23.88-64.14-34.06-73.87-11.5,17.25-11.5,17.25-4.86-38.93-18.58-43.35c-7-2.28-8.6,6.19-8.45,15C808.85,338.29,805.59,320.6,801,322.48Z"/><path class="cls-1" d="M801.14,384.35a7.83,7.83,0,1,0-7.83,7.83A7.83,7.83,0,0,0,801.14,384.35Z"/><path class="cls-3" d="M745.63,385.33c-2.84-.54-34.56,5.26-34.56,5.26l-46.71,15.93L682,412l-6.71,34.72s37.66-2.7,45.22-8.91-21.06-9-23.49-9.18,19.3-.41,34.83-9.18-9.45-10.8-9.45-10.8,48.46-10.93,46.3-12.82-34.29-3.92-33.88-4.19S748.46,385.87,745.63,385.33Z"/><path class="cls-2" d="M938.6,266.3c-6.64,11.94,56.62,29.19,56.62,29.19s-19,1.33,3.54,11.5c7.3,3.3,21,6.54,36.28,9.43-13-13.94-23.54-29.6-20.69-41.72,1.22-5.18,5.5-10.16,11.65-14.84-15.85-1.53-32.72-2.23-41,.24-9.77,2.93-.94,7.62,8.94,11.22C974.12,265.63,943.06,258.27,938.6,266.3Z"/><path class="cls-2" d="M889.05,301.69c-7.07,10.17,46.45,54,46,55.29s-6.64-11.94-23.89-7.08c-9.34,2.64,32.28,45,72.42,85.59-.49-21.31,1.58-41.82,9.2-54a52.45,52.45,0,0,1,16.62-16.27l-14.63-10.05s-4-3.1-19-8.4,0,11.5,0,11.5S896.13,291.51,889.05,301.69Z"/><path class="cls-2" d="M911.61,182.69c.89,9.73,65,2.66,65,2.66S947,196,972.22,201.27c9.88,2.08,45.11,2.46,84.31,2.16-13.87-9.41-23-22.71-17-41.2,4.43-13.65,13.1-26.33,23.36-37.57-23.71,4.84-53.37,12.89-60.63,23.53-3.68,5.38-3.5,8-1.42,9.11C969,163.46,911,175.63,911.61,182.69Z"/><path class="cls-3" d="M655.05,400.11l23.22,16.59s77.64-47.44,96.21-88.25S803,223,803,223s15.26,53.74,36.49,91.56,23.89,10.62,23.89,10.62l45.12,81.62,13.93-8.63s45.12,51.09,51.76,66.35,19.9,69.67,19.9,69.67-3.31-56.4-8.62-71.66-61-80.29-61-80.29-11.28,8.63-13.27,8S808.32,212.33,808.32,212.33l19.25,6c19.24,6,44.45,10.62,56.4,21.9s42.46,69,42.46,69,46.45,11.94,77.64,23.88,51.09,19.25,51.09,19.25l45.78,2.65L947.67,303.9c-10-3.32-68.35-68.35-54.41-75.64s83.6,4,119.43,4,134.7-9.29,134.7-9.29-212.33-4.65-239.54-4.65-106.16-29.19-106.16-29.19S860.08,152,870,150.62s62.38,7.3,62.38,7.3l197.73-86.26s-138,49.77-171.86,67.68-78.29.67-78.29-4,55.07-33.18,63.7-37.16S1110.9,0,1110.9,0,933.07,90.9,916.48,99.53,799.7,177.16,799.7,177.16L813.63,146c-13.93,7.3-31.18,33.84-31.18,33.84s25.87,41.14-6.64,110.81S655.05,400.11,655.05,400.11Z"/><path class="cls-1" d="M18.25,111.07s73.32,37.15,89.57,87.25-78.29,62-78.29,62S126.4,282.59,133,310.79s-59.39,75.64-59.39,75.64,59.72-2.65,80.95,31.19-.66,132.7-.66,132.7,33.84-67,142-82.94,183.79,47.78,183.79,47.78l-6.39-89.09L402.1,385.44l-44.46-65.36-7-57.73,3-43.13-44.79-19.57-66-51.43L36.49,36.09s55.74,41.47,58.4,71.66S18.25,111.07,18.25,111.07Z"/><path class="cls-2" d="M148.63,343.08c22.56-10.17,3.54-11.5,3.54-11.5s63.26-17.25,56.62-29.2c-4.46-8-35.52-.66-55.39,5,9.88-3.61,18.71-8.29,8.94-11.22-8.23-2.47-25.1-1.78-40.95-.24,6.15,4.68,10.43,9.66,11.65,14.84,2.85,12.12-7.71,27.78-20.69,41.71C127.59,349.62,141.33,346.37,148.63,343.08Z"/><path class="cls-2" d="M258.78,445.27c-8,3.8-17.93,21.56-26.38,39.87a248.24,248.24,0,0,1,63.54-17.76,240.8,240.8,0,0,1,106.52,8.38c-6-16.26-20.41-53.94-28.67-63.23-10.62-11.94-11.06,7.08-11.06,7.08s-8.85-57.95-16.37-61.05c-4.56-1.88-7.82,15.82-9.68,30,.15-8.78-1.41-17.24-8.45-15C314.51,378,309.65,417,309.65,417s-1.33-27-11.5-17.25-34.06,73.88-34.06,73.88S276.47,436.86,258.78,445.27Z"/><path class="cls-2" d="M171.63,382.89c-15,5.31-19,8.41-19,8.41L138,401.35a52.34,52.34,0,0,1,16.62,16.27c7.62,12.14,9.69,32.65,9.2,54,40.14-40.64,81.76-83,72.42-85.59-17.25-4.87-23.45,8.4-23.89,7.08s53.08-45.12,46-55.3-86.71,56.62-86.71,56.62S186.67,377.59,171.63,382.89Z"/><path class="cls-2" d="M145.09,184.28c-7.26-10.65-36.92-18.7-60.63-23.53,10.26,11.23,18.93,23.92,23.36,37.57,6,18.49-3.09,31.78-17,41.2,39.2.3,74.43-.08,84.31-2.16,25.22-5.31-4.42-15.93-4.42-15.93s64.14,7.08,65-2.65c.64-7.06-57.35-19.23-89.27-25.39C148.59,192.32,148.77,189.66,145.09,184.28Z"/><path class="cls-3" d="M0,259s98.87,9.29,134.7,9.29,105.5-11.28,119.43-4S209.68,336.67,199.72,340L46.45,391.08l45.78-2.66s19.91-7.3,51.09-19.24S221,345.29,221,345.29s30.52-57.72,42.46-69,37.16-15.93,56.4-21.9l19.24-6S238.21,425.58,236.22,426.24s-13.27-8-13.27-8-55.74,65-61,80.29-8.62,71.66-8.62,71.66,13.27-54.41,19.9-69.67,51.76-66.35,51.76-66.35l13.93,8.62L284,361.22s2.66,27.2,23.89-10.62S344.37,259,344.37,259s10,64.7,28.54,105.51,96.21,88.25,96.21,88.25l23.22-16.59s-88.25-39.81-120.76-109.49-6.64-110.81-6.64-110.81-17.25-26.54-31.18-33.84l13.93,31.19s-100.19-69-116.78-77.63S36.49,36.09,36.49,36.09s158.59,94.22,167.21,98.2,63.7,32.51,63.7,37.16-44.45,21.89-78.29,4S17.25,107.75,17.25,107.75L215,194s52.42-8.63,62.38-7.3,68.34,38.48,68.34,38.48-79,29.2-106.16,29.2S0,259,0,259Z"/><path class="cls-4" d="M560.59,642.32s46.34-11.58,54.26-47.35-13-41.26-14.22-41.05-139,.61-139,.61L437,590.09s-2.44,15.45,12.8,27.44,42.07,18.08,42.07,18.08-34.14-24-15.65-47.75,65.85-22.77,84.75-7.93,18.29,37,12.8,48.17S560.59,642.32,560.59,642.32Z"/><path class="cls-3" d="M693.3,526.68c28-17.07,38.41-9.75,37.8-36.58s-47-78.65-56.09-113.4-16.46-44.51-16.46-44.51h-12.2L468.73,514.29s-33.74,24-39.43,41.46,6.91,39,6.91,39,89.43-14.64,132.92-12.6,41.86,24,41.86,24S665.25,543.75,693.3,526.68Z"/><path class="cls-4" d="M466,293.72c-12.09,10-14.46,27.07-14.46,27.07L590,341s25-7.1,26.55-28.65S592.14,274,592.14,274s.26,11.3-5.26,19.18S553,307.91,508.3,306.34,486,280.84,486,280.84,478.08,283.73,466,293.72Z"/><path class="cls-5" d="M377.78,349.44c37.06-4.47,66,15.5,66,15.5s32.59-22.07,33.64-36-47.05-2.11-78.85-11-32.85-15-32.85-15-32.85,16.56-47.83,60.18-12.61,63.08-12.61,63.08S340.73,353.9,377.78,349.44Z"/><path class="cls-4" d="M360.7,352.85c-1.13,1.44-2.5,3.43-4.07,5.82,6.83-4.95,14-8.37,21.15-9.23,37.06-4.47,66,15.5,66,15.5s15.73-10.66,25.69-21.84c-19.71-4.2-46.38-9.09-67.74-10-38.64-1.57-42.05-3.94-38.64-1.57S424,341,424,341,371,339.71,360.7,352.85Z"/><path class="cls-4" d="M340.73,338.66c8.25-14.77,23.14-28.28,28.06-32.53-2.9-2.05-3.1-3.21-3.1-3.21s-32.85,16.56-47.83,60.18-12.61,63.08-12.61,63.08a281.34,281.34,0,0,1,20-33.32C329.46,372.61,335.32,348.33,340.73,338.66Z"/><path class="cls-1" d="M442.1,383c1-.53-22.86-36.53-22.86-36.53s-5.46,7.53.51,29.75C431.52,380.9,441.7,383.15,442.1,383Z"/><path class="cls-1" d="M461,316.19c-12.35-3.41-64.12-16.82-76.21,17.09-7.48,21,15.83,35.21,34.94,42.89-6-22.22-.51-29.75-.51-29.75s23.91,36,22.86,36.53c-.4.2-10.58-2.05-22.35-6.78a136.1,136.1,0,0,0,4.48,13.61c12.62,32.85,65.7,100.92,65.7,100.92l166.36,28.38s5.78,1.32,22.08-20-5-79.63-6.31-110.12-5.26-42.05-5.26-42.05,10.78-3.94,10-11.56S660.23,306.73,630.54,302s-100.66,9.46-103,10l11.31,3.41-29.44,2.37S473.38,319.61,461,316.19Z"/><path class="cls-1" d="M594.66,386.36c3.55,5.92,46.91,100.92,48.1,100.92S612,395,603.73,374.93a129.11,129.11,0,0,0-21.29-34.3l-.39,25.63-22.47-32.72L452.75,540.89s15,22.48,31.53,28,53.22-2.36,83.58-2.76,12.61,9.47,12.61,9.47,41-6.71,52.83-43.37-20.5-78.84-28.39-101.71S591.11,380.45,594.66,386.36Z"/><path class="cls-2" d="M423.44,537.74c5.78,0,16.82,7.62,51.78,20.76s122.2,3.16,136.66-18.39,10.77-49.15.52-72.54S570.62,364,570.88,353.25s-17.61-42.58-31-47.57-58.35,8.94-85.15,15.51S412.14,317,411.35,317,399.26,333.54,399,344.84s8.15,11.56,25.23,19.18,21.29,18.66,33.11,47.57-6.3,50.73-6.3,50.73l9.2,38.1C446.57,502.79,417.66,537.74,423.44,537.74Z"/><path class="cls-6" d="M598.21,521.05c27.86-20.23-7.1-92.51-25.23-130.35s-23.39-54.93-75.43-59.4-66.22,15.77-66.22,15.77,36.26,58.35,45.73,97.77-16.3,55.45-16,72S570.35,541.29,598.21,521.05Z"/><path class="cls-7" d="M498.08,502.52c11.56,1.58,15.24,4.21,28.65,4.74s32.06-2.63,36.53-1.58,28.12-12.09,37-44.42c.35-1.25.69-2.46,1-3.66-7.69-23.93-19.86-49.19-28.35-66.9-7.44-15.52-12.71-27.55-19.93-36.65-6.09-3.56-12.58-5.7-19.23-5.53-30.48.79-41-8.67-44.68-6.57s-13.4-3.68-20.23-.79-13.67,3.15-16.56,5-1.84,28.65.26,38.64c0,.08,0,.18.06.28,9.69,18.8,20,41.35,24.39,59.77,5.16,21.52-.17,36.07-6,47.54A70.18,70.18,0,0,0,498.08,502.52Z"/><path d="M563.43,475.55c-26.19,9.34-67.17-6.48-67.17-6.48s18.21,36.77,67.17,17.64c15.83-6.19,26.24-10.92,33.15-14.79a82.62,82.62,0,0,0,3.73-10.66c.35-1.25.69-2.46,1-3.66-7.69-23.93-19.86-49.19-28.35-66.9-2.09-4.35-4-8.42-5.83-12.24-7.61-5.7-16.57-10.67-25.5-11.58-22.83-2.33-41.5,9.34-52.91,38.39s-13.23,17.63-1.3,36.57S496,472.44,529.72,474s60.69-27,60.69-27S589.63,466.22,563.43,475.55Z"/><path class="cls-2" d="M495.73,429.27s10,32.8,39.7,34S584,432.6,588.2,430.82s4-4.75,3.41-4.83a29.07,29.07,0,0,1-3.67-1.88s-11.08-37.85-40.41-44.45-49,16.42-52.18,33.85-5.06,11.09-4,13.2S495.73,429.27,495.73,429.27Z"/><path class="cls-8" d="M538.4,458.72c28.85-2.71,46-35.88,46-35.88s-11.1-34.91-40.75-39.2-48.63,28.06-47.5,39.8S509.56,461.42,538.4,458.72Z"/><path class="cls-9" d="M538.4,458.72a42.89,42.89,0,0,0,14.89-4.29c2.69-9.15,4.28-21.52,3.92-36.71-.34-14.48-6.35-25.76-13.32-34l-.25,0c-29.65-4.28-48.63,28.06-47.5,39.8S509.56,461.42,538.4,458.72Z"/><path class="cls-8" d="M449.1,374.54c.59-.5-6.41-6.11-9-16.46s-4.6-12.95-8.8-11c0,0-6.08,1.15-7.36,4.6s9,18.63,16.36,21S448.51,375,449.1,374.54Z"/><path class="cls-8" d="M476.59,336.79c-.74-1.11-4.3-1-6.22-.82-4.85-.24-11.48-.3-12.3,1.21-1.28,2.37,9.66,22.08,13,20.9,2.82-1,4.73-14.8,5.32-19.65a3.46,3.46,0,0,0,.33-1.11.83.83,0,0,0-.14-.52h0Z"/><path class="cls-8" d="M456.39,359.16l-2.95-20.4s-10-.1-12.92,4.73,4.64,13.8,8.58,15.48A9.82,9.82,0,0,0,456.39,359.16Z"/><path class="cls-8" d="M517.89,375.62c.49-.39,2.17-29.37,2.36-32.32s-10.93-10.75-19.11-6.21c0,0-2.07,11.23,1.57,21.88S517.4,376,517.89,375.62Z"/><path class="cls-8" d="M495.42,337.18c-3.15-3.94-16.95-.59-16.95-.59l-1.87.2s11.62,23.56,13.1,23.26S498.57,341.13,495.42,337.18Z"/><path class="cls-8" d="M446,442.6c-6.57,29.7,10.25,67.55,8.94,67.81,0,0,14.72,4.47,23.92,1.58a4.6,4.6,0,0,0,2.88-2.51c1.26,3.67,2.69,6.52,3.29,8.55l.79-1.31c.66,0,15.24,3.54,21.16-3.29s-18.27-38.76-20.11-40.87-5.65,7.63-7.1,20.11c-.06.58-.11,1.15-.15,1.72-3-7.59-7.93-16.49-13.12-24.45-11.3-17.35-6.83-60.71-6.83-60.71S452.61,412.91,446,442.6Z"/><path class="cls-8" d="M539.47,511.46c3.81-9.59-23-37.84-23-37.84a54,54,0,0,0-3.42,25c1.45,13.93,7.36,20,7.36,20S535.66,521.05,539.47,511.46Z"/><path class="cls-8" d="M580.08,502.85c-10.65-15.57-31.15-77.07-32.92-77.07s-11.43,32.53-8.87,53.42a146.5,146.5,0,0,0,10.05,37.65C561.35,524.14,590.72,518.42,580.08,502.85Z"/><path class="cls-5" d="M517,375.35c.48.23.8.33.87.27.49-.39,2.17-29.37,2.36-32.32.12-1.73-3.61-5.08-8.36-6.69-1.31,7.43.78,18.41.78,18.41l-6.51-9.66Z"/><path class="cls-5" d="M475.83,342.65l-.22-.44a47.62,47.62,0,0,0-1.52-6.3,23.76,23.76,0,0,0-3.72.06c-1.47-.07-3.11-.13-4.69-.13.68,6.51,3.45,15.91,5.49,22.19C473.33,357,475,348.59,475.83,342.65Z"/><path class="cls-5" d="M449.1,374.54c.59-.5-6.41-6.11-9-16.46s-4.58-12.92-8.76-11A97.79,97.79,0,0,0,434,358a36.38,36.38,0,0,0,9.88,15.8C448,375,448.62,374.93,449.1,374.54Z"/><path class="cls-5" d="M456.39,359.16l-2.95-20.4a28.55,28.55,0,0,0-5.9.67,22.71,22.71,0,0,0-.51,9.88c.76,3.71,3.29,7.42,5.93,10.45A9.19,9.19,0,0,0,456.39,359.16Z"/><path class="cls-5" d="M489.7,360.05c1.48-.3,8.87-18.92,5.72-22.87-1.42-1.77-5-2.06-8.49-1.86a186.66,186.66,0,0,0,.13,21.27C488.34,358.73,489.34,360.12,489.7,360.05Z"/><ellipse class="cls-10" cx="533.87" cy="420.83" rx="25.94" ry="31.64"/><path class="cls-11" d="M546.79,448.26a37.87,37.87,0,0,0,1.34-10.05c0-17.48-11.61-31.65-25.93-31.65a22.35,22.35,0,0,0-12.92,4.21,37.89,37.89,0,0,0-1.35,10.06c0,17.47,11.61,31.64,25.94,31.64A22.4,22.4,0,0,0,546.79,448.26Z"/><ellipse class="cls-12" cx="533.87" cy="420.83" rx="12.44" ry="15.17"/><path class="cls-9" d="M530.64,429.65c0-5.52-3.66-10-8.18-10s-8.19,4.47-8.19,10,3.67,10,8.19,10S530.64,435.16,530.64,429.65Z"/><path class="cls-5" d="M527.84,496.94c0,1.29,3.94,13.35,6.78,19.81a10.17,10.17,0,0,0,4.85-5.29c3.81-9.59-23-37.84-23-37.84a34.42,34.42,0,0,0-1.24,3.46c2.46,11,5.24,23.29,7.28,26.56C526.46,510,527.84,495.17,527.84,496.94Z"/><path class="cls-5" d="M580.08,502.85c-10.65-15.57-31.15-77.07-32.92-77.07-.37,0-1.09,1.44-2,3.9-2,14.31-3.11,35.11,3,53.07,5.89,17.46,12,30.09,17,37.14C576.75,519.08,587.08,513.11,580.08,502.85Z"/><path class="cls-5" d="M452.55,449.83c.79,20.89,12.61,42.77,12.61,42.77l.79-14.19s7,23.72,11.37,34c.54-.12,1.07-.25,1.58-.41a4.8,4.8,0,0,0,1.88-1.1c-.35-5.29-1.42-13.09-2.42-19.62a155.14,155.14,0,0,0-11.82-21.33c-8.19-12.58-8.09-38.83-7.42-52.31C455.57,427,452.14,439.12,452.55,449.83Z"/><path class="cls-5" d="M507,513.43c5.91-6.83-18.27-38.76-20.11-40.87-.52-.6-1.21-.23-2,.88.71,13.7,2.44,34.31,6.61,44.06C496.51,517.91,503.39,517.62,507,513.43Z"/><path class="cls-3" d="M646.51,362.37c-21,6.56-45.58-34.75-45.58-34.75s2.14,47.4,16.77,57.62,45.11-12.65,48.62-26.68A124.77,124.77,0,0,0,670,332.8l-13,4C657.48,336.77,667.54,355.82,646.51,362.37Z"/><path class="cls-5" d="M646.64,351.8s28.9-20,66-15.5S785.14,413,785.14,413s2.36-19.45-12.62-63.08-47.83-60.18-47.83-60.18-1.05,6-32.85,15-79.9-2.89-78.84,11S646.64,351.8,646.64,351.8Z"/><path class="cls-4" d="M688.69,320c-21.37.87-48,5.76-67.74,10,9.95,11.18,25.69,21.84,25.69,21.84s28.9-20,66-15.5c7.19.86,14.32,4.28,21.15,9.23-1.56-2.39-2.94-4.38-4.07-5.82-10.25-13.14-63.33-11.82-63.33-11.82s57.55-7.1,61-9.47S727.32,318.42,688.69,320Z"/><path class="cls-4" d="M765.17,379.72a283,283,0,0,1,20,33.32s2.36-19.45-12.62-63.08-47.83-60.18-47.83-60.18-.2,1.16-3.1,3.21c4.92,4.25,19.81,17.76,28.07,32.53C755.06,335.19,760.92,359.46,765.17,379.72Z"/><path class="cls-3" d="M622,413.89s-.12,6.33,2.88,7.27C622.25,416.5,622,413.89,622,413.89Z"/><path class="cls-3" d="M657.85,368.23a2.79,2.79,0,0,0-.12-.68S657.78,367.79,657.85,368.23Z"/><path class="cls-3" d="M642.08,428.13h-1C638.9,428.12,639.75,428.46,642.08,428.13Z"/><path class="cls-3" d="M631.72,453.32C612.62,434.62,585,346.83,585,346.83s-.41,24.38,8.13,45.52S622,464.29,633.35,503.72s3.25,49.18,3.25,49.18l25.2-14.63c2-1.22,15.85-14.63,15.85-14.63s15.45-19.92.81-57.32c-13.8-35.28-30.14-38-36.38-38.19-2.33.33-3.18,0-1,0h1a23.47,23.47,0,0,0,14.84-8.55c7.9-9.78,1.88-46,.93-51.35.21,2.32-.55,11.36-16.78,36.72-8.93,14-13.69,17-16.22,16.21,2.83,5.1,8.43,12.66,19.47,22,21.14,17.88,21.14,34.14,17.07,64.62S649.6,531,649.6,531,650.82,472,631.72,453.32Z"/></g></g></svg>