<svg xmlns="http://www.w3.org/2000/svg" viewBox="0 0 1109.59 834.6"><defs><style>.cls-1{fill:#260202;}.cls-2{fill:#3a0606;}.cls-3{fill:#540703;}.cls-4{fill:#540e0e;}.cls-5{fill:#440a0a;}.cls-6{fill:#6d0f0d;}.cls-7{fill:#8c2222;}.cls-8{fill:#c13a3a;}.cls-9{fill:#b72c2c;}.cls-10{fill:#db4d4d;}.cls-11{fill:#891b1b;}.cls-12{fill:#ea5e5e;}.cls-13{fill:#110f0e;}.cls-14{fill:#5b4238;}.cls-15{fill:#3a2a28;}.cls-16{fill:#f7c523;}.cls-17{fill:#f7f7f7;}</style></defs><g id="Layer_2" data-name="Layer 2"><g id="Capa_1" data-name="Capa 1"><path class="cls-1" d="M598.93,575.65s1.09-36-.29-43.13L431.84,537s45.3,33.67,82.3,36.58S598.93,575.65,598.93,575.65Z"/><path class="cls-1" d="M626.07,615.9c-29,8.45-353.8-60.14-423.43-67.91S97.47,544.89,120,593.06,392.67,711.15,392.67,711.15l-92.84-51.28,21.76,22.53s-224.12-88.57-174.08-115S689.32,702.6,682.07,614,560.65,473.5,560.65,473.5L539.42,507C636.93,536.85,655,607.44,626.07,615.9Z"/><path class="cls-1" d="M695.77,776.13c-6.23-5.82-12.88-10.81-25.77-3.74s-29.09,39.49-29.09,39.49,26.18-23.28,38.65-22,20.54,8.74,22.87,5c1-1.58,3-2.34,4.88-2.63,0,.28,0,.54,0,.78-2.55.6-5.85,2.86-9,10.58-5.82,14.13,4.57,17,2.49,18.29s5,2.49,5,2.49,5.4-22,12.89-23.69a42.92,42.92,0,0,0,9.83-3.62l1.53.13c-1.15,1.84-2.49,5.11-3.47,11-2.08,12.47,3.33,27.85,3.33,25.36s10.8-32.84,16.62-32.84.83-12.88.83-22.44c0-6.14-7.88-35.27-13.53-55.31C729.3,695.16,724,664.77,718.63,641c4.2,7.17,10.94,18.28,11.23,16.28.41-2.9-10-67.33-22-60.26-1.32.77-2.46,1.41-3.49,2-15.86-14.82-50.28,19.55-52.16,20.18s27.53,14.09,27.53,14.09L699.56,680c.68,3.21,1.3,6.54,1.87,9.95l5.15,78.31C704.5,769.9,702,782,695.77,776.13Z"/><path class="cls-2" d="M333.09,800.89c-9.6,7.68-54.89,22.09-50.81,22.09s41.53-10.57,69.7-12.81,34.9,2.24,34.9,2.24-37.46,10.25-30.41,10.25,65.63-3.84,72.67-6.08,5.77-21.14,11.85-32.66S485.17,716,485.17,716l-23.69-24.65,14.41,3.2s-34.9-28.17-43.22-24-6.73,10.24-6.41,11.52l23.38,23.7s-50.59,76.2-55.39,79.08-41.95-11.53-53.15-11.53-28.5,7-31.38,10.57-13.45,14.73-13.45,14.73,37.78-10.25,49.63-8.33,11.21,5.12,11.21,5.12S342.7,793.2,333.09,800.89Z"/><path class="cls-2" d="M527.69,554.66c.75-.2.36-.17,0,0Z"/><path class="cls-2" d="M435.77,706.37c24.33,21.34,38.42,26.46,38.42,26.46s-49.52-62.75-55.92-72.14-11.53-26-31.59-43.54A93.1,93.1,0,0,0,344,596.23s49.52-18.36,102-26,53.78-10.25,72.57-13.66c5.82-1.06,8.23-1.63,9.1-1.87.36-.17.75-.2,0,0-.57.28-1.08.9,3.28,1.44a178.71,178.71,0,0,0,19.63,1.28s61.48,62.76,67.88,78.12,34.15,28.18,44.4,32,26.89,26,26.89,26,12,5.55,14.52,6,12.8,5.55,13.23,0-11.1-38-11.95-40.56,1.7-12-8.54-37.14-52.51-53.36-58.49-61.9-17.83-36.09-36.28-53.79l-18.45-17.69-90,6.6s-28.18,9.39-32.45,18.78-133.19,37.57-159.65,61.47-22.63,24.76-23.06,28.6S411.44,685,435.77,706.37Z"/><path class="cls-3" d="M355.83,591.5c-1-.32-40,5.76-35.22,11.84s91.57,81,89.32,77.8-45.46-57-42.58-54.75,39.7,36.18,45.15,39.07c5.09,2.7,6.82,17.48,12.55,5.64-3.72-4.87-6.52-8.62-7.74-10.41-6.41-9.39-11.53-26-31.59-43.54A93.1,93.1,0,0,0,343,596.23s4.86-1.8,13.14-4.51Z"/><path class="cls-4" d="M326,571.76c-4.75,15.79-5,21.76,12.75,15.15s99.68-54.86,99.68-54.86-48.45,32-44.61,32,79.83-29.67,79.83-29.67-63,28.6-60,28.6,75.56-14.09,75.56-14.09-69.8,19.21-63.39,19,100.53-13.45,101-14.51-10.89-32.23-10.89-32.23L420.71,516c-.42,1.5-59.76,31.38-54.85,30.1s67.23-17.08,69.15-17.08S330.75,556,326,571.76Z"/><path class="cls-4" d="M591.9,521.59c2.77,1.5,33.08,22,32.23,20.71s-39.7-43.55-39.7-43.55l-17.08,11.74s59.55,63,60,62.12S589.12,520.1,591.9,521.59Z"/><path class="cls-4" d="M661.92,667.52a14.88,14.88,0,0,1,1.7.78c3.91-6.45,6.42-16.46,4-28.14-4.11-20.24-74.47-96.11-76.16-99.16.73,2.25,12.46,51.21,20.18,85.26a50.91,50.91,0,0,1,5.83,9.24C623.92,650.87,651.67,663.68,661.92,667.52Z"/><path class="cls-5" d="M591.47,540.91l0,.09C591.49,540.92,591.47,540.88,591.47,540.91Z"/><path class="cls-4" d="M558.41,566.44c10.43,10.88,28.12,29.62,41.54,45.31-10.47-28.56-21.71-60.14-22.89-63.16C575.4,544.33,565.69,557.06,558.41,566.44Z"/><path class="cls-6" d="M435.2,741.06c2.58-4.81,4.27-8.13,4.19-8.37S437.66,735.83,435.2,741.06Z"/><path class="cls-6" d="M394.25,784.88c-4.81,2.88-41.95-11.53-53.15-11.53s-28.5,7-31.38,10.57c-2.13,2.6-8.43,9.38-11.59,12.75,9.32-4.28,22.89-11.47,30.48-11.47,9.61,0,86.45,27.85,87.09,21.77s37.46-65.31,37.46-65.31l-41.63,51.22s15.89-35.27,23.67-51.82c-7.72,14.39-23.43,42.14-23.67,40.94-.13-.68,2.28-13.15,5.12-27.4C405.91,770.15,396.22,783.7,394.25,784.88Z"/><path class="cls-6" d="M400,796.94c-.76-.15-25.33-1.05-42.9-1.56v.06l-.72-.09-6.15-.16c-5,.23-11.81,1.43-17.15,5.7s-21.57,10.57-34.33,15.36c18.7-4.93,46.47-11.54,49.59-11.84C352.84,804,401.08,797.15,400,796.94Z"/><path class="cls-7" d="M603.63,439.16l-19,80.15s65.94-81.86,150.46-93.37,232.66,47.75,232.66,47.75-36.69-29.84-32-41.36,105.42,5.55,105.42,5.55-62.23-49.46-54.34-64.81,105.42-15.35,105.42-15.35-69.2-36.24-69.66-62.25S1099.14,243,1099.14,243s-74.31-29-80.81-52.44,71.05-69.93,71.05-69.93-42.72,11.94-59.44-3.84,40.69-46.55,40.69-46.55a531.39,531.39,0,0,0-45.8-33.6C999.29,20,1018.33,0,1018.33,0S880.21,36,858.25,43.56s-191.47,146.6-191.47,146.6l-43.19,37.09,67.81,55.86L704.86,327l5.58,34.11L657,408.88Z"/><path class="cls-6" d="M843.11,52.45C795.46,84.64,666.78,190.16,666.78,190.16l-43.19,37.09,67.81,55.86L704.86,327l5.58,34.11L657,408.88l-8.09,4.59c6.84-.23,18.15-.49,34.54-.49,29.72,0,23.84-2,35.61-3.7s3.09-25.86,3.09-25.86S729,399.9,742.62,407.3,751,388.53,751,388.53s4.33-.85,14.24-.85-10.84-31.27-10.84-31.27S806.71,390,807.94,378.3c.24-2.26-2.28-6.42-6.51-11.67,9.74,9,17.43,15.91,20.14,17.92,9.9,7.4,48.61,22.75,64.09,19.9s-5.27-12.79-16.1-18.19,22,4.83,43.34,10.52,2.48-10.8-13.93-21-70-15.06-96.91-15.06c-2.34,0-4.27-.05-5.86-.15q-1.66-1.84-3.48-3.78a69.88,69.88,0,0,1,8.72-2.9s46.44,2.56,57.28-4.54c4.74-3.11.35-6.33-7-9.11,17.39,3.61,38.3,7.31,52.19,8,30,1.42,10.84-14.21-1.85-21.6s14.24-1.43,34.67.56,1.86-14.78-33.13-31.83c-24.13-11.77-62.54-3.52-78.88,1.62,2.39-4.95-12.14-13-12.14-13s61-6.26,61.92-11.94S824,258.06,824,258.06s43-6.25,62.86-11.65-11.77-11.66-17.34-12.8,54.8,2.85,78-4.83-77.71-20.47-97.84-20.47S829,229.07,812.59,235s-24.46.86-50.47.86,38.7-23.31,38.7-23.31,26.94-9.67,38.7-17.63-22.6-6.53-22.29-7.67,62.54-16.2,65.64-20.47-62.23-1.7-62.23-1.7,35.6-19.62,24.77-19.62S755,179.6,755,179.6l77.4-40.08s10.53.29,12.7.57,56.66-5.68,64.09-11.94S888.44,123,886.9,123s45.82-9.1,55.42-13.93S904.23,104,904.23,104s30-8.53,31.89-12.22-40.25,2.84-54.49,8-83.9,56.57-83.9,56.57,18.26-27,10.52-29.85S770.17,141,770.17,141s58.52-40.37,57.28-44.63c-1.14-3.92-46,21-57.29,28.34,14.87-10.82,97.24-72.24,112-88.22-6.86,1.94-12.76,3.64-17.27,5-9.35,5.55-20.15,12.7-28.29,18.27C840.13,56.83,842.2,54.43,843.11,52.45ZM791.46,357.37l3.27,3.05C788.86,359.9,789.16,358.65,791.46,357.37Z"/><path class="cls-8" d="M674.78,251.66a3.75,3.75,0,0,0-.92-.51C673.73,251.15,674.06,251.33,674.78,251.66Z"/><path class="cls-8" d="M533.31,477.42l4.45,60.92s58.22-44.55,64.76-54.92,97.13-102.28,97.13-102.28l8.23,16.12L714.47,362s13.17,7.56,11,2-25.79-74.57-25.24-77.59S859.9,426.48,868.13,435.55s120.18,46.36,120.18,46.36-41.71-20.16-45.55-22.68-63.11-30.73-63.11-30.73L805.57,363s54.87,10.58,62,10.58,189.88,69.53,189.88,69.53-166.28-73.06-169-74.57S811.6,356,811.6,356,686.93,259.56,674.78,251.66c-.72-.33-1-.51-.92-.51a3.75,3.75,0,0,1,.92.51c11.92,5.54,132.36,53.9,140.12,53.9,8.23,0,58.17-2.52,66.4-2.52s129,38.8,154.76,50.89a100.16,100.16,0,0,0,51,8.57s-143.78-50.89-149.27-56.43-26.34-8.57-46.64-15.62-70.8,8.06-88.36,2.52-129-55.93-129-55.93,105.91,3,135.55,0,40.06-24.69,40.06-24.69,51.58,11.09,72.44,15.12,187.68,18.64,187.68,18.64S932.88,218.9,874.16,204.79,842.33,229,768.25,229s-101-2.52-101-2.52,141-68,142.69-68.52,17.56-15.12,37.86-15.12,74.64,8.06,74.64,8.06l132.8-20.66s-131.7,11.09-154.21,7.56-58.17-4.53-59.81-4.53,39-26.2,48.84-32.25,180.55-30.73,180.55-30.73S946.06,81.35,900.51,88.91s-52.14,29.22-107,63.48S642,222.93,642,222.93,839,52.13,858.25,43.56,1003.68,6.78,1003.68,6.78,914.23,12.33,853.86,35s-249.7,205.57-249.7,205.57l15.37-4c15.36-4,105.91,68,73,129.48S533.31,477.42,533.31,477.42Z"/><path class="cls-7" d="M8.77,268.76S73.4,295.07,73,321s-58.4,62-58.4,62,81.77,0,88.39,15.28-45.56,64.51-45.56,64.51,84.49-17,88.39-5.52S119,498.39,119,498.39s124.21-59,195.07-47.54S440.19,543.8,440.19,543.8l-16-79.79-44.77-30.14-44.78-47.54,4.67-33.95,11.29-43.72,56.85-55.61-36.21-36.92S229.15,77.76,210.74,70.19,76.52,26.82,76.52,26.82s16,20-5.45,36.51a458,458,0,0,0-38.4,33.45s48.13,30.64,34.11,46.34-49.84,3.82-49.84,3.82,65,46.27,59.58,69.61S8.77,268.76,8.77,268.76Z"/><path class="cls-6" d="M291.33,261.65c-21.8,0-28.55,5.09-42.31-.85s-14.28-26.6-31.15-26.6-101.5,12.74-82,20.38,70.09,3.68,65.42,4.81-31.15,7.35-14.54,12.73,52.7,11.6,52.7,11.6-43.1,8.21-42.32,13.87S249,309.47,249,309.47s-12.18,8-10.18,12.93c-13.7-5.1-45.91-13.32-66.14-1.61-29.33,17-44.91,33.68-27.78,31.7s39.72-7.93,29.08-.57-26.74,22.92-1.56,21.51c11.65-.66,29.18-4.34,43.76-7.94-6.15,2.77-9.83,6-5.86,9.07,9.09,7.07,48,4.53,48,4.53a52.36,52.36,0,0,1,7.31,2.88c-1,1.28-2,2.54-2.92,3.76-1.33.1-2.95.15-4.91.15-22.59,0-67.5,4.81-81.26,15s-29.59,26.6-11.68,20.94,45.43-15.85,36.35-10.47-26.48,15.28-13.5,18.11,45.43-12.45,53.73-19.81c2.27-2,8.72-8.9,16.89-17.85-3.55,5.23-5.67,9.38-5.47,11.62,1,11.61,44.91-21.79,44.91-21.79s-17.39,31.13-9.08,31.13,11.94.85,11.94.85-4.41,26,7,18.68,17.13-23.77,17.13-23.77-7.27,24.05,2.6,25.75,4.93,3.68,29.85,3.68c13.75,0,23.22.26,29,.49l-6.78-4.57-44.78-47.54,4.67-33.95,11.29-43.72,56.85-55.61-36.21-36.92S263.38,111.08,223.43,79c.76,2,2.5,4.36,5.45,7.23-6.83-5.54-15.88-12.66-23.72-18.19-3.78-1.36-8.73-3-14.48-5,12.38,15.91,81.44,77.05,93.92,87.83-9.49-7.33-47.08-32.12-48-28.22-1,4.24,48,44.43,48,44.43s-25.44-17.27-31.93-14.44,8.82,29.72,8.82,29.72-58.41-51.22-70.35-56.32-47.24-11.6-45.69-7.92,26.74,12.17,26.74,12.17-40,.28-31.93,5.09,47.77,13.87,46.47,13.87S161.8,148.18,168,154.4s51.92,12.17,53.73,11.89,10.65-.57,10.65-.57l64.9,39.9s-66.72-34-75.81-34,20.77,19.53,20.77,19.53-54.77-2.55-52.18,1.7,54.78,19.24,55,20.37-28.56-.28-18.69,7.64,32.45,17.55,32.45,17.55S313.14,261.65,291.33,261.65ZM264,385.63l2.75-3C268.66,383.86,268.91,385.11,264,385.63Z"/><path class="cls-8" d="M364.56,277.36c.61-.34.88-.52.78-.52A3,3,0,0,0,364.56,277.36Z"/><path class="cls-8" d="M197.39,230.7C148.16,244.74,0,271.83,0,271.83s139.88-14.55,157.36-18.56,60.74-15.05,60.74-15.05,8.74,21.57,33.59,24.58,113.65,0,113.65,0S271.93,313,257.21,318.47s-57.06-9.53-74.08-2.5S148.62,326,144,331.51,18.87,387.69,18.87,387.69a72,72,0,0,0,42.79-8.53c21.62-12,122.85-50.66,129.75-50.66S240.18,331,247.09,331c6.5,0,107.48-48.14,117.47-53.65a3,3,0,0,1,.78-.52c.1,0-.17.18-.78.52-10.18,7.85-114.71,103.81-114.71,103.81s-62.12,11-64.42,12.54S43.71,467.94,43.71,467.94s153.22-69.21,159.2-69.21,52-10.54,52-10.54L192.79,453.4S143.1,481.49,139.88,484s-38.19,22.57-38.19,22.57,93.86-37.11,100.76-46.14S342.79,308.94,343.25,312s-19.32,71.73-21.16,77.25,9.2-2,9.2-2l5.52,35.11,6.9-16.05s76,91.5,81.44,101.82,54.3,54.67,54.3,54.67l3.73-60.64S377.3,452.39,349.69,391.2,398,258.28,410.89,262.3l12.88,4S265,84.24,214.42,61.66,88.8,33.58,88.8,33.58,194.63,61.66,210.74,70.19,392,248.75,392,248.75s-81-36.11-127-70.22-51.53-55.67-89.72-63.2S32.67,96.78,32.67,96.78s143.1,24.57,151.38,30.59,42.33,32.1,40.95,32.1-31.29,1-50.15,4.52-129.3-7.53-129.3-7.53L156.9,177s45.55-8,62.58-8,30.37,14.55,31.75,15.05,119.63,68.21,119.63,68.21-22.55,2.51-84.66,2.51S246.63,216.65,197.39,230.7Z"/><path class="cls-6" d="M205,660.25c-3.76-3.13-9.08-20-9.08-19.11s-3.13,34.14-3.13,34.14,18.79,16,18.79,19.74l25.06-62.65c-1.88-1.88-20.05-38.22-20.05-38.22s5,40.41,1.57,38.85-13.78-25.06-13.78-25.06a77.28,77.28,0,0,0,5,31c6.26,16.29,3.55,25.48,3.55,25.48A22.41,22.41,0,0,1,205,660.25Z"/><path class="cls-3" d="M380.92,404c.19,0,.25,0,.16,0Z"/><path class="cls-3" d="M196.11,225.25a13.2,13.2,0,0,0,1.73,1.14C198,226.39,197.37,226,196.11,225.25Z"/><path class="cls-9" d="M283.82,607c13.63-8,25.84-35.24,35.24-45.11s35.71-50.27,38.53-52.62a37.66,37.66,0,0,1,8.46-5.64l21.61-58.26c-1.88,0-17.38-4.23-43.23,8.93s-30.54,17.85-30.54,25.37-24.9,19.26-27.25,24.9-4.7,15-7.52,22.56S243.89,593.81,240.6,599s-12.69,0-14.1,6.11-44.17,140.49-44.17,140.49l35.24-3.29S270.2,615,283.82,607Z"/><path class="cls-10" d="M297.48,495.35c-5.21,3.61-9.88,6.9-10.84,9.19-2.35,5.64-4.7,15-7.52,22.56-2.19,5.84-22.27,42.92-32.65,61.57a132.38,132.38,0,0,1,9.4-9.76c11.75-11,10-14.09,10-14.09s14.26,0,17.55-8.15c1.67-4.16-2.08-5.13-6.16-5.09a42.74,42.74,0,0,0,11.48-6c12.37-8.77.47-6.26,5.8-12.84s17.38,0,18.16-8.62-10.49-7.36-10.49-7.36,18.33-5.79,13.94-11.43-23.65,1.41-23.65,1.41S299.24,498.74,297.48,495.35Z"/><path class="cls-10" d="M233,613.84c1.14-6.44-2.68-8.17-6.6-8.35-1.87,7-22.53,72.25-34.88,111.19.46-.15,1-.28,1.54-.41,7.36-1.56,8.62-11.43,8.62-12.21s14.25-5.64,16.44-14.1-3.76-7.52-3.76-7.52,10.65-9.08,10-19.26S213,664.43,213,664.43l2.51-11s11.28,3,9.24-16.45a84.84,84.84,0,0,0-1.34-9.29C226.3,626.27,231.46,622.53,233,613.84Z"/><path class="cls-6" d="M236,617.44s-13.82,81.45-21.31,125.12l2.9-.27S270.2,615,283.82,607s25.84-35.24,35.24-45.11,35.71-50.27,38.53-52.62a37.66,37.66,0,0,1,8.46-5.64l7.22-19.47-4.47-2.95c-1.57.31-52,9.4-52,9.4s15,1.56,13.78,16.28-57.64,93-64.22,98.68-3.76-26-3.76-26Z"/><path class="cls-9" d="M676.83,544.77c4.38,18.58,6,71.42,6,71.42l4.6-.63s5.63-14.82,17.12-57.84,6.47-81.45,6.47-84.79-3.13-1.88-18.37-26.31-57-46.78-57-46.78-6.27-19.42-21.72-25.27-52.63,12.95-54.09,12.95l31.53,58.05s23.6-6.47,29.24,7.52,54.3,21.3,51.16,28.4S672.44,526.18,676.83,544.77Z"/><path class="cls-10" d="M628.38,453.3c-3.23.83-2.77,3.53-.42,7.14,15.07,9.43,46.39,15.31,43.85,21.05-3,6.84.36,41.92,4.53,61.11,1.77-4.51,3.85-10.56,6.12-18.51,6.69-23.39-5.63-10.23-5.84-10.86s4.17-3.13,5.43-12.94-6.27-13.58-6.27-13.58,7.94-17.12-5.22-26.73c-5.21-3.8-7.47-4.27-8.3-3.44-1.54-2.76-5.28-5.78-14-7-16.6-2.32-9.84,6.6-8.71,8C638.66,456.53,634.19,451.8,628.38,453.3Z"/><path class="cls-6" d="M682.88,616.19l4.6-.63s5.63-14.82,17.12-57.84,6.47-81.45,6.47-84.79-3.13-1.88-18.37-26.31-57-46.78-57-46.78-6.27-19.42-21.72-25.27c-10.46-4-30.85,3.36-43.4,8.51l10.92,17.75s23.81,20.83,26.63,20.83,27.41-2.82,27.41-2.82-16.13,4.23-12.22,10.81,21.77-9.71,44,7.52,26.94,31.79,19,32.73a53.4,53.4,0,0,1-13.63,0s18.79,41.45,18.79,45.63c0,2.45-6.46,27.81-11.81,48.36.11,1.07.22,2.15.32,3.24,6.82-21.35,16-48.56,16.09-41.37.15,8.4-9.18,46.8-14.13,68.74C682.58,606.78,682.88,616.19,682.88,616.19Z"/><path class="cls-3" d="M498.61,557c11.07,1.88,48.66,14.41,50.33,13.36s28.61-28.81,35.92-31.53a117.06,117.06,0,0,0,13.78-6.26l-18.17-22.77S516.36,501,515.74,501s-26.73,2.93-33.63,3.76-26.73-1-31.74.84-17.54,23.8-17.54,23.8L413.41,535l9.81,14.83,38.43,17.33C461.65,566.56,487.54,555.07,498.61,557Z"/><path class="cls-2" d="M490.94,537.53l17.54,16.7s62-25.68,71.84-33.2,5.22-42.6,5.22-42.6L411.58,515s42.18,31.75,45.52,33S490.94,537.53,490.94,537.53Z"/><path class="cls-6" d="M489.92,530.36c9.4-.63,34,11.48,44.9,10.23s45.11-12.32,54.09-26.94-2.72-43.44-2.72-43.44h-2.5L403,519.5s13.45,18.27,20.93,20.41S480.52,531,489.92,530.36Z"/><path class="cls-11" d="M376.94,511.77s18.38,19.63,25.27,21.09,39.89-11.06,50.12-11.27,62.65-7.94,92.72-1.88,53.67-30.07,56-40.72a119.11,119.11,0,0,0,2.51-20.05s3.34-48.24-1.26-58.06S568.44,377.7,558,376.66,546.51,385,546.51,385s-18.37-2.19-28.82,4.39l-75.38,19.21c-.63.21-16.29-1.46-27.36,1.88s-38.43,20.26-38.43,20.26-8.77-11.07-18.79-9.82-20.26,36.34-7.31,66S376.94,511.77,376.94,511.77Z"/><path class="cls-12" d="M359.24,428.87c1.15-1.92,5.08-3.8,8.72-5.45a16.49,16.49,0,0,0-10.23-2.49c-10,1.25-20.26,36.34-7.31,66,8.2,18.79,16.66,23.75,21.75,24.85.11-1.42-.72-3.74-3.69-7.57-7.05-9.08-10.33-11.27-12.06-18.64S358,474,356.58,468s-2.51-18.64-1.41-22.24S356,434.35,359.24,428.87Z"/><path class="cls-6" d="M558,496.21l-17.86,11.91-23.8,7.52,13.78-.79c1.1-.31,11.12-1.72,14.57-5S558,496.21,558,496.21Z"/><path class="cls-6" d="M408.42,521a29.78,29.78,0,0,0,13.47,1.25c7.21-1.09,23.65-3.91,22.71-3.91s-32.26-3.76-37.43-3.76-17.39-9.71-17.39-9.71l-13.15-8.46,10.8,14.1s11,5,11.59,5S408.42,521,408.42,521Z"/><path class="cls-6" d="M416.1,416.65s9.86,11.75,10,12.69l2.35-15.82Z"/><path class="cls-6" d="M409.21,424.79s-10.5,7.52-10.81,8S423.77,437,424.24,437Z"/><polygon class="cls-6" points="393.07 442.02 384.77 456.75 383.36 458.94 403.57 452.99 396.83 450.48 425.02 442.18 393.07 442.02"/><path class="cls-6" d="M553.46,411.64s-7.52-13.79-8.93-14.26-23.34,20.05-23.34,20.05l11.12,10.65,30.86,5.8-.32-9.4s-29.91-.94-29.44-3.6-2.19-6.11-3.13-7.68S553.46,411.64,553.46,411.64Z"/><path class="cls-6" d="M489.82,518.4c7.26-.5,14.95-.89,22.56-1,5.66-.72,10.25-1.72,15.34-2.72,15.87-3.14,36.34-68.5,36.34-68.5l-18.8-7.73L534.8,384.8c-5.65.37-12.24,1.53-17.11,4.6L503.63,393l-70.72,28.79c-.63,1.67-52.21,55.34-52.21,55.34s12.32,32.57,66.2,38.21C465.78,517.3,479.4,518.2,489.82,518.4Z"/><path class="cls-6" d="M545.05,519.71c1,.21,2.07.36,3.1.47a39.86,39.86,0,0,0,8-5.07c5.43-4.8,18.38-16.49,22.76-23.8s13.37-47.62,11.91-60.36-7.31-17.54-9-21.92-26.73-18.8-26.73-18.8l14.41,27.15s9.81,4.18,10,17.12-6.06.21-5.43,2.93S572,462.7,572,462.7s6.48-.84,7.52-.63-2.92,16.08-5,17.75-5.85-.21-4.18,1.46c1.3,1.3-18.76,26.74-27.73,38C543.42,519.4,544.25,519.55,545.05,519.71Z"/><path class="cls-13" d="M374.66,233.66c7.68-3.72,6.89-5.17,5.3-5.17S281.67,263,288,332.5s107.57,96.76,107.57,96.76L421,444.56l1.85-96.76c-.79-.21-41.07-14.68-58-44.87S367,237.38,374.66,233.66Z"/><path class="cls-14" d="M298.77,326.54c5.19,56.7,73.56,85.3,98.53,93.9,16.89-2.56,8.37-5.37,9.52-6.33,1.37-1.14-17.42-9.12-17.88-10.64s-42.19-31.15-57.32-42.93c-11.92-9.28-10.75-44.72-10.39-56.94,1.65,9.46,10.28,31.54,19.56,48.2,11,19.76,64.2,48.63,64.2,48.63s11.46-9.49,13.29-13.29-6-8.74-6-8.74S372,349.14,352.26,328.25c-13.83-14.66-17.73-36.78-19.31-47.51,3.4,8.75,12.32,24.53,21.6,35.73,12.46,15,62.36,49,62.36,49l9.17-1.9L410,359.4s-51.29-58.32-61.44-66.49-3.67-18.62-6.42-33.81c-.72-4,2.24-9.63,7.05-15.8C323.23,260.42,295.26,288.14,298.77,326.54Z"/><path class="cls-13" d="M540.69,356.56,529,452.85l27.4-12.76s104.34-17.4,120.37-85.79-75.22-112-76.79-112.13-2.57,1.21,4.54,5.65,21.12,41.38.06,69.74S541.51,356.43,540.69,356.56Z"/><path class="cls-14" d="M632,316.12c-11.22,7.14-70.31,60.15-70.31,60.15l-16.53,2.61,8.85,2.76s54.3-28.95,68.78-42.7c10.78-10.23,21.85-25.05,26.45-33.42-3.07,10.52-10,32.12-25.81,45.34-22.51,18.87-66.67,44.06-66.67,44.06s-8.44,4.15-7.14,8.1S561,417.51,561,417.51s56.86-23.58,70.55-42.15c11.55-15.66,23.2-36.76,26.16-46-1.35,12.17-5.14,47.49-18.27,55.56-16.68,10.25-62.26,35.68-62.93,37.15s-20.45,7.58-19.25,8.85c1,1.05-7.85,3,8.58,7.2,26-6.15,97.9-28,111-83.82,8.85-37.81-15.06-68-38.48-87.52,3.92,6.59,6.07,12.48,4.79,16.36C638.24,298,643.22,309,632,316.12Z"/><path class="cls-13" d="M603.63,378c1.25-1.57,24.43-21.77,24.43-21.77s-74.17,38.08-77.69,39.47l5.17,48.08s29-11.59,39-16.76,35.08-28.5,35.08-28.5-56.22,30.85-68,35.08,0-2,0-2l4.23-17.65s32.11-19.47,41-24.17S627.28,365,627.28,365s-25.22,18.48-31,21.61S559.77,402.76,559,402.29s-1.57-5.48-1.57-6S602.37,379.58,603.63,378Z"/><path class="cls-10" d="M427.22,479.09l84.78-.84s58-32.26,60.14-34.46-10.65-104-10.65-104-51.94,9.2-79.92,9.3S422.41,327,422.41,327s-44.48,75.81-42.6,96.48S427.22,479.09,427.22,479.09Z"/><path class="cls-9" d="M557.32,388.66c-.16-.93-37.85,4.36-57.76,7.14l-2.43,39c21.54-4.44,62.08-12.65,62.69-12.5.84.21,6.68,13.16,6.68,13.16s-.83-20.05-.62-21.51S505,420.77,505,420.77l54-12.48S557.52,389.91,557.32,388.66Z"/><path class="cls-9" d="M484,437.53c.16,0,5.42-.7,13.05-1.72l.06-1C489.2,436.41,483.85,437.53,484,437.53Z"/><path class="cls-9" d="M511.32,447.19c1.84-2,45.58-19.48,45.58-19.48S518,433,497.07,435.81l-.94,15.08C505.53,453.19,509.49,449.22,511.32,447.19Z"/><path class="cls-9" d="M562.36,346.71l-60.18,6.87-2.54,40.83c19.31-4.68,55.16-13.25,57.26-14.52,2.9-1.76,8.35,21.72,8.35,21.72s-2.3-32.37-4-34.88-51.58,4.39-54.71,4.18c-2.26-.15,36.14-5.52,57.71-8.5C563.52,356.12,562.85,350.68,562.36,346.71Z"/><path class="cls-9" d="M499.64,394.41c-7.44,1.8-12.42,3-12.07,3s5.08-.66,12-1.63Z"/><path class="cls-9" d="M393.94,380.64l49.77,22-45.66-30.5C396.65,375,395.28,377.81,393.94,380.64Z"/><path class="cls-9" d="M453.53,373.62S427.88,356.25,412,345.36c-3.89,7.12-8.45,15.69-12.9,24.59,16,6.54,43.08,17.6,43.53,17.46C443.29,387.2,453.53,373.62,453.53,373.62Z"/><path class="cls-9" d="M413.58,342.56c18.16,7.35,47.88,18.95,47.88,18.95l-40.91-31.35C419,332.89,416.53,337.22,413.58,342.56Z"/><path class="cls-9" d="M446.84,416.85,393.45,381.7c-1.83,3.91-3.58,7.78-5.17,11.54,16.29,10.83,41.71,26.83,44.63,28.53C437,424.16,446.84,416.85,446.84,416.85Z"/><path class="cls-9" d="M533.88,494.72c.78-4-1.57-76.82-6.66-110.07s-26.86-57.59-33.75-60.72-35.71,8.77-49.4,40.72-35.88,123.18-35.8,124.12,6.37-.12,14.4.7a25.6,25.6,0,0,0-7.3,3.4c-6.06,4.49-4.49,5.43,1.67,12.32s11.8-5.63,28.82-4.8l1.61.08c7.33,4.21,13.42,8.07,13.74,8.22l9.94,5.19c2.82-3.78,11.8-6.81,22.12-9.34,5.32,1.39,10.55,3.36,13.56,5.77,6.27,5,5.12,8,8.57,6.89s17-4.49,14.3-11.17c-1.11-2.74-4.18-5.24-8.3-7.36C528.58,497.2,533.64,495.92,533.88,494.72Z"/><path class="cls-9" d="M463,540.27s1.67-9.29,9.29-9.29,10.34,10.13,10.34,10.13,21.51-21.62,22.24-22.66,12.32-34.77,12.32-34.77-21.2,6.37-24.75,9.08A33.7,33.7,0,0,0,486,500a9.36,9.36,0,0,1-5,2.3c-2.61.1-12.32,1-14.52,1s-3.23.21-5.74.42a34.61,34.61,0,0,1-6.47-.42l-31.33-18c.52.31,15.87,32.58,17.44,34.77S463,540.27,463,540.27Z"/><path class="cls-10" d="M506.47,439.36,501,445.47s-8-1.88-9.71,3.29-3,9.71,3.29,8.61,16.13-5.32,21.92-5.17,3,5.95,4.7,12.38,8,9.24,8.77,10.18-8.61-2-7.51,2.66,7.51,8.14,7.51,8.14-26.62-3.6-34.45,4.7c-3.34,3.53-3.58,9.14-2.75,14.41l.51-.13c5.32,1.39,10.55,3.36,13.56,5.77,6.27,5,5.12,8,8.57,6.89s17-4.49,14.3-11.17c-1.11-2.74-4.18-5.24-8.3-7.36,7.18-1.47,12.24-2.75,12.48-3.95.78-4-1.57-76.82-6.66-110.07a106.26,106.26,0,0,0-14.48-38.94c.17.68.32,1.36.46,2a57.28,57.28,0,0,0,2.23,8.29,3,3,0,0,0-3.64-.92c-5.48,1.87-2.66,14.56.16,17.69s4.86-4.85,4.86-4.85,2.82,11.28,2.35,16.76-6-10.18-9.56-1.41-2.19,11.74,1.88,11,8.93,2.82,8,8.62S510.86,395.82,508,406s4.22,9.08,4.22,9.08-6.57,9.09-2.81,12.06,9.86-.94,9.86-.94-8.17,5.4-5.84,11A6.93,6.93,0,0,0,506.47,439.36Z"/><path class="cls-10" d="M470.6,336.87s11.7-4.17,10.55-10.86a2.09,2.09,0,0,0,0-.21c-11.64,4.84-27.78,17.27-37,38.85-13.68,32-35.88,123.18-35.8,124.12s6.37-.12,14.4.7a25.6,25.6,0,0,0-7.3,3.4c-6.06,4.49-4.49,5.43,1.67,12.32s11.8-5.63,28.82-4.8l1.15.06a34,34,0,0,0-.74-4.34c-3.34-14.2-29.65-17.75-29.65-17.75a109.6,109.6,0,0,1,14.83-11.49c7.72-4.8,14,3.55,16.7-.41s-.42-10.86-.42-10.86,4.39.21,3.56-8.77-11.7-7.52-11.7-7.52,9.29-7.42,7.83-15.25-11.07-5-11.07-5,6.79-4.49,8-9.71-4.38-8.56-4.38-8.56,5.22-3.45,3.65-7.21,8.36-8.87,10.13-14.82-7-7.84-7-7.84,8.35-.2,9-6.57-.94-10.86,3.65-14,9.92-4.9,9.81-10.44S470.6,336.87,470.6,336.87Z"/><path class="cls-11" d="M439.16,495.86l0,0C439,496.08,439,496.05,439.16,495.86Z"/><path class="cls-11" d="M427.22,479.09c5.17,2.45,12.53,2.51,14.67,2.4S453,479.35,453,479.35,442.67,484,441.84,484s-16.87-1.57-14.73-1,8.09,2.14,13,2.14c3.4,0,9.23-2.13,12.35-3.44a20.29,20.29,0,0,1,2.11-1,10.48,10.48,0,0,1-2.11,1c-3.65,1.85-10.73,5.63-10.73,5.63s-11.33,2.24-11.17,2.3,9.5-1.31,9.5-1.31l-7.67,4.44s7-2.19,10.23-3.6S454.16,483,454.16,483a96.11,96.11,0,0,0-10.08,7.46,50,50,0,0,0-4.92,5.39c1-1,14-7.33,14.27-7.63s34.3,3.81,34.3,3.81,1.72-1.62.36-5-5.17-7.1-5.17-7.1,6,5.27,7.26,8,1.88,7.52,1.88,6.52.31-6.52,0-6.84-6.79-8.14-6.79-8.14,8.62,7.57,9.4,7.57,12-.37,10.13-.37-8.3.06-9.66-1.09-7.05-7.83-7.05-7.83,8.56,6.11,12.69,6.73,13.57-2.09,13.57-2.09l2.77-7.72,10.6,4s-9.66-5.49-9-5.54,8.25.32,8.25.32L517.43,470s-3-6.94-3.49-6.78-27.36,2.45-27.36,2.45,4-18.27,4.28-20.36,8.77-7.62,9.5-10.55,4.07-19.94,4.49-21.72a33.94,33.94,0,0,0,.42-5.53s-4.6,20.26-5.85,23.39-7.52,9-10.13,11.17-6.47,20.57-9,20.47,5.95-26.63,7.42-28.09a26.3,26.3,0,0,0,5.32-7.52c1.88-3.86,6.27-21.72,6.27-21.72S488,429.81,487.1,430s-.31-27.14-.31-27.14-3.24,22.13-3.24,23.49.21,8.35.21,9-8.88,29.34-9.82,29.86.94-18.58,2.2-23.49,1.88-1.57,2.4-10.13a54.69,54.69,0,0,0-2.09-17s-5.22,18.8-4.28,23.91-1.46,25.27-2.09,25.69-6.06-22.66-5.74-25.27,2.19-8.25,2.09-9.19-7.63-11.48-7.94-14.51-.84-6.69-.84-6.69-2.5,12.74.84,17.55,4.39,4.59,4.28,7.51-4.59,1.05-1.15,10.34,7,24.12,7,24.12S455.15,452.57,455,450.69s-.83-6.58-1.56-10.65-9-20.26-9-20.26,3.13,16.6,4.38,19.11,3.76,15.87,5.12,16.81S463.19,466,463.19,466s-13.47-14-18.38-13-9,7.62-9,7.62l-8.14-1.77c-3.45,1.56-6.37,3.44-6.69,3.55S432.23,468,432.23,468s-15.14-1.88-15-1.88S422.05,476.64,427.22,479.09Z"/><path class="cls-11" d="M452.46,481.71a10.48,10.48,0,0,0,2.11-1A20.29,20.29,0,0,0,452.46,481.71Z"/><path class="cls-15" d="M481,466.87l3.13,2.5h0Z"/><path class="cls-15" d="M493.05,477.52c2,.42,10.13,2.41,9.82,2.3s-14.1-6.89-14.1-6.89l-3.1-2.43-.45-.29-1.05-.84c-1.12.38-1.76.68-1.66.84C483,471.15,491.07,477.11,493.05,477.52Z"/><path class="cls-15" d="M484.21,469.36h0l1.05.84.45.29Z"/><path class="cls-15" d="M513.31,468.13l-9-3.87s-15,3.36-20.12,5.1l1.46,1.14c2,1.25,9.47,5.49,14.59,5.77C505.9,476.58,513.31,468.13,513.31,468.13Z"/><path class="cls-10" d="M510,349.56l-.48-.57S509.75,349.24,510,349.56Z"/><path class="cls-10" d="M512.16,350c0-2.35-5.64-9.82-7.1-6.11s5.95,6.84,5.95,6.84l-1-1.15c-.28-.32-.48-.57-.48-.57l.48.57C510.79,350.39,512.16,351.68,512.16,350Z"/><path class="cls-10" d="M508.56,353.89c1.3.11.31-3.23-2.82-3.28s2.19,3,2.19,3Z"/><path class="cls-10" d="M503,338c1.26-.31.84-3-3.18-4.7s1,4,1.36,4.18l-.47-2S501.77,338.28,503,338Z"/><path class="cls-10" d="M474.47,337.66c-1.57-1.93-3.5,2-3.5,2C469.45,342.36,476,339.59,474.47,337.66Z"/><path class="cls-10" d="M462.14,351.81c-3.13-1.94-4.12,4.87-4.22,5.11C457,359.22,465.28,353.74,462.14,351.81Z"/><path class="cls-10" d="M457.5,368.62c-.37-2.56-3.66,2.24-3.66,2.24C453.11,372.43,457.86,371.18,457.5,368.62Z"/><path class="cls-10" d="M449.77,388.56c-2.82-1.93-4.28,4.23-4.28,4.23l.63,1S452.59,390.49,449.77,388.56Z"/><path class="cls-10" d="M445.39,399c-.94-2.14-2.2,1.67-2.2,1.67C442.46,402,446.33,401.09,445.39,399Z"/><path class="cls-10" d="M447.89,410.64c-1.93-2-4.18,5.12-4.18,5.12C444,418.06,449.82,412.63,447.89,410.64Z"/><path class="cls-10" d="M508.92,435.91c1.36-.05,2.4-5,0-6s-1.51,2.35-1.62,4.23C507.3,434.19,507.57,436,508.92,435.91Z"/><path class="cls-10" d="M506.94,416.65c-1.15-1.78-1.67,2-2,3l.06,1.15C505.11,423.44,508.09,418.42,506.94,416.65Z"/><path class="cls-10" d="M517.38,401.46l1-1.62-.79-.52s-4.07-4.18-5.27-2.88S516.34,403.07,517.38,401.46Z"/><path class="cls-10" d="M510.12,399.52c1.94-.67.21-2.81-2.87-3.55s0,2.61,0,2.61l.05-.83S508.19,400.2,510.12,399.52Z"/><path class="cls-12" d="M461.05,475.77c4.78-4.85,6.42-9.16,3.44-12.76s-28-12.61-36.49-12.14-13.31,4.78-10.49,13.24c0,0,16.36,1,26.31,6.26S456.27,480.63,461.05,475.77Z"/><path class="cls-12" d="M504,468.57c12.69.7,24.2,2,23.34-6.34s-3.76-14.18-9.87-14.33-39.23,10.49-40.88,14.72,2,11.59,2,11.59C479.61,473.74,491.28,467.87,504,468.57Z"/><path class="cls-15" d="M451.85,472.8l-15.94-6.15s-10.42,1.76-10,2,5.92,6.77,10.93,7.91a60.28,60.28,0,0,0,11.2,1.13l-4.15-2.5,5.91-1.37Z"/><path class="cls-16" d="M444,469.8a4.83,4.83,0,1,0-4.83,4.83A4.83,4.83,0,0,0,444,469.8Z"/><path class="cls-16" d="M504.15,471a4.83,4.83,0,1,0-4.83,4.82A4.83,4.83,0,0,0,504.15,471Z"/><path class="cls-9" d="M461.05,475.77a18,18,0,0,0,4.57-6.67c-1-2.14-2.3-4.68-2.3-4.68s-6.34,7.44-6.66,7.52-.86-8.62-11.67-13.08c-7.1-2.94-17.49-5.19-23.77-6.4-4,2-5.65,5.85-3.71,11.65,0,0,16.36,1,26.31,6.26S456.27,480.63,461.05,475.77Z"/><path class="cls-9" d="M480.39,468.81c-.11.21-1.46-4.66-2.38-7.69a4.06,4.06,0,0,0-1.46,1.5c-1.64,4.23,2,11.59,2,11.59,1.1-.47,12.77-6.34,25.45-5.64s24.2,2,23.34-6.34c-.5-4.89-1.7-8.9-3.82-11.42a15,15,0,0,0-2-.17c-1.18.07.7,10.65.7,10.65l-3.6-6.11s.08,7.13.08,7.52-4.23-8.62-4.23-8.62-11.28,1-19.82,4.31-6.57,9.48-6.57,9.48l-5.8-6.11S480.55,468.49,480.39,468.81Z"/><path class="cls-11" d="M470,404.27c.18.24.3.37.3.37l1.36-5.53A9.28,9.28,0,0,0,470,404.27Z"/><path class="cls-11" d="M493.68,379.05a10.12,10.12,0,0,0-.84-1.87A17,17,0,0,0,493.68,379.05Z"/><path class="cls-11" d="M491.8,366.84v0a6.2,6.2,0,0,0-1.67,1.39S491,371.33,491.8,366.84Z"/><path class="cls-11" d="M465.9,375.2c-2.61,4.59,4.91,18.58,4.91,18.58s-3.13-3.34-4.07,1.15C466,398.71,469,403,470,404.27a9.28,9.28,0,0,1,1.66-5.16l-1.36,5.53s-.12-.13-.3-.37a10.33,10.33,0,0,0,1.24,5.07c3,5.85,4-4.28,4-4.28l-.32,4.07c-.31,4.07,2.09,15.35,2.09,15.35l3.34-3.86c3.34-3.87,3.45-24.75,3.45-24.75s3.34,9.92,7,5.43.21-10.55.21-10.55,4.18,6,4.18-2a28.81,28.81,0,0,0-1.46-9.72,17,17,0,0,1-.84-1.87,10.12,10.12,0,0,1,.84,1.87,5.87,5.87,0,0,0,2.19,2.62c1.67.73,3-5.64.63-12-1.4-3.71-3.33-3.59-4.7-2.85v0c-.84,4.49-1.67,1.36-1.67,1.36a6.2,6.2,0,0,1,1.67-1.39,37.64,37.64,0,0,0,.73-7.38s1.77,5.32,3.13,4.28,2.61-12.64-2.5-14c-3.25-.86-4.31,1.84-4.65,3.94-.09,1.37-.16,2.22-.16,2.22a12.22,12.22,0,0,1,.16-2.22c.41-6.28,1.27-23.69-1.72-23.26-3.66.52-5.12,17.65-5.22,18.69s-4-2.4-5.22,1.25,2.5,14.83,2.5,14.83-3.86-3.34-6.05-.52,2.4,13.57,2.4,13.57S468.51,370.6,465.9,375.2Z"/><path class="cls-11" d="M488.35,355.88s.07-.85.16-2.22A12.22,12.22,0,0,0,488.35,355.88Z"/><path class="cls-11" d="M466.32,386.16c0-1.79-.82-3.24-1.83-3.24s-1.82,1.45-1.82,3.24.81,3.24,1.82,3.24S466.32,388,466.32,386.16Z"/><path class="cls-11" d="M469.66,365c0-1.81-.61-3.28-1.35-3.28S467,363.2,467,365s.61,3.29,1.36,3.29S469.66,366.83,469.66,365Z"/><path class="cls-11" d="M465.07,400.93c0-1.12-.47-2-1.05-2s-1,.91-1,2,.47,2,1,2S465.07,402.06,465.07,400.93Z"/><path class="cls-11" d="M489.92,407.3c0-1-.4-1.82-.89-1.82s-.89.81-.89,1.82.4,1.83.89,1.83S489.92,408.31,489.92,407.3Z"/><path class="cls-11" d="M499.73,391.38c0-.92-.46-1.67-1-1.67s-1,.75-1,1.67.46,1.67,1,1.67S499.73,392.3,499.73,391.38Z"/><path class="cls-11" d="M505.16,374.1c0-2.11-.88-3.81-2-3.81s-2,1.7-2,3.81.88,3.81,2,3.81S505.16,376.2,505.16,374.1Z"/><path class="cls-11" d="M502.24,364.34c0-1.45-.4-2.61-.89-2.61s-.88,1.16-.88,2.61.39,2.61.88,2.61S502.24,365.78,502.24,364.34Z"/><path class="cls-11" d="M492.74,344c0-1.53-.63-2.77-1.41-2.77s-1.41,1.24-1.41,2.77.63,2.76,1.41,2.76S492.74,345.55,492.74,344Z"/><path class="cls-11" d="M495.24,335c0-.8-.39-1.46-.88-1.46s-.89.66-.89,1.46.4,1.47.89,1.47S495.24,335.8,495.24,335Z"/><path class="cls-11" d="M480.31,344.76c0-1.18-.7-2.14-1.56-2.14s-1.57,1-1.57,2.14.7,2.14,1.57,2.14S480.31,345.94,480.31,344.76Z"/><path class="cls-11" d="M475.61,357.13c0-1.15-.44-2.09-1-2.09s-1,.94-1,2.09.44,2.09,1,2.09S475.61,358.28,475.61,357.13Z"/><path class="cls-11" d="M431.49,454.43l.82-1c-1.14-1.3-5.84-4.55-6.85-4.51s1.64,3.21,1.91,4.11S431.49,454.43,431.49,454.43Z"/><path class="cls-11" d="M439.67,456.35l.35-.9a46.73,46.73,0,0,0-5.72-5.32c-.15,0,1.61,3.72,1.61,4.3S439.67,456.35,439.67,456.35Z"/><path class="cls-11" d="M451.18,459.84l1.33-.47c-.78-1.88-7.48-7.13-7.48-7.13s.9,4.78,1.41,5.6S450.63,459.76,451.18,459.84Z"/><path class="cls-11" d="M421,454.55l1.31-.47L416,451.52a30.3,30.3,0,0,1,2.46,3.71C418.76,456,419.65,455,421,454.55Z"/><path class="cls-11" d="M486.73,457.74l5.28-.42,1-5.53S487.26,456.74,486.73,457.74Z"/><path class="cls-11" d="M498.32,450.53c-2,2.14-3.44,3.5-3.44,3.5l7.83-2.14a38.6,38.6,0,0,1,.94-4.86A17.45,17.45,0,0,0,498.32,450.53Z"/><path class="cls-11" d="M511.32,447.19a14.92,14.92,0,0,0-3.86,3.45l6.89-1.78,1.15-3.39A19.59,19.59,0,0,0,511.32,447.19Z"/><path class="cls-11" d="M525.32,450.58c-.16,0-5.12.42-5.12.42l4.18,2.77A25.65,25.65,0,0,0,525.32,450.58Z"/><path class="cls-6" d="M356.47,455.6l1.47,14.82s8.35,3.34,10.23,4.39,2.71,15.45,2.09,17.75-11.7.63-11.7.63l22.14,16.29L392.81,522s-16.29-26.94-19.63-45.74,6.68-37.8,6.68-37.8S368.17,427,364.41,424.9s-7.31,6.47-7.31,6.47l13.78,16.29s-3.34,11.07-4.38,13.57S356.47,455.6,356.47,455.6Z"/><path class="cls-12" d="M547.66,498.56l12.69-5.95,7-17.7S549.38,496.53,547.66,498.56Z"/><path class="cls-12" d="M571.94,508.59l-2.19,4.07s6.42-3.29,7.36-4.54,16.44-17.86,21.14-27.88-3.13-51.69-3.13-51.69-1.41,27.26-2.35,34-2.66,11.12-3.92,18.17.32,7.05-.78,12.53S576.48,503.89,571.94,508.59Z"/><path class="cls-9" d="M196.51,737.73l-6.27-6.68c-.83,0-2.71,7.72-18.37,13.15s-24.65,10.65-24.65,12.12-7.1,7.51-5.43,7.72,27.57.63,32.79-1a8.34,8.34,0,0,1,8.56,2.09s9.61.21,15.87-2.72,10.45-4.8,9-1.88-5.43,10.24,3.55,8.15,18.38-4.6,18.38-4.6l24.23,1.05s-5.22-9.61-5.22-18.8,2.71-10.44-10-18.37-12.32-23.39-12.32-23.39S197.13,736.69,196.51,737.73Z"/><path class="cls-6" d="M162.13,764l2.5-9.94c-.93-.08-9,2.58-9,2.58s-5.17,7-2.82,7S162.13,764,162.13,764Z"/><path class="cls-6" d="M664.68,616.5c.05-.39-2.25-.37,0,0Z"/><path class="cls-6" d="M653.65,640.54c-3.17,1.76-11,8.81-18.81,7.17s-13.7-4.23-15.63-3.88-9-1.76-9-1.76l23.56,12.45c.68.35,12.69-1.41,15.87-1.41s20.5-9.63,20.5-9.63-17.67,13.5-19.14,16.09-10.54,1.41-14.73,1.52-11-1.17-12.69-1.17-9.52-.94-9.18-.7,12.12,7,12.12,7,14.28.71,20.06,2.12,12-.82,12-.82-8.5,3.52-10.2,4.11-7.7-.83-7.7-.83-10.54-3.52-9.07-2,6.69,6.81,7.82,6.81,6.12.59,10.65.59,8-.12,8-.12l5.22,1.41s23.56-18.09,26.51-20,19-122.7,19-122.7l1.59-13.08L680.16,606c-.34,0-13.48,3.52-15.74-2s-15.07,6.93-17.45,11-11.11,19.26-10.77,21.14,1.48,5.88,1.48,5.88,13.44-20.48,18.58-21.73c1.46-.36,1.94-.63,2-.83-2.93-.48.07-.5,0,0,.42.07,1,.15,1.65.24a11.26,11.26,0,0,1,9.63,8.1C669.51,628.56,656.82,638.78,653.65,640.54Z"/><path class="cls-6" d="M716.45,504.56c4,.63,7.72-19,7.72-19s-9,8.35-10,8.77-5.22,4-7.94,4H703.5L691,582.46c2.3-.42,25.69-16.92,29.24-21.51a12.22,12.22,0,0,0,2.5-9.4S713.52,562.2,706.63,562s-4.38-14.62-.21-17.33,2.72-3.76,11.07-11.49,13-12.11,13-16.29v-8.14S717.28,525,714.78,526.49s-5.85,3.55-6.06,1.67a11.16,11.16,0,0,0-1.88-4.18l.21-18.58S712.48,503.94,716.45,504.56Z"/><path class="cls-6" d="M455.46,478.93l4.49.31s-4.44-3.08-5.9-1.41-3.29,2.58-1.59,3.88,6.23,3.28,8.11,5,11.39,2.19,13.84,1.67,9.29-3.24,9.66-3.24.26.94.26.94-3.34.78-3,.78,6.06-1,6.06-2.5-2-5.22-2-5.22a44.32,44.32,0,0,0-4.65,1.09c-.37.26,2.71-.1,3.5.47a4.48,4.48,0,0,1,1.2,1.93s-9.35,4.81-12.06,4.86A77.22,77.22,0,0,1,462,486c0-.16-8.67-4.65-7.94-5.43S455.09,479.09,455.46,478.93Z"/><path class="cls-6" d="M468.56,495.69c2,.42,13.94-10.39,13.94-10.39s-6.89,2.87-8,2.5-11.74-.1-11.74-.1l-7.42-4.54C455.51,483.16,466.53,495.27,468.56,495.69Z"/><path class="cls-12" d="M473.68,483.16l2.82.15s1.25-11.53.21-13.62-3.55-1.57-9.82-1.41-5,15.09-4.12,15S473.68,483.16,473.68,483.16Z"/><path class="cls-6" d="M473.59,511.4c10.09.07,14.59,1.45,16.7,1.38s4.35-3.63,9.65-6.17,7-1.09,5.52-2.25-11-2.4-15.68-1.67a168.92,168.92,0,0,1-33,.87c-14.15-1.09-15.38-2.47-17.13-2.47a28.17,28.17,0,0,0-5.8,1.38l.14,1.38,17.93,8.93A195.55,195.55,0,0,1,473.59,511.4Z"/><path class="cls-6" d="M487.39,527.14s-4.07-15.09-12.56-16.4-18.94,8.27-18.94,8.78l.87-.07s7.91-6.24,16.26-6.17S487.39,527.14,487.39,527.14Z"/><path class="cls-6" d="M441.91,511.69l-3.52-2.19c-3-2.35-11.52-11.28-11.44-11.67a66,66,0,0,0-1.41-7.28c-.08.23-4.31,8.14,1.8,12.76A87.17,87.17,0,0,0,441.91,511.69Z"/><path class="cls-6" d="M504.64,511.61l-.55.39A5.64,5.64,0,0,0,504.64,511.61Z"/><path class="cls-6" d="M512.16,501.74c-.81,1.54-4.76,7.69-7.52,9.87l8.06-5.72.71-11.82S513,500.1,512.16,501.74Z"/><path class="cls-17" d="M445.07,494.47c-.67-.31-6.07,5.49-6.42,5.88l5.32,2.9S445.73,494.79,445.07,494.47Z"/><polygon class="cls-17" points="491.98 503.83 498.4 501.95 493.07 492.63 491.98 503.83"/><path class="cls-17" d="M454.87,505.89c1.88.51,12.63,1.09,14.88,1.09s9.11-.66,9.25-.62a8.65,8.65,0,0,0,3.7.15,16.35,16.35,0,0,0,3.38-1.49l5.15-.87a42.76,42.76,0,0,0-2.9-4.21,45.22,45.22,0,0,0-2.36,4.32s-4.06-5.77-4.54-5.7-2,6.64-2.1,6.93-3.05-4.65-3.16-4.65-3.41,4.9-3.45,5.09-2.32-2.47-4.53-2.47a6.92,6.92,0,0,0-4.18,2l-2.76-4.86L458,505s-1.08-4.83-2.06-5.08-4.21,4.61-4.21,4.61l-1-5.7s-4.1,4-4.29,4.14l.51.87a13.62,13.62,0,0,0,3.27,1.56A18.41,18.41,0,0,1,454.87,505.89Z"/><path class="cls-6" d="M466.37,492.4s-1.25,8.51-.89,9,7.88.68,7.94-.1-2.87-7.26-1.78-9.14Z"/><path class="cls-9" d="M114.49,776.41a1.55,1.55,0,0,0-.09.32C114.46,776.53,114.49,776.41,114.49,776.41Z"/><path class="cls-9" d="M109.92,809.24c1.45,11.85,5.82,17,5.82,17s6.86-36.57,8.73-37.82,1-3.53,18.29-10.39,22.86-14.55,22.86-14.55,2.28,8.31-10,16.63-13.72,11-14.34,11.84,3.74,40.11,3.95,40.74,6.86-29.72,10.39-32.84,20-13.72,29.3-27.43,13.31-19.54,14.14-19.54h6.76s.09,4-7.59,18.91-12.89,14.34-10.19,23.9S199.7,834.6,199.7,834.6s6.14-36.16,6.14-43.44,15.27-31.38,15.27-31.38,8.72,57.36,10.39,65.05,11.22-37.62,8.1-64-10.6-35.54-11.22-34.5-6.65,2.29-6.65,4.57-1.25,16.21-1.25,16.21-7.48-17-9.14-17-10,2.91-10,2.91L176,749.81l-17.46-.42s-15.79,3.12-18.5,3.12-1,12-14.34,20.36c-11,6.91-11.48,4.78-11.31,3.86C113.66,779.4,108.57,798.25,109.92,809.24Z"/><path class="cls-9" d="M225.12,709.59l-.07-.52A3.42,3.42,0,0,0,225.12,709.59Z"/><path class="cls-9" d="M280.75,786.38c1.46-19.12-11.22-50.91-12.47-53s-7.27,1.45-21.82-.21c-13.74-1.57-20.62-19.83-21.34-23.59l6.79,52.48s5,1.66,8.32,2.49,23.27-1,24.1-1.25,3.95,3.54,8.11,14.14,3.32,31,2.91,33.87S279.3,805.5,280.75,786.38Z"/></g></g></svg>