<svg xmlns="http://www.w3.org/2000/svg" xmlns:xlink="http://www.w3.org/1999/xlink" viewBox="0 0 353.53 324.13"><defs><style>.cls-1{fill:url(#Degradado_sin_nombre_10);}.cls-2{fill:url(#Degradado_sin_nombre_10-2);}.cls-3{fill:url(#Degradado_sin_nombre_10-3);}.cls-4{fill:url(#Degradado_sin_nombre_10-4);}.cls-5{fill:url(#Degradado_sin_nombre_10-5);}.cls-6{fill:url(#Degradado_sin_nombre_10-6);}.cls-7{fill:url(#Degradado_sin_nombre_10-7);}.cls-8{fill:url(#Degradado_sin_nombre_10-8);}.cls-9{fill:url(#Degradado_sin_nombre_10-9);}.cls-10{fill:url(#Degradado_sin_nombre_10-10);}.cls-11{fill:url(#Degradado_sin_nombre_10-11);}.cls-12{fill:url(#Degradado_sin_nombre_10-12);}.cls-13{fill:url(#Degradado_sin_nombre_10-13);}.cls-14{fill:url(#Degradado_sin_nombre_10-14);}.cls-15{fill:#ba7e06;}.cls-16{fill:#e09e28;}.cls-17{fill:url(#Degradado_sin_nombre_10-15);}.cls-18{fill:url(#Degradado_sin_nombre_10-16);}.cls-19{fill:url(#Degradado_sin_nombre_10-17);}.cls-20{fill:url(#Degradado_sin_nombre_10-18);}.cls-21{fill:url(#Degradado_sin_nombre_10-19);}.cls-22{fill:#ffd60b;}.cls-23{fill:url(#Degradado_sin_nombre_10-20);}.cls-24{fill:url(#Degradado_sin_nombre_10-21);}.cls-25{fill:url(#Degradado_sin_nombre_10-22);}.cls-26{fill:url(#Degradado_sin_nombre_10-23);}.cls-27{fill:url(#Degradado_sin_nombre_10-24);}.cls-28{fill:url(#Degradado_sin_nombre_10-25);}.cls-29{fill:url(#Degradado_sin_nombre_10-26);}.cls-30{fill:url(#Degradado_sin_nombre_10-27);}.cls-31{fill:url(#Degradado_sin_nombre_10-28);}.cls-32{fill:url(#Degradado_sin_nombre_10-29);}.cls-33{fill:url(#Degradado_sin_nombre_10-30);}.cls-34{fill:url(#Degradado_sin_nombre_10-31);}.cls-35{fill:url(#Degradado_sin_nombre_10-32);}.cls-36{fill:#ba7d11;}.cls-37{fill:url(#Degradado_sin_nombre_10-33);}.cls-38{fill:url(#Degradado_sin_nombre_10-34);}.cls-39{fill:#f4b321;}.cls-40{fill:#eaa418;}.cls-41{fill:url(#Degradado_sin_nombre_10-35);}.cls-42{fill:url(#Degradado_sin_nombre_10-36);}.cls-43{fill:url(#Degradado_sin_nombre_10-37);}.cls-44{fill:url(#Degradado_sin_nombre_10-38);}.cls-45{fill:url(#Degradado_sin_nombre_10-39);}.cls-46{fill:url(#Degradado_sin_nombre_10-40);}.cls-47{fill:url(#Degradado_sin_nombre_10-41);}.cls-48{fill:url(#Degradado_sin_nombre_10-42);}.cls-49{fill:url(#Degradado_sin_nombre_10-43);}.cls-50{fill:url(#Degradado_sin_nombre_10-44);}.cls-51{fill:url(#Degradado_sin_nombre_10-45);}.cls-52{fill:url(#Degradado_sin_nombre_10-46);}.cls-53{fill:url(#Degradado_sin_nombre_10-47);}.cls-54{fill:url(#Degradado_sin_nombre_10-48);}.cls-55{fill:url(#Degradado_sin_nombre_10-49);}.cls-56{fill:url(#Degradado_sin_nombre_10-50);}.cls-57{fill:url(#Degradado_sin_nombre_10-51);}</style><linearGradient id="Degradado_sin_nombre_10" x1="49.37" y1="319.35" x2="49.37" y2="319.3" gradientUnits="userSpaceOnUse"><stop offset="0" stop-color="#ffb624"/><stop offset="0.43" stop-color="#ff3b03"/><stop offset="0.47" stop-color="#ff3000"/><stop offset="1" stop-color="#ff3000"/></linearGradient><linearGradient id="Degradado_sin_nombre_10-2" x1="112.57" y1="321.27" x2="112.57" y2="321.27" xlink:href="#Degradado_sin_nombre_10"/><linearGradient id="Degradado_sin_nombre_10-3" x1="93.22" y1="301.7" x2="93.27" y2="299.94" xlink:href="#Degradado_sin_nombre_10"/><linearGradient id="Degradado_sin_nombre_10-4" x1="83.19" y1="319.61" x2="84.62" y2="265.67" xlink:href="#Degradado_sin_nombre_10"/><linearGradient id="Degradado_sin_nombre_10-5" x1="133.94" y1="249.04" x2="134.28" y2="248.02" xlink:href="#Degradado_sin_nombre_10"/><linearGradient id="Degradado_sin_nombre_10-6" x1="145.67" y1="234.83" x2="145.79" y2="234.45" xlink:href="#Degradado_sin_nombre_10"/><linearGradient id="Degradado_sin_nombre_10-7" x1="78.27" y1="295.15" x2="105.24" y2="212.81" xlink:href="#Degradado_sin_nombre_10"/><linearGradient id="Degradado_sin_nombre_10-8" x1="173.52" y1="82.22" x2="168.05" y2="80.56" xlink:href="#Degradado_sin_nombre_10"/><linearGradient id="Degradado_sin_nombre_10-9" x1="191.78" y1="103.96" x2="70.45" y2="67.24" xlink:href="#Degradado_sin_nombre_10"/><linearGradient id="Degradado_sin_nombre_10-10" x1="268.04" y1="151.79" x2="256.71" y2="148.37" xlink:href="#Degradado_sin_nombre_10"/><linearGradient id="Degradado_sin_nombre_10-11" x1="203.14" y1="151.83" x2="202.58" y2="151.66" xlink:href="#Degradado_sin_nombre_10"/><linearGradient id="Degradado_sin_nombre_10-12" x1="290.2" y1="145.45" x2="157.45" y2="105.28" xlink:href="#Degradado_sin_nombre_10"/><linearGradient id="Degradado_sin_nombre_10-13" x1="260.34" y1="87.93" x2="259.24" y2="87.6" xlink:href="#Degradado_sin_nombre_10"/><linearGradient id="Degradado_sin_nombre_10-14" x1="282.33" y1="117.28" x2="276.42" y2="115.49" xlink:href="#Degradado_sin_nombre_10"/><linearGradient id="Degradado_sin_nombre_10-15" x1="120.64" y1="35.29" x2="25.61" y2="126.85" xlink:href="#Degradado_sin_nombre_10"/><linearGradient id="Degradado_sin_nombre_10-16" x1="102.53" y1="112.29" x2="83.79" y2="183.45" xlink:href="#Degradado_sin_nombre_10"/><linearGradient id="Degradado_sin_nombre_10-17" x1="101.35" y1="99.32" x2="73.43" y2="139.1" xlink:href="#Degradado_sin_nombre_10"/><linearGradient id="Degradado_sin_nombre_10-18" x1="119.65" y1="65.96" x2="87.13" y2="126.97" xlink:href="#Degradado_sin_nombre_10"/><linearGradient id="Degradado_sin_nombre_10-19" x1="190.79" y1="108.67" x2="96.3" y2="199.72" xlink:href="#Degradado_sin_nombre_10"/><linearGradient id="Degradado_sin_nombre_10-20" x1="96.84" y1="249.38" x2="139.31" y2="222.6" xlink:href="#Degradado_sin_nombre_10"/><linearGradient id="Degradado_sin_nombre_10-21" x1="175.28" y1="92.51" x2="80.94" y2="183.41" xlink:href="#Degradado_sin_nombre_10"/><linearGradient id="Degradado_sin_nombre_10-22" x1="190.59" y1="77.75" x2="190.58" y2="77.77" xlink:href="#Degradado_sin_nombre_10"/><linearGradient id="Degradado_sin_nombre_10-23" x1="207.23" y1="125.73" x2="112.74" y2="216.78" xlink:href="#Degradado_sin_nombre_10"/><linearGradient id="Degradado_sin_nombre_10-24" x1="209.03" y1="118.47" x2="145.9" y2="133.77" xlink:href="#Degradado_sin_nombre_10"/><linearGradient id="Degradado_sin_nombre_10-25" x1="220.13" y1="139.11" x2="125.63" y2="230.16" xlink:href="#Degradado_sin_nombre_10"/><linearGradient id="Degradado_sin_nombre_10-26" x1="233.17" y1="152.66" x2="138.68" y2="243.71" xlink:href="#Degradado_sin_nombre_10"/><linearGradient id="Degradado_sin_nombre_10-27" x1="228.58" y1="147.89" x2="134.09" y2="238.93" xlink:href="#Degradado_sin_nombre_10"/><linearGradient id="Degradado_sin_nombre_10-28" x1="228.57" y1="147.88" x2="134.09" y2="238.92" xlink:href="#Degradado_sin_nombre_10"/><linearGradient id="Degradado_sin_nombre_10-29" x1="230.66" y1="150.04" x2="136.17" y2="241.09" xlink:href="#Degradado_sin_nombre_10"/><linearGradient id="Degradado_sin_nombre_10-30" x1="170.52" y1="87.63" x2="76.03" y2="178.67" xlink:href="#Degradado_sin_nombre_10"/><linearGradient id="Degradado_sin_nombre_10-31" x1="187.52" y1="105.27" x2="93.03" y2="196.32" xlink:href="#Degradado_sin_nombre_10"/><linearGradient id="Degradado_sin_nombre_10-32" x1="205.38" y1="123.8" x2="110.89" y2="214.85" xlink:href="#Degradado_sin_nombre_10"/><linearGradient id="Degradado_sin_nombre_10-33" x1="202.77" y1="121.1" x2="108.28" y2="212.15" xlink:href="#Degradado_sin_nombre_10"/><linearGradient id="Degradado_sin_nombre_10-34" x1="198.6" y1="116.77" x2="104.11" y2="207.82" xlink:href="#Degradado_sin_nombre_10"/><linearGradient id="Degradado_sin_nombre_10-35" x1="235.09" y1="110.52" x2="145.86" y2="152.12" xlink:href="#Degradado_sin_nombre_10"/><linearGradient id="Degradado_sin_nombre_10-36" x1="229.65" y1="98.86" x2="140.42" y2="140.46" xlink:href="#Degradado_sin_nombre_10"/><linearGradient id="Degradado_sin_nombre_10-37" x1="220.08" y1="78.33" x2="130.85" y2="119.93" xlink:href="#Degradado_sin_nombre_10"/><linearGradient id="Degradado_sin_nombre_10-38" x1="198.81" y1="32.71" x2="172.78" y2="24.83" xlink:href="#Degradado_sin_nombre_10"/><linearGradient id="Degradado_sin_nombre_10-39" x1="141.41" y1="16.59" x2="125.29" y2="11.71" xlink:href="#Degradado_sin_nombre_10"/><linearGradient id="Degradado_sin_nombre_10-40" x1="161.26" y1="12.83" x2="148.31" y2="8.92" xlink:href="#Degradado_sin_nombre_10"/><linearGradient id="Degradado_sin_nombre_10-41" x1="98.59" y1="5.09" x2="83.21" y2="0.44" xlink:href="#Degradado_sin_nombre_10"/><linearGradient id="Degradado_sin_nombre_10-42" x1="100.69" y1="25.83" x2="94.11" y2="23.84" xlink:href="#Degradado_sin_nombre_10"/><linearGradient id="Degradado_sin_nombre_10-43" x1="252.11" y1="55.11" x2="204.94" y2="40.84" xlink:href="#Degradado_sin_nombre_10"/><linearGradient id="Degradado_sin_nombre_10-44" x1="308.95" y1="74.44" x2="304.68" y2="73.15" xlink:href="#Degradado_sin_nombre_10"/><linearGradient id="Degradado_sin_nombre_10-45" x1="339.74" y1="109.38" x2="329.05" y2="106.15" xlink:href="#Degradado_sin_nombre_10"/><linearGradient id="Degradado_sin_nombre_10-46" x1="322.95" y1="129.92" x2="314.83" y2="127.46" xlink:href="#Degradado_sin_nombre_10"/><linearGradient id="Degradado_sin_nombre_10-47" x1="351.88" y1="136.49" x2="343.49" y2="133.95" xlink:href="#Degradado_sin_nombre_10"/><linearGradient id="Degradado_sin_nombre_10-48" x1="339.72" y1="178.81" x2="303.53" y2="167.85" xlink:href="#Degradado_sin_nombre_10"/><linearGradient id="Degradado_sin_nombre_10-49" x1="308.88" y1="190.72" x2="302.31" y2="188.73" xlink:href="#Degradado_sin_nombre_10"/><linearGradient id="Degradado_sin_nombre_10-50" x1="138.28" y1="217.98" x2="98.85" y2="215.92" xlink:href="#Degradado_sin_nombre_10"/><linearGradient id="Degradado_sin_nombre_10-51" x1="138.82" y1="206.92" x2="99.45" y2="204.87" xlink:href="#Degradado_sin_nombre_10"/></defs><g id="Layer_2" data-name="Layer 2"><g id="Capa_2" data-name="Capa 2"><path class="cls-1" d="M49.16,319.26c-.09,0,.08.07.45.1A1,1,0,0,0,49.16,319.26Z"/><path class="cls-2" d="M112.57,321.27h0Z"/><path class="cls-3" d="M94,301.86a6.62,6.62,0,0,0-1.56-3.26A29.27,29.27,0,0,1,94,301.86Z"/><path class="cls-4" d="M136.09,226.59,59.2,242.08s-32.42,1.15-37.87,28.41,4.59,29,4.59,29-4.59-17.21,7.46-24.1c0,0-10.33,17.22-2.58,25.54s2,14.63,2,14.63,9.46-3.44,11.18-9.47-9.46-8.89-4-16.93c0,0,2,10.91,10.33,11.19s-2.59,13.49-4.88,13.49c0,0,16.07,3.73,19.22-7.17s-6.6-15.78-6.6-15.78S75,297.74,73,309.22c-1.8,10.28-20.17,10.43-23.36,10.14,2.72,1,16.43,8.49,32.83-1.82,10.88-6.84,12.21-12.4,11.6-15.68a29.27,29.27,0,0,0-1.56-3.26A6.62,6.62,0,0,1,94,301.86c2.31,5.64,5.23,17.11-6.44,22,0,0,22.67,3.44,22.67-13.77s-12.34-23.81-12.34-23.81,15.78,7.46,18.65,20.37c2.82,12.67-3.77,14.56-4,14.63.31-.09,18.65-5,19.5-18.65s-8.89-18.36-8.89-18.36,16.35,6.88,17.79,19.22c0,0,10.61-3.44,6.31-15.49s-18.65-9.47-19.51-17.79,18.36-33,18.36-33Z"/><path class="cls-5" d="M134.45,247.84a6.35,6.35,0,0,0-.71,1.38C134.27,248.32,134.54,247.81,134.45,247.84Z"/><path class="cls-6" d="M145.8,235c-.07-.41-.13-.64-.13-.64S145.71,234.55,145.8,235Z"/><path class="cls-7" d="M130.62,201.29,118.54,242.9,93.9,233.81s-32.9-.38-50.25,6.76S30.77,264,30.77,264,32.56,247,50.16,248.48c0,0-19.26,14-11.61,28.18s18.49,18.1,9.31,22.95c0,0,13.14,7.14,15.94-4.34s-14.28-19.76-4.08-28.69c0,0,.26,20.92,15.43,21.94S71.45,313,71.45,313s33.16-1.28,30.48-20.4-20.28-11-17.47-21.3S101,264.54,101,264.54,79.23,267.22,93.13,275s31.5,18.87,19.64,26.52c0,0,12.37,2.94,10.71-9.56s-18.62-12-13.77-21.3,15.43-14.41,15.43-14.41-17,19.51-2.93,23.34,13.13,10.46,13.13,10.46,10.84-2.43,5.36-10.2-22.32-8.42-17-15.69c4.06-5.51,8.34-12.12,10-14.94a6.35,6.35,0,0,1,.71-1.38c.09,0-.18.48-.71,1.38-2.15,5-7.46,21.62,9.63,21.19,0,0-14.92-10.71-5.1-19.13,8.23-7.05,7.86-14.19,7.53-16.32-.09-.41-.13-.64-.13-.64s.06.23.13.64c.7,3.37,4.28,18.69,9.43,11,.26-.39-10.07-10.08-4.72-23.34S130.62,201.29,130.62,201.29Z"/><path class="cls-8" d="M177.82,73.82a107.82,107.82,0,0,0-12.47,15.63A45.54,45.54,0,0,0,177.82,73.82Z"/><path class="cls-9" d="M93.63,44.69C69.24,52.44,61.5,99.49,61.5,99.49L86.17,127s16.93,12.63,27.05,12.8,13.12,20.49,13.12,20.49c13.19-6,3.73-19.8,3.73-19.8l16.64,18.65,21.51-8.32L229.91,97.2s22.38-28.41-7.46-39.88c-17.38-6.69-33.87,5.31-44.63,16.5a45.54,45.54,0,0,1-12.47,15.63,107.82,107.82,0,0,1,12.47-15.63A40.69,40.69,0,0,0,182,55.31c-.28-21.81,29.27-16.64,29.27-16.64s-40.45-14.92-41.6,5.16-22.38,24.68-22.38,24.68S159,61.91,153,41.25s20.65-18.94,20.65-18.94-31.55-10-32.7,7.75-19.51,18.36-19.51,18.36c10.33-24.67-14.92-33-14.92-33S118,37,93.63,44.69Z"/><path class="cls-10" d="M258,144s1,6.69,12.05,13.09C266.31,149.51,258,144,258,144Z"/><path class="cls-11" d="M202.38,154.91a37,37,0,0,0,1.12-6.28S203.19,151.17,202.38,154.91Z"/><path class="cls-12" d="M278.86,83.59c16.64-9.94,3.45-23.91,3.45-23.91S276,81.3,242.14,69.06s-70.2,13-70.78,13l-36,95.83s-3.06,5.55,14.92,7.46,22.38-27.54,22.38-27.54.77,3.06-5,19.13,12.43,18.36,12.43,18.36-10.9-15.3,5.55-20.47c10.62-3.33,14.94-13.29,16.67-19.92.81-3.74,1.12-6.28,1.12-6.28a37,37,0,0,1-1.12,6.28c-1.11,5.13-3.18,12.5-6.72,18.58-6.12,10.52,5.54,19.71,5.54,19.71s-2.29-11.29,11.86-16.07S226.26,150,226.26,150s.57-2.68,7.08,5.54.19,18.56.19,18.56c19.32-9.18,8.22-27.74,8.22-27.74s4.4,3.45,14.54,19.32-5.55,21.43-5.55,21.43a33,33,0,0,0,19.71-16.84c2.28-4.64,1.56-9.16-.39-13.11C259,150.73,258,144,258,144s8.3,5.47,12.05,13.09a60.83,60.83,0,0,0,10.52,4.7c21,7.26,7.27,20.27,7.27,20.27s8-2.68,7.46-17.4S271.4,139.26,281,137.34s12.62,7.08,32.51,15.11,19.13-8.8,19.13-8.8-13,5-23.53-13.19c-6.34-11-17.08-13.64-24.59-14a13.73,13.73,0,0,1-8.5.46,36.71,36.71,0,0,1,8.5-.46c4.33-1.49,9.82-5.21,15.22-13.89,11.67-18.75,28.69-1.72,28.69-1.72C321.52,85.32,299,79.77,285,90.1c-11.31,8.37-21.12,1.29-24.43-1.7a3.11,3.11,0,0,1-1.2-1.17s.42.47,1.2,1.17C262.53,89.59,267.46,90.41,278.86,83.59Z"/><path class="cls-13" d="M259.35,87.23a3.11,3.11,0,0,0,1.2,1.17C259.77,87.7,259.35,87.23,259.35,87.23Z"/><path class="cls-14" d="M276,116.88a13.73,13.73,0,0,0,8.5-.46A36.71,36.71,0,0,0,276,116.88Z"/><path class="cls-15" d="M76.9,176.21c6.83-.58,5.83-7.82,5.83-7.82l-6.83.78L64.69,175.1A35.07,35.07,0,0,0,76.9,176.21Z"/><path class="cls-16" d="M58.65,216.45c2.15-.92,15.83-6.46,15.83-6.46l17.22.31,22.9-3.69-9.38-4.77L92.77,206.3l-19.67-.15s-15.38,6.45-16.91,7.38-4.92,8.76.61,10.76C56.8,224.29,56.49,217.37,58.65,216.45Z"/><path class="cls-17" d="M69.93,84.14v0Z"/><path class="cls-18" d="M55.86,148.86c1.15,1.26,27.72-12.37,37.05,3.63s-3.29,23-4,23.15l19.63.84c1.89-1.39,5.81-22.79,5.81-22.79l4,4.87L118,139l3.82,5,.12-15.19s1.88,8.89,3.58,3.27-2.8-25.34-2.8-25.34L137,122c3.92-10.46-12.36-23.75-12.36-23.75l15.8,2.86L128.33,89.71l23.38.73C145.55,80.76,121,83.36,121,83.36c11.59-7.23,41.82-7.14,41.82-7.14-18.9-11.62-56.46-3.28-56.46-3.28l29.13-16c-23.53-6-49.74,15-49.74,15L101.64,55c-25.18,7.41-31.5,28.4-31.71,29.1v0l6.34-21.82C38.81,104.93,54.71,147.61,55.86,148.86Z"/><path class="cls-19" d="M51.84,131.07c-.09-5.13.17-9.86,1.12-12.47,2.87-7.84,9.38-13.39,9.38-13.39s-7.85,18.36.57,25.06c0,0-7.08-20.28,5.16-23.15s17.79-7.46,17.79-7.46a23.29,23.29,0,0,1-13.58,12.43c-9.94,3.26,1.15,18.56,1.15,18.56s-5.16-15.3,5.93-16.83A35.1,35.1,0,0,0,97.72,105s-2.29,10.13-9.94,12.81,1,13.58,1,13.58,0-13.39,10.9-13.39,7.27-9.75,7.27-9.75,9,6.12,3.45,12.62-10.33,6.89-7.27,12.24l12.62-6.69s-6.88,7.46-2.48,13.39a16.21,16.21,0,0,0,4.87,4.17l-.06-5,3.82,5,.12-15.19s1.88,8.89,3.58,3.27-2.8-25.34-2.8-25.34L137,122c3.92-10.46-12.36-23.75-12.36-23.75l15.8,2.86L128.33,89.71l23.38.73C145.55,80.76,121,83.36,121,83.36c11.59-7.23,41.82-7.14,41.82-7.14-18.9-11.62-56.46-3.28-56.46-3.28l29.13-16c-23.53-6-49.74,15-49.74,15L101.64,55c-25.18,7.41-31.5,28.4-31.71,29.1l6.34-21.82C53.37,88.38,50.41,114.45,51.84,131.07Z"/><path class="cls-20" d="M57.79,91.91l8.94-8.44s-3.31,13.9-.51,19.63c0,0-3.31-13.39,7.78-17.08s9.82-11.74,9.82-11.74,5.23,5.36,1.92,12.12-11.23,6.37-7.91,12.5c0,0,4.21-8.42,17.09-7.66s5.48-16.83,6.37-16.7,14.28,1.91,8.67,13.64-12.11,6-12.88,13.27c0,0,17-11.23,28.31-6.38,0,0-14.66,3.44-14.15,10.07.46,6,9-5.46,18-2.57a53.48,53.48,0,0,0-4.58-4.36l15.8,2.86L128.33,89.71l23.38.73C145.55,80.76,121,83.36,121,83.36c11.59-7.23,41.82-7.14,41.82-7.14-18.9-11.62-56.46-3.28-56.46-3.28l29.13-16c-23.53-6-49.74,15-49.74,15L101.64,55c-25.18,7.41-31.5,28.4-31.71,29.1l6.34-21.82A102,102,0,0,0,57.79,91.91Z"/><path class="cls-21" d="M63.8,167.86s-3.12,6.92-4.64,9l11.31-3.21c9.66-1.84,7.72,1.77,7.72,1.77l-.55.51s24.54,17.08,31.92,34.62a33.77,33.77,0,0,1-2,31s41.35-13.18,33.84-34.74-23.55-37.14-23.55-37.14l2.81-.33c-9.05-5.09-20.05-6.94-20.05-6.94l4.81-1c-11.62-4.6-19-2.46-19-2.46l4.48-2.76C68.56,157.26,63.8,167.86,63.8,167.86Z"/><path class="cls-22" d="M77.81,169.4c2.41-.26,9.34-5.15,9.34-5.15C81.11,162.47,77.81,169.4,77.81,169.4Z"/><path class="cls-23" d="M58.34,254.65s15.22-7.38,26.52-6c0,0-16.15,3.69-19.14,13.15,0,0,9.91-7.84,22.36-5.77s18-.46,18-.46-6.92,6-13.14,3.69-12.69,2.07-12.69,2.07a134.65,134.65,0,0,1,18.45,2.77c10.61,2.31,27.67-16.83,27.67-16.83L114.6,264.33s14.76.92,21.91-21c0,0,.46,5.3.69,6s9.45-12.91,7.15-25.59,2.76,2.07,2.76,2.07,1.39-26.28-12.68-29.28l-18.22,20.52c-.92,1.16-10.14,15.68-20.52,15.45S74.94,236,74.94,236l14.53.23s-15.68.46-21.91,7.15L86,241.73S61.67,245.28,58.34,254.65Z"/><path class="cls-24" d="M190.6,77.75h0Z"/><path class="cls-25" d="M190.6,77.75h0Z"/><path class="cls-26" d="M107.38,117.62c-.23,2,40.41,14.58,32.37,35.79s-27.91,15.68-28.8,15.13l18.31,18.08c3.35.56,30.14-13.28,30.14-13.28l-1.34,7.47,20.76-16.05-1.67,7.47,16.41-12.18s-7.7,8.86,0,5.82,24.45-23,24.45-23l-2.35,24.9c15.07-5,13.4-30.16,13.4-30.16L241.45,154l.34-19.93,22.1,21.31c4.35-13.28-22.44-32.93-22.44-32.93,19.09,4.42,48.59,31.3,48.59,31.3C284,127.57,238.3,101,238.3,101L284,113.87c-16.57-25.73-64.8-32-64.8-32l33.66.42c-32.6-16.33-61.32-5-62.27-4.58h0l29.62-12C137.83,67,107.6,115.59,107.38,117.62Z"/><path class="cls-27" d="M126,96.69c15.29-2.72,38.17-4.55,38.17-4.55S143.37,97,138.4,107.57c0,0,5.48-7.4,20.91-3.19S175.64,112,175.64,112s-19.77-6.89-24.74,3.44c0,0,15.43-1.14,22.19,6.38s20.65-1.15,20.65-.77a17.13,17.13,0,0,1-15.55,10.21,95.87,95.87,0,0,0-21.3,3.06s18-2.17,26.91,6.63c0,0-21.17.76-25.76,14,0,0,11.22-6.24,14.66,2.81,2.75,7.21-9.24,17-14.23,20.7l-.41,2.3,20.76-16.05-1.67,7.47,16.41-12.18s-7.7,8.86,0,5.82,24.45-23,24.45-23l-2.35,24.9c15.07-5,13.4-30.16,13.4-30.16L241.45,154l.34-19.93,22.1,21.31c4.35-13.28-22.44-32.93-22.44-32.93,19.09,4.42,48.59,31.3,48.59,31.3C284,127.57,238.3,101,238.3,101L284,113.87c-16.57-25.73-64.8-32-64.8-32l33.66.42c-32.6-16.33-61.32-5-62.27-4.58l29.62-12C173.19,66.43,143.15,82.58,126,96.69Z"/><path class="cls-28" d="M163.16,199.44,171,181.68S157.62,190,163.16,199.44Z"/><path class="cls-29" d="M198.53,176.54,202.22,192C207.3,185.53,199.46,176.54,198.53,176.54Z"/><path class="cls-30" d="M158.12,215.78l13.44-10.48C163.12,204.22,159.14,214.51,158.12,215.78Z"/><path class="cls-31" d="M158,215.91s.1,0,.17-.13Z"/><path class="cls-32" d="M104.46,276.32l-14.3,3.92C91.31,280.24,101.23,282.55,104.46,276.32Z"/><path class="cls-33" d="M5.53,239.2l11.53,3.69C15,236.43,5.53,239.2,5.53,239.2Z"/><path class="cls-34" d="M15.22,281.63,0,275.63S6.92,283,15.22,281.63Z"/><path class="cls-35" d="M40.35,274.71l10.61,6C48.65,275.63,40.35,274.71,40.35,274.71Z"/><path class="cls-36" d="M93.39,215.79a9.75,9.75,0,0,0,2-1.38L109,222l8.3-11.76s-2.65-6.69-3.69-6.92l-4.26,3.23-2.77,10.26s-12.45-6.8-14.64-5.42-5.88,6-8.88,6.34-1.38,8.19-2.77,10,8,6.11,8,6.11l-4.73-5.76,1.39-6.92S93,215.79,93.39,215.79Z"/><path class="cls-36" d="M96.69,226.06s-5,.84-6.76-.7-.54-4.3-1.54-7.07-1.15-.77-1.15-.77l-1.46,1.16s1.77,6.15,1.07,7.76S94.23,229.59,96.69,226.06Z"/><polygon class="cls-36" points="81.86 223.37 82.7 218.91 75.48 223.37 72.56 229.74 77.48 232.74 74.63 228.82 76.4 225.13 81.86 223.37"/><path class="cls-37" d="M119.37,209.68l-2.46-9.14-7.07,1.76c0,.85-3.31,11.23-3.31,11.23l2.69-1.85-.46,3.31,1.38-2-.15,2.92,2.23-1.85-.39,3Z"/><path class="cls-16" d="M69.87,211a9.52,9.52,0,0,1,.85-.84l-8.55,5.43L61,217.18s-1.1,5.07.35,6.11,6-.06,6-.06-4.5-.52-4.5-1.67.06-3.06.06-3.06S68.14,212.91,69.87,211Z"/><path class="cls-16" d="M52.8,221.56l9.37-6,4.12-5.51c-.8-.06-14.87,7.66-16.25,12.16s1.15,5.42,1.15,5.42A4.69,4.69,0,0,1,52.8,221.56Z"/><path class="cls-16" d="M72.92,208.76a6.05,6.05,0,0,0-2.2,1.41Z"/><path class="cls-16" d="M66.64,212.07l-7.15,3.53C59.88,215.53,64.26,216.45,66.64,212.07Z"/><path class="cls-38" d="M116,208.3l-10.14-7.69s-11.68,4.31-11.07,4.31,5.07-.46,5.07-.46l-2.69,1.46,2.62-.39L97.84,207l2.46-.15-1.38,1.08h2.77l-2,1.38Z"/><path class="cls-39" d="M61.69,167.47s-1,7.31-2.53,9.41l11.31-3.21a30.71,30.71,0,0,1,3.34-.47l.42,0,.69,0,.17,0s-.83-1.27-1.53-5.23a28.9,28.9,0,0,1,.18-8.18A44,44,0,0,0,61.69,167.47Z"/><path class="cls-40" d="M70.47,173.67a30.71,30.71,0,0,1,3.34-.47l.42,0,.69,0,.17,0s-.83-1.27-1.53-5.23a18.23,18.23,0,0,1-.23-3.28c-3.34,1.51-7.62,4.55-7.93,6.41A4.24,4.24,0,0,0,67,174.65Z"/><path class="cls-41" d="M155.91,78.61a38.79,38.79,0,0,1,17.94,3.45C193.36,90.67,214,87,214,87s.38,7.46-12.05,9c-8.6,1.06-18.67,2.11-24.05,2.67,6.51-.44,19.75-.3,27.87,6.7,11.1,9.56,29.65,3.44,29.65,3.44s-1.53,11.1-17.4,10.71a137.33,137.33,0,0,1-21.6-2.38c9.19,2.38,23,7.12,25,14.43,3.06,11.1.76,16.26.76,16.26s-4.78-15.68-18.55-17.59-19.51,3.44-19.51,3.44,17.21-5.93,19.13,8.8S195.85,159,195.85,159s9.94-10.71-5.55-14-18.55,3.45-18.55,3.45,11.47-4.59,13,8.22a19.21,19.21,0,0,1-2.3,11.64l11.11-8.25s-7.7,8.86,0,5.82,24.45-23,24.45-23l-2.35,24.9c15.07-5,13.4-30.16,13.4-30.16L241.45,154l.34-19.93,22.1,21.31c4.35-13.28-22.44-32.93-22.44-32.93,19.09,4.42,48.59,31.3,48.59,31.3C284,127.57,238.3,101,238.3,101L284,113.87c-16.57-25.73-64.8-32-64.8-32l33.66.42c-32.6-16.33-61.32-5-62.27-4.58l29.62-12C193.58,66.12,172.39,71.48,155.91,78.61Z"/><path class="cls-42" d="M196.44,117.17c-4.74-1.23-8.24-1.82-8.24-1.82S191.38,116.22,196.44,117.17Z"/><path class="cls-43" d="M177.92,98.7c-2.39.15-3.88.39-3.88.39Z"/><path class="cls-44" d="M171.09,30.35l36.44,1.15C186.59,16.86,171.09,30.35,171.09,30.35Z"/><path class="cls-45" d="M149.88,5.68l-5.36-1.4s-19-2.68-19.13,8.16,12.76,9.43,10.46,15.94c0,0,7.78-.51,1.79-7.53S135.6,2.49,149.88,5.68Z"/><path class="cls-46" d="M147.2,12.57l18.87-1.92C154.72,4.91,147.2,12.57,147.2,12.57Z"/><path class="cls-47" d="M83.31.07l19.26,8.16C98.61.71,84.84-.31,83.31.07Z"/><path class="cls-48" d="M95.55,19.07,99.89,30.8C107.41,24.81,95.55,19.07,95.55,19.07Z"/><path class="cls-49" d="M228.94,42.79c-27,2.8-26.65,6.76-26.65,6.76s42.46-6.89,49.22,7,14.79,1.66,14.79,1.66-6.63.89-6.12-2.94C260.18,55.28,256,40,228.94,42.79Z"/><path class="cls-50" d="M308.89,66.63l-6.37,13.65C315.4,77.73,308.89,66.63,308.89,66.63Z"/><path class="cls-51" d="M328.53,107.82l13.65,4.85C337.33,100.17,328.53,107.82,328.53,107.82Z"/><path class="cls-52" d="M316.29,122.61s-2.3,11.86,7.65,12.63Z"/><path class="cls-53" d="M344.22,131.54l9.31,8.42C352.63,131.67,344.22,131.54,344.22,131.54Z"/><path class="cls-54" d="M326.11,182.29c15.81-4.08,21.55,7.91,21.55,8.55s4.59-15.18-12.24-22.7-22.57,5-27.93-4.34l-1.91-2.8S310.3,186.37,326.11,182.29Z"/><path class="cls-55" d="M304.18,182.55s-3.45,14.79,4.84,14.66Z"/><path class="cls-56" d="M115,216.79s0,0,0,0S115,216.79,115,216.79Z"/><path class="cls-57" d="M141.42,206.86a87.63,87.63,0,0,0-5.55-12.56L130,191.65l2.85,12.49-10.44-10,1.74,12.33-13-10.12,1.9,5.85L97.22,193c5,5.33,9.74,11.44,12.34,17.61.43,1,.81,2.06,1.13,3.06,2.34,1.65,4,2.86,4.29,3.11,0-.61,4.39-7.06,4.39-7.06s6.39,10,5.76,11.22,7-7.9,7-7.9,6.8,5.22,6.49,6.8,2.69-9.33,2.69-9.33l1,.52A15.41,15.41,0,0,0,141.42,206.86Z"/></g></g></svg>