<svg xmlns="http://www.w3.org/2000/svg" xmlns:xlink="http://www.w3.org/1999/xlink" viewBox="0 0 1210.43 754.68"><defs><style>.cls-1{fill:url(#Degradado_sin_nombre_2);}.cls-2{fill:url(#Degradado_sin_nombre_2-2);}.cls-3{fill:url(#Degradado_sin_nombre_2-3);}.cls-4{fill:url(#Degradado_sin_nombre_2-4);}.cls-5{fill:url(#Degradado_sin_nombre_3);}.cls-6{fill:url(#Degradado_sin_nombre_3-2);}.cls-7{fill:url(#Degradado_sin_nombre_3-3);}.cls-8{fill:url(#Degradado_sin_nombre_3-4);}.cls-9{fill:url(#Degradado_sin_nombre_3-5);}.cls-10{fill:url(#Degradado_sin_nombre_3-6);}.cls-11{fill:url(#Degradado_sin_nombre_3-7);}.cls-12{fill:url(#Degradado_sin_nombre_3-8);}.cls-13{fill:url(#Degradado_sin_nombre_3-9);}.cls-14{fill:url(#Degradado_sin_nombre_3-10);}.cls-15{fill:url(#Degradado_sin_nombre_3-11);}.cls-16{fill:url(#Degradado_sin_nombre_3-12);}.cls-17{fill:#4f4d4f;}.cls-18{fill:#e8bb00;}.cls-19{fill:#968171;}.cls-20{fill:#21201e;}.cls-21{fill:#4c474c;}.cls-22{fill:#282628;}.cls-23{fill:url(#Degradado_sin_nombre_3-13);}.cls-24{fill:url(#Degradado_sin_nombre_3-14);}.cls-25{fill:url(#Degradado_sin_nombre_3-15);}.cls-26{fill:url(#Degradado_sin_nombre_3-16);}.cls-27{fill:url(#Degradado_sin_nombre_3-17);}.cls-28{fill:url(#Degradado_sin_nombre_3-18);}.cls-29{fill:url(#Degradado_sin_nombre_3-19);}.cls-30{fill:url(#Degradado_sin_nombre_3-20);}.cls-31{fill:#444244;}.cls-32{fill:#cc5b4c;}.cls-33{fill:url(#Degradado_sin_nombre_3-21);}.cls-34{fill:#1c121e;}.cls-35{fill:url(#Degradado_sin_nombre_3-22);}.cls-36{fill:#777257;}.cls-37{fill:url(#Degradado_sin_nombre_3-23);}.cls-38{fill:url(#Degradado_sin_nombre_3-24);}.cls-39{fill:url(#Degradado_sin_nombre_3-25);}.cls-40{fill:url(#Degradado_sin_nombre_3-26);}.cls-41{fill:url(#Degradado_sin_nombre_3-27);}.cls-42{fill:url(#Degradado_sin_nombre_3-28);}.cls-43{fill:url(#Degradado_sin_nombre_3-29);}.cls-44{fill:url(#Degradado_sin_nombre_3-30);}.cls-45{fill:url(#Degradado_sin_nombre_3-31);}.cls-46{fill:url(#Degradado_sin_nombre_3-33);}.cls-47{fill:url(#Degradado_sin_nombre_3-34);}.cls-48{fill:url(#Degradado_sin_nombre_3-35);}.cls-49{fill:url(#Degradado_sin_nombre_3-36);}.cls-50{fill:url(#Degradado_sin_nombre_3-37);}.cls-51{fill:url(#Degradado_sin_nombre_3-38);}.cls-52{fill:url(#Degradado_sin_nombre_3-39);}.cls-53{fill:url(#Degradado_sin_nombre_3-40);}.cls-54{fill:url(#Degradado_sin_nombre_3-41);}.cls-55{fill:url(#Degradado_sin_nombre_3-42);}.cls-56{fill:url(#Degradado_sin_nombre_3-43);}.cls-57{fill:url(#Degradado_sin_nombre_3-44);}.cls-58{fill:url(#Degradado_sin_nombre_3-45);}.cls-59{fill:url(#Degradado_sin_nombre_3-46);}.cls-60{fill:url(#Degradado_sin_nombre_3-47);}.cls-61{fill:url(#Degradado_sin_nombre_3-48);}.cls-62{fill:url(#Degradado_sin_nombre_3-49);}.cls-63{fill:url(#Degradado_sin_nombre_3-50);}.cls-64{fill:url(#Degradado_sin_nombre_3-51);}.cls-65{fill:url(#Degradado_sin_nombre_3-52);}.cls-66{fill:url(#Degradado_sin_nombre_3-53);}.cls-67{fill:url(#Degradado_sin_nombre_3-54);}.cls-68{fill:url(#Degradado_sin_nombre_3-55);}.cls-69{fill:url(#Degradado_sin_nombre_3-56);}.cls-70{fill:url(#Degradado_sin_nombre_2-5);}.cls-71{fill:url(#Degradado_sin_nombre_2-6);}.cls-72{fill:url(#Degradado_sin_nombre_2-7);}.cls-73{fill:url(#Degradado_sin_nombre_2-8);}</style><linearGradient id="Degradado_sin_nombre_2" x1="671.36" y1="238.84" x2="670.58" y2="238.72" gradientUnits="userSpaceOnUse"><stop offset="0" stop-color="#ff9406"/><stop offset="1" stop-color="#7f1717"/></linearGradient><linearGradient id="Degradado_sin_nombre_2-2" x1="718.59" y1="226.99" x2="714.91" y2="226.45" xlink:href="#Degradado_sin_nombre_2"/><linearGradient id="Degradado_sin_nombre_2-3" x1="782.65" y1="143.5" x2="780.28" y2="143.16" xlink:href="#Degradado_sin_nombre_2"/><linearGradient id="Degradado_sin_nombre_2-4" x1="831.88" y1="164.61" x2="757.23" y2="153.61" xlink:href="#Degradado_sin_nombre_2"/><linearGradient id="Degradado_sin_nombre_3" x1="905.8" y1="279.95" x2="715.62" y2="218.65" gradientUnits="userSpaceOnUse"><stop offset="0" stop-color="#ff9406"/><stop offset="1" stop-color="#a32a0d"/></linearGradient><linearGradient id="Degradado_sin_nombre_3-2" x1="931.64" y1="199.71" x2="741.48" y2="138.41" xlink:href="#Degradado_sin_nombre_3"/><linearGradient id="Degradado_sin_nombre_3-3" x1="760.34" y1="129.9" x2="759.6" y2="129.38" xlink:href="#Degradado_sin_nombre_3"/><linearGradient id="Degradado_sin_nombre_3-4" x1="808.71" y1="165.48" x2="764.32" y2="134.04" xlink:href="#Degradado_sin_nombre_3"/><linearGradient id="Degradado_sin_nombre_3-5" x1="151.47" y1="338.73" x2="151.18" y2="338.73" xlink:href="#Degradado_sin_nombre_3"/><linearGradient id="Degradado_sin_nombre_3-6" x1="148.88" y1="333.62" x2="148.76" y2="333.62" xlink:href="#Degradado_sin_nombre_3"/><linearGradient id="Degradado_sin_nombre_3-7" x1="749.24" y1="326.43" x2="687.95" y2="326.43" xlink:href="#Degradado_sin_nombre_3"/><linearGradient id="Degradado_sin_nombre_3-8" x1="161.46" y1="208.25" x2="158.93" y2="207.31" xlink:href="#Degradado_sin_nombre_3"/><linearGradient id="Degradado_sin_nombre_3-9" x1="533.96" y1="375.43" x2="254.72" y2="271.43" xlink:href="#Degradado_sin_nombre_3"/><linearGradient id="Degradado_sin_nombre_3-10" x1="59.87" y1="296.67" x2="59.77" y2="296.63" xlink:href="#Degradado_sin_nombre_3"/><linearGradient id="Degradado_sin_nombre_3-11" x1="390" y1="313.6" x2="252.09" y2="296.31" xlink:href="#Degradado_sin_nombre_3"/><linearGradient id="Degradado_sin_nombre_3-12" x1="435.72" y1="655.86" x2="447.21" y2="655.86" xlink:href="#Degradado_sin_nombre_3"/><linearGradient id="Degradado_sin_nombre_3-13" x1="823.46" y1="630.37" x2="788.89" y2="634.29" xlink:href="#Degradado_sin_nombre_3"/><linearGradient id="Degradado_sin_nombre_3-14" x1="761.93" y1="680.17" x2="815.46" y2="680.17" xlink:href="#Degradado_sin_nombre_3"/><linearGradient id="Degradado_sin_nombre_3-15" x1="657.9" y1="605.08" x2="767.91" y2="605.08" xlink:href="#Degradado_sin_nombre_3"/><linearGradient id="Degradado_sin_nombre_3-16" x1="661.16" y1="695.87" x2="747.24" y2="695.87" xlink:href="#Degradado_sin_nombre_3"/><linearGradient id="Degradado_sin_nombre_3-17" x1="688.6" y1="664.32" x2="816.98" y2="664.32" xlink:href="#Degradado_sin_nombre_3"/><linearGradient id="Degradado_sin_nombre_3-18" x1="686.71" y1="672.51" x2="688.6" y2="672.51" xlink:href="#Degradado_sin_nombre_3"/><linearGradient id="Degradado_sin_nombre_3-19" x1="779.32" y1="615.57" x2="786.57" y2="615.57" xlink:href="#Degradado_sin_nombre_3"/><linearGradient id="Degradado_sin_nombre_3-20" x1="647.88" y1="632.75" x2="791.41" y2="632.75" xlink:href="#Degradado_sin_nombre_3"/><linearGradient id="Degradado_sin_nombre_3-21" x1="983" y1="88.52" x2="971.21" y2="90.58" xlink:href="#Degradado_sin_nombre_3"/><linearGradient id="Degradado_sin_nombre_3-22" x1="976.06" y1="61.91" x2="785.9" y2="0.62" xlink:href="#Degradado_sin_nombre_3"/><linearGradient id="Degradado_sin_nombre_3-23" x1="619.26" y1="620.46" x2="470.35" y2="640.11" xlink:href="#Degradado_sin_nombre_3"/><linearGradient id="Degradado_sin_nombre_3-24" x1="653.5" y1="671.06" x2="578.79" y2="680.91" xlink:href="#Degradado_sin_nombre_3"/><linearGradient id="Degradado_sin_nombre_3-25" x1="625.85" y1="611.64" x2="515.02" y2="626.27" xlink:href="#Degradado_sin_nombre_3"/><linearGradient id="Degradado_sin_nombre_3-26" x1="916.85" y1="652.22" x2="835.23" y2="648.09" xlink:href="#Degradado_sin_nombre_3"/><linearGradient id="Degradado_sin_nombre_3-27" x1="985.76" y1="607.71" x2="816.91" y2="573.23" xlink:href="#Degradado_sin_nombre_3"/><linearGradient id="Degradado_sin_nombre_3-28" x1="964.2" y1="713.28" x2="795.36" y2="678.8" xlink:href="#Degradado_sin_nombre_3"/><linearGradient id="Degradado_sin_nombre_3-29" x1="970.76" y1="681.13" x2="801.92" y2="646.65" xlink:href="#Degradado_sin_nombre_3"/><linearGradient id="Degradado_sin_nombre_3-30" x1="980.94" y1="631.32" x2="812.09" y2="596.84" xlink:href="#Degradado_sin_nombre_3"/><linearGradient id="Degradado_sin_nombre_3-31" x1="919.35" y1="602.74" x2="837.73" y2="598.61" xlink:href="#Degradado_sin_nombre_3"/><linearGradient id="Degradado_sin_nombre_3-33" x1="1148.84" y1="540.71" x2="1051.79" y2="504.56" xlink:href="#Degradado_sin_nombre_3"/><linearGradient id="Degradado_sin_nombre_3-34" x1="1172.89" y1="516.39" x2="1106.92" y2="491.82" xlink:href="#Degradado_sin_nombre_3"/><linearGradient id="Degradado_sin_nombre_3-35" x1="1111.2" y1="614.45" x2="1088.54" y2="606.01" xlink:href="#Degradado_sin_nombre_3"/><linearGradient id="Degradado_sin_nombre_3-36" x1="1152.41" y1="568.39" x2="1108.39" y2="552" xlink:href="#Degradado_sin_nombre_3"/><linearGradient id="Degradado_sin_nombre_3-37" x1="1133.07" y1="600.21" x2="1095.6" y2="586.25" xlink:href="#Degradado_sin_nombre_3"/><linearGradient id="Degradado_sin_nombre_3-38" x1="1077.64" y1="554.29" x2="1076.26" y2="553.78" xlink:href="#Degradado_sin_nombre_3"/><linearGradient id="Degradado_sin_nombre_3-39" x1="343.49" y1="615.09" x2="318.78" y2="605.88" xlink:href="#Degradado_sin_nombre_3"/><linearGradient id="Degradado_sin_nombre_3-40" x1="323.22" y1="637.14" x2="317.3" y2="634.94" xlink:href="#Degradado_sin_nombre_3"/><linearGradient id="Degradado_sin_nombre_3-41" x1="421.91" y1="692.51" x2="411.44" y2="688.61" xlink:href="#Degradado_sin_nombre_3"/><linearGradient id="Degradado_sin_nombre_3-42" x1="356.08" y1="686.76" x2="344.11" y2="682.3" xlink:href="#Degradado_sin_nombre_3"/><linearGradient id="Degradado_sin_nombre_3-43" x1="792.52" y1="565.43" x2="773.76" y2="558.44" xlink:href="#Degradado_sin_nombre_3"/><linearGradient id="Degradado_sin_nombre_3-44" x1="814.04" y1="539.08" x2="804.15" y2="535.39" xlink:href="#Degradado_sin_nombre_3"/><linearGradient id="Degradado_sin_nombre_3-45" x1="1017.69" y1="569.16" x2="1017.69" y2="569.16" xlink:href="#Degradado_sin_nombre_3"/><linearGradient id="Degradado_sin_nombre_3-46" x1="1013.39" y1="555.82" x2="994.47" y2="548.77" xlink:href="#Degradado_sin_nombre_3"/><linearGradient id="Degradado_sin_nombre_3-47" x1="1014.15" y1="591.78" x2="1003.8" y2="587.93" xlink:href="#Degradado_sin_nombre_3"/><linearGradient id="Degradado_sin_nombre_3-48" x1="885.47" y1="513.58" x2="875.17" y2="509.74" xlink:href="#Degradado_sin_nombre_3"/><linearGradient id="Degradado_sin_nombre_3-49" x1="901.35" y1="546.33" x2="895.21" y2="544.04" xlink:href="#Degradado_sin_nombre_3"/><linearGradient id="Degradado_sin_nombre_3-50" x1="91.63" y1="353.36" x2="82.32" y2="353.36" xlink:href="#Degradado_sin_nombre_3"/><linearGradient id="Degradado_sin_nombre_3-51" x1="121.36" y1="394.37" x2="116.65" y2="394.37" xlink:href="#Degradado_sin_nombre_3"/><linearGradient id="Degradado_sin_nombre_3-52" x1="145.42" y1="455.84" x2="137.83" y2="455.84" xlink:href="#Degradado_sin_nombre_3"/><linearGradient id="Degradado_sin_nombre_3-53" x1="221.75" y1="454.77" x2="218.46" y2="454.77" xlink:href="#Degradado_sin_nombre_3"/><linearGradient id="Degradado_sin_nombre_3-54" x1="214.44" y1="497.83" x2="210.69" y2="497.83" xlink:href="#Degradado_sin_nombre_3"/><linearGradient id="Degradado_sin_nombre_3-55" x1="70.62" y1="278.39" x2="66.32" y2="278.39" xlink:href="#Degradado_sin_nombre_3"/><linearGradient id="Degradado_sin_nombre_3-56" x1="139.41" y1="218.03" x2="136.98" y2="218.03" xlink:href="#Degradado_sin_nombre_3"/><linearGradient id="Degradado_sin_nombre_2-5" x1="611.86" y1="197.02" x2="605.47" y2="196.08" xlink:href="#Degradado_sin_nombre_2"/><linearGradient id="Degradado_sin_nombre_2-6" x1="584.86" y1="139" x2="580.01" y2="138.29" xlink:href="#Degradado_sin_nombre_2"/><linearGradient id="Degradado_sin_nombre_2-7" x1="639.32" y1="101.38" x2="635.15" y2="100.77" xlink:href="#Degradado_sin_nombre_2"/><linearGradient id="Degradado_sin_nombre_2-8" x1="595.88" y1="98.51" x2="589.34" y2="97.55" xlink:href="#Degradado_sin_nombre_2"/></defs><g id="Layer_2" data-name="Layer 2"><g id="Capa_1" data-name="Capa 1"><path class="cls-1" d="M672,240.58c-2.08-3.06-3-5-2.11-2.53A4.74,4.74,0,0,0,672,240.58Z"/><path class="cls-2" d="M709.22,223.6c5.38,3.84,10.1,5.81,12.52,5.81C724.76,229.41,717.33,224.74,709.22,223.6Z"/><path class="cls-3" d="M785,145.72s-3.19-2.18-8.3-5C781.39,143.58,785,145.72,785,145.72Z"/><path class="cls-4" d="M715.45,138.26C693.06,163,668.7,158.69,668.7,148.47s-29.86-16.89-33-9.82c0,0,20-2.75,21.21,19.64s35.76,29.47,50.69,13.76,37.71,3.53,37.71,3.53-4.32,22-33.39,22.4-16.11-13.36-35.75-11-20.83,16.1-20.83,16.1,25.54-16.1,35.76.79a67.14,67.14,0,0,0,18.12,19.73c8.11,1.14,15.54,5.81,12.52,5.81-2.42,0-7.14-2-12.52-5.81-5.61-.78-11.54.12-14.59,5.42C688.4,239.84,677,243.54,672,240.58c3.54,5.22,10.5,13.72,17.93,9.26,11.78-7.07,27.89,5.89,31,14.54s-2.35,20,5.51,23.57,165,3.14,164.62,1.18,16.11-65.62,16.11-65.62l2.35-165s-18.46-31-46-26.72-32.61,37.33-35.75,42-43.61,44-62.08,29.47-38.5-11.39-46,2.75-48.33,3.54-48.33,3.54,18.47,23.18,36.15,13,46.75,3.54,47.54,4.72c.51.76,12.9,8.29,21.56,13.5,5.11,2.78,8.3,5,8.3,5s-3.61-2.14-8.3-5C762.15,132.82,732,119.94,715.45,138.26Z"/><path class="cls-5" d="M697.78,213.42c-.51-.81-.79-1.3-.79-1.3A5.55,5.55,0,0,0,697.78,213.42Z"/><path class="cls-6" d="M690.31,66.36C684,57.71,668.7,80.9,668.7,80.9s11.79-13.36,24.36,4.32,37.72,12.57,39.29-.4,11-18.46,18.46-3.92,25.54,36.53,39.69,34.18,35-29.86,49.5-13.36,14.54,20,14.54,20-16.11-30.26-40.08-7.86-55,9.43-58.54-.79-30.64-6.28-41.25,13-31-.4-31-.4,20.43,26.33,29.86,18.08,26.72-22,31.82-8.25,51.47,37.32,60.9,25.14c4.42-5.7,15-.55,25.09,6.55-5.93-1.33-12.91-.43-20.77,4.85-26.32,17.68-51.46-2.75-59.72-9s-31,30.25-46.36,31.82a28,28,0,0,1-7-.09c10.18,6.49,24.49,13.72,29.83,7.17,8.65-10.61,38.11-20.83,46-3.54s7.46,8.25,31,16.5,17.29,29.47,17.29,29.47-13-25.15-31.44-18.08-12.57-8.25-34.57-15.32S743,226.26,721.35,223.12c-16.16-2.35-21.77-7.33-23.57-9.7,3.82,6.19,21,32.31,34.18,25,14.93-8.25,27.11.79,27.5,2.75s-21.22-5.89-24.75,15.72,164.22,48.33,164.22,48.33,38.51-9,36.15-13-2.75-191.34-2.75-191.34l-46-36.54S868.29,42,835.29,43.18,804.64,90.72,785,80.9s-24.76-34.58-43.22-35.76-31,20-26.72,28.68S696.6,75,690.31,66.36Z"/><path class="cls-7" d="M762.82,132.39c-1.88-2.12-3-3.56-3-3.56A24.52,24.52,0,0,0,762.82,132.39Z"/><path class="cls-8" d="M825.46,125.29c-13.75,10.22-39.68,19.65-50.29,15.32a36.71,36.71,0,0,1-12.35-8.22c6,6.82,20.38,20.77,33.57,16.87,17.29-5.11,26.32-16.5,49.9-1.57s50.29,58.14,50.29,58.14S862,166.15,842.36,181.08,784.6,185,784.6,185s12.58,28.29,36.15,22.79,48.72,50.68,48.72,50.68,26.71,6.29,26.71,5.11-33.78-53.43-31.43-52.65,46.36,42.83,46.36,42.83,18.47,19.64,4.72,27.89-52.26,14.93-52.26,14.93-36.93-7.46-36.93-8.64,8.25-30.25-15.71-38.9-25.54,2.75-31-9.43l-5.5-12.18s-9.43,20,7.07,24.76,15.32,19.64,17.68,27.11-29.86,22.39,38.5,27.1,129.66-1.17,133.19-8.64,5.11-25.14,5.11-25.14a43.38,43.38,0,0,1-3.53-40.47c9.42-22.79,1.57-31-.4-39.29L911.11,119s-3.53-43.22-52.25-49.12S807,92.29,794.43,94.65L781.85,97s22-2,41.65-10.21,41.65,19.64,42.43,21.21S884,148.87,884,148.87,839.22,115.08,825.46,125.29Z"/><path class="cls-9" d="M150.87,341a34.88,34.88,0,0,1-2.24-5.05C150.41,344,150.87,341,150.87,341Z"/><path class="cls-10" d="M148.63,335.94c-.29-1.26-.6-2.79-.95-4.64A15.24,15.24,0,0,0,148.63,335.94Z"/><path class="cls-11" d="M596.41,334.7c8.25-7.07,25.54-14.93,25.54-14.93l-2.75-24c.78-2.75-55.4-62.08-97.05-63.65s-8.25,32.61-54.22,23.57-111.58-62.08-122.19-44.39-25.53,71.89-65.22,71.5-57.36-14.93-62.07-2.75-6.29,22-8.65,22.79-6.28,35-26.32,24-40.47-23.19-36.93-2c.41,2.49.79,4.6,1.13,6.42,0-3.88,2.86-6.3,14.19-.92,23.18,11,48.33,28.29,63.65,12.18s14.93-38.9,44.4-29.86,75.82-14.93,55,14.93-20.82,34.58-20.82,34.58-14.93,52.64-44.4,53.43-82.51-19.65-94.69,0-8.25,29.47-8.25,29.47,5.9-37.72,43.61-22,74.65,27.51,92.73,1.18,52.64-21.61,55-20.82,29.86,13,32.61,13,53.43,32.22,90.37,15.33,44.39-30.65,44-32.61S588.16,341.77,596.41,334.7Z"/><path class="cls-12" d="M157.94,205.44a15.3,15.3,0,0,0,4.13,4.54C159.5,207.31,157.94,205.44,157.94,205.44Z"/><path class="cls-13" d="M320.6,284c-7.07,20.43-126.51,11.79-127.3-11s-33-33.79-55.79-27.5-13.36,44.79-39.29,51.86c-24.11,6.58-36.67.24-38.31-.68,3.31,1.9,50,28.18,68.17,7,18.86-22,30.65-29.07,35.36-20.43s25.15,39.29,73.08,46.37,117.87-4.72,124.15,0,23.58,19.64,23.58,19.64-62.08-27.5-90.37,3.14S202,363.38,191,350.81s-58.15,4.72-56.58,12.57,35.36-13.35,55,11.79,98.23,37.72,121,11.79,33.79-24.36,61.3-11S440.82,383,440.82,383,414.11,412.1,385,398s-61.29-11.79-66,5.5S287.6,442,287.6,442s30.64,5.5,43.21-11.78,18.86-21.22,37.72-7.86,40.08,35.36,80.94,11L490.33,409s53.43,3.93,78.58-45.58,87.22-60.5,93.5-59.72L704.85,284s-43.22,4.71-64.44-6.29-22-44-81.72-43.21-55.79,29.07-77.79,36.14-21.22-42.43-67.58-61.29-85.65-20.43-88,9.43S224,247.87,246,225.09s14.93-53.44-24.36-47.15,0,32.22-28.29,36.93c-17.19,2.87-26.54-1.24-31.23-4.89,7.45,7.75,23.47,22.34,35.16,18.25,15.72-5.5,25.15-23.57,28.29-12.57s-13.36,56.57,23.57,59.72,68.37-1.58,78.58-14.93S367,267.52,367,267.52,327.67,263.59,320.6,284Z"/><path class="cls-14" d="M59.91,296.7l-.19-.11Z"/><path class="cls-15" d="M320.6,284c-7.07,20.43-126.51,11.79-127.3-11-.47-13.83-12.53-23.31-27-27.23a49.91,49.91,0,0,0-8.33.51c-5.89,1.18,16.9,17.68,34.18,46.76s133.59,35.36,143.41,13.75,81.72-27.5,97-6.68,36.94,57.36,73.87,39.68S578.73,321,578.73,321s21.61,13.75-51.47,25.93-67.58-33.79-112.37-32.21c-43.62,1.53-35.07,27.65-37.13,29,3.72,3.17,6.49,5.56,6.49,5.56a148.62,148.62,0,0,0-18.79-6.46c-12-1-30.82-2.56-46.75-3.58-9.33,1.84-18,5.84-24.83,13.18-11.74,12.73-29.58,16.78-47.22,16.27C243.8,370.72,242,372,242,372s30.65,16.5,50.29-.4,61.29-18.07,91.54-6.67,31-36.94,49.51-20.83,57.75,35.36,78.58,28.29,1.57,16.5-35.36,11.79-41.65,24-59.33,25.14-50.68-9.43-50.68-9.43,46.36,33.79,73.86,13.36,19.25-15.32,46.36-13,67.58-29.86,72.69-39.29c1.76-3.26,9.22-7.61,18.39-11.89,19-24.92,47.68-37.13,66.4-42.3-4.64-11.93-22.79-50.74-65.54-59.36-50.68-10.21-56.58,42-92.72,35.36s-50.69-68.36-90.37-71.5S345,240.41,326.49,242.77s-30.25,1.57-30.25,1.57,17.29,10.61,40.47,1.57,66.4-44.79,82.5-7.47,49.51,76.62,81.73,65.62,66.79-30.26,76.22-23.58-22.79,3.93-67.19,25.15-45.18-28.68-108-38.11c-21.18-3.18-34.91-5-44.47-5.64a91.24,91.24,0,0,1,9.5,5.64S327.67,263.59,320.6,284Z"/><path class="cls-16" d="M492.59,672c-8-3-25.34,15-25.34,15s17.68-14.74,33.29-3.24,60.41,8.25,63.65,5,31.43,35.65,71.31,18.56,51.57-45.67,51.57-45.67L567.14,606s-38.6-15.91-59.23,4.13-19.15,32.71-19.15,32.71l105.49,2.65s-33.59.59-58,18S500.54,675,492.59,672Z"/><path class="cls-17" d="M961.61,65S957.93,44.22,951,32.72a172.22,172.22,0,0,1-11.07-21.45s-3.74,8.11-3.6,32.59S947,80.72,947,80.72Z"/><path class="cls-18" d="M991.94,164.74l0-.07Z"/><path class="cls-17" d="M1116,482.67c-4.73,21.56-23.61,100.57-23.61,100.57l-47.45-.38-5.48,78.44s6.58-.29,25.09-9.39,36.25-33.25,52.69-41.72,96.06-179.07,92.91-181.67S1188.57,398,1146,380.63,999.76,363.8,999.76,363.8l-37.87,59.43s-3.68,11,20.25,22,167.51,5.9,167.51,5.9S1120.73,461.1,1116,482.67Z"/><path class="cls-19" d="M1033.76,364.51l-1,.15a33.91,33.91,0,0,1,3.93,0Z"/><path class="cls-19" d="M1210.14,428.52c-3.16-2.6-21.57-30.53-64.17-47.89-25-10.19-71-14.21-104.8-15.8,19.76,1.16,69.31,7.09,111.47,28.41,51.87,26.23,52.75,34.77,52.75,34.77l-7.33,31.53C1206.05,441.56,1211,429.21,1210.14,428.52Z"/><path class="cls-20" d="M997.13,425.4c-16.92,8.46-5.54,17.58,10,24.56,48.56,4.56,142.56,1.22,142.56,1.22S1121,461,1116.06,482.4l25.7,7.17s32.09-54.18,4.74-66.8-109.4-18.41-109.4-18.41l55.23,16.31S1030.79,408.57,997.13,425.4Z"/><path class="cls-21" d="M1082.1,583.16l-37.17-.3-5.48,78.44s6.58-.29,25.09-9.39,36.25-33.25,52.69-41.72C1098.64,606.92,1087.12,591.55,1082.1,583.16Z"/><path class="cls-22" d="M1082.1,583.16l-37.17-.3-4,57c19.75-9.05,44.76-27.1,58.34-37.4A65.68,65.68,0,0,1,1082.1,583.16Z"/><path class="cls-20" d="M1095.48,570.24c-.12.52-.24,1-.36,1.52,1.54-.67,2.53-1.21,2.47-1.46S1096.8,570.17,1095.48,570.24Z"/><path class="cls-20" d="M1105.9,559.82c-.12.52-.24,1-.36,1.52,1.54-.67,2.53-1.21,2.46-1.46S1107.22,559.75,1105.9,559.82Z"/><path class="cls-20" d="M656.2,403.17s0,89-2.05,105.42,84.2,164.29,84.2,164.29l.56,2.75A315.05,315.05,0,0,1,785.25,655c-23-39.09-57.86-99.82-57.86-99.82l45.18-159.5Z"/><path class="cls-22" d="M804.06,685.89c-2.68-3.83-9.86-15.75-18.81-30.93a315.05,315.05,0,0,0-46.34,20.67L752,739.29h86.25S813.65,699.58,804.06,685.89Z"/><path class="cls-23" d="M789.32,620.33c-5.5-7.07-22-10.21-26.72-17.28s-3.53-10.61-9.43-15.72-35.75-22.79-53-13.36,3.15,17.68-23.18,22.79a114.55,114.55,0,0,1-48.32-1.18l22.78,102.94s16.9,19.25,54.22,16.89S744.92,706,744.92,706l-.78-9S761.82,671,778.32,671.8s31,20.83,31,20.83,13.75-16.11,4.32-23.18-14.93-6.68-14.93-11,7.86-9.43,1.18-15.33-12.18-6.28-12.18-6.28S794.82,627.41,789.32,620.33Z"/><path class="cls-24" d="M809.36,692.63a42.93,42.93,0,0,0,6.1-9.87c-7.22-6.88-26.21-22-44.12-11.35a71.74,71.74,0,0,0-9.41,6.71c5.11-3.8,10.82-6.58,16.39-6.32C794.82,672.59,809.36,692.63,809.36,692.63Z"/><path class="cls-25" d="M756,602.75c4.23,1.58,8.2,3.24,11.89,4.94a16.89,16.89,0,0,1-5.31-4.64c-3.32-5-3.72-8.21-5.72-11.46-9.42-6.12-22.45-11.42-34.45-5.34-22.1,11.2-11.49,26.23-30.35,29.76a61.88,61.88,0,0,1-34.18-3.53s28,23,49.21,10.31S722.13,590.08,756,602.75Z"/><path class="cls-26" d="M683.83,697.34c-18-8-25.34.89-21.81,5,2.3,2.68,11.8,7.85,18.19,11.14a87.15,87.15,0,0,0,25.42,1.92C743,713.06,744.92,706,744.92,706l-.78-9s1.14-1.67,3.1-4.15c-5,4.77-10.08,7.68-19.21,6.6-20-2.35-54.22-23.27-54.22-23.27s-.3,9.72,19.74,18l20,8.25S701.8,705.3,683.83,697.34Z"/><path class="cls-27" d="M768.4,647c-38,2.95-15,15.33-38.6,23.28-18,6.09-35.54,3.73-41.2,2.54,7.94,2.85,40.19,16.78,55.34,2.18,16.5-15.92,21.51-18.57,44.2-10.91,15.25,5.15,23.71,13.23,27.62,18,1.72-4.5,2.11-9.42-2.08-12.56-9.43-7.08-14.93-6.68-14.93-11,0-2.12,1.88-4.43,3-6.92C795.29,648.23,784.9,645.67,768.4,647Z"/><path class="cls-28" d="M687.07,672.29c-.83-.13-.2.12,1.53.48A12.57,12.57,0,0,0,687.07,672.29Z"/><path class="cls-29" d="M786.57,617.69a44,44,0,0,0-7.25-4.25Q783.22,615.6,786.57,617.69Z"/><path class="cls-30" d="M720.37,647.25c18-21.51,24.45-31.53,41.25-24.46,9.73,4.1,20.15,9,27.2,12.37,1.7-3,4.46-9.31.73-14.51-13.71-8.47-33-17-48-10.24-25.93,11.79-2.06,25.94-36.54,25.94s-57.16-8.85-57.16-8.85L652,649.9S702.39,668.76,720.37,647.25Z"/><path class="cls-20" d="M774.63,441.33c24.13-27.21,62.12-34.39,11.29-38s-78-4.62-78-4.62l-23.61,62.12S750.5,468.55,774.63,441.33Z"/><path class="cls-17" d="M1084.52,93.33c.34-1,1-3.5,1-3.5l-1.4-1.29s-5.3-21.87-9.29-27.65-58.41-3.73-74.89-.08c-4.84,1.07-10.73,2.15-17,3.31l-17.66,1s-37.79,2.57-54.68,30.34S894,202,892.3,213.75s-9.17,25.48-9.17,25.48l-17.81,25.66c-17.27,3.77-33.32,6.12-43,4.79,0,0-102.74-19.52-144.87-14.38S573.68,359.07,575.74,397.09s60.63,139.74,60.63,139.74h21.57L708.28,435.1s131.52,56.52,208.58,55.49c52.2-.7,94-26.86,125.16-56.12a66.08,66.08,0,0,0,4-21.89c0-4.67,2.81-9.35,3.74-14,5.61-29,3.74-58-7.48-85.07-4.72-11.67-11-22.93-17.45-34.16L986.53,141.26c1.05-.7,2.11-1.44,3.15-2.27,12.2-9.69,25.44-20.49,48.22-28.69s27.69-8.22,27.69-8.22,12.29,2.66,14,1.47,3.68-6.67,3.68-6.67l-.74-2.46S1084.18,94.36,1084.52,93.33Z"/><path class="cls-17" d="M1084.52,93.33c.34-1,1-3.5,1-3.5l-1.4-1.29s-5.3-21.87-9.29-27.65-58.41-3.73-74.89-.08c-4.84,1.07-10.73,2.15-17,3.31l-17.66,1s-37.79,2.57-54.68,30.34S894,202,892.3,213.75s-9.17,25.48-9.17,25.48l-17.81,25.66c-17.27,3.77-33.32,6.12-43,4.79,0,0-102.74-19.52-144.87-14.38S573.68,359.07,575.74,397.09s60.63,139.74,60.63,139.74h21.57L708.28,435.1s131.52,56.52,208.58,55.49c52.2-.7,94-26.86,125.16-56.12a66.08,66.08,0,0,0,4-21.89c0-4.67,2.81-9.35,3.74-14,5.61-29,3.74-58-7.48-85.07-4.72-11.67-11-22.93-17.45-34.16L986.53,141.26c1.05-.7,2.11-1.44,3.15-2.27,12.2-9.69,25.44-20.49,48.22-28.69s27.69-8.22,27.69-8.22,12.29,2.66,14,1.47,3.68-6.67,3.68-6.67l-.74-2.46S1084.18,94.36,1084.52,93.33Z"/><path class="cls-31" d="M760.24,365a19.43,19.43,0,0,0-2.64,8C759,368.15,760.24,365,760.24,365Z"/><path class="cls-31" d="M716.24,368.49s-7.07,25.34,11.2,57.17a114.68,114.68,0,0,0,19.28,24.61c34.39,12.77,86.17,30.05,131.37,37.12,1.12-4,4.41-15.84,4.74-17.14.39-1.57-28.29-28.29-62.87-60.9-14.89-14.05-19.5-23.64-19.93-30-2.87,5.79-5.85,12.83-6.78,18.63-2,12.18,53.43,68,54.61,69.93s-38.9-29.46-69.94-56.57C758.9,394.7,756.56,381,757.6,373c-2.87,9.92-6.32,26.74-.5,36.8,8.64,14.92,47.54,57,47.54,57S765.35,440,744.92,424.28,716.24,368.49,716.24,368.49Z"/><path class="cls-31" d="M800,379.33c3.16-6.37,6.18-11.23,6.18-11.23A11.12,11.12,0,0,0,800,379.33Z"/><path class="cls-20" d="M920.46,490.48l-20.37-57.59s-77.29,21.27-122.91,17.86c-22.55-1.69-38.06-5-46.32-6.51,41,15.94,128.59,47.11,186,46.35C918.07,490.57,919.27,490.53,920.46,490.48Z"/><path class="cls-17" d="M965.72,582.11s35.94-152.59,38.94-174.89-81.1-32.74-81.1-32.74-11.75,50.35-7.26,62.09,13.48,22.3,13.48,22.3l-6,145.54Z"/><path class="cls-22" d="M716.44,741.34S678.79,691.71,661,674.6L658.63,649a123.77,123.77,0,0,0-42.69,14.56,214.12,214.12,0,0,1-8.34,45.28l26,35.6h72.56Z"/><path class="cls-21" d="M664.58,737.22c6.51,3.06,15,5.43,23.41,7.2h18.18l10.27-3.08S678.79,691.71,661,674.6l-1.66-18a2.66,2.66,0,0,0-.45-.13c-2.78-.43-15.07-.74-25.71-.93a130.41,130.41,0,0,0-17.23,8A214.22,214.22,0,0,1,611.22,695c7.73-2.15,19.44-3.06,28.21,6.07C653.57,715.81,644.93,728,664.58,737.22Z"/><path class="cls-17" d="M614.44,629.42a136.85,136.85,0,0,1,1.5,34.12A123.77,123.77,0,0,1,658.63,649l-9.27-100.34s96.52-129.38,96.52-159.5S673.31,346,673.31,346l-67.08,53.4,8.9,40.38L585.69,543.85S607.6,592.45,614.44,629.42Z"/><path class="cls-20" d="M583.84,362.05c-5.52,13.71-8.59,26.06-8.1,35,1,18.09,14.75,50.59,28.92,79.7l-19,67.06a554.71,554.71,0,0,1,22.2,59.31l22-2.67L613.42,543s36.45-64.69,32.85-91.39-12.83-42.61-30.8-39.53-20,13.86-20,13.86-20-29.78-11.3-49.8C586.57,370.57,586,365.89,583.84,362.05Z"/><path class="cls-20" d="M787.75,267.52a23.54,23.54,0,0,0,1-3.57c-33.81-5.3-84.64-11.9-111.26-8.65-42.13,5.13-103.78,103.77-101.72,141.79.55,10.17,5.15,24.9,11.58,41l49.16,15.64c0-2-6.68-99.8,9-113.94s41.65-40.07,40.08-37.32-18.86,27.11-18.86,27.11l47.83-30.91c-5.92,4-17.26,12.61-10.12,15.58,9.43,3.93,45.58-12.18,36.15-14.93l-9.43-2.75s16.11-6.68,34.57-4.32,12.58-9.82-2-11.79S782.25,282.84,787.75,267.52Z"/><path class="cls-17" d="M963.07,600.61c14.6-7.93,2.25-41.38,1.13-48.43H930.5S917,594.44,917,605v10.56s-11.23,58.11-16.85,68.67-4.49,70.43,2.25,70.43h80.87s-27-41.37-29.2-52.82,0-7.92-3.37-18.49l-3.37-10.56S948.47,608.53,963.07,600.61Z"/><path class="cls-21" d="M983.29,754.67S960.68,720,955.18,705.35c-5.34-2-11.41-2-16.22-2-13.91-2.32-27.82,3.57-42.32,7.58-.47,20.18,1.55,43.75,5.78,43.75Z"/><path class="cls-21" d="M953.22,704.8c-6.56-5.84-13.35-9.67-19.79-9.48-9.57.29-18.94,5.84-26.92,12.68,11-3.36,21.73-6.45,32.45-4.66C943.2,703.34,948.39,703.43,953.22,704.8Z"/><path class="cls-20" d="M939.7,694.29c-5.17-3.78-14.57-1.45-22.94,2-12.35,7.64-22.9,19.68-29.76,31.77,13.11-13.7,24.42-29.54,44.64-33.22A42.66,42.66,0,0,1,939.7,694.29Z"/><path class="cls-22" d="M918.26,704.18c9.42-6.12,19.18-4.81,26.34-2.17a26.66,26.66,0,0,0-3-5.79,8.3,8.3,0,0,0-1.9-1.93,42.66,42.66,0,0,0-8.06.56c-20.22,3.68-31.53,19.52-44.64,33.22-1.21,2.13-2.32,4.26-3.29,6.37,1-2.11,2.08-4.24,3.29-6.37-1.59,1.65-3.2,3.28-4.86,4.85-3,6-5.62,13.3-1.7,16.38,7.44,5.84,22,5.37,22,5.37S900.28,715.86,918.26,704.18Z"/><path class="cls-32" d="M1077.11,464l.61,1.36C1077.39,464.21,1077.11,464,1077.11,464Z"/><path class="cls-20" d="M938.27,461.22C935.92,439.47,925.86,392,903.5,398s-15.24,37.39-15.24,37.39l7.06,20.73c7.06,20.73,32.95,126.42,32.95,126.42l8.24-5.06s20.6-103.16,20.6-105.18-19.42,46-19.42,46S940.63,483,938.27,461.22Z"/><path class="cls-20" d="M1066.57,84.39c-12.64,5.68-18.1,13-15.13,21.3,11.31-3.59,14.15-3.61,14.15-3.61s12.29,2.66,14,1.47,3.68-6.67,3.68-6.67l-.74-2.46s1.62-.06,2-1.09,1-3.5,1-3.5l-1.4-1.29s-5.3-21.87-9.29-27.65c-.91-1.31-4.42-2.22-9.48-2.8C1070.68,66.76,1076.5,79.93,1066.57,84.39Z"/><path class="cls-22" d="M800.59,305.32s-.63.1-1.69.31C800,305.45,800.59,305.32,800.59,305.32Z"/><path class="cls-33" d="M977.31,84c-3.73,4.25-6.3,13.51-6.3,13.51,6,0,19.68-4.76,19.68-4.76L988.5,81.82S981,79.76,977.31,84Z"/><path class="cls-34" d="M1069.74,93.57a72.55,72.55,0,0,0-12.52-1.12s.68,2.92,7.37,3.26c6.2.32,13.72-.17,18.34.78l-.62-2.07a3.54,3.54,0,0,0,1-.21C1081,94.3,1074,94.49,1069.74,93.57Z"/><path class="cls-34" d="M1070.91,59c-1.29,2.5-2.94,6.42-1.94,8.74,1.54,3.6,10.81,5.32,10.81,5.32v-.25c-.58-1.82-1.19-3.61-1.8-5.26-2,.08-5,.1-6-1.87s-.18-4.76.43-6.26C1072,59.28,1071.45,59.14,1070.91,59Z"/><path class="cls-35" d="M943.72,29.62C931.35,32,903.35,16.07,889.8,26.38s-23,49.51-7.37,60.7,25.93,13.85,25.93,13.85l18.27-21.8s23.87,8.25,39.78-3.83,7.37-39.78,20-43S984.39,34,998.24,42.59s16.5-1.18,16.5-1.18-11.79,4.71-13.26-7.07S987-4.85,962.29.75,956.1,27.27,943.72,29.62Z"/><path class="cls-17" d="M939,78.45s-7.36-28.7-18.4-43.95A239.22,239.22,0,0,1,902.71,5.8S898.3,17.64,901.05,52s19,50.38,19,50.38Z"/><path class="cls-36" d="M927.92,68.67l8.58,12.87.57-.71c-3.5-8.81-12.3-30.52-17.43-39.38C913.13,30.21,909,21.73,909,21.73s1,37.67,3,42.2,6.11,14.79,6.11,14.79l1-16.76L924,73.6l-.79-9.07,4.73,11.24Z"/><path class="cls-37" d="M384.64,633.3c-7.86-9-40.86,2.75-31.43,9s14.54,6.28,14.54,6.28S352,641.55,362.25,638s18.07-1.17,13.35,11,13.76,34.18,47.94,17.68,26.32-28.69,38.5-22,35.75,32.22,65.61,27.9,45.19-23.18,44.4-19.65-12.18,33-45.58,35.76-18.07-14.15-42-6.29-8.25,24.75-8.25,24.75-3.92-22.39,17.68-13,29.86,16.89,55.79,10.21,20-10.6,20-10.6,12.18,8.25,29.47,2S620,681.23,620,681.23s14.15-18.86,30.65-15.32c0,0,4.17-.1,7.12,6.83s17.63,17.53,17.63,17.53,11.39-3.93,5.11-17.29-9.82-14.14-9.82-14.14a26.11,26.11,0,0,0-.4-17.29c-3.53-9-8.25-10.61-8.25-10.61s5.5-11,1.18-20.43-3.14-7.07-4.32-9.43,2.75-20.82-4.32-28.29-58.15-24.35-81.72-12.17-32.22,25.93-53.83,31-24-20.43-45.58-22.39-60.89-3.54-54.61,5.5,5.11,27.5-14.14,26.32-18.08-18.46-18.08-18.46-2,27.11,26.33,23.57,12.18-24,24.75-24.75,11.39,18.07,42.83,27.89S554,614.44,554,614.44,508.4,638,475.4,623.08s-40.86-14.92-49.9,1.18-.39,36.15-25.93,35.76S392.5,642.34,384.64,633.3Z"/><path class="cls-38" d="M599.16,695.77c17.29-6.29,20.82-14.54,20.82-14.54s14.15-18.86,30.65-15.32c0,0,4.17-.1,7.12,6.83s17.63,17.53,17.63,17.53,11.39-3.93,5.11-17.29l-.15-.31c-8.93-12.13-22-22.73-40.32-21.69-41.25,2.36-19.25,26.72-40.86,28.68s-37.33-8.64-46.75,3.93c-6.89,9.18-18.8,18.35-29.93,22.33,7.36,1.64,15.46,1.51,27.17-1.51,25.94-6.68,20-10.6,20-10.6S581.87,702.06,599.16,695.77Z"/><path class="cls-39" d="M607.89,603.16c-37.81,8.53-34.27,57.25-79.84,51.36S483.26,627,462,633.69c-11.83,3.73-23,17.46-30.65,28.89,25.11-14.32,19.51-24,30.65-17.89,12.18,6.68,35.75,32.22,65.61,27.9s45.19-23.18,44.4-19.65c-.35,1.57-2.78,8.22-8.27,15.37l3.16-.83S604.27,627,629,630.55c12.93,1.85,29.61,13.56,42.6,24.33a25.81,25.81,0,0,0-1.35-13.33c-3.53-9-8.25-10.61-8.25-10.61s5.5-11,1.18-20.43-3.14-7.07-4.32-9.43c-.64-1.28.23-7.36,0-13.83C641.94,577,612,563.38,584.23,574.37c-41.65,16.5-49.9,38.11-79,30.25s-36.54-24.75-49.9-19.25a15,15,0,0,0-5.52,3.54c5.33,6.17,12.62,14.78,30.67,20.42,24.25,7.58,54.8,6.51,67.49,5.62a50.64,50.64,0,0,1,6-.51s30.25-30.25,59.32-25.14c19.8,3.47,39.22,21.15,49.61,32.09C652.75,611.49,633.2,597.46,607.89,603.16Z"/><path class="cls-40" d="M856.8,597.15c-27.7,15.33-26.82,30.35-43.61,20s-18-26.81-28.88-8c-1.08,1.87-2.1,3.58-3.06,5.18,3.33,1.73,6.28,3.62,8.07,5.91a10.26,10.26,0,0,1,.67,1,14.49,14.49,0,0,1,10.82,2.93c12.67,10,25.05,23.87,31.24,15.62s16.5-22.1,23.86-13,7.37,13.85,7.37,13.85-9.13-21.22-19.15-1.48-21.22,15.91-29.76,5.9c-5.59-6.56-13.83-6.3-18.86-5.34a31.52,31.52,0,0,1,4.42,3.27c6.68,5.9-1.18,11-1.18,15.33s5.5,3.92,14.93,11c5.09,3.82,3.42,10.27.81,15.4,9.43,9.15,8.19,17.84,20.21,13.67,14.44-5,23.28-7.66,27.7,0s7,35.9,21.31,35.92c0,0,26.08-36.3,48.23-34.45s34.47,28,34.47,28,17.68-23.28,13.56-35.66-13.26-11.49-13.26-13.85-.3-16.5,2.65-21.51-4.42-13.26-4.42-13.26,7.66-8.84.3-14.73a16.3,16.3,0,0,1-4.5-5c5-3.08,10.54-7.72,9.5-12.05-1.65-6.91.32-15.12-9.4-20.73a21.65,21.65,0,0,0-4.44-5.2c-11.79-10.32-34.48-14.74-41.85-5.9s-10.31-4.12-32.12-11.49-45.67.89-48.91,11.79-25,3.53-33-1.77c-5.35-3.56-12.82,6.83-17.15,14,3.38-4.3,9.33-8.12,18.32-1.37,15.33,11.49,27.11,14.73,39.2,2.65s23.27-15.61,33.88-.88l.31.43C870.83,592.05,865,592.64,856.8,597.15Z"/><path class="cls-41" d="M886.26,587.72c3.83,20.34,23-3.53,51.57,12.68,14.8,8.39,22.71,15.66,26.92,20.74,3.48-2.77,6.25-6.09,5.49-9.25-1.65-6.91.32-15.12-9.4-20.73a21.39,21.39,0,0,0-4.23-5c-8-4.6-16.66-6.72-24.67-2.86-24.46,11.79-32.71,7.37-40.08-5s-39.48-1.48-39.48-1.48S882.43,567.39,886.26,587.72Z"/><path class="cls-42" d="M862.4,698.52c4.42,7.66,7,35.9,21.31,35.92,0,0,26.08-36.3,48.23-34.45s34.47,28,34.47,28,9.91-13,13.16-24.81c-4.44-14.14-13.64-30.95-32.22-30.38-31.91,1-32.21,32.5-53.72,31s-28.29-29.76-38.9-16.79a30,30,0,0,0-4.15,6.93C856.05,693.17,859.92,694.22,862.4,698.52Z"/><path class="cls-43" d="M849.14,681.13c21.21-21.21,19.44-23.27,32.41-9.72s15.62-20.33,48.62-12.08c14.12,3.53,26.72,10,36.53,16.31,0-3.81.2-10.25,1.29-14.88-11.9-9.89-26.53-19.87-38.11-20.88-23.58-2.06-18.57,16.5-30.36,22.69s-17.68-16.5-33.59-20.33S853.56,662,843.54,669.05s-25.93-10.9-25.93-10.9S827.92,702.35,849.14,681.13Z"/><path class="cls-44" d="M911.31,602.46c-23.87,8.84-33.89,12.08-42.43,3.83s-27.11,15-27.11,15,29.47-10.32,40.07,2.35,20-11.49,45.68-.29a261.15,261.15,0,0,1,37.6,20.11,15.32,15.32,0,0,0,1.09-1.54c-4.31-5.72-12.44-15.42-20.72-19.45a76.5,76.5,0,0,0-22.39-7.08s26.49.91,45.33,19.59a7.78,7.78,0,0,0-3.19-6,16.3,16.3,0,0,1-4.5-5c.68-.42,1.37-.87,2-1.34C951.7,613,928.76,596,911.31,602.46Z"/><path class="cls-45" d="M783.37,592.63a24.08,24.08,0,0,0-3.48,6.29S781.26,596.16,783.37,592.63Z"/><path class="cls-45" d="M783.37,592.63a24.08,24.08,0,0,0-3.48,6.29S781.26,596.16,783.37,592.63Z"/><path class="cls-46" d="M1073.77,509.15c-24-15.72-9-31.43-28.29-16.5s-24.75,33.39-35,25.14-20.83-16.89-20.83-16.89,14.54,46.75,37.72,31,20.82-32.61,29.47-16.1,24,24.35,27.89,24-8.25,14.15-19.64.39-26.33,2-31,11.4-17.68-.39-17.68-.39,13.75,25.53,23.18,19.25,14.54-25.93,24.36-11.4,17.29,53.83,37.72,62.08,24-4.32,24-4.32,21.61,1.57,23.18-10.22l1.58-11.78s19.64-6.29,18.07-13.36.39-13,8.25-14.54,7.07-16.89,7.07-16.89,12.57-.79,13.36-13.36-.79-16.11-.79-16.11,13.75-7.86,12.58-17.29-4.33-11-4.33-11,8.25-4.71,5.11-16.89-13.36-14.93-13.36-14.93l-5.1,13s5.1,9.43-18.47-4.32-40.07-22.39-55.4-4.32-34.18,12.18-47.54,3.54-26.32-14.15-39.68,5.1-32.22,2.75-32.22,2.75,12.58,24.36,31,14.15,26.33-20.43,31-11.79,16.89,22,30.65,20,22-5.5,22-5.5S1097.74,524.86,1073.77,509.15Z"/><path class="cls-47" d="M1174.45,506.4c-18-15.33-14.14-26.82-36.24-20.63s-35.36,48.33-58.35,39.19-22.39-19.74-22.39-17.68,16.2,38,42.43,28.29,41.84-31.83,53.33-13c9.14,15,14.56,36.3,28.24,40.42,2.72-5,2.31-13,2.31-13s6.81-.44,10.72-5.68c-9.76-2.48-19.43-6.13-23.29-11.41a111.3,111.3,0,0,1-13-22.69s20.22,23,39,23.78c.43-10.42-.92-13.47-.92-13.47s13.75-7.86,12.58-17.29-4.33-11-4.33-11,7.34-4.2,5.53-14.91c-1.48,5-5.51,8.91-14.17,9-24.46.29-26.22-26.23-57.16-18.57s-31,22.69-45.38,20.34L1079,485.77s19.45,14.44,32.71,3.83,45.08-24.16,51.86-5.6S1206,505.51,1206,505.51,1192.42,521.72,1174.45,506.4Z"/><path class="cls-48" d="M1119.08,623.11a14.12,14.12,0,0,1-3-2.38c-6.95-7.7-25.15-20.42-37.43-28.64,5.67,12.8,12.68,24.87,23,29C1110,624.47,1115.46,624.39,1119.08,623.11Z"/><path class="cls-49" d="M1173.77,567.81c-8-8.38-18.21-18.87-27.61-27.23-18.86-16.8-29.76,5.6-46,15.62-12.14,7.5-19.16,2.6-22.28-.82,1.88,2.44,5.26,6.83,11.09,14.37,13,16.8,20.33-12.67,43-16.21,17.61-2.74,15.34,21,31.51,35.17,3.17-2.13,5.51-4.65,4.93-7.27C1167.11,575.35,1168.38,570.15,1173.77,567.81Z"/><path class="cls-50" d="M1111.69,587.72c12,.44,11.56,18.13,20.31,29,6.51-.5,15.8-2.56,16.81-10.14.3-2.23.54-4,.74-5.5-6.53-2.35-12.19-5.6-14.59-10.11-7.36-13.85-18.27-15.33-36.83-8.84s-24.16-23.58-21.8-2.66S1095.48,587.14,1111.69,587.72Z"/><path class="cls-51" d="M1076,553a21.19,21.19,0,0,0,1.88,2.43C1075.6,552.38,1075.54,552.3,1076,553Z"/><path class="cls-52" d="M357.33,610.41s-3.53-5.74-19.74-7.8-22.39,9-22.39,9L300.46,611s19.3,4.13,27.7-3.24S357.33,610.41,357.33,610.41Z"/><path class="cls-53" d="M312.25,638l14.88-3.54C315.93,626.33,312.25,638,312.25,638Z"/><path class="cls-54" d="M427.76,690.56l-23.28-1.91S419.8,700.58,427.76,690.56Z"/><path class="cls-55" d="M336.27,682,361,689.24C354.68,678.48,336.27,682,336.27,682Z"/><path class="cls-56" d="M761.91,556.78l38.31,12.68C788.14,555.31,761.91,556.78,761.91,556.78Z"/><path class="cls-57" d="M799.93,529.09s-1.77,12.08,17.09,15Z"/><path class="cls-58" d="M1017.69,569.16Z"/><path class="cls-59" d="M1003,565.92l14.74,3.24s-16.8-4.13-19.16-20.92-10.61-15.62-10.61-15.62l3.54,17.09S988.22,562.68,1003,565.92Z"/><path class="cls-60" d="M1019.75,590.38l-21.22-6.78S1004.72,599.81,1019.75,590.38Z"/><path class="cls-61" d="M868.58,509.05l20.34,8.84C883,502.86,868.58,509.05,868.58,509.05Z"/><path class="cls-62" d="M903.65,548.24l-10.9-8.55S891.27,550.89,903.65,548.24Z"/><path class="cls-63" d="M0,362.6l72.29-8.25C28.68,327.24,0,362.6,0,362.6Z"/><path class="cls-64" d="M75,390.89s21.61,13,36.54,3.53Z"/><path class="cls-65" d="M108.44,465.54a110.39,110.39,0,0,1,21.21-29.47s-22-3.14-28.68,18.07S70.72,473,70.72,473,100.19,482.82,108.44,465.54Z"/><path class="cls-66" d="M189.37,460l25.54-8.26C192.91,443.93,189,458.86,189.37,460Z"/><path class="cls-67" d="M206.66,493.43l-29.07,6.68C179.55,500.5,193.7,507.57,206.66,493.43Z"/><path class="cls-68" d="M28.29,278.52l33.39,3.14C43.22,269.09,28.29,278.52,28.29,278.52Z"/><path class="cls-69" d="M115.51,214.09l18.86,9C130.05,208.19,115.51,214.09,115.51,214.09Z"/><path class="cls-70" d="M618.8,198.76l-23.18-7.86S604.66,205.44,618.8,198.76Z"/><path class="cls-71" d="M572.44,135.11,589.73,143C587.37,133.94,573.23,133.94,572.44,135.11Z"/><path class="cls-72" d="M628.63,98.18l14.93,6.29C642.38,96.61,628.63,98.18,628.63,98.18Z"/><path class="cls-73" d="M579.51,90.72l22.79,14.14C602.69,100.93,587.77,91.5,579.51,90.72Z"/><path class="cls-19" d="M595.23,356.31c12.57-24.36,47.93-87.61,87.61-95.08S833.32,286,862.79,271.45c13.32-6.57,20.86-24.7,25.12-42.6a108.28,108.28,0,0,1-4.78,10.38l-17.81,25.66c-17.27,3.77-33.32,6.12-43,4.79,0,0-102.74-19.52-144.87-14.38S573.68,359.07,575.74,397.09c.31,5.74,1.92,12.94,4.41,21C582.82,398.45,587.68,370.94,595.23,356.31Z"/></g></g></svg>