<svg xmlns="http://www.w3.org/2000/svg" xmlns:xlink="http://www.w3.org/1999/xlink" viewBox="0 0 392.4 227.98"><defs><style>.cls-1{fill:url(#Nueva_muestra_de_degradado_14);}.cls-2{fill:url(#Nueva_muestra_de_degradado_14-2);}.cls-3{fill:url(#Nueva_muestra_de_degradado_14-3);}.cls-4{fill:url(#Nueva_muestra_de_degradado_14-4);}.cls-5{fill:url(#Nueva_muestra_de_degradado_14-5);}.cls-6{fill:url(#Nueva_muestra_de_degradado_14-6);}.cls-7{fill:url(#Nueva_muestra_de_degradado_14-7);}.cls-8{fill:url(#Nueva_muestra_de_degradado_14-8);}.cls-9{fill:url(#Nueva_muestra_de_degradado_12);}.cls-10{fill:url(#Nueva_muestra_de_degradado_13);}.cls-11{fill:url(#Nueva_muestra_de_degradado_13-2);}.cls-12{fill:url(#Nueva_muestra_de_degradado_13-3);}.cls-13{fill:url(#Nueva_muestra_de_degradado_13-4);}.cls-14{fill:url(#Nueva_muestra_de_degradado_14-9);}.cls-15{fill:url(#Nueva_muestra_de_degradado_12-2);}.cls-16{fill:url(#Nueva_muestra_de_degradado_12-3);}.cls-17{fill:url(#Nueva_muestra_de_degradado_12-4);}.cls-18{fill:url(#Nueva_muestra_de_degradado_12-5);}.cls-19{fill:url(#Nueva_muestra_de_degradado_14-10);}.cls-20{fill:url(#Nueva_muestra_de_degradado_12-6);}.cls-21{fill:url(#Nueva_muestra_de_degradado_12-7);}.cls-22{fill:url(#Nueva_muestra_de_degradado_12-8);}.cls-23{fill:url(#Nueva_muestra_de_degradado_12-9);}.cls-24{fill:url(#Nueva_muestra_de_degradado_12-10);}.cls-25{fill:url(#Nueva_muestra_de_degradado_14-11);}.cls-26{fill:url(#Nueva_muestra_de_degradado_12-11);}.cls-27{fill:url(#Nueva_muestra_de_degradado_12-12);}.cls-28{fill:url(#Nueva_muestra_de_degradado_13-5);}.cls-29{fill:url(#Nueva_muestra_de_degradado_13-6);}.cls-30{fill:url(#Nueva_muestra_de_degradado_13-7);}.cls-31{fill:url(#Nueva_muestra_de_degradado_14-12);}.cls-32{fill:url(#Nueva_muestra_de_degradado_11);}.cls-33{fill:url(#Nueva_muestra_de_degradado_14-13);}.cls-34{fill:url(#Nueva_muestra_de_degradado_11-2);}.cls-35{fill:url(#Nueva_muestra_de_degradado_11-3);}.cls-36{fill:url(#Nueva_muestra_de_degradado_14-14);}.cls-37{fill:url(#Nueva_muestra_de_degradado_14-15);}.cls-38{fill:url(#Nueva_muestra_de_degradado_16);}.cls-39{fill:url(#Nueva_muestra_de_degradado_14-16);}.cls-40{fill:url(#Nueva_muestra_de_degradado_14-17);}.cls-41{fill:url(#Nueva_muestra_de_degradado_12-13);}.cls-42{fill:url(#Nueva_muestra_de_degradado_12-14);}.cls-43{fill:url(#Nueva_muestra_de_degradado_12-15);}.cls-44{fill:url(#Nueva_muestra_de_degradado_12-16);}.cls-45{fill:url(#Nueva_muestra_de_degradado_12-17);}.cls-46{fill:url(#Nueva_muestra_de_degradado_12-18);}.cls-47{fill:url(#Nueva_muestra_de_degradado_12-19);}.cls-48{fill:url(#Nueva_muestra_de_degradado_12-20);}.cls-49{fill:url(#Nueva_muestra_de_degradado_12-21);}.cls-50{fill:url(#Nueva_muestra_de_degradado_12-22);}.cls-51{fill:url(#Nueva_muestra_de_degradado_12-23);}.cls-52{fill:url(#Nueva_muestra_de_degradado_12-24);}.cls-53{fill:url(#Nueva_muestra_de_degradado_12-25);}.cls-54{fill:url(#Nueva_muestra_de_degradado_12-26);}.cls-55{fill:url(#Nueva_muestra_de_degradado_12-27);}.cls-56{fill:url(#Nueva_muestra_de_degradado_12-28);}.cls-57{fill:url(#Nueva_muestra_de_degradado_13-8);}.cls-58{fill:url(#Nueva_muestra_de_degradado_12-29);}.cls-59{fill:#0c0c0c;}.cls-60{fill:url(#Nueva_muestra_de_degradado_13-9);}.cls-61{fill:url(#Nueva_muestra_de_degradado_11-4);}.cls-62{fill:url(#Nueva_muestra_de_degradado_41);}.cls-63{fill:url(#Nueva_muestra_de_degradado_19);}.cls-64{fill:url(#Nueva_muestra_de_degradado_19-2);}.cls-65{fill:url(#Nueva_muestra_de_degradado_19-3);}.cls-66{fill:url(#Nueva_muestra_de_degradado_19-4);}.cls-67{fill:url(#Nueva_muestra_de_degradado_19-5);}.cls-68{fill:url(#Nueva_muestra_de_degradado_19-6);}.cls-69{fill:url(#Nueva_muestra_de_degradado_19-7);}.cls-70{fill:url(#Nueva_muestra_de_degradado_19-8);}.cls-71{fill:url(#Nueva_muestra_de_degradado_19-9);}.cls-72{fill:url(#Nueva_muestra_de_degradado_19-10);}.cls-73{fill:url(#Nueva_muestra_de_degradado_19-11);}.cls-74{fill:url(#Nueva_muestra_de_degradado_19-12);}.cls-75{fill:url(#Nueva_muestra_de_degradado_19-13);}.cls-76{fill:url(#Nueva_muestra_de_degradado_19-14);}.cls-77{fill:url(#Nueva_muestra_de_degradado_11-5);}.cls-78{fill:url(#Nueva_muestra_de_degradado_41-2);}.cls-79{fill:url(#Nueva_muestra_de_degradado_12-30);}.cls-80{fill:url(#Nueva_muestra_de_degradado_15);}.cls-81{fill:url(#Nueva_muestra_de_degradado_12-31);}.cls-82{fill:url(#Nueva_muestra_de_degradado_12-32);}.cls-83{fill:url(#Nueva_muestra_de_degradado_13-10);}.cls-84{fill:#211915;}.cls-85{fill:url(#Nueva_muestra_de_degradado_12-33);}.cls-86{fill:url(#Nueva_muestra_de_degradado_12-34);}.cls-87{fill:url(#Nueva_muestra_de_degradado_13-11);}.cls-88{fill:url(#Nueva_muestra_de_degradado_12-35);}.cls-89{fill:url(#Nueva_muestra_de_degradado_21);}.cls-90{fill:url(#Nueva_muestra_de_degradado_14-18);}.cls-91{fill:url(#Nueva_muestra_de_degradado_12-36);}.cls-92{fill:url(#Nueva_muestra_de_degradado_12-37);}.cls-93{fill:url(#Nueva_muestra_de_degradado_11-6);}.cls-94{fill:url(#Nueva_muestra_de_degradado_16-2);}.cls-95{fill:url(#Nueva_muestra_de_degradado_11-7);}.cls-96{fill:url(#Nueva_muestra_de_degradado_16-3);}.cls-97{fill:url(#Nueva_muestra_de_degradado_12-38);}.cls-98{fill:url(#Nueva_muestra_de_degradado_12-39);}.cls-99{fill:url(#Nueva_muestra_de_degradado_12-40);}.cls-100{fill:url(#Nueva_muestra_de_degradado_12-41);}.cls-101{fill:url(#Nueva_muestra_de_degradado_12-42);}.cls-102{fill:url(#Nueva_muestra_de_degradado_12-43);}.cls-103{fill:url(#Nueva_muestra_de_degradado_12-44);}.cls-104{fill:url(#Nueva_muestra_de_degradado_12-45);}.cls-105{fill:url(#Nueva_muestra_de_degradado_12-46);}.cls-106{fill:url(#Nueva_muestra_de_degradado_12-47);}.cls-107{fill:url(#Nueva_muestra_de_degradado_12-48);}.cls-108{fill:url(#Nueva_muestra_de_degradado_12-49);}.cls-109{fill:url(#Nueva_muestra_de_degradado_12-50);}.cls-110{fill:url(#Nueva_muestra_de_degradado_12-51);}.cls-111{fill:url(#Nueva_muestra_de_degradado_12-52);}.cls-112{fill:url(#Nueva_muestra_de_degradado_12-53);}.cls-113{fill:url(#Nueva_muestra_de_degradado_12-54);}.cls-114{fill:url(#Nueva_muestra_de_degradado_13-12);}.cls-115{fill:url(#Nueva_muestra_de_degradado_12-55);}.cls-116{fill:url(#Nueva_muestra_de_degradado_12-56);}.cls-117{fill:url(#Nueva_muestra_de_degradado_12-57);}.cls-118{fill:url(#Nueva_muestra_de_degradado_12-58);}.cls-119{fill:url(#Nueva_muestra_de_degradado_12-59);}.cls-120{fill:url(#Nueva_muestra_de_degradado_12-60);}.cls-121{fill:url(#Nueva_muestra_de_degradado_12-61);}.cls-122{fill:url(#Nueva_muestra_de_degradado_12-62);}.cls-123{fill:url(#Nueva_muestra_de_degradado_12-63);}.cls-124{fill:url(#Nueva_muestra_de_degradado_12-64);}.cls-125{fill:url(#Nueva_muestra_de_degradado_12-65);}</style><linearGradient id="Nueva_muestra_de_degradado_14" x1="162.19" y1="158.92" x2="167.44" y2="169.21" gradientUnits="userSpaceOnUse"><stop offset="0" stop-color="#ffb806"/><stop offset="1" stop-color="#d38616"/></linearGradient><linearGradient id="Nueva_muestra_de_degradado_14-2" x1="104.56" y1="168.97" x2="97.32" y2="188.47" xlink:href="#Nueva_muestra_de_degradado_14"/><linearGradient id="Nueva_muestra_de_degradado_14-3" x1="187.04" y1="154.44" x2="186.09" y2="157.01" xlink:href="#Nueva_muestra_de_degradado_14"/><linearGradient id="Nueva_muestra_de_degradado_14-4" x1="190.31" y1="151.3" x2="189.29" y2="154.05" xlink:href="#Nueva_muestra_de_degradado_14"/><linearGradient id="Nueva_muestra_de_degradado_14-5" x1="194.11" y1="148.53" x2="193.09" y2="151.28" xlink:href="#Nueva_muestra_de_degradado_14"/><linearGradient id="Nueva_muestra_de_degradado_14-6" x1="199.41" y1="144.9" x2="198.19" y2="148.18" xlink:href="#Nueva_muestra_de_degradado_14"/><linearGradient id="Nueva_muestra_de_degradado_14-7" x1="311.62" y1="94.12" x2="325.75" y2="121.86" xlink:href="#Nueva_muestra_de_degradado_14"/><linearGradient id="Nueva_muestra_de_degradado_14-8" x1="223.08" y1="114.78" x2="228.32" y2="125.07" xlink:href="#Nueva_muestra_de_degradado_14"/><linearGradient id="Nueva_muestra_de_degradado_12" x1="386.39" y1="180.89" x2="372.95" y2="197.63" gradientUnits="userSpaceOnUse"><stop offset="0" stop-color="#cae588"/><stop offset="1" stop-color="#679b3e"/></linearGradient><linearGradient id="Nueva_muestra_de_degradado_13" x1="312.45" y1="203.42" x2="323.27" y2="218.08" gradientUnits="userSpaceOnUse"><stop offset="0" stop-color="#3d5b2a"/><stop offset="1" stop-color="#679b3e"/></linearGradient><linearGradient id="Nueva_muestra_de_degradado_13-2" x1="223.23" y1="257.29" x2="213.92" y2="294.88" xlink:href="#Nueva_muestra_de_degradado_13"/><linearGradient id="Nueva_muestra_de_degradado_13-3" x1="64.28" y1="69.22" x2="371.1" y2="69.22" xlink:href="#Nueva_muestra_de_degradado_13"/><linearGradient id="Nueva_muestra_de_degradado_13-4" x1="130.72" y1="138.92" x2="131.37" y2="138.92" xlink:href="#Nueva_muestra_de_degradado_13"/><linearGradient id="Nueva_muestra_de_degradado_14-9" x1="237.83" y1="189.05" x2="257.67" y2="186.31" xlink:href="#Nueva_muestra_de_degradado_14"/><linearGradient id="Nueva_muestra_de_degradado_12-2" x1="396.02" y1="191.93" x2="388.68" y2="201.07" xlink:href="#Nueva_muestra_de_degradado_12"/><linearGradient id="Nueva_muestra_de_degradado_12-3" x1="386.81" y1="197.48" x2="380.13" y2="205.8" xlink:href="#Nueva_muestra_de_degradado_12"/><linearGradient id="Nueva_muestra_de_degradado_12-4" x1="375.3" y1="186.72" x2="365.89" y2="198.44" xlink:href="#Nueva_muestra_de_degradado_12"/><linearGradient id="Nueva_muestra_de_degradado_12-5" x1="38.74" y1="195" x2="38.72" y2="195.04" xlink:href="#Nueva_muestra_de_degradado_12"/><linearGradient id="Nueva_muestra_de_degradado_14-10" x1="33.88" y1="188.26" x2="33.04" y2="190.52" xlink:href="#Nueva_muestra_de_degradado_14"/><linearGradient id="Nueva_muestra_de_degradado_12-6" x1="123.1" y1="199.77" x2="123.09" y2="199.79" xlink:href="#Nueva_muestra_de_degradado_12"/><linearGradient id="Nueva_muestra_de_degradado_12-7" x1="191.69" y1="158.73" x2="191.5" y2="159.25" xlink:href="#Nueva_muestra_de_degradado_12"/><linearGradient id="Nueva_muestra_de_degradado_12-8" x1="196.16" y1="156" x2="195.77" y2="157.04" xlink:href="#Nueva_muestra_de_degradado_12"/><linearGradient id="Nueva_muestra_de_degradado_12-9" x1="200.73" y1="153.45" x2="200.32" y2="154.57" xlink:href="#Nueva_muestra_de_degradado_12"/><linearGradient id="Nueva_muestra_de_degradado_12-10" x1="286.89" y1="108.23" x2="290.65" y2="115.6" xlink:href="#Nueva_muestra_de_degradado_12"/><linearGradient id="Nueva_muestra_de_degradado_14-11" x1="109.59" y1="122.34" x2="26.96" y2="169.51" xlink:href="#Nueva_muestra_de_degradado_14"/><linearGradient id="Nueva_muestra_de_degradado_12-11" x1="139.33" y1="162.45" x2="278.34" y2="171.07" xlink:href="#Nueva_muestra_de_degradado_12"/><linearGradient id="Nueva_muestra_de_degradado_12-12" x1="115.09" y1="180.5" x2="218.45" y2="186.91" xlink:href="#Nueva_muestra_de_degradado_12"/><linearGradient id="Nueva_muestra_de_degradado_13-5" x1="191.39" y1="193.73" x2="164.1" y2="210.64" xlink:href="#Nueva_muestra_de_degradado_13"/><linearGradient id="Nueva_muestra_de_degradado_13-6" x1="306.95" y1="150.48" x2="287.92" y2="192.13" xlink:href="#Nueva_muestra_de_degradado_13"/><linearGradient id="Nueva_muestra_de_degradado_13-7" x1="270.88" y1="153.25" x2="243.18" y2="213.88" xlink:href="#Nueva_muestra_de_degradado_13"/><linearGradient id="Nueva_muestra_de_degradado_14-12" x1="296.74" y1="153.5" x2="365.66" y2="153.5" xlink:href="#Nueva_muestra_de_degradado_14"/><linearGradient id="Nueva_muestra_de_degradado_11" x1="372.06" y1="132" x2="389.5" y2="119.59" gradientUnits="userSpaceOnUse"><stop offset="0" stop-color="#b52d2d"/><stop offset="1" stop-color="#630101"/></linearGradient><linearGradient id="Nueva_muestra_de_degradado_14-13" x1="287.19" y1="140.03" x2="294.97" y2="146.57" xlink:href="#Nueva_muestra_de_degradado_14"/><linearGradient id="Nueva_muestra_de_degradado_11-2" x1="309.97" y1="147.13" x2="313.3" y2="144.76" xlink:href="#Nueva_muestra_de_degradado_11"/><linearGradient id="Nueva_muestra_de_degradado_11-3" x1="303.86" y1="152.47" x2="308.78" y2="148.97" xlink:href="#Nueva_muestra_de_degradado_11"/><linearGradient id="Nueva_muestra_de_degradado_14-14" x1="300.45" y1="124.25" x2="308.23" y2="130.79" xlink:href="#Nueva_muestra_de_degradado_14"/><linearGradient id="Nueva_muestra_de_degradado_14-15" x1="303.59" y1="120.52" x2="311.37" y2="127.06" xlink:href="#Nueva_muestra_de_degradado_14"/><linearGradient id="Nueva_muestra_de_degradado_16" x1="370.37" y1="128.19" x2="394.74" y2="110.85" gradientUnits="userSpaceOnUse"><stop offset="0" stop-color="#ffb806"/><stop offset="1" stop-color="#efe6b1"/></linearGradient><linearGradient id="Nueva_muestra_de_degradado_14-16" x1="305.18" y1="118.62" x2="312.96" y2="125.16" xlink:href="#Nueva_muestra_de_degradado_14"/><linearGradient id="Nueva_muestra_de_degradado_14-17" x1="296.66" y1="128.77" x2="304.44" y2="135.31" xlink:href="#Nueva_muestra_de_degradado_14"/><linearGradient id="Nueva_muestra_de_degradado_12-13" x1="307.73" y1="120.86" x2="309.09" y2="123.53" xlink:href="#Nueva_muestra_de_degradado_12"/><linearGradient id="Nueva_muestra_de_degradado_12-14" x1="312.92" y1="123.32" x2="313.76" y2="124.97" xlink:href="#Nueva_muestra_de_degradado_12"/><linearGradient id="Nueva_muestra_de_degradado_12-15" x1="302.13" y1="123.62" x2="302.2" y2="123.75" xlink:href="#Nueva_muestra_de_degradado_12"/><linearGradient id="Nueva_muestra_de_degradado_12-16" x1="328.42" y1="126.78" x2="329.04" y2="127.99" xlink:href="#Nueva_muestra_de_degradado_12"/><linearGradient id="Nueva_muestra_de_degradado_12-17" x1="324.7" y1="124.53" x2="325.26" y2="125.65" xlink:href="#Nueva_muestra_de_degradado_12"/><linearGradient id="Nueva_muestra_de_degradado_12-18" x1="215.88" y1="136.83" x2="216.72" y2="138.49" xlink:href="#Nueva_muestra_de_degradado_12"/><linearGradient id="Nueva_muestra_de_degradado_12-19" x1="207.58" y1="146.49" x2="207.64" y2="146.61" xlink:href="#Nueva_muestra_de_degradado_12"/><linearGradient id="Nueva_muestra_de_degradado_12-20" x1="211.22" y1="137.31" x2="212.74" y2="140.3" xlink:href="#Nueva_muestra_de_degradado_12"/><linearGradient id="Nueva_muestra_de_degradado_12-21" x1="224.21" y1="129.3" x2="224.86" y2="130.57" xlink:href="#Nueva_muestra_de_degradado_12"/><linearGradient id="Nueva_muestra_de_degradado_12-22" x1="228.45" y1="127.83" x2="229.17" y2="129.24" xlink:href="#Nueva_muestra_de_degradado_12"/><linearGradient id="Nueva_muestra_de_degradado_12-23" x1="150.33" y1="181.45" x2="151.85" y2="184.44" xlink:href="#Nueva_muestra_de_degradado_12"/><linearGradient id="Nueva_muestra_de_degradado_12-24" x1="154.99" y1="180.98" x2="155.84" y2="182.63" xlink:href="#Nueva_muestra_de_degradado_12"/><linearGradient id="Nueva_muestra_de_degradado_12-25" x1="146.69" y1="190.63" x2="146.75" y2="190.76" xlink:href="#Nueva_muestra_de_degradado_12"/><linearGradient id="Nueva_muestra_de_degradado_12-26" x1="167.56" y1="171.98" x2="168.28" y2="173.39" xlink:href="#Nueva_muestra_de_degradado_12"/><linearGradient id="Nueva_muestra_de_degradado_12-27" x1="163.33" y1="173.44" x2="163.97" y2="174.71" xlink:href="#Nueva_muestra_de_degradado_12"/><linearGradient id="Nueva_muestra_de_degradado_12-28" x1="298.4" y1="157.96" x2="328.17" y2="138.34" xlink:href="#Nueva_muestra_de_degradado_12"/><linearGradient id="Nueva_muestra_de_degradado_13-8" x1="344.93" y1="134.96" x2="338.95" y2="148.05" xlink:href="#Nueva_muestra_de_degradado_13"/><linearGradient id="Nueva_muestra_de_degradado_12-29" x1="304.19" y1="145.8" x2="319.05" y2="143.75" xlink:href="#Nueva_muestra_de_degradado_12"/><linearGradient id="Nueva_muestra_de_degradado_13-9" x1="357.51" y1="164.01" x2="368.16" y2="164.01" xlink:href="#Nueva_muestra_de_degradado_13"/><linearGradient id="Nueva_muestra_de_degradado_11-4" x1="354.01" y1="169.19" x2="368.74" y2="169.19" xlink:href="#Nueva_muestra_de_degradado_11"/><linearGradient id="Nueva_muestra_de_degradado_41" x1="357.87" y1="173.71" x2="365.37" y2="170.28" gradientUnits="userSpaceOnUse"><stop offset="0" stop-color="#701b0a"/><stop offset="1" stop-color="#420200"/></linearGradient><linearGradient id="Nueva_muestra_de_degradado_19" x1="368.63" y1="163.47" x2="369.76" y2="162.95" gradientUnits="userSpaceOnUse"><stop offset="0" stop-color="#ddd4d4"/><stop offset="1" stop-color="#afaaa1"/></linearGradient><linearGradient id="Nueva_muestra_de_degradado_19-2" x1="363.45" y1="170.23" x2="379.12" y2="163.07" xlink:href="#Nueva_muestra_de_degradado_19"/><linearGradient id="Nueva_muestra_de_degradado_19-3" x1="367.27" y1="163.97" x2="368.02" y2="163.63" xlink:href="#Nueva_muestra_de_degradado_19"/><linearGradient id="Nueva_muestra_de_degradado_19-4" x1="364.99" y1="179.47" x2="370.08" y2="177.15" xlink:href="#Nueva_muestra_de_degradado_19"/><linearGradient id="Nueva_muestra_de_degradado_19-5" x1="365.02" y1="178.45" x2="368.24" y2="176.98" xlink:href="#Nueva_muestra_de_degradado_19"/><linearGradient id="Nueva_muestra_de_degradado_19-6" x1="364.13" y1="177.07" x2="368.16" y2="175.23" xlink:href="#Nueva_muestra_de_degradado_19"/><linearGradient id="Nueva_muestra_de_degradado_19-7" x1="361.96" y1="175.98" x2="369.43" y2="172.57" xlink:href="#Nueva_muestra_de_degradado_19"/><linearGradient id="Nueva_muestra_de_degradado_19-8" x1="361.95" y1="174.58" x2="366.07" y2="172.7" xlink:href="#Nueva_muestra_de_degradado_19"/><linearGradient id="Nueva_muestra_de_degradado_19-9" x1="361.19" y1="173.21" x2="364.68" y2="171.62" xlink:href="#Nueva_muestra_de_degradado_19"/><linearGradient id="Nueva_muestra_de_degradado_19-10" x1="360.01" y1="172.18" x2="363.99" y2="170.36" xlink:href="#Nueva_muestra_de_degradado_19"/><linearGradient id="Nueva_muestra_de_degradado_19-11" x1="360.12" y1="170.48" x2="362.93" y2="169.19" xlink:href="#Nueva_muestra_de_degradado_19"/><linearGradient id="Nueva_muestra_de_degradado_19-12" x1="359.2" y1="168.89" x2="362.1" y2="167.56" xlink:href="#Nueva_muestra_de_degradado_19"/><linearGradient id="Nueva_muestra_de_degradado_19-13" x1="359.09" y1="167.08" x2="361.41" y2="166.02" xlink:href="#Nueva_muestra_de_degradado_19"/><linearGradient id="Nueva_muestra_de_degradado_19-14" x1="358.31" y1="165.69" x2="361.08" y2="164.42" xlink:href="#Nueva_muestra_de_degradado_19"/><linearGradient id="Nueva_muestra_de_degradado_11-5" x1="354" y1="163" x2="367.38" y2="156.89" xlink:href="#Nueva_muestra_de_degradado_11"/><linearGradient id="Nueva_muestra_de_degradado_41-2" x1="355.47" y1="164.12" x2="364.17" y2="160.15" xlink:href="#Nueva_muestra_de_degradado_41"/><linearGradient id="Nueva_muestra_de_degradado_12-30" x1="367.94" y1="158.2" x2="350.97" y2="174.12" xlink:href="#Nueva_muestra_de_degradado_12"/><linearGradient id="Nueva_muestra_de_degradado_15" x1="337.68" y1="140.55" x2="369.34" y2="140.55" gradientUnits="userSpaceOnUse"><stop offset="0" stop-color="#ffb806"/><stop offset="1" stop-color="#afaaa1"/></linearGradient><linearGradient id="Nueva_muestra_de_degradado_12-31" x1="361.1" y1="138.86" x2="356.74" y2="142.02" xlink:href="#Nueva_muestra_de_degradado_12"/><linearGradient id="Nueva_muestra_de_degradado_12-32" x1="353.37" y1="164.66" x2="387.22" y2="149.21" xlink:href="#Nueva_muestra_de_degradado_12"/><linearGradient id="Nueva_muestra_de_degradado_13-10" x1="383.11" y1="161.83" x2="370.03" y2="170.29" xlink:href="#Nueva_muestra_de_degradado_13"/><linearGradient id="Nueva_muestra_de_degradado_12-33" x1="378.45" y1="161.9" x2="380.52" y2="161.51" xlink:href="#Nueva_muestra_de_degradado_12"/><linearGradient id="Nueva_muestra_de_degradado_12-34" x1="376.16" y1="159.12" x2="378.63" y2="158.66" xlink:href="#Nueva_muestra_de_degradado_12"/><linearGradient id="Nueva_muestra_de_degradado_13-11" x1="365.83" y1="171.79" x2="369.23" y2="171.15" xlink:href="#Nueva_muestra_de_degradado_13"/><linearGradient id="Nueva_muestra_de_degradado_12-35" x1="368.5" y1="155.31" x2="369.6" y2="152.36" xlink:href="#Nueva_muestra_de_degradado_12"/><linearGradient id="Nueva_muestra_de_degradado_21" x1="371.64" y1="160.38" x2="357.88" y2="150.12" gradientUnits="userSpaceOnUse"><stop offset="0.03" stop-color="#893700"/><stop offset="1" stop-color="#e05a00"/></linearGradient><linearGradient id="Nueva_muestra_de_degradado_14-18" x1="359.64" y1="150.75" x2="359.7" y2="150.69" xlink:href="#Nueva_muestra_de_degradado_14"/><linearGradient id="Nueva_muestra_de_degradado_12-36" x1="367.46" y1="155.05" x2="366.7" y2="155.5" xlink:href="#Nueva_muestra_de_degradado_12"/><linearGradient id="Nueva_muestra_de_degradado_12-37" x1="250.48" y1="-21.07" x2="250.03" y2="-6.55" xlink:href="#Nueva_muestra_de_degradado_12"/><linearGradient id="Nueva_muestra_de_degradado_11-6" x1="94.68" y1="124.05" x2="93.82" y2="123.91" xlink:href="#Nueva_muestra_de_degradado_11"/><linearGradient id="Nueva_muestra_de_degradado_16-2" x1="4.48" y1="188.79" x2="123.55" y2="125.19" xlink:href="#Nueva_muestra_de_degradado_16"/><linearGradient id="Nueva_muestra_de_degradado_11-7" x1="196.74" y1="71.08" x2="196.77" y2="71.04" xlink:href="#Nueva_muestra_de_degradado_11"/><linearGradient id="Nueva_muestra_de_degradado_16-3" x1="292.36" y1="50.77" x2="117.82" y2="110.31" xlink:href="#Nueva_muestra_de_degradado_16"/><linearGradient id="Nueva_muestra_de_degradado_12-38" x1="314.07" y1="88.75" x2="157.09" y2="64.85" xlink:href="#Nueva_muestra_de_degradado_12"/><linearGradient id="Nueva_muestra_de_degradado_12-39" x1="146.86" y1="64.9" x2="145.43" y2="64.69" xlink:href="#Nueva_muestra_de_degradado_12"/><linearGradient id="Nueva_muestra_de_degradado_12-40" x1="321.36" y1="113.62" x2="172.63" y2="90.98" xlink:href="#Nueva_muestra_de_degradado_12"/><linearGradient id="Nueva_muestra_de_degradado_12-41" x1="130.58" y1="170.86" x2="129.83" y2="170.75" xlink:href="#Nueva_muestra_de_degradado_12"/><linearGradient id="Nueva_muestra_de_degradado_12-42" x1="330.97" y1="141.44" x2="187.65" y2="119.62" xlink:href="#Nueva_muestra_de_degradado_12"/><linearGradient id="Nueva_muestra_de_degradado_12-43" x1="257.69" y1="107.11" x2="298.4" y2="163.96" xlink:href="#Nueva_muestra_de_degradado_12"/><linearGradient id="Nueva_muestra_de_degradado_12-44" x1="135.41" y1="204.29" x2="159.26" y2="213.26" xlink:href="#Nueva_muestra_de_degradado_12"/><linearGradient id="Nueva_muestra_de_degradado_12-45" x1="176.59" y1="226.36" x2="177.43" y2="207.76" xlink:href="#Nueva_muestra_de_degradado_12"/><linearGradient id="Nueva_muestra_de_degradado_12-46" x1="228.17" y1="121.38" x2="255.67" y2="136.35" xlink:href="#Nueva_muestra_de_degradado_12"/><linearGradient id="Nueva_muestra_de_degradado_12-47" x1="275.46" y1="78.34" x2="211.58" y2="183.63" xlink:href="#Nueva_muestra_de_degradado_12"/><linearGradient id="Nueva_muestra_de_degradado_12-48" x1="321.4" y1="86.08" x2="305.17" y2="102.32" xlink:href="#Nueva_muestra_de_degradado_12"/><linearGradient id="Nueva_muestra_de_degradado_12-49" x1="247.87" y1="137.07" x2="259.27" y2="171.55" xlink:href="#Nueva_muestra_de_degradado_12"/><linearGradient id="Nueva_muestra_de_degradado_12-50" x1="212.06" y1="192.63" x2="213.89" y2="198.19" xlink:href="#Nueva_muestra_de_degradado_12"/><linearGradient id="Nueva_muestra_de_degradado_12-51" x1="169.48" y1="218.04" x2="170.21" y2="219.19" xlink:href="#Nueva_muestra_de_degradado_12"/><linearGradient id="Nueva_muestra_de_degradado_12-52" x1="176.41" y1="211.32" x2="186.2" y2="226.69" xlink:href="#Nueva_muestra_de_degradado_12"/><linearGradient id="Nueva_muestra_de_degradado_12-53" x1="345.66" y1="164.8" x2="310.74" y2="159.48" xlink:href="#Nueva_muestra_de_degradado_12"/><linearGradient id="Nueva_muestra_de_degradado_12-54" x1="344.07" y1="191.5" x2="355.01" y2="200.97" xlink:href="#Nueva_muestra_de_degradado_12"/><linearGradient id="Nueva_muestra_de_degradado_13-12" x1="299.23" y1="213.18" x2="310.06" y2="227.84" xlink:href="#Nueva_muestra_de_degradado_13"/><linearGradient id="Nueva_muestra_de_degradado_12-55" x1="200.28" y1="139.83" x2="221.23" y2="177.5" xlink:href="#Nueva_muestra_de_degradado_12"/><linearGradient id="Nueva_muestra_de_degradado_12-56" x1="192.73" y1="140.72" x2="213.68" y2="178.39" xlink:href="#Nueva_muestra_de_degradado_12"/><linearGradient id="Nueva_muestra_de_degradado_12-57" x1="199.23" y1="144.31" x2="220.18" y2="181.98" xlink:href="#Nueva_muestra_de_degradado_12"/><linearGradient id="Nueva_muestra_de_degradado_12-58" x1="205.72" y1="142.89" x2="226.67" y2="180.56" xlink:href="#Nueva_muestra_de_degradado_12"/><linearGradient id="Nueva_muestra_de_degradado_12-59" x1="210.32" y1="140.98" x2="231.27" y2="178.65" xlink:href="#Nueva_muestra_de_degradado_12"/><linearGradient id="Nueva_muestra_de_degradado_12-60" x1="185.18" y1="138.21" x2="205.76" y2="175.21" xlink:href="#Nueva_muestra_de_degradado_12"/><linearGradient id="Nueva_muestra_de_degradado_12-61" x1="186.21" y1="141.38" x2="207.4" y2="179.49" xlink:href="#Nueva_muestra_de_degradado_12"/><linearGradient id="Nueva_muestra_de_degradado_12-62" x1="184.58" y1="147.1" x2="200.79" y2="176.24" xlink:href="#Nueva_muestra_de_degradado_12"/><linearGradient id="Nueva_muestra_de_degradado_12-63" x1="208.31" y1="147.78" x2="224.51" y2="176.92" xlink:href="#Nueva_muestra_de_degradado_12"/><linearGradient id="Nueva_muestra_de_degradado_12-64" x1="196.69" y1="149.4" x2="212.89" y2="178.54" xlink:href="#Nueva_muestra_de_degradado_12"/><linearGradient id="Nueva_muestra_de_degradado_12-65" x1="186.88" y1="149.55" x2="203.09" y2="178.69" xlink:href="#Nueva_muestra_de_degradado_12"/></defs><g id="Layer_2" data-name="Layer 2"><g id="Capa_1" data-name="Capa 1"><path class="cls-1" d="M191.76,155.25s7.46,4.77,8.91,7.3,1.18,2.19.86,1.89-6.85-8.9-13.1-8.18c0,0,6.42,3.42,7.88,6.27s-3.9-5.29-10.81-5.57c0,0,5.4,3.77,5.69,5.93s-3.22-5.15-10.08-4.2c0,0,5.66,2.52,5.66,5s-3.12-6.36-11.26-3.79c0,0,5.71,1.27,7,4.9s-3.72-5.81-11.66-3.46c0,0,6.14,1.87,7.42,5.24s-4.75-5.87-12.95-4.76c0,0,6.85,2.73,9.07,6.27s-6.13-6.54-13.13-4c0,0,6.86,1.53,9,5.64s-4.08-5.95-11.63-4.24c0,0,7.49,3.27,8.83,7.16,1.34,1.13,2.17,2,2.17,2s-1,2.27-2.09-1.73c0-.08,0-.16-.08-.25-3.08-2.59-8.84-6.65-13.26-5.16,0,0,7.09,2.25,8.75,6.07l.24.52a20.39,20.39,0,0,1,1.94,2s-.47,1.19-1.94-2c-2.31-2.09-6.35-4.94-10.39-3.89,0,0,5.15,2.85,7.71,5.9s-3.14-4.59-10.26-2.48c0,0,5.48,2.06,7.45,4.57s2.78,3.47,2,2.51-9.07-8.54-15.23-5.75c0,0,6.29,1.71,9.6,6.35l.48.66c1.74,1.15,2.91,2.1,3,2.15.26.14-.14,1.65-3-2.15-3-2-7.84-4.69-11.79-4.4a23.76,23.76,0,0,1,7.19,5.43,56.38,56.38,0,0,1,4.73,4.46c.26-.07-2,3-3.23-1.69a7.83,7.83,0,0,0-1.5-2.77c-2.93-2.3-6.8-4.3-10.39-2.7,0,0,6.45,1.76,9.46,7s-3.49-5.51-11.58-5.39c0,0,6.52,4.61,7.75,6.84a6.92,6.92,0,0,0,1.49,2c.37.19.3.26,0,0-.75-.38-4.7-5.61-10.48-3.67,0,0,5.72,2.67,7.69,5.39s9.87.22,10.12.16l50.93-29S198.83,155.68,191.76,155.25Z"/><path class="cls-2" d="M132.73,187.14c.42.33,2.45,6.17,2.45,6.17l-6.68-4.4,1.27,5.16L125,190.86l.68,4.06-3.13-2.29.59,7.14v0a5,5,0,0,0-4.9-4.52l.5,3.81s-2.11-3.13-4.31-3.13c0,0,.85,4.82.42,5.33s.51-4.23-4.06-4l.34,4.82-3.89-4L107,202l-2.79-2.79-1,3.3-3.13-2.88-1.52,3.13-3.22-2.62-1.86,3.3-4.22-3.22-2.88,3.89-4.06-3.89L79.46,203l-3.81-3-3.72,2.71-2.79-3.89-3.55,2.45-1.78-3.38-4.06,2.45-1.27-3.89-4.65,2.11L51,194.83l-3.63,1.69s-1.95-3.3-3.13-3.21A37.87,37.87,0,0,0,38.81,195l49.1,14.9,40.37.45,18.49-4.06-5.67-15.81S132.31,186.8,132.73,187.14Z"/><path class="cls-3" d="M181.38,154.18l6.54,7.22,3-1.8C189.28,158.18,185.86,153.45,181.38,154.18Z"/><path class="cls-4" d="M184,150.69s7.6,4.92,7.88,8.31l2.78-1.7C192.71,155,189.18,150.62,184,150.69Z"/><path class="cls-5" d="M186.8,148.21s7.78,4.21,9.32,8.18l3.23-2A13.85,13.85,0,0,0,186.8,148.21Z"/><path class="cls-6" d="M190.63,144.94s8.19,3.95,9.78,8.83l5.78-3.53A21.45,21.45,0,0,0,190.63,144.94Z"/><path class="cls-7" d="M359.51,144.31c-.88,2.79-.81,2.35-.81,1.91s1.91-11.07-2.86-15.17c0,0,1.83,7,.73,10s1.25-6.45-3.22-11.73c0,0,.88,6.52-.51,8.21s1.61-5.86-3.74-10.26c0,0,2,5.86.15,7.55s2.56-6.6-4.84-10.85c0,0,2.93,5.06,1.1,8.43s1.76-6.67-5.35-10.92c0,0,2.78,5.79,1.17,9s1.1-7.47-5.28-12.75c0,0,2.64,6.89,1.54,10.92s.66-8.94-5.93-12.38c0,0,3.52,6.08,2,10.48s1.61-7-4.77-11.44c0,0,2.67,7.73.72,11.35.07,1.75,0,2.94,0,2.94s-2.35.81-.15-2.71l.13-.23c-.18-4-1.1-11-5.19-13.25,0,0,3.15,6.74,1.47,10.55l-.23.52a20.33,20.33,0,0,1-.14,2.78s-1.19.46.14-2.78c0-3.11-.66-8-4.17-10.27,0,0,1.39,5.72.88,9.68s1.25-5.43-5.13-9.24c0,0,2.2,5.43,1.69,8.58s-.66,4.39-.52,3.15.15-12.46-6.08-15.1c0,0,3,5.79,1.83,11.36-.06.29-.11.55-.16.8.33,2.07.43,3.56.46,3.67.06.28-1.32,1-.46-3.67-.57-3.6-1.86-8.94-4.75-11.65a23.72,23.72,0,0,1,.88,9,61.07,61.07,0,0,1-.07,6.5c.22.14-3.52.58-1-3.52a7.86,7.86,0,0,0,1-3c-.3-3.71-1.44-7.92-5.06-9.48,0,0,3.08,5.94,1.25,11.73s1.69-6.31-3.88-12.17c0,0,1,7.92.22,10.34a6.72,6.72,0,0,0-.44,2.41c.11.41,0,.41,0,0-.22-.8.95-7.25-4.4-10.18,0,0,1.9,6,1.25,9.3s6.52,7.41,6.74,7.55l55.84,17.81s1.69-9.82-2.78-15.32C358.85,132.8,360.39,141.53,359.51,144.31Z"/><path class="cls-8" d="M252.65,111.1s7.45,4.78,8.91,7.31,1.18,2.18.85,1.89-6.85-8.9-13.09-8.18c0,0,6.41,3.42,7.88,6.26s-3.9-5.28-10.81-5.57c0,0,5.39,3.77,5.69,5.94s-3.22-5.16-10.08-4.2c0,0,5.65,2.52,5.65,5s-3.11-6.36-11.25-3.79c0,0,5.7,1.26,6.94,4.9s-3.71-5.82-11.65-3.47c0,0,6.14,1.88,7.42,5.25s-4.75-5.87-13-4.76c0,0,6.85,2.73,9.07,6.27s-6.13-6.55-13.13-4c0,0,6.86,1.54,9.05,5.65s-4.08-6-11.64-4.24c0,0,7.49,3.27,8.84,7.16,1.33,1.13,2.17,2,2.17,2s-1,2.27-2.09-1.73a2.41,2.41,0,0,1-.08-.25c-3.09-2.59-8.84-6.65-13.27-5.17,0,0,7.1,2.25,8.76,6.07l.23.52a22.15,22.15,0,0,1,2,2s-.47,1.19-2-2c-2.3-2.08-6.34-4.93-10.38-3.88,0,0,5.15,2.84,7.71,5.9s-3.14-4.59-10.27-2.48c0,0,5.48,2.06,7.45,4.57s2.79,3.46,2,2.51-9.06-8.55-15.22-5.75c0,0,6.29,1.71,9.59,6.35l.49.66c1.74,1.15,2.9,2.1,3,2.15.25.14-.14,1.65-3-2.15-3-2-7.84-4.69-11.79-4.4a23.72,23.72,0,0,1,7.18,5.42,57.51,57.51,0,0,1,4.74,4.46c.26-.06-1.95,3-3.23-1.68a7.9,7.9,0,0,0-1.51-2.78c-2.92-2.29-6.79-4.3-10.39-2.69,0,0,6.45,1.75,9.47,7s-3.49-5.51-11.58-5.38c0,0,6.52,4.61,7.75,6.84a7.12,7.12,0,0,0,1.48,2c.37.19.31.26,0,0-.74-.39-4.69-5.62-10.47-3.67,0,0,5.71,2.67,7.69,5.39s9.86.22,10.12.15l50.93-29S259.72,111.54,252.65,111.1Z"/><path class="cls-9" d="M364,212.74s-5.9-.71-8.08-.24-3.5-1.44-5.28-.8-4.06,4.4-3.79,8.47c0,0,2.18-3.57,4.35-4.17,0,0,2.27,1.75,3.33,1.39a7.9,7.9,0,0,0,1.94-1s4.26,2.15,4.83,2.31,4.43,2.26,6,.39a3.69,3.69,0,0,0,.75-3.8Z"/><path class="cls-10" d="M302.63,200c-2.25-.67-18.13-30.89-18.13-30.89l-.84-39s-12.51,36.3-10.26,47.35,22.76,28.87,23.33,29.77-.14,12.63,2.95,12.4a12.3,12.3,0,0,0,5.76-2.25s2,1.57,5.62-.23-7-13.76-7-13.76S304.88,200.64,302.63,200Z"/><path class="cls-11" d="M308.28,129.65l-.17-.36a1.42,1.42,0,0,0-.08-.18c-.06-.1-.11-.21-.17-.32a1.62,1.62,0,0,0-.1-.18c-.05-.1-.11-.2-.17-.3l-.11-.18-.19-.29-.12-.18-.21-.28-.13-.17a3.36,3.36,0,0,0-.24-.29l-.12-.14-.38-.42h0a12.38,12.38,0,0,0-5.73-3.18c-14.46-3.87-24,8.69-24,8.69l-.8.44c-3.34,1.39-1.12,5.4-8.25,12.36s-12.11,34-12.34,41.05c0,.95-.09,2-.17,3.14a24.63,24.63,0,0,1-6.65-3.81c-7.24-5.62-14.19-3.51-14.19-3.51l-19.22-17.71s2.2-6,.48-7.11-4.72-.77-5.75,2.63a54.87,54.87,0,0,0-7.36-2.92c-8.31-2.87-14.26,14.06-14.26,14.06s6.18-5.11,8.42-.36S180.19,201,180.87,204.69s-.62,9.31-.62,9.31a27.55,27.55,0,0,0,5.68,1,18.48,18.48,0,0,0,4.56-.41,17.45,17.45,0,0,0,7.13,1,43.15,43.15,0,0,0,7.21-1.73,6.35,6.35,0,0,0,1.73.07c4-.3,15.64,6.63,15.64,6.63,0-2.3-2.39-4.66-5.07-6.8.58,0,1.24,0,2,0,5.64,0,14.78,4.88,14.78,4.88a13.48,13.48,0,0,0-6.38-6.95c-4.79-2.38-11.76-2.58-11.76-2.58s.08-.59-2.33-1.69a11.63,11.63,0,0,0-4.13-.08,1.34,1.34,0,0,1-.09-.26c-.51-2.46-4.21-1.61-4.21-1.61-8.43-.83-11.53,1.81-11.53,1.81s-1-6.29,1.62-11.56c1.73-3.49,8-15.47,12.06-23.17a7.76,7.76,0,0,1,3.5-1.07c.93,0,3.43,2.45,6.78,6.19l.83.93.16.18.39.45.14.15,1.41,1.63,0,0c3.56,4.11,7.68,9,11.74,13.65l.06.07,1.56,1.75,0,0,.7.78.12.14,1.48,1.64.09.09.63.69.14.15.7.75h0l.72.76.11.12.58.61.15.16.65.66,0,0,.67.68.14.13.52.52.16.16.6.58,0,0,.62.59.15.13.47.44.16.15.55.49,0,0,.57.49a1.79,1.79,0,0,1,.14.13c.15.11.29.23.43.35l.15.12.5.39,0,0,.52.38.13.1.37.26.14.09.45.28,0,0,.44.26.13.06.31.16.12.06.39.16h0a2.65,2.65,0,0,0,.37.12l.1,0,.26.06h.1a1.22,1.22,0,0,0,.33,0c2.74,0,6-2.47,9-5.47,3.3-1.76,7.21-4.53,9.07-7.32,3.51-5.25,8.46-6.22,13.66-10.31s20.33-32.89,23.53-37.26c.09-.12.18-.26.27-.4l0,0,.28-.45,0-.05c.09-.16.18-.32.27-.5l.05-.07.27-.54.05-.09q.14-.28.27-.6l0-.09c.1-.21.19-.42.28-.64l0-.09c.09-.23.19-.46.28-.7l0-.06c.2-.51.39-1.05.56-1.61l0,0c.09-.27.17-.54.25-.82l0-.09c.08-.27.15-.55.22-.83l0-.11c.07-.28.14-.56.2-.84l0-.12.18-.86s0-.08,0-.12c.06-.3.11-.59.15-.89,0,0,0-.06,0-.1.05-.3.09-.61.12-.91v-.07a17.79,17.79,0,0,0-.94-8.82Z"/><path class="cls-12" d="M368,117.39s3,3.45.53,5.33-6.79-.75-6.79-.75-2.43-69.8-72.62-105.66c-.68-4.17-3-9.4-9.93-12.59,0,0,4.41,5.09,2.38,9-1.48-.66-3-1.31-4.54-1.94C195-22.83,95.4,29.85,64.28,64.45c0,0,12.23-9.24,30.8-20.28,12.56-5.79,27.92-10.88,38.23-7.49,7.6,2.49,5.09,10.4-1,19.3C115.67,71.32,98.23,89.57,94.94,96.67c0,0,8.55-8.79,19.79-19.42,30.92-24.12,63-28.58,59.71-20.65-1.37,3.27-5.7,8.58-10.66,14-7.11,3.48-12.78,6.81-15.86,9.23-11.71,9.15-20.77,53.35-18,57.37.35.51.63.91.84,1.23.19-1.29,2.64-17,7.81-27.74.46-.94.89-1.86,1.3-2.75,23.39-19,80.34-23.42,112.21-17.09l1.94.4c1.53.32,3,.66,4.35,1h0c15.3,3.76,20.24,8.21,19.69,12.67h0a6.6,6.6,0,0,1-.28,1.19h0a9.35,9.35,0,0,1-.39.94h0l-.12.23v0c-.16.31-.35.61-.55.92l0,0c0,.07-.1.15-.16.22h0c-.16.23-.34.47-.52.7h0l-.18.21,0,0c-.26.3-.53.6-.82.89l0,0-.2.21-.05,0c-.29.29-.6.58-.92.87l-.06,0-.22.2-.06,0-.73.62-.06,0-.23.19-.08.06-.24.19-.05,0-.79.6-.09.07-.24.17-.1.08-.24.17,0,0-.54.39-.07.05-.25.16-.11.08-.24.17-.12.07-.83.55-.11.07-.25.16-.14.08-.24.16-.13.08-.54.33,0,0-.26.16-.14.08-.24.15-.15.09-.25.14-.12.08-.49.28-.13.08-.25.15-.15.08-.25.14-.14.09-.86.48-.16.09-.25.13-.15.09-.25.13-.14.08-.58.32h0l-.28.15-.12.07-.28.15-.11.06-.29.15c-3.93,2.08-7.75,3.89-10.46,5.3l12.47,0,15.23,0c2.81,4.52,7.41,9.4,12,11,8,2.85,14,1.11,14,1.11s-13.26-20.84,6.95-35.08,52.36,3,47.29,21.34c0,0,5.66,2.76,8.35,2.5s5.49-3.94,4.16-6.32S368,117.39,368,117.39Z"/><path class="cls-13" d="M130.72,138.52s1.45,2,0-.08Z"/><path class="cls-14" d="M234.49,184.18c-3.38,2.7,6.54,9.24,6.54,9.24s4.51-.67,11.73,2.26,15.78,1.8,15.78,1.8a34.51,34.51,0,0,0,15.34.23c8.34-1.81,16.46-13.08,16.46-13.08L266.74,170C260,170.65,237.87,181.47,234.49,184.18Z"/><path class="cls-15" d="M389.19,217.34c-2-1.05-7-1.85-8.4-2.78s-3.67-.8-4.23-.8-1,.12-1.52-.25a5.8,5.8,0,0,0-3.5-.31C370,213.45,366,212,366,212c-.85-.93-5.92-1.17-5.92-1.17a11.31,11.31,0,0,0-1.41,1.36c-.56.67,1.18,3.64,3.27,4.38a46.62,46.62,0,0,0,7.05,1.3s2.82-.06,3.66.68,5.3-.19,5.3-.19a10.56,10.56,0,0,0,3.1,1.3,11.6,11.6,0,0,0,3.84.12s0,.62,2,.68,5.52,2.23,5.52,2.23A5.69,5.69,0,0,0,389.19,217.34Z"/><path class="cls-16" d="M379.63,219.65c-1.55-1-5.47-1.81-6.57-2.71a5.21,5.21,0,0,0-3.31-.78c-.44,0-.79.12-1.19-.25a3.68,3.68,0,0,0-2.73-.3c-1.19.24-4.37-1.14-4.37-1.14-.66-.9-4.63-1.14-4.63-1.14a10.29,10.29,0,0,0-1.1,1.32c-.44.66.93,3.55,2.56,4.27a29.27,29.27,0,0,0,5.51,1.27s2.2-.06,2.87.66,4.14-.18,4.14-.18a7.57,7.57,0,0,0,2.42,1.26,7.3,7.3,0,0,0,3,.12s0,.6,1.59.66,4.32,2.17,4.32,2.17A5.82,5.82,0,0,0,379.63,219.65Z"/><path class="cls-17" d="M366.75,211.78c-2.26-1.85-11.16-14.82-11.61-15.07l-4.63,4.2s-.9,4.94,1.47,6.8,2.7,5.8,4.28,8.77,3.05.25,6.09-.87,2.26-.24,3.16-1.48S369,213.64,366.75,211.78Z"/><path class="cls-18" d="M38.7,195.09l.11-.05-.16,0Z"/><path class="cls-19" d="M35.74,189.84c-.51,0-5.16,1.95-5.16,1.95l-1.27-4.06L25.59,191l13.06,4C38.32,194.29,36.2,189.84,35.74,189.84Z"/><path class="cls-20" d="M123.09,199.82v0Z"/><path class="cls-21" d="M190.88,159.6c.61.54,1,.6,1-.34a2.17,2.17,0,0,0,0-.26Z"/><path class="cls-22" d="M194.64,157.3c1.16,1.38,1.74,2,1.74.38a3.8,3.8,0,0,0-.26-1.29Z"/><path class="cls-23" d="M200.41,153.77l-1.06.65c1.31,1.87,1.51,2.88,1.31.55A5.13,5.13,0,0,0,200.41,153.77Z"/><polygon class="cls-24" points="294.36 119.57 290.42 109.65 288.72 124.08 297.63 123.29 300.34 122.5 294.02 109.98 294.36 119.57"/><path class="cls-25" d="M37.17,140.43l-14.09.11-6.43,2.93s-9.81,8.57-10,10.15-3.5,21.54-3.5,21.87l10.94,13s14.77,8.12,18.15,8.91,6.2-3.27-2.93-6.32S5.6,167.71,10,166.25c3.39-1.13,7.31,4.9,8.93,7.73C11.34,158.19,37.17,140.43,37.17,140.43Z"/><path class="cls-26" d="M239.59,122.61c-35.47,17.6-104.21,85.89-155.84,80.76C-.49,195,2.26,163.52,10,151.7s22.63-12.59,28.13-11.21c0,0-30.22-11.68-37.65,26.27s81,52.1,122.82,49.08,110.28-25.58,110.28-25.58,38,7.43,46.2,6.05,16-19.8,30.89-20.07c0,0,16-35.2,5.32-39.05l8.34-12.38C324,124,275.07,105,239.59,122.61Z"/><path class="cls-27" d="M250.09,193.24c-2.2-19-6.63-41.17-6.63-41.17s-50.73,36-113.65,52.77c-47.95,12.76-97.68-4.55-118.61-13.5,24.05,19.49,81,26.75,112.06,24.5,41.81-3,110.28-25.58,110.28-25.58S241,191.73,250.09,193.24Z"/><path class="cls-28" d="M174.26,172.45c-1.16.58-11,29.54-13.73,37.61,7.08-1.5,14.18-3.17,21-4.89l4.88-23.25,25,15.12c13.25-3.87,22.08-6.78,22.08-6.78s4.87,1,11.5,2.11l10-9.1S175.61,171.77,174.26,172.45Z"/><path class="cls-29" d="M289.94,178.09l6.4,4.4a26.52,26.52,0,0,1,9.6-5.54c-.35-16.37-1-43.45-1.45-44.87C303.81,130.05,289.94,178.09,289.94,178.09Z"/><path class="cls-30" d="M279.12,145.28C279.12,133.44,273,129,273,129S248,161.17,246,164.22s-11.84,18.26-11.5,22a41.38,41.38,0,0,0,.7,4.36c5.91,1.13,26.53,5,38.1,5.76l-.91-35.49S279.12,157.12,279.12,145.28Z"/><path class="cls-31" d="M346.25,136.77c-5-3.79-15.28-1.83-18.7-2.57s-22.86,4.77-25.06,11.49,6.12,27.14,6.12,27.14c5.86.85,8.18-13.81,8.18-13.81,2.45-2.33,1.84-6.6,1.84-6.6,1.95-.74,2.93-4.16,2.93-4.16,3.91,0,4.4-2.2,7.95-1.47s2.2-1.1,4.52.37,3.06-.24,4.77,1.22,3.79-.36,5.37,1.47,4,1.34,4.4,1.71,5.14,1.59,5.26,1.22l-.73-10.14C351.26,141.29,351.26,140.56,346.25,136.77Z"/><path class="cls-32" d="M346,151.05c1.07.35,2.07.29,2.45.45l-.52-5Z"/><path class="cls-33" d="M311.51,146c.39.38,6,11.59,2.61,9.55-.31-.18-4.59-3-6.88-4.55,2.27,1.64,6.37,5.24,5.3,9.17L304.48,157s8.71,6.6,6,10.32a5.46,5.46,0,0,1-3.08,2.36c.71,1.92,1.2,3.12,1.2,3.12,5.86.85,8.18-13.81,8.18-13.81,2.45-2.33,1.84-6.6,1.84-6.6a3.22,3.22,0,0,0,.55-.29C316.54,150,311.77,146.26,311.51,146Z"/><path class="cls-34" d="M311.51,146h0Z"/><path class="cls-35" d="M307.24,151c-.82-.6-1.41-.94-1.41-.94Z"/><path class="cls-36" d="M325,142.23c-2,.31-1.33,3.28-.54,5.52a12.23,12.23,0,0,1,3.13-1.08C327.31,144.28,326.61,142,325,142.23Z"/><path class="cls-37" d="M331.18,147c1.31-.06,1.09-.78,2.34-.11-.83-2.86-1.72-5.9-1.72-5.9A38.51,38.51,0,0,0,331.18,147Z"/><path class="cls-38" d="M341.33,149a3.75,3.75,0,0,1,2.21.32l.35-4.29A7.72,7.72,0,0,0,341.33,149Z"/><path class="cls-39" d="M335.78,147.79c1.11.09,1.82-.43,3,.59a.1.1,0,0,0,.05,0l-.46-5.34S336,145.45,335.78,147.79Z"/><path class="cls-40" d="M320.14,151.18a10.18,10.18,0,0,0,1.42-2.92,9.07,9.07,0,0,0,1.35-.1c-2.37-1.86-5.56-4.29-6.08-4.24C316.14,144,318,148.93,320.14,151.18Z"/><path class="cls-41" d="M310.11,120.81a7.86,7.86,0,0,1-1,3c-2.57,4.1,1.17,3.66,1,3.52A61.07,61.07,0,0,0,310.11,120.81Z"/><path class="cls-42" d="M314,123.49c-.86,4.69.52,4,.46,3.67C314.41,127.05,314.31,125.56,314,123.49Z"/><path class="cls-43" d="M302.2,123.64c0,.41.11.41,0,0Z"/><path class="cls-44" d="M329.46,126.94c-2.2,3.52.15,2.71.15,2.71s.05-1.19,0-2.94Z"/><path class="cls-45" d="M325.5,127.31a20.33,20.33,0,0,0,.14-2.78C324.31,127.77,325.5,127.31,325.5,127.31Z"/><path class="cls-46" d="M218.41,140c-.1,0-1.26-1-3-2.15C218.27,141.6,218.66,140.09,218.41,140Z"/><path class="cls-47" d="M207.53,146.57c.31.26.37.19,0,0Z"/><path class="cls-48" d="M215.54,143.28a57.51,57.51,0,0,0-4.74-4.46,7.9,7.9,0,0,1,1.51,2.78C213.59,146.27,215.8,143.22,215.54,143.28Z"/><path class="cls-49" d="M224.07,129.92c1.48,3.18,2,2,2,2A22.15,22.15,0,0,0,224.07,129.92Z"/><path class="cls-50" d="M228.35,128.5a2.41,2.41,0,0,0,.08.25c1.09,4,2.09,1.73,2.09,1.73S229.68,129.63,228.35,128.5Z"/><path class="cls-51" d="M154.65,187.43a56.38,56.38,0,0,0-4.73-4.46,7.83,7.83,0,0,1,1.5,2.77C152.7,190.41,154.91,187.36,154.65,187.43Z"/><path class="cls-52" d="M157.52,184.09c-.09-.05-1.26-1-3-2.15C157.38,185.74,157.78,184.23,157.52,184.09Z"/><path class="cls-53" d="M146.65,190.71c.3.26.37.19,0,0Z"/><path class="cls-54" d="M167.46,172.64c0,.09.06.17.08.25,1.1,4,2.09,1.73,2.09,1.73S168.8,173.77,167.46,172.64Z"/><path class="cls-55" d="M163.19,174.07c1.47,3.17,1.94,2,1.94,2A20.39,20.39,0,0,0,163.19,174.07Z"/><path class="cls-56" d="M361.77,145.42c-12.38-17.43-26-21.23-26-21.23a154.71,154.71,0,0,0-39.36-5.6l6.16,33.86s2.53-12.65,18.47-13.31,42.21,16.71,42.21,16.71l-1.21-10Z"/><path class="cls-57" d="M347.89,130.88a11.39,11.39,0,0,0-.36,1.12c-1.52,6-19,5.92-19,5.92l4.18,3a100.67,100.67,0,0,1,15.71,6.42c1.94-1.37,5.84-4.34,9.25-7.24A62.8,62.8,0,0,0,347.89,130.88Z"/><path class="cls-58" d="M340.51,141.64a8.33,8.33,0,0,0-8.38-3s-6.93-3.8-11.83-1.27c0,0-6.77-2.2-10,2.45,0,0-6.94,1.27-8.38,8,0,.16-.06.31-.08.47l.74,4.08s2.53-12.65,18.47-13.31c5.92-.24,13.26,2,20.16,4.92l10.35,2.49S344.31,140.88,340.51,141.64Z"/><path class="cls-59" d="M375.32,163a6.63,6.63,0,0,0-1.94-1.08s-5.58-1.48-7.86-1.94-1.14-.06-2.22.51-1.14,1.71.17,2.34,3.3-.8,3.3-.8l-2.16,2,3.13-.91-2.05,1.43c1.48.22,3.42-1.2,3.42-1.2l-2.22,2.28a1.94,1.94,0,0,0,2.31-.62l-1.52,2.1c1.74-.14,2.33-1.59,3-2.52a5,5,0,0,0-.28,1.21c-.28,2.34-3.64,4.67-3.64,4.67,3.75-.06,4.78-2.68,6-3.42s.11.69.11,1-2.79,2.79-2.79,2.79a3.82,3.82,0,0,0,3.25-1.37l-2,3.42c1.6,0,3.25-2.28,3.25-2.28l.45,1.31L373,174.23c1.65-.12,3.19-1.94,3.19-1.94l.23.51-2.17,3.25,3.7-1.77s.46.57.46.74a32.26,32.26,0,0,1-2.39,2.51,7.72,7.72,0,0,0,4.27-1.77l-1.82-10A26.73,26.73,0,0,0,375.32,163Z"/><path class="cls-60" d="M357.51,164.15s1.82,8.6,2.45,4.45,7.91-7.52,8.2-7.58l-4.44-2.73Z"/><path class="cls-61" d="M359.33,162.05l-2.73-2.11s-7.35,3.36,2.73,7.4,9.28,11.11,9.28,11.11.69-2.79-1.08-7.69S359.33,162.05,359.33,162.05Z"/><path class="cls-62" d="M366,178c.42-.38-.23,0-.07-1.07s-.65.31-.69-1.25-1.63-.72-1.59-1.67-1.07-.61-1-1.33-.57-.27-.76-1.06a6.33,6.33,0,0,0-.38-1.52c-.41-1.22-.26.07-.41-1.22s-.95-.91-1-2.05-.76-.19-.76-1.71.27-2.58-.26-2.77-.76-.72-1.11-.34-1.59.65-1.48,2.35-.57,3.16.57,5.24a46,46,0,0,1,2.05,4.94c.46.95.42,2.2,2.17,3.23l6.34,3.3.27-1.93S365.59,178.34,366,178Z"/><path class="cls-63" d="M368.83,163.69a3.53,3.53,0,0,1,.35-.45C369.81,162.62,369.24,162.56,368.83,163.69Z"/><path class="cls-64" d="M373.51,162.1a6.53,6.53,0,0,0-1.93-1.08s-5.59-1.48-7.86-1.94-1.14-.05-2.23.52-1.14,1.71.17,2.33,3.31-.8,3.31-.8l-2.17,2,3.14-.91-2.05,1.42c1.48.23,3.41-1.2,3.41-1.2l-2.22,2.28a1.94,1.94,0,0,0,2.32-.62l.42-.57a3.48,3.48,0,0,1-.42.57l-1.52,2.1c1.73-.14,2.33-1.59,2.95-2.51.41-1.13,1-1.07.35-.45a3.53,3.53,0,0,0-.35.45,5.53,5.53,0,0,0-.27,1.2c-.29,2.34-3.65,4.67-3.65,4.67,3.76-.05,4.79-2.67,6-3.41s.12.68.12,1-2.79,2.79-2.79,2.79a3.79,3.79,0,0,0,3.24-1.36l-2,3.41c1.59,0,3.25-2.27,3.25-2.27l.45,1.31-1.94,2.33c1.66-.11,3.19-1.94,3.19-1.94l.23.52-2.16,3.24,3.7-1.76s.46.57.46.74a34,34,0,0,1-2.4,2.5,7.72,7.72,0,0,0,4.28-1.76l-1.83-10A26,26,0,0,0,373.51,162.1Z"/><path class="cls-65" d="M367.82,163.53l-.42.57A3.48,3.48,0,0,0,367.82,163.53Z"/><path class="cls-66" d="M365.44,179.4l1.67.53s2.05-.76,1.56-3.57C368.67,176.36,367.57,179.06,365.44,179.4Z"/><path class="cls-67" d="M366.16,178.64a3.47,3.47,0,0,0,1.26-2,10.06,10.06,0,0,1-2.21,1.55Z"/><path class="cls-68" d="M364.47,177l.84.73a3.44,3.44,0,0,0,1.71-3.15S365.57,176.81,364.47,177Z"/><path class="cls-69" d="M362.38,175.35l2.45,1.11a7.1,7.1,0,0,0,2.64-4.79S364.68,175.18,362.38,175.35Z"/><polygon class="cls-70" points="363.09 174.81 365.08 172.41 362.04 173.92 363.09 174.81"/><path class="cls-71" d="M362.46,173.1l1.6-1.26a4.64,4.64,0,0,0-2.71,1Z"/><path class="cls-72" d="M360.3,172l1.51-.15,1.56-1S361,170.62,360.3,172Z"/><path class="cls-73" d="M360.13,169.91l1.08.74,1.48-.71A1.79,1.79,0,0,0,360.13,169.91Z"/><path class="cls-74" d="M359.13,168.14l1.4,1s1.45-.68,1.36-.68S360.3,167.26,359.13,168.14Z"/><path class="cls-75" d="M359.1,166.63l.49.66,1.59-.72S360.61,165.83,359.1,166.63Z"/><path class="cls-76" d="M358.36,165.24l.88.65,1.6-.74S359.27,164,358.36,165.24Z"/><path class="cls-77" d="M354.17,160.59s4.44,10.38,4.58,5.94,7.17-6.76,7.17-6.76l-8.74-4.85Z"/><path class="cls-78" d="M361.89,159.51s-3.47-.31-4.73,1.25A6.07,6.07,0,0,0,355.8,163l2.33,2.74s-.28-2.48,2.71-4.33-1.68-.83-2.79.77-1.14.48-1.14.48a4.31,4.31,0,0,1,3.33-2.53C363,159.54,361.89,159.51,361.89,159.51Z"/><path class="cls-79" d="M362.55,174.28c-1.54-2.6-2.28-5.2-3.1-6.74s-1.4-10.91-1.31-11.16l-4-8.38s-5.37,2.74-3.82,11.37,4.43,10.52,6.43,13.63a26.54,26.54,0,0,1,3.34,7.36c.39,1.48-2,3.1-2,3.1a13.07,13.07,0,0,0,7.05-.54c3.28-1.39,3.56-2.2,3.56-2.2l-2-.58A60,60,0,0,1,362.55,174.28Z"/><path class="cls-80" d="M366.36,141.27v-.35a2.84,2.84,0,0,1-3.05-3.18c0-3.3,1.77-6.66,3.41-9.38-1.62,2.06-7.33,7.83-15.68,5.74,0,0,1.85,8.11-9.21,7.4,0,0,6.2,8.59-4.16,10.24,0,0,19.56-.39,26.91.79s4-2.91,4-2.91Z"/><path class="cls-81" d="M360.58,148.6s-10.71-5.54-18.3-6.68c0,0,11,5.54,12.38,7.75l.21.31c-3.74-.3-10.52-.44-15.33,1.73,3.92,0,13.25-.1,20,.32l5.12-5.55L351.05,134.1Z"/><path class="cls-82" d="M382.34,166.65s-4.09-5.74-4.89-6.21-1.13-2.31-2.25-3-1.76-2.44-2.53-2.71,1.73-.27-.05-4.06c-1.63-3.47-8.53-17.51-5.69-22.53-2.33,2.76-7.63,10.19-5,18.16,0,0-7.27-2.11-9.74,3.4s2.91,8.89,6,9.39,9.45,4.69,11.75,8.66,4.06,5.83,6.87,7.47,1.79,8.23,1.79,8.23,8.95-14.26,6.76-23C385.34,160.46,384.6,165.12,382.34,166.65Z"/><path class="cls-83" d="M382.3,170.86s-.3-6.16-3.64-6.27-.34,5.77-.34,5.77-3.46-1-5-.45-2.09-3.27-4.63-6-4.1-2-5.89-3.83a4.48,4.48,0,0,0-4.29-1.1l.13.2c3.24.81,9.08,4.8,11.26,8.56,2.29,4,4.06,5.83,6.87,7.47s1.79,8.23,1.79,8.23,8.8-14,6.81-22.79C385.28,162.63,384.74,169,382.3,170.86Z"/><path class="cls-84" d="M379.38,167.15c-1.33-.51-.23,2.62-.23,2.62s.7-.66,1.88.88C381.07,170.69,380.71,167.67,379.38,167.15Z"/><path class="cls-85" d="M374.05,163.36s.86-2.2,3.65-.37C377.7,163,374.37,159.57,374.05,163.36Z"/><path class="cls-86" d="M372,159c-2.11,1.08-.94,1.42-.94,1.42s2.34-1.79,4.16,0C375.25,160.34,374.14,157.89,372,159Z"/><path class="cls-87" d="M361.61,175.32c-1.37-3.48-1.94-4.56-3-5.93s-1.09-4.95-1.09-4.95-.57,4.38.69,5.92a15.77,15.77,0,0,1,2.62,6.72c.34,2.28,5.07,3.59,5.07,3.59A12.21,12.21,0,0,1,361.61,175.32Z"/><path class="cls-88" d="M367.49,155.93c-1.12.76-1.21.65-1.21.65a2.34,2.34,0,0,0,1.94,1s1.63-.87,1.72-1.48-1.61-3.42-1.61-3.42S368.61,155.17,367.49,155.93Z"/><path class="cls-89" d="M364.54,153.82c-1.65-1.17-2.13-.6-2.76-1.2s-.57-1.65-1.31-1.74a5.35,5.35,0,0,1-.56-.08c.41.13.91.37,1,.82.08.77.4,2,1.39,2.39s1.54,1.77,2.25,2.34a8,8,0,0,0,2.37,1A7.38,7.38,0,0,0,364.54,153.82Z"/><path class="cls-90" d="M359.91,150.8a3.46,3.46,0,0,0-.52-.12A3.53,3.53,0,0,0,359.91,150.8Z"/><path class="cls-91" d="M362.12,155.61a4.1,4.1,0,0,0,1.48,2c1.1.74,3.59.19,3.59.19a16.48,16.48,0,0,1-2.75-.47A5.29,5.29,0,0,1,362.12,155.61Z"/><path class="cls-92" d="M244,5.75s10,7.27.17,12.68,2.53,8.46,3,8.63L257.89,22S257.89,8.62,244,5.75Z"/><path class="cls-93" d="M96,119.83q-2.82,3.83-5.47,8S92.82,124.67,96,119.83Z"/><path class="cls-94" d="M265.72,21.14l-55-7.43s-63.81,17.05-65.18,17.6-33,20.08-42.35,25.58-47.85,45.92-47.85,45.92,32.72-34.1,53.9-32.17c16.11,1.46-3.11,33.79-13.23,49.19,25.33-34.53,59.32-48,57.78-39-1.65,9.63-21.73,39.33-21.73,39.33l-4.4,24.75c12.93-26.95,74.18-47.06,109.46-48.13,53.35-1.62,17.58,24,6,33.83l42.62-9.9s4.4-25.58,5.5-28a20.29,20.29,0,0,1,12.38-10.45c7.7-2.48,35.2,1.37,35.2,1.37V78.34L313,49.19Z"/><path class="cls-95" d="M196.86,71.08l-.23,0Z"/><path class="cls-96" d="M265.72,21.14l-55-7.43s-20,5.35-37.89,10.16c25.62.55,50.63,2.87,63.37,9.14,32,15.73,38.56,23.34,38.56,23.34L209.31,40.11c-2-.5-49.72,12.69-49.72,12.69s71-3,91.33,22.32l-54.06-4c2.66.22,27.72,2.88,42.23,25.63,40.17-.73,26.2,15,13.08,26.36,1,1.64,2.06,3.21,3.15,4.69l30.47-7.07s4.4-25.58,5.5-28a20.29,20.29,0,0,1,12.38-10.45c7.7-2.48,35.2,1.37,35.2,1.37V78.34L313,49.19Z"/><path class="cls-97" d="M356.09,96.56s3.67,2.69,1.71,5.07-6.78.79-6.78.79S331,27.39,243.49,13.09,70.76,72.5,48.2,113.2c0,0,64.35-76.78,124.85-87.05s100.48-14.3,158.41,54.27c0,0-22.85-4-37.52,6.36,0,0-2.94-1.59-3.55,1.71S284,101.2,279.27,105.24,266.92,113.3,266,117s9.9,14.42,18.33,15.4,13.89-2.06,13.89-2.06-17.6-17.32-1.1-35.75,51.7-8.8,50.87,10.18c0,0,6.14,1.41,8.7.56s4.46-5.08,2.63-7.09S356.09,96.56,356.09,96.56Z"/><path class="cls-98" d="M144.57,65.24c1.06.08,5.11-2.25,0,0Z"/><path class="cls-99" d="M137.39,59.25c-8.8,4-49.14,64.53-52.07,78.47,0,0,37.77-62.34,53.17-69.67,2.8-1.33,4.75-2.23,6.08-2.81-.19,0-.28-.11-.21-.31.55-1.65,47.85-21.27,58.12-20.72s8.07,0,10.27.55S273.8,63.83,290.3,69.51s21.45,12.1,21.45,12.1l20,.92,8.43-.55S240.06,39.81,213.66,37.25,146.19,55.21,137.39,59.25Z"/><path class="cls-100" d="M129.58,170.38v.08S131.47,172.13,129.58,170.38Z"/><path class="cls-101" d="M210.44,66.24c-25.57-1.1-67.93,31.62-77.28,43.17s-8.25,56.65-4.67,60l1.09,1c-.1-1.3-1.25-17.19,1.38-28.79,2.75-12.1,3.3-20.63,5.5-23.1s2.2-3.85,2.2-3.85,37.51-30.55,54.93-37.7a42.53,42.53,0,0,1,8.25.92c4,.91,8.25-1.47,8.25-1.47s41.8,2.75,61.24,5.5,20,6,21.26,6.42,10.09-2.94,10.09-2.94l17.21-4.83C319.89,79.71,236,67.34,210.44,66.24Z"/><path class="cls-102" d="M354.56,195.11c-1.28-.61-2.1.9-3.57-.31s-22-5.42-30.25-9.24-22.85-6.81-22.85-6.81-.27-2.41,1.93-6,9.35-38.57,7.42-45.2-11.55-5.73-11.55-5.73l-.13.42c-4.77,0-4.77,6-8.68,16.74s-1.47,18-1.47,18l-2.17,28.16s-1.74,4.12-1,5.73,3.58,2.71,10.09,2.81,54.63,9.34,56.38,9.84,1.46,3.22,3.11,2.72,7.06-3.32,5.78-5.23S355.85,195.71,354.56,195.11Z"/><path class="cls-103" d="M202.41,218.51c-5.07-1.69-12-.93-12-.93s0-.59-2.53-1.35-21.9,5.83-21.9,5.83l-5.59,1.19,2.54,2.36s5.67,2,10.4.85,12.26-5.75,13.7-5.24,1.78,1.26,7.36.5,15.3,2.79,15.3,2.79A13.42,13.42,0,0,0,202.41,218.51Z"/><path class="cls-104" d="M183.64,216.48c-.85-2.37-4.4-1-4.4-1-8.45.33-11.16,3.38-11.16,3.38s-1.86-6.09,0-11.67,11.33-31.8,11.33-31.8l-1.18-5.75s0-.68-8.63-2.37-12.18,15.9-12.18,15.9,5.42-5.92,8.29-1.52S154,214.45,155.23,218s.67,9.3.67,9.3a27.52,27.52,0,0,0,5.75.17c4.06-.17,14.72-5.24,15.22-5.41s1.19,2.37,5.08,1.52,16.4,4.4,16.4,4.4C197.51,222.74,184.48,218.85,183.64,216.48Z"/><path class="cls-105" d="M245.09,121.82c-11.61,10-15.67,12.41-16.8,17.59S233,150.69,233,150.69l32.7,6c1.92-.22,9.25-.67,12.41-9.92s-1-18.94-3.16-24.8S256.7,111.79,245.09,121.82Z"/><path class="cls-106" d="M262.3,120.76c-14.85-1.83-22.55,11.92-22.55,11.92l-.73.55c-3.12,1.83-.37,5.5-6.47,13.38S225.26,182,226,189c.1,1,.19,2,.27,3.14a24.29,24.29,0,0,1-7.11-2.85c-7.95-4.57-14.55-1.52-14.55-1.52l-21.48-14.89s1.35-6.25-.51-7.1-5.24,0-5.41,4.23-5.58,9.47-4.9,12.18,2.2,2.93,2.2,2.93a9.38,9.38,0,0,1,5.63-4.06c3.61-.68,37.21,34.5,44.43,33.37,2.71-.42,5.59-3.27,8.12-6.66,3-2.19,6.51-5.47,8-8.5,2.75-5.68,7.51-7.33,12.1-12.1s15.58-35.39,18.15-40.15S277.15,122.59,262.3,120.76Z"/><path class="cls-107" d="M260.87,149.34c.09-.49,6.78-14.74,10.52-22.66a10.94,10.94,0,0,0-3-3.57c-3.7,6.46-10.75,19.11-14.31,27.69-5,11.95-10.6,30.44-10.6,30.44s-.45-6.31-1.58-16.46,4.51-18.26,4.51-18.26S234,161.4,234,173.58s4.85,16.35,3.38,20.41-4.28,5.75-4.85,5.75-4.28-2.37-7.78.56S222,208,222,208L187.7,186.2c11.33,9.59,31.47,29,36.87,28.19,2.71-.42,5.59-3.27,8.12-6.66,3-2.19,6.51-5.47,8-8.5,2.75-5.68,7.51-7.33,12.1-12.1s15.58-35.39,18.15-40.15c1.2-2.24,2.65-7.74,2.31-13.15C268.6,139.63,260.79,149.82,260.87,149.34Z"/><path class="cls-108" d="M245.71,157.12l8.79-26.56S244.53,143.75,245.71,157.12Z"/><path class="cls-109" d="M216.37,194.16l-8-1C212.56,196.78,216.37,194.16,216.37,194.16Z"/><path class="cls-110" d="M170.67,217.21h0a8.7,8.7,0,0,0-2.5,1.55Z"/><path class="cls-111" d="M167.06,205.94l3.5-17.48-7.44,21.31,1.69,11,3.26-2c-.14-.46-1.78-6.28,0-11.63,1.18-3.54,5.41-15.35,8.35-23.53l-2.26-1.39Z"/><path class="cls-112" d="M320.74,185.56c-8.25-3.82-22.85-6.81-22.85-6.81s-.27-2.41,1.93-6,9.07-37.24,7.52-44.79l-6.89,9.1,5.73-11.68a7.28,7.28,0,0,0-1-1.11c-3.18,2.47-8.53,6.8-10.9,9.82-3.5,4.45-5.41,21.38-5.41,21.38l4.06-9.14s-2.15,15.56.56,18.53,3.27,12.11,3.27,12.11a54.85,54.85,0,0,0-.11,7.91c.34,2,10.37,2.34,16,3.33S338.79,196,338.79,196l-21.43-2.35s26.27,5.81,32.59,6c.38,0,.71,0,1,0l-2.89-5.94C341.81,191.93,327.34,188.62,320.74,185.56Z"/><path class="cls-113" d="M354.56,195.11c-1.28-.61-2.1.9-3.57-.31-.54-.44-3.69-1.3-7.85-2.39v0l7.84,7.24s3.62,3.39,2.7,5.67c2.15-1.1,4.87-3,3.92-4.43C356.31,199,355.85,195.71,354.56,195.11Z"/><path class="cls-114" d="M323.57,218.17c-1-1.24-5-1.86-6.56-3s-6.72-2.54-6.93-2.6L296.9,212c-.2-.12-3.36,1.46-4.8,1.52s-.83-.4-2,0-.41,1-3.15,2.09-3.05,5.3-3.05,5.3a4.94,4.94,0,0,1,1.91-1.07,39.67,39.67,0,0,1,6.41-1.18c1,0,3.67,1.12,5.58,1.12s3.05-1,4.45-.79,1.7.06,2.32.17,2.38-.73,2.79-.67,1.92.11,4.09.39a24.34,24.34,0,0,0,4.8,0,7.59,7.59,0,0,0,2.54.45c1.6.06,6.77.79,6.77.79A14.41,14.41,0,0,1,323.57,218.17Z"/><path class="cls-115" d="M208.73,155.88c.45-4.29,1.8-5.53,1.8-5.53l-.45.34s-5.86,5.64-3.83,7.67,6.2.56,6.2.56S208.28,160.16,208.73,155.88Z"/><path class="cls-116" d="M205,163.66c.45-4.29,1.8-5.53,1.8-5.53l-.45.34s-5.86,5.64-3.83,7.67,6.2.56,6.2.56S204.55,167.94,205,163.66Z"/><path class="cls-117" d="M211.49,167.21c.45-4.29,1.8-5.53,1.8-5.53l-.45.34s-5.86,5.64-3.83,7.67,6.2.56,6.2.56S211,171.49,211.49,167.21Z"/><path class="cls-118" d="M214.2,159c.45-4.29,1.8-5.53,1.8-5.53l-.45.34s-5.87,5.64-3.84,7.67,6.21.56,6.21.56S213.74,163.26,214.2,159Z"/><path class="cls-119" d="M215.44,151c.45-4.29,1.8-5.53,1.8-5.53l-.45.34s-5.86,5.64-3.84,7.67,6.21.56,6.21.56S215,155.31,215.44,151Z"/><path class="cls-120" d="M198.44,162.52c.39-3,1.54-3.88,1.54-3.88l-.38.24s-5,4-3.28,5.38,5.3.39,5.3.39S198.05,165.52,198.44,162.52Z"/><path class="cls-121" d="M203.26,171.94c-.42-3,.46-4.15.46-4.15l-.31.33s-3.79,5.15-1.74,6.06,5.22-1,5.22-1S203.68,175,203.26,171.94Z"/><path class="cls-122" d="M197.21,170a4,4,0,0,1,.84-3.23l-.35.28s-4.44,4.27-2.36,4.8,5.6-1.23,5.6-1.23S197.4,172.24,197.21,170Z"/><path class="cls-123" d="M218.24,165.8a4,4,0,0,1,.84-3.22l-.35.28s-4.44,4.27-2.36,4.8,5.6-1.23,5.6-1.23S218.43,168.07,218.24,165.8Z"/><path class="cls-124" d="M211.08,175.44a4,4,0,0,1,.84-3.22l-.35.28s-4.44,4.27-2.36,4.8,5.6-1.23,5.6-1.23S211.27,177.71,211.08,175.44Z"/><path class="cls-125" d="M203.07,178.83a4,4,0,0,1,.85-3.23l-.36.28s-4.44,4.27-2.35,4.8,5.59-1.23,5.59-1.23S203.26,181.09,203.07,178.83Z"/></g></g></svg>