<svg xmlns="http://www.w3.org/2000/svg" xmlns:xlink="http://www.w3.org/1999/xlink" viewBox="0 0 423.01 293.91"><defs><style>.cls-1{fill:url(#Degradado_sin_nombre_10);}.cls-2{fill:url(#Degradado_sin_nombre_10-2);}.cls-3{fill:url(#Degradado_sin_nombre_10-3);}.cls-4{fill:url(#Degradado_sin_nombre_10-4);}.cls-5{fill:url(#Degradado_sin_nombre_10-5);}.cls-6{fill:url(#Degradado_sin_nombre_10-6);}.cls-7{fill:url(#Degradado_sin_nombre_10-7);}.cls-8{fill:url(#Degradado_sin_nombre_10-8);}.cls-9{fill:url(#Degradado_sin_nombre_10-9);}.cls-10{fill:url(#Degradado_sin_nombre_10-10);}.cls-11{fill:url(#Degradado_sin_nombre_10-11);}.cls-12{fill:url(#Degradado_sin_nombre_10-12);}.cls-13{fill:url(#Degradado_sin_nombre_10-13);}.cls-14{fill:url(#Degradado_sin_nombre_10-14);}.cls-15{fill:url(#Degradado_sin_nombre_10-15);}.cls-16{fill:url(#Degradado_sin_nombre_10-16);}.cls-17{fill:url(#Degradado_sin_nombre_10-17);}.cls-18{fill:url(#Degradado_sin_nombre_10-18);}.cls-19{fill:url(#Degradado_sin_nombre_10-19);}.cls-20{fill:url(#Degradado_sin_nombre_10-20);}.cls-21{fill:url(#Degradado_sin_nombre_10-21);}.cls-22{fill:url(#Degradado_sin_nombre_10-22);}.cls-23{fill:url(#Degradado_sin_nombre_10-23);}.cls-24{fill:url(#Degradado_sin_nombre_10-24);}.cls-25{fill:url(#Degradado_sin_nombre_10-25);}.cls-26{fill:url(#Degradado_sin_nombre_10-26);}.cls-27{fill:url(#Degradado_sin_nombre_10-27);}.cls-28{fill:url(#Degradado_sin_nombre_10-28);}.cls-29{fill:url(#Degradado_sin_nombre_10-29);}.cls-30{fill:url(#Degradado_sin_nombre_10-30);}.cls-31{fill:url(#Degradado_sin_nombre_10-31);}.cls-32{fill:url(#Degradado_sin_nombre_10-32);}.cls-33{fill:url(#Degradado_sin_nombre_10-33);}.cls-34{fill:url(#Degradado_sin_nombre_10-34);}.cls-35{fill:url(#Degradado_sin_nombre_10-35);}.cls-36{fill:url(#Degradado_sin_nombre_10-36);}.cls-37{fill:url(#Degradado_sin_nombre_10-37);}.cls-38{fill:url(#Degradado_sin_nombre_10-38);}.cls-39{fill:url(#Degradado_sin_nombre_10-39);}.cls-40{fill:url(#Degradado_sin_nombre_10-40);}.cls-41{fill:url(#Degradado_sin_nombre_10-41);}.cls-42{fill:url(#Degradado_sin_nombre_10-42);}.cls-43{fill:url(#Degradado_sin_nombre_10-43);}.cls-44{fill:url(#Degradado_sin_nombre_10-44);}.cls-45{fill:url(#Degradado_sin_nombre_10-45);}.cls-46{fill:url(#Degradado_sin_nombre_10-46);}.cls-47{fill:url(#Degradado_sin_nombre_10-47);}.cls-48{fill:url(#Degradado_sin_nombre_10-48);}.cls-49{fill:url(#Degradado_sin_nombre_10-49);}.cls-50{fill:url(#Degradado_sin_nombre_10-50);}.cls-51{fill:url(#Degradado_sin_nombre_10-51);}.cls-52{fill:url(#Degradado_sin_nombre_10-52);}.cls-53{fill:url(#Degradado_sin_nombre_10-53);}.cls-54{fill:url(#Degradado_sin_nombre_10-54);}.cls-55{fill:url(#Degradado_sin_nombre_10-55);}.cls-56{fill:url(#Degradado_sin_nombre_10-56);}.cls-57{fill:url(#Degradado_sin_nombre_10-57);}.cls-58{fill:url(#Nueva_muestra_de_degradado_11);}.cls-59{fill:url(#Nueva_muestra_de_degradado_11-2);}.cls-60{fill:url(#Nueva_muestra_de_degradado_11-3);}.cls-61{fill:url(#Degradado_sin_nombre_6);}.cls-62{fill:url(#Nueva_muestra_de_degradado_11-4);}.cls-63{fill:url(#Nueva_muestra_de_degradado_11-5);}.cls-64{fill:url(#Nueva_muestra_de_degradado_11-6);}.cls-65{fill:url(#Nueva_muestra_de_degradado_11-7);}.cls-66{fill:url(#Degradado_sin_nombre_10-58);}.cls-67{fill:url(#Degradado_sin_nombre_10-59);}.cls-68{fill:url(#Nueva_muestra_de_degradado_11-8);}.cls-69{fill:url(#Degradado_sin_nombre_10-60);}.cls-70{fill:url(#Degradado_sin_nombre_10-61);}.cls-71{fill:url(#Degradado_sin_nombre_10-62);}.cls-72{fill:url(#Nueva_muestra_de_degradado_11-9);}.cls-73{fill:url(#Degradado_sin_nombre_10-63);}.cls-74{fill:url(#Nueva_muestra_de_degradado_11-10);}.cls-75{fill:url(#Nueva_muestra_de_degradado_11-11);}.cls-76{fill:url(#Degradado_sin_nombre_10-64);}.cls-77{fill:url(#Nueva_muestra_de_degradado_11-12);}.cls-78{fill:url(#Degradado_sin_nombre_10-65);}.cls-79{fill:url(#Degradado_sin_nombre_10-66);}.cls-80{fill:url(#Nueva_muestra_de_degradado_11-13);}.cls-81{fill:url(#Degradado_sin_nombre_6-2);}.cls-82{fill:url(#Nueva_muestra_de_degradado_11-14);}.cls-83{fill:url(#Degradado_sin_nombre_10-67);}.cls-84{fill:url(#Nueva_muestra_de_degradado_11-15);}.cls-85{fill:url(#Nueva_muestra_de_degradado_11-16);}.cls-86{fill:url(#Degradado_sin_nombre_10-68);}.cls-87{fill:url(#Degradado_sin_nombre_10-69);}.cls-88{fill:url(#Degradado_sin_nombre_10-70);}.cls-89{fill:url(#Degradado_sin_nombre_10-71);}.cls-90{fill:url(#Degradado_sin_nombre_10-72);}.cls-91{fill:url(#Nueva_muestra_de_degradado_11-17);}.cls-92{fill:url(#Nueva_muestra_de_degradado_11-18);}.cls-93{fill:url(#Nueva_muestra_de_degradado_11-19);}.cls-94{fill:url(#Nueva_muestra_de_degradado_11-20);}.cls-95{fill:url(#Nueva_muestra_de_degradado_11-21);}.cls-96{fill:url(#Degradado_sin_nombre_10-73);}.cls-97{fill:url(#Nueva_muestra_de_degradado_11-22);}.cls-98{fill:url(#Nueva_muestra_de_degradado_11-23);}.cls-99{fill:url(#Nueva_muestra_de_degradado_11-24);}.cls-100{fill:url(#Nueva_muestra_de_degradado_11-25);}.cls-101{fill:url(#Nueva_muestra_de_degradado_11-26);}.cls-102{fill:url(#Nueva_muestra_de_degradado_11-27);}.cls-103{fill:url(#Nueva_muestra_de_degradado_11-28);}.cls-104{fill:url(#Nueva_muestra_de_degradado_11-29);}.cls-105{fill:url(#Nueva_muestra_de_degradado_11-30);}.cls-106{fill:url(#Nueva_muestra_de_degradado_11-31);}.cls-107{fill:url(#Nueva_muestra_de_degradado_11-32);}.cls-108{fill:url(#Nueva_muestra_de_degradado_11-33);}.cls-109{fill:url(#Nueva_muestra_de_degradado_11-34);}.cls-110{fill:url(#Nueva_muestra_de_degradado_11-35);}.cls-111{fill:url(#Nueva_muestra_de_degradado_11-36);}.cls-112{fill:url(#Nueva_muestra_de_degradado_41);}.cls-113{fill:url(#Nueva_muestra_de_degradado_19);}.cls-114{fill:url(#Nueva_muestra_de_degradado_19-2);}.cls-115{fill:url(#Nueva_muestra_de_degradado_19-3);}.cls-116{fill:url(#Nueva_muestra_de_degradado_19-4);}.cls-117{fill:url(#Nueva_muestra_de_degradado_19-5);}.cls-118{fill:url(#Nueva_muestra_de_degradado_19-6);}.cls-119{fill:url(#Nueva_muestra_de_degradado_19-7);}.cls-120{fill:url(#Nueva_muestra_de_degradado_19-8);}.cls-121{fill:url(#Nueva_muestra_de_degradado_19-9);}.cls-122{fill:url(#Nueva_muestra_de_degradado_19-10);}.cls-123{fill:url(#Nueva_muestra_de_degradado_19-11);}.cls-124{fill:url(#Nueva_muestra_de_degradado_19-12);}.cls-125{fill:url(#Nueva_muestra_de_degradado_19-13);}.cls-126{fill:url(#Nueva_muestra_de_degradado_19-14);}.cls-127{fill:url(#Nueva_muestra_de_degradado_11-37);}.cls-128{fill:url(#Nueva_muestra_de_degradado_41-2);}.cls-129{fill:url(#Nueva_muestra_de_degradado_11-38);}.cls-130{fill:url(#Degradado_sin_nombre_10-74);}.cls-131{fill:url(#Nueva_muestra_de_degradado_11-39);}.cls-132{fill:url(#Nueva_muestra_de_degradado_11-40);}.cls-133{fill:url(#Nueva_muestra_de_degradado_11-41);}.cls-134{fill:url(#Nueva_muestra_de_degradado_11-42);}.cls-135{fill:url(#Nueva_muestra_de_degradado_11-43);}.cls-136{fill:url(#Nueva_muestra_de_degradado_11-44);}.cls-137{fill:url(#Nueva_muestra_de_degradado_11-45);}.cls-138{fill:url(#Nueva_muestra_de_degradado_11-46);}.cls-139{fill:url(#Nueva_muestra_de_degradado_14);}.cls-140{fill:url(#Nueva_muestra_de_degradado_14-2);}.cls-141{fill:url(#Nueva_muestra_de_degradado_11-47);}.cls-142{fill:url(#Nueva_muestra_de_degradado_11-48);}.cls-143{fill:url(#Nueva_muestra_de_degradado_11-49);}.cls-144{fill:url(#Nueva_muestra_de_degradado_11-50);}.cls-145{fill:url(#Nueva_muestra_de_degradado_11-51);}.cls-146{fill:url(#Nueva_muestra_de_degradado_11-52);}.cls-147{fill:url(#Nueva_muestra_de_degradado_11-53);}.cls-148{fill:url(#Nueva_muestra_de_degradado_11-54);}.cls-149{fill:url(#Nueva_muestra_de_degradado_11-55);}.cls-150{fill:url(#Nueva_muestra_de_degradado_11-56);}.cls-151{fill:url(#Nueva_muestra_de_degradado_11-57);}.cls-152{fill:url(#Nueva_muestra_de_degradado_11-58);}.cls-153{fill:url(#Nueva_muestra_de_degradado_11-59);}.cls-154{fill:url(#Nueva_muestra_de_degradado_11-60);}.cls-155{fill:url(#Nueva_muestra_de_degradado_11-61);}.cls-156{fill:url(#Nueva_muestra_de_degradado_11-62);}.cls-157{fill:url(#Nueva_muestra_de_degradado_11-63);}.cls-158{fill:url(#Nueva_muestra_de_degradado_11-64);}.cls-159{fill:url(#Nueva_muestra_de_degradado_11-65);}.cls-160{fill:url(#Nueva_muestra_de_degradado_11-66);}.cls-161{fill:url(#Nueva_muestra_de_degradado_11-67);}.cls-162{fill:url(#Nueva_muestra_de_degradado_11-68);}.cls-163{fill:url(#Nueva_muestra_de_degradado_11-69);}.cls-164{fill:url(#Nueva_muestra_de_degradado_11-70);}.cls-165{fill:url(#Nueva_muestra_de_degradado_11-71);}</style><linearGradient id="Degradado_sin_nombre_10" x1="79.76" y1="275.63" x2="80.68" y2="279.9" gradientUnits="userSpaceOnUse"><stop offset="0" stop-color="#ffb624"/><stop offset="0.43" stop-color="#ff3b03"/><stop offset="0.47" stop-color="#ff3000"/><stop offset="1" stop-color="#ff3000"/></linearGradient><linearGradient id="Degradado_sin_nombre_10-2" x1="30.41" y1="271.4" x2="30.45" y2="271.56" xlink:href="#Degradado_sin_nombre_10"/><linearGradient id="Degradado_sin_nombre_10-3" x1="33.42" y1="265.97" x2="38.96" y2="291.88" xlink:href="#Degradado_sin_nombre_10"/><linearGradient id="Degradado_sin_nombre_10-4" x1="52.33" y1="284.88" x2="49.68" y2="284.08" xlink:href="#Degradado_sin_nombre_10"/><linearGradient id="Degradado_sin_nombre_10-5" x1="53.19" y1="267.29" x2="17.01" y2="256.34" xlink:href="#Degradado_sin_nombre_10"/><linearGradient id="Degradado_sin_nombre_10-6" x1="12.75" y1="261.49" x2="13.91" y2="266.87" xlink:href="#Degradado_sin_nombre_10"/><linearGradient id="Degradado_sin_nombre_10-7" x1="20.67" y1="257.53" x2="22.24" y2="264.85" xlink:href="#Degradado_sin_nombre_10"/><linearGradient id="Degradado_sin_nombre_10-8" x1="13.61" y1="255.9" x2="14.76" y2="261.29" xlink:href="#Degradado_sin_nombre_10"/><linearGradient id="Degradado_sin_nombre_10-9" x1="34.51" y1="258.07" x2="35.94" y2="264.75" xlink:href="#Degradado_sin_nombre_10"/><linearGradient id="Degradado_sin_nombre_10-10" x1="27.11" y1="252.48" x2="28.99" y2="261.28" xlink:href="#Degradado_sin_nombre_10"/><linearGradient id="Degradado_sin_nombre_10-11" x1="23" y1="249.83" x2="23.39" y2="251.64" xlink:href="#Degradado_sin_nombre_10"/><linearGradient id="Degradado_sin_nombre_10-12" x1="4.85" y1="272.55" x2="5.64" y2="276.25" xlink:href="#Degradado_sin_nombre_10"/><linearGradient id="Degradado_sin_nombre_10-13" x1="65.15" y1="267.24" x2="65.57" y2="269.2" xlink:href="#Degradado_sin_nombre_10"/><linearGradient id="Degradado_sin_nombre_10-14" x1="66.4" y1="273.81" x2="67.03" y2="276.76" xlink:href="#Degradado_sin_nombre_10"/><linearGradient id="Degradado_sin_nombre_10-15" x1="36.16" y1="281.02" x2="20.3" y2="308.72" xlink:href="#Degradado_sin_nombre_10"/><linearGradient id="Degradado_sin_nombre_10-16" x1="162.28" y1="307.17" x2="162.43" y2="306.71" gradientTransform="translate(-9.46 -9.91) rotate(-4.67)" xlink:href="#Degradado_sin_nombre_10"/><linearGradient id="Degradado_sin_nombre_10-17" x1="196.59" y1="119.15" x2="189.84" y2="117.1" gradientTransform="translate(-9.46 -9.91) rotate(-4.67)" xlink:href="#Degradado_sin_nombre_10"/><linearGradient id="Degradado_sin_nombre_10-18" x1="219.08" y1="145.93" x2="69.59" y2="100.69" gradientTransform="translate(-9.46 -9.91) rotate(-4.67)" xlink:href="#Degradado_sin_nombre_10"/><linearGradient id="Degradado_sin_nombre_10-19" x1="313.04" y1="204.86" x2="299.08" y2="200.64" gradientTransform="translate(-9.46 -9.91) rotate(-4.67)" xlink:href="#Degradado_sin_nombre_10"/><linearGradient id="Degradado_sin_nombre_10-20" x1="233.07" y1="204.91" x2="232.39" y2="204.7" gradientTransform="translate(-9.46 -9.91) rotate(-4.67)" xlink:href="#Degradado_sin_nombre_10"/><linearGradient id="Degradado_sin_nombre_10-21" x1="335.59" y1="198.74" x2="158.86" y2="145.26" gradientTransform="translate(-9.46 -9.91) rotate(-4.67)" xlink:href="#Degradado_sin_nombre_10"/><linearGradient id="Degradado_sin_nombre_10-22" x1="303.54" y1="126.18" x2="302.19" y2="125.77" gradientTransform="translate(-9.46 -9.91) rotate(-4.67)" xlink:href="#Degradado_sin_nombre_10"/><linearGradient id="Degradado_sin_nombre_10-23" x1="330.64" y1="162.34" x2="323.36" y2="160.14" gradientTransform="translate(-9.46 -9.91) rotate(-4.67)" xlink:href="#Degradado_sin_nombre_10"/><linearGradient id="Degradado_sin_nombre_10-24" x1="131.14" y1="61.61" x2="14.6" y2="173.9" gradientTransform="translate(-9.46 -9.91) rotate(-4.67)" xlink:href="#Degradado_sin_nombre_10"/><linearGradient id="Degradado_sin_nombre_10-25" x1="109.12" y1="156.2" x2="86.03" y2="243.87" gradientTransform="translate(-9.46 -9.91) rotate(-4.67)" xlink:href="#Degradado_sin_nombre_10"/><linearGradient id="Degradado_sin_nombre_10-26" x1="107.67" y1="140.22" x2="73.26" y2="189.23" gradientTransform="translate(-9.46 -9.91) rotate(-4.67)" xlink:href="#Degradado_sin_nombre_10"/><linearGradient id="Degradado_sin_nombre_10-27" x1="130.21" y1="99.11" x2="90.14" y2="174.29" gradientTransform="translate(-9.46 -9.91) rotate(-4.67)" xlink:href="#Degradado_sin_nombre_10"/><linearGradient id="Degradado_sin_nombre_10-28" x1="198.68" y1="131.89" x2="82.07" y2="244.25" gradientTransform="translate(-9.46 -9.91) rotate(-4.67)" xlink:href="#Degradado_sin_nombre_10"/><linearGradient id="Degradado_sin_nombre_10-29" x1="217.62" y1="113.64" x2="217.6" y2="113.66" gradientTransform="translate(-9.46 -9.91) rotate(-4.67)" xlink:href="#Degradado_sin_nombre_10"/><linearGradient id="Degradado_sin_nombre_10-30" x1="230" y1="180.58" x2="96.99" y2="308.74" gradientTransform="translate(-9.46 -9.91) rotate(-4.67)" xlink:href="#Degradado_sin_nombre_10"/><linearGradient id="Degradado_sin_nombre_10-31" x1="240.33" y1="163.81" x2="162.56" y2="182.66" gradientTransform="translate(-9.46 -9.91) rotate(-4.67)" xlink:href="#Degradado_sin_nombre_10"/><linearGradient id="Degradado_sin_nombre_10-32" x1="254.01" y1="189.24" x2="137.59" y2="301.41" gradientTransform="translate(-9.46 -9.91) rotate(-4.67)" xlink:href="#Degradado_sin_nombre_10"/><linearGradient id="Degradado_sin_nombre_10-33" x1="270.08" y1="205.93" x2="153.67" y2="318.1" gradientTransform="translate(-9.46 -9.91) rotate(-4.67)" xlink:href="#Degradado_sin_nombre_10"/><linearGradient id="Degradado_sin_nombre_10-34" x1="272.44" y1="154.02" x2="162.5" y2="205.27" gradientTransform="translate(-9.46 -9.91) rotate(-4.67)" xlink:href="#Degradado_sin_nombre_10"/><linearGradient id="Degradado_sin_nombre_10-35" x1="265.73" y1="139.64" x2="155.8" y2="190.9" gradientTransform="translate(-9.46 -9.91) rotate(-4.67)" xlink:href="#Degradado_sin_nombre_10"/><linearGradient id="Degradado_sin_nombre_10-36" x1="253.94" y1="114.36" x2="144.01" y2="165.61" gradientTransform="translate(-9.46 -9.91) rotate(-4.67)" xlink:href="#Degradado_sin_nombre_10"/><linearGradient id="Degradado_sin_nombre_10-37" x1="227.74" y1="58.15" x2="195.67" y2="48.45" gradientTransform="translate(-9.46 -9.91) rotate(-4.67)" xlink:href="#Degradado_sin_nombre_10"/><linearGradient id="Degradado_sin_nombre_10-38" x1="157.01" y1="38.29" x2="137.15" y2="32.28" gradientTransform="translate(-9.46 -9.91) rotate(-4.67)" xlink:href="#Degradado_sin_nombre_10"/><linearGradient id="Degradado_sin_nombre_10-39" x1="181.47" y1="33.66" x2="165.52" y2="28.83" gradientTransform="translate(-9.46 -9.91) rotate(-4.67)" xlink:href="#Degradado_sin_nombre_10"/><linearGradient id="Degradado_sin_nombre_10-40" x1="106.84" y1="49.68" x2="98.75" y2="47.23" gradientTransform="translate(-9.46 -9.91) rotate(-4.67)" xlink:href="#Degradado_sin_nombre_10"/><linearGradient id="Degradado_sin_nombre_10-41" x1="293.41" y1="85.75" x2="235.29" y2="68.16" gradientTransform="translate(-9.46 -9.91) rotate(-4.67)" xlink:href="#Degradado_sin_nombre_10"/><linearGradient id="Degradado_sin_nombre_10-42" x1="363.44" y1="109.55" x2="358.18" y2="107.96" gradientTransform="translate(-9.46 -9.91) rotate(-4.67)" xlink:href="#Degradado_sin_nombre_10"/><linearGradient id="Degradado_sin_nombre_10-43" x1="401.37" y1="152.61" x2="388.2" y2="148.62" gradientTransform="translate(-9.46 -9.91) rotate(-4.67)" xlink:href="#Degradado_sin_nombre_10"/><linearGradient id="Degradado_sin_nombre_10-44" x1="380.69" y1="177.91" x2="370.68" y2="174.88" gradientTransform="translate(-9.46 -9.91) rotate(-4.67)" xlink:href="#Degradado_sin_nombre_10"/><linearGradient id="Degradado_sin_nombre_10-45" x1="416.34" y1="186" x2="406" y2="182.88" gradientTransform="translate(-9.46 -9.91) rotate(-4.67)" xlink:href="#Degradado_sin_nombre_10"/><linearGradient id="Degradado_sin_nombre_10-46" x1="389.41" y1="226.1" x2="359.53" y2="217.05" gradientTransform="translate(-9.46 -9.91) rotate(-4.67)" xlink:href="#Degradado_sin_nombre_10"/><linearGradient id="Degradado_sin_nombre_10-47" x1="363.94" y1="235.93" x2="358.52" y2="234.29" gradientTransform="translate(-9.46 -9.91) rotate(-4.67)" xlink:href="#Degradado_sin_nombre_10"/><linearGradient id="Degradado_sin_nombre_10-48" x1="131.65" y1="195.2" x2="135.41" y2="202.59" xlink:href="#Degradado_sin_nombre_10"/><linearGradient id="Degradado_sin_nombre_10-49" x1="305.58" y1="241.71" x2="306.18" y2="241.98" xlink:href="#Degradado_sin_nombre_10"/><linearGradient id="Degradado_sin_nombre_10-50" x1="315.36" y1="243.02" x2="353.92" y2="259.72" xlink:href="#Degradado_sin_nombre_10"/><linearGradient id="Degradado_sin_nombre_10-51" x1="330.07" y1="268.35" x2="330.09" y2="268.36" xlink:href="#Degradado_sin_nombre_10"/><linearGradient id="Degradado_sin_nombre_10-52" x1="322.13" y1="247.8" x2="352.27" y2="260.86" xlink:href="#Degradado_sin_nombre_10"/><linearGradient id="Degradado_sin_nombre_10-53" x1="284.76" y1="250.93" x2="298.79" y2="257" xlink:href="#Degradado_sin_nombre_10"/><linearGradient id="Degradado_sin_nombre_10-54" x1="285.07" y1="238.14" x2="291.53" y2="240.93" xlink:href="#Degradado_sin_nombre_10"/><linearGradient id="Degradado_sin_nombre_10-55" x1="266.55" y1="239.82" x2="270.19" y2="241.39" xlink:href="#Degradado_sin_nombre_10"/><linearGradient id="Degradado_sin_nombre_10-56" x1="219.55" y1="593.9" x2="223.18" y2="595.48" gradientTransform="matrix(0.61, -0.8, 0.8, 0.61, -309.28, 39.51)" xlink:href="#Degradado_sin_nombre_10"/><linearGradient id="Degradado_sin_nombre_10-57" x1="295.89" y1="266.2" x2="303.68" y2="269.58" xlink:href="#Degradado_sin_nombre_10"/><linearGradient id="Nueva_muestra_de_degradado_11" x1="52.29" y1="207.6" x2="55.29" y2="219.73" gradientUnits="userSpaceOnUse"><stop offset="0" stop-color="#b52d2d"/><stop offset="1" stop-color="#630101"/></linearGradient><linearGradient id="Nueva_muestra_de_degradado_11-2" x1="105.55" y1="194.43" x2="108.55" y2="206.55" xlink:href="#Nueva_muestra_de_degradado_11"/><linearGradient id="Nueva_muestra_de_degradado_11-3" x1="145.06" y1="184.65" x2="148.06" y2="196.78" xlink:href="#Nueva_muestra_de_degradado_11"/><linearGradient id="Degradado_sin_nombre_6" x1="120.1" y1="262.49" x2="135.73" y2="260.33" gradientUnits="userSpaceOnUse"><stop offset="0" stop-color="#ffb624"/><stop offset="0.43" stop-color="#ff3b03"/><stop offset="0.47" stop-color="#ff3000"/><stop offset="0.67" stop-color="#ff3000"/><stop offset="1" stop-color="#ff3000"/></linearGradient><linearGradient id="Nueva_muestra_de_degradado_11-4" x1="38.96" y1="210.9" x2="41.96" y2="223.03" xlink:href="#Nueva_muestra_de_degradado_11"/><linearGradient id="Nueva_muestra_de_degradado_11-5" x1="43.43" y1="209.8" x2="46.43" y2="221.92" xlink:href="#Nueva_muestra_de_degradado_11"/><linearGradient id="Nueva_muestra_de_degradado_11-6" x1="74.92" y1="277.91" x2="68.54" y2="276.93" xlink:href="#Nueva_muestra_de_degradado_11"/><linearGradient id="Nueva_muestra_de_degradado_11-7" x1="323.8" y1="267.79" x2="323.79" y2="267.83" xlink:href="#Nueva_muestra_de_degradado_11"/><linearGradient id="Degradado_sin_nombre_10-58" x1="331.14" y1="260.52" x2="329.71" y2="264.39" xlink:href="#Degradado_sin_nombre_10"/><linearGradient id="Degradado_sin_nombre_10-59" x1="289.96" y1="248.05" x2="283.09" y2="266.56" xlink:href="#Degradado_sin_nombre_10"/><linearGradient id="Nueva_muestra_de_degradado_11-8" x1="257.07" y1="271.6" x2="257.07" y2="271.61" xlink:href="#Nueva_muestra_de_degradado_11"/><linearGradient id="Degradado_sin_nombre_10-60" x1="208.81" y1="233.38" x2="207.52" y2="236.85" xlink:href="#Degradado_sin_nombre_10"/><linearGradient id="Degradado_sin_nombre_10-61" x1="206.58" y1="230.32" x2="205.07" y2="234.37" xlink:href="#Degradado_sin_nombre_10"/><linearGradient id="Degradado_sin_nombre_10-62" x1="203.65" y1="228.05" x2="202.1" y2="232.24" xlink:href="#Degradado_sin_nombre_10"/><linearGradient id="Nueva_muestra_de_degradado_11-9" x1="203.14" y1="239.39" x2="203.02" y2="239.72" xlink:href="#Nueva_muestra_de_degradado_11"/><linearGradient id="Degradado_sin_nombre_10-63" x1="199.5" y1="224.93" x2="197.83" y2="229.42" xlink:href="#Degradado_sin_nombre_10"/><linearGradient id="Nueva_muestra_de_degradado_11-10" x1="200.04" y1="237.25" x2="199.74" y2="238.06" xlink:href="#Nueva_muestra_de_degradado_11"/><linearGradient id="Nueva_muestra_de_degradado_11-11" x1="196.49" y1="235.05" x2="196.13" y2="236.01" xlink:href="#Nueva_muestra_de_degradado_11"/><linearGradient id="Degradado_sin_nombre_10-64" x1="118.11" y1="200.12" x2="120.9" y2="205.59" xlink:href="#Degradado_sin_nombre_10"/><linearGradient id="Nueva_muestra_de_degradado_11-12" x1="341.04" y1="250.67" x2="339.14" y2="251.75" xlink:href="#Nueva_muestra_de_degradado_11"/><linearGradient id="Degradado_sin_nombre_10-65" x1="157.97" y1="189.97" x2="168.42" y2="210.46" xlink:href="#Degradado_sin_nombre_10"/><linearGradient id="Degradado_sin_nombre_10-66" x1="206.13" y1="224.88" x2="216.57" y2="245.38" xlink:href="#Degradado_sin_nombre_10"/><linearGradient id="Nueva_muestra_de_degradado_11-13" x1="299.66" y1="208.14" x2="255.11" y2="226.21" xlink:href="#Nueva_muestra_de_degradado_11"/><linearGradient id="Degradado_sin_nombre_6-2" x1="90.54" y1="228.34" x2="117.92" y2="242.65" xlink:href="#Degradado_sin_nombre_6"/><linearGradient id="Nueva_muestra_de_degradado_11-14" x1="94.61" y1="220.84" x2="105.51" y2="213.09" xlink:href="#Nueva_muestra_de_degradado_11"/><linearGradient id="Degradado_sin_nombre_10-67" x1="85.4" y1="227.96" x2="117.44" y2="244.13" xlink:href="#Degradado_sin_nombre_10"/><linearGradient id="Nueva_muestra_de_degradado_11-15" x1="103.02" y1="232.69" x2="113.95" y2="224.91" xlink:href="#Nueva_muestra_de_degradado_11"/><linearGradient id="Nueva_muestra_de_degradado_11-16" x1="106.04" y1="236.91" x2="116.94" y2="229.15" xlink:href="#Nueva_muestra_de_degradado_11"/><linearGradient id="Degradado_sin_nombre_10-68" x1="87.68" y1="223.45" x2="119.72" y2="239.61" xlink:href="#Degradado_sin_nombre_10"/><linearGradient id="Degradado_sin_nombre_10-69" x1="86.82" y1="225.15" x2="118.86" y2="241.32" xlink:href="#Degradado_sin_nombre_10"/><linearGradient id="Degradado_sin_nombre_10-70" x1="84.01" y1="230.72" x2="116.05" y2="246.88" xlink:href="#Degradado_sin_nombre_10"/><linearGradient id="Degradado_sin_nombre_10-71" x1="85.28" y1="228.2" x2="117.32" y2="244.37" xlink:href="#Degradado_sin_nombre_10"/><linearGradient id="Degradado_sin_nombre_10-72" x1="87.94" y1="222.93" x2="119.98" y2="239.1" xlink:href="#Degradado_sin_nombre_10"/><linearGradient id="Nueva_muestra_de_degradado_11-17" x1="107.72" y1="208.88" x2="108.9" y2="211.18" xlink:href="#Nueva_muestra_de_degradado_11"/><linearGradient id="Nueva_muestra_de_degradado_11-18" x1="105.13" y1="211.22" x2="105.76" y2="212.46" xlink:href="#Nueva_muestra_de_degradado_11"/><linearGradient id="Nueva_muestra_de_degradado_11-19" x1="115.33" y1="211.39" x2="115.38" y2="211.48" xlink:href="#Nueva_muestra_de_degradado_11"/><linearGradient id="Nueva_muestra_de_degradado_11-20" x1="93.1" y1="213.67" x2="93.66" y2="214.77" xlink:href="#Nueva_muestra_de_degradado_11"/><linearGradient id="Nueva_muestra_de_degradado_11-21" x1="96.3" y1="211.96" x2="96.79" y2="212.93" xlink:href="#Nueva_muestra_de_degradado_11"/><linearGradient id="Degradado_sin_nombre_10-73" x1="86.85" y1="203.7" x2="91.48" y2="212.8" xlink:href="#Degradado_sin_nombre_10"/><linearGradient id="Nueva_muestra_de_degradado_11-22" x1="182.64" y1="223.13" x2="182.84" y2="223.53" xlink:href="#Nueva_muestra_de_degradado_11"/><linearGradient id="Nueva_muestra_de_degradado_11-23" x1="190.17" y1="229.57" x2="190.18" y2="229.59" xlink:href="#Nueva_muestra_de_degradado_11"/><linearGradient id="Nueva_muestra_de_degradado_11-24" x1="185.26" y1="224.1" x2="185.89" y2="225.32" xlink:href="#Nueva_muestra_de_degradado_11"/><linearGradient id="Nueva_muestra_de_degradado_11-25" x1="176.19" y1="216.67" x2="176.42" y2="217.13" xlink:href="#Nueva_muestra_de_degradado_11"/><linearGradient id="Nueva_muestra_de_degradado_11-26" x1="172.71" y1="215.52" x2="173.03" y2="216.15" xlink:href="#Nueva_muestra_de_degradado_11"/><linearGradient id="Nueva_muestra_de_degradado_11-27" x1="233.42" y1="259.01" x2="234.04" y2="260.24" xlink:href="#Nueva_muestra_de_degradado_11"/><linearGradient id="Nueva_muestra_de_degradado_11-28" x1="230.79" y1="258.04" x2="231" y2="258.44" xlink:href="#Nueva_muestra_de_degradado_11"/><linearGradient id="Nueva_muestra_de_degradado_11-29" x1="238.32" y1="264.48" x2="238.33" y2="264.5" xlink:href="#Nueva_muestra_de_degradado_11"/><linearGradient id="Nueva_muestra_de_degradado_11-30" x1="220.86" y1="250.44" x2="221.18" y2="251.06" xlink:href="#Nueva_muestra_de_degradado_11"/><linearGradient id="Nueva_muestra_de_degradado_11-31" x1="224.34" y1="251.58" x2="224.58" y2="252.04" xlink:href="#Nueva_muestra_de_degradado_11"/><linearGradient id="Nueva_muestra_de_degradado_11-32" x1="67.1" y1="222.13" x2="119.96" y2="222.13" xlink:href="#Nueva_muestra_de_degradado_11"/><linearGradient id="Nueva_muestra_de_degradado_11-33" x1="78.75" y1="231.67" x2="90.39" y2="230.06" xlink:href="#Nueva_muestra_de_degradado_11"/><linearGradient id="Nueva_muestra_de_degradado_11-34" x1="51.01" y1="207.92" x2="54.01" y2="220.05" xlink:href="#Nueva_muestra_de_degradado_11"/><linearGradient id="Nueva_muestra_de_degradado_11-35" x1="58.51" y1="206.06" x2="61.51" y2="218.19" xlink:href="#Nueva_muestra_de_degradado_11"/><linearGradient id="Nueva_muestra_de_degradado_11-36" x1="62.78" y1="247.42" x2="74.43" y2="247.42" xlink:href="#Nueva_muestra_de_degradado_11"/><linearGradient id="Nueva_muestra_de_degradado_41" x1="60.17" y1="252.49" x2="76.83" y2="244.88" gradientUnits="userSpaceOnUse"><stop offset="0" stop-color="#701b0a"/><stop offset="1" stop-color="#420200"/></linearGradient><linearGradient id="Nueva_muestra_de_degradado_19" x1="62.35" y1="242.76" x2="62.58" y2="242.66" gradientUnits="userSpaceOnUse"><stop offset="0" stop-color="#ddd4d4"/><stop offset="1" stop-color="#afaaa1"/></linearGradient><linearGradient id="Nueva_muestra_de_degradado_19-2" x1="52.33" y1="250.4" x2="73.63" y2="240.67" xlink:href="#Nueva_muestra_de_degradado_19"/><linearGradient id="Nueva_muestra_de_degradado_19-3" x1="63.62" y1="243.19" x2="63.75" y2="243.13" xlink:href="#Nueva_muestra_de_degradado_19"/><linearGradient id="Nueva_muestra_de_degradado_19-4" x1="62.8" y1="254.89" x2="65.11" y2="253.83" xlink:href="#Nueva_muestra_de_degradado_19"/><linearGradient id="Nueva_muestra_de_degradado_19-5" x1="64.03" y1="254.23" x2="65.43" y2="253.59" xlink:href="#Nueva_muestra_de_degradado_19"/><linearGradient id="Nueva_muestra_de_degradado_19-6" x1="64.29" y1="253.15" x2="65.96" y2="252.39" xlink:href="#Nueva_muestra_de_degradado_19"/><linearGradient id="Nueva_muestra_de_degradado_19-7" x1="64.15" y1="251.58" x2="67.49" y2="250.06" xlink:href="#Nueva_muestra_de_degradado_19"/><linearGradient id="Nueva_muestra_de_degradado_19-8" x1="66.01" y1="251.12" x2="68.06" y2="250.18" xlink:href="#Nueva_muestra_de_degradado_19"/><linearGradient id="Nueva_muestra_de_degradado_19-9" x1="66.67" y1="250.31" x2="68.63" y2="249.42" xlink:href="#Nueva_muestra_de_degradado_19"/><linearGradient id="Nueva_muestra_de_degradado_19-10" x1="67.24" y1="249.62" x2="69.45" y2="248.61" xlink:href="#Nueva_muestra_de_degradado_19"/><linearGradient id="Nueva_muestra_de_degradado_19-11" x1="67.58" y1="248.49" x2="69.82" y2="247.47" xlink:href="#Nueva_muestra_de_degradado_19"/><linearGradient id="Nueva_muestra_de_degradado_19-12" x1="68.18" y1="247.31" x2="70.71" y2="246.16" xlink:href="#Nueva_muestra_de_degradado_19"/><linearGradient id="Nueva_muestra_de_degradado_19-13" x1="68.82" y1="245.86" x2="70.62" y2="245.04" xlink:href="#Nueva_muestra_de_degradado_19"/><linearGradient id="Nueva_muestra_de_degradado_19-14" x1="69.08" y1="244.76" x2="71.2" y2="243.79" xlink:href="#Nueva_muestra_de_degradado_19"/><linearGradient id="Nueva_muestra_de_degradado_11-37" x1="65.81" y1="243.76" x2="75.73" y2="239.23" xlink:href="#Nueva_muestra_de_degradado_11"/><linearGradient id="Nueva_muestra_de_degradado_41-2" x1="68.76" y1="242.64" x2="73.08" y2="240.66" xlink:href="#Nueva_muestra_de_degradado_41"/><linearGradient id="Nueva_muestra_de_degradado_11-38" x1="83.5" y1="234.58" x2="62.56" y2="254.23" xlink:href="#Nueva_muestra_de_degradado_11"/><linearGradient id="Degradado_sin_nombre_10-74" x1="68.4" y1="226.53" x2="87.78" y2="220.91" xlink:href="#Degradado_sin_nombre_10"/><linearGradient id="Nueva_muestra_de_degradado_11-39" x1="84.15" y1="224.58" x2="81.09" y2="226.8" xlink:href="#Nueva_muestra_de_degradado_11"/><linearGradient id="Nueva_muestra_de_degradado_11-40" x1="44.34" y1="243.8" x2="81.25" y2="226.95" xlink:href="#Nueva_muestra_de_degradado_11"/><linearGradient id="Nueva_muestra_de_degradado_11-41" x1="77.64" y1="244.94" x2="90.13" y2="242.6" xlink:href="#Nueva_muestra_de_degradado_11"/><linearGradient id="Nueva_muestra_de_degradado_11-42" x1="44.61" y1="209.5" x2="47.61" y2="221.63" xlink:href="#Nueva_muestra_de_degradado_11"/><linearGradient id="Nueva_muestra_de_degradado_11-43" x1="59.16" y1="241.89" x2="60.75" y2="241.59" xlink:href="#Nueva_muestra_de_degradado_11"/><linearGradient id="Nueva_muestra_de_degradado_11-44" x1="61.96" y1="239.43" x2="63.96" y2="239.05" xlink:href="#Nueva_muestra_de_degradado_11"/><linearGradient id="Nueva_muestra_de_degradado_11-45" x1="74.91" y1="248.84" x2="79.94" y2="247.89" xlink:href="#Nueva_muestra_de_degradado_11"/><linearGradient id="Nueva_muestra_de_degradado_11-46" x1="63.54" y1="236.45" x2="64.37" y2="234.23" xlink:href="#Nueva_muestra_de_degradado_11"/><linearGradient id="Nueva_muestra_de_degradado_14" x1="66.7" y1="235.7" x2="68.35" y2="233.98" gradientUnits="userSpaceOnUse"><stop offset="0" stop-color="#ffb806"/><stop offset="1" stop-color="#d38616"/></linearGradient><linearGradient id="Nueva_muestra_de_degradado_14-2" x1="69.96" y1="232.84" x2="70.04" y2="232.75" xlink:href="#Nueva_muestra_de_degradado_14"/><linearGradient id="Nueva_muestra_de_degradado_11-47" x1="69.91" y1="235.69" x2="68.92" y2="236.28" xlink:href="#Nueva_muestra_de_degradado_11"/><linearGradient id="Nueva_muestra_de_degradado_11-48" x1="77.96" y1="215.39" x2="99.27" y2="245.15" xlink:href="#Nueva_muestra_de_degradado_11"/><linearGradient id="Nueva_muestra_de_degradado_11-49" x1="208.08" y1="290.65" x2="211.41" y2="281.68" xlink:href="#Nueva_muestra_de_degradado_11"/><linearGradient id="Nueva_muestra_de_degradado_11-50" x1="221.02" y1="273.96" x2="233.32" y2="240.87" xlink:href="#Nueva_muestra_de_degradado_11"/><linearGradient id="Nueva_muestra_de_degradado_11-51" x1="128.39" y1="211.01" x2="151.66" y2="223.67" xlink:href="#Nueva_muestra_de_degradado_11"/><linearGradient id="Nueva_muestra_de_degradado_11-52" x1="195.15" y1="209.25" x2="162.69" y2="262.75" xlink:href="#Nueva_muestra_de_degradado_11"/><linearGradient id="Nueva_muestra_de_degradado_11-53" x1="168.07" y1="250.23" x2="180.85" y2="215.87" xlink:href="#Nueva_muestra_de_degradado_11"/><linearGradient id="Nueva_muestra_de_degradado_11-54" x1="155.29" y1="220.4" x2="166.52" y2="254.38" xlink:href="#Nueva_muestra_de_degradado_11"/><linearGradient id="Nueva_muestra_de_degradado_11-55" x1="186.35" y1="266.48" x2="187.23" y2="269.16" xlink:href="#Nueva_muestra_de_degradado_11"/><linearGradient id="Nueva_muestra_de_degradado_11-56" x1="221.42" y1="287.58" x2="231.99" y2="304.16" xlink:href="#Nueva_muestra_de_degradado_11"/><linearGradient id="Nueva_muestra_de_degradado_11-57" x1="226.72" y1="284.2" x2="237.29" y2="300.79" xlink:href="#Nueva_muestra_de_degradado_11"/><linearGradient id="Nueva_muestra_de_degradado_11-58" x1="117.91" y1="245.19" x2="95.72" y2="241.81" xlink:href="#Nueva_muestra_de_degradado_11"/><linearGradient id="Nueva_muestra_de_degradado_11-59" x1="80.6" y1="271.16" x2="75.28" y2="270.35" xlink:href="#Nueva_muestra_de_degradado_11"/><linearGradient id="Nueva_muestra_de_degradado_11-60" x1="91.17" y1="197.98" x2="94.17" y2="210.11" xlink:href="#Nueva_muestra_de_degradado_11"/><linearGradient id="Nueva_muestra_de_degradado_11-61" x1="180.35" y1="222.7" x2="198.45" y2="255.25" xlink:href="#Nueva_muestra_de_degradado_11"/><linearGradient id="Nueva_muestra_de_degradado_11-62" x1="179.98" y1="222.9" x2="198.08" y2="255.45" xlink:href="#Nueva_muestra_de_degradado_11"/><linearGradient id="Nueva_muestra_de_degradado_11-63" x1="174.87" y1="225.75" x2="192.97" y2="258.3" xlink:href="#Nueva_muestra_de_degradado_11"/><linearGradient id="Nueva_muestra_de_degradado_11-64" x1="176" y1="225.12" x2="194.1" y2="257.67" xlink:href="#Nueva_muestra_de_degradado_11"/><linearGradient id="Nueva_muestra_de_degradado_11-65" x1="177.92" y1="224.05" x2="196.02" y2="256.6" xlink:href="#Nueva_muestra_de_degradado_11"/><linearGradient id="Nueva_muestra_de_degradado_11-66" x1="184.52" y1="220.38" x2="202.62" y2="252.93" xlink:href="#Nueva_muestra_de_degradado_11"/><linearGradient id="Nueva_muestra_de_degradado_11-67" x1="178.7" y1="224.24" x2="196.4" y2="256.06" xlink:href="#Nueva_muestra_de_degradado_11"/><linearGradient id="Nueva_muestra_de_degradado_11-68" x1="185.5" y1="226.25" x2="201.06" y2="254.24" xlink:href="#Nueva_muestra_de_degradado_11"/><linearGradient id="Nueva_muestra_de_degradado_11-69" x1="171.46" y1="227.6" x2="187.02" y2="255.59" xlink:href="#Nueva_muestra_de_degradado_11"/><linearGradient id="Nueva_muestra_de_degradado_11-70" x1="172.83" y1="227.53" x2="188.4" y2="255.52" xlink:href="#Nueva_muestra_de_degradado_11"/><linearGradient id="Nueva_muestra_de_degradado_11-71" x1="177.44" y1="227.1" x2="193" y2="255.08" xlink:href="#Nueva_muestra_de_degradado_11"/></defs><g id="Layer_2" data-name="Layer 2"><g id="Capa_1" data-name="Capa 1"><path class="cls-1" d="M79.58,279.13c3.94-1.37,5.84-1.87,7-.7,0,0,.47-2.41-4.16-2.41s-3,2.32-5.67,1.53-3.39-1.26-3.17-1S75.63,280.5,79.58,279.13Z"/><path class="cls-2" d="M30.51,271.36c-.1.14-.17.22-.17.22A.58.58,0,0,0,30.51,271.36Z"/><path class="cls-3" d="M11.25,283c-3.32-.2-2.47-3.39-6.31-5.26s-4.94.51-4.94.51c3.75.51,2.22,2.3,5.37,7.47s11.34,2.63,11.34,2.63l15.34-2.63s19.68.2,29.34,0,10.14-10,10.14-10-1,3.63-6.11,1.39-8.83.53-10.66-1.85,2.37-5.29,2.37-5.29S43.89,275,44,271.58s-6.9-5.29-6.9-5.29l1.19,4.7s-.94-.45-2.56-4.11-7.84-2.56-7.84-2.56a6.93,6.93,0,0,1,3.41,2.73c1.06,1.69-.27,3.68-.77,4.31a.58.58,0,0,1-.17.22s.07-.08.17-.22c.2-.41.15-1.51-3-3.89-4.26-3.24-6-1.18-6-1.18s1.62-.44,2.82,2.55-1.21,8.69-4.69,8.24.34-3.22-4.52-6.45-6.31,0-6.31,0,4.27.59,4.69,5.69S14.57,283.15,11.25,283Z"/><path class="cls-4" d="M49.39,285.12a13.25,13.25,0,0,0,4-1.05A20.39,20.39,0,0,0,49.39,285.12Z"/><path class="cls-5" d="M7.55,287.51s1.18.83,8.93,1.77,23.15-.46,32.08-1.23,11.58-5.4,11.58-5.4-3.67.75-6.72,1.42a13.25,13.25,0,0,1-4,1.05,20.39,20.39,0,0,1,4-1.05c2.43-1,5-2.61,4.53-4.91-.81-4.1,3.44-6.1,3.44-6.1s-4.42-2.12-7.33,1.41-1.15,4.47-4.68,5-2.82,0-2.82,0,20.6-29.67,24-35.6l2-4.81c-.66.29-41.55,39.64-41.55,39.64s-2.35-4.47,1.53-7.46c0,0-3.17-.25-5.64,3.78s-2,4.15-2,4.15a3.5,3.5,0,0,1-1.76-4.81c1.41-3.52-4.7-5.76-4.7-5.76s4.23,3.76,1.76,5.88-.7,6.6-.7,6.6-6.3.51-7.49-3.4a4.1,4.1,0,0,1-.15-.73c-.59-4.7-2.47,7,1.06,9.67S7.55,287.51,7.55,287.51Z"/><path class="cls-6" d="M14.4,262.78c-3.48-2.16-5.78-.91-5.78-.91,3.41-.63,9.26,3.91,9.26,3.91S17.88,264.93,14.4,262.78Z"/><path class="cls-7" d="M21.92,262.5a3,3,0,0,0,4,1.14c-2.55-.91-.14-3.16-3.89-5.46s-5.08,0-5.08,0C19.55,257.9,20.39,260.06,21.92,262.5Z"/><path class="cls-8" d="M17.88,260c-.56,0-6.75.61-7.1-4.08l-.35.58s-.34,3.34,2.82,4.08S18.44,260,17.88,260Z"/><path class="cls-9" d="M31.87,257.9c2.43.42,6.26,6.08,6.26,6.08C38.3,257.23,31.87,257.9,31.87,257.9Z"/><path class="cls-10" d="M23.94,252.2s1.77.7,1.6,1.53a5.9,5.9,0,0,0,1.11,5.5c2.16,2.29,5.22,1,5.22,1s-4.52-.46-4.18-3.05S27.42,252.2,23.94,252.2Z"/><path class="cls-11" d="M20.91,250.25l4.56.87C23.75,248.64,20.91,250.25,20.91,250.25Z"/><path class="cls-12" d="M8.62,275.44c-2.26-5.15-6.82-2.37-6.82-2.37Z"/><path class="cls-13" d="M61.79,269.18l7.36-.84A4.87,4.87,0,0,0,61.79,269.18Z"/><path class="cls-14" d="M63.5,274.26,69.87,276C67.57,272.21,63.5,274.26,63.5,274.26Z"/><path class="cls-15" d="M27.9,281.29l-7.32,8.27c5.44.16,12.57-.26,19-.76L45,284.33l-9.19,1.54,27.48-34.75-34.43,34Z"/><path class="cls-16" d="M177.46,283.19a7.48,7.48,0,0,0-.22-.77S177.31,282.7,177.46,283.19Z"/><path class="cls-17" d="M200.62,82.09a132.84,132.84,0,0,0-13.75,20.45A56,56,0,0,0,200.62,82.09Z"/><path class="cls-18" d="M94.31,54.78c-29.17,12-34,70.51-34,70.51l33.07,31.35s22,13.8,34.49,13,18.17,23.84,18.17,23.84c15.6-8.72,2.59-24.69,2.59-24.69L171,190l25.59-12.37,70.36-72.07s24.63-37.13-13.16-48.22c-22-6.47-41.06,9.92-53.14,24.73a56,56,0,0,1-13.75,20.45,132.84,132.84,0,0,1,13.75-20.45A50.13,50.13,0,0,0,203.88,59c-2.54-26.75,34.27-23.37,34.27-23.37S187,21.32,187.58,46.09s-25,32.55-25,32.55,13.78-9.29,4.31-34,23.47-25.32,23.47-25.32S150.59,10.1,151,32.06s-22.12,24.51-22.12,24.51c10.21-31.34-21.63-39-21.63-39S123.48,42.82,94.31,54.78Z"/><path class="cls-19" d="M306.13,160.28s1.87,8.12,16.11,14.87C316.87,166.17,306.13,160.28,306.13,160.28Z"/><path class="cls-20" d="M238.91,179.21a45.35,45.35,0,0,0,.74-7.82S239.53,174.54,238.91,179.21Z"/><path class="cls-21" d="M325.67,84c19.44-13.88,1.83-29.7,1.83-29.7s-5.58,27.17-48.38,15.54-84.9,23-85.61,23.07L159,214.15s-34.38,7.12-12.11,7.67,55.9-36.07,55.9-36.07,1.24,3.68-4.19,24S215.68,231,215.68,231s-14.93-17.7,4.76-25.69c12.71-5.16,17-17.82,18.47-26.14.62-4.67.74-7.82.74-7.82a45.35,45.35,0,0,1-.74,7.82c-.85,6.41-2.65,15.67-6.39,23.5-6.46,13.53,8.78,23.63,8.78,23.63s-4-13.62,13-20.92,13.48-34.67,13.48-34.67.43-3.35,9.25,6.1,2.09,22.76,2.09,22.76c22.8-13.21,7.32-34.88,7.32-34.88s5.75,3.79,19.79,22.26-4.66,26.87-4.66,26.87A40.56,40.56,0,0,0,324,191.21c2.34-5.92,1-11.41-1.79-16.06-14.24-6.75-16.11-14.87-16.11-14.87s10.74,5.89,16.11,14.87a74.53,74.53,0,0,0,13.4,4.71c26.56,6.81,11,24.17,11,24.17s9.59-4.1,7.41-22.13-31.91-28.84-20.36-32.14,16.21,7.42,41.45,15.29,22.6-12.73,22.6-12.73-15.47,7.42-30.21-13.84c-8.9-12.83-22.35-15-31.62-14.77-6,2.62-10.38,1.41-10.38,1.41a45.78,45.78,0,0,1,10.38-1.41c5.17-2.27,11.54-7.38,17.31-18.59,12.44-24.18,35.06-5,35.06-5-10-18.33-38.29-22.88-54.4-8.8C320.78,102.75,308,95,303.66,91.7a3.73,3.73,0,0,1-1.58-1.32,20,20,0,0,0,1.58,1.32C306.21,93,312.36,93.47,325.67,84Z"/><path class="cls-22" d="M302.08,90.38a3.73,3.73,0,0,0,1.58,1.32A20,20,0,0,1,302.08,90.38Z"/><path class="cls-23" d="M325.49,125.12s4.39,1.21,10.38-1.41A45.78,45.78,0,0,0,325.49,125.12Z"/><path class="cls-24" d="M69.17,105.6v0Z"/><path class="cls-25" d="M58.38,186.49c1.53,1.42,32.8-18,45.86.74s-1.74,28.57-2.65,28.83l24.19-.94c2.18-1.9,4.84-28.57,4.84-28.57l5.38,5.59-2.27-24,5.2,5.82-1.38-18.66s3.2,10.73,4.72,3.65-6-30.83-6-30.83l19,17.21c3.77-13.24-17.55-27.93-17.55-27.93l19.69,1.93-16-12.73,28.77-1.46c-8.53-11.26-38.39-5.61-38.39-5.61,13.5-10,50.64-13,50.64-13-24.37-12.37-69.66,1.63-69.66,1.63L147,65.58C117.46,60.55,87.39,89,87.39,89l17.79-22.33c-30.17,11.63-35.83,38-36,38.92v0l5.59-27.43C33,134.25,56.85,185.06,58.38,186.49Z"/><path class="cls-26" d="M51.65,165c-.62-6.29-.78-12.12.13-15.43C54.52,139.69,62,132.23,62,132.23s-7.79,23.33,3.22,30.71c0,0-10.73-24.19,4-28.94s21.09-10.94,21.09-10.94-3.54,11.63-15.43,16.63,3.28,22.66,3.28,22.66-7.88-18.27,5.59-21.26a43.19,43.19,0,0,0,21.66-12.65s-1.8,12.68-10.92,16.74S97,161.76,97,161.76,95.65,145.32,109,144.22,117,131.51,117,131.51s11.65,6.62,5.49,15.16-12,9.49-7.7,15.76L129.61,153s-7.7,9.85-1.71,16.69a20.15,20.15,0,0,0,6.41,4.62l-.58-6.14,5.2,5.82-1.38-18.66s3.2,10.73,4.72,3.65-6-30.83-6-30.83l19,17.21c3.77-13.24-17.55-27.93-17.55-27.93l19.69,1.93-16-12.73,28.77-1.46c-8.53-11.26-38.39-5.61-38.39-5.61,13.5-10,50.64-13,50.64-13-24.37-12.37-69.66,1.63-69.66,1.63L147,65.58C117.46,60.55,87.39,89,87.39,89l17.79-22.33c-30.17,11.63-35.83,38-36,38.92l5.59-27.43C49.25,112.46,48.24,144.78,51.65,165Z"/><path class="cls-27" d="M55,116.35l10.14-11.26s-2.68,17.4,1.34,24.16c0,0-5.41-16.11,7.84-21.76S85.23,92.1,85.23,92.1s7,6.05,3.57,14.68-13.14,9-8.46,16.14c0,0,4.33-10.75,20.22-11.11s5-21.22,6.15-21.15,17.73.92,12,15.88-14.28,8.58-14.49,17.58c0,0,19.7-15.48,34.13-10.67,0,0-17.67,5.7-16.37,13.79,1.17,7.37,10.45-7.6,21.81-5a66.3,66.3,0,0,0-6.05-4.89l19.69,1.93-16-12.73,28.77-1.46c-8.53-11.26-38.39-5.61-38.39-5.61,13.5-10,50.64-13,50.64-13-24.37-12.37-69.66,1.63-69.66,1.63L147,65.58C117.46,60.55,87.39,89,87.39,89l17.79-22.33c-30.17,11.63-35.83,38-36,38.92l5.59-27.43A125.9,125.9,0,0,0,55,116.35Z"/><path class="cls-28" d="M216.71,85.64l0,0Z"/><path class="cls-29" d="M216.71,85.64l0,0Z"/><path class="cls-30" d="M118.5,143c-.07,2.52,51.09,13.84,43.35,40.71s-32.7,22.05-33.85,21.46l-20.25,20.37c4.17.34,80.23-19.34,80.23-19.34l-1.46,3.19L211,193.67,209.66,203l18.93-16.6s-8.57,11.65.59,7.14,27.71-30.66,27.71-30.66l-.38,30.82c18-7.63,13.43-38.38,13.43-38.38l16.85,18.8-1.59-24.5,29.29,24c4-16.75-30.86-38.19-30.86-38.19,23.88,3.52,62.8,33.57,62.8,33.57-10-31.51-68.82-59.55-68.82-59.55L335,120.63c-22.93-29.94-82.78-32.75-82.78-32.75L293.62,85c-41.67-16.77-75.79.06-76.91.63l0,0,0,0L251.86,67.9C150.82,77.69,118.57,140.44,118.5,143Z"/><path class="cls-31" d="M139.27,115.38c18.49-4.87,46.41-9.42,46.41-9.42s-25,8-30.09,21.53c0,0,6-9.63,25.36-6s20.82,7.76,20.82,7.76-25-6.47-30,6.71c0,0,18.83-3,27.89,5.6s25.25-3.48,25.29-3-4.17,12.64-18.08,14.09A118.44,118.44,0,0,0,181,158.52s21.86-4.46,33.7,5.45c0,0-25.92,3.06-30.22,19.81,0,0,13.15-8.8,18.29,2,4.09,8.58-9.65,10.69-12.46,15.78L185.57,210l23.1-11.56,1,4.61,18.93-16.6s-8.57,11.65.59,7.14,27.71-30.66,27.71-30.66l-.38,30.82c18-7.63,13.43-38.38,13.43-38.38l16.85,18.8-1.59-24.5,29.29,24c4-16.75-30.86-38.19-30.86-38.19,23.88,3.52,62.8,33.57,62.8,33.57-10-31.51-68.82-59.55-68.82-59.55L335,120.63c-22.93-29.94-82.78-32.75-82.78-32.75L293.62,85c-41.67-16.77-75.79.06-76.91.63L251.86,67.9C194.18,73.49,158.92,96.34,139.27,115.38Z"/><path class="cls-32" d="M195.21,237.82l7.85-22.58S187.47,226.77,195.21,237.82Z"/><path class="cls-33" d="M236.35,206.15l6.08,18.6C248,216.32,237.49,206.06,236.35,206.15Z"/><path class="cls-34" d="M174.19,90.18a47.63,47.63,0,0,1,22.38,2.44c24.82,8.61,49.82,2.08,49.82,2.08s1.22,9.12-13.89,12.24c-10.46,2.17-22.71,4.48-29.27,5.7,8-1.19,24.23-2.35,34.9,5.43,14.59,10.63,36.76,1.25,36.76,1.25s-.77,13.78-20.3,14.9a169.2,169.2,0,0,1-26.76-.75c11.52,2,29,6.42,32.19,15.21,4.87,13.31,2.57,19.88,2.57,19.88s-7.44-18.78-24.55-19.74S214.43,155,214.43,155s20.55-9,24.37,8.89-7.51,21-7.51,21,11.14-14.15-8.21-16.59-22.44,6.09-22.44,6.09,13.63-6.79,16.8,8.79a23.58,23.58,0,0,1-1.67,14.52l12.82-11.24s-8.57,11.65.59,7.14,27.71-30.66,27.71-30.66l-.38,30.82c18-7.63,13.43-38.38,13.43-38.38l16.85,18.8-1.59-24.5,29.29,24c4-16.75-30.86-38.19-30.86-38.19,23.88,3.52,62.8,33.57,62.8,33.57-10-31.51-68.82-59.55-68.82-59.55L335,120.63c-22.93-29.94-82.78-32.75-82.78-32.75L293.62,85c-41.67-16.77-75.79.06-76.91.63L251.86,67.9C219.19,71.07,193.71,79.77,174.19,90.18Z"/><path class="cls-35" d="M227.83,133.47c-6-1-10.31-1.42-10.31-1.42S221.52,132.8,227.83,133.47Z"/><path class="cls-36" d="M203.23,112.64c-2.92.43-4.72.86-4.72.86Z"/><path class="cls-37" d="M188,29.39l44.86-2.25C205.66,11.28,188,29.39,188,29.39Z"/><path class="cls-38" d="M159.46,1.23,152.75,0S129.15-1.34,130.08,12s16.6,10.31,14.44,18.53c0,0,9.5-1.41,1.43-9.42S141.61-1.26,159.46,1.23Z"/><path class="cls-39" d="M156.87,10l23-4.24C165.34-.2,156.87,10,156.87,10Z"/><path class="cls-40" d="M94.1,23.12l6.5,14C109.24,29,94.1,23.12,94.1,23.12Z"/><path class="cls-41" d="M260.27,38.86c-32.91,6.16-32,11-32,11s51.46-12.72,61.15,3.67,18.33.55,18.33.55-8.05,1.76-7.81-3C299.89,51.07,293.19,32.71,260.27,38.86Z"/><path class="cls-42" d="M360.85,60.12l-6.46,17.4C370,73.09,360.85,60.12,360.85,60.12Z"/><path class="cls-43" d="M389.1,108.73l17.24,4.58C399.13,98.45,389.1,108.73,389.1,108.73Z"/><path class="cls-44" d="M375.55,128.12s-1.63,14.8,10.66,14.74Z"/><path class="cls-45" d="M410.74,136.28,423,145.69C421.08,135.6,410.74,136.28,410.74,136.28Z"/><path class="cls-46" d="M386.1,187.53c12.74-4.42,18.27,5.06,18.31,5.58s2.76-12.8-11.6-17.85-18.24,5.61-23.27-1.7l-1.76-2.17S373.37,192,386.1,187.53Z"/><path class="cls-47" d="M368.07,189.21s-1.84,12.41,5,11.74Z"/><path class="cls-48" d="M143.21,207.18l1.38-5.88L139.9,206l.19-5.69-4.06,7,.12-7.19L132,207l-.32-6.44-2.93,5.81-1.19-5.87s-1.94,7.31-1.88,7.5l18.82,1.81,3-7.87Z"/><path class="cls-49" d="M306.34,241.41s-.54.27-1.45.64A4.24,4.24,0,0,0,306.34,241.41Z"/><path class="cls-50" d="M321.65,271.64c-7.51,5,23.39-3.51,26.17-10.05l3.2-15.51s.28-14-9.6-19.42-27.7-.84-39.11,3.48-13.22-4.65-13.22-4.65-4.88,11.19,4.45,14.95c6,2.41,9.56,2.12,11.35,1.61.91-.37,1.45-.64,1.45-.64a4.24,4.24,0,0,1-1.45.64c-2.8,1.15-9.09,3.24-13.3,1a22.33,22.33,0,0,1-2.59-1.52c-.15,3.24.48,13.17,14.28,10.58,16.43-3.07,24.22-7.75,28.67-1,0,0-11.55-6.19-16.7,1.83s-14.47,4.49-14.47,4.49,4.59,10.21,14.61,4.09,11.81-7.79,14.48-3.08c2.1,3.73.79,8.18.29,9.61-.07.22-.13.37-.15.43s0-.05.15-.43c.6-1.95,2.19-9.47-5.44-7.68-8.49,2-8.91,5.19-8.91,5.19S329.17,266.65,321.65,271.64Z"/><path class="cls-51" d="M330,268.55c0-.06.08-.21.15-.43C330,268.5,330,268.67,330,268.55Z"/><path class="cls-52" d="M321.65,271.64c-7.51,5,23.39-3.51,26.17-10.05l3.2-15.51a29.42,29.42,0,0,0-2.24-10.94c-7.87-5.91-16.86-10.08-24.93-7.51-20.15,6.4-12.77,7.8-22.66,7.38,0,0,2.37,6.4,12.25,2.64s19.63-6.34,26.59,4.14c0,0-12.81-7.2-18.93-1.49a20.79,20.79,0,0,1-13.36,5.56s5.84,1.61,15-1.21,16.37,4.28,16.67,9.15a14,14,0,0,1-1.5,7.79s-7.1-12.85-15.45-9.28-10.73,8.36-11.41,9.77a5.89,5.89,0,0,0-.35,1.34,12.7,12.7,0,0,0,4.66-1.83c10-6.12,11.81-7.79,14.48-3.08,2.1,3.73.79,8.18.29,9.61.6-1.95,2.19-9.47-5.44-7.68-8.49,2-8.91,5.19-8.91,5.19S329.17,266.65,321.65,271.64Z"/><path class="cls-53" d="M282.4,256.44c8.56,3.48,11.77-1,13.71,2.3,0,0-1.43-5.41-8.3-7s-11.6-6.17-11-10.84C276.77,240.92,273.84,253,282.4,256.44Z"/><path class="cls-54" d="M280,240.16c.76,5.56,7.77,7.3,7.77,7.3s-5.41-13.71-3.53-18C284.28,229.51,279.27,234.59,280,240.16Z"/><path class="cls-55" d="M263.72,241c.43,3.13,4.38,4.11,4.38,4.11s-3.05-7.72-2-10.11C266.11,235,263.29,237.82,263.72,241Z"/><path class="cls-56" d="M295.37,227.79c2.75,1.55,5.92-1,5.92-1s-8-2.26-9.24-4.55C292.05,222.25,292.61,226.23,295.37,227.79Z"/><path class="cls-57" d="M303.63,267.23a9.09,9.09,0,0,1-7.52-1.32c-3.48-2.58-6.4-1.26-6.4-1.26S296,271.68,303.63,267.23Z"/><path class="cls-58" d="M68.68,286.56c.45-.13,3.82-1.83,3.82-1.83a6.28,6.28,0,0,0,1.53.81c.83.28,2.63-1.1,2.63-1.1,1.72.47,3.44,3.29,3.44,3.29.22-3.22-1.59-6.19-3-6.69s-2.45,1-4.18.63-6.39.19-6.39.19l-3.25,2a2.94,2.94,0,0,0,.6,3C65.17,288.35,68.22,286.68,68.68,286.56Z"/><path class="cls-59" d="M108.4,285.31c2.89,1.42,4.44.17,4.44.17a9.81,9.81,0,0,0,4.56,1.79c2.45.18,1.89-9.1,2.34-9.81s16.67-14.81,18.45-23.54-8.12-37.46-8.12-37.46l-.66,30.86s-12.56,23.9-14.34,24.43-1.11,2.68-1.11,2.68S105.51,283.88,108.4,285.31Z"/><path class="cls-60" d="M158.15,260a19.72,19.72,0,0,1-5.26,3c-.06-.89-.11-1.73-.13-2.49-.19-5.53-4.12-27-9.76-32.46s-3.89-8.68-6.53-9.77l-.64-.35s-7.53-9.93-19-6.87a9.65,9.65,0,0,0-4.54,2.51h0l-.3.33-.1.11-.19.23-.1.14c0,.07-.11.14-.16.22l-.1.14-.15.23-.09.14-.13.24-.08.14c-.05.09-.09.17-.13.26l-.07.13c0,.1-.09.19-.13.29a.54.54,0,0,1,0,.11,14.11,14.11,0,0,0-.74,7v.05c0,.24.06.48.1.72v.09l.12.69,0,.1c0,.23.09.45.14.68l0,.1c0,.22.11.44.16.66l0,.09c0,.22.11.44.17.65l0,.08c.06.22.12.43.19.65l0,0c.14.44.29.86.44,1.27l0,0c.07.19.15.38.22.56l0,.07.22.51,0,.07c.08.16.15.32.22.47l0,.07.21.43,0,.06.21.39,0,0,.22.35v0l.22.32c2.53,3.45,14.5,26.23,18.61,29.46s8,4,10.8,8.16c1.48,2.21,4.57,4.4,7.18,5.78,2.35,2.38,4.91,4.3,7.09,4.34l.25,0H157l.21,0,.08,0,.29-.1h0l.31-.13.1-.05.25-.12.1-.06.35-.2h0l.35-.23.11-.07a3.06,3.06,0,0,0,.29-.21l.11-.07.41-.3,0,0,.39-.32.12-.09.34-.28.11-.1.45-.39,0,0,.44-.39.12-.12.38-.34.11-.11.5-.47,0,0,.47-.45a.8.8,0,0,1,.13-.13l.41-.41.11-.11.53-.54,0,0,.51-.53.13-.12.45-.48.1-.1.56-.6h0l.55-.59.11-.12c.17-.18.34-.36.5-.55l.07-.07,1.17-1.3.1-.1.55-.62,0,0,1.23-1.39,0-.06c3.22-3.66,6.48-7.54,9.29-10.79l0,0c.38-.45.76-.87,1.12-1.29l.11-.12.31-.36.13-.14.65-.74c2.65-3,4.63-4.93,5.37-4.89a6.15,6.15,0,0,1,2.77.85c3.2,6.09,8.17,15.56,9.54,18.32a17.22,17.22,0,0,1,1.27,9.14s-2.45-2.09-9.11-1.43c0,0-2.93-.67-3.34,1.28a1,1,0,0,1-.07.2,9.53,9.53,0,0,0-3.27.06c-1.9.87-1.83,1.34-1.83,1.34s-5.52.16-9.31,2a10.64,10.64,0,0,0-5,5.5s7.23-3.85,11.69-3.86c.6,0,1.12,0,1.58,0-2.12,1.69-4,3.56-4,5.37,0,0,9.23-5.47,12.37-5.23a5.29,5.29,0,0,0,1.36-.06,35.44,35.44,0,0,0,5.71,1.37,13.9,13.9,0,0,0,5.64-.81,14.51,14.51,0,0,0,3.61.32,21.66,21.66,0,0,0,4.48-.76s-1-4.45-.48-7.36-14-23.58-12.19-27.33,6.66.28,6.66.28-4.71-13.39-11.28-11.12a44.13,44.13,0,0,0-5.82,2.31,3.08,3.08,0,0,0-4.55-2.08c-1.36.87.38,5.62.38,5.62l-15.2,14S163.87,255.51,158.15,260Z"/><path class="cls-61" d="M142,269.79s6.77.89,12.48-1.43,9.28-1.78,9.28-1.78,7.84-5.17,5.17-7.31S148.8,248.57,143.45,248l-26.57,11.59s6.42,8.92,13,10.35A27.37,27.37,0,0,0,142,269.79Z"/><path class="cls-62" d="M50,287.45a8.92,8.92,0,0,0,3-.1,8.49,8.49,0,0,0,2.46-1s3.52.73,4.19.14,2.9-.53,2.9-.53a36.23,36.23,0,0,0,5.57-1c1.65-.59,3-2.93,2.59-3.47a8.92,8.92,0,0,0-1.12-1.07s-4,.19-4.68.93c0,0-3.21,1.12-4.41.92a4.52,4.52,0,0,0-2.77.25c-.4.29-.76.19-1.2.19a6.47,6.47,0,0,0-3.35.64c-1.11.73-5.08,1.37-6.64,2.2a4.49,4.49,0,0,0-2.54,4.25S46.88,288,48.44,288,50,287.45,50,287.45Z"/><path class="cls-63" d="M56.86,289.22a5.76,5.76,0,0,0,2.37-.09,6.16,6.16,0,0,0,1.91-1s2.76.71,3.28.14,2.27-.52,2.27-.52a23.67,23.67,0,0,0,4.36-1c1.29-.57,2.37-2.86,2-3.38a8,8,0,0,0-.87-1.05s-3.14.19-3.66.91c0,0-2.51,1.09-3.46.9a2.89,2.89,0,0,0-2.16.24c-.31.28-.59.19-.94.19a4.1,4.1,0,0,0-2.61.62c-.88.71-4,1.33-5.2,2.14a4.62,4.62,0,0,0-2,4.14s2.2-1.67,3.42-1.71S56.86,289.22,56.86,289.22Z"/><path class="cls-64" d="M65.34,283c.71,1,.09.29,2.49,1.17s3.57,3,4.82.68,1.51-5.47,3.39-6.93,1.16-5.38,1.16-5.38l-3.66-3.32c-.36.19-7.4,10.45-9.18,11.92S64.62,282,65.34,283Z"/><path class="cls-65" d="M323.85,267.82l-.13,0,.09,0Z"/><path class="cls-66" d="M331.24,262.08l-1,3.21s-3.68-1.54-4.08-1.54-2,3.52-2.3,4.07l10.33-3.14Z"/><path class="cls-67" d="M242.82,264.28l-4.48,12.51L253,280l31.93-.36,38.83-11.78a30.08,30.08,0,0,0-4.32-1.37c-.94-.07-2.48,2.54-2.48,2.54l-2.87-1.34-2.21,2.95L308.16,269l-1,3.08L304,270.1l-1.41,2.68-2.81-1.94-2.2,3.07-2.95-2.14-3,2.34L289.3,272l-3.21,3.08L283.82,272l-3.35,2.55L279,271.91,276.46,274l-1.2-2.47-2.48,2.27-.8-2.61-2.21,2.21-.13-3.08-3.08,3.15.27-3.82c-3.61-.2-2.88,3.55-3.21,3.15s.33-4.22.33-4.22c-1.74,0-3.41,2.48-3.41,2.48l.4-3a3.9,3.9,0,0,0-3.87,3.57v0l.46-5.65-2.47,1.81.53-3.21-3.81,2.54,1-4.08-5.28,3.48a43.57,43.57,0,0,1,1.94-4.88C249.77,261.34,242.82,264.28,242.82,264.28Z"/><path class="cls-68" d="M257.07,271.6v0Z"/><path class="cls-69" d="M211,235.55c-3.54-.58-6.24,3.15-7.51,4.28l2.34,1.42Z"/><path class="cls-70" d="M208.91,232.78c-4.11-.05-6.91,3.42-8.43,5.23l2.2,1.34C202.9,236.68,208.91,232.78,208.91,232.78Z"/><path class="cls-71" d="M206.68,230.82a11,11,0,0,0-9.93,4.91l2.56,1.56C200.52,234.15,206.68,230.82,206.68,230.82Z"/><path class="cls-72" d="M203.45,239.83l-.77-.48a.74.74,0,0,0,0,.21C202.69,240.3,203,240.26,203.45,239.83Z"/><path class="cls-73" d="M203.65,228.23a17,17,0,0,0-12.31,4.19l4.57,2.8C197.17,231.36,203.65,228.23,203.65,228.23Z"/><path class="cls-74" d="M200.48,238l-1.17-.72a3,3,0,0,0-.21,1C199.1,239.59,199.56,239.1,200.48,238Z"/><path class="cls-75" d="M195.71,236.17c-.15,1.84,0,1,1-.44l-.84-.51A4.47,4.47,0,0,0,195.71,236.17Z"/><polygon class="cls-76" points="116.88 210.49 119.02 211.11 126.06 211.74 124.73 200.32 121.61 208.17 121.87 200.59 116.88 210.49"/><path class="cls-77" d="M339.44,251.2c-.38.67-.6,1.11-.6,1.11Q339.17,251.76,339.44,251.2Z"/><path class="cls-78" d="M154.6,201.47c-5.59.35-10.4,6.59-10.4,6.59L184.48,231c.2.05,6.43,2,8-.13s6.08-4.26,6.08-4.26c-4.57-1.54-7.69,2.6-8.28,2.9-.24.21-.29.15,0,0a5.6,5.6,0,0,0,1.17-1.55c1-1.76,6.13-5.41,6.13-5.41-6.39-.1-11.54,8.43-9.16,4.26s7.49-5.56,7.49-5.56c-2.84-1.26-5.9.32-8.22,2.14a6.35,6.35,0,0,0-1.19,2.19c-1,3.69-2.76,1.28-2.55,1.33a46.74,46.74,0,0,1,3.74-3.52,18.83,18.83,0,0,1,5.68-4.29c-3.12-.24-6.91,1.88-9.32,3.47-2.26,3-2.57,1.82-2.37,1.71s1-.79,2.37-1.71c.12-.16.25-.33.38-.52,2.62-3.66,7.59-5,7.59-5-4.87-2.21-11.39,3.8-12,4.55s0,0,1.56-2,5.89-3.61,5.89-3.61c-5.63-1.67-10.15,4.38-8.12,2a26.49,26.49,0,0,1,6.1-4.67c-3.19-.83-6.39,1.43-8.21,3.08-1.17,2.51-1.54,1.57-1.54,1.57a17.08,17.08,0,0,1,1.54-1.57l.18-.41c1.32-3,6.93-4.8,6.93-4.8-3.5-1.18-8.05,2-10.49,4.08,0,.07,0,.13-.07.2-.86,3.16-1.65,1.37-1.65,1.37s.66-.68,1.72-1.57c1.06-3.08,7-5.66,7-5.66-6-1.36-10.94,6.6-9.21,3.35s7.16-4.46,7.16-4.46c-5.54-2-12.14,6-10.39,3.18s7.18-5,7.18-5c-6.49-.88-11.26,6.43-10.25,3.77s5.88-4.15,5.88-4.15c-6.28-1.86-10.2,5.61-9.22,2.74s5.49-3.88,5.49-3.88c-6.44-2-8.9,5-8.9,3s4.47-4,4.47-4c-5.43-.76-8.21,5-8,3.32s4.5-4.7,4.5-4.7c-5.47.23-9.71,6.66-8.55,4.41s6.23-4.95,6.23-4.95c-4.94-.57-10.1,6.23-10.36,6.46s-.47.52.68-1.49S154.6,201.47,154.6,201.47Z"/><path class="cls-79" d="M202.75,236.38c-5.59.35-10.4,6.59-10.4,6.59l40.28,23c.2.05,6.44,2,8-.12s6.09-4.27,6.09-4.27c-4.57-1.54-7.7,2.6-8.29,2.9-.24.21-.29.16,0,0a5.22,5.22,0,0,0,1.18-1.55c1-1.76,6.13-5.41,6.13-5.41-6.4-.09-11.55,8.43-9.16,4.26s7.49-5.55,7.49-5.55c-2.85-1.27-5.91.32-8.22,2.13a6.08,6.08,0,0,0-1.19,2.2c-1,3.69-2.76,1.28-2.56,1.33a45,45,0,0,1,3.75-3.53,18.7,18.7,0,0,1,5.68-4.29c-3.12-.23-6.92,1.88-9.32,3.48-2.27,3-2.58,1.81-2.38,1.7s1-.79,2.38-1.7l.38-.53c2.61-3.66,7.59-5,7.59-5-4.87-2.21-11.4,3.8-12,4.55s0,0,1.56-2,5.89-3.62,5.89-3.62c-5.64-1.66-10.15,4.39-8.12,2a26,26,0,0,1,6.1-4.67c-3.2-.84-6.39,1.42-8.22,3.07-1.16,2.51-1.53,1.57-1.53,1.57a17.68,17.68,0,0,1,1.53-1.57l.19-.41c1.31-3,6.92-4.8,6.92-4.8-3.49-1.18-8.05,2-10.49,4.08l-.06.2c-.87,3.16-1.66,1.37-1.66,1.37s.67-.68,1.72-1.57c1.07-3.07,7-5.66,7-5.66-6-1.36-10.94,6.6-9.2,3.35s7.15-4.46,7.15-4.46c-5.53-2-12.14,6-10.38,3.18s7.18-5,7.18-5c-6.49-.89-11.26,6.42-10.25,3.76s5.87-4.15,5.87-4.15c-6.28-1.86-10.2,5.61-9.22,2.74s5.49-3.88,5.49-3.88c-6.43-2-8.9,5-8.9,3s4.47-4,4.47-4c-5.42-.76-8.2,5-8,3.32s4.5-4.69,4.5-4.69c-5.46.22-9.71,6.65-8.55,4.4s6.24-4.95,6.24-4.95c-4.94-.57-10.1,6.23-10.36,6.47s-.47.51.68-1.49S202.75,236.38,202.75,236.38Z"/><path class="cls-80" d="M288.18,274.45c-40.84,4.06-95.2-50-123.26-63.88s-66.77,1.09-67,1.74l6.6,9.79c-8.48,3.05,4.21,30.89,4.21,30.89,11.74.21,17.9,14.79,24.43,15.87s36.54-4.78,36.54-4.78,54.16,17.83,87.22,20.23,103-8.8,97.14-38.82-29.78-20.78-29.78-20.78c4.35-1.09,16.16-.48,22.25,8.87S354.8,267.83,288.18,274.45Z"/><path class="cls-81" d="M103.86,239.37s1.84,11.6,6.48,10.92c0,0,6.58-16.14,4.83-21.46s-17.11-9.67-19.81-9.09-10.83-1-14.79,2-4,3.58-5.42,4.64l-.58,8c.1.29,3.87-.68,4.16-1s2.22.1,3.48-1.35,2.9,0,4.25-1.16,1.94.19,3.77-1,.78.29,3.58-.29,3.19,1.16,6.28,1.16c0,0,.78,2.71,2.32,3.29C102.41,234.15,101.93,237.53,103.86,239.37Z"/><path class="cls-82" d="M78.82,233.42c.29-.12,1.09-.08,1.93-.35l-1.52-3.63Z"/><path class="cls-83" d="M102,233.92a2.55,2.55,0,0,0,.43.23s-.48,3.38,1.45,5.22c0,0,1.84,11.6,6.48,10.92,0,0,.39-.95,1-2.46a4.41,4.41,0,0,1-2.44-1.87c-2.14-3,4.75-8.16,4.75-8.16l-6.37,2.51c-.84-3.11,2.39-5.95,4.19-7.25l-5.44,3.6c-2.69,1.61,1.75-7.26,2.07-7.55Z"/><path class="cls-84" d="M108.05,229.11s0,0,0,0Z"/><path class="cls-85" d="M112.53,232.31s-.46.27-1.11.75Z"/><path class="cls-86" d="M97.35,226.09c-1.25-.19-1.81,1.62-2,3.52a9.94,9.94,0,0,1,2.48.84C98.4,228.68,98.91,226.34,97.35,226.09Z"/><path class="cls-87" d="M92,225.09s-.71,2.4-1.36,4.66c1-.53.81,0,1.85.09A30.74,30.74,0,0,0,92,225.09Z"/><path class="cls-88" d="M84.46,231.44a6.16,6.16,0,0,0-2-3.14l.27,3.39A3,3,0,0,1,84.46,231.44Z"/><path class="cls-89" d="M88.85,230.49a7.71,7.71,0,0,0-2.07-3.73L86.42,231l0,0C87.41,230.15,88,230.56,88.85,230.49Z"/><path class="cls-90" d="M103.84,227.43c-.41,0-2.94,1.88-4.81,3.35a6.83,6.83,0,0,0,1.06.08,8.13,8.13,0,0,0,1.13,2.31C102.93,231.39,104.38,227.48,103.84,227.43Z"/><path class="cls-91" d="M109.21,214.29c-.18.11,2.78.46.75-2.78a6.18,6.18,0,0,1-.81-2.36A46.6,46.6,0,0,0,109.21,214.29Z"/><path class="cls-92" d="M106.09,211.27c-.26,1.63-.34,2.82-.36,2.9S106.77,215,106.09,211.27Z"/><path class="cls-93" d="M115.41,211.39c-.09.32,0,.32,0,0Z"/><path class="cls-94" d="M93.73,216.14s1.86.64.12-2.14a1.62,1.62,0,0,1-.1-.18C93.69,215.2,93.73,216.14,93.73,216.14Z"/><path class="cls-95" d="M97,214.29s.94.36-.11-2.19A15.28,15.28,0,0,0,97,214.29Z"/><path class="cls-96" d="M68.4,230.75l44.17-14.08c.17-.12,5.85-3.37,5.33-6s1-7.37,1-7.37c-4.23,2.32-3.31,7.42-3.48,8.06,0,.32-.09.32,0,0a5.59,5.59,0,0,0-.35-1.91c-.64-1.91.18-8.17.18-8.17-4.41,4.63-1.63,14.2-3.08,9.62s1-9.28,1-9.28c-2.86,1.24-3.76,4.57-4,7.5a6.18,6.18,0,0,0,.81,2.36c2,3.24-.93,2.89-.75,2.78a46.6,46.6,0,0,1-.06-5.14,18.68,18.68,0,0,1,.7-7.09c-2.29,2.14-3.31,6.36-3.76,9.21.68,3.71-.41,3.12-.36,2.9s.1-1.27.36-2.9c0-.2-.08-.41-.13-.63-.93-4.41,1.45-9,1.45-9-4.93,2.09-4.93,11-4.81,11.94s0,0-.41-2.49,1.34-6.78,1.34-6.78c-5,3-3.65,10.43-4.06,7.3a26,26,0,0,1,.7-7.65c-2.78,1.79-3.28,5.67-3.3,8.13,1,2.55.11,2.19.11,2.19a15.28,15.28,0,0,1-.11-2.19c-.06-.14-.12-.27-.18-.42-1.33-3,1.16-8.35,1.16-8.35-3.24,1.78-4,7.31-4.1,10.49a1.62,1.62,0,0,0,.1.18c1.74,2.78-.12,2.14-.12,2.14s0-.94,0-2.32c-1.55-2.87.56-9,.56-9-5,3.48-2.55,12.52-3.77,9s1.57-8.29,1.57-8.29c-5.22,2.73-3.83,13-4.7,9.8s1.22-8.64,1.22-8.64c-5,4.18-2.9,12.64-4.17,10.09s.93-7.13.93-7.13c-5.63,3.36-2.79,11.3-4.24,8.64s.87-6.67.87-6.67c-5.85,3.36-2.37,9.91-3.82,8.58s.11-6,.11-6c-4.23,3.48-1.85,9.45-3,8.11s-.41-6.49-.41-6.49c-3.53,4.18-1.68,11.65-2.55,9.28s.58-7.94.58-7.94c-3.77,3.24-2.26,11.65-2.26,12s.06.7-.64-1.5.53-9.1.53-9.1C67.07,223,68.4,230.75,68.4,230.75Z"/><path class="cls-97" d="M184.05,222.58c-1.38.92-2.3,1.67-2.37,1.71S181.79,225.59,184.05,222.58Z"/><path class="cls-98" d="M190.28,229.52c-.29.15-.24.21,0,0Z"/><path class="cls-99" d="M184,226.92c-.21,0,1.54,2.36,2.55-1.33a6.35,6.35,0,0,1,1.19-2.19A46.74,46.74,0,0,0,184,226.92Z"/><path class="cls-100" d="M175.66,217.93s.37.94,1.54-1.57A17.08,17.08,0,0,0,175.66,217.93Z"/><path class="cls-101" d="M172.1,216.8s.79,1.79,1.65-1.37c0-.07.05-.13.07-.2C172.76,216.12,172.1,216.8,172.1,216.8Z"/><path class="cls-102" d="M232.1,261.84c-.2,0,1.55,2.36,2.56-1.33a6.08,6.08,0,0,1,1.19-2.2A45,45,0,0,0,232.1,261.84Z"/><path class="cls-103" d="M232.21,257.5c-1.38.91-2.3,1.66-2.38,1.7S229.94,260.5,232.21,257.5Z"/><path class="cls-104" d="M238.43,264.43c-.29.16-.24.21,0,0Z"/><path class="cls-105" d="M220.25,251.71s.79,1.79,1.66-1.37l.06-.2C220.92,251,220.25,251.71,220.25,251.71Z"/><path class="cls-106" d="M223.82,252.84s.37.94,1.53-1.57A17.68,17.68,0,0,0,223.82,252.84Z"/><path class="cls-107" d="M115.09,234.17,120,207.39a122.34,122.34,0,0,0-31.13,4.44s-10.74,3-20.54,16.78l-.23.34-1,7.92s20.78-13.74,33.38-13.22S115.09,234.17,115.09,234.17Z"/><path class="cls-108" d="M100.48,223.65c12.61.52,14.61,10.52,14.61,10.52l.59-3.23c0-.12,0-.24-.07-.37-1.14-5.35-6.62-6.35-6.62-6.35-2.54-3.68-7.89-1.94-7.89-1.94-3.88-2-9.37,1-9.37,1a6.59,6.59,0,0,0-6.62,2.34c-3-.6-8.76,3.88-8.76,3.88l8.19-2C90,225.23,95.8,223.46,100.48,223.65Z"/><path class="cls-109" d="M67,242.34c1-.49,1-1.39.14-1.85s0-.76-1.76-.4-6.22,1.53-6.22,1.53a5.31,5.31,0,0,0-1.53.86,21,21,0,0,0-2.52,2.2l-1.44,7.93A6.06,6.06,0,0,0,57,254s-1.89-1.85-1.89-2,.36-.59.36-.59l2.93,1.4-1.71-2.57.18-.4a4.56,4.56,0,0,0,2.52,1.53l-1.53-1.85.36-1s1.31,1.81,2.57,1.81l-1.58-2.71a3,3,0,0,0,2.57,1.08,16.94,16.94,0,0,1-2.21-2.2c0-.27-.85-1.4.09-.81s1.76,2.65,4.73,2.7c0,0-2.66-1.85-2.88-3.7a4.32,4.32,0,0,0-.22-1c.49.73,1,1.88,2.34,2l-1.21-1.66a1.55,1.55,0,0,0,1.84.49l-1.76-1.8a4.66,4.66,0,0,0,2.7.94l-1.62-1.12,2.48.72-1.71-1.58S65.91,242.84,67,242.34Z"/><path class="cls-110" d="M71.67,243.43l-4.91-4.64L63.24,241c.23.05,6,2.71,6.49,6S71.67,243.43,71.67,243.43Z"/><path class="cls-111" d="M70.22,246c8-3.2,2.17-5.85,2.17-5.85l-2.17,1.66s-5.09,3-6.48,6.9-.86,6.08-.86,6.08S62.25,249.15,70.22,246Z"/><path class="cls-112" d="M63.5,255.25l.21,1.53,5-2.61c1.38-.81,1.35-1.8,1.71-2.56a38.09,38.09,0,0,1,1.63-3.9c.9-1.65.36-2.79.45-4.14s-.9-1.57-1.17-1.87-.46.12-.88.27-.21,1-.21,2.2-.54.45-.6,1.35-.69.6-.81,1.62,0,0-.33,1a5.15,5.15,0,0,0-.3,1.2c-.15.63-.63.27-.6.84s-.84.3-.81,1.05-1.23.09-1.26,1.33-.66.18-.54,1-.39.54-.06.84S63.5,255.25,63.5,255.25Z"/><path class="cls-113" d="M62.43,242.71a2.53,2.53,0,0,1,.28.35C62.38,242.17,61.94,242.21,62.43,242.71Z"/><path class="cls-114" d="M68.38,241.67c1-.49,1-1.39.13-1.84s0-.77-1.75-.41S60.54,241,60.54,241a5.31,5.31,0,0,0-1.53.86A20.31,20.31,0,0,0,56.48,244L55,251.94a6.12,6.12,0,0,0,3.38,1.4s-1.89-1.85-1.89-2,.36-.59.36-.59l2.93,1.4-1.71-2.57.18-.4a4.52,4.52,0,0,0,2.52,1.53l-1.53-1.85.36-1s1.3,1.81,2.56,1.81l-1.57-2.71A3,3,0,0,0,63.2,248,17.05,17.05,0,0,1,61,245.82c0-.27-.86-1.4.09-.81s1.76,2.65,4.73,2.7c0,0-2.66-1.85-2.88-3.69a4.43,4.43,0,0,0-.22-1,2.53,2.53,0,0,0-.28-.35c-.49-.5,0-.54.28.35.49.73,1,1.88,2.33,2l-1.2-1.66a2.87,2.87,0,0,1-.33-.46l.33.46a1.53,1.53,0,0,0,1.83.49l-1.75-1.8a4.66,4.66,0,0,0,2.7.94L65,241.9l2.48.72L65.76,241S67.34,242.17,68.38,241.67Z"/><path class="cls-115" d="M63.84,243.39l-.33-.46A2.87,2.87,0,0,0,63.84,243.39Z"/><path class="cls-116" d="M65.39,255.49c-1.68-.27-2.55-2.4-2.55-2.4a2.34,2.34,0,0,0,1.23,2.82Z"/><path class="cls-117" d="M65.57,254.54a8.34,8.34,0,0,1-1.74-1.23,2.72,2.72,0,0,0,1,1.58Z"/><path class="cls-118" d="M66.16,253.58c-.87-.14-2-1.92-2-1.92a2.72,2.72,0,0,0,1.35,2.49Z"/><path class="cls-119" d="M67.81,252.28c-1.82-.13-4-2.9-4-2.9a5.59,5.59,0,0,0,2.1,3.78Z"/><polygon class="cls-120" points="65.67 249.96 67.25 251.85 68.08 251.16 65.67 249.96"/><path class="cls-121" d="M66.48,249.51l1.27,1,.87-.2A3.62,3.62,0,0,0,66.48,249.51Z"/><path class="cls-122" d="M67,248.7l1.23.81,1.2.11C68.94,248.54,67,248.7,67,248.7Z"/><path class="cls-123" d="M67.57,248l1.17.57.85-.59A1.41,1.41,0,0,0,67.57,248Z"/><path class="cls-124" d="M70.38,246.58c-.92-.69-2.12.23-2.18.23s1.08.54,1.08.54Z"/><path class="cls-125" d="M68.76,245.34l1.26.57.38-.52C69.21,244.76,68.76,245.34,68.76,245.34Z"/><path class="cls-126" d="M69,244.22l1.26.58.7-.51C70.27,243.32,69,244.22,69,244.22Z"/><path class="cls-127" d="M74.3,240.61l-2.38-4.48L65,240s5.56,1.84,5.67,5.35S74.3,240.61,74.3,240.61Z"/><path class="cls-128" d="M73,242.55a4.84,4.84,0,0,0-1.08-1.8c-1-1.24-3.74-1-3.74-1s-.86,0,1.3.52a3.4,3.4,0,0,1,2.64,2s0,.88-.9-.38-4.58-2.07-2.21-.61,2.14,3.42,2.14,3.42Z"/><path class="cls-129" d="M67.67,251.44a47.41,47.41,0,0,1-3.33,4.63l-1.56.47s.22.63,2.82,1.73a10.32,10.32,0,0,0,5.57.43s-1.86-1.28-1.55-2.45a21,21,0,0,1,2.64-5.82c1.58-2.47,3.85-4,5.08-10.79s-3-9-3-9l-3.15,6.64c.06.19-.39,7.6-1,8.82S68.9,249.38,67.67,251.44Z"/><path class="cls-130" d="M66.07,234.24c5.81-.94,21.27-.62,21.27-.62-8.19-1.31-3.29-8.1-3.29-8.1-8.74.56-7.28-5.86-7.28-5.86-6.61,1.65-11.12-2.91-12.4-4.54,1.29,2.15,2.7,4.81,2.7,7.42a2.26,2.26,0,0,1-2.42,2.52l0,.27-1.75,6.6S60.26,235.17,66.07,234.24Z"/><path class="cls-131" d="M66,229.45,70,233.84c5.36-.33,12.74-.29,15.84-.25-3.81-1.72-9.17-1.61-12.13-1.37l.17-.25c1.08-1.74,9.79-6.12,9.79-6.12-6,.9-14.48,5.28-14.48,5.28l7.54-11.47Z"/><path class="cls-132" d="M59.68,236c-.62.22-1.13,1.61-2,2.14s-1.14,2-1.78,2.37S52,245.41,52,245.41c-1.79-1.22-2.37-4.9-2.37-4.9C47.92,247.43,55,258.7,55,258.7s-.8-5.2,1.42-6.5,3.61-2.77,5.43-5.91,6.84-6.46,9.29-6.85,6.72-3.07,4.76-7.43-7.7-2.68-7.7-2.68c2-6.31-2.15-12.19-4-14.37,2.25,4-3.21,15.07-4.5,17.82C58.31,235.78,60.29,235.78,59.68,236Z"/><path class="cls-133" d="M54.94,243.78c-2.65.09-2.89,4.95-2.89,4.95-1.92-1.47-2.35-6.5-2.44-8-1.57,6.94,5.39,18,5.39,18s-.8-5.2,1.42-6.5,3.61-2.77,5.43-5.91c1.72-3,6.34-6.13,8.9-6.77l.1-.16a3.54,3.54,0,0,0-3.39.87c-1.41,1.47-2.64.9-4.65,3s-2.47,5.17-3.67,4.72-3.93.36-3.93.36S57.58,243.69,54.94,243.78Z"/><path class="cls-134" d="M54.55,247.88s.87-2.48-.18-2.08-1.34,2.8-1.31,2.77C54,247.35,54.55,247.88,54.55,247.88Z"/><path class="cls-135" d="M58.58,242.8c-.25-3-2.88-.29-2.88-.29C57.9,241.06,58.58,242.8,58.58,242.8Z"/><path class="cls-136" d="M60.18,239.33c-1.67-.86-2.55,1.08-2.55,1.08,1.44-1.37,3.29.05,3.29.05S61.84,240.19,60.18,239.33Z"/><path class="cls-137" d="M71.08,248.34c1-1.22.54-4.68.54-4.68s0,2.83-.86,3.91a17.47,17.47,0,0,0-2.34,4.69A9.64,9.64,0,0,1,65,256.49s3.74-1,4-2.83A12.42,12.42,0,0,1,71.08,248.34Z"/><path class="cls-138" d="M61.83,237.08c.07.48,1.37,1.17,1.37,1.17a1.86,1.86,0,0,0,1.53-.81s-.08.09-1-.51-.66-2.56-.66-2.56S61.75,236.6,61.83,237.08Z"/><path class="cls-139" d="M67.9,235.41c.79-.27,1-1.28,1.11-1.89,0-.36.43-.55.75-.65l-.44.06c-.58.07-.54.9-1,1.38s-.88,0-2.19.94A5.94,5.94,0,0,0,64.25,238a6.2,6.2,0,0,0,1.87-.76C66.69,236.81,67.12,235.68,67.9,235.41Z"/><path class="cls-140" d="M69.76,232.87l.42-.09A2.51,2.51,0,0,0,69.76,232.87Z"/><path class="cls-141" d="M68,236.67A4.18,4.18,0,0,1,66.18,238a13.49,13.49,0,0,1-2.17.37s2,.44,2.84-.15A3.22,3.22,0,0,0,68,236.67Z"/><path class="cls-142" d="M100.75,260.36c-6.53,3-22.77,6.36-23.93,7.31s-1.81-.24-2.83.24-1.37,3.1-2.39,4.61,3.26,3.73,4.57,4.13,1.09-1.75,2.46-2.15,39.45-7.7,44.59-7.78,7.4-1,8-2.23-.8-4.53-.8-4.53l-1.71-22.27s1.93-5.72-1.16-14.19-3.1-13.25-6.87-13.25l-.11-.32s-7.61-.72-9.13,4.52,4.13,32.9,5.87,35.76,1.52,4.76,1.52,4.76S107.27,257.34,100.75,260.36Z"/><path class="cls-143" d="M200.68,289c4.42.6,4.68,0,5.82-.4s7.09,3.21,10.84,4.15,8.22-.67,8.22-.67l2-1.87-4.41-.94s-15.32-5.22-17.33-4.62-2,1.07-2,1.07-5.49-.6-9.5.74a10.66,10.66,0,0,0-5.75,4.75S196.27,288.36,200.68,289Z"/><path class="cls-144" d="M212.65,284s-2.8-1.07-3.47.81-11,4.94-11.64,9.09c0,0,9.9-4.15,13-3.48s3.62-1.33,4-1.2,8.83,4.15,12,4.28a22.39,22.39,0,0,0,4.54-.13s-.4-4.55.54-7.36-10.57-25.28-8.29-28.76,6.55,1.2,6.55,1.2-2.81-13.91-9.63-12.57-6.82,1.87-6.82,1.87l-.94,4.55s7.49,20.73,9,25.15a17.19,17.19,0,0,1,0,9.23S219.34,284.28,212.65,284Z"/><path class="cls-145" d="M144.26,237.51l25.86-4.73s4.63-4.81,3.74-8.92-4.1-6-13.28-13.91-21.94-4.55-23.64.09-5,12.31-2.49,19.62S142.74,237.33,144.26,237.51Z"/><path class="cls-146" d="M170.5,229.56c-4.83-6.24-2.65-9.14-5.12-10.59l-.58-.43s-6.09-10.88-17.84-9.43-8.84,17-6.81,20.74,10.73,28,14.35,31.75,7.4,5.08,9.58,9.57c1.15,2.39,3.91,5,6.3,6.72,2,2.69,4.28,4.94,6.43,5.28,5.7.89,32.28-26.94,35.13-26.4A7.4,7.4,0,0,1,216.4,260s1.2-.18,1.74-2.32-3.75-6.29-3.88-9.63-2.81-4-4.28-3.34-.4,5.61-.4,5.61l-17,11.78s-5.22-2.41-11.5,1.2a19.43,19.43,0,0,1-5.63,2.25c.07-.89.14-1.72.22-2.48C176.26,257.54,175.32,235.79,170.5,229.56Z"/><path class="cls-147" d="M138.32,219.45a22.48,22.48,0,0,0,1.83,10.4c2,3.77,10.73,28,14.35,31.75s7.4,5.08,9.58,9.57c1.15,2.39,3.91,5,6.3,6.72,2,2.69,4.28,4.94,6.43,5.28,4.26.66,20.19-14.72,29.15-22.3l-27.1,17.21a7.17,7.17,0,0,0-2.23-6.06c-2.77-2.32-5.71-.45-6.16-.45s-2.67-1.34-3.83-4.55,2.68-6.51,2.68-16.14-9.81-21.4-9.81-21.4a23.33,23.33,0,0,1,3.56,14.45c-.89,8-1.25,13-1.25,13s-4.45-14.63-8.38-24.08c-2.82-6.79-8.39-16.8-11.31-21.9a8.57,8.57,0,0,0-2.35,2.82c2.95,6.27,8.25,17.54,8.31,17.92S142,224,138.32,219.45Z"/><path class="cls-148" d="M153.13,216.86l7,21C161,227.3,153.13,216.86,153.13,216.86Z"/><path class="cls-149" d="M183.29,267.16a5.14,5.14,0,0,0,6.29-.8Z"/><path class="cls-150" d="M219.43,285.38h0l2,1.22A7,7,0,0,0,219.43,285.38Z"/><path class="cls-151" d="M214.88,258.85c2.32,6.47,5.67,15.81,6.6,18.61a17.1,17.1,0,0,1,0,9.2l2.58,1.59,1.34-8.74-5.89-16.86,2.77,13.83-5.62-18.73Z"/><path class="cls-152" d="M100.75,260.36c-5.23,2.42-16.67,5-21.63,6.48l-2.28,4.69c.24,0,.51,0,.8,0,5-.19,25.77-4.79,25.77-4.79l-16.94,1.86s16.23-5.37,20.69-6.16,12.4-1.07,12.66-2.63a43.15,43.15,0,0,0-.09-6.26s.45-7.23,2.59-9.57.45-14.66.45-14.66l3.21,7.23s-1.52-13.39-4.28-16.91c-1.88-2.39-6.11-5.82-8.62-7.77a5.28,5.28,0,0,0-.82.88l4.53,9.24-5.45-7.2c-1.23,6,4.25,32.62,6,35.43s1.52,4.76,1.52,4.76S107.27,257.34,100.75,260.36Z"/><path class="cls-153" d="M76.84,271.53l6.2-5.72v0a36,36,0,0,0-6.21,1.89c-1.16.95-1.81-.24-2.83.24s-1.37,3.1-2.39,4.61c-.75,1.12,1.4,2.63,3.1,3.5C74,274.22,76.84,271.53,76.84,271.53Z"/><path class="cls-154" d="M108.11,286.78c1.72-.23,2.9-.27,3.23-.32s1.72.63,2.21.54.73,0,1.84-.13,2,.62,3.51.62,3.6-.89,4.42-.89a32.1,32.1,0,0,1,5.07.93,4.06,4.06,0,0,1,1.51.85s-.25-3.3-2.41-4.19-1.56-1.29-2.5-1.65-.45,0-1.59,0-3.64-1.3-3.8-1.21l-10.43.4c-.16.05-4.25,1.12-5.48,2.05s-4.41,1.43-5.19,2.41A11,11,0,0,1,97,287.76s4.09-.58,5.35-.63a6.16,6.16,0,0,0,2-.35A19.41,19.41,0,0,0,108.11,286.78Z"/><path class="cls-155" d="M186.39,239.29s3.3,1.16,4.91-.45-3-6.06-3-6.06l-.36-.27s1.07,1,1.43,4.37S186.39,239.29,186.39,239.29Z"/><path class="cls-156" d="M189.34,245.44s3.29,1.16,4.9-.44-3-6.07-3-6.07l-.36-.26s1.07,1,1.43,4.37S189.34,245.44,189.34,245.44Z"/><path class="cls-157" d="M184.21,248.25s3.3,1.16,4.9-.44-3-6.07-3-6.07l-.36-.26s1.07,1,1.43,4.37S184.21,248.25,184.21,248.25Z"/><path class="cls-158" d="M182.07,241.74s3.3,1.16,4.9-.44-3-6.07-3-6.07l-.36-.26s1.07,1,1.43,4.37S182.07,241.74,182.07,241.74Z"/><path class="cls-159" d="M181.09,235.46s3.3,1.16,4.9-.45-3-6.06-3-6.06l-.36-.27s1.07,1,1.43,4.37S181.09,235.46,181.09,235.46Z"/><path class="cls-160" d="M195,243.83s2.83.81,4.2-.32-2.59-4.25-2.59-4.25l-.31-.19s.92.69,1.22,3.07S195,243.83,195,243.83Z"/><path class="cls-161" d="M190.79,250.56s2.5,1.53,4.12.8-1.37-4.79-1.37-4.79l-.25-.26s.7.91.37,3.28S190.79,250.56,190.79,250.56Z"/><path class="cls-162" d="M195.49,248.53s2.78,1.39,4.43,1-1.86-3.79-1.86-3.79l-.28-.23a3.16,3.16,0,0,1,.66,2.55C198.29,249.83,195.49,248.53,195.49,248.53Z"/><path class="cls-163" d="M178.86,245.23s2.78,1.39,4.43,1-1.86-3.79-1.86-3.79l-.28-.22a3.13,3.13,0,0,1,.66,2.54C181.66,246.53,178.86,245.23,178.86,245.23Z"/><path class="cls-164" d="M184.52,252.85s2.78,1.39,4.43,1-1.86-3.8-1.86-3.8l-.28-.22a3.14,3.14,0,0,1,.67,2.55C187.33,254.15,184.52,252.85,184.52,252.85Z"/><path class="cls-165" d="M190.86,255.53s2.77,1.39,4.42,1-1.86-3.79-1.86-3.79l-.28-.22a3.11,3.11,0,0,1,.67,2.54C193.66,256.83,190.86,255.53,190.86,255.53Z"/></g></g></svg>