<svg id="Layer_1" enable-background="new 0 0 512 512" height="512" viewBox="0 0 512 512" width="512" xmlns="http://www.w3.org/2000/svg"><g><path d="m459.708 393.867h-16c-13.071 0-24.696 6.303-32 16.028-7.304-9.725-18.929-16.028-32-16.028h-16c-4.418 0-8 3.582-8 8s3.582 8 8 8h16c-4.418 0-8 3.582-8 8s3.582 8 8 8h16c4.411 0 8 3.589 8 8 0 4.418 3.582 8 8 8s8-3.582 8-8c0-4.411 3.589-8 8-8h16c4.418 0 8-3.582 8-8s-3.582-8-8-8h16c4.418 0 8-3.582 8-8s-3.581-8-8-8z" fill="#464646"/><g><path d="m331.708 303.2c17.673 0 32-14.327 32-32v-32c0-26.51 21.49-48 48-48v96c0 17.673-14.327 32-32 32h-48z" fill="#788c9b"/></g><g><path d="m274.335 296.573c-12.496-12.497-32.758-12.497-45.254 0l-64 64c-6.002 6.001-9.373 14.141-9.373 22.627v64c-17.673 0-32 14.327-32 32 0 8.837 7.163 16 16 16h64c8.837 0 16-7.163 16-16v-32-50.745l54.627-54.627c12.497-12.497 12.497-32.759 0-45.255z" fill="#788c9b"/></g><g><path d="m203.708 303.2h128v32h-128z" fill="#323232"/></g><g><path d="m395.708 447.2c0-8.189-3.124-16.379-9.373-22.627l-54.627-54.627v-66.746c0-17.673-14.327-32-32-32s-32 14.327-32 32v80c0 8.487 3.371 16.626 9.373 22.627l41.373 41.373h-2.746c-17.673 0-32 14.327-32 32 0 8.837 7.163 16 16 16h80c8.837 0 16-7.163 16-16z" fill="#aac3d7"/></g><g><path d="m187.708 431.2c-17.673 0-32-14.327-32-32v-16c0-8.487 3.372-16.626 9.373-22.627l64-64c12.497-12.497 32.758-12.497 45.255 0s12.497 32.758 0 45.255l-54.627 54.627v2.745c-.001 17.673-14.328 32-32.001 32z" fill="#323232"/></g><g><path d="m315.708 431.2c-8.189 0-16.379-3.124-22.627-9.373l-16-16c-6.001-6.001-9.373-14.141-9.373-22.627v-80c0-17.673 14.327-32 32-32s32 14.327 32 32v66.745l6.627 6.627c12.497 12.497 12.497 32.758 0 45.255-6.248 6.249-14.437 9.373-22.627 9.373z" fill="#464646"/></g><path d="m467.708 95.2h-8c0-4.418-3.582-8-8-8s-8 3.582-8 8h-8c-13.233 0-24 10.766-24 24v16c0 4.418 3.582 8 8 8s8-3.582 8-8v-8c0 4.418 3.582 8 8 8s8-3.582 8-8v-16h16v16c0 4.418 3.582 8 8 8s8-3.582 8-8v8c0 4.418 3.582 8 8 8s8-3.582 8-8v-16c0-13.234-10.766-24-24-24z" fill="#464646"/><path d="m123.708 247.2h-16c-13.071 0-24.696 6.303-32 16.028-7.304-9.725-18.929-16.028-32-16.028h-16c-4.418 0-8 3.582-8 8s3.582 8 8 8h16c-4.418 0-8 3.582-8 8s3.582 8 8 8h16c4.411 0 8 3.589 8 8 0 4.418 3.582 8 8 8s8-3.582 8-8c0-4.411 3.589-8 8-8h16c4.418 0 8-3.582 8-8s-3.582-8-8-8h16c4.418 0 8-3.582 8-8s-3.581-8-8-8z" fill="#464646"/><g><path d="m91.708 15.2h32c8.837 0 16 7.163 16 16h-48c-4.418 0-8-3.582-8-8 0-4.418 3.582-8 8-8z" fill="#aac3d7"/></g><g><path d="m315.708 159.2v-16c0-26.51-21.49-48-48-48v64h-32-80v-56c0-4.418-3.582-8-8-8h-8v-16-48h-48v32c0 8.837 7.163 16 16 16v16h-8c-4.418 0-8 3.582-8 8v88c0 17.673 14.327 32 32 32h80v80h128v-32l2.564-3.846c8.761-13.141 13.436-28.582 13.436-44.376v-63.778z" fill="#788c9b"/></g><g><path d="m131.708 47.2h-20c-2.209 0-4 1.791-4 4 0 6.627 5.373 12 12 12h4c0 8.837 7.164 16 16 16v-24c0-4.418-3.582-8-8-8z" fill="#aac3d7"/></g><g><path d="m331.708 31.2v16h-12c-2.209 0-4 1.791-4 4 0 6.627 5.373 12 12 12h4c0 8.837 7.163 16 16 16v16h32v-16-48z" fill="#788c9b"/></g><g><path d="m363.708 15.2h-32c-4.418 0-8 3.582-8 8s3.582 8 8 8h32v32c0 8.837 7.164 16 16 16v-48c0-8.837-7.163-16-16-16z" fill="#aac3d7"/></g><g><path d="m387.708 95.2h-48c-4.418 0-8 3.582-8 8v56c-17.673 0-32 14.327-32 32s14.327 32 32 32h32c17.673 0 32-14.327 32-32v-88c0-4.418-3.582-8-8-8z" fill="#aac3d7"/></g><g><path d="m187.708 199.2v40c0 8.837 7.163 16 16 16h8c8.837 0 16-7.163 16-16v-40c0-4.418-3.582-8-8-8h-24c-4.418 0-8 3.582-8 8z" fill="#aac3d7"/></g><g><path d="m243.708 199.2v40c0 8.837 7.163 16 16 16h8c8.837 0 16-7.163 16-16v-40c0-4.418-3.582-8-8-8h-24c-4.418 0-8 3.582-8 8z" fill="#aac3d7"/></g><g><g><path d="m223.708 151.2h-52v-8h52c2.209 0 4 1.791 4 4 0 2.209-1.791 4-4 4z" fill="#323232"/></g><g><path d="m267.708 119.2v-24h-56c-8.837 0-16 7.163-16 16v8h-24c-4.418 0-8 3.582-8 8v8c0 4.418 3.582 8 8 8h52c2.209 0 4 1.791 4 4s-1.791 4-4 4h-52c-4.418 0-8 3.582-8 8s3.582 8 8 8h96c13.255 0 24-10.745 24-24 0-13.255-10.745-24-24-24z" fill="#aac3d7"/></g><g><path d="m219.708 79.2c-4.418 0-8 3.582-8 8v8h24c0-8.837-7.163-16-16-16z" fill="#788c9b"/></g><g><path d="m251.708 79.2c-4.418 0-8 3.582-8 8v8h24c0-8.837-7.163-16-16-16z" fill="#788c9b"/></g><g><circle cx="179.708" cy="119.2" fill="#323232" r="8"/></g></g></g></svg>