<svg height="512" viewBox="0 0 64 64" width="512" xmlns="http://www.w3.org/2000/svg"><g id="Flat"><g id="Color"><g><path d="m23 41h18a10 10 0 0 1 10 10v10a0 0 0 0 1 0 0h-38a0 0 0 0 1 0 0v-10a10 10 0 0 1 10-10z" fill="#656b76"/><path d="m26 58a8 8 0 0 1 -8-8v-7.651a9.987 9.987 0 0 0 -5 8.651v10h38v-3z" fill="#464a51"/><path d="m14 18a12.215 12.215 0 0 1 6.576 4.22l1.424 1.78v7l-2.59-1.3a6.168 6.168 0 0 1 -3.41-5.512 6.178 6.178 0 0 0 -.441-2.291z" fill="#656b76"/><path d="m50 18a12.215 12.215 0 0 0 -6.576 4.22l-1.424 1.78v7l2.59-1.3a6.168 6.168 0 0 0 3.41-5.512 6.178 6.178 0 0 1 .441-2.291z" fill="#93999a"/><path d="m24 41-11-4 3.293-2.253a27.815 27.815 0 0 1 31.413 0l3.294 2.253-11 4z" fill="#cc5144"/><path d="m32 59 11-4-2-6h4l-5-8z" fill="#464a51"/><path d="m32 59-11-4 2-6h-4l5-8z" fill="#464a51"/><path d="m26 35h12v6h-12z" fill="#80271e"/><path d="m40 41-8 18-8-18z" fill="#f8664f"/><path d="m32 59 10-5-1-5 3-2-4-6z" fill="#d0d8da"/><path d="m32 59-10-5 1-5-3-2 4-6z" fill="#d0d8da"/><path d="m20 11h24a0 0 0 0 1 0 0v18a12 12 0 0 1 -12 12 12 12 0 0 1 -12-12v-18a0 0 0 0 1 0 0z" fill="#d0d8da"/><path d="m20 11v18a11.934 11.934 0 0 0 14 11.82 11.994 11.994 0 0 1 -10-11.82v-12.995a2.98 2.98 0 0 1 2.827-3h.173a5 5 0 0 1 5 5 5 5 0 0 1 5.491-4.977 5.145 5.145 0 0 1 4.509 5.187.784.784 0 0 0 .785.785h1.215v-8z" fill="#93999a"/><path d="m30 25-.646 1.076a3 3 0 0 1 -5.014.2l-2.34-3.276z" fill="#f8664f"/><path d="m34 25 .646 1.076a3 3 0 0 0 5.014.2l2.34-3.276z" fill="#f8664f"/><path d="m36 3h-8a10 10 0 0 0 -10 10v2a2 2 0 0 0 2 2h2v-1a5 5 0 0 1 10 0 5 5 0 0 1 10 0v1h2a2 2 0 0 0 2-2v-2a10 10 0 0 0 -10-10z" fill="#4891d3"/><g fill="#cc5144"><path d="m24 41 .8 1.8a11.928 11.928 0 0 0 13.119-1.8z"/><path d="m29.354 26.076.646-1.076-8-2 1.739 2.435 5.1 1.276a3.032 3.032 0 0 0 .515-.635z"/><path d="m42 23-8 2 .646 1.076a3.032 3.032 0 0 0 .512.635l5.1-1.276z"/></g><path d="m36 3h-8a9.967 9.967 0 0 0 -7.168 3.035l3.305 5.875a4.99 4.99 0 0 1 7.863 4.09 4.99 4.99 0 0 1 7.863-4.09l3.305-5.875a9.967 9.967 0 0 0 -7.168-3.035z" fill="#2d72bc"/><path d="m32 34.561a9.082 9.082 0 0 1 -2.867-.463l-3.449-1.149a1 1 0 0 1 .632-1.9l3.45 1.15a7.112 7.112 0 0 0 4.468 0l3.45-1.15a1 1 0 0 1 .632 1.9l-3.449 1.151a9.082 9.082 0 0 1 -2.867.461z" fill="#80271e"/><g fill="#f8664f"><path d="m35 31.946v2.054a1 1 0 0 0 2 0v-2.333a1 1 0 0 0 -.073-.364z"/><path d="m27.073 31.3a1 1 0 0 0 -.073.364v2.336a1 1 0 0 0 2 0v-2.054z"/></g></g></g></g></svg>