<svg id="Layer_1" enable-background="new 0 0 512 512" height="512" viewBox="0 0 512 512" width="512" xmlns="http://www.w3.org/2000/svg"><g><path d="m458.865 252.829-11.605-18.568c-.879-1.407-2.421-2.261-4.08-2.261s-3.201.854-4.08 2.261l-11.605 18.568c-.206.329-.315.71-.315 1.098 0 1.144.928 2.072 2.072 2.072h5.928v56c0 17.645-14.355 32-32 32h-64v16h64c26.468 0 48-21.533 48-48v-56h5.928c1.145 0 2.072-.928 2.072-2.072-.001-.388-.11-.768-.315-1.098z" fill="#d73228"/><g><path d="m403.179 448c0-8.189-3.124-16.379-9.373-22.627l-54.627-54.627v-50.746h-112c-8.837 0-16-7.163-16-16v18.746l-38.627 38.627c-6.002 6.001-9.373 14.141-9.373 22.627v64c-17.673 0-32 14.327-32 32 0 8.837 7.163 16 16 16h240c8.837 0 16-7.163 16-16z" fill="#323232"/></g><g><path d="m339.179 192v128h4.153c2.091 0 3.806-1.562 4.119-3.63 1.75-11.532 11.706-20.37 23.727-20.37s21.978 8.838 23.727 20.37c.314 2.068 2.028 3.63 4.119 3.63 2.294 0 4.153-1.859 4.153-4.153v-123.847z" fill="#d73228"/></g><g><path d="m323.179 128h-48v32h40c8.837 0 16-7.163 16-16v-8c0-4.418-3.581-8-8-8z" fill="#d73228"/></g><g><path d="m179.179 32h24c8.837 0 16 7.163 16 16v20c0 6.627-5.373 12-12 12-6.627 0-12-5.373-12-12v-20c-8.836 0-16-7.163-16-16z" fill="#d73228"/></g><g><path d="m155.179 304h56v-64h-56c-4.418 0-8 3.582-8 8v48c0 4.418 3.582 8 8 8z" fill="#464646"/></g><g><path d="m131.179 248h16v32h-16z" fill="#f04b37"/></g><g><path d="m107.179 232h8c8.837 0 16 7.163 16 16v32h-24z" fill="#d73228"/></g><path d="m162.865 108.829-11.605-18.568c-.879-1.407-2.421-2.261-4.08-2.261s-3.201.854-4.08 2.261l-11.605 18.568c-.206.329-.315.71-.315 1.098 0 1.144.928 2.072 2.072 2.072h5.928v32c0 13.234-10.766 24-24 24v-56h5.928c1.145 0 2.072-.928 2.072-2.072 0-.388-.109-.769-.315-1.098l-11.605-18.568c-.879-1.407-2.421-2.261-4.08-2.261s-3.201.854-4.08 2.261l-11.605 18.568c-.206.329-.315.71-.315 1.098 0 1.144.928 2.072 2.072 2.072h5.928v56c-13.234 0-24-10.766-24-24v-32h5.928c1.145 0 2.072-.928 2.072-2.072 0-.388-.109-.769-.315-1.098l-11.605-18.568c-.88-1.407-2.422-2.261-4.081-2.261s-3.201.854-4.08 2.261l-11.605 18.568c-.206.329-.315.71-.315 1.098 0 1.144.928 2.072 2.072 2.072h5.928v32c0 22.056 17.944 40 40 40v312h16v-311.999c22.056 0 40-17.944 40-40v-32h5.928c1.145 0 2.072-.928 2.072-2.072 0-.389-.109-.769-.314-1.099z" fill="#d73228"/><g><path d="m96.513 232c13.255 0 24 10.745 24 24 0 13.255-10.745 24-24 24-4.418 0-8-3.582-8-8v-32c0-4.418 3.582-8 8-8z" fill="#f04b37"/></g><g><path d="m403.179 448c0-8.189-3.124-16.379-9.373-22.627l-54.627-54.627v-66.746c0-17.673-14.327-32-32-32s-32 14.327-32 32v80c0 8.487 3.371 16.626 9.373 22.627l41.373 41.373h-2.746c-17.673 0-32 14.327-32 32 0 8.837 7.163 16 16 16h80c8.837 0 16-7.163 16-16z" fill="#464646"/></g><g><path d="m323.179 320h-96c-8.837 0-16-7.163-16-16v-112c0-17.673 14.327-32 32-32h96v144c0 8.837-7.163 16-16 16z" fill="#323232"/></g><g><path d="m259.179 208c8.837 0 16-7.163 16-16 0-17.673 14.327-32 32-32h-32c-17.673 0-32 14.327-32 32 0 8.837 7.164 16 16 16z" fill="#d7e6f0"/></g><g><path d="m339.179 32v16h-12c-2.209 0-4 1.791-4 4 0 6.627 5.373 12 12 12h4c0 8.837 7.163 16 16 16v32h32v-80z" fill="#d73228"/></g><g><path d="m371.179 16h-32c-4.418 0-8 3.582-8 8s3.582 8 8 8h32v32c0 8.837 7.164 16 16 16v-48c0-8.837-7.163-16-16-16z" fill="#f04b37"/></g><g><path d="m355.179 96h32v16h-32z" fill="#f04b37"/></g><g><path d="m395.179 112h-48c-4.418 0-8 3.582-8 8v40c-17.673 0-32 14.327-32 32s14.327 32 32 32h32c17.673 0 32-14.327 32-32v-72c0-4.418-3.581-8-8-8z" fill="#464646"/></g><g><path d="m203.179 176h56c8.837 0 16-7.163 16-16v-72c0-13.255-10.745-24-24-24h-40c-13.255 0-24 10.745-24 24v72c0 8.837 7.164 16 16 16z" fill="#d73228"/></g><g><path d="m235.179 176h-32c-8.837 0-16-7.163-16-16v-72c0-13.255 10.745-24 24-24h16c13.255 0 24 10.745 24 24v72c0 8.837-7.163 16-16 16z" fill="#f04b37"/></g><g><path d="m187.179 88v-.05c0-4.393 3.557-7.957 7.95-7.967 8.859-.019 16.05 7.158 16.05 16.017 0-8.859 7.192-16.036 16.051-16.017l7.833.017c4.456.006 8.068 3.615 8.077 8.072l.022 15.823c.009 4.474-3.615 8.106-8.089 8.106l.106 8c0 4.418 3.582 8 8 8v16c0 8.837 7.163 16 16 16h16c8.837 0 16-7.163 16-16v-48.001c0-26.51-21.49-48-48-48h-24c-17.673 0-32 14.327-32 32z" fill="#323232"/></g><g><path d="m251.179 144h-8v-16c0-8.837 7.163-16 16-16h8v16c0 8.837-7.163 16-16 16z" fill="#d73228"/></g><g><path d="m219.179 32h24c8.837 0 16 7.163 16 16v20c0 6.627-5.373 12-12 12-6.627 0-12-5.373-12-12v-20c-8.836 0-16-7.163-16-16z" fill="#f04b37"/></g><g><circle cx="259.179" cy="248" fill="#464646" r="8"/></g><g><circle cx="259.179" cy="288" fill="#464646" r="8"/></g><g><path d="m209.846 160c-3.682 0-6.667 2.985-6.667 6.667v9.333h13.333v-9.333c.001-3.682-2.984-6.667-6.666-6.667z" fill="#323232"/></g></g></svg>