<svg xmlns="http://www.w3.org/2000/svg" viewBox="0 0 512 512" width="512" height="512">
	<style>
		tspan { white-space:pre }
		.shp0 { fill: #759464 } 
		.shp1 { fill: #aa5a28 } 
		.shp2 { fill: #90b87a } 
		.shp3 { fill: #59704d } 
		.shp4 { fill: #647e56 } 
		.shp5 { fill: #96461e } 
		.shp6 { fill: #d76e28 } 
		.shp7 { fill: #464646 } 
		.shp8 { fill: #f0697d } 
		.shp9 { fill: #d7e6f0 } 
	</style>
	<g id="Layer">
		<path id="Layer" class="shp0" d="M300.52 290.92C284.9 275.3 259.58 275.3 243.96 290.92L179.96 354.92C172.46 362.42 168.24 372.59 168.24 383.2L168.24 447.2C168.24 447.54 168.26 447.87 168.27 448.2C154.45 451.75 144.24 464.28 144.24 479.2C144.24 488.04 151.4 495.2 160.24 495.2L232.24 495.2C241.08 495.2 248.24 488.04 248.24 479.2L248.24 399.77L300.52 347.48C316.15 331.86 316.15 306.54 300.52 290.92Z" />
		<g id="Layer">
			<path id="Layer" class="shp1" d="M200.24 343.2L200.24 439.2L204.39 439.2C206.49 439.2 208.2 437.64 208.51 435.57C210.26 424.04 220.22 415.2 232.24 415.2C244.26 415.2 254.22 424.04 255.97 435.57C256.28 437.64 258 439.2 260.09 439.2L268.39 439.2C270.48 439.2 272.2 437.64 272.51 435.57C274.26 424.04 284.22 415.2 296.24 415.2C308.26 415.2 318.22 424.04 319.97 435.57C320.28 437.64 321.99 439.2 324.09 439.2C326.38 439.2 328.24 437.34 328.24 435.05L328.24 343.2L200.24 343.2Z" />
		</g>
		<g id="Layer">
			<path id="Layer" class="shp2" d="M396.52 418.92L344.24 366.63L344.24 303.2C344.24 281.11 326.33 263.2 304.24 263.2C282.15 263.2 264.24 281.11 264.24 303.2L264.24 383.2C264.24 393.81 268.45 403.98 275.96 411.48L312.6 448.13C298.62 451.55 288.24 464.16 288.24 479.2C288.24 488.04 295.4 495.2 304.24 495.2L392.24 495.2C401.08 495.2 408.24 488.04 408.24 479.2L408.24 447.2C408.24 436.96 404.34 426.73 396.52 418.92Z" />
		</g>
		<g id="Layer">
			<path id="Layer" class="shp3" d="M144.24 311.2L216.24 311.2L216.24 231.2L144.24 231.2C139.82 231.2 136.24 234.78 136.24 239.2L136.24 303.2C136.24 307.62 139.82 311.2 144.24 311.2Z" />
		</g>
		<g id="Layer">
			<path id="Layer" class="shp4" d="M360.24 159.2C360.24 141.53 345.91 127.2 328.24 127.2L304.24 127.2C304.24 105.11 286.33 87.2 264.24 87.2L208.24 87.2C186.15 87.2 168.24 105.11 168.24 127.2L168.24 183.2C168.24 192.04 175.4 199.2 184.24 199.2L216.24 199.2L216.24 221.31C216.24 232.27 210.05 242.3 200.24 247.2C190.43 252.1 184.24 262.13 184.24 273.09L184.24 327.2C184.24 336.04 191.4 343.2 200.24 343.2L344.24 343.2C353.08 343.2 360.24 336.04 360.24 327.2L360.24 271.2L362.81 267.35C371.57 254.21 376.24 238.77 376.24 222.98L376.24 159.2L360.24 159.2Z" />
		</g>
		<g id="Layer">
			<path id="Layer" class="shp2" d="M232.24 199.2L184.24 199.2C175.4 199.2 168.24 192.04 168.24 183.2L168.24 127.2C168.24 105.11 186.15 87.2 208.24 87.2C230.33 87.2 248.24 105.11 248.24 127.2L248.24 183.2C248.24 192.04 241.08 199.2 232.24 199.2Z" />
		</g>
		<g id="Layer">
			<path id="Layer" class="shp5" d="M104.24 63.2L120.24 47.2L128.24 47.2C141.5 47.2 152.24 57.95 152.24 71.2L152.24 167.2L136.24 183.2L136.24 307.2C136.24 318.25 127.29 327.2 116.24 327.2C105.19 327.2 96.24 318.25 96.24 307.2L96.24 199.2L80.24 183.2L80.24 87.2C80.24 73.94 90.99 63.2 104.24 63.2L104.24 63.2Z" />
		</g>
		<g id="Layer">
			<path id="Layer" class="shp3" d="M96.24 223.2C109.5 223.2 120.24 233.94 120.24 247.2L120.24 279.2C120.24 292.45 109.5 303.2 96.24 303.2C91.82 303.2 88.24 299.62 88.24 295.2L88.24 231.2C88.24 226.78 91.82 223.2 96.24 223.2Z" />
		</g>
		<g id="Layer">
			<path id="Layer" class="shp3" d="M344.24 31.2L344.24 47.2L332.24 47.2C330.03 47.2 328.24 48.99 328.24 51.2C328.24 57.83 333.61 63.2 340.24 63.2L344.24 63.2C344.24 72.04 351.4 79.2 360.24 79.2L408.24 79.2L408.24 31.2L344.24 31.2Z" />
		</g>
		<g id="Layer">
			<path id="Layer" class="shp2" d="M392.24 15.2L344.24 15.2C339.82 15.2 336.24 18.78 336.24 23.2C336.24 27.62 339.82 31.2 344.24 31.2L392.24 31.2L392.24 63.2C392.24 72.04 399.4 79.2 408.24 79.2L408.24 31.2C408.24 22.36 401.08 15.2 392.24 15.2L392.24 15.2Z" />
		</g>
		<g id="Layer">
			<path id="Layer" class="shp2" d="M416.24 79.2L352.24 79.2C347.82 79.2 344.24 82.78 344.24 87.2L344.24 159.2C326.57 159.2 312.24 173.53 312.24 191.2C312.24 208.87 326.57 223.2 344.24 223.2L392.24 223.2C409.91 223.2 424.24 208.87 424.24 191.2L424.24 87.2C424.24 82.78 420.66 79.2 416.24 79.2L416.24 79.2Z" />
		</g>
		<g id="Layer">
			<path id="Layer" class="shp2" d="M208.24 215.2L208.24 239.2C208.24 248.04 215.4 255.2 224.24 255.2L232.24 255.2C241.08 255.2 248.24 248.04 248.24 239.2L248.24 215.2C248.24 210.78 244.66 207.2 240.24 207.2L216.24 207.2C211.82 207.2 208.24 210.78 208.24 215.2Z" />
		</g>
		<g id="Layer">
			<path id="Layer" class="shp2" d="M264.24 215.2L264.24 239.2C264.24 248.04 271.4 255.2 280.24 255.2L288.24 255.2C297.08 255.2 304.24 248.04 304.24 239.2L304.24 215.2C304.24 210.78 300.66 207.2 296.24 207.2L272.24 207.2C267.82 207.2 264.24 210.78 264.24 215.2Z" />
		</g>
		<g id="Layer">
			<path id="Layer" class="shp2" d="M264.24 151.2L256.24 151.2L256.24 135.2C256.24 126.36 263.4 119.2 272.24 119.2L280.24 119.2L280.24 135.2C280.24 144.04 273.08 151.2 264.24 151.2Z" />
		</g>
		<g id="Layer">
			<path id="Layer" class="shp6" d="M344.24 343.2L200.24 343.2C191.4 343.2 184.24 336.04 184.24 327.2L184.24 319.2L360.24 319.2L360.24 327.2C360.24 336.04 353.08 343.2 344.24 343.2Z" />
		</g>
		<g id="Layer">
			<path id="Layer" class="shp7" d="M256.24 151.2L248.24 151.2C248.24 155.62 244.66 159.2 240.24 159.2L168.24 159.2L168.24 199.2C168.24 208.04 175.4 215.2 184.24 215.2L240.24 215.2C249.08 215.2 256.24 208.04 256.24 199.2L256.24 151.2Z" />
		</g>
		<g id="Layer">
			<path id="Layer" class="shp8" d="M188.24 169.87L220.24 169.87C222.45 169.87 224.24 171.66 224.24 173.87C224.24 180.49 218.87 185.87 212.24 185.87L196.24 185.87C189.61 185.87 184.24 180.49 184.24 173.87C184.24 171.66 186.03 169.87 188.24 169.87Z" />
		</g>
		<g id="Layer">
			<path id="Layer" class="shp9" d="M200.24 148.53C186.97 148.53 176.24 137.81 176.24 124.53C176.24 111.26 186.97 100.53 200.24 100.53C213.51 100.53 224.24 111.26 224.24 124.53C224.24 137.81 213.51 148.53 200.24 148.53Z" />
		</g>
		<g id="Layer">
			<path id="Layer" class="shp7" d="M200.24 140.53C195.82 140.53 192.24 136.96 192.24 132.53C192.24 128.11 195.82 124.53 200.24 124.53C204.67 124.53 208.24 128.11 208.24 132.53C208.24 136.96 204.67 140.53 200.24 140.53Z" />
		</g>
		<g id="Layer">
			<path id="Layer" class="shp9" d="M196.24 132.53C194.03 132.53 192.24 130.74 192.24 128.53C192.24 126.32 194.03 124.53 196.24 124.53C198.45 124.53 200.24 126.32 200.24 128.53C200.24 130.74 198.45 132.53 196.24 132.53Z" />
		</g>
	</g>
</svg>