<?xml version="1.0"?>
<svg xmlns="http://www.w3.org/2000/svg" viewBox="0 0 64 64" width="512" height="512"><g id="flat"><rect x="11" y="7" width="42" height="54" rx="16" ry="16" style="fill:#73cac2"/><path d="M11,33a8,8,0,0,0,8-8H3A8,8,0,0,0,11,33Z" style="fill:#fcf05a"/><path d="M8.184,25A2.962,2.962,0,0,0,8,26a3,3,0,0,0,6,0,2.962,2.962,0,0,0-.184-1Z" style="fill:#e4544f"/><path d="M11,17h0a8,8,0,0,1,8,8v0a0,0,0,0,1,0,0H3a0,0,0,0,1,0,0v0A8,8,0,0,1,11,17Z" style="fill:#394d5c"/><path d="M11,49a8,8,0,0,0,8-8H3A8,8,0,0,0,11,49Z" style="fill:#fcf05a"/><path d="M8.184,41A2.962,2.962,0,0,0,8,42a3,3,0,0,0,6,0,2.962,2.962,0,0,0-.184-1Z" style="fill:#e4544f"/><path d="M11,33h0a8,8,0,0,1,8,8v0a0,0,0,0,1,0,0H3a0,0,0,0,1,0,0v0A8,8,0,0,1,11,33Z" style="fill:#394d5c"/><path d="M53,33a8,8,0,0,0,8-8H45A8,8,0,0,0,53,33Z" style="fill:#fcf05a"/><path d="M50.184,25A2.962,2.962,0,0,0,50,26a3,3,0,0,0,6,0,2.962,2.962,0,0,0-.184-1Z" style="fill:#e4544f"/><path d="M53,17h0a8,8,0,0,1,8,8v0a0,0,0,0,1,0,0H45a0,0,0,0,1,0,0v0A8,8,0,0,1,53,17Z" style="fill:#394d5c"/><path d="M53,49a8,8,0,0,0,8-8H45A8,8,0,0,0,53,49Z" style="fill:#fcf05a"/><path d="M50.184,41A2.962,2.962,0,0,0,50,42a3,3,0,0,0,6,0,2.962,2.962,0,0,0-.184-1Z" style="fill:#e4544f"/><path d="M53,33h0a8,8,0,0,1,8,8v0a0,0,0,0,1,0,0H45a0,0,0,0,1,0,0v0A8,8,0,0,1,53,33Z" style="fill:#394d5c"/><polygon points="32 15 27 3 37 3 32 15" style="fill:#51a262"/><polygon points="23 3 27 15 14 9 23 3" style="fill:#51a262"/><polygon points="41 3 37 15 50 9 41 3" style="fill:#51a262"/><ellipse cx="32" cy="36" rx="10" ry="7" style="fill:#394d5c"/><ellipse cx="32" cy="36" rx="6" ry="3" style="fill:#bfbfbf"/><circle cx="23" cy="51" r="3" style="fill:#51a262"/><circle cx="32" cy="55" r="2" style="fill:#51a262"/><circle cx="40" cy="49" r="3" style="fill:#51a262"/><rect x="39" y="56" width="2" height="2" style="fill:#fff"/><rect x="29" y="47" width="2" height="2" style="fill:#fff"/><rect x="29" y="24" width="2" height="2" style="fill:#fff"/><rect x="33" y="24" width="2" height="2" style="fill:#fff"/></g></svg>
