<svg id="Layer_1" enable-background="new 0 0 512 512" height="512" viewBox="0 0 512 512" width="512" xmlns="http://www.w3.org/2000/svg"><g><g><path d="m470.821 275.2h-56c-17.645 0-32-14.355-32-32 0-8.822-7.178-16-16-16h-80v-16h80c17.645 0 32 14.355 32 32 0 8.822 7.178 16 16 16h56z" fill="#96461e"/></g><g><path d="m206.821 83.2v80c0 13.255-10.745 24-24 24-13.255 0-24 10.745-24 24v14.667c0 6.627 5.373 12 12 12 6.627 0 12-5.373 12-12v-14.667c26.51 0 48-21.49 48-48v-80h208c13.255 0 24-10.745 24-24h-232c-13.255 0-24 10.745-24 24z" fill="#96461e"/></g><g><path d="m230.821 83.2v120h24c13.255 0 24-10.745 24-24h16c13.255 0 24-10.745 24-24h16c13.255 0 24-10.745 24-24h16c13.255 0 24-10.745 24-24h16c13.255 0 24-10.745 24-24z" fill="#96461e"/></g><g><g><g><path d="m142.821 115.2v96c-35.346 0-64 28.654-64 64v80c-22.09 0-40-17.91-40-40v-104c0-22.09 8.96-42.09 23.43-56.57 14.48-14.47 34.48-23.43 56.57-23.43 0-8.837 7.163-16 16-16z" fill="#96461e"/></g></g><g><path d="m310.821 323.2c-22.091 0-40-17.908-40-40v-72h-80v112c0 35.346 28.654 64 64 64h16v32c-17.673 0-32 14.327-32 32h32c22.091 0 40-17.909 40-40z" fill="#64412d"/></g><g><path d="m366.821 323.2h-150.059c-6.365 0-12.47 2.529-16.971 7.029l-17.941 17.941c-4.501 4.501-10.605 7.029-16.971 7.029h-86.058v-80c0-35.346 28.654-64 64-64h144c44.183 0 80 35.817 80 80z" fill="#faa51e"/></g><g><path d="m54.821 355.2c-17.673 0-32 14.327-32 32 0 13.255 10.745 24 24 24v-24h13.333c0 4.418 3.582 8 8 8h10.667v-40z" fill="#64412d"/></g><g><path d="m366.821 299.2v-8c0-44.183-35.817-80-80-80v112c0 35.346 28.654 64 64 64h16v64c22.091 0 40-17.909 40-40v-72c-22.091 0-40-17.909-40-40z" fill="#f06423"/></g><g><path d="m366.821 451.2h-32c0-17.673 14.327-32 32-32z" fill="#64412d"/></g><g><path d="m142.821 211.2c-35.346 0-64 28.653-64 64v40 .002 87.998c0 4.418 3.582 8 8 8h24c4.418 0 8-3.582 8-8v-48c22.091 0 40-17.908 40-40v-88c0-8.837-7.163-16-16-16z" fill="#d76e28"/></g></g><g><g><path d="m110.821 411.2v16c0 13.25-10.75 24-24 24h-40c0-13.25 10.75-24 24-24h16v-16z" fill="#faa51e"/></g></g><g><path d="m54.821 91.2c-8.836 0-16 7.163-16 16v40h72c17.673 0 32-14.327 32-32v-8h21.333c8.836 0 16-7.163 16-16z" fill="#d76e28"/></g><g><path d="m70.821 131.2h-16c-8.836 0-16-7.163-16-16-17.673 0-32 14.327-32 32 0 4.418 3.582 8 8 8v-8h56c4.418 0 8-3.582 8-8s-3.582-8-8-8z" fill="#faa51e"/></g><g><path d="m230.821 83.2v80c0 13.255-10.745 24-24 24-13.255 0-24 10.745-24 24v14.667c0 6.627 5.373 12 12 12 6.627 0 12-5.373 12-12v-14.667c26.51 0 48-21.49 48-48v-80h208c13.255 0 24-10.745 24-24h-232c-13.255 0-24 10.745-24 24z" fill="#d76e28"/></g><g><path d="m502.821 267.2s-32.954 20-44 20-20-8.954-20-20 8.954-20 20-20 44 20 44 20z" fill="#f06423"/></g></g></svg>