<svg id="Layer_1" enable-background="new 0 0 512 512" height="512" viewBox="0 0 512 512" width="512" xmlns="http://www.w3.org/2000/svg"><g><g><path d="m164.241 367.6v-40h-64c-8.836 0-16 7.164-16 16v56c0 15.464 12.536 28 28 28 15.464 0 28-12.536 28-28h-16v-32z" fill="#d7e6f0"/></g><g><path d="m420.237 271.602c0-35.35-28.65-64-64-64h-143.996v-.002c0-70.692-57.307-128-128-128h-32v96h32c17.673 0 32 14.327 32 32v.002h-.004v112c0 26.51 21.49 48 48 48h136v8c0 22.09 17.91 40 40 40v40c-6.62 0-12.62 2.69-16.97 7.03-4.34 4.34-7.03 10.34-7.03 16.97h29.67c18.96 0 34.33-15.37 34.33-34.34v-61.66c-8.83 0-16-7.17-16-16h56z" fill="#aac3d7"/></g><g><path d="m276.241 31.6c-26.51 0-48 21.49-48 48v128c0 8.837 7.163 16 16 16 8.837 0 16-7.163 16-16v-16h16c17.673 0 32-14.327 32-32 17.673 0 32-14.327 32-32 17.673 0 32-14.327 32-32 17.673 0 32-14.327 32-32 17.673 0 32-14.327 32-32z" fill="#aac3d7"/></g><g><path d="m388.241 271.6v-32c0-26.51 21.49-48 48-48 26.51 0 48 21.49 48 48v112c-26.51 0-48-21.49-48-48v-64c0-8.837-7.163-16-16-16-8.837 0-16 7.163-16 16v32z" fill="#647dbe"/></g><g><path d="m68.219 31.6h16.022c97.202 0 176 78.798 176 176h-48c0-70.692-57.308-128-128-128h-64v-.022c0-26.498 21.481-47.978 47.978-47.978z" fill="#6ea5d7"/></g><g><path d="m84.241 79.6h-32c0-17.673-14.327-32-32-32v144c0 17.673 14.327 32 32 32 17.673 0 32-14.327 32-32v-16c26.51 0 48-21.49 48-48 0-26.51-21.49-48-48-48z" fill="#d7e6f0"/></g><g><circle cx="60.241" cy="119.6" fill="#555" r="8"/></g><g><circle cx="60.241" cy="199.6" fill="#aac3d7" r="8"/></g><g><path d="m212.241 207.6h48c0-48.601-19.699-92.601-51.549-124.451l-33.941 33.941c23.163 23.163 37.49 55.163 37.49 90.51z" fill="#647dbe"/></g><g><path d="m468.241 31.6h-160c-26.51 0-48 21.49-48 48v128c0 8.837 7.163 16 16 16 8.837 0 16-7.163 16-16v-128c0-8.837 7.163-16 16-16h128c17.673 0 32-14.327 32-32z" fill="#d7e6f0"/></g><g><path d="m404.241 95.6h-112v-16c0-8.837 7.163-16 16-16h128c0 17.673-14.327 32-32 32z" fill="#aac3d7"/></g><g><path d="m340.241 159.6h-48v-32h80c0 17.673-14.327 32-32 32z" fill="#aac3d7"/></g><g><path d="m372.241 127.6h-80v-32h112c0 17.673-14.327 32-32 32z" fill="#d7e6f0"/></g><g><path d="m308.241 191.6h-16v-32h48c0 17.673-14.327 32-32 32z" fill="#d7e6f0"/></g><g><g><path d="m436.237 383.602v61.66c0 18.97-15.37 34.34-34.33 34.34h-29.67c0-6.63 2.69-12.63 7.03-16.97 4.35-4.34 10.35-7.03 16.97-7.03v-40c-22.09 0-40-17.91-40-40v-168c35.35 0 64 28.65 64 64v96c0 8.83 7.17 16 16 16z" fill="#d7e6f0"/></g></g><g><path d="m204.241 287.6c-22.091 0-40 17.909-40 40v128c-13.255 0-24 10.745-24 24h24c22.091 0 40-17.909 40-40v-72c22.091 0 40-17.909 40-40s-17.908-40-40-40z" fill="#d7e6f0"/></g></g></svg>