<?xml version="1.0" encoding="iso-8859-1"?>
<!-- Generator: Adobe Illustrator 19.0.0, SVG Export Plug-In . SVG Version: 6.00 Build 0)  -->
<svg version="1.1" id="Layer_1" xmlns="http://www.w3.org/2000/svg" xmlns:xlink="http://www.w3.org/1999/xlink" x="0px" y="0px"
	 viewBox="0 0 511.999 511.999" style="enable-background:new 0 0 511.999 511.999;" xml:space="preserve">
<path style="fill:#52CBCE;" d="M385.226,188.108c0,0,68.215,50.357,28.555,78.685c-40.17,28.691-30.595,48.725-16.997,83.852
	c0,0-53.031-11.467-70.141-66.357c4.147-14.176,7.841-22.357,8.034-22.765C364.58,251.201,380.558,223.179,385.226,188.108z"/>
<g>
	<path style="fill:#FFD0B8;" d="M146.393,479.139c-1.43,0-2.878-0.361-4.208-1.122c-4.076-2.329-5.491-7.52-3.163-11.595
		l13.598-23.796c2.253-3.94,7.201-5.415,11.244-3.352c11.77,6.011,22.545,7.086,32.943,3.286
		c23.601-8.623,36.837-39.551,36.969-39.862c1.816-4.321,6.789-6.363,11.118-4.552c4.324,1.81,6.369,6.774,4.565,11.101
		c-0.644,1.547-16.135,38.009-46.734,49.246c-12.585,4.622-25.727,4.359-39.159-0.765l-9.787,17.126
		C152.211,477.602,149.343,479.139,146.393,479.139z"/>
	<path style="fill:#FFD0B8;" d="M213.256,511.999c-4.695,0-8.499-3.805-8.499-8.499v-21.53c0-4.301,3.215-7.925,7.486-8.438
		c20.597-2.471,35.98-12.86,45.72-30.877c7.466-13.811,8.69-26.757,8.701-26.886c0.416-4.674,4.545-8.122,9.218-7.712
		c4.675,0.416,8.129,4.543,7.713,9.218c-0.06,0.67-1.565,16.603-10.68,33.463c-11.132,20.591-28.722,33.77-51.16,38.448V503.5
		C221.755,508.194,217.951,511.999,213.256,511.999z"/>
</g>
<path style="fill:#CCCCCC;" d="M132.558,258.555c25.02,13.79,58.697,23.173,93.008,21.677c-7.127,15.399-13.11,31.762-17.779,46.04
	h-0.011c-63.116,6.731-122.561-25.507-92.544-57.02C120.094,264.119,125.997,260.686,132.558,258.555z"/>
<path style="fill:#F4516D;" d="M332.308,284.289c-8.329,28.453-18.482,81.054-5.734,143.297c0,0-34.935,1.246-71.547-10.867
	c-23.819-7.887-48.351-21.428-64.43-44.657c0,0,4.102-17.439,11.513-40.125h0.011c4.669-14.278,10.652-30.64,17.779-46.04
	c6.266-13.586,13.416-26.425,21.314-36.419c2.164-2.754,4.385-5.28,6.663-7.558c10.028,8.51,21.734,15.082,34.55,19.161
	c9.654,3.082,19.943,4.737,30.629,4.737c10.142,0,19.218-1.496,27.286-4.295C340.15,261.932,336.456,270.113,332.308,284.289z"/>
<path style="fill:#C63958;" d="M255.028,416.708v0.011c-23.819-7.887-48.351-21.428-64.43-44.657c0,0,4.102-17.439,11.513-40.125
	h0.011c4.669-14.278,10.652-30.64,17.779-46.04c6.266-13.586,13.416-26.425,21.314-36.419c2.164-2.754,4.385-5.28,6.663-7.558
	c10.028,8.51,21.734,15.082,34.55,19.161C282.428,261.082,237.918,323.008,255.028,416.708z"/>
<path style="fill:#F4516D;" d="M269.918,289.592c-28.759,15.909-36.793,78.629-36.793,78.629
	c-29.473-74.345,23.977-118.164,23.977-118.164l37.24-6.122"/>
<path style="fill:#FFD0B8;" d="M233.222,283.062c-9.172,20.182-14.402,49.074-0.097,85.159c0,0,5.059-39.482,21.515-63.74
	L233.222,283.062z"/>
<path style="fill:#52CBCE;" d="M388.796,129.842c-3.139-14.232-8.408-26.935-16-37.303l-3.263-0.102
	c-11.887,7.309-27.603,16.453-37.292,20.136c-37.79,14.357-61.915,8.623-84.385,13.802c-11.207,2.584-22.006,7.887-33.892,19.773
	c-2.493-1.734-5.326-2.708-8.329-2.708c-10.13,0-18.357,11.15-18.357,24.918c-13.96-7.229-38.606-22.923-30.674-62.583
	c7.773-38.889,65.722-29.462,65.722-29.462s0-52.011,57.79-70.141c8.351-2.629,16.748-4.351,25.042-5.292
	c49.088-5.598,94.697,16.317,107.535,43.819C440.433,104.165,388.796,129.842,388.796,129.842z"/>
<path style="fill:#FFD0B8;" d="M392.376,164.969c0,7.966-0.487,15.705-1.484,23.139c-4.669,35.071-20.646,63.093-50.549,73.416
	c-8.068,2.799-17.144,4.295-27.286,4.295c-20.657,0-39.875-6.21-55.864-16.884c-3.241-2.153-6.357-4.499-9.314-7.014
	c-15.807-13.394-27.433-31.581-32.634-52.306c-2.788,2.334-6.085,3.683-9.609,3.683c-10.13,0-18.357-11.161-18.357-24.929v-0.011
	c0-13.768,8.227-24.918,18.357-24.918c3.003,0,5.836,0.975,8.329,2.708c28.895-28.895,51.388-18.901,88.974-25.473
	c8.838-1.541,18.516-4,29.303-8.102c9.688-3.683,25.405-12.827,37.292-20.136l3.263,0.102c7.592,10.368,12.861,23.071,16,37.303
	C391.209,140.776,392.376,152.618,392.376,164.969z"/>
<path style="fill:#E2B39F;" d="M257.193,248.935c-3.241-2.153-6.357-4.499-9.314-7.014c-15.807-13.394-27.433-31.581-32.634-52.306
	c-2.788,2.334-6.085,3.683-9.609,3.683c-10.13,0-18.357-11.161-18.357-24.929v-0.011c0-13.768,8.227-24.918,18.357-24.918
	c3.003,0,5.836,0.975,8.329,2.708c28.895-28.895,51.388-18.901,88.974-25.473C302.937,120.675,233.17,166.487,257.193,248.935z"/>
<path style="fill:#E6E6E6;" d="M241.215,249.479c-7.898,9.994-15.048,22.833-21.314,36.419
	c-34.312,1.496-67.989-7.887-93.008-21.677c-37.756-20.771-55.796-51.547-26.55-70.062
	C145.975,165.264,220.773,230.317,241.215,249.479z"/>
<g>
	<path style="fill:#43B5B5;" d="M247.855,126.374c-11.207,2.584-22.006,7.887-33.892,19.773c-2.493-1.734-5.326-2.708-8.329-2.708
		c-10.13,0-18.357,11.15-18.357,24.918c-13.96-7.229-38.606-22.923-30.674-62.583c7.773-38.889,65.722-29.462,65.722-29.462
		s0-52.011,57.79-70.141c8.351-2.629,16.748-4.351,25.042-5.292C305.158,0.879,225.827,57.287,247.855,126.374z"/>
	<path style="fill:#43B5B5;" d="M385.725,82.204c-2.794,2.849-5.677,5.595-8.637,8.245c-2.95,2.667-5.949,5.276-9.033,7.756
		c-6.177,4.972-12.579,9.635-19.347,13.963c-3.402,2.147-6.87,4.229-10.674,6.102c-0.933,0.48-1.939,0.934-2.93,1.393
		c-0.951,0.424-1.884,0.795-2.833,1.185l-2.839,1.154l-2.878,1.07c-3.833,1.448-7.788,2.575-11.747,3.686
		c-3.986,1.01-8.015,1.874-12.062,2.56c-4.054,0.664-8.122,1.118-12.165,1.482c-4.054,0.298-8.062,0.488-12.024,0.567
		c-7.935,0.145-15.547-0.015-22.843,0.36c-7.305,0.347-14.276,1.551-21.224,4.015c-6.967,2.418-13.671,6.244-20.525,10.409
		c2.159-3.356,4.505-6.674,7.322-9.614c2.772-2.982,5.848-5.782,9.297-8.179c6.848-4.859,15.078-8.12,23.227-9.859
		c2.035-0.436,4.076-0.834,6.091-1.165c2.025-0.335,4.031-0.58,6.017-0.833c3.978-0.527,7.883-0.826,11.708-1.229
		c3.826-0.389,7.608-0.686,11.316-1.18c3.719-0.419,7.403-0.893,11.04-1.54c3.659-0.539,7.267-1.296,10.872-2.082
		c3.608-0.785,7.188-1.704,10.763-2.705l2.687-0.741l2.667-0.827l2.666-0.815c0.818-0.267,1.633-0.516,2.48-0.832
		c3.359-1.225,6.866-2.653,10.359-4.153c7.016-2.988,14.095-6.196,21.27-9.297C370.944,87.995,378.099,84.808,385.725,82.204z"/>
</g>
<path style="fill:#4D4D4D;" d="M303.679,170.109c-3.393-0.36-5.847-0.629-8.145-0.729c-2.272-0.101-4.267-0.151-6.278-0.147
	c-2.01,0.008-4.001,0.058-6.272,0.16c-2.295,0.102-4.749,0.365-8.151,0.715c0.382-3.419,2.444-6.188,5.084-8.125
	c2.662-1.943,6.008-2.952,9.338-2.947c3.33,0.007,6.673,1.015,9.333,2.96C301.226,163.937,303.288,166.699,303.679,170.109z"/>
<path style="fill:#FFFFFF;" d="M315.935,212.799c3.393,0.36,5.847,0.629,8.145,0.729c2.272,0.101,4.267,0.151,6.278,0.147
	c2.01-0.008,4.001-0.058,6.272-0.16c2.295-0.102,4.749-0.365,8.151-0.715c-0.382,3.419-2.444,6.188-5.084,8.126
	c-2.662,1.943-6.008,2.952-9.338,2.947c-3.33-0.007-6.673-1.015-9.333-2.96C318.387,218.971,316.326,216.209,315.935,212.799z"/>
<path style="fill:#4D4D4D;" d="M386.706,170.109c-3.393-0.36-5.847-0.629-8.145-0.729c-2.272-0.101-4.267-0.151-6.278-0.147
	c-2.01,0.008-4.001,0.058-6.272,0.16c-2.295,0.102-4.749,0.365-8.151,0.715c0.382-3.419,2.444-6.188,5.084-8.125
	c2.662-1.943,6.008-2.952,9.338-2.947c3.33,0.007,6.673,1.015,9.333,2.96C384.254,163.937,386.315,166.699,386.706,170.109z"/>
<g>
	<path style="fill:#F9D780;" d="M301.952,73.502c-0.737-2.312-1.133-4.771-1.133-7.32c0-13.36,10.833-24.193,24.193-24.193
		c12.272,0,22.414,9.144,23.966,20.997"/>
	<path style="fill:#F9D780;" d="M284.128,92.786l-10.382-13.458c1.491-1.15,37.129-28.137,90.626-24.673l-1.1,16.962
		C316.131,68.556,284.441,92.543,284.128,92.786z"/>
</g>
<path style="fill:#E58376;" d="M283.481,206.051c-0.427,0-0.86-0.032-1.295-0.099l-13.598-2.077
	c-4.64-0.708-7.825-5.045-7.117-9.684c0.708-4.64,5.054-7.824,9.685-7.118l13.598,2.077c4.64,0.708,7.825,5.045,7.117,9.684
	C291.23,203.039,287.607,206.051,283.481,206.051z"/>
<g>
</g>
<g>
</g>
<g>
</g>
<g>
</g>
<g>
</g>
<g>
</g>
<g>
</g>
<g>
</g>
<g>
</g>
<g>
</g>
<g>
</g>
<g>
</g>
<g>
</g>
<g>
</g>
<g>
</g>
</svg>
