<?xml version="1.0" encoding="iso-8859-1"?>
<!-- Generator: Adobe Illustrator 19.0.0, SVG Export Plug-In . SVG Version: 6.00 Build 0)  -->
<svg version="1.1" id="Layer_1" xmlns="http://www.w3.org/2000/svg" xmlns:xlink="http://www.w3.org/1999/xlink" x="0px" y="0px"
	 viewBox="0 0 512 512" style="enable-background:new 0 0 512 512;" xml:space="preserve">
<g>
	<path style="fill:#FFD0B8;" d="M272.691,299.938c0,23.742,31.297,49.643,31.297,49.643c-38.851,11.871-74.468-55.039-74.468-55.039
		C240.226,284.009,272.691,316.266,272.691,299.938z"/>
	<path style="fill:#FFD0B8;" d="M176.413,438.668c-0.907,10.49-3.777,25.825-12.206,40.945
		c-4.695,8.461-11.137,16.857-19.944,24.293c0,0,0.572-10.587,0.939-24.293c0.356-13.479,0.507-29.991-0.291-42.38
		c-0.345-5.482-0.885-10.166-1.673-13.425l33.39,1.532C176.629,425.34,177.105,430.564,176.413,438.668z"/>
	<path style="fill:#FFD0B8;" d="M242.471,428.362c0,0-0.809,5.105-2.568,13.22c-2.061,9.605-5.461,23.429-10.425,38.031
		c-2.73,8.051-5.946,16.339-9.67,24.293l-4.392-24.293l-7.133-39.477l-2.428-13.458L242.471,428.362z"/>
</g>
<g>
	<path style="fill:#E2B39F;" d="M176.629,425.34c0,0,0.475,5.223-0.216,13.328l-25.976-1.187l-5.525-0.248
		c-0.345-5.482-0.885-10.166-1.673-13.425L176.629,425.34z"/>
	<path style="fill:#E2B39F;" d="M242.471,428.362c0,0-0.809,5.105-2.568,13.22l-26.85-1.23l-4.77-0.216l-2.428-13.458
		L242.471,428.362z"/>
</g>
<g>
	<path style="fill:#7DA9B5;" d="M240.313,512h-18.346c-4.471,0-8.094-3.624-8.094-8.094c0-4.47,3.623-8.094,8.094-8.094h18.346
		c4.471,0,8.094,3.624,8.094,8.094C248.407,508.376,244.784,512,240.313,512z"/>
	<path style="fill:#7DA9B5;" d="M164.77,512h-18.346c-4.471,0-8.094-3.624-8.094-8.094c0-4.47,3.623-8.094,8.094-8.094h18.346
		c4.471,0,8.094,3.624,8.094,8.094C172.864,508.376,169.241,512,164.77,512z"/>
	<path style="fill:#7DA9B5;" d="M145.204,479.613h19.005c-4.695,8.461-11.137,16.857-19.944,24.293
		C144.264,503.906,144.836,493.319,145.204,479.613z"/>
	<path style="fill:#7DA9B5;" d="M229.477,479.613c-2.73,8.051-5.946,16.339-9.67,24.293l-4.392-24.293H229.477z"/>
</g>
<polygon style="fill:#C5D1D3;" points="444.355,190.346 340.753,342.804 339.415,344.768 336.522,342.804 324.09,334.354 
	311.744,325.968 416.686,171.546 442.65,163.096 "/>
<polygon style="fill:#E4E9EA;" points="444.355,190.346 340.753,342.804 336.522,342.804 324.09,334.354 442.65,163.096 "/>
<path style="fill:#7DA9B5;" d="M299.662,376.021c-1.672,0-3.357-0.516-4.805-1.585c-3.595-2.657-4.355-7.725-1.698-11.32
	l13.76-18.616c2.657-3.595,7.726-4.355,11.32-1.698c3.595,2.657,4.355,7.725,1.698,11.32l-13.76,18.616
	C304.591,374.885,302.142,376.021,299.662,376.021z"/>
<path style="fill:#E8BB54;" d="M203.306,48.954c-4.275,0-7.847-3.349-8.075-7.667L193.5,8.52c-0.236-4.464,3.191-8.274,7.656-8.509
	c4.459-0.226,8.273,3.191,8.509,7.656l1.731,32.766c0.236,4.464-3.191,8.274-7.656,8.509
	C203.595,48.95,203.45,48.954,203.306,48.954z"/>
<path style="fill:#7DA9B5;" d="M263.871,263.85l-0.011,0.011c0,0-8.439,30.681-34.34,30.681c-22.48,0-29.257-30.174-30.66-38.139
	c-0.194-1.112-0.291-1.791-0.302-1.899c-7.792-2.104-15.195-5.169-22.059-9.065c-8.407,8.407-37.211,33.423-36.725,45.24
	c23.192,10.447-22.296,8.634-22.296,35.7c0,7.997,16.231,22.102,24.519,33.174c-7.047,0.734-18.066,2.018-20.278,1.705
	c-2.18,7.565,5.277,55.935,5.277,62.788l18.4,0.842l9.702,0.442l23.688,1.09l29.225,1.338l36.617,1.684
	c0,0-0.833-25.843-9.828-50.421c-3.39-9.262-2.245-19.628,3.457-27.677c3.755-5.3,8.38-9.951,13.009-14.509
	c10.706-10.533,21.422-20.569,21.422-36.898C272.688,284.538,268.232,272.224,263.871,263.85z"/>
<path style="fill:#FFD0B8;" d="M263.871,263.85l-0.011,0.011c0,0-8.439,30.681-34.34,30.681c-16.026,0-24.077-15.346-27.886-27.034
	c-2.277-6.982-3.033-12.67-3.076-13.004c8.008,2.169,16.436,3.324,25.134,3.324c12.195,0,22.782-2.277,31.847-6.432
	c0,0,2.914,3.108,6.335,8.882C262.533,261.378,263.202,262.566,263.871,263.85z"/>
<g>
	<path style="fill:#874B31;" d="M160.466,234.075c0,0-30.606,21.195-74.853,21.195c0,0,37.977-26.548,37.977-48.887v-0.011
		c4.489-1.198,8.785-2.644,12.907-4.274C142.184,214.38,150.397,225.269,160.466,234.075z"/>
	<path style="fill:#874B31;" d="M215.17,123.749c0,0-23.127,56.431-78.673,78.35c-4.123,1.63-8.418,3.076-12.907,4.274
		c-10.09,2.73-21.098,4.306-33.077,4.306c0,0,33.509-27.174,38.797-66.824h0.011C129.32,143.854,164.275,126.134,215.17,123.749z"/>
</g>
<path style="fill:#FFD0B8;" d="M299.236,161.78c0,40.847-13.339,75.738-43.697,89.616c-9.065,4.155-19.652,6.432-31.847,6.432
	c-8.698,0-17.127-1.155-25.134-3.324c-4.23-1.144-8.353-2.568-12.324-4.263c-3.346-1.414-6.605-3.033-9.734-4.802
	c-5.741-3.227-11.116-7.047-16.037-11.364c-10.069-8.806-18.282-19.695-23.969-31.977c42.941-16.943,66.5-54.51,74.982-70.687
	c2.504-4.759,3.691-7.662,3.691-7.662c3.389-0.162,6.853-0.259,10.382-0.259c21.778-0.086,46.038,2.795,71.464,10.954
	c0.183,1.079,0.367,2.169,0.529,3.259C298.686,145.397,299.236,153.47,299.236,161.78z"/>
<path style="fill:#E2B39F;" d="M261.874,260.278c-2.018,1.219-4.133,2.342-6.335,3.346c-9.065,4.155-19.652,6.432-31.847,6.432
	c-7.587,0-14.979-0.885-22.059-2.547c-2.277-6.982-3.033-12.67-3.076-13.004c8.008,2.169,16.436,3.324,25.134,3.324
	c12.195,0,22.782-2.277,31.847-6.432C255.54,251.396,258.453,254.504,261.874,260.278z"/>
<path style="fill:#E8BB54;" d="M185.633,83.279c0,2.374-0.324,4.792-0.982,7.198c-1.144,4.166-3.248,7.77-6.022,10.716
	c-4.63,4.921-11.137,8.072-18.249,9.108c-12.022,1.748-20.85,1.435-27.336,0.032c-18.238-3.928-17.915-16.522-17.915-16.522
	c-30.217,0-23.742-32.376-23.742-32.376c-17.267,0-23.742-32.376-23.742-32.376l92.757,26.613l5.633,1.619
	C177.884,60.691,185.633,71.505,185.633,83.279z"/>
<path style="fill:#7DA9B5;" d="M293.701,109.309c-32.905-19.264-73.353-16.361-96.48-12.357
	c-11.407,1.986-18.595,4.241-18.595,4.241c2.774-2.946,4.878-6.551,6.022-10.716c0.658-2.407,0.982-4.824,0.982-7.198
	c0-11.774-7.749-22.588-19.598-25.987l-5.633-1.619c20.246-23.947,42.909-33.628,42.909-33.628
	c4.748,0.896,9.249,1.986,13.522,3.248C269.3,40.759,287.442,82.167,293.701,109.309z"/>
<path style="fill:#E8BB54;" d="M139.983,316.299c10.814,0,19.587,8.763,19.587,19.577c0,10.814-8.774,19.587-19.587,19.587
	c-10.803,0-19.577-8.774-19.577-19.587C120.406,325.062,129.18,316.299,139.983,316.299z"/>
<path style="fill:#69949E;" d="M155.099,425.33l-9.702-0.442l-18.4-0.842c0-6.853-7.457-55.222-5.277-62.788
	c2.212,0.313-0.466-8.976,6.581-9.71c-8.288-11.073-10.822-17.173-10.822-25.17c0-27.066,45.488-25.253,22.296-35.7
	c-0.486-11.817,28.318-36.833,36.725-45.24c6.864,3.896,14.267,6.961,22.059,9.065c0.011,0.108,0.108,0.788,0.302,1.899
	c-12.767,17.278-38.171,56.312-46.19,102.901c-0.691,3.971-1.252,7.997-1.651,12.065
	C149.251,388.745,150.135,406.962,155.099,425.33z"/>
<path style="fill:#E2B39F;" d="M186.236,250.241c-3.346-1.414-6.605-3.033-9.734-4.802c-5.741-3.227-11.116-7.047-16.037-11.364
	c-10.069-8.806-18.282-19.695-23.969-31.977c55.546-21.918,78.673-78.35,78.673-78.35c3.389-0.162,18.241-7.465,21.77-7.465
	l-4.514,5.177c-3.671,4.211-7.033,8.683-10.039,13.393C207.953,157.473,168.218,224.456,186.236,250.241z"/>
<path style="fill:#69949E;" d="M297.014,134.39c0,0.032,0,0.054,0,0.054c-29.538-9.475-57.51-11.839-81.846-10.695
	c-4.835,0.227-9.518,0.594-14.051,1.068c-43.168,4.522-71.799,19.037-71.799,19.037c0-12.227,1.36-23.386,3.723-33.52
	c6.486,1.403,15.314,1.716,27.336-0.032c7.112-1.036,13.619-4.187,18.249-9.108c0,0,7.187-2.256,18.595-4.241
	c23.127-4.004,63.575-6.907,96.48,12.357C296.939,123.328,297.014,133.526,297.014,134.39z"/>
<path style="fill:#E2B39F;" d="M297.542,137.703c-25.48-6.799-49.567-8.482-70.86-7.479c-4.835,0.227-9.518,0.594-14.051,1.068
	c-0.389,0.043-0.766,0.086-1.155,0.119c2.504-4.759,3.691-7.662,3.691-7.662c3.389-0.162,6.853-0.259,10.382-0.259
	c21.778-0.086,46.038,2.795,71.464,10.954C297.197,135.523,297.38,136.613,297.542,137.703z"/>
<path style="fill:#E8BB54;" d="M167.297,275.063c23.192,10.447,39.326,33.746,39.326,60.813c0,11.558-2.935,22.426-8.116,31.901
	c-11.299,20.699-33.272,34.739-58.525,34.739c-3.14,0-6.238-0.216-9.27-0.648c-32.408-4.5-57.359-32.333-57.359-65.993
	c0-36.801,29.829-66.64,66.629-66.64C149.717,269.235,158.966,271.318,167.297,275.063z M159.57,335.875
	c0-10.814-8.774-19.577-19.587-19.577c-10.803,0-19.577,8.763-19.577,19.577c0,10.814,8.774,19.587,19.577,19.587
	C150.796,355.463,159.57,346.689,159.57,335.875z"/>
<path style="fill:#69949E;" d="M197.221,96.952c0.022,9.098,1.144,18.519,3.896,27.865c-43.168,4.522-71.799,19.037-71.799,19.037
	c0-12.227,1.36-23.386,3.723-33.52c6.486,1.403,15.314,1.716,27.336-0.032c7.112-1.036,13.619-4.187,18.249-9.108
	c2.774-2.946,4.878-6.551,6.022-10.716c0.658-2.407,0.982-4.824,0.982-7.198c0-11.774-7.749-22.588-19.598-25.987l-5.633-1.619
	c20.246-23.947,42.909-33.628,42.909-33.628c4.748,0.896,9.249,1.986,13.522,3.248C216.83,25.294,197.145,58.436,197.221,96.952z"/>
<path style="fill:#FFFFFF;" d="M214.646,194.639c6.986,1.932,12.667,3.463,18.244,4.337c5.522,0.907,10.736,1.355,15.972,1.353
	c5.235-0.018,10.443-0.465,15.962-1.375c5.573-0.875,11.253-2.398,18.253-4.315c-1.975,7.027-7.01,12.697-13.146,16.658
	c-6.183,3.942-13.635,6.007-21.069,5.996c-7.433-0.01-14.882-2.072-21.06-6.019C221.669,207.312,216.636,201.652,214.646,194.639z"
	/>
<g>
	<path style="fill:#4D4D4D;" d="M227.552,173.25c-3.575,0-6.475-2.9-6.475-6.475v-15.109c0-3.575,2.9-6.475,6.475-6.475
		c3.575,0,6.475,2.9,6.475,6.475v15.109C234.027,170.352,231.128,173.25,227.552,173.25z"/>
	<path style="fill:#4D4D4D;" d="M273.388,173.25c-3.575,0-6.475-2.9-6.475-6.475v-15.109c0-3.575,2.9-6.475,6.475-6.475
		c3.575,0,6.475,2.9,6.475,6.475v15.109C279.864,170.352,276.964,173.25,273.388,173.25z"/>
</g>
<path style="fill:#7DA9B5;" d="M157.754,90.574c-3.306,0-6.366-2.097-7.548-5.181c-1.238-3.228-0.254-6.972,2.416-9.167
	c2.721-2.237,6.69-2.424,9.621-0.48c2.774,1.839,4.142,5.323,3.391,8.558C164.794,87.929,161.487,90.574,157.754,90.574z"/>
<path style="fill:#4D4D4D;" d="M139.602,381.083c-0.755-4.403,2.202-8.59,6.605-9.346l0,0l0,0l0,0
	c4.403-0.766,8.59,2.191,9.346,6.594l0,0c0.755,4.414-2.202,8.601-6.605,9.357l0,0c-0.464,0.076-0.928,0.119-1.381,0.119l0,0
	C143.703,387.806,140.282,385.022,139.602,381.083z M113.572,381.342c-3.864-2.256-5.169-7.209-2.925-11.073l0,0
	c2.256-3.863,7.21-5.169,11.073-2.925l0,0c3.864,2.256,5.169,7.209,2.926,11.073l0,0c-1.501,2.579-4.22,4.025-7.004,4.025l0,0
	C116.259,382.442,114.856,382.086,113.572,381.342z M168.729,370.766c-3.41-2.881-3.843-7.997-0.95-11.407l0,0
	c2.881-3.41,7.985-3.842,11.406-0.95l0,0c3.41,2.881,3.832,7.997,0.951,11.407l0,0c-1.608,1.889-3.886,2.86-6.184,2.86l0,0
	C172.107,372.676,170.251,372.05,168.729,370.766z M90.542,353.758c-1.522-4.198,0.649-8.839,4.856-10.36l0,0
	c4.198-1.522,8.839,0.648,10.361,4.856l0,0l0,0l0,0c1.521,4.209-0.649,8.849-4.856,10.36l0,0c-0.908,0.335-1.835,0.486-2.753,0.486
	l0,0C94.838,359.099,91.73,357.049,90.542,353.758z M184.432,344.153c-4.478-0.022-8.083-3.658-8.062-8.126l0,0
	c0-0.022,0-0.032,0-0.054l0,0c0-0.032,0-0.065,0-0.097l0,0l0,0l0,0c0,0,0-0.011,0-0.022l0,0c0.011-4.457,3.625-8.072,8.094-8.072
	l0,0c4.468,0,8.094,3.626,8.094,8.094l0,0c0,0.032,0,0.065,0,0.097l0,0c0,0.032,0,0.076,0,0.119l0,0
	c-0.023,4.457-3.648,8.062-8.094,8.062l0,0C184.454,344.153,184.442,344.153,184.432,344.153z M95.43,328.191
	c-4.199-1.532-6.358-6.184-4.824-10.382l0,0c1.543-4.198,6.183-6.356,10.381-4.824l0,0c4.199,1.543,6.358,6.184,4.825,10.393l0,0
	c0,0,0,0,0-0.011l0,0c-1.198,3.292-4.306,5.32-7.598,5.32l0,0C97.287,328.688,96.348,328.526,95.43,328.191z M167.877,312.511
	L167.877,312.511L167.877,312.511c-2.881-3.421-2.439-8.526,0.993-11.407l0,0c3.421-2.871,8.526-2.428,11.407,1.004l0,0
	c2.871,3.421,2.416,8.526-1.005,11.396l0,0c-1.521,1.273-3.366,1.899-5.201,1.899l0,0
	C171.762,315.403,169.474,314.421,167.877,312.511z M110.787,301.373c-2.233-3.874-0.907-8.828,2.968-11.062l0,0
	c3.875-2.234,8.817-0.906,11.051,2.968l0,0c2.234,3.874,0.907,8.828-2.968,11.062l0,0c-1.273,0.734-2.666,1.079-4.036,1.079l0,0
	C115.007,305.42,112.288,303.974,110.787,301.373z M146.347,300.057c-4.403-0.777-7.339-4.975-6.572-9.378l0,0
	c0.777-4.403,4.975-7.349,9.378-6.572l0,0c4.402,0.777,7.349,4.975,6.572,9.378l0,0c-0.692,3.928-4.113,6.691-7.964,6.691l0,0
	C147.296,300.176,146.823,300.132,146.347,300.057z"/>
<path style="fill:#7DA9B5;" d="M139.987,360.314c-13.473,0-24.435-10.961-24.435-24.434c0-13.473,10.961-24.434,24.435-24.434
	s24.434,10.961,24.434,24.434C164.421,349.352,153.461,360.314,139.987,360.314z M139.987,321.158
	c-8.118,0-14.722,6.604-14.722,14.721c0,8.118,6.604,14.721,14.722,14.721c8.117,0,14.721-6.604,14.721-14.721
	C154.708,327.762,148.105,321.158,139.987,321.158z"/>
<path style="fill:#FFD0B8;" d="M313.429,363.611c-7.885,0-14.299-6.415-14.299-14.299c0-7.885,6.415-14.299,14.299-14.299
	s14.299,6.415,14.299,14.299C327.728,357.196,321.313,363.611,313.429,363.611z"/>
<path style="fill:#7DA9B5;" d="M348.341,358.928c-1.566,0-3.149-0.453-4.542-1.401l-45.523-30.935
	c-3.697-2.512-4.657-7.547-2.144-11.243c2.512-3.697,7.547-4.659,11.244-2.145l45.523,30.935c3.697,2.512,4.657,7.547,2.144,11.243
	C353.476,357.686,350.931,358.928,348.341,358.928z"/>
<g>
</g>
<g>
</g>
<g>
</g>
<g>
</g>
<g>
</g>
<g>
</g>
<g>
</g>
<g>
</g>
<g>
</g>
<g>
</g>
<g>
</g>
<g>
</g>
<g>
</g>
<g>
</g>
<g>
</g>
</svg>
