<svg id="Layer_1" enable-background="new 0 0 512 512" height="512" viewBox="0 0 512 512" width="512" xmlns="http://www.w3.org/2000/svg"><g><g><path d="m130.821 267.2h-24c-2.122 0-4.156-.843-5.657-2.343l-8-8c-3.124-3.124-3.124-8.189 0-11.313 3.125-3.125 8.189-3.125 11.314 0l5.656 5.657h20.687c4.418 0 8 3.582 8 8 0 4.417-3.582 7.999-8 7.999z" fill="#f0915a"/></g><path d="m122.821 259.2h-16c-4.418 0-8 3.582-8 8h-12.686l-13.656-13.657c-3.125-3.125-8.189-3.125-11.314 0-3.124 3.124-3.124 8.189 0 11.313l16 16c1.501 1.5 3.535 2.343 5.657 2.343h48v-16c-.001-4.417-3.583-7.999-8.001-7.999z" fill="#fab991"/><g><path d="m138.821 323.2h24v-80h-24c-4.418 0-8 3.582-8 8v64c0 4.418 3.582 8 8 8z" fill="#8caac8"/></g><g><path d="m386.821 179.2c0-26.51-21.49-48-48-48h-128c-8.837 0-16 7.163-16 16 0 8.837 7.163 16 16 16h16v16c0 17.673 14.327 32 32 32 0 17.673 14.327 32 32 32 0 17.673 14.327 32 32 32 0 17.673 14.327 32 32 32 0 17.673 14.327 32 32 32z" fill="#d7e6f0"/></g><g><path d="m178.821 131.2c-8.836 0-16 7.163-16 16s7.164 16 16 16h32v-32z" fill="#d76e28"/></g><g><path d="m194.821 163.2c-17.673 0-32 14.327-32 32v128 112c-17.673 0-32 14.327-32 32 0 17.673 14.327 32 32 32h32 96v-176-160z" fill="#aac3d7"/></g><g><path d="m290.821 435.2v-96h-32v96 32c0 17.673 14.327 32 32 32 17.673 0 32-14.327 32-32 0-17.673-14.327-32-32-32z" fill="#d7e6f0"/></g><g><g><path d="m450.821 371.2v-160c0-26.51-21.49-48-48-48h-128c-8.837 0-16 7.163-16 16 0 8.837 7.163 16 16 16h128c8.837 0 16 7.163 16 16v128c0 17.673 14.327 32 32 32z" fill="#aac3d7"/></g><g><path d="m402.821 195.2h-80v48c0 17.673 14.327 32 32 32 0 17.673 14.327 32 32 32 0 17.673 14.327 32 32 32v-128c0-8.837-7.163-16-16-16z" fill="#8caac8"/></g></g><g><g><path d="m362.821 59.2h-16v-16c0-4.418 3.582-8 8-8 4.418 0 8 3.582 8 8z" fill="#faa51e"/></g><g><path d="m354.821 99.2c-4.418 0-8-3.582-8-8v-16h16v16c0 4.418-3.582 8-8 8z" fill="#faa51e"/></g><g><path d="m346.821 59.2v16h-16c-4.418 0-8-3.582-8-8 0-4.418 3.582-8 8-8z" fill="#faa51e"/></g><g><path d="m386.821 67.2c0 4.418-3.582 8-8 8h-16v-16h16c4.418 0 8 3.582 8 8z" fill="#faa51e"/></g></g><g><g><path d="m98.821 163.2h-16v-16c0-4.418 3.582-8 8-8 4.418 0 8 3.582 8 8z" fill="#faa51e"/></g><g><path d="m90.821 203.2c-4.418 0-8-3.582-8-8v-16h16v16c0 4.418-3.582 8-8 8z" fill="#faa51e"/></g><g><path d="m82.821 163.2v16h-16c-4.418 0-8-3.582-8-8 0-4.418 3.582-8 8-8z" fill="#faa51e"/></g><g><path d="m122.821 171.2c0 4.418-3.582 8-8 8h-16v-16h16c4.418 0 8 3.582 8 8z" fill="#faa51e"/></g></g><g><g><path d="m338.821 371.2h-16v-16c0-4.418 3.582-8 8-8 4.418 0 8 3.582 8 8z" fill="#faa51e"/></g><g><path d="m330.821 411.2c-4.418 0-8-3.582-8-8v-16h16v16c0 4.418-3.582 8-8 8z" fill="#faa51e"/></g><g><path d="m322.821 371.2v16h-16c-4.418 0-8-3.582-8-8 0-4.418 3.582-8 8-8z" fill="#faa51e"/></g><g><path d="m362.821 379.2c0 4.418-3.582 8-8 8h-16v-16h16c4.418 0 8 3.582 8 8z" fill="#faa51e"/></g></g><g><path d="m290.821 307.2h-128c-4.418 0-8 3.582-8 8 0 4.418 3.582 8 8 8h128c4.418 0 8-3.582 8-8 0-4.418-3.582-8-8-8z" fill="#f58723"/></g><g><path d="m234.821 163.2h-32c-17.673 0-32-14.327-32-32v-48c0-13.255 10.745-24 24-24h16c13.255 0 24 10.745 24 24z" fill="#fab991"/></g><g><path d="m282.821 163.2c-22.091 0-40 17.909-40 40v8h-40c-4.418 0-8 3.582-8 8v64c0 4.418 3.582 8 8 8h40 48c17.673 0 32-14.327 32-32v-48-8c0-22.091-17.909-40-40-40z" fill="#d7e6f0"/></g><g><path d="m210.821 211.2h16v80h-16z" fill="#faa51e"/></g><path d="m178.821 219.2v-12c0-6.627-5.373-12-12-12s-12 5.373-12 12v32c0 6.627 5.373 12 12 12h28v-32z" fill="#fab991"/><g><path d="m226.821 43.2h-24c-22.091 0-40 17.909-40 40v8c0 4.418 3.582 8 8 8v-8h24c4.418 0 8-3.582 8-8 0 4.418 3.582 8 8 8h24v40c-8.836 0-16 7.163-16 16s7.164 16 16 16h24c8.836 0 16-7.163 16-16v-56c0-26.51-21.49-48-48-48z" fill="#d76e28"/></g><g><path d="m250.821 27.2h-64c-4.418 0-8-3.582-8-8s3.582-8 8-8h64c4.418 0 8 3.582 8 8s-3.582 8-8 8z" fill="#faa51e"/></g></g></svg>