<svg id="Layer_1" enable-background="new 0 0 512 512" height="512" viewBox="0 0 512 512" width="512" xmlns="http://www.w3.org/2000/svg"><g><g><path d="m74.927 156.8c0-8.836-7.164-16-16-16v48h176v-32z" fill="#f0915a"/></g><g><path d="m410.927 172.8c0-26.51-21.49-48-48-48h-128c-8.837 0-16 7.163-16 16 0 8.837 7.163 16 16 16h16v16c0 17.673 14.327 32 32 32 0 17.673 14.327 32 32 32 0 17.673 14.327 32 32 32 0 17.673 14.327 32 32 32 0 17.673 14.327 32 32 32z" fill="#d7e6f0"/></g><g><g><path d="m474.927 364.8v-160c0-26.51-21.49-48-48-48h-112c-8.837 0-16 7.163-16 16 0 8.837 7.163 16 16 16h112c8.837 0 16 7.163 16 16v128c0 17.673 14.327 32 32 32z" fill="#aac3d7"/></g><g><path d="m426.927 188.8h-112v16c0 17.673 14.327 32 32 32 0 17.673 14.327 32 32 32 0 17.673 14.327 32 32 32 0 17.673 14.327 32 32 32v-128c0-8.836-7.164-16-16-16z" fill="#8caac8"/></g></g><g><path d="m314.927 108.8h-8c-4.418 0-8-3.582-8-8v-28c0-2.209 1.791-4 4-4 2.209 0 4 1.791 4 4 0 2.209 1.791 4 4 4 2.209 0 4-1.791 4-4 0-2.209 1.791-4 4-4 2.209 0 4 1.791 4 4v28c0 4.418-3.582 8-8 8z" fill="#d76e28"/></g><g><path d="m330.927 132.8h-48v96c0 13.255 10.745 24 24 24 13.255 0 24-10.745 24-24z" fill="#464646"/></g><g><path d="m322.927 108.8h8v24h-8z" fill="#fab991"/></g><g><path d="m306.927 108.8h8v24h-8z" fill="#fab991"/></g><g><path d="m330.927 108.8h-8c-4.418 0-8-3.582-8-8v-28c0-2.209 1.791-4 4-4 2.209 0 4 1.791 4 4 0 2.209 1.791 4 4 4 2.209 0 4-1.791 4-4 0-2.209 1.791-4 4-4 2.209 0 4 1.791 4 4v28c0 4.418-3.582 8-8 8z" fill="#faa51e"/></g><g><path d="m258.927 348.8h-2.745l9.372-9.372c12.497-12.497 12.497-32.759 0-45.255-12.497-12.497-32.758-12.497-45.255 0l-64 64c-9.152 9.151-11.89 22.915-6.937 34.873s16.621 19.754 29.564 19.754h48c0 17.673 14.327 32 32 32 8.836 0 16-7.164 16-16v-64c.001-8.836-7.163-16-15.999-16z" fill="#f0915a"/></g><g><path d="m394.927 444.8c0-8.189-3.124-16.379-9.373-22.627l-54.627-54.627v-66.746c0-17.673-14.327-32-32-32s-32 14.327-32 32v80c0 8.487 3.371 16.626 9.373 22.627l41.373 41.373h-2.746c-17.673 0-32 14.327-32 32 0 8.836 7.164 16 16 16h80c8.836 0 16-7.164 16-16z" fill="#fab991"/></g><g><path d="m330.927 300.8h-128v-112c0-17.673 14.327-32 32-32h80v80.26c0 10.078-4.004 19.744-11.13 26.87l-4.87 4.87c17.673 0 32 14.327 32 32z" fill="#7dc8aa"/></g><g><path d="m354.927 44.8h40v37.333h-40z" fill="#f0915a"/></g><g><path d="m378.927 82.133c0-8.836-7.164-16-16-16v-4c0-6.627-5.373-12-12-12-2.209 0-4 1.791-4 4v20c0 4.418 3.582 8 8 8h8v58.667c0 8.836-7.164 16-16 16h-32c-8.836 0-16 7.164-16 16 0 8.836 7.164 16 16 16h32c26.51 0 48-21.49 48-48v-58.667z" fill="#fab991"/></g><g><path d="m354.927 28.8h32c4.418 0 8 3.582 8 8v8h-40c-4.418 0-8-3.582-8-8 0-4.418 3.582-8 8-8z" fill="#fab991"/></g><g><path d="m274.927 84.8c0-13.255-10.745-24-24-24h-40c-13.255 0-24 10.745-24 24v56c0 17.673 14.327 32 32 32h20.292c-2.725 4.708-4.292 10.169-4.292 16 0 8.836 7.164 16 16 16 8.836 0 16-7.164 16-16 0-17.673 14.327-32 32-32h-24z" fill="#f0915a"/></g><g><path d="m234.927 172.8h-16c-17.673 0-32-14.327-32-32v-56c0-13.255 10.745-24 24-24h16c13.255 0 24 10.745 24 24v72c0 8.837-7.163 16-16 16z" fill="#fab991"/></g><g><path d="m314.927 48.8c0-15.464-12.536-28-28-28-14.105 0-25.769 10.432-27.711 24h-56.289c-17.673 0-32 14.327-32 32v16c0 4.418 3.582 8 8 8h64v8c0 4.418 3.582 8 8 8v24c0 8.836 7.164 16 16 16h16c8.836 0 16-7.164 16-16v-64c0-.892-.046-1.772-.118-2.645 9.522-4.47 16.118-14.14 16.118-25.355z" fill="#aa5a28"/></g><g><path d="m298.927 268.8h-96v42.746l-46.627 46.627c-6.12 6.119-9.371 14.302-9.373 22.627h168c8.836 0 16-7.164 16-16v-64c0-17.673-14.327-32-32-32z" fill="#329682"/></g><g><path d="m106.927 280.8c-2.209 0-4-1.791-4-4v-224c0-2.209 1.791-4 4-4s4 1.791 4 4v224c0 2.209-1.791 4-4 4z" fill="#d7e6f0"/></g><g><path d="m50.927 152.8c-2.209 0-4-1.791-4-4v-40c0-19.851 16.149-36 36-36 11.028 0 20-8.972 20-20 0-2.209 1.791-4 4-4s4 1.791 4 4c0 15.439-12.561 28-28 28s-28 12.561-28 28v40c0 2.209-1.791 4-4 4z" fill="#64412d"/></g><g><path d="m106.927 280.8c-2.209 0-4-1.791-4-4 0-11.028-8.972-20-20-20-19.851 0-36-16.149-36-36v-40c0-2.209 1.791-4 4-4s4 1.791 4 4v40c0 15.439 12.561 28 28 28s28 12.561 28 28c0 2.209-1.791 4-4 4z" fill="#64412d"/></g><g><path d="m54.927 196.8h-8c-2.209 0-4-1.791-4-4v-56c0-2.209 1.791-4 4-4h8c2.209 0 4 1.791 4 4v56c0 2.209-1.791 4-4 4z" fill="#d76e28"/></g><g><path d="m40.26 140.8c13.255 0 24 10.745 24 24 0 13.255-10.745 24-24 24-4.418 0-8-3.582-8-8v-32c0-4.418 3.582-8 8-8z" fill="#fab991"/></g><g><path d="m258.927 140.8c-4.418 0-8-3.582-8-8v-16c0-4.418 3.582-8 8-8 8.837 0 16 7.163 16 16 0 8.837-7.163 16-16 16z" fill="#f0915a"/></g><g><path d="m170.927 76.8h128v13.333h-128z" fill="#faa51e"/></g><g><path d="m234.927 44.8c0-5.828-1.566-11.288-4.288-15.994.187 1.305.288 2.638.288 3.994 0 15.464-12.536 28-28 28s-28-12.536-28-28c0-1.356.102-2.689.288-3.994-2.722 4.707-4.288 10.166-4.288 15.994 0 14.935 10.232 27.479 24.068 31.008-.04.326-.068.655-.068.992 0 4.418 3.582 8 8 8s8-3.582 8-8c0-.337-.028-.667-.068-.992 13.836-3.529 24.068-16.073 24.068-31.008z" fill="#fad241"/></g><g><path d="m298.927 268.8h-96v32h128c0-17.673-14.327-32-32-32z" fill="#faa51e"/></g></g></svg>