<svg xmlns="http://www.w3.org/2000/svg" viewBox="0 0 512 512" width="512" height="512">
	<style>
		tspan { white-space:pre }
		.shp0 { fill: #6cc04a } 
		.shp1 { fill: #ffffff } 
		.shp2 { fill: #ff7f3f } 
		.shp3 { opacity: 0.2;fill: #000000 } 
	</style>
	<g id="Layer">
		<path id="Layer" class="shp0" d="M118.6 251.78C53.99 251.78 1.42 199.21 1.42 134.6C1.42 118.47 14.5 105.39 30.64 105.39C46.78 105.39 59.86 118.47 59.86 134.6C59.86 166.99 86.21 193.34 118.6 193.34C134.73 193.34 147.81 206.42 147.81 222.56C147.81 238.7 134.73 251.78 118.6 251.78Z" />
		<path id="Layer" class="shp0" d="M393.4 251.78C377.26 251.78 364.18 238.7 364.18 222.56C364.18 206.42 377.26 193.34 393.4 193.34C425.78 193.34 452.13 166.99 452.13 134.61C452.13 118.47 465.22 105.39 481.35 105.39C497.49 105.39 510.57 118.47 510.57 134.61C510.57 199.21 458.01 251.78 393.4 251.78Z" />
		<path id="Layer" class="shp0" d="M480.56 333.67C481.09 330.29 481.36 326.83 481.36 323.31C481.36 290.8 458.32 263.68 427.68 257.38C427.69 256.92 427.72 256.46 427.72 256C427.72 231.53 414.66 210.12 395.14 198.34C395.59 195.19 395.84 191.97 395.84 188.69C395.84 159.68 377.48 134.96 351.76 125.51C351.84 124.14 351.89 122.77 351.89 121.39C351.89 84.22 321.76 54.09 284.59 54.09L227.41 54.09C190.24 54.09 160.11 84.22 160.11 121.39C160.11 122.77 160.16 124.14 160.25 125.51C134.52 134.96 116.16 159.68 116.16 188.69C116.16 191.97 116.41 195.19 116.86 198.34C97.34 210.12 84.28 231.53 84.28 256C84.28 256.46 84.31 256.92 84.32 257.38C53.68 263.68 30.64 290.8 30.64 323.31C30.64 326.83 30.92 330.29 31.44 333.67C12.55 345.59 0 366.63 0 390.61C0 427.78 30.13 457.91 67.3 457.91L444.7 457.91C481.87 457.91 512 427.78 512 390.61C512 366.63 499.45 345.59 480.56 333.67Z" />
	</g>
	<g id="Layer">
		<path id="Layer" class="shp1" d="M460.37 399.78C450.29 399.78 442.15 391.64 442.15 381.56C442.15 371.49 450.29 363.34 460.37 363.34C470.45 363.34 478.59 371.49 478.59 381.56C478.59 391.64 470.45 399.78 460.37 399.78Z" />
		<path id="Layer" class="shp1" d="M255.99 263.98C216.16 263.98 183.97 231.78 183.97 191.95C183.97 152.12 216.16 119.93 255.99 119.93C295.82 119.93 328.02 152.12 328.02 191.95C328.02 231.78 295.82 263.98 255.99 263.98Z" />
	</g>
	<path id="Layer" class="shp2" d="M255.99 225.52C237.43 225.52 222.43 210.51 222.43 191.95C222.43 173.39 237.43 158.39 255.99 158.39C274.56 158.39 289.56 173.39 289.56 191.95C289.56 210.51 274.56 225.52 255.99 225.52Z" />
	<path id="Layer" class="shp3" d="M431.71 307.57C431.71 302.56 427.66 298.51 422.66 298.51C417.66 298.51 413.6 302.56 413.6 307.57C413.6 312.56 417.66 316.62 422.66 316.62C427.66 316.62 431.71 312.56 431.71 307.57Z" />
	<path id="Layer" class="shp3" d="M76.26 390.61C76.26 385.61 72.21 381.56 67.21 381.56C62.21 381.55 58.15 385.6 58.15 390.61C58.15 395.61 62.2 399.66 67.2 399.66C72.21 399.67 76.26 395.61 76.26 390.61Z" />
	<path id="Layer" class="shp3" d="M146.31 258C146.31 252.99 142.25 248.94 137.25 248.94C132.26 248.94 128.2 252.99 128.2 258C128.2 263 132.25 267.06 137.25 267.06C142.25 267.06 146.31 263 146.31 258Z" />
	<path id="Layer" class="shp3" d="M307.67 95.3C307.67 90.3 303.62 86.25 298.62 86.25C293.62 86.25 289.56 90.3 289.56 95.3C289.56 100.3 293.61 104.36 298.62 104.36C303.62 104.36 307.67 100.3 307.67 95.3Z" />
	<path id="Layer" class="shp3" d="M365.88 263.97C365.88 258.96 361.83 254.92 356.83 254.91C351.83 254.91 347.77 258.96 347.77 263.97C347.77 268.97 351.83 273.02 356.83 273.02C361.83 273.02 365.88 268.96 365.88 263.97Z" />
	<path id="Layer" class="shp3" d="M360.95 421.45C360.95 416.44 356.89 412.39 351.89 412.39C346.9 412.39 342.84 416.44 342.84 421.45C342.84 426.45 346.89 430.5 351.89 430.5C356.89 430.5 360.95 426.44 360.95 421.45Z" />
	<path id="Layer" class="shp3" d="M404.89 372.5C404.89 367.5 400.84 363.45 395.84 363.45C390.84 363.44 386.78 367.49 386.78 372.5C386.78 377.5 390.83 381.56 395.84 381.56C400.84 381.56 404.89 377.5 404.89 372.5Z" />
	<path id="Layer" class="shp3" d="M395.84 237.52C395.84 232.51 391.78 228.46 386.78 228.46C381.78 228.46 377.73 232.51 377.73 237.52C377.73 242.52 381.78 246.57 386.78 246.57C391.78 246.57 395.84 242.51 395.84 237.52Z" />
	<g id="Layer">
	</g>
	<g id="Layer">
	</g>
	<g id="Layer">
	</g>
	<g id="Layer">
	</g>
	<g id="Layer">
	</g>
	<g id="Layer">
	</g>
	<g id="Layer">
	</g>
	<g id="Layer">
	</g>
	<g id="Layer">
	</g>
	<g id="Layer">
	</g>
	<g id="Layer">
	</g>
	<g id="Layer">
	</g>
	<g id="Layer">
	</g>
	<g id="Layer">
	</g>
	<g id="Layer">
	</g>
</svg>