<svg height="511pt" viewBox="-10 0 511 511.99921" width="511pt" xmlns="http://www.w3.org/2000/svg"><path d="m64.617188 230.125c-2.589844 0-5.121094-1.296875-6.589844-3.660156l-21.039063-33.832032c-2.257812-3.632812-1.144531-8.414062 2.488281-10.671874 3.636719-2.261719 8.414063-1.148438 10.675782 2.488281l21.039062 33.832031c2.257813 3.632812 1.144532 8.414062-2.488281 10.675781-1.273437.789063-2.6875 1.167969-4.085937 1.167969zm0 0" fill="#ff6930"/><path d="m87.582031 219.527344c-3.8125 0-7.136719-2.8125-7.671875-6.695313l-4.847656-35.351562c-.582031-4.238281 2.382812-8.148438 6.625-8.730469 4.238281-.570312 8.152344 2.386719 8.730469 6.625l4.851562 35.347656c.578125 4.242188-2.386719 8.152344-6.628906 8.734375-.355469.046875-.707031.070313-1.058594.070313zm0 0" fill="#ff6930"/><path d="m384.175781 205.457031c-59.28125-45.652343-166.980469-87.09375-233.773437-65.386719-40.789063 13.257813-48.148438 46.441407-47.695313 70.269532 11.601563.34375 23.246094 4.019531 33.414063 11.351562l180.929687 130.476563c11.34375 6.609375 21.757813 15.628906 30.136719 28.542969l4.054688 1.652343c-.011719-2.105469.261718-4.242187.890624-6.351562 3.476563-11.707031 15.878907-18.328125 27.519532-14.636719 21.558594 6.835938 42.902344 18.070312 55.765625 44.984375 97.09375-49.90625 5.84375-156.933594-51.242188-200.902344zm0 0" fill="#ffc265"/><path d="m384.175781 205.457031c28.039063 21.597657 64.320313 58.40625 82.476563 96.191407 64.539062-42.902344-6.265625-125.203126-51.265625-159.855469-48.738281-37.539063-137.292969-71.613281-192.210938-53.765625-27.332031 8.882812-36.40625 28.644531-38.628906 46.261718 65.277344-2.808593 149.65625 32.683594 199.628906 71.167969zm0 0" fill="#ffc265"/><path d="m466.652344 301.648438c7.234375-4.808594 12.753906-10.113282 16.8125-15.789063-16.695313-40.324219-55.925782-80.597656-85.800782-103.605469-51.5-39.664062-139.546874-76.140625-205.566406-70.796875-4.375 7.320313-6.597656 15.273438-7.550781 22.832031 65.277344-2.808593 149.65625 32.683594 199.625 71.167969 28.042969 21.597657 64.324219 58.40625 82.480469 96.191407zm0 0" fill="#ffb541"/><path d="m435.417969 406.359375c10.058593-5.171875 18.089843-10.957031 24.351562-17.21875-66.355469-99.6875-108.542969-53.3125-108.542969-53.3125s-190.582031-139.21875-212.558593-147.289063c-11.300781-4.148437-22.90625-4.207031-33.285157-2.496093-2.1875 8.417969-2.816406 16.816406-2.675781 24.296875 11.601563.34375 23.246094 4.019531 33.414063 11.351562l180.929687 130.476563c11.34375 6.609375 21.757813 15.628906 30.136719 28.542969l4.054688 1.652343c-.011719-2.105469.261718-4.242187.890624-6.351562 3.476563-11.707031 15.875-18.328125 27.515626-14.636719 21.5625 6.835938 42.90625 18.070312 55.769531 44.984375zm0 0" fill="#ffb541"/><g fill="#ff6930"><path d="m177.6875 351.332031c-5.316406 11.714844-1.390625 25.519531 9.25 32.757813 15.453125 10.511718 35.796875 28.863281 43.328125 55.917968 12.789063 45.941407-3.789063 71.992188 12.789063 71.992188 16.574218 0 44.046874-51.625 31.257812-103.25-9.734375-39.300781-34.960938-57.820312-61.3125-70.367188-13.304688-6.332031-29.222656-.472656-35.3125 12.949219zm0 0"/><path d="m258.25 357.15625c-3.46875 11.679688 2.007812 24.117188 12.921875 29.527344 15.859375 7.859375 37.324219 22.429687 47.898437 46.832031 17.953126 41.4375 5.785157 68.019531 21.332032 65.871094 15.550781-2.152344 34.621094-54.136719 15.929687-100.90625-14.230469-35.601563-40.296875-49.699219-66.640625-58.050781-13.300781-4.214844-27.46875 3.347656-31.441406 16.726562zm0 0"/><path d="m352.132812 376.011719c-3.039062 10.21875 1.753907 21.105469 11.308594 25.839843 13.878906 6.878907 32.664063 19.628907 41.917969 40.988282 15.710937 36.257812 5.0625 59.523437 18.667969 57.644531 13.609375-1.882813 30.296875-47.378906 13.9375-88.304687-12.453125-31.160157-35.261719-43.496094-58.316406-50.804688-11.640626-3.691406-24.039063 2.929688-27.515626 14.636719zm0 0"/></g><path d="m274.3125 408.75c-1.675781-6.761719-3.820312-12.894531-6.335938-18.5 3.183594 42.945312-17.90625 81.425781-32.480468 84.363281.75 24.175781-4.242188 37.386719 7.558594 37.386719 16.574218 0 44.046874-51.625 31.257812-103.25zm0 0" fill="#ff5426"/><path d="m356.332031 398.480469c-5.070312-12.683594-11.648437-22.625-19.199219-30.5625.199219.476562.402344.941406.597657 1.429687 15.992187 40.007813 4.34375 83.832032-9.089844 97.007813 3.570313 21.925781.871094 34.535156 11.761719 33.03125 15.550781-2.152344 34.621094-54.136719 15.929687-100.90625zm0 0" fill="#ff5426"/><path d="m437.96875 412.179688c-4.183594-10.46875-9.539062-18.804688-15.679688-25.546876 11.714844 33.769532 1.972657 69.570313-9.289062 80.824219 4.253906 21.722657.828125 34.433594 11.027344 33.023438 13.609375-1.878907 30.296875-47.375 13.941406-88.300781zm0 0" fill="#ff5426"/><path d="m158.808594 339.910156c-7.367188-7.496094-16.296875-13.285156-26.011719-17.289062-15.898437-6.5625-36.648437-9.636719-60.257813 2.101562-50.117187 24.910156-86.96875 111.183594-66.070312 126.085938 15.382812 10.96875 32.300781-15.714844 52.007812-24.113282 14.882813-6.347656 31.496094 4.898438 31.132813 21.074219-.476563 21.417969-18.964844 47.039063-3.0625 57.246094 21.597656 13.867187 88.003906-52.402344 92.511719-108.1875 2.085937-25.816406-7.953125-44.410156-20.25-56.917969zm0 0" fill="#ff6930"/><path d="m86.726562 436.300781c1.535157-5.535156 2.765626-11.113281 2.882813-16.429687.363281-16.179688-16.25-27.425782-31.132813-21.078125-19.707031 8.402343-36.625 35.085937-52.007812 24.113281-1.535156-1.089844-2.746094-2.574219-3.675781-4.382812-3.792969 15.222656-3.070313 27.476562 3.675781 32.285156 15.382812 10.96875 32.300781-15.714844 52.007812-24.113282 10.980469-4.683593 22.898438.21875 28.25 9.605469zm0 0" fill="#ff5426"/><path d="m86.546875 477.113281c-1.15625-.742187-2.109375-1.574219-2.925781-2.472656-3.835938 12.820313-6.515625 24.3125 2.925781 30.375 21.597656 13.867187 88.003906-52.402344 92.511719-108.1875.597656-7.390625.199218-14.1875-.960938-20.421875-9.355468 54.027344-70.910156 113.957031-91.550781 100.707031zm0 0" fill="#ff5426"/><path d="m64.890625 319.042969 7.648437 5.679687c23.609376-11.738281 44.359376-8.664062 60.257813-2.101562 9.714844 4.003906 18.644531 9.792968 26.011719 17.289062 6.160156 6.261719 11.742187 14.0625 15.527344 23.523438l1.066406.246094c-.242188-4.128907.472656-8.359376 2.285156-12.347657 6.089844-13.417969 22.007812-19.28125 35.3125-12.949219 17.308594 8.242188 34.117188 19.082032 46.382812 36.675782l.332032.027344c-2.625-5.429688-3.292969-11.78125-1.46875-17.929688 3.976562-13.378906 18.144531-20.941406 31.445312-16.722656 9.328125 2.953125 18.617188 6.636718 27.359375 11.734375l-180.929687-130.476563c-28.058594-20.230468-67.34375-12.769531-86.03125 16.335938-17.140625 26.695312-10.671875 62.105468 14.800781 81.015625zm0 0" fill="#ff6930"/><path d="m259.382812 375.058594.332032.027344c-2.625-5.433594-3.292969-11.78125-1.464844-17.929688 3.972656-13.378906 18.140625-20.941406 31.445312-16.726562 9.324219 2.957031 18.613282 6.640624 27.355469 11.738281l-68.609375-49.476563c-21.519531 2.273438-30.105468 11.539063-30.105468 11.539063-24.703126-15.980469-48.675782-2.542969-48.675782-2.542969s-16.34375-21.066406-59.390625-24.699219c-23.535156-1.984375-46.582031 5.148438-62.632812 12.023438 4.078125 7.65625 9.859375 14.539062 17.253906 20.03125l7.648437 5.679687c23.609376-11.738281 44.359376-8.664062 60.257813-2.105468 9.714844 4.007812 18.644531 9.796874 26.011719 17.289062 6.160156 6.265625 11.742187 14.066406 15.527344 23.527344l1.066406.246094c-.242188-4.132813.472656-8.359376 2.285156-12.351563 6.089844-13.417969 22.007812-19.28125 35.3125-12.945313 17.308594 8.242188 34.117188 19.082032 46.382812 36.675782zm0 0" fill="#ff5426"/><path d="m415.386719 141.792969c15.714843 12.097656 34.566406 30.011719 49.710937 50.023437 53.699219-29.734375.628906-88.734375-32.261718-112.707031-34.214844-24.933594-95.757813-46.761719-133.210938-33.484375-21.707031 7.695312-26.113281 25.09375-25.984375 38.359375 49.425781 4.875 106.183594 30.417969 141.746094 57.808594zm0 0" fill="#ffc265"/><path d="m432.835938 79.109375c10.476562 7.636719 23 18.832031 33.472656 31.5 8.546875-35.175781 17.664062-95.996094-17.371094-108.222656-32.101562-11.207031-70.167969 19.425781-93.25 42.714843 28.21875 6.121094 57.285156 19.53125 77.148438 34.007813zm0 0" fill="#ffc265"/><path d="m466.308594 110.609375c2.46875-10.164063 4.984375-22.472656 6.46875-35.128906-6.976563-6.820313-14.121094-12.800781-20.503906-17.453125-19.105469-13.925782-46.738282-26.875-73.9375-33.289063-8.429688 6.636719-16.136719 13.789063-22.648438 20.363281 28.21875 6.121094 57.285156 19.53125 77.148438 34.007813 10.476562 7.636719 23 18.832031 33.472656 31.5zm0 0" fill="#ffb541"/><path d="m102.289062 245.164062c-8.820312 0-15.730468 8.582032-15.730468 19.535157 0 10.957031 6.910156 19.539062 15.730468 19.539062 8.820313 0 15.730469-8.582031 15.730469-19.539062 0-10.953125-6.910156-19.535157-15.730469-19.535157zm0 0" fill="#433f43"/><path d="m430.28125 120.128906c-37.859375-29.15625-99.742188-56.21875-151.222656-58.484375-4.296875 7.246094-5.488282 15.363281-5.417969 22.339844 49.425781 4.878906 106.183594 30.417969 141.746094 57.808594 15.714843 12.097656 34.566406 30.011719 49.710937 50.023437 8.875-4.914062 14.816406-10.628906 18.429688-16.851562-15.664063-21.941406-36.289063-41.773438-53.246094-54.835938zm0 0" fill="#ffb541"/></svg>