<svg height="512" viewBox="0 0 58 59" width="512" xmlns="http://www.w3.org/2000/svg"><g id="Page-1" fill="none" fill-rule="evenodd"><g id="013---Jelly-Beast" fill-rule="nonzero"><path id="Shape" d="m55.49 50.6c3.14-3.36.74-6.32-2.49-7.68-2.54-1.06-5.42-1.02-7.01-3.6-.5921521-.9702296-.9292738-2.0744752-.98-3.21-.0082797-.0360478-.0116435-.0730501-.01-.11l-34.85 6.48c-2.19890466 1.2053582-4.32583055 2.5376084-6.37 3.99-1.88 1.38-3.73 3.05-2.92 5.62.37713172 1.2256712 1.3115498 2.2008773 2.52 2.63z" fill="#14a085"/><path id="Shape" d="m28.372.965c-3.1589429.05088492-6.2787416.70777398-9.19 1.935-6.1675649 2.65819302-10.02478797 8.8786837-9.664 15.585.236 3.649 1.875 6.953 2.541 10.505.6744608 4.2350422.1503668 8.5743186-1.513 12.527-.79224892 1.995325-1.74399562 3.9235651-2.846 5.766-1.019 1.729-2.355 3.311-3.32 5.06 0 0-5 9.061 4 6.041 2.75-.924 5.4-2.113 8.342-1.919 2.473.163 4.8 1.206 7.164 1.884 2.433571.7318507 5.011008.8466325 7.5.334 3.271-.67 6.474-2.21 9.782-2.918 2.262-.484 4.587.159 6.742.829 1.4165503.4991548 2.8831653.8428403 4.374 1.025 2.451.2 6.05-1.242 5.672-4.271-.285-2.277-2.846-2.955-4.661-3.635-2.724-1.021-5.471-1.851-7.106-4.508-1.1260819-2.0622169-1.6225747-4.4094322-1.428-6.751.168-3.911 1.548-7.628 2.311-11.436.8432435-3.7921774 1.0932147-7.6921999.741-11.561-.220572-2.4390544-.9714159-4.8004582-2.2-6.919-2.3-3.758-6.9-5.893-11.013-6.887-2.0385073-.49186043-4.1313085-.72237771-6.228-.686z" fill="#26b99a"/><circle id="Oval" cx="20" cy="11" fill="#35495e" r="4"/><circle id="Oval" cx="39" cy="12" fill="#35495e" r="3"/><path id="Shape" d="m43 25c0 2.7-2.72 3.45-5.07 4.03-.58.14-1.14.27-1.63.42-2.47.74-3.96 2.3-5.82 3.98-.9697171.8836319-2.0955998 1.5788305-3.32 2.05-.9478404.3376757-1.9440043.5200244-2.95.54-2.4677486.1223331-4.8418342-.9584908-6.37-2.9-2.84-3.94-2.31-10.2 2.89-11.77.723707-.2152558 1.4886218-.252987 2.23-.11.6628884.1275975 1.3076777.3358107 1.92.62.79.34 1.55.77 2.27 1.15 1.98 1.05 4.24 1.98 6.46 1.11.867679-.368827 1.7155007-.7827242 2.54-1.24.46-.23.91-.45 1.39-.64 2.38-.92 5.46-.33 5.46 2.76z" fill="#d75e72"/><path id="Shape" d="m19 19c-4.746 0-6-3.271-6-5-.0022091-.5522847.4437153-1.0017908.996-1.004.5522847-.0022091 1.0017908.4437153 1.004.996.006.314.17 3.008 4 3.008.5522847 0 1 .4477153 1 1s-.4477153 1-1 1z" fill="#81ccb8"/><path id="Shape" d="m39.63 19c-.3393416-.0001995-.6782248-.0249306-1.014-.074-.3619849-.0409256-.6730766-.2754609-.8120405-.6122055-.1389639-.3367447-.0838121-.722417.1439622-1.0067176s.5921312-.4222456.9510783-.3600769c1.1921034.2786944 2.4423001-.1002918 3.279-.994.2034627-.2936723.5481424-.4564907.9042015-.4271229.3560591.0293677.6694037.2464599.822.5695s.1212613.7029506-.0822015.9966229c-1.0170499 1.2630412-2.5715847 1.9705919-4.192 1.908z" fill="#81ccb8"/><g fill="#f0c419"><circle id="Oval" cx="20" cy="44" r="2"/><circle id="Oval" cx="32" cy="41" r="2"/><circle id="Oval" cx="40.5" cy="46.5" r="2.5"/><circle id="Oval" cx="29" cy="52" r="3"/><circle id="Oval" cx="14" cy="50" r="1"/></g><path id="Shape" d="m38 28c.0019204.3445842-.0214759.688844-.07 1.03-.58.14-1.14.27-1.63.42-2.47.74-3.96 2.3-5.82 3.98-.9697171.8836319-2.0955998 1.5788305-3.32 2.05-2.6580031-1.0080664-4.5808197-3.3517065-5.0501662-6.1554347-.4693466-2.8037282.5853754-5.6458109 2.7701662-7.4645653.79.34 1.55.77 2.27 1.15 1.98 1.05 4.24 1.98 6.46 1.11.867679-.368827 1.7155007-.7827242 2.54-1.24 1.1962515 1.4379155 1.8508426 3.2495407 1.85 5.12z" fill="#802d40"/><circle id="Oval" cx="19" cy="9" fill="#fff" r="1"/><circle id="Oval" cx="38" cy="11" fill="#fff" r="1"/></g></g></svg>