<svg height="512pt" viewBox="0 0 512 512" width="512pt" xmlns="http://www.w3.org/2000/svg"><path d="m21.710938 62.582031c-4.644532-2.3125-10.167969-2.09375-14.59375.660157-4.421876 2.738281-7.117188 7.558593-7.117188 12.757812v90c0 53.6875 32.785156 102.261719 81.992188 123.75l52.320312-171.367188zm0 0" fill="#92bd00"/><path d="m504.882812 63.242188c-4.410156-2.753907-9.949218-2.988282-14.59375-1.660157l-121 60 60.71875 168.167969c49.207032-21.488281 81.992188-70.0625 81.992188-123.75v-90c0-5.199219-2.695312-10.019531-7.117188-12.757812zm0 0" fill="#80a51a"/><path d="m451 335.199219c0 67.5-46.199219 126.402343-111 142.300781-9.601562 20.699219-30.898438 34.5-54 34.5-10.5 0-21-3-30-8.101562-9 5.097656-19.5 8.101562-30 8.101562-23.101562 0-44.398438-13.800781-54-34.5-64.800781-15.898438-111-74.800781-111-142.300781 0-14.101563 2.101562-28.199219 6.300781-42l45.597657-152.101563 46.503906 8.402344-37.800782-37.5 4.199219-14.101562c17.398438-57.898438 69.597657-97.898438 130.199219-97.898438s112.800781 40 130.199219 97.898438l4.199219 14.101562-37.800782 37.5 46.503906-8.402344 45.597657 152.101563c4.199219 13.800781 6.300781 27.898437 6.300781 42zm0 0" fill="#b7dc3c"/><path d="m451 335.199219c0 67.5-46.199219 126.402343-111 142.300781-9.601562 20.699219-30.898438 34.5-54 34.5-10.5 0-21-3-30-8.101562v-503.898438c60.601562 0 112.800781 40 130.199219 97.898438l4.199219 14.101562-37.800782 37.5 46.503906-8.402344 45.597657 152.101563c4.199219 13.800781 6.300781 27.898437 6.300781 42zm0 0" fill="#a6d22e"/><path d="m209.417969 172.710938c3.707031-7.414063.703125-16.421876-6.707031-20.128907l-81.179688-40.585937-8.746094 29.167968 76.503906 38.253907c7.480469 3.714843 16.4375.652343 20.128907-6.707031zm0 0" fill="#68544f"/><path d="m309.289062 152.582031c-7.410156 3.707031-10.414062 12.714844-6.707031 20.128907 3.6875 7.351562 12.640625 10.425781 20.128907 6.707031l76.503906-38.25-8.746094-29.171875zm0 0" fill="#53433f"/><path d="m199.238281 386.003906-16.65625-33.292968c-3.707031-7.414063-.703125-16.421876 6.707031-20.128907 7.398438-3.660156 16.421876-.703125 20.128907 6.707031l16.65625 33.296876c3.703125 7.414062.703125 16.421874-6.710938 20.128906-7.484375 3.71875-16.4375.644531-20.125-6.710938zm0 0" fill="#fff5f5"/><path d="m292.636719 392.714844c-7.414063-3.707032-10.414063-12.714844-6.710938-20.128906l16.65625-33.296876c3.722657-7.410156 12.730469-10.367187 20.128907-6.707031 7.410156 3.707031 10.414062 12.714844 6.707031 20.128907l-16.65625 33.292968c-3.691407 7.363282-12.644531 10.425782-20.125 6.710938zm0 0" fill="#efe2dd"/><path d="m300.398438 213.398438c-3.296876-36.296876-21.296876-62.398438-44.398438-62.398438s-41.101562 26.101562-44.398438 62.398438c-17.703124 6-30.601562 22.800781-30.601562 42.601562 0 20.398438 13.5 37.5 31.800781 43.199219 5.699219 18.300781 22.800781 31.800781 43.199219 31.800781s37.5-13.5 43.199219-31.800781c18.300781-5.699219 31.800781-22.800781 31.800781-43.199219 0-19.800781-12.898438-36.601562-30.601562-42.601562zm0 0" fill="#92bd00"/><path d="m256 331v-180c23.101562 0 41.101562 26.101562 44.398438 62.398438 17.703124 6 30.601562 22.800781 30.601562 42.601562 0 20.398438-13.5 37.5-31.800781 43.199219-5.699219 18.300781-22.800781 31.800781-43.199219 31.800781zm0 0" fill="#80a51a"/><path d="m356.5 416.5c-19.199219 19.5-27-25.5-82.800781-25.5h-35.398438c-22.800781 0-45.300781 9.300781-61.800781 25.5-5.699219 6-15.300781 6-21 0-6-5.699219-6-15.300781 0-21 21.898438-21.902344 51.898438-34.5 82.800781-34.5h35.398438c30.902343 0 60.902343 12.597656 82.800781 34.5 6 5.699219 6 15.300781 0 21zm0 0" fill="#92bd00"/><path d="m356.5 416.5c-19.199219 19.5-27-25.5-82.800781-25.5h-17.699219v-30h17.699219c30.902343 0 60.902343 12.597656 82.800781 34.5 6 5.699219 6 15.300781 0 21zm0 0" fill="#80a51a"/></svg>