<svg height="512pt" viewBox="0 0 512.00101 512" width="512pt" xmlns="http://www.w3.org/2000/svg"><path d="m64.535156 166.585938c-3.675781 15.121093-17.125 16.964843-32.269531 13.292968s-26.25-11.472656-22.570313-26.589844c3.679688-15.121093 21.074219-33.1875 36.21875-29.515624 15.144532 3.671874 22.300782 27.691406 18.621094 42.8125zm0 0" fill="#fd5c6f"/><path d="m21.058594 79.230469s-8.613282-33.464844 16.363281-52.050781c3.230469-2.40625 5.996094-5.40625 8.050781-8.867188 3.1875-5.382812 10.660156-13.621094 27.542969-17.90625 8.894531-2.257812 17.21875 5.261719 15.8125 14.3125-2.714844 17.476562-6.066406 42.152344-6.066406 42.152344zm0 0" fill="#fd5c6f"/><path d="m243.878906 484.683594c-6.285156-5.191406-13.335937-8.972656-20.738281-11.371094l16.320313-38.433594-28.457032-12.042968-20.703125 48.765624c-9.703125 2.066407-19.019531 6.425782-27.078125 13.082032-6.578125 5.429687-7.496094 15.15625-2.058594 21.722656 5.441407 6.566406 15.183594 7.484375 21.757813 2.050781 11.953125-9.871093 29.300781-9.871093 41.253906 0 2.882813 2.382813 12.625 7.019531 21.757813-2.050781 6.050781-6.011719 4.519531-16.292969-2.054688-21.722656zm0 0" fill="#dfca00"/><path d="m318.703125 189.453125 154.683594 89.726563s-38.304688 163.269531-259.28125 163.269531c-220.976563 0-160.574219-303.003907-160.574219-303.003907l-38.738281-4.5c-11.394531-1.320312-18.085938-13.4375-13.148438-23.777343 13.152344-27.542969 42.273438-72.199219 93.136719-73.214844 73.65625-1.472656 120.800781 150.03125 223.921875 151.5zm0 0" fill="#f2ad9a"/><path d="m473.386719 279.179688-15.65625-9.082032h-314.929688s-8.753906 98.453125 60.875 133.25c32.164063 16.070313 50.875 27.871094 61.699219 35.917969 175.796875-22.765625 208.011719-160.085937 208.011719-160.085937zm0 0" fill="#e7896e"/><path d="m386.09375 242.050781 99.929688-16.867187c12.851562-2.167969 23.613281 9.679687 20.222656 22.25-6.949219 25.777344-30.070313 62.144531-104.582032 67.832031 1.035157-1.699219-15.570312-73.214844-15.570312-73.214844zm0 0" fill="#dd6642"/><path d="m321.804688 197.875 165.28125-39.394531c17.597656-4.195313 31.496093 15.199219 21.640624 30.351562-20.929687 32.171875-63.386718 72.816407-145.484374 77.539063-6.226563 2.761718-41.4375-68.496094-41.4375-68.496094zm0 0" fill="#e7896e"/><path d="m307.335938 485.652344c-6.566407-5.691406-14.027344-9.796875-21.882813-12.339844l16.25-34.929688c4.820313-10.367187-2.746094-22.234374-14.179687-22.234374-6.171876 0-11.765626 3.625-14.28125 9.261718l-20.628907 46.191406c-9.417969 2.003907-18.46875 6.167969-26.363281 12.5-6.652344 5.332032-8.296875 15.273438-3.03125 21.980469 5.382812 6.859375 15.335938 7.894531 22.015625 2.378907 11.953125-9.875 29.304687-9.871094 41.257813 0 2.867187 2.367187 12.523437 6.96875 21.613281-1.914063 5.976562-5.84375 5.546875-15.417969-.769531-20.894531zm0 0" fill="#f4e74d"/><path d="m147.445312 291.546875c9.773438 29.003906 36.0625 58.632813 98.179688 73.476563 8.855469 2.117187 17.785156-3.15625 20.105469-11.949219 2.472656-9.378907 5.625-19.519531 5.625-19.519531s25.316406 35.394531 91.96875 49.761718c8.75 1.886719 17.410156-3.589844 19.582031-12.261718l6.753906-26.972657s35.394532 19.972657 84.980469 27.542969c17.523437 2.675781 31.234375-14.875 24.363281-31.1875-22.394531-53.207031-75.449218-152.320312-163.226562-175.292969-68.261719-17.867187-118.527344.585938-149.308594 19.972657-35.761719 22.53125-52.511719 66.414062-39.023438 106.429687zm0 0" fill="#fad989"/><path d="m21.058594 79.230469c-8.507813 11.023437-14.898438 22.488281-19.414063 31.9375-4.9375 10.339843 1.753907 22.453125 13.148438 23.777343l38.738281 4.5s7.683594-38.808593-32.472656-60.214843zm0 0" fill="#f4e74d"/><path d="m75.035156 99.425781c-4.269531 0-7.726562-3.457031-7.726562-7.714843v-12.808594c0-4.261719 3.457031-7.714844 7.726562-7.714844 4.265625 0 7.726563 3.457031 7.726563 7.714844v12.808594c0 4.257812-3.460938 7.714843-7.726563 7.714843zm0 0" fill="#454545"/><path d="m382.90625 371.054688 6.753906-26.972657s35.394532 19.972657 84.980469 27.542969c17.523437 2.675781 31.234375-14.875 24.363281-31.1875-3.238281-7.695312-7.117187-16.347656-11.648437-25.59375-91.730469-26.738281-196.949219-21.484375-237.621094-35.382812-58.898437-20.121094-29.914063-110.433594-29.800781-110.785157-12.921875 4.730469-24.101563 10.546875-33.464844 16.441407-35.761719 22.53125-52.511719 66.414062-39.027344 106.429687 9.773438 29.003906 36.066406 58.632813 98.179688 73.476563 8.859375 2.117187 17.789062-3.15625 20.105468-11.949219 2.476563-9.378907 5.625-19.519531 5.625-19.519531s25.320313 35.394531 91.972657 49.761718c8.75 1.886719 17.410156-3.589844 19.582031-12.261718zm0 0" fill="#f6ca56"/></svg>