<?xml version="1.0" encoding="iso-8859-1"?>
<!-- Generator: Adobe Illustrator 19.0.0, SVG Export Plug-In . SVG Version: 6.00 Build 0)  -->
<svg version="1.1" id="Capa_1" xmlns="http://www.w3.org/2000/svg" xmlns:xlink="http://www.w3.org/1999/xlink" x="0px" y="0px"
	 viewBox="0 0 512 512" style="enable-background:new 0 0 512 512;" xml:space="preserve">
<path style="fill:#DBD9DC;" d="M503.882,323.064c-2.54,0-5.032-1.183-6.619-3.405c-1.079-1.5-26.119-37.333-11.079-83.111
	c14.143-43.02,1.317-63.889-7.587-72.5c-10.897-10.548-24.714-11.988-33.556-8.762c-4.214,1.544-8.889-0.619-10.429-4.837
	c-1.54-4.214,0.627-8.885,4.841-10.425c16.373-5.992,36.627-1.016,50.445,12.341c11.635,11.258,28.635,37.821,11.73,89.254
	c-12.5,38.044,8.643,68.294,8.857,68.595c2.611,3.651,1.762,8.726-1.889,11.337C507.167,322.572,505.517,323.064,503.882,323.064z"
	/>
<g>
	<path style="fill:#DC646E;" d="M362.421,338.556c-0.413,0-0.833-0.032-1.254-0.095c-4.429-0.687-7.468-4.837-6.786-9.274
		l1.611-10.413c0.683-4.437,4.754-7.456,9.278-6.79c4.429,0.686,7.468,4.837,6.786,9.274l-1.611,10.413
		C369.826,335.687,366.366,338.556,362.421,338.556z"/>
	<path style="fill:#DC646E;" d="M397.453,340.338c-3.563,0-6.833-2.365-7.825-5.968l-4.063-14.73
		c-1.198-4.329,1.349-8.802,5.675-9.996c4.302-1.19,8.802,1.337,9.992,5.671l4.063,14.73c1.198,4.329-1.349,8.802-5.675,9.996
		C398.897,340.243,398.175,340.338,397.453,340.338z"/>
</g>
<path style="fill:#E6828C;" d="M421.927,305.359c-51.707,42.286-102.434-1.258-102.434-1.258l85.503-35.894L421.927,305.359z"/>
<path style="fill:#DBD9DC;" d="M471.366,186.429c-0.858-16.232-10.668-43.229-47.746-56.889
	c-54.286-20-137.143,21.161-243.131-1.657c-13.735-2.957-26.432-9.533-37.255-18.492l-0.334-0.277
	c-20.665-17.107-51.279-18.577-71.612-1.077c-1.442,1.241-2.831,2.561-4.161,3.958L4.435,177.849
	c-3.845,4.073-5.322,9.84-3.908,15.26l3.679,14.103c1.897,7.273,8.598,12.303,16.114,12.167c25.274-0.456,44.007-2.846,57.963-6.198
	c35.556,53.028,89.337,84.487,89.337,84.487l1.016,106.667l-23.852,5.963c-5.391,1.348-9.72,5.356-11.477,10.628l-2.333,6.999
	c-1.462,4.387,1.803,8.917,6.427,8.917h30.663c5.435,0,10.51-2.716,13.524-7.238l8.398-12.597c1.996-2.994,3.304-6.392,3.831-9.951
	l16.62-96.813c117.013,21.964,133.945-22.057,194.558-27.814l36.91,73.143v47.069l-19.719,7.251
	c-4.853,1.618-8.662,5.426-10.28,10.28l-2.585,7.754c-1.462,4.387,1.803,8.917,6.427,8.917h28.682
	c6.483,0,12.346-3.852,14.919-9.803l8.677-20.066c2.202-5.092,3.338-10.581,3.338-16.128v-53.161c0-3.939-0.583-7.883-2.102-11.518
	c-4.593-10.99-8.057-38.2-8.057-63.378C461.207,233.667,473.397,224.862,471.366,186.429z"/>
<path style="fill:#C9C6CA;" d="M157.461,252.969c-8.596-8.596-27.201-31.281-38.931-53.597c-2.743-5.219-9.838-6.429-14.03-2.282
	c-5.622,5.563-14.238,12.116-26.218,16.091c35.556,53.028,89.337,84.487,89.337,84.487
	C167.619,268.207,163.217,258.725,157.461,252.969z"/>
<g>
	<path style="fill:#6F6571;" d="M423.62,129.54c-22.266-8.203-49.415-6.088-80.919-2.348c13.22,33.784-23.038,54.986-25.748,58.221
		c-17.338,20.694,8.987,57.123,40.635,41.651c22.857-11.175,52.826-38.603,62.984-15.238c9.119,20.973,24.262,32.056,41.957,35.221
		c3.089-18.206,10.452-30.056,8.836-60.618C470.508,170.197,460.698,143.2,423.62,129.54z"/>
	<path style="fill:#6F6571;" d="M271.717,134.392c-28.112,1.458-58.562,0.524-91.228-6.509
		c-13.736-2.957-26.432-9.533-37.255-18.493l-0.334-0.277c-20.665-17.107-51.279-18.577-71.612-1.077
		c-1.441,1.241-2.831,2.561-4.161,3.958L4.435,177.849c-3.845,4.073-5.322,9.84-3.908,15.26l3.679,14.103
		c1.897,7.273,8.598,12.302,16.114,12.167c25.274-0.456,44.007-2.846,57.963-6.198c14.902,22.225,32.978,40.598,48.981,54.517
		c32.495-15.777,20.702-47.564,35.507-72.014C186.084,157.186,255.894,197.256,271.717,134.392z"/>
</g>
<path style="fill:#E6828C;" d="M50.455,216.058c0-24.302-12.221-45.237-29.893-55.15L4.435,177.849
	c-3.845,4.073-5.322,9.84-3.908,15.26l3.679,14.103c1.898,7.273,8.598,12.303,16.114,12.167c11.299-0.204,21.224-0.812,30.065-1.702
	C50.397,217.134,50.455,216.605,50.455,216.058z"/>
<g>
	<path style="fill:#5D5360;" d="M168.635,404.334l-23.852,5.963c-5.391,1.348-9.72,5.356-11.478,10.628l-2.333,7
		c-1.462,4.387,1.803,8.918,6.427,8.918h30.663c5.435,0,10.509-2.716,13.524-7.238l7.951-11.927L168.635,404.334z"/>
	<path style="fill:#5D5360;" d="M415.75,436.842h28.682c6.483,0,12.346-3.852,14.919-9.803l4.23-9.781l-21.675-14.618l-19.719,7.251
		c-4.853,1.618-8.662,5.426-10.28,10.28l-2.585,7.753C407.86,432.312,411.125,436.842,415.75,436.842z"/>
</g>
<circle style="fill:#4B3F4E;" cx="73.08" cy="152.549" r="8.127"/>
<path style="fill:#DC646E;" d="M0.527,193.109l1.427,5.47c6.748-1.944,11.592-7.003,11.592-12.997c0-4.286-2.516-8.07-6.387-10.617
	l-2.723,2.884C0.59,181.922-0.887,187.689,0.527,193.109z"/>
<path style="fill:#FAEBC8;" d="M75.967,77.813c-3.044,7.777-5.5,22.716,11.377,36.696c2.982,2.47,6.942,3.315,10.671,2.27
	c5.216-1.462,12.225-5.395,15.953-15.841c0.814-2.279-0.286-4.947-2.593-5.678C99.524,91.502,88.23,81.759,82.547,76.282
	C80.441,74.252,77.033,75.089,75.967,77.813z"/>
<path style="fill:#5D5360;" d="M217.905,205.307c-13.185,2.755-22.989,13.538-20.317,24.635c3.302,13.714,31.058,8.94,42.667,27.937
	c8.381,13.714,23.365,23.873,36.826,14.73c13.46-9.143,30.745-24.707,2.793-48C260.064,208.101,234.921,201.752,217.905,205.307z"/>
<path style="fill:#F5DCB4;" d="M78.261,75.573c-0.979,0.413-1.855,1.118-2.294,2.24c-3.044,7.777-5.501,22.716,11.377,36.696
	c2.982,2.47,6.942,3.314,10.671,2.27c2.368-0.664,5.1-1.883,7.732-3.943C87.261,102.084,80.609,85.488,78.261,75.573z"/>
<path style="fill:#5D5360;" d="M108.711,103.558l2.455,13.586c1.887,10.446,10.591,16.468,19.348,13.311
	c10.341-3.728,22.741-10.801,27.962-23.958c1.343-3.383-0.505-7.428-3.705-8.452c-6.715-2.148-19.745-4.881-40.108-3.365
	C110.704,94.975,107.902,99.08,108.711,103.558z"/>
<path style="fill:#C9C6CA;" d="M212.87,293.836l-2.433,16.407c117.014,21.964,133.945-22.058,194.558-27.814l-6.959-11.759
	c-8-13.517-24.601-19.598-39.255-13.945c-32.73,12.628-64.016,33.635-126.984,23.494
	C222.754,278.764,214.214,284.775,212.87,293.836z"/>
<path style="fill:#5D5360;" d="M127.264,267.697c12.483-6.061,18.407-14.494,21.837-23.955
	c-9.378-11.058-21.863-27.803-30.57-44.371c-2.744-5.22-9.838-6.429-14.03-2.282c-5.622,5.563-14.238,12.115-26.218,16.091
	C93.184,235.405,111.26,253.778,127.264,267.697z"/>
<g>
</g>
<g>
</g>
<g>
</g>
<g>
</g>
<g>
</g>
<g>
</g>
<g>
</g>
<g>
</g>
<g>
</g>
<g>
</g>
<g>
</g>
<g>
</g>
<g>
</g>
<g>
</g>
<g>
</g>
</svg>
