<svg id="Layer_1" height="512" viewBox="0 0 128 128" width="512" xmlns="http://www.w3.org/2000/svg" data-name="Layer 1"><path d="m95.112 56.167-10.378-8-10.374 8-10.372-8-10.371 8-10.374-8-10.373 8-10.375-8-3.844 2.965a94.212 94.212 0 0 0 -2.151 19.618c0 30.652 16.848 55.5 47.5 55.5s47.5-24.848 47.5-55.5a94.209 94.209 0 0 0 -2.148-19.6l-3.865-2.979z" fill="#eaeaea"/><path d="m69.016 17.111-5.016 4.889-5.016-4.889a7.188 7.188 0 0 1 -2.171-5.147v-3.027a7.188 7.188 0 0 1 7.187-7.187 7.187 7.187 0 0 1 7.187 7.187v3.026a7.187 7.187 0 0 1 -2.171 5.148z" fill="#ff6e6e"/><path d="m32.87 56.167 10.373-8 10.374 8 10.371-8 10.372 8 10.374-8 10.378 8 5.352-4.127a34.113 34.113 0 0 0 .7-6.875c0-17.257-12.893-31.632-29.979-34.831v1.63a7.188 7.188 0 0 1 -2.171 5.148l-5.014 4.888-5.016-4.889a7.188 7.188 0 0 1 -2.171-5.148v-1.63c-17.086 3.2-29.979 17.574-29.979 34.831a34.11 34.11 0 0 0 .706 6.891z" fill="#ffca28"/><path d="m72.353 36.656-8.353 3.969-8.353-3.969 8.353-8.352z" fill="#9b6e42"/><g fill="#596675"><circle cx="77.812" cy="27.375" r="3.25"/><circle cx="50.187" cy="27.375" r="3.25"/></g></svg>