<?xml version="1.0" encoding="iso-8859-1"?>
<!-- Generator: Adobe Illustrator 18.0.0, SVG Export Plug-In . SVG Version: 6.00 Build 0)  -->
<!DOCTYPE svg PUBLIC "-//W3C//DTD SVG 1.1//EN" "http://www.w3.org/Graphics/SVG/1.1/DTD/svg11.dtd">
<svg version="1.1" id="Capa_1" xmlns="http://www.w3.org/2000/svg" xmlns:xlink="http://www.w3.org/1999/xlink" x="0px" y="0px"
	 viewBox="0 0 57.634 57.634" style="enable-background:new 0 0 57.634 57.634;" xml:space="preserve">
<g>
	<path style="fill:#D75A4A;" d="M51.654,46.431c0,5.634-1.981,8.204-4.425,8.204c-2.444,0-4.425-2.569-4.425-8.204
		s4.386-11.796,6.83-11.796C52.078,34.634,51.654,40.796,51.654,46.431z"/>
	<path style="fill:#D75A4A;" d="M29.326,56.89c3.106,1.01,5.897,0.989,6.234-0.046l1.016-3.125c0.337-1.035-1.908-2.693-5.015-3.703
		c-3.106-1.01-5.897-0.989-6.234,0.046l-1.016,3.125C23.975,54.222,26.22,55.88,29.326,56.89z"/>
	<path style="fill:#D75A4A;" d="M9.231,43.254c1.782,2.388,3.872,3.841,4.668,3.247l2.402-1.793
		c0.796-0.594-0.004-3.011-1.786-5.399c-1.782-2.388-3.872-3.841-4.668-3.247l-2.402,1.793C6.649,38.45,7.449,40.867,9.231,43.254z"
		/>
	<path style="fill:#D75A4A;" d="M27.975,32.233c-2.305-1.888-4.684-2.796-5.313-2.027l-1.899,2.319
		c-0.629,0.768,0.729,2.922,3.034,4.81s4.684,2.796,5.313,2.027l1.899-2.319C31.638,36.274,30.28,34.121,27.975,32.233z"/>
	<path style="fill:#D75A4A;" d="M6.029,21.731c-0.292,2.965,0.272,5.448,1.26,5.545l2.983,0.294
		c0.988,0.097,2.026-2.227,2.319-5.192s-0.272-5.448-1.26-5.545l-2.983-0.294C7.36,16.441,6.321,18.766,6.029,21.731z"/>
	<path style="fill:#ED7161;" d="M42.804,46.431c0-4.82,3.856-10.822,5.805-11.592c-6.469,1.323-13.919,3.972-17.812,2.462
		l-1.688,2.06c-0.629,0.768-3.008-0.139-5.313-2.027s-3.663-4.041-3.034-4.81l1.757-2.145c-5.744-9.117-4.479-23.285-3.334-29.422
		c0.146-0.783-0.755-1.289-1.262-0.705c-3.346,3.862-6.442,9.836-8.08,16.432l1.487,0.147c0.988,0.097,1.553,2.58,1.26,5.545
		s-1.33,5.29-2.319,5.192l-1.627-0.16c0.102,2.91,0.584,5.792,1.54,8.53c0.953-0.107,2.759,1.267,4.329,3.37
		c1.782,2.388,2.582,4.805,1.786,5.399l-0.421,0.314c2.361,2.344,5.37,4.377,9.148,5.96l0.299-0.92
		c0.337-1.035,3.128-1.056,6.234-0.046c3.106,1.01,5.351,2.668,5.015,3.703l-0.085,0.263c3.235,0.448,6.805,0.677,10.739,0.652
		C44.785,54.634,42.804,52.065,42.804,46.431z"/>
	<path style="fill:#E87474;" d="M33.608,55.586c-0.186,0-0.373-0.052-0.54-0.159c-1.584-1.021-3.645-1.624-6.125-1.794
		c-0.551-0.038-0.967-0.516-0.93-1.066c0.039-0.552,0.528-0.959,1.066-0.93c2.821,0.194,5.2,0.903,7.07,2.108
		c0.465,0.299,0.599,0.918,0.3,1.382C34.258,55.424,33.937,55.586,33.608,55.586z"/>
	<path style="fill:#E87474;" d="M13.7,44.765c-0.379,0-0.741-0.216-0.909-0.582c-0.787-1.711-1.748-3.153-2.858-4.287
		c-0.386-0.395-0.379-1.027,0.016-1.414c0.396-0.386,1.028-0.379,1.414,0.016c1.271,1.298,2.363,2.93,3.245,4.85
		c0.231,0.502,0.012,1.096-0.49,1.326C13.981,44.736,13.839,44.765,13.7,44.765z"/>
	<path style="fill:#E87474;" d="M27.29,37.328c-0.189,0-0.382-0.054-0.552-0.167c-1.38-0.916-2.683-2.112-3.874-3.559
		c-0.352-0.426-0.291-1.057,0.136-1.407c0.428-0.352,1.058-0.291,1.407,0.136c1.065,1.293,2.222,2.357,3.437,3.164
		c0.461,0.306,0.586,0.926,0.28,1.386C27.932,37.171,27.615,37.328,27.29,37.328z"/>
	<path style="fill:#E87474;" d="M9.046,25.934c-0.095,0-0.192-0.014-0.288-0.042c-0.529-0.159-0.829-0.718-0.67-1.246
		c0.564-1.873,0.801-3.602,0.705-5.139c-0.034-0.552,0.385-1.026,0.936-1.061c0.566-0.029,1.026,0.385,1.061,0.936
		c0.111,1.774-0.153,3.739-0.785,5.84C9.874,25.655,9.476,25.934,9.046,25.934z"/>
</g>
<g>
</g>
<g>
</g>
<g>
</g>
<g>
</g>
<g>
</g>
<g>
</g>
<g>
</g>
<g>
</g>
<g>
</g>
<g>
</g>
<g>
</g>
<g>
</g>
<g>
</g>
<g>
</g>
<g>
</g>
</svg>
