<svg height="464pt" viewBox="0 0 464.32171 464" width="464pt" xmlns="http://www.w3.org/2000/svg"><path d="m216 400.257812v32l-9.3125 2.027344c-10.757812 2.339844-19.917969 9.332032-25.007812 19.09375l-5.679688 10.878906h88l-2.160156-5.941406c-3.707032-10.191406-11.6875-18.25-21.839844-22.058594v-36zm0 0" fill="#da922a"/><path d="m32 120.257812-25.511719 31.890626c-4.203125 5.253906-6.49218725 11.78125-6.488281 18.511718 0 16.347656 13.253906 29.597656 29.601562 29.597656h2.398438l40-80zm0 0" fill="#b6534f"/><path d="m0 112.257812 56 16v-48zm0 0" fill="#ebebeb"/><path d="m149.03125 11.226562c-8.003906-8.105468-19.28125-12.097656-30.605469-10.835937-11.324219 1.257813-21.445312 7.632813-27.472656 17.300781-5.957031-7.816406-16.078125-11.214844-25.542969-8.574218-9.46875 2.644531-16.367187 10.789062-17.414062 20.5625-1.046875 9.773437 3.972656 19.195312 12.664062 23.78125 8.691406 4.585937 19.304688 3.410156 26.78125-2.96875 5.238282 14.414062 18.746094 24.167968 34.074219 24.613281 15.332031.445312 29.382813-8.511719 35.449219-22.59375 6.070312-14.085938 2.929687-30.449219-7.925782-41.285157zm0 0" fill="#b6534f"/><path d="m336 232.257812h-120l-80-82.308593v-69.691407c0-17.671874-14.328125-32-32-32h-16c-17.671875 0-32 14.328126-32 32v53.167969c-32.332031 56.957031-31.949219 126.808594 1 183.410157 32.953125 56.597656 93.507812 91.417968 159 91.421874 44.6875.042969 87.667969-17.148437 120-48zm0 0" fill="#f3af3e"/><path d="m96 100.257812c-6.628906 0-12-5.371093-12-12 0-6.625 5.371094-12 12-12s12 5.375 12 12c0 6.628907-5.371094 12-12 12zm0 0" fill="#834b10"/><path d="m344.335938 104.257812c-66.273438 0-120 53.726563-120 120 0 2.699219.207031 5.34375.382812 8h32c-.230469-2.636718-.375-5.300781-.375-8-.050781-41.261718 28.578125-77.019531 68.851562-85.996093 40.273438-8.980469 81.378907 11.230469 98.859376 48.609375 17.484374 37.375 6.644531 81.878906-26.0625 107.035156l22.808593 22.824219c38.992188-32.25 53.566407-85.492188 36.433594-133.105469-17.136719-47.613281-62.296875-79.359375-112.898437-79.367188zm0 0" fill="#da922a"/><path d="m432.335938 224.257812c0-48.597656-39.398438-88-88-88-48.601563 0-88 39.402344-88 88 0 2.699219.144531 5.363282.375 8h32.191406c-.039063-.285156 0-.582031-.0625-.871093-2.800782-20.757813 6.21875-41.34375 23.378906-53.359375 17.15625-12.015625 39.585938-13.449219 58.136719-3.71875 18.546875 9.734375 30.113281 29.003906 29.980469 49.949218.007812 18.847657-9.480469 36.429688-25.238282 46.769532l22.886719 22.878906c21.65625-16.613281 34.351563-42.351562 34.351563-69.648438zm0 0" fill="#e4e4e2"/><path d="m400.335938 224.257812c0-30.925781-25.070313-56-56-56-30.929688 0-56 25.074219-56 56 .019531 2.675782.1875 5.347657.503906 8 .039062.289063 47.496094 0 47.496094 0l38.761718 38.769532c15.757813-10.339844 25.246094-27.921875 25.238282-46.769532zm0 0" fill="#da922a"/><path d="m136 149.949219.214844 76c.078125 24.722656 9.085937 48.585937 25.359375 67.199219 19.535156 22.320312 47.78125 35.085937 77.441406 35.007812l96.984375-.296875v-95.601563h-120zm0 0" fill="#ea9d2d"/><path d="m168.191406 183.066406v10.839844c.15625 56.617188 46.183594 102.390625 102.800782 102.226562l65.007812-.183593v-63.691407h-120zm0 0" fill="#da922a"/><path d="m305.503906 327.941406-89.457031-95.730468 119.953125.046874v95.601563zm0 0" fill="#ea9d2d"/><path d="m240 265.257812 24 31h72v-31zm0 0" fill="#da922a"/></svg>