<svg height="496pt" viewBox="-72 0 496 496" width="496pt" xmlns="http://www.w3.org/2000/svg"><path d="m295.992188 175.992188c-3.585938 0-6.839844-2.433594-7.753907-6.054688-1.078125-4.296875 1.53125-8.640625 5.824219-9.707031l32.007812-8c4.265626-1.09375 8.625 1.53125 9.699219 5.816406 1.078125 4.296875-1.53125 8.640625-5.824219 9.707031l-32.007812 8c-.648438.167969-1.304688.238282-1.945312.238282zm0 0" fill="#da4453"/><path d="m328 191.992188c-1.199219 0-2.425781-.273438-3.566406-.839844l-32.007813-16c-3.953125-1.976563-5.554687-6.785156-3.578125-10.738282 1.96875-3.941406 6.792969-5.550781 10.738282-3.574218l32.007812 16c3.949219 1.976562 5.550781 6.785156 3.574219 10.734375-1.398438 2.800781-4.230469 4.417969-7.167969 4.417969zm0 0" fill="#ed5565"/><path d="m192 105.921875v14.078125h-32l-.078125-14.078125c-4.882813-4.402344-8-10.808594-8-17.921875 0-13.199219 10.796875-24 24-24 13.277344 0 24 10.800781 24 24 0 7.121094-3.042969 13.519531-7.921875 17.921875zm0 0" fill="#e6e9ed"/><path d="m160 120h32v-14.078125c4.878906-4.402344 7.921875-10.808594 7.921875-17.921875 0-13.199219-10.722656-24-24-24-13.203125 0-24 10.800781-24 24 0 7.121094 3.117187 13.519531 8 17.921875zm183.921875-16h.078125c0 26.558594-21.511719 48-48 48v.078125h-240v-.078125c-26.550781 0-48-21.441406-48-48v-64h48l16-40h56l47.921875 32h.078125l48-32h55.921875l16.078125 40h47.921875zm0 0" fill="#656d78"/><path d="m296 40-16.078125-40h-24.027344l16.082031 40zm0 0" fill="#434a54"/><path d="m343.921875 104v-64h-24.027344v64h.082031c0 26.558594-21.511718 48-48 48v.078125h24.023438v-.078125c26.488281 0 48-21.441406 48-48zm0 0" fill="#434a54"/><path d="m288 360.078125c35.359375 0 64 28.5625 64 64v63.921875c0 4.480469-3.59375 8-8 8h-112.230469l48.476563-135.921875zm0 0" fill="#656d78"/><path d="m288 360.078125c35.359375 0 64 28.5625 64 64v63.921875c0 4.480469-3.59375 8-8 8h-112.230469l48.476563-135.921875zm0 0" fill="#656d78"/><path d="m280.238281 360.078125-48.46875 135.921875h-31.601562l48.472656-135.839844zm0 0" fill="#ed5565"/><path d="m279.527344 362.078125.710937-2-15.503906.042969c5.105469.054687 10.042969.773437 14.792969 1.957031zm0 0" fill="#da4453"/><path d="m288 360.078125h-7.761719l-.710937 2c27.824218 6.9375 48.449218 31.953125 48.449218 62v63.921875c0 4.480469-3.59375 8-8 8h24.023438c4.40625 0 8-3.519531 8-8v-63.921875c0-35.4375-28.640625-64-64-64zm0 0" fill="#434a54"/><path d="m103.839844 360.078125 48.480468 135.921875h-31.914062l-48.566406-135.921875v-.078125zm0 0" fill="#ed5565"/><path d="m71.839844 360.078125 48.566406 135.921875h-112.40625c-4.480469 0-8-3.519531-8-8v-63.921875c0-35.4375 28.558594-64.078125 64-64.078125h7.839844zm0 0" fill="#656d78"/><path d="m224.089844 344.160156v16l-16 32-32-16-32 16-16-32v-16zm0 0" fill="#ffce54"/><path d="m224.089844 360.160156h24.550781l-48.472656 135.839844h-47.847657l-48.480468-135.921875 24.25.082031 16 32 32-16 32 16zm0 0" fill="#f6bb42"/><path d="m256 304.160156h.089844v8c0 17.6875-14.320313 32-32 32h-96c-17.683594 0-31.921875-14.3125-31.921875-32v-8zm0 0" fill="#e6e9ed"/><path d="m256 304.160156h-23.9375v8c0 17.6875-14.320312 32-32 32h24.027344c17.679687 0 32-14.3125 32-32v-8zm0 0" fill="#ccd1d9"/><path d="m96.089844 264h-8.167969c-17.683594 0-31.921875-14.238281-31.921875-31.921875v-56.078125h240v56.078125c0 17.683594-14.320312 31.921875-32 31.921875h-7.910156v40.160156h-159.921875zm144-51.839844v-12l-40 12c0 11.046875 8.949218 20 20 20 11.039062 0 20-8.960937 20-20zm-88 0-40-12v12c0 11.046875 8.949218 20 20 20 11.039062 0 20-8.960937 20-20zm0 0" fill="#e6e9ed"/><path d="m271.976562 176v40.0625c0 17.679688-14.320312 47.929688-32 47.929688h-7.914062v40.167968h24.027344v-40.160156h7.910156c17.679688 0 32-14.238281 32-31.921875v-56.078125zm0 0" fill="#ccd1d9"/><path d="m56 152.078125h240v23.921875h-240zm0 0" fill="#ed5565"/><path d="m271.976562 152.078125h24.023438v23.921875h-24.023438zm0 0" fill="#da4453"/><path d="m240.089844 200.160156v12c0 11.046875-8.960938 20-20 20-11.050782 0-20-8.953125-20-20zm0 0" fill="#656d78"/><path d="m112.089844 200.160156 40 12c0 11.046875-8.960938 20-20 20-11.050782 0-20-8.953125-20-20zm0 0" fill="#656d78"/><g fill="#ccd1d9"><path d="m256.023438 296.097656h-159.871094l.015625 8.0625v7.9375h159.855469l.066406-.019531v-15.964844zm0 0"/><path d="m128.113281 320.097656c-4.425781 0-8-3.578125-8-8v-15.96875c0-4.425781 3.574219-8 8-8 4.421875 0 8 3.574219 8 8v15.96875c0 4.414063-3.585937 8-8 8zm0 0"/><path d="m160.105469 320.097656c-4.425781 0-8-3.578125-8-8v-15.96875c0-4.425781 3.574219-8 8-8 4.421875 0 8 3.574219 8 8v15.96875c0 4.414063-3.585938 8-8 8zm0 0"/><path d="m192.097656 320.097656c-4.425781 0-8-3.578125-8-8v-15.96875c0-4.425781 3.574219-8 8-8 4.421875 0 8 3.574219 8 8v15.96875c0 4.414063-3.585937 8-8 8zm0 0"/><path d="m224.089844 320.097656c-4.425782 0-8-3.578125-8-8v-15.96875c0-4.425781 3.574218-8 8-8 4.421875 0 8 3.574219 8 8v15.96875c0 4.414063-3.585938 8-8 8zm0 0"/></g><path d="m189.824219 258.488281-8-8.097656c-.007813-.007813-.023438-.015625-.03125-.023437-.015625-.007813-.015625-.03125-.03125-.039063-.386719-.375-.851563-.558594-1.28125-.839844-.457031-.296875-.847657-.679687-1.34375-.871093-.449219-.183594-.921875-.183594-1.382813-.28125-.539062-.113282-1.074218-.304688-1.617187-.304688s-1.082031.191406-1.617188.304688c-.464843.097656-.933593.097656-1.382812.28125-.496094.191406-.890625.574218-1.34375.871093-.433594.28125-.898438.472657-1.28125.839844-.015625.007813-.015625.03125-.03125.039063-.007813.007812-.023438.015624-.03125.023437l-8 8.097656c-3.113281 3.144531-3.082031 8.207031.0625 11.3125 1.558593 1.542969 3.59375 2.3125 5.625 2.3125 2.0625 0 4.128906-.800781 5.6875-2.378906l2.3125-2.34375 2.3125 2.34375c1.558593 1.585937 3.621093 2.378906 5.6875 2.378906 2.03125 0 4.0625-.769531 5.625-2.3125 3.132812-3.105469 3.167969-8.175781.0625-11.3125zm0 0" fill="#656d78"/><path d="m176.238281 424.113281c-4.421875 0-8.039062-3.578125-8.039062-8 0-4.425781 3.535156-8 7.953125-8h.085937c4.417969 0 8 3.574219 8 8 0 4.421875-3.582031 8-8 8zm0 0" fill="#edab37"/><path d="m176.375 464.128906c-4.421875 0-8.039062-3.578125-8.039062-8 0-4.425781 3.535156-8 7.953124-8h.085938c4.417969 0 8 3.574219 8 8 0 4.421875-3.582031 8-8 8zm0 0" fill="#edab37"/></svg>