<svg height="495pt" viewBox="0 -3 495.70304 495" width="495pt" xmlns="http://www.w3.org/2000/svg"><path d="m472.148438 224.710938c-5.96875 13.597656-13.59375 26.40625-22.699219 38.140624-.253907.34375-.511719.597657-.765625.941407l-25.6875-1.109375-58.707032-2.5625 24.488282-64.425782c.339844-.347656.652344-.71875.941406-1.109374 8.429688-10.855469 15.722656-22.550782 21.757812-34.902344l14.933594-47.527344c1.953125-12.773438 2.152344-25.746094.597656-38.574219-1.097656-12.03125-4.273437-23.78125-9.386718-34.730469-2.894532-5.25-6.609375-10.003906-11.007813-14.078124-3.839843-3.753907-10.667969-7.765626-11.347656-13.484376-.269531-1.515624-.121094-3.078124.425781-4.519531 2.558594-7.765625 16.214844-6.7421872 22.867188-5.71875 46.082031 6.996094 68.355468 52.652344 74.414062 94.464844 5.421875 44.167969-1.796875 88.964844-20.824218 129.195313zm0 0" fill="#65ddb9"/><path d="m442.28125 228.976562c-5.246094 11.871094-11.710938 23.164063-19.285156 33.707032l-58.707032-2.5625 24.488282-64.425782c.339844-.347656.652344-.71875.941406-1.109374 8.429688-10.855469 15.722656-22.550782 21.757812-34.902344l14.933594-47.527344c1.953125-12.773438 2.152344-25.746094.597656-38.574219-1.097656-12.03125-4.273437-23.78125-9.386718-34.730469-2.894532-5.25-6.609375-10.003906-11.007813-14.078124-3.839843-3.753907-10.667969-7.765626-11.347656-13.484376-.269531-1.515624-.121094-3.078124.425781-4.519531 41.386719 10.324219 61.695313 53.417969 67.414063 93.011719 5.421875 44.167969-1.796875 88.96875-20.824219 129.195312zm0 0" fill="#26b99a"/><path d="m134.144531 349.125v99.242188l-86.699219-21.589844c-7.980468-10.824219-15.273437-22.140625-21.84375-33.875-3.910156-6.929688-7.003906-14.289063-9.21875-21.933594-3.929687-13.546875-5.714843-27.625-5.289062-41.726562.683594-28.074219 9.472656-60.160157 34.132812-76.542969 8.023438-5.375 19.371094-7.851563 23.980469-17.066407 2.507813-7.339843 3.835938-15.03125 3.925781-22.785156.253907-1.792968 1.363282-11.179687 4.949219-7.679687 4.84375 5.570312 8.605469 11.996093 11.089844 18.945312 7.167969 15.886719 6.210937 34.257813-2.558594 49.320313-17.066406 25.601562-18.347656 42.667968-1.28125 59.734375 10.15625 10.15625 32.429688 14.25 48.8125 15.957031zm0 0" fill="#46b29d"/><path d="m134.144531 349.125v94.976562l-69.632812-17.324218c-7.980469-10.824219-15.273438-22.140625-21.84375-33.875-3.910157-6.929688-7.003907-14.289063-9.21875-21.933594-3.929688-13.546875-5.714844-27.625-5.289063-41.726562.683594-28.074219 9.472656-60.160157 34.132813-76.542969 8.023437-5.375 19.371093-7.851563 23.980469-17.066407 1.632812-3.640624 2.613281-7.539062 2.898437-11.519531 7.167969 15.886719 6.210937 34.257813-2.558594 49.320313-17.066406 25.601562-18.347656 42.667968-1.28125 59.734375 10.15625 10.15625 32.429688 14.25 48.8125 15.957031zm0 0" fill="#14a085"/><path d="m495.703125 368.410156v79.617188l-119.894531 7.851562c-.171875-1.367187-.425782-2.730468-.683594-4.183594l56.578125-3.667968v-79.617188c0-20.566406-11.667969-9.242187-21.335937-27.417968-19.113282-36.09375-39.984376-74.101563-78.214844-88.183594l-157.816406-52.417969c14.1875-2.144531 28.496093-3.371094 42.835937-3.671875l177.324219 30.464844c38.230468 14.082031 67.667968 46.082031 86.785156 82.175781 9.558594 18.210937 14.511719 38.484375 14.421875 59.050781zm0 0" fill="#46b29d"/><path d="m439.808594 385.964844 5.605468 65.707031h-70.289062c-12.371094-72.082031-104.53125-169.105469-104.53125-169.105469l-42.410156-28.671875c-4.167969-1.707031-9.21875-3.824219-15.15625-6.179687-10.140625-3.875-20.515625-7.101563-31.0625-9.660156-8.472656-1.917969-19.019532-3.59375-24.695313 3.125-1.84375 2.570312-2.691406 5.722656-2.390625 8.875.085938 4.863281 1.453125 10.066406 1.453125 14.078124.554688 4.601563-2.296875 8.929688-6.742187 10.242188-3.316406.632812-6.738282-.28125-9.300782-2.476562-5.628906-4.484376-9.9375-10.410157-12.460937-17.152344-1.953125-4.742188-3.019531-9.804688-3.15625-14.933594-.167969-4.976562.949219-9.914062 3.242187-14.335938 5.746094-9.722656 14.902344-16.960937 25.6875-20.308593 6.742188-2.257813 13.683594-3.859375 20.734376-4.777344 50.816406-6.246094 156.160156 26.792969 156.160156 26.792969 38.230468 14.082031 67.667968 46.082031 86.785156 82.175781 5.644531 10.527344 10.371094 21.523437 14.128906 32.863281 4.488282 14.203125 7.304688 28.882813 8.398438 43.742188zm0 0" fill="#14a085"/><path d="m366.933594 341.703125c-15.621094 25.5-26.734375 53.5-32.851563 82.769531l-33.621093 5.804688c5.03125-13.652344-20.710938-34.808594-9.535157-54.433594 34.136719-59.734375 79.445313-111.71875-5.886719-171.453125-.339843-.253906-13.464843-1.304687-1.996093-25.539063-1.28125-.855468-7.183594-1.988281-8.464844-2.84375-31.660156-20.90625-54.289063-46.648437-92.09375-48.441406-39.082031-1.964844 6.257813 15.65625-29.15625 31.617188-4.523437 2.046875-78.394531-5.394532-99.839844-9.480469-3.242187-2.136719-6.402343-4.355469-9.472656-6.828125-10.113281-7.09375-18.726563-16.109375-25.34375-26.539062-3.753906-7.082032-1.621094-10.496094 6.484375-8.535157 3.101562.863281 6.109375 2.035157 8.976562 3.5 25.089844 11.605469 51.882813 5.292969 75.949219-5.460937 34.632813-16.789063 72.800781-24.988282 111.273438-23.894532 37.980469 1.765626 74.792969 13.699219 106.582031 34.5625l3.839844 2.558594 1.023437.769532c85.332031 59.730468 68.265625 162.132812 34.132813 221.867187zm0 0" fill="#7ed09e"/><path d="m324.265625 380.101562c-9.289063 16.046876-17.25 32.828126-23.804687 50.175782l-169.132813 29.269531-24.832031-50.089844c4.964844-20.585937 13.671875-40.082031 25.6875-57.515625.59375-.9375 1.277344-1.878906 1.960937-2.816406 9.878907-13.308594 22.289063-24.53125 36.523438-33.023438 2.644531-1.535156 5.121093-3.074218 7.507812-4.609374 37.207031-23.210938 52.226563-40.703126 52.226563-80.722657-.835938-18.828125-10.722656-36.089843-26.539063-46.335937-17.410156-12.117188-38.914062-11.265625-59.050781-11.09375-32.121094 1.46875-63.9375-6.765625-91.308594-23.636719 10.914063-.480469 21.761719-.992187 32.597656-2.015625 11.175782-1.429688 22.058594-4.574219 32.273438-9.328125 17.21875-8.917969 35.828125-14.851563 55.03125-17.542969 18.304688-1.023437 36.640625 1.292969 54.117188 6.824219 20.472656 6.238281 39.925781 15.421875 57.746093 27.265625l3.839844 2.558594 1.023437.769531c85.335938 59.734375 68.269532 162.132813 34.132813 221.867187zm0 0" fill="#71c285"/><path d="m246.667969 322.125c-12.089844-11.222656-34.886719-6.320312-50.917969 10.949219s-19.226562 40.367187-7.136719 51.589843c12.089844 11.222657 34.886719 6.320313 50.917969-10.949218 16.03125-17.273438 19.226562-40.371094 7.136719-51.589844zm0 0" fill="#4c8056"/><path d="m284.667969 214.324219c-11.605469-2.386719-24.160157 10.953125-28.039063 29.800781s2.382813 36.0625 13.984375 38.453125c11.605469 2.386719 24.160157-10.953125 28.039063-29.800781 3.882812-18.847656-2.378906-36.0625-13.984375-38.453125zm0 0" fill="#4c8056"/><path d="m435.714844 111.039062c-9.585938-2.6875-20.898438 7.765626-25.265625 23.34375-4.367188 15.578126-.132813 30.386719 9.457031 33.074219 9.585938 2.6875 20.898438-7.761719 25.265625-23.34375 4.367187-15.578125.132813-30.386719-9.457031-33.074219zm0 0" fill="#14a085"/><path d="m241.578125 147.265625c-9.605469-6.773437-21.152344-6.929687-25.792969-.351563-4.636718 6.582032-.609375 17.402344 8.996094 24.175782 9.609375 6.773437 21.15625 6.929687 25.792969.351562s.609375-17.402344-8.996094-24.175781zm0 0" fill="#4c8056"/><path d="m356.046875 362.265625c.816406 5.378906 4.230469 10.007813 9.128906 12.375 9.558594 4.179687 21.84375-2.902344 27.5625-15.789063 5.71875-12.882812 2.644531-26.878906-6.828125-31.058593-3.730468-1.570313-7.933594-1.601563-11.6875-.085938zm0 0" fill="#527f72"/><path d="m97.910156 395.800781c2.953125-3.066406 4.578125-7.175781 4.523438-11.433593 0-9.425782-7.640625-17.066407-17.066406-17.066407-9.425782 0-17.066407 7.640625-17.066407 17.066407 0 9.425781 7.640625 17.066406 17.066407 17.066406.570312.015625 1.140624-.011719 1.707031-.085938" fill="#527f72"/><path d="m349.902344 316.101562c-2.867188 0-5.546875-1.4375-7.125-3.832031-1.582032-2.390625-1.855469-5.417969-.726563-8.054687.246094-.5625 23.988281-57.054688 8.457031-95.871094-1.132812-2.832031-.671874-6.054688 1.210938-8.449219 1.886719-2.398437 4.90625-3.609375 7.925781-3.175781 3.015625.433594 5.574219 2.445312 6.710938 5.273438 18.164062 45.433593-7.511719 106.371093-8.613281 108.9375-1.34375 3.136718-4.429688 5.171874-7.839844 5.171874zm0 0" fill="#ecf0f1"/><path d="m341.367188 188.101562c-3.660157 0-6.917969-2.332031-8.089844-5.804687-5.085938-13.21875-15.53125-23.667969-28.746094-28.765625-2.898438-.964844-5.058594-3.398438-5.671875-6.390625s.417969-6.082031 2.699219-8.105469c2.285156-2.027344 5.476562-2.679687 8.371094-1.714844 18.332031 6.75 32.78125 21.203126 39.527343 39.535157.875 2.601562.441407 5.464843-1.164062 7.695312-1.601563 2.230469-4.179688 3.550781-6.925781 3.550781zm0 0" fill="#ecf0f1"/><path d="m495.703125 414.832031v58.113281c-.03125 9.414063-7.652344 17.039063-17.066406 17.066407h-461.570313c-9.414062-.027344-17.0390622-7.652344-17.066406-17.066407v-57.175781c-.0234375-1.707031.984375-3.265625 2.554688-3.9375 1.570312-.671875 3.394531-.332031 4.613281.867188 12.152343 11.699219 29.289062 16.664062 45.8125 13.269531 16.527343-3.390625 30.320312-14.707031 36.875-30.25.648437-1.648438 2.238281-2.734375 4.011719-2.734375 1.773437 0 3.363281 1.085937 4.011718 2.734375 7.992188 18.984375 26.585938 31.332031 47.1875 31.332031 20.601563 0 39.195313-12.347656 47.191406-31.332031.648438-1.648438 2.238282-2.734375 4.007813-2.734375 1.773437 0 3.363281 1.085937 4.011719 2.734375 7.992187 18.984375 26.589844 31.332031 47.191406 31.332031s39.195312-12.347656 47.1875-31.332031c.648438-1.648438 2.238281-2.734375 4.011719-2.734375 1.769531 0 3.363281 1.085937 4.011719 2.734375 7.992187 18.984375 26.585937 31.332031 47.1875 31.332031 20.601562 0 39.195312-12.347656 47.1875-31.332031.648437-1.648438 2.242187-2.734375 4.011718-2.734375 1.773438 0 3.363282 1.085937 4.011719 2.734375 8.011719 18.96875 26.597656 31.300781 47.1875 31.316406 13.613281-.191406 26.621094-5.667968 36.269531-15.273437 1.234375-1.148438 3.03125-1.460938 4.582032-.796875 1.550781.664062 2.5625 2.179687 2.585937 3.867187zm0 0" fill="#285680"/><path d="m495.703125 444.699219v28.246093c-.03125 9.414063-7.652344 17.039063-17.066406 17.066407h-461.570313c-9.414062-.027344-17.0390622-7.652344-17.066406-17.066407v-27.308593c-.0234375-1.707031.984375-3.265625 2.554688-3.9375 1.570312-.671875 3.394531-.332031 4.613281.867187 12.152343 11.699219 29.289062 16.664063 45.8125 13.269532 16.527343-3.390626 30.320312-14.707032 36.875-30.253907.648437-1.648437 2.238281-2.730469 4.011719-2.730469 1.773437 0 3.363281 1.082032 4.011718 2.730469 7.992188 18.988281 26.585938 31.335938 47.1875 31.335938 20.601563 0 39.195313-12.347657 47.191406-31.335938.648438-1.648437 2.238282-2.730469 4.007813-2.730469 1.773437 0 3.363281 1.082032 4.011719 2.730469 7.992187 18.988281 26.589844 31.335938 47.191406 31.335938s39.195312-12.347657 47.1875-31.335938c.648438-1.648437 2.238281-2.730469 4.011719-2.730469 1.769531 0 3.363281 1.082032 4.011719 2.730469 7.992187 18.988281 26.585937 31.335938 47.1875 31.335938 20.601562 0 39.195312-12.347657 47.1875-31.335938.648437-1.648437 2.242187-2.730469 4.011718-2.730469 1.773438 0 3.363282 1.082032 4.011719 2.730469 8.011719 18.96875 26.597656 31.304688 47.1875 31.320313 13.613281-.191406 26.621094-5.667969 36.269531-15.277344 1.234375-1.144531 3.03125-1.457031 4.582032-.792969 1.550781.664063 2.5625 2.179688 2.585937 3.867188zm0 0" fill="#4482c3"/></svg>