<svg id="Capa_1" enable-background="new 0 0 512.003 512.003" height="512" viewBox="0 0 512.003 512.003" width="512" xmlns="http://www.w3.org/2000/svg"><path d="m392.003 201.213 16-104 96 88s-64 24-56 88c0 0-80-16-144 32l-16-40z" fill="#857e87"/><path d="m291.206 258.815 91.807-68.855 17.123-94.176c.516-2.867 2.555-5.227 5.32-6.156 2.742-.906 5.805-.289 7.953 1.688l96 88c3.258 2.984 3.477 8.047.492 11.305-2.984 3.25-8.039 3.469-11.305.492l-58.227-53.38c-5.782-5.301-14.945.021-13.207 7.67l28.645 126.038c.977 4.313-1.727 8.594-6.031 9.578-.594.133-1.195.195-1.781.195-3.648 0-6.953-2.516-7.797-6.227l-22.654-99.677c-1.93-8.49-14.114-8.224-15.672.342l-18.002 98.992c-.695 3.867-4.063 6.57-7.859 6.57-.477 0-.953-.039-1.438-.133-4.352-.789-7.234-4.953-6.438-9.297l7.019-38.604c1.301-7.157-6.851-12.196-12.671-7.831l-61.683 46.263c-1.438 1.078-3.117 1.602-4.789 1.602-2.438 0-4.836-1.102-6.406-3.203-2.657-3.532-1.938-8.548 1.601-11.196z" fill="#9b959d"/><path d="m120.001 201.213-16-104-96 88s64 24 56 88c0 0 80-16 144 32l16-40z" fill="#857e87"/><path d="m220.798 258.815-91.807-68.855-17.123-94.176c-.516-2.867-2.555-5.227-5.32-6.156-2.742-.906-5.805-.289-7.953 1.688l-96 88c-3.258 2.984-3.477 8.047-.492 11.305 2.984 3.25 8.039 3.469 11.305.492l58.227-53.38c5.782-5.301 14.946.021 13.207 7.67l-28.646 126.037c-.977 4.313 1.727 8.594 6.031 9.578.594.133 1.195.195 1.781.195 3.648 0 6.953-2.516 7.797-6.227l22.654-99.677c1.93-8.49 14.114-8.224 15.672.342l18.002 98.992c.695 3.867 4.063 6.57 7.859 6.57.477 0 .953-.039 1.438-.133 4.352-.789 7.234-4.953 6.438-9.297l-7.019-38.604c-1.301-7.157 6.851-12.196 12.671-7.831l61.684 46.263c1.438 1.078 3.117 1.602 4.789 1.602 2.438 0 4.836-1.102 6.406-3.203 2.656-3.531 1.938-8.547-1.601-11.195z" fill="#9b959d"/><path d="m205.817 100.545c-4.97-5.262-13.816-1.745-13.816 5.493v103.175l64-56z" fill="#9b959d"/><path d="m306.184 100.545c4.97-5.262 13.816-1.745 13.816 5.493v103.175l-64-56z" fill="#ada7ae"/><path d="m298.333 249.213h-76.332c-8.78 18.693-15.667 39.418-15.667 61.243 0 43.701 17.021 80.336 48.229 107.733l13.462-3.71c27.211-26.953 43.974-63.603 43.974-104.023.002-21.825-4.885-42.55-13.666-61.243z" fill="#c8c5c9"/><path d="m224.001 310.456c0-21.825 4.887-42.55 13.667-61.243h-24c-8.78 18.693-13.667 39.418-13.667 61.243 0 43.701 19.596 82.995 50.805 110.393 2.941 2.582 7.45 2.582 10.391 0 2.342-2.056 4.621-4.183 6.829-6.37-27.214-26.955-44.025-63.602-44.025-104.023z" fill="#b6b1b7"/><path d="m320.001 209.213c0 14.623-4.904 28.1-13.157 38.877-11.696 15.273-30.119 21.745-50.843 21.745-35.346 0-58.499-25.276-58.499-60.622 0-20.732 4.357-39.162 19.641-50.858 10.774-8.244 24.244-13.142 38.858-13.142 35.346 0 64 28.654 64 64z" fill="#b6b1b7"/><path d="m268.001 261.213c-35.346 0-64-28.654-64-64 0-14.611 4.901-28.086 13.142-38.858-15.288 11.695-25.142 30.123-25.142 50.858 0 35.346 28.654 64 64 64 20.735 0 39.148-9.835 50.843-25.123-10.773 8.241-24.232 13.123-38.843 13.123z" fill="#ada7ae"/><g fill="#4b3f4e"><circle cx="232.001" cy="201.213" r="8"/><circle cx="280.001" cy="201.213" r="8"/></g></svg>