<svg xmlns="http://www.w3.org/2000/svg" viewBox="0 0 512 512" width="512" height="512">
	<style>
		tspan { white-space:pre }
		.shp0 { fill: #7c7c7c } 
		.shp1 { fill: #6f6f6f } 
		.shp2 { fill: #646464 } 
		.shp3 { fill: #515151 } 
	</style>
	<g id="Flat">
		<path id="Layer" class="shp0" d="M488 120L472.99 132C469.1 135.11 465.58 138.65 462.48 142.54C459.38 146.44 456.73 150.67 454.57 155.16C452.42 159.65 450.77 164.36 449.66 169.22C448.56 174.07 448 179.03 448 184.01L448 200L440.33 204.6C435.42 207.55 430.91 211.11 426.91 215.21C422.92 219.31 419.46 223.91 416.64 228.9C413.82 233.88 411.65 239.21 410.2 244.74C408.74 250.28 408 255.98 408 261.71L408 272L405.54 272.82C398.95 275.02 392.74 278.23 387.15 282.34C381.55 286.46 376.63 291.42 372.57 297.06C368.51 302.69 365.35 308.93 363.22 315.54C361.09 322.15 360 329.05 360 336C353.56 336 347.13 336.52 340.78 337.55C334.42 338.58 328.16 340.12 322.05 342.16C315.94 344.19 310.01 346.72 304.31 349.71C298.6 352.7 293.15 356.14 288 360L224 360C218.85 356.14 213.4 352.7 207.69 349.71C201.99 346.72 196.06 344.19 189.95 342.16C183.84 340.12 177.58 338.58 171.22 337.55C164.87 336.52 158.44 336 152 336C152 335.45 151.99 334.91 151.98 334.37C151.97 333.83 151.95 333.3 151.92 332.77L151.92 332.68C151.89 332.16 151.86 331.65 151.82 331.13C151.75 330.16 151.66 329.19 151.54 328.23C151.51 327.96 151.48 327.69 151.44 327.42C151.4 327.06 151.35 326.7 151.29 326.33C151.22 325.8 151.14 325.28 151.04 324.75C150.96 324.22 150.86 323.7 150.75 323.18C149.62 317.42 147.74 311.84 145.15 306.58C142.56 301.32 139.28 296.42 135.41 292.02C131.54 287.61 127.1 283.74 122.21 280.5C117.32 277.26 112.02 274.67 106.46 272.82L104 272L104 261.71C104 255.98 103.26 250.28 101.8 244.74C100.35 239.21 98.18 233.88 95.36 228.9C92.54 223.91 89.08 219.31 85.09 215.21C81.09 211.11 76.58 207.55 71.67 204.6L64 200L64 184.01C64 179.03 63.44 174.07 62.34 169.22C61.23 164.36 59.58 159.65 57.43 155.16C55.27 150.67 52.62 146.44 49.52 142.54C46.42 138.65 42.9 135.11 39.01 132L24 120L120 120L192 192L192 256C192 258.1 192.41 260.18 193.22 262.12C194.02 264.06 195.2 265.83 196.69 267.31C198.17 268.8 199.94 269.98 201.88 270.78C203.82 271.59 205.9 272 208 272L304 272C306.1 272 308.18 271.59 310.12 270.78C312.06 269.98 313.83 268.8 315.31 267.31C316.8 265.83 317.98 264.06 318.78 262.12C319.59 260.18 320 258.1 320 256L320 192L392 120L488 120Z" />
		<path id="Layer" class="shp1" d="M488 120L472.99 132C469.1 135.11 465.58 138.65 462.48 142.54C459.38 146.44 456.73 150.67 454.57 155.16C452.42 159.65 450.77 164.36 449.66 169.22C448.56 174.07 448 179.03 448 184.01L448 200L440.33 204.6C435.42 207.55 430.91 211.11 426.91 215.21C422.92 219.31 419.46 223.91 416.64 228.9C413.82 233.88 411.65 239.21 410.2 244.74C408.74 250.28 408 255.98 408 261.71L408 272L405.54 272.82C398.95 275.02 392.74 278.23 387.15 282.34C381.55 286.46 376.63 291.42 372.57 297.06C368.51 302.69 365.35 308.93 363.22 315.54C361.09 322.15 360 329.05 360 336C353.56 336 347.13 336.52 340.78 337.55C334.42 338.58 328.16 340.12 322.05 342.16C315.94 344.19 310.01 346.72 304.31 349.71C298.6 352.7 293.15 356.14 288 360L224 360C218.85 356.14 213.4 352.7 207.69 349.71C201.99 346.72 196.06 344.19 189.95 342.16C183.84 340.12 177.58 338.58 171.22 337.55C164.87 336.52 158.44 336 152 336C152 335.46 151.99 334.91 151.98 334.37C151.97 333.83 151.95 333.3 151.92 332.77L151.92 332.68C151.89 332.16 151.86 331.64 151.82 331.13C151.75 330.16 151.66 329.19 151.54 328.23C151.51 327.96 151.48 327.69 151.44 327.42C151.39 327.05 151.34 326.69 151.29 326.33C151.21 325.8 151.13 325.27 151.04 324.75C150.95 324.23 150.85 323.7 150.75 323.18C182.47 324.46 234.71 321.19 288 294.74C293.32 292.1 298.65 289.22 304 286.09C353.36 257.14 401.97 206.71 434.34 120L488 120Z" />
		<path id="Layer" class="shp2" d="M256 392L224 360L224 224L248 248L264 248L288 224L288 360L256 392Z" />
		<g id="Layer">
			<path id="Layer" class="shp3" d="M248 280L264 280L264 296L248 296L248 280Z" />
			<path id="Layer" class="shp3" d="M72 192L152 192C156.42 192 160 195.58 160 200L160 200C160 204.42 156.42 208 152 208L72 208C67.58 208 64 204.42 64 200L64 200C64 195.58 67.58 192 72 192Z" />
			<path id="Layer" class="shp3" d="M108.2 261.45L149.49 243.75C153.56 242.01 158.25 243.88 160 247.95L160 247.95C161.74 252.02 159.86 256.71 155.8 258.45L114.51 276.16C110.44 277.9 105.75 276.02 104 271.96L104 271.96C102.26 267.89 104.14 263.19 108.2 261.45Z" />
			<path id="Layer" class="shp3" d="M149.18 325.24L164.96 298.98C167.24 295.18 172.15 293.96 175.94 296.24L175.94 296.24C179.73 298.52 180.95 303.42 178.68 307.22L162.89 333.48C160.61 337.27 155.71 338.5 151.92 336.22L151.92 336.22C148.12 333.94 146.9 329.03 149.18 325.24Z" />
			<path id="Layer" class="shp3" d="M360 192L440 192C444.42 192 448 195.58 448 200L448 200C448 204.42 444.42 208 440 208L360 208C355.58 208 352 204.42 352 200L352 200C352 195.58 355.58 192 360 192Z" />
			<path id="Layer" class="shp3" d="M352 248.07L352 248.07C353.74 244.01 358.44 242.13 362.5 243.87L403.79 261.57C407.85 263.32 409.73 268.01 407.99 272.08L407.99 272.08C406.25 276.14 401.55 278.02 397.48 276.28L356.2 258.58C352.13 256.83 350.25 252.14 352 248.07Z" />
			<path id="Layer" class="shp3" d="M335.68 296.03L335.68 296.03C339.47 293.75 344.38 294.98 346.65 298.77L362.4 325.04C364.68 328.83 363.45 333.73 359.66 336.01L359.66 336.01C355.87 338.28 350.97 337.05 348.69 333.26L332.94 307C330.67 303.2 331.89 298.3 335.68 296.03Z" />
		</g>
	</g>
</svg>