<svg height="512" viewBox="0 0 56 58" width="512" xmlns="http://www.w3.org/2000/svg"><g id="Page-1" fill="none" fill-rule="evenodd"><g id="003---Beholder" fill-rule="nonzero"><path id="Shape" d="m22.85 6.04-.73 1.98c-.1939083.59324585-.1183856 1.2416466.2066791 1.77444489.3250646.53279831.8670856.89658461 1.4833209.99555511l.38.09c1.0822367.1876023 1.8545375 1.1529783 1.8 2.25-.1187524 1.2709808-.4010857 2.5213138-.84 3.72-.8092713 2.0595019-2.5700343 3.5964392-4.72 4.12-3.612443.9159253-6.9788393 2.6161944-9.86 4.98-1.16837458.9717689-2.88460394.8937585-3.96-.18-.4193478-.39631-.64507162-.9557549-.61817483-1.5321148.0268968-.5763599.303741-1.1123517.75817483-1.4678852l3.55-2.84c2.4914897-1.9926188 2.9879605-5.5865402 1.13-8.18l-1.82-2.55-4.34.77c.03288955.0654462.06962032.1288902.11.19l2.8 3.92c.61848296.8630443.45133062 2.0595032-.38 2.72l-3.55 2.85c-1.33171325 1.0653076-2.14640137 2.6475939-2.23994184 4.3504124-.09354048 1.7028184.54292999 3.3648209 1.74994184 4.5695876l.95.95c.86160264.8841535 1.09194055 2.2066108.58 3.33-.85087877 1.9386663-1.29014175 4.032827-1.29 6.15 0 10.49 10.75 19 24 19s24-8.51 24-19c.0001418-2.117173-.4391212-4.2113337-1.29-6.15-.5119406-1.1233892-.2816026-2.4458465.58-3.33l.95-.95c1.2070119-1.2047667 1.8434823-2.8667692 1.7499418-4.5695876-.0935404-1.7028185-.9082286-3.2851048-2.2399418-4.3504124l-3.55-2.85c-.8313306-.6604968-.998483-1.8569557-.38-2.72l2.8-3.92c.0403797-.0611098.0771105-.1245538.11-.19l-4.34-.77-1.82 2.55c-1.8579605 2.5934598-1.3614897 6.1873812 1.13 8.18l3.55 2.84c.4544338.3555335.731278.8915253.7581748 1.4678852s-.198827 1.1358048-.6181748 1.5321148c-1.0743741 1.0760754-2.792433 1.154169-3.96.18-2.8811607-2.3638056-6.247557-4.0640747-9.86-4.98-2.1499657-.5235608-3.9107287-2.0604981-4.72-4.12-.4389143-1.1986862-.7212476-2.4490192-.84-3.72-.0545375-1.0970217.7177633-2.0623977 1.8-2.25l.38-.09c.6162353-.0989705 1.1582563-.4627568 1.4833209-.99555511.3250647-.53279829.4005874-1.18119904.2066791-1.77444489l-.73-1.98z" fill="#ff5364"/><path id="Shape" d="m36.64 28c4.6978223 3.6845947 6.5420507 9.9430186 4.5929668 15.5863194s-7.2625588 9.4295964-13.2329668 9.4295964-11.2838829-3.7862956-13.2329668-9.4295964-.1048555-11.9017247 4.5929668-15.5863194l8.64 1z" fill="#ecf0f1"/><path id="Shape" d="m35.949 28c4.3213746 3.3901659 6.0174536 9.1477276 4.2240805 14.3391934-1.7933731 5.1914657-6.6815853 8.6745078-12.1740805 8.6745078s-10.3807074-3.4830421-12.1740805-8.6745078c-1.7933731-5.1914658-.0972941-10.9490275 4.2240805-14.3391934l7.678 1z" fill="#fff"/><g fill="#ecf0f1"><ellipse id="Oval" cx="28" cy="4" rx="6" ry="4"/><ellipse id="Oval" cx="6" cy="6" rx="6" ry="4"/><ellipse id="Oval" cx="50" cy="6" rx="6" ry="4"/></g><circle id="Oval" cx="28" cy="42" fill="#e64c3c" r="7"/><circle id="Oval" cx="28" cy="43" fill="#35495e" r="2"/><path id="Shape" d="m28 30c-4.2131429.0354968-8.4000926-.6653739-12.372-2.071-.3318997-.1327242-.5677802-.4324328-.6187876-.7862284-.0510074-.3537957.0906076-.7079285.3715-.929.2808924-.2210716.6583879-.2754958.9902876-.1427716 3.7384875 1.2994101 7.6711929 1.951761 11.629 1.929 3.9578071.022761 7.8905125-.6295899 11.629-1.929.5130725-.2051738 1.0953262.0444275 1.3005.5575.2051737.5130725-.0444275 1.0953262-.5575 1.3005-3.9719074 1.4056261-8.1588571 2.1064968-12.372 2.071z" fill="#df4d60"/><circle id="Oval" cx="28" cy="4" fill="#35495e" r="1"/><circle id="Oval" cx="6" cy="6" fill="#35495e" r="1"/><circle id="Oval" cx="50" cy="6" fill="#35495e" r="1"/><circle id="Oval" cx="24" cy="39" fill="#fff" r="3"/></g></g></svg>