<svg height="512" viewBox="0 0 58 58" width="512" xmlns="http://www.w3.org/2000/svg"><g id="Page-1" fill="none" fill-rule="evenodd"><g id="014---Eyeball" fill-rule="nonzero" transform="translate(-1)"><path id="Shape" d="m59 23.5c0 9.8-6.51 18.19-15.75 21.72.0096748-.252551-.0172714-.5051721-.08-.75-.0384011-.1626837-.095445-.3203933-.17-.47-1-2-5-1-7 0s-4 0-6-1-5-2-8-1-3-3-6-5-4-2-4-6-2-5-2-5c-.30803135-.1372673-.62986207-.2411918-.96-.31-.30883394-.0696335-.62357709-.1098135-.94-.12-.06871236-.6878357-.10208956-1.3787439-.1-2.07.00093267-.835266.0476695-1.6698523.14-2.5.08-.68.19-1.34.33-2 2.27-10.83 12.62-19 25.03-19 1.3419231-.00049459 2.6821118.09642679 4.01.29h.01c7.3552927.99812146 13.9172209 5.13443414 17.99 11.34v.02c2.2746527 3.5340405 3.4860409 7.6472067 3.49 11.85z" fill="#ecf0f1"/><path id="Shape" d="m56 24.35c-.0751641 8.6089366-5.05624 16.4202575-12.83 20.12-.0384011-.1626837-.095445-.3203933-.17-.47-1-2-5-1-7 0s-4 0-6-1-5-2-8-1-3-3-6-5-4-2-4-6-2-5-2-5c-.30803135-.1372673-.62986207-.2411918-.96-.31-.03-.44-.04-.89-.04-1.34 0-12.47 10.52-22.58 23.5-22.58.26 0 .52 0 .78.02.9778259.02528877 1.9530891.11212727 2.92.26 3.4441516.52372215 6.7333691 1.78959319 9.64 3.71 2.8078063 1.8645042 5.1759879 4.3179949 6.94 7.19v.02c1.2510666 2.0300346 2.1566939 4.2535523 2.68 6.58.3627318 1.5741251.5439133 3.1846273.54 4.8z" fill="#fff"/><path id="Shape" d="m56 15.5c-.0000295 1.3679451-.1816149 2.7298357-.54 4.05-.5233061-2.3264477-1.4289334-4.5499654-2.68-6.58v-.02c-1.7640121-2.8720051-4.1321937-5.3254958-6.94-7.19-2.9066309-1.92040681-6.1958484-3.18627785-9.64-3.71-.9669109-.14787273-1.9421741-.23471123-2.92-.26 1.3268395-.70920683 2.7527821-1.21486025 4.23-1.5h.01c7.3552927.99812146 13.9172209 5.13443414 17.99 11.34v.02c.3263983 1.2572728.4910609 2.5510506.49 3.85z" fill="#24ae5f"/><path id="Shape" d="m55.46 19.55c-1.8482833 6.8417828-8.1015949 11.5585675-15.1878934 11.4560139-7.0862984-.1025537-13.2004961-4.9983225-14.8500168-11.8907258-1.6495206-6.8924034 1.5858168-14.02574456 7.8579102-17.3252881.9778259.02528877 1.9530891.11212727 2.92.26 3.4441516.52372215 6.7333691 1.78959319 9.64 3.71 2.8078063 1.8645042 5.1759879 4.3179949 6.94 7.19v.02c1.2510666 2.0300346 2.1566939 4.2535523 2.68 6.58z" fill="#4fba6f"/><path id="Shape" d="m37.39 6.86c3.5075886-1.77331246 7.783785-.73599914 10.0889888 2.44737179 2.3052037 3.18337091 1.9565131 7.56974641-.8226788 10.34893821-2.7791918 2.7791919-7.1655673 3.1278825-10.3489382.8226788-3.1833709-2.3052038-4.2206843-6.5814002-2.4473718-10.0889888z" fill="#24ae5f"/><circle id="Oval" cx="42" cy="13" fill="#35495e" r="3"/><circle id="Oval" cx="35.5" cy="8.5" fill="#fff" r="3.5"/><g fill="#e64c3c"><path id="Shape" d="m18 16c0 .5522847-.4477153 1-1 1-1.2805367.1134719-2.4132437.8761613-3 2.02 0 .24.09 2.98 2 2.98.5522847 0 1 .4477153 1 1s-.4477153 1-1 1c-2.3 0-3.36-1.72-3.78-3.33-1.05447.2492374-2.1368951.3601692-3.22.33h-.86c.08-.68.19-1.34.33-2h.53c1.0252393.0239505 2.0487121-.0972503 3.04-.36.32-1.61 2.72-3.64 4.96-3.64.5522847 0 1 .4477153 1 1z"/><path id="Shape" d="m24.949 35.684c-.0837568-.2517272-.2641089-.4598559-.501359-.5785747-.2372502-.1187189-.5119521-.1382971-.763641-.0544253-1.2395943.439037-2.6155778.2436951-3.684-.523.006-1.552.064-3.179.706-3.821.3789722-.3923789.3735524-1.0160848-.0121814-1.4018186s-1.0094397-.3911536-1.4018186-.0121814c-1.292 1.293-1.292 3.537-1.292 5.707-.0822962.8811095-.6061136 1.6602457-1.391 2.069-.3175977.172122-.5176768.5021526-.523399.8633472-.0057222.3611947.183802.6973976.495788.8794937.3119861.1820962.6979287.1817747 1.009611-.0008409.8898504-.5010558 1.6030699-1.2649202 2.042-2.187.8308868.4301885 1.7523577.6560997 2.688.659.6786595-.00303 1.3523606-.11582 1.995-.334.2517272-.0837568.4598559-.2641089.5785747-.501359.1187189-.2372502.1382971-.5119521.0544253-.763641z"/><path id="Shape" d="m40 38c0-.5522847-.4477153-1-1-1s-1 .4477153-1 1c0 .578-1.617.957-2.828.993-1.2581205-.4725841-2.1128195-1.6503532-2.172-2.993 0-.5522847-.4477153-1-1-1s-1 .4477153-1 1c.0228432 1.9973666 1.1892949 3.8045891 3 4.648v6.352c0 .5522847.4477153 1 1 1s1-.4477153 1-1v-6.052c2.019-.203 4-1.048 4-2.948z"/></g><path id="Shape" d="m59 54.62c.001722.8416316-.3599139 1.6430483-.9921193 2.1986228-.6322055.5555745-1.4734476.8112324-2.3078807.7013772-6.59-.89-13.22-1.83-19.89-1.67s-13.14 2.15-19.81 2.15c-3.0956847.076044-6.18118791-.3840749-9.12-1.36-3.77-1.36-7.76-5.14-4.97-9.37 1.72-2.6 5.07-4.54 3.71-8.17-.40473415-.927564-.8724944-1.8263319-1.4-2.69-1.0944225-1.8326075-1.49202892-3.9981424-1.12-6.1.2623889-1.8023611 1.32926728-3.3879631 2.9-4.31.65032672-.3245843 1.37443585-.4728543 2.1-.43.65531583.0180488 1.30077105.1641255 1.9.43 0 0 2 1 2 5s1 4 4 6 3 6 6 5 6 0 8 1 4 2 6 1 6-2 7 0c.1831602.379661.2690696.7988984.25 1.22-.0723474 1.2016222-.5359402 2.3465558-1.32 3.26-.8226253 1.0348772-1.9166626 1.8207837-3.16 2.27-.0346649.0207595-.071566.0375327-.11.05 5.919188-.0234614 11.8350668.2836836 17.72.92 1.4893402.1486943 2.6227736 1.403258 2.62 2.9z" fill="#ff5364"/><path id="Shape" d="m41.93 48.48c-.8226253 1.0348772-1.9166626 1.8207837-3.16 2.27-1.49.14-2.42.21-2.69.22-.64.02-1.28.03-1.91.03-2.6828826.0133532-5.362194-.1973791-8.01-.63-1.46-.25-3.02-.57-4.9-1.02-.63-.15-1.26-.34-1.9-.52-.9352478-.2950155-1.8868525-.5354209-2.85-.72-2.7634636-.4703361-5.5865364-.4703361-8.35 0-.54456413.0792423-1.05366797-.2881978-1.15-.83-.08654154-.5463286.28422395-1.0600398.83-1.15 2.9859807-.5021833 6.0351401-.4988029 9.02.01.27.04.55.12.83.18-1.23071-1.304143-2.6416711-2.4255036-4.19-3.33-.4804877-.2761424-.6461424-.8895123-.37-1.37s.8895123-.6461424 1.37-.37c.2.12 4.68 2.7 6.07 5.84.39.11.78.23 1.16.32 1.83.43 3.35.75 4.76.98 3.1483831.5195287 6.3418499.7138845 9.53.58.35-.01 2.64-.21 4.86-.4z" fill="#df4d60"/></g></g></svg>