<svg xmlns="http://www.w3.org/2000/svg" viewBox="0 0 167.5 216.47"><defs><style>.cls-1{fill:#6e7f3d;}.cls-2{fill:#4e5b20;}.cls-3{fill:#b2bc8a;}.cls-4{fill:#9da876;}.cls-5{fill:#838c5a;}.cls-6{fill:#617730;}.cls-7{fill:#6e5b8c;}.cls-8{fill:#453e56;}.cls-9{fill:#fff;}.cls-10{fill:#e8e2cf;}.cls-11{fill:#0c0b0c;}.cls-12{fill:#e0ab9d;}.cls-13{fill:#d19084;}.cls-14{fill:#ad442f;}.cls-15{fill:#94b756;}.cls-16{fill:#ffdb06;}.cls-17{fill:#abcc62;}.cls-18{fill:#596b32;}</style></defs><title>Asset 1</title><g id="Layer_2" data-name="Layer 2"><g id="Capa_1" data-name="Capa 1"><path class="cls-1" d="M36,192.5l1.1,12.66s18.44,13.77,36.6-9.35S83.65,154,83.65,154s-11.83,22-23.94,26.15c0,0,11,3.58,7.7,10.46S47.32,207.64,36,192.5Z"/><path class="cls-2" d="M99.23,93.93c1.14-1.34,1.32-6.85,1.32-6.85s6.33,2.61,8.42,1.38a8.37,8.37,0,0,0,3.08-3.61s16.34,3.61,17.39,3.47,4.49-2.43,4.49-2.43l-4.84-7.35s-25.27-2.09-29.16-.77c-1.32.44-2.77,2.63-4.1,5.37-2.89,1.85-9.24,6.4-9.45,11C86.11,100,93,106.17,93,106.17s-3.62-7.82-3.08-9.55a8.57,8.57,0,0,1,1.94-2.8,12.7,12.7,0,0,0-.62,2.88c.22,1.11,6.76,8.76,8.94,9.46S105,103,105,103a5.46,5.46,0,0,1-6.07-1.7A3.47,3.47,0,0,0,98.14,97C95.89,95.14,95,94.34,95,94.34S98.09,95.27,99.23,93.93Z"/><path class="cls-3" d="M124.42,156.74S133.09,145,138,142.8s9.61,5.11,9.61,5.11,1.1-14.68,7.84-19.31,11.2,2.07,11.2,2.07l-4.25-12.14-6.2-8.21s-13.52-10.34-14-11l-7.07,11.81-13.87,21.13s-29.76,11.53-20.58,12.45S124.42,156.74,124.42,156.74Z"/><path class="cls-1" d="M127.7,135.8a18.84,18.84,0,0,1-1.18-5.2L123,134.93c8.84,12.6-2.23,27.4-2.23,27.4C134.62,152.16,127.7,135.8,127.7,135.8Z"/><path class="cls-1" d="M139.14,115.17l6.3-7.71C134,104.3,136.22,110.48,139.14,115.17Z"/><path class="cls-1" d="M126.52,130.6l5.53-6.76C127.25,124.1,126.33,127.49,126.52,130.6Z"/><path class="cls-1" d="M166.82,139.52c4.63-19.51-15.74-39-15.74-39l-5.64,6.89.87.25C165.16,113.36,166.82,139.52,166.82,139.52Z"/><path class="cls-1" d="M142.45,119.73a44.86,44.86,0,0,1-3.31-4.56l-7.09,8.67a16.85,16.85,0,0,1,4.48.47c14.82,3.34,8.39,30.35,8.39,30.35C155.82,137.48,142.45,119.73,142.45,119.73Z"/><path class="cls-3" d="M23.34,200.53c2.9,2.26,6.92,11.57,6.92,11.57s11.25-5.46,17.44-4.72S35.91,195.8,35.91,195.8l-6.1-16.54-2.95-9.14c-.42.39-10.84,5.47-10.84,5.47l-5.28,4.69L6.17,188s3.91-3.93,7.69.24,2.39,14.4,2.39,14.4S20.43,198.28,23.34,200.53Z"/><path class="cls-4" d="M42.72,0C27.83,8.81,22.45,46.41,22.45,46.41l9.8-3.58C33.37,30.46,42.77,3.26,42.92,1.64S42.72,0,42.72,0Z"/><path class="cls-5" d="M30.57,43.45l1.68-.62C33.37,30.46,42.77,3.26,42.92,1.64,43,.56,42.9.19,42.8.06c-3.51,7.19-15.16,31.65-14.46,39.4A4.74,4.74,0,0,0,30.57,43.45Z"/><path class="cls-5" d="M34.23,9.29c-.72,1.2-1.4,2.47-2,3.79a30.09,30.09,0,0,1,7.67-1.21l.63-2A18.35,18.35,0,0,0,34.23,9.29Z"/><path class="cls-5" d="M38.68,15.74a13.8,13.8,0,0,0-8.43,1.63l-.53,1.29a17.29,17.29,0,0,1,8.53-1.46C38.39,16.71,38.54,16.22,38.68,15.74Z"/><path class="cls-5" d="M30.61,33.57c-1.33-1.28-3.4-1.32-5.31-1-.34,1.33-.65,2.61-.92,3.82a9.33,9.33,0,0,1,6.68-.28L34,33c.44-1.9.93-3.87,1.45-5.86a2.78,2.78,0,0,1-2.75-.32A7.56,7.56,0,0,0,27,26.42c-.31,1-.6,2-.87,3,3.27-.34,7.81,1.42,7.81,1.42S33.63,36.48,30.61,33.57Z"/><path class="cls-5" d="M36.4,6c-.21.29-.43.58-.64.89l5.45.55.66-2.12A12.06,12.06,0,0,0,36.4,6Z"/><path class="cls-5" d="M37,21.5l-.43-.2a8.64,8.64,0,0,0-8,.33l-.28.81c2.61-.77,6.19.39,8.08,1.14C36.61,22.89,36.8,22.19,37,21.5Z"/><path class="cls-4" d="M83.67,7.76c-19,3.34-35.16,37.75-35.16,37.75l11.93-.06c4.58-11.54,22.41-34.53,23-36S83.67,7.76,83.67,7.76Z"/><path class="cls-5" d="M60.44,45.45c4.58-11.54,22.41-34.53,23-36,.4-1,.36-1.41.3-1.56-5.87,5.71-25.48,25.27-26.78,33a4.87,4.87,0,0,0,1.43,4.62Z"/><path class="cls-5" d="M71.67,13.77c-1.13.92-2.23,1.91-3.31,2.95a39.64,39.64,0,0,1,8.91,1.5l1.26-1.77A25.68,25.68,0,0,0,71.67,13.77Z"/><path class="cls-5" d="M74.92,21.54A18.39,18.39,0,0,0,65,20.19c-.31.35-.63.7-.93,1.06A23,23,0,0,1,74,22.8Z"/><path class="cls-5" d="M61.09,35.94c-1.14-1.69-3.45-2.45-5.68-2.76-.74,1.16-1.43,2.29-2.06,3.36a12.71,12.71,0,0,1,7.56,2.05l4.12-2c1-1.67,2.08-3.41,3.2-5.15a3.72,3.72,0,0,1-3-1.25C63.62,28.6,61.15,28,59,27.81c-.62.86-1.21,1.72-1.78,2.57,3.75.8,8.37,4.08,8.37,4.08S63.7,39.81,61.09,35.94Z"/><path class="cls-5" d="M75,11.37c-.32.21-.64.42-1,.64l6,2.42,1.3-1.82A16.14,16.14,0,0,0,75,11.37Z"/><path class="cls-5" d="M71.07,26.17a11.64,11.64,0,0,0-9-2.44l-.55.69c3.14.16,6.84,2.52,8.75,3.9l1.22-1.81C71.35,26.41,71.21,26.29,71.07,26.17Z"/><path class="cls-1" d="M7.88,60.7c-.92-3.17-6-2.93-6-2.93S6.07,60,6,64.49s7.64,8.14,7.64,8.14l13.83-8a73.44,73.44,0,0,0-4-15.42c-3-7.7-13.82-1.76-13.82-1.76,5.3-1,5.72,8.29,5.72,8.29s-1,5.13-3.31-1-6.59-3-6.59-3A7.45,7.45,0,0,1,9.29,57.8c.17,4.26,4.4,8.25,4.4,8.25S8.79,63.87,7.88,60.7Z"/><path class="cls-6" d="M27.64,106.67s-7.46,13.67,1.57,18.68,18.41-5.63,18.69-10.21S62.27,100.46,70,105.29s17.87-1.05,18.93-9.13c0,0-5.31,10.1-14.38,6.44s-25.36-1.2-27.85,5.07-7.45,17.86-14,15.23-.32-15.55-.32-15.55Z"/><path class="cls-7" d="M25.75,107.65s18.39,1.49,18.5,1.09,3.39-17.52,3.41-18.13,2.26-23.53,2.26-23.53L23,85.28c0,.91-1.39,11.91-.8,15.78A12.6,12.6,0,0,0,25.75,107.65Z"/><path class="cls-8" d="M36.8,102.9c2.88-1.33,4-6.23,4.08-7.3s1.28-14.82,2.42-16.67-1.14-.31-3.48,1L23.33,91.13s.76,8.06,2.08,9.05.32,2.64.32,2.64S33.93,104.23,36.8,102.9Z"/><path class="cls-9" d="M33.09,105.19s-1.07-4.06-2-3.33-.81,3.08-.81,3.08C31.28,106.56,33.09,105.19,33.09,105.19Z"/><path class="cls-9" d="M30,105.06s-1.07-4-2-3.32-.8,3.08-.8,3.08C28.21,106.44,30,105.06,30,105.06Z"/><path class="cls-9" d="M40.27,103.35C40.21,102,38.14,97,38.14,97c-1.75,2.38-1.81,7.69-1.81,7.69s1.38,1.21,2.19,1.24S40.33,104.67,40.27,103.35Z"/><path class="cls-9" d="M36.14,105.1s-1.07-4-2-3.32-.81,3.08-.81,3.08C34.34,106.48,36.14,105.1,36.14,105.1Z"/><path class="cls-10" d="M28.75,102c-.22-.29-.45-.41-.68-.26a30.68,30.68,0,0,0-.11,3.22C28,104.82,28.56,102.73,28.75,102Z"/><path class="cls-10" d="M28.8,102c0,.77,0,2.67,0,3.54a3.08,3.08,0,0,0,1.19-.52A12.13,12.13,0,0,0,28.8,102Z"/><path class="cls-10" d="M39.06,105.77a2.84,2.84,0,0,0,1.21-2.42C40.21,102,38.14,97,38.14,97a4.61,4.61,0,0,0-.36.57c-.38,2.38-.76,5.52-.38,6.75l.86-6.3S37.53,104.13,39.06,105.77Z"/><path class="cls-10" d="M31.65,101.92c-.08,1.14-.18,2.53-.18,2.62s.43-1.17.69-1.89A2.49,2.49,0,0,0,31.65,101.92Z"/><path class="cls-10" d="M31.82,105.72a3.11,3.11,0,0,0,1.27-.53,17.25,17.25,0,0,0-.79-2.26A15.7,15.7,0,0,1,31.82,105.72Z"/><path class="cls-10" d="M34.79,105.64a2.84,2.84,0,0,0,1.35-.54A12.47,12.47,0,0,0,35,102.15Z"/><path class="cls-10" d="M34.35,101.7c0,1.35,0,3.29,0,3.29l.51-2.94C34.72,101.81,34.53,101.67,34.35,101.7Z"/><path class="cls-10" d="M25.87,98.3S24.56,92.79,24,93.42s-1,4.69-1,4.69C24,99.9,25.87,98.3,25.87,98.3Z"/><path class="cls-11" d="M43.3,78.93c1.14-1.86-1.14-.31-3.48,1l-8.28,5.64c-.46,5.85-.44,12.56,1.61,15.39a129,129,0,0,1,9-16.6A21.3,21.3,0,0,1,43.3,78.93Z"/><path class="cls-12" d="M46.49,76.19c6.82-4.14,11.23-5.82,6.87-6S43.88,68.92,42.43,70L30.64,74.48S27,94.62,31,100.12C31,100.12,39.67,80.34,46.49,76.19Z"/><path class="cls-13" d="M31,100.12s8.72-19.78,15.54-23.93l1.67-1-4.53-2.68L31.78,82.21l-.68,11,7.75-14.48s-7.7,17.37-8,21.28Z"/><path class="cls-9" d="M36.1,84.65c1.6.38,2.1-7,2.1-7s.28,4.26.94,4.55,4.11-6,1.48-8.46-11.27,2.14-11.27,2.14L26.16,89.06s.38,5.15,3.14,7.6l1.26-14.28s.62,6,2,6.14,2.09-8.45,2.09-8.45S34.49,84.26,36.1,84.65Z"/><path class="cls-10" d="M28.58,93.73l-.29-5.82.89,8.63.12.12,1.06-12c0-.33,0-.52,0-.52l0-.06.15-1.69s.06.52.17,1.26l1.05-1.43.51,4.38.76-5.1-.13,6.82c1.1-1.3,1.7-8.24,1.7-8.24s0,.53,0,1.22l.14-1.92,1.51,3.49.27-3.79S36.92,81.9,37,84c.93-1.73,1.24-6.32,1.24-6.32s0,.49.1,1.14l.13-.86a32.15,32.15,0,0,1,1.43-3.45c0,.4-.13,5.72-.13,5.72a9.33,9.33,0,0,1-.49,2c.84-.22,3.9-6.11,1.38-8.46a3.41,3.41,0,0,0-2.41-.72c-4.8,1.52-6,2.87-6.52,3.63s-2.87,2.89-3.48,3.92l0,.16.32,5.12-1.17.71Z"/><path class="cls-9" d="M3.41,86.86S3.47,95.57,6,98.08l3.41-9.82Z"/><path class="cls-14" d="M54.48,76.55c.33-.9,2.47-4.38.2-6.18s-1.47-1.76-2.28-1.79l-11,5c1.2,1.87,4.74,8,4.17,15.37C44.9,97.72,54.15,77.45,54.48,76.55Z"/><path class="cls-14" d="M39.87,74.26l1.54-.7C41.17,73.19,41,73,41,73Z"/><path class="cls-15" d="M37.66,105.6c-4.27.67-13.3,1.2-14-1.26A81,81,0,0,1,22.2,95s-1,9.49.93,12.08,4.84,7.35,5.33,7.77,12.17-.33,13.3-.8,5.44-2.56,6.89-6.67,1-12.93,5.39-16.75S64.82,82.85,62.63,75s-3-18.73-9.39-20.15S36.65,51,34,51.39s-9.53.21-10.45.58-2.87.92-2.87.92l-5,13.73s-3.34,3.13-3.4,5.26-3.71,2-3.8,4.84L6.41,78.28S-.13,77,0,82.43C.09,86.21,1.49,86.89,2.34,87c.55,3.08,2.2,9,6.43,11.83,0,0,11.88-4.15,14.8-4.6s6-7.11,6-7.11h0c.61-1,1.17-2,1.61-2.65,1.59-2.28,5.7-4.28,6.72-4.45s4-5.85,5.68-6.71a6.45,6.45,0,0,1,3.67-.49s-3.86,16.39-3,20.78S41.94,104.92,37.66,105.6Z"/><path class="cls-15" d="M26.36,35.45c-7.19,1-7.19,18.27-7.19,18.27l33.36,12.8,2.63-1.8,7.11-20s-.07-6.35-7.21-6.84S40.58,55.75,40.58,55.75l-7.49-2.13.39-16.73S33.55,34.46,26.36,35.45Z"/><path class="cls-1" d="M33.14,51.49l.34-14.6s.06-2.24-6.29-1.54a5.68,5.68,0,0,1,1.72,3.82c.2,3.61-3.28,9.87-5,12.72C25.46,51.66,30.39,51.75,33.14,51.49Z"/><path class="cls-1" d="M38.13,69.31a5.76,5.76,0,0,0,2.61.36Z"/><path class="cls-1" d="M45.6,65.77c2.61-5.66.8-8.22-.69-8.2s-6.86,1.48-7.56,2.33l-5.23,9.36c.27.14,6.08,2.15,8.74,1.42s7.82-4.14,7.82-4.14l-7.39,3.21-.55-.08a5.76,5.76,0,0,1-2.61-.36l2.61.36C42.31,69.53,44.26,68.68,45.6,65.77Z"/><path class="cls-16" d="M44.23,57.89,37.3,62.53l-3.83,5.86s6.47.2,9.7-2.63S44.23,57.89,44.23,57.89Z"/><path class="cls-15" d="M84.3,125.52s-8.08-7.57-39.27,7-31.77,51-12.12,68.6,28.14,1.18,28.14,1.18-5.14,9.57-17.54-3.28,2-45.52,31.37-47.33,99.47-31.82,77.4-72.32S48,55.07,48,55.07l7.24,23c18.52-9.75,75-5.84,72.18,12.6S84.3,125.52,84.3,125.52Z"/><path class="cls-1" d="M131.65,68l10.28,15C141.8,70.58,131.65,68,131.65,68Z"/><path class="cls-1" d="M74.88,151.64c10.56-.65,26.4-4.95,41.32-12.08l13-14.55,21.58-29.1-8.9-13c.06,5.59-1.93,13.17-7.84,23.39-19,32.83-63.31,32.35-87.05,43.15s-14.6,39.35-14.6,39.35l6.61-1.53C38.69,172.48,52.4,153,74.88,151.64Z"/><path class="cls-5" d="M118.16,105.2c9.2-7.09,21.48-23.84,5.46-33.67-19.48-12-63.81-.18-64.43.2L63,75.29c23-5.87,67-.94,64.49,15.4C126.66,95.79,123,100.72,118.16,105.2Z"/><path class="cls-4" d="M120.39,103c8.06-8.15,15.06-21.61,1.36-30C105,62.7,69.86,70,60,72.46l3,2.83c23-5.87,67-.94,64.49,15.4C126.79,95,124.11,99.14,120.39,103Z"/><path class="cls-5" d="M105.1,68.07l-1.79,6.33,1.52.28,1.52-6.47Z"/><path class="cls-5" d="M123.44,74.13,118.93,79c.78.38,1.51.78,2.19,1.19l4-4.68A19,19,0,0,0,123.44,74.13Z"/><path class="cls-5" d="M114.48,69.85c-.66,1.42-1.84,4-3,6.39q.81.23,1.59.48c1.07-2.38,2.26-4.91,3-6.35C115.57,70.19,115,70,114.48,69.85Z"/><path class="cls-5" d="M95.53,67.65,94.38,73.3l2.13.19,1-5.84Q96.52,67.63,95.53,67.65Z"/><path class="cls-5" d="M129.5,84.46a15.35,15.35,0,0,0-.2-1.66c-1.1-.67-2.39.06-3.63,1.31a9.84,9.84,0,0,1,1.19,2A3.54,3.54,0,0,1,129.5,84.46Z"/><path class="cls-5" d="M86,68.11c-.26,1.2-.75,3.46-1.07,4.8l2.11,0,1.26-5Z"/><path class="cls-1" d="M50.89,54.32,57,59.43l5.24-14.75a7,7,0,0,0-5.59-6.61c.35,2.43.49,5.8-.93,7.76A65.08,65.08,0,0,0,50.89,54.32Z"/><path class="cls-17" d="M40.3,64.06c2.49-1.24,4.59-2.36,4.59-2.36l1-3.3L46,58l2.41-.49,1.26-3.1L39,50.33S26.73,62.19,27,68.42l7,2S37.8,65.3,40.3,64.06Z"/><path class="cls-17" d="M25.55,48.51l-11-.54c-3.54,2.31-2.2,19.76-2.2,19.76l7.9-.53Z"/><path class="cls-17" d="M23.53,80.61c-4.13-2.44-7,.9-6.22,4.17s4.41,3.94,4.41,3.94-2.38-.7-2.65-4.2S23.53,80.61,23.53,80.61Z"/><path class="cls-18" d="M21.51,84.5c-.23,1.77.27,2.11.27,2.11,3.18.1,3-2.64,3-2.64l.71.1C24.75,82.17,21.75,82.73,21.51,84.5Z"/><path class="cls-17" d="M25.57,71.38l-1-.09Z"/><path class="cls-17" d="M21,64.15l-5.16,2-.19.51s-3.34,3.13-3.4,5.26-3.71,2-3.8,4.84L6.41,78.28S-.13,77,0,82.43C.09,86.21,1.49,86.89,2.34,87c.55,3.08,2.2,9,6.43,11.83-2.2-8.21,2-16.72,4.2-19.69s8.28-2.37,8.28-2.37c-1.19-1.46-7-1.35-8.45-1.3a2.72,2.72,0,0,0,.72-1c.76-1.4,9.64-.45,9.64-.45S15,72.87,16.45,71.7c1.13-.91,6-.59,8.14-.41-1.89-.2-5.92-.75-7-1.78C16.25,68.15,21,64.15,21,64.15Z"/><path class="cls-17" d="M21.37,72.92s6.61.52,9.47,1.6l-5.29-2.58Z"/><path class="cls-17" d="M31.17,74.65l-.33-.13c.95.46,1.4.67.55.24Z"/><path class="cls-17" d="M26.06,75.1c-2.5-.89-8.29-.52-8.29-.52,3.35-.2,10.59,3.22,10.59,3.22Z"/><polygon class="cls-17" points="19.66 69.37 26.7 70.86 24.87 69.59 19.66 69.37"/><path class="cls-9" d="M25.92,105.48A1.16,1.16,0,0,0,27,103.94l-2-6.24c-1.65,2.43-.82,6.66-.82,6.66A1.39,1.39,0,0,0,25.92,105.48Z"/><path class="cls-9" d="M43.14,97.77c.06-1.89-2.6-3.06-2.6-3.06s-.26,7,0,7C41.86,102,43.09,99.65,43.14,97.77Z"/><path class="cls-9" d="M43.86,93.86c0-.93-1.66-4.38-2.37-3.49S41,94.53,41,94.53C41.74,95.06,43.83,94.8,43.86,93.86Z"/><path class="cls-9" d="M44.05,89.54c0-.94-1.67-4.38-2.38-3.49s-.53,4.16-.53,4.16C41.93,90.74,44,90.47,44.05,89.54Z"/><path class="cls-9" d="M44.55,84.84c0-.93-1.66-4.38-2.37-3.49s-.54,4.16-.54,4.16C42.43,86,44.52,85.78,44.55,84.84Z"/><path class="cls-10" d="M44.55,84.84c0-.93-1.66-4.38-2.37-3.49a1.93,1.93,0,0,0-.29.61c.33.49,1.72,2.66,1.34,3.79C43.92,85.66,44.53,85.35,44.55,84.84Z"/><path class="cls-10" d="M42.49,85.77a1.72,1.72,0,0,0-.85-.26A1.89,1.89,0,0,0,42.49,85.77Z"/><path class="cls-10" d="M41.13,89.93c0,.17,0,.28,0,.28a2.23,2.23,0,0,0,1.19.27A1.72,1.72,0,0,0,41.13,89.93Z"/><path class="cls-10" d="M42.69,90.45c.7-.09,1.34-.4,1.36-.91,0-.94-1.67-4.38-2.38-3.49a1.22,1.22,0,0,0-.18.32,3.43,3.43,0,0,1,1,3.68A1.64,1.64,0,0,0,42.69,90.45Z"/><path class="cls-10" d="M43.86,93.86c0-.93-1.66-4.38-2.37-3.49a1.53,1.53,0,0,0-.24.46,10.34,10.34,0,0,1,.89,3c0,.47.08.79.12,1C43.05,94.76,43.84,94.44,43.86,93.86Z"/><path class="cls-10" d="M43.14,97.77c.06-1.89-2.6-3.06-2.6-3.06s0,.42,0,1.05a23.75,23.75,0,0,1,1.33,4.5c.06.29.11.54.17.74A5.76,5.76,0,0,0,43.14,97.77Z"/><path class="cls-10" d="M25.92,105.48A1.16,1.16,0,0,0,27,103.94l-1.87-5.88c-.16,1.87-.37,5.52.21,7.41A2.46,2.46,0,0,0,25.92,105.48Z"/><path class="cls-15" d="M55.05,119.62C63,118,57.61,96.4,65.77,88.15s20.34,3.88,32-.82,12.37-26.15,12.37-26.15-6.68,30-22.79,22.65-27.86,1-29,12.73-4.4,28.22-11.57,11.52l-3.33.84S47.1,121.19,55.05,119.62Z"/><path class="cls-15" d="M26.59,108.93c-1.67,4.1-4.13,12.68,2.62,16.42a10.06,10.06,0,0,0,3.95,1.26c-7.56-2.27-3-13.15-3-13.15Z"/><path class="cls-15" d="M34,70.4s3.84-5.1,6.34-6.34,4.59-2.36,4.59-2.36l1-3.3L46,58l2.41-.49,1.26-3.1-7.33-2.81C36.2,53.77,31.13,65.85,31.27,67.51c.09,1.25,1.63,2.32,2.59,2.86Z"/><path class="cls-15" d="M25.55,48.51,15.84,48c-2,5-1,18.07-1,18.07l5.83-.38Z"/><path class="cls-1" d="M50,100.12c.61-3.6,1.55-7.35,4-9.51C58.41,86.8,64.82,82.85,62.63,75s-3-18.73-9.39-20.15l-1.65-.37c2,5.7,6.25,19.82,2.07,25.61C49.92,85.25,49.78,94.91,50,100.12Z"/><path class="cls-1" d="M26.54,108.18l11.63.57C35.65,105.33,26.54,108.18,26.54,108.18Z"/><path class="cls-1" d="M40.54,107.5c6.64,1.42,7.79-9.18,7.38-12.43s-.85-5,.38-8.7-.12-12.47-.12-12.47.64,8.64-1.69,11.9S46.34,94,46.48,99,40.54,107.5,40.54,107.5Z"/><path class="cls-1" d="M18.28,64.87l5.12-8.24C20,57,18.28,64.87,18.28,64.87Z"/><path class="cls-1" d="M65.35,147.11C43.76,147.64,9.5,183.64,49,204.63a42,42,0,0,0,6.88,2.9,14.54,14.54,0,0,0,5.21-5.28s-5.14,9.57-17.54-3.28,2-45.52,31.37-47.33,99.47-31.82,77.4-72.32c-14.57-26.75-55.37-28.74-81.4-27,18.68,1.38,60.1,7.19,70.3,31.54C154.47,115.57,86.94,146.57,65.35,147.11Z"/><path class="cls-1" d="M62.73,69.56a6.11,6.11,0,0,0-.54.34S62.38,69.77,62.73,69.56Z"/><path class="cls-1" d="M58.52,64.11s1.85-1.73,4.43-3.7A11.5,11.5,0,0,0,58.52,64.11Z"/><path class="cls-1" d="M78.56,45.39s-2,7.13-12.38,7-10.63,6.25-10.63,6.25l2.66,12s.92,12.79,3.69,8.22S68,76.16,74.39,74.74,83,62.25,83,62.25s-5.52,7.93-10.41,5.85c-4-1.69-8.35.55-9.85,1.46-.35.21-.54.34-.54.34a6.11,6.11,0,0,1,.54-.34,68,68,0,0,1,12.63-6.34C81.61,61.09,81.29,52,81.29,52S77.18,60,69.61,59.29A12.3,12.3,0,0,0,63,60.41c-2.58,2-4.43,3.7-4.43,3.7A11.5,11.5,0,0,1,63,60.41c2.76-2.11,6.36-4.49,9.43-5.28C78.3,53.59,78.56,45.39,78.56,45.39Z"/><path class="cls-1" d="M22,63.07c0,1.51,2.43,3.31,2.43,3.31a7.68,7.68,0,0,1,1.36-7.75S22,61.55,22,63.07Z"/><path class="cls-15" d="M32.66,193.88a13.55,13.55,0,0,1-1.52,3.39s-6.94,10.18.74,19.2c0,0-5.16-11.78,2.49-19.1Z"/><path class="cls-15" d="M30,188.43l2.67,5.45C33.24,191.78,33.12,189.32,30,188.43Z"/><path class="cls-15" d="M22.91,175.26l.61,0-2.73-5.56S4.53,180,4.77,194C4.77,194,9.64,176.33,22.91,175.26Z"/><path class="cls-15" d="M23.52,175.22l3.05,6.21C29.17,178.66,31.53,174.75,23.52,175.22Z"/><path class="cls-15" d="M27,188.09a10.69,10.69,0,0,1,3,.34l-3.42-7a30.22,30.22,0,0,1-2.85,2.64S12.32,194.24,17,207.63C17,207.63,16.7,188.17,27,188.09Z"/><path class="cls-5" d="M113.41,109.16c-12.63,9.66-29.11,16.36-29.11,16.36s-8.08-7.57-39.27,7c-14.62,6.8-22.51,18.41-24.75,30.65,7.14-7.22,25.1-22.53,54.92-29.78C100.15,127.27,109.73,116.42,113.41,109.16Z"/><path class="cls-4" d="M107.17,113.53a155.84,155.84,0,0,1-22.87,12s-8.08-7.57-39.27,7C32.48,138.31,24.89,147.7,21.57,158c8.52-7.84,25.64-20.61,52.09-27.05C91.61,126.57,101.61,119.73,107.17,113.53Z"/><path class="cls-5" d="M35.65,147.14c.66-.43,1.34-.86,2-1.29a19.65,19.65,0,0,0-4.17-5.94c-.92.81-1.79,1.64-2.61,2.5,2,1,3.93,2.52,4.66,4.48Z"/><path class="cls-5" d="M51.4,138.57c-.84-1.83-2.57-5-5.12-6.68l-1.25.58c-.63.29-1.23.59-1.83.9,2.7,1.83,5.7,4.4,5.36,6.52C49.49,139.45,50.43,139,51.4,138.57Z"/><path class="cls-5" d="M63.38,133.9c0-1.85-.31-5.45-2.23-7.75-1.16.35-2.37.75-3.63,1.19,2.34,1.94,4.62,4.59,4,7.19C62.13,134.32,62.75,134.1,63.38,133.9Z"/><path class="cls-5" d="M76.11,123.55l-.43,6.88c.83-.22,1.64-.44,2.44-.67l.25-6.11C77.69,123.59,76.94,123.55,76.11,123.55Z"/><path class="cls-2" d="M113.12,108.47c2.88-1.53,3.7-7.46,3.7-7.46l-13.65.61-3.45,1.11s.72,8.57,1.09,9.57,5.1,5,5.84,5.44,6.72,1.14,8.7.79,3.65-7.8,3.65-7.8-3.5,6.71-9.79,4.66c0,0,1.69-.52,1.37-1.4s-5.34-2.83-5.34-2.83.64-.26.94-2.51-1.21-5.41-1.21-5.41S110.24,110,113.12,108.47Z"/><path class="cls-2" d="M95.88,118.47l2.06-16.35s-6.9,13.43-6.92,14-1.52,14,5.24,15.9a12,12,0,0,1-1.55-8.76Z"/><path class="cls-1" d="M111.29,106.27c3.21.56,4.94-2.85,4.94-2.85s12.26,7.09,17.11,7.24,14.95-16.17,15.56-20.77S146,78.7,139.66,82.43c0,0-9,17-9.11,17.51s-21.93-4.39-26.09-4.63S92.65,107.19,92.13,108.9s1.43,9.64,1.64,10.46,6.63,13.26,16.08,3.28c0,0-5.85,2-9-.86s-2.2-3.66-2.2-3.66,1.2,2.47,1.75-.4-1.58-8.61-1.58-8.61,1.46,1.21,3.74-1.26a9.07,9.07,0,0,0,2-6.07S108.07,105.71,111.29,106.27Z"/><path class="cls-15" d="M133.2,104s5.43-22.11,12.51-15.54a11.46,11.46,0,0,0,3,2.13,5,5,0,0,0,.16-.74c.61-4.61-2.89-11.19-9.24-7.46,0,0-9,17-9.11,17.51s-21.93-4.39-26.09-4.63c-3.6-.22-9.86,8.91-11.78,12.43,2.2-3.21,7.73-10.54,12.37-10.39C111,97.54,133.2,104,133.2,104Z"/></g></g></svg>