<svg xmlns="http://www.w3.org/2000/svg" xmlns:xlink="http://www.w3.org/1999/xlink" viewBox="0 0 237.6 136.55"><defs><style>.cls-1{fill:#0c0c0c;}.cls-2{fill:url(#Nueva_muestra_de_degradado_17);}.cls-3{fill:url(#Nueva_muestra_de_degradado_17-2);}.cls-4{fill:url(#Nueva_muestra_de_degradado_11);}.cls-5{fill:url(#Nueva_muestra_de_degradado_17-3);}.cls-6{fill:url(#Nueva_muestra_de_degradado_17-4);}.cls-7{fill:url(#Nueva_muestra_de_degradado_17-5);}.cls-8{fill:url(#Nueva_muestra_de_degradado_17-6);}.cls-9{fill:url(#Nueva_muestra_de_degradado_17-7);}.cls-10{fill:url(#Nueva_muestra_de_degradado_17-8);}.cls-11{fill:url(#Nueva_muestra_de_degradado_17-9);}.cls-12{fill:url(#Nueva_muestra_de_degradado_17-10);}.cls-13{fill:url(#Nueva_muestra_de_degradado_17-11);}.cls-14{fill:url(#Nueva_muestra_de_degradado_17-12);}.cls-15{fill:url(#Nueva_muestra_de_degradado_17-13);}.cls-16{fill:url(#Nueva_muestra_de_degradado_17-14);}.cls-17{fill:url(#Nueva_muestra_de_degradado_17-15);}.cls-18{fill:url(#Nueva_muestra_de_degradado_11-2);}.cls-19{fill:url(#Nueva_muestra_de_degradado_11-3);}.cls-20{fill:url(#Nueva_muestra_de_degradado_17-16);}.cls-21{fill:url(#Nueva_muestra_de_degradado_11-4);}.cls-22{fill:url(#Nueva_muestra_de_degradado_11-5);}.cls-23{fill:url(#Nueva_muestra_de_degradado_11-6);}.cls-24{fill:url(#Nueva_muestra_de_degradado_11-7);}.cls-25{fill:url(#Nueva_muestra_de_degradado_11-8);}.cls-26{fill:url(#Nueva_muestra_de_degradado_11-9);}.cls-27{fill:url(#Nueva_muestra_de_degradado_11-10);}.cls-28{fill:url(#Nueva_muestra_de_degradado_11-11);}.cls-29{fill:url(#Nueva_muestra_de_degradado_11-12);}.cls-30{fill:url(#Nueva_muestra_de_degradado_11-13);}.cls-31{fill:url(#Nueva_muestra_de_degradado_17-17);}.cls-32{fill:url(#Nueva_muestra_de_degradado_17-18);}.cls-33{fill:url(#Nueva_muestra_de_degradado_17-19);}.cls-34{fill:url(#Nueva_muestra_de_degradado_17-20);}.cls-35{fill:url(#Nueva_muestra_de_degradado_17-21);}.cls-36{fill:url(#Nueva_muestra_de_degradado_17-22);}.cls-37{fill:url(#Nueva_muestra_de_degradado_17-23);}.cls-38{fill:url(#Nueva_muestra_de_degradado_17-24);}.cls-39{fill:url(#Nueva_muestra_de_degradado_17-25);}.cls-40{fill:url(#Nueva_muestra_de_degradado_17-26);}.cls-41{fill:url(#Nueva_muestra_de_degradado_17-27);}.cls-42{fill:url(#Nueva_muestra_de_degradado_17-28);}.cls-43{fill:url(#Nueva_muestra_de_degradado_17-29);}.cls-44{fill:url(#Nueva_muestra_de_degradado_17-30);}.cls-45{fill:url(#Nueva_muestra_de_degradado_17-31);}.cls-46{fill:url(#Nueva_muestra_de_degradado_17-32);}.cls-47{fill:url(#Nueva_muestra_de_degradado_17-33);}.cls-48{fill:url(#Nueva_muestra_de_degradado_17-34);}.cls-49{fill:url(#Nueva_muestra_de_degradado_17-35);}.cls-50{fill:url(#Nueva_muestra_de_degradado_17-36);}.cls-51{fill:#211915;}.cls-52{fill:url(#Nueva_muestra_de_degradado_11-14);}.cls-53{fill:url(#Nueva_muestra_de_degradado_41);}.cls-54{fill:url(#Nueva_muestra_de_degradado_19);}.cls-55{fill:url(#Nueva_muestra_de_degradado_19-2);}.cls-56{fill:url(#Nueva_muestra_de_degradado_19-3);}.cls-57{fill:url(#Nueva_muestra_de_degradado_19-4);}.cls-58{fill:url(#Nueva_muestra_de_degradado_19-5);}.cls-59{fill:url(#Nueva_muestra_de_degradado_19-6);}.cls-60{fill:url(#Nueva_muestra_de_degradado_19-7);}.cls-61{fill:url(#Nueva_muestra_de_degradado_19-8);}.cls-62{fill:url(#Nueva_muestra_de_degradado_19-9);}.cls-63{fill:url(#Nueva_muestra_de_degradado_19-10);}.cls-64{fill:url(#Nueva_muestra_de_degradado_19-11);}.cls-65{fill:url(#Nueva_muestra_de_degradado_19-12);}.cls-66{fill:url(#Nueva_muestra_de_degradado_19-13);}.cls-67{fill:url(#Nueva_muestra_de_degradado_19-14);}.cls-68{fill:url(#Nueva_muestra_de_degradado_11-15);}.cls-69{fill:url(#Nueva_muestra_de_degradado_41-2);}.cls-70{fill:url(#Nueva_muestra_de_degradado_17-37);}.cls-71{fill:url(#Nueva_muestra_de_degradado_11-16);}.cls-72{fill:url(#Nueva_muestra_de_degradado_17-38);}.cls-73{fill:url(#Nueva_muestra_de_degradado_17-39);}.cls-74{fill:url(#Nueva_muestra_de_degradado_17-40);}.cls-75{fill:url(#Nueva_muestra_de_degradado_17-41);}.cls-76{fill:url(#Nueva_muestra_de_degradado_17-42);}.cls-77{fill:url(#Nueva_muestra_de_degradado_17-43);}.cls-78{fill:url(#Nueva_muestra_de_degradado_17-44);}.cls-79{fill:url(#Nueva_muestra_de_degradado_14);}.cls-80{fill:url(#Nueva_muestra_de_degradado_14-2);}.cls-81{fill:url(#Nueva_muestra_de_degradado_17-45);}.cls-82{fill:url(#Nueva_muestra_de_degradado_17-46);}.cls-83{fill:url(#Nueva_muestra_de_degradado_11-17);}.cls-84{fill:url(#Nueva_muestra_de_degradado_11-18);}.cls-85{fill:url(#Nueva_muestra_de_degradado_11-19);}.cls-86{fill:url(#Nueva_muestra_de_degradado_11-20);}.cls-87{fill:url(#Nueva_muestra_de_degradado_17-47);}.cls-88{fill:url(#Nueva_muestra_de_degradado_17-48);}.cls-89{fill:url(#Nueva_muestra_de_degradado_17-49);}.cls-90{fill:url(#Nueva_muestra_de_degradado_17-50);}.cls-91{fill:url(#Nueva_muestra_de_degradado_17-51);}.cls-92{fill:url(#Nueva_muestra_de_degradado_17-52);}.cls-93{fill:url(#Nueva_muestra_de_degradado_17-53);}.cls-94{fill:url(#Nueva_muestra_de_degradado_17-54);}.cls-95{fill:url(#Nueva_muestra_de_degradado_17-55);}.cls-96{fill:url(#Nueva_muestra_de_degradado_17-56);}.cls-97{fill:url(#Nueva_muestra_de_degradado_17-57);}.cls-98{fill:url(#Nueva_muestra_de_degradado_17-58);}.cls-99{fill:url(#Nueva_muestra_de_degradado_17-59);}.cls-100{fill:url(#Nueva_muestra_de_degradado_17-60);}.cls-101{fill:url(#Nueva_muestra_de_degradado_17-61);}.cls-102{fill:url(#Nueva_muestra_de_degradado_17-62);}.cls-103{fill:url(#Nueva_muestra_de_degradado_17-63);}.cls-104{fill:url(#Nueva_muestra_de_degradado_17-64);}.cls-105{fill:url(#Nueva_muestra_de_degradado_17-65);}.cls-106{fill:url(#Nueva_muestra_de_degradado_17-66);}.cls-107{fill:url(#Nueva_muestra_de_degradado_17-67);}.cls-108{fill:url(#Nueva_muestra_de_degradado_17-68);}.cls-109{fill:url(#Nueva_muestra_de_degradado_17-69);}.cls-110{fill:url(#Nueva_muestra_de_degradado_17-70);}.cls-111{fill:url(#Nueva_muestra_de_degradado_17-71);}.cls-112{fill:url(#Nueva_muestra_de_degradado_17-72);}.cls-113{fill:url(#Nueva_muestra_de_degradado_17-73);}.cls-114{fill:url(#Nueva_muestra_de_degradado_17-74);}</style><linearGradient id="Nueva_muestra_de_degradado_17" x1="10.02" y1="42.59" x2="196.6" y2="42.59" gradientUnits="userSpaceOnUse"><stop offset="0" stop-color="#727272"/><stop offset="0.88" stop-color="#161515"/></linearGradient><linearGradient id="Nueva_muestra_de_degradado_17-2" x1="154.86" y1="85.46" x2="155.27" y2="85.46" xlink:href="#Nueva_muestra_de_degradado_17"/><linearGradient id="Nueva_muestra_de_degradado_11" x1="58.21" y1="112.49" x2="70.17" y2="110.84" gradientUnits="userSpaceOnUse"><stop offset="0" stop-color="#b52d2d"/><stop offset="1" stop-color="#630101"/></linearGradient><linearGradient id="Nueva_muestra_de_degradado_17-3" x1="23.62" y1="124.3" x2="18.73" y2="123.56" xlink:href="#Nueva_muestra_de_degradado_17"/><linearGradient id="Nueva_muestra_de_degradado_17-4" x1="214.16" y1="116.55" x2="214.15" y2="116.58" xlink:href="#Nueva_muestra_de_degradado_17"/><linearGradient id="Nueva_muestra_de_degradado_17-5" x1="219.78" y1="110.99" x2="218.68" y2="113.95" xlink:href="#Nueva_muestra_de_degradado_17"/><linearGradient id="Nueva_muestra_de_degradado_17-6" x1="188.25" y1="101.44" x2="182.99" y2="115.61" xlink:href="#Nueva_muestra_de_degradado_17"/><linearGradient id="Nueva_muestra_de_degradado_17-7" x1="163.08" y1="119.47" x2="163.07" y2="119.48" xlink:href="#Nueva_muestra_de_degradado_17"/><linearGradient id="Nueva_muestra_de_degradado_17-8" x1="126.12" y1="90.21" x2="125.14" y2="92.87" xlink:href="#Nueva_muestra_de_degradado_17"/><linearGradient id="Nueva_muestra_de_degradado_17-9" x1="124.42" y1="87.87" x2="123.27" y2="90.97" xlink:href="#Nueva_muestra_de_degradado_17"/><linearGradient id="Nueva_muestra_de_degradado_17-10" x1="122.18" y1="86.13" x2="120.99" y2="89.34" xlink:href="#Nueva_muestra_de_degradado_17"/><linearGradient id="Nueva_muestra_de_degradado_17-11" x1="121.78" y1="94.82" x2="121.69" y2="95.06" xlink:href="#Nueva_muestra_de_degradado_17"/><linearGradient id="Nueva_muestra_de_degradado_17-12" x1="119" y1="83.74" x2="117.72" y2="87.18" xlink:href="#Nueva_muestra_de_degradado_17"/><linearGradient id="Nueva_muestra_de_degradado_17-13" x1="119.42" y1="93.17" x2="119.19" y2="93.79" xlink:href="#Nueva_muestra_de_degradado_17"/><linearGradient id="Nueva_muestra_de_degradado_17-14" x1="116.69" y1="91.49" x2="116.42" y2="92.22" xlink:href="#Nueva_muestra_de_degradado_17"/><linearGradient id="Nueva_muestra_de_degradado_17-15" x1="56.69" y1="64.75" x2="58.82" y2="68.93" xlink:href="#Nueva_muestra_de_degradado_17"/><linearGradient id="Nueva_muestra_de_degradado_11-2" x1="227.36" y1="103.45" x2="225.91" y2="104.28" xlink:href="#Nueva_muestra_de_degradado_11"/><linearGradient id="Nueva_muestra_de_degradado_11-3" x1="270.75" y1="70.31" x2="221.59" y2="98.37" xlink:href="#Nueva_muestra_de_degradado_11"/><linearGradient id="Nueva_muestra_de_degradado_17-16" x1="195.68" y1="70.88" x2="161.57" y2="84.72" xlink:href="#Nueva_muestra_de_degradado_17"/><linearGradient id="Nueva_muestra_de_degradado_11-4" x1="23.7" y1="99.32" x2="60.17" y2="82.67" xlink:href="#Nueva_muestra_de_degradado_11"/><linearGradient id="Nueva_muestra_de_degradado_11-5" x1="38.7" y1="80.61" x2="47.04" y2="74.67" xlink:href="#Nueva_muestra_de_degradado_11"/><linearGradient id="Nueva_muestra_de_degradado_11-6" x1="49.27" y1="95.47" x2="57.62" y2="89.53" xlink:href="#Nueva_muestra_de_degradado_11"/><linearGradient id="Nueva_muestra_de_degradado_11-7" x1="45.12" y1="89.69" x2="53.52" y2="83.71" xlink:href="#Nueva_muestra_de_degradado_11"/><linearGradient id="Nueva_muestra_de_degradado_11-8" x1="47.45" y1="92.91" x2="55.79" y2="86.97" xlink:href="#Nueva_muestra_de_degradado_11"/><linearGradient id="Nueva_muestra_de_degradado_11-9" x1="42.08" y1="85.36" x2="50.42" y2="79.42" xlink:href="#Nueva_muestra_de_degradado_11"/><linearGradient id="Nueva_muestra_de_degradado_11-10" x1="40.48" y1="83.12" x2="48.83" y2="77.18" xlink:href="#Nueva_muestra_de_degradado_11"/><linearGradient id="Nueva_muestra_de_degradado_11-11" x1="39.09" y1="81.16" x2="47.43" y2="75.22" xlink:href="#Nueva_muestra_de_degradado_11"/><linearGradient id="Nueva_muestra_de_degradado_11-12" x1="39.76" y1="82.11" x2="48.11" y2="76.17" xlink:href="#Nueva_muestra_de_degradado_11"/><linearGradient id="Nueva_muestra_de_degradado_11-13" x1="44.12" y1="88.23" x2="52.46" y2="82.29" xlink:href="#Nueva_muestra_de_degradado_11"/><linearGradient id="Nueva_muestra_de_degradado_17-17" x1="48.74" y1="71.45" x2="49.63" y2="73.21" xlink:href="#Nueva_muestra_de_degradado_17"/><linearGradient id="Nueva_muestra_de_degradado_17-18" x1="46.75" y1="73.24" x2="47.23" y2="74.19" xlink:href="#Nueva_muestra_de_degradado_17"/><linearGradient id="Nueva_muestra_de_degradado_17-19" x1="54.56" y1="73.38" x2="54.59" y2="73.45" xlink:href="#Nueva_muestra_de_degradado_17"/><linearGradient id="Nueva_muestra_de_degradado_17-20" x1="37.54" y1="75.12" x2="37.97" y2="75.96" xlink:href="#Nueva_muestra_de_degradado_17"/><linearGradient id="Nueva_muestra_de_degradado_17-21" x1="39.99" y1="73.81" x2="40.36" y2="74.56" xlink:href="#Nueva_muestra_de_degradado_17"/><linearGradient id="Nueva_muestra_de_degradado_17-22" x1="32.75" y1="67.49" x2="36.3" y2="74.45" xlink:href="#Nueva_muestra_de_degradado_17"/><linearGradient id="Nueva_muestra_de_degradado_17-23" x1="106.09" y1="82.36" x2="106.25" y2="82.67" xlink:href="#Nueva_muestra_de_degradado_17"/><linearGradient id="Nueva_muestra_de_degradado_17-24" x1="111.86" y1="87.29" x2="111.86" y2="87.31" xlink:href="#Nueva_muestra_de_degradado_17"/><linearGradient id="Nueva_muestra_de_degradado_17-25" x1="108.1" y1="83.11" x2="108.58" y2="84.04" xlink:href="#Nueva_muestra_de_degradado_17"/><linearGradient id="Nueva_muestra_de_degradado_17-26" x1="101.15" y1="77.42" x2="101.33" y2="77.77" xlink:href="#Nueva_muestra_de_degradado_17"/><linearGradient id="Nueva_muestra_de_degradado_17-27" x1="87.21" y1="56.97" x2="95.2" y2="72.67" xlink:href="#Nueva_muestra_de_degradado_17"/><linearGradient id="Nueva_muestra_de_degradado_17-28" x1="98.49" y1="76.54" x2="98.73" y2="77.02" xlink:href="#Nueva_muestra_de_degradado_17"/><linearGradient id="Nueva_muestra_de_degradado_17-29" x1="144.97" y1="109.83" x2="145.44" y2="110.77" xlink:href="#Nueva_muestra_de_degradado_17"/><linearGradient id="Nueva_muestra_de_degradado_17-30" x1="142.96" y1="109.09" x2="143.12" y2="109.4" xlink:href="#Nueva_muestra_de_degradado_17"/><linearGradient id="Nueva_muestra_de_degradado_17-31" x1="148.72" y1="114.02" x2="148.73" y2="114.03" xlink:href="#Nueva_muestra_de_degradado_17"/><linearGradient id="Nueva_muestra_de_degradado_17-32" x1="135.36" y1="103.27" x2="135.6" y2="103.75" xlink:href="#Nueva_muestra_de_degradado_17"/><linearGradient id="Nueva_muestra_de_degradado_17-33" x1="124.07" y1="83.7" x2="132.07" y2="99.39" xlink:href="#Nueva_muestra_de_degradado_17"/><linearGradient id="Nueva_muestra_de_degradado_17-34" x1="138.02" y1="104.15" x2="138.2" y2="104.5" xlink:href="#Nueva_muestra_de_degradado_17"/><linearGradient id="Nueva_muestra_de_degradado_17-35" x1="17.63" y1="81.6" x2="58.1" y2="81.6" xlink:href="#Nueva_muestra_de_degradado_17"/><linearGradient id="Nueva_muestra_de_degradado_17-36" x1="26.55" y1="88.9" x2="35.46" y2="87.67" xlink:href="#Nueva_muestra_de_degradado_17"/><linearGradient id="Nueva_muestra_de_degradado_11-14" x1="14.33" y1="100.96" x2="23.25" y2="100.96" xlink:href="#Nueva_muestra_de_degradado_11"/><linearGradient id="Nueva_muestra_de_degradado_41" x1="12.33" y1="104.84" x2="25.08" y2="99.02" gradientUnits="userSpaceOnUse"><stop offset="0" stop-color="#701b0a"/><stop offset="1" stop-color="#420200"/></linearGradient><linearGradient id="Nueva_muestra_de_degradado_19" x1="14" y1="97.39" x2="14.17" y2="97.31" gradientUnits="userSpaceOnUse"><stop offset="0" stop-color="#ddd4d4"/><stop offset="1" stop-color="#afaaa1"/></linearGradient><linearGradient id="Nueva_muestra_de_degradado_19-2" x1="6.32" y1="103.24" x2="22.64" y2="95.79" xlink:href="#Nueva_muestra_de_degradado_19"/><linearGradient id="Nueva_muestra_de_degradado_19-3" x1="14.97" y1="97.72" x2="15.07" y2="97.67" xlink:href="#Nueva_muestra_de_degradado_19"/><linearGradient id="Nueva_muestra_de_degradado_19-4" x1="14.34" y1="106.68" x2="16.11" y2="105.87" xlink:href="#Nueva_muestra_de_degradado_19"/><linearGradient id="Nueva_muestra_de_degradado_19-5" x1="15.29" y1="106.17" x2="16.36" y2="105.68" xlink:href="#Nueva_muestra_de_degradado_19"/><linearGradient id="Nueva_muestra_de_degradado_19-6" x1="15.49" y1="105.34" x2="16.76" y2="104.76" xlink:href="#Nueva_muestra_de_degradado_19"/><linearGradient id="Nueva_muestra_de_degradado_19-7" x1="15.38" y1="104.15" x2="17.93" y2="102.98" xlink:href="#Nueva_muestra_de_degradado_19"/><linearGradient id="Nueva_muestra_de_degradado_19-8" x1="16.8" y1="103.79" x2="18.37" y2="103.07" xlink:href="#Nueva_muestra_de_degradado_19"/><linearGradient id="Nueva_muestra_de_degradado_19-9" x1="17.3" y1="103.17" x2="18.8" y2="102.49" xlink:href="#Nueva_muestra_de_degradado_19"/><linearGradient id="Nueva_muestra_de_degradado_19-10" x1="17.74" y1="102.64" x2="19.44" y2="101.87" xlink:href="#Nueva_muestra_de_degradado_19"/><linearGradient id="Nueva_muestra_de_degradado_19-11" x1="18" y1="101.78" x2="19.72" y2="100.99" xlink:href="#Nueva_muestra_de_degradado_19"/><linearGradient id="Nueva_muestra_de_degradado_19-12" x1="18.46" y1="100.88" x2="20.4" y2="99.99" xlink:href="#Nueva_muestra_de_degradado_19"/><linearGradient id="Nueva_muestra_de_degradado_19-13" x1="18.95" y1="99.76" x2="20.33" y2="99.14" xlink:href="#Nueva_muestra_de_degradado_19"/><linearGradient id="Nueva_muestra_de_degradado_19-14" x1="19.15" y1="98.92" x2="20.78" y2="98.18" xlink:href="#Nueva_muestra_de_degradado_19"/><linearGradient id="Nueva_muestra_de_degradado_11-15" x1="16.64" y1="98.15" x2="24.24" y2="94.69" xlink:href="#Nueva_muestra_de_degradado_11"/><linearGradient id="Nueva_muestra_de_degradado_41-2" x1="18.9" y1="97.3" x2="22.22" y2="95.79" xlink:href="#Nueva_muestra_de_degradado_41"/><linearGradient id="Nueva_muestra_de_degradado_17-37" x1="30.19" y1="91.13" x2="14.16" y2="106.17" xlink:href="#Nueva_muestra_de_degradado_17"/><linearGradient id="Nueva_muestra_de_degradado_11-16" x1="13.97" y1="83.61" x2="33.13" y2="83.61" xlink:href="#Nueva_muestra_de_degradado_11"/><linearGradient id="Nueva_muestra_de_degradado_17-38" x1="30.69" y1="83.47" x2="28.35" y2="85.17" xlink:href="#Nueva_muestra_de_degradado_17"/><linearGradient id="Nueva_muestra_de_degradado_17-39" x1="0.21" y1="98.19" x2="28.47" y2="85.29" xlink:href="#Nueva_muestra_de_degradado_17"/><linearGradient id="Nueva_muestra_de_degradado_17-40" x1="25.7" y1="99.06" x2="35.27" y2="97.27" xlink:href="#Nueva_muestra_de_degradado_17"/><linearGradient id="Nueva_muestra_de_degradado_17-41" x1="11.55" y1="96.72" x2="12.77" y2="96.49" xlink:href="#Nueva_muestra_de_degradado_17"/><linearGradient id="Nueva_muestra_de_degradado_17-42" x1="13.7" y1="94.84" x2="15.23" y2="94.55" xlink:href="#Nueva_muestra_de_degradado_17"/><linearGradient id="Nueva_muestra_de_degradado_17-43" x1="23.61" y1="102.05" x2="27.47" y2="101.32" xlink:href="#Nueva_muestra_de_degradado_17"/><linearGradient id="Nueva_muestra_de_degradado_17-44" x1="14.91" y1="92.56" x2="15.54" y2="90.86" xlink:href="#Nueva_muestra_de_degradado_17"/><linearGradient id="Nueva_muestra_de_degradado_14" x1="17.32" y1="91.99" x2="18.59" y2="90.67" gradientUnits="userSpaceOnUse"><stop offset="0" stop-color="#ffb806"/><stop offset="1" stop-color="#d38616"/></linearGradient><linearGradient id="Nueva_muestra_de_degradado_14-2" x1="19.82" y1="89.79" x2="19.88" y2="89.73" xlink:href="#Nueva_muestra_de_degradado_14"/><linearGradient id="Nueva_muestra_de_degradado_17-45" x1="19.78" y1="91.98" x2="19.02" y2="92.43" xlink:href="#Nueva_muestra_de_degradado_17"/><linearGradient id="Nueva_muestra_de_degradado_17-46" x1="87.56" y1="-14.6" x2="87.28" y2="-5.72" xlink:href="#Nueva_muestra_de_degradado_17"/><linearGradient id="Nueva_muestra_de_degradado_11-17" x1="182.47" y1="73.69" x2="181.64" y2="73.57" xlink:href="#Nueva_muestra_de_degradado_11"/><linearGradient id="Nueva_muestra_de_degradado_11-18" x1="177.11" y1="53.91" x2="141.74" y2="48.52" xlink:href="#Nueva_muestra_de_degradado_11"/><linearGradient id="Nueva_muestra_de_degradado_11-19" x1="118.47" y1="41.55" x2="118.49" y2="41.52" xlink:href="#Nueva_muestra_de_degradado_11"/><linearGradient id="Nueva_muestra_de_degradado_11-20" x1="84.45" y1="39.84" x2="105.51" y2="17.97" xlink:href="#Nueva_muestra_de_degradado_11"/><linearGradient id="Nueva_muestra_de_degradado_17-47" x1="180.77" y1="56.41" x2="84.5" y2="41.76" xlink:href="#Nueva_muestra_de_degradado_17"/><linearGradient id="Nueva_muestra_de_degradado_17-48" x1="150" y1="37.82" x2="149.02" y2="37.68" xlink:href="#Nueva_muestra_de_degradado_17"/><linearGradient id="Nueva_muestra_de_degradado_17-49" x1="180.81" y1="56.09" x2="84.55" y2="41.44" xlink:href="#Nueva_muestra_de_degradado_17"/><linearGradient id="Nueva_muestra_de_degradado_17-50" x1="159.15" y1="101.96" x2="158.81" y2="101.9" xlink:href="#Nueva_muestra_de_degradado_17"/><linearGradient id="Nueva_muestra_de_degradado_17-51" x1="177.71" y1="76.51" x2="81.44" y2="61.85" xlink:href="#Nueva_muestra_de_degradado_17"/><linearGradient id="Nueva_muestra_de_degradado_17-52" x1="25.95" y1="76.44" x2="42.26" y2="99.22" xlink:href="#Nueva_muestra_de_degradado_17"/><linearGradient id="Nueva_muestra_de_degradado_17-53" x1="125.57" y1="134.06" x2="128.12" y2="127.19" xlink:href="#Nueva_muestra_de_degradado_17"/><linearGradient id="Nueva_muestra_de_degradado_17-54" x1="135.48" y1="121.28" x2="144.89" y2="95.94" xlink:href="#Nueva_muestra_de_degradado_17"/><linearGradient id="Nueva_muestra_de_degradado_17-55" x1="64.56" y1="73.08" x2="82.38" y2="82.78" xlink:href="#Nueva_muestra_de_degradado_17"/><linearGradient id="Nueva_muestra_de_degradado_17-56" x1="115.67" y1="71.73" x2="90.82" y2="112.7" xlink:href="#Nueva_muestra_de_degradado_17"/><linearGradient id="Nueva_muestra_de_degradado_17-57" x1="94.94" y1="103.11" x2="104.72" y2="76.8" xlink:href="#Nueva_muestra_de_degradado_17"/><linearGradient id="Nueva_muestra_de_degradado_17-58" x1="85.15" y1="80.27" x2="93.75" y2="106.29" xlink:href="#Nueva_muestra_de_degradado_17"/><linearGradient id="Nueva_muestra_de_degradado_17-59" x1="108.93" y1="115.55" x2="109.61" y2="117.61" xlink:href="#Nueva_muestra_de_degradado_17"/><linearGradient id="Nueva_muestra_de_degradado_17-60" x1="135.78" y1="131.7" x2="143.87" y2="144.4" xlink:href="#Nueva_muestra_de_degradado_17"/><linearGradient id="Nueva_muestra_de_degradado_17-61" x1="139.84" y1="129.12" x2="147.93" y2="141.82" xlink:href="#Nueva_muestra_de_degradado_17"/><linearGradient id="Nueva_muestra_de_degradado_17-62" x1="56.53" y1="99.25" x2="39.54" y2="96.67" xlink:href="#Nueva_muestra_de_degradado_17"/><linearGradient id="Nueva_muestra_de_degradado_17-63" x1="27.97" y1="119.14" x2="23.9" y2="118.52" xlink:href="#Nueva_muestra_de_degradado_17"/><linearGradient id="Nueva_muestra_de_degradado_17-64" x1="104.33" y1="82.03" x2="118.19" y2="106.95" xlink:href="#Nueva_muestra_de_degradado_17"/><linearGradient id="Nueva_muestra_de_degradado_17-65" x1="104.05" y1="82.19" x2="117.91" y2="107.11" xlink:href="#Nueva_muestra_de_degradado_17"/><linearGradient id="Nueva_muestra_de_degradado_17-66" x1="100.14" y1="84.37" x2="114" y2="109.29" xlink:href="#Nueva_muestra_de_degradado_17"/><linearGradient id="Nueva_muestra_de_degradado_17-67" x1="101.01" y1="83.88" x2="114.87" y2="108.8" xlink:href="#Nueva_muestra_de_degradado_17"/><linearGradient id="Nueva_muestra_de_degradado_17-68" x1="102.48" y1="83.07" x2="116.34" y2="107.99" xlink:href="#Nueva_muestra_de_degradado_17"/><linearGradient id="Nueva_muestra_de_degradado_17-69" x1="107.53" y1="80.26" x2="121.39" y2="105.18" xlink:href="#Nueva_muestra_de_degradado_17"/><linearGradient id="Nueva_muestra_de_degradado_17-70" x1="103.07" y1="83.21" x2="116.62" y2="107.58" xlink:href="#Nueva_muestra_de_degradado_17"/><linearGradient id="Nueva_muestra_de_degradado_17-71" x1="108.28" y1="84.75" x2="120.2" y2="106.18" xlink:href="#Nueva_muestra_de_degradado_17"/><linearGradient id="Nueva_muestra_de_degradado_17-72" x1="97.53" y1="85.79" x2="109.45" y2="107.22" xlink:href="#Nueva_muestra_de_degradado_17"/><linearGradient id="Nueva_muestra_de_degradado_17-73" x1="98.58" y1="85.73" x2="110.5" y2="107.16" xlink:href="#Nueva_muestra_de_degradado_17"/><linearGradient id="Nueva_muestra_de_degradado_17-74" x1="102.11" y1="85.4" x2="114.03" y2="106.83" xlink:href="#Nueva_muestra_de_degradado_17"/></defs><title>Asset 2</title><g id="Layer_2" data-name="Layer 2"><g id="Capa_1" data-name="Capa 1"><path class="cls-1" d="M18.84,130.92c.35-.09,2.93-1.4,2.93-1.4a4.78,4.78,0,0,0,1.17.62c.64.22,2-.84,2-.84,1.32.36,2.64,2.52,2.64,2.52.16-2.46-1.22-4.74-2.3-5.12s-1.87.77-3.19.48a23.43,23.43,0,0,0-4.89.14l-2.49,1.53a2.24,2.24,0,0,0,.46,2.31C16.16,132.29,18.5,131,18.84,130.92Z"/><path class="cls-1" d="M49.25,130c2.21,1.1,3.41.14,3.41.14a7.46,7.46,0,0,0,3.49,1.37c1.87.13,1.44-7,1.78-7.51s12.77-11.34,14.13-18-6.21-28.67-6.21-28.67l-.51,23.62s-9.62,18.3-11,18.71-.85,2-.85,2S47,128.87,49.25,130Z"/><path class="cls-1" d="M87.34,110.56a14.76,14.76,0,0,1-4,2.3c0-.68-.08-1.32-.1-1.9-.14-4.24-3.15-20.63-7.47-24.85s-3-6.65-5-7.49l-.48-.26s-5.77-7.61-14.53-5.26A7.45,7.45,0,0,0,52.26,75h0l-.23.25-.07.09-.15.18-.08.1-.12.17a1,1,0,0,0-.08.11l-.11.17a.41.41,0,0,1-.07.11l-.1.18-.06.11a1.86,1.86,0,0,0-.1.2.47.47,0,0,0-.05.1,2.14,2.14,0,0,0-.1.22l0,.09a10.76,10.76,0,0,0-.57,5.34v0c0,.18.05.37.08.55v.06l.09.54,0,.07c0,.18.06.35.1.52l0,.08.12.5,0,.07c0,.17.09.34.14.5v.06l.15.5v0c.11.34.23.66.34,1l0,0c0,.15.11.29.17.43l0,0a3.52,3.52,0,0,0,.17.39l0,.06.17.36,0,0c.05.12.11.23.16.33l0,.05c.06.1.11.2.17.29l0,0c0,.1.11.19.16.27v0l.17.24C54.7,92.18,63.86,109.63,67,112.1s6.14,3.07,8.27,6.25a16.16,16.16,0,0,0,5.49,4.42c1.8,1.83,3.76,3.29,5.43,3.32h.25l.16,0,.06,0,.23-.07h0l.23-.1.08,0,.19-.09.07,0,.27-.16h0l.27-.17.08-.06.23-.15.08-.06c.1-.08.21-.15.31-.24h0l.3-.24.1-.07.25-.22.09-.07.35-.3,0,0q.16-.14.33-.3l.1-.08.29-.27.08-.08.38-.36,0,0,.36-.35.1-.1.31-.31.08-.08.41-.42,0,0,.39-.4.09-.09.35-.37.07-.08.44-.46h0l.42-.46.09-.09.38-.42.06,0,.89-1,.08-.09.42-.47,0,0,.94-1.07,0,0c2.46-2.8,5-5.78,7.11-8.26v0l.86-1,.08-.1.24-.27.1-.11.5-.56c2-2.27,3.55-3.78,4.11-3.75a4.72,4.72,0,0,1,2.12.65c2.45,4.66,6.25,11.91,7.3,14a13.17,13.17,0,0,1,1,7s-1.88-1.59-7-1.09c0,0-2.24-.51-2.55,1a.64.64,0,0,1-.06.16,6.89,6.89,0,0,0-2.5,0c-1.46.67-1.41,1-1.41,1a20.48,20.48,0,0,0-7.12,1.57,8.13,8.13,0,0,0-3.86,4.2s5.54-2.94,9-3c.46,0,.86,0,1.21,0-1.63,1.3-3,2.72-3.07,4.12,0,0,7.06-4.2,9.47-4a3.77,3.77,0,0,0,1,0,27.42,27.42,0,0,0,4.37,1,10.63,10.63,0,0,0,4.32-.62,11.5,11.5,0,0,0,2.76.25,17.2,17.2,0,0,0,3.44-.58,17.37,17.37,0,0,1-.37-5.64c.41-2.23-10.69-18-9.34-20.93s5.1.22,5.1.22-3.6-10.25-8.63-8.51A34.42,34.42,0,0,0,110.76,95a2.36,2.36,0,0,0-3.48-1.59c-1,.67.29,4.31.29,4.31L95.94,108.43A10.1,10.1,0,0,0,87.34,110.56Z"/><path class="cls-2" d="M10.25,70.23c-.85,1.42.79,3.69,2.42,3.89s5.09-1.39,5.09-1.39C15,61.57,34.68,51.59,46.7,60.52s3.69,21.34,3.69,21.34a15,15,0,0,0,8.49-.46c2.77-.91,5.64-3.8,7.4-6.49l9.22.24,7.55.2c-1.62-.89-3.9-2-6.25-3.37l-.17-.09-.07,0-.17-.1-.07,0-.16-.09h0l-.35-.2-.08,0-.15-.09-.1,0-.14-.09-.1,0-.51-.31-.08,0-.16-.09-.08,0-.15-.1-.08,0-.29-.18-.08,0-.14-.09-.09-.06L73.41,70l-.08-.06-.15-.09,0,0-.32-.21-.08,0-.14-.1-.08,0-.15-.1-.07-.05-.49-.34-.07-.05-.14-.1-.07,0-.15-.11,0,0L71,68.32h0l-.14-.11-.06,0L70.66,68l-.06,0-.47-.37,0,0L70,67.49l0,0-.14-.11,0,0-.44-.39,0,0-.13-.12,0,0-.55-.54,0,0L68.42,66l0,0c-.17-.18-.33-.37-.48-.55l0,0a1.13,1.13,0,0,1-.1-.13h0l-.31-.42h0l-.09-.14h0a5.57,5.57,0,0,1-.33-.57h0S67,64,67,64h0a4.12,4.12,0,0,1-.23-.58h0a5,5,0,0,1-.15-.73h0c-.27-2.71,2.79-5.33,12.11-7.37h0c.83-.19,1.72-.36,2.65-.54l1.18-.21c19.38-3.36,53.79.19,67.66,12q.36.83.75,1.68c3,6.56,4.21,16.13,4.31,16.91l.53-.73c1.72-2.39-3.1-29.28-10-35a60.17,60.17,0,0,0-9.46-5.82C133.35,40.26,130.81,37,130,35c-1.89-4.85,17.48-1.67,35.84,13.39,6.64,6.61,11.68,12.06,11.68,12.06-1.88-4.35-12.17-15.66-22-25.19-3.56-5.48-5-10.31-.32-11.7,6.29-1.9,15.51,1.41,23,5.11,11.07,7,18.34,12.73,18.34,12.73C178.28,20,118.76-13.41,68.6,5.68c-.94.36-1.87.74-2.78,1.11-1.16-2.38,1.58-5.4,1.58-5.4a9.87,9.87,0,0,0-6.2,7.47c-43,20.65-45.55,62.87-45.55,62.87s-2.67,1.53-4.12.35.4-3.22.4-3.22S11.09,68.81,10.25,70.23Z"/><path class="cls-3" d="M155.26,85.17c-.91,1.27,0,.06,0,.06Z"/><path class="cls-4" d="M75,118.08A21.5,21.5,0,0,0,84.56,117c4.37-1.77,7.1-1.36,7.1-1.36s6-4,4-5.6-15.43-8.19-19.53-8.6L55.75,110.3s4.91,6.83,10,7.92A20.89,20.89,0,0,0,75,118.08Z"/><path class="cls-1" d="M4.58,131.61a7.11,7.11,0,0,0,2.32-.08,6.39,6.39,0,0,0,1.87-.78s2.7.56,3.21.11,2.22-.41,2.22-.41a28,28,0,0,0,4.27-.79c1.26-.45,2.32-2.24,2-2.65a6.63,6.63,0,0,0-.85-.83s-3.08.15-3.59.71a11.48,11.48,0,0,1-3.38.71,3.59,3.59,0,0,0-2.12.19c-.3.23-.58.15-.92.15a4.94,4.94,0,0,0-2.56.49c-.85.56-3.89,1-5.08,1.68A3.45,3.45,0,0,0,0,133.37,10.08,10.08,0,0,1,3.35,132C4.54,132,4.58,131.61,4.58,131.61Z"/><path class="cls-1" d="M9.79,133a4.5,4.5,0,0,0,1.82-.07,4.64,4.64,0,0,0,1.46-.77s2.11.55,2.51.11,1.74-.4,1.74-.4a17.71,17.71,0,0,0,3.34-.76c1-.44,1.81-2.19,1.54-2.59a5.87,5.87,0,0,0-.66-.8s-2.41.15-2.81.69a7.4,7.4,0,0,1-2.64.69,2.23,2.23,0,0,0-1.65.19c-.24.22-.46.14-.73.14a3.18,3.18,0,0,0-2,.48c-.66.54-3,1-4,1.64a3.52,3.52,0,0,0-1.53,3.17,7.22,7.22,0,0,1,2.62-1.32C9.76,133.33,9.79,133,9.79,133Z"/><path class="cls-5" d="M16.28,128.17c.55.74.07.22,1.92.89s2.73,2.32,3.68.53,1.16-4.19,2.6-5.31.88-4.12.88-4.12l-2.79-2.54c-.28.15-5.67,8-7,9.12S15.74,127.42,16.28,128.17Z"/><path class="cls-6" d="M214.2,116.58l-.1,0,.07,0Z"/><path class="cls-7" d="M219.86,112.18l-.77,2.46s-2.82-1.18-3.13-1.18-1.56,2.69-1.76,3.12l7.91-2.4Z"/><path class="cls-8" d="M152.16,113.87l-3.43,9.57,11.2,2.46,24.44-.27,29.73-9a22.22,22.22,0,0,0-3.31-1c-.71,0-1.89,1.94-1.89,1.94l-2.2-1L205,118.73l-2.82-1.28-.77,2.36L199,118.32l-1.07,2.05-2.15-1.48-1.69,2.35-2.25-1.64-2.31,1.8-1.74-1.64-2.46,2.35-1.74-2.35L181,121.7l-1.12-2-2,1.58L177,119.4l-1.9,1.74-.61-2-1.69,1.69-.1-2.35-2.36,2.4.21-2.91c-2.77-.16-2.21,2.71-2.46,2.4s.25-3.22.25-3.22c-1.33,0-2.61,1.89-2.61,1.89l.31-2.3a3,3,0,0,0-3,2.73v0l.36-4.32-1.9,1.38.41-2.46L159,116l.76-3.12-4,2.66a34.68,34.68,0,0,1,1.48-3.74C157.49,111.62,152.16,113.87,152.16,113.87Z"/><path class="cls-9" d="M163.07,119.47v0Z"/><path class="cls-10" d="M127.77,91.87c-2.71-.45-4.78,2.42-5.74,3.28l1.78,1.09Z"/><path class="cls-11" d="M126.2,89.75c-3.14,0-5.28,2.62-6.45,4l1.68,1C121.6,92.73,126.2,89.75,126.2,89.75Z"/><path class="cls-12" d="M124.5,88.25A8.41,8.41,0,0,0,116.89,92l2,1.2C119.78,90.8,124.5,88.25,124.5,88.25Z"/><path class="cls-13" d="M122,95.15l-.6-.37s0,.11,0,.16C121.44,95.51,121.65,95.48,122,95.15Z"/><path class="cls-14" d="M122.17,86.27a13,13,0,0,0-9.42,3.21l3.5,2.14C117.21,88.66,122.17,86.27,122.17,86.27Z"/><path class="cls-15" d="M119.75,93.75l-.9-.54a2.17,2.17,0,0,0-.16.77C118.69,95,119,94.59,119.75,93.75Z"/><path class="cls-16" d="M116.1,92.35c-.12,1.41,0,.79.79-.34l-.64-.39A3.06,3.06,0,0,0,116.1,92.35Z"/><polygon class="cls-17" points="55.75 72.68 57.38 73.16 62.78 73.64 61.75 64.9 59.36 70.91 59.57 65.11 55.75 72.68"/><path class="cls-18" d="M226.14,103.85c-.29.51-.46.85-.46.85C225.85,104.42,226,104.14,226.14,103.85Z"/><path class="cls-19" d="M219.87,114.19c-5.53,1.85-3.82,4.3-1.77,3.83s11-5.4,11-5.4l6.62-7.85c0-.2-2-12.29-2.11-13.24s-6.08-6.15-6.08-6.15l-3.89-1.77-8.54-.07s15.65,10.75,11,20.31c1-1.71,3.36-5.36,5.41-4.68C234.21,100.06,225.4,112.35,219.87,114.19Z"/><path class="cls-20" d="M186.89,121.65c-31.26,3.11-72.88-38.24-94.36-48.9s-51.12.83-51.29,1.33l5,7.5c-6.49,2.33,3.22,23.64,3.22,23.64,9,.17,13.71,11.32,18.71,12.16s28-3.67,28-3.67S137.65,127.37,163,129.2s78.86-6.74,74.37-29.72-22.8-15.91-22.8-15.91c3.33-.83,12.37-.37,17,6.79S237.9,116.58,186.89,121.65Z"/><path class="cls-21" d="M45.78,94.79s1.41,8.89,5,8.37c0,0,5-12.36,3.7-16.43s-13.1-7.4-15.17-7S31,79,27.94,81.32s-3,2.74-4.14,3.56L23.36,91c.07.22,3-.52,3.18-.74s1.7.07,2.66-1,2.22,0,3.26-.88,1.48.14,2.89-.74.59.22,2.73-.23,2.45.89,4.81.89c0,0,.6,2.07,1.78,2.52C44.67,90.8,44.3,93.39,45.78,94.79Z"/><path class="cls-22" d="M26.6,90.24c.23-.09.84-.06,1.48-.27l-1.16-2.78Z"/><path class="cls-23" d="M44.34,90.62a1.74,1.74,0,0,0,.33.18s-.37,2.59,1.11,4c0,0,1.41,8.89,5,8.37,0,0,.3-.73.73-1.89a3.32,3.32,0,0,1-1.87-1.43c-1.64-2.25,3.64-6.25,3.64-6.25l-4.89,1.93C47.71,93.14,50.19,91,51.56,90c-1.38.92-4,2.65-4.16,2.76C45.34,94,48.74,87.16,49,86.94Z"/><path class="cls-24" d="M49,86.94h0Z"/><path class="cls-25" d="M52.42,89.39s-.36.21-.86.57Z"/><path class="cls-26" d="M40.79,84.63c-1-.15-1.38,1.24-1.56,2.69a7.56,7.56,0,0,1,1.89.65C41.6,86.62,42,84.82,40.79,84.63Z"/><path class="cls-27" d="M36.7,83.86l-1.05,3.57c.76-.4.63,0,1.42.07A24.27,24.27,0,0,0,36.7,83.86Z"/><path class="cls-28" d="M30.93,88.72a4.71,4.71,0,0,0-1.55-2.4l.21,2.6A2.29,2.29,0,0,1,30.93,88.72Z"/><path class="cls-29" d="M34.29,88a5.93,5.93,0,0,0-1.59-2.86l-.27,3.24,0,0C33.18,87.74,33.62,88.05,34.29,88Z"/><path class="cls-30" d="M45.76,85.66c-.32,0-2.25,1.43-3.68,2.56a5,5,0,0,0,.81.06,6.15,6.15,0,0,0,.87,1.77C45.07,88.69,46.18,85.7,45.76,85.66Z"/><path class="cls-31" d="M49.87,75.59c-.13.09,2.13.36.58-2.13a4.64,4.64,0,0,1-.62-1.8A36.21,36.21,0,0,0,49.87,75.59Z"/><path class="cls-32" d="M47.48,73.29c-.2,1.24-.25,2.15-.27,2.22S48,76.12,47.48,73.29Z"/><path class="cls-33" d="M54.62,73.38c-.07.24,0,.24,0,0Z"/><path class="cls-34" d="M38,77s1.42.49.09-1.64a.61.61,0,0,1-.07-.14C38,76.29,38,77,38,77Z"/><path class="cls-35" d="M40.51,75.59s.72.28-.09-1.68A12.1,12.1,0,0,0,40.51,75.59Z"/><path class="cls-36" d="M18.63,88.2,52.45,77.41c.13-.09,4.48-2.57,4.08-4.57s.75-5.63.75-5.63C54,69,54.75,72.89,54.62,73.38c0,.24-.07.24,0,0a4.14,4.14,0,0,0-.27-1.47c-.48-1.46.14-6.26.14-6.26C51.11,69.2,53.24,76.53,52.14,73a10.44,10.44,0,0,1,.75-7.1c-2.19,1-2.88,3.5-3.06,5.74a4.64,4.64,0,0,0,.62,1.8c1.55,2.49-.71,2.22-.58,2.13a36.21,36.21,0,0,1,0-3.93,14.42,14.42,0,0,1,.53-5.43c-1.75,1.64-2.53,4.87-2.88,7.06.52,2.83-.31,2.38-.27,2.22s.07-1,.27-2.22l-.09-.49a11.81,11.81,0,0,1,1.11-6.88c-3.78,1.6-3.78,8.39-3.69,9.14s0,0-.31-1.91,1-5.19,1-5.19c-3.86,2.31-2.79,8-3.1,5.59A20.07,20.07,0,0,1,43,67.7c-2.12,1.36-2.51,4.33-2.53,6.21.81,2,.09,1.68.09,1.68a12.1,12.1,0,0,1-.09-1.68l-.13-.31c-1-2.31.88-6.39.88-6.39-2.47,1.36-3,5.59-3.13,8a.61.61,0,0,0,.07.14C39.44,77.5,38,77,38,77s0-.72,0-1.78c-1.19-2.19.43-6.87.43-6.87C34.61,71,36.52,78,35.58,75.28s1.2-6.34,1.2-6.34c-4,2.08-2.93,9.94-3.59,7.5s.93-6.61.93-6.61c-3.86,3.19-2.22,9.67-3.2,7.72s.71-5.46.71-5.46c-4.3,2.57-2.13,8.65-3.24,6.61s.67-5.1.67-5.1c-4.48,2.57-1.82,7.59-2.93,6.56s.09-4.57.09-4.57C23,78.26,24.8,82.83,24,81.81s-.31-5-.31-5c-2.71,3.19-1.29,8.92-2,7.1s.45-6.08.45-6.08c-2.89,2.48-1.73,8.92-1.73,9.18s0,.54-.49-1.15.4-7,.4-7C17.61,82.25,18.63,88.2,18.63,88.2Z"/><path class="cls-37" d="M107.17,82c-1,.7-1.76,1.27-1.82,1.3S105.44,84.25,107.17,82Z"/><path class="cls-38" d="M111.94,87.26c-.22.11-.19.15,0,0Z"/><path class="cls-39" d="M107.09,85.27c-.15,0,1.18,1.8,2-1a4.61,4.61,0,0,1,.91-1.68A36.12,36.12,0,0,0,107.09,85.27Z"/><path class="cls-40" d="M100.75,78.38s.28.72,1.18-1.2A11.74,11.74,0,0,0,100.75,78.38Z"/><path class="cls-41" d="M84.62,65.78c-4.28.27-8,5-8,5L107.5,88.39c.15,0,4.93,1.56,6.12-.09S118.28,85,118.28,85c-3.5-1.18-5.89,2-6.34,2.22-.19.15-.22.11,0,0a4.46,4.46,0,0,0,.9-1.19c.74-1.35,4.69-4.14,4.69-4.14-4.9-.08-8.84,6.45-7,3.26a10.47,10.47,0,0,1,5.73-4.26c-2.18-1-4.52.25-6.29,1.64a4.61,4.61,0,0,0-.91,1.68c-.78,2.82-2.11,1-2,1a36.12,36.12,0,0,1,2.87-2.7,14.5,14.5,0,0,1,4.35-3.29c-2.39-.17-5.3,1.44-7.14,2.67-1.73,2.3-2,1.38-1.82,1.3s.77-.6,1.82-1.3l.29-.4a11.82,11.82,0,0,1,5.82-3.85c-3.73-1.69-8.73,2.91-9.22,3.49s0,0,1.19-1.53,4.51-2.76,4.51-2.76c-4.31-1.28-7.77,3.35-6.22,1.5a20.33,20.33,0,0,1,4.67-3.58c-2.44-.63-4.89,1.09-6.28,2.36-.9,1.92-1.18,1.2-1.18,1.2a11.74,11.74,0,0,1,1.18-1.2l.14-.32c1-2.31,5.3-3.67,5.3-3.67-2.68-.9-6.17,1.56-8,3.13a.88.88,0,0,0,0,.15c-.67,2.42-1.27,1-1.27,1s.51-.51,1.32-1.19c.81-2.36,5.35-4.34,5.35-4.34-4.58-1-8.38,5.06-7,2.57s5.48-3.42,5.48-3.42c-4.24-1.53-9.3,4.58-8,2.43s5.49-3.79,5.49-3.79c-5-.67-8.62,4.92-7.84,2.88s4.5-3.17,4.5-3.17c-4.81-1.43-7.81,4.29-7.06,2.09s4.2-3,4.2-3c-4.93-1.56-6.81,3.8-6.81,2.29s3.42-3,3.42-3c-4.15-.58-6.28,3.85-6.1,2.54s3.44-3.59,3.44-3.59c-4.18.17-7.43,5.09-6.54,3.37s4.77-3.79,4.77-3.79c-3.78-.44-7.73,4.77-7.93,4.95s-.36.39.52-1.14S84.62,65.78,84.62,65.78Z"/><path class="cls-42" d="M98,77.51s.6,1.38,1.27-1a.88.88,0,0,1,0-.15C98.53,77,98,77.51,98,77.51Z"/><path class="cls-43" d="M144,112c-.16,0,1.18,1.8,2-1a4.61,4.61,0,0,1,.91-1.68A30.79,30.79,0,0,0,144,112Z"/><path class="cls-44" d="M144,108.67c-1,.7-1.76,1.28-1.82,1.31S142.31,111,144,108.67Z"/><path class="cls-45" d="M148.81,114c-.23.11-.19.15,0,0Z"/><path class="cls-46" d="M134.89,104.24s.6,1.38,1.27-1a1.42,1.42,0,0,1,.05-.16C135.39,103.73,134.89,104.24,134.89,104.24Z"/><path class="cls-47" d="M121.49,92.51c-4.28.26-8,5-8,5l30.83,17.57c.16,0,4.93,1.55,6.13-.09s4.66-3.26,4.66-3.26c-3.5-1.18-5.89,2-6.34,2.22-.19.15-.23.11,0,0a4.5,4.5,0,0,0,.89-1.19c.75-1.35,4.7-4.14,4.7-4.14-4.9-.08-8.84,6.45-7,3.26a10.44,10.44,0,0,1,5.73-4.26c-2.18-1-4.52.25-6.29,1.64a4.61,4.61,0,0,0-.91,1.68c-.78,2.82-2.12,1-2,1a30.79,30.79,0,0,1,2.87-2.7,14.31,14.31,0,0,1,4.35-3.29c-2.39-.18-5.3,1.44-7.14,2.66-1.73,2.31-2,1.39-1.82,1.31s.77-.61,1.82-1.31c.09-.12.19-.25.29-.4a11.83,11.83,0,0,1,5.81-3.84c-3.73-1.69-8.72,2.91-9.22,3.48s0,0,1.2-1.52,4.51-2.76,4.51-2.76c-4.32-1.28-7.77,3.35-6.22,1.5a20.11,20.11,0,0,1,4.67-3.58c-2.44-.63-4.89,1.09-6.29,2.36-.89,1.92-1.17,1.2-1.17,1.2a12.21,12.21,0,0,1,1.17-1.2,2.37,2.37,0,0,0,.14-.32c1-2.31,5.31-3.67,5.31-3.67-2.68-.9-6.17,1.55-8,3.12a1.42,1.42,0,0,0-.05.16c-.67,2.42-1.27,1-1.27,1s.5-.51,1.32-1.2c.81-2.35,5.34-4.33,5.34-4.33-4.57-1-8.37,5.05-7,2.56S140,97.86,140,97.86c-4.24-1.53-9.3,4.58-8,2.43s5.49-3.79,5.49-3.79c-5-.68-8.62,4.92-7.84,2.88s4.49-3.17,4.49-3.17c-4.81-1.43-7.81,4.29-7.06,2.09s4.21-3,4.21-3c-4.93-1.55-6.82,3.81-6.82,2.3s3.43-3,3.43-3c-4.16-.58-6.29,3.85-6.11,2.54s3.45-3.59,3.45-3.59c-4.19.17-7.43,5.09-6.55,3.37s4.78-3.79,4.78-3.79c-3.79-.44-7.74,4.77-7.93,5s-.37.39.51-1.14S121.49,92.51,121.49,92.51Z"/><path class="cls-48" d="M137.62,105.11s.28.72,1.17-1.2A12.21,12.21,0,0,0,137.62,105.11Z"/><path class="cls-49" d="M54.38,90.82,58.1,70.31a93.6,93.6,0,0,0-23.83,3.4S26,76,18.55,86.56l-.18.26-.74,6.06S33.54,82.36,43.19,82.76,54.38,90.82,54.38,90.82Z"/><path class="cls-50" d="M43.19,82.76c9.66.4,11.19,8.06,11.19,8.06l.45-2.47-.06-.29C53.9,84,49.7,83.2,49.7,83.2c-1.94-2.82-6-1.49-6-1.49-3-1.53-7.17.77-7.17.77a5,5,0,0,0-5.07,1.79c-2.3-.46-6.7,3-6.7,3L31,85.74C35.16,84,39.61,82.61,43.19,82.76Z"/><path class="cls-1" d="M17.52,97.07c.79-.38.76-1.07.1-1.41s0-.59-1.34-.31-4.76,1.17-4.76,1.17a3.79,3.79,0,0,0-1.17.65,16.82,16.82,0,0,0-1.94,1.7l-1.1,6.07A4.64,4.64,0,0,0,9.9,106s-1.45-1.41-1.45-1.51.27-.45.27-.45L11,105.11l-1.31-2,.13-.31A3.42,3.42,0,0,0,11.72,104l-1.17-1.41.28-.79s1,1.38,2,1.38l-1.2-2.07a2.27,2.27,0,0,0,2,.82,12.82,12.82,0,0,1-1.69-1.69c0-.2-.65-1.06.07-.62s1.35,2,3.62,2.07c0,0-2-1.41-2.2-2.82a3.4,3.4,0,0,0-.17-.74c.38.56.74,1.44,1.79,1.53l-.92-1.27a1.18,1.18,0,0,0,1.4.37L14.1,97.38a3.64,3.64,0,0,0,2.07.73l-1.24-.87,1.9.56-1.31-1.21S16.73,97.45,17.52,97.07Z"/><path class="cls-51" d="M21.13,97.9l-3.76-3.55L14.68,96c.17,0,4.59,2.07,5,4.58S21.13,97.9,21.13,97.9Z"/><path class="cls-52" d="M20,99.84c6.1-2.45,1.65-4.49,1.65-4.49L20,96.63s-3.9,2.31-5,5.28a8.86,8.86,0,0,0-.66,4.65S13.92,102.28,20,99.84Z"/><path class="cls-53" d="M14.88,107l.16,1.18,3.84-2c1.05-.62,1-1.37,1.31-2a28.16,28.16,0,0,1,1.24-3c.69-1.26.27-2.14.34-3.17s-.69-1.2-.89-1.43-.35.09-.67.21-.16.76-.16,1.68-.42.34-.46,1-.53.46-.62,1.24,0,0-.25.74a3.46,3.46,0,0,0-.23.92c-.12.48-.49.21-.46.64s-.65.23-.63.81-.94.07-1,1-.51.14-.42.76-.29.41,0,.64S14.88,107,14.88,107Z"/><path class="cls-54" d="M14.06,97.35a3.17,3.17,0,0,1,.21.27C14,96.94,13.68,97,14.06,97.35Z"/><path class="cls-55" d="M18.61,96.56c.79-.38.76-1.07.11-1.41s0-.59-1.35-.32S12.61,96,12.61,96a3.93,3.93,0,0,0-1.17.65,15.85,15.85,0,0,0-1.93,1.69L8.4,104.42A4.69,4.69,0,0,0,11,105.49,19.37,19.37,0,0,1,9.54,104c0-.1.28-.44.28-.44l2.24,1.07-1.31-2,.14-.31a3.48,3.48,0,0,0,1.93,1.17l-1.18-1.41.28-.8s1,1.38,2,1.38l-1.21-2.07a2.28,2.28,0,0,0,2,.83A12.82,12.82,0,0,1,13,99.73c0-.2-.66-1.07.06-.62s1.35,2,3.63,2.07c0,0-2-1.41-2.21-2.83a3.43,3.43,0,0,0-.17-.73,3.17,3.17,0,0,0-.21-.27c-.38-.38,0-.41.21.27s.74,1.44,1.79,1.53l-.92-1.28a1.59,1.59,0,0,1-.25-.34l.25.34a1.17,1.17,0,0,0,1.4.38L15.2,96.87a3.55,3.55,0,0,0,2.07.72L16,96.73l1.9.55-1.31-1.2S17.82,96.94,18.61,96.56Z"/><path class="cls-56" d="M15.14,97.87l-.25-.34A1.59,1.59,0,0,0,15.14,97.87Z"/><path class="cls-57" d="M16.32,107.14c-1.28-.21-2-1.84-2-1.84a1.79,1.79,0,0,0,.94,2.16Z"/><path class="cls-58" d="M16.46,106.41a6.25,6.25,0,0,1-1.33-.94,2.09,2.09,0,0,0,.76,1.21Z"/><path class="cls-59" d="M16.91,105.67c-.66-.1-1.54-1.46-1.54-1.46a2.08,2.08,0,0,0,1,1.9Z"/><path class="cls-60" d="M18.18,104.68c-1.4-.1-3.09-2.22-3.09-2.22a4.31,4.31,0,0,0,1.61,2.89Z"/><polygon class="cls-61" points="16.54 102.91 17.75 104.35 18.39 103.82 16.54 102.91"/><path class="cls-62" d="M17.16,102.56l1,.76.67-.16A2.84,2.84,0,0,0,17.16,102.56Z"/><path class="cls-63" d="M17.58,101.94l1,.62.91.09C19,101.82,17.58,101.94,17.58,101.94Z"/><path class="cls-64" d="M18,101.41l.9.43.65-.45A1.08,1.08,0,0,0,18,101.41Z"/><path class="cls-65" d="M20.15,100.32c-.71-.54-1.62.17-1.68.17s.83.42.83.42Z"/><path class="cls-66" d="M18.9,99.37l1,.43.29-.4C19.25,98.92,18.9,99.37,18.9,99.37Z"/><path class="cls-67" d="M19.11,98.51l1,.45.53-.4C20.06,97.82,19.11,98.51,19.11,98.51Z"/><path class="cls-68" d="M23.15,95.75l-1.82-3.44L16,95.25s4.26,1.41,4.35,4.09S23.15,95.75,23.15,95.75Z"/><path class="cls-69" d="M22.16,97.23a3.55,3.55,0,0,0-.82-1.38c-.76-.95-2.87-.76-2.87-.76s-.65,0,1,.4a2.61,2.61,0,0,1,2,1.54s0,.67-.69-.3-3.5-1.58-1.69-.46a2.93,2.93,0,0,1,1.64,2.62Z"/><path class="cls-70" d="M18.07,104a34.54,34.54,0,0,1-2.55,3.55l-1.19.36s.17.48,2.15,1.33a7.9,7.9,0,0,0,4.27.32s-1.43-1-1.19-1.87a16.24,16.24,0,0,1,2-4.46c1.21-1.88,3-3,3.89-8.25s-2.31-6.89-2.31-6.89L20.75,93.2c.05.15-.3,5.82-.8,6.76S19,102.46,18.07,104Z"/><path class="cls-71" d="M16.84,90.87c4.45-.72,16.29-.48,16.29-.48-6.27-1-2.52-6.2-2.52-6.2-6.69.43-5.57-4.48-5.57-4.48C20,81,16.52,77.48,15.54,76.23c1,1.65,2.07,3.68,2.07,5.68a1.73,1.73,0,0,1-1.85,1.93v.21l-1.34,5S12.4,91.58,16.84,90.87Z"/><path class="cls-72" d="M16.78,87.2l3.11,3.36c4.1-.25,9.75-.22,12.12-.19-2.91-1.32-7-1.23-9.29-1.05a1.27,1.27,0,0,0,.13-.19c.83-1.33,7.5-4.69,7.5-4.69-4.6.69-11.08,4-11.08,4L25,79.71Z"/><path class="cls-73" d="M12,92.21c-.47.16-.86,1.23-1.54,1.64s-.87,1.52-1.36,1.81a37.22,37.22,0,0,0-3,3.76c-1.37-.93-1.81-3.75-1.81-3.75C3,101,8.37,109.6,8.37,109.6s-.62-4,1.08-5a10.75,10.75,0,0,0,4.16-4.52c1.39-2.41,5.24-4.95,7.12-5.25s5.14-2.35,3.64-5.69-5.89-2-5.89-2c1.56-4.83-1.65-9.33-3.06-11,1.73,3-2.45,11.54-3.44,13.64C10.9,92.05,12.42,92.05,12,92.21Z"/><path class="cls-74" d="M8.32,98.17c-2,.07-2.21,3.79-2.21,3.79-1.47-1.12-1.8-5-1.86-6.16C3,101.11,8.37,109.6,8.37,109.6s-.62-4,1.08-5a10.75,10.75,0,0,0,4.16-4.52,13.76,13.76,0,0,1,6.82-5.19l.08-.12a2.71,2.71,0,0,0-2.6.67c-1.08,1.12-2,.69-3.56,2.32s-1.89,4-2.81,3.61a6.81,6.81,0,0,0-3,.27S10.35,98.1,8.32,98.17Z"/><path class="cls-51" d="M8,101.31s.67-1.9-.13-1.59-1,2.15-1,2.12C7.6,100.91,8,101.31,8,101.31Z"/><path class="cls-75" d="M11.11,97.42c-.19-2.29-2.21-.22-2.21-.22C10.59,96.09,11.11,97.42,11.11,97.42Z"/><path class="cls-76" d="M12.33,94.77c-1.27-.66-1.94.82-1.94.82,1.1-1,2.51,0,2.51,0S13.61,95.42,12.33,94.77Z"/><path class="cls-77" d="M20.68,101.66c.76-.93.42-3.58.42-3.58a7.06,7.06,0,0,1-.66,3,13.08,13.08,0,0,0-1.79,3.58A7.43,7.43,0,0,1,16,107.91s2.87-.8,3.07-2.18A9.58,9.58,0,0,1,20.68,101.66Z"/><path class="cls-78" d="M13.6,93c.06.37,1.05.9,1.05.9a1.41,1.41,0,0,0,1.17-.62s-.06.07-.74-.39-.5-2-.5-2A8.18,8.18,0,0,0,13.6,93Z"/><path class="cls-79" d="M18.25,91.77c.6-.21.79-1,.84-1.45,0-.28.34-.42.58-.5l-.33.05c-.45,0-.42.69-.8,1s-.67,0-1.67.72a4.47,4.47,0,0,0-1.41,2.13,5,5,0,0,0,1.43-.59C17.32,92.83,17.65,92,18.25,91.77Z"/><path class="cls-80" d="M19.67,89.82l.32-.07A2.82,2.82,0,0,0,19.67,89.82Z"/><path class="cls-81" d="M18.34,92.73a3.25,3.25,0,0,1-1.41,1,9.46,9.46,0,0,1-1.66.28A3.66,3.66,0,0,0,17.44,94,2.49,2.49,0,0,0,18.34,92.73Z"/><path class="cls-82" d="M89.85,2a10.27,10.27,0,0,0-8.4,9.83l6.45,3.07c.31-.1,7.79-2,1.85-5.22S89.85,2,89.85,2Z"/><path class="cls-83" d="M179.47,71.06c1.93,2.94,3.31,4.85,3.31,4.85C181.71,74.23,180.6,72.61,179.47,71.06Z"/><path class="cls-84" d="M171.46,41.28c12.82-1.17,32.64,19.48,32.64,19.48s-23.32-24.48-29-27.81S150.31,17.8,149.48,17.47,110,6.81,110,6.81l-33.3,4.5-28.64,17L32.42,45.94v3.17s16.65-2.34,21.31-.84a12.28,12.28,0,0,1,7.49,6.33c.67,1.5,3.33,17,3.33,17l25.81,6c-7-6-28.64-21.46,3.67-20.48,21.35.65,58.44,12.82,66.27,29.14l-2.66-15s-12.16-18-13.16-23.81c-.93-5.43,19.65,2.72,35,23.62C173.34,61.74,161.7,42.17,171.46,41.28Z"/><path class="cls-85" d="M118.54,41.54h0Z"/><path class="cls-86" d="M94.58,18.5C102.3,14.7,117.44,13.29,133,13,122.14,10.05,110,6.81,110,6.81l-33.3,4.5-28.64,17L32.42,45.94v3.17s16.65-2.34,21.31-.84a12.28,12.28,0,0,1,7.49,6.33c.67,1.5,3.33,17,3.33,17L83,75.87C83.66,75,84.3,74,84.91,73c-7.94-6.88-16.4-16.41,7.92-16,8.79-13.78,24-15.39,25.57-15.52L85.67,44C98,28.63,141,30.48,141,30.48s-28.88-8-30.11-7.68L71.23,32.63S75.22,28,94.58,18.5Z"/><path class="cls-87" d="M22,57s-.82-.22-1.93,1,0,3.78,1.59,4.3,5.27-.34,5.27-.34c-.5-11.49,20.81-17.32,30.81-6.16s-.67,21.64-.67,21.64a15,15,0,0,0,8.41,1.25c5.1-.59,11.69-7.11,11.1-9.33s-5.18-4.66-8.07-7.1-6.36-8.14-6.73-10.14a1.38,1.38,0,0,0-2.15-1c-8.88-6.29-22.72-3.84-22.72-3.84C72,5.68,96.18,8.13,132.82,14.34s75.59,52.71,75.59,52.71C194.76,42.41,143.13-2.23,90.17,6.43s-65.11,54.1-65.11,54.1-2.93,1-4.11-.48S22,57,22,57Z"/><path class="cls-88" d="M150.06,38c-3.09-1.36-.64.05,0,0Z"/><path class="cls-89" d="M150.06,38c.81.35,2,.9,3.69,1.7,9.32,4.44,32.19,42.19,32.19,42.19-1.78-8.44-26.2-45.08-31.53-47.52s-30.2-14.87-46.18-13.32-76.6,27.09-76.6,27.09l5.1.33,12.1-.55s3-3.89,13-7.33,45.63-14.65,47-15,0,0,6.22-.33,34.86,11.54,35.19,12.54C150.23,38,150.18,38,150.06,38Z"/><path class="cls-90" d="M159.14,101.72v0C158,102.74,159.14,101.72,159.14,101.72Z"/><path class="cls-91" d="M159.8,101.06c2.17-2,2.83-29.31-2.83-36.3S125.67,38,110.18,38.61s-66.27,8.16-66.27,8.66L54.33,50.2s5.33,2,6.11,1.78,1.11-2.22,12.87-3.89,37.08-3.33,37.08-3.33a8,8,0,0,0,5,.89,26,26,0,0,1,5-.55c10.55,4.33,33.26,22.82,33.26,22.82s0,.83,1.33,2.33,1.67,6.66,3.33,14c1.6,7,.9,16.65.84,17.43Z"/><path class="cls-92" d="M43.39,110.87c-5,2.31-17.43,4.86-18.31,5.59s-1.39-.18-2.17.19-1.05,2.37-1.83,3.52,2.5,2.86,3.5,3.17.83-1.34,1.88-1.65,30.2-5.9,34.14-6,5.66-.73,6.11-1.7-.61-3.47-.61-3.47l-1.32-17s1.48-4.38-.88-10.87S61.53,72.5,58.64,72.5l-.08-.25s-5.83-.54-7,3.47,3.17,25.18,4.5,27.37a6.42,6.42,0,0,1,1.17,3.65S48.39,108.56,43.39,110.87Z"/><path class="cls-93" d="M119.9,132.76c3.38.46,3.59,0,4.46-.3s5.43,2.45,8.29,3.17a12.7,12.7,0,0,0,6.3-.51l1.54-1.43-3.38-.72s-11.73-4-13.26-3.53-1.54.81-1.54.81a20.36,20.36,0,0,0-7.27.57,8.13,8.13,0,0,0-4.4,3.63S116.53,132.3,119.9,132.76Z"/><path class="cls-94" d="M129.07,129s-2.15-.81-2.66.62-8.4,3.79-8.91,7c0,0,7.58-3.17,9.93-2.66s2.77-1,3.07-.92,6.76,3.17,9.22,3.28a16.44,16.44,0,0,0,3.48-.11,17.73,17.73,0,0,1,.41-5.63c.72-2.15-8.09-19.35-6.35-22s5,.92,5,.92-2.15-10.65-7.37-9.62-5.23,1.43-5.23,1.43L129,104.7s5.73,15.88,6.86,19.26a13.08,13.08,0,0,1,0,7.06S134.19,129.18,129.07,129Z"/><path class="cls-95" d="M76.71,93.37,96.5,89.75s3.55-3.68,2.87-6.83S96.23,78.35,89.2,72.27s-16.8-3.48-18.09.07-3.83,9.42-1.91,15A8.18,8.18,0,0,0,76.71,93.37Z"/><path class="cls-96" d="M96.79,87.28c-3.69-4.77-2-7-3.91-8.1l-.45-.33s-4.66-8.33-13.65-7.22S72,84.62,73.56,87.5s8.22,21.43,11,24.32,5.66,3.88,7.33,7.32a16.13,16.13,0,0,0,4.83,5.15c1.53,2,3.27,3.78,4.91,4,4.37.68,24.72-20.62,26.9-20.21a5.68,5.68,0,0,1,3.42,2.45s.92-.13,1.33-1.77-2.87-4.81-3-7.37-2.15-3.08-3.28-2.56-.3,4.3-.3,4.3l-13,9a10.1,10.1,0,0,0-8.81.92,14.6,14.6,0,0,1-4.31,1.72c0-.67.11-1.32.17-1.89C101.2,108.71,100.49,92.06,96.79,87.28Z"/><path class="cls-97" d="M72.16,79.55a17.19,17.19,0,0,0,1.4,8c1.55,2.89,8.22,21.43,11,24.32s5.66,3.88,7.33,7.32a16.13,16.13,0,0,0,4.83,5.15c1.53,2,3.27,3.78,4.91,4,3.27.51,15.47-11.27,22.33-17.08L103.2,124.43a5.51,5.51,0,0,0-1.71-4.64c-2.12-1.77-4.37-.34-4.71-.34s-2-1-2.94-3.48,2-5,2-12.36-7.51-16.38-7.51-16.38a17.84,17.84,0,0,1,2.73,11.06c-.68,6.14-1,10-1,10s-3.42-11.19-6.42-18.43a177.36,177.36,0,0,0-8.67-16.76,6.87,6.87,0,0,0-1.8,2.15c2.27,4.8,6.32,13.43,6.37,13.72S75,83.06,72.16,79.55Z"/><path class="cls-98" d="M83.5,77.57l5.32,16.07C89.54,85.55,83.5,77.57,83.5,77.57Z"/><path class="cls-99" d="M106.59,116.07a3.92,3.92,0,0,0,4.81-.61Z"/><path class="cls-100" d="M134.25,130h0l1.51.93A5.45,5.45,0,0,0,134.25,130Z"/><path class="cls-101" d="M130.77,109.71c1.78,5,4.35,12.11,5.06,14.25a13.13,13.13,0,0,1,0,7l2,1.22,1-6.69-4.5-12.91,2.11,10.59-4.3-14.34Z"/><path class="cls-102" d="M43.39,110.87c-4,1.85-12.76,3.85-16.55,5l-1.75,3.59h.62c3.82-.15,19.73-3.66,19.73-3.66l-13,1.42s12.43-4.12,15.84-4.72,9.49-.82,9.7-2a33.87,33.87,0,0,0-.07-4.78s.34-5.54,2-7.34.34-11.22.34-11.22l2.46,5.54s-1.16-10.25-3.28-12.94a44.86,44.86,0,0,0-6.6-6,4,4,0,0,0-.62.67l3.47,7.07L51.5,76c-.94,4.57,3.25,25,4.56,27.12a6.42,6.42,0,0,1,1.17,3.65S48.39,108.56,43.39,110.87Z"/><path class="cls-103" d="M25.09,119.42,29.84,115v0a28.15,28.15,0,0,0-4.75,1.45c-.89.73-1.39-.18-2.17.19s-1.05,2.37-1.83,3.52c-.58.86,1.07,2,2.37,2.68C22.89,121.48,25.09,119.42,25.09,119.42Z"/><path class="cls-1" d="M49,131.09c1.32-.17,2.22-.2,2.47-.24s1.32.48,1.69.41.57,0,1.41-.1,1.54.48,2.69.48,2.76-.69,3.38-.69a24.58,24.58,0,0,1,3.89.72,3,3,0,0,1,1.15.65s-.18-2.53-1.84-3.21-1.19-1-1.91-1.26-.35,0-1.22,0a22.44,22.44,0,0,1-2.91-.92l-8,.31a18.16,18.16,0,0,0-4.19,1.57c-.94.72-3.38,1.09-4,1.84a8.94,8.94,0,0,1-1.19,1.23s3.13-.44,4.1-.48a4.58,4.58,0,0,0,1.53-.27A14.75,14.75,0,0,0,49,131.09Z"/><path class="cls-104" d="M109,94.74s2.53.88,3.76-.35-2.32-4.64-2.32-4.64l-.28-.2s.82.75,1.1,3.34S109,94.74,109,94.74Z"/><path class="cls-105" d="M111.22,99.45s2.52.88,3.75-.34-2.32-4.65-2.32-4.65l-.27-.2s.82.75,1.09,3.34S111.22,99.45,111.22,99.45Z"/><path class="cls-106" d="M107.29,101.6s2.53.88,3.76-.34-2.32-4.65-2.32-4.65l-.28-.2s.82.75,1.09,3.34S107.29,101.6,107.29,101.6Z"/><path class="cls-107" d="M105.65,96.61s2.53.89,3.76-.34-2.32-4.64-2.32-4.64l-.28-.21s.82.76,1.1,3.35S105.65,96.61,105.65,96.61Z"/><path class="cls-108" d="M104.9,91.8s2.53.89,3.76-.34-2.32-4.64-2.32-4.64l-.28-.21s.82.75,1.09,3.35S104.9,91.8,104.9,91.8Z"/><path class="cls-109" d="M115.52,98.21s2.16.62,3.21-.24-2-3.26-2-3.26l-.23-.15a3.55,3.55,0,0,1,.94,2.35C117.68,98.73,115.52,98.21,115.52,98.21Z"/><path class="cls-110" d="M112.33,103.36s1.92,1.17,3.16.62-1.06-3.67-1.06-3.67l-.18-.2a3.55,3.55,0,0,1,.28,2.51C114.27,104.44,112.33,103.36,112.33,103.36Z"/><path class="cls-111" d="M115.93,101.81s2.13,1.06,3.39.74-1.42-2.9-1.42-2.9l-.22-.17a2.38,2.38,0,0,1,.51,2C118.08,102.8,115.93,101.81,115.93,101.81Z"/><path class="cls-112" d="M103.2,99.28s2.12,1.07,3.39.75-1.43-2.91-1.43-2.91L105,97a2.43,2.43,0,0,1,.51,2C105.34,100.28,103.2,99.28,103.2,99.28Z"/><path class="cls-113" d="M107.53,105.12s2.13,1.06,3.39.74-1.42-2.9-1.42-2.9l-.22-.17a2.38,2.38,0,0,1,.51,1.95C109.68,106.11,107.53,105.12,107.53,105.12Z"/><path class="cls-114" d="M112.38,107.17s2.13,1.06,3.39.74-1.42-2.9-1.42-2.9l-.22-.17a2.38,2.38,0,0,1,.51,2C114.53,108.16,112.38,107.17,112.38,107.17Z"/></g></g></svg>