<svg height="512" viewBox="0 0 64 64" width="512" xmlns="http://www.w3.org/2000/svg"><g id="Spider"><path d="m35.54 60.54a1 1 0 0 1 -.709-1.7 4.011 4.011 0 0 0 .762-4.594 1 1 0 0 1 1.795-.883 6.011 6.011 0 0 1 -1.139 6.887 1 1 0 0 1 -.709.29z" fill="#58595b"/><path d="m28.46 60.54a1 1 0 0 1 -.71-.3 6.014 6.014 0 0 1 -1.138-6.887 1 1 0 1 1 1.8.883 4.011 4.011 0 0 0 .762 4.594 1 1 0 0 1 -.709 1.7z" fill="#58595b"/><g fill="#414042"><path d="m39 35a1 1 0 0 1 -.363-1.932l4.33-1.69 16.871-6.978-4.814-21.178a1 1 0 0 1 1.952-.444l5 22a1 1 0 0 1 -.594 1.146l-17.67 7.31-4.349 1.7a1.006 1.006 0 0 1 -.363.066z"/><path d="m61 43a1 1 0 0 1 -.849-.47l-4.661-7.459-19.366 2.421a1 1 0 0 1 -.248-1.984l20-2.5a.989.989 0 0 1 .972.462l5 8a1 1 0 0 1 -.848 1.53z"/><path d="m56 51a1 1 0 0 1 -1-1v-7.187l-19.624-4.084a1 1 0 0 1 .408-1.958l20.42 4.25a1 1 0 0 1 .796.979v8a1 1 0 0 1 -1 1z"/><path d="m45 62a1 1 0 0 1 -.948-1.316l4.725-14.178-13.224-6.606a1 1 0 0 1 .894-1.79l14 7a1 1 0 0 1 .5 1.211l-5 15a1 1 0 0 1 -.947.679z"/><path d="m25 35a1.015 1.015 0 0 1 -.364-.068l-4.33-1.69-17.688-7.318a1 1 0 0 1 -.593-1.146l5-22a1 1 0 0 1 1.95.444l-4.813 21.178 16.89 6.988 4.312 1.682a1 1 0 0 1 -.364 1.93z"/><path d="m3 43a1 1 0 0 1 -.847-1.53l5-8a.994.994 0 0 1 .972-.462l20 2.5a1 1 0 1 1 -.248 1.984l-19.367-2.421-4.662 7.459a1 1 0 0 1 -.848.47z"/><path d="m8 51a1 1 0 0 1 -1-1v-8a1 1 0 0 1 .8-.979l20.42-4.25a1 1 0 0 1 .408 1.958l-19.628 4.084v7.187a1 1 0 0 1 -1 1z"/><path d="m19 62a1 1 0 0 1 -.949-.684l-5-15a1 1 0 0 1 .5-1.211l14-7a1 1 0 1 1 .894 1.79l-13.222 6.611 4.726 14.178a1 1 0 0 1 -.949 1.316z"/></g><circle cx="32" cy="22" fill="#58595b" r="16"/><path d="m32 6c-.506 0-1.006.03-1.5.076a15.994 15.994 0 0 1 0 31.848c.494.046.994.076 1.5.076a16 16 0 0 0 0-32z" fill="#39383a"/><path d="m35.6 37.754a9 9 0 1 0 5.4 8.246 8.971 8.971 0 0 0 -5.4-8.246z" fill="#4d4e50"/><path d="m38 23h-5v-10a1 1 0 0 0 -2 0v10h-5a1 1 0 0 0 0 2h5v6a1 1 0 0 0 2 0v-6h5a1 1 0 0 0 0-2z" fill="#6d6e71"/><path d="m35.6 37.754a8.905 8.905 0 0 0 -4.6-.7 9 9 0 0 1 0 17.883 9 9 0 0 0 4.6-17.187z" fill="#39383a"/></g></svg>