<?xml version="1.0" encoding="iso-8859-1"?>
<!-- Generator: Adobe Illustrator 19.0.0, SVG Export Plug-In . SVG Version: 6.00 Build 0)  -->
<svg version="1.1" id="Capa_1" xmlns="http://www.w3.org/2000/svg" xmlns:xlink="http://www.w3.org/1999/xlink" x="0px" y="0px"
	 viewBox="0 0 512 512" style="enable-background:new 0 0 512 512;" xml:space="preserve">
<path style="fill:#FCBF29;" d="M271,15v60c0,8.399-6.599,15-15,15s-15-6.601-15-15V15c0-8.401,6.599-15,15-15S271,6.599,271,15z"/>
<path style="fill:#FEA832;" d="M256,90V0c8.401,0,15,6.599,15,15v60C271,83.399,264.401,90,256,90z"/>
<path style="fill:#57555C;" d="M207.001,257.992c-1.655,0-3.325-0.264-4.98-0.85L69.02,210.15C63.014,208.041,59,202.372,59,196V75
	c0-3.984,1.582-7.793,4.395-10.605l59.422-60c5.859-5.859,15.352-5.859,21.211,0s5.859,15.352,0,21.211L89,81.211V185.38
	l122.981,43.462c7.808,2.754,11.924,11.309,9.17,19.131C218.983,254.14,213.183,257.992,207.001,257.992z"/>
<path style="fill:#3C3A41;" d="M302.436,257.992c-6.182,0-11.982-3.853-14.15-10.02c-2.754-7.822,1.362-16.377,9.17-19.131
	L421,185.38V81.211l-55.605-55.605c-5.859-5.859-5.859-15.352,0-21.211s15.352-5.859,21.211,0l60,60
	C449.418,67.207,451,71.016,451,75v121c0,6.372-4.014,12.041-10.02,14.15l-133.564,46.992
	C305.761,257.729,304.091,257.992,302.436,257.992z"/>
<path style="fill:#57555C;" d="M361,166c0,57.9-47.1,105-105,105s-105-47.1-105-105c0-10.501,2.1-20.7,5.099-30.3H355.9
	C358.9,145.3,361,155.499,361,166z"/>
<path style="fill:#3C3A41;" d="M361,166c0,57.9-47.1,105-105,105V135.7h99.901C358.9,145.3,361,155.499,361,166z"/>
<path style="fill:#A44F3E;" d="M355.901,135.7c-24.6,27.599-60,45.3-99.901,45.3s-75.3-17.701-99.901-45.3
	C168.999,92.8,208.6,60,256,60S343.001,92.8,355.901,135.7z"/>
<path style="fill:#883F2E;" d="M355.901,135.7c-24.6,27.599-60,45.3-99.901,45.3V60C303.401,60,343.001,92.8,355.901,135.7z"/>
<g>
	<path style="fill:#57555C;" d="M15,361c-3.838,0-7.676-1.465-10.605-4.395c-5.859-5.859-5.859-15.352,0-21.211l57.422-60
		c2.813-2.813,6.621-4.395,10.605-4.395h61c2.329,0,4.629,0.542,6.709,1.582l60,30c7.412,3.706,10.415,12.715,6.709,20.127
		s-12.729,10.371-20.127,6.709L129.877,301H78.633l-53.027,55.605C22.676,359.535,18.838,361,15,361z"/>
	<path style="fill:#57555C;" d="M73,481c-8.291,0-15-6.709-15-15v-60c0-3.984,1.582-7.793,4.395-10.605l60.422-60
		c2.813-2.813,6.621-4.395,10.605-4.395h60c8.291,0,15,6.709,15,15s-6.709,15-15,15h-53.789L88,412.211V466
		C88,474.291,81.291,481,73,481z"/>
	<path style="fill:#57555C;" d="M179.015,512c-5.508,0-10.796-3.032-13.433-8.291l-15-30c-1.04-2.08-1.582-4.38-1.582-6.709v-61
		c0-3.984,1.582-7.793,4.395-10.605l47-47.578c5.859-5.859,15.352-5.859,21.211,0s5.859,15.352,0,21.211L179,412.211v51.244
		l13.418,26.836c3.706,7.412,0.703,16.421-6.709,20.127C183.556,511.487,181.271,512,179.015,512z"/>
</g>
<g>
	<path style="fill:#3C3A41;" d="M497,361c-3.838,0-7.676-1.465-10.605-4.395L429.789,301h-50.244l-56.836,28.418
		c-7.412,3.662-16.421,0.703-20.127-6.709s-0.703-16.421,6.709-20.127l60-30c2.08-1.04,4.38-1.582,6.709-1.582h60
		c3.984,0,7.793,1.582,10.605,4.395l61,60c5.859,5.859,5.859,15.352,0,21.211C504.676,359.535,500.838,361,497,361z"/>
	<path style="fill:#3C3A41;" d="M436,481c-8.291,0-15-6.709-15-15v-53.789L369.789,361H316c-8.291,0-15-6.709-15-15s6.709-15,15-15
		h60c3.984,0,7.793,1.582,10.605,4.395l60,60C449.418,398.207,451,402.016,451,406v60C451,474.291,444.291,481,436,481z"/>
	<path style="fill:#3C3A41;" d="M330.985,512c-2.256,0-4.541-0.513-6.694-1.582c-7.412-3.706-10.415-12.715-6.709-20.127
		L331,463.455v-51.244l-43.184-43.184c-5.859-5.859-5.859-15.352,0-21.211s15.352-5.859,21.211,0l47.578,47.578
		C359.418,398.207,361,402.016,361,406v61c0,2.329-0.542,4.629-1.582,6.709l-15,30C341.781,508.968,336.493,512,330.985,512z"/>
</g>
<path style="fill:#57555C;" d="M226,421c-8.291,0-15-6.709-15-15v-30c0-8.291,6.709-15,15-15s15,6.709,15,15v30
	C241,414.291,234.291,421,226,421z"/>
<path style="fill:#3C3A41;" d="M286,421c-8.291,0-15-6.709-15-15v-30c0-8.291,6.709-15,15-15s15,6.709,15,15v30
	C301,414.291,294.291,421,286,421z"/>
<path style="fill:#A44F3E;" d="M256,241c-41.4,0-75,33.6-75,75s33.6,75,75,75s75-33.6,75-75S297.4,241,256,241z"/>
<path style="fill:#883F2E;" d="M331,316c0,41.4-33.6,75-75,75V241C297.4,241,331,274.6,331,316z"/>
<g>
</g>
<g>
</g>
<g>
</g>
<g>
</g>
<g>
</g>
<g>
</g>
<g>
</g>
<g>
</g>
<g>
</g>
<g>
</g>
<g>
</g>
<g>
</g>
<g>
</g>
<g>
</g>
<g>
</g>
</svg>
