<svg height="512pt" viewBox="-4 0 512 512" width="512pt" xmlns="http://www.w3.org/2000/svg"><path d="m353.800781 270.230469c21.785157-27.738281 34.589844-61.464844 36.707031-96.671875 0-76.683594-62.164062-138.847656-138.847656-138.847656s-138.847656 62.164062-138.847656 138.847656c2.121094 35.207031 14.925781 68.933594 36.707031 96.671875" fill="#2c2f38"/><path d="m334.648438 270.230469c18.109374-29.113281 28.382812-62.414063 29.824218-96.671875 0-76.710938-50.476562-138.847656-112.8125-138.847656-62.332031 0-112.8125 62.136718-112.8125 138.847656 1.441406 34.257812 11.71875 67.558594 29.824219 96.671875" fill="#2c3e50"/><g fill="#2c2f38"><path d="m362.566406 396.929688 25.660156 54.195312c1.398438 2.953125 1.019532 6.441406-.980468 9.023438l-40.128906 51.851562 8.097656-45.8125c.375-2.125-.058594-4.316406-1.214844-6.140625l-25.164062-39.859375h-154.320313l-25.167969 39.859375c-1.15625 1.824219-1.589844 4.015625-1.214844 6.140625l8.070313 45.8125-40.125-51.851562c-2-2.582032-2.378906-6.070313-.980469-9.023438l25.660156-54.195312zm0 0"/><path d="m381.742188 338.527344 37.984374-37.984375c3.128907-3.128907 8.105469-3.402344 11.558594-.640625l36.570313 29.261718c.5.398438.957031.851563 1.351562 1.355469l34.113281 42.632813v-56.503906c0-2.675782-1.234374-5.203126-3.347656-6.84375l-69.15625-53.804688c-3.253906-2.535156-7.84375-2.425781-10.976562.261719l-48.074219 41.21875h-240.207031l-48.078125-41.210938c-3.128907-2.6875-7.71875-2.792969-10.976563-.261719l-69.152344 53.796876c-2.113281 1.640624-3.351562 4.167968-3.351562 6.84375v56.503906l34.113281-42.632813c.398438-.503906.851563-.957031 1.355469-1.355469l36.558594-29.261718c3.453125-2.761719 8.433594-2.488282 11.558594.640625l37.992187 37.984375zm0 0"/><path d="m390.507812 355.796875h39.492188c2.480469 0 4.839844 1.0625 6.484375 2.914063l62.480469 70.292968c2.582031 2.886719 2.9375 7.136719.867187 10.414063l-39.898437 63.902343v-66.375c0-1.972656-.671875-3.886718-1.902344-5.425781l-30.207031-37.757812c-1.648438-2.058594-4.140625-3.253907-6.777344-3.253907h-330.09375c-2.636719 0-5.128906 1.195313-6.777344 3.253907l-30.207031 37.757812c-1.230469 1.539063-1.902344 3.453125-1.902344 5.425781v66.375l-39.917968-63.910156c-2.066407-3.277344-1.710938-7.527344.867187-10.414062l62.527344-70.292969c1.640625-1.84375 3.988281-2.898437 6.457031-2.90625zm0 0"/></g><path d="m206.882812 431.730469c14.878907 1.484375 29.824219 2.207031 44.777344 2.167969 14.953125.039062 29.898438-.683594 44.777344-2.167969l13.367188-4.859375c42.78125-11.542969 72.027343-38.183594 72.027343-84.089844 0-64.738281-58.230469-117.152344-130.171875-117.152344s-130.167968 52.414063-130.167968 117.152344c0 45.90625 29.242187 72.546875 72.027343 84.089844zm0 0" fill="#2c3e50"/><path d="m212.851562 431.910156c25.804688 2.652344 51.8125 2.652344 77.617188 0l11.585938-4.449218c37.070312-10.589844 62.417968-35.007813 62.417968-77.089844 0-59.339844-50.460937-107.386719-112.8125-107.386719-62.351562 0-112.8125 48.046875-112.8125 107.386719 0 42.082031 25.347656 66.5 62.421875 77.089844zm0 0" fill="#35495e"/><path d="m224.847656 306.070312c.523438 2.070313.789063 4.199219.78125 6.335938.03125 13.890625-10.84375 25.363281-24.714844 26.066406-13.871093.703125-25.855468-9.605468-27.226562-23.429687-1.375-13.820313 8.347656-26.285157 22.085938-28.324219" fill="#c03a2b"/><path d="m234.304688 321.085938c-1.710938-.003907-3.382813-.507813-4.808594-1.460938l-52.066406-34.710938c-2.578126-1.71875-4.046876-4.6875-3.84375-7.78125.199218-3.09375 2.035156-5.84375 4.816406-7.21875 2.777344-1.375 6.082031-1.160156 8.660156.5625l52.066406 34.710938c3.183594 2.121094 4.601563 6.078125 3.492188 9.738281-1.113282 3.664063-4.488282 6.164063-8.316406 6.160157zm0 0" fill="#2c2f38"/><path d="m307.546875 286.71875c13.742187 2.039062 23.460937 14.503906 22.089844 28.324219-1.375 13.824219-13.355469 24.132812-27.230469 23.429687-13.871094-.703125-24.746094-12.175781-24.710938-26.066406-.007812-2.136719.253907-4.265625.78125-6.335938" fill="#c03a2b"/><path d="m269.015625 321.085938c-3.824219.003906-7.203125-2.496094-8.3125-6.160157-1.113281-3.660156.304687-7.617187 3.488281-9.738281l52.070313-34.710938c2.578125-1.722656 5.878906-1.9375 8.660156-.5625 2.777344 1.375 4.613281 4.125 4.816406 7.21875.199219 3.09375-1.265625 6.0625-3.847656 7.78125l-52.066406 34.710938c-1.421875.953125-3.097657 1.457031-4.808594 1.460938zm0 0" fill="#2c2f38"/><path d="m286.371094 381.832031h-104.132813l13.980469 55.902344c.460938 1.839844 2.0625 3.171875 3.957031 3.28125s3.644531-1.027344 4.3125-2.804687l21.140625-56.378907" fill="#d1d4d1"/><path d="m216.949219 381.832031h104.136719l-13.980469 55.902344c-.460938 1.839844-2.066407 3.171875-3.960938 3.28125s-3.640625-1.027344-4.308593-2.804687l-21.140626-56.378907" fill="#d1d4d1"/><path d="m277.695312 156.203125v19.003906c-.5 4.3125-4.355468 7.4375-8.679687 7.03125h-34.710937c-4.324219.40625-8.175782-2.71875-8.675782-7.03125v-19.003906zm0 0" fill="#c03a2b"/><path d="m303.730469 110.730469c-.023438 5.605469-1.425781 11.117187-4.082031 16.054687-.871094 1.582032-1.824219 3.117188-2.863282 4.597656-2.921875 3.769532-7.0625 6.410157-11.714844 7.464844h-66.820312c-4.652344-1.054687-8.792969-3.695312-11.714844-7.464844-1.035156-1.480468-1.992187-3.015624-2.863281-4.597656-5.4375-10.011718-5.4375-22.097656 0-32.109375 2.785156-5.117187 6.597656-9.609375 11.195313-13.191406 4.945312-3.875 10.523437-6.867187 16.488281-8.851563 13.199219-4.28125 27.414062-4.28125 40.613281 0 5.960938 1.984376 11.539062 4.976563 16.488281 8.851563 4.597657 3.582031 8.40625 8.074219 11.191407 13.191406 2.65625 4.9375 4.058593 10.449219 4.082031 16.054688zm0 0" fill="#c03a2b"/><path d="m234.304688 121.492188c-2.308594.019531-4.527344-.886719-6.160157-2.515626-.765625-.847656-1.382812-1.816406-1.824219-2.867187-.484374-1.027344-.722656-2.15625-.691406-3.296875.03125-2.296875.929688-4.496094 2.515625-6.160156 2.496094-2.460938 6.226563-3.179688 9.457031-1.824219 2.179688.789063 3.898438 2.507813 4.6875 4.6875.925782 2.101563.925782 4.496094 0 6.59375-.441406 1.050781-1.058593 2.019531-1.824218 2.867187-1.632813 1.628907-3.851563 2.535157-6.160156 2.515626zm0 0" fill="#2c2f38"/><path d="m269.015625 121.492188c-2.304687.019531-4.527344-.886719-6.160156-2.515626-.765625-.847656-1.378907-1.816406-1.820313-2.867187-.488281-1.027344-.726562-2.15625-.695312-3.296875.03125-2.296875.929687-4.496094 2.515625-6.160156 2.496093-2.460938 6.226562-3.179688 9.460937-1.824219 2.179688.789063 3.894532 2.507813 4.683594 4.6875.925781 2.101563.925781 4.496094 0 6.59375-.441406 1.050781-1.058594 2.019531-1.820312 2.867187-1.636719 1.628907-3.855469 2.535157-6.164063 2.515626zm0 0" fill="#2c2f38"/><path d="m251.660156 43.390625c-4.792968 0-8.675781-3.886719-8.675781-8.679687v-26.03125c0-4.792969 3.882813-8.679688 8.675781-8.679688 4.792969 0 8.679688 3.886719 8.679688 8.679688v26.03125c0 4.792968-3.886719 8.679687-8.679688 8.679687zm0 0" fill="#bdc3c7"/><path d="m338.441406 390.507812h-173.558594c-4.792968 0-8.679687-3.882812-8.679687-8.675781s3.886719-8.679687 8.679687-8.679687h173.558594c4.792969 0 8.675782 3.886718 8.675782 8.679687s-3.882813 8.675781-8.675782 8.675781zm0 0" fill="#2c2f38"/></svg>