<svg height="512" viewBox="0 0 60 56" width="512" xmlns="http://www.w3.org/2000/svg"><g id="013---Spider" fill="none"><path id="Shape" d="m28 52c-.1568771.0018772-.3116796-.0359634-.45-.11-2.48-1.23-2.55-5.42-2.55-5.89 0-.5522847.4477153-1 1-1s1 .4477153 1 1c0 1.1.36 3.56 1.45 4.11.4101627.2101126.6236218.6733224.51688 1.1216381-.1067419.4483157-.5060402.7656308-.96688.7683619z" fill="#547580"/><path id="Shape" d="m32 52c-.4608398-.0027311-.8601381-.3200462-.96688-.7683619-.1067418-.4483157.1067173-.9115255.51688-1.1216381 1.09-.55 1.45-3.01 1.45-4.11 0-.5522847.4477153-1 1-1s1 .4477153 1 1c0 .47-.07 4.66-2.55 5.89-.1383204.0740366-.2931229.1118772-.45.11z" fill="#547580"/><path id="Shape" d="m9.78 20.43c-.57475236-1.9771614-.83790906-4.031808-.78-6.09l.74-4.11c2.47-7.1 10.6-10.23 20.26-10.23s17.79 3.13 20.24 10.23l.76 4.11c.0751952 2.0576343-.1814226 4.1139531-.76 6.09l-9.24 5.57h-22z" fill="#2c3e50"/><g fill="#547580"><path id="Shape" d="m17 30.74-8.3 1.26c-.7615552.117544-1.38784597.6621447-1.61 1.4l-5 16c-.33137085 1.0548639.25513613 2.1786292 1.31 2.51s2.17862915-.2551361 2.51-1.31l4.63-14.81 6.47-1z"/><path id="Shape" d="m17.41 28.18-6.1-3.66-6.9 6.89c-.48877976.5707523-1.25623679.8193639-1.98683794.6436203-.73060116-.1757436-1.30103871-.7461812-1.47678233-1.4767824-.17574362-.7306011.07286795-1.4980581.64362027-1.9868379l8-8c.6486131-.64707 1.6539589-.7706781 2.44-.3l7.25 4.35z"/><path id="Shape" d="m24.22 21.4-10.81-10.81c-.4254436-.4341489-1.0252392-.65125281-1.63-.59l-9 1c-.71453119.0785984-1.33285349.5324242-1.62205085 1.1905256-.28919737.6581014-.20533384 1.4204971.22 2 .42533384.579503 1.12751966.8880728 1.84205085.8094744l8-.9 9.27 9.27z"/><path id="Shape" d="m43 30.74 8.3 1.26c.756426.1142295 1.3814257.6499435 1.61 1.38l5 16c.2143594.6823773.0483917 1.4272793-.4353847 1.9541086s-1.2118643.755548-1.9100001.6c-.6981357-.155548-1.2602559-.6717313-1.4746152-1.3541086l-4.63-14.79-6.46-.99z"/><path id="Shape" d="m40.72 24.64 7.28-4.35c.7073637-.4207336 1.6002485-.3651763 2.25.14.11.06-.43-.41 8.19 8.16.5707523.4887798.8193639 1.2562368.6436203 1.9868379-.1757436.7306012-.7461812 1.3010388-1.4767824 1.4767824-.7306011.1757436-1.4980581-.072868-1.9868379-.6436203l-6.9-6.89-6.1 3.66z"/><path id="Shape" d="m39.46 23.36 9.27-9.27 8.05.9c.7145312.0785984 1.416717-.2299715 1.8420508-.8094744s.5091974-1.3418986.22-2c-.2891973-.6581014-.9075196-1.1119272-1.6220508-1.1905256l-9-1c-.6031725-.06383416-1.2027243.1495033-1.63.58l-10.81 10.83z"/></g><ellipse id="Oval" cx="30" cy="7" fill="#e64c3c" rx="7" ry="3"/><ellipse id="Oval" cx="30" cy="12" fill="#e64c3c" rx="3" ry="2"/><path id="Shape" d="m17 35c0-3.51 0-4.19 0-4.26.114861-4.3505601 3.0302999-8.1272868 7.21-9.34 1.85-.54 2.71-.4 8.78-.4 4.435193.0018381 8.3392758 2.9248115 9.59 7.18.52 1.72.42 2.54.42 6.82l-3.59 11c-.41 0-18.71 0-18.81 0z" fill="#3f5c6c"/><path id="Shape" d="m20 56c-.9811743.0151221-1.8283906-.6838313-2-1.65l-3-17c-.1196973-.6789957.1187751-1.3717667.6310485-1.8332193.5122734-.4614527 1.2261055-.6265115 1.8889515-.4367807l7 2.92c1.0631481.3037566 1.6787565 1.4118519 1.3749999 2.475s-1.4118518 1.6787566-2.4749999 1.375l-3.89-1.85 2.47 13.65c.1045665.5878883-.059014 1.1917492-.4460156 1.6464761-.3870016.4547268-.9569403.712751-1.5539844.7035239z" fill="#547580"/><path id="Shape" d="m40 56c.9811743.0151221 1.8283906-.6838313 2-1.65l3-17c.1196973-.6789957-.1187751-1.3717667-.6310485-1.8332193-.5122734-.4614527-1.2261055-.6265115-1.8889515-.4367807l-7 2.92c-1.0631481.3037566-1.6787565 1.4118519-1.3749999 2.475s1.4118518 1.6787566 2.4749999 1.375l3.9-1.85-2.48 13.65c-.1045665.5878883.059014 1.1917492.4460156 1.6464761.3870016.4547268.9569403.712751 1.5539844.7035239z" fill="#547580"/><circle id="Oval" cx="27" cy="32" fill="#e64c3c" r="3"/><circle id="Oval" cx="33" cy="32" fill="#e64c3c" r="3"/><circle id="Oval" cx="23" cy="29" fill="#c03a2b" r="2"/><circle id="Oval" cx="37" cy="29" fill="#c03a2b" r="2"/></g></svg>