<svg height="512" viewBox="0 0 46 58" width="512" xmlns="http://www.w3.org/2000/svg"><g id="Page-1" fill="none" fill-rule="evenodd"><g id="006---eye-monster" fill-rule="nonzero" transform="translate(-1)"><path id="Shape" d="m14.82 48.86c-.1487107.0768314-.3023859.1436467-.46.2-2.1176334.7168546-4.1605727 1.6378518-6.1 2.75-.34920294.2115183-.67736512.4559657-.98.73-1.0651919 1.2174835-1.88369048 2.6303275-2.41 4.16-.18628144.4978175-.5630643.9010067-1.04714302 1.1205308-.48407871.2195241-1.03563111.2373241-1.53285698.0494692-.87883202-.3428493-1.40521252-1.2464-1.27-2.18.28440643-2.6528589 1.27554504-5.1807804 2.87-7.32 2.22262995-2.2607272 4.73439217-4.2176825 7.47-5.82.9703688-.5896214 2.1654814-.6752525 3.21-.23z" fill="#3b97d3"/><path id="Shape" d="m33.43 42.32c1.0402967-.4436613 2.2302075-.3618549 3.2.22 2.737293 1.6082514 5.2520351 3.568271 7.48 5.83 1.594455 2.1392196 2.5855936 4.6671411 2.87 7.32.1352125.9336-.391168 1.8371507-1.27 2.18-.4945605.1880338-1.0436424.1713748-1.525894-.0462951-.4822516-.21767-.8579656-.6184287-1.044106-1.1137049-.5330014-1.531772-1.3544681-2.9472746-2.42-4.17-.3026349-.2740343-.6307971-.5184817-.98-.73-1.9394273-1.1121482-3.9823666-2.0331454-6.1-2.75-.1576141-.0563533-.3112893-.1231686-.46-.2z" fill="#3b97d3"/><path id="Shape" d="m34 45.5c-.000862 1.1694401-.2820522 2.3216344-.82 3.36-.5496743 1.0723046-1.3198487 2.0162795-2.26 2.77l-4.22 2.05c-1.7747177.4266524-3.6252823.4266524-5.4 0l-4.22-2.05c-.9401513-.7537205-1.7103257-1.6976954-2.26-2.77-.5379478-1.0383656-.819138-2.1905599-.82-3.36.0188146-1.0836521.2112571-2.1572784.57-3.18 1.0518753-3.2974842 3.3625876-6.0466209 6.43-7.65v-.08c-.08594-2.338456-.6760678-4.6307444-1.73-6.72-.5664249-1.2044193-1.2285482-2.3614631-1.98-3.46h13.42c-.7514518 1.0985369-1.4135751 2.2555807-1.98 3.46-1.0539322 2.0892556-1.64406 4.381544-1.73 6.72v.08c3.0674124 1.6033791 5.3781247 4.3525158 6.43 7.65.3587429 1.0227216.5511854 2.0963479.57 3.18z" fill="#67b9cc"/><path id="Shape" d="m30.71 24.41c-.7514518 1.0985369-1.4135751 2.2555807-1.98 3.46-3.0719351 1.0132636-6.3880649 1.0132636-9.46 0-.5664249-1.2044193-1.2285482-2.3614631-1.98-3.46h4.52c1.4452657.2933395 2.9347343.2933395 4.38 0z" fill="#2fa8cc"/><circle id="Oval" cx="24" cy="11" fill="#ecf0f1" r="11"/><circle id="Oval" cx="24" cy="10.5" fill="#fff" r="9.5"/><circle id="Oval" cx="24" cy="9" fill="#ff5364" r="5"/><circle id="Oval" cx="24" cy="8" fill="#35495e" r="2"/><path id="Shape" d="m21.323 53.659-4.129 3.833c-.7450588.6610266-1.8611906.6788711-2.627.042-.6379713-.5207143-.7533989-1.4511839-.262-2.112l3.269-4.449c.8037734-1.0096599 2.2285541-1.2728604 3.34-.617.5212911.2750492.8970469.763377 1.0293554 1.3377383.1323086.5743612.0080653 1.1778677-.3403554 1.6532617-.0836797.1122751-.1773992.2167054-.28.312z" fill="#9fc9d3"/><path id="Shape" d="m26.677 53.659 4.129 3.833c.7450588.6610266 1.8611906.6788711 2.627.042.6379713-.5207143.7533989-1.4511839.262-2.112l-3.269-4.449c-.8037734-1.0096599-2.2285541-1.2728604-3.34-.617-.5212911.2750492-.8970469.763377-1.0293554 1.3377383-.1323086.5743612-.0080653 1.1778677.3403554 1.6532617.0836797.1122751.1773992.2167054.28.312z" fill="#9fc9d3"/><path id="Shape" d="m25.737 45.056c.0931057-.0272686.1884987-.0460125.285-.056.5522847-.0060751.9950751-.4587153.989-1.011s-.4587153-.9950751-1.011-.989c-.7097381.0432811-1.3973296.2636542-2 .641-.6026704-.3773458-1.2902619-.5977189-2-.641-.5392892.001046-.9778979.4347565-.985.974-.0082514.544619.4160348.9980749.96 1.026.0979976.0081329.1948656.026568.289.055-.4038831.4326258-.7717718.8975033-1.1 1.39-.306518.4595009-.1825009 1.0804819.277 1.387.4595009.306518 1.080482.1825009 1.387-.277.3376885-.5146757.7306952-.9908443 1.172-1.42.4399067.4293648.8315656.9055256 1.168 1.42.1982824.297245.5400812.4661283.8966441.4430332s.6737195-.2346599.832-.555.1336383-.7007882-.0646441-.9980332c-.3263001-.4922388-.6925347-.956805-1.095-1.389z" fill="#2fa8cc"/><path id="Shape" d="m24 26c-3.8740518.0053885-7.598428-1.4956936-10.386-4.186-.7963946-.7654667-.8214666-2.0316054-.056-2.828.7654667-.7963946 2.0316054-.8214666 2.828-.056 4.2508046 4.0932588 10.9771954 4.0932588 15.228 0 .7963946-.7654666 2.0625333-.7403945 2.8279999.0560001.7654667.7963945.7403946 2.0625332-.0559999 2.8279999-2.787572 2.6903064-6.5119482 4.1913885-10.386 4.186z" fill="#67b9cc"/><circle id="Oval" cx="22" cy="6" fill="#fff" r="2"/></g></g></svg>