<svg height="512pt" viewBox="0 -20 512.00023 512" width="512pt" xmlns="http://www.w3.org/2000/svg"><path d="m480.855469 427.394531-68.480469 20.570313-71.605469 21.523437c-4.164062 1.25-8.414062 1.871094-12.632812 1.871094-7.132813 0-14.203125-1.769531-20.664063-5.242187-10.28125-5.53125-17.792968-14.742188-21.152344-25.921876l-42.085937-140.089843c-6.941406-23.082031 6.203125-47.515625 29.285156-54.445313l71.339844-21.433594 68.746094-20.664062c11.183593-3.347656 23.003906-2.160156 33.296875 3.371094 10.28125 5.53125 17.792968 14.742187 21.152344 25.925781l42.09375 140.085937c6.933593 23.082032-6.210938 47.515626-29.292969 54.449219zm0 0" fill="#73e5e5"/><path d="m480.855469 427.394531-68.480469 20.570313-67.515625-223.738282 68.746094-20.664062c11.183593-3.347656 23.003906-2.160156 33.296875 3.371094 10.28125 5.53125 17.792968 14.742187 21.152344 25.925781l42.09375 140.085937c6.933593 23.082032-6.210938 47.515626-29.292969 54.449219zm0 0" fill="#50cee2"/><path d="m346.339844 233.507812-73.191406 3.390626-72.917969 3.378906c-.691407.03125-1.371094.042968-2.050781.042968-23.183594 0-42.566407-18.292968-43.644532-41.695312l-6.773437-146.121094c-.539063-11.660156 3.492187-22.84375 11.363281-31.472656 7.859375-8.621094 18.621094-13.671875 30.28125-14.210938l73.171875-3.390624 72.949219-3.382813c11.660156-.539063 22.84375 3.492187 31.472656 11.363281 8.632812 7.859375 13.683594 18.621094 14.222656 30.285156l6.769532 146.117188c1.113281 24.082031-17.570313 44.574219-41.652344 45.695312zm0 0" fill="#d7fbff"/><path d="m247.867188 261.03125-15.171876 145.488281c-1.222656 11.613281-6.882812 22.0625-15.953124 29.414063-7.863282 6.382812-17.472657 9.773437-27.453126 9.773437-1.53125 0-3.070312-.082031-4.621093-.242187l-71.78125-7.492188-73.699219-7.6875c-11.621094-1.210937-22.0625-6.871094-29.421875-15.945312-7.351563-9.070313-10.742187-20.460938-9.523437-32.074219l15.171874-145.488281c1.222657-11.609375 6.882813-22.0625 15.945313-29.414063 9.070313-7.359375 20.460937-10.738281 32.082031-9.53125l72.609375 7.582031 72.871094 7.601563c11.609375 1.210937 22.0625 6.871094 29.421875 15.941406 7.351562 9.070313 10.730469 20.464844 9.523438 32.074219zm0 0" fill="#d7fbff"/><path d="m247.867188 261.03125-15.171876 145.488281c-1.222656 11.613281-6.882812 22.0625-15.953124 29.414063-7.863282 6.382812-17.472657 9.773437-27.453126 9.773437-1.53125 0-3.070312-.082031-4.621093-.242187l-71.78125-7.492188 23.164062-232.558594 72.871094 7.601563c11.609375 1.210937 22.0625 6.871094 29.421875 15.941406 7.351562 9.070313 10.730469 20.464844 9.523438 32.074219zm0 0" fill="#a2f0f4"/><path d="m346.339844 233.507812-73.191406 3.390626-10.570313-233.46875 72.949219-3.382813c11.660156-.539063 22.84375 3.492187 31.472656 11.363281 8.632812 7.859375 13.683594 18.621094 14.222656 30.285156l6.769532 146.117188c1.113281 24.082031-17.570313 44.574219-41.652344 45.695312zm0 0" fill="#a2f0f4"/><path d="m265.949219 77.769531c-1.3125.457031-2.710938.730469-4.171875.796875l-35.445313 1.703125 1.679688 34.964844c.402343 8.28125-5.988281 15.3125-14.269531 15.699219-.242188.011718-.480469.019531-.730469.019531-7.953125 0-14.582031-6.25-14.972657-14.28125l-2.089843-43.683594c-.269531-5.679687 1.679687-11.121093 5.5-15.324219 3.832031-4.210937 9.0625-6.667968 14.730469-6.949218l44.15625-2.109375c1.480468-.070313 2.933593.070312 4.300781.398437 6.300781 1.539063 11.082031 7.070313 11.402343 13.863282.332032 6.820312-3.949218 12.789062-10.089843 14.902343zm0 0" fill="#fff"/><path d="m140.921875 267.992188c-.699219 6.882812-5.941406 12.191406-12.429687 13.28125-1.300782.222656-2.640626.269531-4.011719.132812l-35.296875-3.59375-3.550782 34.824219c-.777343 7.722656-7.300781 13.484375-14.898437 13.484375-.511719 0-1.023437-.03125-1.542969-.082032-8.238281-.839843-14.242187-8.199218-13.402344-16.441406l4.433594-43.515625c.570313-5.648437 3.308594-10.742187 7.71875-14.332031 4.402344-3.589844 9.953125-5.25 15.59375-4.671875l43.984375 4.472656c1.351563.140625 2.632813.449219 3.839844.917969 6.183594 2.351562 10.261719 8.632812 9.5625 15.523438zm0 0" fill="#fff"/><path d="m367.171875 298.175781c-1.070313.660157-2.25 1.199219-3.519531 1.582031l-33.964844 10.25 10.109375 33.515626c2.402344 7.929687-2.089844 16.300781-10.019531 18.691406-1.453125.441406-2.910156.648437-4.339844.648437-6.453125 0-12.402344-4.1875-14.363281-10.667969l-12.632813-41.878906c-3.390625-11.230468 2.992188-23.121094 14.222656-26.511718l42.316407-12.773438c1.269531-.378906 2.550781-.589844 3.808593-.636719 6.640626-.242187 12.871094 4 14.894532 10.660157 2.007812 6.671874-.84375 13.652343-6.511719 17.121093zm0 0" fill="#fff"/><g fill="#d7fbff"><path d="m140.921875 267.992188c-.699219 6.882812-5.941406 12.191406-12.429687 13.28125l2.867187-28.804688c6.183594 2.351562 10.261719 8.632812 9.5625 15.523438zm0 0"/><path d="m265.949219 77.769531-1.3125-28.765625c6.300781 1.539063 11.082031 7.070313 11.402343 13.863282.332032 6.820312-3.949218 12.789062-10.089843 14.902343zm0 0"/><path d="m367.171875 298.175781-8.382813-27.78125c6.640626-.242187 12.871094 4 14.894532 10.660157 2.007812 6.671874-.84375 13.652343-6.511719 17.121093zm0 0"/></g></svg>