<?xml version="1.0" encoding="iso-8859-1"?>
<!-- Generator: Adobe Illustrator 19.0.0, SVG Export Plug-In . SVG Version: 6.00 Build 0)  -->
<svg version="1.1" id="Layer_1" xmlns="http://www.w3.org/2000/svg" xmlns:xlink="http://www.w3.org/1999/xlink" x="0px" y="0px"
	 viewBox="0 0 511.999 511.999" style="enable-background:new 0 0 511.999 511.999;" xml:space="preserve">
<path style="fill:#EAC6BB;" d="M255.999,117.417c-76.669,0-138.817,70.595-138.817,176.559s84.204,196.53,138.817,196.53
	c54.605,0,138.817-90.566,138.817-196.53C394.816,188.012,332.669,117.417,255.999,117.417z"/>
<path style="fill:#DA4453;" d="M372.269,389.352L244.475,261.559l-15.076,15.052l132.283,132.291
	C365.46,402.641,369.005,396.113,372.269,389.352z"/>
<path style="fill:#FC6E51;" d="M298.565,383.918h-42.566h-42.621c0,0-42.66,39.537-42.66,63.959
	c0,24.359,67.777,63.709,85.281,63.959c17.488-0.25,85.273-39.6,85.273-63.959C341.272,423.455,298.565,383.918,298.565,383.918z"/>
<path style="fill:#ED5564;" d="M298.472,362.588c-8.557,0-16.583-3.311-22.61-9.354c-6.051-6.043-9.376-14.069-9.376-22.626
	c0-8.526,3.325-16.552,9.376-22.61c6.027-6.027,14.054-9.369,22.61-9.369c8.541,0,16.568,3.342,22.611,9.369
	c6.027,6.059,9.369,14.084,9.369,22.61c0,8.557-3.342,16.583-9.369,22.61C315.04,359.277,307.013,362.588,298.472,362.588z"/>
<path style="fill:#DA4453;" d="M328.608,300.472c-8.307-8.339-19.237-12.492-30.137-12.492c-10.914,0-21.83,4.153-30.152,12.492
	c-16.653,16.646-16.653,43.644,0,60.305c8.322,8.308,19.238,12.492,30.152,12.492c10.899,0,21.83-4.185,30.137-12.492
	C345.27,344.115,345.27,317.117,328.608,300.472z M313.54,345.692c-4.028,4.028-9.385,6.246-15.068,6.246
	c-5.699,0-11.055-2.218-15.084-6.246c-4.028-4.028-6.246-9.369-6.246-15.084c0-5.684,2.218-11.04,6.246-15.068
	c4.029-4.013,9.385-6.23,15.084-6.23c5.684,0,11.04,2.218,15.068,6.23c4.029,4.028,6.246,9.385,6.246,15.068
	C319.786,336.323,317.569,341.664,313.54,345.692z"/>
<g>
	<path style="fill:#434A54;" d="M213.354,330.608c0,5.902-4.771,10.681-10.657,10.681s-10.657-4.778-10.657-10.681
		c0-5.871,4.771-10.649,10.657-10.649S213.354,324.737,213.354,330.608z"/>
	<path style="fill:#434A54;" d="M266.656,405.248h-21.322c-5.887,0-10.657,4.763-10.657,10.649s4.771,10.649,10.657,10.649h21.322
		c5.896,0,10.657-4.763,10.657-10.649S272.552,405.248,266.656,405.248z"/>
</g>
<path style="fill:#656D78;" d="M228.782,321.083L228.782,321.083l-42.637-21.33l-0.008,0.016c-1.429-0.718-3.045-1.14-4.763-1.14
	c-5.887,0-10.657,4.778-10.657,10.681c0,4.153,2.405,7.776,5.895,9.525l0,0l42.637,21.314l0.008-0.016
	c1.429,0.733,3.045,1.155,4.763,1.155c5.887,0,10.657-4.778,10.657-10.681C234.677,326.455,232.272,322.832,228.782,321.083z"/>
<path style="fill:#434A54;" d="M492.785,209.795c-13.366-12.008-31.901-21.314-51.53-31.152
	c-10.977-5.497-22.328-11.196-32.557-17.333c-14.803-8.9-29.902-34.509-45.877-61.617c-27.404-46.517-58.463-99.218-106.76-99.53
	h-0.062h-0.07c-48.297,0.312-79.355,53.013-106.76,99.53c-15.982,27.107-31.074,52.716-45.876,61.617
	c-10.228,6.137-21.58,11.836-32.558,17.333c-19.628,9.837-38.171,19.144-51.537,31.152C2.521,224.801-3.335,242.29,1.803,261.777
	c4.138,15.74,12.18,27.42,23.891,34.728c10.189,6.371,23.087,9.463,39.428,9.463c22.884,0,50.592-6.09,79.925-12.539
	c34.361-7.542,73.312-16.099,110.64-16.099c37.289,0,76.31,8.541,110.742,16.083c29.449,6.465,57.275,12.555,80.261,12.555l0,0
	c16.396,0,29.325-3.092,39.553-9.432c11.759-7.308,19.815-19.019,23.954-34.759C515.333,242.29,509.478,224.801,492.785,209.795z"/>
<g style="opacity:0.2;">
	<path style="fill:#FFFFFF;" d="M492.785,209.795c-13.366-12.008-31.901-21.314-51.53-31.152
		c-10.977-5.497-22.328-11.196-32.557-17.333c-14.803-8.9-29.902-34.509-45.877-61.617c-27.404-46.517-58.463-99.218-106.76-99.53
		h-0.062h-0.07c-3.623,0.031-7.151,0.343-10.595,0.937c42.349,7.245,70.813,55.558,96.173,98.593
		c15.975,27.107,31.074,52.716,45.877,61.617c10.229,6.137,21.58,11.836,32.557,17.333c19.629,9.837,38.18,19.144,51.53,31.152
		c16.692,15.006,22.532,32.495,17.411,51.982c-4.154,15.74-12.211,27.451-23.954,34.759c-8.026,4.966-17.707,7.933-29.419,8.995
		c3.842,0.28,7.574,0.437,11.181,0.437l0,0c16.396,0,29.325-3.092,39.553-9.432c11.759-7.308,19.815-19.019,23.954-34.759
		C515.333,242.29,509.478,224.801,492.785,209.795z"/>
</g>
<path style="fill:#E6E9ED;" d="M319.786,160.062c0-35.321-28.638-63.959-63.958-63.959c-35.321,0-63.959,28.638-63.959,63.959
	c0,18.941,8.237,35.945,21.322,47.657v26.952h85.281v-26.952C311.558,196.007,319.786,179.002,319.786,160.062z"/>
<g>
	<path style="fill:#434A54;" d="M239.837,160.062c0,5.887-4.77,10.649-10.657,10.649s-10.665-4.763-10.665-10.649
		s4.778-10.665,10.665-10.665C235.067,149.396,239.837,154.175,239.837,160.062z"/>
	<path style="fill:#434A54;" d="M293.132,160.062c0,5.887-4.763,10.649-10.649,10.649c-5.903,0-10.665-4.763-10.665-10.649
		s4.762-10.665,10.665-10.665C288.369,149.396,293.132,154.175,293.132,160.062z"/>
</g>
<g>
	<path style="fill:#CCD1D9;" d="M245.17,224.021c-5.887,0-10.665,4.778-10.665,10.649h21.323
		C255.828,228.799,251.057,224.021,245.17,224.021z"/>
	<path style="fill:#CCD1D9;" d="M266.485,224.021c-5.888,0-10.658,4.778-10.658,10.649h21.314
		C277.142,228.799,272.364,224.021,266.485,224.021z"/>
	<path style="fill:#CCD1D9;" d="M287.808,224.021c-5.888,0-10.666,4.778-10.666,10.649h21.33
		C298.472,228.799,293.694,224.021,287.808,224.021z"/>
	<path style="fill:#CCD1D9;" d="M223.848,224.021c-5.887,0-10.657,4.778-10.657,10.649h21.314
		C234.505,228.799,229.735,224.021,223.848,224.021z"/>
</g>
<g>
</g>
<g>
</g>
<g>
</g>
<g>
</g>
<g>
</g>
<g>
</g>
<g>
</g>
<g>
</g>
<g>
</g>
<g>
</g>
<g>
</g>
<g>
</g>
<g>
</g>
<g>
</g>
<g>
</g>
</svg>
