<svg height="512pt" viewBox="-13 0 512 512" width="512pt" xmlns="http://www.w3.org/2000/svg"><path d="m198.757812 25.433594c-3.84375 0-7.34375 1.449218-10.011718 3.8125-2.667969-2.363282-6.164063-3.8125-10.011719-3.8125-8.34375 0-15.109375 6.765625-15.109375 15.113281 0 8.34375 6.765625 15.109375 15.109375 15.109375.0625 0 .121094-.007812.183594-.007812v45.121093h19.660156v-45.125c.058594.003907.117187.007813.179687.007813 8.34375 0 15.109376-6.761719 15.109376-15.109375 0-8.34375-6.765626-15.109375-15.109376-15.109375zm0 0" fill="#d8e6f0"/><path d="m420.585938 124.550781-36.105469 111.5v58.296875c0 17.367188-14.082031 31.453125-31.449219 31.453125h-7.519531v178.691407h-174.25v-178.695313h-21.480469c-7.125 0-13.792969-3.472656-17.867188-9.308594l-80.726562-115.371093c-4.597656-6.566407-2.996094-15.605469 3.574219-20.203126l7.164062-5.011718c11.511719-8.058594 25.894531-9.597656 38.4375-4.976563l.011719.011719c1.160156.417969 2.300781.890625 3.414062 1.417969l.007813.011719c1.121094.519531 2.222656 1.101562 3.292969 1.730468 0 .011719 0 .011719.011718.011719 4.957032 2.917969 9.421876 6.886719 13.0625 12.082031l24.59375 35.152344h.011719l4.011719 5.746094h16.285156l-.21875-128.945313c0-3.824219 3.101563-6.9375 6.925782-6.9375h33.953124c3.824219 0 6.929688 3.105469 6.929688 6.929688v73.648437c0 .101563.007812.191406.007812.28125 0 .128906 0 .261719.011719.382813.167969 2.550781 1.269531 4.84375 2.960938 6.535156 1.84375 1.839844 4.394531 2.984375 7.199219 2.984375 5.625 0 10.179687-4.558594 10.179687-10.183594v-147.871094c0-6.609374 2.671875-12.582031 6.996094-16.90625 1.953125-1.953124 4.234375-3.566406 6.757812-4.746093.359375-.171875.730469-.332031 1.101563-.480469l.179687-.070312c.359375-.148438.730469-.289063 1.089844-.410157.410156-.140625.820313-.269531 1.242187-.390625.410157-.121094.832032-.230468 1.261719-.320312.386719-.089844.789063-.167969 1.191407-.238282l.15625-.03125c.410156-.070312.832031-.121093 1.253906-.171874.4375-.046876.878906-.0898442 1.328125-.1093755.453125-.0273437.902343-.0390625 1.351562-.0390625 13.203125 0 23.902344 10.699219 23.902344 23.914062v147.871094c0 .101563 0 .191406.011719.28125 0 .128906 0 .261719.011718.382813.167969 2.550781 1.269532 4.84375 2.960938 6.535156 1.84375 1.839844 4.382812 2.984375 7.199219 2.984375 5.625 0 10.179687-4.558594 10.179687-10.183594v-110.503906c0-6.605469 2.671875-12.582031 6.996094-16.90625 1.953125-1.953125 4.234375-3.566406 6.757812-4.746094.378907-.179687.78125-.351562 1.167969-.511718.402344-.15625.800781-.308594 1.203125-.449219.410156-.140625.820313-.269531 1.242188-.390625.410156-.121094.828125-.21875 1.257812-.320313.851563-.199219 1.714844-.339843 2.59375-.4375.441406-.050781.878906-.089843 1.332032-.113281.449218-.027344.898437-.039062 1.351562-.039062 13.210938 0 23.910156 10.710937 23.910156 23.914062v113.742188c0 1.910156.78125 3.652343 2.03125 4.914062 1.261719 1.25 3.003906 2.03125 4.917969 2.03125 2.910156 0 5.515625-1.820312 6.515625-4.554688l19.769531-66.914062c1.722657-4.695312 4.984375-8.378906 9.007813-10.683594.570312-.328125 1.160156-.628906 1.773437-.898437.1875-.089844.386719-.171875.589844-.261719.359375-.140625.710937-.277344 1.070313-.398438.199218-.070312.402343-.140624.601562-.203124.121094-.039063.238281-.078126.359375-.109376.160156-.050781.332031-.097656.492187-.140624.859376-.230469 1.730469-.410157 2.609376-.519532.203124-.03125.402343-.050781.601562-.070312.171875-.019532.351562-.039063.519531-.050782.171875-.007812.351563-.027343.53125-.027343 2.664063-.140625 5.386719.25 8.050781 1.21875 10.589844 3.875 16.023438 15.605469 12.140626 26.195312zm0 0" fill="#bfea92"/><g fill="#9bc66a"><path d="m260.53125 23.910156v147.878906c0 5.621094 4.554688 10.179688 10.179688 10.179688 5.433593 0 9.859374-4.265625 10.148437-9.628906-.007813-.183594-.027344-.363282-.027344-.550782v-147.878906c0-13.207031-10.703125-23.910156-23.910156-23.910156-3.628906 0-7.070313.8125-10.152344 2.261719 8.128907 3.816406 13.761719 12.074219 13.761719 21.648437zm0 0"/><path d="m192.355469 98.136719v73.652343c0 5.621094 4.554687 10.179688 10.179687 10.179688 5.433594 0 9.863282-4.265625 10.148438-9.628906-.007813-.183594-.027344-.363282-.027344-.550782v-73.652343c0-3.824219-3.101562-6.925781-6.925781-6.925781h-20.304688c3.828125 0 6.929688 3.101562 6.929688 6.925781zm0 0"/><path d="m148.78125 227.09375h-20.308594l-28.621094-40.902344c-6.015624-8.597656-14.683593-14.234375-24.132812-16.585937 7.914062-1.988281 16.574219-1.636719 24.644531 1.320312l.007813.011719c1.152344.417969 2.292968.902344 3.414062 1.421875l.011719.007813c1.121094.53125 2.210937 1.113281 3.292969 1.734374 0 .007813 0 .007813.007812.007813 4.972656 2.929687 9.457032 6.933594 13.0625 12.082031l24.597656 35.15625h.007813zm0 0"/><path d="m408.441406 98.351562c-5.894531-2.160156-12.136718-1.425781-17.1875 1.46875 8.488282 4.851563 12.511719 15.242188 9.035156 24.730469l-36.113281 111.503907v58.292968c0 17.367188-14.078125 31.449219-31.449219 31.449219h-4.277343c-1.789063 0-3.234375 1.445313-3.234375 3.234375v175.460938h20.300781v-178.695313h7.511719c17.371094 0 31.449218-14.082031 31.449218-31.449219v-58.292968l36.113282-111.503907c3.878906-10.589843-1.558594-22.320312-12.148438-26.199219zm0 0"/><path d="m325.097656 37.371094c-3.628906 0-7.070312.8125-10.152344 2.261718 8.128907 3.816407 13.757813 12.070313 13.757813 21.644532v115.820312c0 5.605469 4.546875 10.152344 10.152344 10.152344s10.152343-4.546875 10.152343-10.152344v-115.816406c0-13.207031-10.707031-23.910156-23.910156-23.910156zm0 0"/><path d="m245.035156 292.542969c4.148438 0 7.507813-3.359375 7.507813-7.507813v-9.953125c0-34.8125-28.320313-63.132812-63.132813-63.132812h-24.371094l.027344 15.015625h24.34375c26.535156 0 48.117188 21.585937 48.117188 48.117187v9.953125c0 4.148438 3.363281 7.507813 7.507812 7.507813zm0 0"/></g><path d="m424.019531 504.492188h-360.675781c-.429688-2.632813-.65625-5.34375-.65625-8.105469 0-27.789063 22.515625-50.320313 50.320312-50.320313 8.242188 0 16.007813 2 22.886719 5.507813 13.640625-25.949219 40.859375-43.65625 72.214844-43.65625 35.210937 0 65.214844 22.316406 76.640625 53.589843 10.222656-2.039062 20.949219-3.144531 32.03125-3.144531 45.683594 0 85.605469 18.519531 107.238281 46.128907zm0 0" fill="#b78358"/><path d="m244.621094 458.046875c2.453125 4.894531 7.816406 7.671875 13.242187 6.925781 7.289063-1.003906 14.796875-1.53125 22.476563-1.53125 42.820312 0 80.582031 16.269532 102.960937 41.050782h40.71875c-21.632812-27.609376-61.554687-46.125-107.238281-46.125-11.082031 0-21.808594 1.101562-32.03125 3.140624-11.421875-31.273437-41.429688-53.585937-76.636719-53.585937-10.296875 0-20.144531 1.917969-29.214843 5.402344 28.820312 2.53125 53.34375 20.046875 65.722656 44.722656zm0 0" fill="#935d38"/><path d="m286.429688 387.429688c-4.148438 0-7.507813-3.363282-7.507813-7.507813v-45.101563c0-4.148437 3.359375-7.507812 7.507813-7.507812 4.144531 0 7.507812 3.363281 7.507812 7.507812v45.101563c0 4.144531-3.363281 7.507813-7.507812 7.507813zm0 0" fill="#9bc66a"/><path d="m245.035156 387.429688c-4.144531 0-7.503906-3.363282-7.503906-7.507813v-28.371094c0-4.148437 3.359375-7.507812 7.503906-7.507812 4.148438 0 7.507813 3.359375 7.507813 7.507812v28.371094c0 4.144531-3.359375 7.507813-7.507813 7.507813zm0 0" fill="#9bc66a"/><path d="m78.320312 211.835938c4.984376-4.367188 5.953126-11.757813 2.265626-17.261719l-14.285157-21.339844c-1.492187.792969-2.953125 1.671875-4.375 2.667969l-7.167969 5.015625c-6.5625 4.59375-8.160156 13.636719-3.570312 20.199219l14.960938 21.382812zm0 0" fill="#e6eff5"/><path d="m479.199219 512h-471.691407c-4.148437 0-7.507812-3.359375-7.507812-7.507812 0-4.144532 3.359375-7.507813 7.507812-7.507813h471.691407c4.148437 0 7.507812 3.363281 7.507812 7.507813 0 4.148437-3.363281 7.507812-7.507812 7.507812zm0 0" fill="#935d38"/></svg>