<svg xmlns="http://www.w3.org/2000/svg" viewBox="0 0 513 513" width="513" height="513">
	<style>
		tspan { white-space:pre }
		.shp0 { fill: #506366 } 
		.shp1 { fill: #3a484a } 
		.shp2 { fill: #efedee } 
		.shp3 { fill: #c86d5c } 
		.shp4 { fill: #fbc4ac } 
		.shp5 { fill: #fd6f71 } 
		.shp6 { fill: #ad4f3d } 
	</style>
	<path id="Layer" class="shp0" d="M176.16 366.43L140.5 366.43C140.5 366.43 53.07 398.8 68.7 512L111.26 512L118.99 505.03L126.71 512L176.16 512L199.86 442.15L176.16 366.43Z" />
	<path id="Layer" class="shp1" d="M163.16 366.43L140.5 366.43C140.5 366.43 53.07 398.8 68.7 512L91.37 512C75.73 398.8 163.16 366.43 163.16 366.43Z" />
	<path id="Layer" class="shp2" d="M304.06 499.53L213.4 430.59L176.16 430.59L176.16 430.59L176.16 512L291.54 512L291.54 512L304.06 499.53Z" />
	<path id="Layer" class="shp0" d="M371.5 366.43L335.84 366.43L335.84 366.43L312.15 442.15L335.84 512L335.84 512L385.29 512L393.02 504.34L400.74 512L443.3 512C458.94 398.8 371.5 366.43 371.5 366.43Z" />
	<g id="Layer">
		<path id="Layer" class="shp1" d="M111.26 512L111.26 456.54C111.26 452.28 114.72 448.82 118.99 448.82C123.25 448.82 126.71 452.28 126.71 456.54L126.71 512L111.26 512Z" />
		<path id="Layer" class="shp1" d="M385.29 512L385.29 456.54C385.29 452.28 388.75 448.82 393.02 448.82C397.28 448.82 400.74 452.28 400.74 456.54L400.74 512L385.29 512Z" />
	</g>
	<path id="Layer" class="shp2" d="M335.84 387.55L335.84 366.43L182.31 366.43C186.24 371.92 191.85 379.19 199.32 387.55L176.16 387.55L199.85 430.59L294.1 481.03L335.84 481.03L335.84 387.55L335.84 387.55Z" />
	<path id="Layer" class="shp3" d="M228.37 416C205.07 395.9 190.26 377.55 182.31 366.43L176.16 366.43L176.16 430.59C182.07 436.59 188.65 442.85 195.98 449.27C220.86 471.05 249.31 490.31 280.54 506.5C284.16 508.38 287.84 510.2 291.54 512L335.84 512L335.84 481.03C286.76 460.65 251.61 436.05 228.37 416Z" />
	<g id="Layer">
		<path id="Layer" class="shp4" d="M64.97 274.06C43.56 274.06 26.25 256.75 26.25 235.34C26.25 213.92 43.56 196.61 64.97 196.61C86.39 196.61 103.7 213.92 103.7 235.34C103.7 256.75 86.39 274.06 64.97 274.06Z" />
		<path id="Layer" class="shp4" d="M447.03 274.06C425.61 274.06 408.3 256.75 408.3 235.34C408.3 213.92 425.61 196.61 447.03 196.61C468.44 196.61 485.75 213.92 485.75 235.34C485.75 256.75 468.44 274.06 447.03 274.06Z" />
		<path id="Layer" class="shp4" d="M424.18 162.77L88.17 162.77L88.17 216.38C87.95 219.86 87.82 223.36 87.82 226.9C87.82 318.51 163.12 392.78 256 392.78C348.88 392.78 424.18 318.51 424.18 226.9C424.18 223.36 424.05 219.86 423.83 216.38L424.18 216.38L424.18 162.77L424.18 162.77Z" />
	</g>
	<path id="Layer" class="shp1" d="M156.09 257.91C151.82 257.91 148.36 254.45 148.36 250.18L148.36 224.63C148.36 220.37 151.82 216.91 156.09 216.91C160.35 216.91 163.81 220.37 163.81 224.63L163.81 250.18C163.81 254.45 160.35 257.91 156.09 257.91Z" />
	<path id="Layer" class="shp5" d="M173.7 202.72L173.37 184.79L157.69 193.48C151.52 189.92 143.63 192.03 140.07 198.2L140.07 198.2C136.51 204.37 138.62 212.25 144.79 215.82L160.8 225.06C166.97 228.62 174.85 226.51 178.42 220.34L178.42 220.34C181.98 214.17 179.86 206.28 173.7 202.72Z" />
	<path id="Layer" class="shp1" d="M355.92 257.91C351.65 257.91 348.19 254.45 348.19 250.18L348.19 224.63C348.19 220.37 351.65 216.91 355.92 216.91C360.18 216.91 363.64 220.37 363.64 224.63L363.64 250.18C363.64 254.45 360.18 257.91 355.92 257.91Z" />
	<path id="Layer" class="shp5" d="M338.31 205.72L338.63 187.8L354.31 196.48C360.48 192.92 368.37 195.03 371.93 201.2L371.93 201.2C375.49 207.37 373.38 215.25 367.21 218.82L351.2 228.06C345.04 231.62 337.15 229.51 333.59 223.34L333.59 223.34C330.03 217.17 332.14 209.28 338.31 205.72Z" />
	<path id="Layer" class="shp3" d="M65.36 204.4C29.08 143 -2.58 101.13 48.25 101.13C136.16 101.13 123.25 0 256 0C388.75 0 375.84 101.13 463.75 101.13C514.58 101.13 482.93 143 446.65 204.4L65.36 204.4L65.36 204.4Z" />
	<path id="Layer" class="shp6" d="M64.4 99.85C59.4 100.68 54.05 101.13 48.25 101.13C-2.58 101.13 29.08 143 65.36 204.4L108.17 204.4C79.23 155.42 56.5 117.56 64.4 99.85Z" />
	<path id="Layer" class="shp5" d="M447.02 216.34C447.02 212.33 446.89 208.35 446.64 204.4L403.83 204.4C403.83 296.69 359.02 303.9 359.02 303.9C317.81 313.17 297.72 270.42 256 270.42C214.28 270.42 194.19 313.17 152.98 303.9C152.98 303.9 108.17 296.69 108.17 204.4L65.36 204.4C65.11 208.35 64.98 212.33 64.98 216.34C64.98 236.1 68.07 255.15 73.79 273.04L73.79 273.04C73.79 344.94 93.89 381.74 114.34 342.73C133.41 388.2 168.78 439.78 176.16 387.55C197.28 433.92 251.88 483.98 256 404.76C260.12 483.98 314.72 433.92 335.84 387.55C343.22 439.78 378.59 388.21 397.66 342.73C418.11 381.74 438.22 344.94 438.22 273.04L438.21 273.04C443.93 255.15 447.02 236.1 447.02 216.34Z" />
	<path id="Layer" class="shp1" d="M256 292.92C265.74 292.92 274.88 296.99 281.08 304.08C283.89 307.3 283.56 312.18 280.35 314.99C277.14 317.79 272.26 317.47 269.45 314.25C266.18 310.52 261.28 308.37 256 308.37C250.72 308.37 245.82 310.52 242.55 314.25C239.75 317.47 234.86 317.8 231.65 314.99C228.44 312.18 228.11 307.3 230.92 304.08C237.12 296.99 246.26 292.92 256 292.92Z" />
	<path id="Layer" class="shp2" d="M301.12 139.64L271.67 106.36L301.12 73.07C306.79 78.68 315.93 78.66 321.57 73.02C327.23 67.36 327.23 58.18 321.57 52.51C318.18 49.12 313.52 47.78 309.12 48.45C309.79 44.05 308.45 39.39 305.06 36C299.39 30.34 290.21 30.34 284.55 36C278.91 41.64 278.89 50.78 284.5 56.45L256 88.65L227.5 56.44C233.11 50.78 233.09 41.64 227.45 36C221.79 30.34 212.61 30.34 206.95 36C203.55 39.39 202.21 44.05 202.88 48.45C198.48 47.78 193.83 49.12 190.43 52.51C184.77 58.18 184.77 67.36 190.43 73.02C196.08 78.66 205.21 78.68 210.88 73.07L240.33 106.35L210.88 139.64C205.21 134.03 196.08 134.05 190.43 139.69C184.77 145.35 184.77 154.53 190.43 160.2C193.83 163.59 198.48 164.93 202.88 164.26C202.21 168.66 203.56 173.32 206.95 176.71C212.61 182.37 221.79 182.37 227.45 176.71C233.09 171.07 233.11 161.93 227.5 156.27L256 124.06L284.5 156.27C278.89 161.93 278.91 171.07 284.55 176.71C290.21 182.37 299.39 182.37 305.05 176.71C308.45 173.32 309.79 168.66 309.12 164.26C313.52 164.93 318.17 163.59 321.57 160.2C327.23 154.53 327.23 145.35 321.57 139.69C315.93 134.05 306.79 134.03 301.12 139.64Z" />
	<g id="Layer">
	</g>
	<g id="Layer">
	</g>
	<g id="Layer">
	</g>
	<g id="Layer">
	</g>
	<g id="Layer">
	</g>
	<g id="Layer">
	</g>
	<g id="Layer">
	</g>
	<g id="Layer">
	</g>
	<g id="Layer">
	</g>
	<g id="Layer">
	</g>
	<g id="Layer">
	</g>
	<g id="Layer">
	</g>
	<g id="Layer">
	</g>
	<g id="Layer">
	</g>
	<g id="Layer">
	</g>
</svg>