<svg height="512" viewBox="0 0 64 64" width="512" xmlns="http://www.w3.org/2000/svg"><g id="Zombie"><path d="m46 13a5.47 5.47 0 0 0 -1 .09v-.09a6 6 0 0 0 -6-6 5.842 5.842 0 0 0 -1.867.3 11.926 11.926 0 0 0 11.867 13.7 12.035 12.035 0 0 0 2.761-.334 5.775 5.775 0 0 0 .239-1.666 6 6 0 0 0 -6-6z" fill="#ffa733"/><path d="m56 27v10a5 5 0 0 0 0-10z" fill="#447e1a"/><path d="m3 32a5 5 0 0 0 5 5v-10a5 5 0 0 0 -5 5z" fill="#4e901e"/><path d="m56 27v10a24 24 0 0 1 -48 0v-10a24.006 24.006 0 0 1 24-24 23.728 23.728 0 0 1 6.17.81 12.058 12.058 0 0 0 -1.04 3.49 11.823 11.823 0 0 0 -.13 1.7 11.969 11.969 0 0 0 14.76 11.67 12.254 12.254 0 0 0 3.04-1.16 23.789 23.789 0 0 1 1.2 7.49z" fill="#5eac24"/><path d="m36.17 3.81a12.058 12.058 0 0 0 -1.04 3.49 11.823 11.823 0 0 0 -.13 1.7 12 12 0 0 0 12 12c.3 0 .6-.032.9-.055a11.994 11.994 0 0 1 -10.9-11.945 11.823 11.823 0 0 1 .13-1.7 12.058 12.058 0 0 1 1.04-3.49 23.728 23.728 0 0 0 -6.17-.81c-.379 0-.755.011-1.129.029a23.635 23.635 0 0 1 5.299.781z" fill="#4e901e"/><path d="m54.8 19.51a11.493 11.493 0 0 1 -1.778.772 23.8 23.8 0 0 1 .978 6.718v10a24 24 0 0 1 -23 23.975c.332.013.665.025 1 .025a24.006 24.006 0 0 0 24-24v-10a23.789 23.789 0 0 0 -1.2-7.49z" fill="#4e901e"/><path d="m42 36a6 6 0 0 0 6-6h-12a6 6 0 0 0 6 6z" fill="#ff9811"/><path d="m28 30h-12a6 6 0 0 0 12 0z" fill="#ff9811"/><path d="m32 49c-2.989 0-5.479 1.829-5.92 4.219a21.328 21.328 0 0 0 5.92.781 21.328 21.328 0 0 0 5.92-.781c-.441-2.39-2.931-4.219-5.92-4.219z" fill="#d80027"/><path d="m32 46c-5.523 0-10 1.791-10 4 0 1.322 1.61 2.49 4.08 3.219.441-2.39 2.931-4.219 5.92-4.219s5.479 1.829 5.92 4.219c2.47-.729 4.08-1.897 4.08-3.219 0-2.209-4.477-4-10-4z" fill="#d1d3d4"/><g fill="#4e901e"><path d="m17.506 19a1 1 0 0 0 .813-.416c.314-.437.651-.855.994-1.268a6.521 6.521 0 0 0 .732.583l1.4.933a1 1 0 1 0 1.11-1.664l-1.4-.933a4.507 4.507 0 0 1 -.5-.4 23.426 23.426 0 0 1 1.845-1.661 6.591 6.591 0 0 0 1.441 1.326l.5.336a1 1 0 1 0 1.11-1.664l-.5-.336a4.587 4.587 0 0 1 -.948-.85 23.258 23.258 0 0 1 2.058-1.246 6.612 6.612 0 0 0 1.78 1.76l.5.336a1 1 0 1 0 1.11-1.664l-.5-.336a4.589 4.589 0 0 1 -1.051-.986 22.494 22.494 0 0 1 2.3-.855 1 1 0 1 0 -.584-1.913 24.457 24.457 0 0 0 -2.583.969 4.593 4.593 0 0 1 -.133-1.051 1 1 0 0 0 -2 0 6.591 6.591 0 0 0 .3 1.93q-1.1.587-2.134 1.278a4.591 4.591 0 0 1 -.166-1.208 1 1 0 0 0 -2 0 6.617 6.617 0 0 0 .47 2.443 25.3 25.3 0 0 0 -1.99 1.741c-.046-.108-.1-.212-.14-.325l-.391-1.175a1 1 0 1 0 -1.9.632l.392 1.176a6.6 6.6 0 0 0 .583 1.241c-.466.541-.912 1.1-1.33 1.683a1 1 0 0 0 .812 1.584z"/><path d="m29.876 33.008a1 1 0 0 0 -.868 1.116l1 8a1 1 0 0 0 .992.876h4a1 1 0 0 0 0-2h-3.117l-.891-7.124a1 1 0 0 0 -1.116-.868z"/><path d="m16 27h12a1 1 0 0 0 0-2h-12a1 1 0 0 0 0 2z"/><path d="m36 27h12a1 1 0 0 0 0-2h-12a1 1 0 0 0 0 2z"/></g><rect fill="#d80027" height="6" rx="1" width="2" x="35" y="52"/></g></svg>