<?xml version="1.0" encoding="iso-8859-1"?>
<!-- Generator: Adobe Illustrator 19.0.0, SVG Export Plug-In . SVG Version: 6.00 Build 0)  -->
<svg version="1.1" id="Layer_1" xmlns="http://www.w3.org/2000/svg" xmlns:xlink="http://www.w3.org/1999/xlink" x="0px" y="0px"
	 viewBox="0 0 500 500" style="enable-background:new 0 0 500 500;" xml:space="preserve">
<path style="fill:#096814;" d="M137.175,500c0-20.8,50.4-36.8,112.8-36.8s112.8,16.8,112.8,36.8"/>
<path style="fill:#118922;" d="M277.175,471.2c0,15.2-12,27.2-27.2,27.2l0,0c-15.2,0-27.2-12-27.2-27.2V424
	c0-15.2,12-27.2,27.2-27.2l0,0c15.2,0,27.2,12,27.2,27.2V471.2z"/>
<path style="fill:#096814;" d="M249.975,396.8L249.975,396.8c15.2,0,27.2,12,27.2,27.2v47.2c0,15.2-12,27.2-27.2,27.2l0,0"/>
<ellipse transform="matrix(-0.373 -0.9278 0.9278 -0.373 -100.4819 372.3585)" style="fill:#189B2A;" cx="75.572" cy="220.13" rx="59.998" ry="41.599"/>
<ellipse transform="matrix(-0.3731 0.9278 -0.9278 -0.3731 787.0554 -91.4546)" style="fill:#118922;" cx="424.425" cy="220.177" rx="60" ry="41.6"/>
<path style="fill:#21B53C;" d="M417.975,196.8c0-100-75.2-162.4-168-162.4s-168,62.4-168,162.4c0,61.6,28.8,116.8,72.8,149.6v11.2
	c0,52.8,42.4,95.2,95.2,95.2h0.8c52.8,0,95.2-42.4,95.2-95.2v-11.2C389.175,313.6,417.975,259.2,417.975,196.8z"/>
<path style="fill:#189B2A;" d="M249.975,452.8h0.8c52.8,0,95.2-42.4,95.2-95.2v-11.2c44-32.8,72.8-87.2,72.8-149.6
	c0-100-75.2-162.4-168-162.4"/>
<path id="SVGCleanerId_0" style="fill:#102D35;" d="M128.375,209.6c1.6,28.8,24.8,51.2,53.6,51.2s52-22.4,53.6-51.2H128.375z"/>
<path style="fill:#118922;" d="M128.375,209.6c1.6,28.8,24.8,64,53.6,64s52-36,53.6-64H128.375L128.375,209.6z"/>
<g>
	<path id="SVGCleanerId_0_1_" style="fill:#102D35;" d="M128.375,209.6c1.6,28.8,24.8,51.2,53.6,51.2s52-22.4,53.6-51.2H128.375z"/>
</g>
<path style="fill:#065177;" d="M129.175,214.4c4,24,26.4,32.8,52.8,32.8c27.2,0,48.8-8.8,52.8-32.8H129.175z"/>
<circle style="fill:#EAD724;" cx="182.775" cy="228.8" r="8"/>
<circle style="fill:#F9F8ED;" cx="179.575" cy="225.6" r="4"/>
<path id="SVGCleanerId_1" style="fill:#102D35;" d="M264.375,209.6c1.6,28.8,24.8,51.2,53.6,51.2s52-22.4,53.6-51.2H264.375z"/>
<path style="fill:#118922;" d="M264.375,209.6c1.6,28.8,24.8,64,53.6,64s52-36,53.6-64H264.375L264.375,209.6z"/>
<g>
	<path id="SVGCleanerId_1_1_" style="fill:#102D35;" d="M264.375,209.6c1.6,28.8,24.8,51.2,53.6,51.2s52-22.4,53.6-51.2H264.375z"/>
</g>
<path style="fill:#065177;" d="M265.175,214.4c4,24,26.4,32.8,52.8,32.8c27.2,0,48.8-8.8,52.8-32.8H265.175z"/>
<circle style="fill:#EAD724;" cx="317.975" cy="228.8" r="8"/>
<circle style="fill:#F9F8ED;" cx="315.575" cy="225.6" r="4"/>
<g>
	<circle style="fill:#102D35;" cx="237.175" cy="279.2" r="8.8"/>
	<circle style="fill:#102D35;" cx="263.575" cy="279.2" r="8.8"/>
</g>
<path style="fill:#118922;" d="M304.375,366.4c-1.6-28.8-24.8-51.2-53.6-51.2s-52.8,23.2-54.4,51.2H304.375z"/>
<path style="fill:#490707;" d="M304.375,372c-1.6-28.8-24.8-51.2-53.6-51.2s-52,22.4-53.6,51.2H304.375z"/>
<path style="fill:#960E08;" d="M304.375,372c-1.6-7.2-24.8-12-53.6-12s-52,5.6-53.6,12H304.375z"/>
<g>
	<path style="fill:#102D35;" d="M227.575,181.6c0,4-3.2,6.4-6.4,6.4h-100c-4,0-6.4-3.2-6.4-6.4l0,0c0-4,3.2-6.4,6.4-6.4h99.2
		C224.375,174.4,227.575,177.6,227.575,181.6L227.575,181.6z"/>
	<path style="fill:#102D35;" d="M385.975,181.6c0,4-3.2,6.4-6.4,6.4h-100c-4,0-6.4-3.2-6.4-6.4l0,0c0-4,3.2-6.4,6.4-6.4h99.2
		C382.775,174.4,385.975,177.6,385.975,181.6L385.975,181.6z"/>
</g>
<g>
	<path style="fill:#118922;" d="M298.775,139.2c0,1.6-1.6,3.2-3.2,3.2h-91.2c-1.6,0-3.2-1.6-3.2-3.2l0,0c0-1.6,1.6-3.2,3.2-3.2h91.2
		C297.175,136.8,298.775,137.6,298.775,139.2L298.775,139.2z"/>
	<path style="fill:#118922;" d="M298.775,118.4c0,1.6-1.6,3.2-3.2,3.2h-91.2c-1.6,0-3.2-1.6-3.2-3.2l0,0c0-1.6,1.6-3.2,3.2-3.2h91.2
		C297.175,116,298.775,116.8,298.775,118.4L298.775,118.4z"/>
	<path style="fill:#118922;" d="M298.775,97.6c0,1.6-1.6,3.2-3.2,3.2h-91.2c-1.6,0-3.2-1.6-3.2-3.2l0,0c0-1.6,1.6-3.2,3.2-3.2h91.2
		C297.175,95.2,298.775,96,298.775,97.6L298.775,97.6z"/>
</g>
<path style="fill:#EAD724;" d="M211.575,132l-7.2-7.2l7.2-7.2c7.2-7.2,7.2-19.2,0-26.4c-7.2-7.2-19.2-7.2-26.4,0l-7.2,7.2l-7.2-7.2
	c-7.2-7.2-19.2-7.2-26.4,0s-7.2,19.2,0,26.4l7.2,7.2l-7.2,7.2c-7.2,7.2-7.2,19.2,0,26.4c7.2,7.2,19.2,7.2,26.4,0l7.2-7.2l7.2,7.2
	c7.2,7.2,19.2,7.2,26.4,0C218.775,151.2,218.775,139.2,211.575,132z"/>
<path style="fill:#CCB615;" d="M177.975,150.4l7.2,7.2c7.2,7.2,19.2,7.2,26.4,0c7.2-7.2,7.2-19.2,0-26.4l-7.2-7.2l7.2-7.2
	c7.2-7.2,7.2-19.2,0-26.4c-7.2-7.2-19.2-7.2-26.4,0l-7.2,8"/>
<path style="fill:#065177;" d="M326.775,32c0,17.6-14.4,32-32,32h-88.8c-17.6,0-32-14.4-32-32l0,0c0-17.6,14.4-32,32-32h88.8
	C312.375,0,326.775,14.4,326.775,32L326.775,32z"/>
<path style="fill:#102D35;" d="M326.775,32L326.775,32c0,17.6-14.4,32-32,32h-88.8c-17.6,0-32-14.4-32-32l0,0"/>
<g>
	
		<ellipse transform="matrix(0.6046 -0.7965 0.7965 0.6046 -251.4143 323.9301)" style="fill:#2BCC42;" cx="200.577" cy="415.206" rx="9.6" ry="31.199"/>
	<path style="fill:#2BCC42;" d="M156.375,322.4c-7.2,4.8-24-8.8-37.6-30.4s-19.2-42.4-12-46.4c7.2-4.8,24,8.8,37.6,30.4
		C158.775,296.8,163.575,317.6,156.375,322.4z"/>
	
		<ellipse transform="matrix(0.9978 0.0667 -0.0667 0.9978 13.3144 -6.0586)" style="fill:#2BCC42;" cx="97.419" cy="196.43" rx="8.8" ry="26.401"/>
	<circle style="fill:#2BCC42;" cx="313.175" cy="292" r="5.6"/>
	<circle style="fill:#2BCC42;" cx="333.975" cy="280" r="2.4"/>
	<circle style="fill:#2BCC42;" cx="196.375" cy="283.2" r="2.4"/>
	<circle style="fill:#2BCC42;" cx="187.575" cy="308" r="2.4"/>
	<circle style="fill:#2BCC42;" cx="210.775" cy="293.6" r="5.6"/>
	<circle style="fill:#2BCC42;" cx="165.975" cy="272.8" r="3.2"/>
	<circle style="fill:#2BCC42;" cx="242.775" cy="253.6" r="2.4"/>
	<circle style="fill:#2BCC42;" cx="335.575" cy="308" r="3.2"/>
	<path style="fill:#2BCC42;" d="M281.175,373.6l-0.8,24c0,0,1.6,17.6,8.8,6.4l0.8,30.4c0,0,3.2,9.6,7.2-4.8c0,0,4,54.4,6.4,35.2
		s0-92,0-92L281.175,373.6z"/>
</g>
<g>
</g>
<g>
</g>
<g>
</g>
<g>
</g>
<g>
</g>
<g>
</g>
<g>
</g>
<g>
</g>
<g>
</g>
<g>
</g>
<g>
</g>
<g>
</g>
<g>
</g>
<g>
</g>
<g>
</g>
</svg>
