<?xml version="1.0" encoding="iso-8859-1"?>
<!-- Generator: Adobe Illustrator 19.0.0, SVG Export Plug-In . SVG Version: 6.00 Build 0)  -->
<svg version="1.1" id="Capa_1" xmlns="http://www.w3.org/2000/svg" xmlns:xlink="http://www.w3.org/1999/xlink" x="0px" y="0px"
	 viewBox="0 0 512 512" style="enable-background:new 0 0 512 512;" xml:space="preserve">
<g>
	<g>
		<path style="fill:#BDC3C7;" d="M115.553,167.724H44.138C0,167.724,0,238.345,0,238.345v35.31c0,9.751,7.904,17.655,17.655,17.655
			s17.655-7.904,17.655-17.655V256c0.003-9.664,7.774-17.531,17.437-17.651s17.629,7.549,17.873,17.21V256
			c-0.002,8.733,6.382,16.155,15.017,17.457s16.925-3.905,19.499-12.249L115.553,167.724z"/>
		<path style="fill:#BDC3C7;" d="M396.535,167.724h71.327C512,167.724,512,238.345,512,238.345v35.31
			c0,9.751-7.905,17.655-17.655,17.655s-17.655-7.904-17.655-17.655V256c-0.003-9.664-7.774-17.531-17.437-17.651
			c-9.663-0.121-17.629,7.549-17.873,17.21V256c-0.003,9.664-7.774,17.531-17.437,17.651c-9.663,0.121-17.629-7.549-17.873-17.21
			L396.535,167.724z"/>
	</g>
	<path style="fill:#E6E7E8;" d="M333.411,512c-166.23,0-236.308-222.24-236.308-325.333S165.568,0,260.074,0
		s154.822,83.573,154.822,186.667C414.897,373.333,235.629,341.333,333.411,512z"/>
	<g>
		<path style="fill:#95A5A5;" d="M308.966,242.606v53.271c0.118,3.12-1.415,6.071-4.036,7.767c-2.621,1.696-5.942,1.886-8.739,0.5
			l-17.953-9.398c-2.823-1.484-6.238-1.261-8.844,0.577l-17.324,12.091c-2.936,2.07-6.857,2.07-9.793,0l-17.324-12.092
			c-2.606-1.838-6.022-2.06-8.844-0.577l-17.953,9.398c-2.797,1.386-6.118,1.196-8.739-0.5c-2.621-1.696-4.155-4.647-4.037-7.767
			v-53.271c-0.118-3.12,1.415-6.071,4.037-7.767c2.621-1.696,5.942-1.886,8.739-0.5l17.953,9.398
			c2.823,1.484,6.238,1.261,8.844-0.577l17.324-12.091c2.936-2.07,6.857-2.07,9.793,0l17.324,12.091
			c2.606,1.838,6.022,2.06,8.844,0.577l17.953-9.398c2.797-1.386,6.118-1.197,8.739,0.499
			C307.55,236.535,309.084,239.486,308.966,242.606L308.966,242.606z"/>
		<path style="fill:#95A5A5;" d="M229.517,158.897c-23.852,0-34.818-10.023-39.859-19.438l-0.059-0.116
			c-2.574-4.868-4.016-10.254-4.22-15.756c0-4.875-3.952-8.828-8.828-8.828s-8.828,3.952-8.828,8.828
			c0.07,4.976,0.874,9.915,2.386,14.657c-11.695,5.273-19.44,16.666-20.041,29.481c0,19.802,19.388,35.31,44.138,35.31
			s44.138-15.509,44.138-35.31C238.345,162.849,234.393,158.897,229.517,158.897z"/>
		<path style="fill:#95A5A5;" d="M333.063,138.244c1.512-4.742,2.316-9.681,2.386-14.657c0.016-4.875-3.924-8.84-8.8-8.856
			c-4.875-0.015-8.84,3.924-8.856,8.8c-0.047,3.621-1.69,35.366-44.138,35.366c-4.875,0-8.828,3.952-8.828,8.828
			c0,19.802,19.388,35.31,44.138,35.31s44.138-15.509,44.138-35.31C352.502,154.909,344.758,143.517,333.063,138.244
			L333.063,138.244z"/>
	</g>
</g>
<g>
</g>
<g>
</g>
<g>
</g>
<g>
</g>
<g>
</g>
<g>
</g>
<g>
</g>
<g>
</g>
<g>
</g>
<g>
</g>
<g>
</g>
<g>
</g>
<g>
</g>
<g>
</g>
<g>
</g>
</svg>
