<?xml version="1.0" encoding="iso-8859-1"?>
<!-- Generator: Adobe Illustrator 19.0.0, SVG Export Plug-In . SVG Version: 6.00 Build 0)  -->
<svg version="1.1" id="Capa_1" xmlns="http://www.w3.org/2000/svg" xmlns:xlink="http://www.w3.org/1999/xlink" x="0px" y="0px"
	 viewBox="0 0 512 512" style="enable-background:new 0 0 512 512;" xml:space="preserve">
<g>
	<path style="fill:#FFFFFF;" d="M496.839,177.136c-1.315-0.239-2.619-0.497-3.913-0.757l-1.996-0.4l0.903,1.824
		c1.559,3.147,2.604,6.436,3.107,9.775l0.361,2.399l1.434-1.957c1.704-2.325,3.07-5.649,4.168-8.32l0.922-2.231h-1.497
		C499.265,177.47,498.121,177.361,496.839,177.136z"/>
	<path style="fill:#FFFFFF;" d="M484.663,196.381l-0.89-1.674l-1.472,2.82c-1.614,3.116-3.443,6.647-5.743,9.04l-1.094,1.139
		l1.497,0.502c3.267,1.096,6.255,1.886,9.138,2.415l1.197,0.22l-0.016-1.216C487.253,207.625,486.987,200.752,484.663,196.381z"/>
	<path style="fill:#FFFFFF;" d="M482.024,174.831l-1.836-0.063l0.944,1.576c1.351,2.255,2.314,4.789,3.032,7.976l0.686,3.043
		l1.211-2.874c0.859-2.038,1.338-4.392,1.761-6.468c0.102-0.502,0.202-0.994,0.305-1.469l0.223-1.032l-1.043-0.167
		C485.507,175.065,483.73,174.889,482.024,174.831z"/>
	<path style="fill:#FFFFFF;" d="M477.414,174.927l-1.425,0.159c-2.099,0.234-4.316,0.602-6.777,1.126l-1.417,0.301l0.784,1.218
		c1.463,2.273,2.872,4.696,4.307,7.407l1.149,2.17l0.694-2.355c0.867-2.942,1.655-5.847,2.342-8.633L477.414,174.927z"/>
	<path style="fill:#FFFFFF;" d="M469.03,195.48h-1v0.698c-0.509,0.749-2.092,3.039-2.29,3.287c-0.665,0.831-1.281,1.512-1.94,2.143
		l-1.114,1.067l3.105,1.267c1.438,0.589,2.881,1.179,4.323,1.749l1.631,0.644l-0.319-1.998
		C470.01,195.48,470.01,195.48,469.03,195.48z"/>
	<path style="fill:#FFFFFF;" d="M465.609,178.644l0.778-1.817l-3.328,0.78c-1.846,0.435-3.754,0.885-5.632,1.275l-2.302,0.478
		l1.94,1.327c1.316,0.9,2.79,2.678,4.381,5.286l1.181,1.935l0.744-2.56C464.027,183.091,464.705,180.758,465.609,178.644z"/>
	<path style="fill:#FFFFFF;" d="M457.855,197.956c-0.223-0.727-0.439-1.454-0.655-2.179c-0.287-0.964-0.574-1.928-0.877-2.888
		l-0.633-2.009l-1.156,1.761c-1.078,1.642-2.168,3.117-3.331,4.507l-0.995,1.189l1.494,0.416c1.292,0.36,2.987,0.85,4.626,1.449
		l2.376,0.917l-0.498-1.895C458.094,198.794,457.981,198.373,457.855,197.956z"/>
	<path style="fill:#FFFFFF;" d="M451.452,184.232c0.479-1.015,0.975-2.064,1.548-2.855l1.372-1.892l-2.316,0.314
		c-0.573,0.078-1.156,0.146-1.759,0.196c-0.571,0.06-1.147,0.11-1.726,0.162l-2.569,0.234l0.977,1.409
		c0.783,1.129,1.396,2.439,1.822,3.892l0.692,2.359l1.151-2.172C450.922,185.353,451.186,184.794,451.452,184.232z"/>
	<path style="fill:#FFFFFF;" d="M432.982,159.899c-1.058-0.463-1.936-0.756-2.757-0.92l-1.104-0.221l-0.089,1.122
		c-0.042,0.533-0.173,0.979-0.358,1.224l-0.082,0.107l-0.05,0.125c-0.045,0.112-0.134,0.262-0.379,0.262
		c-0.202,0-0.461-0.114-0.585-0.367l-0.042-0.088l-0.059-0.078c-0.16-0.211-0.258-0.462-0.309-0.79l-0.187-1.202l-1.143,0.415
		c-0.479,0.174-1.003,0.385-1.604,0.628l-0.303,0.122c-0.896,0.354-1.712,0.652-2.495,0.91l-1.716,0.565l1.391,1.154
		c1.58,1.311,3.891,2.093,6.184,2.093c0.387,0,0.765-0.024,1.122-0.07c2.162-0.275,3.163-1.333,4.222-2.453
		c0.175-0.185,0.357-0.378,0.549-0.572l0.28-0.27l1.198-1.105l-1.513-0.521L432.982,159.899z"/>
</g>
<g>
	<path style="fill:#58C474;" d="M494.761,150.12c-3.132-1.137-6.504-1.29-9.389-1.29c-0.876,0-1.754,0.015-2.629,0.03
		c-0.858,0.015-1.713,0.029-2.561,0.029c-0.941,0-1.756-0.019-2.489-0.058c-4.363-0.229-8.454-1.285-12.874-3.32
		c-4.577-2.112-8.53-3.936-13.612-3.936c-1.317,0-2.662,0.117-4.111,0.357c-2.214,0.37-4.246,0.549-6.211,0.549
		c-2.61,0-5.179-0.322-7.853-0.983c-1.25-0.31-2.526-0.679-3.76-1.036c-2.877-0.832-5.853-1.692-8.917-1.951l-0.327-0.027
		l-0.279,0.171c-0.051,0.031-0.105,0.046-0.167,0.046c-0.079,0-0.17-0.024-0.316-0.096l-0.326-0.167l-0.972-0.009
		c-0.14,0-0.28,0.002-0.423,0.01c-3.75,0.21-6.627,1.344-8.551,3.371c-0.875,0.925-1.456,2.023-2.017,3.085
		c-0.426,0.805-0.828,1.566-1.336,2.219c-1.701,2.187-3.639,2.793-6.413,3.1c-5.581,0.631-9.356,3.664-13.308,8.021
		c-6.428,7.081-13.112,14.804-18.446,23.289c-6.466,10.245-9.915,20.321-10.253,29.949c-0.244,7.151,1.784,13.823,3.745,20.275
		c0.91,2.994,1.851,6.09,2.549,9.189c3.336,14.801-1.86,29.361-13.897,38.948c-7.427,5.917-15.771,8.917-24.799,8.917
		c-16.073,0-39.855-11.319-54.09-36.171c-10.96-19.155-19.692-40.38-25.307-54.679c-3.038-7.734-5.639-16.074-4.106-24.659
		c1.513-8.496,5.889-16.468,10.12-24.177l1.403-2.564c8.587-15.73,16.698-30.588,21.86-47.614l0.073-0.242l-0.05-0.248
		c-2.366-11.58-13.431-16.489-22.807-19.472c-10.174-3.242-17.951-6.096-25.216-9.255c-10.352-4.489-20.554-9.756-30.421-14.85
		c-5.264-2.718-10.708-5.528-16.115-8.19c-17.631-8.677-33.612-16.081-50.653-18.81c-3.767-0.606-7.836-0.914-12.094-0.914
		c-13.119,0-26.462,2.805-39.365,5.517c-2.531,0.532-5.033,1.058-7.498,1.554c-2.837,0.573-5.8,1.199-9.056,1.914l0.318,1.971
		c9.64-1.009,18.423-1.5,26.852-1.5c6.957,0,13.729,0.35,20.126,1.039c28.41,3.072,52.742,14.985,78.504,27.598
		c0,0,38.843,18.987,46.293,22.626c1.642,0.804,3.424,1.551,5.312,2.341c4.873,2.041,9.913,4.152,13.138,7.495
		c2.644,2.744,3.108,6.263,1.505,11.41c-3.369,10.831-9.565,20.642-15.559,30.129c-7.493,11.863-15.241,24.13-17.663,38.612
		c-3.503,20.953,4.485,40.072,12.21,58.562c4.12,9.86,8.379,20.055,10.793,30.345c0.075,0.313-0.042,0.402-0.097,0.445l-0.68,0.567
		l0.444,0.76c1.3,2.224,2.644,4.524,4.112,6.736c5.797,8.764,14.757,13.59,25.23,13.59c4.307,0,8.701-0.819,13.063-2.435
		c0.11-0.041,0.212-0.061,0.303-0.061c0.342,0,0.561,0.341,0.645,0.632c0.102,0.356,0.072,0.863-0.347,1.124
		c-4.078,2.55-8.983,3.898-14.185,3.898c-5.517,0-11.241-1.537-16.118-4.328c-3.285-1.877-6.101-4.432-8.862-8.04l-1.746,0.914
		c1.104,3.431,2.478,7.019,5.03,10.013c4.643,5.451,10.642,6.56,16.995,7.734c0.479,0.088,0.96,0.177,1.447,0.27
		c-1.481,0.67-3.104,1.009-4.831,1.009c-4.409,0-9.554-2.315-13.427-6.042c-4.442-4.274-7.258-11.397-8.37-21.172l-0.024-0.214
		l-1.169-1.969c-0.754-1.276-1.51-2.554-2.289-3.818l-0.274-0.445l-0.522-0.029c-2.247-0.123-4.335-0.183-6.381-0.183
		c-12.205,0-22.205,2.229-31.472,7.013c-1.722,0.887-3.441,1.833-5.102,2.748c-3.467,1.908-7.052,3.882-10.782,5.372
		c-5.581,2.238-11.306,3.302-17.366,4.429l-1.856,0.346c-18.506,3.468-36.708,10.379-54.311,17.063
		c-4.97,1.887-10.109,3.838-15.127,5.66c-19.797,7.186-40.295,19.566-59.279,35.8c-9.46,8.088-16.135,16.545-20.409,25.853
		c-4.311,9.407-6.731,20.468-7.399,33.817c-0.844,16.912-0.295,35.97,10.167,49.093l0.038,0.047l0.043,0.043
		c8.711,8.545,18.44,15.514,28.915,20.711c7.695,3.823,15.946,6.003,23.925,8.111c6.851,1.81,13.935,3.682,20.558,6.579
		c1.25,0.547,2.486,1.102,3.718,1.653c6.888,3.085,13.393,5.999,20.915,7.356c7.077,1.277,14.35,1.475,21.382,1.666
		c1.659,0.045,3.316,0.09,4.97,0.149c14.528,0.513,27.532,2.486,39.757,6.031l0.846-1.784c-7.739-5.33-17.921-7.829-26.904-10.034
		c-1.023-0.251-2.026-0.497-3-0.742c-6.957-1.749-14.084-3.256-20.975-4.713c-5.896-1.247-11.993-2.537-17.945-3.97
		c-4.049-0.969-7.649-1.889-11.008-2.811l-0.114-0.031l-0.118-0.004c-10.886-0.361-22.745-4.733-33.938-9.403
		c-10.152-4.238-18.82-9.662-25.765-16.12c-13.548-12.592-20.064-30.679-17.877-49.622c2.101-18.172,11.276-34.799,26.533-48.081
		c16.142-14.04,37.976-23.031,55.196-29.295c12.491-4.551,24.094-6.859,34.487-6.859c8.743,0,16.835,1.633,24.054,4.853l1.042,0.465
		l0.324-1.095c2.049-6.934,5.673-12.39,10.772-16.214c7.144-5.371,16.203-8.557,24.963-11.637l2.243-0.791
		c0.092-0.033,0.175-0.049,0.248-0.049c0.363,0,0.458,0.522,0.463,0.545c0.027,0.159,0.075,0.693-0.476,0.892l-2.342,0.837
		c-7.986,2.845-16.244,5.786-23.114,10.616c-7.291,5.114-11.477,13.206-12.442,24.05c-0.545,6.115-0.128,12.296,0.275,18.274
		c0.518,7.672,1.052,15.606-0.49,23.31c-1.193,5.995-3.887,11.515-8.236,16.876c-1.245,1.535-2.609,3.059-3.93,4.533
		c-3.157,3.524-6.421,7.169-8.588,11.509c-3.061,6.123-3.025,13.377-2.989,20.393c0.008,1.607,0.016,3.187-0.017,4.714
		c-0.148,7.098-0.231,16.459,0.452,25.933c0.356,4.956,2.571,7.932,6.235,8.381c2.243,0.276,4.537,0.378,6.756,0.476l0.682,0.03
		c2.605,0.117,5.213,0.177,7.752,0.177c1.666,0,3.343-0.026,4.981-0.076c2.552-0.073,5.047-0.198,7.423-0.373
		c0.295-0.024,0.615-0.033,0.941-0.043c0.805-0.024,1.637-0.05,2.39-0.258c0.05-0.014,5.075-1.544,5.517-3.665
		c0.648-3.176-4.657-6.873-6.302-7.933c-1.642-1.047-4.134-2.439-6.819-2.439c-0.641,0-1.275,0.078-1.891,0.234
		c-0.044,0.011-0.085,0.017-0.123,0.017c-0.213,0-0.326-0.207-0.359-0.329c-0.074-0.27,0.098-0.371,0.163-0.41
		c1.076-0.635,2.339-0.957,3.754-0.957c4.367,0,9.675,3.133,12.346,7.287l0.455,0.707l0.774-0.326
		c0.606-0.255,1.318-0.393,2.115-0.412l1.753-0.04l-0.927-1.488c-1.742-2.797-3.724-5.659-7.07-7.235
		c-1.268-0.602-2.594-0.975-3.878-1.336c-2.042-0.575-3.971-1.117-5.498-2.509c-3.926-3.577-3.45-9.719-3.031-15.138
		c0.067-0.858,0.131-1.692,0.176-2.486c0.046-0.809,0.082-1.647,0.119-2.505c0.241-5.566,0.514-11.875,3.745-16.082
		c2.549-3.311,6.51-4.544,10.703-5.849c2.048-0.638,4.166-1.296,6.087-2.22c12.287-5.908,24.991-16.568,37.761-31.686
		c12.809-15.176,17.617-32.685,20.893-49.392c0.016,0.014,0.026,0.028,0.027,0.039c0.398,4.336,0.097,8.968-0.893,13.767l1.852,0.69
		c2.103-3.756,4.283-8.254,4.656-13.259c0.72,4.617-1.673,10.523-2.986,13.765c-0.994,2.454-2.431,5.528-4.749,7.539l-1.914,1.661
		l2.532,0.094c1.847,0.068,3.74,0.226,5.571,0.378c2.508,0.21,5.102,0.426,7.689,0.426c0.816,0,1.612-0.022,2.364-0.065
		c2.62-0.15,5.317-0.57,7.925-0.975c3.171-0.493,6.451-1.003,9.542-1.014l0.896-0.003l0.095-0.892
		c0.343-3.229,1.244-6.509,2.68-9.75l0.164-0.372l-0.142-0.381c-1.317-3.554,0.2-6.985,1.807-10.617
		c2.104-4.738,4.51-8.321,7.707-11.445c-0.706,1.53-1.446,3.053-2.166,4.535c-1.286,2.648-2.616,5.387-3.751,8.155l1.738,0.962
		c1.601-2.234,3.489-4.595,5.769-7.213c0.044-0.049,0.068-0.053,0.104-0.053c0.157,0,0.372,0.142,0.45,0.298
		c0.033,0.065,0.025,0.075-0.007,0.118l-1.131,1.511c-4.876,6.498-9.918,13.217-11.527,21.292
		c-1.568,7.866,1.586,14.801,4.636,21.508c0.678,1.492,1.38,3.034,2.011,4.551c3.08,7.406,4.99,15.279,5.677,23.4
		c0.622,7.353-0.236,14.294-1.144,21.642c-0.142,1.15-0.285,2.304-0.422,3.466c-0.702,5.928,1.087,11.232,2.817,16.362
		c1.091,3.237,2.22,6.583,2.716,10.067c0.568,3.958,0.412,8.04,0.26,11.988c-0.143,3.735-0.29,7.598,0.167,11.391
		c1.073,8.872,18.342,9.679,26.641,10.067c0.617,0.029,2.037,0.102,2.037,0.102c1.049,0.058,2.135,0.117,3.234,0.117
		c2.48-0.001,5.548-0.266,7.268-2.338c1.15-1.386,1.492-3.375,1.016-5.913c-0.924-4.922-4.61-7.479-8.631-9.875
		c-0.069-0.041-0.082-0.145-0.085-0.188c-0.007-0.129,0.043-0.221,0.105-0.235c4.765,0.368,8.075,4.378,9.584,8.007l0.432,1.038
		l0.98-0.55c0.381-0.213,0.829-0.401,1.412-0.591l0.866-0.283l-0.201-0.888c-0.031-0.136-0.024-0.199-0.009-0.264
		c0.927-4.2,0.116-8.139-2.224-10.803c-1.701-1.948-3.828-2.518-5.885-3.069c-0.806-0.216-1.64-0.44-2.427-0.746
		c-3.108-1.201-5.042-3.668-5.748-7.334c-0.583-3.061-0.549-6.321-0.515-9.473c0.027-2.576,0.056-5.24-0.244-7.844
		c-0.505-4.404-1.262-8.845-1.994-13.139c-0.564-3.311-1.148-6.734-1.609-10.104c-0.861-6.26-1.729-13.514-1.104-20.385
		c0.553-6.189,3.15-11.187,5.993-16.184c4.371-7.677,6.903-14.161,7.967-20.406c0.957-5.579,0.896-11.283,0.605-16.944
		c0.37,1.771,0.634,3.625,0.792,5.547l1.975,0.126c0.84-3.95,1.214-7.346,0.346-10.745c1.413,2.278,1.327,5.22,1.069,8.511
		c-0.261,3.427-0.556,7.31-1.891,10.643l-0.839,2.095l2.374-0.881c4.929-1.829,9.584-3.556,14.045-6.748
		c5.226-3.746,9.661-8.659,12.826-14.207c6.403-11.227,8.326-25.441,10.022-37.983l0.441-3.235
		c0.832-6.019,1.371-12.171,1.891-18.121c0.65-7.435,1.323-15.123,2.575-22.572c1.798-10.734,6.038-19.417,12.602-25.809
		l1.226-1.194l-1.642-0.482c-3.45-1.013-6.698-3.536-8.257-5.452c-1.995-2.445-3.171-5.424-3.873-8.565
		c1.125,3.068,2.903,6.241,5.715,8.564c0.339,0.292,0.69,0.53,1.02,0.743l1.344-1.438c-2.176-2.911-6.684-10.414-2.006-17.649
		c-2.783,12.479,6.924,20.834,17.003,24.507c7.25,2.641,18.066,6.151,28.254,6.15c0.772,0,1.542-0.02,2.303-0.062
		c2.031-0.11,4.003-0.419,5.911-0.717c2.355-0.369,4.581-0.717,6.887-0.717c0.938,0,1.811,0.058,2.672,0.176
		c3.478,0.478,6.961,1.599,10.329,2.684c0.995,0.32,1.986,0.639,2.973,0.941c1.321,0.407,2.681,0.893,4.122,1.407
		c3.924,1.402,7.982,2.851,11.926,2.956l0.263,0.003c2.591,0,4.991-1.031,6.756-2.903c1.891-2.005,2.881-4.775,2.716-7.598
		l-0.054-0.909l-0.91-0.032c-10.124-0.358-18.985-4.285-28.366-8.442c-3.386-1.501-6.888-3.052-10.422-4.402
		c-2.943-1.125-6.028-1.946-9.012-2.739c-3.948-1.05-8.03-2.136-11.717-3.926c-2.619-1.275-5.17-3.037-8.025-5.541
		c-1.293-1.142-2.664-2.22-3.99-3.263c-1.676-1.318-3.409-2.681-4.949-4.149c-0.334-0.321-0.437-0.68-0.305-1.069
		c0.178-0.524,0.726-0.951,1.307-1.017c5.476-0.636,11.063-0.982,16.468-1.317c10.28-0.638,20.91-1.297,31.219-3.978
		c5.517-1.434,10.491-2.131,15.206-2.131c1.862,0,3.731,0.11,5.554,0.327c2.401,0.288,4.68,0.832,7.093,1.409
		c0.859,0.205,1.719,0.411,2.588,0.604c0.35,0.078,0.715,0.168,1.09,0.261c1.289,0.318,2.75,0.679,4.151,0.679
		c0.605,0,1.148-0.064,1.658-0.198c1.007-0.263,2.008-0.686,2.895-1.222l0.34-0.206l0.106-0.384
		C508.701,163.962,503.511,153.298,494.761,150.12z M416.522,169.615c-0.21-0.34-0.386-0.695-0.527-1.061
		c0.111,0.2,0.232,0.396,0.364,0.586c1.01,1.472,2.532,2.572,4.327,3.169C419.001,172.167,417.501,171.203,416.522,169.615z
		 M435.866,166.393c-0.445,1.163-1.06,1.988-1.894,2.524c0.47-0.795,0.941-1.613,1.357-2.458c0.416-0.851,0.855-2.129,1.043-3.347
		c0.046,0.243,0.079,0.523,0.06,0.844C436.391,164.717,436.202,165.535,435.866,166.393z M437.905,161.662L437.905,161.662
		c-0.167,0-0.338-0.009-0.515-0.027l-1.093-0.11l-0.382-0.195l-0.284-0.129h-1.229l-0.012,0.987
		c-0.026,2.055-4.354,3.789-7.059,3.789c-0.152,0-0.294-0.007-0.429-0.021c-2.553-0.264-5.667-1.353-6.751-3.617l-0.315-0.66
		l-2.347,0.329l0.005,0.01c-0.367,0.029-0.75,0.044-1.164,0.044h-0.412l-0.513-0.054c-1.557-0.166-2.843-0.716-3.932-1.684
		c-1.427-1.266-1.656-2.722-1.596-3.72c0.1-1.681,1.073-3.318,2.604-4.38c0.965-0.671,2.157-1.232,3.517-1.667
		c-1.766,0.59-3.11,1.421-3.708,2.62c-0.587,1.175-0.407,2.501,0.533,3.941c1.133,1.744,2.494,2.556,4.281,2.555
		c1.25,0,2.577-0.398,4.057-0.879c0.816-0.266,1.578-0.612,2.315-0.947c0.512-0.232,1.024-0.466,1.55-0.669
		c1.35-0.513,2.471-0.752,3.529-0.752c0.863,0,1.718,0.159,2.615,0.487c0.913,0.331,1.962,1.037,3.073,1.784
		c1.62,1.09,3.424,2.303,5.317,2.65C439.006,161.553,438.479,161.662,437.905,161.662z M494.34,166.722
		c-0.232,0.301-0.542,0.451-1.012,0.46c-0.116,0-0.231-0.021-0.343-0.043l-0.194-0.021l-0.115,0.004
		c-0.198,0-0.37-0.024-0.543-0.081c-0.475-0.141-0.842-0.485-1.035-0.97l-0.053-0.134l-0.089-0.114
		c-0.084-0.107-0.161-0.222-0.238-0.351c-0.301-0.484-0.403-1.064-0.274-1.554c0.1-0.375,0.325-0.661,0.674-0.851
		c0.264-0.144,0.562-0.217,0.885-0.217c0.661,0,1.371,0.314,1.869,0.837c0.092,0.092,0.177,0.197,0.304,0.385
		c0.229,0.288,0.388,0.599,0.461,0.906C494.792,165.603,494.675,166.288,494.34,166.722z M499.647,164.265
		c-0.565-0.245-1.059-1.002-1.537-1.736c-0.383-0.587-0.779-1.194-1.279-1.672c-1.784-1.706-3.718-2.284-5.738-2.918
		c0.079-0.004,0.157-0.005,0.236-0.005c1.757,0,3.869,0.841,5.649,2.248C498.476,161.373,500.027,163.122,499.647,164.265z"/>
	<path style="fill:#58C474;" d="M293.779,128.044c1.361-3.716,3.015-7.388,4.615-10.94c1.38-3.064,2.807-6.234,4.048-9.431
		c3.506-8.995-1.327-16.729-7.034-24.514c-4.239-5.798-9.433-11.401-15.438-16.652c-9.643-8.446-21.425-16.054-37.079-23.94
		C193.05,17.455,142.356,4.182,96.287,4.182c-8.025,0-16.042,0.398-23.827,1.183l0.007,1.991c8.152,0.765,16.417,1.95,24.41,3.096
		c1.826,0.262,3.648,0.523,5.464,0.779c17.148,2.412,32.247,5.102,46.161,8.225c54.842,12.297,99.192,33.489,131.819,62.987
		c3.746,3.381,7.409,7.165,8.831,11.912c1.416,4.77-0.189,9.873-1.605,14.375c-2.348,7.478-4.976,15.02-7.518,22.313
		c-1.923,5.519-3.911,11.225-5.768,16.874c-7.376,22.415-14.74,49.324-13.429,78.956l0.008,0.188l0.076,0.171
		c6.568,14.914,14.643,31.847,27.384,44.05c3.304,3.162,7.087,5.912,11.243,8.176l2.819,1.535l-1.449-2.865
		c-12.383-24.486-19.047-54.783-18.763-85.31c0.13-14.844,1.928-29.613,5.343-43.898
		C289.169,141.86,291.284,134.837,293.779,128.044z"/>
	<path style="fill:#58C474;" d="M223.917,442.52l-0.788-0.183c-2.241-0.529-4.206-1.162-6.001-1.935
		c-3.275-1.42-7.7-4.042-10.175-8.471c-4.728-8.452,0.446-19.003,5.481-27.25l0.707-1.158l-1.316-0.332
		c-3.232-0.816-6.208-1.683-9.098-2.648l-0.45-0.151l-0.401,0.254c-4.487,2.838-8.796,4.852-13.171,6.156l-0.809,0.241l0.102,0.837
		c0.445,3.677-0.233,7.61-0.888,11.413c-0.37,2.144-0.751,4.362-0.926,6.505c-0.69,8.417-0.583,15.617,0.324,22.001
		c0.006,0.064,0.013,0.122,0.013,0.181v0.562l0.479,0.292c1.754,1.07,3.259,2.457,4.353,4.012l0.329,0.467l0.569-0.046
		c0.442-0.035,0.877-0.055,1.308-0.055c2.331,0,4.26,0.587,6.066,1.845c1.532,1.082,2.898,2.55,4.298,4.623l0.297,0.44h0.531
		c1.954,0,3.956,0.223,5.891,0.439c0.852,0.095,1.704,0.189,2.555,0.267c0.611,0.058,1.381,0.189,2.196,0.328
		c1.41,0.24,3.007,0.513,4.411,0.513c0.777,0,1.424-0.082,1.975-0.25c3.157-0.948,3.892-2.557,3.952-3.739
		c0.142-2.772-3.291-5.518-5.657-6.502c-1.464-0.608-2.937-0.773-4.361-0.932c-0.815-0.092-1.585-0.178-2.357-0.343
		c-0.113-0.024-0.138-0.056-0.156-0.142c-0.04-0.19,0.053-0.44,0.199-0.544c1.081-0.764,2.331-1.152,3.715-1.152
		c3.364,0,7.22,2.346,9.376,5.706l0.415,0.647l0.732-0.235c1.714-0.549,3.227-1.933,3.854-3.525c0.504-1.279,0.42-2.631-0.236-3.804
		C229.555,443.811,226.689,443.154,223.917,442.52z"/>
</g>
<path style="fill:#FF656F;" d="M417.397,218.603c-5.042-1.343-10.349-2.946-15.009-5.556l-0.684-0.383l-0.535,0.573
	c-0.518,0.555-1.008,1.119-1.493,1.683l-0.01-0.013l-0.314,0.383l-0.388,0.454l0.008,0.01l-0.108,0.132
	c-1.156,1.413-2.246,2.93-3.322,4.601l-0.028-0.062l-0.977,1.643c-1.688,2.841-3.143,5.98-4.346,9.325l-0.035-0.059l-0.671,2.101
	c-1.023,3.203-1.811,6.573-2.42,10.241l-0.032-0.04l-0.325,2.271c-0.313,2.185-0.571,4.51-0.768,6.917l-0.125,1.648l-0.004-0.003
	l-0.355,4.698c-0.179,2.379-0.357,4.753-0.545,7.122l-0.044,0.565l0.003,0.002l-0.068,0.852c-0.252,3.13-0.508,6.029-0.784,8.862
	l-0.184,1.807c-0.257,2.519-0.559,5.076-0.896,7.599l-0.004,0.029l-0.205,1.466c-0.363,2.589-0.74,4.954-1.154,7.231
	c-0.159,0.884-0.328,1.768-0.506,2.661l-0.086,0.431l0.012,0.016l-0.244,1.165c-0.41,1.961-0.861,3.913-1.34,5.798l-0.101,0.398
	l0.002,0.004l-0.296,1.08c-0.767,2.799-1.678,5.547-2.706,8.169l-0.179,0.455l0.009,0.016l-0.363,0.869
	c-1.182,2.827-2.553,5.508-4.078,7.969l-0.296,0.479l0,0l-0.479,0.729c-0.99,1.505-2.024,2.908-3.074,4.171
	c-0.837,1.01-1.704,1.979-2.578,2.882l-0.203,0.21l-0.682,0.675c-1.848,1.829-3.837,3.533-5.912,5.067l-0.42,0.311l-0.519,0.364
	c-1.918,1.346-3.886,2.521-5.849,3.492l-0.087,0.043l-1.105,0.504c-3.141,1.433-6.229,2.34-9.175,2.697l-0.743,0.09l-0.123,0.738
	c-0.81,4.864-2.233,9.769-4.115,14.184l-0.166,0.386l-0.003,0.197c-0.014,0.814-0.013,1.64-0.012,2.466l-1.076-0.248
	c-0.343,0.741-0.688,1.472-1.03,2.196c-2.55,5.4-4.959,10.501-5.231,17.073c-0.116,2.854-0.056,5.797,0.182,8.995l0.089,1.2
	l1.164-0.308c2.158-0.57,4.479-0.869,6.724-1.157c0.606-0.078,1.212-0.156,1.817-0.239l0.726-0.1l0.003,0.01l0.456-0.073
	l0.177-0.024l-0.002-0.004l0.222-0.035c0.814-0.129,1.656-0.263,2.474-0.447c2.721-0.594,5.358-1.306,7.837-2.116l0.354-0.116
	l0.001,0.014l0.453-0.162l0.139-0.046l-0.001-0.004l0.6-0.215c0.794-0.285,1.587-0.57,2.36-0.885
	c5.975-2.435,11.395-5.98,16.107-10.537l0.627-0.607l-0.007-0.01l0.605-0.629c1.194-1.241,2.154-2.308,3.024-3.36
	c2.724-3.333,4.903-6.852,6.676-9.854l0.612-1.037l-0.008-0.003l0.15-0.259c0.718-1.24,1.423-2.488,2.127-3.737
	c1.283-2.274,2.61-4.625,4-6.882c0.635-1.038,1.257-2.099,1.849-3.152l0.693-1.233l-0.014-0.003l0.045-0.082
	c1.669-3.031,3.19-6.118,4.521-9.173l0.247-0.567l0,0l0.004-0.01l0.495-1.137l-0.029,0.005c1.086-2.612,2.084-5.254,2.956-7.868
	c0.619-1.887,1.224-3.923,1.795-6.053l0.348-1.295h-0.014l0.089-0.346c1.071-4.19,1.935-8.363,2.569-12.402l0.199-1.268
	l-0.023,0.002l0.055-0.375c0.524-3.57,0.934-7.254,1.218-10.948l0.123-1.599l-0.011,0.004c0.219-3.189,0.357-6.481,0.421-10.064
	l0.023-1.272l-0.006,0.001l0.003-0.348c0.01-1.196,0.02-2.391,0.01-3.584c-0.01-2.064,0.017-4.332,0.08-6.739l0.036-1.358
	l-0.01,0.003l0.014-0.394c0.116-3.237,0.33-6.343,0.635-9.231l0.054-0.511l0.045-0.403c0.28-2.488,0.636-4.878,1.059-7.105
	l0.179-0.942h0.009l0.159-0.759c0.4-1.912,0.877-3.788,1.418-5.575l0.427-1.412l0.015-0.004l0.167-0.491
	c0.685-2.012,1.398-3.804,2.18-5.479l0.507-1.086l0.039-0.003l0.255-0.494c1.247-2.411,2.568-4.495,4.039-6.373l0.698-0.891h0.028
	l0.295-0.344c1.776-2.067,3.759-3.89,5.894-5.419l1.801-1.289l-2.158-0.499C421.953,219.786,419.811,219.249,417.397,218.603z"/>
<path style="fill:#897D88;" d="M333.192,105.054c1.04,0.933,2.099,1.848,3.157,2.762c3.217,2.779,6.543,5.653,9.228,9.006
	c0.171,0.215,0.333,0.439,0.496,0.663l0.265,0.362l1.72-0.995c-1.178-2.715-2.815-5.272-5.152-8.045
	c-0.587-0.698-1.171-1.378-1.747-2.05c-1.143-1.331-2.263-2.636-3.318-3.979c0.775,0.81,1.566,1.601,2.348,2.384
	c1.802,1.804,3.665,3.669,5.226,5.656c3.275,4.175,4.484,8.892,5.763,13.886c0.215,0.838,0.431,1.681,0.658,2.526l0.029,0.107
	l0.052,0.099c0.805,1.531,1.681,3.165,2.64,4.743c2.268,3.746,5.049,7.174,7.737,10.489c0.735,0.907,1.47,1.813,2.196,2.726
	c4.358,5.474,8.61,11.498,10.197,18.459l0.443,1.942l1.292-1.516c1.336-1.567,2.771-3.203,4.383-5.001
	c5.476-6.1,9.919-10.541,17.269-12.141c3.855-0.84,5.332-3.02,6.76-5.127c0.786-1.159,1.598-2.356,2.846-3.43
	c1.03-0.879,2.245-1.599,3.61-2.142l2.004-0.796l-1.902-1.016c-6.777-3.618-13.483-7.672-19.969-11.592
	c-2.107-1.273-4.212-2.546-6.32-3.805c-11.03-6.582-21.126-12.715-30.865-18.75c-16.065-9.972-32.989-20.8-47.806-33.86l-1.569,1.17
	c3.589,7.76,8.773,15.672,15.848,24.188C324.708,96.803,328.907,101.203,333.192,105.054z M379.145,134.366
	c3.24,2.629,6.572,5.333,9.336,8.52c-1.353-1.149-2.741-2.291-4.098-3.406c-4.3-3.535-8.681-7.137-12.317-11.237
	C374.305,130.438,376.742,132.415,379.145,134.366z M362.099,129.524c3.393,4.709,7.508,8.448,11.488,12.063
	c1.93,1.753,3.922,3.564,5.841,5.494c-7.634-3.439-13.751-11.105-17.706-16.605c-3.496-4.857-6.232-10.2-8.404-16.464
	C355.543,119.293,358.516,124.556,362.099,129.524z"/>
<g>
	<path style="fill:#FF656F;" d="M351.383,457.315l-1.237-0.282l0.015,1.269c0.019,1.621-0.395,3.223-1.229,4.762l-0.753,1.387
		l1.576,0.088c1.324,0.074,2.492,0.51,3.372,1.258c0.663,0.574,1.244,1.327,1.776,2.302l0.401,0.736l0.795-0.267
		c1.582-0.531,3.239-0.844,4.923-0.93l1.588-0.081l-0.76-1.396C359.978,462.728,357.099,458.62,351.383,457.315z"/>
	<path style="fill:#FF656F;" d="M353.351,469.54c-0.769-2.36-2.298-3.507-4.676-3.507c-0.944,0-1.93,0.173-2.884,0.341l-1.203,0.211
		l0.226,1.021c0.523,2.364,0.425,4.562-0.284,6.356l-0.701,1.775l1.858-0.433c0.654-0.153,1.378-0.23,2.153-0.23
		c1.705,0,3.605,0.365,5.497,1.055l1.648,0.602l-0.323-1.725C354.335,473.254,353.95,471.38,353.351,469.54z"/>
	<path style="fill:#FF656F;" d="M287.916,361.842c-0.485-1.24-0.972-2.485-1.454-3.742c-1.241-3.212-1.939-6.352-2.134-9.599
		l-0.903-0.021c0.021-0.079,0.038-0.159,0.06-0.237l0.566-2.083l-1.955,0.915c-2.602,1.219-6.217,1.454-9.736,1.526l-0.759,0.016
		l-0.001,0.002l-0.813,0.012c-1.068,0.015-2.068,0.029-2.952,0.072c-1.96,0.108-3.592,0.174-5.137,0.209l-0.31,0.007l-0.957,0.003
		c-3.384,0-6.195-0.27-8.596-0.825l-0.227-0.053l-0.493-0.13c-1.345-0.355-2.457-0.757-3.398-1.228l-0.968-0.484l-0.406,1.003
		c-2.072,5.114-4.813,10.397-8.15,15.703l-0.059,0.093l-0.037,0.104c-0.453,1.273-0.881,2.566-1.291,3.871l-0.974-0.488
		c-3.687,5.434-7.987,10.719-12.783,15.709l-0.181,0.188l-0.387,1.472c-0.04,0.151-0.079,0.307-0.119,0.458l-0.882-0.521
		c-4.675,4.694-9.832,9.143-15.328,13.223c-0.692,0.514-1.393,1.018-2.104,1.512l1.134,1.648c0.456-0.312,1.177-0.469,2.142-0.469
		c2.603,0,6.397,1.171,9.446,2.113c0.612,0.189,1.203,0.372,1.762,0.539l0.594,0.177l0.001,0.015l0.349,0.09l0.231,0.069
		l0.001-0.009l0.11,0.028c0.66,0.17,1.349,0.339,1.936,0.432c2.921,0.423,5.799,0.805,8.556,1.133l0.821,0.098l0.001,0.006
		l0.762,0.087c3.233,0.369,6.43,0.67,9.501,0.893l1.189,0.087l-0.001-0.012l0.274,0.017c1.648,0.1,3.286,0.191,4.939,0.251
		c1.559,0.05,3.206,0.074,5.183,0.074l2.566-0.009l-0.002-0.009l0.401-0.006c3.771-0.059,7.55-0.22,11.552-0.493l0.753-0.051v0.004
		l0.347-0.027l0.038-0.003V405.2l0.543-0.042c3.547-0.279,7.427-0.649,11.86-1.133l1.091-0.119l-0.001-0.002l0.703-0.079
		c3.563-0.4,7.136-0.831,10.73-1.271l0.828-0.102l0.049-0.833c0.399-6.866,0.135-12.712-0.832-18.396
		C293.316,375.658,290.693,368.947,287.916,361.842z"/>
</g>
<g>
	<path style="fill:#897D88;" d="M255.932,215.284l1.434,2.396l0.505-3.376c3.421-22.873,6.652-44.477,14.207-66.886
		c0.931-2.771,1.873-5.537,2.814-8.302c3.232-9.497,6.574-19.316,9.409-29.14l0.27-0.934c2.03-7.005,3.947-13.622-1.492-20.163
		c-3.241-3.893-7.325-7.177-11.274-10.353l-1.656-1.335c-17.322-14.015-38.002-26.195-61.466-36.203
		c-21.974-9.377-46.104-16.737-73.769-22.499c-12.176-2.541-25.026-4.762-39.284-6.792c-4.759-0.674-9.626-1.236-14.333-1.78
		c-7.036-0.813-14.311-1.654-21.366-2.885l-0.166-0.029l-1.265,0.2l-3.114,0.506l2.837,1.38
		c8.376,4.075,15.535,10.007,21.275,17.628c0.31,0.417,0.329,0.77,0.058,1.113l-1.653,2.091l2.621-0.488l3.671-0.697
		c11.733-2.217,23.865-4.509,35.768-4.509c7.266,0,13.852,0.833,20.134,2.548c17.887,4.896,34.729,13.598,51.015,22.014l1.43,0.739
		c16.722,8.642,34.014,17.579,52.114,23.789c1.101,0.378,2.272,0.765,3.492,1.168c11.084,3.663,26.265,8.68,28.207,20.419
		l0.041,0.249l0.154,0.2c0.04,0.052,0.058,0.123,0.054,0.194l-0.076,0.867l0.004,0.067c0.071,1.181,0.031,2.322-0.122,3.481
		c-0.028,0.2-0.098,0.36-0.228,0.52l-0.166,0.206l-0.043,0.261c-2.319,14.204-9.636,27.436-16.712,40.233
		c-1.852,3.349-3.766,6.811-5.538,10.206c-5.686,10.879-11.566,22.129-8.749,35.017
		C247.299,197.005,251.293,207.531,255.932,215.284z"/>
	<path style="fill:#897D88;" d="M45.64,82.182c7.564,17.77,7.739,39.354,0.535,65.987l-0.597,2.207l2.026-1.06
		c31.812-16.643,67.263-26.81,94.595-33.808c19.641-5.034,37.392-8.608,54.269-10.928c12.938-1.787,26.678-3.532,39.936-3.532
		c4.275,0,8.38,0.184,12.203,0.547l0.155,0.021l0.171-0.045l0.133,0.056l2.747,0.313l-1.505-1.974
		c-0.088-0.122-0.178-0.241-0.273-0.346c-1.596-1.769-4.202-2.889-6.502-3.876c-0.724-0.311-1.421-0.61-2.041-0.912
		c-6.99-3.42-13.98-6.84-20.97-10.25L177.23,63.413c-12.226-5.977-24.868-12.157-38.058-16.463
		c-13.446-4.396-28.212-6.899-43.886-7.439c-2.027-0.069-4.112-0.104-6.196-0.104c-19.586,0-39.031,3.085-57.836,6.069
		c-5.967,0.947-12.137,1.926-18.233,2.794l-0.175,1.939C26.847,54.87,39.106,66.823,45.64,82.182z"/>
	<path style="fill:#897D88;" d="M235.019,139.261c5.167-8.358,10.509-17,14.113-26.26c0.137-0.354,0.288-0.728,0.444-1.118
		c0.651-1.617,1.389-3.451,1.791-5.324l0.644-3.007l-2.289,2.053c-2.554,2.29-5.549,4.364-8.446,6.371
		c-2.408,1.668-4.898,3.392-7.124,5.233c-5.543,4.585-11.068,9.725-16.423,15.277c-9.82,10.191-18.952,21.565-27.917,34.771
		c-16.825,24.766-33.169,51.815-38.796,81.788l-0.056,0.362l0.166,0.31c0.221,0.414,0.443,0.828,0.655,1.262l0.566,1.156l0.98-0.833
		c10.66-9.059,24.257-14.049,38.286-14.049c10.589,0,20.931,2.871,29.908,8.303c5.425,3.287,10.407,7.51,14.401,12.206
		c0.4,0.478,0.77,0.956,1.14,1.443l1.711-1.009c-1.403-3.179-2.863-6.383-4.334-9.611c-10.257-22.511-20.863-45.789-17.063-69.939
		C219.667,164.096,227.472,151.471,235.019,139.261z"/>
	<path style="fill:#897D88;" d="M89.431,212.739c23.215,0,45.591,12.033,58.395,31.402l1.325,2.005l0.488-2.354
		c3.027-14.605,9.491-27.945,14.785-37.935c8.054-15.218,15.918-28.378,24.041-40.232c9.473-13.824,18.997-25.522,29.116-35.762
		c5.37-5.431,10.906-10.445,16.455-14.903c0.73-0.587,1.477-1.197,2.237-1.819c3.294-2.695,6.699-5.482,10.326-7.574l-0.575-1.864
		c-0.275,0.009-0.549,0.018-0.815,0.018h-0.216l-0.197,0.089c-29.996,13.579-58.469,29.046-84.63,45.971
		c-14.583,9.427-28.806,19.569-42.276,30.144c-1.065,0.838-2.135,1.675-3.206,2.513c-10.817,8.46-22.004,17.209-29.757,28.849
		l-1.108,1.662l1.995-0.109C87.011,212.772,88.228,212.739,89.431,212.739z"/>
</g>
<path style="fill:#FF656F;" d="M240.275,449.595c-0.786-0.906-2.103-2.098-3.913-2.624c-0.368-0.108-0.744-0.177-1.183-0.217
	l-1.26-0.114l0.181,1.252c0.026,0.178,0.052,0.356,0.061,0.561c0.068,1.265-0.186,2.508-0.735,3.596l-0.915,1.814l1.996-0.381
	c0.555-0.106,1.147-0.16,1.758-0.16c1.43,0,3.005,0.29,4.681,0.864l2.043,0.699l-0.788-2.011
	C241.706,451.615,241.079,450.545,240.275,449.595z"/>
<path style="fill:#897D88;" d="M85.879,205.73c2.782-3.703,6.217-6.955,9.21-9.647c5.978-5.385,12.183-10.426,19.661-16.338
	c13.375-10.57,27.267-20.599,41.289-29.809c26.322-17.265,54.22-32.161,82.92-44.274l-0.387-1.921l-3.253-0.004
	c-4.055,0-8.399,0.035-12.696,0.286c-9.172,0.532-18.743,1.507-28.445,2.899c-16.398,2.354-33.54,5.845-52.405,10.671
	c-27.432,7.016-54.129,16.995-79.946,26.645c-3.334,1.246-6.672,2.494-10.015,3.736l-3.591,1.335l3.786,0.59
	c10.378,1.618,20.155,8.376,26.152,18.077c6.032,9.769,8.083,22.565,5.932,37.007L85.879,205.73z"/>
<g>
	<path style="fill:#FF656F;" d="M229.733,455.486l-0.208-0.023l-0.199,0.061c-0.236,0.072-0.489,0.135-0.733,0.19l-0.969,0.215
		l0.209,0.971c0.164,0.764,0.208,1.505,0.132,2.21c-0.01,0.102-0.028,0.192-0.044,0.285l-0.202,1.262l1.049,0.107
		c1.873,0.192,3.958,0.751,6.374,1.706l1.65,0.652l-0.297-1.75C235.975,458.299,233.193,455.879,229.733,455.486z"/>
	<path style="fill:#FF656F;" d="M199.476,456.832c-1.596-1.504-3.44-2.363-5.637-2.625l-1.615-0.192l0.557,1.528
		c0.441,1.213,0.644,2.459,0.6,3.702l-0.025,0.707l0.857,0.335c0.141,0.053,0.279,0.105,0.421,0.172
		c1.761,0.804,3.249,2.201,4.548,4.272l0.637,1.015l0.885-0.809c0.545-0.499,1.213-0.862,2.043-1.11l1.124-0.338l-0.512-1.056
		C202.169,459.977,200.934,458.197,199.476,456.832z"/>
	<path style="fill:#FF656F;" d="M195.27,463.046c-1.327-1.266-2.804-1.881-4.514-1.881c-0.325,0-0.654,0.021-0.987,0.062
		l-1.162,0.141l0.32,1.125c0.113,0.395,0.188,0.756,0.229,1.105c0.113,0.941,0.078,1.754-0.106,2.485l-0.326,1.287l1.327-0.042
		c0.248-0.008,0.498-0.012,0.749-0.012c1.751,0,3.701,0.188,5.795,0.557l1.94,0.342l-0.869-1.768
		C196.976,465.04,196.192,463.928,195.27,463.046z"/>
	<path style="fill:#FF656F;" d="M165.743,329.024l0.585-0.876l-1.24-0.416c-3.241-1.087-6.569-1.949-9.896-2.569l0.008-0.015
		l-0.929-0.157l-0.048-0.009v0.001l-0.345-0.058c-4.223-0.715-8.603-1.078-13.021-1.083l0.013-0.018l-0.805,0.019l-0.279,0.001
		l-0.003,0.005l-0.984,0.023c-3.771,0.085-7.678,0.435-11.616,1.029l0.021-0.035l-2.132,0.37c-4.292,0.744-8.797,1.826-13.396,3.202
		l0.006-0.02l-0.906,0.285l-0.11,0.033v0.001l-0.824,0.26c-3.042,0.958-6.184,2.077-9.345,3.326l-0.724,0.292
		c-0.499,0.201-1.001,0.405-1.502,0.609l0.001-0.005l-0.311,0.131c-0.053,0.022-0.106,0.043-0.16,0.065l-0.523,0.215l-0.001,0.009
		l-0.784,0.33c-3.4,1.431-6.902,3.032-10.419,4.755l0.006-0.027l-1.84,0.932c-4.949,2.505-9.689,5.201-14.112,8.014l0.001-0.027
		l-1.604,1.049c-3.945,2.578-7.656,5.29-11.062,8.065l-0.003-0.032l-1.44,1.207c-3.157,2.646-6.111,5.432-8.808,8.284l-0.005-0.061
		l-1.559,1.735c-3.077,3.424-5.832,7.041-8.21,10.75l-0.025-0.055l-0.988,1.636c-2.212,3.664-4.047,7.455-5.478,11.272l-0.028-0.034
		l-0.593,1.713c-1.564,4.518-2.598,9.186-3.098,13.881l-0.032-0.027l-0.152,1.914c-0.111,1.395-0.174,2.668-0.193,3.891
		c-0.048,2.668,0.108,5.38,0.454,8.066l-0.061-0.043l0.412,2.366c0.715,4.101,1.932,8.163,3.617,12.074l0.137,0.318l-0.013,0.006
		l0.213,0.46l0.084,0.195l0.005-0.003l0.125,0.269c1.53,3.304,3.4,6.485,5.558,9.457l0.026,0.035l-0.013,0.008l0.543,0.722
		l0.047,0.065l0.001-0.001l0.056,0.074c1.817,2.416,3.895,4.76,6.174,6.967l0.03,0.03l-0.023,0.015l0.948,0.88
		c2.078,1.929,4.329,3.758,6.689,5.44l-0.026,0.017l1.227,0.829c2.714,1.834,5.695,3.591,8.859,5.228l-0.014,0.01l0.634,0.313
		l0.129,0.066l0.002-0.002l0.799,0.394c2.776,1.369,5.79,2.692,8.957,3.934l0.865-1.797c-2.547-1.471-5.002-3.094-7.298-4.823
		l-0.504-0.379l-0.627-0.496c-2.504-1.982-4.663-3.983-6.6-6.118l-0.142-0.157l-1.063-1.228c-0.144-0.162-0.286-0.323-0.422-0.487
		c-1.288-1.568-2.524-3.302-3.673-5.153l-0.424-0.683l-0.012,0.004l-0.406-0.71c-1.297-2.27-2.399-4.597-3.28-6.92l-0.308-0.853
		c-1.005-2.786-1.761-5.59-2.246-8.334l-0.086-0.487l-0.119-0.806c-0.339-2.287-0.531-4.571-0.569-6.79l-0.011-0.626l0.001-0.364
		c0.01-2.769,0.237-5.503,0.676-8.128l0.154-0.922l0.121-0.609c0.64-3.23,1.589-6.355,2.821-9.287l0.25-0.655l0.013,0.003
		l0.344-0.749c0.765-1.665,1.543-3.163,2.38-4.575c0.333-0.558,0.686-1.106,1.038-1.645l0.422-0.646l0.432-0.621
		c1.196-1.719,2.46-3.329,3.756-4.787l0.794-0.892l-0.006-0.004l0.352-0.371c2.385-2.52,5.053-4.854,7.931-6.938l0.893-0.647
		l0.435-0.298c2.847-1.949,5.971-3.736,9.285-5.313l0.889-0.423l0.64-0.287c3.455-1.549,7.145-2.893,10.967-3.992l0.168-0.048v0.001
		l0.902-0.249c2.694-0.746,5.423-1.372,8.112-1.86l0.864-0.157l0.67-0.11c1.376-0.226,2.614-0.407,3.782-0.555
		c2.044-0.255,4.16-0.476,6.29-0.655l1.722-0.146l-0.007-0.01c3.001-0.236,5.912-0.374,8.654-0.412l1.604-0.022l-0.004-0.009
		l0.314,0.001c3.807,0.01,7.452,0.2,10.835,0.564l0.442,0.048v0.001l0.812,0.101c3.247,0.4,6.344,0.974,9.204,1.706l1.333,0.341
		l0.363,0.103c3.059,0.862,5.932,1.913,8.54,3.125l0.761,0.354v0.002l0.523,0.262c2.416,1.208,4.584,2.503,6.627,3.96l1.141,0.813
		l0.398-1.343c2.472-8.327,2.053-17.415,1.647-26.203c-0.345-7.476-0.701-15.208,0.753-22.322L165.743,329.024z"/>
</g>
<g>
	<path style="fill:#231F20;" d="M441.562,160.333c-3.499,0.837-7.101-3.29-10.047-4.367c-2.412-0.881-4.474-0.625-6.846,0.277
		c-1.295,0.493-2.499,1.161-3.821,1.595c-3.193,1.047-5.345,1.557-7.191-1.271c-4.14-6.34,11.189-6.271,14.425-6.66
		c0.539-0.065,0.798-0.946,0.143-1.054c-4.924-0.81-12.059-0.409-16.315,2.544c-3.269,2.268-4.296,6.832-1.096,9.671
		c1.35,1.198,2.886,1.764,4.49,1.936c-2.579,5.127,1.818,11.827,7.789,10.028c0.726-0.219,0.527-1.186-0.17-1.258
		c-4.558-0.473-7.821-4.173-6.591-8.713c0.498,0.003,1-0.017,1.503-0.074c0.895,3.622,4.408,6.658,7.957,7.24
		c0.499,0.082,0.927-0.646,0.378-0.897c-1.729-0.789-3.407-1.852-4.776-3.175c-1.033-0.998-1.715-2.141-2.353-3.35
		c0.07-0.014,0.141-0.022,0.211-0.036c1.219,2.554,4.544,3.872,7.544,4.185c2.509,0.262,8.554-1.56,8.598-4.758
		c0.021,0.008,0.042,0.014,0.063,0.023c-0.059,1.293-0.564,2.862-1.027,3.805c-0.607,1.235-1.354,2.43-2.047,3.62
		c-0.234,0.401,0.153,0.905,0.601,0.782c1.928-0.527,3.119-1.845,3.82-3.673c0.334-0.872,0.571-1.803,0.623-2.739
		c0.029-0.524-0.041-0.959-0.14-1.382c1.694,0.167,2.925-0.351,4.659-1.387C442.436,160.952,442.111,160.201,441.562,160.333z
		 M432.476,161.164c-1.368,1.385-2.063,2.463-4.183,2.736c-2.077,0.268-4.782-0.339-6.545-1.801
		c0.883-0.286,1.741-0.608,2.554-0.932c0.714-0.284,1.324-0.534,1.883-0.741c0.063,0.452,0.219,0.873,0.492,1.243
		c0.559,1.147,2.287,1.306,2.791,0.04c0.356-0.462,0.508-1.124,0.563-1.745c0.743,0.145,1.585,0.425,2.633,0.883
		c0.032,0.014,0.064,0.033,0.096,0.047C432.67,160.975,432.579,161.06,432.476,161.164z"/>
	<path style="fill:#231F20;" d="M494.964,163.452c-0.115-0.168-0.24-0.329-0.38-0.475c-0.987-1.023-2.642-1.499-3.941-0.791
		c-1.418,0.773-1.559,2.547-0.776,3.819c0.091,0.147,0.193,0.293,0.305,0.434c0.284,0.73,0.872,1.321,1.679,1.566
		c0.303,0.092,0.62,0.128,0.935,0.115c0.208,0.04,0.416,0.066,0.626,0.061c1.812-0.036,2.579-1.888,2.2-3.446
		C495.501,164.278,495.267,163.838,494.964,163.452z"/>
	<path style="fill:#231F20;" d="M497.597,159.399c-1.769-1.403-4.251-2.559-6.546-2.458c-1.125,0.049-1.382,1.65-0.268,1.98
		c2.039,0.605,3.776,1.145,5.359,2.661c1.129,1.081,1.809,3.237,3.343,3.688c0.355,0.104,0.823-0.065,0.996-0.405
		C501.479,162.9,499.013,160.522,497.597,159.399z"/>
	<path style="fill:#231F20;" d="M380.458,146.702c-5.948-6.055-12.498-10.757-17.547-17.758c-4.864-6.745-8.887-14.43-11.203-22.431
		c-0.285-0.987-1.794-0.574-1.54,0.424c2.22,8.729,5.449,16.768,10.742,24.124c4.714,6.553,10.879,13.81,18.439,17.077
		C380.249,148.528,381.241,147.499,380.458,146.702z"/>
	<path style="fill:#231F20;" d="M389.634,145.195c0.622,0.548,1.788-0.192,1.228-0.948c-7.521-10.155-20.521-14.882-25.402-27.218
		c-0.309-0.781-1.579-0.461-1.283,0.354C368.582,129.507,380.342,137.005,389.634,145.195z"/>
	<path style="fill:#231F20;" d="M509.086,167.305c0.493-9.124-4.847-18.151-14.273-21.112c-4.038-1.269-8.332-1.292-12.524-1.354
		c-5.856-0.086-10.694-0.756-16.06-3.248c-3.527-1.638-6.959-3.563-10.835-4.244c-4.999-0.878-9.516,1.115-14.476,1.077
		c-8.443-0.064-15.989-4.89-24.507-4.174c-18.441-13.501-38.973-24.542-58.384-36.499c-20.086-12.373-39.192-25.544-56.634-41.485
		c-2.119-1.936-5.505,0.509-4.029,3.109c5.753,10.131,10.903,20.546,17.931,29.942c6.803,9.095,14.899,16.59,22.895,24.573
		c7.809,7.798,11.215,18.286,17.863,26.947c6.43,8.376,14.965,16.655,15.464,27.819c-3.147,3.959-6.107,8.064-8.705,12.389
		c-4.613,7.681-8.083,16.166-9.208,25.097c-1.187,9.418,0.955,17.894,3.812,26.798c2.982,9.292,4.833,18.278,1.328,27.718
		c-3.166,8.525-9.858,15.763-17.903,19.916c-10.783,5.567-23.339,5.178-34.477,0.924c-12.975-27.769-20.582-56.849-20.415-87.809
		c0.086-15.889,2.106-31.736,6.088-47.121c1.978-7.641,4.433-15.171,7.38-22.494c2.676-6.648,7.319-13.503,8.253-20.707
		c0.9-6.936-3.134-12.962-6.788-18.509c-3.888-5.903-8.466-11.355-13.504-16.307c-10.513-10.334-22.903-18.616-35.794-25.676
		C223.161,27.31,192.086,15.453,160.58,7.942C124.108-0.753,85.904-3.095,49.085,4.892c-2.478,0.538-2.256,4.138,0,4.797
		C60.07,12.9,69.437,19.273,76.29,28.464c0.207,0.277,0.447,0.485,0.703,0.641c-9.893,1.931-19.749,4.065-29.547,6.426
		c-10.106,2.435-20.954,4.498-30.693,8.371c-4.393,0.962-8.727,2.151-13.052,3.409c-1.917,0.558-2.277,3.932,0,4.256
		c18.493,2.623,32.936,16.781,39.521,33.814c8.076,20.891,4.092,44.404-2.071,65.222c-0.431,1.457,0.811,3.493,2.5,3.281
		c13.324-1.672,25.605,5.769,32.07,17.306c7.355,13.123,6.264,29.009,2.297,42.993c-0.583,2.053,1.295,3.367,3.119,3.119
		c26.678-3.622,53.609,10.472,66.293,33.91c-0.068,0.567-0.145,1.131-0.202,1.702c-0.123,1.232,0.961,1.956,2.041,2.007
		c0.145,0.317,0.3,0.628,0.44,0.948c0.67,1.53,2.868,1.498,3.915,0.505c21.887-20.783,56.739-20.624,77.578,1.65
		c1.386,1.482,2.628,3.073,3.791,4.723c-9.809-1.293-20.184,0.347-29.314,3.836c-11.991,4.583-22.444,11.084-35.193,13.717
		c-12.955,2.675-25.359,6.716-37.857,10.997c-13.08,4.48-26.346,8.416-39.336,13.167c-22.018,8.052-41.673,22.31-59.271,37.653
		c-8.452,7.369-16.279,15.791-21.265,25.938c-4.909,9.99-7.239,20.9-8.128,31.939C3.09,419.106,2.724,447.411,21.3,458.91
		c6.2,6.326,13.233,11.746,21.167,16.215c14.291,8.05,30.1,9.92,45.266,15.488c8.054,2.957,15.632,7.034,24.053,8.936
		c8.274,1.869,16.831,2.189,25.277,2.472c18.77,0.629,36.401,3.354,54.079,9.859c1.906,0.702,3.867-1.842,2.699-3.511
		c-4.838-6.913-13.883-10.224-21.448-13.258c-9.517-3.817-19.321-6.654-29.274-9.083c-20.427-4.984-41.701-8.049-60.865-17.125
		c-19.866-9.408-35.495-26.675-33.272-50.03c2.232-23.44,21.202-38.783,42.795-44.415c11.763-3.068,24.29-3.918,36.412-3.338
		c11.878,0.568,23.906,3.232,33.389,10.739c-0.811,1.809-1.789,3.578-2.986,5.293c-4.962,7.113-12.038,12.639-15.517,20.762
		c-3.878,9.054-2.822,20.302-2.95,29.925c-0.078,5.856-0.079,11.716,0.167,17.569c0.164,3.888-0.396,9.549,2.092,12.9
		c1.947,2.621,5.134,3.116,8.164,3.457c6.261,0.705,12.674,0.77,18.966,0.619c4.023-0.096,11.902,0.512,16.697-1.761
		c2.178,0.504,4.429,0.449,6.652,0.659c2.536,0.239,5.044,0.649,7.568,0.969c1.914,0.242,2.517-2.045,1.948-3.394
		c-0.166-0.392-0.338-0.786-0.514-1.179c1.437-0.191,2.843-0.763,4.273-1.057c1.37-0.281,1.97-2.038,1.29-3.172
		c-0.236-0.394-0.471-0.79-0.707-1.186c4.237,1.201,8.838,1.606,13.124,1.947c2.029,0.161,4.184,0.147,5.895-0.534
		c1.615,0.416,3.363,0.576,4.961,0.984c2.089,0.532,4.136,1.188,6.14,1.983c0.96,0.381,2.414-0.426,2.565-1.456
		c0.456-3.111-0.554-6.115-2.403-8.18c2.321,0.907,4.805,1.584,7.028,2.414c1.604,0.599,3.272-1.223,2.773-2.773
		c-1.168-3.631-2.86-7.425-6.091-9.668c-1.633-1.134-4.228-2.145-6.444-1.888c-1.525-2.882-4.765-4.445-8.087-5.255
		c-6.867-1.674-15.085-4.027-17.48-11.635c-2.32-7.367,2.198-16.382,5.961-23.303c10.872,2.471,22.064,3.657,33.177,4.171
		c15.155,0.701,31.236,0.404,46.221-2.704c-0.184,1.974-0.396,3.956-0.637,5.962c-0.496,4.115-0.685,8.237,0.265,12.308
		c1.042,4.463,3.492,8.433,4.506,12.927c2.035,9.017,0.094,17.839,0.579,26.885c0.398,7.417,4.517,10.373,11.395,11.974
		c8.764,2.039,18.184,3.342,27.198,3.01c1.603-0.059,2.95-0.383,4.086-0.894c0.109,0.115,0.243,0.208,0.416,0.251
		c2.128,0.532,4.306-0.036,6.464-0.014c2.667,0.027,5.069,0.961,7.269,2.42c1.675,1.111,3.761-0.722,3.286-2.526
		c-0.525-1.994-0.913-4.495-1.554-6.894c2.462-0.243,4.894-0.412,7.397-0.389c1.818,0.017,2.807-1.965,2.002-3.488
		c-2.931-5.543-8.614-14.571-15.954-12.27c-1.317-4.691-5.814-8.543-10.842-9.963c-4.693-1.326-5.919-3.794-6.099-8.577
		c-0.122-3.246,0.069-6.493-0.072-9.743c-0.315-7.266-1.084-14.415-2.085-21.613c-0.454-3.263-0.91-6.553-1.267-9.854
		c8.058,0.641,17.83-2.413,25.117-5.326c7.666-3.065,14.473-7.649,20.005-13.795c10.751-11.942,17.45-26.793,24.156-41.214
		c7.172-15.424,9.872-30.555,10.209-47.589c0.245-12.389-0.937-24.973,1.483-37.221c2.365-11.971,8.65-20.159,16.531-28.652
		c3.536,0.632,7.108,1.011,10.695,0.902c3.396-0.103,6.601-0.919,9.947-1.378c4.302-0.59,8.161,0.22,12.283,1.425
		c6.927,2.025,14.045,5.047,21.195,6.093c9.757,1.427,17.87-7.33,15.451-16.966c-0.247-0.986-1.261-1.754-2.277-1.734
		c-1.613,0.033-3.205-0.041-4.78-0.191c0.47-2.093-0.607-4.657-1.081-6.883c-0.867-4.077-1.261-8.341-4.475-11.304
		c-0.91-0.838-2.313-0.683-2.973,0.383c-2.039,3.291-4.458,9.388-7.736,12.589c-0.528-3.284-1.023-6.906-2.159-9.752
		c-0.577-1.445-1.012-2.265-2.555-2.851c-0.58-0.22-1.226,0.06-1.656,0.438c-2.411,2.115-4.51,5.339-5.823,8.454
		c-0.132-0.053-0.264-0.104-0.396-0.157c0.031-1.441-0.84-2.974-1.38-4.297c-1.008-2.471-2.107-4.89-3.017-7.401
		c-0.414-1.141-1.995-1.491-2.664-0.348c-1.578,2.698-3.01,5.374-4.132,8.276c-4.459-1.137-8.977-2.018-13.345-3.495
		c-4.103-1.388-7.699-3.586-11-6.368c-1.621-1.366-2.854-2.962-4.052-4.6c7.674-0.237,15.397-0.775,23.053-1.443
		c0.93,2.569,1.678,5.101,1.882,7.94c0.095,1.318,1.475,2.311,2.717,1.559c2.913-1.766,3.218-4.393,5-7.023
		c0.151-0.223,0.46-1.436,0.713-1.497c0.328-0.079,2.1,2.493,2.356,2.852c1.339,1.87,2.435,3.875,3.421,5.95
		c0.798,1.679,3.001,0.922,3.554-0.464c1.247-3.129,2.701-6.539,3.367-9.965c1.355,3.389,2.898,6.675,4.504,9.985
		c0.789,1.625,3.083,1.003,3.584-0.468c1.285-3.775,2.406-7.566,3.371-11.415c1.629,3.063,2.124,6.596,2.572,10.143
		c0.225,1.779,1.956,2.497,3.368,1.395c2.803-2.185,3.977-5.642,4.791-9.145c1.329,3.19,1.992,6.543,2.058,10.221
		c0.029,1.632,1.658,2.356,3.022,1.734c4.974-2.268,7.183-10.592,9.421-15.185c0.103-0.212,0.156-0.42,0.186-0.624
		c0.42-0.212,0.83-0.452,1.221-0.747C509.133,174.465,511.027,170.323,509.086,167.305z M365.273,144.773
		c-3.407-4.278-7.018-8.423-9.867-13.11c-0.931-1.532-1.775-3.109-2.603-4.691c-1.59-5.926-2.634-11.708-6.607-16.771
		c-4.098-5.223-9.872-9.26-13.056-15.177c-0.266-0.494-1.152-0.148-0.927,0.391c2.338,5.614,6.058,9.438,9.924,14.032
		c2.088,2.481,3.763,4.944,5,7.801c-0.258-0.352-0.507-0.708-0.781-1.05c-3.613-4.513-8.22-8.046-12.496-11.887
		c-4.453-4-8.563-8.361-12.384-12.966c-5.99-7.219-11.701-15.304-15.708-23.975c14.68,12.936,31.413,23.703,47.944,33.956
		c10.232,6.346,20.537,12.592,30.877,18.762c8.711,5.198,17.36,10.636,26.327,15.424c-1.405,0.563-2.729,1.316-3.886,2.31
		c-3.698,3.176-3.712,7.152-9.171,8.339c-7.863,1.71-12.543,6.59-17.798,12.45c-1.481,1.652-2.95,3.323-4.397,5.017
		C374.055,156.566,369.88,150.556,365.273,144.773z M242.438,43.456c13.06,6.58,25.835,14.138,36.873,23.801
		c5.652,4.947,10.854,10.431,15.294,16.497c5.102,6.971,10.331,14.756,6.91,23.552c-2.678,6.886-6.122,13.433-8.674,20.391
		c-2.517,6.864-4.626,13.877-6.324,20.988c-3.445,14.432-5.237,29.29-5.37,44.125c-0.261,29.026,5.62,59.569,18.877,85.768
		c-4.043-2.197-7.782-4.907-11.03-8.018c-12.314-11.794-20.252-28.044-27.162-43.727c-1.196-27.142,4.89-52.805,13.379-78.608
		c4.31-13.102,9.158-26.041,13.293-39.198c1.508-4.799,3.1-9.942,1.604-14.955c-1.505-5.046-5.319-8.939-9.12-12.376
		C244.168,48.405,196.62,29.22,148.721,18.48c-15.284-3.427-30.735-6.064-46.243-8.245c-9.866-1.388-19.892-2.932-29.92-3.873
		C130.971,0.466,190.445,17.26,242.438,43.456z M58.665,8.186c0.363-0.06,0.728-0.107,1.091-0.165
		c11.814,2.06,23.874,2.99,35.734,4.673c13.139,1.864,26.23,4.066,39.222,6.774c25.112,5.232,49.955,12.364,73.574,22.438
		c21.835,9.313,42.747,21.104,61.23,36.066c4.398,3.56,9.159,7.184,12.794,11.552c5.331,6.405,3.114,12.946,1.027,20.173
		c-3.642,12.614-8.024,24.965-12.212,37.403c-7.642,22.694-10.837,44.274-14.332,67.667c-5.021-8.383-8.745-19.01-10.84-28.58
		c-2.744-12.534,3.016-23.547,8.664-34.36c8.378-16.04,19.373-32.527,22.339-50.717c0.214-0.26,0.386-0.578,0.443-1.006
		c0.172-1.293,0.201-2.515,0.129-3.683c0.022-0.268,0.05-0.534,0.068-0.802c0.025-0.362-0.081-0.654-0.259-0.88
		c-2.254-13.655-21.036-18.482-32.354-22.364c-18.548-6.361-36.035-15.497-53.418-24.476c-16.448-8.497-33.263-17.182-51.205-22.086
		c-19.636-5.367-39.162-1.288-58.722,2.39c-0.432,0.081-0.863,0.17-1.296,0.252c0.486-0.627,0.601-1.474-0.045-2.332
		C74.499,18.421,67.171,12.33,58.665,8.186z M47.14,148.431c5.871-21.705,8.437-45.446-0.581-66.638
		c-6.272-14.739-18.198-27.469-33.401-32.535c27.374-3.898,54.203-9.697,82.094-8.744c14.804,0.506,29.508,2.779,43.607,7.386
		c13.937,4.554,27.093,11.12,40.237,17.541c13.663,6.675,27.324,13.356,40.986,20.034c6.99,3.417,13.978,6.836,20.969,10.25
		c2.544,1.242,6.311,2.425,8.236,4.561c0.113,0.125,0.203,0.26,0.3,0.391c-0.09-0.009-0.181-0.015-0.271-0.024
		c-0.183-0.085-0.391-0.11-0.615-0.054c-17.17-1.629-35.43,0.653-52.371,2.987c-18.328,2.525-36.467,6.36-54.384,10.949
		C109.773,122.779,76.734,132.945,47.14,148.431z M79.006,167.451c-5.874-9.514-15.812-16.825-26.845-18.544
		c29.716-11.044,59.01-22.459,89.862-30.349c17.236-4.408,34.677-8.124,52.292-10.651c9.41-1.35,18.873-2.336,28.364-2.886
		c5.3-0.307,10.596-0.288,15.89-0.278c-29,12.239-56.69,27.048-83.077,44.36c-14.222,9.331-28.017,19.305-41.358,29.857
		c-6.692,5.293-13.37,10.67-19.716,16.377c-3.289,2.957-6.62,6.176-9.336,9.792C87.003,192.238,85.947,178.694,79.006,167.451z
		 M148.664,243.589c-13.611-20.59-38.165-33.112-62.904-31.752c8.421-12.635,20.868-21.778,32.755-31.122
		c13.585-10.679,27.682-20.714,42.191-30.097c26.882-17.386,55.322-32.69,84.504-45.896c0.295-0.003,0.591-0.016,0.886-0.019
		c-4.552,2.633-8.834,6.387-12.685,9.482c-5.801,4.661-11.309,9.687-16.54,14.977c-10.865,10.988-20.502,23.164-29.23,35.9
		c-8.859,12.927-16.772,26.48-24.102,40.325C157.062,217.616,151.446,230.132,148.664,243.589z M222.038,244.699
		c-21.946-13.277-50.04-10.581-69.355,5.837c-0.22-0.441-0.456-0.872-0.685-1.308c5.56-29.622,21.867-56.708,38.64-81.41
		c8.331-12.268,17.518-23.959,27.816-34.642c5.164-5.357,10.604-10.453,16.337-15.197c4.857-4.019,10.861-7.383,15.595-11.631
		c-0.472,2.245-1.498,4.515-2.189,6.292c-8.845,22.739-27.915,41.131-31.807,65.847c-4.403,27.961,10.306,54.839,21.471,80.108
		c-0.383-0.494-0.763-0.99-1.171-1.471C232.543,252.239,227.522,248.016,222.038,244.699z M72.793,470.056
		c-3.017-1.172-5.985-2.467-8.884-3.898c0.499-0.324,0.994-0.652,1.485-0.985C67.739,466.943,70.212,468.57,72.793,470.056z
		 M64.239,464.284c-0.586,0.36-1.149,0.768-1.69,1.194c-3.071-1.576-6.058-3.314-8.924-5.259c0.795-0.538,1.607-1.047,2.466-1.484
		c0.476-0.242,0.956-0.461,1.433-0.682C59.58,460.316,61.835,462.382,64.239,464.284z M55.859,456.135
		c0.24,0.292,0.495,0.568,0.741,0.854c-1.471,0.599-2.862,1.538-4.085,2.45c-2.359-1.673-4.588-3.475-6.661-5.406
		c1.188-0.759,2.392-1.488,3.668-2.115c0.833-0.41,1.708-0.726,2.585-1.033C53.235,452.701,54.482,454.458,55.859,456.135z
		 M51.251,449.46c-2.264,0.868-4.497,2.227-6.344,3.665c-2.209-2.147-4.245-4.431-6.07-6.853c2.772-1.783,5.964-2.726,9.022-3.978
		C48.794,444.757,49.926,447.155,51.251,449.46z M35.231,412.822c3.094,1.049,6.596,2.174,9.964,2.669
		c-0.46,2.744-0.689,5.518-0.7,8.29c-5.16-1.42-12.259,1.299-16.164-2.747c-0.363-2.679-0.533-5.419-0.484-8.217
		c0.023-1.293,0.097-2.566,0.195-3.829C30.148,410.728,32.567,411.919,35.231,412.822z M28.165,407.532
		c0.499-4.921,1.561-9.608,3.104-14.066c4.247,5.313,10.352,11.018,17.08,10.983c-1.286,3.075-2.238,6.255-2.883,9.484
		C39.603,411.863,33.103,411.656,28.165,407.532z M44.512,424.789c0.036,2.316,0.236,4.626,0.58,6.916
		c-4.151-0.866-8.959,1.168-12.898,3.168c-1.625-3.767-2.837-7.726-3.557-11.855C32.838,425.953,39.529,424.741,44.512,424.789z
		 M38.082,434.03c2.418-0.722,4.779-0.771,7.221-1.001c0.512,2.889,1.286,5.731,2.288,8.499c-3.419,0.503-6.673,1.759-9.401,3.855
		c-2.119-2.926-3.955-6.03-5.46-9.294C34.48,435.315,36.246,434.578,38.082,434.03z M51.404,398.346
		c-0.902,1.521-1.707,3.083-2.432,4.673c-3.636-0.876-6.961-1.79-10.179-4.056c-2.674-1.883-4.971-4.23-7.087-6.717
		c1.488-4.032,3.365-7.875,5.577-11.531c1.695,3.792,3.611,7.504,6.468,10.562c2.111,2.258,5.381,4.938,8.704,5.395
		C52.097,397.223,51.742,397.776,51.404,398.346z M53.327,395.384c-1.347-0.522-2.741-0.914-4.025-1.63
		c-2.047-1.141-3.823-2.707-5.34-4.483c-2.477-2.9-4.257-6.329-5.917-9.762c2.444-3.867,5.245-7.53,8.35-10.979
		c0.356,4.608,1.668,9.069,3.788,13.234c1.53,3.006,3.842,6.805,6.974,8.735C55.792,392.04,54.517,393.671,53.327,395.384z
		 M58.321,389.21c-1.238-0.844-2.412-1.721-3.447-2.929c-1.468-1.713-2.625-3.679-3.637-5.686
		c-2.095-4.154-3.436-8.605-3.785-13.216c2.858-3.068,5.942-5.971,9.203-8.707c0.488,4.56,1.531,8.95,3.373,13.265
		c1.115,2.611,2.444,5.181,4.062,7.519c0.656,0.947,1.382,1.987,2.3,2.698C63.492,384.253,60.786,386.603,58.321,389.21z
		 M67.744,381.193c-1.006-1.132-2.173-2.144-3.03-3.458c-1.477-2.265-2.736-4.677-3.781-7.169c-1.669-3.977-2.857-8.28-3.425-12.6
		c3.674-3.023,7.553-5.847,11.566-8.469c-0.152,4.966,0.753,10.315,2.029,14.833c1.086,3.846,2.982,8.485,6.061,11.474
		C73.879,377.363,70.72,379.155,67.744,381.193z M78.706,375.081c-1.167-1.308-2.32-2.609-3.244-4.153
		c-1.387-2.32-2.38-4.841-3.099-7.442c-1.236-4.467-2.305-9.817-2.173-14.706c4.71-3.017,9.583-5.771,14.502-8.258
		c-0.958,4.753-1.106,9.601-0.445,14.451c0.714,5.233,2.148,11.781,5.566,16.069C86.021,372.131,82.296,373.474,78.706,375.081z
		 M90.889,370.737c-0.86-2.453-2.157-4.741-3.031-7.198c-0.934-2.625-1.625-5.336-2.063-8.088
		c-0.82-5.156-0.683-10.437,0.202-15.577c3.629-1.799,7.274-3.465,10.885-4.985c-1.317,5.958-1.504,12.238-0.965,18.259
		c0.316,3.526,0.918,7.032,1.796,10.461c0.26,1.015,0.621,3.543,1.373,5.253C96.341,369.361,93.602,369.994,90.889,370.737z
		 M104.461,368.033c-1.271,0.16-2.544,0.346-3.818,0.556c0.008-1.162-0.594-2.36-0.947-3.561c-0.446-1.515-0.836-3.047-1.169-4.591
		c-0.687-3.178-1.13-6.408-1.337-9.653c-0.353-5.558,0.163-10.984,0.994-16.44c0.897-0.37,1.792-0.737,2.684-1.09
		c3.064-1.215,6.158-2.322,9.274-3.31c-1.953,6.108-2.788,12.613-2.74,18.996c0.027,3.597,0.354,7.189,0.967,10.733
		c0.425,2.461,0.908,5.519,2.42,7.69C108.655,367.554,106.537,367.771,104.461,368.033z M112.43,367.219
		c-1.262-2.945-2.247-5.63-2.774-8.892c-0.579-3.578-0.84-7.206-0.807-10.83c0.055-6.131,1.102-12.077,2.643-17.964
		c4.546-1.385,9.135-2.514,13.753-3.309c-1.479,2.483-2.534,5.353-3.425,7.948c-1.465,4.264-2.402,8.701-2.806,13.191
		c-0.385,4.277-0.29,8.617,0.368,12.863c0.313,2.019,0.805,4.52,1.852,6.571C118.278,366.842,115.336,366.992,112.43,367.219z
		 M123.159,366.774c-0.538-0.936-1.061-1.875-1.42-2.984c-0.616-1.905-0.937-3.896-1.149-5.882
		c-0.407-3.805-0.398-7.654,0.005-11.459c0.428-4.043,1.305-8.044,2.609-11.894c1.008-2.977,2.533-5.744,3.759-8.616
		c3.938-0.608,7.893-0.976,11.854-1.065c-3.645,4.811-4.657,11.948-5.309,17.594c-0.527,4.568-0.727,9.183-0.538,13.779
		c0.148,3.603,0.319,7.495,1.131,11.097C130.48,366.948,126.815,366.777,123.159,366.774z M144.696,369.216
		c-3.048-0.773-6.167-1.332-9.322-1.724c-0.268-3.406-0.824-6.799-0.955-10.224c-0.162-4.257-0.066-8.525,0.335-12.767
		c0.362-3.83,0.926-7.666,1.997-11.368c0.858-2.968,2.232-5.611,3.641-8.296c4.44-0.016,8.885,0.325,13.318,1.076
		c-3.406,6.926-6.785,13.982-8.381,21.556c-0.865,4.105-1.304,8.312-1.286,12.508C144.054,362.715,143.962,366.264,144.696,369.216z
		 M155.107,372.849c-2.798-1.295-5.706-2.34-8.686-3.183c-0.132-1.486-0.508-2.992-0.652-4.449
		c-0.205-2.058-0.302-4.126-0.285-6.194c0.035-4.236,0.53-8.457,1.487-12.583c0.957-4.124,2.401-8.071,4.169-11.913
		c1.273-2.768,2.719-5.523,3.741-8.41c3.308,0.615,6.608,1.46,9.894,2.56c-4.781,7.164-7.45,16.164-8.865,24.514
		c-0.751,4.432-1.124,8.924-1.106,13.419C154.811,368.693,154.924,370.774,155.107,372.849z M156.424,373.484
		c-0.066-1.233-0.023-2.585-0.061-3.209c-0.132-2.135-0.174-4.277-0.12-6.415c0.107-4.216,0.572-8.425,1.388-12.563
		c1.558-7.903,4.678-14.958,7.926-22.214c-3.191,15.603,2.144,33.213-2.377,48.436C161.023,375.981,158.763,374.645,156.424,373.484
		z M190.024,466.327c0.202-0.831,0.26-1.769,0.126-2.842c-0.053-0.423-0.144-0.846-0.264-1.267c1.658-0.198,3.184,0.114,4.693,1.555
		c0.923,0.882,1.617,1.961,2.188,3.114C194.558,466.495,192.236,466.257,190.024,466.327z M200.032,464.195
		c-1.233-1.951-2.79-3.647-4.982-4.643c-0.215-0.098-0.442-0.186-0.674-0.27c0.055-1.428-0.187-2.796-0.653-4.08
		c1.837,0.219,3.51,0.892,5.064,2.353c1.561,1.466,2.721,3.358,3.676,5.311C201.561,463.137,200.734,463.556,200.032,464.195z
		 M235.09,447.752c0.326,0.027,0.653,0.078,0.985,0.175c1.349,0.395,2.535,1.269,3.443,2.327c0.776,0.904,1.329,1.919,1.755,2.989
		c-2.283-0.783-4.699-1.175-6.949-0.744c0.609-1.211,0.919-2.608,0.835-4.104C235.147,448.173,235.117,447.963,235.09,447.752z
		 M235.508,461.543c-2.098-0.834-4.394-1.54-6.638-1.776c0.034-0.182,0.072-0.359,0.093-0.556c0.091-0.835,0.027-1.682-0.157-2.52
		c0.279-0.056,0.55-0.129,0.817-0.212C232.531,456.814,235.035,458.771,235.508,461.543z M206.08,432.425
		c2.321,4.15,6.362,7.04,10.651,8.892c1.998,0.863,4.05,1.489,6.168,1.996c2.9,0.692,5.851,1.107,7.48,4.028
		c1.367,2.451-0.711,5.144-3.048,5.887c-3.097-4.827-9.831-8.14-14.506-4.829c-0.875,0.619-0.915,2.225,0.325,2.486
		c2.205,0.463,4.423,0.34,6.54,1.218c3.154,1.31,8.561,6.332,1.799,8.361c-2.141,0.642-5.973-0.426-8.198-0.63
		c-2.855-0.262-5.681-0.711-8.54-0.712c-1.255-1.85-2.677-3.565-4.553-4.878c-2.567-1.797-5.169-2.207-8.023-1.975
		c-1.214-1.717-2.838-3.182-4.657-4.288c-0.001-0.102-0.004-0.204-0.019-0.309c-1.018-7.171-0.905-14.587-0.32-21.796
		c0.478-5.883,2.527-12.181,1.815-18.118c4.828-1.443,9.225-3.621,13.412-6.271c3.021,1.014,6.083,1.896,9.173,2.675
		C206.469,412.533,201.038,423.411,206.08,432.425z M219.816,401.397c-4.655-1.386-11.526-3.868-14.192-2.049
		c0.713-0.5,1.421-1.009,2.126-1.532c5.505-4.085,10.658-8.519,15.435-13.311c-0.748,2.567-1.333,5.191-1.867,7.765
		c-0.507,2.443-0.92,4.905-1.257,7.378C219.98,400.237,219.87,400.822,219.816,401.397z M231.656,400.97
		c-0.04,0.694-0.207,1.53-0.226,2.328c-2.851-0.342-5.697-0.72-8.532-1.133c-0.509-0.074-1.131-0.22-1.826-0.409
		c-0.151-1.864,0.596-4.394,0.808-5.72c0.316-1.973,0.682-3.939,1.09-5.896c0.509-2.441,1.173-4.844,1.801-7.255
		c4.705-4.892,9.027-10.15,12.885-15.837c-1.403,4.095-2.503,8.305-3.358,12.628c-0.911,4.606-1.571,9.264-2.051,13.934
		C231.995,396.059,231.798,398.513,231.656,400.97z M242.467,404.376c-3.156-0.224-6.308-0.529-9.453-0.888
		c-0.019-0.127-0.036-0.252-0.091-0.411c0.021-0.527,0.046-1.053,0.074-1.58c0.063-1.229,0.139-2.457,0.229-3.684
		c0.155-2.104,0.35-4.204,0.584-6.3c0.501-4.487,1.184-8.958,2.114-13.376c1.042-4.947,2.404-9.888,4.115-14.694
		c3.098-4.935,5.969-10.283,8.227-15.86c1.128,0.553,2.341,0.971,3.598,1.302c-3.737,8.72-5.924,18.241-7.44,27.544
		c-0.805,4.937-1.375,9.913-1.699,14.905C242.449,395.54,242.026,400.091,242.467,404.376z M255.306,404.791
		c-2.149,0.013-4.303,0.001-6.473-0.075c-1.638-0.057-3.275-0.146-4.913-0.249c0.271-4.182-0.02-8.465,0.22-12.641
		c0.309-5.362,0.896-10.707,1.771-16.007c1.508-9.143,4.133-17.892,6.701-26.748c2.899,0.666,6.022,0.858,9.045,0.847
		c-2.48,9.172-4.715,18.395-5.972,27.832c-0.632,4.745-1.03,9.525-1.075,14.313C254.571,396.06,254.428,400.697,255.306,404.791z
		 M256.935,404.772c-0.17-1.886-0.504-3.781-0.636-5.655c-0.165-2.348-0.237-4.701-0.223-7.055
		c0.029-5.032,0.444-10.056,1.121-15.04c1.241-9.137,3.3-18.166,5.52-27.118c1.799-0.032,3.548-0.12,5.17-0.204
		c1.058-0.055,2.286-0.065,3.592-0.084c-2.556,9.223-4.138,18.571-4.559,28.167c-0.378,8.621-0.226,17.871,1.506,26.492
		C264.613,404.544,260.785,404.713,256.935,404.772z M270.097,404.156c-0.529-3.497-1.102-6.982-1.402-10.521
		c-0.433-5.106-0.575-10.234-0.406-15.356c0.317-9.629,1.695-19.329,4.088-28.68c3.437-0.068,7.285-0.284,10.148-1.617
		c-1.144,4.194-1.616,8.663-2.072,12.941c-0.553,5.191-0.822,10.403-0.81,15.623c0.012,5.215,0.295,10.43,0.849,15.615
		c0.379,3.539,0.711,7.285,1.44,10.867C277.985,403.465,274.045,403.852,270.097,404.156z M294.437,401.559
		c-3.59,0.437-7.159,0.87-10.72,1.274c-0.572-3.553-1.331-7.096-1.73-10.67c-0.58-5.184-0.888-10.399-0.925-15.615
		c-0.036-5.045,0.173-10.096,0.623-15.121c0.386-4.303,1.184-8.576,1.648-12.87c0.183,3.172,0.872,6.465,2.195,9.907
		c3.176,8.265,6.593,16.123,8.091,24.927C294.669,389.56,294.787,395.536,294.437,401.559z M351.163,458.292
		c4.822,1.1,7.61,4.306,9.807,8.347c-1.76,0.094-3.49,0.41-5.193,0.984c-0.535-0.994-1.182-1.88-1.998-2.578
		c-1.126-0.964-2.524-1.423-3.973-1.505C350.769,461.768,351.182,459.998,351.163,458.292z M352.403,469.854
		c0.558,1.715,0.938,3.52,1.28,5.333c-2.633-0.953-5.694-1.452-8.22-0.858c0.809-2.053,0.871-4.502,0.326-6.938
		C348.533,466.905,351.263,466.351,352.403,469.854z M329.997,391.362c-0.212-2.96-0.3-5.923-0.179-8.879
		c0.298-7.238,3.311-12.712,6.173-18.889c-0.089,4.375,0.003,8.748,0.39,13.123c0.247,2.796,0.558,5.598,1.009,8.369
		c0.26,1.598,0.547,3.364,1.272,4.859C335.748,390.336,332.799,390.617,329.997,391.362z M342.643,389.28
		c-0.806,0.175-1.624,0.315-2.445,0.442c-0.559-1.798-1.182-3.549-1.486-5.467c-0.506-3.19-0.852-6.408-1.105-9.627
		c-0.357-4.539-0.514-9.099-0.441-13.653c0.032-0.074,0.064-0.145,0.096-0.219c1.901-4.452,3.341-9.363,4.181-14.406
		c3.213-0.387,6.397-1.379,9.465-2.775c-1.641,6.928-2.625,13.965-2.739,21.11c-0.068,4.252,0.138,8.506,0.617,12.731
		c0.356,3.142,0.594,6.681,1.59,9.772C347.837,388.021,345.25,388.713,342.643,389.28z M354.22,385.797
		c-0.765,0.311-1.541,0.594-2.319,0.873c-0.366-3.241-1.314-6.523-1.682-9.742c-0.465-4.063-0.673-8.155-0.631-12.244
		c0.075-7.286,0.9-14.573,2.541-21.673c2.065-1.025,4.068-2.233,5.977-3.573c0.784,7.712,2.39,15.186,5.198,22.481
		c1.481,3.848,3.216,7.602,5.236,11.198c0.353,0.629,0.857,1.524,1.47,2.352C365.46,379.869,360.162,383.379,354.22,385.797z
		 M374.176,370.946c-0.943,1.152-1.943,2.241-2.968,3.301c-1.367-1.62-2.287-3.607-3.298-5.637
		c-1.711-3.435-3.194-6.978-4.436-10.61c-2.12-6.2-3.672-12.717-4.407-19.252c2.152-1.585,4.178-3.326,6.021-5.153
		c1.431,6.194,3.61,12.169,6.576,17.812c2.032,3.866,4.904,8.28,9.102,9.813C378.783,364.59,376.679,367.887,374.176,370.946z
		 M387.655,349.288c-2.144,3.492-4.088,7.097-6.132,10.64c-4.58-2.447-7.288-6.698-9.654-11.471
		c-2.498-5.04-4.439-10.332-5.881-15.764c0.93-0.965,1.809-1.949,2.63-2.94c1.14-1.375,2.178-2.799,3.14-4.258
		c3.765,7.913,8.634,19.094,17.736,20.673C388.899,347.218,388.287,348.259,387.655,349.288z M390.212,344.861
		c-9.271-2.806-13.45-12.34-17.666-20.597c1.611-2.6,2.981-5.312,4.152-8.11c2.406,4.631,3.867,9.768,7.065,13.955
		c2.44,3.194,6.697,6.422,10.93,5.662C393.343,338.868,391.841,341.899,390.212,344.861z M398.328,326.281
		c-0.923,2.792-1.964,5.543-3.105,8.251c-5.607-0.596-9.272-3.225-12.134-8.163c-2.177-3.756-3.635-7.85-5.845-11.579
		c1.059-2.695,1.965-5.457,2.734-8.271c4.278,7.11,11.668,13.994,20.132,13.761C399.565,322.292,398.984,324.296,398.328,326.281z
		 M400.534,318.646c-4.55-0.54-8.616-1.67-12.454-4.621c-3.18-2.445-5.683-5.569-7.702-9c0.497-1.932,0.943-3.882,1.349-5.844
		c2.265,2.706,5.375,4.57,8.81,5.621c3.678,1.125,8.366,1.923,12.542,1.537C402.43,310.479,401.574,314.584,400.534,318.646z
		 M403.314,304.711c-7.733,0.111-16.569-0.696-21.26-7.155c0.175-0.892,0.345-1.785,0.507-2.681c0.438-2.42,0.815-4.84,1.156-7.261
		c2.522,2.613,5.706,4.465,9.235,5.563c3.244,1.009,8.082,2.046,11.569,0.656C404.242,297.474,403.839,301.102,403.314,304.711z
		 M404.631,292.269c-7.353,1.399-15.682-0.383-20.704-6.161c0.34-2.541,0.639-5.082,0.904-7.626c2.021,2.017,4.883,2.997,7.826,3.41
		c3.732,0.524,8.473,1.216,12.393,0.333C404.994,285.575,404.856,288.925,404.631,292.269z M405.08,277.054
		c0.007,1.187,0.003,2.374-0.008,3.562c-3.305,0.594-6.849,0.233-10.144-0.009c-3.666-0.269-7.6-0.988-9.92-3.891
		c0.293-2.972,0.552-5.946,0.791-8.925c2.945,1.955,6.354,2.856,9.922,3.133c2.742,0.213,6.374,0.228,9.437-0.639
		C405.096,272.59,405.067,274.865,405.08,277.054z M405.202,268.523c-0.482,0.126-0.965,0.25-1.455,0.351
		c-2.16,0.445-4.363,0.652-6.568,0.631c-3.96-0.038-8.009-0.813-11.266-3.136c0.266-3.404,0.516-6.813,0.777-10.231
		c5.633,3.288,13.14,6.854,19.151,3.081C405.513,262.346,405.315,265.466,405.202,268.523z M405.937,258.302
		c-0.08-0.03-0.171-0.044-0.275-0.017c-3.668,0.947-7.002,1.318-10.719,0.261c-2.869-0.816-5.572-2.172-8.155-3.663
		c0.051-0.66,0.1-1.319,0.153-1.98c0.185-2.326,0.436-4.611,0.757-6.858c1.78,2.201,4.255,3.682,7.169,4.441
		c2.486,0.648,5.068,0.792,7.627,0.797c1.43,0.003,3.035,0.095,4.516-0.164C406.556,253.495,406.21,255.898,405.937,258.302z
		 M407.356,249.401c-6.68,0.295-15.229,1.177-19.48-4.551c0.598-3.831,1.421-7.543,2.563-11.112
		c1.846,3.075,4.342,5.417,7.813,7.277c2.821,1.512,7.093,3.535,10.544,2.723C408.238,245.592,407.765,247.486,407.356,249.401z
		 M409.425,241.798c-1.676,0.489-3.247,0.687-5.127,0.237c-2.26-0.541-4.469-1.747-6.494-2.871
		c-3.191-1.772-5.071-4.151-6.865-6.912c1.171-3.357,2.629-6.589,4.462-9.674c1.773,3.881,4.301,7.647,7.499,10.3
		c2.26,1.875,5.615,3.5,8.739,3.347C410.796,238.022,410.07,239.889,409.425,241.798z M412.462,234.602
		c-1.397,0.107-2.743,0.105-4.199-0.318c-2.32-0.676-4.343-2.128-6.022-3.828c-2.542-2.576-4.35-5.759-6.236-8.844
		c1.09-1.743,2.288-3.445,3.635-5.092c4.298,5.63,9.757,11.324,16.96,11.551C415.008,230.098,413.653,232.298,412.462,234.602z
		 M417.653,226.796c-7.573,0.073-12.907-5.336-17.395-11.026c0.53-0.623,1.073-1.242,1.644-1.85
		c4.724,2.652,10.055,4.268,15.242,5.651c2.17,0.579,4.364,1.141,6.575,1.645C421.428,222.861,419.423,224.74,417.653,226.796z
		 M483.784,196.853c1.849,3.475,2.442,8.999,2.492,12.789c-3.051-0.563-6.045-1.389-9.001-2.378
		C479.967,204.46,481.98,200.286,483.784,196.853z M466.523,200.093c0.182-0.225,2.527-3.622,2.504-3.614
		c0.123-0.042,0.874,4.629,1.45,8.279c-2.001-0.793-3.994-1.614-5.985-2.429C465.193,201.656,465.841,200.935,466.523,200.093z
		 M455.369,193.189c0.526,1.679,1.006,3.369,1.526,5.059c0.122,0.398,0.234,0.815,0.349,1.231c-0.186-0.068-0.371-0.142-0.556-0.209
		c-1.557-0.566-3.134-1.043-4.722-1.476C453.204,196.322,454.32,194.785,455.369,193.189z M449.761,185.41
		c-0.442-1.501-1.079-2.907-1.962-4.183c0.867-0.079,1.739-0.152,2.604-0.234c0.599-0.057,1.196-0.126,1.791-0.204
		C451.243,182.102,450.558,183.898,449.761,185.41z M462.301,185.445c-1.304-2.128-2.932-4.393-4.668-5.59
		c2.362-0.488,4.709-1.052,7.056-1.605C463.714,180.543,463.015,183.006,462.301,185.445z M473.774,184.668
		c-1.354-2.546-2.781-5.041-4.358-7.48c2.216-0.464,4.441-0.86,6.688-1.109C475.388,178.958,474.614,181.822,473.774,184.668z
		 M485.138,184.1c-0.658-2.93-1.61-5.696-3.148-8.271c1.751,0.06,3.466,0.245,5.164,0.507
		C486.623,178.788,486.158,181.679,485.138,184.1z M495.931,187.43c-0.533-3.52-1.614-6.859-3.202-10.068
		c1.301,0.261,2.609,0.522,3.935,0.755c1.199,0.211,2.438,0.356,3.663,0.351C499.172,181.271,497.741,184.962,495.931,187.43z
		 M505.126,173.141c-0.803,0.491-1.71,0.867-2.626,1.108c-1.993,0.524-4.452-0.308-6.434-0.751
		c-3.262-0.729-6.441-1.627-9.774-2.023c-7.227-0.86-14.132,0.002-21.134,1.824c-15.61,4.062-31.624,3.426-47.549,5.268
		c-1.791,0.207-3.099,2.348-1.575,3.803c2.797,2.67,6.056,4.866,8.97,7.436c2.513,2.217,5.227,4.222,8.251,5.692
		c6.563,3.19,14.002,4.106,20.802,6.703c12.984,4.96,24.971,12.413,39.118,12.906c0.287,4.955-3.363,9.584-8.713,9.441
		c-5.205-0.139-10.846-2.795-15.777-4.313c-4.416-1.359-8.87-3.037-13.464-3.668c-5.392-0.741-10.31,0.96-15.656,1.252
		c-9.917,0.542-20.887-2.651-30.162-6.03c-10.208-3.72-19.111-11.869-16.299-23.648c0.248-1.04-1.103-1.573-1.688-0.711
		c-4.207,6.204-2.336,13.446,1.844,19.043c-0.312-0.203-0.619-0.417-0.91-0.658c-4.775-3.953-6.914-11.178-7.263-17.132
		c-0.042-0.716-1.147-0.727-1.123,0c0.209,6.309,0.96,13.419,5.116,18.513c1.835,2.25,5.315,4.773,8.752,5.78
		c-7.227,7.046-11.197,16.279-12.892,26.368c-2.258,13.444-2.599,27.195-4.466,40.712c-1.861,13.477-3.495,28.851-10.342,40.862
		c-3.119,5.471-7.424,10.219-12.541,13.89c-4.423,3.172-9.141,4.891-14.065,6.725c1.367-3.421,1.674-7.266,1.958-10.944
		c0.274-3.556,0.478-7.436-2.059-10.226c-0.519-0.57-1.567,0.024-1.314,0.765c1.297,3.797,0.79,7.604-0.018,11.416
		c-0.301-3.662-0.995-7.245-2.179-10.617c-0.162-0.462-0.941-0.428-0.907,0.123c0.456,7.221,0.931,14.628-0.294,21.804
		c-1.221,7.157-4.281,13.807-7.847,20.077c-3.06,5.381-5.562,10.333-6.129,16.593c-0.618,6.83,0.181,13.844,1.11,20.611
		c1.064,7.751,2.716,15.445,3.605,23.215c0.656,5.74-0.313,11.725,0.773,17.388c0.727,3.793,2.713,6.671,6.364,8.087
		c2.801,1.086,5.778,1.086,7.919,3.533c2.37,2.709,2.756,6.536,2.001,9.931c-0.057,0.257-0.039,0.488,0.01,0.704
		c-0.55,0.18-1.089,0.393-1.591,0.666c-1.847-4.442-5.64-8.251-10.423-8.618c-1.253-0.096-1.604,1.69-0.617,2.278
		c3.713,2.214,7.303,4.62,8.161,9.206c1.458,7.788-5.659,7.21-10.855,6.927c-6.509-0.354-26.309-0.593-27.359-9.267
		c-0.934-7.716,0.685-15.595-0.43-23.406c-1.301-9.111-6.645-16.783-5.532-26.165c1.012-8.529,2.3-16.677,1.569-25.314
		c-0.69-8.152-2.607-16.144-5.751-23.697c-3.423-8.223-8.439-16.201-6.589-25.475c1.692-8.481,7.43-15.637,12.475-22.403
		c0.903-1.21-1.103-2.754-2.097-1.618c-2.092,2.392-4.061,4.816-5.832,7.287c1.919-4.685,4.351-9.172,6.452-13.863
		c0.328-0.732-0.497-1.455-1.137-0.877c-4.05,3.663-6.728,7.712-8.939,12.707c-1.653,3.732-3.286,7.467-1.836,11.373
		c-1.426,3.229-2.393,6.568-2.757,10.051c-5.722,0.021-11.763,1.656-17.524,1.986c-5.217,0.299-10.379-0.549-15.531-0.737
		c2.349-2.039,3.857-5.03,5.027-7.926c1.764-4.365,3.986-10.272,2.905-15.004c-0.24-1.05-1.766-0.762-1.814,0.245
		c-0.231,4.878-2.226,9.212-4.564,13.389c0.954-4.649,1.335-9.366,0.911-14.061c-0.095-1.05-1.75-1.47-1.985-0.269
		c-3.548,18.164-8.512,34.648-20.698,49.07c-10.173,12.04-23.096,24.543-37.433,31.437c-5.656,2.72-13.071,3.052-17.143,8.355
		c-3.942,5.133-3.719,13.006-4.07,19.139c-0.337,5.898-1.778,13.909,3.176,18.425c2.723,2.482,6.436,2.502,9.619,4.008
		c3.097,1.465,4.933,4.097,6.65,6.866c-0.865,0.017-1.714,0.168-2.474,0.489c-3.604-5.603-12.054-9.84-17.454-6.653
		c-1.369,0.808-0.463,2.949,1.077,2.554c2.845-0.729,5.603,0.591,7.92,2.077c1.772,1.138,6.354,4.486,5.858,6.889
		c-0.247,1.195-3.802,2.627-4.791,2.899c-0.946,0.26-2.174,0.194-3.153,0.266c-2.454,0.181-4.913,0.305-7.373,0.377
		c-4.218,0.125-8.439,0.091-12.654-0.102c-2.447-0.112-4.935-0.197-7.366-0.497c-3.843-0.474-5.112-3.989-5.36-7.468
		c-0.613-8.598-0.63-17.219-0.449-25.832c0.167-7.969-0.762-17.362,2.896-24.682c3.016-6.034,8.206-10.683,12.408-15.863
		c4.167-5.139,7.14-10.781,8.442-17.306c2.762-13.841-1.019-27.783,0.222-41.689c0.832-9.331,4.149-17.799,12.024-23.327
		c7.443-5.224,16.727-8.279,25.214-11.326c2.039-0.732,1.165-4.006-0.902-3.272c-9.229,3.274-19.575,6.632-27.478,12.573
		c-5.631,4.233-9.179,10.129-11.125,16.731c-18.937-8.449-40.41-4.898-59.292,1.976c-19.271,7.016-39.913,15.917-55.506,29.485
		c-14.519,12.633-24.639,29.425-26.868,48.715c-2.192,18.968,4.157,37.428,18.181,50.47c7.571,7.04,16.556,12.345,26.068,16.313
		c10.323,4.306,22.844,9.097,34.286,9.481c3.746,1.028,7.452,1.954,11.038,2.818c12.92,3.112,26.021,5.436,38.91,8.678
		c9.281,2.335,21.102,4.79,29.583,10.634c-12.998-3.768-26.415-5.592-40.001-6.076c-8.74-0.311-17.572-0.236-26.209-1.793
		c-8.763-1.58-16.335-5.407-24.409-8.94c-14.405-6.304-30.229-7.616-44.445-14.67c-10.494-5.207-20.239-12.267-28.662-20.531
		c-10.422-13.075-10.752-32.379-9.946-48.424c0.572-11.382,2.531-23.019,7.313-33.443c4.607-10.041,11.8-18.376,20.144-25.51
		c17.336-14.82,37.516-27.829,58.971-35.624c22.578-8.203,45.595-18.242,69.278-22.679c6.593-1.235,13.153-2.322,19.414-4.83
		c5.579-2.235,10.645-5.42,15.969-8.164c11.974-6.172,24.2-7.434,37.336-6.715c1.141,1.849,2.232,3.731,3.34,5.593
		c0.883,7.734,3.158,16.471,8.672,21.777c5.018,4.829,13.227,8.365,19.869,4.975c0.627-0.32,0.508-1.414-0.203-1.551
		c-6.903-1.328-13.513-2.031-18.397-7.766c-2.363-2.775-3.711-6.16-4.839-9.67c2.483,3.245,5.378,6.139,9.161,8.302
		c9.468,5.414,21.914,6.304,31.326,0.413c1.75-1.095,0.642-4.272-1.471-3.489c-13.964,5.173-28.65,2.028-37.119-10.766
		c-1.456-2.2-2.771-4.462-4.09-6.716c0.386-0.298,0.615-0.801,0.457-1.471c-6.946-29.582-28.311-56.687-22.991-88.513
		c4.319-25.837,25.565-44.107,33.186-68.609c1.369-4.401,1.692-8.844-1.74-12.403c-4.647-4.82-12.864-7.169-18.731-10.037
		c-14.615-7.144-29.23-14.288-43.845-21.432c-26.274-12.843-51.785-25.697-81.277-28.885c-15.681-1.695-31.523-1.18-47.19,0.458
		c3.006-0.658,6.016-1.302,9.033-1.909c18.676-3.757,39.519-9.216,58.602-6.155c17.607,2.825,34.502,10.915,50.369,18.724
		c15.543,7.649,30.676,16.156,46.577,23.061c8.285,3.598,16.719,6.548,25.318,9.287c9.709,3.092,19.929,7.949,22.125,18.727
		c-5.219,17.217-13.586,32.412-22.219,48.221c-4.482,8.208-9.53,16.928-11.192,26.244c-1.559,8.736,0.99,17.129,4.159,25.201
		c7.19,18.313,15.419,37.421,25.377,54.812c15.185,26.519,51.81,50.302,80.376,27.541c12.227-9.742,17.68-24.731,14.25-39.95
		c-2.211-9.808-6.62-18.941-6.267-29.21c0.362-10.532,4.541-20.64,10.092-29.457c5.235-8.315,11.75-15.883,18.343-23.148
		c3.602-3.969,7.199-7.082,12.684-7.695c2.975-0.333,5.197-1.051,7.09-3.485c1.255-1.614,1.873-3.74,3.29-5.232
		c2.046-2.153,5.017-2.901,7.882-3.052c0.368-0.02,0.73-0.003,1.095-0.001c0.064,0.03,0.128,0.064,0.192,0.094
		c0.536,0.252,1.019,0.196,1.38-0.027c4.272,0.356,8.367,1.928,12.521,2.956c4.971,1.23,9.434,1.291,14.47,0.454
		c6.872-1.143,11.05,0.689,17.14,3.498c4.302,1.984,8.492,3.162,13.241,3.411c5.496,0.288,11.492-0.686,16.781,1.233
		C503.013,154.181,507.485,164.593,505.126,173.141z M182.851,445.946c-2.881-0.985-5.503-1.923-6.434-5.494
		c-1.024-3.931-0.121-8.998-0.065-12.999c0.059-4.14-0.478-8.629,1.139-12.531c1.687-4.072,5.061-5.345,8.819-6.403
		C184.378,420.664,180.615,433.659,182.851,445.946z"/>
</g>
<g>
</g>
<g>
</g>
<g>
</g>
<g>
</g>
<g>
</g>
<g>
</g>
<g>
</g>
<g>
</g>
<g>
</g>
<g>
</g>
<g>
</g>
<g>
</g>
<g>
</g>
<g>
</g>
<g>
</g>
</svg>
