<svg xmlns="http://www.w3.org/2000/svg" viewBox="0 0 512 512" width="512" height="512">
	<style>
		tspan { white-space:pre }
		.shp0 { fill: #ffffff } 
		.shp1 { fill: #213ae6 } 
		.shp2 { fill: #ffb55f } 
		.shp3 { fill: #6d7ad0 } 
		.shp4 { fill: #231f20 } 
	</style>
	<g id="Layer">
		<path id="Layer" class="shp0" d="M435.8 161.97L433.95 161.16L433.6 162.19C433.27 163.17 432.92 163.37 432.57 163.44C432.51 163.45 432.45 163.46 432.4 163.46C432.31 163.46 432.12 163.46 431.85 163.11C431.67 162.88 431.64 162.64 431.73 162.06C431.75 161.87 431.79 161.67 431.85 161.49L432.18 160.49L431.17 160.21C429.9 159.86 428.71 159.68 427.52 159.68C427.12 159.68 426.71 159.7 426.3 159.75L425.3 159.85L425.41 160.85C425.45 161.26 425.5 161.72 425.66 162.18C426.11 163.44 426.82 164.56 427.73 165.42C429.08 166.73 430.83 167.44 432.66 167.44C433.64 167.44 434.62 167.24 435.56 166.85C436.94 166.28 437.77 165.39 438.5 164.53L439.4 163.47L438.11 162.95C437.34 162.64 436.57 162.3 435.8 161.97Z" />
		<path id="Layer" class="shp0" d="M497.54 182.62C496.05 182.3 494.5 182.13 492.95 182.13C491.94 182.13 490.89 182.2 489.84 182.34L488.52 182.51L489.06 183.73C490.53 187.09 491.53 190.84 492.23 195.51L492.6 197.97L494.04 195.94C496.36 192.66 498.4 189.11 500.47 184.77L500.92 183.81L499.94 183.41C498.96 183.02 498.22 182.78 497.54 182.62Z" />
		<path id="Layer" class="shp0" d="M490.52 214.14L489.18 215.15L490.71 215.85C493.05 216.92 494.99 217.68 496.8 218.23L497.99 218.59L498.09 217.35C498.09 217.29 498.11 217.22 498.11 217.18C499.22 213.23 500.23 209.35 500.55 205.28L500.84 201.6L498.73 204.63C496.08 208.44 493.63 211.79 490.52 214.14Z" />
		<path id="Layer" class="shp0" d="M487.83 206.13L487.68 205.45C487.5 204.63 487.33 203.85 486.45 203.85C485.76 203.85 485.49 204.4 485.27 204.84C485.13 205.12 484.95 205.49 484.66 205.96C483.56 207.69 482.58 208.93 481.48 209.96L480.39 211L481.77 211.6C483.54 212.39 485.33 213.26 487.05 214.11L488.91 215.01L488.72 212.83C488.53 210.63 488.34 208.35 487.83 206.13Z" />
		<path id="Layer" class="shp0" d="M481.37 196.59C481.58 195.95 481.86 195.27 482.16 194.54C482.83 192.9 483.59 191.03 483.64 189.25C484.11 187.83 484.58 186.42 485.07 185L485.7 183.14L483.82 183.72C482.85 184.02 481.86 184.37 480.79 184.78C479.26 185.36 477.61 185.96 475.94 186.48L474.92 186.8L475.31 187.8C475.93 189.39 476.56 190.98 477.21 192.54C477.74 193.81 478.42 194.92 479.08 196L479.56 196.79L480.69 198.67L481.37 196.59Z" />
		<path id="Layer" class="shp0" d="M476.23 205.51C476.11 205.18 476 204.83 475.89 204.49C475.51 203.32 475.12 202.11 474.33 201.11L473.25 199.75L472.61 201.36C472.15 202.52 471.73 203.45 471.28 204.3C470.82 205.18 470.25 205.93 469.56 206.82L468.51 208.15L470.17 208.43C472.54 208.83 474.47 209.24 476.24 209.72L478.25 210.26L477.28 208.03C476.91 207.2 476.54 206.35 476.23 205.51Z" />
		<path id="Layer" class="shp0" d="M471.82 187.6L470.09 187.83C468.91 187.99 467.81 188.06 466.75 188.06C466.06 188.05 465.36 188.03 464.67 188L462.95 187.93L463.74 189.46C464.6 191.12 465.55 192.9 466.73 195.07L467.67 196.77L468.51 195.03C469.45 193.09 470.33 191.13 471.14 189.21L471.82 187.6Z" />
		<path id="Layer" class="shp0" d="M456.12 187.59C455.29 187.59 454.52 187.62 453.77 187.66L452.34 187.75L452.91 189.06C453.79 191.06 454.44 193 454.9 194.97L455.33 196.83L456.61 195.41C458.32 193.51 459.78 191.49 461.05 189.23L461.84 187.84L460.24 187.74C458.58 187.64 457.31 187.59 456.12 187.59Z" />
	</g>
	<g id="Layer">
		<path id="Layer" fill-rule="evenodd" class="shp1" d="M508.43 170.57C508.9 173.06 508.8 175.53 508.11 177.9C507.51 179.93 506.81 181.74 504.81 181.74C504 181.74 503.1 181.44 501.99 180.99C499.12 179.82 496.02 179.23 492.8 179.23C489.31 179.23 485.62 179.92 481.84 181.27C481.04 181.56 480.25 181.85 479.47 182.15C475.76 183.54 471.92 184.97 467.65 185.08C467.37 185.09 467.09 185.1 466.81 185.1C464.94 185.1 463.07 184.93 461.27 184.76C459.51 184.6 457.68 184.44 455.91 184.44C455.35 184.44 454.79 184.45 454.22 184.49C451 184.71 447.7 185.44 444.51 186.14C440.58 187 436.53 187.9 432.48 187.9C429.9 187.9 427.57 187.54 425.34 186.81C425.17 186.76 425.01 186.73 424.87 186.73C424.11 186.73 423.61 187.51 423.53 188.25C423.5 188.62 423.51 189.51 424.52 189.72L424.58 189.74L424.64 189.76C425.47 190.06 426.35 190.3 427.34 190.52L427.4 190.53L427.45 190.55C432.42 192.25 436.3 195.23 440.4 198.37C441.58 199.28 442.78 200.2 444.01 201.09C450.15 205.54 455.53 208.06 461.47 209.26C462.56 209.49 463.65 209.7 464.72 209.9C471.5 211.23 477.91 212.47 484.48 215.74C488.94 217.95 493.1 220.02 497.63 221.24L499.37 221.71L498.05 222.94C495.37 225.44 492.09 228.19 488.07 229.66C486.4 230.28 484.81 230.57 483.22 230.57C479.88 230.57 477.04 229.24 474.03 227.82C473.16 227.41 472.25 226.98 471.3 226.57C467.99 225.15 464.27 224.62 460.68 224.11C459.91 224 459.15 223.89 458.39 223.77C448.77 222.3 438.71 220.84 425.77 219.04C425.17 218.95 424.56 218.87 423.96 218.79C419.58 218.21 415.05 217.61 410.97 215.63C402.66 211.59 399.79 202.71 397.25 194.87C397 194.07 396.74 193.27 396.48 192.49C396.47 192.45 396.44 192.38 396.32 192.38L395.22 192.47L396.22 192.46C396.25 196.96 397.03 201.38 398.48 205.22L396.82 206.27C396.07 205.5 395.49 204.73 395.04 203.92C393.39 200.97 392.5 197.5 391.66 194.13C391.98 198.24 392.55 202.34 394.55 205.82C395.24 207.03 396.71 209.28 398.74 210.76L399.54 211.34L398.96 212.15C392.34 221.34 388.41 232.62 387.28 245.67C386.96 249.27 386.84 253.05 386.72 256.71C386.33 268.61 385.93 280.91 379.26 291.24C377.35 294.2 375.03 296.88 372.8 299.48C370.49 302.16 368.1 304.93 366.21 307.95C363.4 312.46 361.34 317.51 359.36 322.39C358.74 323.91 358.12 325.43 357.48 326.94C355.08 332.54 352.09 339.08 348.06 345.14C345.98 348.27 343.83 350.93 341.51 353.25C340.54 354.22 339.51 355.05 338.71 355.67L336.52 357.36L337.12 354.66C337.89 351.19 337.66 347.51 336.57 344.19C336.95 347.19 336.41 350.26 335.87 353.28L333.9 353.43C333.86 353.26 333.81 353.09 333.77 352.91C335.42 363.48 335.4 374.35 333.67 384.76C332.95 389.16 331.86 393.54 330.81 397.79C329.05 404.87 327.24 412.2 327.11 419.63C327.01 424.91 327.94 430.09 329.94 435.48C331.46 439.6 332.02 443.46 332.62 447.54C332.8 448.74 332.98 449.97 333.18 451.22C333.83 455.09 335.46 457.85 338.33 459.89C339.13 460.46 340.03 460.94 340.98 461.44C342.36 462.16 343.79 462.91 344.97 464.01C347.55 466.42 347.88 469.86 345.88 473.44L345.29 474.5L344.36 473.72C342.31 472 339.45 471.13 335.86 471.13C334.97 471.13 334.02 471.18 333.03 471.29C337.64 471.82 342.56 473.79 344.56 478.03C345.31 479.63 345.34 481 344.64 482.1C343.25 484.29 339.45 484.59 335.93 484.59C335.16 484.59 334.42 484.57 333.74 484.56C333.2 484.55 332.7 484.54 332.27 484.54C332.07 484.54 331.88 484.54 331.71 484.55L331.16 484.57C327.36 484.71 323.57 484.85 319.77 485.01C319.06 485.03 318.18 485.12 317.25 485.21C315.79 485.35 314.14 485.51 312.51 485.51C312.51 485.51 312.5 485.51 312.49 485.51C310.5 485.51 304.52 485.49 303.92 479.72C303.71 477.61 304.01 475.39 304.3 473.25C304.55 471.44 304.8 469.57 304.73 467.85C304.55 464.08 303.98 460.29 303.46 457.04C303.27 455.88 303.08 454.71 302.88 453.55C301.52 445.43 300.11 437.03 301.91 428.66C302.4 426.35 303.03 424.08 303.65 421.88C305.19 416.33 306.64 411.09 306.09 405.35C305.41 398.3 302.39 391.52 299.73 385.54C298.96 383.81 298.14 382.05 297.32 380.29C294.49 374.25 291.57 368 290.01 361.54C287.99 353.19 290.7 345.27 293.83 337.61C292.53 339.94 291.25 342.45 290.21 345.04L288.29 344.6C288.29 344.55 288.29 344.5 288.29 344.44C288.29 344.35 288.29 344.25 288.3 344.15C288.65 340.17 289.95 336.58 291.21 333.11C291.35 332.72 291.49 332.32 291.63 331.92C289.58 334.7 288.24 338.32 287.64 342.72C287.21 345.81 286.84 349.74 287.82 352.73L288.42 354.58L286.56 353.99C285.8 353.75 284.98 353.64 283.91 353.64C283.36 353.64 282.82 353.67 282.26 353.69C281.76 353.72 281.24 353.74 280.72 353.75C280.41 353.75 280.1 353.75 279.79 353.75C276.18 353.75 273.2 353.49 270.38 352.91C264.78 351.76 259.4 349.43 254.4 345.98L254.03 345.73L253.97 345.29C253.96 345.17 253.89 345.07 253.84 345.04L253.02 344.5L253.53 343.67C256.93 338.17 258.85 330.92 258.54 325.07C258.19 326.34 257.9 327.63 257.6 328.9C257.15 330.87 256.68 332.91 256.04 334.9C255.91 335.27 255.78 335.64 255.65 336.01L253.71 335.59C253.89 333.4 254.01 331.21 254.07 329.04C251.68 345.38 247.84 362.27 238.2 377.17C233.44 384.51 227.51 390.93 221.03 395.74C216.28 399.27 210.95 401.85 205.8 404.35C204.44 405.01 203.08 405.67 201.73 406.34C187.92 413.25 181.03 422.33 179.4 435.77C178.74 441.16 177.53 451.2 182.07 455.44C183.17 456.47 185.58 457.23 187.91 457.96C191.66 459.14 195.54 460.36 196.47 463.23C197.01 464.9 196.47 466.77 194.82 468.98C194.74 469.08 194.69 469.16 194.65 469.3L194.48 469.75L193.87 469.95C193.74 469.99 193.62 470.03 193.5 470.08L192.9 470.35L192.41 469.91C189.55 467.28 184.76 466.35 181.53 466.35C181.36 466.35 181.18 466.35 181.01 466.36C180.59 466.37 180.38 466.55 180.36 466.9C180.35 467.17 180.49 467.65 181.1 467.73C183.78 468.06 189.36 468.75 190.92 472.31C191.75 474.18 191.78 475.74 191 476.96C189.47 479.34 185.37 479.4 182.92 479.43C182.61 479.44 182.32 479.44 182.09 479.45C178.2 479.61 174.32 479.74 170.43 479.87L165.72 480.03C165.12 480.05 164.47 480.12 163.81 480.19C162.9 480.28 161.97 480.38 161.06 480.38C160.42 480.38 159.86 480.33 159.36 480.23C154.09 479.21 153.52 475.77 153.38 472.34C153.22 468.24 153.08 464.13 152.94 460.02L152.8 455.69C152.7 452.94 152.6 450.18 152.5 447.42C152.24 439.91 151.96 432.14 151.76 424.49C151.73 423.46 151.67 422.38 151.6 421.28C151.39 417.6 151.16 413.8 152.18 410.36C153.25 406.71 155.89 404.08 158.44 401.53C159.38 400.59 160.26 399.71 161.07 398.77C171.46 386.86 175.4 371.78 173.47 351.3C173.32 349.71 173.14 348.12 172.96 346.52C172.54 342.89 172.12 339.14 172.09 335.43C172.04 330.25 173.72 326.41 177.71 322.59C182.63 317.86 188.56 314.48 194.31 311.21C196.85 309.77 199.46 308.27 201.96 306.69C196.31 308.57 191.24 310.75 186.9 313.17L185.75 311.55C190.25 307.61 195.13 304.02 199.92 300.57C190.02 303.74 183.75 311.38 180.18 317.47L180.09 317.63L179.94 317.75C176.54 320.41 173.96 323.29 172.25 326.31L171.83 327.05L171.04 326.76C166.5 325.14 161.45 324.31 156.04 324.31C142.19 324.31 127.9 329.5 114.46 334.81C96.15 342.04 81.09 350.42 68.42 360.42C57.71 368.87 43.51 383.02 36.65 402.47C30.98 418.56 32.94 438.76 42.03 457.89C46.63 467.57 53.11 475.76 60.75 481.57C65.25 484.99 74.14 490.73 83.09 490.73L83.52 490.73L83.72 490.82C87.82 492.7 92.17 494.26 96.64 495.45C108.2 498.55 120.37 499.77 132.13 500.95L135.69 501.31C139.8 501.73 143.92 502.16 148.03 502.59L147.94 504.58L143.33 504.65C137.9 504.73 132.47 504.81 127.05 504.85C125.9 504.86 124.76 504.86 123.62 504.86C116.06 504.86 107.17 504.64 98.54 502.95C91.28 501.54 83.79 499.21 74.26 495.41C60.44 489.88 44.74 483.03 33.22 471.59C22.15 460.59 15.29 443.11 14.39 423.63C13.63 407.21 21.27 392.96 28.67 379.17C29.3 378 29.92 376.83 30.55 375.66C37.15 363.2 44.65 350.07 54.67 338.48C65.56 325.89 78.45 316.99 92.98 312.03C102.8 308.67 113.11 306.65 123.07 304.7C128.7 303.6 134.52 302.45 140.18 301.09C153 297.99 165.59 291.94 177.77 286.1C195.54 277.57 213.92 268.75 233.59 268.75C237.97 268.75 242.35 269.19 246.6 270.06L246.97 270.13L247.2 270.44C248.8 272.55 250.38 274.76 251.87 277L252.04 277.26L252.04 277.46L252.05 277.53C252.08 277.75 252.18 277.82 252.27 277.87L252.53 277.99L253.06 278.81C253.4 279.33 253.74 279.85 254.07 280.38L255.02 281.9C257.38 285.65 259.82 289.54 262.98 292.5L263.19 292.7L263.26 292.98C264.45 297.53 269.12 301.3 270.53 302.35C274.18 305.07 277.95 306.46 281.73 306.46C283.31 306.46 284.9 306.21 286.47 305.72C282.91 305.38 276.82 304.31 271.9 300.93C270.94 300.27 270.02 299.47 269.11 298.48L266.53 295.66L270.16 296.85C272.2 297.52 274.4 297.87 276.55 297.87C281.23 297.87 285.28 296.26 287.95 293.34C288.11 293.17 288.1 292.91 288.02 292.72C287.98 292.64 287.88 292.46 287.72 292.46C287.67 292.46 287.62 292.47 287.57 292.49C283.38 293.94 279.81 294.65 276.66 294.65C271.19 294.65 266.74 292.57 263.05 288.3C260.01 284.8 257.49 280.77 255.06 276.88C254.58 276.12 253.48 274.37 253.48 274.37L253.46 274.11C252.84 261.81 249.1 249.38 241.69 235.01C240.96 233.59 240.22 232.18 239.47 230.76C233.34 219.07 226.99 206.99 227.43 193.14C227.88 179.12 233.74 165.6 239.4 152.51C240.52 149.93 241.63 147.37 242.68 144.85C246.3 136.13 249.23 129.53 252.2 123.42C252.72 122.35 253.35 121.25 253.96 120.18C256.43 115.85 258.76 111.75 256.17 107.64C253.54 103.51 249.6 99.78 245.79 96.17C245.08 95.49 244.37 94.82 243.69 94.16C238.93 89.56 233.69 85.06 228.11 80.77C217.75 72.81 206.28 65.73 194.03 59.73C170.22 48.06 143.09 40.28 113.41 36.62C99.23 34.87 84.56 33.98 69.82 33.98C56.73 33.98 43.45 34.68 30.33 36.06L29.99 34.1C56.41 27.8 79.83 24.74 101.59 24.74C107.88 24.74 114.15 25 120.2 25.51C161.59 29.04 199.09 49.58 232.18 67.7C242.7 73.47 251.76 78.93 259.88 84.39C265.36 88.08 270.23 91.61 274.78 95.17L275.76 95.94C277.23 97.09 278.75 98.27 280.14 99.57C281.9 101.23 284.14 104.1 284.63 106.74L284.73 107.22L284.4 107.59C281.33 111.01 278.67 114.91 276.1 118.68C275.31 119.83 274.53 120.98 273.73 122.12L273.03 123.13C269.47 128.22 265.79 133.49 262.62 138.93C255.67 150.87 252.59 161.88 253.19 172.61C253.93 186 259.42 199.09 264.26 210.64C269.53 223.22 275.26 235.06 281.28 245.83C295.49 271.29 311.46 283.99 330.11 284.65C330.55 284.67 330.99 284.67 331.42 284.67C357.95 284.67 365.03 256.24 366.57 247.53C368.91 234.26 369.27 220.45 369.43 207.44C369.51 200.78 369.61 193.23 370.75 185.89C371.13 183.45 371.71 181.01 372.53 178.44L372.54 178.38L372.88 177.62C379.19 163.47 386.33 147.43 402.17 142.58C404.3 141.94 406.5 141.56 408.63 141.19C410.15 140.93 411.73 140.66 413.23 140.3C415.1 139.85 416.98 139.26 418.79 138.68C421.12 137.95 423.52 137.19 425.97 136.7C427.67 136.36 429.42 136.18 431.18 136.18C439.31 136.18 446.97 139.84 454.04 143.8C456.13 144.97 458.23 146.21 460.25 147.41L460.9 147.79L461.01 147.92C461.23 148.18 461.44 148.46 461.63 148.75L461.3 148.03L464.04 149.6C466.66 151.1 468.84 152.25 470.91 153.22L471.18 153.35L471.33 153.59C472.33 155.16 472.82 156.79 472.81 158.44C472.8 160.3 472.06 161.8 471.35 163.26C470.84 164.3 470.36 165.29 470.17 166.34C472.42 164.5 473.78 160.74 473.29 157.6C473.21 157.08 473.06 156.55 472.83 155.93L472 153.77L474.14 154.64C475.26 155.1 476.46 155.53 477.8 155.96L478.09 156.05L478.28 156.28C480.11 158.56 480.73 160.94 480.23 163.78C480.06 164.78 479.75 165.71 479.46 166.61C479.12 167.64 478.8 168.62 478.69 169.64C480.4 167.71 481.33 164.54 481.07 161.5C480.98 160.36 480.68 159.34 480.15 158.37L479.11 156.45L481.24 156.91C482.18 157.12 483.02 157.27 483.82 157.39C485.57 157.65 487.4 157.73 489.17 157.81C492.2 157.94 495.33 158.07 498.32 159.09C503.62 160.9 507.4 165.19 508.43 170.57ZM428.37 173.09C428.36 173.08 428.34 173.07 428.33 173.06C426.82 172.02 425.27 170.93 424.1 169.49C422.83 167.91 422.12 165.77 422.1 163.57C421.79 165.19 422.03 166.77 422.82 168.37C423.93 170.63 425.89 172.29 428.37 173.09ZM449.24 155.81C449.79 158.29 449.75 161.21 446.31 162.34C445.64 162.56 444.81 162.67 443.85 162.67C441.62 162.67 439.27 162.1 438.03 161.56C436.98 161.11 436.08 160.6 435.2 160.1C433.65 159.23 432.3 158.47 430.42 158.16C429.83 158.06 429.26 158.01 428.69 158.01C427.04 158.01 425.64 158.41 424.01 158.86C423 159.15 421.96 159.44 420.78 159.66C420.58 159.69 420.07 159.96 419.67 160.18C418.71 160.69 417.63 161.27 416.56 161.27C415.88 161.27 415.27 161.03 414.82 160.56C414.07 159.8 413.74 158.5 413.78 156.47C413.87 152.45 419.99 148.82 420.05 148.78C420.13 148.72 420.11 148.67 420.06 148.61C420.04 148.59 420 148.55 419.95 148.55C419.92 148.55 419.89 148.56 419.84 148.58C416.24 150.32 410.13 155.78 412.33 160.57C413.03 162.1 414.06 162.78 415.68 162.78C417.32 162.78 419.29 162.07 421.02 161.4L422.41 160.86L422.42 160.83L423.06 160.61L424.19 160.25L424.36 161.41C424.92 165.14 427.98 168.23 431.64 168.77C431.94 168.82 432.27 168.84 432.62 168.84C434.84 168.84 438.01 167.85 439.76 165.94L441.56 163.98L441.49 166.65C441.44 168.81 440.77 170.88 439.42 173.08C441.91 171.71 442.91 168.23 442.2 165.51L441.85 164.2L443.21 164.26C443.36 164.27 443.51 164.27 443.66 164.27C444.87 164.27 446.01 164.06 447.17 163.63C448.67 163.06 449.62 162.08 449.98 160.71C450.36 159.28 450.06 157.48 449.24 155.81ZM462.64 150.91C463.14 152.49 463.23 154.29 462.88 156.13C462.66 157.34 462.23 158.44 461.81 159.51C461.42 160.53 461.04 161.5 460.85 162.5C463.58 159.46 464.36 154.6 462.64 150.91ZM493.86 169.19C493.69 168.52 493.14 167.98 492.46 167.81L492.24 167.76L492.07 167.61C491.83 167.42 491.53 167.31 491.22 167.31L491.2 167.31C490.46 167.31 489.83 167.78 489.58 168.51C489.42 168.99 489.46 169.48 489.7 169.94C490.02 170.55 490.66 171.05 491.37 171.25C491.55 171.3 491.73 171.32 491.91 171.32C492.57 171.32 493.21 171.02 493.59 170.53C493.8 170.26 494.02 169.8 493.86 169.19ZM498.65 165.9C498.34 165.43 497.91 165.07 497.63 164.85C496.85 164.28 495.99 163.98 494.84 163.88C496.32 164.18 497.73 164.74 498.65 165.9Z" />
		<path id="Layer" class="shp1" d="M381.92 460.17C381.51 459.82 381.08 459.47 380.66 459.09C378.93 457.56 378.09 455.85 377.74 453.21C377.48 451.3 377.36 449.35 377.23 447.46C377.06 444.82 376.88 442.1 376.35 439.37L376.19 438.51C375.54 435.17 374.87 431.71 374.67 428.27C374.21 420.16 376.1 412.31 378.08 404.96C379.4 400.05 380.89 394.48 379.43 388.85C378.59 385.63 377 382.43 374.58 379.06L374 378.25L373.19 378.82C369.09 381.72 364.52 384.46 359.62 386.97C355.87 388.88 351.86 390.73 347.35 392.64C346.19 393.12 344.94 393.57 343.52 394.02L342.45 394.35L342.91 395.38C344.43 398.76 344.73 402.96 344.99 406.67L345.02 407.16C345.44 412.99 345.32 418.77 345.15 424.68C344.97 430.97 345.41 437.31 345.84 443.45C346.25 449.39 346.67 455.52 346.52 461.55L346.39 462.09L346.82 462.49C348.04 463.62 348.83 464.79 349.31 466.19L349.63 467.13L350.57 466.82C351.62 466.46 352.68 466.28 353.72 466.28C360.25 466.28 365.58 473.38 367.97 480.41C368.04 480.61 368.04 480.81 367.98 480.98L367.53 482.33L368.96 482.3C369.92 482.27 370.89 482.26 371.85 482.25L373.77 482.22C374.07 482.22 374.38 482.21 374.7 482.21C376.62 482.21 378.79 482.21 380.64 481.31C382.54 480.38 383.76 478.83 384.09 476.94C384.44 474.92 383.69 472.74 382.09 471.1C380.59 469.57 378.65 469.12 376.93 468.72C375.33 468.34 373.82 467.99 372.81 466.85C371.71 465.6 371.87 463.83 372.17 462.05C372.59 465.14 376.02 466.55 379.08 467.81C380.67 468.46 382.31 469.14 383.41 469.98L384.31 470.67L384.88 469.7C387.65 465 384.74 462.55 381.92 460.17Z" />
		<path id="Layer" class="shp1" d="M312.49 101.75C313.09 100.54 313.78 99.35 314.51 98.09C315.64 96.16 316.81 94.16 317.6 92.09C319.69 86.65 316.96 83.3 314.08 79.74L313.4 78.91C305.13 68.59 294.21 59.42 280.94 51.67C256.74 37.53 229.06 30.49 202.3 23.69L196.75 22.27C193.89 21.54 191.03 20.8 188.16 20.06C164.24 13.85 139.5 7.44 114.55 7.06L114.25 9.02C139.52 16.34 165.65 23.92 191.15 33.76C214.65 42.83 241.68 54.4 264.03 71.46L264.79 72.03L265.4 71.31C266.02 70.58 266.61 69.88 267.12 69.27C267.26 69.09 267.59 68.98 267.93 68.98C268.27 68.98 268.57 69.09 268.71 69.26C272.36 73.75 274.26 78.81 274.36 84.29L274.4 86.56L276.05 85C278.29 82.87 280.28 80.53 281.94 78.06C282.3 77.52 282.64 76.83 283 76.11C283.68 74.75 284.52 73.07 285.49 72.57C285.93 72.35 286.32 72.24 286.67 72.24C289 72.24 289.91 77.83 290.25 79.93L290.36 80.54C292.07 90.39 291.54 104.52 284.43 111.94L284.35 112.02L284.29 112.13C281.46 116.99 278.07 121.69 274.8 126.24C271.17 131.3 267.41 136.54 264.34 142.06C256.63 155.93 254.57 169.61 258.04 183.89C261.06 196.3 266.28 208.14 271.81 220.19C277.39 232.35 282.35 241.91 287.42 250.28C291.04 256.24 298.73 267.34 309.71 274.78L311.07 273.35C299.06 257.49 292.33 233.25 291.07 201.3C289.99 174.06 294.54 146.16 304.23 120.6C306.7 114.12 309.48 107.78 312.49 101.75Z" />
		<path id="Layer" class="shp1" d="M221.65 451.3C221.37 451.13 221.07 450.95 220.74 450.74C220.46 450.55 220.17 450.37 219.89 450.19C219.26 449.79 218.66 449.41 218.12 448.96C215.22 446.57 213.09 443.01 212.13 438.95C210.25 430.99 212.63 421.94 219.22 412.04L219.98 410.91L218.67 410.53C214.89 409.44 211.94 408.06 209.65 406.29L209.16 405.91L207.08 406.91C201.96 409.37 196.66 411.92 192.15 415.59C191.3 416.28 190.5 417.04 189.69 417.9L189.24 418.38L189.51 418.98C191.62 423.81 191.47 430.73 191.36 435.78L191.33 437.21C191.22 442.69 191.09 449.52 188.83 454.45L188.32 455.57L190.06 455.97C192.09 456.43 194 456.86 195.6 458.04C196.87 458.97 197.82 460.25 198.36 461.74L198.66 462.58L199.54 462.37C200.2 462.21 200.91 462.13 201.66 462.13C204.23 462.13 206.82 463.08 208.42 464.62C210.19 466.33 211.69 469.01 212.52 471.98L212.74 472.76L213.55 472.71C213.94 472.68 214.34 472.67 214.74 472.67C215.53 472.67 216.32 472.71 217.11 472.75C217.93 472.79 218.75 472.83 219.57 472.83C219.91 472.83 220.24 472.82 220.58 472.81L221.16 472.78L221.43 472.26C222.38 470.35 222.47 468.27 221.7 466.24C220.6 463.37 217.74 460.66 214.4 459.34C213.77 459.09 213.12 458.86 212.46 458.63C210.62 457.98 208.88 457.37 207.48 456.18C205.01 454.07 204.8 451.52 205.16 448.62C205.59 451.24 206.74 453.85 209.32 455.47C210.7 456.35 212.27 456.81 213.8 457.25C214.79 457.54 215.72 457.81 216.57 458.18C218.25 458.9 219.73 459.92 220.96 461.22L222.17 462.5L222.65 460.8C222.78 460.31 222.99 459.84 223.2 459.34C223.64 458.31 224.14 457.14 224.11 455.59C224.06 452.86 223.23 452.24 221.65 451.3Z" />
	</g>
	<g id="Layer">
		<path id="Layer" class="shp2" d="M419.29 221.28C415.02 220.57 410.13 219.41 406.21 216.3C404.84 215.2 403.57 213.9 402.44 212.44L402.18 212.1L401.76 212.06C401.62 212.04 401.49 212.02 401.36 211.99L400.65 211.82L400.28 212.44C399.92 213.03 399.57 213.61 399.23 214.19L399.23 214.18L399.02 214.55L398.66 215.16L398.67 215.17L398.53 215.4C396.12 219.64 394.28 223.7 392.88 227.78L392.85 227.75L392.24 229.72C392 230.52 391.78 231.32 391.56 232.14C391.19 233.59 390.86 235.16 390.55 236.9L390.51 236.83L390.13 239.73C389.79 242.27 389.56 244.98 389.39 248.34L389.37 248.31L389.26 251.26C389.2 252.89 389.16 254.51 389.12 256.14C389.06 258.35 388.99 260.54 388.89 262.74L388.87 263.15L388.88 263.16L388.8 264.43C388.53 268.93 388.09 272.81 387.43 276.29L387.34 276.78L387.22 277.34C386.5 280.83 385.54 283.96 384.3 286.91L384.19 287.16L384.18 287.16L383.84 287.91C382.8 290.22 381.52 292.46 380.03 294.56L379.18 295.78L379.16 295.78L378.81 296.22C377.62 297.76 376.37 299.27 375.16 300.73C374.07 302.05 372.98 303.37 371.92 304.71L370.53 306.48L370.6 306.48C368.61 309.13 367.1 311.5 365.92 313.85L365.38 314.91L365.4 314.91C363.93 317.94 362.63 321.05 361.44 323.97L361.41 324.02L361.41 324.02L360.71 325.73C359.59 328.46 358.42 331.28 357.15 334C357.15 334 357.02 334.25 356.99 334.32L356.88 334.57L356.54 335.27C354.62 339.25 352.7 342.72 350.66 345.86L350.11 346.71L350.11 346.71L350.01 346.85C349.16 348.1 348.26 349.34 347.33 350.54C346.31 351.82 344.95 353.5 343.39 355.17L342.94 355.65L342.43 356.15C340.23 358.34 338.18 359.87 336.16 360.8L335.48 361.12L335.59 361.86C336.31 366.62 336.62 371.43 336.5 376.15L336.49 376.39L336.59 376.6C336.89 377.24 337.16 377.84 337.41 378.43L336.4 378.57C336.3 380.51 336.14 382.31 335.91 384.09C335.42 388.02 334.58 391.93 333.74 395.56L333.26 397.61L335.15 396.69C336.75 395.9 338.33 395.03 339.86 394.19L341.03 393.55L341.03 393.54L342.07 392.98C343.49 392.22 345 391.42 346.56 390.73C348.4 389.91 350.23 389.08 352.05 388.22L352.07 388.21L352.06 388.22L353.88 387.35C356.17 386.24 358.19 385.21 360.05 384.19C362.25 382.99 364.26 381.82 366.19 380.62L366.19 380.65L368.06 379.42C373.03 376.16 377.27 372.68 381.41 368.46L381.49 368.38L381.5 368.41L382.92 366.88C385.56 364.05 388 361.01 390.18 357.84L390.19 357.87L391.47 355.9C394.67 350.96 397.43 345.56 399.67 339.85L399.67 339.86L400.47 337.69C402.28 332.74 403.76 327.5 405.02 321.71L405.03 321.73L405.51 319.34C405.76 318.08 406 316.81 406.22 315.54C406.62 313.18 406.98 310.83 407.31 308.62L407.31 308.62L407.35 308.35C407.36 308.32 407.36 308.28 407.37 308.24L407.45 307.73L407.44 307.72L407.6 306.65C407.94 304.31 408.25 301.95 408.57 299.6L408.87 297.35L408.86 297.34L409.17 295.05C409.69 291.17 410.23 287.17 410.84 283.24L410.91 282.79L410.92 282.79L411.07 281.86C411.63 278.31 412.11 275.59 412.62 273.06L412.71 272.62L412.72 272.62L412.9 271.76C413.82 267.32 414.83 263.33 415.99 259.57L416.23 258.77L416.24 258.77L416.43 258.16L416.75 257.14C417.46 255 418.28 252.81 419.17 250.64L419.73 249.28L419.92 248.87C421.9 244.34 424.16 240.17 426.65 236.5L425.87 235.66C426.63 235.24 427.38 234.81 428.1 234.32L428.29 234.22L428.43 234.04C429.59 232.49 430.67 231.18 431.72 230.02L433.19 228.4L433.31 228.38L433.53 228.16C434.57 227.13 435.56 226.24 436.55 225.43L438.35 223.97L434.42 223.45C429.45 222.8 424.31 222.12 419.29 221.28Z" />
		<path id="Layer" class="shp2" d="M420.31 134.01C417.02 131.98 413.78 128.59 410.7 123.93L410.36 123.43L409.8 122.52C408.57 120.55 407.38 118.38 406.16 115.89L406 115.56L405.6 114.71C405.24 113.96 404.89 113.21 404.58 112.5C403.84 110.81 403.11 108.92 402.36 106.73L402.11 106.02L402.11 106.02L401.95 105.55C400.99 102.62 400.16 99.53 399.49 96.35L399.38 95.87L399.2 94.97C398.72 92.51 398.33 89.96 398.03 87.37L398 87.04L398.01 87.04L397.9 85.89C397.66 83.43 397.53 81.05 397.51 78.83L397.5 77.04L395.98 77.99C392.9 79.93 390.26 83.56 387.89 89.11L388.75 89.75C388.27 90.12 387.78 90.51 387.26 90.97L387.07 91.13L386.98 91.37C385.99 93.98 385.22 96.5 384.52 98.84C384.16 100.08 383.87 101.19 383.63 102.24L382.8 105.79L382.99 105.59C382.64 107.78 382.46 109.85 382.45 111.88C382.44 112.97 382.54 114.14 382.76 115.55L383.16 118.11L383.22 118.03C383.24 118.14 383.26 118.24 383.27 118.32C383.5 119.43 383.71 120.48 383.85 121.55L383.91 122L384.28 122.25C385.63 123.16 387.02 124.01 388.43 124.78L388.59 124.86L388.59 124.87L388.68 124.91L389.2 125.19L389.21 125.18L389.83 125.49C391.22 126.19 392.49 126.77 393.7 127.24C395.17 127.82 396.8 128.39 398.75 129.03L398.73 129.04L399.77 129.36L399.94 129.42L399.94 129.42L400.64 129.63C402.31 130.15 403.99 130.65 405.66 131.15C410.23 132.5 414.96 133.89 419.39 135.78L420.31 134.01Z" />
		<path id="Layer" class="shp2" d="M374.59 159.18C374.62 159.2 374.64 159.22 374.66 159.24L374.9 159.44L374.9 159.43C375.77 160.14 376.63 160.81 377.51 161.45L378.45 162.13L378.99 161.1C385.88 147.76 395.11 140.46 407.23 138.76C408.85 138.54 410.4 138.27 411.71 138.04L411.74 136.07C406.8 135 401.91 133.59 397.2 131.91L396.88 131.77L396.81 131.8L395.14 131.17C393.4 130.51 391.64 129.79 389.92 129.04C389.21 128.72 388.52 128.37 387.82 128.02L386.7 127.45L386.5 128.27C386.37 128.28 386.25 128.31 386.12 128.33L386.42 127.29C384.02 125.99 381.7 124.45 379.51 122.72L379.17 122.45L378.18 121.61C375.11 119.02 372.32 116.07 369.86 112.83L369.86 112.82L368.99 111.62C367.17 109.1 365.51 106.38 363.91 103.31L363.58 102.69L363.22 101.95C361.81 99.11 360.54 96.07 359.35 92.65L359.05 91.79L359.05 91.79L358.89 91.3C357.75 87.84 356.75 84.16 355.84 80.03L355.61 78.99L355.6 79L355.56 78.81C355.02 76.26 354.56 73.68 354.23 71.71L354.09 70.91L354.04 70.6C353.41 66.76 352.82 62.69 352.24 58.15L351.83 54.92L350.36 57.82C348.03 62.42 346.24 67.56 345.05 73.1L344.4 76.14L344.48 76.07C343.97 79.05 343.62 82.11 343.47 85.2L343.32 88.25L343.39 88.16C343.34 92.17 343.56 96.21 344.08 100.2L344.24 101.43L344.24 101.44L344.24 101.49L344.41 102.76L344.44 102.72C344.98 106.2 345.69 109.61 346.57 112.85C346.71 113.36 346.87 113.88 347.02 114.39L347.59 116.28L347.58 116.3L347.7 116.69C347.72 116.73 347.74 116.78 347.75 116.83L347.97 117.55L347.98 117.52C349.26 121.47 350.76 125.37 352.48 129.12L353.65 131.68L353.66 131.61C355.03 134.42 356.48 137.09 357.97 139.54L358.95 141.14L358.96 141.12C360.96 144.25 363.08 147.17 365.25 149.78L365.97 150.64C365.97 150.64 365.97 150.65 365.97 150.65L366.25 150.98L366.66 151.47L366.66 151.44C368.91 153.98 371.25 156.31 373.63 158.35L374.1 158.76L374.1 158.78L374.59 159.18Z" />
	</g>
	<g id="Layer">
		<path id="Layer" class="shp3" d="M399.96 467.42C398.05 466.02 393.99 463.64 390.87 463.64C390.23 463.64 389.66 463.74 389.15 463.94L388.41 464.21L388.51 464.99C388.7 466.57 388.44 468.13 387.76 469.49L387.01 470.98L388.94 470.94C391.05 470.94 393.1 471.59 394.71 472.77C396.08 473.78 397.38 475.43 398.16 477.19L398.59 478.15L399.53 477.67C401.11 476.86 402.98 476.4 405.23 476.25L406.7 476.15L406.07 474.82C404.65 471.86 402.6 469.37 399.96 467.42Z" />
		<path id="Layer" class="shp3" d="M392.47 473.21C391.32 472.63 390.14 472.35 388.87 472.35C388.15 472.35 387.41 472.44 386.61 472.63L385.59 472.87L385.88 473.88C386.32 475.41 386.33 477 385.9 478.48L385.6 479.76L386.93 479.76C388.83 479.76 390.84 480.03 392.79 480.29C393.96 480.44 395.07 480.59 396.17 480.69L397.27 480.78L397.25 479.68C397.21 476.98 394.12 474.03 392.47 473.21Z" />
		<path id="Layer" class="shp3" d="M359.94 470.72C357.69 468.66 355.56 468.4 353.97 468.4C353.08 468.4 352.19 468.49 351.26 468.59L349.84 468.73L349.81 469.6C349.76 470.91 349.47 472.14 348.94 473.27L348.23 474.76L349.88 474.7C350.01 474.7 350.13 474.69 350.26 474.69C351.83 474.69 353.44 475.05 354.79 475.7C355.71 476.15 356.68 477.33 357.61 478.48C358.3 479.32 359 480.18 359.77 480.87C360.81 481.79 361.82 482.24 362.85 482.24L362.97 482.24C364.67 482.18 365.73 481.6 366.13 480.52C367.12 477.85 362.67 473.24 359.94 470.72Z" />
		<path id="Layer" class="shp3" d="M353.02 476.31C352.16 476.02 351.26 475.88 350.29 475.88C349.58 475.88 348.82 475.96 347.9 476.11L346.63 476.33L347.16 477.51C347.89 479.15 348.19 480.75 348.02 482.16L347.87 483.4L349.11 483.28C349.71 483.22 350.36 483.18 351.02 483.18C353.02 483.18 355.21 483.46 357.35 483.99L358.64 484.31L358.59 482.98C358.48 479.96 355.28 477.06 353.02 476.31Z" />
	</g>
	<g id="Layer">
		<path id="Layer" class="shp2" d="M321.85 68.76L322.05 68.97L321.33 65.4C320.81 62.81 320.05 60.24 319.07 57.75L318.43 56.14L317.36 57.5C316.14 59.04 314.96 60.42 313.76 61.72L312.81 62.75L312.78 62.75L312.52 63.02C311.52 64.05 310.69 64.87 309.89 65.61L309.09 66.35L308.91 66.5C308.75 66.64 308.59 66.78 308.43 66.93C308.33 67.03 308.22 67.13 308.11 67.23L307.31 67.94L308.06 68.69C311.26 71.88 314.18 75.19 316.74 78.52C317.91 80.05 318.82 81.37 319.52 82.57L321.06 85.23L321.43 81.61C321.47 81.23 321.5 80.93 321.52 80.81C321.62 80.17 321.71 79.54 321.78 78.96L321.88 79.14L322.07 75.76C322.14 74.52 322.16 73.48 322.13 72.48C322.1 71.26 322 70.01 321.85 68.76Z" />
		<path id="Layer" class="shp2" d="M306.86 52.04L306.78 51.87C306.34 51.02 305.73 49.94 304.9 48.94L306.15 48.3C305.64 46.41 304.98 44.72 304.12 43.16L303.52 42.07L299.08 45.93L299.08 45.93L295.6 48.97C295.6 48.97 294.86 49.63 294.71 49.76L293.36 50.93L293.39 50.94C292.62 51.62 291.8 52.29 290.89 52.81L289.51 53.6L290.83 54.51C295.88 57.95 300.6 61.69 304.83 65.59L306.25 66.9L306.5 64.99C306.64 63.92 306.75 62.88 306.84 61.88L306.91 61.98L307.06 58.91C307.18 56.55 307.12 54.3 306.88 52.22L306.86 52.04Z" />
		<path id="Layer" class="shp2" d="M296.65 384.83L295.03 381.09L295.04 381.08L294.65 380.16C294.47 379.72 294.28 379.28 294.11 378.85C293.75 377.94 293.37 377.03 292.99 376.1C290.76 370.66 288.45 365.03 287.88 359.28L286.38 359.18C286.7 358.03 287.07 356.9 287.52 355.81L288.79 352.76L286.04 354.6C284.36 355.72 281.87 356.29 278.65 356.29C277.43 356.29 276.11 356.22 274.62 356.06L274.28 356.02L273.34 355.9C272.67 355.81 272.03 355.72 271.43 355.63L271.17 355.59C268.21 355.14 265.22 354.32 262.29 353.17L261.74 352.95L261.74 352.94L261.06 352.65C258.33 351.48 255.72 350.04 253.29 348.35L252.06 347.49L251.74 348.96C251.04 352.23 250.14 355.56 249.07 358.85L249.01 359.04L249.02 359.23C249.12 360.6 249.16 362.02 249.17 363.48L247.55 363.19C243.9 372.77 238.87 381.26 232.59 388.4L232.37 388.65L232.37 388.68L231.02 390.12C225.61 395.9 219.34 400.67 212.39 404.29L210.14 405.47L212.58 406.14C213.85 406.5 215.11 406.86 216.36 407.23C218.47 407.84 220.66 408.46 222.84 409.02L222.83 409.03L223.28 409.14C223.3 409.14 223.32 409.15 223.34 409.15L223.93 409.3L223.93 409.29L224.48 409.42C226.76 409.97 228.87 410.38 230.93 410.66C232.76 410.91 234.68 411.12 236.76 411.31L236.74 411.33L238.46 411.47C241.19 411.69 243.89 411.83 246.51 411.9L246.51 411.91L246.66 411.91C246.67 411.91 246.68 411.91 246.68 411.91L247.1 411.92L247.11 411.92L248.98 411.94C249.66 411.95 250.33 411.96 251.01 411.96C252.58 411.96 254.17 411.93 255.73 411.88C259.85 411.75 263.94 411.47 267.87 411.05L268.27 411L268.27 411.01L268.91 410.93L268.91 410.93L268.91 410.93L269.41 410.87C274.86 410.22 280.01 409.27 284.72 408.04L285.75 407.77L285.75 407.76L286.24 407.62C289.15 406.81 292.04 405.83 294.83 404.72L295.71 404.37L295.7 404.35L296.23 404.13C298.31 403.26 300.14 402.41 301.82 401.54L302.51 401.18L302.34 400.43C301.08 395.03 298.83 389.84 296.65 384.83Z" />
		<path id="Layer" class="shp2" d="M276.6 87.69L276.04 88.18L275.92 88.28C275.36 88.75 274.81 89.22 274.24 89.67L273.23 90.49L274.28 91.26C274.42 91.36 274.57 91.47 274.72 91.59C275.26 92.01 275.83 92.44 276.4 92.88C279.33 95.11 282.35 97.41 284.35 100.25C284.73 100.79 285.08 101.39 285.37 102.04L286.57 104.66L287.25 101.87C287.46 101.04 287.62 100.27 287.77 99.51L287.87 99.76L288.33 95.98C288.62 93.66 288.74 91.27 288.71 88.89L288.85 89.07L288.59 85.8C288.59 85.8 288.53 85.01 288.51 84.71C288.38 82.86 288.1 79.02 287.32 76.7L286.58 74.51L285.49 76.55C285.27 76.95 285.06 77.39 284.86 77.8C284.58 78.34 284.3 78.91 284.13 79.17C283.55 80.01 282.94 80.84 282.31 81.64L281.48 82.68L281.48 82.68L281.28 82.93C279.94 84.55 278.41 86.1 276.6 87.69Z" />
		<path id="Layer" class="shp2" d="M271.73 81.4C271.28 78.49 270.25 75.74 268.65 73.24L267.93 72.1L267.05 73.13C265.76 74.64 264.44 76.01 263.24 77.1L262.88 77.43L262.87 77.43L262.51 77.74C261.68 78.44 260.92 78.99 260.23 79.38L258.83 80.18L260.16 81.08C260.43 81.26 260.69 81.43 260.96 81.6C261.32 81.83 261.67 82.06 262.03 82.32C264.53 84.02 267.21 85.94 270.23 88.18L271.59 89.2L271.81 87.51C271.96 86.43 272 85.32 271.97 84.21L272.2 84.44L271.73 81.4Z" />
	</g>
	<g id="Layer">
		<path id="Layer" class="shp3" d="M124.05 17.64C130.16 22.63 133.17 23.75 141.04 25.3C162.49 29.53 181.97 38.7 203.4 49.38C220.53 57.92 238.69 67.18 255.8 78.2L256.31 78.53L256.84 78.23C256.91 78.19 257.01 78.16 257.11 78.15L257.25 78.13L257.39 78.08C258.93 77.47 260.56 76.32 262.37 74.57L263.28 73.68L259 70.98C248.84 64.54 238.33 57.89 227.32 52.22C215.31 46.02 202.48 40.16 189.19 34.78C166.61 25.67 143.67 17.87 116.17 8.98L115.35 10.79C117.71 12.18 119.98 14.15 121.98 15.88C122.72 16.52 123.41 17.12 124.05 17.64Z" />
		<path id="Layer" class="shp3" d="M225.7 246.75L225.75 246.77C232.7 249.87 240.04 256.43 248.2 266.84L249.97 266.01C248.85 260.81 247.57 256.19 246.06 251.88C243.58 244.87 240.08 238.24 236.7 231.83C236.17 230.83 235.64 229.83 235.12 228.83C227.74 214.71 223.19 202.51 224.94 188.8C226.5 176.66 231.55 165.03 236.44 153.79C237.33 151.74 238.22 149.7 239.08 147.66C242.52 139.54 245.66 132.38 248.7 125.77C249.22 124.64 249.79 123.52 250.4 122.34C251.51 120.2 252.65 117.99 253.4 115.74C253.58 115.19 253.73 114.63 253.86 113.96L254.41 111.17L252.24 113.01C248.99 115.75 245.65 118.5 242.42 121.15C234.61 127.57 226.54 134.2 219.11 141.42C208.61 151.6 198.54 163.21 187.4 177.95C178.87 189.25 169.98 201.53 162.76 214.68C156.78 225.51 152.39 237.03 149.33 249.89L148.7 252.53L150.89 250.93C162.57 242.4 177.17 237.7 192.01 237.7C204.1 237.7 215.74 240.82 225.65 246.72L225.7 246.75Z" />
		<path id="Layer" class="shp3" d="M50.94 124.29L50.41 126.51L52.4 125.39C78.34 110.79 110.99 101.35 146.81 98.09C154.83 97.35 162.97 96.98 171.01 96.98C198.6 96.98 225.8 101.25 251.84 109.65L254.25 110.43L253.03 108.22C252.23 106.77 251.04 105.5 249.79 104.15C249.5 103.85 249.21 103.53 248.91 103.21C231.6 84.29 209.56 68.93 183.42 57.54C158.39 46.63 130.21 39.83 99.66 37.31C90.8 36.59 81.68 36.23 71.78 36.23C51.78 36.23 32.55 37.64 9.48 39.48L9.39 39.49L9.3 39.51C8.91 39.62 8.52 39.73 8.13 39.85L5.95 40.47L7.5 41.68C42.84 69.22 57.45 97.01 50.94 124.29Z" />
		<path id="Layer" class="shp3" d="M146.1 244.81L148.05 244.84C153.89 220.62 169.29 199.1 185.92 177.36C207.26 149.43 228.31 128.6 250.27 113.68L249.53 111.87C246.93 112.34 244.24 112.72 241.65 113.08C237.86 113.62 233.94 114.17 230.12 115.02C222.87 116.65 215.46 118.85 208.1 121.54C194.16 126.65 180.07 133.68 165.02 143.05C153.11 150.47 140.65 159.31 125.8 170.89C115.52 178.9 103.87 187.98 96.83 201.02L96.09 202.38L97.64 202.49C121.37 204.12 141.3 221.52 146.1 244.81Z" />
		<path id="Layer" class="shp3" d="M229.93 456.04C229.25 456.04 228.57 456.09 227.89 456.19L227.25 456.29L227.08 456.92C226.69 458.36 225.86 459.88 224.74 461.19L223.28 462.91L225.53 462.84C225.65 462.84 225.77 462.83 225.89 462.83C227.33 462.83 228.72 463.09 229.53 463.34C232.34 464.18 234.67 466.16 236.08 468.9L236.54 469.78L237.42 469.33C238.41 468.84 239.43 468.6 240.53 468.6C240.66 468.6 240.79 468.6 240.91 468.61L241.92 468.66L241.96 467.65C242.09 464.63 241.08 461.9 239.03 459.76C236.76 457.4 233.45 456.04 229.93 456.04Z" />
		<path id="Layer" class="shp3" d="M234.37 469.64C234.07 469.04 233.7 468.48 233.21 467.9C232.01 466.46 230.44 465.42 228.66 464.91C228.13 464.76 227.56 464.68 226.91 464.68C226.21 464.68 225.53 464.77 224.87 464.85L223.48 465.02L223.81 466.15C224.27 467.71 224.45 469.36 224.32 470.79L224.2 472.17L225.55 471.85C226.2 471.7 226.92 471.62 227.69 471.62C228.12 471.62 228.57 471.65 229.02 471.69C230.17 471.81 231.43 472.05 232.89 472.41C233.17 472.48 235.37 472.93 235.37 472.93L234.92 471.35C234.55 470.03 234.45 469.78 234.37 469.64Z" />
		<path id="Layer" class="shp3" d="M97.65 194.84C104.22 184.74 114.12 177.02 123.69 169.54L123.93 169.36C139.24 157.41 151.3 148.79 163.04 141.43C177.69 132.23 191.7 125.18 205.84 119.86C214 116.78 222.23 114.34 230.32 112.58C233.53 111.89 237.17 111.1 240.78 110.56L240.9 108.61C217.79 102.2 193.85 98.95 169.75 98.95C162.66 98.95 155.48 99.24 148.42 99.8C117.72 102.26 86.75 110.68 50.97 126.3L47.49 127.82L51.27 128.22C67.62 129.91 82.36 139.04 90.7 152.65C98.06 164.68 99.94 179.76 95.85 194.01L97.65 194.84Z" />
		<path id="Layer" class="shp3" d="M207.82 466.51C205.81 463.8 202.78 463.7 200.11 463.61L198.87 463.57L198.88 464.61C198.89 465.98 198.59 467.35 198 468.57L197.48 469.64L198.63 469.96C199.38 470.18 200.04 470.44 200.62 470.75C202.62 471.82 204.09 473.5 204.99 475.74L205.42 476.81L206.41 476.24C206.95 475.94 207.67 475.78 208.51 475.78C208.91 475.78 209.34 475.81 209.78 475.89L211.05 476.1L210.94 474.82C210.7 471.96 209.51 468.78 207.82 466.51Z" />
		<path id="Layer" class="shp3" d="M199.12 471.92C197.75 471.27 196.35 471.14 195.15 471.1L193.66 471.05L194.18 472.45C194.6 473.56 194.67 474.8 194.39 476.15L194.13 477.44L195.44 477.35C195.76 477.33 196.08 477.31 196.4 477.31C198.69 477.31 200.86 477.83 202.29 478.27L204.08 478.81L203.54 477.02C202.88 474.85 201.19 472.9 199.12 471.92Z" />
	</g>
	<path id="Layer" class="shp2" d="M170.68 349.81L170.66 349.85L170.52 348.25C170.17 344.29 169.81 340.2 169.71 336.2C169.67 334.14 169.96 332.14 170.61 330.08L169.47 329.59C169.54 329.48 169.61 329.36 169.69 329.26L170.84 327.62L168.84 327.68C168.44 327.69 168.03 327.7 167.63 327.7C165.59 327.7 163.49 327.56 161.45 327.42C159.39 327.28 157.25 327.13 155.13 327.13L154.84 327.13C153.71 327.14 152.51 327.19 151.17 327.29L151.2 327.25L148.94 327.5C146.48 327.76 143.95 328.2 141.24 328.8L141.31 328.73L137.96 329.59C137.76 329.64 137.57 329.68 137.4 329.73C133 330.91 128.52 332.25 124.08 333.73L123.7 333.86L123.69 333.88L121.89 334.49C118.29 335.73 114.99 336.94 111.78 338.19L111.61 338.26L111.62 338.24L110.36 338.76L110.2 338.82L110.2 338.82L109.08 339.28C104.53 341.15 100.01 343.23 95.65 345.46L95.66 345.41L93.29 346.68C89.02 348.94 84.88 351.38 80.97 353.93L80.98 353.91L80.33 354.34L80.1 354.49L80.1 354.5L79 355.24C73.49 358.96 68.34 363.01 63.71 367.26L63.3 367.64L63.3 367.66L62.21 368.69C60.18 370.63 58.19 372.7 56.28 374.85L56.27 374.8L54.94 376.35C51.82 380 49.02 383.83 46.6 387.75L46.58 387.73L46.09 388.57L46.06 388.62L46.06 388.62L45.6 389.4C43.43 393.08 41.56 396.96 40.03 400.92L39.93 401.18L39.92 401.18L39.36 402.67C39.31 402.81 39.25 402.94 39.23 403.03C38.11 406.18 37.27 409.56 36.74 413.08L36.73 413.08L36.71 413.22C36.71 413.26 36.7 413.3 36.69 413.34L36.6 413.92L36.62 413.93L36.52 414.81C36.05 418.65 35.96 422.73 36.23 426.93L36.18 426.9L36.34 428.69C36.72 432.82 37.49 437.11 38.63 441.46L38.6 441.45L39.09 443.16C40.07 446.58 41.32 450.08 42.82 453.57L42.87 453.68L42.85 453.68L43.31 454.71C43.98 456.22 44.63 457.57 45.29 458.84C45.72 459.68 46.19 460.54 46.73 461.5L46.72 461.5L47.08 462.09C47.1 462.13 47.12 462.16 47.14 462.19L47.42 462.68L47.43 462.68L47.7 463.12C49.55 466.18 51.61 469.02 53.81 471.6L53.78 471.61L54.21 472.09L54.59 472.53L54.6 472.52L54.87 472.82C57.21 475.41 59.69 477.71 62.26 479.65C63.93 480.93 65.69 482.05 67.64 483.1L68.75 481.45C64.99 478.3 61.67 474.65 58.86 470.63L58.35 469.89L58.34 469.9L58.18 469.66C56.39 466.98 54.81 464.06 53.48 461L53.05 460.01L52.95 459.77C52.89 459.6 52.82 459.43 52.74 459.27C52.69 459.13 52.63 459 52.57 458.86C51.74 456.7 51.01 454.39 50.4 452L50.32 451.7L50.32 451.69L50.13 450.85C49.39 447.71 48.89 444.46 48.64 441.17L48.57 440.23L48.54 439.67C48.35 435.75 48.52 431.79 49.04 427.91L49.19 426.83L49.2 426.83L49.28 426.34C49.82 423.04 50.59 419.85 51.56 416.87L51.98 415.61L51.98 415.61L52.17 415.08C53.25 412.1 54.52 409.29 55.95 406.71L56.66 405.43L56.69 405.42L56.88 405.1C56.96 404.96 57.04 404.82 57.12 404.68C57.23 404.5 57.33 404.32 57.44 404.14C58.43 402.55 59.6 400.88 61.02 399.04L62.01 397.76C63.75 395.63 65.63 393.59 67.6 391.69L68.56 390.77L68.81 390.55C71.31 388.26 74.04 386.11 76.92 384.15L78.53 383.06L78.59 383.05L78.81 382.91C81.44 381.24 84.22 379.72 87.05 378.39L88.29 377.81L88.32 377.83L88.82 377.61C92.48 376.01 96.24 374.71 100 373.74L101.57 373.33L101.58 373.34L101.99 373.24C102.97 373.02 103.94 372.81 104.93 372.62C106.95 372.24 109 371.95 111.01 371.74L112.06 371.64L112.07 371.65L112.67 371.6C114.64 371.43 116.63 371.34 118.58 371.34C119.5 371.34 120.42 371.36 121.34 371.4L122.4 371.44L122.42 371.46L122.89 371.5C125.96 371.71 128.74 372.09 131.39 372.66L132.43 372.88L132.43 372.88L132.99 373.02C133.52 373.15 134.03 373.28 134.53 373.42C137.15 374.15 139.81 375.29 142.91 376.99L144.11 377.65L144.11 377.66L144.52 377.9C146.09 378.82 147.64 379.77 149.19 380.72C149.88 381.14 150.56 381.56 151.24 381.97L152.98 383.03L152.98 383.02L153.04 383.05C154.96 384.17 156.57 385.03 158.11 385.75L159.51 386.41L159.51 386.39L159.83 386.52C161.34 387.15 162.72 387.63 164.08 387.98L164.84 388.18L165.21 387.49C168.28 381.81 170.2 375.76 170.92 369.51C171.58 363.81 171.3 358.13 170.94 353.32L170.68 349.81Z" />
	<g id="Layer">
		<path id="Layer" fill-rule="evenodd" class="shp4" d="M448.7 153.16C451.63 156.67 452.66 162.63 447.52 164.56C445.98 165.14 444.54 165.32 443.16 165.26C444.11 168.87 442.41 173.4 438.69 174.44C438.17 174.59 437.61 173.96 437.95 173.48C439.56 171.17 440.43 169.03 440.49 166.62C438.32 168.98 434.21 170.17 431.49 169.77C427.36 169.15 423.98 165.63 423.37 161.56C423.34 161.57 423.31 161.58 423.28 161.59C422.77 164.11 423.33 166.94 424.88 168.87C426.42 170.77 428.81 172.07 430.74 173.57C431.11 173.86 430.8 174.6 430.33 174.54C426.73 174.1 423.55 172.14 421.92 168.81C420.81 166.55 420.73 164.39 421.38 162.33C417.6 163.79 413.34 165.17 411.42 160.99C408.95 155.61 415.21 149.7 419.41 147.68C420.72 147.05 421.84 148.9 420.56 149.64C418.66 150.76 414.84 153.8 414.78 156.49C414.64 163.23 419.03 158.96 420.6 158.67C424.25 158 426.71 156.53 430.59 157.17C433.76 157.69 435.58 159.41 438.43 160.64C440.16 161.39 443.91 162.07 446 161.39C449.6 160.21 448.55 156.66 447.63 153.79C447.44 153.19 448.29 152.66 448.7 153.16ZM437.74 163.88C436.67 163.45 435.61 162.97 434.55 162.51C434.25 163.41 433.78 164.22 432.77 164.42C432.04 164.57 431.49 164.28 431.06 163.72C430.63 163.17 430.64 162.59 430.73 161.95C430.77 161.68 430.82 161.41 430.9 161.16C429.47 160.77 427.98 160.57 426.41 160.74C426.45 161.12 426.49 161.5 426.6 161.84C426.98 162.91 427.59 163.91 428.42 164.7C430.27 166.48 432.82 166.91 435.18 165.92C436.34 165.44 437.06 164.69 437.74 163.88Z" />
		<path id="Layer" class="shp4" d="M492.7 166.84C492.31 166.51 491.79 166.31 491.22 166.31C490.04 166.3 489.01 167.07 488.63 168.19C488.02 170.01 489.38 171.73 491.1 172.21C493.1 172.77 495.39 171.13 494.84 168.94C494.56 167.85 493.69 167.08 492.7 166.84Z" />
		<path id="Layer" class="shp4" d="M498.22 164.05C495.82 162.27 492.97 162.98 490.22 163.06C489.3 163.09 489.32 164.41 490.22 164.47C493.3 164.7 498.15 164.39 498.66 168.56C498.71 168.98 499.2 169.15 499.46 168.77C500.68 167.02 499.79 165.22 498.22 164.05Z" />
		<path id="Layer" fill-rule="evenodd" class="shp4" d="M507.39 185.63C506.09 186.26 504.67 186.14 503.23 185.73C500.86 191.58 497.35 196.95 493.25 201.74C492.06 203.13 490 201.9 489.9 200.35C489.58 195.69 489.25 190.99 487.57 186.71C486.53 190.17 485.48 193.65 484.28 197.06C483.64 198.86 483.07 200.83 481.04 201.42C478.9 202.03 477.56 200.55 476.62 198.81C475.34 196.44 474.41 193.78 473.47 191.15C472.23 194.06 470.86 196.91 469.31 199.69C468.65 200.89 466.63 201 466 199.69C464.74 197.09 463.54 194.46 462.27 191.86C460.55 194.62 458.5 197.03 456 199.24C454.89 200.22 453.37 199.51 453.23 198.1C452.92 195 452.29 191.88 451.23 188.94C445.57 189.85 440.07 191.57 434.52 191.96C442.86 197.93 451.66 203.96 461.48 205.92C463.47 206.32 465.45 206.64 467.42 206.96C467.94 205.76 468.36 204.48 468.94 203.33C469.78 201.69 470.66 200.08 471.49 198.44C471.86 197.69 472.92 197.47 473.61 197.88C475.88 199.23 476.75 201.25 477.69 203.62C478.31 205.18 479.79 206.89 480.11 208.6C481.07 206.81 482.18 205.1 483.27 203.37C484.01 202.2 484.71 200.7 486.44 201.06C487.58 201.29 488.04 202.3 488.44 203.27C489.48 205.81 489.74 209.08 490.2 212.01C493.96 208.6 496.78 203.6 499.75 199.65C500.66 198.44 502.46 198.84 502.59 200.42C502.84 203.68 502.7 206.93 502.25 210.18C501.94 212.45 501.78 215.92 500.71 218.14C501.25 218.23 501.79 218.31 502.34 218.36C504.32 218.57 505.63 220.88 504.04 222.46C496.94 229.51 487.42 237.47 476.71 233.35C474.22 232.4 472.04 230.84 469.6 229.8C466.2 228.36 462.56 228.08 458.93 227.62C452.86 226.86 446.78 226.13 440.72 225.3C428 236.87 420.28 251.07 416.52 268.27C412.23 287.89 412.24 308.2 407.59 327.78C403.45 345.18 395.19 361.39 381.69 373.39C379.95 374.94 378.14 376.4 376.29 377.8C380.59 383.63 383.34 389.99 382.52 397.63C381.43 407.76 377.39 417.01 377.89 427.41C378.16 433.24 379.91 438.82 380.67 444.58C380.95 446.76 380.94 448.91 381.04 451.09C381.2 454.72 382.99 456.29 385.74 458.38C387.48 459.71 388.66 461.52 389.21 463.48C392.65 461.02 396.77 462.62 400.4 464.76C404.96 467.46 408.13 471.68 409.88 476.63C410.32 477.87 409.19 479.06 408 479.09C405.23 479.17 402.64 479.82 399.95 480.23C400 480.96 399.94 481.68 399.76 482.37C399.59 483.03 399.01 483.66 398.33 483.8C395.68 484.35 392.52 483.43 389.79 483.37C387.73 483.32 385.47 483.63 383.34 483.48C381.59 484.59 379.44 485.13 377.26 485.34C372.02 485.83 366.38 485.86 361.13 485.17C361.15 485.33 361.17 485.49 361.19 485.65C361.37 487.11 359.7 487.94 358.51 487.69C356.35 487.24 354.25 486.79 352.03 486.73C349.99 486.67 347.97 487.06 345.94 486.98C345.88 486.98 345.82 486.96 345.76 486.96C344.89 487.39 343.85 487.68 342.63 487.78C333.38 488.49 324.03 488.54 314.76 488.91C308.91 489.14 301.31 489.33 300.27 481.91C299.75 478.23 301.08 474.31 301.22 470.63C301.4 465.79 300.74 460.91 300.02 456.14C298.77 447.85 297.07 439.5 298.1 431.09C299.16 422.49 302.88 414.2 302.15 405.47C296.39 408.91 289.5 410.59 283.05 411.99C274.39 413.86 265.55 414.97 256.7 415.29C247.85 415.61 238.98 415.06 230.22 413.78C227.63 413.4 224.82 412.99 222.02 412.39C216.59 422.61 208.79 437.58 220.19 446.65C222.98 448.87 227.2 450.2 228.12 454.01C237.35 451.9 246.46 460.11 245.13 470.24C244.94 471.7 243.84 472.81 242.27 472.42C240.84 472.07 239.63 472.2 238.37 472.59C238.68 474.61 238.31 476.59 235.76 476.75C233.9 476.87 231.78 475.75 229.95 475.44C227.62 475.05 225.54 475.59 223.24 475.73C223.03 475.74 222.85 475.72 222.69 475.67C220.46 476.89 216.91 476.45 214.18 475.83C214.22 476.57 214.21 477.28 214.15 477.97C214 479.53 212.38 480.81 210.86 479.86C209.5 479.01 208.25 479.3 206.93 479.42C206.97 479.78 207.02 480.14 207.04 480.5C207.17 482.34 205.14 482.96 203.76 482.38C201.45 481.41 199.03 480.93 196.52 481.01C194.93 481.05 193.38 481.57 191.83 481.53C186.51 484.81 176.75 483.52 171.82 483.69C165.7 483.91 153.7 486.98 150.51 479.61C148.92 475.93 149.57 471 149.48 467.1C149.35 461.56 149.22 456.01 149.09 450.47C148.82 439.44 148.45 428.43 148.18 417.4C147.96 408.34 151.22 403.62 157.13 397.17C158.89 395.25 160.5 393.19 161.94 391.02C151.82 387.76 144.04 379.53 133.66 376.61C122.77 373.54 110.76 374.17 99.92 377.12C81.5 382.14 64.82 394.86 57.08 412.57C49.64 429.6 51.15 450.53 60.81 466.37C72.01 484.72 92.68 491.6 112.85 494.84C136.46 498.64 160.37 500.31 184 503.91C185.66 504.16 185.25 506.91 183.61 506.8C183.31 506.78 183 506.75 182.7 506.73C182.39 507.13 181.92 507.43 181.26 507.46C159.03 508.7 136.22 509.48 113.97 508.45C93.8 507.52 74.87 500.61 56.84 491.88C43.33 485.34 30.14 476.67 22.06 463.69C13.23 449.5 8.9 429.7 11.01 413.13C13.06 397.07 22.85 381.97 30.67 368.1C38.28 354.6 46.82 341.29 57.79 330.24C68.84 319.1 82.18 311.22 97.18 306.65C114.1 301.51 131.9 299.96 148.8 294.69C178.61 285.39 210.11 258.93 242.86 266.59C240.81 264.15 238.65 261.79 236.34 259.57C231.57 254.96 225.88 251.94 220.56 248.32C197.26 236.96 167.67 240.39 148.48 258.38C148.31 258.73 148.04 258.97 147.71 259.11C147.6 259.22 147.49 259.32 147.38 259.43C145.79 260.99 142.79 259.88 142.87 257.56C143.89 228.02 119.67 204.54 90.14 206.6C88.12 206.74 87.06 204.34 87.93 202.74C96.03 187.9 96.08 169.24 87.17 154.69C78.84 141.09 63.67 132.66 47.84 132.02C46.31 131.96 44.84 130.44 45.41 128.82C58.26 92.21 28.17 61.73 1.21 42.05C-0.53 40.78 -0.45 38.01 1.82 37.35C25.97 30.26 50.58 24.54 75.65 21.99C90.95 20.43 106.42 20.12 121.73 21.53C115.15 16.14 108.01 11.71 100.14 8.4C97.6 7.33 97.91 3.81 100.79 3.57C136.95 0.54 173.1 12.06 207.7 21.05C235.48 28.27 263.92 35.91 288.28 51.62C289.68 49.35 291.92 47.85 293.99 46.05L302.21 38.9C303.32 37.94 304.71 38.18 305.55 39.33C310.31 45.83 310.71 53.52 310 61.17C312.47 58.64 314.75 55.94 316.82 53C317.64 51.83 319.67 51.48 320.41 53C323.53 59.4 325.32 66.24 325.26 73.38C325.22 77.11 325.07 84.21 322.31 87.81C322.44 89.78 322.04 91.86 320.88 94.19C317.91 100.16 314.58 105.87 311.85 111.98C299.63 139.35 293.78 169.56 294.65 199.52C295.48 228.08 301.75 256.05 319.55 278.8C326.8 281.49 334.69 281.84 342.86 278.32C362.98 269.67 363.93 241.69 365.17 223.16C365.87 212.67 365.68 202.09 367.05 191.64C368.06 183.93 369.84 175.38 374.44 168.89C374.95 167.57 375.48 166.26 376.05 164.96C359.46 153.06 348.33 133.24 343.33 113.74C337.96 92.79 341.06 72.03 350.87 52.95C351.41 51.9 353.31 52.07 353.52 53.3C356.71 72.45 360.25 92.62 371.92 108.69C374.17 111.78 376.69 114.63 379.47 117.16C378.39 109.95 380.59 101.23 382.63 95.49C385.5 87.44 389.5 76.87 398.1 73.62C399.12 73.23 400.48 74.05 400.7 75.09C403.08 86.68 402.99 98.3 407.43 109.51C409.39 114.47 412.08 119.2 415.25 123.48C417.99 127.17 421.69 130.34 424 134.32C428.19 133.36 432.3 133.2 436.6 133.82C446.22 135.2 454.48 140.1 462.75 144.87C467.37 147.53 472.05 150.18 477.1 151.95C482.51 153.86 487.75 153.83 493.38 154.32C500.91 154.97 507.46 159.25 510.46 166.36C512.52 171.25 513.37 182.75 507.39 185.63ZM507.46 170.76C506.49 165.7 502.88 161.7 498.01 160.04C493.41 158.47 488.43 159.09 483.69 158.38C482.79 158.25 481.91 158.08 481.04 157.88C481.6 158.92 481.97 160.08 482.08 161.42C482.34 164.52 481.45 168.15 479.31 170.45C478.77 171.04 477.61 170.61 477.68 169.78C477.85 167.61 478.89 165.73 479.25 163.61C479.73 160.84 479.01 158.78 477.5 156.91C476.24 156.51 475 156.07 473.76 155.57C473.99 156.17 474.19 156.79 474.29 157.45C474.81 160.87 473.35 165.26 470.54 167.33C469.81 167.87 469.07 166.98 469.18 166.29C469.61 163.51 471.79 161.38 471.82 158.43C471.83 156.85 471.31 155.41 470.5 154.13C468.13 153.02 465.82 151.77 463.55 150.47C465.49 154.62 464.56 160.34 461.1 163.69C460.65 164.14 459.71 163.84 459.77 163.14C459.97 160.61 461.44 158.45 461.91 155.95C462.41 153.28 461.93 150.53 460.26 148.57C458.03 147.25 455.81 145.93 453.56 144.67C445.18 139.98 435.99 135.7 426.18 137.68C421.86 138.54 417.74 140.24 413.47 141.27C409.83 142.15 406.05 142.45 402.47 143.54C386.8 148.33 379.7 164.78 373.48 178.74C372.74 181.1 372.13 183.52 371.74 186.04C370.65 193.11 370.52 200.31 370.43 207.45C370.27 220.88 369.9 234.45 367.55 247.7C364.05 267.53 352.59 286.44 330.07 285.65C306.49 284.81 290.99 265.26 280.41 246.32C274.04 234.91 268.4 223.08 263.34 211.03C258.22 198.82 252.94 186.05 252.19 172.67C251.51 160.39 255.66 148.91 261.76 138.43C265.16 132.6 269.06 127.08 272.92 121.55C276.38 116.6 279.62 111.42 283.65 106.92C283.18 104.42 280.96 101.71 279.46 100.3C277.8 98.74 275.95 97.36 274.16 95.96C269.36 92.19 264.39 88.63 259.32 85.22C250.4 79.22 241.14 73.75 231.71 68.58C196.71 49.41 160.52 29.95 120.11 26.51C89.89 23.93 59.66 28.05 30.23 35.07C57.9 32.16 86.15 32.25 113.54 35.63C141.53 39.08 169.1 46.39 194.48 58.83C206.55 64.75 218.06 71.79 228.72 79.98C234.19 84.17 239.44 88.65 244.39 93.44C248.66 97.57 253.82 102.07 257.01 107.11C260.66 112.87 255.66 118.63 253.11 123.86C249.7 130.87 246.6 138.03 243.61 145.23C237.35 160.31 228.97 176.56 228.44 193.17C227.95 208.41 235.85 221.48 242.59 234.55C249.01 247.01 253.75 260.05 254.47 274.06C257.43 278.73 260.24 283.54 263.81 287.65C270.37 295.24 278.66 294.52 287.25 291.55C288.73 291.03 289.63 293 288.7 294.03C284.04 299.1 276.19 299.88 269.86 297.8C270.62 298.64 271.47 299.42 272.48 300.11C276.62 302.96 282.15 304.38 287.14 304.78C288.13 304.86 288.31 306.15 287.37 306.48C281.16 308.66 275.18 307.06 269.94 303.15C266.96 300.94 263.33 297.22 262.3 293.23C258.62 289.79 255.96 285.22 253.23 280.91C252.77 280.2 252.31 279.48 251.84 278.77C251.45 278.58 251.15 278.23 251.06 277.67C251.06 277.64 251.05 277.6 251.05 277.57C249.56 275.34 248.02 273.17 246.41 271.04C207.99 263.18 176.09 293.44 140.42 302.06C124.75 305.85 108.61 307.75 93.31 312.98C78.26 318.12 65.8 327.16 55.44 339.14C45.79 350.3 38.33 363.14 31.43 376.13C23.49 391.09 14.59 406.08 15.39 423.58C16.17 440.53 21.7 458.72 33.93 470.88C45.12 482 60.19 488.71 74.64 494.48C82.45 497.6 90.46 500.36 98.74 501.97C108.05 503.79 117.59 503.93 127.04 503.85C134.01 503.8 140.97 503.68 147.94 503.58C143.82 503.15 139.71 502.72 135.59 502.31C122.46 500.97 109.19 499.84 96.39 496.42C91.84 495.2 87.46 493.63 83.31 491.73C75.01 491.81 66.53 487.21 60.16 482.37C51.9 476.1 45.57 467.64 41.13 458.32C33 441.21 29.28 420.37 35.72 402.14C41.69 385.21 53.85 370.64 67.81 359.63C81.73 348.64 97.64 340.38 114.1 333.88C131.41 327.04 152.84 319.19 171.39 325.82C173.29 322.46 176.06 319.52 179.32 316.96C184.44 308.27 192.06 301.28 202.14 298.94C202.75 298.8 203.03 299.57 202.55 299.92C197.05 303.87 191.51 307.83 186.42 312.3C191.9 309.25 197.82 306.97 202.83 305.36C203.78 305.06 204.24 306.4 203.47 306.9C195.13 312.38 185.68 316.32 178.4 323.31C174.76 326.81 173.05 330.3 173.09 335.43C173.14 340.69 173.99 345.98 174.48 351.21C176.13 368.78 173.78 385.72 161.83 399.43C158.76 402.96 154.52 405.97 153.14 410.65C151.88 414.95 152.65 420.08 152.76 424.47C153.03 434.87 153.45 445.27 153.81 455.67C154 461.21 154.17 466.76 154.39 472.3C154.54 476.05 155.3 478.43 159.56 479.26C161.41 479.62 163.77 479.11 165.69 479.04C171.15 478.84 176.6 478.67 182.05 478.45C184.68 478.35 192.75 478.88 190.02 472.71C188.7 469.74 183.73 469.06 180.99 468.72C178.89 468.46 178.77 465.43 180.99 465.36C184.87 465.24 190.07 466.39 193.1 469.18C193.29 469.08 193.5 469.02 193.71 468.95C193.78 468.76 193.88 468.57 194.02 468.38C200.68 459.49 185.35 459.87 181.39 456.17C176.52 451.63 177.7 441.5 178.41 435.65C180.22 420.76 188.23 411.98 201.29 405.45C207.82 402.18 214.55 399.32 220.44 394.94C227.14 389.97 232.84 383.61 237.36 376.63C247.54 360.91 251.24 342.89 253.69 324.6C253.8 323.73 255.08 323.66 255.1 324.6C255.15 328.29 255.02 331.99 254.71 335.67C254.84 335.31 254.97 334.95 255.09 334.59C256.31 330.81 256.89 326.88 258.08 323.1C258.32 322.33 259.29 322.56 259.39 323.28C260.26 329.82 258.09 338.21 254.4 344.2C254.71 344.42 254.92 344.79 254.97 345.16C259.72 348.43 264.9 350.76 270.59 351.93C273.95 352.62 277.3 352.79 280.71 352.75C282.87 352.72 284.86 352.4 286.87 353.04C285.81 349.78 286.24 345.62 286.65 342.58C287.29 337.95 288.85 333.33 292.06 329.86C292.51 329.37 293.41 329.87 293.19 330.52C291.65 335.09 289.75 339.33 289.31 344.21C289.29 344.37 289.3 344.52 289.29 344.67C290.95 340.54 293.2 336.59 295.44 332.91C295.82 332.28 296.96 332.71 296.66 333.42C293.05 342.19 288.65 351.61 291 361.31C292.99 369.53 297.23 377.46 300.65 385.15C303.52 391.58 306.41 398.17 307.09 405.26C307.89 413.56 304.59 420.94 302.89 428.88C300.88 438.23 302.97 447.62 304.46 456.88C305.04 460.51 305.57 464.14 305.73 467.81C305.9 471.66 304.54 475.88 304.93 479.62C305.64 486.48 315.23 484.18 319.74 484.01C323.72 483.85 327.7 483.7 331.69 483.55C335.19 483.42 346.63 484.8 343.66 478.46C341.51 473.87 335.37 472.21 330.72 472.15C329.88 472.13 329.64 470.79 330.51 470.64C335.58 469.75 341.18 469.74 345.02 472.96C346.51 470.27 346.87 467.15 344.3 464.75C342.43 463.01 339.81 462.18 337.76 460.71C334.52 458.4 332.85 455.29 332.2 451.39C331.3 445.96 330.94 441.07 329 435.83C327.05 430.55 326.02 425.27 326.11 419.62C326.32 407.63 330.75 396.33 332.69 384.6C334.83 371.74 334.33 358.31 331.32 345.62C331.13 344.82 332.28 344.52 332.54 345.28C333.43 347.91 334.21 350.55 334.87 353.19C335.84 347.77 336.82 342.42 332.43 337.64C331.87 337.03 332.77 336.13 333.34 336.73C337.74 341.39 339.52 348.52 338.11 354.88C339.05 354.15 339.96 353.4 340.81 352.55C343.22 350.13 345.34 347.43 347.24 344.59C350.99 338.94 353.9 332.78 356.56 326.55C359.31 320.11 361.64 313.4 365.36 307.43C369.13 301.4 374.57 296.66 378.42 290.7C387.01 277.41 384.98 260.64 386.29 245.6C387.36 233.29 390.95 221.57 398.15 211.57C396.27 210.2 394.72 208.13 393.69 206.33C390.79 201.29 390.76 195.14 390.34 189.52C390.29 188.87 391.26 188.8 391.43 189.38C392.8 193.91 393.6 199.28 395.92 203.45C396.37 204.26 396.93 204.95 397.54 205.59C395.97 201.4 395.25 196.86 395.23 192.48C395.22 191.16 397.05 191 397.44 192.18C400.24 200.64 402.67 210.49 411.41 214.73C415.9 216.91 421.04 217.37 425.91 218.05C436.94 219.59 447.55 221.11 458.55 222.79C462.96 223.47 467.56 223.88 471.71 225.66C477.34 228.09 481.33 231.08 487.73 228.73C491.42 227.38 494.51 224.89 497.38 222.21C492.73 220.96 488.47 218.84 484.05 216.64C476.57 212.93 469.35 211.88 461.27 210.25C454.54 208.89 448.94 205.91 443.43 201.91C437.99 197.97 433.37 193.64 427.14 191.5C426.2 191.3 425.26 191.05 424.31 190.71C421.15 190.03 422.56 184.86 425.65 185.87C435.16 188.98 444.62 184.15 454.16 183.5C458.68 183.2 463.12 184.22 467.63 184.1C472.6 183.96 476.91 181.98 481.5 180.34C488.31 177.9 495.54 177.29 502.37 180.07C505.43 181.31 506.15 181.04 507.15 177.63C507.81 175.35 507.9 173.07 507.46 170.76ZM224.77 465.87C225.21 467.37 225.47 469.18 225.32 470.88C226.55 470.58 227.88 470.57 229.12 470.7C230.47 470.84 231.8 471.11 233.11 471.44C233.38 471.5 233.67 471.56 233.96 471.62C233.78 470.98 233.57 470.26 233.48 470.09C233.19 469.53 232.85 469.03 232.44 468.54C231.39 467.26 229.98 466.33 228.38 465.87C227.21 465.54 225.97 465.72 224.77 465.87ZM388.65 469.94C391 469.88 393.38 470.55 395.3 471.96C396.81 473.07 398.2 474.83 399.07 476.78C400.95 475.82 403.04 475.39 405.16 475.25C403.84 472.48 401.89 470.09 399.37 468.23C397.37 466.76 392.31 463.81 389.5 464.88C389.71 466.59 389.45 468.35 388.65 469.94ZM386.84 473.59C387.32 475.27 387.35 477.06 386.86 478.76C390 478.75 393.32 479.44 396.26 479.69C396.22 477.47 393.44 474.81 392.02 474.1C390.26 473.22 388.55 473.2 386.84 473.59ZM409.86 124.47C407.97 125.13 405.04 126.27 404.81 126.38C403.45 127.04 402.16 127.8 400.94 128.68C407.26 130.65 413.69 132.27 419.78 134.86C415.94 132.49 412.62 128.65 409.86 124.47ZM405.26 116.33C402.45 116.41 399.4 117.77 397.21 118.94C394.41 120.45 392.41 122.5 390.28 124.61C391.51 125.22 392.76 125.8 394.06 126.31C395.92 127.04 397.8 127.68 399.7 128.29C401.25 126.91 402.98 125.82 404.92 124.92C406.04 124.4 407.51 123.58 408.95 123.05C407.55 120.8 406.33 118.51 405.26 116.33ZM401.41 107.05C397.79 107.22 393.58 108.64 390.59 110.28C387.67 111.88 385.98 114.44 384.02 116.88C384.31 118.4 384.64 119.9 384.84 121.42C386.15 122.31 387.51 123.14 388.91 123.9C391.22 120.75 395.09 118.3 398.45 116.85C400.39 116.01 402.56 115.26 404.69 115.14C404.33 114.38 403.98 113.63 403.67 112.91C402.84 111.03 402.1 109.06 401.41 107.05ZM388.81 89.5C391.19 87.53 394.13 85.87 396.9 86C396.67 83.59 396.53 81.19 396.51 78.84C393.15 80.95 390.66 85.17 388.81 89.5ZM384.61 102.47C386.21 100.79 388.17 99.38 390.06 98.29C392.32 96.99 395.34 95.56 398.22 95.16C397.72 92.61 397.33 90.04 397.04 87.48C395.28 87.82 393.59 88.03 391.84 88.94C390.43 89.68 389.13 90.66 387.92 91.72C386.89 94.44 386.09 97.07 385.48 99.12C385.16 100.23 384.86 101.35 384.61 102.47ZM383.45 111.89C383.44 113.08 383.57 114.25 383.75 115.4C385.61 112.58 388.01 110.15 391.11 108.68C393.21 107.68 395.47 107.05 397.72 106.5C398.85 106.23 399.93 105.9 401 105.86C400.01 102.85 399.18 99.73 398.51 96.56C397.65 96.7 396.79 96.84 395.97 97.08C394.11 97.61 392.33 98.37 390.66 99.33C388.04 100.83 386.12 102.78 384.13 104.82C383.71 107.15 383.46 109.51 383.45 111.89ZM346.03 73.31C348.04 71.49 350.53 70.12 353.05 70.76C352.37 66.61 351.78 62.43 351.25 58.27C348.85 63.03 347.15 68.1 346.03 73.31ZM344.47 85.25C346.94 82.22 350.91 80.07 354.58 79.01C354.08 76.65 353.65 74.27 353.24 71.88C351.2 72 349.59 72.21 347.82 73.39C347.04 73.91 346.33 74.52 345.65 75.15C345.03 78.47 344.64 81.85 344.47 85.25ZM345.07 100.07C348.05 95.83 352.89 92.13 357.94 91.61C356.71 87.89 355.71 84.09 354.86 80.24C352.7 80.85 350.65 81.8 348.81 83.12C347.02 84.41 345.72 86.01 344.39 87.64C344.31 91.79 344.55 95.96 345.07 100.07ZM348.2 114.81C349.63 111.91 351.91 109.39 354.4 107.38C356.31 105.82 359.33 103.42 362.32 102.39C360.81 99.34 359.53 96.19 358.41 92.98C355.79 93.64 353.32 94.29 350.92 95.9C348.64 97.43 346.76 99.39 345.28 101.66C345.82 105.37 346.57 109.03 347.54 112.58C347.74 113.32 347.98 114.07 348.2 114.81ZM353.39 128.7C353.7 127.51 354.32 126.31 354.79 125.41C355.9 123.3 357.31 121.3 358.79 119.44C361.02 116.64 364.42 113.11 368.18 112.2C366.22 109.49 364.53 106.67 363.02 103.77C356.86 105.62 351.58 110.66 348.66 116.38C349.96 120.51 351.54 124.65 353.39 128.7ZM358.84 139.01C360.57 135.26 363.74 131.72 366.38 129.3C368.57 127.29 371.03 125.56 373.66 124.19C374.82 123.59 376.16 122.9 377.54 122.37C374.37 119.7 371.51 116.67 369 113.34C367.68 113.92 366.33 114.41 365.1 115.22C363.36 116.38 361.85 117.84 360.49 119.42C359.11 121.02 357.87 122.77 356.76 124.58C356.32 125.3 355.88 126.04 355.5 126.8C355.45 126.92 354.53 129.81 354.24 130.5C354.27 130.56 354.3 130.62 354.33 130.68C354.41 130.72 354.48 130.79 354.47 130.89C354.46 130.91 354.46 130.94 354.46 130.96C355.8 133.7 357.24 136.4 358.84 139.01ZM366.02 149.13C366.73 144.73 369.85 140.28 372.58 137.27C374.76 134.88 377.25 132.81 379.86 130.92C381.6 129.65 383.72 128.03 385.94 128.17C383.46 126.82 381.1 125.25 378.89 123.5C377.22 124.09 375.49 124.58 373.93 125.41C371.51 126.69 369.25 128.29 367.22 130.14C365.1 132.08 363.25 134.29 361.7 136.71C360.93 137.9 360.35 139.2 359.75 140.49C361.67 143.5 363.76 146.4 366.02 149.13ZM374.29 157.59C375.74 151.06 378.8 144.77 383.36 139.89C385.74 137.34 388.55 135.16 391.65 133.57C392.59 133.09 393.67 132.56 394.79 132.1C392.99 131.42 391.23 130.7 389.52 129.95C388.79 129.63 388.08 129.27 387.37 128.91C387.33 129.07 387.21 129.21 387 129.22C381.64 129.67 376.58 134.59 373.15 138.47C371.37 140.48 369.83 142.72 368.7 145.16C367.91 146.86 367.54 148.63 367.07 150.39C369.32 152.97 371.72 155.39 374.29 157.59ZM378.1 160.64C384.05 149.12 393 139.74 407.09 137.77C408.6 137.56 410.07 137.31 411.53 137.05C406.58 135.97 401.61 134.55 396.86 132.86C396.81 132.87 396.76 132.88 396.7 132.9C394.92 133.43 393.2 134.17 391.57 135.06C388.73 136.63 386.15 138.67 383.96 141.07C379.45 146 376.9 152.05 375.23 158.41C376.17 159.19 377.13 159.93 378.1 160.64ZM314.49 62.4C315.63 62.18 316.7 62.41 317.93 63.34C318.82 64.01 319.61 64.78 320.35 65.6C319.85 63.05 319.1 60.55 318.14 58.12C316.98 59.6 315.76 61.03 314.49 62.4ZM310.57 66.34C312.69 66.71 314.69 67.62 316.44 69.01C318.73 70.85 319.72 73.33 321.07 75.7C321.13 74.64 321.16 73.58 321.13 72.51C321.09 71.04 320.97 69.59 320.78 68.15C320.02 67.3 319.25 66.46 318.42 65.69C316.79 64.16 315.38 63.5 313.24 63.71C312.37 64.61 311.49 65.49 310.57 66.34ZM308.77 67.98C311.89 71.1 314.83 74.4 317.53 77.91C318.62 79.33 319.59 80.71 320.38 82.07C320.45 81.39 320.5 80.86 320.53 80.65C320.68 79.74 320.79 78.83 320.89 77.91C319.22 76.06 318.73 73.18 317.04 71.28C315.07 69.06 312.41 67.75 309.56 67.26C309.29 67.5 309.04 67.74 308.77 67.98C308.77 67.98 308.77 67.98 308.77 67.98ZM114.53 8.06C140.44 15.57 166.31 23.09 191.51 32.83C216.77 42.58 242.97 54.13 264.65 70.66C265.27 69.93 265.84 69.24 266.35 68.62C267.06 67.77 268.78 67.75 269.49 68.62C273.27 73.28 275.26 78.59 275.36 84.27C277.51 82.23 279.44 79.97 281.11 77.49C282.17 75.91 283.2 72.61 285.04 71.68C289.87 69.24 290.87 77.66 291.34 80.37C293.04 90.15 292.7 104.75 285.15 112.63C279.15 122.93 271.02 132.09 265.21 142.55C257.96 155.6 255.45 169 259.01 183.64C262.04 196.11 267.38 208.15 272.72 219.77C277.41 229.98 282.45 240.14 288.28 249.76C293.56 258.46 301.19 267.8 310.27 273.95C295.19 254.03 291.01 225.11 290.07 201.34C288.98 173.8 293.53 146 303.3 120.24C305.75 113.8 308.51 107.47 311.59 101.3C313.16 98.14 315.42 95.01 316.67 91.73C318.7 86.44 315.69 83.36 312.62 79.53C303.79 68.52 292.58 59.63 280.44 52.53C254.69 37.49 225.13 30.56 196.5 23.24C169.72 16.39 142.33 8.48 114.53 8.06ZM295.37 50.52C297.36 51.16 299.15 52.55 300.83 53.97C302.85 55.7 304.81 56.95 306.06 58.86C306.17 56.66 306.13 54.47 305.89 52.33C305.34 51.26 304.73 50.23 303.94 49.33C302.64 47.85 301.2 47.2 299.54 46.86L296.26 49.72C295.95 49.99 295.66 50.26 295.37 50.52ZM291.39 53.68C296.36 57.07 301.1 60.79 305.52 64.86C305.66 63.71 305.79 62.54 305.89 61.37C305.34 59.91 304.88 58.71 303.48 57.55C302.67 56.87 301.78 56.28 300.97 55.6C298.98 53.93 296.93 51.93 294.46 51.33C293.48 52.21 292.51 53.04 291.39 53.68ZM301.03 45.56C302.09 45.93 303.08 46.53 303.88 47.21C304.37 47.62 304.79 48.08 305.18 48.56C304.73 46.87 304.11 45.21 303.24 43.64L301.03 45.56ZM282.06 83.57C280.58 85.34 278.97 86.94 277.26 88.44C280 88.88 282.62 89.58 284.65 91.66C285.63 92.68 286.67 94.24 287.34 95.86C287.63 93.49 287.75 91.1 287.71 88.7C287.48 88.36 287.26 88.05 287.13 87.86C286.55 86.93 285.9 86.04 285.09 85.3C284.22 84.49 283.19 83.91 282.06 83.57ZM286.13 84.26C286.56 84.67 287.08 85.24 287.59 85.88C287.58 85.76 287.58 85.65 287.57 85.53C287.46 84.27 287.24 79.59 286.37 77.02C285.83 78.03 285.31 79.2 284.95 79.74C284.36 80.61 283.74 81.44 283.09 82.27C284.27 82.74 285.38 83.55 286.13 84.26ZM276.56 89.05C276 89.53 275.44 89.99 274.87 90.45C275.02 90.57 275.18 90.68 275.33 90.8C278.69 93.43 282.68 96.14 285.17 99.68C285.6 100.29 285.97 100.95 286.28 101.63C286.51 100.69 286.72 99.74 286.9 98.77C285.73 96.78 285.44 94.35 283.78 92.53C281.98 90.53 279.17 89.59 276.56 89.05ZM263.15 78.5C262.35 79.18 261.53 79.79 260.72 80.25C261.34 80.67 261.98 81.06 262.6 81.49C265.39 83.39 268.12 85.37 270.82 87.38C270.99 86.1 271.03 84.83 270.96 83.58C270 82.25 268.45 80.95 267.24 80.05C266.09 79.18 264.62 78.78 263.15 78.5ZM267.89 79.2C268.7 79.82 269.83 80.63 270.74 81.55C270.32 78.81 269.34 76.18 267.81 73.78C266.74 75.03 265.37 76.52 263.91 77.84C265.33 78 266.7 78.29 267.89 79.2ZM124.68 16.86C130.72 21.78 133.5 22.8 141.23 24.32C163.56 28.72 183.62 38.41 203.84 48.48C221.71 57.39 239.54 66.54 256.34 77.36C256.55 77.24 256.79 77.17 257.02 77.15C258.6 76.52 260.19 75.28 261.67 73.85C250.21 66.61 238.96 59.34 226.86 53.11C214.46 46.72 201.75 40.94 188.81 35.71C164.92 26.06 140.38 17.86 115.86 9.93C119.18 11.89 122.33 14.94 124.68 16.86ZM51.91 124.52C80.63 108.36 114.14 100.06 146.72 97.09C182.25 93.84 218.2 97.74 252.15 108.7C251.25 107.05 249.76 105.62 248.17 103.88C230.13 84.17 207.45 69.1 183.02 58.46C156.59 46.94 128.26 40.67 99.58 38.31C69.42 35.83 39.6 38.08 9.56 40.48C9.08 40.61 8.6 40.75 8.12 40.88C33.76 60.88 60.09 90.31 51.91 124.52ZM96.82 194.29C103.53 183.97 113.69 176.08 123.31 168.57C135.97 158.69 148.9 149.12 162.51 140.58C176.12 132.04 190.44 124.58 205.49 118.92C213.51 115.9 221.74 113.42 230.12 111.6C233.5 110.87 237.05 110.11 240.63 109.57C210.73 101.28 179.47 98.32 148.51 100.8C114.4 103.53 82.5 113.63 51.37 127.22C67.69 128.91 82.9 138 91.55 152.13C99.29 164.78 100.83 180.27 96.82 194.29ZM185.12 176.75C203.35 152.9 224.69 129.86 249.71 112.85C243.28 114.01 236.73 114.57 230.34 116C222.91 117.67 215.6 119.86 208.44 122.48C193.4 127.99 179.14 135.44 165.55 143.9C151.96 152.36 139.03 161.84 126.41 171.68C115.35 180.3 104.42 189.05 97.72 201.5C122.01 203.16 142.24 221.13 147.08 244.61C153.14 219.47 169.87 196.71 185.12 176.75ZM248.99 266.22C247.97 261.48 246.72 256.78 245.11 252.21C242.28 244.2 238.16 236.8 234.23 229.29C227.53 216.47 222.06 203.44 223.95 188.67C225.81 174.18 232.52 160.58 238.16 147.27C241.27 139.92 244.46 132.6 247.79 125.35C249.28 122.1 251.32 118.8 252.45 115.41C252.65 114.83 252.79 114.28 252.88 113.77C241.78 123.16 230.28 131.97 219.8 142.14C208.21 153.38 197.92 165.68 188.2 178.55C179.35 190.28 170.73 202.26 163.63 215.16C157.43 226.42 153.21 237.89 150.3 250.12C172.05 234.24 202.86 232 226.16 245.86C235.28 249.92 243.48 259.18 248.99 266.22ZM58.04 471.2C57.26 471.62 56.45 471.92 55.61 472.15C57.81 474.6 60.22 476.86 62.86 478.86C64.57 480.16 66.32 481.26 68.11 482.22C64.31 479.02 60.93 475.35 58.04 471.2ZM51.05 462.23C50.25 462.55 49.41 462.66 48.56 462.62C50.43 465.7 52.54 468.65 54.9 471.36C55.75 471.06 56.57 470.69 57.35 470.23C55.53 467.49 53.93 464.55 52.56 461.4C52.06 461.76 51.5 462.05 51.05 462.23ZM37.34 428.6C37.74 433.05 38.58 437.48 39.75 441.81C42.4 442.45 44.99 441.14 47.55 439.72C47.35 435.74 47.52 431.73 48.05 427.78C46.41 428.86 44.55 429.62 42.63 429.85C40.52 430.1 38.96 429.41 37.34 428.6ZM42.37 428.58C44.58 428.33 46.4 427.19 48.29 426.18C48.82 422.92 49.58 419.7 50.61 416.56C46.27 417.53 40.77 417.41 37.51 414.93C37 419.1 36.95 423.35 37.27 427.59C38.9 428.24 40.52 428.79 42.37 428.58ZM40.05 442.89C41.06 446.41 42.31 449.85 43.74 453.18C44.8 452.84 45.85 452.49 46.87 452.06C47.63 451.75 48.38 451.38 49.15 451.08C48.39 447.85 47.89 444.56 47.65 441.25C45.54 442.95 42.59 443.6 40.05 442.89ZM44.22 454.3C44.84 455.69 45.49 457.06 46.18 458.39C46.75 459.51 47.37 460.6 48 461.69C48.94 461.71 49.88 461.5 50.77 461.07C51.24 460.84 51.63 460.48 52.02 460.13C51.9 459.82 51.76 459.53 51.64 459.22C50.76 456.95 50.03 454.62 49.43 452.25C48.8 452.59 48.12 452.86 47.47 453.13C46.4 453.58 45.32 453.95 44.22 454.3ZM55.07 406.23C52.26 406.94 49.13 406.53 46.31 405.68C44.53 405.14 41.96 404.31 40.35 402.89C40.29 403.05 40.22 403.21 40.17 403.37C39 406.66 38.19 410.05 37.68 413.49C39.85 415.18 42.91 415.71 45.58 415.65C47.51 415.61 49.37 415.11 51.23 414.74C52.29 411.82 53.56 408.96 55.07 406.23ZM60.24 398.43C56.84 398.4 52.94 397.46 50.4 395.36C48.62 393.89 47.39 391.98 46.46 389.91C44.33 393.53 42.5 397.32 40.96 401.28C42.59 403.05 45.25 403.85 47.58 404.48C50.33 405.22 53.35 405.5 56.02 404.59C56.21 404.27 56.39 403.93 56.59 403.61C57.71 401.81 58.94 400.1 60.24 398.43ZM66.91 390.97C63.96 390.26 61.17 388.62 59.5 386.16C57.78 383.61 56.38 380.28 55.7 377C52.55 380.68 49.7 384.59 47.19 388.7C48.08 390.78 49.23 392.72 50.99 394.22C53.99 396.77 57.64 396.25 61.11 397.28C62.91 395.06 64.85 392.95 66.91 390.97ZM76.36 383.33C73.41 382.93 70.55 381.07 68.4 378.88C66.29 376.74 63.74 373.02 62.9 369.42C60.7 371.52 58.59 373.71 56.59 375.99C57.27 378.97 58.52 381.94 60 384.47C61.85 387.64 64.84 389.01 68.13 389.81C70.71 387.45 73.46 385.29 76.36 383.33ZM86.62 377.5C80.18 373 78.13 363.84 79.56 356.07C74.21 359.68 69.11 363.66 64.39 368C64.54 368.73 64.68 369.45 64.9 370.15C65.54 372.16 66.52 374.07 67.76 375.77C70.11 378.98 74.17 382.3 78.27 382.07C80.96 380.37 83.75 378.84 86.62 377.5ZM99.75 372.77C96.14 370.37 94.19 365.5 93.38 361.39C92.51 356.97 92.09 351.86 93.76 347.56C89.43 349.86 85.16 352.37 81.03 355.08C80.48 359.09 80.14 363.01 81.26 367.05C82.46 371.4 84.99 374.36 88.42 376.69C92.09 375.09 95.88 373.76 99.75 372.77ZM110.91 370.75C106.59 366.75 105.47 358.83 105.93 353.5C106.28 349.42 107.29 344.34 109.46 340.21C104.88 342.09 100.28 344.2 95.74 346.53C92.28 354.93 93.91 367.3 101.76 372.27C102.75 372.05 103.74 371.83 104.74 371.64C106.77 371.26 108.83 370.96 110.91 370.75ZM121.39 370.4C118.22 365.78 117.66 358.94 117.74 353.74C117.84 347.56 119.3 341.03 122.23 335.44C118.84 336.6 115.48 337.81 112.15 339.12C111.76 339.28 111.36 339.44 110.96 339.6C110.25 341.14 109.7 342.78 109.19 344.28C108.08 347.57 107.31 350.99 107.18 354.46C107.07 357.66 107.48 360.88 108.59 363.9C109.52 366.46 111.15 368.39 112.58 370.6C115.51 370.36 118.45 370.28 121.39 370.4ZM131.6 371.68C128.14 363.94 128.26 353.91 130.44 345.99C131.97 340.43 134.67 334.94 138.48 330.49C138.21 330.56 137.93 330.62 137.66 330.7C133.21 331.89 128.79 333.22 124.4 334.68C121.53 340.11 119.59 345.74 119.23 352.04C119.03 355.51 119.27 359.01 119.98 362.42C120.55 365.11 121.32 368.17 122.96 370.5C125.87 370.7 128.77 371.07 131.6 371.68ZM143.39 376.12C142.32 372.47 141.87 368.48 141.45 364.86C140.85 359.64 140.74 354.33 141.44 349.11C142.04 344.61 143.21 340.2 145.01 336.03C146.05 333.61 147.35 330.81 149.05 328.49C146.22 328.8 143.41 329.31 140.62 329.96C136.65 334.82 133.44 340.11 131.76 346.35C130.62 350.59 130.18 355 130.44 359.39C130.7 363.87 132 367.82 133.23 372.05C133.76 372.18 134.28 372.32 134.8 372.46C137.83 373.31 140.66 374.62 143.39 376.12ZM151.76 381.12C150.76 372.07 153.64 362.21 156.52 353.99C159.57 345.29 163.5 336.3 168.88 328.68C164.21 328.82 159.52 328.1 154.85 328.13C153.63 328.14 152.43 328.2 151.22 328.29C150.39 329.45 149.49 330.58 148.76 331.8C147.62 333.71 146.64 335.71 145.82 337.77C144.2 341.83 143.18 346.14 142.69 350.49C142.16 355.27 142.22 360.08 142.75 364.86C143.2 368.96 144.39 372.98 145.03 377.04C147.29 378.36 149.52 379.76 151.76 381.12ZM159.66 377.87C160.53 374.13 161.66 370.44 162.92 366.81C164.14 363.29 165.51 359.83 167.04 356.43C167.88 354.56 168.71 352.54 169.72 350.64C169.31 345.84 168.83 341.03 168.72 336.22C168.66 333.93 169.02 331.8 169.66 329.78C165.2 337.76 160.89 345.6 157.87 354.36C156.18 359.25 154.72 364.26 153.88 369.38C153.15 373.76 153.16 377.91 153.54 382.19C155.17 383.14 156.83 384.05 158.53 384.85C158.57 382.47 159.17 379.96 159.66 377.87ZM164.33 387.02C167.27 381.56 169.21 375.57 169.92 369.4C170.54 364.06 170.34 358.73 169.94 353.4C169.38 354.48 168.83 355.55 168.34 356.64C166.8 360.08 165.41 363.59 164.19 367.16C163 370.64 161.94 374.18 161.1 377.76C160.49 380.39 160.42 382.99 160.22 385.6C161.55 386.16 162.92 386.65 164.33 387.02ZM202.58 477.31C201.99 475.36 200.44 473.65 198.69 472.82C197.55 472.28 196.34 472.14 195.12 472.1C195.58 473.33 195.7 474.74 195.38 476.35C197.74 476.18 200.35 476.63 202.58 477.31ZM209.94 474.9C209.72 472.13 208.56 469.17 207.02 467.11C205.25 464.72 202.55 464.69 199.88 464.6C199.89 466.09 199.57 467.61 198.9 469C199.68 469.22 200.43 469.51 201.09 469.87C203.5 471.15 205.01 473.1 205.92 475.37C207.03 474.75 208.52 474.66 209.94 474.9ZM218.39 411.49C214.98 410.52 211.72 409.15 209.04 407.08C203.41 409.8 197.64 412.41 192.78 416.37C191.93 417.06 191.15 417.81 190.42 418.58C192.7 423.79 192.46 431.1 192.35 436.35C192.23 441.97 192.21 449.48 189.74 454.87C192 455.39 194.27 455.82 196.19 457.23C197.69 458.33 198.72 459.79 199.31 461.4C202.66 460.59 206.78 461.66 209.11 463.9C211.12 465.83 212.65 468.71 213.49 471.71C215.85 471.56 218.18 471.92 220.54 471.81C222.99 466.89 218.39 462 214.03 460.27C211.58 459.29 208.89 458.7 206.84 456.94C202.78 453.48 204.08 448.91 204.86 444.37C204.97 443.74 206.02 443.89 205.98 444.53C205.75 448.24 206.46 452.49 209.85 454.63C211.95 455.96 214.7 456.28 216.96 457.26C218.78 458.04 220.37 459.15 221.68 460.53C222.13 458.92 223.15 457.63 223.12 455.61C223.07 452.82 222.22 452.91 220.18 451.57C219.27 450.97 218.33 450.43 217.48 449.73C214.25 447.06 212.12 443.22 211.16 439.18C208.85 429.44 213 419.58 218.39 411.49ZM223.59 408.18C227.93 403.29 230.59 397.24 231.75 390.8C226.42 396.49 220.13 401.38 212.85 405.18C216.45 406.18 219.97 407.28 223.59 408.18ZM237.3 410.35C242.28 403.05 244.63 393.84 246.34 385.32C247.34 380.29 248.01 375.21 248.34 370.09C248.48 367.9 248.49 365.72 248.48 363.54C244.92 372.91 239.9 381.61 233.34 389.06C232.81 396.41 229.57 403.1 224.71 408.45C226.79 408.95 228.89 409.38 231.06 409.67C233.14 409.95 235.22 410.17 237.3 410.35ZM246.71 410.91C253.75 404.1 255.02 393.94 256.72 384.64C257.82 378.63 258.72 372.59 259.42 366.53C259.92 362.23 260.16 357.88 260.66 353.57C257.88 352.38 255.22 350.91 252.72 349.17C251.99 352.55 251.08 355.89 250.02 359.16C250.64 367.79 249.44 376.9 247.8 385.2C246.07 394 243.64 403 238.54 410.47C241.26 410.69 243.99 410.83 246.71 410.91ZM267.48 397C267.57 391.98 267.89 386.97 268.44 381.98C269.34 373.78 270.45 364.84 273.21 356.89C272.43 356.79 271.7 356.68 271.02 356.58C267.88 356.1 264.84 355.25 261.92 354.1C261.8 359.27 261.08 364.5 260.45 369.59C259.72 375.43 258.81 381.25 257.72 387.04C256.3 394.6 255.06 405.21 248.99 410.94C251.23 410.97 253.47 410.95 255.71 410.88C259.71 410.75 263.74 410.48 267.76 410.05C267.48 408.25 267.57 406.32 267.52 404.54C267.45 402.02 267.44 399.51 267.48 397ZM284.47 407.07C284.44 406.97 284.4 406.88 284.37 406.78C283.65 404.51 283.46 401.93 283.14 399.57C282.46 394.42 282.14 389.23 282.2 384.03C282.27 378.94 282.71 373.86 283.5 368.82C284.19 364.46 284.86 359.59 286.59 355.43C283.44 357.54 278.6 357.49 274.51 357.05C273.69 360.96 272.61 364.84 271.86 368.76C270.93 373.63 270.23 378.54 269.74 383.48C269.28 388.14 269.03 392.82 268.97 397.51C268.94 400.02 268.96 402.53 269.05 405.04C269.1 406.63 269.32 408.27 269.29 409.88C274.41 409.27 279.5 408.37 284.47 407.07ZM294.46 403.79C293.25 400.13 292.86 396.26 292.92 392.41C292.97 388.79 293.19 384.84 293.99 381.17C293.72 380.52 293.45 379.87 293.18 379.22C290.64 372.88 287.58 366.26 286.88 359.38C286.3 361.85 285.63 364.3 285.2 366.78C284.45 371.2 283.99 375.66 283.78 380.14C283.59 384.36 283.64 388.58 283.95 392.79C284.13 395.31 284.4 397.83 284.76 400.33C284.97 401.78 285.04 405.02 285.97 406.66C288.85 405.85 291.69 404.89 294.46 403.79ZM301.36 400.65C299.99 394.75 297.41 389.12 295 383.54C294.68 386.18 294.34 388.81 294.29 391.48C294.2 395.53 294.68 399.4 295.84 403.21C297.71 402.43 299.56 401.59 301.36 400.65ZM357.59 483.02C357.5 480.54 354.72 477.93 352.71 477.26C351.11 476.73 349.59 476.84 348.07 477.1C348.89 478.92 349.2 480.71 349.01 482.28C351.83 482 354.91 482.36 357.59 483.02ZM373.77 379.64C369.42 382.71 364.82 385.43 360.07 387.86C356.03 389.92 351.9 391.8 347.73 393.56C346.44 394.1 345.13 394.56 343.82 394.97C345.48 398.66 345.74 403.18 346.02 407.09C346.44 412.95 346.31 418.84 346.15 424.71C345.79 437.07 347.84 449.37 347.52 461.66C347.52 461.69 347.51 461.73 347.51 461.76C348.7 462.87 349.67 464.17 350.25 465.87C359.29 462.83 366.24 472.21 368.92 480.1C369.06 480.53 369.05 480.94 368.93 481.3C370.54 481.26 372.14 481.25 373.75 481.23C375.85 481.19 378.27 481.35 380.2 480.41C383.87 478.63 384 474.49 381.37 471.8C378.75 469.13 374.47 470.24 372.06 467.51C370.42 465.66 370.98 463.06 371.37 460.88C371.54 459.87 373.21 460.11 373.14 461.12C372.83 465.78 380.45 466.46 384.02 469.19C386.71 464.63 383.27 462.75 380 459.84C377.96 458.03 377.11 456.02 376.75 453.34C376.14 448.74 376.27 444.18 375.37 439.56C374.65 435.83 373.89 432.13 373.67 428.33C373.21 420.22 375.02 412.47 377.11 404.7C378.48 399.6 379.83 394.37 378.46 389.11C377.56 385.64 375.84 382.52 373.77 379.64ZM359.26 471.46C356.44 468.88 353.89 469.33 350.81 469.64C350.76 471.05 350.44 472.43 349.84 473.69C351.72 473.63 353.64 474.04 355.22 474.8C357.08 475.7 358.65 478.53 360.44 480.12C361.21 480.81 362.03 481.27 362.93 481.24C369.31 481.01 360.86 472.93 359.26 471.46ZM334.26 397.74C332.33 405.91 330.3 414.08 330.7 422.46C331.05 429.62 334.6 435.51 335.75 442.42C336.86 449 335.93 454.37 342.4 458.23C342.62 458.36 342.84 458.49 343.06 458.62C341.63 448.49 341.5 437.77 341.77 427.66C341.92 421.78 342.31 415.89 342.22 410C342.15 405.36 341.02 400.5 340.92 395.82C338.7 396.43 336.47 397.01 334.26 397.74ZM339.99 392.98C339.79 389.91 339.85 386.95 339.03 383.86C338.56 382.1 338.01 380.35 337.4 378.63C337.3 380.47 337.14 382.34 336.91 384.21C336.42 388.09 335.6 391.94 334.71 395.79C336.5 394.91 338.24 393.94 339.99 392.98ZM346.15 389.81C347.99 389 349.81 388.17 351.62 387.31C351.74 384.79 352.17 382.29 352.05 379.73C351.89 376.55 351.34 373.4 350.42 370.37C348.85 365.18 346.17 361.07 343.14 356.86C341.15 358.83 338.96 360.61 336.58 361.71C337.3 366.48 337.62 371.29 337.5 376.18C338.74 378.84 339.84 381.54 340.57 384.42C341.15 386.75 341.76 389.54 341.6 392.1C343.09 391.3 344.6 390.51 346.15 389.81ZM353.44 386.45C355.51 385.45 357.55 384.42 359.57 383.32C361.8 382.1 363.89 380.89 365.87 379.65C365.93 378.27 366.17 376.89 366.18 375.51C366.2 373.58 366.05 371.64 365.73 369.73C365.15 366.21 363.99 362.77 362.29 359.63C359.58 354.61 355.61 350.46 350.84 347.41C349.97 348.69 349.07 349.94 348.11 351.16C346.93 352.65 345.59 354.28 344.12 355.85C347.8 359.71 350.32 365.06 351.83 369.98C353.3 374.76 354.49 381.19 353.44 386.45ZM380.7 367.76C380.29 365.1 379.86 362.48 378.94 359.86C377.66 356.19 375.86 352.71 373.64 349.53C369.45 343.53 363.85 339.04 357.44 335.7C355.67 339.38 353.73 342.99 351.5 346.4C356.7 349.64 361.01 354.18 363.84 359.67C365.61 363.13 366.77 366.88 367.29 370.73C367.61 373.13 367.9 376 367.52 378.59C372.25 375.48 376.44 372.11 380.7 367.76ZM389.41 357.21C388.44 354.13 387.79 351.04 386.24 348.05C384.41 344.52 382.06 341.28 379.35 338.38C374.37 333.04 368.28 328.94 361.91 325.44C360.67 328.45 359.44 331.47 358.06 334.41C358.01 334.52 357.96 334.62 357.91 334.73C364.51 337.53 370.15 342.46 374.36 348.22C377.99 353.18 381.26 359.75 382.19 366.2C384.86 363.33 387.26 360.33 389.41 357.21ZM398.74 339.47C398.35 338.54 397.98 337.6 397.46 336.71C396.55 335.13 395.44 333.67 394.23 332.31C391.75 329.52 388.81 327.15 385.76 325.01C379.81 320.83 373.21 317.59 366.32 315.3C364.88 318.26 363.61 321.3 362.36 324.35C369.31 328.03 375.9 332.49 381.17 338.38C383.79 341.32 386.08 344.59 387.82 348.13C388.89 350.29 390.04 352.83 390.63 355.36C393.89 350.34 396.57 345.03 398.74 339.47ZM404.14 321.07C400.55 316.49 396.42 313.39 390.97 311.01C384.94 308.37 378.46 306.2 371.86 306.46C369.99 308.91 368.24 311.46 366.81 314.3C374.4 316.62 381.52 320.15 387.95 324.88C390.99 327.12 393.9 329.59 396.29 332.54C397.41 333.92 398.64 335.58 399.53 337.35C401.45 332.1 402.96 326.65 404.14 321.07ZM406.38 308.1C402.69 304.63 398.59 301.76 393.87 299.78C391.32 298.71 388.67 297.91 385.96 297.39C383.91 297 381.69 297.1 379.6 296.84C377.34 299.75 374.95 302.48 372.71 305.33C379.07 304.89 385.51 307.2 391.29 309.68C396.04 311.71 401.57 314.63 404.54 319.15C404.78 317.9 405.02 316.64 405.24 315.37C405.65 312.95 406.02 310.53 406.38 308.1ZM407.8 297.82C406.38 296.82 405.03 295.71 403.51 294.85C401.25 293.57 398.86 292.55 396.43 291.66C392.63 290.28 388.7 289.24 384.76 288.32C383.69 290.67 382.4 292.94 380.86 295.14C382.59 295.2 384.4 295.58 385.95 295.87C388.87 296.4 391.71 297.26 394.44 298.42C398.93 300.31 403.15 303.05 406.61 306.51C407.03 303.62 407.41 300.72 407.8 297.82ZM409.85 283.09C402.49 282.83 394.79 280.92 388.2 277.54C387.51 280.88 386.55 284.15 385.22 287.3C389.67 288.27 394.11 289.3 398.36 290.96C401.44 292.16 405.25 293.72 408.04 296.02C408.61 291.7 409.19 287.39 409.85 283.09ZM411.64 272.87C407.09 272.54 402.58 271.57 398.38 269.75C395.91 268.68 392.17 266.9 389.8 264.5C389.56 268.55 389.16 272.56 388.41 276.48C395.49 279.22 402.46 280.97 410.08 281.71C410.55 278.75 411.06 275.8 411.64 272.87ZM415.03 259.28C410.23 260.33 404.93 258.92 400.34 257.5C396.73 256.38 392.54 254.52 390.26 251.3C390.21 252.92 390.16 254.55 390.12 256.17C390.06 258.38 390 260.59 389.89 262.79C391.16 264.21 392.99 265.33 394.44 266.24C396.44 267.49 398.58 268.51 400.79 269.31C404.39 270.6 408.13 271.29 411.92 271.56C412.78 267.43 413.79 263.33 415.03 259.28ZM418.25 250.26C416.33 250.98 414.06 250.83 412.02 250.55C408.35 250.03 404.58 249.13 401.12 247.79C397.01 246.19 393.26 243.53 391.12 239.86C390.67 243.24 390.45 246.66 390.31 250.08C393.81 253.06 397.06 255.19 401.66 256.46C404.05 257.12 406.5 257.6 408.95 257.99C410.16 258.19 411.37 258.42 412.6 258.32C413.62 258.24 414.52 257.98 415.48 257.86C415.59 257.52 415.69 257.17 415.8 256.83C416.52 254.66 417.34 252.46 418.25 250.26ZM425.82 235.94C420.37 239.1 413.96 240.25 407.69 238.88C404.41 238.17 401.25 236.76 398.49 234.84C396.73 233.6 394.53 231.96 393.2 230.02C392.96 230.8 392.74 231.59 392.53 232.39C392.06 234.21 391.7 236.04 391.4 237.87C393.48 242.51 398.34 245.53 403.19 247.09C408.38 248.76 413.75 250.01 419 248.47C420.89 244.15 423.15 239.88 425.82 235.94ZM430.98 229.35C425.55 230.45 419.32 229.18 414.51 227.18C408.6 224.71 403.59 220.68 399.4 215.9C397.15 219.86 395.22 223.97 393.76 228.29C395.65 229.93 397.13 232.06 399.25 233.55C401.79 235.33 404.68 236.64 407.7 237.35C414.54 238.96 421.81 237.38 427.59 233.46C427.6 233.45 427.62 233.45 427.63 233.44C428.7 232.03 429.8 230.65 430.98 229.35ZM435.92 224.66C430.32 223.92 424.7 223.2 419.13 222.27C414.3 221.46 409.49 220.18 405.59 217.08C404.1 215.89 402.79 214.53 401.65 213.05C401.47 213.03 401.31 213 401.13 212.96C400.71 213.65 400.3 214.33 399.9 215.02C403.82 219.2 408.3 222.93 413.53 225.34C416.9 226.9 420.52 227.9 424.22 228.18C427.2 228.41 429.97 227.94 432.83 227.45C433.82 226.47 434.85 225.53 435.92 224.66ZM491.12 214.94C493.07 215.83 495.05 216.65 497.09 217.27C497.1 217.15 497.12 217.03 497.15 216.91C498.24 213 499.25 209.16 499.55 205.2C497.08 208.75 494.45 212.42 491.12 214.94ZM482.17 210.69C484.05 211.52 485.9 212.43 487.76 213.34C487.56 211 487.38 208.64 486.86 206.36C486.32 204.04 486.67 204.64 485.5 206.49C484.5 208.07 483.45 209.47 482.17 210.69ZM470.34 207.44C472.41 207.79 474.47 208.21 476.51 208.75C476.08 207.79 475.65 206.83 475.29 205.85C474.78 204.45 474.44 202.87 473.54 201.73C473.13 202.76 472.69 203.77 472.18 204.76C471.65 205.76 471 206.6 470.34 207.44ZM460.19 188.74C458.07 188.61 455.96 188.53 453.83 188.66C454.7 190.65 455.38 192.63 455.87 194.74C457.53 192.9 458.95 190.92 460.19 188.74ZM470.22 188.82C469.08 188.97 467.93 189.06 466.73 189.06C466.03 189.05 465.33 189.03 464.63 189C465.6 190.88 466.6 192.74 467.61 194.59C468.54 192.69 469.4 190.77 470.22 188.82ZM484.12 184.68C483.13 184.99 482.14 185.34 481.14 185.72C479.49 186.34 477.87 186.93 476.24 187.44C476.86 189.02 477.48 190.6 478.13 192.16C478.75 193.65 479.59 194.9 480.42 196.28C481.14 194.07 482.64 191.44 482.64 189.09C483.13 187.61 483.62 186.15 484.12 184.68ZM499.56 184.34C498.79 184.03 498.04 183.76 497.34 183.6C494.81 183.05 492.37 183.02 489.97 183.33C491.67 187.2 492.61 191.21 493.22 195.37C495.69 191.87 497.71 188.23 499.56 184.34ZM225.5 461.84C227.11 461.79 228.76 462.06 229.82 462.38C232.97 463.33 235.48 465.56 236.97 468.44C238.23 467.81 239.56 467.54 240.96 467.61C241.26 460.6 234.72 456.18 228.04 457.18C227.59 458.85 226.63 460.51 225.5 461.84ZM187.66 422.08C183.99 427.67 182.57 434.5 182.44 441.38C182.36 445.9 182.23 451.1 186.03 453.53C186.26 451.16 186.95 448.86 187.36 446.48C187.97 442.8 188.33 439.09 188.44 435.37C188.57 431.12 187.73 426.49 187.66 422.08Z" />
	</g>
	<g id="Layer">
	</g>
	<g id="Layer">
	</g>
	<g id="Layer">
	</g>
	<g id="Layer">
	</g>
	<g id="Layer">
	</g>
	<g id="Layer">
	</g>
	<g id="Layer">
	</g>
	<g id="Layer">
	</g>
	<g id="Layer">
	</g>
	<g id="Layer">
	</g>
	<g id="Layer">
	</g>
	<g id="Layer">
	</g>
	<g id="Layer">
	</g>
	<g id="Layer">
	</g>
	<g id="Layer">
	</g>
</svg>