<?xml version="1.0" encoding="iso-8859-1"?>
<!-- Generator: Adobe Illustrator 19.0.0, SVG Export Plug-In . SVG Version: 6.00 Build 0)  -->
<svg version="1.1" id="Capa_1" xmlns="http://www.w3.org/2000/svg" xmlns:xlink="http://www.w3.org/1999/xlink" x="0px" y="0px"
	 viewBox="0 0 512 512" style="enable-background:new 0 0 512 512;" xml:space="preserve">
<g>
	<path style="fill:#FFFFFF;" d="M435.8,161.965l-1.853-0.807l-0.346,1.036c-0.326,0.98-0.686,1.178-1.032,1.247
		c-0.061,0.012-0.117,0.019-0.168,0.019c-0.091,0-0.28,0-0.553-0.354c-0.176-0.226-0.205-0.462-0.123-1.047
		c0.021-0.19,0.065-0.393,0.124-0.572l0.333-0.999l-1.014-0.281c-1.268-0.352-2.46-0.523-3.646-0.523
		c-0.401,0-0.81,0.02-1.223,0.062l-0.999,0.102l0.105,0.999c0.043,0.41,0.092,0.875,0.251,1.33c0.449,1.263,1.166,2.386,2.069,3.246
		c1.353,1.303,3.105,2.02,4.932,2.02c0.983,0,1.962-0.202,2.903-0.597c1.382-0.571,2.21-1.458,2.94-2.316l0.9-1.059l-1.29-0.518
		C437.338,162.641,436.568,162.302,435.8,161.965z"/>
	<path style="fill:#FFFFFF;" d="M497.544,182.623c-1.497-0.326-3.043-0.491-4.597-0.491c-1.007,0-2.052,0.069-3.105,0.206
		l-1.32,0.171l0.533,1.221c1.47,3.365,2.479,7.107,3.177,11.777l0.368,2.46l1.438-2.031c2.319-3.276,4.361-6.825,6.427-11.169
		l0.456-0.959l-0.985-0.398C498.956,183.018,498.221,182.775,497.544,182.623z"/>
	<path style="fill:#FFFFFF;" d="M490.518,214.143l-1.336,1.011l1.524,0.696c2.348,1.072,4.284,1.827,6.094,2.377l1.188,0.361
		l0.101-1.236c0.005-0.065,0.017-0.13,0.026-0.172c1.101-3.949,2.115-7.831,2.434-11.9l0.287-3.675l-2.105,3.025
		C496.078,208.441,493.63,211.788,490.518,214.143z"/>
	<path style="fill:#FFFFFF;" d="M487.835,206.133l-0.154-0.685c-0.182-0.822-0.354-1.599-1.235-1.599
		c-0.683,0-0.956,0.55-1.176,0.992c-0.137,0.275-0.324,0.653-0.613,1.114c-1.101,1.739-2.079,2.975-3.172,4.008l-1.094,1.034
		l1.376,0.607c1.771,0.782,3.559,1.657,5.286,2.502l1.854,0.908l-0.187-2.182C488.534,210.628,488.34,208.349,487.835,206.133z"/>
	<path style="fill:#FFFFFF;" d="M481.372,196.589c0.207-0.638,0.487-1.322,0.784-2.047c0.675-1.647,1.437-3.507,1.482-5.294
		c0.473-1.418,0.946-2.828,1.429-4.247l0.633-1.859l-1.875,0.581c-0.974,0.302-1.969,0.649-3.036,1.059
		c-1.533,0.576-3.182,1.181-4.847,1.701l-1.024,0.321l0.393,0.999c0.622,1.586,1.245,3.173,1.897,4.739
		c0.528,1.27,1.212,2.383,1.873,3.459l0.483,0.792l1.129,1.877L481.372,196.589z"/>
	<path style="fill:#FFFFFF;" d="M476.231,205.508c-0.121-0.332-0.232-0.675-0.343-1.019c-0.379-1.169-0.772-2.377-1.561-3.378
		l-1.073-1.359l-0.641,1.608c-0.463,1.16-0.884,2.093-1.329,2.939c-0.459,0.884-1.03,1.634-1.729,2.523l-1.04,1.324l1.659,0.28
		c2.37,0.401,4.298,0.811,6.065,1.29l2.014,0.545l-0.977-2.233C476.914,207.202,476.539,206.347,476.231,205.508z"/>
	<path style="fill:#FFFFFF;" d="M471.817,187.601l-1.727,0.228c-1.181,0.156-2.279,0.231-3.344,0.231
		c-0.69-0.01-1.382-0.03-2.072-0.059l-1.722-0.073l0.79,1.531c0.857,1.66,1.807,3.443,2.991,5.611l0.932,1.704l0.847-1.747
		c0.937-1.935,1.821-3.892,2.631-5.819L471.817,187.601z"/>
	<path style="fill:#FFFFFF;" d="M456.116,187.594c-0.828,0-1.595,0.022-2.347,0.068l-1.428,0.087l0.573,1.311
		c0.876,2.003,1.524,3.935,1.982,5.905l0.433,1.866l1.283-1.422c1.712-1.897,3.163-3.918,4.439-6.179l0.784-1.391l-1.594-0.099
		C458.581,187.64,457.309,187.594,456.116,187.594z"/>
</g>
<g>
	<path style="fill:#FD4456;" d="M498.324,159.094c-2.998-1.023-6.128-1.158-9.154-1.288c-1.77-0.076-3.599-0.155-5.345-0.416
		c-0.802-0.117-1.646-0.273-2.581-0.477l-2.136-0.466l1.044,1.921c0.526,0.969,0.828,1.994,0.923,3.136
		c0.254,3.04-0.677,6.204-2.387,8.134c0.111-1.021,0.434-1.999,0.772-3.03c0.295-0.898,0.6-1.828,0.775-2.827
		c0.492-2.838-0.129-5.22-1.955-7.497l-0.189-0.235l-0.288-0.092c-1.34-0.426-2.539-0.855-3.667-1.313l-2.137-0.869l0.827,2.153
		c0.238,0.62,0.386,1.152,0.466,1.675c0.485,3.136-0.873,6.899-3.117,8.737c0.184-1.054,0.665-2.039,1.174-3.081
		c0.712-1.457,1.448-2.963,1.461-4.822c0.011-1.648-0.484-3.277-1.475-4.842l-0.156-0.247l-0.265-0.124
		c-2.07-0.969-4.255-2.12-6.877-3.622l-2.74-1.57l0.335,0.717c-0.19-0.29-0.397-0.568-0.622-0.831l-0.108-0.125l-0.648-0.383
		c-2.027-1.2-4.125-2.442-6.216-3.613c-7.065-3.954-14.724-7.613-22.859-7.613c-1.758,0-3.51,0.174-5.204,0.516
		c-2.451,0.489-4.855,1.248-7.181,1.982c-1.817,0.574-3.697,1.167-5.56,1.616c-1.508,0.365-3.084,0.635-4.607,0.896
		c-2.128,0.365-4.328,0.742-6.459,1.39c-15.84,4.842-22.982,20.883-29.283,35.036l-0.341,0.765l-0.017,0.053
		c-0.817,2.571-1.397,5.008-1.775,7.449c-1.144,7.346-1.238,14.893-1.322,21.551c-0.164,13.008-0.522,26.819-2.864,40.089
		c-1.538,8.714-8.618,37.147-35.142,37.147c-0.434,0-0.875-0.008-1.318-0.023c-18.645-0.664-34.614-13.361-48.822-38.819
		c-6.024-10.773-11.751-22.612-17.021-35.188c-4.844-11.551-10.333-24.643-11.073-38.029c-0.604-10.73,2.479-21.746,9.426-33.68
		c3.173-5.441,6.853-10.711,10.413-15.806l0.702-1.005c0.798-1.14,1.583-2.293,2.369-3.446c2.57-3.771,5.229-7.672,8.296-11.088
		l0.33-0.368l-0.092-0.486c-0.498-2.634-2.734-5.505-4.498-7.164c-1.389-1.305-2.906-2.486-4.374-3.629l-0.983-0.769
		c-4.549-3.565-9.422-7.092-14.898-10.782c-8.125-5.465-17.185-10.923-27.698-16.688c-33.089-18.124-70.594-38.665-111.985-42.19
		c-6.052-0.516-12.313-0.778-18.611-0.778c-21.758,0-45.177,3.062-71.596,9.362l0.336,1.967c13.121-1.38,26.408-2.08,39.491-2.08
		c14.743,0,29.41,0.887,43.593,2.638c29.682,3.659,56.807,11.433,80.621,23.105c12.247,6.006,23.714,13.087,34.082,21.045
		c5.581,4.283,10.82,8.787,15.574,13.386c0.683,0.659,1.389,1.328,2.105,2.007c3.811,3.612,7.751,7.347,10.373,11.478
		c2.596,4.106,0.263,8.202-2.206,12.539c-0.607,1.066-1.235,2.168-1.758,3.239c-2.969,6.105-5.906,12.712-9.524,21.424
		c-1.048,2.525-2.155,5.083-3.275,7.669c-5.665,13.081-11.523,26.608-11.97,40.622c-0.445,13.851,5.903,25.935,12.042,37.622
		c0.745,1.418,1.488,2.833,2.219,4.249c7.406,14.375,11.146,26.8,11.77,39.103l0.014,0.263c0,0,1.1,1.745,1.578,2.508
		c2.435,3.892,4.953,7.916,7.991,11.422c3.694,4.269,8.147,6.343,13.613,6.343c3.152,0,6.721-0.708,10.907-2.161
		c0.056-0.02,0.106-0.029,0.15-0.029c0.167,0,0.265,0.182,0.299,0.26c0.083,0.189,0.097,0.456-0.061,0.627
		c-2.678,2.919-6.729,4.527-11.408,4.527c-2.143,0-4.35-0.353-6.383-1.021l-3.634-1.194l2.584,2.82
		c0.91,0.993,1.824,1.798,2.791,2.458c4.916,3.376,11.009,4.45,14.564,4.791c-1.567,0.486-3.157,0.732-4.735,0.732
		c-3.78,0-7.55-1.382-11.204-4.109c-1.405-1.047-6.083-4.817-7.27-9.37l-0.073-0.28l-0.211-0.198
		c-3.155-2.959-5.594-6.845-7.951-10.604l-0.955-1.516c-0.33-0.529-0.672-1.053-1.012-1.575l-0.53-0.816l-0.256-0.122
		c-0.096-0.045-0.188-0.118-0.221-0.341l-0.009-0.062v-0.207l-0.168-0.252c-1.496-2.244-3.069-4.454-4.675-6.57l-0.228-0.3
		l-0.369-0.075c-4.255-0.871-8.634-1.313-13.015-1.313c-19.666,0-38.047,8.822-55.821,17.354
		c-12.176,5.844-24.766,11.887-37.59,14.986c-5.652,1.368-11.474,2.51-17.104,3.614c-9.964,1.954-20.267,3.974-30.095,7.332
		c-14.527,4.962-27.415,13.862-38.304,26.452c-10.02,11.589-17.518,24.716-24.126,37.175c-0.622,1.171-1.25,2.341-1.879,3.514
		c-7.393,13.784-15.036,28.038-14.277,44.452c0.896,19.481,7.762,36.963,18.834,47.963c11.511,11.438,27.217,18.292,41.035,23.819
		c9.531,3.803,17.02,6.129,24.279,7.543c8.63,1.685,17.52,1.913,25.077,1.913c1.144,0,2.288-0.006,3.431-0.014
		c5.426-0.039,10.852-0.121,16.281-0.202l4.616-0.068l0.09-1.995c-4.11-0.43-8.231-0.86-12.343-1.28l-3.562-0.359
		c-11.763-1.181-23.925-2.401-35.491-5.492c-4.47-1.198-8.814-2.757-12.913-4.633l-0.203-0.093l-0.427,0.003
		c-8.953,0-17.84-5.737-22.34-9.157c-7.646-5.811-14.121-14.001-18.723-23.683c-9.092-19.135-11.053-39.333-5.38-55.418
		c6.859-19.453,21.061-33.608,31.766-42.058c12.67-9.995,27.729-18.371,46.038-25.605c13.444-5.313,27.73-10.499,41.581-10.499
		c5.41,0,10.459,0.825,15.005,2.45l0.793,0.284l0.414-0.733c1.708-3.02,4.295-5.902,7.688-8.565l0.149-0.117l0.096-0.163
		c3.573-6.084,9.838-13.729,19.742-16.894c-4.798,3.45-9.677,7.034-14.174,10.975l1.146,1.625c4.34-2.419,9.411-4.599,15.061-6.487
		c-2.495,1.589-5.111,3.08-7.65,4.526c-5.742,3.27-11.68,6.651-16.601,11.375c-3.988,3.823-5.668,7.664-5.618,12.84
		c0.028,3.71,0.457,7.465,0.871,11.097c0.183,1.597,0.364,3.191,0.514,4.779c1.923,20.475-2.017,35.559-12.399,47.47
		c-0.813,0.934-1.698,1.82-2.637,2.759c-2.548,2.547-5.182,5.181-6.258,8.824c-1.017,3.442-0.792,7.246-0.575,10.924
		c0.065,1.1,0.129,2.178,0.154,3.215c0.199,7.645,0.478,15.413,0.747,22.926c0.1,2.758,0.198,5.516,0.294,8.272l0.146,4.33
		c0.139,4.107,0.278,8.213,0.434,12.316c0.138,3.436,0.713,6.876,5.979,7.892c0.504,0.098,1.061,0.146,1.7,0.146
		c0.91,0,1.846-0.097,2.751-0.19c0.663-0.068,1.313-0.136,1.915-0.158l4.711-0.161c3.882-0.131,7.765-0.262,11.651-0.419
		c0.237-0.009,0.52-0.012,0.835-0.017c2.448-0.032,6.546-0.087,8.078-2.475c0.778-1.213,0.753-2.778-0.076-4.651
		c-1.567-3.555-7.143-4.246-9.821-4.579c-0.61-0.076-0.752-0.558-0.739-0.83c0.016-0.349,0.227-0.525,0.647-0.538
		c0.171-0.005,0.346-0.008,0.521-0.008c3.231,0,8.02,0.931,10.881,3.555l0.485,0.445l0.6-0.27c0.121-0.054,0.247-0.092,0.374-0.133
		l0.608-0.201l0.167-0.451c0.048-0.131,0.094-0.218,0.172-0.317c1.649-2.205,2.19-4.083,1.654-5.745
		c-0.928-2.877-4.808-4.095-8.56-5.274c-2.329-0.732-4.737-1.488-5.844-2.522c-4.542-4.234-3.323-14.274-2.668-19.668
		c1.634-13.444,8.521-22.52,22.335-29.426c1.35-0.676,2.709-1.335,4.066-1.993c5.152-2.498,10.479-5.081,15.232-8.608
		c6.477-4.812,12.411-11.233,17.163-18.57c9.642-14.903,13.484-31.796,15.87-48.132c-0.054,2.174-0.173,4.363-0.356,6.545
		l1.937,0.424c0.133-0.368,0.266-0.735,0.392-1.113c0.641-1.987,1.111-4.026,1.566-5.999c0.292-1.263,0.59-2.555,0.933-3.829
		c0.309,5.848-1.611,13.102-5.003,18.606l-0.51,0.828l0.813,0.533c0.055,0.036,0.121,0.137,0.137,0.253l0.058,0.441l0.366,0.253
		c5.005,3.445,10.384,5.775,15.986,6.926c2.811,0.577,5.799,0.846,9.405,0.846c0.309,0,0.618-0.002,0.93-0.005
		c0.523-0.007,1.036-0.031,1.541-0.055c0.557-0.026,1.104-0.052,1.646-0.052c1.075,0,1.895,0.108,2.658,0.35l1.854,0.588
		l-0.602-1.851c-0.973-2.989-0.607-6.922-0.181-10.014c0.607-4.391,1.949-8.011,3.999-10.792c-0.143,0.398-0.286,0.794-0.429,1.19
		c-1.254,3.468-2.551,7.054-2.909,11.034c-0.006,0.101-0.007,0.198-0.007,0.294c0,0.054,0.001,0.108-0.003,0.161l1.926,0.438
		c1.042-2.592,2.318-5.102,3.622-7.432c-3.132,7.663-5.844,15.58-3.821,23.935c1.561,6.452,4.479,12.702,7.302,18.747
		c0.823,1.764,1.641,3.516,2.417,5.254c2.662,5.977,5.681,12.751,6.357,19.809c0.553,5.734-0.903,10.975-2.444,16.522
		c-0.612,2.202-1.244,4.479-1.738,6.783c-1.798,8.372-0.389,16.771,0.975,24.893c0.195,1.163,0.391,2.325,0.576,3.484
		c0.521,3.256,1.093,7.046,1.268,10.816c0.076,1.716-0.179,3.587-0.426,5.395c-0.292,2.148-0.595,4.368-0.381,6.474
		c0.598,5.773,6.577,5.792,8.574,5.792c0.007,0,0.013,0,0.02,0c1.626,0,3.28-0.161,4.741-0.303c0.929-0.09,1.806-0.176,2.52-0.203
		c3.794-0.152,7.589-0.295,11.384-0.439l0.553-0.021c0.168-0.006,0.354-0.009,0.559-0.009c0.429,0,0.928,0.011,1.473,0.022
		c0.673,0.015,1.415,0.03,2.185,0.03c3.525,0,7.317-0.295,8.711-2.487c0.699-1.099,0.673-2.468-0.078-4.072
		c-1.998-4.244-6.923-6.213-11.534-6.744c0.995-0.107,1.942-0.161,2.833-0.161c3.587,0,6.448,0.874,8.503,2.596l0.927,0.777
		l0.589-1.057c1.999-3.585,1.667-7.021-0.909-9.427c-1.184-1.107-2.61-1.855-3.989-2.579c-0.952-0.5-1.852-0.972-2.654-1.545
		c-2.864-2.042-4.499-4.797-5.144-8.669c-0.208-1.254-0.387-2.478-0.563-3.684c-0.597-4.082-1.159-7.937-2.686-12.06
		c-1.996-5.389-2.921-10.571-2.827-15.845c0.13-7.429,1.945-14.759,3.701-21.847c1.052-4.243,2.138-8.63,2.865-13.027
		c1.724-10.404,1.745-21.274,0.094-31.844c0.044,0.171,0.087,0.342,0.13,0.513l1.969-0.149c0.539-3.015,1.087-6.086,0.701-9.089
		c1.09,3.323,1.322,6.998,0.553,10.47l-0.6,2.705l2.19-1.699c0.794-0.617,1.829-1.448,2.794-2.413
		c2.326-2.326,4.471-4.98,6.557-8.113c4.028-6.055,7.021-12.599,9.416-18.203c0.64-1.504,1.258-3.023,1.877-4.543
		c1.988-4.883,4.043-9.932,6.852-14.439c1.894-3.029,4.28-5.799,6.59-8.478c2.236-2.596,4.55-5.279,6.462-8.24
		c6.673-10.324,7.073-22.626,7.461-34.524c0.119-3.661,0.242-7.446,0.556-11.042c1.135-13.05,5.066-24.329,11.685-33.522
		l0.581-0.807l-0.804-0.586c-2.025-1.475-3.496-3.728-4.192-4.939c-1.998-3.478-2.567-7.576-2.887-11.685
		c0.843,3.372,1.731,6.84,3.378,9.792c0.453,0.809,1.037,1.576,1.784,2.347l1.654-1.047c-1.445-3.847-2.226-8.261-2.257-12.765
		l-1,0.007l1.1-0.086c0.125,0,0.148,0.072,0.161,0.112c0.26,0.782,0.517,1.575,0.774,2.376c2.534,7.84,5.405,16.726,13.719,20.758
		c4.078,1.98,8.605,2.583,12.983,3.165c0.608,0.081,1.214,0.161,1.815,0.245c12.943,1.807,23.002,3.269,32.616,4.738
		c0.76,0.117,1.524,0.226,2.291,0.335c3.597,0.513,7.316,1.042,10.626,2.465c0.951,0.41,1.854,0.835,2.73,1.248
		c3.007,1.415,5.846,2.753,9.184,2.753c1.592,0,3.18-0.298,4.855-0.911c4.019-1.47,7.299-4.226,9.978-6.728l1.316-1.229
		l-1.738-0.468c-4.524-1.219-8.686-3.286-13.145-5.5c-6.573-3.264-12.98-4.512-19.765-5.834c-1.07-0.208-2.154-0.419-3.253-0.641
		c-5.938-1.2-11.32-3.72-17.451-8.17c-1.237-0.896-2.432-1.813-3.613-2.719c-4.104-3.149-7.982-6.124-12.949-7.827l-0.056-0.02
		l-0.058-0.012c-0.991-0.213-1.872-0.46-2.694-0.754l-0.063-0.023l-0.064-0.014c-1.007-0.217-1.022-1.107-0.983-1.479
		c0.078-0.733,0.572-1.513,1.334-1.513c0.146,0,0.305,0.027,0.469,0.081c2.23,0.729,4.566,1.084,7.142,1.084
		c4.047,0,8.104-0.894,12.028-1.757c3.193-0.703,6.496-1.43,9.717-1.649c0.561-0.038,1.122-0.054,1.682-0.054
		c1.778,0,3.6,0.165,5.36,0.325c1.806,0.164,3.673,0.333,5.542,0.333c0.282,0,0.565-0.004,0.846-0.012
		c4.264-0.111,8.103-1.548,11.815-2.937c0.783-0.293,1.57-0.587,2.366-0.872c3.786-1.359,7.475-2.047,10.964-2.047
		c3.225,0,6.318,0.593,9.191,1.762c1.109,0.451,2.013,0.751,2.817,0.751c2.008,0,2.707-1.814,3.301-3.839
		c0.687-2.376,0.795-4.844,0.321-7.336C507.402,165.191,503.623,160.9,498.324,159.094z M422.818,168.369
		c-0.787-1.602-1.026-3.18-0.722-4.795c0.025,2.193,0.731,4.335,2.006,5.914c1.165,1.445,2.723,2.529,4.229,3.577
		c0.013,0.009,0.025,0.018,0.038,0.026C425.895,172.288,423.928,170.635,422.818,168.369z M449.979,160.711
		c-0.359,1.368-1.305,2.348-2.81,2.914c-1.154,0.435-2.301,0.646-3.506,0.646c-0.153,0-0.306-0.003-0.457-0.01l-1.356-0.059
		l0.346,1.313c0.714,2.712-0.282,6.199-2.781,7.562c1.358-2.2,2.023-4.267,2.078-6.43l0.066-2.663l-1.803,1.961
		c-1.748,1.901-4.913,2.896-7.136,2.896c-0.348,0-0.677-0.023-0.982-0.069c-3.658-0.54-6.719-3.635-7.277-7.359l-0.175-1.164
		l-1.121,0.361l-0.648,0.217l-0.008,0.036l-1.388,0.536c-1.726,0.667-3.704,1.378-5.336,1.378c-1.621,0-2.655-0.679-3.355-2.202
		c-2.199-4.79,3.912-10.259,7.515-11.992c0.041-0.02,0.077-0.03,0.104-0.03c0.051,0,0.094,0.038,0.115,0.061
		c0.049,0.053,0.062,0.108-0.01,0.165c-0.061,0.037-6.185,3.673-6.273,7.692c-0.042,2.025,0.288,3.324,1.039,4.091
		c0.455,0.464,1.056,0.709,1.739,0.709c1.071,0,2.155-0.58,3.111-1.092c0.405-0.217,0.91-0.487,1.11-0.524
		c1.183-0.217,2.225-0.509,3.233-0.791c1.626-0.456,3.03-0.85,4.681-0.85c0.571,0,1.135,0.047,1.725,0.145
		c1.883,0.308,3.228,1.066,4.785,1.945c0.873,0.493,1.776,1.002,2.828,1.456c1.236,0.536,3.585,1.112,5.822,1.112
		c0.958,0,1.784-0.111,2.457-0.33c3.444-1.129,3.477-4.053,2.926-6.533C450.06,157.479,450.356,159.279,449.979,160.711z
		 M460.852,162.505c0.184-1.002,0.564-1.977,0.961-2.998c0.415-1.067,0.845-2.17,1.072-3.374c0.345-1.845,0.253-3.639-0.242-5.225
		C464.359,154.598,463.579,159.458,460.852,162.505z M493.591,170.529c-0.379,0.488-1.022,0.792-1.678,0.792
		c-0.186,0-0.368-0.024-0.539-0.072c-0.713-0.203-1.353-0.703-1.67-1.305c-0.246-0.467-0.288-0.95-0.126-1.432
		c0.247-0.73,0.883-1.201,1.619-1.201h0.023c0.313,0,0.605,0.104,0.845,0.301l0.176,0.145l0.222,0.054
		c0.678,0.166,1.228,0.707,1.399,1.377C494.02,169.804,493.802,170.257,493.591,170.529z M494.84,163.884
		c1.149,0.092,2.011,0.397,2.787,0.97c0.287,0.212,0.717,0.578,1.025,1.049C497.734,164.742,496.318,164.177,494.84,163.884z"/>
	<path style="fill:#FD4456;" d="M381.917,460.168c-0.411-0.347-0.832-0.702-1.252-1.076c-1.732-1.536-2.578-3.24-2.923-5.886
		c-0.258-1.909-0.385-3.86-0.508-5.747c-0.172-2.635-0.351-5.359-0.882-8.088l-0.167-0.863c-0.647-3.341-1.317-6.795-1.517-10.234
		c-0.46-8.117,1.432-15.968,3.408-23.314c1.319-4.913,2.815-10.48,1.352-16.111c-0.837-3.217-2.423-6.42-4.847-9.792l-0.578-0.805
		l-0.81,0.572c-4.104,2.896-8.672,5.636-13.577,8.146c-3.744,1.909-7.759,3.763-12.271,5.668c-1.155,0.483-2.406,0.935-3.823,1.378
		l-1.075,0.336l0.462,1.028c1.519,3.376,1.816,7.582,2.079,11.293l0.035,0.488c0.418,5.828,0.3,11.612,0.128,17.519
		c-0.183,6.287,0.258,12.635,0.684,18.773c0.412,5.932,0.838,12.065,0.689,18.094l-0.135,0.545l0.434,0.401
		c1.217,1.126,2.005,2.301,2.482,3.699l0.321,0.942l0.943-0.317c1.055-0.354,2.115-0.534,3.151-0.534
		c6.529,0,11.863,7.101,14.249,14.125c0.066,0.206,0.071,0.398,0.013,0.574l-0.451,1.352l1.424-0.036
		c0.967-0.024,1.93-0.037,2.894-0.05l1.917-0.029c0.306-0.004,0.618-0.005,0.936-0.005c1.915-0.002,4.086-0.004,5.938-0.906
		c1.897-0.925,3.121-2.476,3.449-4.365c0.35-2.019-0.399-4.203-2.004-5.845c-1.496-1.525-3.44-1.98-5.154-2.38
		c-1.6-0.374-3.111-0.728-4.122-1.873c-1.101-1.242-0.935-3.015-0.636-4.8c0.416,3.092,3.846,4.503,6.905,5.763
		c1.588,0.654,3.229,1.33,4.335,2.175l0.896,0.685l0.573-0.971C387.651,465.003,384.736,462.545,381.917,460.168z"/>
	<path style="fill:#FD4456;" d="M312.486,101.745c0.6-1.207,1.294-2.395,2.028-3.651c1.131-1.935,2.301-3.936,3.09-6.005
		c2.087-5.437-0.64-8.794-3.526-12.347l-0.677-0.837c-8.275-10.318-19.195-19.482-32.456-27.238
		c-24.209-14.14-51.883-21.176-78.644-27.981l-5.552-1.414c-2.856-0.73-5.719-1.473-8.588-2.216
		c-23.923-6.204-48.66-12.619-73.615-12.996l-0.293,1.96c25.271,7.324,51.401,14.898,76.897,24.743
		c23.496,9.069,50.528,20.639,72.884,37.692l0.754,0.576l0.614-0.723c0.622-0.732,1.204-1.424,1.72-2.041
		c0.143-0.173,0.468-0.289,0.81-0.289c0.337,0,0.643,0.11,0.783,0.283c3.649,4.49,5.55,9.546,5.646,15.027l0.04,2.272l1.648-1.564
		c2.243-2.129,4.226-4.463,5.893-6.938c0.362-0.541,0.702-1.225,1.062-1.948c0.674-1.356,1.513-3.044,2.488-3.537
		c0.434-0.219,0.828-0.331,1.174-0.331c2.329,0,3.243,5.583,3.587,7.684l0.103,0.616c1.712,9.844,1.186,23.973-5.926,31.396
		l-0.083,0.086l-0.06,0.103c-2.831,4.861-6.213,9.567-9.482,14.118c-3.636,5.06-7.395,10.292-10.468,15.819
		c-7.706,13.87-9.766,27.55-6.298,41.822c3.02,12.417,8.238,24.257,13.772,36.301c5.582,12.162,10.544,21.724,15.614,30.091
		c3.612,5.958,11.31,17.065,22.284,24.5l1.357-1.432c-12.006-15.853-18.734-40.093-19.997-72.046
		c-1.077-27.236,3.475-55.144,13.165-80.705C306.699,114.119,309.476,107.777,312.486,101.745z"/>
	<path style="fill:#FD4456;" d="M221.645,451.296c-0.273-0.162-0.578-0.342-0.907-0.557c-0.281-0.189-0.566-0.37-0.85-0.551
		c-0.63-0.401-1.225-0.78-1.771-1.23c-2.902-2.39-5.027-5.944-5.983-10.009c-1.888-7.958,0.497-17.011,7.089-26.905l0.758-1.137
		l-1.314-0.378c-3.778-1.087-6.727-2.474-9.015-4.241l-0.489-0.378l-2.079,1.002c-5.123,2.46-10.421,5.004-14.933,8.681
		c-0.851,0.69-1.655,1.444-2.461,2.303l-0.45,0.481l0.265,0.604c2.115,4.824,1.967,11.748,1.857,16.804l-0.029,1.424
		c-0.109,5.486-0.246,12.313-2.501,17.245l-0.511,1.116l1.743,0.399c2.024,0.459,3.936,0.893,5.535,2.067
		c1.269,0.93,2.223,2.21,2.761,3.703l0.304,0.843l0.871-0.21c0.665-0.16,1.378-0.242,2.12-0.242c2.573,0,5.165,0.955,6.762,2.489
		c1.776,1.714,3.271,4.396,4.102,7.36l0.219,0.779l0.808-0.051c0.398-0.025,0.796-0.035,1.192-0.035
		c0.794,0,1.584,0.039,2.373,0.078c0.82,0.04,1.64,0.08,2.461,0.08c0.335,0,0.671-0.006,1.007-0.022l0.585-0.027l0.263-0.524
		c0.952-1.905,1.047-3.984,0.272-6.012c-1.096-2.87-3.96-5.58-7.296-6.904c-0.636-0.254-1.288-0.483-1.941-0.712
		c-1.844-0.647-3.586-1.258-4.98-2.449c-2.469-2.109-2.687-4.659-2.321-7.559c0.43,2.621,1.579,5.227,4.156,6.854
		c1.378,0.873,2.957,1.332,4.484,1.777c0.984,0.287,1.915,0.557,2.768,0.927c1.682,0.721,3.158,1.744,4.388,3.04l1.216,1.281
		l0.474-1.702c0.136-0.489,0.338-0.96,0.552-1.458c0.443-1.033,0.945-2.204,0.915-3.747
		C224.062,452.855,223.232,452.236,221.645,451.296z"/>
</g>
<g>
	<path style="fill:#FFB55F;" d="M419.287,221.284c-4.265-0.716-9.152-1.869-13.072-4.985c-1.378-1.1-2.647-2.398-3.772-3.859
		l-0.259-0.337l-0.423-0.047c-0.14-0.015-0.271-0.038-0.401-0.069l-0.706-0.167l-0.378,0.62c-0.357,0.586-0.702,1.166-1.044,1.75
		l-0.006-0.007l-0.209,0.368l-0.353,0.611l0.004,0.004l-0.136,0.239c-2.409,4.239-4.256,8.291-5.651,12.379l-0.026-0.038
		l-0.61,1.979c-0.244,0.793-0.468,1.597-0.682,2.414c-0.377,1.453-0.707,3.025-1.009,4.763l-0.04-0.068l-0.385,2.893
		c-0.339,2.546-0.573,5.256-0.741,8.611l-0.019-0.027l-0.108,2.952c-0.06,1.624-0.1,3.248-0.141,4.879
		c-0.06,2.204-0.129,4.398-0.229,6.602l-0.019,0.408l0.005,0.006l-0.075,1.273c-0.267,4.495-0.716,8.376-1.374,11.863l-0.092,0.487
		l-0.115,0.556c-0.723,3.497-1.679,6.628-2.922,9.573l-0.106,0.253l-0.017-0.004l-0.338,0.75c-1.042,2.311-2.322,4.551-3.806,6.655
		l-0.856,1.215l-0.016-0.002l-0.349,0.448c-1.195,1.532-2.443,3.044-3.65,4.506c-1.093,1.323-2.18,2.641-3.236,3.98l-1.398,1.772
		l0.071-0.005c-1.985,2.654-3.497,5.021-4.681,7.372l-0.533,1.059l0.014,0.004c-1.47,3.027-2.764,6.134-3.962,9.057l-0.022,0.055
		h-0.001l-0.701,1.704c-1.125,2.731-2.287,5.556-3.562,8.268c0,0-0.126,0.249-0.159,0.32l-0.113,0.25l-0.337,0.7
		c-1.918,3.986-3.841,7.45-5.878,10.589l-0.555,0.854l0,0l-0.094,0.138c-0.852,1.253-1.757,2.497-2.687,3.691
		c-1.015,1.281-2.38,2.965-3.937,4.628l-0.454,0.484l-0.501,0.5c-2.203,2.193-4.256,3.715-6.275,4.652l-0.68,0.315l0.111,0.741
		c0.72,4.766,1.025,9.576,0.909,14.296l-0.006,0.234l0.1,0.213c0.296,0.636,0.565,1.239,0.82,1.827l-1.011,0.146
		c-0.105,1.932-0.267,3.733-0.494,5.511c-0.487,3.933-1.332,7.841-2.173,11.478l-0.474,2.051l1.89-0.929
		c1.601-0.787,3.179-1.654,4.706-2.494l1.172-0.643l-0.001-0.009l1.044-0.561c1.414-0.759,2.924-1.558,4.485-2.248
		c1.846-0.823,3.671-1.655,5.487-2.508l0.022-0.011l-0.002,0.011l1.811-0.875c2.291-1.107,4.311-2.139,6.174-3.153
		c2.202-1.205,4.212-2.375,6.142-3.572l-0.004,0.028l1.871-1.228c4.968-3.259,9.212-6.744,13.355-10.965l0.08-0.082l0.005,0.033
		l1.424-1.53c2.635-2.832,5.076-5.872,7.26-9.034l0.006,0.027l1.279-1.97c3.207-4.938,5.966-10.34,8.2-16.054l0.007,0.013
		l0.794-2.17c1.809-4.946,3.294-10.186,4.547-15.983l0.017,0.025l0.478-2.389c0.252-1.261,0.493-2.531,0.705-3.805
		c0.409-2.358,0.768-4.706,1.097-6.915l0.001,0.001l0.04-0.272c0.005-0.036,0.011-0.073,0.016-0.109l0.077-0.518l-0.003-0.002
		l0.156-1.073c0.341-2.345,0.655-4.697,0.971-7.051l0.302-2.251l-0.011-0.008l0.308-2.29c0.52-3.876,1.058-7.885,1.669-11.811
		l0.07-0.448l0.012,0.001l0.147-0.93c0.564-3.557,1.044-6.271,1.553-8.799l0.09-0.446l0.01,0.001l0.179-0.858
		c0.925-4.438,1.935-8.426,3.088-12.191l0.245-0.799l0.006-0.001l0.195-0.607l0.316-1.021c0.711-2.145,1.527-4.332,2.425-6.503
		l0.56-1.354l0.182-0.417c1.982-4.532,4.247-8.694,6.732-12.371l-0.783-0.839c0.762-0.414,1.512-0.851,2.233-1.337l0.196-0.103
		l0.135-0.18c1.162-1.544,2.238-2.859,3.292-4.019l1.471-1.619l0.118-0.02l0.224-0.222c1.039-1.028,2.025-1.919,3.018-2.725
		l1.801-1.463l-3.934-0.52C429.447,222.798,424.307,222.121,419.287,221.284z"/>
	<path style="fill:#FFB55F;" d="M420.306,134.008c-3.29-2.025-6.523-5.416-9.61-10.08l-0.332-0.502l-0.563-0.904
		c-1.228-1.973-2.419-4.143-3.642-6.632l-0.16-0.327l-0.403-0.851c-0.357-0.753-0.703-1.505-1.018-2.214
		c-0.74-1.688-1.467-3.576-2.22-5.772l-0.244-0.71h-0.008l-0.154-0.469c-0.963-2.925-1.791-6.019-2.462-9.194l-0.11-0.483
		l-0.177-0.902c-0.481-2.456-0.874-5.013-1.168-7.601l-0.037-0.329h0.01l-0.11-1.145c-0.236-2.466-0.366-4.843-0.386-7.063
		l-0.016-1.791l-1.517,0.953c-3.077,1.933-5.723,5.569-8.088,11.115l0.864,0.645c-0.483,0.369-0.976,0.762-1.493,1.216l-0.188,0.164
		l-0.089,0.234c-0.99,2.616-1.769,5.136-2.465,7.477c-0.356,1.234-0.648,2.347-0.893,3.401l-0.827,3.55l0.195-0.203
		c-0.35,2.186-0.535,4.259-0.543,6.291c-0.009,1.087,0.09,2.254,0.311,3.672l0.399,2.554l0.055-0.083
		c0.022,0.114,0.043,0.218,0.058,0.29c0.223,1.112,0.434,2.163,0.575,3.235l0.059,0.445l0.371,0.252
		c1.346,0.915,2.744,1.766,4.155,2.532l0.156,0.085l-0.003,0.002l0.094,0.047l0.52,0.282l0.011-0.015l0.619,0.313
		c1.39,0.701,2.654,1.273,3.864,1.747c1.476,0.579,3.108,1.155,5.052,1.789l-0.013,0.01l1.034,0.322l0.173,0.056l0.001-0.001
		l0.701,0.219c1.669,0.52,3.345,1.016,5.021,1.511c4.568,1.352,9.292,2.749,13.726,4.634L420.306,134.008z"/>
	<path style="fill:#FFB55F;" d="M374.593,159.18c0.023,0.019,0.046,0.037,0.069,0.056l0.233,0.2l0.003-0.011
		c0.872,0.714,1.732,1.384,2.616,2.025l0.941,0.683l0.534-1.033c6.889-13.338,16.126-20.645,28.239-22.339
		c1.621-0.225,3.173-0.493,4.479-0.726l0.037-1.961c-4.942-1.078-9.836-2.479-14.546-4.164l-0.317-0.142l-0.07,0.028l-1.667-0.63
		c-1.746-0.66-3.503-1.376-5.222-2.13c-0.713-0.313-1.406-0.665-2.1-1.017l-1.117-0.566l-0.204,0.815
		c-0.126,0.015-0.254,0.041-0.381,0.061l0.299-1.036c-2.398-1.305-4.723-2.845-6.908-4.576l-0.342-0.27l-0.993-0.839
		c-3.063-2.587-5.859-5.543-8.317-8.783l0.005-0.001l-0.873-1.207c-1.82-2.516-3.482-5.233-5.084-8.306l-0.324-0.622l-0.366-0.74
		c-1.408-2.843-2.672-5.884-3.862-9.296l-0.302-0.864h-0.001l-0.162-0.491c-1.143-3.456-2.142-7.143-3.053-11.271l-0.228-1.035
		l-0.01,0.003l-0.04-0.19c-0.539-2.543-0.995-5.125-1.333-7.091l-0.139-0.807l-0.05-0.306c-0.629-3.838-1.216-7.912-1.795-12.454
		l-0.412-3.232l-1.473,2.907c-2.329,4.6-4.113,9.741-5.305,15.282l-0.652,3.035l0.082-0.074c-0.51,2.983-0.857,6.049-1.012,9.139
		l-0.151,3.044l0.07-0.086c-0.051,4.004,0.175,8.051,0.689,12.04l0.159,1.232l-0.001,0.001l0.007,0.051l0.164,1.275l0.029-0.041
		c0.54,3.481,1.253,6.887,2.138,10.127c0.138,0.511,0.295,1.028,0.451,1.543l0.564,1.892l-0.007,0.014l0.123,0.391
		c0.015,0.047,0.032,0.093,0.046,0.139l0.215,0.723l0.015-0.03c1.278,3.947,2.783,7.848,4.498,11.603l1.167,2.557l0.017-0.067
		c1.372,2.811,2.821,5.478,4.311,7.924l0.977,1.602l0.01-0.021c2.004,3.135,4.119,6.048,6.289,8.658l0.719,0.865
		c0,0.002-0.003,0.012-0.003,0.012l0.285,0.327l0.409,0.493l0.005-0.031c2.247,2.542,4.586,4.871,6.963,6.913l0.477,0.41
		l-0.004,0.015L374.593,159.18z"/>
</g>
<g>
	<path style="fill:#FF7D5B;" d="M399.964,467.424c-1.91-1.404-5.974-3.779-9.095-3.779c-0.634,0-1.212,0.098-1.721,0.29
		l-0.735,0.277l0.096,0.779c0.193,1.584-0.066,3.139-0.751,4.5l-0.75,1.492l1.934-0.046c2.112,0,4.161,0.65,5.767,1.83
		c1.376,1.011,2.666,2.665,3.45,4.422l0.43,0.962l0.939-0.479c1.583-0.808,3.447-1.273,5.701-1.422l1.471-0.098l-0.635-1.331
		C404.652,471.859,402.601,469.371,399.964,467.424z"/>
	<path style="fill:#FF7D5B;" d="M392.468,473.206c-1.151-0.576-2.329-0.855-3.6-0.855c-0.722,0-1.46,0.09-2.255,0.276l-1.024,0.239
		l0.291,1.011c0.44,1.531,0.447,3.124,0.021,4.606l-0.302,1.277h1.329c1.907,0,3.916,0.268,5.857,0.528
		c1.177,0.157,2.289,0.306,3.381,0.399l1.1,0.094l-0.015-1.104C397.214,476.979,394.117,474.03,392.468,473.206z"/>
	<path style="fill:#FF7D5B;" d="M359.936,470.722c-2.25-2.06-4.371-2.323-5.967-2.323c-0.893,0-1.776,0.092-2.713,0.19l-1.414,0.143
		l-0.03,0.873c-0.047,1.304-0.341,2.538-0.875,3.668l-0.703,1.489l1.645-0.061c0.127-0.005,0.254-0.007,0.38-0.007
		c1.568,0,3.177,0.358,4.527,1.007c0.925,0.448,1.892,1.633,2.826,2.779c0.684,0.838,1.391,1.705,2.157,2.39
		c1.044,0.923,2.052,1.373,3.08,1.373l0.118-0.002c1.703-0.061,2.768-0.64,3.166-1.718
		C367.117,477.853,362.674,473.237,359.936,470.722z"/>
	<path style="fill:#FF7D5B;" d="M353.025,476.311c-0.868-0.288-1.764-0.427-2.738-0.427c-0.706,0-1.464,0.074-2.385,0.231
		l-1.271,0.218l0.526,1.177c0.733,1.637,1.03,3.245,0.859,4.65l-0.149,1.239l1.241-0.123c0.607-0.06,1.249-0.091,1.908-0.091
		c2.001,0,4.191,0.279,6.334,0.807l1.286,0.317l-0.048-1.324C358.481,479.963,355.276,477.062,353.025,476.311z"/>
</g>
<g>
	<path style="fill:#FFB55F;" d="M321.851,68.758l0.194,0.215l-0.714-3.569c-0.518-2.592-1.278-5.167-2.261-7.652l-0.638-1.614
		l-1.076,1.362c-1.22,1.542-2.397,2.923-3.599,4.22l-0.952,1.028l-0.028,0.003l-0.255,0.264c-0.998,1.032-1.834,1.855-2.63,2.591
		l-0.803,0.742l-0.178,0.152c-0.163,0.139-0.319,0.285-0.477,0.431c-0.107,0.101-0.216,0.202-0.327,0.301l-0.795,0.705l0.751,0.751
		c3.196,3.196,6.115,6.504,8.675,9.832c1.172,1.527,2.081,2.853,2.778,4.053l1.543,2.656l0.373-3.618
		c0.039-0.386,0.068-0.677,0.085-0.798c0.106-0.643,0.19-1.276,0.259-1.854l0.103,0.181l0.19-3.382
		c0.07-1.239,0.089-2.279,0.061-3.274C322.098,71.263,321.995,70.013,321.851,68.758z"/>
	<path style="fill:#FFB55F;" d="M306.864,52.036l-0.084-0.163c-0.438-0.851-1.048-1.932-1.876-2.937l1.243-0.633
		c-0.505-1.898-1.169-3.581-2.03-5.146l-0.598-1.085l-4.441,3.859l0.004,0.001l-3.479,3.033c0,0-0.748,0.668-0.897,0.798
		l-1.343,1.166l0.029,0.009c-0.77,0.678-1.59,1.353-2.498,1.872l-1.389,0.794l1.321,0.901c5.058,3.449,9.77,7.18,14.006,11.088
		l1.419,1.31l0.25-1.915c0.14-1.067,0.252-2.105,0.343-3.105l0.061,0.092l0.154-3.066c0.118-2.354,0.059-4.605-0.175-6.691
		L306.864,52.036z"/>
	<path style="fill:#FFB55F;" d="M296.649,384.826l-1.616-3.737l0.003-0.013l-0.385-0.92c-0.184-0.436-0.367-0.872-0.541-1.307
		c-0.364-0.909-0.739-1.823-1.117-2.744c-2.231-5.444-4.539-11.073-5.116-16.824l-1.502-0.098c0.322-1.157,0.691-2.287,1.141-3.368
		l1.271-3.058l-2.751,1.843c-1.679,1.124-4.163,1.695-7.384,1.695c-1.219,0-2.538-0.079-4.032-0.239l-0.345-0.037l-0.936-0.12
		c-0.673-0.086-1.308-0.18-1.905-0.269l-0.261-0.038c-2.966-0.454-5.955-1.269-8.885-2.422l-0.548-0.216l0.001-0.01l-0.686-0.293
		c-2.728-1.168-5.34-2.615-7.763-4.301l-1.232-0.857l-0.316,1.467c-0.705,3.269-1.605,6.598-2.674,9.893l-0.061,0.186l0.015,0.195
		c0.098,1.366,0.137,2.791,0.146,4.247l-1.623-0.294c-3.643,9.585-8.675,18.069-14.957,25.215l-0.223,0.252l-0.002,0.029
		l-1.344,1.435c-5.413,5.779-11.683,10.549-18.634,14.177l-2.245,1.172l2.44,0.678c1.268,0.352,2.525,0.717,3.78,1.081
		c2.112,0.612,4.293,1.237,6.48,1.794l-0.008,0.009l0.445,0.107c0.02,0.005,0.039,0.011,0.059,0.016l0.588,0.147l0.005-0.006
		l0.546,0.131c2.286,0.55,4.394,0.955,6.449,1.239c1.834,0.247,3.751,0.457,5.834,0.643l-0.016,0.024l1.717,0.139
		c2.727,0.22,5.434,0.365,8.054,0.436l-0.004,0.004l0.153,0.002c0.007,0,0.014,0.001,0.021,0.001l0.419,0.011l0.006-0.006
		l1.867,0.025c0.679,0.009,1.357,0.014,2.036,0.014c1.568,0,3.156-0.025,4.72-0.074c4.12-0.133,8.202-0.415,12.134-0.836
		l0.402-0.043v0.008l0.638-0.076h0.001l0,0l0.5-0.06c5.453-0.65,10.605-1.603,15.315-2.836l1.026-0.269l-0.002-0.007l0.494-0.139
		c2.908-0.818,5.798-1.794,8.589-2.903l0.876-0.348l-0.006-0.019l0.526-0.22c2.087-0.87,3.918-1.719,5.599-2.596l0.687-0.358
		l-0.176-0.754C301.082,395.028,298.828,389.841,296.649,384.826z"/>
	<path style="fill:#FFB55F;" d="M276.602,87.688l-0.566,0.496l-0.119,0.1c-0.555,0.466-1.108,0.932-1.674,1.388l-1.011,0.815
		l1.046,0.769c0.14,0.102,0.29,0.215,0.438,0.332c0.547,0.426,1.11,0.855,1.682,1.29c2.929,2.23,5.957,4.536,7.956,7.377
		c0.379,0.538,0.722,1.14,1.019,1.789l1.197,2.621l0.684-2.799c0.203-0.829,0.369-1.599,0.518-2.351l0.102,0.246l0.46-3.781
		c0.284-2.323,0.409-4.708,0.378-7.091l0.142,0.179l-0.266-3.27c0,0-0.054-0.786-0.076-1.09c-0.133-1.848-0.409-5.692-1.193-8.01
		l-0.74-2.187l-1.089,2.036c-0.217,0.406-0.432,0.839-0.634,1.249c-0.272,0.549-0.553,1.117-0.729,1.378
		c-0.574,0.836-1.186,1.665-1.819,2.463l-0.829,1.045l0.006,0.003l-0.204,0.245C279.941,84.545,278.41,86.102,276.602,87.688z"/>
	<path style="fill:#FFB55F;" d="M271.73,81.398c-0.446-2.91-1.48-5.654-3.076-8.156l-0.725-1.138l-0.877,1.026
		c-1.294,1.512-2.611,2.884-3.81,3.968l-0.366,0.331l-0.006-0.001l-0.364,0.31c-0.824,0.701-1.591,1.253-2.276,1.643l-1.401,0.795
		l1.334,0.903c0.264,0.179,0.531,0.352,0.799,0.525c0.355,0.23,0.711,0.461,1.069,0.713c2.498,1.702,5.18,3.62,8.196,5.865
		l1.364,1.016l0.224-1.686c0.144-1.08,0.181-2.189,0.153-3.302l0.23,0.233L271.73,81.398z"/>
</g>
<g>
	<path style="fill:#FF7D5B;" d="M124.049,17.635c6.115,4.99,9.117,6.118,16.989,7.666c21.45,4.227,40.932,13.404,62.357,24.074
		c17.136,8.544,35.297,17.808,52.405,28.826l0.509,0.328l0.527-0.3c0.077-0.044,0.177-0.074,0.271-0.082l0.147-0.013l0.137-0.055
		c1.539-0.613,3.166-1.761,4.976-3.509l0.915-0.885l-4.284-2.709c-10.162-6.434-20.67-13.086-31.677-18.754
		c-12.009-6.198-24.84-12.065-38.135-17.438c-22.574-9.118-45.516-16.91-73.017-25.804l-0.816,1.813
		c2.354,1.39,4.624,3.353,6.626,5.085C122.718,16.516,123.412,17.117,124.049,17.635z"/>
	<path style="fill:#FF7D5B;" d="M225.7,246.75l0.055,0.024c6.943,3.091,14.286,9.654,22.449,20.064l1.765-0.828
		c-1.119-5.199-2.399-9.821-3.914-14.133c-2.477-7.01-5.976-13.64-9.359-20.052c-0.527-0.999-1.054-1.998-1.577-2.998
		c-7.377-14.113-11.93-26.322-10.175-40.029c1.558-12.138,6.611-23.766,11.499-35.012c0.891-2.05,1.777-4.091,2.64-6.126
		c3.436-8.121,6.581-15.282,9.618-21.893c0.518-1.129,1.094-2.247,1.704-3.431c1.102-2.137,2.241-4.347,2.992-6.6
		c0.188-0.543,0.335-1.106,0.466-1.774l0.546-2.794l-2.173,1.838c-3.247,2.747-6.585,5.49-9.814,8.144
		c-7.81,6.418-15.885,13.054-23.316,20.272c-10.495,10.178-20.568,21.784-31.701,36.525c-8.532,11.307-17.423,23.583-24.648,36.73
		c-5.975,10.834-10.367,22.352-13.427,35.211l-0.628,2.638l2.19-1.599c11.679-8.527,26.28-13.223,41.115-13.223
		c12.096,0,23.73,3.117,33.644,9.015L225.7,246.75z"/>
	<path style="fill:#FF7D5B;" d="M50.939,124.288l-0.531,2.226l1.994-1.122c25.943-14.598,58.59-24.04,94.41-27.306
		c8.013-0.733,16.154-1.104,24.201-1.104c27.591,0,54.787,4.263,80.831,12.671l2.402,0.775l-1.219-2.21
		c-0.799-1.448-1.985-2.719-3.241-4.065c-0.286-0.307-0.579-0.622-0.878-0.948c-17.309-18.912-39.343-34.274-65.488-45.661
		c-25.03-10.91-53.21-17.716-83.757-20.23c-8.859-0.729-17.979-1.083-27.881-1.083c-20.002,0-39.235,1.41-62.302,3.252L9.388,39.49
		l-0.09,0.024c-0.389,0.105-0.777,0.217-1.171,0.331L5.946,40.47l1.551,1.208C42.836,69.22,57.452,97.014,50.939,124.288z"/>
	<path style="fill:#FF7D5B;" d="M146.102,244.812l1.951,0.033c5.84-24.227,21.242-45.747,37.863-67.487
		c21.345-27.926,42.397-48.756,64.358-63.68l-0.74-1.811c-2.607,0.47-5.29,0.849-7.884,1.215c-3.789,0.535-7.708,1.088-11.528,1.943
		c-7.253,1.63-14.663,3.823-22.023,6.517c-13.936,5.106-28.027,12.142-43.075,21.51c-11.914,7.417-24.378,16.263-39.226,27.841
		c-10.28,8.011-21.932,17.091-28.966,30.123l-0.737,1.366l1.549,0.106C121.374,204.119,141.301,221.523,146.102,244.812z"/>
	<path style="fill:#FF7D5B;" d="M229.927,456.04c-0.677,0-1.361,0.051-2.034,0.152l-0.646,0.097l-0.171,0.632
		c-0.388,1.438-1.217,2.955-2.336,4.272l-1.459,1.717l2.252-0.07c0.119-0.004,0.239-0.005,0.358-0.005
		c1.443,0,2.829,0.26,3.642,0.503c2.808,0.847,5.134,2.822,6.55,5.562l0.453,0.876l0.883-0.441c0.99-0.495,2.009-0.735,3.115-0.735
		c0.125,0,0.251,0.003,0.378,0.009l1.006,0.05l0.043-1.006c0.13-3.027-0.884-5.756-2.931-7.893
		C236.764,457.396,233.446,456.04,229.927,456.04z"/>
	<path style="fill:#FF7D5B;" d="M234.373,469.636c-0.307-0.601-0.676-1.153-1.161-1.734c-1.198-1.446-2.773-2.481-4.552-2.992
		c-0.532-0.155-1.105-0.23-1.753-0.23c-0.697,0-1.377,0.086-2.033,0.169l-1.395,0.174l0.331,1.128
		c0.458,1.559,0.641,3.207,0.515,4.641l-0.121,1.378l1.347-0.318c0.646-0.152,1.366-0.23,2.14-0.23c0.429,0,0.875,0.025,1.328,0.072
		c1.154,0.12,2.413,0.354,3.875,0.721c0.274,0.061,2.475,0.517,2.475,0.517l-0.444-1.582
		C234.553,470.028,234.448,469.778,234.373,469.636z"/>
	<path style="fill:#FF7D5B;" d="M97.649,194.836c6.574-10.095,16.47-17.821,26.04-25.292l0.237-0.186
		c15.313-11.95,27.377-20.564,39.116-27.931c14.653-9.195,28.654-16.25,42.802-21.571c8.154-3.071,16.391-5.52,24.479-7.278
		c3.207-0.691,6.844-1.474,10.458-2.019l0.118-1.953c-23.108-6.407-47.045-9.655-71.145-9.655c-7.092,0-14.27,0.287-21.333,0.853
		c-30.701,2.458-61.666,10.878-97.45,26.501l-3.481,1.52l3.779,0.391c16.354,1.693,31.094,10.829,39.43,24.437
		c7.361,12.031,9.239,27.107,5.151,41.362L97.649,194.836z"/>
	<path style="fill:#FF7D5B;" d="M207.824,466.515c-2.014-2.719-5.041-2.819-7.712-2.907l-1.238-0.042l0.007,1.041
		c0.009,1.376-0.296,2.746-0.88,3.96l-0.518,1.073l1.146,0.324c0.747,0.211,1.414,0.476,1.99,0.79
		c2.002,1.067,3.473,2.746,4.373,4.99l0.426,1.063l0.995-0.565c0.536-0.304,1.261-0.464,2.095-0.464c0.405,0,0.831,0.037,1.267,0.11
		l1.27,0.214l-0.107-1.283C210.7,471.962,209.507,468.78,207.824,466.515z"/>
	<path style="fill:#FF7D5B;" d="M199.119,471.916c-1.37-0.649-2.773-0.776-3.965-0.815l-1.493-0.049l0.523,1.398
		c0.414,1.106,0.483,2.351,0.207,3.699l-0.266,1.293l1.316-0.094c0.317-0.023,0.639-0.034,0.963-0.034
		c2.281,0,4.459,0.518,5.884,0.953l1.791,0.546l-0.542-1.792C202.883,474.854,201.191,472.898,199.119,471.916z"/>
</g>
<path style="fill:#FFB55F;" d="M170.676,349.815l-0.02,0.039l-0.139-1.606c-0.347-3.955-0.706-8.044-0.806-12.049
	c-0.045-2.057,0.251-4.058,0.903-6.116l-1.147-0.496c0.075-0.107,0.146-0.223,0.222-0.33l1.152-1.636l-2,0.06
	c-0.402,0.012-0.806,0.017-1.209,0.017c-2.044,0-4.145-0.143-6.177-0.282c-2.066-0.141-4.204-0.287-6.32-0.287l-0.293,0.001
	c-1.133,0.01-2.336,0.063-3.673,0.162l0.03-0.042l-2.257,0.246c-2.462,0.268-4.995,0.703-7.697,1.303l0.061-0.071l-3.347,0.861
	c-0.195,0.047-0.392,0.095-0.558,0.145c-4.396,1.175-8.877,2.52-13.316,3.997l-0.381,0.126l-0.01,0.019l-1.799,0.618
	c-3.6,1.235-6.906,2.444-10.115,3.697l-0.165,0.066l0.009-0.017l-1.264,0.519l-0.156,0.063l-0.001,0.002l-1.123,0.461
	c-4.554,1.869-9.069,3.947-13.432,6.173l0.017-0.043l-2.374,1.261c-4.269,2.268-8.406,4.708-12.318,7.253l0.004-0.023l-0.644,0.434
	l-0.231,0.152v0.005l-1.101,0.744c-5.514,3.721-10.656,7.766-15.287,12.023l-0.412,0.379l0.003,0.015l-1.092,1.037
	c-2.034,1.933-4.024,4.006-5.937,6.151l-0.009-0.045l-1.325,1.548c-3.124,3.65-5.924,7.486-8.344,11.406l-0.013-0.029l-0.497,0.844
	l-0.031,0.051v0.001l-0.458,0.779c-2.166,3.682-4.04,7.556-5.57,11.517l-0.102,0.263l-0.004-0.004l-0.562,1.497
	c-0.054,0.133-0.107,0.268-0.132,0.359c-1.119,3.148-1.954,6.529-2.493,10.049l-0.006-0.005l-0.018,0.146
	c-0.006,0.04-0.015,0.078-0.021,0.118l-0.086,0.577l0.02,0.015l-0.106,0.873c-0.47,3.849-0.557,7.925-0.284,12.12l-0.05-0.025
	l0.16,1.786c0.372,4.132,1.15,8.427,2.29,12.773l-0.035-0.009l0.49,1.712c0.976,3.417,2.232,6.919,3.732,10.41l0.045,0.106
	l-0.016,0.005l0.456,1.022c0.674,1.511,1.323,2.866,1.982,4.137c0.428,0.841,0.897,1.702,1.445,2.655l-0.016-0.001l0.359,0.594
	c0.021,0.036,0.04,0.068,0.061,0.104l0.282,0.481h0.012l0.272,0.449c1.849,3.055,3.903,5.899,6.103,8.479l-0.025,0.007l0.432,0.48
	l0.377,0.436l0.012-0.004l0.265,0.294c2.34,2.595,4.826,4.896,7.388,6.836c1.676,1.274,3.436,2.401,5.383,3.446l1.115-1.647
	c-3.76-3.156-7.088-6.798-9.892-10.825l-0.509-0.732l-0.012,0.006l-0.158-0.238c-1.789-2.684-3.372-5.599-4.705-8.664l-0.432-0.993
	l-0.091-0.237c-0.066-0.171-0.138-0.337-0.21-0.503c-0.059-0.135-0.117-0.27-0.171-0.409c-0.836-2.156-1.567-4.462-2.173-6.854
	l-0.078-0.307l0.002-0.001l-0.199-0.846c-0.739-3.136-1.239-6.391-1.487-9.676l-0.071-0.945l-0.026-0.557
	c-0.188-3.923-0.019-7.88,0.502-11.76l0.145-1.077l0.012-0.006l0.08-0.488c0.537-3.302,1.305-6.488,2.283-9.469l0.413-1.259
	l0.005-0.001l0.192-0.53c1.08-2.979,2.351-5.793,3.774-8.367l0.711-1.285l0.034-0.012l0.189-0.316
	c0.082-0.138,0.162-0.279,0.242-0.421c0.104-0.182,0.206-0.364,0.317-0.543c0.988-1.588,2.16-3.255,3.583-5.097l0.99-1.281
	c1.735-2.126,3.613-4.169,5.591-6.069l0.957-0.919l0.245-0.224c2.5-2.287,5.231-4.44,8.117-6.401l1.605-1.09l0.057-0.003l0.221-0.14
	c2.637-1.672,5.409-3.192,8.24-4.519l1.247-0.584l0.023,0.016l0.505-0.221c3.659-1.595,7.421-2.896,11.181-3.868l1.569-0.405
	l0.01,0.006l0.407-0.095c0.977-0.227,1.954-0.434,2.938-0.621c2.023-0.379,4.07-0.675,6.086-0.878l1.05-0.106l0.005,0.008
	l0.599-0.051c1.974-0.168,3.963-0.254,5.915-0.254c0.92,0,1.84,0.018,2.759,0.056l1.062,0.044l0.016,0.022l0.476,0.033
	c3.067,0.211,5.848,0.591,8.498,1.16l1.042,0.224v0.001l0.56,0.138c0.523,0.128,1.036,0.266,1.538,0.402
	c2.614,0.733,5.276,1.869,8.379,3.574l1.194,0.656l0.002,0.012l0.412,0.24c1.572,0.914,3.124,1.866,4.674,2.816
	c0.684,0.419,1.366,0.838,2.051,1.254l1.735,1.054l-0.001-0.011l0.061,0.035c1.917,1.118,3.527,1.976,5.068,2.701l1.399,0.659
	v-0.024l0.32,0.134c1.508,0.63,2.898,1.109,4.252,1.464l0.761,0.2l0.373-0.692c3.065-5.684,4.984-11.733,5.703-17.979
	c0.663-5.708,0.385-11.387,0.024-16.19L170.676,349.815z"/>
<g>
	<path style="fill:#231F20;" d="M447.625,153.786c0.923,2.872,1.973,6.427-1.626,7.602c-2.09,0.683-5.836,0.004-7.573-0.748
		c-2.85-1.234-4.665-2.951-7.841-3.474c-3.877-0.639-6.337,0.838-9.988,1.507c-1.571,0.288-5.959,4.556-5.815-2.181
		c0.058-2.691,3.873-5.735,5.779-6.848c1.281-0.747,0.157-2.594-1.149-1.965c-4.201,2.022-10.465,7.93-7.994,13.315
		c1.918,4.18,6.181,2.8,9.961,1.334c-0.648,2.062-0.564,4.226,0.538,6.478c1.631,3.332,4.816,5.293,8.416,5.734
		c0.469,0.058,0.779-0.678,0.402-0.971c-1.93-1.499-4.318-2.802-5.852-4.704c-1.552-1.925-2.115-4.757-1.604-7.273
		c0.029-0.011,0.061-0.024,0.09-0.035c0.609,4.071,3.988,7.592,8.124,8.208c2.717,0.404,6.824-0.785,8.993-3.141
		c-0.054,2.401-0.925,4.544-2.538,6.852c-0.337,0.482,0.219,1.109,0.74,0.963c3.72-1.042,5.418-5.565,4.472-9.183
		c1.381,0.068,2.822-0.114,4.359-0.693c5.141-1.937,4.116-7.895,1.179-11.403C448.285,152.664,447.435,153.195,447.625,153.786z
		 M435.181,165.924c-2.359,0.981-4.914,0.553-6.763-1.225c-0.824-0.792-1.439-1.788-1.816-2.864
		c-0.116-0.331-0.156-0.713-0.196-1.094c1.575-0.167,3.06,0.033,4.496,0.423c-0.078,0.248-0.136,0.511-0.173,0.785
		c-0.086,0.642-0.094,1.225,0.328,1.771c0.435,0.563,0.982,0.851,1.713,0.704c1.009-0.203,1.479-1.019,1.781-1.917
		c1.063,0.459,2.12,0.942,3.187,1.377C437.057,164.685,436.342,165.441,435.181,165.924z"/>
	<path style="fill:#231F20;" d="M492.705,166.842c-0.399-0.331-0.913-0.534-1.483-0.536c-1.186-0.005-2.214,0.764-2.589,1.882
		c-0.612,1.826,0.748,3.537,2.47,4.02c1.997,0.561,4.292-1.077,3.732-3.266C494.555,167.853,493.686,167.079,492.705,166.842z"/>
	<path style="fill:#231F20;" d="M498.22,164.053c-2.405-1.781-5.251-1.071-8.002-0.989c-0.915,0.027-0.898,1.343,0,1.41
		c3.077,0.23,7.936-0.085,8.438,4.083c0.051,0.425,0.549,0.591,0.807,0.218C500.678,167.016,499.788,165.215,498.22,164.053z"/>
	<path style="fill:#231F20;" d="M510.457,166.358c-2.997-7.103-9.549-11.383-17.08-12.038c-5.629-0.489-10.863-0.463-16.278-2.365
		c-5.048-1.773-9.729-4.424-14.349-7.087c-8.269-4.764-16.534-9.67-26.147-11.047c-4.301-0.617-8.408-0.46-12.603,0.496
		c-2.314-3.979-6.01-7.146-8.746-10.836c-3.176-4.285-5.862-9.009-7.828-13.971c-4.44-11.206-4.345-22.827-6.731-34.42
		c-0.215-1.044-1.576-1.855-2.591-1.471c-8.609,3.254-12.605,13.817-15.471,21.87c-2.043,5.742-4.245,14.456-3.167,21.667
		c-2.779-2.531-5.298-5.372-7.544-8.465c-11.673-16.067-15.209-36.24-18.405-55.392c-0.205-1.228-2.105-1.402-2.649-0.346
		c-9.809,19.078-12.905,39.834-7.537,60.786c4.997,19.504,16.13,39.321,32.716,51.223c-0.567,1.296-1.1,2.609-1.605,3.933
		c-4.605,6.483-6.379,15.04-7.39,22.746c-1.371,10.445-1.185,21.025-1.887,31.521c-1.24,18.531-2.183,46.512-22.302,55.161
		c-8.174,3.514-16.059,3.169-23.317,0.479c-17.799-22.756-24.07-50.718-24.898-79.286c-0.867-29.952,4.978-60.166,17.205-87.54
		c2.725-6.101,6.055-11.819,9.026-17.786c1.159-2.327,1.565-4.41,1.426-6.375c2.764-3.605,2.918-10.704,2.951-14.432
		c0.063-7.146-1.725-13.985-4.847-20.38c-0.742-1.519-2.768-1.169-3.591,0c-2.072,2.942-4.348,5.634-6.814,8.17
		c0.708-7.653,0.311-15.343-4.453-21.839c-0.846-1.153-2.229-1.398-3.342-0.431l-8.218,7.145c-2.068,1.799-4.31,3.3-5.715,5.571
		c-24.358-15.708-52.796-23.344-80.574-30.567c-34.599-8.996-70.755-20.507-106.911-17.485c-2.882,0.241-3.195,3.764-0.654,4.832
		c7.871,3.307,15.014,7.74,21.591,13.134c-15.313-1.412-30.779-1.098-46.079,0.458C50.581,24.54,25.967,30.263,1.823,37.346
		c-2.275,0.667-2.351,3.435-0.614,4.703c26.958,19.681,57.052,50.164,44.199,86.775c-0.569,1.618,0.903,3.135,2.435,3.197
		c15.829,0.642,30.993,9.067,39.326,22.673c8.907,14.545,8.863,33.204,0.76,48.05c-0.87,1.596,0.193,3.992,2.21,3.851
		c29.526-2.06,53.752,21.424,52.731,50.962c-0.08,2.326,2.923,3.433,4.508,1.868c0.109-0.107,0.222-0.207,0.331-0.314
		c0.328-0.144,0.605-0.384,0.774-0.732c19.184-17.986,48.778-21.417,72.074-10.055c5.318,3.621,11.015,6.635,15.784,11.242
		c2.304,2.227,4.464,4.58,6.516,7.023c-32.748-7.662-64.248,18.801-94.059,28.101c-16.899,5.271-34.694,6.816-51.619,11.965
		c-15,4.563-28.334,12.445-39.39,23.583c-10.969,11.051-19.507,24.36-27.12,37.863c-7.818,13.868-17.606,28.969-19.655,45.027
		c-2.115,16.569,2.217,36.377,11.048,50.566c8.079,12.981,21.27,21.648,34.774,28.184c18.037,8.731,36.961,15.639,57.133,16.572
		c22.252,1.029,45.059,0.249,67.291-0.988c0.656-0.036,1.131-0.327,1.436-0.729c0.306,0.021,0.612,0.046,0.918,0.067
		c1.631,0.11,2.042-2.64,0.391-2.891c-23.637-3.603-47.548-5.271-71.151-9.065c-20.172-3.242-40.848-10.126-52.043-28.479
		c-9.662-15.84-11.166-36.767-3.728-53.792c7.739-17.714,24.418-30.433,42.836-35.45c10.839-2.952,22.846-3.582,33.736-0.516
		c10.382,2.923,18.161,11.154,28.282,14.416c-1.44,2.169-3.047,4.227-4.807,6.148c-5.906,6.448-9.175,11.167-8.954,20.233
		c0.269,11.021,0.64,22.04,0.909,33.062c0.135,5.546,0.267,11.092,0.397,16.638c0.091,3.893-0.56,8.827,1.031,12.506
		c3.185,7.368,15.19,4.3,21.306,4.082c4.93-0.176,14.686,1.116,20.009-2.165c1.552,0.042,3.104-0.477,4.691-0.521
		c2.51-0.071,4.931,0.403,7.241,1.378c1.377,0.581,3.413-0.045,3.284-1.884c-0.025-0.362-0.073-0.718-0.117-1.075
		c1.326-0.126,2.577-0.418,3.933,0.432c1.518,0.951,3.141-0.326,3.289-1.887c0.064-0.685,0.069-1.404,0.03-2.138
		c2.726,0.619,6.277,1.057,8.506-0.16c0.165,0.047,0.348,0.067,0.553,0.055c2.305-0.141,4.377-0.677,6.712-0.287
		c1.833,0.306,3.946,1.428,5.807,1.312c2.552-0.159,2.922-2.145,2.609-4.164c1.261-0.389,2.478-0.52,3.906-0.165
		c1.572,0.391,2.669-0.723,2.86-2.179c1.33-10.136-7.782-18.349-17.013-16.236c-0.917-3.811-5.136-5.139-7.928-7.358
		c-11.404-9.068-3.601-24.042,1.83-34.257c2.802,0.595,5.609,1.003,8.199,1.383c8.764,1.286,17.627,1.837,26.48,1.516
		c8.852-0.321,17.692-1.43,26.349-3.304c6.449-1.396,13.34-3.075,19.102-6.516c0.724,8.726-2.992,17.015-4.049,25.618
		c-1.033,8.41,0.663,16.763,1.913,25.051c0.72,4.773,1.38,9.646,1.203,14.488c-0.135,3.683-1.47,7.6-0.952,11.283
		c1.043,7.413,8.645,7.232,14.49,7c9.271-0.368,18.624-0.426,27.875-1.135c1.217-0.093,2.257-0.384,3.131-0.821
		c0.059,0.006,0.113,0.019,0.176,0.021c2.032,0.079,4.053-0.305,6.096-0.248c2.216,0.062,4.32,0.51,6.477,0.964
		c1.194,0.251,2.859-0.583,2.682-2.043c-0.02-0.164-0.047-0.32-0.068-0.483c5.251,0.692,10.893,0.663,16.131,0.168
		c2.185-0.206,4.331-0.744,6.089-1.854c2.128,0.152,4.383-0.158,6.441-0.114c2.732,0.058,5.893,0.987,8.543,0.434
		c0.679-0.142,1.261-0.776,1.431-1.431c0.179-0.687,0.236-1.407,0.193-2.137c2.689-0.412,5.281-1.06,8.051-1.14
		c1.182-0.034,2.313-1.228,1.876-2.463c-1.748-4.95-4.915-9.175-9.478-11.869c-3.629-2.143-7.75-3.737-11.187-1.286
		c-0.551-1.956-1.731-3.769-3.475-5.093c-2.752-2.088-4.538-3.666-4.703-7.292c-0.1-2.184-0.084-4.333-0.369-6.51
		c-0.754-5.764-2.503-11.34-2.781-17.174c-0.494-10.401,3.54-19.649,4.632-29.774c0.825-7.638-1.932-14.005-6.229-19.83
		c1.853-1.401,3.658-2.866,5.4-4.414c13.496-11.995,21.763-28.208,25.9-45.612c4.653-19.575,4.643-39.882,8.931-59.51
		c3.756-17.193,11.476-31.399,24.196-42.965c6.063,0.826,12.139,1.559,18.21,2.322c3.63,0.456,7.277,0.738,10.671,2.179
		c2.447,1.038,4.627,2.594,7.114,3.551c10.704,4.12,20.226-3.842,27.326-10.889c1.594-1.583,0.28-3.898-1.699-4.1
		c-0.548-0.056-1.088-0.135-1.624-0.226c1.067-2.22,1.23-5.687,1.54-7.963c0.442-3.241,0.589-6.498,0.332-9.76
		c-0.124-1.576-1.924-1.975-2.833-0.767c-2.974,3.951-5.794,8.948-9.555,12.363c-0.455-2.929-0.723-6.204-1.758-8.738
		c-0.396-0.971-0.862-1.98-2.003-2.216c-1.725-0.357-2.429,1.144-3.168,2.312c-1.094,1.728-2.2,3.441-3.156,5.234
		c-0.321-1.715-1.801-3.421-2.422-4.987c-0.937-2.363-1.816-4.382-4.084-5.737c-0.687-0.41-1.745-0.188-2.121,0.556
		c-0.83,1.64-1.71,3.254-2.542,4.893c-0.587,1.155-1,2.431-1.521,3.627c-1.97-0.316-3.953-0.633-5.948-1.033
		c-9.814-1.965-18.616-7.991-26.959-13.961c5.549-0.39,11.05-2.115,16.709-3.022c1.062,2.943,1.695,6.064,2.005,9.157
		c0.142,1.409,1.663,2.125,2.769,1.147c2.505-2.216,4.551-4.627,6.267-7.379c1.269,2.598,2.478,5.224,3.735,7.83
		c0.63,1.306,2.649,1.193,3.311,0c1.549-2.789,2.917-5.633,4.159-8.542c0.938,2.626,1.87,5.289,3.15,7.661
		c0.94,1.741,2.279,3.218,4.415,2.605c2.036-0.584,2.608-2.563,3.243-4.362c1.204-3.408,2.247-6.882,3.286-10.351
		c1.68,4.287,2.019,8.983,2.332,13.644c0.104,1.549,2.163,2.78,3.353,1.389c4.096-4.789,7.61-10.159,9.983-16.011
		c1.436,0.408,2.86,0.535,4.161-0.094C513.374,182.748,512.52,171.246,510.457,166.358z M228.036,457.179
		c6.687-0.995,13.223,3.423,12.923,10.433c-1.401-0.07-2.725,0.194-3.986,0.826c-1.491-2.876-4.001-5.11-7.153-6.059
		c-1.065-0.321-2.713-0.586-4.323-0.536C226.627,460.51,227.594,458.853,228.036,457.179z M228.378,465.869
		c1.6,0.458,3.008,1.393,4.065,2.67c0.406,0.49,0.751,0.986,1.041,1.554c0.085,0.166,0.295,0.884,0.474,1.53
		c-0.29-0.064-0.581-0.121-0.845-0.187c-1.316-0.327-2.644-0.6-3.995-0.737c-1.234-0.124-2.567-0.114-3.799,0.178
		c0.155-1.7-0.111-3.503-0.552-5.008C225.971,465.722,227.209,465.535,228.378,465.869z M389.499,464.875
		c2.809-1.067,7.874,1.884,9.868,3.356c2.523,1.863,4.476,4.246,5.797,7.018c-2.12,0.142-4.216,0.57-6.098,1.534
		c-0.865-1.952-2.256-3.716-3.765-4.821c-1.926-1.412-4.297-2.083-6.649-2.024C389.45,468.347,389.71,466.588,389.499,464.875z
		 M392.021,474.102c1.424,0.71,4.198,3.364,4.235,5.585c-2.939-0.247-6.259-0.933-9.392-0.923c0.485-1.702,0.458-3.493-0.026-5.169
		C388.551,473.2,390.257,473.222,392.021,474.102z M419.777,134.863c-6.087-2.593-12.521-4.21-18.833-6.179
		c1.213-0.881,2.509-1.644,3.87-2.305c0.222-0.108,3.155-1.252,5.05-1.904C412.619,128.645,415.935,132.493,419.777,134.863z
		 M408.95,123.052c-1.442,0.524-2.912,1.348-4.029,1.866c-1.942,0.9-3.672,1.987-5.22,3.369c-1.898-0.609-3.784-1.251-5.641-1.978
		c-1.298-0.508-2.552-1.087-3.781-1.704c2.13-2.108,4.136-4.16,6.936-5.665c2.186-1.175,5.233-2.529,8.05-2.612
		C406.333,118.512,407.552,120.802,408.95,123.052z M403.665,112.905c0.317,0.72,0.661,1.472,1.022,2.239
		c-2.122,0.117-4.297,0.869-6.238,1.707c-3.358,1.449-7.233,3.896-9.535,7.05c-1.402-0.763-2.764-1.587-4.073-2.483
		c-0.202-1.518-0.534-3.021-0.825-4.538c1.965-2.444,3.656-4.998,6.574-6.601c2.988-1.641,7.199-3.061,10.82-3.227
		C402.103,109.06,402.84,111.031,403.665,112.905z M396.515,78.845c0.013,2.347,0.156,4.742,0.383,7.15
		c-2.771-0.121-5.705,1.532-8.087,3.504C390.663,85.165,393.155,80.953,396.515,78.845z M385.484,99.123
		c0.607-2.052,1.404-4.684,2.434-7.4c1.21-1.067,2.507-2.043,3.925-2.785c1.743-0.913,3.436-1.118,5.201-1.457
		c0.286,2.558,0.674,5.128,1.176,7.675c-2.883,0.399-5.9,1.83-8.165,3.138c-1.887,1.089-3.844,2.498-5.45,4.176
		C384.864,101.347,385.157,100.23,385.484,99.123z M384.128,104.82c1.992-2.038,3.911-3.994,6.532-5.491
		c1.675-0.957,3.454-1.716,5.307-2.252c0.828-0.239,1.686-0.376,2.541-0.516c0.676,3.168,1.505,6.293,2.493,9.301
		c-1.075,0.039-2.152,0.366-3.276,0.64c-2.257,0.55-4.512,1.176-6.618,2.175c-3.1,1.47-5.496,3.902-7.352,6.727
		c-0.184-1.156-0.312-2.325-0.306-3.518C383.462,109.509,383.71,107.15,384.128,104.82z M351.249,58.272
		c0.533,4.16,1.118,8.335,1.805,12.49c-2.524-0.641-5.01,0.728-7.024,2.546C347.147,68.096,348.845,63.031,351.249,58.272z
		 M345.647,75.148c0.687-0.63,1.393-1.236,2.169-1.754c1.773-1.185,3.383-1.392,5.426-1.509c0.407,2.386,0.84,4.766,1.342,7.126
		c-3.676,1.056-7.639,3.208-10.111,6.236C344.639,81.851,345.028,78.473,345.647,75.148z M344.392,87.635
		c1.329-1.625,2.627-3.228,4.414-4.511c1.849-1.329,3.89-2.278,6.052-2.888c0.855,3.851,1.854,7.658,3.086,11.378
		c-5.051,0.519-9.894,4.212-12.877,8.46C344.545,95.96,344.314,91.792,344.392,87.635z M347.541,112.578
		c-0.968-3.552-1.723-7.21-2.262-10.92c1.478-2.265,3.365-4.23,5.641-5.758c2.4-1.61,4.873-2.258,7.493-2.922
		c1.118,3.21,2.399,6.359,3.906,9.415c-2.985,1.025-6.006,3.428-7.924,4.985c-2.484,2.017-4.768,4.53-6.197,7.436
		C347.979,114.068,347.744,113.321,347.541,112.578z M348.663,116.384c2.918-5.726,8.199-10.763,14.357-12.616
		c1.507,2.899,3.203,5.721,5.158,8.432c-3.761,0.908-7.16,4.443-9.389,7.239c-1.481,1.858-2.89,3.859-3.996,5.966
		c-0.475,0.906-1.097,2.106-1.404,3.298C351.538,124.651,349.961,120.513,348.663,116.384z M354.46,130.956
		c0.002-0.021,0.005-0.043,0.007-0.064c0.01-0.1-0.057-0.173-0.14-0.211c-0.029-0.059-0.058-0.118-0.087-0.178
		c0.292-0.697,1.206-3.58,1.264-3.698c0.375-0.765,0.812-1.504,1.258-2.228c1.109-1.803,2.346-3.557,3.73-5.159
		c1.359-1.574,2.872-3.039,4.608-4.193c1.23-0.817,2.578-1.3,3.9-1.88c2.51,3.323,5.373,6.357,8.536,9.029
		c-1.378,0.523-2.718,1.22-3.873,1.818c-2.636,1.365-5.093,3.094-7.279,5.104c-2.641,2.427-5.816,5.967-7.548,9.712
		C357.244,136.398,355.796,133.699,354.46,130.956z M359.751,140.487c0.597-1.286,1.181-2.585,1.945-3.778
		c1.552-2.422,3.409-4.627,5.529-6.57c2.021-1.852,4.283-3.449,6.706-4.733c1.561-0.827,3.293-1.316,4.957-1.905
		c2.215,1.748,4.57,3.316,7.055,4.672c-2.221-0.144-4.339,1.48-6.085,2.745c-2.609,1.89-5.102,3.96-7.273,6.348
		c-2.737,3.01-5.859,7.459-6.565,11.861C363.756,146.403,361.668,143.504,359.751,140.487z M367.073,150.386
		c0.467-1.758,0.838-3.524,1.628-5.224c1.134-2.437,2.67-4.683,4.448-6.693c3.435-3.883,8.494-8.803,13.85-9.246
		c0.21-0.017,0.33-0.155,0.373-0.31c0.709,0.356,1.416,0.717,2.146,1.038c1.711,0.754,3.474,1.472,5.274,2.151
		c-1.125,0.458-2.199,0.991-3.137,1.472c-3.1,1.59-5.915,3.77-8.292,6.312c-4.566,4.885-7.627,11.178-9.077,17.706
		C371.719,155.394,369.317,152.973,367.073,150.386z M375.228,158.413c1.675-6.363,4.22-12.417,8.731-17.346
		c2.19-2.394,4.767-4.442,7.613-6.003c1.633-0.895,3.349-1.631,5.133-2.169c0.051-0.016,0.105-0.025,0.157-0.04
		c4.753,1.691,9.72,3.115,14.668,4.198c-1.456,0.261-2.927,0.503-4.435,0.715c-14.095,1.976-23.047,11.356-28.99,22.874
		C377.125,159.93,376.167,159.185,375.228,158.413z M318.136,58.124c0.968,2.427,1.709,4.923,2.217,7.472
		c-0.739-0.82-1.536-1.586-2.423-2.256c-1.231-0.929-2.295-1.162-3.438-0.937C315.761,61.027,316.976,59.602,318.136,58.124z
		 M313.236,63.714c2.139-0.213,3.55,0.451,5.181,1.971c0.832,0.775,1.608,1.611,2.36,2.468c0.193,1.438,0.318,2.89,0.355,4.357
		c0.026,1.068-0.005,2.13-0.065,3.19c-1.344-2.374-2.341-4.852-4.631-6.686c-1.742-1.396-3.743-2.305-5.867-2.674
		C311.487,65.488,312.369,64.608,313.236,63.714z M308.768,67.977c0.271-0.235,0.526-0.482,0.792-0.72
		c2.849,0.49,5.506,1.805,7.477,4.02c1.69,1.899,2.187,4.783,3.852,6.637c-0.097,0.913-0.211,1.826-0.357,2.738
		c-0.034,0.209-0.084,0.737-0.153,1.422c-0.784-1.368-1.756-2.741-2.853-4.167c-2.699-3.508-5.639-6.809-8.76-9.928
		C308.767,67.978,308.768,67.978,308.768,67.977z M303.237,43.638c0.876,1.577,1.496,3.228,1.945,4.921
		c-0.395-0.482-0.817-0.942-1.299-1.35c-0.804-0.682-1.797-1.283-2.849-1.651L303.237,43.638z M296.263,49.718l3.276-2.856
		c1.666,0.336,3.101,0.987,4.403,2.464c0.792,0.899,1.402,1.929,1.945,3.001c0.248,2.146,0.285,4.334,0.177,6.532
		c-1.254-1.908-3.219-3.163-5.239-4.885c-1.674-1.426-3.469-2.816-5.46-3.452C295.66,50.255,295.953,49.988,296.263,49.718z
		 M294.463,51.33c2.462,0.599,4.517,2.597,6.505,4.268c0.812,0.683,1.698,1.269,2.513,1.947c1.394,1.161,1.858,2.361,2.409,3.827
		c-0.103,1.168-0.23,2.334-0.374,3.49c-4.417-4.07-9.159-7.788-14.121-11.182C292.509,53.038,293.481,52.212,294.463,51.33z
		 M196.505,23.24c28.622,7.316,58.19,14.252,83.933,29.293c12.146,7.096,23.352,15.984,32.18,26.998
		c3.071,3.833,6.08,6.909,4.055,12.201c-1.255,3.281-3.51,6.411-5.086,9.567c-3.081,6.166-5.841,12.498-8.286,18.943
		c-9.771,25.762-14.321,53.561-13.232,81.095c0.94,23.77,5.12,52.696,20.206,72.615c-9.086-6.155-16.712-15.487-21.99-24.194
		c-5.831-9.618-10.877-19.774-15.569-29.988c-5.336-11.618-10.677-23.663-13.707-36.126c-3.561-14.642-1.046-28.044,6.201-41.092
		c5.81-10.459,13.94-19.62,19.944-29.925c7.542-7.874,7.883-22.476,6.187-32.255c-0.471-2.713-1.476-11.135-6.299-8.696
		c-1.842,0.932-2.87,4.238-3.931,5.816c-1.667,2.481-3.604,4.733-5.753,6.776c-0.097-5.683-2.086-10.993-5.865-15.645
		c-0.711-0.876-2.431-0.854-3.143,0c-0.51,0.612-1.085,1.308-1.705,2.032c-21.672-16.524-47.874-28.079-73.133-37.83
		c-25.205-9.731-51.072-17.256-76.982-24.766C142.332,8.477,169.715,16.393,196.505,23.24z M285.091,85.295
		c0.807,0.745,1.461,1.633,2.044,2.56c0.124,0.197,0.344,0.505,0.58,0.849c0.039,2.391-0.087,4.781-0.377,7.159
		c-0.671-1.621-1.703-3.185-2.69-4.199c-2.029-2.084-4.65-2.781-7.388-3.226c1.708-1.502,3.321-3.099,4.796-4.869
		C283.19,83.907,284.219,84.491,285.091,85.295z M283.094,82.265c0.643-0.824,1.27-1.66,1.855-2.526
		c0.36-0.534,0.877-1.705,1.418-2.715c0.868,2.564,1.095,7.243,1.2,8.508c0.01,0.115,0.01,0.23,0.02,0.345
		c-0.503-0.641-1.023-1.204-1.46-1.618C285.383,83.553,284.272,82.739,283.094,82.265z M283.783,92.528
		c1.655,1.826,1.947,4.255,3.114,6.238c-0.179,0.97-0.383,1.927-0.621,2.866c-0.309-0.684-0.673-1.342-1.102-1.951
		c-2.495-3.54-6.482-6.256-9.842-8.884c-0.153-0.119-0.31-0.231-0.463-0.35c0.573-0.455,1.133-0.921,1.688-1.393
		C279.168,89.59,281.975,90.534,283.783,92.528z M267.242,80.047c1.204,0.908,2.762,2.208,3.718,3.53
		c0.066,1.255,0.026,2.526-0.139,3.807c-2.705-2.016-5.436-3.996-8.226-5.898c-0.619-0.422-1.253-0.821-1.875-1.238
		c0.81-0.462,1.629-1.072,2.432-1.746C264.624,78.784,266.093,79.181,267.242,80.047z M263.91,77.844
		c1.462-1.323,2.829-2.817,3.897-4.06c1.535,2.399,2.51,5.026,2.935,7.764c-0.913-0.918-2.045-1.729-2.849-2.344
		C266.7,78.29,265.33,77.995,263.91,77.844z M115.859,9.926c24.52,7.932,49.063,16.132,72.952,25.786
		c12.938,5.228,25.649,11.003,38.053,17.395c12.093,6.232,23.346,13.499,34.807,20.746c-1.478,1.423-3.067,2.664-4.649,3.293
		c-0.236,0.025-0.469,0.098-0.682,0.212c-16.8-10.822-34.628-19.968-52.501-28.873c-20.223-10.076-40.275-19.761-62.604-24.164
		c-7.734-1.525-10.519-2.542-16.555-7.462C122.325,14.937,119.177,11.888,115.859,9.926z M8.116,40.885
		c0.482-0.137,0.965-0.272,1.447-0.408c30.036-2.393,59.862-4.644,90.015-2.166c28.683,2.358,57.008,8.627,83.444,20.145
		c24.425,10.642,47.106,25.71,65.149,45.423c1.594,1.742,3.075,3.175,3.979,4.821c-33.948-10.96-69.904-14.857-105.429-11.615
		c-32.577,2.973-66.094,11.273-94.809,27.432C60.086,90.306,33.759,60.88,8.116,40.885z M91.549,152.133
		c-8.65-14.128-23.863-23.225-40.18-24.911c31.134-13.595,63.028-23.688,97.137-26.42c30.966-2.48,62.222,0.475,92.124,8.769
		c-3.581,0.536-7.127,1.294-10.514,2.028c-8.378,1.816-16.602,4.304-24.623,7.321c-15.05,5.66-29.369,13.12-42.98,21.656
		c-13.615,8.539-26.546,18.111-39.205,27.997c-9.617,7.51-19.774,15.397-26.493,25.715
		C100.833,180.267,99.293,164.78,91.549,152.133z M147.082,244.613c-4.842-23.481-25.069-41.451-49.367-43.118
		c6.71-12.45,17.639-21.199,28.695-29.818c12.623-9.839,25.551-19.317,39.144-27.78c13.585-8.458,27.845-15.908,42.891-21.414
		c7.153-2.618,14.466-4.813,21.9-6.478c6.389-1.431,12.94-1.997,19.364-3.159c-25.023,17.017-46.359,40.057-64.589,63.907
		C169.865,196.709,153.137,219.471,147.082,244.613z M226.161,245.863c-23.298-13.86-54.111-11.619-75.858,4.261
		c2.909-12.232,7.122-23.7,13.325-34.966c7.098-12.894,15.72-24.875,24.575-36.604c9.718-12.872,20.008-25.174,31.595-36.416
		c10.478-10.166,21.982-18.98,33.085-28.372c-0.097,0.517-0.235,1.061-0.429,1.644c-1.129,3.394-3.17,6.688-4.665,9.942
		c-3.331,7.25-6.52,14.567-9.63,21.914c-5.638,13.317-12.349,26.916-14.205,41.403c-1.892,14.771,3.574,27.804,10.279,40.624
		c3.926,7.507,8.047,14.904,10.876,22.918c1.615,4.574,2.863,9.267,3.883,14.011C243.476,259.182,235.279,249.92,226.161,245.863z
		 M68.108,482.222c-1.785-0.962-3.537-2.057-5.251-3.359c-2.64-2.005-5.043-4.268-7.245-6.712c0.837-0.229,1.651-0.533,2.428-0.949
		C60.93,475.349,64.306,479.025,68.108,482.222z M52.562,461.404c1.365,3.149,2.969,6.087,4.787,8.821
		c-0.779,0.463-1.599,0.84-2.45,1.139c-2.359-2.719-4.467-5.66-6.336-8.749c0.843,0.046,1.69-0.069,2.49-0.389
		C51.501,462.047,52.063,461.764,52.562,461.404z M42.627,429.85c1.921-0.23,3.786-0.993,5.425-2.072
		c-0.536,3.954-0.705,7.959-0.507,11.945c-2.552,1.419-5.15,2.727-7.793,2.085c-1.172-4.327-2.012-8.756-2.411-13.21
		C38.964,429.408,40.52,430.102,42.627,429.85z M37.266,427.592c-0.319-4.239-0.266-8.487,0.244-12.665
		c3.257,2.485,8.756,2.602,13.096,1.636c-1.027,3.136-1.79,6.357-2.315,9.618c-1.894,1.014-3.711,2.152-5.919,2.399
		C40.522,428.786,38.896,428.24,37.266,427.592z M47.645,441.248c0.243,3.31,0.748,6.599,1.501,9.83
		c-0.769,0.299-1.516,0.676-2.274,0.987c-1.026,0.421-2.075,0.778-3.131,1.111c-1.431-3.322-2.685-6.761-3.692-10.289
		C42.591,443.595,45.539,442.949,47.645,441.248z M47.469,453.135c0.654-0.272,1.33-0.542,1.96-0.882
		c0.599,2.364,1.332,4.694,2.211,6.971c0.119,0.309,0.259,0.599,0.382,0.904c-0.39,0.352-0.779,0.716-1.254,0.945
		c-0.89,0.428-1.824,0.634-2.771,0.612c-0.632-1.083-1.244-2.178-1.819-3.292c-0.689-1.335-1.338-2.703-1.959-4.09
		C45.316,453.954,46.404,453.578,47.469,453.135z M51.233,414.744c-1.866,0.369-3.724,0.866-5.652,0.908
		c-2.675,0.057-5.73-0.477-7.897-2.162c0.508-3.444,1.321-6.834,2.482-10.124c0.057-0.161,0.124-0.317,0.182-0.477
		c1.61,1.425,4.182,2.252,5.963,2.792c2.815,0.853,5.947,1.259,8.759,0.548C53.562,408.962,52.294,411.816,51.233,414.744z
		 M56.588,403.61c-0.2,0.322-0.376,0.657-0.569,0.982c-2.671,0.903-5.686,0.623-8.437-0.117c-2.331-0.627-4.987-1.429-6.62-3.194
		c1.534-3.959,3.371-7.755,5.496-11.375c0.927,2.07,2.164,3.982,3.94,5.45c2.545,2.104,6.438,3.045,9.838,3.069
		C58.943,400.096,57.707,401.811,56.588,403.61z M61.113,397.284c-3.472-1.035-7.122-0.511-10.123-3.066
		c-1.757-1.496-2.906-3.443-3.805-5.517c2.51-4.116,5.362-8.018,8.512-11.696c0.68,3.277,2.082,6.6,3.807,9.157
		c1.662,2.461,4.459,4.095,7.41,4.809C64.849,392.951,62.913,395.061,61.113,397.284z M68.131,389.809
		c-3.289-0.799-6.279-2.173-8.13-5.337c-1.484-2.537-2.728-5.507-3.409-8.487c2.001-2.272,4.104-4.464,6.306-6.568
		c0.839,3.604,3.394,7.323,5.5,9.466c2.151,2.19,5.011,4.049,7.96,4.443C73.46,385.286,70.708,387.454,68.131,389.809z
		 M78.272,382.071c-4.1,0.224-8.165-3.091-10.509-6.3c-1.245-1.704-2.222-3.614-2.86-5.625c-0.221-0.697-0.368-1.421-0.509-2.146
		c4.714-4.342,9.817-8.318,15.167-11.931c-1.436,7.77,0.616,16.926,7.063,21.426C83.746,378.84,80.956,380.373,78.272,382.071z
		 M88.421,376.695c-3.431-2.335-5.964-5.294-7.166-9.642c-1.118-4.043-0.78-7.967-0.223-11.97c4.131-2.716,8.396-5.222,12.727-7.519
		c-1.667,4.292-1.253,9.403-0.377,13.828c0.812,4.104,2.754,8.978,6.365,11.375C95.882,373.765,92.093,375.093,88.421,376.695z
		 M104.742,371.641c-0.999,0.185-1.993,0.404-2.984,0.63c-7.852-4.968-9.481-17.343-6.015-25.744
		c4.537-2.33,9.135-4.437,13.716-6.321c-2.165,4.135-3.177,9.216-3.528,13.299c-0.458,5.322,0.655,13.244,4.978,17.242
		C108.834,370.964,106.774,371.265,104.742,371.641z M112.584,370.595c-1.432-2.208-3.06-4.133-3.998-6.697
		c-1.104-3.018-1.518-6.234-1.402-9.437c0.126-3.474,0.892-6.892,2.002-10.177c0.51-1.508,1.06-3.139,1.77-4.681
		c0.4-0.16,0.8-0.326,1.199-0.483c3.321-1.305,6.686-2.522,10.071-3.684c-2.928,5.594-4.385,12.127-4.482,18.302
		c-0.082,5.197,0.481,12.04,3.642,16.664C118.452,370.279,115.507,370.355,112.584,370.595z M122.961,370.505
		c-1.644-2.336-2.41-5.391-2.976-8.082c-0.717-3.409-0.951-6.91-0.753-10.386c0.361-6.301,2.294-11.927,5.171-17.355
		c4.384-1.459,8.808-2.795,13.257-3.985c0.273-0.073,0.546-0.135,0.82-0.206c-3.813,4.449-6.515,9.944-8.042,15.5
		c-2.177,7.921-2.297,17.949,1.166,25.687C128.766,371.066,125.872,370.698,122.961,370.505z M134.801,372.462
		c-0.52-0.146-1.043-0.28-1.567-0.41c-1.238-4.227-2.529-8.179-2.795-12.665c-0.26-4.383,0.178-8.792,1.322-13.032
		c1.683-6.245,4.893-11.533,8.862-16.398c2.787-0.648,5.592-1.157,8.427-1.471c-1.697,2.327-2.998,5.121-4.043,7.544
		c-1.799,4.171-2.964,8.584-3.568,13.083c-0.701,5.217-0.588,10.528,0.016,15.75c0.419,3.622,0.87,7.607,1.938,11.254
		C140.658,374.62,137.833,373.313,134.801,372.462z M145.026,377.042c-0.638-4.06-1.828-8.086-2.281-12.178
		c-0.529-4.779-0.584-9.594-0.053-14.376c0.483-4.346,1.511-8.653,3.128-12.719c0.82-2.061,1.802-4.061,2.941-5.965
		c0.733-1.226,1.627-2.357,2.463-3.517c1.203-0.088,2.41-0.148,3.626-0.157c4.671-0.033,9.362,0.694,14.026,0.553
		c-5.378,7.614-9.305,16.603-12.354,25.302c-2.883,8.226-5.758,18.081-4.766,27.137
		C149.517,379.763,147.295,378.356,145.026,377.042z M158.526,384.851c-1.699-0.801-3.354-1.707-4.989-2.665
		c-0.372-4.275-0.386-8.428,0.338-12.81c0.845-5.113,2.304-10.126,3.994-15.019c3.023-8.755,7.33-16.592,11.796-24.578
		c-0.647,2.018-1.003,4.155-0.95,6.439c0.113,4.81,0.597,9.617,1.003,14.426c-1.007,1.891-1.839,3.912-2.68,5.786
		c-1.523,3.397-2.899,6.86-4.117,10.378c-1.257,3.629-2.39,7.32-3.264,11.062C159.169,379.964,158.569,382.474,158.526,384.851z
		 M160.215,385.604c0.205-2.612,0.27-5.214,0.886-7.846c0.839-3.582,1.902-7.121,3.093-10.6c1.22-3.567,2.602-7.079,4.145-10.52
		c0.488-1.086,1.043-2.162,1.6-3.241c0.399,5.33,0.6,10.661-0.014,15.999c-0.71,6.176-2.654,12.169-5.595,17.628
		C162.917,386.646,161.55,386.163,160.215,385.604z M195.375,476.348c0.327-1.607,0.202-3.017-0.259-4.245
		c1.225,0.035,2.432,0.172,3.574,0.713c1.751,0.83,3.298,2.545,3.894,4.489C200.347,476.632,197.74,476.183,195.375,476.348z
		 M205.924,475.366c-0.916-2.269-2.429-4.216-4.829-5.5c-0.667-0.357-1.414-0.648-2.191-0.869c0.665-1.389,0.986-2.902,0.974-4.401
		c2.671,0.09,5.37,0.126,7.147,2.515c1.531,2.057,2.692,5.023,2.913,7.79C208.52,474.656,207.033,474.745,205.924,475.366z
		 M211.157,439.175c0.958,4.047,3.094,7.89,6.324,10.552c0.849,0.699,1.788,1.238,2.703,1.839c2.037,1.339,2.881,1.256,2.931,4.046
		c0.036,2.021-0.981,3.303-1.434,4.918c-1.309-1.38-2.903-2.486-4.719-3.272c-2.263-0.98-5.009-1.301-7.109-2.627
		c-3.389-2.14-4.104-6.393-3.875-10.106c0.039-0.631-1.008-0.788-1.118-0.151c-0.782,4.539-2.078,9.102,1.975,12.565
		c2.057,1.758,4.744,2.349,7.196,3.327c4.362,1.739,8.959,6.62,6.504,11.545c-2.355,0.107-4.685-0.249-7.049-0.099
		c-0.841-2.998-2.37-5.885-4.377-7.816c-2.324-2.236-6.45-3.304-9.804-2.497c-0.587-1.607-1.617-3.066-3.116-4.166
		c-1.922-1.411-4.192-1.844-6.445-2.365c2.463-5.392,2.487-12.901,2.604-18.522c0.109-5.251,0.348-12.559-1.931-17.765
		c0.731-0.774,1.514-1.517,2.368-2.213c4.858-3.959,10.626-6.57,16.255-9.285c2.68,2.067,5.941,3.432,9.355,4.408
		C213.002,419.582,208.852,429.436,211.157,439.175z M212.846,405.179c7.289-3.796,13.57-8.69,18.908-14.375
		c-1.164,6.437-3.829,12.489-8.168,17.379C219.975,407.276,216.447,406.181,212.846,405.179z M231.062,409.668
		c-2.171-0.293-4.276-0.72-6.351-1.213c4.859-5.354,8.097-12.048,8.625-19.398c6.559-7.449,11.588-16.144,15.141-25.518
		c0.012,2.182,0,4.365-0.14,6.555c-0.326,5.113-0.998,10.2-2.002,15.224c-1.703,8.525-4.055,17.735-9.033,25.036
		C235.219,410.168,233.137,409.948,231.062,409.668z M238.544,410.469c5.093-7.468,7.523-16.464,9.26-25.265
		c1.64-8.307,2.839-17.418,2.214-26.042c1.062-3.274,1.975-6.609,2.699-9.996c2.506,1.739,5.167,3.21,7.943,4.408
		c-0.499,4.303-0.741,8.652-1.237,12.951c-0.699,6.066-1.602,12.107-2.701,18.113c-1.701,9.298-2.973,19.459-10.01,26.267
		C243.985,410.835,241.262,410.689,238.544,410.469z M267.519,404.535c0.051,1.786-0.036,3.71,0.244,5.516
		c-4.021,0.433-8.055,0.699-12.058,0.826c-2.236,0.071-4.474,0.091-6.711,0.067c6.065-5.738,7.305-16.349,8.729-23.905
		c1.091-5.787,1.996-11.608,2.724-17.452c0.633-5.083,1.355-10.317,1.477-15.487c2.917,1.151,5.956,1.998,9.099,2.48
		c0.674,0.103,1.411,0.211,2.183,0.312c-2.76,7.944-3.867,16.888-4.77,25.083c-0.55,4.991-0.868,10.008-0.957,15.028
		C267.435,399.515,267.448,402.025,267.519,404.535z M269.288,409.88c0.03-1.609-0.186-3.249-0.24-4.843
		c-0.085-2.509-0.113-5.02-0.081-7.53c0.059-4.686,0.317-9.368,0.776-14.032c0.485-4.933,1.188-9.844,2.117-14.714
		c0.748-3.925,1.831-7.798,2.647-11.712c4.093,0.445,8.932,0.494,12.08-1.619c-1.73,4.161-2.4,9.034-3.084,13.395
		c-0.79,5.032-1.236,10.115-1.299,15.209c-0.064,5.192,0.255,10.385,0.938,15.532c0.314,2.363,0.511,4.94,1.231,7.215
		c0.032,0.1,0.066,0.194,0.1,0.287C279.502,408.373,274.411,409.27,269.288,409.88z M285.968,406.657
		c-0.925-1.637-0.994-4.873-1.206-6.327c-0.365-2.502-0.634-5.018-0.816-7.54c-0.303-4.208-0.355-8.433-0.164-12.647
		c0.203-4.478,0.666-8.939,1.422-13.358c0.424-2.48,1.096-4.936,1.68-7.4c0.692,6.874,3.757,13.497,6.3,19.831
		c0.261,0.651,0.536,1.303,0.809,1.955c-0.801,3.673-1.023,7.617-1.075,11.235c-0.056,3.851,0.335,7.727,1.545,11.38
		C291.687,404.89,288.853,405.849,285.968,406.657z M295.839,403.211c-1.161-3.812-1.634-7.679-1.552-11.731
		c0.055-2.669,0.396-5.305,0.715-7.942c2.413,5.583,4.988,11.216,6.357,17.11C299.557,401.591,297.708,402.426,295.839,403.211z
		 M349.011,482.282c0.192-1.574-0.119-3.357-0.938-5.181c1.521-0.259,3.04-0.373,4.638,0.158c2.005,0.666,4.786,3.28,4.877,5.763
		C354.909,482.357,351.827,481.999,349.011,482.282z M362.927,481.24c-0.9,0.032-1.717-0.426-2.492-1.116
		c-1.789-1.594-3.353-4.429-5.212-5.326c-1.579-0.762-3.503-1.172-5.379-1.103c0.592-1.262,0.912-2.646,0.963-4.055
		c3.083-0.306,5.63-0.76,8.45,1.822C360.862,472.931,369.315,481.013,362.927,481.24z M378.461,389.105
		c1.369,5.267,0.022,10.494-1.351,15.592c-2.091,7.769-3.898,15.522-3.436,23.635c0.216,3.797,0.979,7.499,1.7,11.224
		c0.896,4.627,0.761,9.181,1.374,13.783c0.357,2.678,1.214,4.687,3.255,6.503c3.263,2.903,6.71,4.784,4.018,9.346
		c-3.571-2.727-11.194-3.404-10.882-8.073c0.067-1.003-1.596-1.248-1.774-0.24c-0.386,2.188-0.942,4.784,0.693,6.632
		c2.414,2.729,6.689,1.619,9.308,4.297c2.63,2.689,2.5,6.821-1.168,8.605c-1.927,0.937-4.352,0.781-6.448,0.816
		c-1.605,0.027-3.212,0.039-4.816,0.078c0.113-0.366,0.131-0.77-0.015-1.2c-2.682-7.894-9.631-17.276-18.671-14.229
		c-0.576-1.708-1.552-3.008-2.743-4.115c0.003-0.034,0.012-0.065,0.013-0.1c0.323-12.29-1.729-24.584-1.372-36.945
		c0.169-5.87,0.298-11.76-0.122-17.623c-0.281-3.911-0.543-8.429-2.207-12.124c1.313-0.411,2.62-0.862,3.914-1.407
		c4.173-1.758,8.304-3.641,12.337-5.701c4.75-2.427,9.353-5.145,13.706-8.216C375.842,382.521,377.559,385.636,378.461,389.105z
		 M340.923,395.817c0.095,4.679,1.229,9.541,1.299,14.188c0.089,5.888-0.302,11.773-0.456,17.657
		c-0.265,10.109-0.138,20.828,1.29,30.961c-0.218-0.13-0.434-0.26-0.653-0.391c-6.471-3.857-5.547-9.229-6.65-15.814
		c-1.157-6.908-4.699-12.793-5.048-19.96c-0.408-8.38,1.628-16.551,3.552-24.719C336.469,397.007,338.7,396.433,340.923,395.817z
		 M334.712,395.792c0.891-3.85,1.712-7.704,2.194-11.582c0.233-1.874,0.397-3.735,0.498-5.585c0.602,1.729,1.159,3.473,1.625,5.232
		c0.819,3.096,0.759,6.055,0.965,9.12C338.243,393.939,336.498,394.906,334.712,395.792z M341.597,392.102
		c0.162-2.564-0.442-5.355-1.026-7.677c-0.727-2.888-1.831-5.582-3.074-8.249c0.122-4.884-0.194-9.697-0.915-14.47
		c2.374-1.095,4.573-2.871,6.555-4.845c3.037,4.211,5.711,8.322,7.28,13.505c0.92,3.039,1.477,6.188,1.632,9.36
		c0.126,2.566-0.304,5.063-0.425,7.588c-1.814,0.853-3.637,1.686-5.47,2.501C344.595,390.509,343.09,391.296,341.597,392.102z
		 M351.829,369.978c-1.508-4.918-4.031-10.27-7.708-14.131c1.471-1.565,2.812-3.199,3.986-4.689c0.959-1.217,1.867-2.47,2.732-3.75
		c4.766,3.048,8.744,7.204,11.453,12.218c1.701,3.149,2.854,6.58,3.441,10.109c0.318,1.908,0.466,3.846,0.447,5.78
		c-0.014,1.379-0.254,2.758-0.311,4.131c-1.983,1.241-4.064,2.452-6.3,3.673c-2.015,1.1-4.061,2.133-6.125,3.131
		C354.49,381.195,353.295,374.758,351.829,369.978z M367.516,378.588c0.388-2.586,0.095-5.457-0.227-7.857
		c-0.516-3.854-1.675-7.604-3.453-11.063c-2.822-5.49-7.136-10.023-12.339-13.264c2.228-3.419,4.172-7.021,5.942-10.702
		c6.411,3.34,12.011,7.827,16.198,13.828c2.221,3.184,4.027,6.665,5.306,10.332c0.912,2.617,1.351,5.234,1.761,7.896
		C376.445,372.105,372.255,375.482,367.516,378.588z M382.192,366.196c-0.929-6.448-4.207-13.019-7.828-17.973
		c-4.213-5.763-9.853-10.692-16.459-13.495c0.05-0.105,0.102-0.21,0.151-0.315c1.381-2.948,2.617-5.963,3.854-8.977
		c6.368,3.501,12.462,7.607,17.441,12.94c2.712,2.905,5.06,6.147,6.892,9.677c1.549,2.984,2.199,6.076,3.17,9.159
		C387.262,360.334,384.864,363.334,382.192,366.196z M390.628,355.364c-0.586-2.538-1.741-5.076-2.805-7.238
		c-1.743-3.539-4.028-6.802-6.654-9.741c-5.268-5.897-11.86-10.357-18.812-14.034c1.254-3.05,2.525-6.092,3.966-9.055
		c6.892,2.299,13.485,5.535,19.433,9.71c3.05,2.141,5.99,4.51,8.475,7.3c1.214,1.363,2.319,2.826,3.233,4.409
		c0.512,0.885,0.89,1.824,1.273,2.759C396.57,345.027,393.891,350.338,390.628,355.364z M399.529,337.35
		c-0.888-1.768-2.115-3.431-3.235-4.811c-2.392-2.945-5.302-5.418-8.346-7.661c-6.423-4.732-13.543-8.255-21.138-10.578
		c1.433-2.836,3.175-5.391,5.046-7.845c6.609-0.255,13.085,1.918,19.112,4.55c5.453,2.381,9.578,5.48,13.168,10.061
		C402.956,326.651,401.446,332.095,399.529,337.35z M405.235,315.368c-0.218,1.268-0.453,2.53-0.7,3.785
		c-2.969-4.525-8.5-7.442-13.25-9.475c-5.778-2.473-12.212-4.788-18.571-4.348c2.237-2.845,4.623-5.582,6.884-8.487
		c2.092,0.26,4.31,0.156,6.366,0.548c2.709,0.517,5.361,1.319,7.902,2.387c4.724,1.985,8.819,4.855,12.513,8.319
		C406.023,310.526,405.65,312.951,405.235,315.368z M406.613,306.511c-3.464-3.462-7.684-6.196-12.174-8.093
		c-2.729-1.153-5.571-2.02-8.487-2.553c-1.554-0.284-3.359-0.66-5.097-0.726c1.549-2.195,2.837-4.472,3.901-6.818
		c3.942,0.92,7.869,1.961,11.671,3.34c2.436,0.884,4.822,1.907,7.079,3.185c1.519,0.86,2.874,1.972,4.291,2.973
		C407.413,300.718,407.027,303.617,406.613,306.511z M408.036,296.016c-2.781-2.299-6.596-3.861-9.674-5.059
		c-4.255-1.656-8.692-2.685-13.141-3.654c1.333-3.151,2.29-6.418,2.982-9.762c6.584,3.375,14.287,5.286,21.647,5.554
		C409.185,287.389,408.607,291.702,408.036,296.016z M410.076,281.707c-7.612-0.734-14.582-2.487-21.664-5.229
		c0.743-3.916,1.15-7.93,1.388-11.982c2.368,2.408,6.105,4.186,8.581,5.256c4.203,1.816,8.71,2.785,13.263,3.121
		C411.055,275.803,410.548,278.751,410.076,281.707z M411.92,271.559c-3.792-0.274-7.53-0.956-11.129-2.254
		c-2.213-0.798-4.351-1.819-6.347-3.066c-1.452-0.906-3.284-2.03-4.555-3.452c0.106-2.202,0.176-4.411,0.23-6.619
		c0.04-1.623,0.087-3.247,0.144-4.87c2.278,3.221,6.463,5.086,10.08,6.206c4.583,1.42,9.887,2.829,14.689,1.777
		C413.79,263.332,412.784,267.431,411.92,271.559z M415.799,256.831c-0.113,0.341-0.212,0.685-0.322,1.027
		c-0.959,0.121-1.861,0.382-2.877,0.464c-1.233,0.099-2.443-0.134-3.653-0.328c-2.446-0.392-4.901-0.878-7.289-1.536
		c-4.6-1.268-7.843-3.399-11.345-6.376c0.14-3.422,0.358-6.838,0.807-10.226c2.141,3.676,5.89,6.337,10.002,7.934
		c3.459,1.342,7.225,2.242,10.898,2.755c2.041,0.285,4.312,0.432,6.227-0.284C417.343,252.456,416.52,254.657,415.799,256.831z
		 M419,248.474c-5.248,1.541-10.619,0.291-15.811-1.382c-4.849-1.561-9.708-4.577-11.785-9.218c0.295-1.837,0.658-3.666,1.126-5.481
		c0.206-0.8,0.432-1.59,0.671-2.375c1.327,1.943,3.526,3.579,5.294,4.817c2.753,1.927,5.911,3.335,9.197,4.049
		c6.265,1.362,12.675,0.216,18.131-2.943C423.148,239.885,420.89,244.151,419,248.474z M427.63,233.442
		c-0.014,0.008-0.028,0.008-0.043,0.018c-5.773,3.919-13.05,5.503-19.884,3.892c-3.027-0.714-5.909-2.021-8.455-3.806
		c-2.119-1.486-3.594-3.619-5.492-5.256c1.461-4.323,3.39-8.426,5.643-12.386c4.19,4.775,9.204,8.808,15.11,11.271
		c4.808,2.005,11.046,3.276,16.474,2.176C429.798,230.647,428.696,232.028,427.63,233.442z M432.826,227.449
		c-2.858,0.492-5.623,0.965-8.602,0.735c-3.706-0.286-7.326-1.287-10.696-2.844c-5.224-2.414-9.706-6.143-13.627-10.316
		c0.403-0.69,0.812-1.378,1.234-2.06c0.17,0.035,0.339,0.067,0.511,0.087c1.146,1.477,2.452,2.837,3.948,4.029
		c3.893,3.101,8.704,4.382,13.531,5.188c5.572,0.931,11.192,1.648,16.798,2.392C434.848,225.535,433.821,226.473,432.826,227.449z
		 M499.551,205.197c-0.306,3.961-1.313,7.803-2.397,11.71c-0.035,0.125-0.053,0.247-0.062,0.366
		c-2.043-0.623-4.021-1.439-5.973-2.334C494.453,212.417,497.084,208.752,499.551,205.197z M485.5,206.493
		c1.166-1.851,0.825-2.455,1.358-0.135c0.525,2.283,0.698,4.644,0.902,6.982c-1.855-0.906-3.708-1.82-5.591-2.645
		C483.449,209.475,484.505,208.07,485.5,206.493z M472.176,204.76c0.513-0.989,0.954-2.002,1.361-3.03
		c0.902,1.143,1.24,2.719,1.758,4.124c0.36,0.979,0.783,1.939,1.211,2.894c-2.039-0.542-4.095-0.954-6.168-1.31
		C471.002,206.604,471.655,205.764,472.176,204.76z M455.874,194.74c-0.49-2.109-1.17-4.094-2.048-6.078
		c2.136-0.136,4.245-0.052,6.359,0.08C458.953,190.92,457.531,192.897,455.874,194.74z M467.609,194.591
		c-1.007-1.855-2.01-3.712-2.979-5.588c0.697,0.03,1.397,0.051,2.102,0.053c1.195,0.005,2.353-0.084,3.491-0.234
		C469.405,190.77,468.535,192.692,467.609,194.591z M482.64,189.085c0,2.356-1.498,4.988-2.223,7.195
		c-0.83-1.381-1.663-2.629-2.285-4.116c-0.656-1.567-1.269-3.147-1.889-4.725c1.629-0.511,3.25-1.1,4.9-1.721
		c0.993-0.374,1.984-0.726,2.975-1.042C483.623,186.145,483.129,187.614,482.64,189.085z M493.221,195.365
		c-0.616-4.153-1.556-8.161-3.25-12.04c2.395-0.305,4.834-0.271,7.365,0.278c0.703,0.153,1.453,0.428,2.227,0.738
		C497.715,188.226,495.69,191.873,493.221,195.365z M507.148,177.63c-0.997,3.408-1.722,3.681-4.779,2.438
		c-6.825-2.774-14.063-2.17-20.867,0.268c-4.595,1.646-8.907,3.623-13.871,3.76c-4.507,0.124-8.954-0.898-13.473-0.593
		c-9.535,0.644-19.001,5.482-28.51,2.366c-3.085-1.011-4.495,4.163-1.335,4.843c0.945,0.338,1.885,0.586,2.822,0.787
		c6.232,2.142,10.857,6.47,16.293,10.415c5.513,4,11.113,6.974,17.845,8.334c8.076,1.63,15.298,2.68,22.772,6.395
		c4.427,2.2,8.688,4.317,13.331,5.569c-2.87,2.677-5.959,5.173-9.644,6.522c-6.402,2.343-10.393-0.646-16.027-3.071
		c-4.143-1.783-8.742-2.194-13.159-2.869c-10.994-1.679-21.604-3.203-32.635-4.74c-4.872-0.679-10.01-1.142-14.497-3.319
		c-8.743-4.242-11.174-14.091-13.978-22.557c-0.389-1.174-2.218-1.015-2.211,0.299c0.023,4.385,0.747,8.926,2.314,13.109
		c-0.607-0.634-1.169-1.324-1.624-2.141c-2.319-4.165-3.113-9.535-4.482-14.07c-0.174-0.577-1.142-0.501-1.093,0.148
		c0.424,5.62,0.45,11.765,3.345,16.802c1.038,1.805,2.59,3.875,4.464,5.245c-7.196,10.002-10.793,21.72-11.864,34.026
		c-1.309,15.041,0.724,31.812-7.865,45.104c-3.851,5.96-9.291,10.7-13.057,16.734c-3.723,5.967-6.056,12.678-8.803,19.117
		c-2.656,6.225-5.568,12.39-9.325,18.036c-1.894,2.846-4.014,5.541-6.429,7.964c-0.842,0.844-1.761,1.599-2.698,2.33
		c1.41-6.363-0.369-13.492-4.768-18.152c-0.571-0.604-1.469,0.301-0.91,0.91c4.388,4.78,3.412,10.126,2.442,15.553
		c-0.664-2.642-1.441-5.278-2.337-7.912c-0.26-0.765-1.405-0.461-1.216,0.335c3.007,12.69,3.506,26.123,1.375,38.988
		c-1.943,11.726-6.374,23.022-6.58,35.016c-0.098,5.651,0.932,10.926,2.886,16.212c1.938,5.242,2.303,10.128,3.203,15.562
		c0.646,3.897,2.312,7.004,5.553,9.319c2.056,1.469,4.677,2.296,6.539,4.036c2.572,2.406,2.218,5.518,0.723,8.212
		c-3.842-3.225-9.437-3.207-14.506-2.321c-0.872,0.152-0.635,1.495,0.204,1.507c4.655,0.067,10.791,1.723,12.945,6.314
		c2.972,6.337-8.471,4.96-11.975,5.091c-3.982,0.149-7.964,0.3-11.946,0.455c-4.51,0.175-14.103,2.471-14.814-4.39
		c-0.387-3.735,0.976-7.96,0.804-11.806c-0.164-3.668-0.693-7.305-1.273-10.926c-1.483-9.263-3.572-18.654-1.568-28.009
		c1.7-7.939,5-15.313,4.203-23.612c-0.681-7.093-3.569-13.68-6.438-20.118c-3.427-7.69-7.668-15.615-9.658-23.834
		c-2.35-9.706,2.051-19.122,5.665-27.889c0.295-0.717-0.842-1.14-1.221-0.515c-2.235,3.685-4.49,7.633-6.148,11.766
		c0.008-0.153,0.003-0.307,0.017-0.46c0.44-4.884,2.337-9.12,3.885-13.696c0.217-0.644-0.685-1.151-1.137-0.662
		c-3.208,3.47-4.763,8.093-5.402,12.727c-0.419,3.034-0.842,7.195,0.217,10.457c-2.015-0.639-4.002-0.324-6.159-0.293
		c-3.416,0.048-6.761-0.122-10.118-0.813c-5.699-1.174-10.873-3.503-15.623-6.776c-0.049-0.372-0.259-0.742-0.573-0.957
		c3.689-5.989,5.864-14.376,4.99-20.925c-0.095-0.711-1.071-0.95-1.312-0.178c-1.182,3.779-1.762,7.714-2.983,11.489
		c-0.119,0.367-0.25,0.728-0.383,1.088c0.309-3.687,0.442-7.388,0.385-11.077c-0.015-0.936-1.294-0.872-1.41,0
		c-2.443,18.296-6.145,36.309-16.322,52.033c-4.519,6.982-10.227,13.344-16.92,18.312c-5.898,4.379-12.622,7.239-19.152,10.506
		c-13.06,6.533-21.067,15.308-22.878,30.206c-0.711,5.848-1.89,15.973,2.98,20.519c3.961,3.698,19.282,3.318,12.628,12.203
		c-0.145,0.194-0.238,0.386-0.309,0.577c-0.208,0.069-0.418,0.131-0.616,0.222c-3.028-2.789-8.229-3.936-12.108-3.817
		c-2.222,0.068-2.097,3.105,0,3.365c2.737,0.339,7.715,1.018,9.03,3.991c2.729,6.166-5.343,5.632-7.966,5.737
		c-5.453,0.217-10.907,0.39-16.361,0.585c-1.918,0.069-4.285,0.579-6.135,0.22c-4.254-0.826-5.02-3.207-5.167-6.953
		c-0.219-5.545-0.393-11.092-0.584-16.638c-0.358-10.398-0.775-20.796-1.041-31.196c-0.112-4.386-0.889-9.523,0.378-13.823
		c1.378-4.676,5.618-7.687,8.69-11.212c11.95-13.716,14.293-30.651,12.645-48.224c-0.491-5.232-1.341-10.523-1.387-15.785
		c-0.045-5.128,1.672-8.62,5.311-12.116c7.279-6.992,16.73-10.931,25.073-16.411c0.762-0.501,0.302-1.842-0.648-1.538
		c-5.011,1.607-10.925,3.885-16.411,6.938c5.095-4.468,10.631-8.43,16.135-12.382c0.478-0.344,0.204-1.114-0.41-0.972
		c-10.082,2.336-17.7,9.321-22.819,18.013c-3.258,2.56-6.034,5.504-7.931,8.859c-18.548-6.628-39.981,1.227-57.293,8.063
		c-16.453,6.497-32.366,14.76-46.289,25.75c-13.954,11.015-26.119,25.578-32.093,42.509c-6.434,18.233-2.714,39.076,5.417,56.178
		c4.434,9.325,10.77,17.784,19.025,24.055c6.369,4.838,14.856,9.438,23.154,9.361c4.152,1.899,8.525,3.467,13.076,4.685
		c12.8,3.424,26.07,4.549,39.207,5.888c4.115,0.419,8.229,0.848,12.344,1.273c-6.966,0.1-13.932,0.221-20.896,0.275
		c-9.456,0.072-18.989-0.065-28.302-1.879c-8.278-1.613-16.286-4.374-24.104-7.497c-14.451-5.772-29.512-12.474-40.703-23.597
		c-12.236-12.162-17.761-30.353-18.539-47.298c-0.805-17.507,8.095-32.494,16.039-47.454c6.897-12.988,14.357-25.825,24.008-36.989
		c10.356-11.979,22.821-21.022,37.865-26.16c15.305-5.227,31.446-7.126,47.114-10.915c35.669-8.625,67.569-38.888,105.989-31.027
		c1.609,2.128,3.153,4.306,4.636,6.528c0.006,0.036,0.012,0.072,0.017,0.108c0.083,0.552,0.388,0.907,0.781,1.1
		c0.465,0.711,0.931,1.422,1.386,2.14c2.73,4.305,5.392,8.872,9.067,12.321c1.038,3.984,4.664,7.702,7.642,9.92
		c5.241,3.904,11.218,5.502,17.435,3.327c0.936-0.327,0.753-1.623-0.23-1.701c-4.994-0.396-10.52-1.818-14.662-4.667
		c-1.011-0.696-1.862-1.478-2.623-2.311c6.331,2.074,14.186,1.294,18.837-3.776c0.938-1.022,0.037-2.995-1.444-2.481
		c-8.588,2.978-16.881,3.69-23.446-3.893c-3.564-4.117-6.377-8.924-9.339-13.596c-0.713-14.006-5.454-27.044-11.878-39.502
		c-6.743-13.077-14.64-26.149-14.15-41.387c0.535-16.61,8.908-32.858,15.169-47.935c2.992-7.204,6.093-14.358,9.505-21.374
		c2.545-5.232,7.546-10.992,3.901-16.751c-3.191-5.041-8.355-9.542-12.621-13.665c-4.957-4.79-10.202-9.27-15.669-13.467
		c-10.665-8.187-22.175-15.229-34.244-21.146c-25.38-12.442-52.947-19.751-80.941-23.2c-27.392-3.375-55.641-3.467-83.309-0.555
		c29.435-7.029,59.661-11.143,89.885-8.568c40.402,3.442,76.595,22.906,111.596,42.077c9.427,5.163,18.694,10.636,27.614,16.639
		c5.065,3.408,10.038,6.97,14.84,10.739c1.785,1.401,3.636,2.779,5.291,4.337c1.503,1.414,3.728,4.126,4.199,6.624
		c-4.036,4.495-7.276,9.68-10.732,14.624c-3.866,5.529-7.765,11.05-11.163,16.884c-6.099,10.475-10.251,21.964-9.566,34.237
		c0.746,13.38,6.029,26.148,11.15,38.36c5.055,12.052,10.697,23.883,17.07,35.296c10.576,18.939,26.075,38.487,49.659,39.323
		c22.513,0.798,33.981-18.117,37.482-37.943c2.341-13.258,2.712-26.828,2.88-40.257c0.089-7.141,0.214-14.337,1.309-21.409
		c0.39-2.52,0.997-4.936,1.74-7.301c6.219-13.954,13.317-30.407,28.983-35.193c3.587-1.096,7.366-1.394,11.006-2.274
		c4.272-1.032,8.391-2.727,12.703-3.594c9.818-1.974,19.003,2.302,27.38,6.993c2.255,1.262,4.476,2.586,6.705,3.897
		c1.673,1.963,2.149,4.71,1.645,7.387c-0.47,2.497-1.938,4.654-2.139,7.185c-0.056,0.703,0.88,0.998,1.337,0.554
		c3.454-3.353,4.384-9.071,2.443-13.217c2.276,1.299,4.581,2.541,6.95,3.66c0.811,1.278,1.331,2.713,1.32,4.297
		c-0.022,2.953-2.209,5.076-2.638,7.858c-0.106,0.689,0.63,1.58,1.357,1.043c2.811-2.077,4.279-6.466,3.752-9.884
		c-0.102-0.662-0.293-1.281-0.524-1.879c1.232,0.498,2.48,0.937,3.74,1.338c1.505,1.876,2.231,3.931,1.751,6.702
		c-0.367,2.124-1.408,4.004-1.576,6.168c-0.064,0.828,1.09,1.26,1.633,0.676c2.142-2.303,3.027-5.93,2.769-9.031
		c-0.111-1.344-0.484-2.501-1.045-3.538c0.875,0.197,1.758,0.366,2.651,0.499c4.747,0.703,9.721,0.084,14.322,1.652
		c4.873,1.66,8.482,5.66,9.452,10.727C507.896,173.07,507.813,175.355,507.148,177.63z M188.444,435.368
		c-0.114,3.726-0.469,7.434-1.088,11.111c-0.401,2.38-1.097,4.681-1.33,7.048c-3.797-2.426-3.669-7.629-3.585-12.15
		c0.127-6.873,1.552-13.709,5.22-19.3C187.731,426.488,188.575,431.116,188.444,435.368z"/>
</g>
<g>
</g>
<g>
</g>
<g>
</g>
<g>
</g>
<g>
</g>
<g>
</g>
<g>
</g>
<g>
</g>
<g>
</g>
<g>
</g>
<g>
</g>
<g>
</g>
<g>
</g>
<g>
</g>
<g>
</g>
</svg>
