<?xml version="1.0" encoding="iso-8859-1"?>
<!-- Generator: Adobe Illustrator 19.0.0, SVG Export Plug-In . SVG Version: 6.00 Build 0)  -->
<svg version="1.1" id="Capa_1" xmlns="http://www.w3.org/2000/svg" xmlns:xlink="http://www.w3.org/1999/xlink" x="0px" y="0px"
	 viewBox="0 0 512 512" style="enable-background:new 0 0 512 512;" xml:space="preserve">
<g>
	<path style="fill:#FFFFFF;" d="M502.105,178.11c-1.176,0.296-2.451,0.44-3.898,0.44c-0.777,0-1.631-0.042-2.61-0.127l-1.32-0.116
		l0.252,1.302c0.337,1.746,0.568,3.211,0.728,4.605c0.059,0.55,0.016,2.25-0.019,3.616c-0.044,1.77-0.056,2.469-0.006,2.792
		l1.983-0.042c-0.012,0.1-0.036,0.159-0.037,0.162c0.182-0.427,1.6-2.242,2.54-3.443c0.922-1.18,1.719-2.198,2.034-2.714
		c1.022-1.656,1.912-3.454,2.719-5.498l0.805-2.036l-2.065,0.725C502.869,177.895,502.503,178.016,502.105,178.11z"/>
	<path style="fill:#FFFFFF;" d="M482.29,184.481c0.355,1.086,0.497,2.354,0.647,3.697c0.073,0.65,0.147,1.302,0.244,1.935
		l0.347,2.246l1.422-1.773c2.838-3.54,5.158-7.332,6.895-11.272l0.497-1.273l-1.38-0.131c-0.513-0.049-1.018-0.097-1.52-0.136
		c-0.585-0.042-1.162-0.062-1.735-0.062c-2.517,0-4.915,0.382-6.93,0.756l-1.447,0.269l0.783,1.247
		C481.083,181.525,481.795,182.998,482.29,184.481z"/>
	<path style="fill:#FFFFFF;" d="M489.804,198.605l-0.583-2.124l-1.215,1.838c-1.265,1.913-2.611,3.497-4.002,4.707l-1.299,1.129
		l1.625,0.569c1.756,0.615,3.522,1.312,5.248,2.072l1.489,0.633l-0.09-1.626c-0.021-0.38-0.042-0.75-0.083-1.134
		C490.621,202.245,490.275,200.318,489.804,198.605z"/>
	<path style="fill:#FFFFFF;" d="M473.102,201.716l2.464,0.525l0.036-1.694c0.009-0.346,0.018-0.699,0.018-1.057
		c0-1.864-0.01-3.708-0.03-5.562l-0.022-2.063l-1.605,1.297c-1.622,1.31-3.393,2.639-5.572,4.183
		c-0.357,0.255-0.73,0.534-1.117,0.823l-2.233,1.657l2.032,0.523C469.052,200.858,471.019,201.275,473.102,201.716z"/>
	<path style="fill:#FFFFFF;" d="M471.48,185.325l0.781,1.528l0.944-1.432c0.946-1.435,1.946-2.896,2.971-4.343l1.384-1.952
		l-2.361,0.387c-0.654,0.107-1.31,0.206-1.981,0.285c-0.837,0.104-1.723,0.154-2.705,0.154l-2.04-0.018l0.884,1.519
		C470.165,182.845,470.859,184.112,471.48,185.325z"/>
	<path style="fill:#FFFFFF;" d="M454.564,195.293l1.271,0.726c1.911,1.09,3.926,2.007,6.16,2.803l1.538,0.548l-0.211-1.619
		c-0.073-0.566-0.089-1.175-0.105-1.819l-0.006-0.232c-0.011-0.502,0.044-1.117,0.1-1.767c0.108-1.242,0.221-2.526-0.039-3.608
		c-0.083-0.345-0.337-1.395-1.306-1.395c-0.622,0-0.969,0.451-1.274,0.849c-0.122,0.159-0.266,0.349-0.439,0.524
		c-0.601,0.601-1.221,1.191-1.841,1.762c-0.896,0.826-1.832,1.597-2.711,2.308L454.564,195.293z"/>
	<path style="fill:#FFFFFF;" d="M431.933,162.778c0.503,0.106,1,0.16,1.478,0.16c1.953,0,3.364-0.862,4.729-1.695
		c0.676-0.413,1.315-0.803,2.026-1.1l2.291-0.957l-2.314-0.898c-1.173-0.455-2.424-1.038-3.846-1.792l-0.145-0.068l-1.496-0.928
		l-0.075,2.946c-0.005,0.11-0.07,0.275-0.232,0.275c-0.072,0-0.208-0.101-0.223-0.148c0.059-0.723,0.136-1.456,0.234-2.189
		l0.105-0.788l-0.744-0.281c-1.308-0.492-2.492-0.731-3.623-0.731c-1.397,0-2.758,0.361-4.158,1.104l-0.9,0.478l0.495,0.891
		C426.763,159.263,428.29,162.01,431.933,162.778z"/>
</g>
<g>
	<path style="fill:#615260;" d="M492.307,148.333c-1.369-0.149-2.786-0.304-4.169-0.583c-3.192-0.643-5.92-2.267-8.808-3.987
		c-0.615-0.366-1.23-0.732-1.851-1.089l-2.73-1.569l1.323,2.856c0.172,0.372,0.291,0.747,0.362,1.143
		c0.566,3.217-1.869,8.004-4.054,10.868c0.305-1.702,0.914-3.284,1.522-4.768c0.148-0.356,0.314-0.714,0.479-1.074
		c0.999-2.169,2.242-4.87-0.075-7.65c-1.036-1.241-2.748-1.924-4.123-2.473l-0.43-0.195l-0.228-0.247l-0.33-0.059
		c-1.578-0.283-3.183-0.421-4.904-0.421l-0.539,0.004l-2.317,0.039l1.618,1.659c0.72,0.738,1.288,1.553,1.69,2.423
		c1.438,3.097,1.647,7.892-0.162,10.385c-0.209-1.148-0.064-2.369,0.089-3.648c0.168-1.414,0.343-2.876,0.064-4.386
		c-0.473-2.598-1.856-4.814-3.798-6.079l-0.301-0.196l-0.358,0.041c-1.075,0.122-2.182,0.276-3.287,0.456
		c-1.113,0.181-2.227,0.373-3.332,0.563l-3.529,0.605l2.037,1.394c0.706,0.483,1.331,1.057,1.859,1.708
		c1.745,2.136,2.714,5.917,1.707,8.7c-0.205-0.854-0.263-1.747-0.322-2.678c-0.119-1.876-0.243-3.816-1.578-5.677
		c-0.945-1.318-2.254-2.433-3.782-3.225l-0.295-0.153l-0.327,0.054c-3.626,0.596-7.536,1.148-11.552,1.148
		c-2.671,0-5.146-0.242-7.564-0.74c-3.464-0.713-6.923-1.825-10.269-2.9c-1.163-0.374-2.325-0.748-3.488-1.105l-0.848-0.268
		c-1.567-0.501-3.189-1.019-4.828-1.019c-1.766,0-3.28,0.6-4.636,1.835c-0.849,0.781-1.534,2.062-2.196,3.3
		c-0.442,0.827-0.86,1.607-1.27,2.137c-2.103,2.734-4.878,5.162-8.249,7.216c-0.701,0.428-1.461,0.843-2.236,1.267
		c-3.326,1.816-7.095,3.876-8.169,7.911c-0.624,2.356-0.524,4.706-0.429,6.979c0.107,2.523,0.207,4.905-0.618,7.256
		c-0.403,1.149-1.031,2.325-1.696,3.57c-1.297,2.427-2.637,4.937-2.529,7.681c0.182,4.468,5.103,8.891,8.698,12.12
		c0.757,0.681,1.459,1.311,2.047,1.879c4.2,4.058,8.369,6.84,13.121,8.758c8.174,3.284,17.151,4.613,25.832,5.897
		c1.173,0.174,2.341,0.346,3.501,0.523l4.451,0.676c9.508,1.443,19.34,2.935,28.99,4.581c3.539,0.608,8.887,1.527,14.202,1.527
		c8.95,0,14.857-2.691,17.559-7.999l0.502-0.987l-1.032-0.399c-0.995-0.385-1.986-0.775-2.977-1.165
		c-5.857-2.304-11.913-4.688-18.351-5.827l-1.643-0.289c-6.568-1.15-12.772-2.236-18.607-5.63c-2.148-1.252-4.229-2.661-6.24-4.024
		c-4.529-3.068-9.213-6.242-14.913-7.768c-3.352-0.9-6.795-1.434-10.125-1.949c-3.997-0.618-8.13-1.258-12.037-2.537
		c-0.302-0.098-0.544-0.552-0.509-0.953c0.025-0.298,0.169-0.342,0.336-0.365c3.774-0.519,7.675-1.184,11.447-1.828
		c8.734-1.49,17.767-3.03,26.56-3.03c3.313,0,6.352,0.212,9.291,0.646c0.746,0.11,1.484,0.227,2.218,0.343
		c2.977,0.47,5.789,0.914,8.745,0.914c1.582,0,3.053-0.128,4.494-0.392c1.452-0.266,2.891-0.622,4.282-0.966
		c2.396-0.592,4.657-1.152,7.034-1.31c0.493-0.033,0.985-0.047,1.477-0.047c1.704,0,3.453,0.177,5.144,0.347
		c1.435,0.145,2.917,0.294,4.401,0.342c0.157,0.005,0.313,0.008,0.467,0.008c4.376,0,7.744-2.089,9.485-5.882
		c2.427-5.289,1.218-12.811-2.813-17.498C500.6,149.238,496.384,148.778,492.307,148.333z M415.731,152.123
		c1.966-4.358,6.993-6.356,11.1-6.356c2.309,0,4.468,0.587,6.219,1.679c-0.92-0.042-1.848-0.142-2.751-0.24
		c-1.216-0.131-2.474-0.268-3.743-0.268c-1.21,0-2.295,0.124-3.318,0.381C420.446,148.02,417.87,149.672,415.731,152.123z
		 M443.358,162.889c-0.782,4.021-1.814,5.44-2.635,5.836c0.141-0.699,0.659-1.911,1.028-2.774c0.8-1.872,1.627-3.807,1.35-5.241
		l-0.171-0.883l0.302,0.893C443.454,161.378,443.502,162.185,443.358,162.889z M447.663,159.439c-0.483,0.067-0.988,0.1-1.501,0.1
		c-0.593,0-1.197-0.043-1.848-0.131l-1.504-0.204l-0.333-1.722l-1.278,3.028c-1.452,3.439-5.131,3.811-6.645,3.811
		c-3.745,0-7.379-1.946-8.64-4.627l-1.905,0.397c-0.037,1.297,0.034,2.982,0.929,4.506c1.859,3.159,6.154,3.167,7.58,3.167
		c0.003,0,0.007,0,0.01,0c0.402,0,0.8-0.01,1.186-0.026c-0.896,0.327-1.881,0.499-2.889,0.499c-2.3,0-4.374-0.872-5.692-2.394
		c-1.223-1.402-1.521-3.205-1.554-4.458c-0.009-0.582-0.021-1.378,0.072-2.132l0.264-2.121l-1.797,1.157
		c-0.39,0.251-0.754,0.445-1.135,0.601c0.719-3.615,5.551-6.85,9.242-6.85c2.127,0.008,4.01,1.023,6.003,2.097l0.549,0.295
		c1.936,1.035,3.959,1.729,5.915,2.401c1.744,0.599,3.392,1.165,4.993,1.954c0.064,0.032,0.136,0.214,0.102,0.426
		C447.774,159.295,447.729,159.431,447.663,159.439z M497.265,164.958c-0.341,0.751-1.109,1.553-2.243,1.553
		c-0.233,0-0.476-0.035-0.716-0.103c-1.038-0.297-1.735-1.218-1.659-2.185c0.056-0.66,0.352-1.238,0.832-1.627l0.089-0.072
		l0.18-0.239c0.021-0.029,0.039-0.059,0.067-0.091c0.427-0.492,1.053-0.785,1.673-0.785c0.382,0,0.933,0.11,1.39,0.638
		C497.581,162.854,497.727,163.942,497.265,164.958z M501.873,163.616c-0.383-0.563-0.62-1.249-0.868-1.967
		c-0.342-0.989-0.695-2.011-1.463-2.926c-1.299-1.529-3.079-1.927-4.859-2.03c0.402-0.049,0.794-0.075,1.169-0.075
		c1.368,0,2.509,0.326,3.389,0.969C500.932,158.824,502.328,161.594,501.873,163.616z"/>
	<path style="fill:#615260;" d="M383.907,444.365c-0.897-0.609-1.744-1.186-2.233-1.645c-1.774-1.662-3.019-3.775-3.804-6.46
		c-1.907-6.542-2.338-14.278-2.718-21.103l-0.104-1.845c-0.479-8.329,0.193-16.069,2.179-25.099l0.195-0.888
		c0.817-3.722,1.662-7.57,1.748-11.501c0.074-3.014-0.564-5.75-1.183-8.395l-0.57-2.48l-1.226,0.892
		c-2.105,1.534-4.334,3-6.621,4.358c-7.381,4.374-15.123,7.893-22.39,10.176l-0.867,0.272l0.189,0.89
		c1.56,7.341,2.064,15.178,2.553,22.756c0.208,3.24,0.424,6.59,0.719,9.826c0.184,2.021,0.411,4.081,0.641,6.162
		c0.954,8.652,1.94,17.598,0.037,25.824c-0.015,0.07-0.045,0.128-0.075,0.202l-0.247,0.596l0.441,0.471
		c0.285,0.304,0.561,0.618,0.826,0.94c1.694,2.068,2.455,3.845,2.395,5.591l-0.037,1.064l1.173-0.03
		c1.649,0,3.424,0.945,4.443,1.756c2.371,1.876,3.593,4.754,4.475,7.32l0.242,0.707l0.747-0.033
		c0.386-0.017,0.774-0.024,1.164-0.024c2.314,0,4.74,0.276,7.086,0.542c1.836,0.209,3.734,0.425,5.545,0.502
		c0.186,0.008,0.374,0.012,0.563,0.012c2.842,0,6.395-0.894,7.84-3.4c0.662-1.147,1.114-3.095-0.485-5.861
		c-1.616-2.796-4.466-4.274-8.242-4.274c-0.891,0-1.83,0.083-2.788,0.248c-0.071,0.012-0.141,0.018-0.206,0.018
		c-0.505,0-0.744-0.356-0.796-0.661c-0.036-0.216-0.013-0.608,0.557-0.807c1.18-0.413,2.457-0.622,3.795-0.622
		c3.211,0,6.402,1.209,8.536,3.233l0.826,0.783l0.67-0.919c0.688-0.943,0.946-1.945,0.767-2.979
		C389.231,447.983,386.279,445.977,383.907,444.365z"/>
	<path style="fill:#615260;" d="M32.603,458.455c14.019,15.302,42.771,33.543,100.133,33.543c0.673,0,1.345-0.003,2.013-0.007
		c11.746-0.087,23.696-0.813,35.254-1.515c12.294-0.747,25.007-1.519,37.462-1.519c15.585,0,28.515,1.182,40.69,3.72l0.01,0.002
		c0.796,0.168,1.585,0.344,2.38,0.521l0.289,0.064c0.413,0.096,0.788,0.609,0.788,1.068l-0.095,13.201l1.552-0.989
		c4.984-3.177,9.976-6.327,14.968-9.478l4.182-2.64l-0.811-0.883c-2.379-2.589-4.762-5.174-7.146-7.76
		c-2.946-3.196-5.893-6.394-8.833-9.6l-1.313-1.431l-0.403,1.898c-0.859,4.05-1.719,8.089-2.59,12.142
		c-0.114,0.544-0.422,0.808-0.939,0.808c-0.181,0-0.373-0.037-0.557-0.107l-0.27-0.102l-0.282,0.057
		c-0.036,0.007-0.073,0.01-0.111,0.01c-0.046,0-0.092-0.005-0.139-0.013c-2.781-0.554-5.59-1.187-8.307-1.799
		c-5.275-1.189-10.729-2.419-16.249-3.129c-7.154-0.916-14.979-1.432-23.921-1.578c-2.163-0.036-4.325-0.052-6.489-0.052
		c-6.216,0-12.531,0.13-18.639,0.255c-6.101,0.125-12.408,0.255-18.609,0.255c-0.907,0-1.815-0.003-2.724-0.009
		c-11.352-0.066-21.292-0.724-30.386-2.01l-0.147-0.021l-0.148,0.023c-4.14,0.653-8.418,0.984-12.715,0.984
		c-18.81,0-37.761-6.355-51.995-17.436c-12.915-10.045-26.749-27.983-26.844-48.205c-0.048-10.399,3.779-20.706,8.047-31.23
		c4.258-10.507,9.296-18.98,15.403-25.903c11.504-13.031,28.423-23.281,47.639-28.862c9.742-2.832,20.541-4.582,33.013-5.353
		c6.202-0.381,11.419-0.636,16.721-0.636c7.007,0,13.012,0.475,18.357,1.452l0.872,0.159l0.263-0.847
		c0.306-0.985,0.667-1.839,1.107-2.615c2.803-4.971,8.046-7.987,13.116-10.904l0.783-0.451c0.704-0.406,1.417-0.803,2.121-1.189
		l0.342-0.188l0.125-0.371c0.92-2.741,4.014-5.175,6.273-6.953l0.181-0.142c3.8-3.018,7.174-4.722,10.563-5.393
		c-1.227,0.829-2.517,1.622-3.767,2.39c-2.122,1.304-4.316,2.652-6.324,4.243c-0.36,0.282-0.729,0.603-1.16,1.01l1.114,1.631
		c0.332-0.157,0.664-0.313,0.997-0.468c-4.615,2.539-9.402,5.366-14.036,8.506c-3.726,2.524-8.829,5.982-10.314,11.455
		c-0.954,3.498-0.337,7.15,0.26,10.682c0.174,1.032,0.347,2.052,0.474,3.048c2.007,15.733,3.032,32.22-8.139,45.686
		c-2.416,2.922-5.278,5.69-9.01,8.711c-4.185,3.391-6.732,5.891-6.819,12.004c-0.091,7.142,0.283,14.424,0.645,21.467
		c0.158,3.078,0.315,6.151,0.436,9.215l0.195,4.853c0.128,3.146,0.255,6.293,0.374,9.436c0.023,0.581-0.024,1.417-0.074,2.302
		c-0.126,2.245-0.268,4.789,0.456,6.27c1.369,2.788,5.25,3.045,8.084,3.232c0.584,0.039,1.124,0.074,1.583,0.13
		c6.739,0.817,13.814,1.231,21.029,1.231c2.199,0,4.455-0.038,6.704-0.114l0.758-0.025l0.181-0.737
		c1.031-4.221,3.365-7.491,6.938-9.719l0.673-0.42l-0.256-0.751c-1.848-5.428-7.42-9.369-13.25-9.369
		c-1.208,0-2.4,0.168-3.547,0.505c-0.05-0.02-0.116-0.138-0.135-0.138c-0.001,0-0.001,0-0.001,0c1.945-0.909,3.987-1.369,6.07-1.369
		c5.864,0,10.986,3.596,13.049,9.16l0.85,2.293l1.079-2.406c0.938-2.087,2.001-4.454-0.129-7.534
		c-1.434-2.072-4.787-3.435-7.814-4.548c-2.017-0.749-4.081-1.251-6.313-1.535c-1.258-0.159-2.55-0.246-3.949-0.268l-0.297-0.004
		l-0.251,0.158c-1.189,0.747-2.513,1.143-3.828,1.143c-2.127,0-4.045-0.994-5.4-2.797c-3.246-4.326-2.224-12.431-1.888-15.095
		c0.739-5.893,2.89-11.227,6.221-15.422c3.624-4.559,8.528-6.659,13.72-8.883c15.222-6.502,28.499-14.759,39.464-24.543
		c9.98-8.913,17.404-19.37,22.711-32.009l0.3-0.808c0.695-1.868,1.414-3.8,1.991-5.763c0.407-1.362,0.692-2.837,0.968-4.263
		c0.398-2.062,0.809-4.182,1.586-5.971c1.08,3.049,0.853,7.116-0.669,11.607l1.721,0.955c1.02-1.244,2.154-2.734,3.146-4.482
		c-0.658,2.176-1.584,4.184-3.035,6.303c-2.002,2.928-3.878,5.034-5.903,6.629l-2.192,1.725l2.789,0.06
		c1.182,0.025,2.354,0.345,3.596,0.684c0.578,0.158,1.171,0.319,1.79,0.461c4.093,0.948,7.782,1.522,11.276,1.754
		c1.626,0.113,3.256,0.17,4.845,0.17c1.771,0,3.539-0.071,5.259-0.211c0.957-0.081,1.889-0.232,2.789-0.378
		c1.245-0.202,2.421-0.393,3.58-0.393c0.565,0,1.078,0.045,1.572,0.138l1.24,0.233l-0.057-1.261
		c-0.22-4.89,0.385-9.042,1.849-12.693l0.071-0.175l0.001-0.19c0.017-2.249,0.581-4.453,1.417-6.556l1.716,0.817
		c2.152-3.368,4.772-6.465,7.548-8.947c-0.901,1.353-1.851,2.665-2.779,3.949c-3.261,4.508-6.634,9.169-7.696,15.351
		c-1.356,7.918,0.772,16.657,2.651,24.366c0.342,1.404,0.679,2.786,0.989,4.137c1.555,6.775,3.426,13.629,5.236,20.257
		c2.911,10.661,5.921,21.685,7.69,32.667c1.281,8.028,0.9,15.433-1.164,22.638c-0.435,1.524-0.938,3.068-1.424,4.561
		c-0.787,2.416-1.601,4.914-2.17,7.452l-0.132,0.568c-0.449,1.918-1.008,4.304-0.338,6.23c1.309,3.781,6.031,4.149,9.157,4.393
		c0.472,0.037,0.914,0.071,1.308,0.114c3.816,0.422,7.861,0.736,12.023,0.935c0.709,0.033,1.448,0.093,2.199,0.153
		c1.233,0.1,2.508,0.202,3.76,0.202c0.819,0,1.543-0.043,2.211-0.133c2.896-0.389,3.189-0.565,4.477-2.684l0.283-0.464
		c0.225-0.368,0.425-0.737,0.621-1.104c0.335-0.625,0.651-1.215,1.093-1.747c0.23-0.275,0.625-0.579,1.006-0.874
		c0.502-0.387,1.018-0.785,1.396-1.269c0.976-0.473,1.545-1.137,1.694-1.977c0.218-1.225-0.495-2.552-2.242-4.175l-0.075-0.07
		l-0.088-0.053c-0.435-0.263-0.88-0.526-1.292-0.765c-1.803-1.114-4.109-1.703-6.671-1.703c-0.9,0-1.818,0.073-2.728,0.215
		c-0.064,0.01-0.125,0.015-0.186,0.015c-0.661,0-1.015-0.609-1.054-1.041c-0.047-0.512,0.277-0.638,0.566-0.692
		c1.063-0.198,2.265-0.302,3.476-0.302c4.88,0,10.651,1.639,12.213,6.239c0.437,1.293,0.31,2.334-0.425,3.481l-0.79,1.152
		l1.34,0.343l0.118,0.042l0.723,0.176l0.392-0.56c0.28-0.402,0.665-0.759,1.073-1.137c0.732-0.678,1.563-1.447,1.974-2.667
		c0.667-1.98,0.575-3.822-0.273-5.475c-2.162-4.214-8.712-6.226-13.974-7.841c-2.029-0.623-3.781-1.161-4.887-1.708
		c-3.145-1.554-3.752-3.85-4.379-7.443c-1.873-10.875-2.555-22.012-2.026-33.101c0.373-7.617,1.806-15.108,3.192-22.353
		c0.723-3.777,1.47-7.682,2.067-11.595c0.871-5.693,1.157-11.51,1.434-17.136c0.103-2.084,0.205-4.168,0.336-6.256
		c0.142-2.408,0.313-4.563,0.523-6.553c0.028,0.305,0.268,2.961,0.268,2.961l1.497-1.41c8.758-8.244,14.722-16.843,18.232-26.29
		c4.192-11.309,4.324-23.066,4.452-34.437c0.115-10.728,0.506-22.091,3.824-32.733c2.33-7.457,5.845-14.498,10.746-21.526
		l1.989-2.853l-3.2,1.36c-0.439,0.186-0.794,0.277-1.084,0.277c-0.172,0-0.319-0.033-0.44-0.097c-0.82-0.442-0.43-2.166-0.069-3.117
		c2.647-7.031,6.322-13.584,10.923-19.478l1.506-1.928l-33.177,4.402c-0.268,0.036-0.558,0.056-0.852,0.056
		c-0.991,0-1.826-0.221-2.181-0.577c-0.123-0.124-0.176-0.257-0.175-0.437c0.005-0.433,0.478-0.933,0.918-1.365
		c7.031-6.854,15.101-12.487,23.984-16.745l1.292-0.619l-1.027-1c-1.961-1.909-4.474-2.876-7.467-2.876
		c-4.255,0-9.394,2.128-13.41,5.553c-12.252,10.452-18.235,28.062-14.889,43.818c0.777,3.666,2.025,7.263,3.23,10.741
		c1.647,4.754,3.352,9.67,3.811,14.705c0.7,7.477-3.838,16.481-8.349,21.681c-2.529,2.913-5.729,4.862-8.787,5.349
		c-0.304,0.05-1.034,0.101-1.981,0.101c-3.582,0-5.611-0.612-5.848-1.006l-1.919,0.564c0.087,0.295,0.162,0.6,0.232,0.892
		c1.262,5.789-0.641,10.255-3.094,15.09c-0.018-0.018-0.04-0.043-0.06-0.077c0.796-3.779,1.19-8.164,1.03-11.446
		c-0.237-4.725-2.421-7.832-5.868-11.314c-3.816-3.854-6.444-7.978-8.272-12.981c-1.325-3.6-2.179-7.436-3.004-11.145
		c-0.48-2.152-0.975-4.377-1.559-6.548c-1.65-6.181-4.287-11.849-8.063-17.329c-2.992-4.345-6.444-8.425-9.783-12.372
		c-4.438-5.246-9.026-10.67-12.515-16.712c-3.26-5.639-5.438-11.733-6.296-17.624l-0.036-0.253l-0.154-0.205
		c-0.102-0.135-0.185-0.32-0.238-0.526c-2.583-10.514-0.975-21.79,5.065-35.488c1.757-3.992,3.74-7.97,5.658-11.817
		c0.813-1.63,1.626-3.261,2.425-4.897c0.245-0.501,0.578-1.14,0.964-1.883c3.075-5.91,8.798-16.91,4.32-21.117
		c-1.464-1.369-3.644-2.245-5.752-3.092c-0.997-0.4-1.938-0.778-2.718-1.179c-2.801-1.425-5.662-2.935-8.501-4.485
		c-4.488-2.465-8.611-4.848-12.588-7.262l0.006-0.01l-0.866-0.509l-0.849-0.52l-0.002,0.004c-0.219-0.133-0.44-0.264-0.657-0.398
		c-8.696-5.367-17.223-11.312-25.47-17.061l-3.645-2.539c-17.673-12.313-38.555-26.002-62.758-32.624
		c-14.566-3.989-29.651-5.928-46.114-5.928c-16.895,0-34.786,2.015-56.307,6.342l0.285,1.977c6.194-0.546,12.599-0.895,19.033-1.036
		c1.871-0.041,3.744-0.061,5.618-0.061c35.085,0,70.147,7.106,101.396,20.55c14.558,6.268,28.699,14.187,42.375,21.846
		c3.986,2.232,7.968,4.462,11.959,6.652c0.99,0.543,2.136,1.142,3.385,1.793c2.828,1.476,6.032,3.149,9.23,5.108l0.024,0.015
		c8.128,4.977,12.569,9.66,13.579,14.316c0.615,2.84-0.04,5.634-2.005,8.541l-0.057,0.083l-0.038,0.093
		c-2.52,6.053-5.439,11.84-8.927,17.692c-1.893,3.175-4.002,6.305-6.043,9.331c-2.191,3.251-4.457,6.612-6.48,10.066
		c-5.307,9.081-6.371,17.347-3.352,26.013c1.684,4.847,4.229,9.405,6.688,13.814c1.381,2.474,2.808,5.032,4.048,7.585
		c5.763,11.864,10.014,23.645,12.635,35.018l0.546,2.347c1.685,7.224,3.427,14.694,3.66,22.151
		c0.144,4.324-1.046,9.006-2.306,13.964l-0.256,1.009c-0.235,0.938-0.479,1.906-0.714,2.898l-1.741-0.113
		c-1.424-0.092-2.889-0.139-4.354-0.139c-10.003,0-19.37,2.094-29.287,4.311l-3.048,0.679c-11.664,2.571-23.601,3.783-33.738,4.63
		c-20.408,1.689-41.512,3.436-61.816,10.046c-19.161,6.245-36.438,15.494-51.348,27.492c-14.805,11.923-26.916,26.236-35.997,42.543
		c-6.974,12.546-11.873,26.11-14.976,41.465c-0.312,1.519-0.594,3.048-0.878,4.683c-0.467,6.006-0.74,13.964,1.297,22.257
		C20.766,441.718,25.705,450.939,32.603,458.455z M245.579,288.239c0.756-5.011,3.235-7.823,6.106-11.079
		c0.483-0.548,0.978-1.108,1.476-1.691l0.944-1.107c-1.432,6.162-2.451,13.169,0.784,19.153c0.388,0.719,0.806,1.347,1.21,1.955
		c0.607,0.91,1.178,1.77,1.561,2.814c0.026,0.073-0.013,0.207-0.095,0.324c-0.11,0.158-0.262,0.247-0.401,0.247
		c-0.009,0-0.017,0-0.025-0.001c-4.538-1.862-5.646-8.063-5.878-9.919c-0.354-2.814,0.398-5.311,1.263-7.59l-1.754-0.928
		c-1.064,1.521-2.064,3.028-2.602,4.717c-1.904,5.93-0.474,11.264,1.448,17.152c-0.011,0.026-0.077,0.08-0.203,0.08
		c-0.021,0-0.044-0.002-0.068-0.005C244.881,297.919,245.069,291.607,245.579,288.239z"/>
	<path style="fill:#615260;" d="M260.483,176.393c0.461,2.788,0.993,5.077,1.674,7.201c1.976,6.199,5.337,12.184,10.576,18.834
		c2.109,2.682,4.372,5.329,6.56,7.889c5.42,6.341,11.025,12.898,14.717,20.48c2.331,4.787,3.556,10.22,4.739,15.474
		c1.53,6.789,3.112,13.808,7.091,19.708c1.222,1.809,2.645,3.362,4.021,4.863c0.855,0.933,1.663,1.814,2.421,2.747l0.106,0.131
		l0.144,0.089c2.154,1.333,4.408,2.171,6.699,2.49l2.041,0.285l-1.04-1.78c-3.517-6.017-4.762-12.825-5.825-19.855
		c-1.47-9.716-3.489-17.9-8.563-26.258c-10.711-17.685-14.553-38.743-16.704-55.112c-2.724-20.817-2.805-41.865-0.239-62.557
		c0.223-1.796,0.527-3.64,0.822-5.423c0.552-3.342,1.122-6.798,1.216-10.245c0.153-6.303-1.961-11.842-4.049-16.427
		c-2.163-4.772-4.691-9.711-7.73-15.099l-0.055-0.096l-0.073-0.082c-7.67-8.51-15.601-15.016-24.959-20.474
		c-13.727-8.009-28.558-13.898-39.944-18.133c-22.134-8.247-46.126-14.237-75.505-18.851l-0.54,1.911
		c1.267,0.527,2.529,1.066,3.79,1.605c2.689,1.149,5.472,2.337,8.232,3.377c6.079,2.293,12.806,4.692,21.169,7.551
		c3.482,1.19,6.974,2.359,10.466,3.529c10.38,3.477,21.113,7.072,31.438,11.174c15.681,6.239,37.358,16.763,44.554,36.04l0.04,0.107
		l0.064,0.096c2.499,3.768,4.022,7.95,4.529,12.43l0.39,3.437l1.505-3.114c2.074-4.29,3.595-8.884,4.521-13.652
		c0.104-0.535,0.667-0.778,1.145-0.778c0.332,0,0.634,0.114,0.824,0.31c8.201,8.499,14.351,23.857,9.593,35.579l-0.045,0.111
		l-0.018,0.119c-0.609,4.124-2.454,8.599-4.082,12.548c-0.244,0.593-0.484,1.174-0.715,1.742c-1.776,4.368-3.836,8.707-5.828,12.902
		l-1.34,2.828c-4.63,9.804-8.906,20.38-8.843,31.358c0.225,2.746,0.441,5.05,0.774,7.412l0.051,0.277
		c0.042,0.234,0.083,0.467,0.135,0.702c0.032,0.148,0.044,0.271,0.038,0.387l-0.005,0.108L260.483,176.393z"/>
	<path style="fill:#615260;" d="M187.53,431.868c-0.087,1.226-0.177,2.493-0.672,3.42l-0.763,1.426l1.617,0.044
		c5.034,0.139,9.911,1.733,13.731,4.491c2.063,1.494,3.413,3.9,3.608,6.437l0.077,0.993l0.993-0.073
		c0.153-0.012,0.308-0.017,0.464-0.017c1.652,0,3.636,0.641,5.178,1.671c2.154,1.439,3.779,3.563,4.969,6.494l0.206,0.507l0.538,0.1
		c3.145,0.583,5.994,0.989,8.713,1.243l0.738,0.071c0.639,0.064,1.242,0.125,1.778,0.125c0.69,0,1.683-0.09,2.331-0.868
		c0.595-0.716,0.727-1.763,0.426-3.398c-0.982-5.259-6.531-6.58-10.989-7.64c-1.117-0.266-2.173-0.517-3.067-0.808
		c-3.767-1.217-6.412-3.342-7.925-6.332c2.759,3.556,7.165,4.718,11.473,5.841c2.695,0.702,5.481,1.428,7.712,2.761l1.812,1.083
		l-0.31-2.088c-1.188-8.005-8.385-10.301-14.735-12.326c-2.652-0.845-4.609-1.997-5.984-3.52l-0.012-0.013
		c-0.94-1.025-1.594-2.2-1.996-3.589c-1.434-5.003,0.778-9.82,2.918-14.479c3.05-6.659,5.116-12.574,5.29-19.765
		c0.011-0.207,0.02-0.414,0.02-0.621v-0.756l-0.726-0.206c-1.643-0.466-3.004-1.012-4.16-1.668l-0.483-0.275l-0.487,0.266
		c-3.549,1.93-7.176,3.675-10.779,5.186c-1.587,0.665-3.245,1.238-5,1.844c-2.776,0.959-5.648,1.951-8.247,3.348l-1.006,0.541
		l0.669,0.926c2.516,3.481,2.588,9.972,2.64,14.712c0.009,0.723,0.016,1.407,0.031,2.037c0.097,3.806-0.07,7.748-0.494,11.719
		C187.586,431.086,187.559,431.474,187.53,431.868z"/>
</g>
<g>
	<path style="fill:#FD4357;" d="M404.855,210.323c-0.768-0.203-1.536-0.395-2.304-0.576l-2.993-0.708l0.208,0.243
		c-0.526-0.054-1.035-0.089-1.523-0.089c-0.662,0-1.307,0.051-1.921,0.152c-1.532,0.261-2.93,0.844-4.132,1.414l-0.014-0.056
		l-1.088,0.585l-0.126,0.061l0.001,0.003l-8.313,4.189v0.002l-6.937,3.484l-0.144,0.197c-0.893,1.232-1.743,2.484-2.521,3.714
		c-0.971,1.502-1.926,3.125-2.85,4.817l-0.022-0.03l-0.735,1.415c-1.628,3.134-3.054,6.38-4.259,9.654l-0.022-0.027l-0.403,1.176
		l-0.037,0.103l0.001,0.001l-0.151,0.44c-1.153,3.371-2.08,6.781-2.752,10.128c-0.061,0.289-0.109,0.584-0.161,0.877l-0.031-0.028
		l-0.286,1.81c-0.657,4.139-1.006,8.699-1.102,14.291l-0.005-0.003l-0.005,0.523l-0.009,0.621l0.002,0.001l-0.004,0.444
		c-0.023,2.37-0.01,4.741,0.005,7.109c0.01,1.71,0.02,3.42,0.016,5.128l-0.001,0.6l0.001,0.001v0.392
		c0,1.939-0.026,3.645-0.079,5.216c-0.078,2.306-0.255,4.671-0.524,7.03l-0.038,0.326l-0.082,0.653
		c-0.405,3.24-1.002,6.462-1.773,9.58h-0.001l-0.251,0.949c-0.651,2.461-1.411,4.87-2.261,7.157l-0.233,0.629l-0.018-0.004
		l-0.322,0.816c-0.66,1.677-1.422,3.386-2.265,5.081l-0.137,0.276l-0.346,0.67c-0.715,1.385-1.514,2.786-2.44,4.282l-0.722,1.164
		c-1.249,1.919-2.599,3.762-4.018,5.474l-0.161,0.194l-0.49,0.575c-1.22,1.43-2.566,2.852-4.001,4.227l-0.01-0.008l-0.61,0.568
		c-1.268,1.181-2.434,2.183-3.559,3.06c-0.14,0.108-0.303,0.189-0.484,0.241l-1.488,0.427l1.001,1.181
		c0.091,0.108,0.166,0.225,0.255,0.334l-1.141,0.354c0.376,6.866,0.343,13.458-0.099,19.595c-0.381,5.4-1.474,10.831-2.531,16.085
		l-0.729,3.65l1.668-0.604c2.064-0.747,4.13-1.409,5.878-1.957l0.498-0.156v-0.001l3.774-1.154c3.223-0.978,6.555-1.991,9.787-3.152
		l0.091-0.033l-0.005,0.031l1.591-0.605c1.446-0.55,2.612-1.023,3.666-1.489c2.73-1.196,5.463-2.548,8.122-4.021l0.121-0.067
		l-0.002,0.022l1.671-0.976c2.828-1.651,5.527-3.435,8.025-5.303l0.012-0.009l0.001,0.01l0.382-0.297l0.165-0.124l-0.001-0.004
		l0.794-0.617c1.719-1.335,3.359-2.727,4.879-4.138c1.008-0.94,2.032-1.978,3.197-3.233l0.003,0.09l1.688-1.968
		c4.196-4.891,7.617-10.45,10.171-16.522l0.029,0.035l0.624-1.6c1.895-4.859,3.28-10.101,4.13-15.58l0.03,0.025l0.239-1.785
		c0.526-3.927,0.799-7.961,0.809-11.988c0.011-2.048-0.043-4.16-0.161-6.457l-0.043-0.828l0.002-0.001l-0.012-0.196l-0.024-0.453
		l-0.005,0.002l-0.009-0.136c-0.27-4.205-0.701-8.492-1.083-12.179l-0.074-0.708l0.006-0.001l-0.093-0.882
		c-0.395-3.76-0.77-7.439-1.017-11.113l-0.033-0.483l0.004-0.001l-0.052-0.84c-0.22-3.549-0.291-6.697-0.218-9.624l0.027-1.13
		l0.012-0.284c0.092-2.225,0.277-4.405,0.552-6.48l0.175-1.32h-0.002l0.025-0.157c0.183-1.16,0.372-2.2,0.58-3.179
		c0.346-1.645,0.838-3.432,1.461-5.311l0.22-0.662l0.224-0.628c0.409-1.15,0.773-2.095,1.147-2.974l0.303-0.712l0.269-0.6
		c0.888-1.978,1.862-3.869,2.898-5.62l0.452-0.764l0.322-0.51c1.503-2.375,3.073-4.48,4.669-6.257l0.537-0.598l0.401-0.418
		c2.927-3.05,6.051-5.371,9.285-6.898l2.655-1.253l-2.868-0.628C417.18,213.384,410.987,211.906,404.855,210.323z"/>
	<path style="fill:#FD4357;" d="M390.905,454.352l1.358,0.008c1.601,0.009,3.229,0.469,4.358,1.23
		c1.567,1.053,2.652,2.553,3.415,4.722l0.373,1.063l1.011-0.497c1.551-0.761,3.185-1.198,4.859-1.299l1.203-0.073l-0.294-1.169
		c-0.775-3.078-2.877-5.956-5.621-7.699c-2.107-1.343-4.38-1.969-7.156-1.969c-0.663,0-1.361,0.035-2.134,0.106l-1.161,0.107
		l0.283,1.131c0.262,1.047,0.234,2.043-0.084,3.044L390.905,454.352z"/>
</g>
<g>
	<path style="fill:#DB213C;" d="M402.967,138.403l0.896-1.204l-0.347-0.575c-1.227-2.039-2.663-3.849-4.267-5.378l-0.01-0.01
		l0.07-0.025l-1.351-1.121c-2.491-2.07-5.417-3.659-8.921-4.859l0.131-0.062l-2.629-0.706c-4.327-1.162-8.849-1.647-12.78-1.954
		l0.072-0.041l-3.384-0.198l-1.526-0.1c-3.688-0.228-7.206-0.614-10.46-1.149l-0.445-0.073l-0.013,0.011l-1.581-0.294
		c-3.19-0.592-6.362-1.39-9.428-2.369l-0.445-0.142l-0.007,0.004l-1.244-0.434c-2.95-1.029-5.617-2.16-8.169-3.464
		c-0.347-0.169-0.681-0.358-1.012-0.544l-0.251-0.141l-0.294-0.143l-0.898-0.499c-3.092-1.716-6.069-3.661-8.85-5.781l-0.563-0.428
		l-0.006,0.004l-0.545-0.433c-2.842-2.26-5.51-4.766-7.93-7.447l-0.491-0.544l-0.496-0.571c-1.353-1.557-2.57-3.093-3.724-4.699
		c-0.747-1.036-1.484-2.091-2.221-3.147l-0.504-0.723l-0.36-0.529c-1.269-1.86-2.494-3.788-3.42-5.259l-0.182-0.289l-0.522-0.851
		c-2.166-3.53-3.954-6.729-5.466-9.781l-1.891,0.549c0.435,4.108,0.979,8.312,1.616,12.495l0.302,1.987l0.008-0.008
		c0.478,3.075,0.952,5.85,1.446,8.429l0.293,1.528l-0.003,0.005l0.188,0.993c0.068,0.372,0.138,0.746,0.214,1.108
		c0.897,4.339,2.025,8.158,3.453,11.674l1.241,3.056l0.039-0.188c1.863,3.89,4.081,7.263,6.771,10.273l1.566,1.753l0.009-0.112
		c1.661,1.663,3.446,3.18,5.322,4.498c1.266,0.899,2.615,1.773,4.012,2.596l1.622,0.957l-0.004-0.063
		c3.042,1.67,6.329,3.172,10.048,4.571l1.522,0.572l-0.002-0.023c3.863,1.391,7.81,2.571,11.516,3.635l1.577,0.453l-0.002-0.01
		c0.994,0.283,1.987,0.565,2.968,0.838c1.8,0.511,3.639,0.984,5.584,1.484l2.748,0.712l0.512,0.138
		c3.526,0.948,6.152,1.771,8.515,2.668l0.618,0.235l0.683,0.284c3.098,1.289,5.632,2.702,7.747,4.32l0.417,0.319l-0.002,0.012
		l0.454,0.376c0.335,0.277,0.678,0.563,0.993,0.859l0.851,0.799l0.659-0.964c1.875-2.741,4.689-4.247,7.669-5.842
		c0.998-0.534,2.029-1.085,3.022-1.687C397.944,145.171,400.384,141.884,402.967,138.403z"/>
	<path style="fill:#DB213C;" d="M400.183,109.264l-0.893-0.523l-0.097-0.059l-0.003,0.001l-1.155-0.676l-0.36-0.216
		c-2.518-1.437-5.143-2.773-7.681-4.065l-0.483-0.246l-0.009,0.001l-1.413-0.73c-2.45-1.266-5.287-2.758-7.942-4.445l-0.392-0.25
		l-0.012,0.004l-1.132-0.768c-2.089-1.417-3.894-2.864-5.515-4.42c-0.943-0.916-1.879-1.932-2.86-3.104l-0.477-0.57l-0.014,0.006
		l-0.526-0.678c-1.647-2.121-3.119-4.461-4.377-6.957l-0.33-0.655l-0.15-0.315c-1.308-2.747-2.379-5.743-3.185-8.907l-0.097-0.383
		l-0.187-0.807c-0.36-1.55-0.659-3.187-0.914-5.003l-0.104-0.741l-0.074-0.644c-0.345-3.032-0.471-6.102-0.374-9.125l-1.899-0.468
		c-1.676,3.463-3.018,7.108-3.987,10.833l-0.225,0.864l-0.007,0.004l-0.05,0.215l-0.302,1.162l0.053-0.029
		c-0.454,2.098-0.797,4.201-1.006,6.266l-0.246,2.427l0.079-0.065c-0.209,3.665-0.068,7.33,0.455,10.918
		c0.053,0.33,0.114,0.653,0.177,0.981l0.259,1.363l-0.019,0.028l0.078,0.4c0.048,0.246,0.11,0.49,0.162,0.736v0.002l0,0
		c0.689,3.299,1.659,6.545,2.912,9.655l0.902,2.238l0.026-0.061c0.585,1.296,1.093,2.344,1.594,3.285
		c1.748,3.316,3.887,6.194,5.938,8.811l1.249,1.593l0.005-0.02c0.186,0.233,0.371,0.467,0.558,0.7
		c0.384,0.478,0.768,0.956,1.15,1.44l0.267,0.338l4.293,0.378l0.001-0.001l0.54,0.051c3.665,0.345,7.987,0.824,12.25,1.752
		l0.777,0.169l0,0l0.325,0.077c2.926,0.693,5.84,1.796,8.427,3.188l0.825,0.444l0.006-0.009l0.573,0.349
		c1.913,1.163,3.582,2.476,4.961,3.901l0.409,0.423l0.318,0.362c1.286,1.462,2.291,3.049,2.988,4.716l0.551,1.316l1.05-0.966
		c1.087-1.002,2.507-1.488,4.341-1.488c1.618,0,3.339,0.38,4.657,0.711l1.566,0.394l-0.346-1.577
		c-0.619-2.829-1.324-6.033-2.533-9.048l0.022-0.002l-0.165-0.362l-0.209-0.517l-0.024,0.006l-0.187-0.409
		c-0.716-1.568-1.513-2.936-2.438-4.183c-0.534-0.717-1.174-1.464-1.91-2.256l0.106-0.013l-1.553-1.461
		c-1.936-1.822-4.185-3.509-7.028-5.279L400.183,109.264z"/>
</g>
<path style="fill:#FD4357;" d="M388.463,464.522l1.89-0.371c1.097-0.215,2.242-0.324,3.405-0.324c1.485,0,2.915,0.175,4.252,0.521
	l1.525,0.395l-0.293-1.548c-0.49-2.596-1.474-4.576-2.919-5.884c-1.436-1.309-2.982-1.477-4.168-1.477
	c-0.443,0-0.89,0.026-1.338,0.053l-1.502,0.087l0.356,1.208c0.491,1.672,0.382,3.482-0.304,5.321L388.463,464.522z"/>
<g>
	<path style="fill:#DB213C;" d="M387.879,211.091l8.578-4.239l-1.74-1.062c-0.105-0.063-0.21-0.124-0.324-0.2
		c-3.04-1.964-6.078-4.421-9.289-7.511l-0.9-0.866l-0.647,1.068c-0.779,1.284-1.62,2.536-2.414,3.708l-0.02,0.029l-1.352,1.967
		c-0.503,0.731-1.001,1.466-1.499,2.201l-0.012-0.061l-1.217,1.882l-0.094,0.141l0.002,0.001l-0.031,0.049
		c-2.087,3.229-3.444,5.834-4.399,8.45l-0.836,2.289l2.203-1.042c2.583-1.222,5.157-2.473,7.729-3.725l1.321-0.643h0.001l0.122-0.06
		l0.313-0.153l-0.002-0.001l4.502-2.225L387.879,211.091z M382.698,212.951l0.142-0.491l-0.139,0.492L382.698,212.951z"/>
	<path style="fill:#DB213C;" d="M364.446,197.637l0.732-0.162v0.001l1.083-0.217c0.232-0.048,0.459-0.096,0.691-0.131
		c0.817-0.135,1.639-0.251,2.458-0.367c0.51-0.072,1.02-0.144,1.527-0.221l0.827-0.124l0.004,0.005l0.575-0.079
		c3.16-0.431,5.59-0.719,7.879-0.935l1.993-0.188l-1.348-1.48c-2.864-3.148-4.694-6.005-4.314-9.72
		c0.016-0.159,0.037-0.311,0.06-0.468l0.267-1.917l-1.658,0.759c-1.198,0.548-2.461,1.16-3.909,1.891l0.003-0.018l-0.74,0.391
		l-0.313,0.16l-0.001,0.007l-0.671,0.354c-1.439,0.761-2.88,1.578-4.306,2.419l0.012-0.045l-0.971,0.607l-0.371,0.223l-0.001,0.009
		l-0.773,0.483c-1.881,1.174-3.817,2.479-5.757,3.867l-0.001-0.014l-0.327,0.243l0,0l-0.455,0.329l0.001,0.009l-0.647,0.481
		c-2.025,1.506-3.835,2.942-5.532,4.393l-1.991,1.701l2.618,0.059l0.414,0.005c2.416,0,4.902-0.469,6.799-0.877l0.918-0.198
		l0.002,0.002l0.167-0.039l0.66-0.142l-0.01-0.01c0.587-0.137,1.17-0.278,1.747-0.417
		C362.69,198.044,363.58,197.829,364.446,197.637z"/>
</g>
<path style="fill:#FD4357;" d="M350.761,461.458c1.216,1.012,2.234,2.365,3.113,4.136l0.338,0.681l0.746-0.144
	c0.053-0.01,0.104-0.023,0.121-0.033c1.823-0.276,3.736-0.436,5.847-0.489l1.267-0.032l-0.325-1.225
	c-0.411-1.543-1.044-3.53-2.305-5.199c-1.477-1.992-3.277-2.549-5.02-3.087l-1.089-0.338l-0.375,0.777
	c-0.627,1.302-1.555,2.459-2.544,3.173l-1.083,0.781l1.055,0.819C350.568,461.328,350.761,461.458,350.761,461.458z"/>
<path style="fill:#DB213C;" d="M355.866,163.547l-0.358,0.102v0.002l-0.446,0.129c-3.139,0.91-6.445,1.944-10.107,3.162
	l-2.494,0.829l2.414,1.039c3.027,1.303,6.27,2.598,9.638,3.849l1.703,0.632l-0.004-0.02c2.15,0.785,4.073,1.459,5.874,2.059
	l1.539,0.512l-0.002-0.014c2.51,0.825,5.081,1.627,7.646,2.383l0.871,0.256l0.003,0.014l0.563,0.162
	c1.284,0.37,2.568,0.739,3.854,1.091l0.939,0.469l0.414-0.982c0.303-0.715,0.628-1.421,0.952-2.126
	c1.244-2.7,2.531-5.491,2.557-8.86c0.004-1.126-0.054-2.225-0.109-3.288c-0.103-1.97-0.2-3.831,0.096-5.622l0.052-0.64l-0.449-0.331
	c-0.037-0.04-0.531-0.528-0.531-0.528l-0.558,0.15c-1.339,0.361-2.724,0.683-3.901,0.951l-0.406,0.092l-0.004,0.007l-0.829,0.179
	c-1.633,0.352-3.272,0.684-4.91,1.016c-1.036,0.21-2.069,0.424-3.103,0.639l0.006-0.01l-0.868,0.188
	c-0.107,0.023-0.215,0.044-0.322,0.066l-0.417,0.088l-0.004,0.006l-0.673,0.146c-1.651,0.358-3.024,0.682-4.322,1.02
	c-1.104,0.29-2.207,0.599-3.309,0.91l0.005-0.015L355.866,163.547z"/>
<g>
	<path style="fill:#FD4357;" d="M345.998,460.132l-0.625-0.232l-0.455,0.489c-1.54,1.656-2.525,2.987-3.319,5.265l-0.63,1.788
		l1.461-0.043c0.117-0.003,0.234-0.005,0.353-0.005c0.6,0,1.209,0.039,1.803,0.077l0.8,0.047c1.984,0.111,4.002,0.398,6.169,0.878
		l1.596,0.353l-0.412-1.582c-0.463-1.778-1.063-3.116-1.887-4.207c-1.19-1.59-2.703-2.098-4.037-2.546
		C346.543,460.325,346.271,460.233,345.998,460.132z"/>
	<path style="fill:#FD4357;" d="M291.438,355.054c-0.227-1.433-0.482-3.132-0.662-4.867l-0.158-1.521l-1.33,0.755
		c-1.002,0.568-2.262,1.009-3.745,1.31l-0.524,0.106l-0.567,0.085c-1.333,0.2-2.799,0.297-4.48,0.297
		c-1.206,0-2.519-0.051-4.011-0.156l-1.068-0.075l-0.155-0.013c-1.504-0.13-2.927-0.279-4.149-0.408
		c-0.53-0.057-1.09-0.112-1.673-0.169c-0.855-0.084-1.763-0.173-2.701-0.28l-0.103-0.012l-0.765-0.097
		c-3.562-0.449-8.611-1.345-11.337-3.924l-0.795-0.615l-0.09-0.516l-1.357,2.721c-2.27,4.546-5.018,9.044-8.173,13.367l-0.279,0.383
		l0.006,0.022l-0.508,0.673c-4.099,5.438-8.856,10.552-14.142,15.201l-0.256,0.225l-0.556,0.477
		c-3.984,3.423-8.151,6.491-12.383,9.118c-0.5,0.308-1.004,0.602-1.507,0.895l-2.928,1.721l3.619,0.733
		c0.895,0.185,1.79,0.369,2.691,0.529c2.513,0.428,5.211,0.724,8.25,0.902l0.363,0.022l-0.013,0.026l3.739,0.154
		c2.086,0.059,4.217,0.088,6.515,0.088c0.67,0,2.639-0.012,2.639-0.012l0.001-0.002l1.245-0.013
		c2.641-0.028,5.434-0.101,8.538-0.221l0.346-0.013l-0.009,0.02l1.666-0.087c0.28-0.015,0.56-0.024,0.838-0.034
		c0.291-0.01,0.582-0.021,0.869-0.035c2.775-0.136,5.757-0.357,9.106-0.675l-0.009,0.018l1.835-0.186
		c3.797-0.385,7.833-0.866,12.701-1.514l0.774-0.103l0.001-0.008l1.036-0.139c2.257-0.303,4.51-0.614,6.765-0.926l3.723-0.513
		l-0.001,0.004l1.533-0.206c2.454-0.329,4.919-0.648,7.394-0.938l1.133-0.132l-0.279-1.105
		C295.618,375.754,293.134,365.414,291.438,355.054z"/>
</g>
<g>
	<path style="fill:#DB213C;" d="M269.078,50.938c4.685,4.029,8.453,8.242,11.247,12.589c2.059,2.693,3.95,5.453,5.62,8.202
		l1.963,3.231l-0.108-3.779c-0.045-1.546-0.048-3.097-0.05-4.646c-0.003-1.568-0.005-3.135-0.05-4.694l-0.008-0.243l-0.117-0.212
		c-0.012-0.022-0.024-0.044-0.036-0.067l-0.002-2.747c-0.222-2.849-0.533-5.768-0.912-8.684l0.064,0.08l-0.591-3.744
		c-0.482-3.054-0.946-5.537-1.462-7.815l-0.363-1.6l-1.256,1.055c-0.819,0.688-1.645,1.371-2.471,2.052
		c-0.624,0.515-1.247,1.03-1.866,1.546l-1.007,0.84l-0.004-0.002l-2.472,2.051c-1.315,1.092-2.629,2.185-3.943,3.268l-1.449,1.194
		l0.006,0.002l-1.633,1.349L269.078,50.938z"/>
	<path style="fill:#DB213C;" d="M274.466,97.226c1.504,0.747,2.833,1.432,3.858,2.255l1.659,1.33l-0.033-2.125
		c-0.032-2.027-0.17-3.902-0.417-5.73l0.1,0.066l-0.564-2.712c-0.089-0.434-0.178-0.869-0.294-1.315
		c-0.557-2.097-1.329-4.196-2.284-6.247l0.285,0.157l-1.814-3.117c-0.967-1.661-2.029-3.231-3.158-4.665l-1.217-1.547l-0.532,1.895
		c-0.281,1.001-0.598,2.011-0.941,3.001l-0.247,0.711h-0.001l-0.285,0.769c-0.814,2.194-1.676,4.178-2.634,6.066l-0.465,0.917
		c-0.66,1.246-1.309,2.379-1.982,3.456l-0.568,0.912l0.949,0.502C267.254,93.586,270.815,95.411,274.466,97.226z"/>
	<path style="fill:#DB213C;" d="M266.811,32.47c-0.811-3.283-2.225-6.159-4.2-8.547l-0.766-0.926l-5.298,6.328l-0.008,0.002
		l-0.228,0.275c-0.387,0.467-0.775,0.934-1.178,1.408c-0.39,0.467-0.768,0.942-1.146,1.416c-0.707,0.887-1.375,1.726-2.104,2.499
		l-0.822,0.873l-0.066,0.011l-0.214,0.182c-0.185,0.158-0.361,0.307-0.557,0.456l-1.216,0.927l1.337,0.742
		c2.974,1.652,5.788,3.351,8.362,5.049c2.535,1.683,4.786,3.292,6.88,4.917l1.386,1.076l0.22-1.741
		c0.135-1.073,0.239-2.137,0.323-3.182l0.059,0.068l0.085-2.547c0.073-2.169-0.031-4.243-0.289-6.196l0.267,0.255L266.811,32.47z"/>
	<path style="fill:#DB213C;" d="M245.925,81.511c3.789,2.342,7.248,4.393,10.57,6.269c0.657,0.374,1.32,0.734,1.978,1.092
		l1.84,1.001l0.056-1.618c0.007-0.196-0.002-0.397,0-0.595l0.196,0.226l-0.301-3.112c-0.279-2.888-1.069-5.691-2.301-8.359
		l0.237,0.087l-1.43-2.412c-0.902-1.521-1.907-2.92-2.986-4.157l-0.87-0.998l-2.57,3.947h-0.007l-1.225,1.877
		c-0.521,0.797-1.044,1.596-1.563,2.399l-0.298,0.462l-2.202,3.351L245.925,81.511z"/>
</g>
<g>
	<path style="fill:#FD4357;" d="M243.512,116.489c-1.551,1.445-3.099,2.888-4.609,4.354c-5.207,5.063-10.205,10.095-14.855,14.955
		c-11.421,11.936-21.124,23.18-29.662,34.374c-18.022,23.63-31.698,48.566-40.648,74.116l-0.706,2.014l1.999-0.746
		c9.885-3.69,17.866-5.41,25.12-5.41c3.63,0,7.1,0.453,10.314,1.346c7.615,2.117,13.97,6.552,17.893,12.488l1.416,2.144l0.405-2.537
		c0.511-3.196,1.369-6.467,2.199-9.631c0.496-1.889,1.009-3.842,1.429-5.719c1.49-6.679,3.01-13.347,4.529-20.005
		c1.152-5.042,2.331-10.078,3.509-15.114l1.37-5.862c0.411-1.763,0.795-3.545,1.18-5.332c0.882-4.099,1.804-8.323,3.061-12.345
		l-0.285,2.202c-1.049,8.078-2.993,16.322-4.874,24.294c-0.898,3.807-1.827,7.743-2.634,11.568
		c-1.48,7.028-2.959,14.058-4.469,21.085c-0.4,1.857-0.754,3.807-1.096,5.694c-0.708,3.91-1.44,7.954-2.666,11.642l-0.885,2.665
		l2.37-1.505c5.355-3.401,11.706-5.199,18.365-5.199c7.944,0,15.616,2.582,21.602,7.271l1.698,1.33l-0.082-2.155
		c-0.298-7.867-1.4-15.935-3.275-23.979c-3.443-14.73-9.397-29.507-18.737-46.505c-1.076-1.95-2.316-4.221-3.426-6.513l-1.341-2.767
		l0.044-0.135l-0.137-0.338c-1.363-3.355-2.129-6.418-2.339-9.362c-0.507-7.333,2.939-14.472,5.576-19.204
		c2.112-3.792,4.619-7.457,7.044-11.001c1.805-2.638,3.671-5.366,5.374-8.142c3.765-6.131,7.419-12.975,11.85-22.19l0.09-0.186
		l0.008-0.207c0.011-0.253,0.011-0.497,0.011-0.751v-2.669l-1.754,2.012C250.422,110.049,246.908,113.323,243.512,116.489z"/>
	<path style="fill:#FD4357;" d="M153.627,29.069l0.206,0.269l0.328,0.088c2.941,0.789,5.835,1.664,8.6,2.601
		c21.326,7.199,40.098,20.267,58.251,32.905l3.708,2.579c6.321,4.389,12.083,8.233,17.613,11.753l0.835,0.531l0.54-0.829
		c1.951-2.996,8.021-12.291,8.021-12.291c0.123-0.19,0.3-0.34,0.539-0.46l1.059-0.529l-0.698-0.955
		c-11.034-15.098-29.798-23.761-48.432-30.874c-7.678-2.931-15.533-5.763-23.13-8.502c-5.374-1.937-10.932-3.941-16.378-5.962
		c-2.104-0.782-4.269-1.556-6.465-2.342c-9.139-3.27-18.589-6.652-26.571-11.543l-1.125,1.651
		C137.894,12.712,146.398,19.659,153.627,29.069z"/>
	<path style="fill:#FD4357;" d="M54.761,78.548c7.578,19.137,8.123,40.335,1.533,59.689l-0.896,2.631l2.367-1.457
		c4.788-2.947,10.13-5.291,15.297-7.557c0.879-0.386,1.751-0.769,2.614-1.151c7.327-3.256,14.962-6.312,22.691-9.083
		c16.171-5.792,33.306-10.513,50.928-14.031c16.555-3.304,33.711-5.664,50.993-7.013c8.285-0.651,16.398-1.236,24.57-1.236
		c10.666,0,19.624,1.038,27.386,3.173l2.498,0.687l-1.388-2.187c-3.483-5.488-11.045-9.407-16.565-12.269
		c-0.809-0.419-1.57-0.814-2.268-1.187c-5.783-3.097-11.563-6.198-17.342-9.299l-10.927-5.861
		c-25.695-13.774-60.218-30.228-99.436-35.24c-10.38-1.329-20.824-2.003-31.041-2.003c-6.832,0-13.68,0.302-20.354,0.898
		c-8.355,0.738-17.021,1.995-25.759,3.736c-1.127,0.227-2.248,0.463-3.368,0.699l-4.928,1.029l3.243,1.21
		C33.656,46.1,46.327,57.282,54.761,78.548z"/>
	<path style="fill:#FD4357;" d="M233.597,449.844c0.479-0.183,1.021-0.3,1.692-0.368c0.252-0.022,0.505-0.034,0.756-0.034
		c1.299,0,2.487,0.299,3.528,0.885c0.304,0.174,0.604,0.376,0.892,0.601l0.786,0.614l0.616-0.785
		c0.407-0.52,0.917-0.929,1.516-1.215l0.917-0.44l-0.455-0.91c-0.984-1.968-2.588-3.649-4.514-4.734
		c-1.428-0.804-2.895-1.179-4.616-1.179c-1.034,0-2.046,0.14-2.813,0.262l-1.224,0.195l0.448,1.154
		c0.627,1.613,1.002,3.323,1.115,5.083l0.088,1.354L233.597,449.844z"/>
	<path style="fill:#FD4357;" d="M225.499,101.13c-2.042-0.061-4.162-0.092-6.302-0.092c-6.062,0-12.599,0.243-19.986,0.744
		c-17.659,1.222-34.95,3.552-51.393,6.928c-17.047,3.512-33.656,8.151-49.364,13.788c-7.944,2.842-15.966,6.075-23.844,9.609
		c-2.614,1.176-5.238,2.502-7.776,3.784c-2.691,1.36-5.474,2.766-8.248,3.994l-3.463,1.534l3.769,0.376
		c14.516,1.448,28.006,9.301,37.012,21.545c9.138,12.424,12.665,27.874,9.678,42.389l1.813,0.755
		c2.564-3.858,5.833-7.51,8.993-11.043c1.028-1.148,2.038-2.277,3.001-3.388c4.929-5.71,10.243-11.379,15.797-16.851
		c10.939-10.803,22.95-20.926,35.7-30.09c12.986-9.34,26.761-17.656,40.941-24.716c6.419-3.19,13.152-6.235,20.014-9.05
		c1.111-0.456,2.253-0.94,3.418-1.436c3.883-1.65,7.898-3.356,11.931-4.476l-0.109-1.951
		C240.291,102.394,232.98,101.356,225.499,101.13z"/>
	<path style="fill:#FD4357;" d="M232.961,453.33c0.565,1.416,0.874,2.656,0.92,3.685l0.057,1.272l1.223-0.357
		c1.025-0.3,2.104-0.452,3.206-0.452c1.005,0,2.049,0.126,3.105,0.375l1.629,0.384l-0.434-1.616
		c-0.558-2.078-1.694-3.879-3.123-4.946c-1.104-0.813-2.336-1.207-3.769-1.207c-0.635,0-1.308,0.07-2.234,0.24
		c-0.108,0.025-0.205,0.028-0.309,0.036l-1.548,0.105l0.736,1.367C232.604,452.555,232.796,452.927,232.961,453.33z"/>
	<path style="fill:#FD4357;" d="M240.276,110.28c-2.206,0.759-4.487,1.544-6.611,2.403c-7.27,2.943-14.739,6.35-22.197,10.126
		c-13.499,6.848-26.634,14.818-39.039,23.688c-12.604,9.009-24.645,19.146-35.791,30.131c-5.507,5.428-10.86,11.136-15.914,16.969
		c-1.947,2.252-3.807,4.719-5.605,7.105c-2.293,3.041-4.663,6.186-7.235,8.913l-1.522,1.615l2.218,0.071
		c18.479,0.589,35.831,12.921,42.195,29.99l0.979,2.625l0.904-2.651c8.164-23.927,21.661-48.158,40.115-72.021
		c8.828-11.423,18.702-22.736,30.186-34.585c1.718-1.77,3.444-3.583,5.188-5.413c6.646-6.975,13.516-14.188,20.98-20.163
		l-1.016-1.701C245.579,108.455,242.883,109.383,240.276,110.28z"/>
	<path style="fill:#FD4357;" d="M205.962,460.906l0.95-0.583c1.046-0.641,2.72-0.727,4.22-0.727c0.404,0,0.809,0.006,1.208,0.012
		c0.4,0.006,0.794,0.013,1.177,0.013c0.27,0,0.537-0.003,0.795-0.011l1.23-0.038l-0.289-1.196c-0.697-2.886-2.016-5.222-3.814-6.756
		c-1.842-1.571-3.846-1.951-5.563-2.115l-0.841-0.08l-0.22,0.816c-0.422,1.569-1.371,2.865-2.745,3.749l-1.235,0.794l1.192,0.858
		c0.671,0.483,1.355,1.126,1.925,1.808c0.589,0.708,1.091,1.509,1.534,2.448L205.962,460.906z"/>
	<path style="fill:#FD4357;" d="M200.42,456.127l-1.066-0.801l-0.585,0.367c-3.094,1.94-5.168,4.722-5.998,8.044l-0.323,1.292
		l1.33-0.05c0.168-0.006,0.338-0.009,0.508-0.009c0.98,0,2.016,0.096,2.93,0.182c0.383,0.036,0.749,0.07,1.094,0.096
		c1.941,0.138,3.832,0.475,5.619,1.001l1.434,0.423l-0.157-1.487c-0.264-2.505-0.837-4.437-1.803-6.083
		C202.593,457.728,201.439,456.877,200.42,456.127z"/>
	<path style="fill:#FD4357;" d="M150.02,370.871c3.068,1.3,6.27,2.768,10.073,4.618l0.408,0.198l-0.003,0.006l0.914,0.445
		c1.598,0.778,3.185,1.567,4.771,2.355l0.835,0.416l0.473-0.802c2.008-3.407,3.433-7.026,4.236-10.757
		c1.849-8.579,1.012-17.746,0.339-25.113c-0.093-0.99-0.208-2.008-0.326-3.044c-0.406-3.567-0.826-7.256-0.398-10.71l0.151-1.22
		l-1.226,0.101c-2.05,0.168-4.25,0.278-6.923,0.347l-1.666,0.043l0.001,0.001c-1.536,0.03-3.072,0.045-4.609,0.045
		c-1.508,0-3.017-0.01-4.534-0.019l-0.34-0.002l-0.001-0.003l-0.748-0.005c-1.366-0.009-2.732-0.017-4.101-0.017
		c-3.558,0-6.436,0.053-9.061,0.168l-1.383,0.06l0.007,0.017c-0.753,0.036-1.507,0.071-2.263,0.125
		c-4.346,0.321-8.588,0.777-12.609,1.357l-0.164,0.024l-0.004-0.009l-0.777,0.117c-0.102,0.015-0.204,0.034-0.307,0.05l-0.083,0.012
		l0.001,0.001c-4.615,0.704-9.243,1.615-13.759,2.714l-0.156,0.038l-0.001-0.001l-0.484,0.119l-0.893,0.217l0.007,0.009
		c-1.752,0.441-3.465,0.902-5.083,1.382c-2.68,0.801-5.37,1.715-7.999,2.713l-0.003-0.005l-0.72,0.279l-0.738,0.281l0.011,0.012
		c-3.285,1.301-6.552,2.787-9.728,4.435l-0.002-0.01l-0.326,0.176c0,0-0.001,0.001-0.002,0.001l-0.866,0.453l0.006,0.012
		c-2.269,1.224-4.525,2.561-6.712,3.973l-0.001-0.001l-0.025,0.017c-0.06,0.039-0.123,0.075-0.183,0.114l-0.729,0.473l0.01,0.022
		l-0.185,0.125c-2.441,1.646-4.806,3.423-7.053,5.282l-0.005-0.022l-0.612,0.529c-0.039,0.032-0.079,0.064-0.117,0.096l-0.508,0.429
		l0.004,0.012l-0.053,0.046c-3.036,2.623-5.81,5.412-8.275,8.301l-0.003-0.01l-0.123,0.153c-0.046,0.054-0.095,0.106-0.141,0.16
		l-0.576,0.728l0.001,0.003l-0.431,0.536c-2.039,2.541-3.931,5.286-5.772,8.332l-0.013-0.057l-0.588,1.045l-0.212,0.361l0.004,0.009
		l-0.47,0.836c-2.143,3.811-4.104,7.958-5.993,12.638l-0.003-0.007l-0.133,0.335c-0.022,0.056-0.046,0.108-0.068,0.164l-0.192,0.483
		l0.002,0.004l-0.626,1.581c-1.382,3.664-2.709,7.272-3.85,11.005l-0.028-0.031l-0.488,1.726c-1.293,4.567-2.025,8.635-2.245,12.417
		l-0.054-0.04l-0.029,1.95c-0.022,1.499,0.027,2.87,0.154,4.193c0.229,2.32,0.64,4.65,1.211,6.936l-0.034-0.008l0.264,0.929
		l0.011,0.043h0.001l0.18,0.634c0.806,2.829,1.91,5.704,3.263,8.557l-0.054-0.015l1.045,2.014c1.725,3.326,3.824,6.596,6.229,9.731
		l-0.016,0.003l0.295,0.37l0.313,0.404l0.008-0.002l0.438,0.548c1.902,2.383,4.051,4.732,6.38,6.991l-0.014,0.005l0.349,0.325
		l0.443,0.425l0.009-0.005l0.383,0.357c2.603,2.422,5.382,4.681,8.263,6.713l-0.008,0.006l0.404,0.274l0.279,0.198l0.005-0.005
		l0.893,0.605c0.296,0.204,0.592,0.407,0.892,0.597c2.484,1.609,5.171,3.112,7.984,4.474l-0.024,0.021l1.387,0.634
		c2.717,1.244,5.584,2.339,8.735,3.349l-0.067,0.04l2.23,0.644c6.073,1.751,12.413,2.862,19.382,3.396l0.341-1.962
		c-5.552-1.522-10.917-3.394-15.949-5.564l-0.473-0.204l-0.894-0.4c-2.967-1.33-5.806-2.752-8.439-4.227l-1.744-1.008
		c-0.669-0.386-1.337-0.77-2.004-1.185c-2.297-1.408-4.478-2.828-6.481-4.219l-0.798-0.554l-0.151-0.108
		c-2.755-1.974-5.122-3.873-7.237-5.805l-0.318-0.29l-0.381-0.359c-2.18-2.055-4.077-4.17-5.641-6.287l-0.458-0.62l-0.314-0.455
		c-1.224-1.77-2.257-3.578-3.073-5.378c-0.411-0.894-0.789-1.837-1.156-2.884l-0.237-0.675h0.001l-0.261-0.862
		c-0.85-2.818-1.381-5.794-1.579-8.846l-0.029-0.447l-0.03-0.824c-0.096-2.687,0.06-5.477,0.461-8.293l0.147-1.035l0.005-0.001
		l0.122-0.691c0.462-2.612,1.122-5.191,1.965-7.669c0.063-0.192,0.133-0.376,0.202-0.563l0.514-1.407l0.099-0.256
		c0.99-2.576,2.151-5.067,3.45-7.403l0.328-0.59l0.004,0.002l0.446-0.761c1.662-2.834,3.569-5.566,5.67-8.121l0.628-0.764
		l0.008,0.004l0.538-0.62c1.85-2.133,3.876-4.193,6.021-6.121l0.669-0.601l0.018,0.011l0.566-0.484
		c2.416-2.066,4.951-3.968,7.535-5.652l1.145-0.746l-0.006-0.005l0.251-0.155c1.96-1.21,3.963-2.333,5.955-3.339l0.802-0.405
		l0.006,0.006l0.652-0.312c1.554-0.743,2.922-1.353,4.185-1.865l0.588-0.238l0.533-0.204c1.751-0.67,3.465-1.261,5.092-1.757
		c1.125-0.34,2.32-0.668,3.553-0.977l0.52-0.13l0.813-0.186c3.94-0.903,7.917-1.473,11.822-1.699l-0.002,0.009l1.289-0.055
		c1.058-0.045,2.121-0.068,3.16-0.068c1.973,0,3.938,0.082,5.842,0.246l0.979,0.083v-0.002l0.596,0.066
		c1.322,0.146,2.54,0.314,3.728,0.513c2.791,0.458,5.64,1.107,8.707,1.985l0.967,0.277l0.002-0.008l0.603,0.185
		c3.17,0.974,6.475,2.174,10.102,3.669l0.388,0.16l-0.001,0.002L150.02,370.871z"/>
</g>
<g>
	<path style="fill:#231F20;" d="M448.131,157.894c-3.527-1.746-7.365-2.46-10.88-4.341c-2.214-1.184-4.429-2.501-7.023-2.512
		c-4.346-0.018-10.102,3.951-10.325,8.48c-0.018,0.369,0.381,0.654,0.725,0.552c0.802-0.238,1.441-0.562,2.035-0.941
		c-0.098,0.807-0.095,1.628-0.079,2.269c0.046,1.849,0.565,3.686,1.792,5.101c2.794,3.221,8.184,3.564,11.57,1.196
		c0.428-0.299,0.328-1.115-0.291-1.074c-3.133,0.207-8,0.632-9.852-2.529c-0.709-1.209-0.832-2.598-0.794-3.969
		c2.774,5.888,14.226,7.599,17.105,0.777c0.424,2.171-2.809,6.842-2.389,8.5c0.061,0.241,0.328,0.469,0.587,0.447
		c2.627-0.222,3.613-4.654,4.029-6.763c0.164-0.833,0.123-1.826-0.158-2.689c1.181,0.164,2.382,0.204,3.615,0.036
		C448.981,160.27,449.139,158.392,448.131,157.894z M432.138,161.799c-3.079-0.649-4.389-2.821-5.73-5.229
		c2.452-1.301,4.577-1.218,6.965-0.318c-0.1,0.745-0.18,1.494-0.242,2.242c-0.055,0.659,0.601,1.223,1.222,1.223
		c0.684,0,1.196-0.56,1.223-1.223c0.016-0.406,0.03-0.813,0.037-1.22c0.081,0.042,0.157,0.076,0.239,0.119
		c1.283,0.674,2.591,1.303,3.926,1.826C437.173,160.305,435.5,162.508,432.138,161.799z"/>
	<path style="fill:#231F20;" d="M434.343,148.46c0.474-0.012,0.833-0.666,0.419-1.012c-6.225-5.201-17.874-2.533-20.371,5.39
		c-0.235,0.745,0.867,1.475,1.384,0.806c1.96-2.534,4.554-4.567,7.702-5.354C427.149,147.372,430.665,148.556,434.343,148.46z"/>
	<path style="fill:#231F20;" d="M493.059,161.542c-0.077,0.088-0.138,0.187-0.205,0.283c-0.68,0.545-1.126,1.362-1.202,2.315
		c-0.12,1.517,0.952,2.822,2.381,3.226c3.471,0.982,5.885-3.357,3.598-5.978C496.389,159.964,494.253,160.174,493.059,161.542z"/>
	<path style="fill:#231F20;" d="M499.834,156.781c-2.6-1.906-6.486-1.164-9.246,0.021c-0.432,0.186-0.157,0.771,0.217,0.802
		c2.645,0.222,6.059-0.495,7.971,1.77c1.354,1.605,1.277,3.888,2.748,5.39c0.388,0.397,0.942,0.151,1.126-0.297
		C503.702,161.905,501.952,158.333,499.834,156.781z"/>
	<path style="fill:#231F20;" d="M504.98,148.921c-3.77-3.326-9.114-3.946-13.998-5.136c-8.488-2.068-16.456-6.258-25.133-7.269
		c-14.204-1.656-29.548,5.243-42.394-1.038c-1.356-0.663-2.693-1.508-3.491-2.789c-0.768-1.234-0.953-2.728-1.22-4.157
		c-1.089-5.834-3.864-11.344-7.904-15.692c-8.324-8.96-21.01-12.346-30.771-19.715c-12.19-9.204-19.153-24.907-17.789-40.121
		c0.255-2.85,0.54-6.296-1.771-7.984c-14.729,20.894-14.305,51.267,1.002,71.742c-14.94-0.122-29.314-7.19-40.081-17.549
		c-10.766-10.359-18.178-23.799-23.307-37.832c-0.64-1.75-2.689-3.848-3.879-2.415c-0.461,0.556-0.393,1.364-0.301,2.08
		c0.991,7.699,1.982,15.399,2.973,23.098c2.049,15.92,4.624,32.99,15.669,44.637c15.868,16.733,42.629,15.916,63.079,26.574
		c-12.387,1.721-24.541,5.117-36.026,10.068c-1.116,0.481-2.424,1.305-2.267,2.509c0.13,1.005,1.217,1.549,2.16,1.919
		c5.29,2.076,10.579,4.151,15.869,6.227c-16.683,8.442-26.835,28.202-23.98,46.681c2.069,13.398,10.179,26.818,5.78,39.642
		c-2.256,6.576-6.91,11.266-12.426,12.644c-7.876-11.313-5.845-25.906-10.624-38.405c-2.522-6.595-7.03-12.158-10.009-18.531
		c-3.522-7.538-5.701-15.637-7.565-23.72c-3.864-16.747-5.929-33.904-6.102-51.09c-0.082-8.208,0.319-16.406,1.147-24.572
		c0.816-8.056,2.951-16.253,2.904-24.366c-0.034-5.965-1.9-11.972-4.732-17.719c1.498-6.384,0.834-13.574,0.375-19.973
		c-0.537-7.485-1.899-14.814-3.385-22.156c-0.327-1.615-2.274-1.746-3.341-0.882c-4.313,3.492-8.596,7.021-12.873,10.557
		c0.598-8.78-0.667-17.756-7.357-24.141c-0.745-0.711-2.158-0.86-2.881,0c-2.645,3.144-5.291,6.288-7.936,9.433
		c-1.703,2.023-3.52,3.805-4.532,6.141c-9.405-5-19.351-9.133-29.179-12.967C188.048,10.701,154.67,1.84,121.72,0.003
		c-2.269-0.126-3.348,3.439-1.198,4.423c10.486,4.8,19.746,13.396,27.202,22.398c-18.843-4.2-38.518-5.022-57.673-3.753
		c-29.064,1.926-58.174,8.4-86.295,15.755c-2.983,0.78-2.067,4.779,0.685,5.061c4.607,0.472,9.106,0.035,13.576-0.727
		c18.167,4.392,30.152,24.589,35.307,41.423c5.815,18.991,4.808,39.522-2.907,57.814c-0.653,1.547,0.97,3.238,2.451,3.218
		c16.374-0.222,32.114,6.571,41.758,20.207c9.624,13.608,10.732,31.312,4.784,46.615c-0.78,2.009,1.44,3.393,3.127,3.127
		c21.478-3.39,42.689,12.465,46.355,33.677c0.214,1.238,1.89,2.179,3.055,1.735c10.973-4.188,22.79-8.787,34.761-6.716
		c9.567,1.655,18.535,7.58,21.184,17.279c0.498,1.825,2.646,2.183,3.97,1.048c12.016-10.301,30.408-9.835,41.727,1.168
		c-0.013,2.185-0.107,4.375-0.24,6.568c-10.353-1.588-20.744,0.626-30.841,2.975c-11.438,2.661-22.779,4.75-34.482,5.879
		c-21.484,2.072-42.925,3.072-63.757,9.225c-37.017,10.934-70.629,34.256-90.453,67.792c-8.582,14.518-15.025,31.375-17.212,48.396
		c-5.269,14.423-2.051,32.23,5.306,45.181c8.208,14.451,22.022,24.778,36.884,31.674c37.529,17.414,78.545,14.873,118.696,12.27
		c23.624-1.531,47.539-2.51,70.849,2.344c-0.094,4.569-0.187,9.139-0.281,13.708c-0.034,1.666,1.928,2.81,3.354,1.925
		c8.002-4.97,15.951-10.025,23.92-15.047c1.272-0.802,1.462-2.458,0.458-3.557c-6.945-7.598-13.829-15.25-20.788-22.835
		c-1.152-1.255-3.583-0.678-3.932,1.038c-1.034,5.089-2.029,10.187-3.035,15.282c-10.012-4.18-21.358-5.534-32.071-6.488
		c-12.596-1.122-25.263-1.1-37.898-0.991c-24.868,0.215-50.245,1.198-74.367-5.954c-22.096-6.552-52.564-21.627-52.589-48.248
		c-0.021-22.711,16.792-42.052,36.493-51.335c11.031-5.198,23.566-7.523,35.717-6.32c14.483,1.434,27.808,7.885,40.676,14.294
		c-1.812,2.405-3.882,4.654-6.144,6.783c-4.128,3.885-10.055,7.234-10.965,13.313c-0.567,3.788,0.012,7.916,0.148,11.73
		c0.17,4.764,0.286,9.528,0.402,14.294c0.223,9.189,0.409,18.38,0.684,27.567c0.087,2.914-0.44,6.836,2.051,8.961
		c2.552,2.177,7.409,1.979,10.533,2.378c9.954,1.27,19.96,1.63,29.981,1.214c1.232,1.088,3.235,0.912,5.056,0.919
		c3.594,0.013,6.781,0.792,10.206,1.778c1.675,0.482,2.87-1.078,2.607-2.607c-0.246-1.429-0.477-2.866-0.797-4.27
		c1.379-0.047,2.874-0.589,4.206-0.624c2.107-0.055,3.867,0.136,5.845-0.706c0.494-0.21,0.802-0.693,0.942-1.221
		c4.871,0.926,11.385,1.978,14.436-0.17c0.442,0.23,0.99,0.324,1.548,0.292c2.962-0.169,5.427-0.643,8.294,0.624
		c1.973,0.872,3.898-0.91,2.933-2.933c-0.917-1.922-1.154-3.927-2.258-5.761c0.801-0.454,1.569-0.891,2.506-1.125
		c1.274-0.318,1.947-1.932,1.242-3.053c-2.026-3.223-4.074-6.314-7.696-7.904c-2.701-1.186-6.324-1.561-8.931-0.037
		c-0.914-1.526-2.079-2.915-3.52-4.094c-4.393-3.592-11.326-2.948-15.099-7.066c-5.649-6.166,1.625-15.597,3.906-21.962
		c1.656-4.619,2.661-9.52,1.341-14.16c2.923,0.549,5.933,0.776,8.625,1.011c8.024,0.699,16.156,0.612,24.201,0.395
		c15.651-0.423,32.595-1.288,47.895-5.17c1.994,7.788,4.025,15.569,5.829,23.402c2.391,10.389,3.002,19.811-0.115,30.097
		c-1.804,5.955-5.846,14.382-2.776,20.569c2.931,5.907,11.927,5.44,17.45,5.941c4.646,0.421,9.306,0.683,13.97,0.785
		c2.003,0.044,4.719,0.422,6.824-0.354c1.598,0.953,3.627,0.5,5.538,0.582c3.095,0.132,6.092,0.701,9.081,1.485
		c1.501,0.393,3.166-1.044,2.63-2.63c-0.061-0.181-0.125-0.363-0.188-0.544c2.376-0.198,4.747-0.384,7.134-0.438
		c1.038-0.023,1.938-0.824,2.088-1.812c4.752,1.291,10.39,1.434,14.812,1.592c2.365,0.084,4.555-0.32,6.331-1.384
		c0.421,0.391,1.038,0.616,1.809,0.5c1.923-0.288,3.812-0.631,5.766-0.551c1.984,0.081,3.759,0.712,5.68,1.079
		c1.486,0.284,2.72-0.876,2.392-2.392c-0.133-0.614-0.259-1.235-0.389-1.857c2.113-0.766,4.141-1.199,6.471-1.453
		c1.307-0.143,2.188-1.137,1.895-2.488c-1.047-4.838-3.201-9.061-7.529-11.747c-3.469-2.154-8.1-2.941-12.048-1.719
		c-0.99-1.375-2.309-2.629-3.736-3.702c-4.436-3.334-6.315-6.02-7.239-11.401c-0.969-5.645-1.62-11.396-1.958-17.114
		c-0.634-10.727,2.13-20.631,3.497-31.139c0.729-5.601,1.234-13.37-2.176-18.414c7.473-5.836,13.959-12.959,18.558-21.257
		c6.938-12.52,9.096-27.088,8.789-41.246c-0.335-15.442-4.044-30.719-3.365-46.195c0.398-9.07,2.827-17.77,8.111-25.225
		c4.291-6.053,9.948-9.922,15.62-14.366c14.637,3.098,29.408,5.56,44.262,7.346c5.348,0.643,10.835,1.193,16.069-0.08
		s10.247-4.725,11.949-9.835c0.346-1.039,0.519-2.277-0.14-3.152c-0.577-0.767-1.601-1.007-2.448-1.46
		c-5.138-2.752-2.47-11.937-7.252-15.268c-2.441,0.552-3.451,3.363-4.72,5.52s-4.495,3.924-6.043,1.957
		c-0.536-0.682-0.635-1.599-0.714-2.463l-0.918-10.104c-4.121,2.093-7.946,4.768-11.326,7.92c-0.831-3.547,1.573-8.413-1.548-10.292
		c-1.946-1.171-4.462,0.169-6.018,1.824c-1.555,1.655-2.859,3.743-4.992,4.523c-9.158-6.592-20.306-10.38-31.585-10.733
		c13.711-3.269,28.009-4.063,41.997-2.331c1.799,0.223,3.771,0.583,4.909,1.995c1.938,2.405,0.806,7.018,3.689,8.126
		c2.527-2.373,4.744-5.077,6.575-8.021c0.853,3.738,1.706,7.476,2.56,11.214c0.292,1.28,0.942,2.858,2.254,2.834
		c0.882-0.016,1.533-0.797,2.056-1.507l6.997-9.505c-0.556,2.082-1.114,4.271-0.602,6.365c0.512,2.093,2.491,3.997,4.614,3.629
		c1.489-0.258,2.589-1.496,3.505-2.697c5.37-7.05,8.766-15.582,9.748-24.388c0.117-1.052,0.2-2.108,0.248-3.166
		C510.315,159.041,509.287,152.721,504.98,148.921z M354.857,171.715c-3.226-1.197-6.426-2.461-9.587-3.821
		c3.338-1.114,6.691-2.169,10.07-3.15C354.637,166.942,354.381,169.447,354.857,171.715z M234.882,456.972
		c-0.051-1.109-0.358-2.429-0.996-4.013c-0.175-0.435-0.376-0.832-0.587-1.216c0.155-0.017,0.306-0.029,0.472-0.059
		c1.88-0.347,3.554-0.406,5.175,0.798c1.305,0.969,2.286,2.652,2.758,4.401C239.453,456.353,237.137,456.307,234.882,456.972z
		 M238.839,444.331c1.741,0.979,3.213,2.506,4.113,4.304c-0.728,0.359-1.362,0.857-1.872,1.506
		c-0.322-0.248-0.657-0.477-1.011-0.678c-1.485-0.843-3.184-1.129-4.87-0.978c-0.786,0.071-1.41,0.212-1.959,0.423
		c-0.123-1.862-0.521-3.674-1.176-5.377C234.382,443.159,236.546,443.042,238.839,444.331z M392.374,449.77
		c3.012-0.276,5.863-0.068,8.651,1.706c2.491,1.585,4.46,4.207,5.199,7.105c-1.824,0.107-3.579,0.575-5.241,1.394
		c-0.727-2.042-1.825-3.887-3.805-5.214c-1.293-0.867-3.116-1.391-4.907-1.404C392.664,452.13,392.662,450.927,392.374,449.77z
		 M390.278,462.906c0.833-2.212,0.87-4.233,0.348-6.005c1.737-0.1,3.454-0.278,5.025,1.145c1.475,1.335,2.226,3.323,2.611,5.339
		c-2.591-0.677-5.497-0.723-8.097-0.211C390.201,463.083,390.243,462.999,390.278,462.906z M415.091,133.013
		c-3.463-0.875-7.267-1.43-9.917,1.01c-0.773-1.841-1.859-3.504-3.164-4.997c3.146-2.591,6.517-3.96,10.568-4.977
		C413.737,126.917,414.421,129.946,415.091,133.013z M402.657,137.14c-2.768,3.718-5.135,7.116-9.478,9.744
		c-3.9,2.359-8.324,3.9-10.999,7.819c-0.334-0.315-0.686-0.608-1.036-0.902c0.926-4.97,3.152-9.746,6.374-13.636
		c1.623-1.96,3.489-3.722,5.558-5.205c1.72-1.233,3.672-1.994,5.49-2.987C400.078,133.424,401.454,135.126,402.657,137.14z
		 M409.732,118.885c0.947,1.277,1.695,2.618,2.329,3.996c-4.012,0.366-7.951,2.479-10.814,5.328
		c-1.51-1.557-3.267-2.909-5.162-4.061c1.453-1.838,2.74-3.787,4.767-5.219c2.039-1.44,4.373-2.302,6.788-2.496
		C408.379,117.209,409.087,118.016,409.732,118.885z M406.488,115.282c-1.956,0.237-3.865,0.936-5.612,2.023
		c-2.184,1.359-4.703,3.583-6.235,6.033c-2.771-1.49-5.758-2.589-8.671-3.282c1.342-2.448,3.103-4.639,5.31-6.396
		c2.422-1.929,5.164-2.656,7.838-3.848C401.736,111.412,404.264,113.184,406.488,115.282z M397.181,108.661
		c0.117,0.067,0.232,0.14,0.349,0.208c-2.513,0.606-4.988,2.204-6.845,3.668c-2.498,1.97-4.493,4.437-5.836,7.274
		c-4.09-0.892-8.225-1.383-12.374-1.773c0.145-0.466,0.301-0.931,0.507-1.382c1.112-2.436,2.674-4.659,4.602-6.516
		c3.345-3.223,7.399-4.895,11.761-5.622C391.981,105.862,394.622,107.198,397.181,108.661z M387.633,103.641
		c-3.964,0.704-7.745,2.613-10.674,5.321c-2.135,1.974-3.898,4.387-5.111,7.03c-0.287,0.625-0.5,1.274-0.706,1.925
		c-1.025-0.092-2.049-0.18-3.074-0.268c-0.791-0.995-1.586-1.979-2.37-2.968c1.235-3.74,2.974-7.534,5.537-10.382
		c1.371-1.524,3.003-2.805,4.803-3.785c1.154-0.628,2.365-0.986,3.57-1.366C382.191,100.786,384.899,102.234,387.633,103.641z
		 M358.434,54.963c-0.104,3.094,0.022,6.196,0.375,9.265c-1.485,0.144-2.973,0.654-4.297,1.381
		C355.461,61.956,356.768,58.391,358.434,54.963z M354.184,66.904c1.493-0.786,3.158-0.951,4.805-1.264
		c0.238,1.712,0.543,3.413,0.931,5.09c-2.488,0.462-4.943,1.571-6.916,3.213C353.243,71.57,353.642,69.22,354.184,66.904z
		 M353.282,86.964c-0.559-3.853-0.679-7.696-0.408-11.488c2.23-1.655,4.545-2.824,7.33-3.534c0.802,3.132,1.874,6.183,3.258,9.091
		c-3.923,0.683-7.64,3.562-9.988,7.024C353.415,87.692,353.336,87.33,353.282,86.964z M353.766,89.701
		c0.945-1.43,2.015-2.761,3.335-3.918c2.075-1.817,4.382-2.702,6.852-3.759c1.259,2.491,2.738,4.877,4.473,7.111
		c-3.079,1.145-5.967,3.658-8.009,5.714c-1.404,1.413-2.819,3.162-3.627,5.066C355.463,96.614,354.454,93.188,353.766,89.701z
		 M359.265,105.283c-0.568-1.073-1.09-2.171-1.587-3.279c0.517-3.053,2.732-5.47,5.228-7.687c2.093-1.86,4.242-2.914,6.56-3.903
		c0.921,1.094,1.887,2.161,2.936,3.172c1.761,1.698,3.662,3.182,5.648,4.534c-2.965,1.037-5.842,3.284-7.672,5.324
		c-2.674,2.98-4.276,6.662-5.266,10.493C362.974,111.214,360.932,108.431,359.265,105.283z M298.499,72.897
		c1.671,3.368,3.538,6.651,5.51,9.86c-1.389,0.319-2.775,1.439-3.904,2.589C299.482,81.209,298.942,77.055,298.499,72.897z
		 M300.297,86.563c0.551-0.415,1.091-0.845,1.644-1.274c0.567-0.441,1.141-0.849,1.806-1.129c0.321-0.135,0.646-0.203,0.974-0.255
		c1.121,1.789,2.264,3.561,3.444,5.295c-1.806,1.03-3.496,2.806-4.62,4.174c-0.6,0.731-1.178,1.519-1.684,2.35
		C301.285,92.689,300.773,89.63,300.297,86.563z M302.553,99.343c-0.118-0.575-0.218-1.158-0.332-1.735
		c0.756-1.359,1.557-2.681,2.64-3.885c1.214-1.35,2.752-2.239,4.171-3.259c0.735,1.062,1.475,2.116,2.223,3.155
		c1.202,1.669,2.467,3.253,3.782,4.772c-2.451,1.309-4.683,3.903-6.059,5.884c-1.283,1.847-2.535,4.189-3.026,6.567
		C304.479,107.217,303.378,103.363,302.553,99.343z M306.793,112.785c0.896-2.726,1.546-5.399,3.284-7.868
		c0.968-1.377,2.124-2.626,3.417-3.704c0.785-0.655,1.679-1.156,2.543-1.69c2.494,2.754,5.176,5.267,8.054,7.555
		c-5.733,3.35-9.77,9.985-10.273,16.607C310.89,120.413,308.598,116.749,306.793,112.785z M320.546,129.684
		c-2.112-1.496-3.993-3.134-5.688-4.888c0.748-7.169,4.324-12.899,10.362-16.843c2.816,2.146,5.799,4.101,8.974,5.859
		c-6.113,3.676-10.145,11.266-9.702,18.413C323.149,131.436,321.831,130.595,320.546,129.684z M325.558,132.834
		c0.141-7.646,3.343-13.957,9.793-18.357c0.01-0.007,0.014-0.017,0.024-0.024c0.44,0.234,0.864,0.484,1.311,0.711
		c2.708,1.377,5.476,2.53,8.289,3.51c-2.68,1.81-4.963,4.655-6.384,7.161c-2.014,3.551-3.032,7.736-2.591,11.787
		C332.409,136.271,328.908,134.714,325.558,132.834z M336.945,137.968c-0.006-4.022,0.603-7.946,2.657-11.541
		c1.01-1.768,2.29-3.373,3.776-4.764c1.021-0.955,2.166-1.681,3.311-2.41c3.131,1.002,6.316,1.792,9.549,2.397
		c-2.49,1.841-4.518,4.648-5.768,7.208c-1.978,4.054-2.379,8.551-1.509,12.921C344.917,140.623,340.884,139.406,336.945,137.968z
		 M353.504,143.062c-1.156-0.325-2.314-0.651-3.472-0.98c-0.876-4.502-0.311-9.201,1.899-13.262c1.632-3,3.91-4.805,6.365-6.811
		c3.477,0.567,7.003,0.94,10.564,1.162c0.51,0.032,1.021,0.065,1.531,0.098c-7.015,3.97-10.446,13.974-9.273,21.8
		C358.51,144.385,355.934,143.746,353.504,143.062z M362.33,145.392c0.111-4.714,0.147-9.205,2.368-13.625
		c1.902-3.786,4.821-6.334,8.391-8.309c4.531,0.343,9.017,0.85,13.191,1.972c-4.065,1.918-7.674,5.162-10.226,8.718
		c-2.633,3.669-5.105,9.057-5.11,13.947C368.146,147.027,365.226,146.17,362.33,145.392z M372.269,148.622
		c0.242-1.785,0.409-3.58,0.906-5.338c0.817-2.894,2.084-5.667,3.824-8.124c2.984-4.213,6.879-6.855,11.352-9.106
		c3.269,1.08,6.31,2.598,8.973,4.811c-4.261,1.52-8.386,5.465-10.971,8.66c-3.236,4-5.238,8.549-6.116,13.548
		C377.847,151.238,375.135,149.806,372.269,148.622z M376.235,159.9c1.322-0.299,2.64-0.611,3.946-0.962
		c0.036,0.04,0.075,0.075,0.111,0.115c0.04,0.044,0.082,0.072,0.123,0.112c-0.478,2.892,0.019,5.886,0.001,9.062
		c-0.022,4.002-1.986,7.191-3.427,10.599c-0.017-0.005-0.03-0.017-0.046-0.022c-1.323-0.367-2.644-0.742-3.963-1.125
		c-0.772-3.262-0.673-6.302,0.179-9.66C373.856,165.274,374.711,162.345,376.235,159.9z M383.151,208.041
		c0.799,1.062,2.019,2.247,3.378,2.602c-1.229,0.607-2.461,1.209-3.692,1.813c-0.639-0.172-1.277-0.353-1.862-0.755
		c-1.269-0.871-2.059-2.124-2.285-3.645c-0.025-0.167-0.131-0.268-0.263-0.322c0.901-1.352,1.831-2.691,2.758-4.035
		C381.587,205.26,382.192,206.767,383.151,208.041z M381.967,202.547c0.841-1.235,1.669-2.478,2.445-3.752
		c2.916,2.818,6.015,5.43,9.439,7.638c0.177,0.114,0.358,0.216,0.536,0.326c-2.14,1.057-4.281,2.115-6.422,3.173
		c-1.665-1.184-3.203-1.642-4.395-3.501C382.8,205.23,382.356,203.899,381.967,202.547z M381.179,213.269
		c-2.568,1.255-5.139,2.502-7.721,3.724c1.071-2.931,2.606-5.627,4.302-8.248c0.304,1.507,1.105,2.858,2.332,3.824
		C380.396,212.809,380.772,213.054,381.179,213.269z M380.132,194.406c-2.647,0.257-5.286,0.582-7.922,0.941
		c-1.055-1.367-1.142-4.373-1.216-5.47c-0.101-1.482-0.022-2.946,0.186-4.403c1.467-0.753,2.949-1.485,4.464-2.171
		c-0.031,0.206-0.067,0.411-0.089,0.621C375.119,188.22,377.403,191.415,380.132,194.406z M374.987,160.181
		c-1.425,2.451-2.278,5.281-2.987,7.979c-0.768,2.923-1.225,6.142-0.45,9.093c-2.578-0.763-5.145-1.563-7.701-2.399
		c-0.278-4.236-0.32-9.128,1.942-12.771C368.852,161.431,371.931,160.843,374.987,160.181z M370.114,192.619
		c0.133,0.797,0.284,1.981,0.68,2.935c-1.334,0.191-2.67,0.369-4.001,0.585c-0.333,0.054-0.687,0.129-1.033,0.196
		c-0.37-0.802-0.758-1.601-0.944-2.492c-0.354-1.697-0.166-3.215,0.063-4.852c1.695-1.025,3.42-2.005,5.18-2.936
		C369.758,188.231,369.746,190.427,370.114,192.619z M356.309,164.459c1.367-0.39,2.738-0.768,4.115-1.129
		c1.417-0.371,2.846-0.7,4.279-1.015c-0.967,1.578-1.327,3.541-1.708,5.362c-0.429,2.049-0.917,4.496-0.592,6.7
		c-1.987-0.663-3.963-1.359-5.932-2.073c-0.305-0.844-0.554-1.708-0.651-2.659C355.639,167.876,355.81,166.135,356.309,164.459z
		 M283.662,38.629c0.579,2.565,1.041,5.154,1.448,7.753c-0.737-0.932-1.653-1.695-2.646-2.34c-0.593-0.385-1.868-1.231-3.146-1.811
		C280.765,41.03,282.22,39.837,283.662,38.629z M277.855,43.443c1.339,0.493,2.7,0.933,3.961,1.706
		c1.362,0.836,2.481,1.876,3.246,3.291c0.178,0.329,0.339,0.646,0.499,0.957c0.413,3.076,0.737,6.164,0.978,9.255
		c0.001,0.014,0.001,0.028,0.002,0.042c-1.47-2.321-3.676-4.336-5.743-5.749c-2.501-1.71-5.716-3.606-8.91-4.555
		C273.882,46.747,275.866,45.091,277.855,43.443z M271.072,49.067c2.965,1.088,5.908,2.682,8.451,4.352
		c1.902,1.25,3.587,2.778,4.945,4.61c0.893,1.205,1.516,2.544,2.233,3.838c0.087,3.1,0.014,6.233,0.098,9.339
		c-1.745-2.873-3.671-5.653-5.674-8.289c-3.052-4.75-7.036-8.983-11.393-12.739C270.18,49.809,270.624,49.436,271.072,49.067z
		 M261.839,24.562c2.01,2.424,3.267,5.2,3.997,8.148c-1.375-1.319-2.898-2.449-4.754-3.169c-0.72-0.279-1.773-0.622-2.795-0.738
		C259.47,27.39,260.654,25.976,261.839,24.562z M255.902,31.65c0.394-0.47,0.787-0.94,1.181-1.409
		c3.189-0.62,6.683,1.948,9.148,4.383c0.393,2.312,0.507,4.703,0.431,7.095c-0.727-0.829-1.406-1.756-2.304-2.382
		c-1.446-1.008-2.985-1.914-4.607-2.606c-2.319-0.988-4.757-1.47-7.14-1.119C253.769,34.379,254.789,32.98,255.902,31.65z
		 M251.429,36.753c3.553-0.573,6.976,0.356,10.155,2.228c1.718,1.012,3.173,2.065,4.365,3.663c0.234,0.313,0.421,0.569,0.629,0.78
		c-0.086,1.3-0.215,2.594-0.381,3.87c-2.28-1.77-4.616-3.425-6.939-4.962c-2.731-1.806-5.553-3.487-8.424-5.094
		C251.039,37.084,251.235,36.919,251.429,36.753z M213.784,25.976c13.625,5.074,27.202,10.726,39.784,18.062
		c9.676,5.642,17.515,12.286,24.727,20.287c2.767,4.901,5.363,9.9,7.69,15.018c2.343,5.153,4.097,10.256,3.952,15.989
		c-0.133,5.206-1.386,10.403-2.026,15.568c-2.576,20.809-2.484,42.022,0.244,62.809c2.526,19.251,6.689,38.74,16.84,55.497
		c5.041,8.321,6.983,16.383,8.423,25.895c1.072,7.08,2.357,14.053,5.949,20.212c-2.079-0.298-4.205-1.058-6.311-2.353
		c-2.03-2.501-4.48-4.707-6.387-7.537c-6.938-10.292-6.365-23.997-11.754-35.062c-5.251-10.784-14.065-19.228-21.396-28.55
		c-4.414-5.611-8.223-11.68-10.409-18.52c-0.749-2.344-1.252-4.699-1.635-7.065c0.004-0.207-0.01-0.422-0.063-0.65
		c-0.073-0.316-0.119-0.631-0.183-0.947c-0.334-2.423-0.555-4.859-0.753-7.31c-0.068-10.738,4.147-21.114,8.744-30.854
		c2.47-5.233,5.016-10.417,7.195-15.781c1.789-4.404,4.131-9.65,4.855-14.519c4.929-12.142-1.255-27.8-9.801-36.642
		c-1.088-1.125-3.349-0.669-3.669,0.968c-0.924,4.736-2.396,9.184-4.438,13.411c-0.521-4.609-2.116-8.985-4.689-12.877
		c-6.923-18.541-27.005-29.41-45.119-36.613c-13.773-5.477-27.938-9.933-41.957-14.728c-7.076-2.421-14.137-4.894-21.134-7.534
		c-4.012-1.514-7.986-3.305-11.994-4.971C164.13,11.215,189.173,16.811,213.784,25.976z M272.504,80.964
		c1.084,0.428,2.095,1.04,2.916,1.837c0.983,2.044,1.791,4.186,2.388,6.45c0.141,0.536,0.244,1.068,0.353,1.601
		c-1.035-0.687-2.111-1.246-2.798-1.638c-2.661-1.517-5.533-2.601-8.521-2.747c1.014-2.005,1.897-4.064,2.678-6.168
		C270.521,80.464,271.542,80.584,272.504,80.964z M270.063,78.799c0.344-1.01,0.667-2.029,0.957-3.062
		c1.137,1.456,2.165,2.973,3.08,4.554C272.993,79.676,271.512,79.046,270.063,78.799z M273.118,89.39
		c1.656,0.836,3.895,1.989,5.398,3.509c0.274,1.938,0.402,3.867,0.437,5.799c-1.112-0.886-2.509-1.607-4.043-2.368
		c-3.544-1.759-7.065-3.557-10.559-5.408c0.723-1.169,1.402-2.356,2.038-3.562C268.723,87.652,270.969,88.305,273.118,89.39z
		 M255.14,75.574c0.521,0.209,1.03,0.325,1.555,0.465c1.391,2.756,2.277,5.73,2.573,8.827c-1.603-1.837-3.007-3.7-5.183-5.062
		c-1.783-1.116-3.682-1.81-5.696-2.106c0.825-1.263,1.65-2.526,2.475-3.788C252.405,73.994,253.693,74.993,255.14,75.574z
		 M251.4,73.088c0.544-0.832,1.088-1.664,1.631-2.496c1.101,1.257,2.051,2.604,2.878,4.01
		C254.353,74.033,252.946,73.164,251.4,73.088z M255.296,81.984c1.46,1.3,2.361,3.592,4.074,4.541c0.016,0.564,0.02,1.13-0.002,1.7
		c-0.792-0.438-1.587-0.869-2.376-1.315c-3.56-2.012-7.066-4.105-10.538-6.252c0.478-0.73,0.955-1.462,1.433-2.192
		C250.608,78.997,253.209,80.125,255.296,81.984z M131.133,6.362c10.016,6.137,22.413,9.962,33.212,13.969
		c13.144,4.876,26.394,9.455,39.492,14.457c17.634,6.735,36.826,15.261,47.981,30.534c-0.36,0.173-0.686,0.438-0.928,0.809
		c-2.673,4.094-5.349,8.186-8.016,12.284c-5.946-3.772-11.791-7.702-17.582-11.725c-19.659-13.655-39.305-27.881-62.208-35.611
		c-2.861-0.965-5.752-1.837-8.666-2.623C147.592,19.575,139.708,12.83,131.133,6.362z M55.688,78.18
		c-5.167-13.037-16.133-30.953-30.724-36.387c1.628-0.346,3.258-0.696,4.893-1.021c8.479-1.689,17.04-2.958,25.652-3.725
		c17.022-1.515,34.23-1.065,51.178,1.103c35.681,4.564,67.64,18.275,99.095,35.132c9.423,5.05,18.843,10.104,28.264,15.156
		c5.363,2.876,14.628,7.059,18.464,13.114c-16.655-4.581-35.379-3.297-52.301-1.973c-17.162,1.343-34.228,3.666-51.111,7.037
		c-17.331,3.46-34.431,8.108-51.071,14.067c-7.694,2.755-15.288,5.791-22.759,9.104c-5.929,2.629-12.358,5.284-18.031,8.777
		C63.88,119.063,63.294,97.371,55.688,78.18z M106.558,205.929c6.3-30.608-16.1-61.992-47.572-65.127
		c5.422-2.406,10.671-5.368,16.037-7.777c7.796-3.5,15.72-6.702,23.764-9.589c16.052-5.76,32.531-10.307,49.233-13.741
		c16.9-3.475,34.051-5.725,51.261-6.91c8.709-0.6,17.458-0.92,26.186-0.656c7.294,0.22,14.346,1.204,21.45,2.346
		c-5.332,1.475-10.677,3.985-15.46,5.945c-6.799,2.786-13.501,5.811-20.079,9.086c-14.334,7.138-28.079,15.441-41.08,24.791
		c-12.689,9.126-24.694,19.212-35.821,30.19c-5.501,5.428-10.793,11.067-15.853,16.909
		C114.719,195.906,110.012,200.743,106.558,205.929z M151.707,240.938c-6.599-17.694-24.276-30.038-43.093-30.641
		c4.64-4.918,8.466-10.955,12.871-16.042c5.059-5.842,10.35-11.483,15.853-16.909c11.081-10.927,23.017-20.988,35.676-30.04
		c12.349-8.83,25.367-16.732,38.906-23.601c7.23-3.668,14.609-7.05,22.123-10.095c4.577-1.854,9.731-3.303,14.457-5.306
		c-9.479,7.586-17.984,17.123-26.259,25.659c-10.682,11.018-20.873,22.519-30.26,34.664
		C175.064,190.515,160.672,214.681,151.707,240.938z M209.191,253.428c-4.209-6.367-10.937-10.812-18.463-12.902
		c-11.91-3.308-24.639-0.163-36.052,4.094c9.366-26.723,23.342-51.345,40.5-73.842c9.16-12.01,19.153-23.378,29.593-34.288
		c4.85-5.069,9.803-10.039,14.831-14.931c4.876-4.744,10.157-9.226,14.635-14.369c0.001,0.236,0.009,0.469-0.009,0.71
		c-3.607,7.51-7.438,15.005-11.793,22.102c-3.982,6.49-8.73,12.519-12.438,19.174c-3.322,5.963-6.188,12.803-5.703,19.768
		c0.234,3.358,1.152,6.569,2.406,9.669c-1.94,5.985-3.043,12.313-4.464,18.415c-1.628,6.992-3.275,13.979-4.872,20.979
		c-1.522,6.667-3.045,13.334-4.535,20.009C211.72,242.981,210.025,248.243,209.191,253.428z M212.377,256.383
		c1.855-5.574,2.57-11.791,3.79-17.447c1.515-7.025,2.992-14.057,4.474-21.089c2.476-11.752,5.957-23.907,7.521-35.942
		c1.077,2.239,2.27,4.423,3.447,6.563c8.056,14.653,14.819,29.911,18.639,46.249c1.868,7.988,2.95,15.886,3.252,23.795
		C241.909,249.426,224.819,248.479,212.377,256.383z M104.783,478.596c-6.529-0.496-12.945-1.552-19.178-3.354
		c1.114-0.661,2.235-1.367,3.096-2.251C93.945,475.255,99.315,477.104,104.783,478.596z M87.317,472.376
		c-1.218,0.622-2.367,1.522-3.472,2.315c-3.048-0.957-6.056-2.077-9.002-3.429c0.587-0.533,1.178-1.061,1.799-1.56
		c0.672-0.541,1.465-1.014,2.114-1.611C81.564,469.662,84.422,471.079,87.317,472.376z M68.494,461.647
		c2.159,1.504,4.353,2.92,6.521,4.254c0.821,0.505,1.652,0.98,2.481,1.459c-0.585,0.378-1.126,0.853-1.64,1.272
		c-0.776,0.633-1.533,1.315-2.227,2.049c-2.721-1.308-5.397-2.788-8.015-4.48c-0.431-0.279-0.855-0.582-1.283-0.872
		c0.625-0.469,1.237-0.955,1.841-1.456C66.961,463.219,67.94,462.535,68.494,461.647z M67.533,460.975
		c-0.775,0.398-1.457,1.043-2.108,1.589c-0.766,0.643-1.518,1.296-2.236,1.987c-2.82-1.99-5.557-4.21-8.155-6.629
		c1.867-0.704,3.729-1.52,5.166-2.825C62.508,457.21,64.989,459.16,67.533,460.975z M59.489,454.443
		c-1.874,0.599-3.615,1.665-5.368,2.626c-2.318-2.23-4.517-4.613-6.542-7.136c2.127-0.371,4.304-0.934,6.151-1.915
		C55.434,450.318,57.383,452.451,59.489,454.443z M52.937,446.922c-0.981,0.371-1.951,0.783-2.949,1.115
		c-1.065,0.354-2.142,0.634-3.231,0.865c-2.402-3.108-4.544-6.41-6.342-9.863c2.612,0.695,5.716,0.48,8.177-0.619
		c0.351,1.002,0.741,1.993,1.184,2.967C50.661,443.334,51.73,445.173,52.937,446.922z M46.867,417.998
		c-0.402,2.809-0.566,5.65-0.468,8.474c-3.424,0.599-7.1,1.966-10.478,1.028c-0.608-2.36-1.044-4.761-1.28-7.194
		c-0.132-1.361-0.171-2.72-0.152-4.078C37.856,418.729,42.768,419.2,46.867,417.998z M34.525,415.064
		c0.188-4.346,1.051-8.664,2.258-12.9c3.013,3.291,8.224,5.98,12.684,5.39c-0.104,0.292-0.219,0.58-0.318,0.874
		c-0.855,2.536-1.528,5.154-2.002,7.81c-1.95,0.347-3.859,0.897-5.904,0.879C38.857,417.095,36.48,416.425,34.525,415.064z
		 M39.201,428.989c2.303,0.098,5.107-0.121,7.264-1.217c0.197,3.073,0.724,6.116,1.613,9.067c-0.995,0.42-1.993,0.84-3.072,1.067
		c-1.819,0.382-3.619,0.404-5.276-0.216c-1.425-2.915-2.612-5.926-3.489-9.018C37.251,428.887,38.312,428.951,39.201,428.989z
		 M49.976,406.155c-2.104-0.312-4.212-0.348-6.279-1.055c-2.478-0.848-4.63-2.191-6.669-3.779c1.188-4.018,2.651-7.96,4.094-11.78
		c0.057-0.152,0.122-0.301,0.179-0.453c2.275,4.655,7.342,7.767,12.193,9.539C52.155,401.043,50.977,403.555,49.976,406.155z
		 M54.279,397.263c-2.559-1.105-5.146-1.894-7.434-3.785c-2.084-1.722-3.493-3.814-4.911-5.987c1.774-4.465,3.786-8.835,6.14-13.009
		c0.709,3.073,2.431,5.965,4.407,8.339c1.894,2.276,4.625,4.821,7.562,6.187C57.907,391.603,55.984,394.364,54.279,397.263z
		 M61.225,387.612c-2.602-1.491-5.078-2.846-7.224-5.235c-2.458-2.736-3.844-5.855-5.217-9.162c1.864-3.179,3.931-6.238,6.249-9.127
		c0.901,3.675,2.371,7.057,4.676,10.189c1.959,2.662,4.589,5.47,7.635,7.128C65.173,383.346,63.13,385.421,61.225,387.612z
		 M68.614,380.306c-3.278-2.109-6.085-4.439-8.397-7.76c-1.967-2.827-3.504-6.058-4.439-9.397c0.085-0.103,0.163-0.211,0.249-0.314
		c2.583-3.068,5.409-5.888,8.418-8.488c0.342,1.648,0.744,3.262,1.406,4.908c0.906,2.248,1.993,4.426,3.264,6.491
		c1.826,2.967,4.215,6.449,7.136,8.834C73.582,376.321,71.033,378.24,68.614,380.306z M77.664,373.665
		c-3.183-2.495-5.742-5.963-7.798-9.328c-1.923-3.149-3.711-6.809-4.862-10.466c2.454-2.082,5.022-4.025,7.696-5.818
		c1.358,4.34,3.414,8.569,5.407,12.596c1.216,2.458,2.492,4.904,3.889,7.266c0.503,0.851,1.02,1.703,1.691,2.367
		C81.629,371.316,79.62,372.449,77.664,373.665z M85.168,369.555c-2.888-3.009-4.691-7.213-6.53-10.898
		c-1.832-3.671-3.323-7.498-5.044-11.215c2.244-1.465,4.553-2.835,6.918-4.104c1.06,4.04,2.716,7.963,4.145,11.869
		c1.476,4.035,2.591,8.745,4.757,12.463C87.979,368.25,86.568,368.889,85.168,369.555z M95.71,365.44
		c-1.737,0.529-3.457,1.128-5.157,1.783c-0.844-4.49-3.26-9.092-4.887-13.358c-1.391-3.648-2.638-7.43-4.373-10.944
		c3.454-1.814,7.017-3.429,10.656-4.841c2.504,3.703,3.675,8.686,4.702,12.866c1.092,4.444,1.539,9.078,2.664,13.503
		C98.106,364.751,96.903,365.077,95.71,365.44z M100.655,364.13c-0.407-4.985-1.685-10.157-3.032-14.922
		c-1.106-3.913-2.308-8.263-5.043-11.366c2.649-1.009,5.332-1.926,8.041-2.729c1.889-0.56,3.789-1.068,5.695-1.547
		c2.409,3.873,4.359,7.985,5.314,12.486c0.632,2.978,0.887,6.024,0.981,9.063c0.074,2.36-0.307,4.945,0.124,7.283
		C108.672,362.633,104.63,363.218,100.655,364.13z M124.04,355.552c-0.226,2.318-0.719,4.657-0.956,6.989
		c-3.039-0.263-6.091-0.311-9.135-0.186c0.552-2.588,0.17-5.659,0.047-8.225c-0.144-2.996-0.468-5.996-1.162-8.918
		c-1.031-4.338-2.872-8.412-5.656-11.85c4.647-1.135,9.335-2.055,14.061-2.758c2.089,5.116,3.041,10.679,3.17,16.183
		C124.477,349.714,124.324,352.64,124.04,355.552z M128.464,363.208c-1.256-0.207-2.517-0.375-3.78-0.513
		c0.454-2.347,0.602-4.839,0.814-7.143c0.31-3.382,0.445-6.784,0.263-10.178c-0.281-5.22-1.387-10.226-3.577-14.908
		c4.155-0.593,8.335-1.037,12.534-1.344c0.849-0.062,1.7-0.098,2.55-0.141c1.957,5.692,3.014,11.753,3.1,17.744
		c0.05,3.533-0.235,7.069-0.879,10.543c-0.504,2.726-1.474,5.311-2.211,7.953C134.383,364.391,131.45,363.7,128.464,363.208z
		 M138.866,365.683c1.096-2.674,1.663-5.732,2.134-8.463c0.598-3.464,0.88-6.98,0.82-10.495c-0.105-6.181-1.323-12.098-3.492-17.803
		c4.362-0.188,8.738-0.177,13.113-0.149c1.831,6.363,2.6,13.064,2.318,19.668c-0.314,7.357-2.204,14.102-4.7,20.941
		C145.712,367.997,142.318,366.74,138.866,365.683z M150.411,369.95c5.917-12.659,6.042-27.892,2.121-41.171
		c3.205,0.021,6.409,0.038,9.605-0.028c6.043,14.898,5.764,31.406-1.606,45.842C157.196,372.974,153.827,371.402,150.411,369.95z
		 M161.851,375.235c3.784-7.442,5.92-15.66,6.096-24.026c0.091-4.362-0.338-8.748-1.281-13.009c-0.702-3.169-1.645-6.58-3.298-9.486
		c2.332-0.064,4.661-0.163,6.981-0.358c-0.571,4.602,0.315,9.572,0.721,13.978c0.755,8.204,1.432,16.683-0.321,24.809
		c-0.821,3.806-2.243,7.266-4.119,10.457C165.043,376.81,163.45,376.019,161.851,375.235z M198.378,464.248
		c-1.331-0.098-3.036-0.327-4.643-0.267c0.804-3.2,2.774-5.689,5.566-7.44c1.163,0.882,2.409,1.656,3.237,3.064
		c1.011,1.72,1.458,3.692,1.669,5.685C202.314,464.726,200.348,464.393,198.378,464.248z M206.391,459.471
		c-0.443-0.932-0.983-1.827-1.673-2.662c-0.556-0.672-1.292-1.389-2.113-1.978c1.686-1.08,2.713-2.623,3.177-4.329
		c1.781,0.172,3.444,0.547,5.006,1.881c1.838,1.568,2.923,3.871,3.487,6.228C211.708,458.689,208.378,458.248,206.391,459.471z
		 M209.447,413.01c-2.184,4.771-4.497,9.832-2.966,15.165c1.218,4.244,4.625,6.522,8.647,7.805
		c6.707,2.14,12.977,4.314,14.052,11.522c-7.256-4.339-18.92-2.269-21.131-13.506c-0.113-0.575-1.068-0.451-1.029,0.139
		c0.434,6.495,3.888,10.899,10.082,12.909c4.456,1.446,12.29,1.834,13.373,7.677c0.684,3.686-1.2,3.161-4.196,2.887
		c-2.897-0.265-5.762-0.7-8.62-1.233c-1.116-2.757-2.779-5.241-5.34-6.945c-1.694-1.128-4.09-1.985-6.271-1.823
		c-0.212-2.713-1.632-5.438-4.019-7.166c-4.097-2.966-9.187-4.543-14.29-4.686c0.776-1.438,0.71-3.335,0.881-4.931
		c0.421-3.937,0.598-7.901,0.499-11.859c-0.122-4.859,0.238-13.019-2.859-17.302c4.116-2.217,8.963-3.394,13.165-5.155
		c3.718-1.558,7.332-3.311,10.863-5.228c1.345,0.764,2.832,1.32,4.378,1.758C214.595,400.319,212.517,406.304,209.447,413.01z
		 M225.662,390.924c-2.725-0.168-5.441-0.433-8.141-0.896c-1.241-0.213-2.479-0.489-3.72-0.737c0.733-0.432,1.472-0.85,2.196-1.299
		c4.356-2.697,8.542-5.8,12.51-9.21c0.253,2.189-0.102,4.368-0.665,6.545c-0.331,1.277-0.747,2.522-1.241,3.746
		C226.485,389.356,226.023,390.159,225.662,390.924z M229.724,391.116c-0.732-0.022-1.462-0.056-2.192-0.089
		c0.909-1.842,1.406-4.106,1.783-5.759c0.549-2.408,0.935-4.946,0.01-7.2c5.238-4.599,10.07-9.747,14.282-15.351
		c0.243,5.277,0.412,10.391-0.661,15.647c-0.532,2.606-1.273,5.175-2.24,7.654c-0.689,1.767-1.677,3.453-2.494,5.184
		C235.382,391.221,232.552,391.201,229.724,391.116z M248.588,390.96c-2.833,0.11-5.668,0.185-8.503,0.224
		c0.668-1.291,1.205-2.672,1.72-3.948c1.161-2.88,2.033-5.874,2.614-8.924c1.029-5.402,1.385-11.313-0.022-16.684
		c3.129-4.283,5.917-8.801,8.262-13.51c0.621,3.564,1.392,7.081,1.682,10.715c0.305,3.829,0.283,7.683-0.083,11.506
		c-0.388,4.056-1.169,8.065-2.301,11.978C251.096,385.294,249.707,388.09,248.588,390.96z M252.289,390.808
		c-0.568,0.027-1.137,0.045-1.705,0.07c1.225-2.623,2.063-5.57,2.808-8.167c1.157-4.036,1.905-8.192,2.274-12.374
		c0.662-7.508,0.453-16.248-2.409-23.412c0.019-0.04,0.041-0.08,0.06-0.12c2.779,2.638,7.547,3.649,11.905,4.199
		c0.166,3.053,0.758,6.099,0.943,9.155c0.216,3.576,0.152,7.165-0.172,10.733c-0.332,3.657-0.96,7.284-1.868,10.841
		c-0.699,2.736-2.182,5.595-2.685,8.397C258.403,390.416,255.357,390.662,252.289,390.808z M275.84,388.459
		c-4.211,0.564-8.43,1.084-12.668,1.511c1.161-2.248,1.71-5.094,2.298-7.382c0.908-3.533,1.533-7.137,1.891-10.767
		c0.638-6.46,0.954-14.379-1.262-20.711c1.575,0.181,3.074,0.311,4.375,0.447c1.233,0.128,2.662,0.281,4.177,0.41
		c2.393,5.679,2.997,12.015,3.135,18.148c0.073,3.268-0.056,6.547-0.408,9.798C277.077,382.688,276.162,385.624,275.84,388.459z
		 M289.158,379.061c-0.093,2.648-0.831,5.178-1.224,7.741c-3.432,0.465-6.856,0.946-10.283,1.412
		c0.648-2.37,0.814-5.036,1.075-7.326c0.463-4.062,0.595-8.16,0.386-12.243c-0.185-3.623-0.605-7.262-1.337-10.817
		c-0.406-1.972-0.932-3.993-1.888-5.766c2.84,0.199,5.916,0.263,8.712-0.149c1.768,5.84,3.398,11.606,4.103,17.725
		C289.061,372.761,289.269,375.917,289.158,379.061z M289.669,386.57c0.629-2.114,0.751-4.543,0.853-6.571
		c0.182-3.615-0.091-7.248-0.545-10.834c-0.745-5.877-2.005-11.911-4.235-17.452c1.483-0.302,2.863-0.752,4.041-1.422
		c0.171,1.641,0.403,3.282,0.67,4.914c1.68,10.262,4.082,20.36,6.628,30.427C294.603,385.922,292.134,386.241,289.669,386.57z
		 M340.373,460.546c-0.784,0.941-1.183,1.963-1.806,2.978c-1.413,2.302-1.21,2.301-4.037,2.676
		c-2.526,0.336-5.449-0.106-7.992-0.229c-3.992-0.192-7.983-0.488-11.955-0.928c-2.926-0.324-8.358-0.17-9.634-3.846
		c-0.637-1.834,0.092-4.437,0.5-6.248c0.912-4.055,2.438-7.964,3.58-11.954c2.2-7.686,2.455-15.175,1.187-23.071
		c-2.872-17.884-8.885-35.345-12.934-52.993c-2.028-8.838-5.192-19.001-3.628-28.111c1.486-8.659,7.616-14.124,11.834-21.332
		c0.258-0.441-0.293-1.094-0.75-0.75c-3.759,2.829-7.277,6.784-9.984,11.021c0.926-2.803,1.905-5.577,3.471-8.196
		c0.363-0.607-0.578-1.154-0.946-0.553c-2.764,4.511-5.776,9.569-5.819,15.024c-1.697,4.241-2.121,8.656-1.918,13.103
		c-2.713-0.506-5.383,0.386-8.211,0.62c-3.307,0.274-6.641,0.27-9.951,0.046c-3.764-0.254-7.452-0.883-11.123-1.732
		c-2.001-0.463-3.719-1.128-5.584-1.17c2.399-1.891,4.375-4.319,6.108-6.85c2.721-3.973,3.655-7.543,4.373-12.205
		c0.098-0.634-0.833-0.927-0.987-0.272c-0.865,3.682-2.815,6.68-5.1,9.46c1.596-4.69,2.018-9.708,0.197-13.391
		c-0.167-0.339-0.687-0.311-0.862,0c-1.854,3.299-2.034,7.762-3.117,11.407c-0.655,2.206-1.473,4.353-2.271,6.507
		c-5.091,12.122-12.444,22.685-22.445,31.61c-11.607,10.358-24.914,18.271-39.187,24.372c-5.371,2.296-10.391,4.497-14.109,9.182
		c-3.619,4.561-5.71,10.182-6.432,15.919c-0.608,4.833-1.025,11.688,2.082,15.821c2.598,3.457,6.996,4.134,10.56,1.902
		c3.351,0.039,6.645,0.525,9.93,1.737c2.115,0.781,5.964,2.194,7.336,4.177c1.861,2.691,0.909,4.613-0.036,6.735
		c-3.049-8.234-12.323-12.167-20.487-8.355c-1.136,0.53-0.33,2.345,0.845,2.003c6.405-1.86,13.492,2.123,15.571,8.231
		c-3.878,2.412-6.315,5.947-7.376,10.323c-9.21,0.318-18.427,0.008-27.582-1.104c-2.543-0.309-7.523-0.022-8.89-2.811
		c-0.882-1.799-0.205-6.129-0.282-8.168c-0.181-4.765-0.378-9.529-0.567-14.294c-0.404-10.172-1.21-20.447-1.079-30.63
		c0.072-5.617,2.337-7.912,6.443-11.24c3.31-2.682,6.433-5.561,9.157-8.847c11.182-13.489,10.457-29.994,8.358-46.447
		c-0.551-4.315-1.928-9.052-0.763-13.348c1.339-4.937,5.91-8.177,9.916-10.888c7.539-5.103,15.658-9.496,23.765-13.621
		c0.497-0.253,0.151-1.11-0.385-0.913c-3.881,1.429-7.644,3.015-11.333,4.767c0.358-0.338,0.72-0.662,1.091-0.956
		c3.222-2.549,6.884-4.433,10.263-6.745c0.868-0.594,0.313-1.816-0.694-1.647c-4.273,0.713-7.929,2.926-11.282,5.583
		c-2.395,1.897-5.742,4.462-6.78,7.564c-0.713,0.394-1.425,0.792-2.134,1.201c-5.258,3.032-11.184,6.244-14.274,11.728
		c-0.508,0.901-0.889,1.844-1.189,2.812c-11.438-2.09-23.785-1.54-35.32-0.831c-11.175,0.687-22.465,2.261-33.233,5.388
		c-18.043,5.24-35.586,14.978-48.105,29.164c-6.805,7.711-11.736,16.685-15.585,26.183c-4.012,9.898-8.167,20.789-8.116,31.616
		c0.092,19.218,12.521,37.549,27.225,48.993c18.101,14.088,42.855,20.213,65.484,16.648c10.042,1.413,20.275,1.958,30.517,2.02
		c15.486,0.094,30.966-0.708,46.452-0.453c7.952,0.131,15.918,0.56,23.81,1.573c8.308,1.066,16.309,3.292,24.498,4.918
		c0.219,0.043,0.432,0.039,0.634-0.001c1.125,0.435,2.508,0.09,2.832-1.433c0.861-4.044,1.726-8.087,2.581-12.132
		c5.32,5.795,10.662,11.57,15.987,17.361c-6.052,3.816-12.106,7.63-18.14,11.473c0.024-3.786,0.049-7.572,0.073-11.358
		c0.006-0.895-0.659-1.84-1.557-2.045c-38.422-8.758-77.488-1.593-116.322-1.306c-34.813,0.257-76.591-6.141-101.398-33.204
		c-6.8-7.418-11.643-16.457-14.045-26.234c-1.822-7.414-1.848-14.614-1.271-21.936c2.82-16.098,7.644-31.214,15.732-45.74
		c9.051-16.256,21.26-30.587,35.744-42.25c15.1-12.159,32.627-21.32,51.036-27.321c20.052-6.536,40.688-8.268,61.582-10.007
		c11.38-0.947,22.714-2.186,33.879-4.648c12.211-2.694,23.882-5.633,36.402-4.829c-3.55,4.164-6.871,7.109-7.807,13.273
		c-0.812,5.351,0.107,11.061,4.055,14.977c0.785,0.778,2.277-0.001,1.913-1.114c-1.792-5.488-3.278-10.78-1.442-16.51
		c0.503-1.569,1.473-3.019,2.47-4.458c-0.955,2.532-1.682,5.139-1.316,8.079c0.517,4.163,2.426,9.048,6.488,10.719
		c1.035,0.426,2.21-0.838,1.843-1.843c-0.688-1.885-1.881-3.142-2.835-4.904c-5.931-10.963,3.093-25.349,2.718-37.009
		c-0.268-8.353-2.366-16.585-4.234-24.69c-2.81-12.191-7.252-23.987-12.712-35.228c-3.449-7.101-8.085-13.81-10.689-21.288
		c-3.137-9.008-1.442-17.118,3.273-25.183c3.884-6.643,8.581-12.777,12.521-19.393c3.449-5.79,6.426-11.67,8.99-17.816
		c10.185-15.068-14.806-25.861-24.56-31.212c-17.911-9.825-35.63-20.447-54.419-28.535c-33.61-14.467-70.886-21.364-107.43-20.569
		c-6.381,0.139-12.751,0.471-19.103,1.035c33.722-6.784,67.885-9.755,101.96-0.429c23.096,6.321,42.996,18.924,62.455,32.476
		c9.617,6.697,19.18,13.475,29.158,19.631c4.923,3.037,9.926,5.946,15,8.723c2.819,1.542,5.661,3.044,8.524,4.504
		c2.433,1.241,6.24,2.234,8.238,4.109c4.473,4.198-3.467,17.681-5.495,21.83c-2.722,5.569-5.605,11.071-8.103,16.747
		c-5.024,11.411-8.159,23.764-5.12,36.126c0.088,0.357,0.233,0.65,0.414,0.892c0.924,6.387,3.351,12.669,6.419,17.981
		c6.162,10.667,15.386,19.064,22.341,29.156c3.627,5.263,6.269,10.832,7.923,17.013c1.582,5.911,2.466,12.024,4.581,17.785
		c1.896,5.163,4.644,9.442,8.503,13.337c3.099,3.128,5.356,6.061,5.582,10.66c0.17,3.47-0.303,7.821-1.005,11.194
		c-0.227,1.089,1.331,1.9,1.892,0.798c2.638-5.18,4.516-9.852,3.21-15.826c-0.072-0.328-0.159-0.643-0.251-0.955
		c0.55,1.874,7.494,1.844,8.954,1.61c3.645-0.586,7.007-2.949,9.383-5.686c4.91-5.655,9.294-14.824,8.592-22.423
		c-0.818-8.856-5.236-16.932-7.069-25.567c-3.287-15.489,2.519-32.568,14.565-42.845c5.499-4.691,14.345-7.758,19.524-2.717
		c-8.927,4.278-17.151,10.02-24.244,16.926c-0.591,0.575-1.214,1.249-1.22,2.073c-0.013,1.812,2.546,2.193,4.342,1.955
		c10.249-1.358,20.498-2.715,30.747-4.073c-4.657,5.969-8.404,12.647-11.072,19.732c-0.565,1.501-0.88,3.596,0.534,4.352
		c0.734,0.392,1.589,0.197,2.386-0.135c-4.682,6.708-8.415,13.881-10.882,21.797c-3.34,10.712-3.751,21.88-3.87,33.017
		c-0.124,11.559-0.317,23.121-4.391,34.098c-3.785,10.198-10.156,18.556-17.98,25.916c-0.155-1.782-0.325-3.561-0.529-5.33
		c-0.056-0.49-0.865-0.723-0.957-0.13c-1.767,11.424-1.124,23.032-2.87,34.425c-1.754,11.449-4.702,22.399-5.266,34.051
		c-0.538,11.114,0.149,22.355,2.039,33.32c0.643,3.732,1.377,6.416,4.919,8.171c5.049,2.502,21.76,4.504,18.626,13.812
		c-0.536,1.593-2.04,2.283-2.917,3.543c-0.04-0.008-0.079-0.026-0.119-0.033c0.794-1.25,1.115-2.596,0.525-4.339
		c-2.158-6.366-11.291-7.637-16.819-6.604c-2.44,0.456-1.374,4.061,1.016,3.688c2.86-0.446,6.174-0.216,8.718,1.349
		c0.432,0.258,0.864,0.515,1.296,0.773c2.407,2.236,2.598,3.777,0.574,4.622C342.364,459.079,341.036,459.749,340.373,460.546z
		 M184.435,434.335c-0.033,0.072-0.068,0.14-0.105,0.204c-2.115,3.599-6.703,0.288-7.928-2.561c-1.39-3.232-1.422-7.29-1.183-10.745
		c0.416-6.008,2.269-12.114,6.653-16.422c0.68-0.668,1.417-1.259,2.191-1.801c-0.706,4.298,0.909,9.8,1.012,13.976
		c0.083,3.373,0.107,6.757-0.135,10.125C184.817,428.825,185.194,432.673,184.435,434.335z M357.684,193.781
		c1.966-1.424,3.973-2.783,6.03-4.065c-0.557,2.153-0.442,4.91,0.512,6.94c-1.482,0.334-3.046,0.732-4.634,1.102
		C358.558,196.544,357.801,195.345,357.684,193.781z M358.087,198.094c-2.362,0.507-4.745,0.892-6.975,0.849
		c1.783-1.521,3.612-2.964,5.475-4.351C356.712,195.894,357.23,197.193,358.087,198.094z M392.36,285.355
		c-3.772,0.614-7.62,0.704-11.429,0.458c-3.859-0.25-7.685-0.867-11.444-1.765c-2.78-0.664-5.681-1.335-8.242-2.655
		c0.005-4.075-0.061-8.157-0.024-12.232c5.43,2.669,11.206,4.409,17.271,5.04c6.686,0.695,14.334,0.348,20.714-2.093
		c0.257,3.717,0.635,7.437,1.02,11.157C397.603,283.862,395.035,284.92,392.36,285.355z M400.388,284.848
		c0.419,4.049,0.825,8.097,1.078,12.142c-3.275,1.029-6.349,1.763-9.886,1.895c-3.836,0.143-7.688,0.051-11.52-0.147
		c-6.838-0.354-13.254-1.148-19.43-3.999c0.268-2.36,0.449-4.732,0.527-7.105c0.058-1.749,0.08-3.5,0.088-5.254
		c2.085,1.367,4.587,2.04,7.023,2.685c3.707,0.981,7.493,1.69,11.311,2.056c4.022,0.386,8.087,0.35,12.094-0.193
		C394.386,286.56,397.732,286.106,400.388,284.848z M399.125,270.779c-6.613,1.569-12.889,2.776-19.76,2.202
		c-6.269-0.524-12.456-2.181-18.133-4.895c0.07-4.906,0.326-9.798,1.101-14.65c1.583,1.413,3.578,2.278,5.58,3.103
		c3.733,1.539,7.593,2.757,11.534,3.636c3.67,0.819,7.421,1.383,11.177,1.602c2.671,0.156,5.685,0.204,8.286-0.707
		C398.827,264.302,398.928,267.539,399.125,270.779z M398.946,259.639c-2.935,0.582-5.689,0.931-8.758,0.726
		c-3.491-0.234-6.964-0.742-10.382-1.492c-3.031-0.665-6.02-1.533-8.943-2.576c-2.848-1.016-5.904-2.056-8.354-3.893
		c0.093-0.529,0.184-1.059,0.29-1.587c0.683-3.391,1.602-6.732,2.724-10.004c3.228,4.026,8.696,6.067,13.361,7.931
		c6.093,2.435,13.779,5.368,20.622,4.329C399.216,255.259,399.039,257.448,398.946,259.639z M360.81,346.577
		c-3.73-6.553-8.63-11.364-15.305-14.258c1.495-1.813,2.879-3.703,4.147-5.663c1.57,0.925,3.389,1.383,5.012,2.236
		c1.791,0.942,3.477,2.081,5.034,3.373c2.785,2.312,5.178,5.095,7.146,8.128c2.217,3.417,3.914,7.14,5.251,10.981
		c1.195,3.435,1.825,7.055,2.876,10.523c-2.539,1.9-5.197,3.64-7.936,5.242C367.687,359.806,364.497,353.055,360.81,346.577z
		 M340.759,337.409c1.442-1.376,2.803-2.814,4.082-4.31c2.925,1.378,5.738,3.049,8.112,5.226c2.88,2.641,5.013,5.928,6.886,9.329
		c1.891,3.434,4.028,7.042,5.084,10.837c0.924,3.32,0.694,6.433,0.346,9.654c-2.617,1.452-5.3,2.784-8.037,3.986
		c-1.196,0.525-2.407,1.006-3.623,1.468C355.563,360.249,352.773,344.852,340.759,337.409z M335.045,342.781
		c3.149,5.176,5.268,10.558,5.694,16.813c0.448,6.574-0.859,12.86-2.807,19.053c-1.984,0.62-3.962,1.262-5.918,1.968
		c1.192-6.014,2.494-12.008,2.931-18.112C335.411,355.972,335.401,349.358,335.045,342.781z M344.563,382.195
		c-0.354,10.507,1.422,21.407,2.23,31.831c0.772,9.967,1.125,19.634,0.886,29.569c-1.306-0.897-2.698-1.669-4.143-2.281
		c-0.948-0.402-1.842-0.689-2.713-0.902c-1.47-0.617-2.976-1.195-4.469-1.928c-3.347-1.643-4.488-2.809-5.11-6.366
		c-0.521-2.982-0.915-5.988-1.227-9c-1.062-10.262-0.987-20.619,0.1-30.876c0.275-2.593,0.686-5.168,1.153-7.734
		C335.672,384.234,340.142,383.409,344.563,382.195z M339.768,378.077c3.75-11.737,4.119-26.901-4.075-36.582
		c0.278-0.077,0.553-0.206,0.815-0.41c1.27-0.99,2.471-2.036,3.632-3.112c11.487,8.386,13.917,22.828,11.812,36.231
		C347.937,375.642,343.842,376.831,339.768,378.077z M345.438,466.521c-0.979-0.055-2.026-0.155-3.034-0.122
		c0.042-0.136,0.085-0.272,0.132-0.406c0.758-2.15,1.663-3.36,3.111-4.924c1.596,0.595,3.187,0.857,4.406,2.49
		c0.854,1.144,1.357,2.479,1.716,3.863C349.689,466.955,347.577,466.642,345.438,466.521z M354.928,465.112
		c-0.058,0.009-0.106,0.029-0.16,0.043c-0.831-1.676-1.878-3.22-3.37-4.462c-0.086-0.072-0.185-0.136-0.275-0.206
		c1.222-0.874,2.213-2.219,2.86-3.543c1.793,0.558,3.422,0.991,4.778,2.803c1.076,1.438,1.684,3.13,2.138,4.863
		C358.902,464.657,356.914,464.809,354.928,465.112z M376.248,388.002c-1.896,8.639-2.703,16.507-2.196,25.368
		c0.429,7.491,0.749,15.931,2.86,23.172c0.779,2.67,2.04,5.003,4.076,6.911c2.274,2.131,9.963,5.494,7.103,9.421
		c-3.301-3.135-8.833-4.41-13.347-2.839c-2.156,0.75-1.28,3.758,0.932,3.382c3.853-0.654,7.922-0.06,10.003,3.542
		c3.236,5.603-2.392,7.943-7.006,7.748c-4.458-0.188-9.317-1.22-13.885-1.018c-1.006-2.942-2.312-5.814-4.798-7.783
		c-1.325-1.05-3.364-2.011-5.198-1.969c0.074-2.286-1.081-4.374-2.627-6.262c-0.277-0.338-0.567-0.667-0.866-0.988
		c0.053-0.115,0.096-0.24,0.128-0.375c2.397-10.374,0.292-21.833-0.66-32.287c-0.977-10.734-1.041-22.101-3.286-32.692
		c8.021-2.522,15.793-6.243,22.594-10.274c2.294-1.36,4.533-2.833,6.704-4.404c0.694,3.002,1.467,5.891,1.391,9.146
		C378.075,379.941,377.132,383.974,376.248,388.002z M381.12,356.787c-1.541,1.436-3.152,2.789-4.808,4.085
		c-0.577-3.665-1.823-7.374-3.049-10.764c-1.458-4.032-3.307-7.944-5.747-11.479c-3.744-5.424-10.238-12.103-17.197-13.06
		c0.877-1.419,1.715-2.862,2.48-4.344c7.406,1.647,13.809,5.418,19.411,10.691c3.076,2.896,5.977,6.086,8.287,9.631
		c2.52,3.867,3.513,7.499,3.964,11.849C383.396,354.552,382.297,355.69,381.12,356.787z M385.932,351.764
		c-0.216-7.703-7.164-15.37-12.18-20.202c-5.582-5.376-12.637-10.245-20.461-11.306c0.836-1.686,1.606-3.407,2.304-5.16
		c7.864,1.621,15.886,4.678,23.111,8.061c6.673,3.125,12.086,7.243,17.254,12.291C393.508,341.291,390.207,346.772,385.932,351.764z
		 M396.577,333.956c-4.386-5.392-10.967-9.273-17.079-12.152c-3.903-1.838-7.95-3.353-12.027-4.756
		c-3.529-1.214-7.486-3.008-11.304-3.413c0.882-2.367,1.646-4.785,2.289-7.241c7.33,0.986,14.704,1.543,21.924,3.265
		c3.434,0.819,6.825,1.842,10.1,3.165c3.655,1.476,6.8,3.615,10.229,5.454C399.886,323.704,398.532,328.955,396.577,333.956z
		 M400.916,316.852c-5.223-4.323-12.964-6.697-19.327-8.259c-7.434-1.825-15.203-2.818-22.878-3.143
		c0.794-3.193,1.391-6.444,1.801-9.724c5.199,3.634,12.437,4.008,18.523,4.406c4.459,0.291,8.969,0.418,13.434,0.19
		c2.959-0.151,6.315-0.44,9.086-1.733c0.11,2.134,0.177,4.268,0.168,6.399C401.706,309.011,401.436,312.972,400.916,316.852z
		 M400.297,248.345c-0.228,1.073-0.416,2.148-0.585,3.223c-3.114,0.072-6.109,0.088-9.265-0.561
		c-3.525-0.725-6.942-1.895-10.296-3.185c-5.222-2.007-10.303-4.142-14.274-8.04c1.25-3.489,2.739-6.894,4.457-10.179
		c1.531,2.051,4.178,3.632,6.24,4.977c2.621,1.709,5.397,3.174,8.279,4.39c5.204,2.195,11.186,3.951,16.936,3.949
		C401.181,244.755,400.672,246.576,400.297,248.345z M402.24,241.608c-5.533-0.812-10.853-1.621-16.109-3.751
		c-2.805-1.136-5.512-2.534-8.071-4.149c-2.441-1.541-4.606-3.856-7.147-5.183c1.637-3.016,3.445-5.938,5.465-8.712
		c2.21-1.112,4.42-2.225,6.63-3.337c2.81,9.664,11.208,18.407,20.401,22.104C402.983,239.59,402.601,240.6,402.24,241.608z
		 M403.986,237.251c-4.648-2.265-8.844-4.975-12.394-8.817c-3.426-3.708-5.706-7.883-7.65-12.426
		c2.394-1.205,4.789-2.41,7.184-3.616c0.132-0.067,0.266-0.131,0.399-0.197c1.028,4.088,3.397,7.959,5.982,11.188
		c2.319,2.897,5.688,6.727,9.439,8.148C405.843,233.389,404.86,235.311,403.986,237.251z M407.733,230.235
		c-7.635-3.128-11.975-11.328-15.436-18.424c1.345-0.65,2.725-1.232,4.192-1.477c1.405-0.236,2.822-0.152,4.231,0.076
		c2.079,2.32,3.738,5.253,5.708,7.573c1.761,2.075,3.678,4.411,6.072,5.853C410.742,225.803,409.162,227.97,407.733,230.235z
		 M413.461,222.799c-2.879-1.975-5.147-4.439-7.418-7.184c-1.241-1.5-2.38-3.332-3.728-4.893c0.766,0.173,1.528,0.368,2.282,0.563
		c6.118,1.588,12.269,3.049,18.442,4.407C419.485,217.369,416.286,219.846,413.461,222.799z M488.842,198.871
		c0.533,1.932,0.843,3.945,1.055,5.907c0.04,0.367,0.06,0.734,0.078,1.097c-1.746-0.764-3.518-1.466-5.314-2.1
		C486.275,202.38,487.653,200.668,488.842,198.871z M468.973,198.158c1.913-1.355,3.799-2.747,5.621-4.218
		c0.02,1.847,0.024,3.693,0.026,5.547c0.001,0.524-0.017,1.032-0.027,1.528c-2.483-0.531-4.904-1.029-7.276-1.63
		C467.9,198.953,468.454,198.526,468.973,198.158z M459.087,192.801c0.637-0.584,1.26-1.182,1.87-1.794
		c0.781-0.783,1.033-1.727,1.344-0.443c0.353,1.455-0.121,3.642-0.09,5.156c0.015,0.757,0.027,1.469,0.122,2.159
		c-2.028-0.718-4.026-1.601-6.003-2.726C457.27,194.393,458.196,193.618,459.087,192.801z M472.366,184.872
		c-0.674-1.327-1.394-2.628-2.143-3.92c1.027,0.013,2.064-0.033,3.119-0.16c0.679-0.081,1.351-0.18,2.018-0.29
		C474.341,181.944,473.345,183.403,472.366,184.872z M484.174,189.962c-0.302-1.945-0.364-4.053-0.938-5.795
		c-0.554-1.681-1.342-3.235-2.273-4.717c2.742-0.506,5.495-0.891,8.403-0.679c0.518,0.038,1.038,0.088,1.559,0.142
		C489.184,182.878,486.879,186.581,484.174,189.962z M500.904,184.057c-0.746,1.208-4.916,6.131-4.676,6.476
		c-0.121-0.173,0.15-5.228,0.019-6.419c-0.174-1.581-0.436-3.141-0.736-4.698c2.289,0.203,4.579,0.238,6.842-0.334
		c0.42-0.106,0.812-0.23,1.188-0.363C502.811,180.568,501.955,182.357,500.904,184.057z M496.78,175.431
		c-3.716-0.122-7.393-0.891-11.124-0.645c-3.915,0.259-7.594,1.591-11.425,2.294c-5.186,0.952-9.988-0.113-15.132-0.873
		c-15.664-2.313-32.092,2.085-47.576,4.215c-1.782,0.245-1.421,2.796,0,3.26c7.241,2.368,14.882,2.532,22.209,4.495
		c8.024,2.15,13.888,7.607,20.908,11.688c6.483,3.77,13.311,4.754,20.582,6.041c7.399,1.309,14.188,4.256,21.139,6.944
		c-5.194,10.201-21.851,7.458-30.704,5.943c-11.134-1.905-22.287-3.561-33.453-5.264c-9.709-1.481-19.948-2.677-29.117-6.363
		c-4.931-1.982-8.987-4.862-12.799-8.551c-3.313-3.207-10.24-8.385-10.437-13.313c-0.152-3.81,2.953-7.403,4.169-10.878
		c1.667-4.766-0.176-9.595,1.075-14.311c1.197-4.515,6.341-6.37,9.956-8.579c3.252-1.987,6.186-4.438,8.519-7.466
		c1.089-1.413,2.103-4.159,3.356-5.305c2.948-2.696,6.122-1.321,9.333-0.333c4.584,1.41,9.143,3.061,13.848,4.029
		c6.701,1.378,13.032,0.665,19.483-0.4c1.348,0.696,2.543,1.676,3.435,2.92c2.029,2.831,0.868,6.064,2.067,9.047
		c0.182,0.452,0.805,0.617,1.083,0.142c1.839-3.132,0.853-8.019-1.371-10.749c-0.612-0.751-1.312-1.374-2.071-1.895
		c1.462-0.255,2.933-0.514,4.421-0.757c1.098-0.179,2.173-0.329,3.232-0.445c1.789,1.16,2.96,3.222,3.366,5.418
		c0.551,2.982-0.884,5.979,0.052,8.838c0.141,0.431,0.68,0.602,1.018,0.269c2.792-2.764,2.389-8.697,0.829-12.054
		c-0.474-1.019-1.121-1.921-1.878-2.7c1.776-0.038,3.517,0.082,5.246,0.393c0.112,0.125,0.253,0.232,0.435,0.305
		c1.309,0.529,3.126,1.176,4.086,2.327c2.255,2.706,0.464,5.25-0.552,7.706c-0.818,1.977-1.512,3.878-1.738,6.015
		c-0.068,0.64,0.881,1.012,1.289,0.534c2.483-2.91,5.575-8.525,4.883-12.441c-0.089-0.505-0.241-0.966-0.434-1.394
		c3.529,2.029,6.885,4.373,10.953,5.192c5.55,1.118,11.117,0.239,15.197,4.981C509.341,160.925,508.44,175.813,496.78,175.431z"/>
</g>
<g>
</g>
<g>
</g>
<g>
</g>
<g>
</g>
<g>
</g>
<g>
</g>
<g>
</g>
<g>
</g>
<g>
</g>
<g>
</g>
<g>
</g>
<g>
</g>
<g>
</g>
<g>
</g>
<g>
</g>
</svg>
