<?xml version="1.0" encoding="iso-8859-1"?>
<!-- Generator: Adobe Illustrator 19.0.0, SVG Export Plug-In . SVG Version: 6.00 Build 0)  -->
<svg version="1.1" id="Layer_1" xmlns="http://www.w3.org/2000/svg" xmlns:xlink="http://www.w3.org/1999/xlink" x="0px" y="0px"
	 viewBox="0 0 512 512" style="enable-background:new 0 0 512 512;" xml:space="preserve">
<path style="fill:#FFE6B8;" d="M328.116,333.78L463.709,503.83h32.681c0-53.387-24.596-101.026-63.073-132.203l-23.186,7.983
	l-23.186-34.723C368.641,337.903,348.821,333.991,328.116,333.78z"/>
<path style="fill:#FFF3DC;" d="M328.116,333.78c75.046,1.177,135.593,76.854,135.593,170.049H156.28
	c0-53.386,24.598-101.025,63.077-132.203l23.185,11.069l23.185-37.807c18.829-7.184,39.261-11.119,60.613-11.119
	C326.928,333.77,327.527,333.77,328.116,333.78z"/>
<path style="fill:#FFDB9A;" d="M418.903,190.192c0-0.011-12.953-0.011-32.005,0l-60.558,113.62c26.09,0,49.718-10.578,66.821-27.681
	c17.103-17.103,27.681-40.72,27.681-66.821C420.842,202.763,420.178,196.357,418.903,190.192z"/>
<path style="fill:#FFE6B8;" d="M386.898,190.192c0.828,6.166,1.264,12.571,1.264,19.118c0,52.191-27.681,94.502-61.821,94.502
	c-52.202,0-94.513-42.311-94.513-94.502c0-6.525,0.665-12.898,1.917-19.053l0.033-0.076c0,0,23.944,0,54.621,0
	c30.666,0,68.052,0,94.938,0.011C384.545,190.192,385.732,190.192,386.898,190.192z"/>
<path style="fill:#FEC45E;" d="M396.179,95.602l22.757,94.578h-32.681l-47.409-40.11l24.75-69.719l3.987-1.187
	C380.209,75.373,393.085,82.77,396.179,95.602z"/>
<path style="fill:#FCDB5A;" d="M371.527,95.602l14.728,94.578H233.744l24.304-94.666c3.29-12.778,16.319-20.142,28.966-16.351
	l40.056,11.983l0.229,0.065l34.642-10.371l1.656-0.49C367.431,83.162,370.427,88.565,371.527,95.602z"/>
<path style="fill:#594B44;" d="M81.433,179.292V503.83c0,4.513,3.657,8.17,8.17,8.17s8.17-3.657,8.17-8.17V179.292H81.433z"/>
<g>
	<path style="fill:#87635C;" d="M155.43,0c-4.513,0-8.17,3.657-8.17,8.17v147.94h16.34V8.17C163.6,3.657,159.943,0,155.43,0z"/>
	<path style="fill:#87635C;" d="M23.781,0c-4.513,0-8.17,3.657-8.17,8.17v147.94h16.34V8.17C31.951,3.657,28.294,0,23.781,0z"/>
	<path style="fill:#87635C;" d="M67.664,0c-4.513,0-8.17,3.657-8.17,8.17v147.94h16.34V8.17C75.834,3.657,72.177,0,67.664,0z"/>
	<path style="fill:#87635C;" d="M111.547,0c-4.513,0-8.17,3.657-8.17,8.17v147.94h16.34V8.17C119.718,3.657,116.059,0,111.547,0z"/>
</g>
<path style="fill:#FEC45E;" d="M326.336,382.252c-4.513,0-8.17-3.657-8.17-8.17v-40.307c0-4.513,3.657-8.17,8.17-8.17
	c4.513,0,8.17,3.657,8.17,8.17v40.307C334.506,378.593,330.849,382.252,326.336,382.252z"/>
<path style="fill:#D35B38;" d="M386.93,450.538H265.739c-4.513,0-8.17,3.657-8.17,8.17c0,4.513,3.657,8.17,8.17,8.17H386.93
	c4.513,0,8.17-3.657,8.17-8.17C395.101,454.195,391.444,450.538,386.93,450.538z"/>
<path style="fill:#FEC45E;" d="M455.309,198.355H197.058c-4.513,0-8.17-3.657-8.17-8.17s3.657-8.17,8.17-8.17h258.251
	c4.513,0,8.17,3.657,8.17,8.17S459.822,198.355,455.309,198.355z"/>
<path style="fill:#D35B38;" d="M130.919,145.212l-34.075,44.969h32.681c18.737,0,34.075-15.327,34.075-34.075v-10.894H130.919z"/>
<path style="fill:#E86F22;" d="M130.919,145.212v10.894c0,18.748-15.338,34.075-34.075,34.075H89.6H49.686
	c-18.748,0-34.075-15.327-34.075-34.075v-10.894H130.919z"/>
<path style="fill:#D35B38;" d="M433.315,371.625c-13.824-11.21-29.456-20.284-46.385-26.722v6.264l23.193,152.663h23.182v-1.765
	C433.305,502.065,433.306,371.625,433.315,371.625z"/>
<path style="fill:#E86F22;" d="M410.123,369.054V503.83H219.365v-1.765V371.636c13.813-11.22,29.445-20.295,46.363-26.744
	c0.011,0.011,0.011,81.136,0.011,81.136H386.93v-74.861C395.166,356.178,402.922,362.18,410.123,369.054z"/>
<g>
</g>
<g>
</g>
<g>
</g>
<g>
</g>
<g>
</g>
<g>
</g>
<g>
</g>
<g>
</g>
<g>
</g>
<g>
</g>
<g>
</g>
<g>
</g>
<g>
</g>
<g>
</g>
<g>
</g>
</svg>
