<svg height="512" viewBox="0 0 44 58" width="512" xmlns="http://www.w3.org/2000/svg"><g id="027---Farmer" fill="none"><path id="Shape" d="m29 30.85v10.15l-7 6-7-6v-10.15c2.35 2.69 2.62 5.15 5.44 5.15h3.12c2.82 0 3.09-2.46 5.44-5.15z" fill="#f9c795"/><path id="Shape" d="m12.06 11.08c.24-2.81 1.32-11.08 5.94-11.08.7806679.01169033 1.5490613.19610473 2.25.54.5453071.26472918 1.1438325.401535 1.75.4.6060424.00041826 1.2043204-.13633101 1.75-.4.7009387-.34389527 1.4693321-.52830967 2.25-.54 4.62 0 5.7 8.27 5.94 11.08z" fill="#805333"/><path id="Shape" d="m35.83 20.67v-.01c2.6-1.13 4.17-2.57 4.17-4.16 0-3.59-8.06-6.5-18-6.5s-18 2.91-18 6.5c0 1.59 1.57 3.04 4.18 4.17z" fill="#a56a43"/><path id="Shape" d="m32.77 17.01c.06-.05.09-.03.09-.03s1.24-1.34 2.41-.89.59 4.45.59 4.45l-.03.12v.01c-.5334965 1.8556131-1.8740403 3.3724476-3.65 4.13h-20.36c-1.7751529-.7557965-3.11319749-2.2739625-3.64-4.13-.02-.08-.03-.13-.03-.13s-.58-4.01.58-4.45c1.12-.43 2.28.79 2.4.92z" fill="#f9c795"/><path id="Shape" d="m32.14 23.43c0 3 .78 5.57-2.34 8.57-.2823691.2681332-.5494564.5519134-.8.85-2.35 2.69-2.62 5.15-5.44 5.15h-3.12c-2.82 0-3.09-2.46-5.44-5.15-.2505436-.2980866-.5176309-.5818668-.8-.85-3.12-3-2.34-5.57-2.34-8.57 0-2.08-.65-2.13-.86-5.43l.01-.36c.017474-.9732265.7291376-1.7943768 1.69-1.95 6.1223082-.9132501 12.3457284-.9199891 18.47-.02 1.042002.1642863 1.7772614 1.1096199 1.68 2.16-.25 2.67-.71 3.71-.71 5.6z" fill="#fdd7ad"/><path id="Shape" d="m34 39h-5l-7 6-7-6h-5c-5.52101915.0044115-9.99558848 4.4789808-10 10v7c.0032948 1.1032019.89679813 1.9967052 2 2h40c1.1032019-.0032948 1.9967052-.8967981 2-2v-7c-.0044115-5.5210192-4.4789808-9.9955885-10-10z" fill="#2980ba"/><path id="Shape" d="m22 45-5.86.99c-.2898439.0389793-.5823031-.0501008-.8012029-.2440383-.2188997-.1939375-.3425692-.4735329-.3387971-.7659617v-5.98z" fill="#9fc9d3"/><path id="Shape" d="m29 39v5.98c.0037721.2924288-.1198974.5720242-.3387971.7659617-.2188998.1939375-.511359.2830176-.8012029.2440383l-5.86-.99z" fill="#9fc9d3"/><path id="Rectangle-path" d="m11 54h22v4h-22z" fill="#35495e"/><path id="Shape" d="m22 45v9h-11v-15h4v5.98c-.0037721.2924288.1198974.5720242.3387971.7659617.2188998.1939375.511359.2830176.8012029.2440383z" fill="#3b97d3"/><path id="Shape" d="m11 38.999987v19.000013h-4v-18.54c.97044128-.3064945 1.98231024-.4616477 3-.46z" fill="#285680"/><path id="Shape" d="m7 39.46v18.54h-5c-1.10320187-.0032948-1.9967052-.8967981-2-2v-7c.0032542-4.3662472 2.83592169-8.2267684 7-9.54z" fill="#3b97d3"/><g fill="#285680"><path id="Shape" d="m37 39.46v18.54h-4v-19.000013l1 .000013c1.0176898-.0016477 2.0295587.1535055 3 .46z"/><circle id="Oval" cx="26" cy="50" r="1"/></g></g></svg>