<svg xmlns="http://www.w3.org/2000/svg" viewBox="0 0 512 512" width="512" height="512">
	<style>
		tspan { white-space:pre }
		.shp0 { fill: #a6c3c0 } 
		.shp1 { fill: #89c2bc } 
		.shp2 { fill: #ffeca1 } 
		.shp3 { fill: #ffdf85 } 
		.shp4 { fill: #994e37 } 
		.shp5 { fill: #844131 } 
		.shp6 { fill: #5a5a5a } 
	</style>
	<path id="Layer" class="shp0" d="M511.58 256.68C507.4 193.98 414 146.2 367.37 126.16C362.46 96.99 349.86 61.57 317.83 52.81C285.75 44.03 258.82 63.64 241.49 82.33L241.49 82.33L241.49 82.33C241.49 82.33 231.98 150.86 211.14 154.61C190.3 158.36 191.9 123.61 191.9 123.61C191.9 123.61 178.54 159.41 160.38 154.06C142.21 148.72 158.77 120.94 158.77 120.94C158.77 120.94 141.61 133.81 127.06 138.74C112.51 143.66 104.73 165.51 112.66 211.67C120.6 257.84 122.76 307.61 91.74 313.38C68.35 317.74 53.57 299.94 45.86 278.23C38.46 257.38 8.82 256.63 1.3 277.43C1.14 277.87 0.97 278.3 0.85 278.76C-5.77 302.95 26.14 391.89 101.12 387.69C119.38 386.66 134.16 381.18 146.06 373.53C155.49 347.52 158.1 318.09 158.82 304.08C159.34 294.04 164.59 284.71 173.19 279.52C177.93 276.65 183.96 274.82 191.43 275.65C213.06 278.07 213.04 299.35 213.04 299.35C213.04 299.35 215.68 337.54 199.74 377.54L205.22 423.25C207.32 440.67 222.1 453.78 239.64 453.78C256.95 453.78 271.6 441.01 273.98 423.87L281.72 368.04L402.06 368.04L404.93 420.99C405.93 439.38 421.13 453.78 439.55 453.78L442.04 453.78C456.25 453.78 469.03 445.11 474.26 431.9C488.95 394.86 515.66 317.85 511.58 256.68L511.58 256.68Z" />
	<g id="Layer">
		<path id="Layer" class="shp1" d="M45.86 278.23C40.7 263.71 24.75 258.95 13.01 264.43C18.5 266.93 23.17 271.54 25.55 278.23C33.26 299.94 48.03 317.74 71.43 313.38C72.64 313.16 73.8 312.86 74.92 312.5C61.01 308 51.53 294.18 45.86 278.23L45.86 278.23Z" />
		<path id="Layer" class="shp1" d="M152.88 279.51C144.28 284.71 139.02 294.04 138.51 304.08C137.88 316.24 130.21 356.77 122.02 384.28C131.1 381.75 139.08 378.02 146.06 373.53C155.49 347.52 158.1 318.09 158.82 304.08C159.34 294.04 164.59 284.71 173.19 279.51C174.63 278.64 176.2 277.87 177.89 277.23C175.9 276.49 173.66 275.93 171.11 275.65C163.65 274.81 157.62 276.65 152.88 279.51Z" />
		<path id="Layer" class="shp1" d="M258.62 388.16L253.67 423.87C251.78 437.52 242.09 448.39 229.49 452.25C234.06 453.66 239.02 454.15 244.15 453.49C259.77 451.46 271.91 438.82 274.07 423.21L281.72 368.04C270.07 368.04 260.21 376.63 258.62 388.16L258.62 388.16Z" />
		<path id="Layer" class="shp1" d="M511.58 256.68C507.4 193.98 414 146.2 367.37 126.16C367.37 126.16 367.37 126.16 367.37 126.16L367.37 126.16C362.46 96.99 349.86 61.57 317.83 52.81C309.03 50.4 300.61 50.14 292.68 51.4C294.84 51.74 297.03 52.2 299.25 52.81C355.95 68.33 351.78 167.42 351.78 167.42C351.78 167.42 355.95 266.5 299.25 282.02C296.41 282.8 293.62 283.36 290.87 283.76C299.33 284.96 308.35 284.62 317.83 282.02C374.54 266.5 370.36 167.42 370.36 167.42C370.36 167.42 370.92 153.89 368.79 136.07C417.87 159.74 487.67 202.67 491.27 256.68C495.35 317.85 468.64 394.86 453.95 431.9C449.84 442.28 441.06 449.83 430.6 452.6C433.46 453.36 436.46 453.78 439.55 453.78L442.04 453.78C456.25 453.78 469.03 445.11 474.26 431.9C488.95 394.86 515.66 317.85 511.58 256.68L511.58 256.68Z" />
	</g>
	<path id="Layer" class="shp2" d="M213.04 299.35C213.04 299.35 219.76 396.16 147.44 442.92C97.7 475.07 26.66 458.55 31.04 443.03C36.38 424.15 92.95 435.79 122.03 411.47C151.87 386.51 157.69 326.15 158.82 304.08C159.34 294.04 164.59 284.71 173.19 279.51C177.93 276.65 183.96 274.81 191.43 275.65C213.06 278.07 213.04 299.35 213.04 299.35Z" />
	<path id="Layer" class="shp3" d="M213.04 299.35C213.04 299.35 213.06 278.07 191.43 275.65C190.32 275.53 189.25 275.47 188.2 275.46C194.46 282.46 194.46 291.77 194.46 291.77C194.46 291.77 201.18 388.59 128.86 435.34C98.09 455.23 59.19 456.49 35.01 450.89C50.53 462.8 106.28 469.52 147.44 442.92C219.76 396.16 213.04 299.35 213.04 299.35L213.04 299.35Z" />
	<path id="Layer" class="shp4" d="M241.49 82.33C241.49 82.33 218.62 69.9 165.19 82.33C111.75 94.75 98.93 128.95 110.69 138.57C122.44 148.19 158.77 120.94 158.77 120.94C158.77 120.94 142.21 148.72 160.38 154.06C178.54 159.41 191.9 123.61 191.9 123.61C191.9 123.61 190.3 158.36 211.14 154.61C231.98 150.86 241.49 82.33 241.49 82.33L241.49 82.33Z" />
	<path id="Layer" class="shp5" d="M222.87 77.61C219.78 96.39 211.7 138.02 198.91 150.88C201.73 153.9 205.65 155.59 211.14 154.61C231.98 150.86 241.49 82.33 241.49 82.33C241.49 82.33 235.61 79.14 222.87 77.61Z" />
	<path id="Layer" class="shp6" d="M185.75 199.33C179.31 199.33 174.71 204.66 173.1 210.49C171.37 216.82 172.44 224.56 177.09 229.43C181.23 233.75 187.83 234.54 192.7 230.94C198.09 226.95 199.87 219.43 198.94 213.07C197.95 206.3 193.24 199.33 185.75 199.33L185.75 199.33Z" />
</svg>