<?xml version="1.0" encoding="iso-8859-1"?>
<!-- Generator: Adobe Illustrator 19.0.0, SVG Export Plug-In . SVG Version: 6.00 Build 0)  -->
<svg version="1.1" id="Layer_1" xmlns="http://www.w3.org/2000/svg" xmlns:xlink="http://www.w3.org/1999/xlink" x="0px" y="0px"
	 viewBox="0 0 512 512" style="enable-background:new 0 0 512 512;" xml:space="preserve">
<path style="fill:#FFD0B8;" d="M399.141,363.747h-19.313c-4.707,0-8.52-3.815-8.52-8.52c0-4.705,3.814-8.52,8.52-8.52h19.313
	c4.707,0,8.52,3.815,8.52,8.52C407.661,359.932,403.847,363.747,399.141,363.747z"/>
<rect x="395.738" y="250.712" style="fill:#BC6D1E;" width="11.36" height="261.288"/>
<path style="fill:#FFD0B8;" d="M410.501,371.7c-4.707,0-8.52-3.815-8.52-8.52v-13.632c0-4.705,3.814-8.52,8.52-8.52
	s8.52,3.815,8.52,8.52v13.632C419.021,367.885,415.207,371.7,410.501,371.7z"/>
<path style="fill:#BC6D1E;" d="M408.8,275.705h-14.775c-3.138,0-5.68-2.544-5.68-5.68s2.542-5.68,5.68-5.68H408.8
	c3.138,0,5.68,2.544,5.68,5.68S411.938,275.705,408.8,275.705z"/>
<path style="fill:#FFD0B8;" d="M132.124,363.747h-19.313c-4.707,0-8.52-3.815-8.52-8.52c0-4.705,3.814-8.52,8.52-8.52h19.313
	c4.707,0,8.52,3.815,8.52,8.52C140.645,359.932,136.831,363.747,132.124,363.747z"/>
<path style="fill:#F7B348;" d="M104.579,377.868L81.05,256.392l39.995,117.091c1.525,4.463-0.858,9.318-5.321,10.842
	s-9.318-0.858-10.842-5.321C104.758,378.644,104.652,378.232,104.579,377.868z"/>
<path style="fill:#9376E2;" d="M322.06,110.525l-0.091,0.909c-20.437-2.204-42.692-3.408-65.97-3.408
	c-8.373,0-16.62,0.148-24.686,0.454c-14.371,0.545-28.196,1.545-41.284,2.954l-0.091-0.909L256,0L322.06,110.525z"/>
<path style="fill:#745DC6;" d="M256,0l-23.289,108.026l-1.397,0.454c-14.371,0.545-28.196,1.545-41.284,2.954l-0.091-0.909L256,0z"
	/>
<path style="fill:#9376E2;" d="M235.131,366.144c1.216-0.511,76.001-32.457,81.59-92.655l6.214,36.694l10.19,60.221
	c0,0,0,0.011,0.011,0.011L357.107,512H154.893l23.97-141.584l10.202-60.221l7.895-46.623c1.295,12.996,6.282,35.558,25.004,46.43
	C249.15,325.792,246.969,354.284,235.131,366.144z"/>
<polyline style="fill:#745DC6;" points="233.937,285.942 215.481,512 154.893,512 195.054,274.829 205.166,229.041 "/>
<g>
	<path style="fill:#9376E2;" d="M437.379,155.728c0,18.279-35.626,34.274-88.781,42.976c1.227-3.726,1.943-7.259,1.943-10.122
		c0-11.917-7.634-21.585-17.041-21.585c-1.386,0-2.715,0.227-3.999,0.625c-1.204-10.02-3.556-19.528-6.896-28.287
		c-20.324-2.147-42.874-3.34-66.606-3.34s-46.282,1.193-66.606,3.34c-3.34,8.759-5.692,18.267-6.896,28.287
		c-1.284-0.398-2.613-0.625-3.999-0.625c-9.406,0-17.041,9.668-17.041,21.585c0,2.863,0.716,6.396,1.943,10.122
		c-53.155-8.702-88.781-24.697-88.781-42.976c0-21.187,47.85-39.295,115.41-46.566c20.437-2.204,42.692-3.408,65.97-3.408
		c12.349,0,24.402,0.341,36.046,0.988c0.011,0,0.011,0,0.011,0c10.315,0.568,20.324,1.386,29.912,2.42
		C389.53,116.432,437.379,134.541,437.379,155.728z"/>
	<path style="fill:#9376E2;" d="M379.828,341.595v48.85c0,0-32.036,4.215-46.691-20.028c-0.011,0-0.011-0.011-0.011-0.011
		l-10.19-60.221c0,0,4.112,6.566,11.281,13.769c0,0,0,0.011,0.011,0.023C344.349,334.142,360.549,345.582,379.828,341.595z"/>
</g>
<path style="fill:#FFD0B8;" d="M350.541,188.582c0,2.863-0.716,6.396-1.943,10.122c-3.84,11.803-12.667,25.504-19.426,25.504
	l-1.147,0.727c-12.587-11.622-19.165-28.583-32.263-32.945C275.313,185.174,256,209.031,256,209.031s-19.313-23.857-39.761-17.041
	c-4.499,1.5-8.225,4.476-11.701,8.225c-6.623,7.157-12.292,17.086-20.562,24.72l-1.147-0.727c-6.759,0-15.586-13.701-19.426-25.504
	c-1.227-3.726-1.943-7.259-1.943-10.122c0-11.917,7.634-21.585,17.041-21.585c1.386,0,2.715,0.227,3.999,0.625
	c1.204-10.02,3.556-19.528,6.896-28.287c20.324-2.147,42.874-3.34,66.606-3.34s46.282,1.193,66.606,3.34
	c1.784,4.669,3.283,9.543,4.465,14.598c1.056,4.431,1.863,9.009,2.431,13.689c1.284-0.398,2.613-0.625,3.999-0.625
	C342.907,166.997,350.541,176.665,350.541,188.582z"/>
<path style="fill:#E2B39F;" d="M256,217.551c-4.707,0-8.52-3.815-8.52-8.52v-21.585c0-4.705,3.814-8.52,8.52-8.52
	s8.52,3.815,8.52,8.52v21.585C264.52,213.736,260.707,217.551,256,217.551z"/>
<path style="fill:#E6E6E6;" d="M316.725,273.494c-5.589,60.199-80.375,92.144-81.59,92.655
	c11.837-11.86,14.019-40.352-13.167-56.143c-18.324-10.633-23.493-32.468-24.913-45.578c-0.034-0.284-0.068-0.568-0.091-0.852
	c-0.102-1.068-0.182-2.068-0.25-2.988c-0.273-4.022-0.17-6.6-0.159-6.805c2.749,0.295,5.623,0.454,8.611,0.454
	c23.755,0,40.568-25.663,47.418-38.307c2.249-4.147,3.419-6.896,3.419-6.896s1.17,2.749,3.419,6.896
	c6.85,12.644,23.664,38.307,47.418,38.307c3.204,0,6.271-0.182,9.202-0.523c0.557,3.579,0.886,7.066,0.977,10.474
	C317.111,267.371,317.009,270.472,316.725,273.494z"/>
<path style="fill:#745DC6;" d="M256,135.995c-23.732,0-46.282,1.193-66.606,3.34c-3.34,8.759-5.692,18.267-6.896,28.287
	c-1.284-0.398-2.613-0.625-3.999-0.625c-9.406,0-17.041,9.668-17.041,21.585c0,2.863,0.716,6.396,1.943,10.122
	c-53.155-8.702-88.781-24.697-88.781-42.976c0-21.187,47.85-39.295,115.41-46.566c20.437-2.204,42.692-3.408,65.97-3.408
	c12.349,0,24.402,0.341,36.046,0.988C291.183,106.787,245.878,109.014,256,135.995z"/>
<g>
	<path style="fill:#CCCCCC;" d="M317.02,264.19c-0.329,0.045-0.648,0.091-0.977,0.125c-2.931,0.341-5.998,0.523-9.202,0.523
		c-31.525,0-50.838-45.203-50.838-45.203s-2.185-8.434-0.003-10.604c6.85,12.644,27.087,45.207,50.841,45.207
		c3.204,0,6.271-0.182,9.202-0.523C316.6,257.294,316.929,260.782,317.02,264.19z"/>
	<path style="fill:#CCCCCC;" d="M256.003,219.634c0,0-19.313,45.203-50.838,45.203c-2.806,0-5.521-0.136-8.111-0.409
		c-0.034-0.284-0.068-0.568-0.091-0.852c-0.568-5.692-0.42-9.543-0.409-9.793c2.749,0.295,5.623,0.454,8.611,0.454
		c23.755,0,33.987-35.422,50.834-45.207C258.181,211.2,256.003,219.634,256.003,219.634z"/>
</g>
<path style="fill:#745DC6;" d="M189.065,310.195l22.065,41.057l-32.267,19.164l-0.045-0.011
	c-14.643,24.254-46.691,20.04-46.691,20.04v-48.85C165.072,348.411,189.065,310.195,189.065,310.195z"/>
<path style="fill:#E2B39F;" d="M327.07,153.933c-36.228-4.68-134.893-12.235-122.533,46.282
	c-6.623,7.157-12.292,17.086-20.562,24.72l-1.147-0.727c-6.759,0-15.586-13.701-19.426-25.504
	c-1.227-3.726-1.943-7.259-1.943-10.122c0-11.917,7.634-21.585,17.041-21.585c1.386,0,2.715,0.227,3.999,0.625
	c1.204-10.02,3.556-19.528,6.896-28.287c20.324-2.147,42.874-3.34,66.606-3.34s46.282,1.193,66.606,3.34
	C324.389,144.004,325.889,148.878,327.07,153.933z"/>
<path style="fill:#745DC6;" d="M379.828,390.444c0,0-32.036,4.215-46.691-20.028c-0.011,0-0.011-0.011-0.011-0.011l-10.19-60.221
	c0,0,4.112,6.566,11.281,13.769c0,0,0,0.011,0.011,0.023C334.795,325.383,358.505,383.707,379.828,390.444z"/>
<g>
	<path style="fill:#4D4D4D;" d="M239.416,169.467c-3.568-0.189-6.049-0.327-8.337-0.315l-6.119,0.005l-6.113,0.011
		c-2.286-0.011-4.765,0.122-8.343,0.3c0.214-3.6,2.261-6.508,4.922-8.563c2.694-2.04,6.12-3.113,9.534-3.106
		c3.413,0.006,6.837,1.077,9.527,3.121C237.146,162.975,239.193,165.877,239.416,169.467z"/>
	<path style="fill:#4D4D4D;" d="M301.496,169.467c-3.568-0.189-6.048-0.327-8.337-0.315l-6.119,0.005l-6.113,0.011
		c-2.286-0.011-4.765,0.122-8.343,0.3c0.214-3.6,2.261-6.508,4.922-8.563c2.694-2.04,6.12-3.113,9.534-3.106
		c3.413,0.006,6.837,1.077,9.527,3.121C299.226,162.975,301.272,165.877,301.496,169.467z"/>
</g>
<g>
	<path style="fill:#E6E6E6;" d="M316.039,253.711c-2.931,0.341-5.998,0.523-9.202,0.523c-31.525,0-50.838-45.203-50.838-45.203
		s19.313-23.857,39.761-17.041c13.098,4.362,19.676,21.323,32.263,32.945c7.066,6.521,16.018,11.36,29.083,11.36
		C357.107,236.295,341.975,250.769,316.039,253.711z"/>
	<path style="fill:#E6E6E6;" d="M256,209.031c0,0-19.313,45.203-50.838,45.203c-2.988,0-5.862-0.159-8.611-0.454
		c-26.299-2.783-41.658-17.484-41.658-17.484c13.064,0,22.016-4.84,29.083-11.36c12.587-11.622,19.165-28.583,32.263-32.945
		C236.687,185.174,256,209.031,256,209.031z"/>
</g>
<path style="fill:#FFD0B8;" d="M99.224,373.974c-3.683,0-7.079-2.406-8.17-6.119l-5.68-19.313c-1.328-4.515,1.255-9.251,5.77-10.579
	c4.516-1.329,9.251,1.256,10.579,5.77l5.68,19.313c1.328,4.515-1.255,9.251-5.77,10.579
	C100.829,373.861,100.019,373.974,99.224,373.974z"/>
<circle style="fill:#D84161;" cx="401.418" cy="236.511" r="19.313"/>
<path style="fill:#C1385C;" d="M393.46,236.511c0-8.69,5.738-16.035,13.632-18.461c-1.796-0.552-3.703-0.852-5.68-0.852
	c-10.667,0-19.313,8.645-19.313,19.313s8.645,19.313,19.313,19.313c1.977,0,3.884-0.3,5.68-0.852
	C399.198,252.546,393.46,245.201,393.46,236.511z"/>
<path style="fill:#CCCCCC;" d="M235.134,366.149c11.837-11.86,14.019-40.352-13.167-56.143
	c-18.324-10.633-23.493-32.468-24.913-45.578c-0.034-0.284-0.068-0.568-0.091-0.852c-0.102-1.068-0.182-2.068-0.25-2.988
	l2.488-2.011l22.766,1.874c0,0-2.318,19.71,13.587,35.615C251.459,311.971,259.241,342.042,235.134,366.149z"/>
<g>
</g>
<g>
</g>
<g>
</g>
<g>
</g>
<g>
</g>
<g>
</g>
<g>
</g>
<g>
</g>
<g>
</g>
<g>
</g>
<g>
</g>
<g>
</g>
<g>
</g>
<g>
</g>
<g>
</g>
</svg>
