<svg id="Capa_1" enable-background="new 0 0 512 512" height="512" viewBox="0 0 512 512" width="512" xmlns="http://www.w3.org/2000/svg"><path d="m256 28.673c21.397 0 40.969 3.434 58.491 9.884-2.75-21.622-27.882-38.557-58.491-38.557s-55.741 16.935-58.491 38.557c17.521-6.45 37.094-9.884 58.491-9.884z" fill="#ff4755"/><path d="m207.239 18.808c-5.342 5.744-8.806 12.479-9.73 19.749 17.522-6.45 37.094-9.884 58.491-9.884s40.969 3.434 58.491 9.884c-.925-7.27-4.388-14.005-9.73-19.749-14.949-4.371-31.243-6.674-48.761-6.674s-33.812 2.303-48.761 6.674z" fill="#fc2b3a"/><path d="m0 512s-.003-55.294 26.528-91.693c25.359-34.792 56.75-49.553 93.05-50.779 2.857-.096 5.251 2.162 5.319 5.02.35 14.697-2.22 58.446-40.98 95.691-32.555 31.282-83.917 41.761-83.917 41.761z" fill="#ffe55a"/><path d="m119.569 369.533c-1.521.054-3.034.131-4.538.231-2.029 20.115-10.298 52.964-40.405 81.894-23.258 22.349-56.111 34.077-72.981 38.955-1.644 12.723-1.645 21.387-1.645 21.387s51.362-10.479 83.916-41.761c38.756-37.24 41.329-80.983 40.98-95.686-.067-2.861-2.466-5.121-5.327-5.02z" fill="#ffd500"/><path d="m512 512s.003-55.294-26.528-91.693c-25.359-34.792-56.75-49.553-93.05-50.779-2.857-.096-5.251 2.162-5.319 5.02-.35 14.697 2.22 58.446 40.98 95.691 32.555 31.282 83.917 41.761 83.917 41.761z" fill="#ffe55a"/><path d="m437.374 451.659c-30.107-28.93-38.376-61.779-40.405-81.894-1.504-.1-3.017-.177-4.538-.231-2.861-.101-5.26 2.159-5.328 5.02-.349 14.703 2.225 58.446 40.98 95.686 32.555 31.281 83.917 41.76 83.917 41.76s-.001-8.664-1.645-21.387c-16.87-4.877-49.723-16.606-72.981-38.954z" fill="#ffd500"/><path d="m428.083 470.239c-30.506-29.313-38.592-62.652-40.483-82.689-14.98-8.881-30.247-16.706-45.238-23.202-28.728 26.568-61.081 41.329-86.362 41.329s-57.633-14.762-86.362-41.329c-14.992 6.496-30.258 14.32-45.238 23.202-1.891 20.037-9.977 53.376-40.483 82.689-32.555 31.282-83.917 41.761-83.917 41.761h512s-51.362-10.479-83.917-41.761z" fill="#acacac"/><path d="m256 405.678c59.835 0 159.289-82.681 156.53-208.906-2.194-100.409-61.388-168.099-156.53-168.099s-154.337 67.69-156.531 168.098c-2.758 126.225 96.696 208.907 156.531 208.907z" fill="#bfbfbf"/><path d="m256 430.094c31.386 0 72.419-20.152 107.063-56.006-6.922-3.503-13.841-6.767-20.701-9.739-28.728 26.568-61.081 41.329-86.362 41.329s-57.633-14.762-86.362-41.329c-6.861 2.972-13.779 6.236-20.701 9.739 34.644 35.854 75.677 56.006 107.063 56.006z" fill="#9c9c9c"/><path d="m412.171 187.704c-6.852 115.566-99.362 190.103-156.171 190.103s-149.319-74.537-156.171-190.103c-.172 2.992-.293 6.014-.36 9.068-2.758 126.224 96.696 208.906 156.531 208.906s159.289-82.681 156.53-208.906c-.066-3.054-.188-6.076-.359-9.068z" fill="#acacac"/><path d="m99.632 174.969 153.566-43.307c1.832-.517 3.772-.517 5.604 0l153.565 43.307c4.447 1.254 7.519 5.311 7.519 9.93v50.165c0 4.62-3.071 8.676-7.519 9.93l-153.566 43.307c-1.832.517-3.772.517-5.604 0l-153.565-43.306c-4.447-1.254-7.519-5.311-7.519-9.93v-50.165c.001-4.62 3.072-8.676 7.519-9.931z" fill="#838383"/><path d="m412.367 226.415-153.566 43.307c-1.832.517-3.772.517-5.604 0l-153.565-43.307c-4.447-1.254-7.519-5.311-7.519-9.93v18.581c0 4.62 3.071 8.676 7.519 9.93l153.565 43.307c1.832.517 3.772.517 5.604 0l153.566-43.307c4.447-1.254 7.519-5.311 7.519-9.93v-18.581c0 4.619-3.071 8.676-7.519 9.93z" fill="#707070"/><path d="m160.696 512h190.609c-9.433-43.958-48.516-76.915-95.304-76.915-46.79 0-85.872 32.957-95.305 76.915z" fill="#ffe55a"/><path d="m256 435.085c-3.035 0-6.036.145-9 .416 42.732 3.912 77.483 35.392 86.304 76.499h18c-9.433-43.958-48.515-76.915-95.304-76.915z" fill="#ffd500"/><path d="m194.471 512h123.058c-8.595-25.746-32.885-44.314-61.529-44.314s-52.934 18.568-61.529 44.314z" fill="#ff4755"/><path d="m256 467.686c-3.055 0-6.057.224-9 .632 24.643 3.423 44.85 20.682 52.529 43.682h18c-8.595-25.746-32.885-44.314-61.529-44.314z" fill="#fc2b3a"/><g fill="#444"><path d="m174.325 181.168c-4.276 0-7.742 3.466-7.742 7.742v42.144c0 4.276 3.466 7.742 7.742 7.742s7.742-3.466 7.742-7.742v-42.144c0-4.276-3.466-7.742-7.742-7.742z"/><path d="m256 162.596c-4.276 0-7.742 3.466-7.742 7.742v79.289c0 4.276 3.466 7.742 7.742 7.742s7.742-3.466 7.742-7.742v-79.289c0-4.277-3.466-7.742-7.742-7.742z"/><path d="m215.163 171.882c-4.276 0-7.742 3.466-7.742 7.742v60.717c0 4.276 3.466 7.742 7.742 7.742s7.742-3.466 7.742-7.742v-60.717c0-4.276-3.467-7.742-7.742-7.742z"/><path d="m133.488 190.455c-4.276 0-7.742 3.466-7.742 7.742v23.573c0 4.276 3.466 7.742 7.742 7.742s7.742-3.466 7.742-7.742v-23.573c0-4.277-3.466-7.742-7.742-7.742z"/><path d="m296.837 171.882c-4.276 0-7.742 3.466-7.742 7.742v60.717c0 4.276 3.466 7.742 7.742 7.742s7.742-3.466 7.742-7.742v-60.717c0-4.276-3.466-7.742-7.742-7.742z"/><path d="m337.675 238.796c4.276 0 7.742-3.466 7.742-7.742v-42.144c0-4.276-3.466-7.742-7.742-7.742s-7.742 3.466-7.742 7.742v42.144c0 4.277 3.466 7.742 7.742 7.742z"/><path d="m378.512 229.511c4.276 0 7.742-3.466 7.742-7.742v-23.573c0-4.276-3.466-7.742-7.742-7.742s-7.742 3.466-7.742 7.742v23.573c0 4.276 3.466 7.742 7.742 7.742z"/></g></svg>