<svg xmlns="http://www.w3.org/2000/svg" viewBox="0 0 512 512" width="512" height="512">
	<style>
		tspan { white-space:pre }
		.shp0 { fill: #ff4755 } 
		.shp1 { fill: #fc2b3a } 
		.shp2 { fill: #ffe55a } 
		.shp3 { fill: #ffd500 } 
		.shp4 { fill: #1d7b9b } 
		.shp5 { fill: #186a85 } 
		.shp6 { fill: #175f76 } 
		.shp7 { fill: #444444 } 
	</style>
	<path id="Layer" class="shp0" d="M256 28.67C277.4 28.67 296.97 32.11 314.49 38.56C311.74 16.94 286.61 0 256 0C225.39 0 200.26 16.93 197.51 38.56C215.03 32.11 234.6 28.67 256 28.67L256 28.67Z" />
	<path id="Layer" class="shp1" d="M207.24 18.81C201.9 24.55 198.43 31.29 197.51 38.56C215.03 32.11 234.6 28.67 256 28.67C277.4 28.67 296.97 32.11 314.49 38.56C313.57 31.29 310.1 24.55 304.76 18.81C289.81 14.44 273.52 12.13 256 12.13C238.48 12.13 222.19 14.44 207.24 18.81L207.24 18.81Z" />
	<path id="Layer" class="shp2" d="M0 512C0 512 0 456.71 26.53 420.31C51.89 385.51 83.28 370.75 119.58 369.53C122.44 369.43 124.83 371.69 124.9 374.55C125.25 389.25 122.68 432.99 83.92 470.24C51.36 501.52 0 512 0 512Z" />
	<path id="Layer" class="shp3" d="M119.57 369.53C118.05 369.59 116.53 369.66 115.03 369.76C113 389.88 104.73 422.73 74.63 451.66C51.37 474.01 18.52 485.74 1.65 490.61C0 503.34 0 512 0 512C0 512 51.36 501.52 83.92 470.24C122.67 433 125.25 389.26 124.9 374.55C124.83 371.69 122.43 369.43 119.57 369.53L119.57 369.53Z" />
	<path id="Layer" class="shp2" d="M512 512C512 512 512 456.71 485.47 420.31C460.11 385.51 428.72 370.75 392.42 369.53C389.56 369.43 387.17 371.69 387.1 374.55C386.75 389.25 389.32 432.99 428.08 470.24C460.64 501.52 512 512 512 512Z" />
	<path id="Layer" class="shp3" d="M437.37 451.66C407.27 422.73 399 389.88 396.97 369.76C395.47 369.66 393.95 369.59 392.43 369.53C389.57 369.43 387.17 371.69 387.1 374.55C386.75 389.26 389.33 433 428.08 470.24C460.64 501.52 512 512 512 512C512 512 512 503.34 510.36 490.61C493.49 485.74 460.63 474.01 437.37 451.66L437.37 451.66Z" />
	<path id="Layer" class="shp4" d="M428.08 470.24C397.58 440.93 389.49 407.59 387.6 387.55C372.62 378.67 357.35 370.84 342.36 364.35C313.63 390.92 281.28 405.68 256 405.68C230.72 405.68 198.37 390.91 169.64 364.35C154.65 370.84 139.38 378.67 124.4 387.55C122.51 407.59 114.42 440.93 83.92 470.24C51.36 501.52 0 512 0 512L512 512C512 512 460.64 501.52 428.08 470.24L428.08 470.24Z" />
	<path id="Layer" class="shp4" d="M256 405.68C315.83 405.68 415.29 323 412.53 196.77C410.34 96.36 351.14 28.67 256 28.67C160.86 28.67 101.66 96.36 99.47 196.77C96.71 323 196.16 405.68 256 405.68L256 405.68Z" />
	<path id="Layer" class="shp5" d="M256 430.09C287.39 430.09 328.42 409.94 363.06 374.09C356.14 370.58 349.22 367.32 342.36 364.35C313.63 390.92 281.28 405.68 256 405.68C230.72 405.68 198.37 390.92 169.64 364.35C162.78 367.32 155.86 370.58 148.94 374.09C183.58 409.94 224.61 430.09 256 430.09L256 430.09Z" />
	<path id="Layer" class="shp5" d="M412.17 187.7C405.32 303.27 312.81 377.81 256 377.81C199.19 377.81 106.68 303.27 99.83 187.7C99.66 190.7 99.54 193.72 99.47 196.77C96.71 323 196.17 405.68 256 405.68C315.83 405.68 415.29 323 412.53 196.77C412.46 193.72 412.34 190.7 412.17 187.7L412.17 187.7Z" />
	<path id="Layer" class="shp6" d="M99.63 174.97L253.2 131.66C255.03 131.14 256.97 131.14 258.8 131.66L412.37 174.97C416.81 176.22 419.89 180.28 419.89 184.9L419.89 235.06C419.89 239.68 416.81 243.74 412.37 244.99L258.8 288.3C256.97 288.82 255.03 288.82 253.2 288.3L99.63 245C95.19 243.74 92.11 239.68 92.11 235.06L92.11 184.9C92.11 180.28 95.19 176.22 99.63 174.97L99.63 174.97Z" />
	<path id="Layer" class="shp6" d="M412.37 226.41L258.8 269.72C256.97 270.24 255.03 270.24 253.2 269.72L99.63 226.41C95.19 225.16 92.11 221.1 92.11 216.48L92.11 235.07C92.11 239.69 95.18 243.74 99.63 245L253.2 288.3C255.03 288.82 256.97 288.82 258.8 288.3L412.37 245C416.81 243.74 419.89 239.68 419.89 235.07L419.89 216.48C419.89 221.1 416.82 225.16 412.37 226.41L412.37 226.41Z" />
	<path id="Layer" class="shp2" d="M160.7 512L351.31 512C341.87 468.04 302.79 435.08 256 435.08C209.21 435.08 170.13 468.04 160.7 512L160.7 512Z" />
	<path id="Layer" class="shp3" d="M256 435.08C252.97 435.08 249.96 435.23 247 435.5C289.73 439.41 324.48 470.89 333.3 512L351.3 512C341.87 468.04 302.79 435.08 256 435.08L256 435.08Z" />
	<path id="Layer" class="shp0" d="M194.47 512L317.53 512C308.93 486.25 284.64 467.69 256 467.69C227.36 467.69 203.07 486.25 194.47 512Z" />
	<path id="Layer" class="shp1" d="M256 467.69C252.94 467.69 249.94 467.91 247 468.32C271.64 471.74 291.85 489 299.53 512L317.53 512C308.93 486.25 284.64 467.69 256 467.69Z" />
	<g id="Layer">
		<path id="Layer" class="shp7" d="M174.32 181.17C170.05 181.17 166.58 184.63 166.58 188.91L166.58 231.05C166.58 235.33 170.05 238.8 174.32 238.8C178.6 238.8 182.07 235.33 182.07 231.05L182.07 188.91C182.07 184.63 178.6 181.17 174.32 181.17Z" />
		<path id="Layer" class="shp7" d="M256 162.6C251.72 162.6 248.26 166.06 248.26 170.34L248.26 249.63C248.26 253.9 251.72 257.37 256 257.37C260.28 257.37 263.74 253.9 263.74 249.63L263.74 170.34C263.74 166.06 260.28 162.6 256 162.6L256 162.6Z" />
		<path id="Layer" class="shp7" d="M215.16 171.88C210.89 171.88 207.42 175.35 207.42 179.62L207.42 240.34C207.42 244.62 210.89 248.08 215.16 248.08C219.44 248.08 222.91 244.62 222.91 240.34L222.91 179.62C222.91 175.35 219.44 171.88 215.16 171.88L215.16 171.88Z" />
		<path id="Layer" class="shp7" d="M133.49 190.46C129.21 190.46 125.75 193.92 125.75 198.2L125.75 221.77C125.75 226.05 129.21 229.51 133.49 229.51C137.76 229.51 141.23 226.05 141.23 221.77L141.23 198.2C141.23 193.92 137.76 190.46 133.49 190.46Z" />
		<path id="Layer" class="shp7" d="M296.84 171.88C292.56 171.88 289.09 175.35 289.09 179.62L289.09 240.34C289.09 244.62 292.56 248.08 296.84 248.08C301.11 248.08 304.58 244.62 304.58 240.34L304.58 179.62C304.58 175.35 301.11 171.88 296.84 171.88L296.84 171.88Z" />
		<path id="Layer" class="shp7" d="M337.68 238.8C341.95 238.8 345.42 235.33 345.42 231.05L345.42 188.91C345.42 184.63 341.95 181.17 337.68 181.17C333.4 181.17 329.93 184.63 329.93 188.91L329.93 231.05C329.93 235.33 333.4 238.8 337.68 238.8Z" />
		<path id="Layer" class="shp7" d="M378.51 229.51C382.79 229.51 386.25 226.04 386.25 221.77L386.25 198.2C386.25 193.92 382.79 190.45 378.51 190.45C374.24 190.45 370.77 193.92 370.77 198.2L370.77 221.77C370.77 226.05 374.24 229.51 378.51 229.51Z" />
	</g>
</svg>