<svg height="512pt" viewBox="0 0 512 512" width="512pt" xmlns="http://www.w3.org/2000/svg"><path d="m368.46875 175.667969h-224.9375c-8.28125 0-15-6.71875-15-15v-105.949219c0-30.171875 24.546875-54.71875 54.71875-54.71875 19.835938 0 38.484375 7.722656 52.507812 21.742188l20.242188 20.242187c5.929688-5.929687 13.464844-13.46875 20.230469-20.238281 14.027343-14.023438 32.675781-21.746094 52.511719-21.746094 30.179687 0 54.726562 24.546875 54.726562 54.71875v105.949219c0 8.28125-6.71875 15-15 15zm0 0" fill="#b0705b"/><path d="m383.46875 160.667969v-105.949219c0-30.171875-24.546875-54.71875-54.726562-54.71875-19.835938 0-38.484376 7.722656-52.511719 21.746094-6.765625 6.769531-14.300781 14.308594-20.226563 20.238281v133.683594h112.460938c8.285156 0 15.003906-6.71875 15.003906-15zm0 0" fill="#875140"/><path d="m143.53125 319.199219h-31.730469c-26.257812 0-47.535156-21.234375-47.535156-47.535157 0-25.824218 20.875-46.730468 46.71875-46.730468h32.550781c8.28125 0 15 6.714844 15 15v64.265625c-.003906 8.285156-6.71875 15-15.003906 15zm0 0" fill="#ffc3b4"/><path d="m400.199219 319.199219h-31.730469c-8.285156 0-15-6.714844-15-15v-64.265625c0-8.285156 6.714844-15 15-15h32.550781c25.804688 0 46.714844 20.882812 46.714844 46.714844 0 26.023437-21.015625 47.550781-47.535156 47.550781zm0 0" fill="#ffaaa0"/><path d="m362.558594 317.988281-80.824219-34.640625c-16.355469-7.007812-35.121094-7.007812-51.476563 0-33.257812 14.257813-80.816406 34.640625-80.816406 34.640625-4.632812 1.984375-9.957031 1.507813-14.164062-1.265625-4.210938-2.777344-6.742188-7.480468-6.742188-12.523437v-113.53125c0-8.285157 6.714844-15 15-15h224.933594c8.285156 0 15 6.714843 15 15v113.53125c0 5.042969-2.535156 9.746093-6.742188 12.523437-4.605468 3.035156-9.984374 3.058594-14.167968 1.265625zm0 0" fill="#ffdcc8"/><path d="m362.558594 317.988281c4.183594 1.792969 9.5625 1.769531 14.167968-1.265625 4.207032-2.777344 6.742188-7.480468 6.742188-12.523437v-113.53125c0-8.285157-6.71875-15-15-15h-112.464844v102.425781c8.777344 0 17.554688 1.75 25.730469 5.253906zm0 0" fill="#ffc3b4"/><path d="m446.148438 490.289062c-31.726563-63.445312-93.636719-72.558593-117.40625-72.558593h-145.492188c-70.933594 0-106.769531 51.292969-117.398438 72.558593-4.996093 9.988282 2.320313 21.710938 13.402344 21.710938h353.492188c11.011718 0 18.433594-11.65625 13.402344-21.710938zm0 0" fill="#c69687"/><path d="m446.148438 490.289062c-31.726563-63.445312-93.636719-72.558593-117.40625-72.558593h-72.738282v94.269531h176.742188c11.011718 0 18.433594-11.65625 13.402344-21.710938zm0 0" fill="#b0705b"/><path d="m256 512c-3.695312 0-7.390625-1.355469-10.277344-4.074219l-84.195312-79.183593c-20.96875-19.726563-32.996094-47.550782-32.996094-76.34375v-48.199219c0-6 3.578125-11.421875 9.09375-13.785157 0 0 47.554688-20.382812 80.8125-34.640624 23.871094-10.226563 51.246094-10.226563 75.113281 0l80.824219 34.640624c5.515625 2.363282 9.089844 7.785157 9.089844 13.785157v48.199219c0 28.785156-12.027344 56.613281-32.996094 76.339843-33.316406 31.332031-84.191406 79.1875-84.191406 79.1875-2.886719 2.714844-6.582032 4.074219-10.277344 4.074219zm0 0" fill="#ff4646"/><path d="m350.46875 428.738281c20.972656-19.726562 33-47.554687 33-76.339843v-48.199219c0-6-3.578125-11.421875-9.09375-13.785157l-80.824219-34.640624c-11.929687-5.113282-24.738281-7.667969-37.546875-7.671876v263.898438c3.691406 0 7.386719-1.359375 10.273438-4.074219 0 0 50.875-47.855469 84.191406-79.1875zm0 0" fill="#d22832"/><path d="m432.734375 190.667969h-353.46875c-43.707031 0-79.265625-35.558594-79.265625-79.269531 0-26.027344 21.050781-47.132813 47.132812-47.132813 25.996094 0 47.132813 21.136719 47.132813 47.117187 0 8.285157-6.714844 15.007813-15 15.007813s-15-6.707031-15-14.992187v-.015626c0-9.4375-7.679687-17.117187-17.117187-17.117187-9.652344 0-17.148438 7.824219-17.148438 17.132813 0 27.167968 22.101562 49.269531 49.265625 49.269531h353.46875c27.164063 0 49.265625-22.101563 49.265625-49.269531 0-9.601563-7.828125-17.132813-17.132812-17.132813-9.445313 0-17.132813 7.6875-17.132813 17.132813 0 8.285156-6.714844 15-15 15s-15-6.714844-15-15c0-25.988282 21.144531-47.132813 47.132813-47.132813 25.597656 0 47.132812 20.699219 47.132812 47.132813 0 43.710937-35.558594 79.269531-79.265625 79.269531zm0 0" fill="#875140"/><path d="m512 111.398438c0-26.433594-21.535156-47.132813-47.132812-47.132813-25.988282 0-47.132813 21.144531-47.132813 47.132813 0 8.285156 6.714844 15 15 15 8.28125 0 15-6.714844 15-15 0-9.445313 7.683594-17.132813 17.132813-17.132813 9.300781 0 17.132812 7.53125 17.132812 17.132813 0 27.167968-22.101562 49.269531-49.265625 49.269531h-176.730469v30h176.730469c43.707031 0 79.265625-35.558594 79.265625-79.269531zm0 0" fill="#64321e"/></svg>