<svg xmlns="http://www.w3.org/2000/svg" viewBox="0 0 512 512" width="512" height="512">
	<style>
		tspan { white-space:pre }
		.shp0 { fill: #d14242 } 
		.shp1 { fill: #f74b4b } 
		.shp2 { fill: #3e4852 } 
		.shp3 { fill: #fbfcf7 } 
		.shp4 { fill: #e9ccae } 
		.shp5 { fill: #ddc1a5 } 
		.shp6 { fill: #f5d7b7 } 
		.shp7 { fill: #2e3b43 } 
		.shp8 { fill: #212d33 } 
	</style>
	<g id="Layer">
	</g>
	<path id="Layer" class="shp0" d="M292.61 341.76C292.61 341.76 324.23 381.7 358.93 381.62C393.61 381.55 425.24 341.76 425.24 341.76C425.24 341.76 393.61 301.97 358.93 301.9C324.23 301.82 292.61 341.76 292.61 341.76L292.61 341.76Z" />
	<path id="Layer" class="shp1" d="M219.39 341.76C219.39 341.76 187.77 381.7 153.07 381.62C118.39 381.55 86.76 341.76 86.76 341.76C86.76 341.76 118.39 301.97 153.07 301.9C187.77 301.82 219.39 341.76 219.39 341.76L219.39 341.76Z" />
	<path id="Layer" class="shp2" d="M142.23 367.09C105.69 367.09 74.12 390.15 62.03 423.07C108.98 477.52 178.46 512 256 512C333.54 512 403.02 477.52 449.97 423.07C437.88 390.15 406.31 367.09 369.77 367.09L142.23 367.09Z" />
	<path id="Layer" class="shp3" d="M166 495.7C194 506.22 224.32 512 256 512C287.68 512 318 506.22 346 495.7L346 361.97L166 361.97L166 495.7Z" />
	<path id="Layer" class="shp4" d="M430.4 201C430.4 225.16 410.82 244.74 386.66 244.74C362.5 244.74 342.92 225.16 342.92 201C342.92 176.85 362.5 157.26 386.66 157.26C410.82 157.26 430.4 176.85 430.4 201Z" />
	<path id="Layer" class="shp5" d="M169.08 201C169.08 225.16 149.5 244.74 125.34 244.74C101.18 244.74 81.6 225.16 81.6 201C81.6 176.85 101.18 157.26 125.34 157.26C149.5 157.26 169.08 176.85 169.08 201Z" />
	<path id="Layer" class="shp6" d="M256 352.95C183.83 352.95 125.33 294.45 125.33 222.28L125.33 147.99C125.33 75.82 183.84 17.32 256 17.32C328.17 17.32 386.67 75.83 386.67 147.99L386.67 222.28C386.67 294.45 328.17 352.95 256 352.95L256 352.95Z" />
	<path id="Layer" class="shp4" d="M155.33 222.28L155.33 147.99C155.33 80.9 205.9 25.63 271 18.19C266.08 17.62 261.07 17.32 256 17.32C183.83 17.32 125.33 75.82 125.33 147.99L125.33 222.28C125.33 294.45 183.84 352.95 256 352.95C261.07 352.95 266.08 352.65 271 352.09C205.9 344.64 155.33 289.38 155.33 222.28L155.33 222.28Z" />
	<path id="Layer" class="shp7" d="M372.56 43.5C363.57 21.5 318.39 0 256 0C193.61 0 148.43 21.5 139.44 43.5C130.46 65.5 118.1 135.94 118.1 135.94L393.9 135.94C393.9 135.94 381.54 65.5 372.56 43.5L372.56 43.5Z" />
	<path id="Layer" class="shp8" d="M139.44 43.5C130.46 65.5 118.1 135.94 118.1 135.94L148.1 135.94C148.1 135.94 167.07 47.36 177.41 13.62C157.36 21.73 143.91 32.55 139.44 43.5Z" />
	<path id="Layer" class="shp2" d="M256 133.44C167.42 133.44 43.81 107.68 9.28 100.09C4.51 99.04 0 102.67 0 107.55L0 174.59C0 178.82 3.42 182.24 7.64 182.24L504.36 182.24C508.58 182.24 512 178.82 512 174.59L512 107.55C512 102.67 507.49 99.04 502.72 100.09C468.19 107.68 344.58 133.44 256 133.44L256 133.44Z" />
	<path id="Layer" class="shp7" d="M504.36 152.24L7.64 152.24C3.42 152.24 0 148.82 0 144.59L0 174.59C0 178.82 3.42 182.24 7.64 182.24L504.36 182.24C508.58 182.24 512 178.82 512 174.59L512 144.59C512 148.82 508.58 152.24 504.36 152.24Z" />
	<path id="Layer" class="shp1" d="M256 225.82C220 225.82 165.41 287.91 151.22 304.8C148.98 307.47 147.75 310.85 147.75 314.34L147.75 367.09C147.75 367.09 189 409.94 256 409.94C323 409.94 364.25 367.09 364.25 367.09L364.25 314.34C364.25 310.85 363.02 307.47 360.78 304.8C346.59 287.91 292 225.82 256 225.82L256 225.82Z" />
	<path id="Layer" class="shp0" d="M295.89 361.67L176.11 361.67C172.23 361.67 169.08 358.52 169.08 354.64C169.08 350.76 172.23 347.61 176.11 347.61L295.89 347.61C299.77 347.61 302.92 350.76 302.92 354.64C302.92 358.52 299.77 361.67 295.89 361.67Z" />
	<path id="Layer" class="shp0" d="M255.89 317.88L176.11 317.88C172.23 317.88 169.08 314.73 169.08 310.86C169.08 306.97 172.23 303.82 176.11 303.82L255.89 303.82C259.77 303.82 262.92 306.97 262.92 310.86C262.92 314.73 259.77 317.88 255.89 317.88L255.89 317.88Z" />
	<path id="Layer" class="shp0" d="M177.75 314.34C177.75 310.85 178.98 307.47 181.22 304.8C193.55 290.12 236.37 241.35 271 228.8C265.77 226.9 260.72 225.82 256 225.82C220 225.82 165.41 287.9 151.22 304.8C148.98 307.47 147.75 310.85 147.75 314.34L147.75 367.09C147.75 367.09 158.44 378.19 177.75 389.08L177.75 314.34Z" />
</svg>