<svg xmlns="http://www.w3.org/2000/svg" viewBox="0 0 512 512" width="512" height="512">
	<style>
		tspan { white-space:pre }
		.shp0 { fill: #ffd0b8 } 
		.shp1 { fill: #bc6d1e } 
		.shp2 { fill: #f7b348 } 
		.shp3 { fill: #323232 } 
		.shp4 { fill: #252525 } 
		.shp5 { fill: #e2b39f } 
		.shp6 { fill: #e6e6e6 } 
		.shp7 { fill: #cccccc } 
		.shp8 { fill: #4d4d4d } 
		.shp9 { fill: #d84161 } 
		.shp10 { fill: #c1385c } 
	</style>
	<path id="Layer" class="shp0" d="M399.14 363.75L379.83 363.75C375.12 363.75 371.31 359.93 371.31 355.23C371.31 350.52 375.12 346.71 379.83 346.71L399.14 346.71C403.85 346.71 407.66 350.52 407.66 355.23C407.66 359.93 403.85 363.75 399.14 363.75Z" />
	<path id="Layer" class="shp1" d="M395.74 250.71L407.1 250.71L407.1 512L395.74 512L395.74 250.71Z" />
	<path id="Layer" class="shp0" d="M410.5 371.7C405.79 371.7 401.98 367.88 401.98 363.18L401.98 349.55C401.98 344.84 405.8 341.03 410.5 341.03C415.21 341.03 419.02 344.84 419.02 349.55L419.02 363.18C419.02 367.88 415.21 371.7 410.5 371.7Z" />
	<path id="Layer" class="shp1" d="M408.8 275.7L394.03 275.7C390.89 275.7 388.35 273.16 388.35 270.02C388.35 266.89 390.89 264.34 394.03 264.34L408.8 264.34C411.94 264.34 414.48 266.89 414.48 270.02C414.48 273.16 411.94 275.7 408.8 275.7Z" />
	<path id="Layer" class="shp0" d="M132.12 363.75L112.81 363.75C108.1 363.75 104.29 359.93 104.29 355.23C104.29 350.52 108.1 346.71 112.81 346.71L132.12 346.71C136.83 346.71 140.64 350.52 140.64 355.23C140.65 359.93 136.83 363.75 132.12 363.75Z" />
	<path id="Layer" class="shp2" d="M104.58 377.87L81.05 256.39L121.04 373.48C122.57 377.95 120.19 382.8 115.72 384.32C111.26 385.85 106.41 383.47 104.88 379C104.76 378.64 104.65 378.23 104.58 377.87Z" />
	<path id="Layer" class="shp3" d="M322.06 110.53L321.97 111.43C301.53 109.23 279.28 108.03 256 108.03C247.63 108.03 239.38 108.17 231.31 108.48C216.94 109.03 203.12 110.03 190.03 111.43L189.94 110.52L256 0L322.06 110.53Z" />
	<path id="Layer" class="shp4" d="M256 0L232.71 108.03L231.31 108.48C216.94 109.02 203.12 110.02 190.03 111.43L189.94 110.52L256 0Z" />
	<path id="Layer" class="shp3" d="M235.13 366.14C236.35 365.63 311.13 333.69 316.72 273.49L322.94 310.18L333.13 370.4C333.13 370.4 333.13 370.42 333.14 370.42L357.11 512L154.89 512L178.86 370.42L189.06 310.19L196.96 263.57C198.25 276.57 203.24 299.13 221.96 310C249.15 325.79 246.97 354.28 235.13 366.14Z" />
	<path id="Layer" class="shp4" d="M233.94 285.94L215.48 512L154.89 512L195.05 274.83L205.17 229.04" />
	<g id="Layer">
		<path id="Layer" class="shp3" d="M437.38 155.73C437.38 174.01 401.75 190 348.6 198.7C349.82 194.98 350.54 191.44 350.54 188.58C350.54 176.66 342.91 167 333.5 167C332.11 167 330.79 167.22 329.5 167.62C328.3 157.6 325.94 148.09 322.6 139.33C302.28 137.19 279.73 135.99 256 135.99C232.27 135.99 209.72 137.19 189.39 139.33C186.05 148.09 183.7 157.6 182.5 167.62C181.21 167.22 179.88 167 178.5 167C169.09 167 161.46 176.66 161.46 188.58C161.46 191.44 162.17 194.98 163.4 198.7C110.25 190 74.62 174.01 74.62 155.73C74.62 134.54 122.47 116.43 190.03 109.16C210.47 106.96 232.72 105.75 256 105.75C268.35 105.75 280.4 106.09 292.05 106.74C292.06 106.74 292.06 106.74 292.06 106.74C302.37 107.31 312.38 108.13 321.97 109.16C389.53 116.43 437.38 134.54 437.38 155.73Z" />
		<path id="Layer" class="shp3" d="M379.83 341.6L379.83 390.45C379.83 390.45 347.79 394.66 333.14 370.42C333.13 370.42 333.13 370.41 333.13 370.41L322.94 310.19C322.94 310.19 327.05 316.75 334.22 323.95C334.22 323.95 334.22 323.97 334.23 323.98C344.35 334.14 360.55 345.58 379.83 341.6Z" />
	</g>
	<path id="Layer" class="shp0" d="M350.54 188.58C350.54 191.44 349.82 194.98 348.6 198.7C344.76 210.51 335.93 224.21 329.17 224.21L328.03 224.94C315.44 213.31 308.86 196.35 295.76 191.99C275.31 185.17 256 209.03 256 209.03C256 209.03 236.69 185.17 216.24 191.99C211.74 193.49 208.01 196.47 204.54 200.22C197.92 207.37 192.25 217.3 183.98 224.94L182.83 224.21C176.07 224.21 167.24 210.51 163.4 198.7C162.18 194.98 161.46 191.44 161.46 188.58C161.46 176.66 169.09 167 178.5 167C179.89 167 181.22 167.22 182.5 167.62C183.7 157.6 186.06 148.09 189.4 139.33C209.72 137.19 232.27 135.99 256 135.99C279.73 135.99 302.28 137.19 322.61 139.33C324.39 144 325.89 148.88 327.07 153.93C328.13 158.36 328.94 162.94 329.5 167.62C330.79 167.22 332.12 167 333.5 167C342.91 167 350.54 176.66 350.54 188.58Z" />
	<path id="Layer" class="shp5" d="M256 217.55C251.29 217.55 247.48 213.74 247.48 209.03L247.48 187.45C247.48 182.74 251.29 178.93 256 178.93C260.71 178.93 264.52 182.74 264.52 187.45L264.52 209.03C264.52 213.74 260.71 217.55 256 217.55Z" />
	<path id="Layer" class="shp6" d="M316.73 273.49C311.14 333.69 236.35 365.64 235.14 366.15C246.97 354.29 249.15 325.8 221.97 310.01C203.64 299.37 198.48 277.54 197.06 264.43C197.02 264.14 196.99 263.86 196.96 263.58C196.86 262.51 196.78 261.51 196.71 260.59C196.44 256.57 196.54 253.99 196.56 253.78C199.3 254.08 202.18 254.24 205.17 254.24C228.92 254.24 245.73 228.57 252.58 215.93C254.83 211.78 256 209.03 256 209.03C256 209.03 257.17 211.78 259.42 215.93C266.27 228.57 283.09 254.24 306.84 254.24C310.04 254.24 313.11 254.06 316.04 253.71C316.6 257.29 316.93 260.78 317.02 264.19C317.11 267.37 317.01 270.47 316.73 273.49Z" />
	<path id="Layer" class="shp4" d="M256 136C232.27 136 209.72 137.19 189.39 139.34C186.05 148.09 183.7 157.6 182.5 167.62C181.21 167.22 179.89 167 178.5 167C169.09 167 161.46 176.67 161.46 188.58C161.46 191.45 162.17 194.98 163.4 198.7C110.25 190 74.62 174.01 74.62 155.73C74.62 134.54 122.47 116.43 190.03 109.16C210.47 106.96 232.72 105.75 256 105.75C268.35 105.75 280.4 106.09 292.05 106.74C291.18 106.79 245.88 109.01 256 136Z" />
	<g id="Layer">
		<path id="Layer" class="shp7" d="M317.02 264.19C316.69 264.24 316.37 264.28 316.04 264.31C313.11 264.66 310.05 264.84 306.84 264.84C275.32 264.84 256 219.64 256 219.64C256 219.64 253.82 211.2 256 209.03C262.85 221.68 283.09 254.24 306.84 254.24C310.05 254.24 313.11 254.06 316.04 253.72C316.6 257.29 316.93 260.78 317.02 264.19Z" />
		<path id="Layer" class="shp7" d="M256 219.63C256 219.63 236.69 264.84 205.16 264.84C202.36 264.84 199.64 264.7 197.05 264.43C197.02 264.14 196.99 263.86 196.96 263.58C196.39 257.88 196.54 254.03 196.55 253.78C199.3 254.08 202.18 254.24 205.16 254.24C228.92 254.24 239.15 218.82 256 209.03C258.18 211.2 256 219.63 256 219.63Z" />
	</g>
	<path id="Layer" class="shp4" d="M189.06 310.19L211.13 351.25L178.86 370.42L178.82 370.4C164.18 394.66 132.13 390.44 132.13 390.44L132.13 341.59C165.07 348.41 189.06 310.19 189.06 310.19Z" />
	<path id="Layer" class="shp5" d="M327.07 153.93C290.84 149.25 192.18 141.7 204.54 200.21C197.91 207.37 192.24 217.3 183.97 224.93L182.83 224.21C176.07 224.21 167.24 210.51 163.4 198.7C162.17 194.98 161.46 191.44 161.46 188.58C161.46 176.66 169.09 167 178.5 167C179.89 167 181.21 167.22 182.5 167.62C183.7 157.6 186.05 148.09 189.39 139.33C209.72 137.19 232.27 135.99 256 135.99C279.73 135.99 302.28 137.19 322.61 139.33C324.39 144 325.89 148.88 327.07 153.93Z" />
	<path id="Layer" class="shp3" d="M379.83 390.44C379.83 390.44 347.79 394.66 333.14 370.42C333.13 370.42 333.13 370.4 333.13 370.4L322.94 310.18C322.94 310.18 327.05 316.75 334.22 323.95C334.22 323.95 334.22 323.96 334.23 323.98C334.8 325.38 358.5 383.71 379.83 390.44Z" />
	<g id="Layer">
		<path id="Layer" class="shp8" d="M239.42 169.47C235.85 169.28 233.37 169.14 231.08 169.15L224.96 169.16L218.85 169.17C216.56 169.16 214.08 169.29 210.5 169.47C210.72 165.87 212.77 162.96 215.43 160.91C218.12 158.87 221.55 157.79 224.96 157.8C228.37 157.81 231.8 158.88 234.49 160.92C237.15 162.97 239.19 165.88 239.42 169.47Z" />
		<path id="Layer" class="shp8" d="M301.5 169.47C297.93 169.28 295.45 169.14 293.16 169.15L287.04 169.16L280.93 169.17C278.64 169.16 276.16 169.29 272.58 169.47C272.8 165.87 274.84 162.96 277.51 160.91C280.2 158.87 283.63 157.79 287.04 157.8C290.45 157.81 293.88 158.88 296.57 160.92C299.23 162.97 301.27 165.88 301.5 169.47Z" />
	</g>
	<g id="Layer">
		<path id="Layer" class="shp6" d="M316.04 253.71C313.11 254.05 310.04 254.23 306.84 254.23C275.31 254.23 256 209.03 256 209.03C256 209.03 275.31 185.17 295.76 191.99C308.86 196.35 315.44 213.31 328.02 224.94C335.09 231.46 344.04 236.3 357.11 236.3C357.11 236.29 341.98 250.77 316.04 253.71Z" />
		<path id="Layer" class="shp6" d="M256 209.03C256 209.03 236.69 254.23 205.16 254.23C202.17 254.23 199.3 254.08 196.55 253.78C170.25 251 154.89 236.3 154.89 236.3C167.96 236.3 176.91 231.46 183.98 224.94C196.56 213.31 203.14 196.35 216.24 191.99C236.69 185.17 256 209.03 256 209.03Z" />
	</g>
	<path id="Layer" class="shp0" d="M99.22 373.97C95.54 373.97 92.15 371.57 91.05 367.86L85.37 348.54C84.05 344.03 86.63 339.29 91.14 337.96C95.66 336.63 100.39 339.22 101.72 343.73L107.4 363.05C108.73 367.56 106.15 372.3 101.63 373.63C100.83 373.86 100.02 373.97 99.22 373.97Z" />
	<path id="Layer" class="shp9" d="M401.42 255.82C390.74 255.82 382.11 247.19 382.11 236.51C382.11 225.83 390.74 217.2 401.42 217.2C412.1 217.2 420.73 225.83 420.73 236.51C420.73 247.19 412.1 255.82 401.42 255.82Z" />
	<path id="Layer" class="shp10" d="M393.46 236.51C393.46 227.82 399.2 220.48 407.09 218.05C405.3 217.5 403.39 217.2 401.41 217.2C390.75 217.2 382.1 225.84 382.1 236.51C382.1 247.18 390.74 255.82 401.41 255.82C403.39 255.82 405.3 255.52 407.09 254.97C399.2 252.55 393.46 245.2 393.46 236.51Z" />
	<path id="Layer" class="shp7" d="M235.13 366.15C246.97 354.29 249.15 325.8 221.97 310.01C203.64 299.37 198.47 277.54 197.05 264.43C197.02 264.14 196.99 263.86 196.96 263.58C196.86 262.51 196.78 261.51 196.71 260.59L199.2 258.58L221.97 260.45C221.97 260.45 219.65 280.16 235.55 296.07C251.46 311.97 259.24 342.04 235.13 366.15Z" />
	<g id="Layer">
	</g>
	<g id="Layer">
	</g>
	<g id="Layer">
	</g>
	<g id="Layer">
	</g>
	<g id="Layer">
	</g>
	<g id="Layer">
	</g>
	<g id="Layer">
	</g>
	<g id="Layer">
	</g>
	<g id="Layer">
	</g>
	<g id="Layer">
	</g>
	<g id="Layer">
	</g>
	<g id="Layer">
	</g>
	<g id="Layer">
	</g>
	<g id="Layer">
	</g>
	<g id="Layer">
	</g>
</svg>