<svg xmlns="http://www.w3.org/2000/svg" viewBox="0 0 512 512" width="512" height="512">
	<style>
		tspan { white-space:pre }
		.shp0 { fill: #323232 } 
		.shp1 { fill: #464646 } 
		.shp2 { fill: #647dbe } 
		.shp3 { fill: #a6c3c0 } 
		.shp4 { fill: #6ea5d7 } 
		.shp5 { fill: #f5d7a5 } 
		.shp6 { fill: #aa5a28 } 
		.shp7 { fill: #62a49d } 
		.shp8 { fill: #7aaea9 } 
		.shp9 { fill: #d76e28 } 
		.shp10 { fill: #8ebeb9 } 
		.shp11 { fill: #92c1bc } 
		.shp12 { fill: #d7e6f0 } 
		.shp13 { fill: #64412d } 
	</style>
	<g id="Layer">
		<g id="Layer">
			<path id="Layer" class="shp0" d="M289.55 297.37C277.06 284.88 256.8 284.88 244.3 297.37L180.3 361.37C174.3 367.37 170.93 375.51 170.93 384L170.93 448C153.25 448 138.93 462.33 138.93 480C138.93 488.84 146.09 496 154.93 496L218.93 496C227.76 496 234.93 488.84 234.93 480L234.93 397.25L289.55 342.63C302.05 330.13 302.05 309.87 289.55 297.37Z" />
		</g>
		<g id="Layer">
			<path id="Layer" class="shp1" d="M410.93 448C410.93 439.81 407.8 431.62 401.55 425.37L346.93 370.75L346.93 304C346.93 286.33 332.6 272 314.93 272C297.25 272 282.93 286.33 282.93 304L282.93 384C282.93 392.49 286.3 400.63 292.3 406.63L333.67 448L330.93 448C313.25 448 298.93 462.33 298.93 480C298.93 488.84 306.09 496 314.93 496L394.93 496C403.76 496 410.93 488.84 410.93 480L410.93 448Z" />
		</g>
		<g id="Layer">
			<path id="Layer" class="shp2" d="M314.93 104L306.93 104C302.51 104 298.93 100.42 298.93 96L298.93 68C298.93 65.79 300.72 64 302.93 64C305.14 64 306.93 65.79 306.93 68C306.93 70.21 308.72 72 310.93 72C313.14 72 314.93 70.21 314.93 68C314.93 65.79 316.72 64 318.93 64C321.14 64 322.93 65.79 322.93 68L322.93 96C322.93 100.42 319.35 104 314.93 104Z" />
		</g>
		<g id="Layer">
			<path id="Layer" class="shp1" d="M298.93 128L330.93 128L330.93 152L298.93 152L298.93 128Z" />
		</g>
		<g id="Layer">
			<path id="Layer" class="shp3" d="M322.93 104L330.93 104L330.93 128L322.93 128L322.93 104Z" />
		</g>
		<g id="Layer">
			<path id="Layer" class="shp3" d="M306.93 104L314.93 104L314.93 128L306.93 128L306.93 104Z" />
		</g>
		<g id="Layer">
			<path id="Layer" class="shp4" d="M330.93 104L322.93 104C318.51 104 314.93 100.42 314.93 96L314.93 68C314.93 65.79 316.72 64 318.93 64C321.14 64 322.93 65.79 322.93 68C322.93 70.21 324.72 72 326.93 72C329.14 72 330.93 70.21 330.93 68C330.93 65.79 332.72 64 334.93 64C337.14 64 338.93 65.79 338.93 68L338.93 96C338.93 100.42 335.35 104 330.93 104Z" />
		</g>
		<g id="Layer">
			<path id="Layer" class="shp5" d="M226.93 208L210.93 208C206.51 208 202.93 204.42 202.93 200L202.93 144L226.93 144L226.93 208Z" />
		</g>
		<g id="Layer">
			<path id="Layer" class="shp6" d="M346.93 192L346.93 360L351.08 360C353.17 360 354.89 358.44 355.2 356.37C356.95 344.84 366.91 336 378.93 336C390.95 336 400.9 344.84 402.65 356.37C402.97 358.44 404.68 360 406.77 360C409.07 360 410.93 358.14 410.93 355.85L410.93 192L346.93 192Z" />
		</g>
		<g id="Layer">
			<path id="Layer" class="shp7" d="M162.93 296L218.93 296L218.93 232L162.93 232C158.51 232 154.93 235.58 154.93 240L154.93 288C154.93 292.42 158.51 296 162.93 296Z" />
		</g>
		<g id="Layer">
			<path id="Layer" class="shp3" d="M138.93 248L154.93 248L154.93 280L138.93 280L138.93 248Z" />
		</g>
		<g id="Layer">
			<path id="Layer" class="shp8" d="M122.93 232C131.76 232 138.93 239.16 138.93 248L138.93 280L122.93 280L122.93 232Z" />
		</g>
		<g id="Layer">
			<path id="Layer" class="shp8" d="M346.93 320L218.93 320L218.93 192C218.93 174.33 233.25 160 250.93 160L346.93 160L346.93 320Z" />
		</g>
		<g id="Layer">
			<path id="Layer" class="shp9" d="M346.93 160L330.93 160C313.25 160 298.93 174.33 298.93 192C298.93 196.42 295.35 200 290.93 200L218.93 200C214.51 200 210.93 196.42 210.93 192C210.93 169.91 228.84 152 250.93 152L346.93 152L346.93 160Z" />
		</g>
		<g id="Layer">
			<path id="Layer" class="shp8" d="M346.93 32L346.93 48L334.93 48C332.72 48 330.93 49.79 330.93 52C330.93 58.63 336.3 64 342.93 64L346.93 64C346.93 72.84 354.09 80 362.93 80L362.93 96L394.93 96L394.93 32L346.93 32Z" />
		</g>
		<g id="Layer">
			<path id="Layer" class="shp3" d="M378.93 16L346.93 16C342.51 16 338.93 19.58 338.93 24C338.93 28.42 342.51 32 346.93 32L378.93 32L378.93 64C378.93 72.84 386.09 80 394.93 80L394.93 32C394.93 23.16 387.76 16 378.93 16Z" />
		</g>
		<g id="Layer">
			<path id="Layer" class="shp10" d="M402.93 96L354.93 96C350.51 96 346.93 99.58 346.93 104L346.93 160C329.25 160 314.93 174.33 314.93 192C314.93 209.67 329.25 224 346.93 224L378.93 224C396.6 224 410.93 209.67 410.93 192L410.93 104C410.93 99.58 407.35 96 402.93 96Z" />
		</g>
		<g id="Layer">
			<path id="Layer" class="shp3" d="M258.93 176L210.93 176C202.09 176 194.93 168.84 194.93 160L194.93 88C194.93 74.75 205.67 64 218.93 64L234.93 64C248.18 64 258.93 74.75 258.93 88L258.93 176Z" />
		</g>
		<path id="Layer" class="shp5" d="M298.93 96C298.93 69.49 277.44 48 250.93 48L226.93 48C209.25 48 194.93 62.33 194.93 80L194.93 87.95C194.93 83.56 198.48 79.99 202.88 79.98L242.81 80C247.27 80.01 250.88 83.61 250.89 88.07L250.91 103.9C250.92 108.37 247.29 112 242.82 112L242.93 120C242.93 124.42 246.51 128 250.93 128L250.93 200C250.93 204.42 254.51 208 258.93 208L274.93 208C279.35 208 282.93 204.42 282.93 200L282.93 152L298.93 152L298.93 96Z" />
		<g id="Layer">
			<path id="Layer" class="shp11" d="M258.93 144L250.93 144L250.93 128C250.93 119.16 258.09 112 266.93 112L274.93 112L274.93 128C274.93 136.84 267.76 144 258.93 144Z" />
		</g>
		<g id="Layer">
			<path id="Layer" class="shp8" d="M218.93 320L188.58 350.34C187.52 351.4 186.93 352.84 186.93 354.34C186.93 357.47 189.46 360 192.58 360L346.93 360L346.93 320L218.93 320Z" />
		</g>
		<g id="Layer">
			<path id="Layer" class="shp9" d="M218.93 296L346.93 296L346.93 320L218.93 320L218.93 296Z" />
		</g>
		<g id="Layer">
			<path id="Layer" class="shp12" d="M170.93 372C168.72 372 166.93 370.21 166.93 368L166.93 144C166.93 141.79 168.72 140 170.93 140C173.14 140 174.93 141.79 174.93 144L174.93 368C174.93 370.21 173.14 372 170.93 372Z" />
		</g>
		<path id="Layer" class="shp13" d="M146.93 340C131.49 340 118.93 327.44 118.93 312L118.93 200C118.93 184.56 131.49 172 146.93 172C162.37 172 174.93 159.44 174.93 144C174.93 141.79 173.14 140 170.93 140C168.72 140 166.93 141.79 166.93 144C166.93 155.03 157.95 164 146.93 164C127.08 164 110.93 180.15 110.93 200L110.93 312C110.93 331.85 127.08 348 146.93 348C157.95 348 166.93 356.97 166.93 368C166.93 370.21 168.72 372 170.93 372C173.14 372 174.93 370.21 174.93 368C174.93 352.56 162.37 340 146.93 340Z" />
		<g id="Layer">
			<path id="Layer" class="shp9" d="M118.93 288L110.93 288C108.72 288 106.93 286.21 106.93 284L106.93 228C106.93 225.79 108.72 224 110.93 224L118.93 224C121.14 224 122.93 225.79 122.93 228L122.93 284C122.93 286.21 121.14 288 118.93 288Z" />
		</g>
		<g id="Layer">
			<path id="Layer" class="shp3" d="M104.26 232C117.52 232 128.26 242.75 128.26 256C128.26 269.25 117.51 280 104.26 280C99.84 280 96.26 276.42 96.26 272L96.26 240C96.26 235.58 99.84 232 104.26 232L104.26 232Z" />
		</g>
	</g>
</svg>