<svg height="512pt" viewBox="0 0 512 512" width="512pt" xmlns="http://www.w3.org/2000/svg"><path d="m507.144531 331.371094-94.542969-227.492188c-25.839843-60.984375-86.304687-103.878906-156.601562-103.878906s-130.761719 42.894531-156.601562 103.878906l-94.542969 227.492188c-3.125 7.394531-4.855469 15.523437-4.855469 24.058594 0 34.136718 27.671875 61.8125 61.8125 61.8125l194.1875 79.304687 194.1875-79.304687c34.140625 0 61.8125-27.675782 61.8125-61.8125 0-8.535157-1.730469-16.664063-4.855469-24.058594zm0 0" fill="#00b2ff"/><path d="m478.679688 343.410156-94.578126-227.570312h-128.101562l167.527344 270.496094h26.660156c17.042969 0 30.90625-13.863282 30.90625-30.90625 0-4.1875-.8125-8.230469-2.414062-12.019532zm0 0" fill="#000fb3"/><path d="m448.105469 343.410156-81.589844-227.570312-238.617187-.003906-94.578126 227.574218c-1.601562 3.789063-2.414062 7.835938-2.414062 12.019532 0 17.042968 13.863281 30.90625 30.90625 30.90625h361.714844c14.703125 0 26.660156-13.863282 26.660156-30.90625 0-4.1875-.699219-8.230469-2.082031-12.019532zm0 0" fill="#0045cc"/><path d="m61.8125 417.242188c-33.996094 0-61.8125 27.796874-61.8125 61.792968v32.964844h86.019531l61.8125-47.386719-61.8125-47.371093zm0 0" fill="#007ce6"/><path d="m450.1875 417.222656h-30.902344l61.808594 94.777344h30.90625v-32.972656c0-34-27.816406-61.804688-61.8125-61.804688zm0 0" fill="#0045cc"/><path d="m425.742188 417.242188-61.574219 47.371093 61.8125 47.386719h55.113281v-32.964844c0-31.816406-24.363281-58.539062-55.351562-61.792968zm0 0" fill="#007ce6"/><path d="m395.074219 417.242188-30.90625 47.371093 30.90625 47.386719h30.90625v-94.757812zm0 0" fill="#fcd10f"/><path d="m86.019531 417.242188h309.054688v94.757812h-309.054688zm0 0" fill="#ffe73d"/><path d="m395.074219 169.980469h-139.074219v82.414062h139.074219c22.757812 0 41.207031-18.449219 41.207031-41.207031v-82.414062c-22.757812 0-41.207031 18.449218-41.207031 41.207031zm0 0" fill="#ff7240"/><path d="m116.925781 169.980469c0-22.757813-18.449219-41.207031-41.207031-41.207031v82.414062c0 22.757812 18.449219 41.207031 41.207031 41.207031h139.074219v-82.414062zm0 0" fill="#ff9570"/><path d="m256 30.90625 108.167969 242.089844 30.90625-77.261719v-25.753906c0-76.808594-62.265625-139.074219-139.074219-139.074219zm0 0" fill="#ff9570"/><path d="m256 30.90625c-76.808594 0-139.074219 62.265625-139.074219 139.074219v25.753906l15.453125 92.714844h247.242188l-15.453125-61.808594v-56.660156c0-76.808594-48.429688-139.074219-108.167969-139.074219zm0 0" fill="#ffb9a0"/><path d="m364.167969 226.640625v46.355469l-108.167969 239.003906c76.808594 0 139.074219-62.265625 139.074219-139.074219v-177.191406c-16.996094 0-30.90625 13.90625-30.90625 30.90625zm0 0" fill="#e3e3e3"/><path d="m286.90625 242.09375h-61.8125c-17.066406 0-30.90625 13.835938-30.90625 30.902344h-46.355469v-46.355469c0-17-13.910156-30.90625-30.90625-30.90625v177.191406c0 76.808594 62.265625 139.074219 139.074219 139.074219 59.738281 0 108.167969-62.265625 108.167969-139.074219v-99.929687h-46.355469c0-17.066406-13.839844-30.902344-30.90625-30.902344zm0 0" fill="#fff"/><path d="m302.359375 216.851562c-4.269531 0-7.726563-3.457031-7.726563-7.726562v-8.238281c0-4.269531 3.457032-7.726563 7.726563-7.726563h30.902344c4.269531 0 7.726562 3.457032 7.726562 7.726563 0 4.265625-3.457031 7.726562-7.726562 7.726562h-23.175781v.511719c0 4.269531-3.460938 7.726562-7.726563 7.726562zm0 0" fill="#242424"/><path d="m209.640625 216.851562c-4.265625 0-7.726563-3.457031-7.726563-7.726562v-.511719h-23.179687c-4.265625 0-7.726563-3.460937-7.726563-7.726562 0-4.269531 3.460938-7.726563 7.726563-7.726563h30.90625c4.265625 0 7.726563 3.457032 7.726563 7.726563v8.238281c0 4.269531-3.460938 7.726562-7.726563 7.726562zm0 0" fill="#242424"/><path d="m178.738281 139.074219c-17.070312 0-30.90625 13.835937-30.90625 30.90625h61.808594c17.070313 0 30.90625-13.839844 30.90625-30.90625zm0 0" fill="#fff"/><path d="m333.261719 139.074219h-30.902344l30.902344 30.90625h30.90625c0-17.070313-13.835938-30.90625-30.90625-30.90625zm0 0" fill="#e3e3e3"/><path d="m302.359375 139.074219h-30.90625c0 17.066406 13.835937 30.90625 30.90625 30.90625h30.902344c0-17.070313-13.835938-30.90625-30.902344-30.90625zm0 0" fill="#fff"/><path d="m286.90625 281.082031h-61.8125c-4.265625 0-7.726562-3.457031-7.726562-7.726562 0-4.265625 3.460937-7.726563 7.726562-7.726563h61.8125c4.265625 0 7.726562 3.460938 7.726562 7.726563 0 4.269531-3.460937 7.726562-7.726562 7.726562zm0 0" fill="#f25031"/></svg>