<svg height="463pt" viewBox="-64 0 463 463.6" width="463pt" xmlns="http://www.w3.org/2000/svg"><path d="m266.300781 372.402344h-197.601562c-8.394531 0-15.199219-6.808594-15.199219-15.203125 0-8.390625 6.804688-15.199219 15.199219-15.199219h197.601562c8.390625 0 15.199219 6.808594 15.199219 15.199219 0 8.394531-6.808594 15.203125-15.199219 15.203125zm0 0" fill="#995d72"/><path d="m266.300781 425.601562h-197.601562c-8.394531 0-15.199219-6.804687-15.199219-15.199218 0-8.394532 6.804688-15.203125 15.199219-15.203125h197.601562c8.390625 0 15.199219 6.808593 15.199219 15.203125 0 8.394531-6.808594 15.199218-15.199219 15.199218zm0 0" fill="#995d72"/><path d="m152.300781 342v106.398438c0 8.398437 6.804688 15.199218 15.199219 15.199218s15.199219-6.804687 15.199219-15.199218v-106.398438zm0 0" fill="#b58c82"/><path d="m167.5 0c-71.355469 0-129.199219 57.84375-129.199219 129.199219v53.199219c0 37.777343 30.621094 68.402343 68.398438 68.402343v60.796875c0 8.394532 6.804687 15.203125 15.199219 15.203125 8.394531 0 15.199218-6.808593 15.199218-15.199219v-22.800781c0-4.195312 3.402344-7.601562 7.601563-7.601562s7.601562 3.402343 7.601562 7.601562v22.800781c0 8.394532 6.804688 15.199219 15.199219 15.199219s15.199219-6.808593 15.199219-15.199219v-22.800781c0-4.195312 3.402343-7.601562 7.601562-7.601562 4.195313 0 7.601563 3.402343 7.601563 7.601562v22.800781c0 8.394532 6.804687 15.199219 15.199218 15.199219 8.394532 0 15.199219-6.804687 15.199219-15.199219 0-20.824218 0-42.496093 0-60.800781 37.777344 0 68.398438-30.625 68.398438-68.398437v-53.203125c0-71.355469-57.847657-129.199219-129.199219-129.199219zm0 0" fill="#b58c82"/><path d="m140.898438 159.601562c0 20.988282-17.019532 38-38 38-20.980469 0-38-17.011718-38-38 0-20.988281 17.019531-38 38-38 20.980468 0 38 17.011719 38 38zm0 0" fill="#4a363a"/><path d="m116.199219 159.601562c0 7.34375-5.957031 13.296876-13.300781 13.296876-7.347657 0-13.300782-5.953126-13.300782-13.296876 0-7.347656 5.953125-13.300781 13.300782-13.300781 7.34375 0 13.300781 5.953125 13.300781 13.300781zm0 0" fill="#ffb94a"/><path d="m270.097656 159.601562c0 20.988282-17.015625 38-38 38-20.980468 0-38-17.011718-38-38 0-20.988281 17.019532-38 38-38 20.984375 0 38 17.011719 38 38zm0 0" fill="#4a363a"/><path d="m245.398438 159.601562c0 7.34375-5.953126 13.296876-13.296876 13.296876-7.347656 0-13.300781-5.953126-13.300781-13.296876 0-7.347656 5.953125-13.300781 13.300781-13.300781 7.34375 0 13.296876 5.953125 13.296876 13.300781zm0 0" fill="#ffb94a"/><path d="m163.699219 235.601562c0 4.195313-3.402344 7.597657-7.601563 7.597657-4.195312 0-7.601562-3.402344-7.601562-7.597657v-15.199218c0-4.199219 3.402344-7.601563 7.601562-7.601563 4.199219 0 7.601563 3.402344 7.601563 7.601563zm0 0" fill="#733d5a"/><path d="m186.5 235.601562c0 4.195313-3.402344 7.597657-7.601562 7.597657-4.195313 0-7.597657-3.402344-7.597657-7.597657v-15.199218c0-4.199219 3.398438-7.601563 7.597657-7.601563 4.199218 0 7.601562 3.402344 7.601562 7.601563zm0 0" fill="#733d5a"/><path d="m82.164062 88.34375c-1.289062 0-2.597656-.328125-3.796874-1.023438-3.632813-2.101562-4.875-6.75-2.773438-10.382812 9.507812-16.429688 23.214844-30.132812 39.640625-39.636719 3.632813-2.105469 8.28125-.863281 10.386719 2.769531 2.101562 3.632813.859375 8.28125-2.769532 10.382813-14.132812 8.175781-25.921874 19.964844-34.097656 34.097656-1.410156 2.433594-3.964844 3.792969-6.589844 3.792969zm0 0" fill="#d1b4ad"/><g fill="#b58c82"><path d="m15.5 463.601562c-8.394531 0-15.199219-6.804687-15.199219-15.199218v-91.203125c0-8.390625 6.804688-15.199219 15.199219-15.199219s15.199219 6.808594 15.199219 15.199219v91.203125c0 8.394531-6.804688 15.199218-15.199219 15.199218zm0 0"/><path d="m319.5 463.601562c-8.394531 0-15.199219-6.804687-15.199219-15.199218v-91.203125c0-8.390625 6.804688-15.199219 15.199219-15.199219s15.199219 6.808594 15.199219 15.199219v91.203125c0 8.394531-6.804688 15.199218-15.199219 15.199218zm0 0"/></g></svg>