<svg height="512pt" viewBox="-8 0 512 512.0001" width="512pt" xmlns="http://www.w3.org/2000/svg"><path d="m329.601562 512c-21.121093 0-45.214843-3.652344-72.203124-13.125-31.722657-11.136719-56.675782-28.386719-74.160157-51.273438-16.210937-21.214843-25.683593-46.8125-28.160156-76.085937-3.703125-43.777344 8.523437-88.914063 20.34375-132.5625 14.746094-54.4375 24.757813-97.054687 8.777344-109.277344-13.046875-9.980469-23.523438-11.160156-38.65625-4.34375-18.964844 8.542969-35.082031 25.90625-39.570313 31.023438-22.027344 25.117187-60.246094 27.621093-85.363281 5.59375-25.117187-22.027344-27.625-60.246094-5.597656-85.363281 13.613281-15.523438 42.222656-44.167969 80.847656-61.5625 55.839844-25.152344 113.320313-18.558594 161.84375 18.558593 38.101563 29.144531 56.796875 71.160157 55.570313 124.882813-.855469 37.460937-11.136719 75.414062-21.078126 112.121094-9.082031 33.527343-18.460937 68.199218-16.566406 90.730468 2.683594 31.929688 46.933594 37 64.429688 31.878906 24.324218-7.117187 36.871094-40.988281 36.941406-41.226562 9.085938-32.148438 42.519531-50.847656 74.664062-41.753906 32.148438 9.085937 50.839844 42.515625 41.753907 74.664062-2.152344 7.613282-22.910157 75.375-87.996094 109.164063-18.027344 9.355469-43.417969 17.957031-75.820313 17.957031zm0 0" fill="#ffabcd"/><path d="m312.300781 175.203125c.511719-5.585937.847657-11.167969.972657-16.738281 1.226562-53.722656-17.46875-95.738282-55.570313-124.882813-37.933594-29.019531-81.339844-39.378906-125.15625-30.503906 9.101563 26.4375 20.097656 71.5625 12.992187 122.253906 15.136719-6.816406 25.613282-5.636719 38.660157 4.339844 8.867187 6.785156 9.730469 22.933594 6.222656 45.261719 37.996094-.003906 87.808594.148437 121.878906.269531zm0 0" fill="#ff83b4"/><path d="m340.058594 393.195312c-17.5 5.121094-61.75.050782-64.429688-31.878906 0 0-25.480468 66.382813-92.394531 86.28125 17.488281 22.886719 42.441406 40.136719 74.164063 51.277344 26.988281 9.472656 51.082031 13.125 72.203124 13.125 0 0 34.757813-42.886719 10.457032-118.804688zm0 0" fill="#ff83b4"/><path d="m260.664062 293.160156-55.152343-5.890625c-30.347657-3.242187-52.328125-30.476562-49.085938-60.828125l7.5625-70.789062c3.242188-30.351563 30.472657-52.328125 60.824219-49.085938l55.152344 5.890625c30.351562 3.242188 52.328125 30.472657 49.085937 60.824219l-7.558593 70.789062c-3.242188 30.351563-30.476563 52.328126-60.828126 49.089844zm0 0" fill="#ffd2e3"/><path d="m62.175781 109.339844c-4.269531 0-7.726562-3.457032-7.726562-7.726563v-12.824219c0-4.269531 3.457031-7.726562 7.726562-7.726562 4.265625 0 7.726563 3.457031 7.726563 7.726562v12.824219c0 4.269531-3.460938 7.726563-7.726563 7.726563zm0 0" fill="#454545"/></svg>