<svg id="Capa_1" enable-background="new 0 0 497 497" height="512" viewBox="0 0 497 497" width="512" xmlns="http://www.w3.org/2000/svg"><path d="m460.837 497h-424.674c-19.972 0-36.163-16.191-36.163-36.163 0-19.972 16.191-36.163 36.163-36.163h424.675c19.972 0 36.163 16.191 36.163 36.163-.001 19.972-16.192 36.163-36.164 36.163z" fill="#9cc042"/><path d="m460.837 424.675h-33c19.972 0 36.163 16.191 36.163 36.163 0 19.971-16.191 36.162-36.163 36.162h33c19.972 0 36.163-16.191 36.163-36.163 0-19.972-16.191-36.162-36.163-36.162z" fill="#85aa18"/><path d="m343.384 281.832v-174.106c0-1.775-.046-3.54-.131-5.294-1.804-37.272-22.551-69.567-52.82-87.477-16.05-9.497-34.773-14.955-54.775-14.955-59.495 0-107.726 48.23-107.726 107.726v30.274h71.588v-30.118c0-25.549 13.323-47.973 33.389-60.747l.592 1.159c21.244 12.514 35.5 35.625 35.5 62.064v190.73c0 28.118 22.794 51.586 50.911 51.586h13.088 80.5c-38.724.001-70.116-32.118-70.116-70.842z" fill="#ffd775"/><path d="m343.384 281.832v-174.106c0-1.775-.046-3.54-.131-5.294-1.804-37.272-22.551-69.567-52.82-87.477-16.05-9.497-34.773-14.955-54.775-14.955-5.628 0-11.154.433-16.549 1.265 13.813 2.119 26.765 6.849 38.325 13.69 30.268 17.91 51.016 50.205 52.82 87.477.085 1.754.131 3.519.131 5.294v174.106c0 38.724 31.392 70.842 70.116 70.842h33c-38.725.001-70.117-32.118-70.117-70.842z" fill="#ffcd52"/><path d="m290.434 14.955c-16.051-9.497-34.774-14.955-54.776-14.955-59.495 0-107.726 48.23-107.726 107.726v30.274h71.588v-30.118c0-25.549 13.323-47.973 33.389-60.747 11.156-7.102 24.387-11.233 38.591-11.233 37.918 0 68.965 29.325 71.754 66.53-1.804-37.272-22.552-69.567-52.82-87.477z" fill="#9cc042"/><path d="m290.434 14.955c-16.051-9.497-34.774-14.955-54.776-14.955-5.628 0-11.154.433-16.549 1.265 13.813 2.119 26.765 6.849 38.325 13.69 9.961 5.894 18.882 13.354 26.445 22.029 32.098 5.569 56.897 32.388 59.375 65.448-1.804-37.272-22.552-69.567-52.82-87.477z" fill="#85aa18"/><g fill="#ffc026"><path d="m303 100h-34v15h34c4.142 0 7.5-3.358 7.5-7.5s-3.358-7.5-7.5-7.5z"/><path d="m303 137h-34v15h34c4.142 0 7.5-3.358 7.5-7.5s-3.358-7.5-7.5-7.5z"/><path d="m303 174h-34v15h34c4.142 0 7.5-3.358 7.5-7.5s-3.358-7.5-7.5-7.5z"/><path d="m303 211h-34v15h34c4.142 0 7.5-3.358 7.5-7.5s-3.358-7.5-7.5-7.5z"/><path d="m303 248h-34v15h34c4.142 0 7.5-3.358 7.5-7.5s-3.358-7.5-7.5-7.5z"/><path d="m303 285h-34v15h34c4.142 0 7.5-3.358 7.5-7.5s-3.358-7.5-7.5-7.5z"/></g><path d="m172.218 424.675h-136.055c-19.972 0-36.163 16.19-36.163 36.162 0 19.972 16.191 36.163 36.163 36.163h201.837v-2c0-37.349-29.048-67.896-65.782-70.325z" fill="#ffd775"/><path d="m181.803 292.197-10.803-10.803v-35.894c0-4.142-3.358-7.5-7.5-7.5s-7.5 3.358-7.5 7.5v35.394l-11.053 11.053c-2.929 2.929-2.929 7.678 0 10.606 1.464 1.464 3.384 2.197 5.303 2.197s3.839-.732 5.303-2.197l7.697-7.697 7.947 7.947c1.464 1.464 3.384 2.197 5.303 2.197s3.839-.732 5.303-2.197c2.929-2.928 2.929-7.678 0-10.606z" fill="#f24954"/><path d="m418.837 425h-340.674c-19.972 0-36.163-16.191-36.163-36.163 0-19.972 16.191-36.163 36.163-36.163h340.675c19.972 0 36.163 16.191 36.163 36.163-.001 19.972-16.192 36.163-36.164 36.163z" fill="#c5e866"/><path d="m418.837 352.675h-33c19.972 0 36.163 16.191 36.163 36.163 0 19.971-16.191 36.162-36.163 36.162h33c19.972 0 36.163-16.191 36.163-36.163 0-19.972-16.191-36.162-36.163-36.162z" fill="#b2d94b"/><path d="m393 424.675c0 14.083 11.417 25.5 25.5 25.5s25.5-11.417 25.5-25.5z" fill="#6c8a13"/><path d="m322 497c0-14.083 11.417-25.5 25.5-25.5s25.5 11.417 25.5 25.5z" fill="#6c8a13"/><path d="m334 425c0-14.083-11.417-25.5-25.5-25.5s-25.5 11.417-25.5 25.5z" fill="#6c8a13"/><path d="m70 425c0-14.083 11.417-25.5 25.5-25.5s25.5 11.417 25.5 25.5z" fill="#6c8a13"/><path d="m142 352.675c0 14.083 11.417 25.5 25.5 25.5s25.5-11.417 25.5-25.5z" fill="#6c8a13"/><path d="m182.5 14.5c9.524 10.374 8.997 26.792-1.377 36.317-10.374 9.524-26.505 8.835-36.03-1.539 0 0 5.907-10.278 17.407-20.778s20-14 20-14z" fill="#6c8a13"/><path d="m89 173.5c0-33.966 33.579-51.5 75-51.5s75 17.534 75 51.5-33.579 71.5-75 71.5-75-37.534-75-71.5z" fill="#c5e866"/><path d="m145 205.5c-1.919 0-3.839-.732-5.303-2.197l-17-17c-2.929-2.929-2.929-7.678 0-10.606 2.929-2.929 7.678-2.929 10.606 0l17 17c2.929 2.929 2.929 7.678 0 10.606-1.464 1.465-3.384 2.197-5.303 2.197z" fill="#48494d"/><path d="m183 205.5c-1.919 0-3.839-.732-5.303-2.197-2.929-2.929-2.929-7.678 0-10.606l17-17c2.929-2.929 7.678-2.929 10.606 0 2.929 2.929 2.929 7.678 0 10.606l-17 17c-1.464 1.465-3.384 2.197-5.303 2.197z" fill="#48494d"/></svg>