<svg id="Capa_1" enable-background="new 0 0 64 64" height="512" viewBox="0 0 64 64" width="512" xmlns="http://www.w3.org/2000/svg"><g><path d="m49 15c-2 10-10 10-10 10 .82-5.295 2.664-10.38 5.429-14.97-3.315 1.758-7.286.576-11.429 4.97-6 5-9.615 5.121-14 7-7 3-12 7-15 15-.66 2.275-.996 4.631-1 7 0 9.941 8.059 17 18 17 8.458 0 16-5.3 18-14 1-5 1.051-8.093 8-14 20-17 9.029-17.7 14-30 0 0-10 2-12 12z" fill="#fcf05a"/><path d="m34 43c0 .498-.03.996-.09 1.49-.069.674-.2 1.34-.39 1.99-1.559 5.627-6.681 9.522-12.52 9.52-2.19 0-2.19-2.04-4-3l-3-1c0-2-3-3-4.49-2.93-2.952-5.485-1.471-12.303 3.49-16.07l3.68.74 1.32.26c.32-.108.629-.249.92-.42 1.243-.776 2.022-2.116 2.08-3.58l6-1 4 3c.205 1.021.308 2.059.31 3.1 1.746 2.263 2.692 5.042 2.69 7.9z" fill="#d3843d"/><ellipse cx="25.494" cy="36.501" fill="#66342e" rx="2.121" ry="3.536" transform="matrix(.707 -.707 .707 .707 -18.343 28.718)"/><path d="m13.938 38.5h4.123v1.999h-4.123z" fill="#ad6327" transform="matrix(.97 -.242 .242 .97 -9.094 5.054)"/><path d="m15 44.438h1.999v4.123h-1.999z" fill="#ad6327" transform="matrix(.243 -.97 .97 .243 -32.992 50.744)"/><path d="m25 42.697h2v3.606h-2z" fill="#ad6327" transform="matrix(.832 -.555 .555 .832 -20.317 21.896)"/><path d="m19.501 48.92h1.999v3.162h-1.999z" fill="#ad6327" transform="matrix(.316 -.949 .949 .316 -33.892 53.979)"/><path d="m33.91 44.49c-.069.674-.2 1.34-.39 1.99l-.104.356-2.616-2.616-1.35.67-.9-1.78 1.23-.62-.73-2.17 1.9-.64.92 2.78z" fill="#ad6327"/><path d="m20.83 36.45-1.66 1.1-1.42-2.12-3.15 2.37-1.2-1.6 3.28-2.46 1.32.26c.32-.108.629-.249.92-.42z" fill="#ad6327"/><path d="m19 42h2v2h-2z" fill="#ad6327"/><path d="m21 40h2v2h-2z" fill="#ad6327"/><path d="m13.8 30.6-1.619-1.174c.212-.3 2.375-3.038 12.5-6.372 6.645-1.9 11.5-7.633 11.544-7.691l1.537 1.282c-.213.254-5.281 6.259-12.495 8.321-9.414 3.097-11.445 5.605-11.467 5.634z" fill="#e97424"/><path d="m37.979 39.207-1.959-.4c.043-.22 1.2-5.476 11.407-12.623 4-3 6.573-7.722 6.573-9.181h2c0 2.428-3.232 7.675-7.4 10.8-9.459 6.619-10.611 11.357-10.621 11.404z" fill="#e97424"/><path d="m52 13h2v2h-2z" fill="#66342e"/><path d="m31.6 28.8-1.2-1.6c.039-.028 3.764-2.852 4.653-5.516l1.9.632c-1.091 3.259-5.18 6.354-5.353 6.484z" fill="#e97424"/><path d="m35.707 33.707-1.414-1.414.707.707-.709-.7c1.886-2.125 3.173-4.714 3.729-7.5l1.96.392c-.622 3.175-2.099 6.119-4.273 8.515z" fill="#e97424"/><path d="m55 10h2v2h-2z" fill="#66342e"/><path d="m25 10-.75 3.01-.25.99-1.11.56-2.89 1.44-4-3 3-4z" fill="#d3843d"/><path d="m24.25 13.01-.25.99-1.11.56-3.34-1.67.9-1.78z" fill="#66342e"/><path d="m32 5-2 3 3 1 3-2z" fill="#d3843d"/><path d="m58 37-4 2-4-3 3-3h4z" fill="#d3843d"/><g fill="#66342e"><path d="m55.83 35.45-1.66 1.1-1.89-2.83.72-.72h1.2z"/><path d="m46 38h2v2h-2z"/><path d="m57 27h2v2h-2z"/><path d="m39 3h2v2h-2z"/><path d="m23 4h2v2h-2z"/><path d="m47 5h2v2h-2z"/><ellipse cx="14" cy="43" rx="2" ry="3"/><path d="m23 47c-1.172 1.171-1.781 3.219-1 4s2.828.171 4-1 1.781-3.219 1-4-2.828-.172-4 1z"/></g></g></svg>