<svg xmlns="http://www.w3.org/2000/svg" xmlns:xlink="http://www.w3.org/1999/xlink" viewBox="0 0 365.74 307.77"><defs><style>.cls-1{fill:#bf7b37;}.cls-2{fill:#ad6a2d;}.cls-3{fill:url(#Áåçûìÿííûé_ãðàäèåíò_13);}.cls-4{fill:#6d380d;}.cls-5{fill:url(#Áåçûìÿííûé_ãðàäèåíò_13-2);}.cls-6{fill:#7a3e11;}.cls-7{fill:#f2f3f2;}.cls-8{fill:url(#Áåçûìÿííûé_ãðàäèåíò_16);}.cls-9{fill:url(#Áåçûìÿííûé_ãðàäèåíò_16-2);}.cls-10{fill:url(#Áåçûìÿííûé_ãðàäèåíò_16-3);}</style><linearGradient id="Áåçûìÿííûé_ãðàäèåíò_13" x1="138.48" y1="254.12" x2="191.43" y2="254.12" gradientUnits="userSpaceOnUse"><stop offset="0" stop-color="#bf7b37"/><stop offset="1" stop-color="#ad6a2d"/></linearGradient><linearGradient id="Áåçûìÿííûé_ãðàäèåíò_13-2" x1="207.74" y1="249.7" x2="215.37" y2="234.72" xlink:href="#Áåçûìÿííûé_ãðàäèåíò_13"/><linearGradient id="Áåçûìÿííûé_ãðàäèåíò_16" x1="257.11" y1="174.5" x2="297.73" y2="118.83" gradientUnits="userSpaceOnUse"><stop offset="0" stop-color="#7a3e11"/><stop offset="1" stop-color="#6d380d"/></linearGradient><linearGradient id="Áåçûìÿííûé_ãðàäèåíò_16-2" x1="258.87" y1="125.24" x2="271.7" y2="107.65" xlink:href="#Áåçûìÿííûé_ãðàäèåíò_16"/><linearGradient id="Áåçûìÿííûé_ãðàäèåíò_16-3" x1="259.55" y1="167.76" x2="275.81" y2="145.48" xlink:href="#Áåçûìÿííûé_ãðàäèåíò_16"/></defs><title>air_guard</title><g id="Layer_2" data-name="Layer 2"><g id="Ñëîé_2" data-name="Ñëîé 2"><path class="cls-1" d="M305,227.37s-6.16,5-21.72,7.92-21.13,1.47-21.13,1.47,7.63-15,28.18-15.26S305,227.37,305,227.37Z"/><path class="cls-2" d="M14.71,237.94A27.56,27.56,0,0,0,4.3,234.89c-6.24-.61.79,2.5,1.66,2.64s-3,0-5.46.71,5.21.24,5.21.24-1.83,3.37-1.47,4.82,10.4-3.68,10.4-3.68Z"/><path class="cls-2" d="M17.57,239.24a1.81,1.81,0,1,1-1.5-2.07A1.8,1.8,0,0,1,17.57,239.24Z"/><path class="cls-2" d="M16.72,238.36s2.34-1,13.11,4.78,37.4,21.94,71.63,17.91,42.65-6.54,42.65-6.54l2.92,4s-35.63,10.93-67.41,5.24-49.55-18.63-53-20.6a35,35,0,0,0-9.68-3.56C16,239.63,16.72,238.36,16.72,238.36Z"/><path class="cls-2" d="M182.59,256.6s-17.73,7.56-45,20.79S100.9,289.9,91.48,290s-1-2.43,7.43-4.93,10.74-7,10.74-7-4.4,6.34-26,7.05-34.61-14.41-49-15.51-21.13-.82-25.48-.37,1.14-9.73,48-11.65,77.46,3.15,96.12.25,30-7.13,30-7.13Z"/><path class="cls-3" d="M174.41,239.11s-31.11,18.78-35.22,24.65,10,8.8,28.18-1.18,24.06-18.19,24.06-18.19Z"/><path class="cls-2" d="M94.7,256.09s-19.8.81-28.29-12.93-13.74-17.37-20.2-15.35-14.55.4-15.56-.81,1.41,1.21,7.48.4S48.23,225,51.06,225a17.33,17.33,0,0,1,4.24.4s-1.42-2.83-6.06-2.22a16,16,0,0,0-6.87,2.22,11.71,11.71,0,0,1,7.68-4.44c5.25-.81,8.48-1.42,13.53,7.88s7.88,12.93,7.88,12.93Z"/><path class="cls-2" d="M78.13,250.7A96.38,96.38,0,0,1,64.93,244c-5.93-3.77-4.58,1.35,4.31,5.66s12.39,3.77,12.39,3.77Z"/><path class="cls-2" d="M72.47,195.48s19.2-18,36.64-1.42c16.44,15.62,6.73,30.51,2.69,32.13s-13.47-28.29-19.93-32.6S72.47,195.48,72.47,195.48Z"/><path class="cls-1" d="M102.37,232.25s16.47,1.28,10.41-23.37-42-25.24-50-2.06c-7.7,22.12,3.52,28.62,3.52,28.62s-1.88-24.6,14.28-32.28S111.26,208,102.37,232.25Z"/><path class="cls-4" d="M165.68,243.43s.81,17-58.19,10.91-34.75-46.59-23-49.7c11.18-3,20.34,4.58,17.37,19.66s-15.89,6.47-14.27,1.08-6.2,0,0,6.74,21.11,3.9,21-11.8c-.16-16.7-10.42-23.77-22-22.95-12.36.86-21,13.2-21.82,28.82s8.08,30.17,43.91,32.86,47.41-.53,57.11-4.84S176.18,244,176.18,244Z"/><path class="cls-4" d="M130.54,257.52s-8.14,1.89-12.69,5.3-2.84,6.06-.75,6.06,1.89-2.27,1.89-2.27,1.89,4.35-4,3.22-2.27-6.25.95-7.2-1.14.38-10,3-3.22-1.51-3.22-1.51A37.92,37.92,0,0,1,91,263.58c-6.82-1.33,5.68-6.63,5.68-6.63Z"/><path class="cls-1" d="M306.17,245.46s-3.52,2.16-11-6.94S286.66,223,286.66,223l12.47-1s10.12.59,10.12,8.51A42.47,42.47,0,0,1,306.17,245.46Z"/><path class="cls-2" d="M49.28,237.74s-5.57-2.16-7,3.42,6,1.66,7-.29A2.66,2.66,0,0,0,49.28,237.74Z"/><path class="cls-1" d="M182.63,231.48s-53,8.41-62.41,11.93-12.92,13.3,25,7.83S188.3,240.28,182.63,231.48Z"/><path class="cls-2" d="M181.26,233.63s-39.91,4.69-54,9.78,28.56,2.74,44.61-2S181.26,233.63,181.26,233.63Z"/><path class="cls-1" d="M336.79,61.07a12.81,12.81,0,0,0-11.25,10.57c-2.05,10,2.94,15.06,14,29.74S358.41,131.5,361.64,135s4.1,3.52,4.1,3.52-3.42,2.54-9.68-2.84-6.94-6.06-6.94-6.06a37.07,37.07,0,0,1,10.17,20.54c1.86,12.91-3.33,21.13-3.33,21.13l-1.76-5.87s.78,7.63-7.92,19.85-13.21,13-13.21,13-11.93-37-12.66-60.89-7.93-53.7-4-67.2S336.79,61.07,336.79,61.07Z"/><path class="cls-2" d="M280.25,89.83s-15.06,6.46-17.41,9.59,3.91.39,3.91.39-11.74,6.26-19.17,16S257.21,128,269,118.64,280.25,89.83,280.25,89.83Z"/><path class="cls-4" d="M210.21,183.35s-47,59.86-49.3,66.91,21.72,12.91,42.26.58,24.65-50.47,24.65-50.47Z"/><path class="cls-5" d="M210.21,183.35S185,213.87,182.63,231.48s20-4.7,20-4.7-3.52,11.15,0,20.54,18.68-6.85,18.68-6.85,1.05,7.75,7.05,8.52c13.11,1.66,89.31-129.62,87-150.16S210.21,183.35,210.21,183.35Z"/><path class="cls-4" d="M324.46,1.21s-3.71,8.8-2.54,12.52,9.39,4.5,12.13,6.85-5.87-17-7.24-19.18S324.46,1.21,324.46,1.21Z"/><path class="cls-6" d="M333.9,232.77s5.06,9.93,8.58,11.54,4.49.8,6.65,1.94a24.28,24.28,0,0,1,3.9,2.62l-.82.8s-1.73-1.32-5.58-1.59-7.9-1.09-9.15-2L335,244.21l-1.26.7s2,3.21,3.6,4.26,2.18,1.44,2.18,1.44l-1.24,1a13.71,13.71,0,0,1-5.73-3.34,27.6,27.6,0,0,0-5.95-4.21,17.64,17.64,0,0,0-3.09,3.51c-1.17,1.86-6.1,2.72-6.1,2.72l-1.13-1.08a26.94,26.94,0,0,0,6.13-4.2c2.16-2.25,3.77-4.15,3.77-4.15S325.49,225.68,333.9,232.77Z"/><path class="cls-2" d="M335.17,222.31s.67,18.91,2.7,22.4-4-1.78-4-1.78l1.3,3.94a3.88,3.88,0,0,1-3.53-3,34.11,34.11,0,0,0-1.12-4.14s1.69,1.78-2,4.21-3.93,1.3-3.24-1.85.3-1-2.31,0,3.16-14.38,3.73-16.74S332.62,215,335.17,222.31Z"/><path class="cls-6" d="M314.39,186s8,39.15,9.09,45.11,2.85.14,2.85.14a15.43,15.43,0,0,0,.45,5.25c.72,1.83,2.42-4.93,2.42-4.93s0,4.73,1.32,6.7,4.41-10.4,4.41-10.4a11.11,11.11,0,0,0,1,5.58c1.37,2.72,1.18-6.15,1.69-13.56s1.6-36.82,1.4-43.61S316.29,172.78,314.39,186Z"/><path class="cls-4" d="M274.19,229.13a62.19,62.19,0,0,0,27.58-13.89,93.42,93.42,0,0,0,19-24.46s-1.76,10.57,7.63,10.57,16.82-34.44,16.82-34.44,3,4.54,5.14-2.2c3.67-11.73.14-25.82-3.67-35.51S327.3,93.55,320,83.57s-25.54-11.15-32-12.32-13.5,33.16-29.35,61.33S239.85,167.21,239,167.79,246.31,226.49,274.19,229.13Z"/><path class="cls-2" d="M350.29,57.94s-2.94,0-11.35,3.33-12.32,7-13.3,6.46,5.87-5.87,5.87-5.87a10.32,10.32,0,0,0-7.63,6.26c-2.55,5.67-.39,13.69,6.06,29.54s8,25.82,4.89,25.63-11.34-28.76-11.34-28.76,1,6.06-.39,8.8-3.53-2-3.72-8.61-.78-11.54-.78-11.54-2.35,17.61-5.29,22.69-5.67,2.16-3.52-9.19.2-9.59.2-9.59-2.35,12.72-3.33,16.63-3.32,3.13-4.11-3.13a53,53,0,0,0-1.76-9.19s-1.41,14.72-1.8,16.68-6.9-5.29-6-24.7c.29-6.56.19-10.57.19-10.57a38.79,38.79,0,0,1-5.28,10.37c-3.52,4.7-4.11,2-3.52-1.56s1-4.9,1-4.9-1.18,3.53-3.92,4.11,1.37-2.54,3.72-11.15,10.57-37.76,14.67-44.8,23.87,9.39,33.46,15.85S352.25,48,350.29,57.94Z"/><path class="cls-4" d="M302.34,28.31s-2.63,6.75,5.06,14.63,13.32,6.75,13.32,6.75a16.67,16.67,0,0,0,13.69,3.37c8.43-1.5,10.68-6.75,10.68-6.75S329,26.06,320.72,23.06,303.46,22.12,302.34,28.31Z"/><path class="cls-2" d="M308.81,17.45s9.2,6.84,22.31,21.32,27.78,14.09,28.56,14.28-7.63-6.45-9.78-11.93-12.72-21.13-20.35-25-23.48-2.55-23.48-2.55Z"/><path class="cls-2" d="M310.57,19.4S305.68,12,298.25,8.06s-9.59-4.5-9.59-4.5a34.69,34.69,0,0,0,5.09,16c5.09,8.61,6.85,9,6.85,9s1.17,2.74,6.45-1.18a10.33,10.33,0,0,1,10.37-1.37A43.31,43.31,0,0,0,310.57,19.4Z"/><path class="cls-7" d="M321.87,32.66s-1.32-.3-1.76.29,2.5,2.64,2.5,2.64-1.32,2.35,2.93,7.34,10.27,4.25,12.91,4.25,1.18-1.46,1.18-1.46S325.39,33.83,321.87,32.66Z"/><path class="cls-6" d="M253.06,156.79s22.89,7.92,30.81,28.47a44.24,44.24,0,0,1-4.11,40.2c-2.35,3.52,1.47-.29,2.5-1.61s3.22,2.34-4.55,7.92a43.62,43.62,0,0,1-16.88,7.63c-2.34.44-3.22,2.35,4,2.2s-20,10.12-21.71,9.39-.73-3.67,2.35-5.13-4.85-1.77-12.48-2.65-15.26-9.83-15.26-9.83a9.7,9.7,0,0,0,3.09,3.82c2.49,2.05-6.9,3.91-13.5-5.92s-.2-42.6,18-59.47S253.06,156.79,253.06,156.79Z"/><path class="cls-4" d="M359.29,50.51s-23.09-29-38.74-40.3S308,9.42,308,9.42,299,.82,294.73,0s.78,12.13,16.82,21.13,28.57,23.87,38,30.13S362.81,56.77,359.29,50.51Z"/><path class="cls-4" d="M349.9,41.12a21.22,21.22,0,0,1,13.3,13.3c3.52,10.57-1,14.48-1,14.48s1.18-3.23-4.69-6.46a33.66,33.66,0,0,0-11.45-3.81s-7.33.58-10-1.47-4.41-3.23-4.41-3.23a13.07,13.07,0,0,0,11.74-1.76C349.6,48.06,349.6,43.27,349.9,41.12Z"/><path class="cls-4" d="M334.63,47.81a6.64,6.64,0,0,1-6.21-6.55,6.28,6.28,0,0,1,2.07-4l.37.45A5.77,5.77,0,0,0,329,41.31a5.41,5.41,0,0,0,1.64,4,5,5,0,0,0,5.79,1.56c1.43-.55,2.5-1.68,2.5-2.63h.59c0,1.2-1.21,2.54-2.88,3.18A5.56,5.56,0,0,1,334.63,47.81Z"/><path class="cls-4" d="M334.34,41s-2.15,3.18-2,4.55,4.3-3.57,4.3-3.57Z"/><path class="cls-2" d="M351.07,50.12A2.4,2.4,0,0,0,352.83,48C352.83,46.3,350.88,48.85,351.07,50.12Z"/><path class="cls-4" d="M315.56,238.32s4.21,10.32,7.58,12.23,4.41,1.17,6.46,2.49a8.67,8.67,0,0,1,2.35,1.84l-.88.73s-.3-.36-4.11-1-7.78-1.76-8.95-2.79l-2.35-2.05-1.32.58s1.76,3.38,3.23,4.55,2.05,1.62,2.05,1.62l-1.32.88a13.69,13.69,0,0,1-5.43-3.82,27.53,27.53,0,0,0-5.57-4.69,17.63,17.63,0,0,0-3.38,3.22c-1.32,1.77-6.31,2.21-6.31,2.21l-1-1.18a26.56,26.56,0,0,0,6.45-3.67c2.35-2.05,4-8.07,4-8.07S307.79,230.55,315.56,238.32Z"/><path class="cls-2" d="M317.72,223.85s-1.47,13.49,1.46,20,2.64,5.87-1.46,2.35-4.7-6.75-4.7-6.75.59,8.22.59,9.1-1.76.88-2.94-1.76-1.17-.3-2.93.29-1.57-1.57-1.57-1.57a1.64,1.64,0,0,1-1.17,1.76c-1.37.49-1-1.85-.1-4.3s1.66-18.63,1.66-18.63S313.31,218.37,317.72,223.85Z"/><path class="cls-4" d="M318.25,237.85s-1.5-29.27,1.21-51S314.33,159.71,311,157s-12.67.3-17.19,8.75,3,14.79,0,32.89-6,21.12-6,25.34,1.46,5.43,2,5.58-.05-2.61.46-4.22a7.2,7.2,0,0,1,.9-2.11s-2,2,.1,7.84,3.37,5.88,4.13,5.73-1-4.72-1-6.48a23.83,23.83,0,0,1,.2-3.12,26.88,26.88,0,0,0,2.21,10.11,12.54,12.54,0,0,0,7.14,7.19s-.15-3.52,2.87-8.7,5.63-9,5.63-12.12,1.36-3.82,1.56,4.88,2.11,7.14,2.11,3.92v-4.23h.35s-.15,5.54.56,7.55S318.25,237.85,318.25,237.85Z"/><path class="cls-1" d="M245,128.76s-32,39.92-46.13,59.09-1.17,26.12,7.83,10.86-2.35,4.79-9.39,19.66,5.09,13.69,16.82-18-6.26,23.48-7,31.3,10.17,11.35,32.48-36.78,34.19-85,34.19-85S261.81,102.94,245,128.76Z"/><path class="cls-1" d="M277,150.68s-11,27.58-16.92,35.41-3.13-4.5-3.13-4.5-5.87,10.76-9.78,16.43-5.73,4.11-6,3.23,2-5.14,2-5.14-6.67,11.3-10.49,16.22-6.53,3.52-6.53,3.52,22.23-45.41,33.68-61S279.27,141.19,277,150.68Z"/><path class="cls-8" d="M277,150.68s33.77,19.68,38.69-4.45c5.87-28.76-31.84-70.29-79.38,2.2s-15.36,30.13-5.67,15.75,14.67-20.55,14.67-20.55-13.79,21.43-20.25,38.15,23.18-24.94,27.29-35.51-13.79,28.18-17.9,36.69.88,8.51,20.25-14.09S278.2,138.64,277,150.68Z"/><path class="cls-9" d="M280.45,111s-10.76-3.52-25.24,7.44-10.37,16-4.11,11.34S274.58,111.74,280.45,111Z"/><path class="cls-10" d="M277.71,151.65s.88-7.63-8.22,9.1-15,20.25-20,19.08,13.5-27.29,20.84-33.16S281.82,142.26,277.71,151.65Z"/><path class="cls-1" d="M323.49,94.53s8.21,18.78,7.63,25.43-6.07-5.87-6.85-11.54S324.07,96.29,323.49,94.53Z"/><path class="cls-1" d="M295.32,68.08s-5.91,7.81-6.95,16.85,4.36,10.78,5.25,2.9S295.32,68.08,295.32,68.08Z"/><path class="cls-1" d="M338.75,119.07s-.79,7.39,2.06,13.68,7.05,5.32,4.55-.15S338.75,119.07,338.75,119.07Z"/><path class="cls-1" d="M280.25,178.26s5.09,3.72,7.43,13.11-1.17,14.48-1.17,14.48S289.25,195.09,280.25,178.26Z"/><path class="cls-4" d="M188.1,232.45a1.37,1.37,0,1,1-1.37-1.37A1.37,1.37,0,0,1,188.1,232.45Z"/><path class="cls-2" d="M297.86,242.63s-4.94-1.49-21.14-1.71-19.62-.64-19.83-2.56-9.59,2.14-12.15,5.12S242.4,248,237.07,249s-4.27-2.13-4.27-2.13-2.13,2.56-.64,5.12,8.53,1.7,13-1.07.85,1.49-2.56,3.84-3,7.67,8.95,1.92,22.81-1.71,32.4-1.5S297.86,242.63,297.86,242.63Z"/><circle class="cls-4" cx="207.67" cy="245.76" r="1.96"/><path class="cls-4" d="M212.56,227.07a1.18,1.18,0,1,1-1.17-1.17A1.18,1.18,0,0,1,212.56,227.07Z"/><path class="cls-1" d="M291,246.44c.39,0,8.6-3.67,13-1s4.41,8.27,4.31,9.05.79.88.1,1.37-4.4,1.47-8.31,1.27S291,246.44,291,246.44Z"/><path class="cls-2" d="M282.4,250.55s9.1-4.69,15.26-2.35,6.26,6.75,5.87,7.34.51.81.88,1,.59,1.25-2.46,1.54a41,41,0,0,1-14.85-2.43A7.55,7.55,0,0,1,282.4,250.55Z"/><path class="cls-1" d="M278.59,246.15a39.47,39.47,0,0,0-12,4.4c-5.29,3.23-5.87,6.46-7.34,6.46s4.69-.3,8.51-1.76-.88,2.64-3.23,3.52,5.87,3.23,14.67-2.94,14.38-9.39,19.08-10.27,6.46.59,6.46.59-5.58-4.4-11.16-4S278.59,246.15,278.59,246.15Z"/><path class="cls-1" d="M278,256.42s9.1,4.11,16.14,3.52,3.82-2.05,3.82-2.05.88-3.23-5.29-6.17-13.79.3-13.79.3Z"/><path class="cls-4" d="M265,236.07a29.5,29.5,0,0,0-15.65,5.19c-8,5.38-14.28,5.57-14.28,5.57s2.44-5.57,13.2-11.25S265,236.07,265,236.07Z"/><path class="cls-4" d="M293.16,252.12s1.86-1.08,4,1.27a5.6,5.6,0,0,1,1.27,5.18s-1.17-3.13-3-4.3A5.59,5.59,0,0,1,293.16,252.12Z"/><path class="cls-4" d="M300.11,249.77a3.7,3.7,0,0,1,4.11,1.66,5.47,5.47,0,0,1,.19,5.1l-1-.6S303.73,251.33,300.11,249.77Z"/><path class="cls-4" d="M308.32,254.46a4,4,0,0,0,.35-2.81,5.53,5.53,0,0,0-1.91-3.15S308.5,252.07,308.32,254.46Z"/><path class="cls-1" d="M175.29,290.17c-15.55,13.79-25.82,13.2-25.82,13.2s1.76-2.64,7.63-5.87,10.56-6.75-8.22,1.18-30.52,9.39-44,7.92A91.37,91.37,0,0,0,79,307.77s-7.93-6.74,38.44-13.2S183.8,257.3,183.8,257.3s10.66-1.86,14.87-4.16,5.92-3.32,5.92-3.32l3.27.09S190.84,276.37,175.29,290.17Z"/><path class="cls-1" d="M322.21,11.48A19.43,19.43,0,0,0,317.81,5C315.07,2.68,312.82,6.69,322.21,11.48Z"/><path class="cls-1" d="M319.09,103.43a56.84,56.84,0,0,1,1.37,13.6c-.3,6.65-6.36,7.43-6.46,1.17s3.52-16,3.52-16l1.18.1Z"/><path class="cls-1" d="M285.78,89s-3.33,5.43-3.28,9.29,2,3.48,2.84.49,1.08-9.92,1.08-9.92Z"/></g></g></svg>