<svg xmlns="http://www.w3.org/2000/svg" xmlns:xlink="http://www.w3.org/1999/xlink" viewBox="0 0 285.85 266.09"><defs><style>.cls-1{fill:none;}.cls-2{fill:#ffcfcf;}.cls-3{fill:#938a89;}.cls-4{fill:url(#Áåçûìÿííûé_ãðàäèåíò_80);}.cls-5{fill:url(#Áåçûìÿííûé_ãðàäèåíò_80-2);}.cls-6{fill:url(#Áåçûìÿííûé_ãðàäèåíò_80-3);}.cls-7{fill:url(#Áåçûìÿííûé_ãðàäèåíò_80-4);}.cls-8{fill:url(#Áåçûìÿííûé_ãðàäèåíò_92);}.cls-9{fill:url(#Áåçûìÿííûé_ãðàäèåíò_80-5);}.cls-10{fill:url(#Áåçûìÿííûé_ãðàäèåíò_92-2);}.cls-11{fill:url(#Áåçûìÿííûé_ãðàäèåíò_92-3);}.cls-12{fill:url(#Áåçûìÿííûé_ãðàäèåíò_92-4);}.cls-13{fill:#b56dcc;}.cls-14{fill:url(#Áåçûìÿííûé_ãðàäèåíò_92-5);}.cls-15{fill:url(#Áåçûìÿííûé_ãðàäèåíò_92-6);}.cls-16{fill:url(#Áåçûìÿííûé_ãðàäèåíò_92-7);}.cls-17{fill:#343440;}.cls-18{fill:#f5ebe9;}.cls-19{fill:url(#Áåçûìÿííûé_ãðàäèåíò_92-8);}.cls-20{fill:url(#Áåçûìÿííûé_ãðàäèåíò_92-9);}.cls-21{fill:url(#Áåçûìÿííûé_ãðàäèåíò_80-6);}.cls-22{fill:url(#Áåçûìÿííûé_ãðàäèåíò_21);}.cls-23{fill:url(#Áåçûìÿííûé_ãðàäèåíò_80-7);}.cls-24{fill:url(#Áåçûìÿííûé_ãðàäèåíò_80-8);}.cls-25{fill:url(#Áåçûìÿííûé_ãðàäèåíò_80-9);}.cls-26{fill:url(#Áåçûìÿííûé_ãðàäèåíò_80-10);}.cls-27{fill:url(#Áåçûìÿííûé_ãðàäèåíò_80-11);}.cls-28{fill:url(#Áåçûìÿííûé_ãðàäèåíò_80-12);}.cls-29{fill:url(#Áåçûìÿííûé_ãðàäèåíò_80-13);}.cls-30{fill:url(#Áåçûìÿííûé_ãðàäèåíò_80-14);}.cls-31{fill:url(#Áåçûìÿííûé_ãðàäèåíò_80-15);}.cls-32{fill:url(#Áåçûìÿííûé_ãðàäèåíò_80-16);}.cls-33{fill:url(#Áåçûìÿííûé_ãðàäèåíò_80-17);}.cls-34{fill:url(#Áåçûìÿííûé_ãðàäèåíò_80-18);}.cls-35{fill:url(#Áåçûìÿííûé_ãðàäèåíò_80-19);}.cls-36{fill:url(#Áåçûìÿííûé_ãðàäèåíò_80-20);}.cls-37{fill:url(#Áåçûìÿííûé_ãðàäèåíò_80-21);}.cls-38{fill:url(#Áåçûìÿííûé_ãðàäèåíò_80-22);}.cls-39{fill:url(#Áåçûìÿííûé_ãðàäèåíò_80-23);}.cls-40{fill:url(#Áåçûìÿííûé_ãðàäèåíò_80-24);}.cls-41{fill:url(#Áåçûìÿííûé_ãðàäèåíò_80-25);}.cls-42{fill:url(#Áåçûìÿííûé_ãðàäèåíò_71);}.cls-43{fill:#fff;}.cls-44{fill:url(#Áåçûìÿííûé_ãðàäèåíò_80-26);}.cls-45{clip-path:url(#clip-path);}.cls-46{fill:url(#Áåçûìÿííûé_ãðàäèåíò_80-27);}.cls-47{fill:url(#Áåçûìÿííûé_ãðàäèåíò_80-28);}.cls-48{fill:url(#Áåçûìÿííûé_ãðàäèåíò_80-29);}.cls-49{fill:url(#Áåçûìÿííûé_ãðàäèåíò_80-30);}</style><linearGradient id="Áåçûìÿííûé_ãðàäèåíò_80" x1="103.47" y1="11.03" x2="104.09" y2="37.01" gradientUnits="userSpaceOnUse"><stop offset="0" stop-color="#f5ebe9"/><stop offset="0.16" stop-color="#e8ddd9"/><stop offset="0.62" stop-color="#e8ddd9"/><stop offset="0.98" stop-color="#a49a99"/></linearGradient><linearGradient id="Áåçûìÿííûé_ãðàäèåíò_80-2" x1="150.5" y1="2.18" x2="118.44" y2="83.14" xlink:href="#Áåçûìÿííûé_ãðàäèåíò_80"/><linearGradient id="Áåçûìÿííûé_ãðàäèåíò_80-3" x1="83.64" y1="87.81" x2="120.09" y2="68.94" xlink:href="#Áåçûìÿííûé_ãðàäèåíò_80"/><linearGradient id="Áåçûìÿííûé_ãðàäèåíò_80-4" x1="-783.99" y1="190.82" x2="-747.54" y2="171.95" gradientTransform="matrix(-0.94, 0.34, 0.34, 0.94, -516.2, 135.44)" xlink:href="#Áåçûìÿííûé_ãðàäèåíò_80"/><linearGradient id="Áåçûìÿííûé_ãðàäèåíò_92" x1="128.32" y1="240.86" x2="120.07" y2="245.23" gradientUnits="userSpaceOnUse"><stop offset="0" stop-color="#f5ebe9"/><stop offset="0.16" stop-color="#e8ddd9"/><stop offset="0.62" stop-color="#e8ddd9"/><stop offset="1" stop-color="#d0c6c3"/></linearGradient><linearGradient id="Áåçûìÿííûé_ãðàäèåíò_80-5" x1="214.01" y1="216.65" x2="204.68" y2="256.6" xlink:href="#Áåçûìÿííûé_ãðàäèåíò_80"/><linearGradient id="Áåçûìÿííûé_ãðàäèåíò_92-2" x1="203.74" y1="216.87" x2="188.91" y2="252.99" xlink:href="#Áåçûìÿííûé_ãðàäèåíò_92"/><linearGradient id="Áåçûìÿííûé_ãðàäèåíò_92-3" x1="179.54" y1="207.19" x2="177.63" y2="248.72" xlink:href="#Áåçûìÿííûé_ãðàäèåíò_92"/><linearGradient id="Áåçûìÿííûé_ãðàäèåíò_92-4" x1="215.65" y1="231.44" x2="181.57" y2="239.24" xlink:href="#Áåçûìÿííûé_ãðàäèåíò_92"/><linearGradient id="Áåçûìÿííûé_ãðàäèåíò_92-5" x1="78.61" y1="85.71" x2="115.21" y2="253.63" xlink:href="#Áåçûìÿííûé_ãðàäèåíò_92"/><linearGradient id="Áåçûìÿííûé_ãðàäèåíò_92-6" x1="-10.64" y1="225.7" x2="29.18" y2="227.86" xlink:href="#Áåçûìÿííûé_ãðàäèåíò_92"/><linearGradient id="Áåçûìÿííûé_ãðàäèåíò_92-7" x1="34.47" y1="86.84" x2="78.96" y2="292.07" xlink:href="#Áåçûìÿííûé_ãðàäèåíò_92"/><linearGradient id="Áåçûìÿííûé_ãðàäèåíò_92-8" x1="156.69" y1="44.29" x2="149.28" y2="133.27" xlink:href="#Áåçûìÿííûé_ãðàäèåíò_92"/><linearGradient id="Áåçûìÿííûé_ãðàäèåíò_92-9" x1="195.62" y1="44.99" x2="192.75" y2="106.35" xlink:href="#Áåçûìÿííûé_ãðàäèåíò_92"/><linearGradient id="Áåçûìÿííûé_ãðàäèåíò_80-6" x1="191.45" y1="110.14" x2="191.36" y2="125.92" xlink:href="#Áåçûìÿííûé_ãðàäèåíò_80"/><linearGradient id="Áåçûìÿííûé_ãðàäèåíò_21" x1="171.14" y1="244.17" x2="180.11" y2="131.87" gradientUnits="userSpaceOnUse"><stop offset="0.16" stop-color="#e8ddd9"/><stop offset="0.62" stop-color="#e8ddd9"/><stop offset="1" stop-color="#d0c6c3"/></linearGradient><linearGradient id="Áåçûìÿííûé_ãðàäèåíò_80-7" x1="177.97" y1="170.48" x2="198.75" y2="118.04" xlink:href="#Áåçûìÿííûé_ãðàäèåíò_80"/><linearGradient id="Áåçûìÿííûé_ãðàäèåíò_80-8" x1="199.13" y1="30.36" x2="199.13" y2="87.53" xlink:href="#Áåçûìÿííûé_ãðàäèåíò_80"/><linearGradient id="Áåçûìÿííûé_ãðàäèåíò_80-9" x1="225.81" y1="54.2" x2="212.54" y2="83.98" xlink:href="#Áåçûìÿííûé_ãðàäèåíò_80"/><linearGradient id="Áåçûìÿííûé_ãðàäèåíò_80-10" x1="219.25" y1="85.99" x2="219.64" y2="101.95" xlink:href="#Áåçûìÿííûé_ãðàäèåíò_80"/><linearGradient id="Áåçûìÿííûé_ãðàäèåíò_80-11" x1="291.69" y1="80.54" x2="232.53" y2="83.02" xlink:href="#Áåçûìÿííûé_ãðàäèåíò_80"/><linearGradient id="Áåçûìÿííûé_ãðàäèåíò_80-12" x1="210.26" y1="1.09" x2="226.5" y2="97.47" xlink:href="#Áåçûìÿííûé_ãðàäèåíò_80"/><linearGradient id="Áåçûìÿííûé_ãðàäèåíò_80-13" x1="995.47" y1="263.14" x2="924.07" y2="293.64" gradientTransform="matrix(0.87, -0.49, 0.49, 0.87, -719.64, 253.59)" xlink:href="#Áåçûìÿííûé_ãðàäèåíò_80"/><linearGradient id="Áåçûìÿííûé_ãðàäèåíò_80-14" x1="239.38" y1="-18.59" x2="239.74" y2="81.51" xlink:href="#Áåçûìÿííûé_ãðàäèåíò_80"/><linearGradient id="Áåçûìÿííûé_ãðàäèåíò_80-15" x1="232.36" y1="22.27" x2="205.45" y2="109.81" xlink:href="#Áåçûìÿííûé_ãðàäèåíò_80"/><linearGradient id="Áåçûìÿííûé_ãðàäèåíò_80-16" x1="138.92" y1="-9.08" x2="167.62" y2="103.22" xlink:href="#Áåçûìÿííûé_ãðàäèåíò_80"/><linearGradient id="Áåçûìÿííûé_ãðàäèåíò_80-17" x1="171.73" y1="36.27" x2="172.09" y2="94.76" xlink:href="#Áåçûìÿííûé_ãðàäèåíò_80"/><linearGradient id="Áåçûìÿííûé_ãðàäèåíò_80-18" x1="128.51" y1="-0.14" x2="99.8" y2="72.34" xlink:href="#Áåçûìÿííûé_ãðàäèåíò_80"/><linearGradient id="Áåçûìÿííûé_ãðàäèåíò_80-19" x1="126.87" y1="-0.79" x2="98.16" y2="71.69" xlink:href="#Áåçûìÿííûé_ãðàäèåíò_80"/><linearGradient id="Áåçûìÿííûé_ãðàäèåíò_80-20" x1="129.84" y1="22.02" x2="131.41" y2="87.28" xlink:href="#Áåçûìÿííûé_ãðàäèåíò_80"/><linearGradient id="Áåçûìÿííûé_ãðàäèåíò_80-21" x1="124.14" y1="-1.87" x2="95.44" y2="70.61" xlink:href="#Áåçûìÿííûé_ãðàäèåíò_80"/><linearGradient id="Áåçûìÿííûé_ãðàäèåíò_80-22" x1="155.26" y1="108.31" x2="163.39" y2="131.39" xlink:href="#Áåçûìÿííûé_ãðàäèåíò_80"/><linearGradient id="Áåçûìÿííûé_ãðàäèåíò_80-23" x1="105.97" y1="188.34" x2="103.99" y2="196.81" xlink:href="#Áåçûìÿííûé_ãðàäèåíò_80"/><linearGradient id="Áåçûìÿííûé_ãðàäèåíò_80-24" x1="201.2" y1="196.58" x2="206.33" y2="179.23" xlink:href="#Áåçûìÿííûé_ãðàäèåíò_80"/><linearGradient id="Áåçûìÿííûé_ãðàäèåíò_80-25" x1="240.36" y1="24.28" x2="213.35" y2="112.14" xlink:href="#Áåçûìÿííûé_ãðàäèåíò_80"/><linearGradient id="Áåçûìÿííûé_ãðàäèåíò_71" x1="180.82" y1="204.86" x2="181.75" y2="122.94" gradientUnits="userSpaceOnUse"><stop offset="0" stop-color="#f5ebe9"/><stop offset="1" stop-color="#e8ddd9"/></linearGradient><linearGradient id="Áåçûìÿííûé_ãðàäèåíò_80-26" x1="179.87" y1="110.79" x2="181.69" y2="186.13" xlink:href="#Áåçûìÿííûé_ãðàäèåíò_80"/><clipPath id="clip-path"><path class="cls-1" d="M164.5,150.59s-4.48,4.93-2.51,14,8.34,11.12,11.21,12.2,3.32-2.07,3.32-2.07.09,1.17,1.71,1.35,1.88-2.78,1-3.95a2.36,2.36,0,0,0-2.42-.71s.45-8.79-3.23-15.7S164.5,150.59,164.5,150.59Z"/></clipPath><linearGradient id="Áåçûìÿííûé_ãðàäèåíò_80-27" x1="190.14" y1="145.41" x2="187.4" y2="154.32" xlink:href="#Áåçûìÿííûé_ãðàäèåíò_80"/><linearGradient id="Áåçûìÿííûé_ãðàäèåíò_80-28" x1="170.49" y1="155.65" x2="165.47" y2="171.98" xlink:href="#Áåçûìÿííûé_ãðàäèåíò_80"/><linearGradient id="Áåçûìÿííûé_ãðàäèåíò_80-29" x1="211.28" y1="149.48" x2="204.17" y2="172.61" xlink:href="#Áåçûìÿííûé_ãðàäèåíò_80"/><linearGradient id="Áåçûìÿííûé_ãðàäèåíò_80-30" x1="172.08" y1="201.31" x2="163.11" y2="186.24" xlink:href="#Áåçûìÿííûé_ãðàäèåíò_80"/></defs><title>air_monster</title><g id="Layer_2" data-name="Layer 2"><g id="Ñëîé_3" data-name="Ñëîé 3"><path class="cls-2" d="M216,63.36s-8.71,16-36.86,15.89-86.68,70.22-27.07,107.52,80.75-.3,104.94,1.4S276.8,209.63,247.9,202s-53.93,11.3-61.46,12.05,47.63-4.13,69,4.24,31.78,44.23.88,47.57-25-30.87-44.85-41.23-66.56,21-106.74-6.42-15.9-83.4-1.88-101.07S82.93,127.08,82,146.35,30.44,156.69,83.65,113s81.51-58,104.5-58.1S216,63.36,216,63.36Z"/><path class="cls-3" d="M82.34,242.29s7.9-4.07,23.92-4.78,29.66,5.26,37.32,6.93,11.24.48,11.24.48-17.22-14.59-40.9-15.07S84.26,234.88,82.34,242.29Z"/><path class="cls-4" d="M106.83,36.1s.35-10.29.12-16.39-5.51-7.29-6.34,1.68,3.58,17.1,3.58,17.1Z"/><path class="cls-5" d="M118.79,74.7S115,64.21,123.63,52.1s22.43-9.87,23.51-10.41,2.06-2.6-3.86-2.24-15.34,2.24-22.07,9.6-8.16,16.77-6.81,21S118.79,74.7,118.79,74.7Z"/><path class="cls-6" d="M81.62,74.91s3.1,14.15,18.77,13.34S120.7,76.33,120.7,76.33l1.55,3S118,90.47,101.77,91.28,79.56,79.16,79.56,75.52,81.62,74.91,81.62,74.91Z"/><path class="cls-7" d="M283.35,34.59s1.91,14.35-13.09,18.93-23.17-4.27-23.17-4.27l-.42,3.38s7.84,9,23.32,4.21,16.75-19,15.5-22.39S283.35,34.59,283.35,34.59Z"/><path class="cls-8" d="M106.92,244.26s7.37-1.36,11.64.83a7,7,0,0,1,4.07,6.65c0,.6-4.37.1-5.36-.3S106.92,244.26,106.92,244.26Z"/><path class="cls-9" d="M180.8,248.75c.54.36,21.17,2.87,29.6.89s10.4-2.87,13.45-2a18.79,18.79,0,0,1,7.36,4.84c1.08,1.26-7.54,2.16-15.61,2.16s-23.86-1.8-29.06-3.23S180.8,248.75,180.8,248.75Z"/><path class="cls-10" d="M158.19,248s24.94-4.13,39.29-5.74,21.35,2,23.68,3.23,2.69,2.15,2.69,2.15-14,6.28-27.44,4.31-17.76-1.8-26.38-2.34S158.19,248,158.19,248Z"/><path class="cls-11" d="M144.74,247.13s17.22-8.25,37.13-9.51,25,1.41,27.7,2.94c5.47,3.05-6.88,1-17.47,2.45s-26.19,4.84-32.83,4.84S144.74,247.13,144.74,247.13Z"/><path class="cls-12" d="M152.09,244.44c.54-.18,20.64-9.33,32.12-9.69s18.65,4.13,18.65,4.13Z"/><path class="cls-13" d="M19.28,161.44s-4.31,11-2.39,17,19.85-18.66,32.53-21.29,19.37-7.65,19.37-7.65S37.22,137.76,19.28,161.44Z"/><path class="cls-14" d="M76.09,242.17s23-18.66,47-6.82,41.62,10.41,51.67,5S168.3,193,161.12,186.2s-50.95,3.94-65.66-8.26-25.47-16.14-42-16.5S16.17,234.63,76.09,242.17Z"/><path class="cls-15" d="M13.06,208.08S1.34,210.71.14,225.54s5.5,11,5.5,11,1,5,7.66,8.61,5-2.63,5-2.63-1.91,2.15,5.5-.24,2.4-22.25-1.91-28.94S13.06,208.08,13.06,208.08Z"/><path class="cls-16" d="M31.72,162.16c-1,.7-21.29,15.78-18.66,45.92s32.77,41.38,34.68,41.86,28.47,1.68,44.73,1.92,22.73-.48,24.64.48,2.15-3.59-5.74-6.7-17.46-4.31-21.77-3.83a21.82,21.82,0,0,1-7.65-.48s15.55-7.17,17.94-18.42-1.2-5.5-1.2-5.5-.48-25.59-10.28-42.34S55.88,144.7,31.72,162.16Z"/><path class="cls-17" d="M61.62,150.68a43.06,43.06,0,0,0-29.42,5c-15.07,8.61-15.55,18.9-15.55,18.9S12.82,158.09,24.06,148,54.2,142.54,61.62,150.68Z"/><path class="cls-18" d="M173,120.18c-2.51-14.35-17.58-44.85-25.83-56.69s-17.22-20.81-10.76,19.37S155,135.61,155,135.61,175.48,134.53,173,120.18Z"/><path class="cls-19" d="M155.2,88.78C147.85,76.22,140,61,138.52,60.08s-1.26,1.43.9,14.53,14.89,59.56,18.65,58.48,9.69-8.61,9.69-9.15C167.76,123.94,162.56,101.34,155.2,88.78Z"/><path class="cls-18" d="M204.57,52.61c-1.93-15.36-5-25.6-16.5,23.68-9.91,42.51-6.22,54.77-6.22,54.77l-5.2,4.49s19.56,15,24.33.08S206.5,68,204.57,52.61Z"/><path class="cls-20" d="M196.85,128.11s3.13-1.4,4-24.48,1.5-41.67,1.68-51c.07-3.74-1.2-9-2.55-8.7-1.73.39-8.41,28.75-11.89,44.78s-4.52,33.54-3.24,35.76S196.85,128.11,196.85,128.11Z"/><path class="cls-21" d="M184.18,123.68s1.25-.92,5.7,2.91a56.76,56.76,0,0,1,7.17,7.36s2.58-6,1-10.94-2.77-1.55-2.77-1.55a13.69,13.69,0,0,0-3-5.82c-2.3-2.45-3.47.94-3.47.94s-.28-7.52-3.78-4.74C184.13,112.52,184.18,123.68,184.18,123.68Z"/><path class="cls-22" d="M185.56,201.51c-9-18.48-26.89-24.1-27.43-24.1l-1.64,2.45c1.26,4.13,6.31,28.94,7.92,45.27s-11.48,23-5.74,21.52a31.06,31.06,0,0,0,10.24-5.19c-1.81,1.44-6.28,5.2-2.34,4.48,4.84-.9,11.48-6.82,11.48-6.82s-2.69,5.74,4.12,1.61c6.19-3.74,5.29-8.37,5.07-9.2.23.79,1.58,4.84,3.37,2.57C192.58,231.58,194.53,220,185.56,201.51Z"/><path class="cls-23" d="M205.26,99.55a4.85,4.85,0,0,0-3.41-.36,78.09,78.09,0,0,0-6.1,14.89c-2.87,9.33-3.95,12.74-3.95,12.74l6,5.86a27,27,0,0,1,.72-3.41c.54-2,8.49-27.39,8.49-27.39A4.23,4.23,0,0,0,205.26,99.55Z"/><path class="cls-24" d="M202.21,101.52a27.91,27.91,0,0,1-8.61-16c-1.8-10.4,1.07-13.27,1.07-13.27a3.77,3.77,0,0,1,2.51.89c.72.9-1.07,11.31,2.34,18.66s5.74,7.72,5.74,7.72A3,3,0,0,1,202.21,101.52Z"/><path class="cls-25" d="M202.59,98.61s7.95-10.43,9.47-15.66,6.79-4.76,3.14,2.72a135.5,135.5,0,0,1-8.82,15Z"/><path class="cls-26" d="M204.48,101.94s6.64,3.59,18.48-2,12-10,11.3-11.13-2-1.79-5,2.87-18.48,8.08-21.35,7.9A3.12,3.12,0,0,0,204.48,101.94Z"/><path class="cls-27" d="M234.68,78a17.06,17.06,0,0,0,21,4c10.89-5.26,12.59-7.78,12.94-4.37s-7.71,9.15-18.29,10-22.16-7.18-22.16-7.18Z"/><path class="cls-28" d="M229.12,82.14s6.55-7.17-.63-26-21-16.34-21.26-13.45,5.67,1.77,11,7c17,16.5,8.34,32.46,8.34,32.46Z"/><path class="cls-29" d="M249.17,39.38s8.39-.83,13.29-11.17S264,12.6,261.35,10.79s-4.74.37-.8,3.53c4.23,3.39-1.28,14.07-5.46,17.64s-5.91,4.13-5.91,4.13Z"/><path class="cls-30" d="M249.93,43.39s-10.23-9.32-17.05-16.68-2.69-10.4.36-9.51S242,26.53,245.44,33A57.75,57.75,0,0,1,249.93,43.39Z"/><path class="cls-31" d="M231.45,81.61S247.33,66.54,252.17,45s-12.47-37.5-22-42.52a22.31,22.31,0,0,0-18.48-.9s13.64-2,27.45,16.69,4.13,43.41-5.2,54-9.87,13.45-9.87,13.45Z"/><path class="cls-32" d="M179.06,124.12s.24-6.69-5.5-22-12.2-27.51-17.22-30.38-3.11,6.46.72,11.48,10,21.29,12.44,29.9,1.85,11,1.85,11Z"/><path class="cls-33" d="M167.34,93.27s7.42.48,10-9.09-1.91-12-3.11-11.72.24,3.59-.48,8.85-6.7,7.65-7.41,7.89S165.43,92.55,167.34,93.27Z"/><path class="cls-34" d="M106.59,50.3c.18-.36,4.21-13.36,12.64-20.63s4-6.64,1.44-5.83-10,8.07-12.11,13S106.59,50.3,106.59,50.3Z"/><path class="cls-35" d="M105.42,48c.09-.45.18-18,6.64-27.27s19.1-9,21.26-11.84-6.91-3.77-16.06,1.44-13.63,20.27-13.63,27.26a73.79,73.79,0,0,0,.62,10.77Z"/><path class="cls-36" d="M109.22,35.62s-6.1,13.28,1,26.07S127.76,83.34,138,85.61a33.65,33.65,0,0,0,19.38-1.91l1.91,2.87s-9.45,8.25-27.27,1.32-27.27-24.4-28.94-34.09.48-17.1,2.27-20.21S109.46,33.83,109.22,35.62Z"/><path class="cls-37" d="M106.71,25.22s1.79-10.89,14.11-19.14,9.93-4.07,5.26-1.56-14.59,13-16.38,15.79a22.12,22.12,0,0,0-2.52,5.14Z"/><path class="cls-38" d="M165.43,115.51c-1.67-3.11-2.75,5.39-2.75,5.39a6.05,6.05,0,0,0-4.19-4.31c-3.45-1.23-2.44,5.32-1.71,7.1a8.55,8.55,0,0,0-2.59-2.68c-1.68-.83-1.32,2.76-.12,6a31.34,31.34,0,0,0,2.75,5.63s7.77-7.42,11-8.14C167.82,124.48,167.1,118.62,165.43,115.51Z"/><path class="cls-17" d="M153.21,186s-14-1.37-32.13-31.11S97.16,129.55,97.84,134s14.7,21.53,25.64,32.13S143.3,186.29,153.21,186Z"/><path class="cls-17" d="M155.26,187s-5.81,4.45-23.92-2.05S79.72,147,72.54,137.75s2.4-18.12,23.25,6.49,40,32.14,40,32.14Z"/><path class="cls-17" d="M134.41,186s-21.87-2.74-57.76-25.3-42.39-22.56-56.74-21.19.34-14,23.92-11.28,50.25,23.93,66.31,35.89S134.41,186,134.41,186Z"/><path class="cls-17" d="M131.34,184.92s-3.76,3.08-14.7,2.39-11.28-7.52-6.84-9.57S131.34,184.92,131.34,184.92Z"/><path class="cls-17" d="M114.93,179.45a47.17,47.17,0,0,1-21.19,9.91c-12.31,2.06,2.39-12,7.52-15S114.93,179.45,114.93,179.45Z"/><path class="cls-17" d="M61.26,175s6.5,7.18,22.56,4.1,18.8-6.49,18.8-6.49-6.49-9.92-21.19-7.52S61.61,172.27,61.26,175Z"/><path class="cls-17" d="M38,161s1,8.89,24.61,6.16,31.79-1,31.79-1S77.67,155.87,64,154.84,36,158.26,38,161Z"/><path class="cls-17" d="M137.49,179.11s-27.35-42.39-45.12-61.87S60.58,97.07,58.53,99.47s7.86,12.64,29.74,35.2,28,32.82,37.94,38.29S137.49,179.11,137.49,179.11Z"/><path class="cls-17" d="M129.29,174.32c.34-1-24.61-39.65-54.69-50.93S39.73,119,42.47,122s27.34,16.75,44.43,30.08S129.29,174.32,129.29,174.32Z"/><path class="cls-17" d="M97.5,128.86S73.57,105.28,52.38,99.47s-25.3-2-19.83,1.71,11.28,16.75,29.74,21.87A173.9,173.9,0,0,0,97.5,128.86Z"/><path class="cls-17" d="M62.29,123.05s-10.94-10.25-27-10.25-12,7.18,5.81,11.28S62.29,123.05,62.29,123.05Z"/><path class="cls-17" d="M27.08,140.48c.35,1.71,6.5,10.94,21.54,15s23.58,2.74,23.58,2.74,1-8.2-17.09-14.7S27.08,140.48,27.08,140.48Z"/><path class="cls-17" d="M223.92,254.33a6.13,6.13,0,0,0-2.78-5.12c-3-2.11-1.84.27,0,2.07s2.07,3.05,2.07,3.05Z"/><path class="cls-17" d="M213.18,254.67a5.93,5.93,0,0,0-2-3.95c-1.85-1.49-1.49.18-.42,1.5a9.43,9.43,0,0,1,1.5,2.45Z"/><path class="cls-17" d="M113.8,251.92a5.92,5.92,0,0,0-2-3.95c-1.85-1.49-1.49.18-.41,1.5a9.55,9.55,0,0,1,1.49,2.45Z"/><path class="cls-17" d="M118.76,251.86a5.93,5.93,0,0,0-2-4c-1.86-1.49-1.5.18-.42,1.5a9.55,9.55,0,0,1,1.49,2.45Z"/><path class="cls-13" d="M59.86,165.75h4.66a.36.36,0,0,0,0-.72H59.86a.36.36,0,0,0,0,.72Z"/><path class="cls-13" d="M73.42,163.08l2-.55a.36.36,0,0,0-.19-.69l-2,.55a.36.36,0,0,0,.19.69Z"/><path class="cls-13" d="M61.46,175.31a74.28,74.28,0,0,0,37-4.73c.42-.17.24-.87-.19-.7a74,74,0,0,1-36.77,4.72c-.45-.06-.45.66,0,.71Z"/><path class="cls-13" d="M70.94,179.84a6.83,6.83,0,0,0,3.92-3.79c.18-.43-.51-.61-.69-.19a6,6,0,0,1-3.42,3.29c-.43.16-.25.85.19.69Z"/><path class="cls-13" d="M75,180.34a7.59,7.59,0,0,0,2.44-4.09.36.36,0,0,0-.69-.19,6.92,6.92,0,0,1-2.26,3.77c-.35.3.16.81.51.51Z"/><path class="cls-13" d="M78.74,165.8a10.47,10.47,0,0,1,4.4,8c0,.46.74.46.71,0a11.21,11.21,0,0,0-4.74-8.64c-.38-.27-.74.36-.37.62Z"/><path class="cls-13" d="M86.37,133.92c-.1-.13-10.6-12.86-23.25-15.9-3.36-.81-4-.26-4.17,0-.8,1.61,5.41,7.51,9.51,10.84l-.46.56c-1.84-1.5-11-9.12-9.69-11.72.48-1,2.06-1.09,5-.39,12.89,3.1,23.53,16,23.64,16.15Z"/><path class="cls-17" d="M147.76,183.69s-11.12-7.18-18.65-23.32-10.05-8.62-6.1,2.15S142.38,184.05,147.76,183.69Z"/><path class="cls-13" d="M84.33,146.37c-4.06-.72-1.19,2.87,1.44,4.31s5.26-1.2,5.26-1.2A14.6,14.6,0,0,0,84.33,146.37Z"/><path class="cls-13" d="M16.36,121.63c-2.3-1.27-1.31,1.49,0,2.89s3.41.37,3.41.37A9.34,9.34,0,0,0,16.36,121.63Z"/><path class="cls-39" d="M108.31,197.32s-1.43-2.51-6.1-3.77.36,2.87,2.52,3.23S108.31,197.32,108.31,197.32Z"/><path class="cls-40" d="M209.48,174.09c.08.35-1.26,12-5,18.21s-4.57-.72-4.57-.72S208.67,170.5,209.48,174.09Z"/><path class="cls-41" d="M201.49,135.25s-.39-18.5,18.87-41.5c16-19.14,20.87-26.13,20.87-28.83s-10.4,6.1-22.07,19.74-21.52,35.16-23.5,41.08S199.52,135.07,201.49,135.25Z"/><path class="cls-42" d="M155,135.61a56.49,56.49,0,0,0-3.31,26c1.61,14.53,5.47,20.9,8.16,24.31s1.61-5.29,1.61-5.29,3.59,7,12.56,17.4,16.69,6.46,19.2,4.48,11.3-17.22,13.27-23.32.36,3.41,0,6.46,5.2-1.62,4.67-18.48S204,137.94,195,129,164.71,120,155,135.61Z"/><path class="cls-3" d="M179.06,189.19s5.63,4.66,7.18,5.5,8-5.74,8-5.74Z"/><path class="cls-43" d="M164.5,150.59s-4.48,4.93-2.51,14,8.34,11.12,11.21,12.2,3.32-2.07,3.32-2.07.09,1.17,1.71,1.35,1.88-2.78,1-3.95a2.36,2.36,0,0,0-2.42-.71s.45-8.79-3.23-15.7S164.5,150.59,164.5,150.59Z"/><path class="cls-44" d="M201.85,146c-3.95-.72-7.24,19.73-7.36,30.26s-.24,12.68-.24,12.68a22.7,22.7,0,0,1-8.61,1.31,36.64,36.64,0,0,1-6.58-1.07s3.37-28.6-2.51-36.24c-13.15-17.11-18.55-9.68-20.81-14.47-2.87-6.1,9.51-15.3,21.35-16.33C197.06,120.42,213.74,148.17,201.85,146Z"/><path class="cls-43" d="M202.74,150.91s-4.42,3.59-5.26,12.2.48,11.13.48,11.13a2,2,0,0,0,0,2.39c1,1.07,1.56-.48,1.56-.48s5.14-.36,6.1-10.52S204.9,149.48,202.74,150.91Z"/><path class="cls-3" d="M188.27,199.11a.36.36,0,0,1-.22-.07c-1.85-1.47-1.81-4.3-1.81-4.42a.38.38,0,0,1,.37-.35.37.37,0,0,1,.35.37s0,2.59,1.54,3.83a.36.36,0,0,1,.05.51A.34.34,0,0,1,188.27,199.11Z"/><path class="cls-3" d="M185.31,199.18h-.15a.36.36,0,0,1,.12-.71.59.59,0,0,0,.41-.15c.25-.19.56-.66.67-1.8a.36.36,0,1,1,.72.07,3.15,3.15,0,0,1-1,2.32A1.28,1.28,0,0,1,185.31,199.18Z"/><path class="cls-43" d="M200.53,156.51s-1.16,4.3.18,6.81,2.87-.09,2.42-3.14S200.53,156.51,200.53,156.51Z"/><g class="cls-45"><path class="cls-17" d="M178.84,158.71c2.7,4.66,1.64,10.32-2.37,12.64s-9.43.4-12.13-4.27-1.63-10.33,2.37-12.64S176.15,154,178.84,158.71Z"/></g><path class="cls-17" d="M200.64,153.42s4.5,1.65,4.62,9.55-7.86,8.52-7.86,8.52S194.45,161.13,200.64,153.42Z"/><path class="cls-43" d="M173.15,168.12a.95.95,0,1,1-.94-.94A.95.95,0,0,1,173.15,168.12Z"/><circle class="cls-43" cx="198.71" cy="167.81" r="0.9"/><path class="cls-17" d="M194.05,147a7.9,7.9,0,1,1-7.9-7.89A7.9,7.9,0,0,1,194.05,147Z"/><circle class="cls-43" cx="183.85" cy="151.54" r="1.05"/><path class="cls-46" d="M181.19,154.27a9.51,9.51,0,0,0,7.9.95c4.66-1.37,5.38-4.42,5.38-4.42s.3,4.18-5,5.44A8.85,8.85,0,0,1,181.19,154.27Z"/><path class="cls-47" d="M158.89,161.17s1.16,8,5.29,13.28,9.33,3.94,9.33,3.94-3,1.35-7.9-5-5.56-12.29-5.56-13.09S159,159.56,158.89,161.17Z"/><path class="cls-48" d="M200.33,178.48a12.58,12.58,0,0,0,7.08-7.8c2-6,1.26-10.67.63-11.57s-.18,2.51-1.25,7.71-5.83,10.41-6.64,11S200.33,178.48,200.33,178.48Z"/><path class="cls-49" d="M161.64,181.06s5.26,8.37,6.34,9.8.23,3.95-2.28,2.4S161.28,184.88,161.64,181.06Z"/><path class="cls-13" d="M186.23,151.28a4.43,4.43,0,1,1,4.43-4.43A4.43,4.43,0,0,1,186.23,151.28Zm0-8.14a3.71,3.71,0,1,0,3.71,3.71A3.72,3.72,0,0,0,186.23,143.14Z"/></g></g></svg>