<svg xmlns="http://www.w3.org/2000/svg" viewBox="0 0 356.4 530.78"><defs><style>.cls-1{fill:#424241;}.cls-2{fill:#bfbfbf;}.cls-3{fill:#666;}.cls-4{fill:#878787;}.cls-5{fill:#f9f5f2;}.cls-6{fill:#5b5b59;}</style></defs><title>air_golem</title><g id="Layer_2" data-name="Layer 2"><g id="Capa_1" data-name="Capa 1"><path class="cls-1" d="M217.43,35.35,190.68,75.14c2.91.76,8.41,51.46,8.41,51.46L225,132.8l3.39-8.78-3.12-16s12.81,19.83,14.91,22.4-4.43-36.14-4.43-36.14L254,110.52S218.29,34.65,217.43,35.35Z"/><path class="cls-2" d="M317.29,262.55l-9.85,13s-8-4.4-11.11-4.4-4.6,6.5-4.6,6.5l15.71,5.44,18-6.07Z"/><path class="cls-1" d="M308,286.79c-4.75,4.74-.56,10.61-.56,10.61l23.19-5.59,5.87-21.23L318.62,232s-22.63-15.65-24-16.21l-20.68,20.12-6.7,24.86s10.06,16.77,10.9,17.6,3.63,16.77,3.63,16.77h5.86c3.92-3.64,2.24-13.41,2.24-13.41l-3.63-17.33L306.32,260l14,11.74L317.78,282S312.75,282,308,286.79Z"/><path class="cls-2" d="M335.65,268.77l-17-36.74-.15-.11a32,32,0,0,0,.08,8c.41,3.56,6.07,27.66,6.07,27.66Z"/><path class="cls-2" d="M335.9,269.3l-9,1-1.05,15.3s3.07,1.45,5.75,2.6l4.87-17.62Z"/><polygon class="cls-2" points="311.77 296.36 329.98 291.97 324.2 288.53 311.77 296.36"/><path class="cls-3" d="M193.31,156.76l-18.76-23.42s4.33,20.24,7.76,34.17,32.79,24.37,32.79,24.37l-16.26-3.09s19.68,22.1,21.92,24.24,58.6,31.74,58.6,31.74c7.41,6.52,31.67,9.55,31.67,9.55l-8.79-9.51,6.44-1-12.35-30.12L263.58,184s-3.9-13.15-4.51-14-31.8-32.93-29.82-36.52-12.35-28.42-12.35-28.42L211.06,127,193.83,98l9.7,33.37-31.67-29.65Z"/><path class="cls-2" d="M216.9,105.09l-3.12,11.71c3.32,8.81,7.52,19.26,7.52,19.26l-3.82,10.47L223,158.47l4.21-8.23L245.83,174l-17.75-6.2L304,232.42l-7.68-18.73L263.58,184s-3.9-13.15-4.51-14-31.8-32.93-29.82-36.52S216.9,105.09,216.9,105.09Z"/><path class="cls-1" d="M261.36,211c-.81-1.08-16.38-12.3-17.26-12.91s-35.58-.06-35.58-.06L199.73,189l-.89-.17s19.68,22.1,21.92,24.24,58.6,31.74,58.6,31.74c7.41,6.52,31.67,9.55,31.67,9.55l-1.72-1.86-9.92-6.37-.39-9s-13.35-3.15-14.37-2.81,7,7.06,7,7.06l-25.73-12.92,15.32-.45-44-22.11S262.17,212.13,261.36,211Z"/><polygon class="cls-1" points="173.03 104.69 192.49 154.64 198.75 163.48 196.08 145.17 211.38 153.2 173.03 104.69"/><path class="cls-1" d="M195.94,182.5l15.31,6.76-8.78-18-12.6-6.67-11.36-26.33-4-4.94s4.33,20.24,7.76,34.17C183.73,173.27,189.57,178.43,195.94,182.5Z"/><polygon class="cls-1" points="211.39 142.3 193.83 97.99 203.53 131.36 202.95 130.82 211.39 142.3"/><polygon class="cls-4" points="216.33 107.21 211.89 123.87 217.34 140.08 223.71 133.74 216.33 107.21"/><path class="cls-1" d="M226.66,182.29l-19.33-18.24c-.16,1.07,13.08,17.52,13.08,17.52Z"/><path class="cls-1" d="M275.41,211.87l-16.46-8c.46.61,26,18.65,26,18.65Z"/><path class="cls-4" d="M179.89,156.55l9.34-1.46c.78-2.62,1.23-4.11,1.23-4.11Z"/><path class="cls-4" d="M203.32,273.77,216,315.53l30.92,13.58s10.79-19.93,9.53-33.7S208,152.15,208,152.15l-18.72,2.94c-2.15,7.14-6.84,22.71-12,39.51,3.54,17.3,8.58,48.52,8.7,54.88C186.12,258.3,203.32,273.77,203.32,273.77Z"/><path class="cls-4" d="M101.89,331l23.71-37.52,31.84-38.27c1.55-1.87,11.3-32.92,19.8-60.65-1.37-6.67-2.51-11.28-3.07-11.58-2-1.08-.24-23.33-.24-23.33l6-3.14-20.47,3.21-20.68.8s-35.17,51-34.25,61S92,319.32,92,319.32Z"/><path class="cls-4" d="M177.24,194.6c5.15-16.8,9.84-32.37,12-39.51l-9.34,1.46-6,3.14s-1.75,22.25.24,23.33C174.73,183.32,175.87,187.93,177.24,194.6Z"/><path class="cls-2" d="M148.77,265.67l8.67-10.42c1.09-1.31,6.21-17,12.11-35.8l.43-24.16L153.22,254.8l1.26-23.05S142.84,255.59,148.77,265.67Z"/><path class="cls-2" d="M256.17,302.62a31.51,31.51,0,0,0,.26-7.21c-1.11-12.1-37.73-113.62-46.57-138C208.38,169.27,207.7,196,207.7,196l21.79,62.3-4.75-33.53s20.4,51.13,20.68,54.2C245.58,280.74,251.34,292.78,256.17,302.62Z"/><path class="cls-1" d="M184.27,249.76c.18,8.82,17.37,24.29,17.37,24.29l12.67,41.76,30.91,13.58s.32-.6.85-1.65L227,299.92,217.76,232l-6.29,27.66-16.76-21.8-8-75.43L172.5,183.3l2.78,12.49c.1-.3.19-.61.28-.91.86,4.2,1.81,9.22,2.76,14.51l.47,2.1-.07.19C181.52,227.6,184.18,245.16,184.27,249.76Z"/><path class="cls-1" d="M100.22,331.32l23.7-37.52,8.19-9.85c-5.62-6.15-10.56-12-10.74-13.79-.42-4.19,3.35-26.4,7.13-30.17s23.05-20.54,23.05-20.54l-32.69,10.06,11.73-18.44,25.15-10.89s6.28-38.14,5-39.4a10.31,10.31,0,0,0-1.72-.95l-1.3.21-20.68.8s-35.17,51-34.25,61-12.5,97.72-12.5,97.72Z"/><path class="cls-1" d="M128.3,146.86l2,10.88,6.78,1.09L196,155.2l9.82-6.52-1-53.67S223.12,75.43,224.3,73.8s13.38-37.89,13.38-37.89L216.35,14l-15.18,2.61s-13.44-3.7-18.35-3-12,4.35-12,4.35l9.82,6-12.19,3.63-7.79-2.36L146.25,36.09l7.28,1.27-7.45,13.41-11,2.36-4.41,18.49,6.78-1.27-5.93,21.22Z"/><path class="cls-1" d="M100.22,143.18s24.31-18.44,35.21-31,33-57.83,33-57.83l-27.1,7.54C139.62,61.6,124.81,70,124.81,70S94.92,115.24,92.4,122.23s-.56,22.63-.56,22.63l2.24-1.68Z"/><path class="cls-3" d="M166,99.44c-.63.08-1,.18-1,.3S165.34,99.73,166,99.44Z"/><path class="cls-3" d="M224.3,73.8a75.92,75.92,0,0,0,3-7.78l-6.67-3.51a43.35,43.35,0,0,0-6,2.45c-2.3,1.25-21.58,21-20.53,21S204.83,95,204.83,95,223.12,75.43,224.3,73.8Z"/><path class="cls-3" d="M148.84,140l19.69,6.92s7.34-6.29,8.18-6.92,12.78,1.26,12.78,1.89,1.67,5.44,1.67,5.44l2.94-11.1.63,13.2,11-5.2L204.83,95s-10.73.33-13.67-1.77-6.7-4.4-6.7-4.4S170,97.58,166,99.44c3.7-.48,16.39-.33,16.39-.33s2.52,5.24,11.53,5.45S204,106.44,204,106.44s-10.69,6.08-17.19,3.57-9.22-6.29-9.22-6.29l-15.5,4.4-6.5,12.15,13.62-3.14s.42,3.77,12.36,4.19,19.07-2.3,19.07-2.3-7.12,8.59-21.37,8-12.78-3.77-12.78-3.77Z"/><path class="cls-2" d="M186,121.33a61.25,61.25,0,0,0,8.73-.86c4-1.46,7.68-2.76,8.48-3,1.18-.34-7.62,13.17-14.78,23.94.65.17,1,.32,1,.44,0,.62,1.67,5.44,1.67,5.44l2.94-11.1.63,13.2,11-5.2L204.83,95s-1.56,0-3.65,0L193,104.52l.92,0c9,.21,10.06,1.88,10.06,1.88a41.34,41.34,0,0,1-5.24,2.4Z"/><path class="cls-3" d="M250.06,37.82l4.2-11.21,1.93-8.22L246,7.88C241,5.78,224.67,0,224.67,0L195.43,16.63,208,21.71l1.76,17.69,6-3,4.9,26.09,6.13-6.3,8,17.68,6-8.58L248,76l-1.05-34.67-2.28,1.4,1.93-10.33Z"/><path class="cls-2" d="M241,65.67,239,59s-2.8,4.75-2.73,5.17c0,.21.34,3.45.63,6.69l3.87-5.57Z"/><polygon class="cls-2" points="250.06 37.82 254.26 26.61 256.19 18.39 250.33 12.32 242.71 17.67 251.51 28.43 249.94 37.65 250.06 37.82"/><path class="cls-2" d="M242.57,43.16s-1.87,8.51-2.62,11.7c.69-2.16,2.27-6.39,2.27-6.39l.35,9.85,2.3-6.49.42,9-1.39-3.71-.59,11.94L248,76l-1.05-34.67-2.28,1.4.2-1Z"/><path class="cls-2" d="M239.64,56a5.14,5.14,0,0,0,.31-1.16A6.8,6.8,0,0,0,239.64,56Z"/><polygon class="cls-2" points="245.78 13.76 249.41 11.38 248.69 10.63 245.78 13.76"/><polygon class="cls-4" points="243.51 19.79 238.17 19.39 242.13 27.1 247.76 26.51 243.51 19.79"/><path class="cls-4" d="M241.32,31.19c-.91.33-2.62,13.92-2.62,13.92l8.24-2.73,0-1.06-2.28,1.4,1.93-10.33,3.5,5.43v0c-1.36-2.54-3.3-6.4-3.3-6.4L249.86,29S242.24,30.86,241.32,31.19Z"/><path class="cls-4" d="M245,7.46C239.06,5.11,224.67,0,224.67,0L195.43,16.63,208,21.71l1.76,17.69,6-3,4.9,26.09L224,59.06l-.33-12.83,9.59-6.7.79-9.06-4.6-12.22L236,13.53,220.9,18.65s-5.25,15-5.25,12.47S218.8,15,218.8,15l9.46-5.25L220.51,11,234.17,7Z"/><path class="cls-4" d="M245,7.46C239.06,5.11,224.67,0,224.67,0L195.43,16.63,208,21.71l1.76,17.69,6-3,4.9,26.09L224,59.06l-.33-12.83,9.59-6.7.79-9.06-4.6-12.22L236,13.53,220.9,18.65s-5.25,15-5.25,12.47S218.8,15,218.8,15l9.46-5.25L220.51,11,234.17,7Z"/><polygon class="cls-4" points="234.3 57.78 229.31 53.45 227.07 56.86 234.82 73.89 235.02 73.61 234.3 57.78"/><polygon class="cls-4" points="240.6 61.59 239.19 67.59 240.78 65.31 247.14 74.77 240.6 61.59"/><polygon class="cls-1" points="239.35 26.2 238.07 31.47 239.76 26.93 241.35 28.19 246.26 25.75 244.29 21.81 244.25 22.32 241.25 20.53 239.76 20.73 242.28 24.49 244.98 25.72 241.14 27.46 239.35 26.2"/><polygon class="cls-5" points="243.71 23.11 241 21.27 242.84 23.77 245.5 25.43 243.71 23.11"/><path class="cls-4" d="M124.25,59.65,111.68,88.7,154.15,77l-7,18.44,65.1-36.6L196.33,30.87S161.69,18.3,152.47,18.3s-45.26,8.38-45.26,8.38l21.23,8.66L95.75,64.4Z"/><path class="cls-3" d="M134.8,54.9S132.22,76.3,123,85.57L154.15,77l-7,18.44,65.1-36.6L197.93,33.68c-6.21,2.07-13.94,3.82-20.18,2.57-12.57-2.51-18.23-2.72-18.23-2.72s-5,40.65-5.65,38.34-1-21.23-.87-22.57C152.24,50.14,134.8,54.9,134.8,54.9Z"/><path class="cls-3" d="M153,49.3a.09.09,0,0,0,0-.06S153,49.23,153,49.3Z"/><polygon class="cls-3" points="133.12 49.03 123.27 47.15 96.53 64.27 122.21 59.99 122.23 59.93 133.12 49.03"/><path class="cls-3" d="M113.05,85.52l-1.37,3.18,8.41-2.32c3.78-4.83,7.87-11.49,8.42-18.28C128.51,68.1,119.88,80.35,113.05,85.52Z"/><polygon class="cls-3" points="109.64 27.67 127.19 34.83 139.83 33.53 109.64 27.67"/><path class="cls-3" d="M153,49.3a.09.09,0,0,0,0-.06S153,49.23,153,49.3Z"/><polygon class="cls-3" points="133.12 49.03 123.27 47.15 96.53 64.27 122.21 59.99 122.23 59.93 133.12 49.03"/><path class="cls-3" d="M113.05,85.52l-1.37,3.18,8.41-2.32c3.78-4.83,7.87-11.49,8.42-18.28C128.51,68.1,119.88,80.35,113.05,85.52Z"/><polygon class="cls-3" points="109.64 27.67 127.19 34.83 139.83 33.53 109.64 27.67"/><path class="cls-3" d="M156.17,125.93l-11.52-8.38s1.46,15.3,2.93,15.72S156.17,125.93,156.17,125.93Z"/><path class="cls-2" d="M150,87.87l-2.86,7.54,65.1-36.6L210.1,55c-6.35-4-14.91-9-19.77-9.76a29.61,29.61,0,0,0-14.25.84s7.68,7.4,3.07,11.17-6.84-2.65-6.84-2.65l1.11,20.25-3.07-17.18-3.63,17.6V62Z"/><path class="cls-2" d="M87,320,52.17,377.4,41.49,413.23l-20.12,22L0,501.86,27.66,513.8l15.08,17,33.95-.63,63.48-18.23s-10-24.52-7.54-32.06-2.6-79.09-2.6-79.09L128.5,375.7s6.07-18.86,8-22.42-2.73-29.13-2.73-29.13l13-29.12-17.61,15.08,11.11-16.34L132.06,264l-11.32,25.14-20.74,18,.21-15.92Z"/><path class="cls-4" d="M87,320,52.17,377.4,41.49,413.23l-20.12,22L0,501.86,27.66,513.8l15.08,17s1.89-31.43,1.26-33.95,21.37-27,21.37-27l30.17,3.77L84.23,413.86s26.4,8.8,28.29,8.17S96.17,367.35,99.94,342.2s31.43-44,31.43-44l1.87-29.88-1.18-4.3-11.32,25.14-20.74,18,.21-15.92Z"/><polygon class="cls-1" points="52.17 377.4 41.49 413.23 21.37 435.23 0 501.86 17.84 509.56 30.8 481.12 28.91 454.72 48.4 440.26 47.14 406.32 82.97 384.32 79.2 337.17 85.29 322.79 52.17 377.4"/><path class="cls-4" d="M104.61,365.29l12.29,49.45s.28-15.92.56-16.76Z"/><polygon class="cls-4" points="93.43 427.59 99.02 475.93 120.25 489.9 93.43 427.59"/><path class="cls-4" d="M114.67,460.56c0-1.68.28-33.53.28-33.53l-17.33-3.35S114.67,462.24,114.67,460.56Z"/><path class="cls-4" d="M107.39,494.58l10.07,7.89S119.16,501.5,107.39,494.58Z"/><path class="cls-4" d="M104.61,493c1,.57,1.93,1.1,2.78,1.61L92.88,483.19,70,476.76,48.45,498.28S89.8,484.59,104.61,493Z"/><path class="cls-2" d="M76.39,271.14c0,2,4.61,44.7,4.61,44.7s10.34,9.64,15.23,13.69,18.16-1,18.16-1l1.12-7,15.92,4.37s8.22-7.82,12.17-11.82l2.36,1.2,9.78-10.75.83-8.11-11.31-4.75-1.4,3.78L126.4,284.27l-9.89-17.43,9.17-4.77c-.12.08-.57.71,3.1,4.88,4.05,4.61,11.45,4.47,11.45,4.47l-.56,12,6.71,1.12c7.68-7.54,6.14-20.53,6.14-20.53-11.59-.7-17.18-20.82-17.18-20.82s-7-4.47-14.53,2.8S96.51,248,96.51,248l-16.63,11.6c-1,1.86,1.08,6.94,3.4,9.64,0,.51-.06,1.09-.07,1.69Zm41.35,29.75,17.14,8.74-6,5.23s-17.89-7.82-17-8.8c.47-.54-2.53-11.33-5.35-20.94Zm-25.56-5.6,11.73,23.07,1,.26-1.26,1.83-5.17-1.4L89.38,309Z"/><path class="cls-1" d="M110.06,289.86l.35.72L117,299.9l6.44-12.42-12-13L111,262.62l-14-4.89S93,255.11,89.28,253l-3.77,2.63c2.64,6.11,7,15.36,7,15.36l16.86,16.08L97.28,277,107,286.8c-.16-.56-.32-1.12-.49-1.68l3,4.16Z"/><path class="cls-1" d="M141.94,315.74l1.66-1.66,2.36,1.2,9.78-10.75.14-1.37-13.28-4.5-10.52,9.55,2.8,1.42-2.56,2.24,8.22,3.31.53,0s0,.09,0,.25Z"/><path class="cls-1" d="M76.39,271.14c0,2,4.61,44.7,4.61,44.7s10.34,9.64,15.23,13.69,18.16-1,18.16-1l.38-2.37c-2.93-1.39-5.55-2.52-5.55-2.52L100,326.18,86.87,312.77,82,276s6.49,14.24,9.77,21.37l.43-2.11,9.21,18.12c2.3-2.92,5.47-7,5.73-7.21.42-.28-7.26-17.18-7.26-17.18L84.49,266.39,97.28,277l-17.4-17.47c-1,1.86,1.08,6.94,3.4,9.64,0,.51-.06,1.09-.07,1.69Z"/><polygon class="cls-1" points="141.21 296.56 126.82 289.16 117.45 300.49 117.74 300.89 131.81 308.07 141.21 296.56"/><path class="cls-1" d="M115.09,324.16l.42-2.63,15.92,4.37s5.4-5.14,9.55-9.22c0-.58.06-1,.08-1.29l-.52-.21-17.91,1.22-14.81-7.12s-3.56,2.62-6.15,4.67l2.24,4.41,1,.26-1.26,1.83C104.9,321.87,109.54,323.13,115.09,324.16Z"/><path class="cls-3" d="M45.4,199.64C45.55,202.73,66.11,263,66.11,263c.9,9.83,16.42,28.72,16.42,28.72l.16-12.95,5.37,3.7L99.81,252.1,96.45,208s6.22-12.24,6.34-13.25-.43-45.78,3.47-47,10.59-29.13,10.59-29.13L97.53,130.52,105,97.62,89.07,128.51l-2.59-43.3L64.19,139.92,66.67,110S55.9,127.68,48.8,140.16s7.05,40.24,7.05,40.24L46.16,167S45.25,196.55,45.4,199.64Z"/><path class="cls-2" d="M81.83,171.84,92.5,271l7.31-18.88L96.45,208s6.22-12.24,6.34-13.25-.43-45.78,3.47-47,10.59-29.13,10.59-29.13L106.52,125c-3.64,8.68-7.79,19.15-7.79,19.15l-10,5-4.19,12.48,8.72-3.07-2.84,30Z"/><path class="cls-1" d="M76.24,226.13c.16-1.35-3.43-20.2-3.64-21.25s-25.79-24.52-25.79-24.52l-.12-12.65-.53-.74s-.91,29.58-.76,32.67S66.11,263,66.11,263c.9,9.83,16.42,28.72,16.42,28.72l0-2.53-2.83-11.45,5.92-6.81s-7.53-11.46-8.5-11.92.2,9.92.2,9.92l-9.79-27.08L79,252,62.26,205.72S76.09,227.47,76.24,226.13Z"/><polygon class="cls-1" points="85.27 88.17 65.04 137.81 63.51 148.54 74.16 133.41 79.75 149.76 85.27 88.17"/><path class="cls-1" d="M66.67,110S55.9,127.68,48.8,140.16c-2.93,5.15-2.23,12.91-.41,20.25l6.46,15.43,6-19.09-4.55-13.5,9.86-26.93Z"/><polygon class="cls-1" points="89.02 127.71 87.25 141.85 104.98 97.61 89.07 128.5 89.02 127.71"/><polygon class="cls-4" points="100.29 128.82 93.1 144.33 102.08 144.11 114.98 119.78 100.29 128.82"/><path class="cls-1" d="M66.79,176.56l4,4.83-1.49-26.54C68.5,155.52,66.79,176.56,66.79,176.56Z"/><path class="cls-1" d="M79.44,219.25c-.09.76,6,31.42,6,31.42l.39-14.28Z"/><path class="cls-1" d="M131.66,156.1l-3.36-9.24-.42,6.52L117.2,175.17s16.55-5.24,18.23-5.45-8.8,10.9-8.8,10.9,32.47-6.5,33.1-6.29-3.14,9.64-3.14,9.64L185.72,172l-4.61,32.9,29.12-30.39,5.24-40-26,19.49s-37.93,2.3-40,2.51,2.3-5,2.3-5Z"/><path class="cls-2" d="M188.57,505.63l1.26,4.4s48.4-5,55.94-5.65,40.23,18.85,42.75,20.11S356.4,505,356.4,505l-41.48-53.43-18.23-57.82-2.52-24.52-18.85-45.89,8.8-35.2-35.83-56.57,14.46,52.8-18.23-22L247,294.43,237,320.83,211.2,310.14l-4.4,18.23v35.2l1.26,45.89-13.83,22Z"/><path class="cls-6" d="M299.15,522.26l-15-44.29s-12.83,19.1-20.4,33c11.18,5.58,23.3,12.74,24.8,13.49C289.11,524.79,293.22,523.85,299.15,522.26Z"/><path class="cls-6" d="M188.57,505.63l1.26,4.4s48.4-5,55.94-5.65c1.82-.16,5.1.86,9.06,2.51l4.14-35.2,1.26-45.89L242.63,439c-13.2-32.68,25.14-30.8,30.17-47.14s-20.11-52.8-20.11-52.8l17.6-38.34-25-28.27,1.72,22L237,320.83,211.2,310.14l-4.4,18.23v35.2l1.26,45.89-13.83,22Z"/><path class="cls-1" d="M188.57,505.63l1.26,4.4,24.11-2.49c2.56-10.52,8.3-34.38,8.82-38.44.09,3.61,1.39,23.18,2.35,37.31l4.93-.5,13.28-52.47L223.21,430,237,399.38l-17.6-1.26,13.41-33.53s-14.58-21-25.82-37.17l-.23.95v35.2l1.26,45.89-13.83,22Z"/><polygon class="cls-4" points="264.97 417.81 268.61 460.28 278.11 437.09 264.97 417.81"/><path class="cls-4" d="M268.89,482.91,284,460.84l-.84-19.56S270,479.56,268.89,482.91Z"/><path class="cls-1" d="M146.38,284.55a20.61,20.61,0,0,0,5.27-9.63c-.23-2.75-.42-5-.42-5s-12.89-2.41-15.3-7.23a114.2,114.2,0,0,1-5-13.3l-16.14,15.82s1.49,1.89,2.52,3l-.78-1.37,9.17-4.77c-.12.08-.57.71,3.1,4.88,4.05,4.61,11.45,4.47,11.45,4.47l-.56,12Z"/><polygon class="cls-2" points="92.32 406.36 104.61 412.79 97.9 384.01 92.32 406.36"/><polygon class="cls-2" points="79.05 461.4 85.75 466.85 82.82 440.03 79.05 461.4"/><path class="cls-1" d="M16.13,492.43l24.51,11.65,7.11-15.43,21.62-3-23.44.61-6.5,13L20.22,486.68l4.38-20.87,27.68.76-1.66-9.23,4.39,5.6s13.31-2.42,13.91-2.88-13.76-.75-13.76-.75l-1.06-3.63,11.95-3.33-6.66-21.18,14.07-11.34-17.4,10.28,5.75,20-14.06,3,.6,9.23L24,459.76Z"/><path class="cls-1" d="M120.8,360.69l-9.53,3.78-21-23.9,20.42,27.68,9.07-4.38,8.78,12.2,0-.37s.62-1.92,1.52-4.65Z"/><polygon class="cls-1" points="258.89 396.99 282.18 360.69 258.89 388.22 248.61 380.05 224.1 414.84 214.12 442.67 234.39 470.5 260.71 449.02 274.32 465.36 294.28 448.72 303.66 464.15 296.7 443.88 275.23 459.31 263.73 438.74 237.11 459.61 218.96 435.71 248 387.61 258.89 396.99"/><polygon class="cls-1" points="158.31 224.41 157.4 208.68 145.45 211.56 144.09 201.88 139.71 202.18 143.19 213.98 155.28 211.25 158.31 224.41"/><polygon class="cls-1" points="197.48 226.08 192.49 242.41 202.02 256.63 204.9 239.09 198.09 247.86 199.75 230.16 205.35 235 212.76 219.57 205.2 214.43 213.67 202.78 201.72 214.13 209.74 220.63 204.14 230.92 197.48 226.08"/><path class="cls-1" d="M59.24,228.35l7.26,14.06,19.37-6-1.52-20.14L93,209.89l-12.25,4.84,3.48,18.91s-13.46,3.48-14.52,3.78Z"/><path class="cls-1" d="M75.58,161.65l15,2.87-1.82,10.59,14.21,3.06c0-1.2,0-2.42.08-3.65l-11.56-1.38,3-10.13Z"/><path class="cls-1" d="M250.27,189.93l7.71-9.68s-7.26,5.75-8.16,5.75-3.63-8.78-3.63-8.78l-17.85,10,18.9,31.91-1.51,4.39L278,238.18l12.55-8-3-6.2,7.56-2.72L286,222.75l2.42,5.9-14.47,7.29L252.54,222.3l17.69-2.42,2.12-22.54-5.44,19.06-16.49,2.12-17.7-30.25,11.95-5.3Z"/><path class="cls-1" d="M195.37,54c0-2-3.56,15.83-4.92,22.74l5.72-1.56S195.37,56.37,195.37,54Z"/><path class="cls-1" d="M190.45,76.69l-1.32.36.79,2.31S190.12,78.33,190.45,76.69Z"/><path class="cls-1" d="M185.08,78.15l4-1.1L178,44.48s-12.7,8.26-12.7,8.87S160.68,36,160.07,35s2.83,21.58,2.83,21.58l14.32-6.46Z"/><polygon class="cls-1" points="237.06 45.89 245.28 42.56 246.68 41.47 244.63 42.72 244.91 41.21 237.06 45.89"/><path class="cls-1" d="M222.93,23.89l-.14-.08Z"/><path class="cls-1" d="M219.16,37.62c-.3.5,2.22,7.36,2.22,7.36l2.12-.1,1,16.54,3,2.72c.1-.3-2.82-19.56-2.82-19.56l9.88-4.14-.55-10s-9.83-5.8-11.11-6.58c1.18.82,9.34,7.07,9.34,7.07l1,8.57-10.76,3.13S219.47,37.12,219.16,37.62Z"/><polygon class="cls-1" points="196.58 100.54 213.67 104.78 214.73 97.67 228.19 78.31 216.69 71.95 215.48 75.73 209.43 71.5 215.48 78 217.6 74.98 224.56 80.27 215.03 89.2 204.14 81.18 215.63 93.13 207.31 100.54 195.22 97.97 189.58 106.67 192.34 107.95 196.58 100.54"/><polygon class="cls-1" points="174.65 100.69 174.74 101.19 175.47 101.05 174.65 100.69"/><polygon class="cls-1" points="189.58 106.67 183.57 103.87 183.56 103.92 188.26 108.71 189.58 106.67"/><polygon class="cls-1" points="177.06 113.7 174.74 101.19 171.86 101.71 177.06 113.7"/><path class="cls-1" d="M178.27,123.53s-5-.3-5.44-.15,2.27,12.7,2.27,12.7l.91-10.89,8.16,1.06,2.88,20.57-.46-22.23-5.74-2.27,2.71-18.4-3.62-3.68-4.47.81,6.43,2.82Z"/></g></g></svg>