<svg xmlns="http://www.w3.org/2000/svg" viewBox="0 0 875.69 845.26"><defs><style>.cls-1{fill:#adc4dc;}.cls-2{fill:#9eb3c9;}.cls-3{fill:#8295a7;}.cls-4{fill:#748696;}.cls-5{fill:#7c8e9f;}.cls-6{fill:#8b9eb1;}.cls-7{fill:#93a7bc;}.cls-8{fill:#8496a9;opacity:0.56;}.cls-9{fill:#f9a988;}.cls-10{fill:#fcc191;}.cls-11{fill:#d99578;}.cls-12{fill:#788751;}.cls-13{fill:#819369;}.cls-14{fill:#547658;}.cls-15{fill:#91a16c;}.cls-16{fill:#5c5c45;}.cls-17{fill:#acb556;}.cls-18{fill:#fed9b3;}.cls-19{fill:#ea7e63;}.cls-20{fill:#f69377;}.cls-21{fill:#f48472;}.cls-22{fill:#eaa783;}.cls-23{fill:#af7160;}.cls-24{fill:#6ca4bb;}.cls-25{fill:#95aebc;}.cls-26{fill:#728793;}.cls-27{fill:#697d88;}.cls-28{fill:#5e717b;}</style></defs><title>air_guardian2</title><g id="Layer_2" data-name="Layer 2"><g id="Layer_1-2" data-name="Layer 1"><path class="cls-1" d="M322.17,406.48c2.34-3.54,6.64-7.48,8-10.81C343.6,366.4,343.49,335.8,344.56,306c3.74,3.32,6.51,11.94,7.67,7.62,2.13-9.62,3-30.21-9.92-33.7,8.24.37,14.53,6.23,23,7.57-2.78-8.62-5.95-19.2-15-23.48,15.9,2.88,30,7.15,46.09.82-5.51-7.05-14.71-2.11-21-8,39.39-7,79.37-16.17,113-36.29-8,.61-14.34-5.25-21.79-6.79,36.49,3.79,73.52-4.77,108-21,26.3-12.21,52.78-23.54,76.21-39.21l-46.37,22.77q-6.39,3.32-13.33,6.55l13.33-6.55C745.91,103,684.9,0,684.9,0,643.34,141.64,324.76,229.17,324.76,229.17c-78.22,25.09-62.13,74.93-62.13,74.93l9.88-7.51c2.68,22.35,24.49,22.82,24.49,22.82l-1.85-9.11c42.92,41.62-28.63,134.45-28.63,134.45-.95,15,2.74,23.2,8.08,27.41A261.38,261.38,0,0,0,322.17,406.48Z"/><path class="cls-2" d="M685.59,136.5,650.8,153.58c-23.43,15.67-49.91,27-76.21,39.21-34.46,16.21-71.49,24.77-108,21,7.45,1.54,13.75,7.4,21.79,6.79-33.66,20.12-73.64,29.28-113,36.29,6.3,5.86,15.5.92,21,8-16.06,6.33-30.19,2.06-46.09-.82,9,4.28,12.21,14.86,15,23.48-7.38-1.18-13.12-5.81-20-7.19,23.07,11.38,49.14,15.1,75.85,6-3.54-2.34-9.42-1.14-10.42-6,43.43-3.55,84-17.21,126.69-23.49C715,211.07,685.59,136.5,685.59,136.5Z"/><path class="cls-3" d="M401.66,380.87c2.45.45,4.86.85,7.25,1.23-4.73-2.15-9.38-4.61-14.29-5.69.6,2.94,2.18,5.68,1.8,8.82l-3.92.8c-24.85-14.3-38.91-37.74-48.51-63.34-.72,18.87-2.07,37.9-7.67,56.56A70,70,0,0,0,352,402.45c-4.9,1-9.6,3-14.9,2a59.06,59.06,0,0,0,14.35,16.66c73.51,38.08,107.24-15.95,107.24-15.95Z"/><path class="cls-4" d="M315.18,427.29c3.14.39,5.88-1.19,9.22.17a53.6,53.6,0,0,1-5-15.69,262.5,262.5,0,0,1-44.8,60.39c10.71,8.42,28,.94,28,.94s-9.61-39.26,23.51-22l.69.35A40.07,40.07,0,0,1,315.18,427.29Z"/><path class="cls-5" d="M382.37,447.33,346,418.2c1.83,1,3.64,2,5.42,2.93a59.06,59.06,0,0,1-14.35-16.66c5.3,1,10-1,14.9-2a70,70,0,0,1-15.64-23.2,125.93,125.93,0,0,1-6.15,16.42c-1.36,3.33-5.66,7.27-8,10.81q-1.37,2.67-2.77,5.29a53.6,53.6,0,0,0,5,15.69c-3.34-1.36-6.08.22-9.22-.17a40.07,40.07,0,0,0,11.67,24.17C359.59,468.08,382.37,447.33,382.37,447.33Z"/><path class="cls-6" d="M417.4,327.89c5.22-.1,10.3-.27,15.29-.49-10.91-.82-21.9-2.14-33.15-2,1.58,2.74,3.74,3.32,6.1,4.89-19.66.95-37.45-7.62-52.76-20.26-.19,1.3-.41,2.51-.65,3.58-1.16,4.32-3.93-4.3-7.67-7.62-.2,5.54-.36,11.12-.57,16.7,9.6,25.6,23.66,49,48.51,63.34l3.92-.8c.38-3.14-1.2-5.88-1.8-8.82,4.91,1.08,9.56,3.54,14.29,5.69C532,401.57,560.05,331.8,560.05,331.8Z"/><path class="cls-7" d="M516.21,261.87c7.39-1.65,14.45-3.36,21.23-5.1-42.66,6.28-83.26,19.94-126.69,23.49,1,4.9,6.88,3.7,10.42,6-26.71,9.09-52.78,5.37-75.85-6a19.81,19.81,0,0,0-3-.38c11.51,3.1,12.08,19.71,10.57,30.12,15.31,12.64,33.1,21.21,52.76,20.26-2.36-1.57-4.52-2.15-6.1-4.89,11.25-.14,22.24,1.18,33.15,2,174.79-7.68,209.93-86.21,209.93-86.21Z"/><path class="cls-8" d="M650.8,153.58l-46.37,22.77C745.91,103,684.9,0,684.9,0,643.34,141.64,324.76,229.17,324.76,229.17c-78.22,25.09-62.13,74.93-62.13,74.93l9.88-7.51c2.68,22.35,24.49,22.82,24.49,22.82l-1.85-9.12c42.92,41.63-28.63,134.46-28.63,134.46-.95,15,2.74,23.2,8.08,27.4,10.71,8.43,28,.94,28,.94s-9.61-39.25,23.51-22l.69.35c32.74,16.62,55.52-4.13,55.52-4.13L346,418.2c1.83,1,3.64,2,5.42,2.93,73.51,38.08,107.24-16,107.24-16l-57-24.3c2.45.45,4.86.85,7.25,1.22,123.11,19.48,151.14-50.3,151.14-50.3l-142.65-3.9c5.22-.1,10.3-.27,15.29-.49,174.79-7.69,209.93-86.22,209.93-86.22L516.21,261.87c7.39-1.66,14.45-3.36,21.23-5.1C715,211.06,685.59,136.5,685.59,136.5Z"/><path class="cls-9" d="M671.62,513.36a47,47,0,0,0-12.18-10.95l-1.78.87c-28.42,14-62.73,22.55-63.44,23.21L644.51,541a355,355,0,0,1,33.24-22c-6.86-1.19-14.16-1.1-21.13-1.68C661.62,514.36,666.62,515.36,671.62,513.36Z"/><path class="cls-10" d="M823.1,404.74c-11.94-15.12-29.41-14.41-50.91-7.91l1,3.24c17.91-5.42,33.05-1.72,42.64,10.42,11.05,14,12.22,35.91,2.78,52.1-10,17.07-29.19,24.35-54.18,20.5-46.88-7.23-79,6.63-105,19.32a47,47,0,0,1,12.18,10.95c-5,2-10,1-15,4,7,.58,14.27.49,21.13,1.68,25.1-14.72,59.51-30.75,85.25-26.77,28.6,4.41,51.78-4.71,63.62-25C837.9,447.91,836.42,421.61,823.1,404.74Z"/><path class="cls-1" d="M757.15,236.2,742.77,240Q750.23,238.19,757.15,236.2Z"/><path class="cls-1" d="M434.62,405.36c3-3,8-6,10-9,19-26,25-56,32-85,3,4,4,13,6,9,4-9,9-29-3-35,8,2,13,9,21,12-1-9-2-20-10-26,15,6,28,13,45,10-4-8-14-5-19-12,40,1,81,0,118-13-8-1-13-8-20-11,35,11,73,10,110,1,28.21-6.72,56.42-12.54,82.5-23.21l-50,13q-6.93,2-14.38,3.76l14.38-3.76c153.27-43.66,114-156.73,114-156.73C802.2,210,472.56,232.13,472.56,232.13c-81.66,9-75.84,61-75.84,61l11.18-5.38C406.06,310.2,427.34,315,427.34,315v-9.3c33.76,49.35-54.89,126-54.89,126-3.93,14.55-1.94,23.28,2.45,28.47A261.51,261.51,0,0,0,434.62,405.36Z"/><path class="cls-2" d="M844.62,213.36l-37.5,9.79c-26.08,10.67-54.29,16.49-82.5,23.21-37,9-75,10-110-1,7,3,12,10,20,11-37,13-78,14-118,13,5,7,15,4,19,12-17,3-30-4-45-10,8,6,9,17,10,26-7-2.63-11.7-8.31-18.12-11,20.34,15.76,45.13,24.6,73.12,21-3-3-9-3-9-8,43.26,5.19,85.77-.09,128.82,2.27C858.53,292.29,844.62,213.36,844.62,213.36Z"/><path class="cls-3" d="M517.62,396.13c2.32.93,4.6,1.8,6.87,2.65-4.21-3-8.28-6.38-12.87-8.42,0,3,1,6,0,9h-4c-21.5-19-30.6-44.74-34.89-71.75-4.47,18.35-9.59,36.72-18.8,53.89a69.82,69.82,0,0,0,10.69,25.86c-5,0-10,1-15-1a58.9,58.9,0,0,0,10.74,19.19c64.42,52,108.26,5.78,108.26,5.78Z"/><path class="cls-4" d="M423.62,424.36c3,1,6,0,9,2A53.26,53.26,0,0,1,430.86,410a262.81,262.81,0,0,1-56,50.23c8.81,10.39,27.3,6.52,27.3,6.52s-1.58-40.38,27.42-16.85l.61.48A40,40,0,0,1,423.62,424.36Z"/><path class="cls-5" d="M485.46,457.4l-29.84-35.8c1.59,1.38,3.17,2.69,4.74,3.95a58.9,58.9,0,0,1-10.74-19.19c5,2,10,1,15,1a69.82,69.82,0,0,1-10.69-25.86,126.09,126.09,0,0,1-9.31,14.86c-2,3-7,6-10,9-1.24,1.57-2.5,3.11-3.76,4.63a53.26,53.26,0,0,0,1.76,16.37c-3-2-6-1-9-2a40,40,0,0,0,6.61,26C459,473.19,485.46,457.4,485.46,457.4Z"/><path class="cls-6" d="M543.62,347.36c5.14.94,10.16,1.79,15.09,2.57-10.53-3-21-6.47-32.09-8.57,1,3,3,4,5,6-19.45-3-35.17-14.94-47.65-30.39-.45,1.24-.9,2.39-1.35,3.39-2,4-3-5-6-9-1.3,5.39-2.57,10.82-3.89,16.25,4.29,27,13.39,52.78,34.89,71.75h4c1-3,0-6,0-9,4.59,2,8.66,5.37,12.87,8.42,116.74,43.66,158.13-19.12,158.13-19.12Z"/><path class="cls-7" d="M653.62,302.39q11.36-.21,21.82-.76c-43.05-2.36-85.56,2.92-128.82-2.27,0,5,6,5,9,8-28,3.57-52.78-5.27-73.12-21a19.49,19.49,0,0,0-2.88-1c10.67,5.33,7.9,21.72,4.35,31.61,12.48,15.45,28.2,27.4,47.65,30.39-2-2-4-3-5-6,11.06,2.1,21.56,5.59,32.09,8.57,172.8,27.36,222.91-42.57,222.91-42.57Z"/><path class="cls-9" d="M566.42,733.84c34.05,13.92-24.81,85.1-24.81,85.1S485.9,805,479.71,845.26h88.2S643.74,769.43,643.74,740s-18.57-55.71-18.57-55.71l-10.53-3.88c-28.4,4-56.3,7.37-83.86,13.87C540.36,711.76,552.56,728.16,566.42,733.84Z"/><path class="cls-11" d="M530.78,694.31c27.56-6.5,55.46-9.91,83.86-13.87L508.4,641.3S516.83,668.92,530.78,694.31Z"/><path class="cls-9" d="M201.74,652.71c-5.5,5.8-11.92,9.5-19.14,8.51-25.42-3.48-75.48-51-93.39-52.16s-68,9.22-60.93,42.88,11.13,47.58,34,42.93,21.2-42.52,21.2-42.52,69.36,70.38,92.4,72.7c11.17,1.12,38.23-10,63.14-21.87C223.3,688.37,210.64,671.77,201.74,652.71Z"/><path class="cls-11" d="M223.66,610s-8,28.05-21.92,42.69c8.9,19.06,21.56,35.66,37.32,50.47,26.48-12.55,50.53-25.82,50.53-25.82Z"/><path class="cls-12" d="M62.27,581.73c-7.53,1.76-13.79,5.6-19.68,11-4,4.06-1.15,8.46,2.25,12A172.73,172.73,0,0,0,65.46,609s50-36.5,87.25-42.57,47.17-27.46,47.17-27.46l-1.83-.6C157.82,563.8,107.4,567.44,62.27,581.73Z"/><path class="cls-12" d="M167.91,483.11c-4.39,5-3.43,15.9-.73,24,2.53-6.16,12.15-9.2,13.78-5.61,7.25,17.37-19.47,22-32.63,23.53,7.85,1.87,15.92,4.64,24.16,5l-2-.64,55.55-16.17c-5.51-4.28-61.76-28.46-53-31.83a5.68,5.68,0,0,0,2.18-1.89A10.1,10.1,0,0,0,167.91,483.11Z"/><path class="cls-13" d="M100.75,506.21l-1.23.51A11.31,11.31,0,0,0,100.75,506.21Z"/><path class="cls-12" d="M136.71,461.8c-8.5,16.74-21.61,30-36.88,40.7a12.48,12.48,0,0,1-1.09.77c.36-.26.72-.52,1.09-.77,3.31-2.61,4.49-6.55,4.9-11-10.5,12.53-23.94,24.62-39.11,31.17-.41,1.1-.61,1.7-.61,1.7l15.95,4C97.54,518.77,112,505.27,125,490,131.32,482.93,134.3,471.9,136.71,461.8Z"/><path class="cls-14" d="M15.67,572.76l-.7-3c-2.79-1.73-3.24,3.14-5.85,2.16-2-1.9.45-4.87,2-5.22,7-.83,13.12,1.7,19.54-1.39,3-1.86,6.65-4.7,7.3-8.28-13.19,1.55-29.24,1.66-29.24,1.66S-.82,568.74.06,579c1.34.5,2.69.9,3.87,1.27C8.8,580.73,12.79,577.41,15.67,572.76Z"/><path class="cls-15" d="M148.33,525c13.16-1.5,39.88-6.16,32.63-23.53-1.63-3.59-11.25-.55-13.78,5.61-2.7-8.11-3.66-19,.73-24a10.1,10.1,0,0,1,7.32-3.63c5-6.41,10.69-26.78,14.61-42.67L170.33,395.7s-8.35,46.68-51.61,64.75c-33.56,14-49.87,53.58-53.1,62.25,15.17-6.55,28.61-18.64,39.11-31.17-.41,4.42-1.59,8.36-4.9,11,15.27-10.71,28.38-24,36.88-40.7C134.3,471.9,131.32,482.93,125,490,112,505.27,97.54,518.77,81,528.43l.38.1S61.58,551.6,49.14,555a78.94,78.94,0,0,1-11.23,2c-.65,3.58-4.28,6.42-7.3,8.28-6.42,3.09-12.58.56-19.54,1.39-1.5.35-4,3.32-2,5.22,2.61,1,3.06-3.89,5.85-2.16l.7,3c-2.88,4.65-6.87,8-11.74,7.52-1.18-.37-2.53-.77-3.87-1.27.48,5.69,4.14,11.45,14.37,15.6A245.13,245.13,0,0,0,44.84,604.7c-3.4-3.55-6.29-8-2.25-12,5.89-5.36,12.15-9.2,19.68-11,45.13-14.29,95.55-17.93,135.78-43.4L172.49,530C164.25,529.68,156.18,526.91,148.33,525Z"/><path class="cls-16" d="M84.77,516.58l21-14S109.34,524.84,84.77,516.58Z"/><path class="cls-17" d="M91.49,568.53s-22.53-.09-8.1-6.35,24.75,2.45,24.75,2.45Z"/><path class="cls-17" d="M121.88,561.42s-16-4.81-4.09-7.29,23.5,2.75,23.5,2.75Z"/><path class="cls-17" d="M119.78,502.8s-3,16.4,4.62,7,8.28-22.16,8.28-22.16Z"/><path class="cls-15" d="M72,508.41s-6.27-24.21,6.56-46.61l8.56,23.31s2-28.68,16.67-33.33l-.16,21.67s6.62-18.57,15.57-21.67v13.93Z"/><path class="cls-9" d="M736.58,734.61c3.87-3.09,0-9.28-3.87-10.06-16.25-1.55-33.27,3.87-48.74,9.29-4.3,1.43-8.9,1.09-13.6.81a302.92,302.92,0,0,0,47.57,8.48s.36,2.16.69,5.69a24.71,24.71,0,0,0,6.34-3.38C728.84,742.35,732.71,736.93,736.58,734.61Z"/><path class="cls-9" d="M308.73,679.68c6.19-6.19,15.47-12.38,15.47-21.67-12.38,3.1-24.76,7-37.14,10.84a61,61,0,0,1-14.1,1.27c2.18.47,3.59,1.34,3.92,2.88,1.74,8.07-.16,22.24-4.82,38.39a70.18,70.18,0,0,0,11.14-4.63C294,700.57,298.67,688.19,308.73,679.68Z"/><path class="cls-9" d="M700.22,817.4c2.32-1.55,3.86-3.87,7-3.87,0-3.1,7-3.1,3.87-5.42-1.9-2.11-3.86-4.34-5.91-6.48-4.82,4-11.22,6.49-19.69,6.49a66.53,66.53,0,0,0-20.88,3.22c9,1.85,18.18,1.65,26.36,6.06C694,818.94,697.89,818.94,700.22,817.4Z"/><path class="cls-9" d="M226.72,806.56a16.81,16.81,0,0,0-2-12.46c-9.91,8.25-20.67,12.7-31.77,10.92-1.08-.17-2.16-.31-3.22-.43,5.28,2.75,10.15,6.12,15.31,8.94C212,816.62,224.4,815.85,226.72,806.56Z"/><path class="cls-18" d="M524.59,634.8c.77,6.19,6.19,8.51,8.51,13.93-18.57-24.76-56.48-30.17-83.56-18.57,3.09,4.64,9.28,1.55,13.93,2.32-28.3,5.93-54.35,18-74.84,38.15,39.8-24.67,142.59-10.39,193.66,16.13C577.92,659.17,552.94,635.46,524.59,634.8Z"/><path class="cls-10" d="M739.6,702.9C663.78,675,696.28,549.71,645.21,525.62S466.6,546.21,407.76,490.89C355.1,441.38,307.3,409.37,307.3,409.37c-153,59.54-131.06,92.79-131.53,129.56-.32,25.32,13.17,82.6,44.76,121.7,8.81,10.91,27.41,9.59,40.85,9.12-2-.08-4-.13-6-.13,2,0,4,0,6,.13,4.71-.17,8.78-.23,11.58.37a61,61,0,0,0,14.1-1.27c12.38-3.87,24.76-7.74,37.14-10.84,0,9.29-9.28,15.48-15.47,21.67-10.06,8.51-14.7,20.89-25.53,27.08a70.18,70.18,0,0,1-11.14,4.63c-8.43,29.19-25.9,64.86-47.33,82.71a16.81,16.81,0,0,1,2,12.46c-2.32,9.29-14.7,10.06-21.67,7-5.16-2.82-10-6.19-15.31-8.94-35.89-4-60.34,22.47-69.6,34.71a3.72,3.72,0,0,0,3,6h82.93a119.26,119.26,0,0,0,106.28-65.21c21.28-41.82,50.06-91.33,74.28-108.1.65-.45,1.33-.89,2-1.32,20.49-20.14,46.54-32.22,74.84-38.15-4.65-.77-10.84,2.32-13.93-2.32,27.08-11.6,65-6.19,83.56,18.57-2.32-5.42-7.74-7.74-8.51-13.93,28.35.66,53.33,24.37,57.7,52,8.76,4.55,16,9.45,21.14,14.59,16.91,16.9,43.58,27.17,66.94,33.3,4.7.28,9.3.62,13.6-.81,15.47-5.42,32.49-10.84,48.74-9.29,3.87.78,7.74,7,3.87,10.06-3.87,2.32-7.74,7.74-11.61,10.83a24.71,24.71,0,0,1-6.34,3.38c1.11,12,1.83,40.09-13.49,52.81,2.05,2.14,4,4.37,5.91,6.48,3.09,2.32-3.87,2.32-3.87,5.42-3.1,0-4.64,2.32-7,3.87s-6.19,1.54-9.29,0c-8.18-4.41-17.38-4.21-26.36-6.06-18.05,5.91-28.73,18.63-33.94,26.7a4.69,4.69,0,0,0,4,7.22h105S815.43,730.75,739.6,702.9Z"/><path class="cls-19" d="M299.44,326.1c7.95,2,16,3.85,23.9,5.84-3.47-2.74-5.33-4.29-5.33-4.29l37.14-6.07S335,316.82,265.4,305.21c-69-11.5-77.29,15.88-77.44,16.38A245.52,245.52,0,0,1,299.44,326.1Z"/><path class="cls-20" d="M299.44,361.69c-7,3.1-12.38,7.74-18.57,12.38,34.34,3.38,69.5,6.35,103.38,14l7.26-2.37s-13.15-13.92-36.36-30.17c-14.75-10.33-25.75-18.77-31.81-23.56-7.92-2-15.95-3.79-23.9-5.84A245.52,245.52,0,0,0,188,321.59h0L176.8,369.91C218.17,359.43,258.05,362.46,299.44,361.69Z"/><path class="cls-21" d="M280.87,374.07c6.19-4.64,11.61-9.28,18.57-12.38-41.39.77-81.27-2.26-122.64,8.22l-5.48,23.75C221,390.08,271,395,318.91,409.37L384.25,388C350.37,380.42,315.21,377.45,280.87,374.07Z"/><path class="cls-19" d="M177.2,483.93c-1.55,7-3.09,13.16-3.09,20.12-10.75-7-15.9-18.81-21.15-30.57-6.46,70.2,77,99.46,83.41,101.61C205.94,554.72,186.1,519.55,177.2,483.93Z"/><path class="cls-20" d="M153,473c0,.16,0,.33,0,.49,5.25,11.76,10.4,23.59,21.15,30.57,0-7,1.54-13.15,3.09-20.12,8.9,35.62,28.74,70.79,59.17,91.16l.4.14-25.42-60.87A311.53,311.53,0,0,1,161.78,435Z"/><path class="cls-21" d="M237.55,531.9l3.87-34.81c1.47-13.29,16.92-27.36,35.46-39.69a483,483,0,0,0-107.42-40.78c-1.08-.32-2.17-.58-3.26-.8L161.78,435a311.53,311.53,0,0,0,49.57,79.39l-.11-.25Z"/><path class="cls-19" d="M318,409.66l.9-.29C271,395,221,390.08,171.32,393.66l-5.12,22.16c1.09.22,2.18.48,3.26.8A483,483,0,0,1,276.88,457.4c30.05-20,68.21-35.36,68.21-35.36Z"/><path class="cls-20" d="M89.77,378.71c4.64-3.87,12.38.78,17.8-1.55a20.29,20.29,0,0,0,8.55-9.79c-13.65-3.77-34.3-8.88-35-5.55a187.16,187.16,0,0,0-1,30.33,30.43,30.43,0,0,0,3.46-1.83C87.45,388,86.68,381,89.77,378.71Z"/><path class="cls-10" d="M153.19,472.53,153,473S153.74,472.93,153.19,472.53Z"/><path class="cls-22" d="M155.54,406.56c8.51,0,16.24-.77,24.75,1.55-7-.77-13.15,1.55-18.56,5.42-16.91,13.92-26.14,33-30.17,53.21,16.44,3.61,20.74,5.15,21.63,5.79,2.49-5.94,29.6-68.36,69.46-70.55,11.76-.65,19.66-7.25,23.6-16.41C214.63,379.9,182,386.74,155.54,406.56Z"/><path class="cls-10" d="M161.73,413.53c5.41-3.87,11.6-6.19,18.56-5.42-8.51-2.32-16.24-1.55-24.75-1.55,26.44-19.82,59.09-26.66,90.71-21,10.07-23.44-5.81-63.61-49.51-63.61,0,0-53.81-8-68.76,48.82,0,0-1.75-.53-4.57-1.35q2.31,19.33,6.59,38.68c-19,2.28-32,17.93-39,34.58,5.44,10.46,13.42,18.38,25.06,20.76,6.11,1.26,11.23,2.34,15.53,3.29C135.59,446.49,144.82,427.45,161.73,413.53Z"/><path class="cls-18" d="M123.41,369.43c-2-.57-4.48-1.29-7.29-2.06a20.29,20.29,0,0,1-8.55,9.79c-5.42,2.33-13.16-2.32-17.8,1.55-3.09,2.32-2.32,9.29-6.19,11.61a30.43,30.43,0,0,1-3.46,1.83C80.74,408.42,83.35,428,91,442.69,98,426,111,410.39,130,408.11Q125.71,388.78,123.41,369.43Z"/><path class="cls-23" d="M155.7,360.74a8.95,8.95,0,1,0,17.89,0Z"/><path class="cls-24" d="M486.73,519.33c-25,8.25-51.56,11.3-76.65,3.29,0,5.41,6.19,6.19,7,10.83-18.56-1.55-41.77,2.32-55.7-12.38-.78,4.64-3.87,7.74-7.74,10.83-2.11-29.59-21.55-58.54-51.3-64.06l2.56,85.62s10.31-15,19.85-.87,1.74,22.64,1.74,22.64,52.42-1.53,73.83-17.79l-12.54-10.91s70.46-1.85,99-27.19Z"/><path class="cls-25" d="M486.73,519.33c-.86-.21-39.62-9.92-54.9-18.38h-8.6c3.1,4.65,9.29,3.87,13.93,6.19-29.4,6.19-56.48-6.19-77.37-26.3,19.34,2.32,37.14,16.25,57.25,12.38a31,31,0,0,1-13.92-7.74q6.24-1.5,12.36-3.23c-6.41-4.15-12.26-8.44-15.2-11.87-8.54-10-40.3-35.82-55.19-35.69s-43.2,19.58-43.2,19.58l.41,13.57c29.75,5.52,49.19,34.47,51.3,64.06,3.87-3.09,7-6.19,7.74-10.83,13.93,14.7,37.14,10.83,55.7,12.38-.77-4.64-7-5.42-7-10.83C435.17,530.63,461.74,527.58,486.73,519.33Z"/><path class="cls-24" d="M417,493.22c-20.11,3.87-37.91-10.06-57.25-12.38,20.89,20.11,48,32.49,77.37,26.3-4.64-2.32-10.83-1.54-13.93-6.19h8.6a25.52,25.52,0,0,1-3.95-2.59l13.92-.86s-14.16-7.37-26.32-15.25q-6.12,1.74-12.36,3.23A31,31,0,0,0,417,493.22Z"/><path class="cls-26" d="M240.86,628.93c-.82-2.43-8.94-2.43-5.69-7.31,0-.81,4.87.82,4.87,0,2.44-4.87,2.44-11.37,0-14.62-7.19-11.75-18.56-4.08-27.39,4,5.74,9.25,14,19.34,25.8,30.19,0,0,.76-.33,2.14-.87A11.92,11.92,0,0,0,240.86,628.93Z"/><path class="cls-25" d="M318.16,605.5a37.85,37.85,0,0,0-11.52-7.45c-4.87-2.43-13.81-1.62-14.62,4.88-8.94-8.12-6.5-19.49-6.5-30-4.06,1.62-7.31,4.06-8.94,8.12-1.62-14.62-4.07-33.3,6.49-43,6.5-5.69,17.87-2.44,25.18-8.13,23.39-17.36,21.53-50.15,12-75.55-9.8-11.45-23.89-19.48-43.47-20.49,0,0-87.76-4.09-82.66,110.23l.24,0c7.57-6.67,15.74-13.72,17.21-24.77,1.62,4.06,0,7.31.81,11.37,6.5-13,8.93-27.62,11.36-41.43,6,20.22.58,45.67-15.47,57.85l2.19.48s-22.4,23.91,2.17,63.46c8.83-8.1,20.2-15.77,27.39-4,2.44,3.25,2.44,9.75,0,14.62,0,.82-4.87-.81-4.87,0-3.25,4.88,4.87,4.88,5.69,7.31a11.92,11.92,0,0,1-.27,11.41c8.92-3.51,44-16.05,69-6.88.91-8-3.37-15.94-7-23.22a7.4,7.4,0,0,1,2.57-.18,20.94,20.94,0,0,0-2.35-.81l18.81,1.94S320.32,608.77,318.16,605.5Z"/><path class="cls-24" d="M223.76,489.23c-2.43,13.81-4.86,28.43-11.36,41.43-.81-4.06.81-7.31-.81-11.37-1.47,11.05-9.64,18.1-17.21,24.77l13.91,3C224.34,534.9,229.72,509.45,223.76,489.23Z"/><path class="cls-24" d="M305.15,610.06a7.4,7.4,0,0,0-2.57.18c3.65,7.28,7.93,15.22,7,23.22a37.76,37.76,0,0,1,12.95,7.84S321.53,616.7,305.15,610.06Z"/><path class="cls-24" d="M296.7,588.16s7.06-37.45,28-35.57c15.73,1.41,25-63.91-4.44-98.32,9.51,25.4,11.37,58.19-12,75.55-7.31,5.69-18.68,2.44-25.18,8.13-10.56,9.75-8.11,28.43-6.49,43,1.63-4.06,4.88-6.5,8.94-8.12,0,10.56-2.44,21.93,6.5,30,.81-6.5,9.75-7.31,14.62-4.88a37.85,37.85,0,0,1,11.52,7.45C313.66,598.7,305.34,588.24,296.7,588.16Z"/><path class="cls-27" d="M260.39,482.62c-2.21,10-2.25,20.17,1.15,30a73.14,73.14,0,0,0,10.13,4c28.75,5.59,36.53-8.57,41.95-27.2C296,491.82,274.36,492.34,260.39,482.62Z"/><path class="cls-28" d="M318.79,470.37c-19.35,1.24-33.75-8.81-42.35-23.5l-.7.92c-6.85,10.88-12.68,22.75-15.35,34.83,14,9.72,35.58,9.2,53.23,6.8C315.38,483.37,316.89,476.85,318.79,470.37Z"/><path class="cls-27" d="M309.85,422.6c-12.67,4.75-24.55,12.6-33.41,24.27,8.6,14.69,23,24.74,42.35,23.5,2.1-7.12,4.67-14.18,8.56-20.48a61,61,0,0,1-13.9-28.29C312.24,421.9,311,422.23,309.85,422.6Z"/><path class="cls-28" d="M339.27,420a70.55,70.55,0,0,0-25.82,1.56,61,61,0,0,0,13.9,28.29c.07-.12.14-.25.22-.37a18.08,18.08,0,0,1,11.88-8.37A64.49,64.49,0,0,1,339.27,420Z"/><path class="cls-27" d="M339.45,441.15c6.11-1.31,13.22.06,20.05,3.11a47.1,47.1,0,0,1,10.1-12.93A68.39,68.39,0,0,0,339.27,420,64.49,64.49,0,0,0,339.45,441.15Z"/><path class="cls-27" d="M370.82,495.2c-6,2.25-11,2.3-15.1,1-.6.44-1.2.87-1.81,1.29a30.46,30.46,0,0,0,15,4C369.69,499.43,370.3,497.32,370.82,495.2Z"/><path class="cls-27" d="M344.38,487.07a47.5,47.5,0,0,1-6.51-16.69l-.25.1a48.49,48.49,0,0,0,3.11,12.22,27,27,0,0,0,2.23,4.39Z"/><path class="cls-28" d="M344.38,487.07l-1.42,0a30.67,30.67,0,0,0,11,10.41c.61-.42,1.21-.85,1.81-1.29C350.72,494.64,347.05,491.07,344.38,487.07Z"/><path class="cls-28" d="M386.64,481.84c-1.2,3.75-4,7.16-8.7,9.93a47.05,47.05,0,0,1-7.12,3.43c-.52,2.12-1.13,4.23-1.86,6.32a25.41,25.41,0,0,0,14-4.21,26.82,26.82,0,0,0,8-9.86A55.71,55.71,0,0,0,386.64,481.84Z"/><path class="cls-27" d="M387.74,451.09a44.79,44.79,0,0,0-15.29,1.25c10.3,8.46,17.23,20,14.19,29.5a55.71,55.71,0,0,1,4.38,5.61C396.22,476.52,394,462.48,387.74,451.09Z"/><path class="cls-28" d="M369.6,431.33a47.1,47.1,0,0,0-10.1,12.93,57.8,57.8,0,0,1,12.95,8.08,44.79,44.79,0,0,1,15.29-1.25,50.67,50.67,0,0,0-5.6-8.2A58.15,58.15,0,0,0,369.6,431.33Z"/><path class="cls-26" d="M248.94,468.1a110.51,110.51,0,0,1-6.57-26.66c-28,41.88,2.09,63.11,19.17,71.19-3.4-9.84-3.36-20-1.15-30A31.24,31.24,0,0,1,248.94,468.1Z"/><path class="cls-27" d="M242.37,441.44a110.51,110.51,0,0,0,6.57,26.66,31.24,31.24,0,0,0,11.45,14.52c2.67-12.08,8.5-23.95,15.35-34.83l.7-.92a71,71,0,0,1-9.2-33.62C256.16,423.54,248.06,432.92,242.37,441.44Z"/><path class="cls-26" d="M316.11,382.1c-11,3-22.54,8.93-34.38,18.58-5.33,4.34-10.13,8.52-14.49,12.57a71,71,0,0,0,9.2,33.62c8.86-11.67,20.74-19.52,33.41-24.27,1.19-.37,2.39-.7,3.6-1A75,75,0,0,1,316.11,382.1Z"/><path class="cls-27" d="M316.11,382.1a75,75,0,0,0-2.66,39.5A70.55,70.55,0,0,1,339.27,420c1.31-7.56,4.29-14.46,9.56-19.38,5.13-4.7,11.39-9.63,18.29-12.18C352.33,380.39,335,376.94,316.11,382.1Z"/><path class="cls-26" d="M367.12,388.48C360.22,391,354,396,348.83,400.66c-5.27,4.92-8.25,11.82-9.56,19.38a68.39,68.39,0,0,1,30.33,11.29,63.54,63.54,0,0,1,28.9-14.84C390.27,405.44,379.61,395.31,367.12,388.48Z"/><path class="cls-26" d="M340.73,482.7a48.49,48.49,0,0,1-3.11-12.22A20,20,0,0,0,326.26,483c4.93,3,10.76,4.13,16.7,4.12A27,27,0,0,1,340.73,482.7Z"/><path class="cls-27" d="M343,487.09c-5.94,0-11.77-1.13-16.7-4.12a26.93,26.93,0,0,0,3.86,24.37,64.28,64.28,0,0,0,23.79-9.84A30.67,30.67,0,0,1,343,487.09Z"/><path class="cls-26" d="M353.91,497.5a64.28,64.28,0,0,1-23.79,9.84c5.06,7,14,12.64,27.66,14.33A69,69,0,0,0,369,501.52,30.46,30.46,0,0,1,353.91,497.5Z"/><path class="cls-27" d="M391,487.45a26.82,26.82,0,0,1-8,9.86,25.41,25.41,0,0,1-14,4.21,69,69,0,0,1-11.18,20.15,69.63,69.63,0,0,0,7.34.52c15.81.29,27.18-5.22,35.16-13.4A65.58,65.58,0,0,0,391,487.45Z"/><path class="cls-26" d="M396.77,453.45a28.55,28.55,0,0,0-9-2.36c6.27,11.39,8.48,25.43,3.28,36.36a65.58,65.58,0,0,1,9.26,21.34c10.81-11.08,15.41-27.08,16.38-40.22C411,461.92,404,456.51,396.77,453.45Z"/><path class="cls-27" d="M416.66,468.57a57.79,57.79,0,0,0-.81-16.13c-2.43-11.06-8.48-24-17.35-35.95a63.54,63.54,0,0,0-28.9,14.84,58.15,58.15,0,0,1,12.54,11.56,50.67,50.67,0,0,1,5.6,8.2,28.55,28.55,0,0,1,9,2.36C404,456.51,411,461.92,416.66,468.57Z"/><path class="cls-27" d="M220.53,535.12l19.89-12.89S242.87,549.33,220.53,535.12Z"/><path class="cls-19" d="M786.1,396a11.19,11.19,0,0,1-11.19,11.19c-6.17,0-32.14,1.65-32.14-4.52s26-17.85,32.14-17.85A11.19,11.19,0,0,1,786.1,396Z"/></g></g></svg>