<svg xmlns="http://www.w3.org/2000/svg" viewBox="0 0 297.21 177.93"><defs><style>.cls-1{fill:#660c44;}.cls-2{fill:#af086f;}.cls-3{fill:#524b5b;}.cls-4{fill:#686072;}.cls-5{fill:#645b6d;}.cls-6{fill:#a191b7;}.cls-7{fill:#6f657a;}.cls-8{fill:#fff;}.cls-9{fill:#d1a900;}.cls-10{fill:#5aad4b;}.cls-11{fill:#9288a3;}</style></defs><title>air_guardian</title><g id="Layer_2" data-name="Layer 2"><g id="Capa_1" data-name="Capa 1"><path class="cls-1" d="M132.9,80.46c-6.1.9-4.5.69-3.6.69s12.54.76,10.88,6.58.83,6.87,5.48,5.76,3.67,2,7.62,6,12.13,4.29,12.13,4.29l7.35-2.49L159.66,99s-3.68-9.29-10.12-8.87-7.56.9-7.49-3.33S139,79.56,132.9,80.46Z"/><path class="cls-2" d="M171.84,159.66l1.79-6.37s.05,7,3.18,7,2.29-6.61,2.29-6.61-2.34-5.87-2.54-6.36l-4.77-8.06c-.15,0-8.55,3.13-14.37,2.34,0,0-.7,1.29,2.49,1.84s9.59-.8,9.59-.8l-9.64,2.94s1.09,2,5.12,1.74a13.43,13.43,0,0,0,5.71-1.6c0,.15-4.52,4.18-9.69,4.43,0,0,.25,2,3.73,1.54s6-3.33,6-3.18-3.48,6-6.71,6.26c0,0,1,1.45,3.23.65s4.18-5.12,4.18-5.12S168.36,158,171.84,159.66Z"/><path class="cls-1" d="M161.35,124.85c-2.09-1.14-2.24-1.64-2.24-1.64s-.2,4,5,4.53,15.51-.75,15.56-1l5.77-4.77c-.49-.45-10.94-7.66-10.94-7.66l.35,7.36s-5.22,0-7.66-2.29l-2.43-2.28s-1.1,1.44.89,3.23,4.23,3.43,4.23,3.43a7,7,0,0,1-4.53-2.14,16,16,0,0,1-2.43-4.13,3.05,3.05,0,0,0,.55,3.88,15,15,0,0,0,3.18,2.64,5.63,5.63,0,0,1-3.58-1.15,7.92,7.92,0,0,1-1.94-3.53s-1.84,2.19-.4,3.83,4.72,2.19,4.72,2.19A5.41,5.41,0,0,1,161.35,124.85Z"/><path class="cls-1" d="M168,145.46a11.72,11.72,0,0,0,3.64-1.22l2-1.61a5.81,5.81,0,0,1-2,1.61c-2.07,1.69-5.19,4.2-6.25,4.88-1.64,1,1.5,2.68,5.08-1.05s-2.84,4.4-2,7.76,2.31,3.73,2.31,3.73a11.71,11.71,0,0,1,0-5.67,23.11,23.11,0,0,1,1.94-4.48s-3.2,7.69.75,10.82l.82-7.68s0,7.6,4.18,9.24l-1.94-6.86s2.91,6.79,5.52,6.57-2.17-15.22-2.17-15.22l-4-14.69A14.65,14.65,0,0,1,163.51,140s-.15,1.71,4.1,1.12a14.65,14.65,0,0,0,4.92-1.51l1.12-.73a5.92,5.92,0,0,1-1.12.73c-2.16,1.39-6.93,4.26-9.24,4.26C163.29,143.89,163.73,146.21,168,145.46Z"/><path class="cls-1" d="M173.58,142.63l-2,1.61A5.81,5.81,0,0,0,173.58,142.63Z"/><path class="cls-1" d="M172.53,139.63a5.92,5.92,0,0,0,1.12-.73Z"/><path class="cls-1" d="M124.8,93.25s1,4.48,4,6.27,13.13,4.4,13.13,4.4-10.22-1.79-12.83-3.13c0,0,.67,2.68,6.49,5.07S151,108,151,108s-11.56,2-16.33.15c0,0-.15,2.46,6.19,3.72s13.42-.67,13.42-.67-6,3.06-11.71,3.06c0,0,.38,1.64,7,1.27a31.06,31.06,0,0,0,12.38-3.73s-7.53,4.7-12.38,5.44c0,0,1.64,3.21,7.39,1.27a23.76,23.76,0,0,0,9.62-6.71s-4.78,7.68-8.13,8.43c0,0,3.65,2.23,8.05-1.64a12.17,12.17,0,0,0,4.18-9l12,4.4L160.9,99.44c-.37,0-20.51-1.41-27.75-6.34S125,87,125,87s-.6,2.68,2.54,5.74,11.33,6,11.33,6-6.11-.9-9-2.24A22.34,22.34,0,0,1,124.8,93.25Z"/><path class="cls-1" d="M204.65,87.76l-.32-.22Z"/><path class="cls-1" d="M257.72,72.52l-1.1,0S257,72.51,257.72,72.52Z"/><path class="cls-1" d="M297.21,43.19c-13.15,8.9-43.22,18.14-44.19,18l-42.7,6.54L179,83.91A10.68,10.68,0,0,0,183,91.75c4,3.18,9.93,2.59,9.93,2.59s-4.27-6.2-4.23-7,2.58,3.64,6.62,5.46A12.73,12.73,0,0,0,202.35,94c-1.82-.56-6.54-7.82-6.54-7.82a27.31,27.31,0,0,0,7.57,5.29A15.34,15.34,0,0,0,212,93l-7.31-5.28-.32-.22.32.22a28.75,28.75,0,0,0,10.9,4.68c6,1,8.7-.14,8.7-.14S213.87,86.55,213,85.9a46.4,46.4,0,0,0,13.16,4.45c8.74,1.56,12.1-1.23,12.1-1.23l-12.93-5A82.24,82.24,0,0,0,238,86.17a34.06,34.06,0,0,0,12.57-1.78l-11.22-3.55a57.1,57.1,0,0,0,15.15,1.43c8.82-.28,10.7-3.23,10.7-3.23a31.68,31.68,0,0,1-13-2.46,51.76,51.76,0,0,0,15.17.55,24.48,24.48,0,0,0,12.38-5.06c-3.61,1-17.94.58-22,.45-.73,0-1.1,0-1.1,0l1.1,0a115.76,115.76,0,0,0,14.38-.81c10.29-1.1,14.36-5.1,14.36-5.1l-14.86-.38a111,111,0,0,0,15.41-3c6.61-1.94,6.69-6.81,6.69-6.81-5.22,4-22.66,4.68-22.66,4.68s12.84-4.74,18.61-7.86S297.21,43.19,297.21,43.19Z"/><path class="cls-2" d="M229,78.58l-.08,0Z"/><path class="cls-2" d="M223.46,81l-.85-.26S222.9,80.82,223.46,81Z"/><path class="cls-2" d="M281.28,49.53c-6.75,7.35-41.29,11.71-42.34,12.3l-56.27,15.4c.17.07-10.36,5-10.36,5a26.63,26.63,0,0,0,5.8,6.63c4.08,3.48,10.22,2.46,10.22,2.46s-7.75-6.8-7.72-7,2.61,2.34,6.63,4.74,11.23,1.67,11.23,1.67l-7.9-6.52A40.56,40.56,0,0,0,197,88.1c4.23,2.12,14.07,2.05,14.07,2.05l-10.14-6.27a63.86,63.86,0,0,0,9.43,4.46c5.19,1.88,15.36,0,15.36,0l-11.84-5.4A86.11,86.11,0,0,0,226,86.05,28.73,28.73,0,0,0,238,85.41L223.46,81c-.56-.16-.85-.26-.85-.26l.85.26A84.09,84.09,0,0,0,235,83.29c8,1.09,10.65-.74,10.65-.74-6.37-.07-15.83-3.63-16.72-4l-.08,0,.08,0c.52.19,3.83,1.32,12.15,2.06,9.12.81,9.32-2,9.32-2-9-1-10.46-5.09-10.46-5.09a74.72,74.72,0,0,0,12.39,1.75,23.16,23.16,0,0,0,12.94-3.57,29.66,29.66,0,0,1-15.82-3.32s12.06,1.35,18.58-.78a15.1,15.1,0,0,0,8.78-6.86c-6.85,3.47-17.17,1.86-17.17,1.86s10.05-1.37,15.18-4.79A16,16,0,0,0,281.28,49.53Z"/><path class="cls-1" d="M106.09,81.23l.41-.28Z"/><path class="cls-1" d="M43.8,49.79c.89.1,1.35.13,1.35.13Z"/><path class="cls-1" d="M131.86,90.79c5.27-4,5.87-10.84,5.87-10.84l-35.7-29L51.11,34C49.92,34,14.72,15.31,0,0,0,0,1.19,10.54,7.76,16.11S29.24,30.83,29.24,30.83s-21.09-4-26.85-10.74c0,0-.6,7.16,7.16,11.14a119.3,119.3,0,0,0,18.29,7l-18.09-2s4.37,6.56,16.7,9.94A120.84,120.84,0,0,0,43.8,49.79l1.35.13s-.46,0-1.35-.13c-5-.51-22.45-2.4-26.7-4.44a29.52,29.52,0,0,0,14.32,9.54,52.68,52.68,0,0,0,18.5,1.79,32.36,32.36,0,0,1-16.11,1.39s1.87,4.65,12.53,6.57a58.29,58.29,0,0,0,18.6.5L50.82,68.42s7.16,4.37,15,4.77a84.4,84.4,0,0,0,15.71-.89l-16.4,5.17s3.67,4.67,14.51,3.87a49.15,49.15,0,0,0,16.61-4.27c-1.19.79-14.62,7.46-14.62,7.46s3.09,2.09,10.54,1.69c6.38-.34,12.32-4,13.91-5l.41-.28-.41.28-9.63,6.48a15.67,15.67,0,0,0,10.64-.8A32.13,32.13,0,0,0,117,80.45s-6.76,9.84-9,10.34c0,0,3.58,1.39,8.75-.59s8.89-8.1,8.82-6.89-6.14,9.57-6.14,9.57S126.59,94.77,131.86,90.79Z"/><path class="cls-2" d="M77.88,63.6l.08,0Z"/><path class="cls-2" d="M68.12,37.32C66.93,36.27,25.61,24,18.45,12a25.37,25.37,0,0,0,6.63,13.28c5.75,5.89,17.76,9.62,17.76,9.62s-12.76.6-20.59-5.67A21.29,21.29,0,0,0,32,40.82c7.6,4.25,22.45,4.33,22.45,4.33a30.58,30.58,0,0,1-19.69,2.16s6.56,6.86,15.21,7.46a75.19,75.19,0,0,0,15.29-.45S62.82,60,51.79,60c0,0-.15,4.18,11,4.55,10.26.34,14.43-.76,15.06-.94l.08,0-.08,0c-1.14.34-13.14,3.95-20.87,2.95,0,0,2.9,3.14,12.82,2.91a85.22,85.22,0,0,0,14.38-1.4l1.06-.24-1.06.24L66,72.07a30,30,0,0,0,14.39,3,90.47,90.47,0,0,0,15.22-2.54L80.42,78.41S92.51,83,99.07,81.1a68.7,68.7,0,0,0,12.08-4.93L98,83.63s11.94,1.79,17.38-.59a46.88,46.88,0,0,0,8.35-4.55l-10.51,8.2S121.82,89,127,86.17s8.73-6.12,8.73-5.82-10.37,9-10.37,9,7.31,2.54,12.75-1.86a36,36,0,0,0,8-8.73s-12.08-9.1-11.86-9.17Z"/><path class="cls-2" d="M84.21,68.06l1.06-.24Z"/><path class="cls-3" d="M165.57,126.82l-1.44,1.84s5.6.17,6-.08l12.51-6.84c.2,0-7.78-4.65-7.78-4.65l1.34,5s-7.24.94-9.6-1.4a2.72,2.72,0,0,0,2,2.91,3.3,3.3,0,0,1-3.45.2s.07.92,1.46,1.42l-2.76,1.59Z"/><path class="cls-3" d="M175.14,154.86l.15,3.13s2,.45,2-2.46a3.14,3.14,0,0,0,3,2.46c2.61.22-.52-13.35-.52-13.35l-5.67-11.86s-5.74,9.47-4.62,15.66,2.46,6.94,2.46,6.94l.07-3.88s2.54,4.18,1.12,6A7.14,7.14,0,0,0,175.14,154.86Z"/><path class="cls-1" d="M143.67,85.15c1.84,5.63,6.48,4.77,6.48,4.77,3.42,9.17,13.33,8.44,13.69,8.44l6-6.92-.26-25.76s-1.19-4.85-7.92-9.5-4.76,4.53-4.76,4.53l-12.6,16.13S141.84,79.53,143.67,85.15Z"/><path class="cls-4" d="M138,98.32s.08,3.21,3.88,5.6,9.7,1.94,9.7,1.94a23.65,23.65,0,0,1-9.4-.52s.15,2.16,5.82,3.58,7.53.59,7.53.59-2.91,2.24-8.65.9c0,0,4,4,8.8,3.43s6.26-2.09,6.26-2.09a6,6,0,0,1-4.32,3.21s4.85,2.91,9.25-.3S165,95.12,165,95.12l-5.22-1.87s1.12,5.82-9.55,4.33-11-2.84-11-2.84.22,3.21,4.47,4.55a39.82,39.82,0,0,0,7.83,1.65S145,103.55,138,98.32Z"/><path class="cls-3" d="M167.77,113.56c1.85-3.59-.63-12.15-2-16.22l-4.07-2.74h-2c-.41,1.62-2.2,4-9.47,3l-2.63-.4a13.86,13.86,0,0,0,10.69,3S155,102,148.52,101.9c0,0-1,2,4.25,2.39s6.71-.6,6.71-.6-2.46,1.72-7.9,2.17c0,0,1.49,1.86,5.29,1.79a14,14,0,0,0,4.85-.8c-1.17.54-4.14,1.9-6.19,2.66,0,0,2,1.42,6.12,1a10.77,10.77,0,0,0,4.56-1.14l-4.42,3.45A5.27,5.27,0,0,0,167.77,113.56Z"/><path class="cls-2" d="M144.42,54.7c-.63-1.73-3.68-3.06-5.39-1.42s-3.19.78-3.65-1.17-1.6-3.24-2.9-2.4-1.78,1.43-1.92.7l-.13-.73s-.52,2,.67,2.19,1.34-2.52,2.42-1.5-.5,5.2,2.22,5.74,3.81-2.62,5.08-1.54.57,3.56,1,4,2,2.87,2,2.87l1.35-.34c0,1.63-.07,3.53-.07,3.53L158,69.53a10.74,10.74,0,0,0,0-1.91l7.54,6.3c1.48,3.25,12.11,6.47,12.75,3.26s-.18-3.6-1.35-5.27,2.16-2.48.56-6.91-6.64-4-6.64-4A11.57,11.57,0,0,0,169.35,54c-2.07-3.31-6.9-.76-7.81-3s3.89-3.09,2.52-7.59-4.25-2.3-7.9-2.1-.95-1.17-1.66-3.83-4.59-.91-4.59-.91,3.65.38,3.17,2.9,2,2.83,5.44,4S160,47.53,157.6,50c-1.24,1.3.07,4.38,1.59,7,.21.26.43.58.68,1l2.25,3.45A45.79,45.79,0,0,1,159.19,57c-1.6-2-1.77-.4-2.68-2.39-1-2.23,1-2.76-1-5.51s-3.86-.89-4.25-2.5,4-2.24,1.36-4.4-3.79.37-3.79.37.28-.53,1.53-.42,1.91,2,.34,3.09-2,1.74-.88,4.28,2.39,0,3.15,2.92c.58,2.25.34,1.78-.64,2.57-.11-2.81-2.66-6.21-6-5.71-3.82.59-5-1.94-3.77-4.95s.9-5.81-1.62-5.9-3.7.24-3.2-.86l.51-1.09s-2.55,2.16-1.15,3.53,4.13-2.1,4.62.27-5.52,6.43-2.4,9.69,7.51.07,8.18,2.69c.46,1.77-.87,3.55-1.75,4.83C144.78,57.41,144.89,56,144.42,54.7ZM151,59.61l.23-.06a14.33,14.33,0,0,0,1.13,2.29C151,61.35,150.76,60.58,151,59.61Z"/><path class="cls-1" d="M144.42,54.7c-.63-1.73-3.68-3.06-5.39-1.42s-3.19.78-3.65-1.17-1.6-3.24-2.9-2.4-1.78,1.43-1.92.7l-.13-.73s-.52,2,.67,2.19,1.34-2.52,2.42-1.5-.5,5.2,2.22,5.74,3.81-2.62,5.08-1.54.57,3.56,1,4,2,2.87,2,2.87l1.35-.34c0,1.63-.07,3.53-.07,3.53L158,69.53a10.74,10.74,0,0,0,0-1.91l7.54,6.3a4.29,4.29,0,0,0,1.26,1.47c1-1.42,1.67-3.76.52-7.62-2.55-8.55-7.84-6-7.84-6,4.87,1.69,2,7.26,2,7.26s.2-3.58-3.88-5.66-2.49-3-2.59-9.85c-.09-6.66-5-.86-3.07-6.15a.86.86,0,0,1-.69-.72c-.17-.72.64-1.25,1.33-1.81,0-2-1.36-2.84-2.81-3.24a2.4,2.4,0,0,0-.95,1s.28-.53,1.53-.42,1.91,2,.34,3.09-2,1.74-.88,4.28,2.39,0,3.15,2.92c.58,2.25.34,1.78-.64,2.57-.11-2.81-2.66-6.21-6-5.71-3.82.59-5-1.94-3.77-4.95s.9-5.81-1.62-5.9-3.7.24-3.2-.86l.51-1.09s-2.55,2.16-1.15,3.53,4.13-2.1,4.62.27-5.52,6.43-2.4,9.69,7.51.07,8.18,2.69c.46,1.77-.87,3.55-1.75,4.83C144.78,57.41,144.89,56,144.42,54.7ZM151,59.61l.23-.06a14.33,14.33,0,0,0,1.13,2.29C151,61.35,150.76,60.58,151,59.61Z"/><path class="cls-2" d="M178.59,67.1a5,5,0,0,0-2.53-2.39l-3.87,2.09s3.75,11.89,3.8,12,.44.12,1.72-.75a3.34,3.34,0,0,0,1.09-3.7c-.29-1.29,1.27-1.23,1.31-2.46a5,5,0,0,0-1.31-2.68S179.12,68.63,178.59,67.1Z"/><path class="cls-2" d="M172.17,89.25c-2.83-2.53-6.27,5.68-5.81,7a50.16,50.16,0,0,0,3.08,5.5l2.36-3.4s2.71-2.31.81-4.3C172.61,94.06,175,91.78,172.17,89.25Z"/><path class="cls-2" d="M157.31,95.64h0Z"/><path class="cls-1" d="M144.45,58.26c-3.4-3.37-4.92,0-8.09,2s-1.42-.59-3.35-2.62S128.47,59,128.47,59s3.44-1.43,4.24,1.06,3.15,1.57,6.83,1,3.27,3,2.36,6.33c-.47,1.76,2.2,3.89,4.85,5.51a11.57,11.57,0,0,1,1.07.53l3.69,2a45.37,45.37,0,0,1-4.76-2.52c-2.42-1-1.79.5-3.57-.83-2-1.5-.41-3-3.56-4.46s-3.89,1.08-5-.17,2.52-4-.93-4.6S130.47,65,130.47,65s0-.61,1.17-1.12,2.65.83,1.81,2.6-1,2.54,1.28,4.26,2.15-1.16,4.24,1.09.72,1,.25,4.15,6.51,5.92,6.51,5.92l14.92,3c2.9,2.18,14-.09,13-3.28s-1.9-3.13-3.77-4.06.73-3.27-2.84-6.45-7.88-.34-7.88-.34a11.75,11.75,0,0,0-4.81-5.57c-3.46-2-6.54,2.67-8.46,1.08S147.86,61.62,144.45,58.26Z"/><path class="cls-2" d="M177.81,73.73c.5-1.83-1-2.11-1-2.11l-11.45,7.87s.62,9.64.19,10,2.57,5.22,3.57,5.69S172,93.6,172,92.27s.92-.76,2.39-2.1.63-5.33.63-5.33a2.65,2.65,0,0,0,2.38-1.76,2.48,2.48,0,0,0-1-3l.82-.33c.82-.34.49-2.3-.25-3.6S177.31,75.55,177.81,73.73Z"/><path class="cls-2" d="M175.47,69.75c-2.68-2.22-11.8,13.5-11.8,13.5l4.09,9.18c.39-.39,8.53-7.9,9.26-11.7S176,74.88,176,74.88,178.15,72,175.47,69.75Z"/><path class="cls-5" d="M174.55,74.62a4.73,4.73,0,0,0-2,.93l-.21,1.23a5.39,5.39,0,0,0,2.12-.68C175.36,75.51,175.44,74.58,174.55,74.62Z"/><path class="cls-5" d="M162.25,131.94c4.17-1.37,24.12-2.76,27.09-3.29a6,6,0,0,0,4.12-2.71L190,124.25l-5.65-3.12A79.91,79.91,0,0,0,174,123c-4.49,1.21-17.32,8.9-17,10S158.08,133.31,162.25,131.94Z"/><path class="cls-5" d="M178.87,118.3c3.31,2.71,5,5.43,7.86,8a4.64,4.64,0,0,0,6.73-.38c.6-1-2.09-6.77-5-12.49s-13.3-12.83-13.3-12.83l-5.47-4.16.89,10.3S175.55,115.59,178.87,118.3Z"/><path class="cls-6" d="M173,81.39c-1.35-1.27-15.29-5-15.29-5S156.52,85.93,158,92s5.9,14,5.9,14,8.77-.1,11.39,1.53l-.17-6.84a56.42,56.42,0,0,1-4.38-4.85C169.49,94,174.38,82.65,173,81.39Z"/><polygon class="cls-5" points="172.58 72.71 170.71 71.15 162.14 79.61 164.53 81.47 168.39 80.95 172.58 72.71"/><path class="cls-5" d="M182.53,91.44l-.1-.26A.64.64,0,0,0,182.53,91.44Z"/><path class="cls-5" d="M256.69,62.74c5.53-2.64,6.4-4.88,6.4-4.88-18.72,2.63-49.29,1.09-59,5s-26.27,14.86-30.88,15.66-7.86,6.35-7.86,6.35l0,.9,2.3,7.26s1.82-4.42,5.62-5.75,10.56,7.4,10.56,7.4l-1.3-3.23a.64.64,0,0,1-.1-.26l.1.26a10,10,0,0,0,2.43,2.3c2.56,2,7.2,1.7,7.2,1.7L188.81,91a43.21,43.21,0,0,0,4.07,2.36c2.66,1.38,7.82.21,7.82.21l-4.12-4.82s1.82,1.71,6.55,3.38,10.61-.5,10.61-.5c-3.74-.44-6.43-5.55-6.43-5.55s1.8,1.51,7.77,2.66A24.57,24.57,0,0,0,227,87.63c-8.61.11-10.1-3.86-10.1-3.86s1.86,1.12,9.21,1.32,8-1,8-1c-7.7-.26-6.91-3.44-6.91-3.44a61.43,61.43,0,0,0,6.4,1.49c3.29.57,6.17-2.12,6.17-2.12a6.49,6.49,0,0,1-6.17-4.25,16.37,16.37,0,0,0,8.25,1.29c4.33-.58,6.83-4.54,6.83-4.54-4.7,1.32-11.18-1.12-11.18-1.12s3.86-.66,9.26-1.06a11,11,0,0,0,8-4.46l-9.34-.55A28.61,28.61,0,0,0,256.69,62.74Z"/><path class="cls-7" d="M245.39,59.92l-7.55-.32c-14.07.51-27.83.86-33.78,3.25-9.75,3.9-26.27,14.86-30.88,15.66a9.78,9.78,0,0,0-4.81,2.63,16.25,16.25,0,0,1,5.51-.44c5.35.4,9,6.58,11,7.31s-1.75-4.17-1.75-4.17c3,3.49,10.79,3.66,10.79,3.66l-3.34-3.16c5.42,4,15.94,3.13,15.94,3.13-2.84-1.27-4.47-6.2-4.47-6.2a19,19,0,0,0,12.79,3,9.66,9.66,0,0,1-4.31-5c5.27,4.92,15.33,3.28,15.33,3.28C223.46,81.34,221,77,221,77c5.75,2.15,12.44-.44,12.44-.44l-4.37-5.4c8.57,1.47,12.75-3.63,12.75-3.63l-7.62-.92C244,65.75,245.39,59.92,245.39,59.92Z"/><path class="cls-6" d="M234.64,61.73s-11.2-.58-19.73-.95a42.59,42.59,0,0,0-10.85,2.07c-9.17,3.67-24.33,13.58-29.94,15.41a19.34,19.34,0,0,1,10.25,5.58l-.83-2.9,6.37,1.26-2-2.84s8.39,1.87,10.07,2.16-3.51-3.36-3.51-3.36c4.79,2.29,12.41,1.36,12.41,1.36l-2.92-3.6c7.85,3.24,15,2.23,15.77,2.36S212.85,72,212.85,72c9.55,2,13.41-1.74,13.41-1.74l-4-3C232.18,66.9,234.64,61.73,234.64,61.73Z"/><path class="cls-6" d="M173,81.39c-1.35-1.27-15.29-5-15.29-5S156.52,85.93,158,92s5.9,14,5.9,14,8.77-.1,11.39,1.53l-.17-6.84a56.42,56.42,0,0,1-4.38-4.85C169.49,94,174.38,82.65,173,81.39Z"/><path class="cls-5" d="M158,92c1.51,6,5.9,14,5.9,14s2.11,0,4.58.14l-.4-1.71,0-2.44-.68-6.37,0-6.92s1.16-2.86.07-5a3.66,3.66,0,0,0-2.94-2.17s3.23-.79,5.25-1.51c-4.53-1.58-12-3.6-12-3.6h0l.44,1.68-.6-.2C157.31,80.78,156.88,87.38,158,92Z"/><path class="cls-6" d="M179.78,132.74c.83-2.54-4.46-25.28-4.46-25.28s-3.44-4.66-3.51-4.9l-5.58-3.84s-1.62-3-4.31.54,7.76,24,9,27.41S177,139.14,177,139.14A59.73,59.73,0,0,0,179.78,132.74Z"/><path class="cls-6" d="M188.55,169.54s-1.69-4.68-4.34-13.23-4.69-25.21-4.69-25.21l-4.62-.25s-3,7.12-1.37,13.92,10.75,22.24,12.62,25.55S187.46,170,188.55,169.54Z"/><path class="cls-5" d="M177.85,140.47l.06.18C178,140.8,178,140.71,177.85,140.47Z"/><path class="cls-5" d="M177.85,140.47c-.67-2.28-5-23.55-5-23.55l-1.08,3.49-3.69-16L167.05,102c-.31-.43.07-1.62-.53-.79l-.29-2.51s-1.62-3-4.31.54,7.76,24,9,27.41a71.12,71.12,0,0,0,3.14,6.81,23.79,23.79,0,0,0-.51,11.29c1.61,6.8,10.75,22.24,12.62,25.55s1.31-.29,2.4-.78c0,0-1.08-3-2.86-8.53-3.72-4.94-7.52-10.6-8.83-14.39-2.75-8-1.05-10.78-1.05-10.78S177.43,139.47,177.85,140.47Z"/><path class="cls-6" d="M173.63,88.71c.17-1.89-1.78-5.43-1.78-5.43l-4.17,1.63,2.14,6.53S173.46,90.6,173.63,88.71Z"/><path class="cls-5" d="M185.93,166.31a1.7,1.7,0,0,0-.27-.21Z"/><path class="cls-6" d="M172.09,77.14c2.08-.84,4.28-4.22,4.28-4.22,1.59-6-3.6-7-5.19-6.71s-3.77,2.55-4.36,5a16.22,16.22,0,0,0,.49,7C167.53,78.45,170,78,172.09,77.14Z"/><path class="cls-5" d="M168.92,73.34c.29-.6,1.39-1.38,1.36-1.49s-.92-1.57-1.57-1.78-1,2.06-1.28,3.2a5.46,5.46,0,0,0-.05,2.24l1.05-.18A10.31,10.31,0,0,1,168.92,73.34Z"/><path class="cls-5" d="M172.09,66.18a3.26,3.26,0,0,0-.91,0c-1.58.29-3.77,2.55-4.36,5a16.22,16.22,0,0,0,.49,7,1,1,0,0,0,.51,0,1.76,1.76,0,0,1-.17-1.33c.22-1.32.78-1.63.78-1.63a3.76,3.76,0,0,1-.26-2.7,3,3,0,0,1,1.58-1.56s-.21-.38-.06-.53a.36.36,0,0,1,.37,0s.42,1.26.22,1.35.33,0,.61-.34l-.36-1.19s.36-.56.69-1A7.36,7.36,0,0,0,172.09,66.18Z"/><path class="cls-2" d="M170.09,76.07a2,2,0,0,0-.35-.38c-.11,0-.27,0-.4-.2s-.17-.33-.25-.37l-1-.46a3.39,3.39,0,0,0,.81,1.75,1.36,1.36,0,0,0,1.44.13l-1-.56,1.1.55Z"/><path class="cls-8" d="M170.43,76.53l-2.31-1.87a4.69,4.69,0,0,0,.93,1.53A1.64,1.64,0,0,0,170.43,76.53Z"/><path class="cls-9" d="M169.69,71.7a.42.42,0,0,0-.45-.71.42.42,0,0,0-.11.57A.4.4,0,0,0,169.69,71.7Z"/><path d="M169.92,71.17l.36.68s.23-1.13-.34-1.65a.84.84,0,0,0-1.09-.14s1.52-.26,1.37,1.52Z"/><path d="M169.82,70.88a1.41,1.41,0,0,0-1.12-.66l-.1.4A2.06,2.06,0,0,1,170.31,72,2.46,2.46,0,0,0,169.82,70.88Z"/><path class="cls-9" d="M173.57,74.66a.4.4,0,0,0,.11-.57.39.39,0,0,0-.55-.14.4.4,0,0,0-.12.56A.42.42,0,0,0,173.57,74.66Z"/><path d="M174.4,74.55a.84.84,0,0,0-.31-1c-.61-.47-1.69-.06-1.69-.06l.73.25-.45-.24C174.41,73,174.4,74.55,174.4,74.55Z"/><path d="M174.27,74.72a1.38,1.38,0,0,0-.84-1,2.61,2.61,0,0,0-1.18-.3,2.07,2.07,0,0,1,1.64,1.46Z"/><path class="cls-1" d="M174.27,73c.27.18.88.64.88.64a4.75,4.75,0,0,0-1-.92,5.68,5.68,0,0,0-1.82.27l.09.23S174,72.81,174.27,73Z"/><path class="cls-1" d="M170.76,71.52l.25,0a16.55,16.55,0,0,0-.65-2c-.19-.27-1.1-.25-1.1-.25s.77.14,1,.45A14.78,14.78,0,0,1,170.76,71.52Z"/><path d="M170.78,75.31A8.44,8.44,0,0,1,172,72.58a10.1,10.1,0,0,0-1,1.45,11.88,11.88,0,0,0-.38,1.17,1.54,1.54,0,0,1-.63-.15,2.69,2.69,0,0,1-.44-.6,2.1,2.1,0,0,0,.38.73A1.75,1.75,0,0,0,170.78,75.31Z"/><path class="cls-2" d="M175.25,71.81a1.46,1.46,0,0,0,1.22,1.31,3.61,3.61,0,0,0,.44-3.49c-.86-1.79-1.95-.34-2.85-.33s-.41-1.92-2-2.4-1.35.95-2.28,1.32-.67-1-2.16-.72-1,1.08-1.34,1.68-1.45-.47-1.45-.47c.08.44,1.36,1.61,1.88.77s1.16-1,1.68-.09,1.2.15,2-.33,1.1.38,2.19,1.41,2.79-.59,2.79-.59A5.26,5.26,0,0,0,175.25,71.81Z"/><path class="cls-2" d="M178,67.39c-1-1.11-.67-3.84-2.69-4.88s-4.25.26-5.86-1.59-4.35-2.39-5.09-.38-.63,4.59-1.89,3.59-1.63-1.95-2.57-1.5a1.76,1.76,0,0,0-1.05,1.18s1.44-1.28,2,0,.65,3.48,2.45,2.89,2.38-1.87,3.21-.56a5.36,5.36,0,0,1,.87,1.66l-1.08.5a2.62,2.62,0,0,1,2,.4c.67.65,2.59-.27,2.59-.27l1.89.78s.64.66.8.56a11.23,11.23,0,0,1,2.45-.3,17.19,17.19,0,0,1,.17,2.18s1.06,1.68,1,1.58,2.17-2.14,1.48-2.77S179,68.51,178,67.39Z"/><path class="cls-2" d="M148.71,67.72c1.49.31,2.33,4.78,5,3.8s1.91-4.3,3.59-4,2.39,2.79,3,3,3.26,1.44,3.26,1.44l6-6.21s-3.57-2.16-5.23.51-2.38.66-3.85-.51-4.82-.7-5.44,1.64-2.36,2.38-3.79.93-3.11-2-3.79-.54-.79,2.19-1.29,1.62l-.51-.56s.61,2,1.75,1.54S147.23,67.41,148.71,67.72Z"/><path class="cls-1" d="M157.28,67.49c1.67.26,2.39,2.79,3,3s3.26,1.44,3.26,1.44l2.93-3a7.29,7.29,0,0,0-3.24.74c-2.2.93-1.6-2-4.36-3.69-1.26-.75-2.66.2-3.83,1.46a2.3,2.3,0,0,1-1.42,1.79,19.63,19.63,0,0,1-1.17,1.67l.82.8a2.64,2.64,0,0,0,.44-.12C156.34,70.54,155.6,67.22,157.28,67.49Z"/><path class="cls-2" d="M169.06,67.34a6.51,6.51,0,0,0-3.53.69L165,70.45s1.92,1,3.27.13S169.16,67.45,169.06,67.34Z"/><path class="cls-2" d="M176.09,74.74c1.26.46,1.45-1.31,1.2-2l-1.55-4.32-.81.75s-.76,2.08.25,3.33S174.83,74.28,176.09,74.74Z"/><path class="cls-10" d="M168.38,113.36c.07-.12.05-.17.05-.17Z"/><path class="cls-10" d="M174.7,111.31a.72.72,0,0,0,0-.22Z"/><path class="cls-6" d="M193.55,125.59c0-1.61-2.42-6.9-5.1-12.14a20.8,20.8,0,0,0-3.56-4.68l-3,6.82s3.93,6,7.37,6.57C191.16,122.5,192.61,124.2,193.55,125.59Z"/><path d="M169.65,71.06c-.29,0-.4.57-.4.57.32,0,.49-.49.49-.49S169.94,71,169.65,71.06Z"/><path d="M173.52,74.06c-.29,0-.4.57-.4.57.32,0,.5-.48.5-.48S173.81,74,173.52,74.06Z"/><path d="M169.91,76.32l-1.3-1-.12.17a3,3,0,0,0,.56.75,1.51,1.51,0,0,0,.72.35Z"/><path class="cls-2" d="M170.21,76.47l-.23.09a1.54,1.54,0,0,0,.32,0Z"/><path class="cls-5" d="M139.1,83.13c.17-.19.18-.28.18-.28Z"/><path class="cls-5" d="M151.75,80.15c4.52,2.3,5.87,7.76,5.87,7.76L162.11,80l.24-1s-2.91-7-8.58-8.89-24.22-17.78-35.71-24.21S67.49,35.12,44.35,28.38c0,0,.61,2.75,7,6.89A39,39,0,0,0,65,40.48l-12-1.22A13.72,13.72,0,0,0,62.28,46c6.74,1.53,11.49,3.06,11.49,3.06S65,50.6,59.37,48.14A13.09,13.09,0,0,0,67,54.73a22.94,22.94,0,0,0,10.73.16A8.5,8.5,0,0,1,69,58.56s3.07,3.68,7.36,3.68,8.43-.46,8.43-.46.3,3.83-9.5,2.61c0,0,.61,1.53,10,2.76s12,.3,12,.3-2.76,4.29-13.64,2.45a33.7,33.7,0,0,0,14.87,3.68c7.81-.15,10.42-1.53,10.42-1.53s-4.52,5.36-9.35,5.13c0,0,7,3.68,13.33,2.69s9-2.61,9-2.61L115.61,82s6.28,2.38,10,1.3a57.17,57.17,0,0,0,5.67-1.91L126,85.84s5.82,1.23,9.5-.53a12.68,12.68,0,0,0,3.57-2.18l.18-.28s0,.09-.18.28l-2.34,3.48S147.23,77.85,151.75,80.15Z"/><path class="cls-5" d="M195,173.58c-.26-1.75-.74-2.61-1.34-2.84s-1.9,1-2.8,0a2.17,2.17,0,0,0-2.2-.63l-1.26-2.91-.9,1.31-1.83-2.61a3.86,3.86,0,0,0-3.2-.45,1.87,1.87,0,0,0-.38,3.58s-.93-1.9,0-2.13.78.67.78.67,3.1,0,3.21,0,.64,6.05.64,6.05,2.38.7,3.58-.49,2.79.41,3.65.22l.86-.18a2.18,2.18,0,0,1,0,2.2S195.24,175.33,195,173.58Z"/><path class="cls-5" d="M187.1,171.81c-.59-1.41-1.76-1.44-1.81.82a7.43,7.43,0,0,0,1.39,4.16,3.07,3.07,0,0,1-.12-2.22A2.91,2.91,0,0,0,187.1,171.81Z"/><path class="cls-5" d="M189.84,169.7a1.43,1.43,0,0,0-2-.82,2.37,2.37,0,0,1,.25,2.46c-.67,1.34.84,3,.84,3.43a17.53,17.53,0,0,0,.6,2.36l.37.8c0-.77-.2-3.38-.2-3.38a1.56,1.56,0,0,0,1-.65c.42-.59-.52-2.53-.52-2.53S190.41,171.17,189.84,169.7Z"/><path class="cls-5" d="M160.23,131l-.76.49C159.65,131.67,160,131.69,160.23,131Z"/><path class="cls-5" d="M160.7,126.94c-1.69-1.59-3.53-1.34-3.93.1,0,0,1.25-1.34,1.74-.05s-.59.94,0,1.79,2.19.2,1.89,1.79a2.24,2.24,0,0,1-.12.45l1.47-1A2.83,2.83,0,0,0,160.7,126.94Z"/><path class="cls-5" d="M151.2,129.16a7.87,7.87,0,0,1,1.46.56s1.79,1.94,2.72,2a6.1,6.1,0,0,1,2.31,1l1.78-1.16a.24.24,0,0,1-.1-.26c.11-.26-1.3-1.3-1.75-1.45s-1,1-2.13.56-1.75-1.9-2.46-2.16a2.49,2.49,0,0,0-1.6.11,1,1,0,0,1-1-1.23S150.12,128.83,151.2,129.16Z"/><path class="cls-5" d="M152,132.58a9.2,9.2,0,0,0,2.07,0c.52-.15,1.62.84,1.62.84l1.9-.1,1.66-.95s-3.69-1.23-5.41-.74-2.24-.64-2.24-.64l-1.26,0-.12-1.71s-.69,1.77-.24,2.44S152,132.58,152,132.58Z"/><path class="cls-5" d="M150.78,131.12c.59-.44-.43,0-.43,0a2.78,2.78,0,0,0,.15,2.61c.82,1.25,1.41,0,2.21.28s1,.62,1,.62,4.37-1,5.3-1.61a2.56,2.56,0,0,0,1.1-1.4L158,132.74l-3.63.88s.56-.56-1.1-.74-2.48.41-2.5.16S150.18,131.57,150.78,131.12Z"/><path class="cls-7" d="M136.88,78.71c2.69-.45,8.66-6.86,15.52-6.27a23.48,23.48,0,0,1,6.89,1.6,12.46,12.46,0,0,0-5.52-4c-5.67-1.84-24.22-17.78-35.71-24.21-7-3.94-24.38-7.08-42.1-10.46l-9.63-1.13s.45,7,12.68,10l-9.85-.45s4.18,6.72,15.37,6.72l-6.72,5.37s7.91,4.32,15.67,3c0,0-4,4.48-7.31,5.37,0,0,12.38,3.88,20.14-.75a12.14,12.14,0,0,1-6.57,4.93,26.7,26.7,0,0,0,16.86-.9s-3.13,5.37-7,6.27c0,0,13.12,3.13,20.88-.45l-4.92,3s9.84,1.35,14.47-2.09C140,74.23,134.2,79.16,136.88,78.71Z"/><path class="cls-11" d="M152.62,69.58c-6.7-3.22-23.75-17.68-34.56-23.73-2.9-1.63-7.57-3.12-13.3-4.55C93.87,40,79.55,38.48,79.55,38.48s2,6.47,14.52,8.86L88.31,50s4.07,5.07,16.6,4.67c0,0-11,5.87-10,5.87s9.84,2.59,20.48.4l-4.47,3.58s9.45,2.58,16,.89c0,0-7.36,3.19-5.17,3.19s13.22-.5,13.22-.5L131.76,71l8.36-.2L138.43,74A26.28,26.28,0,0,1,152.62,69.58Z"/><path class="cls-6" d="M171.84,87.71a7.11,7.11,0,0,1,4.57-5.47c4-1.29,7.81,1.29,7.81,1.29s-3.13-6.66-6.42-6.26-2.73,1-4.62,1.24-4.47,1-4.79,2.44a2.42,2.42,0,0,0,.66,2.33Z"/><path class="cls-1" d="M168,71c2.84-2,2.95-2,3.54-1.27s2.24,1.86,3,.63a2.3,2.3,0,0,1-2.54-2.2c-.22-2.42-4.06-1.49-4.4-.07s-1.49-1.31-3.76.15S161.57,71,161.57,71l1.6-1C163.4,70.1,165.19,73,168,71Z"/><path class="cls-1" d="M161.46,43.28c-1.57-2-4.3-1.26-5.54-.71.76.27,1.64.53,2.6.87C162,44.65,160,47.53,157.6,50c-1.24,1.3.07,4.38,1.59,7,.21.26.43.58.68,1l2.25,3.45A45.79,45.79,0,0,1,159.19,57a4.05,4.05,0,0,0-.31-.36,6.81,6.81,0,0,1,.79,2.46c.22,1.57,1.45,2.57,4.14,2.61s2.87,1.42,2.87,1.42,2.95-1.38-.93-3.92S161.68,57,161.94,55s-3.13-.89-2.53-3.91S163.51,45.89,161.46,43.28Z"/><path class="cls-2" d="M166.42,64.84c.19-.08,3.91,2,1.86-3.14s-11.86-2.38-11.86-2.38l2.24,3.21a40.49,40.49,0,0,0,3.66,2.34C163.17,65.25,166.23,64.91,166.42,64.84Z"/><path class="cls-5" d="M168.09,88.1c.25-.6.71-1.43-.37-4.2s-4.37-2.7-4.37-2.7l2.45,8.15S167.83,88.7,168.09,88.1Z"/><path class="cls-6" d="M189.21,122.16c.82-.08,3,1,4.18,2.39-.59-2.26-2.69-6.7-4.94-11.1-2.92-5.72-13.3-12.83-13.3-12.83l-2.54-1.93-2.21.06s6.72,9.43,9.08,14.91S188.06,122.27,189.21,122.16Z"/><path class="cls-5" d="M168.69,103.4c-.88-6.52-2.68-9.15-2.68-9.15l-2.4,3.42s6.37,17.65,6.56,17.65S169.57,109.91,168.69,103.4Z"/></g></g></svg>