<svg id="Layer_1" enable-background="new 0 0 512 512" height="512" viewBox="0 0 512 512" width="512" xmlns="http://www.w3.org/2000/svg"><g><g><path d="m169.594 156v-56c0-4.418-3.582-8-8-8h-8v-64h-48v32c0 8.836 7.164 16 16 16v16h-8c-4.418 0-8 3.582-8 8v88c0 17.673 14.327 32 32 32h112v-64z" fill="#b98c3c"/></g><g><path d="m381.594 252h-16c-2.209 0-4-1.791-4-4v-36h24v36c0 2.209-1.791 4-4 4z" fill="#b98c3c"/></g><g><path d="m181.594 244h16c2.209 0 4-1.791 4-4v-20h-24v20c0 2.209 1.79 4 4 4z" fill="#b98c3c"/></g><g><path d="m141.594 292h16c2.209 0 4-1.791 4-4v-68h-24v68c0 2.209 1.79 4 4 4z" fill="#c3a050"/></g><g><path d="m169.594 220 8-64h24v64z" fill="#c3a050"/></g><g><path d="m105.594 12h32c8.837 0 16 7.163 16 16h-48c-4.418 0-8-3.582-8-8 0-4.418 3.581-8 8-8z" fill="#d2c36e"/></g><g><path d="m145.594 44h-20c-2.209 0-4 1.791-4 4 0 6.627 5.373 12 12 12h4c0 8.837 7.164 16 16 16v-24c0-4.418-3.582-8-8-8z" fill="#d2c36e"/></g><g><path d="m377.594 476c-8.189 0-16.379-3.124-22.627-9.373l-64-64c-6.002-6.001-9.373-14.141-9.373-22.627v-80c0-17.673 14.327-32 32-32s32 14.327 32 32v66.745l54.627 54.627c12.497 12.497 12.497 32.758 0 45.255-6.248 6.249-14.438 9.373-22.627 9.373z" fill="#d2c36e"/></g><g><path d="m345.594 316h-128v2.746l-38.627 38.627c-6.002 6.001-9.373 14.14-9.373 22.627v64c0 17.673 14.327 32 32 32s32-14.327 32-32v-50.745l54.627-54.628c2.026-2.025 3.719-4.259 5.088-6.627h52.285z" fill="#c3a050"/></g><g><path d="m329.594 316h-96c-8.837 0-16-7.163-16-16v-112c0-17.673 14.327-32 32-32h96v144c0 8.837-7.164 16-16 16z" fill="#c3a050"/></g><g><path d="m217.594 188h128v16l-128 8z" fill="#b98c3c"/></g><g><path d="m153.594 492h64c8.837 0 16-7.163 16-16v-32h-64c-17.673 0-32 14.327-32 32 0 8.837 7.163 16 16 16z" fill="#b98c3c"/></g><g><path d="m409.594 444v32c0 8.837-7.163 16-16 16h-80c-8.837 0-16-7.163-16-16 0-17.673 14.327-32 32-32z" fill="#c3a050"/></g><g><path d="m345.594 28v16h-12c-2.209 0-4 1.791-4 4 0 6.627 5.373 12 12 12h4c0 8.836 7.164 16 16 16v16h32v-64z" fill="#c3a050"/></g><g><path d="m377.594 12h-32c-4.418 0-8 3.582-8 8s3.582 8 8 8h32v32c0 8.837 7.164 16 16 16v-48c0-8.837-7.164-16-16-16z" fill="#d2c36e"/></g><g><path d="m401.594 92h-48c-4.418 0-8 3.582-8 8v56c-17.673 0-32 14.327-32 32s14.327 32 32 32h32c17.673 0 32-14.327 32-32v-88c0-4.418-3.582-8-8-8z" fill="#d2c36e"/></g><g><path d="m209.594 180h56c8.837 0 16-7.163 16-16v-72c0-13.255-10.745-24-24-24h-40c-13.255 0-24 10.745-24 24v72c0 8.837 7.163 16 16 16z" fill="#c3a050"/></g><g><path d="m241.594 180h-32c-8.837 0-16-7.163-16-16v-72c0-13.255 10.745-24 24-24h16c13.255 0 24 10.745 24 24v72c0 8.837-7.164 16-16 16z" fill="#d2c36e"/></g><g><path d="m257.594 124h-64v-24l64-8z" fill="#464646"/></g><g><circle cx="206.927" cy="108" fill="#faa51e" r="5.333"/></g><g><circle cx="238.927" cy="108" fill="#faa51e" r="5.333"/></g><g><path d="m409.594 148h-64v-24l64-8z" fill="#c3a050"/></g><g><path d="m105.594 156h64v-24l-64-8z" fill="#c3a050"/></g><g><path d="m345.594 220-128 13.333v18.667h128z" fill="#b98c3c"/></g><g><path d="m217.594 284 128 13.333v18.667h-128z" fill="#b98c3c"/></g><g><path d="m345.594 348h-64v24l64-5.255z" fill="#c3a050"/></g><g><path d="m233.594 393.255-64-13.255v32h64z" fill="#b98c3c"/></g><g><path d="m193.594 164 64-8v-16h-64z" fill="#c3a050"/></g><g><path d="m257.594 140 24-8v24h-24z" fill="#b98c3c"/></g></g></svg>