<svg xmlns="http://www.w3.org/2000/svg" viewBox="0 0 295.82 417.81"><defs><style>.cls-1{fill:#3c6866;}.cls-2{fill:#b5e0e2;}.cls-3{fill:#467f7e;}.cls-4{fill:#7dcbd3;}.cls-5{fill:#549393;}.cls-6{fill:#63a5a8;}.cls-7{fill:#93cece;}.cls-8{fill:#daeaea;}.cls-9{fill:#a0ecf9;}</style></defs><title>water_monster</title><g id="Layer_2" data-name="Layer 2"><g id="Capa_1" data-name="Capa 1"><path class="cls-1" d="M0,411.58l32.68-1.33L18,399.94l9.51-34.55,4.24-10c-.72-.15-23.31-10.14-23.31-10.14L1.7,356.6s5.18,8.55,6.07,17.28-5.62,15.79-5.62,15.79Z"/><path class="cls-2" d="M28.67,362.52l-.42-1L6.53,398.32l21.74,8.85L18,399.94l9.51-34.55Z"/><path class="cls-3" d="M201,408.77l2,9,40.51-2.89-33.26-12.53-7.38-28.51-4.1-4.19-19.16,8,2.76,16.89S199,399.74,201,408.77Z"/><polygon class="cls-2" points="239.45 415.21 243.54 414.92 210.28 402.39 203.47 376.07 202.97 376.01 201.92 403.73 204.37 396.92 203.92 408.89 239.45 415.21"/><path class="cls-2" d="M155.92,259.45,150,276.8l-4.75-8.49s-7,15.07-7.9,16.91-5-25.7-5-25.7l-6.08,24.75L120,285.93s-40.29,10.64-45.14,20.82-5.66,17.16-5.66,17.16l-37.47,30L26,353.11l-1.63,18.58,65.29-35.23,36.49-7.41,36.34-29.46-6.83.77s5-13,6.41-16S155.92,259.45,155.92,259.45Z"/><path class="cls-3" d="M108.89,316l.72,7.07,19.33-25.6,3.41-37.9-6.08,24.75L120,285.93s-40.29,10.64-45.14,20.82-5.66,17.16-5.66,17.16l-37.47,30-5.38-.73-.65,3.54-1.31,15,9.91-5.34,55.38-44.41-8.13,11.83Z"/><path class="cls-4" d="M159.11,269.33c-1.59-5.28-3.19-9.88-3.19-9.88L150,276.8l-.35-.63,1.42,5,6.47-6Z"/><path class="cls-4" d="M145.22,268.31s-6.37,13.77-7.74,16.59l1.05,5.2,7.68-5.7Z"/><path class="cls-3" d="M187.08,237.7l9.77-67.53-16.61-32.49-21.16,3S145.37,174.25,144.37,182s-22.43,121.23-26.44,125.54-7.71,12.55-7.71,12.55l41.11-8.59,16.25-44.78Z"/><path class="cls-5" d="M137.54,212.46c-2.39-3.31-5.52-7.09-7.39-7.15l-9,8.05s3.14,18.34,4.94,25.29c.11,3.67.35,10,.72,10.5.52.65,5.32,6.38,5.32,6.38l-1.83-.28A24,24,0,0,0,145,259.38l-9.83-6.25-3.44-9.54.15-.66.36,0,2.08-1c.88,3.16,2,6.8,2.2,6.84.46.07,4.69,2.35,4.69,2.35l-2.87.47s9.69,3.2,17.06,1.71l-9.07-4.18L140,245.43l-1.2-5.49,1.16-.54c2.23,3.16,4.23,6,4.39,6.11.36.36,11.91,3,11.91,3s-3.74,1.9-2.58,1.8,18.83-2.45,18.83-2.45L147.24,242s-1.12-2.78-2-5l1.43-.65c2.79,1.93,7,4.44,7.66,4.38,1.08-.1,10.11.73,10.11.73L161.91,243l14.63-3.32-20.94-3.52L147,225.83l-1.19-3.92s12.41-1.25,12.68-.71,5.87,8.44,5.87,8.44,1.47-7.78-1.61-13.48-6.93-6.12-6.93-6.12l1.82,4.19-13.49,1.08Z"/><path class="cls-2" d="M137.54,212.46c-2.37-3.29-5.47-7-7.34-7.14l1.24,12.94,8.5,2.44,15.69-5.83s5.47,2.29,6.84,6.48A49.38,49.38,0,0,1,164,229l.42.6s1.47-7.78-1.61-13.48-6.93-6.12-6.93-6.12l1.82,4.19-13.49,1.08Z"/><path class="cls-6" d="M117.93,307.54c-4,4.31-7.71,12.55-7.71,12.55l36.39-7.61,6.18-5,.73-2c.19-7.66,2.9-42.79,2.9-42.79l-1.81.62L150,276.8l-4.75-8.49h0l-.13.27,0,.1-.82,1.75,0,.11c-.69,1.5-1.66,3.58-2.65,5.71h0c-.33.71-.66,1.43-1,2.13l0,.05-.3.64,0,.07c-.11.22-.21.43-.31.65v0c-.51,1.1-1,2.13-1.4,3,1.12,8,2.48,16.43,2.48,16.43s-13.17-1-19.88-1.41C119.67,303.3,118.57,306.85,117.93,307.54Z"/><path class="cls-6" d="M51.82,352.3l37.86-30.36-8.13,11.83L108.89,316l.72,7.07,18.65-24.7c-5.16-.37-10.1-.7-10.92-.7-1.78,0-22,20.18-22,20.18s5.26-14.34,5.25-16.84C100.55,298.92,66,336.91,51.82,352.3Z"/><polygon class="cls-2" points="187.08 237.7 187.71 233.36 160.63 273.82 158.15 248.16 147.24 302.5 131.26 315.69 151.33 311.5 167.58 266.72 187.08 237.7"/><path class="cls-5" d="M196.37,255c1.93,1.8,53,29.1,58,30.34S285.67,292,285.67,292L274.3,258.66l-35-30.72-31.07-32.51s-11.77-17.73-13.85-17.36L155.86,162s3.48,42.25,5.27,46.22S177,230.56,177,230.56,194.44,253.17,196.37,255Z"/><polygon class="cls-2" points="283.94 286.97 274.3 258.66 239.26 227.94 226.17 214.25 261.3 258.69 235.68 255.43 283.94 286.97"/><polygon class="cls-2" points="188.03 220.02 229.68 256.25 218.32 233.35 188.03 220.02"/><path class="cls-6" d="M277.61,225.34c4.66,2,13.66,0,13.92-.21s-2.35-.88-2.35-.88l5.15-4s.66-22.94.51-23.22-.56,4.09-.56,4.09l-5.89-5L287,216.17l-5.94-3.12,3.1,4.1L276.93,211l3,9.93-9.3-7.4S273,223.29,277.61,225.34Z"/><path class="cls-6" d="M292.41,197.2c-.07-.39-5.53-7.11-5.53-7.11L284,193.26s-6.25,3.65-10.77,3.67-4.82-1.66-4.82-1.66-6.13,9.47-6.4,10.19,5.33,11.93,5.33,11.93l.33-10,4.45-4.79s7.18,3,8.1,2.93,4,11.65,4,11.65l-5.57,6.71-15.8,2.31s10.7,4.06,15.76,3.41a46.18,46.18,0,0,0,8.82-2l-2.79-.7,8.26-8L292,204.32S292.48,197.58,292.41,197.2Z"/><path class="cls-6" d="M239.66,140.5,262.23,143s-6.85-21.49-12.74-27.61-29-33.45-29-33.45l-12.22.51s-10,20.93-3.22,20.31S239.66,140.5,239.66,140.5Z"/><path class="cls-6" d="M210.61,64.56,200.43,89.91s10.48,5.82,18.32,5.07,24.56-7.47,24.56-7.47-10.32-4.92-12-4.75,16.91-7.16,16.91-7.16l-17.62-1.22,12.71-9.06-20.06,2.94,3.11-5.6Z"/><path class="cls-4" d="M157.56,125s-6.2,4.82-7.12,5.48-2.7,14.08-2.7,14.08l7.21-5-2,23.84,5.42,4,54.67,5.73s-6-20.18-6.38-22.33,2.86-33.9,2.86-33.9l2.84-1.67,3.28-11.8,3.28,1.72s3.35-18.23,1.58-23.19-13.67-17.81-13.67-17.81l-6.52-5.4s-12.13,2.42-21,4.09-18.56,18.85-18.56,18.85,9.17-1.41,6.09.38-9.67,16.08-9.67,16.08l7.28,1.16s-5.27,4.17-6.29,4.35S151.23,116,149.84,117s9.29-2.17,9.29-2.17l-11.46,10.47Z"/><path class="cls-2" d="M200.21,171.79l12.84,1.34s-6-20.18-6.38-22.33,2.86-33.9,2.86-33.9l2.84-1.67,3.28-11.8,3.28,1.72s3.35-18.23,1.58-23.19c-.7-2-3-5.2-5.54-8.37l-3.07,2.56,6.94,27.45L212.9,92.05l-2.54,21.32s-12.52,9.42-12.4,12.33c0,0,5,2.81,5.61,6a30.37,30.37,0,0,1,0,7.57l-8.91-6,9.38,17.44-16-10Z"/><path class="cls-6" d="M209.1,88.46l.26.17C209.76,88.85,209.61,88.75,209.1,88.46Z"/><path class="cls-6" d="M157.56,125s-6.2,4.82-7.12,5.48-2.7,14.08-2.7,14.08l7.21-5-2,23.84,5.42,4,39.4,4.13-18.39-29.07-1.58,5.66s-5-23.41-5.28-25,5.26,8.22,5.26,8.22l.73-3.71,8.93,9.75-8.2-17.86-2.28,2.8-4.6-8.93,3.29-2.79,2.69,6.1,2.07-4,9.66,13.81L181.46,103s8.61,10.21,9.74,9.81c.9-.32,12.21.7,19.23,3.54l1.94-1.14.57-2a32.62,32.62,0,0,0-8.93-4.46c-7.77-2.19-12.38-.16-12-1.23s-3.92-16.24-3.92-16.24l8.81-9.76s9.86,5.6,12.18,7c-3-2.29-19.26-20.83-19.26-20.83L174.61,65c-7.28,5-13.86,16.72-13.86,16.72s9.17-1.41,6.09.38-9.67,16.08-9.67,16.08l7.28,1.16s-5.27,4.17-6.29,4.35S151.23,116,149.84,117s9.29-2.17,9.29-2.17l-11.46,10.47Z"/><path class="cls-4" d="M167.09,89.17c2.67-2.47,14.06-7,14.06-7l-2.29-12.34-13.87-4s-22.85,14.53-25.9,20.26-20.62,28.68-21.71,32.62-2.53,16.06-2.53,16.06l21.66-8.25S164.41,91.64,167.09,89.17Z"/><path class="cls-6" d="M141.39,100.15l1.45-14.85,33.4-9.18L160.6,68.76c-6.79,4.53-19.31,13.25-21.51,17.39-3,5.73-20.62,28.68-21.71,32.62s-2.53,16.06-2.53,16.06l4-1.51c1.92-8.22,4.7-22.34,4.7-22.34Z"/><path class="cls-2" d="M122.73,119.84c-1.06,1.12-3.87,8.1-6.26,14.37l20-7.63s27.9-34.94,30.58-37.41c2.33-2.15,11.29-5.85,13.54-6.75l-24.69,1.63s-1.35,12.77-1.46,13.9-17.3,22-17.3,22l-1.78-1.11c-1.79-1.1-6.12-.48-6.12-.48l1.06-10S124.73,117.74,122.73,119.84Z"/><path class="cls-4" d="M219.86,70.25l1.4-.35L223,47.5l-3.37-14.08L184.48,62.9s31.79,24.48,32.39,24.37S219.86,70.25,219.86,70.25Z"/><path class="cls-2" d="M213.17,72v0Z"/><path class="cls-2" d="M221.26,69.9l-4-3.88.35,18.59c.92-4.79,2.27-14.36,2.27-14.36Z"/><polygon class="cls-2" points="222.45 54.04 215.11 49.92 214.53 49.91 216.41 52.89 221.26 69.9 222.45 54.04"/><path class="cls-2" d="M205.46,45.4c-.23.25-2.66,25.38-2.26,25.3s4.71-11,7.49-17.85c.77,5.94,2.41,18.55,2.48,19.17,0-.71-.14-17.41-.16-22.14l-1.12,0,.59-1.46C210.81,47.6,205.66,45.19,205.46,45.4Z"/><path class="cls-2" d="M214.53,49.91l-1.63-2.58s-.15.39-.42,1.06l.52.24s0,.46,0,1.25Z"/><path class="cls-6" d="M200.43,75.11l6.24,4.74L207.19,55Z"/><path class="cls-6" d="M215.51,72.28l-3-17.2-.39,15.2-2.2-4.09L207,80.11c4.43,3.34,8.11,6.07,9.38,6.9-.87-4.85-2.41-12.16-2.41-12.16l3,4.57Z"/><path class="cls-6" d="M207.48,43.59l-23,19.31s7.42,5.71,15.15,11.61l2-13.92s-4.69,1.16-5.3,1.27,12.57-16.55,14-18.68Z"/><path class="cls-6" d="M187.06,14.16a58.47,58.47,0,0,0,7.07,4.2l-8.69-1.88s3.79,9.77,5.92,11.42a19.31,19.31,0,0,0,5.31,2.62l-5.26.81s6.2,11.44,9.07,12.6a28.55,28.55,0,0,0,5,1.56l-3.64,1.22s5.25,8.52,8.07,9.35,13,.4,13,.4l2-30.43,9.66-2.11-2-3.84,2.61,2.68-1.32-4.18L232.15,18l-3-6.28L211.16,0l3.94,6.3-21.27-4,5.75,6.61-16.1-3.35S185.17,12.6,187.06,14.16Z"/><path class="cls-2" d="M192.42,33.13c2.83,2.46,6.52,5.55,7.13,5.5a55.14,55.14,0,0,1,6.14.86s-6.92-4.18-6.65-4.23,4.59.58,4.59.58l-6-2.48,5.06-.45a67.11,67.11,0,0,0-7.27-2.81c.72.27,1.21.42,1.21.42l-5.26.81S191.8,32,192.42,33.13Z"/><path class="cls-2" d="M233.79,18.58,232.15,18l-3-6.28L211.16,0l9,8.36s.54,5.6,1.44,5.44,8.44,2.69,8.44,2.69l-1.63,3.94s3,2,5.63,3.59l.46-.1-2-3.84,2.61,2.68Z"/><path class="cls-7" d="M207.83,24.33A88.62,88.62,0,0,0,217,27.92l4.72,15.33-14.56-1.4a9.61,9.61,0,0,0,4.41,2.66c2.54.58,9.53,2,9.53,2s-8.18.72-10,.83c1.49.12,6.58,1.47,6.58,1.47l-5.73.37,3,1.43-3.08.56,3.79,2.87s7.68.58,8.14,0,3.34-23.51,3.34-23.51l2.5-6.9c-.09-.55-8.74-8.06-11-8.68s-11.71-2.67-11.71-2.67l7.37,5.6-9.45-1.58S205.54,23.06,207.83,24.33Z"/><path class="cls-7" d="M210.76,47.37c-.12,0,0,0,.32,0Z"/><path class="cls-4" d="M219.91,39.67l-1.9-7.1s-3.73-3.53-6.23-4.21a28.67,28.67,0,0,0-5.33-.79s4.2,12.85,6.35,14.64S219.91,39.67,219.91,39.67Z"/><polygon class="cls-8" points="236.55 44.41 236.14 44.48 235.91 42.19 228.16 41.43 228.23 47.54 236.58 46.65 236.55 44.41"/><path class="cls-9" d="M239.14,27.39a21.68,21.68,0,0,0-6.64-7.31l-17.77-1S216.08,43.7,216,48.21s4.95,14.54,4.95,14.54l0-5.06C222,63.49,231,69.91,231,69.91l-.29-4.72S244,82,244.26,81.83s-4.14-18.33-4.14-18.33l1.93.31-4.91-11.18,1.92.31L236.51,47,238,45.55l-6.94-.62a9.82,9.82,0,0,1,1.25-1.35c.5-.37,4.94.42,4.94.42l1.11-.57-2-5.44,5.95,2.39S241.67,32.08,239.14,27.39Z"/><polygon class="cls-4" points="235.09 32.02 232.89 30.49 225.43 29.77 229.46 34.06 235.06 34.17 235.09 32.02"/><path class="cls-4" d="M215.26,29.32c.37,7.33.77,16.34.7,18.89a15.25,15.25,0,0,0,.84,4.57c4.09-.43,9.52-1,9.54-1.16s-1.71-9.93-1.71-9.93l1.61-7Z"/><path class="cls-7" d="M236.51,47l-4.44-.51-1.55,4.9-3.83-8.28-2.15,7.54-1.11-3.31-1.8,2.24-2.83-6.41-1.47-24-2.6-.14S216.08,43.7,216,48.21s4.95,14.54,4.95,14.54l0-5.06C222,63.49,231,69.91,231,69.91l-.29-4.72S244,82,244.26,81.83s-4.14-18.33-4.14-18.33l1.93.31-4.91-11.18,1.92.31Z"/><path class="cls-6" d="M217.25,47.6l-2-17.69c.36,7.22.73,15.81.67,18.3-.13,4.51,4.95,14.54,4.95,14.54l0-3.33-1.62-4.52,1.46-1.76Z"/><path class="cls-6" d="M222.54,51.51l-.65,4.23,0,4.67c2.63,4.92,9.06,9.5,9.06,9.5l-.29-4.72s5.92,7.46,9.93,12.39l-4.58-7.08-.82-5.09-2.31-4.54-1.43,1.94-2.21,3.3-2.47-8,.25,4-2-4.88.75,5.2-2.26-4.74Z"/><path class="cls-6" d="M227.44,44.77l-.37-.79-.47-.52-2,7.2.28.86,2.7-2.68Z"/><polygon class="cls-6" points="221.63 49.62 221.56 49.45 221.51 49.97 223.22 49.61 223.19 47.68 221.63 49.62"/><path class="cls-7" d="M231.43,56.51l-2.22-14.15,8.37,1.54.8-.47-.91-3.28a25.82,25.82,0,0,0-5.5-1.71,14.39,14.39,0,0,0-4.4-.08l1.79.59a13.41,13.41,0,0,0-3.45,2.19C224.85,42.26,231.43,56.51,231.43,56.51Z"/><path class="cls-6" d="M230.79,55.1l-3.18-12.82.82.93-.36-2.28,1.23-1.48-.11,2A36.64,36.64,0,0,1,233,40.09a8.17,8.17,0,0,1,2.72,0l-1-1a19.65,19.65,0,0,0-2.72-.67,14.39,14.39,0,0,0-4.4-.08l1.79.59a13.41,13.41,0,0,0-3.45,2.19C225.05,42,229.17,51.48,230.79,55.1Z"/><path class="cls-2" d="M237.58,43.9l.8-.47-.91-3.28s-.48-.21-1.22-.49l.08,1.19s-4.39,1.17-6,1.72Z"/><path class="cls-2" d="M229.46,44l-.42.23,2.38,12.28v0Z"/><polygon class="cls-2" points="235.49 58.26 241.74 63.11 237.14 52.63 239.06 52.94 236.51 47.04 236.58 46.97 236.2 46.91 237.52 52.42 233.39 47.41 235.49 58.26"/><path class="cls-2" d="M244.15,81c-.68-3.58-3.91-17-4-17.44l-3.93-2.3,1.67,7.7.17-2.42,2.36,6.08-1.8-1.17Z"/><path class="cls-2" d="M231.77,61.26c.13-.3-2.91,5.67-2.91,5.67l1.37,2.41c.47.37.76.57.76.57l-.29-4.72.94,1.19C231.67,63.87,231.71,61.41,231.77,61.26Z"/><path class="cls-2" d="M219.31,54.9l1.44,7.52.16.33,0-5.06L221,58a22.2,22.2,0,0,1,.89-6.47Z"/><path class="cls-2" d="M242.32,40.38s-.65-8.3-3.18-13a21.68,21.68,0,0,0-6.64-7.31l-4.89-.28c2.23,1.55,7.55,5.43,10,8.55C240.69,32.35,242.32,40.38,242.32,40.38Z"/><polygon class="cls-6" points="227.67 51.48 227.73 56.75 229.3 58.95 227.67 51.48"/><path class="cls-7" d="M220.8,22.37l2.73,3.48L222,25.71a34,34,0,0,0,4.12,3.14c1.13.55,6.66,1.94,7,2.12s2.86,2.1,2.86,2.1L234,28,228.79,25l.86,1.67L226,23.67Z"/><path class="cls-2" d="M234.48,32l1.43,1.07L234,28l-5-2.95c1,1.23,2.27,3,2.27,3l2,.59L233,29.87Z"/><path class="cls-2" d="M229.05,26.13l-3-2.46-1.66-.41a3.07,3.07,0,0,0,.23.86l4.74,2.54Z"/><path class="cls-6" d="M227,26.34c.1-.07-3.65-2.55-5.64-3.82l-.6-.15,2.73,3.48L222,25.71a34,34,0,0,0,4.12,3.14c.91.44,4.69,1.43,6.28,1.89l-.85-1.59-5-1.48L224.88,26A13.68,13.68,0,0,0,227,26.34Z"/><polygon class="cls-2" points="231.11 31.62 228.86 31.95 228.44 32.19 230.71 32.25 234.2 32.91 231.11 31.62"/><path class="cls-2" d="M193.93,2.4l13.86,7.72,9.66-1.92a12.93,12.93,0,0,0-2.41-2l.06.09-21.27-4Z"/><path class="cls-2" d="M183.6,6.05c2.29,2.06,6,5.35,6.39,5.41.57.08,9.06,3.6,9.06,3.6l-4-3,7.25,2.9-4.67-3.08,6.24.37s-2.19-1.93-4.45-3.52l.16.18-16.1-3.35S183.52,5.73,183.6,6.05Z"/><path class="cls-2" d="M199.78,24.28l2.39,2.94L200.49,21l-7-2.74-8.1-1.75.52,1.3,5.9,5.12S197.38,21.35,199.78,24.28Z"/><path class="cls-2" d="M206.63,45.77l-2.27.09-2.54.85s.67,1.07,1.64,2.49A15.34,15.34,0,0,0,206.63,45.77Z"/><path class="cls-6" d="M155.47,65.63c.61,2.29,5,13.74,5,13.74s8.3-7.13,16.15-3.39,10.95,3.43,10.95,3.43l-.9-2.36,5.16,1,6.63-8.87-2.72-8.74c-.14-.81-4.69-8.5-10.51-11s-6.34-1.74-6.34-1.74L182,50.91l-10.73-3.23,2.35,4s-7.89-1.82-12.94-.67l5.59,6.07L149.92,47S154.87,63.35,155.47,65.63Z"/><path class="cls-4" d="M181.44,52.5s6.91,7.42,7.05,9.29.57-6.28.57-6.28l2.84,19.12a19.12,19.12,0,0,0,1.56,1.17l5-6.63-2.72-8.74c-.14-.81-4.69-8.5-10.51-11s-6.34-1.74-6.34-1.74L182,50.91l-7.57-2.28Z"/><path class="cls-4" d="M158.32,63c.37-.17,17.19,2.48,17.19,2.48l-12-11.43,2.77,3L151,47.66C153.34,52.8,158,63.16,158.32,63Z"/><path class="cls-4" d="M162.36,50.76c4.08,1.8,10.08,4.66,12.76,7.06,4.27,3.82,5.33,4.72,5.33,4.72l-3.07-6,4.13,1.94-2.09-3.9-5.92-3.11.14.25A41.35,41.35,0,0,0,162.36,50.76Z"/><path class="cls-2" d="M182.85,65.9c.48-.09-10.88-.64-13.29-.2-1.87.33-7,9.28-9.27,13.29l.14.38s8.3-7.13,16.15-3.39,10.95,3.43,10.95,3.43l-.9-2.36,5.16,1,6.63-8.87-2.72-8.74a6.5,6.5,0,0,0-.68-1.36c-1.33,4-3.32,10.05-3.5,10.15s-8.45,5.11-10.56,5-7.6-6.21-8.61-6.32S182.37,66,182.85,65.9Z"/><path class="cls-6" d="M151.7,158.42l-1.35,19.08,13.08-2.06,1,10.58s23.49,20.89,23.64,21.76.42-12.64.42-12.64,8.68,20,8.94,21.42,35.58,25,35.58,25l-9.71-29,10.62,9.15-21.51-51.44-47-7.08,3.66-1.26Z"/><polygon class="cls-2" points="233.93 221.65 212.42 170.21 194.54 167.52 193.09 190.73 233.02 241.54 213.15 189.22 232.6 220.5 233.93 221.65"/><path class="cls-2" d="M175,187.7,182.13,202a63.87,63.87,0,0,1,6,5.8c.16.86.42-12.64.42-12.64l1.26,2.92-1.11-25.18-5.37,8.94,1.35-10.21-5,10.87.75-14.68Z"/><polygon class="cls-2" points="184.83 122.88 186.6 129.73 190.85 133.09 184.83 122.88"/><polygon class="cls-2" points="180.69 130.86 182.4 136.67 188.38 139.64 180.69 130.86"/><path class="cls-2" d="M201,84.42l6.76,6.16,3.72.39S201.46,84.21,201,84.42Z"/><path class="cls-2" d="M200.26,86l1.45,4.39,4.09,1.32S200.45,86,200.26,86Z"/><path class="cls-6" d="M92.74,121.49s7.13,16.36,7.28,17.23S121.3,217.1,122.11,220s7,7.11,7,7.11-1.9-12.21-.47-14.26,5.46-4.57,5.46-4.57l-4.39-6.09s-7.61-39-4.87-40.38S130,151,130,151l1-12.74-2.81-4,4.17-6.73-7.48,1.65-2.37-11.53-5.6-17.83L113,114.56,108.6,110l-2.84-14.14s-7,17.7-3.23,26.89l3.74,9.19-5.59-6.16Z"/><path class="cls-4" d="M111.53,167.42c.21,1.18,10.14,30.61,16.85,45.85a1.58,1.58,0,0,1,.22-.47c1.42-2.05,5.46-4.57,5.46-4.57l-4.39-6.09s-7.61-39-4.87-40.38S130,151,130,151l1-12.74-2.81-4,.24-.39c-1.13-1.74-2.21-3.37-3.14-4.78l-.41.09-.21-1-2.6-3.88s-13.77,15.44-14.21,16.31,5.42,22.35,5.42,22.35l-6.61-10.17S111.25,165.88,111.53,167.42Z"/><path class="cls-2" d="M113.09,148.41c.63,3.47,7.52,13,7.52,13l2.67,19.25-5.71-15.12s4.31,29.52,4.22,30.13,8.49,12.83,8.49,12.83l-4.94,4.67,2.76,4.59c-.09-2.26,0-4.24.5-5,1.42-2.05,5.46-4.57,5.46-4.57l-4.39-6.09s-7.61-39-4.87-40.38S130,151,130,151l1-12.74-2.81-4,4.17-6.73-7.48,1.65-2.37-11.53-5.26-16.75c-.11,8.49.22,26.6.22,26.6l7.38,12.23-.79,11.1-8.24-3.7.62-12.9S112.46,144.93,113.09,148.41Z"/><path class="cls-2" d="M109.9,114.6a42.79,42.79,0,0,1,4.18,2.74s-.51-1.19-1.11-2.83L108.6,110l-2.43-12.1c-.91,4.31-2.14,10.63-2,12.89.15,3.56,5.63,16.32,5.63,16.32l-1.45-9.7,3.46,4.26S109.49,114.57,109.9,114.6Z"/><path class="cls-2" d="M102.88,134.3c.18-.53-.82-4.55-1.75-8.05l-.45-.5-7.94-4.26.56,1.3C96.51,127,102.64,135,102.88,134.3Z"/><path class="cls-2" d="M228.48,111.27l6.28,15.56,5,9.28-6.66,3.53,7.15,2,.21,4.44,8.29,8s7.46,4.83,10.36,4.08,20.15,30.38,20.15,30.38l.26,6.84s4.56-.79,6.85-.29,8.07,10,8.07,10,2.15-6.71,1.09-9.14-30.79-68.06-31.18-68.75S259.71,111,259.71,111l-3.53,7.81-.61,7.65L253,117.86c-2.58-8.55-18.35-16.21-18.35-16.21L240.83,113l-.64,5.85Z"/><path class="cls-4" d="M228.48,111.27l6.28,15.56,5,9.28-6.1,3.23.56.61,6,1.66.1,2.17c9,3,28.18,8,28.18,8l-9.39-32.45,1.09-6.51-.52-1.88-3.53,7.81-.61,7.65-.7-2.31c.09,2.35.2,5.1.3,6.45.21,2.62-2.51-6.59-2.51-6.59l-.76,4.65-1.31-6.54-2.59,7s-2.06-15.84-1.94-16.66c.09-.62-7-7.19-10.66-10.36-.48-.25-.76-.38-.76-.38L240.83,113l-.64,5.85-.86-.55,4.33,9.55L230.2,112.38Z"/><path class="cls-4" d="M259.45,133.29c-.85-.32-20.44-2.24-20.44-2.24s.11,1.68.31,4.24l.44.82-.36.2c.12,1.53.27,3.3.43,5.19l.42.11.21,4.44,8.29,8s7.46,4.83,10.36,4.08,20.15,30.38,20.15,30.38l.26,6.84s4.56-.79,6.85-.29a1.68,1.68,0,0,1,.45.19c-3.9-14.49-13.73-40.6-14.27-41.52-.7-1.22-5-13-5-13l1,11S260.31,133.61,259.45,133.29Z"/><path class="cls-6" d="M246,143.24l-1.61-12.86S234,117.9,228.86,112.22l5.9,14.61,5,9.28-6.66,3.53,7.15,2,.21,4.44,8.29,8s7.46,4.83,10.36,4.08,20.15,30.38,20.15,30.38l.26,6.84s4.56-.79,6.85-.29c.81.18,2,1.47,3.31,3.06l-.61-4.83-6.52-.1s-.69-13.59-1.12-13.95-14.59-23-14.59-23L271.43,170l-9.34-14.7s-.38-10.73-2-13.47-11-7.52-11-7.52l8.1,8.35-4.09,7.62Z"/><path class="cls-2" d="M195.57,370.43,201,387.12l43.67-54.4L273.54,313l20.7-38.82-5.63,3.17s-.44-13.05-.29-16.18-14.46-19.36-14.46-19.36L275.05,259l-7.22-5.62s-.54,15.61-.66,17.54-13.71-20.45-13.71-20.45l3.78,23.67-4.82,3.73s-31,24-31.49,34.55,1.37,16.93,1.37,16.93L200.8,369Z"/><path class="cls-4" d="M195.87,370.34l.74,3.3L201,387.12l6.62-8.25,31.74-58.73-2.71,13.22,17.17-25.44,3.2,5.87,7.39-29.26-10.91-34.08,3.78,23.67-4.82,3.73s-31,24-31.49,34.55,1.37,16.93,1.37,16.93L200.8,369Z"/><path class="cls-4" d="M277.56,262.35l3.42-7.54-.75-5.64c-3.3-4-6.37-7.4-6.37-7.4L275.05,259l-.54-.41Z"/><path class="cls-4" d="M267.83,253.36s-.49,14.27-.65,17.21l2.81,4.12,4.58-7.75Z"/><path class="cls-6" d="M131.86,242.93c-.7-2.57-1.36-5.06-1.36-5.27,0-.45-1.12,5-1.12,5s4.54,11,4.54,11.23S145,259.38,145,259.38l-9.83-6.25-1.54-4.26-.16-.15-.36-1.31-1.38-3.82.15-.66Z"/><path class="cls-6" d="M138.06,232.6c0-.45-2.1,6.09-2.63,6.45s2.33,1.06,2.33,1.06.66,5.53.57,5.8,4.5,3.73,6.38,4.61c1.43.66,7.32,2.18,10.29,2.91l.37-.07-9.07-4.18L140,245.43l-1.2-5.49.94-.44C139.06,236.91,138.06,232.9,138.06,232.6Z"/><path class="cls-6" d="M144.21,230.5l-4.69-6.94,3.62,6.23-1.3,6.72,2.15.78s2.37,5.89,2.46,6.15,11.64,3.23,11.64,3.23,8.1.53,13.29.89l-14.64-3.37-1.8.09a16.71,16.71,0,0,1-2.64-1.11L147.24,242s-1.12-2.78-2-5l.55-.25Z"/><path class="cls-6" d="M176.33,239.62l-20.73-3.48L147,225.83l-1.19-3.92c-.27-.18-.67,6.62-.67,6.62l7.93,8.61,11.09,2.42Z"/></g></g></svg>