<svg xmlns="http://www.w3.org/2000/svg" viewBox="0 0 367.99 507.13"><defs><style>.cls-1{fill:#60a2a5;}.cls-2{fill:#c1dfe0;}.cls-3{fill:#90ccd3;}</style></defs><title>water_monster_1</title><g id="Layer_2" data-name="Layer 2"><g id="Capa_1" data-name="Capa 1"><path class="cls-1" d="M225.59,139.38c-4.47-1.79-11.38-4.66-11.38-4.66l-5.56-4.83,5.69,1.15,2.14-.57c0-4.11,5.79-9,7.8-10.6-3.09.45-9.21,1.75-10.14,5.26l-9.52-6s3.34-1.12,6.6-2.19l-.45-.08,7.79-6.13-9.18,1.88-1.83-3.37.29,4.18s-5,2.27-5.45,2.28l-.7.86,2.79-7.32-.66.45-3.66,4.68-4.47,2.71-.66,6-2-.49-1,4.66,23.13,20.49,10.54,1.76-8.34-11.27Z"/><polygon class="cls-2" points="193.06 122.59 195.03 123.08 195.69 117.08 200.16 114.37 203.82 109.69 194.52 115.98 193.06 122.59"/><path class="cls-2" d="M202.39,115.7c.44,0,5.45-2.28,5.45-2.28l-.29-4.18Z"/><path class="cls-2" d="M209.38,112.61l9.18-1.88,1.14-.9-12.15-.59Z"/><path class="cls-2" d="M204.62,119.13l9.52,6c.93-3.51,7.05-4.81,10.14-5.26l.69-.52-13.75-2.41C208,118,204.62,119.13,204.62,119.13Z"/><path class="cls-2" d="M214.34,131l-5.69-1.15,5.56,4.83s6.91,2.87,11.38,4.66l.11,0-11.42-8.34Z"/><path class="cls-1" d="M364.35,263.28c-2.64-1.15-4.67-2.08-4.67-2.08a22.49,22.49,0,0,0,.5-3.74c-.17-.38-3.68-2.14-3.68-2.14L347,263s.88,3.57,2.36,4.44a29.49,29.49,0,0,0,5.16,1.87l1.53.93-1.2-3.07,5.38,2.52-2.64-3,6,.61-3-1.7,5.87-.06S367,264.43,364.35,263.28Z"/><path class="cls-3" d="M346.76,261.2l.81,2.78a11.69,11.69,0,0,0,6.66-.15c3.51-1.17,3.07-7,3.07-7l2.35,1.32s-1.83,3.81-1.83,5.71a3.32,3.32,0,0,0,1.75,2.78l2.64-9.88s-5.13-2.71-7-2.71S346.76,261.2,346.76,261.2Z"/><path class="cls-1" d="M101.22,241.87l-8.42-2.26-1.06,6.82,3.59,2-2.35,1,1.55,1.59,1.64,1.33.75,2.75s.54,2.88,1.33,3.1a13.71,13.71,0,0,0,3.68.13c0-.13,10.54-5.89,10.54-5.89l-8.64-5.14Z"/><path class="cls-2" d="M106.94,268.34s-4.59-21.2-3.76-26.24,9-13.28,6.58-19.24A77.88,77.88,0,0,1,105,204.53c-1-6.74-1.42-7.43-2.11-21.68s-.72-22.46-.72-22.46l-5.24-12.6-13-18.3-1.75-29.2L83.9,85.57,72.45,70.05,67.24,47S40.71,40,25.11,27.36A130,130,0,0,1,0,0L9.73,64l14.83,36.19,7.5,2.5,5.61,7.82,11.33,18,7.57,18.92,11.15,9s20.31,51.4,20,54,2.39,15.12,2.39,15.12-.64,6.46.4,8.31,3.59,5.31,5,10,7.11,53.93,7.11,53.93l18.84,70.51,2.93,2.67-10.74-82.68Z"/><path class="cls-1" d="M106.94,268.34s-4.59-21.2-3.76-26.24,9-13.28,6.58-19.24A77.88,77.88,0,0,1,105,204.53c-1-6.74-1.42-7.43-2.11-21.68s-.72-22.46-.72-22.46l-5.24-12.6-13-18.3-1.75-29.2L83.9,85.57,72.45,70.05,67.24,47S40.71,40,25.11,27.36A130.49,130.49,0,0,1,.06.09C.13.69.21,1.32.3,2l1.5,9.86c3.83,22.4,12.8,57.55,32,65,28.71,11.17,29.24,0,29.24,0l7.45,14.89L55.63,122.07l33,30.3L82.21,179l11.7,27.12-.53-20.21L103,218.3H95.51s15.28,94.31,22.2,136.17l3.71,13.91,1.41,1.28c.29-.86.62-1.81,1-2.86l-10.19-78.43Z"/><path class="cls-3" d="M74.56,489.56l32.93-3.51s7.47-6.15,7.25-4.83-2.2,5.71-1.54,5.71,11.42-.44,11.42-.44l.66-22.4-6.81-4.39S98.05,482.09,74.56,489.56Z"/><path class="cls-3" d="M154.75,338.85l-9.92,24.8s15.59-4.61,17-5.31,10.28-10.63,10.28-10.63,20.9-11,22-13.47,23.74-41.45,23.74-41.45l3.19-2.12,3.54-18.43-5-8.14S164.67,314.05,154.75,338.85Z"/><path class="cls-1" d="M301,332.76s-5.66-22.92-7.81-24.54-34.57-33-34.57-33l-1.3-3.61-17-7.84-9.1,2.86s35.36,65.27,57.07,80.84l21.7,15.57s-.74-16.24-1.09-17.79S301,332.76,301,332.76Z"/><polygon class="cls-1" points="256.25 256.13 245.62 259.67 225.07 260.02 218.87 253.65 218.7 257.72 211.43 252.41 222.42 285.53 260.68 260.91 254.66 261.44 256.25 256.13"/><path class="cls-1" d="M246,168.19l-2.39,2.66-12.23,5.84s9.3,14.08,10.1,16.74,6.64,7.18,10.63,11.16,27.1,39.06,27.1,39.06L288,247.9l1.86-7.17s-27.63-50.22-29.76-53.94S246,168.19,246,168.19Z"/><path class="cls-1" d="M200.33,168.91S167.88,227.18,167.88,229s1.86,8.76,1.86,8.76l10.9-5.58L207.21,191l-4.79-19.66Z"/><path class="cls-2" d="M168.31,227.9l8.64,1,4.54-14.44,2.42,5.93,14.93-36.45L189.23,189C180.88,204.1,170.53,223.06,168.31,227.9Z"/><path class="cls-1" d="M220.76,160l-21.53,7.18,5.32,34s10.63,5.05,18.33,20.19-1.06,41.72-1.06,41.72l4,4.51,23.39-4.78.79-68.29-15.34-27.2Z"/><path class="cls-3" d="M221.35,172.34l-7.61,3.36-14-5.5,4.8,30.71A29.34,29.34,0,0,1,218,197.84c12,0,14.88,5.5,14.88,5.5l5.67-16.3-14,3.72Z"/><path class="cls-2" d="M216.16,196.19l-6.26.12L202.81,174l-2.29,1.39,4,25.53A29.34,29.34,0,0,1,218,197.84a34.61,34.61,0,0,1,4.58.3l-8.89-11.63Z"/><path class="cls-3" d="M176.48,161.59l4.25,2.24-25.27.48s43.69,9.09,52.19,17.24l-1.53-9.1,7.68-5.19V161l-4.73-.24Z"/><path class="cls-1" d="M184.42,161.39c7.92,3.73,15.91,7.52,15.91,7.52s-14.9-5.42-18.08,2.06c10.8,3.12,21.61,6.94,25.4,10.58l-1.53-9.1,7.68-5.19V161l-4.73-.24Z"/><path class="cls-3" d="M257.55,162.36,225,161.53l-4.73.24V168l7.68,5.19-1.54,9.1c8.51-8.15,52.2-17.25,52.2-17.25l-25.27-.47Z"/><path class="cls-1" d="M230.21,171.72s5.93-4.43,4.43-4.43c-.88,0-8.51-.7-14.41-1.28v.74c4.45,1.07,9.36,2.31,9.36,2.31l-3.1,1.77,6.66,7.4c.76-.35,1.55-.69,2.38-1A65.1,65.1,0,0,1,230.21,171.72Z"/><path class="cls-1" d="M257.55,162.36,225,161.53l-4.73.24v1.73l19.46,2.81s-5.76,4.34-4.79,4.34c.62,0,4.63,2.32,7.47,4,15.66-5.31,36.2-9.59,36.2-9.59l-25.27-.47Z"/><polygon class="cls-3" points="206.25 146.2 208.87 165.21 213.35 172.53 213.46 148.49 207.78 143.9 206.25 146.2"/><path class="cls-3" d="M204.83,115.72c-1.53-.11-10.38,4.91-12.78,10.48l3.6,18,3.61-6.23,3.28,9.07-1.1-.44,3.72,13.22,7-15.4s-2-18.57-2.08-19.23S206.36,115.83,204.83,115.72Z"/><path class="cls-2" d="M196.26,135.67l.81-2.36s.37-9.52.59-13.65a29.08,29.08,0,0,0-2.44,2.15Z"/><polygon class="cls-2" points="201.55 147 205.12 159.71 203.99 149.33 201.55 147"/><polygon class="cls-2" points="201.3 135.42 199.4 138.39 202.43 146.78 205.45 147.51 204.65 146.2 201.3 135.42"/><path class="cls-2" d="M192.05,126.2l3.6,18s-1.3-17.79-1.58-21.16A12.71,12.71,0,0,0,192.05,126.2Z"/><path class="cls-1" d="M204.83,115.72c-.78-.06-3.44,1.21-6.19,3.2-1.14,4.58,1.27,10.16,1.27,10.16l4.88,2.11-.8,4.3,1.26,24.17,6.9-15.21s-2-18.57-2.08-19.23S206.36,115.83,204.83,115.72Z"/><path class="cls-1" d="M198.36,131.18a32.43,32.43,0,0,0-2.1,4.49l-.09.2,4.29-2.35.77-2.48A17.79,17.79,0,0,0,198.36,131.18Z"/><polygon class="cls-2" points="197.26 134.75 199.67 132.08 199.83 131.8 198.79 132.05 197.26 134.75"/><path class="cls-1" d="M205.51,148.55l.3-.55-4.37-1.37S205.32,148.49,205.51,148.55Z"/><path class="cls-1" d="M208.51,148.67l1.38,6.2,2-.08L213.39,171s11.87-9.1,11.73-9.32-16.47-38.46-16.47-38.46Z"/><path class="cls-3" d="M219.18,166.48c.92-.71,1.83-1.43,2.66-2.09l-3.68-9.34Z"/><path class="cls-3" d="M215.33,169.47l3.16-2.45-6.34-22.57Z"/><path class="cls-3" d="M240.48,232l-4.34,5.41L235,232.3l4.34-8.68,2.39,4.16,2.4-13.37-3.55,7.17-1.68-4.34s-4.25,9.12-4.52,9.12-2.3-7.44-2.3-7.44a21.1,21.1,0,0,1,2.48,2.93c0,.35,4.78-10.9,4.78-10.9l2.13,3.63,2.3-12.66-10.27,12.31a15.49,15.49,0,0,0-10.81-7.17,22.89,22.89,0,0,0-9.11,1.1,53.6,53.6,0,0,1,9.31,13.17c7.71,15.14-1.06,41.72-1.06,41.72l4,4.51,6.83-1.39L240,258l-5.84-8.59,6.37-9.56,2.57,4.69,3.1-22.58-4.69,14.61Z"/><path class="cls-2" d="M222.46,220.53l.42.8a29.56,29.56,0,0,1,2.77,9.48l4.68,1.64-4.25-11.69Z"/><path class="cls-2" d="M221.69,207a24.57,24.57,0,0,0-8.12,1.19,52.86,52.86,0,0,1,8.51,11.66c1.82-.73,4.34-2.11,3.41-3.91C224.74,214.49,223.09,210.47,221.69,207Z"/><path class="cls-2" d="M231.51,248.74l-.35-12.87-5.34-3.49c1,10.37-1.54,21.77-3,27.3l8.83-7.16-4.73-7.08Z"/><path class="cls-2" d="M184.33,164.9s-15.16.48-23,.7c3.51.81,8.28,2,13.46,3.31l16.21-3.3-4.9-1.78,12.46-1.59-17.95.94Z"/><path class="cls-2" d="M209.08,165.55l3.16,5.16-4-17S208.85,161.25,209.08,165.55Z"/><path class="cls-3" d="M323.34,247.58c-.82-.34-3.44-3.73-3.44-3.73l-29-16-16.25.36,6.44,3.43-14.69-1.1s13.79,9.74,12.63,10.22-6.63-.64-6.63-.64l8.45,8.3L316,256l3.88-.11,27,9.44,6.61-2.06-4.71-4.83S324.16,247.92,323.34,247.58Z"/><path class="cls-1" d="M305.78,244.14l5.94,6.49-31.53-9,8.53-.68s-9.45-5.66-17.13-10l-5.21-.39s13.79,9.74,12.63,10.22-6.63-.64-6.63-.64l8.45,8.3L316,256l3.88-.11,27,9.44,6.61-2.06L351.22,261Z"/><path class="cls-2" d="M280.16,228.05l39.2,16.8s-19.77-11.2-29.76-17Z"/><path class="cls-2" d="M274.63,228.17l6.44,3.43-7.36-.55c11.21,4.28,29.36,11,30,11.26S287,232.69,278.9,228.07Z"/><path class="cls-3" d="M191.68,229.37,177,228.86l6.78-2.71L167.61,224,137,236.79s-3,3.08-3.83,3.33-26.43,8-26.43,8l-5.21,4.29,6.34,2.77,27.83-6.44,3.84.54,35.8-3.77,9.31-7.32s-5.57.51-6.66-.09S191.68,229.37,191.68,229.37Z"/><path class="cls-1" d="M191.68,229.37l-5.22-.18c-8.12,3.49-18.13,8.08-18.13,8.08l8.4,1.61-32.33,5.54,6.61-5.8-47,11.81-2.46,2,6.34,2.77,27.83-6.44,3.84.54,35.8-3.77,9.31-7.32s-5.57.51-6.66-.09S191.68,229.37,191.68,229.37Z"/><path class="cls-2" d="M137.44,237.83l40.8-12.41-9.36-1.24C158.32,228.86,137.44,237.83,137.44,237.83Z"/><path class="cls-2" d="M183.73,226.15l-4.24-.56c-8.54,3.7-26.87,11.64-26.17,11.44s19.4-4.89,31-7.91l-7.38-.26Z"/><path class="cls-2" d="M252.57,205.1c2.36,2.7,8.32,11.28,14,19.66l-3.18-9.67L270,218c1.3.59-21.49-25.27-21.49-25.27S250.61,199.11,252.57,205.1Z"/><path class="cls-1" d="M193.36,302.71l18.43-11.33L187.7,329.64l-23.39,11,4.25-12-14,10.82-9.7,24.25s15.59-4.61,17-5.31,10.28-10.63,10.28-10.63,20.9-11,22-13.47,23.74-41.45,23.74-41.45l3.19-2.12,3.54-18.43-2.7-4.44Z"/><path class="cls-3" d="M291.86,345.58l-24.1-25.51,17.36,3.9-40.38-45.35S246,286.4,247,294c12.15,19.84,28.88,44.69,41.2,53.53L302.91,358c-3.67-9.45-9.28-23.55-9.28-24.5C293.63,332.12,291.86,345.58,291.86,345.58Z"/><polygon class="cls-3" points="227.66 275.8 216.77 263.84 214.38 331.86 220.49 322.56 223.41 357.9 237.5 320.97 246.53 329.2 244.14 265.44 227.66 275.8"/><path class="cls-1" d="M226.07,323.62c1.86-1.06,15.68-19.39,15.68-19.39L223.41,357.9,237.5,321l9,8.23-2.34-62.42C237.46,287.37,224.56,324.49,226.07,323.62Z"/><path class="cls-2" d="M219.58,319.36l-1.24-50.13s-1.92,36.15-3.78,57.59l-.18,5,6.11-9.3,2.92,35.34,1.71-4.48-1.64-50.18Z"/><path class="cls-2" d="M181.5,314.94c-.54,1.77-17.54,25-17.19,25.68s23-13.82,23-13.82l-2-19.48,25.87-33.48-50.14,55.27S182,313.16,181.5,314.94Z"/><path class="cls-1" d="M159.66,355.8l-8.51,6-8.29-33s-7.51,45.44-7.52,48-19.13,87.77-19.13,87.77l7.36,10.3,12.13-48.71,12-10.37,8.64-24.34-.58-10.39,6.68-11.71Z"/><path class="cls-1" d="M320.36,338.56s-2.56,19.5-2.56,21.42-23.65-32.6-25.25-32.92,11.19,33.88,11.19,34.84-11.83-6.08-11.83-6.08,17.58,47.63,19.82,50.83,12.79,24,12.79,24l20.13,35.17,4.16-.32c-1.6-3.52-8-51.15-8-51.15Z"/><path class="cls-3" d="M138.05,415v0Z"/><path class="cls-3" d="M144.09,333.67l-1.23-4.87s-7.51,45.44-7.52,48c0,1.6-7.4,35.15-13,60.29l13.37-34.94s2.72,12,2.35,12.77c.52-1,13.84-24.06,13.84-24.06L153,372.77l-4.9,5.11S145.52,348.68,144.09,333.67Z"/><path class="cls-3" d="M328.23,402.19,308,347.38c-4.7-6.47-10-13.77-13-17.62l-1.4,2.35c2.9,9.49,10.15,29.07,10.15,29.79,0,1-11.83-6.08-11.83-6.08s17.58,47.63,19.82,50.83,12.79,24,12.79,24l5.05,8.82-10-43Z"/><path class="cls-1" d="M114.17,464l-10.08,22.38,3.4-.36s7.47-6.15,7.25-4.83-2.2,5.71-1.54,5.71,11.42-.44,11.42-.44l.66-22.4-6.81-4.39S116.92,461.4,114.17,464Z"/><path class="cls-1" d="M339.88,450.91l-.29,42.46,23.72,13.76L368,492.2s-22-25.48-24-49.48Z"/><path class="cls-1" d="M90.19,243.9,91,247l4.78,2.74-.18-3.36-2.39-.8a19,19,0,0,0,6-1.6c2.21-1.24,1.5-5,1.5-5C97.9,242.93,90.19,243.9,90.19,243.9Z"/><path class="cls-1" d="M93.42,251.48l3.46,2.92-1-3.19-1.06-.62a40.8,40.8,0,0,0,4-2.12c.4-.4,2.7-4.52,2.7-4.52l-9.3,5.27Z"/><path class="cls-1" d="M95.15,253.65l2.08,3,.18-3.41a36.9,36.9,0,0,1,3.77-1.91c1.55-.62,2.21-3.63,2.21-3.63l-8.5,4.08Z"/><path class="cls-1" d="M91.7,244.75l1.81-4.12,1.95.57c2,.58,5.94-.44,6.12-.44s-9.31-2-9.31-2S92.27,243.46,91.7,244.75Z"/><path class="cls-3" d="M116.68,246.83a3.5,3.5,0,0,0-.54.19A2.45,2.45,0,0,0,116.68,246.83Z"/><path class="cls-3" d="M116.14,247c-2,.64-8.58,2.6-8.58,2.6,0-.49-.67-8.86-.67-8.86l-4.65-1.64-1.76,2.74-3,4.7a3.34,3.34,0,0,0,2.3-1.15,14.12,14.12,0,0,0,2.39-3.32l2.22.53s-3.28,4.74-2,7.18,6.38,2.08,6.38,2.08l12.67-4.3-11.79,2.26S114.47,247.69,116.14,247Z"/><path class="cls-3" d="M355,260.32l11.53,5.21,1.37-2.85c-.6-.11-12.07-3.95-12.07-3.95Z"/><path class="cls-3" d="M354.41,261.41a5.22,5.22,0,0,0,2.42,3.24,77.87,77.87,0,0,0,7.24,3.3l.88-1.81S354.41,261.25,354.41,261.41Z"/><path class="cls-3" d="M353.81,263.5s1.26,3.57,2.25,4.34a47.2,47.2,0,0,0,4.39,2.52l1.92-1.53C362.37,268.55,353.81,263.5,353.81,263.5Z"/><path class="cls-3" d="M351.72,264.65a3,3,0,0,0,.88,3.19c1.59,1.7,4.23,3.9,4.23,3.9l1.21-1.05C358,270.47,351.72,264.65,351.72,264.65Z"/></g></g></svg>