<svg xmlns="http://www.w3.org/2000/svg" viewBox="0 0 315.19 449.04"><defs><style>.cls-1{fill:#115a70;}.cls-2{fill:#4df7ff;}.cls-3{fill:#2bb3ba;}.cls-4{fill:#168699;}.cls-5{fill:#f9f5f2;}.cls-6{fill:#0e7d89;}</style></defs><title>water_golem</title><g id="Layer_2" data-name="Layer 2"><g id="Capa_1" data-name="Capa 1"><path class="cls-1" d="M192.27,246.56l6.45,28.68L183.9,255.58l15.78,51.23-24.16-21.26,4.19,30.61,17.4,27.06-32.87-21.59L172.3,359l17.4,23.52,41.56-2.26c-.32-2.9-2.26-11.92,3.87-37s-8.38-52.2-12.89-59.93S192.27,246.56,192.27,246.56Z"/><path class="cls-1" d="M84.34,292.31c-1.29,2.58-3.87-38.66-3.87-38.66l-21.91,37L65.33,322,48.9,296.5l-6.13,40.92,19,36.09,28-21.59c.64-5.16,22.23-44.79,22.23-46.07s-18-50.91-18-50.91S85.63,289.74,84.34,292.31Z"/><path class="cls-1" d="M261.22,189.45l2.18-27.79-15.47-20.3v33.35l-9.67-41.32,2.66,35.28-6.28-26.58s-11.12-8.94-12.08-10.88.48,36,.48,36l14.5,28.51,32.62,11.36,4.59-9.18s-.48-31.41-1-32.14S261.22,189.45,261.22,189.45Z"/><path class="cls-2" d="M160.94,18.37,119.37,0l19.82,34.31L87,9.67l11.6,22.71-26.1-7.25S60.9,41.08,43.5,45s-43.5,1-43.5,1L82.64,84.09,17.4,80.23,67.18,98.11,9.67,136.77s39.14,7.74,47.84,31.9l65.25-.48L25.13,197.67l57.51-5.32L16.43,254.7l81.32-43L57,272.1,146.68,194l33-81.12-7-52.35Z"/><path class="cls-2" d="M160.94,18.37,119.37,0l19.82,34.31L87,9.67l11.6,22.71-26.1-7.25S60.9,41.08,43.5,45s-43.5,1-43.5,1L82.64,84.09,17.4,80.23,67.18,98.11,9.67,136.77s39.14,7.74,47.84,31.9l65.25-.48L25.13,197.67l57.51-5.32L16.43,254.7l81.32-43L57,272.1,146.68,194l33-81.12-7-52.35Z"/><path class="cls-3" d="M100.18,138.36c-.66,11.83-9.06,21.19-14.16,30.1l36.74-.27L82.14,180.45a14.47,14.47,0,0,0,1.47,6.1C91,202,89.33,209.75,97.75,211.68a175,175,0,0,0,24.43,3.7L146.68,194l14.46-35.55-18.57-55.71S101.29,118.53,100.18,138.36Z"/><path class="cls-1" d="M57.51,168.67,67,168.6l47.52-10.72.32-21.91-102,1.55C22.33,140,50.32,148.7,57.51,168.67Z"/><path class="cls-1" d="M25.13,197.67l57.33-5.3,30.14-11.73s-47.1,8.64-76.71,13.78Z"/><polygon class="cls-1" points="17.4 80.23 65.32 97.44 111.64 92.47 19.15 80.33 17.4 80.23"/><path class="cls-1" d="M119.37,0l19.82,34.31-4.16-2,15.6,15.34,2.9-22.24S139.6,13.31,129.08,4.29Z"/><path class="cls-1" d="M72.66,211S44.46,233.82,23,251.22l74.75-39.54-4.84,7.18,24.53-12,3.22-16.75L60.09,226.5Z"/><path class="cls-1" d="M131.13,57.32c4.75,3.66,8.12,6.22,8.54,6.47s-.67-1.91-2.51-5.21c6.45,1.36,10.89,2.32,10.89,2.32l-11.41-3.25c-5-8.78-14-23.82-14-23.82s-12.22-9.58-24.67-19L87,9.67,98.35,31.91c7.36,5.72,20.71,16.09,30.26,23.46C109.76,50,83.72,42.73,81.68,42.53,78.45,42.21,74.27,53.81,53,56.06,37.71,57.68,13.59,50.31,1.25,46L0,45.91l77.49,35.8,66.05,8.83,5.8-13.21s-58-25.13-60.25-27.39C87.61,48.47,113.2,53.59,131.13,57.32Z"/><path class="cls-1" d="M57,272.1l50.29-43.79c3.71-7.49,6.25-12.76,6.25-12.76s-29.67,27.66-50,46.85Z"/><path class="cls-1" d="M204.18,53.28,182.81,85.07c2.33.61,6.72,41.11,6.72,41.11l20.73,4.95,2.71-7-2.5-12.81s10.23,15.84,11.91,17.89-3.53-28.86-3.53-28.86l14.53,13S204.86,52.72,204.18,53.28Z"/><path class="cls-1" d="M276.08,245.15s-6.36-3.51-8.87-3.51-3.68,5.19-3.68,5.19l12.55,4.35,14.4-4.85L284,234.78Z"/><path class="cls-1" d="M265.81,197.45,249.3,213.52l-5.36,19.86s8,13.39,8.71,14.06,2.9,13.39,2.9,13.39h4.68c3.13-2.9,1.79-10.71,1.79-10.71l-2.9-13.84,16.07-3.57,11.16,9.38-2,8.25a12,12,0,0,0-7.81,3.8c-3.8,3.79-.45,8.48-.45,8.48l18.52-4.47,4.69-17L285,210.39S266.93,197.9,265.81,197.45Z"/><path class="cls-2" d="M284.89,210.31a25.68,25.68,0,0,0,.06,6.39c.34,2.84,4.86,22.09,4.86,22.09l8.81,1L285,210.39Z"/><path class="cls-2" d="M291.65,241l-.84,12.22s2.45,1.16,4.59,2.08l3.89-14.08-.47-1Z"/><polygon class="cls-2" points="279.54 261.78 294.08 258.28 289.47 255.53 279.54 261.78"/><path class="cls-3" d="M277.07,219.8l-9.86-24.06L241,172s-3.12-10.51-3.6-11.16S212,134.56,213.62,131.7,203.75,109,203.75,109l-4.66,17.51-13.76-23.18L193.07,130l-25.29-23.69,17.13,44-15-18.71s3.46,16.17,6.2,27.3,26.2,19.46,26.2,19.46l-13-2.46s15.72,17.65,17.5,19.36,46.82,25.35,46.82,25.35c5.92,5.21,25.3,7.63,25.3,7.63l-7-7.59Z"/><path class="cls-2" d="M241,172s-3.12-10.51-3.6-11.16S212,134.56,213.62,131.7,203.75,109,203.75,109l-2.49,9.36c2.65,7,6,15.39,6,15.39l-3.05,8.36,4.42,9.53,3.37-6.57,14.85,19-14.17-4.95,60.65,51.62-6.13-15Z"/><path class="cls-1" d="M269.65,221.63l-.31-7.2s-10.67-2.51-11.48-2.24,5.57,5.64,5.57,5.64L242.87,207.5l12.24-.35L220,189.48s20,5,19.32,4.15-13.08-9.82-13.79-10.31-28.42-.06-28.42-.06L190,176l-.71-.13s15.72,17.65,17.5,19.36,46.82,25.35,46.82,25.35c5.92,5.21,25.3,7.63,25.3,7.63l-1.37-1.48Z"/><polygon class="cls-1" points="168.71 108.68 184.25 148.58 189.26 155.63 187.12 141.01 199.35 147.43 168.71 108.68"/><path class="cls-1" d="M182.16,156.54l-9.07-21-3.17-3.95s3.46,16.17,6.2,27.3c1.13,4.6,5.8,8.72,10.89,12l12.23,5.4-7-14.36Z"/><polygon class="cls-1" points="193.07 129.98 192.61 129.54 199.35 138.72 185.32 103.32 193.07 129.98"/><polygon class="cls-4" points="199.75 124 204.1 136.94 209.19 131.88 203.3 110.69 199.75 124"/><path class="cls-1" d="M206.56,170.08l5,.58L196.11,156.1C196,157,206.56,170.08,206.56,170.08Z"/><path class="cls-1" d="M237.35,187.89c.36.49,20.76,14.9,20.76,14.9l-7.62-8.5Z"/><path class="cls-4" d="M181.65,148.93c.63-2.09,1-3.28,1-3.28l-8.44,4.45Z"/><path class="cls-4" d="M196.61,146.59l-15,2.34c-1.72,5.71-5.47,18.15-9.58,31.56,2.83,13.82,6.85,38.76,7,43.85.14,7,13.88,19.4,13.88,19.4L203,277.1,227.72,288S236.34,272,235.33,261,196.61,146.59,196.61,146.59Z"/><path class="cls-4" d="M174.19,150.1l-16.36,2.56-16.52.65S113.22,194.06,114,202.07s-10,78.06-10,78.06l7.91,9.36,18.94-30L156.25,229c1.25-1.5,9-26.3,15.82-48.46-1.09-5.33-2-9-2.45-9.24-1.59-.87-.19-18.64-.19-18.64Z"/><path class="cls-4" d="M169.43,152.61s-1.4,17.77.19,18.64c.44.24,1.36,3.91,2.45,9.24,4.11-13.41,7.86-25.85,9.58-31.56l-7.46,1.17Z"/><path class="cls-2" d="M153.89,210.17s-9.3,19.05-4.56,27.1l6.92-8.32c.87-1,5-13.57,9.68-28.6l.35-19.3-13.39,47.53Z"/><path class="cls-2" d="M198.13,150.78c-1.18,9.48-1.72,30.82-1.72,30.82l17.4,49.77L210,204.59s16.29,40.84,16.51,43.3c.13,1.42,4.73,11,8.59,18.9a25,25,0,0,0,.21-5.76C234.45,251.36,205.19,170.26,198.13,150.78Z"/><path class="cls-1" d="M204.44,210.39l-5,22.1L186,215.08l-6.36-60.26-11.39,16.65,2.23,10,.22-.73c.69,3.35,1.45,7.37,2.2,11.59l.38,1.68-.05.15c2.23,12.72,4.35,26.75,4.43,30.42.14,7.05,13.88,19.4,13.88,19.4l10.11,33.36,24.7,10.85s.25-.47.67-1.32L211.8,264.63Z"/><path class="cls-1" d="M157.53,152.72l-1,.17-16.51.64s-28.1,40.76-27.36,48.76-10,78.06-10,78.06l7.91,9.36,18.94-30,6.54-7.86c-4.49-4.92-8.44-9.6-8.58-11-.33-3.35,2.68-21.09,5.69-24.11s18.42-16.4,18.42-16.4l-26.12,8,9.38-14.73L154.89,185s5-30.46,4-31.47A7.83,7.83,0,0,0,157.53,152.72Z"/><path class="cls-1" d="M191.19,38.28s-10.74-3-14.66-2.37-9.6,3.48-9.6,3.48l7.84,4.78L165,47.06l-6.22-1.88-11.49,8.69,5.81,1L147.18,65.6l-8.79,1.88-3.52,14.78,5.41-1-4.73,17L133,142.36l1.62,8.69,5.41.87,47.07-2.9,7.85-5.21-.82-42.87S208.72,85.3,209.67,84s10.68-30.27,10.68-30.27l-17-17.53Z"/><path class="cls-1" d="M130.19,81s-23.88,36.16-25.89,41.73-.45,18.08-.45,18.08l1.79-1.34h4.91s19.42-14.73,28.12-24.77S165,68.45,165,68.45l-21.65,6C142,74.25,130.19,81,130.19,81Z"/><path class="cls-3" d="M162.27,104.72c0,.09.3,0,.8-.24C162.57,104.54,162.27,104.62,162.27,104.72Z"/><path class="cls-3" d="M201.94,76.93c-1.84,1-17.24,16.74-16.4,16.74s8.57,7.27,8.57,7.27S208.72,85.3,209.67,84a63.31,63.31,0,0,0,2.4-6.22L206.74,75A34.83,34.83,0,0,0,201.94,76.93Z"/><path class="cls-3" d="M183.19,99.53c-2.34-1.67-5.35-3.52-5.35-3.52s-11.59,7-14.77,8.47c3-.39,13.09-.26,13.09-.26s2,4.18,9.21,4.35,8,1.5,8,1.5-8.53,4.86-13.72,2.85a17,17,0,0,1-7.37-5l-12.38,3.51-5.19,9.71,10.88-2.51s.33,3,9.87,3.35,15.24-1.84,15.24-1.84S185,127,173.65,126.48s-10.21-3-10.21-3l-14.06,13.39,15.74,5.52s5.86-5,6.52-5.52,10.22,1,10.22,1.5,1.33,4.35,1.33,4.35l2.35-8.87.5,10.55,8.82-4.16-.75-39.29S185.54,101.2,183.19,99.53Z"/><path class="cls-2" d="M191.2,100.93l-6.56,7.61.73,0c7.2.17,8,1.5,8,1.5a32.53,32.53,0,0,1-4.18,1.92l-10.13,10a48.78,48.78,0,0,0,7-.69c3.22-1.17,6.14-2.21,6.77-2.39.95-.27-6.08,10.52-11.8,19.12.51.14.83.26.83.35,0,.51,1.33,4.35,1.33,4.35l2.35-8.87.5,10.55,8.82-4.16-.75-39.29S192.87,101,191.2,100.93Z"/><polygon class="cls-4" points="225.22 72.17 214.58 63.15 196.7 48.01 193.48 70.4 197.67 66.05 197.83 80.55 208.14 97.14 208.14 85.38 217.97 106 226.02 114.38 222.96 96.02 236.17 107.29 225.22 72.17"/><path class="cls-3" d="M210,25,186.6,38.33l10.07,4.06,1.4,14.13,4.76-2.38L206.74,75l4.9-5,6.43,14.13,4.76-6.85,5.73,8.53-.84-27.7-1.82,1.12,1.54-8.25,2.8,4.34,3.36-9,1.54-6.57L227,31.34C223,29.66,210,25,210,25Z"/><path class="cls-2" d="M219.24,76.32c0,.17.26,2.75.5,5.34l3.09-4.44.19.29-1.61-5.32A34.32,34.32,0,0,0,219.24,76.32Z"/><polygon class="cls-2" points="224.37 39.16 231.4 47.75 230.15 55.12 230.24 55.26 233.6 46.3 235.14 39.73 230.46 34.89 224.37 39.16"/><path class="cls-2" d="M225.9,59.17l.16-.83-1.8,1.18s-1.49,6.8-2.09,9.35c.54-1.73,1.81-5.1,1.81-5.1l.28,7.86,1.84-5.19.34,7.2-1.12-3-.47,9.54,3.71,5.53-.84-27.7Z"/><path class="cls-2" d="M222.17,68.87a5,5,0,0,0-.25.92A5.39,5.39,0,0,0,222.17,68.87Z"/><polygon class="cls-2" points="226.83 36.03 229.72 34.13 229.15 33.53 226.83 36.03"/><polygon class="cls-4" points="220.75 40.53 223.91 46.69 228.41 46.22 225.01 40.85 220.75 40.53"/><path class="cls-4" d="M230.08,48.23S224,49.7,223.26,50s-2.09,11.12-2.09,11.12l6.58-2.18,0-.85-1.82,1.12,1.54-8.25,2.8,4.34v0c-1.09-2-2.63-5.11-2.63-5.11Z"/><path class="cls-4" d="M226.2,31C221.46,29.12,210,25,210,25L186.6,38.33l10.07,4.06,1.4,14.13,4.76-2.38L206.74,75l2.68-2.76L209.16,62l7.65-5.35.63-7.24-3.67-9.75L219,35.85,207,39.94s-4.19,12-4.19,10S205.27,37,205.27,37l7.56-4.19-6.19,1,10.91-3.26Z"/><path class="cls-4" d="M226.2,31C221.46,29.12,210,25,210,25L186.6,38.33l10.07,4.06,1.4,14.13,4.76-2.38L206.74,75l2.68-2.76L209.16,62l7.65-5.35.63-7.24-3.67-9.75L219,35.85,207,39.94s-4.19,12-4.19,10S205.27,37,205.27,37l7.56-4.19-6.19,1,10.91-3.26Z"/><polygon class="cls-4" points="213.67 67.74 211.88 70.47 218.07 84.07 218.23 83.85 217.65 71.2 213.67 67.74"/><polygon class="cls-4" points="221.56 79.04 222.83 77.22 227.91 84.78 222.69 74.24 221.56 79.04"/><polygon class="cls-1" points="225.6 42.87 223.2 41.44 222.01 41.6 224.03 44.6 226.18 45.59 223.12 46.98 221.69 45.97 220.66 50.18 222.01 46.56 223.28 47.56 227.21 45.61 225.64 42.47 225.6 42.87"/><polygon class="cls-5" points="223 42.04 224.47 44.03 226.6 45.36 225.17 43.51 223 42.04"/><path class="cls-4" d="M152.28,39.66c-7.36,0-36.15,6.7-36.15,6.7l17,6.92L107,76.49l22.76-3.8-10,23.21,33.92-9.37L148,101.26,200,72,187.32,49.7S159.65,39.66,152.28,39.66Z"/><path class="cls-3" d="M172.48,54a103.75,103.75,0,0,0-14.56-2.17s-4,32.47-4.52,30.63-.8-17-.69-18c-.61.67-14.54,4.47-14.54,4.47S136.11,86,128.76,93.4l24.86-6.87L148,101.26,200,72,188.6,52C183.64,53.6,177.46,55,172.48,54Z"/><path class="cls-3" d="M152.71,64.43s0,0,0-.05S152.72,64.37,152.71,64.43Z"/><polygon class="cls-3" points="107.6 76.38 128.11 72.97 128.13 72.92 136.83 64.21 128.96 62.7 107.6 76.38"/><path class="cls-3" d="M120.8,93.36l-1.1,2.54,6.72-1.85c3-3.86,6.29-9.18,6.73-14.61C133.15,79.44,126.25,89.23,120.8,93.36Z"/><polygon class="cls-3" points="132.09 52.87 142.19 51.83 118.07 47.15 132.09 52.87"/><path class="cls-3" d="M152.71,64.43s0,0,0-.05S152.72,64.37,152.71,64.43Z"/><polygon class="cls-3" points="107.6 76.38 128.11 72.97 128.13 72.92 136.83 64.21 128.96 62.7 107.6 76.38"/><path class="cls-3" d="M120.8,93.36l-1.1,2.54,6.72-1.85c3-3.86,6.29-9.18,6.73-14.61C133.15,79.44,126.25,89.23,120.8,93.36Z"/><polygon class="cls-3" points="132.09 52.87 142.19 51.83 118.07 47.15 132.09 52.87"/><path class="cls-3" d="M148.38,131.5c1.17.34,6.86-5.86,6.86-5.86L146,119S147.21,131.17,148.38,131.5Z"/><path class="cls-2" d="M182.52,61.2a23.65,23.65,0,0,0-11.38.67s6.14,5.91,2.46,8.93-5.47-2.12-5.47-2.12L169,84.86l-2.45-13.73-2.9,14.06V74.59L150.33,95.24l-2.29,6L200,72l-1.72-3C193.25,65.79,186.41,61.85,182.52,61.2Z"/><path class="cls-2" d="M133.64,272.77l8.87-13L136,236l-9,20.08-16.57,14.4.17-12.72L100,280.64,72.16,326.53l-8.53,28.62L47.56,372.72,30.49,426l22.09,9.54,12,13.55,27.12-.5L142.46,434s-8-19.58-6-25.61-2.08-63.18-2.08-63.18l-1.23-20s4.86-15.06,6.36-17.91S137.32,284,137.32,284l10.38-23.27Z"/><path class="cls-4" d="M126.94,256l-16.57,14.4.17-12.72L100,280.64,72.16,326.53l-8.53,28.62L47.56,372.72,30.49,426l22.09,9.54,12,13.55s1.51-25.1,1-27.11,17.07-21.59,17.07-21.59l24.1,3-9-47.7s21.09,7,22.6,6.53-13.06-43.69-10-63.77,25.1-35.15,25.1-35.15l1.49-23.87L136,236Z"/><polygon class="cls-1" points="72.16 326.52 63.63 355.15 47.56 372.72 30.49 425.95 44.74 432.1 55.09 409.38 53.59 388.29 69.15 376.74 68.15 349.62 96.77 332.05 93.75 294.39 98.62 282.9 72.16 326.52"/><path class="cls-4" d="M123.87,356.35s.23-12.72.45-13.39l-10.27-26.11Z"/><polygon class="cls-4" points="109.59 405.23 126.55 416.39 105.13 366.62 109.59 405.23"/><path class="cls-4" d="M122.09,393c0-1.33.22-26.78.22-26.78l-13.84-2.67S122.09,394.29,122.09,393Z"/><path class="cls-4" d="M116.28,420.13l8,6.3S125.67,425.66,116.28,420.13Z"/><path class="cls-4" d="M86.38,405.9,69.19,423.08s33-10.93,44.86-4.24c.8.46,1.54.88,2.23,1.29l-11.6-9.1Z"/><path class="cls-2" d="M145.41,261.06l-13.95-8.93-7.9-13.93,7.33-3.81c-.1.07-.46.57,2.47,3.9,3.23,3.68,9.15,3.57,9.15,3.57l-.45,9.6,5.36.89c6.13-6,4.91-16.4,4.91-16.4-9.26-.56-13.73-16.63-13.73-16.63s-5.58-3.57-11.6,2.23-19.42,1.57-19.42,1.57L94.3,232.38c-.83,1.49.86,5.55,2.71,7.7,0,.41,0,.87-.05,1.35l-5.45.21c0,1.56,3.68,35.71,3.68,35.71s8.26,7.7,12.17,10.93,14.5-.78,14.5-.78l.9-5.6,12.72,3.48s6.56-6.24,9.72-9.44l1.88,1,7.81-8.59.67-6.47-9-3.8Zm-32.14,20-4.13-1.12-7.25-8,2.23-10.95,9.37,18.43.79.21Zm20.2-4.46s-14.28-6.25-13.62-7c.37-.44-2-9.05-4.27-16.73l9,12.6,13.69,7Z"/><path class="cls-1" d="M119.19,234.83,108,230.93s-3.27-2.09-6.22-3.79l-3,2.11c2.12,4.87,5.59,12.26,5.59,12.26l13.47,12.85-9.65-8,7.77,7.81-.39-1.34,2.36,3.32.46.46.28.58,5.3,7.44,5.14-9.91-9.6-10.38Z"/><path class="cls-1" d="M136,271.25l2.23,1.14-2,1.79,6.56,2.64.43,0a1.57,1.57,0,0,0,0,.2l.7.28,1.33-1.33,1.88,1,7.81-8.59.12-1.1-10.61-3.59Z"/><path class="cls-1" d="M110.37,285.61,99.88,274.89,96,245.54s5.19,11.38,7.81,17.07l.34-1.68,7.36,14.47c1.84-2.33,4.37-5.61,4.58-5.75s-5.8-13.73-5.8-13.73L98,237.85l10.22,8.49-13.9-14c-.83,1.49.86,5.55,2.71,7.7,0,.41,0,.87-.05,1.35l-5.45.21c0,1.56,3.68,35.71,3.68,35.71s8.26,7.7,12.17,10.93,14.5-.78,14.5-.78l.31-1.89c-2.34-1.12-4.44-2-4.44-2Z"/><polygon class="cls-1" points="124.31 265.09 124.54 265.41 135.78 271.14 143.29 261.95 131.79 256.03 124.31 265.09"/><path class="cls-1" d="M128.45,277.79l-11.83-5.69s-2.84,2.1-4.92,3.74l1.79,3.52.79.21-1,1.46c1,1.13,4.72,2.14,9.15,3l.34-2.1,12.72,3.48s4.31-4.1,7.63-7.36c0-.47,0-.83.06-1l-.42-.17Z"/><path class="cls-3" d="M114.35,103,101.64,127.7,99.57,93.11l-17.81,43.7,2-23.89S75.14,127,69.47,137s5.63,32.14,5.63,32.14l-7.74-10.72s-.73,23.63-.61,26.09,16.55,50.6,16.55,50.6C84,243,96.42,258.06,96.42,258.06l.12-10.34,4.29,3,9.39-24.25-2.68-35.21s5-9.77,5.06-10.58-.34-36.57,2.77-37.56,8.46-23.27,8.46-23.27l-15.43,9.5Z"/><path class="cls-2" d="M109.36,140.19l-8,4-3.35,10,7-2.46-2.27,24-6.88-13.35,8.52,79.19,5.84-15.08-2.68-35.21s5-9.77,5.06-10.58-.34-36.57,2.77-37.56,8.46-23.27,8.46-23.27l-8.25,5.08C112.67,131.82,109.36,140.19,109.36,140.19Z"/><path class="cls-1" d="M92.13,231.94c-.78-.37.16,7.92.16,7.92l-7.82-21.64,9.13,8.16-13.38-37s11,17.38,11.17,16.3-2.74-16.13-2.91-17-20.6-19.59-20.6-19.59L67.79,159l-.43-.59s-.73,23.63-.61,26.09,16.55,50.6,16.55,50.6C84,243,96.42,258.06,96.42,258.06l0-2-2.25-9.14,4.72-5.44S92.9,232.3,92.13,231.94Z"/><polygon class="cls-1" points="81.22 143.7 89.73 131.62 94.19 144.68 98.6 95.48 82.44 135.13 81.22 143.7"/><path class="cls-1" d="M69.14,153.18l5.16,12.33,4.79-15.25-3.64-10.78L83.33,118l.42-5S75.14,127,69.47,137C67.13,141.12,67.68,147.32,69.14,153.18Z"/><polygon class="cls-1" points="101.6 127.07 100.18 138.36 114.35 103.02 101.64 127.7 101.6 127.07"/><polygon class="cls-4" points="104.86 140.34 112.03 140.16 122.33 120.73 110.6 127.95 104.86 140.34"/><path class="cls-1" d="M83.84,166.09l3.23,3.85-1.19-21.2C85.2,149.28,83.84,166.09,83.84,166.09Z"/><path class="cls-1" d="M98.77,225.29l.31-11.41L94,200.19C93.87,200.79,98.77,225.29,98.77,225.29Z"/><path class="cls-1" d="M149.88,150.08c-1.67.17,1.85-4,1.85-4l-16.07,3.69L133,142.36l-.34,5.21L124.11,165s13.22-4.19,14.56-4.35-7,8.7-7,8.7,25.94-5.19,26.45-5-2.51,7.7-2.51,7.7l23.26-9.54-3.68,26.28,23.27-24.28,4.18-32-20.75,15.57S151.56,149.91,149.88,150.08Z"/><path class="cls-2" d="M267.49,339.58l-2-19.58-15.06-36.66,7-28.12L228.83,210l11.55,42.18-14.57-17.57,2,25.6-8,21.09L199.2,272.8l-3.51,14.56v28.12l1,36.65-11.05,17.58L181.13,429l1,3.51s38.66-4,44.69-4.51S259,443,261,444s54.23-15.56,54.23-15.56l-33.14-42.68Z"/><path class="cls-6" d="M241.15,433.25c8.94,4.45,18.62,10.18,19.81,10.77.48.24,3.76-.5,8.5-1.78l-12-35.37S247.2,422.12,241.15,433.25Z"/><path class="cls-6" d="M246.4,265.27l-20-22.59,1.37,17.56-8,21.09L199.2,272.8l-3.51,14.56v28.12l1,36.65-11.05,17.58L181.13,429l1,3.51s38.66-4,44.69-4.51c1.45-.13,4.07.69,7.24,2l3.3-28.12,1-36.65-14.06,10.54c-10.55-26.11,20.08-24.6,24.1-37.66s-16.07-42.17-16.07-42.17Z"/><path class="cls-1" d="M219.84,344.08l-14.06-1,10.71-26.78s-11.64-16.8-20.62-29.69l-.18.76v28.12l1,36.65-11.05,17.58L181.13,429l1,3.51,19.26-2c2-8.41,6.63-27.47,7.05-30.72.06,2.89,1.11,18.52,1.87,29.81l3.94-.4,10.61-41.92-16.07-18.74Z"/><polygon class="cls-4" points="245.06 392.73 252.65 374.21 242.16 358.81 245.06 392.73"/><path class="cls-4" d="M245.28,410.81l12-17.63-.67-15.62S246.17,408.13,245.28,410.81Z"/><path class="cls-1" d="M139.08,234.86a89.44,89.44,0,0,1-4-10.63l-12.89,12.64s1.19,1.51,2,2.43l-.62-1.1,7.33-3.81c-.1.07-.46.57,2.47,3.9,3.23,3.68,9.15,3.57,9.15,3.57l-.45,9.6,5.36.89a16.41,16.41,0,0,0,4.21-7.69l-.33-4S141,238.71,139.08,234.86Z"/><polygon class="cls-2" points="104.23 349.66 114.05 354.79 108.7 331.8 104.23 349.66"/><polygon class="cls-2" points="93.63 393.62 98.99 397.98 96.64 376.55 93.63 393.62"/><polygon class="cls-2" points="217.97 86.51 219.74 102.46 215.55 88.77 218.79 106.86 226.02 114.38 223.23 97.62 217.97 86.51"/><polygon class="cls-2" points="203.47 86.99 208.14 96.34 208.14 85.38 208.29 85.69 206.74 74.98 203.47 86.99"/><path class="cls-2" d="M228.76,96.82l-4.83-10.95L226.41,99l9.76,8.33-5.48-17.57C229.63,93.43,228.76,96.82,228.76,96.82Z"/><path class="cls-1" d="M77.93,346.16l4.6,15.95-11.24,2.42.48,7.37-19.45-2.06L46,395.94l19.57,9.3,5.68-12.32,17.28-2.42L69.84,391l-5.2,10.39-15.34-10,3.5-16.68,22.11.61-1.33-7.37,3.51,4.47s10.63-1.93,11.11-2.3-11-.6-11-.6l-.85-2.9,9.55-2.66L80.59,347l11.24-9.07Z"/><polygon class="cls-1" points="146.68 194.04 145.59 186.31 142.09 186.55 144.87 195.98 154.53 193.8 156.95 204.31 156.22 191.75 146.68 194.04"/><polygon class="cls-1" points="191.63 196.1 198.03 201.29 193.56 209.51 188.24 205.64 184.26 218.69 191.87 230.05 194.16 216.03 188.73 223.04 190.06 208.9 194.53 212.77 200.45 200.45 194.41 196.34 201.17 187.03 191.63 196.1"/><path class="cls-1" d="M95,196.58l2.78,15.1s-10.76,2.78-11.6,3l-8.34-7.25,5.8,11.24,15.47-4.81-1.21-16.09,6.88-5.08Z"/><path class="cls-1" d="M182.62,86.31l4.58-1.25s-.65-15-.65-16.92C186.55,66.58,183.71,80.79,182.62,86.31Z"/><path class="cls-1" d="M182.2,88.44l.42-2.13-1.05.28Z"/><path class="cls-1" d="M162.55,67.66c0,.48-3.71-13.85-4.19-14.66s2.25,17.24,2.25,17.24l11.44-5.16,6.29,22.4,3.23-.89-8.87-26S162.55,67.18,162.55,67.66Z"/><polygon class="cls-1" points="226.13 57.97 219.86 61.7 226.42 59.04 227.54 58.17 225.91 59.17 226.13 57.97"/><path class="cls-1" d="M208.57,44.13l-.11-.07Z"/><polygon class="cls-1" points="170.07 105.88 170.66 105.77 170 105.48 170.07 105.88"/><polygon class="cls-1" points="177.12 108.06 180.87 111.88 181.93 110.25 177.13 108.02 177.12 108.06"/><polygon class="cls-1" points="167.78 106.3 171.93 115.87 170.07 105.88 167.78 106.3"/><path class="cls-1" d="M175,122.76l2.17-14.7-2.89-2.94-3.57.65L175.8,108l-2.9,15.7s-4-.24-4.35-.12,1.81,10.15,1.81,10.15l.73-8.7,6.52.85,2.3,16.43-.37-17.76Z"/><path class="cls-2" d="M252.6,161.1c.32.64,7.9,22.23,7.9,22.23s.54-1.11,1.43-2.9l1.47-18.77-13.16-17.27C251.19,151.66,252.41,160.71,252.6,161.1Z"/><path class="cls-2" d="M273.2,166.43c-1.91,9.12-4.33,20.12-4.33,20.12l5.52,12.09.36-.73s-.48-31.41-1-32.14C273.73,165.69,273.52,165.93,273.2,166.43Z"/></g></g></svg>