<svg xmlns="http://www.w3.org/2000/svg" viewBox="0 0 170.48 242.56"><defs><style>.cls-1{fill:#3a3559;}.cls-2{fill:#23c1c1;}.cls-3{fill:#22b2ae;}.cls-4{fill:#19a0a3;}.cls-5{fill:#554d77;}.cls-6{fill:#4ba1af;}.cls-7{fill:#127f87;}.cls-8{fill:#4d4c72;}.cls-9{fill:#556018;}.cls-10{fill:#0d6b6d;}.cls-11{fill:#b27422;}.cls-12{fill:#db9633;}.cls-13{fill:#644172;}.cls-14{fill:#c6ccb4;}.cls-15{fill:#2d2630;}.cls-16{fill:#f1ff00;}.cls-17{fill:#4b5110;}.cls-18{fill:#3fd1cd;}</style></defs><title>water_guardian1</title><g id="Layer_2" data-name="Layer 2"><g id="Capa_1" data-name="Capa 1"><path class="cls-1" d="M75.58,176.71c-.91-.14-1.55-.29-1.55-.29S73.92,177.63,75.58,176.71Z"/><path class="cls-1" d="M51.9,164.29c-2.29-3.61-8.08-2.35-7.54,0A6.82,6.82,0,0,0,46.71,168s-.38-6.12,3.88-3.28,8.14,5.74,9.95,1.53-5.85-9.34,1.91-9.89,6.28,5.3,10.76,2.41,5-3.88,5.08-3.66,3.45,7.26-4.59,7.21-8.9,5.63-4.15,6.94,10.44,4.1,7.38,6.55a10.28,10.28,0,0,1-1.35,1c2.53.38,7.2.64,6.16-2.86-1.43-4.75-9.24-3.33-9.46-6.28s4.32.82,10-2.57,17.81-13.22,17.81-13.22,4.87-10.66,4-14.54-2-4.75-2-4.75,2.4-4.59,2.24-7.81a8,8,0,0,0-2.79-5.3s7-9.08,5.19-13.56-8.58-7.65-8.58-7.65L60.26,75.44s-13,7.87-10.93,13.23,11.15,11.14,6.45,15.52-2.16,16.9,3,18.5,10.69,2.91,6.1,9.25,1.64,11.15,4.7,12,2,10.66-6.17,8.75-9,.92-6.51,6.94S54.2,167.9,51.9,164.29Z"/><path class="cls-1" d="M99.3,25.86s6.64-.25,6.72-3.69-4.26-4.51-4.26-4.51L68.49,40.28,78.24,56s8.36-.66,11.23-4.43-.41-11.39-2.38-13.68S99.3,25.86,99.3,25.86Z"/><path class="cls-1" d="M53.57,45c-7,2-5.9,7.54-1.72,9.75s6.83,10.29,7.92,11.83,27-22.89,27-22.89L65.82,20.24s-2.17,6.93-8.89,7.91-5.41,6.31-3.12,8.69S60.62,43.07,53.57,45Z"/><path class="cls-2" d="M99.14,20c6.1.16,9.26-2.75,9.26-2.75a14.24,14.24,0,0,1-2.13-2.05c-1.27-1.43-.82-7.29-.82-7.29a12.35,12.35,0,0,1-4.75,0c-3.16-.49-5.29-6.11-5.29-6.11A19.6,19.6,0,0,1,91.31,4c-1.84.61-12.83-3-12.83-3A13.24,13.24,0,0,1,75.9,6.72c-2.33,3.28-8.36,3.53-8.36,3.53a7.6,7.6,0,0,1,0,4.22c-.61,2.66-5.24,6.59-5.24,6.59s.82,1.07.86,4a31.5,31.5,0,0,1-1.31,7.38Z"/><path class="cls-3" d="M99.48,12.73c-1-.59-.75.89-.89,1.09l.6.74C100,14.63,100.5,13.32,99.48,12.73Z"/><path class="cls-3" d="M72.35,12.73a2,2,0,0,0-.53-.82l-.56-.05s-1.87.52-1.11,1.36S72.49,13.21,72.35,12.73Z"/><path class="cls-3" d="M81,15c0,.14,0,.22,0,.22A.91.91,0,0,0,81,15Z"/><path class="cls-3" d="M88.56,10.51a3.94,3.94,0,0,0-.38.17A1.29,1.29,0,0,0,88.56,10.51Z"/><path class="cls-3" d="M64.67,28.56l11.71-8.14,19.68-1.84s.8-1.68,3.94-1.08.7-.68.7-.68,1.88.66,1.63-.92-3.74-.43-3.81-.41-2.37-1.25-2.37-1.25a2.25,2.25,0,0,0,1.62-1.41c.32-1.15-1.91-.86-1.91-.86s2.15-.88,1.35-2.16-3.77,2.75-3.77,2.75l-3.21,0s.59-.27.47-1.68c-.1-1.06-1.46-.66-2.14-.39a1.29,1.29,0,0,1-.38.17,3.94,3.94,0,0,1,.38-.17A1.06,1.06,0,0,0,89,10c.2-.6-.87-.78-.87-.78s1.68-.51.74-1.7-2,1.5-2,1.09-.8-.46-.8-.46,1.15-1.74,0-2.62-1.63,2-1.63,2a11.67,11.67,0,0,1,0,1.25c0,.27.62,3.5.62,3.5l-.31,2A2.25,2.25,0,0,0,82.73,12C81,11.6,81,14.23,81,15a.91.91,0,0,1,0,.22s0-.08,0-.22a10.12,10.12,0,0,0-.66-2.46c-.72-2-3.61,1.35-3.67,1.35s1.37-1.45.72-2.35-2,.65-2,.65-.55-2.13-2-1.33.17,2.23.37,2.73,1.39,1.68,1.29,1.84a22.37,22.37,0,0,1-3,.63S71.33,14.2,70,14.77s-.14,1.79-.14,1.79L68.2,20.39a5.1,5.1,0,0,0-2.38-.15c-1.62.19-.2,2.44-.14,2.48a1.59,1.59,0,0,0-1.09.68c-.61.76.72,1.68.72,1.68a3.44,3.44,0,0,0-1.13.41C63.32,25.9,64.67,28.56,64.67,28.56Z"/><path class="cls-4" d="M70.08,20.24s-4.18-1.68-6.59-.57L60.62,21s4.71-.24,6.43,1.48,13.81-1.64,13.81-1.64l19.34.57s3.32-1.88,4.47-1.43,4.63-2.91,4.63-2.91-3.81,1.68-4.34,1.6a8.7,8.7,0,0,0-2.3.53s-2.78.37-2.82-.94a4.15,4.15,0,0,1,2.29-3.53c1.39-.74,3.77-7.83,3.77-7.83s-3.48,5.86-4.71,6-.49,1.64-3.36,1.84S93.69,12,95.66,9,95.25.61,95.25.61s.28,4.59-1.32,7.46.82,3.2-1.1,4.51-7.3,1.27-7.79-1.93-1.6-6.84-3.89-8.76A7.13,7.13,0,0,0,76.85,0S81,3.36,82,6.07a13.52,13.52,0,0,1,.78,5.36s1.47.58,1.14,1.85S79.06,16,76.31,14.55,71.48,10,68.9,9.71a12.79,12.79,0,0,0-3.24-.08s6.72,2.3,7.74,5.33S70.08,20.24,70.08,20.24Z"/><path class="cls-5" d="M50.7,68.72c-3.72.82-6.28-.71-7.16,2.13s2.84,4.49,2.84,4.49S43.92,70.91,49,70.69s9.29-2.84,8-6.23-1.86-8.14.87-9.51,3.34-.71,3.34-.71-7.33,4.7-2.35,8.91S53.32,67.52,51.63,74s5.86,11.4,5.86,11.4-6.79,7.24-3,12.75,7.6,7.16,7.6,7.16S58,114.46,63.27,117s22.34-20.44,23-20.88-3-51.3-3-51.3l9.18-9.73-.93,8s4.75-4,4.86-7.22a39.69,39.69,0,0,1,1.26-7.43l1,2.9s5.8-5.46,5.91-7.76-2.79-3.44-2.79-3.44-2.41-5.79-6.83-7.6-9.78.66-13.28.88-15,1.31-15.74,7.7-2,7.05-5.79,9-6.94,7.21-4.26,11.42,1.2,8.36-2.84,8.41-5.46,6.78-2.79,9.73S54.42,67.9,50.7,68.72Z"/><path class="cls-1" d="M53.05,50c-4,.06-5.46,6.78-2.79,9.73,2.17,2.39,3.55,6.29,2,8.12,1.81-1,2.12-3.29,1-7.06-1.6-5.2-3-8.68.25-9.46s8.89-4.72,8.11-7.75,2.58-3.52,6.19-4.92.45-6.84.7-11.06S73,25.41,79,21.72s-1.64-3.11,5.32-6.56c4.6-2.27,10.11-1.61,13.32-.91A9.58,9.58,0,0,0,95,12.55c-4.43-1.8-9.78.66-13.28.88s-15,1.31-15.74,7.7-2,7.05-5.79,9-6.94,7.21-4.26,11.42S57.09,49.93,53.05,50Z"/><path class="cls-1" d="M76.23,33.15a22.29,22.29,0,0,1-5.37,3.08c.41,0,6.76,0,8,1.8a4.64,4.64,0,0,0,3,2l8.73-5-5.12-3.81c-.37-1.64-3.77-8.48-3.77-8.48s.57,1.76-3,2.5a17.82,17.82,0,0,1-4.84.57S80.29,30.24,76.23,33.15Z"/><path class="cls-5" d="M95.7,46.27C95,42.66,88,39,88,39l-4.78.74s-.82,9.23-.93,10.49,1.81,3,6.94.38.11-4.53.11-4.53,3.61.71,3.12,2.24-3,9.34.81,10.82,7,0,7.87,2.29-4.48,6.29-1.85,11.26,7.7,1.91,7.86,3.93-3.6,3-3.77,6.07,6.4,2.29,6.18,3.66-4.21.38-4.21.38.16.55,1.75,1.53,2.79.71,4-.82.38-2.57-2.35-3.88-3.33-1.91-.65-4.26-.93-6.72-3.23-6.67-6.25-6-3.55-8.22.08-8.93-5.08-9.51S96.43,49.87,95.7,46.27Z"/><path class="cls-2" d="M47.44,117l-.3-.33A2.07,2.07,0,0,0,47.44,117Z"/><path class="cls-2" d="M45.49,107.15s5.46,5.95,4.26,8.75c-.86,2-1.83,1.52-2.31,1.09l4,4.39L59,134.13l3.08-13.59S60.26,80,57.38,86.17s-10.62,7.18-10.62,7.18,6.2,7.31,4.63,10.46S45.49,107.15,45.49,107.15Z"/><path class="cls-6" d="M39.39,101.72s.72.78,1.88,1.88C40.14,102.48,39.39,101.72,39.39,101.72Z"/><path class="cls-6" d="M53.54,110.86c-4.33-.34-9.54-4.69-12.27-7.26,2.84,2.82,8,8,9.48,9.12l2,1.63a2.15,2.15,0,0,1,2.49-.42c1.69.6,6,8.23,3.79,9.38s-13.16-7.52-13.16-7.52,7.65,9,12.94,11,2.71-7.31,2.71-7.31l-2.89-17.14L43.67,91.26s12.16,10.16,13.25,13.41S59.71,111.34,53.54,110.86Z"/><path class="cls-2" d="M117.74,115.6a1.86,1.86,0,0,0,.06-.34Z"/><path class="cls-2" d="M105.11,90.9c-3.26-4.8,6,30.3,6,30.3l5.5,11.18.29-12.3.83-4.48c-.13.45-.5,1-1.52-.55-1.42-2.2-.29-8.28-.29-8.28a3.92,3.92,0,0,1-4-1.85c-1.72-2.46-.59-9.83-.59-9.83S108.37,95.7,105.11,90.9Z"/><path class="cls-6" d="M117.11,103c.29-1.15.44-1.94.44-1.94S117.37,101.82,117.11,103Z"/><path class="cls-6" d="M107.73,104.93l3.41,15.28s1.32,8.49,3.5,5.84,3.57-11.76,3.57-11.76-3.22,9.36-4.69,8.76-1.43-7.94-.72-8.75a.92.92,0,0,1,1.42-.06l.57-1.75c.41-1.25,1.65-6.58,2.32-9.51-.68,2.69-2.15,7.35-4.3,8.39-3.08,1.48-3.18-1.77-3.54-4.76s3-13.85,3-13.85Z"/><path class="cls-7" d="M80.76,212.89l5.13,0L82.57,207S81.89,209.51,80.76,212.89Z"/><path class="cls-7" d="M147.06,211.83c-8.11,1.95-33.62,1.33-61.17,1.09l4.29,7.67c30.35.55,60,.9,66.92-2.07,14.57-6.3,20.68-36.23.4-45.48s-29.93,4.53-29.93,4.53,4.13-4.93,20.28-3.16S168.33,206.71,147.06,211.83Z"/><path class="cls-7" d="M1.35,227.58c16.54,23.24,82.9,12.8,89.89,11.72s6-6.11,6-6.11l-7.06-12.6L78,220.37c-1.87,4.44-4.11,8.56-6.34,9.77-5.41,3-63-1.38-54.74-7.68,3.85-2.93,31.33-2.62,61.08-2.09,1.07-2.56,2-5.22,2.78-7.48C37.46,212.62-8.5,213.75,1.35,227.58Z"/><path class="cls-7" d="M80.76,212.89c-.75,2.26-1.71,4.92-2.78,7.48l12.2.22-4.29-7.67Z"/><path class="cls-8" d="M147.06,211.83c-8.11,1.95-33.62,1.33-61.17,1.09L82.57,207s-.68,2.51-1.81,5.89c-43.3-.27-89.26.86-79.41,14.69,10.92,15.34,43.56,16,66.49,14.37a9.68,9.68,0,0,0-5.35-5.16,27.16,27.16,0,0,0-14.13-1.48,2.58,2.58,0,0,0-2,1.77s-.15-1.67-2.76-2.26-7.87-.94-9.74-.5-2,1.28-2,1.28a6.33,6.33,0,0,0-3.35-2.41c-2-.44-7.34-1.92-7.88-1.87a12.53,12.53,0,0,0-2,.64,5.07,5.07,0,0,0-1.77-1.62c-1.13-.59-6.79-2.46-7.63-3.3a2.59,2.59,0,0,0-1.92-.74s.81-3.94,1.65-4.58a10.1,10.1,0,0,0,1.5-1.45s1.18-.05,3-.05,9.67-1,9.84-1.33a13.16,13.16,0,0,0,.47-1.45,2.55,2.55,0,0,0,2.12,1.6c1.47,0,12.79-.27,13.58-.37s1.11-1.35,1.11-1.35-.1,1.35.89,1.4,11.47.05,11.56-.07.74-1.6.74-1.6-.51,1.42,3,1.69,11.32.32,11.44.23a25.28,25.28,0,0,0,.72-2.47,2,2,0,0,0,1.82,2.27c2.19.39,11.25.32,11.25.32L101.94,215l.79-.08s-1.11,3.74,1.21,4.36,13.36.37,13.58.22a10.85,10.85,0,0,0,1-1.4s-.42,1.45,2.14,1.48,11.5.12,12-.05c.26-.1.43-.48.52-.8,0,.41.25.93,1.57,1,2.16.1,9.4-.39,10.41-1a2.37,2.37,0,0,0,1.13-1.53,2.7,2.7,0,0,0,2.12,1.09c1.35,0,5.39-2,5.56-2.22a5.49,5.49,0,0,0,.4-1,2.25,2.25,0,0,0,1.62.15c1-.25,5.51-5.22,5.59-5.86a4,4,0,0,0-.1-1.28,3.67,3.67,0,0,0,1.52-1,33.59,33.59,0,0,0,3-6.77,4.91,4.91,0,0,0-.32-2.61S167,197,167,196.42s-.19-8.39-.83-9.67-1.16-1.36-1.16-1.36a7.43,7.43,0,0,0-.27-3.12,26.38,26.38,0,0,0-4.68-5.42,3.15,3.15,0,0,0-1.16,0,3.37,3.37,0,0,0-1-2c-.78-.52-9-3.6-10.51-3.57s-1.55.37-1.55.37a4.63,4.63,0,0,0-2.36-.72,101.38,101.38,0,0,0-10.84,2.2,18.38,18.38,0,0,0-5,4.48s4.13-4.93,20.28-3.16S168.33,206.71,147.06,211.83Z"/><path class="cls-2" d="M39.28,217.08c0-.32,0-2.18,0-3.6-5.38.26-10.44.62-15,1.11-.46,1.21-.31,2.49,2.13,2.82C31.21,218.06,39.28,217.6,39.28,217.08Z"/><path class="cls-2" d="M52.08,217a11.68,11.68,0,0,0,.83-4c-3.91.08-7.73.2-11.42.36-.13,1.74-.25,3.91.22,4C42.5,217.6,51.3,218.33,52.08,217Z"/><path class="cls-2" d="M81.69,218.06l7.77-5.1-3.57,0L82.57,207s-.68,2.51-1.81,5.89c-3.47,0-7,0-10.44,0-.22,2-.25,4.09.54,4.36C72.36,217.73,81.69,218.06,81.69,218.06Z"/><path class="cls-2" d="M12.18,218.79a46.4,46.4,0,0,0,9.71-1c.45-.19.49-1.73.45-3-16.42,1.94-26,5.69-21,12.78.32.46.67.9,1,1.34C3.59,227.83,4.56,227,4.56,227s.66-5.32,3.35-6.56a2.32,2.32,0,0,0,1.22-3.21A3.69,3.69,0,0,0,12.18,218.79Z"/><path class="cls-2" d="M67.7,217.14c.09-.92.24-3,.33-4.28-4.36,0-8.7,0-12.94.12-.71,1.52-1.18,3.39.47,3.84C58.45,217.6,67.57,218.52,67.7,217.14Z"/><path class="cls-2" d="M61.21,238.74c-3.22-1.51-12.8-2.69-13-1.12-.1.8-.55,3-1,4.9,5.38.12,10.73,0,15.74-.27A2.93,2.93,0,0,0,61.21,238.74Z"/><path class="cls-2" d="M117.06,217.8c.41-.63.29-3.06.22-4.6-3.92,0-8.07,0-12.38-.09-.21,2.27-.38,4.89,0,5.15C105.45,218.72,116.47,218.72,117.06,217.8Z"/><path class="cls-2" d="M45.26,237.89c-1.51-1.38-9.26-2.3-10.64-1.45-.65.41-1.76,2.67-2.75,4.95,4.08.54,8.29.87,12.51,1C45.31,240.5,46,238.53,45.26,237.89Z"/><path class="cls-2" d="M16.7,233.09c-.78-1-7.08-2.62-8.72-4.59-.82-1-2.7.25-4.36,1.77a33,33,0,0,0,11.67,7.15C16.29,235.3,17,233.47,16.7,233.09Z"/><path class="cls-2" d="M164.52,198.11c-.33-.6-1.76-1.39-3.21-2.06a19.47,19.47,0,0,1-2.87,8c1.6,1.13,3.19,2.17,3.52,2.08C162.62,205.92,165.24,199.42,164.52,198.11Z"/><path class="cls-2" d="M157.1,175.66c-.92-1-9.91-4.26-10.3-3.35a14.3,14.3,0,0,0-.55,1.95l1.6.15a13.38,13.38,0,0,1,8.24,4.17C156.87,177.53,157.62,176.21,157.1,175.66Z"/><path class="cls-2" d="M153,214.06c-.07-.28-1.18-2-2.17-3.5a21.33,21.33,0,0,1-3.74,1.27c-.53.13-1.15.24-1.83.35.38,1.92.87,4.29,3,4.37C151.52,216.68,153.1,214.58,153,214.06Z"/><path class="cls-2" d="M144.7,216.49c.37-.52-.52-2.47-1.29-4.07-2.62.3-6,.5-9.88.62.28,2,.87,4.62,2,4.83C137.41,218.19,144,217.41,144.7,216.49Z"/><path class="cls-2" d="M155.59,213.6c3.28-1.44,4.33-5.19,4.47-5.51s-1.45-1.55-2.67-2.58a17.41,17.41,0,0,1-5.22,4.37C152.63,211.94,153.55,214.5,155.59,213.6Z"/><path class="cls-2" d="M144.63,171.85c-2.43-.26-13.72,2.37-14.5,3.68-.09.14-.19.32-.3.52,2.41-1.15,7-2.45,15.24-1.88C145.58,173,145.74,172,144.63,171.85Z"/><path class="cls-2" d="M132.16,217.54c.27-.62-.28-2.78-.78-4.45-3.58.09-7.56.12-11.85.11-.35,2-.89,4.63.22,4.8C121.53,218.26,131.7,218.59,132.16,217.54Z"/><path class="cls-2" d="M165.7,195.42c.39-1.51-.46-7.94-1-8.8-.36-.52-2.58-.57-4.22-.54a23,23,0,0,1,1,8.67C163.39,195.56,165.48,196.26,165.7,195.42Z"/><path class="cls-2" d="M30.69,236.57c-.86-1-8.47-4-10.44-2.82-1,.6-2.13,2.57-3,4.38a75.7,75.7,0,0,0,12.58,3C30.53,239,31.07,237,30.69,236.57Z"/><path class="cls-2" d="M163.73,183.8c-.39-.59-4-5.51-4.92-5.64-.41-.06-1.14.63-1.83,1.42a19.72,19.72,0,0,1,3.29,6C161.86,185,164,184.18,163.73,183.8Z"/><path class="cls-9" d="M54.14,142.35,54,138.8s-1.28,3.52-1.28,3.75.89,2.43.89,2.43l2-3.08Z"/><path class="cls-7" d="M116.41,137.13s2.56-1.44,2.56-2.23-12.15-40.37-12.15-40.37-7.74-33.8-11.61-38.66a68.31,68.31,0,0,0-9.32-9.18L89,74.84l8.79,24.22Z"/><path class="cls-10" d="M119,134.9c0-.79-12.15-40.37-12.15-40.37s-6-26.06-10-35.7L92.43,84.2l5.4,14.86,18.58,38.07S119,135.69,119,134.9Z"/><path class="cls-11" d="M94.07,74.65l-.69,4,8.78-2.76c-.38-1.4-.77-2.81-1.16-4.2Z"/><path class="cls-11" d="M103.63,81.48c-.34-1.33-.7-2.7-1.07-4.09L93,80.84l-.58,3.36.06.16.71.66Z"/><path class="cls-7" d="M98.26,93.75c0,.25.42-20.37.42-20.37a10.75,10.75,0,0,0,3.79-3.2S93.38,59.82,91.53,54.94s-13-13.64-13-13.64S67.54,48,64.51,52.75l20.2,37.71S98.26,93.49,98.26,93.75Z"/><path class="cls-8" d="M98.64,75.79c-1.07-1-3.15-2.58-5.48-2.49-3.33.12-7.19,6.7-7.76,8.2s2.88,5.68,3,5.93l10,.52C98.47,83.93,98.57,78.77,98.64,75.79Z"/><path class="cls-2" d="M96.31,67.69l6,2.79.21-.3S93.38,59.82,91.53,54.94a20.06,20.06,0,0,0-4.07-5.58l-.85.26s3,2.27,3.84,4.78S96.31,67.69,96.31,67.69Z"/><path class="cls-4" d="M84.79,57.2l-1,9.06,7.19,2.32a15.08,15.08,0,0,0-1.58-5.76A16.43,16.43,0,0,0,84.79,57.2Z"/><path class="cls-7" d="M90.41,81l-2.63.76S69.31,99,65.22,113.17s16.7,58.29,16.35,71.1-.73,39.51-4.63,47c-1.64,3.14-6.5,4-11.87,4,0,1.26,0,2.52-.09,3.77,15.1.87,30.8,1.27,34.25-.31,4.28-2,.77-65.66,1.5-103.94C100.73,134.79,105,86.93,90.41,81Z"/><path class="cls-6" d="M75.46,159.85c.28.85.55,1.69.82,2.53,1.8-.59,4.79-1.66,5.24-2.5.66-1.22-2.39-7.58-3.84-8.24-.73-.33-2.64.55-4.4,1.55.32,1,.63,1.94,1,2.89a10.4,10.4,0,0,1,2.7-.86c.88,0,1.28,1.47,1.28,2.69C78.21,158.56,76.78,159.31,75.46,159.85Z"/><path class="cls-6" d="M78,141.33c-.86-.55-2.69,1-2.89,1s-.69-2.76-2-2.76c-.68,0-2.19,1-3.5,2q.48,1.59,1,3.21c1-.85,2.09-1.74,2.61-1.74,1,0,1.54,2.07,1.83,4.1.16,1.07-1.45,1.71-3,2.09l.57,1.77c2.07-.7,5.16-1.9,5.37-2.81.33-1.38-1.37-4-1.37-4S78.83,141.89,78,141.33Z"/><path class="cls-6" d="M64.79,120.09c.06.84.16,1.72.28,2.63,1.78-.13,4.45-.32,5-.45.79-.2.33-3.58.2-3.94s4.6-.07,4.6-.07.59,1.35,1.7,1.35,2.92-2.92,1.55-4.07-3.42.69-3.65.79-3.28-.4-3.71-.92.36-2.63-1-3.15a18.21,18.21,0,0,0-4-.56q-.27.73-.48,1.47a13.29,13.29,0,0,0-.37,1.82,30.79,30.79,0,0,1,3.48-.11c.26.13.62,4.33-.26,5.35C67.58,120.79,66.05,120.48,64.79,120.09Z"/><path class="cls-6" d="M83.06,209.2a5.51,5.51,0,0,0-2.41-.38c-.28,4.3-.65,8.5-1.16,12.16a3.54,3.54,0,0,0,2.49.07C83,220.26,83.36,209.76,83.06,209.2Z"/><path class="cls-6" d="M75.15,131.91c1,.17,3.61-3.44,1.74-4.85s-3.64,1.51-3.74,1.61-2.29.29-2.29.29-.23-2.23-1.12-3.08c-.56-.55-2.5.35-3.94,1.12.2,1,.43,2.08.68,3.15.75-.66,1.52-1.28,1.65-1.16a14.62,14.62,0,0,1,.85,5.48,1.55,1.55,0,0,1-1.1,1.15c.21.8.44,1.61.67,2.42,1.49-.92,3.3-2.17,3.32-2.48a36.46,36.46,0,0,0-1.24-4.33l2.85-.66A2.7,2.7,0,0,0,75.15,131.91Z"/><path class="cls-6" d="M79.55,173.11q.45,1.6.81,3.09l3.92-1.65s-.2-8.87-2-10.41c-.83-.7-3.08-.28-5.27.39.3.93.59,1.85.86,2.75,1.33-.57,3.43.31,3.43.31s.82,3.21.2,4.46A3.14,3.14,0,0,1,79.55,173.11Z"/><path class="cls-6" d="M83.16,194A2.64,2.64,0,0,0,81.34,193c-.12,3.9-.27,8.2-.5,12.49a3.9,3.9,0,0,0,2-1.26C83.26,203.52,84.21,195.81,83.16,194Z"/><path class="cls-6" d="M71.35,107.47c-.58.45-2.32,0-3.65-.38-.31.6-.59,1.19-.86,1.79,1.25.29,3.55.8,4.47.92,1.28.16,2.56-1.71,2.89-2.56s3,.78,3.42,1.11.78,1.87,1.8,2.36,3.28-2.36,2.17-3.67a2.42,2.42,0,0,0-3.19-.59c-.39.42-1.64-.2-3-1s.13-2.16-.56-3.74c-.42-1-2-1.17-3.22-1.2-.59.87-1.16,1.74-1.7,2.62a5.33,5.33,0,0,1,2.62.32C73.15,104,72.3,106.71,71.35,107.47Z"/><path class="cls-6" d="M81.39,191.15c2.48-.13,2.27-.06,2.49-.1s.37-11.09-.62-12c-.31-.28-1.2-.24-2.28-.06a25,25,0,0,1,.59,5.26C81.51,186.27,81.46,188.6,81.39,191.15Z"/><path class="cls-8" d="M77.78,231.35a18.37,18.37,0,0,0-.33,2.93h-.12L75,233.74h0l-.5-.1h0a13.05,13.05,0,0,0-1.62-.25,47.1,47.1,0,0,0-7.36,2h0a4,4,0,0,0-1.45.78c-.63.89-.23,3.35-.23,3.35l1.53,2.56c9.71-.6,18-1.66,22.58-2.32,5.55,0,9.76-.34,11.35-1.07,4.28-2,.77-65.66,1.5-103.94,0,0,4.29-47.86-10.32-53.78l-2.63.76s-.57.53-1.53,1.48a32.32,32.32,0,0,0,1.61,3A10.6,10.6,0,0,0,87,88.5c-.23,1-1.41,5.21-1.15,5.67A8.94,8.94,0,0,0,88,95.55,7.78,7.78,0,0,0,86.74,97a84.24,84.24,0,0,0-1.84,8.27,4.59,4.59,0,0,0,.69.75s-2.26,1.78-2.26,2.1-2.33,8.21-2,8.64a5.36,5.36,0,0,0,.79.78A14.22,14.22,0,0,0,80,120.23a48.32,48.32,0,0,0-.1,8.37,8.92,8.92,0,0,0,1.61.39s-1.74,1.19-1.74,2.24a69.08,69.08,0,0,0,.82,7.38c.16.1,1.67.59,1.67.59s-1.34.82-1.24,2,.91,9.88,1.28,10,1.41.26,1.41.26a2.18,2.18,0,0,0-.5,1.61c.1,1,1.25,9.65,1.78,9.94a7.52,7.52,0,0,0,2,.46,6.05,6.05,0,0,0-1.48,3,116.79,116.79,0,0,0,1.31,12.21c.2.2,1.77-.1,1.77-.1s-1.77,1.64-1.77,2.49.3,9.72.46,10.41,1.84.69,1.84.69-1.67.32-1.9,1.7a34,34,0,0,0,.36,7.26,3.18,3.18,0,0,0,1,.59,15.48,15.48,0,0,0-1.61,4.69,9.42,9.42,0,0,0,.79,4s-1.48-.53-1.51.06-1.58,10-1.31,11a6.71,6.71,0,0,0,1,1.93h0a7,7,0,0,0-2.36,1.18C82.83,225.22,78,230.37,77.78,231.35Z"/><path class="cls-7" d="M62.88,131.78s1.48-35.44,1.48-35.93S71.15,63,71.15,63L78.57,41.3s-13.72,7.09-16,11.23-6.2,41.35-6,44.2,2.76,34.07,2.76,35.05S62.88,131.78,62.88,131.78Z"/><path class="cls-2" d="M64.36,95.85c0-.4,4.47-21.81,6.16-29.87l-1.83-6.17s-8.86,35.55-8,39.78c.5,2.35,1.74,10.88,2.76,18C63.88,107.67,64.36,96.13,64.36,95.85Z"/><path class="cls-12" d="M59,72.59,58.43,77a33.72,33.72,0,0,0,9.41,1.82l.86-4.14A29.27,29.27,0,0,1,59,72.59Z"/><path class="cls-12" d="M59.58,68c-.17,1.21-.33,2.45-.49,3.7a43.56,43.56,0,0,0,9.81,2c.3-1.44.59-2.82.85-4.08A69.75,69.75,0,0,1,59.58,68Z"/><path class="cls-11" d="M59.58,68c-.17,1.21-.33,2.45-.49,3.7.87.28,2.33.72,4,1.12.2-1.51.4-3,.54-4C62.23,68.58,60.81,68.28,59.58,68Z"/><path class="cls-11" d="M59,72.59,58.43,77a27.33,27.33,0,0,0,4,1.13c.14-1.14.34-2.67.55-4.23A21.08,21.08,0,0,1,59,72.59Z"/><path class="cls-11" d="M64.75,69c-.14,1.09-.33,2.54-.52,4,.62.13,1.26.25,1.9.35.21-1.45.43-2.89.6-4.07C66.08,69.26,65.42,69.15,64.75,69Z"/><path class="cls-11" d="M64.1,74.12c-.2,1.56-.39,3.08-.53,4.21.61.1,1.22.18,1.8.25.17-1.14.39-2.63.61-4.17C65.36,74.33,64.73,74.24,64.1,74.12Z"/><path class="cls-7" d="M86.27,27.78,75.37,45,89.16,59.08s-3.42-12-.72-17.72Z"/><path class="cls-13" d="M96.34,38.87c0-.08.8-.14-1-.72l-2-.64-.14,1.16a6.63,6.63,0,0,1,1.55.43c0,.14.59,0,.78.18a.38.38,0,0,1,.16.35S96.39,39,96.34,38.87Z"/><path class="cls-14" d="M93.1,38.48a3.46,3.46,0,0,0-.92,1.07c-.56.82-.41.75-.41.91A1.25,1.25,0,0,0,92,41a7.84,7.84,0,0,0,2.3.47,8.06,8.06,0,0,0,.58-1l-.64.39-.37-.15.17-.74-.71.4-.76-.3.88-1.13-.41-.39C93.23,38.41,93.1,38.49,93.1,38.48Z"/><path class="cls-14" d="M94.49,39.7s.79-.63,1-.86S96,39,96,39l-.63,1a1.59,1.59,0,0,0,.91-.8c.2-.56-1.09-.94-1.09-.94l-.29,0a.19.19,0,0,1,0,.1,3.9,3.9,0,0,1-.47,1.41Z"/><path class="cls-2" d="M94.47,38.57a6,6,0,0,1,2,.82l.33-2.16,2,.79a138.25,138.25,0,0,0,.63-15.27C95,28.2,87.32,26.17,87.32,26.17l-1,5.74-.69,8.27,5.61,5.15,3.48-4-2.3-1S93.85,38.61,94.47,38.57Z"/><path class="cls-4" d="M97.5,32.49l-.19-.18S95.82,29.76,95,29.72a21.21,21.21,0,0,0-3.66.82s1.3,2.53,2.06,2.75,3.29-.72,3.29-.72l-1,.84Z"/><path class="cls-2" d="M76.08,34s5.16,1.45,6.48,2.68.08,2,.08,2l4.18,1.36,1.42-10-1.7.9c0-.13-2.13-7.29-2.13-7.29l-1.28-2.35s1.2,3.63-.9,4.32S77,25,77,25l1.28.88s1.83,2.59.87,4.5A12.8,12.8,0,0,1,76.08,34Z"/><path class="cls-4" d="M87.32,26.17l-1,5.74-.69,8.27,5.1,4.69a3.24,3.24,0,0,0,0-.65A66.67,66.67,0,0,0,88.8,33c-.1,0,2.33-4.12,3.78-6.57A15.36,15.36,0,0,1,87.32,26.17Z"/><path class="cls-7" d="M95.74,36.62l1.15.63,2,.77,0-.25-2.47-1.19.73-1.22Z"/><path class="cls-4" d="M94.47,38.57a6,6,0,0,1,2,.82l0-.12a2.76,2.76,0,0,0-1.65-1.07c-1.06-.12-2.79,2.34-2.79,2.34l2.22,1.25.43-.49-2.3-1S93.85,38.61,94.47,38.57Z"/><path class="cls-15" d="M91.55,30.53s2.86-.89,3.36-.52,2.22,2.46,2.4,2.54a1.15,1.15,0,0,0,.37.11l.08-2.09L97.36,32,94.5,28.8l.13.64-3.91,1.15Z"/><path class="cls-16" d="M95.62,31.94a6.39,6.39,0,0,0-2.38-.87l1.45,1.82.86-1Z"/><path class="cls-2" d="M93.61,32.19h0Z"/><path class="cls-2" d="M94.58,33l-1-.81c.1.11.89,1.39.89,1.39l.48,0Z"/><path class="cls-2" d="M94.17,31.07l1.64.76.47-.26C95.74,31,94.17,31.07,94.17,31.07Z"/><path class="cls-4" d="M82.86,39.2s0,14.12,6.12,19.23c-.51-2-2-8.38-1.47-13.39Z"/><path class="cls-4" d="M85.61,31.68c-.9.46-4.12-4.35-4.48-5s-4.34-1.86-5.1-2.27c-.61-.32-1.16-.54-1.32-.62a15.5,15.5,0,0,0,3.47,2.61l1.86.91s3,4.18,4,4.86,1,2.51.3,2.7-6-1.55-6.14-1.55-2.9.82-2.9.82l3.36.19s6.2,1.25,6.64,2.16-2.43,1.85-2.43,1.85l3.58-.46L87,32.2l-.3,0A34.77,34.77,0,0,0,85.83,26a21.82,21.82,0,0,0-3.14-5.43s1.7,4.18,2.24,5.6S86.52,31.21,85.61,31.68Z"/><path class="cls-4" d="M74.71,23.79l0,0S74.67,23.77,74.71,23.79Z"/><path class="cls-17" d="M95.07,31.6l-.63,1,.15.18.72-1Z"/><path class="cls-7" d="M50.18,142.87l1.15,3.55s8.73,1.15,8.79.13,2.76-14.77,2.76-14.77v-3.84L60,130.73s-4.89,7.71-5.08,8.21-1.55,5.8-1.55,5.8l-1.67-2.46.49-3.38Z"/><path class="cls-10" d="M115,132a51.42,51.42,0,0,0-1.93,5.38c-.13,1,1.54,5.19,1.77,6.73a12.75,12.75,0,0,1-.3,3.81,6.73,6.73,0,0,0,1-7.91,24.72,24.72,0,0,0,1.58-4.07Z"/><polygon class="cls-10" points="118.36 148.31 117.23 149.16 118.16 148.93 118.19 148.91 118.36 148.31"/><polygon class="cls-10" points="120.25 147.78 120.64 147.73 120.72 147.5 120.25 147.78"/><path class="cls-10" d="M115.16,149.53a2.23,2.23,0,0,0-.44,1.23l3.44-1.83-.93.23,1.13-.85,1.38-4.69-.42-2.75,1.45,3.15-1.11,3.32-1.3,1-.17.6,0,0,2.24-.56.24-.64-.38.05.46-.28,1.09-3-.42-2.46,1.23,2.32-.64,2.36-1.26.75-.08.23,2.15-.32.54-1.28.76-1.47L124,142.2s-5.86-10.91-6-11a7,7,0,0,0-1.48-.2l-.29,5.39s1.79,6.57,1.94,6.57-.79,4.83-.79,4.83A21.1,21.1,0,0,0,115.16,149.53Z"/><path class="cls-2" d="M85.3,240.51c1.44-.46-6.11-4.86-11.1-5.18S65.54,238.67,65,239c0,0,.82,2.39,2.13,3.11S83.85,241,85.3,240.51Z"/><path class="cls-2" d="M93.5,136.8c2.61.2,6.89,1.88,7.19,1.58s1-6,.64-7.48a41.29,41.29,0,0,0-8-1.87c-1.52.05-10.19,1.13-10.63,1.47s-1,6.7.1,7.39S90.89,136.61,93.5,136.8Z"/><path class="cls-2" d="M94.39,118.39c-2.27,0-11.38-.09-12.26,1.23s-1.63,6.35-.35,6.95,9.31-.74,12.11-.45,7.29,2.86,7.54,1.53a57.27,57.27,0,0,0,.09-6.3l.1-.74S96.65,118.39,94.39,118.39Z"/><path class="cls-2" d="M93,139.41c-3.94.55-9.31,1.09-9.4,1.43s-.25,8,.73,9,8.37-.3,10.39-.3,5.91,1.24,6.11.4-.05-8.86,0-9.45A17.27,17.27,0,0,0,93,139.41Z"/><path class="cls-2" d="M94.44,116c2.51.2,6.59,1.87,6.94,1.82s.19-8-.15-9.45c0,0-6.11-4.77-7.43-4.82s-8.37,3.54-8.82,5-2,7.09-1.37,7.68S91.92,115.83,94.44,116Z"/><path class="cls-2" d="M94.58,84.13c-.72.2-5.77,3.12-6.17,3.81a18.78,18.78,0,0,0-1.15,5.22C87.43,93.71,89.59,95,90,95s3-2.83,4.4-2.83,4.82,3.22,4.82,3.22l.36-.59-.72-2.4.1-4.75S95.3,83.93,94.58,84.13Z"/><path class="cls-2" d="M89.53,85.74s3.61-3.15,4.82-3.18,4.4,3.7,4.4,3.7l1-5.57s-2.54-5.12-5.73-6-6.94,6.17-6.87,7.15a15.21,15.21,0,0,0,.92,3.12A9.12,9.12,0,0,0,89.53,85.74Z"/><path class="cls-2" d="M94,100.44c1.09,0,6.83,5.06,6.89,4.92s-.49-7.08-1.28-8.27c0,0-3.8-3.57-5.44-3.28s-6.27,3.94-6.3,4.11-1.65,7.22-1.55,7.41S92.91,100.47,94,100.44Z"/><path class="cls-2" d="M98,189.18c2.07.54,3,2.66,3.54,1.82s.1-11-.34-11.76a4.53,4.53,0,0,0-3.94-2.31,14.61,14.61,0,0,0-7.28,3c-.84.93-.69,10.34-.15,10.73S95.91,188.64,98,189.18Z"/><path class="cls-2" d="M98.23,202.44c3.08.13,3.61,0,3.74-.72s.26-7.15.19-7.35l-.78-.66a5.65,5.65,0,0,0-4.66-1.64c-3.15.2-6.11.07-6.5,1.77a21,21,0,0,0-.2,6.3C90.28,200.74,95.14,202.31,98.23,202.44Z"/><path class="cls-2" d="M88.25,240.25s10.11-.26,12.14-.79,1.84-8.6,1.58-10-3.88,1.57-6.7,1.31-8.14-5.45-9.25-5.45-6.44,6.37-5.91,8.21S88.25,240.25,88.25,240.25Z"/><path class="cls-2" d="M97.49,161.22c3.3.44,2.51,1.28,3.3.44s.78-8.07.34-8.66c0,0-4.77-.64-7.14-.64s-8.61.25-8.71,1.28,0,7.68,1.28,8.12S94.19,160.78,97.49,161.22Z"/><path class="cls-2" d="M96.55,174.37c3,0,3.89,2.11,4.73,1.72s-.15-11.77-.15-11.77-9.7-1.23-12.5-.14-.64,11.37,0,12S93.6,174.32,96.55,174.37Z"/><path class="cls-2" d="M96.72,212.94c3.28-.85,5.31-.72,5.44-2.56s.79-5.84-.19-6.23h-1s-2.69.72-3.88.39-4.26-1.7-5.25-1.64-2.62,3.09-2.16,5.51S93.43,213.8,96.72,212.94Z"/><path class="cls-2" d="M94.22,228.24c2.3.65,7.29-2.63,7.29-2.63.39-.65,1.38-10.7.85-11.68s-2.82,1.11-5.91,1.18-7.41-2.82-8.33-3-1.12,8.34-1,9.52S91.92,227.58,94.22,228.24Z"/><path class="cls-8" d="M88.48,86.51c0-.13-1.56-3.63-1.56-3.63l-.64-1.83-.43,2.34a25.42,25.42,0,0,0,1.79,3.88C88.05,87.58,88.48,86.64,88.48,86.51Z"/><path class="cls-18" d="M96.07,161.14a10.46,10.46,0,0,1,1.42.08c3.3.44,2.51,1.28,3.3.44s.78-8.07.34-8.66c0,0-3.17-.42-5.63-.58.3,1.07,1.28,4.68,1.15,5.55C96.58,158.45,96.32,159.81,96.07,161.14Z"/><path class="cls-18" d="M96.55,174.37c3,0,3.89,2.11,4.73,1.72s-.15-11.77-.15-11.77-2.66-.33-5.59-.5c0,.22-.07.36-.07.36a13.5,13.5,0,0,1,1.23,4.62,30.06,30.06,0,0,1-.87,5.6A4.43,4.43,0,0,1,96.55,174.37Z"/><path class="cls-18" d="M96.35,213a2.74,2.74,0,0,0,.37-.08c3.28-.85,5.31-.72,5.44-2.56s.79-5.84-.19-6.23h-1a12.49,12.49,0,0,1-3.59.45,22.91,22.91,0,0,1-.53,5A17.36,17.36,0,0,0,96.35,213Z"/><path class="cls-18" d="M100.69,138.38c.29-.3,1-6,.64-7.48a41.29,41.29,0,0,0-8-1.87s-.25,4.85-.46,7.76h.61C96.11,137,100.39,138.68,100.69,138.38Z"/><path class="cls-18" d="M97.53,202.39l.7.05c3.08.13,3.61,0,3.74-.72s.26-7.15.19-7.35l-.78-.66a5.65,5.65,0,0,0-4.66-1.64,19,19,0,0,1,1.21,6.42C97.85,200,97.68,201.41,97.53,202.39Z"/><path class="cls-18" d="M94.35,82.56c1.22,0,4.4,3.7,4.4,3.7l1-5.57s-2.54-5.12-5.73-6a2.08,2.08,0,0,0-1.08,0,12.2,12.2,0,0,0,1,2.57c.89,1.72.14,4,0,5.45A1.29,1.29,0,0,1,94.35,82.56Z"/><path class="cls-18" d="M93.25,149.65c.59-.06,1.09-.1,1.43-.1,2,0,5.91,1.24,6.11.4s-.05-8.86,0-9.45a18.3,18.3,0,0,0-5-1.14l.48,6.5-1.83-3.1a14.93,14.93,0,0,1,.25,2.91A27.28,27.28,0,0,1,93.25,149.65Z"/><path class="cls-18" d="M90.3,237.18a19.19,19.19,0,0,1-2.09,3l0,0s10.11-.26,12.14-.79,1.84-8.6,1.58-10-3.88,1.57-6.7,1.31h0l-2.7,7.34.69-7.68A33.52,33.52,0,0,1,90.3,237.18Z"/><path class="cls-18" d="M97.2,189.1a3,3,0,0,1,.78.08c2.07.54,3,2.66,3.54,1.82s.1-11-.34-11.76A4.74,4.74,0,0,0,98,177l.55,6.62L97.39,181a24.06,24.06,0,0,1,.24,4.63C97.57,186.53,97.39,187.88,97.2,189.1Z"/><path class="cls-18" d="M99.6,97.09a22.54,22.54,0,0,0-3.54-2.7L95.76,99l-.83-3.1-.07,4.9c2,1.14,6,4.67,6,4.56S100.39,98.28,99.6,97.09Z"/><path class="cls-18" d="M93.94,228.14l.28.1c2.3.65,7.29-2.63,7.29-2.63.39-.65,1.38-10.7.85-11.68-.42-.79-2,.39-4.13.93l-.79,8.88L96,216.85a22.75,22.75,0,0,1-.24,6.1A24.28,24.28,0,0,1,93.94,228.14Z"/><path class="cls-18" d="M96.34,118.71l-.77,6-.45-2.9-1.06,4.35c2.81.38,7.12,2.81,7.37,1.51a57.27,57.27,0,0,0,.09-6.3l.1-.74A40.48,40.48,0,0,0,96.34,118.71Z"/><path class="cls-18" d="M94.58,84.13c1.39.27.72,5.82.37,8.2,1.59.58,4.26,3.09,4.26,3.09l.36-.59-.72-2.4.1-4.75S95.3,83.93,94.58,84.13Z"/><path class="cls-18" d="M94.28,116h.16c2.51.2,6.59,1.87,6.94,1.82s.19-8-.15-9.45c0,0-5-3.93-7-4.7a11.7,11.7,0,0,1,.16,4.85C94,110.11,94.16,113.85,94.28,116Z"/><path class="cls-6" d="M81.73,218.45l-.41-8.89-.67-.74L77.82,221s2.71.54,3.13.13A9.1,9.1,0,0,0,81.73,218.45Z"/><path class="cls-6" d="M38.19,229.67l-3.35-.4c-.67,1.32-1.2,2.95,0,3.33,2,.67,9.67,2.14,10.33.42a23.06,23.06,0,0,0,.78-2.62l-2.74-.23a2.58,2.58,0,0,1-2.61,1.62c-2.81-.32-3.79.15-3.18-.79C37.63,230.62,37.92,230.12,38.19,229.67Z"/><path class="cls-6" d="M23.77,229.25c.35-.14,1.59-.76,2.66-1.3-1.21-.23-2.34-.48-3.38-.73-1.93.61-4.74,1.61-4,2.21,1.11.91,10.69,2.33,11.25,2a15.1,15.1,0,0,0,2-2.5l-2.57-.39c-.48.8-1.21,1.64-2.12,1.56C25.89,229.94,23.13,229.52,23.77,229.25Z"/><path class="cls-6" d="M73.44,231.25a4.7,4.7,0,0,0-1.2-1.5,5.09,5.09,0,0,1-.6.39,6,6,0,0,1-1.79.5,2.23,2.23,0,0,1-1.28.63c-3.28.72-4.53,1.48-4.51.81a5.13,5.13,0,0,0-.12-1l-2.2,0A3.65,3.65,0,0,0,64,233.51C66.72,234.13,73.46,231.84,73.44,231.25Z"/><path class="cls-6" d="M48.7,230.6c-.17,1.34-.06,2.73,1.16,3,2.36.59,9.89,1.47,10.19.51a14.23,14.23,0,0,0,.12-3.07L58,231c-.08.89-.4,1.71-1.3,1.71-2,0-4.87-.32-5-.59a6.72,6.72,0,0,1,0-1.37Z"/><path class="cls-6" d="M16.84,222.51c-1.68-.44-3.86-.84-4.66-.3-1.38.94-1,3.4.83,4.63,1.47,1,5.72,0,7.31-.37a15.68,15.68,0,0,1-2.63-1.06c-1.22.29-2.75.52-3.2,0-.79-.94-.86-1.62-.64-1.62l2.28.2C16,223.5,16.21,223,16.84,222.51Z"/><path class="cls-6" d="M74.52,227.73l-.3-.17A12.41,12.41,0,0,1,73,229.11a3.06,3.06,0,0,0,2.48.22c2.44-1,4.75-4.63,4.78-5.22s-2.13-1.65-3.08-1.8c-.3.65-.61,1.29-.93,1.9.62.17,1.09.41,1,.74C77,225.76,76.84,229,74.52,227.73Z"/><path class="cls-6" d="M24.55,220.1c-1.41-.56-5,.33-6.57,1.21-.44.25-.57.54-.53.83,1.39-.67,4.16-1.14,8-1.47A3,3,0,0,0,24.55,220.1Z"/><path class="cls-6" d="M28.65,219.61l-.51.87c2.82-.18,6.06-.29,9.65-.37-.08-.2-.15-.37-.18-.47C37.45,219.15,28.65,219.61,28.65,219.61Z"/><path class="cls-6" d="M55.53,219.28a3.88,3.88,0,0,0-1.77.76c3.1,0,6.31.05,9.6.1-.06-.14-.1-.25-.12-.3C63.11,219.54,57,219.24,55.53,219.28Z"/><path class="cls-6" d="M69.28,219.61a4.44,4.44,0,0,0-1.57.59l7.75.13a1.66,1.66,0,0,0-.77-.46A24.72,24.72,0,0,0,69.28,219.61Z"/><path class="cls-6" d="M49.79,219.61c-.4-.37-7.29-.14-8.21-.14a1.79,1.79,0,0,0-1,.6c3,0,6.14,0,9.47,0A2,2,0,0,0,49.79,219.61Z"/><path class="cls-6" d="M163.27,213.11a1.55,1.55,0,0,1,.77,0c.25-.3.49-.6.72-.92a15.35,15.35,0,0,0-1.95-1.35c-1.11-.56-5.08,4.56-5.22,5.42,0,.28.63.74,1.54,1.23a17.14,17.14,0,0,0,1.52-1.05.77.77,0,0,1-.17-.22C160.22,215.67,161.7,213.6,163.27,213.11Z"/><path class="cls-6" d="M168.83,204.25c.19-.56.36-1.13.52-1.7a8.37,8.37,0,0,0-2.44-.67c-1,.07-2.13,6-2.65,6.93-.2.35.53,1.08,1.52,1.86q.34-.53.66-1.08l-.61-.26c-.29-.13.79-3.84,1.84-5.05C168,203.92,168.39,204,168.83,204.25Z"/><path class="cls-6" d="M167.36,181.87c-.26-.43-.52-.86-.81-1.29a2.36,2.36,0,0,1-.75,0c-1-.2-1.53-1.91-1.75-3a21,21,0,0,0-2-1.75,3.61,3.61,0,0,0-.5.82c0,.2,3.47,4.5,4.06,5.48C165.88,182.5,166.59,182.27,167.36,181.87Z"/><path class="cls-6" d="M170.47,194.89c0-.68,0-1.35,0-2a5.51,5.51,0,0,0-1.52.36c-1,.49-.5,5-.59,6.07,0,.4.66.78,1.54,1.1.1-.53.19-1,.27-1.59h0c-.36-.17-.33-2.69.1-3.68A.45.45,0,0,1,170.47,194.89Z"/><path class="cls-6" d="M169.16,185.9c-.19-.57-.41-1.14-.65-1.7-.83.46-1.57.88-1.66.91a37.66,37.66,0,0,0,1.8,6.14c.12.2.81.12,1.66-.07-.06-.57-.15-1.14-.24-1.7a4,4,0,0,1-.66.06,7.91,7.91,0,0,1-.66-3.15C168.76,186.19,168.92,186,169.16,185.9Z"/><path class="cls-6" d="M108.53,220.56a.73.73,0,0,0-.59.31c2.8,0,5.55.06,8.24.07,0-.37-.07-.68-.07-.81C116.11,219.7,109.84,220.56,108.53,220.56Z"/><path class="cls-6" d="M136.69,220.75l-.1,0c3.53-.1,6.75-.25,9.57-.45a2,2,0,0,0-.48-.59C144.7,218.92,138.3,220.46,136.69,220.75Z"/><path class="cls-6" d="M155.4,217.41c-2.24-1.68-3.78.88-5.39,1.6a.91.91,0,0,0-.49,1,31.56,31.56,0,0,0,7.26-1.38A10.65,10.65,0,0,0,155.4,217.41Z"/><path class="cls-6" d="M132,220.56c-.46-1.12-8.14-.46-9.51-.36-.41,0-.51.34-.45.76,3.52,0,6.9,0,10.08-.08A3,3,0,0,0,132,220.56Z"/><path class="cls-6" d="M160.08,174.41A22.53,22.53,0,0,0,157.5,173a39.77,39.77,0,0,0-5.09-1.93,1.87,1.87,0,0,1-.07.22c-.29.92,5.84,3.25,6.76,3.61C159.34,175,159.69,174.8,160.08,174.41Z"/><path class="cls-6" d="M149.52,171.17c.66.07.92-.19,1-.57a26.68,26.68,0,0,0-8-.7,1,1,0,0,0,0,.25C142.53,170.35,147.42,170.94,149.52,171.17Z"/><path class="cls-6" d="M78.27,96.47A9.33,9.33,0,0,1,75.71,95c-.58.74-1.17,1.49-1.74,2.26,1.38.94,3.66,2.38,4.37,2.13,1-.36,5.87-5.09,4.76-6.17a31.07,31.07,0,0,0-3.76-2.59l-1.29,1.51c1.33.5,3.08,1.34,2.55,2.13C79.78,95.52,79.55,96.73,78.27,96.47Z"/><path class="cls-6" d="M83.16,100.7a3.88,3.88,0,0,0,1.28-2.29c-.07-.49-1.33-1.11-1.33-1.11l-.64.34s-1.67,1.41-1.06,2.19A2,2,0,0,0,83.16,100.7Z"/><path class="cls-6" d="M85.3,89.08,82,87.64l-1.17,1.29c1,.34,2.75.93,3.32,1.16C85,90.41,85.3,89.08,85.3,89.08Z"/><path class="cls-6" d="M78.07,71.38c0-.1-.54-1.52-.74-1.35a30.29,30.29,0,0,1-3.34.42l.59,1.1A22.66,22.66,0,0,0,78.07,71.38Z"/><path class="cls-6" d="M85.08,78.84c1.38-.59,2.86-3.35,2.86-3.42s-.35-.89-.67-.77S85,77.36,84.79,77.19A14.73,14.73,0,0,1,84,75.32s-3.67,1.18-3.67,1a25.63,25.63,0,0,0-1.6-3.62,14.86,14.86,0,0,0-3.17.63l.84,1.56c.82-.21,1.71-.42,1.86-.17.3.47,1.09,1.7.82,1.92a7.59,7.59,0,0,1-1.28.87l.61,1.14a25.92,25.92,0,0,1,4.85-1.37c.42.22,1,1.6,1,1.6S83.7,79.43,85.08,78.84Z"/><path class="cls-6" d="M81.71,83.2l-.84.09.69,1.28c1.21-.16,2.42-.46,2.37-1-.1-1-1.21-3.47-1.48-3.47a23,23,0,0,0-2.82.85l.62,1.16c.62-.21,1.23-.34,1.39-.14C82,82.43,83.16,83.05,81.71,83.2Z"/><path class="cls-6" d="M67.8,67.3a9.82,9.82,0,0,0-3.64-2,9,9,0,0,0-4.25.33c0,.31-.09.63-.14,1,.4,0,.83-.05,1.27-.05a16.57,16.57,0,0,1,4.14.63A9.5,9.5,0,0,0,67.8,67.3Z"/><path class="cls-6" d="M64,56.17a13.28,13.28,0,0,0-2.45-.28c-.13.61-.27,1.27-.4,2h1.6l-.13.69s3.64.68,4.5.68.95-.65.88-.88a28.45,28.45,0,0,0-4.46-1.08C63.41,57.29,64.39,56.4,64,56.17Z"/><path class="cls-6" d="M77.29,48c-.29-.55-3.46-2-5.54-2.83-1,.62-2.06,1.28-3.07,2,.58.13,1,.26,1.22.31a53.94,53.94,0,0,1,5.58,1.94,9,9,0,0,1-.33,2.49A47.81,47.81,0,0,1,80.34,54a68.72,68.72,0,0,1,5.22,5.32s-2.17-5.71-4.76-7.09a16.29,16.29,0,0,1-3.38-2.16A3.62,3.62,0,0,0,77.29,48Z"/><path class="cls-6" d="M63.86,61.13a5.77,5.77,0,0,0-3.22-.22c-.1.64-.21,1.31-.32,2,1.29-.15,2.91-.34,3.38-.34.82,0-.75.62-.89.62s6.47,1.45,6.47,1.45l-4.1-2.1S66.62,62.08,63.86,61.13Z"/><path class="cls-6" d="M64.65,52A2.41,2.41,0,0,1,63,51.89a5.52,5.52,0,0,0-.43.64,3.31,3.31,0,0,0-.18.41,19.68,19.68,0,0,0,2.84.41c1.18,0,2-1.94,2-2.07a5.13,5.13,0,0,1,2.26.49c0,.23-.69,2.86-.72,3s3.21.69,4.72,1.12a7.56,7.56,0,0,1,2.79,1.67s2,1.64,2.4,1.45S77.91,56.6,77,55.71s-4.13-1.48-5.28-2,.69-1.41.36-3c-.2-1-3.15-1.72-5.37-2.18-.64.47-1.24.94-1.77,1.4.7.29,1.38.65,1.43.84C66.49,51.12,66,51.58,64.65,52Z"/><path class="cls-6" d="M91.09,51.36l.28,5.37,1.19-3.88C92.07,52.33,91.57,51.83,91.09,51.36Z"/><path class="cls-6" d="M95.21,55.88l-2.66,4.65.82,1.06s2-1.67,3.38-2.82A13.71,13.71,0,0,0,95.21,55.88Z"/><path class="cls-6" d="M61.8,110.62a6.89,6.89,0,0,1,1.92.89c0-.83.07-1.66.1-2.48A16.94,16.94,0,0,0,61,107.91c-.79-.15-2.34.56-3.4,1.13,0,.57.09,1.16.14,1.74A9.48,9.48,0,0,1,61.8,110.62Z"/><path class="cls-6" d="M62.14,106.53a15.21,15.21,0,0,1,1.77.45c.05-1.36.11-2.65.16-3.85a14,14,0,0,0-3.11-.78,10.55,10.55,0,0,0-3.93.09c.06.84.14,1.75.21,2.71a6.06,6.06,0,0,1,2.64-.2C62.54,105.45,59.48,106,62.14,106.53Z"/><path class="cls-6" d="M62.11,131.67a2.75,2.75,0,0,0,.42.2l.35-.09s.06-1.32.14-3.46a3.24,3.24,0,0,0-1.35-.33,6.49,6.49,0,0,0-2.57.46c0,.47.07.91.1,1.29l2.89-.35S61.5,131.31,62.11,131.67Z"/><path class="cls-6" d="M63.16,125.1a1.63,1.63,0,0,0-.87-.21,5.44,5.44,0,0,0-3.18,1.18s2.5-.74,4,.48C63.12,126.09,63.14,125.61,63.16,125.1Z"/><path class="cls-6" d="M62.88,118.62a3.39,3.39,0,0,1,.53.38c0-.45,0-.92.06-1.38-1.35-.85-3.11-1.7-4.31-1-.36.2-.67.39-.95.57q.09,1.17.18,2.31C59.84,118.79,61.88,118.05,62.88,118.62Z"/><path class="cls-6" d="M62.83,122.53a4.13,4.13,0,0,1,.41.59q0-1,.09-2.1a2.35,2.35,0,0,0-1.32-.51,3.54,3.54,0,0,0-3.26,2.18S61.32,120.69,62.83,122.53Z"/><path class="cls-6" d="M63.63,113.79A14.34,14.34,0,0,0,62,113c-1.36-.52-3.71,1.28-3.71,1.28s3.6.13,5.19,1.61l0,0Z"/><path class="cls-6" d="M56.73,98.76c0,.44.08.94.12,1.49,1.33.09,3.82.12,3.82-.1s.49-5.63-1-7a3.43,3.43,0,0,0-2.85-.52c0,.52-.08,1-.11,1.42A4.58,4.58,0,0,1,58,94c.83.17,1.65,3.32,1.4,4.19C59.27,98.66,57.91,98.67,56.73,98.76Z"/><path class="cls-6" d="M64.26,81s.1-1.57-.59-1.92c-.52-.26-3.82-.16-5.47-.09-.1.84-.19,1.66-.28,2.48a5.71,5.71,0,0,1,1.61-.72A6.63,6.63,0,0,1,64.26,81Z"/><path class="cls-6" d="M57.07,89.72c0,.51-.1,1-.14,1.46a4.67,4.67,0,0,0,1,.26c1.92.3,3.25-.24,3-.66s1.48-6,.94-7.51c-.37-1-2.64-.49-4.18,0-.08.73-.15,1.44-.23,2.14A9.64,9.64,0,0,1,59.85,85c-.05.2-.17,4.41-.17,4.41S58.22,89.58,57.07,89.72Z"/><path class="cls-6" d="M110.71,107.24c-1.61,0-3,.14-3.72.85-2.17,2.2-2.2,2.62-2.2,2.62a10.22,10.22,0,0,1,5.15-1.54,5.78,5.78,0,0,1,1.43.23C111.14,108.67,110.93,108,110.71,107.24Z"/><path class="cls-6" d="M116,124.75l-.62-2.07c-1.65.11-3.84.5-5.17,1.79l.92,1.88A7.74,7.74,0,0,1,116,124.75Z"/><path class="cls-6" d="M106.82,94.53s-.1-.47-.3-1.31c-.88.18-1.56.5-1.73,1-.56,1.81.59,8,2.33,9.13a6.49,6.49,0,0,0,2.63.7c-.6-2-1.15-3.76-1.6-5.24-.46-.91-.83-1.69-.61-2Z"/><path class="cls-6" d="M117.1,128.37c-.17-.57-.34-1.16-.53-1.77a4,4,0,0,0-1.41.39,8.31,8.31,0,0,0-2.64,2.17l.75,1.54A7.22,7.22,0,0,1,117.1,128.37Z"/><path class="cls-6" d="M103.94,82.66c-1.1.24-2.29.71-2.5,1.64-.39,1.73.76,6.89,1.77,7.28a7.72,7.72,0,0,0,2.91,0l-.66-2.76c-.45.22-.86.35-1.06.22-.56-.36-1.22-3.84-1.22-3.84l1.34-.17Z"/><path class="cls-6" d="M114.91,121.07l-1.92.24c-1.06.16.65.59,2.27.94C115.15,121.86,115,121.47,114.91,121.07Z"/><path class="cls-6" d="M114.33,119.14c-.3-1-.61-2-.91-3a4.6,4.6,0,0,0-2.66-.08,12.31,12.31,0,0,0-3.45,2.44l1.26,2.57c1.34-1,3.21-2.32,4.16-2.28A6.29,6.29,0,0,1,114.33,119.14Z"/><path class="cls-6" d="M112.76,114c-.22-.72-.43-1.43-.65-2.14a11.93,11.93,0,0,0-4.17.22,7.22,7.22,0,0,0-2.81,2l1.1,2.26c1.31-1,3.11-2.48,4.6-2.48A10.38,10.38,0,0,1,112.76,114Z"/><path class="cls-4" d="M89.69,39c.77.62,1.32-1.5.57-2a.59.59,0,0,0-1,.4s0,0,0,0,0,0,0,0-.16-.34-.28-.62l.33,2.18C89.42,38.85,89.54,38.85,89.69,39Z"/><path class="cls-4" d="M89.3,37.39s0,0,0,0S89.29,37.39,89.3,37.39Z"/><path class="cls-4" d="M90.68,40.08c-.31-.43-.8,0-1.11.3l.16,1C90,41.44,91.13,40.69,90.68,40.08Z"/><path class="cls-4" d="M89.28,40.67l.29-.29-.23-1.47C89,39.18,89.17,40.72,89.28,40.67Z"/><path class="cls-4" d="M89.78,33.9c-.89-.35-1.06.93-1.06.93l.14,1a.44.44,0,0,1,.24.06C90,36.31,90.67,34.26,89.78,33.9Z"/><path class="cls-4" d="M89,36.73l-.15-.95C88.63,35.8,88.81,36.3,89,36.73Z"/><path class="cls-4" d="M91.56,35.82c-.1-.74-.54-.4-.54-.4s-1.29.21-.77.83S91.65,36.55,91.56,35.82Z"/><path class="cls-4" d="M90,33c.92-.36,1.2-1.22.75-1.6s-1.61,0-1.61,0l-.12.45S89.13,33.34,90,33Z"/><path class="cls-4" d="M91.75,33.52a1.21,1.21,0,0,0-.53-.24s-1.22.19-.54.6S92,33.71,91.75,33.52Z"/><path class="cls-4" d="M91.6,38.47c-.14-.55-.43-.07-.43-.07s-.58.42-.34.78S91.73,39,91.6,38.47Z"/><path class="cls-3" d="M77.64,9.86c0-.6-1-.42-1-.42s-1.56.31-.89.93A1.21,1.21,0,0,0,77.64,9.86Z"/><path class="cls-3" d="M80,10.57c0-.65-.52-.58-.52-.58l-.18,0s-1.4.65-1,1S79.92,11.23,80,10.57Z"/><path class="cls-3" d="M91.71,8.73c-.36-.63-1.27-.34-1.27-.34v.17s-1.37.31-.37.8S92.06,9.36,91.71,8.73Z"/><path class="cls-3" d="M88.83,6.16a.64.64,0,0,0-.54-.68l-.13,0s-1.75.39-1,.82S88.78,6.75,88.83,6.16Z"/><path class="cls-3" d="M98.17,11.83A1,1,0,0,0,99.81,11c-.15-.42-.93-.63-.93-.63l.18.08S97.17,11.2,98.17,11.83Z"/></g></g></svg>