<svg xmlns="http://www.w3.org/2000/svg" viewBox="0 0 218.52 240.04"><defs><style>.cls-1{fill:#c1a73a;}.cls-2{fill:#776417;}.cls-3{fill:#d8bf55;}.cls-29,.cls-4{fill:#b2982b;}.cls-5{fill:#2d8796;}.cls-6{fill:#5fc4c4;}.cls-7{fill:#257284;}.cls-8{fill:#3a9ba5;}.cls-9{fill:#1c6975;}.cls-10{fill:#4fb5ba;}.cls-11{fill:#7a6718;}.cls-12{fill:#63530d;}.cls-13,.cls-27{fill:#a38b26;}.cls-14{fill:#7ddbd6;}.cls-15{fill:#93e5df;}.cls-16{fill:#74934d;}.cls-17{fill:#ffec00;}.cls-18{fill:#e0ca00;}.cls-19{fill:#fff;}.cls-20{fill:#a183b7;}.cls-21{fill:#795996;}.cls-22{fill:#d344a3;}.cls-23{fill:#816a9b;}.cls-24{fill:#614b7f;}.cls-25{fill:#937b16;}.cls-26{fill:#776620;}.cls-27{opacity:0.77;}.cls-28{fill:#674c84;}.cls-29{opacity:0.46;}.cls-30{fill:#443a0e;}</style></defs><title>water_guardian2</title><g id="Layer_2" data-name="Layer 2"><g id="Capa_1" data-name="Capa 1"><path class="cls-1" d="M218.52,151.89s-2.5-9.46-3.87-12-4.82-4.13-5.16-4.3-7.49-2.07-7.49-2.07L191.42,165.4l.43,7.14s6.19,1,7.31,3.7a13,13,0,0,1,1,4.91l2.07-3.19s2.84-8.69,6.19-7.91,6.2,5,6.2,5-4.13-18.76-1.21-23.06S218.52,151.89,218.52,151.89Z"/><path class="cls-2" d="M204.67,136.23c.34,1,2.23,1.29,5.85,1.9s6.8,11.27,6.8,11.27.6-1,0-4.82-2.24-10.67-6.37-11.36-8.26-4.39-8.26-4.39L195.37,155s.18,8.86.18,9.47,3.78,6.79,5.25,10.41-3.7,12.65-3.7,12.65,6.28-7.06,6.28-11S199.16,160,199.16,160v-8.52a12.75,12.75,0,0,1,6.54,3.36A10.88,10.88,0,0,1,209,162c.26,1.72,6.37,18.5,6.37,18.5s.25-17.29-4-23.32-10-15.3-10-15.3S204.32,135.2,204.67,136.23Z"/><path class="cls-3" d="M40.37,78.42c-.43-2.59-.49-3-.49-3s-5.72,5.34-8.08,3.24a11.15,11.15,0,0,1-3.05-5.31s-4.59,9.91-7.66,10.09-4.39-1-4.39-1-1.91,9.91-3.62,12.37A15.51,15.51,0,0,0,10.87,99l16-2L43.3,82.1A5.32,5.32,0,0,1,40.37,78.42Z"/><path class="cls-4" d="M16.37,81.53c-1.6,1.41-2.79,5.14-1.18,8.69a13.32,13.32,0,0,1,.58,7.71l16.56-8.3,2.09-1.85s4.59-5.21,4.12-8,5.1-5.31,5.1-5.31a7.85,7.85,0,0,0-3.76.88c-1.76,1-3.82,2.43-3.53,4.42s-6.68,10.08-6.68,10.08a13.33,13.33,0,0,1-2.11-.15c-.11-.12-.51-2.94-.51-2.94a11.57,11.57,0,0,0-.44-5.38c-1-2.69,3.52-10.25,3.52-10.25s-6,7.09-5.1,10.63-1.83,9.63-1.83,9.63S17.9,94.1,18,94a38.45,38.45,0,0,0-1.55-5.78c-1-3.33,2-8.65,2-8.65A26.22,26.22,0,0,1,16.37,81.53Z"/><path class="cls-5" d="M181.67,160.52c-12.7,10.37-26.41,8.47-50.61-12s-71.12-15.69-102.21,3.78-36.38,66,8.7,82.92,69.81-16.2,69.81-16.2L88.29,185.83c-.48-1-10.73-7.82-18.33-5.4s-5.86,14.95-16.22,19.83-30.11-5.84,9-24.35,65.15,4.1,83.47,11.91c25.1,10.7,67.42-25.18,55.24-61.76C187.91,85.23,159,93.67,159,93.67,197.57,105.92,194.37,150.14,181.67,160.52Z"/><path class="cls-6" d="M17.18,184.41c1.12-5.21,9.61-31.9,48.34-39.32s65.19,9.38,65.19,9.38-5.23-11.23-40-15.15S19.4,155.6,14.4,172.61,16.06,189.62,17.18,184.41Z"/><path class="cls-7" d="M62.79,175.91a80.4,80.4,0,0,1,11.07-4.29L88,153.47s-60.31,7.64-52,30.29c1.65,4.49,2.78,8,3.65,10.6C40.45,189.92,46.56,183.58,62.79,175.91Z"/><path class="cls-7" d="M46.79,201.36a10,10,0,0,1-5.55-2.17C42.59,202.63,43.43,202.47,46.79,201.36Z"/><path class="cls-7" d="M181.67,160.52c-8.32,6.79-17.06,8.32-28.9,2.83-1.51,4.93-4.33,8.36-9,9.31-19.49,4-32.22-24-36.53-35.36-.82-.19-1.65-.36-2.49-.52-1.59,7.68-4.9,24.15-5.89,32.36,20.1,2.11,35.38,13.57,47.38,18.68,25.1,10.7,67.42-25.18,55.24-61.76C187.91,85.23,159,93.67,159,93.67,197.57,105.92,194.37,150.14,181.67,160.52Z"/><path class="cls-5" d="M70.14,201.79c2.93-2.93,10.18-12.78,11-17.72s1.21-7.06,1.58-9.41L66.89,163.29s.52,26.24-8.47,35.18S67.21,204.72,70.14,201.79Z"/><path class="cls-5" d="M117.54,33.19l-4.22.2a8.09,8.09,0,0,0,2.28,4.4c1.91,1.69,8.64-5.8,8.64-5.8-.56-1.1,1.79-4.79,1.79-4.79l-3.25-2.82,1,3-1.65,3.46S117.7,33.13,117.54,33.19Z"/><path class="cls-8" d="M30.31,212.93l13.74,16.25c13.74,16.26,54.94,3.44,67.05-12S117,149.71,105.58,129s-24.13-24.94-24.13-24.94l-17.89,5.23s-.71,1.48-.59,24,12.22,58.52-2.56,73S30.31,212.93,30.31,212.93Z"/><path class="cls-9" d="M109.93,157.11a32.28,32.28,0,0,0,5,1.44q-.59-3.13-1.26-6.15C111.77,154.68,109.93,157.11,109.93,157.11Z"/><path class="cls-9" d="M116.47,168.58l-5.55,4a8.05,8.05,0,0,0,6.34,3.91C117.06,173.88,116.8,171.22,116.47,168.58Z"/><path class="cls-9" d="M107.56,133l-4,4.52.82,2.64s3.62.25,6.15.67A82.12,82.12,0,0,0,107.56,133Z"/><path class="cls-8" d="M107.36,219.05,88.29,185.83c-.36-.72-6.15-4.72-12.23-5.7-5.57,12-23.81,44.9-49.16,26.37-10.59-7.73-17-16.27-20.77-24.14-5.35,20,3.1,42.29,31.42,52.89C82.63,252.12,107.36,219.05,107.36,219.05Z"/><path class="cls-6" d="M49.51,217.17s14,1.51,27.22-15.94-1.64-65-1.64-65c-12.61-8.14,3,30.14-1.24,54.17S49.51,217.17,49.51,217.17Z"/><path class="cls-8" d="M55,79.8,68.86,46.69s-5.17-5-11.31-2.06-13.44,33.74-14.09,39,.13,8.43,2.38,8.46S54.94,80.67,55,79.8Z"/><path class="cls-9" d="M53.73,54.8c.43-.83-.07-1.07-.17-1.82-.05-.37-.51-.8-1-1.21-.65,1.46-1.29,3.06-1.91,4.76a2.23,2.23,0,0,0,1.31,0c.75-.1.64-.32.64-.32A5.94,5.94,0,0,0,53.73,54.8Z"/><path class="cls-9" d="M55.9,52.2a2.47,2.47,0,0,0,1-.29c.35-.2.53-.07.88-.27s-.1-2.36-.26-3.57c-.09-.6-.91-1.31-1.75-1.85a19.05,19.05,0,0,0-1.88,3c.06.31.11.63.14.83.07.53.62,1.14.69,1.67S55.68,52.23,55.9,52.2Z"/><path class="cls-9" d="M62.07,46.9s1.34-1.33,1.87-1.94c.18-.2-.07-.6-.47-1a9.08,9.08,0,0,0-5,.33,5.86,5.86,0,0,0,.68,2.06C60.19,47.78,60.79,47.08,62.07,46.9Z"/><path class="cls-9" d="M55,79.8l5.81-13.89L44.06,80.28c-.31,1.49-.51,2.65-.6,3.35-.65,5.26.13,8.43,2.38,8.46S54.94,80.67,55,79.8Z"/><path class="cls-10" d="M95,61A30.07,30.07,0,0,0,80.13,48.4l-7.48-6.72L58.31,56.42s-9.77,5.31-8.86,11.91,3.64,6.39,3.64,6.39-3.21,15.44,2.14,28S72.7,125.61,72.7,125.61L82.54,107,81.6,90.25S100.41,70.42,95,61Z"/><path class="cls-8" d="M78.62,78l1.43-6.29s-3.94,5.6-9.45,5.67-7.79-6.5-7.79-6.5-2,9.92,4.9,12.19S78.62,78,78.62,78Z"/><path class="cls-6" d="M53.71,77.9s-.9,14.25,2.26,22.2a45.24,45.24,0,0,0,8.65,13.52s-8.39-10.79-8-22.33S54.43,79,53.71,77.9Z"/><path class="cls-8" d="M59.5,102c2.15-.3,3.55-3.06,3.12-6.17S60.1,90.49,58,90.79s-3.54,3-3.11,6.16S57.36,102.33,59.5,102Zm-1.35-9.77c1.48-.21,2.93,1.48,3.25,3.77s-.63,4.31-2.1,4.52-2.93-1.49-3.24-3.78S56.68,92.47,58.15,92.27Z"/><path class="cls-6" d="M72,64.22s-9.11,1.1-7.87,5.14S72,64.22,72,64.22Z"/><path class="cls-8" d="M80.13,48.4l-1.24-1.11c-4.16-1.27-7.52-2-7.52-2l-2.6.43-6.92,7.11,4.53,9.58s18.69-3.81,25.86-5.25A30.26,30.26,0,0,0,80.13,48.4Z"/><path class="cls-8" d="M86.13,59.74c-.34,0-4.29,20.47-9.38,23.59s-9.41-4.9-9.41-4.9,1.23,8.1,6.56,11.73c0,0-2.59,1.16-5-2.29,0,0,1.59,8.16,5.06,10s-1,19.67-1,19.67l9.52-11.37-.89-15.9a85.42,85.42,0,0,0,10.51-14Z"/><path class="cls-8" d="M102.85,96.8c.86-3.74-5.73-30.23-7.88-35.8s-13.9-12-13.9-12l-1.86,4.59S86.07,79,92.35,90.66,102,100.54,102.85,96.8Z"/><path class="cls-10" d="M97.61,98.24c-.17-4.43-1.24-25.67-5.57-34.76a54.47,54.47,0,0,0-9.43-13.62c-1-.57-1.54-.9-1.54-.9l-1.86,4.59S86.07,79,92.35,90.66A29.16,29.16,0,0,0,97.61,98.24Z"/><path class="cls-8" d="M92.93,59.57l-3.3-4.45S87.55,54,84,55.13s-5.89,6.71-5.89,6.71,2.89-2.93,6.27-3.39A21.18,21.18,0,0,1,92.93,59.57Z"/><path class="cls-9" d="M92.66,74.18,92,75.83s.94,1.36,1.24,1.43.63,0,1.05.15a4.52,4.52,0,0,0,1.74-.3c.22-.09,0-.23-.09-.62A6.83,6.83,0,0,1,96,75C96.06,74.63,92.66,74.18,92.66,74.18Z"/><path class="cls-9" d="M88.67,60.25l-.59,1.12a4.06,4.06,0,0,0,.6,1.41c.42.57.9-.12,1.11-.27a3.41,3.41,0,0,0,.8-.86c.39-.51.28-.44.31-.67S89,60.16,88.67,60.25Z"/><path class="cls-9" d="M91.23,70l.34-.05a5.36,5.36,0,0,1,.52-1.22c.24-.32-1.35-1-1.35-1L89.22,68a12.76,12.76,0,0,1,.43,1.43C89.7,69.76,90.83,70.07,91.23,70Z"/><path class="cls-9" d="M93.81,67.07l2.41-2.21c-.12-.42-.24-.81-.35-1.18A7.52,7.52,0,0,0,95,61a8.25,8.25,0,0,0-.48-1h-.17c-1.62-.12-.63.43-3,2.83,0,0,.71,2.66,1,3.78S93.81,67.07,93.81,67.07Z"/><path class="cls-9" d="M97,67.45l-4,3,2.07,3.28,3.06-1.88C97.73,70.26,97.33,68.79,97,67.45Z"/><path class="cls-9" d="M92.37,57.26l-.13-.15h0a2.75,2.75,0,0,0-.22-.26l0-.06-.21-.24-.05-.06c-.07-.09-.15-.17-.22-.25l0,0c-.34-.37-.68-.72-1-1.06h0l-.24-.24,0,0-.24-.23,0,0-.35-.32a2.63,2.63,0,0,0-1,2c-.21.95.48,1,1.84,2.5s.51.39.51.39l1.88-1.51C92.64,57.55,92.51,57.4,92.37,57.26Z"/><path class="cls-11" d="M79.08,60.13,77,56.94s-9.94,4.38-15.84,10.3S51.9,89.71,51.9,89.71l1.19,7.83s4.19-18.3,8.23-24.3S79.08,60.13,79.08,60.13Z"/><path class="cls-12" d="M79.45,58.63l2.39-2.82c-.33.16-10.9,5.33-14.42,3.38s-3.94-9.3-3.94-9.3l-1.27.47s.39,11.24,5.73,12.12S79.45,58.63,79.45,58.63Z"/><polygon class="cls-12" points="77.55 60.78 71.36 73.88 75.52 75.04 81.08 61.85 77.55 60.78"/><path class="cls-1" d="M93.08,54.37a12.31,12.31,0,0,0-9.22-3.24c-6,.91-10.43,7.52-8,12.32S83,65.23,83,65.23l10.1,3.9-1.73-4.36,9.39,7S97.71,58.34,93.08,54.37Z"/><path class="cls-3" d="M95.35,67.74l5.43,4.07s-3.07-13.47-7.7-17.44a12.31,12.31,0,0,0-9.22-3.24,9.68,9.68,0,0,0-2.27.64A13.14,13.14,0,0,1,88.93,55C91.77,57.45,94,63.46,95.35,67.74Z"/><polygon class="cls-3" points="87.24 65.41 87.92 67.13 91.24 68.41 87.24 65.41"/><path class="cls-3" d="M78.65,66a4.56,4.56,0,0,0,1,.15l-.73-.29A2,2,0,0,1,78.65,66Z"/><path class="cls-4" d="M77.65,62.15A9.73,9.73,0,0,1,76.1,56.9a7.29,7.29,0,0,0-.27,6.55c2.4,4.79,7.19,1.78,7.19,1.78l10.1,3.9-1.73-4.36,9.39,7s-.54-2.41-1.53-5.48L87.33,61.16l2.47,4.7-6.46-4S80.2,65.53,77.65,62.15Z"/><path class="cls-6" d="M61.06,66.81s2.73-3.52-1.08-8.36a5.48,5.48,0,0,0-2.18-1.73c-1.77,1.06-7.47,4.83-8.31,9.57a7.33,7.33,0,0,0,3.88-.8C57.2,63.28,61.06,66.81,61.06,66.81Z"/><path class="cls-12" d="M69.13,45.78l-3.2-1.2L59.46,55l-8.88,6.7,3.28,1.11c.34,0,6.54-4.2,6.54-4.2Z"/><path class="cls-1" d="M58.12,54.08l2.91.29c2.9.3,8.74-7.72,8.74-7.72l-1.38-3.72s-6.66-2.29-11.55.64-8.32,14.61-8.32,14.61l5.21-3.38-1.4,4.51Z"/><path class="cls-13" d="M50.27,53.33c-1.11,2.7-1.75,4.85-1.75,4.85l5.21-3.38-1.4,4.51,5.79-5.23,2.91.29c2.9.3,8.74-7.72,8.74-7.72l-1-2.56c-2,3.22-5,7.56-6.75,7.79-2.73.38-3.65-.91-4-.58l-3.35,3.42,1.32-4.26Z"/><path class="cls-14" d="M89.63,34.1C91,28.2,91.35,15.69,78,15.69s-16.78,16-16.78,16l9.3,8.18S88.23,40,89.63,34.1Z"/><path class="cls-10" d="M72.19,20.48c-.92-.83-3.64-.17-3.64-.17l-3.36,5.33,5,8.72,3.93-3.11a3.79,3.79,0,0,0,.81-2.31c0-1.38-2.21-1.58-2.21-1.58s1.17-.92,1.12-1.81S72.05,25,72.05,25s1.75-1.15,1.37-2.15S71,22.66,71,22.66,73.11,21.31,72.19,20.48Z"/><path class="cls-14" d="M63,29.79s3-3.82,3.58-4.58,4.34-5.71,6.52-6.33,7,3.71,7,3.71l4.23,6.73,1.34.78,3.39-5.5h.22s4.52-5.12,5-6S97,5.92,97,5.92a9.71,9.71,0,0,1-3.33,4.2,6.76,6.76,0,0,1-3.89,1.14c-5.21-.09-9.64-9.64-9.64-9.64s-2.24,6.67-4.86,7.83-7.44-1-7.44-1a25.54,25.54,0,0,1-3.06,9.89C61.92,23.56,56,24.64,56,24.64s.68.69,2.88,3c2,2.13,2,9,1.89,10.09Z"/><path class="cls-14" d="M60.72,37.89s0,0,0-.15Z"/><path class="cls-15" d="M84.51,23.05a1.67,1.67,0,0,0,2,.81s-2.88,1.68-1.64,2.88a3.74,3.74,0,0,0,2.39.81l1.82-2.95h.22s4.52-5.12,5-6S97,5.92,97,5.92a9.71,9.71,0,0,1-3.33,4.2,6.76,6.76,0,0,1-3.89,1.14A4.83,4.83,0,0,1,88.3,11c-.8.58-1.39,1.27-1.21,2,.47,2,3.36,1.08,3.36,1.08s-6.11,2.71-5,3.61,4.13-.17,4.13-.17-2.24,1.59-1.85,2.67l.39,1.07S83.86,21.8,84.51,23.05Z"/><path class="cls-10" d="M67.47,24c.73-.82,1.76-2.13,2.6-3.23A11.33,11.33,0,0,0,67.47,24Z"/><path class="cls-10" d="M80.85,20.54c-1.15.74-5.39-1.38-6.14-1.55a16.93,16.93,0,0,0-1.89-.29s0-6.08-1.83-8A22.09,22.09,0,0,0,66.74,7c.06.23,3.61,6,4.19,7.28a16.82,16.82,0,0,1,.63,4.48l-1.49,2a5.9,5.9,0,0,1,3.15-1.36c7.57-.8,11.54,13.37,11.54,13.37s3.43-7.69,5.67-9.36,5.62-5.68,5.85-9.17.4-6.95.4-6.95S95,14.91,92.5,18.53s-3,4.24-3,4.24-3.1,7.12-4.13,6.94-4.08-5.27-4.08-6,1.61-8.6,2.13-11S79.59,0,79.59,0,80,7.23,81.2,10.33,82,19.79,80.85,20.54Z"/><path class="cls-10" d="M63.93,35.85s.77-7,3.54-11.87c-.43.47-.76.79-.9.8-.63.06-5.16-.75-7.34-.69a14.94,14.94,0,0,0-4.19.8s6.77,1,7.86,2.3.4,2.06.4,2.06Z"/><path class="cls-8" d="M86.65,34.73s-2.41,6.89-2.46,7.11l-.52,4.47a35.22,35.22,0,0,0,.15,4.12,2.71,2.71,0,0,0,1.66,1.88A3.5,3.5,0,0,1,85.72,50c.57-.88,5-1.93,5-1.93s-.15-1.16-.34-3.42,4.79-7.77,4.79-7.77a11.83,11.83,0,0,1-3.72-1.63c-1.78-1.21,0-6,0-6Z"/><path class="cls-5" d="M82.88,48.16c.36.24.69,2.68.82,3.06A17.29,17.29,0,0,0,86,53.32s-.84-1.5-1.51-2.43-.86-5.36,0-5.54,2.79,1.93,3.79,2.54,3.14,0,3.14,0l-1.31-.44c-1.32-.45-5.41-3.25-5-4.21S90.4,39.56,91.92,39a23.1,23.1,0,0,0,4.21-2.69,11,11,0,0,0-4,.84c-1.53.79-6.67,5.72-7,4S87,34.31,88,33.74s4.59-5.36,4.59-5.36a14.27,14.27,0,0,0-6.29,6.54,81.39,81.39,0,0,0-3.22,7.72l0,2.07S82.52,47.93,82.88,48.16Z"/><path class="cls-14" d="M60.37,28.55a26.89,26.89,0,0,1-6.45.91s5.94,7.31,4.86,9.76-1.72,3.7-1.72,3.7,6.63,2.24,7.23,3.36-.43,2.62-.43,2.62,2.49-.26,3.27-1.68a32.11,32.11,0,0,0,1.68-4.51l.73-5.08c0-.26-1.42-8.48-1.42-8.48l-5.6-7.22S63.6,27.65,60.37,28.55Z"/><path class="cls-14" d="M89.54,31a16.12,16.12,0,0,0-4.78,1.74,16.75,16.75,0,0,0-6.89-2.44c-3.42-.35-7.77,3.44-9.2,5.84-.08,5.73.33,12.53.33,12.53L75.43,58l5.86-.58A12,12,0,0,1,82.48,50a13.25,13.25,0,0,1,5.81-5.22L88.23,40C89,38.53,89.75,34.68,89.54,31Z"/><polygon class="cls-10" points="83.56 42.87 84.44 45.81 83.74 41.9 83.56 42.87"/><path class="cls-10" d="M74.08,31.25a15,15,0,0,0-5.41,4.91c-.08,5.73.33,12.53.33,12.53L75.43,58l.52-.06A34.31,34.31,0,0,1,74.66,54a13.46,13.46,0,0,1,.15-7.59l-3.6-5.06,2.13-3.26A19.15,19.15,0,0,0,74.08,31.25Z"/><path class="cls-10" d="M88.47,37.78l-.31-1.15-.49-.51c-.06,0-1.87,2-1.87,2l-1.86,1.63s0,3.63.84,4.62.63.6.63.6a15.62,15.62,0,0,0,2.37-3.07A9.58,9.58,0,0,0,88.47,37.78Z"/><path class="cls-16" d="M87.69,35.83s-2.34,3.21-3.85,4A6.79,6.79,0,0,0,86.07,38a9.92,9.92,0,0,1,1.59-1.66,5.45,5.45,0,0,1,.81,3.21S88.84,36.85,87.69,35.83Z"/><path class="cls-16" d="M85.34,42.78c1.14.32,2.17-1.53,2.17-1.53s-.38-2.13-1.74-1.74A2.83,2.83,0,0,0,84,41.42l1.65-.37-1.57.47A1.42,1.42,0,0,0,85.34,42.78Z"/><path class="cls-17" d="M87.51,41.25c-1.67-2.56-3.49.17-3.49.17C85.61,43.58,87.51,41.25,87.51,41.25Z"/><path class="cls-18" d="M86.49,41.83a3,3,0,0,0,.27-1.39,1.58,1.58,0,0,0-2,.2h0a3.37,3.37,0,0,0-.27,1.27,1.65,1.65,0,0,0,1.85.25A2.55,2.55,0,0,0,86.49,41.83Z"/><path class="cls-16" d="M87.36,40S87,37.89,86,38.22s-1.75,2.25-1.75,2.25C86.19,37.06,87.36,40,87.36,40Z"/><path d="M86,40.16H85.8a3.44,3.44,0,0,0-.41,2.17h0A4.78,4.78,0,0,0,86,40.16Z"/><path class="cls-19" d="M86.72,41.58c.1-.22.08-.47,0-.55s-.29,0-.39.27-.09.47,0,.55S86.62,41.81,86.72,41.58Z"/><path class="cls-10" d="M76.6,44.06c2.29-.72,4.7-4.53,4.7-4.53L78.83,37.1s-2.2-2.73-2.28-2.79l-1.27.34-1.37,1.09s-2,2.67-1.43,4.58A13.61,13.61,0,0,0,75,44.44S74.31,44.77,76.6,44.06Z"/><path class="cls-10" d="M82.09,47.13a.19.19,0,0,0,.2-.17Z"/><path class="cls-10" d="M79.33,42.2c-1,1.3-1.63,4.17-1.13,4.6a6.3,6.3,0,0,0,3.33.8l.56-.47a1,1,0,0,1-.5-.23c-.67-.48-.35-6.64-.35-6.64A9.3,9.3,0,0,0,79.33,42.2Z"/><path class="cls-20" d="M78.63,48a50,50,0,0,0-2.76,5.43l4.66.17a9.68,9.68,0,0,1,2-4.94Z"/><path class="cls-21" d="M82.15,48.6,78.63,48a50,50,0,0,0-2.76,5.43l3.34.12a2.81,2.81,0,0,1,.12-2.77A5.24,5.24,0,0,1,82.15,48.6Z"/><path class="cls-22" d="M79.26,52.21l0-1.1,1.1.44a3.26,3.26,0,0,0-2.67-1.94,31.09,31.09,0,0,0-1.86,3.82H76l0-.15C77,50.34,79.26,52.21,79.26,52.21Z"/><path class="cls-16" d="M84.06,39.18l-2,8-1.18.54,1.37,0C83,46.84,84,41.25,84,41.25Z"/><path class="cls-16" d="M82.24,47.23a1.1,1.1,0,0,1-1.1-.94l-2.32.84a4.63,4.63,0,0,0,3.37.44Z"/><path class="cls-16" d="M77.22,38.31c-2.35-.93-4.5,1.17-4.5,1.17a3.62,3.62,0,0,0,3.16,2.43s2.35.29,3.21-.85L76.39,40l2.93,1S79.58,39.24,77.22,38.31Z"/><path class="cls-17" d="M79.32,41s-1.67-3.55-6.6-1.5C72.72,39.48,74.82,42.65,79.32,41Z"/><path class="cls-18" d="M78.13,41.33a2.13,2.13,0,0,0,.32-1.43h0a4.45,4.45,0,0,0-3.75-1,2.12,2.12,0,0,0-.41,1.56,3.2,3.2,0,0,0,.1.42A5.57,5.57,0,0,0,78.13,41.33Z"/><path class="cls-16" d="M79.48,39.9s-.15-2.3-1.86-3-3.81,1.41-3.81,1.41S78.05,35.57,79.48,39.9Z"/><path class="cls-16" d="M78.46,36.79a9.14,9.14,0,0,0,3.06,2.8c-2.38-1.42-4.72-5.69-4.72-5.69a6.09,6.09,0,0,0-4,3.6c.69-1.8,3.71-3.06,3.71-3.06A10.63,10.63,0,0,1,78.46,36.79Z"/><path d="M76.73,39l-.36-.07a3.05,3.05,0,0,0-.37,2.5h.07A2.3,2.3,0,0,0,76.73,39Z"/><path class="cls-19" d="M74.59,40.56a.5.5,0,1,0-.14-1,.5.5,0,0,0-.43.57A.51.51,0,0,0,74.59,40.56Z"/><path class="cls-10" d="M82.54,38.5c.16-.71-1.53-4.68-1.53-4.68s1.2,4.54.84,5.57A1.14,1.14,0,0,0,82.54,38.5Z"/><path class="cls-10" d="M83.89,38.88l2.51-3.75S83.76,37.7,83.89,38.88Z"/><path class="cls-10" d="M82.68,33.59l.48,4.61C83.88,36.55,82.68,33.59,82.68,33.59Z"/><polygon class="cls-10" points="80.39 41.21 76.56 45.01 76.09 44.57 74.16 46.54 76.1 45.1 76.54 45.52 80.39 41.21"/><path class="cls-10" d="M78.91,54.65c-1-.11-2.5,0-2.87.94l4.29-.25A2.14,2.14,0,0,0,78.91,54.65Z"/><path class="cls-19" d="M79.5,48.48l2.27.3-1.06,1.84a6.43,6.43,0,0,0,1.18-1.15,5.85,5.85,0,0,1,.6-.81L78.63,48l-.17.3.54.16-.88,1.79C78.9,50,79.5,48.48,79.5,48.48Z"/><path class="cls-19" d="M80,53.11l-.35-.4-.36.27-.2-.31-.5.29-.16-.29-.46.22-.19-.26-.35.27-.14-2L76.82,53l-.85.14-.1.29,4.54.16-.08-2.37Z"/><polygon class="cls-10" points="80.78 54.29 79.47 54.36 81.27 54.58 81.06 53.42 80.78 54.29"/><polygon class="cls-10" points="74.71 54.4 76.99 54.27 75.16 54.03 75.59 52.03 74.71 54.4"/><path class="cls-10" d="M78.67,46.27,78.6,46s-1.76,1.11-2.74.84l-.09,3.28.49-2.79S78.13,47.16,78.67,46.27Z"/><path class="cls-10" d="M58.57,30.49a22.37,22.37,0,0,0-6-1.9,33.74,33.74,0,0,0,5.72,4c2.19,1,8.9,5.12,9.21,6.28s-7.15,3.27-9.38,3.44l-2.24.17s3.14,1.25,5,.82,5.5-2.33,6.88-1.89-.47,5.29-1.85,6.15-3.23,2.32-3.23,2.32A32.84,32.84,0,0,0,67,48.13c.35-.39,1.72-3,2.37-3.19s.86-3.87.86-3.87L71,38.79a67.21,67.21,0,0,0-2.41-9.33C66.78,23.73,61,20.68,61,20.68s4,6.19,5.37,7.05,3,7,1.9,8.87S60.72,31.74,58.57,30.49Z"/><path class="cls-10" d="M76.76,26.77a1.06,1.06,0,0,0-.94-.78s-2.39.82-1.18,1.31S77,27.52,76.76,26.77Z"/><path class="cls-10" d="M75.26,24.38c-.09-.43-.65-.32-.65-.32s-.77.6-.17.86S75.35,24.81,75.26,24.38Z"/><path class="cls-8" d="M58.34,71.51s-7.05-.9-8.86-5.16a6.25,6.25,0,0,0,0,2c.91,6.59,3.64,6.39,3.64,6.39l0,.08A15.82,15.82,0,0,0,58.34,71.51Z"/><path class="cls-9" d="M38.84,95.92c6.75-1.16,8.65-4.75,8.65-4.75s1.34-4.9-2.79-7.66S11.57,98.66,11.57,98.66s-5.9,3.11-5.83,3.67,4.87,1.86,4.87,1.86S32.09,97.09,38.84,95.92Z"/><path class="cls-8" d="M108,95.56c4.42-6.64,4-20,6.43-28.29s5-21,4.54-27-6-3.82-6-3.82l-.7,4.92s-1.78,19.55-8.06,26.45-9.74,23.06-8,28.5S103.59,102.21,108,95.56Z"/><path class="cls-9" d="M109.86,91.72c1.41-4,2-9,2.67-13.91-1.62-2.56-5.26-7.17-5.92-7.48-.86-.41-3-1.55-3-1.55l-.42.24a32,32,0,0,0-3.92,7.17c2.5,3.89,6.3,10.18,8,14.9C108.07,93.45,109,93.19,109.86,91.72Z"/><path class="cls-3" d="M128.06,63.44s-6.54-11.18-7.28-15.26A26.48,26.48,0,0,0,119,42l-9.64,18.7.29,31a4.47,4.47,0,0,1,5,.35l2.75,2.29s-.23-11,3.1-11.47a9.62,9.62,0,0,1,6.37,1.72s-4.65-14-2.64-17.38S128.06,63.44,128.06,63.44Z"/><path class="cls-4" d="M118,54.15a38.21,38.21,0,0,0,5.68,3.73c3.39,2,5.45,10.15,5.45,10.15S129,66.94,129,64s-2.13-7.69-6.08-9.29-6.54-6.54-6.54-6.54l-5,25.06v3.9s.92,9.64,3.44,11.71.63,10.26.63,10.26a12.12,12.12,0,0,0,2-4.76c.46-2.75.75-6.25-1-7.8S113,70.15,113,70.15a17,17,0,0,1,1.61-2.06c.17,0,2.69,2.18,2.69,2.18a13.49,13.49,0,0,0,4.59,4.53C124.73,76.29,127.6,88,127.6,88s-1.43-12.85-4.87-15.2S116.36,62,116.36,62,118,53.92,118,54.15Z"/><path class="cls-8" d="M122.33,29.54c2.28-4.53,1-2.74,1-2.74s-9.86-3.16-12.68.83,3,14.21,3,14.21l5,2.76S120,34.07,122.33,29.54Z"/><path class="cls-8" d="M119.71,28.69l3.43-1.36.51-.68A12.18,12.18,0,0,1,124,22,3,3,0,0,0,123,18.77a4.17,4.17,0,0,0-2.74-.49,5.23,5.23,0,0,1,2,1.8,6.56,6.56,0,0,1,.53,1.35s-1.67,2.7-1.27,4.84l-3.14,2.95Z"/><path class="cls-8" d="M118.44,17.2a4.52,4.52,0,0,0-3.26.08A6.31,6.31,0,0,1,118,19a8.05,8.05,0,0,1,1,1.54s-1.12,3.78,0,6.33l-2.73,4.48,1.37-1,3.51-2.56.38-1s-1.19-3.59-.89-5.86A4,4,0,0,0,118.44,17.2Z"/><path class="cls-8" d="M114.9,29c0-.15-2.52-7.12-2.52-7.12l-2.84-2A5.38,5.38,0,0,0,105,23.43l3.58-1.57,1.86,1.24a17.26,17.26,0,0,0,.66,5.38,5.7,5.7,0,0,0,1.66,2.57l2.42.35,1.86-5.12a13.73,13.73,0,0,0,1.31.63c-.09-.11-2-4.55-1.73-6.47l-3.18-2.77a7.06,7.06,0,0,0-5.07,1.54l4.09,0,2.32,2.09s-1,4.09.53,6.06S114.92,29.14,114.9,29Z"/><path class="cls-9" d="M12,109.67c4.1.22,8.23-10.2,8.23-10.2l-.53-5.66s-7.87,4.51-12.08,5-2.36.64-2.36.64S8,109.45,12,109.67Z"/><path class="cls-9" d="M1.91,102.82s2.65,0,3.92-1.54l3.54,1-1-.83-2.6-2.15-.71-.06a9.22,9.22,0,0,1-3.35,2.17A2.64,2.64,0,0,0,0,104.09a4.79,4.79,0,0,0,1,2.57A5.92,5.92,0,0,1,1.25,104,5.52,5.52,0,0,1,1.91,102.82Z"/><path class="cls-9" d="M3.15,106.48s3.13-1.09,4.36-3.36l4.38-.12-1.35-.61-3.46-1.56-.85.19s-1.87,2.94-3.57,3.9a4,4,0,0,0-1.53,3.82,5,5,0,0,0,1.64,2.69,7.5,7.5,0,0,1-.19-3.29A9.25,9.25,0,0,1,3.15,106.48Z"/><path class="cls-9" d="M12.4,108.82a6,6,0,0,0,.95-2.78l-.94-2.22L8,105s-.19-1.57-.21-1.44-2.11,4.16-3.57,4.93l-.35,4.17a6.91,6.91,0,0,0,3.52,3.43l-2-3.43.3-3.07s3.3-1.32,3.88-3.7,1.43-.64,1.34-.55-3.64,6-3.64,6v3.47s1.84,2.77,4.64,1.88L9.11,114.5l-.06-2.22A14.44,14.44,0,0,0,12.4,108.82Z"/><path class="cls-7" d="M191.05,121.49l-16.62-23L159,93.67c19.62,15.63,21.58,33.34,21.45,40.6C182.09,122.73,191.05,121.49,191.05,121.49Z"/><path class="cls-8" d="M82.54,107l-.32-5.71c-3.41,3.29-12.14,12.85-10.68,23.26.73.68,1.16,1,1.16,1Z"/><polygon class="cls-9" points="106.34 153.85 103.15 152.99 101.5 154.91 102.98 157.31 106.2 157.32 106.34 153.85"/><path class="cls-9" d="M106,174c0-.46-2.26-.83-2.26-.83l-1.92,1.1,1,2.54,3-.72S106,174.44,106,174Z"/><polygon class="cls-9" points="101 180.1 98.99 182.75 101.76 183.9 103.13 181.65 101 180.1"/><path class="cls-9" d="M114,187s1.78,2,3.63,3.94c0-1.46.06-2.94,0-4.45Z"/><path class="cls-9" d="M100.92,144l1.32-5.39-4.94-1.92-2,3.72s.77,3.34,1.39,3.41S100.92,144,100.92,144Z"/><path class="cls-9" d="M101,146.32s-2.39-.06-2.61,0l0,3.14,2.34-.25Z"/><path class="cls-9" d="M99.62,159.61l-2.12,2.9,2.71,1.31s2-2.27,2.18-2.53S99.85,159.58,99.62,159.61Z"/><polygon class="cls-9" points="93.96 126.92 89.85 126.03 88.66 129.03 91.35 130.8 93.69 130.55 93.96 126.92"/><path class="cls-9" d="M99.44,125l5,2c-1.49-2.54-3-4.82-4.47-6.86Z"/><polygon class="cls-9" points="102.05 127.79 96.14 126.61 95.74 133.18 100.4 135.29 104.3 131.92 102.05 127.79"/><path class="cls-9" d="M97.77,123.69l-.55-7.1c-1.22-1.46-2.42-2.76-3.58-3.92-1.13,2.46-2.48,5.42-2.6,5.92a17.07,17.07,0,0,0,.17,3.77l3.4,2.12Z"/><path class="cls-9" d="M84.86,115.42c.53.5,3,0,3.67,0,.39-.05,1.48-2.87,2.35-5.28a37.12,37.12,0,0,0-8-5.41c-.35.46-.42.92-.9,1.71-.85,1.38-.17,3.81,0,4.94S84.33,114.92,84.86,115.42Z"/><path class="cls-9" d="M202.42,149.5a43.41,43.41,0,0,0,1.17-8l-.55.07c-.34.05-.26-1.91-1.69.24s-3.31,2.64-1.82,4.27C200.55,147.23,201.51,148.68,202.42,149.5Z"/><path class="cls-9" d="M203.15,132.83a42,42,0,0,0-1.65-6.77c-.45-1.35-.92-2.65-1.4-3.9a6.86,6.86,0,0,0-1.15,2.31c-1.63,4.82-1.25,5.12-.15,5.54s.22.77,2.73,1.46C203.73,132.07,201.59,134,203.15,132.83Z"/><path class="cls-9" d="M105.93,193.05l-3.41-.29,1,3.08a5.1,5.1,0,0,0,1.88-.26C106.08,195.26,105.93,193.05,105.93,193.05Z"/><path class="cls-9" d="M109.13,219.4a28.47,28.47,0,0,0,2-2.24A27.47,27.47,0,0,0,115.61,207c-2.74-1.63-6.27-3.69-6.27-3.69l-4.4,3.67s-.85,3.79-.43,4C104.74,211.16,107,215.57,109.13,219.4Z"/><path class="cls-9" d="M175.68,172.27,174,173.53a11.35,11.35,0,0,0,1.46,3.94c1.18,1.9,1.78,1.25,3.55.77s.77-1.94,1.2-4.64S177.24,171.94,175.68,172.27Z"/><path class="cls-9" d="M99.89,226.5l.19-.15c.79-.48,1.55-1,2.3-1.46l-2.08-2.18s-4.32-1.32-4.63-.28.22,4.92.49,6.91q.74-.51,1.41-1C98.4,227.7,99.17,227.09,99.89,226.5Z"/><path class="cls-9" d="M194.28,167.06a2.34,2.34,0,0,0-1.26-.17c-3.21.45-5.55-.26-7.54,1.56s-3.17.78-2.6,3.63a30.52,30.52,0,0,0,1.81,5.54A59.6,59.6,0,0,0,194.28,167.06Z"/><path class="cls-9" d="M196.52,163.42l.12,0a51.65,51.65,0,0,0,3.93-8.05c-2.41,0-3.69-.18-4.19.35a17.43,17.43,0,0,0-1.72,5.06C194.74,161.36,189.34,162.22,196.52,163.42Z"/><path class="cls-9" d="M81.82,90h0l0-.05v0l.06-.06h0L82,89.8l0,0,.06-.07,0,0,.08-.09h0l.2-.22h0l.1-.12h0l.1-.11,0,0,.1-.12h0l.12-.14h0l.42-.48h0l.14-.16,0,0c0-.06.09-.11.13-.16l0,0,.15-.17h0L84.5,87h0l.17-.2,0,0c.06-.06.11-.13.17-.2l0,0,1-1.2,0,0,.18-.22,0,0,.2-.25h0l.06-.09c-.68-.84-1.41-1.66-1.6-1.63a3.56,3.56,0,0,0-2.48.34c-1.16.74-2.52,1.73-2.58,2.08a2.77,2.77,0,0,0,0,1c.07.45.48,1,1.65,2.76C81.54,89.52,81.69,89.78,81.82,90Z"/><path class="cls-9" d="M174.29,184.77a4.57,4.57,0,0,1-.18-1.3c-.08-4.3-5.94-5.56-5.94-5.56s-5.21-.31-5.58,2a27.39,27.39,0,0,0-.37,6.08l.4,2.88a1.07,1.07,0,0,1-.19.25A43.87,43.87,0,0,0,174.29,184.77Z"/><path class="cls-9" d="M104.81,184.4,99.7,189l7.32,1.37a29.47,29.47,0,0,0,1.59-3.44A21.34,21.34,0,0,0,104.81,184.4Z"/><path class="cls-9" d="M79.18,91.73c.45-.06,0-3.11,0-3.45s-3.92-1.75-3.92-1.75l-.86,3.79s2.62,1.48,3.19,1.4S78.72,91.79,79.18,91.73Z"/><path class="cls-9" d="M80.38,102.94s-2.52-1.61-3.18-1.4l-1.46,1.92,1.74,2.63,2.68-.59Z"/><path class="cls-9" d="M65.17,232.39c.5.78,1.31.05,1.61,0s1.26-.86,2.61-1.66-1.12-4.21-1.32-4.57l-4.17,4.18C63.82,233.12,64.68,231.62,65.17,232.39Z"/><path class="cls-9" d="M48.83,232.2c1.33-.34,1.37-1.19,1.51-2.35s-.82-1.58-1.84-2.28l-2.24,3.22A2.56,2.56,0,0,0,48.83,232.2Z"/><path class="cls-9" d="M70.19,172.25l-3-.75c.2,2.11.36,4.2.46,6.25l2.55-.67Z"/><path class="cls-9" d="M67.29,152.89l-2.46.21c.32,2.31.65,4.66,1,7l3.07-.77Z"/><path class="cls-9" d="M63,134v.4a1.48,1.48,0,0,1,0,.21c0,.13,0,.26,0,.39v.2c0,.14,0,.27,0,.41s0,.12,0,.18,0,.31,0,.47v.12c0,.63.06,1.26.1,1.9.17,2.43.43,5,.74,7.59l6.72-3.8-4-8.87s-1.75-.09-3.67-.15v.77C63,133.9,63,134,63,134Z"/><path class="cls-9" d="M53.49,239.4c1.25.17,2.47.31,3.68.41.6.06,1.2.1,1.8.13s1.18.06,1.76.08c.87,0,1.74,0,2.59,0,.65,0,1.3,0,1.94-.06-.46-1.78-1.25-3.53-2.86-4.37-3.47-1.82-3.69-1.79-4.59-1.66s-5.51.07-5.51.07-2.67.6-2.33,3.08l.24,1.74C51.32,239.06,52.41,239.24,53.49,239.4Z"/><path class="cls-9" d="M34.41,234l.16.07.8.33.14.06.9.36.2.08.94.36q3.86,1.44,7.51,2.41c.17-2.08.1-3.62-2-3.75-3.47-.21-1.74.7-3.47-.21a6.5,6.5,0,0,0-4.47-.76c-1.48.2-.52-2.33-2.22.4l.43.19.19.09Z"/><path class="cls-9" d="M19.23,224.72l.16.14.59.49.11.1.54.43.14.11c.2.17.41.33.62.49l.15.12.6.45.07,0,.66.48.16.12.68.47.1.07.63.42.15.1.7.45.15.1c.22.14.44.28.67.41l.09.06.74.44.17.11.74.42a4.54,4.54,0,0,0-1.09-1.94c-.77-.58-2-2.71-3.59-2.72s-3.73-2-4.66-2.11l-.16,0,.25.23.06.05Z"/><path class="cls-9" d="M75.2,238.66l.72-.17a59.24,59.24,0,0,0,8.32-2.65c-1.28-1.11-2.43-2-2.77-2-.9.13-7.64,1.29-7.64,1.29s-4,.79-2.69,3.82l.18.38C72.65,239.18,73.94,238.94,75.2,238.66Z"/><polygon class="cls-9" points="76.04 164.09 72.13 161.88 69.33 163.79 70.06 167.98 73.97 169.66 76.04 164.09"/><path class="cls-9" d="M67.89,149.51c1,.4,4.19,1.49,4.19,1.49l1.2-3.53L69.55,146s-2.81,1.23-2.56,2S66.84,149.12,67.89,149.51Z"/><path class="cls-9" d="M109.73,149a32.74,32.74,0,0,0-.4-5.08l-4.12.11-1.92,2.72,1.13,3.75,2.89.37S109.53,149.81,109.73,149Z"/><path class="cls-9" d="M84.63,231.85c.59-.16,1.07-.07,2.4-.41s.12-4.69.12-4.69l-7,1.35c-.49.3.39,1.71,1.45,3.79S84,232,84.63,231.85Z"/><path class="cls-9" d="M73,188.65c1.18-.16.84-.12,1.33-.35s-1.67-5.81-1.67-5.81L69.36,185a21.94,21.94,0,0,0,1,3.82C70.89,189.8,71.78,188.81,73,188.65Z"/><path class="cls-9" d="M79.48,112.25c-.33,0-2.87.86-2.87.86l-1.39,3.18,4,3.13c0-.34,2-2.46,1.88-3S79.82,112.21,79.48,112.25Z"/><path class="cls-9" d="M84.76,123.82a2.56,2.56,0,0,0,2-.51,7.48,7.48,0,0,0,1.45-1.12c.5-.53-.73-2.77-.8-3.33s-3.53-.55-3.53-.55l-1.62,3.21.14,1C82.54,123.55,83.49,123.77,84.76,123.82Z"/><path class="cls-9" d="M101.47,219a13.34,13.34,0,0,0,2.85-1.77v-3.45l-6.52-1.4-1,3.81s1.32,2.12,1.61,2.54S100.79,219,101.47,219Z"/><path class="cls-9" d="M103.31,202.38l-1.47-1.52s-1.54-1.17-2.48-.46L97,204.86a35.94,35.94,0,0,0,4.8.6C102.12,205.42,103.31,202.38,103.31,202.38Z"/><path class="cls-9" d="M107.31,171.42a42.78,42.78,0,0,0,5.22-1.57l3.12-4-5.78-3.57-5,2.53a12.62,12.62,0,0,0,.53,4.37C106.05,170.59,106.32,171.48,107.31,171.42Z"/><polygon class="cls-9" points="113.72 177.35 109.18 176.67 106.33 179.9 111.18 184.44 114.97 182.54 113.72 177.35"/><path class="cls-9" d="M115.9,194.82l-.51-3.69L111.66,188l-3,2.64-.68,4.54c.23,0,4,1.44,4.33,1.39S115.9,194.82,115.9,194.82Z"/><path class="cls-9" d="M146.26,187.82a24.21,24.21,0,0,0,7.31,1.81c-1.36-6.21-1.39-5.22-1.36-6.24s0-6-3.1-3.71-3.2,4.24-3.88,4.33l-1.86.26s.53,1.3-1.2-1.22a19.58,19.58,0,0,0-3.85-4.12s-5.33,0-5.22.89a2.64,2.64,0,0,1-.39,1.14C137.65,183.57,142.15,186.07,146.26,187.82Z"/><path class="cls-9" d="M78,95.8c.07.45,0,.91.23,2.49.15,1.08,2.49,2,4,2.51L81.7,92a4.5,4.5,0,0,0-1,.43s-1.27.75-2.84,1.89S78,95.34,78,95.8Z"/><path class="cls-9" d="M113.56,198.36l3.25,2.46c.16-1.16.3-2.34.41-3.56C115.33,197.87,113.56,198.36,113.56,198.36Z"/><path class="cls-9" d="M156,181.89c.4.4.47.05,2.05-.17s1.05-2.33.88-3.57-.86-1.26-.86-1.26l-4.12.11c-1.05.72.11.79.55,3.14S155.58,181.48,156,181.89Z"/><path class="cls-2" d="M66.8,114.38s-3.69,2.24-3.11,8.33A13.76,13.76,0,0,0,66,128.78Z"/><path class="cls-2" d="M70.6,131.3l-4.41-2.18A21.46,21.46,0,0,0,70,133.39L85,121s-5.87-7.87-12.39-7.32c0,0,5.41,4.64,4.92,9.83S70.6,131.3,70.6,131.3Z"/><path class="cls-2" d="M66,129l.24.12-.23-.34Z"/><polygon class="cls-23" points="92.34 126.18 78.15 122.97 66.99 135.28 66.75 178.75 75.02 210.96 97.13 177.33 92.34 126.18"/><path class="cls-24" d="M66.75,178.75,68.6,186a165.85,165.85,0,0,0,4-19.91c1.41-12.1-1.72-32.82-2-34.77h0c.16,2.15,1.74,26-3.82,41.75Z"/><path class="cls-24" d="M91.59,185.74c-.72-21-2.8-55.3-8.7-61.17l-.69-.68-4-.92-1.77,2c4,17.28,11.86,55.17,7.74,72.19Z"/><path class="cls-24" d="M70.32,192.65l4.18,16.27c3.31-11.75,8.58-33.32,6.59-45.41-2.85-17.22-5.15-23.85-5.15-23.85s4.87,35.23-1.87,46.82C72.63,189,71.39,191,70.32,192.65Z"/><path class="cls-4" d="M66.77,174.42l0,4.33L75,211l22.1-33.63-4.38-47c-1.37-1-2.33-1.63-2.33-1.63l4.31,47.52L75.24,200Z"/><path class="cls-25" d="M91.39,180.33l-6.16,7.49a47.11,47.11,0,0,1-1.11,9.29l5.61-8.52,1.86-2.85C91.53,184,91.47,182.21,91.39,180.33Z"/><path class="cls-25" d="M66.77,174.42l0,4.33L68.6,186c.29-1.11.57-2.27.86-3.44Z"/><path class="cls-25" d="M75.24,200,72,190c-.59,1-1.13,1.83-1.63,2.61l4.18,16.27c.92-3.28,2-7.33,3-11.72Z"/><path class="cls-2" d="M73.38,130.8c-.35.08-.71.21-.25.3A.89.89,0,0,1,73.38,130.8Z"/><path class="cls-2" d="M86.79,122.65c-.75-.42-8.72,2.24-12.91,3.34s-6.72,5.45-6.72,5.45-2.77,10.11-2.73,16.71S67,170.55,67,170.55c-1-9.49,4.09-36,6.13-39.45-.46-.09-.1-.22.25-.3a.14.14,0,0,1,.11-.06c.6-.09.25,0-.11.06a.89.89,0,0,0-.25.3,27.33,27.33,0,0,0,4,.09c7.89-.13,40.25,34.14,40.25,34.14-1.21-8.7-7.52-22.94-7.52-22.94l-22.3-19.33A5.41,5.41,0,0,1,86.79,122.65Z"/><path class="cls-6" d="M16.65,202.64c1.49-.21,2.38-2.72,2-5.62s-1.94-5.07-3.43-4.87-2.38,2.72-2,5.62S15.15,202.84,16.65,202.64Z"/><path class="cls-8" d="M183.27,122.39c3-1.34.23-8.31-4-14.62s-14.2-12.17-15.62-12.44c0,0,10.09,7.34,14,15.76S180.23,123.73,183.27,122.39Z"/><path class="cls-9" d="M15.78,109.45,12,111.7s4.78.49,5.64-1.58,3.7-4,3.7-4c-.29-2.49-2.88-7.53-2.88-7.53l-5.15,4.74s5.56,1.58,4.28,2.68A7.21,7.21,0,0,0,15.78,109.45Z"/><path class="cls-1" d="M120.62,38.06l-2.25-8.84-7,11.16s-2.68,17-5,20.49a63.44,63.44,0,0,0-3.93,6.8l6.75,30s3.17-17.29,5.62-26S120.62,38.06,120.62,38.06Z"/><path class="cls-3" d="M120.62,38.06l-1-3.87L107.29,89.08l1.21,5.38,11.71-53.41C120.47,39.19,120.62,38.06,120.62,38.06Z"/><path class="cls-4" d="M119,36.2l1.23,4.86c.26-1.87.42-3,.42-3l-2.25-8.84-7,11.16s-.14.91-.39,2.35l5.32-6.94-.51,13.27Z"/><path class="cls-4" d="M104.09,64.63c-1,1.77-1.62,3-1.62,3l6.75,30s.55-3,1.37-7.15l-4.21-16.32s3.77-4.75,3.5-9a63.28,63.28,0,0,0-1.72-9,18.92,18.92,0,0,1-1.76,4.71l-.15.23c1.41,3.42-.55,9-.55,9Z"/><path class="cls-1" d="M35.71,84.88c-2.57,1.52-14.15,8.21-16.82,9.05s-7.2,2.38-7.2,2.38-2.2,6.67-2,7.11,11-1,11.29-1.32c1.68-2.09,19.93-6.58,19.93-6.58-1.18-4.35,5-14.71,5-14.71S38.28,83.37,35.71,84.88Z"/><path class="cls-4" d="M13.47,99.34l-.15-3.58-1.63.55s-2.2,6.67-2,7.11,11-1,11.29-1.32A6.14,6.14,0,0,1,23,100.88L15,101l8.08-6.24Z"/><path class="cls-4" d="M42.07,82.17c-2,3.27-4.14,7.38-4,9.69,0,0-8.07,1.46-9.29,7,1.86-.58,3.82-1.14,5.61-1.63a2.87,2.87,0,0,1,2.08-2.55c1.48-.3,2,.41,2.19,1.41l2.23-.57c-1.18-4.35,5-14.71,5-14.71S44.17,81.4,42.07,82.17Z"/><path class="cls-12" d="M60,66.94l-4.43,2.52L65,75.37s1.72-3.28,1.77-3.55S60,66.94,60,66.94Z"/><path class="cls-12" d="M51.61,73.42C50.78,79.1,56,93.2,56,93.2l2-1.77C55,87.31,53.92,72.52,54,72.17Z"/><path class="cls-4" d="M56.32,73.09l3.12-5.27.94.11s-3.59-7.76-8.57-7.33c0,0-3.67,2.33-4.75,5.86,0,0,1,6,2.69,7.54S56.32,73.09,56.32,73.09Z"/><path class="cls-3" d="M59.44,67.82l.94.11S57,60.67,52.29,60.58l-1.4,4.66s6,.35,8.15,3.25Z"/><path class="cls-12" d="M64.27,70a38.53,38.53,0,0,0-1.08-4.56c-.7.59-1.38,1.2-2,1.84-5.9,5.91-9.28,22.47-9.28,22.47l1.19,7.83s4.19-18.3,8.23-24.3A19.26,19.26,0,0,1,64.27,70Z"/><path class="cls-2" d="M107.35,119.83S98,114.61,96.8,114.61L107,139.85l10,11.07s-2.7-7.57-3.33-11.7,1-4.88,1-4.88-6-5.56-8.38-9.35S107.35,119.83,107.35,119.83Z"/><path class="cls-25" d="M77.11,131.19c16.32-4.51,38.15,23.19,38.15,23.19-2.65-29.28-26.65-47-26.65-47L76,125.61S60.8,135.7,77.11,131.19Z"/><path class="cls-25" d="M72.62,129.47l-9.74-10.73a119.69,119.69,0,0,0-1.23,13.72c-.16,7,4,31.33,4,31.33S64.39,146,65,142,72.62,129.47,72.62,129.47Z"/><path class="cls-25" d="M62.83,119.41,59.13,133a2.86,2.86,0,0,1,2.36,2.16c.69,2.06-.47,12-.47,12s1.81-.69,2.32.39.26,9.68.26,9.68l1.16.64L63.3,139.68l1.2-5.08Z"/><path class="cls-12" d="M65,120.1c-.27-.31-5.67-18.44-5.67-18.44l-2.51-1.4,5.52,17.31S65.29,120.41,65,120.1Z"/><polygon class="cls-12" points="62.99 97.1 62.28 99.51 82.06 113.57 84.05 111.21 62.99 97.1"/><polygon class="cls-4" points="86.46 105.15 71.22 126.88 62.32 114.04 61.84 119.32 72.71 141.44 89.63 108.01 86.46 105.15"/><polygon class="cls-12" points="68.56 79.53 60.06 91.83 61.53 93.25 71.42 81.8 68.56 79.53"/><path class="cls-4" d="M81.47,77.29s-6-7.5-8.86-8.88-8.4,4.13-8.4,4.13-.85,8.3,4.47,10.16S80.78,81.21,81.47,77.29Z"/><path class="cls-3" d="M81.33,77.84a3.41,3.41,0,0,0,.14-.55s-6-7.5-8.86-8.88-8.4,4.13-8.4,4.13,0,.5,0,1.28a10.78,10.78,0,0,0,2.18,0C75.4,73,80.06,76.63,81.33,77.84Z"/><path class="cls-12" d="M80.59,77.12a38,38,0,0,0-3,2.85l8,7.24,3.13-3.74C88.39,83.34,80.84,77.08,80.59,77.12Z"/><polygon class="cls-12" points="77.05 80.47 75.19 81.43 82.31 95.9 83.05 91.81 77.05 80.47"/><path class="cls-3" d="M60.11,102c2.15-.3,3.55-3.06,3.12-6.16s-2.52-5.39-4.67-5.09S55,93.85,55.44,97,58,102.34,60.11,102Zm-1.35-9.77c1.48-.2,2.93,1.49,3.24,3.78s-.62,4.31-2.09,4.51S57,99.07,56.67,96.78,57.29,92.47,58.76,92.27Z"/><path class="cls-26" d="M55.66,93.75a1.7,1.7,0,0,0,1.13.7,3.48,3.48,0,0,1,.92-1.65,3.08,3.08,0,0,1-.32-1.57A4.59,4.59,0,0,0,55.66,93.75Z"/><path class="cls-26" d="M62.26,93a4.88,4.88,0,0,0-2.11-2,13.12,13.12,0,0,0-.36,1.4,3.35,3.35,0,0,1,1.48,1.44A2.84,2.84,0,0,1,62.26,93Z"/><path class="cls-26" d="M62.16,100.77a6.21,6.21,0,0,0,1.14-3.86l-1.25-.38a4.66,4.66,0,0,1-.93,3.34Z"/><path class="cls-26" d="M57.13,98.43a2.83,2.83,0,0,0-.89,1,4.7,4.7,0,0,0,2.7,2.47,2,2,0,0,1,0-1.52A3.63,3.63,0,0,1,57.13,98.43Z"/><path class="cls-27" d="M64.21,72.54s-.85,8.3,4.47,10.16a9.61,9.61,0,0,0,2.76.51l-.11-.35c-2-5.71-.14-11.4,1.23-14.47C69.73,67.09,64.21,72.54,64.21,72.54Z"/><path class="cls-21" d="M119.21,38.8c.27-1.49-.32-2.85-1.32-3s-2,.88-2.29,2.38.31,2.85,1.31,3S118.93,40.3,119.21,38.8Z"/><path class="cls-28" d="M118.79,36.37a1.41,1.41,0,0,0-.9-.6c-1-.19-2,.88-2.29,2.38s.31,2.85,1.31,3a1.24,1.24,0,0,0,.66-.06,3.23,3.23,0,0,1-.41-2.43A2.94,2.94,0,0,1,118.79,36.37Z"/><path class="cls-21" d="M16.81,100c1.39-.63,2.17-1.88,1.75-2.81s-1.88-1.16-3.27-.53-2.16,1.89-1.74,2.81S15.43,100.63,16.81,100Z"/><path class="cls-28" d="M16.81,100c1.39-.63,2.17-1.88,1.75-2.81a1.4,1.4,0,0,0-.43-.51,3.27,3.27,0,0,1-1.76,1.73,2.94,2.94,0,0,1-2.84,0,1.44,1.44,0,0,0,0,1.08C14,100.4,15.43,100.63,16.81,100Z"/><path class="cls-19" d="M118.36,39.63a.49.49,0,0,0,.44-.54.5.5,0,0,0-.57-.4.51.51,0,0,0-.45.54A.5.5,0,0,0,118.36,39.63Z"/><path class="cls-19" d="M17.39,97.67c.29,0,.51-.26.47-.49a.49.49,0,0,0-.59-.35c-.29,0-.5.26-.47.49A.49.49,0,0,0,17.39,97.67Z"/><path class="cls-19" d="M16.25,97.26c.16,0,.28-.13.27-.23s-.16-.18-.33-.15-.28.12-.27.23S16.08,97.28,16.25,97.26Z"/><path class="cls-2" d="M189.4,175c26.07-23.75,11.67-57.55,11.67-57.55-.44,11.87-11.67,18.64-11.67,18.64,1,8.72-3.85,17.38-3.85,17.38C192.28,156.88,189.4,175,189.4,175Z"/><path class="cls-25" d="M204.55,131.48c-3.8,7.66-12,10-15.27,10.67a34.33,34.33,0,0,1-1.77,6.91c5.55.66,10.39,6.12,13.35,10.32C205.34,149.4,205.54,139.28,204.55,131.48Z"/><path class="cls-29" d="M189.55,173.89c20.22-19.76,13.88-45.75,11.23-53.79a21,21,0,0,1-3.24,7.93c2,9.93,2.67,25.88-7.55,40.12C189.92,170.57,189.7,172.68,189.55,173.89Z"/><path class="cls-12" d="M44.77,186.91a49.12,49.12,0,0,1,5.44-4.1c-5-4.61-15.93-13.25-26.41-10.64C16.67,174,10.19,179.71,5.51,185a44.3,44.3,0,0,0-.83,6.36c4.06-5.56,9.94-11.86,16.59-13.6C30.72,175.25,40.5,183,44.77,186.91Z"/><path class="cls-12" d="M61.76,176.4c-.13-7-1.63-20.31-10.93-24.81-6.66-3.23-15.95-1.13-23.36,1.63a54.54,54.54,0,0,0-8.59,7.12c6.28-3,14.7-6,22.05-5,12.5,1.73,17.5,7.9,15.85,23.54C58.32,178.1,60,177.26,61.76,176.4Z"/><path class="cls-30" d="M34.68,172.91a56.06,56.06,0,0,0-4.11,5.21c6,1.83,11.35,6.14,14.2,8.79a49.12,49.12,0,0,1,5.44-4.1C47,179.81,41.21,175.11,34.68,172.91Z"/><path class="cls-30" d="M61.76,176.4c-.1-5.67-1.11-15.44-6.4-21.36-1.58,1.12-3.18,2.29-4.77,3.5,5.34,3.45,7.32,9.72,6.19,20.39C58.32,178.1,60,177.26,61.76,176.4Z"/><path class="cls-25" d="M89.28,108.53l.86,4.64,10.67,18.93s7.29,7.58,7.8,7.86,10.1,14.34,10.1,14.34L114,143.86l-4.36-11.3,7.11,3.67-12.1-9.92-5-9,9.06,2.76Z"/><path class="cls-2" d="M104.66,119.34s-11.16-6.48-14.14-5S92.73,121,92.73,121s-3.56-5.07.45-4.07,14.57,11.7,14.57,11.7-3.41-5.53-3.29-6.71Z"/><path class="cls-2" d="M91.39,128.26c-1.12.63,2.25,3.38,2.25,3.38A33.74,33.74,0,0,1,91.39,128.26Z"/><path class="cls-2" d="M112.29,134c-.78-.32-15.64-9.56-20.42-10.24-2.71-.39-1.79,2.17-.48,4.47.5-.28,1.9-.14,4.89.86,9.7,3.24,17.58,14.14,17.58,14.14l-.63-6.11-.77-2.87S113.06,134.34,112.29,134Z"/></g></g></svg>