<svg xmlns="http://www.w3.org/2000/svg" xmlns:xlink="http://www.w3.org/1999/xlink" viewBox="0 0 393.89 388.34"><defs><style>.cls-1{fill:url(#Degradado_sin_nombre_5);}.cls-2{fill:url(#Degradado_sin_nombre_5-2);}.cls-3{fill:url(#Degradado_sin_nombre_5-3);}.cls-4{fill:url(#Degradado_sin_nombre_5-4);}.cls-5{fill:url(#Degradado_sin_nombre_5-5);}.cls-6{fill:url(#Degradado_sin_nombre_5-6);}.cls-7{fill:url(#Degradado_sin_nombre_5-7);}.cls-8{fill:url(#Degradado_sin_nombre_5-8);}.cls-9{fill:url(#Degradado_sin_nombre_5-9);}.cls-10{fill:url(#Degradado_sin_nombre_5-11);}.cls-11{fill:url(#Degradado_sin_nombre_5-12);}.cls-12{fill:url(#Degradado_sin_nombre_5-13);}.cls-13{fill:url(#Degradado_sin_nombre_5-14);}.cls-14{fill:url(#Degradado_sin_nombre_5-15);}.cls-15{fill:url(#Degradado_sin_nombre_5-16);}.cls-16{fill:url(#Degradado_sin_nombre_7);}.cls-17{fill:url(#Degradado_sin_nombre_7-2);}.cls-18{fill:url(#Degradado_sin_nombre_7-3);}.cls-19{fill:url(#Degradado_sin_nombre_7-4);}.cls-20{fill:url(#Degradado_sin_nombre_7-5);}.cls-21{fill:url(#Degradado_sin_nombre_7-6);}.cls-22{fill:url(#Degradado_sin_nombre_5-17);}.cls-23{fill:url(#Degradado_sin_nombre_5-18);}.cls-24{fill:url(#Degradado_sin_nombre_5-19);}.cls-25{fill:url(#Degradado_sin_nombre_5-20);}.cls-26{fill:url(#Degradado_sin_nombre_5-21);}.cls-27{fill:url(#Degradado_sin_nombre_5-22);}.cls-28{opacity:0.57;}.cls-29{fill:url(#Degradado_sin_nombre_5-23);}.cls-30{opacity:0.74;fill:url(#Degradado_sin_nombre_5-24);}.cls-31{fill:url(#Degradado_sin_nombre_5-25);}.cls-32{fill:url(#Degradado_sin_nombre_5-26);}.cls-33{fill:url(#Degradado_sin_nombre_5-27);}.cls-34{fill:url(#Degradado_sin_nombre_5-28);}.cls-35{fill:url(#Degradado_sin_nombre_5-29);}.cls-36{opacity:0.35;fill:url(#Degradado_sin_nombre_5-30);}.cls-37{fill:url(#Degradado_sin_nombre_5-31);}.cls-38{fill:url(#Degradado_sin_nombre_5-32);}.cls-39{fill:url(#Degradado_sin_nombre_5-33);}.cls-40{fill:url(#Degradado_sin_nombre_5-34);}.cls-41{fill:url(#Degradado_sin_nombre_5-35);}.cls-42{fill:url(#Degradado_sin_nombre_5-36);}.cls-43{fill:url(#Degradado_sin_nombre_5-37);}.cls-44{fill:url(#Degradado_sin_nombre_5-38);}.cls-45{fill:url(#Degradado_sin_nombre_5-39);}.cls-46{fill:url(#Degradado_sin_nombre_5-40);}.cls-47{fill:url(#Degradado_sin_nombre_5-41);}.cls-48{fill:url(#Degradado_sin_nombre_5-42);}.cls-49{fill:url(#Degradado_sin_nombre_7-7);}.cls-50{fill:url(#Degradado_sin_nombre_7-8);}.cls-51{fill:url(#Degradado_sin_nombre_7-9);}.cls-52{fill:url(#Degradado_sin_nombre_7-10);}.cls-53{fill:url(#Degradado_sin_nombre_7-11);}.cls-54{fill:url(#Degradado_sin_nombre_7-12);}.cls-55{fill:url(#Degradado_sin_nombre_7-13);}.cls-56{fill:url(#Degradado_sin_nombre_7-14);}.cls-57{fill:url(#Degradado_sin_nombre_7-15);}.cls-58{fill:url(#Degradado_sin_nombre_7-16);}.cls-59{fill:url(#Degradado_sin_nombre_7-17);}.cls-60{fill:url(#Degradado_sin_nombre_7-18);}.cls-61{fill:#e3fffe;}.cls-62{fill:url(#Degradado_sin_nombre_5-43);}.cls-63{fill:url(#Degradado_sin_nombre_5-44);}.cls-64{fill:url(#Degradado_sin_nombre_5-45);}.cls-65{fill:url(#Degradado_sin_nombre_5-46);}.cls-66{fill:url(#Degradado_sin_nombre_5-47);}.cls-67{fill:url(#Degradado_sin_nombre_5-48);}.cls-68{fill:url(#Degradado_sin_nombre_5-49);}.cls-69{fill:url(#Degradado_sin_nombre_5-50);}.cls-70{fill:url(#Degradado_sin_nombre_5-51);}.cls-71{fill:url(#Degradado_sin_nombre_5-52);}.cls-72{fill:url(#Degradado_sin_nombre_5-53);}.cls-73{fill:url(#Degradado_sin_nombre_5-54);}</style><linearGradient id="Degradado_sin_nombre_5" x1="360.41" y1="248" x2="229.23" y2="85.61" gradientUnits="userSpaceOnUse"><stop offset="0" stop-color="#87dce8"/><stop offset="1" stop-color="#0a5c5e"/></linearGradient><linearGradient id="Degradado_sin_nombre_5-2" x1="319.78" y1="171.63" x2="181.9" y2="62.32" xlink:href="#Degradado_sin_nombre_5"/><linearGradient id="Degradado_sin_nombre_5-3" x1="243.34" y1="125.67" x2="106.87" y2="46.32" xlink:href="#Degradado_sin_nombre_5"/><linearGradient id="Degradado_sin_nombre_5-4" x1="104.89" y1="25.78" x2="128.77" y2="49.98" xlink:href="#Degradado_sin_nombre_5"/><linearGradient id="Degradado_sin_nombre_5-5" x1="111.52" y1="39.5" x2="136.55" y2="31.65" xlink:href="#Degradado_sin_nombre_5"/><linearGradient id="Degradado_sin_nombre_5-6" x1="150.4" y1="15.27" x2="117.36" y2="28.66" xlink:href="#Degradado_sin_nombre_5"/><linearGradient id="Degradado_sin_nombre_5-7" x1="104.92" y1="-34.34" x2="123.86" y2="-8.63" xlink:href="#Degradado_sin_nombre_5"/><linearGradient id="Degradado_sin_nombre_5-8" x1="139.06" y1="7.98" x2="143.93" y2="12.92" xlink:href="#Degradado_sin_nombre_5"/><linearGradient id="Degradado_sin_nombre_5-9" x1="130.04" y1="62.09" x2="162.57" y2="106.26" xlink:href="#Degradado_sin_nombre_5"/><linearGradient id="Degradado_sin_nombre_5-11" x1="75.85" y1="42.4" x2="88.71" y2="59.87" xlink:href="#Degradado_sin_nombre_5"/><linearGradient id="Degradado_sin_nombre_5-12" x1="149.98" y1="62.59" x2="149.98" y2="79.52" xlink:href="#Degradado_sin_nombre_5"/><linearGradient id="Degradado_sin_nombre_5-13" x1="138.46" y1="62.59" x2="138.46" y2="79.52" xlink:href="#Degradado_sin_nombre_5"/><linearGradient id="Degradado_sin_nombre_5-14" x1="409.85" y1="121.45" x2="359.08" y2="155.72" xlink:href="#Degradado_sin_nombre_5"/><linearGradient id="Degradado_sin_nombre_5-15" x1="86.68" y1="218.94" x2="309.4" y2="359.86" xlink:href="#Degradado_sin_nombre_5"/><linearGradient id="Degradado_sin_nombre_5-16" x1="383.13" y1="335.22" x2="384.94" y2="336.36" xlink:href="#Degradado_sin_nombre_5"/><linearGradient id="Degradado_sin_nombre_7" x1="117.87" y1="214.84" x2="134.45" y2="285.36" gradientUnits="userSpaceOnUse"><stop offset="0" stop-color="#87dce8"/><stop offset="1" stop-color="#c5f7f9"/></linearGradient><linearGradient id="Degradado_sin_nombre_7-2" x1="61.71" y1="228.04" x2="78.28" y2="298.56" xlink:href="#Degradado_sin_nombre_7"/><linearGradient id="Degradado_sin_nombre_7-3" x1="101.81" y1="218.61" x2="118.38" y2="289.14" xlink:href="#Degradado_sin_nombre_7"/><linearGradient id="Degradado_sin_nombre_7-4" x1="77.49" y1="224.33" x2="94.07" y2="294.85" xlink:href="#Degradado_sin_nombre_7"/><linearGradient id="Degradado_sin_nombre_7-5" x1="206.32" y1="194.05" x2="222.89" y2="264.58" xlink:href="#Degradado_sin_nombre_7"/><linearGradient id="Degradado_sin_nombre_7-6" x1="53.78" y1="229.9" x2="70.35" y2="300.43" xlink:href="#Degradado_sin_nombre_7"/><linearGradient id="Degradado_sin_nombre_5-17" x1="57.46" y1="211.5" x2="92.37" y2="380.77" xlink:href="#Degradado_sin_nombre_5"/><linearGradient id="Degradado_sin_nombre_5-18" x1="56.38" y1="211.72" x2="91.29" y2="380.99" xlink:href="#Degradado_sin_nombre_5"/><linearGradient id="Degradado_sin_nombre_5-19" x1="87.23" y1="173.05" x2="129.02" y2="390.97" xlink:href="#Degradado_sin_nombre_5"/><linearGradient id="Degradado_sin_nombre_5-20" x1="367.29" y1="287.96" x2="283.18" y2="257.81" xlink:href="#Degradado_sin_nombre_5"/><linearGradient id="Degradado_sin_nombre_5-21" x1="96.88" y1="215.89" x2="221.03" y2="294.44" xlink:href="#Degradado_sin_nombre_5"/><linearGradient id="Degradado_sin_nombre_5-22" x1="89.77" y1="118.27" x2="100.92" y2="125.33" xlink:href="#Degradado_sin_nombre_5"/><linearGradient id="Degradado_sin_nombre_5-23" x1="183.99" y1="295.78" x2="183.97" y2="295.8" xlink:href="#Degradado_sin_nombre_5"/><linearGradient id="Degradado_sin_nombre_5-24" x1="250.38" y1="162.49" x2="228.38" y2="177.33" xlink:href="#Degradado_sin_nombre_5"/><linearGradient id="Degradado_sin_nombre_5-25" x1="163.54" y1="253.06" x2="161.78" y2="163.85" xlink:href="#Degradado_sin_nombre_5"/><linearGradient id="Degradado_sin_nombre_5-26" x1="163.22" y1="205.39" x2="136.62" y2="101.98" xlink:href="#Degradado_sin_nombre_5"/><linearGradient id="Degradado_sin_nombre_5-27" x1="84.52" y1="67.69" x2="114.4" y2="86.6" xlink:href="#Degradado_sin_nombre_5"/><linearGradient id="Degradado_sin_nombre_5-28" x1="71.16" y1="77.84" x2="109.67" y2="72.78" xlink:href="#Degradado_sin_nombre_5"/><linearGradient id="Degradado_sin_nombre_5-29" x1="62.9" y1="100.49" x2="92.13" y2="96.65" xlink:href="#Degradado_sin_nombre_5"/><linearGradient id="Degradado_sin_nombre_5-30" x1="240.58" y1="114.37" x2="221.41" y2="127.31" xlink:href="#Degradado_sin_nombre_5"/><linearGradient id="Degradado_sin_nombre_5-31" x1="171.41" y1="182.69" x2="79.9" y2="111.55" xlink:href="#Degradado_sin_nombre_5"/><linearGradient id="Degradado_sin_nombre_5-32" x1="148.15" y1="145.68" x2="129.38" y2="72.68" xlink:href="#Degradado_sin_nombre_5"/><linearGradient id="Degradado_sin_nombre_5-33" x1="236.69" y1="324.5" x2="246.74" y2="399.09" xlink:href="#Degradado_sin_nombre_5"/><linearGradient id="Degradado_sin_nombre_5-34" x1="387.57" y1="349.03" x2="388.62" y2="356.82" xlink:href="#Degradado_sin_nombre_5"/><linearGradient id="Degradado_sin_nombre_5-35" x1="335.1" y1="311.24" x2="345.15" y2="385.82" xlink:href="#Degradado_sin_nombre_5"/><linearGradient id="Degradado_sin_nombre_5-36" x1="83.53" y1="345.14" x2="93.58" y2="419.72" xlink:href="#Degradado_sin_nombre_5"/><linearGradient id="Degradado_sin_nombre_5-37" x1="136.35" y1="153.79" x2="141.47" y2="163.84" xlink:href="#Degradado_sin_nombre_5"/><linearGradient id="Degradado_sin_nombre_5-38" x1="135.37" y1="153.7" x2="143.36" y2="169.61" xlink:href="#Degradado_sin_nombre_5"/><linearGradient id="Degradado_sin_nombre_5-39" x1="92.44" y1="136.99" x2="114.53" y2="130.91" xlink:href="#Degradado_sin_nombre_5"/><linearGradient id="Degradado_sin_nombre_5-40" x1="113.09" y1="50.02" x2="132.56" y2="111.13" xlink:href="#Degradado_sin_nombre_5"/><linearGradient id="Degradado_sin_nombre_5-41" x1="137.29" y1="29.65" x2="147.34" y2="61.21" xlink:href="#Degradado_sin_nombre_5"/><linearGradient id="Degradado_sin_nombre_5-42" x1="145.81" y1="49.78" x2="156.45" y2="101.34" xlink:href="#Degradado_sin_nombre_5"/><linearGradient id="Degradado_sin_nombre_7-7" x1="49.97" y1="331.2" x2="-7.42" y2="367.7" xlink:href="#Degradado_sin_nombre_7"/><linearGradient id="Degradado_sin_nombre_7-8" x1="79.77" y1="378.06" x2="22.38" y2="414.55" xlink:href="#Degradado_sin_nombre_7"/><linearGradient id="Degradado_sin_nombre_7-9" x1="234.13" y1="340.26" x2="207.59" y2="357.15" xlink:href="#Degradado_sin_nombre_7"/><linearGradient id="Degradado_sin_nombre_7-10" x1="16.79" y1="254.23" x2="8.61" y2="259.43" xlink:href="#Degradado_sin_nombre_7"/><linearGradient id="Degradado_sin_nombre_7-11" x1="28.53" y1="235.17" x2="18.89" y2="241.3" xlink:href="#Degradado_sin_nombre_7"/><linearGradient id="Degradado_sin_nombre_7-12" x1="23.78" y1="318.4" x2="12.96" y2="325.28" xlink:href="#Degradado_sin_nombre_7"/><linearGradient id="Degradado_sin_nombre_7-13" x1="40.75" y1="284.43" x2="33.64" y2="288.95" xlink:href="#Degradado_sin_nombre_7"/><linearGradient id="Degradado_sin_nombre_7-14" x1="172.39" y1="355.04" x2="160.66" y2="362.5" xlink:href="#Degradado_sin_nombre_7"/><linearGradient id="Degradado_sin_nombre_7-15" x1="164.56" y1="292.85" x2="158.09" y2="296.96" xlink:href="#Degradado_sin_nombre_7"/><linearGradient id="Degradado_sin_nombre_7-16" x1="249.51" y1="198.13" x2="246.71" y2="199.91" xlink:href="#Degradado_sin_nombre_7"/><linearGradient id="Degradado_sin_nombre_7-17" x1="289.09" y1="231.65" x2="287.36" y2="232.75" xlink:href="#Degradado_sin_nombre_7"/><linearGradient id="Degradado_sin_nombre_7-18" x1="297.78" y1="313.15" x2="287.82" y2="319.49" xlink:href="#Degradado_sin_nombre_7"/><linearGradient id="Degradado_sin_nombre_5-43" x1="283.08" y1="192.09" x2="252.4" y2="155.59" xlink:href="#Degradado_sin_nombre_5"/><linearGradient id="Degradado_sin_nombre_5-44" x1="299.01" y1="247.16" x2="326.78" y2="214.1" xlink:href="#Degradado_sin_nombre_5"/><linearGradient id="Degradado_sin_nombre_5-45" x1="302.46" y1="250.06" x2="330.23" y2="217" xlink:href="#Degradado_sin_nombre_5"/><linearGradient id="Degradado_sin_nombre_5-46" x1="287.81" y1="237.75" x2="315.58" y2="204.69" xlink:href="#Degradado_sin_nombre_5"/><linearGradient id="Degradado_sin_nombre_5-47" x1="319.73" y1="216.67" x2="309.5" y2="58.69" xlink:href="#Degradado_sin_nombre_5"/><linearGradient id="Degradado_sin_nombre_5-48" x1="324.03" y1="216.39" x2="313.8" y2="58.41" xlink:href="#Degradado_sin_nombre_5"/><linearGradient id="Degradado_sin_nombre_5-49" x1="227.24" y1="108.01" x2="266.64" y2="157.73" xlink:href="#Degradado_sin_nombre_5"/><linearGradient id="Degradado_sin_nombre_5-50" x1="200.17" y1="82.2" x2="191.45" y2="75.28" xlink:href="#Degradado_sin_nombre_5"/><linearGradient id="Degradado_sin_nombre_5-51" x1="251.69" y1="45.53" x2="242.95" y2="38.6" xlink:href="#Degradado_sin_nombre_5"/><linearGradient id="Degradado_sin_nombre_5-52" x1="297.3" y1="218.12" x2="287.08" y2="60.14" xlink:href="#Degradado_sin_nombre_5"/><linearGradient id="Degradado_sin_nombre_5-53" x1="279.94" y1="231.14" x2="307.71" y2="198.08" xlink:href="#Degradado_sin_nombre_5"/><linearGradient id="Degradado_sin_nombre_5-54" x1="317.35" y1="216.82" x2="307.12" y2="58.84" xlink:href="#Degradado_sin_nombre_5"/></defs><title>glacia</title><g id="Layer_2" data-name="Layer 2"><g id="Capa_1" data-name="Capa 1"><path class="cls-1" d="M294.18,119.19c-13.22-11.37-17.45-26.45-19-41.52S259.8,54.92,243.4,47s-11.9-17.45-27-27.77S176,5.73,176,5.73s-4.23-4-15.6-5.55-25.65,7.93-25.65,7.93l.79,13.49s-1.32,13,5.91,18.34,24.77-.62,39.84,7.05,13.23,9,19.57,21.95,25.39,18,35.71,27.24,6.08,12.43,10.05,28.83,36.23,48.4,36.23,48.4-2.64-17.72,2.65-6.88,13,36.77,12.69,41-.53,14.28,1.85,10.58,1.59-20.63,2.65-17.72,1.06,25.91-.8,31.73-4.23,9.52-3.17,10.58,0,0,5-6.87,9.25-27.25,7.67-39.68-2.65-32.79-1.06-41.52S307.41,130.56,294.18,119.19Zm-17.54,42.05S260.07,145.73,256,132.33s3.35-13.58,10.05-8.11S278.4,161.6,278.4,161.6Zm5.47-4.58s-5.82-6.52-3.53-10.4,6.17,6.87,6.17,6.87Z"/><path class="cls-2" d="M196.06,22.66c-15.23-9.34-44.34-1.89-60.59,3.48.27,4.26,1.47,10.48,5.94,13.8,7.22,5.38,24.77-.62,39.84,7.05s13.23,9,19.57,21.95,25.39,18,35.71,27.24,6.08,12.43,10.05,28.83,36.23,48.4,36.23,48.4-2.64-17.72,2.65-6.88,13,36.77,12.69,41c-.1,1.62-.2,4.11-.15,6.34,2.5-5.32,4-12.59,4.56-20.54,1.41-21.51-9.87-39.84-8.82-40.55s9.17,13.4,9.17,13.4A42.7,42.7,0,0,0,293,134.8c-12.34-14.46-18-24.69-21.87-43s-18-32.44-18-32.44V71S242.61,59.69,227.1,56.51s-17.64-18.34-17.64-18.34l16.93,7.76S217.93,36.06,196.06,22.66Zm82.52,123.6c2.29-3.88,6.17,6.87,6.17,6.87l-2.64,3.53S276.29,150.14,278.58,146.26Zm-12.52-22c6.7,5.46,12.34,37.38,12.34,37.38l-1.76-.36S260.07,145.73,256,132.33,259.36,118.75,266.06,124.22Z"/><path class="cls-3" d="M241.55,80.05c-4.23-7.93-11.1-7.67-24.33-15.34s-4.49-20.1-30.41-32.53C172,25.1,150.93,22.57,135.49,21.7c-.1,1.15-1,13.12,5.92,18.24,7.22,5.38,24.77-.62,39.84,7.05s13.23,9,19.57,21.95,25.39,18,35.71,27.24,6.08,12.43,10.05,28.83,36.23,48.4,36.23,48.4-2.64-17.72,2.65-6.88,13,36.77,12.69,41-.53,14.28,1.85,10.58,1.59-20.63,2.65-17.72c.42,1.15.67,5.44.71,10.57,3.66-11-8-38.74-15.79-47.07a13.2,13.2,0,0,1-3.65-9.65l-1.81,2.42s-5.82-6.52-3.53-10.4c1.67-2.84,4.19,2.14,5.43,5,.38-6.05,1.69-13.73-.93-25C278.32,106,260.33,95.39,245.52,92S226.21,74.5,226.21,74.5,245.79,88,241.55,80.05Zm24.51,44.17c6.7,5.46,12.34,37.38,12.34,37.38l-1.76-.36S260.07,145.73,256,132.33,259.36,118.75,266.06,124.22Z"/><path class="cls-4" d="M123.77,29.89c-22-3.75-23.31,13-23.31,13l33.45,7C135.1,49.24,145.81,33.63,123.77,29.89Z"/><path class="cls-5" d="M133.82,47.17c.18-.8,14.73-22.75,14.73-22.75s4.49,1.41,2.73-2.91S143,14.9,143,14.9s-8.9,9.26-14.9,13.14-21.51,12.34-22.65,12.34l7.31,9.43S133.65,48,133.82,47.17Z"/><path class="cls-6" d="M128.22,10.48l-.1.81-1.09,0-.5.78a3.73,3.73,0,0,1-2.09,1.43c-.7.21-2.94,3-2.94,3a27.43,27.43,0,0,0,13.31,12.85c9.5,2,21.32,1.28,21.32,1.28s-7.55-14-7.43-15.14,6.76-10.31,6.76-10.31c-6.82-2-11.91,1.22-16.1,1.54A22.44,22.44,0,0,1,131,5.47c-.53,1.37.85,3.47.28,4.18S128.22,10.48,128.22,10.48Z"/><path class="cls-7" d="M153,4.66c-8.12,2.67-9.39,14.57-11.68,14.79-2.69.25-12.71-2.05-13.29-2-.27,0-3.29-.47-6.51-1l-.06.07a27.43,27.43,0,0,0,13.31,12.85c9.5,2,21.32,1.28,21.32,1.28s-7.55-14-7.43-15.14,6.76-10.31,6.76-10.31A16.11,16.11,0,0,0,153,4.66Z"/><path class="cls-8" d="M143.65,14.22l.4-.71s1-2.2.38-3.52-4.26-1.46-4.26-1.46-.84,2.43-.13,3.86S143.65,14.22,143.65,14.22Z"/><path class="cls-9" d="M117.6,78.2c7.94,4,3.35,21,3.35,21,12.17-3.53,7.58-24.16,18.16-23.45s13.76,17.63,13.76,17.63c8.46-17.1-3.18-36.67,8.64-33.85S181.78,72.2,181.78,72.2,164.5,43.29,141.41,39.94s-27.33-2.29-27.33-2.29l-13.23,1.76s7.94,6.7,8.82,16.22-11.46,23.8-11.46,23.8C106.85,80,109.67,74.14,117.6,78.2Z"/><path class="cls-9" d="M101.3,79.35A26.64,26.64,0,0,0,109.49,66c2.82-11.46-1.58-19.74,0-21.33s15.87,6.35,18,21.51-6.53,33-6.53,33,9.88-14.81,9.52-29.27-14.63-25-11.81-26.8,13.05-.35,22.92,12.87C149.45,66.52,152.17,85.8,153,93.19c.18-.38.36-.77.53-1.15.3-7.61.12-23.87-6.08-33.24-8.29-12.51-15.16-16.75-12-17.28s27,4.59,46.37,30.68c0,0-17.28-28.91-40.37-32.26s-27.33-2.29-27.33-2.29l-13.23,1.76s7.94,6.7,8.82,16.22-11.46,23.8-11.46,23.8A17.28,17.28,0,0,0,101.3,79.35Z"/><path class="cls-10" d="M108.7,69.21c2.38,0,5.46,4.67,5.46,4.67l-3.08-8.55-8.77.44c-.53.13-15,11.64-15,11.64l8.78,17.45,3.79-.44S97.37,92.83,97.77,91s2.42-.22,2.42-.22c-1.14-3.3-3.3-2.42-2.33-4.8a1.7,1.7,0,0,1,2.86-.8c-.57-3.08-2.56-4.49-.22-5.77a2.49,2.49,0,0,1,3.53.84c1.19-3.22-2.21-3.93.57-5.47a3.71,3.71,0,0,1,4.67.71c-.09-4.54-3.92-3.8-3.92-3.8S106.32,69.21,108.7,69.21Z"/><path class="cls-11" d="M159.17,105.44c-8.86-3.31-14.94,1.59-14.94,1.59l-3.44,2.77,3.83,29.1,3.57-.4s-5-4-2.64-8.33,8.33,5.55,8.33,5.55c-1.59-10.44-10.18-12.43-8.07-15.87s12.7.4,12.7.4c-4.76-6.08-14.94-2.12-13.36-8.46S159.17,105.44,159.17,105.44Z"/><path class="cls-12" d="M141.15,38.15l-6.84-5.79s-5,2.76-5.44,11.41,3.63,13.65,3.52,15.9,3.63,30.08,3.79,34,.48,12.44,1,16.59,4.32,43.3,6.4,46.93,4,7.52,4,7.52-.64-10.63.32-13.74-1.92-4.67-1.92-8.3.48-46.15.48-46.15S143.39,70,143.55,63,141.15,38.15,141.15,38.15Z"/><path class="cls-13" d="M18.47,312.17c5.41,0,63.32,6.7,63.32,6.7L249.48,322s76-8.81,79.55-8.81-14.32-9.17-14.32-9.17l39.78,2.82s-20.69-7.05-34.69-15.51-46.46-61.72-46.46-61.72,11.14,26.1,5.73,27.16-34.36-43.38-34.36-43.38,36.59,70.18,29,69.82-32.14-33.5-32.14-33.5l29.92,61.72-182-13.76s-37.86,10.23-52.5-6.7,4.77-69.11,4.77-69.11C26.1,235.65,13.06,312.17,18.47,312.17Z"/><path class="cls-14" d="M291.8,323.1c50.2-1.31,81.3,8.55,90.64,12-19.63-7.87-131-53.15-175.8-84-49.19-33.86-87-129.86-95.47-143.35S85.25,87.46,85.25,87.46L70.7,103.59C32.62,137.44,47.43,325.75,47.43,325.75s51.84,9.52,53.42,10.05-23.27,7.4-23.27,7.4l116.9,10.58s-44.43-19-2.12-17.45S311.9,355.9,311.9,355.9,231,324.69,291.8,323.1Z"/><path class="cls-15" d="M382.44,335.13l3,1.2S384.42,335.87,382.44,335.13Z"/><path class="cls-16" d="M176.53,352.16c-8.48-8.42-20.8-21.27-25.25-29.06-7.05-12.34-12.7-11.63-16.93-20.8s-4.93-12.35-5.29-19.05-7.4-6.7-9.16-16.57-1.42-9.17-6.35-18.34c-3.09-5.74-8.12-10-10.5-15.87-.6,13.65-.82,33.1,3.45,45.14,5.69,16.1,24.79,51,38.34,71.68Z"/><path class="cls-17" d="M46.83,316.94l1.47,9c3.65.67,18.15,3.34,31,5.74C72.14,309.34,53,247.6,51.66,221c-1.23-24.29,11.74-88.66,17.55-116C37.78,137.5,44.51,279.94,46.83,316.94Z"/><path class="cls-18" d="M102.62,219.43c-1.45,5.4-1,9.52.43,13C103.6,220.16,104.46,212.57,102.62,219.43Z"/><path class="cls-19" d="M93.1,280.43c-4.59-14.1-16.58-68.41-16.58-71.58s-.7,2.82-.35,20.1S93.8,330.51,93.45,331.57a14.47,14.47,0,0,0,1.46,3c3.39.65,5.63,1.1,5.94,1.21.47.15-1.39.87-4.24,1.8,1.25,2.18,2.81,4.83,4.56,7.74l2.67.24a51,51,0,0,0,7.24-12.25c3.17-7.05-8.82-15.52-14.11-23.28S97.68,294.54,93.1,280.43Z"/><path class="cls-20" d="M230.61,340.31c22.48,3.31,46,8,61.9,11.33-11.17-6.5-30.05-11-41.44-12.67-14.81-2.11-16.92-5.64-20.8-17.28s-55.72-53.6-55.72-53.6,26.8,36.32,35.62,50.43C214.21,325,222.53,333.21,230.61,340.31Z"/><path class="cls-21" d="M77.58,343.2l5.78.53c-.25-.69-.49-1.34-.7-2C79.7,342.62,77.58,343.2,77.58,343.2Z"/><path class="cls-22" d="M51.66,221c.39,16.54,3.84,75.57,5.71,106.57,10.39,1.92,26.49,4.9,35.92,6.7,1.35-1.81,2.7-3.7,4-5.66-5.41-20.95-11.49-42.78-13.9-45.19-4.76-4.76-6.88,38.09-17.46-13.75s-1.58-141.23-1.58-141.23S51.13,198.27,51.66,221Z"/><path class="cls-23" d="M77.58,343.2l7.84.71c1-1.19,2.18-2.5,3.35-3.9C83.1,341.68,77.58,343.2,77.58,343.2Z"/><path class="cls-24" d="M100.91,335.91c-.58.83-15.14,5-21,6.63l-.83.8,22.66,2.05,38.61,3.5,21.71,2a303.12,303.12,0,0,1-20.52-25.63C114.08,287.13,97.68,211,95.56,194,93.69,179,91,106.18,90.39,89.9L90,89.71l-.33-.17-.57-.29h0c-5.1,11.86-25.51,62.09-23.2,100.56,2.65,43.9,10.58,67.7,10.58,67.7s-2.64-25.92,6.35-29.62,17.45,48.66,23.8,69.29c1.89,6.14-6.77,22.32-18.27,36.17,6.87,1.3,12,2.29,12.45,2.45,0,0,.05,0,.06,0h0a.13.13,0,0,1,0,.06Z"/><path class="cls-25" d="M244.2,294.54c-6.35,3.17-25.92-9.52-25.92-9.52s-12.69-10.58,13.22,15.87c9,9.19,23.33,18.7,38.17,27.2,1.76-2.72,8.26-4.63,22.13-5a306.66,306.66,0,0,1,54.13,3.14l3-4.91c-42.12-17.77-109.8-47.78-142.33-70.16-39.65-27.29-71.91-94.95-87.36-127.24-5.82.95-9.47,1.68-10,1.87-2.65,1.06,12.16,37.56,12.16,37.56s63,77.23,79.34,95.74S250.55,291.37,244.2,294.54Z"/><path class="cls-26" d="M97.66,135c10,46.06,30.63,136.31,42.34,155.81,15.86,26.44,7.93-3.18,21.15,9.52s-6.34,38.61,24.34,52.36l.68.31,8.31.75s-44.43-19-2.12-17.45c9.41.35,20.56,1.51,32.19,3.11-15.5-13.25-32.34-28.54-35.36-34.85-5.82-12.17,15.87,2.64,15.87,2.64S179.67,276,171.73,266s-3.17,10-3.17,10S119,200.74,107.82,169.09C103.51,156.91,100.16,145,97.66,135Z"/><path class="cls-27" d="M97.66,135c-3.57-16.41-5.8-27.21-5.8-27.21S93.66,119,97.66,135Z"/><g class="cls-28"><path class="cls-29" d="M183.9,295.86a.15.15,0,0,0,0-.06C183.88,295.87,183.86,295.9,183.9,295.86Z"/><path class="cls-30" d="M224.63,275.5c18.25,5.82,22.48,11.9,22.48,11.9s.45-5.18,1.09-12.27c-16.23-8.34-30.81-16.57-41.56-24-27.66-19-51.73-57.74-69-90.36L81,154.1l-2.91,29.1s1.85-3.71,5-4.24,5.56,78,5.56,78,21.42-15.6,34.91-9,16.13,34.12,16.13,34.12,16.4-19,32-16.13c15.35,2.86,18.86,22.93,18,24.53C191.05,289,207.22,270,224.63,275.5Z"/></g><path class="cls-31" d="M234.5,276.91s8.11-16.22,1.06-56.07-44.43-71.59-74.05-84.28-65.59-24.33-72.29-21.51-1.06,10.58-1.06,10.58,2.11,109,3.17,122.36c0,0,20.81-14.1,37.38-8.46s13.4,28.56,13.4,28.56,15.16-21.86,32.8-18,15.51,31.38,15.51,31.38S213.34,249.4,234.5,276.91Z"/><path class="cls-32" d="M234.5,276.91s8.11-16.22,1.06-56.07-44.43-71.59-74.05-84.28c-18.92-8.11-40.43-15.78-55.25-19.54a86.58,86.58,0,0,0-20.3,3,12.73,12.73,0,0,0,2.2,5.56s.57,29.44,1.27,59.6c.6-21.35,2.19-39.86,5.78-43,9.17-8.11,43.33,55,48.66,77.76,5.82,24.86.64,37.31-1.2,47.36.53-.7,1.42-1.83,2.61-3.19,2.93-9.13,5.81-24.65,1.77-45-6.7-33.86-39.14-73.7-22.92-82.52s53.77,44.78,69.11,85.34c10.26,27.11.79,46.71-2.77,58.67,0,.59-.05.92-.05.92a44.58,44.58,0,0,1,3.11-3.72,89.9,89.9,0,0,0,6.41-43.53c-3.17-33.5-45.84-83.22-46.9-92s61.71,30.5,74.41,61.54S233.09,272,234.5,276.91Z"/><path class="cls-33" d="M83.53,63.92c-.79,6.61-12.43,24.59-15.34,34.51S64.62,121,64.62,121s4.89-18.77,15.74-24.59,19.7,4.23,19.7,4.23-3.57-11.24-2.65-16.4,13.76-18.38,25.13-20.36,23.8-13.76,23.8-16-14.81-17.19-16.79-17.59c0,0-16.93,6.08-24.07,5.29S96,33,96,33s-7.41,5-5.16,9.79,4.23,5,4.23,5S84.32,57.31,83.53,63.92Z"/><path class="cls-34" d="M92.65,59l-8.31,2.12a10,10,0,0,0-.81,2.78c-.6,5-7.5,16.67-12,26.31h9c4.46,0,11.26.16,17.13.13a20.64,20.64,0,0,1-.21-6.08c.93-5.16,13.76-18.38,25.13-20.36a26.23,26.23,0,0,0,3.95-1.05A33.18,33.18,0,0,0,118.31,61C99.8,59,88.69,72.12,86.17,70S92.65,59,92.65,59Z"/><path class="cls-35" d="M77,79.23C73.55,86,69.7,93.29,68.19,98.43,65.28,108.35,64.62,121,64.62,121s4.89-18.77,15.74-24.59,19.7,4.23,19.7,4.23-3.57-11.24-2.65-16.4c.37-2,2.54-5.25,5.73-8.57a36.35,36.35,0,0,0-7.18.11c-7.8.92-14.15,10.31-16.93,8.73s2.38-7.28,2.38-7.28Z"/><path class="cls-36" d="M176.9,144.51c-15.66,1-31,2.24-42.46,3.51-18,2-32.93,2.25-45.77,2.55.19,9.08.42,19.83.67,30.85,17,.9,45.87,5.32,58.85,24.26,0,0,18.25-19.58,33.06-22s33.33,14.55,33.33,14.55-1.6-11,1.33-19.47A145.3,145.3,0,0,0,176.9,144.51Z"/><path class="cls-37" d="M202,163.8c22.75.26,35.18,10.58,35.18,10.58s-5.82-10.84-26.45-25.13-70.88-36.49-87.81-40.73A60.5,60.5,0,0,1,96.18,94.24c-1.85-1.85-2.64-12.43-9.26-5.82s-14,82-14,82,13.75-10.58,34.91-1.32,28.56,32,28.56,32-3.17-29.62,18.78-25.39,46.55,23,46.55,23S179.23,163.54,202,163.8Z"/><path class="cls-38" d="M237.15,174.38s-5.82-10.84-26.45-25.13-70.88-36.49-87.81-40.73A60.5,60.5,0,0,1,96.18,94.24c-1.85-1.85-2.64-12.43-9.26-5.82s-14,82-14,82a14,14,0,0,1,1.21-.79c2.57-18.37,9.78-67.31,13.86-69,5-2.12,17.46,31.74,28.83,43.11,8.48,8.48,14.6,37.51,17.17,51.76.55,1.1,1,2.09,1.34,2.91-.16-8.14-1.14-24.63-6.08-39.07-6.88-20.1-24.33-33.58-24.07-44.16.22-8.62,69.2,56.27,94.79,80.65l-.15-.28c-24.25-23.52-86.3-83.69-88.24-85.37C113.84,111.39,202.84,135.36,237.15,174.38Z"/><path class="cls-39" d="M252.49,378.11c15.51-1.76,37.37,4.23,56.42,4.23l-13.4-4.23s-24-23.62-31-23.27-17.63,8.46-37.37-9.17-43-54.3-48.67-51.13,32.09,42.32,37.38,53.25S179.84,370,178.43,370s48.31,7.41,48.31,7.41S205.59,382,207,382s63.82,6.35,63.82,6.35S237,379.88,252.49,378.11Z"/><path class="cls-40" d="M382.34,351.37c6.81,2,11.55,3.47,11.55,3.47A65.61,65.61,0,0,0,382.34,351.37Z"/><path class="cls-41" d="M382.34,351.37c-7.81-2.31-18.36-5.37-27.59-7.82-17.28-4.58-12-8.11-22.57-12.34s-48.31.36-31,9.88,54,13,54,13L343.46,358c-11.63,3.88,34.21,11.29,34.21,11.29s-15.52-4.23-10.93-14.11C369.07,350.17,376,350.17,382.34,351.37Z"/><path class="cls-42" d="M38.08,302.3c-3.87,3.52-2.11,10.58-3.87,14.81S0,359.78,0,359.78s67.71,5.64,53.6,9.52-4.23,10.22-2.12,10.93,124.84,6.35,123.07,6S129.42,376,129.42,376l33.14-.36-24.33-13s-26.8-9.88-42-10.58-28.92,1.76-45.14-2.47S37,323.45,40.2,317.46,42,298.77,38.08,302.3Z"/><path class="cls-43" d="M142.9,161.38a4.79,4.79,0,0,0,4.37,2s-2.78-2-3.31-3.48l-3-2.78-2-3.26c-.31-.48-4-1.89-4.85-1.85a11.45,11.45,0,0,1-1.89-.09l5.2,17.41,7.36,1.33,6.57-.84a6.38,6.38,0,0,0-2.82-1.32,30.21,30.21,0,0,0-3.62.44l-3.43-1,3.52.44,4.89-1.76a5.17,5.17,0,0,0-2.73-.8,9,9,0,0,0-3,1l-3-.84-1.54-3.43.4-2.87A30.92,30.92,0,0,1,142.9,161.38Z"/><path class="cls-44" d="M138.33,157.59c-.29-1.11-5.34-4.72-5.34-4.72l-.22,9.37s2.38,5.17,3.27,6,5.44,3.76,5.44,3.76,7.51,0,10.42.81a7.66,7.66,0,0,0-2.46-2c-1.41-.67-6.71-.67-6.93-.67s-3.95-3.92-3.95-5A61.88,61.88,0,0,0,138.33,157.59Z"/><path class="cls-45" d="M146.21,108.88c-8.86-3.31-14.94,1.58-14.94,1.58l-3.44,2.78,3.83,29.09,3.57-.39s-5-4-2.64-8.33,8.33,5.55,8.33,5.55c-1.59-10.45-10.18-12.43-8.07-15.87s12.7.4,12.7.4c-4.76-6.08-14.94-2.12-13.36-8.47S146.21,108.88,146.21,108.88Z"/><path class="cls-46" d="M128.19,41.59l-6.83-5.8s-5,2.77-5.45,11.41,3.63,13.66,3.52,15.91,3.63,30.07,3.79,34,.49,12.45,1,16.6,4.32,43.3,6.41,46.93,4,7.52,4,7.52-.64-10.63.32-13.74-1.92-4.67-1.92-8.3.48-46.15.48-46.15-3-26.45-2.88-33.45S128.19,41.59,128.19,41.59Z"/><path class="cls-47" d="M127.3,71c7.93,4,3.35,21,3.35,21,12.17-3.53,7.58-24.15,18.16-23.45s13.75,17.63,13.75,17.63C171,69,159.39,49.46,171.2,52.28S191.48,65,191.48,65,174.2,36.06,151.1,32.71s-27.33-2.29-27.33-2.29l-13.22,1.76s7.93,6.7,8.82,16.22-11.46,23.8-11.46,23.8C116.55,72.73,119.37,66.91,127.3,71Z"/><path class="cls-48" d="M111,72.12a26.71,26.71,0,0,0,8.19-13.32c2.82-11.46-1.59-19.74,0-21.33s15.87,6.35,18,21.51-6.52,33-6.52,33,9.87-14.81,9.52-29.27-14.63-25-11.81-26.8,13-.35,22.92,12.87c7.87,10.54,10.59,29.82,11.37,37.21.18-.38.36-.77.53-1.15.3-7.61.12-23.87-6.08-33.24-8.29-12.51-15.17-16.75-12-17.27s27,4.58,46.37,30.67c0,0-17.28-28.91-40.38-32.26s-27.33-2.29-27.33-2.29l-13.22,1.76s7.93,6.7,8.82,16.22-11.46,23.8-11.46,23.8A17.28,17.28,0,0,0,111,72.12Z"/><path class="cls-49" d="M0,359.78s15.54,1.29,30.17,3.07c-3.68-10-.2-28.9-.2-28.9l-9.25,13.22s3.08-9.6,6.64-20.65C17.34,339.23,0,359.78,0,359.78Z"/><path class="cls-50" d="M53.6,369.3c-14.11,3.88-4.23,10.22-2.12,10.93,1,.35,31.25,1.89,61.47,3.32-8.21-9.85-30-5.11-38-10.73-9-6.34,25.13-4.23,25.13-4.23s-2.91-3.17-17.46-4.76C74.76,363,64.44,365.58,55,367.5,56,368.12,55.67,368.73,53.6,369.3Z"/><path class="cls-51" d="M179,369.89l0,.26c5.82,1,47.66,7.26,47.66,7.26S205.59,382,207,382s63.82,6.35,63.82,6.35-33.85-8.46-18.33-10.23a60.52,60.52,0,0,1,8.42-.29,73.85,73.85,0,0,0-9.84-6.58C234.41,362,230.71,376,223.83,355.9c-4.59-13.42-27.81-38.28-42.73-53.32,8.44,12.84,30.74,37,34.71,45.21C220.8,358.1,184.36,368.73,179,369.89Z"/><path class="cls-52" d="M9.08,261c0-5.82,6.61-19,1.85-16.4S5.11,266,5.11,266s-1.32,5.55,1.33,7.4S9.08,266.77,9.08,261Z"/><path class="cls-53" d="M18.2,255.93C23,253,28.52,230.4,25.08,226.3s-6.21,1.19-5.69,11.24-4.62,15.21-4.62,15.21S13.44,258.83,18.2,255.93Z"/><path class="cls-54" d="M10.8,330.51s10.18-2.38,13-10.58-3.18-5.82-6.35-1.72S2.47,328.26,2.6,332.09,10.8,330.51,10.8,330.51Z"/><path class="cls-55" d="M37.91,284.89c3.44-2.78,1.85-6.62-.27-5.16s-4.23,6.35-4.23,6.35-6.35,9.25-4.1,11.5S34.47,287.66,37.91,284.89Z"/><path class="cls-56" d="M170.32,364.89s9.17-.35,7.94-4.76-26.45-4.41-32.8,1.06S169.79,365.07,170.32,364.89Z"/><path class="cls-57" d="M167.77,309.61s6.34,5.56,10,3.44-21.16-18.78-26.19-27.24-11.37-11.37-10-2.11S167.77,309.61,167.77,309.61Z"/><path class="cls-58" d="M235.21,185.93c-.71,7,24.68,27.5,24.68,27.5S235.91,178.88,235.21,185.93Z"/><path class="cls-59" d="M280,218.37c-.7,4.94,14.46,29.27,14.46,29.27S280.7,213.43,280,218.37Z"/><path class="cls-60" d="M306.79,324.51c.35-5.64-30-22.21-35.35-13S299.74,327,299.74,327,306.44,330.15,306.79,324.51Z"/><path class="cls-61" d="M140.32,9.36c-.51,2,2.87,4.55,2.87,4.55A8.39,8.39,0,0,0,140.32,9.36Z"/><path class="cls-62" d="M276.46,176.76c-5.64,2.47,7.76,26.09,7.76,26.09S282.11,174.29,276.46,176.76Z"/><path class="cls-63" d="M314.73,232.3c1.76-8.11.52-13.58,0-12.17s-3,11.46-3,11.46c-.18.71-7.58,16.58-15.69,19s-11.82,8.64-5.29,8.81S313,240.41,314.73,232.3Z"/><path class="cls-64" d="M289.86,270.21c10.58-3.71,18.69-15.87,18.69-15.87l-2.82,1.41s-14.46,9-24.86,11.46S279.29,273.91,289.86,270.21Z"/><path class="cls-65" d="M292.16,244.29l-6.17.53c-.71.17-21.16,2.29-16.93,5.29S292.16,244.29,292.16,244.29Z"/><path class="cls-66" d="M314.73,183.28c1.76,9.52,2.64-3,1.93-7.05s1.94-9.87,2.47-14.63-3.7-7.59-3.35-4.94a38.33,38.33,0,0,1-.17,7.23S313,173.76,314.73,183.28Z"/><path class="cls-67" d="M321.43,160v6s-3.18,7.41-.36,10.58S321.43,160,321.43,160Z"/><path class="cls-68" d="M231,117.52c4.24,5.11,8.29-2.3.53-14.81s-16.22-8.11-16.22-8.11-8.28,5.46,1.94,8.64S226.74,112.4,231,117.52Z"/><path class="cls-69" d="M200.47,81.9c-.53-5.82-8.28-7.4-8.28-7.4a4.87,4.87,0,0,0-4.06-.89C185.66,74.14,201,87.72,200.47,81.9Z"/><path class="cls-70" d="M253.37,44.35l-14.28-6.88S248.08,47.52,253.37,44.35Z"/><path class="cls-71" d="M284.4,90.89s2.82,19,9,19S284.4,90.89,284.4,90.89Z"/><path class="cls-72" d="M290.22,212.29c-1.72-.53-2.12,3.3-2.12,3.3-.4.4-4.36,11.11.79,11.11S291.94,212.82,290.22,212.29Z"/><path class="cls-73" d="M316,214.4c1.19.93,2.25-1.05,2.25-6.74s-3.17-4.23-3.17-4.23l1.58,6.21S314.81,213.48,316,214.4Z"/></g></g></svg>