<svg xmlns="http://www.w3.org/2000/svg" viewBox="0 0 261.35 282.53"><defs><style>.cls-1{fill:#846528;}.cls-2{fill:#35302a;}.cls-3{fill:#492e0e;}.cls-4{fill:#7a542e;}.cls-5{fill:#66431d;}.cls-6{fill:#b7883e;}.cls-7{fill:#544c43;}.cls-8{fill:#7c3a82;}.cls-9{fill:#726a61;}.cls-10{fill:#845c35;}.cls-11{fill:#7c6141;}.cls-12{fill:#141414;}.cls-13{fill:#bc9668;}.cls-14{fill:#604e00;}.cls-15{fill:#eabe83;}.cls-16{fill:#cea26b;}.cls-17{fill:#6b543a;}.cls-18{fill:#a58604;}.cls-19{fill:#d1ab0d;}.cls-20{fill:#b2920b;}.cls-21{fill:#ffd91f;}.cls-22{fill:#f2b12f;}.cls-23{fill:#ba7d11;}</style></defs><title>earth_guard</title><g id="Layer_2" data-name="Layer 2"><g id="Capa_1" data-name="Capa 1"><path class="cls-1" d="M143.33,260.33a29.51,29.51,0,0,1-.61,6.16,19,19,0,0,1,2.94-2.81c1.16-.78-3,5.15-2.72,9,0,0,2.59-6.57,5.31-4.12s-3,4.77-1.81,7.34,3,2.84,3,2.84-1.41-5.28,4.41-3.63c.6,2.72,1.33,5.45,1.33,5.45h21.08a103,103,0,0,0-6.85-8.08,8.77,8.77,0,0,0,1.49-4.05,6.5,6.5,0,0,0-2.33-4.76,15.92,15.92,0,0,0-1-6.44L166.22,254a8.58,8.58,0,0,0-.39-6.57,27.61,27.61,0,0,0-3.5-5.23,22.35,22.35,0,0,0,1.25-4.81c.23-2.42-2.68-9.22-3-10l3.18-23.71,2.49-5.7-4.06-25.64-15.3,13.68,7.64,50.41a29.68,29.68,0,0,0-.3,3.5,7,7,0,0,0,.8,3.41c-3.06,1-8.58,3.38-8.58,6.63a9.64,9.64,0,0,1-3.5,7l4.59-1.9C147,255.31,143.33,257,143.33,260.33Z"/><path class="cls-2" d="M168,258.6l-24.45.45a4.4,4.4,0,0,0-.19,1.28,29.51,29.51,0,0,1-.61,6.16,19,19,0,0,1,2.94-2.81c1.16-.78-3,5.15-2.72,9,0,0,2.59-6.57,5.31-4.12s-3,4.77-1.81,7.34,3,2.84,3,2.84-1.41-5.28,4.41-3.63c.6,2.72,1.33,5.45,1.33,5.45h21.08a103,103,0,0,0-6.85-8.08,8.77,8.77,0,0,0,1.49-4.05,6.5,6.5,0,0,0-2.33-4.76A16.15,16.15,0,0,0,168,258.6Z"/><path class="cls-1" d="M22.26,221.15c.54-.15.44-.19,0,0Z"/><path class="cls-3" d="M43.71,233.73c13.48-3.06,6.65-23.56,6.65-23.56l-6.83-1.61-16-5.94S2.89,212.69,8.28,226.72s2,19.24,2,19.24,2,2.33,3.42-5.22,0-18.16,6.83-19.24a14.66,14.66,0,0,0,1.75-.35c.44-.19.54-.15,0,0-1.4.61-6.24,3.62-4.81,13.3,2.16,14.56,8.1,15.46,16.91,14.38,0,0-14.39-1.25-7.55-10.42S36.52,228,36.52,228s-11.69,18.52,4.31,15.64C40.83,243.62,30.22,236.79,43.71,233.73Z"/><path class="cls-4" d="M14.86,232.17c-10.31,1.58-16.18,4.3-14.61,9.74,0,0,2.58-6.3,18.62-3.29s15.6-15.75,15.6-15.75,3.44,13.89-3.15,17.32c0,0,8.59.57,11.6-11.31l3-11.88-.57,12s6,.15,8.88-17,.86-21.33.86-21.33l-20.62-1.44s-24,3.15-21.47,17.9,1.57,20.19-2.58,19.61c0,0,1.43,5,5.87-2.29S19.87,214,19.87,214,25.16,230.6,14.86,232.17Z"/><path class="cls-3" d="M15.12,192.37c-8.45-4.13-10.07,11.51-9.89,11s3.77-9.71,9-6.29,9.35.9,9.35.9-3.42,5.57-9.17,3.77-11.15,8.09-6.84,13.49c0,0-1.61-7.91,6.48-6.65s13.48.71,15.82-3.78c0,0,1.08,9.35-7,7.91S9.54,218.8,15.3,225.46c0,0-2.34-8.27,6.11-7.55s12.05-2,15.82-7.56c0,0-8.45,13.49-15.46,13.31s-5,19.42,10.61,17.8c0,0-11.51-5.93-5.22-10.07s14.39,1.8,20.68-15.46,5.22-22.84,5.22-22.84l10.68-36.24c-.81,0-20.77-4.32-27.24,5.13s-3,29.13-17,25.08l-.52-.15c.52.68,3.5,4.12,8.54,1.69C27.52,188.6,23.57,196.51,15.12,192.37Z"/><path class="cls-5" d="M15.12,192.37c-8.45-4.13-10.07,11.51-9.89,11s3.77-9.71,9-6.29,9.35.9,9.35.9-3.42,5.57-9.17,3.77-11.15,8.09-6.84,13.49c0,0-1.61-7.91,6.48-6.65s13.48.71,15.82-3.78c0,0,1.08,9.35-7,7.91S9.54,218.8,15.3,225.46c0,0-2.34-8.27,6.11-7.55s12.05-2,15.82-7.56c0,0-8.45,13.49-15.46,13.31s-5,19.42,10.61,17.8c0,0-11.51-5.93-5.22-10.07s14.39,1.8,20.68-15.46c-7.91,10.25-13.48,2-13.48,2,9.35-8.82,6.29-14.93,6.29-14.93-3.42,8.81-7.12,5.12-7.12,5.12,7-4,6.48-16.72,5.94-32.64-.46-13.52,15.24-18.08,20.47-19.15-6.3-.77-18.62-1.37-23.44,5.67-6.48,9.44-3,29.13-17,25.08l-.52-.15c.52.68,3.5,4.12,8.54,1.69C27.52,188.6,23.57,196.51,15.12,192.37Z"/><path class="cls-6" d="M88.7,195.17l-26.2-13.7L57.33,257s15.17,20.71,19,23.26,13.79-.95,13.79-.95C88,268.79,76.23,267,76.23,267l-7.18-25.9v-3.18Z"/><path class="cls-7" d="M90.08,279.31C88,268.79,76.23,267,76.23,267l-1.83-6.63L60,260.6c4.53,6,13.5,17.78,16.29,19.66C80.08,282.81,90.08,279.31,90.08,279.31Z"/><path class="cls-1" d="M64,210.17c2.16-.72,38.84-6.83,38.84-6.83l-24.1-19.78Z"/><path class="cls-3" d="M69,240.67l-6.25,3.23L62,257.16s11.9,21,13.32,16.73,7.5-4.55,7.5-4.55L78.19,267a42.3,42.3,0,0,1-.25-5.73c0-4.18-3.24-7.53-3.24-7.53a5.83,5.83,0,0,0,.39-2.27c0-1.43-2.46-3.47-2.46-3.47a5.21,5.21,0,0,0,.26-1.91C72.89,244.73,69,240.67,69,240.67Z"/><path class="cls-2" d="M83.35,278c1-5-11.64-7.89-12.42-7.89-.15,0-.49-1.28-.94-3.33l-2.27.32c2.55,6.47,4.51,11.37,4.51,11.37S82.31,283,83.35,278Z"/><path class="cls-1" d="M91.36,196.21l-23-19.36S56.19,234,56.19,236.13c0,1.4,6.79,18.88,11.53,30.93l2.27-.32c-1.84-8.42-5.52-29.9-5.52-29.9L77.4,204.1Z"/><path class="cls-8" d="M154.66,128.54s-1.59.5-3.92,1A7.79,7.79,0,0,0,154.66,128.54Z"/><path class="cls-3" d="M163.67,126.17a1.86,1.86,0,0,1,0-.55S163.11,125.85,163.67,126.17Z"/><path class="cls-1" d="M64.28,224.56l10-27.25s34.53,14.84,54.76,14.57c17.65-.24,30.77-11.55,39.21-21.41,4.37-7.87,8.59-17.39,10.09-26.22,1.89-11.1-8.7-21.34-12-31.93l-19.44,14.82-11.06-.27s-23.74,8.09-31.56,7c0,0-27-5.12-38-3.77s-27.24,27.24-26.7,37.22,19.15,37.23,19.15,37.23Z"/><path class="cls-1" d="M77.35,195.32l-13.42-5.88-9.92,22-1.16,29.91s8.46,36.56,10.79,39.37,19.55,1.54,19.55,1.54L70.93,268.18,62.76,243.9a23.3,23.3,0,0,0,1.46-6.14,11.91,11.91,0,0,0-.58-3.84l6.13-23Z"/><path class="cls-7" d="M83.19,282.25,70.93,268.18l-2.6-7.74-10.79.2c2.36,9.28,5,18.7,6.1,20.07C66,283.52,83.19,282.25,83.19,282.25Z"/><path class="cls-6" d="M57.77,240.31l1.81,6.57,8.1,11.62-4.92-14.6a23.3,23.3,0,0,0,1.46-6.14,11.91,11.91,0,0,0-.58-3.84l6.13-23,3.71-7.63-5.13,3.92S66.8,201,64,202.9,60.33,216.05,62.66,223s-1.4,11-1.4,11l-1.94.36.64,4.42-1.81-3.82Z"/><path class="cls-9" d="M72,273.17c1.86,1.06,4.51,5.3,6.71,9.3,2.6-.09,4.49-.22,4.49-.22L70.93,268.18l-.48-1.42c-6.39,1.94-4,10.23-4,10.23S68.24,271,72,273.17Z"/><path class="cls-10" d="M48.44,267.07s3.11,1.2,4.14-2.74c0,0-.13,4.9-2.84,6.33,0,0,4.13.84,5.68-2.39,0,0,.13,3.46-1.94,4.3s-.9,3.59-.9,3.59A2.49,2.49,0,0,1,55,273.77c2.45-.24,4.52-1,5.81-3.35,0,0-.74,4.66-2.8,4.9s-1.12,2.79-1.12,2.79a6,6,0,0,1,5.34-2.63c3.71.16,4.83-7.57,7.76-6.93s3.79,3.82,3.79,3.82A7.93,7.93,0,0,0,76.23,267c-.08-3.11-3.88-5-3.88-5a9.58,9.58,0,0,0,0-3.91c-.43-2.23-3.1-3.5-3.1-3.5a20.6,20.6,0,0,0-2.15-4.78,26,26,0,0,1-1.47-2.15L63.05,242s-.95,4.14-3.8,3.35-4.34-3.87-4.34-3.87-6.21,6.1-5,13.62l1.56-2.86s-2.85,6.21-1.17,9.56S48.44,267.07,48.44,267.07Z"/><path class="cls-5" d="M48.44,267.07s3.11,1.2,4.14-2.74c0,0-.13,4.9-2.84,6.33,0,0,4.13.84,5.68-2.39,0,0,.13,3.46-1.94,4.3s-.9,3.59-.9,3.59A2.49,2.49,0,0,1,55,273.77c2.45-.24,4.52-1,5.81-3.35,0,0-.74,4.66-2.8,4.9s-1.12,2.79-1.12,2.79a6,6,0,0,1,5.34-2.63c3.71.16,4.83-7.57,7.76-6.93s3.79,3.82,3.79,3.82A7.93,7.93,0,0,0,76.23,267a4.39,4.39,0,0,0-.85-2.42c-5.11-3.31-12.1,2.58-12.1,2.58.08-3.75,2.93-4.55,7.32-5a3.51,3.51,0,0,0,1.85-.7,10.09,10.09,0,0,0-.1-3.37,5,5,0,0,0-2.1-2.89c-.36,1.89-1.36,5-4.13,4.57-4-.56-4.91,4.78-4.91,4.78s-.43-4.62,2.32-5.5,1.56-4.3,1.56-4.3-1.47,3.58-4,3.58-2.5,4.7-2.5,4.7-.78-5.33,1.9-6.13,2.84-4.06,2.84-4.06-1.55,2.62-3.88,2.62S56,260.26,56,260.26a7.85,7.85,0,0,1,4.57-7.8c1.55-.64.77-2.63.77-2.63a2.67,2.67,0,0,1-2.67,2,3.08,3.08,0,0,0-2.93,1.59c-1.23-2.84.55-6.3,2.2-8.64a8.68,8.68,0,0,1-3-3.27s-6.21,6.1-5,13.62l1.56-2.86s-2.85,6.21-1.17,9.56S48.44,267.07,48.44,267.07Z"/><path class="cls-1" d="M141,239.33s7.49-37,8.12-42.44-17.18-12.53-17.18-12.53-2.19,16.8-1.25,19.65a22.52,22.52,0,0,0,2.81,5.41l-1.25,35.33Z"/><path class="cls-1" d="M140.39,243.82c3.05-1.92.47-10,.24-11.75h-7s-2.81,10.26-2.81,12.82v2.57s-2.34,14.1-3.51,16.66-.94,17.09.47,17.09h16.86s-5.62-10-6.09-12.82,0-1.92-.7-4.48l-.7-2.57S137.35,245.75,140.39,243.82Z"/><path class="cls-7" d="M128.57,259.33a32.93,32.93,0,0,1-1.29,4.79c-1.17,2.56-.94,17.09.47,17.09h16.86s-5.62-10-6.09-12.82,0-1.92-.7-4.48l-.7-2.57s0-.85.07-2.17Z"/><path class="cls-6" d="M139.39,235.63l-3.13,4.56h3.31l1.38-.86s7.49-37,8.12-42.44c.2-1.73-1.49-3.64-3.87-5.43.15,3.41.31,8.28.12,10.56C145,205.72,139.39,235.63,139.39,235.63Z"/><path class="cls-6" d="M168.23,190.46c4.2-7.56,8.26-16.64,9.9-25.18l-12.42,18.28,6.2-1.62-23.36,24.87C156.71,202.55,163.28,196.26,168.23,190.46Z"/><path class="cls-1" d="M139.36,204.63,128.3,177.86s2.7,44,6.48,50.56l3.77,6.55Z"/><path class="cls-10" d="M121.35,258.91c-3.88,1-3.49,6.31-3.49,6.31s1.42-3.22,3-3.22a6.11,6.11,0,0,0,2.6-.64c-1.19.66-6.38,3.9-4.54,9.27,0,0,1-4.63,3.88-3s-4,4.9-1.3,9c0,0,2.46-2.32,3-2.84s-2.85,4.64-1.3,6.06,4.59,1.3,4.59,1.3-.45-9.42,3.3-12.25,7.76.9,7.76.9,2.07-2.7,2.07-5a5.63,5.63,0,0,0-1.17-3.61s2.72-2.83,2.2-4.38-.9-2.58-.9-2.58,2.45-2.7,1.68-4.25a4.55,4.55,0,0,0-1.94-2.06s2.32-2.7,1.42-4.25-2.07-.64-3.23,1a7.57,7.57,0,0,0-.68,1.25,5.06,5.06,0,0,1-1.26-.22c-3.24-.9-5.17-5.67-5.17-5.67s-2.85,1-4.14,5-2.33,9.14-5.43,9c0,0,.52,1.29,3.1.13A5.21,5.21,0,0,1,121.35,258.91Z"/><path class="cls-5" d="M121.35,258.91c-3.88,1-3.49,6.31-3.49,6.31s1.42-3.22,3-3.22a6.11,6.11,0,0,0,2.6-.64c-1.19.66-6.38,3.9-4.54,9.27,0,0,1-4.63,3.88-3s-4,4.9-1.3,9c0,0,2.46-2.32,3-2.84s-2.85,4.64-1.3,6.06,4.59,1.3,4.59,1.3-.45-9.42,3.3-12.25a5.24,5.24,0,0,1,5.49-.53,6.83,6.83,0,0,0-.62-1.4c-1.81-3-8.71,2.15-8.71,2.15s.43-5.67,4.22-5.59,4.83-5,4.83-5a3.34,3.34,0,0,1-4.31,2.15c-3.27-1-5.86,1.54-5.86,1.54s.43-4.2,4.4-4.89,5.77-5.24,5.77-5.24-4.91,3.69-5.43-.26c-.33-2.51,1.89-5.79,3.55-7.84a14.29,14.29,0,0,1-2.55-4s-2.85,1-4.14,5-2.33,9.14-5.43,9c0,0,.52,1.29,3.1.13A5.21,5.21,0,0,1,121.35,258.91Z"/><path class="cls-10" d="M159.24,120.53c4.11,1.53,10.68-1.6,12.58-5.71a4.12,4.12,0,0,1,1.21-1.47c-10,3-11.87,7-16.58,4.58a5.14,5.14,0,0,0,1.4,2C158.27,120.14,158.74,120.34,159.24,120.53Z"/><path class="cls-3" d="M162.33,242.22c.21-.6.44-1.27.64-1.95l-.13,0Z"/><path class="cls-3" d="M143.33,260.33a29.51,29.51,0,0,1-.61,6.16,19,19,0,0,1,2.94-2.81c1.16-.78-3,5.15-2.72,9,0,0,2.59-6.57,5.31-4.12s-3,4.77-1.81,7.34,3,2.84,3,2.84-1.41-5.28,4.41-3.63c.34,1.51.71,3,1,4.07,2.46-4.26,5.83-9.7,7.39-10.48s5,1.67,7.26,3.66a8.57,8.57,0,0,0,1.42-3.93,6.5,6.5,0,0,0-2.33-4.76,15.92,15.92,0,0,0-1-6.44L166.22,254a8.58,8.58,0,0,0-.39-6.57,27.61,27.61,0,0,0-3.5-5.23s1.66,2.6-.47,3.26c-1.43.44-4.87-1.2-7-2.32a1.61,1.61,0,0,0,.12.23c-3.06,1-8.58,3.38-8.58,6.63a9.64,9.64,0,0,1-3.5,7l4.59-1.9C147,255.31,143.33,257,143.33,260.33Z"/><path class="cls-5" d="M155.56,259.63c-3.44,1.11-1.6,6.26-1.6,6.26s-.73-3.56,4.42-3.68,5.4-3.19,5.4-3.19.74,5-3.31,6c-2.33.57-2.51,4.75-2,8.2,1.5-2.27,2.89-4.09,3.75-4.52,1.63-.81,5,1.67,7.26,3.66a8.57,8.57,0,0,0,1.42-3.93,6.5,6.5,0,0,0-2.33-4.76,15.92,15.92,0,0,0-1-6.44L166.22,254a8.58,8.58,0,0,0-.39-6.57,27.61,27.61,0,0,0-3.5-5.23s1.66,2.6-.47,3.26c-.79.24-2.2-.15-3.65-.74l-3,9.86,4.17-2.21S159,258.53,155.56,259.63Z"/><polygon class="cls-11" points="114.96 61.85 113.26 65.53 108.98 63.99 110 66.55 112.47 69.63 110.88 69.39 112.98 72.34 111.34 71.68 113.62 74 112.79 74.97 116.37 76.26 119.31 84.04 120.63 82.75 117.78 75.87 119.56 72.21 118.24 73.42 118.56 71.12 118.04 69.1 116.82 71.08 117.33 68.23 116.79 66.05 115.85 66.86 116.19 65.43 114.96 61.85"/><polygon class="cls-11" points="124.56 60.47 121.95 63.58 118.22 60.98 118.54 63.71 120.12 67.33 118.65 66.69 119.91 70.08 118.5 69.01 120.1 71.84 119.04 72.57 122.17 74.75 122.98 83.03 124.58 82.12 123.63 74.74 126.3 71.66 124.71 72.49 125.61 70.35 125.64 68.27 123.94 69.86 125.18 67.25 125.23 64.99 124.11 65.53 124.81 64.24 124.56 60.47"/><path class="cls-12" d="M154,138.26,130.37,72.79l-14.58,5.53s24.53,60.81,24.45,62Z"/><path class="cls-13" d="M239.85,80.83a42.51,42.51,0,0,0-4.8,2.27c-.09.17-4.63,3.44-1.88,5.84s9.72-.08,9.72-.08l-1.36-5.63C241.75,82.69,240,80.9,239.85,80.83Z"/><path class="cls-14" d="M243.85,84.78l-.63-2.25C228.26,20.79,170.85,0,170.85,0c58.24,34.37,67.4,81.21,67.4,81.21l1.42,6.57s8.07,47-34.18,99.85C205.49,187.63,251.78,147.82,243.85,84.78Z"/><path class="cls-15" d="M239.81,86.48s-2-5.82-2.76-6.36-4,3.13-4,3.13l.49,5.11c3.72-.07,3.35-6,3.35-6l2.5,4.1Z"/><polygon class="cls-16" points="141.9 116.92 131.85 141.51 172.74 148.13 165.58 116.73 141.9 116.92"/><path class="cls-15" d="M212.52,94.32l13.92-3.83c.46-.14.29-7.07.29-7.07l-14.85,0s-.13-.45-6.81-1.52-13.37,3.68-13.37,3.68l-.5,7.84C196.54,100.31,212.52,94.32,212.52,94.32Z"/><path class="cls-11" d="M158.77,61c4.22-5.35-3.92-8.64-3.92-8.64l-3.83,13S154.55,66.36,158.77,61Z"/><path class="cls-11" d="M135.12,53.61c-1.91,3.08.3,6.86.3,6.86l1.69,3.22,11-3.46s5.22.28,7.83-6.12-5.31-7.33-5.31-7.33c-4.17-2.74-6.55.48-6.55.48s-1-1.06-3.55-.41-2.31,4-2.31,4S137,50.53,135.12,53.61Z"/><path class="cls-11" d="M133.12,83l16.72,2.58a5.5,5.5,0,0,0,.65-1.57c.15-.76,1-7.72,1.51-12.39s-1.28-14.88-1.28-14.88a80.66,80.66,0,0,0-12.25,2.94c-5.95,2-1.84,7.68-1.84,7.68-3.2,1.31-1.66,4.44-1.66,4.44C129.41,73.52,133.12,83,133.12,83Z"/><path class="cls-17" d="M182.38,153.68l-10.95-19.61L162,132.93l-21-4.3L132.41,142l-7.77,13L161,173.16S174.22,152.28,182.38,153.68Z"/><path class="cls-16" d="M166.94,90.62c0-7.86-12.65-13.1-22.09-13.41s-21.48,11.12-21.48,11.12L151.93,100C159,100.4,166.94,98.48,166.94,90.62Z"/><path class="cls-16" d="M152.35,62.34c-.41,0-9-2.79-10.62-.54s-2.38,25.26-2.38,25.26l17.62,7c.32,0,5.41-3.13,5.41-3.13S152.76,62.32,152.35,62.34Z"/><path class="cls-15" d="M192.42,97.55c3.44-1.31,5.64-3.18,6-6,.6-4.32-4.52-6.25-4.52-6.25-8.38-5.54-14.6-1-14.6-1-12-8.88-28.18-1.79-28.18-1.79l8.64,11.33,8.82,3.88C175.42,100.76,187.3,98.67,192.42,97.55Z"/><path class="cls-16" d="M168.62,97.77c6.8,3,18.68.9,23.8-.22a11.8,11.8,0,0,0,4.44-2.72,27.81,27.81,0,0,1-2.63-5.41s-.56,3.47-5.23,4-9.67-2.21-9.67-2.21c-3.16-4.71-23.51-9.62-26.07-9.33l.64,4.23,5.9,7.74Z"/><path class="cls-15" d="M136.12,114.21c2,1.56,3.89,19,7.34,11.85l23.51,4.6s8.15-26.8,4.85-37.86-45.88-12.24-47.17,0C124.65,92.77,126.64,106.84,136.12,114.21Z"/><path class="cls-16" d="M163.6,104.06a31.12,31.12,0,0,1,8.67,1.41c0-.27,0-.54.08-.8l-1.91-1.11c-12-6.94-21.25,2.12-27.13.06-4.1-1.45-8.28-11.74-10.42-17.8-4.65,1.42-7.9,3.71-8.24,7,0,0,2,14.07,11.47,21.44,2,1.56,3.89,19,7.34,11.85L157,128.71c-1-2-2.93-5.47-3.28-9.42-.53-5.93,8.06-12.22,8.06-12.22A14,14,0,0,0,147.87,114l-.1-2.63C147.67,108.76,152.16,103.81,163.6,104.06Z"/><path class="cls-15" d="M122.68,114.16a60.56,60.56,0,0,0,6.4-4.88c1.11-1.13,2.1-2.3,2.95-3.35a18.57,18.57,0,0,0,2.72-7.54s7-14.47,13.88-12.8c0,0-10.15-4.39-19-4.27S119.23,88,119.23,88s-6,4.67-8.1,10.33c-.36,1-.8,2.11-1.26,3.3a43,43,0,0,0-.57,5.18c-.32,6.87,1.34,5.84,8.67,7.89A6.89,6.89,0,0,0,122.68,114.16Z"/><path class="cls-16" d="M126.64,85.91c5.1-3.49,12.23-2.28,16.36-2.33a46,46,0,0,0-13.4-2.26c-8.88.12-10.37,6.72-10.37,6.72s-6,4.67-8.1,10.33c-.36,1-.8,2.11-1.26,3.3a43,43,0,0,0-.57,5.18c-.32,6.87,1.34,5.84,8.67,7.89a6,6,0,0,0,2.92,0c-3.33-.72-7.57-2.59-6.56-7.45,1.31-6.24,10.07-12.91,21.72-8.12.19-.32.4-3.9.62-4.26-6.49-1.38-16.15,1-16.15,1S118.28,91.62,126.64,85.91Z"/><path class="cls-18" d="M164.8,133.33s8.68,18.13,9.75,28l7,2.28s-5.77-24.54-14.46-30.92l-10.32-.13-17.87-3.47s-16.15,15.34-21.28,25.24l-1,4.25,8.23-.21s12.89-25.69,18.61-26.34,2,.63,2,.63-15,17.14-16.39,28.1l3.54,6.55,7-3.44s4.3-24,10.95-28.61,1.23-.63,1.23-.63l-7.29,29.48,4.27,6.73,6.4-4.82,2.67-32.13s4.86,16,4,29.24l5.06,5.37,4.74-5.68s-3.72-21.43-8.2-26.66S164.8,133.33,164.8,133.33Z"/><path class="cls-19" d="M172.07,134.15l-4.25-5s-3.7,2.5-11.93,1.57-17.51-5-17.51-5l-3,6s12.81,6.19,19.47,6.61S172.07,134.15,172.07,134.15Z"/><path class="cls-20" d="M138.38,125.76l-3,6s11.82,5.71,18.65,6.53c-1.92-2.29-4.21-5.57-4.84-8.84A83.17,83.17,0,0,1,138.38,125.76Z"/><path class="cls-15" d="M150.64,88.35,163,89.54s-10.28-29.48-10.63-29.76,2.55,24.6,2.55,24.6L144.74,71.47Z"/><polygon class="cls-12" points="161.81 81.74 136.84 117.86 137.89 122.07 166.47 82.89 161.81 81.74"/><path class="cls-11" d="M140.09,72.19c2.11,2.8,2.67,2.68,2.67,2.68s-.28,3.45,2.24,4.52,3.08.89,3.08.89-.29,2.56,1.67,3.64,2.63.51,2.63.51.6,2.66,2.83,2.79a13.59,13.59,0,0,0,2.78,0s1.19,4.7,5.9,3.79,4.56-3.2,4.56-6.64a7.23,7.23,0,0,0-2.21-5.31s1.63.75,2-.36a2.32,2.32,0,0,1-1.82-2.31c-.15-2.05-4.07-3.88-4.07-3.88l1.32-.47s-2.07-.74-2.48-2.23-2.76-1.9-2.76-1.9L146.06,57l-3.43-.14-3,1.81.48,5.22S138,69.39,140.09,72.19Z"/><path class="cls-15" d="M156.5,52.79l-13.87,4c-.22.23,1.28,5.39,1.29,5.91a15.83,15.83,0,0,0,1.67,2.53c2.83,1.45,6.27,3.59,6.6,5.22.55,2.72.65-1,.65-1l1.56.08-.38.56s-.37,1,1.2,1.82a4.14,4.14,0,0,0,2.29.74s-.77-2.6.34-2.79a17.73,17.73,0,0,0,1.74-.61l-.11-3.09,2.58-.56A44.59,44.59,0,0,0,156.5,52.79Z"/><path class="cls-16" d="M156.59,61.15l-.66-.36-2.44-1.44-1.34.17-1.62,1S151.73,63,153.6,63A3.91,3.91,0,0,0,156.59,61.15Z"/><path class="cls-11" d="M154.89,61.47c-.63-.29-2.67,1.18-2.67,1.18a25.2,25.2,0,0,1,2.92.11Z"/><path class="cls-16" d="M155.22,72a8.25,8.25,0,0,0,.82.39c-2.48-6.77-11.16-9.89-11.16-9.89L143.39,58l-.49.53c.39,1.63,1,3.88,1,4.21a15.83,15.83,0,0,0,1.67,2.53c2.83,1.45,6.27,3.59,6.6,5.22.55,2.72.65-1,.65-1l1.56.08-.38.56S153.65,71.12,155.22,72Z"/><path class="cls-11" d="M152.66,75.33s0-5,1.09-5,3.9-2.62,5.38-2.2,1.31-1.47.25-1.65c0,0-2.82-.81-4.71,1a17.5,17.5,0,0,0-2.19,2.27s-3.06,2.69-1.45,4.67S152.66,75.33,152.66,75.33Z"/><path class="cls-11" d="M153,59.75s2.5,1.82,4,1.8l.28-1.2a21.93,21.93,0,0,1-3.89-1.8,16.73,16.73,0,0,0-3.08,2.14A24.13,24.13,0,0,0,153,59.75Z"/><path class="cls-15" d="M144.23,70.28c1.54-1.08-1.19-4.54-1.19-4.54a1.11,1.11,0,0,0-.13-.17,3,3,0,0,0-3.72-.71C136.65,66,142.69,71.36,144.23,70.28Z"/><path class="cls-16" d="M144.23,70.28a1.27,1.27,0,0,0,.43-1.37,11.69,11.69,0,0,0-1.23-2,1.48,1.48,0,0,0-.12-.17,3,3,0,0,0-3.73-.71,1,1,0,0,0-.61.88C140.07,68.79,143.19,71,144.23,70.28Z"/><path class="cls-11" d="M152.15,54.61l-13.09,5.21s-4.1.11,2.28,1.69S152.15,54.61,152.15,54.61Z"/><polygon class="cls-21" points="156.7 51.82 134.87 59.54 135.74 61.42 157.47 53.98 156.7 51.82"/><path class="cls-16" d="M192.09,94.33c6,5.39,20.43,0,20.43,0l13-3.58c-.36-1.09-.71-2-.71-2s-8,.27-8.89.36,6.86-2.05,6.86-2.05l-25.65,4.07,3.37-3.22-6.38.86a7.88,7.88,0,0,1-.69,3.92A4,4,0,0,1,192.09,94.33Z"/><polygon class="cls-21" points="233.02 82.75 218.85 83.04 219.58 92.81 233.7 89.19 233.02 82.75"/><path class="cls-19" d="M233.82,90.78a1.17,1.17,0,0,0,.85-1.32l-.9-7a1,1,0,0,0-1.14-.93,1.19,1.19,0,0,0-.85,1.33l.9,6.95A1,1,0,0,0,233.82,90.78Z"/><path class="cls-19" d="M220.24,94.06a1.23,1.23,0,0,0,.91-1.4l-1.21-9.93a1.07,1.07,0,0,0-1.2-1,1.25,1.25,0,0,0-.91,1.4L219,93.06A1.06,1.06,0,0,0,220.24,94.06Z"/><polygon class="cls-12" points="249.45 76.67 147.69 98.5 147.81 100.8 249.57 78.97 249.45 76.67"/><path class="cls-14" d="M181,6.31,152.42,98.57l70.33,66.14c1.26.43-.73-2.09.49-1.63L154,98.13l28.3-91.44Z"/><path class="cls-12" d="M146.24,99.67s-3.13,7.86-2.68,7.74,4.2-2.07,4.2-2.07l-1.15,2,6.36-4.55-.5-6.53L144.34,92l1.87,2.27-5.56-1.93,2.5,2.88-4.21-1.13Z"/><path class="cls-15" d="M146.21,94.31l-2.31.33v1.88s-1.6,3-1,4.56.8,1.87.8,1.87l1.12,2.4,9.79-1.24-.08-1.84.66-.24-.3-2.28.44-.26-1.12-3,.29-.25L153,94.46l-3.3.34s.2.57,0,.72a28.58,28.58,0,0,1-3.45.38v-.63Z"/><path class="cls-15" d="M125.62,114.54a69.44,69.44,0,0,1,9.49-6.4c.33-.16,3.8-3.84,3.8-3.84l-5.22-3.85s-8.55-1.71-16.45,1.72-10.75,9.33-5.31,12.12C111.93,114.29,120.56,118.53,125.62,114.54Z"/><path class="cls-21" d="M143.28,99.23,129,99.69,132.36,110c6-2.38,13.17-5,13.17-5Z"/><path class="cls-19" d="M145,106.44l.11,0a.85.85,0,0,0,.68-1l-1.85-7.46a.92.92,0,0,0-1.1-.63l-.12,0a.88.88,0,0,0-.68,1l1.86,7.45A.92.92,0,0,0,145,106.44Z"/><path class="cls-19" d="M132.53,111.33l.11,0a.86.86,0,0,0,.66-1l-3-11.4a.92.92,0,0,0-1.11-.61l-.11,0a.87.87,0,0,0-.67,1l3,11.4A.93.93,0,0,0,132.53,111.33Z"/><path class="cls-19" d="M137.19,161.43a3.67,3.67,0,0,0-1.39-4.55,2.77,2.77,0,0,0-3.86,1.73,3.67,3.67,0,0,0,1.39,4.55A2.77,2.77,0,0,0,137.19,161.43Zm-4-2.11c.45-1.14,1.46-1.72,2.25-1.29a2.28,2.28,0,0,1,.61,2.83c-.45,1.14-1.45,1.72-2.24,1.3A2.3,2.3,0,0,1,133.19,159.32Z"/><path class="cls-19" d="M152.51,164.54a3.67,3.67,0,0,0-1.39-4.55,2.77,2.77,0,0,0-3.86,1.73,3.67,3.67,0,0,0,1.39,4.55A2.77,2.77,0,0,0,152.51,164.54Zm-4-2.11c.45-1.14,1.46-1.72,2.25-1.29a2.28,2.28,0,0,1,.61,2.83c-.45,1.14-1.45,1.72-2.24,1.3A2.3,2.3,0,0,1,148.51,162.43Z"/><path class="cls-19" d="M169,161.6a3.69,3.69,0,0,0-2.89-3.79,2.78,2.78,0,0,0-3,3,3.7,3.7,0,0,0,2.89,3.79A2.78,2.78,0,0,0,169,161.6Zm-4.48-.59c0-1.22.76-2.12,1.65-2a2.27,2.27,0,0,1,1.56,2.44c0,1.22-.76,2.12-1.65,2A2.29,2.29,0,0,1,164.52,161Z"/><path class="cls-19" d="M179.35,155.45h0c-.13-.4-.26-.81-.4-1.22a2.81,2.81,0,0,0-2.7,3,3.68,3.68,0,0,0,2.89,3.78,2.42,2.42,0,0,0,1.74-.41c-.11-.43-.24-.87-.38-1.36a1.3,1.3,0,0,1-1.26.66,2.3,2.3,0,0,1-1.57-2.44C177.72,156.22,178.46,155.33,179.35,155.45Z"/><path class="cls-19" d="M124.56,154.16a3.68,3.68,0,0,0-1.39-4.55,2.77,2.77,0,0,0-3.86,1.73,3.69,3.69,0,0,0,1.39,4.56A2.77,2.77,0,0,0,124.56,154.16Zm-4-2.1c.45-1.14,1.46-1.73,2.25-1.3a2.28,2.28,0,0,1,.61,2.83c-.45,1.14-1.45,1.72-2.24,1.3A2.28,2.28,0,0,1,120.56,152.06Z"/><path class="cls-22" d="M247.48,82.59,252.55,78l-.69,2,3-2.79-.15,1.61,6.66-4.47-9-1.4,1.81,1.19-4.45-.4,1.55,1.11-6.14-.25C249.83,77.29,247.48,82.59,247.48,82.59Z"/><path class="cls-23" d="M252.55,78l-.69,2,3-2.79-.15,1.61,6.57-4.41-13.59,3.07a7.48,7.48,0,0,1-.19,5.14Z"/></g></g></svg>