<svg xmlns="http://www.w3.org/2000/svg" viewBox="0 0 338.15 537.32"><defs><style>.cls-1{fill:#7a9604;}.cls-2{fill:#a4cc27;}.cls-3{fill:#e4efa3;}.cls-4{fill:#474c30;}.cls-5{fill:#a1aa96;}.cls-6{fill:#6f7a5f;}.cls-7{fill:#526342;}.cls-8{fill:#f9f5f2;}.cls-9{fill:#5f7052;}</style></defs><title>earth_golem</title><g id="Layer_2" data-name="Layer 2"><g id="Capa_1" data-name="Capa 1"><polygon class="cls-1" points="40.1 89.15 61.55 100.7 9.85 113.34 33.5 124.34 3.25 133.14 45.46 153.75 8.2 185.93 90.69 187.58 182.06 141.43 155.94 78.8 40.1 89.15"/><polygon class="cls-2" points="7.9 131.79 44.77 138.37 79.69 128.19 31.98 124.78 7.9 131.79"/><polygon class="cls-2" points="9.85 113.34 13.32 114.96 48.62 118.02 93.99 108.4 60.75 100.89 9.85 113.34"/><path class="cls-2" d="M114.06,99.87s8.56-12.72,11-18.31L53,88Z"/><polygon class="cls-1" points="213.18 30.31 207.68 20 188.71 12.85 189.53 29.07 183.49 21.79 164.24 17.52 172.21 35.12 160.39 31.13 167.95 47.91 182.52 56.84 228.58 44.33 229.68 30.45 215.52 19.59 213.18 30.31"/><polygon class="cls-2" points="164.37 17.81 182.11 37.59 183.32 21.75 164.24 17.52 164.37 17.81"/><path class="cls-2" d="M220.88,33.61s1.1,5.22,1.92,5.22c.4,0,3,2,5.92,3.68l1-12.06-12.94-9.93Z"/><polygon class="cls-2" points="188.74 12.86 201.63 32.37 212.49 34.02 212.98 29.94 207.68 20 188.74 12.86"/><polygon class="cls-1" points="100.86 173.28 103.61 219.48 128.36 222.78 124.51 146.34 100.86 173.28"/><polygon class="cls-1" points="128.88 311.26 111.56 312.08 117.77 325.48 132.48 329.73 146.85 319.27 150.29 304.07 138.52 311.26 128.88 311.26"/><polygon class="cls-2" points="128.88 311.26 111.59 312.08 142.77 316.66 148.18 305.36 138.52 311.26 128.88 311.26"/><polygon class="cls-1" points="137.86 297.88 120.55 298.7 126.75 312.1 141.46 316.35 155.84 305.89 159.27 290.69 147.5 297.88 137.86 297.88"/><polygon class="cls-2" points="137.86 297.88 120.58 298.7 151.75 303.27 157.16 291.98 147.5 297.88 137.86 297.88"/><polygon class="cls-1" points="272.71 177.32 260.98 205.54 264.28 183.92 257.68 162.29 238.98 184.65 246.31 167.05 213.32 174.38 232.38 216.18 279.31 246.6 278.21 206.65 272.71 177.32"/><path class="cls-2" d="M262.81,65.87S236.78,55.6,235,55.6s-55,15.22-55,15.22l-3.3,13,9.16,29.33L254,123.43S235,111,231.28,109.86s22-1.83,22-1.83-27.86-11-28.65-11,22.78-4.44,22.78-4.44Z"/><path class="cls-3" d="M205.91,102.07c.59.07,14.28,4.59,28.7,9.38a21.65,21.65,0,0,0-3.33-1.59c-3.66-1.1,22-1.83,22-1.83L243,104C226.53,103.23,206.66,102.14,205.91,102.07Z"/><path class="cls-3" d="M193.8,108.4a22.33,22.33,0,0,0,1.63,6.21L254,123.43s-3.48-2.28-7.74-5Z"/><path class="cls-3" d="M205.91,102.07h0Z"/><polygon class="cls-3" points="247.6 92.31 262.74 66 229.27 79.25 247.6 92.31"/><path class="cls-4" d="M197.63,61.24,173.32,97.41c2.64.69,7.64,46.77,7.64,46.77l23.59,5.63,3.08-8-2.84-14.57s11.64,18,13.56,20.35-4-32.84-4-32.84l16.54,14.79S198.41,60.6,197.63,61.24Z"/><path class="cls-5" d="M279.44,279.56s-7.24-4-10.09-4-4.19,5.9-4.19,5.9l14.28,5,16.38-5.52-7.43-13.14Z"/><polygon class="cls-1" points="268.86 274.65 261.44 280.79 279.58 287.39 285.72 284.37 279.44 279.56 268.86 274.65"/><path class="cls-4" d="M267.76,225.28,249,243.56l-6.09,22.6s9.14,15.24,9.9,16,3.3,15.24,3.3,15.24h5.33c3.56-3.31,2-12.19,2-12.19l-3.3-15.75,18.29-4.06,12.69,10.67-2.28,9.39a13.72,13.72,0,0,0-8.89,4.32c-4.32,4.31-.51,9.65-.51,9.65l21.08-5.08,5.33-19.3L289.6,240S269,225.79,267.76,225.28Z"/><path class="cls-1" d="M243.1,270.53l7.06,21.53,13.11,14.48L265,293l-1.74-12S243.75,270.53,243.1,270.53Z"/><path class="cls-5" d="M289.46,239.91a29.59,29.59,0,0,0,.08,7.27c.38,3.24,5.52,25.14,5.52,25.14l10,1.08L289.6,240Z"/><path class="cls-5" d="M297.15,274.8l-.95,13.9s2.79,1.32,5.23,2.37l4.42-16-.54-1.16Z"/><polygon class="cls-5" points="283.38 298.48 299.93 294.49 294.68 291.37 283.38 298.48"/><path class="cls-6" d="M280.57,250.71l-11.23-27.37-29.76-27s-3.55-12-4.11-12.7-28.89-29.94-27.1-33.2-11.23-25.83-11.23-25.83l-5.3,19.92-15.66-26.37L185,148.51l-28.78-26.95,19.5,50L158.65,150.3s3.94,18.4,7.06,31.07,29.8,22.14,29.8,22.14l-14.78-2.8s17.89,20.09,19.92,22,53.27,28.85,53.27,28.85c6.73,5.92,28.78,8.68,28.78,8.68l-8-8.64Z"/><path class="cls-5" d="M239.58,196.36s-3.55-12-4.11-12.7-28.89-29.94-27.1-33.2-11.23-25.83-11.23-25.83l-2.83,10.64c3,8,6.83,17.51,6.83,17.51l-3.47,9.51,5,10.86,3.83-7.48,16.9,21.59-16.13-5.63,69,58.73-7-17Z"/><path class="cls-4" d="M272.12,252.79l-.35-8.19s-12.13-2.86-13.06-2.55,6.34,6.41,6.34,6.41l-23.39-11.75,13.92-.4-40-20.1s22.73,5.71,22,4.72-14.89-11.18-15.69-11.73-32.34-.06-32.34-.06l-8-8.28-.81-.15s17.89,20.09,19.92,22,53.27,28.85,53.27,28.85c6.73,5.92,28.78,8.68,28.78,8.68l-1.56-1.69Z"/><polygon class="cls-4" points="157.27 124.27 174.96 169.67 180.66 177.7 178.22 161.06 192.13 168.36 157.27 124.27"/><path class="cls-4" d="M172.58,178.73,162.25,154.8l-3.6-4.5s3.94,18.4,7.06,31.07c1.29,5.23,6.6,9.92,12.38,13.62L192,201.13l-8-16.34Z"/><polygon class="cls-4" points="184.99 148.51 184.47 148.01 192.13 158.45 176.18 118.18 184.99 148.51"/><polygon class="cls-7" points="192.6 141.7 197.54 156.43 203.33 150.67 196.63 126.55 192.6 141.7"/><path class="cls-4" d="M200.34,194.14l5.68.66-17.57-16.58C188.31,179.19,200.34,194.14,200.34,194.14Z"/><path class="cls-4" d="M235.37,214.4c.41.56,23.62,17,23.62,17l-8.66-9.68Z"/><path class="cls-7" d="M172,170.07c.72-2.38,1.12-3.73,1.12-3.73l-9.6,5.06Z"/><path class="cls-7" d="M189,167.41l-17,2.66c-2,6.5-6.21,20.65-10.89,35.92,3.22,15.72,7.79,44.1,7.91,49.88.16,8,15.79,22.08,15.79,22.08l11.51,38,28.1,12.34s9.82-18.11,8.67-30.63S189,167.41,189,167.41Z"/><path class="cls-7" d="M163.51,171.4l-18.61,2.92-18.8.73s-32,46.38-31.13,55.48-11.36,88.82-11.36,88.82l9,10.65,21.55-34.1,28.94-34.78c1.41-1.7,10.27-29.93,18-55.13-1.24-6.07-2.29-10.25-2.79-10.53-1.81-1-.22-21.2-.22-21.2Z"/><path class="cls-7" d="M158.09,174.26s-1.59,20.22.22,21.2c.5.28,1.55,4.46,2.79,10.53,4.68-15.27,8.94-29.42,10.89-35.92l-8.48,1.33Z"/><path class="cls-5" d="M140.41,239.75s-10.58,21.67-5.19,30.83l7.88-9.46c1-1.2,5.65-15.44,11-32.55l.4-22L139.27,260.7Z"/><path class="cls-5" d="M190.75,172.18c-1.35,10.78-2,35.07-2,35.07l19.8,56.63-4.31-30.48s18.53,46.47,18.79,49.27c.14,1.61,5.38,12.55,9.77,21.5a28.56,28.56,0,0,0,.24-6.55C232.07,286.62,198.79,194.34,190.75,172.18Z"/><path class="cls-4" d="M197.93,240l-5.72,25.14L177,245.34l-7.24-68.57-13,18.95,2.53,11.35c.08-.28.17-.55.25-.83.79,3.82,1.65,8.38,2.51,13.19l.42,1.91-.05.17c2.54,14.47,5,30.44,5,34.62.16,8,15.79,22.07,15.79,22.07l11.51,38,28.1,12.34s.29-.54.77-1.5l-17.35-25.29Z"/><path class="cls-4" d="M144.56,174.39l-1.19.18-18.79.73s-32,46.38-31.13,55.48-11.37,88.83-11.37,88.83l9,10.64,21.55-34.1,7.44-8.95c-5.11-5.59-9.6-10.91-9.76-12.53-.38-3.81,3.05-24,6.47-27.43s21-18.66,21-18.66L108,237.72,118.7,221l22.85-9.9s5.72-34.67,4.57-35.81A8.44,8.44,0,0,0,144.56,174.39Z"/><path class="cls-4" d="M196.64,297.62a.12.12,0,0,0-.09-.06Q196.45,297.56,196.64,297.62Z"/><path class="cls-4" d="M217,246.05l.21,28.69-21.72-10.17L221,302.51s-22.46-4.35-24.38-4.89c.88.92,2.69,13.62,3.55,20l24.22,10.64s9.82-18.11,8.67-30.63C232.62,292.59,225.41,270.58,217,246.05Z"/><path class="cls-4" d="M182.85,44.18s-12.21-3.36-16.68-2.7-10.92,4-10.92,4l8.92,5.44-11.08,3.29L146,52l-13.08,9.89,6.62,1.15-6.77,12.2-10,2.14-4,16.81,6.16-1.15-5.39,19.28-2.92,50.26,1.85,9.89,6.15,1,53.56-3.29,8.92-5.93-.92-48.78s16.62-17.8,17.7-19.28S216,61.74,216,61.74l-19.4-19.93Z"/><path class="cls-4" d="M113.44,92.72S86.27,133.86,84,140.21s-.51,20.57-.51,20.57l2-1.53H91.1s22.09-16.76,32-28.18,30-52.57,30-52.57l-24.63,6.86C126.9,85.1,113.44,92.72,113.44,92.72Z"/><path class="cls-6" d="M150,119.77c0,.1.33,0,.91-.28C150.28,119.56,150,119.65,150,119.77Z"/><path class="cls-6" d="M195.09,88.15c-2.1,1.14-19.62,19-18.67,19s9.76,8.27,9.76,8.27,16.62-17.8,17.7-19.28a75.23,75.23,0,0,0,2.73-7.07l-6.06-3.19A39.23,39.23,0,0,0,195.09,88.15Z"/><path class="cls-6" d="M173.75,113.86c-2.66-1.9-6.09-4-6.09-4s-13.18,7.94-16.8,9.63c3.36-.43,14.9-.3,14.9-.3s2.28,4.77,10.47,5,9.14,1.71,9.14,1.71-9.71,5.52-15.62,3.24-8.38-5.72-8.38-5.72l-14.09,4-5.9,11.05,12.38-2.86s.38,3.43,11.23,3.81,17.33-2.09,17.33-2.09-6.47,7.81-19.42,7.23-11.62-3.42-11.62-3.42l-16,15.23,17.91,6.29s6.66-5.72,7.42-6.29,11.62,1.15,11.62,1.72,1.52,4.95,1.52,4.95l2.67-10.1.57,12,10-4.73-.85-44.7S176.42,115.77,173.75,113.86Z"/><path class="cls-5" d="M182.86,115.46l-7.46,8.65.83,0c8.19.19,9.14,1.71,9.14,1.71a37,37,0,0,1-4.76,2.17l-11.53,11.36a54.76,54.76,0,0,0,7.94-.78c3.66-1.33,7-2.51,7.7-2.72,1.08-.31-6.92,12-13.43,21.76.58.15.94.29.94.4,0,.57,1.52,4.95,1.52,4.95l2.67-10.1.57,12,10-4.73-.85-44.7S184.76,115.51,182.86,115.46Z"/><path class="cls-6" d="M204.21,29.11,177.63,44.23l11.46,4.61,1.59,16.08,5.41-2.71,4.46,23.72,5.57-5.73,7.32,16.07,5.41-7.8,6.53,9.71-1-31.51-2.07,1.27,1.75-9.39,3.19,4.94L231.1,53.3l1.76-7.48-9.24-9.55C219,34.36,204.21,29.11,204.21,29.11Z"/><path class="cls-5" d="M214.77,87.45c0,.19.3,3.14.57,6.08l3.51-5.06.22.33-1.83-6S214.7,87.07,214.77,87.45Z"/><polygon class="cls-5" points="220.61 45.17 228.6 54.95 227.18 63.33 227.28 63.49 231.1 53.3 232.85 45.82 227.53 40.31 220.61 45.17"/><path class="cls-5" d="M222.35,67.94l.18-1-2.05,1.35s-1.7,7.73-2.38,10.63c.62-2,2.06-5.8,2.06-5.8l.32,9,2.09-5.9L223,84.4,221.69,81l-.54,10.85,4.23,6.29-1-31.51Z"/><path class="cls-5" d="M218.1,79a7.55,7.55,0,0,0-.29,1C217.8,80.19,217.91,79.75,218.1,79Z"/><polygon class="cls-5" points="223.4 41.62 226.7 39.45 226.04 38.77 223.4 41.62"/><polygon class="cls-7" points="216.48 46.73 220.08 53.74 225.2 53.2 221.33 47.09 216.48 46.73"/><path class="cls-7" d="M227.11,55.49s-6.93,1.67-7.76,2S217,70.11,217,70.11l7.49-2.48,0-1-2.07,1.27,1.75-9.39,3.19,4.94v0c-1.23-2.31-3-5.82-3-5.82Z"/><path class="cls-7" d="M222.69,35.89c-5.4-2.14-18.48-6.78-18.48-6.78L177.63,44.23l11.46,4.61,1.59,16.08,5.41-2.71,4.46,23.72,3-3.14-.31-11.66L212,65l.71-8.24-4.17-11.1,6-4.3-13.72,4.66S196,59.67,196,57.4s2.87-14.68,2.87-14.68l8.59-4.78-7,1.2,12.41-3.7Z"/><path class="cls-7" d="M222.69,35.89c-5.4-2.14-18.48-6.78-18.48-6.78L177.63,44.23l11.46,4.61,1.59,16.08,5.41-2.71,4.46,23.72,3-3.14-.31-11.66L212,65l.71-8.24-4.17-11.1,6-4.3-13.72,4.66S196,59.67,196,57.4s2.87-14.68,2.87-14.68l8.59-4.78-7,1.2,12.41-3.7Z"/><polygon class="cls-7" points="208.43 77.69 206.39 80.79 213.44 96.27 213.62 96.02 212.96 81.63 208.43 77.69"/><polygon class="cls-7" points="217.41 90.55 218.85 88.47 224.63 97.07 218.69 85.09 217.41 90.55"/><polygon class="cls-4" points="222 49.4 219.28 47.77 217.92 47.95 220.22 51.37 222.67 52.49 219.18 54.07 217.56 52.92 216.39 57.71 217.92 53.59 219.37 54.73 223.84 52.51 222.05 48.94 222 49.4"/><polygon class="cls-8" points="219.05 48.45 220.72 50.71 223.15 52.23 221.52 50.12 219.05 48.45"/><path class="cls-7" d="M138.58,45.74c-8.38,0-41.13,7.62-41.13,7.62l19.3,7.87L87,87.64l25.91-4.31-11.43,26.41,38.6-10.67-6.35,16.76,59.17-33.27L178.45,57.17S147,45.74,138.58,45.74Z"/><path class="cls-6" d="M161.57,62.06C150.14,59.77,145,59.58,145,59.58s-4.57,37-5.15,34.86-.91-19.3-.78-20.52c-.7.77-16.55,5.09-16.55,5.09s-2.34,19.45-10.7,27.88l28.29-7.82-6.35,16.76,59.17-33.27-13-22.84C174.26,61.61,167.23,63.19,161.57,62.06Z"/><path class="cls-6" d="M139.07,73.92s0,0,0,0S139.07,73.86,139.07,73.92Z"/><polygon class="cls-6" points="87.74 87.53 111.08 83.64 111.09 83.58 121 73.68 112.05 71.96 87.74 87.53"/><path class="cls-6" d="M102.76,106.85l-1.25,2.89,7.64-2.12c3.44-4.38,7.16-10.44,7.66-16.61C116.81,91,109,102.14,102.76,106.85Z"/><polygon class="cls-6" points="115.61 60.77 127.09 59.58 99.66 54.26 115.61 60.77"/><path class="cls-6" d="M139.07,73.92s0,0,0,0S139.07,73.86,139.07,73.92Z"/><polygon class="cls-6" points="87.74 87.53 111.08 83.64 111.09 83.58 121 73.68 112.05 71.96 87.74 87.53"/><path class="cls-6" d="M102.76,106.85l-1.25,2.89,7.64-2.12c3.44-4.38,7.16-10.44,7.66-16.61C116.81,91,109,102.14,102.76,106.85Z"/><polygon class="cls-6" points="115.61 60.77 127.09 59.58 99.66 54.26 115.61 60.77"/><path class="cls-6" d="M134.14,150.24c1.33.38,7.81-6.67,7.81-6.67L131.47,136S132.81,149.86,134.14,150.24Z"/><path class="cls-5" d="M173,70.25A27,27,0,0,0,160,71s7,6.73,2.8,10.16-6.23-2.42-6.23-2.42l1,18.42-2.79-15.62-3.31,16V85.48L136.35,109l-2.59,6.85,59.17-33.27-2-3.44C185.2,75.48,177.41,71,173,70.25Z"/><path class="cls-5" d="M117.37,311l10.09-14.85L120,269.08l-10.28,22.86L90.89,308.32l.19-14.48-12,26.09L47.42,372.14l-9.71,32.57-18.28,20L0,485.27l25.14,10.85,13.71,15.43L69.7,511l57.71-16.57s-9.14-22.28-6.86-29.14-2.36-71.89-2.36-71.89l-1.4-22.79s5.53-17.14,7.24-20.37-2.47-26.48-2.47-26.48l11.8-26.47Z"/><path class="cls-7" d="M109.75,291.94,90.89,308.32l.19-14.48-12,26.09L47.42,372.14l-9.71,32.57-18.28,20L0,485.27l25.14,10.85,13.71,15.43S40.56,483,40,480.7s19.43-24.57,19.43-24.57l27.42,3.43L76.56,405.28s24,8,25.71,7.43S87.41,363,90.84,340.15s28.57-40,28.57-40l1.7-27.16L120,269.08Z"/><polygon class="cls-4" points="47.42 372.14 37.71 404.71 19.43 424.7 0 485.27 16.21 492.27 28 466.41 26.28 442.42 43.99 429.28 42.85 398.42 75.42 378.43 71.99 335.58 77.52 322.51 47.42 372.14"/><path class="cls-7" d="M106.26,406.08s.25-14.47.5-15.23L95.08,361.13Z"/><polygon class="cls-7" points="90 461.69 109.3 474.39 84.92 417.76 90 461.69"/><path class="cls-7" d="M104.22,447.73c0-1.53.26-30.48.26-30.48l-15.75-3S104.22,449.25,104.22,447.73Z"/><path class="cls-7" d="M97.61,478.64l9.15,7.18S108.31,484.93,97.61,478.64Z"/><path class="cls-7" d="M63.59,462.46,44,482s37.58-12.44,51-4.83c.92.52,1.76,1,2.53,1.46L84.42,468.3Z"/><polygon class="cls-1" points="105.92 318.34 92.89 318.96 97.56 329.04 108.63 332.24 119.45 324.37 122.03 312.93 113.18 318.34 105.92 318.34"/><polygon class="cls-2" points="105.92 318.34 92.91 318.95 116.38 322.4 120.45 313.9 113.18 318.34 105.92 318.34"/><path class="cls-5" d="M130.76,297.65l-15.87-10.16-9-15.84,8.34-4.34c-.11.08-.52.64,2.81,4.44,3.68,4.19,10.41,4.06,10.41,4.06L127,286.73l6.1,1c7-6.86,5.58-18.67,5.58-18.67-10.54-.63-15.61-18.92-15.61-18.92s-6.35-4.06-13.21,2.54-22.09,1.78-22.09,1.78L72.61,265c-.94,1.69,1,6.31,3.08,8.77,0,.46,0,1-.06,1.53l-6.2.24c0,1.77,4.19,40.63,4.19,40.63S83,325,87.46,328.63s16.51-.89,16.51-.89l1-6.38,14.47,4s7.47-7.1,11.06-10.74l2.15,1.09,8.88-9.78.77-7.36L132,294.22ZM94.19,320.38l-4.69-1.27L81.24,310l2.54-12.47,10.67,21,.89.25Zm23-5.08s-16.26-7.11-15.5-8c.43-.49-2.3-10.3-4.86-19L107,302.6l15.57,7.94Z"/><path class="cls-4" d="M100.92,267.81l-12.69-4.44s-3.72-2.38-7.08-4.31l-3.43,2.39c2.4,5.55,6.36,14,6.36,14L99.4,290l-11-9.13,8.85,8.89-.45-1.53L99.51,292l.52.53.32.66,6,8.47,5.84-11.29L101.3,278.6Z"/><path class="cls-4" d="M120.05,309.25l2.54,1.29-2.32,2,7.47,3,.48,0s0,.09,0,.23l.8.32,1.51-1.51,2.15,1.09,8.88-9.78.13-1.24-12.06-4.09Z"/><path class="cls-4" d="M90.89,325.58,79,313.39,74.51,280s5.9,12.95,8.88,19.42l.39-1.92L92.16,314c2.09-2.65,5-6.39,5.21-6.54s-6.6-15.62-6.6-15.62l-14-20.57,11.62,9.66L72.61,265c-.94,1.69,1,6.31,3.08,8.77,0,.46,0,1-.06,1.53l-6.2.24c0,1.77,4.19,40.63,4.19,40.63S83,325,87.46,328.63s16.51-.89,16.51-.89l.34-2.16c-2.65-1.26-5-2.28-5-2.28Z"/><polygon class="cls-4" points="106.76 302.24 107.02 302.6 119.8 309.12 128.35 298.67 115.27 291.94 106.76 302.24"/><path class="cls-4" d="M111.46,316.7,98,310.22s-3.23,2.39-5.59,4.25l2,4,.89.25-1.15,1.66c1.16,1.28,5.38,2.43,10.42,3.37l.38-2.39,14.47,4s4.91-4.67,8.69-8.38c0-.53,0-.94.06-1.17l-.47-.19Z"/><path class="cls-6" d="M95.42,117.83,81,145.91,78.6,106.56,58.34,156.28,60.6,129.1s-9.79,16.06-16.24,27.4,6.4,36.58,6.4,36.58L42,180.88s-.83,26.88-.69,29.69,18.82,57.57,18.82,57.57c.82,8.94,14.93,26.1,14.93,26.1l.14-11.77L80,285.84l10.68-27.59-3-40.06s5.65-11.12,5.76-12-.39-41.61,3.15-42.74,9.62-26.48,9.62-26.48L88.65,147.75Z"/><path class="cls-5" d="M89.74,160.12l-9.06,4.52L76.87,176l7.92-2.79-2.58,27.3L74.38,185.3l9.7,90.11,6.64-17.16-3-40.06s5.65-11.12,5.76-12-.39-41.61,3.15-42.74,9.62-26.48,9.62-26.48l-9.38,5.78C93.51,150.6,89.74,160.12,89.74,160.12Z"/><path class="cls-4" d="M70.13,264.52c-.88-.42.19,9,.19,9l-8.9-24.61,10.39,9.28L56.59,216.09s12.57,19.78,12.71,18.55S66.18,216.29,66,215.33,42.55,193,42.55,193l-.11-11.49-.48-.67s-.83,26.88-.69,29.69,18.82,57.57,18.82,57.57c.82,8.94,14.93,26.1,14.93,26.1l0-2.29-2.57-10.41,5.38-6.19S71,264.93,70.13,264.52Z"/><polygon class="cls-4" points="57.73 164.12 67.41 150.37 72.49 165.23 77.5 109.25 59.12 154.37 57.73 164.12"/><path class="cls-4" d="M44,174.91l5.87,14,5.45-17.35-4.14-12.27,9-24.48.48-5.74s-9.79,16.06-16.24,27.4C41.69,161.19,42.32,168.24,44,174.91Z"/><polygon class="cls-4" points="80.92 145.19 79.3 158.05 95.42 117.83 80.96 145.91 80.92 145.19"/><polygon class="cls-7" points="84.62 160.3 92.78 160.09 104.5 137.98 91.16 146.2 84.62 160.3"/><path class="cls-4" d="M60.71,189.59,64.38,194,63,169.86C62.26,170.47,60.71,189.59,60.71,189.59Z"/><path class="cls-4" d="M77.69,257l.36-13L72.2,228.39C72.12,229.08,77.69,257,77.69,257Z"/><path class="cls-4" d="M135.85,171.38c-1.9.19,2.1-4.57,2.1-4.57L119.67,171l-3-8.4-.38,5.92-9.72,19.81s15-4.76,16.57-5-8,9.9-8,9.9,29.52-5.9,30.1-5.71-2.86,8.76-2.86,8.76l26.47-10.86-4.19,29.9,26.48-27.61,4.76-36.38-23.62,17.71S137.76,171.19,135.85,171.38Z"/><path class="cls-5" d="M269.67,387l-2.29-22.28L250.24,323l8-32-32.56-51.42,13.14,48-16.57-20,2.28,29.14-9.14,24L192,311l-4,16.57v32l1.14,41.71-12.57,20-5.14,67.41,1.14,4s44-4.57,50.85-5.14,36.57,17.14,38.85,18.28S324,488.12,324,488.12l-37.71-48.56Z"/><path class="cls-9" d="M239.7,493.58c10.17,5.06,21.19,11.58,22.54,12.25.54.27,4.28-.57,9.67-2l-13.67-40.24S246.58,480.91,239.7,493.58Z"/><path class="cls-9" d="M245.67,302.44,223,276.75l1.56,20-9.14,24L192,311l-4,16.57v32l1.14,41.71-12.57,20-5.14,67.41,1.14,4s44-4.57,50.85-5.14c1.65-.14,4.63.79,8.24,2.29l3.76-32,1.14-41.7-16,12c-12-29.71,22.86-28,27.43-42.85s-18.28-48-18.28-48Z"/><path class="cls-4" d="M215.45,392.11l-16-1.14,12.19-30.47s-13.25-19.12-23.46-33.79l-.21.87v32l1.14,41.71-12.57,20-5.14,67.41,1.14,4,21.92-2.26c2.32-9.56,7.54-31.25,8-34.95.08,3.29,1.27,21.08,2.14,33.92l4.48-.46,12.07-47.69-18.28-21.33Z"/><polygon class="cls-7" points="244.15 447.47 252.78 426.4 240.84 408.88 244.15 447.47"/><path class="cls-7" d="M244.4,468,258.11,448l-.76-17.77S245.41,465,244.4,468Z"/><path class="cls-4" d="M123.56,267.84A103.4,103.4,0,0,1,119,255.75l-14.66,14.38s1.35,1.72,2.29,2.77l-.71-1.25,8.34-4.34c-.11.08-.52.64,2.81,4.44,3.68,4.19,10.41,4.06,10.41,4.06L127,286.73l6.1,1a18.76,18.76,0,0,0,4.79-8.76c-.21-2.5-.38-4.58-.38-4.58S125.75,272.22,123.56,267.84Z"/><polygon class="cls-5" points="83.91 398.46 95.08 404.3 88.99 378.15 83.91 398.46"/><polygon class="cls-5" points="71.85 448.49 77.94 453.44 75.28 429.06 71.85 448.49"/><path class="cls-4" d="M51,420.05l5.22,18.15L43.4,441l.55,8.39L21.81,447l-7.15,29.69,22.28,10.59,6.46-14,19.66-2.75-21.31.55-5.91,11.82L18.38,471.47l4-19,25.16.69L46,444.8l4,5.09s12.09-2.2,12.64-2.62-12.51-.68-12.51-.68l-1-3.3,10.86-3L54,421l12.79-10.31Z"/><path class="cls-4" d="M109.8,357l-8.66,3.44L82,338.67l18.56,25.16,8.25-4,8,11.1,0-.35,1.39-4.22Z"/><polygon class="cls-4" points="250.16 446.59 239.71 427.89 215.52 446.86 199.02 425.14 225.42 381.42 235.31 389.95 256.49 356.95 235.31 381.97 225.97 374.55 203.69 406.17 194.62 431.46 213.04 456.76 236.96 437.24 249.34 452.09 267.48 436.96 276.01 450.99 269.68 432.56 250.16 446.59"/><polygon class="cls-4" points="132.21 221.4 130.97 212.6 126.98 212.88 130.15 223.6 141.14 221.13 143.89 233.09 143.07 218.79 132.21 221.4"/><polygon class="cls-4" points="183.35 223.74 190.63 229.65 185.55 239 179.5 234.6 174.96 249.45 183.62 262.37 186.24 246.42 180.05 254.4 181.56 238.31 186.65 242.71 193.38 228.69 186.51 224.01 194.21 213.43 183.35 223.74"/><path class="cls-4" d="M73.37,224.29l3.16,17.18s-12.24,3.16-13.2,3.44l-9.48-8.25,6.59,12.79L78.05,244l-1.38-18.31,7.83-5.77Z"/><path class="cls-4" d="M85.88,177.27,68.69,176l13.61,2.62-1.65,9.62,12.91,2.78c0-1.08,0-2.19.07-3.31l-10.5-1.26Z"/><path class="cls-4" d="M259.92,231.57l2.2,5.37L249,243.56l-19.43-12.4,16.08-2.2,1.93-20.48-5,17.32-15,1.92-16.09-27.49,10.86-4.81,5.09,6.32,7-8.8s-6.6,5.23-7.42,5.23-3.3-8-3.3-8l-16.23,9.08,17.19,29-1.38,4,29.29,13.34,11.41-7.29-2.75-5.64,6.87-2.47Z"/><path class="cls-4" d="M173.1,98.82l5.21-1.42s-.74-17.05-.74-19.25C177.57,76.37,174.34,92.54,173.1,98.82Z"/><path class="cls-4" d="M172.63,101.25l.47-2.43-1.19.32Z"/><path class="cls-4" d="M150.26,77.6c0,.55-4.21-15.76-4.76-16.68s2.56,19.61,2.56,19.61l13-5.86,7.15,25.48,3.68-1-10.1-29.6S150.26,77.05,150.26,77.6Z"/><polygon class="cls-4" points="222.61 66.57 215.47 70.82 222.94 67.79 224.21 66.8 222.35 67.94 222.61 66.57"/><path class="cls-4" d="M202.62,50.83l-.12-.08Z"/><path class="cls-4" d="M212.72,56.8s-8.93-5.26-10.1-6c1.08.74,8.5,6.42,8.5,6.42L212,65l-9.78,2.85s-2.75-5-3-4.59,2,6.69,2,6.69l1.92-.09.92,15,2.75,2.48c.09-.28-2.57-17.78-2.57-17.78l9-3.76Z"/><polygon class="cls-4" points="195.86 97.95 190.36 94.1 195.86 100.01 197.78 97.26 204.11 102.07 195.45 110.18 185.55 102.9 196 113.76 188.44 120.49 177.44 118.16 172.31 126.06 174.82 127.23 178.67 120.49 194.21 124.34 195.17 117.88 207.41 100.28 196.96 94.51 195.86 97.95"/><polygon class="cls-4" points="158.82 121.08 159.49 120.96 158.74 120.63 158.82 121.08"/><polygon class="cls-4" points="166.84 123.57 171.11 127.92 172.31 126.06 166.85 123.52 166.84 123.57"/><polygon class="cls-4" points="156.21 121.56 160.94 132.45 158.82 121.08 156.21 121.56"/><path class="cls-4" d="M164.38,140.29l2.46-16.72-3.29-3.35-4.06.74,5.85,2.56L162,141.39s-4.54-.28-4.95-.14,2.06,11.55,2.06,11.55l.83-9.9,7.42,1,2.61,18.7-.41-20.21Z"/><path class="cls-4" d="M155.94,49.74,112.05,72l-9.26,7.11,25.84.36s-8.8,10.09-7.33,10.09,7.88.91,7.52,1.46-2.57,8.43-2.57,8.43l6.42-9.89-6.6-2,8.43-9.17L164,72.84l5.5-12.29L180,70.82,168,51.21Z"/><path class="cls-2" d="M150.28,12.07l-7.58,6.65-4.17,16.7L114.09,4.8,83.77,0,78.66,16.09,96.91,44.86,73.09,41.15l8.36,23.51,31.24,13.92s45.33-5.72,47-6.8,8.51-15.94,8.51-15.94C158.94,52,150.28,12.07,150.28,12.07Z"/><path class="cls-3" d="M152.21,20.06l9.67,48,.35-.07c2.6-4.73,6-12.15,6-12.15C161.59,53.08,155.28,31.92,152.21,20.06Z"/><polygon class="cls-3" points="96.92 44.86 73.09 41.15 73.23 41.54 94.67 54.45 122.28 58.63 91.21 35.86 96.92 44.86"/><path class="cls-3" d="M146,15.8l-1.93,10.34,6.78-11.51c-.38-1.62-.59-2.56-.59-2.56Z"/><path class="cls-3" d="M82.06,5.38c9.07,7.7,19.8,17.28,19.8,17.28L114.09,4.8,83.77,0Z"/><polygon class="cls-3" points="114.08 4.79 143.63 64.2 138.5 35.39 114.08 4.79"/><path class="cls-1" d="M98.85,55.61s-14.93-8.3-25.62-14.07l8.22,23.12,31.24,13.92s3.75-.47,9.12-1.17c-4.85-3.49-19.13-13.74-23-16.23C94.21,58.16,98.85,55.61,98.85,55.61Z"/><path class="cls-1" d="M83.77,0,78.66,16.09,96.91,44.86l-.6-.09c8.72,6,41.73,28.86,43.14,29.87,1.63,1.16-36.66-61-36.66-61Z"/><path class="cls-1" d="M148.61,13.53l-5.91,5.19-4.17,16.7-.22-.27c-.41,3.79-2.8,4-2.8,4l24.79,32c.12-.15.25-.34.39-.55L145.26,22.66Z"/><path class="cls-2" d="M78.05,244l-8.75-9.33c1.89-8.84-8.86-14.8-8.86-14.8l10.45-12.28-5.68-23.09L42.48,177l10.27,37.21L32.22,202.61s2.56,3.85-.37,15-16.5,8.25-16.5,8.25l17,23.1c.55.73-27.31-3.85-27.31-3.85s32.08,26.21,34.09,26.21,38.68,4,38.68,4L78.23,253,74,251.92Z"/><path class="cls-3" d="M32.22,202.61s1.24,1.88,1,6.81l19.53,9-4.24-6.6Z"/><path class="cls-3" d="M42.48,177l3.75,13.58c7.4,6.37,13.39,11.62,13.39,11.62s1.59-11.7,5.61-17.61l0-.07Z"/><path class="cls-3" d="M32.4,249c.42.56-15.67-2-23.34-3.21L37.9,256.32l40.25,1.29,0-2.62c-13.28-4.19-37-11.92-54.34-17.58Z"/><path class="cls-1" d="M9.28,245.82l-4.19-.68s32.08,26.21,34.09,26.21,38.68,4,38.68,4l0-1.18L41.75,256.69Z"/><path class="cls-1" d="M75.08,249.82,36,235.7l41.87,8-8.54-9.1a9.79,9.79,0,0,0,.21-1.91l-51.83-6.54a18.15,18.15,0,0,1-2.33-.3l17,23.1,45.77,7.44.06-3.41L74,251.92Z"/><path class="cls-1" d="M23.26,225.81l25.64-.28s-8.14-3-17.52-6.47A10.77,10.77,0,0,1,23.26,225.81Z"/><path class="cls-1" d="M42.69,177.72l10.06,36.44-3.55-2,3.27,9.24,8-1.56,4.81-5.65a165.16,165.16,0,0,1-3.71-17.81Z"/><polygon class="cls-2" points="256.11 164.16 252.91 190.88 263.83 182.45 257.68 162.29 256.11 164.16"/><path class="cls-2" d="M272,179c-.52,14.32-2.05,35-2.05,35l8.1-8.11-5.35-28.55Z"/><path class="cls-4" d="M22.68,439.07c0,1.83-3.66,24.2-1.09,26.4s8.43,6.23,10.63,9.9l44.36-53.9c1.1-3.66,12.35-43.25,12.35-43.25L37,412.31S22.68,437.24,22.68,439.07Z"/><path class="cls-2" d="M96,455.57l6.23-36.3L89,378.15l-38,41.9L46,444.8l-15.26,4.54L11.32,490.4l58.29,46.92s44.49-37.72,44.73-38.86C119.83,472.43,96,455.57,96,455.57Z"/><path class="cls-3" d="M97.43,456.67,31.85,479.76l22.73,19.07s40.78-21,60.57-8C115.23,472.79,101.87,460.32,97.43,456.67Z"/><polygon class="cls-3" points="64.84 438.34 101.77 417.82 89.02 378.24 64.84 438.34"/><path class="cls-1" d="M88.93,378.22,51,420.05,46,444.8l-15.26,4.54L11.32,490.4l57.55,46.33,6.24-44.5-19.06-19.8,15.76-14.3S83.09,405.77,88.93,378.22Z"/><path class="cls-4" d="M221,424l-20,65.72c10-1,19.44-2,22.32-2.21,3.73-.31,14.24,4.8,23.41,9.7l17.11-23.17c0-2.2,4.4-99,4.4-99l-28.6,52.79Z"/><path class="cls-1" d="M285.91,425.69l-17.6-50.59-15.95,55.54-17.6,1.1-15.94,59.39L270,515.32s66.54-25.84,68.19-27.49l-16.5-37.94Z"/><path class="cls-2" d="M285.91,425.69l-14.67-42.16c-.55,27.72-.73,59.76-.73,59.76l-12.27,20.27,30.42,7.22s-9,25-15.06,43.13c13.92-5.43,63.13-24.66,64.55-26.08l-16.5-37.94Z"/><path class="cls-3" d="M270.58,432.93c4.66-4.89,9.13-9.55,13.1-13.62l-12.44-35.78C270.88,401.48,270.68,421.23,270.58,432.93Z"/><path class="cls-3" d="M274.74,467.48l13.92,3.3s-.56,1.54-1.49,4.14l34.19-25.23-30.7-20.78C285.85,440.93,279.81,455.44,274.74,467.48Z"/><path class="cls-1" d="M130.1,264l-9.53-10.63s3.11,16.86,5,17.41l-.19,1.28.55,18,6.05,1.1s3.12-4.4,6.23-9.17,2.2-12.46,2.2-12.46Z"/><path class="cls-2" d="M139.84,269.24c-3.22,2.07-8.73,5.5-8.73,5.5l2.88,7.7-3.44,8.46,1.38.25s3.12-4.4,6.23-9.17,2.2-12.46,2.2-12.46Z"/><path class="cls-2" d="M289.48,285.28l-2.75-.09L276.47,289l-1.84,3.3-10.08,5c1.93,1.46,18,3.3,18,3.3l18-6.24s-7.47-3.75-8-4.3S289.48,285.28,289.48,285.28Z"/><path class="cls-1" d="M289.48,285.28l-2.75-.09L276.47,289l-1.84,3.3-10.08,5a4.73,4.73,0,0,0,1.38.57c8.11-.22,18-6,18-6l-.83,4.12s5.46-3.16,9.9-5.64a4.19,4.19,0,0,1-.46-.31C292,289.5,289.48,285.28,289.48,285.28Z"/><path class="cls-1" d="M222.12,271.72l-19.8-12.38s16.5,34.37,15.4,34.65-9.63,1.92-9.63,1.92l6,17c1.93,1.37,36.57,29.42,36.57,29.42l10.45-53.89-41.52-61.86Z"/><polygon class="cls-2" points="219.72 228.02 235.04 279.97 246.04 287.66 232.56 308.29 250.8 341.94 261.16 288.49 219.64 226.63 219.72 228.02"/><polygon class="cls-3" points="219.72 228.02 234.64 278.62 258.01 283.79 219.64 226.63 219.72 228.02"/><polygon class="cls-3" points="233.1 307.46 257.85 305.56 260.93 289.68 246.04 287.66 233.1 307.46"/><path class="cls-2" d="M217.72,294c-1.1.27-9.63,1.92-9.63,1.92l.27.74,13.48,11.91.83-10.72-5-4.59C217.78,293.7,217.81,294,217.72,294Z"/><path class="cls-2" d="M222.12,271.72l-19.56-12.23c7.8,8.72,26.65,32.26,26.43,30.92-.18-1.09-4.2-12-6.91-19.29Z"/><path class="cls-4" d="M125.88,237.07l17.06,24.23.16-.18c1.1-1.33,6.7-18.68,12.76-38.18l-1.93-39.48Z"/><path class="cls-1" d="M189.4,169.71l5.22-21.45-28.91,33.11-4.36-10.84-2.2,10.18-39-28.87L127.53,170,111.86,201.6l28.6-18.69s-4.4,20.62-3,20.07,11.82-6.6,11.82-6.6l-10.72,49.49,20.9,25.85,29.69-33.55L174.28,195l11,4.39L182,183.46,206,194.8Z"/><path class="cls-1" d="M189.4,169.71l5.22-21.45-28.91,33.11-4.36-10.84-2.2,10.18-39-28.87L127.53,170,111.86,201.6l28.6-18.69s-4.4,20.62-3,20.07,11.82-6.6,11.82-6.6l-10.72,49.49,20.9,25.85,29.69-33.55L174.28,195l11,4.39L182,183.46,206,194.8Z"/><polygon class="cls-2" points="175.69 195.57 168.22 178.49 165.71 181.37 161.35 170.53 161.34 170.62 161.09 269.84 189.12 238.17 174.28 195 175.69 195.57"/><polygon class="cls-2" points="183.3 184.09 173.3 172.67 171.32 174.94 184.35 199.03 185.27 199.41 181.97 183.46 183.3 184.09"/><polygon class="cls-2" points="194.62 148.26 177.81 167.52 197.44 190.75 206.02 194.8 189.4 169.71 194.62 148.26"/><path class="cls-2" d="M131.93,175.21l-19,25.71,27.55-18s-.22,1-.55,2.6c2.54-4.77,5.29-9.91,7.34-13.61L144,169.5C138.66,172,131.93,175.21,131.93,175.21Z"/><path class="cls-2" d="M144.31,185.38s-3.52,9.23-6.85,17.59c1.11-.47,7.13-3.91,10.12-5.62,3.39-7.32,8.18-17.85,8-18.57C155.3,177.68,144.31,185.38,144.31,185.38Z"/><polygon class="cls-3" points="173.3 172.67 171.32 174.94 171.88 175.98 182.47 185.87 181.97 183.46 183.3 184.09 173.3 172.67"/><path class="cls-3" d="M192,158.92l2.59-10.66-8.44,9.67Z"/><polygon class="cls-3" points="182.58 162.05 177.81 167.52 184.44 175.36 205.57 194.12 197.56 182.02 182.58 162.05"/><path class="cls-3" d="M175.69,195.57l-7.47-17.08-2.51,2.88-4.36-10.84,0,.09v3.31c2,17.83,4.7,49.21,4.7,49.21l23,14.68L174.28,195Z"/><polygon class="cls-2" points="225.35 41.45 223.56 43.51 219.99 36.91 216.96 39.04 212.08 35.05 207.27 39.38 211.05 44.47 220.61 45.17 227.89 54.99 228.85 46.67 226.38 49.35 225.35 41.45"/><path class="cls-1" d="M207.27,39.38l3.78,5.09,5,.37c-1.08-2.65-2.84-6.91-4.08-9.69Z"/><polygon class="cls-1" points="216.96 39.04 216.58 38.72 216.91 44.9 220.14 45.14 220.18 37.26 219.99 36.91 216.96 39.04"/><polygon class="cls-1" points="223.56 43.51 223.25 42.94 221.22 45.99 223.75 49.41 225.39 41.78 225.35 41.45 223.56 43.51"/><polygon class="cls-3" points="220.24 31.58 229.6 30.39 216.74 20.52 220.24 31.58"/><polygon class="cls-3" points="188.74 12.86 197.81 26.59 207.76 20.15 207.68 20 188.74 12.86"/></g></g></svg>