<svg height="512" viewBox="0 0 64 64" width="512" xmlns="http://www.w3.org/2000/svg"><path d="m54.264 45.035-12.733-3.918-12.531-12.531v-12.586h1a1 1 0 0 0 1-1v-12a1 1 0 0 0 -1-1h-24a1 1 0 0 0 -1 1v12a1 1 0 0 0 1 1h1v45a1 1 0 0 0 1 1h15a1.006 1.006 0 0 0 .555-.168l2.745-1.832h5.461l3.789 1.9a1 1 0 0 0 .45.1h23a1 1 0 0 0 1-1v-7c0-1.878 0-7.586-5.736-8.965zm-15.347-3.7c-3.706.8-11.307 3.439-11.88 11.669h-4.088a15 15 0 0 0 -13.949-13.953v-13.051h1a9.01 9.01 0 0 0 9-9v-1h8v2h-5a1 1 0 0 0 -1 1v12a1 1 0 0 0 .293.707l10 10a1 1 0 0 0 1.414 0l3.293-3.293zm-17.955 11.665h-11.962v-11.962a13.021 13.021 0 0 1 11.962 11.962zm-11.962-29v-8h8v1a7.009 7.009 0 0 1 -7 7zm21 8.414 1.586 1.586-1.293 1.293 1.414 1.414 1.293-1.293 1.586 1.586-2.586 2.586-9-9v-10.586h4v3h-2v2h2v3h-2v2h2.586l1 1-1.293 1.293 1.414 1.414zm-23-18.414v-10h22v10zm51 46h-2v-2h-2v2h-2v-2h-2v2h-2v-2h-2v2h-2v-2h-2v2h-2v-2h-2v2h-1.764l-3.789-1.9a1 1 0 0 0 -.447-.1h-6a1.006 1.006 0 0 0 -.555.168l-2.745 1.832h-1.7v-2h-2v2h-2v-2h-2v2h-2v-2h-2v2h-2v-5h49zm-2.22-7-.81-3.242a.994.994 0 0 0 -.654-.706l-9-3-.632 1.9 8.479 2.827.557 2.221h-24.676c.708-8.49 10.359-9.829 11.852-9.986l12.81 3.942.064.017c2.681.634 4 2.509 4.2 6.027z"/><path d="m13 44h-2v6a1 1 0 0 0 1 1h5v-2h-4z"/><path d="m9 7v5h2v-4h4v-2h-5a1 1 0 0 0 -1 1z"/><path d="m17 6h2v2h-2z"/><path d="m11 30h2v2h-2z"/><path d="m11 34h2v2h-2z"/></svg>