<?xml version="1.0" encoding="iso-8859-1"?>
<!-- Generator: Adobe Illustrator 19.0.0, SVG Export Plug-In . SVG Version: 6.00 Build 0)  -->
<svg version="1.1" id="Capa_1" xmlns="http://www.w3.org/2000/svg" xmlns:xlink="http://www.w3.org/1999/xlink" x="0px" y="0px"
	 viewBox="0 0 512 512" style="enable-background:new 0 0 512 512;" xml:space="preserve">
<g>
	<g>
		<path d="M511.907,248.54c-3.828-37.261-17.453-72.946-43.452-100.144c1.961-7.198,0.154-15.094-5.318-20.847
			c-1.981-2.083-4.113-4.125-6.345-6.12c0.454-2.069,0.553-4.219,0.226-6.345c-0.729-4.736-3.42-9-7.381-11.697
			c-17.772-12.102-38.714-20.409-62.25-24.696c-5.072-0.917-10.253,0.445-14.208,3.746c-1.313,1.094-2.42,2.371-3.34,3.76
			c-6.673-0.651-13.52-0.992-20.437-1.009l-40.273-5.196c-0.134-0.017-0.843-0.062-0.96-0.062H203.834
			c-0.134,0-0.836,0.046-0.96,0.062l-40.272,5.196c-6.918,0.017-13.765,0.358-20.438,1.009c-0.92-1.389-2.027-2.665-3.339-3.76
			c-3.954-3.301-9.136-4.668-14.216-3.746c-23.529,4.285-44.471,12.594-62.245,24.695c-3.961,2.698-6.651,6.962-7.38,11.699
			c-0.327,2.126-0.227,4.275,0.227,6.343c-2.234,1.997-4.366,4.04-6.345,6.121c-5.471,5.752-7.279,13.649-5.318,20.847
			C17.705,175.364,3.942,211.091,0.092,248.541c-0.9,8.771,4.862,16.971,13.405,19.076l54.088,13.339
			c9.262,2.281,18.53-3.65,20.379-12.929c3.681-18.484,11.941-31.984,17.244-39.142c0.886,0.36,1.839,0.563,2.821,0.563h28.59
			c0,10.487,0,94.023,0,104.051l-10.39,12.598c-3.833,3.452-6.016,8.336-6.016,13.523c0,4.557,0,38.401,0,42.948
			c0,4.743,1.942,9.245,5.359,12.492l10.29,13.615c1.673,2.21,6.038,4.916,11.243,4.916h217.79c5.01,0,9.464-2.565,11.243-4.916
			l10.29-13.615c3.311-3.145,5.358-7.606,5.358-12.492c0-4.547,0-38.391,0-42.948c0-5.188-2.183-10.072-6.016-13.523L375.381,333.5
			v-56.529c0-4.143-3.357-7.5-7.5-7.5c-4.143,0-7.5,3.357-7.5,7.5v14.612h-58.037c-1.518,0-2.752-1.234-2.752-2.752v-79.423
			c0-1.937,0.557-3.82,1.609-5.446l40.15-62.006v45.87c0,1.278,0.327,2.536,0.95,3.653l18.079,32.419v18.07
			c0,4.143,3.357,7.5,7.5,7.5c4.143,0,7.5-3.357,7.5-7.5v-12.521h28.59c0.981,0,1.933-0.202,2.819-0.562
			c5.308,7.164,13.566,20.661,17.246,39.141c1.847,9.28,11.121,15.209,20.379,12.929l54.086-13.339
			C507.044,265.511,512.808,257.309,511.907,248.54z M298.992,94.931c-5.766,19.4-20.422,33.858-38.869,42.378
			c-2.619,1.211-5.626,1.211-8.246,0c-18.391-8.496-33.107-23.042-38.872-42.378H298.992z M169.701,191.48
			c0.623-1.117,0.95-2.375,0.95-3.653v-45.87l40.15,62.006c1.053,1.626,1.609,3.51,1.609,5.446v80.079
			c0,1.155-0.94,2.096-2.097,2.096h-58.691v-67.686L169.701,191.48z M70.807,115.784c16.03-10.914,35.036-18.429,56.483-22.334
			c1.486-0.267,2.768,0.89,2.768,2.304v68.982c0,4.44-2.691,8.303-6.856,9.84c-4.097,1.512-8.612,0.478-11.614-3.035l-41.18-52.214
			C69.35,117.794,69.806,116.467,70.807,115.784z M51.694,161.656c13.303,17.123,10.679,13.746,17.202,22.143
			c-4.255,8.373-17.538,28.898-48.698,37.813C26.605,197.4,37.51,177.426,51.694,161.656z M73.254,265.098
			c-0.187,0.937-1.133,1.526-2.076,1.293l-54.088-13.339c-1.345-0.331-2.217-1.584-2.073-2.978c0.394-3.831,0.929-7.894,1.64-12.126
			c35.627-7.614,53.896-28.281,62.169-41.367l16.221,20.88C88.869,225.217,77.931,241.612,73.254,265.098z M111.702,214.448
			l-1.027-1.322l-0.002-0.003L59.249,146.93c-2.112-2.723-1.909-6.525,0.487-9.044c1.107-1.165,2.268-2.32,3.476-3.461
			l36.568,46.368c0.139,0.175,0.28,0.349,0.41,0.5c15.339,17.951,44.868,7.147,44.868-16.559v-63.755
			c3.483-0.313,7.021-0.535,10.591-0.665v16.258v69.304l-15.935,28.572H111.702z M364.346,343.694l10.253,12.433
			c0.912,1.11,2.188,1.604,2.188,3.494v14.022H273.503c-4.143,0-7.5,3.357-7.5,7.501c0,4.143,3.357,7.5,7.5,7.5h103.283v13.926
			c0,1.403-0.927,1.598-1.901,2.886l-9.926,13.134c-0.021,0.002-0.042,0.003-0.063,0.003H147.107c-0.021,0-0.043-0.001-0.063-0.003
			l-9.926-13.134c-0.876-1.157-1.902-1.506-1.902-2.886v-13.926H238.5c4.143,0,7.5-3.357,7.5-7.5c0-4.143-3.357-7.501-7.5-7.501
			H135.216v-14.022c0-1.88,1.257-2.365,2.188-3.494l10.254-12.433H364.346z M288.61,195.809c-2.628,4.061-4.018,8.764-4.018,13.6
			v79.423c0,9.789,7.964,17.753,17.753,17.753h58.037v22.107h-208.76v-22.107h58.692c9.428,0,17.098-7.67,17.098-17.097v-80.079
			c0-4.836-1.39-9.539-4.018-13.6l-52.742-81.453V99.275l27.07-3.493c5.554,22.547,21.747,43.033,47.723,55.077
			c0.048,0.022,0.093,0.046,0.141,0.068c6.622,3.06,14.214,3.06,20.83,0c0.024-0.011,0.047-0.023,0.071-0.034
			c26.198-12.122,42.371-32.811,47.794-55.111l27.071,3.493v15.081h0.001L288.61,195.809z M460.309,161.656
			c15.539,17.274,25.653,37.878,31.496,59.956c-31.182-8.919-44.46-29.464-48.7-37.81
			C453.716,170.144,451.057,173.566,460.309,161.656z M381.944,95.754h0.001c0-1.454,1.32-2.567,2.761-2.305
			c21.454,3.906,40.46,11.422,56.488,22.336c1,0.679,1.466,2.003,0.398,3.544l-41.106,52.122l-0.079,0.097
			c-6.374,7.458-18.463,2.866-18.463-6.813V95.754z M400.301,214.448h-28.014l-15.935-28.572v-85.562
			c3.569,0.13,7.105,0.352,10.591,0.665v63.755c0,10.792,6.541,20.178,16.662,23.912c10.835,4.002,22.235,0.175,28.638-7.88
			l36.547-46.342c1.207,1.141,2.368,2.296,3.477,3.462c2.396,2.519,2.599,6.322,0.483,9.046
			C438.591,165.16,413.194,197.85,400.301,214.448z M494.911,253.052l-54.086,13.339c-0.945,0.234-1.89-0.357-2.076-1.292v-0.001
			c-4.676-23.487-15.616-39.88-21.793-47.636l16.221-20.88c8.273,13.086,26.542,33.753,62.169,41.368
			c0.711,4.232,1.246,8.296,1.64,12.126C497.129,251.468,496.257,252.721,494.911,253.052z"/>
	</g>
</g>
<g>
</g>
<g>
</g>
<g>
</g>
<g>
</g>
<g>
</g>
<g>
</g>
<g>
</g>
<g>
</g>
<g>
</g>
<g>
</g>
<g>
</g>
<g>
</g>
<g>
</g>
<g>
</g>
<g>
</g>
</svg>
