<svg height="496pt" viewBox="-48 0 496 496" width="496pt" xmlns="http://www.w3.org/2000/svg"><path d="m397.386719 82.078125-11.046875-10.039063c-51.097656-46.453124-117.273438-72.039062-186.335938-72.039062-69.066406 0-135.242187 25.585938-186.335937 72.039062l-11.050781 10.039063c-1.917969 1.746094-2.871094 4.3125-2.5585942 6.882813l6.7265622 55.535156c16.539063 136.433594 83.3125 260.59375 188.03125 349.601562 1.496094 1.261719 3.347656 1.902344 5.1875 1.902344s3.6875-.640625 5.175782-1.902344c104.71875-89.007812 171.496093-213.167968 188.03125-349.601562l6.726562-55.535156c.320312-2.570313-.632812-5.136719-2.550781-6.882813zm-20.054688 60.496094c-15.777343 130.160156-78.664062 248.808593-177.328125 334.867187-98.664062-86.058594-161.554687-204.707031-177.328125-334.867187l-6.234375-51.429688 7.992188-7.265625c48.144531-43.773437 110.496094-67.878906 175.570312-67.878906 65.070313 0 127.421875 24.105469 175.566406 67.871094l7.992188 7.265625zm0 0"/><path d="m202.960938 40h-5.917969c-56.785157 0-111.585938 20.59375-154.3125 57.984375-2.023438 1.777344-3.023438 4.449219-2.65625 7.113281l10.304687 74.695313c14.261719 103.359375 65.535156 197.917969 144.382813 266.253906 1.503906 1.296875 3.375 1.953125 5.242187 1.953125 1.863282 0 3.734375-.65625 5.238282-1.953125 78.847656-68.335937 130.128906-162.894531 144.382812-266.253906l10.304688-74.695313c.367187-2.664062-.632813-5.335937-2.65625-7.113281-42.734376-37.390625-97.535157-57.984375-154.3125-57.984375zm-2.957032 120c-13.234375 0-24-10.769531-24-24s10.765625-24 24-24c13.230469 0 24 10.769531 24 24s-10.769531 24-24 24zm-143.480468-52.769531c19.039062-16.007813 40.542968-28.4375 63.480468-37.09375v261.648437c-27.753906-46.9375-46.203125-99.265625-53.777344-154.183594zm79.480468 249.402343v-291.777343c18.09375-5.269531 36.894532-8.191407 56-8.640625v40.585937c-18.234375 3.71875-32 19.871094-32 39.191407 0 19.320312 13.765625 35.472656 32 39.191406v246.65625c-21-19.855469-39.738281-41.710938-56-65.207032zm72 65.207032v-246.648438c18.230469-3.71875 32-19.871094 32-39.191406s-13.769531-35.472656-32-39.191406v-40.585938c19.101563.441406 37.902344 3.363282 56 8.640625v291.769531c-16.265625 23.496094-35 45.351563-56 65.207032zm125.773438-244.238282c-7.574219 54.917969-26.023438 107.246094-53.773438 154.183594v-261.648437c22.933594 8.65625 44.4375 21.078125 63.476563 37.09375zm0 0"/></svg>