<?xml version="1.0" encoding="iso-8859-1"?>
<!-- Generator: Adobe Illustrator 19.0.0, SVG Export Plug-In . SVG Version: 6.00 Build 0)  -->
<svg version="1.1" id="Layer_1" xmlns="http://www.w3.org/2000/svg" xmlns:xlink="http://www.w3.org/1999/xlink" x="0px" y="0px"
	 viewBox="0 0 512 512" style="enable-background:new 0 0 512 512;" xml:space="preserve">
<g transform="translate(0 1)">
	<g>
		<g>
			<path d="M430.825,148.333c0-21.333-17.067-38.4-38.4-38.4c-7.68,0-15.36,2.56-21.333,6.827V54.467
				c0-21.333-17.067-38.4-38.4-38.4c-9.387,0-17.067,3.413-23.893,8.533C303.678,9.24,289.172-1,272.958-1
				c-21.333,0-38.4,17.067-38.4,38.4v2.56c-5.973-4.267-13.653-6.827-21.333-6.827c-21.333,0-38.4,17.067-38.4,38.4v151.04
				c-7.68-16.213-17.92-31.573-28.16-41.813c-13.653-13.653-40.96-14.507-56.32-1.707c-4.267,4.267-18.773,19.627,0.853,46.933
				c17.92,25.6,32.427,81.92,32.427,114.347c0,68.385,44.328,99.121,59.733,107.576v37.49c0,14.507,11.093,25.6,25.6,25.6h170.667
				c14.507,0,25.6-11.093,25.6-25.6v-39.558c25.596-34.759,25.6-38.832,25.6-105.509V148.333z M388.158,485.4
				c0,5.12-3.413,8.533-8.533,8.533H208.958c-5.12,0-8.533-3.413-8.533-8.533v-34.133h187.733V485.4z M413.758,340.333
				c0,63.147,0,64.853-21.333,93.867H193.598c-8.533-4.267-52.907-29.867-52.907-93.867c0-31.573-13.653-93.867-35.84-124.587
				c-5.973-7.68-11.093-17.92-3.413-23.893c8.533-6.827,25.6-6.827,33.28,0.853c21.333,21.333,40.107,66.56,40.107,87.893
				c0,5.12,3.413,8.533,8.533,8.533s8.533-3.413,8.533-8.533V71.533c0-11.947,9.387-21.333,21.333-21.333
				s21.333,9.387,21.333,21.333V229.4c0,5.12,3.413,8.533,8.533,8.533s8.533-3.413,8.533-8.533v-192
				c0-11.947,9.387-21.333,21.333-21.333s21.333,9.387,21.333,21.333v16.213v0.853v183.467c0,5.12,3.413,8.533,8.533,8.533
				s8.533-3.413,8.533-8.533V53.613c0-11.093,9.387-20.48,21.333-20.48s21.333,9.387,21.333,21.333v93.013v0.853V255
				c0,5.12,3.413,8.533,8.533,8.533s8.533-3.413,8.533-8.533V147.48c0.853-11.093,10.24-20.48,21.333-20.48
				c11.947,0,21.333,9.387,21.333,21.333V340.333z"/>
			<path d="M226.025,485.4c5.12,0,8.533-3.413,8.533-8.533v-8.533c0-5.12-3.413-8.533-8.533-8.533c-5.12,0-8.533,3.413-8.533,8.533
				v8.533C217.492,481.987,220.905,485.4,226.025,485.4z"/>
			<path d="M260.158,485.4c5.12,0,8.533-3.413,8.533-8.533v-8.533c0-5.12-3.413-8.533-8.533-8.533c-5.12,0-8.533,3.413-8.533,8.533
				v8.533C251.625,481.987,255.038,485.4,260.158,485.4z"/>
			<path d="M294.292,485.4c5.12,0,8.533-3.413,8.533-8.533v-8.533c0-5.12-3.413-8.533-8.533-8.533c-5.12,0-8.533,3.413-8.533,8.533
				v8.533C285.758,481.987,289.172,485.4,294.292,485.4z"/>
			<path d="M328.425,485.4c5.12,0,8.533-3.413,8.533-8.533v-8.533c0-5.12-3.413-8.533-8.533-8.533s-8.533,3.413-8.533,8.533v8.533
				C319.892,481.987,323.305,485.4,328.425,485.4z"/>
			<path d="M362.558,485.4c5.12,0,8.533-3.413,8.533-8.533v-8.533c0-5.12-3.413-8.533-8.533-8.533s-8.533,3.413-8.533,8.533v8.533
				C354.025,481.987,357.438,485.4,362.558,485.4z"/>
		</g>
	</g>
</g>
<g>
</g>
<g>
</g>
<g>
</g>
<g>
</g>
<g>
</g>
<g>
</g>
<g>
</g>
<g>
</g>
<g>
</g>
<g>
</g>
<g>
</g>
<g>
</g>
<g>
</g>
<g>
</g>
<g>
</g>
</svg>
