<svg height="511pt" viewBox="-25 0 511 511.99977" width="511pt" xmlns="http://www.w3.org/2000/svg"><path d="m457.984375 88.539062-119.863281-87.078124c-3.410156-2.476563-8.183594-1.726563-10.667969 1.683593-22.433594 30.832031-58.558594 49.234375-96.636719 49.234375-38.074218 0-74.199218-18.40625-96.632812-49.234375-2.484375-3.410156-7.257813-4.164062-10.671875-1.683593l-119.863281 87.078124c-2.257813 1.644532-3.441407 4.386719-3.085938 7.160157l46.570312 361.074219c.394532 3.050781 2.578126 5.570312 5.546876 6.386718l176.105468 48.566406c.664063.179688 1.347656.273438 2.03125.273438s1.367188-.09375 2.03125-.273438l176.109375-48.566406c2.964844-.816406 5.152344-3.335937 5.542969-6.386718l31.75-246.164063c.539062-4.183594-2.414062-8.015625-6.597656-8.554687-4.179688-.535157-8.015625 2.414062-8.554688 6.601562l-25.316406 196.289062-50.234375-286.980468c-.726563-4.15625-4.679687-6.9375-8.84375-6.207032-4.15625.726563-6.933594 4.6875-6.207031 8.839844l57.707031 329.675782-64.546875 17.800781-21.902344-132.992188c-.6875-4.164062-4.601562-6.984375-8.78125-6.296875-4.160156.683594-6.980468 4.613282-6.296875 8.777344l22.167969 134.597656-88.027344 24.273438-88.023437-24.273438 22.164062-134.597656c.6875-4.164062-2.132812-8.09375-6.296875-8.777344-4.164062-.683594-8.09375 2.132813-8.78125 6.296875l-21.902344 132.992188-64.546874-17.800781 57.707031-329.675782c.726562-4.152344-2.050781-8.113281-6.207031-8.839844-4.152344-.726562-8.117188 2.050782-8.84375 6.207032l-50.230469 286.980468-39.558594-306.707031 80.804687-58.703125c5.351563 6.695313 11.207032 13.011719 17.484376 18.835938 1.472656 1.363281 3.335937 2.035156 5.191406 2.035156 2.054687 0 4.101562-.820312 5.605468-2.445312 2.871094-3.09375 2.6875-7.929688-.40625-10.796876-5.550781-5.148437-10.746093-10.71875-15.503906-16.617187l17.023438-12.367187c25.480468 31.113281 63.929687 49.480468 104.324218 49.480468 40.394532 0 78.839844-18.367187 104.320313-49.480468l17.003906 12.355468c-29.5 36.570313-74.289062 58.199219-121.328125 58.199219-29.378906 0-58.011718-8.253906-82.800781-23.875-3.570313-2.246094-8.289063-1.175781-10.535156 2.394531-2.25 3.570313-1.179688 8.285156 2.390625 10.535156 27.234375 17.15625 58.679687 26.222657 90.945312 26.222657 51.910156 0 101.324219-23.980469 133.703125-64.488281l80.820313 58.710937-10.121094 78.460937c-.539062 4.183594 2.414062 8.015626 6.601562 8.554688 4.179688.539062 8.011719-2.414062 8.550782-6.601562l10.699218-82.953126c.359376-2.769531-.824218-5.511718-3.085937-7.15625zm0 0"/></svg>