<svg id="Layer_1" enable-background="new 0 0 512 512" height="512" viewBox="0 0 512 512" width="512" xmlns="http://www.w3.org/2000/svg"><path d="m442.514 282.033c5.629-18.413 8.486-37.545 8.486-57.033 0-91.732-63.698-169.881-151.141-190.032-4.573-19.998-22.495-34.968-43.859-34.968s-39.286 14.97-43.859 34.968c-87.631 20.194-151.141 98.494-151.141 190.032 0 19.488 2.857 38.62 8.486 57.033-14.889 13.795-19.142 36.761-8.341 55.467 3.69 6.391 8.783 11.659 14.855 15.497v97.003h30v-90.371c2.502-.328 4.971-.891 7.393-1.643 11.565 12.412 24.608 23.196 38.958 32.205-.884 5.475-1.351 11.088-1.351 16.809 0 57.897 47.103 105 105 105s105-47.103 105-105c0-5.721-.467-11.334-1.352-16.809 14.35-9.009 27.394-19.793 38.958-32.205 2.423.752 4.891 1.315 7.394 1.643v90.371h30v-97.003c6.073-3.838 11.166-9.106 14.855-15.497 10.798-18.7 6.554-41.667-8.341-55.467zm-17.639 40.467c-4.131 7.155-13.335 9.62-20.49 5.491-7.155-4.131-9.621-13.336-5.491-20.491 4.116-7.128 13.294-9.645 20.491-5.491 7.162 4.136 9.625 13.328 5.49 20.491zm-168.875-292.5c8.271 0 15 6.729 15 15s-6.729 15-15 15-15-6.729-15-15 6.729-15 15-15zm-148.385 297.991c-7.154 4.13-16.36 1.663-20.49-5.491-4.135-7.163-1.672-16.355 5.49-20.491 7.208-4.161 16.381-1.626 20.491 5.491 4.131 7.155 1.663 16.36-5.491 20.491zm190.805 64.009c-4.527-12.764-14.656-22.893-27.42-27.42v-31.071c29.344 5.98 52.51 29.147 58.491 58.491zm-42.42 30c-8.271 0-15-6.729-15-15s6.729-15 15-15 15 6.729 15 15-6.729 15-15 15zm-15-57.42c-12.764 4.527-22.893 14.656-27.42 27.42h-31.071c5.98-29.344 29.147-52.51 58.491-58.491zm-58.491 57.42h31.071c4.527 12.764 14.656 22.893 27.42 27.42v31.071c-29.343-5.981-52.51-29.147-58.491-58.491zm88.491 58.491v-31.071c12.764-4.527 22.893-14.656 27.42-27.42h31.071c-5.981 29.344-29.147 52.51-58.491 58.491zm79.137-119.963c-17.174-34.648-52.917-58.528-94.137-58.528s-76.963 23.88-94.137 58.528c-8.735-6.072-16.845-12.962-24.269-20.622 9.142-13.806 10.334-32.094 1.492-47.407-8.823-15.282-25.319-23.423-41.841-22.395-4.142-14.597-6.245-29.714-6.245-45.104 0-76.532 51.698-141.862 124.682-160.044 7.369 14.826 22.669 25.044 40.318 25.044s32.949-10.218 40.318-25.044c72.984 18.182 124.682 83.512 124.682 160.044 0 15.39-2.103 30.507-6.245 45.105-16.522-1.029-33.018 7.111-41.841 22.395-8.812 15.262-7.673 33.565 1.492 47.407-7.424 7.659-15.533 14.55-24.269 20.621z"/></svg>