<?xml version="1.0" encoding="iso-8859-1"?>
<!-- Generator: Adobe Illustrator 16.0.0, SVG Export Plug-In . SVG Version: 6.00 Build 0)  -->
<!DOCTYPE svg PUBLIC "-//W3C//DTD SVG 1.1//EN" "http://www.w3.org/Graphics/SVG/1.1/DTD/svg11.dtd">
<svg version="1.1" id="Capa_1" xmlns="http://www.w3.org/2000/svg" xmlns:xlink="http://www.w3.org/1999/xlink" x="0px" y="0px"
	 width="433.082px" height="433.083px" viewBox="0 0 433.082 433.083" style="enable-background:new 0 0 433.082 433.083;"
	 xml:space="preserve">
<g>
	<g>
		<path d="M305.258,71.965c10.724-14.396,29.062-28.787,23.166-40.563c-5.895-11.776-3.285-10.463-9.826-7.851l-6.54-9.161
			L289.809,0h-73.266h-73.268l-22.241,14.391l-6.546,9.161c-6.54-2.613-3.925-3.925-9.828,7.851
			c-5.905,11.776,12.441,26.167,23.167,40.563c6.931,9.295-14.95,40.391-31.324,61.29c-33.215,31.707-53.98,76.368-53.98,125.809
			c0,95.95,78.062,174.019,174.021,174.019c95.96,0,174.017-78.068,174.017-174.019c0-49.441-20.759-94.102-53.984-125.809
			C320.201,112.356,298.328,81.261,305.258,71.965z M216.543,401.68c-78.646,0-142.618-63.975-142.618-142.616
			c0-42.054,18.41-79.8,47.454-105.926c8.219-7.388,17.192-13.942,26.96-19.29c6.18-18.107,34.346-31.793,68.205-31.793
			c33.86,0,62.029,13.686,68.192,31.793c9.766,5.34,18.751,11.902,26.962,19.29c29.046,26.126,47.456,63.872,47.456,105.926
			C359.161,337.706,295.19,401.68,216.543,401.68z"/>
	</g>
</g>
<g>
</g>
<g>
</g>
<g>
</g>
<g>
</g>
<g>
</g>
<g>
</g>
<g>
</g>
<g>
</g>
<g>
</g>
<g>
</g>
<g>
</g>
<g>
</g>
<g>
</g>
<g>
</g>
<g>
</g>
</svg>
