<?xml version="1.0" encoding="windows-1252"?>
<!-- Generator: Adobe Illustrator 19.0.0, SVG Export Plug-In . SVG Version: 6.00 Build 0)  -->
<svg version="1.1" id="Capa_1" xmlns="http://www.w3.org/2000/svg" xmlns:xlink="http://www.w3.org/1999/xlink" x="0px" y="0px" viewBox="0 0 512 512" style="enable-background:new 0 0 512 512;" xml:space="preserve">
<g>
	<g>
		<path d="M374.084,15.271c-3.875-2.851-8.951-3.282-13.255-1.128l-25.487,12.771l-17.679-2.899L297.587,3.772    c-3.387-3.413-8.338-4.626-12.92-3.161c-4.582,1.465-7.912,5.323-8.691,10.07l-12.097,73.78c-0.626,3.827,0.5,7.679,3.091,10.566    l24.212,26.972l-12.698,77.443h-44.973l-12.818-77.052l24.49-27.411c2.585-2.893,3.702-6.747,3.066-10.575l-12.266-73.75    c-0.79-4.745-4.129-8.596-8.713-10.05c-4.585-1.456-9.534-0.231-12.914,3.192l-20.026,20.288l-17.674,2.94l-25.517-12.711    c-4.307-2.148-9.383-1.701-13.251,1.159c-3.867,2.859-5.78,7.584-4.991,12.33l12.269,73.75c0.637,3.828,2.943,7.113,6.324,9.012    l31.6,17.756l11.831,71.122h-10.927c-9.789,0-17.752,7.963-17.752,17.752v18.055c0,9.43,7.397,17.143,16.69,17.697v31.112v36.56    v31.254c0,4.145,3.359,7.503,7.503,7.503s7.503-3.358,7.503-7.503v-23.751h112.232v140.909c0,15.421-12.546,27.966-27.968,27.966    h-56.298c-15.421,0-27.966-12.546-27.966-27.966v-70.306c0-4.145-3.359-7.503-7.503-7.503s-7.503,3.358-7.503,7.503v70.306    c0,23.696,19.277,42.972,42.972,42.972h56.298c23.696,0,42.973-19.277,42.973-42.972V320.617v-0.001v-36.56v-0.001v-31.111    c9.294-0.554,16.69-8.268,16.69-17.697v-18.055c0-9.789-7.963-17.752-17.752-17.752h-7.051l11.635-70.966l32.004-18.082    c3.38-1.909,5.677-5.201,6.303-9.026l12.098-73.779C379.882,22.841,377.958,18.122,374.084,15.271z M159.789,98.016L148.43,29.727    l19.909,9.919l11.592,69.688L159.789,98.016z M278.864,85.812l11.2-68.315l15.664,15.793l-11.43,69.715L278.864,85.812z     M221.913,17.502l11.36,68.289l-15.613,17.475l-11.596-69.708L221.913,17.502z M184.037,41.009l7.696-1.281l26.568,159.713h-8.168    l-12.486-75.054c0.058-0.63,0.048-1.272-0.059-1.916L184.037,41.009z M310.171,276.554h-21.878c-4.145,0-7.503,3.358-7.503,7.503    c0,4.145,3.358,7.503,7.503,7.503h21.878v21.554H197.939v-21.554h43.805c4.144,0,7.503-3.358,7.503-7.503    c0-4.145-3.359-7.503-7.503-7.503h-43.805v-23.555h112.232V276.554z M324.115,214.447c1.515,0,2.746,1.231,2.746,2.746v18.055    c0,1.514-1.231,2.745-2.746,2.745h-6.44H190.437h-6.441c-1.514,0-2.746-1.232-2.746-2.745v-18.055    c0-1.515,1.231-2.746,2.746-2.746H324.115z M301.858,199.442h-8.166l12.541-76.482c0.258-0.58,0.456-1.192,0.561-1.837    l13.362-81.493l7.698,1.261L301.858,199.442z M352.375,97.866l-20.402,11.525l11.434-69.735l20.17-10.107L352.375,97.866z"/>
	</g>
</g>
<g>
</g>
<g>
</g>
<g>
</g>
<g>
</g>
<g>
</g>
<g>
</g>
<g>
</g>
<g>
</g>
<g>
</g>
<g>
</g>
<g>
</g>
<g>
</g>
<g>
</g>
<g>
</g>
<g>
</g>
</svg>