<?xml version="1.0" encoding="iso-8859-1"?>
<!-- Generator: Adobe Illustrator 19.0.0, SVG Export Plug-In . SVG Version: 6.00 Build 0)  -->
<svg version="1.1" id="Capa_1" xmlns="http://www.w3.org/2000/svg" xmlns:xlink="http://www.w3.org/1999/xlink" x="0px" y="0px"
	 viewBox="0 0 512 512" style="enable-background:new 0 0 512 512;" xml:space="preserve">
<path style="fill:#7A6CF7;" d="M509.26,441.68C509.26,480.518,395.878,512,256,512S2.74,480.518,2.74,441.68
	c0-19.862,29.68-37.808,77.398-50.592C125.692,378.88,187.689,371.37,256,371.37s130.308,7.51,175.862,19.718
	C479.58,403.872,509.26,421.818,509.26,441.68z"/>
<g>
	<path style="fill:#6959E2;" d="M509.26,441.68C509.26,480.518,395.878,512,256,512S2.74,480.518,2.74,441.68
		c0-2.4,0.433-4.77,1.278-7.108c12.836,35.5,120.747,63.212,251.982,63.212s239.146-27.712,251.982-63.212
		C508.827,436.91,509.26,439.279,509.26,441.68z"/>
	<path style="fill:#6959E2;" d="M439.177,424.218c-0.515,0.783-3.235,4.698-9.344,10.086c-6.099,5.388-15.576,12.249-29.607,18.935
		c-35.665,16.988-84.197,25.6-144.225,25.6s-108.56-8.612-144.225-25.6c-28.062-13.372-37.921-27.454-38.951-29.02
		c-1.463-2.215-2.215-4.79-2.215-7.376c0-1.731,0.33-3.461,1.01-5.11l8.52-20.645C125.692,378.88,187.689,371.37,256,371.37
		s130.308,7.51,175.862,19.718l8.52,20.645C442.071,415.843,441.618,420.52,439.177,424.218z"/>
</g>
<path style="fill:#7A6CF7;" d="M399.813,348.562l26.454,64.086c1.132,2.743,0.537,5.889-1.518,8.029
	c-11.019,11.478-52.96,44.769-168.75,44.769c-115.791,0-157.731-33.291-168.75-44.769c-2.055-2.141-2.65-5.286-1.518-8.029
	l26.455-64.097l5.13-12.434L254.422,3.824C255.377,1.51,257.633,0,260.136,0h77.389c2.268,0,4.354,1.242,5.434,3.236l71.938,132.753
	c3.154,5.82-3.81,11.855-9.122,7.905L326.68,85.093l-12.589-9.364l-0.237-0.175l-7.077,7.077l-11.796,11.796l-0.021,0.021
	l99.722,241.681L399.813,348.562z"/>
<path style="fill:#9391F9;" d="M348.459,13.392h-82.95L126.826,349.51l-5.13,12.434L94.705,427.33
	c-3.328-2.604-5.762-4.892-7.46-6.66c-2.054-2.138-2.643-5.282-1.512-8.023l26.454-64.095l5.13-12.434L254.422,3.824
	C255.377,1.51,257.633,0,260.136,0h77.388c2.269,0,4.355,1.243,5.435,3.238L348.459,13.392z"/>
<path style="fill:#6959E2;" d="M426.268,412.648c1.132,2.743,0.537,5.889-1.518,8.029c-11.019,11.478-52.96,44.769-168.75,44.769
	c-115.791,0-157.731-33.291-168.75-44.769c-2.055-2.141-2.65-5.286-1.518-8.029l26.455-64.097l5.13-12.434l1.102,0.577
	C140.486,348.304,182.27,362.14,256,362.14c73.72,0,115.504-13.825,137.581-25.435l1.102-0.577l5.13,12.434L426.268,412.648z"/>
<path style="fill:#FFDC13;" d="M426.267,412.652c1.132,2.743,0.537,5.888-1.518,8.029c-11.018,11.477-52.956,44.766-168.749,44.766
	c-115.794,0-157.732-33.289-168.75-44.767c-2.055-2.14-2.65-5.286-1.518-8.028l26.452-64.101
	c24.679,12.981,68.715,26.983,143.815,26.983s119.136-14.002,143.815-26.973L426.267,412.652z"/>
<path style="fill:#FFED97;" d="M404.964,361.048c-27.526,13.3-73.813,28.083-148.964,28.083s-121.438-14.783-148.964-28.093
	l5.151-12.486c24.673,12.98,68.713,26.98,143.813,26.98s119.14-14,143.813-26.97L404.964,361.048z"/>
<g>
	<path style="fill:#6959E2;" d="M306.778,82.631l-11.796,11.796c-0.134-0.247-0.258-0.505-0.371-0.773l-14.072-34.089
		c-1.628-3.946,0.247-8.458,4.193-10.086c3.945-1.638,8.458,0.247,10.085,4.193L306.778,82.631z"/>
	<path style="fill:#6959E2;" d="M336.694,75.553l-10.014,9.54l-12.589-9.364l11.95-11.363c3.08-2.946,7.974-2.823,10.92,0.268
		C339.908,67.724,339.785,72.607,336.694,75.553z"/>
</g>
<path style="fill:#FFDC13;" d="M256.113,303.321l-20.527,10.792c-2.614,1.374-5.67-0.846-5.17-3.757l3.92-22.858l-16.607-16.188
	c-2.115-2.062-0.948-5.654,1.975-6.078l22.95-3.335l10.264-20.796c1.307-2.649,5.084-2.649,6.391,0l10.264,20.796l22.95,3.335
	c2.923,0.425,4.09,4.017,1.975,6.078l-16.607,16.188l3.92,22.858c0.499,2.911-2.556,5.131-5.17,3.757L256.113,303.321z"/>
<g>
</g>
<g>
</g>
<g>
</g>
<g>
</g>
<g>
</g>
<g>
</g>
<g>
</g>
<g>
</g>
<g>
</g>
<g>
</g>
<g>
</g>
<g>
</g>
<g>
</g>
<g>
</g>
<g>
</g>
</svg>
