<?xml version="1.0" encoding="iso-8859-1"?>
<!-- Generator: Adobe Illustrator 19.0.0, SVG Export Plug-In . SVG Version: 6.00 Build 0)  -->
<svg version="1.1" id="Capa_1" xmlns="http://www.w3.org/2000/svg" xmlns:xlink="http://www.w3.org/1999/xlink" x="0px" y="0px"
	 viewBox="0 0 512.003 512.003" style="enable-background:new 0 0 512.003 512.003;" xml:space="preserve">
<g transform="matrix(1.25 0 0 -1.25 0 45)">
	<polygon style="fill:#CCD6DD;" points="68.267,30.31 11.378,30.31 11.378,-26.579 273.068,-288.269 329.957,-231.38 	"/>
	<polygon style="fill:#9AAAB4;" points="11.378,30.311 11.378,-26.578 273.067,-288.268 301.512,-259.824 	"/>
	<g>
		<path style="fill:#642116;" d="M365.711-345.48c8.886-8.886,20.89-11.287,26.817-5.37c5.928,5.928,3.527,17.932-5.359,26.829
			l-59.006,69.723c-8.875,8.886-20.901,11.287-26.806,5.359l-10.74-10.718c-5.916-5.939-3.515-17.932,5.37-26.817L365.711-345.48z"
			/>
		<path style="fill:#BF6952;" d="M255.757-302.569c6.668-6.668,17.477-6.668,24.133,0l64.376,64.353
			c6.668,6.668,6.656,17.477,0,24.144c-6.668,6.656-17.477,6.668-24.144,0l-64.364-64.364
			C249.101-285.104,249.101-295.913,255.757-302.569"/>
		<path style="fill:#FCAB40;" d="M356.336-362.912c6.656-6.668,17.465-6.668,24.133,0l24.133,24.133
			c6.668,6.668,6.668,17.477,0,24.144c-6.668,6.656-17.465,6.668-24.133,0l-24.133-24.144
			C349.669-345.437,349.669-356.246,356.336-362.912"/>
		<polygon style="fill:#CCD6DD;" points="79.639,-231.38 136.525,-288.269 398.224,-26.579 398.224,30.31 341.34,30.31 		"/>
	</g>
	<polygon style="fill:#9AAAB4;" points="108.087,-259.827 136.534,-288.269 398.224,-26.579 398.224,30.31 	"/>
	<g>
		<g>
			<polygon style="fill:#642116;" points="17.071,-350.85 17.072,-350.851 17.071,-350.849 			"/>
			<polygon style="fill:#642116;" points="113.611,-286.475 81.433,-254.302 29.807,-315.305 52.6,-338.108 			"/>
		</g>
		<path style="fill:#BF6952;" d="M129.707-302.568c6.656-6.668,17.477-6.668,24.133,0c6.656,6.656,6.656,17.465,0,24.133
			l-64.364,64.364c-6.668,6.668-17.465,6.656-24.133,0c-6.668-6.668-6.668-17.477,0-24.144l16.09-16.086l32.179-32.173
			L129.707-302.568z"/>
		<path style="fill:#FCAB40;" d="M53.272-338.781l-0.673,0.673l-22.792,22.803l-0.668,0.668c-6.668,6.668-17.477,6.656-24.144,0
			c-3.325-3.331-4.992-7.695-4.996-12.06v-0.024c0.002-4.365,1.666-8.729,4.996-12.06l12.075-12.069l0.001-0.001l12.068-12.062
			c6.656-6.668,17.477-6.668,24.133,0C59.928-356.246,59.928-345.437,53.272-338.781z"/>
	</g>
</g>
<g>
</g>
<g>
</g>
<g>
</g>
<g>
</g>
<g>
</g>
<g>
</g>
<g>
</g>
<g>
</g>
<g>
</g>
<g>
</g>
<g>
</g>
<g>
</g>
<g>
</g>
<g>
</g>
<g>
</g>
</svg>
