<svg height="511pt" viewBox="1 -21 511.999 511" width="511pt" xmlns="http://www.w3.org/2000/svg"><path d="m402.210938 43.753906c-11.292969 0-22.183594 1.847656-32.433594 5.277344-7.285156 2.4375-15.242188.214844-20.347656-5.519531-23.601563-26.515625-56.734376-43.011719-93.429688-43.011719-34.621094 0-66.484375 15.171875-89.75 39.101562-6.816406 8.078126-17.753906 11.171876-27.902344 8.21875-9.105468-2.652343-18.679687-4.066406-28.558594-4.066406-60.632812 0-109.789062 53.230469-109.789062 118.894532 0 58.894531 39.542969 107.78125 91.445312 117.234374 6.832032 1.246094 11.792969 7.203126 11.792969 14.148438v155.511719c0 11 8.917969 19.917969 19.917969 19.917969h264.078125c11 0 19.917969-8.917969 19.917969-19.917969v-155.269531c0-7 5.050781-12.980469 11.957031-14.136719 52.609375-8.800781 92.890625-58.046875 92.890625-117.488281 0-65.664063-49.15625-118.894532-109.789062-118.894532zm0 0" fill="#e8e2e4"/><g fill="#d6d0d3"><path d="m123.84375 449.542969v-155.511719c0-6.945312-4.960938-12.902344-11.792969-14.148438-51.902343-9.453124-91.445312-58.339843-91.445312-117.234374 0-61.898438 43.675781-112.738282 99.476562-118.367188-3.390625-.34375-6.820312-.527344-10.292969-.527344-60.632812 0-109.789062 53.230469-109.789062 118.894532 0 58.894531 39.542969 107.78125 91.445312 117.234374 6.832032 1.246094 11.792969 7.203126 11.792969 14.148438v155.511719c0 11 8.917969 19.917969 19.917969 19.917969h20.605469c-11 0-19.917969-8.917969-19.917969-19.917969zm0 0"/><path d="m158.949219 47.820312c10.152343 2.957032 21.089843-.140624 27.90625-8.21875 20.957031-21.554687 48.898437-36 79.542969-38.652343-3.429688-.296875-6.898438-.449219-10.398438-.449219-34.621094 0-66.484375 15.175781-89.75 39.101562-2.835938 3.359376-6.386719 5.84375-10.296875 7.402344 1.003906.257813 2.003906.527344 2.996094.816406zm0 0"/><path d="m153.890625 420.71875c-4.269531 0-7.726563-3.457031-7.726563-7.726562v-60.066407c0-4.269531 3.457032-7.726562 7.726563-7.726562 4.265625 0 7.726563 3.457031 7.726563 7.726562v60.066407c0 4.269531-3.460938 7.726562-7.726563 7.726562zm0 0"/><path d="m204.542969 420.71875c-4.265625 0-7.726563-3.457031-7.726563-7.726562v-60.066407c0-4.269531 3.457032-7.726562 7.726563-7.726562s7.726562 3.457031 7.726562 7.726562v60.066407c0 4.269531-3.460937 7.726562-7.726562 7.726562zm0 0"/><path d="m255.195312 420.71875c-4.265624 0-7.726562-3.457031-7.726562-7.726562v-60.066407c0-4.269531 3.457031-7.726562 7.726562-7.726562 4.265626 0 7.726563 3.457031 7.726563 7.726562v60.066407c0 4.269531-3.457031 7.726562-7.726563 7.726562zm0 0"/><path d="m305.847656 420.71875c-4.265625 0-7.726562-3.457031-7.726562-7.726562v-60.066407c0-4.269531 3.457031-7.726562 7.726562-7.726562 4.269532 0 7.726563 3.457031 7.726563 7.726562v60.066407c0 4.269531-3.460938 7.726562-7.726563 7.726562zm0 0"/><path d="m356.5 420.71875c-4.265625 0-7.726562-3.457031-7.726562-7.726562v-60.066407c0-4.269531 3.457031-7.726562 7.726562-7.726562s7.726562 3.457031 7.726562 7.726562v60.066407c0 4.269531-3.460937 7.726562-7.726562 7.726562zm0 0"/><path d="m401.992188 117.746094c-4.203126-32.160156-18.011719-56.023438-28.332032-69.929688-1.304687.382813-2.597656.785156-3.882812 1.214844-6.585938 2.203125-13.714844.589844-18.796875-3.976562.035156.03125.0625.066406.097656.097656.292969.277344 29.515625 28.089844 35.589844 74.59375.554687 4.226562 4.425781 7.214844 8.664062 6.660156 4.230469-.550781 7.214844-4.429688 6.660157-8.660156zm0 0"/><path d="m160.640625 45.15625c.460937-.429688.851563-.90625 1.183594-1.410156-6.632813 4.90625-15.308594 6.453125-23.476563 4.074218-.082031-.023437-.160156-.042968-.242187-.066406-10.324219 13.898438-24.167969 37.785156-28.378907 69.992188-.605468 4.625 3 8.726562 7.671876 8.726562 3.824218 0 7.144531-2.832031 7.652343-6.726562 6.058594-46.363282 35.121094-74.148438 35.589844-74.589844zm0 0"/></g><path d="m103.238281 408.375v41.167969c0 11 8.917969 19.917969 19.917969 19.917969h264.078125c11 0 19.917969-8.917969 19.917969-19.917969v-41.167969zm0 0" fill="#e95353"/><path d="m123.84375 449.542969v-41.167969h-20.605469v41.167969c0 10.996093 8.914063 19.917969 19.917969 19.917969h20.605469c-11 0-19.917969-8.917969-19.917969-19.917969zm0 0" fill="#d44545"/></svg>