<svg xmlns="http://www.w3.org/2000/svg" viewBox="0 0 322 323" width="322" height="323">
	<style>
		tspan { white-space:pre }
		.shp0 { fill: #717171 } 
		.shp1 { fill: #905e20 } 
		.shp2 { fill: #8d8d8d } 
		.shp3 { fill: #b57425 } 
	</style>
	<g id="Layer">
		<path id="Layer" class="shp0" d="M204.58 73.95L149.22 73.95L143.06 37.04L149.22 0.14L204.58 0.14L204.58 73.95Z" />
		<path id="Layer" class="shp0" d="M303 162.07L272.24 186.67L241.49 162.07L241.49 2.14L303 2.14L303 162.07Z" />
		<path id="Layer" class="shp1" d="M81.55 63.65L130.76 63.65L130.76 322L81.55 322L81.55 63.65Z" />
		<path id="Layer" class="shp1" d="M241.49 211.28L303 211.28L303 291.24C303 308.23 289.23 322 272.24 322C255.26 322 241.49 308.23 241.49 291.24L241.49 211.28Z" />
		<path id="Layer" class="shp2" d="M143.06 39.04C143.06 59.43 126.54 75.95 106.16 75.95C85.78 75.95 69.25 59.43 69.25 39.04C69.25 18.66 85.78 2.14 106.16 2.14C126.54 2.14 143.06 18.66 143.06 39.04Z" />
		<path id="Layer" class="shp0" d="M44.65 14.44L69.25 14.44L69.25 63.65L44.65 63.65C31.06 63.65 20.04 52.63 20.04 39.04C20.04 25.45 31.06 14.44 44.65 14.44Z" />
		<path id="Layer" class="shp2" d="M241.49 186.67L303 186.67L303 211.28L241.49 211.28L241.49 186.67Z" />
		<path id="Layer" class="shp3" d="M100.01 291.24L112.31 291.24L112.31 322L100.01 322L100.01 291.24Z" />
		<path id="Layer" class="shp3" d="M100.01 266.64L112.31 266.64L112.31 278.94L100.01 278.94L100.01 266.64Z" />
		<path id="Layer" class="shp3" d="M100.01 242.03L112.31 242.03L112.31 254.34L100.01 254.34L100.01 242.03Z" />
		<path id="Layer" class="shp3" d="M272.24 303.55C268.84 303.55 266.09 300.79 266.09 297.39C266.09 294 268.84 291.24 272.24 291.24L272.24 235.88C272.24 232.48 274.99 229.73 278.39 229.73C281.79 229.73 284.54 232.48 284.54 235.88L284.54 291.24C284.54 298.04 279.03 303.54 272.24 303.55Z" />
	</g>
</svg>