<?xml version="1.0"?>
<svg xmlns="http://www.w3.org/2000/svg" id="Capa_1" enable-background="new 0 0 511.993 511.993" height="512px" viewBox="0 0 511.993 511.993" width="512px" class=""><g><path d="m435.996 60.993h-8.95c-58.535 0-115.957-21.142-161.675-57.719-2.739-2.183-6.057-3.274-9.375-3.274s-6.636 1.091-9.375 3.274c-45.718 36.577-103.14 57.719-161.675 57.719h-8.95c-8.291 0-15 6.709-15 15v207.524c0 113.101 80.977 209.682 192.539 228.271.806.132 1.641.205 2.461.205s1.655-.073 2.461-.205c111.563-18.589 192.539-115.17 192.539-228.271v-207.524c0-8.291-6.709-15-15-15z" fill="#76e2f8" data-original="#76E2F8" class="" data-old_color="#76e2f8" style="fill:#CECECE"/><path d="m450.996 283.517v-207.524c0-8.291-6.709-15-15-15h-8.95c-58.535 0-115.957-21.142-161.675-57.719-2.739-2.183-6.057-3.274-9.375-3.274v511.993c.82 0 1.655-.073 2.461-.205 111.563-18.589 192.539-115.17 192.539-228.271z" fill="#4bb9ec" data-original="#4BB9EC" class="" data-old_color="#4bb9ec" style="fill:#989898"/><path d="m255.996 450.835c1.143 0 2.285-.132 3.398-.396 77.49-18.018 131.602-87.25 131.602-166.923v-27.524l-24.93-30h-77.958l-32.113 30-30 25.458v120.789z" fill="#f03800" data-original="#F03800" class=""/><path d="m252.598 450.44c1.113.264 2.256.396 3.398.396v-194.843l-29.683-30h-64.648l-40.669 30v27.524c0 79.673 54.112 148.905 131.602 166.923z" fill="#edf5ff" data-original="#EDF5FF" class=""/><path d="m390.996 255.993v-123.955c0-7.397-5.391-13.682-12.686-14.824-40.693-6.343-79.277-20.244-114.639-41.294-2.373-1.406-5.024-2.109-7.676-2.109l-30 34.612v119.788l30 27.782z" fill="#d5e8fe" data-original="#D5E8FE" class=""/><path d="m255.996 73.81c-2.651 0-5.303.703-7.676 2.109-35.361 21.05-73.945 34.951-114.639 41.294-7.295 1.143-12.686 7.427-12.686 14.824v123.955h135v-182.182z" fill="#ff641a" data-original="#FF641A" class="active-path" style="fill:#F03800" data-old_color="#ff641a"/></g> </svg>
