<?xml version="1.0"?>
<svg xmlns="http://www.w3.org/2000/svg" id="Layer_2" height="512px" viewBox="0 0 128 128" width="512px" data-name="Layer 2" class=""><g><path d="m126.25 79.318a89.837 89.837 0 0 0 -18.678-39.969l2.35-2.35-18.922-18.921-2.35 2.35a89.837 89.837 0 0 0 -39.968-18.678l29.323 29.324-2.02 2.02.842 8.922 9.158 9.158 8.921.841 2.02-2.02z" fill="#00acc1" data-original="#00ACC1" class="" data-old_color="#00acc1" style="fill:#C71E1E"/><path d="m107.572 39.349 2.35-2.35-5.875-5.875-2.35 2.35a89.837 89.837 0 0 1 18.678 39.969l-26.93-26.93-2.02 2.02-8.925-.841 3.481 3.481 8.921.841 2.02-2.02 29.328 29.324a89.837 89.837 0 0 0 -18.678-39.969z" fill="#0097a7" data-original="#0097A7" class="active-path" data-old_color="#0097a7" style="fill:#9C1717"/><path d="m37.392 31.045h12.95v106.175h-12.95z" fill="#fb8c00" transform="matrix(.707 .707 -.707 .707 72.339 -6.377)" data-original="#FB8C00" class=""/><path d="m97.218 19.736h12.95v9.142h-12.95z" fill="#fb8c00" transform="matrix(.707 .707 -.707 .707 47.559 -66.203)" data-original="#FB8C00" class=""/><path d="m-6.36 84.562h106.175v4.861h-106.175z" fill="#ef6c00" transform="matrix(.707 -.707 .707 .707 -47.827 58.521)" data-original="#EF6C00" class="" style="fill:#EF6C00" data-old_color="#ef6c00"/><path d="m101.982 24.736h9.142v4.861h-9.142z" fill="#ef6c00" transform="matrix(.707 -.707 .707 .707 11.999 83.301)" data-original="#EF6C00" class="" style="fill:#EF6C00" data-old_color="#ef6c00"/><path d="m96.95 41.957a1.744 1.744 0 0 1 -1.237-.513l-9.157-9.157a1.75 1.75 0 0 1 2.475-2.475l9.157 9.157a1.75 1.75 0 0 1 -1.237 2.987z" fill="#0097a7" data-original="#0097A7" class="active-path" data-old_color="#0097a7" style="fill:#9C1717"/></g> </svg>
