<svg id="Capa_1" enable-background="new 0 0 512 512" height="512" viewBox="0 0 512 512" width="512" xmlns="http://www.w3.org/2000/svg"><g><path d="m259.77.007c-96.543-1.162-209.33 141.354-211.375 311.321-.135 11.225.624 22.163 2.212 32.763 1.698 11.338 10.212 14.265 13.724 24.769 3.106 9.288 1.023 26.251 5.428 34.797 33.525 65.037 103.047 107.354 183.85 108.326 114.653 1.38 208.603-81.005 209.983-195.658.841-69.88-17.144-135.572-45.326-188.788-3.892-7.35-12.912-4.495-17.171-11.347-5.256-8.457-5.841-26.485-11.578-34.11-37.816-50.259-85.146-81.536-129.747-82.073z" fill="#e592d0"/><path d="m259.77.007c-7.598-.091-15.296.71-23.033 2.342 90.887 19.278 185.319 155.898 183.416 313.975-1.28 106.361-82.228 184.938-185.462 194.649 6.229.583 12.536.933 18.918 1.009 114.653 1.38 208.603-81.005 209.983-195.658.841-69.919-17.164-135.645-45.373-188.876-3.619-6.829-15.601-5.259-19.538-11.66-5.509-8.957-3.116-25.67-9.162-33.705-37.816-50.261-85.147-81.539-129.749-82.076z" fill="#e172c1"/><path d="m389.417 81.837c-10.971 25.507-28.484 48.605-48.993 67.525-33.678 31.069-75.012 52.409-116.262 72.355s-83.344 39.102-119.881 66.751c-20.566 15.563-39.408 34.235-53.841 55.535 3.226 21.622 9.893 41.845 19.456 60.239 15.048-29.052 38.521-54.028 64.811-73.924 36.537-27.649 78.631-46.805 119.881-66.751s82.585-41.287 116.262-72.355c19.517-18.005 36.319-39.793 47.355-63.839-8.706-16.457-18.385-31.716-28.788-45.536z" fill="#f4daa7"/><path d="m369.12 117.197c8.952 15.644 17.011 32.491 23.947 50.303 9.974-12.357 18.566-25.819 25.118-40.086-8.714-16.439-18.4-31.682-28.807-45.492-5.34 12.398-12.234 24.22-20.258 35.275z" fill="#f1cd88"/><path d="m450.29 209.763c-10.958 24.754-28.055 47.189-47.994 65.669-33.605 31.147-74.89 52.583-116.094 72.625s-83.253 39.295-119.726 67.029c-18.157 13.807-34.958 30.044-48.551 48.371 21.604 17.983 47.269 31.586 75.569 39.753 2.901-2.397 5.842-4.737 8.824-7.004 36.473-27.734 78.522-46.987 119.726-67.029s82.489-41.478 116.094-72.625c8.97-8.314 17.356-17.434 24.875-27.199.321-4.295.526-8.634.578-13.027.448-37.118-4.418-73.052-13.301-106.563z" fill="#ad7fdd"/><path d="m461.28 268.827c-2.231-20.437-6.092-40.579-10.986-59.048l-.004-.016c-8.181 18.481-19.786 35.667-33.439 50.882 2.362 18.145 3.529 36.756 3.301 55.68-.272 22.623-4.161 43.984-11.09 63.698 10.153-7.22 19.907-14.975 29.075-23.471 8.97-8.314 17.356-17.434 24.875-27.199 1.386-18.557.23-42.549-1.732-60.526z" fill="#9d66d6"/><path d="m77.076 168.025c25.364-15.641 52.63-28.329 79.489-41.394 36.12-17.569 72.311-36.36 101.77-63.664 16.763-15.536 31.228-34.264 40.858-54.913-13.171-5.096-26.414-7.891-39.425-8.047-67.377-.811-142.657 68.372-182.692 168.018z" fill="#ad7fdd"/><path d="m289.264 26.11c3.698-5.823 7.036-11.85 9.93-18.055-14.685-5.682-29.847-8.694-45.448-7.931-5.245.258-11.031.981-16.776 2.179-.074.015-.148.033-.222.049 17.616 3.738 35.362 11.902 52.516 23.758z" fill="#9d66d6"/></g></svg>