<svg id="Layer_1" enable-background="new 0 0 512 512" height="512" viewBox="0 0 512 512" width="512" xmlns="http://www.w3.org/2000/svg"><path d="m148.081 507.607-63.365-63.365c-2.813-2.813-4.393-6.628-4.393-10.607v-355.27c0-3.978 1.58-7.794 4.393-10.607l63.365-63.365c2.814-2.813 6.629-4.393 10.607-4.393h194.624c3.978 0 7.794 1.58 10.607 4.393l63.365 63.365c2.813 2.813 4.393 6.628 4.393 10.607v355.269c0 3.978-1.58 7.794-4.393 10.607l-63.365 63.365c-2.813 2.813-6.628 4.393-10.607 4.393h-194.624c-3.978.001-7.793-1.579-10.607-4.392z" fill="#40e35b"/><path d="m363.919 4.393c-2.814-2.813-6.629-4.393-10.607-4.393h-97.312v512h97.312c3.978 0 7.794-1.58 10.607-4.393l63.365-63.365c2.813-2.813 4.393-6.628 4.393-10.607v-355.27c0-3.978-1.58-7.794-4.393-10.607z" fill="#1bd16a"/><path d="m154.679 102.952 26.136-6.136 2.459-22.459-30.326-73.215c-1.802.747-3.459 1.845-4.866 3.251l-63.366 63.366c-1.406 1.406-2.505 3.064-3.252 4.866z" fill="#1bd16a"/><path d="m328.725 74.357 5.459 25.459 23.137 3.136 73.215-30.327c-.747-1.803-1.845-3.46-3.252-4.866l-63.365-63.366c-1.406-1.406-3.064-2.505-4.866-3.251z" fill="#12b857"/><path d="m430.535 439.375-73.215-30.327-21.886 1.886-6.709 26.709 30.327 73.215c1.803-.747 3.46-1.845 4.866-3.252l63.365-63.365c1.407-1.406 2.506-3.063 3.252-4.866z" fill="#12b857"/><path d="m152.948 510.858 30.327-73.215-8.025-18.643-20.57-9.952-73.215 30.327c.747 1.803 1.845 3.46 3.252 4.866l63.366 63.366c1.406 1.407 3.062 2.505 4.865 3.251z" fill="#1bd16a"/><path d="m183.275 437.643-28.596-28.595v-306.096l28.596-28.595h145.45l28.596 28.595v306.096l-28.596 28.595z" fill="#4aff56"/><path d="m256 74.357v363.286h72.725l28.596-28.595v-306.096l-28.596-28.595z" fill="#40e35b"/></svg>