<svg height="512pt" viewBox="-40 0 512 512" width="512pt" xmlns="http://www.w3.org/2000/svg"><path d="m36.371094 394.417969 7.050781 15.75 18.089844 40.429687 12.820312 28.652344 12.25 27.390625 308.035157-137.824219c26.972656-12.070312 41.5625-41.660156 34.703124-70.359375-.863281-3.652343-2.113281-7.320312-3.691406-10.863281-.128906-.296875-.269531-.589844-.410156-.886719-6.78125-14.550781-18.75-25.703125-33.78125-31.441406-15.339844-5.851563-32.039062-5.378906-47.03125 1.320313zm0 0" fill="#703700"/><path d="m36.371094 394.417969 7.050781 15.75 18.089844 40.429687 363.707031-163.890625c-6.78125-14.550781-18.75-25.703125-33.78125-31.441406-15.339844-5.851563-32.039062-5.378906-47.03125 1.320313zm0 0" fill="#9a4c00"/><path d="m0 450.617188c0 8.382812 1.71875 16.882812 5.359375 25.011718.03125.082032.070313.160156.109375.230469 10.253906 22.671875 32.671875 36.140625 56.101562 36.140625 8.382813 0 16.882813-1.71875 25.011719-5.359375 30.941407-13.851563 44.851563-50.28125 31.011719-81.222656-.011719-.019531-.019531-.050781-.03125-.070313-13.871094-30.890625-50.269531-44.769531-81.191406-30.941406-22.808594 10.210938-36.371094 32.703125-36.371094 56.210938zm0 0" fill="#b38a65"/><path d="m0 450.617188c0 8.382812 1.71875 16.882812 5.359375 25.011718.03125.082032.070313.160156.109375.230469l112.09375-50.511719c-13.871094-30.890625-50.269531-44.769531-81.191406-30.941406-22.808594 10.210938-36.371094 32.703125-36.371094 56.210938zm0 0" fill="#c8ad92"/><path d="m394.632812 394.417969-7.050781 15.75-18.089843 40.429687-12.820313 28.652344-12.25 27.390625-308.035156-137.824219c-26.972657-12.070312-41.5625-41.660156-34.703125-70.359375.859375-3.652343 2.109375-7.320312 3.691406-10.863281.128906-.296875.269531-.589844.410156-.886719 6.78125-14.550781 18.75-25.703125 33.78125-31.441406 15.339844-5.851563 32.039063-5.378906 47.03125 1.320313zm0 0" fill="#9a4c00"/><path d="m321.488281 171.054688c0 58.433593-47.546875 105.976562-105.980469 105.976562-58.433593 0-105.976562-47.542969-105.976562-105.976562 0-24.457032 15.863281-57.917969 48.519531-102.332032 23.050781-31.359375 45.757813-56.039062 46.703125-57.070312l10.753906-11.652344 10.757813 11.652344c.945313 1.03125 23.652344 25.710937 46.703125 57.070312 32.65625 44.414063 48.519531 77.875 48.519531 102.332032zm0 0" fill="#ffaa20"/><path d="m394.632812 394.417969-7.050781 15.75-18.089843 40.429687-363.707032-163.890625c6.78125-14.550781 18.75-25.703125 33.78125-31.441406 15.339844-5.851563 32.039063-5.378906 47.03125 1.320313zm0 0" fill="#703700"/><path d="m431.003906 450.617188c0 8.382812-1.722656 16.882812-5.359375 25.011718-.03125.082032-.070312.160156-.113281.230469-10.25 22.671875-32.667969 36.140625-56.097656 36.140625-8.382813 0-16.882813-1.71875-25.011719-5.359375-30.941406-13.851563-44.851563-50.28125-31.011719-81.222656.011719-.019531.019532-.050781.03125-.070313 13.871094-30.890625 50.269532-44.769531 81.191406-30.941406 22.808594 10.210938 36.371094 32.703125 36.371094 56.210938zm0 0" fill="#c8ad92"/><path d="m431.003906 450.617188c0 8.382812-1.722656 16.882812-5.359375 25.011718-.03125.082032-.070312.160156-.113281.230469l-112.089844-50.511719c13.871094-30.890625 50.269532-44.769531 81.191406-30.941406 22.808594 10.210938 36.371094 32.703125 36.371094 56.210938zm0 0" fill="#b38a65"/><path d="m321.488281 171.054688c0 58.433593-47.546875 105.976562-105.980469 105.976562v-277.03125l10.757813 11.652344c.945313 1.03125 23.652344 25.710937 46.703125 57.070312 32.65625 44.414063 48.519531 77.875 48.519531 102.332032zm0 0" fill="#ff8900"/><path d="m275.816406 217.726562c0 33.261719-27.058594 60.308594-60.308594 60.308594s-60.304687-27.046875-60.304687-60.308594c0-13.835937 8.402344-31.980468 25.679687-55.488281 11.769532-16 23.382813-28.636719 23.871094-29.164062l10.753906-11.652344 10.757813 11.652344c.488281.527343 12.097656 13.164062 23.867187 29.164062 17.277344 23.507813 25.683594 41.65625 25.683594 55.488281zm0 0" fill="#ff633e"/><path d="m275.816406 217.726562c0 33.261719-27.058594 60.308594-60.308594 60.308594v-156.613281l10.757813 11.652344c.488281.527343 12.097656 13.164062 23.867187 29.164062 17.277344 23.507813 25.683594 41.65625 25.683594 55.488281zm0 0" fill="#e70020"/></svg>