<?xml version="1.0" encoding="iso-8859-1"?>
<!-- Generator: Adobe Illustrator 19.0.0, SVG Export Plug-In . SVG Version: 6.00 Build 0)  -->
<svg version="1.1" id="Capa_1" xmlns="http://www.w3.org/2000/svg" xmlns:xlink="http://www.w3.org/1999/xlink" x="0px" y="0px"
	 viewBox="0 0 512 512" style="enable-background:new 0 0 512 512;" xml:space="preserve">
<path style="fill:#A4D9F5;" d="M415.291,261.315c-4.175-7.178-13.359-9.653-20.493-5.493l-89.268,39.17
	c-5.859,5.859-5.859,15.352,0,21.211l44.78,44.766c11.821,11.841,28.347,15.792,43.726,11.748
	c15.425-4.058,27.158-15.527,31.377-30.688C432.972,314.972,429.28,285.558,415.291,261.315z"/>
<g>
	<path style="fill:#B7E0F6;" d="M252.693,97.428c-25.283-15.82-56.235-20.127-84.99-11.807
		c-14.78,4.277-25.928,15.894-29.839,31.055c-4.014,15.63,0.513,32.358,11.836,43.682l47.241,47.241c5.86,5.86,15.351,5.86,21.211,0
		l39.302-89.502C261.849,111.08,259.725,101.822,252.693,97.428z"/>
	<path style="fill:#B7E0F6;" d="M186.674,327.408c-26.96-24.261-42.947-49.157-81.599-49.499
		c-30.901-0.601-63.3,17.999-100.8,55.199c-5.7,6-5.7,15.601,0,21.301c33.6,33.6,63.6,49.799,91.5,49.799
		c4.799,0,9.6-0.298,16.199-1.8c-2.401,8.101-3.6,16.201-3.6,24.001c0.3,33.898,24,56.699,41.1,73.198
		c19.583,19.583,23.957,9.686,39-4.199c20.4-18.9,45.601-42.301,46.201-76.8C235.274,383.21,211.274,353.508,186.674,327.408z"/>
</g>
<path style="fill:#A4D9F5;" d="M149.474,499.608c19.583,19.583,23.957,9.686,39-4.199c20.4-18.9,45.601-42.301,46.201-76.8
	c0.599-35.4-23.401-65.101-48.001-91.201c-0.119-0.107-0.234-0.214-0.352-0.321l-75.583,75.583c0.411-0.087,0.81-0.166,1.235-0.262
	c-2.401,8.101-3.6,16.201-3.6,24.001C108.674,460.308,132.374,483.108,149.474,499.608z"/>
<path style="fill:#81C8EE;" d="M493.1,187.135c-33.001,85.201-118.626,135.473-313.926,169.373
	c-10.186,1.8-21.631-8.21-19.799-19.799c33.3-191.7,79.925-280.073,162.425-314.274l55.501,21L419.9,93.537l34.499,40.499
	L493.1,187.135z"/>
<path style="fill:#159CE4;" d="M179.174,356.508c195.3-33.9,280.925-84.172,313.926-169.373l-38.701-53.099L419.9,93.537
	l-0.013-0.015L163.322,350.088C167.259,354.768,173.416,357.525,179.174,356.508z"/>
<path style="fill:#CAE8F9;" d="M512,46.437c0,34.199-1.501,70.199-8.401,103.499c-2.699,12.601-6,25.201-10.499,37.2
	c-52.8,16.8-102.301,1.201-135.601-30.899c-33.3-32.701-50.099-82.8-35.7-133.801c11.7-4.799,24-8.399,36.601-11.398
	c34.499-7.8,72.599-9.901,108.3-9.6c12.299,0,23.699,5.099,31.8,13.2C506.6,22.736,511.7,34.136,512,46.437z"/>
<g>
	<path style="fill:#B7E0F6;" d="M357.499,156.236c33.3,32.1,82.8,47.699,135.601,30.899c4.499-11.999,7.8-24.598,10.499-37.2
		c6.899-33.3,8.401-69.3,8.401-103.499c-0.299-12.232-5.346-23.57-13.367-31.66L357.337,156.072
		C357.392,156.126,357.444,156.182,357.499,156.236z"/>
	<path style="fill:#B7E0F6;" d="M382.4,225.836c-3.9,7.5-12.9,10.199-20.099,6.599c-17.701-9-33.602-20.4-47.1-33.9
		C301.1,184.736,289.4,169.136,280.1,152.336c-3.9-7.2-1.199-16.199,6-20.4c7.2-3.9,16.5-1.201,20.4,6
		c8.101,14.7,18.001,27.9,30,39.3c11.4,11.4,24.6,20.999,39.3,28.499C383.299,209.635,386.3,218.636,382.4,225.836z"/>
	<path style="fill:#B7E0F6;" d="M315.2,198.535c13.499,13.5,29.399,24.901,47.1,33.9c7.2,3.6,16.199,0.901,20.099-6.599
		c3.9-7.2,0.899-16.201-6.601-20.101c-14.7-7.5-27.9-17.098-39.3-28.499c-0.056-0.053-0.108-0.109-0.164-0.162l-21.297,21.297
		C315.093,198.425,315.145,198.481,315.2,198.535z"/>
</g>
<circle style="fill:#3C3A41;" cx="409.14" cy="80.399" r="15"/>
<g>
</g>
<g>
</g>
<g>
</g>
<g>
</g>
<g>
</g>
<g>
</g>
<g>
</g>
<g>
</g>
<g>
</g>
<g>
</g>
<g>
</g>
<g>
</g>
<g>
</g>
<g>
</g>
<g>
</g>
</svg>
