<svg xmlns="http://www.w3.org/2000/svg" viewBox="0 0 512 513" width="512" height="513">
	<style>
		tspan { white-space:pre }
		.shp0 { fill: #ff6c6c } 
		.shp1 { fill: #ff4949 } 
		.shp2 { fill: #b35f49 } 
		.shp3 { fill: #99503d } 
		.shp4 { fill: #b4b4b4 } 
		.shp5 { fill: #949494 } 
	</style>
	<path id="Layer" class="shp0" d="M250.14 447.65L233.69 397.83C232.98 396.19 232.05 394.54 230.88 393.13C229.46 391.95 227.81 391.02 226.18 390.31L176.35 373.86C172.12 372.45 167.42 373.39 164.37 376.68L114.55 426.5C108.2 432.61 110.79 443.19 119.02 446.01L163.43 460.58L178 504.99C180.82 513.21 191.39 515.8 197.5 509.46L247.33 459.64C250.61 456.58 251.55 451.88 250.14 447.65L250.14 447.65Z" />
	<path id="Layer" class="shp0" d="M250.14 447.65C251.55 451.88 250.61 456.58 247.32 459.64L197.5 509.45C191.39 515.8 180.82 513.21 178 504.99L163.43 460.58L230.88 393.13C232.04 394.54 232.98 396.19 233.69 397.83L250.14 447.65Z" />
	<path id="Layer" class="shp1" d="M250.14 447.65C251.55 451.88 250.61 456.58 247.32 459.64L197.5 509.45C191.39 515.8 180.82 513.21 178 504.99L163.43 460.58L230.88 393.13C232.04 394.54 232.98 396.19 233.69 397.83L250.14 447.65Z" />
	<path id="Layer" class="shp2" d="M458.72 181.73L147.68 493.01C143.21 497.48 135.69 497.48 130.99 493.01C126.53 488.31 126.53 480.79 130.99 476.32L442.28 165.28C446.73 160.58 454.26 160.58 458.72 165.28C463.42 169.75 463.42 177.27 458.72 181.73L458.72 181.73Z" />
	<path id="Layer" class="shp3" d="M458.72 181.73L147.68 493.01C143.21 497.48 135.69 497.48 130.99 493.01L458.72 165.28C463.42 169.75 463.42 177.27 458.72 181.73L458.72 181.73Z" />
	<path id="Layer" class="shp4" d="M508.55 115.46C505.49 112.17 500.79 110.99 496.56 112.64L396.92 145.78C392.22 147.42 388.93 151.89 388.93 156.82C388.93 161.99 392.22 166.46 396.92 168.1L441.09 182.91L455.9 227.08C457.55 231.79 462.01 235.08 467.18 235.08C472.12 235.08 476.58 231.79 478.23 227.08L511.36 127.44C512.78 123.21 511.84 118.51 508.55 115.46L508.55 115.46Z" />
	<path id="Layer" class="shp5" d="M511.37 127.44L478.23 227.08C476.58 231.79 472.12 235.08 467.18 235.08C462.01 235.08 457.55 231.79 455.91 227.08L441.1 182.91L508.55 115.46C511.84 118.51 512.78 123.21 511.37 127.44Z" />
	<path id="Layer copy" class="shp0" d="M261.86 65.35L278.31 115.17C279.02 116.81 279.95 118.46 281.12 119.87C282.54 121.05 284.19 121.98 285.82 122.69L335.65 139.14C339.88 140.55 344.58 139.61 347.63 136.32L397.45 86.5C403.8 80.39 401.21 69.81 392.98 66.99L348.57 52.42L334 8.01C331.18 -0.21 320.61 -2.8 314.5 3.54L264.67 53.36C261.39 56.42 260.45 61.12 261.86 65.35L261.86 65.35Z" />
	<path id="Layer copy 2" class="shp0" d="M261.86 65.35C260.45 61.12 261.39 56.42 264.68 53.36L314.5 3.55C320.61 -2.8 331.18 -0.21 334 8.01L348.57 52.42L281.12 119.87C279.96 118.46 279.02 116.81 278.31 115.17L261.86 65.35Z" />
	<path id="Layer copy 3" class="shp1" d="M261.86 65.35C260.45 61.12 261.39 56.42 264.68 53.36L314.5 3.55C320.61 -2.8 331.18 -0.21 334 8.01L348.57 52.42L281.12 119.87C279.96 118.46 279.02 116.81 278.31 115.17L261.86 65.35Z" />
	<path id="Layer copy 4" class="shp2" d="M53.28 331.27L364.32 19.99C368.79 15.52 376.31 15.52 381.01 19.99C385.47 24.69 385.47 32.21 381.01 36.68L69.72 347.72C65.27 352.42 57.74 352.42 53.28 347.72C48.58 343.25 48.58 335.73 53.28 331.27L53.28 331.27Z" />
	<path id="Layer copy 5" class="shp3" d="M53.28 331.27L364.32 19.99C368.79 15.52 376.31 15.52 381.01 19.99L53.28 347.72C48.58 343.25 48.58 335.73 53.28 331.27L53.28 331.27Z" />
	<path id="Layer copy 6" class="shp4" d="M3.45 397.54C6.51 400.83 11.21 402.01 15.44 400.36L115.08 367.22C119.78 365.58 123.07 361.11 123.07 356.18C123.07 351.01 119.78 346.54 115.08 344.9L70.91 330.09L56.1 285.92C54.45 281.21 49.99 277.92 44.82 277.92C39.88 277.92 35.42 281.21 33.77 285.92L0.64 385.56C-0.78 389.79 0.16 394.49 3.45 397.54L3.45 397.54Z" />
	<path id="Layer copy 7" class="shp5" d="M0.63 385.56L33.77 285.92C35.42 281.21 39.88 277.92 44.82 277.92C49.99 277.92 54.45 281.21 56.09 285.92L70.9 330.09L3.45 397.54C0.16 394.49 -0.78 389.79 0.63 385.56Z" />
</svg>