<svg xmlns="http://www.w3.org/2000/svg" viewBox="0 0 512 512" width="512" height="512">
	<style>
		tspan { white-space:pre }
		.shp0 { fill: #ffb500 } 
		.shp1 { fill: #ffd925 } 
		.shp2 { fill: #ffd300 } 
		.shp3 { fill: #68544f } 
		.shp4 { fill: #53433f } 
		.shp5 { fill: #fff5f5 } 
		.shp6 { fill: #efe2dd } 
		.shp7 { fill: #d2990f } 
	</style>
	<path id="Layer" class="shp0" d="M21.71 62.58C17.07 60.27 11.54 60.49 7.12 63.24C2.7 65.98 0 70.8 0 76L0 166C0 219.69 32.79 268.26 81.99 289.75L134.31 118.38L21.71 62.58Z" />
	<path id="Layer" class="shp0" d="M504.88 63.24C500.47 60.49 494.93 60.25 490.29 61.58L369.29 121.58L430.01 289.75C479.21 268.26 512 219.69 512 166L512 76C512 70.8 509.3 65.98 504.88 63.24Z" />
	<path id="Layer" class="shp1" d="M451 335.2C451 402.7 404.8 461.6 340 477.5C330.4 498.2 309.1 512 286 512C275.5 512 265 509 256 503.9C247 509 236.5 512 226 512C202.9 512 181.6 498.2 172 477.5C107.2 461.6 61 402.7 61 335.2C61 321.1 63.1 307 67.3 293.2L112.9 141.1L159.4 149.5L121.6 112L125.8 97.9C143.2 40 195.4 0 256 0C316.6 0 368.8 40 386.2 97.9L390.4 112L352.6 149.5L399.1 141.1L444.7 293.2C448.9 307 451 321.1 451 335.2L451 335.2Z" />
	<path id="Layer" class="shp2" d="M451 335.2C451 402.7 404.8 461.6 340 477.5C330.4 498.2 309.1 512 286 512C275.5 512 265 509 256 503.9L256 0C316.6 0 368.8 40 386.2 97.9L390.4 112L352.6 149.5L399.1 141.1L444.7 293.2C448.9 307 451 321.1 451 335.2L451 335.2Z" />
	<path id="Layer" class="shp3" d="M209.42 172.71C213.13 165.3 210.12 156.29 202.71 152.58L121.53 112L112.79 141.16L189.29 179.42C196.77 183.13 205.73 180.07 209.42 172.71Z" />
	<path id="Layer" class="shp4" d="M309.29 152.58C301.88 156.29 298.88 165.3 302.58 172.71C306.27 180.06 315.22 183.14 322.71 179.42L399.21 141.17L390.47 112L309.29 152.58Z" />
	<path id="Layer" class="shp5" d="M199.24 386L182.58 352.71C178.88 345.3 181.88 336.29 189.29 332.58C196.69 328.92 205.71 331.88 209.42 339.29L226.07 372.59C229.78 380 226.78 389.01 219.36 392.71C211.88 396.43 202.93 393.36 199.24 386L199.24 386Z" />
	<path id="Layer" class="shp6" d="M292.64 392.71C285.22 389.01 282.22 380 285.93 372.59L302.58 339.29C306.3 331.88 315.31 328.92 322.71 332.58C330.12 336.29 333.13 345.3 329.42 352.71L312.76 386C309.07 393.37 300.12 396.43 292.64 392.71L292.64 392.71Z" />
	<path id="Layer" class="shp0" d="M300.4 213.4C297.1 177.1 279.1 151 256 151C232.9 151 214.9 177.1 211.6 213.4C193.9 219.4 181 236.2 181 256C181 276.4 194.5 293.5 212.8 299.2C218.5 317.5 235.6 331 256 331C276.4 331 293.5 317.5 299.2 299.2C317.5 293.5 331 276.4 331 256C331 236.2 318.1 219.4 300.4 213.4L300.4 213.4Z" />
	<path id="Layer" class="shp7" d="M256 331L256 151C279.1 151 297.1 177.1 300.4 213.4C318.1 219.4 331 236.2 331 256C331 276.4 317.5 293.5 299.2 299.2C293.5 317.5 276.4 331 256 331L256 331Z" />
	<path id="Layer" class="shp0" d="M356.5 416.5C337.3 436 329.5 391 273.7 391L238.3 391C215.5 391 193 400.3 176.5 416.5C170.8 422.5 161.2 422.5 155.5 416.5C149.5 410.8 149.5 401.2 155.5 395.5C177.4 373.6 207.4 361 238.3 361L273.7 361C304.6 361 334.6 373.6 356.5 395.5C362.5 401.2 362.5 410.8 356.5 416.5Z" />
	<path id="Layer" class="shp7" d="M356.5 416.5C337.3 436 329.5 391 273.7 391L256 391L256 361L273.7 361C304.6 361 334.6 373.6 356.5 395.5C362.5 401.2 362.5 410.8 356.5 416.5Z" />
</svg>