<svg xmlns="http://www.w3.org/2000/svg" viewBox="0 0 513 512" width="513" height="512">
	<style>
		tspan { white-space:pre }
		.shp0 { fill: #5ad199 } 
		.shp1 { fill: #2bab8d } 
	</style>
	<path id="Layer" class="shp0" d="M370.78 252.31C370.78 334.45 327.25 406.42 262.01 446.42C260.35 447.44 258.68 448.44 257 449.41C254.01 447.68 251.05 445.87 248.14 444.01C241.71 439.89 235.52 435.47 229.56 430.75C176.96 389.07 143.22 324.63 143.22 252.31C143.22 168.09 188.98 94.56 257 55.22C321.75 92.67 366.32 161.09 370.45 240.23C370.67 244.23 370.78 248.26 370.78 252.31L370.78 252.31Z" />
	<path id="Layer" class="shp1" d="M143.22 252.31C143.22 336.54 188.98 410.07 257 449.41L257 55.22C188.98 94.57 143.22 168.08 143.22 252.31Z" />
	<path id="Layer" class="shp1" d="M370.78 252.31C370.78 334.45 327.25 406.42 262.01 446.42C257.36 445.78 252.73 444.98 248.14 444.01C241.97 442.7 235.84 441.11 229.8 439.22C229.65 436.39 229.58 433.57 229.56 430.75C229.11 371.39 255.36 312.51 305.92 273.36C325.81 257.96 347.71 246.98 370.45 240.23C370.67 244.23 370.78 248.26 370.78 252.31L370.78 252.31Z" />
	<path id="Layer" class="shp0" d="M333.12 283.55C386.09 242.54 453.33 232.79 512.75 251.4C515.88 313.59 489.61 376.26 436.64 417.26C383.66 458.27 316.42 468.02 257 449.41C253.87 387.23 280.14 324.56 333.12 283.55L333.12 283.55Z" />
	<path id="Layer" class="shp1" d="M257 449.41L512.75 251.4C515.88 313.59 489.61 376.26 436.64 417.26C383.66 458.27 316.42 468.02 257 449.41Z" />
	<path id="Layer" class="shp0" d="M180.88 283.55C127.91 242.54 60.67 232.79 1.25 251.4C-1.88 313.59 24.39 376.26 77.36 417.26C130.34 458.27 197.58 468.02 257 449.41C260.13 387.23 233.86 324.56 180.88 283.55Z" />
	<path id="Layer" class="shp1" d="M257 449.41L1.25 251.4C-1.88 313.59 24.39 376.26 77.36 417.26C130.34 458.27 197.58 468.02 257 449.41Z" />
</svg>