<svg xmlns="http://www.w3.org/2000/svg" viewBox="0 0 512 512" width="512" height="512">
	<style>
		tspan { white-space:pre }
		.shp0 { fill: #129b12 } 
		.shp1 { fill: #097c09 } 
		.shp2 { fill: #009000 } 
		.shp3 { fill: #bf6101 } 
		.shp4 { fill: #9a4d01 } 
		.shp5 { fill: #28a528 } 
		.shp6 { fill: #b58058 } 
		.shp7 { fill: #8e6047 } 
		.shp8 { fill: #94a6ad } 
		.shp9 { fill: #858c94 } 
	</style>
	<path id="Layer" class="shp0" d="M299 156.84C299 133.5 284.8 113.47 264.58 104.92C268.15 98.02 270.18 90.18 270.18 81.87C270.18 54.12 247.68 31.62 219.93 31.62C212.02 31.62 204.54 33.45 197.89 36.71C191.98 15.54 172.56 0 149.5 0C126.44 0 107.02 15.54 101.11 36.71C94.46 33.46 86.98 31.62 79.07 31.62C51.32 31.62 28.82 54.12 28.82 81.87C28.82 90.18 30.85 98.02 34.42 104.92C14.2 113.47 0 133.5 0 156.84C0 187.09 23.85 211.74 53.77 213.09C57.94 228.2 74.05 239.46 93.3 239.46C104.21 239.46 114.1 235.84 121.4 229.96C128.69 235.84 138.59 239.46 149.5 239.46C160.41 239.46 170.31 235.84 177.6 229.96C184.89 235.84 194.79 239.46 205.7 239.46C224.95 239.46 241.06 228.2 245.23 213.09C275.15 211.74 299 187.09 299 156.84Z" />
	<g id="Layer">
		<path id="Layer" class="shp1" d="M146.49 0.1C145.87 0.14 145.25 0.18 144.64 0.24C144.45 0.26 144.27 0.28 144.08 0.3C143.42 0.37 142.77 0.45 142.12 0.55C141.99 0.57 141.87 0.59 141.75 0.6C140.98 0.72 140.21 0.86 139.45 1.01C139.45 1.01 139.44 1.01 139.44 1.01C152.63 3.7 164.98 12.89 172.81 24.47C178.35 32.67 187.82 37.39 197.69 36.72C197.76 36.72 197.82 36.71 197.89 36.71C191.98 15.54 172.56 0 149.5 0C148.69 0 147.89 0.02 147.09 0.06C146.89 0.07 146.69 0.09 146.49 0.1Z" />
		<path id="Layer" class="shp1" d="M264.58 104.92C268.15 98.02 270.18 90.18 270.18 81.87C270.18 54.12 247.68 31.62 219.93 31.62C216.48 31.62 213.12 31.97 209.87 32.63C232.8 37.29 250.06 57.57 250.06 81.87C250.06 90.18 248.03 98.02 244.46 104.92C264.69 113.47 278.88 133.5 278.88 156.84C278.88 187.09 255.03 211.74 225.12 213.09C221.7 225.47 210.26 235.27 195.64 238.4C198.86 239.09 202.23 239.46 205.7 239.46C224.95 239.46 241.06 228.2 245.23 213.09C275.15 211.74 299 187.09 299 156.84C299 133.5 284.81 113.47 264.58 104.92Z" />
	</g>
	<path id="Layer" class="shp2" d="M113.52 221.63C108.99 229.32 90.21 237.91 83.24 238.4C84.01 238.57 84.78 238.71 85.57 238.84C85.63 238.85 85.69 238.86 85.76 238.87C86.55 239 87.35 239.1 88.16 239.19C88.18 239.19 88.2 239.19 88.22 239.2C88.95 239.27 89.69 239.33 90.43 239.37C90.61 239.38 90.79 239.39 90.97 239.4C91.74 239.44 92.52 239.46 93.3 239.46L93.3 239.46C103.25 239.46 112.35 236.44 119.41 231.45L120.65 230.55L114.34 220.21L113.52 221.63Z" />
	<path id="Layer" class="shp3" d="M174.63 234.46L196.16 200.49C197.86 197.81 197.34 194.28 194.94 192.19L194.94 192.19C192.38 189.96 188.53 190.11 186.14 192.52L170.28 208.57C168.18 210.7 164.58 208.93 164.98 205.97L169.64 171.42C170.14 167.73 167.41 164.39 163.69 164.14L159.33 163.84C156.04 163.62 153.12 165.91 152.55 169.15L144.23 216.43C143.77 219.06 140.43 219.93 138.74 217.86L112.68 185.81C110.88 183.59 107.83 182.82 105.19 183.93L100.63 185.85C97.01 187.37 95.59 191.74 97.6 195.1L124.39 239.74C128.26 246.21 129.86 253.79 128.89 261.27C125.42 288.04 121.11 313.29 103.47 333.86L195.54 333.86L195.54 333.86C176.65 311.84 171.99 284.46 169.49 255.59C168.85 248.17 170.64 240.75 174.63 234.46Z" />
	<path id="Layer" class="shp4" d="M196.15 200.49C197.86 197.81 197.34 194.28 194.94 192.19L194.94 192.19C192.38 189.96 188.52 190.11 186.14 192.52L179.06 199.69L179.06 199.69L170.28 208.57C168.18 210.7 164.58 208.93 164.98 205.97L169.64 171.42C170.12 167.83 167.54 164.57 163.97 164.17L150.86 245.66C150.64 246.71 150.47 247.77 150.35 248.84L150.35 248.84L150.35 248.84C150.1 251.07 150.06 253.33 150.26 255.59C152.76 284.46 157.42 311.84 176.31 333.86L176.31 333.86L195.54 333.86L195.54 333.86C176.65 311.84 171.99 284.46 169.49 255.59C168.85 248.17 170.64 240.75 174.63 234.46L196.15 200.49Z" />
	<path id="Layer" class="shp5" d="M139.94 39.45C125.84 39.45 113.7 47.82 108.2 59.85C102.52 55.84 95.59 53.47 88.1 53.47C68.83 53.47 53.21 69.09 53.21 88.35C53.21 94.71 54.92 100.67 57.89 105.8C41.16 108.37 28.35 122.83 28.35 140.28C28.35 159.54 43.97 175.16 63.24 175.16C82.5 175.16 174.82 93.6 174.82 74.34C174.82 55.07 159.2 39.45 139.94 39.45Z" />
	<g id="Layer">
	</g>
	<g id="Layer">
	</g>
	<g id="Layer">
	</g>
	<g id="Layer">
	</g>
	<g id="Layer">
	</g>
	<g id="Layer">
	</g>
	<g id="Layer">
	</g>
	<g id="Layer">
	</g>
	<g id="Layer">
	</g>
	<g id="Layer">
	</g>
	<g id="Layer">
	</g>
	<g id="Layer">
	</g>
	<g id="Layer">
	</g>
	<g id="Layer">
	</g>
	<g id="Layer">
	</g>
	<path id="Layer" class="shp6" d="M296.13 264.06L509.3 477.22C512.9 480.83 512.9 486.63 509.3 490.24L490.23 509.3C486.67 512.87 480.83 512.9 477.22 509.3L264.06 296.13C260.45 292.53 260.49 286.69 264.06 283.12L283.12 264.06C286.72 260.45 292.53 260.45 296.13 264.06Z" />
	<path id="Layer" class="shp7" d="M274.37 272.8L500.55 498.98L490.23 509.3C486.67 512.87 480.83 512.9 477.22 509.3L264.06 296.13C260.45 292.53 260.49 286.69 264.06 283.12L274.37 272.8Z" />
	<path id="Layer" class="shp8" d="M471.59 221.52C432.17 231.42 385.54 257.55 341.22 296.34L349.86 304.98C354.27 309.39 354.27 316.46 349.86 320.86L320.86 349.86C316.49 354.24 309.39 354.27 304.98 349.86L296.34 341.22C257.55 385.54 231.42 432.17 221.52 471.59C218.16 464.53 215.96 456.66 214.84 448.26C208.79 402.47 235.51 339.65 287.6 287.56C339.65 235.51 402.47 208.79 448.26 214.84C456.69 215.93 464.52 218.16 471.59 221.52Z" />
	<path id="Layer" class="shp9" d="M471.59 221.52C432.17 231.42 385.54 257.55 341.22 296.34L349.86 304.98C354.27 309.39 354.27 316.46 349.86 320.86L320.86 349.86C316.49 354.24 309.39 354.27 304.98 349.86L296.34 341.22C257.55 385.54 231.42 432.17 221.52 471.59C218.16 464.53 215.96 456.66 214.84 448.26C226.07 404.01 257.55 351.54 304.56 304.53C351.54 257.55 404.01 226.07 448.26 214.84C456.69 215.93 464.52 218.16 471.59 221.52Z" />
</svg>