<?xml version="1.0"?>
<svg xmlns="http://www.w3.org/2000/svg" xmlns:xlink="http://www.w3.org/1999/xlink" version="1.1" id="Layer_1" x="0px" y="0px" viewBox="0 0 512 512" style="enable-background:new 0 0 512 512;" xml:space="preserve" width="512px" height="512px" class=""><g><g transform="translate(-1)">
	<path style="fill:#6F563A" d="M429.118,326.621V145.655c0-17.064-13.85-30.897-30.914-30.897s-30.897,13.833-30.897,30.897   l0.053-57.379l-0.035-39.724c0-17.064-13.85-30.897-30.914-30.897c-16.958,0-30.791,13.745-30.879,30.729V30.897   C305.532,13.833,291.682,0,274.618,0s-30.879,13.833-30.879,30.897l-0.018,35.31c0-17.064-13.833-30.897-30.897-30.897   s-30.879,13.833-30.879,30.897v216.276c0-24.47-20.842-73.79-44.156-97.103c-19.218-19.218-74.205-6.347-44.138,35.31   c21.071,29.184,35.31,91.048,35.31,123.586c0,78.716,61.811,105.931,61.811,105.931h211.862   C431.325,411.957,429.118,414.446,429.118,326.621" data-original="#BE3A2B" class="" data-old_color="#BE3A2B"/>
	<path style="fill:#E4E5E6;" d="M385.02,512H208.504c-9.746,0-17.655-7.901-17.655-17.655v-44.138h211.827v44.138   C402.675,504.099,394.774,512,385.02,512" data-original="#E4E5E6" class=""/>
	<g>
		<path style="fill:#C1C4C6;" d="M226.162,494.345c-4.873,0-8.828-3.946-8.828-8.828v-8.828c0-4.882,3.955-8.828,8.828-8.828    c4.873,0,8.828,3.946,8.828,8.828v8.828C234.99,490.399,231.035,494.345,226.162,494.345" data-original="#C1C4C6" class=""/>
		<path style="fill:#C1C4C6;" d="M261.434,494.345c-4.873,0-8.828-3.946-8.828-8.828v-8.828c0-4.882,3.955-8.828,8.828-8.828    s8.828,3.946,8.828,8.828v8.828C270.261,490.399,266.307,494.345,261.434,494.345" data-original="#C1C4C6" class=""/>
		<path style="fill:#C1C4C6;" d="M296.744,494.345c-4.873,0-8.828-3.946-8.828-8.828v-8.828c0-4.882,3.955-8.828,8.828-8.828    s8.828,3.946,8.828,8.828v8.828C305.572,490.399,301.617,494.345,296.744,494.345" data-original="#C1C4C6" class=""/>
		<path style="fill:#C1C4C6;" d="M332.055,494.345c-4.873,0-8.828-3.946-8.828-8.828v-8.828c0-4.882,3.955-8.828,8.828-8.828    c4.873,0,8.828,3.946,8.828,8.828v8.828C340.882,490.399,336.927,494.345,332.055,494.345" data-original="#C1C4C6" class=""/>
		<path style="fill:#C1C4C6;" d="M367.365,494.345c-4.873,0-8.828-3.946-8.828-8.828v-8.828c0-4.882,3.955-8.828,8.828-8.828    s8.828,3.946,8.828,8.828v8.828C376.192,490.399,372.238,494.345,367.365,494.345" data-original="#C1C4C6" class=""/>
	</g>
	<g>
		<path style="fill:#423827" d="M243.779,203.034c-4.873,0-8.828-3.946-8.828-8.828V61.793c0-4.882,3.955-8.828,8.828-8.828    c4.873,0,8.828,3.946,8.828,8.828v132.414C252.606,199.089,248.651,203.034,243.779,203.034" data-original="#9C281F" class="active-path" data-old_color="#9C281F"/>
		<path style="fill:#423827" d="M367.365,238.345c-4.873,0-8.828-3.946-8.828-8.828v-88.276c0-4.882,3.955-8.828,8.828-8.828    s8.828,3.946,8.828,8.828v88.276C376.192,234.399,372.238,238.345,367.365,238.345" data-original="#9C281F" class="active-path" data-old_color="#9C281F"/>
		<path style="fill:#423827" d="M305.572,203.034c-4.873,0-8.828-3.946-8.828-8.828V44.138c0-4.882,3.955-8.828,8.828-8.828    c4.873,0,8.828,3.946,8.828,8.828v150.069C314.399,199.089,310.445,203.034,305.572,203.034" data-original="#9C281F" class="active-path" data-old_color="#9C281F"/>
	</g>
</g></g> </svg>
