<?xml version="1.0" encoding="iso-8859-1"?>
<!-- Generator: Adobe Illustrator 19.0.0, SVG Export Plug-In . SVG Version: 6.00 Build 0)  -->
<svg version="1.1" id="Capa_1" xmlns="http://www.w3.org/2000/svg" xmlns:xlink="http://www.w3.org/1999/xlink" x="0px" y="0px"
	 viewBox="0 0 55 55" style="enable-background:new 0 0 55 55;" xml:space="preserve">
<path style="fill:#F3D55B;" d="M52.778,26l-18.83-0.938c-0.39-0.027-0.78-0.041-1.17-0.063l2.742-2.344
	c0.836-0.836,0.836-2.192,0-3.029c-0.836-0.836-2.192-0.836-3.028,0L29.778,22c-0.029-0.523-0.05-1.046-0.088-1.569L28.778,2
	c-0.073-0.88-1.117-2-2-2c-0.906,0-1.864,1.181-2,2L23.85,20.613c-0.032,0.462-0.047,0.925-0.072,1.387l-1.771-2.258
	c-0.836-0.836-2.192-0.836-3.028,0c-0.836,0.836-0.836,2.192,0,3.029L20.778,25c-0.451,0.026-0.901,0.045-1.352,0.079L1.778,26
	c-0.88,0.073-1.557,1.14-1.557,2.023c0,0.83,0.738,1.841,1.557,1.977l17.683,0.93c0.439,0.03,0.878,0.047,1.317,0.07l-1.914,2.255
	c-0.836,0.836-0.836,2.192,0,3.029h0c0.836,0.836,2.192,0.836,3.028,0L23.778,34c0.02,0.322,0.034,0.644,0.058,0.966L24.778,53
	c0.073,0.88,1.117,2,2,2c1.108,0,1.864-1.182,2-2l1-17.901c0.025-0.366,0.04-0.733,0.061-1.099l2.64,2.271
	c0.836,0.836,2.192,0.836,3.028,0c0.836-0.836,0.836-2.192,0-3.029L32.778,31c0.394-0.024,0.789-0.04,1.183-0.069L52.778,30
	c0.88-0.073,2-1.117,2-2C54.778,27.17,53.597,26.136,52.778,26z"/>
<rect x="1.95" y="42.172" transform="matrix(0.7071 0.7071 -0.7071 0.7071 33.2193 9.8014)" style="fill:#F9EAB0;" width="5.657" height="5.657"/>
<rect x="43.95" y="5.172" transform="matrix(0.7071 0.7071 -0.7071 0.7071 19.3579 -30.7341)" style="fill:#F9EAB0;" width="5.657" height="5.657"/>
<g>
</g>
<g>
</g>
<g>
</g>
<g>
</g>
<g>
</g>
<g>
</g>
<g>
</g>
<g>
</g>
<g>
</g>
<g>
</g>
<g>
</g>
<g>
</g>
<g>
</g>
<g>
</g>
<g>
</g>
</svg>
