<?xml version="1.0" encoding="iso-8859-1"?>
<!-- Generator: Adobe Illustrator 19.0.0, SVG Export Plug-In . SVG Version: 6.00 Build 0)  -->
<svg xmlns="http://www.w3.org/2000/svg" xmlns:xlink="http://www.w3.org/1999/xlink" version="1.1" id="Capa_1" x="0px" y="0px" viewBox="0 0 512 512" style="enable-background:new 0 0 512 512;" xml:space="preserve" width="512" height="512">
<g>
	<polygon style="fill:#E1D3CE;" points="118.308,58.25 149.438,362.563 176.795,335.205 148.151,55.197  "/>
	<polygon style="fill:#B4AAAA;" points="149.438,362.563 453.75,393.692 456.803,363.849 176.795,335.205 176.795,335.205    149.438,362.563  "/>
	
		<rect x="264" y="-39.236" transform="matrix(0.7071 0.7071 -0.7071 0.7071 246.4731 -129.0387)" style="fill:#C78F2C;" width="30" height="544.472"/>
	<path style="fill:#62320D;" d="M396.732,115.268h-46.211v46.211l65.527,65.527c40.8,40.8,40.8,106.951,0,147.751   c-25.521,25.521-25.521,66.9,0,92.422l46.211-46.211c66.322-66.322,66.322-173.851,0-240.173L396.732,115.268z"/>
	<path style="fill:#9E5015;" d="M331.205,49.742c-66.322-66.322-173.851-66.322-240.173,0L44.821,95.952   c25.521,25.521,66.9,25.521,92.422,0c40.8-40.8,106.951-40.8,147.751,0l65.527,65.527l46.211-46.211L331.205,49.742z"/>
	<polygon style="fill:#87A0AF;" points="491.467,117.508 512,0 456.803,25 442.979,69.021  "/>
	<polygon style="fill:#B4D2D7;" points="442.979,69.021 512,0 394.492,20.533  "/>
	<polygon style="fill:#B4AAAA;" points="50.102,461.898 69.372,512 143.524,437.847 124.254,387.746 124.254,387.746 67.5,412    50.102,461.898  "/>
	<polygon style="fill:#E1D3CE;" points="0,442.628 50.102,461.898 124.254,387.746 74.153,368.476  "/>
</g>















</svg>
