<?xml version="1.0" encoding="iso-8859-1"?>
<!-- Generator: Adobe Illustrator 19.0.0, SVG Export Plug-In . SVG Version: 6.00 Build 0)  -->
<svg version="1.1" id="Capa_1" xmlns="http://www.w3.org/2000/svg" xmlns:xlink="http://www.w3.org/1999/xlink" x="0px" y="0px"
	 viewBox="0 0 511.992 511.992" style="enable-background:new 0 0 511.992 511.992;" xml:space="preserve">
<path style="fill:#898890;" d="M218.273,323.694l-58.805-9.435c-27.467-4.407-53.886,12.435-61.482,39.195l-12.162,42.841
	l-20.538,3.184c-20.943,3.246-38.143,18.262-44.189,38.574l-10.29,34.575c-5.843,19.636,8.869,39.363,29.357,39.363H179.17
	l87.772-68.786L218.273,323.694z"/>
<path style="fill:#787680;" d="M133.017,425.312V316.525c-16.53,5.666-29.966,19.087-35.03,36.929l-12.162,42.841l-20.538,3.184
	c-12.004,1.861-22.765,7.602-30.915,15.977c15.152,8.391,38.419,21.618,58.551,33.125
	C110.79,458.793,133.017,445.891,133.017,425.312z"/>
<path style="fill:#57565C;" d="M34.372,415.461c15.152,8.391,38.42,21.618,58.551,33.125c9.768,5.583,20.831,4.246,28.862-1.465
	L85.824,396.3l-20.538,3.184C53.283,401.344,42.522,407.085,34.372,415.461z"/>
<path style="fill:#898890;" d="M249.256,332.759l42.209-23.308c20.853-11.515,46.544-9.598,65.457,4.883l44.161,33.813l20.131-2.542
	c31.773-4.014,61.093,17.642,66.602,49.189l14.197,81.303c3.272,18.738-11.15,35.896-30.171,35.896H306.647L249.256,332.759z"/>
<path style="fill:#787680;" d="M421.213,345.603l-20.131,2.542l-44.161-33.813c-8.917-6.827-19.341-10.859-30.053-12.01
	l4.368,97.211c0.853,18.986,20.65,31.076,37.93,23.163l109.836-50.298C466.821,353.698,444.693,342.637,421.213,345.603z"/>
<path style="fill:#57565C;" d="M369.167,422.7l109.836-50.298c-12.182-18.703-34.31-29.764-57.789-26.798l-20.131,2.542
	l-57.167,72.976C351.149,425.597,360.475,426.679,369.167,422.7z"/>
<rect x="201.793" y="181.318" transform="matrix(-0.906 0.4234 -0.4234 -0.906 587.1128 535.1075)" style="fill:#E0E0E2;" width="64.662" height="302.889"/>
<g>
	
		<rect x="147.137" y="193.455" transform="matrix(0.906 -0.4234 0.4234 0.906 -74.5269 96.2869)" style="fill:#D8D7DA;" width="64.662" height="44.88"/>
	
		<rect x="203.315" y="188.162" transform="matrix(-0.906 0.4234 -0.4234 -0.906 562.1016 554.3499)" style="fill:#D8D7DA;" width="32.331" height="302.889"/>
</g>
<rect x="148.662" y="200.289" transform="matrix(0.906 -0.4234 0.4234 0.906 -78.7972 90.7312)" style="fill:#C6C5CA;" width="32.331" height="44.88"/>
<path style="fill:#57565C;" d="M115.114,39.962l-29.29,13.687c15.301,68.915,48.323,123.915,48.323,123.915l45.023-21.039
	C179.17,156.525,158.162,95.91,115.114,39.962z"/>
<path style="fill:#3E3D42;" d="M109.629,42.525L85.824,53.649c15.301,68.915,48.323,123.915,48.323,123.915l23.805-11.124
	C157.952,166.44,124.931,111.44,109.629,42.525z"/>
<rect x="63.941" y="159.627" transform="matrix(-0.906 0.4234 -0.4234 -0.906 382.5112 269.169)" style="fill:#FFD422;" width="194.838" height="34.884"/>
<path style="fill:#FFE477;" d="M207.81,190.095l-66.286,30.975c-7.024,3.282-15.379,0.249-18.661-6.774l-14.768-31.602
	c-3.282-7.024-0.249-15.379,6.774-18.661l66.286-30.975c7.024-3.282,15.379-0.249,18.661,6.774l14.768,31.602
	C217.867,178.458,214.833,186.812,207.81,190.095z"/>
<path style="fill:#FFDA44;" d="M154.202,199.651l-14.768-31.602c-3.282-7.024-0.249-15.379,6.774-18.661l-31.338,14.645
	c-7.024,3.282-10.057,11.637-6.774,18.661l14.768,31.602c3.282,7.024,11.637,10.057,18.661,6.774l31.338-14.645
	C165.839,209.708,157.484,206.675,154.202,199.651z"/>
<circle style="fill:#FF3F62;" cx="73.428" cy="218.143" r="21.588"/>
<path style="fill:#FF0C38;" d="M73.425,218.148c-3.381-7.235-2.387-15.378,1.872-21.491c-3.658-0.322-7.445,0.266-11.012,1.932
	c-10.801,5.048-15.466,17.896-10.418,28.698s17.896,15.466,28.698,10.418c3.566-1.667,6.447-4.195,8.546-7.208
	C83.689,229.845,76.806,225.383,73.425,218.148z"/>
<circle style="fill:#FFE477;" cx="94.763" cy="34.591" r="34.591"/>
<path style="fill:#FFDA44;" d="M87.228,38.112c-6.118-13.094-3.325-28.059,5.887-38.074c-4.375,0.207-8.784,1.247-12.999,3.216
	c-17.308,8.088-24.782,28.675-16.694,45.983s28.675,24.782,45.983,16.694c4.214-1.97,7.841-4.684,10.807-7.909
	C106.618,58.664,93.346,51.205,87.228,38.112z"/>
<circle style="fill:#6DC82A;" cx="94.763" cy="34.591" r="16.545"/>
<path style="fill:#5EAC24;" d="M94.762,34.591c-2.591-5.544-1.83-11.783,1.435-16.467c-2.803-0.247-5.705,0.203-8.438,1.48
	c-8.278,3.868-11.851,13.714-7.983,21.99c3.868,8.278,13.714,11.851,21.99,7.983c2.733-1.277,4.94-3.214,6.549-5.523
	C102.627,43.554,97.352,40.135,94.762,34.591z"/>
<circle style="fill:#FF3F62;" cx="249.259" cy="135.976" r="21.588"/>
<path style="fill:#FF0C38;" d="M249.256,135.981c-3.381-7.235-2.387-15.378,1.872-21.491c-3.658-0.322-7.445,0.266-11.012,1.932
	c-10.801,5.048-15.466,17.896-10.418,28.698s17.896,15.466,28.698,10.418c3.566-1.667,6.447-4.195,8.546-7.208
	C259.521,147.677,252.637,143.216,249.256,135.981z"/>
<path style="fill:#C6C5CA;" d="M121.785,511.992l38.482-103.553c11.915-32.062,50.884-44.258,78.951-24.708l27.723,19.311
	l42.519-9.253c24.377-5.305,49.671,3.51,65.47,22.818l78.049,95.384H121.785z"/>
<path style="fill:#ACABB1;" d="M284.081,465.436c19.621-18.823,47.105-45.273,68.704-66.38c-13.203-6.472-28.432-8.508-43.324-5.267
	l-42.519,9.253l-27.723-19.311c-14.919-10.391-32.918-11.813-48.297-6.05c12.882,21.982,34.426,57.193,49.829,82.215
	C250.13,475.134,271.168,477.823,284.081,465.436z"/>
<path style="fill:#898890;" d="M284.081,465.442c19.621-18.823,47.106-45.273,68.704-66.38c-13.203-6.472-28.432-8.508-43.324-5.267
	l-42.519,9.253l-11.287,68.725C265.138,474.966,276.144,473.057,284.081,465.442z"/>
<g>
</g>
<g>
</g>
<g>
</g>
<g>
</g>
<g>
</g>
<g>
</g>
<g>
</g>
<g>
</g>
<g>
</g>
<g>
</g>
<g>
</g>
<g>
</g>
<g>
</g>
<g>
</g>
<g>
</g>
</svg>
