<svg height="511pt" viewBox="1 -76 511.99928 511" width="511pt" xmlns="http://www.w3.org/2000/svg"><path d="m93.867188 154.101562c0 4.710938 3.820312 8.53125 8.53125 8.53125h273.070312c70.691406 0 128-57.308593 128-128v-25.601562h-409.601562zm0 0" fill="#898890"/><g fill="#787680"><path d="m42.667969 128.5h51.199219v-85.332031h-76.800782c-4.710937 0-8.535156 3.820312-8.535156 8.53125v42.667969c.003906 18.851562 15.285156 34.132812 34.136719 34.132812zm0 0"/><path d="m153.601562 222.367188c0 4.710937 3.820313 8.53125 8.53125 8.53125h187.734376c4.710937 0 8.535156-3.820313 8.535156-8.53125v-59.734376h-204.800782zm0 0"/><path d="m153.601562 299.167969c-18.851562 0-34.136718 15.28125-34.136718 34.132812v17.066407h273.070312v-17.066407c0-18.851562-15.285156-34.132812-34.136718-34.132812zm0 0"/></g><path d="m196.265625 230.898438h119.46875v68.269531h-119.46875zm0 0" fill="#898890"/><path d="m503.464844.5h-409.597656c-4.714844 0-8.535157 3.820312-8.535157 8.53125v25.601562h-68.265625c-9.425781 0-17.066406 7.640626-17.066406 17.066407v42.667969c.0273438 23.550781 19.113281 42.636718 42.667969 42.667968h42.664062v17.066406c0 9.425782 7.644531 17.066407 17.066407 17.066407h42.667968v51.199219c0 9.425781 7.640625 17.066406 17.066406 17.066406h25.601563v51.199218h-34.132813c-23.554687.027344-42.640624 19.113282-42.667968 42.667969v17.066407c0 4.710937 3.820312 8.53125 8.53125 8.53125h273.070312c4.710938 0 8.53125-3.820313 8.53125-8.53125v-17.066407c-.027344-23.554687-19.113281-42.640625-42.667968-42.667969h-34.132813v-51.199218h25.601563c9.425781 0 17.066406-7.640625 17.066406-17.066406v-51.199219h8.53125c75.371094-.089844 136.445312-61.164063 136.535156-136.535157v-25.597656c0-4.714844-3.820312-8.535156-8.535156-8.535156zm-460.796875 119.464844c-14.140625 0-25.601563-11.460938-25.601563-25.597656v-42.667969h68.265625v68.265625zm341.332031 213.335937v8.53125h-256v-8.53125c0-14.140625 11.460938-25.601562 25.601562-25.601562h204.796876c14.140624 0 25.601562 11.460937 25.601562 25.601562zm-76.800781-42.667969h-102.398438v-51.199218h102.398438zm42.667969-68.265624h-187.734376v-51.199219h187.734376zm145.066406-187.734376c-.070313 65.949219-53.515625 119.394532-119.46875 119.46875h-273.066406v-136.535156h392.535156zm0 0" fill="#2d2d30"/></svg>