<?xml version="1.0" encoding="iso-8859-1"?>
<!-- Generator: Adobe Illustrator 19.0.0, SVG Export Plug-In . SVG Version: 6.00 Build 0)  -->
<svg version="1.1" id="Capa_1" xmlns="http://www.w3.org/2000/svg" xmlns:xlink="http://www.w3.org/1999/xlink" x="0px" y="0px"
	 viewBox="0 0 512 512" style="enable-background:new 0 0 512 512;" xml:space="preserve">
<path style="fill:#FFD2A7;" d="M449.368,115.743l-9.943-25.635l-95.13-89.682L210.313,61.327l-12.708,88.951l40.228,53.638h88.5
	v67.949c-1.607-1.362-3.237-2.699-4.911-3.983c-23.269-17.86-51.108-27.3-80.507-27.3s-57.239,9.44-80.507,27.3
	c-3.73,2.863-7.281,5.94-10.673,9.177c-27.981-23.445-63.347-36.477-100.701-36.477H0v270.687l87.752-25.684
	c51.391,17.342,104.874,25.989,158.315,25.989c62.261,0,124.468-11.74,183.217-35.143L512,443.483v-10.171
	C512,323.903,493.269,228.93,449.368,115.743z"/>
<g>
	<path style="fill:#FFC186;" d="M449.368,115.743l-9.943-25.635l-95.13-89.682L256,40.56v163.356h70.333v67.949
		c-1.607-1.362-3.237-2.699-4.911-3.983c-19.247-14.773-41.625-23.766-65.422-26.439v270.025
		c58.935-1.182,117.66-12.878,173.285-35.036L512,443.483v-10.171C512,323.903,493.269,228.93,449.368,115.743z"/>
	<polygon style="fill:#FFC186;" points="309.096,109.875 279.904,102.956 275.806,120.249 201.895,120.249 197.61,150.249 
		299.526,150.249 	"/>
</g>
<polygon style="fill:#F09B59;" points="279.904,102.956 275.806,120.249 256,120.249 256,150.249 299.526,150.249 309.096,109.875 
	"/>
<g>
</g>
<g>
</g>
<g>
</g>
<g>
</g>
<g>
</g>
<g>
</g>
<g>
</g>
<g>
</g>
<g>
</g>
<g>
</g>
<g>
</g>
<g>
</g>
<g>
</g>
<g>
</g>
<g>
</g>
</svg>
