<svg id="Layer_1" enable-background="new 0 0 512 512" height="512" viewBox="0 0 512 512" width="512" xmlns="http://www.w3.org/2000/svg"><path d="m451 277.299v8.701c0 113.699-93.3 195.399-195 226h-.3c-101.999-34.801-194.7-115.3-194.7-226v-8.701l7.5-4.199c19.799-11.4 40.8-21.301 62.1-29.401h250.8c21.3 8.101 42.301 18.001 62.1 29.401z" fill="#596c76"/><path d="m451 277.299v8.701c0 113.699-93.3 195.399-195 226v-268.301h125.4c21.3 8.101 42.301 18.001 62.1 29.401z" fill="#465a61"/><path d="m391 166v160.199c-32.1 11.1-78.3 33.6-135 33.6-56.4 0-97.5-20.7-135-33.6v-160.199z" fill="#fed2a4"/><path d="m391 166v160.199c-32.1 11.1-78.3 33.6-135 33.6v-193.799z" fill="#ffbd86"/><path d="m361 166h-105-102.656l-32.344 15 30 60h84.272l20.728-41.455 20.728 41.455h84.272l30-60z" fill="#465a61"/><path d="m361 241 30-60-30-15h-105v33.545l20.728 41.455z" fill="#3b4a51"/><path d="m390.7 162.999h-269.4l32.401-162.999h204.598z" fill="#465a61"/><path d="m390.7 162.999h-134.7v-162.999h102.299z" fill="#3b4a51"/><path d="m451 121v60h-390v-60h30v30h330v-30z" fill="#596c76"/><path d="m451 121v60h-195v-30h165v-30z" fill="#465a61"/></svg>