<svg xmlns="http://www.w3.org/2000/svg" viewBox="0 0 512 512" width="512" height="512">
	<style>
		tspan { white-space:pre }
		.shp0 { fill: #129b12 } 
		.shp1 { fill: #097c09 } 
		.shp2 { fill: #009000 } 
		.shp3 { fill: #bf6101 } 
		.shp4 { fill: #9a4d01 } 
		.shp5 { fill: #28a528 } 
	</style>
	<path id="Layer" class="shp0" d="M478.75 240.97C478.75 206.19 457.6 176.35 427.46 163.62C432.78 153.33 435.81 141.66 435.81 129.27C435.81 87.92 402.29 54.4 360.94 54.4C349.15 54.4 338.01 57.13 328.1 61.98C319.29 30.44 290.36 7.29 256 7.29C221.65 7.29 192.72 30.44 183.9 61.98C173.99 57.13 162.85 54.4 151.07 54.4C109.72 54.4 76.2 87.92 76.2 129.27C76.2 141.66 79.22 153.33 84.54 163.62C54.41 176.36 33.26 206.19 33.26 240.97C33.26 286.05 68.79 322.77 113.37 324.78C119.58 347.29 143.58 364.08 172.26 364.08C188.52 364.08 203.26 358.68 214.13 349.91C225 358.68 239.75 364.08 256 364.08C272.26 364.08 287 358.68 297.87 349.91C308.74 358.68 323.48 364.08 339.74 364.08C368.42 364.08 392.42 347.29 398.64 324.78C443.21 322.77 478.75 286.05 478.75 240.97Z" />
	<g id="Layer">
		<path id="Layer" class="shp1" d="M251.51 7.43C250.59 7.49 249.67 7.56 248.76 7.65C248.48 7.67 248.2 7.7 247.92 7.73C246.94 7.84 245.97 7.96 245 8.11C244.82 8.13 244.64 8.16 244.45 8.19C243.3 8.37 242.16 8.57 241.02 8.8C241.02 8.8 241.02 8.8 241.02 8.8C260.67 12.8 279.07 26.48 290.73 43.74C298.99 55.96 313.09 63 327.8 62C327.9 62 328 61.99 328.1 61.98C319.29 30.44 290.36 7.29 256 7.29C254.8 7.29 253.6 7.32 252.41 7.38C252.11 7.39 251.81 7.42 251.51 7.43Z" />
		<path id="Layer" class="shp1" d="M427.46 163.62C432.78 153.33 435.8 141.66 435.8 129.27C435.8 87.92 402.28 54.4 360.93 54.4C355.8 54.4 350.79 54.92 345.95 55.91C380.12 62.85 405.83 93.06 405.83 129.27C405.83 141.66 402.81 153.33 397.49 163.62C427.62 176.35 448.77 206.19 448.77 240.97C448.77 286.05 413.24 322.77 368.66 324.78C363.57 343.23 346.52 357.82 324.75 362.49C329.54 363.52 334.56 364.07 339.74 364.07C368.42 364.07 392.42 347.29 398.63 324.78C443.21 322.77 478.75 286.05 478.75 240.97C478.75 206.19 457.6 176.35 427.46 163.62Z" />
	</g>
	<path id="Layer" class="shp2" d="M202.39 337.51C195.64 348.96 167.66 361.76 157.28 362.49C158.42 362.74 159.58 362.95 160.75 363.14C160.84 363.16 160.93 363.17 161.03 363.19C162.21 363.38 163.4 363.54 164.61 363.67C164.64 363.67 164.67 363.67 164.7 363.68C165.79 363.79 166.88 363.87 167.99 363.94C168.26 363.96 168.52 363.97 168.79 363.98C169.94 364.04 171.1 364.07 172.26 364.07L172.26 364.07C187.09 364.07 200.65 359.57 211.17 352.13L213.01 350.79L203.62 335.38L202.39 337.51Z" />
	<path id="Layer" class="shp3" d="M293.44 356.63L325.51 306.01C328.05 302 327.28 296.75 323.71 293.64L323.71 293.64C319.89 290.32 314.15 290.53 310.59 294.13L286.97 318.05C283.83 321.22 278.46 318.58 279.06 314.17L286.01 262.7C286.75 257.2 282.69 252.22 277.15 251.84L270.64 251.4C265.75 251.07 261.4 254.48 260.55 259.31L248.15 329.76C247.46 333.68 242.48 334.97 239.97 331.88L201.14 284.13C198.45 280.82 193.91 279.68 189.98 281.33L183.18 284.19C177.8 286.46 175.67 292.96 178.67 297.97L218.58 364.49C224.36 374.12 226.74 385.42 225.3 396.56C220.13 436.45 213.7 474.07 187.41 504.71L324.6 504.71L324.6 504.71C296.45 471.91 289.51 431.11 285.79 388.09C284.83 377.05 287.5 365.99 293.44 356.63Z" />
	<path id="Layer" class="shp4" d="M325.51 306.01C328.05 302 327.28 296.75 323.71 293.64L323.71 293.64C319.89 290.32 314.14 290.53 310.59 294.13L300.04 304.81L300.04 304.81L286.96 318.05C283.83 321.22 278.46 318.58 279.06 314.17L286.01 262.7C286.73 257.34 282.88 252.48 277.56 251.89L258.03 373.3C257.7 374.87 257.44 376.45 257.26 378.05L257.26 378.05L257.26 378.05C256.89 381.37 256.84 384.73 257.13 388.09C260.86 431.11 267.8 471.91 295.94 504.71L295.94 504.71L324.59 504.71L324.59 504.71C296.45 471.91 289.51 431.11 285.78 388.09C284.83 377.05 287.5 365.99 293.44 356.62L325.51 306.01Z" />
	<path id="Layer" class="shp5" d="M241.75 66.06C220.75 66.06 202.67 78.53 194.47 96.46C186 90.48 175.67 86.95 164.52 86.95C135.81 86.95 112.54 110.22 112.54 138.93C112.54 148.4 115.08 157.27 119.51 164.92C94.58 168.75 75.5 190.29 75.5 216.29C75.5 245 98.77 268.27 127.47 268.27C156.18 268.27 293.73 146.75 293.73 118.04C293.73 89.34 270.46 66.06 241.75 66.06Z" />
	<g id="Layer">
	</g>
	<g id="Layer">
	</g>
	<g id="Layer">
	</g>
	<g id="Layer">
	</g>
	<g id="Layer">
	</g>
	<g id="Layer">
	</g>
	<g id="Layer">
	</g>
	<g id="Layer">
	</g>
	<g id="Layer">
	</g>
	<g id="Layer">
	</g>
	<g id="Layer">
	</g>
	<g id="Layer">
	</g>
	<g id="Layer">
	</g>
	<g id="Layer">
	</g>
	<g id="Layer">
	</g>
</svg>